<?xml version="1.0" encoding="UTF-8" standalone="no"?>
<svg xmlns:ffdec="https://www.free-decompiler.com/flash" xmlns:xlink="http://www.w3.org/1999/xlink" ffdec:objectType="shape" height="12.95px" width="19.95px" xmlns="http://www.w3.org/2000/svg">
  <g transform="matrix(1.0, 0.0, 0.0, 1.0, 0.0, 0.0)">
    <path d="M1.6 0.15 L4.6 9.85 4.65 9.85 4.25 0.15 5.95 0.15 5.95 12.95 4.35 12.95 1.35 3.05 1.7 12.95 0.0 12.95 0.0 0.15 1.6 0.15 M13.05 1.65 L13.35 3.55 Q13.35 5.5 12.5 6.45 11.65 7.35 9.7 7.25 L9.7 12.95 8.0 12.95 8.0 0.15 10.05 0.15 11.15 0.2 12.25 0.6 13.05 1.65 M11.15 5.35 Q11.55 4.8 11.55 3.7 L11.4 2.65 10.95 1.85 9.95 1.6 9.7 1.6 9.7 5.85 Q10.75 5.9 11.15 5.35 M18.2 3.05 L18.1 2.35 17.75 1.75 Q17.5 1.5 17.05 1.5 16.65 1.5 16.4 1.8 16.2 2.1 16.15 2.55 L16.05 3.35 16.1 3.95 16.1 4.3 14.35 4.3 14.35 3.85 Q14.35 2.8 14.5 1.95 14.7 1.05 15.25 0.5 15.85 0.0 17.1 0.0 18.65 0.0 19.3 0.8 19.95 1.65 19.95 3.15 19.95 4.1 19.55 5.25 L18.7 7.45 17.75 9.4 16.65 11.45 19.85 11.45 19.85 12.95 14.2 12.95 17.3 6.35 17.9 4.75 18.2 3.05" fill="#cccccc" fill-rule="evenodd" stroke="none"/>
  </g>
</svg>
