<?xml version="1.0" encoding="UTF-8" standalone="no"?>
<svg xmlns:ffdec="https://www.free-decompiler.com/flash" xmlns:xlink="http://www.w3.org/1999/xlink" ffdec:objectType="shape" height="12.95px" width="32.45px" xmlns="http://www.w3.org/2000/svg">
  <g transform="matrix(1.0, 0.0, 0.0, 1.0, 0.0, 0.0)">
    <path d="M17.95 3.5 Q17.95 2.25 16.65 1.35 15.35 0.45 13.5 0.45 11.65 0.45 10.35 1.35 9.0 2.25 9.0 3.5 9.0 4.75 10.35 5.6 11.65 6.5 13.5 6.5 15.35 6.5 16.65 5.6 17.95 4.75 17.95 3.5 L17.95 3.5" fill="#140f0a" fill-rule="evenodd" stroke="none"/>
    <path d="M17.95 9.25 Q17.95 8.0 16.65 7.1 15.35 6.25 13.5 6.25 11.65 6.25 10.35 7.1 9.0 8.0 9.0 9.25 9.0 10.5 10.35 11.4 11.65 12.25 13.5 12.25 15.35 12.25 16.65 11.4 17.95 10.5 17.95 9.25 L17.95 9.25" fill="#140f0a" fill-rule="evenodd" stroke="none"/>
    <path d="M9.0 3.45 L17.95 3.45 17.95 9.45 9.0 9.45 9.0 3.45 9.0 3.45" fill="#140f0a" fill-rule="evenodd" stroke="none"/>
    <path d="M16.9 3.85 Q16.9 2.8 15.9 2.05 14.9 1.25 13.45 1.25 12.0 1.25 10.95 2.05 9.95 2.8 9.95 3.85 9.95 4.9 10.95 5.7 12.0 6.45 13.45 6.45 14.9 6.45 15.9 5.7 16.9 4.9 16.9 3.85 L16.9 3.85" fill="#b59c50" fill-rule="evenodd" stroke="none"/>
    <path d="M16.9 8.8 Q16.9 7.75 15.9 6.95 14.9 6.2 13.45 6.2 12.0 6.2 10.95 6.95 9.95 7.75 9.95 8.8 9.95 9.85 10.95 10.6 12.0 11.4 13.45 11.4 14.9 11.4 15.9 10.6 16.9 9.85 16.9 8.8 L16.9 8.8" fill="#b59c50" fill-rule="evenodd" stroke="none"/>
    <path d="M9.95 3.8 L16.9 3.8 16.9 9.0 9.95 9.0 9.95 3.8 9.95 3.8" fill="#b59c50" fill-rule="evenodd" stroke="none"/>
    <path d="M9.4 5.65 L17.4 5.65 17.4 6.5 9.4 6.5 9.4 5.65 9.4 5.65" fill="#140f0a" fill-rule="evenodd" stroke="none"/>
    <path d="M13.0 6.05 L13.0 0.9 14.0 0.9 14.0 6.05 13.0 6.05 13.0 6.05" fill="#140f0a" fill-rule="evenodd" stroke="none"/>
    <path d="M9.45 5.05 Q9.45 5.05 9.45 3.85 9.45 3.65 9.55 3.4 9.6 3.2 9.75 2.95 9.9 2.7 10.1 2.45 10.3 2.2 10.55 1.95 10.8 1.7 11.1 1.55 11.45 1.35 11.75 1.2 12.1 1.05 12.5 1.0 12.9 0.95 13.3 0.95" fill="none" stroke="#140f0a" stroke-linecap="round" stroke-linejoin="round" stroke-width="0.8"/>
  </g>
</svg>
