<?xml version="1.0" encoding="UTF-8" standalone="no"?>
<svg xmlns:ffdec="https://www.free-decompiler.com/flash" xmlns:xlink="http://www.w3.org/1999/xlink" ffdec:objectType="shape" height="26.0px" width="41.75px" xmlns="http://www.w3.org/2000/svg">
  <g transform="matrix(1.0, 0.0, 0.0, 1.0, 0.0, 0.0)">
    <path d="M39.4 4.5 Q39.4 3.45 38.55 2.75 37.7 2.0 36.5 2.0 L5.25 2.0 Q4.05 2.0 3.2 2.75 2.35 3.45 2.35 4.5 L2.35 21.5 Q2.35 22.55 3.2 23.25 4.05 24.0 5.25 24.0 L36.5 24.0 Q37.7 24.0 38.55 23.25 39.4 22.55 39.4 21.5 L39.4 4.5 39.4 4.5" fill="#140f0a" fill-rule="evenodd" stroke="none"/>
    <path d="M38.25 5.0 Q38.25 4.15 37.55 3.6 36.9 3.0 35.9 3.0 L5.85 3.0 Q4.85 3.0 4.2 3.6 3.5 4.15 3.5 5.0 L3.5 21.0 Q3.5 21.85 4.2 22.4 4.85 23.0 5.85 23.0 L35.9 23.0 Q36.9 23.0 37.55 22.4 38.25 21.85 38.25 21.0 L38.25 5.0 38.25 5.0" fill="url(#gradient0)" fill-rule="evenodd" stroke="none"/>
  </g>
  <defs>
    <linearGradient gradientTransform="matrix(0.0, -0.0117, 0.0203, 0.0, 15.65, 17.15)" gradientUnits="userSpaceOnUse" id="gradient0" spreadMethod="pad" x1="-819.2" x2="819.2">
      <stop offset="0.0" stop-color="#8f7431"/>
      <stop offset="1.0" stop-color="#baa77d"/>
    </linearGradient>
  </defs>
</svg>
