<?xml version="1.0" encoding="UTF-8" standalone="no"?>
<svg xmlns:ffdec="https://www.free-decompiler.com/flash" xmlns:xlink="http://www.w3.org/1999/xlink" ffdec:objectType="shape" height="8.0px" width="7.65px" xmlns="http://www.w3.org/2000/svg">
  <g transform="matrix(1.0, 0.0, 0.0, 1.0, 0.0, 0.0)">
    <path d="M4.75 3.8 L4.85 3.0 4.7 2.5 4.15 2.3 Q3.75 2.3 3.4 2.55 L2.85 3.15 2.5 4.0 2.4 4.8 2.55 5.45 3.15 5.7 3.85 5.4 4.4 4.7 4.75 3.8 M6.55 0.95 L7.35 2.0 7.65 3.35 7.45 4.35 6.95 5.35 6.15 6.1 5.15 6.4 4.6 6.3 4.25 5.85 3.65 6.25 3.0 6.4 2.25 6.15 1.7 5.6 1.55 4.8 1.7 3.7 2.25 2.7 Q2.6 2.25 3.05 1.95 L4.15 1.6 4.85 1.8 5.3 2.3 5.45 1.85 6.2 1.85 5.1 5.0 5.05 5.3 5.0 5.55 5.05 5.8 5.3 5.85 5.85 5.7 6.35 5.2 6.8 4.4 7.0 3.3 Q7.0 2.45 6.55 1.85 6.15 1.3 5.45 1.0 4.8 0.65 4.0 0.65 3.0 0.7 2.25 1.15 1.55 1.55 1.1 2.35 0.7 3.1 0.65 4.05 0.7 5.0 1.1 5.75 1.55 6.45 2.3 6.95 3.05 7.35 4.0 7.35 L5.05 7.2 6.05 6.8 6.75 6.0 7.45 6.0 6.55 7.1 Q6.0 7.55 5.35 7.8 L4.0 8.0 2.4 7.7 Q1.7 7.4 1.15 6.8 L0.3 5.55 Q0.0 4.8 0.0 4.0 0.0 3.15 0.3 2.45 L1.15 1.15 2.45 0.3 4.0 0.0 5.4 0.25 Q6.05 0.5 6.55 0.95" fill="#cccccc" fill-rule="evenodd" stroke="none"/>
  </g>
</svg>
