<?xml version="1.0" encoding="UTF-8" standalone="no"?>
<svg xmlns:ffdec="https://www.free-decompiler.com/flash" xmlns:xlink="http://www.w3.org/1999/xlink" ffdec:objectType="shape" height="26.0px" width="52.95px" xmlns="http://www.w3.org/2000/svg">
  <g transform="matrix(1.0, 0.0, 0.0, 1.0, 0.0, 0.0)">
    <path d="M50.95 4.5 Q50.95 3.45 50.2 2.75 49.5 2.0 48.45 2.0 L4.5 2.0 Q3.45 2.0 2.75 2.75 2.0 3.45 2.0 4.5 L2.0 21.5 Q2.0 22.55 2.75 23.25 3.45 24.0 4.5 24.0 L48.45 24.0 Q49.5 24.0 50.2 23.25 50.95 22.55 50.95 21.5 L50.95 4.5 50.95 4.5" fill="#140f0a" fill-rule="evenodd" stroke="none"/>
    <path d="M50.15 5.0 Q50.15 4.15 49.55 3.6 48.95 3.0 48.15 3.0 L4.8 3.0 Q4.0 3.0 3.4 3.6 2.8 4.15 2.8 5.0 L2.8 21.0 Q2.8 21.85 3.4 22.4 4.0 23.0 4.8 23.0 L48.15 23.0 Q48.95 23.0 49.55 22.4 50.15 21.85 50.15 21.0 L50.15 5.0 50.15 5.0" fill="url(#gradient0)" fill-rule="evenodd" stroke="none"/>
  </g>
  <defs>
    <linearGradient gradientTransform="matrix(0.0, -0.0117, 0.0277, 0.0, 14.45, 17.15)" gradientUnits="userSpaceOnUse" id="gradient0" spreadMethod="pad" x1="-819.2" x2="819.2">
      <stop offset="0.0" stop-color="#8f7431"/>
      <stop offset="1.0" stop-color="#baa77d"/>
    </linearGradient>
  </defs>
</svg>
