<?xml version="1.0" encoding="UTF-8" standalone="no"?>
<svg xmlns:ffdec="https://www.free-decompiler.com/flash" xmlns:xlink="http://www.w3.org/1999/xlink" ffdec:objectType="shape" height="26.0px" width="35.75px" xmlns="http://www.w3.org/2000/svg">
  <g transform="matrix(1.0, 0.0, 0.0, 1.0, 0.0, 0.0)">
    <path d="M15.1 9.25 Q15.1 9.15 15.1 9.05 15.15 8.95 15.15 8.9 15.2 8.8 15.25 8.75 15.3 8.7 15.35 8.65 15.35 8.6 15.4 8.6 15.45 8.55 15.5 8.55 15.5 8.5 15.55 8.5 15.55 8.5 15.55 8.5 L15.55 7.8 13.0 7.8 13.0 8.45 Q13.1 8.5 13.15 8.6 13.25 8.65 13.3 8.75 13.35 8.8 13.35 8.9 13.4 9.0 13.45 9.05 13.45 9.15 13.45 9.2 13.5 9.25 13.5 9.35 13.5 9.35 13.5 9.4 13.5 9.4 13.5 9.45 L13.45 15.5 8.45 8.85 8.4 8.9 8.0 9.1 8.1 9.25 7.6 9.0 7.85 8.85 7.9 8.9 8.15 8.75 8.15 8.65 8.2 8.65 8.35 7.85 8.35 7.8 7.9 7.8 5.75 7.8 5.75 8.45 Q5.85 8.5 5.9 8.55 6.0 8.6 6.05 8.7 6.1 8.75 6.15 8.85 6.2 8.95 6.2 9.0 6.25 9.1 6.25 9.15 6.25 9.2 6.25 9.25 6.25 9.3 6.25 9.35 6.3 9.35 6.3 9.4 L6.3 16.15 Q6.3 16.4 6.25 16.6 6.25 16.8 6.2 16.95 6.15 17.05 6.1 17.15 6.05 17.25 6.0 17.3 5.95 17.4 5.9 17.4 5.9 17.45 5.85 17.45 5.8 17.5 5.8 17.5 5.8 17.5 5.75 17.5 L5.75 18.2 8.45 18.2 8.45 17.5 Q8.35 17.45 8.3 17.4 8.2 17.3 8.15 17.2 8.1 17.1 8.05 17.0 8.0 16.9 8.0 16.75 8.0 16.65 7.95 16.55 7.95 16.45 7.95 16.35 7.95 16.3 7.95 16.2 7.95 16.2 7.95 16.15 L7.95 13.05 7.85 13.1 7.75 13.2 7.7 13.1 7.55 13.1 7.55 13.05 7.6 13.05 7.6 13.0 7.65 12.95 7.8 12.95 7.85 12.85 7.95 12.8 7.95 11.0 13.45 18.2 15.55 18.2 15.55 17.5 Q15.45 17.5 15.4 17.45 15.35 17.4 15.3 17.3 15.25 17.2 15.2 17.1 15.15 16.95 15.15 16.85 15.1 16.7 15.1 16.6 15.1 16.5 15.1 16.4 15.1 16.3 15.1 16.25 15.1 16.2 15.1 16.15 L15.1 11.15 15.1 9.25" fill="#f1edf8" fill-rule="evenodd" stroke="none"/>
    <path d="M20.5 13.75 Q20.5 13.75 20.65 13.75 20.8 13.75 21.0 13.7 21.3 13.65 21.55 13.6 21.85 13.5 22.15 13.4 22.45 13.25 22.75 13.05 23.05 12.85 23.25 12.55 23.5 12.25 23.65 11.85 23.8 11.45 23.8 10.95 23.8 10.4 23.65 9.9 23.5 9.5 23.25 9.15 23.05 8.8 22.75 8.6 22.45 8.35 22.1 8.2 21.85 8.05 21.5 8.0 21.25 7.9 20.95 7.85 20.75 7.85 20.6 7.85 20.5 7.85 20.45 7.8 L16.65 7.8 16.65 7.9 16.65 8.5 17.0 8.85 17.0 9.15 17.1 9.2 17.1 10.15 17.15 10.15 17.15 10.35 17.45 10.45 17.8 10.5 17.75 10.6 17.25 10.6 17.15 10.75 17.1 10.95 17.1 16.1 Q17.1 16.1 17.1 16.15 17.1 16.2 17.1 16.25 17.1 16.35 17.1 16.45 17.1 16.55 17.05 16.65 17.05 16.75 17.0 16.85 16.95 17.0 16.95 17.1 16.85 17.2 16.8 17.3 16.75 17.4 16.65 17.45 L16.65 18.2 19.15 18.2 19.15 17.45 Q19.15 17.45 19.15 17.45 19.1 17.4 19.1 17.4 19.05 17.35 19.0 17.35 18.95 17.3 18.9 17.2 18.85 17.15 18.85 17.05 18.8 16.95 18.75 16.85 18.75 16.75 18.7 16.6 18.7 16.45 18.75 16.25 L18.75 12.35 18.6 12.25 18.65 12.2 18.7 12.15 18.7 11.0 18.65 10.85 18.6 10.7 18.6 10.35 18.65 10.2 18.7 10.3 18.7 10.2 18.7 9.25 20.65 9.25 Q20.65 9.25 20.7 9.25 20.8 9.25 20.9 9.3 21.05 9.3 21.15 9.35 21.3 9.4 21.45 9.5 21.6 9.55 21.75 9.65 21.9 9.8 22.0 9.95 22.15 10.15 22.2 10.35 22.3 10.6 22.3 10.9 22.3 10.9 22.3 10.95 22.3 11.05 22.3 11.15 22.25 11.3 22.2 11.4 22.15 11.55 22.05 11.7 21.95 11.85 21.75 11.95 21.6 12.1 21.3 12.2 21.0 12.3 20.65 12.35 20.25 12.4 19.75 12.35 L19.7 12.35 19.7 13.3 20.5 13.75" fill="#f1edf8" fill-rule="evenodd" stroke="none"/>
    <path d="M24.2 9.85 Q24.1 10.1 24.15 10.35 24.15 10.55 24.2 10.7 24.25 10.9 24.4 11.0 24.5 11.15 24.65 11.25 24.75 11.35 24.9 11.4 25.0 11.45 25.1 11.5 25.2 11.55 25.25 11.55 25.3 11.55 25.3 11.55 25.25 11.5 25.25 11.5 25.2 11.45 25.2 11.4 25.2 11.35 25.2 11.3 25.2 11.25 25.2 11.2 25.2 11.15 25.2 11.1 25.2 11.05 25.2 11.0 25.2 11.0 25.25 10.95 25.25 10.95 25.25 10.95 25.35 10.65 25.45 10.4 25.55 10.15 25.65 9.95 25.8 9.8 25.95 9.65 26.05 9.55 26.2 9.45 26.3 9.4 26.45 9.3 26.55 9.3 26.65 9.25 26.7 9.25 26.8 9.25 26.8 9.25 26.85 9.25 27.0 9.25 27.1 9.25 27.2 9.25 27.3 9.25 27.4 9.3 27.5 9.3 27.6 9.35 27.65 9.35 27.75 9.4 27.8 9.45 27.85 9.45 27.9 9.5 27.95 9.55 28.05 9.6 28.1 9.65 28.15 9.7 28.25 9.8 28.3 9.9 28.35 10.0 28.4 10.15 28.45 10.25 28.5 10.4 28.5 10.5 28.55 10.65 28.55 10.8 28.55 10.95 28.55 11.05 28.55 11.2 28.5 11.3 28.5 11.45 28.45 11.55 28.45 11.7 28.4 11.9 27.65 13.05 27.45 13.35 26.75 14.15 26.5 14.4 25.5 15.4 24.15 16.8 23.95 17.05 L23.9 18.15 29.5 18.15 29.9 15.85 28.95 15.85 Q28.9 15.95 28.85 16.0 28.8 16.1 28.8 16.15 28.75 16.25 28.7 16.3 28.65 16.35 28.6 16.4 28.6 16.45 28.55 16.5 28.5 16.55 28.45 16.6 28.45 16.65 28.4 16.65 28.35 16.7 28.35 16.75 28.3 16.75 28.25 16.8 28.2 16.8 28.15 16.85 28.05 16.85 28.0 16.9 27.95 16.9 27.85 16.9 27.8 16.9 27.7 16.95 27.6 16.95 27.55 16.95 27.45 16.95 27.4 16.95 27.3 16.95 27.2 16.95 L26.15 16.95 Q26.35 16.7 26.45 16.6 26.55 16.55 26.9 16.15 L28.35 14.5 Q28.35 14.45 28.45 14.35 28.55 14.25 28.65 14.15 28.75 14.0 28.85 13.85 29.0 13.65 29.1 13.5 29.25 13.3 29.4 13.1 29.5 12.9 29.6 12.7 29.7 12.45 29.8 12.25 29.9 12.05 29.9 11.85 29.95 11.7 29.95 11.5 29.95 11.35 29.95 11.15 30.0 10.95 29.95 10.75 29.95 10.5 29.9 10.3 29.9 10.1 29.85 9.9 29.75 9.65 29.7 9.45 29.6 9.25 29.5 9.1 29.35 8.9 29.2 8.75 29.1 8.65 28.95 8.55 28.85 8.45 28.7 8.4 28.6 8.3 28.45 8.25 28.3 8.15 28.15 8.1 28.0 8.05 27.85 8.0 27.7 7.95 27.55 7.95 27.4 7.9 27.25 7.9 27.1 7.85 26.95 7.85 26.65 7.85 26.4 7.9 26.15 7.95 25.9 8.0 25.65 8.05 25.45 8.15 25.25 8.25 25.1 8.4 24.95 8.55 24.8 8.7 24.65 8.85 24.55 9.05 24.45 9.2 24.35 9.4 24.25 9.6 24.2 9.85 L24.2 9.85" fill="#f1edf8" fill-rule="evenodd" stroke="none"/>
  </g>
</svg>
