<?xml version="1.0" encoding="UTF-8" standalone="no"?>
<svg xmlns:ffdec="https://www.free-decompiler.com/flash" xmlns:xlink="http://www.w3.org/1999/xlink" ffdec:objectType="shape" height="26.0px" width="26.0px" xmlns="http://www.w3.org/2000/svg">
  <g transform="matrix(1.0, 0.0, 0.0, 1.0, 0.0, 0.0)">
    <path d="M10.05 5.6 Q10.0 5.6 10.0 5.6 9.95 5.6 9.9 5.6 9.9 5.6 9.85 5.65 9.85 5.65 9.8 5.65 9.8 5.7 9.75 5.7 9.75 5.75 9.75 5.8 9.7 5.8 9.7 5.85 9.7 5.9 9.65 5.9 9.65 5.95 9.6 6.0 9.6 6.0 9.6 6.05 9.55 6.1 9.55 6.15 9.55 6.15 9.5 6.2 9.5 6.2 9.45 6.25 9.45 6.25 9.45 6.25 9.4 6.3 9.35 6.3 9.35 6.3 9.3 6.35 9.25 6.35 9.25 6.35 9.2 6.4 9.15 6.4 9.1 6.4 9.05 6.4 9.0 6.4 8.95 6.4 8.9 6.45 8.85 6.45 8.8 6.45 8.7 6.45 8.65 6.45 8.6 6.45 8.5 6.45 8.4 6.45 7.6 6.55 5.85 6.55 3.9 6.6 3.4 6.7 3.35 6.7 3.3 6.75 3.2 6.75 3.15 6.75 3.1 6.75 3.05 6.8 3.05 6.8 3.0 6.85 2.95 6.85 2.95 6.9 2.9 6.9 2.9 6.95 2.85 7.0 2.85 7.0 2.85 7.05 2.85 7.1 2.85 7.15 2.85 7.2 2.9 7.2 2.9 7.25 2.9 7.3 2.95 7.35 3.0 7.35 3.05 7.4 3.1 7.45 3.15 7.5 3.2 7.5 3.25 7.55 3.35 7.6 3.4 7.65 3.5 7.7 3.6 7.7 L4.35 8.05 4.35 18.9 3.6 19.2 Q3.5 19.25 3.4 19.3 3.35 19.35 3.25 19.35 3.2 19.4 3.15 19.45 3.1 19.5 3.05 19.55 3.0 19.55 2.95 19.6 2.9 19.65 2.9 19.7 2.9 19.75 2.85 19.8 2.85 19.8 2.85 19.85 2.85 19.9 2.85 19.9 2.85 19.95 2.9 20.0 2.9 20.05 2.9 20.05 2.95 20.1 3.0 20.1 3.0 20.15 3.05 20.15 3.1 20.2 3.15 20.2 3.2 20.2 3.25 20.25 3.3 20.25 3.35 20.25 3.9 20.35 5.4 20.35 7.0 20.4 7.2 20.4 7.25 20.4 7.25 20.4 7.3 20.4 7.35 20.4 7.35 20.4 7.4 20.4 7.45 20.4 7.45 20.4 7.5 20.4 7.5 20.4 7.55 20.4 7.55 20.4 7.6 20.35 7.65 20.35 7.65 20.35 7.7 20.35 7.7 20.35 7.75 20.35 7.75 20.3 7.8 20.3 7.85 20.3 7.85 20.3 7.9 20.3 7.9 20.3 7.95 20.3 8.0 20.3 8.0 20.3 8.05 20.3 8.1 20.3 8.15 20.3 8.15 20.3 8.2 20.3 8.25 20.3 8.25 20.25 8.25 20.25 8.25 20.2 8.25 20.15 8.25 20.05 8.25 19.95 8.25 19.8 8.25 19.75 8.2 19.7 8.2 19.65 8.2 19.6 8.15 19.55 8.15 19.55 8.1 19.5 8.05 19.45 8.05 19.45 8.0 19.4 7.95 19.35 7.9 19.35 7.85 19.35 7.8 19.3 7.75 19.3 7.7 19.3 7.6 19.3 7.5 19.25 7.45 19.25 7.35 19.2 7.3 19.2 7.2 19.15 7.15 19.1 7.1 19.1 7.05 19.05 7.0 19.0 6.95 18.95 6.9 18.9 6.9 18.85 6.85 18.8 6.8 18.75 6.8 18.65 6.8 18.6 6.75 18.5 6.75 18.4 6.7 18.3 6.7 18.2 6.7 18.05 6.65 17.9 6.65 17.75 6.65 17.6 6.65 17.4 6.65 17.2 6.65 17.0 6.65 16.8 6.65 16.55 6.6 16.35 6.6 16.05 L6.6 13.4 7.85 13.55 Q7.95 13.55 8.05 13.55 8.15 13.55 8.2 13.6 8.3 13.6 8.4 13.6 8.45 13.6 8.5 13.65 8.6 13.65 8.65 13.65 8.7 13.7 8.8 13.7 8.85 13.7 8.9 13.75 8.95 13.75 9.0 13.75 9.05 13.8 9.1 13.8 9.15 13.85 9.2 13.9 9.25 13.95 9.3 13.95 9.35 14.0 9.4 14.05 9.45 14.1 9.5 14.15 9.55 14.25 9.6 14.3 9.7 14.35 9.75 14.45 9.8 14.5 9.85 14.6 9.9 14.65 10.0 14.75 10.05 14.8 10.1 14.85 10.15 14.9 10.2 14.95 10.25 15.0 10.3 15.05 10.35 15.05 10.4 15.1 10.45 15.1 10.5 15.15 10.55 15.15 10.6 15.15 10.6 15.2 10.65 15.2 10.7 15.2 10.7 15.2 10.75 15.15 10.8 15.15 10.8 15.15 10.85 15.1 10.85 15.1 10.85 15.05 10.9 15.0 10.9 14.95 10.9 14.9 10.95 14.85 10.95 14.8 10.95 14.75 10.95 14.65 10.95 14.6 10.95 14.5 10.95 14.45 10.95 14.35 10.9 14.25 10.9 14.1 10.85 14.0 10.85 13.85 10.8 13.75 10.75 13.6 10.7 13.45 10.7 13.3 10.65 13.1 10.6 12.95 10.5 12.75 10.45 12.6 10.4 12.4 10.35 12.2 10.25 12.0 10.2 11.85 10.1 11.7 10.05 11.55 10.0 11.4 9.9 11.3 9.85 11.2 9.75 11.1 9.7 11.0 9.6 10.95 9.55 10.9 9.5 10.85 9.4 10.8 9.35 10.8 9.25 10.8 9.2 10.8 9.2 10.8 9.15 10.8 9.15 10.85 9.1 10.85 9.1 10.85 9.05 10.9 9.05 10.95 9.05 10.95 9.0 11.0 9.0 11.05 9.0 11.1 8.95 11.15 8.95 11.2 8.95 11.25 8.95 11.3 8.95 11.4 8.9 11.45 8.9 11.5 8.9 11.55 8.85 11.65 8.85 11.7 8.85 11.75 8.8 11.8 8.8 11.85 8.75 11.9 8.75 11.9 8.7 11.95 8.65 12.0 8.65 12.05 8.6 12.05 8.55 12.1 8.5 12.1 8.45 12.15 8.45 12.15 8.4 12.15 8.35 12.2 8.25 12.2 8.2 12.2 8.15 12.25 8.1 12.25 8.0 12.25 7.95 12.25 7.9 12.25 7.8 12.25 7.7 12.3 7.65 12.3 7.55 12.3 L6.6 12.3 6.6 7.7 7.7 7.7 Q7.95 7.7 8.2 7.75 8.45 7.75 8.65 7.8 8.85 7.85 9.05 7.9 9.25 7.95 9.4 8.05 9.6 8.1 9.75 8.25 9.9 8.35 10.0 8.45 10.15 8.55 10.25 8.7 10.35 8.85 10.45 9.0 10.5 9.05 10.5 9.15 10.55 9.2 10.6 9.25 10.65 9.3 10.65 9.35 10.7 9.4 10.75 9.45 10.8 9.5 10.85 9.55 10.9 9.6 10.9 9.6 10.95 9.65 11.0 9.7 11.05 9.7 11.1 9.75 11.15 9.75 11.2 9.8 11.25 9.8 11.3 9.8 11.35 9.8 11.4 9.8 11.4 9.8 11.45 9.8 11.5 9.8 11.5 9.8 11.55 9.75 11.6 9.75 11.6 9.7 11.65 9.7 11.65 9.65 11.7 9.6 11.7 9.6 11.7 9.6 11.7 9.55 11.7 9.55 11.7 9.55 11.7 9.5 11.7 9.5 11.7 9.45 11.75 9.45 11.75 9.4 11.75 9.4 11.75 9.35 11.75 9.3 11.75 9.3 11.75 9.25 11.75 9.2 11.7 8.8 11.15 7.3 11.05 7.1 11.0 6.9 10.9 6.75 10.85 6.6 10.8 6.45 10.7 6.3 10.65 6.15 10.6 6.05 10.55 5.95 10.5 5.9 10.4 5.8 10.35 5.75 10.3 5.7 10.25 5.65 10.2 5.6 10.2 5.6 10.1 5.6 10.05 5.6 L10.05 5.6 M15.35 7.85 Q15.3 7.85 15.25 7.85 15.2 7.85 15.15 7.85 15.1 7.9 15.05 7.9 15.0 7.9 14.95 7.95 14.95 7.95 14.9 8.0 14.85 8.0 14.8 8.05 14.75 8.1 14.75 8.1 14.7 8.15 14.65 8.2 14.6 8.25 14.55 8.3 14.55 8.35 14.5 8.35 14.4 8.4 14.35 8.45 14.3 8.45 14.25 8.5 14.15 8.5 14.1 8.55 14.0 8.55 13.95 8.55 13.85 8.55 13.75 8.6 13.65 8.6 13.55 8.6 13.45 8.6 13.35 8.6 13.3 8.6 13.2 8.6 13.1 8.6 13.05 8.6 12.95 8.65 12.9 8.65 12.85 8.65 12.8 8.65 12.7 8.7 12.65 8.7 12.6 8.7 12.55 8.75 12.55 8.75 12.5 8.8 12.45 8.8 12.4 8.85 12.35 8.85 12.35 8.9 12.3 8.9 12.3 8.95 12.25 8.95 12.25 9.0 12.2 9.0 12.2 9.05 12.2 9.05 12.2 9.1 12.2 9.1 12.2 9.15 12.2 9.15 12.2 9.2 12.2 9.25 12.2 9.3 12.25 9.35 12.3 9.4 12.3 9.45 12.4 9.55 12.45 9.6 12.45 9.6 12.5 9.65 12.55 9.65 12.55 9.7 12.6 9.7 12.65 9.7 12.7 9.75 12.75 9.75 12.75 9.75 12.8 9.75 12.85 9.75 12.9 9.8 12.95 9.8 13.0 9.8 13.05 9.8 13.1 9.8 13.15 9.8 13.2 9.8 13.25 9.8 13.3 9.8 13.35 9.85 13.4 9.85 13.45 9.85 13.45 9.9 13.5 9.9 13.55 9.95 13.55 10.0 13.6 10.0 13.65 10.05 13.65 10.1 13.7 10.1 13.7 10.15 13.75 10.2 13.75 10.25 13.75 10.3 13.8 10.35 13.8 10.4 13.8 10.5 13.85 10.55 13.85 10.6 13.85 10.7 13.85 10.8 13.9 10.85 13.9 10.95 13.9 11.05 13.9 11.15 13.9 11.2 13.9 11.3 13.9 11.4 13.9 11.5 13.9 11.6 13.95 11.7 13.95 11.8 13.95 11.95 13.95 12.05 13.95 12.15 13.95 12.3 13.95 12.4 13.95 12.55 13.95 12.65 13.95 12.8 13.95 12.9 13.95 13.05 13.95 13.4 13.95 14.2 13.95 15.0 13.95 15.45 13.9 16.85 13.9 17.4 13.9 17.6 13.85 17.9 13.85 18.15 13.85 18.2 13.8 18.3 13.75 18.65 13.75 18.75 13.75 18.8 13.7 18.85 13.7 18.9 13.7 18.95 13.65 18.95 13.65 18.95 13.6 19.0 13.55 19.0 13.55 19.0 13.5 19.05 13.15 19.1 13.1 19.1 13.05 19.15 13.05 19.15 13.0 19.15 12.95 19.15 12.9 19.2 12.9 19.2 12.85 19.25 12.8 19.25 12.8 19.25 12.75 19.3 12.75 19.3 12.7 19.35 12.7 19.35 12.65 19.4 12.65 19.45 12.6 19.5 12.6 19.5 12.55 19.55 12.5 19.55 12.5 19.6 12.45 19.65 12.45 19.65 12.45 19.7 12.45 19.7 12.4 19.75 12.4 19.75 12.4 19.8 12.4 19.8 12.4 19.85 12.4 19.9 12.45 19.95 12.45 20.0 12.55 20.05 12.6 20.1 12.7 20.1 12.75 20.15 12.9 20.2 13.0 20.2 13.15 20.25 13.3 20.25 13.5 20.25 13.65 20.3 13.85 20.3 14.1 20.3 14.3 20.3 16.0 20.3 16.85 20.2 16.95 20.2 17.0 20.15 17.05 20.15 17.1 20.1 17.2 20.1 17.25 20.05 17.3 20.05 17.3 20.0 17.35 20.0 17.4 19.95 17.4 19.95 17.45 19.9 17.45 19.85 17.45 19.85 17.5 19.8 17.5 19.75 17.5 19.7 17.5 19.65 17.45 19.65 17.45 19.6 17.45 19.55 17.4 19.5 17.35 19.5 17.3 19.45 17.3 19.4 17.25 19.4 17.2 19.35 17.1 19.3 17.05 19.3 17.0 19.25 16.9 19.2 16.85 19.2 L16.1 18.95 16.1 13.75 Q16.05 13.25 16.05 10.8 16.1 9.75 16.05 9.1 16.0 8.45 15.95 8.25 15.95 8.2 15.9 8.15 15.9 8.1 15.85 8.05 15.85 8.0 15.8 8.0 15.75 7.95 15.75 7.95 15.7 7.9 15.65 7.9 15.6 7.85 15.55 7.85 15.5 7.85 15.45 7.85 15.4 7.85 15.35 7.85 L15.35 7.85 M21.05 7.85 Q21.0 7.85 20.95 7.85 20.9 7.85 20.85 7.85 20.8 7.9 20.75 7.9 20.7 7.9 20.65 7.95 20.6 7.95 20.55 8.0 20.5 8.0 20.45 8.05 20.4 8.1 20.4 8.1 20.35 8.15 20.3 8.2 20.25 8.25 20.2 8.3 20.2 8.35 20.15 8.35 20.1 8.4 20.0 8.45 19.95 8.45 19.9 8.5 19.85 8.5 19.75 8.55 19.7 8.55 19.6 8.55 19.5 8.55 19.4 8.6 19.35 8.6 19.25 8.6 19.15 8.6 19.05 8.6 18.95 8.6 18.85 8.6 18.8 8.6 18.7 8.6 18.65 8.65 18.55 8.65 18.5 8.65 18.45 8.65 18.4 8.7 18.35 8.7 18.3 8.7 18.25 8.75 18.2 8.75 18.15 8.8 18.1 8.8 18.05 8.85 18.05 8.85 18.0 8.9 17.95 8.9 17.95 8.95 17.9 8.95 17.9 9.0 17.9 9.0 17.85 9.05 17.85 9.05 17.85 9.1 17.85 9.1 17.85 9.15 17.85 9.15 17.85 9.2 17.85 9.2 17.85 9.25 17.85 9.25 17.9 9.3 17.9 9.35 17.9 9.35 17.95 9.4 18.0 9.45 18.0 9.5 18.05 9.55 18.1 9.6 18.1 9.6 18.15 9.65 18.2 9.65 18.25 9.7 18.25 9.7 18.3 9.7 18.35 9.75 18.4 9.75 18.45 9.75 18.5 9.75 18.5 9.75 18.55 9.8 18.6 9.8 18.65 9.8 18.75 9.8 18.8 9.8 18.85 9.8 18.9 9.8 18.95 9.8 19.0 9.8 19.0 9.85 19.05 9.85 19.1 9.85 19.15 9.9 19.15 9.9 19.2 9.95 19.25 10.0 19.25 10.0 19.3 10.05 19.35 10.1 19.35 10.1 19.35 10.15 19.4 10.2 19.4 10.25 19.4 10.3 19.45 10.35 19.45 10.4 19.45 10.5 19.5 10.55 19.5 10.6 19.5 10.7 19.55 10.8 19.55 10.85 19.55 10.95 19.55 11.05 19.55 11.15 19.55 11.2 19.55 11.3 19.55 11.4 19.55 11.5 19.6 11.6 19.6 11.7 19.6 11.8 19.6 11.95 19.6 12.05 19.6 12.15 19.6 12.3 19.6 12.4 19.6 12.55 19.6 12.65 19.6 12.8 19.6 12.9 19.6 13.05 19.6 13.45 19.6 14.2 19.6 15.2 19.6 15.45 19.55 17.05 19.55 17.4 19.55 17.55 19.5 17.9 19.5 18.15 19.5 18.2 19.5 18.25 19.4 18.65 19.4 18.7 19.4 18.75 19.4 18.8 19.4 18.85 19.4 18.85 19.35 18.9 19.35 18.9 19.35 18.95 19.35 18.95 19.35 18.95 19.35 18.95 19.25 19.0 19.2 19.0 19.2 19.0 19.15 19.05 18.8 19.1 18.75 19.1 18.7 19.15 18.7 19.15 18.65 19.15 18.6 19.15 18.6 19.2 18.55 19.2 18.5 19.25 18.5 19.25 18.45 19.25 18.4 19.3 18.4 19.3 18.35 19.35 18.35 19.35 18.3 19.4 18.3 19.45 18.25 19.5 18.25 19.5 18.2 19.55 18.2 19.55 18.15 19.6 18.15 19.65 18.1 19.65 18.1 19.7 18.1 19.7 18.1 19.75 18.1 19.75 18.1 19.8 18.1 19.8 18.1 19.85 18.1 19.9 18.1 19.95 18.15 20.0 18.2 20.05 18.25 20.1 18.35 20.1 18.45 20.15 18.55 20.2 18.65 20.2 18.8 20.25 18.95 20.25 19.15 20.25 19.3 20.3 19.55 20.3 19.75 20.3 20.0 20.3 21.65 20.3 22.5 20.2 22.6 20.2 22.65 20.15 22.7 20.15 22.8 20.1 22.85 20.1 22.9 20.05 22.95 20.05 23.0 20.0 23.0 20.0 23.05 19.95 23.1 19.95 23.1 19.9 23.1 19.85 23.15 19.85 23.15 19.8 23.15 19.75 23.15 19.7 23.15 19.65 23.15 19.65 23.1 19.6 23.1 19.55 23.05 19.5 23.0 19.5 23.0 19.45 22.95 19.4 22.9 19.4 22.85 19.35 22.8 19.3 22.7 19.3 22.65 19.25 22.6 19.2 22.5 19.2 L21.75 18.95 21.75 13.75 Q21.75 13.25 21.75 10.8 21.75 8.65 21.6 8.25 21.6 8.2 21.55 8.15 21.55 8.1 21.5 8.05 21.5 8.0 21.45 8.0 21.45 7.95 21.4 7.95 21.35 7.9 21.3 7.9 21.3 7.9 21.25 7.85 21.2 7.85 21.15 7.85 21.1 7.85 21.05 7.85 L21.05 7.85" fill="#ffffff" fill-rule="evenodd" stroke="none"/>
  </g>
</svg>
