<?xml version="1.0" encoding="UTF-8" standalone="no"?>
<svg xmlns:ffdec="https://www.free-decompiler.com/flash" xmlns:xlink="http://www.w3.org/1999/xlink" ffdec:objectType="shape" height="26.0px" width="35.75px" xmlns="http://www.w3.org/2000/svg">
  <g transform="matrix(1.0, 0.0, 0.0, 1.0, 0.0, 0.0)">
    <path d="M16.2 9.25 Q16.2 9.15 16.2 9.05 16.25 8.95 16.3 8.9 16.3 8.8 16.35 8.75 16.4 8.7 16.45 8.65 16.5 8.6 16.5 8.6 16.55 8.55 16.6 8.55 16.65 8.55 16.65 8.5 16.65 8.5 16.65 8.5 L16.65 7.85 14.15 7.85 14.15 8.45 Q14.25 8.5 14.3 8.6 14.35 8.65 14.4 8.75 14.45 8.8 14.5 8.9 14.5 9.0 14.55 9.05 14.55 9.15 14.6 9.2 14.6 9.3 14.6 9.35 14.6 9.4 14.6 9.4 14.6 9.45 14.6 9.45 L14.55 15.5 9.55 8.9 9.5 8.9 9.1 9.15 9.2 9.25 8.7 9.05 8.95 8.85 9.05 8.9 9.3 8.75 9.3 8.7 9.35 8.65 9.5 7.85 9.5 7.85 9.0 7.85 6.9 7.85 6.9 8.45 Q7.0 8.5 7.05 8.55 7.1 8.65 7.15 8.7 7.2 8.8 7.25 8.85 7.3 8.95 7.3 9.0 7.35 9.1 7.35 9.15 7.35 9.2 7.4 9.3 7.4 9.3 7.4 9.35 7.4 9.35 7.4 9.4 L7.4 16.15 Q7.4 16.4 7.35 16.6 7.35 16.8 7.3 16.95 7.25 17.05 7.2 17.15 7.15 17.25 7.1 17.35 7.1 17.4 7.05 17.45 7.0 17.45 6.95 17.45 6.95 17.5 6.9 17.5 6.9 17.5 6.9 17.5 L6.9 18.2 9.55 18.2 9.55 17.5 Q9.45 17.45 9.4 17.4 9.3 17.3 9.25 17.2 9.2 17.1 9.15 17.0 9.15 16.9 9.1 16.75 9.1 16.65 9.05 16.55 9.05 16.45 9.05 16.35 9.05 16.3 9.05 16.25 9.05 16.2 9.05 16.2 L9.05 13.05 8.95 13.1 8.85 13.2 8.8 13.15 8.7 13.15 8.7 13.05 8.75 13.05 8.75 13.0 8.75 12.95 8.9 12.95 8.95 12.85 9.05 12.8 9.05 11.0 14.55 18.2 16.65 18.2 16.65 17.5 Q16.55 17.5 16.5 17.45 16.45 17.4 16.4 17.3 16.35 17.2 16.3 17.1 16.25 17.0 16.25 16.85 16.25 16.75 16.2 16.6 16.2 16.5 16.2 16.4 16.2 16.3 16.2 16.25 16.2 16.2 16.2 16.2 L16.2 11.15 16.2 9.25" fill="#f1edf8" fill-rule="evenodd" stroke="none"/>
    <path d="M21.6 13.75 Q21.6 13.75 21.75 13.75 21.9 13.75 22.1 13.7 22.4 13.65 22.65 13.6 22.95 13.5 23.25 13.4 23.6 13.25 23.85 13.05 24.15 12.85 24.4 12.55 24.6 12.25 24.75 11.85 24.9 11.45 24.9 10.95 24.9 10.4 24.75 9.9 24.6 9.5 24.35 9.15 24.15 8.85 23.85 8.6 23.55 8.35 23.2 8.2 22.95 8.1 22.6 8.0 22.35 7.9 22.1 7.9 21.9 7.85 21.7 7.85 21.65 7.85 21.55 7.85 L17.75 7.85 17.75 7.95 17.75 8.5 18.1 8.85 18.1 9.15 18.2 9.2 18.2 10.15 18.3 10.15 18.3 10.4 18.6 10.45 18.9 10.5 18.85 10.6 18.35 10.6 18.25 10.75 18.25 10.95 18.25 16.1 Q18.25 16.1 18.25 16.15 18.25 16.1 18.25 16.25 18.2 16.35 18.2 16.45 18.2 16.55 18.2 16.65 18.15 16.8 18.1 16.9 18.1 17.0 18.05 17.1 18.0 17.2 17.9 17.3 17.85 17.4 17.75 17.45 L17.75 18.2 20.25 18.2 20.25 17.45 Q20.25 17.45 20.25 17.45 20.2 17.4 20.2 17.4 20.15 17.35 20.1 17.35 20.05 17.3 20.0 17.25 19.95 17.15 19.95 17.1 19.9 17.0 19.85 16.85 19.85 16.75 19.85 16.6 19.8 16.45 19.85 16.25 L19.85 12.4 19.7 12.25 19.75 12.2 19.8 12.2 19.8 11.0 19.8 10.9 19.7 10.75 19.7 10.35 19.75 10.25 19.8 10.3 19.8 10.2 19.8 9.25 21.75 9.25 Q21.75 9.25 21.8 9.25 21.9 9.3 22.0 9.3 22.15 9.3 22.25 9.35 22.45 9.4 22.55 9.5 22.75 9.55 22.85 9.7 23.0 9.8 23.15 10.0 23.25 10.15 23.3 10.4 23.4 10.65 23.4 10.9 23.4 10.9 23.4 10.95 23.4 11.05 23.4 11.15 23.4 11.3 23.35 11.4 23.25 11.55 23.15 11.7 23.05 11.85 22.9 11.95 22.7 12.1 22.4 12.2 22.15 12.3 21.75 12.35 21.35 12.4 20.85 12.35 L20.8 12.35 20.8 13.3 21.6 13.75" fill="#f1edf8" fill-rule="evenodd" stroke="none"/>
    <path d="M25.75 17.2 Q25.75 17.2 25.8 16.85 25.9 16.45 26.0 15.95 26.15 15.3 26.3 14.7 26.5 13.9 26.7 13.15 26.9 12.3 27.15 11.55 27.4 10.7 27.65 10.0 27.95 9.25 28.25 8.7 28.55 8.1 28.85 7.8 28.85 7.8 28.75 7.85 28.75 7.85 28.55 7.9 28.35 8.0 28.2 8.05 27.95 8.15 27.75 8.2 27.5 8.3 27.3 8.4 27.05 8.55 26.8 8.65 26.55 8.75 26.35 8.9 26.15 9.0 26.0 9.1 25.9 9.25 24.85 13.6 23.8 18.15 23.95 18.15 24.85 17.65 25.75 17.2 L25.75 17.2" fill="#f1edf8" fill-rule="evenodd" stroke="none"/>
  </g>
</svg>
