<?xml version="1.0" encoding="UTF-8" standalone="no"?>
<svg xmlns:ffdec="https://www.free-decompiler.com/flash" xmlns:xlink="http://www.w3.org/1999/xlink" ffdec:objectType="shape" height="26.0px" width="41.75px" xmlns="http://www.w3.org/2000/svg">
  <g transform="matrix(1.0, 0.0, 0.0, 1.0, 0.0, 0.0)">
    <path d="M32.0 5.1 Q31.75 5.1 29.95 6.05 29.75 6.2 29.55 6.3 29.35 6.4 29.2 6.55 29.05 6.65 28.9 6.75 28.75 6.85 28.65 6.95 28.55 7.0 28.45 7.1 28.4 7.2 28.3 7.25 28.25 7.35 28.25 7.4 28.2 7.45 28.2 7.55 28.2 7.6 28.2 7.65 28.2 7.7 28.25 7.7 28.25 7.75 28.25 7.8 28.3 7.8 28.3 7.85 28.35 7.85 28.35 7.9 28.35 7.9 28.4 7.9 28.4 7.9 28.45 7.9 28.45 7.95 28.5 7.95 28.5 7.95 28.55 7.95 28.55 7.95 28.6 7.95 28.65 7.95 28.65 7.95 28.7 7.95 28.75 7.95 28.75 7.95 28.8 7.95 L29.4 7.95 29.4 19.5 28.65 19.85 Q28.55 19.9 28.5 19.95 28.45 20.0 28.35 20.05 28.3 20.05 28.25 20.1 28.2 20.15 28.15 20.2 28.1 20.2 28.1 20.25 28.05 20.3 28.05 20.3 28.0 20.35 28.0 20.4 28.0 20.4 28.0 20.45 28.0 20.5 28.05 20.55 28.05 20.6 28.1 20.6 28.2 20.65 28.25 20.7 28.35 20.7 28.5 20.75 28.6 20.75 28.75 20.75 28.9 20.8 29.1 20.8 29.25 20.8 29.5 20.8 29.7 20.8 29.95 20.8 31.8 20.85 32.3 20.75 32.35 20.75 32.4 20.75 32.45 20.7 32.5 20.7 32.55 20.65 32.55 20.65 32.6 20.6 32.6 20.6 32.65 20.55 32.65 20.55 32.7 20.5 32.7 20.45 32.7 20.4 32.7 20.35 32.75 20.3 32.75 20.25 32.75 20.2 32.75 20.2 32.75 20.15 32.7 20.15 32.7 20.1 32.7 20.1 32.65 20.05 32.65 20.05 32.6 20.05 32.6 20.0 32.55 20.0 32.55 20.0 32.5 20.0 32.45 20.0 32.45 20.0 32.4 20.0 32.35 20.0 32.3 20.0 32.25 20.0 32.25 19.95 32.2 19.95 32.15 19.95 32.1 19.95 32.05 19.9 32.05 19.9 32.0 19.85 31.95 19.85 31.9 19.8 31.9 19.8 31.85 19.75 31.8 19.7 31.75 19.65 31.7 19.6 31.7 19.55 31.65 19.5 31.65 19.45 31.6 19.4 31.6 19.3 31.55 19.25 31.55 19.15 31.5 19.05 31.5 18.95 31.45 18.85 31.45 18.75 31.45 18.6 31.45 18.5 31.4 18.35 31.4 18.2 31.35 17.05 31.35 13.0 31.35 8.95 31.4 7.9 31.4 7.75 31.4 7.65 31.45 7.55 31.45 7.4 31.5 7.3 31.5 7.2 31.5 7.1 31.55 7.05 31.6 6.95 31.6 6.85 31.65 6.75 31.7 6.7 31.75 6.65 31.75 6.55 31.8 6.5 31.85 6.45 31.9 6.4 31.95 6.35 32.0 6.3 32.0 6.2 32.05 6.15 32.1 6.1 32.1 6.05 32.15 6.0 32.2 5.95 32.2 5.9 32.2 5.8 32.25 5.75 32.25 5.7 32.25 5.65 32.3 5.6 32.3 5.55 32.3 5.5 32.3 5.45 32.3 5.4 32.3 5.35 32.3 5.3 32.3 5.3 32.25 5.25 32.25 5.2 32.25 5.2 32.2 5.15 32.2 5.15 32.15 5.15 32.15 5.1 32.1 5.1 32.05 5.1 32.0 5.1 L32.0 5.1 M21.15 6.65 Q21.1 6.65 21.05 6.65 21.0 6.7 20.95 6.7 20.85 6.7 20.8 6.75 20.75 6.75 20.65 6.8 20.6 6.8 20.5 6.85 20.45 6.9 20.35 6.95 20.25 6.95 20.15 7.0 20.05 7.05 19.95 7.1 19.0 7.75 18.9 7.8 18.85 7.85 18.85 7.85 18.8 7.9 18.8 7.95 18.75 8.0 18.75 8.0 18.7 8.05 18.7 8.05 18.7 8.1 18.7 8.1 18.7 8.15 18.7 8.15 18.7 8.2 18.7 8.2 18.75 8.25 18.75 8.3 18.75 8.35 18.8 8.35 18.8 8.4 18.85 8.4 18.85 8.45 18.9 8.45 18.95 8.5 18.95 8.5 19.0 8.55 19.05 8.55 19.1 8.55 19.1 8.6 19.15 8.6 19.2 8.65 19.25 8.65 19.3 8.65 19.45 8.7 19.65 8.75 19.75 8.8 19.75 8.8 19.75 8.8 19.75 8.8 19.8 8.8 19.8 8.85 19.8 8.85 19.8 8.85 19.85 8.85 19.85 8.9 19.85 8.9 19.85 8.9 19.9 8.95 19.9 8.95 19.9 9.0 19.9 9.0 19.95 9.05 19.95 9.1 19.95 9.1 19.95 9.15 20.0 9.2 20.0 9.2 20.0 9.25 20.0 9.3 20.0 9.35 20.0 9.4 20.0 9.4 20.0 9.45 20.0 9.5 20.0 9.55 20.0 9.65 20.0 9.7 20.0 9.75 20.0 9.8 20.0 10.15 19.35 12.0 L17.9 15.85 Q16.7 18.95 16.45 19.25 16.4 19.3 16.35 19.35 16.35 19.4 16.3 19.45 16.25 19.45 16.2 19.5 16.15 19.55 16.1 19.55 16.0 19.6 15.95 19.65 15.9 19.65 15.85 19.7 15.75 19.7 15.7 19.75 15.65 19.75 15.55 19.8 15.5 19.8 15.4 19.85 15.35 19.85 15.3 19.9 15.25 19.9 15.2 19.95 15.15 19.95 15.1 20.0 15.1 20.0 15.05 20.05 15.05 20.1 15.0 20.1 15.0 20.15 15.0 20.2 15.0 20.25 15.0 20.25 15.0 20.3 15.0 20.35 15.0 20.4 15.0 20.4 15.0 20.45 15.05 20.5 15.05 20.55 15.1 20.55 15.1 20.6 15.15 20.6 15.2 20.65 15.2 20.65 15.25 20.65 15.3 20.7 15.35 20.7 15.4 20.7 15.85 20.8 17.3 20.8 18.8 20.75 19.15 20.7 19.2 20.7 19.25 20.7 19.3 20.65 19.35 20.65 19.4 20.65 19.45 20.65 19.45 20.6 19.5 20.6 19.5 20.6 19.55 20.55 19.55 20.55 19.6 20.5 19.6 20.5 19.6 20.45 19.6 20.45 19.6 20.4 19.6 20.35 19.6 20.3 19.6 20.3 19.55 20.25 19.55 20.2 19.5 20.15 19.5 20.1 19.45 20.05 19.4 20.05 19.35 20.0 19.3 19.95 19.25 19.9 19.2 19.85 19.1 19.8 19.05 19.8 18.95 19.75 18.85 19.7 18.8 19.65 18.75 19.65 18.65 19.6 18.6 19.55 18.55 19.5 18.5 19.45 18.45 19.4 18.45 19.4 18.4 19.35 18.35 19.3 18.35 19.25 18.35 19.2 18.3 19.15 18.3 19.1 18.3 19.0 18.3 18.95 18.3 18.9 18.3 18.85 18.35 18.8 18.35 18.75 18.35 18.65 18.35 18.6 18.4 18.55 18.4 18.45 18.45 18.4 18.45 18.3 18.5 18.25 18.5 18.15 18.55 18.05 18.6 18.0 18.6 17.9 L19.0 17.05 23.05 17.05 23.4 18.1 Q23.45 18.2 23.45 18.25 23.45 18.35 23.5 18.4 23.5 18.45 23.55 18.55 23.55 18.6 23.55 18.65 23.55 18.75 23.6 18.8 23.6 18.85 23.6 18.9 23.6 18.95 23.6 19.0 23.6 19.05 23.6 19.1 23.6 19.15 23.6 19.2 23.6 19.3 23.55 19.35 23.55 19.4 23.55 19.4 23.5 19.45 23.45 19.5 23.45 19.55 23.4 19.55 23.35 19.6 23.3 19.65 23.25 19.65 23.15 19.65 23.1 19.7 23.05 19.7 23.0 19.7 22.9 19.75 22.85 19.75 22.8 19.8 22.75 19.8 22.7 19.85 22.65 19.85 22.65 19.9 22.6 19.95 22.55 20.0 22.55 20.05 22.5 20.1 22.5 20.15 22.5 20.2 22.5 20.25 22.5 20.3 22.5 20.35 22.5 20.4 22.5 20.45 22.5 20.5 22.5 20.55 22.55 20.55 22.55 20.55 22.55 20.6 22.55 20.6 22.6 20.6 22.6 20.6 22.6 20.65 22.65 20.65 22.65 20.65 22.7 20.65 22.7 20.65 22.75 20.65 22.75 20.7 22.8 20.7 22.85 20.7 22.9 20.7 22.9 20.7 23.35 20.75 23.55 20.75 23.8 20.8 25.0 20.8 25.25 20.8 25.95 20.8 26.35 20.75 26.55 20.75 26.6 20.75 26.65 20.75 26.7 20.75 26.75 20.75 26.8 20.75 26.85 20.75 26.9 20.75 26.95 20.75 27.0 20.75 27.05 20.75 27.1 20.75 27.15 20.7 27.2 20.7 27.25 20.7 27.25 20.7 27.3 20.7 27.35 20.7 27.4 20.7 27.45 20.7 27.45 20.7 27.5 20.65 27.55 20.65 27.6 20.65 27.6 20.65 27.65 20.65 27.65 20.6 27.65 20.6 27.7 20.6 27.7 20.55 27.7 20.55 27.7 20.55 27.7 20.55 27.7 20.55 27.7 20.5 27.7 20.5 27.75 20.45 27.75 20.4 27.75 20.4 27.75 20.35 27.75 20.3 27.75 20.25 27.75 20.2 27.75 20.15 27.7 20.1 27.7 20.05 27.65 20.0 27.65 19.95 27.6 19.9 27.55 19.9 27.5 19.85 27.5 19.85 27.45 19.8 27.4 19.8 27.3 19.75 27.25 19.75 27.2 19.75 27.15 19.75 27.05 19.7 27.0 19.7 26.95 19.65 26.9 19.65 26.8 19.6 26.75 19.6 26.7 19.55 26.65 19.5 26.6 19.45 26.55 19.45 26.5 19.4 26.45 19.35 26.4 19.3 26.35 19.25 26.3 19.15 26.0 18.65 23.95 13.0 L22.65 9.4 Q22.3 8.5 22.0 7.65 21.75 7.05 21.75 7.0 21.75 6.95 21.7 6.9 21.7 6.9 21.65 6.85 21.65 6.85 21.6 6.8 21.55 6.75 21.55 6.75 21.5 6.75 21.45 6.7 21.45 6.7 21.4 6.7 21.35 6.7 21.3 6.65 21.25 6.65 21.2 6.65 21.2 6.65 21.15 6.65 L21.15 6.65 M5.3 6.95 Q5.05 6.95 4.8 6.95 4.6 7.0 4.4 7.0 4.2 7.0 4.0 7.0 3.85 7.05 3.7 7.05 3.6 7.1 3.45 7.1 3.35 7.15 3.3 7.15 3.2 7.2 3.15 7.25 3.1 7.25 3.1 7.3 3.05 7.5 3.05 7.55 3.05 7.55 3.05 7.6 3.05 7.6 3.05 7.65 3.05 7.65 3.1 7.65 3.1 7.7 3.1 7.7 3.15 7.75 3.15 7.75 3.15 7.8 3.2 7.8 3.2 7.85 3.25 7.9 3.25 7.9 3.3 7.95 3.35 7.95 3.35 8.0 3.4 8.0 3.4 8.05 3.45 8.05 3.5 8.1 3.5 8.1 3.55 8.1 3.6 8.15 3.6 8.15 3.65 8.15 3.7 8.2 3.75 8.2 3.8 8.2 3.85 8.2 3.85 8.2 3.9 8.2 3.95 8.2 4.0 8.25 4.05 8.25 4.05 8.25 4.1 8.25 4.15 8.3 4.15 8.3 4.2 8.3 4.2 8.35 4.25 8.35 4.25 8.35 4.25 8.4 4.3 8.4 4.3 8.4 4.3 8.4 4.3 8.4 4.3 8.45 4.3 8.45 4.3 8.45 4.35 8.5 4.35 8.5 4.35 8.55 4.35 8.55 4.35 8.6 4.35 8.6 4.4 8.65 4.4 8.7 4.4 8.7 4.4 8.75 4.4 8.8 4.4 8.85 4.5 9.1 4.5 12.1 L4.5 15.35 Q4.5 17.75 4.45 18.45 L4.4 19.05 Q4.4 19.1 4.4 19.15 4.4 19.2 4.35 19.25 4.35 19.3 4.35 19.35 4.35 19.35 4.35 19.4 4.35 19.4 4.3 19.45 4.3 19.45 4.3 19.5 4.25 19.5 4.25 19.55 4.25 19.55 4.2 19.55 4.2 19.55 4.2 19.55 4.2 19.6 4.15 19.6 4.15 19.6 4.15 19.6 4.1 19.6 4.1 19.6 4.05 19.65 4.05 19.65 4.0 19.65 3.95 19.65 3.95 19.65 3.9 19.65 3.85 19.65 3.85 19.65 3.8 19.65 3.75 19.65 3.7 19.7 3.7 19.7 3.65 19.7 3.6 19.7 3.55 19.75 3.55 19.75 3.5 19.75 3.45 19.8 3.45 19.8 3.4 19.85 3.4 19.85 3.35 19.9 3.3 19.9 3.3 19.95 3.25 20.0 3.25 20.0 3.2 20.05 3.2 20.05 3.15 20.1 3.15 20.15 3.1 20.15 3.1 20.2 3.1 20.2 3.05 20.25 3.05 20.25 3.05 20.3 3.05 20.3 3.05 20.3 3.05 20.35 3.05 20.35 3.05 20.4 3.1 20.6 3.1 20.6 3.15 20.65 3.15 20.65 3.15 20.65 3.2 20.7 3.2 20.7 3.25 20.7 3.25 20.75 3.3 20.75 3.35 20.75 3.4 20.75 3.4 20.8 3.45 20.8 3.5 20.8 3.55 20.8 3.65 20.8 4.05 20.9 6.2 20.9 6.45 20.9 6.7 20.9 6.95 20.9 7.15 20.9 7.4 20.85 7.55 20.85 7.75 20.85 7.9 20.85 8.05 20.8 8.15 20.8 8.25 20.8 8.35 20.75 8.4 20.75 8.5 20.7 8.55 20.7 8.55 20.65 8.55 20.6 8.6 20.6 8.6 20.55 8.6 20.5 8.6 20.5 8.6 20.45 8.6 20.4 8.6 20.35 8.6 20.35 8.55 20.3 8.55 20.25 8.55 20.2 8.5 20.15 8.45 20.1 8.45 20.1 8.4 20.05 8.35 20.0 8.3 19.95 8.3 19.95 8.25 19.9 8.2 19.85 8.15 19.85 8.1 19.8 8.05 19.8 8.0 19.75 7.95 19.75 7.9 19.75 7.85 19.7 7.8 19.7 7.75 19.7 7.7 19.7 7.65 19.7 7.6 19.7 7.55 19.7 7.5 19.7 7.45 19.65 7.4 19.65 7.35 19.6 7.3 19.55 7.25 19.5 7.2 19.45 7.15 19.4 7.15 19.35 7.1 19.3 7.05 19.2 7.0 19.15 7.0 19.05 6.95 19.0 6.9 18.9 6.9 18.8 6.85 18.75 6.85 18.65 6.85 18.55 6.8 18.45 6.8 18.4 6.75 18.3 6.75 18.2 6.75 18.15 6.75 18.05 6.7 17.95 6.7 17.9 6.7 17.8 6.7 17.7 6.7 17.65 L6.75 15.4 6.75 8.1 7.4 8.2 Q7.7 8.25 8.2 8.4 8.5 8.45 8.5 8.45 8.5 8.5 8.55 8.5 8.6 8.55 8.6 8.55 8.65 8.6 8.7 8.65 8.75 8.65 8.75 8.7 8.8 8.75 8.85 8.75 8.9 8.8 8.95 8.85 9.0 8.85 9.1 8.9 9.15 8.95 9.2 9.0 9.35 9.1 9.5 9.2 9.65 9.35 9.75 9.45 9.85 9.6 9.95 9.75 10.05 9.9 10.15 10.05 10.25 10.2 10.3 10.35 10.35 10.55 10.4 10.75 10.45 10.9 10.45 11.1 10.45 11.3 10.45 11.55 10.45 11.75 10.45 11.95 10.4 12.15 10.4 12.35 10.35 12.5 10.3 12.65 10.25 12.85 10.15 13.0 10.1 13.15 10.0 13.25 9.9 13.4 9.75 13.55 9.65 13.65 9.5 13.75 9.4 13.85 9.2 13.95 9.0 14.05 8.85 14.15 8.65 14.25 8.5 14.35 8.35 14.45 8.25 14.55 8.1 14.6 8.0 14.7 7.9 14.75 7.85 14.85 7.75 14.9 7.7 14.95 7.65 15.05 7.65 15.1 7.6 15.15 7.6 15.2 7.6 15.2 7.6 15.2 7.65 15.25 7.65 15.25 7.65 15.3 7.65 15.35 7.65 15.45 7.7 15.55 7.75 15.6 7.8 15.75 7.85 15.85 7.9 16.0 8.0 16.15 8.1 16.3 8.2 16.45 8.3 16.65 8.45 16.85 8.6 17.05 8.75 17.25 8.9 17.5 9.05 17.75 9.2 17.95 9.35 18.15 9.5 18.35 9.6 18.55 9.75 18.75 9.85 18.9 9.95 19.1 10.0 19.25 10.1 19.4 10.15 19.5 10.25 19.65 10.3 19.75 10.3 19.85 10.35 19.95 10.4 20.05 L10.5 20.8 12.55 20.8 Q13.85 20.75 14.2 20.7 14.25 20.7 14.3 20.65 14.35 20.65 14.4 20.65 14.45 20.6 14.5 20.6 14.5 20.6 14.55 20.55 14.55 20.55 14.6 20.5 14.6 20.5 14.6 20.45 14.65 20.4 14.65 20.4 14.65 20.35 14.65 20.3 14.65 20.25 14.65 20.25 14.6 20.2 14.6 20.15 14.55 20.1 14.55 20.05 14.5 20.05 14.45 20.0 14.4 19.95 14.35 19.9 14.25 19.85 14.2 19.8 14.1 19.8 14.0 19.75 13.9 19.7 13.8 19.65 13.7 19.6 13.6 19.55 13.5 19.45 13.35 19.4 13.25 19.3 13.1 19.2 13.0 19.1 12.85 19.0 12.7 18.85 12.55 18.75 12.4 18.6 12.25 18.45 12.1 18.3 11.95 18.15 11.8 17.95 11.6 17.8 L9.25 15.35 Q9.7 15.25 10.05 15.1 10.45 14.95 10.75 14.75 11.1 14.6 11.35 14.35 11.6 14.15 11.85 13.9 12.05 13.65 12.2 13.35 12.35 13.05 12.45 12.7 12.55 12.4 12.65 12.0 12.7 11.65 12.7 11.2 12.7 10.85 12.65 10.55 12.6 10.25 12.5 9.95 12.45 9.65 12.3 9.4 12.15 9.1 12.0 8.9 11.8 8.65 11.6 8.4 11.4 8.2 11.15 8.0 10.85 7.8 10.55 7.65 10.25 7.45 9.9 7.3 9.8 7.25 9.65 7.25 9.5 7.2 9.3 7.15 9.15 7.15 8.9 7.1 8.7 7.1 8.5 7.05 8.25 7.05 7.95 7.0 7.7 7.0 7.4 7.0 7.1 7.0 6.8 7.0 6.45 7.0 6.1 7.0 L5.9 7.0 Q5.7 6.95 5.3 6.95 L5.3 6.95 M36.05 9.75 Q36.0 9.75 36.0 9.75 35.95 9.8 35.9 9.8 35.85 9.8 35.8 9.85 35.75 9.9 35.7 9.9 35.7 9.95 35.65 10.0 35.6 10.05 35.5 10.15 35.45 10.2 35.4 10.25 35.35 10.35 35.3 10.45 35.25 10.55 35.2 10.6 35.1 10.7 35.05 10.75 34.95 10.85 34.9 10.9 34.8 11.0 34.7 11.1 34.65 11.15 34.55 11.25 34.45 11.3 34.3 11.4 34.2 11.5 34.1 11.55 34.0 11.65 33.85 11.75 33.75 11.8 33.65 11.9 33.55 11.95 33.45 12.0 33.4 12.05 33.3 12.1 33.25 12.15 33.2 12.25 33.15 12.3 33.1 12.35 33.05 12.4 33.05 12.45 33.0 12.5 33.0 12.55 33.0 12.6 33.0 12.65 33.0 12.7 33.0 12.75 33.0 12.75 33.05 12.8 33.05 12.85 33.1 12.85 33.1 12.9 33.15 12.95 33.2 13.0 33.25 13.0 33.35 13.05 33.4 13.05 33.45 13.1 33.55 13.1 33.65 13.15 33.75 13.15 L34.5 13.4 34.65 19.5 33.9 19.85 Q33.8 19.9 33.75 19.95 33.65 20.0 33.6 20.05 33.55 20.05 33.5 20.1 33.45 20.15 33.4 20.2 33.35 20.2 33.3 20.25 33.3 20.3 33.25 20.3 33.25 20.35 33.25 20.4 33.2 20.4 33.2 20.45 33.2 20.5 33.25 20.55 33.3 20.6 33.35 20.6 33.45 20.65 33.55 20.7 33.7 20.7 33.85 20.75 34.0 20.75 34.2 20.75 34.4 20.8 34.65 20.8 34.85 20.8 35.15 20.8 35.4 20.8 35.7 20.8 36.0 20.8 36.3 20.8 36.55 20.8 36.8 20.8 37.05 20.8 37.25 20.75 37.45 20.75 37.6 20.7 37.75 20.7 37.85 20.65 38.0 20.65 38.05 20.6 38.15 20.55 38.15 20.5 38.2 20.45 38.2 20.4 38.2 20.4 38.2 20.35 38.2 20.35 38.15 20.3 38.15 20.3 38.1 20.25 38.1 20.25 38.05 20.2 38.0 20.15 37.95 20.15 37.9 20.1 37.85 20.1 37.8 20.05 37.7 20.0 37.65 19.95 37.55 19.95 37.45 19.9 37.4 19.85 37.3 19.85 37.25 19.8 37.15 19.75 37.1 19.7 37.05 19.7 37.0 19.65 36.95 19.6 36.9 19.6 36.85 19.55 36.8 19.5 36.8 19.5 36.75 19.45 36.7 19.4 36.7 19.4 36.55 19.15 36.55 16.2 L36.55 13.25 37.6 13.25 Q37.7 13.25 37.8 13.25 37.85 13.25 37.95 13.25 38.0 13.25 38.1 13.25 38.15 13.25 38.2 13.25 38.25 13.25 38.3 13.25 38.35 13.2 38.4 13.2 38.45 13.2 38.45 13.2 38.5 13.2 38.5 13.15 38.55 13.15 38.55 13.1 38.55 13.1 38.6 13.1 38.6 13.05 38.6 13.05 38.65 13.0 38.65 13.0 38.65 12.95 38.65 12.9 38.7 12.9 38.7 12.85 38.7 12.8 38.7 12.75 38.7 12.7 38.7 12.65 38.7 12.6 38.7 12.55 38.7 12.5 38.7 12.45 38.7 12.4 38.65 12.35 38.65 12.35 38.65 12.3 38.65 12.25 38.6 12.25 38.6 12.2 38.55 12.2 38.55 12.15 38.5 12.15 38.5 12.15 38.45 12.15 38.45 12.15 38.35 12.1 38.3 12.1 38.2 12.1 38.1 12.05 37.95 12.05 37.8 12.05 37.65 12.05 L36.55 12.05 36.5 10.9 Q36.5 10.75 36.45 10.65 36.45 10.5 36.4 10.4 36.4 10.3 36.4 10.2 36.35 10.1 36.3 10.05 36.3 10.0 36.25 9.9 36.25 9.85 36.2 9.85 36.15 9.8 36.1 9.8 36.1 9.75 36.05 9.75 L36.05 9.75 M20.95 11.55 L21.15 11.9 21.55 12.95 Q21.65 13.2 21.75 13.55 L22.15 14.65 Q22.15 14.7 22.2 14.75 22.2 14.8 22.25 14.85 22.25 14.9 22.25 14.95 22.25 15.0 22.3 15.05 22.3 15.05 22.3 15.1 22.3 15.15 22.3 15.15 22.3 15.2 22.3 15.25 22.3 15.25 22.3 15.3 22.3 15.35 22.3 15.4 22.3 15.45 22.3 15.45 22.25 15.5 22.25 15.5 22.2 15.55 22.15 15.55 22.05 15.6 20.95 15.6 L19.5 15.6 20.2 13.65 Q20.85 12.05 20.9 11.8 L20.95 11.55" fill="#ffffff" fill-rule="evenodd" stroke="none"/>
  </g>
</svg>
