<?xml version="1.0" encoding="UTF-8" standalone="no"?>
<svg xmlns:ffdec="https://www.free-decompiler.com/flash" xmlns:xlink="http://www.w3.org/1999/xlink" ffdec:objectType="shape" height="26.0px" width="41.75px" xmlns="http://www.w3.org/2000/svg">
  <g transform="matrix(1.0, 0.0, 0.0, 1.0, 0.0, 0.0)">
    <path d="M4.3 6.55 Q2.35 6.6 2.05 6.65 2.0 6.65 1.95 6.7 1.9 6.7 1.85 6.7 1.8 6.75 1.8 6.75 1.75 6.8 1.7 6.8 1.7 6.85 1.65 6.9 1.65 6.95 1.65 7.0 1.6 7.05 1.6 7.1 1.6 7.15 1.6 7.2 1.6 7.25 1.6 7.3 1.65 7.3 1.7 7.35 1.75 7.4 1.8 7.4 1.9 7.45 2.1 7.55 2.3 7.65 2.45 7.75 L3.0 8.0 3.0 17.85 2.3 18.15 Q2.2 18.2 2.15 18.25 2.05 18.25 2.0 18.3 1.95 18.35 1.9 18.4 1.85 18.4 1.8 18.45 1.75 18.5 1.7 18.55 1.7 18.55 1.65 18.6 1.65 18.65 1.65 18.7 1.6 18.7 1.6 18.75 1.6 18.8 1.65 18.85 1.7 18.9 1.75 18.95 1.85 19.0 1.95 19.05 2.05 19.05 2.2 19.1 2.35 19.15 2.55 19.15 2.75 19.15 2.95 19.2 3.2 19.2 3.45 19.2 3.7 19.2 4.0 19.2 4.3 19.2 4.55 19.2 4.85 19.2 5.05 19.2 5.3 19.2 5.45 19.15 5.65 19.15 5.8 19.15 5.95 19.1 6.05 19.1 6.2 19.05 6.25 19.05 6.3 19.0 6.35 18.95 6.4 18.9 6.4 18.9 6.4 18.85 6.4 18.8 6.4 18.75 6.35 18.7 6.35 18.7 6.3 18.65 6.3 18.6 6.25 18.55 6.2 18.5 6.15 18.45 6.1 18.4 6.05 18.35 5.95 18.3 5.9 18.25 5.8 18.25 5.75 18.2 L5.1 17.8 4.95 13.15 9.35 13.15 9.35 18.0 8.7 18.25 Q8.6 18.25 8.55 18.3 8.5 18.35 8.45 18.35 8.35 18.4 8.3 18.4 8.25 18.45 8.25 18.5 8.2 18.5 8.15 18.55 8.15 18.55 8.1 18.6 8.1 18.65 8.1 18.7 8.1 18.7 8.1 18.75 8.1 18.8 8.1 18.8 8.1 18.85 8.15 18.85 8.15 18.9 8.15 18.95 8.2 18.95 8.2 19.0 8.25 19.0 8.3 19.0 8.35 19.05 8.4 19.05 8.45 19.1 8.5 19.1 8.55 19.1 8.65 19.1 9.15 19.25 11.9 19.25 12.0 19.25 12.05 19.25 12.1 19.25 12.2 19.25 12.25 19.25 12.3 19.25 12.35 19.25 12.4 19.2 12.45 19.2 12.5 19.2 12.5 19.2 12.55 19.2 12.6 19.2 12.6 19.15 12.65 19.15 12.65 19.15 12.65 19.15 12.7 19.1 12.7 19.1 12.7 19.05 12.7 19.0 12.7 19.0 12.7 18.95 12.7 18.9 12.7 18.85 12.7 18.8 12.7 18.75 12.7 18.7 12.7 18.6 12.65 18.55 12.65 18.5 12.6 18.5 12.6 18.45 12.55 18.4 12.5 18.35 12.45 18.35 12.4 18.3 12.35 18.25 12.3 18.25 12.25 18.2 12.2 18.2 12.1 18.2 L11.55 18.05 11.5 12.95 11.45 7.85 12.1 7.65 Q12.2 7.6 12.25 7.6 12.3 7.55 12.4 7.5 12.45 7.5 12.5 7.45 12.55 7.4 12.6 7.35 12.65 7.3 12.65 7.3 12.7 7.25 12.7 7.2 12.75 7.15 12.75 7.1 12.75 7.05 12.75 7.0 12.75 6.95 12.75 6.9 12.75 6.85 12.7 6.8 12.7 6.8 12.7 6.75 12.65 6.75 12.65 6.7 12.55 6.65 12.1 6.6 11.85 6.6 10.45 6.6 10.3 6.6 10.15 6.6 10.0 6.6 9.85 6.6 9.7 6.6 9.55 6.6 9.45 6.6 9.3 6.65 9.2 6.65 9.05 6.65 8.95 6.65 8.85 6.7 8.75 6.7 8.65 6.7 8.55 6.75 8.45 6.75 8.4 6.75 8.35 6.8 8.35 6.8 8.3 6.8 8.25 6.8 8.25 6.85 8.2 6.85 8.2 6.9 8.15 6.9 8.15 6.95 8.1 6.95 8.1 7.0 8.1 7.0 8.1 7.05 8.1 7.05 8.1 7.1 8.1 7.15 8.1 7.2 8.1 7.2 8.15 7.25 8.15 7.3 8.15 7.35 8.2 7.35 8.25 7.4 8.25 7.4 8.3 7.45 8.35 7.5 8.4 7.5 8.45 7.55 8.55 7.55 8.6 7.6 8.7 7.6 L9.35 7.85 9.35 11.85 5.0 11.85 5.0 10.1 Q5.0 9.9 5.0 9.75 5.0 9.6 5.0 9.4 5.0 9.25 5.0 9.15 5.0 9.0 5.0 8.85 5.0 8.75 5.05 8.65 5.05 8.55 5.05 8.45 5.05 8.35 5.05 8.25 5.1 8.2 5.1 8.15 5.1 8.1 5.15 8.05 5.15 7.95 5.15 7.9 5.2 7.85 5.2 7.85 5.25 7.8 5.3 7.75 5.3 7.75 5.35 7.7 5.4 7.7 5.4 7.65 5.45 7.65 5.5 7.65 5.55 7.65 5.6 7.65 5.65 7.65 5.7 7.65 5.75 7.65 5.8 7.65 5.85 7.6 5.85 7.6 5.9 7.6 5.95 7.55 6.0 7.55 6.05 7.5 6.1 7.5 6.1 7.45 6.15 7.45 6.2 7.4 6.25 7.35 6.25 7.35 6.3 7.3 6.3 7.25 6.35 7.25 6.4 7.2 6.4 7.15 6.4 7.1 6.45 7.1 6.45 7.05 6.45 7.0 6.45 7.0 6.45 6.95 6.45 6.9 6.45 6.9 6.45 6.85 6.4 6.8 6.4 6.8 6.4 6.75 6.35 6.75 6.3 6.7 6.2 6.7 6.15 6.65 6.05 6.65 5.95 6.65 5.8 6.6 5.65 6.6 5.5 6.6 5.35 6.55 5.15 6.55 5.0 6.55 4.75 6.55 4.55 6.55 4.3 6.55 L4.3 6.55 M22.4 10.65 Q22.35 10.65 22.3 10.65 22.3 10.65 22.25 10.7 22.2 10.75 22.15 10.8 22.1 10.9 21.0 11.05 20.85 11.05 20.75 11.1 20.6 11.1 20.5 11.15 20.4 11.15 20.35 11.2 20.25 11.25 20.2 11.25 20.1 11.3 20.05 11.3 20.0 11.35 20.0 11.4 19.95 11.45 19.95 11.45 19.9 11.5 19.9 11.55 19.9 11.6 19.9 11.6 19.95 11.65 19.95 11.65 20.0 11.7 20.0 11.75 20.05 11.75 20.1 11.8 20.15 11.85 20.2 11.9 20.25 11.9 20.35 11.95 20.4 12.0 20.5 12.05 20.55 12.1 20.65 12.15 20.7 12.15 20.7 12.2 20.75 12.2 20.75 12.2 20.75 12.25 20.8 12.3 20.8 12.3 20.8 12.35 20.85 12.35 20.85 12.4 20.85 12.45 20.9 12.5 20.9 12.55 20.9 12.6 20.9 12.65 20.9 12.7 21.0 13.05 21.05 15.1 L21.1 17.85 20.45 18.25 Q20.35 18.3 20.3 18.3 20.25 18.35 20.15 18.4 20.1 18.4 20.05 18.45 20.0 18.45 20.0 18.5 19.95 18.55 19.9 18.55 19.9 18.6 19.85 18.6 19.85 18.65 19.85 18.7 19.85 18.7 19.85 18.75 19.85 18.8 19.9 18.85 19.95 18.9 20.05 18.95 20.15 19.0 20.3 19.05 20.45 19.05 20.65 19.1 20.85 19.1 21.1 19.15 21.35 19.15 21.65 19.2 21.95 19.2 22.3 19.2 22.65 19.2 23.05 19.2 23.15 19.2 23.25 19.2 23.35 19.2 23.4 19.2 23.5 19.2 23.55 19.2 23.65 19.2 23.7 19.2 23.75 19.2 23.8 19.15 23.85 19.15 23.9 19.15 23.95 19.15 24.0 19.15 24.0 19.15 24.05 19.1 24.1 19.1 24.1 19.05 24.1 19.0 24.15 19.0 24.15 18.95 24.15 18.9 24.15 18.85 24.15 18.8 24.15 18.75 24.15 18.7 24.15 18.65 24.15 18.6 24.1 18.55 24.1 18.5 24.05 18.5 24.05 18.45 24.0 18.4 23.95 18.4 23.9 18.35 23.85 18.35 23.8 18.3 23.75 18.3 23.7 18.25 23.65 18.25 23.6 18.25 23.5 18.2 23.45 18.2 23.4 18.15 23.35 18.1 23.3 18.1 23.25 18.05 23.2 18.0 23.15 17.95 23.15 17.9 23.1 17.85 23.05 17.8 23.05 17.7 23.0 17.65 23.0 17.6 23.0 17.5 23.0 17.45 22.95 17.35 22.95 17.25 22.95 17.15 22.9 17.05 22.9 16.95 22.9 16.85 22.9 16.7 22.9 16.6 22.85 16.45 22.85 16.3 22.85 16.15 22.85 16.0 22.85 15.85 22.85 15.7 22.85 15.55 22.85 15.35 22.85 15.2 22.85 15.05 22.85 14.9 22.9 14.75 22.9 14.6 22.9 14.45 22.9 14.3 22.95 14.2 22.95 14.05 22.95 13.95 23.0 13.8 23.0 13.7 23.05 13.6 23.05 13.5 23.1 13.4 23.1 13.35 23.15 13.3 23.15 13.25 23.15 13.2 23.2 13.15 23.25 13.1 23.25 13.1 23.3 13.05 23.35 13.0 23.4 12.95 23.4 12.9 23.45 12.85 23.5 12.8 23.55 12.7 23.65 12.65 23.7 12.6 23.75 12.55 23.85 12.5 23.9 12.45 23.95 12.4 24.0 12.4 24.05 12.35 24.15 12.3 24.2 12.3 24.25 12.3 24.3 12.25 24.4 12.25 24.45 12.25 24.5 12.2 24.55 12.2 24.65 12.2 24.7 12.2 24.75 12.2 24.8 12.2 24.9 12.2 24.95 12.25 25.0 12.25 25.05 12.25 25.1 12.3 25.2 12.35 25.25 12.35 25.3 12.4 25.35 12.45 25.4 12.5 25.5 12.55 25.55 12.6 25.6 12.65 25.65 12.75 25.7 12.8 25.75 12.9 25.8 13.0 25.85 13.15 25.9 13.3 25.95 13.5 26.0 13.65 26.0 13.85 26.05 14.1 26.05 14.35 26.1 14.6 26.1 14.85 26.1 15.15 26.15 15.5 26.15 15.8 26.15 16.15 26.15 16.25 26.15 16.35 26.15 16.45 26.15 16.55 26.15 16.6 26.1 16.7 26.1 16.8 26.1 16.85 26.1 16.95 26.1 17.05 26.1 17.1 26.05 17.2 26.05 17.3 26.05 17.35 26.0 17.45 26.0 17.5 26.0 17.6 25.95 17.65 25.95 17.7 25.9 17.8 25.9 17.85 25.85 17.9 25.8 17.95 25.75 18.0 25.75 18.05 25.7 18.1 25.65 18.1 25.6 18.15 25.55 18.2 25.45 18.2 25.4 18.25 25.35 18.25 25.3 18.25 25.25 18.3 25.2 18.3 25.15 18.3 25.1 18.35 25.05 18.35 25.0 18.4 25.0 18.4 24.95 18.45 24.95 18.45 24.9 18.5 24.9 18.55 24.9 18.55 24.9 18.6 24.85 18.65 24.85 18.65 24.85 18.7 24.85 18.7 24.85 18.75 24.9 18.8 24.9 18.8 24.9 18.85 24.95 18.85 24.95 18.9 25.0 18.9 25.05 18.95 25.05 18.95 25.1 19.0 25.15 19.0 25.2 19.0 25.25 19.0 25.3 19.05 25.75 19.1 27.45 19.1 27.65 19.1 27.85 19.1 28.05 19.1 28.2 19.1 28.4 19.05 28.55 19.05 28.65 19.05 28.75 19.0 28.9 19.0 28.95 18.95 29.05 18.95 29.1 18.9 29.15 18.85 29.2 18.85 29.2 18.8 29.2 18.75 29.2 18.75 29.2 18.7 29.15 18.65 29.15 18.65 29.15 18.6 29.1 18.6 29.05 18.55 29.05 18.5 29.0 18.5 28.95 18.45 28.9 18.4 28.85 18.4 28.8 18.35 28.7 18.3 28.65 18.25 28.55 18.25 L27.9 17.85 27.9 15.55 Q27.9 13.9 28.0 13.55 28.0 13.5 28.0 13.45 28.05 13.4 28.05 13.35 28.1 13.25 28.1 13.2 28.15 13.15 28.15 13.1 28.2 13.05 28.25 13.0 28.25 12.95 28.3 12.9 28.35 12.85 28.4 12.8 28.45 12.7 28.5 12.65 28.55 12.6 28.6 12.55 28.7 12.5 28.75 12.45 28.8 12.4 28.9 12.4 28.95 12.35 29.0 12.3 29.1 12.3 29.15 12.25 29.25 12.25 29.3 12.25 29.4 12.2 29.45 12.2 29.55 12.2 29.6 12.2 L29.65 12.2 Q29.75 12.2 29.8 12.2 29.85 12.2 29.95 12.25 30.0 12.25 30.1 12.25 30.15 12.3 30.2 12.35 30.25 12.35 30.3 12.4 30.4 12.45 30.45 12.5 30.5 12.55 30.55 12.6 30.6 12.65 30.65 12.75 30.65 12.8 30.7 12.8 30.7 12.85 30.75 12.9 30.75 12.95 30.75 13.0 30.8 13.05 30.8 13.05 30.8 13.1 30.8 13.15 30.85 13.25 30.85 13.3 30.85 13.35 30.85 13.4 30.85 13.45 30.85 13.5 30.9 14.05 30.9 15.55 30.9 16.9 30.8 17.55 30.8 17.6 30.75 17.65 30.75 17.75 30.75 17.8 30.7 17.85 30.7 17.9 30.7 17.95 30.65 17.95 30.65 18.0 30.6 18.05 30.6 18.1 30.55 18.1 30.5 18.15 30.5 18.15 30.45 18.2 30.4 18.2 30.35 18.25 30.25 18.25 30.2 18.3 30.15 18.3 30.1 18.35 30.05 18.4 30.05 18.45 30.0 18.45 29.95 18.5 29.95 18.55 29.9 18.55 29.9 18.6 29.9 18.65 29.85 18.7 29.85 18.75 29.85 18.75 29.85 18.8 29.85 18.85 29.85 18.85 29.9 18.9 29.9 18.95 29.9 18.95 29.9 19.0 29.95 19.0 29.95 19.05 30.0 19.05 30.0 19.1 30.05 19.1 30.1 19.1 30.15 19.15 30.15 19.15 30.2 19.15 30.6 19.2 31.85 19.2 33.15 19.2 33.65 19.1 33.7 19.1 33.75 19.1 33.8 19.1 33.85 19.05 33.9 19.05 33.95 19.05 34.0 19.0 34.0 19.0 34.05 19.0 34.05 18.95 34.1 18.95 34.1 18.9 34.1 18.9 34.15 18.85 34.15 18.8 34.15 18.75 34.15 18.7 34.15 18.7 34.15 18.65 34.1 18.65 34.1 18.6 34.05 18.55 34.05 18.55 34.0 18.5 33.95 18.45 33.9 18.45 33.9 18.4 33.85 18.35 33.8 18.35 33.7 18.3 33.65 18.25 33.6 18.25 L32.9 17.85 32.9 15.3 Q32.9 15.05 32.9 14.85 32.9 14.6 32.9 14.4 32.9 14.2 32.9 14.05 32.85 13.85 32.85 13.7 32.85 13.5 32.8 13.35 32.8 13.2 32.8 13.05 32.75 12.95 32.75 12.8 32.7 12.7 32.65 12.6 32.65 12.5 32.6 12.4 32.55 12.3 32.55 12.2 32.5 12.1 32.45 12.05 32.4 11.95 32.35 11.85 32.3 11.8 32.2 11.7 32.15 11.65 32.1 11.55 32.0 11.5 31.95 11.45 31.85 11.4 31.75 11.3 31.65 11.25 31.6 11.2 31.5 11.2 31.4 11.15 31.3 11.1 31.25 11.1 31.15 11.05 31.05 11.05 30.95 11.0 30.85 11.0 30.8 10.95 30.7 10.95 30.6 10.95 30.5 10.95 30.4 10.95 30.3 10.95 30.1 10.95 29.95 10.95 29.8 10.95 29.65 11.0 29.5 11.0 29.35 11.05 29.2 11.1 29.05 11.15 28.9 11.2 28.8 11.3 28.65 11.35 28.55 11.45 28.45 11.55 28.35 11.65 28.25 11.75 28.15 11.85 28.1 11.9 28.1 11.9 28.05 11.95 28.0 11.95 27.95 12.0 27.95 12.0 27.9 12.0 27.9 12.0 27.85 12.05 27.8 12.05 27.8 12.05 27.75 12.0 27.75 12.0 27.7 12.0 27.6 11.95 27.05 11.5 27.0 11.45 26.95 11.4 26.85 11.35 26.8 11.3 26.75 11.25 26.7 11.2 26.65 11.15 26.6 11.15 26.55 11.1 26.5 11.1 26.45 11.05 26.45 11.05 26.4 11.0 26.35 11.0 26.3 11.0 26.3 10.95 26.25 10.95 26.25 10.95 26.2 10.95 26.15 10.95 26.15 10.95 26.1 10.95 26.05 10.9 26.05 10.9 26.0 10.9 25.95 10.9 25.9 10.9 25.9 10.9 25.85 10.9 25.8 10.9 25.75 10.9 25.7 10.9 25.5 10.9 25.35 10.9 25.2 10.9 25.05 10.95 24.9 10.95 24.75 11.0 24.6 11.0 24.45 11.05 24.3 11.1 24.2 11.15 24.05 11.2 23.95 11.25 23.85 11.3 23.75 11.35 23.65 11.4 23.55 11.5 L22.95 11.9 22.95 11.35 Q22.95 11.3 22.95 11.25 22.95 11.2 22.95 11.15 22.95 11.1 22.95 11.1 22.9 11.05 22.9 11.0 22.9 11.0 22.9 10.95 22.85 10.9 22.85 10.9 22.85 10.85 22.8 10.85 22.8 10.8 22.75 10.8 22.7 10.75 22.65 10.75 22.65 10.7 22.6 10.7 22.55 10.7 22.55 10.65 22.5 10.65 22.45 10.65 22.45 10.65 22.4 10.65 L22.4 10.65 M16.5 10.95 Q16.35 10.95 16.25 10.95 16.1 10.95 16.0 10.95 15.85 11.0 15.75 11.0 15.6 11.0 15.45 11.05 15.35 11.05 15.2 11.1 15.05 11.1 14.95 11.15 14.8 11.2 14.65 11.25 14.55 11.3 14.4 11.3 14.25 11.35 14.15 11.4 14.0 11.45 13.85 11.5 13.75 11.6 13.6 11.65 13.5 11.75 13.4 11.8 13.3 11.9 13.15 12.0 13.05 12.1 12.95 12.2 12.85 12.3 12.75 12.4 12.65 12.5 12.55 12.65 12.45 12.75 12.4 12.9 12.3 13.0 12.25 13.15 12.15 13.25 12.1 13.4 12.05 13.5 12.0 13.65 11.95 13.8 11.9 13.9 11.9 14.05 11.85 14.15 11.85 14.3 11.85 14.45 11.8 14.55 11.8 14.7 11.8 14.85 11.8 15.0 11.8 15.1 11.85 15.25 11.85 15.4 11.85 15.5 11.85 15.65 11.9 15.75 11.9 15.9 11.95 16.0 11.95 16.15 12.0 16.25 12.05 16.4 12.05 16.5 12.1 16.65 12.15 16.75 12.2 16.85 12.25 17.0 12.3 17.1 12.35 17.25 12.4 17.35 12.5 17.45 12.55 17.6 12.65 17.7 12.75 17.8 12.85 17.9 12.95 18.05 13.05 18.15 13.15 18.25 13.3 18.35 13.4 18.45 13.55 18.6 13.7 18.7 13.8 18.8 13.95 18.9 14.1 18.95 14.25 19.05 14.4 19.1 14.55 19.15 14.7 19.2 14.85 19.25 15.0 19.3 15.15 19.35 15.3 19.4 15.45 19.4 15.6 19.4 15.8 19.45 15.95 19.45 16.1 19.45 16.3 19.45 16.45 19.4 16.6 19.4 16.8 19.35 16.95 19.35 17.1 19.3 17.3 19.25 17.45 19.2 17.6 19.15 17.8 19.1 17.95 19.0 18.1 18.95 18.3 18.85 18.45 18.8 18.6 18.7 18.75 18.6 18.9 18.5 19.05 18.4 19.2 18.3 19.35 18.15 19.45 18.05 19.55 17.95 19.65 17.8 19.75 17.7 19.85 17.55 19.95 17.45 20.05 17.3 20.1 17.2 20.15 17.05 20.25 16.9 20.25 16.75 20.3 16.65 20.35 16.55 20.35 16.45 20.4 16.35 20.45 16.25 20.45 16.1 20.5 16.0 20.5 15.9 20.5 15.8 20.55 15.7 20.55 15.6 20.55 15.5 20.55 15.4 20.55 15.3 20.6 15.2 20.6 15.1 20.6 14.8 20.55 14.55 20.5 14.25 20.45 14.0 20.4 13.75 20.3 13.5 20.2 13.3 20.05 13.05 19.9 12.85 19.75 12.6 19.6 12.4 19.4 12.2 19.2 12.0 18.95 11.85 18.7 11.65 18.45 11.5 18.35 11.45 18.25 11.35 18.1 11.3 18.0 11.25 17.9 11.2 17.75 11.15 17.65 11.1 17.5 11.1 17.4 11.05 17.25 11.05 17.15 11.0 17.0 11.0 16.9 10.95 16.75 10.95 16.65 10.95 16.5 10.95 L16.5 10.95 M37.1 10.95 Q36.9 10.95 36.7 11.0 36.55 11.0 36.35 11.05 36.15 11.1 36.0 11.15 35.8 11.25 35.65 11.3 35.45 11.4 35.3 11.5 35.1 11.65 34.95 11.75 34.8 11.9 34.65 12.05 34.45 12.2 34.3 12.4 34.2 12.5 34.15 12.6 34.05 12.7 34.0 12.8 33.95 12.9 33.85 12.95 33.8 13.05 33.75 13.15 33.7 13.25 33.65 13.35 33.6 13.4 33.55 13.5 33.5 13.6 33.45 13.65 33.45 13.75 33.4 13.8 33.4 13.9 33.35 13.95 33.35 14.05 33.3 14.15 33.3 14.2 33.3 14.3 33.25 14.4 33.25 14.45 33.25 14.55 33.25 14.65 33.2 14.75 33.2 14.8 33.2 14.9 33.2 15.0 33.2 15.05 33.2 15.15 33.2 15.35 33.2 15.55 33.2 15.7 33.25 15.9 33.25 16.05 33.3 16.2 33.3 16.4 33.35 16.55 33.4 16.7 33.45 16.85 33.45 17.0 33.55 17.1 33.6 17.25 33.65 17.35 33.7 17.5 33.75 17.6 33.9 17.85 34.05 18.05 34.2 18.25 34.4 18.4 34.55 18.6 34.75 18.75 34.95 18.9 35.15 19.0 35.35 19.1 35.55 19.2 35.8 19.3 36.05 19.35 36.25 19.4 36.5 19.4 36.75 19.45 37.05 19.45 37.2 19.45 37.4 19.45 37.55 19.4 37.7 19.4 37.85 19.35 38.0 19.3 38.2 19.3 38.35 19.2 38.5 19.15 38.65 19.1 38.8 19.0 38.95 18.95 39.1 18.85 39.25 18.75 39.35 18.65 39.5 18.5 39.6 18.45 39.65 18.35 39.75 18.3 39.8 18.25 39.85 18.2 39.9 18.1 39.95 18.05 40.0 18.0 40.05 17.95 40.05 17.9 40.1 17.85 40.1 17.8 40.15 17.75 40.15 17.7 40.15 17.65 40.15 17.65 40.15 17.6 40.15 17.55 40.15 17.55 40.1 17.5 40.1 17.45 40.1 17.45 40.1 17.4 40.05 17.4 40.05 17.35 40.0 17.35 39.95 17.35 39.95 17.35 39.9 17.3 39.85 17.3 39.8 17.3 39.8 17.3 39.75 17.3 39.7 17.3 39.7 17.3 39.65 17.35 39.6 17.35 39.55 17.35 39.5 17.4 39.45 17.4 39.4 17.4 39.35 17.45 39.25 17.5 39.2 17.5 39.15 17.55 39.1 17.6 39.0 17.65 38.95 17.7 38.9 17.75 38.8 17.8 38.7 17.85 38.65 17.85 38.55 17.9 38.45 17.9 38.35 17.95 38.25 18.0 38.2 18.0 38.05 18.0 37.95 18.05 37.85 18.05 37.75 18.05 37.65 18.05 37.5 18.05 37.4 18.05 37.3 18.05 37.15 18.05 37.05 18.05 36.95 18.0 36.85 18.0 36.75 17.95 36.65 17.95 36.55 17.9 36.45 17.85 36.35 17.8 36.25 17.75 36.2 17.7 36.1 17.65 36.0 17.55 35.95 17.5 35.9 17.4 35.85 17.35 35.8 17.3 35.75 17.2 35.7 17.15 35.65 17.1 35.6 17.0 35.55 16.95 35.55 16.9 35.5 16.8 35.45 16.75 35.45 16.65 35.4 16.6 35.4 16.55 35.35 16.45 35.35 16.35 35.3 16.3 36.95 15.6 37.65 15.2 39.45 14.1 39.75 13.95 39.8 13.95 39.85 13.9 39.85 13.9 39.9 13.85 39.95 13.85 39.95 13.8 40.0 13.8 40.0 13.75 40.0 13.75 40.05 13.7 40.05 13.7 40.05 13.65 40.05 13.65 40.1 13.6 40.1 13.6 40.1 13.55 40.1 13.5 40.1 13.45 40.05 13.45 40.05 13.4 40.05 13.35 40.0 13.3 40.0 13.3 39.95 13.25 39.95 13.25 39.9 13.2 39.85 13.2 39.85 13.15 39.8 13.1 39.8 13.0 39.75 12.95 39.7 12.85 39.7 12.75 39.65 12.6 39.65 12.55 39.6 12.45 39.55 12.4 39.5 12.3 39.45 12.25 39.4 12.15 39.35 12.1 39.3 12.0 39.2 11.95 39.1 11.85 39.05 11.75 38.95 11.65 38.85 11.6 38.7 11.5 38.6 11.4 38.5 11.3 38.45 11.25 38.35 11.2 38.3 11.2 38.25 11.15 38.15 11.15 38.1 11.1 38.0 11.1 37.9 11.05 37.8 11.05 37.75 11.0 37.65 11.0 37.55 11.0 37.45 11.0 37.35 11.0 37.2 10.95 37.1 10.95 L37.1 10.95 M15.8 12.0 Q15.9 12.0 16.0 12.0 16.1 12.05 16.15 12.05 16.25 12.05 16.35 12.1 16.45 12.1 16.55 12.15 16.6 12.2 16.7 12.25 16.8 12.3 16.85 12.35 16.95 12.4 17.05 12.45 17.1 12.5 17.2 12.55 17.35 12.7 17.55 12.9 17.7 13.05 17.8 13.25 17.95 13.45 18.05 13.65 18.15 13.85 18.25 14.05 18.35 14.3 18.4 14.55 18.45 14.8 18.5 15.05 18.55 15.3 18.55 15.6 18.6 15.85 18.6 16.15 18.6 16.2 18.6 16.4 18.6 16.55 18.55 16.65 18.55 16.75 18.55 16.8 18.55 16.9 18.5 16.95 18.5 17.05 18.45 17.1 18.45 17.2 18.4 17.25 18.35 17.35 18.3 17.4 18.25 17.5 18.2 17.55 18.15 17.6 18.1 17.7 18.05 17.75 17.95 17.85 17.9 17.9 17.8 17.95 17.75 18.05 17.7 18.1 17.6 18.15 17.55 18.15 17.45 18.2 17.4 18.25 17.3 18.3 17.25 18.3 17.15 18.35 17.1 18.35 17.0 18.35 16.95 18.35 16.85 18.4 16.8 18.4 16.65 18.4 16.5 18.4 16.35 18.35 16.2 18.3 16.05 18.3 15.9 18.25 15.75 18.2 15.6 18.1 15.5 18.05 15.35 17.95 15.25 17.85 15.1 17.75 15.0 17.65 14.9 17.55 14.75 17.4 14.65 17.3 14.55 17.15 14.45 17.0 14.4 16.85 14.3 16.7 14.25 16.55 14.15 16.4 14.1 16.25 14.05 16.05 14.0 15.9 13.95 15.7 13.95 15.5 13.9 15.3 13.85 15.1 13.85 14.9 13.85 14.7 13.85 14.5 13.85 14.4 13.85 14.25 13.85 14.15 13.85 14.05 13.85 13.95 13.85 13.85 13.85 13.75 13.85 13.7 13.85 13.6 13.85 13.55 13.9 13.5 13.9 13.4 13.9 13.35 13.9 13.3 13.9 13.25 13.9 13.25 13.9 13.2 13.95 13.15 13.95 13.1 14.0 13.1 14.05 13.05 14.05 13.0 14.1 12.95 14.15 12.9 14.15 12.85 14.2 12.8 14.25 12.75 14.3 12.7 14.35 12.65 14.4 12.6 14.45 12.5 14.55 12.45 14.6 12.4 14.7 12.35 14.75 12.3 14.8 12.25 14.9 12.25 14.95 12.2 15.05 12.15 15.1 12.15 15.2 12.1 15.25 12.1 15.35 12.05 15.45 12.05 15.55 12.05 15.6 12.05 15.7 12.0 15.8 12.0 L15.8 12.0 M36.9 12.05 Q36.95 12.05 37.0 12.05 37.05 12.05 37.05 12.05 37.1 12.1 37.15 12.1 37.2 12.1 37.25 12.15 37.3 12.15 37.35 12.2 37.4 12.2 37.45 12.25 37.45 12.3 37.5 12.35 37.55 12.35 37.6 12.4 37.65 12.45 37.7 12.5 37.75 12.55 37.8 12.6 37.8 12.65 37.85 12.7 37.9 12.75 37.9 12.8 37.95 12.85 37.95 12.9 37.95 12.9 38.0 12.95 38.0 13.0 38.0 13.05 38.0 13.1 38.0 13.1 38.0 13.15 38.0 13.2 38.0 13.25 38.0 13.3 38.0 13.35 38.0 13.4 38.0 13.4 37.95 13.45 37.95 13.45 37.95 13.5 37.95 13.5 37.95 13.55 37.9 13.55 37.9 13.55 37.9 13.6 37.85 13.65 37.8 13.7 37.75 13.8 37.7 13.85 37.65 13.9 37.6 13.95 37.5 14.0 37.45 14.1 37.35 14.15 37.25 14.2 37.15 14.3 37.05 14.35 36.95 14.4 36.8 14.5 36.7 14.55 35.6 15.15 35.1 15.3 35.1 15.25 35.1 15.25 35.05 15.2 35.05 15.15 35.05 15.1 35.05 15.05 35.05 15.0 35.05 14.95 35.05 14.9 35.05 14.85 35.05 14.75 35.05 14.7 35.0 14.65 35.0 14.55 35.0 14.45 35.0 14.4 35.0 14.2 35.0 14.0 35.05 13.85 35.1 13.65 35.1 13.5 35.15 13.35 35.25 13.2 35.3 13.05 35.35 12.95 35.45 12.8 35.55 12.7 35.65 12.6 35.75 12.5 35.9 12.4 36.0 12.3 36.15 12.25 36.2 12.25 36.25 12.2 36.3 12.2 36.3 12.2 36.35 12.15 36.4 12.15 36.45 12.15 36.45 12.15 36.5 12.1 36.55 12.1 36.6 12.1 36.6 12.1 36.65 12.1 36.65 12.1 36.7 12.1 36.7 12.1 36.85 12.05 36.85 12.05 36.9 12.05 36.9 12.05 L36.9 12.05" fill="#ffffff" fill-rule="evenodd" stroke="none"/>
  </g>
</svg>
