<?xml version="1.0" encoding="UTF-8" standalone="no"?>
<svg xmlns:ffdec="https://www.free-decompiler.com/flash" xmlns:xlink="http://www.w3.org/1999/xlink" ffdec:objectType="shape" height="26.0px" width="26.0px" xmlns="http://www.w3.org/2000/svg">
  <g transform="matrix(1.0, 0.0, 0.0, 1.0, 0.0, 0.0)">
    <path d="M14.65 9.3 Q14.65 9.2 14.65 9.1 14.6 9.0 14.55 8.95 14.55 8.85 14.45 8.8 14.4 8.7 14.35 8.65 14.25 8.6 14.15 8.55 14.05 8.5 13.95 8.5 13.8 8.45 13.7 8.45 13.55 8.4 13.4 8.4 13.25 8.4 13.1 8.4 12.95 8.4 12.85 8.45 12.7 8.45 12.6 8.5 12.5 8.55 12.45 8.6 12.35 8.65 12.3 8.75 12.25 8.8 12.2 8.9 12.15 9.0 12.15 9.1 12.1 9.2 12.1 9.3 L12.15 22.25 Q12.15 22.3 12.15 22.4 12.2 22.45 12.2 22.5 12.25 22.55 12.3 22.6 12.4 22.65 12.45 22.7 12.55 22.75 12.65 22.75 12.75 22.8 12.85 22.8 12.95 22.8 13.1 22.8 13.25 22.8 13.4 22.8 13.55 22.8 13.7 22.8 13.85 22.8 13.95 22.75 14.05 22.75 14.15 22.75 14.25 22.7 14.35 22.65 14.4 22.6 14.45 22.6 14.55 22.55 14.55 22.45 14.6 22.4 14.65 22.35 14.65 22.3 14.65 22.2 L14.65 9.3" fill="#ffffff" fill-rule="evenodd" stroke="none"/>
    <path d="M16.0 6.05 L13.0 3.2 12.9 3.2 12.75 3.2 6.7 8.8 Q6.7 8.85 6.65 9.15 6.65 9.35 6.65 9.5 6.65 9.65 6.65 9.85 6.7 10.0 6.7 10.15 6.75 10.3 6.8 10.4 6.85 10.55 6.9 10.65 7.0 10.8 7.05 10.9 7.15 11.0 7.25 11.1 7.35 11.2 7.45 11.25 7.6 11.35 7.7 11.4 L8.75 10.8 Q9.75 10.1 13.35 5.7 13.75 6.15 14.15 6.6 14.6 7.05 14.95 7.45 15.35 7.85 15.75 8.2 16.1 8.6 16.45 8.95 16.8 9.3 17.15 9.6 17.5 9.9 17.85 10.2 18.15 10.5 18.45 10.75 18.8 11.0 19.05 11.2 19.1 11.15 19.1 11.1 19.15 11.05 19.2 11.0 19.2 10.95 19.25 10.9 19.25 10.85 19.3 10.8 19.3 10.75 19.3 10.7 19.3 10.65 19.35 10.6 19.35 10.55 19.35 10.5 19.35 10.45 19.35 10.4 19.35 9.85 19.3 9.75 19.3 9.65 19.25 9.45 19.2 9.3 19.1 9.15 19.0 8.95 18.8 8.75 18.65 8.55 18.45 8.3 18.25 8.1 18.0 7.85 17.75 7.6 17.4 7.3 17.1 7.0 16.75 6.7 16.4 6.4 16.0 6.05 L16.0 6.05" fill="#ffffff" fill-rule="evenodd" stroke="none"/>
  </g>
</svg>
