<?xml version="1.0" encoding="UTF-8" standalone="no"?>
<svg xmlns:ffdec="https://www.free-decompiler.com/flash" xmlns:xlink="http://www.w3.org/1999/xlink" ffdec:objectType="shape" height="26.0px" width="35.75px" xmlns="http://www.w3.org/2000/svg">
  <g transform="matrix(1.0, 0.0, 0.0, 1.0, 0.0, 0.0)">
    <path d="M5.7 12.45 L5.7 6.5 6.25 6.6 Q7.1 6.75 7.15 6.8 7.25 6.9 7.7 7.2 7.85 7.3 7.95 7.35 8.05 7.45 8.15 7.55 8.25 7.65 8.35 7.8 8.4 7.9 8.5 8.05 8.55 8.15 8.6 8.3 8.65 8.45 8.7 8.6 8.7 8.75 8.75 8.9 8.75 9.1 8.75 9.25 8.75 9.45 8.75 9.6 8.7 9.75 8.7 9.9 8.65 10.05 8.6 10.2 8.55 10.35 8.5 10.5 8.45 10.6 8.35 10.7 8.25 10.85 8.2 10.95 8.1 11.0 7.95 11.1 7.85 11.2 7.75 11.25 7.6 11.35 7.45 11.45 7.3 11.5 7.15 11.6 7.05 11.65 6.95 11.75 6.8 11.8 6.75 11.9 6.65 11.95 6.6 12.0 6.55 12.05 6.5 12.1 6.45 12.15 6.45 12.2 6.4 12.25 6.4 12.3 6.4 12.3 6.4 12.35 6.4 12.35 6.45 12.4 6.45 12.4 6.5 12.4 6.5 12.4 6.55 12.45 6.6 12.45 6.65 12.45 6.7 12.45 6.75 12.45 6.8 12.45 6.85 12.5 6.95 12.5 7.0 12.5 7.4 12.5 7.8 12.45 8.15 12.4 8.45 12.3 8.75 12.2 9.05 12.05 9.3 11.9 9.55 11.7 9.75 11.5 9.9 11.3 10.1 11.05 10.2 10.75 10.35 10.45 10.4 10.15 10.5 9.8 10.55 9.4 10.55 9.3 10.55 9.05 10.55 8.75 10.5 8.5 10.45 8.25 10.4 8.0 10.35 7.75 10.2 7.55 10.1 7.3 10.0 7.1 9.85 6.9 9.65 6.75 9.5 6.55 9.3 6.4 9.05 6.25 8.8 6.1 8.6 5.95 8.3 5.85 8.2 5.8 8.1 5.8 7.95 5.75 7.8 5.7 7.65 5.7 7.5 5.65 7.3 5.65 7.1 5.65 6.9 5.6 6.7 5.6 6.5 5.6 6.25 5.6 6.0 5.55 5.75 5.55 5.45 5.55 5.15 5.55 L5.0 5.55 Q4.75 5.55 4.5 5.55 4.25 5.55 4.05 5.55 3.85 5.55 3.65 5.6 3.5 5.6 3.35 5.6 3.2 5.65 3.1 5.65 3.0 5.7 2.9 5.7 2.8 5.75 2.75 5.75 2.75 5.8 2.7 5.85 2.65 6.0 2.65 6.05 2.65 6.05 2.65 6.05 2.65 6.1 2.65 6.1 2.7 6.1 2.7 6.15 2.7 6.15 2.7 6.15 2.75 6.2 2.75 6.2 2.75 6.25 2.8 6.25 2.8 6.25 2.8 6.3 2.85 6.3 2.85 6.35 2.9 6.35 2.9 6.4 2.95 6.4 2.95 6.45 3.0 6.45 3.0 6.45 3.05 6.5 3.05 6.5 3.1 6.5 3.15 6.5 3.15 6.55 3.2 6.55 3.25 6.55 3.25 6.55 3.3 6.6 3.35 6.6 3.4 6.6 3.45 6.6 3.5 6.6 3.55 6.65 3.55 6.65 3.6 6.65 3.6 6.65 3.65 6.7 3.65 6.7 3.7 6.7 3.7 6.75 3.75 6.85 3.75 7.0 3.8 7.1 3.85 7.35 3.85 9.75 L3.85 12.4 Q3.85 14.4 3.8 15.0 L3.75 15.45 Q3.75 15.5 3.75 15.55 3.75 15.6 3.75 15.6 3.75 15.65 3.75 15.7 3.7 15.7 3.7 15.75 3.7 15.75 3.7 15.8 3.65 15.8 3.65 15.8 3.65 15.85 3.65 15.85 3.65 15.85 3.6 15.85 3.6 15.9 3.55 15.9 3.5 15.9 3.5 15.9 3.45 15.95 3.4 15.95 3.35 15.95 3.3 15.95 3.25 15.95 3.25 15.95 3.2 15.95 3.2 16.0 3.15 16.0 3.1 16.0 3.1 16.0 3.05 16.05 3.05 16.05 3.0 16.05 3.0 16.1 2.95 16.1 2.95 16.1 2.9 16.15 2.9 16.15 2.85 16.2 2.8 16.25 2.8 16.25 2.75 16.3 2.75 16.35 2.7 16.35 2.7 16.4 2.7 16.4 2.7 16.45 2.65 16.45 2.65 16.5 2.65 16.55 2.7 16.75 2.7 16.75 2.7 16.75 2.75 16.8 2.75 16.8 2.75 16.8 2.8 16.8 2.8 16.8 2.85 16.85 2.85 16.85 2.9 16.85 2.95 16.85 2.95 16.85 3.0 16.9 3.05 16.9 3.1 16.9 3.15 16.9 3.5 16.95 5.25 16.95 5.45 16.95 5.65 16.95 5.85 16.95 6.05 16.95 6.2 16.95 6.35 16.95 6.5 16.9 6.6 16.9 6.75 16.9 6.85 16.9 6.95 16.85 7.0 16.85 7.05 16.85 7.1 16.8 7.15 16.8 7.15 16.75 7.15 16.75 7.2 16.7 7.2 16.7 7.2 16.65 7.2 16.6 7.2 16.6 7.2 16.55 7.2 16.55 7.2 16.5 7.2 16.45 7.2 16.45 7.15 16.4 7.15 16.35 7.1 16.35 7.05 16.3 7.05 16.25 7.0 16.2 7.0 16.2 6.95 16.15 6.9 16.15 6.9 16.1 6.85 16.1 6.8 16.05 6.75 16.05 6.7 16.05 6.7 16.0 6.65 16.0 6.6 16.0 6.55 16.0 6.5 16.0 6.45 16.0 6.45 16.0 6.4 16.0 6.35 16.0 6.3 15.95 6.25 15.95 6.25 15.95 6.2 15.9 6.15 15.85 6.1 15.85 6.1 15.8 6.05 15.75 6.0 15.7 6.0 15.65 5.95 15.6 5.9 15.55 5.9 15.45 5.85 15.4 5.85 15.35 5.8 15.25 5.8 15.2 5.75 15.1 5.75 15.05 5.75 14.95 5.75 14.9 5.7 14.85 5.7 14.75 5.7 14.7 5.7 14.6 5.7 14.55 5.65 14.5 5.65 14.4 5.65 14.35 5.65 14.3 L5.7 12.45" fill="#ffffff" fill-rule="evenodd" stroke="none"/>
    <path d="M12.4 15.95 Q12.4 15.85 12.8 15.1 12.85 15.1 12.85 15.1 12.9 15.15 12.95 15.15 13.0 15.15 13.05 15.15 13.05 15.15 13.1 15.15 13.15 15.15 13.2 15.15 13.25 15.15 13.3 15.15 13.35 15.15 13.4 15.15 13.45 15.15 13.5 15.15 13.7 15.15 13.85 15.15 14.05 15.15 14.2 15.1 14.4 15.1 14.55 15.05 14.75 15.05 14.9 15.0 15.05 14.95 15.2 14.9 15.35 14.85 15.5 14.75 15.6 14.7 15.75 14.65 15.9 14.55 16.0 14.45 16.05 14.4 16.1 14.35 16.15 14.3 16.2 14.25 16.25 14.2 16.3 14.15 16.35 14.1 16.4 14.05 16.45 14.0 16.5 13.95 16.55 13.9 16.6 13.85 16.6 13.8 16.65 13.7 16.7 13.65 16.75 13.6 16.8 13.55 16.8 13.45 16.85 13.4 16.85 13.35 16.85 13.3 16.9 13.2 16.9 13.15 16.9 13.1 16.95 13.05 16.95 12.95 16.95 12.9 16.95 12.85 17.0 12.8 17.0 12.7 17.0 12.65 17.0 12.6 17.0 12.45 17.0 12.3 16.95 12.15 16.9 12.0 16.9 11.85 16.85 11.7 16.8 11.6 16.7 11.45 16.65 11.3 16.55 11.2 16.5 11.1 16.4 10.95 16.3 10.85 16.15 10.75 16.05 10.65 15.9 10.55 15.75 10.45 15.65 10.35 15.5 10.25 15.4 10.2 15.3 10.1 15.15 10.05 15.05 10.0 14.95 9.95 14.8 9.9 14.7 9.85 14.6 9.8 14.5 9.8 14.4 9.75 14.3 9.75 14.15 9.75 14.05 9.75 L14.0 9.75 Q14.0 9.6 14.0 9.25 14.05 8.8 14.1 8.7 14.1 8.65 14.15 8.6 14.15 8.6 14.2 8.55 14.25 8.5 14.3 8.5 14.3 8.45 14.4 8.45 14.45 8.4 14.5 8.4 14.55 8.35 14.6 8.35 14.7 8.3 14.75 8.3 14.85 8.3 14.95 8.25 15.05 8.25 15.1 8.25 15.2 8.2 15.25 8.2 15.35 8.2 15.4 8.15 15.45 8.15 15.55 8.1 15.6 8.1 15.65 8.05 15.7 8.0 15.75 8.0 15.75 7.95 15.8 7.9 15.85 7.9 15.85 7.85 15.9 7.8 15.9 7.75 15.95 7.75 15.95 7.7 15.95 7.65 15.95 7.6 15.95 7.55 15.95 7.55 15.95 7.5 15.9 7.45 15.9 7.4 15.85 7.35 15.85 7.3 15.8 7.25 15.75 7.2 15.65 7.15 15.6 7.1 15.55 7.05 15.45 7.05 15.4 7.0 15.3 7.0 15.2 6.95 15.1 6.95 14.95 6.95 14.85 6.95 14.7 6.95 L14.7 6.95 Q14.65 6.95 14.65 6.9 14.6 6.9 14.6 6.9 14.45 6.9 14.3 6.95 14.1 7.0 14.0 7.1 13.85 7.2 13.75 7.35 13.65 7.5 13.55 7.65 13.45 7.85 13.35 8.05 13.3 8.25 13.25 8.5 13.2 8.75 13.15 9.05 13.15 9.35 13.1 9.7 12.95 9.7 12.8 9.75 12.7 9.75 12.55 9.75 12.4 9.8 12.3 9.85 12.15 9.85 12.05 9.9 11.95 9.95 11.8 10.0 11.7 10.05 11.6 10.1 11.45 10.2 11.35 10.25 11.25 10.3 11.15 10.4 11.0 10.5 10.9 10.6 10.8 10.75 10.7 10.85 10.6 11.0 10.55 11.1 10.45 11.25 10.4 11.35 10.35 11.5 10.3 11.65 10.25 11.8 10.2 11.95 10.15 12.1 10.15 12.25 10.15 12.4 10.15 12.6 10.15 12.7 10.15 12.8 10.15 12.85 10.2 12.95 10.2 13.05 10.2 13.1 10.25 13.2 10.25 13.3 10.3 13.35 10.35 13.45 10.4 13.55 10.45 13.6 10.5 13.7 10.55 13.8 10.6 13.85 10.65 13.95 10.7 14.05 10.8 14.1 10.85 14.15 10.9 14.25 11.0 14.3 11.05 14.4 11.15 14.45 11.2 14.5 11.3 14.55 11.4 14.6 11.45 14.65 11.55 14.7 11.65 14.75 11.75 14.8 11.8 14.85 11.9 14.9 11.65 15.2 11.65 15.2 11.55 15.3 11.45 15.4 11.4 15.5 11.3 15.6 11.25 15.7 11.2 15.8 11.15 15.9 11.1 16.0 11.05 16.05 11.0 16.15 10.95 16.2 10.95 16.3 10.9 16.35 10.9 16.4 10.9 16.5 10.9 16.55 10.9 16.65 10.9 16.65 10.9 16.7 10.9 16.75 10.9 16.8 10.95 16.85 10.95 16.95 11.0 17.0 11.05 17.05 11.1 17.05 11.1 17.1 11.15 17.15 11.2 17.2 11.25 17.2 11.3 17.25 11.4 17.25 11.45 17.25 11.5 17.25 11.55 17.3 11.65 17.3 L11.85 17.3 Q11.85 17.3 11.9 17.3 11.9 17.3 11.9 17.3 11.95 17.3 11.95 17.3 12.0 17.3 12.0 17.3 12.05 17.3 12.05 17.3 12.1 17.3 12.15 17.25 12.15 17.25 12.2 17.25 12.25 17.25 12.3 17.25 12.35 17.25 12.4 17.25 12.4 17.2 12.45 17.2 12.5 17.2 12.5 17.2 12.55 17.2 12.6 17.2 12.65 17.15 12.65 17.15 12.7 17.15 12.75 17.15 12.75 17.15 12.8 17.15 12.85 17.15 12.85 17.15 13.1 17.15 13.35 17.15 13.55 17.2 13.75 17.2 13.95 17.25 14.15 17.3 14.3 17.35 14.4 17.4 14.55 17.5 14.65 17.55 14.75 17.65 14.8 17.75 14.85 17.85 14.9 17.95 14.95 18.1 14.95 18.2 14.95 18.25 14.95 18.3 14.95 18.35 14.9 18.45 14.9 18.5 14.9 18.55 14.85 18.6 14.85 18.65 14.8 18.7 14.75 18.7 14.75 18.75 14.7 18.8 14.65 18.85 14.6 18.9 14.55 18.95 14.5 18.95 14.45 19.0 14.4 19.05 14.35 19.05 14.3 19.1 14.25 19.15 14.2 19.15 14.1 19.2 14.05 19.2 14.0 19.2 13.95 19.25 13.9 19.25 13.8 19.25 13.75 19.25 13.7 19.3 13.65 19.3 13.55 19.3 13.5 19.3 13.45 19.3 13.35 19.3 13.3 19.3 13.25 19.25 13.2 19.25 13.15 19.25 13.05 19.25 13.0 19.2 12.95 19.2 12.9 19.2 12.85 19.15 12.8 19.15 12.75 19.15 12.65 19.1 12.6 19.1 12.6 19.05 12.65 19.05 12.65 19.0 12.65 18.95 12.7 18.95 12.7 18.9 12.7 18.85 12.7 18.85 12.7 18.8 12.7 18.75 12.75 18.75 12.75 18.7 12.75 18.65 12.75 18.65 12.75 18.6 12.75 18.55 12.75 18.5 12.75 18.5 12.75 18.45 12.75 18.45 12.7 18.4 12.7 18.4 12.7 18.35 12.7 18.3 12.65 18.3 12.65 18.25 12.65 18.25 12.6 18.2 12.6 18.2 12.55 18.15 12.55 18.15 12.5 18.1 12.45 18.1 12.45 18.05 12.4 18.05 12.4 18.0 12.35 18.0 12.3 18.0 12.25 17.95 12.25 17.95 12.2 17.95 12.15 17.95 12.1 17.95 12.05 17.9 12.05 17.9 12.0 17.9 11.95 17.9 11.9 17.9 11.85 17.9 11.8 17.9 11.75 17.9 11.7 17.9 11.65 17.95 11.65 17.95 11.6 17.95 11.55 17.95 11.5 18.0 11.5 18.0 11.45 18.0 11.4 18.05 11.35 18.05 11.35 18.1 11.3 18.1 11.3 18.15 11.25 18.2 11.25 18.2 11.2 18.25 11.2 18.3 11.15 18.3 11.15 18.35 11.1 18.4 11.1 18.45 11.1 18.45 11.1 18.5 11.05 18.55 11.05 18.6 11.05 18.6 11.05 18.65 11.05 18.7 11.05 18.75 11.05 18.85 11.05 18.9 11.05 19.0 11.1 19.05 11.1 19.1 11.15 19.2 11.15 19.25 11.2 19.3 11.25 19.35 11.3 19.45 11.35 19.5 11.4 19.55 11.45 19.6 11.5 19.65 11.6 19.7 11.7 19.75 11.75 19.8 11.85 19.85 11.95 19.9 12.0 19.9 12.1 19.95 12.2 20.0 12.3 20.0 12.45 20.05 12.55 20.05 12.65 20.1 12.8 20.1 12.9 20.1 13.05 20.1 13.2 20.1 13.35 20.15 13.5 20.15 13.65 20.15 13.8 20.15 13.95 20.1 14.05 20.1 14.2 20.05 14.35 20.05 14.45 20.0 14.6 19.95 14.7 19.95 14.85 19.85 14.95 19.8 15.1 19.75 15.2 19.7 15.3 19.65 15.4 19.55 15.55 19.5 15.65 19.4 15.75 19.35 15.8 19.25 15.9 19.15 15.95 19.1 16.05 19.0 16.1 18.9 16.15 18.8 16.2 18.7 16.25 18.6 16.3 18.55 16.3 18.45 16.35 18.35 16.35 18.25 16.35 18.15 16.35 18.05 16.35 18.0 16.35 17.95 16.35 17.9 16.35 17.85 16.35 17.8 16.35 17.75 16.35 17.65 16.3 17.5 16.25 17.4 16.25 17.3 16.2 17.2 16.15 17.1 16.1 17.0 16.05 16.9 16.0 16.8 15.95 16.75 15.9 16.65 15.8 16.55 15.75 16.5 15.7 16.45 15.6 16.35 15.55 16.3 15.45 16.25 15.35 16.2 15.25 16.1 15.15 16.1 15.05 16.05 14.95 16.0 14.85 15.95 14.7 15.9 14.6 15.9 14.45 15.85 14.3 15.85 14.15 15.8 14.0 15.8 13.85 15.8 13.7 15.8 13.5 15.8 13.4 15.8 13.35 15.8 13.25 15.8 13.2 15.8 13.15 15.8 13.05 15.85 13.0 15.85 12.9 15.85 12.85 15.85 12.8 15.85 12.7 15.9 12.65 15.9 12.6 15.9 12.5 15.9 12.45 15.95 12.4 15.95 L12.4 15.95 M13.35 10.45 Q13.45 10.45 13.6 10.45 13.7 10.5 13.8 10.5 13.9 10.55 14.0 10.55 14.1 10.6 14.2 10.65 14.3 10.65 14.35 10.7 14.45 10.75 14.55 10.8 14.6 10.85 14.65 10.9 14.75 10.95 14.8 11.05 14.85 11.1 14.9 11.15 14.95 11.25 14.95 11.3 15.0 11.35 15.05 11.45 15.05 11.55 15.1 11.6 15.1 11.7 15.15 11.8 15.15 11.9 15.15 12.0 15.2 12.1 15.2 12.2 15.2 12.3 15.2 12.45 15.2 12.6 15.2 12.75 15.15 12.85 15.15 13.0 15.15 13.1 15.1 13.2 15.1 13.3 15.1 13.4 15.05 13.5 15.05 13.6 15.0 13.65 14.95 13.75 14.95 13.8 14.9 13.85 14.9 13.9 14.85 13.95 14.8 14.0 14.75 14.05 14.65 14.1 14.6 14.15 14.55 14.2 14.5 14.25 14.4 14.3 14.35 14.35 14.25 14.35 14.2 14.4 14.1 14.4 14.05 14.4 13.95 14.45 13.9 14.45 13.8 14.45 13.7 14.45 13.6 14.45 13.55 14.45 13.45 14.45 13.4 14.4 13.3 14.4 13.2 14.35 13.15 14.35 13.05 14.3 13.0 14.25 12.9 14.2 12.85 14.15 12.75 14.1 12.7 14.05 12.6 13.95 12.55 13.9 12.45 13.8 12.35 13.75 12.3 13.65 12.25 13.55 12.2 13.45 12.15 13.4 12.1 13.3 12.05 13.2 12.0 13.1 11.95 13.0 11.95 12.9 11.9 12.8 11.9 12.65 11.85 12.55 11.85 12.45 11.85 12.3 11.85 12.2 11.85 12.05 11.85 11.95 11.85 11.85 11.9 11.7 11.9 11.6 11.95 11.5 12.0 11.4 12.0 11.3 12.05 11.2 12.1 11.15 12.15 11.05 12.25 11.0 12.3 10.9 12.35 10.85 12.45 10.75 12.5 10.7 12.55 10.65 12.6 10.65 12.65 10.6 12.7 10.6 12.75 10.55 12.8 10.55 12.85 10.55 12.9 10.5 12.95 10.5 13.05 10.5 13.1 10.45 13.15 10.45 13.2 10.45 13.25 10.45 13.3 10.45 13.35 10.45 L13.35 10.45" fill="#ffffff" fill-rule="evenodd" stroke="none"/>
    <path d="M16.0 5.8 Q16.0 5.85 15.95 5.9 15.95 5.95 15.95 6.0 15.95 6.05 15.95 6.05 16.0 6.1 16.0 6.15 16.05 6.2 16.1 6.25 16.1 6.3 16.15 6.35 16.2 6.4 16.2 6.4 16.25 6.45 16.25 6.45 16.3 6.45 16.35 6.5 16.35 6.5 16.4 6.5 16.4 6.55 16.45 6.55 16.5 6.55 16.5 6.55 16.55 6.6 16.6 6.6 16.65 6.6 16.65 6.6 16.7 6.6 16.7 6.6 16.75 6.6 16.8 6.6 16.8 6.6 16.85 6.6 16.85 6.65 16.9 6.65 16.9 6.65 16.95 6.65 17.0 6.7 17.0 6.7 17.05 6.75 17.05 6.75 17.05 6.75 17.1 6.8 17.15 6.9 17.25 7.6 17.3 8.35 17.3 9.65 L17.35 12.15 Q17.4 14.2 17.45 14.7 17.45 14.75 17.5 14.85 17.5 14.9 17.5 15.0 17.55 15.05 17.55 15.15 17.55 15.2 17.6 15.25 17.6 15.35 17.65 15.4 17.7 15.45 17.7 15.55 17.75 15.6 17.8 15.65 17.8 15.7 17.85 15.8 17.95 15.9 18.0 16.0 18.1 16.1 18.2 16.2 18.3 16.3 18.4 16.4 18.55 16.5 18.65 16.55 18.75 16.65 18.9 16.7 19.0 16.75 19.15 16.8 19.3 16.9 19.4 16.95 19.55 17.0 19.7 17.0 19.8 17.05 19.85 17.05 19.95 17.05 20.0 17.1 20.1 17.1 20.15 17.1 20.25 17.15 20.3 17.15 20.4 17.15 20.45 17.15 20.55 17.2 20.6 17.2 20.7 17.2 20.75 17.2 20.85 17.2 20.9 17.2 21.0 17.2 21.05 17.2 21.15 17.2 21.2 17.2 21.3 17.2 21.35 17.15 21.45 17.15 21.5 17.15 21.6 17.15 21.65 17.15 21.75 17.1 21.8 17.1 21.9 17.1 21.95 17.05 22.05 17.05 22.15 17.0 22.3 16.95 22.45 16.9 22.6 16.85 22.7 16.8 22.85 16.75 22.95 16.65 23.1 16.6 23.2 16.55 23.3 16.45 23.45 16.35 23.55 16.3 23.65 16.2 23.75 16.1 23.8 16.0 23.9 15.9 24.0 15.75 24.05 15.7 24.1 15.65 24.1 15.55 24.15 15.5 24.2 15.45 24.2 15.4 24.25 15.3 24.25 15.25 24.3 15.2 24.3 15.1 24.35 15.05 24.35 14.95 24.35 14.9 24.4 14.8 24.4 14.75 24.4 14.65 24.5 14.0 24.5 11.45 24.55 9.05 24.6 7.9 24.6 7.75 24.6 7.65 24.65 7.55 24.65 7.4 24.65 7.3 24.65 7.25 24.7 7.15 24.7 7.05 24.7 7.0 24.75 6.9 24.75 6.85 24.75 6.8 24.8 6.75 24.8 6.7 24.85 6.65 24.85 6.65 24.85 6.65 24.9 6.6 24.95 6.6 24.95 6.6 25.0 6.6 25.05 6.6 25.1 6.6 25.15 6.6 25.15 6.6 25.25 6.6 25.3 6.6 25.3 6.6 25.35 6.6 25.35 6.6 25.4 6.55 25.4 6.55 25.45 6.55 25.45 6.55 25.5 6.5 25.55 6.5 25.55 6.45 25.6 6.45 25.6 6.45 25.65 6.4 25.7 6.4 25.7 6.35 25.75 6.3 25.8 6.25 25.8 6.2 25.85 6.15 25.9 6.1 25.9 6.05 25.9 6.0 25.9 5.95 25.9 5.9 25.9 5.85 25.9 5.85 25.85 5.8 25.8 5.75 25.8 5.7 25.6 5.65 24.35 5.6 24.2 5.6 24.0 5.6 23.85 5.6 23.7 5.6 23.55 5.6 23.45 5.6 23.3 5.6 23.2 5.65 23.05 5.65 22.95 5.65 22.85 5.65 22.75 5.65 22.65 5.7 22.55 5.7 22.45 5.7 22.4 5.75 22.35 5.75 22.3 5.75 22.25 5.8 22.25 5.8 22.2 5.8 22.15 5.85 22.15 5.85 22.1 5.85 22.1 5.9 22.1 5.9 22.05 5.95 22.05 6.0 22.05 6.0 22.05 6.05 22.05 6.05 22.05 6.1 22.05 6.15 22.05 6.15 22.05 6.2 22.05 6.25 22.1 6.25 22.1 6.3 22.1 6.3 22.15 6.35 22.2 6.35 22.2 6.4 22.25 6.4 22.3 6.45 22.35 6.45 22.4 6.45 22.45 6.5 22.5 6.5 22.55 6.5 22.6 6.55 22.7 6.55 22.75 6.6 22.8 6.6 22.85 6.65 22.9 6.7 22.9 6.7 22.95 6.75 23.0 6.8 23.05 6.85 23.05 6.9 23.1 6.95 23.15 7.0 23.15 7.05 23.2 7.1 23.35 7.5 23.35 10.45 23.4 13.3 23.2 14.15 23.2 14.25 23.15 14.35 23.15 14.45 23.1 14.55 23.05 14.65 23.05 14.75 23.0 14.85 22.95 14.9 22.9 15.0 22.85 15.05 22.85 15.15 22.8 15.2 22.75 15.25 22.65 15.3 22.6 15.4 22.55 15.45 22.5 15.5 22.45 15.55 22.4 15.55 22.3 15.6 22.25 15.65 22.15 15.65 22.1 15.7 22.0 15.7 21.95 15.75 21.85 15.75 21.75 15.75 21.65 15.8 21.6 15.8 21.5 15.8 21.4 15.8 21.3 15.8 21.2 15.8 21.1 15.8 21.0 15.8 20.9 15.75 20.8 15.75 20.7 15.75 20.6 15.7 20.55 15.7 20.45 15.65 20.35 15.6 20.3 15.6 20.2 15.55 20.15 15.5 20.05 15.45 20.0 15.4 19.9 15.35 L19.35 14.85 19.35 6.9 20.0 6.6 Q20.05 6.55 20.15 6.55 20.2 6.5 20.25 6.45 20.3 6.45 20.35 6.4 20.4 6.35 20.45 6.35 20.5 6.3 20.5 6.25 20.55 6.25 20.55 6.2 20.6 6.15 20.6 6.15 20.6 6.1 20.6 6.05 20.6 6.0 20.6 6.0 20.6 5.95 20.55 5.95 20.55 5.9 20.5 5.9 20.5 5.85 20.45 5.85 20.4 5.85 20.35 5.8 20.3 5.8 20.25 5.75 20.2 5.75 20.15 5.75 20.1 5.75 20.0 5.7 19.25 5.6 17.0 5.6 16.9 5.6 16.8 5.6 16.7 5.6 16.6 5.6 16.5 5.65 16.45 5.65 16.35 5.65 16.3 5.65 16.25 5.65 16.2 5.7 16.15 5.7 16.1 5.7 16.05 5.75 16.05 5.75 16.05 5.75 16.0 5.8 L16.0 5.8" fill="#ffffff" fill-rule="evenodd" stroke="none"/>
    <path d="M25.0 10.1 Q25.0 10.15 25.0 10.15 25.0 10.2 25.0 10.2 25.05 10.25 25.05 10.25 25.05 10.3 25.1 10.3 25.15 10.35 25.15 10.4 25.2 10.4 25.25 10.45 25.3 10.45 25.35 10.5 25.4 10.5 25.45 10.55 L25.95 10.8 25.95 19.4 25.45 19.65 Q25.4 19.7 25.35 19.7 25.3 19.75 25.25 19.8 25.2 19.85 25.15 19.85 25.1 19.9 25.1 19.95 25.05 19.95 25.05 20.0 25.0 20.0 25.0 20.05 24.95 20.1 24.95 20.1 24.95 20.15 24.95 20.2 24.95 20.25 25.0 20.25 25.0 20.3 25.1 20.3 25.15 20.35 25.25 20.35 25.3 20.35 25.45 20.4 25.55 20.4 25.7 20.4 25.85 20.4 26.05 20.45 26.25 20.45 26.45 20.45 26.65 20.45 26.9 20.45 27.15 20.45 27.35 20.45 27.55 20.45 27.75 20.45 27.95 20.4 28.1 20.4 28.25 20.4 28.35 20.4 28.5 20.35 28.6 20.35 28.7 20.35 28.75 20.3 28.85 20.3 28.9 20.25 28.9 20.25 28.95 20.2 28.95 20.2 28.95 20.15 28.95 20.1 28.95 20.1 28.9 20.05 28.9 20.05 28.9 20.0 28.85 20.0 28.85 19.95 28.8 19.95 28.75 19.9 28.7 19.9 28.7 19.85 28.65 19.8 28.6 19.8 28.5 19.75 28.45 19.75 28.4 19.7 28.35 19.65 28.25 19.65 28.2 19.6 28.15 19.55 28.1 19.55 28.05 19.5 28.0 19.45 27.95 19.45 27.9 19.4 27.9 19.35 27.85 19.35 27.8 19.3 27.8 19.25 27.75 19.25 27.75 19.2 27.75 19.15 27.75 19.1 27.7 19.1 27.7 19.05 27.7 18.95 27.65 18.9 27.65 18.85 27.65 18.8 27.65 18.7 27.65 18.6 27.65 18.5 27.6 18.4 27.6 18.3 27.6 18.2 27.6 18.1 27.6 18.0 27.6 17.85 L27.6 16.65 28.1 16.9 Q28.15 16.95 28.25 16.95 28.3 17.0 28.4 17.0 28.45 17.05 28.55 17.05 28.65 17.1 28.75 17.1 28.9 17.1 29.0 17.15 29.15 17.15 29.25 17.15 29.4 17.15 29.55 17.15 29.7 17.2 29.85 17.2 29.9 17.2 29.95 17.2 29.95 17.2 30.0 17.15 30.05 17.15 30.1 17.15 30.15 17.15 30.25 17.1 30.3 17.1 30.35 17.05 30.4 17.05 30.5 17.05 30.55 17.0 30.65 17.0 30.7 16.95 30.8 16.9 30.85 16.85 30.95 16.85 31.0 16.8 31.1 16.75 31.15 16.7 31.25 16.65 31.3 16.65 31.4 16.6 31.45 16.55 31.5 16.5 31.6 16.45 31.65 16.35 31.7 16.3 31.8 16.25 31.85 16.2 31.9 16.15 32.05 16.0 32.2 15.85 32.3 15.7 32.4 15.5 32.5 15.35 32.6 15.15 32.7 15.0 32.8 14.8 32.85 14.6 32.9 14.4 32.95 14.15 33.0 13.95 33.05 13.75 33.05 13.5 33.1 13.25 33.1 13.05 33.1 12.8 33.05 12.55 33.05 12.35 33.0 12.1 32.95 11.9 32.9 11.7 32.85 11.5 32.75 11.3 32.65 11.15 32.55 10.95 32.45 10.8 32.3 10.65 32.2 10.5 32.05 10.35 31.9 10.2 31.75 10.1 31.65 10.05 31.55 9.95 31.45 9.9 31.35 9.85 31.25 9.8 31.1 9.75 31.0 9.7 30.9 9.7 30.8 9.65 30.65 9.6 30.55 9.6 30.45 9.55 30.3 9.55 30.2 9.55 30.05 9.55 29.95 9.55 L29.9 9.55 Q29.75 9.55 29.65 9.55 29.5 9.55 29.4 9.55 29.3 9.6 29.2 9.6 29.1 9.6 29.0 9.65 28.9 9.65 28.8 9.65 28.7 9.7 28.65 9.75 28.55 9.75 28.5 9.8 28.45 9.85 28.4 9.85 L27.85 10.25 27.75 9.85 Q27.75 9.8 27.75 9.75 27.75 9.7 27.75 9.7 27.7 9.65 27.7 9.6 27.7 9.6 27.65 9.55 27.65 9.5 27.65 9.5 27.6 9.45 27.6 9.45 27.55 9.45 27.55 9.4 27.5 9.4 27.5 9.4 27.25 9.3 27.2 9.3 27.15 9.3 27.15 9.3 27.1 9.35 27.05 9.35 27.05 9.4 27.0 9.4 27.0 9.4 26.95 9.45 26.9 9.45 26.8 9.5 26.7 9.5 26.6 9.55 26.45 9.6 26.3 9.6 26.15 9.65 25.95 9.65 25.85 9.65 25.7 9.7 25.6 9.7 25.5 9.75 25.45 9.75 25.35 9.8 25.3 9.8 25.2 9.85 25.15 9.85 25.1 9.9 25.05 9.95 25.05 9.95 25.0 10.0 25.0 10.05 25.0 10.05 25.0 10.1 L25.0 10.1 M30.35 11.0 Q30.5 11.1 30.6 11.2 30.75 11.3 30.85 11.4 30.95 11.5 31.05 11.65 31.15 11.8 31.2 11.95 31.25 12.1 31.35 12.3 31.4 12.45 31.45 12.65 31.45 12.85 31.5 13.05 31.5 13.3 31.5 13.5 31.5 13.7 31.45 13.9 31.45 14.1 31.4 14.3 31.35 14.45 31.3 14.65 31.25 14.8 31.2 14.95 31.1 15.1 31.05 15.2 30.95 15.35 30.9 15.45 30.8 15.55 30.7 15.65 30.6 15.75 30.5 15.8 30.45 15.85 30.4 15.9 30.3 15.95 30.25 15.95 30.2 16.0 30.15 16.05 30.05 16.05 30.0 16.1 29.95 16.1 29.85 16.1 29.8 16.15 29.75 16.15 29.7 16.15 29.6 16.15 29.55 16.2 29.5 16.2 29.45 16.2 29.4 16.2 29.3 16.2 29.25 16.15 29.2 16.15 29.15 16.15 29.05 16.15 29.0 16.15 28.95 16.1 28.9 16.1 28.85 16.1 28.8 16.05 28.7 16.05 28.65 16.05 28.6 16.0 28.55 16.0 28.45 15.95 28.35 15.85 28.25 15.75 28.15 15.65 28.05 15.55 28.0 15.4 27.9 15.25 27.85 15.05 27.8 14.85 27.75 14.65 27.7 14.4 27.65 14.15 27.65 13.95 27.65 13.65 27.6 13.35 27.6 13.05 27.6 11.8 27.7 11.6 27.7 11.55 27.75 11.55 27.75 11.5 27.75 11.5 27.8 11.45 27.8 11.4 27.85 11.4 27.9 11.35 27.95 11.3 27.95 11.3 28.0 11.25 28.05 11.2 28.15 11.15 28.2 11.15 28.25 11.1 28.3 11.05 28.35 11.0 28.45 11.0 28.5 10.95 28.6 10.9 28.65 10.9 28.7 10.85 28.8 10.85 28.85 10.8 28.9 10.8 29.0 10.8 29.05 10.8 29.1 10.75 29.2 10.75 29.25 10.75 29.3 10.75 29.4 10.75 29.45 10.75 29.5 10.75 29.6 10.75 29.65 10.75 29.7 10.75 29.75 10.8 29.8 10.8 29.9 10.8 29.95 10.85 30.0 10.85 30.05 10.85 30.1 10.9 30.2 10.9 30.25 10.95 30.3 10.95 30.35 11.0 L30.35 11.0" fill="#ffffff" fill-rule="evenodd" stroke="none"/>
  </g>
</svg>
