<?xml version="1.0" encoding="UTF-8" standalone="no"?>
<svg xmlns:ffdec="https://www.free-decompiler.com/flash" xmlns:xlink="http://www.w3.org/1999/xlink" ffdec:objectType="shape" height="26.0px" width="35.75px" xmlns="http://www.w3.org/2000/svg">
  <g transform="matrix(1.0, 0.0, 0.0, 1.0, 0.0, 0.0)">
    <path d="M4.65 12.6 L4.65 6.65 5.15 6.75 Q6.05 6.9 6.05 6.95 6.2 7.1 6.65 7.35 6.8 7.45 6.9 7.5 7.0 7.6 7.1 7.7 7.2 7.85 7.25 7.95 7.35 8.05 7.4 8.2 7.5 8.3 7.55 8.45 7.6 8.6 7.6 8.75 7.65 8.9 7.65 9.05 7.7 9.25 7.7 9.4 7.7 9.6 7.7 9.75 7.65 9.9 7.6 10.1 7.6 10.25 7.55 10.35 7.5 10.5 7.45 10.65 7.35 10.75 7.3 10.85 7.2 11.0 7.1 11.1 7.0 11.2 6.9 11.25 6.8 11.35 6.65 11.4 6.5 11.5 6.35 11.6 6.2 11.65 6.05 11.75 5.95 11.85 5.85 11.9 5.75 11.95 5.65 12.05 5.6 12.1 5.5 12.15 5.45 12.2 5.4 12.25 5.4 12.3 5.35 12.35 5.35 12.4 5.35 12.45 5.35 12.45 5.35 12.5 5.35 12.5 5.4 12.55 5.4 12.55 5.4 12.55 5.45 12.6 5.5 12.6 5.55 12.6 5.55 12.6 5.6 12.6 5.7 12.65 5.75 12.65 5.8 12.65 5.85 12.65 5.95 12.65 6.35 12.65 6.7 12.6 7.1 12.55 7.4 12.45 7.7 12.35 7.95 12.2 8.25 12.05 8.45 11.85 8.7 11.7 8.85 11.45 9.0 11.2 9.15 10.9 9.25 10.65 9.35 10.3 9.45 9.95 9.45 9.55 9.45 9.5 9.45 9.45 9.5 9.4 9.5 9.35 9.5 9.35 9.5 9.3 9.5 9.25 9.5 9.2 9.5 8.9 9.45 8.65 9.4 8.4 9.35 8.15 9.25 7.9 9.15 7.7 9.05 7.45 8.9 7.25 8.75 7.05 8.6 6.9 8.4 6.7 8.2 6.55 8.0 6.4 7.75 6.25 7.5 6.1 7.2 6.0 7.1 5.95 7.0 5.95 6.85 5.9 6.7 5.9 6.55 5.85 6.4 5.85 6.25 5.8 6.05 5.8 5.85 5.75 5.65 5.75 5.4 5.75 5.15 5.75 4.9 5.75 4.65 5.7 4.4 5.7 4.1 5.7 L3.95 5.7 Q3.7 5.7 3.45 5.7 3.2 5.7 3.0 5.7 2.75 5.75 2.6 5.75 2.4 5.75 2.3 5.75 2.15 5.8 2.0 5.8 1.9 5.85 1.85 5.85 1.75 5.9 1.7 5.9 1.65 5.95 1.65 6.0 1.65 6.05 1.65 6.05 1.6 6.1 1.6 6.1 1.6 6.15 1.6 6.2 1.6 6.2 1.6 6.25 1.6 6.25 1.6 6.25 1.6 6.25 1.65 6.3 1.65 6.3 1.65 6.35 1.65 6.35 1.7 6.35 1.7 6.4 1.7 6.4 1.75 6.45 1.75 6.45 1.75 6.5 1.8 6.5 1.8 6.5 1.85 6.55 1.85 6.55 1.9 6.6 1.9 6.6 1.95 6.6 2.0 6.65 2.0 6.65 2.05 6.65 2.05 6.7 2.1 6.7 2.15 6.7 2.15 6.7 2.2 6.7 2.25 6.75 2.25 6.75 2.3 6.75 2.35 6.75 2.4 6.75 2.4 6.75 2.45 6.8 2.5 6.8 2.5 6.8 2.55 6.8 2.55 6.85 2.6 6.85 2.6 6.85 2.6 6.9 2.6 6.9 2.6 6.9 2.6 6.9 2.65 6.95 2.65 7.0 2.7 7.1 2.7 7.15 2.7 7.25 2.8 7.45 2.8 9.9 L2.8 12.6 Q2.75 14.7 2.75 15.15 L2.7 15.65 Q2.7 15.7 2.7 15.75 2.7 15.8 2.65 15.8 2.65 15.85 2.65 15.9 2.65 15.9 2.6 15.95 2.6 15.95 2.6 16.0 2.55 16.0 2.55 16.05 2.5 16.05 2.5 16.05 2.45 16.05 2.4 16.1 2.35 16.1 2.35 16.1 2.3 16.1 2.25 16.1 2.2 16.1 2.2 16.1 2.15 16.1 2.1 16.15 2.1 16.15 2.05 16.15 2.0 16.15 2.0 16.2 1.95 16.2 1.95 16.2 1.9 16.25 1.9 16.25 1.85 16.25 1.85 16.3 1.8 16.3 1.8 16.35 1.75 16.4 1.75 16.4 1.7 16.45 1.65 16.5 1.65 16.5 1.65 16.55 1.6 16.55 1.6 16.6 1.6 16.6 1.6 16.65 1.6 16.7 1.65 16.9 1.65 16.9 1.65 16.9 1.7 16.95 1.7 16.95 1.7 16.95 1.75 16.95 1.75 17.0 1.8 17.0 1.8 17.0 1.85 17.0 1.85 17.0 1.9 17.05 1.95 17.05 2.0 17.05 2.05 17.05 2.05 17.05 2.45 17.1 4.2 17.1 4.4 17.1 4.6 17.1 4.8 17.1 5.0 17.1 5.15 17.1 5.3 17.1 5.45 17.1 5.55 17.05 5.65 17.05 5.75 17.05 5.85 17.0 5.95 17.0 6.0 17.0 6.05 16.95 6.1 16.95 6.1 16.9 6.1 16.9 6.15 16.85 6.15 16.85 6.15 16.8 6.15 16.8 6.15 16.75 6.15 16.7 6.15 16.7 6.15 16.65 6.1 16.6 6.1 16.6 6.1 16.55 6.05 16.5 6.05 16.5 6.0 16.45 5.95 16.4 5.9 16.35 5.9 16.35 5.85 16.3 5.85 16.3 5.8 16.25 5.75 16.25 5.75 16.2 5.7 16.2 5.65 16.2 5.6 16.2 5.55 16.15 5.55 16.15 5.5 16.15 5.45 16.15 5.4 16.15 5.35 16.15 5.3 16.15 5.25 16.15 5.25 16.15 5.2 16.1 5.15 16.1 5.1 16.05 5.1 16.05 5.05 16.0 5.0 15.95 4.95 15.9 4.95 15.85 4.9 15.8 4.9 15.75 4.85 15.7 4.8 15.6 4.8 15.55 4.8 15.5 4.75 15.4 4.75 15.35 4.7 15.25 4.7 15.2 4.7 15.15 4.65 15.05 4.65 15.0 4.65 14.9 4.6 14.85 4.6 14.8 4.6 14.7 4.6 14.65 4.6 14.6 4.6 14.5 4.6 14.45 L4.65 12.6" fill="#ffffff" fill-rule="evenodd" stroke="none"/>
    <path d="M11.55 16.1 Q11.55 16.1 11.55 16.05 11.6 16.05 11.6 16.0 11.6 16.0 11.65 15.95 11.65 15.85 11.65 15.85 11.7 15.8 11.7 15.75 11.75 15.65 11.8 15.6 11.85 15.5 11.85 15.45 11.9 15.35 11.95 15.25 12.0 15.25 12.05 15.25 12.1 15.3 12.1 15.3 12.15 15.3 12.2 15.3 12.25 15.3 12.3 15.3 12.35 15.3 12.4 15.3 12.45 15.3 12.5 15.35 12.5 15.35 12.55 15.35 12.6 15.35 12.65 15.35 12.85 15.35 13.05 15.35 13.2 15.3 13.4 15.3 13.55 15.25 13.75 15.25 13.9 15.2 14.05 15.15 14.2 15.1 14.35 15.05 14.5 15.0 14.65 14.95 14.8 14.85 14.95 14.8 15.05 14.7 15.2 14.6 15.25 14.55 15.3 14.5 15.35 14.45 15.4 14.45 15.45 14.4 15.5 14.35 15.55 14.3 15.6 14.2 15.65 14.15 15.7 14.1 15.7 14.05 15.75 14.0 15.8 13.95 15.85 13.9 15.85 13.8 15.9 13.75 15.95 13.7 15.95 13.65 16.0 13.55 16.0 13.5 16.05 13.45 16.05 13.4 16.1 13.3 16.1 13.25 16.1 13.2 16.15 13.15 16.15 13.05 16.15 13.0 16.15 12.95 16.15 12.9 16.15 12.8 16.15 12.75 16.15 12.6 16.15 12.45 16.1 12.3 16.1 12.15 16.05 12.0 16.0 11.85 15.95 11.75 15.9 11.6 15.85 11.5 15.75 11.35 15.65 11.25 15.55 11.1 15.45 11.0 15.35 10.9 15.25 10.8 15.1 10.7 14.95 10.6 14.85 10.5 14.7 10.4 14.6 10.35 14.45 10.25 14.35 10.2 14.25 10.15 14.1 10.1 14.0 10.05 13.9 10.0 13.75 9.95 13.65 9.95 13.55 9.9 13.45 9.9 13.35 9.9 13.25 9.9 L13.15 9.9 Q13.15 9.85 13.2 9.4 13.2 9.35 13.2 9.3 13.2 9.25 13.2 9.2 13.2 9.15 13.2 9.1 13.25 9.1 13.25 9.05 13.25 9.0 13.25 9.0 13.25 8.95 13.25 8.9 13.3 8.9 13.3 8.85 13.3 8.85 13.3 8.8 13.3 8.75 13.35 8.75 13.35 8.7 13.4 8.7 13.4 8.65 13.45 8.65 13.5 8.6 13.55 8.6 13.6 8.55 13.65 8.55 13.75 8.5 13.8 8.5 13.85 8.45 13.95 8.45 14.05 8.45 14.1 8.45 14.2 8.45 14.3 8.4 14.35 8.4 14.45 8.35 14.5 8.35 14.6 8.3 14.65 8.3 14.7 8.25 14.75 8.25 14.8 8.2 14.85 8.2 14.9 8.15 14.95 8.1 15.0 8.1 15.0 8.05 15.05 8.0 15.1 7.95 15.1 7.95 15.1 7.9 15.1 7.85 15.15 7.8 15.15 7.75 15.15 7.75 15.15 7.7 15.1 7.65 15.1 7.6 15.1 7.55 15.05 7.5 15.0 7.45 14.95 7.4 14.9 7.35 14.85 7.3 14.8 7.25 14.7 7.2 14.65 7.2 14.55 7.15 14.45 7.15 14.35 7.15 14.25 7.1 14.15 7.1 14.05 7.1 13.9 7.1 L13.85 7.1 Q13.8 7.05 13.75 7.05 13.6 7.05 13.45 7.1 13.3 7.2 13.15 7.25 13.05 7.35 12.9 7.5 12.8 7.65 12.7 7.8 12.6 8.0 12.55 8.2 12.5 8.4 12.45 8.65 12.35 8.9 12.35 9.2 12.3 9.5 12.3 9.85 12.15 9.85 12.0 9.9 11.9 9.9 11.75 9.95 11.6 9.95 11.5 10.0 11.35 10.0 11.25 10.05 11.1 10.1 11.0 10.15 10.9 10.2 10.75 10.3 10.65 10.35 10.55 10.4 10.45 10.5 10.35 10.55 10.2 10.65 10.1 10.75 10.0 10.9 9.9 11.0 9.8 11.15 9.7 11.25 9.65 11.4 9.6 11.55 9.5 11.65 9.45 11.8 9.4 11.95 9.4 12.1 9.35 12.25 9.35 12.4 9.3 12.55 9.3 12.75 9.3 12.85 9.3 12.95 9.35 13.0 9.35 13.1 9.35 13.2 9.4 13.3 9.4 13.35 9.45 13.45 9.5 13.55 9.5 13.6 9.55 13.7 9.6 13.8 9.65 13.85 9.7 13.95 9.75 14.0 9.85 14.1 9.9 14.2 9.95 14.25 10.05 14.35 10.1 14.4 10.2 14.45 10.25 14.55 10.35 14.6 10.4 14.65 10.5 14.7 10.55 14.75 10.65 14.8 10.75 14.85 10.8 14.9 10.9 14.95 11.0 15.0 11.1 15.05 11.05 15.1 11.0 15.2 10.9 15.3 10.8 15.35 10.7 15.45 10.65 15.55 10.55 15.65 10.5 15.75 10.4 15.85 10.35 15.95 10.3 16.05 10.25 16.15 10.2 16.2 10.15 16.3 10.15 16.35 10.1 16.45 10.1 16.5 10.1 16.6 10.05 16.65 10.05 16.7 10.1 16.9 10.1 16.9 10.1 16.95 10.15 17.05 10.15 17.1 10.2 17.15 10.25 17.2 10.25 17.25 10.3 17.25 10.35 17.3 10.4 17.35 10.45 17.35 10.5 17.4 10.55 17.4 10.6 17.4 10.7 17.45 10.75 17.45 10.8 17.45 L11.0 17.45 Q11.0 17.45 11.05 17.45 11.05 17.45 11.1 17.45 11.1 17.45 11.15 17.45 11.15 17.45 11.2 17.45 11.2 17.45 11.25 17.45 11.3 17.45 11.3 17.45 11.35 17.4 11.4 17.4 11.4 17.4 11.45 17.4 11.5 17.4 11.55 17.4 11.6 17.35 11.6 17.35 11.65 17.35 11.7 17.35 11.75 17.35 11.75 17.35 11.8 17.35 11.85 17.35 11.9 17.3 11.9 17.3 11.95 17.3 12.0 17.3 12.0 17.3 12.05 17.3 12.3 17.3 12.55 17.3 12.75 17.35 12.95 17.4 13.15 17.4 13.3 17.45 13.45 17.5 13.6 17.6 13.75 17.65 13.85 17.75 13.9 17.8 14.0 17.9 14.05 18.0 14.1 18.15 14.1 18.25 14.1 18.4 14.1 18.45 14.1 18.5 14.1 18.55 14.1 18.6 14.05 18.65 14.05 18.7 14.05 18.75 14.0 18.8 14.0 18.85 13.95 18.9 13.9 18.9 13.9 18.95 13.85 19.0 13.8 19.05 13.75 19.1 13.7 19.1 13.65 19.15 13.6 19.2 13.55 19.2 13.5 19.25 13.4 19.3 13.35 19.3 13.3 19.35 13.25 19.35 13.2 19.4 13.1 19.4 13.05 19.4 13.0 19.4 12.95 19.45 12.85 19.45 12.8 19.45 12.75 19.45 12.7 19.45 12.6 19.45 12.55 19.45 12.5 19.45 12.45 19.45 12.4 19.4 12.3 19.4 12.25 19.4 12.2 19.4 12.15 19.35 12.1 19.35 12.0 19.35 11.95 19.3 11.9 19.3 11.85 19.25 11.8 19.25 11.8 19.2 11.85 19.2 11.85 19.15 11.85 19.1 11.85 19.1 11.85 19.05 11.9 19.0 11.9 19.0 11.9 18.95 11.9 18.9 11.9 18.9 11.9 18.85 11.9 18.85 11.9 18.8 11.9 18.75 11.9 18.75 11.9 18.7 11.9 18.7 11.9 18.65 11.9 18.6 11.9 18.6 11.9 18.55 11.85 18.5 11.85 18.5 11.85 18.45 11.8 18.4 11.8 18.4 11.8 18.35 11.75 18.35 11.75 18.3 11.7 18.3 11.7 18.25 11.65 18.25 11.65 18.2 11.6 18.2 11.55 18.2 11.55 18.15 11.5 18.15 11.45 18.15 11.4 18.1 11.4 18.1 11.35 18.1 11.3 18.1 11.25 18.1 11.2 18.05 11.15 18.05 11.1 18.05 11.05 18.05 11.0 18.05 10.95 18.05 10.9 18.05 10.9 18.05 10.85 18.1 10.8 18.1 10.75 18.1 10.75 18.1 10.7 18.15 10.65 18.15 10.6 18.15 10.6 18.2 10.55 18.2 10.5 18.25 10.5 18.25 10.45 18.3 10.4 18.35 10.4 18.35 10.35 18.4 10.35 18.45 10.35 18.45 10.3 18.5 10.3 18.55 10.3 18.6 10.25 18.6 10.25 18.65 10.25 18.7 10.25 18.75 10.25 18.8 10.25 18.8 10.25 18.85 10.25 18.9 10.25 19.0 10.25 19.05 10.25 19.15 10.25 19.2 10.3 19.25 10.3 19.35 10.35 19.4 10.4 19.45 10.4 19.55 10.45 19.6 10.5 19.65 10.55 19.7 10.65 19.75 10.7 19.8 10.75 19.85 10.85 19.9 10.9 19.95 11.0 20.0 11.1 20.05 11.2 20.05 11.3 20.1 11.4 20.15 11.5 20.15 11.6 20.2 11.7 20.2 11.85 20.25 11.95 20.25 12.1 20.25 12.25 20.25 12.35 20.3 12.5 20.3 12.65 20.3 12.8 20.3 12.95 20.3 13.1 20.25 13.25 20.25 13.4 20.25 13.5 20.2 13.65 20.15 13.75 20.1 13.9 20.1 14.0 20.05 14.15 20.0 14.25 19.9 14.4 19.85 14.5 19.8 14.6 19.7 14.7 19.65 14.8 19.55 14.9 19.5 15.0 19.4 15.05 19.3 15.15 19.25 15.2 19.15 15.25 19.05 15.35 18.95 15.4 18.85 15.4 18.8 15.45 18.7 15.5 18.6 15.5 18.5 15.5 18.4 15.55 18.3 15.55 18.2 15.55 18.15 15.55 18.1 15.55 18.05 15.55 18.0 15.55 17.95 15.55 17.95 15.5 17.8 15.5 17.7 15.45 17.6 15.4 17.5 15.4 17.35 15.35 17.25 15.3 17.15 15.25 17.05 15.2 17.0 15.15 16.9 15.05 16.8 15.0 16.75 14.95 16.65 14.85 16.6 14.8 16.5 14.7 16.45 14.6 16.4 14.55 16.35 14.45 16.3 14.35 16.25 14.25 16.2 14.1 16.15 14.0 16.1 13.9 16.05 13.75 16.05 13.6 16.0 13.5 16.0 13.35 15.95 13.2 15.95 13.0 15.95 12.85 15.95 12.7 15.95 12.6 15.95 12.55 15.95 12.45 15.95 12.4 15.95 12.3 15.95 12.25 16.0 12.15 16.0 12.1 16.0 12.05 16.0 11.95 16.0 11.9 16.05 11.8 16.05 11.75 16.05 11.7 16.1 11.65 16.1 11.55 16.1 L11.55 16.1 M12.55 10.6 Q12.65 10.6 12.8 10.65 12.9 10.65 13.0 10.65 13.1 10.7 13.2 10.7 13.3 10.75 13.4 10.8 13.45 10.8 13.55 10.85 13.65 10.9 13.7 10.95 13.8 11.0 13.85 11.05 13.9 11.1 13.95 11.2 14.0 11.25 14.05 11.3 14.1 11.4 14.15 11.45 14.2 11.55 14.2 11.6 14.25 11.7 14.25 11.75 14.3 11.85 14.3 11.95 14.35 12.05 14.35 12.15 14.35 12.25 14.35 12.35 14.35 12.5 14.35 12.6 14.35 12.75 14.35 12.9 14.35 13.0 14.3 13.15 14.3 13.25 14.3 13.35 14.25 13.45 14.25 13.55 14.25 13.65 14.2 13.75 14.2 13.85 14.15 13.9 14.1 13.95 14.1 14.0 14.05 14.05 14.0 14.1 13.95 14.15 13.9 14.2 13.85 14.3 13.8 14.3 13.7 14.35 13.65 14.4 13.6 14.45 13.5 14.5 13.45 14.5 13.35 14.55 13.3 14.55 13.2 14.55 13.15 14.6 13.05 14.6 13.0 14.6 12.9 14.6 12.8 14.6 12.75 14.6 12.65 14.6 12.55 14.55 12.5 14.55 12.4 14.5 12.35 14.5 12.25 14.45 12.15 14.4 12.1 14.35 12.0 14.3 11.95 14.25 11.85 14.2 11.8 14.1 11.7 14.05 11.65 13.95 11.55 13.9 11.5 13.8 11.45 13.7 11.4 13.65 11.3 13.55 11.25 13.45 11.2 13.35 11.2 13.25 11.15 13.15 11.1 13.05 11.1 12.95 11.05 12.8 11.05 12.7 11.05 12.6 11.05 12.45 11.05 12.35 11.05 12.2 11.05 12.1 11.05 12.0 11.1 11.9 11.1 11.75 11.15 11.65 11.15 11.55 11.2 11.45 11.25 11.4 11.3 11.3 11.35 11.2 11.4 11.15 11.45 11.05 11.55 11.0 11.6 10.95 11.7 10.85 11.75 10.8 11.8 10.8 11.85 10.75 11.9 10.75 11.95 10.7 12.0 10.7 12.05 10.7 12.1 10.65 12.15 10.65 12.2 10.65 12.25 10.65 12.3 10.6 12.35 10.6 12.45 10.6 12.5 10.6 12.55 10.6 L12.55 10.6" fill="#ffffff" fill-rule="evenodd" stroke="none"/>
    <path d="M15.9 6.3 Q15.9 6.35 15.9 6.4 15.95 6.45 16.0 6.45 16.1 6.5 16.3 6.6 16.55 6.7 16.65 6.8 L17.15 7.05 17.15 15.85 16.5 16.15 Q16.45 16.2 16.35 16.2 16.3 16.25 16.25 16.25 16.2 16.3 16.15 16.35 16.1 16.35 16.05 16.4 16.0 16.45 16.0 16.45 15.95 16.5 15.95 16.55 15.95 16.55 15.9 16.6 15.9 16.65 15.9 16.65 15.9 16.7 15.9 16.7 15.9 16.75 15.95 16.75 15.95 16.8 15.95 16.8 16.0 16.85 16.0 16.85 16.05 16.9 16.1 16.9 16.1 16.95 16.15 16.95 16.2 16.95 16.25 17.0 16.3 17.0 16.35 17.0 16.8 17.1 20.0 17.1 20.15 17.1 20.25 17.1 20.4 17.1 20.55 17.1 20.65 17.1 20.75 17.1 20.9 17.1 21.0 17.05 21.1 17.05 21.2 17.05 21.3 17.05 21.4 17.0 21.45 17.0 21.55 17.0 21.65 16.95 21.7 16.95 21.95 16.85 22.2 16.8 22.45 16.7 22.65 16.55 22.9 16.45 23.1 16.3 23.3 16.15 23.5 15.95 23.65 15.8 23.85 15.6 24.0 15.4 24.15 15.2 24.3 14.95 24.45 14.7 24.6 14.5 24.7 14.2 24.75 14.05 24.85 13.9 24.9 13.75 24.95 13.6 25.0 13.4 25.05 13.25 25.1 13.1 25.15 12.95 25.15 12.8 25.2 12.65 25.2 12.5 25.25 12.35 25.25 12.2 25.25 12.05 25.25 11.9 25.25 11.75 25.25 11.6 25.25 11.45 25.25 11.35 25.25 11.2 25.25 11.05 25.25 10.95 25.2 10.8 25.2 10.65 25.2 10.55 25.15 10.45 25.15 10.3 25.1 10.2 25.1 10.05 25.05 9.95 25.05 9.85 25.0 9.75 24.95 9.65 24.95 9.55 24.9 9.45 24.9 9.35 24.85 9.25 24.8 9.15 24.8 9.05 24.75 9.0 24.75 8.9 24.7 8.85 24.65 8.75 24.65 8.7 24.6 8.6 24.55 8.55 24.55 8.5 24.5 8.45 24.45 8.4 24.45 8.35 24.4 8.25 24.35 8.2 24.3 8.15 24.25 8.1 24.2 8.0 24.15 7.95 24.1 7.9 24.05 7.8 23.95 7.75 23.9 7.7 23.85 7.6 23.8 7.55 23.7 7.45 23.65 7.4 23.5 7.25 23.4 7.15 23.25 7.05 23.1 6.9 23.0 6.8 22.85 6.7 22.75 6.6 22.6 6.55 22.45 6.45 22.35 6.4 22.2 6.3 22.1 6.25 21.95 6.2 21.8 6.1 21.7 6.05 21.55 6.05 21.4 6.0 21.25 5.95 21.1 5.95 20.95 5.9 20.8 5.85 20.6 5.85 20.45 5.8 20.25 5.8 20.05 5.8 19.85 5.75 19.65 5.75 19.45 5.75 19.2 5.75 18.95 5.7 18.75 5.7 18.5 5.7 16.5 5.75 16.15 5.8 16.1 5.8 16.1 5.85 16.05 5.85 16.05 5.85 16.0 5.9 16.0 5.9 16.0 5.95 15.95 6.0 15.95 6.0 15.95 6.05 15.9 6.1 15.9 6.1 15.9 6.15 15.9 6.2 15.9 6.25 15.9 6.3 L15.9 6.3 M22.05 7.95 Q22.15 8.05 22.2 8.15 22.3 8.25 22.35 8.3 22.4 8.4 22.45 8.5 22.55 8.6 22.6 8.7 22.65 8.8 22.7 8.85 22.75 8.95 22.8 9.05 22.85 9.15 22.85 9.25 22.9 9.3 22.95 9.4 23.0 9.5 23.0 9.6 23.05 9.7 23.05 9.8 23.05 9.9 23.1 10.05 23.1 10.15 23.1 10.3 23.15 10.45 23.15 10.55 23.15 10.7 23.15 10.85 23.15 11.05 23.2 11.2 23.2 11.35 23.2 11.55 23.2 11.7 23.2 11.9 23.2 12.05 23.15 12.2 23.15 12.35 23.15 12.5 23.15 12.65 23.1 12.8 23.1 12.95 23.1 13.1 23.05 13.25 23.05 13.35 23.0 13.5 23.0 13.6 22.95 13.75 22.95 13.85 22.9 13.95 22.85 14.05 22.85 14.2 22.8 14.3 22.75 14.4 22.65 14.5 22.6 14.6 22.55 14.7 22.5 14.8 22.45 14.9 22.35 15.0 22.3 15.1 22.2 15.2 22.1 15.3 22.05 15.4 21.95 15.45 21.85 15.55 21.75 15.6 21.7 15.7 21.6 15.75 21.5 15.8 21.4 15.9 21.35 15.95 21.25 16.0 21.15 16.0 21.05 16.05 21.0 16.1 20.9 16.1 20.8 16.15 20.7 16.15 20.65 16.15 20.55 16.15 20.45 16.15 20.4 16.15 20.3 16.15 20.25 16.15 20.15 16.1 20.1 16.1 20.0 16.1 19.95 16.05 19.9 16.05 19.8 16.0 19.75 15.95 19.7 15.9 19.65 15.9 19.6 15.85 19.55 15.8 19.5 15.75 19.45 15.7 19.4 15.65 19.35 15.55 19.3 15.5 19.3 15.45 19.25 15.4 19.2 15.3 19.2 15.25 19.15 15.15 19.15 15.1 19.1 15.0 19.1 14.95 19.1 14.85 19.05 14.8 19.05 14.7 19.05 14.6 19.0 13.85 19.0 10.9 L19.0 6.7 19.6 6.7 Q19.75 6.7 19.95 6.75 20.1 6.75 20.25 6.8 20.45 6.85 20.6 6.9 20.75 6.95 20.9 7.05 21.05 7.1 21.2 7.2 21.35 7.3 21.5 7.4 21.65 7.55 21.8 7.65 21.95 7.8 22.05 7.95 L22.05 7.95" fill="#ffffff" fill-rule="evenodd" stroke="none"/>
    <path d="M28.45 17.1 Q28.55 17.1 28.6 17.1 28.7 17.1 28.75 17.1 28.85 17.1 28.9 17.1 28.95 17.1 29.0 17.1 29.1 17.05 29.1 17.05 29.15 17.05 29.2 17.05 29.25 17.05 29.25 17.05 29.3 17.0 29.3 17.0 29.35 17.0 29.35 16.95 29.4 16.95 29.4 16.9 29.45 16.85 29.45 16.8 29.45 16.8 29.45 16.75 29.45 16.7 29.45 16.65 29.45 16.6 29.4 16.55 29.4 16.55 29.4 16.5 29.35 16.45 29.35 16.45 29.3 16.4 29.25 16.4 29.25 16.35 29.2 16.35 29.15 16.3 29.1 16.3 29.05 16.25 29.0 16.25 28.95 16.25 28.9 16.2 28.85 16.2 28.8 16.15 28.75 16.15 28.7 16.1 28.65 16.05 28.6 16.0 28.55 15.95 28.5 15.9 28.5 15.85 28.45 15.8 28.4 15.75 28.4 15.7 28.35 15.6 28.35 15.55 28.25 15.25 28.25 13.9 28.25 13.75 28.25 13.6 28.25 13.45 28.3 13.3 28.3 13.15 28.3 13.0 28.3 12.85 28.35 12.75 28.35 12.6 28.4 12.5 28.4 12.4 28.45 12.25 28.45 12.15 28.5 12.05 28.5 12.0 28.55 11.9 28.6 11.75 28.65 11.65 28.75 11.5 28.8 11.4 28.9 11.3 28.95 11.25 29.05 11.15 29.15 11.1 29.25 11.0 29.35 10.95 29.45 10.9 29.55 10.9 29.7 10.85 29.8 10.85 29.95 10.8 30.05 10.8 30.1 10.8 30.15 10.8 30.2 10.8 30.2 10.8 30.25 10.85 30.3 10.85 30.35 10.85 30.4 10.9 30.45 10.9 30.5 10.95 30.55 10.95 30.6 11.0 30.65 11.0 30.7 11.05 30.75 11.1 30.8 11.15 30.85 11.2 30.9 11.25 30.95 11.3 30.95 11.35 31.0 11.4 31.05 11.45 31.1 11.55 31.1 11.6 31.15 11.7 31.15 11.75 31.2 11.85 31.2 11.95 31.25 12.0 31.25 12.1 31.3 12.2 31.3 12.3 31.4 13.3 31.4 13.8 31.4 13.9 31.4 13.95 31.4 14.0 31.4 14.1 31.4 14.15 31.4 14.25 31.4 14.35 31.4 14.4 31.35 14.5 31.35 14.55 31.35 14.65 31.35 14.7 31.35 14.8 31.35 14.9 31.35 14.95 31.3 15.05 31.3 15.25 31.25 15.45 31.25 15.6 31.2 15.75 31.15 15.85 31.15 15.95 31.15 16.0 31.1 16.0 31.1 16.05 31.05 16.05 31.05 16.05 31.05 16.1 31.0 16.1 31.0 16.15 30.95 16.15 30.9 16.15 30.9 16.2 30.85 16.2 30.8 16.2 30.8 16.25 30.75 16.25 30.7 16.25 30.65 16.25 30.6 16.3 30.55 16.3 30.5 16.3 30.45 16.35 30.4 16.35 30.4 16.4 30.35 16.4 30.3 16.45 30.3 16.5 30.3 16.5 30.25 16.55 30.25 16.6 30.25 16.65 30.25 16.7 30.25 16.75 30.25 16.8 30.25 16.85 30.25 16.85 30.25 16.9 30.3 16.95 30.3 16.95 30.3 17.0 30.35 17.0 30.35 17.0 30.4 17.05 30.45 17.05 30.45 17.05 30.5 17.05 30.55 17.05 30.6 17.05 30.65 17.1 30.7 17.1 30.75 17.1 30.85 17.1 30.9 17.1 31.0 17.1 31.05 17.1 31.15 17.1 31.25 17.1 31.6 17.1 31.95 17.1 32.25 17.1 32.5 17.05 32.8 17.05 33.0 17.05 33.25 17.0 33.4 17.0 33.6 16.95 33.75 16.95 33.9 16.9 33.95 16.85 34.05 16.8 34.1 16.75 34.15 16.7 34.15 16.65 34.15 16.65 34.15 16.6 34.15 16.6 34.1 16.55 34.1 16.55 34.05 16.5 34.05 16.5 34.0 16.45 34.0 16.45 33.95 16.4 33.9 16.35 33.85 16.35 33.8 16.3 33.75 16.3 33.7 16.25 33.6 16.2 L33.0 15.9 33.0 13.5 Q33.0 13.3 33.0 13.1 33.0 12.9 32.95 12.7 32.95 12.5 32.95 12.35 32.95 12.2 32.9 12.05 32.9 11.9 32.9 11.75 32.85 11.6 32.85 11.5 32.8 11.35 32.8 11.25 32.75 11.15 32.75 11.05 32.7 10.9 32.6 10.75 32.55 10.6 32.45 10.45 32.35 10.3 32.2 10.2 32.1 10.1 31.95 10.0 31.8 9.95 31.65 9.85 31.5 9.8 31.3 9.75 31.1 9.7 30.9 9.7 30.7 9.65 30.45 9.65 30.35 9.65 30.25 9.65 30.15 9.7 30.05 9.7 29.95 9.7 29.85 9.75 29.75 9.75 29.65 9.8 29.55 9.85 29.45 9.85 29.35 9.9 29.3 9.95 29.2 10.0 29.1 10.05 29.0 10.1 28.9 10.2 L28.35 10.55 28.35 10.05 Q28.35 10.0 28.35 9.95 28.35 9.9 28.35 9.85 28.35 9.8 28.35 9.8 28.3 9.75 28.3 9.7 28.3 9.7 28.3 9.65 28.25 9.65 28.25 9.6 28.2 9.6 28.2 9.55 28.15 9.55 28.15 9.55 28.1 9.5 28.1 9.5 28.05 9.5 28.0 9.45 27.95 9.45 27.95 9.45 27.9 9.45 27.9 9.45 27.85 9.45 27.8 9.45 27.75 9.45 27.75 9.5 27.7 9.5 27.65 9.55 27.6 9.65 26.6 9.8 26.5 9.8 26.35 9.85 26.25 9.85 26.2 9.85 26.1 9.9 26.0 9.9 25.95 9.95 25.85 9.95 25.8 10.0 25.75 10.0 25.75 10.05 25.7 10.1 25.65 10.1 25.65 10.15 25.65 10.2 25.65 10.2 25.65 10.25 25.65 10.25 25.65 10.3 25.65 10.3 25.7 10.35 25.7 10.4 25.75 10.4 25.75 10.45 25.8 10.45 25.8 10.5 25.85 10.5 25.9 10.55 25.95 10.6 26.0 10.6 26.05 10.65 26.1 10.65 26.2 10.75 26.2 10.75 26.25 10.8 26.3 10.8 26.35 10.85 26.4 10.9 26.4 10.9 26.4 10.95 26.45 11.0 26.45 11.0 26.5 11.05 26.5 11.1 26.5 11.1 26.55 11.15 26.55 11.2 26.55 11.25 26.55 11.3 26.6 11.35 26.6 11.4 26.6 11.45 26.6 11.5 26.6 11.55 26.6 11.6 26.6 11.75 26.6 11.9 26.6 12.0 26.65 12.15 26.65 12.25 26.65 12.45 26.65 12.6 26.65 12.8 26.65 13.0 26.65 13.2 26.65 13.4 L26.7 15.9 26.1 16.2 Q26.05 16.25 25.95 16.25 25.9 16.3 25.85 16.35 25.8 16.35 25.75 16.4 25.75 16.45 25.7 16.45 25.65 16.5 25.65 16.5 25.6 16.55 25.6 16.55 25.55 16.6 25.55 16.6 25.55 16.65 25.55 16.65 25.55 16.7 25.6 16.75 25.65 16.8 25.75 16.85 25.85 16.9 25.95 16.95 26.1 16.95 26.3 17.0 26.45 17.0 26.7 17.05 26.9 17.05 27.15 17.05 27.45 17.1 27.75 17.1 28.05 17.1 28.45 17.1 L28.45 17.1" fill="#ffffff" fill-rule="evenodd" stroke="none"/>
  </g>
</svg>
