<?xml version="1.0" encoding="UTF-8" standalone="no"?>
<svg xmlns:ffdec="https://www.free-decompiler.com/flash" xmlns:xlink="http://www.w3.org/1999/xlink" ffdec:objectType="shape" height="26.0px" width="26.0px" xmlns="http://www.w3.org/2000/svg">
  <g transform="matrix(1.0, 0.0, 0.0, 1.0, 0.0, 0.0)">
    <path d="M13.6 18.7 Q13.55 18.7 13.5 18.7 13.45 18.7 13.4 18.7 13.4 18.75 13.35 18.75 13.3 18.75 13.25 18.8 13.2 18.8 13.2 18.8 13.15 18.85 13.1 18.85 13.1 18.9 13.05 18.9 13.0 18.95 13.0 19.0 12.95 19.05 12.95 19.05 12.9 19.1 12.9 19.15 12.85 19.15 12.85 19.2 12.85 19.25 12.8 19.3 12.8 19.3 12.8 19.35 12.8 19.4 12.8 19.45 12.85 19.5 12.85 19.5 12.85 19.55 12.85 19.6 12.85 19.65 12.95 19.7 13.0 19.7 13.1 19.75 13.2 19.8 13.3 19.8 13.45 19.85 13.6 19.85 13.8 19.85 14.0 19.9 14.2 19.9 14.45 19.9 14.7 19.9 15.0 19.95 15.25 19.95 15.6 19.95 15.9 19.95 16.2 19.95 16.5 19.95 16.75 19.9 17.0 19.9 17.2 19.9 17.4 19.85 17.55 19.85 17.75 19.8 17.85 19.8 18.0 19.75 18.1 19.7 18.15 19.7 18.25 19.65 18.3 19.6 18.3 19.55 18.3 19.5 18.3 19.5 18.3 19.45 18.3 19.4 18.3 19.35 18.3 19.3 18.3 19.25 18.25 19.2 18.25 19.15 18.2 19.1 18.15 19.0 18.1 18.95 18.05 18.95 18.0 18.9 17.9 18.85 17.8 18.8 17.75 18.75 17.65 18.7 17.55 18.65 17.45 18.6 17.4 18.6 17.35 18.55 17.3 18.55 17.25 18.55 17.2 18.5 17.15 18.5 17.15 18.45 17.1 18.4 17.05 18.4 17.0 18.35 17.0 18.3 16.95 18.25 16.9 18.2 16.9 18.15 16.85 18.1 16.85 18.05 16.65 17.7 15.7 13.4 14.85 9.1 14.85 8.65 14.85 8.6 14.85 8.55 14.85 8.45 14.9 8.4 14.9 8.35 14.9 8.35 14.95 8.3 14.95 8.25 15.0 8.2 15.05 8.2 15.05 8.2 15.1 8.15 15.15 8.15 15.2 8.15 15.25 8.15 15.3 8.15 15.4 8.15 15.45 8.15 15.5 8.15 15.6 8.15 15.65 8.1 15.7 8.1 15.75 8.1 15.75 8.1 15.8 8.05 15.85 8.05 15.85 8.0 15.85 8.0 15.9 8.0 15.9 7.95 15.9 7.9 15.9 7.9 15.85 7.75 15.85 7.6 15.8 7.45 15.8 7.3 15.75 7.2 15.75 7.1 15.7 6.95 15.7 6.85 15.65 6.75 15.6 6.7 15.6 6.6 15.55 6.55 15.55 6.5 15.5 6.45 15.5 6.4 15.45 6.35 15.4 6.3 15.4 6.3 15.35 6.25 15.35 6.25 15.3 6.2 15.3 6.2 15.25 6.15 15.2 6.15 15.2 6.1 15.15 6.1 15.1 6.1 15.1 6.1 15.05 6.05 15.0 6.05 14.95 6.05 14.95 6.05 14.9 6.05 14.85 6.05 14.8 6.05 14.75 6.1 14.75 6.1 14.7 6.1 14.65 6.15 14.6 6.15 14.55 6.2 14.5 6.2 14.45 6.25 14.4 6.3 14.35 6.3 14.3 6.35 14.25 6.4 14.2 6.45 14.05 6.6 13.9 6.7 13.8 6.85 13.65 6.95 13.5 7.1 13.4 7.25 13.25 7.4 13.1 7.55 13.0 7.7 12.85 7.85 12.75 8.0 12.6 8.15 12.5 8.3 12.35 8.45 12.25 8.65 12.1 8.8 12.0 8.95 11.85 9.1 11.75 9.3 11.65 9.45 11.55 9.6 11.45 9.7 11.4 9.85 11.3 10.0 11.25 10.1 11.15 10.25 11.1 10.35 11.05 10.45 11.0 10.55 10.95 10.65 10.9 10.75 10.9 10.85 L10.2 12.75 9.4 10.7 Q9.3 10.4 9.15 10.15 9.05 9.9 8.95 9.65 8.85 9.45 8.75 9.2 8.6 9.0 8.5 8.8 8.4 8.65 8.3 8.45 8.2 8.3 8.1 8.15 8.0 8.0 7.9 7.9 7.8 7.75 7.7 7.65 7.55 7.45 7.35 7.3 7.2 7.15 7.05 7.0 6.9 6.85 6.7 6.75 6.55 6.65 6.45 6.55 6.3 6.45 6.15 6.4 6.0 6.3 5.9 6.25 5.75 6.25 5.65 6.2 5.5 6.2 5.4 6.2 5.35 6.2 5.35 6.2 5.3 6.2 5.25 6.2 5.25 6.2 5.2 6.25 5.15 6.25 5.15 6.25 5.1 6.25 5.05 6.3 5.05 6.3 5.0 6.35 4.95 6.35 4.9 6.4 4.9 6.4 4.85 6.45 4.8 6.5 4.7 6.6 4.65 6.65 4.6 6.75 4.55 6.8 4.5 6.9 4.5 7.0 4.45 7.1 4.4 7.15 4.4 7.25 4.35 7.35 4.35 7.5 4.3 7.6 4.3 7.7 4.3 7.8 4.3 7.95 4.3 8.0 4.3 8.0 4.3 8.05 4.35 8.05 4.35 8.1 4.4 8.1 4.4 8.1 4.45 8.15 4.5 8.15 4.55 8.15 4.6 8.15 4.65 8.2 4.7 8.2 4.75 8.2 4.85 8.2 4.9 8.2 L4.9 8.2 Q4.95 8.2 5.05 8.2 5.1 8.2 5.15 8.25 5.2 8.25 5.25 8.3 5.25 8.3 5.3 8.35 5.35 8.4 5.35 8.45 5.4 8.5 5.4 8.55 5.4 8.6 5.4 8.65 5.45 8.7 5.45 8.8 5.4 10.05 4.55 13.95 3.7 17.85 3.35 18.3 3.3 18.35 3.25 18.4 3.25 18.45 3.2 18.45 3.15 18.5 3.1 18.55 3.1 18.55 3.05 18.6 3.0 18.6 2.95 18.65 2.95 18.65 2.9 18.7 2.85 18.7 2.8 18.7 2.8 18.7 2.75 18.7 L2.7 18.7 Q2.65 18.7 2.65 18.7 2.6 18.7 2.55 18.7 2.5 18.7 2.5 18.75 2.45 18.75 2.45 18.75 2.4 18.8 2.35 18.8 2.35 18.8 2.3 18.85 2.3 18.85 2.3 18.9 2.25 18.9 2.25 18.95 2.2 19.0 2.2 19.0 2.15 19.05 2.15 19.1 2.1 19.1 2.1 19.15 2.1 19.2 2.1 19.2 2.05 19.25 2.05 19.25 2.05 19.3 2.05 19.3 2.05 19.35 2.05 19.35 2.05 19.4 2.05 19.4 2.05 19.45 2.05 19.45 2.05 19.5 2.1 19.55 2.1 19.55 2.1 19.6 2.1 19.65 2.15 19.65 2.2 19.7 2.3 19.7 2.35 19.75 2.45 19.75 2.5 19.8 2.65 19.8 2.75 19.8 2.85 19.8 3.0 19.85 3.15 19.85 3.3 19.85 3.5 19.85 3.65 19.85 3.85 19.85 5.4 19.85 6.1 19.75 6.15 19.75 6.25 19.7 6.3 19.7 6.35 19.7 6.4 19.65 6.45 19.65 6.5 19.6 6.5 19.6 6.55 19.55 6.55 19.55 6.6 19.5 6.6 19.45 6.65 19.45 6.65 19.4 6.65 19.35 6.65 19.3 6.65 19.25 6.65 19.2 6.65 19.15 6.6 19.1 6.6 19.1 6.55 19.05 6.55 19.0 6.5 18.95 6.45 18.95 6.4 18.9 6.35 18.85 6.3 18.85 6.25 18.8 6.15 18.8 6.1 18.75 6.0 18.75 L5.6 18.6 Q5.55 18.6 5.55 18.55 5.5 18.55 5.5 18.55 5.45 18.5 5.45 18.5 5.4 18.45 5.4 18.4 5.4 18.35 5.35 18.35 5.35 18.3 5.3 18.25 5.3 18.2 5.3 18.15 5.3 18.15 5.3 18.1 5.25 18.05 5.3 18.0 5.3 18.0 5.3 17.95 5.3 17.25 5.75 15.3 L6.9 10.15 7.5 11.5 Q8.25 13.1 9.2 17.3 9.2 17.4 9.25 17.45 9.25 17.55 9.3 17.6 9.3 17.65 9.35 17.7 9.4 17.75 9.4 17.8 9.45 17.85 9.5 17.9 9.55 17.9 9.6 17.95 9.65 17.95 9.7 17.95 9.75 17.95 9.8 17.95 9.85 17.95 9.9 17.95 9.95 17.95 10.0 17.9 10.05 17.9 10.1 17.85 10.15 17.85 10.2 17.8 10.25 17.75 10.25 17.7 10.3 17.65 10.35 17.6 10.35 17.55 10.4 17.45 10.4 17.4 10.45 17.3 11.55 13.0 12.1 12.05 12.15 11.95 12.2 11.85 12.25 11.7 12.3 11.6 12.35 11.5 12.4 11.4 12.5 11.3 12.55 11.2 12.6 11.1 12.65 11.0 12.7 10.9 12.75 10.8 12.8 10.75 12.85 10.65 12.9 10.55 12.95 10.5 13.1 10.65 13.7 14.1 14.25 17.55 14.25 17.85 L14.25 18.25 Q14.25 18.3 14.2 18.35 14.2 18.4 14.15 18.45 14.15 18.5 14.1 18.55 14.05 18.55 14.05 18.6 14.0 18.65 13.95 18.65 13.95 18.65 13.9 18.7 13.85 18.7 13.8 18.7 13.75 18.7 13.7 18.7 L13.6 18.7" fill="#ffffff" fill-rule="evenodd" stroke="none"/>
    <path d="M18.9 19.35 Q18.9 19.4 18.95 19.45 18.95 19.5 19.0 19.55 19.05 19.6 19.15 19.65 19.25 19.7 19.35 19.7 19.5 19.75 19.65 19.75 19.8 19.8 19.95 19.8 20.15 19.8 20.35 19.85 20.55 19.85 20.8 19.85 22.5 19.85 23.35 19.75 23.4 19.75 23.5 19.7 23.55 19.7 23.6 19.65 23.65 19.65 23.7 19.6 23.75 19.6 23.8 19.55 23.85 19.55 23.85 19.5 23.9 19.5 23.9 19.45 23.95 19.4 23.95 19.4 23.95 19.35 23.95 19.3 23.95 19.25 23.95 19.2 23.95 19.2 23.9 19.15 23.9 19.1 23.85 19.05 23.85 19.05 23.8 19.0 23.75 18.95 23.7 18.95 23.65 18.9 23.6 18.85 23.55 18.85 23.45 18.8 23.4 18.75 23.3 18.75 L22.55 18.45 22.55 13.3 Q22.55 12.8 22.55 10.35 22.55 8.2 22.4 7.8 22.4 7.75 22.35 7.7 22.35 7.65 22.3 7.6 22.3 7.55 22.25 7.55 22.25 7.5 22.2 7.5 22.15 7.45 22.15 7.45 22.1 7.4 22.05 7.4 22.0 7.4 21.95 7.4 21.9 7.4 21.85 7.4 21.8 7.4 21.75 7.4 21.7 7.4 21.65 7.4 21.6 7.4 21.55 7.45 21.5 7.45 21.45 7.5 21.4 7.5 21.35 7.55 21.3 7.55 21.3 7.6 21.25 7.6 21.2 7.65 21.15 7.7 21.1 7.75 21.05 7.8 21.05 7.85 21.0 7.9 20.95 7.9 20.9 7.95 20.85 8.0 20.75 8.0 20.7 8.05 20.65 8.05 20.55 8.1 20.5 8.1 20.4 8.1 20.35 8.1 20.25 8.1 20.15 8.15 20.05 8.15 19.95 8.15 19.85 8.15 19.75 8.15 19.7 8.15 19.6 8.15 19.5 8.15 19.45 8.15 19.4 8.2 19.3 8.2 19.25 8.2 19.2 8.2 19.15 8.25 19.1 8.25 19.05 8.3 19.0 8.3 18.95 8.3 18.9 8.35 18.85 8.35 18.85 8.4 18.8 8.4 18.75 8.45 18.75 8.45 18.7 8.5 18.7 8.5 18.7 8.55 18.7 8.6 18.65 8.6 18.65 8.65 18.65 8.65 18.65 8.7 18.65 8.7 18.65 8.75 18.65 8.75 18.65 8.75 18.65 8.8 18.65 8.8 18.65 8.8 18.7 8.85 18.7 8.85 18.7 8.85 18.7 8.9 18.75 8.9 18.75 8.95 18.75 8.95 18.8 9.0 18.8 9.05 18.85 9.05 18.85 9.1 18.9 9.15 18.9 9.15 18.95 9.2 19.0 9.2 19.05 9.2 19.05 9.25 19.1 9.25 19.15 9.25 19.2 9.3 19.25 9.3 19.3 9.3 19.35 9.3 19.4 9.3 19.45 9.3 19.5 9.35 19.55 9.35 19.6 9.35 19.65 9.35 19.7 9.35 19.75 9.35 19.8 9.35 19.85 9.4 19.85 9.4 19.9 9.4 19.95 9.45 20.0 9.45 20.0 9.5 20.05 9.5 20.1 9.55 20.1 9.6 20.15 9.6 20.15 9.65 20.15 9.7 20.2 9.75 20.2 9.8 20.25 9.85 20.25 9.9 20.25 9.95 20.3 10.05 20.3 10.1 20.3 10.15 20.35 10.25 20.35 10.3 20.35 10.4 20.35 10.5 20.35 10.6 20.4 10.65 20.4 10.75 20.4 10.95 20.4 11.6 20.45 12.2 20.45 12.6 20.4 14.05 20.4 15.0 20.35 16.95 20.35 16.95 20.3 17.7 20.3 17.75 20.3 17.8 20.25 18.2 20.25 18.3 20.2 18.35 20.2 18.4 20.2 18.45 20.15 18.5 20.15 18.5 20.0 18.55 20.0 18.55 20.0 18.6 19.65 18.65 19.6 18.65 19.55 18.65 19.5 18.7 19.45 18.7 19.45 18.7 19.4 18.75 19.35 18.75 19.35 18.75 19.3 18.8 19.25 18.8 19.25 18.85 19.2 18.85 19.2 18.9 19.15 18.9 19.15 18.95 19.1 19.0 19.05 19.05 19.05 19.05 19.0 19.1 19.0 19.1 18.95 19.15 18.95 19.2 18.95 19.2 18.9 19.25 18.9 19.25 18.9 19.3 18.9 19.3 18.9 19.35 18.9 19.35 18.9 19.4 L18.9 19.35" fill="#ffffff" fill-rule="evenodd" stroke="none"/>
  </g>
</svg>
