<?xml version="1.0" encoding="UTF-8" standalone="no"?>
<svg xmlns:ffdec="https://www.free-decompiler.com/flash" xmlns:xlink="http://www.w3.org/1999/xlink" ffdec:objectType="shape" height="26.0px" width="26.0px" xmlns="http://www.w3.org/2000/svg">
  <g transform="matrix(1.0, 0.0, 0.0, 1.0, 0.0, 0.0)">
    <path d="M14.05 6.05 Q14.0 6.05 13.95 6.05 13.9 6.05 13.85 6.05 13.85 6.1 13.8 6.1 13.75 6.1 13.7 6.15 13.65 6.15 13.6 6.2 13.55 6.25 13.5 6.25 13.45 6.3 13.4 6.35 13.35 6.4 13.3 6.45 13.15 6.55 13.0 6.7 12.9 6.85 12.75 6.95 12.6 7.1 12.5 7.25 12.35 7.4 12.2 7.55 12.1 7.7 11.95 7.85 11.85 8.0 11.7 8.15 11.6 8.3 11.45 8.45 11.35 8.6 11.25 8.8 11.1 8.95 11.0 9.1 10.9 9.25 10.8 9.4 10.7 9.55 10.6 9.7 10.5 9.85 10.4 9.95 10.35 10.1 10.25 10.2 10.2 10.35 10.15 10.45 10.1 10.55 10.05 10.65 10.0 10.75 10.0 10.85 L9.3 12.75 8.5 10.7 Q8.4 10.4 8.25 10.15 8.15 9.9 8.05 9.65 7.95 9.45 7.85 9.2 7.7 9.0 7.6 8.8 7.5 8.6 7.4 8.45 7.3 8.3 7.2 8.15 7.1 8.0 7.0 7.85 6.9 7.75 6.8 7.65 6.65 7.45 6.45 7.3 6.3 7.15 6.15 7.0 6.0 6.85 5.8 6.75 5.65 6.65 5.55 6.55 5.4 6.45 5.25 6.4 5.1 6.3 5.0 6.25 4.85 6.2 4.75 6.2 4.6 6.15 4.5 6.15 4.45 6.15 4.45 6.15 4.4 6.15 4.35 6.2 4.35 6.2 4.3 6.2 4.25 6.2 4.25 6.25 4.2 6.25 4.15 6.3 4.15 6.3 4.1 6.3 4.05 6.35 4.0 6.4 4.0 6.4 3.95 6.45 3.9 6.5 3.8 6.6 3.75 6.65 3.7 6.75 3.65 6.8 3.6 6.9 3.6 6.95 3.55 7.05 3.5 7.15 3.5 7.25 3.45 7.35 3.45 7.45 3.4 7.55 3.4 7.7 3.4 7.8 3.4 7.9 3.4 7.95 3.4 7.95 3.4 8.0 3.45 8.05 3.45 8.05 3.5 8.1 3.5 8.1 3.55 8.1 3.6 8.15 3.65 8.15 3.7 8.15 3.75 8.15 3.8 8.2 3.85 8.2 3.9 8.2 4.0 8.2 L4.0 8.2 Q4.05 8.2 4.15 8.2 4.2 8.2 4.25 8.25 4.3 8.25 4.35 8.25 4.35 8.3 4.4 8.35 4.45 8.35 4.45 8.4 4.5 8.45 4.5 8.5 4.5 8.6 4.5 8.65 4.55 8.7 4.55 8.8 4.5 10.05 3.65 13.9 2.8 17.8 2.45 18.3 2.4 18.35 2.35 18.4 2.35 18.45 2.3 18.45 2.25 18.5 2.2 18.55 2.2 18.55 2.15 18.6 2.1 18.6 2.05 18.65 2.05 18.65 2.0 18.65 1.95 18.7 1.9 18.7 1.9 18.7 1.85 18.7 L1.8 18.7 Q1.75 18.7 1.75 18.7 1.7 18.7 1.65 18.7 1.6 18.7 1.6 18.7 1.55 18.75 1.55 18.75 1.5 18.75 1.45 18.8 1.45 18.8 1.4 18.85 1.4 18.85 1.4 18.9 1.35 18.9 1.35 18.95 1.3 19.0 1.3 19.05 1.25 19.05 1.25 19.1 1.2 19.15 1.2 19.15 1.15 19.2 1.15 19.25 1.15 19.25 1.15 19.3 1.15 19.3 1.15 19.35 1.15 19.35 1.15 19.4 1.15 19.4 1.15 19.45 1.15 19.5 1.2 19.5 1.2 19.55 1.2 19.6 1.2 19.65 1.25 19.65 1.3 19.7 1.35 19.7 1.45 19.75 1.55 19.75 1.6 19.75 1.75 19.8 1.85 19.8 1.95 19.8 2.1 19.85 2.25 19.85 2.4 19.85 2.6 19.85 2.75 19.85 2.95 19.85 4.5 19.85 5.2 19.75 5.25 19.75 5.35 19.7 5.4 19.7 5.45 19.65 5.5 19.65 5.55 19.6 5.6 19.6 5.6 19.55 5.65 19.55 5.65 19.5 5.7 19.5 5.7 19.45 5.75 19.4 5.75 19.4 5.75 19.35 5.75 19.3 5.75 19.25 5.75 19.2 5.75 19.15 5.7 19.1 5.7 19.05 5.65 19.05 5.65 19.0 5.6 18.95 5.55 18.9 5.5 18.9 5.45 18.85 5.4 18.85 5.35 18.8 5.25 18.75 5.2 18.75 5.1 18.7 L4.7 18.6 Q4.65 18.6 4.65 18.55 4.6 18.55 4.6 18.5 4.55 18.5 4.55 18.45 4.5 18.45 4.5 18.4 4.5 18.35 4.45 18.3 4.45 18.25 4.4 18.2 4.4 18.2 4.4 18.15 4.4 18.1 4.4 18.1 4.35 18.05 4.4 18.0 4.4 17.95 4.4 17.95 4.4 17.25 4.85 15.3 L6.0 10.15 6.6 11.5 Q7.35 13.05 8.3 17.3 8.3 17.4 8.35 17.45 8.35 17.55 8.4 17.6 8.4 17.65 8.45 17.7 8.5 17.75 8.5 17.8 8.55 17.85 8.6 17.85 8.65 17.9 8.7 17.9 8.75 17.95 8.8 17.95 8.85 17.95 8.9 17.95 8.95 17.95 9.0 17.95 9.05 17.95 9.1 17.9 9.15 17.9 9.2 17.85 9.25 17.85 9.3 17.8 9.35 17.75 9.35 17.7 9.4 17.65 9.45 17.6 9.45 17.55 9.5 17.45 9.5 17.4 9.55 17.3 10.65 13.0 11.2 12.05 11.25 11.95 11.3 11.8 11.35 11.7 11.4 11.6 11.45 11.5 11.5 11.4 11.6 11.3 11.65 11.2 11.7 11.1 11.75 11.0 11.8 10.9 11.85 10.8 11.9 10.7 11.95 10.65 12.0 10.55 12.05 10.45 12.2 10.65 12.8 14.05 13.35 17.6 13.35 17.85 L13.35 18.25 Q13.35 18.3 13.3 18.35 13.3 18.4 13.25 18.45 13.25 18.5 13.2 18.55 13.15 18.55 13.15 18.6 13.1 18.6 13.05 18.65 13.05 18.65 13.0 18.65 12.95 18.7 12.9 18.7 12.85 18.7 12.8 18.7 L12.7 18.7 Q12.65 18.7 12.6 18.7 12.55 18.7 12.5 18.7 12.5 18.75 12.45 18.75 12.4 18.75 12.35 18.75 12.3 18.8 12.3 18.8 12.25 18.85 12.2 18.85 12.2 18.9 12.15 18.9 12.1 18.95 12.1 18.95 12.05 19.0 12.05 19.05 12.0 19.05 12.0 19.1 11.95 19.15 11.95 19.2 11.95 19.25 11.9 19.25 11.9 19.3 11.9 19.35 11.9 19.4 11.9 19.45 11.95 19.45 11.95 19.5 11.95 19.55 11.95 19.6 11.95 19.65 12.05 19.65 12.1 19.7 12.2 19.75 12.3 19.75 12.4 19.8 12.55 19.8 12.7 19.85 12.9 19.85 13.1 19.9 13.3 19.9 13.55 19.9 13.8 19.9 14.1 19.9 14.35 19.9 14.7 19.9 15.0 19.9 15.3 19.9 15.6 19.9 15.85 19.9 16.1 19.9 16.3 19.85 16.5 19.85 16.65 19.85 16.85 19.8 16.95 19.8 17.1 19.75 17.2 19.7 17.25 19.7 17.35 19.65 17.4 19.6 17.4 19.55 17.4 19.5 17.4 19.45 17.4 19.45 17.4 19.35 17.4 19.3 17.4 19.25 17.4 19.2 17.35 19.15 17.35 19.1 17.3 19.05 17.25 19.0 17.2 18.95 17.15 18.9 17.1 18.85 17.0 18.8 16.9 18.75 16.85 18.75 16.75 18.7 16.65 18.65 16.55 18.6 16.5 18.6 16.45 18.55 16.4 18.55 16.35 18.55 16.3 18.5 16.25 18.45 16.2 18.45 16.2 18.4 16.15 18.35 16.1 18.35 16.1 18.3 16.05 18.25 16.0 18.2 16.0 18.15 15.95 18.1 15.95 18.05 15.75 17.7 14.85 13.4 13.95 9.2 13.95 8.65 13.95 8.6 13.95 8.5 13.95 8.45 14.0 8.4 14.0 8.35 14.0 8.3 14.05 8.3 14.05 8.25 14.1 8.2 14.15 8.2 14.15 8.15 14.2 8.15 14.25 8.15 14.3 8.1 14.35 8.1 14.4 8.1 14.5 8.1 14.55 8.1 14.6 8.1 14.7 8.1 14.75 8.1 14.8 8.1 14.85 8.1 14.85 8.05 14.9 8.05 14.95 8.05 14.95 8.0 14.95 8.0 15.0 7.95 15.0 7.95 15.0 7.9 15.0 7.9 14.95 7.75 14.95 7.6 14.9 7.45 14.9 7.3 14.85 7.2 14.85 7.05 14.8 6.95 14.8 6.85 14.75 6.75 14.7 6.7 14.7 6.6 14.65 6.55 14.65 6.45 14.6 6.4 14.6 6.35 14.55 6.35 14.55 6.3 14.5 6.3 14.45 6.25 14.45 6.2 14.4 6.2 14.4 6.15 14.35 6.15 14.3 6.1 14.3 6.1 14.25 6.1 14.2 6.1 14.2 6.05 14.15 6.05 14.1 6.05 14.05 6.05 14.05 6.05 L14.05 6.05 M21.1 7.5 Q20.95 7.5 20.8 7.5 20.7 7.55 20.55 7.55 20.4 7.55 20.3 7.6 20.15 7.6 20.05 7.65 19.9 7.7 19.8 7.75 19.65 7.8 19.55 7.85 19.45 7.9 19.3 7.95 19.2 8.05 19.1 8.1 18.9 8.2 18.75 8.35 18.6 8.45 18.5 8.6 18.35 8.7 18.25 8.8 18.15 8.95 18.05 9.05 17.95 9.2 17.9 9.3 17.85 9.45 17.8 9.55 17.75 9.7 17.75 9.8 17.7 9.95 17.7 10.05 17.7 10.1 17.7 10.1 17.7 10.15 17.7 10.2 17.7 10.2 17.7 10.25 17.7 10.3 17.7 10.3 17.75 10.35 17.75 10.4 17.75 10.45 17.75 10.45 17.75 10.5 17.75 10.5 17.8 10.55 17.8 10.6 17.85 10.7 17.9 10.8 17.95 10.9 18.0 11.0 18.05 11.1 18.15 11.15 18.2 11.25 18.3 11.3 18.35 11.35 18.45 11.4 18.55 11.45 18.65 11.45 18.75 11.5 18.85 11.5 19.0 11.5 19.1 11.5 19.15 11.5 19.15 11.5 19.2 11.5 19.25 11.5 19.25 11.5 19.3 11.5 19.35 11.5 19.4 11.45 19.4 11.45 19.45 11.45 19.5 11.45 19.55 11.4 19.6 11.4 19.65 11.4 19.65 11.35 19.7 11.35 19.75 11.3 19.8 11.3 19.85 11.25 19.85 11.2 19.9 11.15 19.95 11.1 19.95 11.05 20.0 11.0 20.0 10.95 20.05 10.9 20.05 10.85 20.05 10.75 20.05 10.7 20.1 10.6 20.1 10.55 20.1 10.45 20.1 10.35 20.1 10.3 20.1 10.25 20.05 10.15 20.05 10.1 20.05 10.05 20.05 9.95 20.0 9.9 20.0 9.85 19.95 9.8 19.95 9.75 19.95 9.7 19.9 9.65 19.9 9.65 19.85 9.6 19.8 9.55 19.8 9.55 19.75 9.5 19.75 9.45 19.75 9.45 19.75 9.4 19.75 9.35 19.75 9.35 19.75 9.3 19.75 9.3 19.75 9.25 19.8 9.25 19.8 9.2 19.8 9.2 19.85 9.15 19.9 9.1 19.9 9.1 19.95 9.05 20.0 9.0 20.0 9.0 20.05 8.95 20.1 8.9 20.15 8.9 20.2 8.85 20.25 8.8 20.3 8.75 20.35 8.75 20.4 8.7 20.45 8.7 20.5 8.65 20.55 8.65 20.6 8.6 20.65 8.6 20.7 8.6 20.75 8.55 20.8 8.55 20.85 8.55 20.9 8.55 20.95 8.55 21.0 8.55 21.05 8.55 21.1 8.55 21.15 8.6 21.2 8.6 21.25 8.65 21.3 8.65 21.4 8.7 21.45 8.75 21.5 8.75 21.55 8.8 21.65 8.85 21.7 8.95 21.75 9.0 21.85 9.05 21.9 9.1 21.95 9.2 22.05 9.25 22.1 9.35 22.15 9.45 22.2 9.55 22.25 9.65 22.3 9.75 22.35 9.9 22.35 10.0 22.4 10.15 22.45 10.25 22.45 10.4 22.45 10.55 22.45 10.7 22.5 10.85 22.5 11.0 22.5 11.05 22.5 11.1 22.5 11.15 22.45 11.2 22.45 11.25 22.45 11.35 22.45 11.4 22.4 11.45 22.4 11.5 22.4 11.55 22.35 11.6 22.35 11.7 22.3 11.75 22.3 11.8 22.25 11.85 22.25 11.95 21.9 12.55 20.3 14.15 19.95 14.5 19.7 14.85 19.4 15.15 19.15 15.5 18.9 15.8 18.7 16.1 18.5 16.4 18.35 16.7 18.2 17.0 18.05 17.25 17.95 17.55 17.85 17.8 17.75 18.1 17.7 18.35 17.7 18.6 17.7 18.8 17.7 18.95 17.7 19.05 17.7 19.2 17.7 19.3 17.75 19.4 17.75 19.5 17.75 19.6 17.8 19.65 17.8 19.75 17.85 19.8 17.9 19.85 17.9 19.9 17.95 19.9 18.0 19.95 18.05 19.95 18.1 19.95 18.15 19.95 18.15 19.95 18.2 19.95 18.25 19.95 18.3 19.9 18.3 19.9 18.35 19.9 18.4 19.9 18.45 19.85 18.5 19.85 18.55 19.8 18.6 19.8 18.65 19.75 18.7 19.75 18.75 19.7 18.8 19.65 18.85 19.6 18.9 19.6 18.95 19.55 19.0 19.55 19.05 19.5 19.1 19.5 19.15 19.45 19.2 19.45 19.25 19.4 19.3 19.4 19.35 19.4 19.4 19.4 19.45 19.4 19.5 19.4 19.55 19.35 19.6 19.35 19.9 19.4 21.15 19.65 21.3 19.7 21.45 19.7 21.55 19.75 21.7 19.75 21.8 19.8 21.95 19.8 22.05 19.85 22.15 19.85 22.25 19.85 22.35 19.9 22.45 19.9 22.55 19.9 22.65 19.9 22.7 19.9 22.8 19.9 22.85 19.9 22.9 19.9 23.0 19.9 23.05 19.9 23.1 19.9 23.15 19.9 23.25 19.9 23.3 19.9 23.35 19.9 23.4 19.9 23.45 19.85 23.5 19.85 23.55 19.85 23.55 19.85 23.6 19.85 23.65 19.8 23.7 19.8 23.85 19.75 23.95 19.65 24.1 19.55 24.2 19.45 24.3 19.4 24.4 19.25 24.5 19.15 24.55 19.05 24.65 18.9 24.7 18.75 24.75 18.6 24.8 18.45 24.8 18.3 24.85 18.15 24.85 17.95 24.85 17.75 24.85 17.55 24.85 17.4 24.85 17.25 24.8 17.1 24.8 16.95 24.75 16.8 24.75 16.7 24.7 16.6 24.65 16.5 24.65 16.45 24.6 16.35 24.5 16.3 24.45 16.25 24.4 16.25 24.35 16.25 24.25 16.25 24.2 16.25 24.2 16.25 24.15 16.25 24.1 16.25 24.1 16.3 24.05 16.3 24.0 16.3 24.0 16.35 23.95 16.35 23.95 16.4 23.9 16.45 23.85 16.45 23.85 16.5 23.8 16.55 23.8 16.6 23.8 16.65 23.75 16.7 23.75 16.75 23.7 16.8 23.7 16.85 23.65 16.9 23.65 16.95 23.6 16.95 23.55 17.0 23.55 17.05 23.5 17.05 23.45 17.1 23.45 17.1 23.4 17.15 23.35 17.15 23.3 17.15 23.25 17.2 23.2 17.2 23.15 17.2 23.1 17.25 23.05 17.25 23.0 17.25 22.95 17.25 22.9 17.25 22.8 17.25 22.75 17.25 22.65 17.25 22.6 17.3 22.5 17.3 22.4 17.3 22.3 17.3 22.2 17.3 22.1 17.3 21.3 17.3 19.75 17.5 19.7 17.5 19.7 17.5 19.65 17.55 19.6 17.55 19.6 17.55 19.55 17.6 19.5 17.6 19.5 17.65 19.45 17.7 19.4 17.7 19.4 17.65 19.4 17.6 19.45 17.55 19.45 17.5 19.45 17.45 19.45 17.45 19.5 17.4 19.5 17.35 19.5 17.3 19.5 17.3 19.55 17.25 19.55 17.2 19.55 17.2 19.55 17.15 19.6 17.15 19.6 17.1 20.0 16.55 21.0 15.55 L22.25 14.3 Q22.5 14.05 22.75 13.8 22.95 13.6 23.15 13.35 23.35 13.15 23.55 12.95 23.75 12.75 23.9 12.6 24.05 12.4 24.15 12.25 24.3 12.1 24.4 11.95 24.5 11.8 24.55 11.65 24.65 11.55 24.7 11.45 24.7 11.4 24.75 11.35 24.75 11.3 24.75 11.25 24.8 11.2 24.8 11.15 24.8 11.1 24.8 11.05 24.85 11.0 24.85 10.95 24.85 10.85 24.85 10.8 24.85 10.75 24.85 10.7 24.85 10.65 24.85 10.55 24.85 10.5 24.85 10.4 24.85 10.35 24.85 10.3 24.8 10.2 24.8 10.15 24.8 10.05 24.75 10.0 24.75 9.9 24.7 9.85 24.7 9.75 24.65 9.65 24.6 9.6 24.6 9.5 24.55 9.4 24.5 9.3 24.4 9.15 24.35 9.0 24.25 8.85 24.1 8.7 24.0 8.6 23.9 8.45 23.75 8.35 23.6 8.25 23.45 8.15 23.3 8.05 23.1 7.95 22.95 7.9 22.75 7.8 22.55 7.75 22.35 7.7 22.1 7.65 22.05 7.65 21.95 7.6 21.9 7.6 21.85 7.6 21.8 7.6 21.7 7.55 21.65 7.55 21.6 7.55 21.55 7.55 21.45 7.55 21.4 7.55 21.35 7.55 21.3 7.5 21.2 7.5 21.15 7.5 21.1 7.5 L21.1 7.5" fill="#ffffff" fill-rule="evenodd" stroke="none"/>
  </g>
</svg>
