<?xml version="1.0" encoding="UTF-8" standalone="no"?>
<svg xmlns:ffdec="https://www.free-decompiler.com/flash" xmlns:xlink="http://www.w3.org/1999/xlink" ffdec:objectType="shape" height="26.0px" width="26.0px" xmlns="http://www.w3.org/2000/svg">
  <g transform="matrix(1.0, 0.0, 0.0, 1.0, 0.0, 0.0)">
    <path d="M7.05 0.75 L7.05 24.9 7.75 24.95 8.1 24.95 9.25 24.95 9.35 24.4 10.3 24.95 14.65 24.95 15.5 24.1 15.6 24.95 16.85 24.95 17.55 24.95 18.3 24.95 Q18.55 24.95 18.6 24.95 18.65 24.9 18.7 24.85 18.7 24.8 18.7 24.55 L18.7 23.8 18.7 9.95 17.95 9.45 18.7 9.1 18.7 7.1 18.45 7.5 18.7 6.3 18.7 5.55 18.1 4.2 18.7 4.2 18.7 3.35 17.95 2.55 18.7 2.85 18.7 1.2 Q18.7 1.15 18.7 1.15 18.7 0.95 18.7 0.9 18.65 0.8 18.6 0.8 18.5 0.8 18.3 0.75 L12.45 0.75 11.75 0.75 11.5 1.25 10.95 0.75 9.55 0.75 8.05 0.75 7.55 1.35 7.35 0.75 7.05 0.75" fill="#000000" fill-rule="evenodd" stroke="none"/>
    <path d="M18.7 1.05 Q18.7 1.05 18.7 1.1 18.7 1.15 18.7 1.15 18.7 1.15 18.7 1.15 18.7 1.2 18.7 1.2 L18.7 2.85 17.95 2.55 18.7 3.35 18.7 4.2 18.1 4.2 18.7 5.55 18.7 6.3 18.45 7.5 18.7 7.1 18.7 9.1 17.95 9.45 18.3 9.7 18.95 9.35 18.95 7.4 18.75 7.75 18.95 6.55 18.95 5.85 18.35 4.45 18.95 4.5 18.95 3.65 18.25 2.85 18.95 3.1 18.95 1.45 Q18.95 1.45 18.95 1.45 18.95 1.35 18.95 1.3 18.95 1.2 18.95 1.15 18.95 1.15 18.9 1.1 18.9 1.1 18.85 1.05 18.8 1.05 18.7 1.05 L18.7 1.05 M18.7 10.05 L18.7 23.8 18.7 24.55 Q18.7 24.8 18.7 24.85 18.65 24.95 18.6 24.95 18.55 24.95 18.3 24.95 L17.55 24.95 16.85 24.95 15.85 24.95 15.85 25.25 17.1 25.25 17.85 25.25 18.55 25.25 Q18.8 25.25 18.85 25.25 18.95 25.2 18.95 25.15 18.95 25.1 18.95 24.8 L18.95 24.1 18.95 10.2 18.7 10.05 M15.5 24.1 L14.65 24.95 10.3 24.95 9.35 24.4 9.25 24.95 8.1 24.95 7.75 24.95 7.05 24.9 7.05 25.15 8.05 25.25 8.35 25.25 9.5 25.25 9.6 24.7 10.55 25.25 14.9 25.25 15.55 24.6 15.5 24.1" fill="#ffffff" fill-rule="evenodd" stroke="none"/>
    <path d="M15.2 9.7 Q15.15 9.7 15.1 9.7 15.05 9.7 15.0 9.7 14.95 9.75 14.95 9.75 14.9 9.75 14.85 9.8 14.85 9.8 14.8 9.85 14.75 9.9 14.75 9.95 14.7 9.95 14.7 10.0 14.7 10.05 14.7 10.1 14.7 10.15 14.7 10.15 14.7 10.2 14.7 10.25 14.7 10.3 14.75 10.3 14.8 10.3 14.85 10.35 14.9 10.35 15.0 10.4 15.1 10.4 15.2 10.4 15.3 10.4 15.45 10.45 15.6 10.45 15.75 10.45 15.9 10.45 16.05 10.45 16.25 10.45 16.45 10.45 16.65 10.45 16.85 10.45 17.05 10.45 17.2 10.45 17.35 10.45 17.5 10.45 17.6 10.4 17.7 10.4 17.85 10.4 17.9 10.35 18.0 10.35 18.05 10.35 18.1 10.3 18.15 10.3 18.2 10.25 18.2 10.2 18.2 10.2 18.2 10.1 18.2 10.05 18.2 10.05 18.2 10.0 18.2 9.95 18.15 9.95 18.15 9.9 18.1 9.9 18.1 9.85 18.05 9.8 18.0 9.8 17.95 9.75 17.9 9.75 17.85 9.7 17.8 9.65 17.7 9.65 17.65 9.6 17.6 9.6 17.6 9.6 17.55 9.6 17.55 9.55 17.5 9.55 17.45 9.55 17.45 9.5 17.4 9.5 17.4 9.45 17.4 9.45 17.35 9.4 17.35 9.4 17.3 9.35 17.3 9.35 17.3 9.3 17.25 9.25 17.15 9.0 16.55 6.3 16.0 3.55 16.0 3.25 16.0 3.2 16.0 3.15 16.0 3.15 16.0 3.1 16.0 3.05 16.05 3.05 16.05 3.0 16.05 3.0 16.1 2.95 16.1 2.95 16.15 2.95 16.15 2.9 16.2 2.9 16.2 2.9 16.25 2.9 16.25 2.9 16.3 2.9 16.35 2.9 16.4 2.9 16.45 2.9 16.5 2.9 16.5 2.9 16.55 2.9 16.55 2.85 16.6 2.85 16.6 2.85 16.65 2.85 16.65 2.8 16.65 2.8 16.65 2.8 16.65 2.75 16.65 2.75 16.65 2.65 16.6 2.55 16.6 2.45 16.6 2.4 16.55 2.3 16.55 2.25 16.55 2.15 16.5 2.1 16.5 2.05 16.5 2.0 16.45 1.95 16.45 1.9 16.45 1.85 16.4 1.8 16.4 1.8 16.4 1.75 16.35 1.7 16.35 1.7 16.3 1.65 16.25 1.65 16.25 1.6 16.2 1.6 16.15 1.6 16.1 1.6 16.1 1.6 16.05 1.6 16.0 1.6 16.0 1.6 15.95 1.6 15.95 1.6 15.9 1.6 15.9 1.6 15.85 1.65 15.8 1.65 15.8 1.65 15.75 1.65 15.75 1.7 15.7 1.7 15.65 1.75 15.65 1.75 15.6 1.8 15.55 1.8 15.45 1.9 15.4 1.95 15.3 2.05 15.2 2.15 15.1 2.25 15.05 2.35 14.95 2.45 14.9 2.5 14.8 2.6 14.7 2.7 14.65 2.8 14.55 2.9 14.45 3.0 14.4 3.1 14.3 3.2 14.25 3.35 14.15 3.45 14.1 3.55 14.0 3.65 13.95 3.75 13.9 3.85 13.85 3.9 13.8 4.0 13.7 4.1 13.7 4.15 13.65 4.25 13.6 4.35 13.55 4.4 13.5 4.45 13.5 4.55 13.45 4.6 13.45 4.65 L13.0 5.85 12.5 4.55 Q12.45 4.35 12.35 4.2 12.3 4.05 12.2 3.9 12.15 3.75 12.05 3.6 12.0 3.45 11.95 3.35 11.85 3.2 11.8 3.1 11.75 3.0 11.65 2.9 11.6 2.8 11.55 2.75 11.5 2.65 11.4 2.6 11.3 2.5 11.2 2.4 11.1 2.25 11.0 2.2 10.9 2.1 10.8 2.0 10.7 1.95 10.6 1.9 10.5 1.85 10.4 1.8 10.35 1.75 10.25 1.7 10.15 1.7 10.1 1.65 10.0 1.65 9.95 1.65 9.9 1.65 9.9 1.65 9.85 1.65 9.8 1.7 9.75 1.7 9.75 1.7 9.7 1.75 9.65 1.75 9.6 1.8 9.6 1.8 9.55 1.85 9.5 1.9 9.45 1.95 9.45 2.0 9.4 2.05 9.4 2.1 9.35 2.15 9.3 2.2 9.3 2.3 9.3 2.35 9.25 2.4 9.25 2.5 9.25 2.55 9.25 2.65 9.25 2.7 9.25 2.8 9.25 2.8 9.25 2.85 9.25 2.85 9.25 2.85 9.25 2.85 9.3 2.9 9.3 2.9 9.35 2.9 9.35 2.9 9.4 2.9 9.4 2.95 9.45 2.95 9.5 2.95 9.55 2.95 9.55 2.95 9.6 2.95 L9.65 2.95 Q9.7 2.95 9.7 2.95 9.75 2.95 9.8 2.95 9.8 3.0 9.85 3.0 9.85 3.0 9.9 3.05 9.9 3.05 9.9 3.1 9.95 3.1 9.95 3.15 9.95 3.2 9.95 3.25 9.95 3.3 9.95 3.35 9.95 4.1 9.4 6.6 8.85 9.15 8.65 9.4 8.6 9.45 8.6 9.45 8.55 9.5 8.5 9.55 8.5 9.55 8.45 9.6 8.45 9.6 8.4 9.6 8.35 9.65 8.35 9.65 8.3 9.65 8.3 9.65 8.25 9.7 8.25 9.7 8.2 9.7 8.2 9.7 L8.2 9.7 Q8.15 9.7 8.1 9.7 8.05 9.7 8.05 9.7 8.0 9.75 7.95 9.75 7.95 9.8 7.9 9.85 7.85 9.9 7.85 9.9 7.85 9.95 7.8 10.0 7.8 10.0 7.8 10.05 7.8 10.05 7.8 10.1 7.8 10.15 7.8 10.2 7.8 10.2 7.85 10.25 7.85 10.25 7.9 10.3 7.9 10.3 7.95 10.3 8.0 10.35 8.05 10.35 8.1 10.35 8.15 10.35 8.25 10.4 8.3 10.4 8.4 10.4 8.5 10.4 8.6 10.4 8.7 10.4 8.85 10.4 8.95 10.4 9.45 10.4 9.85 10.4 10.15 10.4 10.35 10.35 10.4 10.35 10.45 10.3 10.5 10.3 10.55 10.3 10.6 10.3 10.6 10.25 10.65 10.25 10.65 10.2 10.7 10.2 10.7 10.15 10.7 10.15 10.75 10.1 10.75 10.1 10.75 10.05 10.75 10.05 10.75 10.0 10.75 10.0 10.75 9.95 10.75 9.95 10.7 9.9 10.7 9.9 10.7 9.9 10.65 9.85 10.65 9.85 10.6 9.8 10.6 9.8 10.55 9.8 10.5 9.75 10.45 9.75 10.4 9.75 10.4 9.7 10.3 9.7 L10.1 9.6 Q10.05 9.6 10.0 9.55 10.0 9.55 9.95 9.5 9.95 9.5 9.9 9.45 9.9 9.4 9.85 9.35 9.85 9.3 9.85 9.25 9.85 9.25 9.85 9.2 9.85 8.7 10.15 7.5 L10.9 4.2 11.3 5.05 Q11.8 6.1 12.35 8.8 12.35 8.85 12.4 8.9 12.4 8.95 12.4 9.0 12.45 9.0 12.45 9.05 12.5 9.1 12.5 9.1 12.55 9.15 12.55 9.15 12.6 9.15 12.6 9.2 12.65 9.2 12.7 9.2 12.75 9.2 12.75 9.2 12.8 9.2 12.8 9.2 12.85 9.2 12.9 9.2 12.9 9.15 12.95 9.15 13.0 9.15 13.0 9.1 13.05 9.05 13.05 9.05 13.1 9.0 13.1 8.95 13.1 8.95 13.15 8.9 13.15 8.85 13.15 8.8 13.9 6.0 14.2 5.4 14.7 4.5 14.75 4.4 14.85 4.5 15.25 6.7 15.6 8.95 15.6 9.15 L15.6 9.4 Q15.6 9.45 15.55 9.45 15.55 9.5 15.55 9.5 15.55 9.55 15.5 9.55 15.5 9.6 15.45 9.6 15.45 9.65 15.45 9.65 15.4 9.65 15.4 9.65 15.35 9.65 15.3 9.7 15.3 9.7 15.25 9.7 L15.2 9.7" fill="#ffffff" fill-rule="evenodd" stroke="none"/>
    <path d="M12.65 22.35 Q12.55 22.35 12.5 22.35 12.4 22.35 12.35 22.35 12.3 22.3 12.2 22.3 12.15 22.3 12.1 22.3 12.05 22.25 12.0 22.25 11.95 22.2 11.9 22.2 11.85 22.15 11.8 22.15 11.8 22.1 11.75 22.05 11.7 22.05 11.7 22.0 11.65 21.95 11.6 21.9 11.6 21.85 11.55 21.8 11.5 21.75 11.5 21.7 11.45 21.65 11.45 21.55 11.4 21.5 11.35 21.4 11.35 21.3 11.3 21.2 11.3 21.1 11.25 21.0 11.2 20.9 11.2 20.8 11.15 20.7 11.1 20.65 11.1 20.55 11.05 20.5 11.0 20.4 11.0 20.35 10.95 20.3 10.9 20.2 10.85 20.15 10.8 20.1 10.8 20.05 10.75 20.05 10.7 20.0 10.65 19.95 10.6 19.9 10.55 19.9 10.5 19.85 10.5 19.85 10.45 19.8 10.4 19.8 10.35 19.75 10.3 19.75 10.3 19.75 10.25 19.75 10.2 19.7 10.2 19.7 10.15 19.7 10.15 19.7 10.1 19.7 10.05 19.7 10.0 19.7 10.0 19.7 9.95 19.7 9.9 19.7 9.9 19.75 9.85 19.75 9.8 19.75 9.8 19.8 9.75 19.8 9.7 19.8 9.65 19.85 9.6 19.9 9.55 19.95 9.5 20.0 9.45 20.05 9.4 20.1 9.35 20.15 9.35 20.2 9.3 20.3 9.3 20.35 9.25 20.45 9.25 20.5 9.2 20.6 9.2 20.7 9.2 20.75 9.2 20.85 9.2 20.95 9.2 21.05 9.2 21.15 9.25 21.2 9.25 21.3 9.3 21.4 9.3 21.5 9.35 21.6 9.4 21.65 9.45 21.75 9.5 21.85 9.55 21.95 9.6 22.0 9.65 22.1 9.7 22.2 9.8 22.25 9.85 22.35 9.95 22.4 10.0 22.5 10.1 22.55 10.15 22.6 10.25 22.7 10.3 22.75 10.4 22.8 10.5 22.85 10.6 22.9 10.7 22.95 10.8 23.0 10.85 23.05 10.95 23.1 11.05 23.15 11.2 23.2 11.3 23.25 11.4 23.25 11.5 23.3 11.6 23.3 11.7 23.35 11.8 23.35 11.9 23.4 12.0 23.4 12.1 23.4 12.2 23.45 12.25 23.45 12.35 23.45 12.45 23.45 12.55 23.45 12.65 23.45 12.7 23.45 12.9 23.45 13.1 23.45 13.25 23.45 13.45 23.4 13.65 23.35 13.8 23.35 13.95 23.3 14.15 23.25 14.3 23.15 14.45 23.1 14.6 23.0 14.75 22.95 14.9 22.85 15.05 22.75 15.2 22.65 15.35 22.5 15.55 22.35 15.7 22.2 15.85 22.0 16.0 21.85 16.1 21.7 16.25 21.5 16.35 21.3 16.45 21.15 16.5 20.95 16.6 20.75 16.65 20.6 16.7 20.4 16.75 20.2 16.75 20.0 16.8 19.8 16.8 19.6 16.8 19.4 16.8 19.2 16.75 19.0 16.75 18.85 16.7 18.65 16.65 18.5 16.6 18.3 16.5 18.15 16.45 18.0 16.35 17.85 16.3 17.7 16.2 17.55 16.1 17.4 15.95 17.3 15.85 17.15 15.7 17.05 15.55 16.9 15.4 16.8 15.25 16.7 15.15 16.6 15.05 16.5 14.95 16.45 14.9 16.4 14.8 16.35 14.75 16.35 14.75 16.35 14.7 16.35 14.65 16.35 14.6 16.3 14.6 16.3 14.6 16.3 14.6 16.25 14.6 16.2 14.6 16.15 14.65 16.1 14.7 16.05 14.75 15.95 14.8 15.9 14.9 15.8 15.0 15.65 15.15 15.5 15.25 15.35 15.4 15.2 15.5 15.05 15.6 14.9 15.7 14.7 15.8 14.55 15.85 14.4 15.95 14.25 16.0 14.1 16.05 13.95 16.05 13.8 16.1 13.65 16.15 13.5 16.15 13.35 16.15 13.2 16.15 13.15 16.15 13.1 16.15 13.0 16.15 12.95 16.1 12.9 16.1 12.85 16.1 12.75 16.1 12.7 16.05 12.65 16.05 12.6 16.05 12.55 16.0 12.45 16.0 12.4 15.95 12.35 15.95 12.3 15.9 12.25 15.85 12.15 15.75 12.05 15.7 11.95 15.6 11.85 15.5 11.75 15.4 11.65 15.3 11.6 15.15 11.5 15.0 11.45 14.85 11.4 14.7 11.3 14.55 11.25 14.4 11.2 14.2 11.2 14.0 11.15 13.8 11.1 13.2 11.05 13.0 11.05 12.85 11.05 12.75 11.05 12.65 11.05 12.5 11.1 12.4 11.1 12.25 11.1 12.15 11.15 12.05 11.2 11.9 11.2 11.8 11.25 11.7 11.3 11.6 11.35 11.5 11.35 11.4 11.45 11.25 11.5 11.2 11.55 11.05 11.65 10.9 11.75 10.75 11.85 10.65 11.95 10.5 12.05 10.4 12.2 10.3 12.3 10.25 12.4 10.15 12.55 10.1 12.65 10.05 12.8 10.0 12.95 9.95 13.05 9.9 13.2 9.9 13.35 9.9 13.5 9.9 13.55 9.9 13.6 9.9 13.65 9.95 13.7 9.95 13.75 9.95 13.8 10.0 13.85 10.0 13.9 10.05 13.9 10.05 13.95 10.1 14.0 10.15 14.05 10.2 14.1 10.25 14.15 10.3 14.2 10.35 14.25 10.4 14.3 10.45 14.35 10.5 14.4 10.55 14.45 10.6 14.45 10.65 14.5 10.7 14.55 10.75 14.55 10.8 14.6 10.85 14.6 10.9 14.6 10.95 14.65 11.0 14.65 11.05 14.65 11.1 14.65 11.2 14.65 11.25 14.65 11.3 14.65 11.3 14.65 11.35 14.65 11.4 14.6 11.45 14.6 11.5 14.55 11.55 14.55 11.55 14.5 11.6 14.5 11.65 14.45 11.7 14.4 11.75 14.35 11.75 14.35 11.8 14.3 11.85 14.2 11.9 14.15 11.9 14.1 11.95 14.05 12.0 14.0 12.0 13.95 12.05 13.95 12.05 13.9 12.05 13.85 12.1 13.8 12.1 13.75 12.1 13.75 12.15 13.7 12.15 13.7 12.15 13.65 12.15 13.6 12.15 13.6 12.15 13.6 12.15 13.55 12.15 13.55 12.15 13.5 12.15 13.45 12.15 13.45 12.15 13.4 12.15 13.4 12.1 13.35 12.1 13.3 12.1 13.3 12.05 13.25 12.05 13.2 12.05 13.2 12.0 13.15 12.0 13.1 11.95 13.05 11.95 13.0 11.9 13.0 11.9 12.95 11.85 12.9 11.85 12.85 11.85 12.85 11.8 12.8 11.8 12.75 11.8 12.7 11.8 12.7 11.8 12.65 11.8 12.6 11.8 12.6 11.8 12.55 11.8 12.55 11.8 12.5 11.8 12.4 11.8 12.35 11.85 12.3 11.9 12.25 11.95 12.2 12.0 12.15 12.05 12.15 12.1 12.1 12.2 12.05 12.3 12.05 12.35 12.05 12.45 12.0 12.6 12.0 12.7 12.0 12.85 12.0 12.95 12.0 13.0 12.0 13.1 12.0 13.15 12.05 13.25 12.05 13.3 12.05 13.35 12.1 13.45 12.1 13.5 12.15 13.55 12.2 13.6 12.25 13.65 12.3 13.7 12.35 13.75 12.4 13.8 12.45 13.8 12.5 13.85 12.55 13.9 12.65 13.95 12.7 13.95 12.75 14.0 12.85 14.0 12.9 14.05 12.95 14.05 13.0 14.1 13.05 14.1 13.1 14.1 13.2 14.15 13.25 14.15 13.3 14.15 13.35 14.15 13.4 14.15 13.45 14.15 13.6 14.15 13.75 14.15 13.9 14.1 14.05 14.1 14.2 14.05 14.3 14.05 14.45 14.0 14.55 13.95 14.7 13.9 14.8 13.85 14.9 13.8 15.0 13.75 15.1 13.65 15.2 13.6 15.3 13.55 15.4 13.5 15.45 13.45 15.5 13.35 15.55 13.3 15.6 13.2 15.65 13.15 15.7 13.05 15.75 12.95 15.75 12.9 15.8 12.8 15.85 12.7 15.85 12.6 15.9 12.5 15.95 12.35 15.95 12.25 16.0 12.15 16.0 12.05 16.0 11.9 16.05 11.8 16.05 11.7 16.1 11.6 16.1 11.5 16.15 11.4 16.15 11.3 16.2 11.25 16.2 11.15 16.25 11.1 16.25 11.0 16.3 10.95 16.35 10.9 16.35 10.85 16.4 10.8 16.4 10.75 16.45 10.7 16.5 10.65 16.5 10.6 16.55 10.55 16.6 10.55 16.65 10.5 16.7 10.5 16.75 10.45 16.8 10.45 16.85 10.4 16.9 10.4 16.95 10.4 17.0 10.4 17.05 10.4 17.15 10.4 17.2 10.4 17.3 10.4 17.4 10.4 17.45 10.45 17.55 10.45 17.6 10.45 17.65 10.5 17.7 10.55 17.75 10.55 17.8 10.6 17.85 10.65 17.9 10.7 17.9 10.75 17.95 10.85 17.95 10.9 17.95 11.0 17.95 11.05 17.95 11.1 17.95 11.1 17.95 11.15 17.95 11.2 17.95 11.25 17.9 11.3 17.9 11.35 17.9 11.4 17.85 11.45 17.85 11.5 17.8 11.55 17.8 11.6 17.75 11.65 17.7 11.7 17.65 11.8 17.65 11.85 17.6 11.9 17.55 11.95 17.55 12.05 17.5 12.1 17.45 12.15 17.45 12.25 17.4 12.3 17.4 12.4 17.35 12.45 17.35 12.55 17.35 12.65 17.3 12.75 17.3 12.8 17.3 12.9 17.3 13.0 17.3 13.2 17.3 13.35 17.35 13.5 17.4 13.65 17.45 13.8 17.55 13.9 17.65 14.0 17.75 14.1 17.95 14.2 18.1 14.3 18.3 14.35 18.5 14.4 18.7 14.45 18.95 14.45 19.25 14.5 19.5 14.5 19.8 14.5 20.1 14.45 20.4 14.45 20.65 14.35 20.9 14.3 21.15 14.2 21.35 14.15 21.55 14.0 21.7 13.9 21.85 13.75 22.0 13.6 22.1 13.45 22.2 13.3 22.25 13.1 22.3 12.9 22.35 12.65 22.35 L12.65 22.35" fill="#ffffff" fill-rule="evenodd" stroke="none"/>
  </g>
</svg>
