<?xml version="1.0" encoding="UTF-8" standalone="no"?>
<svg xmlns:ffdec="https://www.free-decompiler.com/flash" xmlns:xlink="http://www.w3.org/1999/xlink" ffdec:objectType="shape" height="26.0px" width="26.0px" xmlns="http://www.w3.org/2000/svg">
  <g transform="matrix(1.0, 0.0, 0.0, 1.0, 0.0, 0.0)">
    <path d="M25.65 6.5 Q25.65 6.55 25.65 6.6 25.65 6.55 25.65 6.6 L25.65 7.5 25.25 7.35 25.65 7.75 25.65 8.25 25.3 8.2 25.65 8.95 25.65 9.35 25.5 10.0 25.65 9.8 25.65 10.85 25.25 11.05 25.45 11.2 25.8 11.0 25.8 9.95 25.65 10.15 25.8 9.5 25.8 9.1 25.45 8.35 25.8 8.4 25.8 7.95 25.4 7.5 25.8 7.65 25.8 6.75 Q25.8 6.75 25.8 6.75 25.8 6.75 25.8 6.75 25.8 6.65 25.8 6.6 25.8 6.55 25.75 6.55 25.7 6.55 25.65 6.5 L25.65 6.5 M25.65 11.4 L25.65 18.85 25.65 19.25 Q25.65 19.45 25.6 19.45 25.6 19.45 25.45 19.45 L25.05 19.45 24.65 19.45 24.1 19.45 24.1 19.6 24.8 19.6 25.2 19.6 25.6 19.6 Q25.75 19.6 25.75 19.6 25.8 19.6 25.8 19.4 L25.8 19.0 25.8 11.5 25.65 11.4 M23.9 19.0 L23.45 19.45 15.65 19.45 15.15 19.15 15.1 19.45 14.45 19.45 14.25 19.45 13.6 19.4 13.15 19.45 12.4 19.45 12.3 19.35 12.05 19.5 4.75 19.45 4.25 19.3 4.0 19.45 3.45 19.45 3.25 19.35 2.8 19.45 2.4 19.45 2.0 19.45 1.6 19.45 1.25 19.45 0.8 19.45 0.55 19.45 Q0.55 19.5 0.55 19.6 0.55 19.6 0.55 19.6 0.55 19.6 0.55 19.6 L0.95 19.6 1.4 19.6 1.75 19.6 2.15 19.6 2.55 19.6 2.95 19.6 3.4 19.5 3.6 19.6 4.1 19.6 11.35 19.6 11.85 19.6 12.15 19.65 12.45 19.5 12.55 19.6 13.3 19.6 13.75 19.55 14.4 19.6 14.6 19.6 15.2 19.6 15.3 19.3 15.8 19.6 23.6 19.6 23.95 19.3 23.9 19.0" fill="#ffffff" fill-rule="evenodd" stroke="none"/>
    <path d="M0.4 6.35 L2.5 6.35 2.65 6.65 2.8 6.45 3.6 6.35 8.75 6.35 8.85 6.65 9.1 6.35 9.95 6.35 17.95 6.35 18.3 6.65 18.4 6.35 18.8 6.35 25.45 6.35 Q25.55 6.35 25.6 6.35 25.65 6.4 25.65 6.45 25.65 6.45 25.65 6.6 25.65 6.6 25.65 6.6 L25.65 7.5 25.25 7.35 25.65 7.75 25.65 8.25 25.3 8.2 25.65 8.95 25.65 9.35 25.5 10.0 25.65 9.8 25.65 10.85 25.25 11.05 25.65 11.35 25.65 18.85 25.65 19.25 Q25.65 19.45 25.6 19.45 25.6 19.45 25.45 19.45 L25.05 19.45 24.65 19.45 23.95 19.45 23.9 19.0 23.45 19.45 15.65 19.45 15.15 19.15 15.1 19.45 14.45 19.45 14.25 19.45 13.6 19.4 13.15 19.45 12.4 19.45 12.3 19.35 12.05 19.5 4.75 19.45 4.25 19.3 4.0 19.45 3.45 19.45 3.25 19.35 2.8 19.45 2.4 19.45 2.0 19.45 1.6 19.45 1.25 19.45 0.8 19.45 0.4 19.45 Q0.4 19.45 0.4 19.45 0.4 19.45 0.4 19.45 0.25 19.45 0.2 19.45 0.2 19.45 0.2 19.3 0.2 19.3 0.2 19.25 0.2 19.25 0.2 19.25 0.2 19.25 0.2 19.25 L0.2 15.9 0.7 15.8 0.2 15.3 0.2 14.9 0.2 14.5 0.2 13.9 0.45 13.7 0.2 13.55 0.2 11.55 0.45 11.45 0.2 11.1 0.2 10.55 0.2 10.15 0.2 9.75 0.5 9.45 0.2 9.2 0.2 6.6 Q0.2 6.6 0.2 6.6 0.2 6.5 0.2 6.45 0.2 6.4 0.25 6.4 0.3 6.35 0.4 6.35 0.4 6.35 0.4 6.35 0.4 6.35 0.4 6.35 0.4 6.35 0.4 6.35 L0.4 6.35" fill="#000000" fill-rule="evenodd" stroke="none"/>
    <path d="M13.75 7.45 Q13.7 7.45 13.7 7.45 13.65 7.45 13.6 7.5 13.55 7.5 13.55 7.5 13.5 7.5 13.45 7.55 13.4 7.55 13.4 7.6 13.35 7.6 13.3 7.65 13.25 7.65 13.2 7.7 13.2 7.75 13.15 7.75 13.05 7.85 12.95 7.95 12.8 8.05 12.7 8.2 12.6 8.3 12.5 8.4 12.4 8.5 12.3 8.65 12.2 8.75 12.1 8.9 12.0 9.0 11.9 9.15 11.8 9.25 11.7 9.4 11.6 9.5 11.5 9.65 11.4 9.8 11.3 9.9 11.2 10.05 11.15 10.15 11.05 10.25 11.0 10.35 10.9 10.5 10.85 10.6 10.8 10.7 10.75 10.8 10.7 10.9 10.65 10.95 10.6 11.05 10.55 11.15 10.55 11.2 10.5 11.3 L9.95 12.8 9.3 11.15 Q9.2 10.95 9.15 10.7 9.05 10.5 8.95 10.35 8.85 10.15 8.8 10.0 8.7 9.8 8.6 9.65 8.55 9.5 8.45 9.35 8.4 9.25 8.3 9.1 8.2 9.0 8.15 8.9 8.05 8.8 8.0 8.7 7.85 8.55 7.7 8.45 7.6 8.3 7.45 8.2 7.35 8.1 7.2 8.0 7.1 7.9 6.95 7.85 6.85 7.75 6.75 7.7 6.65 7.65 6.55 7.65 6.45 7.6 6.35 7.6 6.25 7.55 6.15 7.55 6.15 7.55 6.1 7.55 6.1 7.55 6.05 7.55 6.0 7.6 6.0 7.6 5.95 7.6 5.95 7.6 5.9 7.65 5.9 7.65 5.85 7.65 5.85 7.7 5.8 7.7 5.75 7.7 5.75 7.75 5.7 7.75 5.65 7.8 5.6 7.85 5.55 7.9 5.5 8.0 5.5 8.05 5.45 8.1 5.4 8.2 5.4 8.25 5.35 8.35 5.35 8.4 5.3 8.5 5.3 8.6 5.3 8.65 5.3 8.75 5.3 8.85 5.3 8.95 5.3 9.0 5.3 9.0 5.3 9.0 5.3 9.05 5.35 9.05 5.35 9.1 5.35 9.1 5.4 9.1 5.45 9.1 5.45 9.15 5.5 9.15 5.55 9.15 5.6 9.15 5.65 9.15 5.7 9.15 5.75 9.15 L5.75 9.15 Q5.8 9.15 5.85 9.15 5.9 9.15 5.95 9.2 6.0 9.2 6.0 9.25 6.05 9.25 6.05 9.3 6.1 9.3 6.1 9.35 6.15 9.4 6.15 9.45 6.15 9.45 6.15 9.55 6.15 9.6 6.15 9.65 6.2 10.55 5.5 13.7 4.8 16.85 4.55 17.2 4.5 17.25 4.5 17.25 4.45 17.3 4.4 17.35 4.4 17.35 4.35 17.4 4.3 17.4 4.3 17.45 4.25 17.45 4.2 17.45 4.2 17.5 4.15 17.5 4.1 17.5 4.1 17.5 4.05 17.5 4.05 17.5 L4.0 17.5 Q3.95 17.5 3.9 17.5 3.85 17.5 3.85 17.55 3.8 17.55 3.75 17.6 3.7 17.6 3.7 17.65 3.65 17.65 3.65 17.7 3.6 17.75 3.6 17.75 3.55 17.8 3.55 17.85 3.55 17.85 3.5 17.9 3.5 17.9 3.5 17.95 3.5 17.95 3.5 18.0 3.5 18.0 3.5 18.05 3.5 18.05 3.5 18.05 3.5 18.1 3.5 18.15 3.5 18.2 3.55 18.25 3.55 18.25 3.6 18.3 3.65 18.3 3.7 18.35 3.75 18.35 3.8 18.35 3.85 18.35 3.95 18.4 4.05 18.4 4.15 18.4 4.25 18.4 4.35 18.45 4.5 18.45 4.65 18.45 4.8 18.45 4.95 18.45 6.2 18.45 6.7 18.35 6.75 18.35 6.8 18.3 6.85 18.3 6.9 18.3 6.95 18.3 6.95 18.25 7.0 18.25 7.05 18.2 7.05 18.2 7.1 18.15 7.1 18.15 7.1 18.1 7.15 18.1 7.15 18.05 7.15 18.05 7.15 18.0 7.15 17.95 7.15 17.9 7.15 17.9 7.1 17.85 7.1 17.8 7.05 17.8 7.05 17.75 7.0 17.75 7.0 17.7 6.95 17.65 6.9 17.65 6.85 17.6 6.8 17.6 6.75 17.6 6.7 17.55 6.65 17.55 L6.35 17.45 Q6.3 17.45 6.25 17.4 6.25 17.4 6.2 17.35 6.2 17.35 6.15 17.3 6.15 17.25 6.1 17.2 6.1 17.15 6.05 17.1 6.05 17.05 6.05 17.0 6.05 16.95 6.05 16.9 6.05 16.3 6.4 14.8 L7.35 10.75 7.85 11.8 Q8.45 13.1 9.15 16.4 9.15 16.45 9.2 16.55 9.2 16.6 9.25 16.65 9.25 16.7 9.3 16.75 9.3 16.75 9.35 16.8 9.35 16.85 9.4 16.85 9.45 16.9 9.5 16.9 9.55 16.9 9.55 16.9 9.6 16.95 9.65 16.95 9.7 16.95 9.75 16.95 9.8 16.95 9.8 16.9 9.85 16.9 9.9 16.85 9.95 16.85 9.95 16.8 10.0 16.75 10.0 16.75 10.05 16.7 10.1 16.65 10.1 16.6 10.1 16.55 10.15 16.5 10.15 16.4 11.05 12.95 11.45 12.25 11.85 11.5 12.15 11.0 12.3 11.1 12.75 13.85 13.2 16.6 13.2 16.85 L13.2 17.15 Q13.2 17.2 13.15 17.25 13.15 17.3 13.1 17.3 13.1 17.35 13.05 17.4 13.05 17.4 13.0 17.45 13.0 17.45 12.95 17.5 12.95 17.5 12.9 17.5 12.85 17.5 12.85 17.5 12.8 17.5 12.75 17.5 L12.7 17.5 Q12.65 17.5 12.6 17.5 12.6 17.5 12.55 17.55 12.5 17.55 12.45 17.55 12.45 17.55 12.4 17.6 12.35 17.6 12.35 17.6 12.3 17.65 12.3 17.65 12.25 17.65 12.25 17.7 12.2 17.7 12.2 17.75 12.15 17.8 12.15 17.8 12.1 17.85 12.1 17.85 12.1 17.9 12.05 17.9 12.05 17.95 12.05 18.0 12.05 18.0 12.05 18.05 12.05 18.05 12.05 18.1 12.05 18.15 12.05 18.15 12.1 18.2 12.1 18.25 12.1 18.3 12.15 18.3 12.2 18.35 12.25 18.35 12.35 18.4 12.45 18.4 12.55 18.4 12.7 18.45 12.85 18.45 13.0 18.45 13.15 18.45 13.35 18.5 13.55 18.5 13.75 18.5 14.0 18.5 14.25 18.5 14.5 18.5 14.75 18.5 14.95 18.5 15.15 18.5 15.35 18.45 15.5 18.45 15.7 18.45 15.8 18.4 15.95 18.4 16.05 18.4 16.15 18.35 16.25 18.35 16.3 18.3 16.35 18.25 16.4 18.25 16.4 18.2 16.4 18.15 16.4 18.15 16.4 18.1 16.4 18.05 16.4 18.0 16.4 17.95 16.4 17.95 16.4 17.9 16.35 17.85 16.35 17.8 16.3 17.75 16.25 17.75 16.2 17.7 16.15 17.65 16.1 17.6 16.05 17.6 15.95 17.55 15.9 17.5 15.8 17.5 15.7 17.45 15.65 17.45 15.65 17.4 15.6 17.4 15.55 17.4 15.55 17.35 15.5 17.35 15.45 17.3 15.45 17.3 15.4 17.25 15.4 17.25 15.35 17.2 15.35 17.15 15.3 17.15 15.3 17.1 15.25 17.05 15.25 17.0 15.1 16.7 14.35 13.3 13.65 9.9 13.65 9.55 13.65 9.5 13.65 9.45 13.65 9.4 13.7 9.35 13.7 9.3 13.7 9.25 13.75 9.25 13.75 9.2 13.8 9.2 13.8 9.15 13.85 9.15 13.85 9.15 13.9 9.1 13.95 9.1 13.95 9.1 14.0 9.1 14.05 9.1 14.15 9.1 14.2 9.1 14.25 9.1 14.3 9.1 14.3 9.1 14.35 9.1 14.4 9.05 14.4 9.05 14.45 9.05 14.45 9.05 14.5 9.0 14.5 9.0 14.5 8.95 14.5 8.95 14.5 8.9 14.5 8.8 14.45 8.65 14.45 8.55 14.4 8.45 14.4 8.35 14.35 8.25 14.35 8.2 14.3 8.1 14.3 8.05 14.3 7.95 14.25 7.9 14.25 7.85 14.2 7.8 14.2 7.75 14.15 7.7 14.15 7.7 14.15 7.65 14.1 7.65 14.1 7.6 14.05 7.6 14.05 7.55 14.0 7.55 14.0 7.55 13.95 7.5 13.95 7.5 13.9 7.5 13.9 7.5 13.85 7.5 13.8 7.45 13.8 7.45 13.75 7.45 13.75 7.45 L13.75 7.45 M21.7 8.1 Q21.65 8.1 21.65 8.1 21.6 8.1 21.6 8.15 21.55 8.15 21.55 8.15 21.5 8.15 21.5 8.2 21.45 8.2 21.45 8.2 21.4 8.25 21.4 8.25 21.35 8.3 21.35 8.35 21.3 8.35 21.3 8.4 21.25 8.45 21.25 8.5 21.2 8.5 21.2 8.55 21.15 8.6 21.15 8.6 21.1 8.65 21.1 8.65 21.05 8.65 21.0 8.7 21.0 8.7 20.95 8.7 20.95 8.7 20.9 8.7 20.9 8.75 20.85 8.75 20.8 8.75 20.7 8.75 20.6 8.75 20.55 8.75 L18.7 8.7 Q18.65 8.7 18.6 8.7 18.6 8.7 18.55 8.7 18.5 8.7 18.45 8.7 18.4 8.7 18.35 8.7 18.3 8.7 18.3 8.7 18.25 8.7 18.25 8.75 18.2 8.75 18.2 8.75 18.15 8.75 18.15 8.8 18.1 8.8 18.1 8.8 18.05 8.85 18.05 8.85 18.0 8.85 18.0 8.9 17.95 8.95 17.95 8.95 17.9 9.0 17.9 9.05 17.85 9.1 17.8 9.2 17.75 9.25 17.7 9.35 17.7 9.5 17.65 9.6 17.6 9.75 17.55 9.9 17.5 10.05 17.4 10.25 17.35 10.45 17.3 10.65 17.25 10.85 17.15 11.1 16.65 13.05 16.65 13.5 16.65 13.55 16.65 13.6 16.65 13.65 16.65 13.7 16.7 13.75 16.7 13.8 16.7 13.85 16.75 13.9 16.75 13.9 16.8 13.95 16.8 13.95 16.85 14.0 16.9 14.0 16.95 14.0 16.95 14.0 17.0 14.0 L17.0 14.0 Q17.05 14.0 17.1 14.0 17.15 14.0 17.2 13.95 17.2 13.95 17.25 13.9 17.3 13.9 17.35 13.85 17.4 13.85 17.45 13.8 17.5 13.75 17.55 13.7 17.6 13.65 17.65 13.6 17.7 13.55 17.8 13.5 17.85 13.45 17.9 13.4 17.95 13.35 18.0 13.3 18.1 13.25 18.15 13.2 18.2 13.15 18.3 13.15 18.35 13.1 18.45 13.05 18.5 13.05 18.6 13.05 18.65 13.0 18.75 13.0 18.8 13.0 18.9 13.0 19.0 13.0 19.05 13.0 19.15 13.0 19.25 13.05 19.3 13.05 19.4 13.1 19.45 13.1 19.5 13.15 19.6 13.15 19.65 13.2 19.7 13.25 19.8 13.25 19.85 13.3 19.9 13.35 19.95 13.4 20.0 13.45 20.1 13.55 20.15 13.6 20.2 13.7 20.25 13.8 20.35 13.9 20.35 14.0 20.4 14.1 20.45 14.25 20.5 14.35 20.5 14.45 20.55 14.6 20.55 14.7 20.6 14.85 20.6 15.0 20.6 15.15 20.6 15.25 20.6 15.4 20.6 15.55 20.6 15.7 20.55 15.8 20.55 15.95 20.5 16.1 20.5 16.2 20.45 16.3 20.4 16.45 20.35 16.55 20.3 16.65 20.25 16.75 20.2 16.85 20.1 16.95 20.05 17.05 20.0 17.1 19.95 17.15 19.9 17.2 19.8 17.3 19.75 17.35 19.7 17.4 19.65 17.4 19.55 17.45 19.5 17.5 19.4 17.5 19.35 17.55 19.3 17.55 19.2 17.6 19.15 17.6 19.05 17.6 18.95 17.6 18.9 17.6 18.9 17.65 18.85 17.65 18.75 17.65 18.7 17.65 18.6 17.6 18.55 17.6 18.5 17.6 18.4 17.55 18.35 17.55 18.3 17.55 18.25 17.5 18.15 17.45 18.1 17.45 18.05 17.4 18.0 17.35 17.95 17.35 17.9 17.3 17.9 17.25 17.85 17.2 17.8 17.15 17.8 17.1 17.75 17.1 17.7 17.05 17.7 17.0 17.7 17.0 17.7 16.95 17.65 16.95 17.65 16.9 17.65 16.9 17.7 16.9 17.7 16.85 17.7 16.85 17.75 16.85 17.75 16.85 17.8 16.85 17.8 16.85 17.85 16.85 17.85 16.85 17.9 16.8 17.9 16.8 17.95 16.8 17.95 16.75 18.0 16.75 18.0 16.7 18.05 16.65 18.05 16.65 18.1 16.6 18.1 16.55 18.15 16.5 18.15 16.45 18.2 16.4 18.2 16.35 18.2 16.3 18.25 16.3 18.25 16.25 18.25 16.2 18.3 16.15 18.3 16.15 18.3 16.1 18.3 16.05 18.3 16.05 18.3 16.0 18.3 16.0 18.3 15.95 18.3 15.95 18.3 15.9 18.3 15.85 18.3 15.85 18.25 15.8 18.2 15.7 18.2 15.65 18.15 15.6 18.1 15.5 18.0 15.45 17.95 15.4 17.95 15.35 17.9 15.35 17.85 15.3 17.85 15.3 17.8 15.25 17.75 15.2 17.7 15.2 17.7 15.2 17.65 15.15 17.6 15.15 17.55 15.15 17.55 15.15 17.5 15.15 17.45 15.1 17.4 15.1 17.35 15.1 17.35 15.1 17.3 15.1 17.25 15.1 17.25 15.1 17.2 15.15 17.15 15.15 17.15 15.15 17.1 15.15 17.05 15.15 17.05 15.2 17.0 15.2 16.95 15.2 16.95 15.2 16.9 15.25 16.9 15.25 16.8 15.3 16.75 15.35 16.7 15.4 16.6 15.45 16.55 15.5 16.5 15.6 16.45 15.65 16.4 15.75 16.35 15.8 16.35 15.9 16.3 16.0 16.3 16.1 16.25 16.2 16.25 16.3 16.25 16.4 16.25 16.5 16.25 16.55 16.25 16.6 16.25 16.65 16.25 16.7 16.25 16.75 16.25 16.8 16.3 16.85 16.3 16.9 16.3 16.9 16.3 16.95 16.3 17.0 16.35 17.05 16.35 17.05 16.35 17.1 16.35 17.15 16.4 17.15 16.4 17.2 16.45 17.25 16.45 17.25 16.5 17.3 16.5 17.35 16.55 17.4 16.55 17.4 16.6 17.45 16.65 17.5 16.65 17.55 16.7 17.55 16.75 17.6 16.8 17.65 16.85 17.7 16.85 17.75 16.9 17.75 17.0 17.85 17.15 17.95 17.25 18.05 17.35 18.1 17.5 18.15 17.6 18.25 17.75 18.3 17.85 18.35 18.0 18.4 18.1 18.45 18.25 18.45 18.4 18.5 18.5 18.5 18.65 18.5 18.8 18.55 18.95 18.55 19.1 18.55 19.2 18.55 19.35 18.55 19.5 18.5 19.6 18.5 19.75 18.45 19.9 18.45 20.0 18.4 20.15 18.35 20.25 18.3 20.4 18.25 20.55 18.2 20.65 18.15 20.8 18.1 20.9 18.05 21.05 17.95 21.15 17.9 21.25 17.8 21.4 17.7 21.5 17.6 21.6 17.55 21.65 17.45 21.75 17.35 21.85 17.2 21.9 17.1 22.0 17.0 22.05 16.85 22.15 16.75 22.2 16.6 22.25 16.45 22.3 16.3 22.35 16.15 22.35 16.1 22.4 16.0 22.4 15.95 22.4 15.85 22.45 15.8 22.45 15.7 22.45 15.65 22.45 15.6 22.5 15.5 22.5 15.45 22.5 15.35 22.5 15.3 22.5 15.2 22.5 15.15 22.5 15.05 22.5 15.0 22.5 14.95 22.5 14.85 22.5 14.8 22.5 14.7 22.5 14.65 22.5 14.55 22.5 14.5 22.5 14.4 22.5 14.35 22.45 14.3 22.45 14.2 22.45 14.15 22.4 14.05 22.4 14.0 22.4 13.95 22.35 13.85 22.3 13.7 22.25 13.55 22.2 13.4 22.1 13.25 22.05 13.15 21.95 13.05 21.9 12.9 21.8 12.8 21.7 12.7 21.6 12.65 21.5 12.55 21.4 12.5 21.3 12.4 21.2 12.35 21.05 12.3 20.95 12.25 20.8 12.2 20.7 12.2 20.6 12.15 20.45 12.1 20.35 12.1 20.25 12.05 20.1 12.05 20.0 12.0 19.9 12.0 19.8 12.0 19.7 11.95 19.6 11.95 19.5 11.95 19.4 11.95 19.3 11.95 19.2 11.95 19.1 11.95 19.0 11.95 18.95 11.95 18.85 12.0 18.75 12.0 18.65 12.05 18.6 12.05 18.5 12.1 18.4 12.15 18.35 12.15 18.25 12.2 18.15 12.25 18.1 12.3 18.0 12.4 17.9 12.45 17.85 12.5 17.9 12.25 18.1 11.3 L18.4 10.3 19.9 10.4 Q20.5 10.5 20.85 10.5 21.25 10.45 21.3 10.45 21.3 10.45 21.35 10.45 21.35 10.45 21.4 10.4 21.45 10.4 21.45 10.4 21.5 10.35 21.5 10.35 21.55 10.3 21.55 10.25 21.6 10.25 21.65 10.2 21.65 10.15 21.7 10.1 21.7 10.05 21.75 10.0 21.8 9.95 21.8 9.9 21.85 9.85 21.9 9.8 21.9 9.7 21.95 9.65 21.95 9.6 21.95 9.5 22.0 9.45 22.0 9.35 22.0 9.3 22.0 9.2 22.05 9.15 22.05 9.05 22.05 8.95 22.05 8.85 22.05 8.75 22.05 8.7 22.05 8.6 22.0 8.55 22.0 8.45 22.0 8.4 22.0 8.35 21.95 8.3 21.95 8.25 21.9 8.2 21.9 8.2 21.85 8.15 21.8 8.15 21.75 8.15 21.75 8.1 21.7 8.1 L21.7 8.1" fill="#ffffff" fill-rule="evenodd" stroke="none"/>
  </g>
</svg>
