<?xml version="1.0" encoding="UTF-8" standalone="no"?>
<svg xmlns:ffdec="https://www.free-decompiler.com/flash" xmlns:xlink="http://www.w3.org/1999/xlink" ffdec:objectType="shape" height="26.0px" width="26.0px" xmlns="http://www.w3.org/2000/svg">
  <g transform="matrix(1.0, 0.0, 0.0, 1.0, 0.0, 0.0)">
    <path d="M25.65 6.5 Q25.65 6.55 25.65 6.6 25.65 6.55 25.65 6.6 L25.65 7.5 25.25 7.35 25.65 7.75 25.65 8.25 25.3 8.2 25.65 8.95 25.65 9.35 25.5 10.0 25.65 9.8 25.65 10.85 25.25 11.05 25.45 11.2 25.8 11.0 25.8 9.95 25.65 10.15 25.8 9.5 25.8 9.1 25.45 8.35 25.8 8.4 25.8 7.95 25.4 7.5 25.8 7.65 25.8 6.75 Q25.8 6.75 25.8 6.75 25.8 6.75 25.8 6.75 25.8 6.65 25.8 6.6 25.8 6.55 25.75 6.55 25.7 6.55 25.65 6.5 L25.65 6.5 M25.65 11.4 L25.65 18.85 25.65 19.25 Q25.65 19.45 25.6 19.45 25.6 19.45 25.45 19.45 L25.05 19.45 24.65 19.45 24.1 19.45 24.1 19.6 24.8 19.6 25.2 19.6 25.6 19.6 Q25.75 19.6 25.75 19.6 25.8 19.6 25.8 19.4 L25.8 19.0 25.8 11.5 25.65 11.4 M23.9 19.0 L23.45 19.45 15.65 19.45 15.15 19.15 15.1 19.45 14.45 19.45 14.25 19.45 13.6 19.4 13.15 19.45 12.4 19.45 12.3 19.35 12.05 19.5 4.75 19.45 4.25 19.3 4.0 19.45 3.45 19.45 3.25 19.35 2.8 19.45 2.4 19.45 2.0 19.45 1.6 19.45 1.25 19.45 0.8 19.45 0.55 19.45 Q0.55 19.5 0.55 19.6 0.55 19.6 0.55 19.6 0.55 19.6 0.55 19.6 L0.95 19.6 1.4 19.6 1.75 19.6 2.15 19.6 2.55 19.6 2.95 19.6 3.4 19.5 3.6 19.6 4.1 19.6 11.35 19.6 11.85 19.6 12.15 19.65 12.45 19.5 12.55 19.6 13.3 19.6 13.75 19.55 14.4 19.6 14.6 19.6 15.2 19.6 15.3 19.3 15.8 19.6 23.6 19.6 23.95 19.3 23.9 19.0" fill="#ffffff" fill-rule="evenodd" stroke="none"/>
    <path d="M0.4 6.35 L2.5 6.35 2.65 6.65 2.8 6.45 3.6 6.35 8.75 6.35 8.85 6.65 9.1 6.35 9.95 6.35 17.95 6.35 18.3 6.65 18.4 6.35 18.8 6.35 25.45 6.35 Q25.55 6.35 25.6 6.35 25.65 6.4 25.65 6.45 25.65 6.45 25.65 6.6 25.65 6.6 25.65 6.6 L25.65 7.5 25.25 7.35 25.65 7.75 25.65 8.25 25.3 8.2 25.65 8.95 25.65 9.35 25.5 10.0 25.65 9.8 25.65 10.85 25.25 11.05 25.65 11.35 25.65 18.85 25.65 19.25 Q25.65 19.45 25.6 19.45 25.6 19.45 25.45 19.45 L25.05 19.45 24.65 19.45 23.95 19.45 23.9 19.0 23.45 19.45 15.65 19.45 15.15 19.15 15.1 19.45 14.45 19.45 14.25 19.45 13.6 19.4 13.15 19.45 12.4 19.45 12.3 19.35 12.05 19.5 4.75 19.45 4.25 19.3 4.0 19.45 3.45 19.45 3.25 19.35 2.8 19.45 2.4 19.45 2.0 19.45 1.6 19.45 1.25 19.45 0.8 19.45 0.4 19.45 Q0.4 19.45 0.4 19.45 0.4 19.45 0.4 19.45 0.25 19.45 0.2 19.45 0.2 19.45 0.2 19.3 0.2 19.3 0.2 19.25 0.2 19.25 0.2 19.25 0.2 19.25 0.2 19.25 L0.2 15.9 0.7 15.8 0.2 15.3 0.2 14.9 0.2 14.5 0.2 13.9 0.45 13.7 0.2 13.55 0.2 11.55 0.45 11.45 0.2 11.1 0.2 10.55 0.2 10.15 0.2 9.75 0.5 9.45 0.2 9.2 0.2 6.6 Q0.2 6.6 0.2 6.6 0.2 6.5 0.2 6.45 0.2 6.4 0.25 6.4 0.3 6.35 0.4 6.35 0.4 6.35 0.4 6.35 0.4 6.35 0.4 6.35 0.4 6.35 0.4 6.35 L0.4 6.35" fill="#000000" fill-rule="evenodd" stroke="none"/>
    <path d="M13.95 7.45 Q13.9 7.45 13.9 7.45 13.85 7.45 13.8 7.5 13.8 7.5 13.75 7.5 13.7 7.5 13.65 7.55 13.65 7.55 13.6 7.6 13.55 7.6 13.5 7.65 13.5 7.65 13.45 7.7 13.4 7.75 13.35 7.75 13.25 7.85 13.15 7.95 13.0 8.05 12.9 8.2 12.8 8.3 12.7 8.4 12.6 8.5 12.5 8.65 12.4 8.75 12.3 8.9 12.2 9.0 12.1 9.15 12.0 9.25 11.9 9.4 11.8 9.5 11.7 9.65 11.6 9.8 11.5 9.9 11.4 10.05 11.35 10.15 11.25 10.25 11.2 10.35 11.1 10.5 11.05 10.6 11.0 10.7 10.95 10.8 10.9 10.9 10.85 10.95 10.8 11.05 10.8 11.15 10.75 11.2 10.7 11.3 L10.2 12.8 9.55 11.15 Q9.45 10.95 9.35 10.7 9.3 10.5 9.2 10.35 9.1 10.15 9.0 10.0 8.9 9.8 8.85 9.65 8.75 9.5 8.65 9.35 8.6 9.25 8.5 9.1 8.45 9.0 8.35 8.9 8.25 8.8 8.2 8.75 8.05 8.6 7.95 8.45 7.8 8.35 7.65 8.2 7.55 8.1 7.4 8.0 7.3 7.95 7.2 7.85 7.05 7.8 6.95 7.7 6.85 7.65 6.75 7.65 6.65 7.6 6.55 7.6 6.45 7.55 6.35 7.55 6.35 7.55 6.3 7.55 6.3 7.55 6.25 7.55 6.25 7.6 6.2 7.6 6.2 7.6 6.15 7.6 6.1 7.65 6.1 7.65 6.05 7.65 6.05 7.7 6.0 7.7 6.0 7.7 5.95 7.75 5.95 7.75 5.9 7.8 5.85 7.85 5.8 7.9 5.75 8.0 5.7 8.05 5.65 8.1 5.65 8.2 5.6 8.25 5.55 8.35 5.55 8.4 5.55 8.5 5.5 8.6 5.5 8.65 5.5 8.75 5.5 8.85 5.5 8.95 5.5 9.0 5.5 9.0 5.5 9.0 5.5 9.05 5.55 9.05 5.55 9.1 5.6 9.1 5.6 9.1 5.65 9.1 5.65 9.15 5.7 9.15 5.75 9.15 5.8 9.15 5.85 9.15 5.9 9.15 5.95 9.15 L6.0 9.15 Q6.05 9.15 6.1 9.15 6.15 9.15 6.15 9.2 6.2 9.2 6.25 9.25 6.25 9.25 6.3 9.3 6.3 9.3 6.35 9.35 6.35 9.4 6.35 9.45 6.35 9.5 6.4 9.55 6.4 9.6 6.4 9.65 6.4 10.65 5.7 13.7 5.0 16.85 4.75 17.2 4.7 17.25 4.7 17.25 4.65 17.3 4.6 17.35 4.6 17.35 4.55 17.4 4.5 17.4 4.5 17.45 4.45 17.45 4.45 17.45 4.4 17.5 4.35 17.5 4.35 17.5 4.3 17.5 4.3 17.5 4.25 17.5 L4.25 17.5 Q4.2 17.5 4.2 17.5 4.15 17.5 4.1 17.5 4.1 17.5 4.05 17.55 4.05 17.55 4.0 17.55 4.0 17.55 3.95 17.6 3.95 17.6 3.9 17.65 3.9 17.65 3.9 17.65 3.85 17.7 3.85 17.7 3.8 17.75 3.8 17.75 3.75 17.8 3.75 17.85 3.75 17.85 3.75 17.9 3.7 17.9 3.7 17.95 3.7 18.0 3.7 18.0 3.7 18.0 3.7 18.05 3.7 18.05 3.7 18.05 3.7 18.1 3.7 18.15 3.7 18.2 3.75 18.25 3.75 18.25 3.8 18.3 3.85 18.3 3.9 18.35 3.95 18.35 4.0 18.35 4.05 18.4 4.15 18.4 4.25 18.4 4.35 18.4 4.45 18.4 4.6 18.45 4.7 18.45 4.85 18.45 5.0 18.45 5.15 18.45 6.4 18.45 6.9 18.35 6.95 18.35 7.0 18.3 7.05 18.3 7.1 18.3 7.15 18.3 7.2 18.25 7.2 18.25 7.25 18.2 7.25 18.2 7.3 18.15 7.3 18.15 7.35 18.1 7.35 18.1 7.35 18.05 7.35 18.05 7.35 18.0 7.35 17.95 7.35 17.9 7.35 17.9 7.3 17.85 7.3 17.8 7.3 17.8 7.25 17.75 7.25 17.75 7.2 17.7 7.15 17.65 7.1 17.65 7.05 17.65 7.0 17.6 6.95 17.6 6.9 17.55 6.85 17.55 L6.55 17.45 Q6.5 17.45 6.5 17.4 6.45 17.4 6.4 17.35 6.4 17.35 6.35 17.3 6.35 17.25 6.35 17.2 6.3 17.15 6.3 17.15 6.3 17.1 6.25 17.05 6.25 17.0 6.25 17.0 6.25 16.95 6.25 16.9 6.3 16.25 6.65 14.8 L7.55 10.75 8.05 11.8 Q8.65 13.05 9.4 16.4 9.4 16.45 9.45 16.55 9.45 16.6 9.45 16.65 9.5 16.7 9.5 16.75 9.55 16.75 9.55 16.8 9.6 16.85 9.6 16.85 9.65 16.9 9.7 16.9 9.75 16.9 9.8 16.95 9.85 16.95 9.9 16.95 9.95 16.95 10.0 16.95 10.0 16.95 10.05 16.9 10.1 16.9 10.1 16.85 10.15 16.85 10.2 16.8 10.2 16.75 10.25 16.75 10.25 16.7 10.3 16.65 10.3 16.6 10.35 16.55 10.35 16.5 10.35 16.4 11.3 12.95 11.65 12.25 12.1 11.4 12.35 11.0 12.5 11.1 12.95 13.85 13.4 16.6 13.4 16.85 L13.4 17.15 Q13.4 17.2 13.35 17.25 13.35 17.3 13.35 17.3 13.3 17.35 13.3 17.4 13.25 17.4 13.25 17.45 13.2 17.45 13.2 17.5 13.15 17.5 13.1 17.5 13.1 17.5 13.05 17.5 13.0 17.55 12.95 17.55 L12.9 17.55 Q12.85 17.55 12.8 17.55 12.8 17.55 12.75 17.55 12.7 17.55 12.7 17.55 12.65 17.55 12.6 17.6 12.6 17.6 12.55 17.6 12.5 17.65 12.5 17.65 12.45 17.65 12.45 17.7 12.4 17.7 12.4 17.75 12.35 17.8 12.35 17.8 12.35 17.85 12.3 17.85 12.3 17.9 12.3 17.9 12.25 17.95 12.25 18.0 12.25 18.0 12.25 18.05 12.25 18.05 12.25 18.1 12.25 18.15 12.3 18.15 12.3 18.2 12.3 18.25 12.3 18.3 12.35 18.3 12.4 18.35 12.5 18.35 12.55 18.4 12.65 18.4 12.75 18.4 12.9 18.45 13.05 18.45 13.2 18.45 13.35 18.45 13.55 18.5 13.75 18.5 14.0 18.5 14.2 18.5 14.45 18.5 14.7 18.5 14.95 18.5 15.15 18.5 15.35 18.5 15.55 18.45 15.75 18.45 15.9 18.45 16.05 18.45 16.15 18.4 16.25 18.4 16.35 18.35 16.45 18.35 16.5 18.3 16.55 18.25 16.6 18.25 16.6 18.2 16.6 18.15 16.65 18.15 16.65 18.1 16.65 18.05 16.65 18.0 16.65 17.95 16.65 17.95 16.6 17.9 16.6 17.85 16.55 17.8 16.5 17.75 16.45 17.75 16.4 17.7 16.35 17.65 16.3 17.6 16.25 17.6 16.2 17.55 16.1 17.5 16.0 17.5 15.95 17.45 15.9 17.45 15.85 17.4 15.85 17.4 15.8 17.4 15.75 17.35 15.7 17.35 15.7 17.3 15.65 17.3 15.65 17.25 15.6 17.25 15.55 17.2 15.55 17.15 15.5 17.15 15.5 17.1 15.45 17.05 15.45 17.0 15.3 16.7 14.55 13.3 13.9 9.9 13.9 9.55 13.9 9.5 13.9 9.45 13.9 9.4 13.9 9.35 13.9 9.3 13.95 9.3 13.95 9.25 13.95 9.2 14.0 9.2 14.0 9.15 14.05 9.15 14.1 9.15 14.1 9.1 14.15 9.1 14.2 9.1 14.25 9.1 14.3 9.1 14.35 9.1 14.4 9.1 14.45 9.1 14.5 9.1 14.55 9.1 14.6 9.1 14.6 9.05 14.65 9.05 14.65 9.05 14.7 9.05 14.7 9.0 14.7 9.0 14.7 8.95 14.7 8.95 14.7 8.9 14.7 8.8 14.65 8.65 14.65 8.55 14.6 8.45 14.6 8.35 14.6 8.25 14.55 8.2 14.55 8.1 14.5 8.05 14.5 7.95 14.45 7.9 14.45 7.85 14.45 7.8 14.4 7.75 14.4 7.7 14.35 7.7 14.35 7.65 14.3 7.65 14.3 7.6 14.25 7.6 14.25 7.6 14.2 7.55 14.2 7.55 14.15 7.5 14.15 7.5 14.1 7.5 14.1 7.5 14.05 7.5 14.05 7.45 14.0 7.45 14.0 7.45 13.95 7.45 L13.95 7.45 M19.4 8.65 Q19.2 8.65 18.95 8.7 18.75 8.7 18.55 8.75 18.4 8.8 18.2 8.85 18.05 8.9 17.9 9.0 17.75 9.1 17.6 9.2 17.45 9.3 17.35 9.45 17.25 9.6 17.15 9.75 17.0 9.9 16.95 10.05 16.9 10.1 16.9 10.2 16.85 10.25 16.85 10.3 16.8 10.35 16.8 10.4 16.8 10.5 16.75 10.55 16.75 10.6 16.75 10.65 16.75 10.75 16.75 10.8 16.7 10.85 16.7 10.95 16.7 11.0 16.7 11.05 16.7 11.1 16.7 11.2 16.75 11.25 16.75 11.35 16.75 11.4 16.8 11.5 16.85 11.55 16.85 11.65 16.9 11.75 16.95 11.85 17.0 11.95 17.05 12.05 17.15 12.15 17.2 12.25 17.25 12.35 17.35 12.45 L17.8 13.1 17.05 13.9 Q16.95 14.05 16.8 14.15 16.7 14.3 16.6 14.4 16.5 14.55 16.45 14.65 16.35 14.8 16.3 14.9 16.25 15.05 16.2 15.15 16.15 15.3 16.15 15.4 16.1 15.55 16.1 15.65 16.05 15.8 16.05 15.9 16.05 16.0 16.05 16.15 16.1 16.25 16.1 16.35 16.15 16.45 16.2 16.6 16.25 16.7 16.3 16.8 16.35 16.9 16.45 17.05 16.5 17.15 16.6 17.25 16.7 17.35 16.8 17.5 16.9 17.6 17.0 17.7 17.1 17.8 17.25 17.9 17.35 18.0 17.5 18.05 17.6 18.15 17.75 18.2 17.85 18.25 18.0 18.3 18.15 18.4 18.25 18.4 18.4 18.45 18.55 18.5 18.7 18.5 18.85 18.5 19.0 18.55 19.15 18.55 19.3 18.55 19.45 18.55 19.6 18.5 19.75 18.5 19.85 18.45 20.0 18.45 20.15 18.4 20.3 18.35 20.4 18.3 20.55 18.25 20.7 18.15 20.8 18.1 20.95 18.0 21.1 17.95 21.2 17.85 21.35 17.75 21.45 17.65 21.55 17.55 21.7 17.45 21.75 17.35 21.85 17.2 21.95 17.1 22.0 16.95 22.05 16.85 22.1 16.7 22.15 16.55 22.2 16.4 22.25 16.25 22.3 16.1 22.3 15.95 22.3 15.8 22.3 15.65 22.3 15.5 22.3 15.3 22.25 15.15 22.2 15.0 22.2 14.8 22.1 14.65 22.05 14.5 21.95 14.35 21.9 14.2 21.8 14.05 21.7 13.9 21.55 13.75 21.45 13.65 21.3 13.5 21.15 13.35 20.95 13.25 L20.25 12.65 20.9 11.95 Q21.0 11.85 21.1 11.75 21.2 11.65 21.3 11.55 21.35 11.45 21.45 11.35 21.5 11.25 21.55 11.15 21.6 11.05 21.65 10.95 21.7 10.85 21.7 10.75 21.75 10.65 21.75 10.55 21.75 10.45 21.75 10.35 21.75 10.25 21.75 10.15 21.75 10.05 21.7 9.95 21.7 9.85 21.65 9.75 21.6 9.7 21.55 9.6 21.5 9.5 21.45 9.45 21.4 9.35 21.3 9.3 21.25 9.2 21.15 9.15 21.05 9.1 20.95 9.05 20.9 9.0 20.8 8.95 20.7 8.9 20.65 8.9 20.55 8.85 20.45 8.8 20.35 8.8 20.25 8.75 20.15 8.75 20.05 8.7 19.95 8.7 19.85 8.7 19.75 8.7 19.6 8.65 19.5 8.65 19.4 8.65 L19.4 8.65 M19.3 9.45 Q19.35 9.45 19.45 9.45 19.5 9.45 19.55 9.45 19.6 9.45 19.65 9.5 19.7 9.5 19.8 9.5 19.85 9.5 19.9 9.55 19.95 9.55 20.0 9.6 20.0 9.6 20.05 9.65 20.1 9.7 20.15 9.7 20.2 9.75 20.2 9.75 20.25 9.8 20.25 9.85 20.3 9.9 20.3 9.95 20.35 10.0 20.35 10.05 20.4 10.1 20.4 10.15 20.4 10.2 20.4 10.25 20.45 10.3 20.45 10.4 20.45 10.45 20.45 10.5 20.45 10.55 20.45 10.65 20.45 10.7 20.4 10.75 20.4 10.85 20.4 10.9 20.35 10.95 20.35 11.0 20.35 11.05 20.3 11.1 20.3 11.15 20.25 11.2 20.2 11.25 20.15 11.3 20.15 11.35 20.1 11.4 19.6 11.8 19.3 11.95 19.25 11.9 19.2 11.9 19.15 11.85 19.1 11.8 19.05 11.75 19.05 11.7 19.0 11.7 18.95 11.65 18.9 11.55 18.85 11.5 18.8 11.45 18.75 11.4 18.7 11.35 18.65 11.25 18.6 11.2 18.55 11.15 18.45 11.0 18.4 10.9 18.35 10.75 18.3 10.65 18.25 10.55 18.2 10.5 18.2 10.45 18.2 10.4 18.2 10.4 18.2 10.35 18.2 10.3 18.2 10.3 18.25 10.25 18.25 10.25 18.25 10.2 18.25 10.15 18.3 10.15 18.3 10.1 18.35 10.05 18.35 10.0 18.4 9.95 18.4 9.9 18.45 9.9 18.45 9.85 18.5 9.8 18.55 9.75 18.55 9.7 18.6 9.7 18.65 9.65 18.7 9.6 18.75 9.55 18.8 9.55 18.85 9.5 18.9 9.5 18.95 9.5 19.05 9.45 19.1 9.45 19.15 9.45 19.2 9.45 19.3 9.45 L19.3 9.45 M18.7 13.75 Q19.0 14.0 19.9 14.75 20.0 14.85 20.1 14.95 20.2 15.05 20.3 15.15 20.4 15.25 20.45 15.3 20.55 15.4 20.6 15.5 20.65 15.6 20.7 15.7 20.75 15.8 20.75 15.85 20.8 15.95 20.8 16.05 20.8 16.15 20.8 16.25 20.8 16.3 20.8 16.35 20.8 16.4 20.8 16.5 20.75 16.55 20.75 16.6 20.7 16.65 20.7 16.7 20.65 16.8 20.6 16.85 20.6 16.9 20.55 16.95 20.5 17.05 20.4 17.1 20.35 17.15 20.3 17.2 20.25 17.25 20.2 17.35 20.1 17.4 20.05 17.45 20.0 17.5 19.95 17.55 19.9 17.6 19.85 17.6 19.8 17.65 19.75 17.7 19.7 17.7 19.65 17.75 19.6 17.75 19.55 17.75 19.5 17.8 19.45 17.8 L19.2 17.8 Q19.2 17.8 19.15 17.8 19.15 17.8 19.1 17.8 19.05 17.75 19.05 17.75 19.0 17.75 18.95 17.75 18.95 17.7 18.9 17.7 18.85 17.7 18.8 17.65 18.75 17.65 18.7 17.6 18.65 17.55 18.6 17.55 18.5 17.5 18.35 17.4 18.25 17.35 18.15 17.25 18.05 17.2 18.0 17.1 17.9 17.0 17.85 16.9 17.8 16.8 17.75 16.7 17.7 16.6 17.65 16.45 17.65 16.35 17.65 16.2 17.6 16.1 17.6 15.95 17.6 15.85 17.6 15.75 17.6 15.65 17.65 15.55 17.65 15.45 17.65 15.35 17.7 15.25 17.7 15.15 17.75 15.1 17.75 15.0 17.8 14.9 17.85 14.85 17.85 14.75 17.9 14.65 17.95 14.6 18.0 14.5 18.05 14.45 18.1 14.35 18.15 14.3 18.2 14.25 18.25 14.15 18.3 14.1 18.3 14.05 18.35 14.0 18.4 13.95 18.45 13.9 18.5 13.9 18.55 13.85 18.55 13.8 18.6 13.8 18.65 13.75 18.7 13.75 L18.7 13.75" fill="#ffffff" fill-rule="evenodd" stroke="none"/>
  </g>
</svg>
