<?xml version="1.0" encoding="UTF-8" standalone="no"?>
<svg xmlns:ffdec="https://www.free-decompiler.com/flash" xmlns:xlink="http://www.w3.org/1999/xlink" ffdec:objectType="shape" height="26.0px" width="35.75px" xmlns="http://www.w3.org/2000/svg">
  <g transform="matrix(1.0, 0.0, 0.0, 1.0, 0.0, 0.0)">
    <path d="M0.0 0.2 L0.0 20.95 7.1 20.95 6.8 19.75 1.9 19.75 Q1.9 19.75 1.85 19.15 1.85 18.35 1.85 17.55 1.85 16.35 1.9 15.2 1.95 13.8 2.05 12.55 2.2 11.05 2.4 9.8 2.65 8.4 3.05 7.35 3.45 6.15 4.0 5.4 4.6 4.65 5.35 4.4 5.35 4.4 5.2 4.4 5.05 4.35 4.9 4.3 4.65 4.25 4.4 4.2 4.15 4.1 3.9 3.95 3.6 3.85 3.35 3.7 3.05 3.5 2.85 3.3 2.65 3.05 2.55 2.8 2.4 2.5 2.4 2.15 L26.75 2.15 26.75 4.45 28.35 4.6 28.35 2.15 28.35 0.25 0.0 0.2 M28.35 6.5 L26.75 6.65 26.8 19.75 9.3 19.75 9.7 20.95 28.35 20.95 28.35 19.75 28.35 6.5" fill="#f1edf8" fill-rule="evenodd" stroke="none"/>
    <path d="M7.4 5.05 L7.4 6.25 7.4 23.85 7.4 25.75 35.75 25.8 35.75 5.05 7.4 5.05 M8.95 6.25 L33.85 6.25 Q33.85 6.25 33.9 6.85 33.9 7.65 33.9 8.45 33.9 9.65 33.85 10.8 33.8 12.2 33.7 13.45 33.55 14.95 33.35 16.2 33.1 17.6 32.7 18.65 32.3 19.85 31.75 20.6 31.15 21.35 30.4 21.6 30.4 21.6 30.55 21.6 30.7 21.65 30.85 21.7 31.1 21.75 31.35 21.8 31.6 21.9 31.85 22.05 32.15 22.15 32.4 22.3 32.7 22.5 32.9 22.7 33.1 22.95 33.2 23.2 33.35 23.5 33.35 23.85 L9.0 23.85 8.95 6.25" fill="#f1edf8" fill-rule="evenodd" stroke="none"/>
  </g>
</svg>
