<?xml version="1.0" encoding="UTF-8" standalone="no"?>
<svg xmlns:ffdec="https://www.free-decompiler.com/flash" xmlns:xlink="http://www.w3.org/1999/xlink" ffdec:objectType="shape" height="26.0px" width="26.0px" xmlns="http://www.w3.org/2000/svg">
  <g transform="matrix(1.0, 0.0, 0.0, 1.0, 0.0, 0.0)">
    <path d="M7.1 4.5 Q7.0 4.5 6.9 4.5 6.85 4.5 6.75 4.5 6.7 4.55 6.65 4.55 6.6 4.55 6.55 4.6 6.5 4.6 6.45 4.6 6.45 4.65 6.4 4.7 6.4 4.7 6.35 4.75 6.35 4.75 6.35 4.8 6.35 4.85 6.4 4.95 6.45 5.0 6.5 5.1 6.6 5.15 6.7 5.25 6.8 5.35 7.0 5.4 7.15 5.5 7.35 5.6 7.55 5.7 7.75 5.8 8.0 5.9 8.3 6.0 8.55 6.1 8.9 6.2 9.2 6.3 9.5 6.4 9.8 6.5 10.05 6.6 10.3 6.7 10.55 6.75 10.8 6.85 11.0 6.9 11.25 6.95 11.4 7.0 11.6 7.0 11.8 7.05 11.95 7.1 12.1 7.1 12.2 7.1 12.35 7.1 12.45 7.1 12.6 7.1 12.75 7.1 12.85 7.05 13.0 7.05 13.15 7.0 13.3 7.0 13.5 6.95 13.65 6.9 13.8 6.85 14.0 6.8 14.2 6.75 14.35 6.7 14.55 6.6 14.75 6.55 14.95 6.45 17.0 5.7 17.25 5.65 17.3 5.6 17.4 5.6 17.45 5.55 17.5 5.55 17.55 5.5 17.6 5.5 17.65 5.45 17.7 5.45 17.7 5.4 17.75 5.4 17.75 5.4 17.8 5.35 17.8 5.35 17.8 5.3 17.8 5.3 17.8 5.25 17.8 5.15 17.8 5.1 17.8 5.0 17.75 4.95 17.75 4.85 17.7 4.8 17.65 4.75 17.6 4.7 17.55 4.65 17.5 4.65 17.45 4.6 17.35 4.55 17.3 4.55 17.2 4.55 17.15 4.5 17.05 4.5 16.3 4.55 14.85 4.9 12.9 5.2 12.45 5.2 11.7 5.2 9.8 4.85 8.05 4.5 7.2 4.5 7.15 4.5 7.15 4.5 7.1 4.5 7.1 4.5 L7.1 4.5 M19.95 6.85 Q19.9 6.85 19.85 6.85 19.85 6.85 19.8 6.9 19.75 6.9 19.7 6.95 19.7 6.95 19.65 7.0 19.65 7.0 19.6 7.05 19.6 7.05 19.6 7.1 19.55 7.1 19.55 7.15 19.55 7.2 19.55 7.2 19.55 7.25 19.5 7.25 19.5 7.3 19.5 7.35 19.5 7.4 19.5 7.4 19.5 7.45 19.5 7.5 19.5 7.6 19.5 7.7 19.5 7.75 19.45 7.8 19.45 7.85 19.45 7.85 19.4 7.85 19.35 7.85 19.3 7.85 19.2 7.8 19.1 7.8 19.0 7.7 18.95 7.7 18.9 7.65 18.85 7.65 18.8 7.65 18.75 7.65 18.65 7.6 18.6 7.6 18.55 7.6 18.45 7.6 18.35 7.6 18.3 7.6 18.2 7.55 18.1 7.55 18.0 7.55 17.9 7.55 17.75 7.55 17.65 7.55 17.55 7.55 17.45 7.55 17.35 7.55 17.25 7.6 17.15 7.6 17.05 7.6 17.0 7.6 16.9 7.6 16.8 7.65 16.75 7.65 16.65 7.65 16.6 7.7 16.55 7.7 16.45 7.7 16.4 7.75 16.35 7.75 16.3 7.8 16.2 7.8 16.15 7.85 16.1 7.85 16.05 7.9 16.0 7.95 15.95 7.95 15.9 8.0 15.85 8.05 15.8 8.05 15.75 8.1 15.7 8.15 15.65 8.2 15.6 8.25 15.55 8.3 15.4 8.4 15.3 8.55 15.2 8.7 15.1 8.8 15.0 8.95 14.9 9.1 14.8 9.2 14.75 9.35 14.7 9.5 14.65 9.65 14.6 9.75 14.55 9.9 14.55 10.05 14.5 10.2 14.5 10.35 14.5 10.5 14.5 10.65 14.5 10.8 14.5 10.95 14.55 11.05 14.55 11.2 14.6 11.35 14.6 11.45 14.65 11.55 14.7 11.7 14.75 11.8 14.8 11.9 14.85 12.0 14.9 12.1 14.95 12.2 15.05 12.3 15.1 12.35 15.15 12.45 15.25 12.5 15.35 12.6 15.5 12.7 15.6 12.8 15.75 12.9 15.85 13.0 16.05 13.1 16.2 13.25 16.35 13.35 16.55 13.45 16.75 13.6 16.95 13.7 17.15 13.85 17.4 14.0 17.65 14.1 17.9 14.25 18.1 14.4 18.3 14.5 18.5 14.65 18.7 14.8 18.9 14.9 19.05 15.05 19.2 15.2 19.35 15.3 19.5 15.45 19.65 15.55 19.75 15.7 19.85 15.8 19.95 15.95 20.05 16.05 20.1 16.15 20.15 16.2 20.15 16.25 20.2 16.35 20.2 16.4 20.25 16.45 20.25 16.5 20.3 16.55 20.3 16.65 20.35 16.7 20.35 16.75 20.35 16.85 20.35 16.9 20.35 16.95 20.35 17.05 20.4 17.1 20.4 17.15 20.4 17.2 20.4 17.3 20.4 17.35 20.35 17.45 20.35 17.5 20.35 17.6 20.3 17.65 20.3 17.75 20.25 17.8 20.25 17.9 20.2 17.95 20.2 18.05 20.15 18.1 20.1 18.2 20.1 18.25 20.05 18.35 20.0 18.45 19.9 18.6 19.85 18.7 19.75 18.8 19.65 18.85 19.55 18.95 19.45 19.05 19.35 19.1 19.25 19.2 19.1 19.25 19.0 19.3 18.85 19.35 18.75 19.4 18.6 19.45 18.45 19.5 18.3 19.5 18.25 19.5 18.2 19.5 18.2 19.55 18.15 19.55 18.1 19.55 18.05 19.55 18.0 19.55 18.0 19.55 17.95 19.6 17.9 19.6 17.9 19.6 17.85 19.6 17.8 19.6 17.8 19.6 17.75 19.6 17.7 19.6 17.6 19.6 17.5 19.6 17.4 19.6 17.3 19.55 17.2 19.55 17.1 19.5 17.0 19.5 16.95 19.45 16.85 19.4 16.75 19.4 16.7 19.35 16.6 19.3 16.5 19.25 16.45 19.15 16.4 19.1 16.3 19.05 16.05 18.7 16.05 18.65 16.05 18.65 16.05 18.6 16.05 18.6 16.1 18.6 16.1 18.55 16.1 18.55 16.1 18.55 16.15 18.5 16.15 18.5 16.2 18.45 16.2 18.45 16.25 18.4 16.25 18.4 16.3 18.35 16.3 18.35 16.35 18.3 16.4 18.25 16.4 18.25 16.45 18.2 16.45 18.15 16.5 18.15 16.5 18.1 16.55 18.05 16.55 18.0 16.55 17.95 16.6 17.9 16.6 17.85 16.6 17.8 16.6 17.75 16.6 17.7 16.6 17.65 16.6 17.55 16.6 17.5 16.6 17.45 16.6 17.4 16.6 17.35 16.55 17.25 16.55 17.2 16.55 17.15 16.5 17.1 16.5 17.05 16.45 17.0 16.45 16.95 16.4 16.9 16.35 16.85 16.3 16.8 16.3 16.75 16.25 16.7 16.2 16.65 16.15 16.6 16.1 16.6 16.05 16.55 16.0 16.5 15.95 16.5 15.9 16.45 15.85 16.45 15.8 16.4 15.75 16.4 15.7 16.4 15.65 16.35 15.6 16.35 15.55 16.35 15.5 16.35 15.45 16.35 15.4 16.35 15.35 16.35 15.3 16.35 15.25 16.35 15.2 16.35 15.15 16.4 15.1 16.4 15.1 16.4 15.05 16.4 15.0 16.4 14.95 16.45 14.9 16.45 14.85 16.45 14.8 16.5 14.75 16.5 14.7 16.55 14.6 16.6 14.5 16.65 14.4 16.75 14.35 16.8 14.25 16.85 14.2 16.95 14.15 17.05 14.1 17.15 14.05 17.25 14.0 17.35 13.95 17.45 13.95 17.55 13.9 17.65 13.9 17.8 13.9 17.95 13.9 18.05 13.9 18.2 13.9 18.35 13.95 18.45 13.95 18.6 14.0 18.75 14.05 18.85 14.1 19.0 14.15 19.1 14.25 19.25 14.3 19.35 14.4 19.45 14.5 19.55 14.6 19.65 14.7 19.75 14.85 19.9 14.95 19.95 15.1 20.05 15.25 20.15 15.35 20.25 15.55 20.3 15.7 20.4 15.85 20.45 16.0 20.5 16.2 20.55 16.35 20.6 16.55 20.65 16.7 20.7 16.9 20.7 17.1 20.75 17.3 20.75 17.5 20.75 17.7 20.75 L17.75 20.75 Q17.95 20.75 18.15 20.75 18.35 20.75 18.55 20.7 18.75 20.7 18.95 20.65 19.1 20.6 19.3 20.55 19.45 20.5 19.65 20.4 19.8 20.35 19.95 20.25 20.1 20.2 20.3 20.1 20.45 20.0 20.6 19.9 20.75 19.8 20.9 19.65 21.0 19.55 21.15 19.4 21.25 19.3 21.35 19.15 21.45 19.0 21.55 18.85 21.65 18.7 21.75 18.5 21.85 18.35 21.9 18.2 22.0 18.0 22.05 17.8 22.1 17.65 22.15 17.45 22.15 17.4 22.2 17.3 22.2 17.25 22.2 17.15 22.25 17.1 22.25 17.05 22.25 16.95 22.25 16.9 22.25 16.85 22.25 16.8 22.3 16.7 22.3 16.65 22.3 16.6 22.3 16.5 22.3 16.45 22.3 16.4 22.3 16.1 22.25 15.8 22.2 15.55 22.1 15.25 22.0 14.95 21.85 14.7 21.7 14.45 21.5 14.2 21.3 13.9 21.05 13.65 20.8 13.4 20.5 13.2 20.2 12.95 19.85 12.7 19.5 12.45 19.1 12.25 17.2 11.2 16.8 10.8 16.75 10.75 16.7 10.7 16.65 10.65 16.65 10.6 16.6 10.55 16.55 10.5 16.55 10.45 16.5 10.4 16.5 10.35 16.45 10.3 16.45 10.25 16.45 10.2 16.45 10.15 16.4 10.15 16.4 10.1 16.4 10.05 16.4 10.0 16.4 9.95 16.4 9.9 16.4 9.85 16.4 9.8 16.45 9.75 16.45 9.7 16.45 9.7 16.45 9.65 16.45 9.6 16.45 9.55 16.5 9.55 16.5 9.5 16.5 9.45 16.5 9.4 16.55 9.4 16.6 9.3 16.65 9.2 16.7 9.15 16.75 9.05 16.8 9.0 16.9 8.95 16.95 8.9 17.05 8.85 17.15 8.8 17.25 8.75 17.3 8.7 17.45 8.7 17.55 8.65 17.65 8.65 17.75 8.65 17.9 8.65 18.0 8.65 18.05 8.65 18.15 8.65 18.2 8.7 18.3 8.7 18.4 8.7 18.45 8.75 18.55 8.75 18.65 8.8 18.7 8.85 18.8 8.85 18.9 8.9 18.95 8.95 19.05 9.0 19.15 9.05 19.2 9.1 19.3 9.15 19.35 9.2 19.45 9.25 19.5 9.35 19.6 9.4 19.65 9.45 19.75 9.55 19.8 9.6 19.85 9.65 19.9 9.75 20.0 9.8 20.05 9.9 20.1 9.95 20.15 10.05 20.2 10.1 20.25 10.2 20.3 10.3 20.35 10.35 20.4 10.45 20.45 10.5 20.45 10.55 20.5 10.6 20.55 10.65 20.6 10.7 20.65 10.75 20.7 10.8 20.7 10.85 20.75 10.9 20.8 10.95 20.85 10.95 20.9 11.0 20.9 11.0 20.95 11.0 21.0 11.05 21.05 11.05 21.05 11.05 21.1 11.05 21.15 11.05 21.15 11.05 21.2 11.05 21.25 11.0 21.25 11.0 21.3 10.95 21.3 10.95 21.35 10.9 21.35 10.85 21.35 10.85 21.4 10.8 L21.4 10.5 Q21.4 10.2 20.9 8.55 20.85 8.35 20.8 8.15 20.7 7.95 20.65 7.8 20.6 7.65 20.55 7.5 20.5 7.35 20.4 7.25 20.35 7.15 20.3 7.1 20.25 7.0 20.2 6.95 20.15 6.9 20.05 6.85 20.0 6.85 19.95 6.85 L19.95 6.85 M6.0 7.6 Q4.7 7.6 4.35 7.7 4.3 7.7 4.25 7.7 4.15 7.7 4.1 7.75 4.05 7.75 4.05 7.75 4.0 7.75 3.95 7.8 3.9 7.8 3.9 7.8 3.85 7.85 3.85 7.85 3.8 7.9 3.8 7.9 3.8 7.9 3.8 7.95 3.8 8.0 3.75 8.05 3.75 8.05 3.75 8.1 3.75 8.15 3.7 8.15 3.7 8.2 3.7 8.25 3.7 8.25 3.7 8.3 3.7 8.3 3.7 8.35 3.7 8.35 3.75 8.35 3.75 8.4 3.8 8.4 3.8 8.45 3.85 8.45 3.9 8.45 3.95 8.5 4.5 8.75 4.6 8.8 L5.15 9.1 5.15 19.2 4.4 19.5 Q4.3 19.55 4.25 19.6 4.15 19.6 4.1 19.65 4.05 19.7 4.0 19.75 3.95 19.8 3.9 19.8 3.85 19.85 3.85 19.9 3.8 19.95 3.75 19.95 3.75 20.0 3.75 20.05 3.75 20.1 3.75 20.15 3.75 20.2 3.75 20.2 3.75 20.25 3.75 20.25 3.8 20.3 3.8 20.3 3.85 20.35 3.85 20.35 3.9 20.4 3.95 20.4 4.0 20.45 4.05 20.45 4.1 20.45 4.15 20.45 4.2 20.5 4.25 20.5 4.8 20.6 7.1 20.65 9.1 20.65 10.1 20.75 10.2 20.75 10.25 20.75 10.35 20.8 10.4 20.8 10.45 20.8 10.5 20.8 10.6 20.85 10.6 20.85 10.65 20.85 10.7 20.9 10.75 20.9 10.75 20.9 10.8 20.95 10.8 20.95 10.8 21.0 10.8 21.0 10.8 21.05 10.8 21.1 10.8 21.15 10.85 21.2 10.85 21.25 10.85 21.3 10.9 21.35 10.9 21.35 10.95 21.4 11.0 21.4 11.05 21.45 11.05 21.45 11.1 21.5 11.15 21.5 11.2 21.5 11.3 21.5 11.3 21.5 11.35 21.5 11.35 21.5 11.35 21.5 11.4 21.5 11.4 21.5 11.4 21.45 11.45 21.45 11.45 21.45 11.5 21.45 11.5 21.4 11.55 21.4 11.55 21.35 11.6 21.35 11.6 21.35 11.65 21.3 11.7 21.3 11.7 21.25 11.75 21.2 11.8 21.1 11.85 21.05 11.85 20.95 11.9 20.85 11.95 20.75 12.0 20.6 12.05 20.45 12.1 20.35 12.2 20.15 12.25 20.0 12.3 19.8 12.35 19.6 12.45 19.4 12.95 17.6 12.95 17.4 13.0 17.1 12.95 17.05 12.95 17.0 12.9 17.0 12.9 16.95 12.85 16.95 12.85 16.9 12.8 16.9 12.75 16.9 12.75 16.85 12.7 16.85 12.7 16.85 12.65 16.85 12.6 16.85 12.6 16.85 12.55 16.85 12.5 16.85 12.45 16.9 12.4 16.9 12.4 16.9 12.35 16.95 12.3 16.95 12.3 17.0 12.25 17.0 12.2 17.05 12.2 17.05 12.15 17.1 12.1 17.15 12.05 17.2 12.05 17.25 12.0 17.3 11.95 17.35 11.9 17.4 11.9 17.45 11.75 17.7 11.55 17.95 11.4 18.15 11.2 18.35 11.0 18.55 10.8 18.7 10.65 18.85 10.4 19.0 10.2 19.15 10.0 19.25 9.8 19.35 9.55 19.4 9.3 19.45 9.1 19.5 8.85 19.5 8.6 19.5 8.55 19.5 8.5 19.5 8.45 19.5 8.4 19.5 8.4 19.5 8.35 19.5 8.3 19.5 8.25 19.5 8.25 19.45 8.2 19.45 8.2 19.45 8.15 19.45 8.15 19.4 8.1 19.4 8.05 19.4 8.05 19.35 8.0 19.35 8.0 19.3 7.95 19.25 7.9 19.25 7.85 19.2 7.85 19.15 7.8 19.1 7.75 19.05 7.7 19.0 7.65 18.95 7.6 18.9 7.55 18.85 7.55 18.8 7.5 18.75 7.45 18.7 7.45 18.6 7.4 18.55 7.4 18.5 7.35 18.45 7.35 18.35 7.3 18.3 7.3 18.25 7.3 18.2 7.3 18.1 7.25 18.05 7.25 17.95 7.25 17.95 7.25 17.25 7.2 16.75 7.2 16.3 7.2 15.9 7.2 15.1 7.25 14.15 7.25 13.7 L7.3 9.05 8.05 8.75 Q8.15 8.7 8.2 8.65 8.3 8.65 8.35 8.6 8.45 8.55 8.5 8.5 8.55 8.45 8.6 8.4 8.65 8.35 8.65 8.3 8.7 8.3 8.75 8.2 8.75 8.15 8.75 8.1 8.8 8.05 8.8 8.0 8.8 7.95 8.8 7.95 8.8 7.9 8.75 7.9 8.75 7.85 8.7 7.85 8.7 7.8 8.7 7.8 8.65 7.75 8.6 7.75 8.6 7.75 8.55 7.7 8.5 7.7 8.45 7.7 8.4 7.7 8.35 7.7 8.0 7.6 6.35 7.6 6.25 7.6 6.0 7.6 L6.0 7.6" fill="#ffffff" fill-rule="evenodd" stroke="none"/>
  </g>
</svg>
