<?xml version="1.0" encoding="UTF-8" standalone="no"?>
<svg xmlns:ffdec="https://www.free-decompiler.com/flash" xmlns:xlink="http://www.w3.org/1999/xlink" ffdec:objectType="shape" height="26.0px" width="26.0px" xmlns="http://www.w3.org/2000/svg">
  <g transform="matrix(1.0, 0.0, 0.0, 1.0, 0.0, 0.0)">
    <path d="M15.0 6.75 Q14.8 6.75 14.6 6.75 14.4 6.75 14.25 6.75 14.1 6.75 13.95 6.8 13.8 6.8 13.7 6.8 13.6 6.8 13.5 6.85 13.4 6.85 13.35 6.85 13.3 6.9 13.25 6.9 13.2 6.9 13.2 6.95 L13.2 6.95 Q13.2 7.0 13.15 7.0 13.15 7.05 13.15 7.1 13.15 7.1 13.15 7.15 13.15 7.15 13.15 7.2 13.15 7.2 13.15 7.25 13.15 7.25 13.15 7.25 13.2 7.3 13.2 7.3 13.2 7.35 13.2 7.35 13.25 7.4 13.25 7.4 13.25 7.45 13.3 7.45 13.3 7.5 13.35 7.55 13.4 7.55 13.4 7.6 13.45 7.6 13.45 7.65 13.5 7.65 13.5 7.65 13.55 7.7 13.55 7.7 13.6 7.7 13.65 7.75 13.65 7.75 13.7 7.75 13.75 7.75 13.8 7.8 13.8 7.8 13.85 7.8 13.9 7.8 13.95 7.8 14.0 7.8 14.0 7.85 14.05 7.85 14.1 7.85 14.1 7.9 14.15 7.9 14.15 7.9 14.2 7.95 14.2 8.0 14.25 8.0 14.25 8.05 14.3 8.1 14.3 8.15 14.3 8.15 14.4 8.55 14.4 12.2 14.4 15.9 14.35 16.4 L14.3 16.9 Q14.3 16.95 14.3 17.0 14.3 17.05 14.3 17.1 14.25 17.1 14.25 17.15 14.25 17.2 14.25 17.2 14.2 17.25 14.2 17.25 14.2 17.25 14.2 17.3 14.2 17.3 14.15 17.3 14.15 17.3 14.15 17.35 14.1 17.35 14.1 17.35 14.05 17.35 14.0 17.35 13.95 17.4 13.95 17.4 13.9 17.4 13.85 17.4 13.8 17.4 13.8 17.4 13.75 17.4 13.7 17.45 13.65 17.45 13.65 17.45 13.6 17.5 13.55 17.5 13.55 17.5 13.5 17.55 13.5 17.55 13.45 17.6 13.4 17.6 13.4 17.65 13.35 17.65 13.35 17.7 13.3 17.7 13.3 17.75 13.3 17.8 13.25 17.8 13.25 17.85 13.25 17.85 13.2 17.9 13.2 17.95 13.2 17.95 13.2 18.0 13.2 18.0 13.2 18.05 13.2 18.1 13.2 18.1 13.2 18.15 13.2 18.15 13.2 18.2 13.25 18.25 13.3 18.25 13.35 18.3 13.45 18.3 13.55 18.35 13.65 18.35 13.75 18.4 13.85 18.4 14.0 18.4 14.15 18.45 14.35 18.45 14.5 18.45 14.7 18.45 14.9 18.45 15.15 18.45 15.65 18.45 16.1 18.45 16.5 18.45 16.9 18.4 17.3 18.4 17.65 18.4 18.0 18.35 18.3 18.35 18.6 18.3 18.9 18.25 19.15 18.2 19.35 18.15 19.55 18.15 19.75 18.05 19.9 18.0 20.05 17.95 20.25 17.85 20.45 17.7 20.65 17.6 20.8 17.45 20.95 17.3 21.1 17.15 21.25 16.95 21.35 16.8 21.45 16.6 21.55 16.4 21.6 16.2 21.65 15.95 21.7 15.75 21.75 15.5 21.75 15.25 21.75 15.0 21.75 14.75 21.75 14.5 21.7 14.25 21.65 14.05 21.6 13.85 21.55 13.65 21.45 13.45 21.35 13.25 21.25 13.1 21.15 12.95 21.05 12.75 20.9 12.65 20.75 12.5 20.55 12.4 20.4 12.3 20.2 12.2 L19.4 11.85 20.0 11.5 Q20.15 11.4 20.3 11.3 20.4 11.2 20.5 11.1 20.65 11.0 20.7 10.85 20.8 10.75 20.9 10.6 20.95 10.45 21.0 10.35 21.05 10.2 21.1 10.0 21.15 9.85 21.15 9.7 21.2 9.5 21.2 9.35 21.2 9.3 21.2 9.25 21.2 9.2 21.2 9.1 21.15 9.05 21.15 9.0 21.15 8.95 21.15 8.9 21.1 8.85 21.1 8.75 21.1 8.7 21.05 8.65 21.05 8.6 21.0 8.5 21.0 8.45 20.95 8.4 20.9 8.3 20.85 8.2 20.8 8.1 20.75 8.0 20.7 7.9 20.65 7.8 20.55 7.75 20.5 7.65 20.45 7.55 20.35 7.5 20.25 7.45 20.2 7.35 20.1 7.3 20.0 7.25 19.95 7.2 19.85 7.1 19.8 7.05 19.75 7.05 19.65 7.05 19.6 7.0 19.5 7.0 19.45 6.95 19.35 6.95 19.3 6.95 19.2 6.9 19.1 6.9 19.05 6.9 18.95 6.85 18.85 6.85 18.75 6.85 18.65 6.85 18.55 6.85 17.85 6.75 15.5 6.75 15.35 6.75 15.0 6.75 L15.0 6.75 M6.3 6.8 Q5.2 6.8 4.8 6.85 4.75 6.85 4.7 6.85 4.65 6.9 4.6 6.9 4.55 6.9 4.5 6.9 4.45 6.95 4.45 6.95 4.4 6.95 4.4 7.0 4.35 7.0 4.35 7.0 4.3 7.05 4.3 7.05 4.3 7.1 4.3 7.1 4.3 7.15 4.25 7.2 4.25 7.25 4.25 7.25 4.25 7.3 4.25 7.35 4.25 7.4 4.25 7.4 4.25 7.45 4.25 7.45 4.25 7.5 4.3 7.55 4.35 7.55 4.45 7.6 5.0 7.85 5.0 7.85 L5.5 8.15 5.5 17.2 4.85 17.45 Q4.75 17.5 4.7 17.5 4.65 17.55 4.6 17.6 4.55 17.65 4.5 17.65 4.45 17.7 4.4 17.75 4.35 17.75 4.35 17.8 4.3 17.85 4.3 17.85 4.25 17.9 4.25 17.95 4.25 17.95 4.25 18.0 4.25 18.05 4.25 18.05 4.25 18.1 4.3 18.1 4.3 18.15 4.3 18.15 4.35 18.2 4.35 18.2 4.4 18.25 4.45 18.25 4.45 18.3 4.5 18.3 4.55 18.3 4.6 18.3 4.65 18.35 4.7 18.35 5.25 18.45 7.25 18.45 9.15 18.5 9.95 18.55 10.05 18.55 10.1 18.55 10.15 18.6 10.2 18.6 10.3 18.6 10.35 18.6 10.4 18.65 10.4 18.65 10.45 18.65 10.5 18.7 10.5 18.7 10.55 18.7 10.55 18.75 10.55 18.75 10.6 18.8 10.6 18.8 10.6 18.85 10.6 18.9 10.6 18.95 10.6 19.0 10.65 19.0 10.65 19.05 10.65 19.1 10.7 19.1 10.7 19.15 10.75 19.15 10.8 19.2 10.8 19.2 10.85 19.2 10.9 19.25 10.95 19.25 11.0 19.25 11.05 19.25 11.05 19.25 11.1 19.25 11.1 19.2 11.15 19.2 11.2 19.2 11.2 19.15 11.25 19.15 11.3 19.1 11.35 19.05 11.4 19.05 11.4 19.0 11.45 18.95 11.45 18.9 11.5 18.85 11.55 18.75 11.6 18.65 11.6 18.55 11.65 18.45 11.7 18.3 11.75 18.2 11.8 18.05 11.85 17.9 11.9 17.7 11.95 17.55 12.05 17.35 12.5 15.75 12.5 15.55 12.55 15.3 12.5 15.25 12.5 15.2 12.45 15.2 12.45 15.15 12.4 15.15 12.4 15.15 12.35 15.1 12.35 15.1 12.3 15.1 12.3 15.1 12.25 15.1 12.25 15.05 12.2 15.05 12.15 15.1 12.15 15.1 12.1 15.1 12.05 15.1 12.0 15.1 12.0 15.1 11.95 15.15 11.95 15.15 11.9 15.2 11.85 15.2 11.85 15.25 11.8 15.25 11.8 15.3 11.75 15.35 11.7 15.4 11.7 15.4 11.65 15.45 11.6 15.5 11.6 15.55 11.55 15.6 11.4 15.85 11.25 16.05 11.1 16.25 10.95 16.4 10.75 16.6 10.6 16.75 10.4 16.9 10.25 17.0 10.05 17.1 9.85 17.2 9.65 17.3 9.45 17.35 9.25 17.4 9.05 17.45 8.85 17.45 8.6 17.45 8.55 17.45 8.5 17.45 8.45 17.45 8.4 17.45 8.35 17.45 8.3 17.45 8.3 17.4 8.25 17.4 8.25 17.4 8.2 17.4 8.2 17.35 8.15 17.35 8.15 17.35 8.1 17.3 8.1 17.3 8.05 17.25 8.0 17.25 8.0 17.2 7.95 17.2 7.9 17.15 7.9 17.1 7.85 17.05 7.8 17.0 7.8 16.95 7.75 16.9 7.7 16.85 7.65 16.8 7.65 16.75 7.6 16.7 7.6 16.65 7.55 16.6 7.5 16.55 7.5 16.5 7.5 16.45 7.45 16.4 7.45 16.3 7.45 16.25 7.45 16.2 7.4 16.15 7.4 16.1 7.4 16.0 7.4 15.45 7.4 14.95 7.4 14.6 7.35 13.65 7.4 12.25 L7.45 8.1 8.1 7.85 Q8.2 7.8 8.25 7.75 8.35 7.75 8.4 7.7 8.45 7.65 8.5 7.6 8.55 7.55 8.6 7.55 8.65 7.5 8.65 7.45 8.7 7.4 8.7 7.35 8.75 7.3 8.75 7.25 8.75 7.2 8.75 7.15 8.75 7.1 8.75 7.1 8.75 7.05 8.75 7.05 8.75 7.05 8.7 7.0 8.7 7.0 8.65 6.95 8.65 6.95 8.6 6.95 8.6 6.9 8.55 6.9 8.5 6.9 8.45 6.9 8.45 6.85 8.4 6.85 7.95 6.8 6.6 6.8 6.6 6.8 6.3 6.8 L6.3 6.8 M16.25 7.75 L17.15 7.75 Q17.2 7.75 17.3 7.75 17.35 7.75 17.4 7.75 17.45 7.75 17.55 7.8 17.6 7.8 17.65 7.8 17.7 7.8 17.75 7.8 17.8 7.8 17.85 7.85 17.9 7.85 17.9 7.85 17.95 7.85 18.0 7.85 18.05 7.85 18.1 7.9 18.1 7.9 18.15 7.9 18.2 7.95 18.2 7.95 18.25 8.0 18.3 8.0 18.35 8.05 18.35 8.05 18.4 8.1 18.45 8.15 18.5 8.15 18.5 8.2 18.55 8.25 18.6 8.25 18.65 8.3 18.7 8.4 18.75 8.45 18.8 8.5 18.85 8.6 18.9 8.65 18.95 8.75 18.95 8.85 19.0 8.9 19.0 9.0 19.05 9.05 19.05 9.15 19.05 9.25 19.1 9.35 19.1 9.45 19.1 9.5 19.1 9.6 19.1 9.7 19.1 9.8 19.1 9.85 19.05 9.95 19.05 10.05 19.05 10.1 19.05 10.2 19.0 10.25 19.0 10.3 19.0 10.4 18.95 10.45 18.95 10.5 18.9 10.55 18.9 10.6 18.85 10.65 18.8 10.7 18.8 10.75 18.75 10.75 18.7 10.8 18.65 10.85 18.55 10.9 18.5 10.95 18.45 11.0 18.35 11.05 18.25 11.1 18.2 11.15 18.1 11.2 18.0 11.25 17.9 11.3 17.8 11.35 17.65 11.4 17.55 11.45 17.45 11.5 17.35 11.55 17.25 11.55 17.15 11.6 17.05 11.65 16.95 11.65 16.85 11.7 16.8 11.7 16.7 11.7 16.65 11.75 16.55 11.75 16.5 11.75 16.45 11.8 16.35 11.8 16.35 11.8 16.25 11.8 16.25 9.8 L16.25 7.75 M17.55 12.65 Q17.65 12.65 17.75 12.65 17.85 12.65 17.9 12.7 18.0 12.7 18.1 12.7 18.2 12.75 18.25 12.75 18.35 12.8 18.45 12.85 18.5 12.85 18.6 12.9 18.65 12.95 18.75 13.0 18.8 13.05 18.85 13.1 18.95 13.2 19.05 13.3 19.15 13.4 19.2 13.5 19.3 13.6 19.35 13.7 19.4 13.8 19.45 13.95 19.5 14.05 19.55 14.2 19.6 14.3 19.6 14.45 19.65 14.6 19.65 14.75 19.65 14.9 19.65 15.05 19.65 15.15 19.65 15.25 19.65 15.35 19.65 15.5 19.6 15.6 19.6 15.7 19.6 15.8 19.55 15.9 19.5 16.0 19.5 16.1 19.45 16.2 19.4 16.3 19.35 16.4 19.3 16.5 19.25 16.6 19.2 16.7 19.15 16.8 19.05 16.85 19.0 16.95 18.95 17.0 18.85 17.1 18.8 17.15 18.7 17.2 18.6 17.25 18.55 17.3 18.45 17.35 18.35 17.35 18.25 17.4 18.15 17.4 18.05 17.4 17.95 17.45 17.85 17.45 17.75 17.45 17.65 17.45 17.55 17.4 17.45 17.4 17.35 17.4 17.25 17.35 17.2 17.35 17.1 17.3 17.05 17.25 16.95 17.2 16.9 17.2 16.85 17.15 16.8 17.1 16.75 17.0 16.7 16.95 16.65 16.9 16.6 16.8 16.55 16.7 16.5 16.55 16.5 16.4 16.45 16.25 16.4 16.05 16.35 15.85 16.35 15.6 16.3 15.4 16.3 15.1 16.3 14.85 16.25 14.55 16.25 14.25 16.25 13.9 16.25 13.55 16.25 13.15 16.3 13.1 16.35 13.05 16.45 13.0 16.5 12.95 16.55 12.9 16.65 12.85 16.7 12.8 16.8 12.8 16.85 12.75 16.95 12.75 17.05 12.7 17.15 12.7 17.25 12.7 17.35 12.7 17.45 12.65 17.55 12.65 L17.55 12.65" fill="#ffffff" fill-rule="evenodd" stroke="none"/>
  </g>
</svg>
