<?xml version="1.0" encoding="UTF-8" standalone="no"?>
<svg xmlns:ffdec="https://www.free-decompiler.com/flash" xmlns:xlink="http://www.w3.org/1999/xlink" ffdec:objectType="shape" height="26.0px" width="26.0px" xmlns="http://www.w3.org/2000/svg">
  <g transform="matrix(1.0, 0.0, 0.0, 1.0, 0.0, 0.0)">
    <path d="M15.6 7.15 Q15.4 7.15 15.2 7.15 15.0 7.15 14.85 7.15 14.7 7.15 14.55 7.2 14.4 7.2 14.3 7.2 14.2 7.2 14.1 7.2 14.0 7.25 13.95 7.25 13.9 7.25 13.85 7.3 13.8 7.3 13.8 7.35 L13.8 7.35 Q13.8 7.4 13.8 7.4 13.75 7.45 13.75 7.45 13.75 7.5 13.75 7.55 13.75 7.55 13.75 7.6 13.75 7.6 13.75 7.6 13.75 7.65 13.8 7.65 13.8 7.7 13.8 7.7 13.8 7.75 13.85 7.75 13.85 7.8 13.85 7.8 13.9 7.85 13.9 7.85 13.95 7.9 13.95 7.9 14.0 7.95 14.0 7.95 14.05 8.0 14.05 8.0 14.1 8.05 14.1 8.05 14.15 8.1 14.2 8.1 14.2 8.1 14.25 8.15 14.3 8.15 14.3 8.15 14.35 8.15 14.4 8.15 14.45 8.2 14.5 8.2 14.55 8.2 14.6 8.2 14.6 8.2 14.65 8.2 14.7 8.25 14.7 8.25 14.75 8.25 14.75 8.3 14.8 8.3 14.8 8.35 14.85 8.35 14.85 8.4 14.9 8.45 14.9 8.5 14.9 8.5 14.95 8.55 15.0 9.3 15.0 12.6 15.0 16.2 14.95 16.8 L14.95 17.3 Q14.95 17.35 14.95 17.4 14.9 17.45 14.9 17.45 14.9 17.5 14.9 17.55 14.85 17.55 14.85 17.6 14.85 17.6 14.85 17.65 14.8 17.65 14.8 17.7 14.8 17.7 14.8 17.7 14.8 17.7 14.75 17.7 14.75 17.75 14.7 17.75 14.65 17.75 14.65 17.75 14.6 17.8 14.55 17.8 14.5 17.8 14.45 17.8 14.4 17.8 14.4 17.8 14.35 17.8 14.3 17.85 14.3 17.85 14.25 17.85 14.2 17.85 14.2 17.9 14.15 17.9 14.1 17.95 14.1 17.95 14.05 17.95 14.05 18.0 14.0 18.0 14.0 18.05 13.95 18.1 13.95 18.1 13.9 18.15 13.9 18.15 13.85 18.2 13.85 18.25 13.85 18.25 13.85 18.3 13.8 18.3 13.8 18.35 13.8 18.4 13.8 18.4 13.8 18.45 13.8 18.45 13.8 18.5 13.85 18.55 13.85 18.55 13.85 18.6 13.9 18.65 13.95 18.65 14.0 18.7 14.05 18.7 14.15 18.75 14.25 18.75 14.35 18.8 14.5 18.8 14.65 18.8 14.8 18.8 14.95 18.85 15.15 18.85 15.35 18.85 15.55 18.85 15.75 18.85 16.25 18.85 16.7 18.85 17.1 18.85 17.5 18.8 17.9 18.8 18.25 18.8 18.6 18.75 18.95 18.75 19.25 18.7 19.5 18.65 19.75 18.6 19.95 18.55 20.2 18.5 20.35 18.45 20.55 18.4 20.65 18.35 20.85 18.25 21.05 18.1 21.25 18.0 21.4 17.85 21.55 17.7 21.7 17.5 21.85 17.35 21.95 17.15 22.05 17.0 22.15 16.8 22.2 16.6 22.3 16.35 22.35 16.15 22.35 15.9 22.4 15.65 22.4 15.4 22.4 15.15 22.35 14.9 22.35 14.65 22.3 14.45 22.25 14.2 22.15 14.0 22.1 13.85 22.0 13.65 21.9 13.5 21.75 13.3 21.65 13.15 21.5 13.05 21.35 12.9 21.15 12.8 21.0 12.7 20.8 12.6 L20.0 12.25 20.6 11.9 Q20.75 11.8 20.9 11.7 21.0 11.6 21.1 11.5 21.25 11.4 21.35 11.25 21.4 11.15 21.5 11.0 21.6 10.85 21.65 10.7 21.7 10.55 21.75 10.4 21.75 10.25 21.8 10.1 21.8 9.9 21.8 9.75 21.8 9.7 21.8 9.65 21.8 9.55 21.8 9.5 21.8 9.45 21.75 9.4 21.75 9.35 21.75 9.3 21.75 9.2 21.7 9.15 21.7 9.1 21.65 9.05 21.65 9.0 21.65 8.9 21.6 8.85 21.6 8.8 21.55 8.7 21.5 8.6 21.45 8.5 21.4 8.4 21.3 8.3 21.25 8.2 21.2 8.15 21.1 8.05 21.05 7.95 20.95 7.9 20.9 7.8 20.8 7.75 20.7 7.7 20.65 7.65 20.55 7.55 20.45 7.5 20.4 7.45 20.35 7.45 20.25 7.4 20.2 7.4 20.15 7.4 20.05 7.35 20.0 7.35 19.9 7.3 19.8 7.3 19.75 7.3 19.65 7.25 19.55 7.25 19.45 7.25 19.35 7.25 19.25 7.25 19.15 7.25 18.5 7.15 16.15 7.15 16.05 7.15 15.6 7.15 L15.6 7.15 M5.5 7.15 Q5.3 7.15 5.1 7.15 4.9 7.15 4.75 7.15 4.55 7.2 4.4 7.2 4.3 7.2 4.15 7.25 4.05 7.25 3.95 7.25 3.85 7.3 3.8 7.3 3.75 7.35 3.7 7.35 3.65 7.4 3.65 7.45 3.65 7.5 3.65 7.5 3.6 7.55 3.6 7.55 3.6 7.6 3.6 7.65 3.6 7.65 3.6 7.7 3.6 7.7 3.6 7.7 3.65 7.7 3.65 7.75 3.65 7.75 3.65 7.8 3.65 7.8 3.7 7.8 3.7 7.85 3.7 7.85 3.75 7.9 3.75 7.9 3.8 7.95 3.8 7.95 3.85 7.95 3.85 8.0 3.9 8.0 3.9 8.05 3.95 8.05 3.95 8.1 4.0 8.1 4.0 8.1 4.05 8.15 4.1 8.15 4.1 8.15 4.15 8.15 4.2 8.2 4.2 8.2 4.25 8.2 4.3 8.2 4.35 8.2 4.4 8.2 4.45 8.25 4.5 8.25 4.5 8.25 4.55 8.25 4.6 8.3 4.6 8.3 4.65 8.35 4.65 8.35 4.7 8.4 4.7 8.5 4.75 8.6 4.75 8.75 4.8 8.95 4.8 11.45 L4.8 14.2 Q4.85 16.1 4.8 16.8 L4.75 17.3 Q4.75 17.35 4.75 17.4 4.7 17.45 4.7 17.5 4.7 17.55 4.7 17.6 4.65 17.65 4.65 17.65 4.65 17.7 4.6 17.7 4.6 17.7 4.55 17.75 4.55 17.75 4.5 17.75 4.5 17.8 4.45 17.8 4.4 17.8 4.35 17.8 4.3 17.8 4.25 17.8 4.2 17.8 4.2 17.8 4.15 17.85 4.15 17.85 4.1 17.85 4.05 17.85 4.05 17.9 4.0 17.9 4.0 17.9 3.95 17.9 3.95 17.95 3.9 17.95 3.9 18.0 3.85 18.0 3.85 18.0 3.8 18.05 3.75 18.1 3.75 18.15 3.7 18.15 3.7 18.2 3.65 18.25 3.65 18.25 3.65 18.3 3.6 18.3 3.6 18.35 3.6 18.35 3.6 18.4 3.6 18.45 3.6 18.5 3.65 18.55 3.65 18.55 3.65 18.6 3.65 18.6 3.65 18.65 3.7 18.65 3.7 18.65 3.7 18.65 3.75 18.7 3.75 18.7 3.8 18.7 3.8 18.7 3.85 18.75 3.9 18.75 3.9 18.75 3.95 18.75 4.0 18.75 4.05 18.8 4.1 18.8 4.55 18.85 6.25 18.85 6.5 18.85 6.7 18.85 6.9 18.85 7.05 18.85 7.25 18.85 7.4 18.8 7.55 18.8 7.65 18.8 7.8 18.8 7.9 18.75 8.0 18.75 8.05 18.75 8.1 18.7 8.15 18.7 8.2 18.65 8.25 18.65 8.25 18.6 8.3 18.6 8.3 18.55 8.3 18.55 8.3 18.5 8.3 18.45 8.3 18.45 8.3 18.4 8.25 18.35 8.25 18.35 8.25 18.3 8.2 18.25 8.2 18.25 8.15 18.2 8.15 18.15 8.1 18.1 8.05 18.05 8.05 18.05 8.0 18.0 7.95 18.0 7.95 17.95 7.9 17.95 7.85 17.95 7.8 17.9 7.75 17.9 7.75 17.9 7.7 17.85 7.65 17.85 7.6 17.85 7.55 17.85 7.5 17.85 7.45 17.85 7.4 17.85 7.35 17.85 7.35 17.85 7.3 17.8 7.25 17.8 7.2 17.75 7.2 17.75 7.15 17.7 7.1 17.65 7.05 17.6 7.05 17.55 7.0 17.5 6.95 17.45 6.95 17.4 6.9 17.3 6.9 17.25 6.85 17.2 6.85 17.1 6.85 17.05 6.8 16.95 6.8 16.9 6.75 16.8 6.75 16.75 6.75 16.65 6.7 16.6 6.7 16.5 6.7 16.45 6.7 16.4 6.7 16.3 6.7 16.25 6.7 16.2 6.7 16.1 L6.7 14.25 6.7 8.1 7.25 8.2 Q8.2 8.4 8.2 8.4 8.25 8.45 8.35 8.55 8.4 8.6 8.5 8.7 8.6 8.75 8.8 8.85 8.95 8.95 9.05 9.05 9.15 9.15 9.25 9.25 9.35 9.35 9.45 9.45 9.5 9.6 9.6 9.75 9.65 9.85 9.7 10.0 9.75 10.15 9.8 10.3 9.8 10.45 9.85 10.65 9.85 10.8 9.85 11.0 9.85 11.2 9.85 11.35 9.8 11.5 9.8 11.65 9.75 11.8 9.7 11.95 9.65 12.1 9.6 12.2 9.5 12.35 9.45 12.45 9.35 12.55 9.25 12.65 9.15 12.75 9.05 12.85 8.95 12.95 8.8 13.0 8.65 13.1 8.5 13.2 8.35 13.25 8.2 13.35 8.1 13.45 7.95 13.5 7.85 13.55 7.8 13.65 7.7 13.7 7.65 13.75 7.55 13.8 7.55 13.85 7.5 13.9 7.45 13.95 7.45 14.0 7.45 14.05 7.45 14.1 7.45 14.1 7.45 14.15 7.45 14.2 7.45 14.25 7.5 14.35 7.55 14.4 7.6 14.5 7.65 14.6 7.7 14.75 7.75 14.85 7.85 15.0 7.95 15.1 8.05 15.3 8.15 15.45 8.25 15.6 8.4 15.8 8.55 16.0 8.7 16.2 8.8 16.4 8.9 16.55 9.05 16.75 9.15 16.9 9.2 17.05 9.3 17.2 9.4 17.3 9.45 17.45 9.55 17.6 9.6 17.7 9.65 17.8 9.7 17.9 9.7 18.0 9.75 18.05 9.75 18.15 L9.9 18.75 11.6 18.75 Q12.65 18.75 13.0 18.7 13.05 18.7 13.1 18.65 13.1 18.65 13.15 18.65 13.2 18.6 13.2 18.6 13.25 18.6 13.25 18.55 13.3 18.55 13.3 18.5 13.3 18.5 13.35 18.5 13.35 18.45 13.35 18.4 13.35 18.4 13.35 18.35 13.35 18.3 13.35 18.3 13.35 18.25 13.3 18.2 13.3 18.2 13.25 18.15 13.2 18.1 13.2 18.1 13.15 18.05 13.1 18.0 13.05 18.0 12.95 17.95 12.9 17.9 12.8 17.9 12.75 17.85 12.65 17.8 12.55 17.75 12.45 17.7 12.4 17.65 12.3 17.6 12.2 17.5 12.05 17.4 11.95 17.35 11.85 17.25 11.75 17.15 11.6 17.05 11.5 16.9 11.35 16.8 11.2 16.65 11.1 16.5 10.95 16.4 10.8 16.25 L8.85 14.15 Q9.2 14.05 9.5 13.95 9.85 13.85 10.1 13.7 10.35 13.55 10.6 13.35 10.8 13.15 11.0 12.95 11.15 12.75 11.3 12.5 11.45 12.25 11.5 11.95 11.6 11.7 11.65 11.4 11.7 11.05 11.7 10.7 L11.7 10.7 Q11.7 10.4 11.65 10.15 11.65 9.9 11.55 9.65 11.5 9.4 11.35 9.2 11.25 8.95 11.1 8.75 11.0 8.55 10.8 8.35 10.6 8.2 10.4 8.0 10.2 7.85 9.95 7.7 9.65 7.55 9.4 7.45 9.3 7.4 9.15 7.4 9.05 7.35 8.9 7.3 8.75 7.3 8.55 7.25 8.35 7.25 8.15 7.25 7.95 7.2 7.75 7.2 7.5 7.2 7.25 7.15 7.0 7.15 6.75 7.15 6.45 7.15 6.15 7.15 L6.0 7.15 Q5.9 7.15 5.75 7.15 5.5 7.15 5.5 7.15 L5.5 7.15 M16.9 8.15 L17.8 8.15 Q17.85 8.15 17.9 8.15 18.0 8.15 18.05 8.15 18.1 8.15 18.15 8.2 18.2 8.2 18.25 8.2 18.3 8.2 18.35 8.2 18.4 8.2 18.45 8.2 18.5 8.25 18.55 8.25 18.6 8.25 18.6 8.25 18.65 8.25 18.7 8.3 18.7 8.3 18.75 8.3 18.8 8.35 18.85 8.35 18.85 8.4 18.9 8.4 18.95 8.45 19.0 8.45 19.0 8.5 19.05 8.55 19.1 8.55 19.15 8.6 19.15 8.65 19.2 8.65 19.25 8.7 19.3 8.8 19.4 8.85 19.4 8.9 19.45 9.0 19.5 9.05 19.55 9.15 19.6 9.2 19.6 9.3 19.65 9.4 19.65 9.45 19.65 9.55 19.7 9.65 19.7 9.75 19.7 9.8 19.7 9.9 19.7 10.0 19.7 10.1 19.7 10.2 19.7 10.25 19.7 10.35 19.65 10.45 19.65 10.5 19.65 10.55 19.65 10.65 19.6 10.7 19.6 10.75 19.55 10.85 19.55 10.9 19.5 10.95 19.5 11.0 19.45 11.05 19.4 11.1 19.4 11.15 19.35 11.15 19.3 11.2 19.25 11.25 19.2 11.3 19.1 11.35 19.05 11.4 18.95 11.45 18.9 11.5 18.8 11.55 18.7 11.6 18.6 11.65 18.5 11.65 18.4 11.7 18.25 11.75 18.15 11.8 18.05 11.85 17.95 11.9 17.85 11.95 17.75 12.0 17.65 12.0 17.55 12.05 17.45 12.05 17.4 12.1 17.3 12.1 17.25 12.15 17.15 12.15 17.1 12.15 17.05 12.15 17.0 12.15 16.95 12.15 16.9 12.2 16.9 10.2 L16.9 8.15 M18.15 13.05 Q18.25 13.05 18.35 13.05 18.45 13.05 18.55 13.1 18.6 13.1 18.7 13.1 18.8 13.15 18.9 13.15 18.95 13.2 19.05 13.25 19.15 13.25 19.2 13.3 19.3 13.35 19.35 13.4 19.4 13.45 19.5 13.5 19.6 13.6 19.7 13.7 19.75 13.8 19.85 13.9 19.9 14.0 19.95 14.1 20.05 14.2 20.1 14.35 20.1 14.45 20.15 14.6 20.2 14.7 20.25 14.85 20.25 15.0 20.25 15.15 20.3 15.3 20.3 15.45 20.3 15.55 20.3 15.65 20.3 15.75 20.25 15.9 20.25 16.0 20.2 16.1 20.2 16.2 20.15 16.3 20.15 16.4 20.1 16.5 20.05 16.6 20.0 16.7 19.95 16.8 19.9 16.9 19.85 17.0 19.8 17.05 19.75 17.15 19.65 17.25 19.6 17.3 19.55 17.4 19.45 17.45 19.4 17.55 19.3 17.6 19.25 17.65 19.15 17.7 19.05 17.7 18.95 17.75 18.85 17.75 18.75 17.8 18.65 17.8 18.55 17.8 18.45 17.8 18.35 17.8 18.25 17.8 18.15 17.8 18.05 17.8 17.95 17.75 17.9 17.75 17.8 17.7 17.7 17.7 17.65 17.65 17.6 17.6 17.5 17.55 17.45 17.5 17.4 17.45 17.35 17.4 17.3 17.35 17.3 17.3 17.25 17.2 17.2 17.1 17.15 16.95 17.1 16.8 17.05 16.65 17.05 16.45 17.0 16.25 16.95 16.0 16.95 15.8 16.9 15.5 16.9 15.25 16.9 14.95 16.85 14.65 16.85 14.3 16.85 13.95 16.85 13.55 16.9 13.5 16.95 13.45 17.05 13.4 17.1 13.35 17.15 13.3 17.25 13.25 17.3 13.2 17.4 13.2 17.5 13.15 17.55 13.15 17.65 13.1 17.75 13.1 17.85 13.1 17.95 13.05 18.05 13.05 18.15 13.05 L18.15 13.05" fill="#ffffff" fill-rule="evenodd" stroke="none"/>
  </g>
</svg>
