<?xml version="1.0" encoding="UTF-8" standalone="no"?>
<svg xmlns:ffdec="https://www.free-decompiler.com/flash" xmlns:xlink="http://www.w3.org/1999/xlink" ffdec:objectType="shape" height="26.0px" width="26.0px" xmlns="http://www.w3.org/2000/svg">
  <g transform="matrix(1.0, 0.0, 0.0, 1.0, 0.0, 0.0)">
    <path d="M13.3 5.5 Q13.3 5.45 13.25 5.45 13.25 5.45 13.2 5.45 13.2 5.45 13.15 5.5 13.1 5.5 13.05 5.55 13.0 5.6 12.95 5.65 12.9 5.7 12.85 5.8 12.85 5.85 12.8 5.9 12.75 5.95 12.75 6.05 12.5 6.55 12.2 7.65 11.85 8.75 11.85 9.0 11.85 9.05 11.85 9.1 11.85 9.15 11.85 9.2 11.85 9.2 11.9 9.25 11.9 9.3 11.9 9.3 11.95 9.35 11.95 9.35 12.0 9.35 12.0 9.4 12.05 9.4 12.1 9.4 12.1 9.4 12.15 9.4 L12.15 9.4 Q12.2 9.4 12.25 9.4 12.3 9.35 12.35 9.35 12.4 9.3 12.5 9.25 12.55 9.25 12.6 9.15 12.7 9.1 12.8 9.05 12.85 8.95 12.95 8.9 13.05 8.8 13.15 8.7 13.25 8.6 13.35 8.45 13.45 8.35 13.55 8.25 13.65 8.15 13.75 8.05 13.85 7.95 13.95 7.9 14.05 7.85 14.15 7.75 14.25 7.7 14.35 7.65 14.4 7.6 14.5 7.6 14.6 7.55 14.65 7.55 14.75 7.55 14.85 7.55 L15.45 7.55 15.45 12.75 Q15.45 17.9 15.3 18.2 15.3 18.25 15.25 18.25 15.2 18.3 15.2 18.3 15.15 18.35 15.1 18.4 15.05 18.4 15.0 18.45 14.95 18.45 14.9 18.5 14.85 18.5 14.8 18.55 14.7 18.55 14.65 18.6 14.6 18.6 14.5 18.65 14.45 18.65 14.35 18.7 14.3 18.7 14.25 18.75 14.2 18.75 14.15 18.8 14.1 18.8 14.05 18.85 14.0 18.85 14.0 18.9 13.95 18.95 13.95 18.95 13.9 19.0 13.9 19.05 13.9 19.1 13.9 19.15 13.9 19.2 13.9 19.2 13.9 19.25 13.95 19.3 13.95 19.3 14.0 19.35 14.0 19.35 14.05 19.4 14.1 19.4 14.15 19.45 14.2 19.45 14.25 19.5 14.3 19.5 14.4 19.55 14.45 19.55 14.55 19.55 15.2 19.7 18.35 19.7 18.45 19.7 18.5 19.7 18.6 19.7 18.65 19.65 18.7 19.65 18.8 19.65 18.85 19.65 18.9 19.65 18.95 19.65 18.95 19.6 19.0 19.6 19.05 19.6 19.05 19.6 19.1 19.55 19.1 19.55 19.1 19.55 19.1 19.55 19.1 19.55 19.15 19.5 19.15 19.5 19.15 19.5 19.15 19.45 19.15 19.45 19.15 19.4 19.15 19.4 19.2 19.35 19.2 19.35 19.2 19.3 19.2 19.3 19.2 19.25 19.2 19.2 19.2 19.15 19.2 19.1 19.15 19.05 19.15 19.0 19.1 18.95 19.1 18.9 19.05 18.85 19.05 18.8 19.0 18.75 18.95 18.75 18.95 18.7 18.9 18.7 18.85 18.65 18.8 18.65 18.75 18.65 18.7 18.6 18.65 18.6 18.6 18.6 18.45 18.55 18.35 18.5 18.3 18.5 18.3 18.5 18.25 18.5 18.2 18.45 18.2 18.45 18.15 18.45 18.1 18.4 18.1 18.4 18.05 18.35 17.9 18.2 17.85 18.1 17.85 18.0 17.7 17.45 17.6 16.2 17.6 12.8 L17.6 7.55 18.15 7.55 Q18.2 7.55 18.3 7.55 18.35 7.55 18.45 7.55 18.5 7.6 18.6 7.6 18.65 7.6 18.7 7.65 18.8 7.65 18.85 7.7 18.9 7.75 19.0 7.75 19.05 7.8 19.1 7.85 19.15 7.9 19.2 7.95 19.25 8.0 19.3 8.05 19.35 8.1 19.4 8.15 19.45 8.2 19.5 8.25 19.55 8.3 19.6 8.35 19.6 8.4 19.65 8.45 19.65 8.5 19.7 8.6 19.7 8.65 19.75 8.7 19.75 8.75 19.75 8.8 19.75 8.9 19.8 8.95 19.8 9.0 19.8 9.05 19.8 9.15 19.85 9.2 19.85 9.25 19.85 9.25 19.9 9.3 19.9 9.35 19.9 9.4 19.95 9.4 19.95 9.45 19.95 9.5 19.95 9.5 20.0 9.5 20.0 9.55 20.05 9.55 20.1 9.6 20.1 9.6 20.15 9.6 20.2 9.6 20.25 9.6 20.3 9.55 20.35 9.55 20.4 9.5 20.45 9.5 20.5 9.45 20.55 9.4 20.6 9.3 20.65 9.25 20.75 9.15 20.8 9.05 20.85 8.9 20.9 8.8 20.95 8.65 21.0 8.55 21.05 8.4 21.15 8.2 21.2 8.05 21.65 6.5 21.65 6.15 21.65 6.1 21.65 6.05 21.65 6.0 21.65 5.95 21.65 5.9 21.6 5.9 21.6 5.85 21.6 5.8 21.6 5.75 21.6 5.75 21.55 5.7 21.55 5.7 21.55 5.65 21.5 5.65 21.5 5.65 21.45 5.65 21.45 5.6 21.4 5.6 21.4 5.55 21.35 5.55 21.3 5.55 21.25 5.55 21.2 5.55 21.2 5.6 21.15 5.6 21.15 5.6 21.1 5.6 21.05 5.65 21.05 5.65 21.0 5.7 21.0 5.7 20.95 5.75 20.9 5.75 20.85 5.8 20.85 5.85 20.8 5.85 20.75 5.9 20.7 5.95 20.65 6.0 20.6 6.0 20.55 6.05 20.5 6.1 20.45 6.1 20.4 6.15 20.35 6.2 20.3 6.2 20.25 6.2 20.2 6.25 20.15 6.25 20.1 6.25 20.0 6.3 19.95 6.3 19.9 6.3 19.8 6.3 19.3 6.4 17.05 6.4 15.0 6.4 14.45 6.35 14.4 6.35 14.35 6.35 14.3 6.3 14.25 6.3 14.2 6.3 14.15 6.25 14.1 6.25 14.1 6.2 14.05 6.15 14.0 6.15 13.95 6.1 13.95 6.05 13.9 6.05 13.85 6.0 13.85 5.95 13.85 5.9 13.8 5.85 13.8 5.8 13.75 5.8 13.7 5.75 13.65 5.75 13.6 5.75 13.55 5.75 13.5 5.7 13.45 5.7 13.4 5.7 13.35 5.65 13.35 5.65 13.3 5.6 13.3 5.6 13.3 5.55 13.3 5.5 L13.3 5.5 M7.05 6.45 Q5.5 6.45 5.0 6.5 4.95 6.5 4.9 6.5 4.8 6.55 4.75 6.55 4.7 6.55 4.65 6.55 4.65 6.6 4.6 6.6 4.55 6.6 4.55 6.65 4.5 6.65 4.5 6.7 4.45 6.7 4.45 6.75 4.45 6.75 4.4 6.8 4.35 7.0 4.35 7.1 4.35 7.15 4.4 7.2 4.4 7.2 4.45 7.25 4.5 7.3 4.6 7.35 4.65 7.35 4.65 7.35 4.7 7.4 4.7 7.4 4.75 7.4 4.8 7.4 4.8 7.45 4.85 7.45 4.9 7.5 4.95 7.5 5.0 7.5 5.05 7.55 5.1 7.55 5.15 7.6 5.2 7.6 5.25 7.65 L5.8 7.95 5.8 18.2 5.05 18.55 Q4.95 18.6 4.9 18.6 4.8 18.65 4.75 18.7 4.7 18.75 4.65 18.75 4.6 18.8 4.55 18.85 4.5 18.85 4.45 18.9 4.45 18.95 4.4 19.0 4.4 19.05 4.4 19.05 4.4 19.1 4.4 19.15 4.4 19.2 4.4 19.2 4.4 19.25 4.4 19.3 4.45 19.3 4.45 19.35 4.5 19.35 4.5 19.4 4.55 19.4 4.6 19.45 4.65 19.45 4.7 19.45 4.7 19.5 4.8 19.5 4.85 19.5 4.9 19.5 5.4 19.6 7.8 19.65 9.95 19.7 10.85 19.75 10.95 19.75 11.0 19.8 11.1 19.8 11.15 19.8 11.2 19.8 11.25 19.85 11.35 19.85 11.35 19.85 11.4 19.9 11.45 19.9 11.5 19.95 11.5 19.95 11.55 19.95 11.55 20.0 11.55 20.0 11.55 20.05 11.55 20.1 11.55 20.15 11.55 20.2 11.6 20.25 11.6 20.3 11.6 20.35 11.65 20.4 11.7 20.4 11.7 20.45 11.75 20.45 11.8 20.5 11.85 20.5 11.85 20.5 11.9 20.55 12.0 20.55 12.05 20.55 12.05 20.55 12.1 20.55 12.1 20.55 12.1 20.55 12.15 20.55 12.15 20.5 12.2 20.5 12.2 20.5 12.25 20.5 12.25 20.45 12.3 20.45 12.3 20.45 12.35 20.4 12.35 20.4 12.4 20.35 12.4 20.35 12.45 20.35 12.45 20.3 12.5 20.25 12.55 20.15 12.6 20.1 12.65 20.0 12.7 19.9 12.75 19.75 12.8 19.65 12.85 19.5 12.9 19.35 12.95 19.2 13.0 19.0 13.05 18.8 13.15 18.6 13.2 18.4 13.75 16.65 13.75 16.35 13.75 16.05 13.75 16.05 13.7 16.0 13.7 16.0 13.65 15.95 13.65 15.9 13.6 15.9 13.6 15.85 13.55 15.85 13.55 15.85 13.5 15.85 13.45 15.8 13.45 15.8 13.4 15.8 13.35 15.8 13.3 15.85 13.3 15.85 13.25 15.85 13.2 15.85 13.15 15.9 13.15 15.9 13.1 15.9 13.05 15.95 13.0 15.95 13.0 16.0 12.95 16.05 12.9 16.1 12.9 16.1 12.85 16.15 12.8 16.2 12.75 16.25 12.75 16.3 12.7 16.35 12.65 16.45 12.5 16.7 12.3 16.95 12.15 17.15 11.95 17.35 11.75 17.55 11.55 17.7 11.35 17.9 11.15 18.0 10.95 18.15 10.75 18.25 10.5 18.35 10.3 18.4 10.05 18.45 9.8 18.5 9.55 18.55 9.3 18.55 9.25 18.55 9.2 18.55 9.15 18.55 9.1 18.5 9.05 18.5 9.0 18.5 8.95 18.5 8.9 18.45 8.9 18.45 8.85 18.45 8.85 18.4 8.8 18.4 8.8 18.4 8.75 18.35 8.7 18.35 8.7 18.3 8.65 18.3 8.6 18.25 8.6 18.2 8.55 18.15 8.5 18.1 8.45 18.05 8.4 18.0 8.4 17.95 8.35 17.9 8.3 17.85 8.25 17.8 8.2 17.75 8.2 17.65 8.15 17.6 8.1 17.55 8.1 17.5 8.05 17.45 8.05 17.35 8.0 17.3 8.0 17.25 8.0 17.15 8.0 17.1 7.95 17.05 7.95 16.95 7.9 15.45 7.9 15.25 7.9 14.85 7.9 14.05 7.95 13.15 7.95 12.65 L8.0 7.9 8.75 7.6 Q8.85 7.55 8.9 7.5 9.0 7.5 9.1 7.45 9.15 7.4 9.2 7.35 9.25 7.3 9.3 7.25 9.35 7.2 9.4 7.15 9.45 7.1 9.45 7.05 9.45 7.0 9.5 6.95 9.5 6.9 9.5 6.85 9.5 6.8 9.5 6.8 9.5 6.75 9.45 6.7 9.45 6.7 9.45 6.65 9.4 6.65 9.4 6.6 9.35 6.6 9.35 6.6 9.3 6.55 9.25 6.55 9.2 6.55 9.15 6.5 9.1 6.5 9.05 6.5 8.65 6.45 7.05 6.45 L7.05 6.45" fill="#ffffff" fill-rule="evenodd" stroke="none"/>
  </g>
</svg>
