<?xml version="1.0" encoding="UTF-8" standalone="no"?>
<svg xmlns:ffdec="https://www.free-decompiler.com/flash" xmlns:xlink="http://www.w3.org/1999/xlink" ffdec:objectType="shape" height="26.0px" width="26.0px" xmlns="http://www.w3.org/2000/svg">
  <g transform="matrix(1.0, 0.0, 0.0, 1.0, 0.0, 0.0)">
    <path d="M14.3 5.45 Q14.3 5.4 14.3 5.4 14.3 5.4 14.25 5.4 14.2 5.4 14.2 5.45 14.15 5.45 14.1 5.5 14.05 5.55 14.0 5.6 13.95 5.65 13.95 5.7 13.9 5.8 13.85 5.85 13.8 5.9 13.8 5.95 13.55 6.6 13.25 7.5 12.95 8.65 12.95 8.8 12.95 8.85 12.95 8.9 12.95 8.95 12.95 8.95 13.0 9.0 13.0 9.05 13.0 9.05 13.0 9.1 13.05 9.1 13.05 9.1 13.1 9.15 13.1 9.15 13.15 9.15 13.2 9.2 13.2 9.2 13.25 9.2 L13.25 9.2 Q13.3 9.2 13.35 9.2 13.4 9.15 13.45 9.15 13.5 9.1 13.55 9.05 13.65 9.0 13.7 8.95 13.75 8.9 13.85 8.85 13.95 8.75 14.0 8.7 14.1 8.6 14.2 8.5 14.3 8.4 14.4 8.3 14.5 8.2 14.6 8.1 14.7 8.0 14.8 7.9 14.9 7.8 15.0 7.75 15.05 7.7 15.15 7.6 15.25 7.55 15.35 7.5 15.4 7.5 15.5 7.45 15.6 7.4 15.65 7.4 15.75 7.4 15.8 7.4 L16.4 7.4 16.4 12.35 Q16.4 17.3 16.25 17.55 16.25 17.6 16.2 17.6 16.15 17.65 16.15 17.7 16.1 17.7 16.05 17.75 16.0 17.75 15.95 17.8 15.9 17.8 15.85 17.85 15.8 17.85 15.75 17.9 15.7 17.9 15.65 17.95 15.55 17.95 15.5 18.0 15.45 18.0 15.35 18.05 15.3 18.05 15.25 18.1 15.2 18.1 15.15 18.15 15.1 18.15 15.05 18.2 15.0 18.2 15.0 18.25 14.95 18.3 14.95 18.3 14.95 18.35 14.9 18.4 14.9 18.4 14.9 18.45 14.9 18.5 14.9 18.5 14.9 18.55 14.95 18.6 14.95 18.65 15.0 18.65 15.0 18.7 15.05 18.7 15.1 18.75 15.15 18.75 15.2 18.8 15.25 18.8 15.3 18.8 15.4 18.85 15.45 18.85 15.55 18.9 16.35 19.0 19.15 19.0 19.25 19.0 19.3 19.0 19.4 19.0 19.45 19.0 19.5 19.0 19.55 18.95 19.6 18.95 19.65 18.95 19.7 18.95 19.75 18.95 19.8 18.9 19.8 18.9 19.85 18.9 19.85 18.9 19.9 18.85 19.9 18.85 19.9 18.85 19.9 18.85 19.9 18.8 19.95 18.8 19.95 18.8 19.95 18.8 19.95 18.75 19.95 18.75 19.95 18.7 19.95 18.7 19.95 18.65 19.95 18.65 19.95 18.6 19.95 18.6 19.95 18.55 19.95 18.5 19.95 18.45 19.9 18.4 19.9 18.35 19.9 18.3 19.85 18.25 19.85 18.2 19.8 18.15 19.8 18.15 19.75 18.1 19.7 18.05 19.7 18.05 19.65 18.0 19.6 18.0 19.55 18.0 19.5 17.95 19.45 17.95 19.2 17.9 19.15 17.85 19.1 17.85 19.1 17.85 19.05 17.85 19.0 17.8 19.0 17.8 18.95 17.8 18.9 17.75 18.9 17.7 18.85 17.65 18.85 17.65 18.8 17.65 18.75 17.6 18.75 17.6 18.75 17.55 18.7 17.55 18.7 17.5 18.65 17.25 18.55 16.85 18.45 15.75 18.45 12.4 L18.45 7.4 18.95 7.4 Q19.0 7.4 19.1 7.4 19.15 7.4 19.25 7.4 19.3 7.45 19.35 7.45 19.45 7.45 19.5 7.5 19.55 7.5 19.65 7.55 19.7 7.6 19.75 7.6 19.8 7.65 19.9 7.7 19.95 7.75 20.0 7.8 20.05 7.85 20.1 7.9 20.15 7.95 20.2 8.0 20.25 8.05 20.25 8.1 20.3 8.15 20.35 8.2 20.4 8.25 20.4 8.3 20.45 8.35 20.45 8.4 20.5 8.45 20.5 8.5 20.5 8.55 20.5 8.6 20.5 8.65 20.55 8.75 20.55 8.8 20.55 8.85 20.55 8.9 20.6 8.95 20.6 9.0 20.6 9.05 20.65 9.1 20.65 9.15 20.65 9.15 20.65 9.2 20.7 9.2 20.7 9.25 20.7 9.25 20.75 9.3 20.75 9.3 20.8 9.35 20.8 9.35 20.85 9.35 20.9 9.35 20.95 9.35 21.0 9.35 21.05 9.35 21.1 9.35 21.15 9.3 21.2 9.25 21.25 9.2 21.3 9.15 21.35 9.1 21.4 9.0 21.45 8.95 21.5 8.85 21.55 8.7 21.6 8.6 21.65 8.5 21.7 8.35 21.75 8.2 21.8 8.05 21.9 7.85 22.3 6.4 22.3 6.1 22.3 6.05 22.3 6.0 22.3 5.95 22.3 5.9 22.3 5.85 22.3 5.8 22.3 5.8 22.25 5.75 22.25 5.7 22.25 5.7 22.25 5.65 22.2 5.65 22.2 5.6 22.2 5.6 22.15 5.6 22.15 5.6 22.15 5.55 22.1 5.55 22.05 5.5 22.0 5.5 21.95 5.5 21.9 5.5 21.9 5.5 21.85 5.5 21.85 5.55 21.8 5.55 21.8 5.55 21.75 5.6 21.75 5.6 21.7 5.65 21.65 5.65 21.65 5.7 21.6 5.7 21.55 5.75 21.55 5.75 21.5 5.8 21.45 5.85 21.4 5.85 21.35 5.9 21.3 5.95 21.3 5.95 21.25 6.0 21.2 6.05 21.15 6.05 21.1 6.1 21.05 6.1 21.0 6.15 20.95 6.15 20.9 6.15 20.8 6.2 20.75 6.2 20.7 6.2 20.65 6.25 20.55 6.25 19.95 6.3 17.95 6.3 16.0 6.3 15.45 6.25 15.4 6.25 15.35 6.25 15.3 6.2 15.25 6.2 15.2 6.2 15.15 6.15 15.1 6.15 15.1 6.1 15.05 6.1 15.0 6.05 15.0 6.05 14.95 6.0 14.9 5.95 14.9 5.9 14.85 5.85 14.85 5.8 14.85 5.75 14.8 5.75 14.75 5.7 14.7 5.7 14.65 5.7 14.6 5.65 14.6 5.65 14.55 5.65 14.5 5.65 14.45 5.6 14.4 5.6 14.4 5.6 14.35 5.55 14.35 5.55 14.3 5.5 14.3 5.45 L14.3 5.45 M5.5 6.3 Q5.25 6.3 5.0 6.3 4.75 6.3 4.55 6.3 4.35 6.35 4.15 6.35 4.0 6.35 3.85 6.35 3.7 6.4 3.6 6.4 3.5 6.45 3.4 6.45 3.35 6.5 3.3 6.55 3.25 6.55 3.25 6.6 3.25 6.65 3.2 6.65 3.2 6.7 3.2 6.75 3.2 6.8 3.2 6.85 3.2 6.85 3.2 6.9 3.2 6.9 3.2 6.9 3.2 6.9 3.2 6.95 3.25 6.95 3.25 7.0 3.25 7.0 3.25 7.0 3.3 7.05 3.3 7.05 3.35 7.1 3.35 7.1 3.4 7.15 3.4 7.15 3.45 7.2 3.45 7.2 3.5 7.25 3.5 7.25 3.55 7.3 3.55 7.3 3.6 7.3 3.65 7.35 3.65 7.35 3.7 7.35 3.75 7.4 3.75 7.4 3.8 7.4 3.85 7.4 3.9 7.45 3.95 7.45 4.0 7.45 4.05 7.45 4.1 7.45 4.15 7.5 4.2 7.5 4.2 7.5 4.25 7.55 4.25 7.55 4.3 7.55 4.3 7.6 4.3 7.6 4.35 7.65 4.35 7.7 4.35 7.75 4.4 7.8 4.4 7.85 4.4 7.9 4.45 8.0 4.5 8.35 4.5 10.95 L4.5 13.9 Q4.5 16.15 4.45 16.75 L4.4 17.3 Q4.4 17.35 4.4 17.4 4.4 17.45 4.4 17.5 4.35 17.55 4.35 17.55 4.35 17.6 4.35 17.65 4.35 17.65 4.3 17.7 4.3 17.7 4.3 17.7 4.25 17.75 4.25 17.75 4.25 17.75 4.25 17.75 4.2 17.75 4.2 17.8 4.2 17.8 4.15 17.8 4.15 17.8 4.15 17.8 4.1 17.8 4.1 17.8 4.05 17.85 4.0 17.85 4.0 17.85 3.95 17.85 3.9 17.85 3.9 17.85 3.85 17.85 3.8 17.85 3.8 17.85 3.75 17.9 3.7 17.9 3.7 17.9 3.65 17.9 3.6 17.95 3.6 17.95 3.55 17.95 3.55 18.0 3.5 18.0 3.5 18.0 3.45 18.05 3.45 18.05 3.4 18.1 3.35 18.15 3.35 18.15 3.3 18.2 3.3 18.25 3.25 18.25 3.25 18.3 3.2 18.3 3.2 18.35 3.2 18.35 3.2 18.4 3.2 18.4 3.2 18.45 3.2 18.45 3.2 18.5 3.2 18.55 3.25 18.7 3.25 18.7 3.25 18.75 3.3 18.75 3.3 18.75 3.3 18.8 3.35 18.8 3.35 18.8 3.4 18.8 3.4 18.85 3.45 18.85 3.5 18.85 3.5 18.85 3.55 18.85 3.6 18.9 3.65 18.9 3.7 18.9 4.15 18.95 6.05 18.95 6.3 18.95 6.5 18.95 6.75 18.95 6.95 18.95 7.1 18.95 7.3 18.95 7.45 18.9 7.6 18.9 7.7 18.9 7.8 18.85 7.9 18.85 8.0 18.85 8.05 18.8 8.1 18.8 8.15 18.75 8.2 18.75 8.2 18.7 8.25 18.7 8.25 18.65 8.25 18.65 8.25 18.6 8.25 18.55 8.25 18.5 8.25 18.5 8.25 18.45 8.2 18.4 8.2 18.4 8.15 18.35 8.15 18.3 8.1 18.25 8.1 18.2 8.05 18.2 8.0 18.15 8.0 18.1 7.95 18.1 7.9 18.05 7.85 18.05 7.8 18.0 7.75 18.0 7.75 17.95 7.7 17.95 7.65 17.9 7.6 17.9 7.55 17.9 7.5 17.9 7.45 17.9 7.4 17.85 7.35 17.85 7.3 17.85 7.25 17.85 7.2 17.85 7.15 17.8 7.15 17.8 7.1 17.8 7.05 17.75 7.0 17.7 6.95 17.65 6.95 17.6 6.9 17.55 6.85 17.5 6.85 17.45 6.8 17.35 6.75 17.3 6.7 17.2 6.7 17.1 6.65 17.05 6.65 16.95 6.6 16.9 6.6 16.8 6.6 16.75 6.6 16.65 6.55 16.6 6.55 16.5 6.55 16.45 6.55 16.35 6.5 16.3 6.5 16.2 6.5 16.15 6.5 16.05 6.5 16.0 L6.55 13.95 6.55 7.35 7.15 7.45 Q8.1 7.65 8.15 7.65 8.2 7.7 8.3 7.8 8.35 7.85 8.5 7.95 8.6 8.05 8.8 8.15 8.95 8.25 9.05 8.35 9.2 8.45 9.3 8.55 9.4 8.7 9.5 8.8 9.55 8.95 9.65 9.1 9.7 9.25 9.75 9.4 9.85 9.55 9.85 9.7 9.9 9.9 9.9 10.05 9.95 10.25 9.95 10.45 9.95 10.65 9.95 10.8 9.9 11.0 9.85 11.15 9.85 11.35 9.8 11.5 9.75 11.65 9.65 11.75 9.6 11.9 9.5 12.05 9.4 12.15 9.3 12.25 9.2 12.35 9.05 12.45 8.95 12.55 8.8 12.65 8.6 12.75 8.45 12.85 8.3 12.95 8.15 13.0 8.0 13.1 7.9 13.2 7.8 13.25 7.7 13.35 7.6 13.4 7.55 13.45 7.45 13.5 7.45 13.6 7.4 13.65 7.35 13.7 7.35 13.75 7.35 13.75 7.35 13.8 7.35 13.85 7.35 13.9 7.35 13.95 7.35 14.0 7.4 14.1 7.45 14.15 7.5 14.3 7.55 14.4 7.6 14.5 7.7 14.65 7.75 14.8 7.85 14.95 8.0 15.1 8.1 15.25 8.2 15.45 8.35 15.65 8.5 15.85 8.65 16.05 8.8 16.25 8.9 16.45 9.05 16.65 9.15 16.85 9.25 17.0 9.35 17.15 9.45 17.3 9.55 17.45 9.6 17.6 9.65 17.7 9.7 17.8 9.75 17.95 9.8 18.05 9.85 18.1 9.85 18.2 L10.0 18.85 11.8 18.85 Q12.95 18.85 13.35 18.8 13.4 18.8 13.45 18.75 13.5 18.75 13.5 18.75 13.55 18.7 13.6 18.7 13.6 18.7 13.65 18.65 13.65 18.65 13.7 18.6 13.7 18.6 13.7 18.55 13.7 18.55 13.75 18.5 13.75 18.45 13.75 18.45 13.75 18.4 13.75 18.35 13.7 18.35 13.7 18.3 13.65 18.25 13.65 18.2 13.6 18.2 13.55 18.15 13.5 18.1 13.45 18.05 13.4 18.05 13.3 18.0 13.25 17.95 13.15 17.9 13.05 17.85 12.95 17.85 12.85 17.8 12.75 17.75 12.65 17.65 12.55 17.6 12.45 17.5 12.35 17.45 12.25 17.35 12.1 17.25 12.0 17.1 11.85 17.0 11.7 16.85 11.55 16.75 11.4 16.6 11.25 16.45 11.1 16.3 10.95 16.15 L8.85 13.9 Q9.25 13.8 9.6 13.7 9.9 13.55 10.2 13.4 10.5 13.2 10.75 13.0 11.0 12.8 11.15 12.6 11.35 12.35 11.5 12.1 11.65 11.8 11.75 11.5 11.85 11.2 11.9 10.9 11.95 10.55 11.95 10.15 11.95 9.85 11.9 9.55 11.85 9.25 11.8 9.0 11.7 8.75 11.6 8.5 11.5 8.25 11.3 8.05 11.15 7.8 10.95 7.6 10.75 7.4 10.55 7.25 10.3 7.05 10.0 6.9 9.75 6.75 9.45 6.6 9.35 6.55 9.2 6.55 9.05 6.5 8.9 6.45 8.7 6.45 8.55 6.4 8.35 6.4 8.1 6.4 7.9 6.35 7.65 6.35 7.4 6.35 7.15 6.3 6.9 6.3 6.6 6.3 6.3 6.3 5.95 6.3 L5.8 6.3 Q5.65 6.3 5.5 6.3 L5.5 6.3" fill="#ffffff" fill-rule="evenodd" stroke="none"/>
  </g>
</svg>
