<?xml version="1.0" encoding="UTF-8" standalone="no"?>
<svg xmlns:ffdec="https://www.free-decompiler.com/flash" xmlns:xlink="http://www.w3.org/1999/xlink" ffdec:objectType="shape" height="26.0px" width="41.75px" xmlns="http://www.w3.org/2000/svg">
  <g transform="matrix(1.0, 0.0, 0.0, 1.0, 0.0, 0.0)">
    <path d="M11.65 16.3 L11.4 15.1 Q11.4 15.05 11.4 15.05 11.4 15.0 11.4 14.95 11.4 14.95 11.4 14.9 11.4 14.85 11.4 14.85 11.4 14.8 11.4 14.8 11.4 14.75 11.4 14.7 11.4 14.7 11.4 14.65 11.4 14.65 11.4 14.6 11.45 14.35 12.7 12.95 13.95 11.5 14.3 10.8 14.35 10.7 14.4 10.65 14.45 10.55 14.45 10.45 14.5 10.35 14.55 10.25 14.55 10.15 14.55 10.05 14.6 9.9 14.6 9.8 14.6 9.7 14.6 9.55 14.6 9.45 14.6 9.3 14.6 9.15 14.55 9.05 14.55 8.9 14.5 8.75 14.45 8.65 14.45 8.5 14.4 8.4 14.35 8.25 14.25 8.15 14.2 8.0 14.15 7.9 14.05 7.8 13.95 7.65 13.85 7.55 13.8 7.45 13.65 7.35 13.55 7.25 13.45 7.15 13.3 7.0 13.1 6.9 12.95 6.8 12.75 6.7 12.55 6.6 12.4 6.55 12.2 6.5 12.0 6.45 11.8 6.4 11.6 6.35 11.35 6.3 11.15 6.3 10.9 6.3 10.7 6.3 10.45 6.35 10.2 6.35 9.9 6.4 9.6 6.45 9.3 6.55 9.05 6.6 8.8 6.7 8.55 6.8 8.3 6.9 8.1 7.05 7.85 7.2 7.65 7.35 7.45 7.5 7.3 7.65 7.1 7.8 6.95 8.0 6.8 8.2 6.65 8.4 6.55 8.5 6.5 8.65 6.45 8.75 6.35 8.85 6.3 9.0 6.25 9.1 6.2 9.2 6.2 9.3 6.15 9.4 6.1 9.5 6.1 9.6 6.1 9.7 6.1 9.8 6.1 9.9 6.1 10.0 6.1 10.1 6.1 10.2 6.15 10.3 6.15 10.35 6.15 10.45 6.2 10.55 6.25 10.6 6.25 10.7 6.3 10.75 6.35 10.85 6.4 10.95 6.45 11.0 6.5 11.05 6.55 11.15 6.65 11.2 6.7 11.3 6.75 11.35 6.85 11.4 6.9 11.45 7.0 11.5 7.05 11.55 7.1 11.6 7.2 11.65 7.25 11.7 7.35 11.7 7.4 11.75 7.45 11.75 7.55 11.8 7.6 11.8 7.65 11.8 7.7 11.8 7.8 11.8 7.85 11.8 7.9 11.8 8.0 11.75 8.05 11.75 8.1 11.75 8.15 11.7 8.25 11.65 8.3 11.65 8.35 11.6 8.4 11.55 8.5 11.5 8.55 11.45 8.6 11.4 8.65 11.35 8.75 11.3 8.8 11.2 8.85 11.15 8.9 11.05 9.0 11.0 9.05 10.95 9.1 10.85 9.15 10.8 9.15 10.75 9.2 10.65 9.25 10.6 9.25 10.55 9.3 10.5 9.3 10.45 9.3 10.4 9.35 10.35 9.35 10.3 9.35 10.25 9.35 10.2 9.35 10.15 9.3 10.1 9.3 10.05 9.3 10.0 9.25 9.95 9.25 9.9 9.2 9.85 9.2 9.8 9.15 9.75 9.1 9.7 9.1 9.65 9.05 9.55 9.0 9.5 8.95 9.45 8.9 9.4 8.85 9.35 8.8 9.3 8.75 9.25 8.7 9.2 8.65 9.15 8.6 9.1 8.6 9.05 8.55 9.0 8.55 9.0 8.5 8.95 8.5 8.9 8.45 8.9 8.45 8.85 8.45 8.8 8.4 8.8 8.4 8.75 8.4 8.75 8.4 8.7 8.45 8.65 8.45 8.65 8.5 8.55 8.55 8.5 8.65 8.4 8.7 8.3 8.8 8.2 8.85 8.15 8.9 8.1 8.95 8.05 9.0 8.05 9.05 8.0 9.1 7.95 9.15 7.9 9.2 7.9 9.3 7.85 9.35 7.85 9.4 7.8 9.45 7.8 9.5 7.8 9.6 7.75 9.65 7.75 9.7 7.75 9.75 7.75 9.85 7.75 9.9 7.75 9.95 7.75 10.0 7.75 10.1 7.75 10.15 7.75 10.2 7.75 10.25 7.75 10.35 7.75 10.4 7.8 10.45 7.8 10.5 7.8 10.55 7.85 10.65 7.85 10.7 7.9 10.85 7.95 10.95 8.0 11.05 8.1 11.2 8.15 11.3 8.25 11.35 8.35 11.45 8.45 11.55 8.55 11.6 8.65 11.7 8.75 11.75 8.9 11.8 9.05 11.85 9.15 11.9 9.3 11.9 9.45 11.95 9.65 11.95 9.75 11.95 9.85 11.95 9.9 11.95 10.0 11.95 10.15 11.95 10.25 11.9 10.35 11.9 10.45 11.85 10.6 11.85 10.7 11.8 10.85 11.75 11.0 11.7 11.1 11.65 11.25 11.6 11.4 11.55 11.55 11.5 11.7 11.45 11.85 11.35 12.0 11.3 12.1 11.25 12.25 11.2 12.35 11.15 12.45 11.05 12.55 11.0 12.65 10.95 12.75 10.9 12.85 10.8 12.9 10.75 13.0 10.7 13.05 10.65 13.1 10.55 13.15 10.5 13.2 10.45 13.25 10.4 13.35 10.3 13.4 10.25 13.5 10.2 13.55 10.15 13.65 10.1 13.75 10.0 13.85 9.95 14.0 9.9 14.1 9.8 14.2 9.75 14.35 9.7 14.5 9.6 14.65 9.55 14.8 9.5 14.95 9.45 15.1 9.4 15.25 9.35 15.35 9.3 15.5 9.25 15.6 9.2 15.75 9.2 15.85 9.15 15.95 9.15 16.05 9.1 16.15 9.1 16.25 9.1 16.35 9.1 16.4 9.1 16.5 9.1 16.55 9.1 16.65 9.15 16.7 9.15 16.8 9.15 16.85 9.2 16.95 9.2 17.0 9.25 17.05 9.3 17.1 9.3 17.2 9.35 17.25 9.4 17.3 9.45 17.35 9.5 17.4 9.55 17.45 9.6 17.5 9.65 17.6 9.7 17.65 9.75 17.65 9.85 17.7 9.9 17.75 9.95 17.75 10.05 17.8 10.1 17.8 10.15 17.8 10.25 17.85 10.3 17.85 10.4 17.85 10.45 17.85 10.55 17.85 10.6 17.85 10.7 17.85 10.75 17.85 10.9 17.85 11.0 17.8 11.1 17.75 11.2 17.7 11.3 17.65 11.4 17.55 11.45 17.5 11.5 17.4 11.6 17.3 11.6 17.15 11.65 17.05 11.65 16.9 11.7 16.8 11.7 16.6 11.7 16.45 11.65 16.3 L11.65 16.3 M9.8 19.85 Q9.75 19.95 9.7 20.0 9.65 20.1 9.6 20.15 9.6 20.25 9.55 20.3 9.5 20.35 9.5 20.45 9.5 20.5 9.45 20.6 9.45 20.65 9.45 20.75 9.45 20.8 9.45 20.85 9.45 20.95 9.45 21.0 9.45 21.05 9.45 21.15 9.5 21.2 9.5 21.25 9.55 21.3 9.55 21.4 9.6 21.45 9.65 21.5 9.7 21.55 9.75 21.65 9.8 21.7 9.85 21.75 9.9 21.8 10.0 21.85 10.05 21.9 10.15 22.0 10.25 22.05 10.3 22.1 10.4 22.15 10.45 22.2 10.5 22.2 10.6 22.25 10.65 22.3 10.75 22.3 10.8 22.3 10.9 22.35 10.95 22.35 11.05 22.35 11.1 22.35 11.2 22.35 11.25 22.35 11.3 22.35 11.4 22.35 11.45 22.3 11.5 22.3 11.6 22.3 11.65 22.25 11.75 22.25 11.8 22.2 11.85 22.15 11.9 22.1 12.0 22.1 12.05 22.05 12.1 22.0 12.15 21.95 12.2 21.85 12.25 21.8 12.3 21.75 12.35 21.7 12.4 21.6 12.45 21.55 12.45 21.45 12.5 21.4 12.55 21.35 12.55 21.25 12.55 21.2 12.6 21.15 12.6 21.05 12.6 21.0 12.65 20.9 12.65 20.85 12.65 20.75 12.65 20.7 12.6 20.6 12.6 20.55 12.6 20.45 12.55 20.4 12.55 20.35 12.5 20.25 12.5 20.2 12.45 20.15 12.4 20.1 12.35 20.0 12.3 19.95 12.25 19.9 12.2 19.85 12.15 19.75 12.1 19.7 12.0 19.65 11.95 19.6 11.85 19.55 11.8 19.5 11.75 19.45 11.65 19.4 11.6 19.35 11.5 19.3 11.45 19.3 11.35 19.25 11.3 19.25 11.2 19.2 11.15 19.2 11.1 19.2 11.0 19.2 10.95 19.2 10.85 19.2 10.8 19.2 10.75 19.2 10.65 19.2 10.6 19.25 10.55 19.25 10.5 19.3 10.4 19.35 10.35 19.35 10.3 19.4 10.25 19.45 10.2 19.5 10.1 19.55 10.05 19.6 10.0 19.65 9.95 19.75 9.9 19.8 9.8 19.85 L9.8 19.85" fill="#ffffff" fill-rule="evenodd" stroke="none"/>
    <path d="M21.55 14.95 L21.3 13.8 Q21.3 13.75 21.3 13.7 21.3 13.7 21.3 13.65 21.3 13.6 21.3 13.6 21.3 13.55 21.3 13.5 21.3 13.5 21.3 13.45 21.3 13.4 21.3 13.4 21.3 13.35 21.3 13.35 21.3 13.3 21.3 13.25 21.4 13.0 22.6 11.6 23.8 10.2 24.2 9.5 24.25 9.4 24.3 9.3 24.35 9.25 24.4 9.15 24.4 9.05 24.45 8.95 24.45 8.8 24.5 8.7 24.5 8.6 24.5 8.5 24.5 8.35 24.5 8.25 24.5 8.1 24.5 7.95 24.5 7.85 24.45 7.7 24.45 7.55 24.4 7.45 24.4 7.3 24.35 7.15 24.3 7.05 24.25 6.9 24.2 6.8 24.1 6.7 24.05 6.55 23.95 6.45 23.9 6.35 23.8 6.2 23.7 6.1 23.6 6.0 23.45 5.9 23.35 5.8 23.2 5.65 23.0 5.55 22.85 5.45 22.65 5.35 22.5 5.3 22.3 5.2 22.1 5.15 21.9 5.1 21.7 5.05 21.5 5.0 21.3 5.0 21.05 5.0 20.85 4.95 20.6 5.0 20.35 5.0 20.15 5.05 19.85 5.1 19.55 5.15 19.25 5.2 19.0 5.3 18.7 5.4 18.45 5.5 18.2 5.6 18.0 5.7 17.75 5.85 17.55 6.0 17.35 6.15 17.2 6.3 17.0 6.5 16.85 6.65 16.7 6.85 16.55 7.05 16.45 7.2 16.4 7.3 16.35 7.4 16.3 7.55 16.2 7.65 16.15 7.75 16.15 7.85 16.1 8.0 16.05 8.1 16.05 8.2 16.0 8.3 16.0 8.4 16.0 8.5 16.0 8.6 16.0 8.65 16.0 8.75 16.0 8.85 16.05 8.95 16.05 9.05 16.1 9.1 16.1 9.2 16.15 9.3 16.15 9.35 16.2 9.45 16.25 9.5 16.3 9.6 16.35 9.65 16.4 9.75 16.45 9.8 16.55 9.9 16.6 9.95 16.7 10.0 16.75 10.05 16.85 10.15 16.9 10.2 17.0 10.25 17.05 10.3 17.1 10.3 17.2 10.35 17.25 10.4 17.3 10.4 17.35 10.45 17.45 10.45 17.5 10.45 17.55 10.45 17.65 10.45 17.7 10.45 17.75 10.45 17.8 10.45 17.9 10.45 17.95 10.4 18.0 10.4 18.1 10.35 18.15 10.35 18.2 10.3 18.25 10.25 18.35 10.25 18.4 10.2 18.45 10.15 18.5 10.05 18.6 10.0 18.65 9.95 18.7 9.9 18.8 9.8 18.85 9.75 18.9 9.65 18.95 9.6 19.0 9.5 19.05 9.45 19.1 9.4 19.15 9.35 19.15 9.25 19.2 9.2 19.2 9.15 19.2 9.1 19.25 9.05 19.25 9.0 19.25 8.95 19.25 8.9 19.25 8.85 19.25 8.8 19.25 8.75 19.2 8.7 19.2 8.65 19.2 8.6 19.15 8.55 19.15 8.5 19.1 8.45 19.05 8.4 19.05 8.35 19.0 8.3 18.95 8.25 18.9 8.2 18.85 8.1 18.85 8.05 18.8 8.0 18.75 7.95 18.7 7.9 18.65 7.85 18.6 7.8 18.55 7.75 18.5 7.75 18.45 7.7 18.45 7.65 18.4 7.6 18.4 7.6 18.35 7.55 18.35 7.5 18.35 7.5 18.35 7.45 18.35 7.45 18.3 7.4 18.3 7.3 18.7 6.9 18.75 6.85 18.8 6.8 18.85 6.75 18.9 6.7 18.95 6.65 19.0 6.65 19.05 6.6 19.15 6.55 19.2 6.55 19.25 6.5 19.3 6.5 19.35 6.45 19.4 6.45 19.5 6.45 19.55 6.4 19.6 6.4 19.65 6.4 19.75 6.4 19.8 6.4 19.85 6.4 19.95 6.4 20.0 6.4 20.05 6.4 20.1 6.4 20.2 6.4 20.25 6.45 20.3 6.45 20.35 6.45 20.4 6.5 20.5 6.5 20.55 6.55 20.6 6.55 20.75 6.6 20.85 6.7 21.0 6.75 21.1 6.85 21.2 6.9 21.3 7.0 21.35 7.1 21.45 7.2 21.55 7.3 21.6 7.45 21.65 7.55 21.7 7.7 21.75 7.85 21.8 8.0 21.85 8.15 21.85 8.3 21.85 8.4 21.85 8.5 21.85 8.6 21.85 8.7 21.85 8.8 21.85 8.9 21.85 9.0 21.8 9.15 21.8 9.25 21.75 9.4 21.7 9.5 21.7 9.65 21.65 9.8 21.6 9.95 21.55 10.05 21.45 10.25 21.4 10.4 21.35 10.55 21.3 10.65 21.2 10.8 21.15 10.9 21.1 11.0 21.05 11.15 21.0 11.25 20.9 11.3 20.85 11.4 20.8 11.5 20.75 11.55 20.65 11.65 20.6 11.7 20.55 11.75 20.45 11.8 20.4 11.85 20.35 11.9 20.3 12.0 20.25 12.05 20.15 12.15 20.1 12.25 20.05 12.35 20.0 12.45 19.9 12.55 19.85 12.65 19.8 12.75 19.75 12.9 19.65 13.0 19.6 13.15 19.55 13.3 19.45 13.45 19.4 13.6 19.35 13.75 19.3 13.9 19.25 14.0 19.2 14.15 19.15 14.25 19.15 14.4 19.1 14.5 19.05 14.6 19.05 14.7 19.05 14.85 19.0 14.9 19.0 15.0 19.0 15.1 19.0 15.15 19.0 15.25 19.0 15.35 19.05 15.4 19.05 15.45 19.1 15.55 19.1 15.6 19.15 15.65 19.15 15.75 19.2 15.8 19.25 15.85 19.25 15.9 19.3 15.95 19.35 16.05 19.4 16.1 19.45 16.15 19.5 16.2 19.55 16.25 19.6 16.3 19.7 16.35 19.75 16.35 19.8 16.4 19.9 16.4 19.95 16.45 20.0 16.45 20.1 16.5 20.15 16.5 20.2 16.5 20.3 16.55 20.35 16.55 20.45 16.55 20.5 16.55 20.6 16.55 20.7 16.5 20.85 16.5 20.95 16.45 21.05 16.4 21.15 16.35 21.25 16.3 21.3 16.25 21.4 16.15 21.45 16.05 21.5 15.95 21.55 15.85 21.55 15.7 21.6 15.6 21.6 15.45 21.6 15.3 21.6 15.15 21.55 14.95 L21.55 14.95 M19.75 18.55 Q19.7 18.6 19.65 18.7 19.6 18.75 19.55 18.85 19.5 18.9 19.45 19.0 19.45 19.05 19.4 19.1 19.4 19.2 19.35 19.25 19.35 19.35 19.35 19.4 19.35 19.45 19.35 19.55 19.35 19.6 19.35 19.65 19.35 19.7 19.4 19.8 19.4 19.85 19.4 19.9 19.45 20.0 19.5 20.05 19.5 20.1 19.55 20.15 19.6 20.25 19.65 20.3 19.7 20.35 19.75 20.4 19.85 20.5 19.9 20.55 19.95 20.6 20.05 20.65 20.15 20.7 20.2 20.75 20.3 20.8 20.35 20.85 20.45 20.9 20.5 20.9 20.6 20.95 20.65 20.95 20.75 21.0 20.8 21.0 20.85 21.0 20.95 21.05 21.0 21.05 21.1 21.05 21.15 21.05 21.25 21.0 21.3 21.0 21.4 21.0 21.45 20.95 21.5 20.95 21.6 20.9 21.65 20.9 21.7 20.85 21.75 20.85 21.85 20.8 21.9 20.75 21.95 20.7 22.0 20.65 22.05 20.6 22.1 20.55 22.15 20.45 22.2 20.4 22.25 20.35 22.3 20.25 22.35 20.2 22.35 20.15 22.4 20.05 22.45 20.0 22.45 19.95 22.5 19.85 22.5 19.8 22.5 19.7 22.55 19.65 22.55 19.6 22.55 19.5 22.55 19.45 22.55 19.35 22.55 19.3 22.55 19.25 22.5 19.15 22.5 19.1 22.45 19.0 22.45 18.95 22.4 18.9 22.35 18.8 22.3 18.75 22.3 18.7 22.2 18.6 22.15 18.55 22.1 18.5 22.05 18.45 22.0 18.35 21.9 18.3 21.85 18.25 21.8 18.2 21.7 18.15 21.65 18.1 21.55 18.05 21.5 18.0 21.4 18.0 21.35 17.95 21.25 17.95 21.2 17.9 21.15 17.9 21.05 17.85 21.0 17.85 20.9 17.85 20.85 17.85 20.8 17.85 20.7 17.85 20.65 17.85 20.6 17.9 20.5 17.9 20.45 17.95 20.4 17.95 20.35 18.0 20.25 18.05 20.2 18.05 20.15 18.1 20.1 18.15 20.0 18.2 19.95 18.25 19.9 18.35 19.85 18.4 19.8 18.45 19.75 18.55 L19.75 18.55" fill="#ffffff" fill-rule="evenodd" stroke="none"/>
    <path d="M31.5 13.6 L31.2 12.45 Q31.2 12.4 31.2 12.4 31.2 12.35 31.2 12.3 31.2 12.3 31.2 12.25 31.2 12.2 31.2 12.2 31.2 12.15 31.2 12.1 31.2 12.1 31.2 12.05 31.2 12.05 31.2 12.0 31.2 11.95 31.2 11.95 31.3 11.65 32.5 10.3 33.75 8.85 34.15 8.15 34.2 8.05 34.25 8.0 34.25 7.9 34.3 7.8 34.35 7.7 34.35 7.6 34.4 7.5 34.4 7.35 34.4 7.25 34.4 7.15 34.4 7.0 34.4 6.9 34.4 6.75 34.4 6.65 34.4 6.5 34.4 6.35 34.4 6.2 34.35 6.1 34.3 5.95 34.25 5.85 34.2 5.7 34.15 5.6 34.1 5.45 34.05 5.35 33.95 5.25 33.85 5.1 33.8 5.0 33.7 4.9 33.6 4.8 33.5 4.7 33.4 4.55 33.25 4.45 33.1 4.3 32.9 4.2 32.75 4.1 32.55 4.05 32.4 3.95 32.2 3.85 32.0 3.8 31.8 3.75 31.6 3.7 31.4 3.7 31.2 3.65 30.95 3.65 30.75 3.65 30.5 3.65 30.3 3.65 30.05 3.7 29.75 3.75 29.45 3.8 29.15 3.9 28.9 3.95 28.6 4.05 28.35 4.15 28.15 4.25 27.9 4.4 27.7 4.5 27.5 4.65 27.3 4.8 27.1 5.0 26.9 5.15 26.75 5.35 26.6 5.55 26.45 5.75 26.35 5.85 26.3 6.0 26.25 6.1 26.2 6.2 26.15 6.35 26.1 6.45 26.05 6.55 26.0 6.65 25.95 6.75 25.95 6.85 25.9 6.95 25.9 7.05 25.9 7.15 25.9 7.25 25.9 7.35 25.9 7.45 25.9 7.55 25.95 7.65 25.95 7.7 26.0 7.8 26.0 7.9 26.05 7.95 26.1 8.05 26.15 8.1 26.15 8.2 26.2 8.25 26.25 8.35 26.35 8.4 26.4 8.5 26.45 8.55 26.5 8.6 26.6 8.7 26.65 8.75 26.75 8.8 26.8 8.85 26.9 8.9 26.95 8.95 27.0 9.0 27.1 9.05 27.15 9.05 27.2 9.1 27.3 9.1 27.35 9.1 27.4 9.15 27.5 9.15 27.55 9.15 27.6 9.15 27.65 9.15 27.7 9.15 27.8 9.1 27.85 9.1 27.9 9.05 28.0 9.05 28.05 9.0 28.1 9.0 28.2 8.95 28.25 8.9 28.3 8.85 28.35 8.8 28.45 8.75 28.5 8.7 28.55 8.6 28.6 8.55 28.7 8.5 28.75 8.4 28.8 8.35 28.85 8.25 28.9 8.2 28.95 8.15 29.0 8.05 29.05 8.0 29.05 7.95 29.1 7.9 29.1 7.85 29.15 7.75 29.15 7.7 29.15 7.65 29.15 7.6 29.15 7.55 29.15 7.55 29.15 7.5 29.15 7.45 29.1 7.4 29.1 7.35 29.1 7.3 29.05 7.25 29.05 7.2 29.0 7.1 29.0 7.05 28.95 7.0 28.9 6.95 28.85 6.9 28.85 6.85 28.8 6.8 28.75 6.75 28.7 6.7 28.65 6.65 28.6 6.6 28.55 6.55 28.5 6.5 28.45 6.45 28.4 6.4 28.4 6.35 28.35 6.3 28.35 6.3 28.3 6.25 28.3 6.2 28.25 6.2 28.25 6.15 28.25 6.15 28.25 6.1 28.25 6.1 28.25 6.05 28.25 6.0 28.3 5.95 28.35 5.9 28.35 5.85 28.45 5.75 28.5 5.65 28.6 5.55 28.65 5.5 28.7 5.45 28.75 5.4 28.8 5.35 28.85 5.35 28.9 5.3 29.0 5.25 29.05 5.25 29.1 5.2 29.15 5.2 29.2 5.15 29.25 5.15 29.35 5.1 29.4 5.1 29.45 5.1 29.5 5.1 29.55 5.1 29.65 5.1 29.7 5.05 29.75 5.05 29.85 5.05 29.9 5.05 29.95 5.1 30.05 5.1 30.1 5.1 30.15 5.1 30.2 5.1 30.25 5.15 30.35 5.15 30.4 5.15 30.45 5.2 30.5 5.2 30.65 5.25 30.75 5.35 30.9 5.4 31.0 5.5 31.1 5.6 31.2 5.65 31.3 5.75 31.35 5.9 31.45 6.0 31.5 6.1 31.55 6.25 31.6 6.35 31.65 6.5 31.7 6.65 31.75 6.8 31.75 6.95 31.75 7.05 31.75 7.15 31.8 7.25 31.75 7.35 31.75 7.45 31.75 7.55 31.75 7.7 31.7 7.8 31.7 7.9 31.65 8.05 31.65 8.2 31.6 8.3 31.55 8.45 31.5 8.6 31.45 8.75 31.4 8.9 31.35 9.05 31.25 9.2 31.2 9.3 31.15 9.45 31.1 9.55 31.0 9.7 30.95 9.8 30.9 9.9 30.85 10.0 30.75 10.1 30.7 10.15 30.65 10.25 30.6 10.3 30.5 10.35 30.45 10.45 30.4 10.5 30.35 10.55 30.3 10.6 30.2 10.7 30.15 10.75 30.1 10.85 30.05 10.9 29.95 11.0 29.9 11.1 29.85 11.2 29.75 11.3 29.7 11.45 29.65 11.55 29.55 11.7 29.5 11.85 29.45 11.95 29.35 12.15 29.3 12.3 29.25 12.45 29.2 12.55 29.15 12.7 29.1 12.85 29.05 12.95 29.05 13.05 29.0 13.2 29.0 13.3 28.95 13.4 28.95 13.5 28.95 13.6 28.95 13.7 28.95 13.75 28.95 13.85 28.95 13.9 28.95 14.0 28.95 14.05 29.0 14.15 29.0 14.2 29.05 14.25 29.05 14.35 29.1 14.4 29.1 14.45 29.15 14.5 29.2 14.6 29.2 14.65 29.25 14.7 29.3 14.75 29.35 14.8 29.4 14.85 29.45 14.9 29.5 14.95 29.6 15.0 29.65 15.0 29.7 15.05 29.8 15.1 29.85 15.1 29.9 15.15 30.0 15.15 30.05 15.2 30.15 15.2 30.2 15.2 30.3 15.2 30.35 15.2 30.45 15.2 30.5 15.2 30.6 15.2 30.75 15.2 30.85 15.15 30.95 15.1 31.05 15.05 31.15 15.0 31.2 14.9 31.3 14.85 31.35 14.75 31.4 14.65 31.45 14.5 31.5 14.4 31.5 14.25 31.5 14.1 31.5 13.95 31.5 13.8 31.5 13.6 L31.5 13.6 M29.65 17.2 Q29.6 17.25 29.55 17.35 29.5 17.4 29.45 17.5 29.4 17.55 29.4 17.65 29.35 17.7 29.3 17.8 29.3 17.85 29.3 17.95 29.25 18.0 29.25 18.05 29.25 18.15 29.25 18.2 29.25 18.25 29.25 18.35 29.25 18.4 29.3 18.45 29.3 18.55 29.35 18.6 29.35 18.65 29.4 18.7 29.4 18.8 29.45 18.85 29.5 18.9 29.55 18.95 29.6 19.05 29.7 19.1 29.75 19.15 29.8 19.2 29.9 19.25 29.95 19.3 30.05 19.35 30.1 19.4 30.2 19.45 30.25 19.5 30.35 19.55 30.4 19.55 30.5 19.6 30.55 19.65 30.65 19.65 30.7 19.65 30.8 19.7 30.85 19.7 30.95 19.7 31.0 19.7 31.05 19.7 31.15 19.7 31.2 19.7 31.3 19.65 31.35 19.65 31.45 19.65 31.5 19.6 31.55 19.55 31.6 19.55 31.7 19.5 31.75 19.45 31.8 19.4 31.85 19.35 31.9 19.3 31.95 19.25 32.05 19.2 32.1 19.15 32.15 19.1 32.2 19.05 32.25 18.95 32.25 18.9 32.3 18.8 32.35 18.75 32.35 18.7 32.4 18.6 32.4 18.55 32.4 18.45 32.45 18.4 32.45 18.3 32.45 18.25 32.45 18.2 32.45 18.1 32.45 18.05 32.45 17.95 32.45 17.9 32.4 17.8 32.4 17.75 32.35 17.7 32.35 17.6 32.3 17.55 32.25 17.5 32.25 17.4 32.2 17.35 32.15 17.3 32.1 17.25 32.05 17.15 31.95 17.1 31.9 17.05 31.85 17.0 31.75 16.9 31.7 16.85 31.6 16.8 31.55 16.75 31.45 16.7 31.4 16.7 31.3 16.65 31.25 16.6 31.2 16.6 31.1 16.55 31.05 16.55 30.95 16.55 30.9 16.55 30.85 16.5 30.75 16.5 30.7 16.5 30.65 16.55 30.6 16.55 30.5 16.55 30.45 16.6 30.4 16.6 30.3 16.65 30.25 16.65 30.2 16.7 30.1 16.75 30.05 16.8 30.0 16.85 29.95 16.9 29.9 16.95 29.8 17.0 29.75 17.05 29.7 17.15 29.65 17.2 L29.65 17.2" fill="#ffffff" fill-rule="evenodd" stroke="none"/>
  </g>
</svg>
