<?xml version="1.0" encoding="UTF-8" standalone="no"?>
<svg xmlns:ffdec="https://www.free-decompiler.com/flash" xmlns:xlink="http://www.w3.org/1999/xlink" ffdec:objectType="shape" height="26.0px" width="52.95px" xmlns="http://www.w3.org/2000/svg">
  <g transform="matrix(1.0, 0.0, 0.0, 1.0, 0.0, 0.0)">
    <path d="M30.15 3.5 Q30.1 3.5 30.05 3.5 30.0 3.5 30.0 3.55 29.95 3.55 30.0 3.6 30.0 3.65 30.05 3.65 30.1 3.65 30.15 3.7 30.2 3.7 30.3 3.7 30.45 3.7 30.45 3.7 30.55 3.7 30.65 3.7 30.75 3.75 30.85 3.75 30.95 3.8 31.05 3.85 31.15 3.9 31.25 4.0 31.35 4.05 31.4 4.15 31.5 4.25 31.55 4.35 31.6 4.4 31.65 4.5 31.7 4.6 31.75 4.7 31.75 4.75 31.8 4.9 31.85 5.0 31.85 5.05 31.9 5.1 31.95 5.15 31.95 5.2 32.0 5.2 32.05 5.2 32.05 5.2 32.05 5.15 32.0 5.05 32.0 4.95 31.95 4.85 31.95 4.7 31.9 4.6 31.85 4.45 31.8 4.3 31.7 4.2 31.65 4.1 31.6 3.95 31.6 3.9 31.55 3.8 31.5 3.8 31.5 3.75 31.4 3.75 31.35 3.7 31.3 3.7 31.2 3.65 31.15 3.65 31.05 3.6 30.95 3.6 30.85 3.55 30.75 3.55 30.6 3.55 30.5 3.5 30.4 3.5 30.35 3.5 30.25 3.5 30.15 3.5 L30.15 3.5 M29.2 4.2 Q29.1 4.2 29.05 4.2 29.0 4.2 29.0 4.25 28.95 4.25 29.0 4.3 29.05 4.35 29.1 4.35 29.15 4.4 29.2 4.4 29.25 4.4 29.4 4.45 29.55 4.45 29.6 4.45 29.7 4.45 29.8 4.45 29.95 4.5 30.05 4.55 30.2 4.6 30.3 4.65 30.45 4.7 30.55 4.8 30.65 4.9 30.75 5.0 30.85 5.1 30.9 5.2 31.0 5.3 31.05 5.45 31.1 5.55 31.15 5.7 31.15 5.75 31.25 5.9 31.25 6.05 31.3 6.1 31.35 6.2 31.35 6.25 31.4 6.3 31.45 6.3 31.5 6.3 31.5 6.25 31.5 6.2 31.5 6.1 31.45 6.0 31.4 5.85 31.35 5.7 31.3 5.55 31.25 5.4 31.2 5.2 31.1 5.05 31.05 4.9 31.0 4.75 30.95 4.7 30.9 4.6 30.85 4.55 30.8 4.5 30.75 4.5 30.7 4.45 30.6 4.45 30.5 4.4 30.4 4.35 30.3 4.35 30.15 4.3 30.05 4.3 29.9 4.25 29.75 4.25 29.65 4.25 29.5 4.2 29.4 4.2 29.3 4.2 29.2 4.2 L29.2 4.2 M28.7 5.3 Q28.65 5.3 28.6 5.3 28.55 5.3 28.55 5.3 28.55 5.35 28.55 5.35 28.55 5.4 28.6 5.4 28.65 5.45 28.75 5.45 28.8 5.45 28.85 5.45 29.05 5.45 29.05 5.45 29.15 5.5 29.2 5.5 29.3 5.5 29.4 5.55 29.5 5.6 29.6 5.65 29.75 5.7 29.8 5.75 29.9 5.8 29.95 5.9 30.05 6.0 30.1 6.1 30.15 6.2 30.2 6.3 30.25 6.4 30.3 6.5 30.3 6.55 30.35 6.65 30.4 6.75 30.45 6.8 30.45 6.9 30.5 6.95 30.5 6.95 30.55 7.0 30.6 7.0 30.6 6.95 30.6 6.9 30.6 6.85 30.55 6.75 30.5 6.6 30.5 6.5 30.45 6.35 30.4 6.25 30.35 6.1 30.3 5.95 30.25 5.85 30.2 5.75 30.15 5.65 30.1 5.6 30.05 5.55 30.05 5.55 30.0 5.5 29.9 5.5 29.85 5.45 29.75 5.45 29.65 5.4 29.6 5.4 29.5 5.35 29.35 5.35 29.25 5.35 29.15 5.3 29.05 5.3 28.95 5.3 28.85 5.3 28.8 5.25 28.7 5.3 L28.7 5.3 M34.45 5.35 Q34.3 5.35 34.15 5.35 34.05 5.4 33.9 5.4 33.75 5.45 33.6 5.5 33.5 5.5 33.35 5.55 33.2 5.65 33.1 5.7 32.95 5.75 32.8 5.85 32.7 5.9 32.55 6.0 32.4 6.1 32.3 6.2 32.2 6.25 32.15 6.35 32.05 6.4 32.0 6.5 31.9 6.55 31.85 6.65 31.8 6.7 31.7 6.8 31.65 6.9 31.6 6.95 31.55 7.05 31.5 7.15 31.45 7.25 31.4 7.35 31.4 7.45 31.35 7.55 31.3 7.65 31.3 7.75 31.25 7.85 31.2 7.95 31.2 8.05 31.15 8.15 31.15 8.25 31.15 8.35 31.1 8.45 31.1 8.55 31.1 8.65 31.05 8.8 31.05 8.9 31.05 9.0 31.05 9.1 31.05 9.25 31.05 9.35 31.05 9.5 31.05 9.6 31.05 9.7 31.1 9.8 31.1 9.95 31.1 10.05 31.15 10.15 31.2 10.25 31.25 10.35 31.25 10.45 31.3 10.6 31.35 10.7 31.45 10.8 31.5 10.9 31.55 11.0 31.6 11.1 31.7 11.2 31.75 11.3 31.85 11.4 31.9 11.45 32.0 11.55 32.1 11.65 32.15 11.7 32.25 11.75 32.35 11.85 32.45 11.9 32.55 11.95 32.6 12.0 32.7 12.05 32.8 12.1 32.9 12.15 33.0 12.2 33.1 12.2 33.25 12.25 33.35 12.25 33.45 12.3 33.55 12.3 33.65 12.35 33.75 12.35 33.85 12.4 33.95 12.4 34.05 12.4 34.15 12.4 34.25 12.45 34.35 12.45 34.45 12.45 34.6 12.45 34.7 12.45 34.8 12.45 34.9 12.45 35.0 12.4 35.1 12.4 35.2 12.35 35.3 12.35 35.45 12.3 35.55 12.25 35.65 12.2 35.75 12.2 35.9 12.1 36.0 12.05 36.1 12.0 36.25 11.95 36.35 11.85 36.45 11.8 36.6 11.7 36.7 11.6 36.8 11.55 36.9 11.45 36.95 11.35 37.05 11.25 37.15 11.15 37.2 11.05 37.3 10.95 37.35 10.85 37.45 10.75 37.5 10.65 37.55 10.5 37.6 10.4 37.65 10.25 37.7 10.1 37.75 10.0 37.75 9.85 37.8 9.75 37.8 9.6 37.85 9.45 37.85 9.35 37.85 9.2 37.9 9.05 37.9 8.9 37.9 8.75 37.85 8.65 37.85 8.5 37.85 8.35 37.85 8.2 37.8 8.05 37.75 7.9 37.75 7.75 37.7 7.6 37.65 7.5 37.6 7.35 37.55 7.25 37.5 7.1 37.45 7.0 37.35 6.9 37.3 6.8 37.2 6.7 37.15 6.6 37.05 6.5 37.0 6.4 36.9 6.3 36.8 6.25 36.75 6.2 36.65 6.15 36.6 6.1 36.5 6.05 36.45 6.0 36.35 5.95 36.3 5.9 36.2 5.85 36.15 5.8 36.05 5.75 36.0 5.7 35.9 5.7 35.85 5.65 35.75 5.6 35.7 5.6 35.6 5.55 35.55 5.55 35.45 5.5 35.4 5.5 35.3 5.45 35.25 5.45 35.15 5.45 35.1 5.4 35.0 5.4 34.95 5.4 34.85 5.4 34.8 5.35 34.7 5.35 34.65 5.35 34.6 5.35 34.5 5.35 34.45 5.35 L34.45 5.35 M25.1 6.45 Q25.05 6.45 25.0 6.45 24.95 6.5 24.85 6.5 24.8 6.55 24.65 6.6 24.55 6.6 24.45 6.7 24.3 6.75 24.15 6.8 24.0 6.9 23.85 7.0 23.65 7.05 23.5 7.2 23.3 7.3 23.05 7.4 22.85 7.5 22.65 7.65 22.45 7.75 22.3 7.85 22.15 7.95 22.0 8.05 21.85 8.15 21.75 8.25 21.65 8.35 21.55 8.4 21.5 8.5 21.45 8.6 21.35 8.65 21.35 8.7 21.3 8.8 21.3 8.85 21.3 8.9 21.3 8.95 21.35 9.0 21.35 9.05 21.35 9.1 21.4 9.15 21.45 9.15 21.45 9.2 21.5 9.25 21.55 9.25 21.6 9.3 21.65 9.3 21.7 9.3 21.8 9.3 21.85 9.3 21.9 9.3 L22.5 9.3 22.5 20.8 21.8 21.2 Q21.7 21.25 21.65 21.3 21.55 21.3 21.5 21.35 21.4 21.4 21.35 21.45 21.3 21.45 21.25 21.5 21.25 21.55 21.2 21.55 21.15 21.6 21.15 21.65 21.15 21.65 21.1 21.7 21.1 21.75 21.1 21.75 21.1 21.8 21.15 21.85 21.15 21.9 21.2 21.9 21.3 21.95 21.35 22.0 21.45 22.0 21.6 22.05 21.7 22.05 21.85 22.1 22.0 22.1 22.15 22.1 22.35 22.15 22.55 22.15 22.75 22.15 23.0 22.15 24.95 22.15 25.4 22.05 25.45 22.05 25.5 22.05 25.55 22.0 25.6 22.0 25.6 22.0 25.65 22.0 25.7 21.95 25.7 21.95 25.75 21.9 25.75 21.9 25.8 21.85 25.8 21.8 25.8 21.8 25.85 21.75 25.85 21.7 25.85 21.65 25.85 21.6 25.85 21.6 25.8 21.55 25.8 21.5 25.8 21.5 25.75 21.45 25.75 21.4 25.7 21.4 25.65 21.35 25.6 21.35 25.55 21.3 25.5 21.3 25.45 21.25 25.4 21.25 25.35 21.2 25.3 21.2 25.2 21.2 25.15 21.15 25.1 21.15 25.05 21.1 24.95 21.05 24.9 21.0 24.85 21.0 24.8 20.95 24.75 20.9 24.7 20.8 24.7 20.75 24.65 20.7 24.6 20.65 24.6 20.55 24.55 20.45 24.55 20.4 24.45 20.05 24.45 18.35 24.45 18.15 24.45 17.95 24.45 17.8 24.45 17.6 24.45 17.45 24.45 17.25 24.5 17.1 24.5 16.95 24.5 16.8 24.55 16.65 24.55 16.55 24.55 16.4 24.6 16.3 24.6 16.15 24.65 16.05 24.7 15.95 24.7 15.9 24.75 15.85 24.75 15.8 24.75 15.75 24.8 15.7 24.85 15.65 24.85 15.6 24.9 15.55 24.95 15.45 25.0 15.4 25.05 15.35 25.1 15.3 25.15 15.25 25.2 15.2 25.3 15.15 25.35 15.1 25.4 15.05 25.5 15.0 25.55 14.9 25.65 14.85 25.7 14.85 25.75 14.8 25.85 14.75 25.9 14.7 26.0 14.7 26.05 14.65 26.1 14.65 26.2 14.65 26.25 14.6 26.35 14.6 26.4 14.6 26.5 14.6 26.55 14.6 26.65 14.6 26.7 14.6 26.75 14.65 26.8 14.65 26.9 14.65 26.95 14.65 27.0 14.7 27.1 14.7 27.15 14.75 27.2 14.8 27.25 14.8 27.3 14.85 27.4 14.9 27.45 14.95 27.5 15.0 27.55 15.05 27.6 15.1 27.65 15.15 27.7 15.25 27.75 15.3 27.8 15.4 27.85 15.45 27.9 15.55 27.95 15.65 27.95 15.75 28.0 15.85 28.0 15.95 28.05 16.05 28.05 16.2 28.1 16.3 28.1 16.45 28.1 16.6 28.15 16.7 28.15 16.8 28.15 16.95 28.2 17.05 28.2 17.15 28.2 17.3 28.2 17.4 28.25 17.5 28.25 17.6 28.25 17.7 28.25 17.8 28.25 17.9 28.25 18.0 28.25 18.1 28.25 18.2 28.25 18.3 28.25 18.4 28.25 18.5 28.25 18.6 28.25 18.7 28.25 18.75 28.25 18.85 28.25 18.95 28.25 19.05 28.2 19.15 28.2 19.25 28.2 19.35 28.2 19.45 28.2 19.55 28.2 19.65 28.15 19.75 28.15 19.85 28.15 19.95 28.1 20.05 28.1 20.15 28.1 20.2 28.1 20.3 28.05 20.4 28.05 20.45 28.05 20.5 28.0 20.55 28.0 20.65 28.0 20.7 27.95 20.75 27.95 20.75 27.95 20.8 27.9 20.85 27.9 20.9 27.85 20.9 27.85 20.95 27.85 20.95 27.8 21.0 27.8 21.0 27.75 21.05 27.7 21.05 27.7 21.1 27.65 21.1 27.6 21.1 27.6 21.15 27.55 21.15 27.5 21.15 27.45 21.2 27.4 21.2 27.35 21.2 27.25 21.25 27.2 21.3 27.15 21.3 27.1 21.35 27.05 21.35 27.0 21.4 27.0 21.45 26.95 21.5 26.9 21.5 26.9 21.55 26.9 21.6 26.85 21.65 26.85 21.7 26.85 21.75 26.85 21.8 26.85 21.85 26.85 21.9 26.85 21.95 26.85 22.0 26.9 22.0 26.9 22.05 26.9 22.1 26.95 22.1 26.95 22.15 27.0 22.15 27.0 22.15 27.05 22.2 27.1 22.2 27.15 22.2 27.15 22.2 27.2 22.2 27.3 22.25 27.35 22.25 27.4 22.25 27.5 22.25 27.55 22.25 27.65 22.25 27.75 22.25 27.85 22.25 27.95 22.25 28.05 22.25 28.5 22.25 28.9 22.25 29.25 22.25 29.6 22.2 29.95 22.2 30.2 22.2 30.5 22.15 30.7 22.15 30.95 22.1 31.1 22.05 31.25 22.0 31.35 21.95 31.5 21.9 31.55 21.85 31.6 21.8 31.6 21.75 31.6 21.7 31.6 21.7 31.6 21.65 31.55 21.6 31.55 21.6 31.5 21.55 31.45 21.5 31.45 21.5 31.4 21.45 31.35 21.4 31.3 21.4 31.2 21.35 31.15 21.3 31.1 21.25 31.0 21.2 30.9 21.2 L30.2 20.8 30.2 18.15 Q30.2 17.85 30.2 17.6 30.2 17.35 30.15 17.1 30.15 16.85 30.15 16.65 30.15 16.4 30.1 16.2 30.1 16.0 30.05 15.85 30.05 15.65 30.0 15.5 30.0 15.35 29.95 15.2 29.9 15.05 29.9 14.95 29.85 14.8 29.8 14.7 29.75 14.6 29.7 14.5 29.65 14.35 29.6 14.3 29.55 14.2 29.45 14.1 29.4 14.0 29.3 13.95 29.25 13.85 29.15 13.8 29.05 13.7 28.95 13.65 28.85 13.6 28.75 13.55 28.65 13.5 28.6 13.45 28.5 13.4 28.4 13.4 28.3 13.35 28.2 13.3 28.15 13.3 28.05 13.25 27.95 13.25 27.85 13.2 27.75 13.2 27.65 13.2 27.55 13.2 27.45 13.15 27.35 13.15 27.25 13.15 27.15 13.15 27.05 13.15 26.95 13.15 26.85 13.2 26.7 13.2 26.6 13.25 26.5 13.25 26.4 13.3 26.3 13.35 26.15 13.4 26.05 13.45 25.95 13.5 25.85 13.55 25.7 13.6 25.6 13.7 25.45 13.75 L24.45 14.35 24.45 11.4 Q24.45 9.45 24.5 8.8 24.5 8.75 24.55 8.65 24.55 8.6 24.55 8.5 24.6 8.45 24.6 8.4 24.65 8.3 24.65 8.25 24.7 8.2 24.7 8.1 24.75 8.05 24.8 8.0 24.8 7.95 24.85 7.85 24.9 7.8 24.95 7.75 25.0 7.7 25.05 7.65 25.1 7.6 25.1 7.5 25.15 7.45 25.2 7.4 25.2 7.35 25.25 7.3 25.3 7.25 25.3 7.2 25.3 7.15 25.35 7.1 25.35 7.05 25.35 7.0 25.35 6.9 25.4 6.9 25.4 6.85 25.4 6.8 25.4 6.75 25.4 6.7 25.4 6.65 25.35 6.6 25.35 6.6 25.35 6.55 25.3 6.55 25.3 6.5 25.3 6.5 25.25 6.45 25.2 6.45 25.2 6.45 25.15 6.45 25.1 6.45 L25.1 6.45 M49.9 6.5 Q49.85 6.5 49.8 6.5 49.75 6.55 49.65 6.55 49.55 6.6 49.45 6.65 49.35 6.7 49.2 6.75 49.1 6.8 48.95 6.85 48.8 6.95 48.6 7.05 48.45 7.15 48.25 7.25 48.05 7.35 47.8 7.45 47.6 7.6 47.4 7.7 47.2 7.8 47.05 7.9 46.9 8.05 46.75 8.15 46.65 8.25 46.5 8.3 46.4 8.4 46.35 8.5 46.25 8.6 46.2 8.65 46.15 8.7 46.1 8.8 46.1 8.85 46.1 8.9 46.1 8.95 46.1 9.0 46.1 9.05 46.1 9.1 46.15 9.15 46.15 9.15 46.15 9.2 46.2 9.25 46.2 9.25 46.25 9.3 46.25 9.3 46.3 9.3 46.3 9.3 46.3 9.3 46.35 9.3 46.35 9.35 46.4 9.35 46.4 9.35 46.45 9.35 46.45 9.35 46.5 9.35 46.55 9.35 46.6 9.35 46.6 9.35 46.65 9.35 46.7 9.35 L47.3 9.35 47.3 20.85 46.55 21.25 Q46.45 21.3 46.4 21.35 46.3 21.4 46.25 21.4 46.2 21.45 46.15 21.5 46.1 21.55 46.05 21.6 46.0 21.6 45.95 21.65 45.95 21.7 45.9 21.7 45.9 21.75 45.9 21.75 45.9 21.8 45.9 21.85 45.9 21.9 45.9 21.95 45.95 21.95 46.0 22.0 46.05 22.05 46.15 22.05 46.25 22.1 46.35 22.1 46.5 22.15 46.65 22.15 46.8 22.2 46.95 22.2 47.15 22.2 47.35 22.2 47.6 22.2 47.8 22.2 L47.8 22.2 Q49.75 22.2 50.15 22.15 50.2 22.15 50.25 22.1 50.3 22.1 50.35 22.1 50.4 22.05 50.45 22.05 50.45 22.0 50.5 22.0 50.5 21.95 50.55 21.9 50.55 21.9 50.6 21.85 50.6 21.8 50.6 21.75 50.6 21.7 50.6 21.65 50.6 21.6 50.6 21.6 50.6 21.55 50.6 21.55 50.55 21.5 50.55 21.5 50.55 21.45 50.5 21.45 50.5 21.4 50.45 21.4 50.45 21.4 50.4 21.4 50.4 21.4 50.35 21.4 50.3 21.35 50.25 21.35 50.2 21.35 50.2 21.35 50.15 21.35 50.1 21.35 50.05 21.35 50.0 21.3 50.0 21.3 49.95 21.3 49.9 21.3 49.85 21.25 49.85 21.25 49.8 21.2 49.75 21.15 49.7 21.15 49.7 21.1 49.65 21.05 49.6 21.0 49.6 20.95 49.55 20.9 49.5 20.85 49.5 20.8 49.45 20.7 49.45 20.6 49.4 20.55 49.4 20.45 49.35 20.35 49.35 20.25 49.35 20.1 49.3 20.0 49.3 19.85 49.3 19.75 49.3 19.6 49.2 18.55 49.2 14.35 49.2 10.15 49.3 9.3 49.3 9.15 49.3 9.05 49.35 8.95 49.35 8.8 49.35 8.7 49.4 8.6 49.4 8.5 49.45 8.4 49.45 8.3 49.5 8.25 49.55 8.15 49.55 8.1 49.6 8.0 49.65 7.95 49.7 7.9 49.75 7.85 49.8 7.8 49.85 7.75 49.85 7.65 49.9 7.6 49.95 7.55 49.95 7.5 50.0 7.45 50.05 7.4 50.05 7.3 50.1 7.25 50.1 7.2 50.1 7.15 50.15 7.1 50.15 7.05 50.15 7.0 50.15 6.9 50.15 6.85 50.15 6.8 50.15 6.75 50.15 6.7 50.15 6.7 50.15 6.65 50.15 6.6 50.1 6.6 50.1 6.55 50.1 6.55 50.05 6.55 50.05 6.5 50.0 6.5 49.95 6.5 49.95 6.5 49.9 6.5 L49.9 6.5 M34.3 7.05 Q34.4 7.05 34.5 7.05 34.55 7.05 34.65 7.1 34.75 7.1 34.85 7.1 34.95 7.1 35.05 7.15 35.15 7.15 35.25 7.2 35.35 7.2 35.45 7.25 35.55 7.25 35.65 7.3 35.75 7.35 35.9 7.35 35.95 7.4 36.05 7.45 36.2 7.5 36.25 7.5 36.3 7.55 36.35 7.55 36.4 7.6 36.45 7.65 36.5 7.65 36.55 7.7 36.6 7.75 36.65 7.8 36.7 7.85 36.75 7.9 36.8 7.95 36.85 8.05 36.85 8.1 36.9 8.15 36.95 8.25 37.0 8.3 37.05 8.35 37.05 8.45 37.1 8.5 37.1 8.6 37.1 8.65 37.15 8.7 37.15 8.8 37.15 8.85 37.15 8.9 37.15 8.95 37.15 9.05 37.15 9.1 37.15 9.15 37.1 9.2 37.1 9.3 37.1 9.35 37.05 9.45 37.0 9.6 36.95 9.7 36.85 9.8 36.8 9.9 36.7 10.0 36.65 10.1 36.55 10.15 36.45 10.25 36.35 10.3 36.25 10.4 36.15 10.45 36.05 10.5 35.9 10.55 35.8 10.6 35.65 10.65 35.55 10.7 35.4 10.7 35.25 10.75 35.15 10.75 35.0 10.8 34.85 10.8 34.7 10.8 34.55 10.8 34.4 10.8 34.25 10.75 34.1 10.75 33.95 10.7 33.8 10.7 33.65 10.65 33.45 10.6 33.3 10.55 32.65 10.3 32.35 10.15 32.35 10.1 32.3 10.1 32.3 10.05 32.25 10.05 32.25 10.0 32.2 9.95 32.2 9.9 32.15 9.85 32.15 9.85 32.1 9.8 32.1 9.75 32.05 9.7 32.05 9.65 32.0 9.55 32.0 9.5 31.95 9.45 31.95 9.4 31.9 9.3 31.9 9.25 31.9 9.2 31.85 9.1 31.85 9.05 31.85 9.0 31.85 8.9 31.85 8.85 31.85 8.8 31.9 8.7 31.9 8.65 31.9 8.6 31.9 8.5 31.95 8.45 31.95 8.35 32.0 8.3 32.0 8.2 32.05 8.15 32.1 8.1 32.1 8.0 32.15 7.95 32.2 7.9 32.25 7.85 32.3 7.8 32.35 7.75 32.45 7.7 32.5 7.65 32.55 7.6 32.6 7.55 32.7 7.5 32.75 7.45 32.85 7.4 32.95 7.35 33.0 7.3 33.1 7.3 33.2 7.25 33.3 7.2 33.4 7.2 33.5 7.15 33.6 7.15 33.7 7.1 33.8 7.1 33.9 7.1 34.0 7.1 34.1 7.05 34.2 7.05 34.3 7.05 L34.3 7.05 M17.15 7.45 Q17.1 7.45 17.05 7.45 17.0 7.5 16.95 7.5 16.9 7.55 16.85 7.55 16.8 7.6 16.75 7.65 16.7 7.65 16.65 7.7 16.65 7.75 16.6 7.8 16.55 7.85 16.5 7.95 16.5 8.0 16.45 8.05 16.4 8.15 16.4 8.2 16.35 8.3 16.35 8.35 16.3 8.4 16.3 8.45 16.25 8.5 16.25 8.55 16.25 8.6 16.2 8.65 16.2 8.7 16.2 8.7 16.2 8.7 16.15 8.75 16.15 8.75 16.15 8.75 16.15 8.75 16.1 8.9 16.05 9.05 16.0 9.25 16.0 9.3 16.0 9.4 16.0 9.45 15.95 9.5 15.95 9.55 15.95 9.6 15.95 9.65 15.95 9.7 15.95 9.75 16.0 9.75 16.0 9.8 16.0 9.85 16.0 9.85 16.0 9.9 16.05 9.9 16.05 9.95 16.1 10.0 16.15 10.05 16.2 10.1 16.3 10.15 16.35 10.2 16.45 10.25 16.55 10.25 16.7 10.3 16.8 10.35 16.95 10.35 17.1 10.4 17.25 10.4 17.4 10.4 17.6 10.4 17.75 10.45 17.95 10.45 L17.95 10.45 18.0 10.45 Q18.05 10.45 18.05 10.45 18.1 10.45 18.15 10.45 18.15 10.45 18.2 10.45 18.2 10.5 18.2 10.5 18.25 10.5 18.25 10.55 18.25 10.55 18.25 10.6 18.25 10.65 18.25 10.7 18.25 10.7 18.25 10.75 17.5 13.6 16.7 15.7 16.6 15.95 16.55 16.2 16.45 16.45 16.35 16.7 16.3 16.9 16.2 17.15 16.15 17.35 16.1 17.6 16.0 17.8 15.95 18.0 15.9 18.2 15.85 18.4 15.8 18.6 15.75 18.8 15.75 19.0 15.7 19.2 15.7 19.0 15.65 18.7 15.65 18.45 15.6 18.15 15.55 17.85 15.45 17.55 15.4 17.2 15.3 16.8 15.2 16.45 15.1 16.0 14.95 15.6 14.85 15.15 14.7 14.65 14.5 14.15 14.35 13.65 14.2 13.1 14.1 12.85 14.05 12.65 13.95 12.45 13.85 12.2 13.75 12.0 13.6 11.8 13.5 11.6 13.35 11.4 13.25 11.2 13.1 11.0 12.95 10.8 12.8 10.6 12.7 10.45 12.5 10.25 12.35 10.1 12.2 9.9 12.0 9.75 11.85 9.6 11.7 9.45 11.55 9.3 11.45 9.2 11.3 9.1 11.2 9.0 11.05 8.9 10.95 8.8 10.85 8.75 10.75 8.65 10.7 8.6 10.6 8.55 10.55 8.55 10.5 8.5 10.45 8.5 L10.35 8.5 Q10.3 8.5 10.25 8.5 10.2 8.5 10.2 8.55 10.15 8.55 10.1 8.6 10.05 8.6 10.0 8.65 9.95 8.65 9.9 8.7 9.85 8.75 9.8 8.8 9.75 8.85 9.7 8.9 9.65 8.95 9.6 9.0 L8.85 10.0 Q8.8 10.05 8.75 10.1 8.75 10.15 8.7 10.2 8.65 10.2 8.65 10.25 8.6 10.3 8.6 10.35 8.55 10.35 8.55 10.4 8.5 10.4 8.5 10.45 8.5 10.45 8.5 10.5 8.5 10.5 8.5 10.5 8.5 10.55 8.5 10.6 8.5 10.65 8.55 10.65 8.55 10.7 8.55 10.75 8.6 10.8 8.65 10.8 8.65 10.85 8.7 10.85 8.7 10.9 8.75 10.9 8.8 10.9 8.85 10.95 8.85 10.95 8.9 10.95 8.95 10.95 9.0 10.95 9.05 10.95 9.05 10.95 9.1 10.95 9.15 10.95 9.15 10.95 9.2 10.95 9.25 10.95 9.3 10.95 9.3 10.95 9.35 10.95 9.4 10.9 9.4 10.9 9.45 10.9 9.5 10.9 9.5 10.9 9.55 10.9 9.6 10.9 9.6 10.9 9.65 10.85 9.7 10.85 9.7 10.85 9.75 10.85 9.8 10.85 9.8 10.85 9.85 10.85 9.9 10.9 9.95 10.9 9.95 10.9 10.0 10.9 10.05 10.9 10.1 10.95 10.1 10.95 10.3 11.05 10.5 11.15 10.65 11.2 10.8 11.35 10.95 11.45 11.1 11.55 11.2 11.65 11.3 11.8 11.4 11.95 11.5 12.1 11.55 12.25 11.6 12.4 11.65 12.55 11.7 12.7 11.7 12.9 11.7 13.05 11.7 13.15 11.7 13.25 11.65 13.4 11.65 13.55 11.6 13.7 11.55 13.85 11.55 14.05 11.45 14.25 11.4 14.45 11.35 14.7 11.25 14.9 11.2 15.15 11.1 15.45 11.0 15.7 10.9 16.0 10.75 16.35 L9.75 19.1 Q9.7 18.65 9.6 18.25 9.55 17.8 9.45 17.4 9.4 17.0 9.3 16.65 9.25 16.25 9.15 15.9 9.05 15.55 8.95 15.2 8.85 14.9 8.75 14.6 8.65 14.25 8.55 14.0 8.45 13.7 8.35 13.45 8.25 13.2 8.1 12.9 7.95 12.65 7.8 12.4 7.65 12.1 7.5 11.85 7.3 11.55 7.1 11.25 6.9 11.0 6.7 10.7 6.45 10.4 6.2 10.1 5.95 9.8 5.7 9.5 5.45 9.2 5.15 8.9 5.1 8.85 5.0 8.75 4.95 8.7 4.9 8.65 4.85 8.6 4.8 8.55 4.75 8.5 4.7 8.45 4.65 8.45 4.6 8.4 4.6 8.35 4.55 8.35 4.5 8.35 4.5 8.35 4.45 8.3 4.45 8.3 4.35 8.3 4.35 8.3 4.25 8.35 4.25 8.35 4.2 8.4 4.2 8.4 L4.0 8.4 Q4.0 8.4 3.8 8.7 3.55 9.0 3.25 9.4 2.55 10.4 2.45 10.45 2.4 10.45 2.35 10.5 2.35 10.5 2.35 10.55 2.35 10.55 2.35 10.6 2.4 10.6 2.4 10.65 2.45 10.65 2.5 10.65 2.5 10.7 2.6 10.7 2.65 10.7 2.7 10.75 2.8 10.75 2.9 10.75 2.95 10.75 3.1 10.8 3.2 10.8 3.3 10.8 3.5 10.8 3.65 10.9 3.85 10.95 4.05 11.05 4.25 11.2 4.4 11.35 4.6 11.5 4.8 11.75 5.0 11.95 5.15 12.2 5.35 12.45 5.55 12.75 5.75 13.1 5.95 13.45 6.1 13.8 6.3 14.2 6.5 14.6 6.65 15.0 6.85 15.4 7.0 15.8 7.15 16.2 7.3 16.65 7.4 17.05 7.55 17.45 7.65 17.85 7.75 18.25 7.85 18.65 7.95 19.05 8.0 19.45 8.05 19.85 8.15 20.25 8.2 20.65 L8.35 22.2 9.5 22.25 Q9.55 22.25 9.65 22.3 9.65 22.3 9.75 22.3 L10.2 22.3 Q10.25 22.3 10.3 22.3 10.3 22.3 10.35 22.3 10.4 22.25 10.4 22.25 10.45 22.25 10.5 22.25 10.5 22.2 10.55 22.2 10.55 22.2 10.6 22.2 10.6 22.15 10.65 22.15 10.65 22.1 10.65 22.1 L10.95 20.85 11.2 20.1 Q11.25 19.85 11.35 19.6 11.4 19.4 11.45 19.15 11.55 18.95 11.6 18.7 11.65 18.5 11.7 18.3 11.8 18.1 11.85 17.95 11.9 17.75 11.95 17.55 12.0 17.4 12.05 17.2 12.15 17.05 12.2 16.9 12.6 15.8 12.8 15.2 12.9 15.4 13.0 15.75 13.1 16.0 13.15 16.1 13.2 16.3 13.45 17.3 13.6 18.05 13.9 20.0 13.95 20.2 13.95 20.4 14.0 20.6 14.05 20.75 14.1 20.9 14.1 21.05 14.15 21.2 14.2 21.3 14.2 21.45 14.25 21.55 14.25 21.65 14.3 21.7 14.35 21.8 14.35 21.85 14.4 21.9 14.45 21.9 14.5 21.95 14.5 21.95 14.55 22.0 14.6 22.0 14.65 22.05 14.7 22.05 14.75 22.1 14.8 22.1 14.9 22.15 14.95 22.15 15.05 22.15 15.1 22.15 15.2 22.2 15.3 22.2 15.35 22.2 15.45 22.2 L16.75 22.2 17.1 20.6 Q17.6 18.15 19.0 14.25 L20.65 9.6 Q20.65 9.55 20.7 9.5 20.7 9.45 20.7 9.4 20.75 9.35 20.75 9.3 20.75 9.25 20.8 9.2 20.8 9.15 20.8 9.1 20.8 9.05 20.8 9.05 20.8 9.0 20.8 8.95 20.85 8.9 20.85 8.9 20.85 8.85 20.85 8.85 20.85 8.8 20.8 8.75 20.8 8.75 20.8 8.7 20.8 8.7 20.75 8.65 20.75 8.65 20.75 8.6 20.7 8.6 20.7 8.6 20.7 8.55 20.65 8.55 20.65 8.5 20.6 8.5 20.5 8.45 20.2 8.45 19.85 8.4 19.35 8.4 19.15 8.4 18.95 8.4 18.8 8.4 18.65 8.4 18.5 8.4 18.4 8.4 18.25 8.35 18.2 8.35 18.1 8.35 18.05 8.3 18.0 8.3 18.0 8.3 17.95 8.25 17.9 8.25 17.9 8.25 17.85 8.25 17.85 8.2 17.8 8.2 17.8 8.15 17.75 8.15 17.75 8.1 17.7 8.05 17.7 8.05 17.7 8.0 17.65 7.95 17.65 7.95 17.65 7.9 17.6 7.85 17.6 7.8 17.55 7.75 17.55 7.7 17.5 7.65 17.5 7.6 17.45 7.6 17.4 7.55 17.4 7.55 17.35 7.5 17.3 7.5 17.25 7.5 17.2 7.5 17.15 7.45 17.15 7.45 L17.15 7.45 M39.15 10.35 Q39.15 10.35 39.15 10.4 39.15 10.5 39.15 10.6 39.2 10.65 39.25 10.8 39.3 10.9 39.3 11.05 39.35 11.15 39.4 11.3 39.5 11.4 39.55 11.5 39.6 11.65 39.6 11.7 39.65 11.8 39.7 11.8 39.75 11.85 39.8 11.85 39.9 11.9 40.0 11.95 40.15 11.95 40.25 12.0 40.4 12.0 40.55 12.05 40.7 12.05 40.8 12.05 40.95 12.1 41.05 12.1 41.15 12.1 41.15 12.05 41.2 12.05 41.2 12.0 41.2 11.95 41.15 11.95 41.1 11.9 41.0 11.9 40.95 11.9 40.9 11.9 40.75 11.9 40.7 11.9 40.6 11.9 40.55 11.85 40.45 11.85 40.35 11.8 40.25 11.8 40.15 11.75 40.0 11.65 39.95 11.6 39.85 11.55 39.8 11.45 39.7 11.35 39.65 11.25 39.6 11.15 39.55 11.05 39.5 11.0 39.45 10.85 39.45 10.85 39.4 10.7 39.35 10.6 39.3 10.55 39.3 10.45 39.25 10.45 39.25 10.4 39.2 10.35 39.2 10.35 39.15 10.35 L39.15 10.35 M38.25 11.05 Q38.15 11.05 38.45 11.85 38.75 12.65 38.9 12.8 38.95 12.85 39.05 12.9 39.15 12.9 39.3 12.95 39.45 13.0 39.6 13.05 39.8 13.1 39.95 13.1 40.15 13.15 40.3 13.15 40.45 13.15 40.55 13.15 40.7 13.15 40.75 13.15 40.8 13.1 40.75 13.05 40.7 13.0 40.65 13.0 40.6 12.95 40.55 12.95 40.5 12.95 40.35 12.95 40.2 12.9 40.15 12.9 40.05 12.9 39.95 12.9 39.8 12.85 39.7 12.8 39.55 12.8 39.45 12.7 39.3 12.65 39.2 12.55 39.1 12.45 39.0 12.35 38.9 12.25 38.85 12.15 38.75 12.05 38.7 11.9 38.65 11.8 38.6 11.65 38.6 11.6 38.5 11.45 38.5 11.3 38.45 11.25 38.4 11.15 38.4 11.1 38.35 11.05 38.3 11.05 38.3 11.05 38.25 11.05 L38.25 11.05 M37.75 12.15 Q37.7 12.15 37.7 12.2 37.7 12.25 37.75 12.35 37.75 12.45 37.8 12.55 37.85 12.65 37.9 12.8 37.95 12.95 38.0 13.05 38.05 13.2 38.1 13.3 38.15 13.4 38.2 13.5 38.2 13.55 38.25 13.6 38.3 13.65 38.35 13.65 38.45 13.7 38.55 13.7 38.7 13.75 38.85 13.75 38.95 13.8 39.1 13.8 39.25 13.85 39.4 13.85 39.5 13.85 39.6 13.85 39.7 13.85 39.75 13.85 39.8 13.8 39.75 13.8 39.75 13.75 39.7 13.75 39.65 13.7 39.6 13.7 39.55 13.7 39.45 13.7 39.1 13.65 39.3 13.65 39.15 13.65 39.1 13.65 39.0 13.6 38.9 13.6 38.8 13.55 38.7 13.5 38.6 13.45 38.5 13.35 38.4 13.3 38.35 13.2 38.25 13.1 38.2 13.0 38.15 12.95 38.1 12.85 38.05 12.75 38.0 12.65 38.0 12.6 37.95 12.45 37.9 12.35 37.9 12.3 37.85 12.25 37.8 12.2 37.8 12.15 37.75 12.15 37.75 12.15 37.75 12.15 L37.75 12.15 M34.95 13.2 Q34.75 13.2 34.55 13.25 34.35 13.25 34.15 13.3 33.95 13.35 33.8 13.45 33.6 13.5 33.4 13.6 33.2 13.7 33.05 13.85 32.85 13.95 32.7 14.1 32.5 14.25 32.35 14.4 32.2 14.55 32.0 14.75 31.9 14.85 31.85 14.95 31.75 15.1 31.65 15.2 31.6 15.3 31.5 15.4 31.45 15.5 31.4 15.6 31.35 15.7 31.25 15.8 31.2 15.9 31.15 16.0 31.1 16.05 31.1 16.15 31.05 16.25 31.0 16.35 31.0 16.45 30.95 16.5 30.95 16.6 30.9 16.7 30.9 16.8 30.9 16.85 30.85 16.95 30.85 17.05 30.85 17.15 30.85 17.25 30.8 17.3 30.8 17.4 30.8 17.5 30.8 17.6 30.8 17.7 30.8 17.8 30.8 18.0 30.8 18.2 30.8 18.4 30.85 18.6 30.85 18.8 30.9 18.95 30.9 19.15 30.95 19.3 31.0 19.5 31.05 19.65 31.1 19.8 31.15 19.95 31.2 20.1 31.3 20.2 31.35 20.35 31.4 20.5 31.55 20.75 31.75 20.95 31.9 21.2 32.1 21.35 32.3 21.55 32.5 21.7 32.7 21.85 32.95 22.0 33.15 22.1 33.4 22.2 33.65 22.3 33.9 22.35 34.15 22.45 34.45 22.45 34.7 22.5 35.0 22.5 35.2 22.5 35.35 22.5 35.55 22.45 35.7 22.45 35.9 22.4 36.1 22.35 36.25 22.3 36.4 22.25 36.6 22.2 36.75 22.1 36.9 22.0 37.1 21.9 37.25 21.8 37.4 21.7 37.55 21.6 37.7 21.45 37.8 21.4 37.85 21.3 37.95 21.25 38.0 21.15 38.1 21.1 38.15 21.05 38.2 20.95 38.25 20.9 38.3 20.85 38.3 20.8 38.35 20.75 38.4 20.7 38.4 20.65 38.4 20.6 38.4 20.55 38.4 20.5 38.4 20.45 38.4 20.4 38.4 20.4 38.4 20.35 38.35 20.3 38.35 20.3 38.35 20.25 38.3 20.25 38.3 20.2 38.25 20.2 38.2 20.2 38.15 20.15 38.15 20.15 38.1 20.15 38.05 20.15 38.0 20.15 37.95 20.15 37.9 20.15 37.9 20.15 37.85 20.2 37.8 20.2 37.75 20.2 37.7 20.25 37.6 20.25 37.55 20.3 37.5 20.3 37.45 20.35 37.35 20.4 37.3 20.4 37.25 20.45 37.15 20.5 37.1 20.55 37.0 20.6 36.95 20.65 36.85 20.7 36.75 20.75 36.65 20.8 36.55 20.8 36.45 20.85 36.35 20.9 36.25 20.9 36.15 20.95 36.0 20.95 35.9 20.95 35.8 20.95 35.65 21.0 35.5 21.0 35.4 21.0 35.25 21.0 35.15 21.0 35.0 20.95 34.9 20.95 34.8 20.9 34.65 20.9 34.55 20.85 34.45 20.8 34.35 20.75 34.25 20.7 34.15 20.65 34.05 20.55 33.95 20.5 33.9 20.4 33.8 20.35 33.75 20.25 33.7 20.2 33.65 20.1 33.6 20.05 33.55 20.0 33.5 19.9 33.45 19.85 33.4 19.75 33.35 19.7 33.3 19.6 33.3 19.55 33.25 19.45 33.2 19.4 33.2 19.3 33.15 19.2 33.15 19.15 33.1 19.05 34.95 18.25 35.7 17.85 37.55 16.65 37.95 16.5 38.0 16.45 38.05 16.45 38.1 16.4 38.1 16.4 38.15 16.35 38.2 16.35 38.2 16.3 38.25 16.3 38.25 16.25 38.3 16.2 38.3 16.2 38.3 16.15 38.3 16.15 38.35 16.1 38.35 16.05 38.35 16.05 38.35 16.0 38.35 15.95 38.3 15.9 38.3 15.85 38.3 15.8 38.25 15.8 38.25 15.75 38.2 15.7 38.15 15.7 38.1 15.65 38.05 15.6 37.85 15.0 37.85 14.95 37.8 14.85 37.75 14.75 37.7 14.7 37.65 14.6 37.6 14.5 37.55 14.45 37.45 14.35 37.35 14.25 37.3 14.15 37.2 14.05 37.1 13.95 36.95 13.9 36.85 13.8 36.7 13.7 36.6 13.55 36.55 13.5 36.45 13.45 36.4 13.45 36.3 13.4 36.25 13.35 36.15 13.35 36.05 13.3 35.95 13.3 35.85 13.3 35.75 13.25 35.65 13.25 35.55 13.25 35.45 13.2 35.3 13.2 35.2 13.2 35.05 13.2 35.05 13.2 34.95 13.2 L34.95 13.2 M42.8 13.2 Q42.6 13.2 42.4 13.25 42.2 13.25 42.0 13.3 41.8 13.35 41.6 13.45 41.45 13.5 41.25 13.6 41.05 13.7 40.9 13.85 40.7 13.95 40.5 14.1 40.35 14.25 40.2 14.4 40.0 14.55 39.85 14.75 39.75 14.85 39.65 14.95 39.6 15.1 39.5 15.2 39.45 15.3 39.35 15.4 39.3 15.5 39.2 15.6 39.15 15.7 39.1 15.8 39.05 15.9 39.0 16.0 38.95 16.05 38.9 16.15 38.9 16.25 38.85 16.35 38.8 16.45 38.8 16.5 38.75 16.6 38.75 16.7 38.75 16.8 38.7 16.85 38.7 16.95 38.7 17.05 38.65 17.15 38.65 17.25 38.65 17.3 38.65 17.4 38.65 17.5 38.65 17.6 38.65 17.7 38.65 17.8 38.65 18.0 38.65 18.2 38.65 18.4 38.7 18.6 38.7 18.8 38.75 18.95 38.75 19.15 38.8 19.3 38.85 19.5 38.9 19.65 38.95 19.8 39.0 19.95 39.05 20.1 39.1 20.2 39.2 20.35 39.25 20.5 39.4 20.75 39.6 20.95 39.75 21.2 39.95 21.35 40.15 21.55 40.35 21.7 40.55 21.85 40.75 22.0 41.0 22.1 41.25 22.2 41.45 22.3 41.75 22.35 42.0 22.45 42.25 22.45 42.55 22.5 42.85 22.5 43.05 22.5 43.2 22.5 43.4 22.45 43.55 22.45 43.75 22.4 43.9 22.35 44.1 22.3 44.25 22.25 44.4 22.2 44.6 22.1 44.75 22.0 44.9 21.9 45.1 21.8 45.25 21.7 45.4 21.6 45.55 21.45 45.65 21.4 45.7 21.3 45.8 21.25 45.85 21.15 45.95 21.1 46.0 21.05 46.05 20.95 46.1 20.9 46.1 20.85 46.15 20.8 46.2 20.75 46.2 20.7 46.25 20.65 46.25 20.6 46.25 20.55 46.25 20.5 46.25 20.45 46.25 20.4 46.25 20.4 46.2 20.35 46.2 20.3 46.2 20.3 46.15 20.25 46.15 20.25 46.1 20.2 46.1 20.2 46.05 20.2 46.0 20.15 45.95 20.15 45.9 20.15 45.9 20.15 45.85 20.15 45.8 20.15 45.75 20.15 45.7 20.15 45.65 20.2 45.6 20.2 45.55 20.2 45.5 20.25 45.45 20.25 45.4 20.3 45.35 20.3 45.3 20.35 45.2 20.4 45.15 20.4 45.05 20.45 45.0 20.5 44.9 20.55 44.85 20.6 44.75 20.65 44.65 20.7 44.55 20.75 44.5 20.8 44.4 20.8 44.3 20.85 44.2 20.9 44.1 20.9 43.95 20.95 43.85 20.95 43.75 20.95 43.6 20.95 43.5 21.0 43.35 21.0 43.2 21.0 43.05 21.0 42.95 21.0 42.85 20.95 42.7 20.95 42.6 20.9 42.5 20.9 42.4 20.85 42.3 20.8 42.15 20.75 42.1 20.7 42.0 20.65 41.9 20.55 41.8 20.5 41.7 20.4 41.65 20.35 41.55 20.25 41.5 20.2 41.45 20.1 41.4 20.05 41.35 20.0 41.3 19.9 41.25 19.85 41.2 19.75 41.2 19.7 41.15 19.6 41.1 19.55 41.05 19.45 41.05 19.4 41.0 19.3 41.0 19.2 40.95 19.15 40.95 19.05 42.8 18.25 43.55 17.85 45.35 16.65 45.8 16.5 45.85 16.45 45.9 16.45 45.95 16.4 45.95 16.4 46.0 16.35 46.0 16.35 46.05 16.3 46.1 16.3 46.1 16.25 46.1 16.2 46.15 16.2 46.15 16.15 46.15 16.15 46.15 16.1 46.15 16.05 46.15 16.05 46.15 16.0 46.15 15.95 46.15 15.9 46.15 15.85 46.1 15.8 46.1 15.8 46.05 15.75 46.05 15.7 46.0 15.7 45.95 15.65 45.85 15.6 45.7 15.0 45.65 14.95 45.65 14.85 45.6 14.75 45.55 14.7 45.5 14.6 45.45 14.5 45.35 14.45 45.3 14.35 45.2 14.25 45.1 14.15 45.0 14.05 44.9 13.95 44.8 13.9 44.7 13.8 44.55 13.7 44.4 13.55 44.35 13.5 44.25 13.45 44.2 13.45 44.15 13.4 44.05 13.35 43.95 13.35 43.9 13.3 43.8 13.3 43.7 13.3 43.6 13.25 43.5 13.25 43.4 13.25 43.25 13.2 43.15 13.2 43.05 13.2 42.9 13.2 42.85 13.2 42.8 13.2 L42.8 13.2 M34.85 14.4 Q34.9 14.4 34.95 14.4 35.0 14.4 35.05 14.4 35.1 14.45 35.15 14.45 35.2 14.45 35.25 14.5 35.3 14.5 35.35 14.55 35.4 14.6 35.45 14.6 35.45 14.65 35.5 14.7 35.55 14.75 35.6 14.8 35.65 14.85 35.7 14.9 35.75 14.95 35.8 15.0 35.85 15.05 35.9 15.1 35.9 15.15 35.95 15.2 35.95 15.25 36.0 15.3 36.0 15.35 36.05 15.4 36.05 15.45 36.05 15.5 36.05 15.5 36.05 15.55 36.05 15.6 36.05 15.65 36.05 15.7 36.05 15.75 36.05 15.75 36.05 15.8 36.05 15.85 36.05 15.9 36.05 15.9 36.0 15.95 36.0 15.95 36.0 16.0 36.0 16.0 36.0 16.0 35.95 16.05 35.95 16.05 35.9 16.1 35.9 16.15 35.85 16.25 35.8 16.3 35.75 16.35 35.65 16.4 35.6 16.5 35.5 16.55 35.45 16.6 35.35 16.7 35.25 16.75 35.1 16.85 35.0 16.9 34.9 17.0 34.75 17.05 34.6 17.15 33.4 17.8 32.9 17.95 32.9 17.9 32.85 17.9 32.85 17.85 32.85 17.8 32.85 17.75 32.85 17.7 32.8 17.65 32.8 17.55 32.8 17.5 32.8 17.45 32.8 17.35 32.8 17.3 32.8 17.2 32.8 17.15 32.8 17.05 32.8 16.95 32.8 16.75 32.8 16.55 32.85 16.35 32.85 16.15 32.9 16.0 32.95 15.8 33.0 15.65 33.1 15.5 33.15 15.35 33.25 15.2 33.35 15.1 33.5 15.0 33.6 14.85 33.75 14.75 33.85 14.7 34.0 14.6 34.05 14.6 34.1 14.55 34.15 14.55 34.2 14.55 34.2 14.55 34.25 14.5 34.3 14.5 34.35 14.5 34.35 14.5 34.4 14.45 34.45 14.45 34.45 14.45 34.5 14.45 34.55 14.45 34.55 14.45 34.6 14.45 34.8 14.4 34.8 14.4 34.85 14.4 34.85 14.4 L34.85 14.4 M42.7 14.4 Q42.75 14.4 42.8 14.4 42.85 14.4 42.9 14.4 42.9 14.45 42.95 14.45 43.0 14.45 43.05 14.5 43.1 14.5 43.15 14.55 43.2 14.6 43.25 14.6 43.3 14.65 43.35 14.7 43.4 14.75 43.45 14.8 43.5 14.85 43.55 14.9 43.6 14.95 43.65 15.0 43.7 15.05 43.7 15.1 43.75 15.15 43.8 15.2 43.8 15.25 43.85 15.3 43.85 15.35 43.85 15.4 43.85 15.45 43.9 15.5 43.9 15.5 43.9 15.55 43.9 15.6 43.9 15.7 43.9 15.75 43.9 15.8 43.85 15.85 43.85 15.9 43.85 15.95 43.85 15.95 43.85 16.0 43.8 16.0 43.75 16.05 43.75 16.15 43.7 16.2 43.65 16.25 43.55 16.35 43.5 16.4 43.45 16.45 43.35 16.55 43.25 16.6 43.15 16.7 43.05 16.75 42.95 16.85 42.85 16.9 42.7 17.0 42.6 17.05 42.45 17.15 41.2 17.8 40.7 17.95 40.65 17.85 40.65 17.7 40.65 17.6 40.65 17.4 40.6 17.2 40.6 16.95 40.6 16.75 40.65 16.55 40.65 16.35 40.7 16.15 40.75 16.0 40.8 15.8 40.85 15.65 40.95 15.5 41.0 15.35 41.1 15.2 41.2 15.1 41.3 15.0 41.45 14.85 41.55 14.75 41.7 14.7 41.85 14.6 41.9 14.6 41.95 14.55 42.0 14.55 42.0 14.55 42.05 14.55 42.1 14.5 42.15 14.5 42.15 14.5 42.2 14.5 42.25 14.45 42.25 14.45 42.3 14.45 42.35 14.45 42.35 14.45 42.4 14.45 42.4 14.45 42.65 14.4 42.65 14.4 42.65 14.4 42.7 14.4 L42.7 14.4" fill="#ffffff" fill-rule="evenodd" stroke="none"/>
  </g>
</svg>
