<?xml version="1.0" encoding="UTF-8" standalone="no"?>
<svg xmlns:ffdec="https://www.free-decompiler.com/flash" xmlns:xlink="http://www.w3.org/1999/xlink" ffdec:objectType="shape" height="26.0px" width="26.0px" xmlns="http://www.w3.org/2000/svg">
  <g transform="matrix(1.0, 0.0, 0.0, 1.0, 0.0, 0.0)">
    <path d="M9.3 10.35 Q9.35 10.35 9.4 10.35 9.45 10.35 9.5 10.35 9.55 10.35 9.6 10.35 9.6 10.35 9.65 10.35 9.7 10.35 9.7 10.35 9.75 10.35 9.8 10.35 9.8 10.35 9.85 10.35 9.85 10.35 9.85 10.35 9.95 10.3 10.4 9.95 10.2 10.7 10.05 11.05 10.0 11.15 9.95 11.25 9.85 11.4 9.75 11.55 9.65 11.75 9.5 11.95 9.35 12.15 9.15 12.4 9.0 12.6 8.75 12.9 L7.55 14.4 Q7.3 14.75 7.05 15.1 6.8 15.45 6.6 15.75 6.4 16.1 6.2 16.4 6.05 16.7 5.9 17.0 5.75 17.3 5.65 17.55 5.55 17.85 5.5 18.1 5.4 18.4 5.4 18.65 5.35 18.9 5.35 19.1 5.35 19.35 5.35 19.55 5.4 19.75 5.45 19.95 5.45 20.15 5.5 20.35 5.6 20.55 5.65 20.7 5.75 20.85 5.8 21.0 5.9 21.1 6.05 21.25 6.15 21.35 6.25 21.45 6.4 21.55 6.55 21.6 6.6 21.6 6.6 21.65 6.65 21.65 6.7 21.65 6.7 21.7 6.75 21.7 6.8 21.7 6.85 21.7 6.9 21.7 6.9 21.75 6.95 21.75 7.0 21.75 7.05 21.75 7.1 21.75 7.15 21.75 7.2 21.75 7.25 21.75 7.3 21.75 7.35 21.75 7.45 21.7 7.5 21.7 7.55 21.65 7.6 21.65 7.7 21.6 7.75 21.6 7.8 21.55 7.9 21.5 7.95 21.45 8.0 21.4 8.1 21.35 8.2 21.25 8.25 21.2 8.3 21.15 8.35 21.1 8.4 21.1 8.4 21.0 8.45 20.95 8.45 20.9 8.5 20.8 8.5 20.75 8.55 20.65 8.55 20.55 8.55 20.45 8.6 20.35 8.6 20.25 8.6 20.1 8.6 20.0 8.6 19.85 8.6 19.8 8.6 19.75 8.6 19.65 8.6 19.6 8.6 19.5 8.55 19.45 8.55 19.35 8.55 19.3 8.5 19.2 8.45 19.1 8.45 19.0 8.4 18.9 8.35 18.8 8.3 18.7 8.3 18.6 8.25 18.5 8.2 18.4 8.15 18.25 8.1 18.15 8.05 18.05 8.05 17.95 8.05 17.8 8.0 17.7 8.0 17.6 8.0 17.5 8.0 17.4 8.05 17.3 8.05 17.2 8.1 17.1 8.1 17.05 8.15 16.95 8.2 16.85 9.75 14.15 10.25 13.45 10.5 13.1 10.7 12.8 10.9 12.45 11.05 12.15 11.25 11.85 11.4 11.55 11.55 11.25 11.65 10.95 11.75 10.65 11.85 10.35 11.95 10.1 12.0 9.8 12.05 9.55 12.1 9.3 12.1 9.05 12.1 8.8 12.1 8.65 12.1 8.55 12.1 8.45 12.1 8.35 12.05 8.25 12.05 8.15 12.0 8.05 12.0 8.0 11.95 7.95 11.9 7.85 11.85 7.8 11.8 7.75 11.75 7.75 11.7 7.7 11.65 7.7 11.6 7.65 L11.4 7.65 Q11.4 7.65 11.35 7.65 11.3 7.65 11.3 7.7 11.25 7.7 11.25 7.7 11.2 7.75 11.15 7.75 11.1 7.75 11.1 7.8 11.05 7.8 11.0 7.85 10.95 7.9 10.9 7.9 10.85 7.95 10.8 8.0 10.75 8.05 10.7 8.05 10.65 8.1 10.6 8.1 10.55 8.15 10.5 8.15 10.45 8.2 10.4 8.2 10.35 8.25 10.35 8.25 10.3 8.25 10.25 8.25 10.2 8.3 10.2 8.3 10.15 8.3 10.1 8.3 L9.7 8.3 Q9.6 8.3 9.25 8.25 8.7 8.15 8.3 8.1 8.15 8.05 8.0 8.05 7.9 8.0 7.75 8.0 7.6 8.0 7.5 7.95 7.35 7.95 7.2 7.95 7.1 7.9 6.95 7.9 6.85 7.9 6.75 7.9 6.6 7.9 6.5 7.9 6.35 7.9 6.25 7.9 6.15 7.9 6.05 7.9 5.95 7.9 5.85 7.95 5.75 7.95 5.65 7.95 5.55 8.0 5.45 8.05 5.4 8.05 5.3 8.1 5.25 8.15 5.15 8.2 5.1 8.25 5.05 8.3 5.0 8.35 4.9 8.4 4.85 8.45 4.8 8.55 4.75 8.6 4.7 8.7 4.65 8.8 4.65 8.9 4.6 8.95 4.55 9.05 4.5 9.15 4.5 9.3 4.45 9.4 4.45 9.5 4.4 9.6 4.4 9.7 4.35 9.85 4.35 9.95 4.2 11.05 4.2 11.2 4.2 11.4 4.25 11.45 4.25 11.5 4.3 11.5 4.3 11.55 4.4 11.55 4.45 11.55 4.55 11.55 4.65 11.55 4.75 11.5 4.8 11.5 4.85 11.45 4.9 11.45 4.95 11.4 5.0 11.4 5.05 11.35 5.1 11.35 5.15 11.3 5.2 11.25 5.25 11.25 5.3 11.2 5.3 11.15 5.35 11.1 5.4 11.05 5.45 11.0 5.45 10.95 5.5 10.9 5.5 10.85 5.55 10.8 5.6 10.75 5.6 10.7 5.65 10.65 5.7 10.65 5.7 10.6 5.75 10.55 5.8 10.55 5.8 10.5 5.85 10.5 5.9 10.5 5.9 10.45 5.95 10.45 6.0 10.45 6.3 10.35 7.35 10.35 L9.3 10.35" fill="#ffffff" fill-rule="evenodd" stroke="none"/>
    <path d="M15.9 8.0 Q16.0 7.95 16.1 7.85 16.15 7.8 16.25 7.75 16.35 7.7 16.4 7.6 16.5 7.55 16.55 7.5 16.65 7.45 16.7 7.35 16.8 7.3 16.85 7.25 16.9 7.2 16.95 7.15 17.0 7.1 17.05 7.0 17.1 6.95 17.15 6.9 17.2 6.85 17.2 6.8 17.25 6.7 17.3 6.65 17.35 6.6 17.35 6.5 17.4 6.45 17.4 6.35 17.45 6.3 17.45 6.2 17.5 6.1 17.5 6.05 17.5 5.95 17.55 5.85 17.55 5.8 17.55 5.75 17.55 5.75 17.55 5.7 17.55 5.65 17.55 5.6 17.55 5.55 17.55 5.45 17.55 5.4 17.5 5.35 17.5 5.25 17.5 5.2 17.45 5.15 17.45 5.1 17.4 5.0 17.4 4.95 17.35 4.9 17.3 4.85 17.3 4.8 17.25 4.75 17.2 4.7 17.15 4.65 17.1 4.6 17.05 4.55 17.0 4.5 16.9 4.45 16.85 4.45 16.8 4.4 16.7 4.35 16.65 4.35 16.55 4.3 16.5 4.3 16.4 4.3 16.3 4.25 16.25 4.25 16.15 4.25 16.05 4.25 15.95 4.25 15.8 4.25 15.65 4.25 15.45 4.3 15.35 4.3 15.2 4.35 15.05 4.4 14.95 4.45 14.8 4.55 14.7 4.6 14.6 4.7 14.5 4.75 14.4 4.85 14.3 5.0 14.2 5.1 14.15 5.2 14.05 5.35 14.0 5.4 14.0 5.5 13.95 5.55 13.95 5.6 13.95 5.7 13.9 5.75 13.9 5.85 13.9 5.9 13.85 6.0 13.85 6.1 13.85 6.15 13.85 6.25 13.8 6.3 13.8 6.4 13.8 6.5 13.8 6.6 13.8 6.7 13.8 6.8 13.8 6.9 13.85 6.95 13.85 7.05 13.9 7.15 13.9 7.25 13.95 7.4 13.95 7.5 14.0 7.6 14.05 7.7 14.1 7.8 14.15 7.9 14.2 8.05 14.25 8.15 14.35 8.3 14.1 8.45 13.9 8.65 13.7 8.8 13.55 9.0 13.4 9.15 13.25 9.35 13.1 9.5 13.0 9.7 12.85 9.85 12.8 10.05 12.7 10.25 12.65 10.4 12.6 10.6 12.55 10.8 12.55 10.95 12.55 11.15 12.55 11.2 12.55 11.25 12.55 11.3 12.55 11.35 12.55 11.4 12.55 11.45 12.55 11.5 12.55 11.5 12.55 11.55 12.55 11.6 12.55 11.65 12.6 11.7 12.6 11.75 12.6 11.8 12.6 11.85 12.6 11.9 12.65 12.15 12.75 12.4 12.85 12.65 13.0 12.85 13.1 13.05 13.3 13.25 13.45 13.4 13.65 13.55 13.85 13.7 14.05 13.8 14.3 13.9 14.55 13.95 14.85 14.0 15.15 14.05 15.45 14.1 15.75 14.1 15.95 14.1 16.15 14.1 16.35 14.05 16.55 14.0 16.75 13.95 16.95 13.9 17.1 13.85 17.3 13.75 17.45 13.7 17.65 13.6 17.8 13.5 17.95 13.35 18.1 13.25 18.3 13.1 18.45 13.0 18.6 12.8 L19.5 13.55 Q19.6 13.65 19.7 13.7 19.8 13.8 19.9 13.85 19.95 13.95 20.05 14.0 20.15 14.05 20.2 14.1 20.3 14.1 20.35 14.15 20.45 14.2 20.5 14.2 20.6 14.25 20.65 14.25 20.7 14.25 20.8 14.25 20.85 14.25 20.9 14.25 20.95 14.25 21.0 14.2 21.05 14.2 21.1 14.2 21.15 14.15 21.2 14.15 21.25 14.1 21.25 14.05 21.3 14.0 21.35 13.95 21.4 13.9 21.4 13.85 21.45 13.8 21.45 13.75 21.5 13.7 21.5 13.6 21.55 13.55 21.55 13.5 21.6 13.45 21.6 13.4 21.6 13.35 21.65 13.3 21.65 13.25 21.65 13.2 21.65 13.15 21.7 13.1 21.7 13.05 21.7 13.0 21.7 12.95 21.7 12.95 21.7 12.9 21.7 12.85 21.7 12.8 21.65 12.8 21.65 12.75 21.65 12.7 21.65 12.7 21.6 12.65 21.6 12.65 21.55 12.65 21.55 12.6 21.5 12.6 21.45 12.6 21.4 12.6 21.4 12.6 21.35 12.6 21.3 12.6 21.3 12.6 21.25 12.6 21.2 12.6 21.15 12.6 21.1 12.6 21.1 12.6 21.05 12.65 21.0 12.65 20.95 12.65 20.9 12.65 20.85 12.7 20.85 12.7 20.8 12.7 20.75 12.7 20.7 12.7 20.65 12.75 20.65 12.75 20.6 12.75 20.55 12.75 20.55 12.75 20.5 12.75 20.5 12.75 20.45 12.75 20.4 12.75 20.3 12.75 20.25 12.75 20.15 12.7 20.1 12.7 20.05 12.65 19.95 12.6 19.9 12.55 19.8 12.5 19.75 12.45 19.7 12.4 19.6 12.35 19.55 12.25 19.45 12.2 19.4 12.1 19.35 12.0 19.45 11.85 19.5 11.7 19.6 11.5 19.65 11.35 19.7 11.2 19.75 11.0 19.8 10.85 19.85 10.7 19.9 10.55 19.95 10.35 19.95 10.2 20.0 10.05 20.0 9.85 20.0 9.7 20.05 9.55 20.05 9.35 20.0 8.9 20.0 8.65 20.1 8.65 20.15 8.65 20.25 8.6 20.3 8.6 20.35 8.55 20.45 8.55 20.5 8.55 20.6 8.5 20.65 8.45 20.7 8.45 20.8 8.4 20.85 8.4 20.9 8.35 21.0 8.3 21.05 8.25 21.1 8.25 21.2 8.2 21.25 8.1 21.35 8.05 21.4 7.95 21.45 7.9 21.5 7.8 21.6 7.7 21.6 7.65 21.65 7.55 21.7 7.45 21.75 7.35 21.75 7.3 21.75 7.2 21.8 7.1 21.8 7.0 21.8 6.9 L21.8 6.75 Q21.8 6.7 21.8 6.6 21.75 6.55 21.75 6.5 21.75 6.45 21.7 6.4 21.7 6.3 21.65 6.25 21.6 6.2 21.6 6.15 21.55 6.15 21.5 6.1 21.45 6.05 21.4 6.0 21.35 5.95 21.3 5.95 21.25 5.95 21.2 5.9 21.2 5.9 21.15 5.85 21.1 5.85 21.05 5.85 21.05 5.85 21.0 5.8 20.95 5.8 20.95 5.8 20.9 5.8 20.85 5.8 20.85 5.8 20.8 5.8 20.8 5.8 20.75 5.8 20.7 5.8 20.7 5.8 20.65 5.8 20.6 5.8 20.55 5.8 20.5 5.85 20.5 5.85 20.45 5.85 20.4 5.9 20.35 5.9 20.3 5.95 20.3 5.95 20.25 6.0 20.2 6.0 20.2 6.05 20.15 6.1 20.15 6.1 20.1 6.15 20.1 6.2 20.1 6.2 20.1 6.25 20.05 6.3 20.05 6.35 20.05 6.4 20.05 6.45 20.05 6.5 20.05 6.5 20.1 6.55 20.1 6.6 20.1 6.6 20.1 6.65 20.15 6.7 20.15 6.7 20.15 6.75 20.2 6.75 20.2 6.8 20.25 6.8 20.25 6.85 20.3 6.85 20.3 6.85 L20.7 6.95 Q20.75 6.95 20.8 6.95 20.85 7.0 20.85 7.0 20.9 7.0 20.95 7.05 20.95 7.1 21.0 7.15 21.0 7.2 21.0 7.25 21.0 7.3 21.05 7.3 21.05 7.35 21.05 7.35 21.05 7.4 21.05 7.4 21.05 7.45 21.05 7.45 21.0 7.5 21.0 7.5 21.0 7.55 21.0 7.55 20.95 7.6 20.95 7.6 20.9 7.65 20.9 7.65 20.85 7.7 20.85 7.7 20.8 7.75 20.75 7.75 20.75 7.75 20.7 7.8 20.65 7.8 20.65 7.85 20.6 7.85 20.55 7.85 20.5 7.85 20.45 7.9 20.45 7.9 20.4 7.9 20.35 7.9 20.3 7.9 L19.4 7.9 19.1 7.85 Q18.95 7.85 18.65 7.85 18.55 7.85 18.45 7.85 18.35 7.85 18.3 7.85 18.2 7.9 18.15 7.9 18.05 7.9 18.0 7.9 17.9 7.95 17.85 7.95 17.8 8.0 17.75 8.0 17.7 8.05 17.65 8.05 17.6 8.1 17.6 8.1 17.55 8.15 17.55 8.2 17.5 8.2 17.45 8.25 17.45 8.3 17.4 8.3 17.4 8.35 17.35 8.4 17.35 8.45 17.35 8.45 17.3 8.5 17.3 8.55 17.3 8.55 17.3 8.6 17.3 8.65 17.3 8.65 17.3 8.7 17.3 8.75 17.3 8.8 17.35 8.85 17.35 8.9 17.35 8.95 17.35 9.0 17.4 9.0 17.4 9.05 17.45 9.1 17.45 9.1 17.5 9.15 17.55 9.15 17.6 9.2 17.6 9.2 17.65 9.25 17.7 9.25 17.75 9.25 17.8 9.3 17.85 9.3 17.85 9.3 17.9 9.3 17.95 9.3 17.95 9.25 18.0 9.25 18.0 9.25 18.05 9.25 18.05 9.25 18.1 9.2 18.1 9.2 18.15 9.2 18.35 8.95 18.4 8.9 18.4 8.9 18.45 8.85 18.5 8.85 18.5 8.8 18.55 8.8 18.6 8.8 18.65 8.8 18.65 8.8 18.7 8.8 18.75 8.8 18.8 8.8 18.85 8.85 18.9 8.85 18.9 8.9 18.95 8.9 19.0 8.95 19.0 8.95 19.05 9.0 19.05 9.05 19.05 9.1 19.1 9.1 19.1 9.15 19.1 9.2 19.15 9.2 19.15 9.25 19.15 9.3 19.15 9.3 19.15 9.35 19.15 9.35 19.2 9.4 19.2 9.45 19.2 9.45 19.2 9.5 19.2 9.55 19.2 9.55 19.2 9.65 19.2 9.75 19.2 9.85 19.15 9.95 19.15 10.05 19.1 10.15 19.1 10.25 19.05 10.35 19.05 10.45 19.0 10.55 18.95 10.65 18.9 10.75 18.9 10.85 18.85 10.95 18.75 11.05 18.7 11.15 18.5 10.8 17.3 9.55 16.1 8.35 15.9 8.0 L15.9 8.0 M15.45 7.3 Q15.4 7.2 15.35 7.1 15.25 7.0 15.2 6.95 15.2 6.85 15.15 6.75 15.1 6.65 15.05 6.55 15.05 6.45 15.0 6.35 15.0 6.3 14.95 6.2 14.95 6.1 14.95 6.0 14.95 5.9 14.95 5.8 14.95 5.7 14.95 5.6 14.95 5.5 15.0 5.4 15.05 5.35 15.05 5.3 15.1 5.2 15.2 5.15 15.25 5.1 15.3 5.05 15.4 5.0 15.5 5.0 15.55 4.95 15.65 4.95 15.8 4.95 15.9 4.95 15.9 4.95 15.95 4.95 15.95 4.95 16.0 4.95 16.0 4.95 16.05 4.95 16.05 5.0 16.1 5.0 16.1 5.0 16.15 5.0 16.15 5.05 16.2 5.05 16.2 5.1 16.25 5.1 16.3 5.15 16.3 5.15 16.35 5.2 16.35 5.2 16.4 5.25 16.4 5.3 16.45 5.3 16.45 5.35 16.5 5.4 16.5 5.4 16.5 5.45 16.55 5.5 16.55 5.5 16.55 5.55 16.55 5.6 16.55 5.65 16.55 5.7 16.55 5.7 16.55 5.8 16.55 5.85 16.5 5.95 16.5 6.05 16.45 6.15 16.4 6.25 16.35 6.35 16.3 6.45 16.2 6.55 16.1 6.65 16.05 6.75 15.95 6.85 15.8 6.95 15.7 7.1 15.55 7.2 15.45 7.3 L15.45 7.3 M13.9 10.35 Q13.9 10.25 13.95 10.15 13.95 10.05 14.0 9.95 14.0 9.9 14.05 9.8 14.1 9.7 14.15 9.6 14.2 9.55 14.25 9.45 14.35 9.35 14.4 9.3 14.5 9.2 14.55 9.15 14.65 9.1 14.75 9.0 15.15 9.55 16.25 10.6 17.5 11.85 17.95 12.2 17.85 12.3 17.8 12.35 17.7 12.4 17.6 12.5 17.55 12.55 17.45 12.6 17.35 12.65 17.25 12.7 17.15 12.7 17.05 12.75 16.95 12.8 16.85 12.8 16.75 12.8 16.6 12.8 16.5 12.85 16.4 12.85 L16.35 12.85 Q16.2 12.85 16.1 12.85 16.0 12.8 15.85 12.8 15.75 12.8 15.65 12.75 15.5 12.7 15.4 12.7 15.3 12.65 15.2 12.6 15.05 12.55 14.95 12.5 14.85 12.45 14.75 12.4 14.65 12.35 14.55 12.3 14.45 12.25 14.4 12.15 14.3 12.1 14.25 12.0 14.2 11.95 14.15 11.85 14.1 11.75 14.05 11.65 14.0 11.55 14.0 11.45 13.95 11.35 13.95 11.25 13.9 11.1 13.9 11.0 13.9 10.85 13.9 10.75 13.9 10.7 13.9 10.65 13.9 10.65 13.9 10.6 13.9 10.55 13.9 10.5 13.9 10.45 13.9 10.45 13.9 10.4 13.9 10.35 L13.9 10.35" fill="#ffffff" fill-rule="evenodd" stroke="none"/>
  </g>
</svg>
