<?xml version="1.0" encoding="UTF-8" standalone="no"?>
<svg xmlns:ffdec="https://www.free-decompiler.com/flash" xmlns:xlink="http://www.w3.org/1999/xlink" ffdec:objectType="shape" height="26.0px" width="26.0px" xmlns="http://www.w3.org/2000/svg">
  <g transform="matrix(1.0, 0.0, 0.0, 1.0, 0.0, 0.0)">
    <path d="M18.85 21.0 Q18.85 21.0 20.05 21.4 21.25 21.85 21.3 21.8 21.55 21.65 18.35 15.6 16.75 12.55 15.15 9.5 14.85 9.4 14.5 9.3 14.2 9.2 13.85 9.15 13.5 9.05 13.15 9.0 12.8 8.95 12.45 8.9 12.15 8.85 11.85 8.8 11.6 8.75 11.4 8.75 11.2 8.7 11.05 8.7 11.0 8.7 10.95 8.7 11.5 9.0 12.2 9.75 12.8 10.4 13.55 11.35 14.15 12.25 14.85 13.35 15.45 14.35 16.1 15.5 16.65 16.5 17.2 17.55 17.65 18.45 18.1 19.3 18.4 19.95 18.65 20.55 18.75 20.75 18.85 21.0 L18.85 21.0" fill="#f1edf8" fill-rule="evenodd" stroke="none"/>
  </g>
</svg>
