<?xml version="1.0" encoding="UTF-8" standalone="no"?>
<svg xmlns:ffdec="https://www.free-decompiler.com/flash" xmlns:xlink="http://www.w3.org/1999/xlink" ffdec:objectType="shape" height="26.0px" width="26.0px" xmlns="http://www.w3.org/2000/svg">
  <g transform="matrix(1.0, 0.0, 0.0, 1.0, 0.0, 0.0)">
    <path d="M19.0 5.9 L8.55 5.9 6.2 5.9 Q6.1 5.9 6.0 5.95 5.9 5.95 5.85 6.0 5.75 6.05 5.7 6.1 5.6 6.15 5.55 6.2 5.5 6.3 5.45 6.35 5.45 6.45 5.4 6.55 5.4 6.6 5.35 6.7 5.35 6.8 5.35 6.95 5.35 7.05 5.35 7.15 5.4 7.25 5.4 7.3 5.45 7.4 5.45 7.45 5.5 7.55 5.55 7.6 5.6 7.65 5.7 7.7 5.75 7.75 5.85 7.75 5.9 7.8 6.0 7.8 6.1 7.8 6.2 7.8 L19.65 7.8 Q19.8 7.8 19.9 7.75 20.0 7.75 20.1 7.7 20.2 7.65 20.25 7.6 20.35 7.55 20.4 7.5 20.45 7.45 20.5 7.35 20.55 7.3 20.6 7.2 20.6 7.1 20.65 7.0 20.65 6.9 20.65 6.8 20.65 6.7 20.6 6.6 20.6 6.5 20.55 6.4 20.5 6.3 20.4 6.25 20.35 6.15 20.25 6.1 20.15 6.05 20.0 6.0 19.85 5.95 19.7 5.95 19.55 5.9 19.35 5.9 19.2 5.9 19.0 5.9 L19.0 5.9" fill="#ffffff" fill-rule="evenodd" stroke="none"/>
    <path d="M15.55 16.65 L12.0 16.65 9.65 16.65 Q9.55 16.65 9.45 16.7 9.35 16.75 9.3 16.75 9.2 16.8 9.15 16.85 9.05 16.9 9.0 17.0 8.95 17.05 8.9 17.15 8.9 17.2 8.85 17.3 8.8 17.4 8.8 17.5 8.8 17.6 8.8 17.7 8.8 17.8 8.8 17.9 8.85 18.0 8.85 18.1 8.9 18.15 8.9 18.25 8.95 18.3 9.0 18.35 9.05 18.4 9.15 18.45 9.2 18.5 9.3 18.5 9.35 18.55 9.45 18.55 9.55 18.55 9.65 18.55 L16.2 18.55 Q16.35 18.55 16.45 18.5 16.55 18.5 16.65 18.45 16.75 18.45 16.8 18.4 16.9 18.35 16.95 18.25 17.0 18.2 17.05 18.15 17.1 18.05 17.15 17.95 17.15 17.9 17.2 17.8 17.2 17.7 17.2 17.55 17.2 17.45 17.2 17.35 17.15 17.25 17.1 17.15 17.05 17.05 16.95 17.0 16.9 16.9 16.8 16.85 16.7 16.8 16.55 16.75 16.4 16.75 16.25 16.7 16.1 16.65 15.95 16.65 15.75 16.65 15.55 16.65 L15.55 16.65" fill="#ffffff" fill-rule="evenodd" stroke="none"/>
  </g>
</svg>
