<?xml version="1.0" encoding="UTF-8" standalone="no"?>
<svg xmlns:ffdec="https://www.free-decompiler.com/flash" xmlns:xlink="http://www.w3.org/1999/xlink" ffdec:objectType="shape" height="26.0px" width="26.0px" xmlns="http://www.w3.org/2000/svg">
  <g transform="matrix(1.0, 0.0, 0.0, 1.0, 0.0, 0.0)">
    <path d="M6.4 9.7 Q6.35 9.8 6.3 9.9 6.3 9.95 6.25 10.05 6.2 10.15 6.2 10.25 6.15 10.3 6.15 10.4 6.1 10.5 6.1 10.6 6.1 10.65 6.1 10.75 6.05 10.85 6.05 10.95 6.05 11.0 6.05 11.1 6.05 11.2 6.05 11.3 6.1 11.4 6.1 11.5 6.15 11.6 6.2 11.7 6.2 11.85 6.3 11.95 6.35 12.05 6.4 12.2 6.45 12.35 6.55 12.45 6.65 12.6 6.75 12.75 6.85 12.9 6.95 13.05 L7.6 13.95 6.5 15.1 Q6.35 15.3 6.2 15.45 6.05 15.65 5.9 15.8 5.8 16.0 5.7 16.15 5.6 16.35 5.5 16.5 5.4 16.7 5.35 16.85 5.3 17.05 5.25 17.2 5.2 17.35 5.15 17.55 5.15 17.7 5.15 17.9 5.15 18.05 5.15 18.2 5.2 18.35 5.25 18.55 5.25 18.7 5.35 18.85 5.4 19.0 5.5 19.15 5.55 19.3 5.65 19.45 5.75 19.6 5.9 19.8 6.0 19.95 6.15 20.1 6.3 20.25 6.45 20.4 6.6 20.55 6.8 20.65 6.95 20.8 7.15 20.9 7.3 21.0 7.5 21.1 7.7 21.2 7.85 21.25 8.05 21.35 8.25 21.4 8.45 21.45 8.65 21.5 8.85 21.5 9.05 21.55 9.25 21.55 9.45 21.55 9.65 21.55 9.85 21.55 10.05 21.5 10.25 21.5 10.45 21.45 10.65 21.4 10.85 21.35 11.05 21.3 11.25 21.2 11.45 21.15 11.6 21.05 11.8 20.95 12.0 20.85 12.15 20.7 12.35 20.6 12.5 20.45 12.65 20.3 12.8 20.15 12.95 20.05 13.1 19.85 13.25 19.7 13.35 19.55 13.45 19.35 13.55 19.15 13.6 19.0 13.7 18.8 13.75 18.6 13.8 18.4 13.85 18.2 13.85 17.95 13.85 17.75 13.85 17.5 13.85 17.25 13.85 17.05 13.8 16.8 13.75 16.6 13.7 16.35 13.6 16.15 13.5 15.9 13.4 15.7 13.3 15.5 13.15 15.3 13.0 15.1 12.85 14.9 12.65 14.7 12.45 14.5 12.25 14.35 12.0 14.15 L10.95 13.3 11.95 12.4 Q12.1 12.25 12.2 12.1 12.35 11.95 12.45 11.8 12.55 11.65 12.65 11.5 12.75 11.4 12.85 11.25 12.9 11.1 12.95 10.95 13.0 10.8 13.05 10.65 13.1 10.5 13.1 10.35 13.15 10.25 13.15 10.1 13.15 9.95 13.1 9.8 13.1 9.7 13.05 9.55 13.05 9.4 12.95 9.3 12.9 9.2 12.85 9.05 12.75 8.95 12.7 8.85 12.6 8.75 12.5 8.65 12.4 8.55 12.25 8.45 12.15 8.35 12.0 8.3 11.9 8.25 11.75 8.15 11.65 8.1 11.55 8.05 11.4 8.0 11.3 7.95 11.15 7.95 11.0 7.9 10.85 7.85 10.75 7.85 10.6 7.8 10.45 7.8 10.3 7.8 10.1 7.8 9.95 7.75 9.8 7.75 9.5 7.75 9.2 7.8 8.9 7.8 8.65 7.9 8.4 7.95 8.15 8.05 7.9 8.15 7.7 8.25 7.5 8.4 7.3 8.55 7.1 8.7 6.95 8.85 6.8 9.05 6.65 9.25 6.5 9.5 6.4 9.7 L6.4 9.7 M10.85 9.25 Q10.9 9.3 10.95 9.35 11.0 9.4 11.05 9.45 11.05 9.5 11.1 9.55 11.15 9.65 11.15 9.7 11.2 9.75 11.2 9.85 11.2 9.9 11.25 10.0 11.25 10.1 11.25 10.2 11.25 10.25 11.25 10.35 11.25 10.45 11.25 10.55 11.25 10.65 11.25 10.7 11.2 10.8 11.2 10.9 11.15 10.95 11.15 11.05 11.1 11.1 11.05 11.2 11.05 11.25 11.0 11.3 10.95 11.4 10.9 11.45 10.85 11.5 10.8 11.55 10.75 11.6 10.65 11.65 10.6 11.7 10.55 11.8 10.45 11.85 10.4 11.9 10.35 11.95 10.25 12.0 10.2 12.05 10.15 12.1 10.05 12.15 10.0 12.2 9.9 12.25 9.85 12.3 9.75 12.35 9.7 12.4 9.65 12.35 9.55 12.3 9.5 12.25 9.45 12.2 9.35 12.1 9.3 12.05 9.25 12.0 9.15 11.9 9.1 11.85 9.05 11.75 8.95 11.7 8.9 11.6 8.85 11.5 8.8 11.4 8.7 11.3 8.65 11.2 8.6 11.1 8.55 11.0 8.45 10.95 8.4 10.85 8.4 10.75 8.35 10.7 8.3 10.6 8.25 10.55 8.25 10.5 8.2 10.45 8.2 10.4 8.15 10.35 8.15 10.3 8.15 10.25 8.15 10.25 8.15 10.2 8.15 10.15 8.15 10.15 8.15 10.1 8.15 10.05 8.2 10.0 8.2 9.95 8.2 9.9 8.25 9.85 8.25 9.8 8.3 9.75 8.3 9.7 8.35 9.65 8.4 9.6 8.45 9.55 8.45 9.45 8.5 9.4 8.55 9.35 8.6 9.3 8.65 9.2 8.7 9.15 8.8 9.1 8.85 9.1 8.9 9.05 9.0 9.0 9.05 8.95 9.15 8.95 9.2 8.9 9.3 8.9 9.4 8.85 9.5 8.85 9.55 8.85 9.65 8.85 9.75 8.85 9.85 8.85 9.95 8.85 10.0 8.85 10.1 8.9 10.2 8.9 10.25 8.9 10.35 8.95 10.4 8.95 10.5 9.0 10.55 9.05 10.6 9.05 10.7 9.1 10.75 9.15 10.8 9.2 10.85 9.25 L10.85 9.25 M11.8 18.35 Q11.8 18.45 11.8 18.5 11.75 18.6 11.75 18.7 11.75 18.75 11.7 18.85 11.65 18.95 11.6 19.0 11.55 19.1 11.5 19.2 11.45 19.3 11.4 19.35 11.3 19.45 11.25 19.55 11.15 19.65 11.05 19.7 10.95 19.8 10.9 19.9 10.8 19.95 10.75 20.05 10.65 20.1 10.6 20.15 10.5 20.25 10.45 20.3 10.35 20.35 10.3 20.35 10.2 20.4 10.15 20.45 10.1 20.45 10.0 20.5 9.95 20.5 9.9 20.5 L9.55 20.5 Q9.5 20.5 9.5 20.5 9.45 20.5 9.4 20.5 9.35 20.5 9.3 20.45 9.25 20.45 9.2 20.45 9.15 20.4 9.1 20.4 9.05 20.35 8.95 20.35 8.9 20.3 8.85 20.25 8.75 20.2 8.65 20.15 8.5 20.05 8.35 19.95 8.2 19.9 8.05 19.75 7.95 19.65 7.85 19.55 7.75 19.4 7.65 19.25 7.55 19.15 7.5 19.0 7.45 18.85 7.4 18.65 7.35 18.5 7.35 18.35 7.3 18.15 7.3 17.95 7.3 17.8 7.3 17.65 7.3 17.55 7.35 17.4 7.35 17.25 7.4 17.1 7.4 17.0 7.45 16.85 7.5 16.75 7.55 16.6 7.6 16.5 7.65 16.4 7.7 16.25 7.75 16.15 7.8 16.05 7.85 15.95 7.9 15.85 8.0 15.75 8.05 15.65 8.1 15.55 8.2 15.45 8.25 15.4 8.3 15.3 8.35 15.25 8.45 15.15 8.5 15.1 8.55 15.05 8.6 15.0 8.65 14.95 8.7 14.95 8.75 14.9 8.8 14.85 9.25 15.3 10.5 16.3 10.65 16.45 10.8 16.55 10.95 16.7 11.05 16.8 11.2 16.95 11.3 17.1 11.4 17.2 11.45 17.35 11.55 17.45 11.6 17.6 11.65 17.7 11.7 17.85 11.75 17.95 11.75 18.1 11.8 18.2 11.8 18.35 L11.8 18.35" fill="#ffffff" fill-rule="evenodd" stroke="none"/>
    <path d="M15.45 11.75 Q15.5 11.75 15.55 11.75 15.6 11.7 15.65 11.7 15.75 11.7 15.8 11.7 15.85 11.65 15.85 11.65 15.9 11.65 15.95 11.6 16.0 11.6 16.05 11.55 16.1 11.55 16.1 11.5 16.15 11.5 16.2 11.45 L17.25 9.7 18.5 11.6 Q18.55 11.65 18.6 11.65 18.65 11.7 18.7 11.7 18.75 11.75 18.75 11.75 18.8 11.75 18.85 11.8 18.9 11.8 18.95 11.8 19.0 11.8 19.0 11.8 19.05 11.8 19.1 11.85 19.15 11.85 19.15 11.85 19.2 11.85 19.3 11.85 19.35 11.8 19.4 11.8 19.45 11.8 19.5 11.75 19.55 11.7 19.6 11.65 19.65 11.65 19.7 11.55 19.75 11.5 19.8 11.45 19.85 11.4 19.9 11.3 19.9 11.25 19.95 11.15 19.95 11.05 19.9 10.9 19.85 10.8 19.8 10.65 19.75 10.55 19.65 10.4 19.6 10.3 19.45 10.15 19.35 10.0 19.25 9.9 19.15 9.75 19.0 9.6 18.85 9.45 18.65 9.3 18.5 9.15 18.35 9.0 L19.0 8.9 Q20.15 8.65 20.45 8.5 20.5 8.5 20.55 8.45 20.6 8.4 20.6 8.4 20.65 8.35 20.7 8.3 20.7 8.25 20.75 8.25 20.75 8.2 20.8 8.15 20.8 8.1 20.8 8.0 20.85 7.95 20.85 7.9 20.85 7.85 20.85 7.8 20.85 7.75 20.85 7.65 20.85 7.6 20.8 7.55 20.8 7.5 20.75 7.45 20.7 7.4 20.65 7.4 20.6 7.35 20.55 7.35 20.5 7.3 20.45 7.3 20.35 7.25 20.3 7.25 20.2 7.25 20.15 7.25 L20.1 7.25 Q20.0 7.25 19.9 7.25 19.85 7.25 19.75 7.25 19.65 7.25 19.55 7.3 19.5 7.3 19.4 7.3 19.3 7.35 19.25 7.35 19.15 7.4 19.05 7.4 19.0 7.4 18.9 7.45 18.85 7.5 18.75 7.5 L18.05 7.7 18.1 6.75 Q18.1 6.7 18.15 6.65 18.15 6.6 18.15 6.55 18.15 6.5 18.2 6.4 18.2 6.35 18.2 6.3 18.2 6.25 18.2 6.2 18.2 6.15 18.2 6.1 18.25 6.05 18.25 6.0 18.25 5.95 18.25 5.9 18.25 5.75 18.2 5.65 18.2 5.55 18.15 5.45 18.15 5.35 18.1 5.25 18.05 5.15 18.0 5.05 17.95 4.95 17.85 4.85 17.8 4.8 17.7 4.7 17.65 4.65 17.55 4.55 17.45 4.5 17.35 4.45 17.25 4.55 17.15 4.65 17.05 4.75 16.95 4.85 16.85 4.95 16.8 5.1 16.7 5.2 16.65 5.3 16.6 5.45 16.55 5.55 16.5 5.7 16.5 5.85 16.45 5.95 16.45 6.1 16.45 6.25 16.45 6.4 16.45 6.45 16.45 6.5 16.45 6.55 16.45 6.65 16.45 6.7 16.45 6.75 16.45 6.8 16.45 6.85 16.45 6.9 16.5 7.0 16.5 7.05 16.5 7.1 16.5 7.15 16.5 7.25 16.55 7.3 16.55 7.35 L16.55 7.65 Q16.45 7.6 16.35 7.55 16.2 7.5 16.1 7.45 16.0 7.4 15.9 7.35 15.8 7.35 15.7 7.3 15.65 7.25 15.55 7.25 15.45 7.2 15.35 7.2 15.3 7.2 15.2 7.2 15.1 7.2 15.05 7.2 14.95 7.2 14.9 7.2 14.8 7.2 14.75 7.2 14.65 7.2 14.6 7.2 14.55 7.2 14.45 7.25 14.4 7.25 14.35 7.25 14.25 7.3 14.2 7.3 14.15 7.3 14.1 7.35 14.0 7.35 13.95 7.4 13.95 7.5 13.95 7.7 13.95 7.75 13.95 7.8 13.95 7.85 13.95 7.9 14.0 7.95 14.0 8.0 14.0 8.05 14.05 8.05 14.05 8.1 14.1 8.15 14.15 8.15 14.15 8.2 14.2 8.25 14.25 8.25 14.3 8.3 14.35 8.3 L16.3 8.95 15.95 9.4 Q15.8 9.5 15.7 9.6 15.6 9.7 15.5 9.8 15.4 9.9 15.3 9.95 15.25 10.05 15.15 10.15 15.1 10.25 15.05 10.35 15.0 10.45 15.0 10.55 14.95 10.6 14.95 10.7 14.9 10.8 14.9 10.9 14.9 11.0 14.9 11.05 14.9 11.15 14.95 11.2 14.95 11.3 15.0 11.35 15.0 11.4 15.05 11.45 15.1 11.55 15.1 11.55 15.15 11.6 15.2 11.65 15.25 11.7 15.3 11.7 15.4 11.75 15.45 11.75 L15.45 11.75" fill="#ffffff" fill-rule="evenodd" stroke="none"/>
  </g>
</svg>
