<?xml version="1.0" encoding="UTF-8" standalone="no"?>
<svg xmlns:ffdec="https://www.free-decompiler.com/flash" xmlns:xlink="http://www.w3.org/1999/xlink" ffdec:objectType="shape" height="26.0px" width="26.0px" xmlns="http://www.w3.org/2000/svg">
  <g transform="matrix(1.0, 0.0, 0.0, 1.0, 0.0, 0.0)">
    <path d="M10.0 15.8 Q9.85 15.8 9.7 15.8 9.6 15.75 9.45 15.75 9.35 15.7 9.25 15.65 9.1 15.6 9.0 15.5 8.9 15.45 8.8 15.35 8.75 15.25 8.65 15.15 8.55 15.05 8.5 14.9 8.4 14.75 8.35 14.6 8.3 14.5 8.3 14.45 8.25 14.35 8.25 14.25 8.2 14.15 8.2 14.05 8.15 13.95 8.15 13.85 8.15 13.75 8.1 13.65 8.1 13.55 8.1 13.45 8.1 13.35 8.1 13.2 8.1 13.1 8.1 13.0 8.1 12.95 8.05 12.9 8.05 12.9 8.05 12.85 8.05 12.85 8.05 12.8 8.05 12.65 8.05 12.55 8.1 12.4 8.1 12.3 8.15 12.15 8.15 12.05 8.2 11.9 8.25 11.8 8.3 11.65 8.35 11.55 8.4 11.45 8.45 11.3 8.55 11.2 8.6 11.1 8.65 11.0 8.75 10.9 8.85 10.8 8.9 10.7 9.0 10.6 9.1 10.5 9.15 10.45 9.25 10.35 9.35 10.3 9.4 10.25 9.5 10.2 9.6 10.15 9.7 10.1 9.75 10.05 9.85 10.05 9.95 10.05 10.05 10.0 10.15 10.0 10.3 10.0 10.45 10.0 10.6 10.05 10.75 10.1 10.9 10.1 11.0 10.15 11.15 10.25 11.25 10.3 11.35 10.4 11.45 10.5 11.55 10.6 11.65 10.7 11.75 10.8 11.8 10.95 11.9 11.1 11.95 11.25 12.0 11.4 12.1 11.55 12.15 11.75 12.2 11.95 12.25 12.15 12.3 12.35 12.3 12.55 12.35 12.8 12.4 13.05 12.4 13.3 12.45 13.55 12.45 13.8 12.45 14.1 12.5 14.4 12.5 14.65 12.5 15.0 12.5 15.3 12.5 15.6 12.5 15.9 12.45 16.15 12.45 16.45 12.4 16.7 12.4 16.95 12.35 17.2 12.35 17.45 12.3 17.65 12.25 17.85 12.2 18.05 12.2 18.25 12.15 18.45 12.1 18.6 12.05 18.8 12.0 18.95 11.9 19.1 11.85 19.25 11.8 19.4 11.7 19.55 11.65 19.65 11.55 19.8 11.45 19.95 11.35 20.05 11.25 20.15 11.15 20.25 11.05 20.4 10.95 20.5 10.85 20.55 10.75 20.65 10.6 20.75 10.55 20.8 10.5 20.85 10.45 20.85 10.4 20.9 10.3 20.95 10.25 21.0 10.2 21.0 10.15 21.05 10.1 21.05 10.0 21.1 9.95 21.1 9.9 21.1 9.85 21.15 9.8 21.15 9.7 21.15 9.65 21.15 9.6 21.15 9.55 21.15 9.45 21.15 9.4 21.15 9.35 21.15 9.3 21.15 9.25 21.15 9.2 21.15 9.15 21.1 9.1 21.1 9.05 21.1 9.0 21.1 8.95 21.05 8.95 21.05 8.9 21.0 8.85 21.0 8.8 20.95 8.8 20.95 8.75 20.9 8.75 20.9 8.75 20.85 8.7 20.8 8.7 20.75 8.7 20.75 8.7 20.7 8.7 20.65 8.7 20.6 8.75 20.55 8.75 20.5 8.75 20.45 8.8 20.45 8.8 20.4 8.85 20.35 8.85 20.3 8.9 20.25 8.9 20.2 8.95 20.1 8.95 20.1 8.95 20.05 9.0 20.0 9.0 19.95 9.0 19.9 9.0 19.85 9.05 19.8 9.05 19.75 9.05 19.75 9.05 19.7 9.05 19.65 9.05 19.6 9.05 19.6 9.05 19.55 9.0 19.5 9.0 19.45 9.0 19.4 8.95 19.4 8.95 19.35 8.9 19.3 8.9 19.25 8.85 19.2 8.8 19.15 8.8 19.1 8.75 19.05 8.7 19.0 8.65 18.95 8.6 18.9 8.55 18.85 8.5 18.8 8.45 18.75 8.4 18.75 8.3 18.7 8.25 18.65 8.2 18.65 8.15 18.6 8.1 18.6 8.05 18.6 8.0 18.55 7.95 18.55 7.9 18.55 7.85 18.55 7.8 18.55 7.75 18.55 7.7 18.55 7.65 18.55 7.6 18.55 7.55 18.55 7.5 18.55 7.45 18.55 7.4 18.6 7.35 18.6 7.3 18.6 7.25 18.6 7.2 18.65 7.2 18.65 7.15 18.65 7.1 18.7 7.05 18.7 6.95 18.75 6.85 18.8 6.75 18.9 6.65 18.95 6.55 19.0 6.5 19.1 6.4 19.2 6.35 19.25 6.3 19.35 6.25 19.45 6.2 19.55 6.2 19.65 6.15 19.75 6.15 19.85 6.15 20.0 6.15 20.1 6.15 20.2 6.15 20.25 6.15 20.35 6.2 20.45 6.25 20.55 6.25 20.6 6.3 20.7 6.4 20.8 6.45 20.9 6.5 21.0 6.6 21.1 6.7 21.2 6.75 21.3 6.85 21.4 7.0 21.5 7.1 21.6 7.2 21.7 7.35 21.8 7.45 21.9 7.6 22.0 7.7 22.05 7.85 22.15 8.0 22.2 8.15 22.25 8.25 22.3 8.4 22.35 8.55 22.4 8.7 22.45 8.9 22.45 9.05 22.45 9.2 22.5 9.35 22.5 9.5 22.5 9.7 22.5 9.85 22.45 10.05 22.45 10.2 22.4 10.4 22.35 10.55 22.3 10.75 22.25 10.95 22.15 11.1 22.1 11.3 22.0 11.5 21.9 11.7 21.8 11.85 21.7 12.05 21.55 12.25 21.45 12.45 21.3 12.65 21.2 12.8 21.05 13.0 20.9 13.15 20.75 13.3 20.6 13.45 20.4 13.6 20.25 13.75 20.1 13.9 19.9 14.0 19.7 14.15 19.5 14.25 19.3 14.35 19.1 14.45 18.9 14.55 18.7 14.65 18.5 14.75 18.25 14.8 18.05 14.9 17.85 14.95 17.6 15.0 17.4 15.1 17.15 15.1 16.95 15.15 16.7 15.2 16.5 15.25 16.25 15.25 16.05 15.3 15.8 15.3 15.55 15.3 15.35 15.3 15.1 15.3 14.7 15.3 14.3 15.25 13.95 15.2 13.6 15.15 13.25 15.05 12.9 15.0 12.55 14.85 12.25 14.75 11.95 14.65 11.65 14.5 11.35 14.35 11.05 14.15 10.8 14.0 10.55 13.8 10.3 13.6 10.1 13.45 9.9 13.25 9.75 13.05 9.6 12.85 9.45 12.65 9.3 12.45 9.2 12.25 9.1 12.0 9.0 11.8 8.9 11.55 8.85 11.35 8.8 11.1 8.75 10.85 8.7 10.6 8.65 10.35 8.65 10.05 8.65 9.9 8.65 9.8 8.65 9.65 8.7 9.5 8.7 9.4 8.7 9.25 8.75 9.15 8.8 9.0 8.8 8.9 8.85 8.75 8.9 8.65 8.95 8.5 9.0 8.4 9.05 8.25 9.1 8.15 9.2 8.0 9.25 7.85 9.35 7.75 9.4 7.6 9.5 7.5 9.6 7.4 9.7 7.3 9.8 7.15 9.9 7.05 10.0 6.95 10.1 6.85 10.25 6.75 10.35 6.65 10.5 6.55 10.6 6.45 10.75 6.4 10.9 6.3 11.05 6.2 11.2 6.15 11.35 6.05 11.5 6.0 11.6 5.95 11.75 5.9 11.9 5.8 12.05 5.8 12.2 5.75 12.3 5.7 12.45 5.65 12.6 5.65 12.7 5.65 12.85 5.6 13.0 5.6 13.1 5.6 13.25 5.6 13.4 5.6 13.5 5.6 13.65 5.65 13.75 5.65 13.9 5.7 14.05 5.7 14.15 5.75 14.3 5.8 14.45 5.85 14.55 5.85 14.7 5.95 14.85 6.0 14.95 6.05 15.1 6.1 15.25 6.2 15.35 6.25 15.5 6.35 15.6 6.4 15.75 6.5 15.85 6.6 15.95 6.65 16.05 6.75 16.15 6.8 16.25 6.9 16.35 7.0 16.45 7.05 16.5 7.15 16.6 7.25 16.65 7.35 16.7 7.45 16.75 7.5 16.8 7.6 16.85 7.7 16.9 7.8 16.95 7.9 16.95 8.05 17.0 8.15 17.05 8.25 17.05 8.4 17.1 8.5 17.1 8.65 17.15 8.75 17.15 8.9 17.15 9.0 17.2 9.15 17.2 9.3 17.2 9.45 17.2 9.6 17.2 9.75 17.2 9.9 17.2 10.0 17.15 10.15 17.15 10.25 17.1 10.4 17.1 10.5 17.05 10.6 17.05 10.7 17.0 10.85 16.95 10.95 16.9 11.05 16.85 11.1 16.8 11.2 16.7 11.3 16.65 11.4 16.6 11.45 16.5 11.5 16.45 11.55 16.4 11.65 16.35 11.7 16.3 11.75 16.2 11.75 16.15 11.8 16.1 11.85 16.05 11.85 16.0 11.9 16.0 11.9 15.95 11.9 15.9 11.9 15.85 11.9 15.8 11.9 15.75 11.9 15.7 11.9 15.65 11.85 15.65 11.85 15.6 11.8 15.55 11.8 15.55 11.75 15.55 11.7 15.5 11.65 15.5 11.6 15.5 11.55 15.5 11.55 15.5 11.5 15.5 11.45 15.55 11.4 15.55 11.35 15.55 11.3 15.55 11.25 15.55 11.2 15.6 11.15 15.6 11.1 15.6 11.05 15.65 11.0 15.65 10.95 15.65 10.9 15.7 10.85 15.7 10.8 15.7 10.7 15.75 10.65 15.75 10.6 15.75 10.55 15.75 10.5 15.75 10.45 15.8 10.4 15.8 10.35 15.8 10.3 15.8 10.2 15.8 10.15 15.8 10.1 15.8 10.05 15.8 10.0 15.8 L10.0 15.8" fill="#ffffff" fill-rule="evenodd" stroke="none"/>
    <path d="M19.05 3.8 Q18.85 4.25 18.65 4.75 18.5 5.2 18.35 5.7 18.2 6.15 18.05 6.6 17.95 7.1 17.85 7.55 17.75 8.05 17.65 8.5 17.6 9.0 17.55 9.45 17.5 9.9 17.45 10.4 17.45 10.85 17.45 11.35 17.45 11.65 17.45 11.95 17.45 12.25 17.5 12.5 17.5 12.8 17.55 13.1 17.55 13.4 17.6 13.7 17.65 13.95 17.7 14.25 17.75 14.55 17.8 14.85 17.85 15.1 17.95 15.4 18.0 15.7 18.05 15.95 18.15 16.25 18.2 16.5 18.3 16.75 18.4 16.95 18.45 17.15 18.55 17.35 18.65 17.55 18.75 17.7 18.8 17.85 18.9 17.95 19.0 18.05 19.1 18.15 19.2 18.2 19.3 18.25 19.4 18.3 19.5 18.3 19.6 18.2 19.7 18.1 19.8 18.0 19.9 17.9 20.0 17.8 20.05 17.65 20.1 17.55 20.2 17.45 20.25 17.35 20.25 17.25 20.3 17.1 20.35 17.0 20.35 16.9 20.4 16.8 20.4 16.65 20.4 16.55 20.4 16.5 20.4 16.4 20.4 16.35 20.4 16.25 20.35 16.2 20.35 16.1 20.35 16.05 20.3 15.95 20.3 15.9 20.25 15.8 20.25 15.75 20.2 15.65 20.15 15.6 20.1 15.5 20.1 15.4 20.05 15.35 19.95 15.15 19.85 14.95 19.75 14.75 19.65 14.5 19.55 14.3 19.5 14.05 19.45 13.85 19.35 13.6 19.3 13.35 19.25 13.15 19.25 12.9 19.2 12.65 19.2 12.4 19.15 12.15 19.15 11.9 19.15 11.65 L19.25 8.6 Q19.25 8.35 19.25 8.15 19.3 7.9 19.3 7.7 19.35 7.5 19.35 7.35 19.4 7.15 19.45 7.0 19.45 6.8 19.5 6.65 19.55 6.55 19.6 6.4 19.65 6.25 19.7 6.15 19.8 6.05 19.85 5.95 19.9 5.85 19.95 5.75 20.05 5.65 20.1 5.6 20.15 5.5 20.15 5.4 20.2 5.3 20.25 5.2 20.3 5.1 20.3 5.0 20.35 4.9 20.35 4.8 20.35 4.7 20.35 4.6 20.35 4.5 20.35 4.4 20.35 4.3 20.35 4.2 20.35 4.1 20.3 4.05 20.3 3.95 20.3 3.9 20.25 3.8 20.2 3.75 20.15 3.7 20.1 3.65 20.1 3.6 20.0 3.6 19.95 3.55 19.9 3.55 19.85 3.5 19.75 3.5 19.65 3.5 19.6 3.5 19.55 3.5 19.5 3.55 19.4 3.55 19.35 3.55 19.3 3.55 19.3 3.6 19.25 3.6 19.2 3.65 19.15 3.65 19.15 3.7 19.1 3.7 19.1 3.75 19.05 3.75 19.05 3.8 L19.05 3.8" fill="#ffffff" fill-rule="evenodd" stroke="none"/>
  </g>
</svg>
