<?xml version="1.0" encoding="UTF-8" standalone="no"?>
<svg xmlns:ffdec="https://www.free-decompiler.com/flash" xmlns:xlink="http://www.w3.org/1999/xlink" ffdec:objectType="shape" height="26.0px" width="26.0px" xmlns="http://www.w3.org/2000/svg">
  <g transform="matrix(1.0, 0.0, 0.0, 1.0, 0.0, 0.0)">
    <path d="M8.15 9.2 Q7.85 9.35 7.6 9.55 7.35 9.75 7.15 9.95 6.9 10.2 6.7 10.45 6.5 10.7 6.3 10.95 6.15 11.25 6.0 11.55 5.85 11.85 5.7 12.2 5.6 12.5 5.45 12.85 5.35 13.25 5.3 13.6 5.25 13.75 5.25 13.85 5.2 14.0 5.2 14.1 5.2 14.25 5.15 14.35 5.15 14.5 5.15 14.6 5.1 14.75 5.1 14.85 5.1 15.0 5.1 15.1 5.1 15.2 5.1 15.35 5.05 15.45 5.05 15.6 5.05 15.85 5.05 16.1 5.1 16.35 5.1 16.55 5.15 16.8 5.2 17.0 5.2 17.25 5.25 17.45 5.3 17.7 5.35 17.9 5.45 18.15 5.5 18.35 5.55 18.55 5.65 18.75 5.75 18.95 5.8 19.15 5.9 19.35 6.0 19.5 6.1 19.7 6.2 19.85 6.3 20.05 6.4 20.2 6.5 20.35 6.6 20.45 6.65 20.6 6.75 20.75 6.85 20.85 6.95 20.95 7.05 21.1 7.1 21.15 7.2 21.25 7.3 21.35 7.4 21.45 7.45 21.5 7.55 21.55 7.65 21.65 7.75 21.7 7.85 21.75 7.95 21.85 8.0 21.9 8.1 21.95 8.2 22.0 8.3 22.05 8.45 22.1 8.55 22.15 8.65 22.2 8.75 22.2 8.85 22.25 8.95 22.3 9.05 22.3 9.2 22.35 9.3 22.35 9.4 22.4 9.5 22.4 9.6 22.45 9.7 22.45 9.8 22.45 9.9 22.5 10.0 22.5 10.1 22.5 10.2 22.5 10.3 22.5 10.4 22.5 10.5 22.5 10.6 22.5 10.7 22.5 10.8 22.5 10.9 22.5 11.0 22.45 11.1 22.45 11.2 22.45 11.35 22.4 11.45 22.35 11.55 22.35 11.65 22.3 11.75 22.25 11.85 22.2 11.95 22.15 12.05 22.1 12.15 22.05 12.35 21.95 12.5 21.85 12.7 21.75 12.85 21.6 13.0 21.45 13.15 21.35 13.35 21.2 13.5 21.0 13.65 20.85 13.75 20.7 13.9 20.5 14.05 20.3 14.2 20.1 14.3 19.9 14.4 19.7 14.55 19.5 14.6 19.35 14.65 19.25 14.75 19.1 14.8 19.0 14.85 18.85 14.9 18.75 14.95 18.65 14.95 18.55 15.0 18.4 15.05 18.3 15.1 18.2 15.1 18.1 15.15 18.05 15.15 17.95 15.2 17.85 15.2 17.75 15.2 17.65 15.25 17.55 15.25 17.45 15.25 17.35 15.25 17.25 15.3 17.15 15.3 17.0 15.3 16.9 15.3 16.75 15.3 16.6 15.3 16.45 15.35 16.3 15.35 16.15 15.35 15.95 15.35 15.8 15.35 15.6 15.35 15.0 15.3 14.5 15.25 13.95 15.15 13.45 15.05 13.0 14.95 12.55 14.8 12.1 14.6 11.7 14.45 11.3 14.2 10.95 14.0 10.55 13.7 10.25 13.45 9.95 13.1 9.7 12.8 9.4 12.45 9.2 12.35 9.15 12.25 9.05 12.1 9.0 12.0 8.95 11.85 8.9 11.75 8.9 11.6 8.85 11.45 8.8 11.35 8.75 11.2 8.75 11.05 8.7 10.9 8.7 10.75 8.7 10.6 8.7 10.45 8.7 10.25 8.7 10.1 8.7 9.95 8.7 9.8 8.7 9.65 8.7 9.5 8.75 9.35 8.75 9.2 8.75 9.05 8.8 8.95 8.85 8.8 8.85 8.7 8.9 8.55 8.95 8.45 9.0 8.35 9.05 8.25 9.1 8.15 9.2 L8.15 9.2 M11.2 10.15 Q11.4 10.3 11.55 10.5 11.75 10.7 11.85 10.95 12.0 11.2 12.15 11.5 12.25 11.8 12.35 12.15 12.45 12.5 12.55 12.9 12.6 13.35 12.65 13.8 12.7 14.25 12.75 14.8 12.75 15.3 12.75 15.9 12.75 16.0 12.75 16.15 12.75 16.25 12.75 16.4 12.75 16.5 12.7 16.65 12.7 16.8 12.7 16.95 12.65 17.1 12.65 17.25 12.65 17.4 12.6 17.6 12.6 17.75 12.55 17.95 12.5 18.1 12.5 18.3 12.45 18.5 12.45 18.7 12.4 18.85 12.35 19.0 12.3 19.2 12.25 19.35 12.2 19.5 12.15 19.65 12.1 19.75 12.05 19.9 12.0 20.0 11.95 20.15 11.9 20.25 11.85 20.35 11.8 20.45 11.7 20.55 11.65 20.65 11.55 20.7 11.5 20.75 11.45 20.85 11.35 20.9 11.3 20.95 11.2 21.0 11.1 21.05 11.05 21.1 10.95 21.1 10.85 21.15 10.75 21.15 10.65 21.2 10.55 21.2 10.5 21.2 10.4 21.2 10.3 21.2 10.2 21.2 10.1 21.2 10.0 21.15 9.9 21.15 9.8 21.1 9.7 21.1 9.6 21.05 9.55 21.0 9.45 20.95 9.35 20.9 9.3 20.85 9.2 20.8 9.1 20.75 9.05 20.65 8.95 20.6 8.8 20.45 8.65 20.25 8.55 20.05 8.4 19.8 8.3 19.6 8.2 19.3 8.1 19.05 8.05 18.75 7.95 18.45 7.9 18.1 7.85 17.75 7.8 17.35 7.75 16.95 7.75 16.55 7.7 16.1 7.7 15.65 7.7 15.5 7.7 15.4 7.7 15.25 7.7 15.1 7.7 15.0 7.75 14.85 7.75 14.7 7.75 14.6 7.75 14.45 7.8 14.3 7.8 14.15 7.8 14.0 7.85 13.9 7.85 13.75 7.85 13.6 7.9 13.45 7.95 13.2 8.0 12.95 8.05 12.7 8.1 12.5 8.15 12.25 8.2 12.05 8.3 11.85 8.35 11.65 8.4 11.5 8.5 11.35 8.55 11.15 8.65 11.05 8.7 10.9 8.8 10.8 8.9 10.65 9.0 10.55 9.1 10.45 9.2 10.4 9.25 10.3 9.35 10.25 9.45 10.15 9.5 10.1 9.6 10.05 9.65 10.0 9.75 9.95 9.8 9.9 9.85 9.9 9.9 9.85 10.0 9.8 10.05 9.8 10.1 9.8 10.15 9.75 L10.4 9.75 Q10.4 9.75 10.45 9.75 10.5 9.75 10.5 9.75 10.55 9.75 10.6 9.8 10.6 9.8 10.65 9.8 10.7 9.85 10.75 9.85 10.8 9.9 10.85 9.9 10.9 9.95 10.95 10.0 11.0 10.0 11.05 10.05 11.1 10.1 11.2 10.15 L11.2 10.15" fill="#ffffff" fill-rule="evenodd" stroke="none"/>
    <path d="M18.7 6.55 Q18.75 6.8 18.85 7.1 18.9 7.35 18.95 7.65 19.0 7.9 19.05 8.2 19.1 8.45 19.15 8.75 19.15 9.05 19.2 9.3 19.2 9.6 19.25 9.85 19.25 10.15 19.25 10.45 19.25 10.75 19.25 11.0 19.25 11.3 19.25 11.6 19.25 11.9 19.2 12.2 19.2 12.5 19.15 12.8 19.15 13.1 19.1 13.35 19.05 13.65 19.0 13.95 18.95 14.25 18.9 14.55 18.85 14.85 18.75 15.15 18.7 15.45 18.6 15.75 18.55 15.85 18.45 15.95 18.4 16.05 18.35 16.2 18.3 16.3 18.25 16.4 18.2 16.5 18.15 16.6 18.15 16.7 18.1 16.8 18.1 16.9 18.05 17.0 18.05 17.1 18.05 17.2 18.0 17.3 18.0 17.45 18.0 17.55 18.0 17.65 18.05 17.7 18.05 17.8 18.05 17.85 18.1 17.95 18.15 18.0 18.15 18.05 18.2 18.1 18.25 18.15 18.3 18.15 18.35 18.2 18.4 18.25 18.5 18.25 18.55 18.25 18.6 18.25 18.7 18.25 18.75 18.25 18.8 18.25 18.9 18.25 18.95 18.25 19.0 18.2 19.05 18.2 19.1 18.2 19.15 18.15 19.2 18.15 19.25 18.1 19.25 18.05 19.3 18.05 19.3 18.0 19.35 17.95 19.35 17.95 19.55 17.45 19.7 17.0 19.9 16.5 20.05 16.05 20.2 15.55 20.3 15.1 20.45 14.65 20.55 14.15 20.65 13.7 20.7 13.2 20.8 12.75 20.85 12.25 20.9 11.8 20.9 11.3 20.95 10.85 20.95 10.35 L20.95 10.25 Q20.95 9.95 20.95 9.65 20.9 9.4 20.9 9.1 20.9 8.8 20.85 8.5 20.8 8.25 20.8 7.95 20.75 7.65 20.7 7.4 20.65 7.1 20.6 6.8 20.55 6.5 20.45 6.25 20.4 5.95 20.35 5.65 20.25 5.4 20.2 5.15 20.1 4.95 20.0 4.75 19.95 4.55 19.85 4.35 19.75 4.2 19.65 4.05 19.55 3.9 19.5 3.8 19.4 3.7 19.3 3.65 19.2 3.55 19.1 3.55 19.0 3.5 18.9 3.5 18.8 3.6 18.75 3.65 18.65 3.75 18.6 3.85 18.5 3.9 18.45 4.0 18.4 4.1 18.35 4.2 18.3 4.25 18.25 4.35 18.25 4.45 18.2 4.55 18.2 4.65 18.2 4.75 18.15 4.85 18.15 4.9 18.15 5.0 18.15 5.1 18.15 5.2 18.2 5.3 18.2 5.4 18.25 5.5 18.25 5.6 18.3 5.7 18.35 5.8 18.35 5.9 18.4 6.0 18.45 6.1 18.5 6.2 18.55 6.3 18.65 6.45 18.7 6.55 L18.7 6.55" fill="#ffffff" fill-rule="evenodd" stroke="none"/>
  </g>
</svg>
