<?xml version="1.0" encoding="UTF-8" standalone="no"?>
<svg xmlns:ffdec="https://www.free-decompiler.com/flash" xmlns:xlink="http://www.w3.org/1999/xlink" ffdec:objectType="shape" height="26.0px" width="26.0px" xmlns="http://www.w3.org/2000/svg">
  <g transform="matrix(1.0, 0.0, 0.0, 1.0, 0.0, 0.0)">
    <path d="M13.0 19.9 Q13.3 19.9 13.6 19.9 13.9 19.9 14.15 19.9 14.35 19.85 14.55 19.85 14.75 19.85 14.95 19.8 15.1 19.8 15.2 19.75 15.35 19.75 15.4 19.7 15.5 19.7 15.55 19.65 15.6 19.6 15.6 19.55 15.6 19.5 15.6 19.45 15.55 19.4 15.55 19.35 15.5 19.3 15.5 19.25 15.45 19.2 15.4 19.2 15.35 19.15 15.3 19.1 15.25 19.05 15.2 19.0 15.1 18.95 15.05 18.9 14.95 18.85 14.85 18.8 L14.15 18.4 14.05 13.35 Q14.05 12.3 14.05 9.95 14.05 8.15 14.15 7.85 14.15 7.8 14.2 7.7 14.2 7.65 14.25 7.6 14.3 7.55 14.35 7.5 14.35 7.45 14.4 7.4 14.45 7.35 14.55 7.35 14.6 7.3 14.65 7.25 14.75 7.25 14.8 7.2 14.85 7.2 14.95 7.15 15.05 7.15 15.1 7.15 15.2 7.1 15.25 7.1 15.35 7.05 15.4 7.05 15.45 7.05 15.5 7.0 15.55 7.0 15.55 6.95 15.6 6.9 15.6 6.9 15.65 6.85 15.65 6.8 15.65 6.8 15.65 6.75 15.65 6.7 15.65 6.65 15.65 6.6 15.6 6.55 15.6 6.5 15.6 6.5 15.55 6.45 15.5 6.4 15.5 6.4 15.45 6.35 15.4 6.35 15.35 6.3 15.3 6.3 15.25 6.25 15.2 6.25 15.1 6.25 14.95 6.25 14.85 6.2 14.7 6.2 14.55 6.2 14.4 6.15 14.25 6.15 14.1 6.15 13.95 6.15 13.8 6.1 13.65 6.1 13.5 6.1 13.35 6.1 13.2 6.1 13.05 6.1 12.85 6.1 12.7 6.1 11.5 6.1 10.95 6.15 10.9 6.15 10.8 6.15 10.75 6.2 10.7 6.2 10.65 6.25 10.6 6.25 10.55 6.3 10.5 6.35 10.45 6.35 10.45 6.4 10.4 6.45 10.4 6.5 10.35 6.55 10.35 6.65 10.35 6.7 10.35 6.75 10.35 6.8 10.35 6.8 10.35 6.85 10.4 6.85 10.4 6.9 10.45 6.9 10.45 6.95 10.5 6.95 10.55 7.0 10.6 7.0 10.65 7.05 10.85 7.15 11.1 7.25 11.3 7.35 L11.9 7.65 11.9 18.4 11.1 18.75 Q11.0 18.8 10.95 18.85 10.85 18.9 10.8 18.9 10.7 18.95 10.65 19.0 10.6 19.05 10.55 19.1 10.5 19.1 10.45 19.15 10.45 19.2 10.4 19.25 10.4 19.3 10.4 19.35 10.35 19.35 10.35 19.4 10.35 19.45 10.4 19.5 10.45 19.6 10.55 19.65 10.6 19.65 10.75 19.7 10.85 19.75 11.0 19.8 11.2 19.8 11.4 19.85 11.6 19.85 11.85 19.9 12.1 19.9 12.35 19.9 12.65 19.9 13.0 19.9 L13.0 19.9" fill="#ffffff" fill-rule="evenodd" stroke="none"/>
  </g>
</svg>
