<?xml version="1.0" encoding="UTF-8" standalone="no"?>
<svg xmlns:ffdec="https://www.free-decompiler.com/flash" xmlns:xlink="http://www.w3.org/1999/xlink" ffdec:objectType="shape" height="26.0px" width="26.0px" xmlns="http://www.w3.org/2000/svg">
  <g transform="matrix(1.0, 0.0, 0.0, 1.0, 0.0, 0.0)">
    <path d="M7.6 6.95 Q7.55 7.1 7.7 7.85 7.7 7.95 7.75 8.0 7.75 8.1 7.75 8.2 7.8 8.3 7.8 8.35 7.8 8.45 7.8 8.5 7.85 8.6 7.85 8.65 7.85 8.75 7.85 8.8 7.85 8.85 7.85 8.95 7.85 9.0 7.85 9.05 L7.85 9.25 5.3 9.25 5.0 9.3 Q4.95 9.3 4.9 9.35 4.9 9.35 4.85 9.4 4.8 9.4 4.8 9.45 4.75 9.45 4.75 9.5 4.7 9.5 4.7 9.55 4.65 9.6 4.65 9.65 4.65 9.65 4.65 9.7 4.65 9.75 4.65 9.8 4.65 9.85 4.65 9.9 4.65 9.9 4.65 9.95 4.65 10.0 4.65 10.05 4.65 10.1 4.65 10.2 4.7 10.25 4.7 10.3 4.75 10.35 4.75 10.4 4.8 10.45 4.85 10.5 4.9 10.55 5.0 10.55 5.05 10.6 5.1 10.6 5.2 10.65 5.3 10.65 5.4 10.65 5.5 10.65 L7.9 10.65 7.9 13.55 Q7.9 13.65 7.95 13.7 7.95 13.75 8.0 13.85 8.05 13.9 8.1 13.95 8.15 14.0 8.2 14.05 8.25 14.1 8.35 14.15 8.4 14.2 8.5 14.2 8.6 14.25 8.7 14.25 8.8 14.3 8.9 14.3 9.05 14.3 9.15 14.3 9.3 14.25 9.4 14.25 9.5 14.2 9.55 14.15 9.65 14.1 9.7 14.0 9.8 13.95 9.85 13.85 9.9 13.75 9.9 13.65 9.95 13.55 9.95 13.4 10.0 13.25 10.0 13.1 L9.85 10.65 12.35 10.65 Q12.45 10.65 12.5 10.6 12.6 10.6 12.65 10.6 12.75 10.55 12.8 10.5 12.85 10.5 12.9 10.45 12.95 10.4 12.95 10.35 13.0 10.3 13.0 10.2 13.05 10.15 13.05 10.05 13.05 10.0 13.05 9.9 13.05 9.8 13.05 9.75 13.05 9.65 13.0 9.6 13.0 9.55 12.95 9.5 12.95 9.45 12.9 9.4 12.85 9.35 12.8 9.35 12.75 9.3 12.65 9.3 12.6 9.25 12.5 9.25 12.45 9.25 12.35 9.25 L9.8 9.25 9.85 6.5 Q9.85 6.45 9.8 6.35 9.75 6.3 9.7 6.25 9.65 6.2 9.6 6.15 9.55 6.1 9.5 6.1 9.4 6.05 9.35 6.05 9.25 6.0 9.2 6.0 9.1 5.95 9.0 5.95 8.9 5.95 8.8 5.95 8.65 5.95 8.5 5.95 8.4 6.0 8.25 6.0 8.15 6.05 8.05 6.1 7.95 6.15 7.9 6.2 7.8 6.25 7.75 6.35 7.7 6.4 7.65 6.5 7.65 6.6 7.6 6.7 7.6 6.8 7.6 6.95 L7.6 6.95" fill="#ffffff" fill-rule="evenodd" stroke="none"/>
    <path d="M20.65 18.7 L13.6 18.7 Q13.5 18.7 13.45 18.75 13.4 18.75 13.3 18.8 13.25 18.8 13.2 18.85 13.15 18.9 13.1 18.95 13.1 19.0 13.05 19.05 13.0 19.1 13.0 19.15 13.0 19.25 12.95 19.3 12.95 19.4 12.95 19.45 12.95 19.55 12.95 19.6 12.95 19.7 13.0 19.75 13.0 19.8 13.05 19.85 13.1 19.9 13.1 19.95 13.15 20.0 13.2 20.0 13.25 20.05 13.3 20.05 13.4 20.1 13.45 20.1 13.55 20.1 13.6 20.1 L20.65 20.1 Q20.75 20.1 20.8 20.1 20.9 20.05 20.95 20.05 21.05 20.0 21.1 19.95 21.15 19.95 21.2 19.9 21.25 19.85 21.25 19.8 21.3 19.75 21.3 19.65 21.35 19.6 21.35 19.55 21.35 19.45 21.35 19.35 21.35 19.25 21.35 19.2 21.35 19.1 21.3 19.05 21.3 19.0 21.25 18.95 21.2 18.9 21.2 18.85 21.15 18.8 21.1 18.8 21.0 18.75 20.95 18.75 20.9 18.7 20.8 18.7 20.75 18.7 20.65 18.7 L20.65 18.7 M20.65 16.55 L13.6 16.55 Q13.5 16.55 13.45 16.6 13.4 16.6 13.3 16.65 13.25 16.7 13.2 16.7 13.15 16.75 13.1 16.8 13.1 16.85 13.05 16.9 13.0 16.95 13.0 17.05 13.0 17.1 12.95 17.15 12.95 17.25 12.95 17.35 12.95 17.4 12.95 17.5 12.95 17.55 13.0 17.6 13.0 17.65 13.05 17.7 13.1 17.75 13.1 17.8 13.15 17.85 13.2 17.85 13.25 17.9 13.3 17.9 13.4 17.95 13.45 17.95 13.55 17.95 13.6 17.95 L20.65 17.95 Q20.75 17.95 20.8 17.9 20.9 17.9 20.95 17.9 21.05 17.85 21.1 17.8 21.15 17.8 21.2 17.75 21.25 17.7 21.25 17.65 21.3 17.6 21.3 17.5 21.35 17.45 21.35 17.4 21.35 17.3 21.35 17.25 21.35 17.15 21.35 17.1 21.35 17.0 21.3 16.95 21.3 16.9 21.25 16.8 21.2 16.75 21.2 16.75 21.15 16.7 21.1 16.65 21.0 16.6 20.95 16.6 20.9 16.6 20.8 16.55 20.75 16.55 20.65 16.55 L20.65 16.55" fill="#ffffff" fill-rule="evenodd" stroke="none"/>
  </g>
</svg>
