<?xml version="1.0" encoding="UTF-8" standalone="no"?>
<svg xmlns:ffdec="https://www.free-decompiler.com/flash" xmlns:xlink="http://www.w3.org/1999/xlink" ffdec:objectType="shape" height="26.0px" width="35.75px" xmlns="http://www.w3.org/2000/svg">
  <g transform="matrix(1.0, 0.0, 0.0, 1.0, 0.0, 0.0)">
    <path d="M8.2 6.15 Q8.25 6.15 8.6 6.1 9.15 6.05 9.8 6.0 10.7 5.9 11.65 5.85 12.9 5.75 14.15 5.7 15.7 5.65 17.2 5.6 19.0 5.6 20.75 5.65 22.7 5.7 24.7 5.8 26.85 5.95 28.95 6.2 28.95 6.15 29.0 5.95 29.15 5.6 29.45 5.0 29.85 4.2 30.55 3.0 30.5 2.9 17.7 3.25 4.9 3.6 4.95 4.15 5.0 4.2 6.6 5.2 8.2 6.15 8.2 6.15 L8.2 6.15" fill="#f1edf8" fill-rule="evenodd" stroke="none"/>
    <path d="M8.2 15.05 Q8.2 15.05 8.6 15.0 9.15 14.95 9.8 14.9 10.7 14.8 11.65 14.75 12.9 14.65 14.15 14.6 15.7 14.55 17.2 14.55 19.0 14.5 20.75 14.55 22.7 14.6 24.7 14.75 26.85 14.85 28.95 15.1 28.95 15.05 29.0 14.85 29.15 14.5 29.45 13.9 29.85 13.1 30.55 11.9 30.55 11.8 17.7 12.15 4.9 12.55 4.95 13.05 6.6 14.05 8.2 15.05 L8.2 15.05" fill="#f1edf8" fill-rule="evenodd" stroke="none"/>
    <path d="M8.2 23.95 Q8.2 23.95 8.6 23.9 9.2 23.85 9.8 23.8 10.7 23.7 11.65 23.65 12.9 23.55 14.15 23.5 15.7 23.45 17.2 23.45 19.0 23.4 20.75 23.45 22.75 23.5 24.7 23.65 26.85 23.8 28.95 24.0 28.9 24.0 29.15 23.4 29.55 22.5 30.55 20.85 30.55 20.75 17.7 21.1 4.9 21.45 4.95 21.95 6.6 22.95 8.2 23.95 L8.2 23.95" fill="#f1edf8" fill-rule="evenodd" stroke="none"/>
  </g>
</svg>
