<?xml version="1.0" encoding="UTF-8" standalone="no"?>
<svg xmlns:ffdec="https://www.free-decompiler.com/flash" xmlns:xlink="http://www.w3.org/1999/xlink" ffdec:objectType="shape" height="26.0px" width="35.75px" xmlns="http://www.w3.org/2000/svg">
  <g transform="matrix(1.0, 0.0, 0.0, 1.0, 0.0, 0.0)">
    <path d="M4.7 9.9 Q4.75 9.9 4.8 9.9 4.85 9.85 4.9 9.85 5.0 9.8 5.05 9.75 5.15 9.7 5.2 9.65 5.3 9.6 5.4 9.5 5.5 9.4 5.6 9.35 5.7 9.25 5.8 9.1 5.9 9.0 6.05 8.9 6.15 8.75 6.25 8.65 6.35 8.55 6.5 8.45 6.6 8.35 6.7 8.25 6.8 8.2 6.9 8.1 7.0 8.05 7.1 8.0 7.2 7.95 7.3 7.9 7.35 7.9 7.45 7.85 7.55 7.85 7.65 7.85 L8.3 7.85 8.3 13.55 Q8.3 19.2 8.15 19.5 8.1 19.55 8.1 19.6 8.05 19.6 8.0 19.65 8.0 19.7 7.95 19.7 7.9 19.75 7.8 19.8 7.75 19.8 7.7 19.85 7.65 19.85 7.6 19.9 7.5 19.95 7.45 19.95 7.35 20.0 7.3 20.0 7.2 20.0 7.15 20.05 7.05 20.1 7.0 20.1 6.95 20.15 6.9 20.15 6.8 20.2 6.8 20.25 6.75 20.25 6.7 20.3 6.65 20.35 6.65 20.4 6.65 20.4 6.6 20.45 6.6 20.5 6.6 20.55 6.6 20.6 6.6 20.65 6.65 20.65 6.65 20.7 6.65 20.75 6.7 20.75 6.75 20.8 6.8 20.85 6.85 20.85 6.9 20.9 6.95 20.9 7.0 20.95 7.1 20.95 7.15 21.0 7.25 21.0 7.35 21.05 8.2 21.15 11.5 21.15 11.6 21.15 11.65 21.15 11.7 21.15 11.8 21.15 11.85 21.15 11.9 21.15 11.95 21.15 12.0 21.1 12.05 21.1 12.1 21.1 12.15 21.1 12.2 21.1 12.2 21.05 12.25 21.05 12.25 21.05 12.3 21.05 12.3 21.05 12.3 21.0 12.35 21.0 12.35 20.95 12.35 20.95 12.35 20.9 12.4 20.9 12.4 20.85 12.4 20.85 12.4 20.8 12.4 20.8 12.4 20.75 12.4 20.7 12.4 20.7 12.4 20.65 12.4 20.6 12.4 20.55 12.35 20.45 12.35 20.4 12.3 20.35 12.3 20.3 12.25 20.25 12.25 20.2 12.2 20.15 12.15 20.15 12.1 20.1 12.1 20.05 12.05 20.05 12.0 20.0 11.95 20.0 11.9 20.0 11.8 19.95 11.55 19.9 11.45 19.85 11.4 19.85 11.4 19.85 11.35 19.85 11.3 19.8 11.3 19.8 11.25 19.75 11.2 19.75 11.15 19.7 11.0 19.5 10.95 19.45 10.95 19.3 10.8 18.7 10.7 17.9 10.7 13.6 L10.7 7.85 11.25 7.85 Q11.35 7.85 11.4 7.85 11.5 7.85 11.55 7.9 11.65 7.9 11.75 7.9 11.8 7.95 11.9 7.95 11.95 8.0 12.05 8.05 12.1 8.05 12.15 8.1 12.25 8.15 12.3 8.2 12.4 8.25 12.45 8.3 12.5 8.35 12.55 8.4 12.6 8.45 12.65 8.5 12.7 8.6 12.75 8.65 12.8 8.7 12.85 8.75 12.9 8.8 12.9 8.85 12.95 8.95 12.95 9.0 13.0 9.05 13.0 9.15 13.05 9.2 13.05 9.25 13.05 9.3 13.05 9.4 13.1 9.45 13.1 9.5 13.1 9.55 13.1 9.6 13.1 9.65 13.15 9.7 13.15 9.75 13.15 9.8 13.15 9.85 13.2 9.85 13.2 9.9 13.2 9.95 13.25 9.95 13.25 10.0 13.3 10.05 13.3 10.05 13.35 10.1 13.4 10.1 13.4 10.1 13.45 10.1 13.5 10.1 13.55 10.1 13.6 10.1 13.6 10.1 13.65 10.1 13.7 10.05 13.8 10.0 13.85 9.95 13.9 9.9 13.95 9.8 14.05 9.7 14.1 9.6 14.15 9.5 14.2 9.4 14.25 9.25 14.35 9.1 14.4 8.95 14.45 8.8 14.55 8.6 14.6 8.4 15.1 6.75 15.1 6.35 15.1 6.3 15.1 6.25 15.1 6.2 15.1 6.15 15.1 6.1 15.1 6.1 15.05 6.05 15.05 6.0 15.05 5.95 15.05 5.95 15.05 5.9 15.0 5.9 15.0 5.85 15.0 5.85 14.95 5.8 14.95 5.8 14.9 5.75 14.8 5.7 14.75 5.7 14.65 5.7 14.6 5.7 14.6 5.7 14.55 5.75 14.55 5.75 14.5 5.75 14.45 5.8 14.45 5.8 14.4 5.85 14.35 5.85 14.3 5.9 14.3 5.9 14.25 5.95 14.2 6.0 14.15 6.0 14.1 6.05 14.05 6.1 14.0 6.15 13.95 6.2 13.9 6.25 13.85 6.25 13.8 6.3 13.75 6.35 13.7 6.35 13.65 6.4 13.6 6.4 13.5 6.45 13.45 6.45 13.4 6.45 13.3 6.5 13.25 6.5 13.15 6.5 13.1 6.55 12.25 6.6 10.1 6.6 7.85 6.6 7.25 6.55 7.2 6.55 7.15 6.55 7.05 6.5 7.0 6.5 6.95 6.45 6.9 6.45 6.85 6.45 6.8 6.4 6.75 6.35 6.75 6.35 6.7 6.3 6.65 6.25 6.6 6.2 6.6 6.15 6.55 6.1 6.55 6.05 6.5 6.0 6.5 5.95 6.45 5.9 6.4 5.9 6.4 5.85 6.35 5.8 6.3 5.8 6.25 5.75 6.25 5.75 6.2 5.7 6.15 5.7 6.1 5.7 6.05 5.65 6.0 5.65 6.0 5.65 5.95 5.65 5.9 5.65 5.85 5.65 5.8 5.65 5.75 5.7 5.7 5.7 5.7 5.75 5.65 5.75 5.6 5.8 5.55 5.85 5.5 5.85 5.5 5.9 5.45 5.95 5.4 6.0 5.4 6.1 5.35 6.15 5.35 6.2 5.1 6.8 4.75 8.0 4.35 9.2 4.35 9.5 4.35 9.55 4.35 9.6 4.35 9.65 4.4 9.65 4.4 9.7 4.4 9.75 4.4 9.75 4.45 9.8 4.45 9.8 4.5 9.85 4.55 9.85 4.6 9.9 4.65 9.9 4.7 9.9 L4.7 9.9" fill="#ffffff" fill-rule="evenodd" stroke="none"/>
    <path d="M18.3 13.85 Q18.3 13.9 18.3 14.0 18.3 14.05 18.3 14.15 18.25 14.2 18.25 14.25 18.2 14.35 18.2 14.4 18.15 14.45 18.15 14.5 18.1 14.6 18.05 14.65 18.0 14.7 17.95 14.75 17.9 14.85 17.85 14.9 17.8 14.95 17.7 15.0 17.6 15.05 17.5 15.1 17.4 15.15 17.3 15.25 17.15 15.3 17.05 15.35 16.9 15.4 16.75 15.5 16.55 15.55 16.4 15.6 16.2 15.7 16.0 15.75 15.8 15.8 15.6 15.9 15.4 15.95 15.15 16.05 14.95 16.1 14.75 16.2 14.6 16.25 14.4 16.35 14.25 16.4 14.1 16.5 13.95 16.6 13.8 16.65 13.65 16.75 13.55 16.85 13.4 16.95 13.3 17.0 13.2 17.1 13.1 17.2 13.0 17.3 12.95 17.4 12.85 17.45 12.8 17.55 12.7 17.65 12.65 17.75 12.6 17.8 12.55 17.9 12.5 18.0 12.5 18.1 12.45 18.15 12.4 18.25 12.4 18.35 12.4 18.45 12.4 18.5 12.4 18.6 12.4 18.7 12.4 18.75 12.4 18.85 12.4 18.95 12.4 19.0 12.45 19.1 12.45 19.2 12.5 19.3 12.5 19.35 12.55 19.45 12.55 19.55 12.6 19.6 12.65 19.7 12.65 19.8 12.7 19.9 12.75 19.95 12.85 20.1 12.95 20.25 13.05 20.4 13.15 20.55 13.3 20.65 13.45 20.75 13.6 20.85 13.75 20.95 13.9 21.05 14.1 21.1 14.3 21.15 14.5 21.2 14.75 21.25 14.95 21.25 15.2 21.3 15.45 21.3 15.6 21.3 15.75 21.3 15.85 21.25 16.0 21.25 16.1 21.25 16.25 21.2 16.35 21.2 16.45 21.15 16.6 21.1 16.7 21.1 16.8 21.05 16.9 21.0 17.0 20.95 17.1 20.9 17.2 20.85 17.25 20.8 L18.1 20.15 18.2 20.85 Q18.2 20.9 18.2 20.95 18.2 21.0 18.2 21.05 18.25 21.1 18.25 21.15 18.25 21.15 18.25 21.2 18.25 21.25 18.3 21.25 18.3 21.3 18.3 21.3 18.3 21.3 18.35 21.35 18.35 21.35 18.35 21.35 18.35 21.4 18.4 21.4 18.45 21.4 18.45 21.45 18.5 21.45 18.55 21.45 18.6 21.45 18.65 21.45 18.85 21.45 20.6 21.2 20.75 21.15 20.85 21.15 20.95 21.1 21.05 21.1 21.15 21.05 21.25 21.0 21.3 21.0 21.35 20.95 21.45 20.9 21.5 20.9 21.55 20.85 21.55 20.8 21.6 20.75 21.6 20.7 21.6 20.65 21.6 20.65 21.6 20.6 21.6 20.6 21.6 20.55 21.6 20.5 21.55 20.5 21.55 20.45 21.55 20.4 21.5 20.4 21.5 20.35 21.45 20.3 21.4 20.3 21.35 20.25 21.3 20.25 21.25 20.2 21.25 20.2 21.15 20.15 20.7 19.9 20.65 19.8 20.6 19.8 20.6 19.75 20.55 19.7 20.55 19.65 20.55 19.6 20.5 19.5 20.5 19.45 20.45 19.3 20.4 19.05 20.35 18.4 20.35 18.2 20.3 17.5 20.25 16.3 20.2 15.7 20.2 15.4 20.2 15.15 20.15 14.9 20.15 14.7 20.15 14.45 20.1 14.25 20.1 14.1 20.05 13.9 20.05 13.75 20.0 13.6 20.0 13.45 19.95 13.3 19.9 13.2 19.85 13.1 19.85 13.0 19.8 12.95 19.7 12.8 19.6 12.65 19.45 12.5 19.3 12.4 19.2 12.25 19.0 12.15 18.85 12.05 18.65 12.0 18.5 11.9 18.3 11.85 18.1 11.8 17.85 11.75 17.65 11.7 17.4 11.7 17.15 11.65 16.9 11.65 16.8 11.65 16.7 11.65 16.6 11.65 16.5 11.7 16.4 11.7 16.3 11.7 16.2 11.75 16.05 11.75 15.95 11.75 15.8 11.8 15.7 11.85 15.55 11.85 15.45 11.9 15.3 11.95 15.15 11.95 15.0 12.0 14.85 12.05 14.75 12.1 14.6 12.15 14.5 12.2 14.35 12.25 14.25 12.3 14.15 12.4 14.05 12.45 13.95 12.55 13.85 12.6 13.75 12.7 13.65 12.75 13.55 12.85 13.5 12.95 13.4 13.0 13.35 13.1 13.3 13.15 13.3 13.2 13.25 13.25 13.2 13.3 13.2 13.35 13.15 13.4 13.15 13.45 13.15 13.5 13.1 13.55 13.1 13.55 13.1 13.6 13.05 13.65 13.05 13.7 13.05 13.75 13.05 13.8 13.05 13.8 13.05 13.85 13.05 13.9 13.05 13.95 13.1 14.0 13.1 14.05 13.1 14.05 13.15 14.1 13.15 14.15 13.2 14.2 13.2 14.2 13.25 14.25 13.3 14.3 13.3 14.3 13.35 14.35 13.4 14.4 13.45 14.4 13.5 14.45 13.55 14.45 13.6 14.5 13.65 14.5 13.7 14.55 13.75 14.55 13.8 14.6 13.85 14.6 13.9 14.6 13.95 14.65 14.0 14.65 14.05 14.65 14.1 14.65 14.15 14.65 14.2 14.65 14.3 14.65 L14.55 14.65 Q14.6 14.65 14.6 14.65 14.65 14.65 14.7 14.65 14.7 14.65 14.75 14.65 14.8 14.65 14.85 14.65 14.9 14.6 14.9 14.6 14.95 14.6 15.0 14.6 15.05 14.55 15.1 14.55 15.15 14.55 15.2 14.5 15.25 14.5 15.3 14.45 15.35 14.45 15.4 14.4 15.45 14.4 15.45 14.35 15.5 14.35 15.5 14.3 15.55 14.3 15.55 14.25 15.6 14.25 15.6 14.2 15.6 14.2 15.65 14.15 15.65 14.15 15.65 14.1 15.65 14.05 15.65 14.0 15.65 13.95 15.6 13.9 15.6 13.85 15.6 13.85 15.55 13.8 15.55 13.75 15.55 13.7 15.5 13.65 15.5 13.6 15.45 13.55 15.45 13.5 15.4 13.5 15.4 13.45 15.4 13.4 15.4 13.35 15.4 13.35 15.4 13.3 15.4 13.25 15.45 13.2 15.45 13.15 15.5 13.1 15.55 13.05 15.6 13.0 15.7 12.95 15.75 12.9 15.85 12.85 15.95 12.8 16.05 12.8 16.15 12.75 16.3 12.7 16.4 12.65 16.55 12.65 16.6 12.65 16.65 12.65 16.7 12.6 16.7 12.6 16.75 12.6 16.8 12.6 16.85 12.6 16.9 12.6 16.9 12.6 16.95 12.55 17.0 12.55 17.05 12.55 17.05 12.55 17.1 12.55 17.15 12.55 17.15 12.55 17.3 12.55 17.45 12.55 17.55 12.6 17.65 12.65 17.75 12.7 17.85 12.75 17.95 12.8 18.05 12.9 18.1 12.95 18.15 13.05 18.2 13.15 18.25 13.3 18.3 13.4 18.3 13.55 18.3 13.7 18.3 13.85 L18.3 13.85 M17.75 18.95 Q17.65 19.1 17.55 19.2 17.4 19.3 17.3 19.4 17.2 19.5 17.1 19.55 17.0 19.65 16.9 19.7 16.75 19.75 16.65 19.8 16.55 19.85 16.45 19.9 16.35 19.9 16.25 19.95 16.1 19.95 16.0 19.95 15.9 19.95 15.8 19.95 15.7 19.95 15.6 19.9 15.5 19.9 15.45 19.85 15.35 19.8 15.25 19.75 15.2 19.75 15.1 19.65 15.05 19.6 15.0 19.55 14.9 19.5 14.85 19.4 14.8 19.3 14.75 19.2 14.7 19.1 14.65 19.05 14.65 18.95 14.65 18.85 14.6 18.8 14.6 18.7 14.6 18.6 14.65 18.5 14.65 18.4 14.65 18.35 14.7 18.25 14.75 18.15 14.8 18.05 14.85 17.95 14.9 17.85 15.0 17.75 15.05 17.7 15.1 17.65 15.15 17.6 15.2 17.55 15.25 17.5 15.35 17.45 15.4 17.4 15.5 17.35 15.6 17.3 15.65 17.25 15.75 17.2 15.85 17.15 16.0 17.1 16.1 17.05 16.2 17.0 16.35 16.9 16.45 16.85 16.6 16.8 16.7 16.75 16.85 16.7 16.95 16.65 17.1 16.6 17.2 16.5 17.3 16.45 17.45 16.4 17.55 16.35 17.65 16.3 17.75 16.25 17.9 16.15 18.0 16.1 18.1 16.05 18.2 16.0 18.2 16.05 18.2 16.1 18.2 16.15 18.25 16.2 18.25 16.25 18.25 16.3 18.25 16.35 18.25 16.45 18.25 16.5 18.25 16.55 18.25 16.6 18.25 16.7 18.25 16.75 18.25 16.8 18.25 16.85 18.25 16.95 18.25 17.15 18.25 17.3 18.25 17.45 18.25 17.6 18.2 17.8 18.2 17.9 18.15 18.05 18.15 18.2 18.1 18.3 18.05 18.4 18.0 18.55 17.95 18.65 17.9 18.75 17.85 18.8 17.8 18.9 17.75 18.95 L17.75 18.95" fill="#ffffff" fill-rule="evenodd" stroke="none"/>
    <path d="M22.35 21.25 Q22.4 21.25 22.4 21.25 22.45 21.25 22.45 21.25 22.5 21.2 22.55 21.2 22.6 21.2 22.6 21.15 22.65 21.15 22.7 21.15 22.75 21.1 22.75 21.05 22.8 21.05 22.85 21.0 22.9 20.95 22.95 20.95 23.0 20.9 23.05 20.85 23.05 20.8 23.1 20.8 23.15 20.75 23.15 20.75 23.2 20.7 23.25 20.7 23.25 20.65 23.3 20.65 23.3 20.6 23.35 20.6 23.35 20.6 23.4 20.6 23.4 20.6 23.45 20.6 23.5 20.6 23.6 20.6 23.65 20.6 23.75 20.6 23.85 20.55 25.05 20.9 25.2 20.95 25.35 21.0 25.45 21.0 25.6 21.05 25.7 21.1 25.85 21.1 25.95 21.15 26.1 21.15 26.2 21.15 26.3 21.2 26.4 21.2 26.5 21.2 26.6 21.2 26.7 21.2 26.8 21.25 26.9 21.25 27.0 21.25 27.1 21.25 27.2 21.25 27.3 21.2 27.35 21.2 27.5 21.15 27.55 21.15 27.7 21.1 27.8 21.1 27.9 21.05 28.0 21.05 28.1 21.0 28.2 20.95 28.3 20.9 28.45 20.85 28.55 20.85 28.65 20.8 28.8 20.7 28.9 20.65 29.0 20.6 29.15 20.5 29.25 20.45 29.35 20.35 29.45 20.3 29.55 20.2 29.65 20.1 29.75 20.0 29.85 19.9 29.95 19.8 30.05 19.7 30.15 19.6 30.2 19.5 30.35 19.3 30.5 19.15 30.6 18.95 30.7 18.75 30.85 18.55 30.95 18.35 31.0 18.1 31.1 17.9 31.15 17.7 31.25 17.45 31.3 17.2 31.3 17.0 31.35 16.75 31.4 16.5 31.4 16.25 31.4 15.95 31.4 15.75 31.4 15.6 31.35 15.45 31.35 15.25 31.3 15.1 31.3 14.95 31.25 14.8 31.2 14.65 31.2 14.5 31.15 14.35 31.1 14.2 31.0 14.05 30.95 13.95 30.9 13.8 30.8 13.65 30.75 13.55 30.65 13.4 30.6 13.3 30.5 13.2 30.4 13.05 30.35 12.95 30.25 12.85 30.15 12.75 30.05 12.65 29.95 12.6 29.85 12.5 29.75 12.4 29.65 12.35 29.55 12.25 29.45 12.2 29.35 12.1 29.2 12.05 29.1 12.0 29.0 11.95 28.85 11.9 28.75 11.85 28.65 11.8 28.55 11.8 28.4 11.75 28.3 11.7 28.2 11.7 28.1 11.65 27.95 11.65 27.85 11.65 27.75 11.6 27.6 11.6 27.5 11.6 27.4 11.6 27.3 11.6 27.15 11.6 27.05 11.6 26.9 11.65 26.8 11.65 26.7 11.65 26.55 11.7 26.45 11.7 26.35 11.75 26.2 11.8 26.1 11.8 26.0 11.85 25.85 11.9 25.75 11.95 25.65 12.0 25.5 12.05 L24.45 12.5 24.45 9.45 Q24.45 7.4 24.5 6.8 24.5 6.75 24.55 6.65 24.55 6.6 24.55 6.55 24.6 6.45 24.6 6.4 24.65 6.35 24.65 6.3 24.7 6.25 24.7 6.15 24.75 6.1 24.8 6.05 24.85 6.0 24.85 6.0 24.9 5.95 24.95 5.9 25.0 5.85 25.05 5.8 25.1 5.75 25.1 5.7 25.15 5.65 25.2 5.6 25.25 5.55 25.25 5.5 25.3 5.45 25.3 5.4 25.35 5.35 25.35 5.3 25.35 5.25 25.4 5.15 25.4 5.1 25.4 5.05 25.4 5.0 25.4 4.95 25.4 4.9 25.4 4.85 25.4 4.8 25.4 4.75 25.4 4.7 25.35 4.7 25.35 4.65 25.35 4.6 25.3 4.6 25.3 4.6 25.25 4.55 25.2 4.55 25.2 4.55 25.15 4.55 24.85 4.55 22.85 5.55 22.6 5.65 22.4 5.8 22.2 5.9 22.0 6.0 21.85 6.1 21.7 6.2 21.55 6.3 21.4 6.4 21.3 6.5 21.2 6.6 21.15 6.7 21.05 6.75 21.0 6.85 21.0 6.9 20.95 7.0 20.95 7.05 20.95 7.1 20.95 7.15 20.95 7.15 21.0 7.2 21.0 7.25 21.05 7.3 21.1 7.3 21.15 7.35 21.2 7.35 21.25 7.4 21.3 7.45 21.4 7.45 21.45 7.5 21.55 7.5 21.6 7.55 21.7 7.55 L22.3 7.7 22.4 12.55 22.4 15.6 Q22.35 17.9 22.25 18.9 22.2 19.05 22.2 19.15 22.2 19.3 22.15 19.45 22.15 19.55 22.1 19.65 22.1 19.8 22.1 19.9 22.1 20.0 22.1 20.1 22.05 20.2 22.05 20.3 22.05 20.35 22.05 20.45 22.05 20.55 22.05 20.65 22.05 20.75 22.05 20.8 22.05 20.85 22.05 20.9 22.1 20.95 22.1 21.0 22.1 21.05 22.15 21.1 22.15 21.15 22.15 21.15 22.2 21.2 22.2 21.2 22.25 21.25 22.3 21.25 22.3 21.25 22.35 21.25 L22.35 21.25 M27.9 13.45 Q28.05 13.55 28.2 13.7 28.35 13.85 28.45 14.0 28.6 14.15 28.7 14.35 28.8 14.5 28.85 14.7 28.95 14.95 29.0 15.15 29.05 15.4 29.1 15.65 29.15 15.9 29.15 16.2 29.2 16.45 29.2 16.75 29.2 16.9 29.2 17.0 29.2 17.1 29.2 17.25 29.2 17.35 29.15 17.45 29.15 17.55 29.15 17.6 29.15 17.7 29.15 17.8 29.1 17.85 29.1 17.95 29.1 18.0 29.1 18.05 29.05 18.1 29.05 18.15 29.05 18.2 29.0 18.25 29.0 18.3 28.95 18.4 28.9 18.45 28.9 18.5 28.85 18.6 28.8 18.65 28.75 18.75 28.65 18.8 28.6 18.9 28.55 18.95 28.5 19.05 28.4 19.15 28.35 19.25 28.25 19.3 28.15 19.4 28.1 19.5 28.0 19.55 27.9 19.65 27.8 19.7 27.7 19.8 27.65 19.85 27.55 19.9 27.45 19.95 27.35 19.95 27.25 20.0 27.1 20.05 27.0 20.05 26.9 20.05 26.8 20.05 26.7 20.05 26.7 20.1 26.65 20.1 26.55 20.1 26.45 20.1 26.35 20.05 26.25 20.05 26.15 20.05 26.05 20.0 25.95 20.0 25.9 19.95 25.8 19.9 25.7 19.85 25.65 19.8 25.55 19.75 25.5 19.7 25.4 19.65 25.35 19.6 25.3 19.5 25.25 19.45 25.15 19.35 25.1 19.3 25.05 19.25 25.0 19.2 24.95 19.1 24.9 19.05 24.85 19.0 24.85 18.9 24.8 18.85 24.75 18.8 24.75 18.75 24.7 18.65 24.7 18.6 24.65 18.55 24.65 18.45 24.65 18.4 24.6 18.35 24.6 18.25 24.6 18.2 24.6 18.1 24.6 18.0 24.55 17.9 24.55 17.8 24.55 17.7 24.55 17.6 24.5 17.5 24.5 17.35 24.5 17.25 24.5 17.1 24.5 16.95 24.5 16.8 24.45 15.55 24.45 15.1 24.45 15.05 24.45 14.95 24.45 14.9 24.45 14.85 24.45 14.8 24.45 14.75 24.45 14.7 24.45 14.6 24.45 14.55 24.45 14.5 24.45 14.45 24.45 14.45 24.45 14.4 24.45 14.35 24.5 14.3 24.5 14.25 24.5 14.2 24.5 14.2 24.55 14.15 24.55 14.1 24.6 14.05 24.6 14.0 24.65 13.95 24.7 13.9 24.75 13.9 24.8 13.85 24.85 13.8 24.9 13.75 24.95 13.7 25.0 13.6 25.05 13.55 25.15 13.5 25.2 13.45 25.3 13.4 25.35 13.35 25.45 13.3 25.5 13.25 25.6 13.25 25.7 13.2 25.75 13.15 25.85 13.15 25.95 13.1 26.05 13.1 26.15 13.1 26.25 13.1 26.35 13.05 26.45 13.05 26.55 13.05 26.65 13.05 26.75 13.05 26.85 13.05 26.9 13.1 27.0 13.1 27.1 13.1 27.2 13.15 27.25 13.15 27.35 13.2 27.45 13.2 27.5 13.25 27.6 13.25 27.65 13.3 27.75 13.35 27.8 13.4 27.9 13.45 L27.9 13.45" fill="#ffffff" fill-rule="evenodd" stroke="none"/>
  </g>
</svg>
