<?xml version="1.0" encoding="UTF-8" standalone="no"?>
<svg xmlns:ffdec="https://www.free-decompiler.com/flash" xmlns:xlink="http://www.w3.org/1999/xlink" ffdec:objectType="shape" height="26.0px" width="26.0px" xmlns="http://www.w3.org/2000/svg">
  <g transform="matrix(1.0, 0.0, 0.0, 1.0, 0.0, 0.0)">
    <path d="M8.15 9.65 Q8.2 9.65 8.25 9.65 8.3 9.6 8.4 9.6 8.45 9.55 8.5 9.5 8.6 9.45 8.7 9.4 8.75 9.35 8.85 9.25 8.95 9.2 9.05 9.1 9.15 9.0 9.25 8.9 9.35 8.8 9.45 8.65 9.55 8.55 9.65 8.45 9.75 8.3 9.9 8.25 10.0 8.15 10.1 8.05 10.2 8.0 10.3 7.95 10.4 7.85 10.45 7.8 10.55 7.8 10.65 7.75 10.75 7.7 10.85 7.7 10.9 7.7 11.0 7.7 L11.65 7.7 11.65 13.15 Q11.65 18.6 11.5 18.85 11.45 18.9 11.45 18.95 11.4 18.95 11.35 19.0 11.35 19.05 11.3 19.05 11.25 19.1 11.2 19.1 11.15 19.15 11.05 19.2 11.0 19.2 10.95 19.25 10.9 19.25 10.8 19.3 10.75 19.3 10.65 19.3 10.55 19.35 10.5 19.35 10.45 19.4 10.35 19.4 10.3 19.45 10.25 19.45 10.2 19.5 10.15 19.55 10.15 19.55 10.1 19.6 10.05 19.65 10.05 19.7 10.05 19.7 10.0 19.75 10.0 19.8 10.0 19.85 10.0 19.9 10.0 19.95 10.05 19.95 10.05 20.0 10.05 20.05 10.1 20.05 10.15 20.1 10.2 20.1 10.2 20.15 10.3 20.2 10.35 20.2 10.4 20.25 10.45 20.25 10.55 20.25 10.6 20.3 10.7 20.3 11.4 20.45 14.7 20.45 14.8 20.45 14.85 20.45 14.95 20.45 15.0 20.4 15.1 20.4 15.15 20.4 15.2 20.4 15.25 20.4 15.3 20.4 15.35 20.35 15.4 20.35 15.4 20.35 15.45 20.3 15.45 20.3 15.5 20.3 15.5 20.3 15.5 20.3 15.5 20.25 15.5 20.25 15.55 20.25 15.55 20.2 15.55 20.2 15.55 20.2 15.55 20.15 15.55 20.15 15.55 20.1 15.55 20.1 15.55 20.05 15.55 20.0 15.55 20.0 15.55 19.95 15.55 19.9 15.55 19.85 15.5 19.75 15.5 19.7 15.5 19.65 15.45 19.6 15.45 19.55 15.4 19.5 15.35 19.5 15.35 19.45 15.3 19.4 15.25 19.4 15.2 19.35 15.15 19.35 15.1 19.3 15.05 19.3 15.0 19.3 14.9 19.3 14.8 19.25 14.7 19.2 14.65 19.2 14.6 19.2 14.6 19.2 14.55 19.15 14.5 19.15 14.5 19.15 14.45 19.1 14.4 19.05 14.4 19.05 14.35 19.0 14.3 18.95 14.25 18.9 14.25 18.85 14.2 18.85 14.2 18.8 14.2 18.8 14.0 18.1 13.9 16.95 13.9 13.2 L13.9 7.7 14.5 7.7 Q14.55 7.7 14.65 7.7 14.7 7.7 14.8 7.7 14.85 7.75 14.95 7.75 15.0 7.75 15.05 7.8 15.15 7.8 15.2 7.85 15.3 7.9 15.35 7.95 15.4 7.95 15.5 8.0 15.55 8.05 15.6 8.1 15.65 8.15 15.7 8.2 15.75 8.25 15.8 8.3 15.85 8.35 15.9 8.45 15.95 8.5 16.0 8.55 16.0 8.6 16.05 8.65 16.1 8.7 16.1 8.8 16.15 8.85 16.15 8.9 16.15 8.95 16.2 9.05 16.2 9.1 16.2 9.15 16.2 9.25 16.25 9.3 16.25 9.35 16.25 9.4 16.25 9.45 16.25 9.45 16.3 9.5 16.3 9.55 16.3 9.6 16.3 9.6 16.35 9.65 16.35 9.65 16.35 9.7 16.35 9.7 16.4 9.75 16.4 9.75 16.45 9.8 16.5 9.8 16.55 9.85 16.55 9.85 16.6 9.85 16.65 9.85 16.7 9.85 16.75 9.8 16.8 9.8 16.85 9.75 16.9 9.75 16.95 9.65 17.0 9.6 17.05 9.55 17.15 9.45 17.2 9.35 17.25 9.25 17.3 9.15 17.35 9.0 17.4 8.9 17.5 8.75 17.55 8.55 17.6 8.4 17.65 8.2 18.15 6.65 18.15 6.25 18.15 6.2 18.15 6.15 18.15 6.1 18.15 6.05 18.15 6.0 18.15 6.0 18.1 5.95 18.1 5.9 18.1 5.85 18.1 5.85 18.1 5.8 18.05 5.8 18.05 5.75 18.05 5.75 18.0 5.75 18.0 5.7 17.95 5.65 17.9 5.65 17.85 5.6 17.8 5.6 17.75 5.6 17.7 5.6 17.7 5.6 17.65 5.65 17.6 5.65 17.6 5.65 17.55 5.7 17.55 5.7 17.5 5.7 17.45 5.75 17.45 5.75 17.4 5.8 17.35 5.85 17.35 5.85 17.3 5.9 17.25 5.95 17.2 5.95 17.15 6.0 17.1 6.05 17.05 6.1 17.0 6.15 16.95 6.15 16.9 6.2 16.85 6.2 16.8 6.25 16.75 6.3 16.7 6.3 16.65 6.3 16.55 6.35 16.5 6.35 16.45 6.4 16.35 6.4 16.3 6.4 16.25 6.4 15.65 6.5 13.35 6.5 11.15 6.5 10.6 6.45 10.55 6.45 10.5 6.4 10.45 6.4 10.4 6.4 10.35 6.35 10.3 6.35 10.25 6.3 10.2 6.3 10.15 6.25 10.1 6.2 10.1 6.2 10.05 6.15 10.0 6.1 10.0 6.05 9.95 6.0 9.95 5.95 9.9 5.9 9.9 5.85 9.85 5.85 9.85 5.8 9.8 5.75 9.75 5.75 9.75 5.7 9.7 5.65 9.65 5.65 9.6 5.65 9.6 5.6 9.55 5.6 9.5 5.6 9.45 5.6 9.4 5.55 9.35 5.55 9.3 5.55 9.25 5.55 9.25 5.6 9.2 5.6 9.15 5.6 9.1 5.65 9.05 5.65 9.05 5.7 9.0 5.75 8.95 5.8 8.95 5.85 8.9 5.9 8.85 5.9 8.85 6.0 8.8 6.05 8.8 6.1 8.55 6.7 8.2 7.85 7.85 9.0 7.85 9.25 7.85 9.3 7.85 9.35 7.85 9.4 7.85 9.4 7.9 9.45 7.9 9.5 7.9 9.5 7.95 9.55 7.95 9.55 7.95 9.6 8.1 9.65 8.15 9.65 L8.15 9.65" fill="#ffffff" fill-rule="evenodd" stroke="none"/>
  </g>
</svg>
