<?xml version="1.0" encoding="UTF-8" standalone="no"?>
<svg xmlns:ffdec="https://www.free-decompiler.com/flash" xmlns:xlink="http://www.w3.org/1999/xlink" ffdec:objectType="shape" height="26.0px" width="26.0px" xmlns="http://www.w3.org/2000/svg">
  <g transform="matrix(1.0, 0.0, 0.0, 1.0, 0.0, 0.0)">
    <path d="M11.9 14.45 L11.9 7.15 12.55 7.3 Q13.6 7.5 13.65 7.55 13.8 7.7 14.35 8.05 14.5 8.15 14.65 8.25 14.8 8.35 14.9 8.5 15.0 8.6 15.1 8.75 15.2 8.9 15.3 9.05 15.35 9.2 15.4 9.4 15.5 9.55 15.5 9.75 15.55 9.95 15.6 10.15 15.6 10.35 15.6 10.55 15.6 10.75 15.6 11.0 15.55 11.2 15.55 11.35 15.5 11.55 15.45 11.7 15.35 11.9 15.3 12.05 15.2 12.2 15.1 12.35 15.0 12.45 14.9 12.6 14.8 12.7 14.65 12.8 14.5 12.9 14.35 13.0 14.15 13.1 13.95 13.2 13.8 13.3 13.65 13.4 13.5 13.5 13.35 13.6 13.25 13.7 13.15 13.75 13.05 13.85 12.95 13.9 12.9 14.0 12.85 14.05 12.8 14.1 12.75 14.15 12.75 14.2 12.75 14.25 12.75 14.3 12.75 14.3 12.75 14.35 12.8 14.35 12.8 14.4 12.85 14.4 12.9 14.4 12.95 14.45 13.0 14.45 13.05 14.45 13.1 14.45 13.15 14.5 13.25 14.5 13.3 14.5 13.4 14.5 13.5 14.5 14.0 14.5 14.45 14.45 14.9 14.4 15.25 14.25 15.65 14.15 15.95 13.95 16.3 13.8 16.55 13.55 16.85 13.3 17.05 13.05 17.25 12.75 17.4 12.4 17.55 12.05 17.65 11.6 17.75 11.2 17.8 10.75 17.8 10.6 17.8 10.3 17.8 9.95 17.75 9.65 17.7 9.3 17.6 9.0 17.55 8.7 17.4 8.45 17.3 8.15 17.1 7.95 16.95 7.7 16.7 7.45 16.5 7.25 16.25 7.05 16.0 6.85 15.7 6.7 15.4 6.5 15.05 6.4 14.95 6.35 14.8 6.3 14.65 6.3 14.45 6.25 14.25 6.2 14.05 6.2 13.85 6.15 13.6 6.15 13.35 6.1 13.1 6.1 12.85 6.1 12.55 6.05 12.25 6.05 11.9 6.05 11.6 6.05 11.25 6.05 L11.05 6.05 Q10.7 6.05 10.4 6.05 10.15 6.05 9.85 6.05 9.6 6.05 9.4 6.1 9.2 6.1 9.0 6.1 8.85 6.15 8.7 6.15 8.55 6.2 8.45 6.2 8.35 6.25 8.3 6.3 8.25 6.35 8.25 6.4 8.25 6.45 8.2 6.45 8.2 6.5 8.2 6.55 8.2 6.55 8.2 6.6 8.2 6.6 8.2 6.65 8.2 6.65 8.2 6.7 8.2 6.7 8.2 6.75 8.25 6.75 8.25 6.8 8.25 6.8 8.3 6.85 8.3 6.85 8.3 6.9 8.35 6.9 8.35 6.95 8.4 6.95 8.45 7.0 8.45 7.05 8.5 7.05 8.5 7.1 8.55 7.1 8.6 7.1 8.6 7.15 8.65 7.15 8.7 7.2 8.7 7.2 8.75 7.2 8.8 7.25 8.85 7.25 8.85 7.25 8.9 7.25 8.95 7.3 9.0 7.3 9.05 7.3 9.1 7.3 9.15 7.3 9.2 7.35 9.25 7.35 9.25 7.35 9.3 7.35 9.35 7.4 9.35 7.4 9.4 7.4 9.4 7.45 9.4 7.45 9.4 7.5 9.45 7.5 9.45 7.5 9.45 7.5 9.45 7.55 9.45 7.55 9.45 7.55 9.5 7.6 9.5 7.6 9.5 7.65 9.5 7.65 9.5 7.7 9.5 7.7 9.5 7.75 9.55 7.8 9.55 7.85 9.55 7.85 9.55 7.9 9.65 8.2 9.65 11.2 L9.65 14.4 Q9.6 17.0 9.6 17.55 L9.55 18.15 Q9.55 18.2 9.5 18.25 9.5 18.3 9.5 18.35 9.5 18.4 9.45 18.45 9.45 18.5 9.45 18.5 9.4 18.55 9.4 18.55 9.4 18.55 9.35 18.6 9.35 18.6 9.35 18.6 9.3 18.65 9.3 18.65 9.25 18.65 9.25 18.65 9.2 18.7 9.15 18.7 9.15 18.7 9.1 18.7 9.05 18.7 9.05 18.75 9.0 18.75 8.95 18.75 8.9 18.75 8.85 18.75 8.85 18.75 8.8 18.75 8.75 18.8 8.75 18.8 8.7 18.8 8.65 18.85 8.65 18.85 8.6 18.85 8.55 18.9 8.55 18.9 8.5 18.9 8.5 18.95 8.45 18.95 8.45 19.0 8.4 19.05 8.4 19.05 8.35 19.1 8.3 19.15 8.3 19.15 8.25 19.2 8.25 19.2 8.25 19.25 8.2 19.25 8.2 19.3 8.2 19.3 8.2 19.35 8.2 19.35 8.2 19.4 8.2 19.4 8.2 19.45 8.2 19.5 8.25 19.65 8.25 19.65 8.25 19.7 8.3 19.7 8.3 19.75 8.3 19.75 8.35 19.75 8.35 19.8 8.4 19.8 8.45 19.8 8.45 19.8 8.5 19.85 8.55 19.85 8.6 19.85 8.65 19.85 8.7 19.9 8.75 19.9 9.3 19.95 11.35 19.95 11.6 19.95 11.85 19.95 12.1 19.95 12.3 19.95 12.5 19.95 12.7 19.9 12.85 19.9 13.0 19.9 13.15 19.9 13.25 19.85 13.4 19.85 13.45 19.8 13.55 19.8 13.6 19.75 13.65 19.75 13.7 19.7 13.7 19.65 13.75 19.65 13.75 19.6 13.75 19.6 13.75 19.55 13.75 19.5 13.75 19.45 13.75 19.45 13.75 19.4 13.7 19.35 13.7 19.3 13.65 19.25 13.65 19.25 13.6 19.2 13.55 19.15 13.5 19.1 13.45 19.05 13.45 19.0 13.4 19.0 13.35 18.95 13.3 18.9 13.25 18.9 13.2 18.85 13.2 18.85 13.15 18.85 13.1 18.8 13.05 18.8 13.0 18.8 12.95 18.75 12.9 18.75 12.85 18.75 12.75 18.75 12.7 18.75 12.65 18.75 12.6 18.75 12.55 18.7 12.5 18.7 12.45 18.65 12.45 18.6 12.4 18.6 12.35 18.55 12.3 18.5 12.25 18.4 12.2 18.35 12.2 18.3 12.15 18.2 12.1 18.15 12.1 18.05 12.05 17.95 12.05 17.9 12.0 17.8 12.0 17.7 11.95 17.6 11.95 17.55 11.9 17.45 11.9 17.35 11.9 17.3 11.9 17.2 11.85 17.1 11.85 17.05 11.85 16.95 11.85 16.85 11.85 16.8 11.85 16.7 L11.9 14.45" fill="#ffffff" fill-rule="evenodd" stroke="none"/>
  </g>
</svg>
