<?xml version="1.0" encoding="UTF-8" standalone="no"?>
<svg xmlns:ffdec="https://www.free-decompiler.com/flash" xmlns:xlink="http://www.w3.org/1999/xlink" ffdec:objectType="shape" height="26.0px" width="41.75px" xmlns="http://www.w3.org/2000/svg">
  <g transform="matrix(1.0, 0.0, 0.0, 1.0, 0.0, 0.0)">
    <path d="M10.0 6.55 Q10.0 6.6 9.95 6.65 9.95 6.65 9.95 6.7 9.9 6.75 9.9 6.75 9.85 6.75 9.85 6.8 9.8 6.8 9.75 6.85 9.7 6.85 9.6 6.85 9.55 6.9 9.45 6.9 9.4 6.9 9.3 6.9 9.2 6.95 9.05 6.95 8.95 6.95 8.85 6.95 8.7 6.95 8.55 6.95 L6.45 7.0 Q4.9 7.05 4.45 7.15 4.4 7.15 4.35 7.15 4.3 7.15 4.25 7.2 4.2 7.2 4.2 7.2 4.15 7.2 4.1 7.25 4.1 7.25 4.05 7.3 4.05 7.3 4.05 7.35 4.0 7.35 4.0 7.4 4.0 7.4 4.0 7.45 4.0 7.5 4.0 7.5 4.0 7.55 4.05 7.6 4.05 7.65 4.1 7.65 4.1 7.7 4.15 7.75 4.2 7.75 4.25 7.8 4.3 7.85 4.35 7.85 4.4 7.9 4.5 7.95 4.55 7.95 4.65 8.0 L5.3 8.3 5.3 17.65 4.65 17.9 Q4.55 17.95 4.5 18.0 4.4 18.0 4.35 18.05 4.3 18.1 4.25 18.1 4.2 18.15 4.15 18.2 4.1 18.2 4.1 18.25 4.05 18.3 4.05 18.35 4.0 18.35 4.0 18.4 4.0 18.45 4.0 18.5 4.0 18.55 4.0 18.55 4.0 18.6 4.05 18.6 4.05 18.65 4.05 18.65 4.1 18.65 4.15 18.7 4.15 18.7 4.2 18.75 4.25 18.75 4.3 18.75 4.35 18.8 4.4 18.8 4.45 18.8 4.5 18.8 5.05 18.9 7.6 18.95 10.15 18.95 10.55 19.1 10.6 19.1 10.6 19.15 10.65 19.15 10.65 19.15 10.7 19.2 10.7 19.2 10.75 19.25 10.75 19.25 10.8 19.3 10.8 19.3 10.8 19.35 10.85 19.35 10.85 19.4 10.85 19.45 10.85 19.5 10.9 19.5 10.9 19.55 10.9 19.6 10.95 19.65 10.95 19.65 10.95 19.7 11.0 19.7 11.0 19.75 11.05 19.75 11.05 19.8 11.1 19.8 11.1 19.8 11.15 19.8 11.15 19.8 11.2 19.8 11.2 19.8 11.25 19.8 11.3 19.8 11.35 19.8 11.4 19.75 11.45 19.7 11.5 19.65 11.55 19.6 11.6 19.5 11.65 19.4 11.7 19.3 11.8 19.2 11.85 19.05 11.9 18.9 11.95 18.75 12.0 18.55 12.05 18.4 12.1 18.2 12.6 16.55 12.6 16.2 12.6 16.15 12.6 16.1 12.6 16.05 12.6 16.05 12.6 16.0 12.55 15.95 12.55 15.95 12.5 15.9 12.5 15.9 12.45 15.9 12.45 15.9 12.4 15.85 12.35 15.85 12.3 15.85 12.25 15.9 12.2 15.9 12.15 15.9 12.1 15.95 12.05 15.95 12.0 15.95 11.95 16.0 11.95 16.0 11.9 16.05 11.85 16.1 11.8 16.15 11.75 16.2 11.7 16.2 11.65 16.25 11.6 16.35 11.6 16.4 11.55 16.45 11.5 16.5 11.4 16.65 11.35 16.75 11.25 16.9 11.15 17.0 11.05 17.1 10.95 17.2 10.85 17.3 10.75 17.4 10.65 17.45 10.5 17.55 10.4 17.6 10.25 17.65 10.1 17.75 9.95 17.75 9.85 17.8 9.7 17.85 9.65 17.85 9.6 17.85 9.55 17.9 9.5 17.9 9.45 17.9 9.45 17.9 9.4 17.9 9.35 17.9 9.3 17.95 9.25 17.95 9.2 17.95 9.2 17.95 9.15 17.95 9.1 17.95 9.05 17.95 9.0 17.95 8.9 17.95 8.8 17.95 8.75 17.95 8.65 17.9 8.55 17.9 8.45 17.85 8.4 17.85 8.3 17.8 8.25 17.8 8.15 17.75 8.1 17.7 8.0 17.65 7.95 17.6 7.9 17.55 7.8 17.5 7.75 17.4 7.7 17.35 7.65 17.3 7.65 17.3 7.6 17.25 7.55 17.2 7.55 17.15 7.5 17.1 7.45 17.05 7.45 17.05 7.4 17.0 7.4 16.95 7.4 16.9 7.35 16.85 7.35 16.8 7.35 16.75 7.3 16.7 7.25 16.3 7.25 14.95 L7.25 12.95 8.05 12.95 Q8.15 12.95 8.25 12.95 8.35 12.95 8.45 13.0 8.55 13.0 8.6 13.0 8.7 13.0 8.8 13.05 8.9 13.05 8.95 13.1 9.05 13.1 9.15 13.15 9.25 13.15 9.3 13.2 9.4 13.2 9.45 13.25 9.55 13.3 9.6 13.35 9.7 13.35 9.75 13.4 9.8 13.45 9.85 13.5 9.9 13.55 9.95 13.6 10.0 13.65 10.05 13.7 10.1 13.75 10.15 13.8 10.15 13.85 10.2 13.9 10.2 13.95 10.2 14.0 10.2 14.05 10.25 14.1 10.25 14.15 10.3 14.15 10.35 14.2 10.35 14.25 10.4 14.25 10.45 14.3 10.45 14.3 10.5 14.35 10.55 14.35 10.6 14.4 10.65 14.4 10.7 14.4 10.75 14.4 10.8 14.4 10.85 14.4 10.9 14.4 10.95 14.4 10.95 14.4 11.0 14.4 11.05 14.4 11.05 14.35 11.1 14.35 11.1 14.3 11.15 14.3 11.15 14.25 11.15 14.25 11.2 14.2 11.2 14.15 11.2 14.1 11.2 14.05 11.2 13.75 10.7 12.25 10.65 12.05 10.6 11.9 10.55 11.75 10.5 11.6 10.45 11.45 10.35 11.35 10.3 11.25 10.25 11.15 10.2 11.05 10.15 11.0 10.1 10.95 10.05 10.9 10.0 10.85 9.95 10.8 9.9 10.8 9.85 10.8 9.8 10.8 9.75 10.8 9.7 10.8 9.65 10.85 9.6 10.85 9.55 10.85 9.55 10.9 9.5 10.9 9.45 10.95 9.45 11.0 9.4 11.05 9.4 11.1 9.35 11.15 9.35 11.2 9.3 11.25 9.3 11.3 9.3 11.35 9.25 11.4 9.25 11.45 9.25 11.5 9.25 11.5 9.2 11.55 9.2 11.6 9.2 11.6 9.15 11.65 9.15 11.65 9.1 11.7 9.1 11.7 9.05 11.75 9.05 11.75 9.0 11.75 9.0 11.75 9.0 11.75 8.95 11.75 8.95 11.8 8.9 11.8 8.85 11.8 8.85 11.8 8.8 11.85 8.75 11.85 8.7 11.85 8.65 11.85 8.55 11.85 8.5 11.85 8.45 11.9 8.35 11.9 8.3 11.9 8.2 11.9 L7.25 11.95 7.25 8.0 8.2 8.0 Q8.3 8.0 8.4 8.0 8.5 8.0 8.6 8.0 8.7 8.0 8.8 8.05 8.9 8.05 8.95 8.05 9.05 8.1 9.15 8.1 9.2 8.1 9.3 8.15 9.35 8.15 9.45 8.2 9.5 8.2 9.55 8.25 9.6 8.3 9.7 8.3 9.75 8.35 9.8 8.4 9.85 8.45 9.95 8.5 10.0 8.55 10.05 8.6 10.15 8.65 10.2 8.7 10.25 8.75 10.35 8.85 10.4 8.9 10.5 9.0 10.55 9.05 10.65 9.15 10.7 9.25 10.8 9.3 10.85 9.35 10.9 9.45 10.95 9.5 11.05 9.55 11.1 9.6 11.15 9.65 11.2 9.65 11.25 9.7 11.3 9.75 11.3 9.75 11.35 9.8 11.4 9.8 11.45 9.8 11.45 9.8 11.5 9.8 11.5 9.8 11.55 9.8 11.55 9.75 11.6 9.75 11.6 9.75 11.65 9.7 11.65 9.7 11.65 9.65 11.65 9.6 11.7 9.6 11.7 9.55 11.7 9.5 11.7 9.45 11.7 9.4 11.7 9.35 11.7 9.3 11.7 9.2 11.7 9.15 11.7 9.05 11.65 9.0 11.65 8.9 11.65 8.8 11.6 8.65 11.6 8.55 11.55 8.45 11.5 8.3 11.45 8.15 11.45 8.05 11.4 7.9 11.35 7.75 11.3 7.55 11.25 7.4 11.2 7.25 11.15 7.1 11.1 6.95 11.05 6.85 11.0 6.75 10.95 6.65 10.85 6.55 10.8 6.45 10.75 6.4 10.7 6.35 10.65 6.3 10.6 6.25 10.55 6.2 10.5 6.2 10.45 6.2 L10.4 6.2 Q10.35 6.2 10.35 6.2 10.3 6.2 10.25 6.2 10.25 6.2 10.2 6.25 10.15 6.25 10.15 6.25 10.1 6.3 10.1 6.3 10.05 6.35 10.05 6.4 10.05 6.4 10.0 6.45 10.0 6.5 10.0 6.55 L10.0 6.55" fill="#ffffff" fill-rule="evenodd" stroke="none"/>
    <path d="M15.4 18.95 Q15.5 18.95 15.6 18.95 15.65 18.95 15.75 18.95 15.8 18.95 15.9 18.95 15.95 18.95 16.0 18.95 16.05 18.95 16.1 18.9 16.15 18.9 16.2 18.9 16.25 18.9 16.25 18.9 16.3 18.85 16.3 18.85 16.35 18.85 16.35 18.8 16.4 18.75 16.4 18.75 16.45 18.7 16.45 18.65 16.45 18.6 16.45 18.55 16.45 18.5 16.45 18.45 16.45 18.4 16.4 18.4 16.4 18.35 16.4 18.3 16.35 18.3 16.35 18.25 16.3 18.2 16.25 18.2 16.2 18.15 16.15 18.15 16.15 18.1 16.05 18.1 16.0 18.1 15.95 18.05 15.9 18.05 15.85 18.0 15.8 18.0 15.75 17.95 15.7 17.95 15.65 17.9 15.6 17.85 15.55 17.8 15.5 17.75 15.45 17.7 15.45 17.65 15.4 17.6 15.35 17.55 15.35 17.45 15.3 17.4 15.3 17.3 15.2 17.05 15.2 15.6 15.2 15.45 15.2 15.25 15.2 15.1 15.2 14.95 15.25 14.8 15.25 14.65 15.25 14.5 15.3 14.35 15.3 14.25 15.35 14.1 15.35 14.0 15.4 13.85 15.4 13.75 15.45 13.65 15.45 13.55 15.5 13.45 15.55 13.3 15.65 13.2 15.7 13.05 15.8 12.95 15.85 12.85 15.95 12.75 16.05 12.7 16.15 12.6 16.25 12.55 16.35 12.5 16.45 12.45 16.55 12.4 16.7 12.35 16.8 12.35 16.95 12.35 17.1 12.35 17.15 12.35 17.2 12.35 17.25 12.35 17.25 12.35 17.3 12.35 17.35 12.4 17.4 12.4 17.45 12.4 17.5 12.45 17.55 12.45 17.6 12.5 17.65 12.5 17.7 12.55 17.75 12.6 17.8 12.65 17.85 12.7 17.9 12.75 17.95 12.8 18.0 12.85 18.05 12.9 18.1 12.95 18.1 13.0 18.15 13.1 18.2 13.15 18.25 13.25 18.25 13.35 18.3 13.4 18.3 13.5 18.35 13.6 18.35 13.7 18.4 13.8 18.4 13.9 18.5 14.95 18.5 15.45 18.5 15.55 18.5 15.6 18.5 15.7 18.5 15.8 18.5 15.85 18.5 15.95 18.5 16.05 18.5 16.1 18.5 16.2 18.45 16.3 18.45 16.35 18.45 16.45 18.45 16.55 18.45 16.6 18.45 16.7 18.4 16.8 18.4 16.9 18.4 16.95 18.35 17.05 18.35 17.15 18.35 17.2 18.35 17.25 18.35 17.35 18.3 17.4 18.3 17.45 18.3 17.5 18.3 17.55 18.3 17.6 18.25 17.65 18.25 17.65 18.25 17.7 18.25 17.75 18.25 17.8 18.2 17.8 18.2 17.85 18.15 17.85 18.15 17.9 18.1 17.9 18.1 17.9 18.05 17.95 18.05 17.95 18.0 18.0 17.95 18.0 17.95 18.0 17.9 18.05 17.85 18.05 17.8 18.05 17.8 18.05 17.75 18.05 17.7 18.1 17.6 18.1 17.55 18.1 17.5 18.15 17.5 18.15 17.45 18.2 17.4 18.25 17.4 18.25 17.35 18.3 17.35 18.35 17.3 18.4 17.3 18.4 17.3 18.45 17.3 18.5 17.3 18.55 17.3 18.6 17.3 18.65 17.3 18.7 17.3 18.7 17.3 18.75 17.35 18.75 17.35 18.8 17.35 18.8 17.4 18.85 17.4 18.85 17.4 18.85 17.45 18.9 17.5 18.9 17.5 18.9 17.55 18.9 17.6 18.9 17.65 18.95 17.7 18.95 17.75 18.95 17.85 18.95 17.9 18.95 18.0 18.95 18.05 18.95 18.15 18.95 18.25 18.95 18.35 18.95 18.75 18.95 19.05 18.95 19.4 18.95 19.7 18.95 19.95 18.9 20.2 18.9 20.45 18.85 20.65 18.85 20.85 18.8 20.95 18.8 21.1 18.75 21.2 18.7 21.3 18.65 21.35 18.6 21.4 18.55 21.4 18.5 21.4 18.5 21.4 18.45 21.4 18.45 21.35 18.4 21.35 18.35 21.3 18.35 21.3 18.3 21.25 18.3 21.25 18.25 21.2 18.2 21.15 18.2 21.1 18.15 21.05 18.15 20.95 18.1 20.9 18.05 20.85 18.0 L20.2 17.7 20.2 15.15 Q20.2 14.9 20.2 14.7 20.15 14.5 20.15 14.3 20.15 14.15 20.15 13.95 20.1 13.8 20.1 13.6 20.1 13.45 20.05 13.3 20.05 13.15 20.0 13.05 20.0 12.9 19.95 12.8 19.95 12.7 19.9 12.6 19.85 12.4 19.75 12.25 19.7 12.1 19.6 11.95 19.5 11.8 19.35 11.7 19.25 11.6 19.1 11.5 18.95 11.4 18.75 11.35 18.6 11.25 18.4 11.2 18.2 11.15 17.95 11.15 17.75 11.15 17.5 11.15 17.4 11.15 17.3 11.15 17.2 11.15 17.1 11.15 16.95 11.2 16.85 11.2 16.75 11.25 16.65 11.25 16.55 11.3 16.45 11.35 16.35 11.4 16.25 11.45 16.2 11.5 16.1 11.55 16.0 11.6 15.9 11.65 L15.3 12.1 15.3 11.55 Q15.3 11.5 15.3 11.45 15.3 11.4 15.3 11.35 15.3 11.3 15.3 11.3 15.3 11.25 15.25 11.2 15.25 11.2 15.25 11.15 15.25 11.1 15.2 11.1 15.2 11.1 15.15 11.05 15.15 11.05 15.15 11.0 15.1 10.95 15.05 10.95 15.0 10.9 14.95 10.9 14.9 10.9 14.85 10.9 14.85 10.9 14.8 10.9 14.75 10.9 14.7 10.9 14.65 10.9 14.65 10.95 14.6 10.95 14.55 11.0 14.5 11.1 13.45 11.25 13.3 11.25 13.2 11.3 13.1 11.3 13.0 11.35 12.9 11.35 12.85 11.4 12.75 11.4 12.7 11.45 12.6 11.45 12.55 11.5 12.55 11.55 12.5 11.55 12.45 11.6 12.45 11.65 12.45 11.65 12.45 11.7 12.45 11.75 12.45 11.75 12.45 11.8 12.45 11.8 12.5 11.85 12.5 11.85 12.55 11.9 12.55 11.95 12.6 11.95 12.65 12.0 12.65 12.05 12.7 12.05 12.75 12.1 12.8 12.1 12.85 12.15 12.95 12.2 13.0 12.25 13.05 12.25 13.1 12.3 13.1 12.3 13.15 12.35 13.2 12.35 13.2 12.4 13.25 12.4 13.25 12.45 13.25 12.45 13.3 12.5 13.3 12.55 13.3 12.55 13.35 12.6 13.35 12.65 13.4 12.7 13.4 12.75 13.4 12.8 13.4 12.85 13.45 12.9 13.45 12.95 13.45 13.0 13.45 13.05 13.45 13.15 13.45 13.15 13.45 13.35 13.45 13.45 13.45 13.55 13.5 13.7 13.5 13.85 13.5 14.05 13.5 14.2 13.5 14.4 13.5 14.6 13.5 14.85 13.5 15.05 L13.55 17.7 12.95 18.0 Q12.85 18.05 12.8 18.1 12.75 18.1 12.7 18.15 12.65 18.2 12.6 18.2 12.55 18.25 12.5 18.3 12.45 18.3 12.45 18.35 12.4 18.35 12.4 18.4 12.35 18.4 12.35 18.45 12.35 18.5 12.35 18.5 12.35 18.55 12.4 18.6 12.45 18.65 12.55 18.7 12.65 18.75 12.8 18.8 12.9 18.8 13.1 18.85 13.3 18.85 13.55 18.9 13.75 18.9 14.05 18.95 14.35 18.95 14.65 18.95 15.0 18.95 15.4 18.95 L15.4 18.95" fill="#ffffff" fill-rule="evenodd" stroke="none"/>
    <path d="M26.05 18.55 Q26.05 18.55 26.05 18.5 26.05 18.5 26.0 18.45 26.0 18.45 26.0 18.45 25.95 18.4 25.9 18.4 25.9 18.35 25.85 18.3 25.8 18.3 25.75 18.25 25.7 18.25 25.6 18.2 25.55 18.2 25.5 18.15 25.4 18.1 25.35 18.1 25.3 18.05 25.2 18.0 25.15 18.0 25.1 17.95 25.05 17.9 25.0 17.9 24.95 17.85 24.95 17.85 24.9 17.8 24.85 17.8 24.8 17.75 24.8 17.7 24.75 17.7 24.75 17.65 24.75 17.65 24.7 17.55 24.7 17.5 24.7 17.4 24.65 17.3 24.65 17.2 24.65 17.05 24.65 16.85 24.65 16.7 24.65 16.5 24.6 16.3 24.6 16.05 24.6 15.8 24.6 15.5 24.6 15.25 24.6 14.9 L24.6 12.4 25.55 12.4 Q25.65 12.4 25.7 12.4 25.8 12.4 25.85 12.4 25.95 12.4 26.0 12.4 26.05 12.35 26.1 12.35 26.15 12.35 26.2 12.35 26.25 12.35 26.25 12.35 26.3 12.3 26.35 12.3 26.35 12.3 26.35 12.3 26.35 12.3 26.4 12.25 26.4 12.25 26.4 12.25 26.4 12.2 26.4 12.2 26.45 12.2 26.45 12.15 26.45 12.1 26.45 12.1 26.45 12.05 26.45 12.05 26.45 12.0 26.45 11.95 26.45 11.9 26.45 11.85 26.45 11.8 26.45 11.75 26.45 11.7 26.45 11.65 26.45 11.6 26.45 11.6 26.45 11.55 26.4 11.55 26.4 11.5 26.35 11.45 26.35 11.45 26.35 11.45 26.3 11.4 26.25 11.4 26.2 11.35 25.55 11.35 L24.65 11.35 24.55 10.35 Q24.55 10.25 24.55 10.1 24.5 10.0 24.5 9.9 24.5 9.85 24.45 9.75 24.45 9.65 24.4 9.6 24.4 9.55 24.35 9.5 24.35 9.45 24.3 9.45 24.3 9.4 24.25 9.4 24.2 9.35 24.15 9.35 24.15 9.35 24.1 9.35 24.05 9.35 24.05 9.4 24.0 9.4 24.0 9.45 23.95 9.45 23.9 9.5 23.85 9.55 23.8 9.6 23.8 9.65 23.75 9.7 23.7 9.75 23.65 9.8 23.6 9.85 23.55 9.95 23.5 10.0 23.45 10.1 23.4 10.15 23.3 10.25 23.25 10.3 23.2 10.35 23.1 10.45 23.05 10.5 22.95 10.55 22.9 10.65 22.8 10.7 22.7 10.8 22.6 10.85 22.5 10.9 22.4 11.0 22.3 11.05 22.2 11.1 22.1 11.15 22.05 11.25 21.95 11.3 21.9 11.35 21.85 11.4 21.8 11.45 21.75 11.5 21.7 11.55 21.65 11.6 21.6 11.65 21.6 11.7 21.55 11.75 21.55 11.75 21.55 11.8 21.55 11.85 21.55 11.9 21.55 11.9 21.55 11.95 21.6 12.0 21.6 12.0 21.65 12.05 21.65 12.1 21.7 12.1 21.75 12.15 21.8 12.15 21.85 12.2 21.9 12.2 21.95 12.25 22.05 12.25 22.1 12.3 22.2 12.3 L22.85 12.5 22.95 17.75 22.35 18.1 Q22.25 18.15 22.2 18.15 22.15 18.2 22.1 18.25 22.05 18.25 22.0 18.3 21.95 18.35 21.9 18.35 21.85 18.4 21.85 18.45 21.8 18.45 21.8 18.5 21.75 18.5 21.75 18.55 21.75 18.55 21.75 18.6 21.75 18.65 21.8 18.65 21.8 18.7 21.9 18.75 21.95 18.75 22.05 18.8 22.15 18.8 22.3 18.85 22.45 18.85 22.6 18.85 22.75 18.9 22.95 18.9 23.15 18.9 23.4 18.9 23.65 18.9 23.9 18.9 24.15 18.9 24.4 18.9 24.65 18.9 24.85 18.9 25.05 18.85 25.2 18.85 25.4 18.85 25.5 18.8 25.65 18.8 25.75 18.75 25.85 18.75 25.9 18.7 26.0 18.7 26.0 18.65 26.05 18.6 26.05 18.55 L26.05 18.55" fill="#ffffff" fill-rule="evenodd" stroke="none"/>
    <path d="M26.5 12.45 Q26.4 12.55 26.35 12.65 26.3 12.75 26.2 12.85 26.15 12.95 26.1 13.0 26.05 13.1 25.95 13.2 25.9 13.3 25.85 13.35 25.85 13.45 25.8 13.55 25.75 13.6 25.7 13.7 25.7 13.75 25.65 13.85 25.65 13.9 25.6 14.0 25.6 14.05 25.55 14.15 25.55 14.2 25.55 14.3 25.5 14.4 25.5 14.45 25.5 14.55 25.5 14.6 25.5 14.7 25.5 14.8 25.45 14.85 25.45 14.95 25.45 15.0 25.45 15.1 25.45 15.3 25.45 15.45 25.45 15.65 25.5 15.8 25.5 15.95 25.55 16.1 25.55 16.25 25.6 16.4 25.65 16.55 25.7 16.7 25.7 16.8 25.75 16.95 25.8 17.1 25.9 17.2 25.95 17.3 26.0 17.4 26.15 17.6 26.3 17.8 26.45 18.0 26.6 18.15 26.75 18.35 26.95 18.5 27.1 18.6 27.3 18.7 27.5 18.85 27.7 18.9 27.9 19.0 28.15 19.05 28.35 19.1 28.6 19.15 28.85 19.15 29.1 19.15 29.25 19.15 29.4 19.15 29.55 19.15 29.7 19.1 29.85 19.1 30.0 19.05 30.15 19.0 30.3 18.95 30.45 18.9 30.6 18.8 30.75 18.75 30.9 18.65 31.05 18.6 31.15 18.5 31.3 18.4 31.45 18.25 31.5 18.2 31.6 18.15 31.65 18.05 31.7 18.0 31.75 17.95 31.8 17.9 31.85 17.85 31.9 17.8 31.95 17.75 31.95 17.7 32.0 17.65 32.0 17.6 32.0 17.55 32.05 17.5 32.05 17.5 32.05 17.45 32.05 17.4 32.05 17.35 32.05 17.35 32.0 17.3 32.0 17.3 32.0 17.25 31.95 17.25 31.95 17.2 31.9 17.2 31.9 17.2 31.85 17.15 31.85 17.15 31.8 17.15 31.75 17.15 31.7 17.15 31.7 17.15 31.65 17.15 31.65 17.15 31.6 17.15 31.55 17.15 31.5 17.15 31.45 17.2 31.4 17.2 31.35 17.2 31.3 17.25 31.25 17.25 31.2 17.3 31.15 17.35 31.1 17.35 31.0 17.4 30.95 17.45 30.9 17.5 30.85 17.55 30.75 17.6 30.7 17.6 30.6 17.65 30.5 17.7 30.45 17.7 30.35 17.75 30.25 17.75 30.15 17.8 30.05 17.8 29.95 17.8 29.85 17.85 29.75 17.85 29.65 17.85 29.55 17.85 29.4 17.85 29.3 17.85 29.2 17.85 29.1 17.85 29.0 17.8 28.9 17.8 28.8 17.75 28.7 17.75 28.6 17.7 28.5 17.65 28.45 17.6 28.35 17.55 28.3 17.5 28.2 17.45 28.15 17.35 28.05 17.3 28.0 17.2 27.95 17.15 27.9 17.1 27.85 17.05 27.8 17.0 27.8 16.9 27.75 16.85 27.7 16.8 27.65 16.75 27.65 16.65 27.6 16.6 27.55 16.55 27.55 16.45 27.5 16.4 27.5 16.3 27.45 16.25 27.45 16.2 29.1 15.45 29.7 15.15 31.3 14.1 31.65 13.95 31.7 13.95 31.75 13.9 31.75 13.9 31.8 13.85 31.85 13.85 31.85 13.8 31.9 13.8 31.9 13.75 31.95 13.75 31.95 13.7 31.95 13.7 31.95 13.65 31.95 13.6 31.95 13.6 31.95 13.55 31.95 13.55 31.95 13.5 31.95 13.5 31.95 13.45 31.95 13.45 31.9 13.4 31.9 13.35 31.9 13.35 31.85 13.3 31.8 13.3 31.8 13.25 31.75 13.25 31.75 13.2 31.7 13.15 31.7 13.05 31.65 13.0 31.6 12.9 31.6 12.8 31.55 12.7 31.55 12.65 31.5 12.55 31.45 12.5 31.45 12.4 31.4 12.35 31.35 12.3 31.25 12.2 31.2 12.15 31.15 12.05 31.05 11.95 31.0 11.9 30.9 11.8 30.8 11.7 30.7 11.65 30.6 11.55 30.45 11.45 30.4 11.4 30.35 11.4 30.3 11.35 30.2 11.3 30.15 11.3 30.05 11.25 30.0 11.25 29.9 11.2 29.85 11.2 29.75 11.2 29.65 11.2 29.55 11.15 29.45 11.15 29.35 11.15 29.25 11.15 29.15 11.15 28.95 11.15 28.8 11.15 28.6 11.2 28.45 11.25 28.25 11.25 28.1 11.35 27.9 11.4 27.75 11.5 27.6 11.55 27.45 11.65 27.25 11.75 27.1 11.9 26.95 12.0 26.8 12.15 26.65 12.3 26.5 12.45 L26.5 12.45 M29.95 13.55 Q29.9 13.6 29.9 13.65 29.85 13.7 29.8 13.8 29.75 13.85 29.65 13.9 29.6 13.95 29.55 14.0 29.45 14.1 29.4 14.15 29.3 14.2 29.2 14.25 29.1 14.35 29.0 14.4 28.9 14.45 28.75 14.55 27.7 15.1 27.25 15.25 27.25 15.2 27.25 15.2 27.25 15.15 27.2 15.1 27.2 15.05 27.2 15.0 27.2 14.95 27.2 14.9 27.2 14.85 27.2 14.8 27.2 14.75 27.2 14.65 27.2 14.6 27.2 14.55 27.2 14.45 27.2 14.4 27.2 14.2 27.2 14.05 27.25 13.85 27.25 13.7 27.3 13.55 27.35 13.4 27.4 13.25 27.45 13.1 27.5 13.0 27.6 12.9 27.7 12.75 27.8 12.65 27.9 12.6 28.0 12.5 28.1 12.4 28.25 12.35 28.3 12.35 28.35 12.3 28.35 12.3 28.4 12.3 28.45 12.25 28.5 12.25 28.5 12.25 28.55 12.25 28.6 12.25 28.6 12.25 28.65 12.2 28.7 12.2 28.7 12.2 28.75 12.2 28.75 12.2 28.8 12.2 28.9 12.15 28.9 12.15 28.95 12.15 29.0 12.15 29.05 12.15 29.1 12.15 29.15 12.2 29.15 12.2 29.2 12.2 29.25 12.25 29.3 12.25 29.35 12.3 29.4 12.3 29.45 12.35 29.5 12.4 29.55 12.45 29.6 12.45 29.65 12.5 29.7 12.55 29.75 12.6 29.75 12.65 29.8 12.7 29.85 12.75 29.85 12.8 29.9 12.8 29.9 12.85 29.95 12.9 29.95 12.95 29.95 13.0 30.0 13.05 30.0 13.05 30.0 13.1 30.0 13.15 30.0 13.2 30.0 13.25 30.0 13.3 30.0 13.35 30.0 13.4 30.0 13.4 30.0 13.45 29.95 13.5 29.95 13.5 29.95 13.55 29.95 13.55 L29.95 13.55" fill="#ffffff" fill-rule="evenodd" stroke="none"/>
    <path d="M36.95 11.2 Q36.85 11.2 36.7 11.2 36.6 11.25 36.5 11.25 36.4 11.3 36.25 11.35 36.15 11.4 36.05 11.45 35.9 11.5 35.8 11.55 35.7 11.65 35.6 11.7 35.45 11.8 35.35 11.9 35.25 12.0 35.15 12.1 L34.45 12.8 34.45 11.95 34.45 11.6 Q34.45 11.55 34.45 11.5 34.45 11.4 34.45 11.35 34.45 11.3 34.45 11.25 34.4 11.2 34.4 11.2 34.4 11.15 34.4 11.1 34.35 11.1 34.35 11.05 34.3 11.05 34.3 11.05 34.25 11.05 34.25 11.0 34.2 11.0 34.1 11.0 34.0 11.0 33.95 11.0 33.9 11.0 33.85 11.0 33.8 11.05 33.75 11.05 33.75 11.1 33.7 11.1 33.65 11.15 33.55 11.15 33.45 11.2 33.35 11.2 33.2 11.25 33.05 11.25 32.9 11.3 32.65 11.3 32.5 11.35 32.4 11.35 32.3 11.4 32.2 11.4 32.1 11.45 32.05 11.45 31.95 11.5 31.9 11.5 31.85 11.55 31.8 11.6 31.75 11.6 31.7 11.65 31.7 11.7 31.65 11.7 31.65 11.75 31.65 11.8 31.65 11.85 31.65 11.85 31.65 11.85 31.7 11.9 31.7 11.9 31.7 11.95 31.7 11.95 31.75 12.0 31.75 12.0 31.8 12.05 31.85 12.05 31.85 12.1 31.9 12.1 31.95 12.15 32.0 12.15 32.05 12.2 32.1 12.25 32.15 12.25 32.2 12.3 32.25 12.3 32.3 12.35 32.3 12.35 32.35 12.4 32.4 12.4 32.4 12.45 32.45 12.45 32.45 12.5 32.45 12.5 32.5 12.55 32.5 12.55 32.5 12.6 32.55 12.6 32.6 12.7 32.65 12.95 32.7 13.45 32.75 15.1 L32.8 17.75 32.15 18.1 Q32.1 18.15 32.0 18.15 31.95 18.2 31.9 18.25 31.85 18.25 31.8 18.3 31.75 18.35 31.7 18.35 31.7 18.4 31.65 18.45 31.65 18.45 31.6 18.5 31.6 18.5 31.6 18.55 31.55 18.55 31.55 18.6 31.55 18.65 31.6 18.65 31.65 18.7 31.7 18.75 31.75 18.75 31.85 18.8 31.95 18.8 32.1 18.85 32.25 18.85 32.4 18.85 32.55 18.9 32.75 18.9 32.95 18.9 33.2 18.9 33.4 18.9 33.65 18.9 33.9 18.9 34.15 18.9 34.35 18.9 34.55 18.9 34.75 18.9 34.95 18.9 35.1 18.85 35.25 18.85 35.4 18.85 35.5 18.8 35.6 18.8 35.65 18.75 35.75 18.75 35.75 18.7 35.8 18.7 35.8 18.65 35.8 18.65 35.8 18.6 35.8 18.6 35.8 18.55 35.8 18.5 35.8 18.5 35.75 18.45 35.7 18.4 35.6 18.3 35.15 18.1 35.1 18.1 35.05 18.05 35.0 18.05 34.95 18.05 34.9 18.0 34.9 18.0 34.85 17.95 34.8 17.9 34.75 17.9 34.75 17.85 34.7 17.85 34.7 17.8 34.65 17.75 34.65 17.75 34.6 17.7 34.6 17.65 34.6 17.6 34.55 17.55 34.55 17.5 34.5 17.4 34.5 17.35 34.5 17.25 34.5 17.2 34.45 17.1 34.45 17.0 34.45 16.85 34.45 16.75 34.45 16.6 34.45 16.5 34.45 16.35 34.45 16.2 34.45 16.05 34.45 15.9 34.45 15.7 34.45 15.55 34.45 15.4 34.5 15.25 34.5 15.1 34.5 14.95 34.55 14.8 34.6 14.7 34.6 14.55 34.65 14.4 34.7 14.25 34.75 14.15 34.8 14.0 34.85 13.9 34.9 13.75 34.95 13.65 35.0 13.55 35.1 13.45 35.15 13.35 35.25 13.25 35.3 13.2 35.35 13.1 35.45 13.05 35.55 13.0 35.6 12.95 35.7 12.9 35.8 12.85 35.9 12.85 35.95 12.8 36.05 12.8 36.15 12.8 36.2 12.8 36.3 12.8 36.35 12.8 36.4 12.85 36.45 12.85 36.5 12.85 36.55 12.9 36.55 12.9 36.6 12.95 36.65 12.95 36.7 13.0 36.7 13.05 36.75 13.1 36.75 13.1 36.8 13.15 36.8 13.2 36.8 13.25 36.85 13.3 36.85 13.35 36.9 13.4 36.9 13.45 36.95 13.45 36.95 13.5 37.0 13.5 37.05 13.55 37.1 13.55 37.1 13.6 37.15 13.6 37.2 13.6 37.3 13.65 37.35 13.65 37.4 13.65 37.45 13.65 37.5 13.65 37.55 13.6 37.55 13.6 37.6 13.55 37.6 13.55 37.65 13.5 37.65 13.45 37.65 13.45 37.7 13.4 37.7 13.35 37.7 13.3 37.7 13.25 37.7 13.2 37.7 13.15 37.75 13.1 37.75 13.05 37.75 12.95 37.75 12.9 37.75 12.8 37.75 12.75 37.75 12.65 37.75 12.55 37.75 12.45 37.75 12.3 37.75 12.15 37.7 12.0 37.7 11.9 37.65 11.8 37.65 11.7 37.6 11.6 37.55 11.5 37.5 11.4 37.45 11.35 37.35 11.3 37.3 11.25 37.2 11.25 37.15 11.2 37.05 11.2 36.95 11.2 L36.95 11.2" fill="#ffffff" fill-rule="evenodd" stroke="none"/>
  </g>
</svg>
