<?xml version="1.0" encoding="UTF-8" standalone="no"?>
<svg xmlns:ffdec="https://www.free-decompiler.com/flash" xmlns:xlink="http://www.w3.org/1999/xlink" ffdec:objectType="shape" height="26.0px" width="41.75px" xmlns="http://www.w3.org/2000/svg">
  <g transform="matrix(1.0, 0.0, 0.0, 1.0, 0.0, 0.0)">
    <path d="M39.25 4.65 Q39.2 4.65 39.15 4.65 39.1 4.65 39.0 4.7 38.95 4.75 38.85 4.8 38.75 4.8 38.6 4.9 38.5 4.95 38.3 5.0 38.15 5.1 38.0 5.2 37.8 5.25 37.6 5.35 37.45 5.5 37.2 5.6 37.0 5.75 36.8 5.85 36.6 5.95 36.45 6.05 36.3 6.15 36.15 6.25 36.0 6.35 35.9 6.45 35.8 6.55 35.7 6.65 35.65 6.7 35.6 6.8 35.55 6.85 35.5 6.95 35.5 7.0 35.5 7.05 35.5 7.1 35.5 7.15 35.5 7.2 35.5 7.25 35.5 7.3 35.55 7.3 35.55 7.35 35.55 7.35 35.6 7.4 35.6 7.4 35.6 7.4 35.65 7.4 35.65 7.45 35.7 7.45 35.7 7.45 35.75 7.45 35.75 7.45 35.8 7.45 35.8 7.5 35.85 7.5 35.9 7.5 35.9 7.5 35.95 7.5 36.0 7.5 36.05 7.5 36.1 7.5 L36.65 7.5 36.65 19.0 35.95 19.4 Q35.85 19.45 35.8 19.5 35.7 19.55 35.65 19.55 35.6 19.6 35.5 19.65 35.45 19.7 35.45 19.7 35.4 19.75 35.35 19.8 35.3 19.8 35.3 19.85 35.3 19.9 35.25 19.9 35.25 19.95 35.25 19.95 35.25 20.0 35.3 20.05 35.3 20.1 35.4 20.15 35.45 20.15 35.55 20.2 35.6 20.25 35.75 20.25 35.85 20.3 36.0 20.3 36.15 20.3 36.35 20.35 36.55 20.35 36.75 20.35 36.95 20.35 37.2 20.35 39.1 20.35 39.55 20.3 39.6 20.3 39.65 20.25 39.7 20.25 39.75 20.25 39.8 20.2 39.8 20.2 39.85 20.15 39.9 20.15 39.9 20.1 39.95 20.05 39.95 20.0 39.95 20.0 39.95 19.95 40.0 19.9 40.0 19.85 40.0 19.8 40.0 19.75 40.0 19.75 40.0 19.7 39.95 19.7 39.95 19.65 39.95 19.65 39.9 19.6 39.9 19.6 39.9 19.55 39.85 19.55 39.85 19.55 39.8 19.55 39.75 19.5 39.75 19.5 39.7 19.5 39.65 19.5 39.6 19.5 39.55 19.5 39.55 19.5 39.5 19.5 39.45 19.5 39.4 19.45 39.35 19.45 39.35 19.45 39.3 19.4 39.25 19.4 39.2 19.35 39.2 19.35 39.15 19.3 39.1 19.3 39.05 19.25 39.05 19.2 39.0 19.15 38.95 19.1 38.95 19.05 38.9 19.0 38.9 18.95 38.85 18.85 38.8 18.75 38.8 18.7 38.75 18.6 38.75 18.5 38.75 18.4 38.7 18.25 38.7 18.15 38.7 18.0 38.7 17.9 38.65 17.75 38.6 16.4 38.6 12.5 38.6 8.45 38.65 7.4 38.65 7.3 38.7 7.15 38.7 7.05 38.7 6.95 38.75 6.85 38.75 6.75 38.8 6.65 38.8 6.55 38.85 6.45 38.9 6.4 38.9 6.3 38.95 6.25 39.0 6.15 39.05 6.1 39.05 6.05 39.1 6.0 39.15 5.95 39.2 5.9 39.25 5.8 39.3 5.75 39.3 5.7 39.35 5.65 39.4 5.6 39.4 5.55 39.45 5.45 39.45 5.4 39.5 5.35 39.5 5.3 39.5 5.25 39.55 5.2 39.55 5.15 39.55 5.05 39.55 5.0 39.55 4.95 39.55 4.9 39.55 4.85 39.55 4.85 39.55 4.8 39.55 4.75 39.5 4.75 39.5 4.7 39.45 4.7 39.45 4.7 39.4 4.65 39.4 4.65 39.35 4.65 39.3 4.65 39.25 4.65 L39.25 4.65 M20.45 5.4 Q20.4 5.4 20.35 5.4 20.25 5.4 20.25 5.4 20.2 5.45 20.15 5.45 20.15 5.45 20.15 5.5 20.15 5.5 20.1 5.6 20.1 5.65 20.1 5.75 20.1 5.85 20.1 6.0 20.1 6.5 20.1 6.7 20.1 6.7 20.05 6.65 20.05 6.65 20.0 6.6 20.0 6.6 19.95 6.6 19.9 6.55 19.9 6.55 19.85 6.5 19.8 6.5 19.75 6.5 19.7 6.45 19.65 6.45 19.6 6.4 19.55 6.4 19.5 6.35 19.45 6.35 19.35 6.3 19.3 6.3 19.2 6.3 19.1 6.25 19.0 6.25 18.95 6.25 18.8 6.2 18.7 6.2 18.6 6.2 18.45 6.2 18.35 6.2 18.2 6.2 18.05 6.15 17.95 6.15 17.8 6.15 17.75 6.15 17.15 6.15 17.05 6.15 17.0 6.15 16.9 6.15 16.8 6.15 16.75 6.15 16.65 6.2 16.55 6.2 16.5 6.2 16.4 6.2 16.3 6.25 16.2 6.25 16.1 6.25 16.05 6.3 15.95 6.3 15.85 6.35 15.75 6.35 15.65 6.4 15.55 6.45 15.45 6.5 15.3 6.55 15.2 6.6 15.1 6.65 15.0 6.75 14.85 6.85 14.75 6.9 14.6 7.0 14.45 7.1 14.35 7.25 14.2 7.35 14.05 7.5 13.9 7.6 13.75 7.75 13.6 7.9 13.45 8.05 13.35 8.2 13.2 8.35 13.1 8.5 12.95 8.65 12.85 8.8 12.75 8.9 12.65 9.05 12.55 9.2 12.45 9.35 12.35 9.5 12.25 9.65 12.15 9.85 12.1 10.0 12.0 10.15 11.95 10.3 11.9 10.45 11.85 10.6 11.8 10.8 11.75 10.95 11.7 11.15 11.65 11.35 11.6 11.55 11.6 11.75 11.55 11.95 11.55 12.15 11.5 12.4 11.5 12.6 11.5 12.85 11.5 13.1 11.5 13.3 11.5 13.55 11.5 13.8 11.5 14.05 11.55 14.25 11.55 14.5 11.55 14.7 11.6 14.9 11.65 15.1 11.65 15.3 11.7 15.5 11.75 15.7 11.8 15.9 11.85 16.05 11.95 16.25 12.0 16.4 12.05 16.55 12.15 16.8 12.3 17.0 12.4 17.25 12.55 17.45 12.65 17.65 12.8 17.85 12.95 18.05 13.1 18.25 13.2 18.4 13.4 18.6 13.55 18.75 13.7 18.9 13.85 19.05 14.05 19.2 14.25 19.35 14.4 19.45 14.6 19.6 14.75 19.7 14.95 19.8 15.15 19.9 15.35 20.0 15.55 20.1 15.75 20.2 15.95 20.25 16.2 20.3 16.4 20.35 16.6 20.4 16.85 20.45 17.05 20.5 17.3 20.5 17.5 20.5 17.75 20.5 17.9 20.5 18.05 20.5 18.15 20.5 18.3 20.5 18.45 20.5 18.6 20.45 18.75 20.45 18.9 20.4 19.05 20.4 19.2 20.35 19.35 20.3 19.5 20.25 19.65 20.25 19.8 20.2 19.95 20.15 20.1 20.05 20.25 20.0 20.4 19.95 20.55 19.9 20.65 19.8 20.8 19.75 20.9 19.7 21.05 19.65 21.15 19.6 21.3 19.5 21.4 19.45 21.5 19.4 21.6 19.3 21.7 19.25 21.8 19.2 21.85 19.1 21.95 19.05 22.05 18.95 22.1 18.9 22.2 18.8 22.25 18.75 22.3 18.7 22.35 18.6 22.4 18.55 22.45 18.45 22.5 18.4 22.55 18.35 22.55 18.3 22.6 18.2 22.6 18.15 22.6 18.1 22.65 18.05 22.65 18.0 22.6 17.8 22.6 17.7 22.55 17.65 22.55 17.6 22.5 17.6 22.5 17.55 22.45 17.55 22.4 17.5 22.4 17.5 22.35 17.5 22.3 17.5 22.25 17.5 22.2 17.5 22.15 17.55 22.1 17.55 22.05 17.55 22.0 17.6 21.95 17.6 21.9 17.65 21.85 17.65 21.8 17.7 21.75 17.7 21.7 17.75 21.65 17.75 21.6 17.8 21.55 17.85 21.35 18.0 21.2 18.1 21.0 18.25 20.85 18.35 20.65 18.45 20.5 18.55 20.3 18.65 20.1 18.7 19.95 18.8 19.75 18.85 19.6 18.9 19.45 18.95 19.25 18.95 19.1 19.0 18.9 19.0 18.75 19.0 18.55 19.0 18.4 19.0 18.2 18.95 18.0 18.9 17.8 18.85 17.65 18.8 17.45 18.7 17.25 18.6 17.05 18.5 16.9 18.4 16.7 18.3 16.5 18.15 16.35 18.0 16.15 17.8 15.95 17.65 15.75 17.45 15.5 17.2 15.3 16.95 15.1 16.7 14.9 16.45 14.75 16.15 14.6 15.85 14.45 15.55 14.35 15.25 14.2 14.95 14.15 14.6 14.05 14.3 14.0 13.95 13.9 13.55 13.9 13.2 13.85 12.85 13.85 12.45 13.85 12.1 13.9 11.8 13.9 11.5 13.95 11.2 14.0 10.9 14.1 10.6 14.15 10.35 14.25 10.1 14.35 9.8 14.45 9.6 14.6 9.35 14.75 9.1 14.85 8.9 15.05 8.7 15.2 8.5 15.4 8.3 15.5 8.2 15.65 8.1 15.8 8.0 15.9 7.9 16.05 7.8 16.2 7.75 16.3 7.65 16.45 7.6 16.6 7.55 16.75 7.5 16.9 7.45 17.05 7.45 17.2 7.4 17.35 7.4 17.5 7.35 17.65 7.35 17.75 7.35 17.8 7.35 17.9 7.35 18.0 7.4 18.05 7.4 18.15 7.4 18.25 7.4 18.3 7.45 18.4 7.45 18.5 7.45 18.6 7.5 18.65 7.5 18.75 7.55 18.85 7.55 18.9 7.6 19.0 7.6 19.1 7.65 19.2 7.7 19.3 7.75 19.4 7.85 19.5 7.9 19.65 8.05 19.75 8.15 19.9 8.3 20.05 8.4 20.2 8.55 20.35 8.75 20.55 8.9 20.7 9.1 20.9 9.3 21.1 9.55 21.3 9.75 21.35 9.8 21.4 9.9 21.45 9.95 21.5 10.0 21.55 10.05 21.6 10.05 21.65 10.1 21.65 10.15 21.7 10.2 21.75 10.2 21.8 10.25 21.85 10.25 21.9 10.25 21.95 10.25 21.95 10.3 22.0 10.3 22.05 10.3 22.1 10.3 22.1 10.3 22.15 10.25 22.2 10.25 22.2 10.25 22.25 10.2 22.25 10.2 22.25 10.15 22.3 10.15 22.3 10.1 22.3 10.05 22.35 10.0 22.35 9.95 22.35 9.9 22.35 9.85 22.25 9.25 21.7 7.7 21.25 6.35 21.0 5.85 20.95 5.8 20.95 5.75 20.9 5.7 20.9 5.65 20.85 5.6 20.8 5.6 20.8 5.55 20.75 5.5 20.7 5.5 20.7 5.45 20.65 5.45 20.6 5.45 20.6 5.4 20.55 5.4 20.5 5.4 20.45 5.4 L20.45 5.4 M4.2 6.55 Q2.85 6.55 2.45 6.65 2.4 6.65 2.3 6.65 2.25 6.65 2.2 6.7 2.15 6.7 2.1 6.7 2.05 6.7 2.0 6.75 2.0 6.75 1.95 6.75 1.9 6.8 1.9 6.8 1.85 6.85 1.85 6.85 1.85 6.9 1.85 6.9 1.85 6.95 1.8 7.0 1.8 7.05 1.8 7.05 1.8 7.1 1.75 7.15 1.75 7.2 1.75 7.2 1.75 7.25 1.75 7.25 1.75 7.3 1.75 7.3 1.8 7.35 1.8 7.35 1.8 7.4 1.85 7.4 1.85 7.45 1.9 7.45 1.95 7.45 2.0 7.5 2.5 7.7 2.7 7.85 L3.3 8.15 3.3 18.9 2.5 19.25 Q2.4 19.3 2.35 19.35 2.25 19.35 2.2 19.4 2.1 19.45 2.05 19.5 2.0 19.55 1.95 19.55 1.9 19.6 1.9 19.65 1.85 19.7 1.85 19.75 1.8 19.75 1.8 19.8 1.8 19.85 1.8 19.9 1.8 19.95 1.8 19.95 1.8 20.0 1.85 20.05 1.85 20.05 1.85 20.1 1.9 20.1 1.95 20.15 1.95 20.15 2.0 20.2 2.05 20.2 2.1 20.25 2.15 20.25 2.2 20.25 2.25 20.3 2.35 20.3 2.9 20.4 5.35 20.45 7.5 20.45 8.6 20.55 8.7 20.55 8.75 20.55 8.85 20.6 8.9 20.6 8.95 20.6 9.05 20.6 9.1 20.65 9.15 20.65 9.2 20.65 9.2 20.7 9.25 20.7 9.25 20.75 9.3 20.75 9.3 20.8 9.3 20.8 9.3 20.85 9.3 20.9 9.3 20.95 9.35 21.0 9.35 21.05 9.35 21.1 9.4 21.15 9.4 21.2 9.45 21.2 9.5 21.25 9.5 21.3 9.55 21.3 9.6 21.3 9.65 21.35 9.7 21.35 9.75 21.35 9.85 21.35 9.85 21.35 9.9 21.35 9.9 21.35 9.9 21.35 9.95 21.35 9.95 21.35 10.0 21.3 10.0 21.3 10.05 21.3 10.05 21.3 10.1 21.25 10.1 21.25 10.15 21.2 10.15 21.2 10.2 21.15 10.2 21.15 10.25 21.15 10.3 21.1 10.3 21.05 10.35 20.95 10.4 20.9 10.45 20.75 10.5 20.65 10.55 20.55 10.6 20.4 10.65 20.25 10.7 20.1 10.8 19.9 10.85 19.75 10.9 19.55 11.0 19.35 11.05 19.1 11.65 17.25 11.65 16.95 11.6 16.65 11.6 16.65 11.6 16.6 11.55 16.55 11.55 16.55 11.5 16.5 11.5 16.5 11.45 16.45 11.4 16.45 11.4 16.4 11.35 16.4 11.3 16.4 11.3 16.4 11.25 16.4 11.2 16.4 11.2 16.4 11.15 16.45 11.1 16.45 11.05 16.45 11.0 16.45 11.0 16.5 10.95 16.5 10.9 16.55 10.85 16.55 10.85 16.6 10.8 16.65 10.75 16.65 10.7 16.7 10.65 16.75 10.65 16.8 10.6 16.85 10.55 16.9 10.5 17.0 10.45 17.05 10.3 17.3 10.1 17.55 9.9 17.8 9.75 18.0 9.55 18.2 9.35 18.4 9.15 18.55 8.9 18.7 8.7 18.85 8.45 18.95 8.25 19.05 8.0 19.1 7.75 19.2 7.5 19.2 7.25 19.25 6.95 19.25 6.9 19.25 6.85 19.25 6.8 19.25 6.8 19.25 6.75 19.25 6.7 19.2 6.65 19.2 6.6 19.2 6.55 19.2 6.55 19.2 6.5 19.2 6.5 19.15 6.45 19.15 6.45 19.15 6.4 19.1 6.4 19.1 6.35 19.05 6.3 19.0 6.25 19.0 6.25 18.95 6.2 18.9 6.15 18.85 6.1 18.8 6.05 18.75 6.05 18.7 6.0 18.65 5.95 18.6 5.9 18.55 5.85 18.45 5.8 18.4 5.8 18.35 5.75 18.3 5.7 18.2 5.7 18.15 5.65 18.1 5.65 18.05 5.6 17.95 5.6 17.9 5.6 17.8 5.55 17.75 5.55 17.65 5.55 17.6 5.55 17.5 5.55 17.45 5.55 17.35 5.55 17.25 5.55 17.15 5.55 17.05 5.5 16.95 5.5 16.85 5.5 16.75 5.5 16.6 5.5 16.5 5.5 16.35 5.5 16.25 5.5 16.1 5.5 15.95 5.5 15.8 5.5 13.5 5.55 13.05 L5.6 8.1 6.4 7.8 Q6.5 7.75 6.6 7.7 6.65 7.65 6.75 7.6 6.8 7.55 6.85 7.5 6.9 7.45 6.95 7.4 7.0 7.35 7.05 7.3 7.1 7.25 7.1 7.2 7.15 7.15 7.15 7.1 7.15 7.05 7.15 7.0 7.15 6.95 7.15 6.95 7.15 6.9 7.15 6.85 7.1 6.85 7.1 6.8 7.1 6.8 7.05 6.75 7.0 6.75 7.0 6.7 6.95 6.7 6.9 6.7 6.85 6.65 6.8 6.65 6.75 6.65 6.7 6.65 6.3 6.55 4.6 6.55 4.5 6.55 4.2 6.55 L4.2 6.55 M25.1 9.3 Q25.05 9.3 25.05 9.3 25.0 9.3 24.95 9.35 24.9 9.35 24.85 9.4 24.8 9.4 24.75 9.45 24.7 9.5 24.65 9.55 24.6 9.6 24.55 9.65 24.5 9.75 24.45 9.8 24.4 9.9 24.35 9.95 24.3 10.05 24.25 10.1 24.15 10.2 24.1 10.3 24.0 10.35 23.95 10.45 23.85 10.55 23.75 10.6 23.65 10.7 23.55 10.75 23.5 10.85 23.35 10.95 23.25 11.0 23.15 11.1 23.05 11.2 22.9 11.25 22.8 11.3 22.7 11.4 22.6 11.45 22.5 11.5 22.45 11.6 22.35 11.65 22.3 11.7 22.25 11.75 22.2 11.8 22.15 11.85 22.1 11.95 22.1 12.0 22.05 12.05 22.05 12.1 22.05 12.15 22.05 12.15 22.05 12.2 22.05 12.25 22.05 12.3 22.1 12.3 22.1 12.35 22.15 12.4 22.15 12.45 22.2 12.45 22.25 12.5 22.3 12.55 22.35 12.55 22.45 12.6 22.5 12.65 22.6 12.65 22.7 12.7 22.75 12.7 L23.55 12.95 23.7 19.0 22.95 19.4 Q22.85 19.45 22.8 19.5 22.7 19.55 22.65 19.55 22.6 19.6 22.55 19.65 22.5 19.7 22.45 19.7 22.4 19.75 22.35 19.8 22.35 19.8 22.3 19.85 22.3 19.9 22.3 19.9 22.25 19.95 22.25 19.95 22.25 20.0 22.3 20.05 22.35 20.1 22.4 20.15 22.5 20.15 22.6 20.2 22.75 20.25 22.9 20.25 23.05 20.3 23.25 20.3 23.45 20.3 23.65 20.35 23.9 20.35 24.2 20.35 24.45 20.35 24.75 20.35 25.05 20.35 25.35 20.35 25.6 20.35 25.85 20.35 26.1 20.3 26.3 20.3 26.45 20.3 26.65 20.25 26.8 20.2 26.9 20.2 27.0 20.15 27.1 20.1 27.2 20.1 27.2 20.05 27.25 20.0 27.25 19.95 27.25 19.95 27.25 19.9 27.25 19.9 27.2 19.85 27.2 19.8 27.15 19.8 27.15 19.75 27.1 19.75 27.05 19.7 27.0 19.65 26.95 19.65 26.9 19.6 26.8 19.55 26.75 19.55 26.65 19.5 26.6 19.45 26.5 19.4 26.45 19.4 26.35 19.35 26.3 19.3 26.2 19.25 26.15 19.25 26.1 19.2 26.05 19.15 26.0 19.15 25.95 19.1 25.9 19.05 25.85 19.05 25.85 19.0 25.8 19.0 25.75 18.95 25.75 18.9 25.75 18.85 25.7 18.8 25.7 18.75 25.65 18.6 25.65 18.5 25.65 18.35 25.65 18.2 25.6 18.0 25.6 17.8 25.6 17.55 25.6 17.3 25.6 17.05 25.6 16.75 25.6 16.4 25.6 16.1 25.6 15.7 L25.6 12.8 26.65 12.8 Q26.75 12.8 26.85 12.8 26.9 12.8 27.0 12.8 27.05 12.8 27.15 12.8 27.2 12.8 27.25 12.8 27.3 12.75 27.35 12.75 27.4 12.75 27.45 12.75 27.5 12.75 27.5 12.7 27.55 12.7 27.55 12.7 27.6 12.7 27.6 12.65 27.6 12.65 27.65 12.65 27.65 12.6 27.65 12.6 27.7 12.55 27.7 12.5 27.7 12.5 27.7 12.45 27.7 12.4 27.75 12.4 27.75 12.35 27.75 12.3 27.75 12.25 27.75 12.2 27.75 12.15 27.75 12.1 27.75 12.05 27.75 12.0 27.75 12.0 27.7 11.95 27.7 11.9 27.7 11.85 27.7 11.85 27.7 11.8 27.65 11.8 27.65 11.75 27.65 11.75 27.6 11.7 27.6 11.7 27.55 11.7 27.55 11.7 27.5 11.65 27.5 11.65 27.45 11.65 27.4 11.65 27.35 11.65 27.3 11.6 27.25 11.6 27.2 11.6 27.15 11.6 27.1 11.6 27.0 11.6 26.95 11.6 26.85 11.6 26.75 11.6 26.7 11.6 L25.6 11.6 25.55 10.45 Q25.55 10.3 25.5 10.2 25.5 10.05 25.45 9.95 25.45 9.85 25.4 9.75 25.4 9.65 25.35 9.6 25.35 9.5 25.3 9.45 25.25 9.4 25.25 9.35 25.2 9.35 25.15 9.3 25.1 9.3 25.1 9.3 L25.1 9.3 M31.45 11.15 Q31.4 11.15 31.35 11.15 31.35 11.2 31.3 11.2 31.25 11.25 31.25 11.25 31.25 11.25 31.2 11.3 31.15 11.3 31.15 11.35 31.1 11.35 31.0 11.35 30.95 11.4 30.9 11.4 30.8 11.4 30.7 11.45 30.6 11.45 30.5 11.5 30.4 11.5 30.25 11.5 30.1 11.55 29.95 11.55 29.8 11.6 29.7 11.6 29.55 11.65 29.45 11.65 29.35 11.7 29.25 11.7 29.15 11.75 29.1 11.8 29.0 11.8 28.95 11.85 28.9 11.9 28.85 11.95 28.85 11.95 28.8 12.0 28.8 12.05 28.8 12.1 28.8 12.15 28.8 12.15 28.8 12.2 28.8 12.2 28.85 12.25 28.85 12.3 28.9 12.3 28.9 12.35 28.95 12.35 28.95 12.4 29.0 12.4 29.05 12.45 29.1 12.45 29.15 12.5 29.15 12.55 29.25 12.55 29.3 12.6 29.35 12.6 29.4 12.65 29.45 12.65 29.5 12.7 29.55 12.75 29.55 12.75 29.6 12.8 29.65 12.8 29.65 12.85 29.7 12.85 29.7 12.9 29.75 12.9 29.75 12.95 29.75 12.95 29.8 13.0 29.85 13.05 29.85 13.1 29.85 13.2 29.9 13.25 29.9 13.35 29.95 13.45 30.0 14.05 30.05 15.95 L30.1 19.0 29.35 19.4 Q29.25 19.45 29.2 19.5 29.15 19.55 29.05 19.55 29.0 19.6 28.95 19.65 28.9 19.7 28.85 19.7 28.8 19.75 28.8 19.8 28.75 19.8 28.75 19.85 28.7 19.9 28.7 19.9 28.7 19.95 28.7 19.95 28.7 20.0 28.75 20.05 28.8 20.1 28.85 20.15 28.95 20.15 29.05 20.2 29.15 20.25 29.3 20.25 29.45 20.3 29.65 20.3 29.85 20.3 30.05 20.35 30.3 20.35 30.55 20.35 30.8 20.35 31.1 20.35 31.4 20.35 31.65 20.35 31.95 20.35 32.2 20.35 32.4 20.35 32.6 20.3 32.8 20.3 32.95 20.3 33.1 20.25 33.25 20.25 33.35 20.2 33.45 20.2 33.5 20.15 33.55 20.15 33.6 20.1 33.6 20.05 33.6 20.05 33.6 20.0 33.6 20.0 33.6 19.95 33.6 19.95 33.6 19.9 33.6 19.9 33.55 19.85 33.55 19.8 33.5 19.8 33.5 19.75 33.45 19.75 33.4 19.75 33.4 19.7 33.35 19.7 33.3 19.65 33.3 19.65 33.25 19.6 33.2 19.6 33.15 19.55 33.1 19.55 33.05 19.5 33.0 19.5 32.95 19.45 32.95 19.45 32.85 19.4 32.8 19.4 32.75 19.35 32.7 19.35 32.65 19.3 32.6 19.3 32.55 19.25 32.5 19.25 32.45 19.2 32.4 19.15 32.35 19.15 32.35 19.1 32.3 19.05 32.25 19.0 32.25 19.0 32.2 18.95 32.2 18.9 32.15 18.85 32.15 18.8 32.15 18.7 32.1 18.65 32.1 18.55 32.1 18.45 32.05 18.35 32.05 18.25 32.05 18.1 32.05 17.95 32.05 17.85 32.0 17.7 32.0 17.55 32.0 17.35 32.0 17.2 32.0 17.0 32.0 16.8 32.0 16.65 32.0 16.45 32.05 16.3 32.05 16.1 32.1 15.95 32.1 15.75 32.15 15.6 32.2 15.45 32.2 15.3 32.25 15.15 32.3 14.95 32.35 14.8 32.4 14.65 32.5 14.5 32.55 14.4 32.6 14.25 32.7 14.15 32.75 14.0 32.85 13.9 32.95 13.8 33.0 13.7 33.1 13.65 33.2 13.55 33.3 13.5 33.4 13.45 33.5 13.4 33.6 13.35 33.7 13.3 33.8 13.3 33.9 13.25 34.05 13.25 34.1 13.25 34.2 13.25 34.25 13.3 34.3 13.3 34.35 13.3 34.4 13.35 34.45 13.35 34.5 13.4 34.55 13.45 34.6 13.45 34.65 13.5 34.65 13.55 34.7 13.6 34.7 13.65 34.75 13.7 34.75 13.75 34.75 13.8 34.8 13.85 34.8 13.9 34.85 13.95 34.85 14.0 34.9 14.05 34.95 14.1 35.0 14.1 35.05 14.15 35.1 14.15 35.15 14.2 35.2 14.2 35.25 14.2 35.3 14.25 35.35 14.25 35.45 14.25 35.5 14.25 35.55 14.25 35.6 14.2 35.6 14.2 35.65 14.2 35.65 14.15 35.7 14.15 35.7 14.1 35.75 14.05 35.75 14.0 35.75 14.0 35.8 13.95 35.8 13.9 35.8 13.85 35.8 13.8 35.8 13.75 35.8 13.7 35.85 13.6 35.85 13.55 35.85 13.45 35.85 13.4 35.85 13.3 35.85 13.2 35.85 13.05 35.85 12.95 35.85 12.85 35.85 12.65 35.85 12.5 35.8 12.35 35.8 12.2 35.75 12.1 35.7 11.95 35.7 11.85 35.6 11.75 35.55 11.65 35.5 11.6 35.4 11.55 35.3 11.5 35.25 11.45 35.15 11.45 35.05 11.4 34.9 11.4 34.75 11.4 34.65 11.45 34.5 11.45 34.4 11.5 34.25 11.5 34.15 11.55 34.0 11.6 33.85 11.7 33.75 11.75 33.6 11.85 33.5 11.95 33.35 12.0 33.2 12.1 33.1 12.25 32.95 12.35 32.85 12.5 L32.0 13.3 32.05 12.25 32.05 11.9 Q32.05 11.8 32.05 11.75 32.05 11.7 32.05 11.6 32.05 11.55 32.0 11.5 32.0 11.45 32.0 11.4 31.95 11.35 31.95 11.35 31.95 11.3 31.9 11.25 31.9 11.25 31.85 11.25 31.85 11.2 31.8 11.2 31.75 11.2 31.6 11.2 31.5 11.15 31.45 11.15 L31.45 11.15" fill="#ffffff" fill-rule="evenodd" stroke="none"/>
  </g>
</svg>
