<?xml version="1.0" encoding="UTF-8" standalone="no"?>
<svg xmlns:ffdec="https://www.free-decompiler.com/flash" xmlns:xlink="http://www.w3.org/1999/xlink" ffdec:objectType="shape" height="26.0px" width="26.0px" xmlns="http://www.w3.org/2000/svg">
  <g transform="matrix(1.0, 0.0, 0.0, 1.0, 0.0, 0.0)">
    <path d="M10.35 7.5 Q10.35 7.55 10.4 7.6 10.45 7.6 10.45 7.65 10.5 7.7 10.5 7.7 10.55 7.75 10.6 7.75 10.65 7.8 10.65 7.8 10.7 7.85 10.75 7.85 10.8 7.9 10.85 7.9 10.9 7.9 10.95 7.95 11.4 8.1 11.4 8.1 11.4 8.1 11.4 8.1 11.45 8.1 11.45 8.1 11.45 8.1 11.45 8.15 11.45 8.15 11.5 8.15 11.5 8.2 11.5 8.2 11.5 8.2 11.55 8.25 11.55 8.25 11.55 8.3 11.55 8.35 11.6 8.35 11.6 8.4 11.6 8.4 11.65 8.45 11.65 8.5 11.65 8.5 11.65 8.55 11.65 8.6 11.65 8.65 11.65 8.7 11.65 8.75 11.65 8.8 11.65 8.85 11.65 8.9 11.65 8.95 11.65 9.05 11.65 9.1 11.65 9.45 11.0 11.3 L9.55 15.1 Q8.35 18.25 8.1 18.55 8.05 18.6 8.0 18.65 7.95 18.7 7.95 18.7 7.9 18.75 7.85 18.8 7.8 18.8 7.7 18.85 7.65 18.9 7.6 18.9 7.55 18.95 7.5 18.95 7.4 19.0 7.35 19.0 7.25 19.05 7.2 19.05 7.15 19.05 7.05 19.1 7.0 19.1 6.95 19.15 6.9 19.15 6.85 19.2 6.8 19.25 6.75 19.25 6.7 19.3 6.7 19.35 6.65 19.35 6.65 19.4 6.65 19.45 6.65 19.45 6.6 19.5 6.6 19.55 6.6 19.6 6.6 19.65 6.6 19.7 6.65 19.7 6.65 19.75 6.65 19.8 6.7 19.8 6.7 19.85 6.75 19.85 6.8 19.9 6.8 19.9 6.85 19.95 6.9 19.95 6.95 19.95 7.0 20.0 7.05 20.0 7.55 20.05 8.9 20.05 10.35 20.05 10.8 20.0 10.85 20.0 10.9 19.95 10.95 19.95 11.0 19.95 11.05 19.95 11.1 19.9 11.1 19.9 11.15 19.9 11.15 19.85 11.2 19.85 11.2 19.8 11.2 19.8 11.25 19.75 11.25 19.75 11.25 19.7 11.25 19.7 11.25 19.65 11.25 19.6 11.25 19.55 11.2 19.5 11.2 19.5 11.15 19.45 11.15 19.4 11.1 19.35 11.05 19.3 11.0 19.25 10.95 19.25 10.9 19.2 10.8 19.15 10.75 19.1 10.7 19.05 10.6 19.0 10.5 18.95 10.45 18.95 10.4 18.9 10.3 18.85 10.25 18.8 10.2 18.8 10.15 18.75 10.1 18.7 10.05 18.65 10.05 18.6 10.0 18.55 10.0 18.5 9.95 18.45 9.95 18.4 9.95 18.35 9.95 18.3 9.95 18.25 9.95 18.2 9.95 18.15 9.95 18.1 10.0 18.0 10.0 17.95 10.0 17.9 10.05 17.8 10.05 17.75 10.05 17.65 10.1 17.6 10.1 17.5 10.15 17.45 10.2 17.35 10.2 17.25 10.25 17.2 L10.6 16.35 14.7 16.35 15.05 17.4 Q15.1 17.5 15.1 17.55 15.1 17.6 15.15 17.7 15.15 17.75 15.15 17.8 15.2 17.9 15.2 17.95 15.2 18.0 15.25 18.05 15.25 18.1 15.25 18.2 15.25 18.25 15.25 18.3 15.25 18.35 15.25 18.4 15.25 18.45 15.25 18.5 15.25 18.55 15.2 18.6 15.2 18.65 15.15 18.7 15.15 18.75 15.1 18.8 15.1 18.8 15.05 18.85 15.0 18.9 14.95 18.9 14.9 18.95 14.8 18.95 14.75 18.95 14.7 19.0 14.65 19.0 14.55 19.05 14.5 19.05 14.45 19.05 14.4 19.1 14.35 19.1 14.3 19.15 14.25 19.2 14.25 19.25 14.2 19.25 14.2 19.3 14.15 19.35 14.15 19.4 14.15 19.45 14.15 19.5 14.15 19.6 14.15 19.65 14.15 19.7 14.15 19.75 14.15 19.8 14.15 19.8 14.2 19.85 14.2 19.85 14.2 19.85 14.2 19.9 14.25 19.9 14.25 19.9 14.25 19.9 14.3 19.9 14.3 19.95 14.3 19.95 14.35 19.95 14.4 19.95 14.4 19.95 14.45 19.95 14.5 19.95 14.5 20.0 14.55 20.0 14.65 20.0 14.9 20.0 15.1 20.05 15.2 20.05 15.45 20.05 16.65 20.05 17.8 20.05 18.2 20.05 18.25 20.05 18.3 20.05 18.35 20.05 18.4 20.05 18.45 20.05 18.5 20.05 18.55 20.0 18.6 20.0 18.65 20.0 18.7 20.0 18.75 20.0 18.8 20.0 18.85 20.0 18.85 20.0 18.9 20.0 18.95 20.0 19.0 20.0 19.05 19.95 19.15 19.95 19.15 19.95 19.2 19.95 19.25 19.9 19.3 19.9 19.3 19.9 19.35 19.85 19.35 19.85 19.4 19.65 19.4 19.6 19.4 19.55 19.4 19.5 19.35 19.4 19.35 19.4 19.35 19.35 19.3 19.3 19.3 19.25 19.25 19.2 19.2 19.15 19.15 19.15 19.1 19.1 19.05 19.1 19.0 19.05 18.95 19.05 18.9 19.05 18.85 19.0 18.8 19.0 18.7 19.0 18.65 18.95 18.6 18.95 18.5 18.9 18.45 18.9 18.4 18.85 18.35 18.8 18.3 18.8 18.25 18.75 18.2 18.7 18.15 18.65 18.1 18.6 18.05 18.55 18.0 18.5 17.95 18.45 17.65 17.95 15.6 12.25 L14.25 8.65 Q13.95 7.75 13.65 6.95 13.35 6.25 13.4 6.3 13.4 6.25 13.35 6.2 13.35 6.2 13.3 6.15 13.25 6.1 13.25 6.1 13.2 6.05 13.2 6.05 13.15 6.0 13.1 6.0 13.05 6.0 13.05 5.95 13.0 5.95 12.95 5.95 12.9 5.95 12.85 5.95 12.8 5.95 12.75 5.95 12.7 5.95 12.6 5.95 12.55 6.0 12.5 6.0 12.4 6.05 12.35 6.05 12.25 6.1 12.2 6.1 12.1 6.15 12.0 6.2 11.9 6.25 11.8 6.3 11.7 6.35 11.6 6.4 10.65 6.95 10.55 7.1 10.5 7.15 10.5 7.15 10.45 7.2 10.4 7.25 10.4 7.25 10.4 7.3 10.35 7.3 10.35 7.35 10.35 7.35 10.35 7.4 10.35 7.45 10.35 7.45 10.35 7.5 10.35 7.5 10.35 7.55 10.4 7.55 L10.35 7.5 M12.6 14.9 L11.15 14.9 11.85 12.95 Q12.5 11.3 12.55 11.1 L12.6 10.85 12.8 11.2 13.2 12.2 Q13.25 12.3 13.3 12.5 13.4 12.7 13.4 12.8 L13.8 13.9 Q13.85 14.05 13.9 14.2 13.95 14.3 13.95 14.4 13.95 14.5 13.95 14.55 13.95 14.6 13.95 14.65 13.95 14.7 13.9 14.75 13.9 14.8 13.9 14.8 13.85 14.85 13.8 14.85 13.7 14.9 12.6 14.9 L12.6 14.9" fill="#ffffff" fill-rule="evenodd" stroke="none"/>
  </g>
</svg>
