<?xml version="1.0" encoding="UTF-8" standalone="no"?>
<svg xmlns:ffdec="https://www.free-decompiler.com/flash" xmlns:xlink="http://www.w3.org/1999/xlink" ffdec:objectType="shape" height="26.0px" width="26.0px" xmlns="http://www.w3.org/2000/svg">
  <g transform="matrix(1.0, 0.0, 0.0, 1.0, 0.0, 0.0)">
    <path d="M14.95 10.8 Q14.9 10.8 14.9 10.8 14.85 10.8 14.85 10.85 14.8 10.85 14.8 10.85 14.75 10.9 14.75 10.95 14.75 10.95 14.7 11.0 14.7 11.05 14.7 11.1 14.65 11.15 14.65 11.2 14.65 11.25 14.65 11.3 14.65 11.4 14.6 11.45 14.6 11.5 14.6 11.55 14.55 11.65 14.55 11.7 14.55 11.75 14.5 11.8 14.5 11.85 14.45 11.9 14.45 11.9 14.4 11.95 14.35 12.0 14.35 12.05 14.3 12.05 14.25 12.1 14.2 12.1 14.15 12.15 14.15 12.15 14.1 12.15 14.05 12.2 13.95 12.2 13.9 12.2 13.85 12.25 13.8 12.25 13.75 12.25 13.65 12.25 13.6 12.25 13.5 12.25 13.45 12.3 13.35 12.3 13.25 12.3 L12.35 12.3 12.35 7.7 13.4 7.7 Q13.65 7.7 13.9 7.75 14.15 7.75 14.35 7.8 14.55 7.85 14.75 7.9 14.95 7.95 15.1 8.05 15.3 8.1 15.45 8.25 15.6 8.35 15.7 8.45 15.85 8.55 15.95 8.7 16.05 8.85 16.15 9.0 16.2 9.05 16.2 9.15 16.25 9.2 16.3 9.25 16.35 9.3 16.35 9.35 16.4 9.4 16.45 9.45 16.5 9.5 16.55 9.55 16.6 9.6 16.65 9.6 16.65 9.65 16.7 9.7 16.75 9.7 16.8 9.75 16.85 9.75 16.9 9.8 16.95 9.8 17.0 9.8 17.05 9.8 17.1 9.8 17.1 9.8 17.15 9.8 17.2 9.8 17.25 9.8 17.25 9.75 17.3 9.75 17.3 9.7 17.35 9.7 17.35 9.65 17.4 9.6 17.4 9.6 17.4 9.6 17.4 9.55 17.4 9.55 17.4 9.55 17.4 9.5 17.4 9.5 17.45 9.45 17.45 9.45 17.45 9.4 17.45 9.4 17.45 9.35 17.45 9.3 17.45 9.3 17.45 9.25 17.45 9.2 17.45 8.8 16.85 7.3 16.75 7.1 16.7 6.9 16.6 6.75 16.55 6.6 16.5 6.45 16.4 6.3 16.35 6.15 16.3 6.05 16.25 5.95 16.2 5.9 16.15 5.8 16.05 5.75 16.0 5.7 15.95 5.65 15.95 5.6 15.9 5.6 15.8 5.6 15.75 5.6 15.7 5.6 15.7 5.6 15.65 5.6 15.6 5.6 15.6 5.6 15.55 5.65 15.55 5.65 15.5 5.65 15.5 5.7 15.45 5.7 15.45 5.75 15.45 5.8 15.4 5.8 15.4 5.85 15.4 5.9 15.4 5.9 15.4 5.95 15.35 6.0 15.35 6.05 15.3 6.05 15.3 6.1 15.25 6.15 15.25 6.15 15.25 6.2 15.2 6.2 15.2 6.25 15.15 6.25 15.15 6.25 15.1 6.3 15.1 6.3 15.05 6.3 15.0 6.35 14.95 6.35 14.95 6.35 14.9 6.4 14.85 6.4 14.8 6.4 14.75 6.4 14.7 6.4 14.65 6.4 14.6 6.45 14.55 6.45 14.5 6.45 14.45 6.45 14.35 6.45 14.3 6.45 14.2 6.45 14.15 6.45 13.25 6.55 11.55 6.55 9.6 6.6 9.1 6.7 9.05 6.7 9.0 6.75 8.9 6.75 8.85 6.75 8.8 6.75 8.8 6.8 8.75 6.8 8.7 6.85 8.65 6.85 8.65 6.9 8.6 6.9 8.6 6.95 8.6 7.0 8.55 7.0 8.55 7.05 8.55 7.1 8.55 7.15 8.55 7.2 8.6 7.2 8.6 7.25 8.6 7.3 8.65 7.35 8.7 7.35 8.75 7.4 8.8 7.45 8.85 7.5 8.9 7.5 8.95 7.55 9.05 7.6 9.1 7.65 9.2 7.7 9.3 7.7 L10.05 8.05 10.05 18.9 9.3 19.2 Q9.2 19.25 9.1 19.3 9.05 19.35 8.95 19.35 8.9 19.4 8.85 19.45 8.8 19.5 8.75 19.55 8.7 19.55 8.65 19.6 8.65 19.65 8.6 19.7 8.6 19.75 8.55 19.8 8.55 19.8 8.55 19.85 8.55 19.9 8.55 19.9 8.55 19.95 8.6 20.0 8.6 20.0 8.65 20.05 8.65 20.1 8.7 20.1 8.7 20.15 8.75 20.15 8.8 20.2 8.85 20.2 8.9 20.2 8.95 20.25 9.0 20.25 9.05 20.25 9.6 20.35 11.1 20.35 12.75 20.4 12.95 20.4 13.0 20.4 13.05 20.4 13.1 20.4 13.1 20.4 13.15 20.4 13.2 20.4 13.25 20.4 13.3 20.35 13.35 20.35 13.4 20.35 13.4 20.35 13.45 20.35 13.5 20.3 13.5 20.3 13.55 20.3 13.55 20.3 13.6 20.3 13.6 20.3 13.65 20.3 13.7 20.3 13.7 20.3 13.75 20.3 13.8 20.3 13.85 20.3 13.85 20.3 13.9 20.3 13.95 20.3 13.95 20.25 13.95 20.25 13.95 20.2 13.95 20.15 13.95 20.05 13.95 19.95 13.95 19.8 13.95 19.75 13.9 19.7 13.9 19.65 13.9 19.6 13.85 19.55 13.85 19.55 13.8 19.5 13.75 19.45 13.75 19.45 13.7 19.4 13.65 19.35 13.6 19.35 13.55 19.35 13.5 19.3 13.45 19.3 13.4 19.3 13.3 19.3 13.2 19.25 13.15 19.25 13.05 19.2 13.0 19.2 12.95 19.15 12.85 19.1 12.8 19.1 12.75 19.05 12.7 19.0 12.65 18.95 12.6 18.9 12.6 18.85 12.55 18.8 12.5 18.75 12.5 18.65 12.35 18.15 12.35 16.05 L12.35 13.4 13.6 13.55 Q13.7 13.55 13.75 13.55 13.85 13.55 13.95 13.6 14.0 13.6 14.1 13.6 14.15 13.6 14.25 13.65 14.3 13.65 14.35 13.65 14.45 13.7 14.5 13.7 14.55 13.7 14.6 13.75 14.65 13.75 14.7 13.75 14.75 13.8 14.8 13.8 14.85 13.85 14.9 13.9 14.95 13.95 15.0 13.95 15.05 14.0 15.1 14.05 15.15 14.1 15.2 14.15 15.25 14.25 15.3 14.3 15.4 14.35 15.45 14.45 15.5 14.5 15.55 14.6 15.6 14.65 15.7 14.75 15.75 14.8 15.8 14.85 15.85 14.9 15.9 14.95 15.95 15.0 16.0 15.05 16.05 15.05 16.1 15.1 16.15 15.15 16.2 15.15 16.25 15.15 16.3 15.15 16.3 15.2 16.35 15.2 16.4 15.2 16.4 15.2 16.45 15.15 16.5 15.15 16.5 15.15 16.55 15.1 16.55 15.1 16.55 15.05 16.6 15.0 16.6 14.95 16.6 14.9 16.65 14.85 16.65 14.8 16.65 14.75 16.65 14.65 16.65 14.6 16.65 14.5 16.65 14.45 16.65 14.35 16.6 14.25 16.6 14.1 16.55 14.0 16.55 13.85 16.5 13.75 16.45 13.6 16.45 13.45 16.4 13.3 16.35 13.1 16.3 12.95 16.2 12.75 16.15 12.6 16.1 12.4 16.05 12.2 15.95 12.0 15.9 11.85 15.8 11.7 15.75 11.55 15.7 11.4 15.6 11.3 15.55 11.2 15.45 11.1 15.4 11.0 15.35 10.95 15.25 10.9 15.2 10.85 15.1 10.8 15.05 10.8 14.95 10.8 L14.95 10.8" fill="#ffffff" fill-rule="evenodd" stroke="none"/>
  </g>
</svg>
