<?xml version="1.0" encoding="UTF-8" standalone="no"?>
<svg xmlns:ffdec="https://www.free-decompiler.com/flash" xmlns:xlink="http://www.w3.org/1999/xlink" ffdec:objectType="shape" height="26.0px" width="26.0px" xmlns="http://www.w3.org/2000/svg">
  <g transform="matrix(1.0, 0.0, 0.0, 1.0, 0.0, 0.0)">
    <path d="M9.55 19.9 Q9.85 19.9 10.15 19.9 10.45 19.9 10.7 19.9 10.95 19.85 11.15 19.85 11.35 19.85 11.5 19.8 11.65 19.8 11.8 19.75 11.9 19.75 12.0 19.7 12.05 19.7 12.1 19.65 12.15 19.6 12.15 19.55 12.15 19.5 12.15 19.45 12.15 19.4 12.1 19.35 12.1 19.3 12.05 19.25 12.0 19.2 11.95 19.2 11.9 19.15 11.85 19.1 11.8 19.05 11.75 19.0 11.7 18.95 11.6 18.9 11.5 18.85 11.45 18.8 L10.7 18.4 10.55 13.25 15.4 13.25 15.4 18.55 14.65 18.85 Q14.55 18.9 14.5 18.9 14.4 18.95 14.35 18.95 14.3 19.0 14.25 19.05 14.2 19.05 14.15 19.1 14.1 19.15 14.1 19.2 14.05 19.2 14.05 19.25 14.0 19.3 14.0 19.35 14.0 19.35 14.0 19.4 14.0 19.45 14.0 19.45 14.0 19.5 14.05 19.55 14.05 19.55 14.1 19.6 14.1 19.65 14.15 19.65 14.2 19.7 14.25 19.7 14.25 19.75 14.35 19.75 14.4 19.75 14.45 19.8 14.5 19.8 14.6 19.8 15.2 19.95 18.2 19.95 18.3 19.95 18.35 19.95 18.4 19.95 18.5 19.95 18.55 19.95 18.6 19.95 18.65 19.95 18.7 19.95 18.75 19.9 18.8 19.9 18.85 19.9 18.9 19.9 18.95 19.9 18.95 19.85 19.0 19.85 19.0 19.85 19.0 19.85 19.0 19.8 19.05 19.8 19.05 19.8 19.05 19.75 19.05 19.75 19.05 19.7 19.05 19.7 19.05 19.65 19.05 19.65 19.05 19.6 19.05 19.6 19.05 19.55 19.05 19.5 19.05 19.5 19.05 19.45 19.05 19.4 19.05 19.3 19.0 19.25 19.0 19.2 19.0 19.15 18.95 19.1 18.9 19.05 18.9 19.0 18.85 19.0 18.8 18.95 18.75 18.9 18.7 18.9 18.6 18.85 18.55 18.85 18.5 18.8 18.4 18.8 L17.8 18.65 17.7 13.05 17.65 7.5 18.4 7.25 Q18.5 7.2 18.55 7.2 18.65 7.15 18.7 7.1 18.75 7.05 18.85 7.0 18.9 7.0 18.95 6.95 18.95 6.9 19.0 6.85 19.05 6.8 19.05 6.75 19.1 6.7 19.1 6.65 19.1 6.6 19.1 6.5 19.1 6.45 19.1 6.4 19.1 6.35 19.05 6.35 19.05 6.3 19.05 6.3 19.0 6.25 19.0 6.25 19.0 6.25 18.95 6.2 18.95 6.2 18.9 6.2 18.9 6.2 18.85 6.15 18.8 6.15 18.75 6.15 18.75 6.15 18.7 6.15 18.65 6.15 18.6 6.15 18.55 6.15 18.5 6.1 18.45 6.1 18.4 6.1 18.1 6.1 16.6 6.1 16.4 6.1 16.25 6.1 16.1 6.1 15.95 6.1 15.75 6.1 15.6 6.1 15.45 6.1 15.35 6.15 15.2 6.15 15.05 6.15 14.95 6.15 14.85 6.2 14.7 6.2 14.6 6.2 14.5 6.25 14.4 6.25 14.35 6.25 14.3 6.3 14.25 6.3 14.25 6.3 14.2 6.35 14.15 6.35 14.15 6.4 14.1 6.4 14.05 6.45 14.05 6.45 14.05 6.5 14.0 6.5 14.0 6.55 14.0 6.55 14.0 6.6 14.0 6.65 14.0 6.7 14.0 6.75 14.0 6.8 14.05 6.8 14.05 6.85 14.1 6.9 14.1 6.95 14.15 6.95 14.2 7.0 14.25 7.05 14.3 7.05 14.35 7.1 14.4 7.15 14.5 7.15 14.55 7.2 14.65 7.2 L15.4 7.5 15.4 11.8 10.6 11.8 10.6 9.95 Q10.6 9.75 10.6 9.55 10.6 9.35 10.6 9.2 10.6 9.0 10.6 8.85 10.6 8.7 10.65 8.6 10.65 8.45 10.65 8.35 10.65 8.2 10.65 8.1 10.7 8.0 10.7 7.9 10.7 7.85 10.75 7.75 10.75 7.7 10.8 7.65 10.8 7.55 10.8 7.55 10.85 7.5 10.85 7.45 10.9 7.4 10.95 7.35 10.95 7.35 11.0 7.3 11.05 7.3 11.1 7.25 11.1 7.25 11.15 7.25 11.2 7.25 11.25 7.25 11.3 7.25 11.35 7.25 11.4 7.25 11.45 7.2 11.5 7.2 11.55 7.2 11.6 7.2 11.65 7.15 11.7 7.15 11.75 7.1 11.8 7.1 11.85 7.05 11.9 7.0 11.9 7.0 11.95 6.95 12.0 6.9 12.05 6.85 12.05 6.8 12.1 6.8 12.15 6.75 12.15 6.7 12.2 6.65 12.2 6.6 12.2 6.6 12.2 6.55 12.2 6.5 12.2 6.45 12.2 6.45 12.2 6.4 12.2 6.35 12.15 6.35 12.15 6.3 12.15 6.25 12.05 6.25 12.0 6.2 11.95 6.2 11.85 6.15 11.75 6.15 11.65 6.15 11.5 6.1 11.35 6.1 11.2 6.1 11.0 6.05 10.8 6.05 10.6 6.05 10.35 6.05 10.15 6.05 9.85 6.05 7.7 6.05 7.4 6.15 7.35 6.15 7.3 6.2 7.2 6.2 7.2 6.2 7.15 6.25 7.1 6.25 7.05 6.3 7.0 6.35 7.0 6.4 6.95 6.4 6.95 6.45 6.9 6.5 6.9 6.55 6.9 6.65 6.9 6.7 6.9 6.75 6.9 6.8 6.9 6.8 6.9 6.85 6.95 6.85 6.95 6.9 7.0 6.9 7.0 6.95 7.05 6.95 7.1 7.0 7.15 7.0 7.2 7.05 7.4 7.15 7.65 7.25 7.85 7.35 L8.45 7.65 8.45 18.4 7.65 18.75 Q7.55 18.8 7.5 18.85 7.4 18.9 7.35 18.9 7.25 18.95 7.2 19.0 7.15 19.05 7.1 19.1 7.05 19.1 7.0 19.15 7.0 19.2 6.95 19.25 6.95 19.3 6.95 19.35 6.9 19.35 6.9 19.4 6.9 19.45 6.95 19.5 7.0 19.6 7.05 19.65 7.15 19.65 7.3 19.7 7.4 19.75 7.55 19.8 7.75 19.8 7.95 19.85 8.15 19.85 8.4 19.9 8.65 19.9 8.9 19.9 9.2 19.9 9.55 19.9 L9.55 19.9" fill="#ffffff" fill-rule="evenodd" stroke="none"/>
  </g>
</svg>
