<?xml version="1.0" encoding="UTF-8" standalone="no"?>
<svg xmlns:ffdec="https://www.free-decompiler.com/flash" xmlns:xlink="http://www.w3.org/1999/xlink" ffdec:objectType="shape" height="26.0px" width="26.0px" xmlns="http://www.w3.org/2000/svg">
  <g transform="matrix(1.0, 0.0, 0.0, 1.0, 0.0, 0.0)">
    <path d="M9.0 6.85 L9.6 7.2 9.6 17.95 8.8 18.3 Q8.7 18.35 8.65 18.4 8.55 18.4 8.5 18.45 8.45 18.5 8.35 18.55 8.3 18.55 8.25 18.6 8.25 18.65 8.2 18.7 8.15 18.75 8.15 18.75 8.1 18.8 8.1 18.85 8.1 18.9 8.1 18.95 8.1 19.0 8.1 19.0 8.1 19.05 8.15 19.1 8.15 19.1 8.15 19.15 8.2 19.15 8.25 19.2 8.25 19.2 8.3 19.25 8.35 19.25 8.4 19.25 8.45 19.3 8.5 19.3 8.6 19.3 8.65 19.3 9.15 19.45 11.65 19.45 14.05 19.5 14.9 19.6 15.0 19.6 15.05 19.6 15.15 19.65 15.2 19.65 15.3 19.65 15.35 19.65 15.4 19.7 15.45 19.7 15.5 19.7 15.5 19.75 15.55 19.75 15.6 19.8 15.6 19.8 15.6 19.8 15.65 19.85 15.65 19.9 15.65 19.95 15.65 20.0 15.65 20.05 15.65 20.1 15.7 20.15 15.7 20.2 15.75 20.25 15.75 20.25 15.8 20.3 15.85 20.3 15.85 20.35 15.9 20.35 15.95 20.4 16.0 20.4 16.05 20.4 16.15 20.4 16.15 20.4 16.2 20.4 16.2 20.4 16.2 20.4 16.25 20.4 16.25 20.35 16.3 20.35 16.3 20.35 16.35 20.35 16.35 20.3 16.4 20.3 16.4 20.3 16.45 20.25 16.45 20.25 16.5 20.2 16.5 20.2 16.55 20.2 16.6 20.1 16.6 20.05 16.65 20.0 16.7 19.9 16.75 19.8 16.8 19.7 16.85 19.6 16.9 19.45 16.95 19.3 17.05 19.15 17.1 18.95 17.15 18.8 17.2 18.6 17.3 18.4 17.35 18.15 17.95 16.3 17.95 16.0 17.9 15.7 17.9 15.7 17.9 15.65 17.85 15.6 17.85 15.6 17.8 15.55 17.8 15.5 17.75 15.5 17.7 15.5 17.7 15.45 17.65 15.45 17.65 15.45 17.6 15.45 17.55 15.45 17.5 15.45 17.5 15.45 17.45 15.45 17.4 15.5 17.35 15.5 17.3 15.5 17.3 15.55 17.25 15.55 17.2 15.6 17.15 15.6 17.15 15.65 17.1 15.7 17.05 15.7 17.0 15.75 17.0 15.8 16.95 15.85 16.9 15.9 16.85 15.95 16.8 16.0 16.8 16.1 16.65 16.35 16.45 16.6 16.25 16.85 16.05 17.05 15.85 17.25 15.65 17.45 15.45 17.6 15.2 17.75 15.0 17.9 14.75 18.0 14.55 18.1 14.3 18.15 14.05 18.2 13.8 18.25 13.55 18.3 13.3 18.3 13.25 18.3 13.2 18.3 13.2 18.3 13.15 18.3 13.1 18.3 13.1 18.3 13.05 18.3 13.0 18.25 13.0 18.25 12.95 18.25 12.9 18.25 12.9 18.25 12.85 18.25 12.85 18.2 12.8 18.2 12.8 18.2 12.8 18.2 12.75 18.2 12.75 18.15 12.7 18.15 12.7 18.15 12.65 18.1 12.65 18.1 12.6 18.05 12.55 18.0 12.55 18.0 12.5 17.95 12.45 17.9 12.4 17.85 12.4 17.8 12.35 17.75 12.3 17.7 12.25 17.65 12.2 17.6 12.15 17.5 12.1 17.45 12.1 17.4 12.05 17.35 12.0 17.25 12.0 17.2 11.95 17.15 11.95 17.05 11.9 17.0 11.9 16.95 11.9 16.85 11.85 16.8 11.85 16.7 11.85 16.65 11.8 15.5 11.8 14.85 11.8 14.65 11.8 13.6 11.8 12.7 11.85 12.1 L11.9 7.15 12.7 6.8 Q12.8 6.75 12.9 6.7 12.95 6.7 13.05 6.65 13.1 6.6 13.15 6.55 13.2 6.5 13.25 6.45 13.3 6.4 13.35 6.35 13.4 6.3 13.4 6.25 13.45 6.2 13.45 6.15 13.45 6.1 13.45 6.05 13.45 6.0 13.45 5.95 13.45 5.95 13.45 5.9 13.4 5.9 13.4 5.85 13.4 5.8 13.35 5.8 13.35 5.75 13.3 5.75 13.25 5.75 13.2 5.7 13.15 5.7 13.1 5.7 13.05 5.7 13.0 5.65 12.5 5.6 10.9 5.6 9.25 5.6 8.75 5.65 8.7 5.65 8.6 5.7 8.55 5.7 8.5 5.7 8.45 5.7 8.4 5.75 8.35 5.75 8.3 5.75 8.3 5.8 8.25 5.8 8.25 5.85 8.2 5.85 8.2 5.9 8.15 5.9 8.15 5.95 8.15 5.95 8.15 6.0 8.1 6.05 8.1 6.1 8.1 6.1 8.1 6.15 8.1 6.2 8.05 6.2 8.05 6.25 8.05 6.3 8.05 6.3 8.05 6.35 8.05 6.35 8.1 6.4 8.1 6.4 8.1 6.4 8.15 6.45 8.2 6.45 8.2 6.5 8.25 6.5 8.3 6.55 8.35 6.55 8.35 6.55 8.4 6.6 8.45 6.6 8.45 6.6 8.5 6.65 8.55 6.65 8.6 6.65 8.65 6.7 8.7 6.7 8.75 6.75 8.8 6.75 8.85 6.8 8.9 6.8 8.95 6.85 9.0 6.85 L9.0 6.85" fill="#ffffff" fill-rule="evenodd" stroke="none"/>
  </g>
</svg>
