<?xml version="1.0" encoding="UTF-8" standalone="no"?>
<svg xmlns:ffdec="https://www.free-decompiler.com/flash" xmlns:xlink="http://www.w3.org/1999/xlink" ffdec:objectType="shape" height="26.0px" width="26.0px" xmlns="http://www.w3.org/2000/svg">
  <g transform="matrix(1.0, 0.0, 0.0, 1.0, 0.0, 0.0)">
    <path d="M20.3 20.25 Q20.3 20.25 20.4 19.35 20.45 19.25 20.45 19.15 20.5 19.05 20.5 18.95 20.55 18.85 20.55 18.75 20.6 18.65 20.6 18.6 20.6 18.5 20.65 18.4 20.65 18.35 20.65 18.25 20.65 18.2 20.65 18.15 20.65 18.05 20.65 18.0 20.65 17.45 20.65 17.25 20.65 17.15 20.6 17.1 20.6 17.05 20.55 16.95 20.5 16.9 20.45 16.85 20.4 16.8 20.35 16.8 20.25 16.75 20.2 16.7 20.15 16.7 20.05 16.65 19.95 16.65 19.85 16.65 19.75 16.65 19.65 16.65 19.6 16.65 19.55 16.65 19.45 16.65 19.4 16.7 19.35 16.7 19.35 16.7 19.3 16.75 19.25 16.75 19.2 16.8 19.15 16.8 19.15 16.85 19.1 16.9 19.1 16.9 19.05 16.95 19.05 17.0 19.05 17.05 19.05 17.05 19.05 17.1 19.05 17.15 19.0 17.15 19.0 17.2 19.0 17.25 19.0 17.25 19.0 17.3 19.0 17.35 19.0 17.4 19.0 17.45 19.0 17.5 19.0 17.55 19.0 17.6 19.0 17.65 19.0 17.7 18.95 18.15 19.1 19.35 L19.25 20.4 Q19.25 20.45 19.3 20.55 19.3 20.6 19.35 20.65 19.35 20.7 19.4 20.75 19.4 20.8 19.45 20.85 19.45 20.85 19.5 20.9 19.55 20.9 19.55 20.95 19.6 20.95 19.65 20.95 19.7 20.95 19.7 20.95 L19.8 20.95 Q19.85 20.95 19.9 20.95 19.95 20.95 19.95 20.9 20.0 20.9 20.05 20.85 20.1 20.85 20.1 20.8 20.15 20.75 20.15 20.7 20.2 20.65 20.2 20.55 20.25 20.5 20.25 20.45 20.25 20.35 20.3 20.25 L20.3 20.25" fill="#ffffff" fill-rule="evenodd" stroke="none"/>
    <path d="M8.25 5.05 Q8.2 5.05 8.1 5.05 8.05 5.05 8.0 5.05 7.95 5.1 7.9 5.1 7.85 5.1 7.8 5.15 7.75 5.15 7.75 5.2 7.7 5.25 7.7 5.25 7.65 5.3 7.65 5.35 7.6 5.4 7.6 5.45 7.6 5.5 7.6 5.5 7.6 5.55 7.6 5.55 7.55 5.6 7.55 5.65 7.55 5.65 7.55 5.7 7.55 5.75 7.55 5.8 7.55 5.85 7.55 5.9 7.55 5.95 7.55 6.0 7.55 6.05 7.55 6.1 7.55 6.6 7.7 7.75 L7.85 8.8 Q7.85 8.85 7.9 8.95 7.9 9.0 7.9 9.05 7.95 9.1 7.95 9.15 7.95 9.2 8.0 9.25 8.05 9.25 8.05 9.3 8.1 9.3 8.15 9.35 8.15 9.35 8.2 9.35 8.25 9.35 8.3 9.35 L8.4 9.35 Q8.45 9.35 8.5 9.35 8.5 9.35 8.55 9.3 8.6 9.3 8.65 9.25 8.65 9.25 8.7 9.2 8.7 9.15 8.75 9.1 8.75 9.05 8.8 9.0 8.8 8.9 8.85 8.85 8.85 8.75 8.85 8.7 8.85 8.65 9.0 7.55 9.0 7.45 9.05 7.3 9.05 7.15 9.1 7.05 9.1 6.9 9.1 6.8 9.15 6.65 9.15 6.55 9.15 6.45 9.15 6.3 9.15 6.2 9.15 6.05 9.15 5.95 9.2 5.8 9.2 5.7 9.2 5.6 9.2 5.55 9.2 5.45 9.15 5.4 9.15 5.35 9.1 5.3 9.05 5.25 9.0 5.2 8.95 5.15 8.9 5.15 8.8 5.1 8.75 5.1 8.65 5.05 8.55 5.05 8.45 5.05 8.35 5.05 8.25 5.05 L8.25 5.05 M6.65 8.7 Q6.7 8.5 6.8 7.75 6.85 7.65 6.85 7.55 6.9 7.45 6.9 7.35 6.9 7.25 6.95 7.15 6.95 7.05 6.95 7.0 7.0 6.9 7.0 6.85 7.0 6.75 7.0 6.65 7.0 6.6 7.0 6.55 7.0 6.45 7.0 6.4 7.05 5.85 7.0 5.65 7.0 5.55 6.95 5.5 6.95 5.45 6.9 5.35 6.85 5.3 6.8 5.25 6.75 5.2 6.7 5.2 6.65 5.15 6.55 5.1 6.5 5.1 6.4 5.05 6.3 5.05 6.2 5.05 6.1 5.05 6.0 5.05 5.95 5.05 5.9 5.05 5.85 5.05 5.8 5.1 5.75 5.1 5.7 5.1 5.65 5.15 5.6 5.15 5.55 5.2 5.55 5.2 5.5 5.25 5.45 5.3 5.45 5.3 5.4 5.35 5.4 5.4 5.4 5.45 5.4 5.45 5.4 5.5 5.4 5.55 5.35 5.55 5.35 5.6 5.35 5.65 5.35 5.65 5.35 5.7 5.35 5.75 5.35 5.8 5.35 5.85 5.35 5.9 5.35 5.95 5.35 6.0 5.35 6.05 5.35 6.1 5.35 6.55 5.5 7.75 L5.65 8.8 Q5.65 8.85 5.65 8.95 5.7 9.0 5.7 9.05 5.7 9.1 5.75 9.15 5.75 9.2 5.8 9.25 5.8 9.25 5.85 9.3 5.9 9.3 5.9 9.35 5.95 9.35 6.0 9.35 6.05 9.35 6.1 9.35 L6.2 9.35 Q6.25 9.35 6.3 9.35 6.3 9.35 6.35 9.3 6.4 9.3 6.4 9.25 6.45 9.25 6.45 9.2 6.5 9.15 6.5 9.1 6.55 9.05 6.55 9.0 6.6 8.9 6.6 8.85 6.6 8.75 6.65 8.7 L6.65 8.7" fill="#ffffff" fill-rule="evenodd" stroke="none"/>
  </g>
</svg>
