<?xml version="1.0" encoding="UTF-8" standalone="no"?>
<svg xmlns:ffdec="https://www.free-decompiler.com/flash" xmlns:xlink="http://www.w3.org/1999/xlink" ffdec:objectType="shape" height="26.0px" width="41.75px" xmlns="http://www.w3.org/2000/svg">
  <g transform="matrix(1.0, 0.0, 0.0, 1.0, 0.0, 0.0)">
    <path d="M10.55 8.15 Q10.5 8.15 10.45 8.15 10.4 8.15 10.35 8.1 10.25 8.05 10.15 8.0 10.1 8.0 10.05 7.95 10.05 7.95 10.0 7.95 9.9 7.95 9.85 7.9 9.8 7.9 9.75 7.9 9.65 7.9 9.6 7.9 9.5 7.9 9.45 7.9 9.35 7.9 9.25 7.9 9.15 7.85 9.05 7.85 8.95 7.85 8.85 7.85 8.75 7.85 8.7 7.9 8.6 7.9 8.5 7.9 8.45 7.9 8.35 7.9 8.3 7.95 8.2 7.95 8.15 7.95 8.05 7.95 8.0 8.0 7.95 8.0 7.9 8.0 7.85 8.05 7.8 8.05 7.75 8.1 7.7 8.1 7.6 8.15 7.55 8.15 7.5 8.2 7.45 8.2 7.4 8.25 7.35 8.25 7.3 8.3 7.25 8.35 7.2 8.35 7.15 8.4 7.15 8.45 7.1 8.5 7.05 8.5 6.95 8.6 6.85 8.75 6.75 8.85 6.65 9.0 6.55 9.1 6.5 9.25 6.4 9.35 6.35 9.45 6.3 9.6 6.25 9.75 6.2 9.85 6.15 10.0 6.15 10.1 6.15 10.25 6.1 10.35 6.1 10.5 6.1 10.65 6.1 10.75 6.1 10.9 6.15 11.0 6.15 11.15 6.2 11.25 6.2 11.35 6.25 11.5 6.3 11.6 6.35 11.7 6.35 11.8 6.4 11.85 6.45 11.95 6.55 12.05 6.6 12.1 6.65 12.2 6.7 12.25 6.8 12.35 6.9 12.4 7.0 12.5 7.1 12.6 7.2 12.7 7.35 12.8 7.5 12.85 7.65 12.95 7.8 13.1 7.95 13.2 8.15 13.3 8.3 13.4 8.5 13.55 8.7 13.65 8.95 13.75 9.15 13.9 9.35 14.0 9.55 14.15 9.75 14.25 9.9 14.35 10.05 14.5 10.2 14.6 10.35 14.75 10.5 14.85 10.6 14.95 10.75 15.05 10.85 15.2 10.95 15.3 11.0 15.4 11.1 15.5 11.15 15.6 11.2 15.65 11.2 15.7 11.25 15.75 11.25 15.8 11.3 15.85 11.3 15.9 11.3 16.0 11.35 16.05 11.35 16.1 11.35 16.15 11.4 16.2 11.4 16.25 11.4 16.3 11.4 16.4 11.4 16.45 11.4 16.5 11.4 16.55 11.4 16.6 11.4 16.7 11.4 16.75 11.35 16.8 11.35 16.9 11.35 16.95 11.3 17.0 11.3 17.1 11.3 17.15 11.25 17.2 11.25 17.3 11.2 17.35 11.15 17.45 11.15 17.5 11.1 17.6 11.05 17.7 10.95 17.8 10.9 17.9 10.85 17.95 10.75 18.05 10.65 18.15 10.55 18.2 10.45 18.25 10.4 18.35 10.25 18.4 10.15 18.45 10.05 18.5 9.9 18.55 9.8 18.55 9.65 18.6 9.5 18.65 9.15 18.7 9.0 18.7 8.9 18.7 8.8 18.7 8.7 18.7 8.65 18.65 8.55 18.65 8.45 18.6 8.4 18.6 8.3 18.55 8.2 18.55 8.15 18.5 8.05 18.45 8.0 18.4 7.95 18.35 7.85 18.3 7.8 18.25 7.75 18.2 7.7 18.1 7.65 18.05 7.6 17.95 7.55 17.9 7.55 17.85 7.55 17.85 7.55 17.85 7.55 17.8 7.55 17.8 7.55 17.75 7.6 17.7 7.6 17.7 7.65 17.65 7.7 17.6 7.75 17.6 7.75 17.55 7.8 17.5 7.8 17.5 7.85 17.45 7.85 17.4 7.9 17.4 7.9 17.35 7.95 17.3 7.95 17.25 7.95 17.25 8.0 17.2 8.0 17.15 8.0 17.1 8.0 17.05 8.0 17.0 8.0 16.95 8.0 16.85 8.0 16.8 8.0 16.75 8.0 16.7 8.0 16.65 8.0 16.6 7.95 16.55 7.95 16.5 7.95 16.45 7.9 16.4 7.9 16.35 7.85 16.3 7.8 16.25 7.8 16.25 7.75 16.2 7.7 16.15 7.65 16.1 7.6 16.05 7.55 16.0 7.5 16.0 7.5 15.95 7.45 15.9 7.4 15.9 7.35 15.85 7.3 15.85 7.25 15.85 7.2 15.8 7.2 15.8 7.15 15.8 7.1 15.8 7.05 15.8 7.0 15.8 6.95 15.8 6.9 15.8 6.85 15.8 6.85 15.8 6.8 15.8 6.75 15.8 6.7 15.8 6.65 15.8 6.65 15.8 6.6 15.85 6.55 15.85 6.5 15.85 6.45 15.85 6.45 15.9 6.4 15.9 6.35 15.9 6.3 15.95 6.2 16.0 6.15 16.05 6.05 16.1 6.0 16.2 5.9 16.25 5.85 16.3 5.8 16.4 5.75 16.5 5.7 16.55 5.65 16.65 5.65 16.75 5.6 16.85 5.6 16.95 5.6 17.1 5.55 17.2 5.55 17.3 5.55 17.45 5.55 17.55 5.6 17.7 5.6 17.8 5.65 17.9 5.7 18.05 5.75 18.15 5.8 18.25 5.85 18.35 5.95 18.45 6.0 18.55 6.1 18.65 6.2 18.75 6.3 18.85 6.4 18.95 6.55 19.05 6.65 19.15 6.8 19.2 6.9 19.3 7.05 19.35 7.2 19.4 7.35 19.45 7.5 19.5 7.65 19.55 7.8 19.6 7.95 19.65 8.1 19.7 8.3 19.7 8.45 19.7 8.65 19.75 8.8 19.75 9.0 19.75 L9.05 19.75 Q9.25 19.75 9.4 19.75 9.6 19.7 9.75 19.7 9.95 19.65 10.1 19.65 10.25 19.6 10.4 19.55 10.6 19.5 10.75 19.45 10.9 19.4 11.05 19.3 11.15 19.25 11.3 19.15 11.45 19.05 11.6 18.95 11.75 18.85 11.85 18.75 11.95 18.65 12.1 18.5 12.2 18.4 12.3 18.25 12.4 18.15 12.45 18.0 12.55 17.85 12.65 17.75 12.7 17.6 12.8 17.4 12.85 17.25 12.9 17.1 12.95 16.95 13.0 16.75 13.0 16.7 13.05 16.65 13.05 16.55 13.05 16.5 13.05 16.45 13.05 16.4 13.1 16.35 13.1 16.25 13.1 16.2 13.1 16.15 13.1 16.1 13.1 16.05 13.1 16.0 13.1 15.95 13.1 15.85 13.1 15.8 13.1 15.55 13.05 15.3 13.0 15.05 12.95 14.8 12.85 14.55 12.7 14.3 12.6 14.05 12.4 13.8 12.25 13.6 12.0 13.35 11.8 13.15 11.5 12.9 11.25 12.7 10.95 12.5 10.6 12.3 10.25 12.1 8.5 11.1 8.2 10.8 8.15 10.75 8.1 10.7 8.05 10.65 8.05 10.6 8.0 10.55 8.0 10.5 7.95 10.5 7.95 10.45 7.9 10.4 7.9 10.35 7.85 10.3 7.85 10.25 7.85 10.2 7.85 10.2 7.85 10.15 7.85 10.1 7.85 10.05 7.85 10.0 7.85 9.95 7.85 9.95 7.85 9.9 7.85 9.85 7.85 9.8 7.85 9.8 7.85 9.75 7.9 9.7 7.9 9.7 7.9 9.65 7.9 9.6 7.9 9.6 7.95 9.55 7.95 9.5 8.0 9.4 8.05 9.35 8.1 9.3 8.15 9.2 8.2 9.15 8.25 9.1 8.35 9.05 8.4 9.0 8.5 8.95 8.55 8.95 8.65 8.9 8.75 8.9 8.85 8.85 8.95 8.85 9.05 8.85 9.15 8.85 9.25 8.85 9.3 8.85 9.4 8.85 9.45 8.85 9.55 8.9 9.6 8.9 9.7 8.95 9.75 8.95 9.85 9.0 9.9 9.0 10.0 9.05 10.05 9.1 10.15 9.1 10.2 9.15 10.25 9.2 10.35 9.25 10.4 9.3 10.5 9.35 10.55 9.4 10.65 9.45 10.7 9.5 10.75 9.6 10.8 9.65 10.9 9.7 10.95 9.75 11.0 9.85 11.05 9.9 11.1 9.95 11.15 10.05 11.2 10.1 11.25 10.15 11.3 10.25 11.35 10.3 11.4 10.4 11.4 10.45 11.45 10.5 11.5 10.55 11.55 10.6 11.55 10.65 11.6 10.7 11.65 10.75 11.65 10.8 11.7 10.85 11.75 10.85 11.8 10.9 11.8 10.95 11.85 10.95 11.9 10.95 11.95 10.95 11.95 11.0 12.0 11.0 12.05 11.0 12.05 11.0 12.1 11.0 12.1 11.0 12.15 11.0 12.15 11.0 12.2 10.95 12.2 10.95 12.25 10.9 12.25 10.9 12.3 10.85 12.3 10.8 12.3 10.75 L12.3 10.5 Q12.3 10.3 11.9 8.75 11.85 8.55 11.8 8.4 11.7 8.25 11.65 8.1 11.6 7.95 11.55 7.8 11.5 7.7 11.45 7.6 11.4 7.5 11.35 7.45 11.3 7.35 11.25 7.3 11.2 7.25 11.1 7.25 11.05 7.25 11.0 7.25 10.95 7.25 10.95 7.25 10.9 7.25 10.85 7.25 10.85 7.3 10.8 7.3 10.8 7.35 10.75 7.35 10.75 7.35 10.7 7.4 10.7 7.4 10.7 7.45 10.65 7.45 10.65 7.5 10.65 7.5 10.65 7.55 10.65 7.6 10.65 7.6 10.6 7.65 10.6 7.65 10.6 7.7 10.6 7.75 10.6 7.8 10.6 7.8 10.6 7.9 10.6 8.0 10.6 8.05 10.6 8.1 10.55 8.15 10.55 8.15 L10.55 8.15" fill="#ffffff" fill-rule="evenodd" stroke="none"/>
    <path d="M13.0 8.7 L13.5 8.7 13.5 18.35 12.9 18.7 Q12.85 18.75 12.75 18.75 12.7 18.8 12.65 18.85 12.6 18.85 12.55 18.9 12.5 18.95 12.45 18.95 12.45 19.0 12.4 19.0 12.4 19.05 12.35 19.1 12.35 19.1 12.35 19.15 12.35 19.15 12.35 19.2 12.35 19.25 12.35 19.25 12.4 19.3 12.45 19.35 12.5 19.35 12.55 19.4 12.65 19.4 12.75 19.45 12.85 19.45 12.95 19.45 13.1 19.45 13.25 19.5 13.4 19.5 13.55 19.5 13.75 19.5 13.95 19.5 15.5 19.5 15.95 19.45 16.0 19.45 16.05 19.45 16.05 19.4 16.1 19.4 16.15 19.4 16.15 19.35 16.2 19.35 16.2 19.35 16.25 19.3 16.25 19.3 16.3 19.25 16.3 19.25 16.3 19.2 16.3 19.15 16.3 19.15 16.3 19.1 16.3 19.05 16.3 19.05 16.3 19.0 16.3 19.0 16.25 18.95 16.25 18.95 16.25 18.9 16.2 18.85 16.15 18.85 16.15 18.85 16.1 18.8 16.05 18.8 16.0 18.75 15.95 18.75 15.9 18.75 15.85 18.7 15.8 18.7 15.75 18.65 15.7 18.65 15.65 18.6 15.6 18.6 15.55 18.55 15.5 18.5 15.45 18.5 15.4 18.45 15.4 18.4 15.35 18.35 15.3 18.3 15.3 18.2 15.25 18.15 15.25 18.1 15.25 18.0 15.15 17.75 15.15 16.3 15.15 16.15 15.15 16.0 15.15 15.8 15.15 15.65 15.15 15.55 15.15 15.4 15.2 15.25 15.2 15.15 15.2 15.0 15.2 14.9 15.25 14.75 15.25 14.65 15.3 14.55 15.3 14.45 15.3 14.35 15.35 14.3 15.35 14.25 15.4 14.2 15.4 14.15 15.4 14.1 15.45 14.05 15.45 14.0 15.5 13.95 15.55 13.9 15.6 13.85 15.6 13.85 15.65 13.8 15.7 13.75 15.75 13.7 15.8 13.65 15.85 13.6 15.9 13.55 15.95 13.5 16.0 13.45 16.1 13.4 16.15 13.35 16.2 13.35 16.25 13.3 16.3 13.25 16.4 13.25 16.45 13.2 16.5 13.2 16.55 13.2 16.6 13.15 16.7 13.15 16.75 13.15 16.8 13.15 16.85 13.15 16.9 13.15 16.95 13.15 17.05 13.15 17.1 13.15 17.15 13.15 17.2 13.2 17.25 13.2 17.3 13.2 17.35 13.25 17.4 13.25 17.45 13.3 17.5 13.3 17.6 13.35 17.6 13.4 17.65 13.4 17.7 13.45 17.75 13.5 17.8 13.55 17.85 13.6 17.9 13.65 17.95 13.7 18.0 13.8 18.0 13.85 18.05 13.95 18.1 14.0 18.1 14.1 18.15 14.2 18.15 14.25 18.2 14.35 18.2 14.45 18.25 14.55 18.25 14.7 18.25 14.8 18.3 14.9 18.3 15.0 18.3 15.1 18.3 15.2 18.3 15.3 18.35 15.4 18.35 15.5 18.35 15.6 18.35 15.7 18.35 15.75 18.35 15.85 18.35 15.95 18.35 16.0 18.35 16.1 18.35 16.2 18.35 16.3 18.35 16.35 18.35 16.45 18.35 16.5 18.35 16.6 18.35 16.65 18.35 16.75 18.35 16.85 18.35 16.9 18.35 17.0 18.35 17.05 18.3 17.15 18.3 17.25 18.3 17.3 18.3 17.4 18.3 17.5 18.25 17.7 18.25 17.8 18.2 17.95 18.2 18.05 18.15 18.2 18.15 18.25 18.1 18.35 18.1 18.4 18.1 18.45 18.05 18.45 18.05 18.5 18.0 18.5 18.0 18.55 17.95 18.55 17.95 18.55 17.9 18.6 17.9 18.6 17.85 18.65 17.85 18.65 17.8 18.65 17.75 18.65 17.75 18.7 17.7 18.7 17.65 18.7 17.6 18.7 17.55 18.75 17.5 18.75 17.45 18.8 17.4 18.8 17.35 18.85 17.3 18.9 17.3 18.9 17.25 18.95 17.25 19.0 17.2 19.0 17.2 19.05 17.2 19.1 17.2 19.15 17.15 19.15 17.15 19.2 17.15 19.25 17.15 19.3 17.15 19.35 17.2 19.35 17.2 19.4 17.2 19.4 17.25 19.45 17.25 19.45 17.3 19.5 17.3 19.5 17.35 19.5 17.4 19.55 17.45 19.55 17.5 19.55 17.6 19.6 17.7 19.6 17.8 19.6 17.9 19.6 18.05 19.6 18.2 19.6 18.55 19.6 18.9 19.6 19.25 19.6 19.5 19.6 19.8 19.55 20.0 19.55 20.25 19.5 20.45 19.5 20.6 19.45 20.75 19.45 20.9 19.4 21.0 19.35 21.1 19.3 21.15 19.25 21.2 19.2 21.2 19.15 21.2 19.15 21.2 19.1 21.15 19.1 21.15 19.05 21.15 19.05 21.1 19.0 21.1 19.0 21.05 18.95 21.0 18.9 20.95 18.9 20.9 18.85 20.85 18.8 20.8 18.8 20.75 18.75 20.7 18.75 20.6 18.7 L20.0 18.35 20.0 16.15 Q20.0 15.9 20.0 15.7 20.0 15.45 20.0 15.25 19.95 15.05 19.95 14.85 19.95 14.65 19.95 14.5 19.9 14.35 19.9 14.2 19.85 14.05 19.85 13.9 19.85 13.75 19.8 13.65 19.75 13.5 19.75 13.45 19.7 13.35 19.7 13.25 19.65 13.15 19.6 13.05 19.55 12.95 19.5 12.85 19.45 12.8 19.4 12.7 19.3 12.65 19.25 12.55 19.2 12.5 19.1 12.45 19.05 12.4 18.95 12.35 18.9 12.3 18.8 12.25 18.75 12.2 18.65 12.15 18.6 12.15 18.5 12.1 18.4 12.1 18.35 12.05 18.25 12.0 18.2 12.0 18.1 12.0 18.0 11.95 17.95 11.95 17.85 11.95 17.75 11.95 17.7 11.95 17.6 11.95 17.5 11.95 17.4 11.95 17.35 11.95 17.25 11.95 17.15 11.95 17.05 12.0 17.0 12.0 16.9 12.0 16.8 12.05 16.7 12.1 16.6 12.1 16.5 12.15 16.4 12.2 16.3 12.25 16.2 12.3 16.1 12.35 16.0 12.45 L15.15 12.9 15.15 10.45 Q15.15 8.8 15.2 8.25 15.2 8.2 15.2 8.15 15.25 8.05 15.25 8.0 15.25 7.95 15.3 7.9 15.3 7.85 15.35 7.8 15.35 7.7 15.4 7.65 15.4 7.6 15.45 7.55 15.45 7.5 15.5 7.45 15.55 7.4 15.55 7.35 15.6 7.3 15.65 7.25 15.7 7.2 15.7 7.15 15.75 7.1 15.75 7.05 15.8 7.0 15.85 7.0 15.85 6.95 15.85 6.9 15.9 6.85 15.9 6.8 15.9 6.75 15.9 6.7 15.95 6.65 15.95 6.6 15.95 6.55 15.95 6.5 15.95 6.5 15.95 6.45 15.95 6.4 15.9 6.4 15.9 6.35 15.9 6.35 15.9 6.3 15.85 6.3 15.85 6.3 15.85 6.3 15.8 6.25 15.75 6.25 15.75 6.25 15.7 6.25 15.65 6.25 15.6 6.25 15.55 6.3 15.5 6.3 15.45 6.35 15.35 6.35 15.25 6.4 15.15 6.45 15.05 6.5 14.9 6.55 14.8 6.65 14.65 6.7 14.5 6.8 14.35 6.85 14.15 6.95 14.0 7.05 13.8 7.15 13.65 7.25 13.5 7.35 13.35 7.45 13.2 7.55 13.1 7.6 12.95 7.7 12.9 7.8 12.8 7.85 12.7 7.9 12.65 8.0 12.6 8.05 12.55 8.1 12.55 8.15 12.5 8.25 12.5 8.3 12.5 8.35 12.5 8.4 12.5 8.45 12.55 8.45 12.55 8.5 12.6 8.55 12.6 8.55 12.65 8.6 12.65 8.6 12.7 8.65 12.75 8.65 12.8 8.65 12.85 8.65 12.9 8.7 12.95 8.7 13.0 8.7 L13.0 8.7" fill="#ffffff" fill-rule="evenodd" stroke="none"/>
    <path d="M23.5 10.65 Q23.55 10.65 23.55 10.65 23.6 10.65 23.6 10.65 23.65 10.6 23.7 10.6 23.75 10.6 23.75 10.55 23.8 10.55 23.85 10.55 23.9 10.5 23.95 10.5 24.0 10.45 24.05 10.4 24.1 10.4 24.15 10.35 24.2 10.3 24.25 10.3 24.3 10.25 24.3 10.2 24.35 10.15 24.4 10.1 24.4 10.05 24.45 10.0 24.5 9.95 24.5 9.9 24.5 9.85 24.55 9.8 24.55 9.75 24.55 9.7 24.55 9.65 24.55 9.6 24.55 9.55 24.55 9.45 24.55 9.4 24.55 9.35 24.5 9.3 24.5 9.25 24.5 9.2 24.45 9.15 24.45 9.1 24.45 9.05 24.4 9.0 24.35 8.95 24.35 8.9 24.3 8.85 24.25 8.8 24.25 8.8 24.2 8.75 24.15 8.7 24.1 8.7 24.05 8.65 24.0 8.65 23.95 8.6 23.9 8.6 23.85 8.55 23.8 8.55 23.75 8.55 23.7 8.5 23.65 8.5 23.6 8.5 23.55 8.5 23.5 8.5 23.4 8.5 23.35 8.5 23.3 8.5 23.25 8.5 23.2 8.5 23.15 8.5 23.1 8.55 23.05 8.55 23.0 8.6 22.95 8.6 22.9 8.65 22.9 8.65 22.85 8.7 22.8 8.75 22.75 8.8 22.7 8.8 22.7 8.85 22.65 8.9 22.65 8.95 22.6 9.0 22.6 9.05 22.55 9.1 22.55 9.15 22.5 9.2 22.5 9.2 22.5 9.25 22.5 9.3 22.45 9.35 22.45 9.35 22.45 9.4 22.45 9.45 22.45 9.45 22.45 9.5 22.45 9.65 22.45 9.75 22.5 9.9 22.5 10.0 22.55 10.1 22.6 10.2 22.65 10.3 22.7 10.35 22.75 10.45 22.85 10.5 22.95 10.55 23.05 10.6 23.15 10.6 23.25 10.65 23.35 10.65 23.5 10.65 L23.5 10.65 M24.55 19.6 Q24.65 19.6 24.7 19.6 24.8 19.6 24.9 19.6 24.95 19.6 25.0 19.6 25.1 19.6 25.15 19.6 25.2 19.6 25.25 19.55 25.3 19.55 25.35 19.55 25.35 19.55 25.4 19.55 25.45 19.5 25.45 19.5 25.5 19.5 25.5 19.45 25.5 19.4 25.55 19.4 25.55 19.35 25.55 19.3 25.55 19.25 25.55 19.2 25.55 19.15 25.55 19.1 25.55 19.1 25.55 19.05 25.5 19.0 25.5 18.95 25.5 18.95 25.45 18.9 25.45 18.9 25.4 18.85 25.35 18.85 25.35 18.8 25.3 18.8 25.25 18.75 25.2 18.75 25.15 18.75 25.1 18.75 25.05 18.7 25.0 18.7 24.95 18.65 24.9 18.65 24.85 18.6 24.85 18.6 24.8 18.55 24.75 18.5 24.7 18.5 24.7 18.45 24.65 18.4 24.6 18.35 24.6 18.3 24.55 18.25 24.55 18.2 24.5 18.15 24.5 18.1 24.45 18.0 24.45 17.9 24.45 17.85 24.4 17.7 24.4 17.6 24.4 17.45 24.35 17.35 24.35 17.15 24.35 17.0 24.35 16.85 24.35 16.65 24.35 16.45 24.35 16.25 24.35 16.0 L24.4 13.0 Q24.4 12.85 24.4 12.7 24.4 12.6 24.4 12.5 24.4 12.35 24.4 12.25 24.4 12.2 24.35 12.1 24.35 12.05 24.35 11.95 24.35 11.9 24.3 11.85 24.3 11.85 24.25 11.8 24.25 11.8 24.25 11.8 24.2 11.8 24.15 11.8 24.1 11.75 24.1 11.75 24.05 11.75 24.0 11.75 23.95 11.75 23.95 11.75 23.9 11.75 23.85 11.75 23.8 11.75 23.75 11.8 23.75 11.8 23.7 11.85 23.6 11.9 22.65 12.1 22.5 12.1 22.4 12.15 22.3 12.15 22.2 12.15 22.1 12.2 22.05 12.2 21.95 12.25 21.9 12.25 21.8 12.3 21.8 12.35 21.75 12.35 21.7 12.4 21.65 12.4 21.65 12.45 21.65 12.5 21.65 12.55 21.65 12.55 21.65 12.6 21.65 12.6 21.65 12.65 21.65 12.65 21.7 12.7 21.7 12.7 21.7 12.75 21.75 12.75 21.75 12.75 21.8 12.8 21.8 12.8 21.85 12.85 21.9 12.85 21.9 12.9 21.95 12.9 22.0 12.9 22.05 12.95 22.1 12.95 22.1 12.95 22.15 13.0 22.2 13.0 22.2 13.0 22.25 13.05 22.25 13.05 22.3 13.05 22.3 13.05 22.3 13.1 22.35 13.1 22.35 13.1 22.35 13.1 22.35 13.1 22.4 13.1 22.5 13.3 22.5 13.3 22.5 13.35 22.5 13.35 22.5 13.35 22.55 13.4 22.55 13.4 22.55 13.45 22.55 13.45 22.55 13.5 22.55 13.5 22.55 13.55 22.6 13.55 22.6 13.6 22.6 13.6 22.6 13.65 22.6 13.7 22.65 14.05 22.7 15.8 L22.75 18.35 22.1 18.7 Q22.05 18.75 22.0 18.75 21.9 18.8 21.85 18.85 21.8 18.85 21.8 18.9 21.75 18.9 21.7 18.95 21.7 19.0 21.65 19.0 21.65 19.05 21.6 19.05 21.6 19.1 21.6 19.1 21.6 19.15 21.6 19.2 21.6 19.25 21.65 19.3 21.7 19.35 21.75 19.35 21.85 19.4 22.0 19.45 22.15 19.45 22.3 19.5 22.5 19.55 22.75 19.55 22.95 19.55 23.25 19.6 23.5 19.6 23.85 19.6 24.15 19.6 24.55 19.6 L24.55 19.6" fill="#ffffff" fill-rule="evenodd" stroke="none"/>
    <path d="M29.3 18.85 Q29.25 18.85 29.2 18.85 29.15 18.8 29.15 18.8 29.1 18.8 29.05 18.75 29.05 18.75 29.0 18.75 29.0 18.75 28.95 18.65 28.95 18.6 28.95 18.5 28.95 18.45 28.95 18.4 28.9 18.35 28.9 18.3 28.9 18.3 28.9 18.25 28.9 18.15 28.9 18.15 28.9 18.1 28.9 18.1 28.85 18.0 28.85 17.35 L28.8 16.7 28.75 13.0 29.5 13.1 Q30.3 13.25 30.35 13.3 30.35 13.3 30.4 13.35 30.4 13.35 30.4 13.35 30.45 13.35 30.45 13.35 30.5 13.35 30.5 13.35 30.5 13.3 30.55 13.3 30.55 13.3 30.6 13.25 30.6 13.25 30.65 13.2 30.7 13.2 30.7 13.15 30.75 13.1 30.75 13.05 30.8 13.0 30.8 13.0 30.85 12.95 30.85 12.9 30.9 12.85 30.9 12.85 30.95 12.8 30.95 12.75 30.95 12.75 30.95 12.7 30.95 12.65 30.95 12.6 30.95 12.6 30.95 12.55 30.95 12.5 30.95 12.45 30.95 12.4 30.95 12.35 30.95 12.35 30.9 12.3 30.9 12.3 30.85 12.25 30.8 12.25 30.75 12.2 30.55 12.15 29.85 12.15 L28.75 12.15 28.75 10.05 Q28.75 8.8 28.8 8.3 28.8 8.25 28.8 8.2 28.85 8.1 28.85 8.05 28.85 8.0 28.9 7.95 28.9 7.9 28.9 7.85 28.95 7.8 28.95 7.75 29.0 7.75 29.0 7.7 29.05 7.65 29.05 7.6 29.1 7.6 29.15 7.55 29.2 7.5 29.2 7.5 29.25 7.45 29.25 7.45 29.3 7.4 29.3 7.4 29.35 7.4 29.4 7.35 29.4 7.35 29.45 7.35 29.45 7.35 29.5 7.3 29.55 7.3 29.55 7.3 29.6 7.3 29.6 7.3 29.65 7.3 29.65 7.3 29.7 7.3 29.75 7.35 29.8 7.35 29.8 7.4 29.85 7.4 29.9 7.45 29.95 7.45 30.05 7.5 30.1 7.55 30.15 7.6 30.2 7.65 30.3 7.7 30.35 7.75 30.45 7.8 30.5 7.85 30.6 7.9 30.65 7.95 30.7 8.0 30.75 8.05 30.8 8.1 30.9 8.15 30.95 8.15 31.0 8.2 31.05 8.2 31.1 8.25 31.15 8.25 31.2 8.25 31.25 8.25 31.3 8.3 31.35 8.3 31.4 8.3 31.45 8.3 31.5 8.3 31.55 8.25 31.55 8.25 31.6 8.25 31.65 8.25 31.7 8.2 31.75 8.2 31.75 8.2 31.8 8.15 31.85 8.15 31.85 8.1 31.9 8.1 31.95 8.05 31.95 8.05 32.0 8.0 32.0 8.0 32.05 7.95 32.05 7.9 32.1 7.9 32.1 7.85 32.15 7.8 32.15 7.8 32.15 7.75 32.15 7.7 32.2 7.7 32.2 7.65 32.2 7.6 32.2 7.6 32.2 7.55 32.2 7.5 32.2 7.45 32.2 7.45 32.2 7.4 32.2 7.35 32.2 7.35 32.15 7.3 32.15 7.25 32.15 7.25 32.15 7.2 32.1 7.15 32.1 7.15 32.05 7.1 32.05 7.05 32.0 7.05 32.0 7.0 31.95 6.95 31.9 6.85 31.8 6.8 31.7 6.75 31.6 6.65 31.5 6.6 31.4 6.55 31.3 6.5 31.15 6.45 31.05 6.4 30.9 6.4 30.75 6.35 30.6 6.35 30.45 6.3 30.3 6.3 30.15 6.3 29.95 6.3 29.9 6.3 29.8 6.3 29.75 6.3 29.65 6.35 29.6 6.35 29.5 6.35 29.45 6.4 29.35 6.4 29.3 6.45 29.2 6.5 29.15 6.5 29.05 6.55 28.95 6.6 28.9 6.65 28.8 6.65 28.75 6.7 28.65 6.8 28.5 6.85 28.4 6.95 28.3 7.05 28.2 7.1 28.1 7.2 28.0 7.3 27.95 7.4 27.85 7.45 27.8 7.55 27.7 7.65 27.65 7.75 27.6 7.85 27.55 7.9 27.5 8.0 27.45 8.1 27.4 8.2 27.35 8.3 27.35 8.4 27.3 8.5 27.25 8.65 27.25 8.75 27.2 8.9 27.2 9.05 27.2 9.15 27.15 9.3 27.15 9.45 27.15 9.65 27.15 9.8 27.15 10.0 27.15 10.15 27.15 10.35 L27.15 12.15 26.45 12.15 Q26.35 12.15 26.25 12.15 26.15 12.15 26.1 12.2 26.0 12.2 25.95 12.2 25.85 12.25 25.8 12.25 25.75 12.3 25.75 12.35 25.7 12.4 25.65 12.45 25.65 12.5 25.6 12.55 25.6 12.6 25.6 12.65 25.6 12.7 25.6 12.75 25.65 12.8 25.65 12.8 25.7 12.85 25.75 12.85 25.8 12.9 25.85 12.9 25.9 12.95 26.0 12.95 26.05 12.95 26.2 12.95 26.3 12.95 26.45 12.95 L27.15 12.95 27.1 15.4 Q27.05 16.8 27.0 17.55 27.0 17.65 26.95 17.75 26.95 17.8 26.95 17.9 26.9 17.95 26.9 18.05 26.85 18.1 26.85 18.15 26.8 18.25 26.8 18.3 26.75 18.35 26.75 18.4 26.7 18.45 26.65 18.5 26.6 18.55 26.6 18.55 26.55 18.6 26.5 18.65 26.45 18.7 26.45 18.75 26.4 18.75 26.35 18.8 26.35 18.85 26.3 18.9 26.3 18.95 26.25 18.95 26.25 19.0 26.2 19.05 26.2 19.05 26.15 19.1 26.15 19.15 26.15 19.2 26.15 19.25 26.1 19.3 26.1 19.35 26.1 19.35 26.1 19.4 26.1 19.4 26.1 19.45 26.1 19.5 26.1 19.5 26.1 19.5 26.1 19.55 26.15 19.55 26.15 19.55 26.15 19.55 26.15 19.55 26.7 19.6 26.75 19.6 26.85 19.65 26.9 19.65 26.95 19.65 27.05 19.65 27.1 19.7 27.15 19.7 27.25 19.7 27.3 19.7 27.4 19.7 27.5 19.7 27.55 19.7 27.65 19.7 27.75 19.7 27.85 19.65 27.95 19.65 L29.55 19.55 Q29.6 19.55 29.65 19.6 29.65 19.6 29.7 19.6 29.75 19.6 29.8 19.6 29.85 19.55 29.85 19.55 29.9 19.5 29.9 19.5 29.95 19.45 29.95 19.4 29.95 19.35 29.95 19.3 29.95 19.25 29.95 19.2 29.95 19.15 29.9 19.1 29.9 19.05 29.85 19.0 29.85 19.0 29.8 18.95 29.75 18.9 29.7 18.9 29.65 18.9 29.6 18.85 29.5 18.85 29.45 18.85 29.4 18.85 29.3 18.85 L29.3 18.85" fill="#ffffff" fill-rule="evenodd" stroke="none"/>
    <path d="M35.8 19.2 Q35.8 19.2 35.8 19.15 35.75 19.15 35.75 19.15 35.75 19.1 35.7 19.1 35.7 19.05 35.65 19.05 35.6 19.0 35.55 19.0 35.5 18.95 35.45 18.95 35.4 18.9 35.35 18.85 35.3 18.85 35.2 18.8 35.15 18.75 35.05 18.75 35.0 18.7 34.95 18.7 34.9 18.65 34.85 18.6 34.8 18.6 34.75 18.55 34.7 18.55 34.65 18.5 34.65 18.5 34.6 18.45 34.55 18.45 34.55 18.4 34.5 18.35 34.5 18.35 34.5 18.3 34.45 18.25 34.45 18.2 34.45 18.1 34.4 18.0 34.4 17.85 34.4 17.75 34.4 17.55 34.4 17.4 34.4 17.2 34.35 17.0 34.35 16.75 34.35 16.5 34.35 16.25 34.35 15.95 34.35 15.65 L34.35 13.2 35.25 13.2 Q35.45 13.2 35.55 13.2 35.7 13.2 35.8 13.15 35.85 13.15 35.95 13.15 36.0 13.1 36.05 13.1 36.05 13.1 36.1 13.05 36.1 13.05 36.1 13.05 36.1 13.0 36.15 13.0 36.15 13.0 36.15 12.95 36.15 12.9 36.15 12.9 36.15 12.85 36.2 12.85 36.2 12.8 36.2 12.75 36.2 12.7 36.2 12.7 36.2 12.65 36.2 12.6 36.2 12.55 36.15 12.5 36.15 12.45 36.15 12.4 36.15 12.35 36.1 12.35 36.1 12.3 36.1 12.3 36.05 12.25 36.05 12.25 36.0 12.25 36.0 12.25 36.0 12.25 35.9 12.2 35.85 12.2 35.8 12.2 35.7 12.2 35.55 12.15 35.45 12.15 35.3 12.15 L34.4 12.15 34.3 11.2 Q34.3 11.1 34.3 10.95 34.25 10.85 34.25 10.75 34.25 10.7 34.2 10.6 34.2 10.55 34.2 10.45 34.15 10.4 34.15 10.35 34.1 10.3 34.05 10.3 34.05 10.25 34.0 10.25 33.95 10.2 33.95 10.2 33.9 10.2 33.9 10.2 33.85 10.25 33.8 10.25 33.8 10.25 33.75 10.3 33.7 10.3 33.7 10.35 33.65 10.4 33.6 10.45 33.55 10.5 33.5 10.55 33.45 10.6 33.4 10.65 33.35 10.7 33.3 10.8 33.25 10.85 33.2 10.95 33.15 11.0 33.1 11.05 33.05 11.15 32.95 11.2 32.9 11.25 32.8 11.35 32.75 11.4 32.65 11.5 32.6 11.55 32.5 11.6 32.4 11.7 32.3 11.75 32.2 11.8 32.1 11.9 32.0 11.95 31.95 12.0 31.85 12.05 31.8 12.1 31.7 12.15 31.65 12.2 31.6 12.25 31.55 12.3 31.5 12.35 31.45 12.4 31.45 12.45 31.4 12.5 31.4 12.55 31.35 12.6 31.35 12.6 31.35 12.65 31.35 12.7 31.35 12.7 31.35 12.75 31.4 12.8 31.4 12.8 31.45 12.85 31.5 12.9 31.5 12.9 31.55 12.95 31.6 12.95 31.65 13.0 31.7 13.0 31.75 13.05 31.85 13.05 31.9 13.1 32.0 13.1 L32.65 13.3 32.75 18.45 32.15 18.75 Q32.05 18.8 32.0 18.8 31.95 18.85 31.9 18.9 31.85 18.95 31.8 18.95 31.75 19.0 31.7 19.05 31.65 19.05 31.65 19.1 31.6 19.1 31.6 19.15 31.6 19.15 31.55 19.2 31.55 19.2 31.55 19.25 31.55 19.3 31.6 19.3 31.6 19.35 31.7 19.4 31.75 19.4 31.85 19.45 31.95 19.45 32.1 19.5 32.2 19.5 32.4 19.5 32.55 19.55 32.75 19.55 32.95 19.55 33.2 19.55 33.4 19.55 33.65 19.55 33.9 19.55 34.15 19.55 34.4 19.55 34.6 19.55 34.8 19.5 34.95 19.5 35.1 19.5 35.25 19.45 35.4 19.45 35.5 19.4 35.6 19.4 35.65 19.35 35.7 19.35 35.75 19.3 35.8 19.25 35.8 19.2 L35.8 19.2" fill="#ffffff" fill-rule="evenodd" stroke="none"/>
  </g>
</svg>
