<?xml version="1.0" encoding="UTF-8" standalone="no"?>
<svg xmlns:ffdec="https://www.free-decompiler.com/flash" xmlns:xlink="http://www.w3.org/1999/xlink" ffdec:objectType="shape" height="26.0px" width="26.0px" xmlns="http://www.w3.org/2000/svg">
  <g transform="matrix(1.0, 0.0, 0.0, 1.0, 0.0, 0.0)">
    <path d="M4.1 22.0 Q4.15 22.0 4.15 22.0 4.2 22.0 4.25 21.95 4.3 21.95 4.35 21.95 4.4 21.9 4.4 21.9 4.45 21.9 4.5 21.85 4.55 21.85 4.6 21.8 4.65 21.75 4.75 21.75 4.8 21.7 4.85 21.65 4.9 21.6 4.95 21.6 5.05 21.55 5.1 21.5 5.15 21.5 5.2 21.45 5.25 21.45 5.3 21.4 5.35 21.4 5.4 21.4 5.45 21.35 5.5 21.35 5.55 21.35 5.6 21.35 5.65 21.35 5.7 21.35 6.05 21.35 7.45 21.65 8.1 21.8 8.6 21.9 9.1 21.95 9.4 21.95 9.45 21.95 9.55 21.95 9.6 21.95 9.65 21.95 9.75 21.95 9.8 21.95 9.85 21.9 9.9 21.9 9.95 21.9 10.0 21.9 10.05 21.9 10.1 21.85 10.15 21.85 10.2 21.85 10.25 21.85 10.3 21.8 10.45 21.75 10.6 21.65 10.75 21.55 10.85 21.45 11.0 21.35 11.1 21.2 11.2 21.1 11.25 20.95 11.35 20.8 11.4 20.65 11.45 20.5 11.5 20.3 11.55 20.15 11.55 19.95 11.6 19.75 11.6 19.55 11.6 19.35 11.6 19.15 11.6 18.95 11.55 18.8 11.55 18.65 11.5 18.5 11.45 18.4 11.45 18.25 11.4 18.15 11.35 18.1 11.3 18.0 11.2 17.95 11.15 17.9 11.1 17.85 11.0 17.85 10.9 17.85 10.85 17.85 10.85 17.85 10.8 17.85 10.75 17.9 10.7 17.9 10.7 17.9 10.65 17.95 10.6 17.95 10.6 18.0 10.55 18.05 10.55 18.05 10.5 18.1 10.45 18.15 10.45 18.2 10.4 18.25 10.4 18.35 10.35 18.4 10.35 18.45 10.3 18.5 10.3 18.55 10.25 18.6 10.2 18.65 10.2 18.7 10.15 18.7 10.1 18.75 10.1 18.8 10.05 18.8 10.0 18.85 9.95 18.85 9.9 18.9 9.9 18.9 9.85 18.9 9.8 18.9 9.75 18.95 9.7 18.95 9.6 18.95 9.55 18.95 9.5 19.0 9.4 19.0 9.35 19.0 9.25 19.0 9.15 19.0 9.05 19.0 8.95 19.0 8.85 19.0 8.75 19.0 8.65 19.0 8.5 19.0 7.5 19.05 5.9 19.25 5.9 19.25 5.85 19.25 5.85 19.25 5.8 19.3 5.8 19.3 5.8 19.3 5.75 19.3 5.75 19.35 5.7 19.35 5.7 19.35 5.65 19.4 5.65 19.4 5.6 19.45 5.6 19.45 5.55 19.5 5.55 19.5 5.55 19.45 5.55 19.4 5.6 19.35 5.6 19.3 5.6 19.25 5.6 19.2 5.6 19.15 5.65 19.1 5.65 19.05 5.65 19.0 5.7 19.0 5.7 18.95 5.7 18.9 5.7 18.9 5.75 18.85 5.75 18.85 6.2 18.25 7.3 17.05 L8.7 15.7 Q9.0 15.4 9.25 15.15 9.5 14.9 9.7 14.65 9.95 14.45 10.15 14.2 10.35 14.0 10.5 13.8 10.7 13.6 10.8 13.4 10.95 13.25 11.05 13.1 11.2 12.9 11.25 12.8 11.35 12.65 11.4 12.5 11.45 12.45 11.45 12.4 11.45 12.35 11.5 12.3 11.5 12.25 11.5 12.2 11.55 12.15 11.55 12.1 11.55 12.0 11.55 11.95 11.6 11.9 11.6 11.85 11.6 11.75 11.6 11.7 11.6 11.6 11.6 11.55 11.6 11.5 11.6 11.4 11.6 11.3 11.55 11.25 11.55 11.15 11.55 11.1 11.5 11.0 11.5 10.9 11.45 10.8 11.45 10.75 11.4 10.65 11.35 10.55 11.35 10.45 11.3 10.35 11.25 10.25 11.2 10.15 11.1 9.95 11.0 9.8 10.9 9.65 10.75 9.5 10.65 9.35 10.5 9.25 10.35 9.1 10.2 9.0 10.05 8.85 9.85 8.75 9.65 8.65 9.45 8.6 9.25 8.5 9.0 8.4 8.8 8.35 8.55 8.3 8.45 8.3 8.4 8.25 8.35 8.25 8.25 8.25 8.2 8.25 8.1 8.2 8.05 8.2 7.95 8.2 7.9 8.2 7.85 8.2 7.75 8.2 7.7 8.2 7.6 8.15 7.55 8.15 7.45 8.15 7.4 8.15 7.25 8.15 7.1 8.15 6.95 8.2 6.8 8.2 6.65 8.2 6.5 8.25 6.35 8.3 6.25 8.35 6.1 8.35 5.95 8.4 5.85 8.45 5.7 8.55 5.55 8.6 5.45 8.65 5.3 8.75 5.2 8.85 5.0 9.0 4.85 9.1 4.65 9.25 4.5 9.35 4.35 9.5 4.25 9.65 4.15 9.75 4.05 9.9 3.95 10.05 3.85 10.15 3.8 10.3 3.75 10.45 3.7 10.6 3.65 10.7 3.65 10.85 3.65 11.0 3.65 11.05 3.65 11.05 3.65 11.1 3.65 11.15 3.65 11.2 3.65 11.2 3.65 11.25 3.65 11.3 3.65 11.35 3.7 11.35 3.7 11.4 3.7 11.45 3.7 11.45 3.7 11.5 3.75 11.55 3.75 11.6 3.8 11.75 3.85 11.85 3.9 11.95 4.0 12.05 4.05 12.15 4.1 12.2 4.2 12.3 4.3 12.35 4.4 12.45 4.5 12.45 4.6 12.5 4.7 12.55 4.8 12.6 4.95 12.6 5.05 12.6 5.2 12.6 5.25 12.6 5.25 12.6 5.3 12.6 5.35 12.6 5.4 12.6 5.4 12.6 5.45 12.55 5.5 12.55 5.55 12.55 5.6 12.55 5.65 12.5 5.7 12.5 5.75 12.5 5.8 12.45 5.85 12.45 5.9 12.4 5.95 12.35 6.0 12.35 6.05 12.3 6.05 12.25 6.1 12.2 6.15 12.15 6.15 12.1 6.2 12.05 6.2 12.0 6.25 11.9 6.25 11.85 6.25 11.8 6.25 11.7 6.3 11.6 6.3 11.55 6.3 11.45 6.3 11.35 6.3 11.3 6.3 11.2 6.25 11.1 6.25 11.05 6.25 10.95 6.25 10.9 6.2 10.85 6.2 10.75 6.15 10.7 6.15 10.65 6.1 10.6 6.1 10.55 6.05 10.5 6.05 10.45 6.0 10.45 5.95 10.4 5.95 10.4 5.95 10.35 5.9 10.3 5.9 10.25 5.9 10.2 5.9 10.2 5.9 10.15 5.9 10.15 5.95 10.1 5.95 10.05 5.95 10.05 6.0 10.0 6.05 10.0 6.05 9.95 6.1 9.9 6.15 9.9 6.15 9.85 6.2 9.8 6.25 9.75 6.3 9.75 6.35 9.7 6.4 9.65 6.45 9.6 6.5 9.55 6.6 9.5 6.65 9.5 6.7 9.45 6.75 9.4 6.8 9.4 6.85 9.4 6.9 9.35 6.95 9.35 7.0 9.35 7.1 9.3 7.15 9.3 7.2 9.3 7.25 9.3 7.3 9.3 7.35 9.3 7.4 9.35 7.5 9.35 7.55 9.35 7.6 9.4 7.65 9.45 7.75 9.45 7.8 9.5 7.85 9.55 7.95 9.6 8.0 9.65 8.1 9.75 8.15 9.8 8.25 9.85 8.3 9.95 8.4 10.05 8.45 10.1 8.55 10.2 8.6 10.3 8.65 10.45 8.7 10.55 8.75 10.65 8.8 10.8 8.85 10.95 8.85 11.05 8.9 11.2 8.9 11.35 8.95 11.55 8.95 11.7 8.95 11.85 8.95 12.05 8.95 12.1 8.95 12.15 8.95 12.2 8.95 12.3 8.9 12.35 8.9 12.4 8.9 12.45 8.9 12.55 8.85 12.6 8.85 12.65 8.8 12.75 8.8 12.8 8.75 12.85 8.75 12.95 8.7 13.0 8.7 13.05 8.3 13.7 6.55 15.55 6.2 15.95 5.85 16.3 5.55 16.65 5.25 17.0 5.0 17.35 4.75 17.7 4.55 18.05 4.35 18.35 4.15 18.7 4.05 19.0 3.9 19.3 3.8 19.6 3.7 19.9 3.65 20.2 3.6 20.45 3.6 20.75 3.6 20.9 3.6 21.05 3.6 21.15 3.65 21.3 3.65 21.4 3.7 21.5 3.7 21.6 3.75 21.65 3.75 21.75 3.8 21.8 3.85 21.85 3.9 21.9 3.95 21.95 4.0 21.95 4.05 22.0 4.1 22.0 L4.1 22.0" fill="#ffffff" fill-rule="evenodd" stroke="none"/>
    <path d="M16.95 13.75 Q16.9 13.75 16.85 13.75 16.8 13.75 16.75 13.75 16.7 13.75 16.65 13.7 16.6 13.7 16.55 13.7 16.5 13.7 16.45 13.7 16.4 13.7 16.35 13.65 16.3 13.65 16.25 13.65 16.2 13.65 16.1 13.6 16.05 13.6 16.0 13.55 15.95 13.55 15.9 13.5 15.8 13.5 15.75 13.45 15.7 13.4 15.6 13.35 15.55 13.3 15.45 13.25 15.4 13.2 15.3 13.1 15.25 13.05 15.15 12.95 15.05 12.9 14.95 12.8 14.85 12.7 14.8 12.6 14.7 12.55 14.65 12.45 14.55 12.35 14.5 12.25 14.45 12.2 14.4 12.1 14.35 12.0 14.3 11.9 14.25 11.85 14.2 11.75 14.15 11.7 14.1 11.6 14.05 11.5 14.05 11.45 14.0 11.35 14.0 11.3 13.95 11.2 13.95 11.1 13.9 11.05 13.9 10.95 13.85 10.9 13.85 10.8 13.85 10.7 13.8 10.65 13.8 10.55 13.8 10.45 13.8 10.4 13.8 10.3 13.8 10.2 13.8 10.1 13.8 10.0 13.8 9.95 13.8 9.85 13.8 9.75 13.8 9.65 13.85 9.6 13.85 9.5 13.85 9.4 13.85 9.3 13.9 9.2 13.9 9.15 13.95 9.05 13.95 8.95 14.0 8.85 14.0 8.75 14.05 8.65 14.1 8.45 14.2 8.3 14.25 8.1 14.3 7.95 14.4 7.75 14.5 7.6 14.55 7.45 14.65 7.3 14.75 7.2 14.85 7.05 14.95 6.95 15.05 6.8 15.15 6.7 15.3 6.6 15.4 6.5 15.55 6.45 15.65 6.35 15.8 6.3 15.9 6.2 16.05 6.15 16.15 6.1 16.3 6.05 16.45 6.0 16.55 5.95 16.7 5.9 16.8 5.85 16.95 5.85 17.1 5.8 17.2 5.8 17.35 5.8 17.45 5.75 17.6 5.75 17.75 5.75 17.85 5.75 18.0 5.75 18.1 5.8 18.25 5.8 18.35 5.8 18.5 5.85 18.6 5.9 18.7 5.9 18.8 5.95 18.9 6.0 19.0 6.0 19.1 6.05 19.2 6.1 19.25 6.15 19.35 6.25 19.45 6.3 19.5 6.35 19.6 6.4 19.65 6.45 19.75 6.55 19.8 6.6 19.85 6.65 19.95 6.7 20.0 6.8 20.05 6.85 20.1 6.9 20.2 7.0 20.25 7.05 20.3 7.1 20.35 7.2 20.4 7.25 20.45 7.35 20.45 7.4 20.5 7.5 20.55 7.55 20.55 7.65 20.6 7.75 20.6 7.85 20.65 7.95 20.65 8.0 20.7 8.1 20.7 8.2 20.7 8.3 20.7 8.4 20.75 8.55 20.75 8.65 20.75 8.75 20.75 8.85 20.75 8.95 20.75 9.05 20.7 9.2 20.7 9.3 20.7 9.4 20.65 9.5 20.65 9.6 20.65 9.7 20.6 9.8 20.55 9.9 20.55 10.0 20.5 10.1 20.45 10.2 20.45 10.3 20.4 10.4 20.35 10.5 20.3 10.6 20.25 10.7 20.2 10.75 20.15 10.85 20.1 10.9 20.05 10.95 20.0 11.05 19.95 11.1 19.85 11.1 19.8 11.15 19.75 11.2 19.7 11.25 19.6 11.25 19.55 11.25 19.5 11.25 19.45 11.25 19.4 11.25 19.35 11.3 19.3 11.3 19.3 11.3 19.25 11.3 19.2 11.25 19.2 11.25 19.15 11.25 19.15 11.25 19.15 11.2 19.15 11.2 19.15 11.15 19.15 11.15 L19.15 10.95 Q19.15 10.75 19.2 10.0 19.3 9.05 19.45 8.55 19.6 7.85 19.6 7.6 19.6 7.55 19.6 7.5 19.6 7.45 19.6 7.45 19.55 7.4 19.55 7.4 19.55 7.35 19.5 7.35 19.5 7.3 19.45 7.3 19.45 7.3 19.4 7.3 19.35 7.3 19.35 7.3 19.3 7.3 19.1 7.4 19.05 7.45 19.0 7.45 19.0 7.45 18.95 7.5 18.9 7.5 18.85 7.5 18.85 7.5 18.8 7.55 18.75 7.55 18.7 7.55 18.65 7.55 18.65 7.55 18.6 7.55 18.55 7.55 18.55 7.55 18.5 7.55 18.45 7.5 18.45 7.5 18.4 7.5 18.35 7.5 18.35 7.5 18.3 7.45 18.25 7.45 18.2 7.45 18.2 7.45 18.15 7.4 18.1 7.4 18.05 7.35 18.05 7.35 18.0 7.35 17.95 7.35 17.9 7.35 17.85 7.3 17.8 7.3 17.75 7.3 17.75 7.3 17.7 7.3 17.65 7.3 17.6 7.3 17.55 7.3 17.5 7.3 17.45 7.3 17.3 7.3 17.15 7.3 17.0 7.35 16.85 7.4 16.7 7.4 16.55 7.5 16.4 7.55 16.25 7.65 16.15 7.7 16.0 7.8 15.85 7.95 15.7 8.05 15.6 8.2 15.45 8.35 15.3 8.5 15.2 8.65 15.15 8.7 15.1 8.8 15.05 8.9 15.0 8.95 14.95 9.05 14.95 9.1 14.9 9.2 14.85 9.3 14.85 9.35 14.8 9.45 14.8 9.55 14.8 9.65 14.75 9.7 14.75 9.8 14.75 9.9 14.75 10.0 14.75 10.1 14.75 10.2 14.75 10.3 14.75 10.35 14.8 10.45 14.8 10.55 14.8 10.65 14.8 10.7 14.85 10.8 14.85 10.85 14.85 10.9 14.9 11.0 14.9 11.05 14.95 11.1 15.0 11.2 15.0 11.25 15.05 11.3 15.05 11.35 15.1 11.4 15.15 11.45 15.15 11.45 15.2 11.5 15.25 11.55 15.25 11.6 15.3 11.6 15.3 11.65 15.35 11.65 15.35 11.7 15.4 11.7 15.4 11.75 15.45 11.75 15.45 11.75 15.5 11.8 15.55 11.8 15.65 11.85 15.7 11.9 15.75 11.9 15.85 11.95 15.9 11.95 16.0 12.0 16.1 12.0 16.2 12.0 16.3 12.0 16.4 12.05 16.5 12.05 16.6 12.05 16.75 12.05 16.85 12.05 16.9 12.05 16.95 12.05 16.95 12.05 17.0 12.05 17.05 12.05 17.1 12.0 17.15 12.0 17.15 12.0 17.2 12.0 17.25 12.0 17.25 11.95 17.3 11.95 17.35 11.95 17.35 11.9 17.4 11.9 17.45 11.9 17.5 11.9 17.5 11.85 17.55 11.85 17.55 11.85 17.6 11.8 17.6 11.8 17.65 11.8 17.65 11.8 17.7 11.8 17.7 11.85 17.75 11.85 17.75 11.85 17.8 11.85 17.8 11.9 17.85 11.9 17.85 11.95 17.9 12.0 17.95 12.05 18.0 12.1 18.05 12.15 18.1 12.15 18.15 12.15 L18.4 12.15 Q18.5 12.15 19.25 12.0 19.35 12.0 19.45 11.95 19.55 11.95 19.65 11.9 19.75 11.85 19.85 11.8 19.95 11.75 20.0 11.7 20.1 11.65 20.2 11.6 20.3 11.55 20.4 11.5 20.5 11.4 20.55 11.35 20.65 11.3 20.75 11.2 20.85 11.1 20.9 11.05 21.0 10.95 21.1 10.85 21.15 10.8 21.2 10.7 21.25 10.6 21.35 10.55 21.4 10.45 21.4 10.35 21.45 10.3 21.5 10.2 21.55 10.15 21.55 10.05 21.6 9.95 21.6 9.9 21.6 9.8 21.65 9.75 21.65 9.65 21.65 9.55 21.65 9.5 21.65 9.4 21.7 9.3 21.7 9.25 21.7 9.15 21.7 9.1 21.7 9.0 21.7 8.9 21.7 8.85 21.7 8.75 21.7 8.7 21.7 8.6 21.7 8.5 21.7 8.45 21.7 8.35 21.7 8.25 21.7 8.2 21.65 8.1 21.65 8.0 21.65 7.95 21.6 7.85 21.6 7.75 21.55 7.65 21.55 7.6 21.5 7.5 21.5 7.4 21.45 7.3 21.4 7.2 21.35 7.05 21.25 6.95 21.2 6.8 21.1 6.7 21.05 6.55 20.95 6.45 20.85 6.35 20.75 6.2 20.65 6.1 20.55 6.0 20.45 5.9 20.3 5.85 20.2 5.75 20.05 5.65 19.9 5.6 19.75 5.5 19.65 5.45 19.55 5.4 19.45 5.35 19.3 5.3 19.2 5.25 19.05 5.2 18.9 5.2 18.75 5.15 18.6 5.15 18.45 5.1 18.3 5.1 18.1 5.05 17.95 5.05 17.75 5.05 17.6 5.05 17.4 5.05 17.2 5.05 17.0 5.05 16.85 5.1 16.65 5.1 16.45 5.15 16.3 5.2 16.1 5.25 15.9 5.3 15.75 5.4 15.55 5.45 15.4 5.55 15.2 5.65 15.05 5.75 14.85 5.9 14.7 6.0 14.55 6.15 14.3 6.35 14.1 6.55 13.9 6.75 13.75 6.95 13.6 7.15 13.45 7.4 13.3 7.6 13.2 7.85 13.05 8.05 13.0 8.3 12.9 8.55 12.85 8.85 12.8 9.1 12.75 9.35 12.75 9.65 12.75 9.95 12.75 10.1 12.75 10.25 12.75 10.4 12.75 10.55 12.75 10.7 12.8 10.8 12.8 10.95 12.85 11.05 12.85 11.2 12.9 11.3 12.9 11.45 12.95 11.55 13.0 11.65 13.05 11.75 13.1 11.9 13.15 11.95 13.25 12.1 13.35 12.25 13.4 12.45 13.5 12.55 13.6 12.7 13.7 12.85 13.8 13.0 13.9 13.1 14.05 13.2 14.15 13.3 14.25 13.45 14.4 13.55 14.5 13.6 14.65 13.7 14.75 13.8 14.9 13.85 15.05 13.95 15.15 14.0 15.3 14.05 15.45 14.15 15.55 14.2 15.7 14.25 15.85 14.3 15.95 14.3 16.1 14.35 16.25 14.4 16.35 14.4 16.5 14.45 16.65 14.45 16.75 14.45 16.9 14.5 17.05 14.5 17.25 14.5 17.45 14.45 17.6 14.45 17.8 14.4 18.0 14.4 18.2 14.3 18.35 14.25 18.55 14.2 18.7 14.15 18.9 14.05 19.05 13.95 19.2 13.85 19.4 13.75 19.55 13.6 19.7 13.5 19.85 13.35 19.9 13.3 20.0 13.25 20.05 13.15 20.1 13.1 20.15 13.05 20.2 13.0 20.25 12.95 20.3 12.95 20.3 12.9 20.35 12.85 20.35 12.8 20.4 12.8 20.4 12.75 20.4 12.7 20.4 12.7 20.4 12.7 20.4 12.65 20.4 12.65 20.4 12.6 20.35 12.6 20.3 12.6 20.25 12.6 20.2 12.6 20.2 12.6 20.15 12.6 20.1 12.65 20.1 12.65 20.05 12.65 20.0 12.7 19.95 12.7 19.9 12.75 19.8 12.8 19.75 12.8 19.7 12.85 19.6 12.9 19.55 12.95 19.45 13.0 19.4 13.05 19.3 13.1 19.25 13.15 19.15 13.2 19.05 13.25 18.95 13.3 18.9 13.3 18.8 13.35 18.7 13.4 18.65 13.45 18.55 13.45 18.45 13.5 18.4 13.5 18.3 13.55 18.2 13.55 18.1 13.6 18.05 13.6 17.95 13.6 17.9 13.65 17.8 13.65 17.7 13.65 17.65 13.65 17.55 13.7 17.5 13.7 17.4 13.7 17.35 13.7 17.3 13.7 17.25 13.7 17.15 13.75 17.1 13.75 17.05 13.75 17.0 13.75 16.95 13.75 L16.95 13.75 M17.6 11.0 Q17.55 11.05 17.5 11.05 17.45 11.1 17.45 11.15 17.4 11.15 17.35 11.2 17.3 11.2 17.25 11.2 17.2 11.25 17.2 11.25 17.15 11.25 17.1 11.25 17.05 11.3 17.05 11.3 17.0 11.3 16.95 11.3 16.9 11.3 16.9 11.3 16.85 11.3 16.8 11.25 16.8 11.25 16.75 11.25 16.7 11.25 16.7 11.2 16.65 11.2 16.6 11.15 16.55 11.15 16.5 11.1 16.5 11.05 16.45 11.0 16.4 11.0 16.35 10.95 16.3 10.9 16.25 10.85 16.2 10.8 16.2 10.75 16.15 10.7 16.1 10.65 16.1 10.55 16.05 10.5 16.05 10.45 16.0 10.35 16.0 10.3 16.0 10.25 16.0 10.15 16.0 10.1 15.95 10.0 15.95 9.9 15.95 9.8 15.95 9.75 15.95 9.65 16.0 9.6 16.0 9.5 16.0 9.45 16.0 9.35 16.05 9.3 16.05 9.2 16.1 9.15 16.1 9.05 16.15 9.0 16.15 8.95 16.2 8.85 16.2 8.8 16.25 8.75 16.3 8.65 16.35 8.55 16.4 8.5 16.5 8.4 16.55 8.35 16.6 8.25 16.7 8.2 16.75 8.15 16.85 8.1 16.95 8.1 17.0 8.05 17.1 8.0 17.2 8.0 17.3 8.0 17.4 7.95 17.5 7.95 17.55 7.95 17.55 7.95 17.6 7.95 17.65 8.0 17.65 8.0 17.7 8.0 17.7 8.0 17.75 8.05 17.8 8.05 17.8 8.05 17.85 8.1 17.85 8.1 17.9 8.15 17.9 8.15 17.95 8.2 18.0 8.25 18.0 8.3 18.05 8.3 18.05 8.35 18.05 8.35 18.1 8.4 18.1 8.45 18.1 8.5 18.15 8.5 18.15 8.55 18.15 8.6 18.15 8.65 18.15 8.7 18.15 8.75 18.2 8.8 18.2 8.85 18.2 8.9 18.2 9.1 18.2 9.3 18.15 9.5 18.15 9.65 18.15 9.8 18.1 9.95 18.1 10.1 18.05 10.25 18.0 10.35 17.95 10.5 17.9 10.6 17.85 10.7 17.8 10.8 17.75 10.85 17.7 10.95 17.6 11.0 L17.6 11.0" fill="#ffffff" fill-rule="evenodd" stroke="none"/>
  </g>
</svg>
