<?xml version="1.0" encoding="UTF-8" standalone="no"?>
<svg xmlns:ffdec="https://www.free-decompiler.com/flash" xmlns:xlink="http://www.w3.org/1999/xlink" ffdec:objectType="shape" height="26.0px" width="26.0px" xmlns="http://www.w3.org/2000/svg">
  <g transform="matrix(1.0, 0.0, 0.0, 1.0, 0.0, 0.0)">
    <path d="M14.15 6.05 Q11.95 6.05 11.65 5.9 11.6 5.9 11.6 5.9 11.55 5.85 11.55 5.85 11.5 5.85 11.5 5.8 11.45 5.8 11.45 5.75 11.45 5.75 11.4 5.75 11.4 5.7 11.4 5.7 11.35 5.65 11.35 5.6 11.35 5.6 11.35 5.55 11.35 5.5 11.3 5.45 11.3 5.4 11.25 5.35 11.25 5.3 11.2 5.3 11.2 5.25 11.15 5.2 11.1 5.2 11.1 5.15 11.05 5.15 11.0 5.15 10.95 5.1 10.9 5.1 10.9 5.1 10.85 5.1 10.8 5.1 10.75 5.1 10.7 5.1 10.65 5.15 10.6 5.15 10.55 5.15 10.5 5.2 10.5 5.25 10.45 5.25 10.4 5.3 10.4 5.35 10.35 5.4 10.3 5.45 10.3 5.5 10.25 5.55 10.25 5.6 10.15 5.9 10.05 6.15 9.95 6.4 9.85 6.65 9.75 6.9 9.7 7.1 9.6 7.3 9.55 7.5 9.5 7.7 9.45 7.9 9.4 8.05 9.35 8.2 9.35 8.35 9.35 8.5 9.3 8.65 9.3 8.75 9.3 8.8 9.3 8.85 9.3 8.85 9.3 8.9 9.3 8.95 9.35 8.95 9.35 9.0 9.35 9.05 9.35 9.05 9.35 9.1 9.4 9.15 9.4 9.15 9.4 9.2 9.45 9.2 9.45 9.25 9.45 9.25 9.5 9.3 9.5 9.3 9.55 9.3 9.6 9.35 9.6 9.35 9.65 9.35 9.7 9.35 9.75 9.3 9.8 9.3 9.8 9.3 10.0 9.2 10.7 8.45 10.75 8.35 10.85 8.3 10.9 8.2 11.0 8.15 11.05 8.05 11.15 8.0 11.2 7.9 11.3 7.85 11.35 7.8 11.45 7.75 11.55 7.7 11.6 7.65 11.7 7.6 11.8 7.55 11.85 7.5 11.95 7.5 12.05 7.45 12.15 7.45 12.25 7.4 12.35 7.4 12.45 7.35 12.6 7.35 12.7 7.35 12.85 7.3 12.95 7.3 13.1 7.3 13.25 7.25 13.45 7.25 13.6 7.25 13.75 7.25 13.95 7.25 14.1 7.25 14.15 7.25 14.2 7.25 14.25 7.25 14.3 7.25 14.3 7.25 14.35 7.25 14.4 7.25 14.4 7.3 14.45 7.3 14.45 7.3 14.5 7.3 14.5 7.3 14.5 7.35 14.5 7.35 14.5 7.35 14.5 7.4 14.55 7.5 11.5 13.1 8.5 18.75 8.5 19.05 8.5 19.1 8.5 19.15 8.5 19.2 8.55 19.25 8.55 19.3 8.55 19.35 8.55 19.35 8.6 19.4 8.6 19.45 8.65 19.5 8.65 19.5 8.7 19.55 8.7 19.55 8.75 19.6 8.8 19.6 8.8 19.6 8.85 19.65 8.9 19.65 8.9 19.7 8.95 19.7 9.0 19.75 9.05 19.75 9.1 19.75 9.2 19.8 9.25 19.8 9.3 19.8 9.35 19.85 9.45 19.85 9.5 19.85 9.55 19.85 9.65 19.9 9.7 19.9 10.4 19.95 12.25 19.95 14.3 19.95 14.75 20.05 14.8 20.05 14.85 20.05 14.95 20.1 15.0 20.1 15.05 20.15 15.1 20.15 15.15 20.15 15.2 20.2 15.25 20.25 15.25 20.25 15.3 20.3 15.35 20.35 15.4 20.35 15.4 20.4 15.45 20.45 15.5 20.5 15.55 20.55 15.55 20.6 15.6 20.6 15.6 20.65 15.65 20.7 15.65 20.7 15.7 20.75 15.7 20.75 15.7 20.8 15.75 20.8 15.75 20.8 15.75 20.85 15.8 20.85 15.8 20.85 15.8 20.85 15.8 20.85 15.85 20.9 15.85 20.9 15.9 20.9 15.95 20.9 15.95 20.9 15.95 20.9 16.0 20.9 16.0 20.9 16.0 20.85 16.0 20.85 16.05 20.85 16.05 20.85 16.1 20.8 16.1 20.8 16.15 20.75 16.15 20.75 16.15 20.7 16.2 20.7 16.25 20.65 16.25 20.65 16.3 20.6 16.3 20.55 16.35 20.5 16.4 20.45 16.45 20.35 16.5 20.25 16.55 20.15 16.6 20.05 16.6 19.9 16.65 19.8 16.7 19.65 16.8 19.5 16.85 19.35 16.9 19.15 16.95 18.95 17.0 18.75 17.5 17.15 17.5 16.9 17.45 16.6 17.45 16.6 17.45 16.55 17.4 16.5 17.4 16.5 17.35 16.45 17.3 16.45 17.3 16.4 17.25 16.4 17.2 16.4 17.2 16.35 17.15 16.35 17.1 16.35 17.1 16.35 17.05 16.4 17.0 16.4 16.95 16.4 16.9 16.45 16.85 16.45 16.8 16.5 16.8 16.5 16.75 16.55 16.7 16.6 16.65 16.65 16.55 16.7 16.5 16.75 16.45 16.8 16.4 16.85 16.3 16.9 16.25 17.0 16.15 17.05 16.1 17.15 16.0 17.2 15.95 17.3 15.8 17.5 15.6 17.65 15.4 17.8 15.25 17.95 15.05 18.05 14.85 18.15 14.65 18.3 14.4 18.4 14.2 18.45 14.0 18.55 13.75 18.6 13.5 18.65 13.3 18.7 13.05 18.7 12.8 18.75 12.55 18.75 12.5 18.75 12.3 18.75 12.15 18.75 12.1 18.7 L11.1 18.65 16.7 8.2 Q17.45 6.9 17.45 6.8 17.45 6.7 17.4 6.6 17.35 6.55 17.25 6.45 17.15 6.4 17.0 6.35 16.85 6.25 16.6 6.25 16.4 6.2 16.15 6.15 15.9 6.1 15.6 6.1 15.3 6.05 14.9 6.05 14.55 6.05 14.15 6.05 L14.15 6.05" fill="#ffffff" fill-rule="evenodd" stroke="none"/>
  </g>
</svg>
