<?xml version="1.0" encoding="UTF-8" standalone="no"?>
<svg xmlns:ffdec="https://www.free-decompiler.com/flash" xmlns:xlink="http://www.w3.org/1999/xlink" ffdec:objectType="shape" height="26.0px" width="26.0px" xmlns="http://www.w3.org/2000/svg">
  <g transform="matrix(1.0, 0.0, 0.0, 1.0, 0.0, 0.0)">
    <path d="M16.0 6.75 Q16.0 6.75 16.0 6.7 15.95 6.7 15.95 6.65 15.9 6.65 15.9 6.6 15.85 6.6 15.8 6.6 15.8 6.55 15.75 6.55 15.7 6.5 15.65 6.5 15.6 6.45 15.55 6.45 15.5 6.4 15.45 6.4 15.4 6.4 15.3 6.35 15.25 6.35 15.15 6.3 15.05 6.3 14.95 6.3 14.85 6.25 14.75 6.25 14.65 6.25 14.55 6.25 14.4 6.25 14.3 6.2 14.15 6.2 14.0 6.2 13.85 6.2 13.7 6.2 13.7 6.2 13.1 6.2 13.0 6.2 12.95 6.2 12.85 6.2 12.75 6.2 12.7 6.2 12.6 6.2 12.5 6.25 12.4 6.25 12.35 6.25 12.25 6.25 12.15 6.3 12.05 6.3 11.95 6.35 11.85 6.35 11.8 6.35 11.7 6.4 11.6 6.45 11.5 6.5 11.4 6.5 11.25 6.6 11.15 6.65 11.05 6.7 10.9 6.8 10.8 6.85 10.65 6.95 10.55 7.05 10.4 7.15 10.25 7.25 10.15 7.4 10.0 7.5 9.85 7.65 9.7 7.8 9.55 7.95 9.4 8.1 9.3 8.25 9.15 8.4 9.05 8.5 8.9 8.65 8.8 8.8 8.7 8.95 8.55 9.1 8.45 9.25 8.35 9.4 8.3 9.55 8.2 9.7 8.1 9.85 8.05 10.0 7.95 10.15 7.9 10.3 7.85 10.45 7.8 10.65 7.75 10.8 7.7 11.0 7.65 11.2 7.6 11.35 7.55 11.55 7.55 11.75 7.5 12.0 7.5 12.2 7.45 12.4 7.45 12.65 7.45 12.9 7.45 13.1 7.45 13.35 7.45 13.6 7.45 13.85 7.45 14.05 7.5 14.3 7.5 14.55 7.5 14.75 7.55 14.95 7.6 15.15 7.6 15.35 7.65 15.55 7.7 15.75 7.75 15.9 7.8 16.1 7.85 16.25 7.95 16.45 8.0 16.6 8.1 16.85 8.25 17.05 8.35 17.3 8.45 17.5 8.6 17.7 8.75 17.9 8.85 18.1 9.0 18.3 9.15 18.45 9.3 18.65 9.5 18.8 9.65 18.95 9.8 19.1 10.0 19.25 10.15 19.4 10.35 19.5 10.55 19.65 10.7 19.75 10.9 19.85 11.1 19.95 11.3 20.05 11.5 20.15 11.7 20.2 11.9 20.3 12.15 20.35 12.35 20.4 12.55 20.45 12.8 20.5 13.0 20.5 13.25 20.55 13.45 20.55 13.7 20.55 13.85 20.55 14.0 20.55 14.1 20.55 14.25 20.55 14.4 20.5 14.55 20.5 14.7 20.5 14.85 20.45 15.0 20.4 15.15 20.4 15.25 20.35 15.4 20.3 15.55 20.25 15.7 20.2 15.85 20.15 16.0 20.1 16.15 20.05 16.3 20.0 16.45 19.9 16.6 19.85 16.75 19.8 16.85 19.75 17.0 19.7 17.1 19.6 17.2 19.55 17.35 19.5 17.45 19.4 17.55 19.35 17.65 19.3 17.7 19.2 17.8 19.15 17.9 19.05 18.0 19.0 18.05 18.9 18.15 18.85 18.2 18.75 18.25 18.7 18.3 18.65 18.35 18.55 18.4 18.5 18.45 18.45 18.5 18.4 18.5 18.3 18.55 18.25 18.55 18.2 18.55 18.15 18.55 18.05 18.55 18.0 18.55 17.95 18.5 17.75 18.5 17.7 18.45 17.65 18.45 17.6 18.4 17.6 18.4 17.55 18.35 17.55 18.3 17.55 18.3 17.55 18.25 17.55 18.2 17.55 18.15 17.55 18.1 17.6 18.05 17.6 18.0 17.6 17.95 17.6 17.9 17.65 17.85 17.65 17.8 17.7 17.75 17.7 17.7 17.75 17.65 17.75 17.6 17.8 17.55 17.85 17.5 17.85 17.3 18.0 17.15 18.15 16.95 18.25 16.8 18.4 16.6 18.5 16.4 18.6 16.25 18.7 16.05 18.75 15.9 18.85 15.7 18.9 15.55 18.95 15.35 19.0 15.2 19.0 15.0 19.05 14.85 19.05 14.7 19.05 14.5 19.05 14.3 19.0 14.15 19.0 13.95 18.95 13.75 18.9 13.6 18.85 13.4 18.75 13.2 18.65 13.0 18.55 12.85 18.45 12.65 18.3 12.45 18.15 12.25 18.0 12.1 17.85 11.9 17.7 11.7 17.5 11.45 17.25 11.25 17.0 11.05 16.75 10.85 16.5 10.7 16.2 10.55 15.9 10.4 15.6 10.3 15.3 10.15 15.0 10.05 14.65 10.0 14.3 9.95 13.95 9.85 13.6 9.85 13.25 9.8 12.85 9.8 12.45 9.8 12.1 9.85 11.8 9.85 11.5 9.9 11.2 9.95 10.9 10.0 10.65 10.1 10.35 10.2 10.1 10.3 9.85 10.4 9.6 10.5 9.35 10.65 9.15 10.8 8.95 11.0 8.75 11.15 8.55 11.35 8.35 11.45 8.25 11.6 8.15 11.7 8.05 11.85 7.95 12.0 7.85 12.1 7.8 12.25 7.7 12.4 7.65 12.55 7.6 12.7 7.55 12.85 7.5 13.0 7.45 13.15 7.45 13.3 7.4 13.45 7.4 13.6 7.4 13.7 7.4 13.75 7.4 13.85 7.4 13.95 7.4 14.0 7.45 14.1 7.45 14.2 7.45 14.25 7.45 14.35 7.5 14.45 7.5 14.5 7.5 14.6 7.55 14.7 7.55 14.75 7.6 14.85 7.6 14.95 7.65 15.05 7.7 15.15 7.75 15.25 7.8 15.35 7.9 15.45 7.95 15.6 8.05 15.7 8.2 15.85 8.3 16.0 8.45 16.15 8.6 16.3 8.75 16.5 8.95 16.65 9.15 16.85 9.35 17.05 9.55 17.2 9.8 17.25 9.85 17.3 9.9 17.35 10.0 17.4 10.05 17.45 10.05 17.5 10.1 17.55 10.15 17.6 10.2 17.65 10.2 17.7 10.25 17.75 10.25 17.8 10.3 17.85 10.3 17.85 10.3 17.9 10.3 17.95 10.3 18.0 10.3 18.0 10.3 18.05 10.3 18.1 10.3 18.1 10.25 18.15 10.25 18.15 10.25 18.2 10.2 18.2 10.2 18.25 10.15 18.25 10.15 18.25 10.1 18.25 10.05 18.25 10.0 18.3 9.95 18.3 9.9 18.2 9.25 17.65 7.75 17.2 6.35 16.95 5.85 16.9 5.8 16.9 5.75 16.85 5.7 16.85 5.65 16.8 5.65 16.75 5.6 16.75 5.55 16.7 5.55 16.65 5.5 16.65 5.5 16.6 5.5 16.55 5.45 16.55 5.45 16.5 5.45 16.45 5.45 16.4 5.45 16.35 5.45 16.3 5.45 16.25 5.45 16.2 5.45 16.15 5.45 16.15 5.45 16.1 5.5 16.1 5.5 16.1 5.5 16.05 5.55 16.05 5.55 16.05 5.55 16.05 5.55 16.05 5.6 16.05 5.6 16.05 5.65 16.05 5.65 16.05 5.7 16.05 5.75 16.05 5.75 16.05 5.8 16.05 5.85 16.05 5.9 16.05 5.9 16.0 5.95 16.0 6.0 16.0 6.05 16.0 6.1 16.0 6.15 16.05 6.2 16.05 6.25 16.05 6.3 16.05 6.35 16.05 6.4 16.05 6.45 16.05 6.5 16.05 6.55 16.05 6.6 16.05 6.6 16.05 6.65 16.05 6.7 16.0 6.75 L16.0 6.75" fill="#ffffff" fill-rule="evenodd" stroke="none"/>
  </g>
</svg>
