<?xml version="1.0" encoding="UTF-8" standalone="no"?>
<svg xmlns:ffdec="https://www.free-decompiler.com/flash" xmlns:xlink="http://www.w3.org/1999/xlink" ffdec:objectType="shape" height="26.0px" width="26.0px" xmlns="http://www.w3.org/2000/svg">
  <g transform="matrix(1.0, 0.0, 0.0, 1.0, 0.0, 0.0)">
    <path d="M8.15 9.05 Q8.2 9.05 8.25 9.05 8.25 9.05 8.3 9.05 8.35 9.05 8.4 9.1 8.45 9.1 8.5 9.1 8.55 9.1 8.6 9.15 8.65 9.15 8.7 9.2 8.75 9.2 8.8 9.25 8.85 9.25 8.85 9.3 8.95 9.35 9.1 9.45 9.2 9.55 9.3 9.7 9.45 9.85 9.6 10.05 9.7 10.25 9.85 10.5 10.0 10.75 10.1 11.0 10.25 11.3 10.4 11.6 10.55 11.95 10.7 12.3 10.85 12.7 11.0 13.1 11.15 13.5 11.3 13.9 11.45 14.3 11.6 14.7 11.75 15.1 11.85 15.5 12.0 15.85 12.1 16.25 12.2 16.65 12.3 17.0 12.4 17.35 12.5 17.75 12.55 18.1 12.65 18.45 12.7 18.8 12.75 19.15 L12.95 20.35 15.6 20.35 15.75 19.1 Q15.8 18.8 15.85 18.5 15.9 18.2 16.0 17.85 16.05 17.5 16.15 17.1 16.25 16.7 16.4 16.3 16.5 15.9 16.65 15.45 16.75 15.0 16.9 14.5 17.05 14.05 17.25 13.5 17.4 13.0 17.6 12.45 19.05 8.4 19.25 7.65 19.25 7.6 19.25 7.55 19.3 7.5 19.3 7.45 19.3 7.45 19.3 7.4 19.3 7.35 19.3 7.3 19.3 7.25 19.3 7.25 19.25 7.2 19.25 7.15 19.25 7.15 19.25 7.1 19.25 7.1 19.2 7.05 19.15 7.0 19.1 6.95 19.05 6.9 19.0 6.9 18.9 6.85 18.8 6.8 18.7 6.8 18.6 6.75 18.45 6.7 18.3 6.7 18.15 6.7 18.0 6.65 17.8 6.65 17.6 6.65 17.4 6.6 17.2 6.6 17.2 6.6 16.8 6.45 16.75 6.45 16.75 6.4 16.7 6.4 16.65 6.35 16.65 6.35 16.6 6.3 16.55 6.3 16.55 6.25 16.5 6.25 16.5 6.2 16.45 6.15 16.45 6.15 16.4 6.1 16.4 6.05 16.4 6.0 16.4 6.0 16.4 5.95 16.35 5.9 16.35 5.9 16.3 5.85 16.3 5.8 16.25 5.8 16.25 5.75 16.2 5.75 16.15 5.7 16.15 5.7 16.1 5.7 16.05 5.65 16.05 5.65 16.0 5.65 15.95 5.65 15.9 5.65 15.85 5.65 15.8 5.65 15.8 5.65 15.75 5.65 15.7 5.65 15.65 5.7 15.6 5.7 15.6 5.75 15.55 5.75 15.5 5.8 15.45 5.85 15.45 5.85 15.4 5.9 15.35 5.95 15.3 6.0 15.3 6.1 15.25 6.15 15.25 6.2 15.2 6.25 15.15 6.3 15.15 6.35 15.1 6.4 15.1 6.45 15.05 6.5 15.05 6.5 15.05 6.55 15.0 6.6 15.0 6.65 15.0 6.7 14.95 6.7 14.95 6.75 14.95 6.8 14.95 6.85 14.95 6.85 14.95 6.9 14.95 6.9 14.95 6.95 14.9 7.0 14.9 7.0 14.9 7.05 14.9 7.1 14.9 7.1 14.9 7.15 14.9 7.2 14.9 7.2 14.9 7.25 14.9 7.3 14.9 7.35 14.9 7.4 14.9 7.45 14.95 7.55 14.95 7.65 15.0 7.75 15.05 7.85 15.1 7.95 15.15 8.1 15.15 8.1 15.2 8.15 15.2 8.15 15.25 8.15 15.3 8.2 15.35 8.2 15.4 8.2 15.45 8.2 15.55 8.25 15.6 8.25 15.7 8.25 15.75 8.25 15.85 8.25 15.95 8.25 16.05 8.25 16.15 8.25 16.25 8.25 16.35 8.25 16.45 8.25 16.55 8.25 16.65 8.3 16.7 8.3 16.8 8.3 16.85 8.35 16.9 8.35 16.95 8.35 17.0 8.4 17.0 8.4 17.05 8.45 17.05 8.45 17.1 8.5 17.1 8.55 16.95 9.25 15.75 13.0 L14.5 17.65 13.9 14.95 Q13.6 13.6 12.6 11.3 12.5 11.05 12.35 10.75 12.25 10.5 12.15 10.25 12.0 10.0 11.9 9.8 11.8 9.55 11.65 9.35 11.55 9.1 11.4 8.9 11.3 8.7 11.15 8.5 11.05 8.3 10.9 8.1 10.8 7.9 10.65 7.75 10.5 7.55 10.4 7.4 10.25 7.25 10.15 7.15 10.05 7.0 9.95 6.9 9.85 6.8 9.7 6.7 9.6 6.6 9.5 6.55 9.45 6.45 9.35 6.45 9.25 6.4 9.15 6.35 9.1 6.35 9.0 6.35 8.9 6.35 8.85 6.35 8.75 6.4 8.7 6.4 8.6 6.45 8.5 6.5 8.4 6.55 8.35 6.6 8.25 6.65 8.15 6.75 8.05 6.8 7.95 6.9 7.85 7.0 7.75 7.1 7.65 7.2 7.55 7.35 7.45 7.45 7.35 7.6 7.25 7.7 7.2 7.8 7.1 7.9 7.05 8.0 7.0 8.1 6.95 8.15 6.85 8.25 6.85 8.35 6.8 8.4 6.75 8.5 6.75 8.55 6.75 8.6 6.7 8.65 6.7 8.7 6.75 8.85 6.75 8.85 6.75 8.9 6.8 8.9 6.8 8.95 6.85 8.95 6.85 9.0 6.9 9.0 6.9 9.05 6.95 9.05 6.95 9.05 7.0 9.1 7.05 9.1 7.1 9.1 7.1 9.1 7.15 9.1 7.2 9.15 7.25 9.15 L8.15 9.05" fill="#ffffff" fill-rule="evenodd" stroke="none"/>
  </g>
</svg>
