<?xml version="1.0" encoding="UTF-8" standalone="no"?>
<svg xmlns:ffdec="https://www.free-decompiler.com/flash" xmlns:xlink="http://www.w3.org/1999/xlink" ffdec:objectType="shape" height="26.0px" width="26.0px" xmlns="http://www.w3.org/2000/svg">
  <g transform="matrix(1.0, 0.0, 0.0, 1.0, 0.0, 0.0)">
    <path d="M7.9 6.25 Q7.85 6.5 7.85 6.5 7.85 6.5 7.85 6.55 7.85 6.55 7.85 6.6 7.9 6.6 7.9 6.65 7.9 6.65 7.9 6.7 7.95 6.75 7.95 6.75 7.95 6.8 8.0 6.8 8.0 6.85 8.05 6.9 8.05 6.9 8.1 6.95 8.15 7.0 8.15 7.0 8.2 7.05 8.25 7.05 8.25 7.1 8.3 7.1 8.35 7.15 8.4 7.15 8.4 7.2 8.45 7.2 8.5 7.2 8.55 7.25 8.6 7.25 8.65 7.25 8.7 7.25 8.75 7.25 8.8 7.25 8.85 7.25 8.9 7.3 8.95 7.3 8.95 7.3 9.0 7.35 9.05 7.35 9.05 7.4 9.1 7.4 9.1 7.45 9.15 7.5 9.15 7.55 9.2 7.55 9.2 7.6 9.25 7.65 9.25 7.7 9.35 8.2 9.35 12.5 9.35 16.8 9.3 17.5 L9.25 18.1 Q9.25 18.15 9.25 18.2 9.25 18.25 9.2 18.3 9.2 18.35 9.2 18.35 9.2 18.4 9.2 18.45 9.15 18.45 9.15 18.5 9.15 18.5 9.15 18.55 9.1 18.55 9.1 18.55 9.1 18.6 9.1 18.6 9.1 18.6 9.05 18.6 9.05 18.6 9.05 18.65 9.0 18.65 9.0 18.65 8.95 18.65 8.95 18.65 8.9 18.65 8.9 18.7 8.85 18.7 8.85 18.7 8.8 18.7 8.75 18.7 8.7 18.7 8.7 18.7 8.65 18.7 8.6 18.7 8.55 18.75 8.55 18.75 8.5 18.75 8.45 18.8 8.4 18.8 8.4 18.8 8.35 18.85 8.3 18.85 8.25 18.9 8.25 18.9 8.2 18.95 8.15 19.0 8.15 19.0 8.1 19.05 8.05 19.1 8.05 19.1 8.0 19.15 8.0 19.2 8.0 19.2 7.95 19.25 7.95 19.3 7.95 19.35 7.95 19.35 7.95 19.4 7.95 19.45 7.95 19.5 7.95 19.5 7.95 19.55 7.95 19.6 7.95 19.65 7.95 19.7 8.0 19.75 8.05 19.75 8.15 19.8 8.2 19.8 8.35 19.85 8.45 19.85 8.6 19.9 8.75 19.9 8.9 19.9 9.1 19.95 9.3 19.95 9.5 19.95 9.75 19.95 10.0 19.95 10.25 19.95 10.85 19.95 11.35 19.95 11.9 19.95 12.35 19.9 12.8 19.9 13.25 19.9 13.65 19.85 14.0 19.8 14.4 19.8 14.7 19.75 15.0 19.7 15.25 19.65 15.5 19.55 15.7 19.5 15.9 19.45 16.05 19.35 16.3 19.2 16.55 19.05 16.75 18.9 16.95 18.75 17.15 18.6 17.3 18.4 17.5 18.2 17.6 17.95 17.75 17.75 17.85 17.5 17.95 17.25 18.0 17.0 18.05 16.75 18.1 16.45 18.15 16.15 18.15 15.85 18.15 15.55 18.1 15.25 18.1 14.95 18.0 14.7 17.95 14.45 17.85 14.2 17.8 14.0 17.65 13.8 17.55 13.55 17.4 13.4 17.25 13.2 17.05 13.05 16.9 12.9 16.7 12.75 16.5 12.65 16.25 12.5 L15.3 12.1 16.0 11.7 Q16.2 11.6 16.35 11.45 16.5 11.35 16.65 11.2 16.75 11.1 16.9 10.95 17.0 10.8 17.1 10.65 17.15 10.45 17.25 10.3 17.3 10.1 17.35 9.9 17.4 9.75 17.4 9.55 17.45 9.35 17.45 9.1 17.45 9.05 17.45 8.95 17.45 8.9 17.45 8.85 17.4 8.75 17.4 8.7 17.4 8.65 17.35 8.55 17.35 8.5 17.35 8.45 17.3 8.35 17.3 8.3 17.25 8.2 17.25 8.15 17.2 8.05 17.2 8.0 17.15 7.85 17.1 7.75 17.0 7.65 16.95 7.5 16.85 7.4 16.8 7.3 16.7 7.2 16.6 7.1 16.55 7.0 16.45 6.9 16.35 6.85 16.25 6.75 16.15 6.7 16.05 6.6 15.95 6.55 15.85 6.45 15.8 6.4 15.7 6.4 15.6 6.35 15.55 6.35 15.45 6.3 15.35 6.3 15.3 6.25 15.2 6.25 15.1 6.2 15.0 6.2 14.9 6.2 14.75 6.15 14.65 6.15 14.55 6.15 14.4 6.15 14.3 6.15 13.45 6.05 10.7 6.05 10.35 6.05 10.1 6.05 9.8 6.05 9.55 6.05 9.3 6.05 9.1 6.05 8.85 6.05 8.7 6.1 8.5 6.1 8.4 6.1 8.25 6.15 8.15 6.15 8.05 6.15 8.0 6.2 7.95 6.25 7.9 6.25 L7.9 6.25 M13.25 11.55 Q13.1 11.6 13.0 11.65 12.85 11.7 12.75 11.75 12.6 11.8 12.5 11.85 12.4 11.85 12.3 11.9 12.2 11.95 12.1 11.95 12.0 11.95 11.95 12.0 11.85 12.0 11.8 12.0 11.7 12.0 11.65 12.0 11.6 12.05 11.6 9.65 L11.6 7.25 12.65 7.25 Q12.75 7.25 12.8 7.25 12.9 7.25 12.95 7.25 13.0 7.25 13.1 7.25 13.15 7.25 13.2 7.3 13.3 7.3 13.35 7.3 13.4 7.3 13.45 7.3 13.5 7.3 13.55 7.35 13.6 7.35 13.65 7.35 13.7 7.35 13.75 7.4 13.8 7.4 13.85 7.45 13.85 7.45 13.9 7.5 13.95 7.5 14.0 7.55 14.05 7.55 14.1 7.6 14.15 7.65 14.2 7.7 14.2 7.7 14.25 7.75 14.3 7.8 14.35 7.85 14.45 7.9 14.5 8.0 14.55 8.05 14.6 8.15 14.65 8.25 14.7 8.35 14.75 8.4 14.8 8.5 14.85 8.6 14.85 8.7 14.9 8.8 14.9 8.9 14.95 9.0 14.95 9.1 14.95 9.2 14.95 9.35 14.95 9.45 14.95 9.55 14.95 9.65 14.95 9.75 14.9 9.85 14.9 9.95 14.9 10.05 14.85 10.1 14.85 10.2 14.85 10.3 14.8 10.35 14.8 10.4 14.75 10.5 14.7 10.55 14.7 10.6 14.65 10.65 14.6 10.7 14.55 10.75 14.5 10.8 14.45 10.85 14.4 10.9 14.3 10.95 14.25 11.0 14.15 11.1 14.05 11.15 13.95 11.2 13.85 11.25 13.75 11.3 13.65 11.35 13.5 11.4 13.4 11.5 13.25 11.55 L13.25 11.55 M15.65 15.9 Q15.65 16.05 15.65 16.15 15.65 16.3 15.6 16.4 15.6 16.55 15.55 16.65 15.55 16.8 15.5 16.9 15.45 17.05 15.4 17.15 15.35 17.25 15.3 17.4 15.25 17.5 15.2 17.6 15.15 17.75 15.05 17.85 15.0 17.95 14.9 18.05 14.85 18.15 14.75 18.25 14.65 18.35 14.55 18.4 14.45 18.45 14.4 18.5 14.3 18.55 14.15 18.6 14.05 18.65 13.95 18.7 13.85 18.7 13.7 18.7 13.6 18.75 13.45 18.75 13.3 18.75 13.2 18.75 13.1 18.7 13.0 18.7 12.85 18.7 12.75 18.65 12.65 18.6 12.6 18.6 12.5 18.55 12.45 18.5 12.35 18.45 12.3 18.4 12.2 18.35 12.15 18.25 12.1 18.2 12.05 18.1 12.0 18.0 11.95 17.85 11.9 17.7 11.85 17.5 11.8 17.35 11.75 17.1 11.7 16.85 11.7 16.6 11.65 16.3 11.65 16.0 11.6 15.65 11.6 15.3 11.6 14.95 11.55 14.55 11.55 14.1 11.55 13.65 11.6 13.6 11.7 13.5 11.75 13.45 11.85 13.4 11.95 13.35 12.0 13.3 12.1 13.25 12.2 13.2 12.3 13.2 12.4 13.15 12.5 13.15 12.6 13.1 12.75 13.1 12.85 13.1 12.95 13.05 13.1 13.05 13.2 13.05 13.35 13.05 13.45 13.1 13.55 13.1 13.65 13.1 13.75 13.15 13.85 13.15 13.95 13.2 14.05 13.25 14.15 13.3 14.25 13.3 14.35 13.35 14.45 13.4 14.5 13.5 14.6 13.55 14.7 13.6 14.8 13.7 14.9 13.8 15.0 13.95 15.1 14.05 15.2 14.2 15.25 14.3 15.35 14.45 15.4 14.6 15.45 14.75 15.5 14.9 15.55 15.05 15.55 15.2 15.6 15.35 15.6 15.55 15.65 15.7 15.65 15.9 L15.65 15.9" fill="#ffffff" fill-rule="evenodd" stroke="none"/>
  </g>
</svg>
