<?xml version="1.0" encoding="UTF-8" standalone="no"?>
<svg xmlns:ffdec="https://www.free-decompiler.com/flash" xmlns:xlink="http://www.w3.org/1999/xlink" ffdec:objectType="shape" height="26.0px" width="26.0px" xmlns="http://www.w3.org/2000/svg">
  <g transform="matrix(1.0, 0.0, 0.0, 1.0, 0.0, 0.0)">
    <path d="M16.45 18.7 Q16.4 18.7 16.35 18.7 16.3 18.7 16.25 18.7 16.2 18.75 16.15 18.75 16.1 18.75 16.1 18.8 16.05 18.8 16.0 18.8 15.95 18.85 15.95 18.85 15.9 18.9 15.85 18.9 15.85 18.95 15.8 19.0 15.75 19.05 15.75 19.05 15.7 19.1 15.7 19.15 15.65 19.15 15.65 19.2 15.65 19.25 15.65 19.3 15.65 19.3 15.65 19.35 15.65 19.4 15.65 19.45 15.65 19.5 15.65 19.5 15.65 19.55 15.7 19.6 15.7 19.65 15.75 19.7 15.8 19.7 15.9 19.75 16.0 19.75 16.15 19.8 16.25 19.85 16.45 19.85 16.6 19.85 16.8 19.9 17.05 19.9 17.25 19.9 17.5 19.9 17.8 19.95 18.1 19.95 18.4 19.95 18.75 19.95 19.0 19.95 19.3 19.95 19.55 19.9 19.8 19.9 20.0 19.9 20.2 19.85 20.4 19.85 20.55 19.8 20.7 19.8 20.8 19.75 20.9 19.7 21.0 19.7 21.05 19.65 21.1 19.6 21.1 19.55 21.1 19.5 21.15 19.5 21.15 19.45 21.15 19.4 21.15 19.35 21.15 19.3 21.15 19.25 21.1 19.2 21.05 19.15 21.05 19.1 21.0 19.0 20.95 18.95 20.85 18.95 20.8 18.9 20.75 18.85 20.65 18.8 20.55 18.75 20.45 18.7 20.35 18.65 20.25 18.6 20.2 18.6 20.15 18.55 20.1 18.55 20.05 18.55 20.0 18.5 20.0 18.5 19.95 18.45 19.9 18.4 19.85 18.4 19.85 18.35 19.8 18.3 19.75 18.25 19.75 18.2 19.7 18.15 19.65 18.1 19.65 18.05 19.45 17.7 18.55 13.4 17.7 9.2 17.7 8.65 17.7 8.6 17.7 8.55 17.7 8.45 17.7 8.4 17.75 8.35 17.75 8.35 17.75 8.3 17.8 8.25 17.8 8.2 17.85 8.2 17.9 8.2 17.9 8.15 17.95 8.15 18.0 8.15 18.05 8.15 18.1 8.15 18.2 8.15 18.25 8.15 18.35 8.15 18.4 8.15 18.45 8.1 18.5 8.1 18.55 8.1 18.6 8.1 18.6 8.05 18.65 8.05 18.65 8.0 18.7 8.0 18.7 8.0 18.7 7.95 18.7 7.9 18.7 7.9 18.7 7.75 18.65 7.6 18.6 7.45 18.6 7.3 18.55 7.2 18.55 7.1 18.5 6.95 18.5 6.85 18.45 6.75 18.45 6.7 18.4 6.6 18.4 6.55 18.35 6.5 18.35 6.45 18.3 6.4 18.3 6.35 18.25 6.3 18.25 6.3 18.2 6.25 18.2 6.25 18.15 6.2 18.1 6.2 18.1 6.15 18.05 6.15 18.0 6.1 18.0 6.1 17.95 6.1 17.9 6.1 17.85 6.05 17.85 6.05 17.8 6.05 17.75 6.05 17.7 6.05 17.65 6.05 17.65 6.05 17.6 6.1 17.55 6.1 17.5 6.1 17.45 6.15 17.4 6.15 17.35 6.2 17.3 6.2 17.25 6.25 17.2 6.3 17.15 6.3 17.1 6.35 17.05 6.4 17.0 6.45 16.85 6.6 16.75 6.7 16.6 6.85 16.45 6.95 16.3 7.1 16.2 7.25 16.05 7.4 15.95 7.55 15.8 7.7 15.65 7.85 15.55 8.0 15.4 8.15 15.3 8.3 15.2 8.45 15.05 8.65 14.95 8.8 14.8 8.95 14.7 9.1 14.6 9.3 14.5 9.45 14.4 9.6 14.3 9.7 14.2 9.85 14.15 10.0 14.05 10.1 14.0 10.25 13.9 10.35 13.85 10.45 13.8 10.55 13.75 10.65 13.75 10.75 13.7 10.85 L13.0 12.75 12.2 10.7 Q12.1 10.4 12.0 10.15 11.85 9.9 11.75 9.65 11.65 9.45 11.55 9.2 11.45 9.0 11.35 8.8 11.25 8.65 11.1 8.45 11.0 8.3 10.9 8.15 10.8 8.0 10.7 7.9 10.6 7.75 10.55 7.65 10.35 7.45 10.2 7.3 10.05 7.15 9.85 7.0 9.7 6.85 9.55 6.75 9.4 6.65 9.25 6.55 9.1 6.45 8.95 6.4 8.85 6.3 8.7 6.25 8.6 6.25 8.45 6.2 8.35 6.2 8.2 6.2 8.15 6.2 8.15 6.2 8.1 6.2 8.1 6.2 8.05 6.2 8.0 6.25 8.0 6.25 7.95 6.25 7.9 6.25 7.9 6.3 7.85 6.3 7.8 6.35 7.8 6.35 7.75 6.4 7.7 6.4 7.65 6.45 7.6 6.5 7.55 6.6 7.45 6.65 7.4 6.75 7.35 6.8 7.35 6.9 7.3 7.0 7.25 7.1 7.2 7.15 7.2 7.25 7.15 7.35 7.15 7.5 7.15 7.6 7.15 7.7 7.1 7.8 7.1 7.95 7.1 8.0 7.1 8.0 7.15 8.05 7.15 8.05 7.15 8.1 7.2 8.1 7.25 8.1 7.25 8.15 7.3 8.15 7.35 8.15 7.4 8.15 7.45 8.2 7.5 8.2 7.6 8.2 7.65 8.2 7.7 8.2 L7.75 8.2 Q7.8 8.2 7.85 8.2 7.9 8.2 7.95 8.25 8.0 8.25 8.05 8.3 8.1 8.3 8.1 8.35 8.15 8.4 8.2 8.45 8.2 8.5 8.2 8.55 8.25 8.6 8.25 8.65 8.25 8.7 8.25 8.8 8.25 10.0 7.4 13.95 6.5 17.85 6.2 18.3 6.15 18.35 6.1 18.4 6.05 18.45 6.05 18.45 6.0 18.5 5.95 18.55 5.9 18.55 5.85 18.6 5.8 18.6 5.8 18.65 5.75 18.65 5.7 18.7 5.65 18.7 5.65 18.7 5.6 18.7 5.55 18.7 L5.55 18.7 Q5.5 18.7 5.45 18.7 5.45 18.7 5.4 18.7 5.35 18.7 5.3 18.75 5.3 18.75 5.25 18.75 5.2 18.75 5.2 18.8 5.15 18.8 5.15 18.85 5.1 18.85 5.1 18.9 5.05 18.9 5.05 18.95 5.0 19.0 5.0 19.05 4.95 19.05 4.95 19.1 4.9 19.15 4.9 19.2 4.9 19.2 4.9 19.25 4.85 19.3 4.85 19.3 4.85 19.35 4.85 19.35 4.85 19.4 4.85 19.4 4.85 19.45 4.85 19.45 4.9 19.5 4.9 19.55 4.9 19.55 4.95 19.6 4.95 19.65 5.0 19.65 5.05 19.7 5.1 19.7 5.15 19.75 5.25 19.75 5.35 19.8 5.45 19.8 5.55 19.8 5.7 19.8 5.85 19.85 6.0 19.85 6.15 19.85 6.3 19.85 6.5 19.85 6.7 19.85 8.25 19.85 8.9 19.75 8.95 19.75 9.05 19.7 9.1 19.7 9.15 19.7 9.2 19.65 9.25 19.65 9.3 19.6 9.35 19.6 9.35 19.55 9.4 19.5 9.4 19.5 9.45 19.45 9.45 19.45 9.45 19.4 9.45 19.35 9.45 19.3 9.45 19.25 9.45 19.2 9.45 19.15 9.4 19.1 9.4 19.1 9.4 19.05 9.35 19.0 9.3 18.95 9.25 18.95 9.2 18.9 9.15 18.85 9.1 18.85 9.05 18.8 9.0 18.8 8.9 18.75 8.8 18.75 L8.45 18.6 Q8.4 18.6 8.35 18.55 8.3 18.55 8.3 18.5 8.25 18.45 8.25 18.45 8.2 18.4 8.2 18.35 8.2 18.3 8.15 18.25 8.15 18.25 8.15 18.2 8.1 18.15 8.1 18.15 8.1 18.1 8.1 18.05 8.1 18.05 8.1 18.0 8.1 17.95 8.1 17.95 8.1 17.9 8.1 17.9 8.1 17.2 8.55 15.3 L9.7 10.15 10.35 11.5 Q11.1 13.15 12.0 17.3 12.0 17.4 12.05 17.45 12.05 17.55 12.1 17.6 12.15 17.65 12.15 17.7 12.2 17.75 12.25 17.8 12.25 17.85 12.3 17.9 12.35 17.9 12.4 17.95 12.45 17.95 12.5 17.95 12.6 17.95 12.65 17.95 12.7 17.95 12.75 17.95 12.8 17.95 12.85 17.9 12.9 17.9 12.95 17.85 13.0 17.85 13.0 17.8 13.05 17.75 13.1 17.7 13.15 17.65 13.15 17.6 13.2 17.55 13.2 17.45 13.25 17.4 13.25 17.3 14.4 12.95 14.9 12.05 15.35 11.1 15.75 10.5 15.9 10.65 16.5 14.1 17.1 17.5 17.1 17.85 L17.1 18.25 Q17.05 18.3 17.05 18.35 17.0 18.4 17.0 18.45 16.95 18.5 16.95 18.55 16.9 18.55 16.85 18.6 16.85 18.65 16.8 18.65 16.75 18.65 16.7 18.7 16.65 18.7 16.6 18.7 16.6 18.7 16.55 18.7 L16.45 18.7" fill="#ffffff" fill-rule="evenodd" stroke="none"/>
  </g>
</svg>
