<?xml version="1.0" encoding="UTF-8" standalone="no"?>
<svg xmlns:ffdec="https://www.free-decompiler.com/flash" xmlns:xlink="http://www.w3.org/1999/xlink" ffdec:objectType="shape" height="26.0px" width="26.0px" xmlns="http://www.w3.org/2000/svg">
  <g transform="matrix(1.0, 0.0, 0.0, 1.0, 0.0, 0.0)">
    <path d="M16.9 18.65 Q16.95 18.75 16.95 18.85 17.0 18.9 17.05 19.0 17.1 19.05 17.15 19.1 17.25 19.2 17.3 19.25 17.35 19.25 17.45 19.3 17.5 19.35 17.6 19.35 17.7 19.4 17.8 19.4 17.9 19.4 18.0 19.4 18.05 19.4 18.05 19.4 18.1 19.4 18.1 19.4 18.15 19.4 18.2 19.4 18.2 19.35 18.25 19.35 18.3 19.35 18.35 19.35 18.35 19.3 18.4 19.3 18.45 19.25 18.5 19.25 18.5 19.2 18.55 19.2 18.6 19.15 18.65 19.15 18.65 19.1 18.7 19.05 18.7 19.0 18.75 18.95 18.8 18.9 18.8 18.85 18.8 18.8 18.85 18.7 18.85 18.65 18.85 18.6 18.85 18.5 18.9 18.45 18.9 18.35 18.9 18.3 18.9 18.2 18.9 18.1 18.9 18.05 18.85 17.95 18.85 17.9 18.8 17.8 18.8 17.75 18.75 17.7 18.7 17.65 18.65 17.55 18.6 17.5 18.5 17.45 18.45 17.4 18.35 17.4 18.3 17.35 18.2 17.3 18.15 17.3 18.15 17.3 18.1 17.3 18.05 17.25 18.05 17.25 18.0 17.25 17.95 17.25 17.95 17.25 17.9 17.25 17.85 17.25 17.85 17.25 17.8 17.25 17.75 17.25 17.7 17.25 17.7 17.25 17.65 17.25 17.6 17.25 17.55 17.25 17.55 17.25 17.5 17.25 17.45 17.25 17.4 17.3 17.35 17.3 17.35 17.3 17.3 17.35 17.25 17.35 17.25 17.4 17.2 17.4 17.15 17.45 17.1 17.5 17.1 17.5 17.05 17.55 17.0 17.6 17.0 17.65 16.95 17.7 16.9 17.7 16.9 17.75 16.85 17.8 16.85 17.85 16.85 17.85 16.8 17.9 16.8 17.95 16.8 18.0 16.8 18.0 16.8 18.05 16.8 18.1 16.8 18.1 16.8 18.15 16.8 18.2 16.8 18.2 16.8 18.25 16.8 18.25 16.8 18.3 16.8 18.35 16.8 18.35 16.8 18.4 16.8 18.45 16.85 18.45 16.85 18.5 16.85 18.55 16.85 18.55 16.9 18.6 16.9 18.65 16.9 18.65 L16.9 18.65" fill="#ffffff" fill-rule="evenodd" stroke="none"/>
    <path d="M11.35 14.0 L13.6 11.6 13.65 11.55 13.6 11.45 9.15 6.65 Q9.1 6.65 9.1 6.65 9.05 6.65 9.0 6.6 9.0 6.6 8.95 6.6 8.95 6.6 8.9 6.6 8.85 6.6 8.85 6.6 8.8 6.6 8.75 6.6 8.75 6.6 8.7 6.6 8.65 6.6 8.65 6.6 8.5 6.6 8.4 6.6 8.25 6.6 8.15 6.65 8.0 6.65 7.9 6.7 7.8 6.75 7.7 6.8 7.6 6.85 7.5 6.9 7.45 7.0 7.35 7.05 7.3 7.15 7.2 7.25 7.15 7.3 7.1 7.45 L7.6 8.25 Q8.15 9.05 11.6 11.9 11.25 12.25 10.9 12.55 10.55 12.85 10.25 13.2 9.9 13.5 9.65 13.8 9.35 14.1 9.05 14.35 8.8 14.65 8.55 14.9 8.3 15.2 8.05 15.45 7.85 15.7 7.65 15.95 7.45 16.2 7.25 16.45 7.3 16.45 7.35 16.5 7.35 16.5 7.4 16.55 7.45 16.55 7.5 16.55 7.55 16.6 7.6 16.6 7.6 16.6 7.65 16.6 7.7 16.6 7.75 16.65 7.8 16.65 7.85 16.65 7.9 16.65 7.9 16.65 8.35 16.65 8.45 16.6 8.55 16.6 8.65 16.55 8.8 16.5 8.9 16.45 9.05 16.35 9.2 16.2 9.4 16.1 9.55 15.95 9.75 15.75 9.95 15.55 10.15 15.35 10.35 15.1 10.6 14.85 10.85 14.6 11.1 14.3 11.35 14.0 L11.35 14.0" fill="#ffffff" fill-rule="evenodd" stroke="none"/>
  </g>
</svg>
