<?xml version="1.0" encoding="UTF-8" standalone="no"?>
<svg xmlns:ffdec="https://www.free-decompiler.com/flash" xmlns:xlink="http://www.w3.org/1999/xlink" ffdec:objectType="shape" height="26.0px" width="52.95px" xmlns="http://www.w3.org/2000/svg">
  <g transform="matrix(1.0, 0.0, 0.0, 1.0, 0.0, 0.0)">
    <path d="M17.85 7.25 Q17.85 7.25 17.8 7.25 17.75 7.25 17.7 7.25 17.7 7.2 17.65 7.2 17.6 7.2 17.5 7.15 17.45 7.15 17.4 7.1 17.35 7.1 17.3 7.05 17.25 7.05 17.2 7.0 17.1 7.0 17.05 7.0 16.95 7.0 16.9 6.95 16.8 6.95 16.7 6.95 16.6 6.95 16.5 6.95 16.4 6.95 16.3 6.95 16.2 6.95 16.05 6.95 15.95 6.95 15.85 6.95 15.7 6.95 15.6 6.95 15.5 6.95 15.4 6.95 15.35 6.95 15.25 7.0 15.15 7.0 15.05 7.0 15.0 7.0 14.9 7.05 14.85 7.05 14.75 7.1 14.7 7.1 14.65 7.1 14.6 7.15 14.5 7.15 14.45 7.2 14.4 7.2 14.3 7.25 14.25 7.3 14.2 7.3 14.15 7.35 14.05 7.4 14.0 7.45 13.95 7.45 13.9 7.5 13.85 7.55 13.8 7.6 13.75 7.65 13.7 7.7 13.55 7.85 13.45 7.95 13.3 8.1 13.2 8.25 13.1 8.4 13.0 8.55 12.95 8.7 12.85 8.85 12.8 8.95 12.75 9.1 12.7 9.25 12.65 9.45 12.6 9.6 12.6 9.75 12.6 9.9 12.6 10.05 12.6 10.2 12.6 10.35 12.6 10.5 12.65 10.65 12.65 10.8 12.7 10.95 12.7 11.05 12.75 11.2 12.8 11.3 12.85 11.45 12.9 11.55 12.95 11.65 13.0 11.75 13.1 11.85 13.15 11.95 13.25 12.05 13.3 12.15 13.4 12.25 13.5 12.3 13.65 12.4 13.75 12.5 13.9 12.65 14.05 12.75 14.2 12.85 14.4 12.95 14.6 13.1 14.75 13.2 15.0 13.35 15.2 13.5 15.45 13.6 15.65 13.75 15.9 13.9 16.15 14.05 16.4 14.2 16.65 14.35 16.85 14.5 17.05 14.65 17.25 14.75 17.45 14.9 17.6 15.05 17.8 15.2 17.9 15.3 18.05 15.45 18.2 15.6 18.3 15.7 18.4 15.85 18.5 15.95 18.55 16.1 18.6 16.15 18.6 16.2 18.65 16.3 18.7 16.35 18.7 16.4 18.75 16.45 18.75 16.55 18.8 16.6 18.8 16.65 18.8 16.75 18.8 16.8 18.85 16.85 18.85 16.95 18.85 17.0 18.85 17.1 18.85 17.15 18.85 17.2 18.85 17.3 18.85 17.35 18.85 17.45 18.8 17.5 18.8 17.6 18.8 17.7 18.75 17.75 18.75 17.85 18.7 17.9 18.7 18.0 18.65 18.1 18.6 18.15 18.6 18.25 18.55 18.35 18.5 18.4 18.45 18.55 18.35 18.65 18.25 18.75 18.2 18.85 18.1 18.95 18.0 19.05 17.85 19.15 17.75 19.25 17.65 19.3 17.5 19.4 17.4 19.45 17.25 19.5 17.1 19.55 16.95 19.6 16.8 19.65 16.6 19.65 16.55 19.65 16.55 19.65 16.5 19.7 16.45 19.7 16.4 19.7 16.35 19.7 16.35 19.7 16.3 19.7 16.25 19.75 16.25 19.75 16.2 19.75 16.15 19.75 16.1 19.75 16.1 19.75 16.05 19.75 16.0 19.75 15.9 19.75 15.8 19.75 15.65 19.75 15.55 19.7 15.45 19.7 15.35 19.65 15.25 19.65 15.15 19.6 15.1 19.55 15.0 19.5 14.9 19.45 14.85 19.4 14.75 19.35 14.65 19.3 14.6 19.2 14.55 19.15 14.5 19.1 14.45 19.05 14.45 19.0 14.4 18.95 14.35 18.95 14.35 18.9 14.3 18.85 14.3 18.85 14.3 18.8 14.3 18.8 14.25 18.75 14.25 18.75 14.25 18.7 14.3 18.7 14.3 18.7 14.3 18.65 14.3 18.65 14.35 18.6 14.4 18.55 14.45 18.5 14.5 18.45 14.55 18.4 14.6 18.35 14.6 18.35 14.65 18.3 14.7 18.25 14.7 18.2 14.75 18.15 14.75 18.1 14.75 18.05 14.8 18.0 14.8 17.95 14.8 17.9 14.85 17.85 14.85 17.8 14.85 17.7 14.85 17.65 14.85 17.6 14.85 17.55 14.85 17.45 14.85 17.4 14.8 17.35 14.8 17.3 14.8 17.2 14.75 17.15 14.75 17.1 14.7 17.05 14.7 17.0 14.65 16.95 14.6 16.9 14.55 16.85 14.55 16.75 14.5 16.7 14.45 16.65 14.4 16.6 14.35 16.55 14.3 16.55 14.25 16.5 14.15 16.45 14.1 16.45 14.05 16.4 14.0 16.4 13.95 16.35 13.9 16.35 13.85 16.3 13.8 16.3 13.75 16.3 13.7 16.3 13.65 16.3 13.6 16.3 13.55 16.3 13.5 16.3 13.45 16.3 13.4 16.3 13.35 16.3 13.3 16.3 13.25 16.35 13.2 16.35 13.15 16.35 13.1 16.35 13.05 16.4 13.0 16.4 12.95 16.4 12.9 16.45 12.85 16.45 12.85 16.5 12.75 16.55 12.65 16.6 12.55 16.7 12.45 16.75 12.35 16.85 12.3 16.95 12.2 17.05 12.15 17.15 12.1 17.25 12.05 17.35 12.0 17.45 12.0 17.6 11.95 17.7 11.95 17.85 11.95 17.95 11.95 18.1 11.95 18.25 11.95 18.4 12.0 18.55 12.0 18.7 12.05 18.85 12.1 18.95 12.15 19.1 12.25 19.25 12.3 19.35 12.4 19.5 12.5 19.6 12.6 19.7 12.7 19.85 12.8 19.95 12.95 20.05 13.1 20.15 13.25 20.25 13.4 20.35 13.55 20.45 13.7 20.5 13.85 20.6 14.05 20.65 14.2 20.75 14.4 20.8 14.55 20.85 14.75 20.85 14.95 20.9 15.15 20.95 15.35 20.95 15.6 21.0 15.8 21.0 16.0 21.0 L16.05 21.0 Q16.25 21.0 16.5 21.0 16.7 20.95 16.9 20.95 17.1 20.9 17.3 20.85 17.5 20.8 17.7 20.75 17.9 20.7 18.05 20.65 18.25 20.55 18.4 20.45 18.6 20.4 18.75 20.3 18.9 20.15 19.05 20.05 19.2 19.95 19.35 19.8 19.5 19.7 19.65 19.55 19.75 19.4 19.9 19.25 20.0 19.1 20.1 18.95 20.2 18.75 20.3 18.6 20.4 18.4 20.5 18.25 20.55 18.05 20.65 17.85 20.7 17.65 20.75 17.45 20.75 17.4 20.8 17.3 20.8 17.25 20.8 17.15 20.8 17.1 20.85 17.0 20.85 16.95 20.85 16.9 20.85 16.8 20.85 16.75 20.9 16.65 20.9 16.6 20.9 16.55 20.9 16.45 20.9 16.4 20.9 16.35 20.9 16.05 20.85 15.75 20.8 15.4 20.7 15.1 20.6 14.85 20.4 14.55 20.25 14.25 20.05 14.0 19.85 13.7 19.55 13.45 19.3 13.15 19.0 12.9 18.65 12.65 18.3 12.4 17.95 12.15 17.5 11.9 15.5 10.8 15.05 10.4 15.0 10.35 14.95 10.3 14.9 10.25 14.85 10.2 14.85 10.1 14.8 10.05 14.75 10.0 14.75 9.95 14.7 9.9 14.7 9.85 14.65 9.8 14.65 9.75 14.65 9.7 14.65 9.65 14.65 9.6 14.65 9.55 14.65 9.5 14.65 9.45 14.65 9.4 14.65 9.35 14.65 9.3 14.65 9.25 14.65 9.2 14.65 9.2 14.65 9.15 14.7 9.1 14.7 9.05 14.7 9.0 14.7 9.0 14.7 8.95 14.75 8.9 14.75 8.85 14.8 8.75 14.85 8.65 14.9 8.6 15.0 8.5 15.05 8.45 15.15 8.4 15.2 8.3 15.3 8.3 15.4 8.25 15.5 8.2 15.6 8.15 15.7 8.15 15.8 8.1 15.95 8.1 16.05 8.1 16.2 8.1 16.3 8.1 16.4 8.1 16.45 8.1 16.55 8.1 16.65 8.15 16.75 8.15 16.8 8.2 16.9 8.2 17.0 8.25 17.1 8.25 17.15 8.3 17.25 8.35 17.35 8.4 17.45 8.45 17.5 8.5 17.6 8.55 17.7 8.6 17.8 8.65 17.85 8.75 17.95 8.8 18.0 8.85 18.1 8.95 18.15 9.0 18.25 9.1 18.3 9.15 18.35 9.25 18.45 9.3 18.5 9.4 18.55 9.5 18.6 9.55 18.65 9.65 18.7 9.75 18.75 9.85 18.8 9.9 18.85 10.0 18.9 10.05 18.95 10.1 19.0 10.2 19.05 10.25 19.1 10.3 19.15 10.35 19.15 10.4 19.2 10.45 19.25 10.5 19.3 10.5 19.35 10.55 19.4 10.6 19.45 10.6 19.5 10.6 19.55 10.65 19.55 10.65 19.6 10.65 19.65 10.65 19.65 10.65 19.7 10.65 19.75 10.6 19.75 10.6 19.8 10.6 19.8 10.55 19.85 10.55 19.85 10.5 19.9 10.45 19.9 10.4 19.95 10.35 L19.95 10.05 Q19.9 9.7 19.45 7.95 19.4 7.75 19.3 7.55 19.25 7.35 19.15 7.15 19.1 7.0 19.05 6.85 18.95 6.7 18.9 6.6 18.85 6.5 18.8 6.4 18.7 6.35 18.65 6.25 18.6 6.2 18.5 6.2 18.45 6.15 18.4 6.15 18.35 6.15 18.35 6.15 18.3 6.15 18.25 6.2 18.25 6.2 18.2 6.2 18.15 6.25 18.15 6.25 18.1 6.3 18.1 6.35 18.05 6.35 18.05 6.4 18.05 6.4 18.0 6.45 18.0 6.45 18.0 6.5 17.95 6.5 17.95 6.55 17.95 6.6 17.95 6.6 17.95 6.65 17.95 6.7 17.9 6.75 17.9 6.75 17.9 6.8 17.9 6.85 17.9 6.9 17.9 7.0 17.9 7.05 17.9 7.1 17.9 7.15 17.9 7.15 17.9 7.2 17.85 7.2 17.85 7.25 17.85 7.25 L17.85 7.25" fill="#ffffff" fill-rule="evenodd" stroke="none"/>
    <path d="M20.75 7.9 L21.35 7.9 21.35 19.35 20.6 19.75 Q20.5 19.8 20.45 19.85 20.4 19.9 20.3 19.9 20.25 19.95 20.2 20.0 20.15 20.05 20.1 20.05 20.05 20.1 20.05 20.15 20.0 20.15 20.0 20.2 19.95 20.25 19.95 20.25 19.95 20.3 19.95 20.3 19.95 20.35 20.0 20.4 20.0 20.45 20.05 20.5 20.15 20.5 20.2 20.55 20.3 20.6 20.4 20.6 20.55 20.65 20.7 20.65 20.85 20.65 21.0 20.7 21.2 20.7 21.4 20.7 21.6 20.7 21.85 20.7 23.7 20.7 24.2 20.65 24.25 20.65 24.3 20.6 24.35 20.6 24.4 20.6 24.45 20.55 24.5 20.55 24.55 20.55 24.55 20.5 24.6 20.5 24.6 20.45 24.65 20.4 24.65 20.4 24.65 20.35 24.65 20.3 24.7 20.25 24.7 20.2 24.7 20.15 24.7 20.15 24.65 20.1 24.65 20.1 24.65 20.05 24.6 20.0 24.6 20.0 24.55 19.95 24.5 19.95 24.45 19.9 24.4 19.9 24.35 19.85 24.3 19.85 24.25 19.8 24.2 19.8 24.15 19.75 24.05 19.75 24.0 19.7 23.95 19.7 23.9 19.65 23.8 19.6 23.75 19.6 23.7 19.55 23.65 19.5 23.6 19.45 23.55 19.4 23.55 19.35 23.5 19.25 23.45 19.2 23.45 19.1 23.4 19.05 23.4 18.95 23.3 18.6 23.3 16.95 23.3 16.75 23.3 16.55 23.3 16.35 23.3 16.2 23.3 16.0 23.3 15.85 23.35 15.7 23.35 15.55 23.35 15.4 23.4 15.25 23.4 15.1 23.4 14.95 23.45 14.85 23.45 14.75 23.5 14.6 23.55 14.5 23.55 14.45 23.6 14.4 23.6 14.35 23.6 14.3 23.65 14.25 23.7 14.2 23.7 14.15 23.75 14.1 23.8 14.05 23.85 14.0 23.9 13.9 23.95 13.85 24.0 13.8 24.05 13.75 24.15 13.7 24.2 13.65 24.25 13.6 24.35 13.55 24.4 13.5 24.45 13.45 24.55 13.4 24.6 13.35 24.7 13.3 24.75 13.3 24.85 13.25 24.9 13.25 24.95 13.2 25.05 13.2 25.1 13.2 25.2 13.15 25.25 13.15 25.35 13.15 25.4 13.15 25.5 13.15 25.55 13.15 25.6 13.2 25.65 13.2 25.75 13.2 25.8 13.25 25.85 13.25 25.95 13.3 26.0 13.3 26.05 13.35 26.1 13.4 26.15 13.4 26.2 13.45 26.3 13.5 26.35 13.55 26.4 13.6 26.45 13.65 26.5 13.7 26.55 13.8 26.6 13.85 26.65 13.95 26.7 14.0 26.75 14.1 26.8 14.2 26.8 14.3 26.85 14.4 26.85 14.5 26.9 14.6 26.9 14.75 26.95 14.85 26.95 15.0 26.95 15.15 27.0 15.25 27.0 15.4 27.0 15.5 27.05 15.6 27.05 15.75 27.05 15.85 27.05 15.95 27.1 16.05 27.1 16.2 27.1 16.3 27.1 16.4 27.1 16.5 27.1 16.6 27.1 16.7 27.1 16.75 27.1 16.85 27.1 16.95 27.1 17.05 27.1 17.15 27.1 17.25 27.1 17.35 27.1 17.45 27.1 17.55 27.1 17.65 27.05 17.7 27.05 17.8 27.05 17.9 27.05 18.0 27.05 18.1 27.0 18.25 27.0 18.35 27.0 18.45 27.0 18.55 26.95 18.65 26.95 18.7 26.95 18.8 26.9 18.85 26.9 18.95 26.9 19.0 26.9 19.1 26.85 19.15 26.85 19.2 26.85 19.25 26.8 19.3 26.8 19.35 26.8 19.4 26.75 19.4 26.75 19.45 26.7 19.45 26.7 19.5 26.65 19.5 26.65 19.55 26.65 19.55 26.6 19.6 26.55 19.6 26.55 19.65 26.5 19.65 26.45 19.7 26.45 19.7 26.4 19.7 26.35 19.75 26.3 19.75 26.25 19.75 26.2 19.8 26.1 19.8 26.05 19.85 26.0 19.85 25.95 19.9 25.9 19.95 25.85 19.95 25.85 20.0 25.8 20.05 25.75 20.1 25.75 20.1 25.7 20.15 25.7 20.2 25.7 20.25 25.7 20.3 25.7 20.35 25.7 20.4 25.7 20.45 25.7 20.5 25.7 20.55 25.75 20.6 25.75 20.6 25.75 20.65 25.8 20.65 25.8 20.7 25.85 20.7 25.85 20.7 25.9 20.75 25.95 20.75 25.95 20.75 26.0 20.75 26.05 20.8 26.15 20.8 26.2 20.8 26.25 20.8 26.35 20.8 26.4 20.8 26.5 20.8 26.6 20.8 26.7 20.8 26.8 20.8 26.9 20.8 27.35 20.8 27.75 20.8 28.1 20.8 28.45 20.8 28.8 20.75 29.05 20.75 29.35 20.7 29.55 20.7 29.8 20.65 29.95 20.6 30.1 20.6 30.2 20.55 30.35 20.5 30.4 20.4 30.45 20.35 30.45 20.3 30.45 20.25 30.45 20.25 30.4 20.2 30.4 20.2 30.4 20.15 30.35 20.1 30.3 20.1 30.3 20.05 30.25 20.0 30.2 20.0 30.15 19.95 30.05 19.9 30.0 19.85 29.95 19.8 29.85 19.8 29.75 19.75 L29.0 19.35 29.0 16.7 Q29.0 16.4 29.0 16.15 29.0 15.9 29.0 15.65 29.0 15.4 29.0 15.2 28.95 15.0 28.95 14.8 28.95 14.6 28.9 14.4 28.9 14.2 28.85 14.05 28.85 13.9 28.8 13.75 28.75 13.6 28.75 13.5 28.7 13.35 28.65 13.25 28.6 13.15 28.55 13.05 28.5 12.95 28.45 12.85 28.4 12.75 28.3 12.65 28.25 12.55 28.15 12.5 28.1 12.4 28.0 12.35 27.9 12.3 27.8 12.2 27.7 12.15 27.6 12.1 27.5 12.05 27.45 12.0 27.35 11.95 27.25 11.95 27.15 11.9 27.05 11.85 27.0 11.85 26.9 11.8 26.8 11.8 26.7 11.8 26.6 11.75 26.5 11.75 26.4 11.75 26.3 11.75 26.2 11.75 26.1 11.75 26.0 11.75 25.9 11.75 25.8 11.75 25.7 11.75 25.55 11.8 25.45 11.8 25.35 11.85 25.25 11.9 25.15 11.9 25.0 11.95 24.9 12.0 24.8 12.05 24.7 12.1 24.55 12.2 24.45 12.25 24.3 12.35 L23.3 12.9 23.3 9.95 Q23.3 8.05 23.35 7.4 23.35 7.3 23.4 7.25 23.4 7.15 23.4 7.1 23.45 7.05 23.45 6.95 23.5 6.9 23.5 6.8 23.55 6.75 23.55 6.7 23.6 6.6 23.65 6.55 23.65 6.5 23.7 6.45 23.75 6.35 23.8 6.3 23.85 6.25 23.9 6.2 23.95 6.15 23.95 6.1 24.0 6.05 24.05 5.95 24.05 5.9 24.1 5.85 24.15 5.8 24.15 5.75 24.15 5.7 24.2 5.65 24.2 5.6 24.2 5.55 24.2 5.5 24.2 5.45 24.2 5.4 24.2 5.35 24.2 5.3 24.2 5.25 24.2 5.2 24.2 5.2 24.2 5.15 24.2 5.1 24.15 5.1 24.15 5.05 24.1 5.05 24.1 5.05 24.05 5.0 24.05 5.0 24.0 5.0 23.95 5.0 23.9 5.0 23.85 5.0 23.8 5.05 23.7 5.05 23.65 5.1 23.5 5.15 23.4 5.2 23.3 5.25 23.15 5.3 23.0 5.4 22.85 5.45 22.7 5.55 22.5 5.65 22.35 5.75 22.15 5.85 21.9 5.95 21.7 6.1 21.5 6.2 21.3 6.3 21.15 6.4 21.0 6.5 20.85 6.6 20.7 6.7 20.6 6.8 20.5 6.9 20.4 7.0 20.35 7.05 20.3 7.15 20.2 7.2 20.2 7.3 20.15 7.35 20.15 7.4 20.15 7.45 20.15 7.5 20.2 7.55 20.2 7.6 20.2 7.65 20.25 7.7 20.25 7.75 20.3 7.75 20.35 7.8 20.4 7.8 20.45 7.85 20.5 7.85 20.55 7.85 20.65 7.9 20.7 7.9 20.75 7.9 L20.75 7.9" fill="#ffffff" fill-rule="evenodd" stroke="none"/>
    <path d="M33.2 10.2 Q33.25 10.2 33.25 10.2 33.3 10.2 33.35 10.2 33.4 10.2 33.4 10.15 33.45 10.15 33.5 10.1 33.55 10.1 33.6 10.05 33.65 10.05 33.7 10.0 33.75 10.0 33.85 9.95 33.9 9.9 33.95 9.85 34.0 9.8 34.05 9.75 34.1 9.7 34.15 9.65 34.2 9.65 34.25 9.55 34.3 9.5 34.3 9.45 34.35 9.4 34.35 9.35 34.4 9.3 34.4 9.2 34.4 9.15 34.45 9.1 34.45 9.0 34.45 8.95 34.45 8.9 34.45 8.8 34.45 8.75 34.4 8.65 34.4 8.6 34.4 8.55 34.35 8.5 34.35 8.4 34.3 8.35 34.3 8.3 34.25 8.25 34.2 8.2 34.2 8.15 34.15 8.1 34.1 8.05 34.05 8.0 34.0 7.95 33.95 7.9 33.9 7.9 33.85 7.85 33.8 7.8 33.75 7.8 33.7 7.75 33.6 7.75 33.55 7.7 33.5 7.7 33.45 7.7 33.35 7.65 33.3 7.65 33.25 7.65 33.15 7.65 33.1 7.65 33.05 7.65 32.95 7.65 32.9 7.65 32.85 7.7 32.8 7.7 32.7 7.7 32.65 7.75 32.6 7.75 32.55 7.8 32.5 7.8 32.45 7.85 32.4 7.9 32.35 7.95 32.3 8.0 32.25 8.05 32.25 8.1 32.2 8.15 32.2 8.2 32.15 8.25 32.1 8.3 32.1 8.4 32.05 8.4 32.05 8.45 32.0 8.5 32.0 8.55 32.0 8.6 31.95 8.65 31.95 8.7 31.95 8.75 31.95 8.75 31.95 8.8 31.95 8.85 31.95 9.0 31.95 9.15 32.0 9.3 32.0 9.45 32.05 9.6 32.1 9.7 32.15 9.8 32.25 9.85 32.35 9.95 32.4 10.0 32.5 10.1 32.65 10.15 32.75 10.15 32.9 10.2 33.05 10.2 33.2 10.2 L33.2 10.2 M34.4 20.8 Q34.5 20.8 34.6 20.8 34.7 20.8 34.8 20.8 34.9 20.8 35.0 20.8 35.05 20.8 35.15 20.8 35.2 20.8 35.25 20.8 35.3 20.75 35.35 20.75 35.4 20.75 35.45 20.75 35.45 20.7 35.5 20.7 35.55 20.7 35.55 20.65 35.55 20.65 35.6 20.6 35.6 20.55 35.6 20.55 35.6 20.5 35.65 20.45 35.65 20.4 35.65 20.35 35.65 20.3 35.65 20.25 35.65 20.2 35.6 20.15 35.6 20.1 35.55 20.1 35.55 20.05 35.5 20.0 35.5 19.95 35.45 19.95 35.4 19.9 35.35 19.9 35.3 19.85 35.25 19.85 35.2 19.8 35.15 19.8 35.1 19.8 35.05 19.75 34.95 19.75 34.9 19.7 34.85 19.7 34.8 19.65 34.75 19.6 34.7 19.6 34.65 19.55 34.65 19.5 34.6 19.45 34.55 19.4 34.5 19.35 34.5 19.3 34.45 19.25 34.4 19.15 34.35 19.1 34.35 19.0 34.3 18.95 34.3 18.8 34.3 18.7 34.25 18.6 34.25 18.45 34.25 18.3 34.2 18.1 34.2 17.95 34.2 17.75 34.2 17.55 34.2 17.3 34.2 17.1 34.15 16.85 34.15 16.6 L34.25 13.0 Q34.25 12.85 34.25 12.65 34.25 12.5 34.25 12.4 34.25 12.25 34.25 12.15 34.2 12.05 34.2 11.95 34.2 11.85 34.2 11.8 34.15 11.7 34.15 11.65 34.15 11.6 34.1 11.6 34.1 11.55 34.05 11.55 33.7 11.5 33.7 11.5 33.65 11.5 33.6 11.5 33.55 11.55 33.5 11.55 33.45 11.6 33.45 11.65 33.2 11.75 32.15 11.9 32.0 11.9 31.85 11.95 31.75 11.95 31.65 12.0 31.55 12.05 31.45 12.05 31.35 12.1 31.25 12.15 31.2 12.15 31.15 12.2 31.1 12.25 31.05 12.3 31.0 12.3 31.0 12.35 31.0 12.4 31.0 12.45 31.0 12.5 31.0 12.5 31.0 12.55 31.0 12.55 31.0 12.6 31.05 12.6 31.05 12.65 31.1 12.65 31.1 12.7 31.15 12.7 31.15 12.75 31.2 12.8 31.25 12.8 31.25 12.85 31.3 12.85 31.35 12.9 31.4 12.9 31.45 12.95 31.5 12.95 31.55 12.95 31.55 12.95 31.6 13.0 31.65 13.0 31.65 13.0 31.7 13.05 31.7 13.05 31.75 13.05 31.75 13.1 31.8 13.1 31.8 13.1 31.8 13.1 31.8 13.1 31.85 13.1 31.85 13.15 31.9 13.2 31.9 13.25 31.95 13.25 32.0 13.35 32.0 13.4 32.0 13.4 32.0 13.4 32.05 13.45 32.05 13.45 32.05 13.5 32.05 13.5 32.05 13.55 32.05 13.55 32.1 13.6 32.1 13.65 32.1 13.65 32.1 13.7 32.1 13.75 32.1 13.8 32.15 13.8 32.15 13.65 32.2 14.6 32.2 15.45 32.25 16.35 L32.3 19.35 31.55 19.75 Q31.45 19.8 31.4 19.85 31.35 19.85 31.25 19.9 31.2 19.95 31.15 20.0 31.1 20.0 31.05 20.05 31.05 20.1 31.0 20.1 30.95 20.15 30.95 20.2 30.95 20.2 30.9 20.25 30.9 20.3 30.9 20.3 30.9 20.35 30.95 20.4 31.0 20.5 31.1 20.55 31.25 20.6 31.4 20.6 31.55 20.65 31.8 20.7 32.0 20.75 32.3 20.75 32.55 20.8 32.9 20.8 33.2 20.8 33.6 20.8 33.95 20.8 34.4 20.8 L34.4 20.8" fill="#ffffff" fill-rule="evenodd" stroke="none"/>
    <path d="M40.05 19.9 Q40.0 19.9 39.95 19.9 39.95 19.9 39.9 19.9 39.85 19.9 39.85 19.9 39.85 19.9 39.7 19.8 39.7 19.8 39.65 19.7 39.65 19.65 39.6 19.5 39.6 19.1 39.55 19.05 39.5 18.9 39.5 18.15 L39.45 17.4 39.4 13.0 40.3 13.1 Q41.3 13.3 41.3 13.35 41.3 13.35 41.35 13.4 41.35 13.4 41.4 13.4 41.4 13.4 41.45 13.4 41.45 13.4 41.5 13.4 41.5 13.4 41.55 13.35 41.55 13.35 41.6 13.3 41.65 13.3 41.65 13.25 41.7 13.2 41.75 13.15 41.8 13.1 41.8 13.05 41.85 13.0 41.9 12.95 41.9 12.95 41.95 12.9 41.95 12.85 41.95 12.8 42.0 12.75 42.0 12.7 42.0 12.7 42.0 12.65 42.05 12.6 42.05 12.55 42.05 12.5 42.05 12.45 42.05 12.4 42.05 12.4 42.05 12.35 42.05 12.3 42.0 12.3 42.0 12.25 42.0 12.25 42.0 12.2 41.95 12.2 41.95 12.15 41.95 12.15 41.9 12.15 41.9 12.1 41.85 12.1 41.85 12.1 41.8 12.05 41.5 12.0 40.7 12.0 L39.4 12.0 39.4 9.5 Q39.4 8.0 39.45 7.4 39.45 7.35 39.5 7.25 39.5 7.2 39.5 7.15 39.55 7.05 39.55 7.0 39.6 6.95 39.6 6.9 39.65 6.85 39.65 6.8 39.7 6.75 39.7 6.7 39.75 6.65 39.8 6.6 39.8 6.6 39.85 6.55 39.9 6.5 39.9 6.5 39.95 6.45 40.0 6.4 40.05 6.4 40.05 6.35 40.1 6.35 40.15 6.35 40.2 6.3 40.2 6.3 40.25 6.3 40.3 6.3 40.35 6.25 40.35 6.25 40.4 6.25 40.45 6.25 40.5 6.25 40.5 6.25 40.55 6.25 40.6 6.3 40.65 6.3 40.7 6.35 40.75 6.35 40.8 6.4 40.85 6.45 40.95 6.5 41.0 6.55 41.05 6.6 41.15 6.65 41.2 6.7 41.3 6.75 41.4 6.85 41.5 6.9 41.55 7.0 41.65 7.05 41.7 7.1 41.8 7.15 41.85 7.2 41.95 7.25 42.0 7.25 42.05 7.3 42.15 7.35 42.2 7.35 42.25 7.35 42.35 7.4 42.4 7.4 42.45 7.4 42.5 7.4 42.55 7.4 42.6 7.4 42.65 7.4 42.7 7.4 42.75 7.4 42.8 7.35 42.85 7.35 42.9 7.35 42.95 7.3 43.0 7.3 43.05 7.25 43.05 7.25 43.1 7.2 43.15 7.2 43.2 7.15 43.2 7.1 43.25 7.05 43.25 7.05 43.3 7.0 43.35 6.95 43.35 6.95 43.4 6.9 43.4 6.85 43.45 6.8 43.45 6.8 43.45 6.75 43.5 6.7 43.5 6.65 43.5 6.6 43.5 6.6 43.5 6.55 43.5 6.5 43.5 6.45 43.5 6.4 43.5 6.4 43.5 6.35 43.5 6.3 43.45 6.25 43.45 6.2 43.45 6.15 43.4 6.15 43.4 6.1 43.35 6.05 43.35 6.0 43.3 5.95 43.3 5.95 43.25 5.9 43.2 5.85 43.1 5.75 43.0 5.65 42.9 5.6 42.8 5.5 42.7 5.45 42.55 5.35 42.4 5.3 42.25 5.25 42.1 5.2 41.95 5.15 41.8 5.15 41.6 5.1 41.45 5.1 41.25 5.05 41.05 5.05 40.85 5.05 40.75 5.05 40.65 5.05 40.6 5.1 40.5 5.1 40.4 5.1 40.3 5.15 40.2 5.15 40.1 5.2 40.05 5.25 39.95 5.25 39.85 5.3 39.75 5.35 39.65 5.4 39.6 5.45 39.5 5.5 39.4 5.55 39.25 5.65 39.15 5.75 39.0 5.85 38.85 5.95 38.75 6.05 38.65 6.15 38.55 6.25 38.45 6.35 38.35 6.45 38.25 6.55 38.2 6.65 38.1 6.75 38.05 6.85 38.0 7.0 37.9 7.1 37.85 7.2 37.8 7.3 37.75 7.45 37.7 7.55 37.7 7.7 37.65 7.8 37.65 7.95 37.6 8.15 37.55 8.3 37.55 8.45 37.55 8.65 37.5 8.8 37.5 9.0 37.5 9.2 37.5 9.4 37.5 9.65 37.5 9.85 L37.5 12.0 36.65 12.0 Q36.55 12.0 36.45 12.0 36.3 12.0 36.25 12.05 36.15 12.05 36.05 12.1 36.0 12.1 35.95 12.15 35.85 12.2 35.8 12.2 35.8 12.25 35.75 12.35 35.7 12.4 35.7 12.45 35.7 12.5 35.7 12.6 35.7 12.65 35.7 12.75 35.75 12.8 35.85 12.85 35.85 12.85 35.9 12.9 35.9 12.9 35.95 12.9 36.0 12.9 36.05 12.9 36.1 12.95 36.15 12.95 36.2 12.95 36.25 12.95 36.3 12.95 36.4 12.95 36.45 12.95 36.55 12.95 36.6 12.95 36.7 12.95 L37.5 12.95 37.45 15.85 Q37.4 17.5 37.3 18.4 37.3 18.5 37.25 18.6 37.25 18.7 37.25 18.8 37.2 18.9 37.2 18.95 37.15 19.05 37.15 19.15 37.1 19.2 37.1 19.25 37.05 19.35 37.0 19.4 36.95 19.45 36.95 19.5 36.9 19.55 36.85 19.6 36.8 19.65 36.75 19.7 36.7 19.75 36.65 19.8 36.6 19.85 36.6 19.9 36.55 19.95 36.5 20.0 36.5 20.0 36.45 20.05 36.4 20.1 36.4 20.15 36.35 20.2 36.35 20.25 36.35 20.3 36.3 20.3 36.3 20.35 36.25 20.4 36.25 20.5 36.25 20.5 36.25 20.55 36.25 20.6 36.25 20.65 36.25 20.65 36.25 20.7 36.3 20.7 36.3 20.75 36.3 20.75 36.3 20.75 36.35 20.75 36.35 20.75 36.55 20.8 36.8 20.8 37.0 20.85 37.05 20.85 37.15 20.9 37.2 20.9 37.3 20.9 37.35 20.9 37.45 20.9 37.55 20.95 37.65 20.95 37.7 20.95 37.8 20.95 37.9 20.95 38.0 20.9 38.1 20.9 38.2 20.9 38.35 20.9 38.45 20.9 L40.35 20.8 Q40.4 20.8 40.55 20.8 40.6 20.8 40.6 20.8 40.65 20.8 40.7 20.8 40.7 20.75 40.75 20.75 40.75 20.75 40.75 20.75 40.8 20.7 40.8 20.7 40.8 20.65 40.8 20.65 40.85 20.6 40.85 20.55 40.85 20.55 40.85 20.5 40.85 20.45 40.85 20.35 40.8 20.3 40.8 20.25 40.75 20.2 40.75 20.15 40.7 20.1 40.65 20.05 40.6 20.0 40.55 20.0 40.45 19.95 40.4 19.95 40.3 19.95 40.25 19.9 40.15 19.9 40.05 19.9 L40.05 19.9" fill="#ffffff" fill-rule="evenodd" stroke="none"/>
    <path d="M47.75 20.35 Q47.75 20.35 47.75 20.3 47.7 20.3 47.7 20.25 47.7 20.25 47.65 20.2 47.6 20.2 47.55 20.15 47.55 20.1 47.5 20.1 47.4 20.05 47.35 20.05 47.3 20.0 47.2 19.95 47.15 19.9 47.05 19.9 46.95 19.85 46.9 19.8 46.8 19.8 46.75 19.75 46.7 19.7 46.65 19.65 46.55 19.65 46.5 19.6 46.45 19.55 46.4 19.55 46.4 19.5 46.35 19.45 46.3 19.45 46.25 19.4 46.25 19.35 46.2 19.35 46.05 19.1 46.05 16.15 L46.05 13.2 47.15 13.2 Q47.25 13.2 47.3 13.2 47.4 13.2 47.5 13.2 47.55 13.2 47.6 13.2 47.7 13.2 47.75 13.2 47.8 13.2 47.85 13.2 47.9 13.15 47.9 13.15 47.95 13.15 48.0 13.15 48.0 13.15 48.05 13.1 48.05 13.1 48.1 13.05 48.1 13.05 48.15 13.05 48.15 13.0 48.15 13.0 48.15 12.95 48.2 12.95 48.2 12.9 48.2 12.85 48.2 12.85 48.2 12.8 48.2 12.75 48.2 12.7 48.2 12.65 48.2 12.6 48.2 12.55 48.2 12.5 48.2 12.45 48.2 12.4 48.2 12.35 48.2 12.35 48.15 12.3 48.15 12.25 48.15 12.2 48.15 12.2 48.1 12.15 48.1 12.15 48.05 12.15 48.05 12.1 48.0 12.1 48.0 12.1 47.95 12.1 47.9 12.05 47.85 12.05 47.75 12.05 47.65 12.05 47.5 12.0 47.35 12.0 47.15 12.0 L46.1 12.0 46.0 10.85 Q46.0 10.7 45.95 10.6 45.95 10.45 45.95 10.35 45.9 10.25 45.9 10.15 45.85 10.05 45.85 10.0 45.8 9.95 45.8 9.85 45.75 9.8 45.7 9.8 45.7 9.75 45.65 9.75 45.6 9.7 45.55 9.7 45.5 9.7 45.5 9.7 45.45 9.75 45.4 9.75 45.35 9.75 45.35 9.8 45.3 9.85 45.25 9.9 45.2 9.9 45.15 9.95 45.1 10.0 45.05 10.1 45.0 10.15 44.95 10.2 44.85 10.3 44.8 10.4 44.75 10.5 44.7 10.55 44.6 10.65 44.55 10.7 44.5 10.8 44.4 10.85 44.3 10.95 44.25 11.05 44.15 11.1 44.05 11.2 43.95 11.3 43.85 11.35 43.75 11.45 43.65 11.5 43.5 11.6 43.4 11.7 43.3 11.75 43.2 11.85 43.1 11.9 43.0 11.95 42.9 12.0 42.85 12.05 42.8 12.15 42.7 12.2 42.65 12.25 42.65 12.3 42.6 12.35 42.55 12.4 42.55 12.45 42.5 12.5 42.5 12.55 42.5 12.6 42.5 12.65 42.5 12.7 42.5 12.7 42.55 12.75 42.55 12.8 42.6 12.8 42.65 12.85 42.7 12.9 42.75 12.95 42.8 12.95 42.85 13.0 42.9 13.0 43.0 13.05 43.05 13.05 43.15 13.1 43.25 13.1 L44.0 13.35 44.15 19.45 43.4 19.8 Q43.3 19.85 43.25 19.9 43.15 19.95 43.1 20.0 43.05 20.0 43.0 20.05 42.95 20.1 42.9 20.15 42.85 20.15 42.85 20.2 42.8 20.25 42.8 20.25 42.75 20.3 42.75 20.35 42.75 20.35 42.75 20.4 42.75 20.45 42.8 20.5 42.85 20.55 42.9 20.55 43.0 20.6 43.1 20.65 43.2 20.65 43.35 20.7 43.55 20.7 43.7 20.7 43.9 20.75 44.15 20.75 44.4 20.75 44.65 20.75 44.95 20.8 45.25 20.8 45.55 20.8 45.85 20.8 46.1 20.8 46.35 20.75 46.55 20.75 46.75 20.7 46.95 20.7 47.1 20.65 47.25 20.65 47.4 20.6 47.5 20.6 47.6 20.55 47.65 20.5 47.7 20.45 47.75 20.4 47.75 20.35 L47.75 20.35" fill="#ffffff" fill-rule="evenodd" stroke="none"/>
    <path d="M5.25 11.25 Q5.3 11.25 5.35 11.25 5.4 11.25 5.45 11.2 5.5 11.2 5.6 11.2 5.65 11.15 5.75 11.15 5.85 11.1 5.9 11.1 6.05 11.05 6.15 11.0 6.25 11.0 6.35 10.95 6.5 10.9 6.65 10.85 6.8 10.8 6.9 10.75 7.05 10.75 7.15 10.7 7.25 10.65 7.35 10.65 7.45 10.6 7.55 10.6 7.65 10.55 7.75 10.55 7.85 10.5 7.9 10.5 8.0 10.5 8.05 10.5 8.15 10.5 8.2 10.5 8.25 10.5 8.35 10.5 8.4 10.5 8.5 10.5 8.6 10.55 8.7 10.55 8.75 10.55 8.9 10.6 9.0 10.6 9.1 10.65 9.2 10.65 9.35 10.7 9.45 10.75 9.6 10.8 9.75 10.85 9.9 10.85 10.05 10.9 10.15 10.95 10.3 11.0 10.4 11.05 10.55 11.05 10.65 11.1 10.75 11.15 10.85 11.15 10.95 11.2 11.05 11.2 11.15 11.2 11.25 11.25 11.35 11.25 11.4 11.25 11.5 11.25 11.55 11.25 11.6 11.25 11.7 11.25 11.75 11.25 11.8 11.25 11.85 11.25 11.9 11.2 11.95 11.2 11.95 11.2 12.0 11.15 12.0 11.15 12.05 11.1 12.05 11.05 12.1 11.05 12.1 11.0 12.1 10.95 12.1 10.9 12.1 10.85 12.05 10.75 12.05 10.7 12.0 10.6 11.95 10.5 11.85 10.4 11.8 10.35 11.7 10.25 11.6 10.15 11.45 10.05 11.35 9.95 11.2 9.85 11.05 9.7 10.85 9.6 10.7 9.5 10.5 9.35 10.3 9.25 10.1 9.1 9.9 9.0 9.75 8.9 9.55 8.85 9.4 8.75 9.25 8.65 9.1 8.6 8.95 8.55 8.85 8.5 8.7 8.45 8.6 8.45 8.5 8.4 8.4 8.4 8.35 8.35 8.25 8.35 8.15 8.35 8.1 8.35 8.0 8.4 7.9 8.4 7.8 8.45 7.7 8.45 7.6 8.5 7.5 8.55 7.4 8.6 7.3 8.65 7.2 8.7 7.05 8.75 6.95 8.85 6.85 8.9 6.7 9.0 6.55 9.1 5.35 9.85 5.1 10.0 5.05 10.05 5.0 10.05 4.95 10.1 4.95 10.1 4.9 10.15 4.85 10.15 4.85 10.2 4.8 10.2 4.8 10.25 4.8 10.25 4.75 10.3 4.75 10.3 4.75 10.35 4.75 10.35 4.75 10.4 4.75 10.4 4.75 10.5 4.75 10.6 4.75 10.7 4.75 10.75 4.8 10.85 4.8 10.9 4.85 10.95 4.85 11.0 4.9 11.05 4.95 11.1 4.95 11.15 5.0 11.15 5.05 11.2 5.1 11.2 5.15 11.25 5.25 11.25 L5.25 11.25" fill="#ffffff" fill-rule="evenodd" stroke="none"/>
  </g>
</svg>
