<?xml version="1.0" encoding="UTF-8" standalone="no"?>
<svg xmlns:ffdec="https://www.free-decompiler.com/flash" xmlns:xlink="http://www.w3.org/1999/xlink" ffdec:objectType="shape" height="26.0px" width="41.75px" xmlns="http://www.w3.org/2000/svg">
  <g transform="matrix(1.0, 0.0, 0.0, 1.0, 0.0, 0.0)">
    <path d="M31.05 4.65 Q31.0 4.65 30.95 4.65 30.9 4.65 30.8 4.7 30.75 4.75 30.6 4.8 30.5 4.8 30.4 4.9 30.25 4.95 30.1 5.0 29.95 5.1 29.8 5.2 29.6 5.25 29.4 5.35 29.2 5.45 29.0 5.6 28.8 5.75 28.6 5.85 28.4 5.95 28.25 6.05 28.05 6.15 27.95 6.25 27.8 6.35 27.7 6.45 27.6 6.55 27.5 6.65 27.4 6.7 27.35 6.8 27.3 6.85 27.3 6.95 27.25 7.0 27.25 7.05 27.25 7.1 27.25 7.15 27.25 7.2 27.3 7.25 27.3 7.3 27.3 7.3 27.35 7.35 27.35 7.35 27.35 7.4 27.4 7.4 27.4 7.4 27.45 7.4 27.45 7.45 27.45 7.45 27.5 7.45 27.5 7.45 27.55 7.45 27.6 7.45 27.6 7.5 27.65 7.5 27.65 7.5 27.7 7.5 27.75 7.5 27.8 7.5 27.8 7.5 27.85 7.5 L28.45 7.5 28.45 19.0 27.7 19.4 Q27.6 19.45 27.55 19.5 27.45 19.55 27.4 19.55 27.35 19.6 27.3 19.65 27.25 19.7 27.2 19.7 27.15 19.75 27.15 19.8 27.1 19.8 27.1 19.85 27.05 19.9 27.05 19.9 27.05 19.95 27.05 19.95 27.05 20.0 27.1 20.05 27.1 20.1 27.15 20.15 27.25 20.15 27.3 20.2 27.4 20.25 27.55 20.25 27.65 20.3 27.8 20.3 27.95 20.3 28.15 20.35 28.3 20.35 28.55 20.35 28.75 20.35 29.0 20.35 30.9 20.35 31.35 20.3 31.4 20.3 31.45 20.25 31.5 20.25 31.55 20.25 31.55 20.2 31.6 20.2 31.65 20.15 31.65 20.15 31.7 20.1 31.7 20.05 31.75 20.0 31.75 20.0 31.75 19.95 31.75 19.9 31.75 19.85 31.75 19.8 31.75 19.75 31.75 19.75 31.75 19.7 31.75 19.7 31.75 19.65 31.7 19.65 31.7 19.6 31.7 19.6 31.65 19.55 31.65 19.55 31.6 19.55 31.6 19.55 31.55 19.5 31.5 19.5 31.5 19.5 31.45 19.5 31.4 19.5 31.35 19.5 31.3 19.5 31.3 19.5 31.25 19.5 31.2 19.45 31.15 19.45 31.1 19.45 31.05 19.4 31.05 19.4 31.0 19.35 30.95 19.35 30.9 19.3 30.9 19.3 30.85 19.25 30.8 19.2 30.75 19.15 30.75 19.1 30.7 19.05 30.7 19.0 30.65 18.95 30.6 18.85 30.6 18.75 30.55 18.7 30.55 18.6 30.55 18.5 30.5 18.4 30.5 18.25 30.5 18.15 30.45 18.0 30.45 17.9 30.45 17.75 30.4 16.6 30.4 12.5 30.35 8.55 30.45 7.4 30.45 7.3 30.45 7.15 30.5 7.05 30.5 6.95 30.5 6.85 30.55 6.75 30.55 6.65 30.6 6.55 30.6 6.45 30.65 6.4 30.7 6.3 30.75 6.25 30.75 6.15 30.8 6.1 30.85 6.05 30.9 6.0 30.95 5.95 31.0 5.9 31.05 5.8 31.05 5.75 31.1 5.7 31.15 5.65 31.15 5.6 31.2 5.55 31.2 5.45 31.25 5.4 31.25 5.35 31.3 5.3 31.3 5.25 31.3 5.2 31.35 5.15 31.35 5.05 31.35 5.0 31.35 4.95 31.35 4.9 31.35 4.85 31.35 4.85 31.3 4.8 31.3 4.75 31.3 4.75 31.3 4.7 31.25 4.7 31.25 4.7 31.2 4.65 31.15 4.65 31.15 4.65 31.1 4.65 31.05 4.65 L31.05 4.65 M19.75 6.2 Q19.7 6.2 19.65 6.2 19.6 6.2 19.5 6.25 19.45 6.25 19.4 6.25 19.3 6.3 19.25 6.3 19.2 6.35 19.1 6.4 19.0 6.4 18.95 6.45 18.85 6.5 18.75 6.55 18.65 6.6 18.55 6.65 17.6 7.2 17.5 7.35 17.45 7.4 17.45 7.4 17.4 7.45 17.35 7.5 17.35 7.5 17.35 7.55 17.3 7.55 17.3 7.6 17.3 7.6 17.3 7.65 17.3 7.7 17.3 7.7 17.3 7.75 17.3 7.75 17.3 7.8 17.35 7.8 17.35 7.85 17.4 7.85 17.4 7.9 17.45 7.9 17.45 7.95 17.5 8.0 17.5 8.0 17.55 8.05 17.6 8.05 17.65 8.1 17.65 8.1 17.7 8.1 17.75 8.15 17.8 8.15 17.85 8.15 17.9 8.2 18.35 8.35 18.35 8.35 18.35 8.35 18.35 8.35 18.4 8.35 18.4 8.35 18.4 8.4 18.4 8.4 18.4 8.4 18.45 8.4 18.45 8.45 18.45 8.45 18.45 8.45 18.5 8.5 18.5 8.5 18.5 8.55 18.5 8.6 18.55 8.6 18.55 8.65 18.55 8.65 18.6 8.7 18.6 8.75 18.6 8.8 18.6 8.8 18.6 8.85 18.6 8.9 18.6 8.95 18.6 9.0 18.6 9.05 18.6 9.1 18.6 9.15 18.6 9.2 18.6 9.3 18.6 9.35 18.6 9.7 17.95 11.55 L16.5 15.35 Q15.3 18.5 15.05 18.8 15.0 18.85 14.95 18.9 14.9 18.95 14.9 18.95 14.85 19.0 14.8 19.05 14.75 19.05 14.65 19.1 14.6 19.15 14.55 19.15 14.5 19.2 14.45 19.2 14.35 19.25 14.3 19.3 14.2 19.3 14.15 19.3 14.1 19.3 14.0 19.35 13.95 19.35 13.9 19.4 13.85 19.45 13.8 19.45 13.75 19.5 13.7 19.5 13.65 19.55 13.65 19.6 13.6 19.6 13.6 19.65 13.6 19.7 13.55 19.7 13.55 19.75 13.55 19.8 13.55 19.85 13.55 19.9 13.55 19.95 13.6 19.95 13.6 20.0 13.6 20.05 13.65 20.05 13.65 20.1 13.7 20.1 13.75 20.15 13.75 20.15 13.8 20.2 13.85 20.2 13.9 20.2 13.95 20.25 14.0 20.25 14.5 20.3 15.85 20.3 17.3 20.3 17.75 20.25 17.8 20.25 17.85 20.2 17.9 20.2 17.95 20.2 18.0 20.2 18.05 20.15 18.05 20.15 18.1 20.15 18.1 20.1 18.15 20.1 18.15 20.05 18.15 20.05 18.2 20.0 18.2 20.0 18.2 20.0 18.2 19.95 18.2 19.9 18.2 19.85 18.2 19.8 18.15 19.75 18.15 19.75 18.1 19.7 18.1 19.65 18.05 19.6 18.0 19.55 17.95 19.5 17.9 19.5 17.85 19.45 17.75 19.4 17.7 19.35 17.65 19.3 17.55 19.25 17.45 19.2 17.4 19.2 17.35 19.15 17.25 19.1 17.2 19.05 17.15 19.05 17.1 19.0 17.05 18.95 17.0 18.9 17.0 18.85 16.95 18.8 16.95 18.75 16.9 18.7 16.9 18.65 16.9 18.6 16.9 18.55 16.9 18.5 16.9 18.45 16.9 18.4 16.9 18.35 16.95 18.25 16.95 18.2 16.95 18.15 17.0 18.05 17.0 18.0 17.0 17.9 17.05 17.85 17.05 17.75 17.1 17.7 17.15 17.6 17.15 17.5 17.2 17.45 L17.55 16.6 21.65 16.6 22.0 17.65 Q22.05 17.75 22.05 17.8 22.05 17.85 22.1 17.95 22.1 18.0 22.1 18.05 22.15 18.15 22.15 18.2 22.15 18.25 22.2 18.3 22.2 18.4 22.2 18.45 22.2 18.5 22.2 18.55 22.2 18.6 22.2 18.65 22.2 18.7 22.2 18.75 22.2 18.8 22.15 18.85 22.15 18.9 22.1 18.95 22.1 19.0 22.05 19.05 22.05 19.1 22.0 19.1 21.95 19.15 21.9 19.15 21.85 19.2 21.75 19.2 21.7 19.2 21.65 19.25 21.6 19.25 21.5 19.3 21.45 19.3 21.4 19.3 21.35 19.35 21.3 19.35 21.25 19.4 21.2 19.45 21.2 19.5 21.15 19.5 21.15 19.55 21.1 19.6 21.1 19.65 21.1 19.7 21.1 19.75 21.1 19.85 21.1 19.9 21.1 19.95 21.1 20.0 21.1 20.05 21.1 20.05 21.15 20.1 21.15 20.1 21.15 20.1 21.15 20.15 21.2 20.15 21.2 20.15 21.2 20.15 21.25 20.15 21.25 20.2 21.25 20.2 21.3 20.2 21.35 20.2 21.35 20.2 21.4 20.2 21.45 20.25 21.45 20.25 21.5 20.25 21.6 20.25 21.85 20.25 22.05 20.3 22.15 20.3 22.4 20.3 23.6 20.3 24.75 20.3 25.15 20.3 25.2 20.3 25.25 20.3 25.3 20.3 25.35 20.3 25.4 20.3 25.45 20.3 25.5 20.25 25.55 20.25 25.6 20.25 25.65 20.25 25.7 20.25 25.75 20.25 25.75 20.25 25.8 20.25 25.85 20.25 25.9 20.25 25.95 20.25 26.0 20.25 26.05 20.2 26.1 20.2 26.15 20.2 26.15 20.2 26.2 20.15 26.2 20.15 26.25 20.15 26.25 20.1 26.3 20.1 26.3 20.1 26.3 20.05 26.3 20.05 26.35 20.05 26.35 19.85 26.35 19.8 26.35 19.75 26.3 19.65 26.3 19.65 26.3 19.6 26.25 19.55 26.25 19.5 26.2 19.45 26.15 19.4 26.1 19.4 26.05 19.35 26.0 19.35 25.95 19.3 25.9 19.3 25.85 19.3 25.8 19.25 25.75 19.25 25.65 19.25 25.6 19.2 25.55 19.2 25.45 19.15 25.4 19.15 25.35 19.1 25.3 19.05 25.25 19.05 25.2 19.0 25.15 18.95 25.1 18.9 25.05 18.85 25.0 18.8 24.95 18.75 24.9 18.7 24.6 18.2 22.55 12.5 L21.2 8.9 Q20.9 8.0 20.6 7.2 20.3 6.5 20.35 6.55 20.35 6.5 20.3 6.45 20.3 6.45 20.25 6.4 20.2 6.35 20.2 6.35 20.15 6.3 20.15 6.3 20.1 6.25 20.05 6.25 20.0 6.25 20.0 6.2 19.95 6.2 19.9 6.2 19.85 6.2 19.8 6.2 19.8 6.2 19.75 6.2 L19.75 6.2 M6.55 6.55 Q5.2 6.55 4.75 6.65 4.7 6.65 4.65 6.65 4.55 6.65 4.5 6.7 4.45 6.7 4.45 6.7 4.4 6.7 4.35 6.75 4.3 6.75 4.3 6.75 4.25 6.8 4.25 6.8 4.2 6.85 4.2 6.85 4.2 6.9 4.15 6.9 4.1 7.2 4.1 7.25 4.1 7.3 4.1 7.3 4.1 7.35 4.15 7.35 4.15 7.4 4.2 7.4 4.2 7.45 4.25 7.45 4.3 7.45 4.35 7.5 4.35 7.5 4.4 7.55 4.45 7.55 4.45 7.55 4.55 7.6 4.55 7.6 4.6 7.6 4.6 7.6 4.65 7.65 4.7 7.65 4.75 7.7 4.8 7.7 4.85 7.75 4.9 7.75 5.0 7.8 5.05 7.85 L5.65 8.15 5.65 18.9 4.85 19.25 Q4.75 19.3 4.7 19.35 4.6 19.35 4.55 19.4 4.45 19.45 4.4 19.5 4.35 19.55 4.3 19.55 4.25 19.6 4.2 19.65 4.2 19.7 4.15 19.75 4.15 19.75 4.15 19.8 4.1 19.85 4.1 19.9 4.1 19.95 4.1 19.95 4.15 20.0 4.15 20.05 4.15 20.05 4.2 20.1 4.2 20.1 4.25 20.15 4.3 20.15 4.35 20.2 4.4 20.2 4.45 20.25 4.5 20.25 4.55 20.25 4.6 20.3 4.65 20.3 5.25 20.4 7.7 20.45 9.85 20.45 10.9 20.55 11.0 20.55 11.05 20.55 11.15 20.6 11.25 20.6 11.3 20.6 11.35 20.6 11.4 20.65 11.45 20.65 11.5 20.65 11.55 20.7 11.6 20.7 11.6 20.75 11.65 20.75 11.65 20.8 11.65 20.8 11.65 20.85 11.65 20.9 11.65 20.95 11.65 21.0 11.7 21.05 11.7 21.1 11.7 21.15 11.75 21.2 11.8 21.2 11.8 21.25 11.85 21.3 11.9 21.3 11.95 21.3 12.0 21.35 12.05 21.35 12.1 21.35 12.15 21.35 12.15 21.35 12.2 21.35 12.2 21.35 12.25 21.35 12.25 21.35 12.3 21.35 12.3 21.3 12.35 21.3 12.35 21.3 12.4 21.3 12.4 21.25 12.45 21.25 12.45 21.2 12.5 21.2 12.5 21.15 12.55 21.15 12.6 21.15 12.6 21.1 12.65 21.05 12.7 20.95 12.75 20.9 12.8 20.75 12.85 20.65 12.9 20.55 12.95 20.4 13.0 20.25 13.05 20.1 13.1 19.9 13.2 19.75 13.25 19.55 13.3 19.35 13.4 19.1 13.95 17.25 13.95 16.95 13.95 16.65 13.95 16.65 13.9 16.6 13.9 16.55 13.85 16.55 13.85 16.5 13.8 16.5 13.8 16.45 13.75 16.45 13.7 16.4 13.7 16.4 13.65 16.4 13.6 16.4 13.6 16.4 13.55 16.4 13.5 16.4 13.45 16.45 13.45 16.45 13.4 16.45 13.35 16.45 13.3 16.5 13.3 16.5 13.25 16.55 13.2 16.55 13.15 16.6 13.1 16.65 13.1 16.65 13.05 16.7 13.0 16.75 12.95 16.8 12.95 16.85 12.9 16.9 12.85 17.0 12.8 17.05 12.65 17.3 12.45 17.55 12.25 17.8 12.05 18.0 11.9 18.2 11.65 18.4 11.45 18.55 11.25 18.7 11.0 18.85 10.8 18.95 10.55 19.05 10.3 19.1 10.1 19.2 9.8 19.2 9.55 19.25 9.3 19.25 9.25 19.25 9.2 19.25 9.15 19.25 9.1 19.25 9.05 19.25 9.05 19.2 9.0 19.2 8.95 19.2 8.9 19.2 8.85 19.2 8.85 19.2 8.8 19.15 8.8 19.15 8.75 19.15 8.75 19.1 8.7 19.1 8.65 19.05 8.65 19.0 8.6 19.0 8.55 18.95 8.55 18.9 8.5 18.85 8.45 18.8 8.4 18.75 8.35 18.7 8.3 18.65 8.25 18.6 8.2 18.55 8.15 18.45 8.15 18.4 8.1 18.35 8.05 18.3 8.05 18.2 8.0 18.15 8.0 18.1 7.95 18.05 7.95 17.95 7.95 17.9 7.9 17.8 7.9 17.75 7.9 17.65 7.9 17.6 7.85 16.9 7.85 15.8 7.85 15.65 7.85 15.5 7.85 15.35 7.85 15.2 7.85 15.05 7.85 14.85 7.85 14.7 7.85 14.55 7.85 14.35 7.85 14.2 7.85 14.0 7.85 13.8 7.85 13.65 7.85 13.45 7.85 13.25 7.85 13.05 L7.95 8.1 8.75 7.8 Q8.85 7.75 8.9 7.7 9.0 7.65 9.05 7.6 9.15 7.55 9.2 7.5 9.25 7.45 9.3 7.4 9.35 7.35 9.4 7.3 9.4 7.25 9.45 7.2 9.45 7.15 9.5 7.1 9.5 7.05 9.5 7.0 9.5 6.95 9.5 6.95 9.5 6.9 9.45 6.85 9.45 6.85 9.45 6.8 9.4 6.8 9.4 6.75 9.35 6.75 9.3 6.7 9.3 6.7 9.25 6.7 9.2 6.65 9.15 6.65 9.1 6.65 9.05 6.65 8.65 6.55 6.95 6.55 6.85 6.55 6.55 6.55 L6.55 6.55 M35.0 9.3 Q34.95 9.3 34.95 9.3 34.9 9.3 34.85 9.35 34.8 9.35 34.75 9.4 34.75 9.4 34.7 9.45 34.65 9.5 34.6 9.55 34.55 9.6 34.5 9.65 34.45 9.75 34.35 9.8 34.3 9.9 34.25 9.95 34.2 10.05 34.15 10.1 34.05 10.2 34.0 10.3 33.9 10.35 33.85 10.45 33.75 10.55 33.65 10.6 33.6 10.7 33.5 10.75 33.4 10.85 33.3 10.95 33.2 11.0 33.05 11.1 32.95 11.2 32.85 11.25 32.75 11.3 32.65 11.4 32.55 11.45 32.45 11.5 32.35 11.6 32.3 11.65 32.2 11.7 32.15 11.75 32.1 11.8 32.05 11.85 32.0 11.95 32.0 12.0 31.95 12.05 31.95 12.1 31.95 12.15 31.95 12.15 31.95 12.2 31.95 12.25 31.95 12.3 32.0 12.3 32.0 12.35 32.05 12.4 32.1 12.45 32.15 12.45 32.15 12.5 32.25 12.55 32.3 12.55 32.35 12.6 32.45 12.65 32.5 12.65 32.6 12.7 32.7 12.7 L33.45 12.95 33.6 19.0 32.85 19.4 Q32.75 19.45 32.7 19.5 32.6 19.55 32.55 19.55 32.5 19.6 32.45 19.65 32.4 19.7 32.35 19.7 32.3 19.75 32.25 19.8 32.25 19.8 32.2 19.85 32.2 19.9 32.2 19.9 32.2 19.95 32.2 19.95 32.2 20.0 32.25 20.05 32.25 20.1 32.35 20.15 32.4 20.15 32.55 20.2 32.65 20.25 32.8 20.25 32.95 20.3 33.15 20.3 33.35 20.3 33.6 20.35 33.8 20.35 34.1 20.35 34.35 20.35 34.7 20.35 35.0 20.35 35.3 20.35 35.55 20.35 35.8 20.35 36.0 20.3 36.2 20.3 36.4 20.3 36.55 20.25 36.7 20.2 36.8 20.2 36.95 20.15 37.0 20.1 37.1 20.1 37.15 20.05 37.15 20.0 37.15 19.95 37.15 19.95 37.15 19.9 37.15 19.9 37.1 19.85 37.1 19.8 37.1 19.8 37.05 19.75 37.0 19.75 36.95 19.7 36.9 19.65 36.85 19.65 36.8 19.6 36.75 19.55 36.65 19.55 36.6 19.5 36.5 19.45 36.4 19.4 36.35 19.4 36.25 19.35 36.2 19.3 36.15 19.25 36.05 19.25 36.0 19.2 35.95 19.15 35.9 19.15 35.85 19.1 35.8 19.05 35.8 19.05 35.75 19.0 35.7 19.0 35.7 18.95 35.65 18.9 35.5 18.7 35.5 15.7 L35.5 12.8 36.55 12.8 Q36.65 12.8 36.75 12.8 36.85 12.8 36.9 12.8 37.0 12.8 37.05 12.8 37.1 12.8 37.15 12.8 37.25 12.75 37.3 12.75 37.3 12.75 37.35 12.75 37.4 12.75 37.45 12.7 37.45 12.7 37.5 12.7 37.5 12.7 37.55 12.65 37.55 12.65 37.55 12.65 37.6 12.6 37.6 12.6 37.6 12.55 37.6 12.5 37.65 12.5 37.65 12.45 37.65 12.4 37.65 12.4 37.65 12.35 37.65 12.3 37.65 12.25 37.65 12.2 37.65 12.15 37.65 12.1 37.65 12.05 37.65 12.0 37.65 12.0 37.65 11.95 37.6 11.9 37.6 11.85 37.6 11.85 37.6 11.8 37.6 11.8 37.55 11.75 37.55 11.75 37.55 11.7 37.5 11.7 37.5 11.7 37.45 11.7 37.45 11.65 37.4 11.65 37.35 11.65 37.35 11.65 37.3 11.65 37.25 11.6 37.2 11.6 37.1 11.6 37.05 11.6 37.0 11.6 36.9 11.6 36.85 11.6 36.75 11.6 36.7 11.6 36.6 11.6 L35.5 11.6 35.45 10.45 Q35.45 10.3 35.4 10.2 35.4 10.05 35.4 9.95 35.35 9.85 35.35 9.75 35.3 9.65 35.3 9.6 35.25 9.5 35.2 9.45 35.2 9.4 35.15 9.35 35.1 9.35 35.05 9.3 35.05 9.3 35.0 9.3 L35.0 9.3 M19.55 11.1 L19.75 11.45 20.15 12.45 Q20.2 12.55 20.25 12.75 20.35 13.0 20.35 13.05 L20.75 14.15 Q20.8 14.3 20.85 14.45 20.9 14.55 20.9 14.65 20.9 14.75 20.9 14.8 20.9 14.85 20.9 14.9 20.9 14.95 20.9 14.95 20.85 15.0 20.85 15.0 20.85 15.05 20.8 15.05 20.8 15.1 20.75 15.1 20.65 15.15 19.55 15.15 L18.1 15.15 18.8 13.2 Q19.45 11.55 19.5 11.35 L19.55 11.1" fill="#ffffff" fill-rule="evenodd" stroke="none"/>
  </g>
</svg>
