<?xml version="1.0" encoding="UTF-8" standalone="no"?>
<svg xmlns:ffdec="https://www.free-decompiler.com/flash" xmlns:xlink="http://www.w3.org/1999/xlink" ffdec:objectType="shape" height="26.0px" width="52.95px" xmlns="http://www.w3.org/2000/svg">
  <g transform="matrix(1.0, 0.0, 0.0, 1.0, 0.0, 0.0)">
    <path d="M11.2 4.6 Q11.2 4.6 11.15 4.6 11.1 4.6 11.05 4.6 11.0 4.6 10.9 4.55 10.85 4.5 10.75 4.45 10.7 4.45 10.65 4.4 10.6 4.4 10.55 4.4 10.5 4.35 10.4 4.35 10.35 4.35 10.25 4.35 10.15 4.35 10.1 4.3 10.0 4.3 9.9 4.3 9.8 4.3 9.65 4.3 9.55 4.3 9.45 4.3 9.35 4.3 9.2 4.3 9.1 4.3 9.0 4.3 8.9 4.3 8.8 4.35 8.7 4.35 8.6 4.35 8.5 4.35 8.45 4.4 8.35 4.4 8.3 4.4 8.2 4.45 8.15 4.45 8.05 4.45 8.0 4.5 7.95 4.5 7.85 4.55 7.8 4.55 7.75 4.6 7.7 4.65 7.6 4.65 7.55 4.7 7.5 4.75 7.45 4.75 7.4 4.8 7.35 4.85 7.25 4.9 7.2 4.95 7.15 4.95 7.1 5.0 7.05 5.05 6.9 5.2 6.8 5.35 6.65 5.45 6.55 5.6 6.45 5.75 6.4 5.9 6.3 6.05 6.25 6.2 6.15 6.35 6.1 6.5 6.05 6.65 6.05 6.8 6.0 6.95 6.0 7.1 5.95 7.25 5.95 7.4 5.95 7.55 5.95 7.7 6.0 7.9 6.0 8.0 6.0 8.15 6.05 8.3 6.1 8.45 6.1 8.55 6.15 8.7 6.2 8.8 6.25 8.9 6.3 9.05 6.4 9.15 6.45 9.25 6.55 9.35 6.6 9.4 6.7 9.5 6.8 9.6 6.9 9.7 7.0 9.8 7.15 9.9 7.3 10.0 7.4 10.1 7.6 10.2 7.75 10.35 7.95 10.45 8.15 10.6 8.35 10.7 8.55 10.85 8.8 11.0 9.05 11.15 9.3 11.3 9.55 11.45 9.8 11.6 10.0 11.75 10.25 11.85 10.45 12.0 10.65 12.15 10.8 12.3 11.0 12.4 11.15 12.55 11.3 12.7 11.45 12.8 11.55 12.95 11.65 13.1 11.75 13.2 11.85 13.35 11.95 13.45 12.0 13.5 12.0 13.6 12.05 13.65 12.05 13.7 12.1 13.75 12.1 13.85 12.15 13.9 12.15 13.95 12.15 14.05 12.2 14.1 12.2 14.15 12.2 14.25 12.2 14.3 12.2 14.4 12.2 14.45 12.2 14.5 12.2 14.6 12.2 14.65 12.2 14.75 12.2 14.8 12.2 14.9 12.15 14.95 12.15 15.05 12.15 15.15 12.1 15.2 12.1 15.3 12.05 15.35 12.0 15.45 12.0 15.55 11.95 15.65 11.9 15.7 11.85 15.8 11.8 15.95 11.7 16.05 11.65 16.15 11.55 16.25 11.45 16.35 11.35 16.45 11.25 16.55 11.1 16.6 11.0 16.7 10.9 16.75 10.75 16.8 10.6 16.85 10.45 16.95 10.3 16.95 10.15 17.0 10.0 17.05 9.95 17.05 9.9 17.05 9.9 17.05 9.85 17.1 9.8 17.1 9.75 17.1 9.7 17.1 9.7 17.1 9.65 17.1 9.6 17.1 9.55 17.1 9.55 17.1 9.5 17.1 9.45 17.1 9.4 17.1 9.4 17.1 9.3 17.1 9.15 17.1 9.05 17.1 8.95 17.05 8.85 17.05 8.75 17.05 8.65 17.0 8.55 16.95 8.45 16.95 8.35 16.9 8.3 16.85 8.2 16.8 8.1 16.75 8.05 16.65 7.95 16.6 7.9 16.5 7.85 16.45 7.85 16.45 7.8 16.4 7.8 16.35 7.75 16.3 7.75 16.3 7.7 16.25 7.7 16.25 7.65 16.2 7.65 16.2 7.65 16.15 7.65 16.15 7.65 16.1 7.65 16.1 7.65 16.1 7.65 16.1 7.65 16.05 7.7 16.0 7.7 15.95 7.75 15.9 7.85 15.85 7.95 15.75 8.0 15.7 8.0 15.7 8.05 15.65 8.05 15.6 8.1 15.55 8.1 15.55 8.15 15.5 8.15 15.45 8.15 15.4 8.2 15.35 8.2 15.3 8.2 15.2 8.2 15.15 8.2 15.1 8.2 15.05 8.2 14.95 8.2 14.9 8.2 14.85 8.2 14.75 8.2 14.7 8.15 14.65 8.15 14.6 8.15 14.55 8.1 14.45 8.1 14.4 8.05 14.35 8.0 14.3 8.0 14.25 7.95 14.2 7.9 14.15 7.85 14.1 7.8 14.05 7.75 14.0 7.7 13.95 7.65 13.9 7.6 13.9 7.55 13.85 7.5 13.8 7.45 13.8 7.4 13.75 7.35 13.75 7.25 13.7 7.2 13.7 7.15 13.7 7.1 13.65 7.05 13.65 7.0 13.65 6.95 13.65 6.9 13.65 6.85 13.65 6.8 13.65 6.75 13.65 6.7 13.7 6.65 13.7 6.6 13.7 6.55 13.7 6.55 13.7 6.5 13.75 6.45 13.75 6.4 13.75 6.35 13.8 6.3 13.8 6.25 13.85 6.2 13.85 6.1 13.9 6.0 14.0 5.9 14.05 5.8 14.15 5.75 14.2 5.65 14.3 5.6 14.4 5.55 14.5 5.5 14.6 5.45 14.7 5.4 14.85 5.35 14.95 5.35 15.05 5.35 15.2 5.3 15.35 5.3 15.5 5.3 15.65 5.3 15.8 5.35 15.95 5.4 16.1 5.4 16.2 5.45 16.35 5.55 16.5 5.6 16.6 5.65 16.75 5.75 16.85 5.85 16.95 5.95 17.1 6.05 17.2 6.2 17.3 6.3 17.4 6.45 17.5 6.6 17.6 6.75 17.7 6.9 17.8 7.05 17.9 7.2 17.95 7.4 18.05 7.55 18.1 7.75 18.15 7.95 18.2 8.15 18.25 8.35 18.3 8.55 18.3 8.75 18.35 8.95 18.35 9.15 18.35 9.4 18.35 L9.45 18.35 Q9.65 18.35 9.9 18.35 10.1 18.35 10.3 18.3 10.5 18.25 10.7 18.25 10.9 18.2 11.05 18.15 11.25 18.05 11.45 18.0 11.6 17.95 11.8 17.85 11.95 17.75 12.1 17.65 12.3 17.55 12.45 17.45 12.6 17.35 12.75 17.2 12.9 17.05 13.0 16.9 13.15 16.8 13.25 16.65 13.4 16.5 13.5 16.3 13.6 16.15 13.7 15.95 13.8 15.8 13.85 15.6 13.95 15.4 14.0 15.2 14.05 15.0 14.1 14.8 14.1 14.75 14.15 14.65 14.15 14.6 14.15 14.5 14.2 14.45 14.2 14.4 14.2 14.3 14.25 14.25 14.25 14.2 14.25 14.1 14.25 14.05 14.25 14.0 14.25 13.9 14.25 13.85 14.25 13.8 14.25 13.7 14.25 13.4 14.2 13.1 14.15 12.8 14.05 12.5 13.95 12.2 13.8 11.9 13.65 11.6 13.4 11.35 13.2 11.05 12.95 10.8 12.7 10.55 12.35 10.3 12.05 10.05 11.65 9.8 11.3 9.55 10.9 9.3 8.85 8.15 8.45 7.75 8.4 7.7 8.35 7.65 8.3 7.6 8.25 7.55 8.2 7.5 8.15 7.45 8.15 7.4 8.1 7.35 8.1 7.3 8.05 7.25 8.05 7.2 8.05 7.15 8.0 7.1 8.0 7.05 8.0 7.0 8.0 6.95 8.0 6.9 8.0 6.85 8.0 6.8 8.0 6.75 8.0 6.7 8.0 6.65 8.05 6.6 8.05 6.55 8.05 6.5 8.05 6.45 8.05 6.45 8.05 6.4 8.1 6.35 8.1 6.3 8.1 6.3 8.1 6.25 8.15 6.15 8.2 6.05 8.3 5.95 8.35 5.9 8.4 5.85 8.5 5.75 8.6 5.7 8.7 5.65 8.75 5.6 8.85 5.55 8.95 5.55 9.1 5.5 9.2 5.5 9.3 5.45 9.45 5.45 9.55 5.45 9.65 5.45 9.75 5.45 9.8 5.45 9.9 5.5 10.0 5.5 10.1 5.5 10.2 5.55 10.3 5.55 10.35 5.6 10.45 5.65 10.55 5.7 10.65 5.75 10.7 5.75 10.8 5.8 10.9 5.85 11.0 5.95 11.1 6.0 11.15 6.05 11.25 6.15 11.3 6.2 11.4 6.25 11.45 6.35 11.55 6.4 11.6 6.45 11.7 6.55 11.75 6.6 11.8 6.7 11.85 6.8 11.9 6.85 12.0 6.95 12.05 7.0 12.1 7.1 12.15 7.2 12.2 7.25 12.25 7.35 12.3 7.4 12.35 7.5 12.35 7.55 12.4 7.6 12.45 7.65 12.5 7.7 12.55 7.75 12.6 7.8 12.65 7.85 12.7 7.9 12.7 7.9 12.75 7.95 12.8 7.95 12.85 8.0 12.9 8.0 12.95 8.0 12.95 8.0 13.0 8.0 13.05 8.0 13.05 8.0 13.1 8.0 13.15 8.0 13.15 7.95 13.2 7.95 13.2 7.9 13.25 7.85 13.25 7.8 13.3 7.8 13.3 7.75 L13.3 7.4 Q13.3 7.15 12.8 5.35 12.75 5.1 12.65 4.9 12.6 4.7 12.55 4.55 12.45 4.4 12.4 4.25 12.35 4.1 12.3 4.0 12.2 3.85 12.15 3.8 12.1 3.7 12.0 3.65 11.95 3.6 11.9 3.55 11.85 3.55 11.75 3.55 11.7 3.55 11.7 3.55 11.65 3.55 11.65 3.55 11.6 3.55 11.55 3.6 11.55 3.6 11.5 3.65 11.5 3.65 11.45 3.7 11.45 3.7 11.4 3.75 11.4 3.75 11.4 3.8 11.35 3.85 11.35 3.85 11.35 3.9 11.35 3.9 11.3 3.95 11.3 4.0 11.3 4.0 11.3 4.05 11.3 4.1 11.3 4.15 11.3 4.2 11.3 4.25 11.3 4.35 11.3 4.45 11.25 4.5 11.25 4.55 11.25 4.6 11.2 4.6 L11.2 4.6" fill="#ffffff" fill-rule="evenodd" stroke="none"/>
    <path d="M13.8 9.85 Q13.8 9.9 13.8 9.9 13.8 9.95 13.85 10.0 13.85 10.0 13.85 10.05 13.9 10.1 13.95 10.1 13.95 10.15 14.0 10.2 14.05 10.2 14.1 10.25 14.15 10.3 14.25 10.3 14.3 10.35 14.35 10.4 L14.95 10.7 14.95 21.2 14.35 21.55 Q14.3 21.6 14.2 21.6 14.15 21.65 14.1 21.7 14.05 21.75 14.0 21.75 13.95 21.8 13.9 21.85 13.85 21.9 13.85 21.9 13.8 21.95 13.8 22.0 13.8 22.05 13.75 22.1 13.75 22.1 13.75 22.15 13.75 22.2 13.8 22.25 13.85 22.25 13.9 22.3 14.0 22.3 14.1 22.35 14.2 22.35 14.35 22.4 14.5 22.4 14.7 22.45 14.85 22.45 15.1 22.45 15.3 22.45 15.6 22.45 15.85 22.45 16.15 22.45 16.45 22.45 16.7 22.45 16.95 22.45 17.2 22.45 17.4 22.45 17.6 22.4 17.8 22.4 17.95 22.4 18.1 22.4 18.2 22.35 18.35 22.35 18.4 22.3 18.5 22.3 18.55 22.25 18.6 22.2 18.6 22.2 18.6 22.15 18.65 22.15 18.65 22.1 18.65 22.1 18.65 22.05 18.65 22.05 18.6 22.0 18.6 22.0 18.55 21.95 18.55 21.9 18.5 21.9 18.45 21.85 18.4 21.8 18.35 21.8 18.3 21.75 18.25 21.7 18.2 21.65 18.1 21.65 18.05 21.6 17.95 21.55 17.85 21.5 17.8 21.45 17.7 21.45 17.65 21.4 17.6 21.35 17.55 21.3 17.45 21.25 17.4 21.25 17.35 21.2 17.3 21.15 17.3 21.1 17.25 21.05 17.2 21.05 17.2 21.0 17.15 20.95 17.15 20.9 17.1 20.85 17.1 20.75 17.05 20.65 17.05 20.5 17.05 20.35 17.0 20.15 17.0 20.0 17.0 19.75 17.0 19.55 17.0 19.3 L17.0 17.8 17.6 18.15 Q17.65 18.2 17.75 18.25 17.85 18.25 17.95 18.3 18.05 18.3 18.15 18.35 18.3 18.4 18.4 18.4 18.55 18.4 18.7 18.45 18.85 18.45 19.0 18.45 19.2 18.45 19.35 18.5 19.55 18.5 19.75 18.5 19.85 18.5 20.05 18.45 20.2 18.4 20.4 18.35 20.6 18.25 20.85 18.15 20.95 18.1 21.05 18.05 21.15 18.0 21.25 17.95 21.35 17.9 21.4 17.85 21.5 17.8 21.6 17.75 21.7 17.7 21.75 17.65 21.85 17.55 21.95 17.5 22.0 17.45 22.1 17.35 22.2 17.3 22.25 17.2 22.45 17.05 22.6 16.85 22.75 16.65 22.85 16.45 23.0 16.25 23.1 16.0 23.25 15.8 23.3 15.55 23.4 15.3 23.45 15.05 23.55 14.8 23.6 14.55 23.65 14.3 23.65 14.0 23.65 13.7 23.65 13.4 23.65 13.1 23.65 12.8 23.6 12.55 23.55 12.3 23.5 12.05 23.45 11.8 23.35 11.55 23.25 11.3 23.15 11.1 23.05 10.9 22.9 10.7 22.75 10.5 22.6 10.35 22.4 10.15 22.25 10.0 22.05 9.85 21.95 9.75 21.8 9.7 21.65 9.6 21.55 9.55 21.4 9.5 21.3 9.4 21.15 9.35 21.0 9.35 20.85 9.3 20.75 9.25 20.6 9.2 20.45 9.2 20.3 9.15 20.15 9.15 20.0 9.15 19.85 9.15 L19.8 9.15 Q19.65 9.15 19.5 9.15 19.35 9.15 19.2 9.2 19.05 9.2 18.9 9.2 18.8 9.25 18.65 9.25 18.55 9.3 18.45 9.3 18.35 9.35 18.25 9.4 18.15 9.4 18.1 9.45 18.0 9.5 17.95 9.55 L17.25 10.0 17.2 9.5 Q17.2 9.45 17.2 9.4 17.15 9.4 17.15 9.35 17.15 9.3 17.15 9.25 17.1 9.25 17.1 9.2 17.1 9.15 17.05 9.15 17.05 9.1 17.0 9.1 17.0 9.05 16.95 9.05 16.95 9.0 16.9 9.0 16.6 8.9 16.5 8.9 16.45 8.9 16.35 8.9 16.3 8.95 16.25 9.0 16.25 9.0 16.15 9.05 16.1 9.1 16.0 9.1 15.9 9.15 15.75 9.15 15.6 9.2 15.4 9.25 15.2 9.25 14.95 9.3 14.8 9.35 14.7 9.35 14.55 9.4 14.45 9.4 14.35 9.45 14.25 9.45 14.15 9.5 14.05 9.55 14.0 9.55 13.95 9.6 13.9 9.65 13.85 9.7 13.8 9.7 13.8 9.75 13.8 9.8 13.8 9.85 L13.8 9.85 M20.35 10.95 Q20.5 11.05 20.65 11.15 20.8 11.3 20.95 11.45 21.05 11.55 21.2 11.75 21.3 11.9 21.4 12.1 21.45 12.3 21.55 12.5 21.6 12.7 21.65 12.95 21.7 13.2 21.75 13.45 21.75 13.75 21.8 14.0 21.75 14.25 21.75 14.5 21.7 14.75 21.65 14.95 21.6 15.15 21.5 15.35 21.45 15.55 21.35 15.75 21.3 15.9 21.2 16.1 21.1 16.25 21.0 16.35 20.9 16.5 20.8 16.6 20.65 16.75 20.55 16.85 20.45 16.9 20.4 16.95 20.3 17.0 20.25 17.05 20.15 17.05 20.1 17.1 20.0 17.15 19.9 17.15 19.85 17.2 19.75 17.2 19.7 17.2 19.6 17.25 19.55 17.25 19.45 17.25 19.4 17.25 19.3 17.25 19.2 17.25 19.15 17.25 19.1 17.25 19.0 17.25 18.95 17.25 18.85 17.25 18.8 17.2 18.7 17.2 18.65 17.2 18.55 17.15 18.5 17.15 18.45 17.15 18.35 17.1 18.3 17.1 18.2 17.05 18.15 17.0 18.0 16.95 17.9 16.85 17.75 16.75 17.65 16.6 17.55 16.45 17.45 16.25 17.35 16.1 17.3 15.85 17.2 15.65 17.15 15.4 17.1 15.1 17.05 14.8 17.05 14.5 17.0 14.15 17.0 13.85 17.0 13.45 17.0 11.95 17.1 11.7 17.1 11.65 17.15 11.6 17.15 11.55 17.2 11.55 17.2 11.5 17.25 11.45 17.3 11.4 17.35 11.35 17.4 11.3 17.45 11.3 17.5 11.25 17.55 11.2 17.65 11.15 17.7 11.1 17.8 11.05 17.85 11.0 17.95 10.95 18.0 10.9 18.1 10.85 18.2 10.85 18.25 10.8 18.35 10.8 18.45 10.75 18.5 10.75 18.6 10.7 18.65 10.7 18.75 10.65 18.85 10.65 18.9 10.65 19.0 10.65 19.1 10.65 19.15 10.65 19.25 10.65 19.3 10.65 19.4 10.65 19.45 10.65 19.55 10.65 19.6 10.7 19.7 10.7 19.75 10.7 19.85 10.75 19.9 10.75 20.0 10.8 20.05 10.8 20.15 10.85 20.2 10.85 20.25 10.9 20.35 10.95 L20.35 10.95" fill="#ffffff" fill-rule="evenodd" stroke="none"/>
    <path d="M29.5 11.25 Q29.5 11.3 29.5 11.4 29.5 11.45 29.5 11.5 29.45 11.6 29.45 11.65 29.45 11.7 29.4 11.75 29.4 11.85 29.35 11.9 29.3 11.95 29.25 12.0 29.2 12.05 29.15 12.15 29.1 12.2 29.05 12.25 29.0 12.3 28.9 12.35 28.85 12.4 28.75 12.45 28.65 12.5 28.55 12.55 28.4 12.65 28.3 12.7 28.15 12.75 28.0 12.8 27.85 12.9 27.65 12.95 27.5 13.0 27.3 13.05 27.1 13.15 26.9 13.2 26.7 13.25 26.5 13.35 26.3 13.4 26.1 13.5 25.95 13.55 25.75 13.65 25.6 13.7 25.45 13.8 25.3 13.85 25.2 13.95 25.05 14.05 24.95 14.1 24.8 14.2 24.7 14.3 24.6 14.35 24.55 14.45 24.45 14.55 24.35 14.6 24.3 14.7 24.25 14.8 24.15 14.9 24.1 14.95 24.05 15.05 24.0 15.15 23.95 15.2 23.95 15.3 23.9 15.4 23.85 15.45 23.85 15.55 23.85 15.65 23.85 15.7 23.85 15.8 23.85 15.9 23.85 15.95 23.85 16.05 23.85 16.1 23.85 16.2 23.9 16.3 23.9 16.35 23.9 16.45 23.95 16.55 23.95 16.6 24.0 16.7 24.05 16.8 24.05 16.85 24.1 16.95 24.15 17.05 24.2 17.1 24.25 17.25 24.35 17.4 24.45 17.55 24.6 17.65 24.7 17.8 24.85 17.9 25.0 17.95 25.15 18.05 25.3 18.15 25.5 18.2 25.65 18.25 25.9 18.3 26.1 18.35 26.3 18.35 26.55 18.35 26.8 18.35 26.95 18.35 27.05 18.35 27.2 18.35 27.3 18.35 27.4 18.3 27.55 18.3 27.65 18.25 27.75 18.25 27.85 18.2 27.95 18.15 28.05 18.15 28.15 18.1 28.25 18.05 28.35 18.0 28.45 17.95 28.5 17.9 L29.35 17.3 29.4 17.95 Q29.4 18.0 29.4 18.05 29.4 18.1 29.45 18.15 29.45 18.2 29.45 18.2 29.45 18.25 29.45 18.3 29.45 18.3 29.5 18.35 29.5 18.35 29.5 18.4 29.55 18.4 29.55 18.4 29.55 18.4 29.55 18.45 29.55 18.45 29.6 18.5 29.65 18.5 29.65 18.5 29.7 18.5 29.75 18.55 29.8 18.55 29.85 18.55 30.05 18.55 31.75 18.25 31.85 18.25 31.95 18.2 32.05 18.2 32.15 18.15 32.25 18.15 32.3 18.1 32.4 18.1 32.45 18.05 32.5 18.0 32.55 18.0 32.6 17.95 32.65 17.9 32.65 17.85 32.65 17.85 32.7 17.8 32.7 17.75 32.7 17.7 32.7 17.7 32.7 17.65 32.65 17.6 32.65 17.6 32.65 17.55 32.6 17.55 32.6 17.5 32.55 17.5 32.5 17.45 32.5 17.4 32.45 17.4 32.4 17.35 32.35 17.35 32.3 17.3 32.25 17.3 31.8 17.0 31.75 16.95 31.7 16.95 31.7 16.9 31.7 16.9 31.65 16.8 31.65 16.75 31.6 16.7 31.6 16.6 31.6 16.5 31.6 16.45 31.55 16.4 31.55 16.35 31.55 16.3 31.55 16.25 31.5 16.2 31.5 16.15 31.5 16.1 31.5 16.05 31.5 16.0 31.5 15.9 31.5 15.85 31.5 15.8 31.45 15.75 31.45 15.7 31.45 15.65 31.4 14.2 31.35 13.0 31.35 12.75 31.35 12.5 31.3 12.25 31.3 12.05 31.25 11.85 31.25 11.65 31.25 11.45 31.2 11.3 31.2 11.15 31.15 11.0 31.1 10.85 31.1 10.75 31.05 10.6 31.0 10.55 31.0 10.45 30.95 10.35 30.85 10.2 30.75 10.05 30.6 9.95 30.5 9.85 30.35 9.7 30.2 9.6 30.05 9.55 29.85 9.45 29.7 9.4 29.5 9.3 29.3 9.25 29.1 9.2 28.9 9.2 28.65 9.15 28.4 9.15 28.15 9.15 28.05 9.15 27.95 9.15 27.9 9.15 27.8 9.15 27.7 9.2 27.6 9.2 27.45 9.2 27.35 9.25 27.25 9.25 27.15 9.3 27.0 9.3 26.9 9.35 26.75 9.35 26.6 9.4 26.5 9.45 26.35 9.5 26.2 9.55 26.1 9.6 25.95 9.65 25.85 9.7 25.75 9.75 25.6 9.8 25.5 9.85 25.4 9.9 25.3 10.0 25.25 10.05 25.15 10.1 25.05 10.2 24.95 10.3 24.9 10.35 24.85 10.45 24.75 10.55 24.7 10.6 24.7 10.65 24.65 10.7 24.65 10.7 24.6 10.75 24.6 10.8 24.55 10.85 24.55 10.9 24.55 10.95 24.5 11.0 24.5 11.0 24.5 11.05 24.5 11.1 24.5 11.15 24.5 11.2 24.5 11.2 24.5 11.25 24.5 11.3 24.5 11.35 24.5 11.35 24.5 11.4 24.55 11.45 24.55 11.5 24.55 11.55 24.6 11.55 24.65 11.6 24.65 11.65 24.7 11.65 24.75 11.7 24.75 11.7 24.8 11.75 24.85 11.8 24.9 11.85 24.95 11.85 25.0 11.9 25.05 11.9 25.1 11.9 25.15 11.95 25.2 11.95 25.25 11.95 25.3 12.0 25.35 12.0 25.4 12.0 25.45 12.0 25.5 12.0 25.55 12.0 25.6 12.05 25.65 12.05 L25.9 12.05 Q25.95 12.05 25.95 12.05 26.0 12.05 26.05 12.05 26.05 12.0 26.1 12.0 26.15 12.0 26.2 12.0 26.2 12.0 26.25 11.95 26.3 11.95 26.35 11.95 26.4 11.95 26.45 11.9 26.5 11.9 26.55 11.9 26.6 11.85 26.65 11.85 26.7 11.8 26.7 11.8 26.75 11.8 26.8 11.75 26.8 11.75 26.85 11.7 26.85 11.7 26.9 11.65 26.9 11.65 26.9 11.6 26.95 11.6 26.95 11.55 26.95 11.55 26.95 11.5 26.95 11.45 26.95 11.4 26.95 11.35 26.95 11.3 26.9 11.25 26.9 11.2 26.9 11.2 26.85 11.15 26.85 11.1 26.85 11.05 26.8 11.0 26.8 10.95 26.75 10.95 26.75 10.9 26.75 10.85 26.7 10.8 26.7 10.8 26.7 10.75 26.7 10.7 26.7 10.65 26.75 10.6 26.8 10.55 26.8 10.5 26.85 10.45 26.9 10.4 27.0 10.35 27.05 10.35 27.15 10.3 27.25 10.25 27.35 10.2 27.45 10.2 27.6 10.15 27.7 10.1 27.85 10.1 27.9 10.1 27.95 10.1 27.95 10.05 28.0 10.05 28.05 10.05 28.05 10.05 28.1 10.05 28.15 10.05 28.2 10.05 28.2 10.0 28.25 10.0 28.3 10.0 28.3 10.0 28.35 10.0 28.4 10.0 28.4 10.0 28.55 10.0 28.65 10.0 28.8 10.05 28.9 10.1 29.0 10.1 29.1 10.2 29.15 10.25 29.25 10.3 29.3 10.4 29.35 10.5 29.4 10.6 29.45 10.7 29.5 10.85 29.5 10.95 29.5 11.1 29.5 11.25 L29.5 11.25 M28.95 16.15 Q28.85 16.25 28.75 16.35 28.65 16.45 28.55 16.55 28.45 16.65 28.35 16.7 28.25 16.8 28.15 16.85 28.05 16.9 27.95 16.95 27.85 17.0 27.7 17.05 27.6 17.05 27.5 17.1 27.4 17.1 27.3 17.1 27.2 17.1 27.1 17.1 27.0 17.1 26.9 17.05 26.85 17.05 26.75 17.0 26.65 16.95 26.6 16.95 26.55 16.9 26.45 16.85 26.4 16.75 26.35 16.7 26.25 16.65 26.2 16.55 26.15 16.5 26.1 16.4 26.05 16.3 26.05 16.25 26.0 16.15 26.0 16.05 25.95 16.0 25.95 15.9 25.95 15.8 26.0 15.7 26.0 15.65 26.05 15.55 26.05 15.45 26.1 15.35 26.15 15.25 26.2 15.2 26.25 15.1 26.35 15.0 26.4 14.95 26.45 14.9 26.5 14.85 26.55 14.8 26.6 14.75 26.65 14.7 26.75 14.65 26.8 14.6 26.9 14.55 27.0 14.5 27.1 14.45 27.2 14.4 27.3 14.35 27.4 14.3 27.5 14.25 27.6 14.2 28.7 13.7 29.4 13.3 29.4 13.35 29.4 13.4 29.4 13.45 29.45 13.5 29.45 13.55 29.45 13.6 29.45 13.65 29.45 13.7 29.45 13.8 29.45 13.85 29.45 13.9 29.45 13.95 29.45 14.0 29.45 14.1 29.45 14.15 29.45 14.2 29.45 14.4 29.45 14.55 29.45 14.7 29.45 14.85 29.4 15.0 29.4 15.15 29.35 15.3 29.35 15.4 29.3 15.5 29.25 15.65 29.25 15.75 29.2 15.85 29.15 15.95 29.1 16.0 29.05 16.1 28.95 16.15 L28.95 16.15" fill="#ffffff" fill-rule="evenodd" stroke="none"/>
    <path d="M33.7 10.55 Q33.5 10.75 33.35 10.9 33.2 11.1 33.1 11.3 32.95 11.5 32.85 11.7 32.75 11.9 32.65 12.1 32.55 12.35 32.5 12.55 32.4 12.8 32.4 13.0 32.35 13.25 32.3 13.5 32.3 13.7 32.3 13.95 32.3 14.15 32.3 14.3 32.3 14.5 32.35 14.7 32.4 14.85 32.4 15.05 32.45 15.25 32.5 15.4 32.6 15.6 32.65 15.75 32.7 15.95 32.8 16.1 32.9 16.25 33.0 16.45 33.1 16.6 33.2 16.75 33.3 16.9 33.45 17.05 33.55 17.2 33.7 17.35 33.85 17.5 34.0 17.6 34.15 17.7 34.3 17.8 34.45 17.9 34.65 18.0 34.85 18.1 35.0 18.15 35.2 18.25 35.4 18.3 35.6 18.35 35.8 18.4 35.8 18.4 36.1 18.4 36.3 18.45 36.4 18.45 36.5 18.45 36.65 18.45 36.8 18.45 36.9 18.4 37.05 18.4 37.2 18.35 37.3 18.35 37.45 18.3 37.6 18.25 37.75 18.2 37.9 18.15 38.0 18.1 38.15 18.05 38.3 18.0 38.45 17.9 38.6 17.85 38.75 17.8 38.9 17.7 39.05 17.65 39.2 17.55 39.3 17.5 39.4 17.4 39.5 17.35 39.6 17.25 39.65 17.2 39.7 17.1 39.8 17.05 39.8 16.95 39.85 16.9 39.85 16.85 39.9 16.75 39.9 16.7 39.9 16.65 39.9 16.6 39.9 16.55 39.9 16.5 39.85 16.45 39.85 16.4 39.85 16.35 39.8 16.35 39.8 16.3 39.8 16.3 39.75 16.3 39.7 16.25 39.7 16.25 39.65 16.25 39.6 16.25 39.6 16.25 39.55 16.25 39.55 16.25 39.5 16.25 39.45 16.25 39.4 16.3 39.35 16.3 39.3 16.3 39.25 16.35 39.2 16.35 39.1 16.4 39.05 16.4 38.95 16.45 38.9 16.45 38.8 16.5 38.7 16.55 38.6 16.6 37.85 16.9 37.7 16.9 L37.35 16.9 Q37.3 16.9 37.3 16.9 37.25 16.9 37.25 16.9 37.2 16.9 37.15 16.9 37.1 16.9 37.1 16.9 37.05 16.9 37.0 16.9 36.95 16.9 36.9 16.85 36.85 16.85 36.8 16.85 36.75 16.8 36.7 16.8 36.55 16.75 36.45 16.7 36.3 16.65 36.15 16.6 36.05 16.5 35.95 16.45 35.8 16.35 35.7 16.25 35.6 16.15 35.5 16.05 35.4 15.95 35.3 15.85 35.2 15.75 35.1 15.6 35.0 15.5 34.95 15.35 34.85 15.2 34.8 15.1 34.7 14.95 34.65 14.8 34.6 14.65 34.55 14.5 34.5 14.4 34.45 14.25 34.4 14.1 34.35 13.95 34.35 13.8 34.3 13.6 34.3 13.45 34.3 13.3 34.3 13.15 34.3 13.0 34.3 12.85 34.3 12.7 34.3 12.55 34.35 12.4 34.35 12.25 34.4 12.15 34.4 12.0 34.45 11.85 34.5 11.75 34.55 11.65 34.6 11.5 34.65 11.4 34.75 11.3 34.8 11.2 34.9 11.1 34.95 11.0 35.05 10.9 35.1 10.85 35.2 10.8 35.3 10.7 35.4 10.65 35.5 10.6 35.6 10.55 35.7 10.5 35.8 10.45 35.9 10.45 36.0 10.4 36.1 10.4 36.2 10.35 36.3 10.35 36.4 10.35 36.5 10.3 L36.6 10.3 36.65 10.3 Q36.75 10.3 36.85 10.3 36.95 10.35 37.05 10.35 37.1 10.4 37.2 10.4 37.3 10.45 37.35 10.5 37.45 10.5 37.55 10.6 37.6 10.65 37.7 10.7 37.75 10.75 37.8 10.8 37.9 10.9 37.95 10.95 38.0 11.05 38.1 11.1 38.15 11.2 38.2 11.25 38.3 11.35 38.35 11.4 38.4 11.45 38.5 11.5 38.55 11.5 38.6 11.55 38.7 11.6 38.75 11.6 38.85 11.65 38.9 11.65 38.95 11.65 39.05 11.65 L39.05 11.65 Q39.1 11.65 39.2 11.65 39.25 11.65 39.3 11.6 39.4 11.6 39.45 11.55 39.5 11.5 39.55 11.5 39.6 11.45 39.65 11.4 39.7 11.35 39.7 11.3 39.75 11.2 39.8 11.15 39.8 11.1 39.85 11.0 39.9 10.8 39.9 10.75 39.9 10.7 39.9 10.6 39.9 10.55 39.85 10.5 39.85 10.4 39.8 10.35 39.75 10.3 39.75 10.25 39.7 10.15 39.65 10.1 39.6 10.05 39.55 10.0 39.45 9.95 39.4 9.85 39.35 9.8 39.25 9.75 39.15 9.7 39.1 9.65 39.0 9.6 38.9 9.55 38.8 9.5 38.7 9.45 38.6 9.4 38.5 9.4 38.4 9.35 38.25 9.3 38.15 9.3 38.0 9.25 37.9 9.25 37.75 9.25 37.65 9.2 37.5 9.2 37.3 9.2 36.55 9.2 36.5 9.2 36.4 9.2 36.35 9.2 36.25 9.2 36.2 9.2 36.1 9.25 36.05 9.25 35.95 9.25 35.9 9.25 35.8 9.3 35.75 9.3 35.65 9.3 35.55 9.35 35.5 9.35 35.4 9.35 35.3 9.4 35.2 9.4 35.15 9.45 35.05 9.5 34.95 9.55 34.85 9.6 34.8 9.65 34.7 9.7 34.6 9.8 34.5 9.85 34.4 9.95 34.3 10.05 34.15 10.15 34.05 10.2 33.95 10.35 33.8 10.45 33.7 10.55 L33.7 10.55" fill="#ffffff" fill-rule="evenodd" stroke="none"/>
    <path d="M41.25 10.7 Q41.15 10.8 41.05 10.9 41.0 11.0 40.9 11.15 40.85 11.25 40.75 11.35 40.7 11.45 40.6 11.55 40.55 11.65 40.5 11.75 40.45 11.8 40.4 11.9 40.35 12.0 40.3 12.1 40.3 12.2 40.25 12.25 40.2 12.35 40.2 12.45 40.15 12.5 40.15 12.6 40.15 12.7 40.1 12.8 40.1 12.9 40.1 13.0 40.05 13.05 40.05 13.15 40.05 13.25 40.05 13.35 40.05 13.45 40.05 13.55 40.05 13.65 40.05 13.75 40.05 13.95 40.05 14.15 40.05 14.35 40.1 14.55 40.1 14.75 40.1 14.9 40.15 15.1 40.2 15.25 40.25 15.4 40.3 15.55 40.3 15.75 40.4 15.9 40.45 16.0 40.5 16.15 40.6 16.3 40.65 16.4 40.8 16.65 40.95 16.9 41.15 17.1 41.35 17.3 41.5 17.5 41.75 17.65 41.95 17.8 42.15 17.95 42.4 18.05 42.65 18.15 42.85 18.25 43.15 18.3 43.4 18.35 43.65 18.4 43.95 18.45 44.25 18.45 44.45 18.45 44.6 18.45 44.8 18.4 44.95 18.4 45.15 18.35 45.3 18.3 45.5 18.25 45.65 18.2 45.8 18.1 46.0 18.05 46.15 17.95 46.3 17.85 46.45 17.75 46.65 17.65 46.8 17.55 46.95 17.4 47.05 17.3 47.1 17.25 47.2 17.2 47.25 17.1 47.3 17.05 47.4 17.0 47.45 16.9 47.5 16.85 47.5 16.8 47.55 16.75 47.6 16.7 47.6 16.65 47.6 16.6 47.65 16.55 47.65 16.5 47.65 16.45 47.65 16.4 47.65 16.35 47.65 16.3 47.6 16.3 47.6 16.25 47.6 16.25 47.55 16.2 47.55 16.15 47.5 16.15 47.45 16.15 47.45 16.1 47.4 16.1 47.35 16.1 47.3 16.1 47.3 16.1 47.25 16.1 47.2 16.1 47.15 16.1 47.1 16.1 47.05 16.1 47.0 16.15 46.95 16.15 46.9 16.15 46.85 16.2 46.8 16.2 46.75 16.25 46.65 16.3 46.6 16.3 46.55 16.35 46.45 16.4 46.4 16.45 46.3 16.5 46.25 16.55 46.15 16.6 46.05 16.65 45.95 16.7 45.9 16.7 45.8 16.75 45.7 16.8 45.6 16.8 45.45 16.85 45.35 16.85 45.25 16.9 45.1 16.9 45.0 16.9 44.9 16.9 44.75 16.9 44.6 16.9 44.45 16.9 44.35 16.9 44.25 16.9 44.1 16.85 44.0 16.85 43.9 16.8 43.8 16.8 43.65 16.75 43.55 16.7 43.45 16.65 43.4 16.6 43.3 16.5 43.2 16.45 43.1 16.35 43.05 16.25 42.95 16.2 42.9 16.15 42.85 16.05 42.8 16.0 42.75 15.9 42.7 15.85 42.65 15.8 42.6 15.7 42.6 15.65 42.55 15.55 42.5 15.45 42.45 15.4 42.45 15.3 42.4 15.25 42.4 15.15 42.35 15.05 42.35 15.0 44.3 14.1 44.9 13.8 46.8 12.6 47.2 12.4 47.25 12.4 47.3 12.35 47.35 12.35 47.35 12.3 47.4 12.3 47.4 12.25 47.45 12.25 47.45 12.2 47.5 12.2 47.5 12.15 47.55 12.15 47.55 12.1 47.55 12.05 47.55 12.05 47.55 12.0 47.55 12.0 47.55 11.95 47.55 11.95 47.55 11.9 47.55 11.85 47.55 11.85 47.55 11.8 47.5 11.8 47.5 11.75 47.5 11.75 47.5 11.7 47.45 11.7 47.45 11.65 47.4 11.65 47.4 11.65 47.4 11.6 47.35 11.6 47.25 11.5 47.1 10.9 47.05 10.85 47.05 10.75 47.0 10.7 46.95 10.6 46.9 10.55 46.85 10.45 46.75 10.35 46.7 10.3 46.6 10.2 46.5 10.1 46.4 10.0 46.3 9.9 46.2 9.8 46.1 9.7 45.95 9.6 45.8 9.5 45.75 9.45 45.65 9.4 45.6 9.4 45.5 9.35 45.45 9.3 45.35 9.3 45.25 9.25 45.2 9.25 45.1 9.2 45.0 9.2 44.9 9.2 44.75 9.15 44.65 9.15 44.55 9.15 44.45 9.15 44.3 9.15 44.1 9.15 43.9 9.15 43.65 9.2 43.45 9.25 43.25 9.3 43.05 9.35 42.9 9.45 42.7 9.55 42.5 9.6 42.3 9.75 42.1 9.85 41.95 10.0 41.75 10.15 41.6 10.3 41.4 10.5 41.25 10.7 L41.25 10.7 M45.2 11.95 Q45.15 12.0 45.15 12.1 45.1 12.15 45.05 12.2 44.95 12.3 44.9 12.35 44.85 12.4 44.75 12.5 44.65 12.55 44.55 12.65 44.45 12.7 44.35 12.75 44.25 12.85 44.1 12.95 44.0 13.0 43.85 13.1 42.55 13.75 42.1 13.9 42.1 13.85 42.1 13.8 42.05 13.8 42.05 13.75 42.05 13.7 42.05 13.6 42.05 13.55 42.05 13.5 42.05 13.45 42.05 13.35 42.05 13.3 42.0 13.2 42.0 13.15 42.0 13.05 42.0 13.0 42.0 12.9 42.0 12.7 42.05 12.5 42.05 12.3 42.1 12.1 42.15 11.9 42.2 11.75 42.25 11.6 42.3 11.45 42.4 11.3 42.5 11.15 42.6 11.05 42.7 10.9 42.8 10.8 42.95 10.7 43.1 10.6 43.25 10.55 43.3 10.55 43.35 10.5 43.4 10.5 43.4 10.5 43.45 10.45 43.5 10.45 43.55 10.45 43.55 10.45 43.6 10.4 43.65 10.4 43.65 10.4 43.7 10.4 43.75 10.4 43.75 10.4 43.8 10.4 43.8 10.35 44.05 10.35 44.05 10.3 44.1 10.3 44.15 10.3 44.2 10.3 44.25 10.35 44.3 10.35 44.35 10.35 44.4 10.4 44.45 10.4 44.5 10.45 44.55 10.45 44.6 10.5 44.65 10.55 44.7 10.6 44.75 10.65 44.8 10.7 44.85 10.75 44.9 10.8 44.95 10.85 45.0 10.9 45.05 10.95 45.1 11.0 45.1 11.05 45.15 11.1 45.2 11.15 45.2 11.2 45.2 11.25 45.25 11.3 45.25 11.35 45.25 11.35 45.3 11.4 45.3 11.45 45.3 11.5 45.3 11.6 45.3 11.65 45.3 11.75 45.25 11.8 45.25 11.85 45.25 11.9 45.25 11.95 45.2 11.95 L45.2 11.95" fill="#ffffff" fill-rule="evenodd" stroke="none"/>
  </g>
</svg>
