<?xml version="1.0" encoding="UTF-8" standalone="no"?>
<svg xmlns:ffdec="https://www.free-decompiler.com/flash" xmlns:xlink="http://www.w3.org/1999/xlink" ffdec:objectType="shape" height="26.0px" width="26.0px" xmlns="http://www.w3.org/2000/svg">
  <g transform="matrix(1.0, 0.0, 0.0, 1.0, 0.0, 0.0)">
    <path d="M12.7 5.6 Q12.65 5.6 12.65 5.6 12.6 5.6 12.6 5.6 12.55 5.6 12.55 5.65 12.5 5.65 12.5 5.65 12.45 5.7 12.45 5.7 12.4 5.75 12.4 5.8 12.4 5.8 12.35 5.85 12.35 5.9 12.35 5.9 12.35 5.95 12.3 6.0 12.3 6.05 12.25 6.05 12.25 6.1 12.25 6.15 12.2 6.15 12.2 6.2 12.15 6.2 12.15 6.25 12.1 6.25 12.1 6.25 12.05 6.3 12.05 6.3 12.0 6.3 12.0 6.35 11.95 6.35 11.9 6.35 11.9 6.4 11.85 6.4 11.8 6.4 11.75 6.4 11.7 6.4 11.65 6.4 11.6 6.45 11.5 6.45 11.45 6.45 11.4 6.45 11.3 6.45 11.25 6.45 11.15 6.45 11.1 6.45 10.25 6.55 8.5 6.55 6.55 6.6 6.05 6.7 6.0 6.7 5.95 6.75 5.9 6.75 5.85 6.75 5.8 6.75 5.75 6.8 5.7 6.8 5.65 6.85 5.65 6.85 5.6 6.9 5.6 6.9 5.55 6.95 5.55 7.0 5.55 7.0 5.5 7.05 5.5 7.1 5.5 7.15 5.5 7.2 5.55 7.2 5.55 7.25 5.6 7.3 5.6 7.35 5.65 7.35 5.7 7.4 5.75 7.45 5.8 7.5 5.85 7.5 5.95 7.55 6.0 7.6 6.1 7.65 6.15 7.7 6.25 7.7 L7.05 8.05 7.05 18.9 6.25 19.2 Q6.15 19.25 6.1 19.3 6.0 19.35 5.95 19.35 5.85 19.4 5.8 19.45 5.75 19.5 5.7 19.55 5.65 19.55 5.65 19.6 5.6 19.65 5.55 19.7 5.55 19.75 5.55 19.8 5.5 19.8 5.5 19.85 5.5 19.9 5.5 19.9 5.55 19.95 5.55 20.0 5.55 20.0 5.6 20.05 5.6 20.1 5.65 20.1 5.7 20.15 5.7 20.15 5.75 20.2 5.8 20.2 5.85 20.2 5.9 20.25 5.95 20.25 6.0 20.25 6.55 20.35 8.05 20.35 9.8 20.4 9.9 20.4 9.95 20.4 10.0 20.4 10.05 20.4 10.1 20.4 10.15 20.4 10.15 20.4 10.2 20.4 10.25 20.35 10.3 20.35 10.35 20.35 10.4 20.35 10.4 20.35 10.45 20.3 10.45 20.3 10.5 20.3 10.5 20.3 10.55 20.3 10.6 20.3 10.6 20.3 10.65 20.3 10.7 20.3 10.7 20.3 10.75 20.3 10.8 20.3 10.85 20.3 10.9 20.3 10.9 20.3 10.95 20.25 10.95 20.2 10.95 20.1 10.9 20.0 10.9 19.8 10.9 19.75 10.9 19.7 10.85 19.65 10.85 19.6 10.8 19.55 10.8 19.55 10.75 19.5 10.75 19.45 10.7 19.45 10.65 19.4 10.6 19.35 10.6 19.35 10.55 19.35 10.5 19.3 10.45 19.3 10.35 19.3 10.25 19.3 10.2 19.25 10.1 19.25 10.0 19.2 9.95 19.2 9.9 19.15 9.8 19.1 9.75 19.1 9.7 19.05 9.65 19.0 9.6 18.95 9.6 18.9 9.55 18.85 9.5 18.8 9.5 18.75 9.45 18.65 9.3 18.15 9.3 16.05 L9.3 13.4 10.55 13.55 Q10.65 13.55 10.75 13.55 10.8 13.55 10.9 13.6 10.95 13.6 11.05 13.6 11.1 13.6 11.2 13.65 11.25 13.65 11.35 13.65 11.4 13.7 11.45 13.7 11.5 13.7 11.55 13.75 11.6 13.75 11.65 13.75 11.7 13.8 11.75 13.8 11.8 13.85 11.85 13.9 11.9 13.95 11.95 13.95 12.0 14.0 12.05 14.05 12.1 14.1 12.15 14.15 12.25 14.25 12.3 14.3 12.35 14.35 12.4 14.45 12.45 14.5 12.55 14.6 12.6 14.65 12.65 14.75 12.7 14.8 12.8 14.85 12.85 14.9 12.9 14.95 12.95 15.0 13.0 15.05 13.05 15.05 13.1 15.1 13.1 15.1 13.15 15.15 13.2 15.15 13.25 15.15 13.3 15.2 13.3 15.2 13.35 15.2 13.4 15.2 13.4 15.15 13.45 15.15 13.45 15.15 13.5 15.1 13.5 15.1 13.55 15.05 13.55 15.0 13.55 14.95 13.6 14.9 13.6 14.85 13.6 14.8 13.6 14.75 13.6 14.65 13.6 14.6 13.6 14.5 13.6 14.45 13.6 14.35 13.55 14.25 13.55 14.1 13.55 14.0 13.5 13.85 13.45 13.75 13.45 13.6 13.4 13.45 13.35 13.3 13.3 13.1 13.25 12.95 13.2 12.75 13.15 12.6 13.05 12.4 13.0 12.2 12.9 12.0 12.85 11.85 12.8 11.7 12.7 11.55 12.65 11.4 12.55 11.3 12.5 11.2 12.45 11.1 12.35 11.0 12.3 10.95 12.2 10.9 12.15 10.85 12.1 10.8 12.0 10.8 11.95 10.8 L11.95 10.8 Q11.9 10.8 11.9 10.8 11.85 10.8 11.8 10.85 11.8 10.85 11.75 10.85 11.75 10.9 11.7 10.95 11.7 10.95 11.7 11.0 11.65 11.05 11.65 11.1 11.65 11.15 11.6 11.2 11.6 11.25 11.6 11.3 11.6 11.4 11.6 11.45 11.55 11.5 11.55 11.55 11.55 11.65 11.5 11.7 11.5 11.75 11.45 11.8 11.45 11.85 11.4 11.9 11.4 11.9 11.35 11.95 11.35 12.0 11.3 12.05 11.25 12.05 11.25 12.1 11.2 12.1 11.15 12.15 11.1 12.15 11.05 12.15 11.0 12.2 10.95 12.2 10.9 12.2 10.8 12.25 10.75 12.25 10.7 12.25 10.6 12.25 10.55 12.25 10.45 12.25 10.4 12.3 10.3 12.3 10.25 12.3 L9.3 12.3 9.3 7.7 10.35 7.7 Q10.6 7.7 10.85 7.75 11.1 7.75 11.3 7.8 11.5 7.85 11.7 7.9 11.9 7.95 12.1 8.05 12.25 8.1 12.4 8.25 12.55 8.35 12.7 8.45 12.8 8.55 12.9 8.7 13.0 8.85 13.1 9.0 13.15 9.05 13.2 9.15 13.2 9.2 13.25 9.25 13.3 9.3 13.35 9.35 13.35 9.4 13.4 9.45 13.45 9.5 13.5 9.55 13.55 9.6 13.6 9.6 13.65 9.65 13.7 9.7 13.75 9.7 13.8 9.75 13.85 9.75 13.9 9.8 13.95 9.8 13.95 9.8 14.0 9.8 14.05 9.8 14.1 9.8 14.1 9.8 14.15 9.8 14.2 9.8 14.2 9.75 14.25 9.75 14.3 9.7 14.3 9.7 14.35 9.65 14.35 9.6 14.35 9.6 14.35 9.6 14.35 9.55 14.35 9.55 14.4 9.55 14.4 9.5 14.4 9.5 14.4 9.45 14.4 9.45 14.4 9.4 14.4 9.4 14.4 9.35 14.4 9.3 14.4 9.3 14.4 9.25 14.4 9.2 14.4 9.05 14.25 8.55 14.1 8.05 13.8 7.3 13.7 7.1 13.65 6.9 13.6 6.75 13.5 6.6 13.45 6.45 13.4 6.3 13.3 6.15 13.25 6.05 13.2 5.95 13.15 5.9 13.1 5.8 13.05 5.75 13.0 5.7 12.95 5.65 12.9 5.6 12.85 5.6 12.75 5.6 12.7 5.6 L12.7 5.6 M18.35 7.85 Q18.3 7.85 18.25 7.85 18.2 7.85 18.15 7.85 18.1 7.9 18.05 7.9 18.0 7.9 17.95 7.95 17.9 7.95 17.9 8.0 17.85 8.0 17.8 8.05 17.75 8.1 17.7 8.1 17.7 8.15 17.65 8.2 17.6 8.25 17.55 8.3 17.5 8.35 17.45 8.35 17.4 8.4 17.35 8.45 17.3 8.45 17.25 8.5 17.15 8.5 17.1 8.55 17.0 8.55 16.95 8.55 16.85 8.55 16.75 8.6 16.65 8.6 16.55 8.6 16.45 8.6 16.35 8.6 16.3 8.6 16.2 8.6 16.1 8.6 16.05 8.6 15.95 8.65 15.9 8.65 15.85 8.65 15.75 8.65 15.7 8.7 15.65 8.7 15.6 8.7 15.55 8.75 15.5 8.75 15.5 8.8 15.45 8.8 15.4 8.85 15.35 8.85 15.35 8.9 15.3 8.9 15.25 8.95 15.25 8.95 15.25 9.0 15.2 9.0 15.2 9.05 15.2 9.05 15.2 9.1 15.15 9.1 15.15 9.15 15.15 9.15 15.2 9.2 15.2 9.2 15.2 9.25 15.2 9.25 15.2 9.3 15.25 9.35 15.25 9.35 15.3 9.4 15.3 9.45 15.35 9.5 15.4 9.55 15.45 9.6 15.45 9.6 15.5 9.65 15.55 9.65 15.55 9.7 15.6 9.7 15.65 9.7 15.7 9.75 15.7 9.75 15.75 9.75 15.8 9.75 15.85 9.75 15.9 9.8 15.95 9.8 16.0 9.8 16.05 9.8 16.1 9.8 16.15 9.8 16.2 9.8 16.25 9.8 16.3 9.8 16.35 9.85 16.4 9.85 16.4 9.85 16.45 9.9 16.5 9.9 16.55 9.95 16.55 10.0 16.6 10.0 16.65 10.05 16.65 10.1 16.7 10.1 16.7 10.15 16.75 10.2 16.75 10.25 16.75 10.3 16.8 10.35 16.8 10.4 16.8 10.5 16.8 10.55 16.85 10.6 16.85 10.7 16.85 10.8 16.85 10.85 16.9 10.95 16.9 11.05 16.9 11.15 16.9 11.2 16.9 11.3 16.9 11.4 16.9 11.5 16.9 11.6 16.9 11.7 16.95 11.8 16.95 11.95 16.95 12.05 16.95 12.15 16.95 12.3 16.95 12.4 16.95 12.55 16.95 12.65 16.95 12.8 16.95 12.9 16.95 13.05 16.95 13.35 16.95 14.2 16.9 14.95 16.9 15.45 16.9 15.95 16.9 16.6 16.9 17.25 16.9 17.4 16.9 17.6 16.85 17.9 16.85 18.15 16.85 18.2 16.8 18.3 16.75 18.65 16.75 18.75 16.75 18.8 16.7 18.85 16.7 18.9 16.7 18.95 16.65 18.95 16.65 18.95 16.6 19.0 16.55 19.0 16.55 19.0 16.5 19.05 16.15 19.1 16.1 19.1 16.05 19.15 16.0 19.15 16.0 19.15 15.95 19.15 15.9 19.2 15.9 19.2 15.85 19.25 15.8 19.25 15.8 19.25 15.75 19.3 15.75 19.3 15.7 19.35 15.7 19.35 15.65 19.4 15.65 19.45 15.6 19.5 15.6 19.5 15.55 19.55 15.5 19.55 15.5 19.6 15.45 19.65 15.45 19.65 15.45 19.7 15.4 19.7 15.4 19.75 15.4 19.75 15.4 19.8 15.4 19.8 15.4 19.85 15.4 19.9 15.45 19.95 15.45 20.0 15.5 20.05 15.6 20.1 15.65 20.1 15.75 20.15 15.9 20.2 16.0 20.2 16.15 20.25 16.3 20.25 16.5 20.25 16.65 20.3 16.85 20.3 17.05 20.3 17.3 20.3 19.0 20.3 19.85 20.2 19.95 20.2 20.0 20.15 20.05 20.15 20.1 20.1 20.2 20.1 20.25 20.05 20.3 20.05 20.3 20.0 20.35 20.0 20.4 19.95 20.4 19.95 20.45 19.9 20.45 19.85 20.45 19.85 20.5 19.8 20.5 19.75 20.5 19.7 20.5 19.65 20.45 19.65 20.45 19.6 20.4 19.55 20.4 19.5 20.35 19.5 20.3 19.45 20.3 19.4 20.2 19.4 20.15 19.35 20.1 19.3 20.05 19.3 20.0 19.25 19.9 19.2 19.85 19.2 L19.1 18.95 19.1 13.75 Q19.05 13.25 19.05 10.8 19.1 9.75 19.05 9.1 19.0 8.45 18.95 8.25 18.95 8.2 18.9 8.15 18.9 8.1 18.85 8.05 18.85 8.0 18.8 8.0 18.75 7.95 18.7 7.95 18.7 7.9 18.65 7.9 18.6 7.9 18.55 7.85 18.5 7.85 18.45 7.85 18.4 7.85 18.35 7.85 L18.35 7.85" fill="#ffffff" fill-rule="evenodd" stroke="none"/>
  </g>
</svg>
