<?xml version="1.0" encoding="UTF-8" standalone="no"?>
<svg xmlns:ffdec="https://www.free-decompiler.com/flash" xmlns:xlink="http://www.w3.org/1999/xlink" ffdec:objectType="shape" height="26.0px" width="26.0px" xmlns="http://www.w3.org/2000/svg">
  <g transform="matrix(1.0, 0.0, 0.0, 1.0, 0.0, 0.0)">
    <path d="M12.0 5.6 Q11.95 5.6 11.95 5.6 11.9 5.6 11.9 5.6 11.85 5.6 11.8 5.65 11.8 5.65 11.75 5.65 11.75 5.7 11.75 5.7 11.7 5.75 11.7 5.8 11.7 5.8 11.65 5.85 11.65 5.9 11.65 5.9 11.65 5.95 11.6 6.0 11.6 6.05 11.55 6.05 11.55 6.1 11.55 6.15 11.5 6.15 11.5 6.2 11.45 6.2 11.45 6.25 11.4 6.25 11.4 6.25 11.35 6.3 11.35 6.3 11.3 6.3 11.3 6.35 11.25 6.35 11.2 6.35 11.2 6.4 11.15 6.4 11.1 6.4 11.05 6.4 11.0 6.4 10.95 6.4 10.9 6.45 10.8 6.45 10.75 6.45 10.7 6.45 10.6 6.45 10.55 6.45 10.45 6.45 10.4 6.45 9.55 6.55 7.8 6.55 5.85 6.6 5.35 6.7 5.3 6.7 5.25 6.75 5.15 6.75 5.15 6.75 5.1 6.75 5.05 6.8 5.0 6.8 4.95 6.85 4.95 6.85 4.9 6.9 4.9 6.9 4.85 6.95 4.85 7.0 4.85 7.0 4.8 7.05 4.8 7.1 4.8 7.15 4.8 7.2 4.85 7.2 4.85 7.25 4.9 7.3 4.9 7.35 4.95 7.35 5.0 7.4 5.05 7.45 5.1 7.5 5.15 7.5 5.25 7.55 5.3 7.6 5.4 7.65 5.45 7.7 5.55 7.7 L6.35 8.05 6.35 18.9 5.55 19.2 Q5.45 19.25 5.4 19.3 5.3 19.35 5.25 19.35 5.15 19.4 5.1 19.45 5.05 19.5 5.0 19.55 4.95 19.55 4.95 19.6 4.9 19.65 4.85 19.7 4.85 19.75 4.85 19.8 4.8 19.8 4.8 19.85 4.8 19.9 4.8 19.9 4.85 19.95 4.85 20.0 4.85 20.05 4.9 20.05 4.9 20.1 4.95 20.1 5.0 20.15 5.0 20.15 5.05 20.2 5.1 20.2 5.15 20.2 5.2 20.25 5.25 20.25 5.3 20.25 5.9 20.35 7.35 20.35 9.0 20.4 9.2 20.4 9.25 20.4 9.3 20.4 9.35 20.4 9.4 20.4 9.45 20.4 9.45 20.4 9.5 20.4 9.55 20.35 9.6 20.35 9.65 20.35 9.7 20.35 9.7 20.35 9.75 20.3 9.75 20.3 9.8 20.3 9.8 20.3 9.85 20.3 9.9 20.3 9.9 20.3 9.95 20.3 10.0 20.3 10.0 20.3 10.05 20.3 10.1 20.3 10.15 20.3 10.15 20.3 10.2 20.3 10.2 20.25 10.2 20.25 10.25 20.2 10.25 20.15 10.2 20.05 10.2 19.95 10.2 19.8 10.2 19.75 10.2 19.7 10.15 19.65 10.15 19.6 10.1 19.55 10.1 19.55 10.05 19.5 10.05 19.45 10.0 19.45 9.95 19.4 9.9 19.35 9.9 19.35 9.85 19.35 9.8 19.3 9.75 19.3 9.65 19.3 9.55 19.3 9.5 19.25 9.4 19.25 9.3 19.2 9.25 19.2 9.2 19.15 9.1 19.1 9.05 19.1 9.0 19.05 8.95 19.0 8.9 18.95 8.9 18.9 8.85 18.85 8.8 18.8 8.8 18.75 8.75 18.65 8.6 18.15 8.6 16.05 L8.6 13.4 9.85 13.55 Q9.95 13.55 10.05 13.55 10.1 13.55 10.2 13.6 10.25 13.6 10.35 13.6 10.4 13.6 10.5 13.65 10.55 13.65 10.65 13.65 10.7 13.7 10.75 13.7 10.8 13.7 10.85 13.75 10.9 13.75 10.95 13.75 11.0 13.8 11.05 13.8 11.1 13.85 11.15 13.9 11.2 13.95 11.25 13.95 11.3 14.0 11.35 14.05 11.4 14.1 11.45 14.15 11.55 14.25 11.6 14.3 11.65 14.35 11.7 14.45 11.75 14.5 11.85 14.6 11.9 14.65 11.95 14.75 12.0 14.8 12.1 14.85 12.15 14.9 12.2 14.95 12.25 15.0 12.3 15.05 12.35 15.05 12.4 15.1 12.4 15.1 12.45 15.15 12.5 15.15 12.55 15.15 12.6 15.2 12.6 15.2 12.65 15.2 12.65 15.2 12.7 15.15 12.75 15.15 12.75 15.15 12.8 15.1 12.8 15.1 12.85 15.05 12.85 15.0 12.85 14.95 12.9 14.9 12.9 14.85 12.9 14.8 12.9 14.75 12.9 14.65 12.9 14.6 12.9 14.5 12.9 14.45 12.9 14.35 12.85 14.25 12.85 14.1 12.85 14.0 12.8 13.85 12.75 13.75 12.75 13.6 12.7 13.45 12.65 13.3 12.6 13.1 12.55 12.95 12.5 12.75 12.45 12.6 12.35 12.4 12.3 12.2 12.2 12.0 12.15 11.85 12.1 11.7 12.0 11.55 11.95 11.4 11.85 11.3 11.8 11.2 11.75 11.1 11.65 11.0 11.6 10.95 11.5 10.9 11.45 10.85 11.4 10.8 11.3 10.8 11.25 10.8 11.2 10.8 11.2 10.8 11.15 10.8 11.1 10.85 11.1 10.85 11.05 10.85 11.05 10.9 11.0 10.95 11.0 10.95 11.0 11.0 10.95 11.05 10.95 11.1 10.95 11.15 10.9 11.2 10.9 11.25 10.9 11.3 10.9 11.4 10.9 11.45 10.85 11.5 10.85 11.55 10.85 11.65 10.8 11.7 10.8 11.75 10.75 11.8 10.75 11.85 10.7 11.9 10.7 11.9 10.65 11.95 10.65 12.0 10.6 12.05 10.55 12.05 10.55 12.1 10.5 12.1 10.45 12.15 10.4 12.15 10.35 12.15 10.3 12.2 10.25 12.2 10.2 12.2 10.1 12.25 10.05 12.25 10.0 12.25 9.9 12.25 9.85 12.25 9.75 12.25 9.7 12.3 9.6 12.3 9.55 12.3 L8.6 12.3 8.6 7.7 9.65 7.7 Q9.9 7.7 10.15 7.75 10.4 7.75 10.6 7.8 10.8 7.85 11.0 7.9 11.2 7.95 11.4 8.05 11.55 8.1 11.7 8.25 11.85 8.35 12.0 8.45 12.1 8.55 12.2 8.7 12.3 8.85 12.4 9.0 12.45 9.05 12.5 9.15 12.5 9.2 12.55 9.25 12.6 9.3 12.65 9.35 12.65 9.4 12.7 9.45 12.75 9.5 12.8 9.55 12.85 9.6 12.9 9.6 12.95 9.65 13.0 9.7 13.05 9.7 13.1 9.75 13.15 9.75 13.2 9.8 13.25 9.8 13.25 9.8 13.3 9.8 13.35 9.8 13.4 9.8 13.4 9.8 13.45 9.8 13.5 9.8 13.5 9.75 13.55 9.75 13.6 9.7 13.6 9.7 13.65 9.65 13.65 9.6 13.65 9.6 13.65 9.6 13.65 9.55 13.65 9.55 13.7 9.55 13.7 9.5 13.7 9.5 13.7 9.45 13.7 9.45 13.7 9.4 13.7 9.4 13.7 9.35 13.7 9.3 13.7 9.3 13.7 9.25 13.7 9.2 13.7 9.05 13.55 8.55 13.4 8.05 13.1 7.3 13.0 7.1 12.95 6.9 12.9 6.75 12.8 6.6 12.75 6.45 12.7 6.3 12.6 6.15 12.55 6.05 12.5 5.95 12.45 5.9 12.4 5.8 12.35 5.75 12.3 5.7 12.25 5.65 12.2 5.6 12.15 5.6 12.05 5.6 12.0 5.6 L12.0 5.6 M17.4 8.0 Q17.25 8.0 17.15 8.0 17.0 8.0 16.85 8.05 16.75 8.05 16.6 8.05 16.5 8.1 16.35 8.15 16.25 8.15 16.1 8.2 16.0 8.25 15.9 8.3 15.75 8.35 15.65 8.45 15.55 8.5 15.4 8.6 15.25 8.7 15.1 8.85 14.95 8.95 14.8 9.05 14.65 9.2 14.55 9.3 14.45 9.4 14.35 9.55 14.3 9.65 14.2 9.8 14.15 9.9 14.1 10.05 14.05 10.15 14.05 10.3 14.0 10.4 14.0 10.55 14.05 10.9 14.1 11.05 14.15 11.15 14.2 11.25 14.25 11.35 14.3 11.45 14.4 11.55 14.45 11.65 14.5 11.7 14.6 11.75 14.7 11.8 14.8 11.85 14.85 11.9 14.95 11.95 15.05 11.95 15.2 12.0 15.3 12.0 15.4 12.0 15.45 12.0 15.45 12.0 15.5 12.0 15.55 12.0 15.6 12.0 15.6 11.95 15.65 11.95 15.7 11.95 15.75 11.95 15.8 11.9 15.8 11.9 15.85 11.9 15.9 11.85 15.95 11.85 16.0 11.8 16.05 11.8 16.1 11.75 16.15 11.75 16.15 11.7 16.2 11.65 16.25 11.6 16.25 11.6 16.3 11.55 16.3 11.5 16.35 11.4 16.35 11.35 16.35 11.3 16.4 11.25 16.4 11.15 16.4 11.1 16.4 11.0 16.4 10.95 16.4 10.85 16.4 10.8 16.4 10.7 16.4 10.65 16.35 10.55 16.35 10.5 16.35 10.45 16.35 10.4 16.3 10.3 16.3 10.25 16.25 10.2 16.25 10.2 16.25 10.15 16.2 10.1 16.15 10.05 16.15 10.0 16.1 10.0 16.1 9.95 16.1 9.95 16.05 9.9 16.05 9.85 16.05 9.8 16.05 9.8 16.05 9.75 16.05 9.75 16.1 9.7 16.1 9.7 16.1 9.65 16.15 9.65 16.15 9.6 16.2 9.6 16.25 9.55 16.25 9.5 16.3 9.5 16.35 9.45 16.4 9.4 16.4 9.4 16.45 9.35 16.5 9.3 16.55 9.25 16.6 9.25 16.65 9.2 16.7 9.15 16.75 9.15 16.8 9.1 16.85 9.1 16.9 9.05 16.95 9.05 17.0 9.05 17.05 9.05 17.1 9.0 17.15 9.0 17.2 9.0 17.25 9.0 17.3 9.0 17.35 9.0 17.4 9.05 17.45 9.05 17.5 9.05 17.6 9.1 17.65 9.1 17.7 9.15 17.75 9.2 17.8 9.25 17.9 9.3 17.95 9.35 18.0 9.4 18.1 9.45 18.15 9.5 18.25 9.6 18.3 9.65 18.4 9.75 18.45 9.85 18.5 9.95 18.55 10.0 18.6 10.15 18.65 10.25 18.65 10.35 18.7 10.45 18.7 10.6 18.75 10.75 18.75 10.85 18.8 11.0 18.8 11.15 18.8 11.3 18.8 11.5 18.8 11.55 18.8 11.6 18.8 11.65 18.8 11.7 18.8 11.75 18.75 11.8 18.75 11.85 18.75 11.9 18.7 11.95 18.7 12.05 18.7 12.1 18.65 12.15 18.65 12.2 18.6 12.3 18.6 12.35 18.55 12.4 18.25 12.95 16.65 14.65 16.3 15.0 16.05 15.3 15.75 15.65 15.5 15.95 15.25 16.25 15.05 16.6 14.85 16.9 14.65 17.15 14.5 17.45 14.35 17.75 14.25 18.0 14.15 18.3 14.1 18.55 14.05 18.8 14.0 19.05 14.0 19.3 14.0 19.45 14.0 19.55 14.0 19.7 14.05 19.8 14.05 19.9 14.05 19.95 14.1 20.05 14.1 20.15 14.15 20.2 14.15 20.25 14.2 20.3 14.25 20.35 14.3 20.4 14.35 20.4 14.4 20.4 14.45 20.4 14.5 20.4 14.5 20.4 14.55 20.4 14.6 20.4 14.6 20.4 14.65 20.35 14.7 20.35 14.75 20.35 14.75 20.35 14.8 20.3 14.85 20.3 14.9 20.25 14.95 20.25 15.0 20.2 15.05 20.15 15.1 20.15 15.15 20.1 15.2 20.1 15.25 20.05 15.3 20.0 15.35 20.0 15.4 19.95 15.45 19.95 15.5 19.9 15.55 19.9 15.6 19.9 15.65 19.85 15.7 19.85 15.75 19.85 15.8 19.85 15.85 19.85 15.9 19.85 16.15 19.85 17.45 20.1 17.6 20.15 17.75 20.15 17.85 20.2 18.0 20.25 18.15 20.25 18.25 20.3 18.35 20.3 18.45 20.3 18.6 20.35 18.7 20.35 18.8 20.35 18.85 20.35 18.95 20.4 19.05 20.4 19.1 20.4 19.2 20.4 19.25 20.4 19.35 20.4 19.4 20.4 19.45 20.4 19.5 20.4 19.55 20.4 19.6 20.35 19.65 20.35 19.7 20.35 19.75 20.35 19.8 20.35 19.85 20.3 19.9 20.3 19.95 20.3 19.95 20.3 20.0 20.25 20.15 20.2 20.3 20.1 20.4 20.05 20.5 19.95 20.65 19.85 20.7 19.75 20.8 19.6 20.9 19.5 20.95 19.35 21.0 19.2 21.05 19.1 21.1 18.95 21.15 18.75 21.15 18.6 21.2 18.4 21.2 18.25 21.2 18.05 21.2 17.9 21.15 17.7 21.15 17.55 21.15 17.4 21.1 17.3 21.05 17.2 21.05 17.1 21.0 17.0 20.95 16.9 20.9 16.85 20.85 16.8 20.8 16.75 20.7 16.7 20.65 16.7 20.6 16.7 20.55 16.7 20.5 16.7 20.5 16.7 20.45 16.7 20.4 16.75 20.4 16.75 20.35 16.8 20.3 16.8 20.3 16.85 20.25 16.85 20.2 16.9 20.2 16.95 20.15 17.0 20.15 17.05 20.1 17.05 20.1 17.15 20.1 17.2 20.05 17.25 20.05 17.3 20.0 17.35 19.95 17.35 19.95 17.4 19.9 17.45 19.9 17.5 19.85 17.5 19.8 17.55 19.8 17.55 19.75 17.6 19.7 17.6 19.65 17.6 19.65 17.65 19.6 17.65 19.55 17.65 19.5 17.7 19.45 17.7 19.4 17.7 19.35 17.7 19.3 17.7 19.2 17.7 19.15 17.75 19.05 17.75 19.0 17.75 18.9 17.75 18.8 17.75 18.7 17.75 18.6 17.75 18.55 17.75 18.4 17.75 17.6 17.75 16.05 17.95 16.0 17.95 16.0 18.0 15.95 18.0 15.95 18.0 15.9 18.05 15.85 18.05 15.85 18.1 15.8 18.1 15.75 18.15 15.75 18.2 15.75 18.15 15.75 18.1 15.75 18.05 15.8 18.0 15.8 17.95 15.8 17.9 15.8 17.85 15.8 17.8 15.85 17.8 15.85 17.75 15.85 17.7 15.85 17.7 15.9 17.65 15.9 17.65 15.9 17.6 15.9 17.6 16.35 17.05 17.3 16.0 L18.55 14.75 Q18.8 14.5 19.05 14.25 19.25 14.05 19.5 13.85 19.7 13.6 19.85 13.45 20.05 13.25 20.2 13.05 20.35 12.9 20.5 12.7 20.6 12.55 20.7 12.4 20.8 12.25 20.9 12.15 20.95 12.0 21.0 11.9 21.0 11.85 21.05 11.8 21.05 11.75 21.1 11.7 21.1 11.65 21.1 11.6 21.15 11.55 21.15 11.5 21.15 11.45 21.15 11.4 21.15 11.35 21.15 11.3 21.15 11.2 21.15 11.15 21.2 11.1 21.2 11.05 21.2 11.0 21.2 10.9 21.2 10.85 21.15 10.75 21.15 10.7 21.15 10.6 21.1 10.55 21.1 10.45 21.05 10.4 21.05 10.3 21.0 10.2 21.0 10.15 20.95 10.05 20.9 9.95 20.85 9.85 20.8 9.8 20.75 9.65 20.65 9.5 20.55 9.35 20.45 9.2 20.3 9.05 20.2 8.95 20.05 8.85 19.9 8.7 19.75 8.6 19.6 8.5 19.45 8.45 19.25 8.35 19.05 8.3 18.85 8.2 18.65 8.15 18.45 8.1 18.4 8.1 18.3 8.1 18.25 8.05 18.2 8.05 18.1 8.05 18.05 8.05 18.0 8.0 17.9 8.0 17.85 8.0 17.8 8.0 17.7 8.0 17.65 8.0 17.6 8.0 17.55 8.0 17.45 8.0 17.4 8.0 L17.4 8.0" fill="#ffffff" fill-rule="evenodd" stroke="none"/>
  </g>
</svg>
