<?xml version="1.0" encoding="UTF-8" standalone="no"?>
<svg xmlns:ffdec="https://www.free-decompiler.com/flash" xmlns:xlink="http://www.w3.org/1999/xlink" ffdec:objectType="shape" height="26.0px" width="26.0px" xmlns="http://www.w3.org/2000/svg">
  <g transform="matrix(1.0, 0.0, 0.0, 1.0, 0.0, 0.0)">
    <path d="M11.95 5.55 Q11.9 5.55 11.9 5.55 11.85 5.55 11.85 5.6 11.8 5.6 11.75 5.6 11.75 5.65 11.7 5.65 11.7 5.7 11.65 5.7 11.65 5.75 11.65 5.75 11.6 5.8 11.6 5.85 11.6 5.85 11.6 5.9 11.6 5.95 11.55 6.0 11.55 6.0 11.5 6.05 11.5 6.1 11.5 6.1 11.45 6.15 11.45 6.15 11.4 6.2 11.4 6.2 11.35 6.25 11.35 6.25 11.3 6.3 11.3 6.3 11.25 6.3 11.2 6.3 11.15 6.3 11.15 6.35 11.1 6.35 11.05 6.35 11.0 6.35 11.0 6.4 10.95 6.4 10.9 6.4 10.8 6.4 10.75 6.4 10.7 6.45 10.65 6.45 10.55 6.45 10.5 6.45 10.4 6.45 10.35 6.45 9.3 6.55 7.75 6.55 5.85 6.6 5.3 6.7 5.25 6.7 5.2 6.7 5.1 6.75 5.05 6.75 5.0 6.75 5.0 6.8 4.95 6.8 4.9 6.85 4.85 6.85 4.85 6.9 4.8 6.9 4.8 6.95 4.8 6.95 4.8 7.0 4.75 7.05 4.75 7.1 4.75 7.15 4.75 7.15 4.8 7.2 4.8 7.25 4.85 7.3 4.85 7.3 4.9 7.35 4.95 7.4 5.0 7.45 5.05 7.45 5.1 7.5 5.15 7.55 5.25 7.6 5.3 7.65 5.4 7.65 5.5 7.7 L6.3 8.05 6.3 18.85 5.5 19.2 Q5.4 19.25 5.35 19.3 5.25 19.3 5.2 19.35 5.1 19.4 5.05 19.45 5.0 19.5 4.95 19.5 4.9 19.55 4.85 19.6 4.85 19.65 4.8 19.7 4.8 19.7 4.8 19.75 4.75 19.8 4.75 19.85 4.75 19.9 4.75 19.9 4.75 19.95 4.8 20.0 4.8 20.0 4.85 20.05 4.85 20.05 4.9 20.1 4.9 20.1 4.95 20.15 5.0 20.15 5.05 20.2 5.1 20.2 5.15 20.2 5.2 20.25 5.25 20.25 5.95 20.35 7.3 20.35 7.7 20.35 8.55 20.4 9.05 20.4 9.15 20.4 9.2 20.4 9.25 20.4 9.3 20.4 9.35 20.4 9.35 20.4 9.4 20.4 9.45 20.35 9.5 20.35 9.55 20.35 9.6 20.35 9.65 20.35 9.65 20.35 9.7 20.3 9.7 20.3 9.75 20.3 9.75 20.3 9.8 20.3 9.85 20.3 9.85 20.3 9.9 20.3 9.95 20.3 9.95 20.3 10.0 20.3 10.05 20.3 10.1 20.3 10.1 20.3 10.15 20.3 10.15 20.25 10.15 20.25 10.15 20.15 10.2 20.1 10.15 20.0 10.15 19.95 10.15 19.8 10.15 19.75 10.1 19.7 10.1 19.65 10.1 19.6 10.05 19.55 10.05 19.5 10.0 19.5 10.0 19.45 9.95 19.4 9.9 19.4 9.85 19.35 9.8 19.35 9.8 19.3 9.75 19.3 9.65 19.3 9.6 19.3 9.5 19.3 9.45 19.25 9.35 19.25 9.25 19.2 9.2 19.2 9.15 19.15 9.05 19.1 9.0 19.05 8.95 19.05 8.9 19.0 8.85 18.95 8.8 18.9 8.8 18.85 8.75 18.75 8.75 18.7 8.7 18.65 8.55 18.15 8.55 16.05 L8.55 13.4 9.8 13.5 Q9.9 13.5 10.0 13.55 10.05 13.55 10.15 13.55 10.2 13.55 10.3 13.6 10.35 13.6 10.45 13.6 10.5 13.65 10.55 13.65 10.65 13.65 10.7 13.7 10.75 13.7 10.8 13.7 10.85 13.75 10.9 13.75 10.95 13.8 11.0 13.8 11.05 13.85 11.1 13.9 11.15 13.9 11.2 13.95 11.25 14.0 11.3 14.05 11.35 14.1 11.4 14.15 11.45 14.2 11.55 14.3 11.6 14.35 11.65 14.4 11.7 14.5 11.8 14.55 11.85 14.65 11.9 14.7 11.95 14.75 12.0 14.8 12.1 14.9 12.15 14.95 12.2 14.95 12.25 15.0 12.3 15.05 12.3 15.1 12.35 15.1 12.4 15.15 12.45 15.15 12.5 15.15 12.55 15.15 12.55 15.15 12.6 15.15 12.6 15.15 12.65 15.15 12.7 15.15 12.7 15.1 12.75 15.1 12.75 15.05 12.8 15.0 12.8 15.0 12.8 14.95 12.85 14.9 12.85 14.85 12.85 14.8 12.85 14.7 12.85 14.65 12.85 14.55 12.85 14.5 12.85 14.4 12.85 14.3 12.8 14.2 12.8 14.1 12.75 13.95 12.75 13.85 12.7 13.7 12.7 13.6 12.65 13.45 12.6 13.3 12.55 13.1 12.5 12.95 12.45 12.75 12.35 12.55 12.3 12.35 12.25 12.15 12.15 12.0 12.1 11.8 12.05 11.65 11.95 11.5 11.9 11.4 11.8 11.25 11.75 11.2 11.7 11.1 11.6 11.0 11.55 10.95 11.45 10.9 11.4 10.85 11.3 10.8 11.25 10.8 11.2 10.8 11.15 10.8 11.15 10.8 11.1 10.8 11.05 10.8 11.05 10.85 11.0 10.85 11.0 10.9 10.95 10.9 10.95 10.95 10.9 11.0 10.9 11.05 10.9 11.1 10.85 11.15 10.85 11.2 10.85 11.25 10.85 11.3 10.85 11.35 10.85 11.45 10.8 11.5 10.8 11.55 10.8 11.65 10.75 11.7 10.75 11.75 10.7 11.8 10.7 11.85 10.65 11.85 10.65 11.9 10.6 11.95 10.6 12.0 10.55 12.0 10.5 12.05 10.5 12.1 10.45 12.1 10.4 12.15 10.35 12.15 10.3 12.15 10.25 12.2 10.2 12.2 10.15 12.2 10.05 12.2 10.0 12.25 9.95 12.25 9.85 12.25 9.8 12.25 9.7 12.25 9.65 12.25 9.55 12.25 9.45 12.25 L8.55 12.25 8.55 7.7 9.6 7.7 Q9.85 7.7 10.1 7.7 10.35 7.75 10.55 7.8 10.75 7.85 10.95 7.9 11.15 7.95 11.3 8.05 11.5 8.1 11.65 8.2 11.8 8.3 11.9 8.45 12.05 8.55 12.15 8.7 12.25 8.85 12.35 9.0 12.4 9.05 12.4 9.15 12.45 9.2 12.5 9.25 12.55 9.3 12.6 9.35 12.6 9.4 12.65 9.45 12.7 9.5 12.75 9.55 12.8 9.6 12.85 9.6 12.9 9.65 12.95 9.65 12.95 9.7 13.0 9.7 13.05 9.75 13.1 9.75 13.15 9.75 13.2 9.8 13.25 9.8 13.3 9.8 13.35 9.8 13.35 9.8 13.4 9.8 13.45 9.75 13.45 9.75 13.5 9.75 13.5 9.7 13.55 9.7 13.6 9.65 13.6 9.6 13.6 9.6 13.6 9.6 13.6 9.55 13.6 9.55 13.6 9.55 13.6 9.5 13.65 9.5 13.65 9.45 13.65 9.45 13.65 9.4 13.65 9.4 13.65 9.35 13.65 9.3 13.65 9.25 13.65 9.25 13.65 9.2 13.65 9.05 13.5 8.55 13.35 8.05 13.05 7.3 12.95 7.1 12.9 6.9 12.85 6.75 12.75 6.55 12.7 6.4 12.65 6.3 12.55 6.15 12.5 6.05 12.45 5.95 12.4 5.85 12.35 5.8 12.3 5.75 12.25 5.65 12.2 5.65 12.15 5.6 12.1 5.6 12.05 5.6 12.0 5.6 12.0 5.55 11.95 5.55 L11.95 5.55 M20.2 7.3 Q20.15 7.3 20.15 7.3 20.1 7.3 20.05 7.35 20.0 7.35 20.0 7.35 19.95 7.4 19.95 7.4 19.9 7.45 19.85 7.45 19.85 7.5 19.8 7.55 19.75 7.55 19.75 7.6 19.7 7.65 19.7 7.7 19.65 7.75 19.65 7.8 19.6 7.8 19.55 7.85 19.55 7.9 19.5 7.9 19.5 7.95 19.45 7.95 19.4 8.0 19.4 8.0 19.35 8.05 19.35 8.05 19.3 8.05 19.25 8.1 19.25 8.1 19.2 8.1 18.85 8.15 18.75 8.15 L16.45 8.05 Q16.4 8.05 16.35 8.05 16.3 8.05 16.25 8.05 16.2 8.05 16.2 8.05 16.15 8.05 16.1 8.05 16.05 8.05 16.0 8.05 15.95 8.05 15.95 8.05 15.9 8.1 15.85 8.1 15.8 8.1 15.8 8.1 15.75 8.15 15.7 8.15 15.7 8.2 15.65 8.2 15.6 8.25 15.6 8.25 15.55 8.3 15.55 8.3 15.5 8.35 15.45 8.4 15.4 8.45 15.4 8.5 15.35 8.6 15.3 8.7 15.25 8.8 15.2 8.9 15.15 9.05 15.1 9.2 15.05 9.4 14.95 9.6 14.9 9.8 14.8 10.0 14.75 10.25 14.65 10.5 14.6 10.8 14.5 11.1 13.85 13.45 13.85 14.1 13.85 14.2 13.85 14.25 13.85 14.3 13.85 14.4 13.9 14.45 13.9 14.5 13.95 14.55 13.95 14.6 14.0 14.6 14.05 14.65 14.05 14.7 14.1 14.7 14.15 14.7 14.2 14.75 14.25 14.75 14.3 14.75 14.35 14.75 14.4 14.75 14.45 14.7 14.5 14.7 14.55 14.65 14.65 14.65 14.7 14.6 14.75 14.55 14.8 14.5 14.85 14.45 14.95 14.4 15.0 14.35 15.05 14.3 15.15 14.25 15.2 14.15 15.3 14.1 15.35 14.0 15.45 13.95 15.5 13.9 15.6 13.85 15.65 13.75 15.75 13.7 15.8 13.65 15.9 13.65 16.0 13.6 16.1 13.55 16.2 13.55 16.3 13.5 16.4 13.5 16.5 13.5 16.6 13.45 16.7 13.45 16.8 13.45 16.9 13.45 17.0 13.5 17.1 13.5 17.2 13.55 17.3 13.55 17.4 13.6 17.45 13.65 17.55 13.65 17.65 13.7 17.7 13.75 17.8 13.8 17.85 13.85 17.95 13.9 18.0 14.0 18.1 14.05 18.2 14.15 18.25 14.25 18.35 14.35 18.4 14.5 18.5 14.6 18.55 14.75 18.6 14.85 18.65 15.0 18.7 15.15 18.75 15.3 18.75 15.45 18.8 15.65 18.8 15.8 18.8 15.95 18.85 16.15 18.85 16.3 18.85 16.5 18.85 16.65 18.8 16.85 18.8 17.0 18.75 17.2 18.7 17.35 18.7 17.5 18.65 17.65 18.6 17.8 18.5 17.95 18.45 18.05 18.4 18.2 18.3 18.3 18.2 18.45 18.15 18.55 18.05 18.65 18.0 18.75 17.9 18.8 17.85 18.85 17.75 18.9 17.7 19.0 17.6 19.05 17.5 19.1 17.45 19.1 17.35 19.15 17.25 19.2 17.15 19.2 17.05 19.25 16.95 19.25 16.85 19.25 16.75 19.3 16.65 19.3 16.65 19.3 16.65 19.3 16.65 19.3 16.6 19.3 16.5 19.3 16.4 19.3 16.3 19.25 16.25 19.25 16.15 19.25 16.05 19.2 16.0 19.2 15.9 19.15 15.85 19.15 15.75 19.1 15.7 19.05 15.65 19.0 15.55 18.95 15.5 18.9 15.45 18.85 15.4 18.8 15.35 18.75 15.3 18.7 15.25 18.65 15.25 18.6 15.2 18.55 15.15 18.5 15.15 18.45 15.15 18.45 15.15 18.4 15.15 18.4 15.15 18.35 15.15 18.35 15.15 18.35 15.2 18.3 15.2 18.3 15.25 18.3 15.3 18.3 15.3 18.3 15.35 18.3 15.4 18.3 15.4 18.25 15.45 18.25 15.5 18.2 15.5 18.2 15.55 18.15 15.6 18.1 15.6 18.1 15.65 18.05 15.65 18.0 15.7 17.95 15.75 17.9 15.75 17.85 15.8 17.8 15.8 17.7 15.85 17.65 15.85 17.6 15.9 17.55 15.9 17.5 15.9 17.45 15.9 17.4 15.95 17.35 15.95 17.35 15.95 17.3 15.95 17.25 15.95 17.2 15.95 17.2 15.95 17.15 15.95 17.15 15.95 17.15 15.95 17.1 15.9 17.05 15.9 17.05 15.9 17.0 15.85 16.95 15.85 16.95 15.85 16.9 15.8 16.85 15.75 16.8 15.75 16.75 15.7 16.75 15.7 16.7 15.65 16.65 15.6 16.6 15.55 16.55 15.5 16.5 15.45 16.45 15.4 16.4 15.4 16.35 15.35 16.35 15.3 16.3 15.25 16.25 15.2 16.25 15.15 16.2 15.1 16.2 15.05 16.15 15.0 16.15 14.95 16.15 14.9 16.15 14.85 16.15 14.8 16.15 14.75 16.15 14.7 16.15 14.65 16.15 14.6 16.15 14.6 16.15 14.55 16.15 14.5 16.15 14.45 16.15 14.4 16.2 14.35 16.2 14.35 16.2 14.3 16.2 14.25 16.25 14.2 16.25 14.2 16.3 14.15 16.3 14.05 16.35 13.95 16.4 13.9 16.5 13.8 16.55 13.75 16.65 13.65 16.75 13.6 16.8 13.55 16.9 13.5 17.0 13.45 17.1 13.45 17.25 13.4 17.35 13.4 17.5 13.35 17.6 13.35 17.75 13.35 17.9 13.35 17.95 13.35 18.0 13.35 18.1 13.35 18.15 13.35 18.2 13.4 18.25 13.4 18.3 13.4 18.35 13.4 18.4 13.4 18.45 13.45 18.5 13.45 18.55 13.45 18.6 13.5 18.6 13.5 18.65 13.5 18.7 13.55 18.75 13.55 18.8 13.6 18.85 13.6 18.9 13.65 18.95 13.7 18.95 13.75 19.0 13.8 19.05 13.8 19.1 13.85 19.15 13.9 19.2 13.95 19.25 14.0 19.3 14.05 19.35 14.15 19.4 14.2 19.45 14.35 19.55 14.5 19.7 14.6 19.8 14.75 19.9 14.9 20.0 15.05 20.05 15.25 20.15 15.4 20.2 15.55 20.25 15.7 20.3 15.85 20.35 16.05 20.35 16.2 20.4 16.35 20.4 16.55 20.45 16.7 20.45 16.9 20.45 17.05 20.45 17.25 20.4 17.4 20.4 17.55 20.35 17.75 20.35 17.9 20.3 18.1 20.25 18.25 20.2 18.4 20.15 18.55 20.1 18.75 20.0 18.9 19.95 19.05 19.9 19.2 19.8 19.35 19.7 19.5 19.6 19.65 19.5 19.8 19.4 19.9 19.3 20.05 19.15 20.15 19.05 20.25 18.9 20.35 18.75 20.5 18.65 20.55 18.5 20.65 18.3 20.75 18.15 20.85 18.0 20.9 17.8 21.0 17.65 21.05 17.45 21.05 17.35 21.1 17.25 21.1 17.15 21.1 17.1 21.15 17.0 21.15 16.9 21.15 16.8 21.2 16.7 21.2 16.6 21.2 16.5 21.2 16.45 21.2 16.35 21.2 16.25 21.2 16.15 21.25 16.05 21.25 15.95 21.25 15.85 21.25 15.75 21.25 15.7 21.25 15.6 21.25 15.5 21.2 15.4 21.2 15.35 21.2 15.25 21.2 15.15 21.15 15.05 21.15 15.0 21.15 14.9 21.1 14.8 21.1 14.7 21.05 14.65 21.05 14.55 21.0 14.35 20.9 14.15 20.8 14.0 20.75 13.8 20.65 13.65 20.55 13.5 20.45 13.35 20.35 13.25 20.2 13.1 20.1 13.0 19.95 12.9 19.85 12.8 19.7 12.7 19.55 12.65 19.4 12.6 19.25 12.55 19.1 12.5 18.95 12.45 18.8 12.4 18.65 12.35 18.5 12.3 18.35 12.3 18.2 12.25 18.1 12.25 17.95 12.2 17.8 12.2 17.7 12.15 17.55 12.15 17.45 12.15 17.3 12.15 17.2 12.1 17.1 12.1 17.0 12.1 16.85 12.15 16.75 12.15 16.65 12.15 16.5 12.2 16.4 12.25 16.3 12.25 16.2 12.3 16.05 12.35 15.95 12.4 15.85 12.5 15.75 12.55 15.65 12.6 15.55 12.7 15.45 12.75 15.35 12.85 15.55 11.9 15.7 11.35 L16.05 10.1 17.95 10.25 Q19.1 10.3 19.15 10.3 19.2 10.3 19.25 10.3 19.3 10.3 19.3 10.3 19.35 10.3 19.4 10.3 19.45 10.3 19.45 10.3 19.5 10.3 19.55 10.3 19.55 10.3 19.6 10.3 19.65 10.25 19.65 10.25 19.7 10.25 19.7 10.25 19.75 10.25 19.75 10.25 19.8 10.25 19.85 10.2 19.85 10.2 19.9 10.15 19.95 10.15 19.95 10.1 20.0 10.1 20.05 10.05 20.05 10.0 20.1 9.95 20.15 9.9 20.2 9.85 20.25 9.8 20.25 9.7 20.3 9.65 20.35 9.55 20.4 9.5 20.4 9.4 20.45 9.35 20.5 9.25 20.5 9.2 20.55 9.1 20.55 9.0 20.6 8.9 20.6 8.8 20.6 8.7 20.6 8.6 20.6 8.5 20.65 8.4 20.65 8.25 20.65 8.15 20.65 8.05 20.65 7.95 20.6 7.85 20.6 7.75 20.55 7.7 20.55 7.6 20.5 7.55 20.5 7.5 20.45 7.45 20.45 7.4 20.4 7.4 20.35 7.35 20.3 7.35 20.25 7.3 20.2 7.3 L20.2 7.3" fill="#ffffff" fill-rule="evenodd" stroke="none"/>
  </g>
</svg>
