<?xml version="1.0" encoding="UTF-8" standalone="no"?>
<svg xmlns:ffdec="https://www.free-decompiler.com/flash" xmlns:xlink="http://www.w3.org/1999/xlink" ffdec:objectType="shape" height="26.0px" width="26.0px" xmlns="http://www.w3.org/2000/svg">
  <g transform="matrix(1.0, 0.0, 0.0, 1.0, 0.0, 0.0)">
    <path d="M11.8 5.55 Q11.75 5.55 11.75 5.55 11.7 5.55 11.7 5.6 11.65 5.6 11.6 5.6 11.6 5.65 11.55 5.65 11.55 5.7 11.55 5.7 11.5 5.75 11.5 5.75 11.45 5.8 11.45 5.85 11.45 5.85 11.45 5.9 11.45 5.95 11.4 6.0 11.4 6.0 11.35 6.05 11.35 6.1 11.35 6.1 11.3 6.15 11.3 6.15 11.25 6.2 11.25 6.2 11.2 6.25 11.2 6.25 11.15 6.3 11.15 6.3 11.1 6.3 11.1 6.3 11.05 6.3 11.0 6.35 11.0 6.35 10.95 6.35 10.9 6.35 10.85 6.4 10.8 6.4 10.75 6.4 10.7 6.4 10.6 6.4 10.55 6.45 10.5 6.45 10.4 6.45 10.35 6.45 10.25 6.45 10.2 6.45 9.15 6.55 7.6 6.55 5.7 6.6 5.15 6.7 5.1 6.7 5.05 6.7 4.95 6.75 4.9 6.75 4.9 6.75 4.85 6.8 4.8 6.8 4.75 6.85 4.7 6.85 4.7 6.9 4.65 6.9 4.65 6.95 4.65 6.95 4.65 7.0 4.6 7.05 4.6 7.1 4.6 7.15 4.6 7.15 4.65 7.2 4.65 7.25 4.7 7.3 4.7 7.3 4.75 7.35 4.8 7.4 4.85 7.45 4.9 7.45 4.95 7.5 5.0 7.55 5.1 7.6 5.15 7.65 5.25 7.65 5.35 7.7 L6.15 8.05 6.15 18.85 5.35 19.2 Q5.25 19.25 5.2 19.3 5.1 19.3 5.05 19.35 4.95 19.4 4.9 19.45 4.85 19.5 4.8 19.5 4.75 19.55 4.7 19.6 4.7 19.65 4.65 19.7 4.65 19.7 4.65 19.75 4.6 19.8 4.6 19.85 4.6 19.9 4.6 19.9 4.6 19.95 4.65 20.0 4.65 20.0 4.7 20.05 4.7 20.05 4.75 20.1 4.75 20.1 4.8 20.15 4.85 20.15 4.9 20.2 4.95 20.2 5.0 20.2 5.05 20.25 5.1 20.25 5.8 20.35 7.15 20.35 7.55 20.35 8.4 20.4 8.9 20.4 9.0 20.4 9.05 20.4 9.1 20.4 9.15 20.4 9.2 20.4 9.25 20.4 9.25 20.4 9.3 20.35 9.35 20.35 9.4 20.35 9.45 20.35 9.5 20.35 9.5 20.35 9.55 20.3 9.55 20.3 9.6 20.3 9.6 20.3 9.65 20.3 9.7 20.3 9.7 20.3 9.75 20.3 9.8 20.3 9.8 20.3 9.85 20.3 9.9 20.3 9.95 20.3 9.95 20.3 10.0 20.3 10.0 20.25 10.0 20.25 10.05 20.15 10.05 20.1 10.0 20.0 10.0 19.95 10.0 19.8 10.0 19.75 10.0 19.7 9.95 19.65 9.95 19.6 9.9 19.55 9.9 19.5 9.85 19.5 9.85 19.45 9.8 19.4 9.75 19.4 9.7 19.35 9.7 19.35 9.65 19.3 9.6 19.3 9.55 19.3 9.45 19.3 9.35 19.3 9.3 19.25 9.2 19.25 9.1 19.2 9.05 19.2 9.0 19.15 8.9 19.1 8.85 19.05 8.8 19.05 8.75 19.0 8.7 18.95 8.7 18.9 8.65 18.85 8.6 18.75 8.6 18.7 8.55 18.65 8.4 18.15 8.4 16.05 L8.4 13.4 9.65 13.5 Q9.75 13.5 9.85 13.55 9.9 13.55 10.0 13.55 10.05 13.55 10.15 13.6 10.2 13.6 10.3 13.6 10.35 13.65 10.4 13.65 10.5 13.65 10.55 13.7 10.6 13.7 10.65 13.7 10.7 13.75 10.75 13.75 10.8 13.8 10.85 13.8 10.9 13.85 10.95 13.9 11.0 13.9 11.05 13.95 11.1 14.0 11.15 14.05 11.2 14.1 11.25 14.15 11.35 14.2 11.4 14.3 11.45 14.35 11.5 14.4 11.55 14.5 11.65 14.55 11.7 14.65 11.75 14.7 11.8 14.75 11.9 14.8 11.95 14.9 12.0 14.95 12.05 14.95 12.1 15.0 12.15 15.05 12.15 15.1 12.2 15.1 12.25 15.15 12.3 15.15 12.35 15.15 12.4 15.15 12.4 15.15 12.45 15.15 12.45 15.15 12.5 15.15 12.55 15.15 12.55 15.1 12.6 15.1 12.6 15.05 12.65 15.0 12.65 15.0 12.65 14.95 12.7 14.9 12.7 14.85 12.7 14.8 12.7 14.7 12.7 14.65 12.7 14.55 12.7 14.5 12.7 14.4 12.7 14.3 12.65 14.2 12.65 14.1 12.65 13.95 12.6 13.85 12.55 13.7 12.55 13.6 12.5 13.45 12.45 13.3 12.4 13.1 12.35 12.95 12.3 12.75 12.2 12.55 12.15 12.35 12.1 12.15 12.0 12.0 11.95 11.8 11.9 11.65 11.8 11.5 11.75 11.4 11.65 11.25 11.6 11.2 11.55 11.1 11.45 11.0 11.4 10.95 11.3 10.9 11.25 10.85 11.15 10.8 11.1 10.8 11.05 10.8 11.0 10.8 11.0 10.8 10.95 10.8 10.9 10.8 10.9 10.85 10.85 10.85 10.85 10.9 10.8 10.9 10.8 10.95 10.8 11.0 10.75 11.05 10.75 11.1 10.75 11.15 10.7 11.2 10.7 11.25 10.7 11.3 10.7 11.35 10.7 11.45 10.65 11.5 10.65 11.55 10.65 11.65 10.6 11.7 10.6 11.75 10.55 11.8 10.55 11.85 10.5 11.85 10.5 11.9 10.45 11.95 10.45 12.0 10.4 12.0 10.35 12.05 10.35 12.1 10.3 12.1 10.25 12.15 10.2 12.15 10.15 12.15 10.1 12.2 10.05 12.2 10.0 12.2 9.9 12.2 9.85 12.25 9.8 12.25 9.7 12.25 9.65 12.25 9.55 12.25 9.5 12.25 9.4 12.25 9.3 12.25 L8.4 12.25 8.4 7.7 9.45 7.7 Q9.7 7.7 9.95 7.7 10.2 7.75 10.4 7.8 10.6 7.85 10.8 7.9 11.0 7.95 11.15 8.05 11.35 8.1 11.5 8.2 11.65 8.3 11.8 8.45 11.9 8.55 12.0 8.7 12.1 8.85 12.2 9.0 12.25 9.05 12.25 9.15 12.3 9.2 12.35 9.25 12.4 9.3 12.45 9.35 12.45 9.4 12.5 9.45 12.55 9.5 12.6 9.55 12.65 9.6 12.7 9.6 12.75 9.65 12.8 9.65 12.85 9.7 12.9 9.7 12.95 9.75 13.0 9.75 13.05 9.75 13.05 9.8 13.1 9.8 13.15 9.8 13.2 9.8 13.2 9.8 13.25 9.8 13.3 9.75 13.3 9.75 13.35 9.75 13.4 9.7 13.4 9.7 13.45 9.65 13.45 9.6 13.45 9.6 13.45 9.6 13.45 9.55 13.45 9.55 13.45 9.55 13.5 9.5 13.5 9.5 13.5 9.45 13.5 9.45 13.5 9.4 13.5 9.4 13.5 9.35 13.5 9.3 13.5 9.25 13.5 9.25 13.5 9.2 13.5 9.05 13.35 8.55 13.2 8.05 12.9 7.3 12.8 7.1 12.75 6.9 12.7 6.75 12.6 6.55 12.55 6.4 12.5 6.3 12.4 6.15 12.35 6.05 12.3 5.95 12.25 5.85 12.2 5.8 12.15 5.75 12.1 5.65 12.05 5.65 12.0 5.6 11.95 5.6 11.9 5.6 11.85 5.6 11.85 5.55 11.8 5.55 L11.8 5.55 M17.7 8.0 Q17.4 8.0 17.15 8.05 16.9 8.05 16.7 8.1 16.45 8.2 16.25 8.25 16.0 8.35 15.8 8.45 15.65 8.55 15.45 8.7 15.3 8.85 15.15 9.0 15.0 9.15 14.85 9.35 14.75 9.55 14.65 9.75 14.6 9.85 14.6 9.9 14.55 10.0 14.5 10.05 14.5 10.15 14.45 10.25 14.45 10.3 14.4 10.4 14.4 10.45 14.4 10.55 14.4 10.6 14.35 10.7 14.35 10.8 14.35 10.85 14.35 10.95 14.35 11.0 14.35 11.1 14.35 11.2 14.35 11.25 14.4 11.35 14.4 11.45 14.45 11.55 14.5 11.65 14.55 11.8 14.6 11.9 14.65 12.0 14.7 12.1 14.8 12.25 14.85 12.35 14.95 12.5 15.05 12.65 15.15 12.75 L15.75 13.55 14.75 14.6 Q14.6 14.75 14.45 14.95 14.35 15.1 14.2 15.25 14.1 15.4 14.0 15.55 13.9 15.75 13.85 15.9 13.75 16.05 13.7 16.2 13.65 16.35 13.6 16.5 13.55 16.65 13.55 16.8 13.55 16.95 13.55 17.1 13.55 17.25 13.55 17.4 13.6 17.55 13.6 17.7 13.65 17.85 13.7 17.95 13.75 18.1 13.85 18.25 13.9 18.4 14.0 18.55 14.1 18.7 14.2 18.8 14.3 18.95 14.45 19.1 14.55 19.25 14.7 19.35 14.85 19.5 15.0 19.6 15.15 19.7 15.3 19.8 15.5 19.9 15.65 20.0 15.8 20.1 15.95 20.15 16.15 20.25 16.3 20.3 16.5 20.35 16.65 20.35 16.85 20.4 17.0 20.4 17.2 20.45 17.4 20.45 17.6 20.45 17.75 20.45 17.95 20.4 18.15 20.35 18.3 20.35 18.5 20.3 18.65 20.25 18.85 20.2 19.0 20.1 19.2 20.05 19.35 19.95 19.5 19.85 19.7 19.8 19.85 19.65 20.0 19.55 20.15 19.45 20.3 19.35 20.45 19.2 20.55 19.05 20.7 18.9 20.8 18.75 20.9 18.6 21.0 18.45 21.05 18.3 21.15 18.1 21.2 17.95 21.25 17.75 21.3 17.55 21.35 17.4 21.35 17.2 21.4 17.0 21.4 16.8 21.4 16.6 21.35 16.35 21.35 16.15 21.3 15.95 21.25 15.75 21.15 15.55 21.05 15.35 20.95 15.15 20.85 15.0 20.75 14.8 20.6 14.6 20.45 14.45 20.3 14.25 20.1 14.1 19.9 13.9 19.7 13.75 L18.75 13.0 19.65 12.15 Q19.8 12.0 19.9 11.9 20.0 11.75 20.1 11.65 20.2 11.5 20.3 11.4 20.4 11.25 20.45 11.15 20.5 11.0 20.55 10.85 20.6 10.75 20.65 10.6 20.7 10.5 20.7 10.35 20.7 10.25 20.7 10.1 20.7 9.95 20.7 9.85 20.65 9.75 20.65 9.6 20.6 9.5 20.55 9.4 20.5 9.3 20.45 9.2 20.4 9.1 20.3 9.0 20.25 8.9 20.15 8.8 20.05 8.7 19.9 8.65 19.8 8.55 19.7 8.5 19.6 8.45 19.5 8.4 19.4 8.35 19.3 8.3 19.15 8.25 19.05 8.2 18.95 8.15 18.8 8.15 18.7 8.1 18.55 8.1 18.4 8.05 18.3 8.05 18.15 8.05 18.0 8.05 17.85 8.0 17.7 8.0 L17.7 8.0 M17.6 9.0 Q17.7 9.0 17.75 9.0 17.85 9.0 17.9 9.0 18.0 9.0 18.05 9.05 18.15 9.05 18.2 9.05 18.25 9.1 18.35 9.1 18.4 9.15 18.45 9.2 18.5 9.2 18.55 9.25 18.6 9.3 18.65 9.35 18.7 9.4 18.75 9.45 18.8 9.5 18.8 9.55 18.85 9.6 18.9 9.65 18.9 9.7 18.95 9.75 18.95 9.8 19.0 9.9 19.0 9.95 19.0 10.05 19.0 10.1 19.0 10.2 19.05 10.25 19.05 10.35 19.05 10.45 19.05 10.5 19.05 10.6 19.0 10.65 19.0 10.75 18.95 10.8 18.95 10.9 18.9 10.95 18.9 11.05 18.85 11.1 18.85 11.15 18.8 11.2 18.75 11.25 18.7 11.3 18.65 11.4 18.6 11.45 18.55 11.5 18.5 11.55 18.45 11.6 18.35 11.65 18.3 11.7 18.25 11.75 18.2 11.8 18.15 11.8 18.05 11.85 18.0 11.9 17.95 11.95 17.9 12.0 17.8 12.05 17.75 12.1 17.7 12.15 17.6 12.15 17.55 12.1 17.5 12.05 17.45 12.05 17.35 11.95 17.3 11.9 17.25 11.85 17.2 11.8 17.15 11.75 17.1 11.7 17.05 11.6 16.95 11.55 16.9 11.45 16.85 11.4 16.8 11.3 16.75 11.2 16.7 11.1 16.65 11.0 16.6 10.95 16.55 10.85 16.5 10.8 16.45 10.7 16.4 10.65 16.35 10.6 16.35 10.5 16.3 10.45 16.3 10.4 16.25 10.35 16.25 10.35 16.25 10.3 16.25 10.25 16.2 10.25 16.2 10.2 16.2 10.15 16.2 10.15 16.2 10.1 16.25 10.05 16.25 10.05 16.25 10.0 16.3 9.95 16.3 9.9 16.35 9.85 16.35 9.8 16.4 9.75 16.4 9.7 16.45 9.65 16.5 9.6 16.5 9.55 16.55 9.5 16.6 9.45 16.65 9.4 16.7 9.35 16.75 9.3 16.8 9.25 16.85 9.2 16.9 9.15 17.0 9.15 17.05 9.1 17.1 9.05 17.2 9.05 17.25 9.05 17.35 9.0 17.4 9.0 17.5 9.0 17.6 9.0 L17.6 9.0 M16.8 14.4 Q17.7 15.2 18.35 15.7 18.5 15.8 18.6 15.95 18.75 16.05 18.85 16.15 18.95 16.3 19.05 16.4 19.15 16.5 19.2 16.6 19.3 16.75 19.35 16.85 19.4 16.95 19.45 17.05 19.45 17.2 19.5 17.3 19.5 17.4 19.5 17.5 19.5 17.6 19.5 17.65 19.5 17.75 19.45 17.8 19.45 17.9 19.4 18.0 19.4 18.05 19.35 18.15 19.3 18.2 19.25 18.3 19.2 18.35 19.15 18.45 19.1 18.55 19.0 18.6 18.95 18.7 18.85 18.75 18.8 18.85 18.7 18.9 18.65 19.0 18.55 19.05 18.5 19.1 18.4 19.15 18.35 19.25 18.3 19.25 18.2 19.3 18.15 19.35 18.1 19.4 18.05 19.4 17.95 19.45 17.9 19.45 17.85 19.5 17.8 19.5 L17.5 19.5 Q17.45 19.5 17.45 19.5 17.4 19.5 17.35 19.5 17.35 19.45 17.3 19.45 17.25 19.45 17.2 19.4 17.15 19.4 17.1 19.35 17.05 19.35 16.95 19.3 16.9 19.3 16.85 19.25 16.75 19.2 16.7 19.2 16.55 19.1 16.4 19.05 16.3 18.95 16.15 18.85 16.05 18.75 15.95 18.6 15.85 18.5 15.8 18.4 15.7 18.25 15.65 18.1 15.6 17.95 15.55 17.85 15.5 17.7 15.5 17.5 15.5 17.35 15.5 17.2 15.5 17.05 15.5 16.95 15.5 16.8 15.5 16.7 15.55 16.55 15.55 16.45 15.6 16.3 15.6 16.2 15.65 16.1 15.65 16.0 15.7 15.85 15.75 15.75 15.8 15.65 15.85 15.55 15.9 15.45 16.0 15.35 16.05 15.25 16.1 15.15 16.15 15.1 16.2 15.0 16.25 14.95 16.3 14.85 16.4 14.8 16.45 14.75 16.5 14.7 16.55 14.65 16.6 14.6 16.65 14.55 16.7 14.5 16.75 14.45 16.8 14.45 16.8 14.4 L16.8 14.4" fill="#ffffff" fill-rule="evenodd" stroke="none"/>
  </g>
</svg>
