<?xml version="1.0" encoding="UTF-8" standalone="no"?>
<svg xmlns:ffdec="https://www.free-decompiler.com/flash" xmlns:xlink="http://www.w3.org/1999/xlink" ffdec:objectType="shape" height="26.0px" width="26.0px" xmlns="http://www.w3.org/2000/svg">
  <g transform="matrix(1.0, 0.0, 0.0, 1.0, 0.0, 0.0)">
    <path d="M18.35 9.55 Q18.25 9.55 18.15 9.55 18.0 9.55 17.9 9.55 17.8 9.55 17.7 9.6 17.6 9.6 17.5 9.6 17.45 9.65 17.35 9.65 17.25 9.7 17.2 9.75 17.1 9.75 17.0 9.8 16.95 9.85 16.9 9.9 16.7 10.0 16.55 10.15 16.35 10.25 16.2 10.4 16.05 10.55 15.9 10.75 15.75 10.9 15.65 11.1 15.5 11.3 15.4 11.5 15.3 11.7 15.2 11.95 15.1 12.15 15.05 12.4 15.0 12.65 14.95 12.9 14.95 13.0 14.9 13.1 14.9 13.15 14.85 13.25 14.85 13.35 14.85 13.4 14.85 13.5 14.8 13.6 14.8 13.7 14.8 13.75 14.8 13.85 14.8 13.95 14.8 14.0 14.8 14.1 14.8 14.2 14.8 14.25 14.8 14.4 14.8 14.6 14.8 14.75 14.8 14.95 14.85 15.1 14.85 15.25 14.9 15.4 14.9 15.55 14.95 15.7 15.0 15.85 15.05 16.0 15.05 16.15 15.1 16.3 15.2 16.45 15.25 16.6 15.3 16.7 15.35 16.85 15.45 16.95 15.5 17.1 15.55 17.2 15.65 17.3 15.7 17.4 15.75 17.5 15.8 17.6 15.9 17.7 15.95 17.8 16.0 17.9 16.05 17.95 16.1 18.05 16.2 18.1 16.25 18.15 16.3 18.2 16.35 18.25 16.4 18.3 16.5 18.35 16.55 18.4 16.6 18.45 16.65 18.5 16.75 18.55 16.8 18.6 16.85 18.6 16.95 18.65 17.0 18.7 17.1 18.75 17.15 18.75 17.25 18.8 17.3 18.8 17.35 18.85 17.45 18.85 17.5 18.9 17.6 18.9 17.65 18.9 17.75 18.95 17.8 18.95 17.9 18.95 17.95 19.0 18.05 19.0 18.1 19.0 18.15 19.0 18.25 19.0 18.3 19.0 18.4 19.0 18.45 19.0 18.5 19.0 18.55 19.0 18.65 19.0 18.7 19.0 18.8 19.0 18.85 19.0 18.9 18.95 19.0 18.95 19.05 18.95 19.15 18.9 19.2 18.9 19.3 18.85 19.35 18.85 19.45 18.8 19.5 18.75 19.55 18.75 19.65 18.7 19.75 18.65 19.9 18.55 20.0 18.5 20.1 18.4 20.25 18.3 20.35 18.2 20.45 18.1 20.55 18.0 20.65 17.9 20.75 17.75 20.85 17.65 20.95 17.5 21.0 17.4 21.1 17.25 21.2 17.1 21.25 16.95 21.3 16.85 21.35 16.75 21.4 16.7 21.4 16.6 21.45 16.5 21.5 16.45 21.55 16.35 21.55 16.3 21.6 16.2 21.6 16.15 21.65 16.05 21.65 16.0 21.7 15.95 21.7 15.9 21.7 15.8 21.75 15.75 21.75 15.7 21.75 15.6 21.75 15.55 21.75 15.5 21.8 15.4 21.8 15.35 21.8 15.25 21.8 15.15 21.8 15.05 21.8 14.95 21.8 14.85 21.8 14.75 21.8 14.65 21.8 14.55 21.8 14.4 21.8 14.3 21.8 13.9 21.75 13.55 21.75 13.15 21.7 12.8 21.65 12.5 21.55 12.2 21.45 11.85 21.3 11.6 21.2 11.3 21.05 11.1 20.9 10.85 20.7 10.6 20.5 10.4 20.3 10.2 20.05 10.05 19.8 9.9 19.75 9.85 19.65 9.8 19.6 9.75 19.5 9.75 19.45 9.7 19.35 9.65 19.25 9.65 19.15 9.6 19.05 9.6 18.95 9.6 18.9 9.55 18.8 9.55 18.65 9.55 18.55 9.55 18.45 9.55 18.35 9.55 L18.35 9.55 M18.25 10.3 L18.45 10.3 18.45 10.3 Q18.5 10.3 18.55 10.3 18.6 10.3 18.65 10.35 18.7 10.4 18.8 10.45 18.85 10.45 18.95 10.55 L18.95 10.55 Q19.1 10.65 19.2 10.8 19.35 10.9 19.45 11.1 19.55 11.25 19.6 11.45 19.7 11.65 19.75 11.9 19.85 12.15 19.9 12.45 19.95 12.7 19.95 13.05 20.0 13.35 20.05 13.7 20.05 14.05 20.05 14.45 20.05 14.55 20.05 14.6 20.05 14.7 20.05 14.8 20.05 14.9 20.0 15.0 20.0 15.1 20.0 15.2 20.0 15.3 20.0 15.4 19.95 15.5 19.95 15.65 19.95 15.75 19.9 15.9 19.9 16.0 19.85 16.15 19.85 16.3 19.8 16.4 19.8 16.5 19.75 16.65 19.75 16.75 19.7 16.85 19.7 16.95 19.65 17.05 19.6 17.15 19.55 17.2 19.55 17.3 19.5 17.4 19.45 17.45 19.4 17.55 19.4 17.6 19.35 17.65 19.3 17.7 19.25 17.75 19.2 17.8 19.15 17.85 19.1 17.9 19.05 17.95 19.0 17.95 18.9 18.0 18.85 18.05 18.8 18.05 18.75 18.1 18.7 18.1 18.6 18.1 18.55 18.1 18.5 18.1 18.4 18.1 18.35 18.1 18.25 18.1 18.2 18.1 18.15 18.1 18.1 18.1 18.0 18.05 17.95 18.05 17.9 18.0 17.85 18.0 17.8 17.95 17.7 17.9 17.65 17.9 17.6 17.85 17.55 17.8 17.5 17.75 17.45 17.7 17.35 17.6 17.25 17.45 17.15 17.35 17.1 17.15 17.0 17.0 16.95 16.85 16.85 16.65 16.8 16.45 16.75 16.2 16.7 16.0 16.65 15.75 16.65 15.45 16.6 15.2 16.6 14.9 16.6 14.6 16.6 14.3 16.6 14.2 16.6 14.1 16.6 14.05 16.6 13.95 16.6 13.85 16.6 13.75 16.6 13.65 16.6 13.55 16.65 13.5 16.65 13.4 16.65 13.3 16.65 13.2 16.65 13.1 16.7 13.0 16.7 12.9 16.7 12.8 16.75 12.6 16.75 12.45 16.8 12.3 16.85 12.15 16.9 12.0 16.95 11.85 16.95 11.7 17.0 11.6 17.05 11.45 17.1 11.35 17.15 11.25 17.25 11.15 17.3 11.05 17.35 11.0 17.4 10.9 17.45 10.85 17.5 10.8 17.6 10.75 17.65 10.65 17.7 10.6 17.75 10.55 17.8 10.55 17.85 10.5 17.9 10.45 17.95 10.4 18.0 10.4 18.05 10.35 18.1 10.35 18.15 10.3 18.2 10.3 18.2 10.3 18.25 10.3 L18.25 10.3" fill="#ffffff" fill-rule="evenodd" stroke="none"/>
    <path d="M13.9 9.45 Q13.85 9.45 13.8 9.45 13.8 9.45 13.75 9.45 13.7 9.5 13.7 9.5 13.65 9.5 13.6 9.55 13.6 9.55 13.55 9.55 13.5 9.6 13.5 9.6 13.45 9.65 13.4 9.65 13.4 9.7 13.35 9.75 13.35 9.8 13.3 9.8 13.25 9.85 13.25 9.85 13.2 9.9 13.15 9.9 13.1 9.95 13.05 9.95 13.0 9.95 12.95 10.0 12.9 10.0 12.8 10.0 12.75 10.0 12.7 10.0 12.6 10.05 12.55 10.05 12.45 10.05 12.4 10.05 12.35 10.05 12.25 10.05 12.2 10.05 12.15 10.05 12.1 10.05 12.05 10.05 12.0 10.1 11.95 10.1 11.9 10.1 11.85 10.1 11.8 10.1 11.8 10.15 11.75 10.15 11.7 10.15 11.65 10.2 11.6 10.2 11.6 10.25 11.55 10.3 11.55 10.3 11.5 10.35 11.5 10.35 11.5 10.4 11.5 10.4 11.5 10.45 11.5 10.5 11.5 10.5 11.5 10.55 11.55 10.6 11.55 10.6 11.6 10.65 11.6 10.7 11.65 10.75 11.65 10.8 11.7 10.8 11.7 10.8 11.75 10.85 11.8 10.85 11.8 10.85 11.85 10.9 11.85 10.9 11.9 10.9 11.95 10.9 11.95 10.9 12.0 10.95 12.05 10.95 12.1 10.95 12.1 10.95 12.15 10.95 12.2 10.95 12.25 10.95 12.25 10.95 12.3 10.95 12.35 10.95 12.4 11.0 12.4 11.0 12.45 11.0 12.45 11.0 12.5 11.05 12.5 11.05 12.55 11.1 12.55 11.1 12.6 11.15 12.6 11.15 12.65 11.2 12.65 11.25 12.65 11.25 12.7 11.3 12.7 11.35 12.7 11.4 12.7 11.45 12.75 11.5 12.75 11.55 12.75 11.6 12.75 11.65 12.75 11.7 12.8 11.75 12.8 11.8 12.8 11.9 12.8 11.95 12.8 12.05 12.8 12.1 12.8 12.2 12.8 12.25 12.8 12.35 12.8 12.4 12.8 12.5 12.8 12.6 12.85 12.65 12.85 12.75 12.85 12.85 12.85 12.95 12.85 13.05 12.85 13.15 12.85 13.2 12.85 13.35 12.85 13.45 12.8 14.65 12.8 15.25 12.8 15.65 12.8 16.15 12.8 16.65 12.8 16.75 12.8 16.9 12.75 17.15 12.75 17.3 12.75 17.35 12.75 17.4 12.7 17.7 12.7 17.8 12.65 17.85 12.65 17.9 12.6 17.9 12.6 17.9 12.55 17.95 12.55 17.95 12.55 17.95 12.5 18.0 12.25 18.05 12.2 18.05 12.2 18.05 12.15 18.05 12.1 18.1 12.1 18.1 12.05 18.1 12.05 18.1 12.0 18.15 12.0 18.15 11.95 18.15 11.95 18.2 11.9 18.2 11.9 18.2 11.85 18.25 11.85 18.25 11.85 18.3 11.8 18.35 11.8 18.35 11.75 18.4 11.75 18.4 11.7 18.45 11.7 18.45 11.7 18.5 11.65 18.5 11.65 18.55 11.65 18.55 11.65 18.6 11.7 18.65 11.7 18.7 11.75 18.75 11.8 18.75 11.85 18.8 11.95 18.8 12.0 18.85 12.1 18.85 12.25 18.9 12.35 18.9 12.5 18.9 12.6 18.95 12.75 18.95 12.95 18.95 13.1 18.95 14.4 18.95 15.05 18.85 15.1 18.85 15.15 18.85 15.2 18.8 15.25 18.8 15.3 18.8 15.35 18.75 15.35 18.75 15.4 18.75 15.45 18.7 15.45 18.7 15.5 18.65 15.5 18.65 15.5 18.6 15.5 18.6 15.5 18.55 15.5 18.55 15.5 18.5 15.5 18.5 15.5 18.45 15.5 18.4 15.45 18.4 15.45 18.35 15.45 18.35 15.4 18.3 15.35 18.3 15.35 18.25 15.3 18.25 15.25 18.2 15.2 18.2 15.15 18.15 15.1 18.15 15.05 18.1 L14.45 17.9 14.45 13.95 Q14.45 13.65 14.45 11.75 14.45 10.1 14.35 9.75 14.35 9.7 14.3 9.7 14.3 9.65 14.3 9.6 14.25 9.6 14.25 9.55 14.2 9.55 14.2 9.55 14.15 9.5 14.15 9.5 14.1 9.5 14.05 9.5 14.05 9.45 14.0 9.45 13.95 9.45 13.9 9.45 L13.9 9.45" fill="#ffffff" fill-rule="evenodd" stroke="none"/>
    <path d="M10.05 6.95 Q10.0 6.95 9.95 6.95 9.9 7.0 9.9 7.0 9.85 7.05 9.8 7.05 9.8 7.1 9.75 7.15 9.75 7.2 9.75 7.25 9.7 7.3 9.7 7.35 9.65 7.4 9.65 7.4 9.6 7.45 9.6 7.5 9.55 7.5 9.5 7.55 9.5 7.55 9.45 7.55 9.4 7.55 9.4 7.6 9.35 7.6 9.3 7.6 9.3 7.6 9.25 7.6 9.2 7.65 9.15 7.65 9.1 7.65 9.05 7.65 9.0 7.65 8.95 7.65 8.9 7.65 8.85 7.7 8.8 7.7 8.7 7.7 8.6 7.7 7.9 7.75 7.2 7.75 6.6 7.75 5.05 7.8 4.6 7.9 4.55 7.9 4.5 7.9 4.45 7.9 4.45 7.95 4.4 7.95 4.35 7.95 4.3 7.95 4.3 8.0 4.25 8.0 4.25 8.05 4.25 8.05 4.2 8.1 4.2 8.1 4.2 8.15 4.2 8.15 4.2 8.2 4.2 8.25 4.2 8.25 4.2 8.3 4.25 8.3 4.25 8.35 4.25 8.4 4.3 8.4 4.35 8.45 4.35 8.5 4.4 8.5 4.45 8.55 4.5 8.55 4.55 8.6 4.65 8.65 4.7 8.65 4.75 8.7 L5.4 8.95 5.4 17.8 4.75 18.05 Q4.7 18.1 4.6 18.1 4.55 18.15 4.5 18.2 4.45 18.2 4.4 18.25 4.35 18.3 4.35 18.3 4.3 18.35 4.25 18.4 4.25 18.4 4.2 18.45 4.2 18.5 4.2 18.5 4.2 18.55 4.2 18.6 4.2 18.65 4.2 18.65 4.2 18.7 4.2 18.7 4.25 18.75 4.25 18.75 4.25 18.75 4.3 18.8 4.3 18.8 4.35 18.85 4.35 18.85 4.4 18.85 4.45 18.85 4.5 18.9 4.55 18.9 4.55 18.9 5.05 18.95 6.25 19.0 6.7 19.0 7.25 19.05 7.7 19.05 7.75 19.05 7.8 19.05 7.85 19.05 7.9 19.05 7.95 19.05 8.0 19.0 8.0 19.0 8.05 19.0 8.1 19.0 8.15 19.0 8.2 18.95 8.2 18.95 8.25 18.95 8.3 18.95 8.35 18.95 8.4 18.95 8.45 18.95 8.5 18.95 8.55 18.95 8.6 18.95 8.6 18.85 8.6 18.75 8.55 18.55 8.55 18.5 8.55 18.45 8.5 18.45 8.5 18.4 8.5 18.35 8.45 18.3 8.45 18.3 8.45 18.25 8.4 18.25 8.35 18.2 8.35 18.2 8.3 18.15 8.25 18.15 8.2 18.15 8.2 18.15 8.15 18.1 8.05 18.1 8.0 18.1 7.95 18.05 7.85 18.05 7.8 18.05 7.75 18.0 7.7 18.0 7.65 17.95 7.6 17.9 7.55 17.9 7.5 17.85 7.5 17.8 7.45 17.75 7.45 17.7 7.4 17.65 7.4 17.6 7.4 17.55 7.35 17.45 7.35 17.4 7.35 17.3 7.3 17.2 7.3 17.1 7.3 17.0 7.3 16.85 7.3 16.75 7.25 16.6 7.25 16.45 7.25 16.25 7.25 16.1 7.25 15.9 7.25 15.7 7.25 15.5 L7.25 13.35 8.25 13.45 Q8.35 13.45 8.4 13.45 8.5 13.45 8.55 13.45 8.6 13.5 8.7 13.5 8.75 13.5 8.8 13.5 8.85 13.55 8.9 13.55 8.95 13.55 9.0 13.55 9.05 13.6 9.1 13.6 9.15 13.6 9.2 13.6 9.25 13.65 9.25 13.65 9.3 13.7 9.35 13.7 9.4 13.75 9.45 13.8 9.45 13.85 9.5 13.85 9.55 13.9 9.6 13.95 9.65 14.0 9.7 14.05 9.75 14.1 9.8 14.15 9.85 14.25 9.9 14.3 9.95 14.35 10.0 14.4 10.05 14.45 10.1 14.5 10.15 14.55 10.2 14.6 10.2 14.6 10.25 14.65 10.3 14.7 10.35 14.7 10.35 14.75 10.4 14.75 10.45 14.75 10.45 14.75 10.5 14.8 10.55 14.8 10.6 14.8 10.6 14.8 10.6 14.75 10.65 14.75 10.65 14.75 10.7 14.7 10.7 14.7 10.7 14.65 10.75 14.65 10.75 14.6 10.75 14.55 10.75 14.5 10.75 14.45 10.75 14.4 10.75 14.35 10.75 14.3 10.75 14.25 10.75 14.15 10.75 14.1 10.75 14.0 10.7 13.9 10.7 13.8 10.7 13.7 10.65 13.6 10.65 13.5 10.6 13.35 10.55 13.25 10.5 13.1 10.45 12.95 10.4 12.8 10.4 12.65 10.3 12.5 10.25 12.35 10.2 12.2 10.15 12.05 10.1 11.95 10.05 11.8 10.0 11.7 9.9 11.6 9.85 11.55 9.8 11.45 9.75 11.4 9.7 11.3 9.65 11.3 9.6 11.25 9.5 11.2 9.45 11.2 9.4 11.2 L9.4 11.2 Q9.35 11.2 9.35 11.2 9.35 11.2 9.3 11.25 9.3 11.25 9.25 11.25 9.25 11.3 9.25 11.3 9.2 11.35 9.2 11.4 9.2 11.4 9.15 11.45 9.15 11.5 9.15 11.55 9.15 11.6 9.15 11.65 9.15 11.7 9.1 11.75 9.1 11.8 9.1 11.85 9.1 11.9 9.05 11.95 9.05 12.0 9.05 12.0 9.0 12.05 9.0 12.1 8.95 12.1 8.95 12.15 8.9 12.2 8.9 12.2 8.85 12.25 8.85 12.25 8.8 12.25 8.75 12.3 8.75 12.3 8.7 12.3 8.65 12.35 8.6 12.35 8.55 12.35 8.5 12.35 8.45 12.4 8.4 12.4 8.35 12.4 8.25 12.4 8.2 12.4 8.15 12.4 8.1 12.4 8.0 12.4 L7.25 12.4 7.25 8.7 8.15 8.7 Q8.35 8.7 8.55 8.7 8.75 8.75 8.9 8.75 9.1 8.8 9.25 8.85 9.4 8.9 9.55 8.95 9.65 9.05 9.8 9.1 9.9 9.2 10.0 9.3 10.1 9.4 10.2 9.5 10.3 9.6 10.35 9.75 10.4 9.8 10.4 9.85 10.45 9.9 10.5 9.95 10.5 10.0 10.55 10.05 10.6 10.1 10.6 10.1 10.65 10.15 10.7 10.2 10.7 10.2 10.75 10.25 10.8 10.3 10.85 10.3 10.85 10.3 10.9 10.35 10.95 10.35 11.0 10.4 11.0 10.4 11.05 10.4 11.1 10.4 11.1 10.4 11.15 10.4 11.2 10.4 11.2 10.4 11.25 10.4 11.25 10.35 11.3 10.35 11.3 10.35 11.35 10.3 11.35 10.3 11.4 10.25 11.4 10.25 11.4 10.15 11.4 10.0 11.4 9.9 11.4 9.85 11.4 9.8 11.4 9.75 11.4 9.7 11.35 9.65 11.35 9.55 11.3 9.5 11.3 9.4 11.25 9.3 11.25 9.15 11.2 9.05 11.15 8.95 11.1 8.8 11.05 8.65 11.0 8.5 10.95 8.35 10.9 8.2 10.8 8.05 10.75 7.9 10.7 7.75 10.65 7.65 10.6 7.55 10.55 7.45 10.5 7.35 10.45 7.25 10.4 7.2 10.35 7.15 10.3 7.1 10.25 7.05 10.2 7.0 10.2 7.0 10.15 7.0 10.1 6.95 10.1 6.95 10.05 6.95 10.05 6.95 L10.05 6.95" fill="#ffffff" fill-rule="evenodd" stroke="none"/>
  </g>
</svg>
