<?xml version="1.0" encoding="UTF-8" standalone="no"?>
<svg xmlns:ffdec="https://www.free-decompiler.com/flash" xmlns:xlink="http://www.w3.org/1999/xlink" ffdec:objectType="shape" height="26.0px" width="52.95px" xmlns="http://www.w3.org/2000/svg">
  <g transform="matrix(1.0, 0.0, 0.0, 1.0, 0.0, 0.0)">
    <path d="M52.4 2.45 Q52.4 2.5 52.4 2.5 52.4 2.55 52.4 2.55 52.4 2.55 52.4 2.6 L52.4 4.05 51.8 3.8 52.4 4.5 52.4 5.25 51.85 5.25 52.4 6.45 52.4 7.1 52.2 8.15 52.4 7.8 52.4 9.55 51.8 9.85 52.1 10.05 52.65 9.8 52.65 8.05 52.45 8.4 52.65 7.35 52.65 6.7 52.1 5.5 52.65 5.5 52.65 4.75 52.0 4.05 52.65 4.3 52.65 2.85 Q52.65 2.85 52.65 2.8 52.65 2.7 52.65 2.65 52.65 2.55 52.6 2.55 52.6 2.5 52.55 2.5 52.5 2.5 52.4 2.45 L52.4 2.45 M52.4 10.4 L52.4 22.5 52.4 23.15 Q52.4 23.4 52.4 23.4 52.4 23.5 52.3 23.5 52.3 23.5 52.05 23.5 L51.4 23.5 50.75 23.5 49.9 23.5 49.9 23.75 51.0 23.75 51.65 23.75 52.3 23.75 Q52.55 23.75 52.55 23.75 52.6 23.75 52.65 23.65 52.65 23.65 52.65 23.4 L52.65 22.75 52.65 10.55 52.4 10.4 M49.6 22.75 L48.85 23.5 30.75 23.5 29.9 23.05 29.85 23.5 28.8 23.5 28.5 23.5 27.4 23.4 26.7 23.5 25.5 23.5 25.35 23.3 24.85 23.55 7.7 23.5 6.9 23.25 6.45 23.5 5.55 23.5 5.25 23.35 4.5 23.5 3.85 23.5 3.2 23.5 2.6 23.5 2.0 23.45 1.3 23.5 0.9 23.5 Q0.9 23.55 0.9 23.6 0.85 23.65 0.85 23.7 0.85 23.7 0.85 23.75 0.85 23.75 0.9 23.75 0.9 23.75 0.9 23.75 L1.55 23.75 2.2 23.7 2.8 23.75 3.45 23.75 4.1 23.75 4.75 23.75 5.5 23.6 5.8 23.75 6.65 23.75 23.75 23.75 24.55 23.75 25.1 23.8 25.6 23.55 25.7 23.75 26.95 23.75 27.65 23.65 28.75 23.75 29.05 23.75 30.05 23.75 30.15 23.3 30.95 23.75 49.1 23.75 49.65 23.2 49.6 22.75" fill="#ffffff" fill-rule="evenodd" stroke="none"/>
    <path d="M0.65 2.2 L4.0 2.2 4.25 2.65 4.55 2.4 5.8 2.2 19.55 2.2 19.7 2.7 20.15 2.2 21.45 2.2 40.9 2.2 41.4 2.65 41.6 2.2 42.25 2.2 52.05 2.2 Q52.25 2.2 52.3 2.25 52.4 2.25 52.4 2.35 52.4 2.4 52.4 2.55 52.4 2.55 52.4 2.6 L52.4 4.05 51.75 3.8 52.4 4.5 52.4 5.25 51.85 5.25 52.4 6.45 52.4 7.1 52.2 8.15 52.4 7.8 52.4 9.55 51.75 9.85 52.4 10.3 52.4 22.5 52.4 23.15 Q52.4 23.4 52.4 23.4 52.4 23.5 52.3 23.5 52.3 23.5 52.05 23.5 L51.4 23.5 50.75 23.5 49.65 23.5 49.6 22.75 48.85 23.5 30.75 23.5 29.9 23.05 29.85 23.5 28.8 23.5 28.5 23.5 27.4 23.4 26.7 23.5 25.5 23.5 25.35 23.3 24.85 23.55 7.7 23.5 6.9 23.25 6.45 23.5 5.55 23.5 5.25 23.35 4.5 23.5 3.85 23.5 3.2 23.5 2.6 23.5 2.0 23.45 1.3 23.5 0.65 23.5 Q0.65 23.5 0.65 23.5 0.65 23.5 0.6 23.5 0.4 23.5 0.4 23.5 0.3 23.5 0.3 23.45 0.3 23.4 0.3 23.2 0.3 23.2 0.3 23.2 0.3 23.2 0.3 23.2 0.3 23.2 0.3 23.2 0.3 23.15 0.3 23.15 L0.3 17.7 1.1 17.5 0.3 16.75 0.3 16.1 0.3 15.45 0.3 14.45 0.7 14.15 0.3 13.9 0.3 10.65 0.65 10.45 0.3 9.9 0.3 9.0 0.3 8.35 0.3 7.7 0.75 7.2 0.3 6.85 0.3 2.6 Q0.3 2.55 0.3 2.55 0.3 2.4 0.3 2.35 0.35 2.25 0.4 2.25 0.45 2.2 0.6 2.2 0.6 2.2 0.6 2.2 0.65 2.2 0.65 2.2 0.65 2.2 0.65 2.2 0.65 2.2 0.65 2.2 L0.65 2.2" fill="#000000" fill-rule="evenodd" stroke="none"/>
  </g>
</svg>
