<?xml version="1.0" encoding="UTF-8" standalone="no"?>
<svg xmlns:ffdec="https://www.free-decompiler.com/flash" xmlns:xlink="http://www.w3.org/1999/xlink" ffdec:objectType="shape" height="26.0px" width="52.95px" xmlns="http://www.w3.org/2000/svg">
  <g transform="matrix(1.0, 0.0, 0.0, 1.0, 0.0, 0.0)">
    <path d="M29.75 5.8 Q29.7 5.8 29.65 5.8 29.6 5.8 29.55 5.85 29.45 5.85 29.35 5.9 29.3 5.95 29.15 6.0 29.05 6.05 28.95 6.1 28.8 6.2 28.65 6.25 28.5 6.35 28.3 6.4 28.15 6.5 27.95 6.6 27.75 6.7 27.6 6.8 27.45 6.9 27.3 7.0 27.15 7.1 27.05 7.2 26.95 7.3 26.85 7.35 26.75 7.45 26.7 7.5 26.6 7.6 26.55 7.65 26.5 7.7 26.5 7.75 26.45 7.8 26.45 7.9 26.45 7.95 26.45 8.0 26.5 8.05 26.5 8.05 26.5 8.1 26.55 8.15 26.55 8.15 26.6 8.2 26.6 8.2 26.6 8.2 26.65 8.2 26.65 8.2 26.7 8.2 26.7 8.25 26.7 8.25 26.75 8.25 26.75 8.25 26.8 8.25 26.8 8.25 26.85 8.25 26.9 8.25 26.9 8.25 26.95 8.25 27.0 8.25 L27.5 8.25 27.5 18.2 26.85 18.5 Q26.8 18.55 26.7 18.6 26.65 18.6 26.6 18.65 26.55 18.7 26.5 18.75 26.45 18.75 26.4 18.8 26.4 18.85 26.35 18.85 26.35 18.9 26.3 18.9 26.3 18.95 26.3 18.95 26.3 19.0 26.3 19.0 26.3 19.05 26.3 19.1 26.35 19.1 26.4 19.15 26.45 19.2 26.5 19.2 26.6 19.25 26.7 19.25 26.8 19.3 26.95 19.3 27.05 19.3 27.25 19.35 27.4 19.35 27.55 19.35 27.75 19.35 27.95 19.35 29.65 19.35 30.0 19.3 30.05 19.3 30.1 19.25 30.1 19.25 30.15 19.25 30.2 19.2 30.2 19.2 30.25 19.2 30.25 19.15 30.3 19.1 30.3 19.1 30.35 19.05 30.35 19.05 30.35 19.0 30.35 18.95 30.35 18.9 30.35 18.85 30.35 18.8 30.35 18.75 30.35 18.75 30.3 18.7 30.3 18.7 30.25 18.65 30.2 18.65 30.15 18.65 30.15 18.6 30.05 18.6 30.0 18.6 30.0 18.6 29.95 18.6 29.9 18.6 29.9 18.6 29.85 18.6 29.8 18.55 29.8 18.55 29.75 18.55 29.75 18.5 29.7 18.5 29.65 18.45 29.65 18.45 29.6 18.4 29.55 18.4 29.55 18.35 29.5 18.3 29.5 18.25 29.45 18.25 29.45 18.15 29.4 18.1 29.4 18.05 29.35 18.0 29.35 17.9 29.3 17.8 29.3 17.75 29.3 17.65 29.25 17.55 29.25 17.45 29.25 17.35 29.25 17.2 29.2 17.1 29.15 15.8 29.15 12.6 29.15 8.9 29.2 8.2 29.2 8.1 29.25 8.0 29.25 7.9 29.25 7.8 29.3 7.7 29.3 7.6 29.3 7.5 29.35 7.45 29.35 7.35 29.4 7.3 29.45 7.2 29.45 7.15 29.5 7.1 29.55 7.05 29.55 7.0 29.6 6.95 29.65 6.9 29.7 6.85 29.7 6.8 29.75 6.75 29.8 6.7 29.8 6.65 29.85 6.6 29.85 6.55 29.9 6.5 29.9 6.45 29.95 6.4 29.95 6.35 29.95 6.3 29.95 6.25 30.0 6.2 30.0 6.15 30.0 6.1 30.0 6.05 30.0 6.0 30.0 6.0 30.0 5.95 30.0 5.95 29.95 5.9 29.95 5.9 29.95 5.85 29.9 5.85 29.9 5.8 29.85 5.8 29.85 5.8 29.8 5.8 29.8 5.8 29.75 5.8 L29.75 5.8 M43.05 5.8 Q43.0 5.8 42.95 5.8 42.9 5.8 42.85 5.85 42.75 5.85 42.7 5.9 42.6 5.95 42.45 6.0 42.35 6.05 42.25 6.1 42.1 6.2 41.95 6.25 41.8 6.35 41.65 6.4 41.45 6.5 41.3 6.6 41.1 6.7 40.95 6.8 40.8 6.9 40.65 7.0 40.5 7.1 40.4 7.2 40.25 7.25 40.15 7.35 40.05 7.4 40.0 7.5 39.95 7.55 39.9 7.6 39.85 7.7 39.8 7.75 39.8 7.8 39.8 7.85 39.8 7.9 39.8 7.95 39.8 8.0 39.8 8.05 39.85 8.05 39.85 8.1 39.85 8.1 39.9 8.15 39.9 8.15 39.95 8.2 40.0 8.2 40.0 8.2 40.05 8.25 40.1 8.25 40.15 8.25 40.2 8.25 40.25 8.25 40.3 8.25 L40.85 8.25 40.85 18.2 40.2 18.5 Q40.1 18.55 40.05 18.6 40.0 18.6 39.95 18.65 39.9 18.7 39.85 18.7 39.8 18.75 39.75 18.8 39.7 18.8 39.7 18.85 39.65 18.85 39.65 18.9 39.6 18.95 39.6 18.95 39.6 19.0 39.6 19.0 39.6 19.05 39.65 19.1 39.65 19.1 39.7 19.15 39.75 19.2 39.85 19.2 39.9 19.25 40.0 19.25 40.15 19.3 40.25 19.3 40.4 19.3 40.55 19.35 40.7 19.35 40.9 19.35 41.05 19.35 41.25 19.35 43.0 19.35 43.3 19.3 43.35 19.3 43.4 19.25 43.45 19.25 43.45 19.25 43.5 19.2 43.55 19.2 43.55 19.2 43.6 19.15 43.6 19.15 43.65 19.1 43.65 19.1 43.65 19.05 43.7 19.05 43.7 19.0 43.7 18.95 43.7 18.95 43.7 18.9 43.7 18.9 43.7 18.85 43.7 18.8 43.7 18.8 43.7 18.75 43.65 18.75 43.65 18.7 43.65 18.7 43.6 18.65 43.6 18.65 43.55 18.65 43.55 18.65 43.5 18.65 43.5 18.6 43.45 18.6 43.35 18.6 43.25 18.6 43.1 18.55 43.05 18.5 42.95 18.45 42.85 18.4 42.8 18.3 42.75 18.2 42.7 18.1 42.65 18.0 42.6 17.85 42.55 17.7 42.55 17.55 42.5 17.4 42.5 17.2 42.5 17.0 42.5 16.0 42.55 16.0 42.6 16.0 43.0 16.55 43.4 17.15 44.2 17.95 44.3 18.05 44.4 18.15 44.5 18.25 44.55 18.35 44.65 18.45 44.75 18.55 44.85 18.65 44.9 18.7 45.0 18.8 45.05 18.85 45.15 18.95 45.2 19.0 45.3 19.05 45.35 19.1 45.4 19.15 45.5 19.2 45.55 19.25 45.6 19.3 45.65 19.3 45.75 19.35 45.8 19.4 45.85 19.4 45.9 19.45 46.0 19.45 46.05 19.5 46.1 19.5 46.15 19.5 46.25 19.55 46.3 19.55 46.35 19.55 46.45 19.55 46.5 19.55 46.55 19.55 46.65 19.55 46.7 19.55 46.75 19.5 46.85 19.5 46.9 19.5 46.95 19.45 47.05 19.45 47.1 19.4 47.15 19.35 47.25 19.35 47.3 19.3 47.35 19.25 47.45 19.2 47.5 19.15 47.55 19.1 47.6 19.05 47.7 19.0 47.75 18.9 47.8 18.85 47.85 18.8 47.85 18.75 47.9 18.7 47.95 18.65 48.0 18.6 48.0 18.6 48.05 18.55 48.05 18.5 48.05 18.45 48.05 18.4 48.1 18.4 48.1 18.35 48.1 18.3 48.1 18.25 48.05 18.25 48.05 18.2 48.05 18.15 48.0 18.15 47.95 18.1 47.95 18.1 47.9 18.05 47.85 18.05 47.8 18.05 47.75 18.0 47.7 18.0 47.6 18.0 47.55 18.0 47.5 18.0 47.4 18.0 47.35 18.0 47.25 18.0 47.2 18.0 47.1 18.0 47.05 18.0 47.0 17.95 46.95 17.95 46.9 17.95 46.85 17.95 46.75 17.95 46.75 17.9 46.7 17.9 46.65 17.9 46.6 17.85 46.55 17.85 46.3 17.75 45.65 17.05 45.6 17.0 45.5 16.9 45.45 16.85 45.35 16.75 45.3 16.65 45.25 16.6 45.15 16.5 45.1 16.45 45.05 16.35 44.95 16.25 44.9 16.2 44.85 16.1 44.8 16.05 44.7 15.95 44.65 15.85 44.6 15.8 L44.15 15.2 45.05 14.45 Q45.2 14.3 45.3 14.15 45.45 14.05 45.55 13.9 45.65 13.8 45.8 13.7 45.9 13.6 45.95 13.5 46.05 13.45 46.15 13.35 46.2 13.3 46.25 13.25 46.35 13.2 46.4 13.2 46.45 13.15 46.45 13.15 46.55 13.1 46.65 13.05 46.7 13.05 46.8 13.0 46.85 12.95 46.95 12.9 47.0 12.85 47.05 12.8 47.1 12.7 47.1 12.65 47.15 12.6 47.2 12.55 47.2 12.5 47.2 12.4 47.25 12.35 47.25 12.25 47.25 12.2 47.25 12.15 47.2 12.1 47.2 12.1 47.15 12.05 47.15 12.0 47.1 12.0 47.05 11.95 47.05 11.95 47.0 11.9 46.95 11.9 46.9 11.9 46.85 11.9 46.8 11.9 46.7 11.85 46.65 11.85 45.55 11.8 45.05 11.8 44.8 11.8 44.6 11.8 44.45 11.8 44.4 11.85 44.35 11.85 44.35 11.85 44.3 11.9 44.3 11.9 44.25 11.9 44.25 11.95 44.2 11.95 44.2 12.0 44.2 12.0 44.2 12.05 44.15 12.1 44.15 12.1 44.15 12.15 44.15 12.2 44.15 12.25 44.15 12.3 44.15 12.35 44.15 12.35 44.15 12.4 44.15 12.45 44.15 12.45 44.2 12.5 44.2 12.5 44.2 12.55 44.25 12.55 44.25 12.55 44.3 12.6 44.3 12.6 44.35 12.6 44.35 12.6 44.4 12.6 44.45 12.6 44.5 12.6 44.55 12.6 44.6 12.6 44.6 12.65 44.65 12.65 44.7 12.65 44.7 12.65 44.75 12.7 44.75 12.7 44.75 12.7 44.8 12.75 44.8 12.75 44.8 12.8 44.8 12.8 44.8 12.85 44.8 12.85 44.8 12.9 44.8 12.95 44.8 13.05 44.75 13.1 44.7 13.15 44.7 13.25 44.65 13.3 44.55 13.4 44.5 13.5 44.45 13.6 44.35 13.7 44.25 13.8 44.15 13.9 44.05 14.0 43.95 14.1 43.8 14.25 L42.6 15.35 42.55 11.45 Q42.5 10.55 42.5 9.3 42.5 9.2 42.5 9.1 42.5 9.0 42.5 8.9 42.5 8.8 42.5 8.7 42.5 8.65 42.5 8.55 42.5 8.45 42.5 8.4 42.55 8.3 42.55 8.2 42.55 8.15 42.55 8.05 42.55 8.0 42.55 7.95 42.55 7.9 42.55 7.8 42.6 7.75 42.6 7.7 42.6 7.6 42.65 7.55 42.65 7.5 42.65 7.45 42.7 7.35 42.7 7.3 42.75 7.25 42.8 7.2 42.8 7.1 42.85 7.05 42.9 7.0 42.9 6.95 42.95 6.9 43.0 6.85 43.05 6.8 43.05 6.75 43.1 6.7 43.15 6.65 43.15 6.6 43.2 6.55 43.2 6.5 43.2 6.45 43.25 6.4 43.25 6.35 43.25 6.3 43.3 6.25 43.3 6.2 43.3 6.15 43.3 6.1 43.3 6.05 43.3 6.0 43.3 6.0 43.3 5.95 43.3 5.95 43.25 5.9 43.25 5.9 43.25 5.85 43.2 5.85 43.2 5.8 43.15 5.8 43.15 5.8 43.1 5.8 43.1 5.8 43.05 5.8 L43.05 5.8 M10.45 6.75 Q10.4 6.75 10.35 6.75 10.35 6.75 10.3 6.75 10.25 6.8 10.25 6.8 10.2 6.85 10.2 6.9 10.2 6.9 10.15 6.95 10.15 6.95 10.1 6.95 10.1 7.0 10.1 7.0 10.1 7.05 10.05 7.05 10.05 7.1 10.05 7.15 10.05 7.15 10.05 7.2 10.05 7.2 10.05 7.25 10.05 7.3 10.05 7.35 10.05 7.45 10.05 7.5 10.0 7.6 10.0 7.6 10.0 7.65 9.95 7.65 9.95 7.65 9.9 7.65 9.85 7.65 9.8 7.65 9.8 7.65 9.7 7.6 9.65 7.6 9.55 7.55 9.5 7.55 9.45 7.5 9.45 7.5 9.4 7.5 9.35 7.45 9.25 7.45 9.2 7.45 9.15 7.45 9.05 7.4 9.0 7.4 8.9 7.4 8.8 7.4 8.75 7.4 8.65 7.4 8.55 7.4 8.45 7.4 8.35 7.4 8.25 7.4 8.15 7.4 8.05 7.4 7.95 7.4 7.9 7.4 7.8 7.45 7.7 7.45 7.65 7.45 7.55 7.45 7.5 7.5 7.45 7.5 7.35 7.5 7.3 7.55 7.25 7.55 7.2 7.55 7.15 7.55 7.1 7.6 7.05 7.6 6.95 7.65 6.9 7.65 6.85 7.7 6.8 7.75 6.75 7.75 6.7 7.8 6.65 7.85 6.6 7.85 6.55 7.9 6.5 7.95 6.45 8.0 6.45 8.0 6.4 8.05 6.3 8.15 6.15 8.3 6.05 8.4 5.95 8.55 5.9 8.65 5.8 8.8 5.75 8.9 5.65 9.05 5.6 9.15 5.55 9.3 5.5 9.4 5.5 9.55 5.45 9.7 5.45 9.8 5.45 9.95 5.45 10.1 5.45 10.25 5.45 10.35 5.45 10.5 5.5 10.6 5.5 10.75 5.5 10.85 5.55 10.95 5.6 11.1 5.6 11.2 5.65 11.3 5.7 11.4 5.75 11.5 5.8 11.55 5.85 11.65 5.9 11.75 6.0 11.8 6.05 11.9 6.15 11.95 6.25 12.05 6.35 12.15 6.45 12.2 6.55 12.3 6.7 12.4 6.85 12.5 7.0 12.6 7.15 12.7 7.3 12.8 7.5 12.95 7.7 13.05 7.9 13.2 8.1 13.3 8.3 13.4 8.5 13.55 8.75 13.65 8.95 13.8 9.1 13.9 9.3 14.05 9.45 14.15 9.65 14.3 9.75 14.4 9.9 14.5 10.05 14.65 10.15 14.75 10.25 14.85 10.35 15.0 10.45 15.1 10.55 15.2 10.6 15.3 10.65 15.35 10.65 15.4 10.7 15.45 10.7 15.5 10.75 15.55 10.75 15.65 10.75 15.7 10.8 15.75 10.8 15.8 10.8 15.85 10.8 15.9 10.8 16.0 10.85 16.05 10.85 16.1 10.85 16.15 10.85 16.2 10.85 16.25 10.85 16.35 10.85 16.4 10.8 16.45 10.8 16.55 10.8 16.6 10.8 16.65 10.75 16.75 10.75 16.8 10.7 16.9 10.7 16.95 10.65 17.05 10.65 17.1 10.6 17.15 10.55 17.25 10.55 17.3 10.5 17.4 10.4 17.5 10.35 17.6 10.25 17.7 10.2 17.8 10.1 17.85 10.0 17.95 9.9 18.0 9.8 18.1 9.7 18.15 9.55 18.2 9.45 18.25 9.3 18.3 9.2 18.35 9.05 18.35 8.9 18.4 8.85 18.4 8.85 18.4 8.8 18.4 8.75 18.4 8.75 18.45 8.7 18.45 8.65 18.45 8.65 18.45 8.6 18.45 8.55 18.45 8.55 18.45 8.5 18.45 8.5 18.45 8.45 18.45 8.4 18.45 8.4 18.45 8.3 18.45 8.2 18.45 8.1 18.45 8.0 18.4 7.9 18.4 7.85 18.4 7.75 18.35 7.65 18.35 7.6 18.3 7.5 18.25 7.45 18.2 7.35 18.15 7.3 18.1 7.25 18.05 7.15 18.0 7.1 17.95 7.05 17.85 7.0 17.8 6.95 17.7 6.9 17.65 6.9 17.6 6.9 17.6 6.9 17.55 6.9 17.5 6.95 17.45 7.0 17.4 7.05 17.35 7.15 17.3 7.2 17.25 7.2 17.25 7.25 17.2 7.25 17.15 7.25 17.15 7.3 17.1 7.3 17.05 7.3 17.0 7.35 16.95 7.35 16.9 7.35 16.85 7.35 16.8 7.35 16.75 7.4 16.7 7.4 16.65 7.4 16.6 7.4 16.55 7.4 16.5 7.4 16.45 7.35 16.4 7.35 16.35 7.35 16.3 7.3 16.25 7.3 16.2 7.25 16.15 7.25 16.1 7.2 16.05 7.2 16.0 7.15 15.95 7.1 15.9 7.05 15.85 7.05 15.8 7.0 15.75 6.95 15.7 6.9 15.7 6.85 15.65 6.8 15.6 6.75 15.6 6.7 15.55 6.65 15.55 6.6 15.55 6.55 15.5 6.5 15.5 6.5 15.5 6.45 15.5 6.4 15.5 6.35 15.45 6.3 15.45 6.25 15.45 6.2 15.45 6.15 15.45 6.15 15.5 6.1 15.5 6.05 15.5 6.0 15.5 5.95 15.5 5.9 15.55 5.9 15.55 5.85 15.55 5.8 15.55 5.75 15.6 5.7 15.6 5.7 15.6 5.65 15.65 5.55 15.7 5.45 15.75 5.4 15.8 5.3 15.9 5.25 15.95 5.15 16.05 5.1 16.1 5.05 16.2 5.0 16.3 5.0 16.4 4.95 16.5 4.9 16.6 4.9 16.7 4.9 16.8 4.85 16.9 4.85 17.05 4.85 17.2 4.85 17.3 4.9 17.45 4.95 17.55 4.95 17.65 5.0 17.8 5.05 17.9 5.1 18.0 5.2 18.1 5.25 18.25 5.35 18.35 5.45 18.45 5.55 18.55 5.65 18.65 5.75 18.7 5.85 18.8 5.95 18.9 6.1 18.95 6.25 19.05 6.4 19.1 6.5 19.2 6.65 19.25 6.8 19.3 7.0 19.35 7.15 19.4 7.3 19.45 7.5 19.45 7.65 19.5 7.85 19.5 8.0 19.5 8.2 19.55 8.4 19.55 L8.45 19.55 Q8.65 19.55 8.8 19.55 9.0 19.5 9.15 19.5 9.35 19.45 9.5 19.4 9.7 19.4 9.85 19.35 10.0 19.3 10.15 19.2 10.3 19.15 10.45 19.1 10.6 19.0 10.75 18.9 10.9 18.85 11.0 18.75 11.15 18.65 11.25 18.55 11.4 18.4 11.5 18.3 11.65 18.15 11.75 18.05 11.85 17.9 11.95 17.75 12.0 17.6 12.1 17.45 12.2 17.3 12.25 17.15 12.3 17.0 12.35 16.8 12.45 16.65 12.5 16.45 12.5 16.4 12.5 16.35 12.55 16.25 12.55 16.2 12.55 16.15 12.55 16.1 12.55 16.05 12.55 16.0 12.6 15.9 12.6 15.85 12.6 15.8 12.6 15.75 12.6 15.7 12.6 15.65 12.6 15.55 12.6 15.5 12.6 15.25 12.55 14.95 12.5 14.7 12.4 14.45 12.35 14.2 12.2 13.95 12.05 13.7 11.85 13.5 11.7 13.25 11.45 13.0 11.25 12.8 10.95 12.55 10.7 12.35 10.35 12.15 10.05 11.9 9.7 11.7 7.95 10.75 7.55 10.4 7.5 10.35 7.45 10.3 7.45 10.25 7.4 10.2 7.35 10.15 7.35 10.1 7.3 10.05 7.3 10.0 7.25 9.95 7.25 9.95 7.25 9.9 7.2 9.85 7.2 9.8 7.2 9.75 7.2 9.7 7.2 9.7 7.2 9.65 7.2 9.6 7.2 9.55 7.2 9.5 7.2 9.45 7.2 9.45 7.2 9.4 7.2 9.35 7.25 9.3 7.25 9.25 7.25 9.25 7.25 9.2 7.25 9.15 7.3 9.15 7.3 9.1 7.3 9.05 7.35 8.95 7.4 8.9 7.45 8.85 7.5 8.75 7.55 8.7 7.65 8.65 7.7 8.6 7.8 8.55 7.85 8.5 7.95 8.5 8.05 8.45 8.1 8.45 8.2 8.4 8.3 8.4 8.45 8.4 8.55 8.4 8.65 8.4 8.7 8.4 8.8 8.4 8.85 8.4 8.95 8.45 9.0 8.45 9.1 8.45 9.15 8.5 9.25 8.55 9.3 8.55 9.4 8.6 9.45 8.65 9.55 8.65 9.6 8.7 9.7 8.75 9.75 8.8 9.85 8.85 9.9 8.9 10.0 8.95 10.05 9.0 10.1 9.1 10.2 9.15 10.25 9.2 10.3 9.25 10.35 9.35 10.4 9.4 10.5 9.45 10.55 9.55 10.6 9.6 10.6 9.7 10.65 9.75 10.7 9.8 10.75 9.9 10.8 9.95 10.85 10.0 10.9 10.1 10.9 10.15 10.95 10.2 11.0 10.25 11.05 10.3 11.1 10.35 11.1 10.4 11.15 10.45 11.2 10.45 11.25 10.5 11.25 10.5 11.3 10.55 11.35 10.55 11.4 10.55 11.4 10.6 11.45 10.6 11.5 10.6 11.5 10.6 11.55 10.6 11.6 10.6 11.6 10.6 11.65 10.55 11.65 10.55 11.7 10.55 11.7 10.5 11.7 10.45 11.75 10.45 11.75 10.4 11.75 10.35 L11.75 10.1 Q11.8 9.85 11.35 8.3 11.3 8.1 11.25 7.95 11.15 7.75 11.1 7.6 11.05 7.45 11.0 7.35 10.95 7.2 10.9 7.15 10.85 7.05 10.75 6.95 10.7 6.9 10.65 6.85 10.6 6.8 10.55 6.75 10.5 6.75 10.45 6.75 L10.45 6.75 M33.4 7.45 Q32.3 7.45 31.85 7.5 31.8 7.5 31.75 7.5 31.7 7.55 31.65 7.55 31.6 7.55 31.6 7.55 31.55 7.6 31.5 7.6 31.5 7.6 31.45 7.65 31.45 7.65 31.4 7.65 31.4 7.7 31.4 7.7 31.35 7.75 31.35 7.75 31.35 7.8 31.35 7.85 31.3 7.9 31.3 7.9 31.3 7.95 31.3 8.0 31.3 8.05 31.3 8.05 31.3 8.1 31.3 8.1 31.35 8.15 31.4 8.2 31.45 8.2 31.5 8.25 32.1 8.55 32.1 8.55 L32.6 8.8 32.6 18.1 31.95 18.4 Q31.85 18.45 31.8 18.45 31.75 18.5 31.65 18.55 31.6 18.55 31.55 18.6 31.5 18.65 31.45 18.65 31.45 18.7 31.4 18.75 31.35 18.75 31.35 18.8 31.35 18.85 31.3 18.9 31.3 18.9 31.3 18.95 31.3 19.0 31.3 19.0 31.3 19.05 31.35 19.05 31.35 19.1 31.4 19.1 31.4 19.15 31.45 19.15 31.45 19.2 31.5 19.2 31.55 19.2 31.6 19.25 31.65 19.25 31.7 19.25 31.75 19.3 31.8 19.3 32.3 19.4 34.4 19.4 36.4 19.45 37.15 19.5 37.25 19.5 37.3 19.5 37.4 19.55 37.45 19.55 37.5 19.55 37.55 19.55 37.6 19.6 37.65 19.6 37.7 19.6 37.7 19.65 37.75 19.65 37.75 19.7 37.8 19.7 37.8 19.7 37.8 19.75 37.8 19.75 37.8 19.8 37.8 19.85 37.8 19.9 37.85 19.95 37.85 20.0 37.85 20.0 37.9 20.05 37.9 20.1 37.95 20.1 38.0 20.15 38.0 20.15 38.05 20.2 38.1 20.2 38.15 20.2 38.2 20.2 38.25 20.2 38.3 20.2 38.3 20.2 38.35 20.2 38.35 20.2 38.4 20.15 38.45 20.15 38.45 20.15 38.5 20.1 38.55 20.05 38.6 20.05 38.65 20.05 38.65 20.0 38.7 19.95 38.75 19.85 38.75 19.8 38.8 19.7 38.85 19.6 38.9 19.5 38.95 19.4 39.0 19.25 39.05 19.15 39.1 19.0 39.15 18.8 39.2 18.65 39.25 18.45 39.3 18.25 39.8 16.7 39.8 16.45 39.8 16.15 39.8 16.15 39.8 16.1 39.75 16.1 39.75 16.05 39.7 16.05 39.7 16.0 39.65 16.0 39.65 15.95 39.6 15.95 39.55 15.95 39.55 15.95 39.5 15.95 39.5 15.95 39.45 15.95 39.4 15.95 39.4 15.95 39.35 15.95 39.3 15.95 39.3 16.0 39.25 16.0 39.2 16.0 39.2 16.05 39.15 16.05 39.1 16.1 39.1 16.15 39.05 16.15 39.0 16.2 39.0 16.25 38.95 16.3 38.9 16.35 38.9 16.4 38.85 16.45 38.8 16.5 38.65 16.75 38.5 16.95 38.35 17.15 38.15 17.3 38.0 17.5 37.85 17.65 37.65 17.8 37.45 17.9 37.25 18.05 37.05 18.15 36.85 18.2 36.65 18.25 36.45 18.35 36.25 18.35 36.0 18.4 35.8 18.4 35.75 18.4 35.7 18.4 35.65 18.4 35.65 18.4 35.6 18.4 35.55 18.35 35.5 18.35 35.5 18.35 35.45 18.35 35.4 18.35 35.4 18.35 35.35 18.3 35.35 18.3 35.3 18.3 35.3 18.25 35.25 18.25 35.25 18.2 35.2 18.2 35.2 18.15 35.15 18.15 35.1 18.1 35.1 18.05 35.05 18.0 35.0 17.95 35.0 17.95 34.95 17.9 34.9 17.85 34.85 17.8 34.85 17.75 34.8 17.7 34.75 17.6 34.75 17.55 34.7 17.5 34.7 17.45 34.65 17.4 34.65 17.35 34.6 17.3 34.6 17.2 34.6 17.15 34.6 17.1 34.55 17.05 34.55 16.95 34.55 16.95 34.55 16.3 34.55 15.85 34.55 15.45 34.5 14.45 34.55 13.05 L34.6 8.8 35.3 8.5 Q35.4 8.45 35.45 8.45 35.5 8.4 35.6 8.35 35.65 8.3 35.7 8.25 35.75 8.25 35.8 8.2 35.85 8.15 35.85 8.1 35.9 8.05 35.9 8.0 35.95 7.95 35.95 7.9 35.95 7.85 35.95 7.8 35.95 7.75 35.95 7.75 35.95 7.7 35.95 7.7 35.9 7.65 35.9 7.65 35.9 7.65 35.85 7.6 35.85 7.6 35.8 7.55 35.75 7.55 35.75 7.55 35.7 7.55 35.65 7.5 35.6 7.5 35.55 7.5 35.2 7.45 33.75 7.45 33.6 7.45 33.4 7.45 L33.4 7.45 M22.35 11.4 Q22.25 11.4 22.15 11.5 22.15 11.5 22.1 11.55 22.05 11.55 21.95 11.6 21.85 11.6 21.75 11.65 21.6 11.65 21.45 11.7 21.25 11.7 21.05 11.75 20.9 11.75 20.8 11.8 20.7 11.8 20.6 11.85 20.5 11.85 20.45 11.9 20.35 11.95 20.3 11.95 20.25 12.0 20.2 12.0 20.15 12.05 20.1 12.1 20.1 12.1 20.05 12.15 20.05 12.2 20.05 12.2 20.05 12.25 20.05 12.25 20.05 12.3 20.05 12.3 20.1 12.35 20.1 12.35 20.1 12.4 20.15 12.45 20.15 12.45 20.2 12.45 20.2 12.5 20.25 12.5 20.3 12.55 20.35 12.55 20.4 12.6 20.4 12.6 20.45 12.65 20.5 12.65 20.55 12.7 20.6 12.75 20.65 12.75 20.7 12.8 20.75 12.8 20.75 12.85 20.8 12.85 20.8 12.9 20.85 12.9 20.85 12.95 20.9 12.95 20.9 13.0 20.9 13.0 20.9 13.05 20.95 13.05 20.95 13.1 21.0 13.15 21.0 13.25 21.0 13.3 21.05 13.4 21.1 14.05 21.15 15.55 L21.2 18.2 20.55 18.5 Q20.5 18.55 20.4 18.6 20.35 18.6 20.3 18.65 20.25 18.7 20.2 18.75 20.15 18.75 20.1 18.8 20.05 18.85 20.05 18.85 20.0 18.9 20.0 18.9 20.0 18.95 20.0 18.95 19.95 19.0 19.95 19.0 19.95 19.05 20.0 19.1 20.0 19.1 20.1 19.15 20.15 19.2 20.25 19.2 20.35 19.25 20.5 19.25 20.6 19.3 20.8 19.3 20.95 19.3 21.15 19.35 21.35 19.35 21.55 19.35 21.8 19.35 22.05 19.35 22.3 19.35 22.55 19.35 22.75 19.35 22.95 19.35 23.15 19.3 23.35 19.3 23.5 19.3 23.65 19.3 23.8 19.25 23.9 19.25 24.0 19.25 24.05 19.2 24.15 19.2 24.15 19.15 24.2 19.15 24.2 19.1 24.2 19.1 24.2 19.05 24.2 19.0 24.2 19.0 24.2 18.95 24.15 18.9 24.15 18.9 24.1 18.85 24.0 18.75 23.55 18.55 23.5 18.55 23.45 18.5 23.4 18.5 23.35 18.45 23.3 18.45 23.3 18.4 23.25 18.4 23.2 18.35 23.15 18.35 23.15 18.3 23.1 18.25 23.1 18.25 23.05 18.2 23.05 18.15 23.0 18.1 23.0 18.1 23.0 18.05 22.95 18.0 22.95 17.95 22.9 17.85 22.9 17.8 22.9 17.7 22.85 17.6 22.85 17.5 22.85 17.4 22.85 17.3 22.85 17.2 22.85 17.05 22.85 16.9 22.85 16.75 22.8 16.65 22.8 16.45 22.8 16.3 22.8 16.15 22.85 16.0 22.85 15.85 22.85 15.7 22.9 15.55 22.9 15.4 22.95 15.25 22.95 15.1 23.0 14.95 23.05 14.85 23.1 14.7 23.15 14.55 23.2 14.45 23.25 14.3 23.3 14.2 23.35 14.1 23.4 14.0 23.5 13.85 23.55 13.8 23.6 13.7 23.7 13.6 23.75 13.55 23.85 13.5 23.95 13.4 24.0 13.4 24.1 13.35 24.2 13.3 24.25 13.25 24.35 13.25 24.45 13.25 24.55 13.25 24.6 13.25 24.65 13.25 24.75 13.25 24.8 13.25 24.85 13.3 24.9 13.3 24.95 13.3 24.95 13.35 25.0 13.35 25.05 13.4 25.1 13.45 25.1 13.45 25.15 13.5 25.15 13.55 25.2 13.6 25.2 13.65 25.2 13.7 25.25 13.75 25.25 13.8 25.25 13.85 25.3 13.85 25.35 13.9 25.35 13.95 25.4 13.95 25.45 14.0 25.45 14.0 25.5 14.05 25.55 14.05 25.6 14.05 25.65 14.05 25.7 14.05 25.8 14.05 25.85 14.05 25.9 14.05 25.95 14.05 25.95 14.0 26.0 14.0 26.0 13.95 26.05 13.95 26.05 13.9 26.05 13.85 26.05 13.85 26.1 13.8 26.1 13.75 26.1 13.7 26.1 13.65 26.1 13.6 26.1 13.55 26.1 13.45 26.15 13.4 26.15 13.35 26.15 13.25 26.15 13.15 26.15 13.05 26.15 12.95 26.15 12.85 26.15 12.7 26.15 12.55 26.1 12.45 26.1 12.3 26.05 12.2 26.05 12.1 26.0 12.0 25.95 11.95 25.9 11.85 25.8 11.8 25.75 11.75 25.7 11.7 25.6 11.65 25.5 11.65 25.45 11.6 25.35 11.6 25.25 11.6 25.1 11.65 25.0 11.65 24.9 11.7 24.75 11.7 24.65 11.75 24.55 11.8 24.45 11.85 24.3 11.95 24.2 12.0 24.1 12.05 24.0 12.15 23.85 12.25 23.75 12.35 23.65 12.45 23.55 12.55 L22.8 13.25 22.85 12.35 22.85 12.05 Q22.85 12.0 22.85 11.9 22.85 11.85 22.85 11.8 22.85 11.75 22.85 11.7 22.8 11.65 22.8 11.6 22.8 11.6 22.75 11.55 22.75 11.55 22.75 11.5 22.7 11.5 22.7 11.45 22.65 11.45 22.65 11.45 22.6 11.45 22.5 11.45 22.4 11.4 22.35 11.4 L22.35 11.4 M16.7 11.6 Q16.65 11.6 16.55 11.6 16.5 11.6 16.45 11.65 16.4 11.65 16.3 11.65 16.25 11.65 16.2 11.65 16.1 11.7 16.05 11.7 16.0 11.7 15.9 11.7 15.85 11.75 15.75 11.75 15.7 11.75 15.6 11.8 15.55 11.8 15.45 11.85 15.4 11.9 15.3 11.95 15.25 11.95 15.15 12.0 15.1 12.05 15.0 12.15 14.9 12.2 14.8 12.25 14.75 12.35 14.65 12.45 14.55 12.5 14.45 12.6 14.35 12.7 14.25 12.8 L14.25 12.8 Q14.1 12.95 13.95 13.1 13.85 13.25 13.7 13.45 13.6 13.6 13.5 13.8 13.4 13.95 13.3 14.15 13.25 14.35 13.2 14.55 13.15 14.7 13.1 14.9 13.05 15.1 13.05 15.3 13.0 15.55 13.0 15.75 13.0 15.9 13.0 16.05 13.05 16.2 13.05 16.35 13.1 16.55 13.1 16.7 13.15 16.85 13.2 17.0 13.25 17.15 13.3 17.3 13.4 17.45 13.45 17.55 13.55 17.7 13.6 17.85 13.7 18.0 13.8 18.15 13.9 18.3 14.0 18.4 14.1 18.55 14.25 18.65 14.35 18.75 14.5 18.85 14.6 18.95 14.75 19.05 14.9 19.15 15.05 19.2 15.2 19.3 15.35 19.35 15.55 19.4 15.7 19.45 15.9 19.5 16.05 19.55 16.4 19.6 16.6 19.6 16.7 19.6 16.8 19.6 16.9 19.6 17.0 19.55 17.15 19.55 17.25 19.55 17.35 19.5 17.5 19.45 17.6 19.45 17.7 19.4 17.85 19.35 17.95 19.3 18.1 19.25 18.2 19.2 18.35 19.15 18.5 19.1 18.65 19.05 18.75 18.95 18.85 18.9 19.0 18.85 19.1 18.75 19.15 18.7 19.25 18.65 19.3 18.6 19.4 18.5 19.45 18.45 19.5 18.4 19.5 18.35 19.55 18.25 19.55 18.2 19.6 18.15 19.6 18.1 19.6 18.05 19.6 18.0 19.6 17.95 19.55 17.9 19.55 17.9 19.55 17.85 19.55 17.8 19.5 17.8 19.5 17.75 19.5 17.75 19.45 17.75 19.45 17.7 19.4 17.7 19.4 17.7 19.35 17.7 19.3 17.7 19.25 17.7 19.2 17.7 19.15 17.75 19.1 17.75 19.0 17.75 18.9 17.8 18.85 17.85 18.7 17.9 18.6 17.95 18.5 18.0 17.8 18.25 17.7 18.3 L17.35 18.3 Q17.3 18.3 17.3 18.3 17.25 18.3 17.2 18.3 17.15 18.3 17.1 18.25 17.05 18.25 16.95 18.25 16.9 18.2 16.85 18.2 16.75 18.15 16.6 18.1 16.5 18.05 16.4 18.0 16.25 17.95 16.15 17.85 16.05 17.8 15.95 17.7 15.85 17.65 15.8 17.55 15.7 17.45 15.6 17.35 15.5 17.3 15.45 17.15 15.35 17.05 15.3 16.95 15.25 16.85 15.15 16.7 15.1 16.6 15.05 16.45 15.0 16.35 14.95 16.2 14.9 16.1 14.85 15.95 14.85 15.85 14.8 15.7 14.8 15.6 14.75 15.45 14.75 15.3 14.75 15.15 14.75 15.05 14.75 14.9 14.75 14.75 14.75 14.65 14.75 14.5 14.8 14.4 14.8 14.25 14.8 14.15 14.85 14.05 14.9 13.95 14.9 13.8 14.95 13.75 15.0 13.65 15.05 13.55 15.1 13.45 15.2 13.35 15.25 13.25 15.35 13.2 15.4 13.15 15.5 13.05 15.55 13.0 15.65 12.95 15.7 12.9 15.8 12.85 15.85 12.8 15.95 12.75 16.05 12.75 16.1 12.7 16.2 12.65 16.3 12.65 16.4 12.6 16.5 12.6 16.55 12.6 16.65 12.6 L16.7 12.6 16.75 12.6 Q16.85 12.6 16.95 12.6 17.0 12.6 17.1 12.65 17.2 12.65 17.25 12.7 17.35 12.7 17.4 12.75 17.45 12.75 17.55 12.8 17.6 12.85 17.65 12.9 17.75 12.95 17.8 13.0 17.85 13.1 17.9 13.15 17.95 13.2 18.0 13.3 18.1 13.35 18.15 13.4 18.2 13.45 18.25 13.5 18.3 13.55 18.35 13.6 18.45 13.65 18.5 13.65 18.55 13.7 18.6 13.7 18.65 13.75 18.7 13.75 18.8 13.75 18.85 13.75 L18.85 13.75 Q18.9 13.75 18.95 13.75 19.05 13.75 19.1 13.7 19.15 13.7 19.2 13.65 19.25 13.65 19.25 13.6 19.3 13.55 19.35 13.5 19.4 13.45 19.45 13.4 19.45 13.35 19.5 13.3 19.5 13.25 19.55 13.2 19.55 13.15 19.55 13.05 19.6 13.0 19.6 12.95 19.6 12.9 19.6 12.85 19.55 12.8 19.55 12.75 19.55 12.7 19.5 12.6 19.5 12.55 19.45 12.5 19.4 12.45 19.35 12.4 19.3 12.35 19.25 12.3 19.2 12.25 19.15 12.2 19.1 12.15 19.0 12.1 18.95 12.05 18.85 12.0 18.8 11.95 18.7 11.9 18.65 11.9 18.55 11.85 18.45 11.8 18.35 11.8 18.3 11.75 18.2 11.75 18.05 11.7 17.95 11.7 17.85 11.65 17.75 11.65 17.65 11.65 17.5 11.65 17.3 11.6 16.7 11.6 L16.7 11.6" fill="#ffffff" fill-rule="evenodd" stroke="none"/>
  </g>
</svg>
