<?xml version="1.0" encoding="UTF-8" standalone="no"?>
<svg xmlns:ffdec="https://www.free-decompiler.com/flash" xmlns:xlink="http://www.w3.org/1999/xlink" ffdec:objectType="shape" height="26.0px" width="35.75px" xmlns="http://www.w3.org/2000/svg">
  <g transform="matrix(1.0, 0.0, 0.0, 1.0, 0.0, 0.0)">
    <path d="M15.05 9.3 Q15.05 9.2 15.05 9.1 15.1 9.0 15.1 8.9 15.15 8.85 15.2 8.8 15.2 8.75 15.25 8.7 15.3 8.65 15.35 8.6 15.4 8.6 15.45 8.55 15.45 8.55 15.5 8.55 15.5 8.55 15.5 8.55 L15.5 7.85 12.95 7.85 12.95 8.45 Q13.05 8.5 13.1 8.6 13.2 8.65 13.25 8.75 13.3 8.85 13.35 8.95 13.35 9.0 13.4 9.1 13.4 9.15 13.45 9.25 13.45 9.3 13.45 9.35 13.45 9.4 13.45 9.45 13.45 9.45 13.45 9.45 L13.4 15.5 8.4 8.9 8.4 8.9 7.95 9.15 8.1 9.25 7.6 9.05 7.85 8.85 7.9 8.95 8.15 8.8 8.15 8.7 8.2 8.7 8.35 7.9 8.35 7.85 7.9 7.85 5.8 7.85 5.8 8.45 Q5.9 8.5 5.95 8.55 6.0 8.65 6.05 8.7 6.1 8.8 6.15 8.9 6.2 8.95 6.2 9.05 6.25 9.1 6.25 9.2 6.25 9.25 6.25 9.3 6.3 9.35 6.3 9.35 6.3 9.4 6.3 9.4 L6.3 16.15 Q6.3 16.4 6.25 16.6 6.25 16.75 6.2 16.9 6.15 17.05 6.1 17.15 6.05 17.25 6.0 17.3 6.0 17.35 5.95 17.4 5.9 17.4 5.85 17.45 5.85 17.45 5.8 17.45 5.8 17.45 5.8 17.45 L5.8 18.15 8.4 18.15 8.4 17.45 Q8.3 17.4 8.25 17.35 8.2 17.25 8.1 17.15 8.1 17.1 8.05 16.95 8.0 16.85 8.0 16.75 7.95 16.65 7.95 16.5 7.95 16.4 7.95 16.35 7.95 16.25 7.95 16.2 7.95 16.15 7.95 16.15 L7.95 13.05 7.8 13.1 7.75 13.2 7.7 13.1 7.55 13.1 7.55 13.05 7.6 13.05 7.6 13.0 7.65 12.95 7.8 12.95 7.8 12.85 7.95 12.8 7.95 11.0 13.4 18.15 15.5 18.15 15.5 17.45 Q15.4 17.45 15.35 17.4 15.3 17.35 15.25 17.25 15.2 17.15 15.15 17.05 15.1 16.95 15.1 16.8 15.05 16.7 15.05 16.55 15.05 16.45 15.05 16.35 15.0 16.3 15.0 16.2 15.0 16.2 15.0 16.15 L15.0 11.15 15.05 9.3" fill="#f1edf8" fill-rule="evenodd" stroke="none"/>
    <path d="M20.4 13.75 Q20.4 13.75 20.55 13.75 20.7 13.7 20.9 13.7 21.15 13.65 21.45 13.6 21.75 13.5 22.05 13.4 22.35 13.25 22.65 13.05 22.95 12.85 23.15 12.55 23.4 12.25 23.5 11.85 23.65 11.45 23.65 10.95 23.65 10.4 23.5 9.9 23.4 9.5 23.15 9.15 22.9 8.85 22.6 8.6 22.35 8.4 22.0 8.25 21.7 8.1 21.4 8.0 21.15 7.95 20.85 7.9 20.7 7.9 20.5 7.85 20.4 7.85 20.35 7.85 L16.6 7.85 16.6 7.95 16.6 8.5 16.95 8.9 16.95 9.15 17.0 9.2 17.0 10.2 17.1 10.2 17.1 10.4 17.4 10.45 17.75 10.5 17.65 10.6 17.15 10.6 17.1 10.75 17.05 10.95 17.05 16.05 Q17.05 16.05 17.05 16.1 17.05 16.15 17.05 16.2 17.05 16.3 17.05 16.4 17.0 16.5 17.0 16.6 16.95 16.75 16.95 16.85 16.9 16.95 16.85 17.05 16.8 17.2 16.75 17.25 16.65 17.35 16.6 17.4 L16.6 18.15 19.05 18.15 19.05 17.4 Q19.05 17.4 19.05 17.4 19.0 17.35 19.0 17.35 18.95 17.35 18.9 17.3 18.85 17.25 18.85 17.2 18.8 17.1 18.75 17.05 18.7 16.95 18.7 16.85 18.65 16.7 18.65 16.55 18.65 16.4 18.65 16.2 L18.65 12.4 18.5 12.25 18.55 12.2 18.6 12.15 18.6 11.0 18.6 10.9 18.5 10.75 18.55 10.35 18.55 10.25 18.6 10.3 18.6 10.2 18.6 9.3 20.55 9.3 Q20.55 9.3 20.6 9.3 20.7 9.3 20.8 9.3 20.95 9.35 21.05 9.4 21.2 9.45 21.35 9.5 21.5 9.6 21.65 9.7 21.8 9.85 21.9 10.0 22.05 10.15 22.1 10.4 22.2 10.65 22.2 10.95 22.2 10.95 22.2 11.0 22.2 11.1 22.2 11.2 22.15 11.3 22.1 11.4 22.05 11.55 21.95 11.7 21.85 11.85 21.65 11.95 21.45 12.1 21.2 12.2 20.9 12.3 20.55 12.35 20.15 12.4 19.65 12.35 L19.6 12.35 19.6 13.3 20.4 13.75" fill="#f1edf8" fill-rule="evenodd" stroke="none"/>
    <path d="M23.8 9.5 Q23.75 9.65 23.8 9.75 23.85 9.85 23.9 9.95 24.0 10.05 24.1 10.1 24.2 10.15 24.3 10.2 24.4 10.2 24.55 10.25 24.65 10.25 24.75 10.25 24.8 10.25 24.9 10.25 24.9 10.25 24.95 10.25 24.85 10.2 24.8 10.15 24.75 10.1 24.7 10.1 24.7 10.05 24.65 10.0 24.65 9.95 24.6 9.9 24.6 9.85 24.6 9.8 24.65 9.75 24.65 9.7 24.7 9.65 24.75 9.55 24.8 9.5 24.85 9.4 24.9 9.35 24.9 9.35 24.95 9.3 25.0 9.3 25.05 9.25 25.1 9.25 25.15 9.25 25.2 9.2 25.25 9.2 25.35 9.2 25.4 9.2 25.45 9.15 25.55 9.15 25.6 9.15 25.65 9.15 25.75 9.15 L28.1 9.15 28.15 9.05 Q28.0 9.25 27.9 9.45 27.75 9.65 27.65 9.9 27.55 10.1 27.4 10.35 27.3 10.6 27.2 10.85 27.05 11.15 26.95 11.4 26.85 11.7 26.7 12.0 26.6 12.35 26.5 12.7 26.35 13.05 26.25 13.45 26.15 13.7 26.1 14.0 26.0 14.25 25.9 14.55 25.85 14.85 25.75 15.2 25.7 15.5 25.65 15.8 25.6 16.1 25.55 16.4 25.5 16.7 25.45 16.95 25.45 17.2 25.4 17.45 25.4 17.65 25.4 17.8 L25.4 18.1 26.95 18.1 Q26.95 17.85 26.95 17.6 26.95 17.35 27.0 17.05 27.0 16.75 27.05 16.45 27.1 16.15 27.15 15.85 27.2 15.5 27.25 15.2 27.35 14.9 27.4 14.55 27.5 14.25 27.6 13.9 27.65 13.6 27.8 13.25 28.2 12.0 29.35 9.65 29.4 9.55 29.7 9.05 29.85 8.75 29.95 8.65 L29.95 7.9 25.6 7.9 Q25.5 7.9 25.45 7.9 25.35 7.9 25.3 7.9 25.2 7.9 25.15 7.85 25.1 7.85 25.0 7.85 24.95 7.85 24.9 7.85 24.85 7.8 24.8 7.8 24.75 7.8 24.7 7.75 24.65 7.75 24.6 7.75 L24.05 7.75 23.8 9.5" fill="#f1edf8" fill-rule="evenodd" stroke="none"/>
  </g>
</svg>
