<?xml version="1.0" encoding="UTF-8" standalone="no"?>
<svg xmlns:ffdec="https://www.free-decompiler.com/flash" xmlns:xlink="http://www.w3.org/1999/xlink" ffdec:objectType="shape" height="26.0px" width="35.75px" xmlns="http://www.w3.org/2000/svg">
  <g transform="matrix(1.0, 0.0, 0.0, 1.0, 0.0, 0.0)">
    <path d="M14.95 9.25 Q14.95 9.15 14.95 9.05 15.0 8.95 15.0 8.9 15.05 8.8 15.1 8.75 15.15 8.7 15.2 8.65 15.2 8.6 15.25 8.6 15.3 8.55 15.35 8.55 15.35 8.5 15.4 8.5 15.4 8.5 15.4 8.5 L15.4 7.8 12.85 7.8 12.85 8.45 Q12.95 8.5 13.0 8.6 13.1 8.65 13.15 8.75 13.2 8.8 13.2 8.9 13.25 9.0 13.3 9.05 13.3 9.15 13.3 9.2 13.35 9.25 13.35 9.35 13.35 9.35 13.35 9.4 13.35 9.4 13.35 9.45 L13.3 15.5 8.3 8.85 8.25 8.9 7.85 9.1 7.95 9.25 7.45 9.0 7.7 8.85 7.75 8.9 8.0 8.75 8.0 8.65 8.05 8.65 8.2 7.85 8.2 7.8 7.75 7.8 5.6 7.8 5.6 8.45 Q5.7 8.5 5.75 8.55 5.85 8.6 5.9 8.7 5.95 8.75 6.0 8.85 6.0 8.95 6.05 9.0 6.05 9.1 6.1 9.15 6.1 9.2 6.1 9.25 6.1 9.3 6.1 9.35 6.1 9.35 6.1 9.4 L6.1 16.15 Q6.1 16.4 6.1 16.6 6.05 16.8 6.0 16.95 6.0 17.05 5.95 17.15 5.9 17.25 5.85 17.3 5.8 17.4 5.75 17.4 5.75 17.45 5.7 17.45 5.65 17.5 5.65 17.5 5.65 17.5 5.6 17.5 L5.6 18.2 8.3 18.2 8.3 17.5 Q8.2 17.45 8.15 17.4 8.05 17.3 8.0 17.2 7.95 17.1 7.9 17.0 7.85 16.9 7.85 16.75 7.85 16.65 7.8 16.55 7.8 16.45 7.8 16.35 7.8 16.3 7.8 16.2 7.8 16.2 7.8 16.15 L7.8 13.05 7.7 13.1 7.6 13.2 7.55 13.1 7.4 13.1 7.4 13.05 7.45 13.05 7.45 13.0 7.5 12.95 7.65 12.95 7.7 12.85 7.8 12.8 7.8 11.0 13.3 18.2 15.4 18.2 15.4 17.5 Q15.3 17.5 15.25 17.45 15.2 17.4 15.15 17.3 15.1 17.2 15.05 17.1 15.0 16.95 15.0 16.85 14.95 16.7 14.95 16.6 14.95 16.5 14.95 16.4 14.95 16.3 14.9 16.25 14.9 16.2 14.9 16.15 L14.9 11.15 14.95 9.25" fill="#f1edf8" fill-rule="evenodd" stroke="none"/>
    <path d="M20.35 13.75 Q20.35 13.75 20.5 13.75 20.65 13.75 20.85 13.7 21.1 13.65 21.4 13.6 21.7 13.5 22.0 13.4 22.3 13.25 22.6 13.05 22.9 12.85 23.1 12.55 23.35 12.25 23.5 11.85 23.65 11.45 23.65 10.95 23.65 10.4 23.5 9.9 23.35 9.5 23.1 9.15 22.9 8.8 22.6 8.6 22.3 8.35 21.95 8.2 21.7 8.05 21.35 8.0 21.1 7.9 20.8 7.85 20.6 7.85 20.45 7.85 20.35 7.85 20.3 7.8 L16.5 7.8 16.5 7.9 16.5 8.5 16.85 8.85 16.85 9.15 16.95 9.2 16.95 10.15 17.0 10.15 17.0 10.35 17.3 10.45 17.65 10.5 17.6 10.6 17.1 10.6 17.0 10.75 16.95 10.95 16.95 16.1 Q16.95 16.1 16.95 16.15 16.95 16.2 16.95 16.25 16.95 16.35 16.95 16.45 16.95 16.55 16.9 16.65 16.9 16.75 16.85 16.85 16.8 17.0 16.75 17.1 16.7 17.2 16.65 17.3 16.6 17.4 16.5 17.45 L16.5 18.2 19.0 18.2 19.0 17.45 Q19.0 17.45 19.0 17.45 18.95 17.4 18.9 17.4 18.9 17.35 18.85 17.35 18.8 17.3 18.75 17.2 18.7 17.15 18.7 17.05 18.65 16.95 18.6 16.85 18.6 16.75 18.55 16.6 18.55 16.45 18.55 16.25 L18.55 12.35 18.45 12.25 18.5 12.2 18.55 12.15 18.55 11.0 18.5 10.85 18.45 10.7 18.45 10.35 18.5 10.2 18.55 10.3 18.55 10.2 18.55 9.25 20.5 9.25 Q20.5 9.25 20.55 9.25 20.65 9.25 20.75 9.3 20.9 9.3 21.0 9.35 21.15 9.4 21.3 9.5 21.45 9.55 21.6 9.65 21.75 9.8 21.85 9.95 22.0 10.15 22.05 10.35 22.15 10.6 22.15 10.9 22.15 10.9 22.15 10.95 22.15 11.05 22.15 11.15 22.1 11.3 22.05 11.4 22.0 11.55 21.9 11.7 21.8 11.85 21.6 11.95 21.4 12.1 21.15 12.2 20.85 12.3 20.5 12.35 20.1 12.4 19.6 12.35 L19.55 12.35 19.55 13.3 20.35 13.75" fill="#f1edf8" fill-rule="evenodd" stroke="none"/>
    <path d="M24.9 18.15 Q25.3 18.15 25.65 18.15 26.05 18.1 26.4 18.05 26.8 18.0 27.1 17.9 27.5 17.75 27.8 17.55 28.15 17.35 28.45 17.1 28.75 16.8 29.0 16.4 29.25 16.0 29.45 15.45 29.7 14.9 29.85 14.25 30.05 13.45 30.1 12.7 30.15 12.0 30.1 11.4 30.1 10.8 29.95 10.3 29.8 9.8 29.6 9.4 29.35 9.0 29.05 8.75 28.75 8.45 28.4 8.3 28.05 8.1 27.6 8.05 27.2 8.0 26.75 8.05 26.4 8.1 26.1 8.2 25.75 8.3 25.5 8.5 25.2 8.65 24.95 8.9 24.7 9.15 24.5 9.45 24.3 9.75 24.1 10.1 23.95 10.4 23.85 10.75 23.75 11.15 23.75 11.5 23.7 11.85 23.75 12.25 23.75 12.45 23.85 12.7 23.95 12.9 24.15 13.15 24.3 13.4 24.55 13.55 24.8 13.8 25.1 13.95 25.4 14.1 25.75 14.2 26.15 14.25 26.6 14.25 27.05 14.25 27.5 14.1 28.05 14.0 28.6 13.7 28.6 13.7 28.55 13.8 28.5 13.95 28.45 14.1 28.35 14.25 28.25 14.45 28.1 14.7 28.0 14.9 27.8 15.15 27.65 15.4 27.5 15.65 27.35 15.85 27.15 16.05 26.95 16.2 26.8 16.35 26.6 16.45 26.35 16.55 26.15 16.6 25.9 16.7 25.75 16.7 25.6 16.7 25.45 16.7 25.3 16.65 25.2 16.6 25.1 16.6 25.0 16.5 24.95 16.5 24.9 16.4 24.85 16.35 24.8 16.3 24.75 16.25 24.7 16.25 24.7 16.2 24.6 16.2 24.55 16.2 24.5 16.2 24.4 16.2 24.35 16.2 24.25 16.2 24.2 16.25 24.1 16.25 24.05 16.3 23.95 16.35 23.9 16.4 23.85 16.5 23.85 16.55 23.85 16.65 23.85 16.75 23.9 16.9 23.85 17.05 23.85 17.15 23.8 17.3 23.8 17.3 23.65 17.55 23.6 17.65 23.6 17.75 23.55 17.85 23.6 17.9 23.65 18.0 23.8 18.05 23.95 18.1 24.2 18.15 24.5 18.15 24.9 18.15 L24.9 18.15 M25.4 11.45 Q25.4 11.25 25.45 11.05 25.5 10.85 25.55 10.65 25.65 10.45 25.75 10.25 25.85 10.05 26.0 9.9 26.15 9.75 26.3 9.65 26.5 9.55 26.7 9.5 26.9 9.45 27.1 9.45 27.35 9.45 27.55 9.55 27.75 9.65 27.95 9.8 28.1 9.95 28.25 10.15 28.35 10.35 28.45 10.6 28.5 10.8 28.55 11.05 28.6 11.25 28.65 11.45 28.65 11.65 28.7 11.8 28.7 11.95 28.7 12.05 28.7 12.1 28.7 12.15 28.45 12.3 28.15 12.4 27.9 12.5 27.6 12.6 27.3 12.65 27.05 12.7 26.75 12.7 26.5 12.65 26.25 12.65 26.05 12.55 25.8 12.45 25.65 12.3 25.5 12.15 25.45 11.95 25.35 11.7 25.4 11.45 L25.4 11.45" fill="#f1edf8" fill-rule="evenodd" stroke="none"/>
  </g>
</svg>
