<?xml version="1.0" encoding="UTF-8" standalone="no"?>
<svg xmlns:ffdec="https://www.free-decompiler.com/flash" xmlns:xlink="http://www.w3.org/1999/xlink" ffdec:objectType="shape" height="26.0px" width="35.75px" xmlns="http://www.w3.org/2000/svg">
  <g transform="matrix(1.0, 0.0, 0.0, 1.0, 0.0, 0.0)">
    <path d="M15.1 9.3 Q15.1 9.2 15.1 9.1 15.15 9.0 15.15 8.95 15.2 8.85 15.25 8.8 15.3 8.75 15.35 8.7 15.35 8.65 15.4 8.65 15.45 8.6 15.5 8.6 15.5 8.55 15.55 8.55 15.55 8.55 15.55 8.55 L15.55 7.9 13.0 7.9 13.0 8.5 Q13.1 8.55 13.15 8.65 13.25 8.7 13.3 8.8 13.35 8.85 13.4 8.95 13.4 9.05 13.45 9.1 13.45 9.2 13.5 9.25 13.5 9.35 13.5 9.4 13.5 9.45 13.5 9.45 13.5 9.5 13.5 9.5 L13.45 15.55 8.45 8.95 8.4 8.95 8.0 9.15 8.1 9.3 7.6 9.1 7.85 8.9 7.95 8.95 8.15 8.8 8.15 8.75 8.25 8.7 8.4 7.9 8.4 7.9 7.9 7.9 5.8 7.9 5.8 8.5 Q5.9 8.55 5.95 8.6 6.0 8.7 6.05 8.75 6.1 8.85 6.15 8.9 6.2 9.0 6.2 9.05 6.25 9.15 6.25 9.2 6.25 9.25 6.25 9.35 6.3 9.35 6.3 9.4 6.3 9.4 6.3 9.45 L6.3 16.2 Q6.3 16.45 6.25 16.65 6.25 16.85 6.2 17.0 6.15 17.1 6.1 17.2 6.05 17.3 6.0 17.4 5.95 17.45 5.95 17.5 5.9 17.5 5.85 17.5 5.8 17.55 5.8 17.55 5.8 17.55 5.8 17.55 L5.8 18.25 8.45 18.25 8.45 17.55 Q8.35 17.5 8.3 17.45 8.2 17.35 8.15 17.25 8.1 17.15 8.05 17.05 8.05 16.95 8.0 16.8 8.0 16.7 7.95 16.6 7.95 16.5 7.95 16.4 7.95 16.35 7.95 16.3 7.95 16.25 7.95 16.25 L7.95 13.1 7.85 13.15 7.75 13.25 7.7 13.2 7.55 13.2 7.55 13.1 7.65 13.1 7.65 13.05 7.65 13.0 7.8 13.0 7.85 12.9 7.95 12.85 7.95 11.05 13.45 18.25 15.55 18.25 15.55 17.55 Q15.45 17.55 15.4 17.5 15.35 17.45 15.3 17.35 15.25 17.25 15.2 17.15 15.15 17.05 15.15 16.9 15.15 16.8 15.1 16.65 15.1 16.55 15.1 16.45 15.1 16.35 15.1 16.3 15.1 16.25 15.1 16.25 L15.1 11.2 15.1 9.3" fill="#f1edf8" fill-rule="evenodd" stroke="none"/>
    <path d="M20.5 13.8 Q20.5 13.8 20.65 13.8 20.8 13.8 21.0 13.75 21.3 13.7 21.55 13.65 21.85 13.55 22.15 13.45 22.45 13.3 22.75 13.1 23.05 12.9 23.25 12.6 23.5 12.3 23.65 11.9 23.8 11.5 23.8 11.0 23.8 10.45 23.65 9.95 23.5 9.55 23.25 9.2 23.05 8.9 22.75 8.65 22.45 8.4 22.1 8.25 21.85 8.15 21.5 8.05 21.25 7.95 20.95 7.95 20.8 7.9 20.6 7.9 20.55 7.9 20.45 7.9 L16.65 7.9 16.65 8.0 16.65 8.55 17.0 8.9 17.0 9.2 17.1 9.25 17.1 10.2 17.2 10.2 17.2 10.45 17.5 10.5 17.8 10.55 17.75 10.65 17.25 10.65 17.15 10.8 17.1 11.0 17.1 16.15 Q17.1 16.15 17.1 16.2 17.1 16.25 17.1 16.3 17.1 16.4 17.1 16.5 17.1 16.6 17.05 16.7 17.05 16.8 17.0 16.95 17.0 17.05 16.95 17.15 16.9 17.25 16.8 17.35 16.75 17.45 16.65 17.5 L16.65 18.25 19.15 18.25 19.15 17.5 Q19.15 17.5 19.15 17.5 19.1 17.45 19.1 17.45 19.05 17.4 19.0 17.4 18.95 17.35 18.9 17.3 18.85 17.2 18.85 17.1 18.8 17.05 18.75 16.9 18.75 16.8 18.75 16.65 18.7 16.5 18.75 16.3 L18.75 12.45 18.6 12.3 18.65 12.25 18.7 12.2 18.7 11.05 18.7 10.95 18.6 10.8 18.6 10.4 18.65 10.3 18.7 10.35 18.7 10.25 18.7 9.3 20.65 9.3 Q20.65 9.3 20.7 9.3 20.8 9.3 20.9 9.35 21.05 9.35 21.15 9.4 21.3 9.45 21.45 9.55 21.65 9.6 21.75 9.75 21.9 9.85 22.05 10.05 22.15 10.2 22.2 10.45 22.3 10.7 22.3 10.95 22.3 10.95 22.3 11.0 22.3 11.1 22.3 11.2 22.25 11.35 22.25 11.45 22.15 11.6 22.05 11.75 21.95 11.9 21.8 12.0 21.6 12.15 21.3 12.25 21.05 12.35 20.65 12.4 20.25 12.45 19.75 12.4 L19.7 12.4 19.7 13.35 20.5 13.8" fill="#f1edf8" fill-rule="evenodd" stroke="none"/>
    <path d="M29.6 15.35 Q29.55 15.2 29.55 15.05 29.55 14.9 29.6 14.7 29.6 14.55 29.65 14.35 29.65 14.2 29.7 14.0 29.75 13.85 29.8 13.7 29.85 13.55 29.9 13.4 29.9 13.35 29.95 13.25 29.95 13.2 29.95 13.2 L29.2 13.2 Q29.1 13.4 29.0 13.55 28.9 13.75 28.8 13.85 28.7 13.95 28.65 14.0 28.6 14.1 28.55 14.1 28.5 14.15 28.45 14.1 28.4 14.1 28.35 14.05 28.35 14.0 28.35 13.9 28.35 13.8 28.35 13.7 28.3 12.1 28.3 7.75 28.3 7.75 28.3 7.75 28.3 7.75 28.2 7.75 28.2 7.75 28.15 7.75 28.1 7.75 28.05 7.8 27.95 7.8 27.9 7.8 27.8 7.8 27.75 7.85 27.65 7.9 27.6 7.9 27.5 7.95 27.45 8.0 27.25 8.1 25.55 10.55 24.05 12.7 22.6 14.9 22.55 14.95 22.55 14.95 22.55 15.0 22.5 15.05 22.5 15.1 22.5 15.15 22.5 15.15 22.5 15.2 22.5 15.25 22.55 15.25 22.55 15.3 22.6 15.3 22.65 15.35 22.7 15.35 22.8 15.35 22.85 15.35 L27.0 15.35 Q27.0 15.7 27.0 16.0 26.95 16.3 26.95 16.5 26.9 16.7 26.85 16.9 26.85 17.05 26.8 17.15 26.75 17.25 26.65 17.35 26.6 17.4 26.55 17.45 26.5 17.45 26.45 17.5 26.35 17.5 26.3 17.5 26.25 17.5 26.2 17.55 26.15 17.55 26.1 17.6 26.1 17.65 26.05 17.75 26.05 17.8 26.05 17.85 26.05 17.9 26.0 18.0 26.0 18.05 26.0 18.1 26.0 18.15 26.0 18.2 26.0 18.2 26.0 18.2 L29.2 18.2 Q29.2 18.15 29.2 18.05 29.2 17.95 29.2 17.9 29.2 17.8 29.2 17.75 29.2 17.7 29.15 17.65 29.15 17.6 29.15 17.6 29.1 17.55 29.1 17.55 29.05 17.5 29.0 17.5 28.95 17.5 28.9 17.5 28.8 17.5 28.7 17.4 28.6 17.3 28.5 17.15 28.45 17.0 28.4 16.8 28.4 16.65 28.35 16.45 28.35 16.25 28.35 16.05 28.3 15.85 28.3 15.7 28.3 15.6 28.3 15.45 28.35 15.4 28.35 15.35 28.45 15.35 28.6 15.4 28.7 15.4 28.85 15.45 28.95 15.5 29.1 15.55 29.25 15.6 29.3 15.65 29.4 15.65 29.45 15.7 29.55 15.7 29.6 15.65 29.65 15.65 29.65 15.55 29.65 15.5 29.6 15.35 L29.6 15.35 M27.0 14.15 Q27.0 14.15 25.9 14.15 24.8 14.1 24.8 14.15 L27.0 10.75 27.0 14.15" fill="#f1edf8" fill-rule="evenodd" stroke="none"/>
  </g>
</svg>
