<?xml version="1.0" encoding="UTF-8" standalone="no"?>
<svg xmlns:ffdec="https://www.free-decompiler.com/flash" xmlns:xlink="http://www.w3.org/1999/xlink" ffdec:objectType="frame" height="26.05px" width="52.95px" xmlns="http://www.w3.org/2000/svg">
  <g transform="matrix(1.0, 0.0, 0.0, 1.0, 0.0, 0.0)">
    <use ffdec:characterId="3" height="26.0" transform="matrix(1.0, 0.0, 0.0, 1.0, 0.0, 0.0)" width="26.0" xlink:href="#shape0"/>
    <use ffdec:characterId="113" height="14.1" transform="matrix(0.9293, 0.0, 0.0, 0.9326, 11.6, 6.85)" width="4.95" xlink:href="#shape1"/>
    <use ffdec:characterId="113" height="14.1" transform="matrix(0.9293, 0.0, 0.0, 0.9326, 10.8, 6.25)" width="4.95" xlink:href="#shape1"/>
  </g>
  <defs>
    <g id="shape0" transform="matrix(1.0, 0.0, 0.0, 1.0, 0.0, 0.0)">
      <path d="M3.2 1.8 L22.8 1.8 Q22.95 1.8 23.1 1.85 23.2 1.85 23.35 1.9 23.45 1.95 23.6 2.05 23.7 2.1 23.8 2.2 23.9 2.3 23.95 2.4 24.05 2.5 24.1 2.65 24.15 2.75 24.15 2.9 24.2 3.05 24.2 3.2 L24.2 22.8 Q24.2 22.95 24.15 23.1 24.15 23.2 24.1 23.35 24.05 23.45 23.95 23.6 23.9 23.7 23.8 23.8 23.7 23.9 23.6 23.95 23.5 24.05 23.35 24.1 23.25 24.15 23.1 24.15 22.95 24.2 22.8 24.2 L3.2 24.2 Q3.05 24.2 2.9 24.15 2.8 24.15 2.65 24.1 2.55 24.05 2.4 23.95 2.3 23.9 2.2 23.8 2.1 23.7 2.05 23.6 1.95 23.5 1.9 23.35 1.85 23.25 1.85 23.1 1.8 22.95 1.8 22.8 L1.8 3.2 Q1.8 3.05 1.85 2.9 1.85 2.8 1.9 2.65 1.95 2.5 2.05 2.4 2.1 2.3 2.2 2.2 2.3 2.1 2.4 2.05 2.5 1.95 2.65 1.9 2.75 1.85 2.9 1.85 3.05 1.8 3.2 1.8 L3.2 1.8" fill="#000000" fill-rule="evenodd" stroke="none"/>
      <path d="M3.2 1.3 Q3.0 1.3 2.8 1.35 2.65 1.4 2.45 1.45 2.3 1.5 2.15 1.6 2.0 1.7 1.85 1.85 1.75 2.0 1.6 2.15 1.5 2.3 1.45 2.45 1.4 2.6 1.35 2.8 1.3 3.0 1.3 3.2 L1.3 22.8 Q1.3 23.0 1.35 23.2 1.4 23.35 1.45 23.55 1.5 23.7 1.6 23.85 1.7 24.0 1.85 24.15 2.0 24.25 2.15 24.4 2.3 24.5 2.45 24.55 2.6 24.6 2.8 24.65 3.0 24.7 3.2 24.7 L22.8 24.7 Q23.0 24.7 23.2 24.65 23.35 24.6 23.55 24.55 23.7 24.5 23.85 24.4 24.0 24.25 24.15 24.15 24.25 24.0 24.4 23.85 24.5 23.7 24.55 23.55 24.6 23.4 24.65 23.2 24.7 23.0 24.7 22.8 L24.7 3.2 Q24.7 3.0 24.65 2.8 24.6 2.65 24.55 2.45 24.5 2.3 24.4 2.15 24.3 2.0 24.15 1.85 24.0 1.7 23.85 1.6 23.7 1.5 23.55 1.45 23.4 1.35 23.2 1.35 23.0 1.3 22.8 1.3 L3.2 1.3 M3.2 2.3 L22.8 2.3 Q22.9 2.3 23.0 2.3 23.1 2.35 23.15 2.35 23.25 2.4 23.3 2.45 23.4 2.5 23.45 2.55 23.5 2.6 23.55 2.7 23.6 2.75 23.65 2.85 23.65 2.9 23.7 3.0 23.7 3.1 23.7 3.2 L23.7 22.8 Q23.7 22.9 23.7 23.0 23.65 23.1 23.65 23.15 23.6 23.25 23.55 23.3 23.5 23.4 23.45 23.45 23.4 23.5 23.3 23.55 23.25 23.6 23.15 23.65 23.1 23.65 23.0 23.7 22.9 23.7 22.8 23.7 L3.2 23.7 Q3.1 23.7 3.0 23.7 2.9 23.65 2.85 23.65 2.75 23.6 2.7 23.55 2.6 23.5 2.55 23.45 2.5 23.4 2.45 23.3 2.4 23.25 2.35 23.15 2.35 23.1 2.3 23.0 2.3 22.9 2.3 22.8 L2.3 3.2 Q2.3 3.1 2.3 3.0 2.35 2.9 2.35 2.85 2.4 2.75 2.45 2.7 2.5 2.6 2.55 2.55 2.6 2.5 2.7 2.45 2.75 2.4 2.85 2.35 2.9 2.35 3.0 2.3 3.1 2.3 3.2 2.3 L3.2 2.3" fill="#ffffff" fill-rule="evenodd" stroke="none"/>
    </g>
    <g id="shape1" transform="matrix(1.0, 0.0, 0.0, 1.0, 0.0, 0.0)">
      <path d="M0.0 5.9 L0.05 5.85 2.5 0.0 4.95 5.85 4.95 5.9 3.05 5.9 3.05 14.1 1.95 14.1 1.95 5.9 0.0 5.9" fill="#000000" fill-rule="evenodd" stroke="none"/>
    </g>
  </defs>
</svg>
