<?xml version="1.0" encoding="UTF-8" standalone="no"?>
<svg xmlns:ffdec="https://www.free-decompiler.com/flash" xmlns:xlink="http://www.w3.org/1999/xlink" ffdec:objectType="frame" height="26.05px" width="52.95px" xmlns="http://www.w3.org/2000/svg">
  <g transform="matrix(1.0, 0.0, 0.0, 1.0, 0.0, 0.0)">
    <use ffdec:characterId="113" height="14.1" transform="matrix(1.0E-4, 0.9293, -0.9326, 1.0E-4, 19.7, 10.7)" width="4.95" xlink:href="#shape0"/>
    <use ffdec:characterId="131" height="11.35" transform="matrix(1.0, 0.0, 0.0, 1.0, 6.7, 7.0)" width="11.35" xlink:href="#shape1"/>
    <use ffdec:characterId="131" height="11.35" transform="matrix(1.0, 0.0, 0.0, 1.0, 11.9, 7.35)" width="11.35" xlink:href="#shape1"/>
  </g>
  <defs>
    <g id="shape0" transform="matrix(1.0, 0.0, 0.0, 1.0, 0.0, 0.0)">
      <path d="M0.0 5.9 L0.05 5.85 2.5 0.0 4.95 5.85 4.95 5.9 3.05 5.9 3.05 14.1 1.95 14.1 1.95 5.9 0.0 5.9" fill="#cccccc" fill-rule="evenodd" stroke="none"/>
    </g>
    <g id="shape1" transform="matrix(1.0, 0.0, 0.0, 1.0, 0.0, 0.0)">
      <path d="M0.0 1.0 L0.0 2.8 1.8 2.8 9.55 2.8 11.35 2.8 11.35 1.0 0.0 1.0" fill="#000000" fill-opacity="0.0" fill-rule="evenodd" stroke="none"/>
      <path d="M0.0 8.55 L0.0 10.35 1.8 10.35 9.55 10.35 11.35 10.35 11.35 8.55 0.0 8.55" fill="#000000" fill-opacity="0.0" fill-rule="evenodd" stroke="none"/>
      <path d="M0.0 4.75 L0.0 6.6 1.8 6.6 9.55 6.6 11.35 6.6 11.35 4.75 0.0 4.75" fill="#000000" fill-opacity="0.0" fill-rule="evenodd" stroke="none"/>
    </g>
  </defs>
</svg>
