<?xml version="1.0" encoding="UTF-8" standalone="no"?>
<svg xmlns:ffdec="https://www.free-decompiler.com/flash" xmlns:xlink="http://www.w3.org/1999/xlink" ffdec:objectType="frame" height="26.05px" width="52.95px" xmlns="http://www.w3.org/2000/svg">
  <g transform="matrix(1.0, 0.0, 0.0, 1.0, 0.0, 0.0)">
    <use ffdec:characterId="113" height="14.1" transform="matrix(1.0E-4, 0.9293, -0.9326, 1.0E-4, 19.7, 10.7)" width="4.95" xlink:href="#shape0"/>
    <use ffdec:characterId="28" height="11.35" transform="matrix(1.0, 0.0, 0.0, 1.0, 6.7, 7.0)" width="11.35" xlink:href="#shape1"/>
    <use ffdec:characterId="28" height="11.35" transform="matrix(1.0, 0.0, 0.0, 1.0, 11.9, 7.0)" width="11.35" xlink:href="#shape1"/>
  </g>
  <defs>
    <g id="shape0" transform="matrix(1.0, 0.0, 0.0, 1.0, 0.0, 0.0)">
      <path d="M0.0 5.9 L0.05 5.85 2.5 0.0 4.95 5.85 4.95 5.9 3.05 5.9 3.05 14.1 1.95 14.1 1.95 5.9 0.0 5.9" fill="#cccccc" fill-rule="evenodd" stroke="none"/>
    </g>
    <g id="shape1" transform="matrix(1.0, 0.0, 0.0, 1.0, 0.0, 0.0)">
      <path d="M4.2 4.75 L4.2 6.25 4.2 8.85 4.2 10.35 5.7 10.35 11.35 10.35 11.35 8.85 11.35 4.75 5.7 4.75 4.2 4.75 4.2 4.75 M5.7 6.25 L9.85 6.25 9.85 8.85 5.7 8.85 5.7 6.25 5.7 6.25" fill="#000000" fill-opacity="0.0" fill-rule="evenodd" stroke="none"/>
      <path d="M0.0 1.3 L0.0 2.8 0.0 6.9 1.5 6.9 2.3 6.9 2.3 5.4 1.5 5.4 1.5 2.8 5.65 2.8 5.65 3.25 7.15 3.25 7.15 2.8 7.15 1.3 5.65 1.3 0.0 1.3 0.0 1.3" fill="#000000" fill-opacity="0.0" fill-rule="evenodd" stroke="none"/>
    </g>
  </defs>
</svg>
