<?xml version="1.0" encoding="UTF-8" standalone="no"?>
<svg xmlns:ffdec="https://www.free-decompiler.com/flash" xmlns:xlink="http://www.w3.org/1999/xlink" ffdec:objectType="frame" height="26.05px" width="52.95px" xmlns="http://www.w3.org/2000/svg">
  <g transform="matrix(1.0, 0.0, 0.0, 1.0, 0.0, 0.0)">
    <use ffdec:characterId="132" height="26.0" transform="matrix(1.0, 0.0, 0.0, 1.0, 0.05, 0.05)" width="26.0" xlink:href="#shape0"/>
    <use ffdec:characterId="35" height="12.8" transform="matrix(1.0, 0.0, 0.0, 1.0, 10.55, 7.2)" width="6.6" xlink:href="#shape1"/>
    <use ffdec:characterId="35" height="12.8" transform="matrix(1.0, 0.0, 0.0, 1.0, 9.75, 6.6)" width="6.6" xlink:href="#shape1"/>
  </g>
  <defs>
    <g id="shape0" transform="matrix(1.0, 0.0, 0.0, 1.0, -0.05, -0.05)">
      <path d="M22.6 13.05 Q22.6 9.1 19.8 6.3 17.0 3.5 13.05 3.5 9.1 3.5 6.3 6.3 3.5 9.1 3.5 13.05 3.5 17.0 6.3 19.8 9.1 22.6 13.05 22.6 17.0 22.6 19.8 19.8 22.6 17.0 22.6 13.05 L22.6 13.05" fill="#000000" fill-rule="evenodd" stroke="none"/>
      <path d="M22.6 13.05 Q22.6 9.1 19.8 6.3 17.0 3.5 13.05 3.5 9.1 3.5 6.3 6.3 3.5 9.1 3.5 13.05 3.5 17.0 6.3 19.8 9.1 22.6 13.05 22.6 17.0 22.6 19.8 19.8 22.6 17.0 22.6 13.05 L22.6 13.05 Z" fill="none" stroke="#ffffff" stroke-linecap="round" stroke-linejoin="round" stroke-width="1.0"/>
    </g>
    <g id="shape1" transform="matrix(1.0, 0.0, 0.0, 1.0, 0.0, 0.0)">
      <path d="M6.6 0.0 L4.2 7.25 4.2 12.8 2.5 12.8 2.5 7.25 0.0 0.0 1.8 0.0 3.4 5.9 4.75 0.0 6.6 0.0" fill="#000000" fill-rule="evenodd" stroke="none"/>
    </g>
  </defs>
</svg>
