<?xml version="1.0" encoding="UTF-8" standalone="no"?>
<svg xmlns:ffdec="https://www.free-decompiler.com/flash" xmlns:xlink="http://www.w3.org/1999/xlink" ffdec:objectType="frame" height="26.05px" width="52.95px" xmlns="http://www.w3.org/2000/svg">
  <g transform="matrix(1.0, 0.0, 0.0, 1.0, 0.0, 0.0)">
    <use ffdec:characterId="1" height="26.0" transform="matrix(1.0, 0.0, 0.0, 1.0, 0.0, 0.0)" width="35.75" xlink:href="#shape0"/>
    <use ffdec:characterId="139" height="13.15" transform="matrix(1.0, 0.0, 0.0, 1.0, 10.45, 7.05)" width="16.4" xlink:href="#shape1"/>
    <use ffdec:characterId="139" height="13.15" transform="matrix(1.0, 0.0, 0.0, 1.0, 9.65, 6.45)" width="16.4" xlink:href="#shape1"/>
  </g>
  <defs>
    <g id="shape0" transform="matrix(1.0, 0.0, 0.0, 1.0, 0.0, 0.0)">
      <path d="M3.2 1.8 L32.55 1.8 Q32.7 1.8 32.85 1.85 32.95 1.85 33.1 1.9 33.25 1.95 33.35 2.05 33.45 2.1 33.55 2.2 33.65 2.3 33.7 2.4 33.8 2.5 33.85 2.65 33.9 2.75 33.95 2.9 33.95 3.05 33.95 3.2 L33.95 22.85 Q33.95 23.0 33.9 23.1 33.9 23.25 33.85 23.4 33.8 23.5 33.7 23.6 33.65 23.7 33.55 23.8 33.45 23.9 33.35 24.0 33.25 24.05 33.1 24.1 33.0 24.15 32.85 24.2 32.7 24.2 32.55 24.2 L3.2 24.2 Q3.05 24.2 2.9 24.2 2.8 24.15 2.65 24.1 2.55 24.05 2.4 23.95 2.3 23.9 2.2 23.8 2.1 23.7 2.05 23.6 1.95 23.5 1.9 23.35 1.85 23.25 1.85 23.1 1.8 22.95 1.8 22.85 L1.8 3.2 Q1.8 3.05 1.85 2.9 1.85 2.8 1.9 2.65 1.95 2.5 2.05 2.4 2.1 2.3 2.2 2.2 2.3 2.1 2.4 2.05 2.5 1.95 2.65 1.9 2.75 1.85 2.9 1.85 3.05 1.8 3.2 1.8 L3.2 1.8" fill="#000000" fill-rule="evenodd" stroke="none"/>
      <path d="M3.2 1.3 Q3.0 1.3 2.8 1.35 2.65 1.35 2.45 1.45 2.3 1.5 2.15 1.6 2.0 1.7 1.85 1.85 1.75 2.0 1.6 2.15 1.5 2.3 1.45 2.45 1.4 2.6 1.35 2.8 1.3 3.0 1.3 3.2 L1.3 22.85 Q1.3 23.05 1.35 23.2 1.4 23.4 1.45 23.55 1.5 23.75 1.6 23.9 1.75 24.05 1.85 24.15 2.0 24.3 2.15 24.4 2.3 24.5 2.45 24.55 2.6 24.65 2.8 24.65 3.0 24.7 3.2 24.7 L32.55 24.7 Q32.75 24.7 32.95 24.65 33.1 24.65 33.3 24.55 33.45 24.5 33.6 24.4 33.75 24.3 33.9 24.15 34.05 24.05 34.15 23.9 34.25 23.75 34.3 23.55 34.4 23.4 34.4 23.2 34.45 23.0 34.45 22.85 L34.45 3.2 Q34.45 3.0 34.4 2.8 34.4 2.65 34.3 2.45 34.25 2.3 34.15 2.15 34.05 2.0 33.9 1.85 33.75 1.7 33.6 1.6 33.45 1.5 33.3 1.45 33.15 1.35 32.95 1.35 32.75 1.3 32.55 1.3 L3.2 1.3 M3.2 2.3 L32.55 2.3 Q32.65 2.3 32.75 2.3 32.85 2.35 32.9 2.35 33.0 2.4 33.05 2.45 33.15 2.5 33.2 2.55 33.25 2.6 33.3 2.7 33.35 2.75 33.4 2.85 33.4 2.9 33.45 3.0 33.45 3.1 33.45 3.2 L33.45 22.85 Q33.45 22.95 33.45 23.0 33.4 23.1 33.4 23.2 33.35 23.25 33.3 23.35 33.25 23.4 33.2 23.45 33.15 23.5 33.05 23.55 33.0 23.6 32.9 23.65 32.85 23.7 32.75 23.7 32.65 23.7 32.55 23.7 L3.2 23.7 Q3.1 23.7 3.0 23.7 2.9 23.65 2.85 23.65 2.75 23.6 2.7 23.55 2.6 23.5 2.55 23.45 2.5 23.4 2.45 23.35 2.4 23.25 2.35 23.2 2.35 23.1 2.3 23.0 2.3 22.9 2.3 22.85 L2.3 3.2 Q2.3 3.1 2.3 3.0 2.35 2.9 2.35 2.85 2.4 2.75 2.45 2.7 2.5 2.6 2.55 2.55 2.6 2.5 2.7 2.45 2.75 2.4 2.85 2.35 2.9 2.35 3.0 2.3 3.1 2.3 3.2 2.3 L3.2 2.3" fill="#ffffff" fill-rule="evenodd" stroke="none"/>
    </g>
    <g id="shape1" transform="matrix(1.0, 0.0, 0.0, 1.0, 0.0, 0.0)">
      <path d="M8.8 11.4 L9.1 12.1 8.8 12.85 Q8.5 13.15 8.05 13.15 7.65 13.15 7.35 12.85 7.05 12.55 7.05 12.1 7.05 11.7 7.35 11.4 7.65 11.1 8.05 11.1 8.5 11.1 8.8 11.4 M1.25 12.1 Q1.25 11.7 1.55 11.4 1.85 11.1 2.25 11.1 2.7 11.1 3.0 11.4 L3.3 12.1 3.0 12.85 Q2.7 13.15 2.25 13.15 L1.55 12.85 Q1.25 12.55 1.25 12.1 M4.0 0.55 Q4.55 1.1 4.7 1.95 L4.8 3.85 4.8 4.95 4.6 6.05 4.05 6.9 Q3.7 7.25 3.05 7.25 L3.05 10.0 1.55 10.0 1.55 6.1 1.95 6.15 Q2.55 6.15 2.8 5.8 L3.15 5.05 3.2 4.05 3.2 3.4 3.15 2.5 2.9 1.8 2.35 1.45 Q1.95 1.5 1.8 1.75 1.65 2.0 1.65 2.4 L1.6 3.05 1.6 3.35 0.0 3.35 0.0 3.15 Q0.0 2.3 0.15 1.6 0.3 0.85 0.8 0.45 1.25 0.0 2.3 0.0 3.45 0.05 4.0 0.55 M13.85 11.1 Q14.3 11.1 14.6 11.4 L14.9 12.1 14.6 12.85 Q14.3 13.15 13.85 13.15 13.45 13.15 13.15 12.85 12.85 12.55 12.85 12.1 12.85 11.7 13.15 11.4 13.45 11.1 13.85 11.1 M10.6 4.95 L10.4 6.05 9.85 6.9 Q9.5 7.25 8.85 7.25 L8.85 10.0 7.35 10.0 7.35 6.1 7.75 6.15 Q8.35 6.15 8.6 5.8 L8.95 5.05 9.0 4.05 9.0 3.4 8.95 2.5 8.7 1.8 Q8.5 1.5 8.15 1.45 7.75 1.5 7.6 1.75 7.45 2.0 7.45 2.4 L7.4 3.05 7.4 3.35 5.8 3.35 5.8 3.15 Q5.8 2.3 5.95 1.6 6.1 0.85 6.6 0.45 7.05 0.0 8.1 0.0 9.25 0.05 9.8 0.55 10.35 1.1 10.5 1.95 L10.6 3.85 10.6 4.95 M16.3 1.95 L16.4 3.85 16.4 4.95 16.2 6.05 15.65 6.9 14.65 7.25 14.65 10.0 13.15 10.0 13.15 6.1 13.55 6.15 Q14.15 6.15 14.4 5.8 L14.75 5.05 14.8 4.05 14.8 3.4 14.75 2.5 14.5 1.8 Q14.3 1.5 13.95 1.45 L13.4 1.75 Q13.25 2.0 13.25 2.4 L13.2 3.05 13.2 3.35 11.6 3.35 11.6 3.15 Q11.6 2.3 11.75 1.6 11.9 0.85 12.4 0.45 12.85 0.0 13.9 0.0 15.05 0.05 15.6 0.55 16.15 1.1 16.3 1.95" fill="#000000" fill-rule="evenodd" stroke="none"/>
    </g>
  </defs>
</svg>
