<?xml version="1.0" encoding="UTF-8" standalone="no"?>
<svg xmlns:ffdec="https://www.free-decompiler.com/flash" xmlns:xlink="http://www.w3.org/1999/xlink" ffdec:objectType="frame" height="26.05px" width="52.95px" xmlns="http://www.w3.org/2000/svg">
  <g transform="matrix(1.0, 0.0, 0.0, 1.0, 0.0, 0.0)">
    <use ffdec:characterId="88" height="26.0" transform="matrix(1.0, 0.0, 0.0, 1.0, 0.0, 0.0)" width="52.95" xlink:href="#shape0"/>
    <use ffdec:characterId="89" height="14.25" transform="matrix(1.0, 0.0, 0.0, 1.0, 7.45, 5.9)" width="40.45" xlink:href="#shape1"/>
    <use ffdec:characterId="89" height="14.25" transform="matrix(1.0, 0.0, 0.0, 1.0, 6.65, 5.3)" width="40.45" xlink:href="#shape1"/>
  </g>
  <defs>
    <g id="shape0" transform="matrix(1.0, 0.0, 0.0, 1.0, 0.0, 0.0)">
      <path d="M3.2 1.8 L49.8 1.8 Q49.95 1.8 50.05 1.85 50.2 1.85 50.35 1.9 50.45 1.95 50.55 2.05 50.65 2.1 50.75 2.2 50.85 2.3 50.95 2.4 51.0 2.5 51.05 2.65 51.1 2.75 51.15 2.9 51.15 3.05 51.15 3.2 L51.15 22.8 Q51.15 22.95 51.15 23.1 51.1 23.2 51.05 23.35 51.0 23.45 50.9 23.6 50.85 23.7 50.75 23.8 50.65 23.9 50.55 23.95 50.45 24.05 50.3 24.1 50.2 24.15 50.05 24.15 49.9 24.2 49.8 24.2 L3.2 24.2 Q3.05 24.2 2.9 24.15 2.8 24.15 2.65 24.1 2.55 24.05 2.4 23.95 2.3 23.9 2.2 23.8 2.1 23.7 2.05 23.6 1.95 23.5 1.9 23.35 1.85 23.25 1.85 23.1 1.8 22.95 1.8 22.8 L1.8 3.2 Q1.8 3.05 1.85 2.9 1.85 2.8 1.9 2.65 1.95 2.55 2.05 2.4 2.1 2.3 2.2 2.2 2.3 2.1 2.4 2.05 2.5 1.95 2.65 1.9 2.75 1.85 2.9 1.85 3.05 1.8 3.2 1.8 L3.2 1.8" fill="#000000" fill-rule="evenodd" stroke="none"/>
      <path d="M3.2 1.3 Q3.0 1.3 2.8 1.35 2.65 1.4 2.45 1.45 2.3 1.5 2.15 1.6 2.0 1.75 1.85 1.85 1.75 2.0 1.6 2.15 1.5 2.3 1.45 2.45 1.4 2.65 1.35 2.8 1.3 3.0 1.3 3.2 L1.3 22.8 Q1.3 23.0 1.35 23.2 1.4 23.35 1.45 23.55 1.5 23.7 1.6 23.85 1.75 24.0 1.85 24.15 2.0 24.25 2.15 24.35 2.3 24.5 2.45 24.55 2.6 24.6 2.8 24.65 3.0 24.7 3.2 24.7 L49.8 24.7 Q50.0 24.7 50.15 24.65 50.35 24.6 50.5 24.55 50.7 24.5 50.85 24.4 51.0 24.25 51.1 24.15 51.25 24.0 51.35 23.85 51.45 23.7 51.5 23.55 51.6 23.35 51.6 23.2 51.65 23.0 51.65 22.8 L51.65 3.2 Q51.65 3.0 51.6 2.8 51.6 2.65 51.5 2.45 51.45 2.3 51.35 2.15 51.25 2.0 51.1 1.85 51.0 1.75 50.85 1.65 50.7 1.5 50.5 1.45 50.35 1.4 50.15 1.35 49.95 1.3 49.8 1.3 L3.2 1.3 M3.2 2.3 L49.8 2.3 Q49.9 2.3 49.95 2.3 50.05 2.35 50.15 2.35 50.2 2.4 50.3 2.45 50.35 2.5 50.4 2.55 50.45 2.6 50.5 2.7 50.55 2.75 50.6 2.85 50.65 2.9 50.65 3.0 50.65 3.1 50.65 3.2 L50.65 22.8 Q50.65 22.9 50.65 23.0 50.6 23.05 50.6 23.15 50.55 23.25 50.5 23.3 50.45 23.4 50.4 23.45 50.35 23.5 50.25 23.55 50.2 23.6 50.1 23.65 50.05 23.65 49.95 23.7 49.85 23.7 49.8 23.7 L3.2 23.7 Q3.1 23.7 3.0 23.7 2.9 23.65 2.85 23.65 2.75 23.6 2.7 23.55 2.6 23.5 2.55 23.45 2.5 23.4 2.45 23.3 2.4 23.25 2.35 23.15 2.35 23.1 2.3 23.0 2.3 22.9 2.3 22.8 L2.3 3.2 Q2.3 3.1 2.3 3.0 2.35 2.95 2.35 2.85 2.4 2.75 2.45 2.7 2.5 2.6 2.55 2.55 2.6 2.5 2.7 2.45 2.75 2.4 2.85 2.35 2.9 2.35 3.0 2.3 3.1 2.3 3.2 2.3 L3.2 2.3" fill="#ffffff" fill-rule="evenodd" stroke="none"/>
    </g>
    <g id="shape1" transform="matrix(1.0, 0.0, 0.0, 1.0, 0.0, 0.0)">
      <path d="M0.0 1.3 L1.6 1.3 4.6 11.0 4.65 11.0 4.25 1.3 5.95 1.3 5.95 14.1 4.35 14.1 1.35 4.2 1.35 4.25 1.45 5.1 1.7 14.1 0.0 14.1 0.0 1.3 M11.25 5.5 L12.85 5.5 12.85 11.3 12.65 12.85 11.85 13.9 Q11.3 14.25 10.35 14.25 9.2 14.25 8.65 13.85 8.05 13.45 7.85 12.7 7.7 11.95 7.7 11.0 L7.7 5.5 9.3 5.5 9.3 10.9 9.3 11.75 9.55 12.45 Q9.75 12.75 10.3 12.8 10.8 12.75 11.0 12.5 L11.2 11.8 11.25 11.0 11.25 5.5 M24.65 1.3 L26.35 1.3 26.35 12.6 29.2 12.6 29.2 14.1 24.65 14.1 24.65 1.3 M20.95 5.4 L22.1 5.65 22.7 6.4 22.85 7.45 22.85 14.1 21.25 14.1 21.25 8.1 21.1 7.2 Q20.95 6.8 20.4 6.8 19.85 6.8 19.6 7.1 L19.4 7.8 19.35 8.65 19.35 14.1 17.75 14.1 17.75 8.25 17.75 7.6 17.5 7.05 Q17.3 6.8 16.85 6.8 16.35 6.8 16.15 7.1 15.95 7.4 15.9 7.85 L15.9 8.65 15.9 14.1 14.3 14.1 14.3 5.5 15.9 5.5 15.9 6.55 15.95 6.55 Q16.15 6.0 16.6 5.7 17.0 5.4 17.6 5.4 18.2 5.4 18.6 5.7 19.05 6.0 19.15 6.55 L19.2 6.55 19.9 5.7 Q20.3 5.4 20.95 5.4 M32.95 5.45 L33.55 5.65 33.55 7.3 33.25 7.0 32.8 6.85 Q32.25 6.9 32.0 7.2 31.7 7.5 31.55 7.95 L31.4 8.9 31.4 9.75 31.4 10.55 31.55 11.55 31.95 12.4 Q32.25 12.75 32.75 12.75 L33.2 12.65 33.55 12.4 33.55 13.9 32.95 14.15 32.25 14.25 Q31.45 14.2 30.95 13.8 30.4 13.35 30.15 12.7 29.9 12.05 29.8 11.3 L29.75 9.9 29.8 8.45 Q29.9 7.65 30.15 6.95 30.4 6.25 30.9 5.85 31.4 5.4 32.3 5.4 L32.95 5.45 M38.35 5.5 L40.15 5.5 37.95 9.3 40.45 14.1 38.6 14.1 36.4 9.55 36.35 9.55 36.35 14.1 34.75 14.1 34.75 0.0 36.35 0.0 36.35 9.3 36.4 9.3 38.35 5.5" fill="#000000" fill-rule="evenodd" stroke="none"/>
    </g>
  </defs>
</svg>
