<?xml version="1.0" encoding="UTF-8" standalone="no"?>
<svg xmlns:ffdec="https://www.free-decompiler.com/flash" xmlns:xlink="http://www.w3.org/1999/xlink" ffdec:objectType="shape" height="26.0px" width="26.0px" xmlns="http://www.w3.org/2000/svg">
  <g transform="matrix(1.0, 0.0, 0.0, 1.0, 0.0, 0.0)">
    <path d="M24.1 1.95 Q25.15 3.0 25.65 4.35 L25.9 5.45 26.0 6.45 26.0 6.5 26.0 19.5 26.0 19.65 25.75 21.3 Q25.3 22.85 24.1 24.05 22.15 26.0 19.4 26.0 L6.6 26.0 Q3.9 26.0 1.95 24.05 0.0 22.15 0.0 19.4 L0.05 12.05 Q0.4 7.05 4.1 3.6 7.8 0.1 12.85 0.0 L19.4 0.0 Q22.15 0.0 24.1 1.95 M21.95 4.05 Q23.05 5.1 23.05 6.6 L23.05 19.4 Q23.05 20.9 21.95 21.95 20.9 23.05 19.4 23.05 L6.6 23.05 Q5.1 23.05 4.05 21.95 2.95 20.9 2.95 19.4 L3.0 12.15 Q3.35 8.35 6.2 5.7 9.05 3.05 12.9 2.95 L19.4 2.95 Q20.9 2.95 21.95 4.05 M23.1 2.95 Q21.6 1.4 19.4 1.4 L12.85 1.4 Q8.4 1.5 5.1 4.55 1.8 7.65 1.45 12.1 L1.4 19.4 Q1.4 21.55 2.95 23.1 4.45 24.6 6.6 24.6 L19.4 24.6 Q21.6 24.6 23.1 23.1 24.6 21.6 24.6 19.4 L24.6 6.6 Q24.6 4.45 23.1 2.95" fill="#000000" fill-rule="evenodd" stroke="none"/>
    <path d="M21.95 4.05 Q20.9 2.95 19.4 2.95 L12.9 2.95 Q9.05 3.05 6.2 5.7 3.35 8.35 3.0 12.15 L2.95 19.4 Q2.95 20.9 4.05 21.95 5.1 23.05 6.6 23.05 L19.4 23.05 Q20.9 23.05 21.95 21.95 23.05 20.9 23.05 19.4 L23.05 6.6 Q23.05 5.1 21.95 4.05 M23.1 2.95 Q24.6 4.45 24.6 6.6 L24.6 19.4 Q24.6 21.6 23.1 23.1 21.6 24.6 19.4 24.6 L6.6 24.6 Q4.45 24.6 2.95 23.1 1.4 21.55 1.4 19.4 L1.45 12.1 Q1.8 7.65 5.1 4.55 8.4 1.5 12.85 1.4 L19.4 1.4 Q21.6 1.4 23.1 2.95" fill="#a6a8ab" fill-rule="evenodd" stroke="none"/>
  </g>
</svg>
