<?xml version="1.0" encoding="UTF-8" standalone="no"?>
<svg xmlns:ffdec="https://www.free-decompiler.com/flash" xmlns:xlink="http://www.w3.org/1999/xlink" ffdec:objectType="shape" height="26.0px" width="35.75px" xmlns="http://www.w3.org/2000/svg">
  <g transform="matrix(1.0, 0.0, 0.0, 1.0, 0.0, 0.0)">
    <path d="M4.0 3.0 Q3.9 3.0 3.8 3.0 3.7 3.05 3.6 3.1 3.5 3.1 3.45 3.15 3.35 3.2 3.3 3.3 3.2 3.35 3.15 3.45 3.1 3.5 3.1 3.6 3.05 3.7 3.0 3.8 3.0 3.9 3.0 4.0 L3.0 22.0 Q3.0 22.1 3.0 22.2 3.05 22.3 3.1 22.4 3.1 22.5 3.15 22.55 3.2 22.65 3.3 22.7 3.35 22.8 3.45 22.85 3.5 22.9 3.6 22.9 3.7 22.95 3.8 23.0 3.9 23.0 4.0 23.0 L31.75 23.0 Q31.85 23.0 31.95 23.0 32.05 22.95 32.15 22.9 32.25 22.9 32.3 22.85 32.4 22.8 32.45 22.7 32.55 22.65 32.6 22.55 32.65 22.5 32.65 22.4 32.7 22.3 32.75 22.2 32.75 22.1 32.75 22.0 L32.75 4.0 Q32.75 3.9 32.75 3.8 32.7 3.7 32.65 3.6 32.65 3.5 32.6 3.45 32.55 3.35 32.45 3.3 32.4 3.2 32.3 3.15 32.25 3.1 32.15 3.1 32.05 3.05 31.95 3.0 31.85 3.0 31.75 3.0 L4.0 3.0 4.0 3.0 M9.9 8.5 L14.65 8.5 14.65 9.5 11.0 9.5 11.0 12.05 14.65 12.05 14.65 13.05 11.0 13.05 11.0 16.5 14.65 16.5 14.65 17.5 9.9 17.5 9.9 8.5 9.9 8.5 M18.0 11.65 Q18.1 11.65 18.2 11.65 18.25 11.65 18.35 11.7 18.45 11.7 18.5 11.7 18.6 11.7 18.65 11.75 18.75 11.75 18.85 11.8 18.9 11.8 18.95 11.85 19.05 11.85 19.1 11.9 19.2 11.95 19.25 11.95 19.3 12.0 19.4 12.05 19.45 12.05 19.5 12.1 19.55 12.15 19.6 12.2 19.65 12.25 19.7 12.3 19.75 12.35 19.8 12.4 19.85 12.5 19.85 12.55 19.9 12.6 19.95 12.65 19.95 12.7 20.0 12.8 L19.2 13.25 Q19.2 13.2 19.15 13.15 19.15 13.1 19.1 13.1 19.1 13.05 19.05 13.0 19.05 12.95 19.0 12.9 18.95 12.9 18.95 12.85 18.9 12.8 18.85 12.8 18.85 12.75 18.8 12.75 18.75 12.7 18.7 12.65 18.65 12.65 18.6 12.6 18.6 12.6 18.55 12.55 18.5 12.55 18.45 12.55 18.4 12.55 18.35 12.5 18.3 12.5 18.25 12.5 18.2 12.5 18.15 12.5 18.1 12.45 18.05 12.45 18.0 12.45 17.95 12.45 17.9 12.45 17.85 12.45 17.8 12.45 17.75 12.45 17.7 12.5 17.65 12.5 17.6 12.5 17.55 12.5 17.5 12.55 17.45 12.55 17.4 12.6 17.4 12.6 17.35 12.6 17.3 12.65 17.25 12.7 17.25 12.7 17.2 12.75 17.2 12.75 17.15 12.8 17.15 12.85 17.1 12.85 17.1 12.9 17.05 12.95 17.05 12.95 17.0 13.0 17.0 13.05 17.0 13.1 17.0 13.15 17.0 13.15 17.0 13.2 16.95 13.25 16.95 13.3 16.95 13.35 17.0 13.45 17.0 13.5 17.05 13.55 17.05 13.6 17.15 13.65 17.2 13.75 17.25 13.8 17.3 13.85 17.4 13.9 17.5 13.95 17.6 14.0 17.7 14.05 17.85 14.1 17.95 14.15 18.1 14.15 18.15 14.15 18.2 14.2 18.2 14.2 18.25 14.2 18.3 14.25 18.3 14.25 18.35 14.25 18.35 14.25 18.4 14.25 18.45 14.3 18.55 14.35 18.65 14.35 18.75 14.4 18.85 14.45 18.95 14.5 19.05 14.5 19.15 14.55 19.2 14.6 19.3 14.65 19.35 14.7 19.4 14.75 19.5 14.75 19.55 14.8 19.6 14.85 19.65 14.9 19.7 14.95 19.75 15.0 19.8 15.05 19.8 15.1 19.85 15.15 19.9 15.2 19.9 15.25 19.95 15.35 19.95 15.4 20.0 15.45 20.0 15.5 20.05 15.6 20.05 15.65 20.05 15.75 20.05 15.8 20.05 15.85 20.05 15.95 20.05 16.05 20.05 16.15 20.05 16.25 20.0 16.35 20.0 16.4 20.0 16.5 19.95 16.6 19.9 16.65 19.9 16.75 19.85 16.85 19.8 16.9 19.75 17.0 19.7 17.05 19.6 17.1 19.55 17.2 19.5 17.25 19.45 17.3 19.35 17.35 19.25 17.4 19.2 17.45 19.1 17.5 19.0 17.55 18.95 17.6 18.85 17.6 18.75 17.65 18.65 17.65 18.55 17.7 18.45 17.7 18.35 17.7 18.25 17.75 18.1 17.75 18.0 17.75 17.9 17.75 17.8 17.75 17.7 17.75 17.65 17.75 17.55 17.7 17.45 17.7 17.35 17.7 17.3 17.65 17.2 17.65 17.1 17.65 17.05 17.6 16.95 17.55 16.9 17.55 16.8 17.5 16.75 17.5 16.65 17.45 16.6 17.4 16.5 17.35 16.45 17.35 16.4 17.3 16.35 17.25 16.3 17.2 16.25 17.15 16.15 17.05 16.1 17.0 16.05 16.95 16.0 16.9 15.95 16.85 15.9 16.75 15.85 16.7 15.85 16.65 15.8 16.55 L16.6 16.0 Q16.65 16.05 16.65 16.1 16.7 16.15 16.75 16.2 16.75 16.25 16.8 16.3 16.85 16.35 16.85 16.4 16.9 16.45 16.95 16.45 17.0 16.5 17.05 16.55 17.05 16.6 17.1 16.6 17.15 16.65 17.2 16.7 17.25 16.7 17.3 16.75 17.35 16.75 17.4 16.8 17.45 16.8 17.5 16.8 17.55 16.85 17.6 16.85 17.65 16.85 17.7 16.85 17.75 16.9 17.8 16.9 17.85 16.9 17.95 16.9 18.0 16.9 18.05 16.9 18.1 16.9 18.15 16.9 18.2 16.9 18.25 16.9 18.3 16.9 18.4 16.85 18.45 16.85 18.45 16.85 18.5 16.85 18.55 16.8 18.6 16.8 18.65 16.75 18.7 16.75 18.75 16.7 18.75 16.7 18.8 16.65 18.85 16.6 18.85 16.6 18.9 16.55 18.95 16.55 18.95 16.5 19.0 16.45 19.0 16.45 19.05 16.4 19.05 16.35 19.05 16.3 19.05 16.25 19.1 16.25 19.1 16.2 19.1 16.15 19.1 16.1 19.1 16.05 19.1 16.0 19.1 16.0 19.1 15.95 19.1 15.9 19.1 15.85 19.05 15.85 19.05 15.8 19.05 15.8 19.05 15.75 19.0 15.7 19.0 15.7 19.0 15.65 18.95 15.65 18.95 15.6 18.9 15.6 18.9 15.55 18.9 15.55 18.85 15.5 18.8 15.5 18.8 15.45 18.75 15.45 18.7 15.4 18.65 15.4 18.65 15.35 18.6 15.35 18.55 15.3 18.5 15.3 18.45 15.3 18.4 15.25 18.35 15.25 18.3 15.2 18.2 15.2 18.2 15.2 18.05 15.15 17.8 15.05 17.55 14.95 17.35 14.85 17.15 14.75 16.95 14.65 16.8 14.55 16.65 14.45 16.5 14.35 16.4 14.25 16.3 14.1 16.2 14.0 16.15 13.9 16.05 13.75 16.05 13.65 16.0 13.5 16.0 13.35 16.0 13.25 16.0 13.15 16.0 13.1 16.05 13.0 16.05 12.9 16.1 12.85 16.1 12.75 16.15 12.7 16.2 12.6 16.2 12.55 16.25 12.45 16.3 12.4 16.35 12.35 16.45 12.25 16.5 12.2 16.55 12.15 16.6 12.1 16.7 12.05 16.75 12.0 16.85 11.95 16.95 11.9 17.0 11.85 17.1 11.8 17.2 11.8 17.3 11.75 17.4 11.75 17.45 11.7 17.55 11.7 17.65 11.7 17.8 11.7 17.9 11.65 18.0 11.65 L18.0 11.65 M24.0 11.65 Q24.05 11.65 24.1 11.65 24.15 11.65 24.2 11.65 24.3 11.65 24.35 11.7 24.4 11.7 24.45 11.7 24.5 11.7 24.55 11.7 24.6 11.7 24.65 11.75 24.7 11.75 24.8 11.75 24.85 11.75 24.9 11.75 24.95 11.75 25.0 11.8 25.05 11.8 25.1 11.8 25.15 11.85 25.2 11.85 25.25 11.85 25.3 11.9 25.4 11.9 25.45 11.95 25.5 11.95 25.55 11.95 25.6 12.0 25.65 12.0 25.7 12.05 25.75 12.05 L25.75 13.1 Q25.7 13.05 25.65 13.05 25.6 13.0 25.55 13.0 25.5 12.95 25.45 12.95 25.4 12.9 25.35 12.9 25.3 12.85 25.25 12.85 25.2 12.8 25.15 12.8 25.1 12.8 25.05 12.75 25.0 12.75 24.95 12.75 24.9 12.75 24.85 12.7 24.8 12.7 24.75 12.7 24.7 12.65 24.65 12.65 24.6 12.65 24.55 12.65 24.5 12.65 24.45 12.6 24.4 12.6 24.35 12.6 24.3 12.6 24.25 12.6 24.2 12.6 24.15 12.6 24.05 12.6 23.95 12.6 23.8 12.6 23.7 12.65 23.6 12.65 23.5 12.7 23.4 12.7 23.3 12.75 23.2 12.8 23.15 12.85 23.05 12.9 22.95 12.95 22.85 13.0 22.8 13.05 22.7 13.1 22.65 13.2 22.6 13.25 22.5 13.35 22.45 13.45 22.4 13.5 22.35 13.6 22.3 13.7 22.25 13.8 22.2 13.9 22.2 14.0 22.15 14.1 22.15 14.2 22.1 14.3 22.1 14.4 22.1 14.55 22.1 14.65 22.1 14.75 22.1 14.85 22.1 14.95 22.1 15.1 22.1 15.2 22.15 15.3 22.15 15.4 22.2 15.45 22.2 15.55 22.25 15.65 22.3 15.75 22.35 15.85 22.4 15.9 22.45 16.0 22.5 16.05 22.6 16.15 22.65 16.2 22.7 16.3 22.8 16.35 22.85 16.4 22.95 16.45 23.05 16.5 23.1 16.55 23.2 16.6 23.3 16.65 23.4 16.7 23.5 16.7 23.6 16.75 23.7 16.75 23.8 16.8 23.9 16.8 24.0 16.8 24.1 16.8 24.15 16.8 24.2 16.8 24.25 16.8 24.3 16.8 24.35 16.8 24.4 16.8 24.45 16.8 24.55 16.75 24.6 16.75 24.65 16.75 24.7 16.75 24.75 16.7 24.8 16.7 24.85 16.7 24.9 16.65 24.95 16.65 25.0 16.65 25.05 16.6 25.1 16.6 25.15 16.55 25.2 16.55 25.25 16.5 25.3 16.5 25.4 16.45 25.45 16.4 25.5 16.4 25.55 16.35 25.6 16.3 25.65 16.3 25.7 16.25 25.75 16.2 25.85 16.15 L25.85 17.3 Q25.8 17.35 25.75 17.35 25.7 17.4 25.65 17.4 25.6 17.4 25.55 17.45 25.5 17.45 25.4 17.5 25.35 17.5 25.3 17.5 25.25 17.55 25.2 17.55 25.15 17.6 25.1 17.6 25.05 17.6 24.95 17.6 24.9 17.6 24.85 17.65 24.8 17.65 24.7 17.65 24.65 17.7 24.6 17.7 24.55 17.7 24.45 17.7 24.4 17.7 24.35 17.7 24.3 17.75 24.2 17.75 24.15 17.75 24.1 17.75 24.0 17.75 23.95 17.75 23.8 17.75 23.65 17.75 23.45 17.7 23.3 17.7 23.2 17.65 23.05 17.65 22.9 17.6 22.75 17.55 22.65 17.5 22.5 17.4 22.4 17.35 22.25 17.3 22.15 17.2 22.05 17.1 21.95 17.0 21.85 16.9 21.75 16.8 21.65 16.7 21.55 16.6 21.5 16.45 21.4 16.35 21.35 16.2 21.3 16.1 21.25 15.95 21.2 15.8 21.15 15.7 21.1 15.55 21.1 15.4 21.05 15.25 21.05 15.05 21.05 14.9 21.05 14.75 21.05 14.6 21.05 14.4 21.05 14.25 21.1 14.1 21.1 13.95 21.15 13.8 21.2 13.65 21.25 13.5 21.3 13.4 21.35 13.25 21.45 13.1 21.5 13.0 21.6 12.85 21.65 12.75 21.75 12.65 21.85 12.55 21.95 12.45 22.05 12.35 22.2 12.25 22.3 12.15 22.4 12.1 22.55 12.0 22.65 11.95 22.8 11.9 22.95 11.85 23.1 11.8 23.2 11.75 23.35 11.75 23.5 11.7 23.65 11.7 23.8 11.65 24.0 11.65 L24.0 11.65" fill="#ffffff" fill-rule="evenodd" stroke="none"/>
  </g>
</svg>
