<?xml version="1.0" encoding="UTF-8" standalone="no"?>
<svg xmlns:ffdec="https://www.free-decompiler.com/flash" xmlns:xlink="http://www.w3.org/1999/xlink" ffdec:objectType="shape" height="26.0px" width="41.75px" xmlns="http://www.w3.org/2000/svg">
  <g transform="matrix(1.0, 0.0, 0.0, 1.0, 0.0, 0.0)">
    <path d="M4.0 3.0 Q3.9 3.0 3.8 3.0 3.7 3.05 3.6 3.1 3.5 3.1 3.45 3.15 3.35 3.2 3.3 3.3 3.2 3.35 3.15 3.45 3.1 3.5 3.1 3.6 3.05 3.7 3.0 3.8 3.0 3.9 3.0 4.0 L3.0 22.0 Q3.0 22.1 3.0 22.2 3.05 22.3 3.1 22.4 3.1 22.5 3.15 22.55 3.2 22.65 3.3 22.7 3.35 22.8 3.45 22.85 3.5 22.9 3.6 22.9 3.7 22.95 3.8 23.0 3.9 23.0 4.0 23.0 L37.75 23.0 Q37.85 23.0 37.95 23.0 38.05 22.95 38.15 22.9 38.25 22.9 38.3 22.85 38.4 22.8 38.45 22.7 38.55 22.65 38.6 22.55 38.65 22.5 38.65 22.4 38.7 22.3 38.75 22.2 38.75 22.1 38.75 22.0 L38.75 4.0 Q38.75 3.9 38.75 3.8 38.7 3.7 38.65 3.6 38.65 3.5 38.6 3.45 38.55 3.35 38.45 3.3 38.4 3.2 38.3 3.15 38.25 3.1 38.15 3.1 38.05 3.05 37.95 3.0 37.85 3.0 37.75 3.0 L4.0 3.0 4.0 3.0 M28.15 7.95 L29.15 7.95 29.15 14.45 31.85 11.9 33.15 11.9 30.3 14.45 33.4 17.5 32.05 17.5 29.15 14.55 29.15 17.5 28.15 17.5 28.15 7.95 28.15 7.95 M8.35 8.5 L10.25 8.5 Q10.35 8.5 10.5 8.5 10.6 8.5 10.7 8.5 10.8 8.5 10.9 8.5 11.0 8.5 11.1 8.55 11.2 8.55 11.25 8.55 11.35 8.55 11.45 8.55 11.5 8.55 11.55 8.6 11.65 8.6 11.7 8.6 11.75 8.6 11.8 8.65 11.85 8.65 11.95 8.65 12.0 8.7 12.05 8.7 12.1 8.7 12.15 8.75 12.2 8.75 12.25 8.8 12.3 8.8 12.35 8.85 12.4 8.85 12.4 8.9 12.45 8.9 12.5 8.95 12.55 9.0 12.6 9.05 12.65 9.1 12.7 9.1 12.75 9.15 12.8 9.2 12.85 9.25 12.9 9.3 12.95 9.35 12.95 9.4 13.0 9.5 13.05 9.55 13.1 9.6 13.1 9.65 13.15 9.7 13.15 9.75 13.2 9.8 13.2 9.9 13.25 9.95 13.25 10.0 13.3 10.1 13.3 10.15 13.35 10.2 13.35 10.3 13.35 10.35 13.4 10.45 13.4 10.5 13.4 10.55 13.4 10.65 13.4 10.7 13.4 10.8 13.4 10.85 13.4 10.95 13.4 11.05 13.4 11.1 13.4 11.2 13.4 11.3 13.35 11.35 13.35 11.45 13.3 11.5 13.3 11.6 13.3 11.65 13.25 11.75 13.2 11.8 13.2 11.85 13.15 11.95 13.1 12.0 13.05 12.05 13.0 12.1 12.95 12.15 12.9 12.2 12.85 12.3 12.8 12.35 12.75 12.4 12.7 12.4 12.65 12.45 12.6 12.5 12.5 12.55 12.45 12.6 12.4 12.6 12.3 12.65 12.25 12.7 12.15 12.7 12.1 12.75 12.2 12.75 12.3 12.8 12.4 12.8 12.45 12.85 12.55 12.85 12.65 12.9 12.7 12.95 12.8 12.95 12.85 13.0 12.95 13.05 13.0 13.1 13.1 13.2 13.15 13.25 13.2 13.3 13.3 13.35 13.35 13.45 13.4 13.5 13.45 13.6 13.5 13.7 13.55 13.75 13.6 13.85 13.65 13.95 13.65 14.0 13.7 14.1 13.7 14.2 13.75 14.3 13.75 14.4 13.8 14.5 13.8 14.6 13.8 14.7 13.8 14.85 13.8 14.95 13.8 15.0 13.8 15.1 13.8 15.15 13.8 15.2 13.8 15.3 13.8 15.35 13.75 15.4 13.75 15.45 13.75 15.55 13.75 15.6 13.7 15.65 13.7 15.75 13.7 15.8 13.65 15.85 13.65 15.9 13.6 15.95 13.6 16.0 13.55 16.1 13.55 16.15 13.5 16.2 13.45 16.25 13.45 16.3 13.4 16.35 13.35 16.45 13.35 16.5 13.3 16.55 13.25 16.6 13.25 16.65 13.2 16.7 13.15 16.75 13.1 16.75 13.05 16.8 13.0 16.85 12.95 16.9 12.9 16.95 12.85 17.0 12.8 17.05 12.75 17.05 12.7 17.1 12.65 17.15 12.6 17.15 12.5 17.2 12.45 17.25 12.4 17.25 12.35 17.3 12.25 17.3 12.2 17.35 12.1 17.35 12.05 17.35 11.95 17.4 11.9 17.4 11.8 17.4 11.7 17.45 11.6 17.45 11.5 17.45 11.35 17.45 11.25 17.45 11.1 17.5 11.0 17.5 10.85 17.5 10.7 17.5 10.55 17.5 10.4 17.5 10.25 17.5 L8.35 17.5 8.35 8.5 8.35 8.5 M9.4 9.45 L9.4 12.45 10.25 12.45 Q10.4 12.45 10.5 12.45 10.65 12.45 10.75 12.4 10.9 12.4 11.0 12.4 11.1 12.4 11.2 12.35 11.3 12.35 11.4 12.3 11.5 12.3 11.55 12.25 11.65 12.2 11.7 12.2 11.8 12.15 11.85 12.1 11.9 12.05 11.95 12.0 12.0 11.95 12.05 11.9 12.1 11.85 12.15 11.8 12.15 11.75 12.2 11.65 12.25 11.6 12.25 11.5 12.25 11.45 12.3 11.35 12.3 11.25 12.3 11.2 12.3 11.1 12.3 11.0 12.3 10.9 12.3 10.8 12.3 10.7 12.3 10.6 12.25 10.5 12.25 10.4 12.25 10.35 12.2 10.25 12.2 10.2 12.15 10.1 12.1 10.05 12.05 10.0 12.05 9.9 12.0 9.85 11.95 9.8 11.9 9.8 11.85 9.75 11.75 9.7 11.7 9.65 11.65 9.65 11.55 9.6 11.45 9.55 11.35 9.55 11.25 9.5 11.15 9.5 11.05 9.5 10.9 9.45 10.8 9.45 10.65 9.45 10.55 9.45 10.4 9.45 10.25 9.45 L9.4 9.45 9.4 9.45 M17.55 11.65 Q17.65 11.65 17.75 11.65 17.8 11.65 17.9 11.7 18.0 11.7 18.05 11.7 18.15 11.75 18.2 11.75 18.3 11.75 18.35 11.8 18.45 11.8 18.5 11.85 18.6 11.9 18.65 11.9 18.7 11.95 18.8 12.0 18.85 12.05 18.9 12.1 19.0 12.1 19.05 12.15 19.1 12.2 19.15 12.25 19.2 12.35 19.25 12.4 19.3 12.45 19.35 12.5 19.4 12.55 19.45 12.65 19.5 12.7 19.55 12.8 19.6 12.85 19.6 12.95 L19.6 11.9 20.6 11.9 20.6 17.5 19.65 17.5 19.65 16.5 Q19.6 16.55 19.55 16.65 19.5 16.7 19.45 16.8 19.4 16.85 19.35 16.9 19.3 16.95 19.25 17.0 19.2 17.1 19.15 17.15 19.1 17.2 19.05 17.25 18.95 17.3 18.9 17.35 18.85 17.4 18.8 17.4 18.75 17.45 18.65 17.5 18.6 17.5 18.5 17.55 18.45 17.6 18.35 17.6 18.3 17.65 18.25 17.65 18.15 17.7 18.1 17.7 18.0 17.7 17.9 17.7 17.85 17.75 17.75 17.75 17.7 17.75 17.6 17.75 17.45 17.75 17.3 17.75 17.15 17.7 17.05 17.7 16.9 17.65 16.75 17.65 16.65 17.6 16.5 17.55 16.4 17.5 16.25 17.4 16.15 17.35 16.05 17.25 15.95 17.2 15.85 17.1 15.75 17.0 15.65 16.9 15.55 16.8 15.5 16.7 15.4 16.55 15.35 16.45 15.25 16.35 15.2 16.2 15.15 16.1 15.1 15.95 15.05 15.8 15.0 15.65 15.0 15.5 14.95 15.35 14.95 15.2 14.9 15.05 14.9 14.85 14.9 14.7 14.9 14.55 14.9 14.35 14.95 14.2 14.95 14.05 15.0 13.9 15.0 13.75 15.05 13.6 15.1 13.45 15.15 13.3 15.2 13.2 15.25 13.05 15.3 12.95 15.4 12.8 15.45 12.7 15.55 12.6 15.65 12.5 15.75 12.4 15.85 12.3 15.95 12.2 16.05 12.15 16.15 12.05 16.25 12.0 16.35 11.95 16.45 11.9 16.6 11.85 16.7 11.8 16.85 11.75 17.0 11.7 17.1 11.7 17.25 11.7 17.4 11.65 17.55 11.65 L17.55 11.65 M24.95 11.65 Q25.0 11.65 25.05 11.65 25.15 11.65 25.2 11.65 25.25 11.65 25.3 11.7 25.35 11.7 25.45 11.7 25.5 11.7 25.55 11.7 25.6 11.7 25.65 11.75 25.7 11.75 25.75 11.75 25.8 11.75 25.9 11.75 25.95 11.75 26.0 11.8 26.05 11.8 26.1 11.8 26.15 11.85 26.2 11.85 26.25 11.85 26.3 11.9 26.35 11.9 26.4 11.95 26.45 11.95 26.5 11.95 26.55 12.0 26.6 12.0 26.65 12.05 26.7 12.05 L26.7 13.1 Q26.65 13.05 26.6 13.05 26.55 13.0 26.55 13.0 26.5 12.95 26.45 12.95 26.4 12.9 26.35 12.9 26.3 12.85 26.25 12.85 26.2 12.8 26.15 12.8 26.1 12.8 26.05 12.75 26.0 12.75 25.95 12.75 25.9 12.75 25.85 12.7 25.8 12.7 25.75 12.7 25.7 12.65 25.65 12.65 25.6 12.65 25.55 12.65 25.5 12.65 25.45 12.6 25.4 12.6 25.35 12.6 25.3 12.6 25.25 12.6 25.2 12.6 25.15 12.6 25.05 12.6 24.9 12.6 24.8 12.6 24.7 12.65 24.6 12.65 24.5 12.7 24.4 12.7 24.3 12.75 24.2 12.8 24.1 12.85 24.05 12.9 23.95 12.95 23.85 13.0 23.8 13.05 23.7 13.1 23.65 13.2 23.6 13.25 23.5 13.35 23.45 13.45 23.4 13.5 23.35 13.6 23.3 13.7 23.25 13.8 23.2 13.9 23.2 14.0 23.15 14.1 23.1 14.2 23.1 14.3 23.1 14.4 23.1 14.55 23.05 14.65 23.05 14.75 23.05 14.85 23.05 14.95 23.1 15.1 23.1 15.2 23.1 15.3 23.15 15.4 23.15 15.45 23.2 15.55 23.25 15.65 23.3 15.75 23.35 15.85 23.4 15.9 23.45 16.0 23.5 16.05 23.55 16.15 23.65 16.2 23.7 16.3 23.8 16.35 23.85 16.4 23.95 16.45 24.05 16.5 24.1 16.55 24.2 16.6 24.3 16.65 24.4 16.7 24.5 16.7 24.55 16.75 24.65 16.75 24.75 16.8 24.85 16.8 25.0 16.8 25.1 16.8 25.15 16.8 25.2 16.8 25.25 16.8 25.3 16.8 25.35 16.8 25.4 16.8 25.45 16.8 25.5 16.75 25.55 16.75 25.65 16.75 25.7 16.75 25.75 16.7 25.8 16.7 25.85 16.7 25.9 16.65 25.95 16.65 26.0 16.65 26.05 16.6 26.1 16.6 26.15 16.55 26.2 16.55 26.25 16.5 26.3 16.5 26.35 16.45 26.45 16.4 26.5 16.4 26.55 16.35 26.6 16.3 26.65 16.3 26.7 16.25 26.75 16.2 26.8 16.15 L26.8 17.3 Q26.75 17.35 26.7 17.35 26.65 17.35 26.6 17.4 26.55 17.4 26.5 17.45 26.45 17.45 26.4 17.5 26.35 17.5 26.3 17.5 26.25 17.55 26.2 17.55 26.15 17.6 26.1 17.6 26.0 17.6 25.95 17.6 25.9 17.6 25.85 17.65 25.75 17.65 25.7 17.65 25.65 17.7 25.6 17.7 25.55 17.7 25.45 17.7 25.4 17.7 25.35 17.7 25.25 17.75 25.2 17.75 25.15 17.75 25.05 17.75 25.0 17.75 24.95 17.75 24.8 17.75 24.65 17.75 24.45 17.7 24.3 17.7 24.15 17.65 24.05 17.65 23.9 17.6 23.75 17.55 23.6 17.5 23.5 17.4 23.4 17.35 23.25 17.3 23.15 17.2 23.05 17.1 22.95 17.0 22.85 16.9 22.75 16.8 22.65 16.7 22.55 16.6 22.5 16.45 22.4 16.35 22.35 16.2 22.3 16.1 22.25 15.95 22.2 15.8 22.15 15.7 22.1 15.55 22.1 15.4 22.05 15.25 22.05 15.05 22.05 14.9 22.05 14.75 22.05 14.6 22.05 14.4 22.05 14.25 22.1 14.1 22.1 13.95 22.15 13.8 22.2 13.65 22.25 13.5 22.3 13.4 22.35 13.25 22.4 13.1 22.5 13.0 22.6 12.85 22.65 12.75 22.75 12.65 22.85 12.55 22.95 12.45 23.05 12.35 23.2 12.25 23.3 12.15 23.4 12.1 23.55 12.0 23.65 11.95 23.8 11.9 23.95 11.85 24.05 11.8 24.2 11.75 24.35 11.75 24.5 11.7 24.65 11.7 24.8 11.65 24.95 11.65 L24.95 11.65 M17.75 12.65 Q17.65 12.65 17.55 12.65 17.45 12.65 17.35 12.65 17.25 12.7 17.15 12.7 17.1 12.75 17.0 12.75 16.9 12.8 16.85 12.85 16.75 12.9 16.7 12.95 16.6 13.0 16.55 13.05 16.5 13.1 16.4 13.15 16.35 13.2 16.3 13.3 16.25 13.35 16.2 13.45 16.15 13.55 16.1 13.6 16.1 13.7 16.05 13.8 16.0 13.9 16.0 14.0 16.0 14.1 15.95 14.2 15.95 14.3 15.95 14.4 15.95 14.55 15.95 14.65 15.95 14.8 15.95 14.9 15.95 15.0 15.95 15.15 16.0 15.25 16.0 15.35 16.05 15.45 16.05 15.55 16.1 15.65 16.1 15.75 16.15 15.85 16.2 15.9 16.25 16.0 16.3 16.1 16.35 16.15 16.4 16.25 16.45 16.3 16.55 16.35 16.6 16.45 16.7 16.5 16.75 16.55 16.85 16.55 16.9 16.6 17.0 16.65 17.1 16.7 17.2 16.7 17.3 16.75 17.4 16.75 17.5 16.75 17.6 16.75 17.7 16.8 17.8 16.8 17.9 16.8 18.0 16.8 18.1 16.75 18.2 16.75 18.3 16.75 18.4 16.7 18.5 16.7 18.55 16.65 18.65 16.6 18.75 16.55 18.8 16.55 18.9 16.5 18.95 16.45 19.05 16.35 19.1 16.3 19.15 16.25 19.2 16.2 19.25 16.1 19.3 16.05 19.35 15.95 19.4 15.85 19.45 15.8 19.5 15.7 19.5 15.6 19.55 15.5 19.6 15.4 19.6 15.3 19.6 15.2 19.65 15.1 19.65 14.95 19.65 14.85 19.65 14.75 19.65 14.65 19.65 14.5 19.65 14.4 19.6 14.3 19.6 14.2 19.55 14.1 19.55 14.0 19.5 13.9 19.5 13.8 19.45 13.7 19.4 13.6 19.35 13.5 19.3 13.45 19.25 13.35 19.2 13.3 19.1 13.2 19.05 13.15 18.95 13.05 18.9 13.0 18.85 12.95 18.75 12.9 18.7 12.85 18.6 12.8 18.5 12.75 18.45 12.75 18.35 12.7 18.25 12.7 18.15 12.65 18.05 12.65 17.95 12.65 17.85 12.65 17.75 12.65 L17.75 12.65 M9.4 13.3 L9.4 16.55 10.25 16.55 Q10.45 16.55 10.65 16.55 10.8 16.55 11.0 16.55 11.15 16.55 11.25 16.55 11.35 16.5 11.45 16.5 11.5 16.5 11.55 16.5 11.6 16.45 11.65 16.45 11.7 16.45 11.75 16.45 11.75 16.4 11.8 16.4 11.85 16.4 11.9 16.35 11.9 16.35 11.95 16.35 12.0 16.3 12.0 16.3 12.05 16.3 12.1 16.25 12.15 16.25 12.15 16.2 12.2 16.2 12.2 16.15 12.25 16.1 12.25 16.1 12.3 16.05 12.35 16.05 12.35 16.0 12.4 15.95 12.4 15.9 12.45 15.9 12.45 15.85 12.45 15.8 12.5 15.75 12.5 15.7 12.5 15.65 12.55 15.6 12.55 15.55 12.6 15.55 12.6 15.5 12.6 15.45 12.6 15.4 12.65 15.35 12.65 15.3 12.65 15.25 12.65 15.2 12.65 15.15 12.65 15.1 12.65 15.05 12.65 15.0 12.65 14.95 12.65 14.9 12.65 14.85 12.65 14.75 12.65 14.7 12.65 14.65 12.65 14.6 12.65 14.55 12.6 14.5 12.6 14.45 12.6 14.4 12.6 14.35 12.55 14.3 12.55 14.25 12.55 14.2 12.5 14.15 12.5 14.1 12.45 14.05 12.45 14.0 12.4 13.95 12.4 13.9 12.35 13.9 12.3 13.85 12.3 13.8 12.25 13.75 12.2 13.75 12.2 13.7 12.15 13.65 12.1 13.65 12.05 13.6 12.0 13.6 12.0 13.55 11.95 13.5 11.9 13.5 11.9 13.5 11.85 13.45 11.85 13.45 11.8 13.45 11.75 13.45 11.75 13.4 11.7 13.4 11.65 13.4 11.65 13.4 11.6 13.4 11.55 13.35 11.55 13.35 11.5 13.35 11.45 13.35 11.45 13.35 11.4 13.35 11.35 13.35 11.35 13.35 11.3 13.3 11.25 13.3 11.2 13.3 11.15 13.3 11.05 13.3 11.0 13.3 10.95 13.3 10.9 13.3 10.85 13.3 10.75 13.3 10.7 13.3 10.65 13.3 10.55 13.3 L10.25 13.3 9.4 13.3 9.4 13.3" fill="#ffffff" fill-rule="evenodd" stroke="none"/>
  </g>
</svg>
