<?xml version="1.0" encoding="UTF-8" standalone="no"?>
<svg xmlns:ffdec="https://www.free-decompiler.com/flash" xmlns:xlink="http://www.w3.org/1999/xlink" ffdec:objectType="shape" height="26.0px" width="26.0px" xmlns="http://www.w3.org/2000/svg">
  <g transform="matrix(1.0, 0.0, 0.0, 1.0, 0.0, 0.0)">
    <path d="M4.0 3.0 Q3.9 3.0 3.8 3.0 3.7 3.05 3.6 3.1 3.5 3.1 3.45 3.15 3.35 3.2 3.3 3.3 3.2 3.35 3.15 3.45 3.1 3.5 3.1 3.6 3.05 3.7 3.0 3.8 3.0 3.9 3.0 4.0 L3.0 22.0 Q3.0 22.1 3.0 22.2 3.05 22.3 3.1 22.4 3.1 22.5 3.15 22.55 3.2 22.65 3.3 22.7 3.35 22.8 3.45 22.85 3.5 22.9 3.6 22.9 3.7 22.95 3.8 23.0 3.9 23.0 4.0 23.0 L22.0 23.0 Q22.1 23.0 22.2 23.0 22.3 22.95 22.4 22.9 22.5 22.9 22.55 22.85 22.65 22.8 22.7 22.7 22.8 22.65 22.85 22.55 22.9 22.5 22.9 22.4 22.95 22.3 23.0 22.2 23.0 22.1 23.0 22.0 L23.0 4.0 Q23.0 3.9 23.0 3.8 22.95 3.7 22.9 3.6 22.9 3.5 22.85 3.45 22.8 3.35 22.7 3.3 22.65 3.2 22.55 3.15 22.5 3.1 22.4 3.1 22.3 3.05 22.2 3.0 22.1 3.0 22.0 3.0 L4.0 3.0 4.0 3.0 M12.95 8.3 Q13.05 8.3 13.2 8.3 13.3 8.3 13.4 8.3 13.55 8.35 13.65 8.35 13.75 8.35 13.85 8.4 14.0 8.4 14.1 8.4 14.2 8.45 14.3 8.45 14.4 8.5 14.55 8.55 14.65 8.55 14.75 8.6 14.85 8.65 14.95 8.7 15.05 8.75 15.15 8.8 15.25 8.85 15.35 8.9 15.45 8.95 15.55 9.0 15.65 9.05 15.75 9.1 15.85 9.2 15.9 9.25 16.0 9.3 16.1 9.4 16.2 9.45 16.25 9.55 16.35 9.65 16.45 9.7 16.5 9.8 16.6 9.9 16.7 10.0 16.75 10.05 16.85 10.15 16.9 10.25 16.95 10.35 17.05 10.45 17.1 10.55 17.15 10.65 17.2 10.75 17.25 10.9 17.35 11.0 17.35 11.1 17.4 11.2 17.45 11.3 17.5 11.45 17.55 11.55 17.55 11.65 17.6 11.8 17.65 11.9 17.65 12.0 17.7 12.15 17.7 12.25 17.7 12.4 17.75 12.5 17.75 12.65 17.75 12.75 17.75 12.9 17.75 13.0 17.75 13.15 17.75 13.25 17.75 13.4 17.75 13.55 17.7 13.65 17.7 13.8 17.7 13.95 17.65 14.05 17.65 14.2 17.6 14.3 17.55 14.4 17.55 14.55 17.5 14.65 17.45 14.75 17.4 14.9 17.35 15.0 17.3 15.1 17.25 15.2 17.2 15.35 17.1 15.45 17.05 15.55 17.0 15.65 16.9 15.75 16.85 15.8 16.75 15.9 16.7 16.0 16.6 16.1 16.5 16.2 16.45 16.25 16.35 16.35 16.25 16.45 16.15 16.5 L17.85 18.35 16.55 18.35 15.35 17.1 Q15.3 17.15 15.2 17.15 15.15 17.2 15.05 17.25 15.0 17.25 14.95 17.3 14.85 17.35 14.8 17.35 14.7 17.4 14.65 17.4 14.55 17.45 14.5 17.45 14.4 17.5 14.35 17.5 14.25 17.55 14.15 17.55 14.1 17.55 14.0 17.6 13.9 17.6 13.85 17.6 13.75 17.65 13.65 17.65 13.6 17.65 13.5 17.65 13.4 17.65 13.35 17.7 13.25 17.7 13.15 17.7 13.05 17.7 12.95 17.7 12.9 17.7 12.8 17.7 12.7 17.7 12.6 17.7 12.5 17.7 12.4 17.7 12.3 17.7 12.25 17.65 12.15 17.65 12.05 17.65 11.95 17.65 11.85 17.6 11.75 17.6 11.7 17.6 11.6 17.55 11.5 17.55 11.4 17.5 11.35 17.5 11.25 17.45 11.15 17.45 11.1 17.4 11.0 17.35 10.9 17.35 10.85 17.3 10.75 17.25 10.65 17.2 10.6 17.15 10.5 17.1 10.45 17.05 10.35 17.0 10.3 17.0 10.2 16.9 10.15 16.85 10.05 16.8 9.95 16.7 9.8 16.65 9.7 16.55 9.6 16.45 9.5 16.35 9.4 16.25 9.3 16.15 9.2 16.05 9.15 15.95 9.05 15.85 8.95 15.75 8.9 15.6 8.8 15.5 8.75 15.4 8.7 15.25 8.6 15.15 8.55 15.05 8.5 14.9 8.45 14.8 8.4 14.65 8.35 14.5 8.3 14.4 8.3 14.25 8.25 14.15 8.2 14.0 8.2 13.85 8.2 13.7 8.15 13.6 8.15 13.45 8.15 13.3 8.15 13.15 8.15 13.0 8.15 12.9 8.15 12.75 8.15 12.65 8.15 12.55 8.15 12.4 8.2 12.3 8.2 12.2 8.25 12.1 8.25 11.95 8.3 11.85 8.3 11.75 8.35 11.65 8.35 11.55 8.4 11.4 8.45 11.3 8.5 11.2 8.55 11.1 8.6 11.0 8.65 10.9 8.7 10.8 8.75 10.7 8.8 10.6 8.85 10.5 8.95 10.4 9.0 10.3 9.1 10.2 9.15 10.1 9.2 10.0 9.3 9.95 9.4 9.85 9.45 9.75 9.55 9.65 9.65 9.55 9.7 9.5 9.8 9.4 9.9 9.35 10.0 9.3 10.1 9.2 10.2 9.15 10.3 9.1 10.4 9.0 10.5 8.95 10.6 8.9 10.7 8.85 10.8 8.8 10.9 8.75 11.0 8.7 11.1 8.65 11.2 8.6 11.3 8.55 11.45 8.55 11.55 8.5 11.65 8.45 11.75 8.45 11.9 8.4 12.0 8.4 12.1 8.35 12.25 8.35 12.35 8.35 12.45 8.3 12.6 8.3 12.7 8.3 12.8 8.3 12.95 8.3 L12.95 8.3 M12.95 9.35 Q12.85 9.35 12.75 9.35 12.65 9.35 12.6 9.35 12.5 9.35 12.4 9.35 12.3 9.4 12.2 9.4 12.15 9.4 12.05 9.45 11.95 9.45 11.85 9.5 11.8 9.5 11.7 9.55 11.6 9.55 11.5 9.6 11.4 9.65 11.35 9.7 11.25 9.7 11.2 9.75 11.1 9.8 11.05 9.85 10.95 9.9 10.9 9.95 10.8 10.0 10.75 10.05 10.65 10.1 10.6 10.15 10.55 10.2 10.45 10.3 10.4 10.35 10.35 10.4 10.3 10.45 10.2 10.55 10.15 10.6 10.1 10.65 10.05 10.75 10.0 10.8 9.95 10.9 9.9 10.95 9.85 11.05 9.8 11.1 9.75 11.2 9.7 11.25 9.65 11.35 9.6 11.45 9.6 11.5 9.55 11.6 9.5 11.7 9.5 11.75 9.45 11.85 9.4 11.95 9.4 12.0 9.4 12.1 9.35 12.2 9.35 12.3 9.3 12.35 9.3 12.45 9.3 12.55 9.3 12.65 9.25 12.75 9.25 12.8 9.25 12.9 9.25 13.0 9.25 13.1 9.25 13.25 9.25 13.35 9.3 13.45 9.3 13.6 9.3 13.7 9.35 13.8 9.35 13.9 9.4 14.0 9.4 14.1 9.45 14.25 9.5 14.35 9.5 14.45 9.55 14.55 9.6 14.65 9.65 14.7 9.7 14.8 9.75 14.9 9.8 15.0 9.85 15.1 9.95 15.15 10.0 15.25 10.05 15.35 10.15 15.45 10.2 15.5 10.3 15.6 10.35 15.65 10.45 15.75 10.55 15.8 10.6 15.9 10.7 15.95 10.8 16.05 10.85 16.1 10.9 16.1 10.95 16.15 11.05 16.2 11.1 16.25 11.15 16.25 11.2 16.3 11.25 16.3 11.3 16.35 11.4 16.4 11.45 16.4 11.5 16.45 11.55 16.45 11.65 16.5 11.7 16.5 11.75 16.5 11.8 16.5 11.9 16.55 11.95 16.55 12.0 16.6 12.1 16.6 12.15 16.6 12.25 16.65 12.3 16.65 12.35 16.65 12.45 16.65 12.5 16.65 12.55 16.65 12.65 16.7 12.7 16.7 12.8 16.7 12.85 16.7 12.9 16.7 13.0 16.7 13.05 16.7 13.1 16.7 13.15 16.7 13.2 16.65 13.3 16.65 13.35 16.65 13.4 16.65 13.45 16.65 13.5 16.65 13.55 16.65 13.65 16.6 13.7 16.6 13.75 16.6 13.8 16.6 13.85 16.6 13.9 16.55 13.95 16.55 14.0 16.55 14.05 16.5 14.1 16.5 14.15 16.5 14.2 16.45 14.25 16.45 14.3 16.4 14.35 16.4 14.4 16.4 14.45 16.35 14.5 16.35 14.55 16.3 14.6 16.3 L12.75 14.3 14.05 14.3 15.4 15.7 Q15.45 15.65 15.55 15.6 15.6 15.55 15.7 15.45 15.75 15.4 15.8 15.35 15.85 15.3 15.9 15.2 15.95 15.15 16.0 15.05 16.05 15.0 16.1 14.9 16.15 14.85 16.2 14.75 16.25 14.65 16.3 14.55 16.35 14.45 16.35 14.4 16.4 14.3 16.45 14.2 16.45 14.1 16.5 14.05 16.5 13.95 16.55 13.85 16.55 13.75 16.55 13.65 16.6 13.55 16.6 13.45 16.6 13.35 16.6 13.25 16.6 13.15 16.6 13.05 16.6 13.0 16.6 12.9 16.6 12.85 16.6 12.8 16.6 12.7 16.6 12.65 16.6 12.6 16.55 12.5 16.55 12.45 16.55 12.4 16.55 12.3 16.55 12.25 16.5 12.2 16.5 12.15 16.5 12.05 16.5 12.0 16.5 11.95 16.45 11.9 16.45 11.8 16.4 11.75 16.4 11.7 16.35 11.65 16.35 11.6 16.3 11.5 16.3 11.45 16.25 11.4 16.25 11.35 16.2 11.3 16.2 11.25 16.15 11.2 16.15 11.15 16.1 11.1 16.05 11.0 15.95 10.9 15.9 10.8 15.85 10.7 15.75 10.6 15.65 10.5 15.6 10.45 15.5 10.35 15.45 10.25 15.35 10.2 15.25 10.1 15.15 10.05 15.05 10.0 14.95 9.9 14.85 9.85 14.75 9.8 14.65 9.75 14.55 9.7 14.45 9.65 14.35 9.6 14.25 9.55 14.1 9.5 14.0 9.5 13.9 9.45 13.8 9.4 13.65 9.4 13.55 9.35 13.45 9.35 13.3 9.35 13.2 9.35 13.05 9.35 12.95 9.35 L12.95 9.35" fill="#ffffff" fill-rule="evenodd" stroke="none"/>
  </g>
</svg>
