<?xml version="1.0" encoding="UTF-8" standalone="no"?>
<svg xmlns:ffdec="https://www.free-decompiler.com/flash" xmlns:xlink="http://www.w3.org/1999/xlink" ffdec:objectType="shape" height="26.0px" width="41.75px" xmlns="http://www.w3.org/2000/svg">
  <g transform="matrix(1.0, 0.0, 0.0, 1.0, 0.0, 0.0)">
    <path d="M4.0 3.0 Q3.9 3.0 3.8 3.0 3.7 3.05 3.6 3.1 3.5 3.1 3.45 3.15 3.35 3.2 3.3 3.3 3.2 3.35 3.15 3.45 3.1 3.5 3.1 3.6 3.05 3.7 3.0 3.8 3.0 3.9 3.0 4.0 L3.0 22.0 Q3.0 22.1 3.0 22.2 3.05 22.3 3.1 22.4 3.1 22.5 3.15 22.55 3.2 22.65 3.3 22.7 3.35 22.8 3.45 22.85 3.5 22.9 3.6 22.9 3.7 22.95 3.8 23.0 3.9 23.0 4.0 23.0 L37.75 23.0 Q37.85 23.0 37.95 23.0 38.05 22.95 38.15 22.9 38.25 22.9 38.3 22.85 38.4 22.8 38.45 22.7 38.55 22.65 38.6 22.55 38.65 22.5 38.65 22.4 38.7 22.3 38.75 22.2 38.75 22.1 38.75 22.0 L38.75 4.0 Q38.75 3.9 38.75 3.8 38.7 3.7 38.65 3.6 38.65 3.5 38.6 3.45 38.55 3.35 38.45 3.3 38.4 3.2 38.3 3.15 38.25 3.1 38.15 3.1 38.05 3.05 37.95 3.0 37.85 3.0 37.75 3.0 L4.0 3.0 4.0 3.0 M7.55 8.5 L12.3 8.5 12.3 9.5 8.65 9.5 8.65 12.05 12.3 12.05 12.3 13.05 8.65 13.05 8.65 16.5 12.3 16.5 12.3 17.5 7.55 17.5 7.55 8.5 7.55 8.5 M21.2 9.6 L22.2 9.6 22.2 11.9 23.2 11.9 23.2 12.65 22.2 12.65 22.2 17.5 21.2 17.5 21.2 12.65 20.15 12.65 20.15 11.9 21.2 11.9 21.2 9.6 21.2 9.6 M26.6 11.65 Q26.75 11.65 26.9 11.65 27.05 11.7 27.2 11.7 27.35 11.75 27.5 11.75 27.6 11.8 27.75 11.85 27.85 11.9 27.95 11.95 28.1 12.05 28.2 12.1 28.3 12.2 28.4 12.25 28.5 12.35 28.6 12.45 28.7 12.55 28.75 12.65 28.85 12.75 28.9 12.9 29.0 13.0 29.05 13.15 29.1 13.25 29.15 13.4 29.2 13.55 29.2 13.7 29.25 13.85 29.3 14.0 29.3 14.15 29.3 14.3 29.3 14.45 29.3 14.65 L29.3 14.85 24.85 14.85 24.85 14.9 Q24.85 15.0 24.85 15.15 24.85 15.25 24.9 15.35 24.9 15.45 24.95 15.55 24.95 15.65 25.0 15.75 25.05 15.85 25.05 15.9 25.1 16.0 25.15 16.1 25.2 16.15 25.25 16.25 25.3 16.3 25.4 16.4 25.45 16.45 25.55 16.5 25.6 16.6 25.65 16.65 25.75 16.7 25.8 16.7 25.9 16.75 26.0 16.8 26.05 16.85 26.15 16.85 26.25 16.9 26.35 16.9 26.45 16.9 26.55 16.95 26.65 16.95 26.75 16.95 26.8 16.95 26.9 16.95 26.95 16.95 27.0 16.9 27.1 16.9 27.15 16.9 27.2 16.9 27.25 16.85 27.35 16.85 27.4 16.8 27.45 16.8 27.5 16.75 27.6 16.75 27.65 16.7 27.7 16.65 27.75 16.65 27.8 16.6 27.85 16.55 27.9 16.5 27.95 16.45 28.05 16.4 28.1 16.35 28.15 16.3 28.2 16.25 28.25 16.2 28.3 16.15 28.35 16.05 28.35 16.0 28.4 15.95 28.45 15.85 28.5 15.8 28.55 15.7 L29.3 16.2 Q29.25 16.3 29.2 16.4 29.15 16.5 29.05 16.55 29.0 16.65 28.95 16.7 28.85 16.8 28.8 16.85 28.75 16.95 28.65 17.0 28.6 17.05 28.5 17.15 28.45 17.2 28.35 17.25 28.3 17.3 28.2 17.35 28.1 17.4 28.05 17.45 27.95 17.5 27.85 17.5 27.75 17.55 27.7 17.6 27.6 17.6 27.5 17.65 27.4 17.65 27.3 17.7 27.2 17.7 27.1 17.7 27.0 17.75 26.9 17.75 26.8 17.75 26.7 17.75 26.55 17.75 26.4 17.75 26.2 17.7 26.1 17.7 25.95 17.65 25.8 17.6 25.65 17.6 25.5 17.55 25.4 17.5 25.25 17.4 25.15 17.35 25.05 17.25 24.9 17.2 24.8 17.1 24.7 17.0 24.6 16.9 24.5 16.8 24.4 16.7 24.35 16.55 24.25 16.45 24.2 16.3 24.1 16.2 24.05 16.05 24.0 15.9 23.95 15.75 23.9 15.6 23.9 15.5 23.85 15.3 23.85 15.15 23.8 15.0 23.8 14.85 23.8 14.65 23.8 14.5 23.8 14.35 23.85 14.2 23.85 14.05 23.9 13.9 23.9 13.75 23.95 13.6 24.0 13.45 24.05 13.35 24.1 13.2 24.2 13.05 24.25 12.95 24.35 12.85 24.4 12.7 24.5 12.6 24.6 12.5 24.7 12.4 24.8 12.3 24.9 12.2 25.0 12.15 25.15 12.05 25.25 12.0 25.35 11.9 25.5 11.85 25.6 11.8 25.75 11.8 25.9 11.75 26.05 11.7 26.15 11.7 26.3 11.65 26.45 11.65 26.6 11.65 L26.6 11.65 M17.0 11.65 Q17.15 11.65 17.25 11.65 17.35 11.7 17.5 11.7 17.6 11.7 17.7 11.75 17.8 11.75 17.9 11.8 18.0 11.85 18.1 11.9 18.2 11.9 18.25 11.95 18.35 12.0 18.45 12.1 18.5 12.15 18.6 12.2 18.65 12.25 18.7 12.35 18.8 12.4 18.85 12.5 18.9 12.55 18.9 12.65 18.95 12.75 19.0 12.85 19.05 12.9 19.05 13.0 19.1 13.1 19.1 13.25 19.1 13.35 19.15 13.45 19.15 13.55 19.15 13.65 L19.15 17.5 18.15 17.5 18.15 14.2 Q18.15 14.1 18.15 14.0 18.15 13.9 18.15 13.8 18.1 13.7 18.1 13.6 18.1 13.5 18.05 13.45 18.05 13.35 18.0 13.3 18.0 13.2 17.95 13.15 17.9 13.1 17.9 13.05 17.85 12.95 17.8 12.9 17.75 12.85 17.7 12.8 17.65 12.75 17.6 12.75 17.55 12.7 17.45 12.65 17.4 12.65 17.35 12.6 17.25 12.6 17.2 12.55 17.1 12.55 17.05 12.55 16.95 12.5 16.85 12.5 16.8 12.5 16.7 12.5 16.65 12.5 16.6 12.5 16.55 12.5 16.5 12.5 16.45 12.5 16.4 12.5 16.35 12.55 16.3 12.55 16.25 12.55 16.2 12.55 16.15 12.6 16.1 12.6 16.05 12.6 16.0 12.6 15.95 12.65 15.9 12.65 15.85 12.65 15.8 12.7 15.75 12.7 15.75 12.75 15.7 12.75 15.65 12.8 15.6 12.8 15.6 12.85 15.55 12.9 15.5 12.9 15.45 12.95 15.45 12.95 15.4 13.0 15.35 13.05 15.35 13.05 15.3 13.1 15.3 13.15 15.25 13.15 15.25 13.2 15.25 13.2 15.2 13.25 15.2 13.3 15.15 13.3 15.15 13.35 15.15 13.35 15.15 13.4 15.1 13.45 15.1 13.45 15.1 13.5 15.1 13.55 15.05 13.55 15.05 13.6 15.05 13.7 15.0 13.85 15.0 14.0 15.0 14.15 15.0 14.35 15.0 14.6 L15.0 17.5 14.05 17.5 14.05 11.9 14.95 11.9 14.95 12.75 Q15.0 12.7 15.05 12.6 15.1 12.55 15.15 12.5 15.2 12.45 15.25 12.4 15.3 12.3 15.35 12.25 15.4 12.2 15.5 12.15 15.55 12.15 15.6 12.1 15.65 12.05 15.7 12.0 15.8 11.95 15.85 11.95 15.9 11.9 16.0 11.9 16.05 11.85 16.1 11.85 16.2 11.8 16.25 11.8 16.3 11.75 16.4 11.75 16.45 11.7 16.55 11.7 16.6 11.7 16.7 11.7 16.8 11.7 16.85 11.7 16.95 11.65 17.0 11.65 L17.0 11.65 M33.55 11.7 Q33.6 11.7 33.6 11.7 33.65 11.7 33.7 11.7 33.75 11.7 33.8 11.7 33.8 11.7 33.85 11.7 34.1 11.75 34.2 11.8 L33.85 12.65 Q33.65 12.6 33.55 12.6 33.5 12.6 33.45 12.55 33.4 12.55 33.35 12.55 33.3 12.55 33.25 12.55 33.15 12.55 33.05 12.55 33.0 12.55 32.9 12.6 32.8 12.6 32.75 12.65 32.65 12.65 32.6 12.7 32.55 12.7 32.45 12.75 32.4 12.8 32.35 12.85 32.3 12.9 32.2 13.0 32.15 13.05 32.1 13.1 32.05 13.15 32.0 13.25 32.0 13.35 31.95 13.4 31.9 13.5 31.9 13.6 31.85 13.7 31.85 13.8 31.8 13.9 31.8 14.0 31.8 14.1 31.75 14.25 31.75 14.35 31.75 14.5 31.75 14.6 31.75 14.75 L31.75 17.5 30.8 17.5 30.8 11.9 31.65 11.9 31.65 13.05 Q31.7 12.95 31.75 12.85 31.8 12.8 31.85 12.7 31.9 12.65 31.95 12.55 32.0 12.5 32.05 12.4 32.1 12.35 32.15 12.3 32.2 12.25 32.25 12.2 32.3 12.15 32.35 12.1 32.4 12.05 32.45 12.0 32.5 11.95 32.55 11.95 32.65 11.9 32.7 11.85 32.75 11.85 32.8 11.8 32.9 11.8 32.95 11.75 33.0 11.75 33.1 11.75 33.15 11.7 33.25 11.7 33.3 11.7 33.4 11.7 33.45 11.7 33.55 11.7 L33.55 11.7 M26.6 12.5 Q26.5 12.5 26.4 12.5 26.35 12.5 26.25 12.55 26.15 12.55 26.1 12.55 26.0 12.6 25.95 12.6 25.85 12.65 25.8 12.65 25.7 12.7 25.65 12.75 25.6 12.8 25.55 12.85 25.45 12.85 25.4 12.95 25.35 13.0 25.3 13.05 25.25 13.1 25.2 13.15 25.15 13.2 25.1 13.3 25.05 13.35 25.05 13.4 25.0 13.5 25.0 13.55 24.95 13.65 24.95 13.7 24.9 13.8 24.9 13.9 24.9 13.95 24.85 14.05 L28.3 14.05 Q28.3 13.95 28.3 13.85 28.25 13.8 28.25 13.7 28.25 13.6 28.2 13.55 28.2 13.45 28.15 13.4 28.1 13.3 28.1 13.25 28.05 13.2 28.0 13.15 27.95 13.05 27.9 13.0 27.85 12.95 27.8 12.9 27.75 12.85 27.7 12.8 27.6 12.75 27.55 12.75 27.5 12.7 27.4 12.65 27.35 12.65 27.25 12.6 27.2 12.6 27.1 12.55 27.05 12.55 26.95 12.55 26.85 12.5 26.75 12.5 26.65 12.5 26.6 12.5 L26.6 12.5" fill="#ffffff" fill-rule="evenodd" stroke="none"/>
  </g>
</svg>
