<?xml version="1.0" encoding="UTF-8" standalone="no"?>
<svg xmlns:ffdec="https://www.free-decompiler.com/flash" xmlns:xlink="http://www.w3.org/1999/xlink" ffdec:objectType="shape" height="26.0px" width="26.0px" xmlns="http://www.w3.org/2000/svg">
  <g transform="matrix(1.0, 0.0, 0.0, 1.0, 0.0, 0.0)">
    <path d="M4.0 3.0 Q3.9 3.0 3.8 3.0 3.7 3.05 3.6 3.1 3.5 3.1 3.45 3.15 3.35 3.2 3.3 3.3 3.2 3.35 3.15 3.45 3.1 3.5 3.1 3.6 3.05 3.7 3.0 3.8 3.0 3.9 3.0 4.0 L3.0 22.0 Q3.0 22.1 3.0 22.2 3.05 22.3 3.1 22.4 3.1 22.5 3.15 22.55 3.2 22.65 3.3 22.7 3.35 22.8 3.45 22.85 3.5 22.9 3.6 22.9 3.7 22.95 3.8 23.0 3.9 23.0 4.0 23.0 L22.0 23.0 Q22.1 23.0 22.2 23.0 22.3 22.95 22.4 22.9 22.5 22.9 22.55 22.85 22.65 22.8 22.7 22.7 22.8 22.65 22.85 22.55 22.9 22.5 22.9 22.4 22.95 22.3 23.0 22.2 23.0 22.1 23.0 22.0 L23.0 4.0 Q23.0 3.9 23.0 3.8 22.95 3.7 22.9 3.6 22.9 3.5 22.85 3.45 22.8 3.35 22.7 3.3 22.65 3.2 22.55 3.15 22.5 3.1 22.4 3.1 22.3 3.05 22.2 3.0 22.1 3.0 22.0 3.0 L4.0 3.0 4.0 3.0 M13.0 8.3 Q13.1 8.3 13.2 8.3 13.3 8.3 13.4 8.3 13.5 8.3 13.6 8.35 13.65 8.35 13.75 8.35 13.85 8.4 13.95 8.4 14.0 8.45 14.1 8.5 14.2 8.5 14.25 8.55 14.35 8.6 14.4 8.65 14.5 8.7 14.55 8.75 14.6 8.8 14.7 8.85 14.75 8.9 14.8 8.95 14.9 9.0 14.95 9.05 15.0 9.1 15.05 9.2 15.1 9.25 15.15 9.35 15.2 9.4 15.25 9.5 15.3 9.55 15.35 9.65 L14.45 10.2 Q14.4 10.15 14.35 10.1 14.35 10.0 14.3 9.95 14.25 9.9 14.2 9.85 14.15 9.8 14.15 9.75 14.1 9.7 14.05 9.65 14.0 9.6 13.95 9.6 13.9 9.55 13.85 9.5 13.8 9.45 13.75 9.45 13.7 9.4 13.65 9.4 13.6 9.35 13.55 9.35 13.5 9.3 13.45 9.3 13.4 9.25 13.35 9.25 13.3 9.25 13.25 9.2 13.2 9.2 13.15 9.2 13.1 9.2 13.05 9.2 13.0 9.2 12.9 9.2 12.85 9.2 12.75 9.2 12.7 9.2 12.65 9.2 12.55 9.2 12.5 9.25 12.45 9.25 12.35 9.25 12.3 9.3 12.25 9.3 12.2 9.35 12.15 9.4 12.1 9.4 12.05 9.45 12.0 9.5 11.95 9.55 11.9 9.6 11.85 9.65 11.8 9.7 11.75 9.75 11.75 9.8 11.7 9.85 11.65 9.9 11.65 9.95 11.65 10.0 11.6 10.1 11.6 10.15 11.6 10.2 11.55 10.3 11.55 10.35 11.55 10.4 11.55 10.5 11.55 10.55 11.55 10.6 11.55 10.65 11.55 10.7 11.6 10.8 11.6 10.85 11.6 10.9 11.65 10.95 11.65 11.0 11.65 11.05 11.7 11.1 11.7 11.15 11.75 11.2 11.8 11.25 11.8 11.25 11.85 11.3 11.9 11.35 11.95 11.4 11.95 11.45 12.0 11.5 12.05 11.5 12.1 11.55 12.15 11.6 12.2 11.65 12.3 11.7 12.35 11.7 12.4 11.75 12.45 11.8 12.55 11.85 12.6 11.85 12.7 11.9 12.75 11.95 L14.05 12.5 Q14.15 12.55 14.25 12.6 14.35 12.65 14.45 12.7 14.55 12.75 14.65 12.8 14.75 12.9 14.8 12.95 14.9 13.0 15.0 13.05 15.05 13.15 15.1 13.2 15.2 13.25 15.25 13.35 15.3 13.4 15.35 13.5 15.4 13.6 15.45 13.65 15.5 13.75 15.55 13.8 15.6 13.9 15.65 14.0 15.65 14.1 15.7 14.2 15.75 14.25 15.75 14.35 15.8 14.45 15.8 14.55 15.8 14.65 15.8 14.75 15.8 14.85 15.8 14.95 15.8 15.1 15.8 15.25 15.8 15.4 15.75 15.55 15.75 15.7 15.7 15.85 15.65 15.95 15.6 16.1 15.55 16.2 15.5 16.35 15.45 16.45 15.35 16.55 15.3 16.65 15.2 16.75 15.1 16.9 15.05 16.95 14.95 17.05 14.85 17.15 14.75 17.2 14.6 17.3 14.5 17.35 14.35 17.45 14.25 17.5 14.1 17.55 14.0 17.6 13.85 17.6 13.7 17.65 13.55 17.7 13.4 17.7 13.25 17.7 13.1 17.75 12.95 17.75 12.8 17.75 12.7 17.75 12.55 17.7 12.45 17.7 12.3 17.7 12.2 17.65 12.05 17.65 11.95 17.6 11.85 17.55 11.75 17.5 11.65 17.45 11.55 17.4 11.45 17.35 11.35 17.3 11.25 17.25 11.15 17.2 11.05 17.15 11.0 17.05 10.9 16.95 10.8 16.9 10.75 16.8 10.7 16.7 10.6 16.6 10.55 16.55 10.5 16.45 10.45 16.3 10.4 16.2 10.35 16.1 10.3 16.0 10.25 15.9 10.2 15.75 10.2 15.65 L11.15 15.15 Q11.2 15.25 11.2 15.35 11.25 15.45 11.25 15.55 11.3 15.65 11.35 15.7 11.35 15.8 11.4 15.9 11.45 15.95 11.5 16.05 11.55 16.1 11.6 16.15 11.65 16.25 11.7 16.3 11.75 16.35 11.8 16.4 11.85 16.45 11.9 16.5 12.0 16.55 12.05 16.6 12.1 16.6 12.15 16.65 12.25 16.7 12.3 16.7 12.4 16.75 12.45 16.75 12.55 16.8 12.6 16.8 12.7 16.8 12.75 16.8 12.85 16.8 12.95 16.8 13.05 16.8 13.15 16.8 13.25 16.8 13.35 16.8 13.4 16.75 13.5 16.75 13.6 16.75 13.65 16.7 13.75 16.65 13.8 16.65 13.9 16.6 13.95 16.55 14.05 16.5 14.1 16.45 14.2 16.4 14.25 16.35 14.3 16.3 14.35 16.25 14.4 16.15 14.45 16.1 14.5 16.05 14.55 15.95 14.6 15.9 14.6 15.8 14.65 15.75 14.65 15.65 14.7 15.6 14.7 15.5 14.7 15.4 14.75 15.35 14.75 15.25 14.75 15.15 14.75 15.05 14.75 15.0 14.75 14.95 14.7 14.85 14.7 14.8 14.7 14.7 14.65 14.65 14.65 14.6 14.65 14.5 14.6 14.45 14.55 14.4 14.55 14.35 14.5 14.25 14.45 14.2 14.45 14.15 14.4 14.1 14.35 14.05 14.3 14.0 14.25 13.95 14.2 13.9 14.15 13.85 14.1 13.8 14.0 13.75 13.95 13.7 13.9 13.65 13.8 13.6 13.75 13.55 13.65 13.5 13.6 13.45 13.5 13.4 13.45 13.4 13.35 13.35 L12.25 12.9 Q12.15 12.85 12.05 12.8 11.95 12.75 11.85 12.7 11.75 12.65 11.65 12.55 11.55 12.5 11.45 12.45 11.4 12.4 11.3 12.35 11.25 12.25 11.15 12.2 11.1 12.15 11.0 12.05 10.95 12.0 10.9 11.9 10.85 11.85 10.8 11.75 10.75 11.7 10.7 11.6 10.65 11.5 10.65 11.45 10.6 11.35 10.6 11.25 10.55 11.15 10.55 11.1 10.5 11.0 10.5 10.9 10.5 10.8 10.5 10.7 10.45 10.6 10.45 10.5 10.45 10.4 10.45 10.25 10.5 10.15 10.5 10.05 10.55 9.95 10.55 9.85 10.6 9.7 10.65 9.6 10.7 9.5 10.75 9.45 10.8 9.35 10.85 9.25 10.95 9.15 11.0 9.05 11.1 9.0 11.2 8.9 11.3 8.8 11.4 8.75 11.45 8.7 11.55 8.65 11.65 8.6 11.8 8.55 11.9 8.5 12.0 8.45 12.1 8.4 12.25 8.35 12.35 8.35 12.5 8.3 12.6 8.3 12.75 8.3 12.85 8.3 13.0 8.3 L13.0 8.3" fill="#ffffff" fill-rule="evenodd" stroke="none"/>
  </g>
</svg>
