<?xml version="1.0" encoding="UTF-8" standalone="no"?>
<svg xmlns:ffdec="https://www.free-decompiler.com/flash" xmlns:xlink="http://www.w3.org/1999/xlink" ffdec:objectType="shape" height="26.0px" width="26.0px" xmlns="http://www.w3.org/2000/svg">
  <g transform="matrix(1.0, 0.0, 0.0, 1.0, 0.0, 0.0)">
    <path d="M4.0 3.0 Q3.9 3.0 3.8 3.0 3.7 3.05 3.6 3.1 3.5 3.1 3.45 3.15 3.35 3.2 3.3 3.3 3.2 3.35 3.15 3.45 3.1 3.5 3.1 3.6 3.05 3.7 3.0 3.8 3.0 3.9 3.0 4.0 L3.0 22.0 Q3.0 22.1 3.0 22.2 3.05 22.3 3.1 22.4 3.1 22.5 3.15 22.55 3.2 22.65 3.3 22.7 3.35 22.8 3.45 22.85 3.5 22.9 3.6 22.9 3.7 22.95 3.8 23.0 3.9 23.0 4.0 23.0 L22.0 23.0 Q22.1 23.0 22.2 23.0 22.3 22.95 22.4 22.9 22.5 22.9 22.55 22.85 22.65 22.8 22.7 22.7 22.8 22.65 22.85 22.55 22.9 22.5 22.9 22.4 22.95 22.3 23.0 22.2 23.0 22.1 23.0 22.0 L23.0 4.0 Q23.0 3.9 23.0 3.8 22.95 3.7 22.9 3.6 22.9 3.5 22.85 3.45 22.8 3.35 22.7 3.3 22.65 3.2 22.55 3.15 22.5 3.1 22.4 3.1 22.3 3.05 22.2 3.0 22.1 3.0 22.0 3.0 L4.0 3.0 4.0 3.0 M13.1 8.3 Q13.25 8.3 13.4 8.3 13.6 8.3 13.75 8.35 13.9 8.35 14.05 8.35 14.15 8.4 14.3 8.4 14.45 8.45 14.6 8.5 14.75 8.5 14.85 8.55 15.0 8.6 15.1 8.65 15.25 8.7 15.35 8.75 15.45 8.8 15.6 8.9 15.7 8.95 15.8 9.0 15.9 9.1 16.0 9.2 16.15 9.25 16.25 9.35 16.3 9.45 16.4 9.55 16.5 9.65 16.6 9.75 16.7 9.85 16.75 9.95 16.85 10.05 16.95 10.2 L16.05 10.9 Q16.0 10.8 15.9 10.7 15.85 10.6 15.8 10.5 15.7 10.45 15.65 10.35 15.55 10.25 15.5 10.2 15.4 10.1 15.35 10.05 15.25 9.95 15.15 9.9 15.1 9.85 15.0 9.8 14.9 9.75 14.85 9.7 14.75 9.65 14.65 9.6 14.55 9.55 14.45 9.5 14.35 9.45 14.25 9.45 14.15 9.4 14.05 9.35 13.95 9.35 13.85 9.35 13.7 9.3 13.6 9.3 13.5 9.3 13.4 9.25 13.25 9.25 13.15 9.25 12.95 9.25 12.75 9.25 12.6 9.3 12.4 9.35 12.2 9.35 12.05 9.4 11.9 9.45 11.7 9.55 11.55 9.6 11.4 9.7 11.25 9.75 11.1 9.85 11.0 9.95 10.85 10.1 10.7 10.2 10.6 10.35 10.5 10.5 10.35 10.6 10.25 10.75 10.15 10.9 10.1 11.05 10.0 11.2 9.9 11.4 9.85 11.55 9.8 11.7 9.75 11.9 9.7 12.1 9.7 12.3 9.65 12.45 9.65 12.65 9.6 12.9 9.6 13.1 9.6 13.3 9.6 13.5 9.65 13.7 9.65 13.85 9.7 14.05 9.75 14.2 9.8 14.4 9.85 14.55 9.95 14.7 10.0 14.9 10.1 15.05 10.2 15.2 10.25 15.35 10.4 15.45 10.5 15.6 10.6 15.75 10.75 15.9 10.85 16.0 11.0 16.1 11.15 16.2 11.3 16.3 11.45 16.35 11.6 16.45 11.75 16.5 11.9 16.6 12.05 16.6 12.25 16.65 12.4 16.7 12.6 16.75 12.75 16.75 12.95 16.75 13.15 16.75 13.3 16.75 13.5 16.75 13.65 16.75 13.8 16.7 13.95 16.7 14.1 16.65 14.25 16.6 14.4 16.55 14.5 16.5 14.65 16.45 14.8 16.4 14.9 16.3 15.05 16.25 15.15 16.15 15.3 16.05 15.4 15.95 15.5 15.85 15.6 15.75 15.7 15.65 15.8 15.5 15.9 15.4 15.95 15.25 16.05 15.15 16.1 15.0 16.15 14.85 16.2 14.75 16.25 14.6 16.3 14.45 16.35 14.3 16.35 14.15 16.4 13.95 16.4 13.8 L13.8 13.8 13.8 12.85 17.55 12.85 17.55 13.15 Q17.55 13.4 17.55 13.65 17.5 13.9 17.45 14.15 17.45 14.4 17.35 14.6 17.3 14.85 17.25 15.05 17.15 15.25 17.05 15.45 16.95 15.65 16.85 15.85 16.75 16.0 16.6 16.2 16.5 16.35 16.35 16.5 16.2 16.65 16.05 16.8 15.85 16.95 15.7 17.05 15.5 17.15 15.3 17.25 15.1 17.35 14.9 17.45 14.7 17.5 14.5 17.55 14.25 17.6 14.05 17.65 13.8 17.7 13.55 17.7 13.3 17.75 13.05 17.75 12.95 17.75 12.9 17.75 12.8 17.75 12.75 17.75 12.65 17.75 12.6 17.7 12.5 17.7 12.4 17.7 12.35 17.7 12.25 17.7 12.2 17.7 12.1 17.65 12.05 17.65 12.0 17.65 11.9 17.6 11.85 17.6 11.8 17.6 11.7 17.55 11.65 17.55 11.55 17.55 11.5 17.5 11.4 17.5 11.35 17.45 11.3 17.45 11.2 17.4 11.15 17.4 11.1 17.35 11.0 17.35 10.95 17.3 10.9 17.25 10.85 17.25 10.8 17.2 10.65 17.15 10.5 17.05 10.4 16.95 10.25 16.85 10.15 16.8 10.0 16.7 9.9 16.6 9.8 16.5 9.7 16.4 9.6 16.25 9.5 16.15 9.4 16.05 9.3 15.9 9.2 15.8 9.15 15.65 9.05 15.55 9.0 15.4 8.9 15.25 8.85 15.15 8.8 15.0 8.75 14.85 8.7 14.7 8.65 14.55 8.6 14.4 8.55 14.25 8.55 14.1 8.5 13.9 8.5 13.75 8.5 13.6 8.45 13.45 8.45 13.25 8.45 13.1 8.45 12.95 8.45 12.8 8.45 12.7 8.5 12.55 8.5 12.4 8.5 12.3 8.55 12.15 8.55 12.0 8.55 11.9 8.6 11.75 8.65 11.65 8.65 11.55 8.7 11.4 8.75 11.3 8.8 11.2 8.8 11.05 8.85 10.95 8.9 10.85 8.95 10.7 9.0 10.6 9.05 10.5 9.15 10.4 9.2 10.3 9.25 10.2 9.35 10.1 9.4 10.0 9.5 9.9 9.55 9.8 9.65 9.75 9.75 9.65 9.8 9.55 9.9 9.45 10.0 9.4 10.05 9.3 10.15 9.25 10.2 9.2 10.3 9.15 10.4 9.05 10.5 9.0 10.55 8.95 10.65 8.9 10.75 8.85 10.85 8.8 10.95 8.75 11.05 8.7 11.1 8.65 11.2 8.65 11.3 8.6 11.4 8.55 11.5 8.55 11.6 8.5 11.75 8.45 11.85 8.45 11.95 8.4 12.05 8.4 12.15 8.35 12.3 8.35 12.4 8.35 12.5 8.3 12.65 8.3 12.75 8.3 12.85 8.3 13.0 8.3 13.1 8.3 L13.1 8.3" fill="#ffffff" fill-rule="evenodd" stroke="none"/>
  </g>
</svg>
