<?xml version="1.0" encoding="UTF-8" standalone="no"?>
<svg xmlns:ffdec="https://www.free-decompiler.com/flash" xmlns:xlink="http://www.w3.org/1999/xlink" ffdec:objectType="shape" height="26.0px" width="26.0px" xmlns="http://www.w3.org/2000/svg">
  <g transform="matrix(1.0, 0.0, 0.0, 1.0, 0.0, 0.0)">
    <path d="M4.0 3.0 Q3.9 3.0 3.8 3.0 3.7 3.05 3.6 3.1 3.5 3.1 3.45 3.15 3.35 3.2 3.3 3.3 3.2 3.35 3.15 3.45 3.1 3.5 3.1 3.6 3.05 3.7 3.0 3.8 3.0 3.9 3.0 4.0 L3.0 22.0 Q3.0 22.1 3.0 22.2 3.05 22.3 3.1 22.4 3.1 22.5 3.15 22.55 3.2 22.65 3.3 22.7 3.35 22.8 3.45 22.85 3.5 22.9 3.6 22.9 3.7 22.95 3.8 23.0 3.9 23.0 4.0 23.0 L22.0 23.0 Q22.1 23.0 22.2 23.0 22.3 22.95 22.4 22.9 22.5 22.9 22.55 22.85 22.65 22.8 22.7 22.7 22.8 22.65 22.85 22.55 22.9 22.5 22.9 22.4 22.95 22.3 23.0 22.2 23.0 22.1 23.0 22.0 L23.0 4.0 Q23.0 3.9 23.0 3.8 22.95 3.7 22.9 3.6 22.9 3.5 22.85 3.45 22.8 3.35 22.7 3.3 22.65 3.2 22.55 3.15 22.5 3.1 22.4 3.1 22.3 3.05 22.2 3.0 22.1 3.0 22.0 3.0 L4.0 3.0 4.0 3.0 M13.85 8.5 L14.95 8.5 14.95 15.5 Q14.95 15.65 14.95 15.8 14.95 15.9 14.9 16.05 14.9 16.15 14.85 16.3 14.85 16.4 14.8 16.5 14.8 16.6 14.75 16.7 14.7 16.8 14.65 16.9 14.6 17.0 14.55 17.05 14.5 17.15 14.45 17.2 14.4 17.25 14.3 17.35 14.25 17.4 14.15 17.45 14.1 17.5 14.0 17.55 13.9 17.55 13.8 17.6 13.7 17.65 13.6 17.65 13.5 17.7 13.4 17.7 13.25 17.7 13.15 17.75 13.05 17.75 12.9 17.75 12.85 17.75 12.75 17.75 12.7 17.75 12.65 17.75 12.55 17.7 12.5 17.7 12.45 17.7 12.35 17.7 12.3 17.65 12.25 17.65 12.2 17.65 12.15 17.6 12.05 17.6 12.0 17.55 11.95 17.55 11.9 17.5 11.85 17.5 11.8 17.45 11.75 17.4 11.7 17.4 11.65 17.35 11.55 17.3 11.5 17.3 11.45 17.25 11.4 17.2 11.35 17.15 11.3 17.1 11.25 17.05 11.2 17.0 11.15 16.95 11.1 16.9 11.05 16.85 L11.75 16.15 Q11.8 16.2 11.85 16.25 11.9 16.25 11.9 16.3 11.95 16.35 12.0 16.35 12.05 16.4 12.1 16.45 12.1 16.45 12.15 16.5 12.2 16.5 12.25 16.55 12.3 16.55 12.3 16.6 12.35 16.6 12.4 16.65 12.45 16.65 12.45 16.7 12.5 16.7 12.55 16.7 12.55 16.7 12.6 16.75 12.65 16.75 12.65 16.75 12.7 16.75 12.75 16.75 12.8 16.75 12.8 16.75 12.85 16.8 12.9 16.8 12.95 16.8 12.95 16.8 13.0 16.8 13.05 16.8 13.15 16.8 13.2 16.75 13.25 16.75 13.3 16.75 13.35 16.7 13.4 16.7 13.45 16.65 13.45 16.65 13.5 16.6 13.55 16.6 13.55 16.55 13.6 16.5 13.65 16.45 13.65 16.4 13.7 16.35 13.7 16.3 13.7 16.25 13.75 16.2 13.75 16.1 13.8 16.05 13.8 15.95 13.8 15.9 13.8 15.8 13.85 15.7 13.85 15.6 13.85 15.5 13.85 15.35 13.85 15.25 13.85 15.15 13.85 15.0 L13.85 8.5 13.85 8.5" fill="#ffffff" fill-rule="evenodd" stroke="none"/>
  </g>
</svg>
