<?xml version="1.0" encoding="UTF-8" standalone="no"?>
<svg xmlns:ffdec="https://www.free-decompiler.com/flash" xmlns:xlink="http://www.w3.org/1999/xlink" ffdec:objectType="shape" height="26.0px" width="41.75px" xmlns="http://www.w3.org/2000/svg">
  <g transform="matrix(1.0, 0.0, 0.0, 1.0, 0.0, 0.0)">
    <path d="M4.0 3.0 Q3.9 3.0 3.8 3.0 3.7 3.05 3.6 3.1 3.5 3.1 3.45 3.15 3.35 3.2 3.3 3.3 3.2 3.35 3.15 3.45 3.1 3.5 3.1 3.6 3.05 3.7 3.0 3.8 3.0 3.9 3.0 4.0 L3.0 22.0 Q3.0 22.1 3.0 22.2 3.05 22.3 3.1 22.4 3.1 22.5 3.15 22.55 3.2 22.65 3.3 22.7 3.35 22.8 3.45 22.85 3.5 22.9 3.6 22.9 3.7 22.95 3.8 23.0 3.9 23.0 4.0 23.0 L37.75 23.0 Q37.85 23.0 37.95 23.0 38.05 22.95 38.15 22.9 38.25 22.9 38.3 22.85 38.4 22.8 38.45 22.7 38.55 22.65 38.6 22.55 38.65 22.5 38.65 22.4 38.7 22.3 38.75 22.2 38.75 22.1 38.75 22.0 L38.75 4.0 Q38.75 3.9 38.75 3.8 38.7 3.7 38.65 3.6 38.65 3.5 38.6 3.45 38.55 3.35 38.45 3.3 38.4 3.2 38.3 3.15 38.25 3.1 38.15 3.1 38.05 3.05 37.95 3.0 37.85 3.0 37.75 3.0 L4.0 3.0 4.0 3.0 M28.35 7.85 Q28.6 7.85 28.8 7.9 28.85 7.9 28.9 7.9 28.9 7.9 28.95 7.9 29.0 7.95 29.05 7.95 29.1 7.95 29.1 7.95 29.15 7.95 29.2 8.0 L29.2 9.0 Q29.15 8.95 29.1 8.95 29.1 8.95 29.05 8.9 29.0 8.9 28.95 8.9 28.95 8.85 28.9 8.85 28.85 8.85 28.8 8.85 28.75 8.85 28.7 8.8 28.7 8.8 28.65 8.8 28.6 8.8 28.55 8.8 28.5 8.8 28.45 8.8 28.4 8.8 28.35 8.8 28.3 8.8 28.25 8.8 28.2 8.8 28.15 8.8 28.1 8.85 28.1 8.85 28.05 8.85 28.0 8.9 28.0 8.9 27.95 8.95 27.9 8.95 27.9 9.0 27.85 9.0 27.85 9.05 27.85 9.1 27.8 9.15 27.8 9.15 27.8 9.25 27.75 9.3 27.75 9.35 27.75 9.45 27.75 9.5 27.7 9.6 27.7 9.7 27.7 9.8 27.7 9.9 27.7 10.0 27.7 10.1 27.7 10.25 27.7 10.4 L27.7 11.9 29.2 11.9 29.2 12.65 27.7 12.65 27.7 17.5 26.75 17.5 26.75 12.65 25.65 12.65 25.65 11.9 26.75 11.9 26.75 10.25 Q26.75 10.05 26.75 9.9 26.75 9.75 26.75 9.6 26.8 9.45 26.8 9.3 26.8 9.2 26.85 9.05 26.85 8.95 26.9 8.85 26.9 8.75 26.95 8.65 26.95 8.55 27.0 8.5 27.05 8.4 27.1 8.35 27.15 8.3 27.2 8.25 27.25 8.2 27.3 8.15 27.35 8.1 27.45 8.05 27.5 8.0 27.6 8.0 27.65 7.95 27.75 7.9 27.85 7.9 27.95 7.9 28.05 7.85 28.15 7.85 28.25 7.85 28.35 7.85 L28.35 7.85 M16.4 7.95 L17.35 7.95 17.35 12.75 Q17.4 12.7 17.45 12.6 17.5 12.55 17.55 12.5 17.6 12.45 17.65 12.4 17.7 12.3 17.75 12.25 17.8 12.2 17.9 12.15 17.95 12.15 18.0 12.1 18.05 12.05 18.1 12.0 18.15 11.95 18.25 11.95 18.3 11.9 18.4 11.9 18.45 11.85 18.5 11.85 18.6 11.8 18.65 11.8 18.7 11.75 18.8 11.75 18.85 11.7 18.95 11.7 19.0 11.7 19.1 11.7 19.15 11.7 19.25 11.7 19.35 11.65 19.4 11.65 19.55 11.65 19.65 11.65 19.75 11.7 19.9 11.7 20.0 11.7 20.1 11.75 20.2 11.75 20.3 11.8 20.4 11.85 20.5 11.9 20.6 11.9 20.65 11.95 20.75 12.0 20.85 12.1 20.9 12.15 20.95 12.2 21.0 12.25 21.1 12.35 21.15 12.4 21.2 12.5 21.25 12.55 21.3 12.65 21.35 12.75 21.4 12.85 21.45 12.9 21.45 13.0 21.5 13.1 21.5 13.25 21.5 13.35 21.5 13.45 21.55 13.55 21.55 13.65 L21.55 17.5 20.55 17.5 20.55 14.2 Q20.55 14.1 20.55 14.0 20.55 13.9 20.55 13.8 20.5 13.7 20.5 13.6 20.5 13.5 20.45 13.45 20.45 13.35 20.4 13.3 20.4 13.2 20.35 13.15 20.3 13.1 20.25 13.05 20.25 12.95 20.2 12.9 20.15 12.85 20.1 12.8 20.05 12.75 20.0 12.75 19.95 12.7 19.85 12.65 19.8 12.65 19.75 12.6 19.65 12.6 19.6 12.55 19.5 12.55 19.45 12.55 19.35 12.5 19.25 12.5 19.15 12.5 19.1 12.5 19.05 12.5 19.0 12.5 18.95 12.5 18.9 12.5 18.8 12.5 18.75 12.5 18.7 12.55 18.65 12.55 18.6 12.55 18.55 12.55 18.5 12.6 18.5 12.6 18.45 12.6 18.4 12.6 18.35 12.65 18.3 12.65 18.25 12.65 18.2 12.7 18.15 12.7 18.15 12.75 18.1 12.75 18.05 12.8 18.0 12.8 17.95 12.85 17.95 12.9 17.9 12.9 17.85 12.95 17.85 12.95 17.8 13.0 17.75 13.05 17.75 13.05 17.7 13.1 17.7 13.15 17.65 13.15 17.65 13.2 17.6 13.2 17.6 13.25 17.6 13.3 17.55 13.3 17.55 13.35 17.55 13.35 17.5 13.4 17.5 13.45 17.5 13.45 17.5 13.5 17.45 13.55 17.45 13.55 17.45 13.6 17.45 13.65 17.45 13.7 17.45 13.7 17.4 13.75 17.4 13.8 17.4 13.9 17.4 13.95 17.4 14.0 17.4 14.05 17.4 14.1 17.4 14.2 17.4 14.25 17.4 14.35 17.4 14.4 17.4 14.5 17.4 14.6 L17.4 17.5 16.4 17.5 16.4 7.95 16.4 7.95 M12.3 8.3 Q12.4 8.3 12.5 8.3 12.6 8.3 12.7 8.3 12.75 8.3 12.85 8.35 12.95 8.35 13.05 8.35 13.15 8.4 13.2 8.4 13.3 8.45 13.35 8.5 13.45 8.5 13.55 8.55 13.6 8.6 13.7 8.65 13.75 8.7 13.85 8.75 13.9 8.8 13.95 8.85 14.05 8.9 14.1 8.95 14.15 9.0 14.2 9.05 14.25 9.1 14.35 9.2 14.4 9.25 14.45 9.35 14.5 9.4 14.5 9.5 14.55 9.55 14.6 9.65 L13.7 10.2 Q13.65 10.15 13.65 10.1 13.6 10.0 13.55 9.95 13.5 9.9 13.5 9.85 13.45 9.8 13.4 9.75 13.35 9.7 13.3 9.65 13.3 9.6 13.25 9.6 13.2 9.55 13.15 9.5 13.1 9.45 13.05 9.45 13.0 9.4 12.95 9.4 12.9 9.35 12.85 9.35 12.8 9.3 12.75 9.3 12.7 9.25 12.65 9.25 12.6 9.25 12.55 9.2 12.5 9.2 12.45 9.2 12.4 9.2 12.3 9.2 12.25 9.2 12.2 9.2 12.15 9.2 12.05 9.2 12.0 9.2 11.9 9.2 11.85 9.2 11.8 9.25 11.7 9.25 11.65 9.25 11.6 9.3 11.55 9.3 11.45 9.35 11.4 9.4 11.35 9.4 11.3 9.45 11.25 9.5 11.2 9.55 11.15 9.6 11.1 9.65 11.05 9.7 11.05 9.75 11.0 9.8 11.0 9.85 10.95 9.9 10.9 9.95 10.9 10.0 10.9 10.1 10.85 10.15 10.85 10.2 10.85 10.3 10.85 10.35 10.85 10.4 10.85 10.5 10.85 10.55 10.85 10.6 10.85 10.65 10.85 10.7 10.85 10.8 10.9 10.85 10.9 10.9 10.9 10.95 10.9 11.0 10.95 11.05 10.95 11.1 11.0 11.15 11.0 11.2 11.05 11.25 11.1 11.25 11.15 11.3 11.2 11.35 11.2 11.4 11.25 11.45 11.3 11.5 11.35 11.5 11.4 11.55 11.45 11.6 11.5 11.65 11.55 11.7 11.6 11.7 11.7 11.75 11.75 11.8 11.8 11.85 11.9 11.85 11.95 11.9 12.05 11.95 L13.35 12.5 Q13.45 12.55 13.55 12.6 13.65 12.65 13.75 12.7 13.85 12.75 13.95 12.8 14.0 12.9 14.1 12.95 14.2 13.0 14.25 13.05 14.35 13.15 14.4 13.2 14.45 13.25 14.55 13.35 14.6 13.4 14.65 13.5 14.7 13.6 14.75 13.65 14.8 13.75 14.85 13.8 14.9 13.9 14.9 14.0 14.95 14.1 15.0 14.2 15.0 14.25 15.05 14.35 15.05 14.45 15.05 14.55 15.1 14.65 15.1 14.75 15.1 14.85 15.1 14.95 15.1 15.1 15.1 15.25 15.05 15.4 15.05 15.55 15.0 15.7 15.0 15.85 14.95 15.95 14.9 16.1 14.85 16.2 14.8 16.35 14.7 16.45 14.65 16.55 14.6 16.65 14.5 16.75 14.4 16.9 14.3 16.95 14.2 17.05 14.1 17.15 14.0 17.2 13.9 17.3 13.75 17.35 13.65 17.45 13.5 17.5 13.4 17.55 13.25 17.6 13.1 17.6 13.0 17.65 12.85 17.7 12.7 17.7 12.55 17.7 12.4 17.75 12.2 17.75 12.05 17.75 11.95 17.75 11.8 17.7 11.7 17.7 11.6 17.7 11.45 17.65 11.35 17.65 11.25 17.6 11.1 17.55 11.0 17.5 10.9 17.45 10.8 17.4 10.7 17.35 10.6 17.3 10.5 17.25 10.45 17.2 10.35 17.15 10.25 17.05 10.2 16.95 10.1 16.9 10.05 16.8 9.95 16.7 9.9 16.6 9.85 16.55 9.75 16.45 9.7 16.3 9.65 16.2 9.6 16.1 9.55 16.0 9.55 15.9 9.5 15.75 9.45 15.65 L10.45 15.15 Q10.45 15.25 10.5 15.35 10.5 15.45 10.55 15.55 10.6 15.65 10.6 15.7 10.65 15.8 10.7 15.9 10.75 15.95 10.8 16.05 10.8 16.1 10.85 16.15 10.9 16.25 10.95 16.3 11.0 16.35 11.1 16.4 11.15 16.45 11.2 16.5 11.25 16.55 11.35 16.6 11.4 16.6 11.45 16.65 11.5 16.7 11.6 16.7 11.65 16.75 11.75 16.75 11.8 16.8 11.9 16.8 11.95 16.8 12.05 16.8 12.15 16.8 12.2 16.8 12.3 16.8 12.4 16.8 12.5 16.8 12.6 16.8 12.7 16.75 12.75 16.75 12.85 16.75 12.95 16.7 13.0 16.65 13.1 16.65 13.2 16.6 13.25 16.55 13.3 16.5 13.4 16.45 13.45 16.4 13.5 16.35 13.55 16.3 13.6 16.25 13.7 16.15 13.75 16.1 13.8 16.05 13.8 15.95 13.85 15.9 13.9 15.8 13.9 15.75 13.95 15.65 13.95 15.6 14.0 15.5 14.0 15.4 14.0 15.35 14.0 15.25 14.0 15.15 14.0 15.05 14.0 15.0 14.0 14.95 14.0 14.85 14.0 14.8 13.95 14.7 13.95 14.65 13.9 14.6 13.9 14.5 13.9 14.45 13.85 14.4 13.8 14.35 13.8 14.25 13.75 14.2 13.7 14.15 13.65 14.1 13.6 14.05 13.55 14.0 13.5 13.95 13.45 13.9 13.4 13.85 13.35 13.8 13.3 13.75 13.25 13.7 13.15 13.65 13.1 13.6 13.0 13.55 12.95 13.5 12.85 13.45 12.8 13.4 12.7 13.4 12.6 13.35 L11.55 12.9 Q11.45 12.85 11.3 12.8 11.2 12.75 11.1 12.7 11.0 12.65 10.9 12.55 10.85 12.5 10.75 12.45 10.65 12.4 10.6 12.35 10.5 12.25 10.45 12.2 10.35 12.15 10.3 12.05 10.25 12.0 10.2 11.9 10.15 11.85 10.1 11.75 10.05 11.7 10.0 11.6 9.95 11.5 9.9 11.45 9.9 11.35 9.85 11.25 9.85 11.15 9.8 11.1 9.8 11.0 9.8 10.9 9.75 10.8 9.75 10.7 9.75 10.6 9.75 10.5 9.75 10.4 9.75 10.25 9.75 10.15 9.8 10.05 9.8 9.95 9.85 9.85 9.9 9.7 9.95 9.6 9.95 9.5 10.05 9.45 10.1 9.35 10.15 9.25 10.2 9.15 10.3 9.05 10.35 9.0 10.45 8.9 10.55 8.8 10.65 8.75 10.75 8.7 10.85 8.65 10.95 8.6 11.05 8.55 11.15 8.5 11.25 8.45 11.4 8.4 11.5 8.35 11.65 8.35 11.75 8.3 11.9 8.3 12.0 8.3 12.15 8.3 12.3 8.3 L12.3 8.3 M23.95 8.45 Q24.0 8.45 24.05 8.45 24.05 8.45 24.1 8.45 24.15 8.5 24.15 8.5 24.2 8.5 24.25 8.5 24.25 8.55 24.3 8.55 24.3 8.55 24.35 8.6 24.4 8.6 24.4 8.6 24.45 8.65 24.45 8.65 24.5 8.7 24.5 8.7 24.55 8.75 24.55 8.75 24.55 8.8 24.6 8.85 24.6 8.85 24.6 8.9 24.65 8.95 24.65 8.95 24.65 9.0 24.65 9.05 24.65 9.05 24.65 9.1 24.65 9.15 24.65 9.2 24.65 9.25 24.65 9.25 24.65 9.3 24.65 9.35 24.65 9.35 24.65 9.4 24.65 9.4 24.6 9.45 24.6 9.5 24.6 9.5 24.55 9.55 24.55 9.55 24.55 9.6 24.5 9.6 24.5 9.65 24.45 9.65 24.45 9.7 24.4 9.7 24.4 9.75 24.35 9.75 24.3 9.75 24.3 9.8 24.25 9.8 24.25 9.8 24.2 9.85 24.15 9.85 24.15 9.85 24.1 9.85 24.05 9.85 24.05 9.85 24.0 9.85 23.95 9.85 23.9 9.85 23.9 9.85 23.85 9.85 23.8 9.85 23.8 9.85 23.75 9.85 23.7 9.85 23.7 9.8 23.65 9.8 23.65 9.8 23.6 9.8 23.55 9.75 23.55 9.75 23.5 9.7 23.5 9.7 23.45 9.65 23.45 9.65 23.4 9.6 23.4 9.6 23.35 9.55 23.35 9.55 23.35 9.5 23.3 9.45 23.3 9.45 23.3 9.4 23.3 9.4 23.3 9.35 23.25 9.3 23.25 9.25 23.25 9.25 23.25 9.2 23.25 9.15 23.25 9.1 23.25 9.1 23.25 9.05 23.25 9.0 23.3 9.0 23.3 8.95 23.3 8.9 23.3 8.9 23.3 8.85 23.35 8.85 23.35 8.8 23.35 8.8 23.4 8.75 23.4 8.7 23.45 8.7 23.45 8.65 23.5 8.65 23.5 8.6 23.55 8.6 23.55 8.55 23.6 8.55 23.65 8.55 23.65 8.5 23.7 8.5 23.7 8.5 23.75 8.5 23.8 8.5 23.8 8.5 23.85 8.45 23.9 8.45 23.95 8.45 23.95 8.45 L23.95 8.45 M30.3 9.6 L31.25 9.6 31.25 11.9 32.3 11.9 32.3 12.65 31.25 12.65 31.25 17.5 30.3 17.5 30.3 12.65 29.25 12.65 29.25 11.9 30.3 11.9 30.3 9.6 30.3 9.6 M23.5 11.9 L24.45 11.9 24.45 17.5 23.5 17.5 23.5 11.9 23.5 11.9" fill="#ffffff" fill-rule="evenodd" stroke="none"/>
  </g>
</svg>
