<?xml version="1.0" encoding="UTF-8" standalone="no"?>
<svg xmlns:ffdec="https://www.free-decompiler.com/flash" xmlns:xlink="http://www.w3.org/1999/xlink" ffdec:objectType="shape" height="26.0px" width="26.0px" xmlns="http://www.w3.org/2000/svg">
  <g transform="matrix(1.0, 0.0, 0.0, 1.0, 0.0, 0.0)">
    <path d="M4.0 3.0 Q3.9 3.0 3.8 3.0 3.7 3.05 3.6 3.1 3.5 3.1 3.45 3.15 3.35 3.2 3.3 3.3 3.2 3.35 3.15 3.45 3.1 3.5 3.1 3.6 3.05 3.7 3.0 3.8 3.0 3.9 3.0 4.0 L3.0 22.0 Q3.0 22.1 3.0 22.2 3.05 22.3 3.1 22.4 3.1 22.5 3.15 22.55 3.2 22.65 3.3 22.7 3.35 22.8 3.45 22.85 3.5 22.9 3.6 22.9 3.7 22.95 3.8 23.0 3.9 23.0 4.0 23.0 L22.0 23.0 Q22.1 23.0 22.2 23.0 22.3 22.95 22.4 22.9 22.5 22.9 22.55 22.85 22.65 22.8 22.7 22.7 22.8 22.65 22.85 22.55 22.9 22.5 22.9 22.4 22.95 22.3 23.0 22.2 23.0 22.1 23.0 22.0 L23.0 4.0 Q23.0 3.9 23.0 3.8 22.95 3.7 22.9 3.6 22.9 3.5 22.85 3.45 22.8 3.35 22.7 3.3 22.65 3.2 22.55 3.15 22.5 3.1 22.4 3.1 22.3 3.05 22.2 3.0 22.1 3.0 22.0 3.0 L4.0 3.0 4.0 3.0 M13.0 16.15 Q13.05 16.15 13.05 16.15 13.1 16.15 13.15 16.15 13.2 16.2 13.2 16.2 13.25 16.2 13.3 16.2 13.3 16.25 13.35 16.25 13.35 16.25 13.4 16.3 13.45 16.3 13.45 16.35 13.5 16.35 13.5 16.4 13.55 16.4 13.55 16.45 13.6 16.45 13.6 16.5 13.65 16.55 13.65 16.55 13.65 16.6 13.7 16.6 13.7 16.65 13.7 16.7 13.7 16.7 13.7 16.75 13.75 16.8 13.75 16.8 13.75 16.85 13.75 16.9 13.75 16.95 13.75 16.95 13.75 17.0 13.75 17.05 13.7 17.1 13.7 17.1 13.7 17.15 13.7 17.2 13.65 17.2 13.65 17.25 13.65 17.25 13.6 17.3 13.6 17.35 13.55 17.35 13.55 17.4 13.5 17.4 13.5 17.45 13.45 17.45 13.45 17.45 13.4 17.5 13.35 17.5 13.35 17.55 13.3 17.55 13.3 17.55 13.25 17.55 13.2 17.6 13.2 17.6 13.15 17.6 13.1 17.6 13.05 17.6 13.05 17.6 13.0 17.6 12.95 17.6 12.9 17.6 12.9 17.6 12.85 17.6 12.8 17.6 12.8 17.6 12.75 17.55 12.7 17.55 12.7 17.55 12.65 17.55 12.6 17.5 12.6 17.5 12.55 17.5 12.55 17.45 12.5 17.45 12.45 17.4 12.45 17.4 12.4 17.35 12.4 17.3 12.35 17.3 12.35 17.25 12.35 17.25 12.3 17.2 12.3 17.2 12.3 17.15 12.3 17.1 12.3 17.1 12.25 17.05 12.25 17.0 12.25 16.95 12.25 16.95 12.25 16.9 12.25 16.85 12.25 16.85 12.25 16.8 12.25 16.75 12.3 16.7 12.3 16.7 12.3 16.65 12.3 16.6 12.35 16.6 12.35 16.55 12.35 16.5 12.4 16.5 12.4 16.45 12.45 16.45 12.45 16.4 12.5 16.4 12.5 16.35 12.55 16.35 12.55 16.3 12.6 16.3 12.65 16.25 12.65 16.25 12.7 16.25 12.7 16.2 12.75 16.2 12.8 16.2 12.8 16.2 12.85 16.2 12.9 16.15 12.9 16.15 12.95 16.15 13.0 16.15 L13.0 16.15" fill="#ffffff" fill-rule="evenodd" stroke="none"/>
  </g>
</svg>
