<?xml version="1.0" encoding="UTF-8" standalone="no"?>
<svg xmlns:ffdec="https://www.free-decompiler.com/flash" xmlns:xlink="http://www.w3.org/1999/xlink" ffdec:objectType="shape" height="26.0px" width="35.75px" xmlns="http://www.w3.org/2000/svg">
  <g transform="matrix(1.0, 0.0, 0.0, 1.0, 0.0, 0.0)">
    <path d="M4.0 3.0 Q3.9 3.0 3.8 3.0 3.7 3.05 3.6 3.1 3.5 3.1 3.45 3.15 3.35 3.2 3.3 3.3 3.2 3.35 3.15 3.45 3.1 3.5 3.1 3.6 3.05 3.7 3.0 3.8 3.0 3.9 3.0 4.0 L3.0 22.0 Q3.0 22.1 3.0 22.2 3.05 22.3 3.1 22.4 3.1 22.5 3.15 22.55 3.2 22.65 3.3 22.7 3.35 22.8 3.45 22.85 3.5 22.9 3.6 22.9 3.7 22.95 3.8 23.0 3.9 23.0 4.0 23.0 L31.75 23.0 Q31.85 23.0 31.95 23.0 32.05 22.95 32.15 22.9 32.25 22.9 32.3 22.85 32.4 22.8 32.45 22.7 32.55 22.65 32.6 22.55 32.65 22.5 32.65 22.4 32.7 22.3 32.75 22.2 32.75 22.1 32.75 22.0 L32.75 4.0 Q32.75 3.9 32.75 3.8 32.7 3.7 32.65 3.6 32.65 3.5 32.6 3.45 32.55 3.35 32.45 3.3 32.4 3.2 32.3 3.15 32.25 3.1 32.15 3.1 32.05 3.05 31.95 3.0 31.85 3.0 31.75 3.0 L4.0 3.0 4.0 3.0 M22.05 7.95 L23.05 7.95 23.05 17.5 22.05 17.5 22.05 7.95 22.05 7.95 M17.1 8.15 L21.2 17.5 20.05 17.5 18.85 14.75 15.35 14.75 14.2 17.5 13.0 17.5 17.1 8.15 17.1 8.15 M8.5 8.5 L9.6 8.5 9.6 16.5 13.0 16.5 13.0 17.5 8.5 17.5 8.5 8.5 8.5 8.5 M25.2 9.6 L26.2 9.6 26.2 11.9 27.25 11.9 27.25 12.65 26.2 12.65 26.2 17.5 25.2 17.5 25.2 12.65 24.2 12.65 24.2 11.9 25.2 11.9 25.2 9.6 25.2 9.6 M17.1 10.5 L15.65 13.8 18.55 13.8 17.1 10.5 17.1 10.5" fill="#ffffff" fill-rule="evenodd" stroke="none"/>
  </g>
</svg>
