<?xml version="1.0" encoding="UTF-8" standalone="no"?>
<svg xmlns:ffdec="https://www.free-decompiler.com/flash" xmlns:xlink="http://www.w3.org/1999/xlink" ffdec:objectType="shape" height="26.0px" width="26.0px" xmlns="http://www.w3.org/2000/svg">
  <g transform="matrix(1.0, 0.0, 0.0, 1.0, 0.0, 0.0)">
    <path d="M4.0 3.0 Q3.9 3.0 3.8 3.0 3.7 3.05 3.6 3.1 3.5 3.1 3.45 3.15 3.35 3.2 3.3 3.3 3.2 3.35 3.15 3.45 3.1 3.5 3.1 3.6 3.05 3.7 3.0 3.8 3.0 3.9 3.0 4.0 L3.0 22.0 Q3.0 22.1 3.0 22.2 3.05 22.3 3.1 22.4 3.1 22.5 3.15 22.55 3.2 22.65 3.3 22.7 3.35 22.8 3.45 22.85 3.5 22.9 3.6 22.9 3.7 22.95 3.8 23.0 3.9 23.0 4.0 23.0 L22.0 23.0 Q22.1 23.0 22.2 23.0 22.3 22.95 22.4 22.9 22.5 22.9 22.55 22.85 22.65 22.8 22.7 22.7 22.8 22.65 22.85 22.55 22.9 22.5 22.9 22.4 22.95 22.3 23.0 22.2 23.0 22.1 23.0 22.0 L23.0 4.0 Q23.0 3.9 23.0 3.8 22.95 3.7 22.9 3.6 22.9 3.5 22.85 3.45 22.8 3.35 22.7 3.3 22.65 3.2 22.55 3.15 22.5 3.1 22.4 3.1 22.3 3.05 22.2 3.0 22.1 3.0 22.0 3.0 L4.0 3.0 4.0 3.0 M16.85 8.15 L17.8 8.65 14.9 12.4 Q14.95 12.4 15.0 12.35 15.0 12.35 15.05 12.3 15.1 12.3 15.15 12.25 15.15 12.25 15.2 12.2 15.25 12.2 15.3 12.2 15.35 12.15 15.4 12.15 15.4 12.15 15.45 12.1 15.5 12.1 15.55 12.1 15.6 12.1 15.65 12.05 15.7 12.05 15.7 12.05 15.75 12.05 15.8 12.05 15.85 12.0 15.9 12.0 15.95 12.0 16.0 12.0 16.05 12.0 16.1 12.0 16.1 12.0 16.15 12.0 16.2 12.0 16.25 12.0 16.4 12.0 16.55 12.0 16.7 12.0 16.85 12.05 16.95 12.05 17.1 12.1 17.25 12.15 17.35 12.2 17.5 12.25 17.6 12.3 17.7 12.35 17.8 12.4 17.95 12.5 18.05 12.6 18.15 12.65 18.2 12.75 18.3 12.85 18.4 12.95 18.45 13.05 18.55 13.15 18.6 13.3 18.7 13.4 18.75 13.5 18.8 13.65 18.85 13.75 18.85 13.9 18.9 14.05 18.95 14.2 18.95 14.3 18.95 14.45 19.0 14.6 19.0 14.75 19.0 14.9 19.0 15.1 18.95 15.25 18.95 15.4 18.9 15.55 18.85 15.7 18.8 15.85 18.75 16.0 18.7 16.1 18.65 16.25 18.6 16.4 18.5 16.5 18.4 16.6 18.3 16.7 18.25 16.85 18.1 16.95 18.0 17.05 17.9 17.15 17.75 17.2 17.65 17.3 17.5 17.35 17.4 17.45 17.25 17.5 17.1 17.55 16.95 17.6 16.8 17.65 16.65 17.65 16.5 17.7 16.35 17.7 16.15 17.75 16.0 17.75 15.8 17.75 15.65 17.75 15.5 17.75 15.35 17.7 15.2 17.7 15.1 17.65 14.95 17.65 14.8 17.6 14.7 17.55 14.55 17.5 14.45 17.4 14.35 17.35 14.2 17.3 14.1 17.2 14.0 17.1 13.9 17.05 13.8 16.95 13.7 16.85 13.65 16.75 13.55 16.6 13.45 16.5 13.4 16.4 13.35 16.25 13.3 16.15 13.25 16.0 13.2 15.85 13.15 15.7 13.1 15.55 13.1 15.4 13.1 15.25 13.05 15.1 13.05 14.95 13.05 14.8 13.05 14.65 13.1 14.45 13.1 14.3 13.15 14.1 13.2 13.9 13.3 13.7 13.35 13.45 13.45 13.25 13.6 13.0 13.7 12.75 13.85 12.5 14.0 12.25 14.15 12.0 14.35 11.7 14.55 11.4 14.75 11.15 L14.8 11.05 16.85 8.15 16.85 8.15 M7.0 8.5 L11.75 8.5 11.75 9.5 8.1 9.5 8.1 12.05 11.75 12.05 11.75 13.05 8.1 13.05 8.1 17.5 7.0 17.5 7.0 8.5 7.0 8.5 M15.95 12.9 Q15.85 12.9 15.75 12.9 15.65 12.9 15.55 12.9 15.5 12.95 15.4 12.95 15.3 13.0 15.25 13.0 15.15 13.05 15.05 13.1 15.0 13.15 14.9 13.2 14.85 13.25 14.8 13.3 14.7 13.35 14.65 13.45 14.6 13.5 14.55 13.6 14.5 13.65 14.45 13.75 14.4 13.8 14.35 13.9 14.3 14.0 14.3 14.1 14.25 14.15 14.25 14.25 14.2 14.35 14.2 14.45 14.15 14.55 14.15 14.65 14.15 14.75 14.15 14.9 14.15 15.0 14.15 15.1 14.15 15.2 14.2 15.3 14.2 15.4 14.25 15.5 14.25 15.6 14.3 15.7 14.3 15.8 14.35 15.85 14.4 15.95 14.45 16.05 14.5 16.1 14.55 16.2 14.6 16.25 14.65 16.3 14.7 16.35 14.8 16.45 14.85 16.5 14.95 16.55 15.0 16.6 15.1 16.65 15.15 16.7 15.25 16.7 15.35 16.75 15.45 16.75 15.5 16.8 15.6 16.8 15.7 16.85 15.8 16.85 15.9 16.85 16.0 16.85 16.1 16.85 16.2 16.85 16.3 16.85 16.4 16.8 16.5 16.8 16.6 16.75 16.7 16.75 16.75 16.7 16.85 16.7 16.95 16.65 17.0 16.6 17.1 16.55 17.15 16.5 17.25 16.45 17.3 16.35 17.35 16.3 17.4 16.25 17.45 16.15 17.55 16.1 17.6 16.0 17.65 15.95 17.65 15.85 17.7 15.75 17.75 15.65 17.75 15.6 17.8 15.5 17.8 15.4 17.85 15.3 17.85 15.2 17.85 15.1 17.85 15.0 17.85 14.85 17.85 14.75 17.85 14.65 17.85 14.55 17.85 14.4 17.8 14.3 17.8 14.25 17.75 14.15 17.75 14.05 17.7 13.95 17.65 13.85 17.65 13.8 17.6 13.7 17.55 13.6 17.5 13.55 17.45 13.5 17.35 13.4 17.3 13.35 17.2 13.3 17.15 13.2 17.1 13.15 17.0 13.1 16.9 13.1 16.85 13.05 16.75 13.0 16.65 13.0 16.55 12.95 16.5 12.95 16.4 12.9 16.3 12.9 16.2 12.9 16.05 12.9 15.95 12.9 L15.95 12.9" fill="#ffffff" fill-rule="evenodd" stroke="none"/>
  </g>
</svg>
