<?xml version="1.0" encoding="UTF-8" standalone="no"?>
<svg xmlns:ffdec="https://www.free-decompiler.com/flash" xmlns:xlink="http://www.w3.org/1999/xlink" ffdec:objectType="shape" height="26.0px" width="35.75px" xmlns="http://www.w3.org/2000/svg">
  <g transform="matrix(1.0, 0.0, 0.0, 1.0, 0.0, 0.0)">
    <path d="M4.0 3.0 Q3.9 3.0 3.8 3.0 3.7 3.05 3.6 3.1 3.5 3.1 3.45 3.15 3.35 3.2 3.3 3.3 3.2 3.35 3.15 3.45 3.1 3.5 3.1 3.6 3.05 3.7 3.0 3.8 3.0 3.9 3.0 4.0 L3.0 22.0 Q3.0 22.1 3.0 22.2 3.05 22.3 3.1 22.4 3.1 22.5 3.15 22.55 3.2 22.65 3.3 22.7 3.35 22.8 3.45 22.85 3.5 22.9 3.6 22.9 3.7 22.95 3.8 23.0 3.9 23.0 4.0 23.0 L31.75 23.0 Q31.85 23.0 31.95 23.0 32.05 22.95 32.15 22.9 32.25 22.9 32.3 22.85 32.4 22.8 32.45 22.7 32.55 22.65 32.6 22.55 32.65 22.5 32.65 22.4 32.7 22.3 32.75 22.2 32.75 22.1 32.75 22.0 L32.75 4.0 Q32.75 3.9 32.75 3.8 32.7 3.7 32.65 3.6 32.65 3.5 32.6 3.45 32.55 3.35 32.45 3.3 32.4 3.2 32.3 3.15 32.25 3.1 32.15 3.1 32.05 3.05 31.95 3.0 31.85 3.0 31.75 3.0 L4.0 3.0 4.0 3.0 M6.95 8.15 L13.55 15.35 13.55 8.5 14.55 8.5 14.55 17.85 8.0 10.75 8.0 17.5 6.95 17.5 6.95 8.15 6.95 8.15 M25.75 8.4 Q25.9 8.4 26.05 8.4 26.2 8.4 26.35 8.45 26.5 8.45 26.6 8.5 26.75 8.55 26.85 8.55 27.0 8.6 27.1 8.65 27.2 8.7 27.35 8.75 27.45 8.85 27.55 8.9 27.65 8.95 27.7 9.05 27.8 9.15 27.9 9.2 27.95 9.3 28.05 9.4 28.1 9.5 28.15 9.6 28.2 9.7 28.25 9.8 28.3 9.9 28.35 10.0 28.4 10.1 28.4 10.25 28.45 10.35 28.45 10.5 28.45 10.6 28.45 10.75 28.45 10.85 28.45 10.95 28.45 11.0 28.45 11.1 28.4 11.2 28.4 11.25 28.4 11.35 28.35 11.45 28.35 11.5 28.3 11.6 28.25 11.65 28.25 11.75 28.2 11.8 28.15 11.85 28.1 11.95 28.05 12.0 28.0 12.05 27.95 12.15 27.9 12.2 27.85 12.25 27.75 12.3 27.7 12.35 27.65 12.4 27.6 12.45 27.5 12.5 27.45 12.55 27.35 12.6 27.3 12.6 27.2 12.65 27.1 12.7 27.0 12.7 26.95 12.75 27.05 12.8 27.15 12.8 27.25 12.85 27.35 12.9 27.45 12.95 27.55 13.0 27.65 13.05 27.7 13.1 27.8 13.15 27.9 13.2 27.95 13.25 28.05 13.35 28.1 13.4 28.15 13.45 28.25 13.55 28.3 13.6 28.35 13.7 28.4 13.75 28.45 13.85 28.5 13.95 28.55 14.0 28.6 14.1 28.65 14.2 28.65 14.3 28.7 14.4 28.7 14.5 28.75 14.6 28.75 14.7 28.75 14.8 28.8 14.9 28.8 15.0 28.8 15.1 28.8 15.25 28.8 15.4 28.75 15.55 28.75 15.7 28.7 15.85 28.65 15.95 28.65 16.1 28.6 16.2 28.55 16.35 28.45 16.45 28.4 16.55 28.35 16.65 28.25 16.75 28.15 16.85 28.1 16.95 28.0 17.05 27.9 17.15 27.8 17.2 27.65 17.3 27.55 17.35 27.45 17.4 27.3 17.45 27.15 17.5 27.05 17.55 26.9 17.6 26.75 17.65 26.6 17.65 26.45 17.7 26.25 17.7 26.1 17.75 25.95 17.75 25.75 17.75 25.6 17.75 25.4 17.75 25.25 17.7 25.1 17.7 24.95 17.7 24.8 17.65 24.65 17.6 24.5 17.55 24.35 17.5 24.25 17.45 24.1 17.4 24.0 17.35 23.85 17.3 23.75 17.2 23.65 17.15 23.55 17.05 23.45 16.95 23.35 16.85 23.25 16.75 23.2 16.65 23.1 16.55 23.05 16.45 23.0 16.35 22.95 16.2 22.9 16.1 22.85 15.95 22.8 15.85 22.8 15.7 22.75 15.55 22.75 15.4 22.75 15.3 22.75 15.15 22.75 15.05 22.75 14.9 22.75 14.8 22.75 14.7 22.8 14.6 22.8 14.5 22.8 14.4 22.85 14.3 22.9 14.2 22.9 14.1 22.95 14.05 23.0 13.95 23.05 13.85 23.1 13.75 23.15 13.7 23.2 13.6 23.25 13.5 23.35 13.45 23.4 13.4 23.45 13.3 23.55 13.25 23.65 13.2 23.7 13.15 23.8 13.1 23.9 13.0 23.95 13.0 24.05 12.95 24.15 12.9 24.25 12.85 24.35 12.8 24.45 12.75 24.6 12.75 24.5 12.7 24.4 12.7 24.3 12.65 24.25 12.6 24.15 12.55 24.05 12.55 24.0 12.5 23.9 12.45 23.85 12.4 23.8 12.35 23.7 12.3 23.65 12.25 23.6 12.15 23.55 12.1 23.5 12.05 23.45 12.0 23.4 11.95 23.35 11.85 23.3 11.8 23.25 11.7 23.25 11.65 23.2 11.55 23.2 11.5 23.15 11.4 23.15 11.3 23.1 11.25 23.1 11.15 23.1 11.05 23.05 10.95 23.05 10.85 23.05 10.75 23.05 10.65 23.05 10.55 23.05 10.4 23.1 10.3 23.1 10.2 23.1 10.05 23.15 9.95 23.2 9.85 23.25 9.75 23.3 9.65 23.35 9.55 23.4 9.45 23.5 9.4 23.55 9.3 23.65 9.2 23.7 9.1 23.8 9.05 23.9 8.95 24.0 8.9 24.1 8.85 24.2 8.75 24.3 8.7 24.45 8.65 24.55 8.6 24.65 8.55 24.8 8.55 24.9 8.5 25.05 8.45 25.2 8.45 25.3 8.45 25.45 8.4 25.6 8.4 25.75 8.4 L25.75 8.4 M16.7 8.5 L18.6 8.5 Q18.75 8.5 18.85 8.5 18.95 8.5 19.05 8.5 19.2 8.5 19.3 8.5 19.4 8.5 19.45 8.55 19.55 8.55 19.65 8.55 19.75 8.55 19.8 8.55 19.85 8.55 19.95 8.6 20.0 8.6 20.05 8.6 20.1 8.6 20.15 8.65 20.25 8.65 20.3 8.65 20.35 8.7 20.4 8.7 20.45 8.7 20.5 8.75 20.55 8.75 20.6 8.8 20.65 8.8 20.7 8.85 20.75 8.85 20.8 8.9 20.85 8.9 20.9 8.95 20.95 9.0 21.0 9.05 21.05 9.05 21.1 9.1 21.15 9.15 21.2 9.2 21.2 9.25 21.25 9.3 21.3 9.35 21.35 9.4 21.4 9.5 21.4 9.55 21.45 9.6 21.5 9.65 21.5 9.7 21.55 9.8 21.6 9.85 21.6 9.95 21.65 10.0 21.65 10.05 21.7 10.15 21.7 10.2 21.7 10.3 21.75 10.35 21.75 10.45 21.75 10.5 21.75 10.6 21.8 10.65 21.8 10.75 21.8 10.8 21.8 10.9 21.8 11.0 21.8 11.1 21.8 11.15 21.8 11.25 21.8 11.3 21.75 11.4 21.75 11.45 21.75 11.55 21.75 11.6 21.7 11.7 21.7 11.75 21.7 11.8 21.65 11.9 21.65 11.95 21.6 12.05 21.6 12.1 21.55 12.15 21.5 12.2 21.5 12.3 21.45 12.35 21.4 12.4 21.4 12.45 21.35 12.55 21.3 12.6 21.25 12.65 21.2 12.7 21.15 12.75 21.15 12.8 21.1 12.85 21.05 12.9 21.0 12.95 20.95 12.95 20.9 13.0 20.85 13.05 20.8 13.05 20.75 13.1 20.7 13.1 20.65 13.15 20.6 13.15 20.55 13.2 20.5 13.2 20.45 13.25 20.4 13.25 20.35 13.3 20.3 13.3 20.25 13.3 20.2 13.35 20.1 13.35 20.05 13.35 20.0 13.35 19.95 13.4 19.85 13.4 19.8 13.4 19.7 13.4 19.65 13.4 19.55 13.45 19.45 13.45 19.4 13.45 19.3 13.45 19.2 13.45 19.05 13.45 18.95 13.45 18.85 13.45 18.75 13.45 18.6 13.45 L18.3 13.45 17.75 13.45 17.75 17.5 16.7 17.5 16.7 8.5 16.7 8.5 M25.75 9.2 Q25.65 9.2 25.55 9.2 25.5 9.2 25.4 9.25 25.3 9.25 25.25 9.3 25.15 9.3 25.1 9.3 25.0 9.35 24.95 9.4 24.9 9.4 24.85 9.45 24.75 9.5 24.7 9.55 24.65 9.6 24.6 9.65 24.55 9.7 24.5 9.75 24.45 9.8 24.4 9.85 24.35 9.9 24.35 10.0 24.3 10.05 24.25 10.1 24.25 10.15 24.2 10.25 24.2 10.3 24.2 10.4 24.15 10.45 24.15 10.55 24.15 10.65 24.15 10.7 24.15 10.8 24.15 10.9 24.15 10.95 24.2 11.05 24.2 11.1 24.2 11.2 24.25 11.25 24.25 11.35 24.3 11.4 24.3 11.45 24.35 11.55 24.4 11.6 24.45 11.65 24.5 11.7 24.55 11.75 24.6 11.8 24.65 11.85 24.7 11.9 24.75 11.95 24.8 11.95 24.9 12.0 24.95 12.05 25.0 12.05 25.1 12.1 25.15 12.1 25.25 12.15 25.3 12.15 25.4 12.15 25.45 12.2 25.55 12.2 25.65 12.2 25.75 12.2 25.85 12.2 25.95 12.2 26.0 12.2 26.1 12.15 26.2 12.15 26.25 12.15 26.35 12.1 26.4 12.1 26.5 12.05 26.55 12.05 26.65 12.0 26.7 11.95 26.75 11.95 26.8 11.9 26.85 11.85 26.9 11.8 26.95 11.75 27.0 11.7 27.05 11.65 27.1 11.6 27.15 11.55 27.15 11.45 27.2 11.4 27.25 11.35 27.25 11.25 27.3 11.2 27.3 11.15 27.3 11.05 27.35 11.0 27.35 10.9 27.35 10.8 27.35 10.7 27.35 10.6 27.35 10.55 27.35 10.45 27.3 10.4 27.3 10.3 27.3 10.25 27.25 10.15 27.25 10.1 27.2 10.05 27.2 9.95 27.15 9.9 27.1 9.85 27.05 9.8 27.0 9.75 26.95 9.7 26.9 9.65 26.85 9.6 26.8 9.55 26.75 9.5 26.7 9.45 26.6 9.4 26.55 9.4 26.5 9.35 26.4 9.35 26.35 9.3 26.25 9.3 26.2 9.25 26.1 9.25 26.05 9.25 25.95 9.25 25.85 9.2 25.75 9.2 L25.75 9.2 M17.75 9.5 L17.75 12.5 18.3 12.5 Q18.45 12.5 18.65 12.5 18.8 12.5 18.95 12.45 19.1 12.45 19.2 12.45 19.35 12.45 19.45 12.4 19.55 12.4 19.7 12.35 19.8 12.35 19.85 12.3 19.95 12.3 20.05 12.25 20.1 12.2 20.15 12.15 20.2 12.1 20.25 12.05 20.3 12.0 20.35 11.95 20.4 11.9 20.45 11.85 20.5 11.8 20.5 11.7 20.55 11.65 20.55 11.55 20.6 11.5 20.6 11.4 20.6 11.35 20.65 11.25 20.65 11.15 20.65 11.05 20.65 10.95 20.65 10.85 20.65 10.75 20.6 10.65 20.6 10.55 20.55 10.45 20.55 10.4 20.5 10.3 20.5 10.25 20.45 10.15 20.4 10.1 20.35 10.05 20.3 10.0 20.25 9.9 20.2 9.85 20.15 9.85 20.1 9.8 20.0 9.75 19.95 9.7 19.85 9.7 19.75 9.65 19.65 9.6 19.55 9.6 19.45 9.55 19.35 9.55 19.2 9.55 19.05 9.5 18.95 9.5 18.8 9.5 18.65 9.5 18.5 9.5 18.3 9.5 L17.75 9.5 17.75 9.5 M25.75 13.2 Q25.65 13.2 25.55 13.2 25.45 13.2 25.35 13.25 25.25 13.25 25.15 13.3 25.05 13.3 24.95 13.35 24.85 13.35 24.8 13.4 24.7 13.45 24.65 13.5 24.55 13.55 24.5 13.6 24.45 13.65 24.35 13.7 24.3 13.75 24.25 13.85 24.2 13.9 24.15 13.95 24.1 14.05 24.05 14.15 24.0 14.2 24.0 14.3 23.95 14.35 23.95 14.45 23.9 14.55 23.9 14.65 23.9 14.75 23.85 14.85 23.85 14.95 23.85 15.05 23.85 15.15 23.85 15.25 23.85 15.35 23.9 15.45 23.9 15.55 23.95 15.65 23.95 15.75 24.0 15.8 24.0 15.9 24.05 16.0 24.1 16.05 24.15 16.15 24.2 16.2 24.25 16.25 24.3 16.35 24.35 16.4 24.4 16.45 24.5 16.5 24.55 16.55 24.65 16.6 24.7 16.65 24.8 16.7 24.85 16.7 24.95 16.75 25.05 16.8 25.15 16.8 25.25 16.85 25.3 16.85 25.4 16.85 25.55 16.85 25.65 16.85 25.75 16.85 25.85 16.85 25.95 16.85 26.05 16.85 26.15 16.85 26.25 16.8 26.35 16.8 26.45 16.8 26.55 16.75 26.65 16.7 26.7 16.7 26.8 16.65 26.85 16.6 26.95 16.55 27.0 16.5 27.05 16.45 27.15 16.4 27.2 16.35 27.25 16.25 27.3 16.2 27.35 16.15 27.4 16.05 27.45 16.0 27.5 15.9 27.5 15.8 27.55 15.75 27.55 15.65 27.6 15.55 27.6 15.45 27.6 15.35 27.65 15.25 27.65 15.15 27.65 15.05 27.65 14.95 27.65 14.85 27.65 14.75 27.6 14.65 27.6 14.55 27.55 14.45 27.55 14.35 27.5 14.3 27.5 14.2 27.45 14.1 27.4 14.05 27.35 13.95 27.3 13.9 27.25 13.85 27.2 13.75 27.15 13.7 27.1 13.65 27.0 13.6 26.95 13.55 26.85 13.5 26.8 13.45 26.7 13.4 26.65 13.35 26.55 13.35 26.45 13.3 26.35 13.3 26.25 13.25 26.15 13.25 26.05 13.2 25.95 13.2 25.85 13.2 25.75 13.2 L25.75 13.2" fill="#ffffff" fill-rule="evenodd" stroke="none"/>
  </g>
</svg>
