<?xml version="1.0" encoding="UTF-8" standalone="no"?>
<svg xmlns:ffdec="https://www.free-decompiler.com/flash" xmlns:xlink="http://www.w3.org/1999/xlink" ffdec:objectType="shape" height="26.0px" width="35.75px" xmlns="http://www.w3.org/2000/svg">
  <g transform="matrix(1.0, 0.0, 0.0, 1.0, 0.0, 0.0)">
    <path d="M4.0 3.0 Q3.9 3.0 3.8 3.0 3.7 3.05 3.6 3.1 3.5 3.1 3.45 3.15 3.35 3.2 3.3 3.3 3.2 3.35 3.15 3.45 3.1 3.5 3.1 3.6 3.05 3.7 3.0 3.8 3.0 3.9 3.0 4.0 L3.0 22.0 Q3.0 22.1 3.0 22.2 3.05 22.3 3.1 22.4 3.1 22.5 3.15 22.55 3.2 22.65 3.3 22.7 3.35 22.8 3.45 22.85 3.5 22.9 3.6 22.9 3.7 22.95 3.8 23.0 3.9 23.0 4.0 23.0 L31.75 23.0 Q31.85 23.0 31.95 23.0 32.05 22.95 32.15 22.9 32.25 22.9 32.3 22.85 32.4 22.8 32.45 22.7 32.55 22.65 32.6 22.55 32.65 22.5 32.65 22.4 32.7 22.3 32.75 22.2 32.75 22.1 32.75 22.0 L32.75 4.0 Q32.75 3.9 32.75 3.8 32.7 3.7 32.65 3.6 32.65 3.5 32.6 3.45 32.55 3.35 32.45 3.3 32.4 3.2 32.3 3.15 32.25 3.1 32.15 3.1 32.05 3.05 31.95 3.0 31.85 3.0 31.75 3.0 L4.0 3.0 4.0 3.0 M7.05 8.15 L13.65 15.35 13.65 8.5 14.65 8.5 14.65 17.85 8.05 10.75 8.05 17.5 7.05 17.5 7.05 8.15 7.05 8.15 M16.8 8.5 L18.7 8.5 Q18.8 8.5 18.95 8.5 19.05 8.5 19.15 8.5 19.25 8.5 19.35 8.5 19.45 8.5 19.55 8.55 19.65 8.55 19.7 8.55 19.8 8.55 19.9 8.55 19.95 8.55 20.0 8.6 20.1 8.6 20.15 8.6 20.2 8.6 20.25 8.65 20.3 8.65 20.35 8.65 20.45 8.7 20.5 8.7 20.55 8.7 20.6 8.75 20.65 8.75 20.7 8.8 20.75 8.8 20.8 8.85 20.8 8.85 20.85 8.9 20.9 8.9 20.95 8.95 21.0 9.0 21.05 9.05 21.1 9.05 21.15 9.1 21.2 9.15 21.25 9.2 21.3 9.25 21.35 9.3 21.4 9.35 21.4 9.4 21.45 9.5 21.5 9.55 21.55 9.6 21.55 9.65 21.6 9.7 21.6 9.8 21.65 9.85 21.65 9.95 21.7 10.0 21.7 10.05 21.75 10.15 21.75 10.2 21.8 10.3 21.8 10.35 21.8 10.45 21.85 10.5 21.85 10.6 21.85 10.65 21.85 10.75 21.85 10.8 21.85 10.9 21.85 11.0 21.85 11.1 21.85 11.15 21.85 11.25 21.85 11.3 21.85 11.4 21.85 11.45 21.8 11.55 21.8 11.6 21.8 11.7 21.75 11.75 21.75 11.8 21.75 11.9 21.7 11.95 21.7 12.05 21.65 12.1 21.6 12.15 21.55 12.2 21.55 12.3 21.5 12.35 21.5 12.4 21.45 12.45 21.4 12.55 21.4 12.6 21.35 12.65 21.3 12.7 21.25 12.75 21.2 12.8 21.15 12.85 21.1 12.9 21.05 12.95 21.0 12.95 20.95 13.0 20.9 13.05 20.85 13.05 20.8 13.1 20.75 13.1 20.75 13.15 20.7 13.15 20.65 13.2 20.6 13.2 20.55 13.25 20.5 13.25 20.4 13.3 20.35 13.3 20.3 13.3 20.25 13.35 20.2 13.35 20.15 13.35 20.1 13.35 20.0 13.4 19.95 13.4 19.9 13.4 19.8 13.4 19.7 13.4 19.65 13.45 19.55 13.45 19.45 13.45 19.35 13.45 19.25 13.45 19.15 13.45 19.05 13.45 18.95 13.45 18.8 13.45 18.7 13.45 L18.4 13.45 17.85 13.45 17.85 17.5 16.8 17.5 16.8 8.5 16.8 8.5 M24.3 8.6 L28.25 8.6 28.25 9.5 25.0 9.5 24.45 11.8 Q24.5 11.8 24.55 11.75 24.55 11.75 24.6 11.75 24.65 11.7 24.7 11.7 24.75 11.7 24.75 11.7 24.8 11.65 24.85 11.65 24.9 11.65 24.95 11.6 25.0 11.6 25.0 11.6 25.05 11.6 25.1 11.6 25.15 11.6 25.2 11.55 25.25 11.55 25.3 11.55 25.35 11.55 25.4 11.55 25.4 11.5 25.45 11.5 25.5 11.5 25.55 11.5 25.6 11.5 25.65 11.5 25.7 11.5 25.75 11.5 25.8 11.5 25.85 11.5 26.0 11.5 26.15 11.5 26.35 11.5 26.5 11.55 26.6 11.55 26.75 11.6 26.9 11.65 27.05 11.7 27.15 11.75 27.3 11.8 27.4 11.85 27.5 11.95 27.65 12.0 27.75 12.1 27.85 12.2 27.95 12.3 28.05 12.4 28.15 12.5 28.2 12.6 28.3 12.7 28.35 12.85 28.4 12.95 28.45 13.1 28.5 13.2 28.55 13.35 28.6 13.5 28.65 13.65 28.65 13.8 28.7 13.95 28.7 14.1 28.7 14.25 28.7 14.45 28.7 14.65 28.7 14.8 28.7 15.0 28.65 15.15 28.6 15.35 28.6 15.5 28.55 15.65 28.5 15.8 28.45 15.95 28.35 16.1 28.3 16.25 28.2 16.35 28.1 16.5 28.05 16.6 27.95 16.75 27.8 16.85 27.7 16.95 27.55 17.05 27.45 17.15 27.35 17.25 27.2 17.3 27.05 17.4 26.9 17.45 26.75 17.5 26.6 17.55 26.45 17.6 26.3 17.65 26.15 17.7 25.95 17.7 25.75 17.75 25.6 17.75 25.4 17.75 25.3 17.75 25.15 17.75 25.05 17.75 24.95 17.7 24.85 17.7 24.75 17.7 24.65 17.7 24.55 17.65 24.45 17.65 24.35 17.6 24.25 17.6 24.15 17.55 24.05 17.55 24.0 17.5 23.9 17.45 23.8 17.4 23.7 17.35 23.65 17.3 23.55 17.3 23.5 17.25 23.4 17.2 23.35 17.1 23.25 17.05 23.2 17.0 23.15 16.95 23.05 16.85 23.0 16.8 22.95 16.75 22.85 16.65 22.8 16.6 22.75 16.5 22.7 16.4 L23.45 15.55 Q23.5 15.6 23.55 15.7 23.55 15.75 23.6 15.85 23.65 15.9 23.7 15.95 23.75 16.05 23.8 16.1 23.85 16.15 23.9 16.2 23.95 16.25 24.0 16.3 24.05 16.35 24.15 16.4 24.2 16.45 24.25 16.5 24.3 16.55 24.4 16.55 24.45 16.6 24.5 16.65 24.6 16.65 24.65 16.7 24.75 16.7 24.8 16.75 24.85 16.75 24.95 16.75 25.0 16.8 25.1 16.8 25.2 16.8 25.25 16.8 25.35 16.8 25.4 16.8 25.55 16.8 25.65 16.8 25.75 16.8 25.9 16.75 26.0 16.75 26.1 16.7 26.2 16.7 26.3 16.65 26.4 16.6 26.5 16.55 26.6 16.5 26.65 16.45 26.75 16.4 26.85 16.35 26.9 16.25 27.0 16.2 27.05 16.1 27.15 16.05 27.2 15.95 27.25 15.85 27.3 15.75 27.35 15.65 27.4 15.55 27.45 15.45 27.45 15.35 27.5 15.25 27.5 15.15 27.55 15.0 27.55 14.9 27.55 14.8 27.6 14.65 27.6 14.55 27.6 14.4 27.6 14.3 27.55 14.2 27.55 14.05 27.55 13.95 27.5 13.85 27.45 13.75 27.45 13.65 27.4 13.55 27.35 13.45 27.3 13.35 27.25 13.3 27.15 13.2 27.1 13.1 27.05 13.05 26.95 12.95 26.9 12.9 26.8 12.8 26.7 12.75 26.65 12.7 26.55 12.65 26.45 12.6 26.35 12.55 26.25 12.5 26.15 12.45 26.05 12.45 25.95 12.4 25.8 12.4 25.7 12.4 25.6 12.35 25.45 12.35 25.35 12.35 25.3 12.35 25.2 12.35 25.15 12.35 25.1 12.35 25.0 12.35 24.95 12.4 24.9 12.4 24.8 12.4 24.75 12.4 24.7 12.45 24.6 12.45 24.55 12.45 24.5 12.45 24.45 12.5 24.35 12.5 24.3 12.55 24.25 12.55 24.2 12.6 24.15 12.6 24.05 12.65 24.0 12.65 23.95 12.65 23.9 12.7 23.85 12.75 23.8 12.75 23.75 12.8 23.7 12.8 23.65 12.85 23.6 12.9 23.5 12.95 23.45 12.95 23.4 13.0 L23.2 12.95 24.3 8.6 24.3 8.6 M17.85 9.5 L17.85 12.5 18.4 12.5 Q18.55 12.5 18.75 12.5 18.9 12.5 19.0 12.45 19.15 12.45 19.3 12.45 19.4 12.45 19.55 12.4 19.65 12.4 19.75 12.35 19.85 12.35 19.95 12.3 20.05 12.3 20.1 12.25 20.2 12.2 20.25 12.15 20.3 12.1 20.35 12.05 20.4 12.0 20.45 11.95 20.5 11.9 20.55 11.85 20.55 11.8 20.6 11.7 20.65 11.65 20.65 11.55 20.65 11.5 20.7 11.4 20.7 11.35 20.7 11.25 20.7 11.15 20.7 11.05 20.7 10.95 20.7 10.85 20.7 10.75 20.7 10.65 20.65 10.55 20.65 10.45 20.6 10.4 20.6 10.3 20.55 10.25 20.5 10.15 20.5 10.1 20.45 10.05 20.4 10.0 20.35 9.9 20.3 9.85 20.2 9.85 20.15 9.8 20.05 9.75 20.0 9.7 19.9 9.7 19.85 9.65 19.75 9.6 19.65 9.6 19.5 9.55 19.4 9.55 19.3 9.55 19.15 9.5 19.0 9.5 18.85 9.5 18.7 9.5 18.55 9.5 18.4 9.5 L17.85 9.5 17.85 9.5" fill="#ffffff" fill-rule="evenodd" stroke="none"/>
  </g>
</svg>
