<?xml version="1.0" encoding="UTF-8" standalone="no"?>
<svg xmlns:ffdec="https://www.free-decompiler.com/flash" xmlns:xlink="http://www.w3.org/1999/xlink" ffdec:objectType="shape" height="26.0px" width="35.75px" xmlns="http://www.w3.org/2000/svg">
  <g transform="matrix(1.0, 0.0, 0.0, 1.0, 0.0, 0.0)">
    <path d="M4.0 3.0 Q3.9 3.0 3.8 3.0 3.7 3.05 3.6 3.1 3.5 3.1 3.45 3.15 3.35 3.2 3.3 3.3 3.2 3.35 3.15 3.45 3.1 3.5 3.1 3.6 3.05 3.7 3.0 3.8 3.0 3.9 3.0 4.0 L3.0 22.0 Q3.0 22.1 3.0 22.2 3.05 22.3 3.1 22.4 3.1 22.5 3.15 22.55 3.2 22.65 3.3 22.7 3.35 22.8 3.45 22.85 3.5 22.9 3.6 22.9 3.7 22.95 3.8 23.0 3.9 23.0 4.0 23.0 L31.75 23.0 Q31.85 23.0 31.95 23.0 32.05 22.95 32.15 22.9 32.25 22.9 32.3 22.85 32.4 22.8 32.45 22.7 32.55 22.65 32.6 22.55 32.65 22.5 32.65 22.4 32.7 22.3 32.75 22.2 32.75 22.1 32.75 22.0 L32.75 4.0 Q32.75 3.9 32.75 3.8 32.7 3.7 32.65 3.6 32.65 3.5 32.6 3.45 32.55 3.35 32.45 3.3 32.4 3.2 32.3 3.15 32.25 3.1 32.15 3.1 32.05 3.05 31.95 3.0 31.85 3.0 31.75 3.0 L4.0 3.0 4.0 3.0 M7.0 8.15 L13.6 15.35 13.6 8.5 14.6 8.5 14.6 17.85 8.05 10.75 8.05 17.5 7.0 17.5 7.0 8.15 7.0 8.15 M26.6 8.15 L27.55 8.65 24.65 12.4 Q24.7 12.4 24.75 12.35 24.75 12.35 24.8 12.3 24.85 12.3 24.9 12.25 24.95 12.25 24.95 12.2 25.0 12.2 25.05 12.2 25.1 12.15 25.15 12.15 25.2 12.15 25.2 12.1 25.25 12.1 25.3 12.1 25.35 12.1 25.4 12.05 25.45 12.05 25.5 12.05 25.5 12.05 25.55 12.05 25.6 12.0 25.65 12.0 25.7 12.0 25.75 12.0 25.8 12.0 25.85 12.0 25.9 12.0 25.95 12.0 25.95 12.0 26.0 12.0 26.15 12.0 26.3 12.0 26.45 12.0 26.6 12.05 26.75 12.05 26.85 12.1 27.0 12.15 27.1 12.2 27.25 12.25 27.35 12.3 27.45 12.35 27.6 12.4 27.7 12.5 27.8 12.6 27.9 12.65 28.0 12.75 28.1 12.85 28.15 12.95 28.25 13.05 28.3 13.15 28.4 13.3 28.45 13.4 28.5 13.5 28.55 13.65 28.6 13.75 28.65 13.9 28.65 14.05 28.7 14.2 28.7 14.3 28.75 14.45 28.75 14.6 28.75 14.75 28.75 14.9 28.75 15.1 28.7 15.25 28.7 15.4 28.65 15.55 28.6 15.7 28.6 15.85 28.55 16.0 28.45 16.1 28.4 16.25 28.35 16.4 28.25 16.5 28.2 16.6 28.1 16.7 28.0 16.85 27.9 16.95 27.8 17.05 27.65 17.15 27.55 17.2 27.4 17.3 27.3 17.35 27.15 17.45 27.0 17.5 26.9 17.55 26.75 17.6 26.6 17.65 26.4 17.65 26.25 17.7 26.1 17.7 25.9 17.75 25.75 17.75 25.55 17.75 25.4 17.75 25.25 17.75 25.1 17.7 24.95 17.7 24.85 17.65 24.7 17.65 24.55 17.6 24.45 17.55 24.3 17.5 24.2 17.4 24.1 17.35 24.0 17.3 23.85 17.2 23.75 17.1 23.65 17.05 23.55 16.95 23.45 16.85 23.4 16.75 23.3 16.6 23.25 16.5 23.15 16.4 23.1 16.25 23.05 16.15 23.0 16.0 22.95 15.85 22.9 15.7 22.9 15.55 22.85 15.4 22.85 15.25 22.8 15.1 22.8 14.95 22.8 14.8 22.8 14.65 22.85 14.45 22.85 14.3 22.9 14.1 22.95 13.9 23.05 13.7 23.15 13.45 23.25 13.25 23.35 13.0 23.45 12.75 23.6 12.5 23.75 12.25 23.9 12.0 24.1 11.7 24.3 11.4 24.5 11.15 L24.55 11.05 26.6 8.15 26.6 8.15 M16.75 8.5 L18.65 8.5 Q18.75 8.5 18.9 8.5 19.0 8.5 19.1 8.5 19.2 8.5 19.3 8.5 19.4 8.5 19.5 8.55 19.6 8.55 19.7 8.55 19.75 8.55 19.85 8.55 19.9 8.55 20.0 8.6 20.05 8.6 20.1 8.6 20.15 8.6 20.2 8.65 20.3 8.65 20.35 8.65 20.4 8.7 20.45 8.7 20.5 8.7 20.55 8.75 20.6 8.75 20.65 8.8 20.7 8.8 20.75 8.85 20.8 8.85 20.85 8.9 20.9 8.9 20.9 8.95 20.95 9.0 21.0 9.05 21.05 9.05 21.1 9.1 21.15 9.15 21.2 9.2 21.25 9.25 21.3 9.3 21.35 9.35 21.4 9.4 21.45 9.5 21.45 9.55 21.5 9.6 21.55 9.65 21.55 9.7 21.6 9.8 21.65 9.85 21.65 9.95 21.7 10.0 21.7 10.05 21.75 10.15 21.75 10.2 21.75 10.3 21.8 10.35 21.8 10.45 21.8 10.5 21.8 10.6 21.8 10.65 21.85 10.75 21.85 10.8 21.85 10.9 21.85 11.0 21.85 11.1 21.85 11.15 21.85 11.25 21.85 11.3 21.8 11.4 21.8 11.45 21.8 11.55 21.8 11.6 21.75 11.7 21.75 11.75 21.7 11.8 21.7 11.9 21.7 11.95 21.65 12.05 21.6 12.1 21.6 12.15 21.55 12.2 21.55 12.3 21.5 12.35 21.45 12.4 21.45 12.45 21.4 12.55 21.35 12.6 21.3 12.65 21.25 12.7 21.2 12.75 21.2 12.8 21.15 12.85 21.1 12.9 21.05 12.95 21.0 12.95 20.9 13.0 20.85 13.05 20.8 13.05 20.8 13.1 20.75 13.1 20.7 13.15 20.65 13.15 20.6 13.2 20.55 13.2 20.5 13.25 20.45 13.25 20.4 13.3 20.35 13.3 20.3 13.3 20.25 13.35 20.15 13.35 20.1 13.35 20.05 13.35 20.0 13.4 19.9 13.4 19.85 13.4 19.75 13.4 19.7 13.4 19.6 13.45 19.5 13.45 19.45 13.45 19.35 13.45 19.25 13.45 19.1 13.45 19.0 13.45 18.9 13.45 18.8 13.45 18.65 13.45 L18.35 13.45 17.8 13.45 17.8 17.5 16.75 17.5 16.75 8.5 16.75 8.5 M17.8 9.5 L17.8 12.5 18.35 12.5 Q18.5 12.5 18.7 12.5 18.85 12.5 19.0 12.45 19.15 12.45 19.25 12.45 19.4 12.45 19.5 12.4 19.6 12.4 19.7 12.35 19.8 12.35 19.9 12.3 20.0 12.3 20.05 12.25 20.15 12.2 20.2 12.15 20.25 12.1 20.3 12.05 20.35 12.0 20.4 11.95 20.45 11.9 20.5 11.85 20.55 11.8 20.55 11.7 20.6 11.65 20.6 11.55 20.65 11.5 20.65 11.4 20.65 11.35 20.7 11.25 20.7 11.15 20.7 11.05 20.7 10.95 20.7 10.85 20.7 10.75 20.65 10.65 20.65 10.55 20.6 10.45 20.6 10.4 20.55 10.3 20.55 10.25 20.5 10.15 20.45 10.1 20.4 10.05 20.35 10.0 20.3 9.9 20.25 9.85 20.2 9.85 20.15 9.8 20.05 9.75 20.0 9.7 19.9 9.7 19.8 9.65 19.7 9.6 19.6 9.6 19.5 9.55 19.4 9.55 19.25 9.55 19.1 9.5 19.0 9.5 18.85 9.5 18.7 9.5 18.55 9.5 18.35 9.5 L17.8 9.5 17.8 9.5 M25.7 12.9 Q25.6 12.9 25.5 12.9 25.4 12.9 25.35 12.9 25.25 12.95 25.15 12.95 25.05 13.0 25.0 13.0 24.9 13.05 24.85 13.1 24.75 13.15 24.7 13.2 24.6 13.25 24.55 13.3 24.5 13.35 24.4 13.45 24.35 13.5 24.3 13.6 24.25 13.65 24.2 13.75 24.15 13.8 24.1 13.9 24.05 14.0 24.05 14.1 24.0 14.15 24.0 14.25 23.95 14.35 23.95 14.45 23.95 14.55 23.95 14.65 23.9 14.75 23.9 14.9 23.9 15.0 23.9 15.1 23.9 15.2 23.95 15.3 23.95 15.4 24.0 15.5 24.0 15.6 24.05 15.7 24.05 15.8 24.1 15.85 24.15 15.95 24.2 16.05 24.25 16.1 24.3 16.2 24.35 16.25 24.4 16.3 24.45 16.35 24.55 16.45 24.6 16.5 24.7 16.55 24.75 16.6 24.85 16.65 24.95 16.7 25.0 16.7 25.1 16.75 25.2 16.75 25.3 16.8 25.4 16.8 25.45 16.85 25.55 16.85 25.65 16.85 25.8 16.85 25.9 16.85 26.0 16.85 26.1 16.85 26.2 16.8 26.3 16.8 26.35 16.75 26.45 16.75 26.55 16.7 26.6 16.7 26.7 16.65 26.8 16.6 26.85 16.55 26.9 16.5 27.0 16.45 27.05 16.35 27.1 16.3 27.15 16.25 27.25 16.15 27.3 16.1 27.35 16.0 27.4 15.95 27.45 15.85 27.45 15.75 27.5 15.65 27.55 15.6 27.55 15.5 27.6 15.4 27.6 15.3 27.6 15.2 27.6 15.1 27.65 15.0 27.65 14.85 27.65 14.75 27.65 14.65 27.6 14.55 27.6 14.4 27.6 14.3 27.55 14.25 27.55 14.15 27.5 14.05 27.45 13.95 27.45 13.85 27.4 13.8 27.35 13.7 27.3 13.6 27.25 13.55 27.2 13.5 27.1 13.4 27.05 13.35 26.95 13.3 26.9 13.2 26.85 13.15 26.75 13.1 26.7 13.1 26.6 13.05 26.5 13.0 26.45 13.0 26.35 12.95 26.25 12.95 26.15 12.9 26.05 12.9 25.95 12.9 25.85 12.9 25.7 12.9 L25.7 12.9" fill="#ffffff" fill-rule="evenodd" stroke="none"/>
  </g>
</svg>
