<?xml version="1.0" encoding="UTF-8" standalone="no"?>
<svg xmlns:ffdec="https://www.free-decompiler.com/flash" xmlns:xlink="http://www.w3.org/1999/xlink" ffdec:objectType="shape" height="26.0px" width="35.75px" xmlns="http://www.w3.org/2000/svg">
  <g transform="matrix(1.0, 0.0, 0.0, 1.0, 0.0, 0.0)">
    <path d="M4.0 3.0 Q3.9 3.0 3.8 3.0 3.7 3.05 3.6 3.1 3.5 3.1 3.45 3.15 3.35 3.2 3.3 3.3 3.2 3.35 3.15 3.45 3.1 3.5 3.1 3.6 3.05 3.7 3.0 3.8 3.0 3.9 3.0 4.0 L3.0 22.0 Q3.0 22.1 3.0 22.2 3.05 22.3 3.1 22.4 3.1 22.5 3.15 22.55 3.2 22.65 3.3 22.7 3.35 22.8 3.45 22.85 3.5 22.9 3.6 22.9 3.7 22.95 3.8 23.0 3.9 23.0 4.0 23.0 L31.75 23.0 Q31.85 23.0 31.95 23.0 32.05 22.95 32.15 22.9 32.25 22.9 32.3 22.85 32.4 22.8 32.45 22.7 32.55 22.65 32.6 22.55 32.65 22.5 32.65 22.4 32.7 22.3 32.75 22.2 32.75 22.1 32.75 22.0 L32.75 4.0 Q32.75 3.9 32.75 3.8 32.7 3.7 32.65 3.6 32.65 3.5 32.6 3.45 32.55 3.35 32.45 3.3 32.4 3.2 32.3 3.15 32.25 3.1 32.15 3.1 32.05 3.05 31.95 3.0 31.85 3.0 31.75 3.0 L4.0 3.0 4.0 3.0 M7.15 8.15 L13.7 15.35 13.7 8.5 14.75 8.5 14.75 17.85 8.15 10.75 8.15 17.5 7.15 17.5 7.15 8.15 7.15 8.15 M25.8 8.4 Q25.95 8.4 26.15 8.4 26.3 8.4 26.45 8.45 26.6 8.45 26.7 8.5 26.85 8.55 27.0 8.55 27.1 8.6 27.25 8.65 27.35 8.7 27.45 8.8 27.55 8.85 27.65 8.9 27.75 9.0 27.85 9.05 27.95 9.15 28.05 9.25 28.1 9.3 28.2 9.4 28.25 9.5 28.3 9.65 28.4 9.75 28.4 9.85 28.45 9.95 28.5 10.1 28.55 10.2 28.55 10.35 28.6 10.5 28.6 10.6 28.6 10.75 28.6 10.9 28.6 11.0 28.6 11.1 28.6 11.2 28.6 11.35 28.55 11.45 28.55 11.55 28.5 11.65 28.5 11.75 28.45 11.9 28.4 12.0 28.35 12.1 28.35 12.2 28.3 12.3 28.25 12.45 28.15 12.55 28.1 12.65 28.05 12.75 27.95 12.9 27.9 13.0 27.8 13.15 27.7 13.25 27.6 13.4 27.55 13.55 27.4 13.7 27.3 13.85 27.2 14.0 27.05 14.15 26.95 14.3 26.8 14.45 26.65 14.6 26.5 14.8 26.35 14.95 L24.9 16.5 28.35 16.5 28.35 17.5 22.9 17.5 24.8 15.25 Q24.95 15.1 25.35 14.6 25.65 14.25 25.85 13.95 26.1 13.65 26.3 13.4 26.5 13.1 26.7 12.85 26.85 12.6 27.0 12.4 27.15 12.15 27.25 11.95 27.35 11.75 27.4 11.6 27.5 11.4 27.5 11.25 27.55 11.1 27.55 10.95 27.55 10.85 27.55 10.8 27.55 10.7 27.5 10.65 27.5 10.55 27.5 10.5 27.45 10.4 27.45 10.35 27.4 10.25 27.35 10.2 27.3 10.15 27.3 10.05 27.25 10.0 27.2 9.95 27.1 9.9 27.05 9.85 27.0 9.8 26.95 9.75 26.85 9.7 26.8 9.65 26.75 9.6 26.65 9.55 26.6 9.55 26.5 9.5 26.4 9.5 26.35 9.45 26.25 9.45 26.15 9.4 26.05 9.4 26.0 9.4 25.9 9.4 25.8 9.4 25.7 9.4 25.6 9.4 25.5 9.4 25.4 9.4 25.3 9.45 25.2 9.45 25.1 9.5 25.05 9.5 24.95 9.55 24.85 9.6 24.8 9.6 24.75 9.65 24.65 9.7 24.6 9.75 24.55 9.8 24.45 9.85 24.4 9.9 24.35 10.0 24.3 10.05 24.25 10.15 24.2 10.2 24.2 10.3 24.15 10.35 24.15 10.45 24.1 10.55 24.1 10.65 24.05 10.7 24.05 10.8 24.05 10.9 24.05 11.0 24.0 11.15 24.0 11.25 L24.0 11.35 23.0 11.35 Q23.0 11.35 23.0 11.3 23.0 11.25 23.0 11.2 23.0 11.2 23.0 11.15 23.0 11.1 23.0 11.1 23.0 10.95 23.0 10.8 23.0 10.65 23.05 10.5 23.05 10.35 23.1 10.25 23.15 10.1 23.2 9.95 23.25 9.85 23.3 9.75 23.35 9.6 23.4 9.5 23.5 9.4 23.55 9.3 23.65 9.2 23.75 9.1 23.85 9.0 23.95 8.95 24.05 8.85 24.15 8.8 24.25 8.75 24.4 8.7 24.5 8.65 24.65 8.6 24.75 8.55 24.9 8.5 25.05 8.45 25.2 8.45 25.35 8.45 25.5 8.4 25.65 8.4 25.8 8.4 L25.8 8.4 M16.9 8.5 L18.8 8.5 Q18.9 8.5 19.05 8.5 19.15 8.5 19.25 8.5 19.35 8.5 19.45 8.5 19.55 8.5 19.65 8.55 19.75 8.55 19.8 8.55 19.9 8.55 19.95 8.55 20.05 8.55 20.1 8.6 20.2 8.6 20.25 8.6 20.3 8.6 20.35 8.65 20.4 8.65 20.45 8.65 20.5 8.7 20.55 8.7 20.65 8.7 20.7 8.75 20.75 8.75 20.8 8.8 20.8 8.8 20.85 8.85 20.9 8.85 20.95 8.9 21.0 8.9 21.05 8.95 21.1 9.0 21.15 9.05 21.2 9.05 21.25 9.1 21.3 9.15 21.35 9.2 21.4 9.25 21.45 9.3 21.5 9.35 21.5 9.4 21.55 9.5 21.6 9.55 21.6 9.6 21.65 9.65 21.7 9.7 21.7 9.8 21.75 9.85 21.75 9.95 21.8 10.0 21.8 10.05 21.85 10.15 21.85 10.2 21.9 10.3 21.9 10.35 21.9 10.45 21.95 10.5 21.95 10.6 21.95 10.65 21.95 10.75 21.95 10.8 21.95 10.9 21.95 11.0 21.95 11.1 21.95 11.15 21.95 11.25 21.95 11.3 21.95 11.4 21.95 11.45 21.9 11.55 21.9 11.6 21.9 11.7 21.85 11.75 21.85 11.8 21.85 11.9 21.8 11.95 21.8 12.05 21.75 12.1 21.7 12.15 21.65 12.2 21.65 12.3 21.6 12.35 21.6 12.4 21.55 12.45 21.5 12.55 21.45 12.6 21.45 12.65 21.4 12.7 21.35 12.75 21.3 12.8 21.25 12.85 21.2 12.9 21.15 12.95 21.1 12.95 21.05 13.0 21.0 13.05 20.95 13.05 20.9 13.1 20.85 13.1 20.8 13.15 20.75 13.15 20.75 13.2 20.7 13.2 20.6 13.25 20.55 13.25 20.5 13.3 20.45 13.3 20.4 13.3 20.35 13.35 20.3 13.35 20.25 13.35 20.2 13.35 20.1 13.4 20.05 13.4 20.0 13.4 19.9 13.4 19.8 13.4 19.75 13.45 19.65 13.45 19.55 13.45 19.45 13.45 19.35 13.45 19.25 13.45 19.15 13.45 19.0 13.45 18.9 13.45 18.8 13.45 L18.5 13.45 17.95 13.45 17.95 17.5 16.9 17.5 16.9 8.5 16.9 8.5 M17.95 9.5 L17.95 12.5 18.5 12.5 Q18.65 12.5 18.8 12.5 19.0 12.5 19.1 12.45 19.25 12.45 19.4 12.45 19.5 12.45 19.65 12.4 19.75 12.4 19.85 12.35 19.95 12.35 20.05 12.3 20.1 12.3 20.2 12.25 20.25 12.2 20.35 12.15 20.4 12.1 20.45 12.05 20.5 12.0 20.55 11.95 20.6 11.9 20.65 11.85 20.65 11.8 20.7 11.7 20.7 11.65 20.75 11.55 20.75 11.5 20.8 11.4 20.8 11.35 20.8 11.25 20.8 11.15 20.8 11.05 20.8 10.95 20.8 10.85 20.8 10.75 20.8 10.65 20.75 10.55 20.75 10.45 20.7 10.4 20.7 10.3 20.65 10.25 20.6 10.15 20.6 10.1 20.55 10.05 20.5 10.0 20.45 9.9 20.4 9.85 20.3 9.85 20.25 9.8 20.15 9.75 20.1 9.7 20.0 9.7 19.95 9.65 19.85 9.6 19.75 9.6 19.6 9.55 19.5 9.55 19.35 9.55 19.25 9.5 19.1 9.5 18.95 9.5 18.8 9.5 18.65 9.5 18.5 9.5 L17.95 9.5 17.95 9.5" fill="#ffffff" fill-rule="evenodd" stroke="none"/>
  </g>
</svg>
