<?xml version="1.0" encoding="UTF-8" standalone="no"?>
<svg xmlns:ffdec="https://www.free-decompiler.com/flash" xmlns:xlink="http://www.w3.org/1999/xlink" ffdec:objectType="shape" height="26.0px" width="26.0px" xmlns="http://www.w3.org/2000/svg">
  <g transform="matrix(1.0, 0.0, 0.0, 1.0, 0.0, 0.0)">
    <path d="M4.0 3.0 Q3.9 3.0 3.8 3.0 3.7 3.05 3.6 3.1 3.5 3.1 3.45 3.15 3.35 3.2 3.3 3.3 3.2 3.35 3.15 3.45 3.1 3.5 3.1 3.6 3.05 3.7 3.0 3.8 3.0 3.9 3.0 4.0 L3.0 22.0 Q3.0 22.1 3.0 22.2 3.05 22.3 3.1 22.4 3.1 22.5 3.15 22.55 3.2 22.65 3.3 22.7 3.35 22.8 3.45 22.85 3.5 22.9 3.6 22.9 3.7 22.95 3.8 23.0 3.9 23.0 4.0 23.0 L22.0 23.0 Q22.1 23.0 22.2 23.0 22.3 22.95 22.4 22.9 22.5 22.9 22.55 22.85 22.65 22.8 22.7 22.7 22.8 22.65 22.85 22.55 22.9 22.5 22.9 22.4 22.95 22.3 23.0 22.2 23.0 22.1 23.0 22.0 L23.0 4.0 Q23.0 3.9 23.0 3.8 22.95 3.7 22.9 3.6 22.9 3.5 22.85 3.45 22.8 3.35 22.7 3.3 22.65 3.2 22.55 3.15 22.5 3.1 22.4 3.1 22.3 3.05 22.2 3.0 22.1 3.0 22.0 3.0 L4.0 3.0 4.0 3.0 M19.0 8.9 Q19.15 8.9 19.3 8.9 19.45 8.95 19.55 8.95 19.7 8.95 19.8 9.0 19.95 9.05 20.05 9.05 20.15 9.1 20.3 9.15 20.4 9.2 20.5 9.25 20.6 9.3 20.65 9.35 20.75 9.45 20.85 9.5 20.95 9.55 21.0 9.65 21.05 9.75 21.15 9.85 21.2 9.9 21.25 10.0 21.3 10.1 21.35 10.2 21.4 10.3 21.4 10.4 21.45 10.55 21.45 10.65 21.5 10.75 21.5 10.9 21.5 11.0 21.5 11.15 21.5 11.25 21.5 11.35 21.5 11.45 21.45 11.5 21.45 11.6 21.45 11.7 21.4 11.8 21.4 11.9 21.35 12.0 21.35 12.1 21.3 12.2 21.25 12.3 21.2 12.4 21.15 12.5 21.1 12.6 21.05 12.7 21.0 12.8 20.95 12.9 20.85 13.0 20.8 13.15 20.7 13.25 20.6 13.35 20.55 13.5 20.45 13.6 20.35 13.75 20.25 13.85 20.1 14.0 20.0 14.15 19.9 14.3 19.75 14.45 19.6 14.6 19.5 14.75 L18.2 16.1 21.25 16.1 21.25 17.0 16.45 17.0 18.15 15.0 Q18.25 14.85 18.6 14.4 18.85 14.1 19.05 13.85 19.3 13.6 19.45 13.35 19.65 13.1 19.8 12.9 19.95 12.65 20.05 12.45 20.2 12.25 20.3 12.05 20.4 11.9 20.45 11.75 20.5 11.6 20.55 11.45 20.55 11.3 20.55 11.2 20.55 11.1 20.55 11.05 20.55 10.95 20.55 10.9 20.5 10.85 20.5 10.75 20.5 10.7 20.45 10.65 20.4 10.55 20.4 10.5 20.35 10.45 20.3 10.4 20.3 10.35 20.25 10.3 20.2 10.25 20.1 10.2 20.05 10.15 20.0 10.1 19.95 10.05 19.9 10.0 19.8 10.0 19.75 9.95 19.7 9.9 19.6 9.9 19.55 9.85 19.5 9.85 19.4 9.85 19.3 9.8 19.25 9.8 19.15 9.8 19.1 9.8 19.0 9.8 18.9 9.8 18.8 9.8 18.7 9.8 18.65 9.8 18.55 9.85 18.45 9.85 18.4 9.85 18.3 9.9 18.25 9.95 18.2 9.95 18.1 10.0 18.05 10.05 18.0 10.05 17.95 10.1 17.85 10.15 17.8 10.2 17.75 10.25 17.7 10.3 17.65 10.4 17.65 10.45 17.6 10.5 17.55 10.6 17.55 10.65 17.5 10.75 17.5 10.8 17.5 10.9 17.45 10.95 17.45 11.05 17.45 11.15 17.45 11.25 17.4 11.35 17.4 11.45 L17.4 11.55 16.55 11.55 Q16.55 11.5 16.55 11.5 16.5 11.45 16.5 11.4 16.5 11.4 16.5 11.3 16.5 11.15 16.5 11.05 16.55 10.9 16.55 10.75 16.55 10.65 16.6 10.55 16.65 10.4 16.7 10.3 16.7 10.2 16.75 10.1 16.8 10.0 16.9 9.9 16.95 9.8 17.0 9.7 17.1 9.65 17.2 9.55 17.3 9.45 17.35 9.4 17.45 9.35 17.55 9.25 17.65 9.2 17.75 9.15 17.85 9.1 17.95 9.1 18.1 9.05 18.2 9.0 18.35 9.0 18.45 8.95 18.6 8.95 18.75 8.95 18.85 8.9 19.0 8.9 L19.0 8.9 M4.5 9.0 L8.7 9.0 8.7 9.85 5.45 9.85 5.45 12.15 8.7 12.15 8.7 13.05 5.45 13.05 5.45 17.0 4.5 17.0 4.5 9.0 4.5 9.0 M11.15 9.1 L13.2 9.1 13.2 17.0 12.25 17.0 12.25 9.9 10.65 9.9 11.15 9.1 11.15 9.1" fill="#ffffff" fill-rule="evenodd" stroke="none"/>
  </g>
</svg>
