<?xml version="1.0" encoding="UTF-8" standalone="no"?>
<svg xmlns:ffdec="https://www.free-decompiler.com/flash" xmlns:xlink="http://www.w3.org/1999/xlink" ffdec:objectType="shape" height="26.0px" width="41.75px" xmlns="http://www.w3.org/2000/svg">
  <g transform="matrix(1.0, 0.0, 0.0, 1.0, 0.0, 0.0)">
    <path d="M4.0 3.0 Q3.9 3.0 3.8 3.0 3.7 3.05 3.6 3.1 3.5 3.1 3.45 3.15 3.35 3.2 3.3 3.3 3.2 3.35 3.15 3.45 3.1 3.5 3.1 3.6 3.05 3.7 3.0 3.8 3.0 3.9 3.0 4.0 L3.0 22.0 Q3.0 22.1 3.0 22.2 3.05 22.3 3.1 22.4 3.1 22.5 3.15 22.55 3.2 22.65 3.3 22.7 3.35 22.8 3.45 22.85 3.5 22.9 3.6 22.9 3.7 22.95 3.8 23.0 3.9 23.0 4.0 23.0 L37.75 23.0 Q37.85 23.0 37.95 23.0 38.05 22.95 38.15 22.9 38.25 22.9 38.3 22.85 38.4 22.8 38.45 22.7 38.55 22.65 38.6 22.55 38.65 22.5 38.65 22.4 38.7 22.3 38.75 22.2 38.75 22.1 38.75 22.0 L38.75 4.0 Q38.75 3.9 38.75 3.8 38.7 3.7 38.65 3.6 38.65 3.5 38.6 3.45 38.55 3.35 38.45 3.3 38.4 3.2 38.3 3.15 38.25 3.1 38.15 3.1 38.05 3.05 37.95 3.0 37.85 3.0 37.75 3.0 L4.0 3.0 4.0 3.0 M5.95 8.5 L7.85 8.5 Q8.0 8.5 8.1 8.5 8.2 8.5 8.3 8.5 8.45 8.5 8.55 8.5 8.65 8.5 8.7 8.55 8.8 8.55 8.9 8.55 9.0 8.55 9.05 8.55 9.15 8.55 9.2 8.6 9.25 8.6 9.3 8.6 9.35 8.6 9.4 8.65 9.5 8.65 9.55 8.65 9.6 8.7 9.65 8.7 9.7 8.7 9.75 8.75 9.8 8.75 9.85 8.8 9.9 8.8 9.95 8.85 10.0 8.85 10.05 8.9 10.1 8.9 10.15 8.95 10.2 9.0 10.25 9.05 10.3 9.05 10.35 9.1 10.4 9.15 10.45 9.2 10.45 9.25 10.5 9.3 10.55 9.35 10.6 9.4 10.65 9.5 10.65 9.55 10.7 9.6 10.75 9.65 10.75 9.7 10.8 9.8 10.85 9.85 10.85 9.95 10.9 10.0 10.9 10.05 10.95 10.15 10.95 10.2 10.95 10.3 11.0 10.35 11.0 10.45 11.0 10.5 11.0 10.6 11.05 10.65 11.05 10.75 11.05 10.8 11.05 10.9 11.05 11.0 11.05 11.1 11.05 11.15 11.05 11.25 11.05 11.3 11.0 11.4 11.0 11.45 11.0 11.55 11.0 11.6 10.95 11.7 10.95 11.75 10.95 11.8 10.9 11.9 10.9 11.95 10.85 12.05 10.85 12.1 10.8 12.15 10.75 12.2 10.75 12.3 10.7 12.35 10.65 12.4 10.65 12.45 10.6 12.55 10.55 12.6 10.5 12.65 10.45 12.7 10.4 12.75 10.4 12.8 10.35 12.85 10.3 12.9 10.25 12.95 10.2 12.95 10.15 13.0 10.1 13.05 10.05 13.05 10.0 13.1 9.95 13.1 9.9 13.15 9.85 13.15 9.8 13.2 9.75 13.2 9.7 13.25 9.65 13.25 9.6 13.3 9.55 13.3 9.5 13.3 9.45 13.35 9.4 13.35 9.3 13.35 9.25 13.35 9.2 13.4 9.1 13.4 9.05 13.4 8.95 13.4 8.9 13.4 8.8 13.45 8.7 13.45 8.65 13.45 8.55 13.45 8.45 13.45 8.35 13.45 8.2 13.45 8.1 13.45 8.0 13.45 7.85 13.45 L7.55 13.45 7.0 13.45 7.0 17.5 5.95 17.5 5.95 8.5 5.95 8.5 M7.0 9.5 L7.0 12.5 7.55 12.5 Q7.7 12.5 7.9 12.5 8.05 12.5 8.2 12.45 8.35 12.45 8.45 12.45 8.6 12.45 8.7 12.4 8.85 12.4 8.95 12.35 9.05 12.35 9.1 12.3 9.2 12.3 9.3 12.25 9.35 12.2 9.4 12.15 9.45 12.1 9.5 12.05 9.55 12.0 9.6 11.95 9.65 11.9 9.7 11.85 9.75 11.8 9.75 11.7 9.8 11.65 9.8 11.55 9.85 11.5 9.85 11.4 9.85 11.35 9.9 11.25 9.9 11.15 9.9 11.05 9.9 10.95 9.9 10.85 9.9 10.75 9.85 10.65 9.85 10.55 9.8 10.45 9.8 10.4 9.75 10.3 9.75 10.25 9.7 10.15 9.65 10.1 9.6 10.05 9.55 10.0 9.5 9.9 9.45 9.85 9.4 9.85 9.35 9.8 9.25 9.75 9.2 9.7 9.1 9.7 9.0 9.65 8.9 9.6 8.8 9.6 8.7 9.55 8.6 9.55 8.45 9.55 8.3 9.5 8.2 9.5 8.05 9.5 7.9 9.5 7.75 9.5 7.55 9.5 L7.0 9.5 7.0 9.5 M33.05 11.65 Q33.2 11.65 33.35 11.65 33.5 11.7 33.65 11.7 33.8 11.75 33.95 11.75 34.05 11.8 34.2 11.85 34.3 11.9 34.45 11.95 34.55 12.05 34.65 12.1 34.75 12.2 34.85 12.25 34.95 12.35 35.05 12.45 35.15 12.55 35.2 12.65 35.3 12.75 35.35 12.9 35.45 13.0 35.5 13.15 35.55 13.25 35.6 13.4 35.65 13.55 35.65 13.7 35.7 13.85 35.75 14.0 35.75 14.15 35.75 14.3 35.8 14.45 35.8 14.65 L35.8 14.85 31.3 14.85 31.3 14.9 Q31.3 15.0 31.3 15.15 31.35 15.25 31.35 15.35 31.35 15.45 31.4 15.55 31.4 15.65 31.45 15.75 31.5 15.85 31.5 15.9 31.55 16.0 31.6 16.1 31.65 16.15 31.7 16.25 31.75 16.3 31.85 16.4 31.9 16.45 32.0 16.5 32.05 16.6 32.1 16.65 32.2 16.7 32.25 16.7 32.35 16.75 32.45 16.8 32.5 16.85 32.6 16.85 32.7 16.9 32.8 16.9 32.9 16.9 33.0 16.95 33.1 16.95 33.2 16.95 33.25 16.95 33.35 16.95 33.4 16.95 33.45 16.9 33.55 16.9 33.6 16.9 33.65 16.9 33.7 16.85 33.8 16.85 33.85 16.8 33.9 16.8 33.95 16.75 34.05 16.75 34.1 16.7 34.15 16.65 34.2 16.65 34.25 16.6 34.3 16.55 34.35 16.5 34.4 16.45 34.5 16.4 34.55 16.35 34.6 16.3 34.65 16.25 34.7 16.2 34.75 16.15 34.8 16.05 34.85 16.0 34.85 15.95 34.9 15.85 34.95 15.8 35.0 15.7 L35.75 16.2 Q35.7 16.3 35.65 16.4 35.6 16.5 35.5 16.55 35.45 16.65 35.4 16.7 35.35 16.8 35.25 16.85 35.2 16.95 35.1 17.0 35.05 17.05 34.95 17.15 34.9 17.2 34.8 17.25 34.75 17.3 34.65 17.35 34.55 17.4 34.5 17.45 34.4 17.5 34.3 17.5 34.2 17.55 34.15 17.6 34.05 17.6 33.95 17.65 33.85 17.65 33.75 17.7 33.65 17.7 33.55 17.7 33.45 17.75 33.35 17.75 33.25 17.75 33.15 17.75 33.0 17.75 32.85 17.75 32.7 17.7 32.55 17.7 32.4 17.65 32.25 17.6 32.1 17.6 31.95 17.55 31.85 17.5 31.7 17.4 31.6 17.35 31.5 17.25 31.35 17.2 31.25 17.1 31.15 17.0 31.05 16.9 30.95 16.8 30.85 16.7 30.8 16.55 30.7 16.45 30.65 16.3 30.55 16.2 30.5 16.05 30.45 15.9 30.4 15.75 30.35 15.6 30.35 15.5 30.3 15.3 30.3 15.15 30.25 15.0 30.25 14.85 30.25 14.65 30.25 14.5 30.25 14.35 30.3 14.2 30.3 14.05 30.35 13.9 30.35 13.75 30.4 13.6 30.45 13.45 30.5 13.35 30.55 13.2 30.65 13.05 30.7 12.95 30.8 12.85 30.85 12.7 30.95 12.6 31.05 12.5 31.15 12.4 31.25 12.3 31.35 12.2 31.45 12.15 31.6 12.05 31.7 12.0 31.8 11.9 31.95 11.85 32.05 11.8 32.2 11.8 32.35 11.75 32.5 11.7 32.6 11.7 32.75 11.65 32.9 11.65 33.05 11.65 L33.05 11.65 M13.8 11.65 Q13.9 11.65 13.95 11.65 14.05 11.65 14.15 11.7 14.2 11.7 14.3 11.7 14.4 11.75 14.45 11.75 14.55 11.75 14.6 11.8 14.7 11.8 14.75 11.85 14.8 11.9 14.9 11.9 14.95 11.95 15.0 12.0 15.05 12.05 15.15 12.1 15.2 12.1 15.25 12.15 15.3 12.2 15.4 12.25 15.45 12.35 15.5 12.4 15.55 12.45 15.6 12.5 15.65 12.55 15.7 12.65 15.75 12.7 15.8 12.8 15.8 12.85 15.85 12.95 L15.85 11.9 16.8 11.9 16.8 17.5 15.9 17.5 15.9 16.5 Q15.85 16.55 15.8 16.65 15.75 16.7 15.7 16.8 15.65 16.85 15.6 16.9 15.55 16.95 15.5 17.0 15.45 17.1 15.4 17.15 15.35 17.2 15.25 17.25 15.2 17.3 15.15 17.35 15.1 17.4 15.0 17.4 14.95 17.45 14.85 17.5 14.8 17.5 14.75 17.55 14.65 17.6 14.6 17.6 14.55 17.65 14.45 17.65 14.4 17.7 14.3 17.7 14.25 17.7 14.15 17.7 14.1 17.75 14.0 17.75 13.9 17.75 13.85 17.75 13.7 17.75 13.55 17.75 13.4 17.7 13.25 17.7 13.15 17.65 13.0 17.65 12.85 17.6 12.75 17.55 12.65 17.5 12.5 17.4 12.4 17.35 12.3 17.25 12.2 17.2 12.1 17.1 12.0 17.0 11.9 16.9 11.8 16.8 11.7 16.7 11.65 16.55 11.55 16.45 11.5 16.35 11.45 16.2 11.4 16.1 11.35 15.95 11.3 15.8 11.25 15.65 11.2 15.5 11.2 15.35 11.15 15.2 11.15 15.05 11.15 14.85 11.15 14.7 11.15 14.55 11.15 14.35 11.15 14.2 11.2 14.05 11.2 13.9 11.25 13.75 11.3 13.6 11.35 13.45 11.35 13.3 11.45 13.2 11.5 13.05 11.55 12.95 11.6 12.8 11.7 12.7 11.8 12.6 11.85 12.5 11.95 12.4 12.05 12.3 12.15 12.2 12.25 12.15 12.35 12.05 12.45 12.0 12.6 11.95 12.7 11.9 12.85 11.85 12.95 11.8 13.1 11.75 13.2 11.7 13.35 11.7 13.5 11.7 13.65 11.65 13.8 11.65 L13.8 11.65 M27.25 11.65 Q27.35 11.65 27.45 11.65 27.5 11.65 27.6 11.7 27.7 11.7 27.75 11.7 27.85 11.7 27.9 11.75 28.0 11.75 28.05 11.8 28.15 11.8 28.2 11.85 28.3 11.85 28.35 11.9 28.45 11.95 28.5 11.95 28.55 12.0 28.6 12.05 28.7 12.05 28.75 12.1 28.8 12.15 28.85 12.2 28.9 12.25 28.95 12.3 29.0 12.35 29.05 12.4 29.05 12.5 29.1 12.55 29.15 12.6 29.2 12.65 29.2 12.7 29.25 12.8 L28.45 13.25 Q28.45 13.2 28.4 13.15 28.4 13.1 28.35 13.1 28.35 13.05 28.3 13.0 28.3 12.95 28.25 12.9 28.2 12.9 28.2 12.85 28.15 12.8 28.1 12.8 28.05 12.75 28.05 12.75 28.0 12.7 27.95 12.65 27.9 12.65 27.85 12.6 27.8 12.6 27.8 12.55 27.75 12.55 27.7 12.55 27.65 12.55 27.6 12.5 27.55 12.5 27.5 12.5 27.45 12.5 27.4 12.5 27.35 12.45 27.3 12.45 27.25 12.45 27.2 12.45 27.15 12.45 27.1 12.45 27.05 12.45 27.0 12.45 26.95 12.5 26.9 12.5 26.85 12.5 26.8 12.5 26.75 12.55 26.7 12.55 26.65 12.6 26.65 12.6 26.6 12.6 26.55 12.65 26.5 12.7 26.5 12.7 26.45 12.75 26.45 12.75 26.4 12.8 26.35 12.85 26.35 12.85 26.35 12.9 26.3 12.95 26.3 12.95 26.25 13.0 26.25 13.05 26.25 13.1 26.25 13.15 26.25 13.15 26.2 13.2 26.2 13.25 26.2 13.3 26.2 13.35 26.2 13.45 26.25 13.5 26.3 13.55 26.3 13.6 26.35 13.65 26.4 13.75 26.5 13.8 26.55 13.85 26.65 13.9 26.75 13.95 26.85 14.0 26.95 14.05 27.05 14.1 27.2 14.15 27.35 14.15 27.4 14.15 27.45 14.2 27.5 14.2 27.55 14.25 27.55 14.25 27.6 14.25 27.65 14.25 27.65 14.3 27.75 14.35 27.9 14.35 28.0 14.4 28.1 14.45 28.2 14.5 28.25 14.5 28.35 14.55 28.45 14.6 28.5 14.65 28.6 14.7 28.65 14.75 28.75 14.75 28.8 14.8 28.85 14.85 28.9 14.9 28.95 14.95 29.0 15.0 29.05 15.05 29.05 15.1 29.1 15.15 29.15 15.2 29.15 15.25 29.2 15.35 29.2 15.4 29.25 15.45 29.25 15.5 29.25 15.6 29.3 15.65 29.3 15.75 29.3 15.8 29.3 15.85 29.3 15.95 29.3 16.05 29.3 16.15 29.3 16.25 29.25 16.35 29.25 16.4 29.2 16.5 29.2 16.6 29.15 16.65 29.1 16.75 29.1 16.85 29.05 16.9 29.0 17.0 28.95 17.05 28.85 17.1 28.8 17.2 28.75 17.25 28.7 17.3 28.6 17.35 28.5 17.4 28.45 17.45 28.35 17.5 28.25 17.55 28.15 17.6 28.1 17.6 28.0 17.65 27.9 17.65 27.8 17.7 27.7 17.7 27.6 17.7 27.45 17.75 27.35 17.75 27.25 17.75 27.15 17.75 27.05 17.75 26.95 17.75 26.85 17.75 26.8 17.7 26.7 17.7 26.6 17.7 26.5 17.65 26.45 17.65 26.35 17.65 26.3 17.6 26.2 17.55 26.1 17.55 26.05 17.5 26.0 17.5 25.9 17.45 25.85 17.4 25.75 17.35 25.7 17.35 25.65 17.3 25.6 17.25 25.55 17.2 25.45 17.15 25.4 17.05 25.35 17.0 25.3 16.95 25.25 16.9 25.2 16.85 25.15 16.75 25.1 16.7 25.05 16.65 25.05 16.55 L25.85 16.0 Q25.9 16.05 25.9 16.1 25.95 16.15 26.0 16.2 26.0 16.25 26.05 16.3 26.1 16.35 26.1 16.4 26.15 16.45 26.2 16.45 26.25 16.5 26.25 16.55 26.3 16.6 26.35 16.6 26.4 16.65 26.45 16.7 26.5 16.7 26.55 16.75 26.6 16.75 26.65 16.8 26.7 16.8 26.75 16.8 26.8 16.85 26.85 16.85 26.9 16.85 26.95 16.85 27.0 16.9 27.05 16.9 27.1 16.9 27.15 16.9 27.25 16.9 27.3 16.9 27.35 16.9 27.4 16.9 27.45 16.9 27.5 16.9 27.55 16.9 27.6 16.85 27.65 16.85 27.7 16.85 27.75 16.85 27.8 16.8 27.85 16.8 27.9 16.75 27.95 16.75 27.95 16.7 28.0 16.7 28.05 16.65 28.1 16.6 28.1 16.6 28.15 16.55 28.2 16.55 28.2 16.5 28.25 16.45 28.25 16.45 28.25 16.4 28.3 16.35 28.3 16.3 28.3 16.25 28.35 16.25 28.35 16.2 28.35 16.15 28.35 16.1 28.35 16.05 28.35 16.0 28.35 16.0 28.35 15.95 28.35 15.9 28.35 15.85 28.3 15.85 28.3 15.8 28.3 15.8 28.3 15.75 28.25 15.7 28.25 15.7 28.25 15.65 28.2 15.65 28.2 15.6 28.15 15.6 28.15 15.55 28.1 15.55 28.1 15.5 28.05 15.5 28.05 15.45 28.0 15.45 27.95 15.4 27.9 15.4 27.85 15.35 27.85 15.35 27.8 15.3 27.75 15.3 27.7 15.3 27.65 15.25 27.6 15.25 27.5 15.2 27.45 15.2 27.4 15.2 27.3 15.15 27.05 15.05 26.8 14.95 26.6 14.85 26.4 14.75 26.2 14.65 26.05 14.55 25.9 14.45 25.75 14.35 25.65 14.25 25.55 14.1 25.45 14.0 25.35 13.9 25.3 13.75 25.3 13.65 25.25 13.5 25.25 13.35 25.25 13.25 25.25 13.15 25.25 13.1 25.3 13.0 25.3 12.9 25.3 12.85 25.35 12.75 25.4 12.7 25.4 12.6 25.45 12.55 25.5 12.45 25.55 12.4 25.6 12.35 25.65 12.25 25.75 12.2 25.8 12.15 25.85 12.1 25.95 12.05 26.0 12.0 26.1 11.95 26.2 11.9 26.25 11.85 26.35 11.8 26.45 11.8 26.55 11.75 26.6 11.75 26.7 11.7 26.8 11.7 26.9 11.7 27.0 11.7 27.15 11.65 27.25 11.65 L27.25 11.65 M18.65 11.9 L19.65 11.9 19.65 14.65 Q19.65 14.8 19.65 14.95 19.65 15.1 19.65 15.2 19.7 15.35 19.7 15.45 19.7 15.55 19.75 15.65 19.75 15.8 19.8 15.85 19.8 15.95 19.85 16.05 19.9 16.15 19.9 16.2 19.95 16.3 20.0 16.35 20.05 16.4 20.1 16.45 20.15 16.5 20.2 16.55 20.25 16.6 20.35 16.65 20.4 16.65 20.5 16.7 20.55 16.75 20.65 16.75 20.75 16.75 20.8 16.8 20.9 16.8 21.0 16.8 21.1 16.8 21.2 16.8 21.3 16.8 21.4 16.8 21.5 16.8 21.6 16.8 21.7 16.75 21.8 16.75 21.85 16.75 21.95 16.7 22.0 16.65 22.1 16.65 22.15 16.6 22.2 16.55 22.3 16.5 22.35 16.45 22.4 16.4 22.4 16.35 22.45 16.3 22.5 16.2 22.55 16.15 22.55 16.05 22.6 16.0 22.65 15.9 22.65 15.8 22.7 15.7 22.7 15.55 22.75 15.45 22.75 15.35 22.75 15.2 22.75 15.1 22.8 14.95 22.8 14.8 22.8 14.65 L22.8 11.9 23.75 11.9 23.75 15.15 Q23.75 15.3 23.75 15.45 23.75 15.6 23.7 15.75 23.7 15.9 23.65 16.0 23.65 16.15 23.6 16.3 23.55 16.4 23.5 16.5 23.45 16.6 23.4 16.7 23.35 16.8 23.25 16.9 23.2 17.0 23.1 17.1 23.0 17.2 22.95 17.25 22.85 17.3 22.75 17.4 22.65 17.45 22.55 17.5 22.45 17.55 22.3 17.6 22.2 17.6 22.05 17.65 21.95 17.7 21.8 17.7 21.65 17.7 21.5 17.75 21.35 17.75 21.2 17.75 21.05 17.75 20.9 17.75 20.75 17.7 20.6 17.7 20.45 17.7 20.35 17.65 20.2 17.6 20.1 17.6 19.95 17.55 19.85 17.5 19.75 17.45 19.65 17.35 19.55 17.3 19.45 17.25 19.35 17.15 19.3 17.1 19.2 17.0 19.15 16.9 19.05 16.85 19.0 16.7 18.95 16.6 18.9 16.5 18.85 16.4 18.8 16.25 18.75 16.15 18.75 16.0 18.7 15.9 18.7 15.75 18.65 15.6 18.65 15.45 18.65 15.3 18.65 15.15 L18.65 11.9 18.65 11.9 M33.05 12.5 Q32.95 12.5 32.85 12.5 32.8 12.5 32.7 12.55 32.6 12.55 32.55 12.55 32.45 12.6 32.4 12.6 32.3 12.65 32.25 12.65 32.2 12.7 32.1 12.75 32.05 12.8 32.0 12.85 31.9 12.85 31.85 12.95 31.8 13.0 31.75 13.05 31.7 13.1 31.65 13.15 31.6 13.2 31.55 13.3 31.5 13.35 31.5 13.4 31.45 13.5 31.45 13.55 31.4 13.65 31.4 13.7 31.35 13.8 31.35 13.9 31.35 13.95 31.3 14.05 L34.75 14.05 Q34.75 13.95 34.75 13.85 34.7 13.8 34.7 13.7 34.7 13.6 34.65 13.55 34.65 13.45 34.6 13.4 34.55 13.3 34.55 13.25 34.5 13.2 34.45 13.15 34.4 13.05 34.35 13.0 34.3 12.95 34.25 12.9 34.2 12.85 34.15 12.8 34.05 12.75 34.0 12.75 33.95 12.7 33.85 12.65 33.8 12.65 33.7 12.6 33.65 12.6 33.55 12.55 33.5 12.55 33.4 12.55 33.3 12.5 33.2 12.5 33.15 12.5 33.05 12.5 L33.05 12.5 M14.0 12.65 Q13.9 12.65 13.8 12.65 13.7 12.65 13.6 12.65 13.5 12.7 13.4 12.7 13.3 12.75 13.25 12.75 13.15 12.8 13.05 12.85 13.0 12.9 12.9 12.95 12.85 13.0 12.8 13.05 12.7 13.1 12.65 13.15 12.6 13.2 12.55 13.3 12.5 13.35 12.45 13.45 12.4 13.55 12.35 13.6 12.3 13.7 12.3 13.8 12.25 13.9 12.25 14.0 12.2 14.1 12.2 14.2 12.2 14.3 12.2 14.4 12.15 14.55 12.15 14.65 12.15 14.8 12.15 14.9 12.15 15.0 12.2 15.15 12.2 15.25 12.25 15.35 12.25 15.45 12.3 15.55 12.3 15.65 12.35 15.75 12.4 15.85 12.45 15.9 12.5 16.0 12.55 16.1 12.6 16.15 12.65 16.25 12.7 16.3 12.8 16.35 12.85 16.45 12.9 16.5 13.0 16.55 13.1 16.55 13.15 16.6 13.25 16.65 13.35 16.7 13.45 16.7 13.5 16.75 13.6 16.75 13.7 16.75 13.85 16.75 13.95 16.8 14.05 16.8 14.15 16.8 14.25 16.8 14.35 16.75 14.45 16.75 14.55 16.75 14.65 16.7 14.75 16.7 14.8 16.65 14.9 16.6 14.95 16.55 15.05 16.55 15.1 16.5 15.2 16.45 15.25 16.35 15.35 16.3 15.4 16.25 15.45 16.2 15.5 16.1 15.55 16.05 15.6 15.95 15.65 15.85 15.7 15.8 15.75 15.7 15.75 15.6 15.8 15.5 15.8 15.4 15.85 15.3 15.85 15.2 15.85 15.1 15.9 14.95 15.9 14.85 15.9 14.75 15.9 14.65 15.9 14.5 15.9 14.4 15.85 14.3 15.85 14.2 15.8 14.1 15.8 14.0 15.75 13.9 15.7 13.8 15.7 13.7 15.65 13.6 15.6 13.5 15.55 13.45 15.5 13.35 15.45 13.3 15.35 13.2 15.3 13.15 15.2 13.05 15.15 13.0 15.1 12.95 15.0 12.9 14.95 12.85 14.85 12.8 14.75 12.75 14.7 12.75 14.6 12.7 14.5 12.7 14.4 12.65 14.3 12.65 14.2 12.65 14.1 12.65 14.0 12.65 L14.0 12.65" fill="#ffffff" fill-rule="evenodd" stroke="none"/>
  </g>
</svg>
