<?xml version="1.0" encoding="UTF-8" standalone="no"?>
<svg xmlns:ffdec="https://www.free-decompiler.com/flash" xmlns:xlink="http://www.w3.org/1999/xlink" ffdec:objectType="shape" height="26.0px" width="35.75px" xmlns="http://www.w3.org/2000/svg">
  <g transform="matrix(1.0, 0.0, 0.0, 1.0, 0.0, 0.0)">
    <path d="M4.0 3.0 Q3.9 3.0 3.8 3.0 3.7 3.05 3.6 3.1 3.5 3.1 3.45 3.15 3.35 3.2 3.3 3.3 3.2 3.35 3.15 3.45 3.1 3.5 3.1 3.6 3.05 3.7 3.0 3.8 3.0 3.9 3.0 4.0 L3.0 22.0 Q3.0 22.1 3.0 22.2 3.05 22.3 3.1 22.4 3.1 22.5 3.15 22.55 3.2 22.65 3.3 22.7 3.35 22.8 3.45 22.85 3.5 22.9 3.6 22.9 3.7 22.95 3.8 23.0 3.9 23.0 4.0 23.0 L31.75 23.0 Q31.85 23.0 31.95 23.0 32.05 22.95 32.15 22.9 32.25 22.9 32.3 22.85 32.4 22.8 32.45 22.7 32.55 22.65 32.6 22.55 32.65 22.5 32.65 22.4 32.7 22.3 32.75 22.2 32.75 22.1 32.75 22.0 L32.75 4.0 Q32.75 3.9 32.75 3.8 32.7 3.7 32.65 3.6 32.65 3.5 32.6 3.45 32.55 3.35 32.45 3.3 32.4 3.2 32.3 3.15 32.25 3.1 32.15 3.1 32.05 3.05 31.95 3.0 31.85 3.0 31.75 3.0 L4.0 3.0 4.0 3.0 M5.55 9.0 L7.25 9.0 Q7.35 9.0 7.45 9.0 7.55 9.0 7.65 9.0 7.75 9.0 7.85 9.0 7.9 9.0 8.0 9.0 8.1 9.05 8.15 9.05 8.2 9.05 8.3 9.05 8.35 9.05 8.4 9.05 8.5 9.1 8.55 9.1 8.6 9.1 8.65 9.1 8.7 9.15 8.75 9.15 8.8 9.15 8.85 9.2 8.85 9.2 8.9 9.2 8.95 9.25 9.0 9.25 9.05 9.3 9.1 9.3 9.15 9.3 9.15 9.35 9.2 9.35 9.25 9.4 9.3 9.45 9.35 9.45 9.4 9.5 9.45 9.55 9.45 9.6 9.5 9.65 9.55 9.7 9.6 9.7 9.65 9.75 9.65 9.8 9.7 9.85 9.75 9.9 9.75 10.0 9.8 10.05 9.8 10.1 9.85 10.15 9.9 10.2 9.9 10.25 9.9 10.35 9.95 10.4 9.95 10.45 10.0 10.5 10.0 10.6 10.0 10.65 10.0 10.7 10.05 10.8 10.05 10.85 10.05 10.9 10.05 11.0 10.05 11.05 10.05 11.15 10.05 11.2 10.05 11.25 10.05 11.35 10.05 11.4 10.05 11.5 10.05 11.55 10.05 11.6 10.0 11.7 10.0 11.75 10.0 11.8 10.0 11.9 9.95 11.95 9.95 12.0 9.9 12.05 9.9 12.15 9.85 12.2 9.85 12.25 9.8 12.3 9.8 12.35 9.75 12.4 9.75 12.5 9.7 12.55 9.65 12.6 9.65 12.65 9.6 12.7 9.55 12.75 9.5 12.75 9.45 12.8 9.45 12.85 9.4 12.9 9.35 12.95 9.3 12.95 9.25 13.0 9.2 13.05 9.15 13.05 9.15 13.1 9.1 13.1 9.05 13.15 9.0 13.15 8.95 13.15 8.9 13.2 8.85 13.2 8.8 13.25 8.8 13.25 8.75 13.25 8.7 13.3 8.65 13.3 8.6 13.3 8.55 13.3 8.5 13.3 8.45 13.35 8.35 13.35 8.3 13.35 8.25 13.35 8.15 13.35 8.1 13.4 8.0 13.4 7.9 13.4 7.85 13.4 7.75 13.4 7.65 13.4 7.55 13.4 7.45 13.4 7.35 13.4 7.25 13.4 L6.95 13.4 6.5 13.4 6.5 17.0 5.55 17.0 5.55 9.0 5.55 9.0 M17.65 9.0 L19.15 9.0 Q19.35 9.0 19.55 9.0 19.75 9.0 19.95 9.0 20.15 9.0 20.3 9.0 20.45 9.05 20.6 9.05 20.75 9.05 20.9 9.05 21.05 9.1 21.15 9.1 21.25 9.1 21.35 9.15 21.45 9.15 21.55 9.2 21.65 9.2 21.75 9.25 21.8 9.25 21.9 9.3 22.0 9.3 22.05 9.35 22.15 9.35 22.2 9.4 22.3 9.45 22.35 9.5 22.45 9.5 22.5 9.55 22.6 9.6 22.65 9.65 22.7 9.7 22.8 9.75 22.9 9.8 22.95 9.9 23.05 9.95 23.1 10.05 23.2 10.1 23.25 10.2 23.35 10.25 23.4 10.35 23.45 10.45 23.5 10.55 23.6 10.6 23.65 10.7 23.7 10.8 23.75 10.9 23.8 11.0 23.85 11.1 23.9 11.2 23.95 11.3 23.95 11.4 24.0 11.55 24.0 11.65 24.05 11.75 24.1 11.85 24.1 12.0 24.1 12.1 24.15 12.25 24.15 12.35 24.15 12.5 24.15 12.6 24.2 12.75 24.2 12.85 24.2 13.0 24.2 13.15 24.2 13.25 24.2 13.4 24.15 13.5 24.15 13.65 24.15 13.75 24.1 13.9 24.1 14.0 24.05 14.15 24.05 14.25 24.0 14.35 24.0 14.45 23.95 14.6 23.9 14.7 23.85 14.8 23.85 14.9 23.8 15.0 23.75 15.1 23.7 15.2 23.65 15.3 23.6 15.4 23.5 15.5 23.45 15.55 23.4 15.65 23.35 15.75 23.25 15.8 23.2 15.9 23.1 15.95 23.05 16.05 22.95 16.1 22.85 16.2 22.8 16.25 22.75 16.3 22.65 16.35 22.6 16.4 22.5 16.45 22.45 16.5 22.35 16.5 22.3 16.55 22.25 16.6 22.15 16.65 22.05 16.65 22.0 16.7 21.9 16.75 21.85 16.75 21.75 16.8 21.65 16.8 21.6 16.85 21.5 16.85 21.4 16.9 21.3 16.9 21.2 16.9 21.1 16.95 21.0 16.95 20.85 16.95 20.75 16.95 20.6 16.95 20.45 17.0 20.3 17.0 20.15 17.0 20.0 17.0 19.85 17.0 19.7 17.0 19.5 17.0 L19.15 17.0 17.65 17.0 17.65 9.0 17.65 9.0 M6.5 9.85 L6.5 12.55 6.95 12.55 Q7.1 12.55 7.25 12.55 7.4 12.55 7.5 12.55 7.65 12.5 7.75 12.5 7.9 12.5 8.0 12.5 8.1 12.45 8.2 12.45 8.25 12.4 8.35 12.4 8.45 12.35 8.5 12.35 8.55 12.3 8.6 12.25 8.65 12.2 8.7 12.15 8.75 12.15 8.8 12.1 8.85 12.05 8.85 12.0 8.9 11.95 8.95 11.85 8.95 11.8 9.0 11.75 9.0 11.65 9.0 11.6 9.0 11.5 9.05 11.45 9.05 11.35 9.05 11.25 9.05 11.15 9.05 11.05 9.05 11.0 9.0 10.9 9.0 10.8 9.0 10.75 8.95 10.65 8.95 10.6 8.9 10.55 8.85 10.5 8.85 10.4 8.8 10.35 8.75 10.3 8.7 10.25 8.65 10.2 8.6 10.2 8.55 10.15 8.5 10.1 8.4 10.1 8.35 10.05 8.25 10.0 8.15 10.0 8.1 9.95 7.95 9.95 7.85 9.95 7.75 9.9 7.65 9.9 7.5 9.9 7.4 9.9 7.25 9.85 7.1 9.85 6.95 9.85 L6.5 9.85 6.5 9.85 M18.6 9.9 L18.6 16.1 19.2 16.1 Q20.65 16.1 21.25 16.0 21.3 16.0 21.4 15.95 21.45 15.95 21.5 15.9 21.6 15.9 21.65 15.85 21.7 15.85 21.75 15.8 21.8 15.8 21.85 15.75 21.95 15.7 22.0 15.7 22.05 15.65 22.1 15.6 22.15 15.55 22.2 15.55 22.25 15.5 22.3 15.45 22.35 15.4 22.4 15.3 22.45 15.25 22.5 15.2 22.55 15.15 22.6 15.05 22.65 15.0 22.7 14.95 22.75 14.85 22.8 14.8 22.85 14.7 22.85 14.65 22.9 14.55 22.95 14.5 23.0 14.4 23.0 14.35 23.05 14.25 23.05 14.15 23.05 14.05 23.1 13.95 23.1 13.9 23.15 13.8 23.15 13.7 23.15 13.6 23.15 13.5 23.15 13.4 23.2 13.3 23.2 13.2 23.2 13.1 23.2 13.0 23.2 12.9 23.2 12.8 23.2 12.7 23.2 12.6 23.15 12.5 23.15 12.4 23.15 12.3 23.15 12.2 23.1 12.1 23.1 12.0 23.05 11.95 23.05 11.85 23.0 11.75 23.0 11.7 22.95 11.6 22.95 11.5 22.9 11.4 22.9 11.35 22.85 11.3 22.8 11.2 22.75 11.15 22.7 11.05 22.65 11.0 22.6 10.95 22.55 10.85 22.5 10.8 22.45 10.75 22.4 10.7 22.35 10.65 22.3 10.55 22.25 10.5 22.2 10.45 22.15 10.4 22.1 10.4 22.05 10.35 22.0 10.3 21.95 10.3 21.9 10.25 21.8 10.2 21.75 10.2 21.7 10.15 21.65 10.15 21.55 10.1 21.5 10.1 21.45 10.05 21.35 10.05 21.3 10.05 21.2 10.0 20.6 9.9 19.2 9.9 L18.6 9.9 18.6 9.9 M13.1 11.8 Q13.2 11.8 13.25 11.8 13.35 11.8 13.4 11.85 13.5 11.85 13.55 11.85 13.65 11.85 13.7 11.9 13.75 11.9 13.85 11.95 13.9 11.95 13.95 12.0 14.05 12.0 14.1 12.05 14.15 12.05 14.2 12.1 14.25 12.15 14.3 12.2 14.4 12.2 14.45 12.25 14.5 12.3 14.55 12.35 14.6 12.4 14.65 12.45 14.7 12.5 14.7 12.55 14.75 12.6 14.8 12.65 14.85 12.75 14.9 12.8 14.9 12.85 14.95 12.95 L14.95 12.0 15.8 12.0 15.8 16.9 Q15.8 17.0 15.8 17.1 15.8 17.2 15.8 17.3 15.8 17.35 15.8 17.45 15.8 17.55 15.8 17.6 15.75 17.7 15.75 17.75 15.75 17.8 15.75 17.85 15.75 17.95 15.7 18.0 15.7 18.05 15.7 18.05 15.7 18.1 15.65 18.15 15.65 18.2 15.65 18.25 15.6 18.25 15.6 18.3 15.6 18.35 15.55 18.4 15.55 18.45 15.5 18.45 15.5 18.5 15.45 18.55 15.45 18.6 15.4 18.6 15.35 18.65 15.35 18.7 15.3 18.75 15.25 18.8 15.2 18.85 15.15 18.85 15.1 18.9 15.05 18.95 15.0 19.0 14.95 19.0 14.9 19.05 14.85 19.1 14.8 19.1 14.7 19.15 14.65 19.2 14.6 19.2 14.55 19.25 14.5 19.25 14.45 19.25 14.35 19.3 14.3 19.3 14.25 19.35 14.15 19.35 14.1 19.35 14.0 19.4 13.95 19.4 13.85 19.4 13.8 19.4 13.7 19.4 13.65 19.45 13.55 19.45 13.5 19.45 13.4 19.45 13.3 19.45 13.15 19.45 13.05 19.45 12.9 19.45 12.75 19.4 12.65 19.4 12.55 19.35 12.4 19.35 12.3 19.3 12.2 19.3 12.1 19.25 12.0 19.2 11.9 19.15 11.8 19.1 11.7 19.05 11.6 19.0 11.55 18.9 11.45 18.85 11.4 18.75 11.35 18.7 11.25 18.6 11.2 18.55 11.15 18.45 11.1 18.4 11.05 18.3 11.0 18.2 11.0 18.1 10.95 18.0 10.95 17.9 10.9 17.8 10.9 17.7 10.9 17.55 10.9 17.45 L11.85 17.45 11.85 17.5 Q11.85 17.55 11.85 17.65 11.85 17.7 11.85 17.75 11.9 17.85 11.9 17.9 11.9 17.95 11.95 18.0 11.95 18.05 12.0 18.1 12.05 18.15 12.05 18.2 12.1 18.25 12.15 18.3 12.2 18.35 12.25 18.4 12.3 18.45 12.35 18.45 12.4 18.5 12.45 18.5 12.5 18.55 12.55 18.55 12.65 18.6 12.7 18.6 12.75 18.65 12.85 18.65 12.9 18.65 13.0 18.65 13.1 18.7 13.15 18.7 13.25 18.7 13.35 18.7 13.4 18.7 13.45 18.7 13.55 18.7 13.6 18.7 13.65 18.7 13.7 18.65 13.75 18.65 13.8 18.65 13.85 18.65 13.9 18.6 13.95 18.6 14.0 18.6 14.05 18.6 14.1 18.55 14.15 18.55 14.2 18.5 14.25 18.5 14.3 18.45 14.35 18.45 14.4 18.4 14.4 18.4 14.45 18.35 14.5 18.35 14.55 18.3 14.55 18.3 14.6 18.25 14.65 18.2 14.65 18.2 14.7 18.15 14.7 18.1 14.75 18.05 14.75 18.05 14.8 18.0 14.8 17.95 14.8 17.9 14.85 17.85 14.85 17.85 14.9 17.8 14.9 17.75 14.9 17.7 14.9 17.65 14.95 17.6 15.0 17.2 15.0 16.9 L15.0 16.5 15.0 16.05 Q14.95 16.1 14.9 16.2 14.85 16.25 14.85 16.3 14.8 16.35 14.75 16.4 14.7 16.45 14.65 16.5 14.6 16.6 14.55 16.6 14.5 16.65 14.45 16.7 14.4 16.75 14.35 16.8 14.3 16.85 14.2 16.9 14.15 16.95 14.1 16.95 14.05 17.0 13.95 17.0 13.9 17.05 13.85 17.05 13.8 17.05 13.7 17.1 13.65 17.1 13.6 17.1 13.5 17.15 13.45 17.15 13.4 17.15 13.3 17.15 13.25 17.15 13.15 17.15 13.0 17.15 12.9 17.15 12.75 17.15 12.65 17.1 12.5 17.1 12.4 17.05 12.3 17.0 12.2 16.95 12.1 16.95 12.0 16.85 11.9 16.8 11.8 16.75 11.7 16.7 11.6 16.6 11.5 16.5 11.4 16.45 11.3 16.35 11.25 16.25 11.2 16.15 11.15 16.05 11.05 15.95 11.0 15.8 10.95 15.7 10.95 15.6 10.9 15.45 10.85 15.3 10.85 15.2 10.8 15.05 10.8 14.9 10.8 14.8 10.75 14.65 10.75 14.5 10.75 14.35 10.75 14.2 10.8 14.05 10.8 13.9 10.8 13.75 10.85 13.65 10.9 13.5 10.95 13.4 10.95 13.25 11.0 13.15 11.05 13.05 11.15 12.95 11.2 12.85 11.25 12.75 11.35 12.65 11.4 12.55 11.5 12.45 11.55 12.4 11.65 12.3 11.75 12.25 11.85 12.15 11.95 12.1 12.05 12.05 12.15 12.0 12.25 11.95 12.35 11.9 12.5 11.9 12.6 11.85 12.75 11.85 12.85 11.85 13.0 11.8 13.1 11.8 L13.1 11.8 M28.3 11.8 Q28.4 11.8 28.5 11.8 28.65 11.8 28.75 11.85 28.85 11.85 28.9 11.9 29.0 11.9 29.1 11.95 29.2 11.95 29.25 12.0 29.35 12.05 29.4 12.1 29.5 12.15 29.55 12.2 29.65 12.25 29.7 12.3 29.75 12.35 29.8 12.4 29.85 12.5 29.9 12.55 29.95 12.6 30.0 12.7 30.05 12.75 30.05 12.85 30.1 12.95 30.15 13.0 30.15 13.1 30.15 13.2 30.2 13.3 30.2 13.4 30.2 13.5 30.2 13.6 L30.2 17.0 29.3 17.0 29.3 14.05 Q29.3 13.95 29.3 13.85 29.3 13.8 29.3 13.7 29.3 13.6 29.25 13.55 29.25 13.45 29.25 13.4 29.2 13.3 29.2 13.25 29.15 13.2 29.15 13.15 29.1 13.1 29.05 13.05 29.05 13.0 29.0 12.95 28.95 12.9 28.9 12.85 28.85 12.8 28.8 12.8 28.75 12.75 28.7 12.7 28.65 12.7 28.6 12.65 28.55 12.65 28.45 12.6 28.4 12.6 28.35 12.6 28.25 12.55 28.15 12.55 28.1 12.55 28.0 12.55 27.95 12.55 27.9 12.55 27.85 12.55 27.8 12.55 27.8 12.55 27.75 12.6 27.7 12.6 27.65 12.6 27.6 12.6 27.55 12.6 27.5 12.6 27.5 12.65 27.45 12.65 27.4 12.65 27.35 12.7 27.3 12.7 27.25 12.7 27.25 12.75 27.2 12.75 27.15 12.8 27.1 12.8 27.1 12.8 27.05 12.85 27.05 12.85 27.0 12.9 26.95 12.9 26.95 12.95 26.9 12.95 26.9 13.0 26.85 13.05 26.8 13.05 26.8 13.1 26.8 13.1 26.75 13.15 26.75 13.15 26.7 13.2 26.7 13.2 26.7 13.25 26.65 13.3 26.65 13.3 26.65 13.35 26.65 13.35 26.6 13.4 26.6 13.4 26.6 13.45 26.6 13.5 26.6 13.5 26.55 13.55 26.5 13.85 26.5 14.4 L26.5 17.0 25.65 17.0 25.65 12.0 26.5 12.0 26.5 12.75 Q26.55 12.7 26.6 12.65 26.6 12.6 26.65 12.55 26.7 12.5 26.75 12.45 26.8 12.4 26.85 12.35 26.9 12.3 26.95 12.25 27.0 12.2 27.05 12.2 27.1 12.15 27.15 12.1 27.2 12.1 27.25 12.05 27.3 12.0 27.35 12.0 27.45 11.95 27.5 11.95 27.55 11.95 27.6 11.9 27.7 11.9 27.75 11.9 27.8 11.85 27.9 11.85 27.95 11.85 28.05 11.85 28.1 11.85 28.15 11.8 28.25 11.8 28.3 11.8 L28.3 11.8 M13.3 12.65 Q13.2 12.65 13.1 12.65 13.05 12.65 12.95 12.7 12.85 12.7 12.8 12.7 12.7 12.75 12.6 12.75 12.55 12.8 12.5 12.85 12.4 12.85 12.35 12.9 12.3 12.95 12.2 13.0 12.15 13.05 12.1 13.1 12.05 13.15 12.0 13.25 11.95 13.3 11.9 13.35 11.9 13.45 11.85 13.5 11.8 13.6 11.8 13.7 11.75 13.75 11.75 13.85 11.7 13.95 11.7 14.05 11.7 14.15 11.7 14.25 11.7 14.35 11.7 14.45 11.7 14.55 11.7 14.65 11.7 14.8 11.7 14.9 11.7 15.0 11.75 15.05 11.75 15.15 11.8 15.25 11.8 15.35 11.85 15.4 11.9 15.5 11.9 15.6 11.95 15.65 12.0 15.7 12.05 15.8 12.1 15.85 12.15 15.9 12.2 15.95 12.3 16.0 12.35 16.05 12.4 16.1 12.5 16.15 12.55 16.2 12.65 16.2 12.7 16.25 12.8 16.25 12.9 16.3 12.95 16.3 13.05 16.3 13.15 16.35 13.25 16.35 13.35 16.35 13.45 16.35 13.55 16.35 13.6 16.35 13.7 16.3 13.8 16.3 13.85 16.25 13.95 16.25 14.0 16.2 14.1 16.2 14.15 16.15 14.25 16.1 14.3 16.05 14.35 16.0 14.45 15.95 14.5 15.9 14.55 15.85 14.6 15.8 14.65 15.75 14.7 15.65 14.75 15.6 14.75 15.5 14.8 15.45 14.85 15.35 14.85 15.3 14.9 15.2 14.9 15.1 14.95 15.0 14.95 14.9 14.95 14.8 14.95 14.7 15.0 14.6 15.0 14.5 15.0 14.4 15.0 14.3 14.95 14.2 14.95 14.1 14.95 14.0 14.9 13.95 14.9 13.85 14.85 13.75 14.85 13.65 14.8 13.6 14.75 13.5 14.7 13.45 14.7 13.35 14.65 13.3 14.55 13.2 14.5 13.15 14.45 13.1 14.4 13.05 14.35 13.0 14.25 12.95 14.2 12.9 14.15 12.85 14.05 12.8 14.0 12.75 13.9 12.75 13.85 12.7 13.75 12.7 13.65 12.7 13.6 12.65 13.5 12.65 13.4 12.65 13.3 12.65 L13.3 12.65" fill="#ffffff" fill-rule="evenodd" stroke="none"/>
  </g>
</svg>
