<?xml version="1.0" encoding="UTF-8" standalone="no"?>
<svg xmlns:ffdec="https://www.free-decompiler.com/flash" xmlns:xlink="http://www.w3.org/1999/xlink" ffdec:objectType="shape" height="26.0px" width="35.75px" xmlns="http://www.w3.org/2000/svg">
  <g transform="matrix(1.0, 0.0, 0.0, 1.0, 0.0, 0.0)">
    <path d="M4.0 3.0 Q3.9 3.0 3.8 3.0 3.7 3.05 3.6 3.1 3.5 3.1 3.45 3.15 3.35 3.2 3.3 3.3 3.2 3.35 3.15 3.45 3.1 3.5 3.1 3.6 3.05 3.7 3.0 3.8 3.0 3.9 3.0 4.0 L3.0 22.0 Q3.0 22.1 3.0 22.2 3.05 22.3 3.1 22.4 3.1 22.5 3.15 22.55 3.2 22.65 3.3 22.7 3.35 22.8 3.45 22.85 3.5 22.9 3.6 22.9 3.7 22.95 3.8 23.0 3.9 23.0 4.0 23.0 L31.75 23.0 Q31.85 23.0 31.95 23.0 32.05 22.95 32.15 22.9 32.25 22.9 32.3 22.85 32.4 22.8 32.45 22.7 32.55 22.65 32.6 22.55 32.65 22.5 32.65 22.4 32.7 22.3 32.75 22.2 32.75 22.1 32.75 22.0 L32.75 4.0 Q32.75 3.9 32.75 3.8 32.7 3.7 32.65 3.6 32.65 3.5 32.6 3.45 32.55 3.35 32.45 3.3 32.4 3.2 32.3 3.15 32.25 3.1 32.15 3.1 32.05 3.05 31.95 3.0 31.85 3.0 31.75 3.0 L4.0 3.0 4.0 3.0 M8.7 8.3 Q8.8 8.3 8.9 8.3 9.0 8.3 9.1 8.3 9.2 8.3 9.3 8.35 9.4 8.35 9.45 8.35 9.55 8.4 9.65 8.4 9.7 8.45 9.8 8.5 9.9 8.5 9.95 8.55 10.05 8.6 10.1 8.65 10.2 8.7 10.25 8.75 10.3 8.8 10.4 8.85 10.45 8.9 10.5 8.95 10.6 9.0 10.65 9.05 10.7 9.1 10.75 9.2 10.8 9.25 10.85 9.35 10.9 9.4 10.95 9.5 11.0 9.55 11.05 9.65 L10.15 10.2 Q10.1 10.15 10.1 10.1 10.05 10.0 10.0 9.95 9.95 9.9 9.9 9.85 9.9 9.8 9.85 9.75 9.8 9.7 9.75 9.65 9.7 9.6 9.65 9.6 9.6 9.55 9.55 9.5 9.55 9.45 9.5 9.45 9.45 9.4 9.4 9.4 9.35 9.35 9.3 9.35 9.25 9.3 9.2 9.3 9.15 9.25 9.1 9.25 9.05 9.25 8.95 9.2 8.9 9.2 8.85 9.2 8.8 9.2 8.75 9.2 8.7 9.2 8.65 9.2 8.55 9.2 8.5 9.2 8.4 9.2 8.35 9.2 8.3 9.2 8.2 9.25 8.15 9.25 8.1 9.25 8.0 9.3 7.95 9.3 7.9 9.35 7.85 9.4 7.8 9.4 7.75 9.45 7.7 9.5 7.65 9.55 7.6 9.6 7.55 9.65 7.5 9.7 7.5 9.75 7.45 9.8 7.4 9.85 7.4 9.9 7.35 9.95 7.35 10.0 7.3 10.1 7.3 10.15 7.3 10.2 7.25 10.3 7.25 10.35 7.25 10.4 7.25 10.5 7.25 10.55 7.25 10.6 7.25 10.65 7.3 10.7 7.3 10.8 7.3 10.85 7.3 10.9 7.35 10.95 7.35 11.0 7.4 11.05 7.4 11.1 7.45 11.15 7.45 11.2 7.5 11.25 7.5 11.25 7.55 11.3 7.6 11.35 7.65 11.4 7.65 11.45 7.7 11.5 7.75 11.5 7.8 11.55 7.85 11.6 7.95 11.65 8.0 11.7 8.05 11.7 8.1 11.75 8.2 11.8 8.25 11.85 8.3 11.85 8.4 11.9 8.45 11.95 L9.75 12.5 Q9.85 12.55 9.95 12.6 10.05 12.65 10.15 12.7 10.25 12.75 10.35 12.8 10.45 12.9 10.55 12.95 10.6 13.0 10.7 13.05 10.75 13.15 10.85 13.2 10.9 13.25 10.95 13.35 11.0 13.4 11.1 13.5 11.15 13.6 11.2 13.65 11.25 13.75 11.3 13.8 11.3 13.9 11.35 14.0 11.4 14.1 11.4 14.2 11.45 14.25 11.45 14.35 11.5 14.45 11.5 14.55 11.5 14.65 11.5 14.75 11.55 14.85 11.55 14.95 11.55 15.1 11.55 15.25 11.5 15.4 11.5 15.55 11.45 15.7 11.4 15.85 11.4 15.95 11.35 16.1 11.3 16.2 11.2 16.35 11.15 16.45 11.1 16.55 11.0 16.65 10.9 16.75 10.85 16.9 10.75 16.95 10.65 17.05 10.55 17.15 10.45 17.2 10.3 17.3 10.2 17.35 10.1 17.45 9.95 17.5 9.8 17.55 9.7 17.6 9.55 17.6 9.4 17.65 9.25 17.7 9.1 17.7 8.95 17.7 8.8 17.75 8.65 17.75 8.5 17.75 8.4 17.75 8.25 17.7 8.15 17.7 8.0 17.7 7.9 17.65 7.8 17.65 7.65 17.6 7.55 17.55 7.45 17.5 7.35 17.45 7.25 17.4 7.15 17.35 7.05 17.3 6.95 17.25 6.85 17.2 6.75 17.15 6.7 17.05 6.6 16.95 6.55 16.9 6.45 16.8 6.4 16.7 6.3 16.6 6.25 16.55 6.2 16.45 6.15 16.3 6.1 16.2 6.05 16.1 6.0 16.0 5.95 15.9 5.9 15.75 5.9 15.65 L6.85 15.15 Q6.9 15.25 6.9 15.35 6.95 15.45 6.95 15.55 7.0 15.65 7.05 15.7 7.1 15.8 7.1 15.9 7.15 15.95 7.2 16.05 7.25 16.1 7.3 16.15 7.35 16.25 7.4 16.3 7.45 16.35 7.5 16.4 7.55 16.45 7.6 16.5 7.7 16.55 7.75 16.6 7.8 16.6 7.9 16.65 7.95 16.7 8.0 16.7 8.1 16.75 8.15 16.75 8.25 16.8 8.3 16.8 8.4 16.8 8.5 16.8 8.55 16.8 8.65 16.8 8.75 16.8 8.85 16.8 8.95 16.8 9.05 16.8 9.1 16.75 9.2 16.75 9.3 16.75 9.35 16.7 9.45 16.65 9.55 16.65 9.6 16.6 9.7 16.55 9.75 16.5 9.8 16.45 9.9 16.4 9.95 16.35 10.0 16.3 10.05 16.25 10.1 16.15 10.15 16.1 10.2 16.05 10.25 15.95 10.3 15.9 10.3 15.8 10.35 15.75 10.4 15.65 10.4 15.6 10.4 15.5 10.45 15.4 10.45 15.35 10.45 15.25 10.45 15.15 10.45 15.05 10.45 15.0 10.45 14.95 10.45 14.85 10.4 14.8 10.4 14.7 10.4 14.65 10.35 14.6 10.35 14.5 10.3 14.45 10.3 14.4 10.25 14.35 10.2 14.25 10.2 14.2 10.15 14.15 10.1 14.1 10.05 14.05 10.0 14.0 9.95 13.95 9.9 13.9 9.85 13.85 9.8 13.8 9.75 13.75 9.65 13.7 9.6 13.65 9.55 13.6 9.45 13.55 9.4 13.5 9.3 13.45 9.2 13.4 9.15 13.4 9.05 13.35 L7.95 12.9 Q7.85 12.85 7.75 12.8 7.65 12.75 7.55 12.7 7.45 12.65 7.35 12.55 7.25 12.5 7.15 12.45 7.1 12.4 7.0 12.35 6.95 12.25 6.85 12.2 6.8 12.15 6.75 12.05 6.65 12.0 6.6 11.9 6.55 11.85 6.5 11.75 6.45 11.7 6.4 11.6 6.4 11.5 6.35 11.45 6.3 11.35 6.3 11.25 6.25 11.15 6.25 11.1 6.2 11.0 6.2 10.9 6.2 10.8 6.2 10.7 6.2 10.6 6.2 10.5 6.2 10.4 6.2 10.25 6.2 10.15 6.25 10.05 6.25 9.95 6.3 9.85 6.3 9.7 6.35 9.6 6.4 9.5 6.45 9.45 6.5 9.35 6.6 9.25 6.65 9.15 6.75 9.05 6.8 9.0 6.9 8.9 7.0 8.8 7.1 8.75 7.2 8.7 7.3 8.65 7.4 8.6 7.5 8.55 7.6 8.5 7.7 8.45 7.8 8.4 7.95 8.35 8.05 8.35 8.2 8.3 8.3 8.3 8.45 8.3 8.55 8.3 8.7 8.3 L8.7 8.3 M13.0 9.6 L14.0 9.6 14.0 11.9 15.0 11.9 15.0 12.65 14.0 12.65 14.0 17.5 13.0 17.5 13.0 12.65 11.95 12.65 11.95 11.9 13.0 11.9 13.0 9.6 13.0 9.6 M27.85 9.6 L28.85 9.6 28.85 11.9 29.85 11.9 29.85 12.65 28.85 12.65 28.85 17.5 27.85 17.5 27.85 12.65 26.8 12.65 26.8 11.9 27.85 11.9 27.85 9.6 27.85 9.6 M18.35 11.65 Q18.45 11.65 18.5 11.65 18.6 11.65 18.7 11.7 18.75 11.7 18.85 11.7 18.9 11.75 19.0 11.75 19.05 11.75 19.15 11.8 19.2 11.8 19.3 11.85 19.35 11.9 19.4 11.9 19.5 11.95 19.55 12.0 19.6 12.05 19.7 12.1 19.75 12.1 19.8 12.15 19.85 12.2 19.9 12.25 19.95 12.35 20.0 12.4 20.05 12.45 20.1 12.5 20.15 12.55 20.2 12.65 20.25 12.7 20.3 12.8 20.35 12.85 20.4 12.95 L20.4 11.9 21.35 11.9 21.35 17.5 20.4 17.5 20.4 16.5 Q20.35 16.55 20.3 16.65 20.3 16.7 20.25 16.8 20.2 16.85 20.15 16.9 20.1 16.95 20.05 17.0 20.0 17.1 19.9 17.15 19.85 17.2 19.8 17.25 19.75 17.3 19.7 17.35 19.6 17.4 19.55 17.4 19.5 17.45 19.4 17.5 19.35 17.5 19.3 17.55 19.2 17.6 19.15 17.6 19.05 17.65 19.0 17.65 18.9 17.7 18.85 17.7 18.75 17.7 18.7 17.7 18.6 17.75 18.55 17.75 18.45 17.75 18.4 17.75 18.25 17.75 18.1 17.75 17.95 17.7 17.8 17.7 17.65 17.65 17.55 17.65 17.4 17.6 17.3 17.55 17.15 17.5 17.05 17.4 16.95 17.35 16.8 17.25 16.7 17.2 16.6 17.1 16.5 17.0 16.4 16.9 16.3 16.8 16.25 16.7 16.15 16.55 16.1 16.45 16.0 16.35 15.95 16.2 15.9 16.1 15.85 15.95 15.8 15.8 15.8 15.65 15.75 15.5 15.75 15.35 15.7 15.2 15.7 15.05 15.7 14.85 15.7 14.7 15.7 14.55 15.7 14.35 15.7 14.2 15.75 14.05 15.75 13.9 15.8 13.75 15.8 13.6 15.85 13.45 15.9 13.3 15.95 13.2 16.0 13.05 16.1 12.95 16.15 12.8 16.25 12.7 16.3 12.6 16.4 12.5 16.5 12.4 16.6 12.3 16.7 12.2 16.8 12.15 16.9 12.05 17.0 12.0 17.1 11.95 17.25 11.9 17.35 11.85 17.5 11.8 17.6 11.75 17.75 11.7 17.9 11.7 18.05 11.7 18.2 11.65 18.35 11.65 L18.35 11.65 M26.05 11.7 Q26.1 11.7 26.1 11.7 26.15 11.7 26.2 11.7 26.25 11.7 26.3 11.7 26.3 11.7 26.35 11.7 26.6 11.75 26.7 11.8 L26.35 12.65 Q26.15 12.6 26.05 12.6 26.0 12.6 25.95 12.55 25.9 12.55 25.85 12.55 25.8 12.55 25.75 12.55 25.65 12.55 25.55 12.55 25.5 12.55 25.4 12.6 25.3 12.6 25.25 12.65 25.15 12.65 25.1 12.7 25.05 12.7 24.95 12.75 24.9 12.8 24.85 12.85 24.8 12.9 24.7 13.0 24.65 13.05 24.6 13.1 24.55 13.15 24.5 13.25 24.5 13.35 24.45 13.4 24.4 13.5 24.4 13.6 24.35 13.7 24.35 13.8 24.3 13.9 24.3 14.0 24.3 14.1 24.25 14.25 24.25 14.35 24.25 14.5 24.25 14.6 24.25 14.75 L24.25 17.5 23.3 17.5 23.3 11.9 24.15 11.9 24.15 13.05 Q24.2 12.95 24.25 12.85 24.3 12.8 24.35 12.7 24.4 12.65 24.45 12.55 24.5 12.5 24.55 12.4 24.6 12.35 24.65 12.3 24.7 12.25 24.75 12.2 24.8 12.15 24.85 12.1 24.9 12.05 24.95 12.0 25.0 11.95 25.05 11.95 25.15 11.9 25.2 11.85 25.25 11.85 25.3 11.8 25.4 11.8 25.45 11.75 25.5 11.75 25.6 11.75 25.65 11.7 25.75 11.7 25.8 11.7 25.9 11.7 25.95 11.7 26.05 11.7 L26.05 11.7 M18.55 12.65 Q18.45 12.65 18.35 12.65 18.25 12.65 18.15 12.65 18.05 12.7 17.95 12.7 17.85 12.75 17.75 12.75 17.7 12.8 17.6 12.85 17.55 12.9 17.45 12.95 17.4 13.0 17.3 13.05 17.25 13.1 17.2 13.15 17.15 13.2 17.1 13.3 17.05 13.35 17.0 13.45 16.95 13.55 16.9 13.6 16.85 13.7 16.85 13.8 16.8 13.9 16.75 14.0 16.75 14.1 16.75 14.2 16.7 14.3 16.7 14.4 16.7 14.55 16.7 14.65 16.7 14.8 16.7 14.9 16.7 15.0 16.75 15.15 16.75 15.25 16.75 15.35 16.8 15.45 16.8 15.55 16.85 15.65 16.9 15.75 16.95 15.85 17.0 15.9 17.0 16.0 17.1 16.1 17.15 16.15 17.2 16.25 17.25 16.3 17.35 16.35 17.4 16.45 17.45 16.5 17.55 16.55 17.6 16.55 17.7 16.6 17.8 16.65 17.85 16.7 17.95 16.7 18.05 16.75 18.15 16.75 18.25 16.75 18.35 16.75 18.45 16.8 18.6 16.8 18.7 16.8 18.8 16.8 18.9 16.75 19.0 16.75 19.1 16.75 19.2 16.7 19.25 16.7 19.35 16.65 19.45 16.6 19.5 16.55 19.6 16.55 19.65 16.5 19.75 16.45 19.8 16.35 19.85 16.3 19.95 16.25 20.0 16.2 20.05 16.1 20.1 16.05 20.15 15.95 20.2 15.85 20.25 15.8 20.25 15.7 20.3 15.6 20.35 15.5 20.35 15.4 20.35 15.3 20.4 15.2 20.4 15.1 20.4 14.95 20.4 14.85 20.4 14.75 20.4 14.65 20.4 14.5 20.4 14.4 20.4 14.3 20.35 14.2 20.35 14.1 20.3 14.0 20.3 13.9 20.25 13.8 20.2 13.7 20.15 13.6 20.1 13.5 20.05 13.45 20.0 13.35 19.95 13.3 19.9 13.2 19.85 13.15 19.75 13.05 19.7 13.0 19.6 12.95 19.55 12.9 19.45 12.85 19.4 12.8 19.3 12.75 19.2 12.75 19.15 12.7 19.05 12.7 18.95 12.65 18.85 12.65 18.75 12.65 18.65 12.6 18.55 12.65 L18.55 12.65" fill="#ffffff" fill-rule="evenodd" stroke="none"/>
  </g>
</svg>
