<?xml version="1.0" encoding="UTF-8" standalone="no"?>
<svg xmlns:ffdec="https://www.free-decompiler.com/flash" xmlns:xlink="http://www.w3.org/1999/xlink" ffdec:objectType="shape" height="26.0px" width="26.0px" xmlns="http://www.w3.org/2000/svg">
  <g transform="matrix(1.0, 0.0, 0.0, 1.0, 0.0, 0.0)">
    <path d="M13.0 3.5 Q12.05 3.5 11.1 3.7 10.15 3.9 9.3 4.25 8.45 4.6 7.7 5.1 6.95 5.65 6.3 6.3 5.65 6.95 5.1 7.7 4.6 8.45 4.25 9.3 3.9 10.15 3.7 11.1 3.5 12.05 3.5 13.0 3.5 13.95 3.7 14.9 3.9 15.85 4.25 16.7 4.6 17.55 5.1 18.3 5.65 19.05 6.3 19.7 6.95 20.35 7.7 20.9 8.45 21.4 9.3 21.75 10.15 22.1 11.1 22.3 12.05 22.5 13.0 22.5 13.95 22.5 14.9 22.3 15.85 22.1 16.7 21.75 17.55 21.4 18.3 20.9 19.05 20.35 19.7 19.7 20.35 19.05 20.9 18.3 21.4 17.55 21.75 16.7 22.1 15.85 22.3 14.9 22.5 13.95 22.5 13.0 22.5 12.05 22.3 11.1 22.1 10.15 21.75 9.3 21.4 8.45 20.9 7.7 20.35 6.95 19.7 6.3 19.05 5.65 18.3 5.1 17.55 4.6 16.7 4.25 15.85 3.9 14.9 3.7 13.95 3.5 13.0 3.5 L13.0 3.5 M15.75 8.35 Q15.9 8.35 16.05 8.35 16.2 8.35 16.35 8.4 16.45 8.4 16.6 8.45 16.75 8.45 16.85 8.5 17.0 8.55 17.1 8.6 17.2 8.65 17.3 8.7 17.4 8.75 17.5 8.85 17.6 8.9 17.7 9.0 17.8 9.1 17.85 9.15 17.95 9.25 18.0 9.35 18.1 9.45 18.15 9.55 18.2 9.65 18.25 9.75 18.3 9.85 18.35 9.95 18.35 10.1 18.4 10.2 18.4 10.35 18.45 10.45 18.45 10.6 18.45 10.7 18.45 10.8 18.45 10.9 18.45 11.0 18.4 11.1 18.4 11.2 18.4 11.3 18.35 11.35 18.35 11.45 18.3 11.55 18.25 11.65 18.25 11.7 18.2 11.8 18.15 11.85 18.1 11.95 18.05 12.0 18.0 12.1 17.95 12.15 17.9 12.25 17.85 12.3 17.8 12.35 17.7 12.4 17.65 12.45 17.6 12.5 17.5 12.55 17.45 12.6 17.35 12.65 17.3 12.65 17.2 12.7 17.1 12.75 17.0 12.75 16.95 12.8 16.85 12.85 16.95 12.85 17.05 12.9 17.15 12.9 17.2 12.95 17.3 12.95 17.4 13.0 17.5 13.05 17.55 13.1 17.65 13.1 17.7 13.2 17.8 13.25 17.85 13.3 17.9 13.35 18.0 13.4 18.05 13.5 18.1 13.55 18.15 13.6 18.2 13.7 18.25 13.8 18.3 13.85 18.35 13.95 18.4 14.05 18.4 14.1 18.45 14.2 18.45 14.3 18.5 14.4 18.5 14.5 18.55 14.6 18.55 14.7 18.55 14.8 18.55 14.95 18.55 15.05 18.55 15.2 18.55 15.35 18.55 15.5 18.5 15.65 18.5 15.75 18.45 15.9 18.4 16.0 18.35 16.15 18.3 16.25 18.25 16.35 18.2 16.5 18.1 16.6 18.0 16.7 17.95 16.8 17.85 16.9 17.75 16.95 17.65 17.05 17.55 17.1 17.45 17.2 17.3 17.25 17.2 17.35 17.05 17.4 16.95 17.45 16.8 17.5 16.65 17.55 16.5 17.55 16.35 17.6 16.2 17.6 16.05 17.65 15.85 17.65 15.7 17.65 15.55 17.65 15.4 17.65 15.25 17.65 15.1 17.65 14.95 17.6 14.8 17.6 14.65 17.55 14.55 17.55 14.4 17.5 14.3 17.45 14.15 17.4 14.05 17.35 13.95 17.3 13.85 17.25 13.75 17.2 13.65 17.1 13.55 17.05 13.45 16.95 13.35 16.9 13.3 16.8 13.2 16.7 13.15 16.6 13.1 16.5 13.05 16.4 13.0 16.3 12.95 16.15 12.9 16.05 12.85 15.95 12.85 15.8 12.8 15.7 12.8 15.55 12.8 15.45 12.8 15.3 L12.8 15.15 13.9 15.15 13.9 15.25 Q13.9 15.35 13.9 15.4 13.9 15.5 13.9 15.6 13.95 15.65 13.95 15.75 14.0 15.8 14.0 15.85 14.05 15.95 14.05 16.0 14.1 16.05 14.15 16.1 14.2 16.2 14.25 16.25 14.3 16.3 14.35 16.35 14.4 16.4 14.45 16.45 14.55 16.5 14.6 16.5 14.65 16.55 14.75 16.6 14.8 16.6 14.85 16.65 14.95 16.65 15.05 16.7 15.1 16.7 15.2 16.7 15.3 16.75 15.4 16.75 15.45 16.75 15.55 16.75 15.65 16.75 15.75 16.75 15.9 16.75 16.0 16.7 16.1 16.7 16.15 16.7 16.25 16.65 16.35 16.65 16.45 16.6 16.5 16.55 16.6 16.55 16.65 16.5 16.75 16.45 16.8 16.4 16.9 16.35 16.95 16.3 17.0 16.25 17.05 16.2 17.1 16.1 17.15 16.05 17.2 16.0 17.25 15.9 17.3 15.85 17.3 15.75 17.35 15.65 17.35 15.6 17.4 15.5 17.4 15.4 17.4 15.3 17.4 15.2 17.45 15.1 17.45 15.0 17.45 14.9 17.45 14.8 17.4 14.7 17.4 14.6 17.4 14.5 17.35 14.4 17.35 14.35 17.3 14.25 17.3 14.15 17.25 14.1 17.2 14.0 17.15 13.95 17.1 13.85 17.05 13.8 17.0 13.75 16.95 13.7 16.9 13.65 16.8 13.6 16.75 13.55 16.65 13.5 16.6 13.45 16.5 13.4 16.4 13.4 16.3 13.35 16.25 13.35 16.15 13.3 16.05 13.3 15.9 13.25 15.8 13.25 15.7 13.25 15.6 13.25 15.45 13.25 15.4 13.25 15.35 13.25 15.3 13.25 15.3 13.25 15.2 13.25 15.15 13.25 L15.15 12.4 Q15.2 12.4 15.2 12.4 15.25 12.4 15.3 12.4 15.35 12.4 15.45 12.4 15.55 12.4 15.65 12.4 15.8 12.4 15.9 12.35 16.0 12.35 16.1 12.35 16.15 12.3 16.25 12.3 16.35 12.25 16.45 12.25 16.5 12.2 16.6 12.15 16.65 12.15 16.7 12.1 16.8 12.05 16.85 12.0 16.9 11.95 16.95 11.9 17.0 11.85 17.05 11.75 17.1 11.7 17.15 11.65 17.15 11.55 17.2 11.5 17.25 11.4 17.25 11.35 17.25 11.25 17.3 11.15 17.3 11.05 17.3 10.95 17.3 10.9 17.3 10.8 17.3 10.7 17.3 10.6 17.3 10.55 17.3 10.45 17.25 10.35 17.25 10.3 17.25 10.2 17.2 10.15 17.2 10.1 17.15 10.0 17.1 9.95 17.1 9.9 17.05 9.85 17.0 9.75 16.95 9.7 16.9 9.65 16.85 9.6 16.8 9.55 16.7 9.5 16.65 9.45 16.6 9.45 16.55 9.4 16.45 9.35 16.4 9.35 16.3 9.3 16.25 9.3 16.15 9.3 16.05 9.25 16.0 9.25 15.9 9.25 15.8 9.25 15.7 9.25 15.6 9.25 15.5 9.25 15.45 9.25 15.35 9.25 15.25 9.3 15.15 9.3 15.1 9.3 15.0 9.35 14.95 9.35 14.85 9.4 14.8 9.45 14.75 9.45 14.65 9.5 14.6 9.55 14.55 9.6 14.5 9.65 14.45 9.7 14.4 9.75 14.35 9.8 14.3 9.85 14.25 9.9 14.2 9.95 14.2 10.05 14.15 10.1 14.15 10.15 14.1 10.25 14.1 10.3 14.05 10.4 14.05 10.5 14.05 10.55 14.0 10.65 14.0 10.75 L12.95 10.75 Q12.95 10.6 13.0 10.45 13.0 10.35 13.05 10.2 13.05 10.05 13.1 9.95 13.15 9.8 13.2 9.7 13.25 9.6 13.3 9.5 13.35 9.4 13.4 9.3 13.5 9.2 13.55 9.1 13.65 9.05 13.75 8.95 13.85 8.85 13.95 8.8 14.05 8.75 14.15 8.7 14.25 8.6 14.35 8.6 14.45 8.55 14.6 8.5 14.7 8.45 14.85 8.4 15.0 8.4 15.15 8.35 15.3 8.35 15.45 8.35 15.6 8.35 15.75 8.35 L15.75 8.35 M7.45 8.45 L8.5 8.45 8.5 16.4 11.9 16.4 11.9 17.45 7.45 17.45 7.45 8.45 7.45 8.45" fill="#ffffff" fill-rule="evenodd" stroke="none"/>
  </g>
</svg>
