<?xml version="1.0" encoding="UTF-8" standalone="no"?>
<svg xmlns:ffdec="https://www.free-decompiler.com/flash" xmlns:xlink="http://www.w3.org/1999/xlink" ffdec:objectType="shape" height="26.0px" width="26.0px" xmlns="http://www.w3.org/2000/svg">
  <g transform="matrix(1.0, 0.0, 0.0, 1.0, 0.0, 0.0)">
    <path d="M13.0 3.5 Q12.05 3.5 11.1 3.7 10.15 3.9 9.3 4.25 8.45 4.6 7.7 5.1 6.95 5.65 6.3 6.3 5.65 6.95 5.1 7.7 4.6 8.45 4.25 9.3 3.9 10.15 3.7 11.1 3.5 12.05 3.5 13.0 3.5 13.95 3.7 14.9 3.9 15.85 4.25 16.7 4.6 17.55 5.1 18.3 5.65 19.05 6.3 19.7 6.95 20.35 7.7 20.9 8.45 21.4 9.3 21.75 10.15 22.1 11.1 22.3 12.05 22.5 13.0 22.5 13.95 22.5 14.9 22.3 15.85 22.1 16.7 21.75 17.55 21.4 18.3 20.9 19.05 20.35 19.7 19.7 20.35 19.05 20.9 18.3 21.4 17.55 21.75 16.7 22.1 15.85 22.3 14.9 22.5 13.95 22.5 13.0 22.5 12.05 22.3 11.1 22.1 10.15 21.75 9.3 21.4 8.45 20.9 7.7 20.35 6.95 19.7 6.3 19.05 5.65 18.3 5.1 17.55 4.6 16.7 4.25 15.85 3.9 14.9 3.7 13.95 3.5 13.0 3.5 L13.0 3.5 M16.25 8.4 Q16.4 8.4 16.55 8.4 16.7 8.4 16.85 8.45 16.95 8.45 17.1 8.5 17.25 8.55 17.35 8.55 17.5 8.6 17.6 8.65 17.7 8.7 17.8 8.75 17.9 8.85 18.0 8.9 18.1 8.95 18.2 9.05 18.3 9.15 18.35 9.2 18.45 9.3 18.5 9.4 18.6 9.5 18.65 9.6 18.7 9.7 18.75 9.8 18.8 9.9 18.85 10.05 18.85 10.15 18.9 10.3 18.9 10.4 18.9 10.55 18.95 10.65 18.95 10.8 18.95 10.9 18.95 11.0 18.95 11.1 18.9 11.2 18.9 11.3 18.9 11.35 18.85 11.45 18.85 11.55 18.8 11.6 18.75 11.7 18.75 11.8 18.7 11.85 18.65 11.95 18.6 12.0 18.55 12.1 18.5 12.15 18.45 12.2 18.4 12.3 18.35 12.35 18.3 12.4 18.2 12.45 18.15 12.5 18.1 12.55 18.0 12.6 17.95 12.65 17.85 12.7 17.8 12.75 17.7 12.8 17.6 12.8 17.5 12.85 17.45 12.9 17.35 12.9 17.45 12.9 17.55 12.95 17.65 12.95 17.7 13.0 17.8 13.05 17.9 13.05 18.0 13.1 18.05 13.15 18.15 13.2 18.2 13.25 18.3 13.3 18.35 13.35 18.4 13.4 18.5 13.5 18.55 13.55 18.6 13.65 18.65 13.7 18.7 13.8 18.75 13.85 18.8 13.95 18.85 14.05 18.9 14.1 18.9 14.2 18.95 14.3 18.95 14.4 19.0 14.5 19.0 14.6 19.0 14.7 19.05 14.8 19.05 14.9 19.05 15.0 19.05 15.1 19.05 15.25 19.05 15.4 19.05 15.55 19.0 15.7 19.0 15.85 18.95 15.95 18.9 16.1 18.85 16.2 18.8 16.35 18.75 16.45 18.65 16.55 18.6 16.65 18.5 16.75 18.45 16.85 18.35 16.95 18.25 17.05 18.15 17.15 18.05 17.2 17.95 17.3 17.8 17.35 17.7 17.4 17.55 17.45 17.45 17.5 17.3 17.55 17.15 17.6 17.0 17.65 16.85 17.7 16.7 17.7 16.55 17.7 16.35 17.75 16.2 17.75 16.05 17.75 15.9 17.75 15.75 17.75 15.6 17.75 15.45 17.7 15.3 17.7 15.15 17.65 15.05 17.6 14.9 17.6 14.8 17.55 14.65 17.5 14.55 17.45 14.45 17.4 14.35 17.3 14.25 17.25 14.15 17.2 14.05 17.1 13.95 17.0 13.85 16.95 13.8 16.85 13.7 16.75 13.65 16.65 13.6 16.55 13.55 16.45 13.5 16.35 13.45 16.25 13.4 16.15 13.35 16.0 13.35 15.9 13.3 15.75 13.3 15.65 13.3 15.5 13.3 15.4 L13.3 15.2 14.4 15.2 14.4 15.3 Q14.4 15.4 14.4 15.5 14.4 15.55 14.4 15.65 14.45 15.7 14.45 15.8 14.5 15.85 14.5 15.95 14.55 16.0 14.55 16.05 14.6 16.15 14.65 16.2 14.7 16.25 14.75 16.3 14.8 16.35 14.85 16.4 14.9 16.45 14.95 16.5 15.0 16.55 15.1 16.6 15.15 16.6 15.25 16.65 15.3 16.7 15.35 16.7 15.45 16.75 15.55 16.75 15.6 16.8 15.7 16.8 15.8 16.8 15.9 16.8 15.95 16.8 16.05 16.8 16.15 16.8 16.25 16.8 16.4 16.8 16.5 16.8 16.6 16.75 16.65 16.75 16.75 16.75 16.85 16.7 16.95 16.7 17.0 16.65 17.1 16.6 17.15 16.55 17.25 16.5 17.3 16.45 17.4 16.45 17.45 16.35 17.5 16.3 17.55 16.25 17.6 16.2 17.65 16.1 17.7 16.05 17.75 15.95 17.8 15.9 17.8 15.8 17.85 15.75 17.85 15.65 17.9 15.55 17.9 15.5 17.9 15.4 17.9 15.3 17.95 15.2 17.95 15.1 17.95 15.0 17.95 14.9 17.9 14.8 17.9 14.7 17.9 14.6 17.85 14.5 17.85 14.4 17.8 14.3 17.75 14.25 17.75 14.15 17.7 14.1 17.65 14.0 17.6 13.95 17.55 13.9 17.5 13.8 17.45 13.75 17.4 13.7 17.3 13.65 17.25 13.6 17.15 13.55 17.1 13.5 17.0 13.5 16.9 13.45 16.8 13.45 16.75 13.4 16.65 13.4 16.55 13.35 16.4 13.35 16.3 13.35 16.2 13.35 16.1 13.3 15.95 13.3 15.9 13.3 15.8 13.35 15.75 13.3 15.65 13.35 L15.65 12.45 Q15.65 12.45 15.7 12.45 15.75 12.45 15.8 12.45 15.85 12.45 15.9 12.45 15.9 12.45 15.95 12.45 16.05 12.45 16.15 12.45 16.3 12.45 16.4 12.45 16.5 12.4 16.6 12.4 16.65 12.4 16.75 12.35 16.85 12.35 16.9 12.3 17.0 12.25 17.1 12.25 17.15 12.2 17.2 12.15 17.3 12.1 17.35 12.05 17.4 12.0 17.45 11.95 17.5 11.9 17.55 11.85 17.6 11.75 17.65 11.7 17.65 11.65 17.7 11.55 17.75 11.5 17.75 11.4 17.75 11.3 17.8 11.25 17.8 11.15 17.8 11.05 17.8 10.95 17.8 10.85 17.8 10.75 17.8 10.7 17.8 10.6 17.8 10.5 17.75 10.45 17.75 10.35 17.75 10.3 17.7 10.2 17.7 10.15 17.65 10.1 17.6 10.0 17.55 9.95 17.55 9.9 17.5 9.85 17.45 9.8 17.4 9.75 17.35 9.7 17.3 9.65 17.2 9.6 17.15 9.55 17.1 9.5 17.0 9.5 16.95 9.45 16.9 9.4 16.8 9.4 16.75 9.4 16.65 9.35 16.55 9.35 16.5 9.35 16.4 9.3 16.3 9.3 16.2 9.3 16.1 9.3 16.0 9.3 15.9 9.3 15.85 9.35 15.75 9.35 15.65 9.35 15.6 9.4 15.5 9.4 15.45 9.45 15.35 9.45 15.3 9.5 15.25 9.55 15.15 9.55 15.1 9.6 15.05 9.65 15.0 9.7 14.95 9.75 14.9 9.8 14.85 9.85 14.8 9.9 14.75 9.95 14.7 10.05 14.7 10.1 14.65 10.15 14.6 10.25 14.6 10.3 14.6 10.4 14.55 10.45 14.55 10.55 14.55 10.65 14.5 10.75 14.5 10.8 L13.45 10.8 Q13.45 10.65 13.5 10.5 13.5 10.4 13.55 10.25 13.55 10.15 13.6 10.0 13.65 9.9 13.7 9.8 13.75 9.65 13.8 9.55 13.85 9.45 13.9 9.35 14.0 9.3 14.05 9.2 14.15 9.1 14.25 9.05 14.35 8.95 14.45 8.9 14.55 8.85 14.65 8.75 14.75 8.7 14.85 8.65 14.95 8.6 15.1 8.55 15.2 8.55 15.35 8.5 15.5 8.45 15.65 8.45 15.8 8.45 15.95 8.4 16.1 8.4 16.25 8.4 L16.25 8.4 M6.95 8.5 L9.05 8.5 Q9.15 8.5 9.25 8.5 9.4 8.5 9.5 8.5 9.6 8.5 9.65 8.5 9.75 8.5 9.85 8.55 9.95 8.55 10.0 8.55 10.1 8.55 10.15 8.55 10.2 8.55 10.25 8.6 10.35 8.6 10.4 8.6 10.45 8.6 10.5 8.65 10.55 8.65 10.6 8.65 10.65 8.7 10.7 8.7 10.75 8.7 10.8 8.75 10.85 8.75 10.9 8.8 10.9 8.8 10.95 8.85 11.0 8.85 11.05 8.9 11.1 8.9 11.15 8.95 11.2 9.0 11.25 9.05 11.3 9.05 11.35 9.1 11.35 9.15 11.4 9.2 11.45 9.25 11.5 9.3 11.5 9.35 11.55 9.4 11.6 9.5 11.65 9.55 11.65 9.6 11.7 9.65 11.7 9.75 11.75 9.8 11.8 9.85 11.8 9.95 11.85 10.0 11.85 10.05 11.85 10.15 11.9 10.2 11.9 10.25 11.9 10.35 11.95 10.4 11.95 10.5 11.95 10.55 11.95 10.65 11.95 10.7 11.95 10.8 11.95 10.85 11.95 10.95 11.95 11.1 11.95 11.2 11.95 11.35 11.9 11.45 11.9 11.6 11.9 11.7 11.85 11.8 11.8 11.95 11.8 12.05 11.75 12.15 11.7 12.25 11.6 12.3 11.55 12.4 11.5 12.5 11.45 12.55 11.35 12.65 11.25 12.7 11.2 12.8 11.1 12.85 11.0 12.9 10.9 12.95 10.8 13.0 10.7 13.05 10.6 13.05 10.5 13.1 10.35 13.15 10.25 13.15 10.1 13.15 9.95 13.2 9.85 13.2 9.7 13.2 9.55 13.2 L9.35 13.2 12.8 17.5 11.45 17.5 8.15 13.2 8.0 13.2 8.0 17.5 6.95 17.5 6.95 8.5 6.95 8.5 M8.0 9.4 L8.0 12.4 8.8 12.4 Q8.95 12.4 9.1 12.4 9.25 12.4 9.4 12.4 9.5 12.4 9.65 12.35 9.75 12.35 9.85 12.35 9.95 12.3 10.05 12.3 10.15 12.25 10.2 12.25 10.3 12.2 10.35 12.15 10.45 12.15 10.5 12.1 10.55 12.05 10.6 12.0 10.65 11.95 10.7 11.9 10.7 11.85 10.75 11.8 10.8 11.7 10.8 11.65 10.85 11.6 10.85 11.5 10.85 11.4 10.9 11.35 10.9 11.25 10.9 11.15 10.9 11.05 10.9 10.95 10.9 10.85 10.9 10.75 10.9 10.65 10.9 10.55 10.85 10.45 10.85 10.4 10.85 10.3 10.8 10.25 10.8 10.15 10.75 10.1 10.7 10.0 10.65 9.95 10.65 9.9 10.6 9.85 10.55 9.8 10.5 9.75 10.45 9.7 10.35 9.65 10.3 9.65 10.2 9.6 10.15 9.55 10.05 9.55 9.95 9.5 9.85 9.5 9.75 9.45 9.6 9.45 9.5 9.45 9.4 9.45 9.25 9.4 9.1 9.4 8.95 9.4 8.8 9.4 L8.0 9.4 8.0 9.4" fill="#ffffff" fill-rule="evenodd" stroke="none"/>
  </g>
</svg>
