<?xml version="1.0" encoding="UTF-8" standalone="no"?>
<svg xmlns:ffdec="https://www.free-decompiler.com/flash" xmlns:xlink="http://www.w3.org/1999/xlink" ffdec:objectType="shape" height="26.0px" width="26.0px" xmlns="http://www.w3.org/2000/svg">
  <g transform="matrix(1.0, 0.0, 0.0, 1.0, 0.0, 0.0)">
    <path d="M13.0 2.0 Q12.0 2.0 11.0 2.15 10.0 2.3 9.1 2.6 8.2 2.85 7.4 3.3 6.6 3.7 5.95 4.2 5.25 4.7 4.7 5.3 4.15 5.9 3.8 6.6 3.4 7.25 3.2 8.0 3.0 8.75 3.0 9.5 L3.0 10.0 3.0 22.0 Q3.0 22.1 3.0 22.2 3.05 22.3 3.1 22.4 3.1 22.5 3.15 22.55 3.2 22.65 3.3 22.7 3.35 22.8 3.45 22.85 3.5 22.9 3.6 22.9 3.7 22.95 3.8 23.0 3.9 23.0 4.0 23.0 L22.0 23.0 Q22.1 23.0 22.2 23.0 22.3 22.95 22.4 22.9 22.5 22.9 22.55 22.85 22.65 22.8 22.7 22.7 22.8 22.65 22.85 22.55 22.9 22.5 22.9 22.4 22.95 22.3 23.0 22.2 23.0 22.1 23.0 22.0 L23.0 10.0 23.0 9.5 Q23.0 8.75 22.8 8.0 22.6 7.25 22.2 6.6 21.85 5.9 21.3 5.3 20.75 4.7 20.05 4.2 19.4 3.7 18.6 3.3 17.8 2.85 16.9 2.6 16.0 2.3 15.0 2.15 14.0 2.0 13.0 2.0 L13.0 2.0 M8.45 8.5 L9.5 8.5 9.5 16.5 12.9 16.5 12.9 17.5 8.45 17.5 8.45 8.5 8.45 8.5 M15.3 8.6 L17.55 8.6 17.55 17.5 16.55 17.5 16.55 9.5 14.7 9.5 15.3 8.6 15.3 8.6" fill="#ffffff" fill-rule="evenodd" stroke="none"/>
  </g>
</svg>
