<?xml version="1.0" encoding="UTF-8" standalone="no"?>
<svg xmlns:ffdec="https://www.free-decompiler.com/flash" xmlns:xlink="http://www.w3.org/1999/xlink" ffdec:objectType="shape" height="26.0px" width="26.0px" xmlns="http://www.w3.org/2000/svg">
  <g transform="matrix(1.0, 0.0, 0.0, 1.0, 0.0, 0.0)">
    <path d="M13.0 2.0 Q12.0 2.0 11.0 2.15 10.0 2.3 9.1 2.6 8.2 2.85 7.4 3.3 6.6 3.7 5.95 4.2 5.25 4.7 4.7 5.3 4.15 5.9 3.8 6.6 3.4 7.25 3.2 8.0 3.0 8.75 3.0 9.5 L3.0 10.0 3.0 22.0 Q3.0 22.1 3.0 22.2 3.05 22.3 3.1 22.4 3.1 22.5 3.15 22.55 3.2 22.65 3.3 22.7 3.35 22.8 3.45 22.85 3.5 22.9 3.6 22.9 3.7 22.95 3.8 23.0 3.9 23.0 4.0 23.0 L22.0 23.0 Q22.1 23.0 22.2 23.0 22.3 22.95 22.4 22.9 22.5 22.9 22.55 22.85 22.65 22.8 22.7 22.7 22.8 22.65 22.85 22.55 22.9 22.5 22.9 22.4 22.95 22.3 23.0 22.2 23.0 22.1 23.0 22.0 L23.0 10.0 23.0 9.5 Q23.0 8.75 22.8 8.0 22.6 7.25 22.2 6.6 21.85 5.9 21.3 5.3 20.75 4.7 20.05 4.2 19.4 3.7 18.6 3.3 17.8 2.85 16.9 2.6 16.0 2.3 15.0 2.15 14.0 2.0 13.0 2.0 L13.0 2.0 M7.95 8.5 L10.05 8.5 Q10.15 8.5 10.25 8.5 10.35 8.5 10.45 8.5 10.55 8.5 10.65 8.5 10.75 8.5 10.85 8.55 10.9 8.55 11.0 8.55 11.05 8.55 11.15 8.55 11.2 8.55 11.25 8.6 11.3 8.6 11.35 8.6 11.4 8.6 11.45 8.65 11.5 8.65 11.55 8.65 11.6 8.7 11.65 8.7 11.7 8.7 11.75 8.75 11.8 8.75 11.85 8.8 11.9 8.8 11.95 8.85 12.0 8.85 12.05 8.9 12.05 8.9 12.1 8.95 12.15 9.0 12.2 9.05 12.25 9.05 12.3 9.1 12.35 9.15 12.4 9.2 12.45 9.25 12.45 9.3 12.5 9.35 12.55 9.4 12.6 9.5 12.6 9.55 12.65 9.6 12.65 9.65 12.7 9.7 12.75 9.8 12.75 9.85 12.8 9.95 12.8 10.0 12.85 10.05 12.85 10.15 12.85 10.2 12.9 10.25 12.9 10.35 12.9 10.4 12.9 10.5 12.95 10.55 12.95 10.65 12.95 10.7 12.95 10.8 12.95 10.85 12.95 10.95 12.95 11.1 12.95 11.2 12.95 11.35 12.9 11.45 12.9 11.6 12.85 11.7 12.85 11.8 12.8 11.95 12.75 12.05 12.7 12.15 12.65 12.25 12.6 12.3 12.55 12.4 12.5 12.5 12.4 12.55 12.35 12.65 12.25 12.7 12.2 12.8 12.1 12.85 12.0 12.9 11.9 12.95 11.8 13.0 11.7 13.05 11.6 13.05 11.45 13.1 11.35 13.15 11.2 13.15 11.1 13.15 10.95 13.2 10.8 13.2 10.65 13.2 10.55 13.2 L10.35 13.2 13.75 17.5 12.4 17.5 9.15 13.2 9.0 13.2 9.0 17.5 7.95 17.5 7.95 8.5 7.95 8.5 M15.8 8.6 L18.05 8.6 18.05 17.5 17.0 17.5 17.0 9.5 15.2 9.5 15.8 8.6 15.8 8.6 M9.0 9.4 L9.0 12.4 9.8 12.4 Q9.95 12.4 10.1 12.4 10.25 12.4 10.35 12.4 10.5 12.4 10.6 12.35 10.75 12.35 10.85 12.35 10.95 12.3 11.05 12.3 11.15 12.25 11.2 12.25 11.3 12.2 11.35 12.15 11.4 12.15 11.45 12.1 11.5 12.05 11.55 12.0 11.6 11.95 11.65 11.9 11.7 11.85 11.75 11.8 11.75 11.7 11.8 11.65 11.8 11.6 11.85 11.5 11.85 11.4 11.85 11.35 11.9 11.25 11.9 11.15 11.9 11.05 11.9 10.95 11.9 10.85 11.9 10.75 11.9 10.65 11.85 10.55 11.85 10.45 11.85 10.4 11.8 10.3 11.8 10.25 11.75 10.15 11.75 10.1 11.7 10.0 11.65 9.95 11.6 9.9 11.55 9.85 11.5 9.8 11.45 9.75 11.4 9.7 11.35 9.65 11.25 9.65 11.2 9.6 11.1 9.55 11.0 9.55 10.95 9.5 10.8 9.5 10.7 9.45 10.6 9.45 10.5 9.45 10.35 9.45 10.25 9.4 10.1 9.4 9.95 9.4 9.8 9.4 L9.0 9.4 9.0 9.4" fill="#ffffff" fill-rule="evenodd" stroke="none"/>
  </g>
</svg>
