<?xml version="1.0" encoding="UTF-8" standalone="no"?>
<svg xmlns:ffdec="https://www.free-decompiler.com/flash" xmlns:xlink="http://www.w3.org/1999/xlink" ffdec:objectType="shape" height="26.0px" width="26.0px" xmlns="http://www.w3.org/2000/svg">
  <g transform="matrix(1.0, 0.0, 0.0, 1.0, 0.0, 0.0)">
    <path d="M13.0 3.5 Q12.05 3.5 11.1 3.7 10.15 3.9 9.3 4.25 8.45 4.6 7.7 5.1 6.95 5.65 6.3 6.3 5.65 6.95 5.1 7.7 4.6 8.45 4.25 9.3 3.9 10.15 3.7 11.1 3.5 12.05 3.5 13.0 3.5 13.95 3.7 14.9 3.9 15.85 4.25 16.7 4.6 17.55 5.1 18.3 5.65 19.05 6.3 19.7 6.95 20.35 7.7 20.9 8.45 21.4 9.3 21.75 10.15 22.1 11.1 22.3 12.05 22.5 13.0 22.5 13.95 22.5 14.9 22.3 15.85 22.1 16.7 21.75 17.55 21.4 18.3 20.9 19.05 20.35 19.7 19.7 20.35 19.05 20.9 18.3 21.4 17.55 21.75 16.7 22.1 15.85 22.3 14.9 22.5 13.95 22.5 13.0 22.5 12.05 22.3 11.1 22.1 10.15 21.75 9.3 21.4 8.45 20.9 7.7 20.35 6.95 19.7 6.3 19.05 5.65 18.3 5.1 17.55 4.6 16.7 4.25 15.85 3.9 14.9 3.7 13.95 3.5 13.0 3.5 L13.0 3.5 M13.0 6.65 L19.35 17.5 6.65 17.5 13.0 6.65 M13.0 8.65 L8.4 16.5 17.6 16.5 13.0 8.65" fill="#ffffff" fill-rule="evenodd" stroke="none"/>
  </g>
</svg>
