<?xml version="1.0" encoding="UTF-8" standalone="no"?>
<svg xmlns:ffdec="https://www.free-decompiler.com/flash" xmlns:xlink="http://www.w3.org/1999/xlink" ffdec:objectType="shape" height="8.75px" width="2.6px" xmlns="http://www.w3.org/2000/svg">
  <g transform="matrix(1.0, 0.0, 0.0, 1.0, 0.0, 0.0)">
    <path d="M0.35 0.0 L1.05 0.05 1.5 0.5 1.65 1.3 1.65 3.25 1.8 3.75 2.2 4.0 2.6 4.1 2.6 4.65 2.2 4.7 1.8 4.95 1.65 5.45 1.65 7.35 1.5 8.2 1.05 8.6 0.35 8.75 0.0 8.75 0.0 8.15 0.65 7.9 0.8 7.25 0.8 5.6 0.9 5.05 1.2 4.6 1.8 4.35 1.8 4.3 1.2 4.1 0.9 3.65 0.8 3.1 0.8 1.45 0.65 0.8 Q0.4 0.6 0.0 0.55 L0.0 0.0 0.35 0.0" fill="#cccccc" fill-rule="evenodd" stroke="none"/>
  </g>
</svg>
