<?xml version="1.0" encoding="UTF-8" standalone="no"?>
<svg xmlns:ffdec="https://www.free-decompiler.com/flash" xmlns:xlink="http://www.w3.org/1999/xlink" ffdec:objectType="shape" height="26.0px" width="26.0px" xmlns="http://www.w3.org/2000/svg">
  <g transform="matrix(1.0, 0.0, 0.0, 1.0, 0.0, 0.0)">
    <path d="M13.0 1.9 L22.7 1.9 Q22.85 1.9 23.0 1.95 23.1 1.95 23.25 2.0 23.35 2.05 23.5 2.15 23.6 2.2 23.7 2.3 23.8 2.4 23.85 2.5 23.95 2.6 24.0 2.75 24.05 2.85 24.05 3.0 24.1 3.15 24.1 3.3 L24.1 22.7 Q24.1 22.85 24.05 23.0 24.05 23.1 24.0 23.25 23.95 23.35 23.85 23.5 23.8 23.6 23.7 23.7 23.6 23.8 23.5 23.85 23.4 23.95 23.25 24.0 23.15 24.05 23.0 24.05 22.85 24.1 22.7 24.1 L3.1 24.1 Q2.95 24.1 2.8 24.05 2.7 24.05 2.55 24.0 2.45 23.95 2.3 23.85 2.2 23.8 2.1 23.7 2.0 23.6 1.95 23.5 1.85 23.4 1.8 23.25 1.75 23.15 1.75 23.0 1.7 22.85 1.7 22.7 L1.7 13.0 Q1.7 12.8 1.7 12.65 1.7 12.25 1.75 11.85 1.8 11.35 1.85 10.85 1.95 10.2 2.05 9.6 2.2 8.9 2.4 8.25 2.6 7.5 2.9 6.85 3.25 6.1 3.65 5.5 4.05 4.85 4.6 4.35 5.05 3.9 5.7 3.55 6.25 3.2 6.95 2.9 7.55 2.65 8.3 2.5 8.9 2.3 9.6 2.2 10.2 2.1 10.85 2.0 11.35 1.95 11.9 1.95 12.3 1.9 12.65 1.9 12.8 1.9 13.0 1.9 L13.0 1.9" fill="#000000" fill-rule="evenodd" stroke="none"/>
    <path d="M13.0 1.9 L22.7 1.9 Q22.85 1.9 23.0 1.95 23.1 1.95 23.25 2.0 23.35 2.05 23.5 2.15 23.6 2.2 23.7 2.3 23.8 2.4 23.85 2.5 23.95 2.6 24.0 2.75 24.05 2.85 24.05 3.0 24.1 3.15 24.1 3.3 L24.1 22.7 Q24.1 22.85 24.05 23.0 24.05 23.1 24.0 23.25 23.95 23.35 23.85 23.5 23.8 23.6 23.7 23.7 23.6 23.8 23.5 23.85 23.4 23.95 23.25 24.0 23.15 24.05 23.0 24.05 22.85 24.1 22.7 24.1 L3.1 24.1 Q2.95 24.1 2.8 24.05 2.7 24.05 2.55 24.0 2.45 23.95 2.3 23.85 2.2 23.8 2.1 23.7 2.0 23.6 1.95 23.5 1.85 23.4 1.8 23.25 1.75 23.15 1.75 23.0 1.7 22.85 1.7 22.7 L1.7 13.0 Q1.7 12.8 1.7 12.65 1.7 12.25 1.75 11.85 1.8 11.35 1.85 10.85 1.95 10.2 2.05 9.6 2.2 8.9 2.4 8.25 2.6 7.5 2.9 6.85 3.25 6.1 3.65 5.5 4.05 4.85 4.6 4.35 5.05 3.9 5.7 3.55 6.25 3.2 6.95 2.9 7.55 2.65 8.3 2.5 8.9 2.3 9.6 2.2 10.2 2.1 10.85 2.0 11.35 1.95 11.9 1.95 12.3 1.9 12.65 1.9 12.8 1.9 13.0 1.9 L13.0 1.9 Z" fill="none" stroke="#ffffff" stroke-linecap="round" stroke-linejoin="round" stroke-width="1.0"/>
  </g>
</svg>
