<?xml version="1.0" encoding="UTF-8" standalone="no"?>
<svg xmlns:ffdec="https://www.free-decompiler.com/flash" xmlns:xlink="http://www.w3.org/1999/xlink" ffdec:objectType="shape" height="12.95px" width="15.4px" xmlns="http://www.w3.org/2000/svg">
  <g transform="matrix(1.0, 0.0, 0.0, 1.0, 0.0, 0.0)">
    <path d="M6.05 0.0 L7.55 0.0 8.75 12.8 7.05 12.8 6.6 3.95 4.95 12.8 3.8 12.8 2.15 3.95 2.1 3.95 1.65 12.8 0.0 12.8 1.05 0.0 2.5 0.0 4.35 9.25 4.4 9.25 4.45 8.7 6.05 0.0 M12.65 6.45 L12.4 6.45 12.05 6.7 11.75 7.45 Q11.6 8.0 11.6 8.95 L11.65 9.65 11.75 10.45 12.05 11.15 Q12.3 11.4 12.65 11.45 13.05 11.4 13.25 11.15 L13.55 10.45 13.65 9.65 13.65 8.95 13.65 8.25 13.55 7.4 13.25 6.7 Q13.05 6.45 12.65 6.45 M12.5 0.0 L14.3 0.0 11.8 5.45 11.85 5.5 12.45 5.05 13.15 4.9 Q13.95 4.95 14.4 5.3 14.85 5.7 15.1 6.35 L15.35 7.65 15.4 8.95 15.25 10.85 Q15.05 11.75 14.5 12.35 13.9 12.95 12.65 12.95 11.7 12.95 11.15 12.55 L10.3 11.55 9.95 10.15 9.9 8.6 10.1 6.25 Q10.3 5.15 10.65 4.15 L11.45 2.15 12.5 0.0" fill="#cccccc" fill-rule="evenodd" stroke="none"/>
  </g>
</svg>
