<?xml version="1.0" encoding="UTF-8" standalone="no"?>
<svg xmlns:ffdec="https://www.free-decompiler.com/flash" xmlns:xlink="http://www.w3.org/1999/xlink" ffdec:objectType="shape" height="26.0px" width="26.0px" xmlns="http://www.w3.org/2000/svg">
  <g transform="matrix(1.0, 0.0, 0.0, 1.0, -0.05, -0.05)">
    <path d="M22.6 13.05 Q22.6 9.1 19.8 6.3 17.0 3.5 13.05 3.5 9.1 3.5 6.3 6.3 3.5 9.1 3.5 13.05 3.5 17.0 6.3 19.8 9.1 22.6 13.05 22.6 17.0 22.6 19.8 19.8 22.6 17.0 22.6 13.05 L22.6 13.05" fill="#000000" fill-rule="evenodd" stroke="none"/>
    <path d="M22.6 13.05 Q22.6 9.1 19.8 6.3 17.0 3.5 13.05 3.5 9.1 3.5 6.3 6.3 3.5 9.1 3.5 13.05 3.5 17.0 6.3 19.8 9.1 22.6 13.05 22.6 17.0 22.6 19.8 19.8 22.6 17.0 22.6 13.05 L22.6 13.05 Z" fill="none" stroke="#ffffff" stroke-linecap="round" stroke-linejoin="round" stroke-width="1.0"/>
  </g>
</svg>
