<?xml version="1.0" encoding="UTF-8" standalone="no"?>
<svg xmlns:ffdec="https://www.free-decompiler.com/flash" xmlns:xlink="http://www.w3.org/1999/xlink" ffdec:objectType="shape" height="14.1px" width="14.1px" xmlns="http://www.w3.org/2000/svg">
  <g transform="matrix(1.0, 0.0, 0.0, 1.0, 0.0, 0.0)">
    <path d="M13.3 3.75 Q14.1 5.25 14.1 7.05 14.1 8.8 13.4 10.2 L12.0 12.05 11.8 12.25 Q9.8 14.1 7.05 14.1 4.25 14.1 2.25 12.25 L2.05 12.05 Q1.2 11.2 0.7 10.2 0.0 8.8 0.0 7.05 0.0 5.25 0.8 3.75 L2.05 2.1 Q4.1 0.0 7.05 0.0 9.95 0.0 12.0 2.1 L13.3 3.75 M10.45 3.75 L10.35 3.65 Q8.95 2.25 7.0 2.25 5.0 2.25 3.6 3.65 L3.5 3.75 Q2.25 5.1 2.25 7.0 2.25 8.85 3.45 10.2 L3.6 10.4 Q5.0 11.8 7.0 11.8 8.95 11.8 10.35 10.4 L10.55 10.2 Q11.8 8.85 11.8 7.0 11.8 5.1 10.45 3.75" fill="#cccccc" fill-rule="evenodd" stroke="none"/>
  </g>
</svg>
