<?xml version="1.0" encoding="UTF-8" standalone="no"?>
<svg xmlns:ffdec="https://www.free-decompiler.com/flash" xmlns:xlink="http://www.w3.org/1999/xlink" ffdec:objectType="shape" height="15.15px" width="11.6px" xmlns="http://www.w3.org/2000/svg">
  <g transform="matrix(1.0, 0.0, 0.0, 1.0, 0.0, 0.0)">
    <path d="M9.3 0.0 L5.45 2.35 1.55 0.0 9.3 0.0" fill="#3e0d00" fill-rule="evenodd" stroke="none"/>
    <path d="M1.95 3.65 L1.7 3.65 1.7 7.85 Q2.65 7.9 3.05 7.35 3.4 6.8 3.4 5.85 L3.3 4.7 2.9 3.9 2.8 3.8 1.95 3.65 M3.05 2.25 L4.1 2.6 4.9 3.6 5.0 3.8 5.2 5.45 5.05 6.8 4.55 8.05 3.45 8.75 5.8 15.0 4.05 15.0 1.7 8.7 1.7 15.0 0.0 15.0 0.0 2.2 2.05 2.2 3.05 2.25 M10.15 2.1 L11.0 2.45 11.0 4.15 10.4 3.8 10.3 3.75 9.55 3.6 8.85 3.8 Q8.6 3.9 8.45 4.1 8.05 4.55 8.05 5.25 L8.15 6.0 8.5 6.65 9.8 8.05 10.75 9.15 11.4 10.35 11.6 11.8 Q11.6 12.75 11.25 13.5 L10.2 14.7 Q9.55 15.15 8.6 15.15 L7.6 15.0 6.75 14.55 6.75 12.85 7.5 13.3 8.4 13.5 9.25 13.25 9.75 12.6 9.9 11.7 Q9.9 10.95 9.55 10.4 L8.65 9.35 7.6 8.3 6.7 7.0 Q6.35 6.3 6.3 5.3 6.3 4.5 6.6 3.8 L6.65 3.65 Q6.95 2.9 7.6 2.45 8.25 2.0 9.2 2.0 L10.15 2.1" fill="#3e0d00" fill-rule="evenodd" stroke="none"/>
  </g>
</svg>
