<?xml version="1.0" encoding="UTF-8" standalone="no"?>
<svg xmlns:ffdec="https://www.free-decompiler.com/flash" xmlns:xlink="http://www.w3.org/1999/xlink" ffdec:objectType="shape" height="12.8px" width="10.9px" xmlns="http://www.w3.org/2000/svg">
  <g transform="matrix(1.0, 0.0, 0.0, 1.0, 0.0, 0.0)">
    <path d="M7.25 7.0 L7.25 11.35 8.4 11.15 8.95 10.45 9.1 9.25 8.95 8.05 Q8.85 7.5 8.45 7.25 8.05 6.95 7.25 7.0 M0.0 0.0 L1.7 0.0 1.7 11.3 4.55 11.3 4.55 12.8 0.0 12.8 0.0 0.0 M8.9 2.4 L8.45 1.7 7.55 1.45 7.25 1.45 7.25 5.65 8.4 5.35 8.95 4.55 9.05 3.35 8.9 2.4 M10.7 3.4 L10.6 4.65 10.15 5.65 9.1 6.25 9.1 6.3 Q9.85 6.5 10.2 6.95 L10.75 8.0 10.9 9.3 Q10.95 11.05 10.2 11.95 9.45 12.8 7.7 12.8 L5.65 12.8 5.65 0.0 7.75 0.0 Q8.9 0.0 9.55 0.4 10.2 0.8 10.45 1.55 10.75 2.35 10.7 3.4" fill="#3e0d00" fill-rule="evenodd" stroke="none"/>
  </g>
</svg>
