<?xml version="1.0" encoding="UTF-8" standalone="no"?>
<svg xmlns:ffdec="https://www.free-decompiler.com/flash" xmlns:xlink="http://www.w3.org/1999/xlink" ffdec:objectType="shape" height="13.15px" width="16.4px" xmlns="http://www.w3.org/2000/svg">
  <g transform="matrix(1.0, 0.0, 0.0, 1.0, 0.0, 0.0)">
    <path d="M8.8 11.4 L9.1 12.1 8.8 12.85 Q8.5 13.15 8.05 13.15 7.65 13.15 7.35 12.85 7.05 12.55 7.05 12.1 7.05 11.7 7.35 11.4 7.65 11.1 8.05 11.1 8.5 11.1 8.8 11.4 M1.25 12.1 Q1.25 11.7 1.55 11.4 1.85 11.1 2.25 11.1 2.7 11.1 3.0 11.4 L3.3 12.1 3.0 12.85 Q2.7 13.15 2.25 13.15 L1.55 12.85 Q1.25 12.55 1.25 12.1 M4.0 0.55 Q4.55 1.1 4.7 1.95 L4.8 3.85 4.8 4.95 4.6 6.05 4.05 6.9 Q3.7 7.25 3.05 7.25 L3.05 10.0 1.55 10.0 1.55 6.1 1.95 6.15 Q2.55 6.15 2.8 5.8 L3.15 5.05 3.2 4.05 3.2 3.4 3.15 2.5 2.9 1.8 2.35 1.45 Q1.95 1.5 1.8 1.75 1.65 2.0 1.65 2.4 L1.6 3.05 1.6 3.35 0.0 3.35 0.0 3.15 Q0.0 2.3 0.15 1.6 0.3 0.85 0.8 0.45 1.25 0.0 2.3 0.0 3.45 0.05 4.0 0.55 M13.85 11.1 Q14.3 11.1 14.6 11.4 L14.9 12.1 14.6 12.85 Q14.3 13.15 13.85 13.15 13.45 13.15 13.15 12.85 12.85 12.55 12.85 12.1 12.85 11.7 13.15 11.4 13.45 11.1 13.85 11.1 M10.6 4.95 L10.4 6.05 9.85 6.9 Q9.5 7.25 8.85 7.25 L8.85 10.0 7.35 10.0 7.35 6.1 7.75 6.15 Q8.35 6.15 8.6 5.8 L8.95 5.05 9.0 4.05 9.0 3.4 8.95 2.5 8.7 1.8 Q8.5 1.5 8.15 1.45 7.75 1.5 7.6 1.75 7.45 2.0 7.45 2.4 L7.4 3.05 7.4 3.35 5.8 3.35 5.8 3.15 Q5.8 2.3 5.95 1.6 6.1 0.85 6.6 0.45 7.05 0.0 8.1 0.0 9.25 0.05 9.8 0.55 10.35 1.1 10.5 1.95 L10.6 3.85 10.6 4.95 M16.3 1.95 L16.4 3.85 16.4 4.95 16.2 6.05 15.65 6.9 14.65 7.25 14.65 10.0 13.15 10.0 13.15 6.1 13.55 6.15 Q14.15 6.15 14.4 5.8 L14.75 5.05 14.8 4.05 14.8 3.4 14.75 2.5 14.5 1.8 Q14.3 1.5 13.95 1.45 L13.4 1.75 Q13.25 2.0 13.25 2.4 L13.2 3.05 13.2 3.35 11.6 3.35 11.6 3.15 Q11.6 2.3 11.75 1.6 11.9 0.85 12.4 0.45 12.85 0.0 13.9 0.0 15.05 0.05 15.6 0.55 16.15 1.1 16.3 1.95" fill="#3e0d00" fill-rule="evenodd" stroke="none"/>
  </g>
</svg>
