<?xml version="1.0" encoding="UTF-8" standalone="no"?>
<svg xmlns:ffdec="https://www.free-decompiler.com/flash" xmlns:xlink="http://www.w3.org/1999/xlink" ffdec:objectType="shape" height="12.95px" width="11.0px" xmlns="http://www.w3.org/2000/svg">
  <g transform="matrix(1.0, 0.0, 0.0, 1.0, 0.0, 0.0)">
    <path d="M0.0 0.15 L1.7 0.15 1.7 11.45 4.55 11.45 4.55 12.95 0.0 12.95 0.0 0.15 M11.0 3.15 Q11.0 4.1 10.6 5.25 L9.75 7.45 8.8 9.4 7.7 11.45 10.9 11.45 10.9 12.95 5.25 12.95 8.35 6.35 8.95 4.75 9.25 3.05 9.15 2.35 8.8 1.75 Q8.55 1.5 8.1 1.5 7.7 1.5 7.45 1.8 7.25 2.1 7.2 2.55 L7.1 3.35 7.15 3.95 7.15 4.3 5.4 4.3 5.4 3.85 Q5.4 2.8 5.55 1.95 5.75 1.05 6.3 0.5 6.9 0.0 8.15 0.0 9.7 0.0 10.35 0.8 11.0 1.65 11.0 3.15" fill="#3e0d00" fill-rule="evenodd" stroke="none"/>
  </g>
</svg>
