<?xml version="1.0" encoding="UTF-8" standalone="no"?>
<svg xmlns:ffdec="https://www.free-decompiler.com/flash" xmlns:xlink="http://www.w3.org/1999/xlink" ffdec:objectType="shape" height="12.95px" width="5.5px" xmlns="http://www.w3.org/2000/svg">
  <g transform="matrix(1.0, 0.0, 0.0, 1.0, 0.0, 0.0)">
    <path d="M3.65 2.45 L3.35 1.8 Q3.1 1.5 2.75 1.5 2.35 1.5 2.15 1.8 L1.85 2.5 1.75 3.4 1.75 4.1 1.75 4.8 1.85 5.6 2.15 6.25 Q2.35 6.55 2.75 6.55 3.15 6.55 3.35 6.25 L3.65 5.55 3.75 4.7 3.75 4.0 3.75 3.3 3.65 2.45 M5.1 1.4 L5.45 2.8 5.5 4.35 5.3 6.85 4.6 9.1 3.6 11.4 2.85 12.95 1.0 12.95 3.55 7.6 3.5 7.55 2.95 7.95 2.2 8.05 Q1.45 8.05 1.05 7.7 L0.35 6.8 0.05 5.55 0.0 4.35 0.05 2.8 Q0.15 2.05 0.4 1.4 0.65 0.75 1.2 0.4 1.75 0.0 2.75 0.0 3.7 0.0 4.25 0.35 L5.1 1.4" fill="#3e0d00" fill-rule="evenodd" stroke="none"/>
  </g>
</svg>
