<?xml version="1.0" encoding="UTF-8" standalone="no"?>
<svg xmlns:ffdec="https://www.free-decompiler.com/flash" xmlns:xlink="http://www.w3.org/1999/xlink" ffdec:objectType="shape" height="14.0px" width="7.05px" xmlns="http://www.w3.org/2000/svg">
  <g transform="matrix(1.0, 0.0, 0.0, 1.0, 0.0, 0.0)">
    <path d="M4.35 2.3 Q4.0 1.65 3.35 1.6 2.7 1.65 2.35 2.3 2.0 2.95 1.9 4.1 L1.8 6.6 1.9 9.1 Q2.0 10.2 2.35 10.9 2.7 11.55 3.35 11.55 L3.75 11.5 4.05 11.3 2.95 9.75 4.0 8.95 4.65 9.85 4.7 9.85 4.8 8.25 4.9 6.6 4.8 4.1 4.35 2.3 M5.95 1.65 L6.45 3.3 6.65 5.0 6.7 6.6 6.65 8.2 6.4 10.0 5.9 11.6 7.05 13.2 5.95 14.0 5.05 12.65 4.3 13.05 3.35 13.15 Q2.35 13.15 1.75 12.7 1.1 12.25 0.75 11.5 L0.25 9.9 0.05 8.15 0.0 6.6 0.05 5.0 0.25 3.3 Q0.4 2.4 0.75 1.65 1.1 0.9 1.75 0.45 2.35 0.05 3.35 0.0 4.35 0.05 4.95 0.45 L5.95 1.65" fill="#3e0d00" fill-rule="evenodd" stroke="none"/>
  </g>
</svg>
