<?xml version="1.0" encoding="UTF-8" standalone="no"?>
<svg xmlns:ffdec="https://www.free-decompiler.com/flash" xmlns:xlink="http://www.w3.org/1999/xlink" ffdec:objectType="shape" height="13.15px" width="5.3px" xmlns="http://www.w3.org/2000/svg">
  <g transform="matrix(1.0, 0.0, 0.0, 1.0, 0.0, 0.0)">
    <path d="M2.9 0.0 L3.85 0.1 Q4.3 0.2 4.7 0.45 L4.7 2.15 4.0 1.75 3.25 1.6 Q2.55 1.65 2.15 2.1 1.75 2.55 1.75 3.25 L1.85 4.0 2.2 4.65 3.5 6.05 4.45 7.15 5.1 8.35 5.3 9.8 Q5.3 10.75 4.95 11.5 L3.9 12.7 2.3 13.15 1.3 13.0 0.45 12.55 0.45 10.85 1.2 11.3 2.1 11.5 2.95 11.25 3.45 10.6 3.6 9.7 Q3.6 8.95 3.25 8.4 L2.35 7.35 1.3 6.3 0.4 5.0 Q0.05 4.3 0.0 3.3 0.0 2.4 0.35 1.65 0.65 0.9 1.3 0.45 1.95 0.0 2.9 0.0" fill="#3e0d00" fill-rule="evenodd" stroke="none"/>
  </g>
</svg>
