<?xml version="1.0" encoding="UTF-8" standalone="no"?>
<svg xmlns:ffdec="https://www.free-decompiler.com/flash" xmlns:xlink="http://www.w3.org/1999/xlink" ffdec:objectType="shape" height="12.8px" width="6.15px" xmlns="http://www.w3.org/2000/svg">
  <g transform="matrix(1.0, 0.0, 0.0, 1.0, 0.0, 0.0)">
    <path d="M4.1 3.2 Q3.9 2.4 3.3 1.9 2.75 1.4 1.7 1.45 L1.7 11.35 Q2.75 11.35 3.3 10.95 L4.1 9.85 4.35 8.3 4.35 6.6 4.35 4.95 4.1 3.2 M5.25 1.5 Q5.65 2.2 5.9 3.45 L6.15 6.6 5.95 9.55 5.3 11.35 4.25 12.35 2.85 12.75 1.15 12.8 0.0 12.8 0.0 0.0 1.9 0.0 3.1 0.05 4.25 0.45 Q4.8 0.75 5.25 1.5" fill="#3e0d00" fill-rule="evenodd" stroke="none"/>
  </g>
</svg>
