<?xml version="1.0" encoding="UTF-8" standalone="no"?>
<svg xmlns:ffdec="https://www.free-decompiler.com/flash" xmlns:xlink="http://www.w3.org/1999/xlink" ffdec:objectType="shape" height="13.15px" width="5.3px" xmlns="http://www.w3.org/2000/svg">
  <g transform="matrix(1.0, 0.0, 0.0, 1.0, 0.0, 0.0)">
    <path d="M5.3 0.4 L5.3 1.95 4.8 1.7 4.2 1.6 Q3.5 1.6 3.05 2.0 L2.35 2.95 1.95 4.2 1.85 5.55 1.8 6.65 1.85 8.15 2.15 9.75 Q2.4 10.55 2.9 11.05 3.4 11.55 4.3 11.55 L4.8 11.5 5.3 11.3 5.3 12.8 4.65 13.1 3.95 13.15 Q2.65 13.15 1.85 12.55 1.1 11.95 0.7 11.0 0.3 10.05 0.15 8.9 L0.0 6.8 0.05 5.1 0.35 3.3 Q0.55 2.4 1.0 1.65 1.4 0.9 2.1 0.45 2.8 0.05 3.8 0.0 L4.6 0.1 Q4.95 0.2 5.3 0.4" fill="#3e0d00" fill-rule="evenodd" stroke="none"/>
  </g>
</svg>
