<?xml version="1.0" encoding="UTF-8" standalone="no"?>
<svg xmlns:ffdec="https://www.free-decompiler.com/flash" xmlns:xlink="http://www.w3.org/1999/xlink" ffdec:objectType="shape" height="12.95px" width="11.05px" xmlns="http://www.w3.org/2000/svg">
  <g transform="matrix(1.0, 0.0, 0.0, 1.0, 0.0, 0.0)">
    <path d="M1.7 5.5 L4.3 5.5 4.3 6.95 1.7 6.95 1.7 12.8 0.0 12.8 0.0 0.0 4.6 0.0 4.6 1.45 1.7 1.45 1.7 5.5 M6.05 6.2 L6.8 0.0 10.9 0.0 10.9 1.45 8.1 1.45 7.7 4.7 Q8.85 4.65 9.6 5.1 10.35 5.55 10.7 6.4 11.05 7.2 11.05 8.3 L10.9 10.0 10.3 11.5 9.15 12.55 7.45 12.95 6.45 12.8 5.45 12.45 5.9 10.9 6.65 11.3 7.4 11.45 8.35 11.15 8.95 10.45 9.25 9.5 9.3 8.55 Q9.35 7.45 8.8 6.75 8.3 6.05 7.1 6.05 L6.6 6.1 6.05 6.2" fill="#3e0d00" fill-rule="evenodd" stroke="none"/>
  </g>
</svg>
