<?xml version="1.0" encoding="UTF-8" standalone="no"?>
<svg xmlns:ffdec="https://www.free-decompiler.com/flash" xmlns:xlink="http://www.w3.org/1999/xlink" ffdec:objectType="shape" height="14.25px" width="40.45px" xmlns="http://www.w3.org/2000/svg">
  <g transform="matrix(1.0, 0.0, 0.0, 1.0, 0.0, 0.0)">
    <path d="M0.0 1.3 L1.6 1.3 4.6 11.0 4.65 11.0 4.25 1.3 5.95 1.3 5.95 14.1 4.35 14.1 1.35 4.2 1.35 4.25 1.45 5.1 1.7 14.1 0.0 14.1 0.0 1.3 M11.25 5.5 L12.85 5.5 12.85 11.3 12.65 12.85 11.85 13.9 Q11.3 14.25 10.35 14.25 9.2 14.25 8.65 13.85 8.05 13.45 7.85 12.7 7.7 11.95 7.7 11.0 L7.7 5.5 9.3 5.5 9.3 10.9 9.3 11.75 9.55 12.45 Q9.75 12.75 10.3 12.8 10.8 12.75 11.0 12.5 L11.2 11.8 11.25 11.0 11.25 5.5 M24.65 1.3 L26.35 1.3 26.35 12.6 29.2 12.6 29.2 14.1 24.65 14.1 24.65 1.3 M20.95 5.4 L22.1 5.65 22.7 6.4 22.85 7.45 22.85 14.1 21.25 14.1 21.25 8.1 21.1 7.2 Q20.95 6.8 20.4 6.8 19.85 6.8 19.6 7.1 L19.4 7.8 19.35 8.65 19.35 14.1 17.75 14.1 17.75 8.25 17.75 7.6 17.5 7.05 Q17.3 6.8 16.85 6.8 16.35 6.8 16.15 7.1 15.95 7.4 15.9 7.85 L15.9 8.65 15.9 14.1 14.3 14.1 14.3 5.5 15.9 5.5 15.9 6.55 15.95 6.55 Q16.15 6.0 16.6 5.7 17.0 5.4 17.6 5.4 18.2 5.4 18.6 5.7 19.05 6.0 19.15 6.55 L19.2 6.55 19.9 5.7 Q20.3 5.4 20.95 5.4 M32.95 5.45 L33.55 5.65 33.55 7.3 33.25 7.0 32.8 6.85 Q32.25 6.9 32.0 7.2 31.7 7.5 31.55 7.95 L31.4 8.9 31.4 9.75 31.4 10.55 31.55 11.55 31.95 12.4 Q32.25 12.75 32.75 12.75 L33.2 12.65 33.55 12.4 33.55 13.9 32.95 14.15 32.25 14.25 Q31.45 14.2 30.95 13.8 30.4 13.35 30.15 12.7 29.9 12.05 29.8 11.3 L29.75 9.9 29.8 8.45 Q29.9 7.65 30.15 6.95 30.4 6.25 30.9 5.85 31.4 5.4 32.3 5.4 L32.95 5.45 M38.35 5.5 L40.15 5.5 37.95 9.3 40.45 14.1 38.6 14.1 36.4 9.55 36.35 9.55 36.35 14.1 34.75 14.1 34.75 0.0 36.35 0.0 36.35 9.3 36.4 9.3 38.35 5.5" fill="#3e0d00" fill-rule="evenodd" stroke="none"/>
  </g>
</svg>
