<?xml version="1.0" encoding="UTF-8" standalone="no"?>
<svg xmlns:ffdec="https://www.free-decompiler.com/flash" xmlns:xlink="http://www.w3.org/1999/xlink" ffdec:objectType="shape" height="26.0px" width="26.0px" xmlns="http://www.w3.org/2000/svg">
  <g transform="matrix(1.0, 0.0, 0.0, 1.0, 0.0, 0.0)">
    <path d="M4.0 3.0 Q3.9 3.0 3.8 3.0 3.7 3.05 3.6 3.1 3.5 3.1 3.45 3.15 3.35 3.2 3.3 3.3 3.2 3.35 3.15 3.45 3.1 3.5 3.1 3.6 3.05 3.7 3.0 3.8 3.0 3.9 3.0 4.0 L3.0 22.0 Q3.0 22.1 3.0 22.2 3.05 22.3 3.1 22.4 3.1 22.5 3.15 22.55 3.2 22.65 3.3 22.7 3.35 22.8 3.45 22.85 3.5 22.9 3.6 22.9 3.7 22.95 3.8 23.0 3.9 23.0 4.0 23.0 L22.0 23.0 Q22.1 23.0 22.2 23.0 22.3 22.95 22.4 22.9 22.5 22.9 22.55 22.85 22.65 22.8 22.7 22.7 22.8 22.65 22.85 22.55 22.9 22.5 22.9 22.4 22.95 22.3 23.0 22.2 23.0 22.1 23.0 22.0 L23.0 4.0 Q23.0 3.9 23.0 3.8 22.95 3.7 22.9 3.6 22.9 3.5 22.85 3.45 22.8 3.35 22.7 3.3 22.65 3.2 22.55 3.15 22.5 3.1 22.4 3.1 22.3 3.05 22.2 3.0 22.1 3.0 22.0 3.0 L4.0 3.0 4.0 3.0 M11.6 8.6 L15.55 8.6 15.55 9.5 12.3 9.5 11.75 11.8 Q11.8 11.8 11.85 11.75 11.85 11.75 11.9 11.75 11.95 11.7 12.0 11.7 12.05 11.7 12.05 11.7 12.1 11.65 12.15 11.65 12.2 11.65 12.25 11.6 12.3 11.6 12.35 11.6 12.35 11.6 12.4 11.6 12.45 11.6 12.5 11.55 12.55 11.55 12.6 11.55 12.65 11.55 12.7 11.55 12.7 11.5 12.75 11.5 12.8 11.5 12.85 11.5 12.9 11.5 12.95 11.5 13.0 11.5 13.05 11.5 13.1 11.5 13.15 11.5 13.3 11.5 13.45 11.5 13.65 11.5 13.8 11.55 13.9 11.55 14.05 11.6 14.2 11.65 14.35 11.7 14.45 11.75 14.6 11.8 14.7 11.85 14.8 11.95 14.95 12.0 15.05 12.1 15.15 12.2 15.25 12.3 15.35 12.4 15.45 12.5 15.5 12.6 15.6 12.7 15.65 12.85 15.7 12.95 15.75 13.1 15.8 13.2 15.85 13.35 15.9 13.5 15.95 13.65 15.95 13.8 16.0 13.95 16.0 14.1 16.0 14.25 16.0 14.45 16.0 14.65 16.0 14.8 16.0 15.0 15.95 15.15 15.9 15.35 15.9 15.5 15.85 15.65 15.8 15.8 15.75 15.95 15.65 16.1 15.6 16.25 15.5 16.35 15.4 16.5 15.35 16.6 15.25 16.75 15.1 16.85 15.0 16.95 14.85 17.05 14.75 17.15 14.65 17.25 14.5 17.3 14.35 17.4 14.2 17.45 14.05 17.5 13.9 17.55 13.75 17.6 13.6 17.65 13.45 17.7 13.25 17.7 13.05 17.75 12.9 17.75 12.7 17.75 12.6 17.75 12.45 17.75 12.35 17.75 12.25 17.7 12.15 17.7 12.05 17.7 11.95 17.7 11.85 17.65 11.75 17.65 11.65 17.6 11.55 17.6 11.45 17.55 11.35 17.55 11.3 17.5 11.2 17.45 11.1 17.4 11.0 17.35 10.95 17.3 10.85 17.3 10.8 17.25 10.7 17.2 10.65 17.1 10.55 17.05 10.5 17.0 10.45 16.95 10.35 16.85 10.3 16.8 10.25 16.75 10.15 16.65 10.1 16.6 10.05 16.5 10.0 16.4 L10.75 15.55 Q10.8 15.6 10.85 15.7 10.85 15.75 10.9 15.85 10.95 15.9 11.0 15.95 11.05 16.05 11.1 16.1 11.15 16.15 11.2 16.2 11.25 16.25 11.3 16.3 11.35 16.35 11.45 16.4 11.5 16.45 11.55 16.5 11.6 16.55 11.7 16.55 11.75 16.6 11.8 16.65 11.9 16.65 11.95 16.7 12.05 16.7 12.1 16.75 12.15 16.75 12.25 16.75 12.35 16.8 12.4 16.8 12.5 16.8 12.55 16.8 12.65 16.8 12.75 16.8 12.85 16.8 13.0 16.8 13.1 16.8 13.2 16.75 13.3 16.75 13.4 16.7 13.5 16.7 13.6 16.65 13.7 16.6 13.8 16.55 13.9 16.5 13.95 16.45 14.05 16.4 14.15 16.35 14.2 16.25 14.3 16.2 14.35 16.1 14.45 16.05 14.5 15.95 14.55 15.85 14.6 15.75 14.65 15.65 14.7 15.55 14.75 15.45 14.75 15.35 14.8 15.25 14.8 15.15 14.85 15.0 14.85 14.9 14.85 14.8 14.9 14.65 14.9 14.55 14.9 14.4 14.9 14.3 14.85 14.2 14.85 14.05 14.85 13.95 14.8 13.85 14.75 13.75 14.75 13.65 14.7 13.55 14.65 13.45 14.6 13.35 14.55 13.3 14.5 13.2 14.4 13.1 14.35 13.05 14.25 12.95 14.2 12.9 14.1 12.8 14.0 12.75 13.95 12.7 13.85 12.65 13.75 12.6 13.65 12.55 13.55 12.5 13.45 12.45 13.35 12.45 13.25 12.4 13.1 12.4 13.0 12.4 12.9 12.35 12.75 12.35 12.65 12.35 12.6 12.35 12.5 12.35 12.45 12.35 12.4 12.35 12.3 12.35 12.25 12.4 12.2 12.4 12.1 12.4 12.05 12.4 12.0 12.45 11.9 12.45 11.85 12.45 11.8 12.45 11.75 12.5 11.65 12.5 11.6 12.55 11.55 12.55 11.5 12.6 11.45 12.6 11.35 12.65 11.3 12.65 11.25 12.65 11.2 12.7 11.15 12.75 11.1 12.75 11.05 12.8 11.0 12.8 10.95 12.85 10.9 12.9 10.85 12.95 10.75 12.95 10.7 13.0 L10.5 12.95 11.6 8.6 11.6 8.6" fill="#ffffff" fill-rule="evenodd" stroke="none"/>
  </g>
</svg>
