<?xml version="1.0" encoding="UTF-8" standalone="no"?>
<svg xmlns:ffdec="https://www.free-decompiler.com/flash" xmlns:xlink="http://www.w3.org/1999/xlink" ffdec:objectType="shape" height="26.0px" width="26.0px" xmlns="http://www.w3.org/2000/svg">
  <g transform="matrix(1.0, 0.0, 0.0, 1.0, 0.0, 0.0)">
    <path d="M4.0 3.0 Q3.9 3.0 3.8 3.0 3.7 3.05 3.6 3.1 3.5 3.1 3.45 3.15 3.35 3.2 3.3 3.3 3.2 3.35 3.15 3.45 3.1 3.5 3.1 3.6 3.05 3.7 3.0 3.8 3.0 3.9 3.0 4.0 L3.0 22.0 Q3.0 22.1 3.0 22.2 3.05 22.3 3.1 22.4 3.1 22.5 3.15 22.55 3.2 22.65 3.3 22.7 3.35 22.8 3.45 22.85 3.5 22.9 3.6 22.9 3.7 22.95 3.8 23.0 3.9 23.0 4.0 23.0 L22.0 23.0 Q22.1 23.0 22.2 23.0 22.3 22.95 22.4 22.9 22.5 22.9 22.55 22.85 22.65 22.8 22.7 22.7 22.8 22.65 22.85 22.55 22.9 22.5 22.9 22.4 22.95 22.3 23.0 22.2 23.0 22.1 23.0 22.0 L23.0 4.0 Q23.0 3.9 23.0 3.8 22.95 3.7 22.9 3.6 22.9 3.5 22.85 3.45 22.8 3.35 22.7 3.3 22.65 3.2 22.55 3.15 22.5 3.1 22.4 3.1 22.3 3.05 22.2 3.0 22.1 3.0 22.0 3.0 L4.0 3.0 4.0 3.0 M13.85 8.15 L14.75 8.65 11.85 12.4 Q11.9 12.35 11.95 12.35 12.0 12.35 12.0 12.3 12.05 12.3 12.1 12.25 12.15 12.25 12.2 12.2 12.25 12.2 12.3 12.2 12.3 12.15 12.35 12.15 12.4 12.15 12.45 12.1 12.5 12.1 12.55 12.1 12.6 12.1 12.65 12.05 12.65 12.05 12.7 12.05 12.75 12.05 12.8 12.05 12.85 12.0 12.9 12.0 12.95 12.0 12.95 12.0 13.0 12.0 13.05 12.0 13.1 12.0 13.15 12.0 13.2 12.0 13.25 12.0 13.4 12.0 13.55 12.0 13.7 12.0 13.8 12.05 13.95 12.05 14.1 12.1 14.2 12.15 14.35 12.2 14.45 12.25 14.6 12.3 14.7 12.35 14.8 12.4 14.9 12.5 15.0 12.6 15.1 12.65 15.2 12.75 15.3 12.85 15.4 12.95 15.45 13.05 15.55 13.15 15.6 13.3 15.65 13.4 15.75 13.5 15.75 13.65 15.8 13.75 15.85 13.9 15.9 14.05 15.9 14.2 15.95 14.3 15.95 14.45 15.95 14.6 15.95 14.75 15.95 14.9 15.95 15.1 15.95 15.25 15.9 15.4 15.9 15.55 15.85 15.7 15.8 15.85 15.75 16.0 15.7 16.1 15.65 16.25 15.55 16.4 15.5 16.5 15.4 16.6 15.3 16.7 15.2 16.85 15.1 16.95 15.0 17.05 14.9 17.15 14.75 17.2 14.65 17.3 14.5 17.35 14.4 17.45 14.25 17.5 14.1 17.55 13.95 17.6 13.8 17.65 13.65 17.65 13.5 17.7 13.3 17.7 13.15 17.75 12.95 17.75 12.8 17.75 12.65 17.75 12.5 17.75 12.35 17.7 12.2 17.7 12.05 17.65 11.95 17.65 11.8 17.6 11.65 17.55 11.55 17.5 11.45 17.4 11.3 17.35 11.2 17.3 11.1 17.2 11.0 17.1 10.9 17.05 10.8 16.95 10.7 16.85 10.6 16.75 10.55 16.6 10.45 16.5 10.4 16.4 10.35 16.25 10.25 16.15 10.25 16.0 10.2 15.85 10.15 15.7 10.1 15.55 10.1 15.4 10.05 15.25 10.05 15.1 10.05 14.95 10.05 14.8 10.05 14.65 10.05 14.45 10.1 14.3 10.15 14.1 10.2 13.9 10.3 13.7 10.35 13.45 10.45 13.25 10.55 13.0 10.7 12.75 10.85 12.5 11.0 12.25 11.15 12.0 11.35 11.7 11.5 11.4 11.75 11.15 L11.8 11.05 13.85 8.15 13.85 8.15 M12.95 12.9 Q12.85 12.9 12.75 12.9 12.65 12.9 12.55 12.9 12.45 12.95 12.4 12.95 12.3 13.0 12.2 13.0 12.15 13.05 12.05 13.1 12.0 13.15 11.9 13.2 11.85 13.25 11.75 13.3 11.7 13.35 11.65 13.45 11.6 13.5 11.55 13.6 11.45 13.65 11.45 13.75 11.4 13.8 11.35 13.9 11.3 14.0 11.25 14.1 11.25 14.15 11.2 14.25 11.2 14.35 11.15 14.45 11.15 14.55 11.15 14.65 11.15 14.75 11.15 14.9 11.15 15.0 11.15 15.1 11.15 15.2 11.2 15.3 11.2 15.4 11.2 15.5 11.25 15.6 11.25 15.7 11.3 15.8 11.35 15.85 11.4 15.95 11.45 16.05 11.5 16.1 11.55 16.2 11.6 16.25 11.65 16.3 11.7 16.35 11.8 16.45 11.85 16.5 11.9 16.55 12.0 16.6 12.1 16.65 12.15 16.7 12.25 16.7 12.3 16.75 12.4 16.75 12.5 16.8 12.6 16.8 12.7 16.85 12.8 16.85 12.9 16.85 13.0 16.85 13.1 16.85 13.2 16.85 13.3 16.85 13.4 16.8 13.5 16.8 13.6 16.75 13.65 16.75 13.75 16.7 13.85 16.7 13.9 16.65 14.0 16.6 14.05 16.55 14.15 16.5 14.2 16.45 14.3 16.35 14.35 16.3 14.4 16.25 14.45 16.15 14.5 16.1 14.55 16.0 14.6 15.95 14.65 15.85 14.7 15.75 14.75 15.65 14.75 15.6 14.8 15.5 14.8 15.4 14.85 15.3 14.85 15.2 14.85 15.1 14.85 15.0 14.85 14.85 14.85 14.75 14.85 14.65 14.85 14.55 14.8 14.4 14.8 14.3 14.8 14.25 14.75 14.15 14.75 14.05 14.7 13.95 14.65 13.85 14.6 13.8 14.55 13.7 14.5 13.6 14.45 13.55 14.4 13.5 14.35 13.4 14.3 13.35 14.2 13.3 14.15 13.2 14.05 13.15 14.0 13.1 13.9 13.1 13.85 13.05 13.75 13.0 13.65 13.0 13.55 12.95 13.45 12.95 13.35 12.9 13.25 12.9 13.15 12.9 13.05 12.9 12.95 12.9 L12.95 12.9" fill="#ffffff" fill-rule="evenodd" stroke="none"/>
  </g>
</svg>
