<?xml version="1.0" encoding="UTF-8" standalone="no"?>
<svg xmlns:ffdec="https://www.free-decompiler.com/flash" xmlns:xlink="http://www.w3.org/1999/xlink" ffdec:objectType="shape" height="26.0px" width="26.0px" xmlns="http://www.w3.org/2000/svg">
  <g transform="matrix(1.0, 0.0, 0.0, 1.0, 0.0, 0.0)">
    <path d="M4.0 3.0 Q3.9 3.0 3.8 3.0 3.7 3.05 3.6 3.1 3.5 3.1 3.45 3.15 3.35 3.2 3.3 3.3 3.2 3.35 3.15 3.45 3.1 3.5 3.1 3.6 3.05 3.7 3.0 3.8 3.0 3.9 3.0 4.0 L3.0 22.0 Q3.0 22.1 3.0 22.2 3.05 22.3 3.1 22.4 3.1 22.5 3.15 22.55 3.2 22.65 3.3 22.7 3.35 22.8 3.45 22.85 3.5 22.9 3.6 22.9 3.7 22.95 3.8 23.0 3.9 23.0 4.0 23.0 L22.0 23.0 Q22.1 23.0 22.2 23.0 22.3 22.95 22.4 22.9 22.5 22.9 22.55 22.85 22.65 22.8 22.7 22.7 22.8 22.65 22.85 22.55 22.9 22.5 22.9 22.4 22.95 22.3 23.0 22.2 23.0 22.1 23.0 22.0 L23.0 4.0 Q23.0 3.9 23.0 3.8 22.95 3.7 22.9 3.6 22.9 3.5 22.85 3.45 22.8 3.35 22.7 3.3 22.65 3.2 22.55 3.15 22.5 3.1 22.4 3.1 22.3 3.05 22.2 3.0 22.1 3.0 22.0 3.0 L4.0 3.0 4.0 3.0 M13.2 8.4 Q13.35 8.4 13.5 8.4 13.65 8.45 13.8 8.45 13.95 8.5 14.05 8.5 14.2 8.55 14.3 8.6 14.45 8.65 14.55 8.75 14.7 8.8 14.8 8.85 14.9 8.95 15.0 9.05 15.1 9.1 15.2 9.2 15.3 9.3 15.4 9.4 15.45 9.55 15.55 9.65 15.6 9.75 15.65 9.9 15.7 10.05 15.75 10.15 15.8 10.3 15.85 10.45 15.9 10.6 15.9 10.75 15.95 10.9 15.95 11.05 15.95 11.2 15.95 11.35 15.95 11.5 15.95 11.7 15.9 11.85 15.85 12.05 15.8 12.25 15.7 12.45 15.65 12.7 15.55 12.9 15.45 13.15 15.3 13.4 15.15 13.65 15.0 13.9 14.85 14.15 14.65 14.45 14.5 14.75 14.25 15.05 L14.2 15.1 12.15 18.0 11.25 17.5 14.15 13.7 Q14.1 13.75 14.05 13.75 14.0 13.8 14.0 13.8 13.95 13.85 13.9 13.85 13.85 13.9 13.8 13.9 13.75 13.95 13.75 13.95 13.7 13.95 13.65 14.0 13.6 14.0 13.55 14.0 13.5 14.05 13.45 14.05 13.4 14.05 13.35 14.05 13.35 14.1 13.3 14.1 13.25 14.1 13.2 14.1 13.15 14.1 13.1 14.1 13.1 14.15 13.05 14.15 13.0 14.15 12.95 14.15 12.9 14.15 12.85 14.15 12.8 14.15 12.75 14.15 12.6 14.15 12.45 14.15 12.3 14.15 12.2 14.1 12.05 14.1 11.9 14.05 11.8 14.0 11.65 13.95 11.55 13.9 11.4 13.85 11.3 13.8 11.2 13.7 11.1 13.65 11.0 13.55 10.9 13.5 10.8 13.4 10.7 13.3 10.6 13.2 10.55 13.1 10.45 12.95 10.4 12.85 10.35 12.75 10.3 12.6 10.25 12.5 10.2 12.35 10.15 12.25 10.1 12.1 10.1 11.95 10.05 11.8 10.05 11.65 10.05 11.55 10.05 11.35 10.05 11.2 10.05 11.0 10.05 10.85 10.1 10.7 10.1 10.55 10.15 10.4 10.2 10.3 10.25 10.15 10.3 10.0 10.35 9.9 10.45 9.75 10.5 9.65 10.6 9.5 10.7 9.4 10.8 9.3 10.9 9.2 11.0 9.1 11.1 9.0 11.25 8.95 11.35 8.85 11.5 8.8 11.6 8.7 11.75 8.65 11.9 8.6 12.05 8.55 12.2 8.5 12.35 8.5 12.5 8.45 12.65 8.45 12.85 8.4 13.0 8.4 13.2 8.4 L13.2 8.4 M13.0 9.3 Q12.9 9.3 12.8 9.3 12.7 9.3 12.6 9.35 12.5 9.35 12.4 9.35 12.35 9.4 12.25 9.45 12.15 9.45 12.1 9.5 12.0 9.55 11.95 9.6 11.85 9.65 11.8 9.7 11.7 9.75 11.65 9.85 11.6 9.9 11.55 10.0 11.5 10.05 11.45 10.15 11.4 10.2 11.35 10.3 11.3 10.4 11.3 10.45 11.25 10.55 11.2 10.65 11.2 10.75 11.2 10.85 11.15 10.95 11.15 11.05 11.15 11.15 11.15 11.25 11.15 11.35 11.15 11.5 11.15 11.6 11.2 11.7 11.2 11.8 11.2 11.9 11.25 12.0 11.3 12.1 11.3 12.2 11.35 12.25 11.4 12.35 11.45 12.45 11.5 12.5 11.55 12.6 11.6 12.65 11.65 12.75 11.7 12.8 11.8 12.85 11.85 12.9 11.95 12.95 12.0 13.0 12.1 13.05 12.15 13.1 12.25 13.15 12.35 13.15 12.45 13.2 12.55 13.2 12.65 13.25 12.75 13.25 12.85 13.25 12.95 13.25 13.05 13.25 13.15 13.25 13.25 13.25 13.35 13.25 13.45 13.2 13.5 13.2 13.6 13.2 13.7 13.15 13.8 13.1 13.85 13.1 13.95 13.05 14.0 13.0 14.1 12.95 14.15 12.9 14.25 12.85 14.3 12.75 14.35 12.7 14.4 12.65 14.45 12.55 14.55 12.5 14.6 12.4 14.6 12.35 14.65 12.25 14.7 12.15 14.75 12.05 14.75 12.0 14.8 11.9 14.8 11.8 14.85 11.7 14.85 11.6 14.85 11.5 14.85 11.4 14.85 11.25 14.85 11.15 14.85 11.05 14.85 10.95 14.85 10.85 14.8 10.75 14.8 10.65 14.75 10.55 14.75 10.45 14.7 10.35 14.65 10.3 14.65 10.2 14.6 10.1 14.55 10.05 14.5 9.95 14.4 9.9 14.35 9.85 14.3 9.8 14.2 9.7 14.15 9.65 14.1 9.6 14.0 9.55 13.95 9.5 13.85 9.45 13.75 9.45 13.7 9.4 13.6 9.35 13.5 9.35 13.4 9.35 13.3 9.3 13.2 9.3 13.1 9.3 13.0 9.3 L13.0 9.3" fill="#ffffff" fill-rule="evenodd" stroke="none"/>
  </g>
</svg>
