<?xml version="1.0" encoding="UTF-8" standalone="no"?>
<svg xmlns:ffdec="https://www.free-decompiler.com/flash" xmlns:xlink="http://www.w3.org/1999/xlink" ffdec:objectType="shape" height="26.0px" width="26.0px" xmlns="http://www.w3.org/2000/svg">
  <g transform="matrix(1.0, 0.0, 0.0, 1.0, 0.0, 0.0)">
    <path d="M4.0 3.0 Q3.9 3.0 3.8 3.0 3.7 3.05 3.6 3.1 3.5 3.1 3.45 3.15 3.35 3.2 3.3 3.3 3.2 3.35 3.15 3.45 3.1 3.5 3.1 3.6 3.05 3.7 3.0 3.8 3.0 3.9 3.0 4.0 L3.0 22.0 Q3.0 22.1 3.0 22.2 3.05 22.3 3.1 22.4 3.1 22.5 3.15 22.55 3.2 22.65 3.3 22.7 3.35 22.8 3.45 22.85 3.5 22.9 3.6 22.9 3.7 22.95 3.8 23.0 3.9 23.0 4.0 23.0 L22.0 23.0 Q22.1 23.0 22.2 23.0 22.3 22.95 22.4 22.9 22.5 22.9 22.55 22.85 22.65 22.8 22.7 22.7 22.8 22.65 22.85 22.55 22.9 22.5 22.9 22.4 22.95 22.3 23.0 22.2 23.0 22.1 23.0 22.0 L23.0 4.0 Q23.0 3.9 23.0 3.8 22.95 3.7 22.9 3.6 22.9 3.5 22.85 3.45 22.8 3.35 22.7 3.3 22.65 3.2 22.55 3.15 22.5 3.1 22.4 3.1 22.3 3.05 22.2 3.0 22.1 3.0 22.0 3.0 L4.0 3.0 4.0 3.0 M10.1 8.5 L12.2 8.5 Q12.3 8.5 12.4 8.5 12.5 8.5 12.6 8.5 12.7 8.5 12.8 8.5 12.9 8.5 13.0 8.55 13.05 8.55 13.15 8.55 13.2 8.55 13.3 8.55 13.35 8.55 13.4 8.6 13.45 8.6 13.5 8.6 13.55 8.6 13.6 8.65 13.65 8.65 13.7 8.65 13.75 8.7 13.8 8.7 13.85 8.7 13.9 8.75 13.95 8.75 14.0 8.8 14.05 8.8 14.1 8.85 14.15 8.85 14.2 8.9 14.2 8.9 14.25 8.95 14.3 9.0 14.35 9.05 14.4 9.05 14.45 9.1 14.5 9.15 14.55 9.2 14.55 9.25 14.6 9.3 14.65 9.35 14.7 9.4 14.75 9.5 14.75 9.55 14.8 9.6 14.8 9.65 14.85 9.7 14.9 9.8 14.9 9.85 14.95 9.95 14.95 10.0 15.0 10.05 15.0 10.15 15.0 10.2 15.05 10.25 15.05 10.35 15.05 10.4 15.05 10.5 15.1 10.55 15.1 10.65 15.1 10.7 15.1 10.8 15.1 10.85 15.1 10.95 15.1 11.1 15.1 11.2 15.1 11.35 15.05 11.45 15.05 11.6 15.0 11.7 15.0 11.8 14.95 11.95 14.9 12.05 14.85 12.15 14.8 12.25 14.75 12.3 14.7 12.4 14.65 12.5 14.55 12.55 14.5 12.65 14.4 12.7 14.35 12.8 14.25 12.85 14.15 12.9 14.05 12.95 13.95 13.0 13.85 13.05 13.7 13.05 13.6 13.1 13.5 13.15 13.35 13.15 13.25 13.15 13.1 13.2 12.95 13.2 12.8 13.2 12.65 13.2 L12.5 13.2 15.9 17.5 14.55 17.5 11.3 13.2 11.15 13.2 11.15 17.5 10.1 17.5 10.1 8.5 10.1 8.5 M11.15 9.4 L11.15 12.4 11.95 12.4 Q12.1 12.4 12.25 12.4 12.4 12.4 12.5 12.4 12.65 12.4 12.75 12.35 12.9 12.35 13.0 12.35 13.1 12.3 13.2 12.3 13.3 12.25 13.35 12.25 13.45 12.2 13.5 12.15 13.55 12.15 13.6 12.1 13.65 12.05 13.7 12.0 13.75 11.95 13.8 11.9 13.85 11.85 13.85 11.8 13.9 11.7 13.95 11.65 13.95 11.6 14.0 11.5 14.0 11.4 14.0 11.35 14.05 11.25 14.05 11.15 14.05 11.05 14.05 10.95 14.05 10.85 14.05 10.75 14.05 10.65 14.0 10.55 14.0 10.45 14.0 10.4 13.95 10.3 13.95 10.25 13.9 10.15 13.9 10.1 13.85 10.0 13.8 9.95 13.75 9.9 13.7 9.85 13.65 9.8 13.6 9.75 13.55 9.7 13.5 9.65 13.4 9.65 13.35 9.6 13.25 9.55 13.15 9.55 13.1 9.5 12.95 9.5 12.85 9.45 12.75 9.45 12.65 9.45 12.5 9.45 12.4 9.4 12.25 9.4 12.1 9.4 11.95 9.4 L11.15 9.4 11.15 9.4" fill="#ffffff" fill-rule="evenodd" stroke="none"/>
  </g>
</svg>
