<?xml version="1.0" encoding="UTF-8" standalone="no"?>
<svg xmlns:ffdec="https://www.free-decompiler.com/flash" xmlns:xlink="http://www.w3.org/1999/xlink" ffdec:objectType="shape" height="26.0px" width="26.0px" xmlns="http://www.w3.org/2000/svg">
  <g transform="matrix(1.0, 0.0, 0.0, 1.0, 0.0, 0.0)">
    <path d="M4.0 3.0 Q3.9 3.0 3.8 3.0 3.7 3.05 3.6 3.1 3.5 3.1 3.45 3.15 3.35 3.2 3.3 3.3 3.2 3.35 3.15 3.45 3.1 3.5 3.1 3.6 3.05 3.7 3.0 3.8 3.0 3.9 3.0 4.0 L3.0 22.0 Q3.0 22.1 3.0 22.2 3.05 22.3 3.1 22.4 3.1 22.5 3.15 22.55 3.2 22.65 3.3 22.7 3.35 22.8 3.45 22.85 3.5 22.9 3.6 22.9 3.7 22.95 3.8 23.0 3.9 23.0 4.0 23.0 L22.0 23.0 Q22.1 23.0 22.2 23.0 22.3 22.95 22.4 22.9 22.5 22.9 22.55 22.85 22.65 22.8 22.7 22.7 22.8 22.65 22.85 22.55 22.9 22.5 22.9 22.4 22.95 22.3 23.0 22.2 23.0 22.1 23.0 22.0 L23.0 4.0 Q23.0 3.9 23.0 3.8 22.95 3.7 22.9 3.6 22.9 3.5 22.85 3.45 22.8 3.35 22.7 3.3 22.65 3.2 22.55 3.15 22.5 3.1 22.4 3.1 22.3 3.05 22.2 3.0 22.1 3.0 22.0 3.0 L4.0 3.0 4.0 3.0 M10.45 8.5 L12.35 8.5 Q12.45 8.5 12.6 8.5 12.7 8.5 12.8 8.5 12.9 8.5 13.0 8.5 13.1 8.5 13.2 8.55 13.3 8.55 13.4 8.55 13.45 8.55 13.55 8.55 13.6 8.55 13.7 8.6 13.75 8.6 13.8 8.6 13.85 8.6 13.9 8.65 14.0 8.65 14.05 8.65 14.1 8.7 14.15 8.7 14.2 8.7 14.25 8.75 14.3 8.75 14.35 8.8 14.4 8.8 14.45 8.85 14.5 8.85 14.55 8.9 14.6 8.9 14.6 8.95 14.65 9.0 14.7 9.05 14.75 9.05 14.8 9.1 14.85 9.15 14.9 9.2 14.95 9.25 15.0 9.3 15.05 9.35 15.1 9.4 15.1 9.5 15.15 9.55 15.2 9.6 15.25 9.65 15.25 9.7 15.3 9.8 15.35 9.85 15.35 9.95 15.4 10.0 15.4 10.05 15.4 10.15 15.45 10.2 15.45 10.3 15.45 10.35 15.5 10.45 15.5 10.5 15.5 10.6 15.5 10.65 15.55 10.75 15.55 10.8 15.55 10.9 15.55 11.0 15.55 11.1 15.55 11.15 15.55 11.25 15.55 11.3 15.5 11.4 15.5 11.45 15.5 11.55 15.5 11.6 15.45 11.7 15.45 11.75 15.4 11.8 15.4 11.9 15.35 11.95 15.35 12.05 15.3 12.1 15.3 12.15 15.25 12.2 15.25 12.3 15.2 12.35 15.15 12.4 15.1 12.45 15.1 12.55 15.05 12.6 15.0 12.65 14.95 12.7 14.9 12.75 14.85 12.8 14.8 12.85 14.75 12.9 14.7 12.95 14.65 12.95 14.6 13.0 14.55 13.05 14.5 13.05 14.5 13.1 14.45 13.1 14.4 13.15 14.35 13.15 14.3 13.2 14.25 13.2 14.2 13.25 14.15 13.25 14.1 13.3 14.05 13.3 14.0 13.3 13.9 13.35 13.85 13.35 13.8 13.35 13.75 13.35 13.7 13.4 13.6 13.4 13.55 13.4 13.45 13.4 13.4 13.4 13.3 13.45 13.2 13.45 13.1 13.45 13.0 13.45 12.9 13.45 12.8 13.45 12.7 13.45 12.6 13.45 12.5 13.45 12.35 13.45 L12.05 13.45 11.5 13.45 11.5 17.5 10.45 17.5 10.45 8.5 10.45 8.5 M11.5 9.5 L11.5 12.5 12.05 12.5 Q12.2 12.5 12.4 12.5 12.55 12.5 12.7 12.45 12.85 12.45 12.95 12.45 13.1 12.45 13.2 12.4 13.3 12.4 13.4 12.35 13.5 12.35 13.6 12.3 13.7 12.3 13.75 12.25 13.85 12.2 13.9 12.15 13.95 12.1 14.0 12.05 14.05 12.0 14.1 11.95 14.15 11.9 14.2 11.85 14.25 11.8 14.25 11.7 14.3 11.65 14.3 11.55 14.35 11.5 14.35 11.4 14.35 11.35 14.35 11.25 14.4 11.15 14.4 11.05 14.4 10.95 14.4 10.85 14.4 10.75 14.35 10.65 14.35 10.55 14.3 10.45 14.3 10.4 14.25 10.3 14.25 10.25 14.2 10.15 14.15 10.1 14.1 10.05 14.05 10.0 14.0 9.9 13.95 9.85 13.9 9.85 13.85 9.8 13.75 9.75 13.7 9.7 13.6 9.7 13.5 9.65 13.4 9.6 13.3 9.6 13.2 9.55 13.05 9.55 12.95 9.55 12.8 9.5 12.65 9.5 12.55 9.5 12.4 9.5 12.2 9.5 12.05 9.5 L11.5 9.5 11.5 9.5" fill="#ffffff" fill-rule="evenodd" stroke="none"/>
  </g>
</svg>
