<?xml version="1.0" encoding="UTF-8" standalone="no"?>
<svg xmlns:ffdec="https://www.free-decompiler.com/flash" xmlns:xlink="http://www.w3.org/1999/xlink" ffdec:objectType="shape" height="26.0px" width="26.0px" xmlns="http://www.w3.org/2000/svg">
  <g transform="matrix(1.0, 0.0, 0.0, 1.0, 0.0, 0.0)">
    <path d="M4.0 3.0 Q3.9 3.0 3.8 3.0 3.7 3.05 3.6 3.1 3.5 3.1 3.45 3.15 3.35 3.2 3.3 3.3 3.2 3.35 3.15 3.45 3.1 3.5 3.1 3.6 3.05 3.7 3.0 3.8 3.0 3.9 3.0 4.0 L3.0 22.0 Q3.0 22.1 3.0 22.2 3.05 22.3 3.1 22.4 3.1 22.5 3.15 22.55 3.2 22.65 3.3 22.7 3.35 22.8 3.45 22.85 3.5 22.9 3.6 22.9 3.7 22.95 3.8 23.0 3.9 23.0 4.0 23.0 L22.0 23.0 Q22.1 23.0 22.2 23.0 22.3 22.95 22.4 22.9 22.5 22.9 22.55 22.85 22.65 22.8 22.7 22.7 22.8 22.65 22.85 22.55 22.9 22.5 22.9 22.4 22.95 22.3 23.0 22.2 23.0 22.1 23.0 22.0 L23.0 4.0 Q23.0 3.9 23.0 3.8 22.95 3.7 22.9 3.6 22.9 3.5 22.85 3.45 22.8 3.35 22.7 3.3 22.65 3.2 22.55 3.15 22.5 3.1 22.4 3.1 22.3 3.05 22.2 3.0 22.1 3.0 22.0 3.0 L4.0 3.0 4.0 3.0 M9.3 8.5 L11.05 8.5 Q11.3 8.5 11.5 8.5 11.75 8.5 11.95 8.5 12.15 8.5 12.3 8.55 12.5 8.55 12.65 8.55 12.85 8.55 13.0 8.6 13.15 8.6 13.3 8.6 13.4 8.65 13.55 8.65 13.65 8.65 13.75 8.7 13.85 8.7 13.95 8.75 14.05 8.8 14.1 8.8 14.2 8.85 14.3 8.9 14.4 8.9 14.5 8.95 14.55 9.0 14.65 9.05 14.75 9.1 14.8 9.15 14.9 9.2 14.95 9.25 15.05 9.3 15.1 9.35 15.2 9.4 15.3 9.5 15.4 9.6 15.45 9.65 15.55 9.75 15.65 9.85 15.7 9.95 15.8 10.0 15.85 10.1 15.95 10.2 16.0 10.3 16.05 10.4 16.15 10.55 16.2 10.65 16.25 10.75 16.3 10.85 16.35 10.95 16.4 11.1 16.45 11.2 16.45 11.35 16.5 11.45 16.55 11.6 16.55 11.75 16.6 11.85 16.6 12.0 16.65 12.15 16.65 12.3 16.65 12.4 16.7 12.55 16.7 12.7 16.7 12.85 16.7 13.0 16.7 13.15 16.7 13.3 16.7 13.45 16.65 13.6 16.65 13.75 16.65 13.85 16.6 14.0 16.6 14.15 16.55 14.25 16.55 14.4 16.5 14.55 16.45 14.65 16.45 14.8 16.4 14.9 16.35 15.0 16.3 15.15 16.25 15.25 16.2 15.35 16.15 15.5 16.05 15.6 16.0 15.7 15.95 15.8 15.85 15.9 15.8 16.0 15.75 16.1 15.65 16.15 15.55 16.25 15.5 16.35 15.4 16.4 15.3 16.5 15.2 16.6 15.1 16.65 15.05 16.7 14.95 16.75 14.9 16.8 14.8 16.85 14.75 16.9 14.65 16.95 14.55 17.0 14.5 17.05 14.4 17.1 14.3 17.1 14.2 17.15 14.15 17.2 14.05 17.25 13.95 17.25 13.85 17.3 13.75 17.3 13.65 17.35 13.55 17.35 13.45 17.35 13.35 17.4 13.2 17.4 13.1 17.4 12.95 17.45 12.8 17.45 12.65 17.45 12.5 17.45 12.35 17.5 12.15 17.5 12.0 17.5 11.8 17.5 11.65 17.5 11.45 17.5 L11.05 17.5 9.3 17.5 9.3 8.5 9.3 8.5 M10.4 9.5 L10.4 16.5 11.1 16.5 Q12.75 16.5 13.35 16.35 13.45 16.35 13.5 16.3 13.6 16.3 13.65 16.25 13.75 16.25 13.8 16.2 13.9 16.2 13.95 16.15 14.05 16.1 14.1 16.1 14.15 16.05 14.2 16.0 14.25 16.0 14.35 15.95 14.4 15.9 14.45 15.85 14.5 15.8 14.6 15.75 14.65 15.65 14.7 15.6 14.75 15.55 14.8 15.45 14.9 15.4 14.95 15.3 15.0 15.25 15.05 15.15 15.1 15.1 15.1 15.0 15.15 14.95 15.2 14.85 15.25 14.75 15.3 14.65 15.35 14.55 15.35 14.45 15.4 14.4 15.4 14.3 15.45 14.2 15.45 14.1 15.5 14.0 15.5 13.9 15.5 13.8 15.55 13.65 15.55 13.55 15.55 13.45 15.55 13.35 15.55 13.25 15.55 13.1 15.55 13.0 15.55 12.9 15.55 12.75 15.55 12.65 15.55 12.55 15.55 12.45 15.5 12.3 15.5 12.2 15.5 12.1 15.5 12.0 15.45 11.9 15.45 11.8 15.4 11.7 15.4 11.6 15.35 11.5 15.3 11.4 15.3 11.35 15.25 11.25 15.2 11.15 15.2 11.1 15.15 11.0 15.1 10.9 15.05 10.85 15.0 10.75 14.95 10.7 14.9 10.6 14.8 10.55 14.75 10.45 14.7 10.4 14.65 10.35 14.6 10.25 14.5 10.2 14.45 10.15 14.4 10.1 14.35 10.05 14.3 10.0 14.2 10.0 14.15 9.95 14.1 9.9 14.05 9.9 13.95 9.85 13.9 9.8 13.8 9.8 13.75 9.75 13.65 9.75 13.6 9.7 13.5 9.7 13.45 9.65 13.35 9.65 13.25 9.65 13.15 9.6 13.1 9.6 12.95 9.6 12.85 9.55 12.75 9.55 12.6 9.55 12.45 9.55 12.3 9.5 12.15 9.5 12.0 9.5 11.85 9.5 11.65 9.5 11.45 9.5 11.3 9.5 11.1 9.5 L10.4 9.5 10.4 9.5" fill="#ffffff" fill-rule="evenodd" stroke="none"/>
  </g>
</svg>
