<?xml version="1.0" encoding="UTF-8" standalone="no"?>
<svg xmlns:ffdec="https://www.free-decompiler.com/flash" xmlns:xlink="http://www.w3.org/1999/xlink" ffdec:objectType="shape" height="26.0px" width="26.0px" xmlns="http://www.w3.org/2000/svg">
  <g transform="matrix(1.0, 0.0, 0.0, 1.0, 0.0, 0.0)">
    <path d="M4.0 3.0 Q3.9 3.0 3.8 3.0 3.7 3.05 3.6 3.1 3.5 3.1 3.45 3.15 3.35 3.2 3.3 3.3 3.2 3.35 3.15 3.45 3.1 3.5 3.1 3.6 3.05 3.7 3.0 3.8 3.0 3.9 3.0 4.0 L3.0 22.0 Q3.0 22.1 3.0 22.2 3.05 22.3 3.1 22.4 3.1 22.5 3.15 22.55 3.2 22.65 3.3 22.7 3.35 22.8 3.45 22.85 3.5 22.9 3.6 22.9 3.7 22.95 3.8 23.0 3.9 23.0 4.0 23.0 L22.0 23.0 Q22.1 23.0 22.2 23.0 22.3 22.95 22.4 22.9 22.5 22.9 22.55 22.85 22.65 22.8 22.7 22.7 22.8 22.65 22.85 22.55 22.9 22.5 22.9 22.4 22.95 22.3 23.0 22.2 23.0 22.1 23.0 22.0 L23.0 4.0 Q23.0 3.9 23.0 3.8 22.95 3.7 22.9 3.6 22.9 3.5 22.85 3.45 22.8 3.35 22.7 3.3 22.65 3.2 22.55 3.15 22.5 3.1 22.4 3.1 22.3 3.05 22.2 3.0 22.1 3.0 22.0 3.0 L4.0 3.0 4.0 3.0 M13.45 12.0 Q13.5 12.0 13.55 12.0 13.55 12.0 13.6 12.05 13.65 12.05 13.7 12.05 13.7 12.05 13.75 12.05 13.8 12.1 13.8 12.1 13.85 12.1 13.9 12.15 13.9 12.15 13.95 12.2 13.95 12.2 14.0 12.25 14.0 12.25 14.05 12.3 14.05 12.35 14.1 12.35 14.1 12.4 14.1 12.4 14.15 12.45 14.15 12.5 14.15 12.5 14.15 12.55 14.2 12.55 14.2 12.6 14.2 12.65 14.2 12.7 14.2 12.7 14.2 12.75 14.2 12.8 14.2 12.85 14.2 12.85 14.2 12.9 14.2 12.95 14.15 12.95 14.15 13.0 14.15 13.05 14.15 13.05 14.1 13.1 14.1 13.15 14.1 13.15 14.05 13.2 14.05 13.2 14.0 13.25 14.0 13.3 13.95 13.3 13.95 13.35 13.9 13.35 13.9 13.4 13.85 13.4 13.8 13.4 13.8 13.45 13.75 13.45 13.75 13.45 13.7 13.45 13.65 13.45 13.6 13.45 13.6 13.5 13.55 13.5 13.5 13.5 13.45 13.5 13.4 13.5 13.4 13.5 13.35 13.5 13.3 13.5 13.3 13.45 13.25 13.45 13.2 13.45 13.2 13.45 13.15 13.4 13.1 13.4 13.1 13.4 13.05 13.35 13.05 13.35 13.0 13.35 13.0 13.3 12.95 13.3 12.9 13.25 12.9 13.25 12.9 13.2 12.85 13.15 12.85 13.15 12.85 13.1 12.8 13.1 12.8 13.05 12.8 13.0 12.75 12.95 12.75 12.95 12.75 12.9 12.75 12.85 12.75 12.85 12.75 12.8 12.75 12.75 12.75 12.7 12.75 12.7 12.75 12.65 12.75 12.6 12.75 12.55 12.75 12.55 12.8 12.5 12.8 12.45 12.8 12.45 12.85 12.4 12.85 12.4 12.85 12.35 12.9 12.3 12.9 12.3 12.95 12.25 12.95 12.25 13.0 12.2 13.0 12.2 13.05 12.15 13.05 12.15 13.1 12.15 13.15 12.1 13.15 12.1 13.2 12.1 13.2 12.05 13.25 12.05 13.3 12.05 13.35 12.05 13.35 12.05 13.4 12.05 13.45 12.0 13.45 12.0 L13.45 12.0 M12.95 15.95 L14.0 16.3 12.5 19.55 11.8 19.3 12.95 15.95 12.95 15.95" fill="#ffffff" fill-rule="evenodd" stroke="none"/>
  </g>
</svg>
