<?xml version="1.0" encoding="UTF-8" standalone="no"?>
<svg xmlns:ffdec="https://www.free-decompiler.com/flash" xmlns:xlink="http://www.w3.org/1999/xlink" ffdec:objectType="shape" height="26.0px" width="26.0px" xmlns="http://www.w3.org/2000/svg">
  <g transform="matrix(1.0, 0.0, 0.0, 1.0, 0.0, 0.0)">
    <path d="M4.0 3.0 Q3.9 3.0 3.8 3.0 3.7 3.05 3.6 3.1 3.5 3.1 3.45 3.15 3.35 3.2 3.3 3.3 3.2 3.35 3.15 3.45 3.1 3.5 3.1 3.6 3.05 3.7 3.0 3.8 3.0 3.9 3.0 4.0 L3.0 22.0 Q3.0 22.1 3.0 22.2 3.05 22.3 3.1 22.4 3.1 22.5 3.15 22.55 3.2 22.65 3.3 22.7 3.35 22.8 3.45 22.85 3.5 22.9 3.6 22.9 3.7 22.95 3.8 23.0 3.9 23.0 4.0 23.0 L22.0 23.0 Q22.1 23.0 22.2 23.0 22.3 22.95 22.4 22.9 22.5 22.9 22.55 22.85 22.65 22.8 22.7 22.7 22.8 22.65 22.85 22.55 22.9 22.5 22.9 22.4 22.95 22.3 23.0 22.2 23.0 22.1 23.0 22.0 L23.0 4.0 Q23.0 3.9 23.0 3.8 22.95 3.7 22.9 3.6 22.9 3.5 22.85 3.45 22.8 3.35 22.7 3.3 22.65 3.2 22.55 3.15 22.5 3.1 22.4 3.1 22.3 3.05 22.2 3.0 22.1 3.0 22.0 3.0 L4.0 3.0 4.0 3.0 M13.9 8.3 Q14.0 8.3 14.1 8.3 14.2 8.3 14.3 8.3 14.4 8.3 14.5 8.3 14.55 8.35 14.65 8.35 14.75 8.35 14.85 8.4 14.95 8.4 15.05 8.4 15.15 8.45 15.25 8.45 15.3 8.5 15.4 8.55 15.5 8.55 15.6 8.6 15.7 8.65 15.75 8.65 15.85 8.7 15.95 8.75 16.05 8.8 16.15 8.85 16.25 8.85 16.3 8.9 16.4 8.95 16.5 9.0 16.6 9.1 16.7 9.15 16.75 9.2 16.85 9.25 L16.85 10.65 Q16.75 10.55 16.7 10.5 16.6 10.4 16.55 10.3 16.45 10.25 16.35 10.2 16.3 10.1 16.2 10.05 16.1 10.0 16.0 9.9 15.95 9.85 15.85 9.8 15.75 9.75 15.65 9.7 15.55 9.65 15.5 9.6 15.4 9.55 15.3 9.55 15.2 9.5 15.1 9.45 15.0 9.45 14.9 9.4 14.8 9.4 14.7 9.35 14.6 9.35 14.5 9.35 14.4 9.3 14.3 9.3 14.2 9.3 14.1 9.3 13.95 9.3 13.85 9.3 13.75 9.3 13.7 9.3 13.6 9.3 13.5 9.3 13.4 9.3 13.35 9.35 13.25 9.35 13.15 9.35 13.05 9.35 13.0 9.4 12.9 9.4 12.8 9.45 12.75 9.45 12.65 9.5 12.55 9.55 12.45 9.55 12.35 9.6 12.3 9.65 12.2 9.7 12.15 9.7 12.05 9.75 12.0 9.8 11.9 9.85 11.85 9.9 11.75 9.95 11.7 10.0 11.6 10.05 11.55 10.15 11.5 10.2 11.4 10.25 11.35 10.3 11.3 10.4 11.25 10.45 11.15 10.55 11.1 10.6 11.05 10.65 11.0 10.75 10.95 10.8 10.9 10.85 10.85 10.95 10.8 11.0 10.75 11.1 10.7 11.15 10.65 11.25 10.6 11.35 10.6 11.4 10.55 11.5 10.5 11.55 10.45 11.65 10.45 11.7 10.4 11.8 10.4 11.9 10.4 12.0 10.35 12.1 10.35 12.15 10.3 12.25 10.3 12.35 10.3 12.45 10.3 12.55 10.3 12.65 10.25 12.75 10.25 12.85 10.25 12.95 10.25 13.05 10.25 13.15 10.25 13.2 10.25 13.25 10.25 13.35 10.25 13.4 10.3 13.5 10.3 13.55 10.3 13.65 10.3 13.7 10.3 13.8 10.35 13.85 10.35 13.9 10.35 14.0 10.4 14.05 10.4 14.1 10.4 14.2 10.4 14.25 10.45 14.35 10.45 14.4 10.5 14.45 10.5 14.5 10.55 14.55 10.6 14.65 10.6 14.7 10.65 14.75 10.65 14.8 10.7 14.85 10.75 14.95 10.75 15.0 10.8 15.05 10.85 15.1 10.9 15.15 10.95 15.25 11.05 15.35 11.1 15.45 11.15 15.5 11.25 15.6 11.3 15.7 11.4 15.75 11.5 15.85 11.55 15.9 11.65 16.0 11.75 16.05 11.85 16.1 11.9 16.2 12.0 16.25 12.1 16.3 12.2 16.35 12.3 16.4 12.4 16.45 12.5 16.5 12.6 16.55 12.7 16.55 12.8 16.6 12.9 16.65 13.05 16.65 13.15 16.7 13.25 16.7 13.35 16.7 13.45 16.75 13.55 16.75 13.7 16.75 13.8 16.75 13.9 16.75 14.0 16.75 14.1 16.75 14.2 16.75 14.35 16.75 14.45 16.7 14.55 16.7 14.65 16.7 14.75 16.65 14.85 16.65 14.95 16.6 15.05 16.6 15.15 16.55 15.25 16.5 15.35 16.5 15.4 16.45 15.5 16.4 15.6 16.35 15.7 16.3 15.8 16.25 15.85 16.2 15.95 16.15 16.05 16.1 16.15 16.0 16.2 15.95 16.3 15.9 16.4 15.8 16.45 15.75 16.55 15.65 16.65 15.6 16.7 15.5 16.8 15.4 16.85 15.35 L16.85 16.75 Q16.75 16.8 16.7 16.85 16.6 16.95 16.5 17.0 16.45 17.05 16.35 17.1 16.25 17.15 16.15 17.2 16.05 17.25 16.0 17.25 15.9 17.3 15.8 17.35 15.7 17.4 15.6 17.45 15.5 17.45 15.4 17.5 15.3 17.55 15.2 17.55 15.1 17.6 15.0 17.6 14.9 17.65 14.85 17.65 14.75 17.65 14.65 17.7 14.55 17.7 14.45 17.7 14.35 17.7 14.25 17.7 14.15 17.75 14.05 17.75 13.9 17.75 13.8 17.75 13.7 17.75 13.65 17.75 13.55 17.75 13.45 17.75 13.35 17.7 13.3 17.7 13.2 17.7 13.1 17.7 13.05 17.65 12.95 17.65 12.85 17.65 12.75 17.6 12.7 17.6 12.6 17.6 12.5 17.55 12.45 17.55 12.35 17.5 12.3 17.5 12.2 17.45 12.1 17.4 12.0 17.4 11.95 17.35 11.85 17.3 11.8 17.25 11.7 17.25 11.6 17.2 11.55 17.15 11.45 17.1 11.4 17.05 11.3 17.0 11.25 16.95 11.15 16.9 11.05 16.8 10.9 16.75 10.8 16.65 10.7 16.55 10.6 16.45 10.5 16.35 10.4 16.25 10.3 16.15 10.2 16.05 10.1 15.95 10.05 15.85 9.95 15.7 9.85 15.6 9.8 15.5 9.7 15.35 9.65 15.25 9.6 15.1 9.55 15.0 9.5 14.85 9.45 14.75 9.4 14.6 9.35 14.45 9.3 14.35 9.25 14.2 9.25 14.05 9.2 13.9 9.2 13.75 9.15 13.65 9.15 13.5 9.15 13.35 9.15 13.2 9.15 13.05 9.15 12.9 9.15 12.8 9.15 12.65 9.15 12.55 9.2 12.4 9.2 12.3 9.2 12.15 9.25 12.05 9.25 11.95 9.3 11.8 9.3 11.7 9.35 11.6 9.35 11.5 9.4 11.35 9.45 11.25 9.5 11.15 9.55 11.05 9.6 10.95 9.65 10.85 9.7 10.75 9.75 10.65 9.8 10.55 9.85 10.45 9.95 10.35 10.0 10.25 10.05 10.15 10.15 10.05 10.2 9.95 10.3 9.85 10.4 9.8 10.45 9.7 10.55 9.6 10.65 9.5 10.7 9.45 10.8 9.35 10.9 9.3 11.0 9.2 11.1 9.15 11.2 9.1 11.3 9.05 11.35 8.95 11.45 8.9 11.55 8.85 11.65 8.8 11.75 8.75 11.85 8.7 11.95 8.65 12.05 8.6 12.15 8.55 12.25 8.55 12.4 8.5 12.5 8.45 12.6 8.45 12.7 8.4 12.85 8.4 12.95 8.35 13.05 8.35 13.2 8.35 13.3 8.3 13.4 8.3 13.55 8.3 13.65 8.3 13.8 8.3 13.9 8.3 L13.9 8.3" fill="#ffffff" fill-rule="evenodd" stroke="none"/>
  </g>
</svg>
