<?xml version="1.0" encoding="UTF-8" standalone="no"?>
<svg xmlns:ffdec="https://www.free-decompiler.com/flash" xmlns:xlink="http://www.w3.org/1999/xlink" ffdec:objectType="shape" height="26.0px" width="26.0px" xmlns="http://www.w3.org/2000/svg">
  <g transform="matrix(1.0, 0.0, 0.0, 1.0, 0.0, 0.0)">
    <path d="M4.0 3.0 Q3.9 3.0 3.8 3.0 3.7 3.05 3.6 3.1 3.5 3.1 3.45 3.15 3.35 3.2 3.3 3.3 3.2 3.35 3.15 3.45 3.1 3.5 3.1 3.6 3.05 3.7 3.0 3.8 3.0 3.9 3.0 4.0 L3.0 22.0 Q3.0 22.1 3.0 22.2 3.05 22.3 3.1 22.4 3.1 22.5 3.15 22.55 3.2 22.65 3.3 22.7 3.35 22.8 3.45 22.85 3.5 22.9 3.6 22.9 3.7 22.95 3.8 23.0 3.9 23.0 4.0 23.0 L22.0 23.0 Q22.1 23.0 22.2 23.0 22.3 22.95 22.4 22.9 22.5 22.9 22.55 22.85 22.65 22.8 22.7 22.7 22.8 22.65 22.85 22.55 22.9 22.5 22.9 22.4 22.95 22.3 23.0 22.2 23.0 22.1 23.0 22.0 L23.0 4.0 Q23.0 3.9 23.0 3.8 22.95 3.7 22.9 3.6 22.9 3.5 22.85 3.45 22.8 3.35 22.7 3.3 22.65 3.2 22.55 3.15 22.5 3.1 22.4 3.1 22.3 3.05 22.2 3.0 22.1 3.0 22.0 3.0 L4.0 3.0 4.0 3.0 M16.05 8.4 Q16.2 8.4 16.35 8.4 16.5 8.4 16.65 8.45 16.8 8.45 16.9 8.5 17.05 8.55 17.2 8.55 17.3 8.6 17.4 8.65 17.55 8.7 17.65 8.75 17.75 8.85 17.85 8.9 17.95 8.95 18.05 9.05 18.15 9.15 18.2 9.2 18.3 9.3 18.35 9.4 18.4 9.5 18.5 9.6 18.55 9.7 18.6 9.8 18.6 9.9 18.65 10.05 18.7 10.15 18.7 10.3 18.75 10.4 18.75 10.55 18.75 10.65 18.75 10.8 18.75 10.9 18.75 11.0 18.75 11.1 18.75 11.2 18.7 11.3 18.7 11.35 18.7 11.45 18.65 11.55 18.6 11.6 18.6 11.7 18.55 11.8 18.5 11.85 18.5 11.95 18.45 12.0 18.4 12.1 18.35 12.15 18.3 12.2 18.25 12.3 18.15 12.35 18.1 12.4 18.05 12.45 18.0 12.5 17.9 12.55 17.85 12.6 17.75 12.65 17.7 12.7 17.6 12.75 17.5 12.8 17.45 12.8 17.35 12.85 17.25 12.9 17.15 12.9 17.25 12.9 17.35 12.95 17.45 12.95 17.55 13.0 17.65 13.05 17.7 13.05 17.8 13.1 17.9 13.15 17.95 13.2 18.05 13.25 18.1 13.3 18.15 13.35 18.25 13.4 18.3 13.5 18.35 13.55 18.4 13.65 18.45 13.7 18.5 13.8 18.55 13.85 18.6 13.95 18.65 14.05 18.7 14.1 18.75 14.2 18.75 14.3 18.8 14.4 18.8 14.5 18.85 14.6 18.85 14.7 18.85 14.8 18.85 14.9 18.85 15.0 18.85 15.1 18.85 15.25 18.85 15.4 18.85 15.55 18.8 15.7 18.8 15.85 18.75 15.95 18.7 16.1 18.65 16.2 18.6 16.35 18.55 16.45 18.5 16.55 18.4 16.65 18.35 16.75 18.25 16.85 18.15 16.95 18.05 17.05 17.95 17.15 17.85 17.2 17.75 17.3 17.6 17.35 17.5 17.4 17.4 17.45 17.25 17.5 17.1 17.55 16.95 17.6 16.85 17.65 16.7 17.7 16.5 17.7 16.35 17.7 16.2 17.75 16.05 17.75 15.85 17.75 15.7 17.75 15.55 17.75 15.4 17.75 15.25 17.7 15.1 17.7 15.0 17.65 14.85 17.6 14.75 17.6 14.6 17.55 14.5 17.5 14.35 17.45 14.25 17.4 14.15 17.3 14.05 17.25 13.95 17.2 13.85 17.1 13.75 17.0 13.7 16.95 13.6 16.85 13.55 16.75 13.45 16.65 13.4 16.55 13.35 16.45 13.3 16.35 13.25 16.25 13.2 16.15 13.2 16.0 13.15 15.9 13.15 15.75 13.15 15.65 13.1 15.5 13.1 15.4 L13.1 15.2 14.2 15.2 14.2 15.3 Q14.2 15.4 14.2 15.5 14.2 15.55 14.25 15.65 14.25 15.7 14.25 15.8 14.3 15.85 14.3 15.95 14.35 16.0 14.4 16.05 14.4 16.15 14.45 16.2 14.5 16.25 14.55 16.3 14.6 16.35 14.65 16.4 14.7 16.45 14.75 16.5 14.85 16.55 14.9 16.6 14.95 16.6 15.05 16.65 15.1 16.7 15.2 16.7 15.25 16.75 15.35 16.75 15.45 16.8 15.5 16.8 15.6 16.8 15.7 16.8 15.8 16.8 15.9 16.8 16.0 16.8 16.1 16.8 16.2 16.8 16.3 16.8 16.4 16.75 16.5 16.75 16.6 16.75 16.7 16.7 16.75 16.7 16.85 16.65 16.9 16.6 17.0 16.55 17.05 16.5 17.15 16.45 17.2 16.45 17.25 16.35 17.3 16.3 17.35 16.25 17.4 16.2 17.45 16.1 17.5 16.05 17.55 15.95 17.6 15.9 17.65 15.8 17.65 15.75 17.7 15.65 17.7 15.55 17.7 15.5 17.75 15.4 17.75 15.3 17.75 15.2 17.75 15.1 17.75 15.0 17.75 14.9 17.75 14.8 17.7 14.7 17.7 14.6 17.7 14.5 17.65 14.4 17.6 14.3 17.6 14.25 17.55 14.15 17.5 14.1 17.45 14.0 17.4 13.95 17.35 13.9 17.3 13.8 17.25 13.75 17.2 13.7 17.1 13.65 17.05 13.6 16.95 13.55 16.9 13.5 16.8 13.5 16.75 13.45 16.65 13.45 16.55 13.4 16.45 13.4 16.35 13.35 16.25 13.35 16.15 13.35 16.0 13.35 15.9 13.3 15.8 13.3 15.75 13.3 15.6 13.35 15.55 13.35 15.55 13.35 15.5 13.35 15.45 13.35 L15.45 12.45 Q15.45 12.45 15.55 12.45 15.6 12.45 15.6 12.45 15.65 12.45 15.7 12.45 15.75 12.45 15.75 12.45 15.85 12.45 16.0 12.45 16.1 12.45 16.2 12.45 16.3 12.4 16.4 12.4 16.5 12.4 16.6 12.35 16.65 12.35 16.75 12.3 16.85 12.25 16.9 12.25 16.95 12.2 17.05 12.15 17.1 12.1 17.15 12.05 17.2 12.0 17.25 11.95 17.3 11.9 17.35 11.85 17.4 11.75 17.45 11.7 17.5 11.65 17.5 11.55 17.55 11.5 17.55 11.4 17.6 11.3 17.6 11.25 17.6 11.15 17.65 11.05 17.65 10.95 17.65 10.85 17.65 10.75 17.65 10.7 17.65 10.6 17.6 10.5 17.6 10.45 17.6 10.35 17.55 10.3 17.55 10.2 17.5 10.15 17.45 10.1 17.45 10.0 17.4 9.95 17.35 9.9 17.3 9.85 17.25 9.8 17.2 9.75 17.15 9.7 17.1 9.65 17.05 9.6 16.95 9.55 16.9 9.5 16.85 9.5 16.75 9.45 16.7 9.4 16.65 9.4 16.55 9.4 16.45 9.35 16.4 9.35 16.3 9.35 16.2 9.3 16.15 9.3 16.05 9.3 15.95 9.3 15.85 9.3 15.75 9.3 15.65 9.35 15.6 9.35 15.5 9.35 15.4 9.4 15.35 9.4 15.25 9.45 15.2 9.45 15.1 9.5 15.05 9.55 15.0 9.55 14.95 9.6 14.85 9.65 14.8 9.7 14.75 9.75 14.7 9.8 14.65 9.85 14.6 9.9 14.55 9.95 14.55 10.05 14.5 10.1 14.45 10.15 14.45 10.25 14.4 10.3 14.4 10.4 14.4 10.45 14.35 10.55 14.35 10.65 14.35 10.75 14.35 10.8 L13.3 10.8 Q13.3 10.65 13.3 10.5 13.35 10.4 13.35 10.25 13.4 10.15 13.4 10.0 13.45 9.9 13.5 9.8 13.55 9.65 13.6 9.55 13.65 9.45 13.75 9.35 13.8 9.3 13.9 9.2 13.95 9.1 14.05 9.05 14.15 8.95 14.25 8.9 14.35 8.85 14.45 8.75 14.55 8.7 14.65 8.65 14.8 8.6 14.9 8.55 15.05 8.55 15.2 8.5 15.3 8.45 15.45 8.45 15.6 8.45 15.75 8.4 15.9 8.4 16.05 8.4 L16.05 8.4 M7.15 8.5 L11.85 8.5 11.85 9.5 8.2 9.5 8.2 12.05 11.85 12.05 11.85 13.05 8.2 13.05 8.2 17.5 7.15 17.5 7.15 8.5 7.15 8.5" fill="#ffffff" fill-rule="evenodd" stroke="none"/>
  </g>
</svg>
