<?xml version="1.0" encoding="UTF-8" standalone="no"?>
<svg xmlns:ffdec="https://www.free-decompiler.com/flash" xmlns:xlink="http://www.w3.org/1999/xlink" ffdec:objectType="shape" height="26.0px" width="26.0px" xmlns="http://www.w3.org/2000/svg">
  <g transform="matrix(1.0, 0.0, 0.0, 1.0, 0.0, 0.0)">
    <path d="M4.0 3.0 Q3.9 3.0 3.8 3.0 3.7 3.05 3.6 3.1 3.5 3.1 3.45 3.15 3.35 3.2 3.3 3.3 3.2 3.35 3.15 3.45 3.1 3.5 3.1 3.6 3.05 3.7 3.0 3.8 3.0 3.9 3.0 4.0 L3.0 22.0 Q3.0 22.1 3.0 22.2 3.05 22.3 3.1 22.4 3.1 22.5 3.15 22.55 3.2 22.65 3.3 22.7 3.35 22.8 3.45 22.85 3.5 22.9 3.6 22.9 3.7 22.95 3.8 23.0 3.9 23.0 4.0 23.0 L22.0 23.0 Q22.1 23.0 22.2 23.0 22.3 22.95 22.4 22.9 22.5 22.9 22.55 22.85 22.65 22.8 22.7 22.7 22.8 22.65 22.85 22.55 22.9 22.5 22.9 22.4 22.95 22.3 23.0 22.2 23.0 22.1 23.0 22.0 L23.0 4.0 Q23.0 3.9 23.0 3.8 22.95 3.7 22.9 3.6 22.9 3.5 22.85 3.45 22.8 3.35 22.7 3.3 22.65 3.2 22.55 3.15 22.5 3.1 22.4 3.1 22.3 3.05 22.2 3.0 22.1 3.0 22.0 3.0 L4.0 3.0 4.0 3.0 M16.0 8.4 Q16.15 8.4 16.3 8.4 16.45 8.4 16.6 8.45 16.7 8.45 16.85 8.5 17.0 8.55 17.1 8.55 17.25 8.6 17.35 8.65 17.45 8.7 17.55 8.75 17.65 8.85 17.75 8.9 17.85 8.95 17.95 9.05 18.05 9.15 18.15 9.2 18.2 9.3 18.3 9.4 18.35 9.5 18.4 9.6 18.45 9.7 18.5 9.8 18.55 9.9 18.6 10.0 18.6 10.15 18.65 10.25 18.65 10.35 18.7 10.5 18.7 10.6 18.7 10.75 18.7 10.85 18.7 10.95 18.7 11.0 18.65 11.1 18.65 11.2 18.65 11.25 18.6 11.35 18.6 11.45 18.55 11.5 18.55 11.6 18.5 11.65 18.45 11.75 18.45 11.8 18.4 11.85 18.35 11.95 18.3 12.0 18.25 12.05 18.2 12.15 18.15 12.2 18.1 12.25 18.0 12.3 17.95 12.35 17.9 12.4 17.8 12.45 17.75 12.5 17.65 12.55 17.6 12.6 17.5 12.6 17.45 12.65 17.35 12.7 17.25 12.7 17.15 12.75 17.25 12.8 17.35 12.8 17.5 12.85 17.6 12.9 17.7 12.95 17.75 13.0 17.85 13.05 17.95 13.1 18.05 13.15 18.1 13.2 18.2 13.25 18.25 13.35 18.35 13.4 18.4 13.45 18.5 13.55 18.55 13.6 18.6 13.7 18.65 13.75 18.7 13.85 18.75 13.95 18.8 14.0 18.85 14.1 18.9 14.2 18.9 14.3 18.95 14.4 18.95 14.5 19.0 14.6 19.0 14.7 19.0 14.8 19.0 14.9 19.05 15.0 19.05 15.1 19.05 15.25 19.05 15.4 19.0 15.55 19.0 15.7 18.95 15.85 18.9 15.95 18.9 16.1 18.85 16.2 18.75 16.35 18.7 16.45 18.65 16.55 18.55 16.65 18.5 16.75 18.4 16.85 18.3 16.95 18.2 17.05 18.1 17.15 18.0 17.2 17.9 17.3 17.75 17.35 17.65 17.4 17.55 17.45 17.4 17.5 17.25 17.55 17.1 17.6 17.0 17.65 16.85 17.65 16.65 17.7 16.5 17.7 16.35 17.75 16.2 17.75 16.0 17.75 15.8 17.75 15.65 17.75 15.5 17.7 15.35 17.7 15.2 17.7 15.05 17.65 14.9 17.6 14.75 17.55 14.6 17.5 14.5 17.45 14.35 17.4 14.25 17.35 14.1 17.3 14.0 17.2 13.9 17.15 13.8 17.05 13.7 16.95 13.6 16.85 13.5 16.75 13.45 16.65 13.35 16.55 13.3 16.45 13.25 16.35 13.15 16.2 13.1 16.1 13.1 15.95 13.05 15.85 13.0 15.7 13.0 15.55 13.0 15.4 12.95 15.3 12.95 15.15 12.95 15.05 12.95 14.9 12.95 14.8 13.0 14.7 13.0 14.6 13.05 14.5 13.05 14.4 13.1 14.3 13.1 14.2 13.15 14.1 13.2 14.05 13.25 13.95 13.3 13.85 13.35 13.75 13.4 13.7 13.45 13.6 13.5 13.5 13.6 13.45 13.65 13.4 13.7 13.3 13.8 13.25 13.85 13.2 13.95 13.15 14.05 13.1 14.1 13.0 14.2 13.0 14.3 12.95 14.4 12.9 14.5 12.85 14.6 12.8 14.7 12.75 14.8 12.75 14.7 12.7 14.6 12.7 14.55 12.65 14.45 12.6 14.35 12.55 14.3 12.55 14.2 12.5 14.15 12.45 14.1 12.4 14.0 12.35 13.95 12.3 13.9 12.25 13.85 12.15 13.8 12.1 13.7 12.05 13.7 12.0 13.65 11.95 13.6 11.85 13.55 11.8 13.5 11.7 13.5 11.65 13.45 11.55 13.4 11.5 13.4 11.4 13.35 11.3 13.35 11.25 13.35 11.15 13.3 11.05 13.3 10.95 13.3 10.85 13.3 10.75 13.3 10.65 13.3 10.55 13.3 10.4 13.3 10.3 13.35 10.2 13.35 10.05 13.4 9.95 13.45 9.85 13.5 9.75 13.55 9.65 13.6 9.55 13.65 9.45 13.7 9.4 13.8 9.3 13.85 9.2 13.95 9.1 14.05 9.05 14.15 8.95 14.25 8.9 14.35 8.85 14.45 8.75 14.55 8.7 14.65 8.65 14.8 8.6 14.9 8.55 15.05 8.55 15.15 8.5 15.3 8.45 15.45 8.45 15.55 8.45 15.7 8.4 15.85 8.4 16.0 8.4 L16.0 8.4 M6.95 8.5 L11.7 8.5 11.7 9.5 8.05 9.5 8.05 12.05 11.7 12.05 11.7 13.05 8.05 13.05 8.05 17.5 6.95 17.5 6.95 8.5 6.95 8.5 M16.0 9.2 Q15.9 9.2 15.8 9.2 15.75 9.2 15.65 9.25 15.55 9.25 15.5 9.3 15.4 9.3 15.35 9.3 15.25 9.35 15.2 9.4 15.15 9.4 15.05 9.45 15.0 9.5 14.95 9.55 14.9 9.6 14.85 9.65 14.8 9.7 14.75 9.75 14.7 9.8 14.65 9.85 14.6 9.9 14.55 10.0 14.55 10.05 14.5 10.1 14.5 10.15 14.45 10.25 14.45 10.3 14.45 10.4 14.4 10.45 14.4 10.55 14.4 10.65 14.4 10.7 14.4 10.8 14.4 10.9 14.4 10.95 14.45 11.05 14.45 11.1 14.45 11.2 14.5 11.25 14.5 11.35 14.55 11.4 14.55 11.45 14.6 11.55 14.65 11.6 14.7 11.65 14.7 11.7 14.75 11.75 14.8 11.8 14.85 11.85 14.9 11.9 15.0 11.95 15.05 11.95 15.1 12.0 15.15 12.05 15.25 12.05 15.3 12.1 15.4 12.1 15.45 12.15 15.55 12.15 15.65 12.15 15.7 12.2 15.8 12.2 15.9 12.2 15.95 12.2 16.05 12.2 16.15 12.2 16.25 12.2 16.3 12.15 16.4 12.15 16.5 12.15 16.55 12.1 16.65 12.1 16.75 12.05 16.8 12.05 16.85 12.0 16.95 11.95 17.0 11.95 17.05 11.9 17.1 11.85 17.15 11.8 17.2 11.75 17.25 11.7 17.3 11.65 17.35 11.6 17.4 11.55 17.4 11.45 17.45 11.4 17.5 11.35 17.5 11.25 17.55 11.2 17.55 11.15 17.55 11.05 17.55 11.0 17.6 10.9 17.6 10.8 17.6 10.7 17.6 10.6 17.6 10.55 17.6 10.45 17.55 10.4 17.55 10.3 17.55 10.25 17.5 10.15 17.5 10.1 17.45 10.05 17.4 9.95 17.4 9.9 17.35 9.85 17.3 9.8 17.25 9.75 17.2 9.7 17.15 9.65 17.1 9.6 17.05 9.55 17.0 9.5 16.95 9.45 16.85 9.4 16.8 9.4 16.75 9.35 16.65 9.35 16.6 9.3 16.5 9.3 16.45 9.25 16.35 9.25 16.25 9.25 16.2 9.25 16.1 9.2 16.0 9.2 L16.0 9.2 M16.0 13.2 Q15.9 13.2 15.8 13.2 15.7 13.2 15.6 13.25 15.5 13.25 15.4 13.3 15.3 13.3 15.2 13.35 15.1 13.35 15.05 13.4 14.95 13.45 14.9 13.5 14.8 13.55 14.75 13.6 14.65 13.65 14.6 13.7 14.55 13.75 14.5 13.85 14.45 13.9 14.4 13.95 14.35 14.05 14.3 14.15 14.25 14.2 14.25 14.3 14.2 14.35 14.15 14.45 14.15 14.55 14.15 14.65 14.1 14.75 14.1 14.85 14.1 14.95 14.1 15.05 14.1 15.15 14.1 15.25 14.1 15.35 14.15 15.45 14.15 15.55 14.15 15.65 14.2 15.75 14.2 15.8 14.25 15.9 14.3 16.0 14.35 16.05 14.4 16.15 14.45 16.2 14.5 16.25 14.55 16.35 14.6 16.4 14.65 16.45 14.75 16.5 14.8 16.55 14.85 16.6 14.95 16.65 15.05 16.7 15.1 16.7 15.2 16.75 15.3 16.8 15.35 16.8 15.45 16.85 15.55 16.85 15.65 16.85 15.75 16.85 15.9 16.85 16.0 16.85 16.1 16.85 16.2 16.85 16.3 16.85 16.4 16.85 16.5 16.8 16.6 16.8 16.7 16.8 16.8 16.75 16.85 16.7 16.95 16.7 17.05 16.65 17.1 16.6 17.2 16.55 17.25 16.5 17.3 16.45 17.4 16.4 17.45 16.35 17.5 16.25 17.55 16.2 17.6 16.15 17.65 16.05 17.7 16.0 17.7 15.9 17.75 15.8 17.8 15.75 17.8 15.65 17.85 15.55 17.85 15.45 17.85 15.35 17.85 15.25 17.85 15.15 17.85 15.05 17.85 14.95 17.85 14.85 17.85 14.75 17.85 14.65 17.8 14.55 17.8 14.45 17.8 14.35 17.75 14.3 17.7 14.2 17.7 14.1 17.65 14.05 17.6 13.95 17.55 13.9 17.5 13.85 17.45 13.75 17.35 13.7 17.3 13.65 17.25 13.6 17.15 13.55 17.1 13.5 17.0 13.45 16.95 13.4 16.85 13.35 16.75 13.35 16.7 13.3 16.6 13.3 16.5 13.25 16.4 13.25 16.3 13.2 16.2 13.2 16.1 13.2 16.0 13.2 L16.0 13.2" fill="#ffffff" fill-rule="evenodd" stroke="none"/>
  </g>
</svg>
