<?xml version="1.0" encoding="UTF-8" standalone="no"?>
<svg xmlns:ffdec="https://www.free-decompiler.com/flash" xmlns:xlink="http://www.w3.org/1999/xlink" ffdec:objectType="shape" height="26.0px" width="35.75px" xmlns="http://www.w3.org/2000/svg">
  <g transform="matrix(1.0, 0.0, 0.0, 1.0, 0.0, 0.0)">
    <path d="M4.0 3.0 Q3.9 3.0 3.8 3.0 3.7 3.05 3.6 3.1 3.5 3.1 3.45 3.15 3.35 3.2 3.3 3.3 3.2 3.35 3.15 3.45 3.1 3.5 3.1 3.6 3.05 3.7 3.0 3.8 3.0 3.9 3.0 4.0 L3.0 22.0 Q3.0 22.1 3.0 22.2 3.05 22.3 3.1 22.4 3.1 22.5 3.15 22.55 3.2 22.65 3.3 22.7 3.35 22.8 3.45 22.85 3.5 22.9 3.6 22.9 3.7 22.95 3.8 23.0 3.9 23.0 4.0 23.0 L31.75 23.0 Q31.85 23.0 31.95 23.0 32.05 22.95 32.15 22.9 32.25 22.9 32.3 22.85 32.4 22.8 32.45 22.7 32.55 22.65 32.6 22.55 32.65 22.5 32.65 22.4 32.7 22.3 32.75 22.2 32.75 22.1 32.75 22.0 L32.75 4.0 Q32.75 3.9 32.75 3.8 32.7 3.7 32.65 3.6 32.65 3.5 32.6 3.45 32.55 3.35 32.45 3.3 32.4 3.2 32.3 3.15 32.25 3.1 32.15 3.1 32.05 3.05 31.95 3.0 31.85 3.0 31.75 3.0 L4.0 3.0 4.0 3.0 M7.05 8.15 L13.6 15.35 13.6 8.5 14.65 8.5 14.65 17.85 8.05 10.75 8.05 17.5 7.05 17.5 7.05 8.15 7.05 8.15 M25.95 8.4 Q26.1 8.4 26.25 8.4 26.4 8.45 26.55 8.45 26.7 8.5 26.8 8.5 26.95 8.55 27.1 8.6 27.2 8.65 27.3 8.75 27.45 8.8 27.55 8.85 27.65 8.95 27.75 9.05 27.85 9.1 27.95 9.2 28.05 9.3 28.15 9.4 28.2 9.55 28.3 9.65 28.35 9.75 28.4 9.9 28.5 10.05 28.55 10.15 28.6 10.3 28.6 10.45 28.65 10.6 28.65 10.75 28.7 10.9 28.7 11.05 28.7 11.2 28.7 11.35 28.7 11.5 28.7 11.7 28.65 11.85 28.6 12.05 28.55 12.25 28.5 12.45 28.4 12.7 28.3 12.9 28.2 13.15 28.05 13.4 27.95 13.65 27.75 13.9 27.6 14.15 27.45 14.45 27.25 14.75 27.05 15.05 L27.0 15.1 24.95 18.0 24.0 17.5 26.9 13.7 Q26.85 13.75 26.8 13.75 26.8 13.8 26.75 13.8 26.7 13.85 26.65 13.85 26.6 13.9 26.55 13.9 26.55 13.95 26.5 13.95 26.45 13.95 26.4 14.0 26.35 14.0 26.3 14.0 26.3 14.05 26.25 14.05 26.2 14.05 26.15 14.05 26.1 14.1 26.05 14.1 26.05 14.1 26.0 14.1 25.95 14.1 25.9 14.1 25.85 14.15 25.8 14.15 25.75 14.15 25.7 14.15 25.65 14.15 25.6 14.15 25.55 14.15 25.5 14.15 25.35 14.15 25.2 14.15 25.05 14.15 24.95 14.1 24.8 14.1 24.65 14.05 24.55 14.0 24.4 13.95 24.3 13.9 24.2 13.85 24.05 13.8 23.95 13.7 23.85 13.65 23.75 13.55 23.65 13.5 23.55 13.4 23.45 13.3 23.4 13.2 23.3 13.1 23.2 12.95 23.15 12.85 23.1 12.75 23.05 12.6 23.0 12.5 22.95 12.35 22.9 12.25 22.85 12.1 22.85 11.95 22.85 11.8 22.8 11.65 22.8 11.55 22.8 11.35 22.8 11.2 22.8 11.0 22.85 10.85 22.85 10.7 22.9 10.55 22.9 10.4 22.95 10.3 23.0 10.15 23.05 10.0 23.15 9.9 23.2 9.75 23.3 9.65 23.35 9.5 23.45 9.4 23.55 9.3 23.65 9.2 23.75 9.1 23.85 9.0 24.0 8.95 24.1 8.85 24.25 8.8 24.4 8.7 24.5 8.65 24.65 8.6 24.8 8.55 24.95 8.5 25.1 8.5 25.25 8.45 25.45 8.45 25.6 8.4 25.8 8.4 25.95 8.4 L25.95 8.4 M16.8 8.5 L18.65 8.5 Q18.8 8.5 18.9 8.5 19.0 8.5 19.15 8.5 19.25 8.5 19.35 8.5 19.45 8.5 19.55 8.55 19.6 8.55 19.7 8.55 19.8 8.55 19.85 8.55 19.95 8.55 20.0 8.6 20.05 8.6 20.15 8.6 20.2 8.6 20.25 8.65 20.3 8.65 20.35 8.65 20.4 8.7 20.45 8.7 20.5 8.7 20.55 8.75 20.6 8.75 20.65 8.8 20.7 8.8 20.75 8.85 20.8 8.85 20.85 8.9 20.9 8.9 20.95 8.95 21.0 9.0 21.05 9.05 21.1 9.05 21.15 9.1 21.2 9.15 21.25 9.2 21.3 9.25 21.35 9.3 21.35 9.35 21.4 9.4 21.45 9.5 21.5 9.55 21.5 9.6 21.55 9.65 21.6 9.7 21.6 9.8 21.65 9.85 21.65 9.95 21.7 10.0 21.7 10.05 21.75 10.15 21.75 10.2 21.8 10.3 21.8 10.35 21.8 10.45 21.8 10.5 21.85 10.6 21.85 10.65 21.85 10.75 21.85 10.8 21.85 10.9 21.85 11.0 21.85 11.1 21.85 11.15 21.85 11.25 21.85 11.3 21.85 11.4 21.8 11.45 21.8 11.55 21.8 11.6 21.8 11.7 21.75 11.75 21.75 11.8 21.7 11.9 21.7 11.95 21.65 12.05 21.65 12.1 21.6 12.15 21.55 12.2 21.55 12.3 21.5 12.35 21.5 12.4 21.45 12.45 21.4 12.55 21.35 12.6 21.3 12.65 21.3 12.7 21.25 12.75 21.2 12.8 21.15 12.85 21.1 12.9 21.05 12.95 21.0 12.95 20.95 13.0 20.9 13.05 20.85 13.05 20.8 13.1 20.75 13.1 20.7 13.15 20.65 13.15 20.6 13.2 20.55 13.2 20.5 13.25 20.45 13.25 20.4 13.3 20.35 13.3 20.3 13.3 20.25 13.35 20.2 13.35 20.15 13.35 20.1 13.35 20.0 13.4 19.95 13.4 19.85 13.4 19.8 13.4 19.7 13.4 19.65 13.45 19.55 13.45 19.45 13.45 19.35 13.45 19.25 13.45 19.15 13.45 19.05 13.45 18.9 13.45 18.8 13.45 18.65 13.45 L18.35 13.45 17.85 13.45 17.85 17.5 16.8 17.5 16.8 8.5 16.8 8.5 M25.75 9.3 Q25.65 9.3 25.55 9.3 25.45 9.3 25.35 9.35 25.25 9.35 25.2 9.35 25.1 9.4 25.0 9.45 24.9 9.45 24.85 9.5 24.75 9.55 24.7 9.6 24.6 9.65 24.55 9.7 24.5 9.75 24.4 9.85 24.35 9.9 24.3 10.0 24.25 10.05 24.2 10.15 24.15 10.2 24.1 10.3 24.05 10.4 24.05 10.45 24.0 10.55 24.0 10.65 23.95 10.75 23.95 10.85 23.95 10.95 23.9 11.05 23.9 11.15 23.9 11.25 23.9 11.35 23.9 11.5 23.9 11.6 23.95 11.7 23.95 11.8 24.0 11.9 24.0 12.0 24.05 12.1 24.05 12.2 24.1 12.25 24.15 12.35 24.2 12.45 24.25 12.5 24.3 12.6 24.35 12.65 24.4 12.75 24.45 12.8 24.55 12.85 24.6 12.9 24.7 12.95 24.75 13.0 24.85 13.05 24.95 13.1 25.0 13.15 25.1 13.15 25.2 13.2 25.3 13.2 25.4 13.25 25.5 13.25 25.6 13.25 25.7 13.25 25.8 13.25 25.9 13.25 26.0 13.25 26.1 13.25 26.2 13.2 26.3 13.2 26.35 13.2 26.45 13.15 26.55 13.1 26.6 13.1 26.7 13.05 26.8 13.0 26.85 12.95 26.9 12.9 27.0 12.85 27.05 12.75 27.1 12.7 27.15 12.65 27.25 12.55 27.3 12.5 27.35 12.4 27.4 12.35 27.4 12.25 27.45 12.15 27.5 12.05 27.55 12.0 27.55 11.9 27.6 11.8 27.6 11.7 27.6 11.6 27.6 11.5 27.65 11.4 27.65 11.25 27.65 11.15 27.65 11.05 27.6 10.95 27.6 10.85 27.6 10.75 27.55 10.65 27.55 10.55 27.5 10.45 27.45 10.35 27.45 10.3 27.4 10.2 27.35 10.1 27.3 10.05 27.25 9.95 27.2 9.9 27.1 9.85 27.05 9.8 27.0 9.7 26.9 9.65 26.85 9.6 26.75 9.55 26.7 9.5 26.6 9.45 26.55 9.45 26.45 9.4 26.35 9.35 26.25 9.35 26.15 9.35 26.05 9.3 25.95 9.3 25.85 9.3 25.75 9.3 L25.75 9.3 M17.85 9.5 L17.85 12.5 18.35 12.5 Q18.55 12.5 18.7 12.5 18.85 12.5 19.0 12.45 19.15 12.45 19.25 12.45 19.4 12.45 19.5 12.4 19.65 12.4 19.75 12.35 19.85 12.35 19.95 12.3 20.0 12.3 20.1 12.25 20.15 12.2 20.2 12.15 20.25 12.1 20.3 12.05 20.4 12.0 20.4 11.95 20.45 11.9 20.5 11.85 20.55 11.8 20.6 11.7 20.6 11.65 20.65 11.55 20.65 11.5 20.65 11.4 20.7 11.35 20.7 11.25 20.7 11.15 20.7 11.05 20.7 10.95 20.7 10.85 20.7 10.75 20.65 10.65 20.65 10.55 20.65 10.45 20.6 10.4 20.6 10.3 20.55 10.25 20.5 10.15 20.45 10.1 20.45 10.05 20.4 10.0 20.35 9.9 20.25 9.85 20.2 9.85 20.15 9.8 20.05 9.75 20.0 9.7 19.9 9.7 19.8 9.65 19.7 9.6 19.6 9.6 19.5 9.55 19.4 9.55 19.25 9.55 19.15 9.5 19.0 9.5 18.85 9.5 18.7 9.5 18.55 9.5 18.35 9.5 L17.85 9.5 17.85 9.5" fill="#ffffff" fill-rule="evenodd" stroke="none"/>
  </g>
</svg>
