<?xml version="1.0" encoding="UTF-8" standalone="no"?>
<svg xmlns:ffdec="https://www.free-decompiler.com/flash" xmlns:xlink="http://www.w3.org/1999/xlink" ffdec:objectType="shape" height="26.0px" width="35.75px" xmlns="http://www.w3.org/2000/svg">
  <g transform="matrix(1.0, 0.0, 0.0, 1.0, 0.0, 0.0)">
    <path d="M4.0 3.0 Q3.9 3.0 3.8 3.0 3.7 3.05 3.6 3.1 3.5 3.1 3.45 3.15 3.35 3.2 3.3 3.3 3.2 3.35 3.15 3.45 3.1 3.5 3.1 3.6 3.05 3.7 3.0 3.8 3.0 3.9 3.0 4.0 L3.0 22.0 Q3.0 22.1 3.0 22.2 3.05 22.3 3.1 22.4 3.1 22.5 3.15 22.55 3.2 22.65 3.3 22.7 3.35 22.8 3.45 22.85 3.5 22.9 3.6 22.9 3.7 22.95 3.8 23.0 3.9 23.0 4.0 23.0 L31.75 23.0 Q31.85 23.0 31.95 23.0 32.05 22.95 32.15 22.9 32.25 22.9 32.3 22.85 32.4 22.8 32.45 22.7 32.55 22.65 32.6 22.55 32.65 22.5 32.65 22.4 32.7 22.3 32.75 22.2 32.75 22.1 32.75 22.0 L32.75 4.0 Q32.75 3.9 32.75 3.8 32.7 3.7 32.65 3.6 32.65 3.5 32.6 3.45 32.55 3.35 32.45 3.3 32.4 3.2 32.3 3.15 32.25 3.1 32.15 3.1 32.05 3.05 31.95 3.0 31.85 3.0 31.75 3.0 L4.0 3.0 4.0 3.0 M7.1 8.15 L13.7 15.35 13.7 8.5 14.7 8.5 14.7 17.85 8.15 10.75 8.15 17.5 7.1 17.5 7.1 8.15 7.1 8.15 M25.8 8.4 Q25.95 8.4 26.1 8.4 26.25 8.4 26.4 8.45 26.55 8.45 26.7 8.5 26.8 8.55 26.95 8.55 27.05 8.6 27.15 8.65 27.3 8.7 27.4 8.75 27.5 8.85 27.6 8.9 27.7 8.95 27.8 9.05 27.9 9.15 27.95 9.2 28.05 9.3 28.1 9.4 28.2 9.5 28.25 9.6 28.3 9.7 28.35 9.8 28.4 9.9 28.4 10.05 28.45 10.15 28.45 10.3 28.5 10.4 28.5 10.55 28.5 10.65 28.5 10.8 28.5 10.9 28.5 11.0 28.5 11.1 28.5 11.2 28.45 11.3 28.45 11.35 28.45 11.45 28.4 11.55 28.4 11.6 28.35 11.7 28.3 11.8 28.3 11.85 28.25 11.95 28.2 12.0 28.15 12.1 28.1 12.15 28.05 12.2 28.0 12.3 27.95 12.35 27.85 12.4 27.8 12.45 27.75 12.5 27.65 12.55 27.6 12.6 27.5 12.65 27.45 12.7 27.35 12.75 27.25 12.8 27.2 12.8 27.1 12.85 27.0 12.9 26.9 12.9 27.0 12.9 27.1 12.95 27.2 12.95 27.3 13.0 27.4 13.05 27.45 13.05 27.55 13.1 27.65 13.15 27.7 13.2 27.8 13.25 27.85 13.3 27.95 13.35 28.0 13.4 28.05 13.5 28.1 13.55 28.2 13.65 28.25 13.7 28.3 13.8 28.35 13.85 28.4 13.95 28.45 14.05 28.45 14.1 28.5 14.2 28.5 14.3 28.55 14.4 28.55 14.5 28.6 14.6 28.6 14.7 28.6 14.8 28.65 14.9 28.65 15.0 28.65 15.1 28.65 15.25 28.65 15.4 28.6 15.55 28.6 15.7 28.55 15.85 28.5 15.95 28.5 16.1 28.45 16.2 28.4 16.35 28.3 16.45 28.25 16.55 28.2 16.65 28.1 16.75 28.0 16.85 27.95 16.95 27.85 17.05 27.75 17.15 27.65 17.2 27.5 17.3 27.4 17.35 27.3 17.4 27.15 17.45 27.0 17.5 26.9 17.55 26.75 17.6 26.6 17.65 26.45 17.7 26.3 17.7 26.1 17.7 25.95 17.75 25.8 17.75 25.6 17.75 25.45 17.75 25.3 17.75 25.15 17.75 25.0 17.7 24.85 17.7 24.75 17.65 24.6 17.6 24.5 17.6 24.35 17.55 24.25 17.5 24.15 17.45 24.0 17.4 23.9 17.3 23.8 17.25 23.7 17.2 23.6 17.1 23.5 17.0 23.45 16.95 23.35 16.85 23.3 16.75 23.2 16.65 23.15 16.55 23.1 16.45 23.05 16.35 23.0 16.25 23.0 16.15 22.95 16.0 22.9 15.9 22.9 15.75 22.9 15.65 22.9 15.5 22.9 15.4 L22.9 15.2 23.95 15.2 23.95 15.3 Q23.95 15.4 23.95 15.5 23.95 15.55 24.0 15.65 24.0 15.7 24.05 15.8 24.05 15.85 24.1 15.95 24.1 16.0 24.15 16.05 24.2 16.15 24.25 16.2 24.25 16.25 24.3 16.3 24.35 16.35 24.4 16.4 24.45 16.45 24.5 16.5 24.6 16.55 24.65 16.6 24.75 16.6 24.8 16.65 24.85 16.7 24.95 16.7 25.05 16.75 25.1 16.75 25.2 16.8 25.3 16.8 25.35 16.8 25.45 16.8 25.55 16.8 25.65 16.8 25.75 16.8 25.85 16.8 25.95 16.8 26.05 16.8 26.15 16.75 26.25 16.75 26.35 16.75 26.45 16.7 26.5 16.7 26.6 16.65 26.7 16.6 26.75 16.55 26.85 16.5 26.9 16.45 26.95 16.45 27.0 16.35 27.05 16.3 27.1 16.25 27.2 16.2 27.25 16.1 27.25 16.05 27.3 15.95 27.35 15.9 27.4 15.8 27.4 15.75 27.45 15.65 27.45 15.55 27.5 15.5 27.5 15.4 27.5 15.3 27.5 15.2 27.5 15.1 27.5 15.0 27.5 14.9 27.5 14.8 27.45 14.7 27.45 14.6 27.45 14.5 27.4 14.4 27.4 14.3 27.35 14.25 27.3 14.15 27.25 14.1 27.25 14.0 27.2 13.95 27.15 13.9 27.05 13.8 27.0 13.75 26.95 13.7 26.85 13.65 26.8 13.6 26.75 13.55 26.65 13.5 26.55 13.5 26.5 13.45 26.4 13.45 26.3 13.4 26.2 13.4 26.1 13.35 26.0 13.35 25.9 13.35 25.8 13.35 25.65 13.3 25.55 13.3 25.5 13.3 25.35 13.35 25.35 13.35 25.3 13.35 25.25 13.35 25.25 13.35 L25.25 12.45 Q25.25 12.45 25.35 12.45 25.4 12.45 25.45 12.45 25.5 12.45 25.5 12.45 25.6 12.45 25.75 12.45 25.85 12.45 25.95 12.45 26.05 12.4 26.15 12.4 26.25 12.4 26.35 12.35 26.4 12.35 26.5 12.3 26.6 12.25 26.65 12.25 26.75 12.2 26.8 12.15 26.85 12.1 26.9 12.05 26.95 12.0 27.0 11.95 27.05 11.9 27.1 11.85 27.15 11.75 27.2 11.7 27.25 11.65 27.3 11.55 27.3 11.5 27.35 11.4 27.35 11.3 27.35 11.25 27.4 11.15 27.4 11.05 27.4 10.95 27.4 10.85 27.4 10.75 27.4 10.7 27.4 10.6 27.35 10.5 27.35 10.45 27.35 10.35 27.3 10.3 27.3 10.2 27.25 10.15 27.25 10.1 27.2 10.0 27.15 9.95 27.1 9.9 27.05 9.85 27.0 9.8 26.95 9.75 26.9 9.7 26.85 9.65 26.8 9.6 26.75 9.55 26.65 9.5 26.6 9.5 26.55 9.45 26.45 9.4 26.4 9.4 26.3 9.4 26.25 9.35 26.15 9.35 26.05 9.35 26.0 9.3 25.9 9.3 25.8 9.3 25.7 9.3 25.6 9.3 25.5 9.3 25.45 9.35 25.35 9.35 25.25 9.35 25.2 9.4 25.1 9.4 25.0 9.45 24.95 9.45 24.9 9.5 24.8 9.55 24.75 9.55 24.7 9.6 24.65 9.65 24.55 9.7 24.5 9.75 24.45 9.8 24.4 9.85 24.35 9.9 24.35 9.95 24.3 10.05 24.25 10.1 24.25 10.15 24.2 10.25 24.2 10.3 24.15 10.4 24.15 10.45 24.1 10.55 24.1 10.65 24.1 10.75 24.1 10.8 L23.05 10.8 Q23.05 10.65 23.05 10.5 23.1 10.4 23.1 10.25 23.15 10.15 23.2 10.0 23.2 9.9 23.25 9.8 23.3 9.65 23.35 9.55 23.45 9.45 23.5 9.35 23.55 9.3 23.65 9.2 23.75 9.1 23.8 9.05 23.9 8.95 24.0 8.9 24.1 8.85 24.2 8.75 24.3 8.7 24.45 8.65 24.55 8.6 24.65 8.55 24.8 8.55 24.95 8.5 25.05 8.45 25.2 8.45 25.35 8.45 25.5 8.4 25.65 8.4 25.8 8.4 L25.8 8.4 M16.85 8.5 L18.75 8.5 Q18.9 8.5 19.0 8.5 19.1 8.5 19.2 8.5 19.35 8.5 19.45 8.5 19.55 8.5 19.6 8.55 19.7 8.55 19.8 8.55 19.9 8.55 19.95 8.55 20.05 8.55 20.1 8.6 20.15 8.6 20.2 8.6 20.25 8.6 20.3 8.65 20.4 8.65 20.45 8.65 20.5 8.7 20.55 8.7 20.6 8.7 20.65 8.75 20.7 8.75 20.75 8.8 20.8 8.8 20.85 8.85 20.9 8.85 20.95 8.9 21.0 8.9 21.05 8.95 21.1 9.0 21.15 9.05 21.2 9.05 21.25 9.1 21.3 9.15 21.35 9.2 21.35 9.25 21.4 9.3 21.45 9.35 21.5 9.4 21.55 9.5 21.55 9.55 21.6 9.6 21.65 9.65 21.65 9.7 21.7 9.8 21.75 9.85 21.75 9.95 21.8 10.0 21.8 10.05 21.85 10.15 21.85 10.2 21.85 10.3 21.9 10.35 21.9 10.45 21.9 10.5 21.9 10.6 21.95 10.65 21.95 10.75 21.95 10.8 21.95 10.9 21.95 11.0 21.95 11.1 21.95 11.15 21.95 11.25 21.95 11.3 21.9 11.4 21.9 11.45 21.9 11.55 21.9 11.6 21.85 11.7 21.85 11.75 21.85 11.8 21.8 11.9 21.8 11.95 21.75 12.05 21.75 12.1 21.7 12.15 21.65 12.2 21.65 12.3 21.6 12.35 21.55 12.4 21.55 12.45 21.5 12.55 21.45 12.6 21.4 12.65 21.35 12.7 21.35 12.75 21.3 12.8 21.25 12.85 21.2 12.9 21.15 12.95 21.1 12.95 21.05 13.0 21.0 13.05 20.95 13.05 20.9 13.1 20.85 13.1 20.8 13.15 20.75 13.15 20.7 13.2 20.65 13.2 20.6 13.25 20.55 13.25 20.5 13.3 20.45 13.3 20.4 13.3 20.35 13.35 20.3 13.35 20.2 13.35 20.15 13.35 20.1 13.4 20.0 13.4 19.95 13.4 19.85 13.4 19.8 13.4 19.7 13.45 19.6 13.45 19.55 13.45 19.45 13.45 19.35 13.45 19.2 13.45 19.1 13.45 19.0 13.45 18.9 13.45 18.75 13.45 L18.45 13.45 17.9 13.45 17.9 17.5 16.85 17.5 16.85 8.5 16.85 8.5 M17.9 9.5 L17.9 12.5 18.45 12.5 Q18.6 12.5 18.8 12.5 18.95 12.5 19.1 12.45 19.25 12.45 19.35 12.45 19.5 12.45 19.6 12.4 19.7 12.4 19.85 12.35 19.95 12.35 20.0 12.3 20.1 12.3 20.2 12.25 20.25 12.2 20.3 12.15 20.35 12.1 20.4 12.05 20.45 12.0 20.5 11.95 20.55 11.9 20.6 11.85 20.65 11.8 20.65 11.7 20.7 11.65 20.7 11.55 20.75 11.5 20.75 11.4 20.75 11.35 20.8 11.25 20.8 11.15 20.8 11.05 20.8 10.95 20.8 10.85 20.8 10.75 20.75 10.65 20.75 10.55 20.7 10.45 20.7 10.4 20.65 10.3 20.65 10.25 20.6 10.15 20.55 10.1 20.5 10.05 20.45 10.0 20.4 9.9 20.35 9.85 20.3 9.85 20.25 9.8 20.15 9.75 20.1 9.7 20.0 9.7 19.9 9.65 19.8 9.6 19.7 9.6 19.6 9.55 19.5 9.55 19.35 9.55 19.2 9.5 19.1 9.5 18.95 9.5 18.8 9.5 18.65 9.5 18.45 9.5 L17.9 9.5 17.9 9.5" fill="#ffffff" fill-rule="evenodd" stroke="none"/>
  </g>
</svg>
