<?xml version="1.0" encoding="UTF-8" standalone="no"?>
<svg xmlns:ffdec="https://www.free-decompiler.com/flash" xmlns:xlink="http://www.w3.org/1999/xlink" ffdec:objectType="shape" height="26.0px" width="35.75px" xmlns="http://www.w3.org/2000/svg">
  <g transform="matrix(1.0, 0.0, 0.0, 1.0, 0.0, 0.0)">
    <path d="M4.0 3.0 Q3.9 3.0 3.8 3.0 3.7 3.05 3.6 3.1 3.5 3.1 3.45 3.15 3.35 3.2 3.3 3.3 3.2 3.35 3.15 3.45 3.1 3.5 3.1 3.6 3.05 3.7 3.0 3.8 3.0 3.9 3.0 4.0 L3.0 22.0 Q3.0 22.1 3.0 22.2 3.05 22.3 3.1 22.4 3.1 22.5 3.15 22.55 3.2 22.65 3.3 22.7 3.35 22.8 3.45 22.85 3.5 22.9 3.6 22.9 3.7 22.95 3.8 23.0 3.9 23.0 4.0 23.0 L31.75 23.0 Q31.85 23.0 31.95 23.0 32.05 22.95 32.15 22.9 32.25 22.9 32.3 22.85 32.4 22.8 32.45 22.7 32.55 22.65 32.6 22.55 32.65 22.5 32.65 22.4 32.7 22.3 32.75 22.2 32.75 22.1 32.75 22.0 L32.75 4.0 Q32.75 3.9 32.75 3.8 32.7 3.7 32.65 3.6 32.65 3.5 32.6 3.45 32.55 3.35 32.45 3.3 32.4 3.2 32.3 3.15 32.25 3.1 32.15 3.1 32.05 3.05 31.95 3.0 31.85 3.0 31.75 3.0 L4.0 3.0 4.0 3.0 M7.7 8.15 L14.3 15.35 14.3 8.5 15.3 8.5 15.3 17.85 8.75 10.75 8.75 17.5 7.7 17.5 7.7 8.15 7.7 8.15 M27.2 8.3 L28.05 8.3 23.6 18.65 22.8 18.65 27.2 8.3 27.2 8.3 M17.45 8.5 L19.35 8.5 Q19.5 8.5 19.6 8.5 19.7 8.5 19.8 8.5 19.95 8.5 20.05 8.5 20.15 8.5 20.2 8.55 20.3 8.55 20.4 8.55 20.5 8.55 20.55 8.55 20.6 8.55 20.7 8.6 20.75 8.6 20.8 8.6 20.85 8.6 20.9 8.65 21.0 8.65 21.05 8.65 21.1 8.7 21.15 8.7 21.2 8.7 21.25 8.75 21.3 8.75 21.35 8.8 21.4 8.8 21.45 8.85 21.5 8.85 21.55 8.9 21.6 8.9 21.65 8.95 21.7 9.0 21.75 9.05 21.8 9.05 21.85 9.1 21.9 9.15 21.95 9.2 21.95 9.25 22.0 9.3 22.05 9.35 22.1 9.4 22.15 9.5 22.15 9.55 22.2 9.6 22.25 9.65 22.25 9.7 22.3 9.8 22.35 9.85 22.35 9.95 22.4 10.0 22.4 10.05 22.45 10.15 22.45 10.2 22.45 10.3 22.5 10.35 22.5 10.45 22.5 10.5 22.5 10.6 22.55 10.65 22.55 10.75 22.55 10.8 22.55 10.9 22.55 11.0 22.55 11.1 22.55 11.15 22.55 11.25 22.55 11.3 22.5 11.4 22.5 11.45 22.5 11.55 22.5 11.6 22.45 11.7 22.45 11.75 22.45 11.8 22.4 11.9 22.4 11.95 22.35 12.05 22.35 12.1 22.3 12.15 22.25 12.2 22.25 12.3 22.2 12.35 22.15 12.4 22.15 12.45 22.1 12.55 22.05 12.6 22.0 12.65 21.95 12.7 21.9 12.75 21.9 12.8 21.85 12.85 21.8 12.9 21.75 12.95 21.7 12.95 21.65 13.0 21.6 13.05 21.55 13.05 21.5 13.1 21.45 13.1 21.4 13.15 21.35 13.15 21.3 13.2 21.25 13.2 21.2 13.25 21.15 13.25 21.1 13.3 21.05 13.3 21.0 13.3 20.95 13.35 20.85 13.35 20.8 13.35 20.75 13.35 20.7 13.4 20.6 13.4 20.55 13.4 20.45 13.4 20.4 13.4 20.3 13.45 20.2 13.45 20.15 13.45 20.05 13.45 19.95 13.45 19.8 13.45 19.7 13.45 19.6 13.45 19.5 13.45 19.35 13.45 L19.05 13.45 18.5 13.45 18.5 17.5 17.45 17.5 17.45 8.5 17.45 8.5 M18.5 9.5 L18.5 12.5 19.05 12.5 Q19.2 12.5 19.4 12.5 19.55 12.5 19.7 12.45 19.85 12.45 19.95 12.45 20.1 12.45 20.2 12.4 20.3 12.4 20.45 12.35 20.55 12.35 20.6 12.3 20.7 12.3 20.8 12.25 20.85 12.2 20.9 12.15 20.95 12.1 21.0 12.05 21.05 12.0 21.1 11.95 21.15 11.9 21.2 11.85 21.25 11.8 21.25 11.7 21.3 11.65 21.3 11.55 21.35 11.5 21.35 11.4 21.35 11.35 21.4 11.25 21.4 11.15 21.4 11.05 21.4 10.95 21.4 10.85 21.4 10.75 21.35 10.65 21.35 10.55 21.3 10.45 21.3 10.4 21.25 10.3 21.25 10.25 21.2 10.15 21.15 10.1 21.1 10.05 21.05 10.0 21.0 9.9 20.95 9.85 20.9 9.85 20.85 9.8 20.75 9.75 20.7 9.7 20.6 9.7 20.5 9.65 20.4 9.6 20.3 9.6 20.2 9.55 20.1 9.55 19.95 9.55 19.8 9.5 19.7 9.5 19.55 9.5 19.4 9.5 19.25 9.5 19.05 9.5 L18.5 9.5 18.5 9.5" fill="#ffffff" fill-rule="evenodd" stroke="none"/>
  </g>
</svg>
