<?xml version="1.0" encoding="UTF-8" standalone="no"?>
<svg xmlns:ffdec="https://www.free-decompiler.com/flash" xmlns:xlink="http://www.w3.org/1999/xlink" ffdec:objectType="shape" height="26.0px" width="26.0px" xmlns="http://www.w3.org/2000/svg">
  <g transform="matrix(1.0, 0.0, 0.0, 1.0, 0.0, 0.0)">
    <path d="M4.0 3.0 Q3.9 3.0 3.8 3.0 3.7 3.05 3.6 3.1 3.5 3.1 3.45 3.15 3.35 3.2 3.3 3.3 3.2 3.35 3.15 3.45 3.1 3.5 3.1 3.6 3.05 3.7 3.0 3.8 3.0 3.9 3.0 4.0 L3.0 22.0 Q3.0 22.1 3.0 22.2 3.05 22.3 3.1 22.4 3.1 22.5 3.15 22.55 3.2 22.65 3.3 22.7 3.35 22.8 3.45 22.85 3.5 22.9 3.6 22.9 3.7 22.95 3.8 23.0 3.9 23.0 4.0 23.0 L22.0 23.0 Q22.1 23.0 22.2 23.0 22.3 22.95 22.4 22.9 22.5 22.9 22.55 22.85 22.65 22.8 22.7 22.7 22.8 22.65 22.85 22.55 22.9 22.5 22.9 22.4 22.95 22.3 23.0 22.2 23.0 22.1 23.0 22.0 L23.0 4.0 Q23.0 3.9 23.0 3.8 22.95 3.7 22.9 3.6 22.9 3.5 22.85 3.45 22.8 3.35 22.7 3.3 22.65 3.2 22.55 3.15 22.5 3.1 22.4 3.1 22.3 3.05 22.2 3.0 22.1 3.0 22.0 3.0 L4.0 3.0 4.0 3.0 M6.35 8.15 L9.45 15.6 12.6 8.15 14.45 17.5 13.4 17.5 12.25 11.4 9.45 17.85 6.7 11.4 5.55 17.5 4.5 17.5 6.35 8.15 6.35 8.15 M18.45 8.4 Q18.6 8.4 18.75 8.4 18.9 8.4 19.05 8.45 19.2 8.45 19.3 8.5 19.45 8.55 19.6 8.55 19.7 8.6 19.8 8.65 19.95 8.7 20.05 8.75 20.15 8.85 20.25 8.9 20.35 8.95 20.45 9.05 20.55 9.15 20.6 9.2 20.7 9.3 20.75 9.4 20.85 9.5 20.9 9.6 20.95 9.7 21.0 9.8 21.05 9.9 21.05 10.0 21.1 10.15 21.1 10.25 21.15 10.35 21.15 10.5 21.15 10.6 21.15 10.75 21.15 10.85 21.15 10.95 21.15 11.0 21.15 11.1 21.1 11.2 21.1 11.25 21.1 11.35 21.05 11.45 21.05 11.5 21.0 11.6 21.0 11.65 20.95 11.75 20.9 11.8 20.85 11.85 20.8 11.95 20.75 12.0 20.7 12.05 20.65 12.15 20.6 12.2 20.55 12.25 20.5 12.3 20.4 12.35 20.35 12.4 20.3 12.45 20.2 12.5 20.15 12.55 20.05 12.6 20.0 12.6 19.9 12.65 19.8 12.7 19.75 12.7 19.65 12.75 19.75 12.8 19.85 12.8 19.95 12.85 20.05 12.9 20.15 12.95 20.25 13.0 20.35 13.05 20.45 13.1 20.5 13.15 20.6 13.2 20.65 13.25 20.75 13.35 20.8 13.4 20.9 13.45 20.95 13.55 21.0 13.6 21.05 13.7 21.1 13.75 21.15 13.85 21.2 13.95 21.25 14.0 21.3 14.1 21.35 14.2 21.4 14.3 21.4 14.4 21.45 14.5 21.45 14.6 21.45 14.7 21.5 14.8 21.5 14.9 21.5 15.0 21.5 15.1 21.5 15.25 21.5 15.4 21.45 15.55 21.45 15.7 21.4 15.85 21.4 15.95 21.35 16.1 21.3 16.2 21.25 16.35 21.2 16.45 21.1 16.55 21.05 16.65 20.95 16.75 20.9 16.85 20.8 16.95 20.7 17.05 20.6 17.15 20.5 17.2 20.4 17.3 20.25 17.35 20.15 17.4 20.0 17.45 19.9 17.5 19.75 17.55 19.6 17.6 19.45 17.65 19.3 17.65 19.15 17.7 19.0 17.7 18.8 17.75 18.65 17.75 18.45 17.75 18.3 17.75 18.1 17.75 17.95 17.7 17.8 17.7 17.65 17.7 17.5 17.65 17.35 17.6 17.2 17.55 17.1 17.5 16.95 17.45 16.8 17.4 16.7 17.35 16.6 17.3 16.45 17.2 16.35 17.15 16.25 17.05 16.15 16.95 16.05 16.85 15.95 16.75 15.9 16.65 15.8 16.55 15.75 16.45 15.7 16.35 15.65 16.2 15.6 16.1 15.55 15.95 15.5 15.85 15.5 15.7 15.45 15.55 15.45 15.4 15.45 15.3 15.45 15.15 15.45 15.05 15.45 14.9 15.45 14.8 15.5 14.7 15.5 14.6 15.5 14.5 15.55 14.4 15.55 14.3 15.6 14.2 15.65 14.1 15.65 14.05 15.7 13.95 15.75 13.85 15.8 13.75 15.85 13.7 15.9 13.6 15.95 13.5 16.05 13.45 16.1 13.4 16.2 13.3 16.25 13.25 16.35 13.2 16.4 13.15 16.5 13.1 16.6 13.0 16.7 13.0 16.8 12.95 16.9 12.9 17.0 12.85 17.1 12.8 17.2 12.75 17.3 12.75 17.2 12.7 17.1 12.7 17.0 12.65 16.95 12.6 16.85 12.55 16.8 12.55 16.7 12.5 16.65 12.45 16.55 12.4 16.5 12.35 16.4 12.3 16.35 12.25 16.3 12.15 16.25 12.1 16.2 12.05 16.15 12.0 16.1 11.95 16.05 11.85 16.0 11.8 16.0 11.7 15.95 11.65 15.9 11.55 15.9 11.5 15.85 11.4 15.85 11.3 15.8 11.25 15.8 11.15 15.8 11.05 15.8 10.95 15.8 10.85 15.75 10.75 15.75 10.65 15.75 10.55 15.75 10.4 15.8 10.3 15.8 10.2 15.85 10.05 15.85 9.95 15.9 9.85 15.95 9.75 16.0 9.65 16.05 9.55 16.1 9.45 16.2 9.4 16.25 9.3 16.35 9.2 16.45 9.1 16.5 9.05 16.6 8.95 16.7 8.9 16.8 8.85 16.9 8.75 17.0 8.7 17.15 8.65 17.25 8.6 17.4 8.55 17.5 8.55 17.65 8.5 17.75 8.45 17.9 8.45 18.05 8.45 18.2 8.4 18.3 8.4 18.45 8.4 L18.45 8.4 M18.45 9.2 Q18.35 9.2 18.3 9.2 18.2 9.2 18.1 9.25 18.05 9.25 17.95 9.3 17.9 9.3 17.8 9.3 17.75 9.35 17.65 9.4 17.6 9.4 17.55 9.45 17.5 9.5 17.4 9.55 17.35 9.6 17.3 9.65 17.25 9.7 17.2 9.75 17.15 9.8 17.1 9.85 17.1 9.9 17.05 10.0 17.0 10.05 17.0 10.1 16.95 10.15 16.95 10.25 16.9 10.3 16.9 10.4 16.9 10.45 16.9 10.55 16.9 10.65 16.9 10.7 16.9 10.8 16.9 10.9 16.9 10.95 16.9 11.05 16.9 11.1 16.95 11.2 16.95 11.25 17.0 11.35 17.0 11.4 17.05 11.45 17.05 11.55 17.1 11.6 17.15 11.65 17.2 11.7 17.25 11.75 17.3 11.8 17.35 11.85 17.4 11.9 17.45 11.95 17.55 11.95 17.6 12.0 17.65 12.05 17.7 12.05 17.8 12.1 17.85 12.1 17.95 12.15 18.0 12.15 18.1 12.15 18.2 12.2 18.25 12.2 18.35 12.2 18.45 12.2 18.55 12.2 18.65 12.2 18.75 12.2 18.8 12.15 18.9 12.15 18.95 12.15 19.05 12.1 19.15 12.1 19.2 12.05 19.25 12.05 19.35 12.0 19.4 11.95 19.45 11.95 19.55 11.9 19.6 11.85 19.65 11.8 19.7 11.75 19.75 11.7 19.8 11.65 19.85 11.6 19.85 11.55 19.9 11.45 19.95 11.4 19.95 11.35 20.0 11.25 20.0 11.2 20.0 11.15 20.05 11.05 20.05 11.0 20.05 10.9 20.05 10.8 20.05 10.7 20.05 10.6 20.05 10.55 20.05 10.45 20.05 10.4 20.0 10.3 20.0 10.25 20.0 10.15 19.95 10.1 19.95 10.05 19.9 9.95 19.85 9.9 19.8 9.85 19.8 9.8 19.75 9.75 19.7 9.7 19.65 9.65 19.6 9.6 19.55 9.55 19.45 9.5 19.4 9.45 19.35 9.4 19.3 9.4 19.2 9.35 19.15 9.35 19.05 9.3 19.0 9.3 18.9 9.25 18.8 9.25 18.75 9.25 18.65 9.25 18.55 9.2 18.45 9.2 L18.45 9.2 M18.45 13.2 Q18.35 13.2 18.25 13.2 18.15 13.2 18.05 13.25 17.95 13.25 17.85 13.3 17.75 13.3 17.7 13.35 17.6 13.35 17.5 13.4 17.45 13.45 17.35 13.5 17.3 13.55 17.2 13.6 17.15 13.65 17.1 13.7 17.05 13.75 16.95 13.85 16.9 13.9 16.85 13.95 16.8 14.05 16.8 14.15 16.75 14.2 16.7 14.3 16.65 14.35 16.65 14.45 16.6 14.55 16.6 14.65 16.6 14.75 16.6 14.85 16.55 14.95 16.55 15.05 16.55 15.15 16.55 15.25 16.6 15.35 16.6 15.45 16.6 15.55 16.65 15.65 16.65 15.75 16.7 15.8 16.75 15.9 16.75 16.0 16.8 16.05 16.85 16.15 16.9 16.2 16.95 16.25 17.0 16.35 17.05 16.4 17.1 16.45 17.2 16.5 17.25 16.55 17.35 16.6 17.4 16.65 17.5 16.7 17.6 16.7 17.65 16.75 17.75 16.8 17.85 16.8 17.95 16.85 18.05 16.85 18.15 16.85 18.25 16.85 18.35 16.85 18.45 16.85 18.55 16.85 18.65 16.85 18.8 16.85 18.9 16.85 19.0 16.8 19.05 16.8 19.15 16.8 19.25 16.75 19.35 16.7 19.4 16.7 19.5 16.65 19.6 16.6 19.65 16.55 19.7 16.5 19.8 16.45 19.85 16.4 19.9 16.35 19.95 16.25 20.0 16.2 20.05 16.15 20.1 16.05 20.15 16.0 20.2 15.9 20.2 15.8 20.25 15.75 20.3 15.65 20.3 15.55 20.3 15.45 20.35 15.35 20.35 15.25 20.35 15.15 20.35 15.05 20.35 14.95 20.35 14.85 20.35 14.75 20.3 14.65 20.3 14.55 20.3 14.45 20.25 14.35 20.2 14.3 20.2 14.2 20.15 14.1 20.1 14.05 20.05 13.95 20.0 13.9 19.95 13.85 19.9 13.75 19.85 13.7 19.8 13.65 19.7 13.6 19.65 13.55 19.55 13.5 19.5 13.45 19.4 13.4 19.35 13.35 19.25 13.35 19.15 13.3 19.05 13.3 19.0 13.25 18.9 13.25 18.8 13.2 18.7 13.2 18.55 13.2 18.45 13.2 L18.45 13.2" fill="#ffffff" fill-rule="evenodd" stroke="none"/>
  </g>
</svg>
