<?xml version="1.0" encoding="UTF-8" standalone="no"?>
<svg xmlns:ffdec="https://www.free-decompiler.com/flash" xmlns:xlink="http://www.w3.org/1999/xlink" ffdec:objectType="shape" height="26.0px" width="26.0px" xmlns="http://www.w3.org/2000/svg">
  <g transform="matrix(1.0, 0.0, 0.0, 1.0, 0.0, 0.0)">
    <path d="M4.0 3.0 Q3.9 3.0 3.8 3.0 3.7 3.05 3.6 3.1 3.5 3.1 3.45 3.15 3.35 3.2 3.3 3.3 3.2 3.35 3.15 3.45 3.1 3.5 3.1 3.6 3.05 3.7 3.0 3.8 3.0 3.9 3.0 4.0 L3.0 16.0 3.0 16.5 Q3.0 17.25 3.2 18.0 3.4 18.75 3.8 19.4 4.15 20.1 4.7 20.7 5.25 21.3 5.95 21.8 6.6 22.3 7.4 22.7 8.2 23.15 9.1 23.4 10.0 23.7 11.0 23.85 12.0 24.0 13.0 24.0 14.0 24.0 15.0 23.85 16.0 23.7 16.9 23.4 17.8 23.15 18.6 22.7 19.4 22.3 20.05 21.8 20.75 21.3 21.3 20.7 21.85 20.1 22.2 19.4 22.6 18.75 22.8 18.0 23.0 17.25 23.0 16.5 L23.0 16.0 23.0 4.0 Q23.0 3.9 23.0 3.8 22.95 3.7 22.9 3.6 22.9 3.5 22.85 3.45 22.8 3.35 22.7 3.3 22.65 3.2 22.55 3.15 22.5 3.1 22.4 3.1 22.3 3.05 22.2 3.0 22.1 3.0 22.0 3.0 L4.0 3.0 4.0 3.0 M7.9 8.5 L8.95 8.5 8.95 16.5 12.35 16.5 12.35 17.5 7.9 17.5 7.9 8.5 7.9 8.5 M11.95 8.5 L18.1 8.5 18.1 9.5 15.6 9.5 15.6 17.5 14.5 17.5 14.5 9.5 11.95 9.5 11.95 8.5 11.95 8.5" fill="#ffffff" fill-rule="evenodd" stroke="none"/>
  </g>
</svg>
