<?xml version="1.0" encoding="UTF-8" standalone="no"?>
<svg xmlns:ffdec="https://www.free-decompiler.com/flash" xmlns:xlink="http://www.w3.org/1999/xlink" ffdec:objectType="frame" height="26.05px" width="52.95px" xmlns="http://www.w3.org/2000/svg">
  <g transform="matrix(1.0, 0.0, 0.0, 1.0, 0.0, 0.0)">
    <use ffdec:characterId="1" height="26.0" transform="matrix(1.0, 0.0, 0.0, 1.0, 0.0, 0.0)" width="35.75" xlink:href="#shape0"/>
    <use ffdec:characterId="2" height="12.95" transform="matrix(1.0, 0.0, 0.0, 1.0, 10.95, 6.55)" width="13.85" xlink:href="#shape1"/>
  </g>
  <defs>
    <g id="shape0" transform="matrix(1.0, 0.0, 0.0, 1.0, 0.0, 0.0)">
      <path d="M33.75 4.5 Q33.75 3.45 33.0 2.75 32.3 2.0 31.25 2.0 L4.5 2.0 Q3.45 2.0 2.75 2.75 2.0 3.45 2.0 4.5 L2.0 21.5 Q2.0 22.55 2.75 23.25 3.45 24.0 4.5 24.0 L31.25 24.0 Q32.3 24.0 33.0 23.25 33.75 22.55 33.75 21.5 L33.75 4.5 33.75 4.5" fill="#140f0a" fill-rule="evenodd" stroke="none"/>
      <path d="M33.1 5.0 Q33.1 4.15 32.55 3.6 31.95 3.0 31.1 3.0 L4.85 3.0 Q4.0 3.0 3.45 3.6 2.85 4.15 2.85 5.0 L2.85 21.0 Q2.85 21.85 3.45 22.4 4.0 23.0 4.85 23.0 L31.1 23.0 Q31.95 23.0 32.55 22.4 33.1 21.85 33.1 21.0 L33.1 5.0 33.1 5.0" fill="url(#gradient0)" fill-rule="evenodd" stroke="none"/>
    </g>
    <linearGradient gradientTransform="matrix(0.0, -0.0117, 0.0177, 0.0, 15.15, 17.15)" gradientUnits="userSpaceOnUse" id="gradient0" spreadMethod="pad" x1="-819.2" x2="819.2">
      <stop offset="0.0" stop-color="#8f7431"/>
      <stop offset="1.0" stop-color="#baa77d"/>
    </linearGradient>
    <g id="shape1" transform="matrix(1.0, 0.0, 0.0, 1.0, 0.0, 0.0)">
      <path d="M0.0 0.0 L4.55 0.0 4.55 1.45 1.7 1.45 1.7 5.5 4.25 5.5 4.25 6.95 1.7 6.95 1.7 11.3 4.55 11.3 4.55 12.8 0.0 12.8 0.0 0.0 M8.85 4.45 L8.85 5.95 8.25 5.65 7.65 5.5 Q7.2 5.5 6.9 5.75 6.55 6.0 6.55 6.45 6.6 6.95 7.0 7.3 L7.9 8.05 8.8 8.95 Q9.2 9.5 9.25 10.4 9.2 11.55 8.6 12.25 7.95 12.9 6.8 12.95 L6.05 12.85 5.4 12.55 5.4 10.95 6.0 11.35 6.7 11.5 Q7.2 11.5 7.5 11.2 L7.75 10.45 7.5 9.65 6.85 9.05 6.05 8.45 5.35 7.6 5.1 6.45 Q5.1 5.4 5.75 4.75 6.35 4.1 7.4 4.1 L8.15 4.15 8.85 4.45 M13.25 4.15 L13.85 4.35 13.85 6.0 13.55 5.7 13.1 5.55 Q12.55 5.6 12.3 5.9 12.0 6.2 11.85 6.65 L11.7 7.6 11.7 8.45 11.7 9.25 11.85 10.25 12.25 11.1 Q12.55 11.45 13.05 11.45 L13.5 11.35 13.85 11.1 13.85 12.6 13.25 12.85 12.55 12.95 Q11.75 12.9 11.25 12.5 L10.45 11.4 10.1 10.0 10.05 8.6 10.1 7.15 Q10.2 6.35 10.45 5.65 10.7 4.95 11.2 4.55 11.7 4.1 12.6 4.1 L13.25 4.15" fill="#140f0a" fill-opacity="0.99607843" fill-rule="evenodd" stroke="none"/>
    </g>
  </defs>
</svg>
