<?xml version="1.0" encoding="UTF-8" standalone="no"?>
<svg xmlns:ffdec="https://www.free-decompiler.com/flash" xmlns:xlink="http://www.w3.org/1999/xlink" ffdec:objectType="frame" height="26.05px" width="52.95px" xmlns="http://www.w3.org/2000/svg">
  <g transform="matrix(1.0, 0.0, 0.0, 1.0, 0.0, 0.0)">
    <use ffdec:characterId="88" height="26.0" transform="matrix(1.0, 0.0, 0.0, 1.0, 0.0, 0.0)" width="52.95" xlink:href="#shape0"/>
    <use ffdec:characterId="106" height="12.95" transform="matrix(1.0, 0.0, 0.0, 1.0, 6.4, 7.15)" width="40.15" xlink:href="#shape1"/>
    <use ffdec:characterId="106" height="12.95" transform="matrix(1.0, 0.0, 0.0, 1.0, 6.4, 6.55)" width="40.15" xlink:href="#shape1"/>
  </g>
  <defs>
    <g id="shape0" transform="matrix(1.0, 0.0, 0.0, 1.0, 0.0, 0.0)">
      <path d="M50.95 4.5 Q50.95 3.45 50.2 2.75 49.5 2.0 48.45 2.0 L4.5 2.0 Q3.45 2.0 2.75 2.75 2.0 3.45 2.0 4.5 L2.0 21.5 Q2.0 22.55 2.75 23.25 3.45 24.0 4.5 24.0 L48.45 24.0 Q49.5 24.0 50.2 23.25 50.95 22.55 50.95 21.5 L50.95 4.5 50.95 4.5" fill="#140f0a" fill-rule="evenodd" stroke="none"/>
      <path d="M50.15 5.0 Q50.15 4.15 49.55 3.6 48.95 3.0 48.15 3.0 L4.8 3.0 Q4.0 3.0 3.4 3.6 2.8 4.15 2.8 5.0 L2.8 21.0 Q2.8 21.85 3.4 22.4 4.0 23.0 4.8 23.0 L48.15 23.0 Q48.95 23.0 49.55 22.4 50.15 21.85 50.15 21.0 L50.15 5.0 50.15 5.0" fill="url(#gradient0)" fill-rule="evenodd" stroke="none"/>
    </g>
    <linearGradient gradientTransform="matrix(0.0, -0.0117, 0.0277, 0.0, 14.45, 17.15)" gradientUnits="userSpaceOnUse" id="gradient0" spreadMethod="pad" x1="-819.2" x2="819.2">
      <stop offset="0.0" stop-color="#8f7431"/>
      <stop offset="1.0" stop-color="#baa77d"/>
    </linearGradient>
    <g id="shape1" transform="matrix(1.0, 0.0, 0.0, 1.0, 0.0, 0.0)">
      <path d="M4.65 9.7 L4.25 0.0 5.95 0.0 5.95 12.8 4.35 12.8 1.35 2.9 1.7 12.8 0.0 12.8 0.0 0.0 1.6 0.0 4.6 9.7 4.65 9.7 M11.55 3.55 L11.4 2.5 10.95 1.7 9.95 1.45 9.7 1.45 9.7 5.7 Q10.75 5.75 11.15 5.2 11.55 4.65 11.55 3.55 M11.15 0.05 L12.25 0.45 13.05 1.5 13.35 3.4 Q13.35 5.35 12.5 6.3 11.65 7.2 9.7 7.1 L9.7 12.8 8.0 12.8 8.0 0.0 10.05 0.0 11.15 0.05 M16.3 5.5 L18.85 5.5 18.85 6.95 16.3 6.95 16.3 11.3 19.15 11.3 19.15 12.8 14.6 12.8 14.6 0.0 19.15 0.0 19.15 1.45 16.3 1.45 16.3 5.5 M21.8 4.2 L21.8 5.2 21.85 5.2 22.15 4.7 Q22.3 4.5 22.5 4.4 L23.0 4.15 23.55 4.1 Q24.4 4.1 24.8 4.5 L25.25 5.6 25.3 6.9 25.3 12.8 23.7 12.8 23.7 6.85 23.65 6.25 23.4 5.75 Q23.2 5.5 22.75 5.5 22.25 5.55 22.05 5.85 21.85 6.2 21.8 6.6 L21.8 7.45 21.8 12.8 20.2 12.8 20.2 4.2 21.8 4.2 M26.25 4.2 L27.1 4.2 27.1 1.8 28.7 1.8 28.7 4.2 29.55 4.2 29.55 5.5 28.7 5.5 28.7 12.8 27.1 12.8 27.1 5.5 26.25 5.5 26.25 4.2 M33.4 5.75 L32.85 5.5 Q32.5 5.5 32.3 5.75 L32.0 6.35 31.95 7.05 31.95 7.7 33.85 7.7 33.8 7.05 33.7 6.35 33.4 5.75 M34.25 4.55 L35.05 5.65 35.4 7.1 35.45 8.55 35.45 8.8 31.95 8.8 31.95 9.55 32.05 10.45 32.35 11.2 Q32.55 11.5 32.95 11.5 L33.55 11.25 33.85 10.65 33.95 9.9 35.4 9.9 35.15 11.4 34.35 12.5 Q33.8 12.9 32.9 12.95 L31.5 12.5 30.7 11.45 30.35 10.0 30.3 8.55 30.35 7.15 Q30.45 6.35 30.7 5.65 30.95 4.95 31.45 4.55 32.0 4.1 32.85 4.1 33.75 4.1 34.25 4.55 M38.3 5.25 L38.35 5.25 39.05 4.4 40.15 4.1 40.15 5.65 39.9 5.65 Q39.0 5.65 38.65 6.1 38.3 6.55 38.3 7.4 L38.3 12.8 36.7 12.8 36.7 4.2 38.3 4.2 38.3 5.25" fill="#000000" fill-opacity="0.0" fill-rule="evenodd" stroke="none"/>
    </g>
  </defs>
</svg>
