<?xml version="1.0" encoding="UTF-8" standalone="no"?>
<svg xmlns:ffdec="https://www.free-decompiler.com/flash" xmlns:xlink="http://www.w3.org/1999/xlink" ffdec:objectType="frame" height="26.05px" width="52.95px" xmlns="http://www.w3.org/2000/svg">
  <g transform="matrix(1.0, 0.0, 0.0, 1.0, 0.0, 0.0)">
    <use ffdec:characterId="3" height="26.0" transform="matrix(1.0, 0.0, 0.0, 1.0, 0.0, 0.0)" width="26.0" xlink:href="#shape0"/>
    <use ffdec:characterId="4" height="7.8" transform="matrix(1.2564, 0.0, 0.0, 1.2564, 8.25, 5.0)" width="1.1" xlink:href="#shape1"/>
    <use ffdec:characterId="5" height="12.8" transform="matrix(1.0, 0.0, 0.0, 1.0, 15.05, 7.8)" width="2.95" xlink:href="#shape2"/>
  </g>
  <defs>
    <g id="shape0" transform="matrix(1.0, 0.0, 0.0, 1.0, 0.0, 0.0)">
      <path d="M24.0 4.5 Q24.0 3.45 23.25 2.75 22.55 2.0 21.5 2.0 L4.5 2.0 Q3.45 2.0 2.75 2.75 2.0 3.45 2.0 4.5 L2.0 21.5 Q2.0 22.55 2.75 23.25 3.45 24.0 4.5 24.0 L21.5 24.0 Q22.55 24.0 23.25 23.25 24.0 22.55 24.0 21.5 L24.0 4.5 24.0 4.5" fill="#140f0a" fill-rule="evenodd" stroke="none"/>
      <path d="M23.0 5.0 Q23.0 4.15 22.4 3.6 21.85 3.0 21.0 3.0 L5.0 3.0 Q4.15 3.0 3.6 3.6 3.0 4.15 3.0 5.0 L3.0 21.0 Q3.0 21.85 3.6 22.4 4.15 23.0 5.0 23.0 L21.0 23.0 Q21.85 23.0 22.4 22.4 23.0 21.85 23.0 21.0 L23.0 5.0 23.0 5.0" fill="url(#gradient0)" fill-rule="evenodd" stroke="none"/>
    </g>
    <linearGradient gradientTransform="matrix(0.0, -0.0117, 0.0117, 0.0, 15.75, 17.15)" gradientUnits="userSpaceOnUse" id="gradient0" spreadMethod="pad" x1="-819.2" x2="819.2">
      <stop offset="0.0" stop-color="#8f7431"/>
      <stop offset="1.0" stop-color="#baa77d"/>
    </linearGradient>
    <g id="shape1" transform="matrix(1.0, 0.0, 0.0, 1.0, 0.0, 0.0)">
      <path d="M0.55 7.8 L0.2 7.6 0.0 7.15 0.2 6.75 0.55 6.55 0.95 6.75 1.1 7.15 0.95 7.6 Q0.8 7.8 0.55 7.8 M1.05 0.0 L1.05 5.85 0.1 5.85 0.1 0.0 1.05 0.0" fill="#140f0a" fill-opacity="0.99607843" fill-rule="evenodd" stroke="none"/>
    </g>
    <g id="shape2" transform="matrix(1.0, 0.0, 0.0, 1.0, 0.0, 0.0)">
      <path d="M0.0 0.0 L2.95 0.0 2.95 12.8 1.25 12.8 1.25 1.45 0.0 1.45 0.0 0.0" fill="#140f0a" fill-opacity="0.99607843" fill-rule="evenodd" stroke="none"/>
    </g>
  </defs>
</svg>
