<?xml version="1.0" encoding="UTF-8" standalone="no"?>
<svg xmlns:ffdec="https://www.free-decompiler.com/flash" xmlns:xlink="http://www.w3.org/1999/xlink" ffdec:objectType="frame" height="26.05px" width="52.95px" xmlns="http://www.w3.org/2000/svg">
  <g transform="matrix(1.0, 0.0, 0.0, 1.0, 0.0, 0.0)">
    <use ffdec:characterId="1" height="26.0" transform="matrix(1.0, 0.0, 0.0, 1.0, 0.0, 0.0)" width="35.75" xlink:href="#shape0"/>
    <use ffdec:characterId="117" height="12.95" transform="matrix(1.0, 0.0, 0.0, 1.0, 11.8, 7.2)" width="13.7" xlink:href="#shape1"/>
    <use ffdec:characterId="117" height="12.95" transform="matrix(1.0, 0.0, 0.0, 1.0, 11.0, 6.6)" width="13.7" xlink:href="#shape1"/>
  </g>
  <defs>
    <g id="shape0" transform="matrix(1.0, 0.0, 0.0, 1.0, 0.0, 0.0)">
      <path d="M33.75 4.5 Q33.75 3.45 33.0 2.75 32.3 2.0 31.25 2.0 L4.5 2.0 Q3.45 2.0 2.75 2.75 2.0 3.45 2.0 4.5 L2.0 21.5 Q2.0 22.55 2.75 23.25 3.45 24.0 4.5 24.0 L31.25 24.0 Q32.3 24.0 33.0 23.25 33.75 22.55 33.75 21.5 L33.75 4.5 33.75 4.5" fill="#140f0a" fill-rule="evenodd" stroke="none"/>
      <path d="M33.1 5.0 Q33.1 4.15 32.55 3.6 31.95 3.0 31.1 3.0 L4.85 3.0 Q4.0 3.0 3.45 3.6 2.85 4.15 2.85 5.0 L2.85 21.0 Q2.85 21.85 3.45 22.4 4.0 23.0 4.85 23.0 L31.1 23.0 Q31.95 23.0 32.55 22.4 33.1 21.85 33.1 21.0 L33.1 5.0 33.1 5.0" fill="url(#gradient0)" fill-rule="evenodd" stroke="none"/>
    </g>
    <linearGradient gradientTransform="matrix(0.0, -0.0117, 0.0177, 0.0, 15.15, 17.15)" gradientUnits="userSpaceOnUse" id="gradient0" spreadMethod="pad" x1="-819.2" x2="819.2">
      <stop offset="0.0" stop-color="#8f7431"/>
      <stop offset="1.0" stop-color="#baa77d"/>
    </linearGradient>
    <g id="shape1" transform="matrix(1.0, 0.0, 0.0, 1.0, 0.0, 0.0)">
      <path d="M0.0 0.0 L1.7 0.0 1.7 12.8 0.0 12.8 0.0 0.0 M6.25 4.15 L6.8 4.1 Q7.65 4.1 8.05 4.5 L8.5 5.6 8.55 6.9 8.55 12.8 6.95 12.8 6.95 6.85 6.9 6.25 6.65 5.75 Q6.45 5.5 6.0 5.5 5.5 5.55 5.3 5.85 5.1 6.2 5.05 6.6 L5.05 7.45 5.05 12.8 3.45 12.8 3.45 4.2 5.05 4.2 5.05 5.2 5.1 5.2 5.4 4.7 5.75 4.4 6.25 4.15 M11.85 4.1 L12.6 4.15 13.3 4.45 13.3 5.95 12.7 5.65 12.1 5.5 Q11.65 5.5 11.35 5.75 11.0 6.0 11.0 6.45 11.05 6.95 11.45 7.3 L12.35 8.05 13.25 8.95 Q13.65 9.5 13.7 10.4 13.65 11.55 13.05 12.25 12.4 12.9 11.25 12.95 L10.5 12.85 9.85 12.55 9.85 10.95 10.45 11.35 11.15 11.5 11.95 11.2 12.2 10.45 11.95 9.65 11.3 9.05 10.5 8.45 9.8 7.6 Q9.55 7.15 9.55 6.45 9.55 5.4 10.2 4.75 10.8 4.1 11.85 4.1" fill="#000000" fill-opacity="0.0" fill-rule="evenodd" stroke="none"/>
    </g>
  </defs>
</svg>
