<?xml version="1.0" encoding="UTF-8" standalone="no"?>
<svg xmlns:ffdec="https://www.free-decompiler.com/flash" xmlns:xlink="http://www.w3.org/1999/xlink" ffdec:objectType="frame" height="26.05px" width="52.95px" xmlns="http://www.w3.org/2000/svg">
  <g transform="matrix(1.0, 0.0, 0.0, 1.0, 0.0, 0.0)">
    <use ffdec:characterId="1" height="26.0" transform="matrix(1.0, 0.0, 0.0, 1.0, 0.0, 0.0)" width="35.75" xlink:href="#shape0"/>
    <use ffdec:characterId="118" height="14.25" transform="matrix(1.0, 0.0, 0.0, 1.0, 11.0, 5.9)" width="15.35" xlink:href="#shape1"/>
    <use ffdec:characterId="118" height="14.25" transform="matrix(1.0, 0.0, 0.0, 1.0, 10.2, 5.3)" width="15.35" xlink:href="#shape1"/>
  </g>
  <defs>
    <g id="shape0" transform="matrix(1.0, 0.0, 0.0, 1.0, 0.0, 0.0)">
      <path d="M33.75 4.5 Q33.75 3.45 33.0 2.75 32.3 2.0 31.25 2.0 L4.5 2.0 Q3.45 2.0 2.75 2.75 2.0 3.45 2.0 4.5 L2.0 21.5 Q2.0 22.55 2.75 23.25 3.45 24.0 4.5 24.0 L31.25 24.0 Q32.3 24.0 33.0 23.25 33.75 22.55 33.75 21.5 L33.75 4.5 33.75 4.5" fill="#140f0a" fill-rule="evenodd" stroke="none"/>
      <path d="M33.1 5.0 Q33.1 4.15 32.55 3.6 31.95 3.0 31.1 3.0 L4.85 3.0 Q4.0 3.0 3.45 3.6 2.85 4.15 2.85 5.0 L2.85 21.0 Q2.85 21.85 3.45 22.4 4.0 23.0 4.85 23.0 L31.1 23.0 Q31.95 23.0 32.55 22.4 33.1 21.85 33.1 21.0 L33.1 5.0 33.1 5.0" fill="url(#gradient0)" fill-rule="evenodd" stroke="none"/>
    </g>
    <linearGradient gradientTransform="matrix(0.0, -0.0117, 0.0177, 0.0, 15.15, 17.15)" gradientUnits="userSpaceOnUse" id="gradient0" spreadMethod="pad" x1="-819.2" x2="819.2">
      <stop offset="0.0" stop-color="#8f7431"/>
      <stop offset="1.0" stop-color="#baa77d"/>
    </linearGradient>
    <g id="shape1" transform="matrix(1.0, 0.0, 0.0, 1.0, 0.0, 0.0)">
      <path d="M3.3 3.2 Q2.75 2.7 1.7 2.75 L1.7 12.65 Q2.75 12.65 3.3 12.25 L4.1 11.15 4.35 9.6 4.35 7.9 4.35 6.25 4.1 4.5 Q3.9 3.7 3.3 3.2 M5.25 2.8 Q5.65 3.5 5.9 4.75 L6.15 7.9 5.95 10.85 5.3 12.65 4.25 13.65 2.85 14.05 1.15 14.1 0.0 14.1 0.0 1.3 1.9 1.3 3.1 1.35 4.25 1.75 Q4.8 2.05 5.25 2.8 M13.75 0.0 L15.35 0.0 15.35 14.1 13.75 14.1 13.75 0.0 M10.85 8.35 L10.75 7.65 10.45 7.05 Q10.25 6.8 9.9 6.8 9.55 6.8 9.35 7.05 L9.05 7.65 9.0 8.35 9.0 9.0 10.9 9.0 10.85 8.35 M11.0 11.2 L12.45 11.2 12.2 12.7 Q11.95 13.4 11.4 13.8 L9.95 14.25 Q9.05 14.2 8.55 13.8 L7.75 12.75 7.4 11.3 7.35 9.85 7.4 8.45 Q7.5 7.65 7.75 6.95 8.0 6.25 8.5 5.85 9.05 5.4 9.9 5.4 10.8 5.4 11.3 5.85 L12.1 6.95 12.45 8.4 12.5 9.85 12.5 10.1 9.0 10.1 9.0 10.85 9.1 11.75 9.4 12.5 Q9.6 12.8 10.0 12.8 L10.6 12.55 10.9 11.95 11.0 11.2" fill="#000000" fill-opacity="0.0" fill-rule="evenodd" stroke="none"/>
    </g>
  </defs>
</svg>
