<?xml version="1.0" encoding="UTF-8" standalone="no"?>
<svg xmlns:ffdec="https://www.free-decompiler.com/flash" xmlns:xlink="http://www.w3.org/1999/xlink" ffdec:objectType="frame" height="26.05px" width="52.95px" xmlns="http://www.w3.org/2000/svg">
  <g transform="matrix(1.0, 0.0, 0.0, 1.0, 0.0, 0.0)">
    <use ffdec:characterId="119" height="26.0" transform="matrix(1.0, 0.0, 0.0, 1.0, 0.0, 0.0)" width="26.0" xlink:href="#shape0"/>
    <use ffdec:characterId="120" height="12.8" transform="matrix(0.9293, 0.0, 0.0, 0.9326, 7.55, 8.05)" width="13.5" xlink:href="#shape1"/>
    <use ffdec:characterId="120" height="12.8" transform="matrix(1.2512, 0.0, 0.0, 1.3428, 6.65, 4.5)" width="13.5" xlink:href="#shape1"/>
  </g>
  <defs>
    <g id="shape0" transform="matrix(1.0, 0.0, 0.0, 1.0, 0.0, 0.0)">
      <path d="M24.0 13.0 Q24.0 8.45 20.8 5.2 17.55 2.0 13.0 2.0 8.45 2.0 5.2 5.2 2.0 8.45 2.0 13.0 2.0 17.55 5.2 20.8 8.45 24.0 13.0 24.0 17.55 24.0 20.8 20.8 24.0 17.55 24.0 13.0 L24.0 13.0" fill="#140f0a" fill-rule="evenodd" stroke="none"/>
      <path d="M23.0 13.0 Q23.0 8.85 20.05 5.95 17.15 3.0 13.0 3.0 8.85 3.0 5.95 5.95 3.0 8.85 3.0 13.0 3.0 17.15 5.95 20.05 8.85 23.0 13.0 23.0 17.15 23.0 20.05 20.05 23.0 17.15 23.0 13.0 L23.0 13.0" fill="url(#gradient0)" fill-rule="evenodd" stroke="none"/>
    </g>
    <linearGradient gradientTransform="matrix(0.0, -0.0121, 0.0121, 0.0, 15.0, 17.35)" gradientUnits="userSpaceOnUse" id="gradient0" spreadMethod="pad" x1="-819.2" x2="819.2">
      <stop offset="0.0" stop-color="#8f7431"/>
      <stop offset="1.0" stop-color="#baa77d"/>
    </linearGradient>
    <g id="shape1" transform="matrix(1.0, 0.0, 0.0, 1.0, 0.0, 0.0)">
      <path d="M9.85 3.25 Q9.85 1.9 8.5 0.95 7.1 0.0 5.2 0.0 3.25 0.0 1.9 0.95 0.5 1.9 0.5 3.25 0.5 4.6 1.9 5.6 3.25 6.55 5.2 6.55 7.1 6.55 8.5 5.6 9.85 4.6 9.85 3.25 L9.85 3.25" fill="#000000" fill-opacity="0.0" fill-rule="evenodd" stroke="none"/>
      <path d="M9.85 9.55 Q9.85 8.2 8.5 7.2 7.1 6.25 5.2 6.25 3.25 6.25 1.9 7.2 0.5 8.2 0.5 9.55 0.5 10.9 1.9 11.85 3.25 12.8 5.2 12.8 7.1 12.8 8.5 11.85 9.85 10.9 9.85 9.55 L9.85 9.55" fill="#000000" fill-opacity="0.0" fill-rule="evenodd" stroke="none"/>
      <path d="M0.5 3.2 L9.85 3.2 9.85 9.75 0.5 9.75 0.5 3.2 0.5 3.2" fill="#000000" fill-opacity="0.0" fill-rule="evenodd" stroke="none"/>
      <path d="M8.8 3.65 Q8.8 2.5 7.7 1.7 6.65 0.85 5.15 0.85 3.6 0.85 2.55 1.7 1.5 2.5 1.5 3.65 1.5 4.85 2.55 5.65 3.6 6.45 5.15 6.45 6.65 6.45 7.7 5.65 8.8 4.85 8.8 3.65 L8.8 3.65" fill="#000000" fill-opacity="0.0" fill-rule="evenodd" stroke="none"/>
      <path d="M8.8 9.05 Q8.8 7.9 7.7 7.05 6.65 6.25 5.15 6.25 3.6 6.25 2.55 7.05 1.5 7.9 1.5 9.05 1.5 10.2 2.55 11.0 3.6 11.85 5.15 11.85 6.65 11.85 7.7 11.0 8.8 10.2 8.8 9.05 L8.8 9.05" fill="#000000" fill-opacity="0.0" fill-rule="evenodd" stroke="none"/>
      <path d="M1.5 3.65 L8.8 3.65 8.8 9.25 1.5 9.25 1.5 3.65 1.5 3.65" fill="#000000" fill-opacity="0.0" fill-rule="evenodd" stroke="none"/>
      <path d="M1.45 5.7 L4.7 5.65 4.65 0.85 2.35 1.1 1.4 3.15 1.45 5.7" fill="#000000" fill-opacity="0.0" fill-rule="evenodd" stroke="none"/>
      <path d="M0.95 5.6 L9.3 5.6 9.3 6.55 0.95 6.55 0.95 5.6 0.95 5.6" fill="#000000" fill-opacity="0.0" fill-rule="evenodd" stroke="none"/>
      <path d="M4.65 6.05 L4.65 0.45 5.7 0.45 5.7 6.05 4.65 6.05 4.65 6.05" fill="#000000" fill-opacity="0.0" fill-rule="evenodd" stroke="none"/>
      <path d="M0.95 5.0 Q0.95 5.0 0.95 3.65 0.95 3.45 1.05 3.2 1.1 2.95 1.25 2.65 1.4 2.4 1.65 2.1 1.85 1.85 2.1 1.6 2.4 1.35 2.7 1.15 3.05 0.95 3.4 0.8 3.75 0.65 4.15 0.55 4.55 0.5 4.95 0.55" fill="none" stroke="#000000" stroke-linecap="round" stroke-linejoin="round" stroke-opacity="0.0" stroke-width="0.8"/>
    </g>
  </defs>
</svg>
