<?xml version="1.0" encoding="UTF-8" standalone="no"?>
<svg xmlns:ffdec="https://www.free-decompiler.com/flash" xmlns:xlink="http://www.w3.org/1999/xlink" ffdec:objectType="frame" height="26.05px" width="52.95px" xmlns="http://www.w3.org/2000/svg">
  <g transform="matrix(1.0, 0.0, 0.0, 1.0, 0.0, 0.0)">
    <use ffdec:characterId="121" height="26.0" transform="matrix(1.0, 0.0, 0.0, 1.0, 0.0, 0.0)" width="26.0" xlink:href="#shape0"/>
    <use ffdec:characterId="122" height="12.95" transform="matrix(1.3428, 0.0, 0.0, 1.3428, 5.8, 7.9)" width="15.55" xlink:href="#shape1"/>
    <use ffdec:characterId="122" height="12.95" transform="matrix(1.3123, 0.0, 0.0, 1.3428, 2.9, 4.5)" width="15.55" xlink:href="#shape1"/>
  </g>
  <defs>
    <g id="shape0" transform="matrix(1.0, 0.0, 0.0, 1.0, 0.0, 0.0)">
      <path d="M24.0 13.0 Q24.0 8.45 20.8 5.2 17.55 2.0 13.0 2.0 8.45 2.0 5.2 5.2 2.0 8.45 2.0 13.0 2.0 17.55 5.2 20.8 8.45 24.0 13.0 24.0 17.55 24.0 20.8 20.8 24.0 17.55 24.0 13.0 L24.0 13.0" fill="#140f0a" fill-rule="evenodd" stroke="none"/>
      <path d="M23.0 13.0 Q23.0 8.85 20.05 5.95 17.15 3.0 13.0 3.0 8.85 3.0 5.95 5.95 3.0 8.85 3.0 13.0 3.0 17.15 5.95 20.05 8.85 23.0 13.0 23.0 17.15 23.0 20.05 20.05 23.0 17.15 23.0 13.0 L23.0 13.0" fill="url(#gradient0)" fill-rule="evenodd" stroke="none"/>
    </g>
    <linearGradient gradientTransform="matrix(0.0, -0.0121, 0.0121, 0.0, 15.0, 17.35)" gradientUnits="userSpaceOnUse" id="gradient0" spreadMethod="pad" x1="-819.2" x2="819.2">
      <stop offset="0.0" stop-color="#8f7431"/>
      <stop offset="1.0" stop-color="#baa77d"/>
    </linearGradient>
    <g id="shape1" transform="matrix(1.0, 0.0, 0.0, 1.0, 0.0, 0.0)">
      <path d="M12.35 3.3 Q12.35 1.9 11.05 0.95 9.75 0.0 7.9 0.0 6.05 0.0 4.75 0.95 3.45 1.9 3.45 3.3 3.45 4.65 4.75 5.6 6.05 6.55 7.9 6.55 9.75 6.55 11.05 5.6 12.35 4.65 12.35 3.3 L12.35 3.3" fill="#000000" fill-opacity="0.0" fill-rule="evenodd" stroke="none"/>
      <path d="M12.35 9.55 Q12.35 8.2 11.05 7.25 9.75 6.3 7.9 6.3 6.05 6.3 4.75 7.25 3.45 8.2 3.45 9.55 3.45 10.95 4.75 11.9 6.05 12.85 7.9 12.85 9.75 12.85 11.05 11.9 12.35 10.95 12.35 9.55 L12.35 9.55" fill="#000000" fill-opacity="0.0" fill-rule="evenodd" stroke="none"/>
      <path d="M3.45 3.25 L12.35 3.25 12.35 9.8 3.45 9.8 3.45 3.25 3.45 3.25" fill="#000000" fill-opacity="0.0" fill-rule="evenodd" stroke="none"/>
      <path d="M11.3 3.7 Q11.3 2.5 10.3 1.7 9.3 0.85 7.85 0.85 6.4 0.85 5.4 1.7 4.4 2.5 4.4 3.7 4.4 4.85 5.4 5.7 6.4 6.5 7.85 6.5 9.3 6.5 10.3 5.7 11.3 4.85 11.3 3.7 L11.3 3.7" fill="#000000" fill-opacity="0.0" fill-rule="evenodd" stroke="none"/>
      <path d="M11.3 9.1 Q11.3 7.9 10.3 7.1 9.3 6.25 7.85 6.25 6.4 6.25 5.4 7.1 4.4 7.9 4.4 9.1 4.4 10.25 5.4 11.05 6.4 11.9 7.85 11.9 9.3 11.9 10.3 11.05 11.3 10.25 11.3 9.1 L11.3 9.1" fill="#000000" fill-opacity="0.0" fill-rule="evenodd" stroke="none"/>
      <path d="M4.4 3.65 L11.3 3.65 11.3 9.3 4.4 9.3 4.4 3.65 4.4 3.65" fill="#000000" fill-opacity="0.0" fill-rule="evenodd" stroke="none"/>
      <path d="M11.35 5.65 L8.2 5.65 8.25 0.8 10.45 1.05 11.35 3.1 11.35 5.65" fill="#000000" fill-opacity="0.0" fill-rule="evenodd" stroke="none"/>
      <path d="M3.85 5.65 L11.8 5.65 11.8 6.55 3.85 6.55 3.85 5.65 3.85 5.65" fill="#000000" fill-opacity="0.0" fill-rule="evenodd" stroke="none"/>
      <path d="M7.4 6.1 L7.4 0.45 8.4 0.45 8.4 6.1 7.4 6.1 7.4 6.1" fill="#000000" fill-opacity="0.0" fill-rule="evenodd" stroke="none"/>
      <path d="M11.8 4.95 Q11.8 4.95 11.8 3.6 11.8 3.4 11.7 3.15 11.65 2.9 11.5 2.6 11.35 2.35 11.15 2.1 10.95 1.8 10.7 1.55 10.45 1.3 10.15 1.1 9.8 0.9 9.5 0.75 9.15 0.6 8.75 0.5 8.35 0.45 8.0 0.5" fill="none" stroke="#000000" stroke-linecap="round" stroke-linejoin="round" stroke-opacity="0.0" stroke-width="0.8"/>
    </g>
  </defs>
</svg>
