<?xml version="1.0" encoding="UTF-8" standalone="no"?>
<svg xmlns:ffdec="https://www.free-decompiler.com/flash" xmlns:xlink="http://www.w3.org/1999/xlink" ffdec:objectType="frame" height="26.05px" width="52.95px" xmlns="http://www.w3.org/2000/svg">
  <g transform="matrix(1.0, 0.0, 0.0, 1.0, 0.0, 0.0)">
    <use ffdec:characterId="3" height="26.0" transform="matrix(1.0, 0.0, 0.0, 1.0, 0.0, 0.0)" width="26.0" xlink:href="#shape0"/>
    <use ffdec:characterId="123" height="13.1" transform="matrix(0.9293, 0.0, 0.0, 0.9326, 6.6, 7.9)" width="15.5" xlink:href="#shape1"/>
    <use ffdec:characterId="123" height="13.1" transform="matrix(0.9293, 0.0, 0.0, 0.9326, 5.8, 7.3)" width="15.5" xlink:href="#shape1"/>
  </g>
  <defs>
    <g id="shape0" transform="matrix(1.0, 0.0, 0.0, 1.0, 0.0, 0.0)">
      <path d="M24.0 4.5 Q24.0 3.45 23.25 2.75 22.55 2.0 21.5 2.0 L4.5 2.0 Q3.45 2.0 2.75 2.75 2.0 3.45 2.0 4.5 L2.0 21.5 Q2.0 22.55 2.75 23.25 3.45 24.0 4.5 24.0 L21.5 24.0 Q22.55 24.0 23.25 23.25 24.0 22.55 24.0 21.5 L24.0 4.5 24.0 4.5" fill="#140f0a" fill-rule="evenodd" stroke="none"/>
      <path d="M23.0 5.0 Q23.0 4.15 22.4 3.6 21.85 3.0 21.0 3.0 L5.0 3.0 Q4.15 3.0 3.6 3.6 3.0 4.15 3.0 5.0 L3.0 21.0 Q3.0 21.85 3.6 22.4 4.15 23.0 5.0 23.0 L21.0 23.0 Q21.85 23.0 22.4 22.4 23.0 21.85 23.0 21.0 L23.0 5.0 23.0 5.0" fill="url(#gradient0)" fill-rule="evenodd" stroke="none"/>
    </g>
    <linearGradient gradientTransform="matrix(0.0, -0.0117, 0.0117, 0.0, 15.75, 17.15)" gradientUnits="userSpaceOnUse" id="gradient0" spreadMethod="pad" x1="-819.2" x2="819.2">
      <stop offset="0.0" stop-color="#8f7431"/>
      <stop offset="1.0" stop-color="#baa77d"/>
    </linearGradient>
    <g id="shape1" transform="matrix(1.0, 0.0, 0.0, 1.0, 0.0, 0.0)">
      <path d="M6.05 0.15 L7.55 0.15 8.75 12.95 7.05 12.95 6.6 4.1 4.95 12.95 3.8 12.95 2.15 4.1 2.1 4.1 1.65 12.95 0.0 12.95 1.05 0.15 2.5 0.15 4.35 9.4 4.4 9.4 4.45 8.85 6.05 0.15 M15.35 3.3 L15.25 4.5 14.9 5.6 Q14.55 6.1 13.9 6.3 L13.9 6.35 14.95 7.0 15.4 8.05 15.5 9.3 15.25 11.2 Q15.0 12.05 14.35 12.6 L12.55 13.1 Q11.1 13.1 10.45 12.35 9.85 11.55 9.85 10.15 L9.85 9.75 11.5 9.75 11.5 10.15 11.6 10.85 11.9 11.35 Q12.15 11.55 12.55 11.6 L13.25 11.3 13.6 10.7 13.75 9.9 13.75 9.2 13.65 8.15 13.2 7.35 Q12.9 7.05 12.25 7.05 L11.75 7.05 11.75 5.5 11.95 5.5 13.05 5.35 13.55 4.7 13.7 3.55 13.65 2.7 13.4 1.9 Q13.2 1.5 12.7 1.5 12.3 1.5 12.05 1.8 11.85 2.05 11.8 2.45 L11.7 3.15 11.7 3.55 10.1 3.55 10.1 3.45 Q10.05 2.45 10.25 1.7 10.4 0.9 11.0 0.45 11.55 0.0 12.65 0.0 13.75 0.0 14.3 0.4 14.9 0.85 15.15 1.6 L15.35 3.3" fill="#000000" fill-opacity="0.0" fill-rule="evenodd" stroke="none"/>
    </g>
  </defs>
</svg>
