<?xml version="1.0" encoding="UTF-8" standalone="no"?>
<svg xmlns:ffdec="https://www.free-decompiler.com/flash" xmlns:xlink="http://www.w3.org/1999/xlink" ffdec:objectType="frame" height="26.05px" width="52.95px" xmlns="http://www.w3.org/2000/svg">
  <g transform="matrix(1.0, 0.0, 0.0, 1.0, 0.0, 0.0)">
    <use ffdec:characterId="3" height="26.0" transform="matrix(1.0, 0.0, 0.0, 1.0, 0.0, 0.0)" width="26.0" xlink:href="#shape0"/>
    <use ffdec:characterId="126" height="12.95" transform="matrix(0.9293, 0.0, 0.0, 0.9326, 6.6, 8.05)" width="15.4" xlink:href="#shape1"/>
    <use ffdec:characterId="126" height="12.95" transform="matrix(0.9293, 0.0, 0.0, 0.9326, 5.8, 7.45)" width="15.4" xlink:href="#shape1"/>
  </g>
  <defs>
    <g id="shape0" transform="matrix(1.0, 0.0, 0.0, 1.0, 0.0, 0.0)">
      <path d="M24.0 4.5 Q24.0 3.45 23.25 2.75 22.55 2.0 21.5 2.0 L4.5 2.0 Q3.45 2.0 2.75 2.75 2.0 3.45 2.0 4.5 L2.0 21.5 Q2.0 22.55 2.75 23.25 3.45 24.0 4.5 24.0 L21.5 24.0 Q22.55 24.0 23.25 23.25 24.0 22.55 24.0 21.5 L24.0 4.5 24.0 4.5" fill="#140f0a" fill-rule="evenodd" stroke="none"/>
      <path d="M23.0 5.0 Q23.0 4.15 22.4 3.6 21.85 3.0 21.0 3.0 L5.0 3.0 Q4.15 3.0 3.6 3.6 3.0 4.15 3.0 5.0 L3.0 21.0 Q3.0 21.85 3.6 22.4 4.15 23.0 5.0 23.0 L21.0 23.0 Q21.85 23.0 22.4 22.4 23.0 21.85 23.0 21.0 L23.0 5.0 23.0 5.0" fill="url(#gradient0)" fill-rule="evenodd" stroke="none"/>
    </g>
    <linearGradient gradientTransform="matrix(0.0, -0.0117, 0.0117, 0.0, 15.75, 17.15)" gradientUnits="userSpaceOnUse" id="gradient0" spreadMethod="pad" x1="-819.2" x2="819.2">
      <stop offset="0.0" stop-color="#8f7431"/>
      <stop offset="1.0" stop-color="#baa77d"/>
    </linearGradient>
    <g id="shape1" transform="matrix(1.0, 0.0, 0.0, 1.0, 0.0, 0.0)">
      <path d="M6.05 0.0 L7.55 0.0 8.75 12.8 7.05 12.8 6.6 3.95 4.95 12.8 3.8 12.8 2.15 3.95 2.1 3.95 1.65 12.8 0.0 12.8 1.05 0.0 2.5 0.0 4.35 9.25 4.4 9.25 4.45 8.7 6.05 0.0 M12.65 6.45 L12.4 6.45 12.05 6.7 11.75 7.45 Q11.6 8.0 11.6 8.95 L11.65 9.65 11.75 10.45 12.05 11.15 Q12.3 11.4 12.65 11.45 13.05 11.4 13.25 11.15 L13.55 10.45 13.65 9.65 13.65 8.95 13.65 8.25 13.55 7.4 13.25 6.7 Q13.05 6.45 12.65 6.45 M12.5 0.0 L14.3 0.0 11.8 5.45 11.85 5.5 12.45 5.05 13.15 4.9 Q13.95 4.95 14.4 5.3 14.85 5.7 15.1 6.35 L15.35 7.65 15.4 8.95 15.25 10.85 Q15.05 11.75 14.5 12.35 13.9 12.95 12.65 12.95 11.7 12.95 11.15 12.55 L10.3 11.55 9.95 10.15 9.9 8.6 10.1 6.25 Q10.3 5.15 10.65 4.15 L11.45 2.15 12.5 0.0" fill="#000000" fill-opacity="0.0" fill-rule="evenodd" stroke="none"/>
    </g>
  </defs>
</svg>
