<?xml version="1.0" encoding="UTF-8" standalone="no"?>
<svg xmlns:ffdec="https://www.free-decompiler.com/flash" xmlns:xlink="http://www.w3.org/1999/xlink" ffdec:objectType="frame" height="26.05px" width="52.95px" xmlns="http://www.w3.org/2000/svg">
  <g transform="matrix(1.0, 0.0, 0.0, 1.0, 0.0, 0.0)">
    <use ffdec:characterId="132" height="26.0" transform="matrix(1.0, 0.0, 0.0, 1.0, 0.05, 0.05)" width="26.0" xlink:href="#shape0"/>
    <use ffdec:characterId="133" height="15.15" transform="matrix(1.0, 0.0, 0.0, 1.0, 9.15, 5.6)" width="10.2" xlink:href="#shape1"/>
    <use ffdec:characterId="133" height="15.15" transform="matrix(1.0, 0.0, 0.0, 1.0, 8.35, 5.0)" width="10.2" xlink:href="#shape1"/>
  </g>
  <defs>
    <g id="shape0" transform="matrix(1.0, 0.0, 0.0, 1.0, -0.05, -0.05)">
      <path d="M24.05 13.05 Q24.05 8.5 20.85 5.25 17.6 2.05 13.05 2.05 8.5 2.05 5.25 5.25 2.05 8.5 2.05 13.05 2.05 17.6 5.25 20.85 8.5 24.05 13.05 24.05 17.6 24.05 20.85 20.85 24.05 17.6 24.05 13.05 L24.05 13.05" fill="#140f0a" fill-rule="evenodd" stroke="none"/>
      <path d="M23.05 13.05 Q23.05 8.9 20.1 6.0 17.2 3.05 13.05 3.05 8.9 3.05 6.0 6.0 3.05 8.9 3.05 13.05 3.05 17.2 6.0 20.1 8.9 23.05 13.05 23.05 17.2 23.05 20.1 20.1 23.05 17.2 23.05 13.05 L23.05 13.05" fill="url(#gradient0)" fill-rule="evenodd" stroke="none"/>
    </g>
    <linearGradient gradientTransform="matrix(0.0, -0.0121, 0.0121, 0.0, 15.05, 17.4)" gradientUnits="userSpaceOnUse" id="gradient0" spreadMethod="pad" x1="-819.2" x2="819.2">
      <stop offset="0.0" stop-color="#8f7431"/>
      <stop offset="1.0" stop-color="#baa77d"/>
    </linearGradient>
    <g id="shape1" transform="matrix(1.0, 0.0, 0.0, 1.0, 0.0, 0.0)">
      <path d="M0.0 2.2 L1.7 2.2 1.7 13.5 4.55 13.5 4.55 15.0 0.0 15.0 0.0 2.2 M4.45 2.35 L0.55 0.0 8.3 0.0 4.45 2.35 M7.8 2.0 L8.75 2.1 Q9.2 2.2 9.6 2.45 L9.6 4.15 9.2 3.9 8.9 3.75 8.15 3.6 7.3 3.9 7.05 4.1 Q6.8 4.4 6.7 4.8 L6.65 5.25 6.75 6.0 7.1 6.65 8.4 8.05 9.35 9.15 10.0 10.35 10.2 11.8 Q10.2 12.75 9.85 13.5 9.5 14.25 8.8 14.7 8.15 15.15 7.2 15.15 L6.2 15.0 5.35 14.55 5.35 12.85 6.1 13.3 7.0 13.5 7.85 13.25 8.35 12.6 8.5 11.7 Q8.5 10.95 8.15 10.4 L7.25 9.35 6.2 8.3 5.3 7.0 Q4.95 6.3 4.9 5.3 L4.9 5.25 4.95 4.8 5.15 3.9 5.25 3.65 5.4 3.35 5.65 2.95 5.8 2.8 6.2 2.45 Q6.85 2.0 7.8 2.0" fill="#000000" fill-opacity="0.0" fill-rule="evenodd" stroke="none"/>
    </g>
  </defs>
</svg>
