<?xml version="1.0" encoding="UTF-8" standalone="no"?>
<svg xmlns:ffdec="https://www.free-decompiler.com/flash" xmlns:xlink="http://www.w3.org/1999/xlink" ffdec:objectType="frame" height="26.05px" width="52.95px" xmlns="http://www.w3.org/2000/svg">
  <g transform="matrix(1.0, 0.0, 0.0, 1.0, 0.0, 0.0)">
    <use ffdec:characterId="3" height="26.0" transform="matrix(1.0, 0.0, 0.0, 1.0, 0.0, 0.0)" width="26.0" xlink:href="#shape0"/>
    <use ffdec:characterId="136" height="12.8" transform="matrix(0.9293, 0.0, 0.0, 0.9326, 8.1, 8.05)" width="12.3" xlink:href="#shape1"/>
    <use ffdec:characterId="136" height="12.8" transform="matrix(0.9293, 0.0, 0.0, 0.9326, 7.3, 7.45)" width="12.3" xlink:href="#shape1"/>
  </g>
  <defs>
    <g id="shape0" transform="matrix(1.0, 0.0, 0.0, 1.0, 0.0, 0.0)">
      <path d="M24.0 4.5 Q24.0 3.45 23.25 2.75 22.55 2.0 21.5 2.0 L4.5 2.0 Q3.45 2.0 2.75 2.75 2.0 3.45 2.0 4.5 L2.0 21.5 Q2.0 22.55 2.75 23.25 3.45 24.0 4.5 24.0 L21.5 24.0 Q22.55 24.0 23.25 23.25 24.0 22.55 24.0 21.5 L24.0 4.5 24.0 4.5" fill="#140f0a" fill-rule="evenodd" stroke="none"/>
      <path d="M23.0 5.0 Q23.0 4.15 22.4 3.6 21.85 3.0 21.0 3.0 L5.0 3.0 Q4.15 3.0 3.6 3.6 3.0 4.15 3.0 5.0 L3.0 21.0 Q3.0 21.85 3.6 22.4 4.15 23.0 5.0 23.0 L21.0 23.0 Q21.85 23.0 22.4 22.4 23.0 21.85 23.0 21.0 L23.0 5.0 23.0 5.0" fill="url(#gradient0)" fill-rule="evenodd" stroke="none"/>
    </g>
    <linearGradient gradientTransform="matrix(0.0, -0.0117, 0.0117, 0.0, 15.75, 17.15)" gradientUnits="userSpaceOnUse" id="gradient0" spreadMethod="pad" x1="-819.2" x2="819.2">
      <stop offset="0.0" stop-color="#8f7431"/>
      <stop offset="1.0" stop-color="#baa77d"/>
    </linearGradient>
    <g id="shape1" transform="matrix(1.0, 0.0, 0.0, 1.0, 0.0, 0.0)">
      <path d="M3.05 0.05 L4.1 0.4 4.9 1.4 Q5.2 2.05 5.2 3.25 L5.05 4.6 4.55 5.85 3.45 6.55 5.8 12.8 4.05 12.8 1.7 6.5 1.7 12.8 0.0 12.8 0.0 0.0 2.05 0.0 3.05 0.05 M3.3 2.5 L2.9 1.7 Q2.6 1.4 1.95 1.45 L1.7 1.45 1.7 5.65 Q2.65 5.7 3.05 5.15 3.4 4.6 3.4 3.65 L3.3 2.5 M10.5 9.25 L10.35 8.05 Q10.25 7.5 9.85 7.25 9.45 6.95 8.65 7.0 L8.65 11.35 9.8 11.15 10.35 10.45 10.5 9.25 M10.45 3.35 L10.3 2.4 9.85 1.7 8.95 1.45 8.65 1.45 8.65 5.65 9.8 5.35 10.35 4.55 10.45 3.35 M12.0 4.65 L11.55 5.65 10.5 6.25 10.5 6.3 11.6 6.95 12.15 8.0 12.3 9.3 Q12.35 11.05 11.6 11.95 10.85 12.8 9.1 12.8 L7.05 12.8 7.05 0.0 9.15 0.0 10.95 0.4 Q11.6 0.8 11.85 1.55 12.15 2.35 12.1 3.4 L12.0 4.65" fill="#000000" fill-opacity="0.0" fill-rule="evenodd" stroke="none"/>
    </g>
  </defs>
</svg>
