<?xml version="1.0" encoding="UTF-8" standalone="no"?>
<svg xmlns:ffdec="https://www.free-decompiler.com/flash" xmlns:xlink="http://www.w3.org/1999/xlink" ffdec:objectType="frame" height="26.05px" width="52.95px" xmlns="http://www.w3.org/2000/svg">
  <g transform="matrix(1.0, 0.0, 0.0, 1.0, 0.0, 0.0)">
    <use ffdec:characterId="132" height="26.0" transform="matrix(1.0, 0.0, 0.0, 1.0, 0.05, 0.05)" width="26.0" xlink:href="#shape0"/>
    <use ffdec:characterId="61" height="12.8" transform="matrix(1.0, 0.0, 0.0, 1.0, 10.65, 7.2)" width="6.45" xlink:href="#shape1"/>
    <use ffdec:characterId="61" height="12.8" transform="matrix(1.0, 0.0, 0.0, 1.0, 9.85, 6.6)" width="6.45" xlink:href="#shape1"/>
  </g>
  <defs>
    <g id="shape0" transform="matrix(1.0, 0.0, 0.0, 1.0, -0.05, -0.05)">
      <path d="M24.05 13.05 Q24.05 8.5 20.85 5.25 17.6 2.05 13.05 2.05 8.5 2.05 5.25 5.25 2.05 8.5 2.05 13.05 2.05 17.6 5.25 20.85 8.5 24.05 13.05 24.05 17.6 24.05 20.85 20.85 24.05 17.6 24.05 13.05 L24.05 13.05" fill="#140f0a" fill-rule="evenodd" stroke="none"/>
      <path d="M23.05 13.05 Q23.05 8.9 20.1 6.0 17.2 3.05 13.05 3.05 8.9 3.05 6.0 6.0 3.05 8.9 3.05 13.05 3.05 17.2 6.0 20.1 8.9 23.05 13.05 23.05 17.2 23.05 20.1 20.1 23.05 17.2 23.05 13.05 L23.05 13.05" fill="url(#gradient0)" fill-rule="evenodd" stroke="none"/>
    </g>
    <linearGradient gradientTransform="matrix(0.0, -0.0121, 0.0121, 0.0, 15.05, 17.4)" gradientUnits="userSpaceOnUse" id="gradient0" spreadMethod="pad" x1="-819.2" x2="819.2">
      <stop offset="0.0" stop-color="#8f7431"/>
      <stop offset="1.0" stop-color="#baa77d"/>
    </linearGradient>
    <g id="shape1" transform="matrix(1.0, 0.0, 0.0, 1.0, 0.0, 0.0)">
      <path d="M3.35 4.6 L4.75 0.0 6.45 0.0 4.1 6.3 6.45 12.8 4.75 12.8 3.95 10.55 3.55 9.3 3.25 8.0 3.2 8.0 3.1 8.75 2.9 9.5 1.85 12.8 0.0 12.8 2.45 6.3 0.15 0.0 1.85 0.0 2.65 2.25 3.05 3.4 3.35 4.6" fill="#000000" fill-opacity="0.0" fill-rule="evenodd" stroke="none"/>
    </g>
  </defs>
</svg>
