<?xml version="1.0" encoding="UTF-8" standalone="no"?>
<svg xmlns:ffdec="https://www.free-decompiler.com/flash" xmlns:xlink="http://www.w3.org/1999/xlink" ffdec:objectType="frame" height="26.05px" width="52.95px" xmlns="http://www.w3.org/2000/svg">
  <g transform="matrix(1.0, 0.0, 0.0, 1.0, 0.0, 0.0)">
    <use ffdec:characterId="27" height="26.0" transform="matrix(1.0, 0.0, 0.0, 1.0, 0.0, 0.0)" width="41.75" xlink:href="#shape0"/>
    <use ffdec:characterId="140" height="14.25" transform="matrix(1.0, 0.0, 0.0, 1.0, 6.05, 6.5)" width="31.25" xlink:href="#shape1"/>
    <use ffdec:characterId="140" height="14.25" transform="matrix(1.0, 0.0, 0.0, 1.0, 5.25, 5.9)" width="31.25" xlink:href="#shape1"/>
  </g>
  <defs>
    <g id="shape0" transform="matrix(1.0, 0.0, 0.0, 1.0, 0.0, 0.0)">
      <path d="M39.4 4.5 Q39.4 3.45 38.55 2.75 37.7 2.0 36.5 2.0 L5.25 2.0 Q4.05 2.0 3.2 2.75 2.35 3.45 2.35 4.5 L2.35 21.5 Q2.35 22.55 3.2 23.25 4.05 24.0 5.25 24.0 L36.5 24.0 Q37.7 24.0 38.55 23.25 39.4 22.55 39.4 21.5 L39.4 4.5 39.4 4.5" fill="#140f0a" fill-rule="evenodd" stroke="none"/>
      <path d="M38.25 5.0 Q38.25 4.15 37.55 3.6 36.9 3.0 35.9 3.0 L5.85 3.0 Q4.85 3.0 4.2 3.6 3.5 4.15 3.5 5.0 L3.5 21.0 Q3.5 21.85 4.2 22.4 4.85 23.0 5.85 23.0 L35.9 23.0 Q36.9 23.0 37.55 22.4 38.25 21.85 38.25 21.0 L38.25 5.0 38.25 5.0" fill="url(#gradient0)" fill-rule="evenodd" stroke="none"/>
    </g>
    <linearGradient gradientTransform="matrix(0.0, -0.0117, 0.0203, 0.0, 15.65, 17.15)" gradientUnits="userSpaceOnUse" id="gradient0" spreadMethod="pad" x1="-819.2" x2="819.2">
      <stop offset="0.0" stop-color="#8f7431"/>
      <stop offset="1.0" stop-color="#baa77d"/>
    </linearGradient>
    <g id="shape1" transform="matrix(1.0, 0.0, 0.0, 1.0, 0.0, 0.0)">
      <path d="M8.35 1.3 L10.0 1.3 7.75 14.1 6.4 14.1 5.0 4.6 3.6 14.1 2.2 14.1 0.0 1.3 1.65 1.3 2.85 9.95 2.9 10.9 2.95 10.9 4.35 1.3 5.7 1.3 7.05 10.85 7.1 10.85 8.35 1.3 M12.7 6.0 L13.05 5.7 13.55 5.45 14.1 5.4 Q14.95 5.4 15.35 5.8 L15.8 6.9 15.85 8.2 15.85 14.1 14.25 14.1 14.25 8.15 14.2 7.55 13.95 7.0 13.3 6.8 Q12.8 6.8 12.6 7.15 12.4 7.45 12.35 7.9 L12.35 8.75 12.35 14.1 10.75 14.1 10.75 0.0 12.35 0.0 12.35 6.5 12.4 6.5 12.7 6.0 M29.65 0.0 L31.25 0.0 31.25 14.1 29.65 14.1 29.65 0.0 M21.85 6.95 L22.2 8.4 22.25 9.85 22.25 10.1 18.75 10.1 18.75 10.85 18.85 11.75 19.15 12.5 Q19.35 12.8 19.75 12.8 L20.35 12.55 20.65 11.95 20.75 11.2 22.2 11.2 21.95 12.7 21.15 13.8 Q20.6 14.2 19.7 14.25 18.8 14.2 18.3 13.8 L17.5 12.75 17.15 11.3 17.1 9.85 17.15 8.45 Q17.25 7.65 17.5 6.95 17.75 6.25 18.25 5.85 18.8 5.4 19.65 5.4 20.55 5.4 21.05 5.85 L21.85 6.95 M20.6 8.35 L20.5 7.65 20.2 7.05 19.65 6.8 Q19.3 6.8 19.1 7.05 L18.8 7.65 18.75 8.35 18.75 9.0 20.65 9.0 20.6 8.35 M24.95 7.65 L24.9 8.35 24.9 9.0 26.8 9.0 26.75 8.35 26.65 7.65 26.35 7.05 Q26.15 6.8 25.8 6.8 25.45 6.8 25.25 7.05 L24.95 7.65 M25.8 5.4 Q26.7 5.4 27.2 5.85 27.7 6.25 28.0 6.95 L28.35 8.4 28.4 9.85 28.4 10.1 24.9 10.1 24.9 10.85 25.0 11.75 25.3 12.5 Q25.5 12.8 25.9 12.8 L26.5 12.55 26.8 11.95 26.9 11.2 28.35 11.2 28.1 12.7 27.3 13.8 Q26.75 14.2 25.85 14.25 24.95 14.2 24.45 13.8 23.9 13.4 23.65 12.75 L23.3 11.3 23.25 9.85 23.3 8.45 Q23.4 7.65 23.65 6.95 23.9 6.25 24.4 5.85 24.95 5.4 25.8 5.4" fill="#000000" fill-opacity="0.0" fill-rule="evenodd" stroke="none"/>
    </g>
  </defs>
</svg>
