<?xml version="1.0" encoding="UTF-8" standalone="no"?>
<svg xmlns:ffdec="https://www.free-decompiler.com/flash" xmlns:xlink="http://www.w3.org/1999/xlink" ffdec:objectType="frame" height="26.05px" width="52.95px" xmlns="http://www.w3.org/2000/svg">
  <g transform="matrix(1.0, 0.0, 0.0, 1.0, 0.0, 0.0)">
    <use ffdec:characterId="1" height="26.0" transform="matrix(1.0, 0.0, 0.0, 1.0, 0.0, 0.0)" width="35.75" xlink:href="#shape0"/>
    <use ffdec:characterId="43" height="14.25" transform="matrix(1.0, 0.0, 0.0, 1.0, 7.5, 5.9)" width="22.3" xlink:href="#shape1"/>
    <use ffdec:characterId="43" height="14.25" transform="matrix(1.0, 0.0, 0.0, 1.0, 6.7, 5.3)" width="22.3" xlink:href="#shape1"/>
  </g>
  <defs>
    <g id="shape0" transform="matrix(1.0, 0.0, 0.0, 1.0, 0.0, 0.0)">
      <path d="M33.75 4.5 Q33.75 3.45 33.0 2.75 32.3 2.0 31.25 2.0 L4.5 2.0 Q3.45 2.0 2.75 2.75 2.0 3.45 2.0 4.5 L2.0 21.5 Q2.0 22.55 2.75 23.25 3.45 24.0 4.5 24.0 L31.25 24.0 Q32.3 24.0 33.0 23.25 33.75 22.55 33.75 21.5 L33.75 4.5 33.75 4.5" fill="#140f0a" fill-rule="evenodd" stroke="none"/>
      <path d="M33.1 5.0 Q33.1 4.15 32.55 3.6 31.95 3.0 31.1 3.0 L4.85 3.0 Q4.0 3.0 3.45 3.6 2.85 4.15 2.85 5.0 L2.85 21.0 Q2.85 21.85 3.45 22.4 4.0 23.0 4.85 23.0 L31.1 23.0 Q31.95 23.0 32.55 22.4 33.1 21.85 33.1 21.0 L33.1 5.0 33.1 5.0" fill="url(#gradient0)" fill-rule="evenodd" stroke="none"/>
    </g>
    <linearGradient gradientTransform="matrix(0.0, -0.0117, 0.0177, 0.0, 15.15, 17.15)" gradientUnits="userSpaceOnUse" id="gradient0" spreadMethod="pad" x1="-819.2" x2="819.2">
      <stop offset="0.0" stop-color="#8f7431"/>
      <stop offset="1.0" stop-color="#baa77d"/>
    </linearGradient>
    <g id="shape1" transform="matrix(1.0, 0.0, 0.0, 1.0, 0.0, 0.0)">
      <path d="M0.0 1.3 L1.7 1.3 1.7 12.6 4.55 12.6 4.55 14.1 0.0 14.1 0.0 1.3 M12.7 3.1 L14.3 3.1 14.3 5.5 15.15 5.5 15.15 6.8 14.3 6.8 14.3 14.1 12.7 14.1 12.7 6.8 11.85 6.8 11.85 5.5 12.7 5.5 12.7 3.1 M11.4 3.05 L10.9 2.8 10.3 2.7 Q9.6 2.7 9.15 3.1 L8.45 4.05 8.05 5.3 7.95 6.65 7.9 7.75 7.95 9.25 8.25 10.85 Q8.5 11.65 9.0 12.15 9.5 12.65 10.4 12.65 L10.9 12.6 11.4 12.4 11.4 13.9 10.75 14.2 10.05 14.25 Q8.75 14.25 7.95 13.65 7.2 13.05 6.8 12.1 6.4 11.15 6.25 10.0 L6.1 7.9 6.15 6.2 6.45 4.4 Q6.65 3.5 7.1 2.75 7.5 2.0 8.2 1.55 8.9 1.15 9.9 1.1 L10.7 1.2 11.4 1.5 11.4 3.05 M16.15 5.5 L17.75 5.5 17.75 6.55 17.8 6.55 18.5 5.7 Q18.95 5.4 19.6 5.4 L19.6 6.95 19.35 6.95 Q18.45 6.95 18.1 7.4 17.75 7.85 17.75 8.7 L17.75 14.1 16.15 14.1 16.15 5.5 M20.7 0.0 L22.3 0.0 22.3 14.1 20.7 14.1 20.7 0.0" fill="#000000" fill-opacity="0.0" fill-rule="evenodd" stroke="none"/>
    </g>
  </defs>
</svg>
