<?xml version="1.0" encoding="UTF-8" standalone="no"?>
<svg xmlns:ffdec="https://www.free-decompiler.com/flash" xmlns:xlink="http://www.w3.org/1999/xlink" ffdec:objectType="frame" height="26.05px" width="52.95px" xmlns="http://www.w3.org/2000/svg">
  <g transform="matrix(1.0, 0.0, 0.0, 1.0, 0.0, 0.0)">
    <use ffdec:characterId="1" height="26.0" transform="matrix(1.0, 0.0, 0.0, 1.0, 0.0, 0.0)" width="35.75" xlink:href="#shape0"/>
    <use ffdec:characterId="24" height="10.25" transform="matrix(2.0714, 0.0, 0.0, 0.3756, 16.75, 15.75)" width="0.7" xlink:href="#shape1"/>
    <use ffdec:characterId="24" height="10.25" transform="matrix(2.0714, 0.0, 0.0, 0.3756, 15.95, 15.15)" width="0.7" xlink:href="#shape1"/>
  </g>
  <defs>
    <g id="shape0" transform="matrix(1.0, 0.0, 0.0, 1.0, 0.0, 0.0)">
      <path d="M33.75 4.5 Q33.75 3.45 33.0 2.75 32.3 2.0 31.25 2.0 L4.5 2.0 Q3.45 2.0 2.75 2.75 2.0 3.45 2.0 4.5 L2.0 21.5 Q2.0 22.55 2.75 23.25 3.45 24.0 4.5 24.0 L31.25 24.0 Q32.3 24.0 33.0 23.25 33.75 22.55 33.75 21.5 L33.75 4.5 33.75 4.5" fill="#140f0a" fill-rule="evenodd" stroke="none"/>
      <path d="M33.1 5.0 Q33.1 4.15 32.55 3.6 31.95 3.0 31.1 3.0 L4.85 3.0 Q4.0 3.0 3.45 3.6 2.85 4.15 2.85 5.0 L2.85 21.0 Q2.85 21.85 3.45 22.4 4.0 23.0 4.85 23.0 L31.1 23.0 Q31.95 23.0 32.55 22.4 33.1 21.85 33.1 21.0 L33.1 5.0 33.1 5.0" fill="url(#gradient0)" fill-rule="evenodd" stroke="none"/>
    </g>
    <linearGradient gradientTransform="matrix(0.0, -0.0117, 0.0177, 0.0, 15.15, 17.15)" gradientUnits="userSpaceOnUse" id="gradient0" spreadMethod="pad" x1="-819.2" x2="819.2">
      <stop offset="0.0" stop-color="#8f7431"/>
      <stop offset="1.0" stop-color="#baa77d"/>
    </linearGradient>
    <g id="shape1" transform="matrix(1.0, 0.0, 0.0, 1.0, 0.0, 0.0)">
      <path d="M0.0 10.25 L0.0 0.0 0.7 0.0 0.7 10.25 0.0 10.25" fill="#000000" fill-opacity="0.0" fill-rule="evenodd" stroke="none"/>
    </g>
  </defs>
</svg>
