<?xml version="1.0" encoding="UTF-8" standalone="no"?>
<svg xmlns:ffdec="https://www.free-decompiler.com/flash" xmlns:xlink="http://www.w3.org/1999/xlink" ffdec:objectType="frame" height="26.05px" width="52.95px" xmlns="http://www.w3.org/2000/svg">
  <g transform="matrix(1.0, 0.0, 0.0, 1.0, 0.0, 0.0)">
    <use ffdec:characterId="1" height="26.0" transform="matrix(1.0, 0.0, 0.0, 1.0, 0.0, 0.0)" width="35.75" xlink:href="#shape0"/>
    <use ffdec:characterId="143" height="12.95" transform="matrix(1.0, 0.0, 0.0, 1.0, 5.45, 7.15)" width="32.45" xlink:href="#shape1"/>
    <use ffdec:characterId="143" height="12.95" transform="matrix(1.0, 0.0, 0.0, 1.0, 4.65, 6.55)" width="32.45" xlink:href="#shape1"/>
  </g>
  <defs>
    <g id="shape0" transform="matrix(1.0, 0.0, 0.0, 1.0, 0.0, 0.0)">
      <path d="M33.75 4.5 Q33.75 3.45 33.0 2.75 32.3 2.0 31.25 2.0 L4.5 2.0 Q3.45 2.0 2.75 2.75 2.0 3.45 2.0 4.5 L2.0 21.5 Q2.0 22.55 2.75 23.25 3.45 24.0 4.5 24.0 L31.25 24.0 Q32.3 24.0 33.0 23.25 33.75 22.55 33.75 21.5 L33.75 4.5 33.75 4.5" fill="#140f0a" fill-rule="evenodd" stroke="none"/>
      <path d="M33.1 5.0 Q33.1 4.15 32.55 3.6 31.95 3.0 31.1 3.0 L4.85 3.0 Q4.0 3.0 3.45 3.6 2.85 4.15 2.85 5.0 L2.85 21.0 Q2.85 21.85 3.45 22.4 4.0 23.0 4.85 23.0 L31.1 23.0 Q31.95 23.0 32.55 22.4 33.1 21.85 33.1 21.0 L33.1 5.0 33.1 5.0" fill="url(#gradient0)" fill-rule="evenodd" stroke="none"/>
    </g>
    <linearGradient gradientTransform="matrix(0.0, -0.0117, 0.0177, 0.0, 15.15, 17.15)" gradientUnits="userSpaceOnUse" id="gradient0" spreadMethod="pad" x1="-819.2" x2="819.2">
      <stop offset="0.0" stop-color="#8f7431"/>
      <stop offset="1.0" stop-color="#baa77d"/>
    </linearGradient>
    <g id="shape1" transform="matrix(1.0, 0.0, 0.0, 1.0, 0.0, 0.0)">
      <path d="M17.95 3.5 Q17.95 2.25 16.65 1.35 15.35 0.45 13.5 0.45 11.65 0.45 10.35 1.35 9.0 2.25 9.0 3.5 9.0 4.75 10.35 5.6 11.65 6.5 13.5 6.5 15.35 6.5 16.65 5.6 17.95 4.75 17.95 3.5 L17.95 3.5" fill="#000000" fill-opacity="0.0" fill-rule="evenodd" stroke="none"/>
      <path d="M17.95 9.25 Q17.95 8.0 16.65 7.1 15.35 6.25 13.5 6.25 11.65 6.25 10.35 7.1 9.0 8.0 9.0 9.25 9.0 10.5 10.35 11.4 11.65 12.25 13.5 12.25 15.35 12.25 16.65 11.4 17.95 10.5 17.95 9.25 L17.95 9.25" fill="#000000" fill-opacity="0.0" fill-rule="evenodd" stroke="none"/>
      <path d="M9.0 3.45 L17.95 3.45 17.95 9.45 9.0 9.45 9.0 3.45 9.0 3.45" fill="#000000" fill-opacity="0.0" fill-rule="evenodd" stroke="none"/>
      <path d="M16.9 3.85 Q16.9 2.8 15.9 2.05 14.9 1.25 13.45 1.25 12.0 1.25 10.95 2.05 9.95 2.8 9.95 3.85 9.95 4.9 10.95 5.7 12.0 6.45 13.45 6.45 14.9 6.45 15.9 5.7 16.9 4.9 16.9 3.85 L16.9 3.85" fill="#000000" fill-opacity="0.0" fill-rule="evenodd" stroke="none"/>
      <path d="M16.9 8.8 Q16.9 7.75 15.9 6.95 14.9 6.2 13.45 6.2 12.0 6.2 10.95 6.95 9.95 7.75 9.95 8.8 9.95 9.85 10.95 10.6 12.0 11.4 13.45 11.4 14.9 11.4 15.9 10.6 16.9 9.85 16.9 8.8 L16.9 8.8" fill="#000000" fill-opacity="0.0" fill-rule="evenodd" stroke="none"/>
      <path d="M9.95 3.8 L16.9 3.8 16.9 9.0 9.95 9.0 9.95 3.8 9.95 3.8" fill="#000000" fill-opacity="0.0" fill-rule="evenodd" stroke="none"/>
      <path d="M9.4 5.65 L17.4 5.65 17.4 6.5 9.4 6.5 9.4 5.65 9.4 5.65" fill="#000000" fill-opacity="0.0" fill-rule="evenodd" stroke="none"/>
      <path d="M13.0 6.05 L13.0 0.9 14.0 0.9 14.0 6.05 13.0 6.05 13.0 6.05" fill="#000000" fill-opacity="0.0" fill-rule="evenodd" stroke="none"/>
      <path d="M9.45 5.05 Q9.45 5.05 9.45 3.85 9.45 3.65 9.55 3.4 9.6 3.2 9.75 2.95 9.9 2.7 10.1 2.45 10.3 2.2 10.55 1.95 10.8 1.7 11.1 1.55 11.45 1.35 11.75 1.2 12.1 1.05 12.5 1.0 12.9 0.95 13.3 0.95" fill="none" stroke="#000000" stroke-linecap="round" stroke-linejoin="round" stroke-opacity="0.0" stroke-width="0.8"/>
    </g>
  </defs>
</svg>
