<?xml version="1.0" encoding="UTF-8" standalone="no"?>
<svg xmlns:ffdec="https://www.free-decompiler.com/flash" xmlns:xlink="http://www.w3.org/1999/xlink" ffdec:objectType="frame" height="26.05px" width="52.95px" xmlns="http://www.w3.org/2000/svg">
  <g transform="matrix(1.0, 0.0, 0.0, 1.0, 0.0, 0.0)">
    <use ffdec:characterId="3" height="26.0" transform="matrix(1.0, 0.0, 0.0, 1.0, 0.0, 0.0)" width="26.0" xlink:href="#shape0"/>
    <use ffdec:characterId="6" height="8.0" transform="matrix(0.9085, 0.0, 0.0, 0.9085, 5.05, 5.0)" width="7.65" xlink:href="#shape1"/>
    <use ffdec:characterId="7" height="12.95" transform="matrix(1.0, 0.0, 0.0, 1.0, 13.65, 7.65)" width="5.75" xlink:href="#shape2"/>
  </g>
  <defs>
    <g id="shape0" transform="matrix(1.0, 0.0, 0.0, 1.0, 0.0, 0.0)">
      <path d="M24.0 4.5 Q24.0 3.45 23.25 2.75 22.55 2.0 21.5 2.0 L4.5 2.0 Q3.45 2.0 2.75 2.75 2.0 3.45 2.0 4.5 L2.0 21.5 Q2.0 22.55 2.75 23.25 3.45 24.0 4.5 24.0 L21.5 24.0 Q22.55 24.0 23.25 23.25 24.0 22.55 24.0 21.5 L24.0 4.5 24.0 4.5" fill="#140f0a" fill-rule="evenodd" stroke="none"/>
      <path d="M23.0 5.0 Q23.0 4.15 22.4 3.6 21.85 3.0 21.0 3.0 L5.0 3.0 Q4.15 3.0 3.6 3.6 3.0 4.15 3.0 5.0 L3.0 21.0 Q3.0 21.85 3.6 22.4 4.15 23.0 5.0 23.0 L21.0 23.0 Q21.85 23.0 22.4 22.4 23.0 21.85 23.0 21.0 L23.0 5.0 23.0 5.0" fill="url(#gradient0)" fill-rule="evenodd" stroke="none"/>
    </g>
    <linearGradient gradientTransform="matrix(0.0, -0.0117, 0.0117, 0.0, 15.75, 17.15)" gradientUnits="userSpaceOnUse" id="gradient0" spreadMethod="pad" x1="-819.2" x2="819.2">
      <stop offset="0.0" stop-color="#8f7431"/>
      <stop offset="1.0" stop-color="#baa77d"/>
    </linearGradient>
    <g id="shape1" transform="matrix(1.0, 0.0, 0.0, 1.0, 0.0, 0.0)">
      <path d="M4.75 3.8 L4.85 3.0 4.7 2.5 4.15 2.3 Q3.75 2.3 3.4 2.55 L2.85 3.15 2.5 4.0 2.4 4.8 2.55 5.45 3.15 5.7 3.85 5.4 4.4 4.7 4.75 3.8 M6.55 0.95 L7.35 2.0 7.65 3.35 7.45 4.35 6.95 5.35 6.15 6.1 5.15 6.4 4.6 6.3 4.25 5.85 3.65 6.25 3.0 6.4 2.25 6.15 1.7 5.6 1.55 4.8 1.7 3.7 2.25 2.7 Q2.6 2.25 3.05 1.95 L4.15 1.6 4.85 1.8 5.3 2.3 5.45 1.85 6.2 1.85 5.1 5.0 5.05 5.3 5.0 5.55 5.05 5.8 5.3 5.85 5.85 5.7 6.35 5.2 6.8 4.4 7.0 3.3 Q7.0 2.45 6.55 1.85 6.15 1.3 5.45 1.0 4.8 0.65 4.0 0.65 3.0 0.7 2.25 1.15 1.55 1.55 1.1 2.35 0.7 3.1 0.65 4.05 0.7 5.0 1.1 5.75 1.55 6.45 2.3 6.95 3.05 7.35 4.0 7.35 L5.05 7.2 6.05 6.8 6.75 6.0 7.45 6.0 6.55 7.1 Q6.0 7.55 5.35 7.8 L4.0 8.0 2.4 7.7 Q1.7 7.4 1.15 6.8 L0.3 5.55 Q0.0 4.8 0.0 4.0 0.0 3.15 0.3 2.45 L1.15 1.15 2.45 0.3 4.0 0.0 5.4 0.25 Q6.05 0.5 6.55 0.95" fill="#140f0a" fill-opacity="0.99607843" fill-rule="evenodd" stroke="none"/>
    </g>
    <g id="shape2" transform="matrix(1.0, 0.0, 0.0, 1.0, 0.0, 0.0)">
      <path d="M3.9 2.35 L3.55 1.75 Q3.3 1.5 2.85 1.5 2.45 1.5 2.2 1.8 2.0 2.1 1.95 2.55 L1.85 3.35 1.9 3.95 1.9 4.3 0.15 4.3 0.15 3.85 Q0.15 2.8 0.3 1.95 0.5 1.05 1.05 0.5 1.65 0.0 2.9 0.0 4.45 0.0 5.1 0.8 5.75 1.65 5.75 3.15 5.75 4.1 5.35 5.25 L4.5 7.45 3.55 9.4 2.45 11.45 5.65 11.45 5.65 12.95 0.0 12.95 3.1 6.35 3.7 4.75 4.0 3.05 3.9 2.35" fill="#140f0a" fill-opacity="0.99607843" fill-rule="evenodd" stroke="none"/>
    </g>
  </defs>
</svg>
