<?xml version="1.0" encoding="UTF-8" standalone="no"?>
<svg xmlns:ffdec="https://www.free-decompiler.com/flash" xmlns:xlink="http://www.w3.org/1999/xlink" ffdec:objectType="frame" height="26.05px" width="52.95px" xmlns="http://www.w3.org/2000/svg">
  <g transform="matrix(1.0, 0.0, 0.0, 1.0, 0.0, 0.0)">
    <use ffdec:characterId="132" height="26.0" transform="matrix(1.0, 0.0, 0.0, 1.0, 0.05, 0.05)" width="26.0" xlink:href="#shape0"/>
    <use ffdec:characterId="144" height="13.1" transform="matrix(1.0, 0.0, 0.0, 1.0, 8.4, 7.1)" width="10.95" xlink:href="#shape1"/>
    <use ffdec:characterId="144" height="13.1" transform="matrix(1.0, 0.0, 0.0, 1.0, 7.6, 6.5)" width="10.95" xlink:href="#shape1"/>
  </g>
  <defs>
    <g id="shape0" transform="matrix(1.0, 0.0, 0.0, 1.0, -0.05, -0.05)">
      <path d="M24.05 13.05 Q24.05 8.5 20.85 5.25 17.6 2.05 13.05 2.05 8.5 2.05 5.25 5.25 2.05 8.5 2.05 13.05 2.05 17.6 5.25 20.85 8.5 24.05 13.05 24.05 17.6 24.05 20.85 20.85 24.05 17.6 24.05 13.05 L24.05 13.05" fill="#140f0a" fill-rule="evenodd" stroke="none"/>
      <path d="M23.05 13.05 Q23.05 8.9 20.1 6.0 17.2 3.05 13.05 3.05 8.9 3.05 6.0 6.0 3.05 8.9 3.05 13.05 3.05 17.2 6.0 20.1 8.9 23.05 13.05 23.05 17.2 23.05 20.1 20.1 23.05 17.2 23.05 13.05 L23.05 13.05" fill="url(#gradient0)" fill-rule="evenodd" stroke="none"/>
    </g>
    <linearGradient gradientTransform="matrix(0.0, -0.0121, 0.0121, 0.0, 15.05, 17.4)" gradientUnits="userSpaceOnUse" id="gradient0" spreadMethod="pad" x1="-819.2" x2="819.2">
      <stop offset="0.0" stop-color="#8f7431"/>
      <stop offset="1.0" stop-color="#baa77d"/>
    </linearGradient>
    <g id="shape1" transform="matrix(1.0, 0.0, 0.0, 1.0, 0.0, 0.0)">
      <path d="M0.0 0.15 L1.7 0.15 1.7 11.45 4.55 11.45 4.55 12.95 0.0 12.95 0.0 0.15 M9.1 2.7 L8.85 1.9 Q8.65 1.5 8.15 1.5 7.75 1.5 7.5 1.8 7.3 2.05 7.25 2.45 L7.15 3.15 7.15 3.55 5.55 3.55 5.55 3.45 Q5.5 2.45 5.7 1.7 5.85 0.9 6.45 0.45 7.0 0.0 8.1 0.0 9.2 0.0 9.75 0.4 10.35 0.85 10.6 1.6 L10.8 3.3 10.7 4.5 10.35 5.6 Q10.0 6.1 9.35 6.3 L9.35 6.35 10.4 7.0 10.85 8.05 10.95 9.3 10.7 11.2 Q10.45 12.05 9.8 12.6 9.15 13.1 8.0 13.1 6.55 13.1 5.9 12.35 5.3 11.55 5.3 10.15 L5.3 9.75 6.95 9.75 6.95 10.15 7.05 10.85 7.35 11.35 8.0 11.6 8.7 11.3 9.05 10.7 9.2 9.9 9.2 9.2 9.1 8.15 8.65 7.35 7.7 7.05 7.2 7.05 7.2 5.5 7.4 5.5 8.5 5.35 9.0 4.7 9.15 3.55 9.1 2.7" fill="#000000" fill-opacity="0.0" fill-rule="evenodd" stroke="none"/>
    </g>
  </defs>
</svg>
