<?xml version="1.0" encoding="UTF-8" standalone="no"?>
<svg xmlns:ffdec="https://www.free-decompiler.com/flash" xmlns:xlink="http://www.w3.org/1999/xlink" ffdec:objectType="frame" height="26.05px" width="52.95px" xmlns="http://www.w3.org/2000/svg">
  <g transform="matrix(1.0, 0.0, 0.0, 1.0, 0.0, 0.0)">
    <use ffdec:characterId="132" height="26.0" transform="matrix(1.0, 0.0, 0.0, 1.0, 0.05, 0.05)" width="26.0" xlink:href="#shape0"/>
    <use ffdec:characterId="145" height="13.1" transform="matrix(1.0, 0.0, 0.0, 1.0, 7.7, 7.1)" width="12.35" xlink:href="#shape1"/>
    <use ffdec:characterId="145" height="13.1" transform="matrix(1.0, 0.0, 0.0, 1.0, 6.9, 6.5)" width="12.35" xlink:href="#shape1"/>
  </g>
  <defs>
    <g id="shape0" transform="matrix(1.0, 0.0, 0.0, 1.0, -0.05, -0.05)">
      <path d="M24.05 13.05 Q24.05 8.5 20.85 5.25 17.6 2.05 13.05 2.05 8.5 2.05 5.25 5.25 2.05 8.5 2.05 13.05 2.05 17.6 5.25 20.85 8.5 24.05 13.05 24.05 17.6 24.05 20.85 20.85 24.05 17.6 24.05 13.05 L24.05 13.05" fill="#140f0a" fill-rule="evenodd" stroke="none"/>
      <path d="M23.05 13.05 Q23.05 8.9 20.1 6.0 17.2 3.05 13.05 3.05 8.9 3.05 6.0 6.0 3.05 8.9 3.05 13.05 3.05 17.2 6.0 20.1 8.9 23.05 13.05 23.05 17.2 23.05 20.1 20.1 23.05 17.2 23.05 13.05 L23.05 13.05" fill="url(#gradient0)" fill-rule="evenodd" stroke="none"/>
    </g>
    <linearGradient gradientTransform="matrix(0.0, -0.0121, 0.0121, 0.0, 15.05, 17.4)" gradientUnits="userSpaceOnUse" id="gradient0" spreadMethod="pad" x1="-819.2" x2="819.2">
      <stop offset="0.0" stop-color="#8f7431"/>
      <stop offset="1.0" stop-color="#baa77d"/>
    </linearGradient>
    <g id="shape1" transform="matrix(1.0, 0.0, 0.0, 1.0, 0.0, 0.0)">
      <path d="M4.1 0.55 L4.9 1.55 Q5.2 2.2 5.2 3.4 L5.05 4.75 4.55 6.0 3.45 6.7 5.8 12.95 4.05 12.95 1.7 6.65 1.7 12.95 0.0 12.95 0.0 0.15 2.05 0.15 3.05 0.2 4.1 0.55 M3.3 2.65 L2.9 1.85 Q2.6 1.55 1.95 1.6 L1.7 1.6 1.7 5.8 Q2.65 5.85 3.05 5.3 3.4 4.75 3.4 3.8 L3.3 2.65 M10.4 4.7 L10.55 3.55 10.5 2.7 10.25 1.9 Q10.05 1.5 9.55 1.5 9.15 1.5 8.9 1.8 8.7 2.05 8.65 2.45 L8.55 3.15 8.55 3.55 6.95 3.55 6.95 3.45 Q6.9 2.45 7.1 1.7 7.25 0.9 7.85 0.45 8.4 0.0 9.5 0.0 10.6 0.0 11.15 0.4 11.75 0.85 12.0 1.6 L12.2 3.3 12.1 4.5 11.75 5.6 Q11.4 6.1 10.75 6.3 L10.75 6.35 Q11.45 6.55 11.8 7.0 L12.25 8.05 12.35 9.3 12.1 11.2 Q11.85 12.05 11.2 12.6 10.55 13.1 9.4 13.1 7.95 13.1 7.3 12.35 6.7 11.55 6.7 10.15 L6.7 9.75 8.35 9.75 8.35 10.15 8.45 10.85 8.75 11.35 9.4 11.6 10.1 11.3 10.45 10.7 10.6 9.9 10.6 9.2 10.5 8.15 10.05 7.35 Q9.75 7.05 9.1 7.05 L8.6 7.05 8.6 5.5 8.8 5.5 9.9 5.35 10.4 4.7" fill="#000000" fill-opacity="0.0" fill-rule="evenodd" stroke="none"/>
    </g>
  </defs>
</svg>
