<?xml version="1.0" encoding="UTF-8" standalone="no"?>
<svg xmlns:ffdec="https://www.free-decompiler.com/flash" xmlns:xlink="http://www.w3.org/1999/xlink" ffdec:objectType="frame" height="26.05px" width="52.95px" xmlns="http://www.w3.org/2000/svg">
  <g transform="matrix(1.0, 0.0, 0.0, 1.0, 0.0, 0.0)">
    <use ffdec:characterId="3" height="26.0" transform="matrix(1.0, 0.0, 0.0, 1.0, 0.0, 0.0)" width="26.0" xlink:href="#shape0"/>
    <use ffdec:characterId="152" height="12.95" transform="matrix(0.9293, 0.0, 0.0, 0.9326, 8.7, 8.05)" width="11.0" xlink:href="#shape1"/>
    <use ffdec:characterId="152" height="12.95" transform="matrix(0.9293, 0.0, 0.0, 0.9326, 7.9, 7.45)" width="11.0" xlink:href="#shape1"/>
  </g>
  <defs>
    <g id="shape0" transform="matrix(1.0, 0.0, 0.0, 1.0, 0.0, 0.0)">
      <path d="M24.0 4.5 Q24.0 3.45 23.25 2.75 22.55 2.0 21.5 2.0 L4.5 2.0 Q3.45 2.0 2.75 2.75 2.0 3.45 2.0 4.5 L2.0 21.5 Q2.0 22.55 2.75 23.25 3.45 24.0 4.5 24.0 L21.5 24.0 Q22.55 24.0 23.25 23.25 24.0 22.55 24.0 21.5 L24.0 4.5 24.0 4.5" fill="#140f0a" fill-rule="evenodd" stroke="none"/>
      <path d="M23.0 5.0 Q23.0 4.15 22.4 3.6 21.85 3.0 21.0 3.0 L5.0 3.0 Q4.15 3.0 3.6 3.6 3.0 4.15 3.0 5.0 L3.0 21.0 Q3.0 21.85 3.6 22.4 4.15 23.0 5.0 23.0 L21.0 23.0 Q21.85 23.0 22.4 22.4 23.0 21.85 23.0 21.0 L23.0 5.0 23.0 5.0" fill="url(#gradient0)" fill-rule="evenodd" stroke="none"/>
    </g>
    <linearGradient gradientTransform="matrix(0.0, -0.0117, 0.0117, 0.0, 15.75, 17.15)" gradientUnits="userSpaceOnUse" id="gradient0" spreadMethod="pad" x1="-819.2" x2="819.2">
      <stop offset="0.0" stop-color="#8f7431"/>
      <stop offset="1.0" stop-color="#baa77d"/>
    </linearGradient>
    <g id="shape1" transform="matrix(1.0, 0.0, 0.0, 1.0, 0.0, 0.0)">
      <path d="M0.0 0.15 L1.7 0.15 1.7 11.45 4.55 11.45 4.55 12.95 0.0 12.95 0.0 0.15 M11.0 3.15 Q11.0 4.1 10.6 5.25 L9.75 7.45 8.8 9.4 7.7 11.45 10.9 11.45 10.9 12.95 5.25 12.95 8.35 6.35 8.95 4.75 9.25 3.05 9.15 2.35 8.8 1.75 Q8.55 1.5 8.1 1.5 7.7 1.5 7.45 1.8 7.25 2.1 7.2 2.55 L7.1 3.35 7.15 3.95 7.15 4.3 5.4 4.3 5.4 3.85 Q5.4 2.8 5.55 1.95 5.75 1.05 6.3 0.5 6.9 0.0 8.15 0.0 9.7 0.0 10.35 0.8 11.0 1.65 11.0 3.15" fill="#000000" fill-opacity="0.0" fill-rule="evenodd" stroke="none"/>
    </g>
  </defs>
</svg>
