<?xml version="1.0" encoding="UTF-8" standalone="no"?>
<svg xmlns:ffdec="https://www.free-decompiler.com/flash" xmlns:xlink="http://www.w3.org/1999/xlink" ffdec:objectType="frame" height="26.05px" width="52.95px" xmlns="http://www.w3.org/2000/svg">
  <g transform="matrix(1.0, 0.0, 0.0, 1.0, 0.0, 0.0)">
    <use ffdec:characterId="3" height="26.0" transform="matrix(1.0, 0.0, 0.0, 1.0, 0.0, 0.0)" width="26.0" xlink:href="#shape0"/>
    <use ffdec:characterId="48" height="13.15" transform="matrix(1.0, 0.0, 0.0, 1.0, 10.65, 6.8)" width="6.5" xlink:href="#shape1"/>
    <use ffdec:characterId="48" height="13.15" transform="matrix(1.0, 0.0, 0.0, 1.0, 9.85, 6.2)" width="6.5" xlink:href="#shape1"/>
  </g>
  <defs>
    <g id="shape0" transform="matrix(1.0, 0.0, 0.0, 1.0, 0.0, 0.0)">
      <path d="M24.0 4.5 Q24.0 3.45 23.25 2.75 22.55 2.0 21.5 2.0 L4.5 2.0 Q3.45 2.0 2.75 2.75 2.0 3.45 2.0 4.5 L2.0 21.5 Q2.0 22.55 2.75 23.25 3.45 24.0 4.5 24.0 L21.5 24.0 Q22.55 24.0 23.25 23.25 24.0 22.55 24.0 21.5 L24.0 4.5 24.0 4.5" fill="#140f0a" fill-rule="evenodd" stroke="none"/>
      <path d="M23.0 5.0 Q23.0 4.15 22.4 3.6 21.85 3.0 21.0 3.0 L5.0 3.0 Q4.15 3.0 3.6 3.6 3.0 4.15 3.0 5.0 L3.0 21.0 Q3.0 21.85 3.6 22.4 4.15 23.0 5.0 23.0 L21.0 23.0 Q21.85 23.0 22.4 22.4 23.0 21.85 23.0 21.0 L23.0 5.0 23.0 5.0" fill="url(#gradient0)" fill-rule="evenodd" stroke="none"/>
    </g>
    <linearGradient gradientTransform="matrix(0.0, -0.0117, 0.0117, 0.0, 15.75, 17.15)" gradientUnits="userSpaceOnUse" id="gradient0" spreadMethod="pad" x1="-819.2" x2="819.2">
      <stop offset="0.0" stop-color="#8f7431"/>
      <stop offset="1.0" stop-color="#baa77d"/>
    </linearGradient>
    <g id="shape1" transform="matrix(1.0, 0.0, 0.0, 1.0, 0.0, 0.0)">
      <path d="M5.35 0.7 Q6.05 1.35 6.4 2.65 L4.75 3.3 4.55 2.5 4.1 1.85 3.3 1.6 Q2.6 1.6 2.3 2.2 2.0 2.8 1.9 3.95 L1.8 6.6 Q1.8 8.25 1.95 9.25 2.05 10.25 2.3 10.75 L2.75 11.4 3.3 11.55 3.85 11.5 4.3 11.15 4.65 10.2 4.75 8.4 4.75 7.7 3.35 7.7 3.35 6.25 6.45 6.25 6.45 6.45 6.5 8.1 6.4 9.85 5.95 11.5 5.05 12.7 3.4 13.15 Q2.3 13.15 1.6 12.65 0.9 12.15 0.55 11.25 0.25 10.35 0.1 9.15 L0.0 6.65 0.1 4.1 Q0.2 2.9 0.55 2.0 0.85 1.05 1.5 0.55 2.15 0.0 3.25 0.0 4.6 0.0 5.35 0.7" fill="#000000" fill-opacity="0.0" fill-rule="evenodd" stroke="none"/>
    </g>
  </defs>
</svg>
