<?xml version="1.0" encoding="UTF-8" standalone="no"?>
<svg xmlns:ffdec="https://www.free-decompiler.com/flash" xmlns:xlink="http://www.w3.org/1999/xlink" ffdec:objectType="frame" height="26.05px" width="52.95px" xmlns="http://www.w3.org/2000/svg">
  <g transform="matrix(1.0, 0.0, 0.0, 1.0, 0.0, 0.0)">
    <use ffdec:characterId="3" height="26.0" transform="matrix(1.0, 0.0, 0.0, 1.0, 0.0, 0.0)" width="26.0" xlink:href="#shape0"/>
    <use ffdec:characterId="53" height="5.35" transform="matrix(1.8318, 0.0, 0.0, 1.8318, 9.0, 5.6)" width="1.25" xlink:href="#shape1"/>
    <use ffdec:characterId="53" height="5.35" transform="matrix(1.8318, 0.0, 0.0, 1.8318, 8.2, 5.0)" width="1.25" xlink:href="#shape1"/>
    <use ffdec:characterId="54" height="11.85" transform="matrix(1.0, 0.0, 0.0, 1.0, 16.15, 9.7)" width="2.6" xlink:href="#shape2"/>
    <use ffdec:characterId="54" height="11.85" transform="matrix(1.0, 0.0, 0.0, 1.0, 15.35, 9.1)" width="2.6" xlink:href="#shape2"/>
  </g>
  <defs>
    <g id="shape0" transform="matrix(1.0, 0.0, 0.0, 1.0, 0.0, 0.0)">
      <path d="M24.0 4.5 Q24.0 3.45 23.25 2.75 22.55 2.0 21.5 2.0 L4.5 2.0 Q3.45 2.0 2.75 2.75 2.0 3.45 2.0 4.5 L2.0 21.5 Q2.0 22.55 2.75 23.25 3.45 24.0 4.5 24.0 L21.5 24.0 Q22.55 24.0 23.25 23.25 24.0 22.55 24.0 21.5 L24.0 4.5 24.0 4.5" fill="#140f0a" fill-rule="evenodd" stroke="none"/>
      <path d="M23.0 5.0 Q23.0 4.15 22.4 3.6 21.85 3.0 21.0 3.0 L5.0 3.0 Q4.15 3.0 3.6 3.6 3.0 4.15 3.0 5.0 L3.0 21.0 Q3.0 21.85 3.6 22.4 4.15 23.0 5.0 23.0 L21.0 23.0 Q21.85 23.0 22.4 22.4 23.0 21.85 23.0 21.0 L23.0 5.0 23.0 5.0" fill="url(#gradient0)" fill-rule="evenodd" stroke="none"/>
    </g>
    <linearGradient gradientTransform="matrix(0.0, -0.0117, 0.0117, 0.0, 15.75, 17.15)" gradientUnits="userSpaceOnUse" id="gradient0" spreadMethod="pad" x1="-819.2" x2="819.2">
      <stop offset="0.0" stop-color="#8f7431"/>
      <stop offset="1.0" stop-color="#baa77d"/>
    </linearGradient>
    <g id="shape1" transform="matrix(1.0, 0.0, 0.0, 1.0, 0.0, 0.0)">
      <path d="M0.65 5.35 Q0.35 5.35 0.2 5.15 L0.0 4.7 0.2 4.3 Q0.35 4.1 0.65 4.1 L1.05 4.3 1.25 4.7 1.05 5.15 Q0.9 5.35 0.65 5.35 M0.0 0.6 L0.2 0.2 Q0.35 0.0 0.65 0.0 L1.05 0.2 1.25 0.6 1.05 1.05 Q0.9 1.25 0.65 1.25 0.35 1.25 0.2 1.05 L0.0 0.6" fill="#000000" fill-opacity="0.0" fill-rule="evenodd" stroke="none"/>
    </g>
    <g id="shape2" transform="matrix(1.0, 0.0, 0.0, 1.0, 0.0, 0.0)">
      <path d="M2.55 7.3 L0.9 11.85 0.0 11.6 1.15 6.9 2.55 7.3 M0.6 1.0 Q0.6 0.55 0.9 0.3 1.15 0.0 1.6 0.0 2.05 0.0 2.3 0.3 L2.6 1.0 2.3 1.75 Q2.05 2.05 1.6 2.05 1.15 2.05 0.9 1.75 0.6 1.45 0.6 1.0" fill="#000000" fill-opacity="0.0" fill-rule="evenodd" stroke="none"/>
    </g>
  </defs>
</svg>
