<?xml version="1.0" encoding="UTF-8" standalone="no"?>
<svg xmlns:ffdec="https://www.free-decompiler.com/flash" xmlns:xlink="http://www.w3.org/1999/xlink" ffdec:objectType="frame" height="26.05px" width="52.95px" xmlns="http://www.w3.org/2000/svg">
  <g transform="matrix(1.0, 0.0, 0.0, 1.0, 0.0, 0.0)">
    <use ffdec:characterId="3" height="26.0" transform="matrix(1.0, 0.0, 0.0, 1.0, 0.0, 0.0)" width="26.0" xlink:href="#shape0"/>
    <use ffdec:characterId="8" height="8.8" transform="matrix(1.2273, 0.0, 0.0, 1.2273, 5.7, 4.0)" width="5.65" xlink:href="#shape1"/>
    <use ffdec:characterId="9" height="13.1" transform="matrix(1.0, 0.0, 0.0, 1.0, 13.7, 7.5)" width="5.65" xlink:href="#shape2"/>
  </g>
  <defs>
    <g id="shape0" transform="matrix(1.0, 0.0, 0.0, 1.0, 0.0, 0.0)">
      <path d="M24.0 4.5 Q24.0 3.45 23.25 2.75 22.55 2.0 21.5 2.0 L4.5 2.0 Q3.45 2.0 2.75 2.75 2.0 3.45 2.0 4.5 L2.0 21.5 Q2.0 22.55 2.75 23.25 3.45 24.0 4.5 24.0 L21.5 24.0 Q22.55 24.0 23.25 23.25 24.0 22.55 24.0 21.5 L24.0 4.5 24.0 4.5" fill="#140f0a" fill-rule="evenodd" stroke="none"/>
      <path d="M23.0 5.0 Q23.0 4.15 22.4 3.6 21.85 3.0 21.0 3.0 L5.0 3.0 Q4.15 3.0 3.6 3.6 3.0 4.15 3.0 5.0 L3.0 21.0 Q3.0 21.85 3.6 22.4 4.15 23.0 5.0 23.0 L21.0 23.0 Q21.85 23.0 22.4 22.4 23.0 21.85 23.0 21.0 L23.0 5.0 23.0 5.0" fill="url(#gradient0)" fill-rule="evenodd" stroke="none"/>
    </g>
    <linearGradient gradientTransform="matrix(0.0, -0.0117, 0.0117, 0.0, 15.75, 17.15)" gradientUnits="userSpaceOnUse" id="gradient0" spreadMethod="pad" x1="-819.2" x2="819.2">
      <stop offset="0.0" stop-color="#8f7431"/>
      <stop offset="1.0" stop-color="#baa77d"/>
    </linearGradient>
    <g id="shape1" transform="matrix(1.0, 0.0, 0.0, 1.0, 0.0, 0.0)">
      <path d="M2.55 3.65 L2.1 5.05 3.1 5.05 3.55 3.65 2.55 3.65 M4.65 0.0 L5.3 0.0 4.4 2.95 5.65 2.95 5.5 3.65 4.2 3.65 3.75 5.05 5.05 5.05 4.85 5.75 3.5 5.75 2.65 8.8 2.0 8.8 2.9 5.75 1.9 5.75 0.95 8.8 0.3 8.8 1.25 5.75 0.0 5.75 0.2 5.05 1.45 5.05 1.9 3.65 0.65 3.65 0.85 2.95 2.1 2.95 3.0 0.0 3.6 0.0 2.75 2.95 3.75 2.95 4.65 0.0" fill="#140f0a" fill-opacity="0.99607843" fill-rule="evenodd" stroke="none"/>
    </g>
    <g id="shape2" transform="matrix(1.0, 0.0, 0.0, 1.0, 0.0, 0.0)">
      <path d="M2.8 0.0 Q3.9 0.0 4.45 0.4 5.05 0.85 5.3 1.6 L5.5 3.3 5.4 4.5 5.05 5.6 4.05 6.3 4.05 6.35 5.1 7.0 5.55 8.05 5.65 9.3 5.4 11.2 Q5.15 12.05 4.5 12.6 3.85 13.1 2.7 13.1 1.25 13.1 0.6 12.35 0.0 11.55 0.0 10.15 L0.0 9.75 1.65 9.75 1.65 10.15 1.75 10.85 2.05 11.35 Q2.3 11.55 2.7 11.6 L3.4 11.3 3.75 10.7 3.9 9.9 3.9 9.2 3.8 8.15 3.35 7.35 Q3.05 7.05 2.4 7.05 L1.9 7.05 1.9 5.5 2.1 5.5 3.2 5.35 3.7 4.7 3.85 3.55 3.8 2.7 3.55 1.9 Q3.35 1.5 2.85 1.5 2.45 1.5 2.2 1.8 2.0 2.05 1.95 2.45 L1.85 3.15 1.85 3.55 0.25 3.55 0.25 3.45 Q0.2 2.45 0.4 1.7 0.55 0.9 1.15 0.45 1.7 0.0 2.8 0.0" fill="#140f0a" fill-opacity="0.99607843" fill-rule="evenodd" stroke="none"/>
    </g>
  </defs>
</svg>
