<?xml version="1.0" encoding="UTF-8" standalone="no"?>
<svg xmlns:ffdec="https://www.free-decompiler.com/flash" xmlns:xlink="http://www.w3.org/1999/xlink" ffdec:objectType="frame" height="26.05px" width="52.95px" xmlns="http://www.w3.org/2000/svg">
  <g transform="matrix(1.0, 0.0, 0.0, 1.0, 0.0, 0.0)">
    <use ffdec:characterId="3" height="26.0" transform="matrix(1.0, 0.0, 0.0, 1.0, 0.0, 0.0)" width="26.0" xlink:href="#shape0"/>
    <use ffdec:characterId="56" height="1.85" transform="matrix(1.4118, 0.0, 0.0, 1.4118, 7.5, 5.6)" width="4.25" xlink:href="#shape1"/>
    <use ffdec:characterId="56" height="1.85" transform="matrix(1.4118, 0.0, 0.0, 1.4118, 6.7, 5.0)" width="4.25" xlink:href="#shape1"/>
    <use ffdec:characterId="57" height="2.9" transform="matrix(1.0, 0.0, 0.0, 1.0, 16.75, 17.05)" width="2.55" xlink:href="#shape2"/>
    <use ffdec:characterId="57" height="2.9" transform="matrix(1.0, 0.0, 0.0, 1.0, 15.95, 16.45)" width="2.55" xlink:href="#shape2"/>
  </g>
  <defs>
    <g id="shape0" transform="matrix(1.0, 0.0, 0.0, 1.0, 0.0, 0.0)">
      <path d="M24.0 4.5 Q24.0 3.45 23.25 2.75 22.55 2.0 21.5 2.0 L4.5 2.0 Q3.45 2.0 2.75 2.75 2.0 3.45 2.0 4.5 L2.0 21.5 Q2.0 22.55 2.75 23.25 3.45 24.0 4.5 24.0 L21.5 24.0 Q22.55 24.0 23.25 23.25 24.0 22.55 24.0 21.5 L24.0 4.5 24.0 4.5" fill="#140f0a" fill-rule="evenodd" stroke="none"/>
      <path d="M23.0 5.0 Q23.0 4.15 22.4 3.6 21.85 3.0 21.0 3.0 L5.0 3.0 Q4.15 3.0 3.6 3.6 3.0 4.15 3.0 5.0 L3.0 21.0 Q3.0 21.85 3.6 22.4 4.15 23.0 5.0 23.0 L21.0 23.0 Q21.85 23.0 22.4 22.4 23.0 21.85 23.0 21.0 L23.0 5.0 23.0 5.0" fill="url(#gradient0)" fill-rule="evenodd" stroke="none"/>
    </g>
    <linearGradient gradientTransform="matrix(0.0, -0.0117, 0.0117, 0.0, 15.75, 17.15)" gradientUnits="userSpaceOnUse" id="gradient0" spreadMethod="pad" x1="-819.2" x2="819.2">
      <stop offset="0.0" stop-color="#8f7431"/>
      <stop offset="1.0" stop-color="#baa77d"/>
    </linearGradient>
    <g id="shape1" transform="matrix(1.0, 0.0, 0.0, 1.0, 0.0, 0.0)">
      <path d="M0.7 0.35 L1.25 0.15 1.7 0.25 2.2 0.5 2.7 0.75 3.1 0.85 3.45 0.75 3.7 0.4 3.9 0.0 4.25 0.5 4.0 1.05 3.6 1.45 3.1 1.65 2.7 1.55 2.3 1.4 1.95 1.2 1.6 1.0 1.25 0.95 0.85 1.1 0.55 1.45 0.4 1.85 0.0 1.4 0.3 0.8 0.7 0.35" fill="#000000" fill-opacity="0.0" fill-rule="evenodd" stroke="none"/>
    </g>
    <g id="shape2" transform="matrix(1.0, 0.0, 0.0, 1.0, 0.0, 0.0)">
      <path d="M0.0 0.7 L1.15 0.0 2.55 2.4 1.7 2.9 0.0 0.7" fill="#000000" fill-opacity="0.0" fill-rule="evenodd" stroke="none"/>
    </g>
  </defs>
</svg>
