<?xml version="1.0" encoding="UTF-8" standalone="no"?>
<svg xmlns:ffdec="https://www.free-decompiler.com/flash" xmlns:xlink="http://www.w3.org/1999/xlink" ffdec:objectType="frame" height="26.05px" width="52.95px" xmlns="http://www.w3.org/2000/svg">
  <g transform="matrix(1.0, 0.0, 0.0, 1.0, 0.0, 0.0)">
    <use ffdec:characterId="3" height="26.0" transform="matrix(1.0, 0.0, 0.0, 1.0, 0.0, 0.0)" width="26.0" xlink:href="#shape0"/>
    <use ffdec:characterId="83" height="12.95" transform="matrix(1.0, 0.0, 0.0, 1.0, 8.25, 7.2)" width="11.0" xlink:href="#shape1"/>
    <use ffdec:characterId="83" height="12.95" transform="matrix(1.0, 0.0, 0.0, 1.0, 7.45, 6.6)" width="11.0" xlink:href="#shape1"/>
  </g>
  <defs>
    <g id="shape0" transform="matrix(1.0, 0.0, 0.0, 1.0, 0.0, 0.0)">
      <path d="M24.0 4.5 Q24.0 3.45 23.25 2.75 22.55 2.0 21.5 2.0 L4.5 2.0 Q3.45 2.0 2.75 2.75 2.0 3.45 2.0 4.5 L2.0 21.5 Q2.0 22.55 2.75 23.25 3.45 24.0 4.5 24.0 L21.5 24.0 Q22.55 24.0 23.25 23.25 24.0 22.55 24.0 21.5 L24.0 4.5 24.0 4.5" fill="#140f0a" fill-rule="evenodd" stroke="none"/>
      <path d="M23.0 5.0 Q23.0 4.15 22.4 3.6 21.85 3.0 21.0 3.0 L5.0 3.0 Q4.15 3.0 3.6 3.6 3.0 4.15 3.0 5.0 L3.0 21.0 Q3.0 21.85 3.6 22.4 4.15 23.0 5.0 23.0 L21.0 23.0 Q21.85 23.0 22.4 22.4 23.0 21.85 23.0 21.0 L23.0 5.0 23.0 5.0" fill="url(#gradient0)" fill-rule="evenodd" stroke="none"/>
    </g>
    <linearGradient gradientTransform="matrix(0.0, -0.0117, 0.0117, 0.0, 15.75, 17.15)" gradientUnits="userSpaceOnUse" id="gradient0" spreadMethod="pad" x1="-819.2" x2="819.2">
      <stop offset="0.0" stop-color="#8f7431"/>
      <stop offset="1.0" stop-color="#baa77d"/>
    </linearGradient>
    <g id="shape1" transform="matrix(1.0, 0.0, 0.0, 1.0, 0.0, 0.0)">
      <path d="M8.0 6.45 Q7.85 6.5 7.65 6.7 L7.35 7.45 Q7.2 8.0 7.2 8.95 L7.25 9.65 7.35 10.45 7.65 11.15 Q7.9 11.4 8.25 11.45 8.65 11.4 8.85 11.15 L9.15 10.45 9.25 9.65 9.25 8.95 9.25 8.25 9.15 7.4 8.85 6.7 Q8.65 6.45 8.25 6.45 L8.0 6.45 M5.7 6.25 Q5.9 5.15 6.25 4.15 L7.05 2.15 8.1 0.0 9.9 0.0 7.4 5.45 7.45 5.5 8.05 5.05 8.75 4.9 Q9.55 4.95 10.0 5.3 L10.7 6.35 10.95 7.65 11.0 8.95 10.85 10.85 Q10.65 11.75 10.1 12.35 9.5 12.95 8.25 12.95 7.3 12.95 6.75 12.55 L5.9 11.55 5.55 10.15 5.5 8.6 5.7 6.25 M4.6 0.0 L4.6 1.45 1.7 1.45 1.7 5.5 4.3 5.5 4.3 6.95 1.7 6.95 1.7 12.8 0.0 12.8 0.0 0.0 4.6 0.0" fill="#000000" fill-opacity="0.0" fill-rule="evenodd" stroke="none"/>
    </g>
  </defs>
</svg>
