<?xml version="1.0" encoding="UTF-8" standalone="no"?>
<svg xmlns:ffdec="https://www.free-decompiler.com/flash" xmlns:xlink="http://www.w3.org/1999/xlink" ffdec:objectType="frame" height="26.05px" width="52.95px" xmlns="http://www.w3.org/2000/svg">
  <g transform="matrix(1.0, 0.0, 0.0, 1.0, 0.0, 0.0)">
    <use ffdec:characterId="3" height="26.0" transform="matrix(1.0, 0.0, 0.0, 1.0, 0.0, 0.0)" width="26.0" xlink:href="#shape0"/>
    <use ffdec:characterId="86" height="12.95" transform="matrix(1.0, 0.0, 0.0, 1.0, 8.25, 7.05)" width="11.0" xlink:href="#shape1"/>
    <use ffdec:characterId="86" height="12.95" transform="matrix(1.0, 0.0, 0.0, 1.0, 7.45, 6.45)" width="11.0" xlink:href="#shape1"/>
  </g>
  <defs>
    <g id="shape0" transform="matrix(1.0, 0.0, 0.0, 1.0, 0.0, 0.0)">
      <path d="M24.0 4.5 Q24.0 3.45 23.25 2.75 22.55 2.0 21.5 2.0 L4.5 2.0 Q3.45 2.0 2.75 2.75 2.0 3.45 2.0 4.5 L2.0 21.5 Q2.0 22.55 2.75 23.25 3.45 24.0 4.5 24.0 L21.5 24.0 Q22.55 24.0 23.25 23.25 24.0 22.55 24.0 21.5 L24.0 4.5 24.0 4.5" fill="#140f0a" fill-rule="evenodd" stroke="none"/>
      <path d="M23.0 5.0 Q23.0 4.15 22.4 3.6 21.85 3.0 21.0 3.0 L5.0 3.0 Q4.15 3.0 3.6 3.6 3.0 4.15 3.0 5.0 L3.0 21.0 Q3.0 21.85 3.6 22.4 4.15 23.0 5.0 23.0 L21.0 23.0 Q21.85 23.0 22.4 22.4 23.0 21.85 23.0 21.0 L23.0 5.0 23.0 5.0" fill="url(#gradient0)" fill-rule="evenodd" stroke="none"/>
    </g>
    <linearGradient gradientTransform="matrix(0.0, -0.0117, 0.0117, 0.0, 15.75, 17.15)" gradientUnits="userSpaceOnUse" id="gradient0" spreadMethod="pad" x1="-819.2" x2="819.2">
      <stop offset="0.0" stop-color="#8f7431"/>
      <stop offset="1.0" stop-color="#baa77d"/>
    </linearGradient>
    <g id="shape1" transform="matrix(1.0, 0.0, 0.0, 1.0, 0.0, 0.0)">
      <path d="M4.6 0.15 L4.6 1.6 1.7 1.6 1.7 5.65 4.3 5.65 4.3 7.1 1.7 7.1 1.7 12.95 0.0 12.95 0.0 0.15 4.6 0.15 M7.35 2.5 L7.25 3.4 7.25 4.1 7.25 4.8 7.35 5.6 7.65 6.25 Q7.85 6.55 8.25 6.55 8.65 6.55 8.85 6.25 L9.15 5.55 9.25 4.7 9.25 4.0 9.25 3.3 9.15 2.45 8.85 1.8 Q8.6 1.5 8.25 1.5 7.85 1.5 7.65 1.8 L7.35 2.5 M10.6 1.4 L10.95 2.8 11.0 4.35 10.8 6.85 10.1 9.1 9.1 11.4 8.35 12.95 6.5 12.95 9.05 7.6 9.0 7.55 8.45 7.95 7.7 8.05 Q6.95 8.05 6.55 7.7 L5.85 6.8 5.55 5.55 5.5 4.35 5.55 2.8 Q5.65 2.05 5.9 1.4 6.15 0.75 6.7 0.4 7.25 0.0 8.25 0.0 9.2 0.0 9.75 0.35 L10.6 1.4" fill="#000000" fill-opacity="0.0" fill-rule="evenodd" stroke="none"/>
    </g>
  </defs>
</svg>
