<?xml version="1.0" encoding="UTF-8" standalone="no"?>
<svg xmlns:ffdec="https://www.free-decompiler.com/flash" xmlns:xlink="http://www.w3.org/1999/xlink" ffdec:objectType="frame" height="26.05px" width="52.95px" xmlns="http://www.w3.org/2000/svg">
  <g transform="matrix(1.0, 0.0, 0.0, 1.0, 0.0, 0.0)">
    <use ffdec:characterId="1" height="26.0" transform="matrix(1.0, 0.0, 0.0, 1.0, 0.0, 0.0)" width="35.75" xlink:href="#shape0"/>
    <use ffdec:characterId="97" height="12.95" transform="matrix(1.0, 0.0, 0.0, 1.0, 8.7, 7.2)" width="19.8" xlink:href="#shape1"/>
    <use ffdec:characterId="97" height="12.95" transform="matrix(1.0, 0.0, 0.0, 1.0, 7.9, 6.6)" width="19.8" xlink:href="#shape1"/>
  </g>
  <defs>
    <g id="shape0" transform="matrix(1.0, 0.0, 0.0, 1.0, 0.0, 0.0)">
      <path d="M33.75 4.5 Q33.75 3.45 33.0 2.75 32.3 2.0 31.25 2.0 L4.5 2.0 Q3.45 2.0 2.75 2.75 2.0 3.45 2.0 4.5 L2.0 21.5 Q2.0 22.55 2.75 23.25 3.45 24.0 4.5 24.0 L31.25 24.0 Q32.3 24.0 33.0 23.25 33.75 22.55 33.75 21.5 L33.75 4.5 33.75 4.5" fill="#140f0a" fill-rule="evenodd" stroke="none"/>
      <path d="M33.1 5.0 Q33.1 4.15 32.55 3.6 31.95 3.0 31.1 3.0 L4.85 3.0 Q4.0 3.0 3.45 3.6 2.85 4.15 2.85 5.0 L2.85 21.0 Q2.85 21.85 3.45 22.4 4.0 23.0 4.85 23.0 L31.1 23.0 Q31.95 23.0 32.55 22.4 33.1 21.85 33.1 21.0 L33.1 5.0 33.1 5.0" fill="url(#gradient0)" fill-rule="evenodd" stroke="none"/>
    </g>
    <linearGradient gradientTransform="matrix(0.0, -0.0117, 0.0177, 0.0, 15.15, 17.15)" gradientUnits="userSpaceOnUse" id="gradient0" spreadMethod="pad" x1="-819.2" x2="819.2">
      <stop offset="0.0" stop-color="#8f7431"/>
      <stop offset="1.0" stop-color="#baa77d"/>
    </linearGradient>
    <g id="shape1" transform="matrix(1.0, 0.0, 0.0, 1.0, 0.0, 0.0)">
      <path d="M4.65 9.7 L4.25 0.0 5.95 0.0 5.95 12.8 4.35 12.8 1.35 2.9 1.7 12.8 0.0 12.8 0.0 0.0 1.6 0.0 4.6 9.7 4.65 9.7 M18.05 8.25 L17.95 7.4 17.65 6.7 Q17.45 6.45 17.05 6.45 L16.8 6.45 16.45 6.7 16.15 7.45 Q16.0 8.0 16.0 8.95 L16.05 9.65 16.15 10.45 16.45 11.15 Q16.7 11.4 17.05 11.45 17.45 11.4 17.65 11.15 L17.95 10.45 18.05 9.65 18.05 8.95 18.05 8.25 M13.05 1.5 L13.35 3.4 Q13.35 5.35 12.5 6.3 11.65 7.2 9.7 7.1 L9.7 12.8 8.0 12.8 8.0 0.0 10.05 0.0 11.15 0.05 12.25 0.45 13.05 1.5 M11.4 2.5 L10.95 1.7 9.95 1.45 9.7 1.45 9.7 5.7 Q10.75 5.75 11.15 5.2 11.55 4.65 11.55 3.55 L11.4 2.5 M15.85 2.15 L16.9 0.0 18.7 0.0 16.2 5.45 16.25 5.5 16.85 5.05 17.55 4.9 Q18.35 4.95 18.8 5.3 L19.5 6.35 19.75 7.65 19.8 8.95 19.65 10.85 Q19.45 11.75 18.9 12.35 18.3 12.95 17.05 12.95 16.1 12.95 15.55 12.55 L14.7 11.55 14.35 10.15 14.3 8.6 14.5 6.25 Q14.7 5.15 15.05 4.15 L15.85 2.15" fill="#000000" fill-opacity="0.0" fill-rule="evenodd" stroke="none"/>
    </g>
  </defs>
</svg>
