<?xml version="1.0" encoding="UTF-8" standalone="no"?>
<svg xmlns:ffdec="https://www.free-decompiler.com/flash" xmlns:xlink="http://www.w3.org/1999/xlink" ffdec:objectType="shape" height="13.1px" width="19.9px" xmlns="http://www.w3.org/2000/svg">
  <g transform="matrix(1.0, 0.0, 0.0, 1.0, 0.0, 0.0)">
    <path d="M4.65 9.85 L4.25 0.15 5.95 0.15 5.95 12.95 4.35 12.95 1.35 3.05 1.7 12.95 0.0 12.95 0.0 0.15 1.6 0.15 4.6 9.85 4.65 9.85 M12.25 0.6 L13.05 1.65 13.35 3.55 Q13.35 5.5 12.5 6.45 11.65 7.35 9.7 7.25 L9.7 12.95 8.0 12.95 8.0 0.15 10.05 0.15 11.15 0.2 12.25 0.6 M11.15 5.35 Q11.55 4.8 11.55 3.7 L11.4 2.65 10.95 1.85 9.95 1.6 9.7 1.6 9.7 5.85 Q10.75 5.9 11.15 5.35 M18.05 2.7 L17.8 1.9 Q17.6 1.5 17.1 1.5 16.7 1.5 16.45 1.8 16.25 2.05 16.2 2.45 L16.1 3.15 16.1 3.55 14.5 3.55 14.5 3.45 Q14.45 2.45 14.65 1.7 14.8 0.9 15.4 0.45 15.95 0.0 17.05 0.0 18.15 0.0 18.7 0.4 19.3 0.85 19.55 1.6 L19.75 3.3 19.65 4.5 19.3 5.6 Q18.95 6.1 18.3 6.3 L18.3 6.35 Q19.0 6.55 19.35 7.0 L19.8 8.05 19.9 9.3 19.65 11.2 Q19.4 12.05 18.75 12.6 18.1 13.1 16.95 13.1 15.5 13.1 14.85 12.35 14.25 11.55 14.25 10.15 L14.25 9.75 15.9 9.75 15.9 10.15 16.0 10.85 16.3 11.35 16.95 11.6 17.65 11.3 18.0 10.7 18.15 9.9 18.15 9.2 18.05 8.15 17.6 7.35 Q17.3 7.05 16.65 7.05 L16.15 7.05 16.15 5.5 16.35 5.5 17.45 5.35 17.95 4.7 18.1 3.55 18.05 2.7" fill="#d29968" fill-rule="evenodd" stroke="none"/>
  </g>
</svg>
