<?xml version="1.0" encoding="UTF-8" standalone="no"?>
<svg xmlns:ffdec="https://www.free-decompiler.com/flash" xmlns:xlink="http://www.w3.org/1999/xlink" ffdec:objectType="shape" height="12.95px" width="27.85px" xmlns="http://www.w3.org/2000/svg">
  <g transform="matrix(1.0, 0.0, 0.0, 1.0, 0.0, 0.0)">
    <path d="M1.7 5.0 L4.25 5.0 4.25 0.0 5.95 0.0 5.95 12.8 4.25 12.8 4.25 6.45 1.7 6.45 1.7 12.8 0.0 12.8 0.0 0.0 1.7 0.0 1.7 5.0 M10.85 8.55 L10.85 7.8 10.8 6.8 10.5 5.9 Q10.25 5.55 9.8 5.55 9.35 5.55 9.1 5.9 L8.8 6.8 8.7 7.8 8.75 8.55 8.7 9.25 8.8 10.25 9.1 11.1 Q9.35 11.45 9.8 11.5 10.25 11.45 10.5 11.1 L10.8 10.25 10.85 9.25 10.85 8.55 M11.25 4.5 L12.05 5.6 12.4 7.05 12.5 8.55 12.4 10.0 12.05 11.4 11.25 12.5 Q10.7 12.9 9.8 12.95 8.9 12.9 8.35 12.5 L7.5 11.4 7.15 10.0 7.1 8.55 7.15 7.05 7.5 5.6 8.35 4.5 Q8.9 4.1 9.8 4.1 10.7 4.1 11.25 4.5 M25.25 5.5 Q24.9 5.5 24.7 5.75 L24.4 6.35 24.35 7.05 24.35 7.7 26.25 7.7 26.2 7.05 26.1 6.35 25.8 5.75 Q25.6 5.5 25.25 5.5 M21.7 5.1 L21.85 6.15 21.85 12.8 20.25 12.8 20.25 6.8 20.1 5.9 Q19.95 5.5 19.4 5.5 18.85 5.5 18.6 5.8 L18.4 6.5 18.35 7.35 18.35 12.8 16.75 12.8 16.75 6.95 16.75 6.3 16.5 5.75 Q16.3 5.5 15.85 5.5 15.35 5.5 15.15 5.8 14.95 6.1 14.9 6.55 L14.9 7.35 14.9 12.8 13.3 12.8 13.3 4.2 14.9 4.2 14.9 5.25 14.95 5.25 15.6 4.4 Q16.0 4.1 16.6 4.1 17.2 4.1 17.6 4.4 18.05 4.7 18.15 5.25 L18.2 5.25 18.9 4.4 Q19.3 4.1 19.95 4.1 L21.1 4.35 21.7 5.1 M26.65 4.55 Q27.15 4.95 27.45 5.65 L27.8 7.1 27.85 8.55 27.85 8.8 24.35 8.8 24.35 9.55 24.45 10.45 24.75 11.2 Q24.95 11.5 25.35 11.5 L25.95 11.25 26.25 10.65 26.35 9.9 27.8 9.9 27.55 11.4 26.75 12.5 Q26.2 12.9 25.3 12.95 24.4 12.9 23.9 12.5 23.35 12.1 23.1 11.45 L22.75 10.0 22.7 8.55 22.75 7.15 Q22.85 6.35 23.1 5.65 23.35 4.95 23.85 4.55 24.4 4.1 25.25 4.1 26.15 4.1 26.65 4.55" fill="#d29968" fill-rule="evenodd" stroke="none"/>
  </g>
</svg>
