<?xml version="1.0" encoding="UTF-8" standalone="no"?>
<svg xmlns:ffdec="https://www.free-decompiler.com/flash" xmlns:xlink="http://www.w3.org/1999/xlink" ffdec:objectType="shape" height="14.25px" width="17.2px" xmlns="http://www.w3.org/2000/svg">
  <g transform="matrix(1.0, 0.0, 0.0, 1.0, 0.0, 0.0)">
    <path d="M4.55 1.3 L4.55 2.75 1.7 2.75 1.7 6.8 4.25 6.8 4.25 8.25 1.7 8.25 1.7 12.6 4.55 12.6 4.55 14.1 0.0 14.1 0.0 1.3 4.55 1.3 M10.65 6.9 L10.7 8.2 10.7 14.1 9.1 14.1 9.1 8.15 9.05 7.55 8.8 7.05 8.15 6.8 Q7.65 6.85 7.45 7.15 L7.2 7.9 7.2 8.75 7.2 14.1 5.6 14.1 5.6 5.5 7.2 5.5 7.2 6.5 7.25 6.5 7.55 6.0 7.9 5.7 8.4 5.45 8.95 5.4 Q9.8 5.4 10.2 5.8 L10.65 6.9 M14.65 6.8 Q14.2 6.8 13.95 7.15 L13.65 8.05 13.6 9.05 13.6 9.8 13.6 10.55 13.65 11.55 13.95 12.45 Q14.2 12.8 14.65 12.8 L15.25 12.45 15.55 11.55 15.65 10.55 15.65 9.8 15.65 9.05 15.55 8.05 15.25 7.2 Q15.0 6.8 14.65 6.8 M15.6 0.0 L17.2 0.0 17.2 14.1 15.6 14.1 15.6 13.0 15.55 13.0 14.95 13.9 13.95 14.25 Q13.25 14.2 12.8 13.75 L12.2 12.5 12.0 11.0 11.95 9.7 12.0 8.4 12.2 7.0 Q12.4 6.3 12.85 5.85 13.25 5.4 14.0 5.4 L14.95 5.65 15.55 6.45 15.6 6.45 15.6 0.0" fill="#d29968" fill-rule="evenodd" stroke="none"/>
  </g>
</svg>
