<?xml version="1.0" encoding="UTF-8" standalone="no"?>
<svg xmlns:ffdec="https://www.free-decompiler.com/flash" xmlns:xlink="http://www.w3.org/1999/xlink" ffdec:objectType="shape" height="7.9px" width="4.75px" xmlns="http://www.w3.org/2000/svg">
  <g transform="matrix(1.0, 0.0, 0.0, 1.0, 0.0, 0.0)">
    <path d="M0.8 7.8 L0.15 7.8 3.95 0.1 4.6 0.1 0.8 7.8 M4.1 5.75 L4.05 5.35 3.95 5.0 3.65 4.85 3.4 5.0 3.25 5.35 3.25 5.75 3.25 6.05 3.25 6.35 3.25 6.8 3.4 7.15 3.65 7.3 3.95 7.15 4.05 6.8 4.1 6.35 4.1 6.05 4.1 5.75 M1.3 0.75 L1.1 0.6 Q0.9 0.6 0.8 0.75 L0.7 1.1 0.65 1.5 0.65 1.8 0.65 2.15 0.7 2.55 0.8 2.9 1.1 3.05 1.3 2.9 1.45 2.55 1.45 2.15 1.45 1.8 1.45 1.5 1.45 1.1 1.3 0.75 M2.15 1.25 L2.15 1.8 2.15 2.4 2.0 3.0 1.7 3.45 1.1 3.65 0.5 3.45 0.15 3.0 0.0 2.4 0.0 1.8 0.0 1.25 0.15 0.65 0.5 0.15 1.1 0.0 1.7 0.15 2.0 0.65 2.15 1.25 M4.6 4.85 L4.7 5.45 4.75 6.05 4.7 6.65 4.6 7.25 4.25 7.7 3.65 7.9 3.05 7.7 2.75 7.25 2.6 6.65 2.6 6.05 2.6 5.45 2.75 4.85 3.05 4.4 3.65 4.2 4.25 4.4 4.6 4.85" fill="#d29968" fill-rule="evenodd" stroke="none"/>
  </g>
</svg>
