<?xml version="1.0" encoding="UTF-8" standalone="no"?>
<svg xmlns:ffdec="https://www.free-decompiler.com/flash" xmlns:xlink="http://www.w3.org/1999/xlink" ffdec:objectType="shape" height="12.95px" width="5.6px" xmlns="http://www.w3.org/2000/svg">
  <g transform="matrix(1.0, 0.0, 0.0, 1.0, 0.0, 0.0)">
    <path d="M5.45 1.45 L2.65 1.45 2.25 4.7 Q3.4 4.65 4.15 5.1 4.9 5.55 5.25 6.4 5.6 7.2 5.6 8.3 L5.45 10.0 4.85 11.5 3.7 12.55 Q3.0 12.95 2.0 12.95 L1.0 12.8 0.0 12.45 0.45 10.9 1.2 11.3 1.95 11.45 2.9 11.15 3.5 10.45 3.8 9.5 3.85 8.55 Q3.9 7.45 3.35 6.75 2.85 6.05 1.65 6.05 L1.15 6.1 0.6 6.2 1.35 0.0 5.45 0.0 5.45 1.45" fill="#d29968" fill-rule="evenodd" stroke="none"/>
  </g>
</svg>
