<?xml version="1.0" encoding="UTF-8" standalone="no"?>
<svg xmlns:ffdec="https://www.free-decompiler.com/flash" xmlns:xlink="http://www.w3.org/1999/xlink" ffdec:objectType="shape" height="12.95px" width="12.4px" xmlns="http://www.w3.org/2000/svg">
  <g transform="matrix(1.0, 0.0, 0.0, 1.0, 0.0, 0.0)">
    <path d="M3.05 0.2 L4.1 0.55 4.9 1.55 Q5.2 2.2 5.2 3.4 L5.05 4.75 4.55 6.0 3.45 6.7 5.8 12.95 4.05 12.95 1.7 6.65 1.7 12.95 0.0 12.95 0.0 0.15 2.05 0.15 3.05 0.2 M3.3 2.65 L2.9 1.85 Q2.6 1.55 1.95 1.6 L1.7 1.6 1.7 5.8 Q2.65 5.85 3.05 5.3 3.4 4.75 3.4 3.8 L3.3 2.65 M11.75 0.8 Q12.4 1.65 12.4 3.15 12.4 4.1 12.0 5.25 L11.15 7.45 10.2 9.4 9.1 11.45 12.3 11.45 12.3 12.95 6.65 12.95 9.75 6.35 10.35 4.75 10.65 3.05 10.55 2.35 10.2 1.75 Q9.95 1.5 9.5 1.5 9.1 1.5 8.85 1.8 8.65 2.1 8.6 2.55 L8.5 3.35 8.55 3.95 8.55 4.3 6.8 4.3 6.8 3.85 Q6.8 2.8 6.95 1.95 7.15 1.05 7.7 0.5 8.3 0.0 9.55 0.0 11.1 0.0 11.75 0.8" fill="#d29968" fill-rule="evenodd" stroke="none"/>
  </g>
</svg>
