<?xml version="1.0" encoding="UTF-8" standalone="no"?>
<svg xmlns:ffdec="https://www.free-decompiler.com/flash" xmlns:xlink="http://www.w3.org/1999/xlink" ffdec:objectType="shape" height="7.25px" width="4.6px" xmlns="http://www.w3.org/2000/svg">
  <g transform="matrix(1.0, 0.0, 0.0, 1.0, 0.0, 0.0)">
    <path d="M1.0 5.3 L1.15 5.8 1.45 6.2 1.9 6.35 2.35 6.2 2.65 5.85 1.6 4.05 1.15 4.6 Q1.0 4.9 1.0 5.3 M2.0 0.0 Q2.6 0.0 3.05 0.35 3.45 0.7 3.45 1.35 L3.3 2.15 2.85 2.8 2.3 3.4 3.3 5.05 3.95 4.15 4.6 4.7 3.8 5.85 4.6 7.15 3.45 7.15 3.1 6.55 2.5 7.05 1.75 7.25 Q1.25 7.25 0.85 6.95 L0.25 6.3 0.0 5.35 0.2 4.55 0.6 3.85 1.1 3.25 0.7 2.4 0.5 1.45 0.7 0.65 1.2 0.15 2.0 0.0 M2.45 0.9 Q2.3 0.75 2.05 0.75 1.75 0.75 1.6 0.95 1.45 1.15 1.45 1.4 L1.6 2.05 1.85 2.65 2.2 2.25 2.5 1.85 2.6 1.35 2.45 0.9" fill="#d29968" fill-rule="evenodd" stroke="none"/>
  </g>
</svg>
