<?xml version="1.0" encoding="UTF-8" standalone="no"?>
<svg xmlns:ffdec="https://www.free-decompiler.com/flash" xmlns:xlink="http://www.w3.org/1999/xlink" ffdec:objectType="shape" height="26.0px" width="41.75px" xmlns="http://www.w3.org/2000/svg">
  <g transform="matrix(1.0, 0.0, 0.0, 1.0, 0.0, 0.0)">
    <path d="M41.75 19.4 Q41.75 22.15 39.8 24.05 37.9 26.0 35.15 26.0 L6.55 26.0 Q3.9 26.0 1.95 24.05 0.0 22.15 0.0 19.4 L0.0 6.6 Q0.0 3.9 1.95 1.95 3.9 0.0 6.55 0.0 L35.15 0.0 Q37.9 0.0 39.8 1.95 41.75 3.9 41.75 6.6 L41.75 19.4 M40.45 6.6 Q40.45 4.4 38.9 2.8 37.3 1.3 35.15 1.3 L6.55 1.3 Q4.4 1.3 2.8 2.8 1.3 4.4 1.3 6.6 L1.3 19.4 Q1.3 21.55 2.8 23.15 4.4 24.7 6.55 24.7 L35.15 24.7 Q37.3 24.7 38.9 23.15 40.45 21.55 40.45 19.4 L40.45 6.6" fill="#000000" fill-rule="evenodd" stroke="none"/>
    <path d="M35.15 2.9 L6.55 2.9 Q5.1 2.9 3.95 4.0 2.9 5.1 2.9 6.6 L2.9 19.4 Q2.9 20.9 3.95 22.0 5.1 23.05 6.55 23.05 L35.15 23.05 Q36.65 23.05 37.7 22.0 38.8 20.9 38.8 19.4 L38.8 6.6 Q38.8 5.1 37.75 4.0 36.65 2.9 35.15 2.9 M38.9 2.8 Q40.45 4.4 40.45 6.6 L40.45 19.4 Q40.45 21.55 38.9 23.15 37.3 24.7 35.15 24.7 L6.55 24.7 Q4.4 24.7 2.8 23.15 1.3 21.55 1.3 19.4 L1.3 6.6 Q1.3 4.4 2.8 2.8 4.4 1.3 6.55 1.3 L35.15 1.3 Q37.3 1.3 38.9 2.8" fill="#d29968" fill-rule="evenodd" stroke="none"/>
    <path d="M38.85 6.6 L38.85 19.4 Q38.85 20.9 37.7 22.0 36.65 23.1 35.15 23.1 L6.6 23.1 Q5.1 23.1 4.0 22.0 2.9 20.9 2.9 19.4 L2.9 6.6 Q2.9 5.1 4.0 4.0 5.1 2.95 6.6 2.95 L35.15 2.95 Q36.65 2.95 37.75 4.0 38.85 5.1 38.85 6.6" fill="#000000" fill-rule="evenodd" stroke="none"/>
  </g>
</svg>
