<?xml version="1.0" encoding="UTF-8" standalone="no"?>
<svg xmlns:ffdec="https://www.free-decompiler.com/flash" xmlns:xlink="http://www.w3.org/1999/xlink" ffdec:objectType="shape" height="16.5px" width="22.9px" xmlns="http://www.w3.org/2000/svg">
  <g transform="matrix(1.0, 0.0, 0.0, 1.0, 0.0, 0.0)">
    <path d="M8.45 5.7 Q8.0 5.75 7.75 6.1 L7.45 6.95 7.4 7.95 7.4 8.7 7.4 9.45 7.45 10.45 7.75 11.35 Q8.0 11.7 8.45 11.7 L9.05 11.35 9.35 10.45 9.45 9.45 9.45 8.7 9.45 7.95 9.35 6.95 9.05 6.1 Q8.8 5.75 8.45 5.7 M6.0 5.9 Q6.2 5.2 6.65 4.75 7.05 4.3 7.8 4.3 8.35 4.3 8.75 4.6 L9.35 5.35 9.4 5.35 9.4 4.4 11.0 4.4 11.0 13.0 9.4 13.0 9.4 11.9 9.35 11.9 8.8 12.8 7.75 13.15 Q7.05 13.1 6.6 12.65 L6.0 11.4 5.8 9.9 5.75 8.6 5.8 7.3 6.0 5.9 M5.3 0.4 L5.3 1.95 4.8 1.7 4.2 1.6 Q3.5 1.6 3.05 2.0 L2.35 2.95 1.95 4.2 1.85 5.55 1.8 6.65 1.85 8.15 2.15 9.75 Q2.4 10.55 2.9 11.05 3.4 11.55 4.3 11.55 L4.8 11.5 5.3 11.3 5.3 12.8 4.65 13.1 3.95 13.15 Q2.65 13.15 1.85 12.55 1.1 11.95 0.7 11.0 0.3 10.05 0.15 8.9 L0.0 6.8 0.05 5.1 0.35 3.3 Q0.55 2.4 1.0 1.65 1.4 0.9 2.1 0.45 2.8 0.05 3.8 0.0 L4.6 0.1 Q4.95 0.2 5.3 0.4 M17.15 4.8 L17.75 6.0 18.0 7.5 18.0 8.8 18.0 10.1 17.75 11.5 17.1 12.65 Q16.7 13.1 15.95 13.15 L15.0 12.85 14.4 12.05 14.4 16.5 12.8 16.5 12.8 4.4 14.4 4.4 14.4 5.5 15.0 4.6 Q15.35 4.3 16.0 4.3 16.75 4.3 17.15 4.8 M16.0 6.1 L15.35 5.7 Q14.95 5.75 14.7 6.1 14.5 6.45 14.45 6.95 L14.35 7.95 14.35 8.7 14.35 9.45 14.45 10.5 Q14.5 11.0 14.7 11.35 14.95 11.7 15.35 11.7 15.85 11.7 16.05 11.25 L16.35 10.15 16.4 8.7 16.4 7.95 16.3 6.95 16.0 6.1 M21.8 4.35 L22.5 4.65 22.5 6.15 21.9 5.85 21.3 5.7 Q20.85 5.7 20.55 5.95 20.2 6.2 20.2 6.65 20.25 7.15 20.65 7.5 L21.55 8.25 22.45 9.15 Q22.85 9.7 22.9 10.6 22.85 11.75 22.25 12.45 21.6 13.1 20.45 13.15 L19.7 13.05 19.05 12.75 19.05 11.15 19.65 11.55 20.35 11.7 21.15 11.4 21.4 10.65 21.15 9.85 20.5 9.25 19.7 8.65 19.0 7.8 Q18.75 7.35 18.75 6.65 18.75 5.6 19.4 4.95 20.0 4.3 21.05 4.3 L21.8 4.35" fill="#d29968" fill-rule="evenodd" stroke="none"/>
  </g>
</svg>
