<?xml version="1.0" encoding="UTF-8" standalone="no"?>
<svg xmlns:ffdec="https://www.free-decompiler.com/flash" xmlns:xlink="http://www.w3.org/1999/xlink" ffdec:objectType="shape" height="26.0px" width="52.95px" xmlns="http://www.w3.org/2000/svg">
  <g transform="matrix(1.0, 0.0, 0.0, 1.0, 0.0, 0.0)">
    <path d="M52.95 6.6 L52.95 19.4 Q52.95 22.15 51.0 24.05 49.1 26.0 46.35 26.0 L6.55 26.0 Q3.9 26.0 1.95 24.05 0.0 22.15 0.0 19.4 L0.0 6.6 Q0.0 3.9 1.95 1.95 3.9 0.0 6.55 0.0 L46.35 0.0 Q49.1 0.0 51.0 1.95 52.95 3.9 52.95 6.6 M46.35 1.3 L6.55 1.3 Q4.4 1.3 2.8 2.8 1.3 4.4 1.3 6.6 L1.3 19.4 Q1.3 21.55 2.8 23.15 4.4 24.7 6.55 24.7 L46.35 24.7 Q48.45 24.7 50.1 23.15 51.65 21.6 51.65 19.4 L51.65 6.6 Q51.65 4.4 50.1 2.8 48.5 1.3 46.35 1.3" fill="#000000" fill-rule="evenodd" stroke="none"/>
    <path d="M46.35 2.9 L6.55 2.9 Q5.1 2.9 4.0 4.0 2.95 5.1 2.95 6.6 L2.95 19.4 Q2.95 20.9 4.0 22.0 5.1 23.05 6.55 23.05 L46.35 23.05 Q47.85 23.05 48.95 22.0 50.0 20.85 50.0 19.4 L50.0 6.6 Q50.0 5.1 48.95 4.0 47.8 2.9 46.35 2.9 M50.1 2.8 Q51.65 4.4 51.65 6.6 L51.65 19.4 Q51.65 21.6 50.1 23.15 48.45 24.7 46.35 24.7 L6.55 24.7 Q4.4 24.7 2.8 23.15 1.3 21.55 1.3 19.4 L1.3 6.6 Q1.3 4.4 2.8 2.8 4.4 1.3 6.55 1.3 L46.35 1.3 Q48.5 1.3 50.1 2.8" fill="#d29968" fill-rule="evenodd" stroke="none"/>
    <path d="M50.0 6.6 L50.0 19.4 Q50.0 20.85 48.95 22.0 47.85 23.05 46.35 23.05 L6.55 23.05 Q5.1 23.05 4.0 22.0 2.95 20.9 2.95 19.4 L2.95 6.6 Q2.95 5.1 4.0 4.0 5.1 2.9 6.55 2.9 L46.35 2.9 Q47.8 2.9 48.95 4.0 50.0 5.1 50.0 6.6" fill="#000000" fill-rule="evenodd" stroke="none"/>
  </g>
</svg>
