<?xml version="1.0" encoding="UTF-8" standalone="no"?>
<svg xmlns:ffdec="https://www.free-decompiler.com/flash" xmlns:xlink="http://www.w3.org/1999/xlink" ffdec:objectType="shape" height="13.1px" width="5.65px" xmlns="http://www.w3.org/2000/svg">
  <g transform="matrix(1.0, 0.0, 0.0, 1.0, 0.0, 0.0)">
    <path d="M2.8 0.0 Q3.9 0.0 4.45 0.4 5.05 0.85 5.3 1.6 L5.5 3.3 5.4 4.5 5.05 5.6 4.05 6.3 4.05 6.35 5.1 7.0 5.55 8.05 5.65 9.3 5.4 11.2 Q5.15 12.05 4.5 12.6 3.85 13.1 2.7 13.1 1.25 13.1 0.6 12.35 0.0 11.55 0.0 10.15 L0.0 9.75 1.65 9.75 1.65 10.15 1.75 10.85 2.05 11.35 Q2.3 11.55 2.7 11.6 L3.4 11.3 3.75 10.7 3.9 9.9 3.9 9.2 3.8 8.15 3.35 7.35 Q3.05 7.05 2.4 7.05 L1.9 7.05 1.9 5.5 2.1 5.5 3.2 5.35 3.7 4.7 3.85 3.55 3.8 2.7 3.55 1.9 Q3.35 1.5 2.85 1.5 2.45 1.5 2.2 1.8 2.0 2.05 1.95 2.45 L1.85 3.15 1.85 3.55 0.25 3.55 0.25 3.45 Q0.2 2.45 0.4 1.7 0.55 0.9 1.15 0.45 1.7 0.0 2.8 0.0" fill="#d29968" fill-rule="evenodd" stroke="none"/>
  </g>
</svg>
