<?xml version="1.0" encoding="UTF-8" standalone="no"?>
<svg xmlns:ffdec="https://www.free-decompiler.com/flash" xmlns:xlink="http://www.w3.org/1999/xlink" ffdec:objectType="frame" height="26.05px" width="52.95px" xmlns="http://www.w3.org/2000/svg">
  <g transform="matrix(1.0, 0.0, 0.0, 1.0, 0.0, 0.0)">
    <use ffdec:characterId="3" height="26.0" transform="matrix(1.0, 0.0, 0.0, 1.0, 0.0, 0.0)" width="26.0" xlink:href="#shape0"/>
    <use ffdec:characterId="20" height="9.0" transform="matrix(1.0889, 0.0, 0.0, 1.0889, 8.7, 5.6)" width="1.85" xlink:href="#shape1"/>
    <use ffdec:characterId="20" height="9.0" transform="matrix(1.0889, 0.0, 0.0, 1.0889, 7.9, 5.0)" width="1.85" xlink:href="#shape1"/>
    <use ffdec:characterId="21" height="12.95" transform="matrix(1.0, 0.0, 0.0, 1.0, 14.55, 8.25)" width="5.5" xlink:href="#shape2"/>
    <use ffdec:characterId="21" height="12.95" transform="matrix(1.0, 0.0, 0.0, 1.0, 13.75, 7.65)" width="5.5" xlink:href="#shape2"/>
  </g>
  <defs>
    <g id="shape0" transform="matrix(1.0, 0.0, 0.0, 1.0, 0.0, 0.0)">
      <path d="M2.0 2.0 L24.0 2.0 24.0 24.0 2.0 24.0 2.0 2.0" fill="url(#gradient0)" fill-rule="evenodd" stroke="none"/>
      <path d="M24.0 2.0 L22.5 3.5 3.5 3.5 2.0 2.0 24.0 2.0" fill="#d9d9d9" fill-rule="evenodd" stroke="none"/>
      <path d="M2.0 24.0 L3.5 22.5 22.5 22.5 24.0 24.0 2.0 24.0" fill="#4d4d4d" fill-rule="evenodd" stroke="none"/>
      <path d="M2.0 2.0 L3.5 3.5 3.5 22.5 2.0 24.0 2.0 2.0" fill="#808080" fill-rule="evenodd" stroke="none"/>
      <path d="M24.0 24.0 L22.5 22.5 22.5 3.5 24.0 2.0 24.0 24.0" fill="#a6a6a6" fill-rule="evenodd" stroke="none"/>
    </g>
    <linearGradient gradientTransform="matrix(0.0133, 0.0106, -0.0106, 0.0133, 13.0, 12.25)" gradientUnits="userSpaceOnUse" id="gradient0" spreadMethod="pad" x1="-819.2" x2="819.2">
      <stop offset="0.0" stop-color="#b2b2b2"/>
      <stop offset="0.06666666666666667" stop-color="#9e9e9e"/>
      <stop offset="0.13333333333333333" stop-color="#616161"/>
      <stop offset="0.39215686274509803" stop-color="#a6a6a6"/>
      <stop offset="0.6431372549019608" stop-color="#d4d4d4"/>
      <stop offset="0.7450980392156863" stop-color="#ababab"/>
      <stop offset="0.8352941176470589" stop-color="#cccccc"/>
      <stop offset="0.9607843137254902" stop-color="#b2b2b2"/>
      <stop offset="1.0" stop-color="#878787"/>
    </linearGradient>
    <g id="shape1" transform="matrix(1.0, 0.0, 0.0, 1.0, 0.0, 0.0)">
      <path d="M1.25 2.3 L0.95 4.4 1.2 6.6 1.85 8.75 0.9 9.0 0.25 6.75 0.0 4.45 Q0.0 3.3 0.25 2.2 0.45 1.05 0.9 0.0 L1.85 0.25 1.25 2.3" fill="#000000" fill-opacity="0.0" fill-rule="evenodd" stroke="none"/>
    </g>
    <g id="shape2" transform="matrix(1.0, 0.0, 0.0, 1.0, 0.0, 0.0)">
      <path d="M3.35 1.8 Q3.1 1.5 2.75 1.5 2.35 1.5 2.15 1.8 L1.85 2.5 1.75 3.4 1.75 4.1 1.75 4.8 1.85 5.6 2.15 6.25 Q2.35 6.55 2.75 6.55 3.15 6.55 3.35 6.25 L3.65 5.55 3.75 4.7 3.75 4.0 3.75 3.3 3.65 2.45 3.35 1.8 M2.75 0.0 Q3.7 0.0 4.25 0.35 L5.1 1.4 5.45 2.8 5.5 4.35 5.3 6.85 4.6 9.1 3.6 11.4 2.85 12.95 1.0 12.95 3.55 7.6 3.5 7.55 2.95 7.95 2.2 8.05 Q1.45 8.05 1.05 7.7 L0.35 6.8 0.05 5.55 0.0 4.35 0.05 2.8 Q0.15 2.05 0.4 1.4 0.65 0.75 1.2 0.4 1.75 0.0 2.75 0.0" fill="#000000" fill-opacity="0.0" fill-rule="evenodd" stroke="none"/>
    </g>
  </defs>
</svg>
