<?xml version="1.0" encoding="UTF-8" standalone="no"?>
<svg xmlns:ffdec="https://www.free-decompiler.com/flash" xmlns:xlink="http://www.w3.org/1999/xlink" ffdec:objectType="frame" height="26.05px" width="52.95px" xmlns="http://www.w3.org/2000/svg">
  <g transform="matrix(1.0, 0.0, 0.0, 1.0, 0.0, 0.0)">
    <use ffdec:characterId="3" height="26.0" transform="matrix(1.0, 0.0, 0.0, 1.0, 0.0, 0.0)" width="26.0" xlink:href="#shape0"/>
    <use ffdec:characterId="22" height="9.0" transform="matrix(1.0889, 0.0, 0.0, 1.0889, 8.7, 5.6)" width="1.9" xlink:href="#shape1"/>
    <use ffdec:characterId="22" height="9.0" transform="matrix(1.0889, 0.0, 0.0, 1.0889, 7.9, 5.0)" width="1.9" xlink:href="#shape1"/>
    <use ffdec:characterId="23" height="13.15" transform="matrix(0.8657, 0.0, 0.0, 0.9962, 14.4, 8.1)" width="6.7" xlink:href="#shape2"/>
    <use ffdec:characterId="23" height="13.15" transform="matrix(0.8657, 0.0, 0.0, 0.9962, 13.6, 7.5)" width="6.7" xlink:href="#shape2"/>
  </g>
  <defs>
    <g id="shape0" transform="matrix(1.0, 0.0, 0.0, 1.0, 0.0, 0.0)">
      <path d="M2.0 2.0 L24.0 2.0 24.0 24.0 2.0 24.0 2.0 2.0" fill="url(#gradient0)" fill-rule="evenodd" stroke="none"/>
      <path d="M24.0 2.0 L22.5 3.5 3.5 3.5 2.0 2.0 24.0 2.0" fill="#d9d9d9" fill-rule="evenodd" stroke="none"/>
      <path d="M2.0 24.0 L3.5 22.5 22.5 22.5 24.0 24.0 2.0 24.0" fill="#4d4d4d" fill-rule="evenodd" stroke="none"/>
      <path d="M2.0 2.0 L3.5 3.5 3.5 22.5 2.0 24.0 2.0 2.0" fill="#808080" fill-rule="evenodd" stroke="none"/>
      <path d="M24.0 24.0 L22.5 22.5 22.5 3.5 24.0 2.0 24.0 24.0" fill="#a6a6a6" fill-rule="evenodd" stroke="none"/>
    </g>
    <linearGradient gradientTransform="matrix(0.0133, 0.0106, -0.0106, 0.0133, 13.0, 12.25)" gradientUnits="userSpaceOnUse" id="gradient0" spreadMethod="pad" x1="-819.2" x2="819.2">
      <stop offset="0.0" stop-color="#b2b2b2"/>
      <stop offset="0.06666666666666667" stop-color="#9e9e9e"/>
      <stop offset="0.13333333333333333" stop-color="#616161"/>
      <stop offset="0.39215686274509803" stop-color="#a6a6a6"/>
      <stop offset="0.6431372549019608" stop-color="#d4d4d4"/>
      <stop offset="0.7450980392156863" stop-color="#ababab"/>
      <stop offset="0.8352941176470589" stop-color="#cccccc"/>
      <stop offset="0.9607843137254902" stop-color="#b2b2b2"/>
      <stop offset="1.0" stop-color="#878787"/>
    </linearGradient>
    <g id="shape1" transform="matrix(1.0, 0.0, 0.0, 1.0, 0.0, 0.0)">
      <path d="M0.9 4.4 L0.65 2.3 0.0 0.25 1.0 0.0 1.65 2.2 1.9 4.45 1.65 6.75 1.0 9.0 0.0 8.75 0.7 6.6 0.9 4.4" fill="#000000" fill-opacity="0.0" fill-rule="evenodd" stroke="none"/>
    </g>
    <g id="shape2" transform="matrix(1.0, 0.0, 0.0, 1.0, 0.0, 0.0)">
      <path d="M4.35 2.3 Q4.0 1.65 3.35 1.6 2.7 1.65 2.35 2.3 2.0 2.95 1.9 4.1 L1.8 6.6 1.9 9.1 Q2.0 10.2 2.35 10.9 2.7 11.55 3.35 11.55 4.0 11.55 4.35 10.9 L4.8 9.1 4.9 6.6 4.8 4.1 4.35 2.3 M3.35 0.0 Q4.35 0.05 4.95 0.45 L5.95 1.65 6.45 3.3 6.65 5.0 6.7 6.6 6.65 8.15 6.45 9.9 5.95 11.5 4.95 12.7 Q4.35 13.15 3.35 13.15 2.35 13.15 1.75 12.7 1.1 12.25 0.75 11.5 L0.25 9.9 0.05 8.15 0.0 6.6 0.05 5.0 0.25 3.3 Q0.4 2.4 0.75 1.65 1.1 0.9 1.75 0.45 2.35 0.05 3.35 0.0" fill="#000000" fill-opacity="0.0" fill-rule="evenodd" stroke="none"/>
    </g>
  </defs>
</svg>
