<?xml version="1.0" encoding="UTF-8" standalone="no"?>
<svg xmlns:ffdec="https://www.free-decompiler.com/flash" xmlns:xlink="http://www.w3.org/1999/xlink" ffdec:objectType="frame" height="26.05px" width="52.95px" xmlns="http://www.w3.org/2000/svg">
  <g transform="matrix(1.0, 0.0, 0.0, 1.0, 0.0, 0.0)">
    <use ffdec:characterId="1" height="26.0" transform="matrix(1.0, 0.0, 0.0, 1.0, 0.0, 0.0)" width="35.75" xlink:href="#shape0"/>
    <use ffdec:characterId="29" height="14.25" transform="matrix(1.0, 0.0, 0.0, 1.0, 10.1, 5.85)" width="17.15" xlink:href="#shape1"/>
    <use ffdec:characterId="29" height="14.25" transform="matrix(1.0, 0.0, 0.0, 1.0, 9.3, 5.25)" width="17.15" xlink:href="#shape1"/>
  </g>
  <defs>
    <g id="shape0" transform="matrix(1.0, 0.0, 0.0, 1.0, 0.0, 0.0)">
      <path d="M2.0 2.0 L2.0 24.0 33.75 24.0 33.75 2.0 2.0 2.0" fill="url(#gradient0)" fill-rule="evenodd" stroke="none"/>
      <path d="M2.0 2.0 L3.5 3.5 3.5 22.5 2.0 24.0 2.0 2.0" fill="#7f7f7f" fill-opacity="0.99607843" fill-rule="evenodd" stroke="none"/>
      <path d="M33.75 24.0 L32.25 22.5 32.25 3.5 33.75 2.0 33.75 24.0" fill="#a5a5a5" fill-opacity="0.99607843" fill-rule="evenodd" stroke="none"/>
      <path d="M2.0 24.0 L3.5 22.5 32.25 22.5 33.75 24.0 2.0 24.0" fill="#4c4c4c" fill-opacity="0.99607843" fill-rule="evenodd" stroke="none"/>
      <path d="M33.75 2.0 L32.25 3.5 3.5 3.5 2.0 2.0 33.75 2.0" fill="#d8d8d8" fill-opacity="0.99607843" fill-rule="evenodd" stroke="none"/>
    </g>
    <linearGradient gradientTransform="matrix(0.0194, 0.0134, -0.0134, 0.0194, 17.85, 13.0)" gradientUnits="userSpaceOnUse" id="gradient0" spreadMethod="pad" x1="-819.2" x2="819.2">
      <stop offset="0.0" stop-color="#727272" stop-opacity="0.99607843"/>
      <stop offset="0.08235294117647059" stop-color="#b1b1b1" stop-opacity="0.99607843"/>
      <stop offset="0.20392156862745098" stop-color="#898989" stop-opacity="0.99607843"/>
      <stop offset="0.2901960784313726" stop-color="#b1b1b1" stop-opacity="0.99607843"/>
      <stop offset="0.5450980392156862" stop-color="#d3d3d3" stop-opacity="0.99607843"/>
      <stop offset="0.6196078431372549" stop-color="#b9b9b9" stop-opacity="0.99607843"/>
      <stop offset="0.792156862745098" stop-color="#989898" stop-opacity="0.99607843"/>
      <stop offset="0.8941176470588236" stop-color="#8b8b8b" stop-opacity="0.99607843"/>
      <stop offset="0.9254901960784314" stop-color="#afafaf" stop-opacity="0.99607843"/>
      <stop offset="1.0" stop-color="#626262" stop-opacity="0.99607843"/>
    </linearGradient>
    <g id="shape1" transform="matrix(1.0, 0.0, 0.0, 1.0, 0.0, 0.0)">
      <path d="M8.85 8.05 L8.55 7.2 Q8.3 6.85 7.95 6.8 7.5 6.85 7.25 7.2 L6.95 8.05 6.9 9.05 6.9 9.8 6.9 10.55 6.95 11.55 7.25 12.45 Q7.5 12.8 7.95 12.8 L8.55 12.45 8.85 11.55 8.95 10.55 8.95 9.8 8.95 9.05 8.85 8.05 M5.6 1.3 L5.6 2.75 3.7 2.75 3.7 14.1 2.0 14.1 2.0 2.75 0.0 2.75 0.0 1.3 5.6 1.3 M7.3 5.4 Q7.85 5.4 8.25 5.7 L8.85 6.45 8.9 6.45 8.9 5.5 10.5 5.5 10.5 14.1 8.9 14.1 8.9 13.0 8.85 13.0 8.3 13.9 Q7.95 14.25 7.25 14.25 6.55 14.2 6.1 13.75 L5.5 12.5 5.3 11.0 5.25 9.7 5.3 8.4 5.5 7.0 Q5.7 6.3 6.15 5.85 6.55 5.4 7.3 5.4 M13.85 7.2 Q13.65 7.55 13.6 8.05 L13.5 9.05 13.5 9.8 13.5 10.55 13.6 11.55 13.85 12.4 Q14.1 12.8 14.5 12.8 14.9 12.8 15.15 12.4 L15.45 11.55 15.55 10.55 15.55 9.8 15.55 9.05 15.45 8.05 15.15 7.15 Q14.9 6.8 14.5 6.8 14.1 6.8 13.85 7.2 M11.95 0.0 L13.55 0.0 13.55 6.45 13.85 6.0 14.15 5.65 14.55 5.45 15.1 5.4 Q15.85 5.4 16.25 5.85 L16.9 7.0 17.15 8.4 17.15 9.7 17.15 11.0 16.9 12.5 16.3 13.75 Q15.9 14.2 15.15 14.25 14.45 14.25 14.15 13.9 L13.55 13.0 13.55 14.1 11.95 14.1 11.95 0.0" fill="#000000" fill-opacity="0.0" fill-rule="evenodd" stroke="none"/>
    </g>
  </defs>
</svg>
