<?xml version="1.0" encoding="UTF-8" standalone="no"?>
<svg xmlns:ffdec="https://www.free-decompiler.com/flash" xmlns:xlink="http://www.w3.org/1999/xlink" ffdec:objectType="frame" height="26.05px" width="52.95px" xmlns="http://www.w3.org/2000/svg">
  <g transform="matrix(1.0, 0.0, 0.0, 1.0, 0.0, 0.0)">
    <use ffdec:characterId="1" height="26.0" transform="matrix(1.0, 0.0, 0.0, 1.0, 0.0, 0.0)" width="35.75" xlink:href="#shape0"/>
    <use ffdec:characterId="107" height="14.25" transform="matrix(1.0, 0.0, 0.0, 1.0, 7.2, 5.9)" width="22.9" xlink:href="#shape1"/>
    <use ffdec:characterId="107" height="14.25" transform="matrix(1.0, 0.0, 0.0, 1.0, 6.4, 5.3)" width="22.9" xlink:href="#shape1"/>
  </g>
  <defs>
    <g id="shape0" transform="matrix(1.0, 0.0, 0.0, 1.0, 0.0, 0.0)">
      <path d="M2.0 2.0 L2.0 24.0 33.75 24.0 33.75 2.0 2.0 2.0" fill="url(#gradient0)" fill-rule="evenodd" stroke="none"/>
      <path d="M2.0 2.0 L3.5 3.5 3.5 22.5 2.0 24.0 2.0 2.0" fill="#808080" fill-rule="evenodd" stroke="none"/>
      <path d="M33.75 24.0 L32.25 22.5 32.25 3.5 33.75 2.0 33.75 24.0" fill="#a6a6a6" fill-rule="evenodd" stroke="none"/>
      <path d="M2.0 24.0 L3.5 22.5 32.25 22.5 33.75 24.0 2.0 24.0" fill="#4d4d4d" fill-rule="evenodd" stroke="none"/>
      <path d="M33.75 2.0 L32.25 3.5 3.5 3.5 2.0 2.0 33.75 2.0" fill="#d9d9d9" fill-rule="evenodd" stroke="none"/>
    </g>
    <linearGradient gradientTransform="matrix(0.0194, 0.0134, -0.0134, 0.0194, 17.85, 13.0)" gradientUnits="userSpaceOnUse" id="gradient0" spreadMethod="pad" x1="-819.2" x2="819.2">
      <stop offset="0.0" stop-color="#737373"/>
      <stop offset="0.08235294117647059" stop-color="#b2b2b2"/>
      <stop offset="0.20392156862745098" stop-color="#8a8a8a"/>
      <stop offset="0.2901960784313726" stop-color="#b2b2b2"/>
      <stop offset="0.5450980392156862" stop-color="#d4d4d4"/>
      <stop offset="0.6196078431372549" stop-color="#bababa"/>
      <stop offset="0.792156862745098" stop-color="#999999"/>
      <stop offset="0.8941176470588236" stop-color="#8c8c8c"/>
      <stop offset="0.9254901960784314" stop-color="#b0b0b0"/>
      <stop offset="1.0" stop-color="#636363"/>
    </linearGradient>
    <g id="shape1" transform="matrix(1.0, 0.0, 0.0, 1.0, 0.0, 0.0)">
      <path d="M0.0 1.3 L2.05 1.3 3.05 1.35 4.1 1.7 4.9 2.7 Q5.2 3.35 5.2 4.55 L5.05 5.9 4.55 7.15 3.45 7.85 5.8 14.1 4.05 14.1 1.7 7.8 1.7 14.1 0.0 14.1 0.0 1.3 M1.95 2.75 L1.7 2.75 1.7 6.95 Q2.65 7.0 3.05 6.45 3.4 5.9 3.4 4.95 L3.3 3.8 2.9 3.0 Q2.6 2.7 1.95 2.75 M14.9 3.1 L14.9 5.5 15.75 5.5 15.75 6.8 14.9 6.8 14.9 14.1 13.3 14.1 13.3 6.8 12.45 6.8 12.45 5.5 13.3 5.5 13.3 3.1 14.9 3.1 M11.3 1.2 L12.0 1.5 12.0 3.05 11.5 2.8 10.9 2.7 Q10.2 2.7 9.75 3.1 9.3 3.45 9.05 4.05 L8.65 5.3 8.55 6.65 8.5 7.75 8.55 9.25 8.85 10.85 Q9.1 11.65 9.6 12.15 10.1 12.65 11.0 12.65 L11.5 12.6 12.0 12.4 12.0 13.9 11.35 14.2 10.65 14.25 Q9.35 14.25 8.55 13.65 7.8 13.05 7.4 12.1 7.0 11.15 6.85 10.0 L6.7 7.9 6.75 6.2 7.05 4.4 Q7.25 3.5 7.7 2.75 8.1 2.0 8.8 1.55 9.5 1.15 10.5 1.1 L11.3 1.2 M16.75 5.5 L18.35 5.5 18.35 6.55 18.4 6.55 19.1 5.7 20.2 5.4 20.2 6.95 19.95 6.95 Q19.05 6.95 18.7 7.4 18.35 7.85 18.35 8.7 L18.35 14.1 16.75 14.1 16.75 5.5 M22.9 14.1 L21.3 14.1 21.3 0.0 22.9 0.0 22.9 14.1" fill="#000000" fill-opacity="0.0" fill-rule="evenodd" stroke="none"/>
    </g>
  </defs>
</svg>
