<?xml version="1.0" encoding="UTF-8" standalone="no"?>
<svg xmlns:ffdec="https://www.free-decompiler.com/flash" xmlns:xlink="http://www.w3.org/1999/xlink" ffdec:objectType="frame" height="26.05px" width="52.95px" xmlns="http://www.w3.org/2000/svg">
  <g transform="matrix(1.0, 0.0, 0.0, 1.0, 0.0, 0.0)">
    <use ffdec:characterId="1" height="26.0" transform="matrix(1.0, 0.0, 0.0, 1.0, 0.0, 0.0)" width="35.75" xlink:href="#shape0"/>
    <use ffdec:characterId="108" height="12.8" transform="matrix(1.0, 0.0, 0.0, 1.0, 8.7, 7.15)" width="19.5" xlink:href="#shape1"/>
    <use ffdec:characterId="108" height="12.8" transform="matrix(1.0, 0.0, 0.0, 1.0, 7.9, 6.55)" width="19.5" xlink:href="#shape1"/>
  </g>
  <defs>
    <g id="shape0" transform="matrix(1.0, 0.0, 0.0, 1.0, 0.0, 0.0)">
      <path d="M2.0 2.0 L2.0 24.0 33.75 24.0 33.75 2.0 2.0 2.0" fill="url(#gradient0)" fill-rule="evenodd" stroke="none"/>
      <path d="M2.0 2.0 L3.5 3.5 3.5 22.5 2.0 24.0 2.0 2.0" fill="#808080" fill-rule="evenodd" stroke="none"/>
      <path d="M33.75 24.0 L32.25 22.5 32.25 3.5 33.75 2.0 33.75 24.0" fill="#a6a6a6" fill-rule="evenodd" stroke="none"/>
      <path d="M2.0 24.0 L3.5 22.5 32.25 22.5 33.75 24.0 2.0 24.0" fill="#4d4d4d" fill-rule="evenodd" stroke="none"/>
      <path d="M33.75 2.0 L32.25 3.5 3.5 3.5 2.0 2.0 33.75 2.0" fill="#d9d9d9" fill-rule="evenodd" stroke="none"/>
    </g>
    <linearGradient gradientTransform="matrix(0.0194, 0.0134, -0.0134, 0.0194, 17.85, 13.0)" gradientUnits="userSpaceOnUse" id="gradient0" spreadMethod="pad" x1="-819.2" x2="819.2">
      <stop offset="0.0" stop-color="#737373"/>
      <stop offset="0.08235294117647059" stop-color="#b2b2b2"/>
      <stop offset="0.20392156862745098" stop-color="#8a8a8a"/>
      <stop offset="0.2901960784313726" stop-color="#b2b2b2"/>
      <stop offset="0.5450980392156862" stop-color="#d4d4d4"/>
      <stop offset="0.6196078431372549" stop-color="#bababa"/>
      <stop offset="0.792156862745098" stop-color="#999999"/>
      <stop offset="0.8941176470588236" stop-color="#8c8c8c"/>
      <stop offset="0.9254901960784314" stop-color="#b0b0b0"/>
      <stop offset="1.0" stop-color="#636363"/>
    </linearGradient>
    <g id="shape1" transform="matrix(1.0, 0.0, 0.0, 1.0, 0.0, 0.0)">
      <path d="M4.25 0.0 L5.95 0.0 5.95 12.8 4.35 12.8 1.35 2.9 1.7 12.8 0.0 12.8 0.0 0.0 1.6 0.0 4.6 9.7 4.65 9.7 4.25 0.0 M11.4 2.5 L10.95 1.7 9.95 1.45 9.7 1.45 9.7 5.7 Q10.75 5.75 11.15 5.2 11.55 4.65 11.55 3.55 L11.4 2.5 M13.05 1.5 L13.35 3.4 Q13.35 5.35 12.5 6.3 L12.45 6.35 Q11.6 7.2 9.7 7.1 L9.7 12.8 8.0 12.8 8.0 0.0 10.05 0.0 11.15 0.05 12.25 0.45 12.45 0.6 13.05 1.5 M18.4 0.0 L19.5 0.0 14.25 12.8 13.1 12.8 18.4 0.0" fill="#000000" fill-opacity="0.0" fill-rule="evenodd" stroke="none"/>
    </g>
  </defs>
</svg>
