<?xml version="1.0" encoding="UTF-8" standalone="no"?>
<svg xmlns:ffdec="https://www.free-decompiler.com/flash" xmlns:xlink="http://www.w3.org/1999/xlink" ffdec:objectType="frame" height="26.05px" width="52.95px" xmlns="http://www.w3.org/2000/svg">
  <g transform="matrix(1.0, 0.0, 0.0, 1.0, 0.0, 0.0)">
    <use ffdec:characterId="1" height="26.0" transform="matrix(1.0, 0.0, 0.0, 1.0, 0.0, 0.0)" width="35.75" xlink:href="#shape0"/>
    <use ffdec:characterId="109" height="14.1" transform="matrix(1.0, 0.0, 0.0, 1.0, 8.65, 5.85)" width="20.0" xlink:href="#shape1"/>
    <use ffdec:characterId="109" height="14.1" transform="matrix(1.0, 0.0, 0.0, 1.0, 7.85, 5.25)" width="20.0" xlink:href="#shape1"/>
  </g>
  <defs>
    <g id="shape0" transform="matrix(1.0, 0.0, 0.0, 1.0, 0.0, 0.0)">
      <path d="M2.0 2.0 L2.0 24.0 33.75 24.0 33.75 2.0 2.0 2.0" fill="url(#gradient0)" fill-rule="evenodd" stroke="none"/>
      <path d="M2.0 2.0 L3.5 3.5 3.5 22.5 2.0 24.0 2.0 2.0" fill="#808080" fill-rule="evenodd" stroke="none"/>
      <path d="M33.75 24.0 L32.25 22.5 32.25 3.5 33.75 2.0 33.75 24.0" fill="#a6a6a6" fill-rule="evenodd" stroke="none"/>
      <path d="M2.0 24.0 L3.5 22.5 32.25 22.5 33.75 24.0 2.0 24.0" fill="#4d4d4d" fill-rule="evenodd" stroke="none"/>
      <path d="M33.75 2.0 L32.25 3.5 3.5 3.5 2.0 2.0 33.75 2.0" fill="#d9d9d9" fill-rule="evenodd" stroke="none"/>
    </g>
    <linearGradient gradientTransform="matrix(0.0194, 0.0134, -0.0134, 0.0194, 17.85, 13.0)" gradientUnits="userSpaceOnUse" id="gradient0" spreadMethod="pad" x1="-819.2" x2="819.2">
      <stop offset="0.0" stop-color="#737373"/>
      <stop offset="0.08235294117647059" stop-color="#b2b2b2"/>
      <stop offset="0.20392156862745098" stop-color="#8a8a8a"/>
      <stop offset="0.2901960784313726" stop-color="#b2b2b2"/>
      <stop offset="0.5450980392156862" stop-color="#d4d4d4"/>
      <stop offset="0.6196078431372549" stop-color="#bababa"/>
      <stop offset="0.792156862745098" stop-color="#999999"/>
      <stop offset="0.8941176470588236" stop-color="#8c8c8c"/>
      <stop offset="0.9254901960784314" stop-color="#b0b0b0"/>
      <stop offset="1.0" stop-color="#636363"/>
    </linearGradient>
    <g id="shape1" transform="matrix(1.0, 0.0, 0.0, 1.0, 0.0, 0.0)">
      <path d="M8.15 14.1 L6.45 14.1 9.25 1.3 10.6 1.3 13.35 14.1 11.65 14.1 11.15 11.6 8.6 11.6 8.15 14.1 M9.9 3.75 L8.85 10.25 10.9 10.25 9.9 3.75 M3.05 1.35 L4.1 1.7 4.9 2.7 Q5.2 3.35 5.2 4.55 L5.05 5.9 4.55 7.15 3.45 7.85 5.8 14.1 4.05 14.1 1.7 7.8 1.7 14.1 0.0 14.1 0.0 1.3 2.05 1.3 3.05 1.35 M1.95 2.75 L1.7 2.75 1.7 6.95 Q2.65 7.0 3.05 6.45 3.4 5.9 3.4 4.95 L3.3 3.8 2.9 3.0 Q2.6 2.7 1.95 2.75 M14.2 0.0 L15.8 0.0 15.8 14.1 14.2 14.1 14.2 0.0 M16.7 5.5 L17.55 5.5 17.55 3.1 19.15 3.1 19.15 5.5 20.0 5.5 20.0 6.8 19.15 6.8 19.15 14.1 17.55 14.1 17.55 6.8 16.7 6.8 16.7 5.5" fill="#000000" fill-opacity="0.0" fill-rule="evenodd" stroke="none"/>
    </g>
  </defs>
</svg>
