<?xml version="1.0" encoding="UTF-8" standalone="no"?>
<svg xmlns:ffdec="https://www.free-decompiler.com/flash" xmlns:xlink="http://www.w3.org/1999/xlink" ffdec:objectType="frame" height="26.05px" width="52.95px" xmlns="http://www.w3.org/2000/svg">
  <g transform="matrix(1.0, 0.0, 0.0, 1.0, 0.0, 0.0)">
    <use ffdec:characterId="1" height="26.0" transform="matrix(1.0, 0.0, 0.0, 1.0, 0.0, 0.0)" width="35.75" xlink:href="#shape0"/>
    <use ffdec:characterId="110" height="13.15" transform="matrix(1.0, 0.0, 0.0, 1.0, 6.4, 7.0)" width="24.15" xlink:href="#shape1"/>
    <use ffdec:characterId="110" height="13.15" transform="matrix(1.0, 0.0, 0.0, 1.0, 5.8, 6.4)" width="24.15" xlink:href="#shape1"/>
  </g>
  <defs>
    <g id="shape0" transform="matrix(1.0, 0.0, 0.0, 1.0, 0.0, 0.0)">
      <path d="M2.0 2.0 L2.0 24.0 33.75 24.0 33.75 2.0 2.0 2.0" fill="url(#gradient0)" fill-rule="evenodd" stroke="none"/>
      <path d="M2.0 2.0 L3.5 3.5 3.5 22.5 2.0 24.0 2.0 2.0" fill="#808080" fill-rule="evenodd" stroke="none"/>
      <path d="M33.75 24.0 L32.25 22.5 32.25 3.5 33.75 2.0 33.75 24.0" fill="#a6a6a6" fill-rule="evenodd" stroke="none"/>
      <path d="M2.0 24.0 L3.5 22.5 32.25 22.5 33.75 24.0 2.0 24.0" fill="#4d4d4d" fill-rule="evenodd" stroke="none"/>
      <path d="M33.75 2.0 L32.25 3.5 3.5 3.5 2.0 2.0 33.75 2.0" fill="#d9d9d9" fill-rule="evenodd" stroke="none"/>
    </g>
    <linearGradient gradientTransform="matrix(0.0194, 0.0134, -0.0134, 0.0194, 17.85, 13.0)" gradientUnits="userSpaceOnUse" id="gradient0" spreadMethod="pad" x1="-819.2" x2="819.2">
      <stop offset="0.0" stop-color="#737373"/>
      <stop offset="0.08235294117647059" stop-color="#b2b2b2"/>
      <stop offset="0.20392156862745098" stop-color="#8a8a8a"/>
      <stop offset="0.2901960784313726" stop-color="#b2b2b2"/>
      <stop offset="0.5450980392156862" stop-color="#d4d4d4"/>
      <stop offset="0.6196078431372549" stop-color="#bababa"/>
      <stop offset="0.792156862745098" stop-color="#999999"/>
      <stop offset="0.8941176470588236" stop-color="#8c8c8c"/>
      <stop offset="0.9254901960784314" stop-color="#b0b0b0"/>
      <stop offset="1.0" stop-color="#636363"/>
    </linearGradient>
    <g id="shape1" transform="matrix(1.0, 0.0, 0.0, 1.0, 0.0, 0.0)">
      <path d="M3.4 2.7 L2.95 1.9 1.95 1.65 1.7 1.65 1.7 5.9 Q2.75 5.95 3.15 5.4 3.55 4.85 3.55 3.75 L3.4 2.7 M4.25 0.65 L5.05 1.7 5.35 3.6 Q5.35 5.55 4.5 6.5 3.65 7.4 1.7 7.3 L1.7 13.0 0.0 13.0 0.0 0.2 2.05 0.2 3.15 0.25 4.25 0.65 M9.75 5.85 L9.5 5.85 Q8.6 5.85 8.25 6.3 7.9 6.75 7.9 7.6 L7.9 13.0 6.3 13.0 6.3 4.4 7.9 4.4 7.9 5.45 7.95 5.45 8.65 4.6 Q9.1 4.3 9.75 4.3 L9.75 5.85 M10.3 5.7 L10.3 4.4 11.15 4.4 11.15 2.0 12.75 2.0 12.75 4.4 13.6 4.4 13.6 5.7 12.75 5.7 12.75 13.0 11.15 13.0 11.15 5.7 10.3 5.7 M18.0 0.1 L18.85 0.45 18.85 2.15 18.15 1.75 17.4 1.6 Q16.7 1.65 16.3 2.1 15.9 2.55 15.9 3.25 L16.0 4.0 16.35 4.65 17.65 6.05 18.6 7.15 19.25 8.35 19.45 9.8 Q19.45 10.75 19.1 11.5 L18.05 12.7 16.45 13.15 15.45 13.0 Q15.0 12.9 14.6 12.55 L14.6 10.85 15.35 11.3 16.25 11.5 17.1 11.25 17.6 10.6 17.75 9.7 Q17.75 8.95 17.4 8.4 L16.5 7.35 15.45 6.3 14.55 5.0 Q14.2 4.3 14.15 3.3 14.15 2.4 14.5 1.65 14.8 0.9 15.45 0.45 16.1 0.0 17.05 0.0 L18.0 0.1 M21.5 4.75 Q22.0 4.3 22.9 4.3 L23.55 4.35 24.15 4.55 24.15 6.2 23.85 5.9 23.4 5.75 Q22.85 5.8 22.6 6.1 22.3 6.4 22.15 6.85 L22.0 7.8 22.0 8.65 22.0 9.45 22.15 10.45 22.55 11.3 Q22.85 11.65 23.35 11.65 L23.8 11.55 24.15 11.3 24.15 12.8 23.55 13.05 22.85 13.15 Q22.05 13.1 21.55 12.7 21.0 12.25 20.75 11.6 20.5 10.95 20.4 10.2 L20.35 8.8 20.4 7.35 Q20.5 6.55 20.75 5.85 21.0 5.15 21.5 4.75" fill="#000000" fill-opacity="0.0" fill-rule="evenodd" stroke="none"/>
    </g>
  </defs>
</svg>
