<?xml version="1.0" encoding="UTF-8" standalone="no"?>
<svg xmlns:ffdec="https://www.free-decompiler.com/flash" xmlns:xlink="http://www.w3.org/1999/xlink" ffdec:objectType="frame" height="26.05px" width="52.95px" xmlns="http://www.w3.org/2000/svg">
  <g transform="matrix(1.0, 0.0, 0.0, 1.0, 0.0, 0.0)">
    <use ffdec:characterId="1" height="26.0" transform="matrix(1.0, 0.0, 0.0, 1.0, 0.0, 0.0)" width="35.75" xlink:href="#shape0"/>
    <use ffdec:characterId="115" height="14.25" transform="matrix(1.0, 0.0, 0.0, 1.0, 10.05, 5.85)" width="17.2" xlink:href="#shape1"/>
    <use ffdec:characterId="115" height="14.25" transform="matrix(1.0, 0.0, 0.0, 1.0, 9.25, 5.25)" width="17.2" xlink:href="#shape1"/>
  </g>
  <defs>
    <g id="shape0" transform="matrix(1.0, 0.0, 0.0, 1.0, 0.0, 0.0)">
      <path d="M2.0 2.0 L2.0 24.0 33.75 24.0 33.75 2.0 2.0 2.0" fill="url(#gradient0)" fill-rule="evenodd" stroke="none"/>
      <path d="M2.0 2.0 L3.5 3.5 3.5 22.5 2.0 24.0 2.0 2.0" fill="#808080" fill-rule="evenodd" stroke="none"/>
      <path d="M33.75 24.0 L32.25 22.5 32.25 3.5 33.75 2.0 33.75 24.0" fill="#a6a6a6" fill-rule="evenodd" stroke="none"/>
      <path d="M2.0 24.0 L3.5 22.5 32.25 22.5 33.75 24.0 2.0 24.0" fill="#4d4d4d" fill-rule="evenodd" stroke="none"/>
      <path d="M33.75 2.0 L32.25 3.5 3.5 3.5 2.0 2.0 33.75 2.0" fill="#d9d9d9" fill-rule="evenodd" stroke="none"/>
    </g>
    <linearGradient gradientTransform="matrix(0.0194, 0.0134, -0.0134, 0.0194, 17.85, 13.0)" gradientUnits="userSpaceOnUse" id="gradient0" spreadMethod="pad" x1="-819.2" x2="819.2">
      <stop offset="0.0" stop-color="#737373"/>
      <stop offset="0.08235294117647059" stop-color="#b2b2b2"/>
      <stop offset="0.20392156862745098" stop-color="#8a8a8a"/>
      <stop offset="0.2901960784313726" stop-color="#b2b2b2"/>
      <stop offset="0.5450980392156862" stop-color="#d4d4d4"/>
      <stop offset="0.6196078431372549" stop-color="#bababa"/>
      <stop offset="0.792156862745098" stop-color="#999999"/>
      <stop offset="0.8941176470588236" stop-color="#8c8c8c"/>
      <stop offset="0.9254901960784314" stop-color="#b0b0b0"/>
      <stop offset="1.0" stop-color="#636363"/>
    </linearGradient>
    <g id="shape1" transform="matrix(1.0, 0.0, 0.0, 1.0, 0.0, 0.0)">
      <path d="M4.55 1.3 L4.55 2.75 1.7 2.75 1.7 6.8 4.25 6.8 4.25 8.25 1.7 8.25 1.7 12.6 4.55 12.6 4.55 14.1 0.0 14.1 0.0 1.3 4.55 1.3 M10.65 6.9 L10.7 8.2 10.7 14.1 9.1 14.1 9.1 8.15 9.05 7.55 8.8 7.05 8.15 6.8 Q7.65 6.85 7.45 7.15 L7.2 7.9 7.2 8.75 7.2 14.1 5.6 14.1 5.6 5.5 7.2 5.5 7.2 6.5 7.25 6.5 7.55 6.0 7.9 5.7 8.4 5.45 8.95 5.4 Q9.8 5.4 10.2 5.8 L10.65 6.9 M14.65 6.8 Q14.2 6.8 13.95 7.15 L13.65 8.05 13.6 9.05 13.6 9.8 13.6 10.55 13.65 11.55 13.95 12.45 Q14.2 12.8 14.65 12.8 L15.25 12.45 15.55 11.55 15.65 10.55 15.65 9.8 15.65 9.05 15.55 8.05 15.25 7.2 Q15.0 6.8 14.65 6.8 M15.6 0.0 L17.2 0.0 17.2 14.1 15.6 14.1 15.6 13.0 15.55 13.0 14.95 13.9 13.95 14.25 Q13.25 14.2 12.8 13.75 L12.2 12.5 12.0 11.0 11.95 9.7 12.0 8.4 12.2 7.0 Q12.4 6.3 12.85 5.85 13.25 5.4 14.0 5.4 L14.95 5.65 15.55 6.45 15.6 6.45 15.6 0.0" fill="#000000" fill-opacity="0.0" fill-rule="evenodd" stroke="none"/>
    </g>
  </defs>
</svg>
