<?xml version="1.0" encoding="UTF-8" standalone="no"?>
<svg xmlns:ffdec="https://www.free-decompiler.com/flash" xmlns:xlink="http://www.w3.org/1999/xlink" ffdec:objectType="frame" height="26.05px" width="52.95px" xmlns="http://www.w3.org/2000/svg">
  <g transform="matrix(1.0, 0.0, 0.0, 1.0, 0.0, 0.0)">
    <use ffdec:characterId="1" height="26.0" transform="matrix(1.0, 0.0, 0.0, 1.0, 0.0, 0.0)" width="35.75" xlink:href="#shape0"/>
    <use ffdec:characterId="116" height="16.45" transform="matrix(1.0, 0.0, 0.0, 1.0, 5.7, 6.55)" width="25.8" xlink:href="#shape1"/>
    <use ffdec:characterId="116" height="16.45" transform="matrix(1.0, 0.0, 0.0, 1.0, 4.9, 5.95)" width="25.8" xlink:href="#shape1"/>
  </g>
  <defs>
    <g id="shape0" transform="matrix(1.0, 0.0, 0.0, 1.0, 0.0, 0.0)">
      <path d="M2.0 2.0 L2.0 24.0 33.75 24.0 33.75 2.0 2.0 2.0" fill="url(#gradient0)" fill-rule="evenodd" stroke="none"/>
      <path d="M2.0 2.0 L3.5 3.5 3.5 22.5 2.0 24.0 2.0 2.0" fill="#808080" fill-rule="evenodd" stroke="none"/>
      <path d="M33.75 24.0 L32.25 22.5 32.25 3.5 33.75 2.0 33.75 24.0" fill="#a6a6a6" fill-rule="evenodd" stroke="none"/>
      <path d="M2.0 24.0 L3.5 22.5 32.25 22.5 33.75 24.0 2.0 24.0" fill="#4d4d4d" fill-rule="evenodd" stroke="none"/>
      <path d="M33.75 2.0 L32.25 3.5 3.5 3.5 2.0 2.0 33.75 2.0" fill="#d9d9d9" fill-rule="evenodd" stroke="none"/>
    </g>
    <linearGradient gradientTransform="matrix(0.0194, 0.0134, -0.0134, 0.0194, 17.85, 13.0)" gradientUnits="userSpaceOnUse" id="gradient0" spreadMethod="pad" x1="-819.2" x2="819.2">
      <stop offset="0.0" stop-color="#737373"/>
      <stop offset="0.08235294117647059" stop-color="#b2b2b2"/>
      <stop offset="0.20392156862745098" stop-color="#8a8a8a"/>
      <stop offset="0.2901960784313726" stop-color="#b2b2b2"/>
      <stop offset="0.5450980392156862" stop-color="#d4d4d4"/>
      <stop offset="0.6196078431372549" stop-color="#bababa"/>
      <stop offset="0.792156862745098" stop-color="#999999"/>
      <stop offset="0.8941176470588236" stop-color="#8c8c8c"/>
      <stop offset="0.9254901960784314" stop-color="#b0b0b0"/>
      <stop offset="1.0" stop-color="#636363"/>
    </linearGradient>
    <g id="shape1" transform="matrix(1.0, 0.0, 0.0, 1.0, 0.0, 0.0)">
      <path d="M4.25 0.45 L5.05 1.5 5.35 3.4 Q5.35 5.35 4.5 6.3 3.65 7.2 1.7 7.1 L1.7 12.8 0.0 12.8 0.0 0.0 2.05 0.0 3.15 0.05 4.25 0.45 M3.4 2.5 L2.95 1.7 1.95 1.45 1.7 1.45 1.7 5.7 Q2.75 5.75 3.15 5.2 3.55 4.65 3.55 3.55 L3.4 2.5 M9.3 5.9 Q9.05 5.5 8.7 5.5 L8.05 5.9 7.75 6.75 7.7 7.75 7.7 8.45 7.7 9.2 7.75 10.25 8.05 11.15 Q8.3 11.5 8.75 11.5 9.15 11.5 9.4 11.15 L9.65 10.3 9.75 9.3 9.7 8.55 9.7 7.8 9.6 6.75 9.3 5.9 M9.7 5.2 L9.7 4.2 11.3 4.2 11.3 12.85 11.0 15.15 10.15 16.2 8.7 16.45 Q7.55 16.45 6.85 15.8 6.2 15.2 6.15 14.0 L6.15 13.75 7.7 13.75 7.8 14.35 8.1 14.85 8.75 15.05 Q9.25 15.0 9.45 14.75 L9.7 14.05 9.7 13.2 9.7 11.8 9.65 11.8 9.1 12.65 8.15 12.95 Q7.4 12.9 6.95 12.45 L6.3 11.3 6.1 9.85 6.05 8.55 6.05 7.3 6.3 5.8 Q6.45 5.05 6.9 4.6 7.35 4.1 8.1 4.1 L9.1 4.4 9.65 5.25 9.7 5.2 M17.45 4.95 L17.2 3.2 Q17.0 2.4 16.4 1.9 15.85 1.4 14.8 1.45 L14.8 11.35 Q15.85 11.35 16.4 10.95 L17.2 9.85 17.45 8.3 17.45 6.6 17.45 4.95 M16.2 0.05 Q16.8 0.1 17.35 0.45 L18.35 1.5 19.0 3.45 19.25 6.6 19.05 9.55 18.4 11.35 17.35 12.35 15.95 12.75 14.25 12.8 13.1 12.8 13.1 0.0 15.0 0.0 16.2 0.05 M22.35 5.2 L22.65 4.7 23.0 4.4 23.5 4.15 24.05 4.1 Q24.9 4.1 25.3 4.5 L25.75 5.6 25.8 6.9 25.8 12.8 24.2 12.8 24.2 6.85 24.15 6.25 23.9 5.75 Q23.7 5.5 23.25 5.5 22.75 5.55 22.55 5.85 22.35 6.2 22.3 6.6 L22.3 7.45 22.3 12.8 20.7 12.8 20.7 4.2 22.3 4.2 22.3 5.2 22.35 5.2" fill="#000000" fill-opacity="0.0" fill-rule="evenodd" stroke="none"/>
    </g>
  </defs>
</svg>
