<?xml version="1.0" encoding="UTF-8" standalone="no"?>
<svg xmlns:ffdec="https://www.free-decompiler.com/flash" xmlns:xlink="http://www.w3.org/1999/xlink" ffdec:objectType="frame" height="26.05px" width="52.95px" xmlns="http://www.w3.org/2000/svg">
  <g transform="matrix(1.0, 0.0, 0.0, 1.0, 0.0, 0.0)">
    <use ffdec:characterId="119" height="26.0" transform="matrix(1.0, 0.0, 0.0, 1.0, 0.0, 0.0)" width="26.0" xlink:href="#shape0"/>
    <use ffdec:characterId="120" height="12.8" transform="matrix(1.2512, 0.0, 0.0, 1.3428, 6.65, 4.5)" width="13.5" xlink:href="#shape1"/>
  </g>
  <defs>
    <g id="shape0" transform="matrix(1.0, 0.0, 0.0, 1.0, 0.0, 0.0)">
      <path d="M14.05 2.05 Q18.6 2.5 21.5 6.0 21.85 6.45 22.15 6.9 L13.0 13.0 14.05 2.05" fill="#000000" fill-opacity="0.0" fill-rule="evenodd" stroke="none"/>
      <path d="M23.75 15.35 Q22.75 19.8 18.9 22.25 15.8 24.25 12.1 23.95 7.6 23.6 4.65 20.15 2.2 17.35 2.0 13.65 1.75 9.1 4.8 5.7 7.25 2.9 10.85 2.2 L13.0 13.0 23.75 15.35" fill="#000000" fill-opacity="0.0" fill-rule="evenodd" stroke="none"/>
      <path d="M22.1 6.8 Q24.65 10.55 23.8 15.05 23.25 18.2 21.0 20.55 17.9 23.85 13.35 24.0 10.1 24.1 7.35 22.45 3.45 20.1 2.35 15.7 1.55 12.55 2.55 9.5 4.0 5.2 8.1 3.15 10.95 1.7 14.15 2.05 L13.0 13.0 22.1 6.8" fill="#000000" fill-opacity="0.0" fill-rule="evenodd" stroke="none"/>
      <path d="M23.85 11.2 Q24.6 15.7 21.95 19.4 20.55 21.35 18.5 22.5 14.55 24.8 10.15 23.65 7.9 23.05 6.05 21.55 2.5 18.65 2.05 14.1 1.8 11.75 2.55 9.5 4.0 5.2 8.1 3.15 10.2 2.1 12.55 2.0 L13.0 13.0 23.85 11.2" fill="#000000" fill-opacity="0.0" fill-rule="evenodd" stroke="none"/>
      <path d="M21.0 20.55 Q17.9 23.85 13.35 24.0 11.2 24.05 9.2 23.3 4.9 21.75 3.0 17.6 2.1 15.65 2.0 13.55 1.8 8.95 4.85 5.6 6.3 4.0 8.2 3.1 L13.0 13.0 21.0 20.55" fill="#000000" fill-opacity="0.0" fill-rule="evenodd" stroke="none"/>
      <path d="M17.75 22.9 Q13.65 24.9 9.35 23.4 6.5 22.4 4.55 20.05 1.65 16.55 2.05 12.05 2.3 9.0 4.1 6.55 L13.0 13.0 17.75 22.9" fill="#000000" fill-opacity="0.0" fill-rule="evenodd" stroke="none"/>
      <path d="M14.3 23.9 Q9.8 24.45 6.2 21.65 5.55 21.1 4.95 20.5 1.85 17.15 2.0 12.6 2.05 11.75 2.2 10.9 L13.0 13.0 14.3 23.9" fill="#000000" fill-opacity="0.0" fill-rule="evenodd" stroke="none"/>
      <path d="M10.8 23.8 Q6.3 22.85 3.8 19.05 2.5 17.05 2.15 14.7 L13.0 13.0 10.8 23.8" fill="#000000" fill-opacity="0.0" fill-rule="evenodd" stroke="none"/>
      <path d="M7.6 22.6 Q4.35 20.75 2.9 17.35 L13.0 13.0 7.6 22.6" fill="#000000" fill-opacity="0.0" fill-rule="evenodd" stroke="none"/>
      <path d="M23.0 13.0 Q23.0 8.85 20.05 5.95 17.15 3.0 13.0 3.0 8.85 3.0 5.95 5.95 3.0 8.85 3.0 13.0 3.0 17.15 5.95 20.05 8.85 23.0 13.0 23.0 17.15 23.0 20.05 20.05 23.0 17.15 23.0 13.0 L23.0 13.0" fill="url(#gradient0)" fill-rule="evenodd" stroke="none"/>
    </g>
    <linearGradient gradientTransform="matrix(-0.017, -0.0171, 0.0171, -0.017, 17.3, 17.5)" gradientUnits="userSpaceOnUse" id="gradient0" spreadMethod="pad" x1="-819.2" x2="819.2">
      <stop offset="0.0" stop-color="#000000" stop-opacity="0.0"/>
      <stop offset="0.21176470588235294" stop-color="#000000" stop-opacity="0.0"/>
      <stop offset="0.3607843137254902" stop-color="#000000" stop-opacity="0.0"/>
      <stop offset="0.5176470588235295" stop-color="#000000" stop-opacity="0.0"/>
      <stop offset="0.6274509803921569" stop-color="#000000" stop-opacity="0.0"/>
      <stop offset="0.7294117647058823" stop-color="#000000" stop-opacity="0.0"/>
      <stop offset="0.8549019607843137" stop-color="#000000" stop-opacity="0.0"/>
      <stop offset="1.0" stop-color="#000000" stop-opacity="0.0"/>
    </linearGradient>
    <g id="shape1" transform="matrix(1.0, 0.0, 0.0, 1.0, 0.0, 0.0)">
      <path d="M5.0 12.75 L2.4 12.25 0.85 10.7 0.85 2.05 2.4 0.5 4.75 0.0 5.25 0.0 7.6 0.5 9.15 2.05 9.15 10.7 7.6 12.25 5.0 12.75" fill="#404040" fill-rule="evenodd" stroke="none"/>
      <path d="M1.0 6.15 L4.75 6.15 4.75 0.15 2.5 0.65 1.0 2.15 1.0 6.15" fill="#3cdcdc" fill-rule="evenodd" stroke="none"/>
      <path d="M9.0 6.15 L5.25 6.15 5.25 0.15 7.5 0.65 9.0 2.15 9.0 6.15" fill="#b2b2b2" fill-rule="evenodd" stroke="none"/>
      <path d="M1.0 6.65 L1.0 10.65 2.5 12.15 5.0 12.65 7.5 12.15 9.0 10.65 9.0 6.65 1.0 6.65" fill="#b2b2b2" fill-rule="evenodd" stroke="none"/>
      <path d="M1.0 6.65 L9.0 6.65 8.5 7.15 1.5 7.15 1.0 6.65" fill="#d9d9d9" fill-rule="evenodd" stroke="none"/>
      <path d="M1.0 6.65 L1.0 10.65 1.5 10.35 1.5 7.15 1.0 6.65" fill="#808080" fill-rule="evenodd" stroke="none"/>
      <path d="M9.0 6.65 L9.0 10.65 8.5 10.35 8.5 7.15 9.0 6.65" fill="#a6a6a6" fill-rule="evenodd" stroke="none"/>
      <path d="M1.5 10.35 L2.8 11.65 2.5 12.15 1.0 10.65 1.5 10.35" fill="#737373" fill-rule="evenodd" stroke="none"/>
      <path d="M5.0 12.65 L5.0 12.15 2.8 11.65 2.5 12.15 5.0 12.65" fill="#595959" fill-rule="evenodd" stroke="none"/>
      <path d="M5.0 12.65 L5.0 12.15 7.2 11.65 7.5 12.15 5.0 12.65" fill="#666666" fill-rule="evenodd" stroke="none"/>
      <path d="M8.5 10.35 L7.2 11.65 7.5 12.15 9.0 10.65 8.5 10.35" fill="#999999" fill-rule="evenodd" stroke="none"/>
      <path d="M1.0 6.15 L4.75 6.15 4.25 5.65 1.5 5.65 1.0 6.15" fill="#4d4d4d" fill-rule="evenodd" stroke="none"/>
      <path d="M1.0 2.15 L1.0 6.15 1.5 5.65 1.5 2.35 1.0 2.15" fill="#808080" fill-rule="evenodd" stroke="none"/>
      <path d="M4.75 6.15 L4.75 0.15 4.25 0.7 4.25 5.65 4.75 6.15" fill="#a6a6a6" fill-rule="evenodd" stroke="none"/>
      <path d="M1.5 2.35 L2.8 1.0 2.5 0.65 1.0 2.15 1.5 2.35" fill="#a6a6a6" fill-rule="evenodd" stroke="none"/>
      <path d="M2.8 1.0 L4.25 0.7 4.75 0.15 2.5 0.65 2.8 1.0" fill="#c4c4c4" fill-rule="evenodd" stroke="none"/>
      <path d="M9.0 6.15 L5.25 6.15 5.75 5.65 8.5 5.65 9.0 6.15" fill="#4d4d4d" fill-rule="evenodd" stroke="none"/>
      <path d="M9.0 2.15 L9.0 6.15 8.5 5.65 8.5 2.35 9.0 2.15" fill="#a6a6a6" fill-rule="evenodd" stroke="none"/>
      <path d="M5.25 6.15 L5.25 0.15 5.75 0.7 5.75 5.65 5.25 6.15" fill="#808080" fill-rule="evenodd" stroke="none"/>
      <path d="M8.5 2.35 L7.2 1.0 7.5 0.65 9.0 2.15 8.5 2.35" fill="#bababa" fill-rule="evenodd" stroke="none"/>
      <path d="M7.2 1.0 L5.75 0.7 5.25 0.15 7.5 0.65 7.2 1.0" fill="#d9d9d9" fill-rule="evenodd" stroke="none"/>
    </g>
  </defs>
</svg>
