<?xml version="1.0" encoding="UTF-8" standalone="no"?>
<svg xmlns:ffdec="https://www.free-decompiler.com/flash" xmlns:xlink="http://www.w3.org/1999/xlink" ffdec:objectType="frame" height="26.05px" width="52.95px" xmlns="http://www.w3.org/2000/svg">
  <g transform="matrix(1.0, 0.0, 0.0, 1.0, 0.0, 0.0)">
    <use ffdec:characterId="3" height="26.0" transform="matrix(1.0, 0.0, 0.0, 1.0, 0.0, 0.0)" width="26.0" xlink:href="#shape0"/>
    <use ffdec:characterId="40" height="8.75" transform="matrix(1.12, 0.0, 0.0, 1.12, 8.35, 5.6)" width="2.6" xlink:href="#shape1"/>
    <use ffdec:characterId="40" height="8.75" transform="matrix(1.12, 0.0, 0.0, 1.12, 7.55, 5.0)" width="2.6" xlink:href="#shape1"/>
    <use ffdec:characterId="41" height="14.55" transform="matrix(1.0, 0.0, 0.0, 1.0, 15.6, 7.0)" width="3.7" xlink:href="#shape2"/>
    <use ffdec:characterId="41" height="14.55" transform="matrix(1.0, 0.0, 0.0, 1.0, 14.8, 6.4)" width="3.7" xlink:href="#shape2"/>
  </g>
  <defs>
    <g id="shape0" transform="matrix(1.0, 0.0, 0.0, 1.0, 0.0, 0.0)">
      <path d="M2.0 2.0 L24.0 2.0 24.0 24.0 2.0 24.0 2.0 2.0" fill="url(#gradient0)" fill-rule="evenodd" stroke="none"/>
      <path d="M24.0 2.0 L22.5 3.5 3.5 3.5 2.0 2.0 24.0 2.0" fill="#d9d9d9" fill-rule="evenodd" stroke="none"/>
      <path d="M2.0 24.0 L3.5 22.5 22.5 22.5 24.0 24.0 2.0 24.0" fill="#4d4d4d" fill-rule="evenodd" stroke="none"/>
      <path d="M2.0 2.0 L3.5 3.5 3.5 22.5 2.0 24.0 2.0 2.0" fill="#808080" fill-rule="evenodd" stroke="none"/>
      <path d="M24.0 24.0 L22.5 22.5 22.5 3.5 24.0 2.0 24.0 24.0" fill="#a6a6a6" fill-rule="evenodd" stroke="none"/>
    </g>
    <linearGradient gradientTransform="matrix(0.0133, 0.0106, -0.0106, 0.0133, 13.0, 12.25)" gradientUnits="userSpaceOnUse" id="gradient0" spreadMethod="pad" x1="-819.2" x2="819.2">
      <stop offset="0.0" stop-color="#b2b2b2"/>
      <stop offset="0.06666666666666667" stop-color="#9e9e9e"/>
      <stop offset="0.13333333333333333" stop-color="#616161"/>
      <stop offset="0.39215686274509803" stop-color="#a6a6a6"/>
      <stop offset="0.6431372549019608" stop-color="#d4d4d4"/>
      <stop offset="0.7450980392156863" stop-color="#ababab"/>
      <stop offset="0.8352941176470589" stop-color="#cccccc"/>
      <stop offset="0.9607843137254902" stop-color="#b2b2b2"/>
      <stop offset="1.0" stop-color="#878787"/>
    </linearGradient>
    <g id="shape1" transform="matrix(1.0, 0.0, 0.0, 1.0, 0.0, 0.0)">
      <path d="M0.35 0.0 L1.05 0.05 1.5 0.5 1.65 1.3 1.65 3.25 1.8 3.75 2.2 4.0 2.6 4.1 2.6 4.65 2.2 4.7 1.8 4.95 1.65 5.45 1.65 7.35 1.5 8.2 1.05 8.6 0.35 8.75 0.0 8.75 0.0 8.15 0.65 7.9 0.8 7.25 0.8 5.6 0.9 5.05 1.2 4.6 1.8 4.35 1.8 4.3 1.2 4.1 0.9 3.65 0.8 3.1 0.8 1.45 0.65 0.8 Q0.4 0.6 0.0 0.55 L0.0 0.0 0.35 0.0" fill="#000000" fill-opacity="0.0" fill-rule="evenodd" stroke="none"/>
    </g>
    <g id="shape2" transform="matrix(1.0, 0.0, 0.0, 1.0, 0.0, 0.0)">
      <path d="M0.0 0.0 L3.7 0.0 3.7 14.55 0.0 14.55 0.0 13.4 2.25 13.4 2.25 1.15 0.0 1.15 0.0 0.0" fill="#000000" fill-opacity="0.0" fill-rule="evenodd" stroke="none"/>
    </g>
  </defs>
</svg>
