<?xml version="1.0" encoding="UTF-8" standalone="no"?>
<svg xmlns:ffdec="https://www.free-decompiler.com/flash" xmlns:xlink="http://www.w3.org/1999/xlink" ffdec:objectType="frame" height="26.05px" width="52.95px" xmlns="http://www.w3.org/2000/svg">
  <g transform="matrix(1.0, 0.0, 0.0, 1.0, 0.0, 0.0)">
    <use ffdec:characterId="132" height="26.0" transform="matrix(1.0, 0.0, 0.0, 1.0, 0.05, 0.05)" width="26.0" xlink:href="#shape0"/>
    <use ffdec:characterId="133" height="15.15" transform="matrix(1.0, 0.0, 0.0, 1.0, 9.15, 5.6)" width="10.2" xlink:href="#shape1"/>
    <use ffdec:characterId="133" height="15.15" transform="matrix(1.0, 0.0, 0.0, 1.0, 8.35, 5.0)" width="10.2" xlink:href="#shape1"/>
  </g>
  <defs>
    <g id="shape0" transform="matrix(1.0, 0.0, 0.0, 1.0, -0.05, -0.05)">
      <path d="M14.1 2.1 Q18.65 2.55 21.55 6.05 21.9 6.5 22.2 6.95 L13.05 13.05 14.1 2.1" fill="#cccccc" fill-rule="evenodd" stroke="none"/>
      <path d="M23.8 15.4 Q22.8 19.85 18.95 22.3 15.85 24.3 12.15 24.0 7.65 23.65 4.7 20.2 2.25 17.4 2.05 13.7 1.8 9.15 4.85 5.75 7.3 2.95 10.9 2.25 L13.05 13.05 23.8 15.4" fill="#e6e6e6" fill-rule="evenodd" stroke="none"/>
      <path d="M22.15 6.85 Q24.7 10.6 23.85 15.1 23.3 18.25 21.05 20.6 17.95 23.9 13.4 24.05 10.15 24.15 7.4 22.5 3.5 20.15 2.4 15.75 1.6 12.6 2.6 9.55 4.05 5.25 8.15 3.2 11.0 1.75 14.2 2.1 L13.05 13.05 22.15 6.85" fill="#b8b8b8" fill-rule="evenodd" stroke="none"/>
      <path d="M23.9 11.25 Q24.65 15.75 22.0 19.45 20.6 21.4 18.55 22.55 14.6 24.85 10.2 23.7 7.95 23.1 6.1 21.6 2.55 18.7 2.1 14.15 1.85 11.8 2.6 9.55 4.05 5.25 8.15 3.2 10.25 2.15 12.6 2.05 L13.05 13.05 23.9 11.25" fill="#b0b0b0" fill-rule="evenodd" stroke="none"/>
      <path d="M21.05 20.6 Q17.95 23.9 13.4 24.05 11.25 24.1 9.25 23.35 4.95 21.8 3.05 17.65 2.15 15.7 2.05 13.6 1.85 9.0 4.9 5.65 6.35 4.05 8.25 3.15 L13.05 13.05 21.05 20.6" fill="#a6a6a6" fill-rule="evenodd" stroke="none"/>
      <path d="M17.8 22.95 Q13.7 24.95 9.4 23.45 6.55 22.45 4.6 20.1 1.7 16.6 2.1 12.1 2.35 9.05 4.15 6.6 L13.05 13.05 17.8 22.95" fill="#9c9c9c" fill-rule="evenodd" stroke="none"/>
      <path d="M14.35 23.95 Q9.85 24.5 6.25 21.7 5.6 21.15 5.0 20.55 1.9 17.2 2.05 12.65 2.1 11.8 2.25 10.95 L13.05 13.05 14.35 23.95" fill="#919191" fill-rule="evenodd" stroke="none"/>
      <path d="M10.85 23.85 Q6.35 22.9 3.85 19.1 2.55 17.1 2.2 14.75 L13.05 13.05 10.85 23.85" fill="#878787" fill-rule="evenodd" stroke="none"/>
      <path d="M7.65 22.65 Q4.4 20.8 2.95 17.4 L13.05 13.05 7.65 22.65" fill="#808080" fill-rule="evenodd" stroke="none"/>
      <path d="M23.05 13.05 Q23.05 8.9 20.1 6.0 17.2 3.05 13.05 3.05 8.9 3.05 6.0 6.0 3.05 8.9 3.05 13.05 3.05 17.2 6.0 20.1 8.9 23.05 13.05 23.05 17.2 23.05 20.1 20.1 23.05 17.2 23.05 13.05 L23.05 13.05" fill="url(#gradient0)" fill-rule="evenodd" stroke="none"/>
    </g>
    <linearGradient gradientTransform="matrix(-0.017, -0.0171, 0.0171, -0.017, 17.35, 17.55)" gradientUnits="userSpaceOnUse" id="gradient0" spreadMethod="pad" x1="-819.2" x2="819.2">
      <stop offset="0.0" stop-color="#8f8f8f"/>
      <stop offset="0.21176470588235294" stop-color="#ababab"/>
      <stop offset="0.3607843137254902" stop-color="#999999"/>
      <stop offset="0.5176470588235295" stop-color="#d9d9d9"/>
      <stop offset="0.6274509803921569" stop-color="#b8b8b8"/>
      <stop offset="0.7294117647058823" stop-color="#ababab"/>
      <stop offset="0.8549019607843137" stop-color="#cccccc"/>
      <stop offset="1.0" stop-color="#808080"/>
    </linearGradient>
    <g id="shape1" transform="matrix(1.0, 0.0, 0.0, 1.0, 0.0, 0.0)">
      <path d="M0.0 2.2 L1.7 2.2 1.7 13.5 4.55 13.5 4.55 15.0 0.0 15.0 0.0 2.2 M4.45 2.35 L0.55 0.0 8.3 0.0 4.45 2.35 M7.8 2.0 L8.75 2.1 Q9.2 2.2 9.6 2.45 L9.6 4.15 9.2 3.9 8.9 3.75 8.15 3.6 7.3 3.9 7.05 4.1 Q6.8 4.4 6.7 4.8 L6.65 5.25 6.75 6.0 7.1 6.65 8.4 8.05 9.35 9.15 10.0 10.35 10.2 11.8 Q10.2 12.75 9.85 13.5 9.5 14.25 8.8 14.7 8.15 15.15 7.2 15.15 L6.2 15.0 5.35 14.55 5.35 12.85 6.1 13.3 7.0 13.5 7.85 13.25 8.35 12.6 8.5 11.7 Q8.5 10.95 8.15 10.4 L7.25 9.35 6.2 8.3 5.3 7.0 Q4.95 6.3 4.9 5.3 L4.9 5.25 4.95 4.8 5.15 3.9 5.25 3.65 5.4 3.35 5.65 2.95 5.8 2.8 6.2 2.45 Q6.85 2.0 7.8 2.0" fill="#000000" fill-opacity="0.0" fill-rule="evenodd" stroke="none"/>
    </g>
  </defs>
</svg>
