<?xml version="1.0" encoding="UTF-8" standalone="no"?>
<svg xmlns:ffdec="https://www.free-decompiler.com/flash" xmlns:xlink="http://www.w3.org/1999/xlink" ffdec:objectType="frame" height="26.05px" width="52.95px" xmlns="http://www.w3.org/2000/svg">
  <g transform="matrix(1.0, 0.0, 0.0, 1.0, 0.0, 0.0)">
    <use ffdec:characterId="27" height="26.0" transform="matrix(1.0, 0.0, 0.0, 1.0, 0.0, 0.0)" width="41.75" xlink:href="#shape0"/>
    <use ffdec:characterId="42" height="12.95" transform="matrix(1.0, 0.0, 0.0, 1.0, 8.9, 7.2)" width="25.55" xlink:href="#shape1"/>
    <use ffdec:characterId="42" height="12.95" transform="matrix(1.0, 0.0, 0.0, 1.0, 8.1, 6.6)" width="25.55" xlink:href="#shape1"/>
  </g>
  <defs>
    <g id="shape0" transform="matrix(1.0, 0.0, 0.0, 1.0, 0.0, 0.0)">
      <path d="M39.75 4.5 Q39.75 3.45 39.0 2.75 38.3 2.0 37.25 2.0 L4.5 2.0 Q3.45 2.0 2.75 2.75 2.0 3.45 2.0 4.5 L2.0 21.5 Q2.0 22.55 2.75 23.25 3.45 24.0 4.5 24.0 L37.25 24.0 Q38.3 24.0 39.0 23.25 39.75 22.55 39.75 21.5 L39.75 4.5 39.75 4.5" fill="#140f0a" fill-rule="evenodd" stroke="none"/>
      <path d="M2.0 2.0 L39.75 2.0 39.75 24.0 2.0 24.0 2.0 2.0" fill="url(#gradient0)" fill-rule="evenodd" stroke="none"/>
      <path d="M2.0 2.0 L3.5 3.5 3.5 22.5 2.0 24.0 2.0 2.0" fill="#808080" fill-rule="evenodd" stroke="none"/>
      <path d="M39.75 24.0 L38.25 22.5 38.25 3.5 39.75 2.0 39.75 24.0" fill="#a6a6a6" fill-rule="evenodd" stroke="none"/>
      <path d="M2.0 24.0 L3.5 22.5 38.25 22.5 39.75 24.0 2.0 24.0" fill="#4d4d4d" fill-rule="evenodd" stroke="none"/>
      <path d="M39.75 2.0 L38.25 3.5 3.5 3.5 2.0 2.0 39.75 2.0" fill="#d9d9d9" fill-rule="evenodd" stroke="none"/>
    </g>
    <linearGradient gradientTransform="matrix(0.023, 0.0134, -0.0134, 0.023, 20.85, 13.0)" gradientUnits="userSpaceOnUse" id="gradient0" spreadMethod="pad" x1="-819.2" x2="819.2">
      <stop offset="0.0" stop-color="#696969"/>
      <stop offset="0.12156862745098039" stop-color="#b2b2b2"/>
      <stop offset="0.23529411764705882" stop-color="#d9d9d9"/>
      <stop offset="0.32941176470588235" stop-color="#b2b2b2"/>
      <stop offset="0.34509803921568627" stop-color="#c2c2c2"/>
      <stop offset="0.5137254901960784" stop-color="#a3a3a3"/>
      <stop offset="0.6862745098039216" stop-color="#b2b2b2"/>
      <stop offset="0.7254901960784313" stop-color="#9c9c9c"/>
      <stop offset="0.8745098039215686" stop-color="#d9d9d9"/>
      <stop offset="1.0" stop-color="#a1a1a1"/>
    </linearGradient>
    <g id="shape1" transform="matrix(1.0, 0.0, 0.0, 1.0, 0.0, 0.0)">
      <path d="M4.55 1.45 L1.7 1.45 1.7 5.5 4.25 5.5 4.25 6.95 1.7 6.95 1.7 11.3 4.55 11.3 4.55 12.8 0.0 12.8 0.0 0.0 4.55 0.0 4.55 1.45 M10.2 4.5 L10.65 5.6 10.7 6.9 10.7 12.8 9.1 12.8 9.1 6.85 9.05 6.25 8.8 5.75 8.15 5.5 Q7.65 5.55 7.45 5.85 L7.2 6.6 7.2 7.45 7.2 12.8 5.6 12.8 5.6 4.2 7.2 4.2 7.2 5.2 7.25 5.2 7.55 4.7 7.9 4.4 8.4 4.15 8.95 4.1 Q9.8 4.1 10.2 4.5 M11.65 4.2 L12.5 4.2 12.5 1.8 14.1 1.8 14.1 4.2 14.95 4.2 14.95 5.5 14.1 5.5 14.1 12.8 12.5 12.8 12.5 5.5 11.65 5.5 11.65 4.2 M18.25 5.5 Q17.9 5.5 17.7 5.75 L17.4 6.35 17.35 7.05 17.35 7.7 19.25 7.7 19.2 7.05 19.1 6.35 18.8 5.75 Q18.6 5.5 18.25 5.5 M20.85 8.55 L20.85 8.8 17.35 8.8 17.35 9.55 17.45 10.45 17.75 11.2 Q17.95 11.5 18.35 11.5 L18.95 11.25 19.25 10.65 19.35 9.9 20.8 9.9 20.55 11.4 19.75 12.5 18.3 12.95 Q17.4 12.9 16.9 12.5 16.35 12.1 16.1 11.45 L15.75 10.0 15.7 8.55 15.75 7.15 Q15.85 6.35 16.1 5.65 16.35 4.95 16.85 4.55 17.4 4.1 18.25 4.1 19.15 4.1 19.65 4.55 20.15 4.95 20.45 5.65 L20.8 7.1 20.85 8.55 M25.55 4.1 L25.55 5.65 25.3 5.65 Q24.4 5.65 24.05 6.1 23.7 6.55 23.7 7.4 L23.7 12.8 22.1 12.8 22.1 4.2 23.7 4.2 23.7 5.25 23.75 5.25 24.45 4.4 Q24.9 4.1 25.55 4.1" fill="#000000" fill-opacity="0.0" fill-rule="evenodd" stroke="none"/>
    </g>
  </defs>
</svg>
