<?xml version="1.0" encoding="UTF-8" standalone="no"?>
<svg xmlns:ffdec="https://www.free-decompiler.com/flash" xmlns:xlink="http://www.w3.org/1999/xlink" ffdec:objectType="frame" height="26.05px" width="52.95px" xmlns="http://www.w3.org/2000/svg">
  <g transform="matrix(1.0, 0.0, 0.0, 1.0, 0.0, 0.0)">
    <use ffdec:characterId="1" height="26.0" transform="matrix(1.0, 0.0, 0.0, 1.0, 0.0, 0.0)" width="35.75" xlink:href="#shape0"/>
    <use ffdec:characterId="143" height="12.95" transform="matrix(1.0, 0.0, 0.0, 1.0, 5.45, 7.15)" width="32.45" xlink:href="#shape1"/>
    <use ffdec:characterId="143" height="12.95" transform="matrix(1.0, 0.0, 0.0, 1.0, 4.65, 6.55)" width="32.45" xlink:href="#shape1"/>
  </g>
  <defs>
    <g id="shape0" transform="matrix(1.0, 0.0, 0.0, 1.0, 0.0, 0.0)">
      <path d="M2.0 2.0 L2.0 24.0 33.75 24.0 33.75 2.0 2.0 2.0" fill="url(#gradient0)" fill-rule="evenodd" stroke="none"/>
      <path d="M2.0 2.0 L3.5 3.5 3.5 22.5 2.0 24.0 2.0 2.0" fill="#808080" fill-rule="evenodd" stroke="none"/>
      <path d="M33.75 24.0 L32.25 22.5 32.25 3.5 33.75 2.0 33.75 24.0" fill="#a6a6a6" fill-rule="evenodd" stroke="none"/>
      <path d="M2.0 24.0 L3.5 22.5 32.25 22.5 33.75 24.0 2.0 24.0" fill="#4d4d4d" fill-rule="evenodd" stroke="none"/>
      <path d="M33.75 2.0 L32.25 3.5 3.5 3.5 2.0 2.0 33.75 2.0" fill="#d9d9d9" fill-rule="evenodd" stroke="none"/>
    </g>
    <linearGradient gradientTransform="matrix(0.0194, 0.0134, -0.0134, 0.0194, 17.85, 13.0)" gradientUnits="userSpaceOnUse" id="gradient0" spreadMethod="pad" x1="-819.2" x2="819.2">
      <stop offset="0.0" stop-color="#737373"/>
      <stop offset="0.08235294117647059" stop-color="#b2b2b2"/>
      <stop offset="0.20392156862745098" stop-color="#8a8a8a"/>
      <stop offset="0.2901960784313726" stop-color="#b2b2b2"/>
      <stop offset="0.5450980392156862" stop-color="#d4d4d4"/>
      <stop offset="0.6196078431372549" stop-color="#bababa"/>
      <stop offset="0.792156862745098" stop-color="#999999"/>
      <stop offset="0.8941176470588236" stop-color="#8c8c8c"/>
      <stop offset="0.9254901960784314" stop-color="#b0b0b0"/>
      <stop offset="1.0" stop-color="#636363"/>
    </linearGradient>
    <g id="shape1" transform="matrix(1.0, 0.0, 0.0, 1.0, 0.0, 0.0)">
      <path d="M13.0 12.75 L10.4 12.25 8.85 10.7 8.85 2.05 10.4 0.5 12.75 0.0 13.25 0.0 15.6 0.5 17.15 2.05 17.15 10.7 15.6 12.25 13.0 12.75" fill="#000000" fill-opacity="0.0" fill-rule="evenodd" stroke="none"/>
      <path d="M9.0 6.15 L12.75 6.15 12.75 0.15 10.5 0.65 9.0 2.15 9.0 6.15" fill="#000000" fill-opacity="0.0" fill-rule="evenodd" stroke="none"/>
      <path d="M17.0 6.15 L13.25 6.15 13.25 0.15 15.5 0.65 17.0 2.15 17.0 6.15" fill="#000000" fill-opacity="0.0" fill-rule="evenodd" stroke="none"/>
      <path d="M9.0 6.65 L9.0 10.65 10.5 12.15 13.0 12.65 15.5 12.15 17.0 10.65 17.0 6.65 9.0 6.65" fill="#000000" fill-opacity="0.0" fill-rule="evenodd" stroke="none"/>
      <path d="M9.0 6.65 L17.0 6.65 16.5 7.15 9.5 7.15 9.0 6.65" fill="#000000" fill-opacity="0.0" fill-rule="evenodd" stroke="none"/>
      <path d="M9.0 6.65 L9.0 10.65 9.5 10.35 9.5 7.15 9.0 6.65" fill="#000000" fill-opacity="0.0" fill-rule="evenodd" stroke="none"/>
      <path d="M17.0 6.65 L17.0 10.65 16.5 10.35 16.5 7.15 17.0 6.65" fill="#000000" fill-opacity="0.0" fill-rule="evenodd" stroke="none"/>
      <path d="M9.5 10.35 L10.8 11.65 10.5 12.15 9.0 10.65 9.5 10.35" fill="#000000" fill-opacity="0.0" fill-rule="evenodd" stroke="none"/>
      <path d="M13.0 12.65 L13.0 12.15 10.8 11.65 10.5 12.15 13.0 12.65" fill="#000000" fill-opacity="0.0" fill-rule="evenodd" stroke="none"/>
      <path d="M13.0 12.65 L13.0 12.15 15.2 11.65 15.5 12.15 13.0 12.65" fill="#000000" fill-opacity="0.0" fill-rule="evenodd" stroke="none"/>
      <path d="M16.5 10.35 L15.2 11.65 15.5 12.15 17.0 10.65 16.5 10.35" fill="#000000" fill-opacity="0.0" fill-rule="evenodd" stroke="none"/>
      <path d="M9.0 6.15 L12.75 6.15 12.25 5.65 9.5 5.65 9.0 6.15" fill="#000000" fill-opacity="0.0" fill-rule="evenodd" stroke="none"/>
      <path d="M9.0 2.15 L9.0 6.15 9.5 5.65 9.5 2.35 9.0 2.15" fill="#000000" fill-opacity="0.0" fill-rule="evenodd" stroke="none"/>
      <path d="M12.75 6.15 L12.75 0.15 12.25 0.7 12.25 5.65 12.75 6.15" fill="#000000" fill-opacity="0.0" fill-rule="evenodd" stroke="none"/>
      <path d="M9.5 2.35 L10.8 1.0 10.5 0.65 9.0 2.15 9.5 2.35" fill="#000000" fill-opacity="0.0" fill-rule="evenodd" stroke="none"/>
      <path d="M10.8 1.0 L12.25 0.7 12.75 0.15 10.5 0.65 10.8 1.0" fill="#000000" fill-opacity="0.0" fill-rule="evenodd" stroke="none"/>
      <path d="M17.0 6.15 L13.25 6.15 13.75 5.65 16.5 5.65 17.0 6.15" fill="#000000" fill-opacity="0.0" fill-rule="evenodd" stroke="none"/>
      <path d="M17.0 2.15 L17.0 6.15 16.5 5.65 16.5 2.35 17.0 2.15" fill="#000000" fill-opacity="0.0" fill-rule="evenodd" stroke="none"/>
      <path d="M13.25 6.15 L13.25 0.15 13.75 0.7 13.75 5.65 13.25 6.15" fill="#000000" fill-opacity="0.0" fill-rule="evenodd" stroke="none"/>
      <path d="M16.5 2.35 L15.2 1.0 15.5 0.65 17.0 2.15 16.5 2.35" fill="#000000" fill-opacity="0.0" fill-rule="evenodd" stroke="none"/>
      <path d="M15.2 1.0 L13.75 0.7 13.25 0.15 15.5 0.65 15.2 1.0" fill="#000000" fill-opacity="0.0" fill-rule="evenodd" stroke="none"/>
    </g>
  </defs>
</svg>
