<?xml version="1.0" encoding="UTF-8" standalone="no"?>
<svg xmlns:ffdec="https://www.free-decompiler.com/flash" xmlns:xlink="http://www.w3.org/1999/xlink" ffdec:objectType="frame" height="26.05px" width="52.95px" xmlns="http://www.w3.org/2000/svg">
  <g transform="matrix(1.0, 0.0, 0.0, 1.0, 0.0, 0.0)">
    <use ffdec:characterId="132" height="26.0" transform="matrix(1.0, 0.0, 0.0, 1.0, 0.05, 0.05)" width="26.0" xlink:href="#shape0"/>
    <use ffdec:characterId="145" height="13.1" transform="matrix(1.0, 0.0, 0.0, 1.0, 7.7, 7.1)" width="12.35" xlink:href="#shape1"/>
    <use ffdec:characterId="145" height="13.1" transform="matrix(1.0, 0.0, 0.0, 1.0, 6.9, 6.5)" width="12.35" xlink:href="#shape1"/>
  </g>
  <defs>
    <g id="shape0" transform="matrix(1.0, 0.0, 0.0, 1.0, -0.05, -0.05)">
      <path d="M14.1 2.1 Q18.65 2.55 21.55 6.05 21.9 6.5 22.2 6.95 L13.05 13.05 14.1 2.1" fill="#cccccc" fill-rule="evenodd" stroke="none"/>
      <path d="M23.8 15.4 Q22.8 19.85 18.95 22.3 15.85 24.3 12.15 24.0 7.65 23.65 4.7 20.2 2.25 17.4 2.05 13.7 1.8 9.15 4.85 5.75 7.3 2.95 10.9 2.25 L13.05 13.05 23.8 15.4" fill="#e6e6e6" fill-rule="evenodd" stroke="none"/>
      <path d="M22.15 6.85 Q24.7 10.6 23.85 15.1 23.3 18.25 21.05 20.6 17.95 23.9 13.4 24.05 10.15 24.15 7.4 22.5 3.5 20.15 2.4 15.75 1.6 12.6 2.6 9.55 4.05 5.25 8.15 3.2 11.0 1.75 14.2 2.1 L13.05 13.05 22.15 6.85" fill="#b8b8b8" fill-rule="evenodd" stroke="none"/>
      <path d="M23.9 11.25 Q24.65 15.75 22.0 19.45 20.6 21.4 18.55 22.55 14.6 24.85 10.2 23.7 7.95 23.1 6.1 21.6 2.55 18.7 2.1 14.15 1.85 11.8 2.6 9.55 4.05 5.25 8.15 3.2 10.25 2.15 12.6 2.05 L13.05 13.05 23.9 11.25" fill="#b0b0b0" fill-rule="evenodd" stroke="none"/>
      <path d="M21.05 20.6 Q17.95 23.9 13.4 24.05 11.25 24.1 9.25 23.35 4.95 21.8 3.05 17.65 2.15 15.7 2.05 13.6 1.85 9.0 4.9 5.65 6.35 4.05 8.25 3.15 L13.05 13.05 21.05 20.6" fill="#a6a6a6" fill-rule="evenodd" stroke="none"/>
      <path d="M17.8 22.95 Q13.7 24.95 9.4 23.45 6.55 22.45 4.6 20.1 1.7 16.6 2.1 12.1 2.35 9.05 4.15 6.6 L13.05 13.05 17.8 22.95" fill="#9c9c9c" fill-rule="evenodd" stroke="none"/>
      <path d="M14.35 23.95 Q9.85 24.5 6.25 21.7 5.6 21.15 5.0 20.55 1.9 17.2 2.05 12.65 2.1 11.8 2.25 10.95 L13.05 13.05 14.35 23.95" fill="#919191" fill-rule="evenodd" stroke="none"/>
      <path d="M10.85 23.85 Q6.35 22.9 3.85 19.1 2.55 17.1 2.2 14.75 L13.05 13.05 10.85 23.85" fill="#878787" fill-rule="evenodd" stroke="none"/>
      <path d="M7.65 22.65 Q4.4 20.8 2.95 17.4 L13.05 13.05 7.65 22.65" fill="#808080" fill-rule="evenodd" stroke="none"/>
      <path d="M23.05 13.05 Q23.05 8.9 20.1 6.0 17.2 3.05 13.05 3.05 8.9 3.05 6.0 6.0 3.05 8.9 3.05 13.05 3.05 17.2 6.0 20.1 8.9 23.05 13.05 23.05 17.2 23.05 20.1 20.1 23.05 17.2 23.05 13.05 L23.05 13.05" fill="url(#gradient0)" fill-rule="evenodd" stroke="none"/>
    </g>
    <linearGradient gradientTransform="matrix(-0.017, -0.0171, 0.0171, -0.017, 17.35, 17.55)" gradientUnits="userSpaceOnUse" id="gradient0" spreadMethod="pad" x1="-819.2" x2="819.2">
      <stop offset="0.0" stop-color="#8f8f8f"/>
      <stop offset="0.21176470588235294" stop-color="#ababab"/>
      <stop offset="0.3607843137254902" stop-color="#999999"/>
      <stop offset="0.5176470588235295" stop-color="#d9d9d9"/>
      <stop offset="0.6274509803921569" stop-color="#b8b8b8"/>
      <stop offset="0.7294117647058823" stop-color="#ababab"/>
      <stop offset="0.8549019607843137" stop-color="#cccccc"/>
      <stop offset="1.0" stop-color="#808080"/>
    </linearGradient>
    <g id="shape1" transform="matrix(1.0, 0.0, 0.0, 1.0, 0.0, 0.0)">
      <path d="M4.1 0.55 L4.9 1.55 Q5.2 2.2 5.2 3.4 L5.05 4.75 4.55 6.0 3.45 6.7 5.8 12.95 4.05 12.95 1.7 6.65 1.7 12.95 0.0 12.95 0.0 0.15 2.05 0.15 3.05 0.2 4.1 0.55 M3.3 2.65 L2.9 1.85 Q2.6 1.55 1.95 1.6 L1.7 1.6 1.7 5.8 Q2.65 5.85 3.05 5.3 3.4 4.75 3.4 3.8 L3.3 2.65 M10.4 4.7 L10.55 3.55 10.5 2.7 10.25 1.9 Q10.05 1.5 9.55 1.5 9.15 1.5 8.9 1.8 8.7 2.05 8.65 2.45 L8.55 3.15 8.55 3.55 6.95 3.55 6.95 3.45 Q6.9 2.45 7.1 1.7 7.25 0.9 7.85 0.45 8.4 0.0 9.5 0.0 10.6 0.0 11.15 0.4 11.75 0.85 12.0 1.6 L12.2 3.3 12.1 4.5 11.75 5.6 Q11.4 6.1 10.75 6.3 L10.75 6.35 Q11.45 6.55 11.8 7.0 L12.25 8.05 12.35 9.3 12.1 11.2 Q11.85 12.05 11.2 12.6 10.55 13.1 9.4 13.1 7.95 13.1 7.3 12.35 6.7 11.55 6.7 10.15 L6.7 9.75 8.35 9.75 8.35 10.15 8.45 10.85 8.75 11.35 9.4 11.6 10.1 11.3 10.45 10.7 10.6 9.9 10.6 9.2 10.5 8.15 10.05 7.35 Q9.75 7.05 9.1 7.05 L8.6 7.05 8.6 5.5 8.8 5.5 9.9 5.35 10.4 4.7" fill="#000000" fill-opacity="0.0" fill-rule="evenodd" stroke="none"/>
    </g>
  </defs>
</svg>
