<?xml version="1.0" encoding="UTF-8" standalone="no"?>
<svg xmlns:ffdec="https://www.free-decompiler.com/flash" xmlns:xlink="http://www.w3.org/1999/xlink" ffdec:objectType="frame" height="26.05px" width="52.95px" xmlns="http://www.w3.org/2000/svg">
  <g transform="matrix(1.0, 0.0, 0.0, 1.0, 0.0, 0.0)">
    <use ffdec:characterId="3" height="26.0" transform="matrix(1.0, 0.0, 0.0, 1.0, 0.0, 0.0)" width="26.0" xlink:href="#shape0"/>
    <use ffdec:characterId="152" height="12.95" transform="matrix(0.9293, 0.0, 0.0, 0.9326, 8.7, 8.05)" width="11.0" xlink:href="#shape1"/>
    <use ffdec:characterId="152" height="12.95" transform="matrix(0.9293, 0.0, 0.0, 0.9326, 7.9, 7.45)" width="11.0" xlink:href="#shape1"/>
  </g>
  <defs>
    <g id="shape0" transform="matrix(1.0, 0.0, 0.0, 1.0, 0.0, 0.0)">
      <path d="M2.0 2.0 L24.0 2.0 24.0 24.0 2.0 24.0 2.0 2.0" fill="url(#gradient0)" fill-rule="evenodd" stroke="none"/>
      <path d="M24.0 2.0 L22.5 3.5 3.5 3.5 2.0 2.0 24.0 2.0" fill="#d9d9d9" fill-rule="evenodd" stroke="none"/>
      <path d="M2.0 24.0 L3.5 22.5 22.5 22.5 24.0 24.0 2.0 24.0" fill="#4d4d4d" fill-rule="evenodd" stroke="none"/>
      <path d="M2.0 2.0 L3.5 3.5 3.5 22.5 2.0 24.0 2.0 2.0" fill="#808080" fill-rule="evenodd" stroke="none"/>
      <path d="M24.0 24.0 L22.5 22.5 22.5 3.5 24.0 2.0 24.0 24.0" fill="#a6a6a6" fill-rule="evenodd" stroke="none"/>
    </g>
    <linearGradient gradientTransform="matrix(0.0133, 0.0106, -0.0106, 0.0133, 13.0, 12.25)" gradientUnits="userSpaceOnUse" id="gradient0" spreadMethod="pad" x1="-819.2" x2="819.2">
      <stop offset="0.0" stop-color="#b2b2b2"/>
      <stop offset="0.06666666666666667" stop-color="#9e9e9e"/>
      <stop offset="0.13333333333333333" stop-color="#616161"/>
      <stop offset="0.39215686274509803" stop-color="#a6a6a6"/>
      <stop offset="0.6431372549019608" stop-color="#d4d4d4"/>
      <stop offset="0.7450980392156863" stop-color="#ababab"/>
      <stop offset="0.8352941176470589" stop-color="#cccccc"/>
      <stop offset="0.9607843137254902" stop-color="#b2b2b2"/>
      <stop offset="1.0" stop-color="#878787"/>
    </linearGradient>
    <g id="shape1" transform="matrix(1.0, 0.0, 0.0, 1.0, 0.0, 0.0)">
      <path d="M0.0 0.15 L1.7 0.15 1.7 11.45 4.55 11.45 4.55 12.95 0.0 12.95 0.0 0.15 M11.0 3.15 Q11.0 4.1 10.6 5.25 L9.75 7.45 8.8 9.4 7.7 11.45 10.9 11.45 10.9 12.95 5.25 12.95 8.35 6.35 8.95 4.75 9.25 3.05 9.15 2.35 8.8 1.75 Q8.55 1.5 8.1 1.5 7.7 1.5 7.45 1.8 7.25 2.1 7.2 2.55 L7.1 3.35 7.15 3.95 7.15 4.3 5.4 4.3 5.4 3.85 Q5.4 2.8 5.55 1.95 5.75 1.05 6.3 0.5 6.9 0.0 8.15 0.0 9.7 0.0 10.35 0.8 11.0 1.65 11.0 3.15" fill="#000000" fill-opacity="0.0" fill-rule="evenodd" stroke="none"/>
    </g>
  </defs>
</svg>
