<?xml version="1.0" encoding="UTF-8" standalone="no"?>
<svg xmlns:ffdec="https://www.free-decompiler.com/flash" xmlns:xlink="http://www.w3.org/1999/xlink" ffdec:objectType="frame" height="26.05px" width="52.95px" xmlns="http://www.w3.org/2000/svg">
  <g transform="matrix(1.0, 0.0, 0.0, 1.0, 0.0, 0.0)">
    <use ffdec:characterId="3" height="26.0" transform="matrix(1.0, 0.0, 0.0, 1.0, 0.0, 0.0)" width="26.0" xlink:href="#shape0"/>
    <use ffdec:characterId="10" height="9.1" transform="matrix(1.0769, 0.0, 0.0, 1.0769, 7.0, 5.0)" width="3.65" xlink:href="#shape1"/>
    <use ffdec:characterId="11" height="12.8" transform="matrix(1.0, 0.0, 0.0, 1.0, 13.55, 7.8)" width="5.9" xlink:href="#shape2"/>
  </g>
  <defs>
    <g id="shape0" transform="matrix(1.0, 0.0, 0.0, 1.0, 0.0, 0.0)">
      <path d="M2.0 2.0 L24.0 2.0 24.0 24.0 2.0 24.0 2.0 2.0" fill="url(#gradient0)" fill-rule="evenodd" stroke="none"/>
      <path d="M24.0 2.0 L22.5 3.5 3.5 3.5 2.0 2.0 24.0 2.0" fill="#d9d9d9" fill-rule="evenodd" stroke="none"/>
      <path d="M2.0 24.0 L3.5 22.5 22.5 22.5 24.0 24.0 2.0 24.0" fill="#4d4d4d" fill-rule="evenodd" stroke="none"/>
      <path d="M2.0 2.0 L3.5 3.5 3.5 22.5 2.0 24.0 2.0 2.0" fill="#808080" fill-rule="evenodd" stroke="none"/>
      <path d="M24.0 24.0 L22.5 22.5 22.5 3.5 24.0 2.0 24.0 24.0" fill="#a6a6a6" fill-rule="evenodd" stroke="none"/>
    </g>
    <linearGradient gradientTransform="matrix(0.0133, 0.0106, -0.0106, 0.0133, 13.0, 12.25)" gradientUnits="userSpaceOnUse" id="gradient0" spreadMethod="pad" x1="-819.2" x2="819.2">
      <stop offset="0.0" stop-color="#b2b2b2"/>
      <stop offset="0.06666666666666667" stop-color="#9e9e9e"/>
      <stop offset="0.13333333333333333" stop-color="#616161"/>
      <stop offset="0.39215686274509803" stop-color="#a6a6a6"/>
      <stop offset="0.6431372549019608" stop-color="#d4d4d4"/>
      <stop offset="0.7450980392156863" stop-color="#ababab"/>
      <stop offset="0.8352941176470589" stop-color="#cccccc"/>
      <stop offset="0.9607843137254902" stop-color="#b2b2b2"/>
      <stop offset="1.0" stop-color="#878787"/>
    </linearGradient>
    <g id="shape1" transform="matrix(1.0, 0.0, 0.0, 1.0, 0.0, 0.0)">
      <path d="M2.05 0.0 L2.05 0.7 3.0 1.0 3.55 1.8 2.75 2.3 2.45 1.75 1.85 1.55 Q1.4 1.55 1.2 1.85 L1.0 2.55 Q1.0 2.95 1.15 3.2 L1.6 3.65 2.25 4.1 3.05 4.65 3.5 5.25 3.65 6.25 3.55 7.25 3.0 8.0 Q2.7 8.35 2.05 8.4 L2.05 9.1 1.6 9.1 1.6 8.4 0.65 8.05 0.1 7.25 0.95 6.85 1.25 7.35 Q1.45 7.55 1.8 7.55 L2.3 7.4 2.6 6.95 2.65 6.4 2.55 5.7 2.15 5.3 1.6 4.95 Q1.1 4.65 0.75 4.35 L0.2 3.6 0.0 2.6 0.2 1.7 0.7 1.0 Q1.05 0.7 1.6 0.7 L1.6 0.0 2.05 0.0" fill="#140f0a" fill-opacity="0.99607843" fill-rule="evenodd" stroke="none"/>
    </g>
    <g id="shape2" transform="matrix(1.0, 0.0, 0.0, 1.0, 0.0, 0.0)">
      <path d="M3.45 2.6 L3.4 2.6 1.35 8.0 3.45 8.0 3.45 2.6 M3.45 0.0 L5.1 0.0 5.1 8.0 5.9 8.0 5.9 9.3 5.1 9.3 5.1 12.8 3.45 12.8 3.45 9.3 0.0 9.3 0.0 7.8 3.45 0.0" fill="#140f0a" fill-opacity="0.99607843" fill-rule="evenodd" stroke="none"/>
    </g>
  </defs>
</svg>
