<?xml version="1.0" encoding="UTF-8" standalone="no"?>
<svg xmlns:ffdec="https://www.free-decompiler.com/flash" xmlns:xlink="http://www.w3.org/1999/xlink" ffdec:objectType="frame" height="26.05px" width="52.95px" xmlns="http://www.w3.org/2000/svg">
  <g transform="matrix(1.0, 0.0, 0.0, 1.0, 0.0, 0.0)">
    <use ffdec:characterId="3" height="26.0" transform="matrix(1.0, 0.0, 0.0, 1.0, 0.0, 0.0)" width="26.0" xlink:href="#shape0"/>
    <use ffdec:characterId="69" height="5.4" transform="matrix(1.4167, 0.0, 0.0, 1.4167, 7.5, 5.65)" width="4.25" xlink:href="#shape1"/>
    <use ffdec:characterId="69" height="5.4" transform="matrix(1.4167, 0.0, 0.0, 1.4167, 6.7, 5.05)" width="4.25" xlink:href="#shape1"/>
    <use ffdec:characterId="70" height="2.05" transform="matrix(1.0, 0.0, 0.0, 1.0, 16.45, 19.5)" width="2.0" xlink:href="#shape2"/>
    <use ffdec:characterId="70" height="2.05" transform="matrix(1.0, 0.0, 0.0, 1.0, 15.65, 18.9)" width="2.0" xlink:href="#shape2"/>
  </g>
  <defs>
    <g id="shape0" transform="matrix(1.0, 0.0, 0.0, 1.0, 0.0, 0.0)">
      <path d="M2.0 2.0 L24.0 2.0 24.0 24.0 2.0 24.0 2.0 2.0" fill="url(#gradient0)" fill-rule="evenodd" stroke="none"/>
      <path d="M24.0 2.0 L22.5 3.5 3.5 3.5 2.0 2.0 24.0 2.0" fill="#d9d9d9" fill-rule="evenodd" stroke="none"/>
      <path d="M2.0 24.0 L3.5 22.5 22.5 22.5 24.0 24.0 2.0 24.0" fill="#4d4d4d" fill-rule="evenodd" stroke="none"/>
      <path d="M2.0 2.0 L3.5 3.5 3.5 22.5 2.0 24.0 2.0 2.0" fill="#808080" fill-rule="evenodd" stroke="none"/>
      <path d="M24.0 24.0 L22.5 22.5 22.5 3.5 24.0 2.0 24.0 24.0" fill="#a6a6a6" fill-rule="evenodd" stroke="none"/>
    </g>
    <linearGradient gradientTransform="matrix(0.0133, 0.0106, -0.0106, 0.0133, 13.0, 12.25)" gradientUnits="userSpaceOnUse" id="gradient0" spreadMethod="pad" x1="-819.2" x2="819.2">
      <stop offset="0.0" stop-color="#b2b2b2"/>
      <stop offset="0.06666666666666667" stop-color="#9e9e9e"/>
      <stop offset="0.13333333333333333" stop-color="#616161"/>
      <stop offset="0.39215686274509803" stop-color="#a6a6a6"/>
      <stop offset="0.6431372549019608" stop-color="#d4d4d4"/>
      <stop offset="0.7450980392156863" stop-color="#ababab"/>
      <stop offset="0.8352941176470589" stop-color="#cccccc"/>
      <stop offset="0.9607843137254902" stop-color="#b2b2b2"/>
      <stop offset="1.0" stop-color="#878787"/>
    </linearGradient>
    <g id="shape1" transform="matrix(1.0, 0.0, 0.0, 1.0, 0.0, 0.0)">
      <path d="M4.25 2.4 L4.25 3.05 0.0 5.4 0.0 4.65 3.45 2.7 0.0 0.75 0.0 0.0 4.25 2.4" fill="#000000" fill-opacity="0.0" fill-rule="evenodd" stroke="none"/>
    </g>
    <g id="shape2" transform="matrix(1.0, 0.0, 0.0, 1.0, 0.0, 0.0)">
      <path d="M1.0 2.05 Q0.55 2.05 0.3 1.75 0.0 1.45 0.0 1.0 0.0 0.6 0.3 0.3 0.55 0.0 1.0 0.0 1.45 0.0 1.7 0.3 L2.0 1.0 1.7 1.75 1.0 2.05" fill="#000000" fill-opacity="0.0" fill-rule="evenodd" stroke="none"/>
    </g>
  </defs>
</svg>
