<?xml version="1.0" encoding="UTF-8" standalone="no"?>
<svg xmlns:ffdec="https://www.free-decompiler.com/flash" xmlns:xlink="http://www.w3.org/1999/xlink" ffdec:objectType="frame" height="26.05px" width="52.95px" xmlns="http://www.w3.org/2000/svg">
  <g transform="matrix(1.0, 0.0, 0.0, 1.0, 0.0, 0.0)">
    <use ffdec:characterId="3" height="26.0" transform="matrix(1.0, 0.0, 0.0, 1.0, 0.0, 0.0)" width="26.0" xlink:href="#shape0"/>
    <use ffdec:characterId="71" height="7.95" transform="matrix(1.2327, 0.0, 0.0, 1.2327, 8.2, 5.6)" width="2.9" xlink:href="#shape1"/>
    <use ffdec:characterId="71" height="7.95" transform="matrix(1.2327, 0.0, 0.0, 1.2327, 7.4, 5.0)" width="2.9" xlink:href="#shape1"/>
    <use ffdec:characterId="72" height="15.85" transform="matrix(0.9056, 0.0, 0.0, 0.9211, 13.4, 6.95)" width="7.95" xlink:href="#shape2"/>
    <use ffdec:characterId="72" height="15.85" transform="matrix(0.9056, 0.0, 0.0, 0.9211, 12.7, 6.4)" width="7.95" xlink:href="#shape2"/>
  </g>
  <defs>
    <g id="shape0" transform="matrix(1.0, 0.0, 0.0, 1.0, 0.0, 0.0)">
      <path d="M2.0 2.0 L24.0 2.0 24.0 24.0 2.0 24.0 2.0 2.0" fill="url(#gradient0)" fill-rule="evenodd" stroke="none"/>
      <path d="M24.0 2.0 L22.5 3.5 3.5 3.5 2.0 2.0 24.0 2.0" fill="#d9d9d9" fill-rule="evenodd" stroke="none"/>
      <path d="M2.0 24.0 L3.5 22.5 22.5 22.5 24.0 24.0 2.0 24.0" fill="#4d4d4d" fill-rule="evenodd" stroke="none"/>
      <path d="M2.0 2.0 L3.5 3.5 3.5 22.5 2.0 24.0 2.0 2.0" fill="#808080" fill-rule="evenodd" stroke="none"/>
      <path d="M24.0 24.0 L22.5 22.5 22.5 3.5 24.0 2.0 24.0 24.0" fill="#a6a6a6" fill-rule="evenodd" stroke="none"/>
    </g>
    <linearGradient gradientTransform="matrix(0.0133, 0.0106, -0.0106, 0.0133, 13.0, 12.25)" gradientUnits="userSpaceOnUse" id="gradient0" spreadMethod="pad" x1="-819.2" x2="819.2">
      <stop offset="0.0" stop-color="#b2b2b2"/>
      <stop offset="0.06666666666666667" stop-color="#9e9e9e"/>
      <stop offset="0.13333333333333333" stop-color="#616161"/>
      <stop offset="0.39215686274509803" stop-color="#a6a6a6"/>
      <stop offset="0.6431372549019608" stop-color="#d4d4d4"/>
      <stop offset="0.7450980392156863" stop-color="#ababab"/>
      <stop offset="0.8352941176470589" stop-color="#cccccc"/>
      <stop offset="0.9607843137254902" stop-color="#b2b2b2"/>
      <stop offset="1.0" stop-color="#878787"/>
    </linearGradient>
    <g id="shape1" transform="matrix(1.0, 0.0, 0.0, 1.0, 0.0, 0.0)">
      <path d="M1.8 7.75 L1.35 7.95 Q1.1 7.95 0.95 7.75 L0.75 7.3 0.95 6.9 1.35 6.7 1.8 6.9 2.0 7.3 1.8 7.75 M2.85 1.2 L2.9 2.35 2.9 3.0 2.8 3.65 2.45 4.15 1.85 4.4 1.85 6.05 0.95 6.05 0.95 3.7 1.2 3.7 1.7 3.5 1.9 3.05 1.95 2.45 1.95 2.05 1.9 1.5 1.75 1.1 Q1.65 0.9 1.4 0.9 1.2 0.9 1.1 1.05 L1.0 1.45 0.95 1.85 0.95 2.05 0.0 2.05 0.0 1.9 0.1 1.0 0.5 0.3 Q0.75 0.0 1.4 0.0 2.1 0.05 2.4 0.35 L2.85 1.2" fill="#000000" fill-opacity="0.0" fill-rule="evenodd" stroke="none"/>
    </g>
    <g id="shape2" transform="matrix(1.0, 0.0, 0.0, 1.0, 0.0, 0.0)">
      <path d="M6.6 0.0 L7.95 0.0 1.4 15.85 0.0 15.85 6.6 0.0" fill="#000000" fill-opacity="0.0" fill-rule="evenodd" stroke="none"/>
    </g>
  </defs>
</svg>
