<?xml version="1.0" encoding="UTF-8" standalone="no"?>
<svg xmlns:ffdec="https://www.free-decompiler.com/flash" xmlns:xlink="http://www.w3.org/1999/xlink" ffdec:objectType="frame" height="26.05px" width="52.95px" xmlns="http://www.w3.org/2000/svg">
  <g transform="matrix(1.0, 0.0, 0.0, 1.0, 0.0, 0.0)">
    <use ffdec:characterId="27" height="26.0" transform="matrix(1.0, 0.0, 0.0, 1.0, 0.0, 0.0)" width="41.75" xlink:href="#shape0"/>
    <use ffdec:characterId="73" height="14.4" transform="matrix(1.0, 0.0, 0.0, 1.0, 6.0, 5.75)" width="31.35" xlink:href="#shape1"/>
    <use ffdec:characterId="73" height="14.4" transform="matrix(1.0, 0.0, 0.0, 1.0, 5.2, 5.15)" width="31.35" xlink:href="#shape1"/>
  </g>
  <defs>
    <g id="shape0" transform="matrix(1.0, 0.0, 0.0, 1.0, 0.0, 0.0)">
      <path d="M39.75 4.5 Q39.75 3.45 39.0 2.75 38.3 2.0 37.25 2.0 L4.5 2.0 Q3.45 2.0 2.75 2.75 2.0 3.45 2.0 4.5 L2.0 21.5 Q2.0 22.55 2.75 23.25 3.45 24.0 4.5 24.0 L37.25 24.0 Q38.3 24.0 39.0 23.25 39.75 22.55 39.75 21.5 L39.75 4.5 39.75 4.5" fill="#140f0a" fill-rule="evenodd" stroke="none"/>
      <path d="M2.0 2.0 L39.75 2.0 39.75 24.0 2.0 24.0 2.0 2.0" fill="url(#gradient0)" fill-rule="evenodd" stroke="none"/>
      <path d="M2.0 2.0 L3.5 3.5 3.5 22.5 2.0 24.0 2.0 2.0" fill="#808080" fill-rule="evenodd" stroke="none"/>
      <path d="M39.75 24.0 L38.25 22.5 38.25 3.5 39.75 2.0 39.75 24.0" fill="#a6a6a6" fill-rule="evenodd" stroke="none"/>
      <path d="M2.0 24.0 L3.5 22.5 38.25 22.5 39.75 24.0 2.0 24.0" fill="#4d4d4d" fill-rule="evenodd" stroke="none"/>
      <path d="M39.75 2.0 L38.25 3.5 3.5 3.5 2.0 2.0 39.75 2.0" fill="#d9d9d9" fill-rule="evenodd" stroke="none"/>
    </g>
    <linearGradient gradientTransform="matrix(0.023, 0.0134, -0.0134, 0.023, 20.85, 13.0)" gradientUnits="userSpaceOnUse" id="gradient0" spreadMethod="pad" x1="-819.2" x2="819.2">
      <stop offset="0.0" stop-color="#696969"/>
      <stop offset="0.12156862745098039" stop-color="#b2b2b2"/>
      <stop offset="0.23529411764705882" stop-color="#d9d9d9"/>
      <stop offset="0.32941176470588235" stop-color="#b2b2b2"/>
      <stop offset="0.34509803921568627" stop-color="#c2c2c2"/>
      <stop offset="0.5137254901960784" stop-color="#a3a3a3"/>
      <stop offset="0.6862745098039216" stop-color="#b2b2b2"/>
      <stop offset="0.7254901960784313" stop-color="#9c9c9c"/>
      <stop offset="0.8745098039215686" stop-color="#d9d9d9"/>
      <stop offset="1.0" stop-color="#a1a1a1"/>
    </linearGradient>
    <g id="shape1" transform="matrix(1.0, 0.0, 0.0, 1.0, 0.0, 0.0)">
      <path d="M4.95 8.1 L3.6 8.1 3.6 12.2 1.4 12.2 1.4 8.1 0.0 8.1 0.05 8.05 2.5 2.2 4.95 8.05 4.95 8.1 M12.25 3.0 L11.5 2.85 Q10.8 2.9 10.4 3.35 10.0 3.8 10.0 4.5 L10.1 5.25 10.45 5.9 11.75 7.3 12.7 8.4 13.35 9.6 13.55 11.05 Q13.55 12.0 13.2 12.75 L12.15 13.95 10.55 14.4 9.55 14.25 8.7 13.8 8.7 12.1 9.45 12.55 10.35 12.75 11.2 12.5 11.7 11.85 11.85 10.95 Q11.85 10.2 11.5 9.65 L10.6 8.6 9.55 7.55 8.65 6.25 Q8.3 5.55 8.25 4.55 8.25 3.65 8.6 2.9 8.9 2.15 9.55 1.7 10.2 1.25 11.15 1.25 L12.1 1.35 12.95 1.7 12.95 3.4 12.25 3.0 M16.65 6.15 L17.0 5.85 17.5 5.6 18.05 5.55 Q18.9 5.55 19.3 5.95 L19.75 7.05 19.8 8.35 19.8 14.25 18.2 14.25 18.2 8.3 18.15 7.7 17.9 7.15 17.25 6.95 Q16.75 6.95 16.55 7.3 16.35 7.6 16.3 8.05 L16.3 8.9 16.3 14.25 14.7 14.25 14.7 0.15 16.3 0.15 16.3 6.65 16.35 6.65 16.65 6.15 M21.3 5.65 L22.9 5.65 22.9 14.25 21.3 14.25 21.3 5.65 M22.85 2.3 L23.15 3.05 22.85 3.8 22.1 4.15 21.35 3.8 21.0 3.05 Q21.05 2.6 21.35 2.3 21.65 2.0 22.1 2.0 22.55 2.0 22.85 2.3 M27.1 1.7 L26.55 1.9 26.35 2.45 26.35 3.1 26.35 5.65 27.7 5.65 27.7 6.95 26.35 6.95 26.35 14.25 24.75 14.25 24.75 6.95 23.95 6.95 23.95 5.65 24.75 5.65 24.75 2.9 24.85 1.5 Q24.95 0.85 25.4 0.4 25.8 0.0 26.7 0.0 L27.25 0.05 27.75 0.25 27.75 1.9 27.45 1.75 27.1 1.7 M30.5 3.25 L30.5 5.65 31.35 5.65 31.35 6.95 30.5 6.95 30.5 14.25 28.9 14.25 28.9 6.95 28.05 6.95 28.05 5.65 28.9 5.65 28.9 3.25 30.5 3.25" fill="#000000" fill-opacity="0.0" fill-rule="evenodd" stroke="none"/>
    </g>
  </defs>
</svg>
