<?xml version="1.0" encoding="UTF-8" standalone="no"?>
<svg xmlns:ffdec="https://www.free-decompiler.com/flash" xmlns:xlink="http://www.w3.org/1999/xlink" ffdec:objectType="frame" height="26.05px" width="52.95px" xmlns="http://www.w3.org/2000/svg">
  <g transform="matrix(1.0, 0.0, 0.0, 1.0, 0.0, 0.0)">
    <use ffdec:characterId="3" height="26.0" transform="matrix(1.0, 0.0, 0.0, 1.0, 0.0, 0.0)" width="26.0" xlink:href="#shape0"/>
    <use ffdec:characterId="12" height="7.9" transform="matrix(1.1684, 0.0, 0.0, 1.1684, 6.45, 5.05)" width="4.75" xlink:href="#shape1"/>
    <use ffdec:characterId="13" height="12.95" transform="matrix(1.0, 0.0, 0.0, 1.0, 13.7, 7.65)" width="5.6" xlink:href="#shape2"/>
  </g>
  <defs>
    <g id="shape0" transform="matrix(1.0, 0.0, 0.0, 1.0, 0.0, 0.0)">
      <path d="M2.0 2.0 L24.0 2.0 24.0 24.0 2.0 24.0 2.0 2.0" fill="url(#gradient0)" fill-rule="evenodd" stroke="none"/>
      <path d="M24.0 2.0 L22.5 3.5 3.5 3.5 2.0 2.0 24.0 2.0" fill="#d9d9d9" fill-rule="evenodd" stroke="none"/>
      <path d="M2.0 24.0 L3.5 22.5 22.5 22.5 24.0 24.0 2.0 24.0" fill="#4d4d4d" fill-rule="evenodd" stroke="none"/>
      <path d="M2.0 2.0 L3.5 3.5 3.5 22.5 2.0 24.0 2.0 2.0" fill="#808080" fill-rule="evenodd" stroke="none"/>
      <path d="M24.0 24.0 L22.5 22.5 22.5 3.5 24.0 2.0 24.0 24.0" fill="#a6a6a6" fill-rule="evenodd" stroke="none"/>
    </g>
    <linearGradient gradientTransform="matrix(0.0133, 0.0106, -0.0106, 0.0133, 13.0, 12.25)" gradientUnits="userSpaceOnUse" id="gradient0" spreadMethod="pad" x1="-819.2" x2="819.2">
      <stop offset="0.0" stop-color="#b2b2b2"/>
      <stop offset="0.06666666666666667" stop-color="#9e9e9e"/>
      <stop offset="0.13333333333333333" stop-color="#616161"/>
      <stop offset="0.39215686274509803" stop-color="#a6a6a6"/>
      <stop offset="0.6431372549019608" stop-color="#d4d4d4"/>
      <stop offset="0.7450980392156863" stop-color="#ababab"/>
      <stop offset="0.8352941176470589" stop-color="#cccccc"/>
      <stop offset="0.9607843137254902" stop-color="#b2b2b2"/>
      <stop offset="1.0" stop-color="#878787"/>
    </linearGradient>
    <g id="shape1" transform="matrix(1.0, 0.0, 0.0, 1.0, 0.0, 0.0)">
      <path d="M0.8 7.8 L0.15 7.8 3.95 0.1 4.6 0.1 0.8 7.8 M4.1 5.75 L4.05 5.35 3.95 5.0 3.65 4.85 3.4 5.0 3.25 5.35 3.25 5.75 3.25 6.05 3.25 6.35 3.25 6.8 3.4 7.15 3.65 7.3 3.95 7.15 4.05 6.8 4.1 6.35 4.1 6.05 4.1 5.75 M1.3 0.75 L1.1 0.6 Q0.9 0.6 0.8 0.75 L0.7 1.1 0.65 1.5 0.65 1.8 0.65 2.15 0.7 2.55 0.8 2.9 1.1 3.05 1.3 2.9 1.45 2.55 1.45 2.15 1.45 1.8 1.45 1.5 1.45 1.1 1.3 0.75 M2.15 1.25 L2.15 1.8 2.15 2.4 2.0 3.0 1.7 3.45 1.1 3.65 0.5 3.45 0.15 3.0 0.0 2.4 0.0 1.8 0.0 1.25 0.15 0.65 0.5 0.15 1.1 0.0 1.7 0.15 2.0 0.65 2.15 1.25 M4.6 4.85 L4.7 5.45 4.75 6.05 4.7 6.65 4.6 7.25 4.25 7.7 3.65 7.9 3.05 7.7 2.75 7.25 2.6 6.65 2.6 6.05 2.6 5.45 2.75 4.85 3.05 4.4 3.65 4.2 4.25 4.4 4.6 4.85" fill="#140f0a" fill-opacity="0.99607843" fill-rule="evenodd" stroke="none"/>
    </g>
    <g id="shape2" transform="matrix(1.0, 0.0, 0.0, 1.0, 0.0, 0.0)">
      <path d="M5.45 1.45 L2.65 1.45 2.25 4.7 Q3.4 4.65 4.15 5.1 4.9 5.55 5.25 6.4 5.6 7.2 5.6 8.3 L5.45 10.0 4.85 11.5 3.7 12.55 Q3.0 12.95 2.0 12.95 L1.0 12.8 0.0 12.45 0.45 10.9 1.2 11.3 1.95 11.45 2.9 11.15 3.5 10.45 3.8 9.5 3.85 8.55 Q3.9 7.45 3.35 6.75 2.85 6.05 1.65 6.05 L1.15 6.1 0.6 6.2 1.35 0.0 5.45 0.0 5.45 1.45" fill="#140f0a" fill-opacity="0.99607843" fill-rule="evenodd" stroke="none"/>
    </g>
  </defs>
</svg>
