<?xml version="1.0" encoding="UTF-8" standalone="no"?>
<svg xmlns:ffdec="https://www.free-decompiler.com/flash" xmlns:xlink="http://www.w3.org/1999/xlink" ffdec:objectType="frame" height="26.05px" width="52.95px" xmlns="http://www.w3.org/2000/svg">
  <g transform="matrix(1.0, 0.0, 0.0, 1.0, 0.0, 0.0)">
    <use ffdec:characterId="3" height="26.0" transform="matrix(1.0, 0.0, 0.0, 1.0, 0.0, 0.0)" width="26.0" xlink:href="#shape0"/>
    <use ffdec:characterId="80" height="13.1" transform="matrix(1.0, 0.0, 0.0, 1.0, 8.25, 7.05)" width="11.1" xlink:href="#shape1"/>
    <use ffdec:characterId="80" height="13.1" transform="matrix(1.0, 0.0, 0.0, 1.0, 7.45, 6.45)" width="11.1" xlink:href="#shape1"/>
  </g>
  <defs>
    <g id="shape0" transform="matrix(1.0, 0.0, 0.0, 1.0, 0.0, 0.0)">
      <path d="M2.0 2.0 L24.0 2.0 24.0 24.0 2.0 24.0 2.0 2.0" fill="url(#gradient0)" fill-rule="evenodd" stroke="none"/>
      <path d="M24.0 2.0 L22.5 3.5 3.5 3.5 2.0 2.0 24.0 2.0" fill="#d9d9d9" fill-rule="evenodd" stroke="none"/>
      <path d="M2.0 24.0 L3.5 22.5 22.5 22.5 24.0 24.0 2.0 24.0" fill="#4d4d4d" fill-rule="evenodd" stroke="none"/>
      <path d="M2.0 2.0 L3.5 3.5 3.5 22.5 2.0 24.0 2.0 2.0" fill="#808080" fill-rule="evenodd" stroke="none"/>
      <path d="M24.0 24.0 L22.5 22.5 22.5 3.5 24.0 2.0 24.0 24.0" fill="#a6a6a6" fill-rule="evenodd" stroke="none"/>
    </g>
    <linearGradient gradientTransform="matrix(0.0133, 0.0106, -0.0106, 0.0133, 13.0, 12.25)" gradientUnits="userSpaceOnUse" id="gradient0" spreadMethod="pad" x1="-819.2" x2="819.2">
      <stop offset="0.0" stop-color="#b2b2b2"/>
      <stop offset="0.06666666666666667" stop-color="#9e9e9e"/>
      <stop offset="0.13333333333333333" stop-color="#616161"/>
      <stop offset="0.39215686274509803" stop-color="#a6a6a6"/>
      <stop offset="0.6431372549019608" stop-color="#d4d4d4"/>
      <stop offset="0.7450980392156863" stop-color="#ababab"/>
      <stop offset="0.8352941176470589" stop-color="#cccccc"/>
      <stop offset="0.9607843137254902" stop-color="#b2b2b2"/>
      <stop offset="1.0" stop-color="#878787"/>
    </linearGradient>
    <g id="shape1" transform="matrix(1.0, 0.0, 0.0, 1.0, 0.0, 0.0)">
      <path d="M4.6 1.6 L1.7 1.6 1.7 5.65 4.3 5.65 4.3 7.1 1.7 7.1 1.7 12.95 0.0 12.95 0.0 0.15 4.6 0.15 4.6 1.6 M8.3 1.5 Q7.9 1.5 7.65 1.8 7.45 2.05 7.4 2.45 L7.3 3.15 7.3 3.55 5.7 3.55 5.7 3.45 Q5.65 2.45 5.85 1.7 6.0 0.9 6.6 0.45 7.15 0.0 8.25 0.0 9.35 0.0 9.9 0.4 10.5 0.85 10.75 1.6 L10.95 3.3 10.85 4.5 10.5 5.6 9.5 6.3 9.5 6.35 10.55 7.0 11.0 8.05 11.1 9.3 10.85 11.2 Q10.6 12.05 9.95 12.6 9.3 13.1 8.15 13.1 6.7 13.1 6.05 12.35 5.45 11.55 5.45 10.15 L5.45 9.75 7.1 9.75 7.1 10.15 7.2 10.85 7.5 11.35 8.15 11.6 8.85 11.3 9.2 10.7 9.35 9.9 9.35 9.2 9.25 8.15 8.8 7.35 Q8.5 7.05 7.85 7.05 L7.35 7.05 7.35 5.5 7.55 5.5 8.65 5.35 9.15 4.7 9.3 3.55 9.25 2.7 9.0 1.9 Q8.8 1.5 8.3 1.5" fill="#000000" fill-opacity="0.0" fill-rule="evenodd" stroke="none"/>
    </g>
  </defs>
</svg>
