<?xml version="1.0" encoding="UTF-8" standalone="no"?>
<svg xmlns:ffdec="https://www.free-decompiler.com/flash" xmlns:xlink="http://www.w3.org/1999/xlink" ffdec:objectType="frame" height="26.05px" width="52.95px" xmlns="http://www.w3.org/2000/svg">
  <g transform="matrix(1.0, 0.0, 0.0, 1.0, 0.0, 0.0)">
    <use ffdec:characterId="3" height="26.0" transform="matrix(1.0, 0.0, 0.0, 1.0, 0.0, 0.0)" width="26.0" xlink:href="#shape0"/>
    <use ffdec:characterId="87" height="13.1" transform="matrix(1.0, 0.0, 0.0, 1.0, 5.6, 7.05)" width="16.45" xlink:href="#shape1"/>
    <use ffdec:characterId="87" height="13.1" transform="matrix(1.0, 0.0, 0.0, 1.0, 4.8, 6.45)" width="16.45" xlink:href="#shape1"/>
  </g>
  <defs>
    <g id="shape0" transform="matrix(1.0, 0.0, 0.0, 1.0, 0.0, 0.0)">
      <path d="M2.0 2.0 L24.0 2.0 24.0 24.0 2.0 24.0 2.0 2.0" fill="url(#gradient0)" fill-rule="evenodd" stroke="none"/>
      <path d="M24.0 2.0 L22.5 3.5 3.5 3.5 2.0 2.0 24.0 2.0" fill="#d9d9d9" fill-rule="evenodd" stroke="none"/>
      <path d="M2.0 24.0 L3.5 22.5 22.5 22.5 24.0 24.0 2.0 24.0" fill="#4d4d4d" fill-rule="evenodd" stroke="none"/>
      <path d="M2.0 2.0 L3.5 3.5 3.5 22.5 2.0 24.0 2.0 2.0" fill="#808080" fill-rule="evenodd" stroke="none"/>
      <path d="M24.0 24.0 L22.5 22.5 22.5 3.5 24.0 2.0 24.0 24.0" fill="#a6a6a6" fill-rule="evenodd" stroke="none"/>
    </g>
    <linearGradient gradientTransform="matrix(0.0133, 0.0106, -0.0106, 0.0133, 13.0, 12.25)" gradientUnits="userSpaceOnUse" id="gradient0" spreadMethod="pad" x1="-819.2" x2="819.2">
      <stop offset="0.0" stop-color="#b2b2b2"/>
      <stop offset="0.06666666666666667" stop-color="#9e9e9e"/>
      <stop offset="0.13333333333333333" stop-color="#616161"/>
      <stop offset="0.39215686274509803" stop-color="#a6a6a6"/>
      <stop offset="0.6431372549019608" stop-color="#d4d4d4"/>
      <stop offset="0.7450980392156863" stop-color="#ababab"/>
      <stop offset="0.8352941176470589" stop-color="#cccccc"/>
      <stop offset="0.9607843137254902" stop-color="#b2b2b2"/>
      <stop offset="1.0" stop-color="#878787"/>
    </linearGradient>
    <g id="shape1" transform="matrix(1.0, 0.0, 0.0, 1.0, 0.0, 0.0)">
      <path d="M0.0 0.15 L4.6 0.15 4.6 1.6 1.7 1.6 1.7 5.65 4.3 5.65 4.3 7.1 1.7 7.1 1.7 12.95 0.0 12.95 0.0 0.15 M6.15 1.6 L6.15 0.15 9.1 0.15 9.1 12.95 7.4 12.95 7.4 1.6 6.15 1.6 M13.55 1.5 Q13.0 1.5 12.7 2.2 12.45 2.9 12.35 4.05 L12.3 6.55 12.35 9.05 Q12.45 10.2 12.7 10.85 13.0 11.55 13.55 11.6 14.15 11.55 14.4 10.85 L14.75 9.05 14.8 6.55 14.75 4.05 14.4 2.2 Q14.15 1.5 13.55 1.5 M15.9 1.7 L16.3 3.35 16.45 5.1 16.45 6.55 16.45 8.0 16.3 9.75 15.9 11.4 15.05 12.6 Q14.45 13.1 13.55 13.1 12.65 13.1 12.1 12.6 11.5 12.15 11.2 11.4 L10.8 9.75 10.65 8.0 10.65 6.55 10.65 5.1 Q10.65 4.25 10.8 3.35 L11.2 1.7 Q11.5 0.95 12.1 0.45 12.65 0.0 13.55 0.0 14.45 0.0 15.05 0.45 L15.9 1.7" fill="#000000" fill-opacity="0.0" fill-rule="evenodd" stroke="none"/>
    </g>
  </defs>
</svg>
