<?xml version="1.0" encoding="UTF-8" standalone="no"?>
<svg xmlns:ffdec="https://www.free-decompiler.com/flash" xmlns:xlink="http://www.w3.org/1999/xlink" ffdec:objectType="frame" height="26.05px" width="52.95px" xmlns="http://www.w3.org/2000/svg">
  <g transform="matrix(1.0, 0.0, 0.0, 1.0, 0.0, 0.0)">
    <use ffdec:characterId="88" height="26.0" transform="matrix(1.0, 0.0, 0.0, 1.0, 0.0, 0.0)" width="52.95" xlink:href="#shape0"/>
    <use ffdec:characterId="90" height="14.25" transform="matrix(1.0, 0.0, 0.0, 1.0, 11.35, 5.9)" width="31.85" xlink:href="#shape1"/>
    <use ffdec:characterId="90" height="14.25" transform="matrix(1.0, 0.0, 0.0, 1.0, 10.55, 5.3)" width="31.85" xlink:href="#shape1"/>
  </g>
  <defs>
    <g id="shape0" transform="matrix(1.0, 0.0, 0.0, 1.0, 0.0, 0.0)">
      <path d="M2.0 2.0 L2.0 24.0 50.95 24.0 50.95 2.0 2.0 2.0" fill="url(#gradient0)" fill-rule="evenodd" stroke="none"/>
      <path d="M2.0 2.0 L3.5 3.5 3.5 22.5 2.0 24.0 2.0 2.0" fill="#808080" fill-rule="evenodd" stroke="none"/>
      <path d="M50.95 24.0 L49.45 22.5 49.45 3.5 50.95 2.0 50.95 24.0" fill="#a6a6a6" fill-rule="evenodd" stroke="none"/>
      <path d="M2.0 24.0 L3.5 22.5 49.45 22.5 50.95 24.0 2.0 24.0" fill="#4d4d4d" fill-rule="evenodd" stroke="none"/>
      <path d="M50.95 2.0 L49.45 3.5 3.5 3.5 2.0 2.0 50.95 2.0" fill="#d9d9d9" fill-rule="evenodd" stroke="none"/>
    </g>
    <linearGradient gradientTransform="matrix(0.0239, 0.0132, -0.0132, 0.0239, 27.0, 13.05)" gradientUnits="userSpaceOnUse" id="gradient0" spreadMethod="pad" x1="-819.2" x2="819.2">
      <stop offset="0.0" stop-color="#8f8f8f"/>
      <stop offset="0.06666666666666667" stop-color="#b2b2b2"/>
      <stop offset="0.1568627450980392" stop-color="#d9d9d9"/>
      <stop offset="0.28627450980392155" stop-color="#a6a6a6"/>
      <stop offset="0.4" stop-color="#c4c4c4"/>
      <stop offset="0.7019607843137254" stop-color="#a1a1a1"/>
      <stop offset="0.7294117647058823" stop-color="#919191"/>
      <stop offset="0.8901960784313725" stop-color="#a6a6a6"/>
      <stop offset="0.9254901960784314" stop-color="#b2b2b2"/>
      <stop offset="1.0" stop-color="#d9d9d9"/>
    </linearGradient>
    <g id="shape1" transform="matrix(1.0, 0.0, 0.0, 1.0, 0.0, 0.0)">
      <path d="M3.85 1.2 Q4.3 1.3 4.7 1.55 L4.7 3.25 4.0 2.85 3.25 2.7 Q2.55 2.75 2.15 3.2 1.75 3.65 1.75 4.35 L1.85 5.1 2.2 5.75 3.5 7.15 4.45 8.25 5.1 9.45 5.3 10.9 Q5.3 11.85 4.95 12.6 L3.9 13.8 2.3 14.25 1.3 14.1 0.45 13.65 0.45 11.95 1.2 12.4 2.1 12.6 2.95 12.35 3.45 11.7 3.6 10.8 Q3.6 10.05 3.25 9.5 L2.35 8.45 1.3 7.4 0.4 6.1 Q0.05 5.4 0.0 4.4 0.0 3.5 0.35 2.75 0.65 2.0 1.3 1.55 1.95 1.1 2.9 1.1 L3.85 1.2 M7.35 5.85 Q7.85 5.4 8.75 5.4 L9.4 5.45 10.0 5.65 10.0 7.3 9.7 7.0 9.25 6.85 Q8.7 6.9 8.45 7.2 8.15 7.5 8.0 7.95 L7.85 8.9 7.85 9.75 7.85 10.55 8.0 11.55 8.4 12.4 Q8.7 12.75 9.2 12.75 L9.65 12.65 10.0 12.4 10.0 13.9 9.4 14.15 8.7 14.25 Q7.9 14.2 7.4 13.8 6.85 13.35 6.6 12.7 L6.25 11.3 6.2 9.9 6.25 8.45 Q6.35 7.65 6.6 6.95 6.85 6.25 7.35 5.85 M11.2 5.5 L12.8 5.5 12.8 6.55 12.85 6.55 13.55 5.7 Q14.0 5.4 14.65 5.4 L14.65 6.95 14.4 6.95 Q13.5 6.95 13.15 7.4 12.8 7.85 12.8 8.7 L12.8 14.1 11.2 14.1 11.2 5.5 M20.6 12.6 L20.6 14.1 16.05 14.1 16.05 1.3 17.75 1.3 17.75 12.6 20.6 12.6 M24.35 5.45 L24.95 5.65 24.95 7.3 24.65 7.0 24.2 6.85 Q23.65 6.9 23.4 7.2 23.1 7.5 22.95 7.95 L22.8 8.9 22.8 9.75 22.8 10.55 22.95 11.55 23.35 12.4 24.15 12.75 24.6 12.65 24.95 12.4 24.95 13.9 24.35 14.15 23.65 14.25 Q22.85 14.2 22.35 13.8 21.8 13.35 21.55 12.7 21.3 12.05 21.2 11.3 L21.15 9.9 21.2 8.45 Q21.3 7.65 21.55 6.95 21.8 6.25 22.3 5.85 22.8 5.4 23.7 5.4 L24.35 5.45 M26.15 0.0 L27.75 0.0 27.75 9.3 27.8 9.3 29.75 5.5 31.55 5.5 29.35 9.3 31.85 14.1 30.0 14.1 27.8 9.55 27.75 9.55 27.75 14.1 26.15 14.1 26.15 0.0" fill="#000000" fill-opacity="0.0" fill-rule="evenodd" stroke="none"/>
    </g>
  </defs>
</svg>
