<?xml version="1.0" encoding="UTF-8" standalone="no"?>
<svg xmlns:ffdec="https://www.free-decompiler.com/flash" xmlns:xlink="http://www.w3.org/1999/xlink" ffdec:objectType="frame" height="26.05px" width="52.95px" xmlns="http://www.w3.org/2000/svg">
  <g transform="matrix(1.0, 0.0, 0.0, 1.0, 0.0, 0.0)">
    <use ffdec:characterId="3" height="26.0" transform="matrix(1.0, 0.0, 0.0, 1.0, 0.0, 0.0)" width="26.0" xlink:href="#shape0"/>
    <use ffdec:characterId="16" height="7.25" transform="matrix(1.3478, 0.0, 0.0, 1.3478, 7.3, 5.65)" width="4.6" xlink:href="#shape1"/>
    <use ffdec:characterId="16" height="7.25" transform="matrix(1.3478, 0.0, 0.0, 1.3478, 6.5, 5.05)" width="4.6" xlink:href="#shape1"/>
    <use ffdec:characterId="17" height="12.8" transform="matrix(1.0, 0.0, 0.0, 1.0, 14.45, 8.4)" width="5.75" xlink:href="#shape2"/>
    <use ffdec:characterId="17" height="12.8" transform="matrix(1.0, 0.0, 0.0, 1.0, 13.65, 7.8)" width="5.75" xlink:href="#shape2"/>
  </g>
  <defs>
    <g id="shape0" transform="matrix(1.0, 0.0, 0.0, 1.0, 0.0, 0.0)">
      <path d="M2.0 2.0 L24.0 2.0 24.0 24.0 2.0 24.0 2.0 2.0" fill="url(#gradient0)" fill-rule="evenodd" stroke="none"/>
      <path d="M24.0 2.0 L22.5 3.5 3.5 3.5 2.0 2.0 24.0 2.0" fill="#d9d9d9" fill-rule="evenodd" stroke="none"/>
      <path d="M2.0 24.0 L3.5 22.5 22.5 22.5 24.0 24.0 2.0 24.0" fill="#4d4d4d" fill-rule="evenodd" stroke="none"/>
      <path d="M2.0 2.0 L3.5 3.5 3.5 22.5 2.0 24.0 2.0 2.0" fill="#808080" fill-rule="evenodd" stroke="none"/>
      <path d="M24.0 24.0 L22.5 22.5 22.5 3.5 24.0 2.0 24.0 24.0" fill="#a6a6a6" fill-rule="evenodd" stroke="none"/>
    </g>
    <linearGradient gradientTransform="matrix(0.0133, 0.0106, -0.0106, 0.0133, 13.0, 12.25)" gradientUnits="userSpaceOnUse" id="gradient0" spreadMethod="pad" x1="-819.2" x2="819.2">
      <stop offset="0.0" stop-color="#b2b2b2"/>
      <stop offset="0.06666666666666667" stop-color="#9e9e9e"/>
      <stop offset="0.13333333333333333" stop-color="#616161"/>
      <stop offset="0.39215686274509803" stop-color="#a6a6a6"/>
      <stop offset="0.6431372549019608" stop-color="#d4d4d4"/>
      <stop offset="0.7450980392156863" stop-color="#ababab"/>
      <stop offset="0.8352941176470589" stop-color="#cccccc"/>
      <stop offset="0.9607843137254902" stop-color="#b2b2b2"/>
      <stop offset="1.0" stop-color="#878787"/>
    </linearGradient>
    <g id="shape1" transform="matrix(1.0, 0.0, 0.0, 1.0, 0.0, 0.0)">
      <path d="M1.0 5.3 L1.15 5.8 1.45 6.2 1.9 6.35 2.35 6.2 2.65 5.85 1.6 4.05 1.15 4.6 Q1.0 4.9 1.0 5.3 M2.0 0.0 Q2.6 0.0 3.05 0.35 3.45 0.7 3.45 1.35 L3.3 2.15 2.85 2.8 2.3 3.4 3.3 5.05 3.95 4.15 4.6 4.7 3.8 5.85 4.6 7.15 3.45 7.15 3.1 6.55 2.5 7.05 1.75 7.25 Q1.25 7.25 0.85 6.95 L0.25 6.3 0.0 5.35 0.2 4.55 0.6 3.85 1.1 3.25 0.7 2.4 0.5 1.45 0.7 0.65 1.2 0.15 2.0 0.0 M2.45 0.9 Q2.3 0.75 2.05 0.75 1.75 0.75 1.6 0.95 1.45 1.15 1.45 1.4 L1.6 2.05 1.85 2.65 2.2 2.25 2.5 1.85 2.6 1.35 2.45 0.9" fill="#000000" fill-opacity="0.0" fill-rule="evenodd" stroke="none"/>
    </g>
    <g id="shape2" transform="matrix(1.0, 0.0, 0.0, 1.0, 0.0, 0.0)">
      <path d="M0.0 0.0 L5.75 0.0 1.85 12.8 0.0 12.8 3.55 1.45 0.0 1.45 0.0 0.0" fill="#000000" fill-opacity="0.0" fill-rule="evenodd" stroke="none"/>
    </g>
  </defs>
</svg>
