<?xml version="1.0" encoding="UTF-8" standalone="no"?>
<svg xmlns:ffdec="https://www.free-decompiler.com/flash" xmlns:xlink="http://www.w3.org/1999/xlink" ffdec:objectType="frame" height="26.05px" width="52.95px" xmlns="http://www.w3.org/2000/svg">
  <g transform="matrix(1.0, 0.0, 0.0, 1.0, 0.0, 0.0)">
    <use ffdec:characterId="3" height="26.0" transform="matrix(1.0, 0.0, 0.0, 1.0, 0.0, 0.0)" width="26.0" xlink:href="#shape0"/>
    <use ffdec:characterId="18" height="3.3" transform="matrix(1.7581, 0.0, 0.0, 1.7581, 8.05, 5.6)" width="3.1" xlink:href="#shape1"/>
    <use ffdec:characterId="18" height="3.3" transform="matrix(1.7581, 0.0, 0.0, 1.7581, 7.25, 5.0)" width="3.1" xlink:href="#shape1"/>
    <use ffdec:characterId="19" height="13.1" transform="matrix(1.0, 0.0, 0.0, 1.0, 14.55, 8.1)" width="5.55" xlink:href="#shape2"/>
    <use ffdec:characterId="19" height="13.1" transform="matrix(1.0, 0.0, 0.0, 1.0, 13.75, 7.5)" width="5.55" xlink:href="#shape2"/>
  </g>
  <defs>
    <g id="shape0" transform="matrix(1.0, 0.0, 0.0, 1.0, 0.0, 0.0)">
      <path d="M2.0 2.0 L24.0 2.0 24.0 24.0 2.0 24.0 2.0 2.0" fill="url(#gradient0)" fill-rule="evenodd" stroke="none"/>
      <path d="M24.0 2.0 L22.5 3.5 3.5 3.5 2.0 2.0 24.0 2.0" fill="#d9d9d9" fill-rule="evenodd" stroke="none"/>
      <path d="M2.0 24.0 L3.5 22.5 22.5 22.5 24.0 24.0 2.0 24.0" fill="#4d4d4d" fill-rule="evenodd" stroke="none"/>
      <path d="M2.0 2.0 L3.5 3.5 3.5 22.5 2.0 24.0 2.0 2.0" fill="#808080" fill-rule="evenodd" stroke="none"/>
      <path d="M24.0 24.0 L22.5 22.5 22.5 3.5 24.0 2.0 24.0 24.0" fill="#a6a6a6" fill-rule="evenodd" stroke="none"/>
    </g>
    <linearGradient gradientTransform="matrix(0.0133, 0.0106, -0.0106, 0.0133, 13.0, 12.25)" gradientUnits="userSpaceOnUse" id="gradient0" spreadMethod="pad" x1="-819.2" x2="819.2">
      <stop offset="0.0" stop-color="#b2b2b2"/>
      <stop offset="0.06666666666666667" stop-color="#9e9e9e"/>
      <stop offset="0.13333333333333333" stop-color="#616161"/>
      <stop offset="0.39215686274509803" stop-color="#a6a6a6"/>
      <stop offset="0.6431372549019608" stop-color="#d4d4d4"/>
      <stop offset="0.7450980392156863" stop-color="#ababab"/>
      <stop offset="0.8352941176470589" stop-color="#cccccc"/>
      <stop offset="0.9607843137254902" stop-color="#b2b2b2"/>
      <stop offset="1.0" stop-color="#878787"/>
    </linearGradient>
    <g id="shape1" transform="matrix(1.0, 0.0, 0.0, 1.0, 0.0, 0.0)">
      <path d="M2.85 2.65 L1.75 1.95 1.75 3.3 1.3 3.3 1.4 1.95 0.25 2.65 0.0 2.3 1.15 1.65 0.0 1.05 0.2 0.65 1.4 1.35 1.3 0.0 1.75 0.0 1.75 1.35 2.85 0.6 3.1 1.0 1.9 1.65 3.1 2.3 2.85 2.65" fill="#000000" fill-opacity="0.0" fill-rule="evenodd" stroke="none"/>
    </g>
    <g id="shape2" transform="matrix(1.0, 0.0, 0.0, 1.0, 0.0, 0.0)">
      <path d="M2.1 7.2 L1.8 7.9 1.7 8.7 1.7 9.45 1.75 10.3 2.05 11.2 2.75 11.6 3.45 11.2 3.75 10.3 3.8 9.45 3.8 8.7 3.65 7.9 3.35 7.2 Q3.15 6.9 2.75 6.9 2.35 6.9 2.1 7.2 M3.35 1.85 Q3.15 1.5 2.75 1.5 2.3 1.5 2.1 1.85 1.9 2.15 1.85 2.55 L1.8 3.3 1.85 4.05 2.1 4.85 Q2.35 5.25 2.75 5.25 L3.35 4.85 3.6 4.05 3.7 3.3 3.65 2.55 3.35 1.85 M2.65 0.0 Q3.7 0.0 4.3 0.35 4.9 0.7 5.15 1.4 L5.4 3.1 5.3 4.25 4.9 5.3 Q4.6 5.8 4.0 6.0 4.7 6.2 5.0 6.7 L5.45 7.85 5.55 9.1 5.35 11.0 Q5.15 11.95 4.55 12.5 3.95 13.1 2.75 13.1 1.6 13.1 1.0 12.55 0.4 12.0 0.2 11.15 -0.05 10.3 0.0 9.35 L0.05 8.0 Q0.1 7.3 0.45 6.75 0.75 6.2 1.5 6.0 0.9 5.75 0.6 5.3 L0.2 4.25 0.1 3.1 Q0.05 2.25 0.3 1.5 0.5 0.8 1.1 0.4 1.65 0.0 2.65 0.0" fill="#000000" fill-opacity="0.0" fill-rule="evenodd" stroke="none"/>
    </g>
  </defs>
</svg>
