<?xml version="1.0" encoding="UTF-8" standalone="no"?>
<svg xmlns:ffdec="https://www.free-decompiler.com/flash" xmlns:xlink="http://www.w3.org/1999/xlink" ffdec:objectType="frame" height="26.55px" width="70.8px" xmlns="http://www.w3.org/2000/svg">
  <g transform="matrix(1.0, 0.0, 0.0, 1.0, 0.2, 0.4)">
    <use ffdec:characterId="1" height="26.0" transform="matrix(1.0, 0.0, 0.0, 1.0, 0.0, 0.0)" width="35.75" xlink:href="#shape0"/>
    <use ffdec:characterId="2" height="26.0" transform="matrix(1.0, 0.0, 0.0, 1.0, 0.0, 0.0)" width="35.75" xlink:href="#shape1"/>
    <use ffdec:characterId="2" height="26.0" transform="matrix(1.0, 0.0, 0.0, 1.0, 0.0, 0.0)" width="35.75" xlink:href="#shape1"/>
  </g>
  <defs>
    <g id="shape0" transform="matrix(1.0, 0.0, 0.0, 1.0, 0.0, 0.0)">
      <path d="M35.1 2.45 Q35.1 2.5 35.1 2.55 35.1 2.55 35.1 2.6 L35.1 4.05 34.45 3.8 35.1 4.5 35.1 5.25 34.55 5.25 35.1 6.45 35.1 7.1 34.9 8.15 35.1 7.8 35.1 9.55 34.45 9.85 34.8 10.05 35.35 9.8 35.35 8.05 35.15 8.4 35.35 7.35 35.35 6.7 34.8 5.5 35.35 5.5 35.35 4.75 34.7 4.05 35.35 4.3 35.35 2.85 Q35.35 2.85 35.35 2.8 35.35 2.7 35.35 2.65 35.35 2.55 35.3 2.55 35.3 2.5 35.25 2.5 35.2 2.5 35.1 2.45 L35.1 2.45 M35.1 10.4 L35.1 22.5 35.1 23.15 Q35.1 23.45 35.05 23.5 35.05 23.5 34.75 23.5 L34.1 23.5 33.45 23.5 32.6 23.5 32.6 23.75 33.7 23.75 34.35 23.75 35.0 23.75 Q35.25 23.75 35.3 23.75 35.35 23.7 35.35 23.4 L35.35 22.75 35.35 10.55 35.1 10.4 M32.3 22.75 L31.55 23.5 25.95 23.5 25.1 23.05 25.0 23.5 24.0 23.5 23.7 23.5 22.6 23.4 21.9 23.5 20.7 23.5 20.55 23.3 20.05 23.55 7.95 23.5 7.15 23.25 6.65 23.5 5.8 23.5 5.5 23.35 4.75 23.5 4.1 23.5 3.45 23.5 2.8 23.5 2.2 23.45 1.55 23.5 1.1 23.5 Q1.1 23.55 1.1 23.75 1.1 23.75 1.1 23.75 1.1 23.75 1.15 23.75 L1.75 23.75 2.45 23.7 3.05 23.75 3.7 23.75 4.35 23.75 5.0 23.75 5.75 23.6 6.05 23.75 6.9 23.75 18.95 23.75 19.75 23.75 20.3 23.8 20.8 23.55 20.9 23.75 22.15 23.75 22.85 23.65 23.95 23.75 24.25 23.75 25.25 23.75 25.35 23.3 26.15 23.75 31.8 23.75 32.35 23.2 32.3 22.75" fill="#ffffff" fill-rule="evenodd" stroke="none"/>
      <path d="M0.9 2.2 L4.25 2.2 4.5 2.65 4.8 2.4 6.0 2.2 13.45 2.2 13.6 2.7 14.05 2.2 15.35 2.2 26.5 2.2 27.0 2.65 27.2 2.2 27.85 2.2 34.75 2.2 Q34.95 2.2 35.0 2.25 35.1 2.25 35.1 2.35 35.1 2.4 35.1 2.55 35.1 2.55 35.1 2.6 L35.1 4.05 34.45 3.8 35.1 4.5 35.1 5.25 34.55 5.25 35.1 6.45 35.1 7.1 34.9 8.15 35.1 7.8 35.1 9.55 34.45 9.85 35.1 10.3 35.1 22.5 35.1 23.15 Q35.1 23.4 35.1 23.4 35.05 23.5 35.0 23.5 35.0 23.5 34.75 23.5 L34.1 23.5 33.45 23.5 32.35 23.5 32.3 22.75 31.55 23.5 25.95 23.5 25.1 23.05 25.0 23.5 24.0 23.5 23.7 23.5 22.6 23.4 21.9 23.5 20.7 23.5 20.55 23.3 20.05 23.55 7.95 23.5 7.15 23.25 6.65 23.5 5.8 23.5 5.5 23.35 4.75 23.5 4.1 23.5 3.45 23.5 2.8 23.5 2.2 23.45 1.55 23.5 0.9 23.5 Q0.9 23.5 0.9 23.5 0.85 23.5 0.85 23.5 0.65 23.5 0.6 23.5 0.55 23.5 0.55 23.45 0.55 23.4 0.55 23.2 0.55 23.2 0.55 23.2 0.55 23.2 0.55 23.2 0.55 23.15 0.55 23.15 L0.55 17.7 1.3 17.5 0.55 16.75 0.55 16.1 0.55 15.45 0.55 14.45 0.95 14.15 0.55 13.9 0.55 10.65 0.9 10.45 0.55 9.9 0.55 9.0 0.55 8.35 0.55 7.7 1.0 7.2 0.55 6.85 0.55 2.6 Q0.55 2.55 0.55 2.55 0.55 2.4 0.55 2.35 0.55 2.25 0.65 2.25 0.7 2.2 0.85 2.2 0.85 2.2 0.85 2.2 0.85 2.2 0.9 2.2 0.9 2.2 0.9 2.2 L0.9 2.2" fill="#000000" fill-rule="evenodd" stroke="none"/>
    </g>
    <g id="shape1" transform="matrix(1.0, 0.0, 0.0, 1.0, 0.0, 0.0)">
      <path d="M12.2 5.25 Q12.15 5.35 12.05 5.45 12.0 5.55 11.9 5.6 11.8 5.65 11.7 5.65 11.55 5.7 11.45 5.7 11.3 5.7 11.15 5.75 11.1 5.75 10.9 5.75 10.75 5.75 10.65 5.75 10.55 5.75 10.45 5.75 5.9 5.9 5.7 5.95 5.5 5.95 5.4 5.95 5.25 6.0 5.2 6.05 5.1 6.15 5.1 6.25 5.05 6.3 5.1 6.4 5.1 6.5 5.15 6.6 5.2 6.7 5.3 6.8 5.4 6.9 5.5 6.95 5.65 7.0 5.8 7.0 6.05 7.1 6.55 7.35 6.55 11.1 6.55 18.55 6.45 18.6 6.35 18.65 6.3 18.7 6.15 18.75 5.9 18.8 5.95 18.8 5.85 18.85 5.75 18.9 5.65 18.95 5.55 19.0 5.45 19.05 5.35 19.1 5.3 19.15 5.2 19.25 5.1 19.3 5.05 19.4 5.0 19.55 5.05 19.65 5.05 19.75 5.15 19.8 5.2 19.85 5.3 19.9 5.4 19.95 5.55 20.0 5.65 20.0 5.8 20.0 5.9 20.0 6.1 20.0 6.25 20.05 6.35 20.05 6.45 20.05 6.55 20.05 7.2 20.1 9.65 20.1 11.55 20.15 12.7 20.3 12.8 20.3 12.9 20.35 13.0 20.4 13.05 20.5 13.15 20.6 13.2 20.7 13.5 21.15 13.3 20.9 13.4 21.0 13.45 21.05 13.5 21.15 13.6 21.15 13.65 21.2 13.75 21.15 13.85 21.1 14.0 21.0 14.1 20.85 14.2 20.65 14.3 20.45 14.4 20.25 14.45 20.1 14.55 19.9 14.6 19.7 14.7 19.5 14.75 19.3 14.8 19.1 14.8 19.0 14.9 18.65 14.95 18.4 15.0 18.25 15.05 18.05 15.15 17.85 15.2 17.75 15.2 17.65 15.25 17.55 15.25 17.4 15.3 17.25 15.3 17.15 15.35 17.0 15.35 16.9 15.35 16.75 15.3 16.7 15.25 16.6 15.2 16.5 15.1 16.45 15.0 16.45 14.9 16.45 14.75 16.5 14.6 16.55 14.5 16.65 14.4 16.75 14.3 16.85 14.2 16.95 14.1 17.05 14.05 17.15 13.95 17.3 13.75 17.6 13.8 17.5 13.7 17.65 13.6 17.75 13.55 17.85 13.45 17.95 13.35 18.05 13.2 18.15 13.05 18.3 12.85 18.4 12.7 18.5 12.5 18.6 12.3 18.7 12.1 18.75 11.85 18.85 11.65 18.85 11.45 18.9 11.25 18.9 11.0 18.95 10.8 18.9 10.6 18.9 10.4 18.85 10.2 18.8 10.0 18.7 9.85 18.65 9.75 18.55 9.65 18.45 9.55 18.35 9.45 18.25 9.35 18.15 9.25 18.0 9.2 17.9 9.1 17.75 9.05 17.65 9.0 17.5 8.95 17.35 8.95 17.25 8.9 17.1 8.9 16.95 8.9 16.8 8.85 16.05 8.9 14.9 8.9 13.0 8.9 12.95 5.85 12.95 9.3 12.95 9.55 12.95 9.75 12.95 9.95 12.95 10.15 13.0 10.4 13.0 10.55 13.0 10.8 13.05 11.0 13.1 11.2 13.15 11.4 13.25 11.6 13.3 11.75 13.4 11.95 13.5 12.1 13.65 12.9 14.95 12.2 13.85 12.3 14.0 12.35 14.1 12.45 14.2 12.55 14.3 12.65 14.45 12.75 14.5 12.85 14.6 12.95 14.65 13.05 14.7 13.15 14.7 13.25 14.7 13.35 14.65 13.5 14.6 13.6 14.5 13.6 14.35 13.6 14.25 13.6 14.1 13.6 14.0 13.55 13.85 13.55 13.75 13.5 13.6 13.5 13.5 13.45 13.4 13.4 13.25 13.4 13.2 13.35 13.0 13.3 12.85 13.25 12.75 13.2 12.6 13.2 12.5 13.15 12.4 13.1 12.25 13.1 12.2 13.0 11.95 12.95 11.8 12.95 11.7 12.85 11.55 12.85 11.45 12.75 11.3 12.7 11.15 12.65 11.05 12.6 10.9 12.5 10.8 12.45 10.7 12.35 10.55 12.25 10.45 12.1 10.35 11.95 10.35 11.85 10.35 11.75 10.4 11.65 10.45 11.6 10.55 11.5 10.65 11.45 10.8 10.95 11.95 11.35 11.05 11.25 11.2 11.2 11.3 11.15 11.4 11.05 11.5 10.95 11.55 10.8 11.6 10.45 11.65 9.85 11.7 9.0 11.75 8.9 11.75 8.9 10.15 8.9 7.0 9.05 7.0 9.3 7.0 9.7 7.0 9.75 7.0 10.0 7.0 10.2 7.0 10.4 7.0 10.6 7.05 10.85 7.05 11.05 7.1 11.25 7.15 11.45 7.2 11.65 7.3 11.85 7.4 12.05 7.5 12.2 7.65 12.3 7.75 12.4 7.8 12.5 7.9 12.6 8.0 12.7 8.1 12.8 8.2 13.6 9.1 13.0 8.45 13.1 8.55 13.2 8.65 13.3 8.75 13.4 8.85 13.5 8.95 13.65 9.0 13.75 9.1 13.85 9.15 14.0 9.1 14.1 9.05 14.15 9.0 14.2 8.85 14.25 8.8 14.25 8.65 14.25 8.55 14.25 8.4 14.25 8.25 14.2 8.1 14.15 8.0 14.1 7.85 14.05 7.65 14.05 7.6 14.0 7.45 14.0 7.35 13.95 7.25 13.9 7.05 13.8 6.7 13.8 6.75 13.75 6.55 13.75 6.4 13.7 6.25 13.6 6.1 13.55 5.95 13.5 5.8 13.45 5.65 13.35 5.5 13.3 5.35 13.2 5.2 13.1 5.05 13.0 4.95 12.95 4.9 12.9 4.85 12.85 4.85 12.75 4.8 12.7 4.8 12.65 4.8 12.55 4.8 12.5 4.85 12.45 4.85 12.4 4.9 12.35 4.95 12.3 5.0 12.25 5.05 12.2 5.1 12.2 5.15 12.2 5.25 L12.2 5.25" fill="#ffffff" fill-rule="evenodd" stroke="none"/>
      <path d="M17.8 18.35 Q17.8 18.3 17.8 18.2 17.85 18.15 17.85 18.05 17.85 17.95 17.9 17.9 17.9 17.85 17.9 17.75 17.9 17.7 17.9 17.6 17.9 17.55 17.9 17.5 17.9 17.4 17.85 17.35 17.8 17.3 17.75 17.2 17.7 17.1 17.6 17.05 17.55 16.95 17.45 16.9 17.35 16.85 17.25 16.8 17.15 16.75 17.05 16.7 16.95 16.7 16.8 16.65 16.7 16.65 16.6 16.65 16.5 16.65 16.35 16.7 16.25 16.7 16.15 16.75 16.05 16.8 15.9 16.9 15.8 17.0 15.75 17.15 15.65 17.25 15.6 17.4 15.55 17.5 15.5 17.65 15.5 17.8 15.5 17.95 15.5 18.1 15.5 18.25 15.5 18.35 15.55 18.5 15.6 18.65 15.7 18.75 15.8 18.95 15.95 19.15 16.1 19.3 16.25 19.45 16.45 19.6 16.6 19.75 16.8 19.85 17.0 19.95 17.2 20.1 17.4 20.15 17.65 20.25 17.85 20.3 18.1 20.35 18.3 20.35 18.55 20.4 18.75 20.35 19.0 20.35 19.3 20.35 19.55 20.3 19.8 20.25 20.1 20.15 20.35 20.05 20.6 19.95 20.8 19.85 21.05 19.7 21.25 19.55 21.5 19.35 21.65 19.2 21.85 19.0 22.0 18.75 22.15 18.55 22.3 18.3 22.35 18.15 22.4 18.0 22.45 17.85 22.5 17.7 22.5 17.55 22.55 17.4 22.55 17.25 22.55 17.1 22.55 16.9 22.55 16.75 22.5 16.6 22.5 16.45 22.45 16.3 22.35 16.2 22.3 16.05 22.2 15.9 22.1 15.75 22.0 15.65 21.85 15.55 21.75 15.45 21.6 15.35 21.5 15.25 21.35 15.15 21.2 15.05 21.05 15.0 20.9 14.9 20.75 14.85 20.6 14.75 20.45 14.7 20.3 14.65 19.65 14.35 20.0 14.5 19.95 14.45 19.7 14.4 19.55 14.3 19.45 14.3 19.25 14.2 19.15 14.15 19.0 14.1 18.85 14.05 18.7 13.95 18.6 13.9 18.45 13.8 18.35 13.75 18.2 13.65 18.1 13.55 17.95 13.45 17.85 13.35 17.8 13.3 17.75 13.2 17.7 13.1 17.7 13.05 17.7 12.95 17.7 12.85 17.7 12.8 17.75 12.7 17.75 12.65 17.8 12.55 17.85 12.5 17.9 12.4 18.0 12.35 18.05 12.3 18.1 12.25 18.2 12.2 18.3 12.15 18.45 12.1 18.6 12.05 18.7 12.0 18.85 12.0 19.0 12.0 19.15 12.0 19.3 12.0 19.4 12.05 19.55 12.1 19.7 12.15 19.8 12.2 19.95 12.25 20.05 12.35 20.15 12.45 20.25 12.55 20.3 12.6 20.35 12.7 20.4 12.75 20.4 12.85 20.45 12.95 20.45 13.05 20.45 12.95 20.5 13.25 20.5 13.35 20.5 13.4 20.55 13.5 20.55 13.55 20.6 13.65 20.65 13.7 20.7 13.8 20.8 13.85 20.9 13.85 20.95 13.85 21.05 13.85 21.1 13.85 21.2 13.8 21.25 13.75 21.3 13.7 21.35 13.65 21.4 13.6 21.45 13.5 21.5 13.45 21.55 13.4 21.6 13.35 21.65 13.25 21.7 13.15 21.75 13.1 21.8 13.0 21.9 12.9 21.95 12.8 22.0 12.7 22.05 12.55 22.15 12.45 22.2 12.35 22.25 12.25 22.3 12.15 22.35 12.05 22.4 11.9 22.45 11.8 22.5 11.7 22.55 11.6 22.6 11.45 22.65 11.35 22.65 11.3 22.6 11.25 22.6 11.2 22.55 11.15 22.5 11.15 22.45 11.1 22.4 11.1 22.3 11.1 22.25 11.1 22.2 11.1 22.15 11.1 22.05 11.1 21.95 11.1 21.9 11.1 21.85 11.1 21.8 11.05 21.65 11.05 21.55 11.05 21.4 11.05 21.25 11.05 21.15 11.05 21.0 11.05 20.85 11.05 20.75 11.05 20.6 11.05 20.45 11.05 20.35 11.05 20.2 11.0 20.1 11.0 19.95 11.0 19.8 10.95 19.7 10.95 19.6 10.95 19.5 10.9 19.35 10.9 19.25 10.9 19.15 10.9 19.05 10.9 18.95 10.9 18.8 10.9 18.7 10.95 18.6 10.95 18.5 10.95 18.4 11.0 18.3 11.0 18.2 11.05 18.1 11.1 18.0 11.15 17.9 11.2 17.8 11.2 17.7 11.25 17.6 11.3 17.5 11.3 17.4 11.35 17.3 11.4 17.25 11.45 17.15 11.5 17.05 11.6 17.0 11.65 16.9 11.7 16.85 11.8 16.8 11.85 16.75 11.95 16.7 12.05 16.6 12.2 16.5 12.35 16.45 12.55 16.4 12.7 16.3 12.9 16.3 13.05 16.25 13.25 16.25 13.45 16.2 13.6 16.25 13.8 16.25 14.0 16.3 14.15 16.35 14.35 16.4 14.5 16.5 14.65 16.6 14.8 16.7 14.95 16.85 15.05 16.95 15.2 17.1 15.3 17.25 15.45 17.4 15.55 17.5 15.65 17.7 15.75 17.85 15.85 18.0 15.9 18.15 16.0 18.3 16.05 18.45 16.15 18.65 16.2 18.8 16.25 19.0 16.3 19.05 16.35 19.2 16.4 19.35 16.45 19.4 16.5 19.55 16.55 19.65 16.6 19.75 16.65 19.85 16.7 19.95 16.75 20.05 16.8 20.15 16.9 20.2 16.95 20.3 17.05 20.4 17.1 20.45 17.2 20.55 17.3 20.6 17.4 20.65 17.55 20.7 17.65 20.7 17.8 20.7 17.95 20.65 18.05 20.65 18.2 20.6 18.3 20.55 18.45 20.45 18.55 20.4 18.65 20.3 18.75 20.2 18.85 20.1 18.9 20.0 19.0 19.85 19.05 19.75 19.1 19.65 19.1 19.55 19.15 19.45 19.15 19.35 19.15 19.25 19.2 19.1 19.2 19.0 19.2 18.9 19.2 18.8 19.15 18.7 19.15 18.6 19.15 18.45 19.1 18.35 19.1 18.25 19.05 18.15 19.0 18.1 18.95 18.05 18.95 18.05 18.9 18.0 18.9 17.95 18.85 17.95 18.8 17.9 18.75 17.9 18.7 17.9 18.65 17.85 18.6 17.85 18.6 17.85 18.55 17.8 18.5 17.8 18.45 17.8 18.4 17.8 18.35 L17.8 18.35" fill="#ffffff" fill-rule="evenodd" stroke="none"/>
      <path d="M24.35 12.25 Q24.15 12.45 23.95 12.65 23.8 12.9 23.6 13.15 23.45 13.4 23.35 13.65 23.2 13.9 23.15 14.15 23.05 14.45 23.0 14.7 22.9 15.0 22.9 15.3 22.85 15.55 22.85 15.85 22.85 16.15 22.9 16.45 22.95 16.7 23.0 16.9 23.05 17.15 23.15 17.35 23.2 17.55 23.3 17.8 23.4 18.0 23.5 18.2 23.65 18.4 23.8 18.6 23.9 18.8 24.05 19.0 24.2 19.15 24.4 19.3 24.55 19.45 24.75 19.6 24.95 19.75 25.15 19.85 25.35 19.95 25.6 20.05 25.8 20.15 26.05 20.2 26.25 20.3 26.5 20.35 26.75 20.35 26.95 20.4 27.2 20.4 27.45 20.4 27.7 20.35 27.9 20.3 28.15 20.3 28.35 20.2 28.5 20.15 28.6 20.1 28.75 20.05 28.9 20.0 29.0 19.95 29.15 19.9 29.25 19.85 29.4 19.8 29.5 19.75 29.65 19.7 29.75 19.6 29.9 19.55 30.0 19.5 30.1 19.4 30.25 19.35 30.35 19.25 30.4 19.2 30.45 19.15 30.55 19.1 30.6 19.05 30.65 18.95 30.65 18.9 30.7 18.8 30.75 18.75 30.75 18.65 30.75 18.55 30.75 18.5 30.75 18.4 30.7 18.35 30.7 18.25 30.65 18.2 30.55 18.15 30.45 18.15 30.35 18.15 30.3 18.15 30.2 18.15 30.1 18.2 30.0 18.2 29.95 18.25 29.85 18.3 29.8 18.3 29.7 18.35 29.45 18.5 29.5 18.45 29.4 18.5 29.35 18.5 29.25 18.55 29.15 18.6 29.1 18.6 29.05 18.65 28.9 18.7 28.9 18.7 28.85 18.7 28.8 18.75 28.75 18.75 28.7 18.75 28.6 18.8 28.55 18.8 28.5 18.8 28.45 18.85 28.35 18.85 28.3 18.85 28.25 18.85 28.15 18.85 28.05 18.85 27.95 18.85 27.85 18.8 27.7 18.8 27.6 18.75 27.5 18.75 27.4 18.7 27.3 18.65 27.2 18.6 27.1 18.55 27.0 18.5 26.9 18.45 26.8 18.4 26.7 18.35 26.6 18.3 26.55 18.25 26.3 18.05 26.1 17.85 25.9 17.6 25.7 17.35 25.55 17.1 25.4 16.85 25.25 16.55 25.15 16.25 25.05 15.95 25.0 15.65 24.95 15.35 24.95 15.05 24.9 14.75 24.95 14.45 24.95 14.15 25.05 13.85 25.1 13.65 25.2 13.45 25.25 13.25 25.4 13.05 25.5 12.85 25.65 12.7 25.8 12.55 26.0 12.4 26.2 12.3 26.4 12.2 26.6 12.1 26.8 12.05 27.0 12.0 27.25 12.0 27.45 12.0 27.7 12.0 27.8 12.0 27.9 12.05 27.95 12.05 28.05 12.1 28.15 12.15 28.2 12.2 28.3 12.25 28.4 12.3 28.45 12.35 28.55 12.45 28.6 12.5 28.65 12.55 28.75 12.65 28.8 12.7 28.85 12.8 28.9 12.85 28.95 12.9 29.0 12.95 29.1 13.05 29.15 13.1 29.2 13.15 29.3 13.2 29.35 13.25 29.45 13.25 29.5 13.3 29.6 13.35 29.7 13.35 29.75 13.35 29.85 13.4 29.9 13.35 30.0 13.35 30.1 13.35 30.2 13.3 30.3 13.25 30.4 13.2 30.5 13.1 30.55 13.0 30.6 12.9 30.65 12.8 30.7 12.7 30.75 12.6 30.75 12.5 30.75 12.35 30.75 12.25 30.7 12.15 30.65 12.05 30.6 11.9 30.55 11.85 30.45 11.7 30.3 11.6 30.2 11.5 30.05 11.4 29.95 11.3 29.8 11.2 29.65 11.15 29.5 11.1 29.3 11.0 29.15 10.95 29.0 10.95 28.85 10.9 28.65 10.9 28.5 10.85 28.35 10.85 28.15 10.85 27.95 10.85 27.85 10.85 27.65 10.85 27.5 10.85 27.35 10.85 27.2 10.85 27.0 10.85 26.85 10.85 26.7 10.85 26.55 10.9 26.35 10.95 26.2 10.95 26.05 11.0 25.9 11.05 25.75 11.15 25.6 11.2 25.5 11.25 25.45 11.3 25.35 11.35 25.25 11.45 25.2 11.5 25.1 11.55 25.0 11.6 24.95 11.7 24.85 11.75 24.8 11.8 24.7 11.9 24.65 11.95 24.55 12.05 24.5 12.1 24.4 12.15 24.35 12.25 L24.35 12.25" fill="#ffffff" fill-rule="evenodd" stroke="none"/>
    </g>
  </defs>
</svg>
