<?xml version="1.0" encoding="UTF-8" standalone="no"?>
<svg xmlns:ffdec="https://www.free-decompiler.com/flash" xmlns:xlink="http://www.w3.org/1999/xlink" ffdec:objectType="frame" height="26.55px" width="70.8px" xmlns="http://www.w3.org/2000/svg">
  <g transform="matrix(1.0, 0.0, 0.0, 1.0, 0.2, 0.4)">
    <use ffdec:characterId="27" height="26.0" transform="matrix(1.0, 0.0, 0.0, 1.0, 0.0, 0.0)" width="41.75" xlink:href="#shape0"/>
    <use ffdec:characterId="28" height="26.0" transform="matrix(1.0, 0.0, 0.0, 1.0, 0.0, 0.0)" width="35.75" xlink:href="#shape1"/>
    <use ffdec:characterId="28" height="26.0" transform="matrix(1.0, 0.0, 0.0, 1.0, 0.0, 0.0)" width="35.75" xlink:href="#shape1"/>
  </g>
  <defs>
    <g id="shape0" transform="matrix(1.0, 0.0, 0.0, 1.0, 0.0, 0.0)">
      <path d="M41.4 2.45 Q41.4 2.5 41.4 2.5 41.4 2.55 41.4 2.55 41.4 2.55 41.4 2.6 L41.4 4.05 40.75 3.8 41.4 4.5 41.4 5.25 40.85 5.25 41.4 6.45 41.4 7.1 41.2 8.15 41.4 7.8 41.4 9.55 40.75 9.85 41.1 10.05 41.65 9.8 41.65 8.05 41.45 8.4 41.65 7.35 41.65 6.7 41.1 5.5 41.65 5.5 41.65 4.75 41.0 4.05 41.65 4.3 41.65 2.85 Q41.65 2.85 41.65 2.8 41.65 2.7 41.65 2.65 41.65 2.55 41.6 2.55 41.6 2.5 41.55 2.5 41.5 2.5 41.4 2.45 L41.4 2.45 M41.4 10.4 L41.4 22.5 41.4 23.15 Q41.4 23.4 41.4 23.4 41.4 23.5 41.3 23.5 41.3 23.5 41.05 23.5 L40.4 23.5 39.75 23.5 38.9 23.5 38.9 23.75 40.0 23.75 40.65 23.75 41.3 23.75 Q41.5 23.75 41.55 23.75 41.6 23.75 41.65 23.65 41.65 23.65 41.65 23.4 L41.65 22.75 41.65 10.55 41.4 10.4 M38.6 22.75 L37.85 23.5 25.15 23.5 24.3 23.05 24.25 23.5 23.2 23.5 22.9 23.5 21.8 23.4 21.1 23.5 19.9 23.5 19.75 23.3 19.25 23.55 7.45 23.5 6.65 23.25 6.2 23.5 5.3 23.5 5.05 23.35 4.25 23.5 3.65 23.5 3.0 23.5 2.35 23.5 1.75 23.45 1.05 23.5 0.65 23.5 Q0.65 23.65 0.6 23.75 0.65 23.75 0.65 23.75 0.65 23.75 0.65 23.75 L1.3 23.75 2.0 23.7 2.6 23.75 3.2 23.75 3.85 23.75 4.5 23.75 5.25 23.6 5.55 23.75 6.45 23.75 18.15 23.75 18.95 23.75 19.5 23.8 20.0 23.55 20.1 23.75 21.35 23.75 22.05 23.65 23.15 23.75 23.45 23.75 24.45 23.75 24.55 23.3 25.35 23.75 38.1 23.75 38.65 23.2 38.6 22.75" fill="#ffffff" fill-rule="evenodd" stroke="none"/>
      <path d="M0.4 2.2 L3.75 2.2 4.0 2.65 4.3 2.4 5.55 2.2 13.95 2.2 14.1 2.7 14.55 2.2 15.85 2.2 28.95 2.2 29.45 2.65 29.65 2.2 30.3 2.2 41.05 2.2 Q41.25 2.2 41.3 2.25 41.4 2.25 41.4 2.35 41.4 2.4 41.4 2.55 41.4 2.55 41.4 2.6 L41.4 4.05 40.75 3.8 41.4 4.5 41.4 5.25 40.85 5.25 41.4 6.45 41.4 7.1 41.2 8.15 41.4 7.8 41.4 9.55 40.75 9.85 41.4 10.3 41.4 22.5 41.4 23.15 Q41.4 23.4 41.4 23.4 41.4 23.5 41.3 23.5 41.3 23.5 41.05 23.5 L40.4 23.5 39.75 23.5 38.65 23.5 38.6 22.75 37.85 23.5 25.15 23.5 24.3 23.05 24.25 23.5 23.2 23.5 22.9 23.5 21.8 23.4 21.1 23.5 19.9 23.5 19.75 23.3 19.25 23.55 7.45 23.5 6.65 23.25 6.2 23.5 5.3 23.5 5.05 23.35 4.25 23.5 3.65 23.5 3.0 23.5 2.35 23.5 1.75 23.45 1.05 23.5 0.4 23.5 Q0.4 23.5 0.4 23.5 0.4 23.5 0.4 23.5 0.2 23.5 0.15 23.5 0.1 23.5 0.05 23.45 0.05 23.4 0.05 23.2 0.05 23.2 0.05 23.2 0.05 23.2 0.05 23.2 0.05 23.15 0.05 23.15 L0.05 17.7 0.85 17.5 0.05 16.75 0.05 16.1 0.05 15.45 0.05 14.45 0.45 14.15 0.05 13.9 0.05 10.65 0.45 10.45 0.05 9.9 0.05 9.0 0.05 8.35 0.05 7.7 0.55 7.2 0.05 6.85 0.05 2.6 Q0.05 2.55 0.05 2.55 0.05 2.4 0.05 2.35 0.1 2.25 0.15 2.25 0.2 2.2 0.35 2.2 0.35 2.2 0.4 2.2 0.4 2.2 0.4 2.2 0.4 2.2 0.4 2.2 L0.4 2.2" fill="#000000" fill-rule="evenodd" stroke="none"/>
    </g>
    <g id="shape1" transform="matrix(1.0, 0.0, 0.0, 1.0, 0.0, 0.0)">
      <path d="M8.2 6.15 Q8.25 6.15 8.6 6.1 9.15 6.05 9.8 6.0 10.7 5.9 11.65 5.85 12.9 5.75 14.15 5.7 15.7 5.65 17.2 5.6 19.0 5.6 20.75 5.65 22.7 5.7 24.7 5.8 26.85 5.95 28.95 6.2 28.95 6.15 29.0 5.95 29.15 5.6 29.45 5.0 29.85 4.2 30.55 3.0 30.5 2.9 17.7 3.25 4.9 3.6 4.95 4.15 5.0 4.2 6.6 5.2 8.2 6.15 8.2 6.15 L8.2 6.15" fill="#f1edf8" fill-rule="evenodd" stroke="none"/>
      <path d="M8.2 15.05 Q8.2 15.05 8.6 15.0 9.15 14.95 9.8 14.9 10.7 14.8 11.65 14.75 12.9 14.65 14.15 14.6 15.7 14.55 17.2 14.55 19.0 14.5 20.75 14.55 22.7 14.6 24.7 14.75 26.85 14.85 28.95 15.1 28.95 15.05 29.0 14.85 29.15 14.5 29.45 13.9 29.85 13.1 30.55 11.9 30.55 11.8 17.7 12.15 4.9 12.55 4.95 13.05 6.6 14.05 8.2 15.05 L8.2 15.05" fill="#f1edf8" fill-rule="evenodd" stroke="none"/>
      <path d="M8.2 23.95 Q8.2 23.95 8.6 23.9 9.2 23.85 9.8 23.8 10.7 23.7 11.65 23.65 12.9 23.55 14.15 23.5 15.7 23.45 17.2 23.45 19.0 23.4 20.75 23.45 22.75 23.5 24.7 23.65 26.85 23.8 28.95 24.0 28.9 24.0 29.15 23.4 29.55 22.5 30.55 20.85 30.55 20.75 17.7 21.1 4.9 21.45 4.95 21.95 6.6 22.95 8.2 23.95 L8.2 23.95" fill="#f1edf8" fill-rule="evenodd" stroke="none"/>
    </g>
  </defs>
</svg>
