<?xml version="1.0" encoding="UTF-8" standalone="no"?>
<svg xmlns:ffdec="https://www.free-decompiler.com/flash" xmlns:xlink="http://www.w3.org/1999/xlink" ffdec:objectType="frame" height="26.55px" width="70.8px" xmlns="http://www.w3.org/2000/svg">
  <g transform="matrix(1.0, 0.0, 0.0, 1.0, 0.2, 0.4)">
    <use ffdec:characterId="3" height="26.0" transform="matrix(1.0, 0.0, 0.0, 1.0, 0.0, 0.0)" width="26.0" xlink:href="#shape0"/>
    <use ffdec:characterId="105" height="26.0" transform="matrix(1.0, 0.0, 0.0, 1.0, 0.0, 0.0)" width="26.0" xlink:href="#shape1"/>
    <use ffdec:characterId="105" height="26.0" transform="matrix(1.0, 0.0, 0.0, 1.0, 0.0, 0.0)" width="26.0" xlink:href="#shape1"/>
  </g>
  <defs>
    <g id="shape0" transform="matrix(1.0, 0.0, 0.0, 1.0, 0.0, 0.0)">
      <path d="M23.5 2.45 Q23.5 2.5 23.5 2.5 23.5 2.55 23.5 2.55 23.5 2.55 23.5 2.55 23.5 2.6 23.5 2.6 L23.5 4.05 22.85 3.8 23.5 4.5 23.5 5.25 22.95 5.25 23.5 6.45 23.5 7.1 23.3 8.15 23.5 7.8 23.5 9.55 22.85 9.85 23.15 10.05 23.75 9.8 23.75 8.05 23.5 8.4 23.75 7.35 23.75 6.7 23.2 5.5 23.75 5.5 23.75 4.75 23.1 4.05 23.75 4.3 23.75 2.85 Q23.75 2.8 23.75 2.8 23.75 2.7 23.75 2.65 23.75 2.55 23.7 2.55 23.7 2.5 23.65 2.5 23.6 2.5 23.5 2.45 L23.5 2.45 M23.5 10.4 L23.5 22.5 23.5 23.15 Q23.5 23.4 23.5 23.4 23.45 23.5 23.4 23.5 23.35 23.5 23.15 23.5 L22.5 23.5 21.85 23.5 20.95 23.5 21.0 23.75 22.1 23.75 22.75 23.75 23.4 23.75 Q23.65 23.75 23.7 23.75 23.75 23.7 23.75 23.4 L23.75 22.75 23.75 10.55 23.5 10.4 M20.7 22.75 L19.95 23.5 16.1 23.5 15.25 23.05 15.2 23.5 14.15 23.5 13.9 23.5 12.75 23.4 12.05 23.5 10.85 23.5 10.7 23.3 10.2 23.55 9.7 23.5 8.85 23.25 8.4 23.5 7.5 23.5 7.25 23.35 6.45 23.5 5.85 23.5 5.2 23.5 4.55 23.5 3.95 23.45 3.25 23.5 2.85 23.5 Q2.85 23.55 2.85 23.6 2.85 23.65 2.85 23.7 2.8 23.7 2.8 23.75 2.85 23.75 2.85 23.75 2.85 23.75 2.85 23.75 L3.5 23.75 4.2 23.7 4.8 23.75 5.45 23.75 6.05 23.75 6.7 23.75 7.45 23.6 7.75 23.75 8.65 23.75 9.1 23.5 9.9 23.75 10.45 23.8 10.95 23.55 11.1 23.75 12.3 23.75 13.0 23.65 14.1 23.75 14.4 23.75 15.4 23.75 15.5 23.3 16.35 23.75 20.15 23.75 20.75 23.2 20.7 22.75" fill="#ffffff" fill-rule="evenodd" stroke="none"/>
      <path d="M2.6 2.2 L5.95 2.2 6.2 2.65 6.5 2.4 7.75 2.2 13.5 2.2 13.7 2.7 14.15 2.2 15.45 2.2 16.65 2.2 17.15 2.65 17.35 2.2 18.0 2.2 23.15 2.2 Q23.35 2.2 23.4 2.25 23.45 2.25 23.5 2.35 23.5 2.4 23.5 2.55 23.5 2.55 23.5 2.6 L23.5 4.05 22.85 3.8 23.5 4.5 23.5 5.25 22.95 5.25 23.5 6.45 23.5 7.1 23.3 8.15 23.5 7.8 23.5 9.55 22.85 9.85 23.5 10.3 23.5 22.5 23.5 23.15 Q23.5 23.4 23.5 23.4 23.45 23.5 23.4 23.5 23.35 23.5 23.15 23.5 L22.5 23.5 21.85 23.5 20.75 23.5 20.7 22.75 19.95 23.5 16.1 23.5 15.25 23.05 15.2 23.5 14.15 23.5 13.9 23.5 12.75 23.4 12.05 23.5 10.85 23.5 10.7 23.3 10.2 23.55 9.7 23.5 8.85 23.25 8.4 23.5 7.5 23.5 7.25 23.35 6.45 23.5 5.85 23.5 5.2 23.5 4.55 23.5 3.95 23.45 3.25 23.5 2.6 23.5 Q2.6 23.5 2.6 23.5 2.6 23.5 2.6 23.5 2.4 23.5 2.35 23.5 2.3 23.5 2.25 23.45 2.25 23.4 2.25 23.2 2.25 23.2 2.25 23.2 2.25 23.2 2.25 23.2 2.25 23.15 2.25 23.15 L2.25 17.7 3.05 17.5 2.25 16.75 2.25 16.1 2.25 15.45 2.25 14.45 2.65 14.15 2.25 13.9 2.25 10.65 2.65 10.45 2.25 9.9 2.25 9.0 2.25 8.35 2.25 7.7 2.75 7.2 2.25 6.85 2.25 2.6 Q2.25 2.55 2.25 2.55 2.25 2.4 2.25 2.35 2.3 2.25 2.35 2.25 2.4 2.2 2.55 2.2 2.55 2.2 2.6 2.2 2.6 2.2 2.6 2.2 2.6 2.2 2.6 2.2 L2.6 2.2" fill="#000000" fill-rule="evenodd" stroke="none"/>
    </g>
    <g id="shape1" transform="matrix(1.0, 0.0, 0.0, 1.0, 0.0, 0.0)">
      <path d="M9.95 5.6 Q9.9 5.6 9.9 5.6 9.85 5.6 9.8 5.6 9.8 5.6 9.75 5.65 9.7 5.65 9.7 5.65 9.65 5.7 9.65 5.7 9.65 5.75 9.6 5.8 9.6 5.8 9.6 5.85 9.55 5.9 9.55 5.9 9.55 5.95 9.5 6.0 9.5 6.0 9.5 6.05 9.45 6.1 9.45 6.15 9.4 6.15 9.4 6.2 9.4 6.2 9.35 6.25 9.35 6.25 9.3 6.25 9.3 6.3 9.25 6.3 9.25 6.3 9.2 6.35 9.15 6.35 9.15 6.35 9.1 6.4 9.05 6.4 9.0 6.4 8.95 6.4 8.9 6.4 8.85 6.4 8.8 6.45 8.75 6.45 8.65 6.45 8.6 6.45 8.55 6.45 8.45 6.45 8.4 6.45 8.3 6.45 7.5 6.55 5.7 6.55 3.8 6.6 3.25 6.7 3.2 6.7 3.15 6.75 3.1 6.75 3.05 6.75 3.0 6.75 2.95 6.8 2.9 6.8 2.9 6.85 2.85 6.85 2.8 6.9 2.8 6.9 2.8 6.95 2.75 7.0 2.75 7.0 2.75 7.05 2.75 7.1 2.75 7.15 2.75 7.2 2.75 7.2 2.8 7.25 2.8 7.3 2.85 7.35 2.9 7.35 2.9 7.4 2.95 7.45 3.0 7.5 3.1 7.5 3.15 7.55 3.2 7.6 3.3 7.65 3.35 7.7 3.45 7.7 L4.25 8.05 4.25 18.9 3.45 19.2 Q3.35 19.25 3.3 19.3 3.2 19.35 3.15 19.35 3.05 19.4 3.0 19.45 2.95 19.5 2.9 19.55 2.9 19.55 2.85 19.6 2.8 19.65 2.8 19.7 2.75 19.75 2.75 19.8 2.75 19.8 2.75 19.85 2.75 19.9 2.75 19.9 2.75 19.95 2.8 20.0 2.8 20.05 2.8 20.05 2.85 20.1 2.85 20.1 2.9 20.15 2.95 20.15 2.95 20.2 3.0 20.2 3.05 20.2 3.1 20.25 3.15 20.25 3.2 20.25 3.8 20.35 5.3 20.35 6.9 20.4 7.1 20.4 7.15 20.4 7.15 20.4 7.2 20.4 7.25 20.4 7.25 20.4 7.3 20.4 7.3 20.4 7.35 20.4 7.35 20.4 7.4 20.4 7.45 20.4 7.45 20.4 7.5 20.35 7.5 20.35 7.55 20.35 7.55 20.35 7.6 20.35 7.6 20.35 7.65 20.3 7.65 20.3 7.7 20.3 7.75 20.3 7.75 20.3 7.8 20.3 7.85 20.3 7.85 20.3 7.9 20.3 7.95 20.3 8.0 20.3 8.0 20.3 8.05 20.3 8.1 20.3 8.1 20.3 8.15 20.25 8.15 20.25 8.15 20.2 8.15 20.15 8.15 20.05 8.15 19.95 8.1 19.8 8.1 19.75 8.1 19.7 8.05 19.65 8.05 19.6 8.05 19.55 8.0 19.55 8.0 19.5 7.95 19.45 7.9 19.45 7.9 19.4 7.85 19.35 7.8 19.35 7.75 19.35 7.7 19.3 7.65 19.3 7.6 19.3 7.5 19.3 7.4 19.25 7.35 19.25 7.25 19.2 7.2 19.2 7.1 19.15 7.05 19.1 7.0 19.1 6.95 19.05 6.9 19.0 6.85 18.95 6.8 18.9 6.75 18.85 6.75 18.8 6.7 18.75 6.65 18.65 6.5 18.15 6.5 16.05 L6.5 13.4 7.75 13.55 Q7.85 13.55 7.95 13.55 8.0 13.55 8.1 13.6 8.2 13.6 8.25 13.6 8.35 13.6 8.4 13.65 8.5 13.65 8.55 13.65 8.6 13.7 8.65 13.7 8.75 13.7 8.8 13.75 8.85 13.75 8.9 13.75 8.95 13.8 9.0 13.8 9.05 13.85 9.1 13.9 9.15 13.95 9.2 13.95 9.25 14.0 9.3 14.05 9.35 14.1 9.4 14.15 9.45 14.25 9.5 14.3 9.55 14.35 9.65 14.45 9.7 14.5 9.75 14.6 9.8 14.65 9.85 14.75 9.95 14.8 10.0 14.85 10.05 14.9 10.1 14.95 10.15 15.0 10.2 15.05 10.25 15.05 10.3 15.1 10.35 15.1 10.4 15.15 10.45 15.15 10.45 15.15 10.5 15.2 10.55 15.2 10.6 15.2 10.6 15.2 10.65 15.15 10.65 15.15 10.7 15.15 10.7 15.1 10.75 15.1 10.75 15.05 10.75 15.0 10.8 14.95 10.8 14.9 10.8 14.85 10.8 14.8 10.8 14.75 10.85 14.65 10.85 14.6 10.8 14.0 10.25 12.4 10.2 12.2 10.1 12.0 10.05 11.85 10.0 11.7 9.9 11.55 9.85 11.4 9.8 11.3 9.7 11.2 9.65 11.1 9.6 11.0 9.5 10.95 9.45 10.9 9.35 10.85 9.3 10.8 9.2 10.8 9.15 10.8 9.1 10.8 9.1 10.8 9.05 10.8 9.05 10.85 9.0 10.85 9.0 10.85 8.95 10.9 8.95 10.95 8.9 10.95 8.9 11.0 8.9 11.05 8.85 11.1 8.85 11.15 8.85 11.2 8.8 11.25 8.8 11.3 8.8 11.4 8.8 11.45 8.75 11.5 8.75 11.55 8.75 11.65 8.7 11.7 8.7 11.75 8.7 11.8 8.65 11.85 8.65 11.9 8.6 11.9 8.6 11.95 8.55 12.0 8.5 12.05 8.5 12.05 8.45 12.1 8.4 12.1 8.35 12.15 8.3 12.15 8.25 12.15 8.2 12.2 8.15 12.2 8.1 12.2 8.05 12.25 7.95 12.25 7.9 12.25 7.85 12.25 7.75 12.25 7.7 12.25 7.6 12.3 7.55 12.3 7.45 12.3 L6.5 12.3 6.5 7.7 7.6 7.7 Q7.85 7.7 8.1 7.75 8.3 7.75 8.55 7.8 8.75 7.85 8.95 7.9 9.15 7.95 9.3 8.05 9.45 8.1 9.6 8.25 9.75 8.35 9.9 8.45 10.0 8.55 10.15 8.7 10.25 8.85 10.3 9.0 10.35 9.05 10.4 9.15 10.4 9.2 10.45 9.25 10.5 9.3 10.55 9.35 10.6 9.4 10.65 9.45 10.65 9.5 10.7 9.55 10.75 9.6 10.8 9.6 10.85 9.65 10.9 9.7 10.95 9.7 11.0 9.75 11.05 9.75 11.1 9.8 11.15 9.8 11.2 9.8 11.2 9.8 11.25 9.8 11.3 9.8 11.35 9.8 11.35 9.8 11.4 9.8 11.45 9.75 11.45 9.75 11.5 9.7 11.5 9.7 11.55 9.65 11.55 9.6 11.55 9.6 11.55 9.6 11.55 9.55 11.6 9.55 11.6 9.55 11.6 9.5 11.6 9.5 11.6 9.45 11.6 9.45 11.6 9.4 11.6 9.4 11.6 9.35 11.6 9.3 11.6 9.3 11.6 9.25 11.6 9.2 11.6 9.15 11.6 9.1 11.6 9.05 11.6 8.95 11.55 8.9 11.55 8.8 11.5 8.7 11.45 8.55 11.45 8.45 11.4 8.3 11.35 8.15 11.3 8.0 11.25 7.85 11.15 7.65 11.1 7.5 11.0 7.3 10.95 7.1 10.85 6.9 10.8 6.75 10.7 6.6 10.65 6.45 10.6 6.3 10.55 6.15 10.5 6.05 10.4 5.95 10.35 5.9 10.3 5.8 10.25 5.75 10.2 5.7 10.15 5.65 10.1 5.6 10.05 5.6 10.0 5.6 10.0 5.6 9.95 5.6 9.95 5.6 L9.95 5.6 M14.5 8.75 Q14.45 8.75 14.4 8.75 14.35 8.75 14.3 8.75 14.3 8.8 14.25 8.8 14.2 8.8 14.15 8.85 14.1 8.85 14.05 8.9 14.05 8.9 14.0 8.95 13.95 8.95 13.9 9.0 13.9 9.05 13.85 9.1 13.8 9.15 13.8 9.2 13.75 9.2 13.7 9.25 13.65 9.3 13.6 9.3 13.55 9.35 13.45 9.35 13.4 9.4 13.35 9.4 13.25 9.4 13.2 9.4 13.1 9.45 13.05 9.45 12.95 9.45 12.85 9.45 12.75 9.45 12.65 9.45 12.6 9.45 12.5 9.45 12.45 9.45 12.35 9.45 12.3 9.5 12.25 9.5 12.15 9.5 12.1 9.5 12.05 9.55 12.0 9.55 11.95 9.55 11.9 9.6 11.9 9.6 11.85 9.6 11.8 9.65 11.75 9.65 11.75 9.7 11.7 9.7 11.7 9.75 11.65 9.75 11.65 9.8 11.6 9.8 11.6 9.85 11.6 9.85 11.55 9.9 11.55 9.9 11.55 9.95 11.55 9.95 11.55 10.0 11.55 10.0 11.55 10.0 11.55 10.05 11.55 10.05 11.55 10.05 11.6 10.1 11.6 10.1 11.6 10.1 11.6 10.15 11.6 10.15 11.65 10.2 11.65 10.2 11.65 10.25 11.7 10.25 11.7 10.3 11.75 10.3 11.75 10.35 11.8 10.4 11.8 10.4 11.85 10.4 11.9 10.45 11.9 10.45 11.95 10.5 12.0 10.5 12.05 10.5 12.05 10.5 12.1 10.55 12.15 10.55 12.2 10.55 12.25 10.55 12.3 10.55 12.35 10.55 12.4 10.55 12.45 10.55 12.5 10.55 12.55 10.55 12.55 10.55 12.6 10.6 12.65 10.6 12.7 10.6 12.7 10.65 12.75 10.65 12.8 10.7 12.8 10.7 12.85 10.75 12.9 10.75 12.9 10.8 12.95 10.85 12.95 10.85 12.95 10.9 13.0 10.95 13.0 11.0 13.0 11.05 13.05 11.1 13.05 11.15 13.05 11.2 13.1 11.25 13.1 11.35 13.1 11.4 13.1 11.5 13.15 11.55 13.15 11.65 13.15 11.7 13.15 11.8 13.15 11.9 13.2 12.6 13.2 13.6 13.2 13.95 13.2 14.65 13.2 15.45 13.2 15.8 13.15 17.1 13.15 17.65 13.15 17.8 13.1 18.1 13.1 18.3 13.1 18.35 13.05 18.4 13.05 18.8 13.0 19.05 12.95 19.05 12.95 19.05 12.9 19.1 12.85 19.1 12.85 19.1 12.8 19.1 12.45 19.2 12.4 19.2 12.4 19.2 12.35 19.25 12.3 19.25 12.3 19.25 12.25 19.3 12.2 19.3 12.2 19.3 12.15 19.35 12.15 19.35 12.1 19.35 12.1 19.4 12.05 19.4 12.05 19.45 12.0 19.45 12.0 19.5 11.95 19.55 11.95 19.55 11.9 19.6 11.9 19.65 11.85 19.65 11.85 19.7 11.8 19.7 11.8 19.75 11.8 19.75 11.8 19.8 11.8 19.8 11.8 19.85 11.8 19.85 11.8 19.9 11.8 19.95 11.8 20.0 11.85 20.05 11.9 20.05 11.95 20.1 12.05 20.15 12.1 20.15 12.2 20.2 12.35 20.2 12.45 20.25 12.6 20.25 12.75 20.25 12.95 20.3 13.15 20.3 13.3 20.3 13.55 20.3 15.1 20.3 15.9 20.2 15.95 20.2 16.05 20.15 16.1 20.15 16.15 20.15 16.2 20.1 16.25 20.1 16.3 20.05 16.35 20.05 16.35 20.0 16.4 20.0 16.4 19.95 16.45 19.95 16.45 19.9 16.45 19.9 16.5 19.85 16.5 19.8 16.5 19.75 16.5 19.7 16.45 19.7 16.45 19.65 16.45 19.6 16.4 19.6 16.35 19.55 16.35 19.5 16.3 19.5 16.25 19.45 16.2 19.4 16.15 19.4 16.1 19.35 16.0 19.35 15.95 19.3 15.9 19.3 L15.2 19.05 15.2 14.25 Q15.15 13.8 15.15 11.5 15.2 10.5 15.15 9.9 15.15 9.3 15.05 9.15 15.05 9.1 15.0 9.05 15.0 9.0 14.95 8.95 14.95 8.95 14.9 8.9 14.9 8.85 14.85 8.85 14.8 8.8 14.8 8.8 14.75 8.8 14.7 8.8 14.65 8.75 14.6 8.75 14.55 8.75 14.5 8.75 L14.5 8.75 M19.75 8.85 Q19.6 8.85 19.5 8.85 19.4 8.85 19.25 8.9 19.15 8.9 19.0 8.9 18.9 8.95 18.8 9.0 18.7 9.0 18.55 9.05 18.45 9.1 18.35 9.15 18.25 9.2 18.15 9.25 18.0 9.3 17.9 9.4 17.75 9.5 17.6 9.6 17.45 9.7 17.35 9.85 17.2 9.95 17.1 10.05 17.05 10.15 16.95 10.3 16.85 10.4 16.8 10.5 16.75 10.6 16.7 10.75 16.65 10.85 16.65 10.95 16.65 11.1 16.65 11.2 16.65 11.25 16.65 11.25 16.65 11.3 16.65 11.3 16.65 11.35 16.65 11.4 16.65 11.4 16.65 11.45 16.65 11.45 16.65 11.5 16.65 11.55 16.65 11.55 16.7 11.6 16.7 11.65 16.7 11.65 16.7 11.7 16.75 11.8 16.8 11.9 16.85 12.0 16.9 12.05 16.95 12.15 17.0 12.2 17.1 12.3 17.15 12.35 17.25 12.4 17.35 12.45 17.4 12.45 17.5 12.5 17.6 12.55 17.7 12.55 17.8 12.55 17.9 12.55 17.95 12.55 17.95 12.55 18.0 12.55 18.05 12.55 18.05 12.55 18.1 12.55 18.15 12.5 18.2 12.5 18.2 12.5 18.25 12.5 18.3 12.45 18.35 12.45 18.35 12.45 18.4 12.4 18.45 12.4 18.5 12.4 18.55 12.35 18.6 12.35 18.6 12.3 18.65 12.25 18.7 12.2 18.7 12.2 18.75 12.15 18.75 12.1 18.75 12.05 18.8 11.95 18.8 11.9 18.8 11.85 18.8 11.8 18.85 11.7 18.85 11.65 18.85 11.6 18.85 11.5 18.85 11.45 18.85 11.35 18.8 11.3 18.8 11.25 18.8 11.2 18.8 11.1 18.75 11.05 18.75 11.0 18.75 10.95 18.7 10.9 18.7 10.85 18.65 10.85 18.65 10.8 18.6 10.75 18.6 10.75 18.55 10.7 18.55 10.7 18.55 10.65 18.55 10.6 18.5 10.55 18.5 10.55 18.5 10.55 18.5 10.5 18.5 10.5 18.55 10.45 18.55 10.45 18.55 10.4 18.6 10.4 18.6 10.35 18.65 10.35 18.65 10.3 18.7 10.25 18.75 10.25 18.75 10.2 18.8 10.15 18.85 10.15 18.9 10.1 18.95 10.05 19.0 10.05 19.05 10.0 19.1 9.95 19.15 9.95 19.15 9.9 19.2 9.9 19.25 9.85 19.3 9.85 19.35 9.85 19.4 9.8 19.45 9.8 19.5 9.8 19.55 9.8 19.6 9.8 19.65 9.8 19.7 9.8 19.75 9.8 19.8 9.8 19.85 9.85 19.9 9.85 19.95 9.85 20.0 9.9 20.05 9.95 20.1 9.95 20.15 10.0 20.2 10.05 20.25 10.1 20.35 10.15 20.4 10.2 20.45 10.25 20.5 10.35 20.55 10.4 20.65 10.5 20.7 10.55 20.75 10.65 20.8 10.75 20.85 10.85 20.9 10.95 20.9 11.05 20.95 11.15 21.0 11.25 21.0 11.4 21.0 11.5 21.05 11.65 21.05 11.8 21.05 11.95 21.05 12.1 21.05 12.15 21.05 12.2 21.05 12.25 21.05 12.3 21.05 12.35 21.0 12.4 21.0 12.45 21.0 12.5 21.0 12.55 20.95 12.6 20.95 12.65 20.9 12.7 20.9 12.75 20.9 12.8 20.85 12.85 20.85 12.95 20.45 13.5 19.05 15.0 18.75 15.3 18.5 15.6 18.2 15.95 18.0 16.2 17.75 16.5 17.55 16.8 17.35 17.1 17.2 17.35 17.05 17.6 16.95 17.9 16.85 18.15 16.75 18.4 16.7 18.65 16.65 18.85 16.6 19.1 16.6 19.3 16.6 19.45 16.6 19.55 16.6 19.65 16.65 19.75 16.65 19.85 16.65 19.95 16.7 20.05 16.7 20.1 16.75 20.15 16.75 20.2 16.8 20.25 16.85 20.3 16.85 20.35 16.9 20.35 16.95 20.35 17.0 20.35 17.05 20.35 17.05 20.35 17.1 20.35 17.15 20.35 17.15 20.35 17.2 20.3 17.25 20.3 17.3 20.3 17.3 20.3 17.35 20.25 17.4 20.25 17.45 20.2 17.5 20.2 17.55 20.15 17.6 20.15 17.65 20.1 17.7 20.05 17.75 20.05 17.8 20.0 17.85 20.0 17.9 19.95 17.95 19.95 17.95 19.9 18.0 19.9 18.05 19.9 18.1 19.85 18.15 19.85 18.2 19.85 18.25 19.85 18.3 19.85 18.3 19.85 18.35 19.85 18.6 19.85 19.8 20.05 19.95 20.1 20.05 20.1 20.2 20.15 20.3 20.2 20.45 20.2 20.55 20.25 20.65 20.25 20.75 20.25 20.85 20.3 20.95 20.3 21.05 20.3 21.1 20.3 21.2 20.35 21.3 20.35 21.35 20.35 21.4 20.35 21.45 20.35 21.55 20.35 21.6 20.35 21.65 20.35 21.7 20.35 21.75 20.3 21.8 20.3 21.85 20.3 21.9 20.3 21.95 20.3 22.0 20.3 22.05 20.25 22.05 20.25 22.1 20.25 22.15 20.25 22.15 20.25 22.3 20.2 22.4 20.1 22.55 20.0 22.65 19.95 22.75 19.85 22.85 19.75 22.9 19.65 23.0 19.5 23.05 19.4 23.1 19.25 23.15 19.15 23.2 19.0 23.25 18.85 23.25 18.65 23.25 18.5 23.25 18.35 23.25 18.15 23.25 18.0 23.25 17.85 23.2 17.7 23.2 17.6 23.2 17.45 23.15 17.35 23.1 17.25 23.1 17.2 23.05 17.1 23.0 17.05 22.95 17.0 22.9 16.95 22.85 16.95 22.75 16.9 22.7 16.9 22.65 16.9 22.65 16.9 22.6 16.9 22.55 16.95 22.55 16.95 22.5 16.95 22.5 17.0 22.45 17.0 22.45 17.05 22.4 17.05 22.35 17.1 22.35 17.15 22.3 17.2 22.3 17.2 22.3 17.25 22.25 17.3 22.25 17.35 22.2 17.4 22.2 17.45 22.15 17.5 22.15 17.55 22.1 17.55 22.1 17.6 22.05 17.65 22.05 17.65 22.0 17.7 21.95 17.7 21.95 17.75 21.9 17.75 21.85 17.75 21.85 17.8 21.8 17.8 21.75 17.8 21.7 17.8 21.65 17.85 21.6 17.85 21.55 17.85 21.5 17.85 21.45 17.85 21.35 17.85 21.3 17.9 21.25 17.9 21.15 17.9 21.05 17.9 21.0 17.9 20.9 17.9 20.8 17.9 20.7 17.9 19.95 17.9 18.5 18.1 18.5 18.1 18.45 18.1 18.45 18.15 18.4 18.15 18.35 18.15 18.35 18.2 18.3 18.2 18.25 18.25 18.25 18.25 18.2 18.3 18.2 18.25 18.2 18.2 18.25 18.15 18.25 18.1 18.25 18.05 18.25 18.05 18.3 18.0 18.3 17.95 18.3 17.9 18.3 17.9 18.3 17.85 18.35 17.85 18.35 17.8 18.35 17.8 18.35 17.75 18.4 17.75 18.75 17.25 19.7 16.25 L20.85 15.1 Q21.1 14.85 21.3 14.65 21.5 14.45 21.7 14.25 21.9 14.05 22.05 13.9 22.2 13.7 22.35 13.55 22.5 13.35 22.6 13.2 22.75 13.05 22.8 12.95 22.9 12.8 23.0 12.7 23.05 12.55 23.1 12.45 23.1 12.4 23.15 12.4 23.15 12.35 23.15 12.3 23.2 12.25 23.2 12.2 23.2 12.15 23.2 12.1 23.25 12.05 23.25 12.0 23.25 11.95 23.25 11.9 23.25 11.85 23.25 11.8 23.25 11.7 23.25 11.65 23.25 11.6 23.25 11.55 23.25 11.45 23.25 11.4 23.2 11.35 23.2 11.25 23.2 11.2 23.15 11.15 23.15 11.05 23.15 11.0 23.1 10.9 23.05 10.85 23.05 10.75 23.0 10.65 22.95 10.6 22.9 10.5 22.85 10.35 22.75 10.2 22.65 10.1 22.55 9.95 22.45 9.85 22.35 9.75 22.2 9.6 22.1 9.5 21.95 9.4 21.8 9.35 21.65 9.25 21.45 9.2 21.3 9.1 21.1 9.05 20.95 9.0 20.7 8.95 20.65 8.95 20.6 8.95 20.5 8.9 20.45 8.9 20.4 8.9 20.35 8.9 20.3 8.9 20.25 8.85 20.15 8.85 20.1 8.85 20.05 8.85 20.0 8.85 19.95 8.85 19.9 8.85 19.8 8.85 19.75 8.85 L19.75 8.85" fill="#ffffff" fill-rule="evenodd" stroke="none"/>
    </g>
  </defs>
</svg>
