<?xml version="1.0" encoding="UTF-8" standalone="no"?>
<svg xmlns:ffdec="https://www.free-decompiler.com/flash" xmlns:xlink="http://www.w3.org/1999/xlink" ffdec:objectType="frame" height="26.55px" width="70.8px" xmlns="http://www.w3.org/2000/svg">
  <g transform="matrix(1.0, 0.0, 0.0, 1.0, 0.2, 0.4)">
    <use ffdec:characterId="27" height="26.0" transform="matrix(1.0, 0.0, 0.0, 1.0, 0.0, 0.0)" width="41.75" xlink:href="#shape0"/>
    <use ffdec:characterId="106" height="26.0" transform="matrix(1.0, 0.0, 0.0, 1.0, 0.0, 0.0)" width="35.75" xlink:href="#shape1"/>
    <use ffdec:characterId="106" height="26.0" transform="matrix(1.0, 0.0, 0.0, 1.0, 0.0, 0.0)" width="35.75" xlink:href="#shape1"/>
  </g>
  <defs>
    <g id="shape0" transform="matrix(1.0, 0.0, 0.0, 1.0, 0.0, 0.0)">
      <path d="M41.4 2.45 Q41.4 2.5 41.4 2.5 41.4 2.55 41.4 2.55 41.4 2.55 41.4 2.6 L41.4 4.05 40.75 3.8 41.4 4.5 41.4 5.25 40.85 5.25 41.4 6.45 41.4 7.1 41.2 8.15 41.4 7.8 41.4 9.55 40.75 9.85 41.1 10.05 41.65 9.8 41.65 8.05 41.45 8.4 41.65 7.35 41.65 6.7 41.1 5.5 41.65 5.5 41.65 4.75 41.0 4.05 41.65 4.3 41.65 2.85 Q41.65 2.85 41.65 2.8 41.65 2.7 41.65 2.65 41.65 2.55 41.6 2.55 41.6 2.5 41.55 2.5 41.5 2.5 41.4 2.45 L41.4 2.45 M41.4 10.4 L41.4 22.5 41.4 23.15 Q41.4 23.4 41.4 23.4 41.4 23.5 41.3 23.5 41.3 23.5 41.05 23.5 L40.4 23.5 39.75 23.5 38.9 23.5 38.9 23.75 40.0 23.75 40.65 23.75 41.3 23.75 Q41.5 23.75 41.55 23.75 41.6 23.75 41.65 23.65 41.65 23.65 41.65 23.4 L41.65 22.75 41.65 10.55 41.4 10.4 M38.6 22.75 L37.85 23.5 25.15 23.5 24.3 23.05 24.25 23.5 23.2 23.5 22.9 23.5 21.8 23.4 21.1 23.5 19.9 23.5 19.75 23.3 19.25 23.55 7.45 23.5 6.65 23.25 6.2 23.5 5.3 23.5 5.05 23.35 4.25 23.5 3.65 23.5 3.0 23.5 2.35 23.5 1.75 23.45 1.05 23.5 0.65 23.5 Q0.65 23.65 0.6 23.75 0.65 23.75 0.65 23.75 0.65 23.75 0.65 23.75 L1.3 23.75 2.0 23.7 2.6 23.75 3.2 23.75 3.85 23.75 4.5 23.75 5.25 23.6 5.55 23.75 6.45 23.75 18.15 23.75 18.95 23.75 19.5 23.8 20.0 23.55 20.1 23.75 21.35 23.75 22.05 23.65 23.15 23.75 23.45 23.75 24.45 23.75 24.55 23.3 25.35 23.75 38.1 23.75 38.65 23.2 38.6 22.75" fill="#ffffff" fill-rule="evenodd" stroke="none"/>
      <path d="M0.4 2.2 L3.75 2.2 4.0 2.65 4.3 2.4 5.55 2.2 13.95 2.2 14.1 2.7 14.55 2.2 15.85 2.2 28.95 2.2 29.45 2.65 29.65 2.2 30.3 2.2 41.05 2.2 Q41.25 2.2 41.3 2.25 41.4 2.25 41.4 2.35 41.4 2.4 41.4 2.55 41.4 2.55 41.4 2.6 L41.4 4.05 40.75 3.8 41.4 4.5 41.4 5.25 40.85 5.25 41.4 6.45 41.4 7.1 41.2 8.15 41.4 7.8 41.4 9.55 40.75 9.85 41.4 10.3 41.4 22.5 41.4 23.15 Q41.4 23.4 41.4 23.4 41.4 23.5 41.3 23.5 41.3 23.5 41.05 23.5 L40.4 23.5 39.75 23.5 38.65 23.5 38.6 22.75 37.85 23.5 25.15 23.5 24.3 23.05 24.25 23.5 23.2 23.5 22.9 23.5 21.8 23.4 21.1 23.5 19.9 23.5 19.75 23.3 19.25 23.55 7.45 23.5 6.65 23.25 6.2 23.5 5.3 23.5 5.05 23.35 4.25 23.5 3.65 23.5 3.0 23.5 2.35 23.5 1.75 23.45 1.05 23.5 0.4 23.5 Q0.4 23.5 0.4 23.5 0.4 23.5 0.4 23.5 0.2 23.5 0.15 23.5 0.1 23.5 0.05 23.45 0.05 23.4 0.05 23.2 0.05 23.2 0.05 23.2 0.05 23.2 0.05 23.2 0.05 23.15 0.05 23.15 L0.05 17.7 0.85 17.5 0.05 16.75 0.05 16.1 0.05 15.45 0.05 14.45 0.45 14.15 0.05 13.9 0.05 10.65 0.45 10.45 0.05 9.9 0.05 9.0 0.05 8.35 0.05 7.7 0.55 7.2 0.05 6.85 0.05 2.6 Q0.05 2.55 0.05 2.55 0.05 2.4 0.05 2.35 0.1 2.25 0.15 2.25 0.2 2.2 0.35 2.2 0.35 2.2 0.4 2.2 0.4 2.2 0.4 2.2 0.4 2.2 0.4 2.2 L0.4 2.2" fill="#000000" fill-rule="evenodd" stroke="none"/>
    </g>
    <g id="shape1" transform="matrix(1.0, 0.0, 0.0, 1.0, 0.0, 0.0)">
      <path d="M13.3 9.45 Q13.3 9.35 13.3 9.25 13.35 9.15 13.35 9.1 13.4 9.0 13.45 8.95 13.5 8.9 13.55 8.85 13.55 8.8 13.6 8.75 13.65 8.75 13.7 8.75 13.7 8.7 13.75 8.7 13.75 8.7 13.75 8.7 L13.75 8.0 11.2 8.0 11.2 8.65 Q11.3 8.7 11.35 8.8 11.45 8.85 11.5 8.95 11.55 9.0 11.55 9.1 11.6 9.2 11.65 9.25 11.65 9.35 11.65 9.4 11.7 9.45 11.7 9.5 11.7 9.55 11.7 9.6 11.7 9.6 11.7 9.65 L11.65 15.7 6.65 9.05 6.6 9.1 6.2 9.3 6.3 9.45 5.8 9.2 6.05 9.05 6.1 9.1 6.35 8.95 6.35 8.85 6.4 8.85 6.55 8.05 6.55 8.0 6.1 8.0 3.95 8.0 3.95 8.65 Q4.05 8.7 4.1 8.75 4.2 8.8 4.25 8.9 4.3 8.95 4.35 9.05 4.35 9.1 4.4 9.2 4.4 9.25 4.45 9.35 4.45 9.4 4.45 9.45 4.45 9.5 4.45 9.55 4.45 9.55 4.45 9.55 L4.45 16.35 Q4.45 16.6 4.45 16.8 4.4 17.0 4.35 17.15 4.35 17.25 4.3 17.35 4.25 17.45 4.2 17.5 4.15 17.6 4.1 17.6 4.1 17.65 4.05 17.65 4.0 17.65 4.0 17.7 4.0 17.7 3.95 17.7 L3.95 18.35 6.65 18.35 6.65 17.7 Q6.55 17.65 6.5 17.6 6.4 17.5 6.35 17.4 6.3 17.3 6.25 17.2 6.2 17.1 6.2 16.95 6.2 16.85 6.15 16.75 6.15 16.65 6.15 16.55 6.15 16.5 6.15 16.4 6.15 16.4 6.15 16.35 L6.15 13.2 6.05 13.3 5.95 13.35 5.9 13.3 5.75 13.3 5.75 13.2 5.8 13.25 5.8 13.2 5.85 13.15 6.0 13.15 6.05 13.05 6.15 13.0 6.15 11.2 11.65 18.35 13.75 18.35 13.75 17.7 Q13.65 17.7 13.6 17.65 13.55 17.6 13.5 17.5 13.45 17.4 13.4 17.3 13.35 17.15 13.35 17.05 13.3 16.9 13.3 16.8 13.3 16.7 13.3 16.6 13.3 16.5 13.25 16.45 13.25 16.4 13.25 16.35 L13.25 11.35 13.3 9.45" fill="#f1edf8" fill-rule="evenodd" stroke="none"/>
      <path d="M18.7 13.95 Q18.7 13.95 18.85 13.95 19.0 13.95 19.2 13.9 19.45 13.85 19.75 13.8 20.05 13.7 20.35 13.6 20.65 13.45 20.95 13.25 21.25 13.05 21.45 12.75 21.7 12.45 21.85 12.05 22.0 11.65 22.0 11.15 22.0 10.6 21.85 10.1 21.7 9.7 21.45 9.35 21.25 9.0 20.95 8.8 20.65 8.55 20.3 8.4 20.05 8.25 19.7 8.2 19.45 8.1 19.15 8.05 18.95 8.05 18.8 8.05 18.7 8.0 18.65 8.0 L14.85 8.0 14.85 8.1 14.85 8.7 15.2 9.05 15.2 9.35 15.3 9.4 15.3 10.35 15.35 10.35 15.35 10.55 15.65 10.65 16.0 10.7 15.95 10.8 15.45 10.8 15.35 10.95 15.3 11.15 15.3 16.3 Q15.3 16.3 15.3 16.35 15.3 16.4 15.3 16.45 15.3 16.55 15.3 16.65 15.3 16.75 15.25 16.85 15.25 16.95 15.2 17.05 15.15 17.2 15.1 17.3 15.05 17.4 15.0 17.5 14.95 17.6 14.85 17.65 L14.85 18.35 17.35 18.35 17.35 17.6 Q17.35 17.6 17.35 17.6 17.3 17.6 17.25 17.55 17.25 17.55 17.2 17.5 17.15 17.45 17.1 17.4 17.05 17.35 17.05 17.25 17.0 17.15 16.95 17.05 16.95 16.95 16.9 16.8 16.9 16.65 16.9 16.45 L16.9 12.55 16.8 12.45 16.85 12.4 16.9 12.35 16.9 11.2 16.85 11.05 16.8 10.9 16.8 10.55 16.85 10.4 16.9 10.5 16.9 10.4 16.9 9.45 18.85 9.45 Q18.85 9.45 18.9 9.45 19.0 9.45 19.1 9.5 19.25 9.5 19.35 9.55 19.5 9.6 19.65 9.65 19.8 9.75 19.95 9.85 20.1 10.0 20.2 10.15 20.35 10.35 20.4 10.55 20.5 10.8 20.5 11.1 20.5 11.1 20.5 11.15 20.5 11.25 20.5 11.35 20.45 11.5 20.4 11.6 20.35 11.75 20.25 11.9 20.15 12.05 19.95 12.15 19.75 12.3 19.5 12.4 19.2 12.5 18.85 12.55 18.45 12.6 17.95 12.55 L17.9 12.55 17.9 13.5 18.7 13.95" fill="#f1edf8" fill-rule="evenodd" stroke="none"/>
      <path d="M28.45 9.95 L28.45 8.0 24.6 8.0 22.65 8.0 21.95 8.0 21.95 8.05 21.95 9.1 21.95 9.1 Q22.0 9.1 22.05 9.15 22.05 9.2 22.1 9.2 22.15 9.25 22.15 9.3 22.2 9.3 22.25 9.35 22.25 9.4 22.25 9.45 22.25 9.5 22.3 9.5 22.3 9.55 22.35 9.6 22.35 9.65 22.35 9.7 22.4 9.75 22.4 9.8 22.4 9.8 22.4 9.85 22.4 9.9 22.4 9.95 22.45 10.0 22.45 10.05 22.45 10.1 22.45 10.15 L22.45 10.6 22.45 16.0 Q22.45 16.25 22.4 16.4 22.4 16.6 22.35 16.75 22.3 16.85 22.25 16.95 22.2 17.05 22.2 17.1 22.15 17.15 22.1 17.2 22.05 17.25 22.0 17.25 22.0 17.25 21.95 17.25 21.95 17.25 21.95 17.25 L21.95 18.35 24.2 18.35 24.2 18.35 26.75 18.35 Q26.75 18.35 28.45 18.35 L28.45 16.55 27.9 16.55 Q27.85 16.6 27.85 16.55 27.85 16.6 27.8 16.6 27.7 16.65 27.65 16.7 27.55 16.7 27.4 16.75 27.25 16.8 27.1 16.85 26.9 16.85 26.7 16.9 26.45 16.9 26.15 16.95 25.85 16.95 25.5 16.95 25.3 16.95 25.1 16.9 24.95 16.85 24.8 16.8 24.65 16.7 24.55 16.6 24.45 16.5 24.4 16.4 24.3 16.25 24.25 16.15 24.2 16.05 24.2 15.9 24.15 15.8 24.15 15.7 24.1 15.6 24.1 15.55 L24.1 13.65 25.45 13.65 Q25.45 13.65 25.5 13.65 25.6 13.65 25.7 13.65 25.85 13.65 26.0 13.65 26.15 13.6 26.3 13.6 26.5 13.55 26.65 13.55 26.8 13.5 26.95 13.45 27.1 13.4 27.2 13.35 27.3 13.25 27.35 13.2 L27.5 12.8 27.65 12.35 Q27.65 12.35 27.55 12.4 27.35 12.4 27.1 12.45 26.8 12.45 26.3 12.45 25.75 12.5 25.0 12.45 25.0 12.45 25.0 12.45 25.0 12.45 25.0 12.5 24.95 12.5 24.95 12.55 24.9 12.55 24.85 12.6 24.8 12.6 24.75 12.65 24.65 12.65 24.55 12.7 24.45 12.7 24.35 12.75 24.25 12.75 24.1 12.75 L24.1 11.2 24.0 11.3 23.95 11.35 23.9 11.35 23.85 11.3 23.75 11.3 23.75 11.2 23.8 11.25 23.8 11.2 23.85 11.15 24.0 11.15 24.0 11.05 24.15 11.0 24.15 9.9 Q24.15 9.8 24.2 9.7 24.25 9.6 24.35 9.55 24.45 9.5 24.55 9.45 24.65 9.45 24.75 9.4 24.8 9.4 24.9 9.4 25.0 9.35 25.1 9.35 25.15 9.35 25.2 9.35 25.25 9.35 25.25 9.35 L26.05 9.35 Q26.05 9.35 26.1 9.35 26.3 9.35 26.3 9.35 26.45 9.4 26.6 9.4 26.75 9.4 26.9 9.45 27.1 9.45 27.25 9.5 27.4 9.55 27.55 9.6 27.7 9.65 27.85 9.75 27.95 9.85 28.0 9.95 L28.45 9.95" fill="#f1edf8" fill-rule="evenodd" stroke="none"/>
      <path d="M30.9 9.95 Q30.9 9.95 31.3 10.1 31.75 10.2 31.8 10.2 31.85 10.2 31.1 8.9 30.75 8.25 30.4 7.65 30.4 7.65 30.35 7.65 30.05 8.05 29.5 9.0 28.8 10.1 28.85 10.15 28.85 10.15 29.35 10.05 29.6 9.95 29.85 9.9 29.85 9.9 29.85 9.9 29.85 9.85 29.85 9.85 29.9 9.8 29.9 9.75 29.9 9.7 29.95 9.65 29.95 9.6 30.0 9.55 30.05 9.45 30.1 9.4 30.15 9.3 30.25 9.25 30.3 9.2 30.35 9.1 30.6 9.55 30.9 9.95 L30.9 9.95" fill="#f1edf8" fill-rule="evenodd" stroke="none"/>
    </g>
  </defs>
</svg>
