<?xml version="1.0" encoding="UTF-8" standalone="no"?>
<svg xmlns:ffdec="https://www.free-decompiler.com/flash" xmlns:xlink="http://www.w3.org/1999/xlink" ffdec:objectType="frame" height="26.55px" width="70.8px" xmlns="http://www.w3.org/2000/svg">
  <g transform="matrix(1.0, 0.0, 0.0, 1.0, 0.2, 0.4)">
    <use ffdec:characterId="27" height="26.0" transform="matrix(1.0, 0.0, 0.0, 1.0, 0.0, 0.0)" width="41.75" xlink:href="#shape0"/>
    <use ffdec:characterId="107" height="26.0" transform="matrix(1.0, 0.0, 0.0, 1.0, 0.0, 0.0)" width="41.75" xlink:href="#shape1"/>
    <use ffdec:characterId="107" height="26.0" transform="matrix(1.0, 0.0, 0.0, 1.0, 0.0, 0.0)" width="41.75" xlink:href="#shape1"/>
  </g>
  <defs>
    <g id="shape0" transform="matrix(1.0, 0.0, 0.0, 1.0, 0.0, 0.0)">
      <path d="M41.4 2.45 Q41.4 2.5 41.4 2.5 41.4 2.55 41.4 2.55 41.4 2.55 41.4 2.6 L41.4 4.05 40.75 3.8 41.4 4.5 41.4 5.25 40.85 5.25 41.4 6.45 41.4 7.1 41.2 8.15 41.4 7.8 41.4 9.55 40.75 9.85 41.1 10.05 41.65 9.8 41.65 8.05 41.45 8.4 41.65 7.35 41.65 6.7 41.1 5.5 41.65 5.5 41.65 4.75 41.0 4.05 41.65 4.3 41.65 2.85 Q41.65 2.85 41.65 2.8 41.65 2.7 41.65 2.65 41.65 2.55 41.6 2.55 41.6 2.5 41.55 2.5 41.5 2.5 41.4 2.45 L41.4 2.45 M41.4 10.4 L41.4 22.5 41.4 23.15 Q41.4 23.4 41.4 23.4 41.4 23.5 41.3 23.5 41.3 23.5 41.05 23.5 L40.4 23.5 39.75 23.5 38.9 23.5 38.9 23.75 40.0 23.75 40.65 23.75 41.3 23.75 Q41.5 23.75 41.55 23.75 41.6 23.75 41.65 23.65 41.65 23.65 41.65 23.4 L41.65 22.75 41.65 10.55 41.4 10.4 M38.6 22.75 L37.85 23.5 25.15 23.5 24.3 23.05 24.25 23.5 23.2 23.5 22.9 23.5 21.8 23.4 21.1 23.5 19.9 23.5 19.75 23.3 19.25 23.55 7.45 23.5 6.65 23.25 6.2 23.5 5.3 23.5 5.05 23.35 4.25 23.5 3.65 23.5 3.0 23.5 2.35 23.5 1.75 23.45 1.05 23.5 0.65 23.5 Q0.65 23.65 0.6 23.75 0.65 23.75 0.65 23.75 0.65 23.75 0.65 23.75 L1.3 23.75 2.0 23.7 2.6 23.75 3.2 23.75 3.85 23.75 4.5 23.75 5.25 23.6 5.55 23.75 6.45 23.75 18.15 23.75 18.95 23.75 19.5 23.8 20.0 23.55 20.1 23.75 21.35 23.75 22.05 23.65 23.15 23.75 23.45 23.75 24.45 23.75 24.55 23.3 25.35 23.75 38.1 23.75 38.65 23.2 38.6 22.75" fill="#ffffff" fill-rule="evenodd" stroke="none"/>
      <path d="M0.4 2.2 L3.75 2.2 4.0 2.65 4.3 2.4 5.55 2.2 13.95 2.2 14.1 2.7 14.55 2.2 15.85 2.2 28.95 2.2 29.45 2.65 29.65 2.2 30.3 2.2 41.05 2.2 Q41.25 2.2 41.3 2.25 41.4 2.25 41.4 2.35 41.4 2.4 41.4 2.55 41.4 2.55 41.4 2.6 L41.4 4.05 40.75 3.8 41.4 4.5 41.4 5.25 40.85 5.25 41.4 6.45 41.4 7.1 41.2 8.15 41.4 7.8 41.4 9.55 40.75 9.85 41.4 10.3 41.4 22.5 41.4 23.15 Q41.4 23.4 41.4 23.4 41.4 23.5 41.3 23.5 41.3 23.5 41.05 23.5 L40.4 23.5 39.75 23.5 38.65 23.5 38.6 22.75 37.85 23.5 25.15 23.5 24.3 23.05 24.25 23.5 23.2 23.5 22.9 23.5 21.8 23.4 21.1 23.5 19.9 23.5 19.75 23.3 19.25 23.55 7.45 23.5 6.65 23.25 6.2 23.5 5.3 23.5 5.05 23.35 4.25 23.5 3.65 23.5 3.0 23.5 2.35 23.5 1.75 23.45 1.05 23.5 0.4 23.5 Q0.4 23.5 0.4 23.5 0.4 23.5 0.4 23.5 0.2 23.5 0.15 23.5 0.1 23.5 0.05 23.45 0.05 23.4 0.05 23.2 0.05 23.2 0.05 23.2 0.05 23.2 0.05 23.2 0.05 23.15 0.05 23.15 L0.05 17.7 0.85 17.5 0.05 16.75 0.05 16.1 0.05 15.45 0.05 14.45 0.45 14.15 0.05 13.9 0.05 10.65 0.45 10.45 0.05 9.9 0.05 9.0 0.05 8.35 0.05 7.7 0.55 7.2 0.05 6.85 0.05 2.6 Q0.05 2.55 0.05 2.55 0.05 2.4 0.05 2.35 0.1 2.25 0.15 2.25 0.2 2.2 0.35 2.2 0.35 2.2 0.4 2.2 0.4 2.2 0.4 2.2 0.4 2.2 0.4 2.2 L0.4 2.2" fill="#000000" fill-rule="evenodd" stroke="none"/>
    </g>
    <g id="shape1" transform="matrix(1.0, 0.0, 0.0, 1.0, 0.0, 0.0)">
      <path d="M38.85 5.05 Q38.6 5.05 36.8 6.0 36.6 6.15 36.4 6.25 36.2 6.35 36.05 6.5 35.9 6.6 35.75 6.7 35.6 6.8 35.5 6.9 35.4 6.95 35.3 7.05 35.25 7.15 35.2 7.2 35.1 7.3 35.1 7.35 35.05 7.4 35.05 7.5 35.05 7.55 35.05 7.6 35.05 7.65 35.1 7.65 35.1 7.7 35.1 7.75 35.15 7.75 35.15 7.8 35.2 7.8 35.2 7.85 35.2 7.85 35.25 7.85 35.25 7.85 35.3 7.9 35.3 7.9 35.35 7.9 35.35 7.9 35.4 7.9 35.4 7.9 35.45 7.9 35.5 7.9 35.5 7.9 35.55 7.9 35.6 7.9 35.65 7.9 35.65 7.9 L36.25 7.9 36.25 19.45 35.55 19.8 Q35.45 19.85 35.4 19.9 35.3 19.95 35.25 20.0 35.15 20.0 35.1 20.05 35.05 20.1 35.0 20.15 35.0 20.15 34.95 20.2 34.9 20.25 34.9 20.25 34.9 20.3 34.85 20.35 34.85 20.35 34.85 20.4 34.85 20.45 34.9 20.5 34.9 20.55 34.95 20.55 35.05 20.6 35.15 20.65 35.2 20.65 35.35 20.7 35.45 20.7 35.6 20.7 35.75 20.75 35.95 20.75 36.15 20.75 36.35 20.75 36.55 20.75 36.8 20.75 38.65 20.8 39.15 20.7 39.2 20.7 39.25 20.7 39.3 20.65 39.35 20.65 39.4 20.6 39.4 20.6 39.45 20.55 39.45 20.55 39.5 20.5 39.5 20.5 39.55 20.45 39.55 20.4 39.55 20.35 39.55 20.3 39.6 20.25 39.6 20.2 39.6 20.15 39.6 20.15 39.6 20.1 39.55 20.1 39.55 20.05 39.55 20.05 39.5 20.0 39.5 20.0 39.45 20.0 39.45 19.95 39.4 19.95 39.4 19.95 39.35 19.95 39.3 19.95 39.3 19.95 39.25 19.95 39.2 19.95 39.15 19.95 39.15 19.95 39.1 19.9 39.05 19.9 39.0 19.9 38.95 19.9 38.95 19.85 38.9 19.85 38.85 19.8 38.8 19.8 38.75 19.75 38.75 19.75 38.7 19.7 38.65 19.65 38.6 19.6 38.55 19.55 38.55 19.5 38.5 19.45 38.5 19.4 38.45 19.35 38.45 19.25 38.4 19.2 38.4 19.1 38.35 19.0 38.35 18.9 38.35 18.8 38.3 18.7 38.3 18.55 38.3 18.45 38.25 18.3 38.25 18.15 38.2 17.0 38.2 12.95 38.2 8.85 38.25 7.85 38.25 7.7 38.3 7.6 38.3 7.5 38.3 7.4 38.35 7.25 38.35 7.15 38.4 7.05 38.4 7.0 38.45 6.9 38.45 6.8 38.5 6.7 38.55 6.65 38.6 6.6 38.6 6.5 38.65 6.45 38.7 6.4 38.75 6.35 38.8 6.3 38.85 6.25 38.85 6.15 38.9 6.1 38.95 6.05 39.0 6.0 39.0 5.95 39.05 5.9 39.05 5.85 39.1 5.75 39.1 5.7 39.1 5.65 39.15 5.6 39.15 5.55 39.15 5.5 39.15 5.45 39.15 5.4 39.15 5.35 39.15 5.3 39.15 5.25 39.15 5.25 39.1 5.2 39.1 5.15 39.1 5.15 39.05 5.1 39.05 5.1 39.0 5.1 39.0 5.05 38.95 5.05 38.9 5.05 38.85 5.05 L38.85 5.05 M21.25 5.8 Q21.15 5.8 21.1 5.8 21.05 5.85 21.0 5.85 21.0 5.85 20.95 5.85 20.9 5.9 20.9 5.9 20.9 5.9 20.9 5.95 20.9 5.95 20.9 5.95 20.9 6.0 20.9 6.0 20.9 6.05 20.9 6.1 20.9 6.1 20.9 6.15 20.85 6.2 20.85 6.2 20.85 6.25 20.85 6.3 20.85 6.35 20.85 6.4 20.85 6.45 20.85 6.5 20.85 6.55 20.85 6.6 20.9 6.65 20.9 6.7 20.9 6.75 20.9 6.8 20.9 6.85 20.9 6.9 20.9 6.95 20.9 6.95 20.9 7.0 20.9 7.05 20.85 7.1 20.85 7.1 20.85 7.1 20.8 7.05 20.8 7.05 20.8 7.05 20.75 7.0 20.75 7.0 20.7 7.0 20.65 6.95 20.65 6.95 20.6 6.9 20.55 6.9 20.5 6.85 20.45 6.85 20.4 6.85 20.35 6.8 20.3 6.8 20.25 6.75 20.15 6.75 20.1 6.75 20.0 6.7 19.9 6.7 19.8 6.65 19.7 6.65 19.6 6.65 19.5 6.65 19.4 6.6 19.25 6.6 19.15 6.6 19.0 6.6 18.85 6.6 18.7 6.6 18.55 6.6 18.55 6.55 17.95 6.55 17.85 6.55 17.8 6.55 17.7 6.55 17.6 6.55 17.55 6.6 17.45 6.6 17.35 6.6 17.25 6.6 17.2 6.65 17.1 6.65 17.0 6.65 16.9 6.7 16.8 6.7 16.7 6.75 16.6 6.75 16.5 6.8 16.4 6.85 16.3 6.85 16.2 6.9 16.1 6.95 16.0 7.05 15.85 7.1 15.75 7.15 15.65 7.25 15.5 7.35 15.4 7.45 15.25 7.55 15.1 7.65 15.0 7.75 14.85 7.9 14.7 8.05 14.55 8.15 14.4 8.3 14.25 8.45 14.15 8.6 14.0 8.75 13.85 8.9 13.75 9.05 13.65 9.2 13.55 9.35 13.4 9.5 13.3 9.65 13.2 9.8 13.15 9.95 13.05 10.1 12.95 10.25 12.9 10.4 12.8 10.55 12.75 10.7 12.7 10.85 12.65 11.05 12.6 11.2 12.55 11.4 12.5 11.55 12.45 11.75 12.4 11.95 12.4 12.15 12.35 12.35 12.35 12.6 12.3 12.8 12.3 13.05 12.3 13.25 12.3 13.5 12.3 13.75 12.3 14.0 12.3 14.25 12.3 14.45 12.3 14.7 12.35 14.9 12.35 15.15 12.4 15.35 12.4 15.55 12.45 15.75 12.5 15.95 12.55 16.15 12.6 16.3 12.65 16.5 12.7 16.65 12.8 16.85 12.85 17.0 12.95 17.25 13.1 17.45 13.2 17.7 13.3 17.9 13.45 18.1 13.6 18.3 13.7 18.5 13.85 18.65 14.0 18.85 14.15 19.0 14.35 19.2 14.5 19.35 14.65 19.5 14.85 19.6 15.0 19.75 15.2 19.9 15.4 20.05 15.55 20.15 15.75 20.25 15.95 20.35 16.15 20.45 16.35 20.5 16.55 20.6 16.75 20.65 16.95 20.75 17.2 20.8 17.4 20.85 17.65 20.85 17.85 20.9 18.1 20.9 18.3 20.95 18.55 20.95 18.7 20.95 18.85 20.95 18.95 20.95 19.1 20.9 19.25 20.9 19.4 20.9 19.55 20.85 19.7 20.85 19.8 20.8 19.95 20.75 20.1 20.75 20.25 20.7 20.4 20.65 20.55 20.6 20.7 20.55 20.85 20.5 21.0 20.45 21.15 20.4 21.3 20.3 21.45 20.25 21.55 20.2 21.7 20.15 21.85 20.05 21.95 20.0 22.05 19.95 22.15 19.85 22.3 19.8 22.4 19.75 22.5 19.65 22.55 19.6 22.65 19.55 22.75 19.45 22.85 19.35 22.9 19.3 23.0 19.25 23.05 19.15 23.1 19.1 23.15 19.0 23.2 18.95 23.25 18.9 23.3 18.85 23.3 18.75 23.35 18.7 23.35 18.65 23.4 18.6 23.4 18.5 23.4 18.45 23.4 18.4 23.4 18.35 23.35 18.1 23.35 18.05 23.3 18.05 23.3 18.0 23.25 17.95 23.25 17.95 23.2 17.95 23.15 17.9 23.1 17.9 23.05 17.9 23.0 17.9 22.95 17.95 22.9 17.95 22.85 17.95 22.85 18.0 22.8 18.0 22.75 18.0 22.7 18.05 22.65 18.05 22.6 18.1 22.55 18.1 22.5 18.15 22.45 18.2 22.4 18.2 22.35 18.25 22.15 18.4 22.0 18.55 21.8 18.65 21.6 18.75 21.45 18.9 21.25 18.95 21.1 19.05 20.9 19.15 20.75 19.2 20.55 19.25 20.4 19.3 20.2 19.35 20.05 19.4 19.85 19.4 19.7 19.45 19.5 19.45 19.3 19.45 19.15 19.4 18.95 19.4 18.8 19.35 18.6 19.3 18.4 19.2 18.25 19.15 18.05 19.05 17.85 18.95 17.65 18.8 17.5 18.7 17.3 18.55 17.1 18.4 16.9 18.25 16.75 18.05 16.55 17.85 16.3 17.6 16.1 17.35 15.9 17.1 15.7 16.85 15.55 16.55 15.4 16.3 15.25 16.0 15.1 15.7 15.0 15.35 14.9 15.05 14.85 14.7 14.75 14.35 14.7 14.0 14.7 13.6 14.65 13.25 14.65 12.85 14.65 12.5 14.65 12.2 14.7 11.9 14.75 11.6 14.8 11.3 14.85 11.05 14.95 10.75 15.05 10.5 15.15 10.25 15.25 10.0 15.35 9.75 15.5 9.55 15.65 9.3 15.85 9.1 16.0 8.9 16.2 8.75 16.3 8.65 16.45 8.5 16.55 8.4 16.7 8.35 16.85 8.25 16.95 8.15 17.1 8.1 17.25 8.05 17.4 7.95 17.55 7.9 17.7 7.9 17.85 7.85 18.0 7.8 18.15 7.8 18.3 7.8 18.45 7.8 18.55 7.8 18.6 7.8 18.7 7.8 18.75 7.8 18.85 7.8 18.95 7.85 19.0 7.85 19.1 7.85 19.2 7.85 19.3 7.9 19.35 7.9 19.45 7.9 19.55 7.95 19.6 7.95 19.7 8.0 19.8 8.05 19.9 8.1 20.0 8.15 20.1 8.2 20.2 8.25 20.3 8.35 20.45 8.45 20.55 8.55 20.7 8.7 20.85 8.85 21.0 9.0 21.15 9.15 21.35 9.35 21.5 9.55 21.7 9.75 21.85 9.95 22.05 10.2 22.1 10.25 22.15 10.3 22.2 10.35 22.25 10.4 22.3 10.45 22.35 10.5 22.4 10.55 22.45 10.55 22.5 10.6 22.55 10.65 22.6 10.65 22.65 10.65 22.65 10.7 22.7 10.7 22.75 10.7 22.8 10.7 22.85 10.7 22.85 10.7 22.9 10.7 22.95 10.65 22.95 10.65 23.0 10.65 23.0 10.65 23.05 10.6 23.05 10.6 23.1 10.55 23.1 10.5 23.1 10.45 23.1 10.45 23.1 10.4 23.1 10.35 23.1 10.3 23.1 9.85 22.5 8.15 22.05 6.75 21.8 6.25 21.75 6.2 21.75 6.15 21.7 6.1 21.7 6.05 21.65 6.0 21.6 6.0 21.6 5.95 21.55 5.95 21.5 5.9 21.5 5.9 21.45 5.85 21.4 5.85 21.35 5.85 21.35 5.85 21.3 5.8 21.25 5.8 L21.25 5.8 M4.4 6.9 Q4.15 6.9 3.9 6.9 3.7 6.95 3.5 6.95 3.3 6.95 3.15 6.95 2.95 7.0 2.8 7.0 2.7 7.05 2.6 7.05 2.5 7.1 2.4 7.1 2.3 7.15 2.3 7.2 2.25 7.2 2.2 7.25 2.2 7.3 2.2 7.35 2.2 7.4 2.2 7.4 2.15 7.45 2.15 7.5 2.15 7.5 2.15 7.55 2.15 7.55 2.15 7.6 2.2 7.6 2.2 7.6 2.2 7.65 2.2 7.65 2.25 7.7 2.25 7.7 2.3 7.75 2.3 7.75 2.3 7.8 2.35 7.85 2.4 7.85 2.4 7.9 2.45 7.9 2.45 7.95 2.5 7.95 2.5 8.0 2.55 8.0 2.6 8.05 2.6 8.05 2.65 8.05 2.7 8.1 2.75 8.1 2.75 8.1 2.8 8.15 2.85 8.15 2.9 8.15 2.95 8.15 3.0 8.15 3.05 8.15 3.1 8.2 3.15 8.2 3.2 8.2 3.2 8.2 3.25 8.25 3.3 8.25 3.3 8.25 3.35 8.3 3.35 8.3 3.4 8.3 3.4 8.35 3.4 8.35 3.4 8.4 3.4 8.4 3.45 8.45 3.45 8.5 3.5 8.6 3.5 8.7 3.55 8.8 3.6 9.15 3.6 12.05 L3.6 15.3 Q3.6 17.65 3.55 18.4 L3.5 19.0 Q3.5 19.05 3.5 19.1 3.5 19.15 3.5 19.2 3.45 19.25 3.45 19.3 3.45 19.3 3.45 19.35 3.45 19.35 3.4 19.4 3.4 19.4 3.4 19.45 3.4 19.45 3.35 19.5 3.35 19.5 3.35 19.5 3.35 19.5 3.35 19.5 3.3 19.55 3.3 19.55 3.25 19.55 3.25 19.55 3.25 19.55 3.2 19.55 3.2 19.6 3.15 19.6 3.1 19.6 3.1 19.6 3.05 19.6 3.0 19.6 3.0 19.6 2.95 19.6 2.9 19.6 2.85 19.6 2.85 19.65 2.8 19.65 2.75 19.65 2.7 19.65 2.7 19.7 2.65 19.7 2.6 19.75 2.6 19.75 2.55 19.75 2.5 19.8 2.5 19.8 2.45 19.85 2.45 19.85 2.4 19.9 2.35 19.95 2.35 19.95 2.3 20.0 2.25 20.05 2.25 20.1 2.2 20.1 2.2 20.15 2.2 20.15 2.2 20.2 2.2 20.2 2.15 20.25 2.15 20.25 2.15 20.3 2.15 20.3 2.15 20.35 2.2 20.55 2.2 20.55 2.25 20.6 2.25 20.6 2.25 20.6 2.3 20.65 2.3 20.65 2.35 20.65 2.4 20.7 2.4 20.7 2.45 20.7 2.5 20.7 2.55 20.75 2.6 20.75 2.65 20.75 2.7 20.75 2.75 20.75 3.15 20.85 5.35 20.85 5.6 20.85 5.85 20.85 6.1 20.85 6.3 20.85 6.5 20.8 6.7 20.8 6.85 20.8 7.0 20.8 7.15 20.75 7.25 20.75 7.35 20.75 7.45 20.7 7.55 20.7 7.6 20.65 7.65 20.65 7.65 20.6 7.7 20.55 7.7 20.55 7.7 20.5 7.7 20.45 7.7 20.45 7.7 20.4 7.7 20.35 7.7 20.3 7.7 20.3 7.7 20.25 7.65 20.2 7.65 20.15 7.6 20.1 7.6 20.05 7.55 20.05 7.5 20.0 7.45 19.95 7.4 19.9 7.4 19.9 7.35 19.85 7.3 19.8 7.25 19.8 7.2 19.75 7.15 19.75 7.1 19.7 7.05 19.7 7.0 19.7 6.95 19.65 6.9 19.65 6.85 19.65 6.8 19.65 6.75 19.65 6.7 19.65 6.65 19.65 6.6 19.65 6.55 19.6 6.5 19.6 6.45 19.55 6.4 19.5 6.35 19.45 6.35 19.4 6.3 19.35 6.25 19.3 6.2 19.25 6.15 19.15 6.15 19.1 6.1 19.0 6.05 18.95 6.0 18.85 6.0 18.75 6.0 18.7 5.95 18.6 5.95 18.5 5.9 18.4 5.9 18.35 5.9 18.25 5.85 18.15 5.85 18.1 5.85 18.0 5.85 17.9 5.8 17.85 5.8 17.75 5.8 17.65 5.8 17.6 L5.85 15.35 5.85 8.05 6.5 8.15 Q6.75 8.2 7.3 8.35 7.6 8.4 7.6 8.4 7.65 8.45 7.65 8.45 7.7 8.5 7.7 8.5 7.75 8.55 7.8 8.6 7.85 8.6 7.9 8.65 7.9 8.7 7.95 8.7 8.0 8.75 8.1 8.8 8.15 8.8 8.2 8.85 8.25 8.9 8.3 8.95 8.45 9.05 8.6 9.15 8.75 9.3 8.85 9.4 9.0 9.55 9.1 9.7 9.2 9.85 9.25 10.0 9.35 10.15 9.4 10.3 9.45 10.5 9.5 10.7 9.55 10.85 9.55 11.05 9.6 11.25 9.6 11.5 9.6 11.7 9.6 11.9 9.55 12.1 9.5 12.3 9.45 12.45 9.4 12.65 9.35 12.8 9.3 12.95 9.2 13.1 9.1 13.25 9.0 13.35 8.9 13.5 8.75 13.6 8.65 13.7 8.5 13.8 8.35 13.9 8.15 14.0 7.95 14.1 7.8 14.2 7.65 14.3 7.5 14.4 7.35 14.5 7.25 14.55 7.15 14.65 7.05 14.75 6.95 14.8 6.9 14.85 6.85 14.9 6.8 15.0 6.75 15.05 6.75 15.1 6.75 15.15 6.7 15.15 6.75 15.2 6.75 15.25 6.75 15.3 6.75 15.4 6.8 15.5 6.85 15.55 6.9 15.7 6.95 15.8 7.05 15.95 7.1 16.1 7.2 16.25 7.3 16.4 7.45 16.6 7.55 16.8 7.7 17.0 7.85 17.2 8.0 17.45 8.15 17.7 8.3 17.9 8.45 18.1 8.6 18.3 8.7 18.5 8.85 18.7 8.95 18.85 9.05 19.05 9.15 19.2 9.2 19.35 9.3 19.45 9.35 19.6 9.4 19.7 9.45 19.8 9.45 19.9 9.5 20.0 L9.65 20.75 11.65 20.75 Q12.95 20.7 13.35 20.65 13.4 20.65 13.45 20.6 13.5 20.6 13.55 20.6 13.55 20.55 13.6 20.55 13.65 20.55 13.65 20.5 13.7 20.5 13.7 20.45 13.7 20.45 13.75 20.4 13.75 20.35 13.75 20.35 13.75 20.3 13.75 20.25 13.75 20.2 13.75 20.2 13.75 20.15 13.7 20.1 13.7 20.05 13.65 20.0 13.6 20.0 13.55 19.95 13.5 19.9 13.45 19.85 13.35 19.8 13.3 19.75 13.2 19.75 13.1 19.7 13.05 19.65 12.9 19.6 12.8 19.55 12.7 19.5 12.6 19.4 12.5 19.35 12.35 19.25 12.25 19.15 12.1 19.05 11.95 18.95 11.85 18.8 11.7 18.7 11.55 18.55 11.4 18.4 11.2 18.25 11.05 18.1 10.9 17.9 10.7 17.75 L8.4 15.3 Q8.8 15.2 9.2 15.05 9.55 14.9 9.9 14.7 10.2 14.55 10.45 14.3 10.75 14.1 10.95 13.85 11.15 13.6 11.3 13.3 11.45 13.0 11.6 12.65 11.7 12.35 11.75 11.95 11.8 11.6 11.8 11.15 11.8 10.8 11.75 10.5 11.7 10.2 11.6 9.9 11.55 9.6 11.4 9.35 11.3 9.05 11.1 8.85 10.95 8.6 10.7 8.35 10.5 8.15 10.25 7.95 10.0 7.75 9.7 7.6 9.4 7.4 9.05 7.25 8.9 7.2 8.75 7.2 8.6 7.15 8.45 7.1 8.25 7.1 8.05 7.05 7.85 7.05 7.6 7.0 7.35 7.0 7.1 7.0 6.8 6.95 6.5 6.95 6.2 6.95 5.9 6.95 5.55 6.95 5.2 6.95 L5.0 6.95 Q4.8 6.9 4.4 6.9 L4.4 6.9 M25.55 9.7 Q25.5 9.7 25.5 9.7 25.45 9.75 25.4 9.75 25.35 9.75 25.3 9.8 25.3 9.85 25.25 9.9 25.2 9.9 25.15 9.95 25.1 10.0 25.05 10.1 24.95 10.15 24.9 10.2 24.85 10.3 24.8 10.4 24.75 10.5 24.7 10.55 24.6 10.65 24.55 10.7 24.45 10.8 24.4 10.85 24.3 10.95 24.2 11.05 24.15 11.1 24.05 11.2 23.95 11.25 23.85 11.35 23.7 11.45 23.6 11.5 23.5 11.6 23.4 11.7 23.3 11.75 23.2 11.85 23.1 11.9 23.0 11.95 22.9 12.0 22.85 12.05 22.75 12.15 22.7 12.2 22.65 12.25 22.6 12.3 22.55 12.35 22.55 12.4 22.5 12.45 22.5 12.5 22.5 12.55 22.5 12.6 22.5 12.65 22.5 12.7 22.5 12.7 22.55 12.75 22.55 12.8 22.6 12.8 22.65 12.85 22.65 12.9 22.7 12.95 22.8 12.95 22.85 13.0 22.9 13.0 22.95 13.05 23.05 13.05 23.15 13.1 23.25 13.1 L24.0 13.35 24.15 19.45 23.4 19.8 Q23.3 19.85 23.25 19.9 23.15 19.95 23.1 20.0 23.05 20.0 23.0 20.05 22.95 20.1 22.9 20.15 22.85 20.15 22.8 20.2 22.8 20.25 22.75 20.25 22.75 20.3 22.75 20.35 22.75 20.35 22.75 20.4 22.75 20.45 22.8 20.5 22.8 20.55 22.9 20.55 22.95 20.6 23.1 20.65 23.2 20.65 23.35 20.7 23.5 20.7 23.7 20.7 23.9 20.75 24.15 20.75 24.35 20.75 24.65 20.75 24.9 20.75 25.2 20.75 25.5 20.75 25.8 20.75 26.05 20.75 26.3 20.75 26.55 20.75 26.75 20.7 26.95 20.7 27.1 20.65 27.25 20.65 27.35 20.6 27.5 20.6 27.55 20.55 27.65 20.5 27.7 20.45 27.7 20.4 27.7 20.35 27.7 20.35 27.7 20.3 27.7 20.3 27.65 20.25 27.65 20.25 27.6 20.2 27.6 20.2 27.55 20.15 27.5 20.1 27.45 20.1 27.4 20.05 27.35 20.05 27.3 20.0 27.2 19.95 27.15 19.9 27.05 19.9 26.95 19.85 26.9 19.8 26.8 19.8 26.75 19.75 26.65 19.7 26.6 19.65 26.55 19.65 26.5 19.6 26.45 19.55 26.4 19.55 26.35 19.5 26.35 19.45 26.3 19.45 26.25 19.4 26.25 19.35 26.2 19.35 26.05 19.1 26.05 16.15 L26.05 13.2 27.1 13.2 Q27.2 13.2 27.3 13.2 27.35 13.2 27.45 13.2 27.55 13.2 27.6 13.2 27.65 13.2 27.7 13.2 27.75 13.2 27.8 13.2 27.85 13.15 27.9 13.15 27.95 13.15 28.0 13.15 28.0 13.15 28.05 13.1 28.05 13.1 28.1 13.1 28.1 13.05 28.1 13.05 28.15 13.0 28.15 13.0 28.15 12.95 28.15 12.95 28.15 12.9 28.2 12.85 28.2 12.85 28.2 12.8 28.2 12.75 28.2 12.7 28.2 12.65 28.2 12.6 28.2 12.55 28.2 12.5 28.2 12.45 28.2 12.4 28.2 12.35 28.15 12.35 28.15 12.3 28.15 12.25 28.15 12.2 28.1 12.2 28.1 12.15 28.1 12.15 28.05 12.15 28.05 12.1 28.0 12.1 28.0 12.1 27.95 12.1 27.9 12.05 27.85 12.05 27.8 12.05 27.75 12.05 27.65 12.05 27.55 12.0 27.4 12.0 27.3 12.0 27.15 12.0 L26.05 12.0 26.0 10.85 Q26.0 10.7 25.95 10.6 25.95 10.45 25.95 10.35 25.9 10.25 25.9 10.15 25.85 10.05 25.85 10.0 25.8 9.95 25.75 9.85 25.75 9.8 25.7 9.8 25.65 9.75 25.6 9.75 25.6 9.7 25.55 9.7 L25.55 9.7 M31.2 11.6 Q31.15 11.6 31.1 11.6 31.1 11.6 31.05 11.65 31.05 11.65 31.0 11.7 31.0 11.7 30.9 11.75 30.85 11.75 30.75 11.8 30.65 11.85 30.5 11.85 30.35 11.9 30.15 11.9 29.95 11.95 29.75 11.95 29.6 12.0 29.45 12.0 29.35 12.05 29.2 12.05 29.1 12.1 29.0 12.15 28.9 12.15 28.85 12.2 28.75 12.25 28.7 12.3 28.65 12.3 28.6 12.35 28.6 12.4 28.55 12.45 28.55 12.45 28.55 12.5 28.55 12.55 28.55 12.55 28.55 12.6 28.6 12.65 28.6 12.65 28.6 12.7 28.65 12.7 28.65 12.75 28.7 12.8 28.7 12.8 28.75 12.85 28.8 12.85 28.85 12.9 28.9 12.9 28.95 12.95 29.0 13.0 29.05 13.05 29.1 13.05 29.15 13.1 29.2 13.1 29.25 13.15 29.3 13.15 29.3 13.2 29.35 13.2 29.4 13.25 29.4 13.25 29.45 13.3 29.45 13.3 29.5 13.35 29.5 13.35 29.5 13.4 29.55 13.4 29.55 13.45 29.6 13.45 29.6 13.5 29.6 13.55 29.65 13.6 29.65 13.65 29.65 13.7 29.7 13.75 29.7 13.8 29.7 13.9 29.75 14.3 29.8 16.4 L29.85 19.45 29.15 19.8 Q29.05 19.85 29.0 19.9 28.9 19.95 28.85 20.0 28.75 20.0 28.7 20.05 28.65 20.1 28.6 20.15 28.6 20.15 28.55 20.2 28.5 20.25 28.5 20.25 28.5 20.3 28.45 20.35 28.45 20.35 28.45 20.4 28.45 20.45 28.5 20.5 28.55 20.55 28.6 20.55 28.7 20.6 28.8 20.65 28.9 20.65 29.05 20.7 29.2 20.7 29.4 20.7 29.6 20.75 29.8 20.75 30.05 20.75 30.3 20.75 30.6 20.75 30.9 20.75 31.2 20.75 31.45 20.75 31.7 20.75 31.95 20.75 32.2 20.75 32.35 20.75 32.55 20.7 32.7 20.7 32.85 20.7 33.0 20.65 33.1 20.65 33.2 20.6 33.25 20.6 33.3 20.55 33.35 20.5 33.4 20.5 33.4 20.45 33.4 20.45 33.4 20.4 33.4 20.4 33.35 20.35 33.35 20.35 33.35 20.3 33.3 20.25 33.3 20.25 33.25 20.2 33.25 20.2 33.2 20.15 33.2 20.15 33.15 20.1 33.1 20.1 33.1 20.05 33.05 20.05 33.0 20.05 32.95 20.0 32.9 20.0 32.9 19.95 32.8 19.95 32.8 19.9 32.7 19.9 32.7 19.9 32.6 19.85 32.55 19.85 32.5 19.8 32.45 19.8 32.4 19.75 32.35 19.75 32.3 19.7 32.25 19.65 32.2 19.65 32.15 19.6 32.1 19.55 32.1 19.5 32.05 19.5 32.05 19.45 32.0 19.4 32.0 19.35 31.95 19.3 31.9 19.25 31.9 19.2 31.9 19.1 31.85 19.05 31.85 18.95 31.85 18.85 31.8 18.75 31.8 18.65 31.8 18.55 31.8 18.4 31.8 18.25 31.8 18.1 31.75 17.95 31.75 17.8 31.75 17.65 31.75 17.45 31.75 17.25 31.75 17.05 31.8 16.9 31.8 16.7 31.8 16.55 31.85 16.35 31.85 16.2 31.9 16.05 31.95 15.85 32.0 15.7 32.0 15.55 32.05 15.4 32.1 15.25 32.2 15.1 32.25 14.95 32.3 14.8 32.35 14.65 32.45 14.55 32.5 14.45 32.6 14.3 32.7 14.2 32.75 14.15 32.85 14.05 32.95 14.0 33.05 13.9 33.15 13.85 33.25 13.8 33.35 13.75 33.45 13.75 33.55 13.7 33.65 13.7 33.8 13.7 33.85 13.7 33.95 13.7 34.0 13.7 34.05 13.75 34.1 13.75 34.15 13.75 34.2 13.8 34.25 13.8 34.3 13.85 34.35 13.9 34.4 13.9 34.4 13.95 34.45 14.0 34.5 14.05 34.5 14.1 34.55 14.15 34.55 14.2 34.6 14.25 34.6 14.3 34.6 14.35 34.65 14.4 34.7 14.45 34.7 14.5 34.75 14.55 34.8 14.55 34.85 14.6 34.9 14.6 34.95 14.6 35.0 14.65 35.05 14.65 35.15 14.65 35.2 14.65 35.25 14.65 35.3 14.65 35.35 14.65 35.35 14.6 35.4 14.6 35.45 14.6 35.45 14.55 35.5 14.5 35.5 14.5 35.5 14.45 35.5 14.4 35.55 14.4 35.55 14.35 35.55 14.3 35.55 14.25 35.55 14.2 35.6 14.1 35.6 14.05 35.6 13.95 35.6 13.9 35.6 13.8 35.6 13.7 35.6 13.6 35.6 13.5 35.6 13.4 35.6 13.25 35.6 13.05 35.6 12.9 35.55 12.75 35.55 12.65 35.5 12.5 35.45 12.4 35.45 12.25 35.35 12.2 35.3 12.1 35.25 12.0 35.15 11.95 35.1 11.9 35.0 11.85 34.9 11.85 34.8 11.8 34.65 11.8 34.5 11.8 34.4 11.85 34.25 11.85 34.15 11.9 34.0 11.95 33.9 12.0 33.75 12.05 33.65 12.1 33.5 12.2 33.35 12.25 33.25 12.35 33.1 12.45 33.0 12.55 32.85 12.65 32.7 12.75 32.6 12.9 L31.75 13.7 31.8 12.7 31.8 12.35 Q31.8 12.25 31.8 12.2 31.8 12.1 31.8 12.05 31.8 12.0 31.75 11.95 31.75 11.85 31.75 11.85 31.75 11.8 31.7 11.75 31.7 11.7 31.65 11.7 31.65 11.65 31.6 11.65 31.6 11.65 31.55 11.65 31.5 11.65 31.45 11.6 31.4 11.6 31.35 11.6 31.35 11.6 31.3 11.6 31.25 11.6 31.2 11.6 L31.2 11.6" fill="#ffffff" fill-rule="evenodd" stroke="none"/>
    </g>
  </defs>
</svg>
