<?xml version="1.0" encoding="UTF-8" standalone="no"?>
<svg xmlns:ffdec="https://www.free-decompiler.com/flash" xmlns:xlink="http://www.w3.org/1999/xlink" ffdec:objectType="frame" height="26.55px" width="70.8px" xmlns="http://www.w3.org/2000/svg">
  <g transform="matrix(1.0, 0.0, 0.0, 1.0, 0.2, 0.4)">
    <use ffdec:characterId="3" height="26.0" transform="matrix(1.0, 0.0, 0.0, 1.0, 0.0, 0.0)" width="26.0" xlink:href="#shape0"/>
    <use ffdec:characterId="30" height="26.0" transform="matrix(1.0, 0.0, 0.0, 1.0, 0.0, 0.0)" width="26.0" xlink:href="#shape1"/>
    <use ffdec:characterId="30" height="26.0" transform="matrix(1.0, 0.0, 0.0, 1.0, 0.0, 0.0)" width="26.0" xlink:href="#shape1"/>
  </g>
  <defs>
    <g id="shape0" transform="matrix(1.0, 0.0, 0.0, 1.0, 0.0, 0.0)">
      <path d="M23.5 2.45 Q23.5 2.5 23.5 2.5 23.5 2.55 23.5 2.55 23.5 2.55 23.5 2.55 23.5 2.6 23.5 2.6 L23.5 4.05 22.85 3.8 23.5 4.5 23.5 5.25 22.95 5.25 23.5 6.45 23.5 7.1 23.3 8.15 23.5 7.8 23.5 9.55 22.85 9.85 23.15 10.05 23.75 9.8 23.75 8.05 23.5 8.4 23.75 7.35 23.75 6.7 23.2 5.5 23.75 5.5 23.75 4.75 23.1 4.05 23.75 4.3 23.75 2.85 Q23.75 2.8 23.75 2.8 23.75 2.7 23.75 2.65 23.75 2.55 23.7 2.55 23.7 2.5 23.65 2.5 23.6 2.5 23.5 2.45 L23.5 2.45 M23.5 10.4 L23.5 22.5 23.5 23.15 Q23.5 23.4 23.5 23.4 23.45 23.5 23.4 23.5 23.35 23.5 23.15 23.5 L22.5 23.5 21.85 23.5 20.95 23.5 21.0 23.75 22.1 23.75 22.75 23.75 23.4 23.75 Q23.65 23.75 23.7 23.75 23.75 23.7 23.75 23.4 L23.75 22.75 23.75 10.55 23.5 10.4 M20.7 22.75 L19.95 23.5 16.1 23.5 15.25 23.05 15.2 23.5 14.15 23.5 13.9 23.5 12.75 23.4 12.05 23.5 10.85 23.5 10.7 23.3 10.2 23.55 9.7 23.5 8.85 23.25 8.4 23.5 7.5 23.5 7.25 23.35 6.45 23.5 5.85 23.5 5.2 23.5 4.55 23.5 3.95 23.45 3.25 23.5 2.85 23.5 Q2.85 23.55 2.85 23.6 2.85 23.65 2.85 23.7 2.8 23.7 2.8 23.75 2.85 23.75 2.85 23.75 2.85 23.75 2.85 23.75 L3.5 23.75 4.2 23.7 4.8 23.75 5.45 23.75 6.05 23.75 6.7 23.75 7.45 23.6 7.75 23.75 8.65 23.75 9.1 23.5 9.9 23.75 10.45 23.8 10.95 23.55 11.1 23.75 12.3 23.75 13.0 23.65 14.1 23.75 14.4 23.75 15.4 23.75 15.5 23.3 16.35 23.75 20.15 23.75 20.75 23.2 20.7 22.75" fill="#ffffff" fill-rule="evenodd" stroke="none"/>
      <path d="M2.6 2.2 L5.95 2.2 6.2 2.65 6.5 2.4 7.75 2.2 13.5 2.2 13.7 2.7 14.15 2.2 15.45 2.2 16.65 2.2 17.15 2.65 17.35 2.2 18.0 2.2 23.15 2.2 Q23.35 2.2 23.4 2.25 23.45 2.25 23.5 2.35 23.5 2.4 23.5 2.55 23.5 2.55 23.5 2.6 L23.5 4.05 22.85 3.8 23.5 4.5 23.5 5.25 22.95 5.25 23.5 6.45 23.5 7.1 23.3 8.15 23.5 7.8 23.5 9.55 22.85 9.85 23.5 10.3 23.5 22.5 23.5 23.15 Q23.5 23.4 23.5 23.4 23.45 23.5 23.4 23.5 23.35 23.5 23.15 23.5 L22.5 23.5 21.85 23.5 20.75 23.5 20.7 22.75 19.95 23.5 16.1 23.5 15.25 23.05 15.2 23.5 14.15 23.5 13.9 23.5 12.75 23.4 12.05 23.5 10.85 23.5 10.7 23.3 10.2 23.55 9.7 23.5 8.85 23.25 8.4 23.5 7.5 23.5 7.25 23.35 6.45 23.5 5.85 23.5 5.2 23.5 4.55 23.5 3.95 23.45 3.25 23.5 2.6 23.5 Q2.6 23.5 2.6 23.5 2.6 23.5 2.6 23.5 2.4 23.5 2.35 23.5 2.3 23.5 2.25 23.45 2.25 23.4 2.25 23.2 2.25 23.2 2.25 23.2 2.25 23.2 2.25 23.2 2.25 23.15 2.25 23.15 L2.25 17.7 3.05 17.5 2.25 16.75 2.25 16.1 2.25 15.45 2.25 14.45 2.65 14.15 2.25 13.9 2.25 10.65 2.65 10.45 2.25 9.9 2.25 9.0 2.25 8.35 2.25 7.7 2.75 7.2 2.25 6.85 2.25 2.6 Q2.25 2.55 2.25 2.55 2.25 2.4 2.25 2.35 2.3 2.25 2.35 2.25 2.4 2.2 2.55 2.2 2.55 2.2 2.6 2.2 2.6 2.2 2.6 2.2 2.6 2.2 2.6 2.2 L2.6 2.2" fill="#000000" fill-rule="evenodd" stroke="none"/>
    </g>
    <g id="shape1" transform="matrix(1.0, 0.0, 0.0, 1.0, 0.0, 0.0)">
      <path d="M15.8 6.6 Q16.05 6.9 16.25 7.2 16.45 7.5 16.6 7.8 16.8 8.1 16.95 8.45 17.05 8.75 17.2 9.1 17.3 9.45 17.4 9.8 17.5 10.15 17.55 10.55 17.6 10.9 17.6 11.3 17.65 11.7 17.65 12.1 17.65 12.3 17.65 12.45 17.65 12.65 17.65 12.8 17.6 12.95 17.6 13.1 17.55 13.25 17.55 13.4 17.5 13.55 17.5 13.7 17.45 13.85 17.4 13.95 17.35 14.1 17.3 14.2 17.3 14.35 17.2 14.45 17.1 14.65 17.0 14.85 16.85 15.05 16.75 15.2 16.6 15.4 16.5 15.55 16.35 15.7 16.2 15.85 16.0 15.95 15.85 16.1 15.7 16.2 15.5 16.3 15.3 16.4 15.15 16.45 14.95 16.55 14.75 16.6 14.75 16.3 15.05 14.8 15.3 13.0 15.3 12.4 15.3 12.3 15.3 12.15 15.3 12.05 15.25 11.95 15.25 11.85 15.25 11.75 15.25 11.65 15.2 11.6 15.2 11.5 15.15 11.4 15.15 11.35 15.1 11.25 15.1 11.2 15.05 11.15 15.0 11.05 14.95 11.0 14.9 10.9 14.8 10.8 14.75 10.75 14.7 10.65 14.6 10.6 14.55 10.5 14.45 10.45 14.35 10.4 14.3 10.35 14.2 10.35 14.1 10.3 14.05 10.25 13.95 10.25 13.85 10.25 13.75 10.2 13.65 10.2 13.6 10.2 13.6 10.2 13.55 10.2 13.55 10.25 13.5 10.25 13.45 10.25 13.4 10.3 13.4 10.3 13.35 10.35 13.3 10.35 13.25 10.4 13.2 10.4 13.15 10.45 13.1 10.5 13.05 10.55 13.0 10.6 12.95 10.65 12.9 10.7 12.85 10.7 12.85 10.75 12.8 10.8 12.75 10.8 12.75 10.85 12.7 10.9 12.7 10.9 12.65 10.95 12.65 10.95 12.65 11.0 12.65 11.0 12.6 11.05 12.6 11.05 12.6 11.1 12.6 11.15 12.6 11.2 12.65 11.25 12.65 11.25 12.65 11.3 12.7 11.35 12.8 11.45 13.1 12.5 13.15 12.65 13.2 12.8 13.2 12.9 13.25 13.05 13.3 13.15 13.3 13.25 13.35 13.4 13.35 13.5 13.4 13.6 13.4 13.7 13.4 13.8 13.45 13.9 13.45 14.0 13.45 14.05 13.45 14.15 13.45 14.2 13.45 14.9 13.3 16.7 13.1 16.7 12.9 16.65 12.7 16.6 12.5 16.55 12.3 16.5 12.1 16.45 11.9 16.35 11.75 16.25 11.55 16.15 11.4 16.05 11.2 15.95 11.05 15.85 10.85 15.7 10.7 15.55 10.55 15.4 10.4 15.25 10.25 15.1 10.1 14.9 9.95 14.7 9.8 14.55 9.7 14.35 9.55 14.1 9.45 13.9 9.3 13.7 9.2 13.45 9.1 13.2 9.0 13.0 8.9 12.7 8.8 12.45 8.7 12.2 8.65 11.9 8.55 11.65 8.5 11.5 8.5 11.35 8.45 11.2 8.4 11.05 8.4 10.9 8.35 10.75 8.35 10.6 8.3 10.45 8.3 10.3 8.25 10.2 8.25 10.05 8.25 9.9 8.25 9.8 8.25 9.7 8.2 9.55 8.2 9.45 8.2 9.35 8.2 9.2 8.2 9.1 8.25 9.0 8.25 8.9 8.25 8.8 8.25 8.65 8.3 8.55 8.3 8.45 8.3 8.35 8.35 8.25 8.35 8.2 8.4 8.1 8.4 8.0 8.45 7.9 8.45 7.8 8.55 7.55 8.6 7.35 8.7 7.15 8.85 6.95 8.95 6.75 9.05 6.55 9.2 6.35 9.35 6.2 9.45 6.05 9.65 5.9 9.8 5.75 9.95 5.6 10.15 5.45 10.35 5.35 10.55 5.25 10.75 5.15 10.85 5.1 10.95 5.05 11.05 5.0 11.15 5.0 11.25 4.95 11.35 4.9 11.45 4.9 11.55 4.85 11.65 4.85 11.8 4.8 11.9 4.8 12.0 4.8 12.1 4.8 12.2 4.75 12.3 4.75 12.4 4.75 12.65 4.75 12.85 4.8 13.1 4.8 13.35 4.9 13.55 4.95 13.75 5.05 14.0 5.1 14.2 5.25 14.4 5.35 14.6 5.5 14.85 5.65 15.05 5.8 15.25 6.0 15.4 6.2 15.6 6.4 15.8 6.6 L15.8 6.6 M12.95 20.8 L12.95 20.9 Q12.95 21.1 13.0 21.3 13.05 21.5 13.15 21.65 13.25 21.8 13.4 21.95 13.55 22.05 13.75 22.15 13.9 22.3 14.15 22.35 14.4 22.45 14.7 22.5 14.95 22.55 15.3 22.55 15.65 22.6 16.0 22.6 L16.35 22.6 Q16.55 22.6 16.75 22.55 16.9 22.55 17.1 22.5 17.25 22.45 17.4 22.4 17.6 22.35 17.7 22.25 17.85 22.2 18.0 22.1 18.15 22.0 18.25 21.85 18.4 21.75 18.5 21.6 18.65 21.45 18.75 21.3 18.8 21.2 18.85 21.1 18.95 21.0 19.0 20.9 19.05 20.75 19.05 20.7 19.1 20.6 19.15 20.5 19.2 20.4 19.2 20.35 19.25 20.25 19.25 20.15 19.25 20.1 19.3 20.0 19.3 19.95 19.3 19.9 19.3 19.85 19.3 19.75 19.3 19.7 19.25 19.65 19.25 19.6 19.25 19.55 19.25 19.5 19.2 19.45 19.2 19.4 19.2 19.35 19.15 19.3 19.15 19.25 19.1 19.2 19.1 19.15 19.05 19.15 19.0 19.1 18.95 19.0 18.85 18.95 18.8 18.9 18.7 18.85 18.6 18.75 18.5 18.7 18.4 18.65 18.3 18.65 18.2 18.6 18.1 18.55 17.95 18.55 17.85 18.5 17.7 18.5 17.55 18.5 17.45 18.45 17.3 18.45 17.15 18.45 17.0 18.45 16.9 18.5 16.8 18.5 16.65 18.55 16.6 18.6 16.5 18.65 16.4 18.7 16.35 18.75 16.3 18.85 16.25 18.9 16.2 19.0 16.15 19.1 16.15 19.2 16.1 19.3 16.1 19.4 16.1 19.45 16.1 19.5 16.1 19.5 16.1 19.55 16.1 19.6 16.15 19.65 16.15 19.65 16.15 19.7 16.15 19.75 16.15 19.8 16.2 19.85 16.2 19.9 16.2 19.95 16.2 20.0 16.2 20.05 16.25 20.1 16.25 20.15 16.3 20.2 16.3 20.25 16.3 20.25 16.3 20.3 16.35 20.35 16.35 20.4 16.35 20.45 16.35 20.45 16.35 20.5 16.35 20.55 16.35 20.55 16.4 20.6 16.4 20.65 16.4 20.65 16.4 20.7 16.4 20.75 16.4 20.8 16.4 20.85 16.35 20.9 16.35 20.9 16.35 20.95 16.3 21.0 16.3 21.0 16.25 21.05 16.2 21.05 16.2 21.1 16.15 21.1 16.1 21.15 16.05 21.15 16.0 21.15 15.95 21.15 15.9 21.15 15.85 21.15 15.8 21.15 15.75 21.2 15.7 21.2 15.65 21.2 15.65 21.2 15.6 21.2 15.55 21.2 15.5 21.2 15.35 21.2 15.25 21.2 15.1 21.15 15.0 21.15 14.9 21.1 14.8 21.05 14.7 21.0 14.6 20.95 14.55 20.9 14.5 20.8 14.45 20.75 14.4 20.65 14.35 20.55 14.35 20.45 14.3 20.35 14.3 20.2 14.3 20.0 14.3 19.8 14.3 19.6 14.3 19.45 14.35 19.25 14.35 19.1 14.35 18.95 14.35 18.8 14.4 18.7 14.4 18.55 14.45 18.45 14.45 18.35 14.45 18.25 14.5 18.15 14.55 18.05 14.55 18.0 14.75 17.95 14.95 17.9 15.15 17.9 15.35 17.8 15.55 17.75 15.7 17.7 15.9 17.6 16.1 17.55 16.25 17.45 16.45 17.35 16.6 17.25 16.8 17.15 16.95 17.05 17.1 16.9 17.3 16.8 17.45 16.65 17.7 16.45 17.95 16.2 18.15 16.0 18.35 15.75 18.6 15.55 18.75 15.25 18.95 15.0 19.15 14.75 19.3 14.5 19.45 14.2 19.6 13.95 19.7 13.65 19.85 13.35 19.95 13.05 20.05 12.7 20.15 12.4 20.15 12.3 20.2 12.2 20.2 12.15 20.25 12.05 20.25 11.95 20.25 11.85 20.25 11.8 20.3 11.7 20.3 11.6 20.3 11.55 20.3 11.45 20.3 11.35 20.3 11.3 20.3 11.2 20.3 11.1 20.3 11.05 20.3 10.95 20.3 10.9 20.3 10.8 20.3 10.7 20.3 10.6 20.3 10.5 20.3 10.4 20.3 10.3 20.3 10.2 20.25 10.05 20.25 9.95 20.25 9.8 20.2 9.7 20.2 9.55 20.15 9.45 20.15 9.3 20.1 9.0 20.0 8.7 19.95 8.4 19.8 8.1 19.7 7.8 19.6 7.55 19.45 7.3 19.3 7.0 19.15 6.75 18.95 6.5 18.8 6.25 18.6 6.0 18.4 5.8 18.15 5.55 17.95 5.35 17.7 5.15 17.45 4.95 17.2 4.75 16.95 4.55 16.65 4.4 16.4 4.2 16.1 4.1 15.8 3.95 15.5 3.85 15.2 3.75 14.85 3.65 14.55 3.55 14.2 3.5 13.85 3.45 13.5 3.45 13.15 3.4 12.8 3.4 12.65 3.4 12.5 3.4 12.4 3.4 12.25 3.45 12.1 3.45 11.95 3.45 11.8 3.5 11.65 3.5 11.5 3.55 11.35 3.6 11.2 3.6 11.05 3.65 10.85 3.7 10.7 3.75 10.55 3.8 10.4 3.9 10.25 3.95 10.1 4.0 9.95 4.05 9.8 4.15 9.65 4.2 9.5 4.3 9.35 4.4 9.2 4.45 9.05 4.55 8.9 4.65 8.75 4.75 8.6 4.9 8.45 5.0 8.3 5.1 8.15 5.25 8.05 5.35 7.75 5.65 7.5 5.9 7.25 6.2 7.0 6.55 6.8 6.85 6.6 7.15 6.4 7.5 6.25 7.85 6.1 8.15 6.0 8.55 5.9 8.9 5.85 9.25 5.75 9.65 5.7 10.05 5.7 10.45 5.7 10.85 5.7 11.2 5.7 11.5 5.75 11.8 5.8 12.15 5.85 12.45 5.95 12.75 6.0 13.05 6.1 13.35 6.2 13.65 6.35 13.9 6.5 14.2 6.65 14.5 6.8 14.75 7.0 15.0 7.2 15.3 7.45 15.55 7.55 15.7 7.7 15.85 7.8 15.95 7.95 16.1 8.1 16.25 8.2 16.35 8.35 16.45 8.5 16.6 8.65 16.7 8.8 16.8 8.95 16.9 9.1 17.0 9.25 17.1 9.4 17.2 9.6 17.3 9.75 17.4 9.95 17.5 10.1 17.55 10.3 17.65 10.45 17.7 10.6 17.75 10.8 17.8 10.95 17.85 11.1 17.9 11.3 17.95 11.45 18.0 11.6 18.0 11.8 18.05 11.95 18.05 12.1 18.1 12.25 18.1 12.4 18.1 L13.15 18.1 12.95 20.8" fill="#ffffff" fill-rule="evenodd" stroke="none"/>
    </g>
  </defs>
</svg>
