<?xml version="1.0" encoding="UTF-8" standalone="no"?>
<svg xmlns:ffdec="https://www.free-decompiler.com/flash" xmlns:xlink="http://www.w3.org/1999/xlink" ffdec:objectType="frame" height="26.55px" width="70.8px" xmlns="http://www.w3.org/2000/svg">
  <g transform="matrix(1.0, 0.0, 0.0, 1.0, 0.2, 0.4)">
    <use ffdec:characterId="3" height="26.0" transform="matrix(1.0, 0.0, 0.0, 1.0, 0.0, 0.0)" width="26.0" xlink:href="#shape0"/>
    <use ffdec:characterId="31" height="26.0" transform="matrix(1.0, 0.0, 0.0, 1.0, 0.0, 0.0)" width="26.0" xlink:href="#shape1"/>
    <use ffdec:characterId="31" height="26.0" transform="matrix(1.0, 0.0, 0.0, 1.0, 0.0, 0.0)" width="26.0" xlink:href="#shape1"/>
  </g>
  <defs>
    <g id="shape0" transform="matrix(1.0, 0.0, 0.0, 1.0, 0.0, 0.0)">
      <path d="M23.5 2.45 Q23.5 2.5 23.5 2.5 23.5 2.55 23.5 2.55 23.5 2.55 23.5 2.55 23.5 2.6 23.5 2.6 L23.5 4.05 22.85 3.8 23.5 4.5 23.5 5.25 22.95 5.25 23.5 6.45 23.5 7.1 23.3 8.15 23.5 7.8 23.5 9.55 22.85 9.85 23.15 10.05 23.75 9.8 23.75 8.05 23.5 8.4 23.75 7.35 23.75 6.7 23.2 5.5 23.75 5.5 23.75 4.75 23.1 4.05 23.75 4.3 23.75 2.85 Q23.75 2.8 23.75 2.8 23.75 2.7 23.75 2.65 23.75 2.55 23.7 2.55 23.7 2.5 23.65 2.5 23.6 2.5 23.5 2.45 L23.5 2.45 M23.5 10.4 L23.5 22.5 23.5 23.15 Q23.5 23.4 23.5 23.4 23.45 23.5 23.4 23.5 23.35 23.5 23.15 23.5 L22.5 23.5 21.85 23.5 20.95 23.5 21.0 23.75 22.1 23.75 22.75 23.75 23.4 23.75 Q23.65 23.75 23.7 23.75 23.75 23.7 23.75 23.4 L23.75 22.75 23.75 10.55 23.5 10.4 M20.7 22.75 L19.95 23.5 16.1 23.5 15.25 23.05 15.2 23.5 14.15 23.5 13.9 23.5 12.75 23.4 12.05 23.5 10.85 23.5 10.7 23.3 10.2 23.55 9.7 23.5 8.85 23.25 8.4 23.5 7.5 23.5 7.25 23.35 6.45 23.5 5.85 23.5 5.2 23.5 4.55 23.5 3.95 23.45 3.25 23.5 2.85 23.5 Q2.85 23.55 2.85 23.6 2.85 23.65 2.85 23.7 2.8 23.7 2.8 23.75 2.85 23.75 2.85 23.75 2.85 23.75 2.85 23.75 L3.5 23.75 4.2 23.7 4.8 23.75 5.45 23.75 6.05 23.75 6.7 23.75 7.45 23.6 7.75 23.75 8.65 23.75 9.1 23.5 9.9 23.75 10.45 23.8 10.95 23.55 11.1 23.75 12.3 23.75 13.0 23.65 14.1 23.75 14.4 23.75 15.4 23.75 15.5 23.3 16.35 23.75 20.15 23.75 20.75 23.2 20.7 22.75" fill="#ffffff" fill-rule="evenodd" stroke="none"/>
      <path d="M2.6 2.2 L5.95 2.2 6.2 2.65 6.5 2.4 7.75 2.2 13.5 2.2 13.7 2.7 14.15 2.2 15.45 2.2 16.65 2.2 17.15 2.65 17.35 2.2 18.0 2.2 23.15 2.2 Q23.35 2.2 23.4 2.25 23.45 2.25 23.5 2.35 23.5 2.4 23.5 2.55 23.5 2.55 23.5 2.6 L23.5 4.05 22.85 3.8 23.5 4.5 23.5 5.25 22.95 5.25 23.5 6.45 23.5 7.1 23.3 8.15 23.5 7.8 23.5 9.55 22.85 9.85 23.5 10.3 23.5 22.5 23.5 23.15 Q23.5 23.4 23.5 23.4 23.45 23.5 23.4 23.5 23.35 23.5 23.15 23.5 L22.5 23.5 21.85 23.5 20.75 23.5 20.7 22.75 19.95 23.5 16.1 23.5 15.25 23.05 15.2 23.5 14.15 23.5 13.9 23.5 12.75 23.4 12.05 23.5 10.85 23.5 10.7 23.3 10.2 23.55 9.7 23.5 8.85 23.25 8.4 23.5 7.5 23.5 7.25 23.35 6.45 23.5 5.85 23.5 5.2 23.5 4.55 23.5 3.95 23.45 3.25 23.5 2.6 23.5 Q2.6 23.5 2.6 23.5 2.6 23.5 2.6 23.5 2.4 23.5 2.35 23.5 2.3 23.5 2.25 23.45 2.25 23.4 2.25 23.2 2.25 23.2 2.25 23.2 2.25 23.2 2.25 23.2 2.25 23.15 2.25 23.15 L2.25 17.7 3.05 17.5 2.25 16.75 2.25 16.1 2.25 15.45 2.25 14.45 2.65 14.15 2.25 13.9 2.25 10.65 2.65 10.45 2.25 9.9 2.25 9.0 2.25 8.35 2.25 7.7 2.75 7.2 2.25 6.85 2.25 2.6 Q2.25 2.55 2.25 2.55 2.25 2.4 2.25 2.35 2.3 2.25 2.35 2.25 2.4 2.2 2.55 2.2 2.55 2.2 2.6 2.2 2.6 2.2 2.6 2.2 2.6 2.2 2.6 2.2 L2.6 2.2" fill="#000000" fill-rule="evenodd" stroke="none"/>
    </g>
    <g id="shape1" transform="matrix(1.0, 0.0, 0.0, 1.0, 0.0, 0.0)">
      <path d="M19.35 8.55 L19.4 8.55 Q19.45 8.55 19.5 8.55 19.5 8.55 19.55 8.55 19.55 8.55 19.6 8.6 19.6 8.6 19.65 8.6 19.65 8.65 19.65 8.65 19.65 8.7 19.65 8.75 19.65 8.75 19.65 8.8 19.65 8.85 19.65 8.9 19.55 9.25 19.45 9.6 19.35 9.95 19.25 10.3 19.2 10.6 19.1 10.95 19.0 11.25 18.9 11.55 18.8 11.85 18.7 12.15 18.6 12.45 18.5 12.75 18.4 13.0 18.35 13.3 18.25 13.55 18.15 13.85 18.05 14.1 17.95 14.35 17.9 14.6 17.8 14.8 17.7 15.05 17.65 15.25 17.55 15.5 17.5 15.7 17.45 15.9 17.4 16.15 17.35 16.35 17.3 16.55 17.25 16.75 17.2 16.95 17.15 17.1 17.1 17.3 17.1 17.1 17.05 16.85 17.05 16.55 17.0 16.3 16.95 16.0 16.85 15.65 16.8 15.3 16.7 14.95 16.6 14.55 16.5 14.15 16.4 13.7 16.25 13.25 16.1 12.8 15.95 12.3 15.8 11.8 15.6 11.25 15.5 11.0 15.45 10.8 15.35 10.55 15.25 10.35 15.15 10.15 15.0 9.95 14.9 9.7 14.8 9.5 14.65 9.3 14.5 9.1 14.4 8.95 14.25 8.75 14.1 8.55 13.95 8.4 13.75 8.2 13.6 8.05 13.45 7.9 13.25 7.75 13.1 7.6 13.0 7.45 12.85 7.35 12.7 7.2 12.6 7.1 12.5 7.0 12.35 6.95 12.3 6.85 12.2 6.8 12.1 6.75 12.05 6.7 11.95 6.65 11.9 6.6 11.85 6.6 L11.75 6.6 Q11.7 6.6 11.65 6.6 11.65 6.65 11.6 6.65 11.55 6.65 11.5 6.7 11.45 6.7 11.4 6.75 11.35 6.8 11.3 6.8 11.25 6.85 11.25 6.9 11.2 6.95 11.15 7.0 11.1 7.05 11.05 7.15 L10.25 8.1 Q10.15 8.2 10.1 8.3 10.05 8.4 10.0 8.45 9.95 8.5 9.95 8.55 9.9 8.6 9.9 8.65 9.9 8.7 9.9 8.7 9.9 8.75 9.95 8.8 9.95 8.8 10.0 8.85 10.0 8.9 10.05 8.95 10.05 8.95 10.1 9.0 10.15 9.0 10.15 9.05 10.2 9.05 10.25 9.05 10.3 9.05 10.35 9.05 10.4 9.1 10.45 9.1 10.85 9.05 10.95 9.0 11.0 9.0 11.0 9.0 11.05 9.0 11.1 9.0 11.1 9.0 11.15 9.0 11.2 9.0 11.25 9.0 11.25 9.0 11.3 9.0 11.35 9.0 11.4 9.0 11.4 9.05 11.45 9.05 11.5 9.05 11.55 9.1 11.75 9.2 11.9 9.25 12.1 9.35 12.25 9.45 12.4 9.55 12.5 9.7 12.65 9.8 12.75 9.95 12.8 10.05 12.9 10.2 12.95 10.35 13.0 10.5 13.05 10.65 13.1 10.85 13.1 11.0 13.1 11.2 13.1 11.3 13.1 11.4 13.1 11.5 13.05 11.65 13.05 11.8 13.0 12.0 12.95 12.15 12.9 12.35 12.85 12.55 12.75 12.8 12.7 13.05 12.6 13.3 12.5 13.55 12.4 13.85 12.3 14.15 12.2 14.45 L11.15 17.25 Q11.1 16.8 11.0 16.35 10.95 15.95 10.9 15.55 10.8 15.15 10.7 14.75 10.65 14.35 10.55 14.0 10.45 13.65 10.4 13.35 10.3 13.0 10.2 12.7 10.1 12.4 10.0 12.1 9.85 11.85 9.75 11.55 9.65 11.3 9.5 11.05 9.35 10.75 9.2 10.5 9.05 10.25 8.9 9.95 8.7 9.65 8.5 9.4 8.3 9.1 8.1 8.8 7.85 8.55 7.65 8.25 7.4 7.95 7.1 7.65 6.85 7.35 6.55 7.05 6.5 6.95 6.45 6.9 6.35 6.85 6.3 6.8 6.25 6.7 6.2 6.65 6.15 6.6 6.1 6.6 6.05 6.55 6.05 6.5 6.0 6.5 5.95 6.45 5.95 6.45 5.9 6.45 5.85 6.45 5.85 6.45 5.8 6.45 5.75 6.45 5.7 6.45 5.7 6.45 5.65 6.45 5.65 6.5 5.6 6.5 5.6 6.55 5.55 6.55 5.55 6.55 5.5 6.55 5.45 6.55 5.35 6.55 4.65 7.55 3.95 8.55 3.85 8.55 3.8 8.6 3.8 8.6 3.75 8.65 3.75 8.65 3.75 8.7 3.75 8.7 3.8 8.7 3.8 8.75 3.85 8.75 3.9 8.8 3.95 8.8 4.0 8.8 4.05 8.85 4.15 8.85 4.2 8.85 4.3 8.9 4.4 8.9 4.5 8.9 4.6 8.9 4.7 8.95 4.9 8.95 5.1 9.05 5.25 9.1 5.45 9.2 5.65 9.3 5.85 9.5 6.0 9.65 6.2 9.85 6.4 10.05 6.6 10.3 6.8 10.6 6.95 10.9 7.15 11.2 7.35 11.55 7.55 11.9 7.7 12.3 7.9 12.7 8.05 13.1 8.25 13.5 8.4 13.95 8.55 14.35 8.7 14.75 8.8 15.15 8.95 15.55 9.05 15.95 9.15 16.35 9.25 16.75 9.35 17.15 9.4 17.55 9.5 17.95 9.55 18.35 9.6 18.75 L9.75 20.3 10.95 20.4 Q11.0 20.4 11.2 20.4 L11.6 20.4 Q11.65 20.4 11.7 20.4 11.7 20.4 11.75 20.4 11.8 20.4 11.85 20.4 11.85 20.35 11.9 20.35 11.9 20.35 11.95 20.35 11.95 20.3 12.0 20.3 12.0 20.3 12.05 20.25 12.05 20.25 12.1 20.2 L12.4 18.95 12.6 18.2 Q13.15 16.3 13.6 15.05 14.0 13.95 14.2 13.3 14.55 14.15 14.55 14.2 14.55 14.25 14.65 14.6 14.75 15.0 14.85 15.4 15.05 16.15 15.35 18.1 15.4 18.3 15.4 18.5 15.45 18.7 15.45 18.85 15.5 19.0 15.55 19.15 15.55 19.3 15.6 19.4 15.65 19.55 15.65 19.65 15.7 19.75 15.7 19.8 15.75 19.9 15.8 19.95 15.8 20.0 15.85 20.05 15.9 20.1 15.9 20.1 15.95 20.15 16.0 20.15 16.05 20.2 16.1 20.2 16.15 20.2 16.25 20.25 16.3 20.25 16.35 20.25 16.45 20.3 16.5 20.3 16.6 20.3 16.7 20.3 16.8 20.3 16.9 20.3 L18.15 20.3 18.5 18.7 Q19.05 16.2 20.4 12.4 L22.05 7.75 Q22.05 7.7 22.1 7.65 22.1 7.55 22.15 7.5 22.15 7.45 22.15 7.4 22.2 7.35 22.2 7.3 22.2 7.25 22.2 7.25 22.2 7.2 22.25 7.15 22.25 7.1 22.25 7.1 22.25 7.05 22.25 7.0 22.25 6.95 22.25 6.9 22.25 6.85 22.2 6.8 22.2 6.8 22.15 6.75 22.15 6.7 22.1 6.7 22.05 6.65 22.0 6.65 22.0 6.65 21.95 6.6 21.9 6.6 21.85 6.6 21.8 6.6 21.75 6.6 21.7 6.55 21.6 6.55 21.5 6.55 21.45 6.55 21.35 6.55 21.25 6.55 21.15 6.55 21.0 6.55 20.9 6.55 20.75 6.55 19.65 6.5 19.45 6.45 19.4 6.45 19.4 6.4 19.35 6.4 19.3 6.4 19.3 6.35 19.25 6.35 19.25 6.35 19.2 6.3 19.2 6.3 19.15 6.25 19.15 6.25 19.15 6.2 19.1 6.15 19.1 6.15 19.1 6.1 19.05 6.05 19.05 6.0 19.0 5.95 19.0 5.9 18.95 5.85 18.95 5.8 18.9 5.75 18.9 5.75 18.85 5.7 18.85 5.7 18.8 5.65 18.75 5.65 18.7 5.6 18.65 5.6 18.65 5.6 18.6 5.6 18.55 5.6 18.5 5.6 18.45 5.6 18.4 5.6 18.35 5.65 18.3 5.65 18.25 5.7 18.2 5.7 18.15 5.75 18.1 5.8 18.1 5.85 18.05 5.9 18.0 5.95 17.95 6.0 17.95 6.05 17.9 6.1 17.85 6.2 17.8 6.3 17.8 6.35 17.75 6.4 17.75 6.5 17.7 6.55 17.7 6.6 17.7 6.65 17.65 6.7 17.65 6.7 17.65 6.75 17.6 6.8 17.6 6.8 17.6 6.85 17.6 6.85 17.6 6.85 17.6 6.85 17.55 6.9 17.45 7.35 17.45 7.4 17.4 7.45 17.4 7.55 17.4 7.6 17.4 7.65 17.4 7.7 17.4 7.7 17.4 7.75 17.4 7.8 17.4 7.85 17.4 7.9 17.4 7.9 17.4 7.95 17.4 7.95 17.45 8.0 17.45 8.0 17.5 8.05 17.55 8.15 17.6 8.2 17.7 8.25 17.8 8.3 17.9 8.35 18.0 8.4 18.1 8.4 18.2 8.45 18.35 8.45 18.5 8.5 18.65 8.5 18.8 8.55 19.0 8.55 19.15 8.55 19.35 8.55 L19.35 8.55" fill="#ffffff" fill-rule="evenodd" stroke="none"/>
    </g>
  </defs>
</svg>
