<?xml version="1.0" encoding="UTF-8" standalone="no"?>
<svg xmlns:ffdec="https://www.free-decompiler.com/flash" xmlns:xlink="http://www.w3.org/1999/xlink" ffdec:objectType="frame" height="26.55px" width="70.8px" xmlns="http://www.w3.org/2000/svg">
  <g transform="matrix(1.0, 0.0, 0.0, 1.0, 0.2, 0.4)">
    <use ffdec:characterId="3" height="26.0" transform="matrix(1.0, 0.0, 0.0, 1.0, 0.0, 0.0)" width="26.0" xlink:href="#shape0"/>
    <use ffdec:characterId="32" height="26.0" transform="matrix(1.0, 0.0, 0.0, 1.0, 0.0, 0.0)" width="26.0" xlink:href="#shape1"/>
    <use ffdec:characterId="32" height="26.0" transform="matrix(1.0, 0.0, 0.0, 1.0, 0.0, 0.0)" width="26.0" xlink:href="#shape1"/>
  </g>
  <defs>
    <g id="shape0" transform="matrix(1.0, 0.0, 0.0, 1.0, 0.0, 0.0)">
      <path d="M23.5 2.45 Q23.5 2.5 23.5 2.5 23.5 2.55 23.5 2.55 23.5 2.55 23.5 2.55 23.5 2.6 23.5 2.6 L23.5 4.05 22.85 3.8 23.5 4.5 23.5 5.25 22.95 5.25 23.5 6.45 23.5 7.1 23.3 8.15 23.5 7.8 23.5 9.55 22.85 9.85 23.15 10.05 23.75 9.8 23.75 8.05 23.5 8.4 23.75 7.35 23.75 6.7 23.2 5.5 23.75 5.5 23.75 4.75 23.1 4.05 23.75 4.3 23.75 2.85 Q23.75 2.8 23.75 2.8 23.75 2.7 23.75 2.65 23.75 2.55 23.7 2.55 23.7 2.5 23.65 2.5 23.6 2.5 23.5 2.45 L23.5 2.45 M23.5 10.4 L23.5 22.5 23.5 23.15 Q23.5 23.4 23.5 23.4 23.45 23.5 23.4 23.5 23.35 23.5 23.15 23.5 L22.5 23.5 21.85 23.5 20.95 23.5 21.0 23.75 22.1 23.75 22.75 23.75 23.4 23.75 Q23.65 23.75 23.7 23.75 23.75 23.7 23.75 23.4 L23.75 22.75 23.75 10.55 23.5 10.4 M20.7 22.75 L19.95 23.5 16.1 23.5 15.25 23.05 15.2 23.5 14.15 23.5 13.9 23.5 12.75 23.4 12.05 23.5 10.85 23.5 10.7 23.3 10.2 23.55 9.7 23.5 8.85 23.25 8.4 23.5 7.5 23.5 7.25 23.35 6.45 23.5 5.85 23.5 5.2 23.5 4.55 23.5 3.95 23.45 3.25 23.5 2.85 23.5 Q2.85 23.55 2.85 23.6 2.85 23.65 2.85 23.7 2.8 23.7 2.8 23.75 2.85 23.75 2.85 23.75 2.85 23.75 2.85 23.75 L3.5 23.75 4.2 23.7 4.8 23.75 5.45 23.75 6.05 23.75 6.7 23.75 7.45 23.6 7.75 23.75 8.65 23.75 9.1 23.5 9.9 23.75 10.45 23.8 10.95 23.55 11.1 23.75 12.3 23.75 13.0 23.65 14.1 23.75 14.4 23.75 15.4 23.75 15.5 23.3 16.35 23.75 20.15 23.75 20.75 23.2 20.7 22.75" fill="#ffffff" fill-rule="evenodd" stroke="none"/>
      <path d="M2.6 2.2 L5.95 2.2 6.2 2.65 6.5 2.4 7.75 2.2 13.5 2.2 13.7 2.7 14.15 2.2 15.45 2.2 16.65 2.2 17.15 2.65 17.35 2.2 18.0 2.2 23.15 2.2 Q23.35 2.2 23.4 2.25 23.45 2.25 23.5 2.35 23.5 2.4 23.5 2.55 23.5 2.55 23.5 2.6 L23.5 4.05 22.85 3.8 23.5 4.5 23.5 5.25 22.95 5.25 23.5 6.45 23.5 7.1 23.3 8.15 23.5 7.8 23.5 9.55 22.85 9.85 23.5 10.3 23.5 22.5 23.5 23.15 Q23.5 23.4 23.5 23.4 23.45 23.5 23.4 23.5 23.35 23.5 23.15 23.5 L22.5 23.5 21.85 23.5 20.75 23.5 20.7 22.75 19.95 23.5 16.1 23.5 15.25 23.05 15.2 23.5 14.15 23.5 13.9 23.5 12.75 23.4 12.05 23.5 10.85 23.5 10.7 23.3 10.2 23.55 9.7 23.5 8.85 23.25 8.4 23.5 7.5 23.5 7.25 23.35 6.45 23.5 5.85 23.5 5.2 23.5 4.55 23.5 3.95 23.45 3.25 23.5 2.6 23.5 Q2.6 23.5 2.6 23.5 2.6 23.5 2.6 23.5 2.4 23.5 2.35 23.5 2.3 23.5 2.25 23.45 2.25 23.4 2.25 23.2 2.25 23.2 2.25 23.2 2.25 23.2 2.25 23.2 2.25 23.15 2.25 23.15 L2.25 17.7 3.05 17.5 2.25 16.75 2.25 16.1 2.25 15.45 2.25 14.45 2.65 14.15 2.25 13.9 2.25 10.65 2.65 10.45 2.25 9.9 2.25 9.0 2.25 8.35 2.25 7.7 2.75 7.2 2.25 6.85 2.25 2.6 Q2.25 2.55 2.25 2.55 2.25 2.4 2.25 2.35 2.3 2.25 2.35 2.25 2.4 2.2 2.55 2.2 2.55 2.2 2.6 2.2 2.6 2.2 2.6 2.2 2.6 2.2 2.6 2.2 L2.6 2.2" fill="#000000" fill-rule="evenodd" stroke="none"/>
    </g>
    <g id="shape1" transform="matrix(1.0, 0.0, 0.0, 1.0, 0.0, 0.0)">
      <path d="M14.95 5.5 Q14.95 5.55 14.9 5.6 14.9 5.6 14.9 5.65 14.9 5.7 14.85 5.7 14.85 5.75 14.8 5.75 14.8 5.8 14.75 5.8 14.7 5.85 14.65 5.85 14.6 5.85 14.5 5.9 14.45 5.9 14.35 5.95 14.25 5.95 14.15 5.95 14.0 5.95 13.9 6.0 13.75 6.0 13.6 6.0 13.45 6.0 13.3 6.0 L10.85 6.05 Q9.05 6.1 8.55 6.2 8.5 6.2 8.4 6.2 8.35 6.25 8.3 6.25 8.25 6.25 8.2 6.3 8.15 6.3 8.15 6.35 8.1 6.35 8.1 6.4 8.05 6.4 8.05 6.45 8.0 6.45 8.0 6.5 8.0 6.55 8.0 6.6 8.0 6.65 8.0 6.65 8.05 6.7 8.05 6.75 8.05 6.8 8.1 6.8 8.15 6.85 8.2 6.9 8.25 6.95 8.3 6.95 8.35 7.0 8.4 7.05 8.5 7.1 8.55 7.1 8.65 7.15 8.75 7.2 L9.5 7.55 9.5 18.35 8.75 18.7 Q8.65 18.75 8.55 18.8 8.5 18.8 8.4 18.85 8.35 18.9 8.3 18.95 8.25 19.0 8.2 19.0 8.15 19.05 8.1 19.1 8.1 19.15 8.05 19.2 8.05 19.2 8.0 19.25 8.0 19.3 8.0 19.35 8.0 19.4 8.0 19.4 8.0 19.45 8.05 19.5 8.05 19.5 8.1 19.55 8.1 19.55 8.15 19.6 8.2 19.6 8.25 19.65 8.3 19.65 8.35 19.7 8.4 19.7 8.45 19.7 8.55 19.7 8.6 19.75 9.3 19.85 12.2 19.9 15.1 19.9 15.6 20.1 15.65 20.1 15.65 20.15 15.7 20.15 15.75 20.15 15.75 20.2 15.8 20.2 15.8 20.25 15.85 20.25 15.85 20.3 15.9 20.3 15.9 20.35 15.9 20.4 15.95 20.4 15.95 20.45 15.95 20.5 16.0 20.55 16.0 20.6 16.0 20.65 16.05 20.65 16.05 20.7 16.05 20.75 16.1 20.75 16.1 20.8 16.1 20.8 16.15 20.85 16.15 20.85 16.2 20.85 16.2 20.9 16.25 20.9 16.3 20.9 16.3 20.9 16.35 20.9 16.4 20.9 16.5 20.85 16.55 20.85 16.6 20.8 16.7 20.7 16.75 20.65 16.8 20.55 16.9 20.45 16.95 20.3 17.0 20.15 17.1 20.0 17.15 19.85 17.2 19.65 17.3 19.45 17.35 19.25 17.4 19.0 18.0 17.1 18.0 16.75 18.0 16.7 18.0 16.65 18.0 16.55 17.95 16.55 17.95 16.5 17.95 16.45 17.9 16.4 17.9 16.4 17.85 16.35 17.8 16.35 17.75 16.35 17.75 16.35 17.7 16.35 17.65 16.35 17.6 16.35 17.5 16.35 17.45 16.35 17.4 16.4 17.35 16.4 17.3 16.45 17.25 16.45 17.2 16.5 17.15 16.55 17.1 16.6 17.05 16.65 17.0 16.7 16.95 16.75 16.9 16.8 16.85 16.85 16.8 16.9 16.75 17.0 16.7 17.05 16.6 17.2 16.5 17.35 16.4 17.5 16.3 17.6 16.2 17.75 16.05 17.85 15.95 17.95 15.8 18.05 15.7 18.15 15.55 18.25 15.4 18.35 15.25 18.4 15.1 18.5 14.9 18.55 14.75 18.6 14.6 18.65 14.55 18.65 14.5 18.65 14.45 18.7 14.4 18.7 14.35 18.7 14.3 18.7 14.25 18.7 14.2 18.7 14.15 18.7 14.1 18.7 14.05 18.7 14.0 18.7 13.95 18.7 13.9 18.7 13.85 18.7 13.8 18.7 13.7 18.7 13.6 18.7 13.5 18.7 13.4 18.7 13.3 18.65 13.2 18.65 13.1 18.6 13.0 18.55 12.9 18.55 12.8 18.5 12.75 18.45 12.65 18.4 12.6 18.35 12.5 18.25 12.4 18.2 12.35 18.1 12.3 18.05 12.25 18.0 12.2 17.95 12.15 17.9 12.15 17.85 12.1 17.8 12.05 17.75 12.05 17.7 12.0 17.65 11.95 17.6 11.95 17.55 11.9 17.5 11.9 17.45 11.9 17.4 11.85 17.35 11.85 17.3 11.75 16.85 11.75 15.25 L11.75 12.95 12.7 12.95 Q12.8 12.95 12.95 12.95 13.05 12.95 13.15 13.0 13.25 13.0 13.35 13.0 13.45 13.05 13.55 13.05 13.65 13.05 13.75 13.1 13.85 13.1 13.95 13.15 14.05 13.2 14.15 13.2 14.25 13.25 14.35 13.3 14.45 13.35 14.5 13.4 14.6 13.45 14.65 13.5 14.75 13.55 14.8 13.6 14.85 13.65 14.9 13.7 14.95 13.75 15.0 13.8 15.05 13.85 15.1 13.9 15.15 13.95 15.15 14.0 15.2 14.1 15.2 14.15 15.2 14.2 15.25 14.25 15.3 14.3 15.3 14.35 15.35 14.4 15.4 14.45 15.4 14.45 15.45 14.5 15.5 14.55 15.55 14.55 15.6 14.6 15.65 14.6 15.7 14.6 15.75 14.65 15.8 14.65 15.85 14.65 15.9 14.65 15.95 14.65 16.0 14.65 16.05 14.65 16.1 14.6 16.15 14.6 16.2 14.6 16.2 14.55 16.25 14.55 16.25 14.5 16.3 14.45 16.3 14.4 16.3 14.4 16.35 14.35 16.35 14.3 16.35 14.25 16.35 13.85 15.8 12.1 15.75 11.9 15.65 11.7 15.6 11.55 15.55 11.4 15.45 11.2 15.4 11.1 15.35 10.95 15.25 10.85 15.2 10.75 15.15 10.7 15.1 10.6 15.0 10.55 14.95 10.5 14.9 10.45 14.85 10.45 14.8 10.45 14.75 10.45 14.65 10.45 14.6 10.45 14.55 10.5 14.5 10.5 14.45 10.55 14.4 10.55 14.4 10.6 14.35 10.65 14.3 10.7 14.25 10.7 14.25 10.8 14.2 10.85 14.2 10.9 14.15 10.95 14.15 11.05 14.15 11.1 14.1 11.15 14.1 11.2 14.1 11.25 14.1 11.25 14.05 11.3 14.05 11.35 14.0 11.35 14.0 11.4 14.0 11.45 13.95 11.45 13.95 11.5 13.9 11.5 13.9 11.5 13.85 11.55 13.85 11.55 13.8 11.55 13.8 11.6 13.75 11.6 13.7 11.6 13.65 11.6 13.6 11.65 13.55 11.65 13.5 11.65 13.45 11.65 13.35 11.65 13.3 11.7 13.2 11.7 13.15 11.7 13.05 11.7 12.95 11.7 12.9 11.7 L11.75 11.8 11.75 7.2 12.85 7.2 Q13.0 7.2 13.1 7.2 13.2 7.2 13.35 7.2 13.45 7.25 13.55 7.25 13.65 7.25 13.75 7.3 13.85 7.3 13.95 7.3 14.05 7.35 14.1 7.35 14.2 7.4 14.3 7.4 14.35 7.45 14.45 7.5 14.5 7.55 14.6 7.55 14.65 7.6 14.75 7.65 14.8 7.7 14.9 7.75 14.95 7.8 15.05 7.9 15.1 7.95 15.2 8.0 15.25 8.1 15.35 8.15 15.45 8.25 15.5 8.35 15.6 8.45 15.7 8.5 15.8 8.6 15.85 8.7 15.95 8.75 16.0 8.85 16.1 8.9 16.15 9.0 16.2 9.05 16.25 9.1 16.35 9.15 16.4 9.2 16.45 9.2 16.5 9.25 16.55 9.25 16.55 9.3 16.6 9.3 16.65 9.3 16.7 9.3 16.7 9.3 16.75 9.3 16.75 9.25 16.8 9.25 16.8 9.2 16.85 9.2 16.85 9.15 16.9 9.15 16.9 9.1 16.9 9.05 16.9 9.0 16.95 8.95 16.95 8.9 16.95 8.85 16.95 8.75 16.95 8.25 16.45 6.7 16.4 6.5 16.35 6.35 16.25 6.15 16.2 6.0 16.15 5.85 16.1 5.75 16.05 5.65 15.95 5.55 15.9 5.45 15.85 5.35 15.8 5.25 15.75 5.2 15.65 5.15 15.6 5.15 15.55 5.1 15.5 5.1 L15.4 5.1 Q15.35 5.1 15.3 5.1 15.3 5.1 15.25 5.1 15.2 5.15 15.2 5.15 15.15 5.15 15.1 5.2 15.1 5.2 15.05 5.25 15.05 5.3 15.0 5.3 15.0 5.35 15.0 5.4 14.95 5.45 14.95 5.5 L14.95 5.5" fill="#ffffff" fill-rule="evenodd" stroke="none"/>
    </g>
  </defs>
</svg>
