<?xml version="1.0" encoding="UTF-8" standalone="no"?>
<svg xmlns:ffdec="https://www.free-decompiler.com/flash" xmlns:xlink="http://www.w3.org/1999/xlink" ffdec:objectType="frame" height="26.55px" width="70.8px" xmlns="http://www.w3.org/2000/svg">
  <g transform="matrix(1.0, 0.0, 0.0, 1.0, 0.2, 0.4)">
    <use ffdec:characterId="3" height="26.0" transform="matrix(1.0, 0.0, 0.0, 1.0, 0.0, 0.0)" width="26.0" xlink:href="#shape0"/>
    <use ffdec:characterId="33" height="26.0" transform="matrix(1.0, 0.0, 0.0, 1.0, 0.0, 0.0)" width="26.0" xlink:href="#shape1"/>
    <use ffdec:characterId="33" height="26.0" transform="matrix(1.0, 0.0, 0.0, 1.0, 0.0, 0.0)" width="26.0" xlink:href="#shape1"/>
  </g>
  <defs>
    <g id="shape0" transform="matrix(1.0, 0.0, 0.0, 1.0, 0.0, 0.0)">
      <path d="M23.5 2.45 Q23.5 2.5 23.5 2.5 23.5 2.55 23.5 2.55 23.5 2.55 23.5 2.55 23.5 2.6 23.5 2.6 L23.5 4.05 22.85 3.8 23.5 4.5 23.5 5.25 22.95 5.25 23.5 6.45 23.5 7.1 23.3 8.15 23.5 7.8 23.5 9.55 22.85 9.85 23.15 10.05 23.75 9.8 23.75 8.05 23.5 8.4 23.75 7.35 23.75 6.7 23.2 5.5 23.75 5.5 23.75 4.75 23.1 4.05 23.75 4.3 23.75 2.85 Q23.75 2.8 23.75 2.8 23.75 2.7 23.75 2.65 23.75 2.55 23.7 2.55 23.7 2.5 23.65 2.5 23.6 2.5 23.5 2.45 L23.5 2.45 M23.5 10.4 L23.5 22.5 23.5 23.15 Q23.5 23.4 23.5 23.4 23.45 23.5 23.4 23.5 23.35 23.5 23.15 23.5 L22.5 23.5 21.85 23.5 20.95 23.5 21.0 23.75 22.1 23.75 22.75 23.75 23.4 23.75 Q23.65 23.75 23.7 23.75 23.75 23.7 23.75 23.4 L23.75 22.75 23.75 10.55 23.5 10.4 M20.7 22.75 L19.95 23.5 16.1 23.5 15.25 23.05 15.2 23.5 14.15 23.5 13.9 23.5 12.75 23.4 12.05 23.5 10.85 23.5 10.7 23.3 10.2 23.55 9.7 23.5 8.85 23.25 8.4 23.5 7.5 23.5 7.25 23.35 6.45 23.5 5.85 23.5 5.2 23.5 4.55 23.5 3.95 23.45 3.25 23.5 2.85 23.5 Q2.85 23.55 2.85 23.6 2.85 23.65 2.85 23.7 2.8 23.7 2.8 23.75 2.85 23.75 2.85 23.75 2.85 23.75 2.85 23.75 L3.5 23.75 4.2 23.7 4.8 23.75 5.45 23.75 6.05 23.75 6.7 23.75 7.45 23.6 7.75 23.75 8.65 23.75 9.1 23.5 9.9 23.75 10.45 23.8 10.95 23.55 11.1 23.75 12.3 23.75 13.0 23.65 14.1 23.75 14.4 23.75 15.4 23.75 15.5 23.3 16.35 23.75 20.15 23.75 20.75 23.2 20.7 22.75" fill="#ffffff" fill-rule="evenodd" stroke="none"/>
      <path d="M2.6 2.2 L5.95 2.2 6.2 2.65 6.5 2.4 7.75 2.2 13.5 2.2 13.7 2.7 14.15 2.2 15.45 2.2 16.65 2.2 17.15 2.65 17.35 2.2 18.0 2.2 23.15 2.2 Q23.35 2.2 23.4 2.25 23.45 2.25 23.5 2.35 23.5 2.4 23.5 2.55 23.5 2.55 23.5 2.6 L23.5 4.05 22.85 3.8 23.5 4.5 23.5 5.25 22.95 5.25 23.5 6.45 23.5 7.1 23.3 8.15 23.5 7.8 23.5 9.55 22.85 9.85 23.5 10.3 23.5 22.5 23.5 23.15 Q23.5 23.4 23.5 23.4 23.45 23.5 23.4 23.5 23.35 23.5 23.15 23.5 L22.5 23.5 21.85 23.5 20.75 23.5 20.7 22.75 19.95 23.5 16.1 23.5 15.25 23.05 15.2 23.5 14.15 23.5 13.9 23.5 12.75 23.4 12.05 23.5 10.85 23.5 10.7 23.3 10.2 23.55 9.7 23.5 8.85 23.25 8.4 23.5 7.5 23.5 7.25 23.35 6.45 23.5 5.85 23.5 5.2 23.5 4.55 23.5 3.95 23.45 3.25 23.5 2.6 23.5 Q2.6 23.5 2.6 23.5 2.6 23.5 2.6 23.5 2.4 23.5 2.35 23.5 2.3 23.5 2.25 23.45 2.25 23.4 2.25 23.2 2.25 23.2 2.25 23.2 2.25 23.2 2.25 23.2 2.25 23.15 2.25 23.15 L2.25 17.7 3.05 17.5 2.25 16.75 2.25 16.1 2.25 15.45 2.25 14.45 2.65 14.15 2.25 13.9 2.25 10.65 2.65 10.45 2.25 9.9 2.25 9.0 2.25 8.35 2.25 7.7 2.75 7.2 2.25 6.85 2.25 2.6 Q2.25 2.55 2.25 2.55 2.25 2.4 2.25 2.35 2.3 2.25 2.35 2.25 2.4 2.2 2.55 2.2 2.55 2.2 2.6 2.2 2.6 2.2 2.6 2.2 2.6 2.2 2.6 2.2 L2.6 2.2" fill="#000000" fill-rule="evenodd" stroke="none"/>
    </g>
    <g id="shape1" transform="matrix(1.0, 0.0, 0.0, 1.0, 0.0, 0.0)">
      <path d="M16.85 10.3 Q16.85 9.95 16.8 9.65 16.75 9.3 16.65 9.0 16.6 8.75 16.45 8.45 16.3 8.2 16.15 7.95 15.95 7.7 15.75 7.5 15.55 7.25 15.3 7.05 15.0 6.85 14.7 6.7 14.4 6.55 14.05 6.4 13.95 6.35 13.8 6.3 13.65 6.3 13.45 6.25 13.3 6.2 13.05 6.2 12.85 6.15 12.65 6.15 12.4 6.1 12.1 6.1 11.85 6.1 11.55 6.05 11.25 6.05 10.95 6.05 10.6 6.05 10.25 6.05 L10.05 6.05 Q9.7 6.05 9.45 6.05 9.15 6.05 8.9 6.05 8.65 6.05 8.4 6.1 8.2 6.1 8.0 6.1 7.85 6.15 7.7 6.15 7.6 6.2 7.5 6.2 7.4 6.25 7.35 6.3 7.25 6.35 7.25 6.4 7.25 6.45 7.25 6.45 7.2 6.5 7.2 6.55 7.2 6.55 7.2 6.6 7.2 6.6 7.2 6.65 7.2 6.65 7.2 6.7 7.2 6.7 7.25 6.75 7.25 6.75 7.25 6.8 7.3 6.8 7.3 6.85 7.3 6.85 7.35 6.9 7.35 6.9 7.4 6.95 7.4 6.95 7.45 7.0 7.5 7.05 7.5 7.05 7.55 7.1 7.55 7.1 7.6 7.1 7.65 7.15 7.65 7.15 7.7 7.2 7.75 7.2 7.75 7.2 7.8 7.25 7.85 7.25 7.9 7.25 7.95 7.25 7.95 7.3 8.0 7.3 8.05 7.3 8.1 7.3 8.15 7.3 8.2 7.3 8.2 7.35 8.25 7.35 8.3 7.35 8.3 7.35 8.35 7.4 8.35 7.4 8.4 7.4 8.4 7.45 8.4 7.45 8.45 7.45 8.45 7.45 8.45 7.5 8.5 7.55 8.55 7.9 8.65 8.2 8.65 11.2 L8.65 14.4 Q8.65 16.85 8.6 17.55 L8.55 18.15 Q8.55 18.2 8.55 18.25 8.55 18.3 8.5 18.3 8.5 18.35 8.5 18.4 8.5 18.45 8.5 18.45 8.45 18.5 8.45 18.5 8.45 18.55 8.45 18.55 8.4 18.6 8.4 18.6 8.4 18.6 8.35 18.6 8.35 18.6 8.35 18.6 8.35 18.65 8.3 18.65 8.3 18.65 8.3 18.65 8.25 18.7 8.25 18.7 8.2 18.7 8.2 18.7 8.15 18.7 8.1 18.7 8.1 18.7 8.05 18.75 8.0 18.75 7.95 18.75 7.9 18.75 7.9 18.75 7.85 18.75 7.8 18.75 7.8 18.8 7.75 18.8 7.7 18.8 7.7 18.85 7.65 18.85 7.6 18.85 7.6 18.9 7.55 18.9 7.55 18.9 7.5 18.95 7.45 18.95 7.45 19.0 7.4 19.05 7.4 19.05 7.35 19.1 7.35 19.15 7.3 19.15 7.3 19.2 7.25 19.2 7.25 19.25 7.25 19.25 7.2 19.3 7.2 19.3 7.2 19.35 7.2 19.35 7.2 19.4 7.2 19.4 7.2 19.45 7.2 19.5 7.25 19.65 7.25 19.65 7.25 19.7 7.3 19.7 7.3 19.75 7.35 19.75 7.35 19.75 7.4 19.8 7.4 19.8 7.45 19.8 7.5 19.8 7.55 19.85 7.55 19.85 7.6 19.85 7.65 19.85 7.7 19.9 7.8 19.9 8.3 19.95 10.35 19.95 10.6 19.95 10.85 19.95 11.1 19.95 11.3 19.95 11.5 19.95 11.7 19.9 11.9 19.9 12.05 19.9 12.15 19.9 12.3 19.85 12.4 19.85 12.5 19.8 12.55 19.8 12.6 19.75 12.7 19.75 12.7 19.7 12.7 19.65 12.75 19.65 12.75 19.6 12.75 19.6 12.75 19.55 12.75 19.5 12.75 19.45 12.75 19.45 12.75 19.4 12.7 19.35 12.7 19.3 12.7 19.25 12.65 19.25 12.6 19.2 12.6 19.15 12.55 19.1 12.5 19.05 12.45 19.0 12.45 19.0 12.4 18.95 12.35 18.9 12.3 18.9 12.25 18.85 12.2 18.85 12.15 18.85 12.1 18.8 12.05 18.8 12.0 18.8 11.95 18.75 11.9 18.75 11.85 18.75 11.8 18.75 11.75 18.75 11.7 18.75 11.65 18.75 11.6 18.7 11.55 18.7 11.5 18.65 11.45 18.6 11.4 18.6 11.35 18.55 11.3 18.5 11.3 18.4 11.25 18.35 11.2 18.3 11.15 18.2 11.15 18.15 11.1 18.05 11.05 17.95 11.05 17.9 11.0 17.8 11.0 17.7 10.95 17.6 10.95 17.55 10.95 17.45 10.9 17.35 10.9 17.3 10.9 17.2 10.9 17.1 10.85 17.05 10.85 16.95 10.85 16.85 10.85 16.8 10.85 16.7 L10.9 14.45 10.9 7.15 11.55 7.3 Q12.65 7.5 12.65 7.55 12.8 7.7 13.35 8.05 13.5 8.15 13.65 8.25 13.8 8.4 13.9 8.5 14.0 8.65 14.1 8.8 14.2 8.95 14.3 9.1 14.4 9.25 14.45 9.45 14.5 9.6 14.55 9.8 14.6 10.0 14.6 10.2 14.6 10.4 14.6 10.6 14.6 10.8 14.6 11.0 14.55 11.2 14.55 11.4 14.5 11.55 14.45 11.75 14.4 11.9 14.3 12.05 14.25 12.2 14.15 12.35 14.05 12.45 13.9 12.6 13.8 12.7 13.65 12.8 13.55 12.9 13.35 13.0 13.15 13.1 13.0 13.2 12.8 13.3 12.65 13.4 12.5 13.5 12.4 13.6 12.25 13.7 12.15 13.75 12.05 13.85 12.0 13.9 11.9 14.0 11.85 14.05 11.8 14.1 11.8 14.15 11.75 14.2 11.75 14.25 11.75 14.25 11.75 14.3 11.75 14.3 11.8 14.3 11.8 14.35 11.8 14.4 11.8 14.5 11.85 14.6 11.9 14.7 11.95 14.8 12.0 14.9 12.05 15.05 12.15 15.2 12.25 15.35 12.35 15.55 12.45 15.7 12.6 15.9 12.75 16.1 12.9 16.3 13.05 16.55 13.2 16.8 13.35 17.0 13.5 17.25 13.65 17.45 13.75 17.65 13.9 17.8 14.0 18.0 14.1 18.15 14.15 18.3 14.25 18.45 14.3 18.6 14.4 18.7 14.45 18.85 14.45 18.95 14.5 19.05 14.5 19.1 L14.65 19.85 16.7 19.85 Q17.95 19.85 18.35 19.75 18.4 19.75 18.45 19.75 18.5 19.7 18.55 19.7 18.6 19.7 18.6 19.65 18.65 19.65 18.7 19.6 18.7 19.6 18.75 19.55 18.75 19.55 18.75 19.5 18.8 19.5 18.8 19.45 18.8 19.4 18.8 19.4 18.8 19.35 18.8 19.3 18.75 19.25 18.75 19.25 18.7 19.2 18.7 19.15 18.65 19.1 18.6 19.05 18.55 19.0 18.5 19.0 18.4 18.95 18.35 18.9 18.25 18.85 18.15 18.8 18.05 18.75 17.95 18.7 17.85 18.65 17.75 18.6 17.65 18.5 17.5 18.45 17.4 18.35 17.25 18.25 17.15 18.15 17.0 18.05 16.85 17.95 16.7 17.8 16.55 17.65 16.4 17.5 16.25 17.35 16.1 17.2 15.9 17.05 15.75 16.85 L13.4 14.4 Q13.85 14.3 14.2 14.15 14.6 14.0 14.9 13.85 15.25 13.65 15.5 13.45 15.75 13.2 16.0 12.95 16.2 12.7 16.35 12.4 16.5 12.1 16.6 11.75 16.7 11.45 16.8 11.05 16.85 10.7 16.85 10.3 L16.85 10.3" fill="#ffffff" fill-rule="evenodd" stroke="none"/>
    </g>
  </defs>
</svg>
