<?xml version="1.0" encoding="UTF-8" standalone="no"?>
<svg xmlns:ffdec="https://www.free-decompiler.com/flash" xmlns:xlink="http://www.w3.org/1999/xlink" ffdec:objectType="frame" height="26.55px" width="70.8px" xmlns="http://www.w3.org/2000/svg">
  <g transform="matrix(1.0, 0.0, 0.0, 1.0, 0.2, 0.4)">
    <use ffdec:characterId="27" height="26.0" transform="matrix(1.0, 0.0, 0.0, 1.0, 0.0, 0.0)" width="41.75" xlink:href="#shape0"/>
    <use ffdec:characterId="110" height="13.15" transform="matrix(1.0, 0.0, 0.0, 1.0, 0.0, 0.0)" width="24.15" xlink:href="#shape1"/>
    <use ffdec:characterId="110" height="13.15" transform="matrix(1.0, 0.0, 0.0, 1.0, 0.0, 0.0)" width="24.15" xlink:href="#shape1"/>
  </g>
  <defs>
    <g id="shape0" transform="matrix(1.0, 0.0, 0.0, 1.0, 0.0, 0.0)">
      <path d="M41.4 2.45 Q41.4 2.5 41.4 2.5 41.4 2.55 41.4 2.55 41.4 2.55 41.4 2.6 L41.4 4.05 40.75 3.8 41.4 4.5 41.4 5.25 40.85 5.25 41.4 6.45 41.4 7.1 41.2 8.15 41.4 7.8 41.4 9.55 40.75 9.85 41.1 10.05 41.65 9.8 41.65 8.05 41.45 8.4 41.65 7.35 41.65 6.7 41.1 5.5 41.65 5.5 41.65 4.75 41.0 4.05 41.65 4.3 41.65 2.85 Q41.65 2.85 41.65 2.8 41.65 2.7 41.65 2.65 41.65 2.55 41.6 2.55 41.6 2.5 41.55 2.5 41.5 2.5 41.4 2.45 L41.4 2.45 M41.4 10.4 L41.4 22.5 41.4 23.15 Q41.4 23.4 41.4 23.4 41.4 23.5 41.3 23.5 41.3 23.5 41.05 23.5 L40.4 23.5 39.75 23.5 38.9 23.5 38.9 23.75 40.0 23.75 40.65 23.75 41.3 23.75 Q41.5 23.75 41.55 23.75 41.6 23.75 41.65 23.65 41.65 23.65 41.65 23.4 L41.65 22.75 41.65 10.55 41.4 10.4 M38.6 22.75 L37.85 23.5 25.15 23.5 24.3 23.05 24.25 23.5 23.2 23.5 22.9 23.5 21.8 23.4 21.1 23.5 19.9 23.5 19.75 23.3 19.25 23.55 7.45 23.5 6.65 23.25 6.2 23.5 5.3 23.5 5.05 23.35 4.25 23.5 3.65 23.5 3.0 23.5 2.35 23.5 1.75 23.45 1.05 23.5 0.65 23.5 Q0.65 23.65 0.6 23.75 0.65 23.75 0.65 23.75 0.65 23.75 0.65 23.75 L1.3 23.75 2.0 23.7 2.6 23.75 3.2 23.75 3.85 23.75 4.5 23.75 5.25 23.6 5.55 23.75 6.45 23.75 18.15 23.75 18.95 23.75 19.5 23.8 20.0 23.55 20.1 23.75 21.35 23.75 22.05 23.65 23.15 23.75 23.45 23.75 24.45 23.75 24.55 23.3 25.35 23.75 38.1 23.75 38.65 23.2 38.6 22.75" fill="#ffffff" fill-rule="evenodd" stroke="none"/>
      <path d="M0.4 2.2 L3.75 2.2 4.0 2.65 4.3 2.4 5.55 2.2 13.95 2.2 14.1 2.7 14.55 2.2 15.85 2.2 28.95 2.2 29.45 2.65 29.65 2.2 30.3 2.2 41.05 2.2 Q41.25 2.2 41.3 2.25 41.4 2.25 41.4 2.35 41.4 2.4 41.4 2.55 41.4 2.55 41.4 2.6 L41.4 4.05 40.75 3.8 41.4 4.5 41.4 5.25 40.85 5.25 41.4 6.45 41.4 7.1 41.2 8.15 41.4 7.8 41.4 9.55 40.75 9.85 41.4 10.3 41.4 22.5 41.4 23.15 Q41.4 23.4 41.4 23.4 41.4 23.5 41.3 23.5 41.3 23.5 41.05 23.5 L40.4 23.5 39.75 23.5 38.65 23.5 38.6 22.75 37.85 23.5 25.15 23.5 24.3 23.05 24.25 23.5 23.2 23.5 22.9 23.5 21.8 23.4 21.1 23.5 19.9 23.5 19.75 23.3 19.25 23.55 7.45 23.5 6.65 23.25 6.2 23.5 5.3 23.5 5.05 23.35 4.25 23.5 3.65 23.5 3.0 23.5 2.35 23.5 1.75 23.45 1.05 23.5 0.4 23.5 Q0.4 23.5 0.4 23.5 0.4 23.5 0.4 23.5 0.2 23.5 0.15 23.5 0.1 23.5 0.05 23.45 0.05 23.4 0.05 23.2 0.05 23.2 0.05 23.2 0.05 23.2 0.05 23.2 0.05 23.15 0.05 23.15 L0.05 17.7 0.85 17.5 0.05 16.75 0.05 16.1 0.05 15.45 0.05 14.45 0.45 14.15 0.05 13.9 0.05 10.65 0.45 10.45 0.05 9.9 0.05 9.0 0.05 8.35 0.05 7.7 0.55 7.2 0.05 6.85 0.05 2.6 Q0.05 2.55 0.05 2.55 0.05 2.4 0.05 2.35 0.1 2.25 0.15 2.25 0.2 2.2 0.35 2.2 0.35 2.2 0.4 2.2 0.4 2.2 0.4 2.2 0.4 2.2 0.4 2.2 L0.4 2.2" fill="#000000" fill-rule="evenodd" stroke="none"/>
    </g>
    <g id="shape1" transform="matrix(1.0, 0.0, 0.0, 1.0, 0.0, 0.0)">
      <path d="M3.4 2.7 L2.95 1.9 1.95 1.65 1.7 1.65 1.7 5.9 Q2.75 5.95 3.15 5.4 3.55 4.85 3.55 3.75 L3.4 2.7 M4.25 0.65 L5.05 1.7 5.35 3.6 Q5.35 5.55 4.5 6.5 3.65 7.4 1.7 7.3 L1.7 13.0 0.0 13.0 0.0 0.2 2.05 0.2 3.15 0.25 4.25 0.65 M9.75 5.85 L9.5 5.85 Q8.6 5.85 8.25 6.3 7.9 6.75 7.9 7.6 L7.9 13.0 6.3 13.0 6.3 4.4 7.9 4.4 7.9 5.45 7.95 5.45 8.65 4.6 Q9.1 4.3 9.75 4.3 L9.75 5.85 M10.3 5.7 L10.3 4.4 11.15 4.4 11.15 2.0 12.75 2.0 12.75 4.4 13.6 4.4 13.6 5.7 12.75 5.7 12.75 13.0 11.15 13.0 11.15 5.7 10.3 5.7 M18.0 0.1 L18.85 0.45 18.85 2.15 18.15 1.75 17.4 1.6 Q16.7 1.65 16.3 2.1 15.9 2.55 15.9 3.25 L16.0 4.0 16.35 4.65 17.65 6.05 18.6 7.15 19.25 8.35 19.45 9.8 Q19.45 10.75 19.1 11.5 L18.05 12.7 16.45 13.15 15.45 13.0 Q15.0 12.9 14.6 12.55 L14.6 10.85 15.35 11.3 16.25 11.5 17.1 11.25 17.6 10.6 17.75 9.7 Q17.75 8.95 17.4 8.4 L16.5 7.35 15.45 6.3 14.55 5.0 Q14.2 4.3 14.15 3.3 14.15 2.4 14.5 1.65 14.8 0.9 15.45 0.45 16.1 0.0 17.05 0.0 L18.0 0.1 M21.5 4.75 Q22.0 4.3 22.9 4.3 L23.55 4.35 24.15 4.55 24.15 6.2 23.85 5.9 23.4 5.75 Q22.85 5.8 22.6 6.1 22.3 6.4 22.15 6.85 L22.0 7.8 22.0 8.65 22.0 9.45 22.15 10.45 22.55 11.3 Q22.85 11.65 23.35 11.65 L23.8 11.55 24.15 11.3 24.15 12.8 23.55 13.05 22.85 13.15 Q22.05 13.1 21.55 12.7 21.0 12.25 20.75 11.6 20.5 10.95 20.4 10.2 L20.35 8.8 20.4 7.35 Q20.5 6.55 20.75 5.85 21.0 5.15 21.5 4.75" fill="#cccccc" fill-rule="evenodd" stroke="none"/>
    </g>
  </defs>
</svg>
