<?xml version="1.0" encoding="UTF-8" standalone="no"?>
<svg xmlns:ffdec="https://www.free-decompiler.com/flash" xmlns:xlink="http://www.w3.org/1999/xlink" ffdec:objectType="frame" height="26.55px" width="70.8px" xmlns="http://www.w3.org/2000/svg">
  <g transform="matrix(1.0, 0.0, 0.0, 1.0, 0.2, 0.4)">
    <use ffdec:characterId="27" height="26.0" transform="matrix(1.0, 0.0, 0.0, 1.0, 0.0, 0.0)" width="41.75" xlink:href="#shape0"/>
    <use ffdec:characterId="111" height="12.95" transform="matrix(1.0, 0.0, 0.0, 1.0, 0.0, 0.0)" width="28.95" xlink:href="#shape1"/>
    <use ffdec:characterId="111" height="12.95" transform="matrix(1.0, 0.0, 0.0, 1.0, 0.0, 0.0)" width="28.95" xlink:href="#shape1"/>
  </g>
  <defs>
    <g id="shape0" transform="matrix(1.0, 0.0, 0.0, 1.0, 0.0, 0.0)">
      <path d="M41.4 2.45 Q41.4 2.5 41.4 2.5 41.4 2.55 41.4 2.55 41.4 2.55 41.4 2.6 L41.4 4.05 40.75 3.8 41.4 4.5 41.4 5.25 40.85 5.25 41.4 6.45 41.4 7.1 41.2 8.15 41.4 7.8 41.4 9.55 40.75 9.85 41.1 10.05 41.65 9.8 41.65 8.05 41.45 8.4 41.65 7.35 41.65 6.7 41.1 5.5 41.65 5.5 41.65 4.75 41.0 4.05 41.65 4.3 41.65 2.85 Q41.65 2.85 41.65 2.8 41.65 2.7 41.65 2.65 41.65 2.55 41.6 2.55 41.6 2.5 41.55 2.5 41.5 2.5 41.4 2.45 L41.4 2.45 M41.4 10.4 L41.4 22.5 41.4 23.15 Q41.4 23.4 41.4 23.4 41.4 23.5 41.3 23.5 41.3 23.5 41.05 23.5 L40.4 23.5 39.75 23.5 38.9 23.5 38.9 23.75 40.0 23.75 40.65 23.75 41.3 23.75 Q41.5 23.75 41.55 23.75 41.6 23.75 41.65 23.65 41.65 23.65 41.65 23.4 L41.65 22.75 41.65 10.55 41.4 10.4 M38.6 22.75 L37.85 23.5 25.15 23.5 24.3 23.05 24.25 23.5 23.2 23.5 22.9 23.5 21.8 23.4 21.1 23.5 19.9 23.5 19.75 23.3 19.25 23.55 7.45 23.5 6.65 23.25 6.2 23.5 5.3 23.5 5.05 23.35 4.25 23.5 3.65 23.5 3.0 23.5 2.35 23.5 1.75 23.45 1.05 23.5 0.65 23.5 Q0.65 23.65 0.6 23.75 0.65 23.75 0.65 23.75 0.65 23.75 0.65 23.75 L1.3 23.75 2.0 23.7 2.6 23.75 3.2 23.75 3.85 23.75 4.5 23.75 5.25 23.6 5.55 23.75 6.45 23.75 18.15 23.75 18.95 23.75 19.5 23.8 20.0 23.55 20.1 23.75 21.35 23.75 22.05 23.65 23.15 23.75 23.45 23.75 24.45 23.75 24.55 23.3 25.35 23.75 38.1 23.75 38.65 23.2 38.6 22.75" fill="#ffffff" fill-rule="evenodd" stroke="none"/>
      <path d="M0.4 2.2 L3.75 2.2 4.0 2.65 4.3 2.4 5.55 2.2 13.95 2.2 14.1 2.7 14.55 2.2 15.85 2.2 28.95 2.2 29.45 2.65 29.65 2.2 30.3 2.2 41.05 2.2 Q41.25 2.2 41.3 2.25 41.4 2.25 41.4 2.35 41.4 2.4 41.4 2.55 41.4 2.55 41.4 2.6 L41.4 4.05 40.75 3.8 41.4 4.5 41.4 5.25 40.85 5.25 41.4 6.45 41.4 7.1 41.2 8.15 41.4 7.8 41.4 9.55 40.75 9.85 41.4 10.3 41.4 22.5 41.4 23.15 Q41.4 23.4 41.4 23.4 41.4 23.5 41.3 23.5 41.3 23.5 41.05 23.5 L40.4 23.5 39.75 23.5 38.65 23.5 38.6 22.75 37.85 23.5 25.15 23.5 24.3 23.05 24.25 23.5 23.2 23.5 22.9 23.5 21.8 23.4 21.1 23.5 19.9 23.5 19.75 23.3 19.25 23.55 7.45 23.5 6.65 23.25 6.2 23.5 5.3 23.5 5.05 23.35 4.25 23.5 3.65 23.5 3.0 23.5 2.35 23.5 1.75 23.45 1.05 23.5 0.4 23.5 Q0.4 23.5 0.4 23.5 0.4 23.5 0.4 23.5 0.2 23.5 0.15 23.5 0.1 23.5 0.05 23.45 0.05 23.4 0.05 23.2 0.05 23.2 0.05 23.2 0.05 23.2 0.05 23.2 0.05 23.15 0.05 23.15 L0.05 17.7 0.85 17.5 0.05 16.75 0.05 16.1 0.05 15.45 0.05 14.45 0.45 14.15 0.05 13.9 0.05 10.65 0.45 10.45 0.05 9.9 0.05 9.0 0.05 8.35 0.05 7.7 0.55 7.2 0.05 6.85 0.05 2.6 Q0.05 2.55 0.05 2.55 0.05 2.4 0.05 2.35 0.1 2.25 0.15 2.25 0.2 2.2 0.35 2.2 0.35 2.2 0.4 2.2 0.4 2.2 0.4 2.2 0.4 2.2 0.4 2.2 L0.4 2.2" fill="#000000" fill-rule="evenodd" stroke="none"/>
    </g>
    <g id="shape1" transform="matrix(1.0, 0.0, 0.0, 1.0, 0.0, 0.0)">
      <path d="M4.25 0.45 L5.05 1.5 5.35 3.4 Q5.35 5.35 4.5 6.3 3.65 7.2 1.7 7.1 L1.7 12.8 0.0 12.8 0.0 0.0 2.05 0.0 3.15 0.05 4.25 0.45 M3.4 2.5 L2.95 1.7 1.95 1.45 1.7 1.45 1.7 5.7 Q2.75 5.75 3.15 5.2 3.55 4.65 3.55 3.55 L3.4 2.5 M8.1 4.1 Q8.65 4.1 9.05 4.4 9.45 4.7 9.65 5.15 L9.7 5.15 9.7 4.2 11.3 4.2 11.3 12.8 9.7 12.8 9.7 11.7 9.65 11.7 9.1 12.6 8.05 12.95 Q7.35 12.9 6.9 12.45 L6.3 11.2 6.1 9.7 6.05 8.4 6.1 7.1 6.3 5.7 Q6.5 5.0 6.95 4.55 7.35 4.1 8.1 4.1 M8.75 5.5 Q8.3 5.55 8.05 5.9 L7.75 6.75 7.7 7.75 7.7 8.5 7.7 9.25 7.75 10.25 8.05 11.15 Q8.3 11.5 8.75 11.5 L9.35 11.15 9.65 10.25 9.75 9.25 9.75 8.5 9.75 7.75 9.65 6.75 9.35 5.9 Q9.1 5.55 8.75 5.5 M16.3 4.2 L17.9 4.2 17.9 10.0 17.7 11.55 16.9 12.6 15.4 12.95 13.7 12.55 Q13.1 12.15 12.9 11.4 12.75 10.65 12.75 9.7 L12.75 4.2 14.35 4.2 14.35 9.6 14.35 10.45 Q14.4 10.85 14.6 11.15 L15.35 11.5 16.05 11.2 16.25 10.5 16.3 9.7 16.3 4.2 M21.15 4.1 L21.9 4.15 22.6 4.45 22.6 5.95 22.0 5.65 21.4 5.5 Q20.95 5.5 20.65 5.75 20.3 6.0 20.3 6.45 20.35 6.95 20.75 7.3 L21.65 8.05 22.55 8.95 Q22.95 9.5 23.0 10.4 22.95 11.55 22.35 12.25 21.7 12.9 20.55 12.95 L19.8 12.85 19.15 12.55 19.15 10.95 19.75 11.35 20.45 11.5 21.25 11.2 21.5 10.45 21.25 9.65 20.6 9.05 19.8 8.45 19.1 7.6 18.85 6.45 Q18.85 5.4 19.5 4.75 20.1 4.1 21.15 4.1 M26.35 4.1 Q27.25 4.1 27.75 4.55 28.25 4.95 28.55 5.65 L28.9 7.1 28.95 8.55 28.95 8.8 25.45 8.8 25.45 9.55 25.55 10.45 25.85 11.2 Q26.05 11.5 26.45 11.5 26.85 11.5 27.05 11.25 L27.35 10.65 27.45 9.9 28.9 9.9 28.65 11.4 27.85 12.5 26.4 12.95 Q25.5 12.9 25.0 12.5 L24.2 11.45 23.85 10.0 23.8 8.55 23.85 7.15 Q23.95 6.35 24.2 5.65 24.45 4.95 24.95 4.55 25.5 4.1 26.35 4.1 M26.35 5.5 Q26.0 5.5 25.8 5.75 L25.5 6.35 25.45 7.05 25.45 7.7 27.35 7.7 27.3 7.05 27.2 6.35 26.9 5.75 26.35 5.5" fill="#cccccc" fill-rule="evenodd" stroke="none"/>
    </g>
  </defs>
</svg>
