<?xml version="1.0" encoding="UTF-8" standalone="no"?>
<svg xmlns:ffdec="https://www.free-decompiler.com/flash" xmlns:xlink="http://www.w3.org/1999/xlink" ffdec:objectType="frame" height="26.55px" width="70.8px" xmlns="http://www.w3.org/2000/svg">
  <g transform="matrix(1.0, 0.0, 0.0, 1.0, 0.2, 0.4)">
    <use ffdec:characterId="3" height="26.0" transform="matrix(1.0, 0.0, 0.0, 1.0, 0.0, 0.0)" width="26.0" xlink:href="#shape0"/>
    <use ffdec:characterId="4" height="26.0" transform="matrix(1.0, 0.0, 0.0, 1.0, 0.0, 0.0)" width="26.0" xlink:href="#shape1"/>
    <use ffdec:characterId="4" height="26.0" transform="matrix(1.0, 0.0, 0.0, 1.0, 0.0, 0.0)" width="26.0" xlink:href="#shape1"/>
    <use ffdec:characterId="5" height="26.0" transform="matrix(1.0, 0.0, 0.0, 1.0, 0.0, 0.0)" width="26.0" xlink:href="#shape2"/>
    <use ffdec:characterId="5" height="26.0" transform="matrix(1.0, 0.0, 0.0, 1.0, 0.0, 0.0)" width="26.0" xlink:href="#shape2"/>
  </g>
  <defs>
    <g id="shape0" transform="matrix(1.0, 0.0, 0.0, 1.0, 0.0, 0.0)">
      <path d="M23.5 2.45 Q23.5 2.5 23.5 2.5 23.5 2.55 23.5 2.55 23.5 2.55 23.5 2.55 23.5 2.6 23.5 2.6 L23.5 4.05 22.85 3.8 23.5 4.5 23.5 5.25 22.95 5.25 23.5 6.45 23.5 7.1 23.3 8.15 23.5 7.8 23.5 9.55 22.85 9.85 23.15 10.05 23.75 9.8 23.75 8.05 23.5 8.4 23.75 7.35 23.75 6.7 23.2 5.5 23.75 5.5 23.75 4.75 23.1 4.05 23.75 4.3 23.75 2.85 Q23.75 2.8 23.75 2.8 23.75 2.7 23.75 2.65 23.75 2.55 23.7 2.55 23.7 2.5 23.65 2.5 23.6 2.5 23.5 2.45 L23.5 2.45 M23.5 10.4 L23.5 22.5 23.5 23.15 Q23.5 23.4 23.5 23.4 23.45 23.5 23.4 23.5 23.35 23.5 23.15 23.5 L22.5 23.5 21.85 23.5 20.95 23.5 21.0 23.75 22.1 23.75 22.75 23.75 23.4 23.75 Q23.65 23.75 23.7 23.75 23.75 23.7 23.75 23.4 L23.75 22.75 23.75 10.55 23.5 10.4 M20.7 22.75 L19.95 23.5 16.1 23.5 15.25 23.05 15.2 23.5 14.15 23.5 13.9 23.5 12.75 23.4 12.05 23.5 10.85 23.5 10.7 23.3 10.2 23.55 9.7 23.5 8.85 23.25 8.4 23.5 7.5 23.5 7.25 23.35 6.45 23.5 5.85 23.5 5.2 23.5 4.55 23.5 3.95 23.45 3.25 23.5 2.85 23.5 Q2.85 23.55 2.85 23.6 2.85 23.65 2.85 23.7 2.8 23.7 2.8 23.75 2.85 23.75 2.85 23.75 2.85 23.75 2.85 23.75 L3.5 23.75 4.2 23.7 4.8 23.75 5.45 23.75 6.05 23.75 6.7 23.75 7.45 23.6 7.75 23.75 8.65 23.75 9.1 23.5 9.9 23.75 10.45 23.8 10.95 23.55 11.1 23.75 12.3 23.75 13.0 23.65 14.1 23.75 14.4 23.75 15.4 23.75 15.5 23.3 16.35 23.75 20.15 23.75 20.75 23.2 20.7 22.75" fill="#ffffff" fill-rule="evenodd" stroke="none"/>
      <path d="M2.6 2.2 L5.95 2.2 6.2 2.65 6.5 2.4 7.75 2.2 13.5 2.2 13.7 2.7 14.15 2.2 15.45 2.2 16.65 2.2 17.15 2.65 17.35 2.2 18.0 2.2 23.15 2.2 Q23.35 2.2 23.4 2.25 23.45 2.25 23.5 2.35 23.5 2.4 23.5 2.55 23.5 2.55 23.5 2.6 L23.5 4.05 22.85 3.8 23.5 4.5 23.5 5.25 22.95 5.25 23.5 6.45 23.5 7.1 23.3 8.15 23.5 7.8 23.5 9.55 22.85 9.85 23.5 10.3 23.5 22.5 23.5 23.15 Q23.5 23.4 23.5 23.4 23.45 23.5 23.4 23.5 23.35 23.5 23.15 23.5 L22.5 23.5 21.85 23.5 20.75 23.5 20.7 22.75 19.95 23.5 16.1 23.5 15.25 23.05 15.2 23.5 14.15 23.5 13.9 23.5 12.75 23.4 12.05 23.5 10.85 23.5 10.7 23.3 10.2 23.55 9.7 23.5 8.85 23.25 8.4 23.5 7.5 23.5 7.25 23.35 6.45 23.5 5.85 23.5 5.2 23.5 4.55 23.5 3.95 23.45 3.25 23.5 2.6 23.5 Q2.6 23.5 2.6 23.5 2.6 23.5 2.6 23.5 2.4 23.5 2.35 23.5 2.3 23.5 2.25 23.45 2.25 23.4 2.25 23.2 2.25 23.2 2.25 23.2 2.25 23.2 2.25 23.2 2.25 23.15 2.25 23.15 L2.25 17.7 3.05 17.5 2.25 16.75 2.25 16.1 2.25 15.45 2.25 14.45 2.65 14.15 2.25 13.9 2.25 10.65 2.65 10.45 2.25 9.9 2.25 9.0 2.25 8.35 2.25 7.7 2.75 7.2 2.25 6.85 2.25 2.6 Q2.25 2.55 2.25 2.55 2.25 2.4 2.25 2.35 2.3 2.25 2.35 2.25 2.4 2.2 2.55 2.2 2.55 2.2 2.6 2.2 2.6 2.2 2.6 2.2 2.6 2.2 2.6 2.2 L2.6 2.2" fill="#000000" fill-rule="evenodd" stroke="none"/>
    </g>
    <g id="shape1" transform="matrix(1.0, 0.0, 0.0, 1.0, 0.0, 0.0)">
      <path d="M6.8 21.65 Q6.8 21.7 6.85 21.75 6.85 21.85 6.9 21.9 7.0 21.95 7.1 22.0 7.2 22.0 7.3 22.05 7.45 22.1 7.6 22.1 7.75 22.15 7.95 22.15 8.15 22.15 8.4 22.2 8.65 22.2 8.9 22.2 10.8 22.2 11.7 22.1 11.8 22.1 11.85 22.05 11.95 22.05 12.0 22.0 12.1 21.95 12.15 21.95 12.2 21.9 12.25 21.9 12.3 21.85 12.3 21.8 12.35 21.8 12.35 21.75 12.4 21.7 12.4 21.7 12.4 21.65 12.4 21.6 12.4 21.55 12.4 21.5 12.4 21.45 12.35 21.4 12.35 21.35 12.3 21.35 12.25 21.3 12.25 21.25 12.2 21.2 12.15 21.2 12.05 21.15 12.0 21.1 11.95 21.05 11.85 21.05 11.8 21.0 11.7 20.95 L10.85 20.65 10.85 14.95 Q10.85 14.4 10.85 11.65 10.85 9.25 10.7 8.8 10.7 8.75 10.65 8.7 10.65 8.65 10.6 8.6 10.55 8.55 10.55 8.5 10.5 8.5 10.45 8.45 10.4 8.45 10.4 8.4 10.35 8.4 10.3 8.4 10.25 8.35 10.2 8.35 10.1 8.35 10.05 8.35 10.0 8.35 9.95 8.35 9.9 8.35 9.85 8.35 9.75 8.4 9.7 8.4 9.65 8.4 9.6 8.45 9.55 8.45 9.55 8.5 9.5 8.55 9.45 8.55 9.4 8.6 9.35 8.65 9.3 8.7 9.25 8.75 9.2 8.8 9.15 8.85 9.1 8.9 9.05 8.95 9.0 9.0 8.95 9.0 8.9 9.05 8.8 9.05 8.75 9.1 8.65 9.1 8.55 9.15 8.45 9.15 8.4 9.15 8.3 9.15 8.15 9.2 8.05 9.2 7.95 9.2 7.85 9.2 7.75 9.2 7.65 9.2 7.55 9.2 7.5 9.2 7.4 9.2 7.3 9.25 7.25 9.25 7.2 9.25 7.1 9.3 7.05 9.3 7.0 9.3 6.95 9.35 6.9 9.35 6.85 9.4 6.8 9.45 6.75 9.45 6.7 9.5 6.7 9.5 6.65 9.55 6.6 9.55 6.6 9.6 6.6 9.6 6.55 9.65 6.55 9.7 6.55 9.7 6.5 9.75 6.5 9.75 6.5 9.8 6.5 9.8 6.5 9.85 6.5 9.85 6.5 9.9 6.5 9.9 6.55 9.9 6.55 9.95 6.55 9.95 6.55 10.0 6.6 10.0 6.6 10.05 6.6 10.05 6.65 10.1 6.65 10.1 6.7 10.15 6.7 10.2 6.75 10.2 6.75 10.25 6.8 10.3 6.85 10.3 6.85 10.35 6.9 10.35 6.95 10.4 7.0 10.4 7.05 10.45 7.1 10.45 7.15 10.45 7.2 10.45 7.25 10.5 7.3 10.5 7.35 10.5 7.4 10.5 7.45 10.5 7.5 10.5 7.55 10.5 7.6 10.5 7.65 10.5 7.7 10.55 7.75 10.55 7.8 10.55 7.85 10.6 7.9 10.6 7.95 10.65 8.0 10.65 8.05 10.7 8.05 10.7 8.1 10.75 8.15 10.8 8.15 10.85 8.2 10.9 8.2 10.95 8.25 11.0 8.25 11.05 8.3 11.1 8.3 11.15 8.3 11.25 8.35 11.3 8.35 11.35 8.35 11.45 8.4 11.55 8.4 11.6 8.4 11.7 8.4 11.8 8.4 11.9 8.45 12.0 8.45 12.1 8.5 13.65 8.5 14.15 8.5 14.3 8.5 15.4 8.45 16.2 8.45 16.8 8.45 17.3 8.45 18.1 8.4 18.75 8.4 19.0 8.35 19.8 8.35 19.85 8.35 19.9 8.3 20.4 8.25 20.55 8.25 20.55 8.25 20.6 8.2 20.65 8.2 20.7 8.15 20.7 8.15 20.7 8.1 20.7 8.05 20.75 8.05 20.75 8.0 20.8 7.6 20.9 7.55 20.9 7.5 20.9 7.45 20.95 7.4 20.95 7.4 20.95 7.35 20.95 7.3 21.0 7.25 21.0 7.25 21.05 7.2 21.05 7.15 21.1 7.15 21.1 7.1 21.15 7.1 21.15 7.05 21.2 7.0 21.25 6.95 21.3 6.95 21.3 6.9 21.35 6.9 21.4 6.85 21.4 6.85 21.45 6.8 21.5 6.8 21.5 6.8 21.55 6.8 21.55 6.8 21.6 6.8 21.65 6.8 21.65 6.8 21.7 L6.8 21.65" fill="#ffffff" fill-rule="evenodd" stroke="none"/>
      <path d="M17.3 11.5 Q17.4 12.85 17.5 13.35 17.5 13.4 17.55 13.45 17.55 13.5 17.55 13.55 17.6 13.6 17.6 13.6 17.6 13.65 17.65 13.7 17.65 13.7 17.7 13.75 17.7 13.75 17.75 13.75 17.75 13.8 17.75 13.8 17.8 13.8 17.85 13.8 17.85 13.8 17.9 13.8 17.9 13.8 17.95 13.75 17.95 13.75 17.95 13.75 18.0 13.7 18.0 13.7 18.0 13.65 18.05 13.65 18.05 13.6 18.1 13.55 18.1 13.5 18.1 13.5 18.1 13.45 18.15 13.4 18.25 12.8 18.4 11.4 18.4 11.2 18.45 11.0 18.45 10.8 18.5 10.6 18.5 10.4 18.55 10.2 18.55 10.0 18.6 9.8 18.65 9.6 18.7 9.35 18.75 9.15 18.8 8.95 18.85 8.75 18.9 8.5 18.95 8.3 19.0 8.05 19.05 7.85 19.1 7.65 19.15 7.45 19.2 7.25 19.25 7.05 19.3 6.9 19.35 6.7 19.35 6.55 19.4 6.4 19.4 6.25 19.45 6.1 19.45 6.0 19.45 5.85 19.45 5.75 19.5 5.65 19.5 5.55 19.5 5.45 19.5 5.35 19.5 5.25 19.45 5.2 19.45 5.1 19.4 5.0 19.4 4.9 19.35 4.85 19.35 4.75 19.3 4.7 19.25 4.6 19.2 4.55 19.2 4.5 19.15 4.4 19.1 4.35 19.05 4.3 19.0 4.25 18.9 4.2 18.85 4.15 18.8 4.1 18.7 4.05 18.65 4.0 18.55 3.95 18.5 3.95 18.4 3.9 18.35 3.9 18.25 3.85 18.2 3.85 18.1 3.85 18.05 3.8 17.95 3.8 17.85 3.8 17.75 3.8 17.7 3.8 17.6 3.8 17.55 3.85 17.45 3.85 17.4 3.85 17.3 3.9 17.25 3.9 17.2 3.95 17.1 4.0 17.05 4.0 17.0 4.05 16.95 4.1 16.9 4.15 16.8 4.2 16.75 4.25 16.7 4.3 16.65 4.4 16.65 4.45 16.6 4.5 16.55 4.6 16.55 4.65 16.5 4.75 16.5 4.85 16.45 4.95 16.45 5.0 16.4 5.1 16.4 5.2 16.4 5.3 16.4 5.4 16.4 5.5 16.4 5.65 16.4 5.75 16.4 5.9 16.4 6.0 16.4 6.1 16.45 6.25 16.45 6.4 16.45 6.5 16.5 6.65 16.5 6.8 16.55 6.95 16.55 7.1 16.6 7.25 16.65 7.4 16.7 7.55 16.7 7.7 16.75 7.9 16.8 8.05 16.85 8.25 16.9 8.45 16.95 8.6 17.0 8.8 17.05 9.05 17.05 9.25 17.1 9.45 17.15 9.7 17.15 9.95 17.2 10.2 17.2 10.45 17.25 10.7 17.25 10.95 17.3 11.25 17.3 11.5 L17.3 11.5 M17.0 15.95 Q16.9 16.0 16.85 16.1 16.8 16.15 16.75 16.2 16.65 16.3 16.6 16.35 16.55 16.4 16.55 16.45 16.5 16.55 16.45 16.6 16.45 16.65 16.4 16.7 16.4 16.75 16.4 16.8 16.4 16.85 16.4 16.9 16.4 16.95 16.4 17.0 16.4 17.05 16.4 17.1 16.45 17.15 16.45 17.2 16.5 17.25 16.5 17.35 16.55 17.4 16.6 17.45 16.65 17.5 16.7 17.55 16.75 17.6 16.8 17.65 16.85 17.7 16.9 17.8 16.95 17.85 17.05 17.9 17.1 17.95 17.15 18.0 17.25 18.05 17.3 18.05 17.35 18.1 17.4 18.15 17.5 18.15 17.55 18.15 17.6 18.2 17.7 18.2 17.75 18.2 17.85 18.25 17.9 18.25 17.95 18.25 18.0 18.25 18.1 18.25 18.15 18.25 18.2 18.2 18.25 18.2 18.35 18.2 18.4 18.15 18.45 18.15 18.5 18.1 18.55 18.05 18.6 18.0 18.7 18.0 18.75 17.95 18.8 17.9 18.85 17.85 18.9 17.8 18.95 17.75 19.0 17.65 19.05 17.6 19.05 17.55 19.1 17.5 19.1 17.4 19.15 17.35 19.2 17.3 19.2 17.2 19.2 17.15 19.25 17.1 19.25 17.0 19.25 16.95 19.25 16.85 19.25 16.8 19.25 16.7 19.25 16.65 19.25 16.55 19.25 16.5 19.25 16.4 19.2 16.35 19.2 16.3 19.15 16.25 19.15 16.15 19.1 16.1 19.05 16.05 19.0 16.0 18.95 15.95 18.9 15.9 18.85 15.85 18.8 15.8 18.75 15.75 18.7 15.7 18.6 15.65 18.55 15.6 18.5 15.6 18.45 15.55 18.4 15.5 18.35 15.5 18.25 15.45 18.2 15.45 18.15 15.45 18.1 15.4 18.05 15.4 18.0 15.4 17.95 15.4 17.9 15.4 17.85 15.4 17.8 15.4 17.75 15.4 17.75 15.4 17.7 15.4 17.65 15.45 17.6 15.45 17.55 15.5 17.5 15.55 17.45 15.55 17.35 15.6 17.3 15.65 17.25 15.7 17.2 15.75 17.1 15.8 17.05 15.9 17.0 15.95 L17.0 15.95" fill="#ffffff" fill-rule="evenodd" stroke="none"/>
    </g>
  </defs>
</svg>
