<?xml version="1.0" encoding="UTF-8" standalone="no"?>
<svg xmlns:ffdec="https://www.free-decompiler.com/flash" xmlns:xlink="http://www.w3.org/1999/xlink" ffdec:objectType="frame" height="26.55px" width="70.8px" xmlns="http://www.w3.org/2000/svg">
  <g transform="matrix(1.0, 0.0, 0.0, 1.0, 0.2, 0.4)">
    <use ffdec:characterId="1" height="26.0" transform="matrix(1.0, 0.0, 0.0, 1.0, 0.0, 0.0)" width="35.75" xlink:href="#shape0"/>
    <use ffdec:characterId="115" height="26.0" transform="matrix(1.0, 0.0, 0.0, 1.0, 0.0, 0.0)" width="35.75" xlink:href="#shape1"/>
    <use ffdec:characterId="115" height="26.0" transform="matrix(1.0, 0.0, 0.0, 1.0, 0.0, 0.0)" width="35.75" xlink:href="#shape1"/>
  </g>
  <defs>
    <g id="shape0" transform="matrix(1.0, 0.0, 0.0, 1.0, 0.0, 0.0)">
      <path d="M35.1 2.45 Q35.1 2.5 35.1 2.55 35.1 2.55 35.1 2.6 L35.1 4.05 34.45 3.8 35.1 4.5 35.1 5.25 34.55 5.25 35.1 6.45 35.1 7.1 34.9 8.15 35.1 7.8 35.1 9.55 34.45 9.85 34.8 10.05 35.35 9.8 35.35 8.05 35.15 8.4 35.35 7.35 35.35 6.7 34.8 5.5 35.35 5.5 35.35 4.75 34.7 4.05 35.35 4.3 35.35 2.85 Q35.35 2.85 35.35 2.8 35.35 2.7 35.35 2.65 35.35 2.55 35.3 2.55 35.3 2.5 35.25 2.5 35.2 2.5 35.1 2.45 L35.1 2.45 M35.1 10.4 L35.1 22.5 35.1 23.15 Q35.1 23.45 35.05 23.5 35.05 23.5 34.75 23.5 L34.1 23.5 33.45 23.5 32.6 23.5 32.6 23.75 33.7 23.75 34.35 23.75 35.0 23.75 Q35.25 23.75 35.3 23.75 35.35 23.7 35.35 23.4 L35.35 22.75 35.35 10.55 35.1 10.4 M32.3 22.75 L31.55 23.5 25.95 23.5 25.1 23.05 25.0 23.5 24.0 23.5 23.7 23.5 22.6 23.4 21.9 23.5 20.7 23.5 20.55 23.3 20.05 23.55 7.95 23.5 7.15 23.25 6.65 23.5 5.8 23.5 5.5 23.35 4.75 23.5 4.1 23.5 3.45 23.5 2.8 23.5 2.2 23.45 1.55 23.5 1.1 23.5 Q1.1 23.55 1.1 23.75 1.1 23.75 1.1 23.75 1.1 23.75 1.15 23.75 L1.75 23.75 2.45 23.7 3.05 23.75 3.7 23.75 4.35 23.75 5.0 23.75 5.75 23.6 6.05 23.75 6.9 23.75 18.95 23.75 19.75 23.75 20.3 23.8 20.8 23.55 20.9 23.75 22.15 23.75 22.85 23.65 23.95 23.75 24.25 23.75 25.25 23.75 25.35 23.3 26.15 23.75 31.8 23.75 32.35 23.2 32.3 22.75" fill="#ffffff" fill-rule="evenodd" stroke="none"/>
      <path d="M0.9 2.2 L4.25 2.2 4.5 2.65 4.8 2.4 6.0 2.2 13.45 2.2 13.6 2.7 14.05 2.2 15.35 2.2 26.5 2.2 27.0 2.65 27.2 2.2 27.85 2.2 34.75 2.2 Q34.95 2.2 35.0 2.25 35.1 2.25 35.1 2.35 35.1 2.4 35.1 2.55 35.1 2.55 35.1 2.6 L35.1 4.05 34.45 3.8 35.1 4.5 35.1 5.25 34.55 5.25 35.1 6.45 35.1 7.1 34.9 8.15 35.1 7.8 35.1 9.55 34.45 9.85 35.1 10.3 35.1 22.5 35.1 23.15 Q35.1 23.4 35.1 23.4 35.05 23.5 35.0 23.5 35.0 23.5 34.75 23.5 L34.1 23.5 33.45 23.5 32.35 23.5 32.3 22.75 31.55 23.5 25.95 23.5 25.1 23.05 25.0 23.5 24.0 23.5 23.7 23.5 22.6 23.4 21.9 23.5 20.7 23.5 20.55 23.3 20.05 23.55 7.95 23.5 7.15 23.25 6.65 23.5 5.8 23.5 5.5 23.35 4.75 23.5 4.1 23.5 3.45 23.5 2.8 23.5 2.2 23.45 1.55 23.5 0.9 23.5 Q0.9 23.5 0.9 23.5 0.85 23.5 0.85 23.5 0.65 23.5 0.6 23.5 0.55 23.5 0.55 23.45 0.55 23.4 0.55 23.2 0.55 23.2 0.55 23.2 0.55 23.2 0.55 23.2 0.55 23.15 0.55 23.15 L0.55 17.7 1.3 17.5 0.55 16.75 0.55 16.1 0.55 15.45 0.55 14.45 0.95 14.15 0.55 13.9 0.55 10.65 0.9 10.45 0.55 9.9 0.55 9.0 0.55 8.35 0.55 7.7 1.0 7.2 0.55 6.85 0.55 2.6 Q0.55 2.55 0.55 2.55 0.55 2.4 0.55 2.35 0.55 2.25 0.65 2.25 0.7 2.2 0.85 2.2 0.85 2.2 0.85 2.2 0.85 2.2 0.9 2.2 0.9 2.2 0.9 2.2 L0.9 2.2" fill="#000000" fill-rule="evenodd" stroke="none"/>
    </g>
    <g id="shape1" transform="matrix(1.0, 0.0, 0.0, 1.0, 0.0, 0.0)">
      <path d="M31.9 4.55 Q31.55 4.6 29.7 5.5 29.5 5.6 29.3 5.75 29.1 5.85 28.95 5.95 28.75 6.05 28.65 6.15 28.5 6.25 28.4 6.35 28.3 6.45 28.2 6.55 28.1 6.65 28.05 6.7 28.0 6.8 27.95 6.85 27.95 6.95 27.95 7.0 27.95 7.05 27.95 7.1 27.95 7.1 28.0 7.15 28.0 7.2 28.05 7.25 28.1 7.25 28.15 7.3 28.15 7.35 28.25 7.35 28.3 7.4 28.35 7.4 28.45 7.45 28.5 7.45 28.6 7.45 28.7 7.5 28.75 7.5 28.75 7.5 28.8 7.5 28.85 7.55 28.85 7.55 28.9 7.55 28.95 7.6 28.95 7.6 29.0 7.65 29.0 7.65 29.05 7.7 29.05 7.7 29.05 7.75 29.1 7.8 29.1 7.85 29.1 7.9 29.1 7.95 29.1 8.0 29.15 8.05 29.15 8.1 29.15 8.2 29.15 8.25 29.2 8.35 29.2 8.45 29.2 8.5 29.2 8.6 29.2 8.7 29.2 8.8 29.2 8.95 29.2 9.05 29.2 9.2 29.2 9.3 29.2 9.45 29.2 9.55 29.25 9.65 29.25 9.8 29.25 9.9 29.25 10.0 29.25 10.1 29.25 10.2 29.25 10.3 29.25 10.4 29.25 10.45 29.25 10.55 29.25 10.6 29.25 10.7 29.25 10.7 29.25 10.8 29.25 10.85 29.25 10.9 29.25 11.0 29.25 11.05 29.25 11.1 29.25 11.1 29.25 11.15 29.25 11.2 29.25 11.25 29.25 11.3 29.25 11.3 29.25 11.35 29.25 11.4 29.2 11.4 29.2 11.45 29.2 11.45 29.2 11.5 29.2 11.5 29.2 11.55 29.15 11.6 29.15 11.6 29.15 11.65 29.15 11.65 29.1 11.65 29.1 11.65 29.05 11.65 29.05 11.7 29.0 11.7 29.0 11.65 28.95 11.65 28.9 11.65 28.9 11.65 28.7 11.55 28.45 11.5 28.25 11.45 28.0 11.4 27.8 11.35 27.55 11.35 27.35 11.3 27.15 11.3 26.9 11.3 26.7 11.35 26.5 11.35 26.3 11.4 26.05 11.45 25.85 11.5 25.65 11.6 25.45 11.65 25.25 11.75 25.05 11.85 24.85 11.95 24.65 12.05 24.5 12.2 24.3 12.3 24.15 12.45 24.0 12.6 23.85 12.75 23.7 12.9 23.6 13.1 23.45 13.25 23.35 13.45 23.25 13.65 23.1 13.85 23.0 14.05 22.95 14.15 22.9 14.3 22.85 14.4 22.8 14.5 22.75 14.65 22.75 14.75 22.7 14.85 22.7 15.0 22.65 15.1 22.65 15.2 22.6 15.35 22.6 15.45 22.6 15.55 22.55 15.65 22.55 15.8 22.55 15.9 22.55 16.0 22.55 16.15 22.55 16.25 22.6 16.35 22.6 16.45 22.6 16.55 22.6 16.7 22.65 16.8 22.65 16.9 22.65 17.0 22.7 17.1 22.7 17.2 22.75 17.3 22.75 17.4 22.8 17.5 22.85 17.6 22.9 17.85 23.0 18.05 23.1 18.25 23.2 18.45 23.3 18.65 23.45 18.85 23.55 19.05 23.7 19.2 23.8 19.4 23.95 19.55 24.1 19.7 24.3 19.85 24.45 19.95 24.65 20.1 24.8 20.2 25.0 20.3 25.05 20.35 25.15 20.35 25.2 20.4 25.3 20.45 25.35 20.45 25.45 20.5 25.55 20.5 25.6 20.5 25.7 20.55 25.8 20.55 25.9 20.55 25.95 20.6 26.05 20.6 26.15 20.6 26.25 20.6 26.35 20.6 26.45 20.6 26.55 20.6 26.65 20.6 26.75 20.55 26.85 20.55 26.95 20.55 27.05 20.5 27.15 20.5 27.25 20.45 27.35 20.45 27.45 20.4 27.55 20.35 27.65 20.3 27.8 20.25 27.9 20.2 28.0 20.15 28.1 20.1 28.2 20.05 28.3 20.0 28.4 19.95 28.45 19.95 28.55 19.9 28.6 19.85 28.7 19.85 28.75 19.8 28.8 19.8 28.9 19.75 28.9 19.75 28.95 19.7 29.0 19.7 29.0 19.7 29.0 19.7 29.1 19.7 29.15 19.7 29.2 19.7 29.2 19.7 29.25 19.7 29.25 19.7 29.25 19.7 29.25 19.75 29.25 19.8 29.25 19.8 29.25 19.85 29.25 19.9 29.25 20.05 29.25 20.4 29.25 20.45 29.25 20.5 29.25 20.55 29.25 20.55 29.25 20.6 29.25 20.65 29.25 20.65 29.3 20.7 29.3 20.7 29.3 20.75 29.35 20.75 29.35 20.8 29.4 20.8 29.45 20.8 29.5 20.8 29.55 20.8 29.7 20.8 30.15 20.7 30.5 20.6 31.6 20.4 31.75 20.4 31.85 20.35 31.95 20.35 32.05 20.3 32.15 20.3 32.25 20.25 32.3 20.2 32.35 20.15 32.45 20.15 32.5 20.1 32.55 20.05 32.55 20.0 32.6 19.9 32.6 19.85 32.6 19.8 32.6 19.75 32.6 19.7 32.6 19.7 32.6 19.65 32.6 19.6 32.6 19.6 32.55 19.55 32.55 19.55 32.55 19.5 32.5 19.5 32.5 19.5 32.45 19.45 32.45 19.45 32.4 19.45 32.35 19.45 32.35 19.45 32.3 19.45 32.25 19.45 32.2 19.45 32.15 19.45 32.1 19.45 32.05 19.4 32.05 19.4 32.0 19.4 31.95 19.35 31.9 19.35 31.85 19.35 31.85 19.3 31.8 19.25 31.75 19.25 31.7 19.2 31.7 19.15 31.65 19.15 31.6 19.1 31.6 19.05 31.55 19.0 31.5 18.95 31.5 18.85 31.45 18.8 31.45 18.7 31.4 18.6 31.4 18.5 31.35 18.4 31.35 18.3 31.35 18.2 31.3 18.05 31.3 17.95 31.3 17.8 31.3 17.65 31.2 16.65 31.2 12.3 31.2 8.0 31.3 7.15 31.3 7.05 31.3 6.9 31.35 6.8 31.35 6.7 31.35 6.6 31.4 6.5 31.4 6.45 31.45 6.35 31.45 6.25 31.5 6.2 31.5 6.1 31.55 6.05 31.6 6.0 31.65 5.95 31.65 5.9 31.7 5.85 31.75 5.8 31.8 5.75 31.85 5.75 31.85 5.7 31.9 5.65 31.95 5.6 31.95 5.55 32.0 5.5 32.05 5.45 32.05 5.4 32.05 5.35 32.1 5.25 32.1 5.2 32.1 5.15 32.15 5.1 32.15 5.05 32.15 5.0 32.15 4.95 32.15 4.9 32.15 4.85 32.15 4.8 32.15 4.75 32.15 4.7 32.1 4.7 32.1 4.65 32.05 4.65 32.05 4.6 32.0 4.6 32.0 4.6 31.95 4.55 31.9 4.55 31.9 4.55 L31.9 4.55 M10.5 5.6 Q10.45 5.6 10.45 5.6 10.4 5.6 10.35 5.65 10.3 5.65 10.3 5.65 10.25 5.7 10.25 5.7 10.2 5.75 10.2 5.8 10.15 5.8 10.15 5.85 10.1 5.9 10.1 5.95 10.05 6.0 10.05 6.05 10.05 6.1 10.05 6.15 10.0 6.2 10.0 6.25 9.95 6.25 9.95 6.3 9.9 6.35 9.9 6.35 9.85 6.35 9.75 6.4 9.7 6.4 9.65 6.45 9.55 6.45 9.45 6.45 9.35 6.45 9.25 6.5 9.15 6.5 9.0 6.5 8.85 6.5 8.7 6.5 8.55 6.55 8.4 6.55 L5.95 6.6 Q4.2 6.6 3.65 6.7 3.6 6.7 3.55 6.75 3.45 6.75 3.4 6.75 3.35 6.8 3.35 6.8 3.3 6.85 3.25 6.85 3.2 6.85 3.2 6.9 3.15 6.95 3.15 6.95 3.15 7.0 3.15 7.05 3.15 7.05 3.15 7.1 3.15 7.15 3.15 7.2 3.15 7.2 3.2 7.25 3.2 7.3 3.25 7.35 3.25 7.4 3.3 7.4 3.35 7.45 3.4 7.5 3.45 7.55 3.55 7.55 3.6 7.6 3.7 7.65 3.75 7.7 3.85 7.75 L4.65 8.05 4.65 18.9 3.85 19.25 Q3.75 19.3 3.7 19.3 3.6 19.35 3.55 19.4 3.45 19.45 3.4 19.45 3.35 19.5 3.3 19.55 3.25 19.6 3.25 19.6 3.2 19.65 3.15 19.7 3.15 19.75 3.15 19.8 3.15 19.85 3.15 19.9 3.15 19.95 3.15 19.95 3.15 20.0 3.15 20.0 3.2 20.05 3.2 20.05 3.25 20.1 3.3 20.1 3.3 20.15 3.35 20.15 3.4 20.2 3.45 20.2 3.5 20.2 3.6 20.25 3.65 20.25 3.75 20.25 4.3 20.35 7.3 20.4 10.25 20.45 10.75 20.6 10.8 20.6 10.8 20.65 10.85 20.65 10.85 20.7 10.9 20.7 10.9 20.75 10.95 20.75 10.95 20.8 11.0 20.8 11.0 20.85 11.05 20.9 11.05 20.9 11.05 20.95 11.05 21.0 11.1 21.05 11.1 21.1 11.1 21.15 11.15 21.2 11.15 21.2 11.15 21.25 11.2 21.25 11.2 21.3 11.2 21.35 11.25 21.35 11.25 21.35 11.3 21.4 11.3 21.4 11.35 21.4 11.35 21.4 11.4 21.45 11.4 21.45 11.45 21.45 11.5 21.45 11.6 21.4 11.65 21.4 11.7 21.3 11.8 21.25 11.85 21.15 11.95 21.1 12.0 20.95 12.05 20.85 12.15 20.7 12.2 20.55 12.25 20.35 12.35 20.2 12.4 20.0 12.45 19.75 12.55 19.55 13.1 17.55 13.1 17.25 13.1 17.2 13.1 17.15 13.1 17.1 13.1 17.05 13.05 17.0 13.05 16.95 13.0 16.95 13.0 16.9 12.95 16.9 12.95 16.9 12.9 16.85 12.85 16.85 12.8 16.85 12.75 16.85 12.7 16.85 12.65 16.9 12.6 16.9 12.55 16.95 12.5 16.95 12.4 16.95 12.35 17.0 12.3 17.05 12.25 17.05 12.2 17.1 12.15 17.15 12.1 17.2 12.05 17.25 12.0 17.3 11.95 17.4 11.9 17.45 11.85 17.5 11.8 17.6 11.7 17.75 11.6 17.9 11.5 18.05 11.4 18.15 11.3 18.3 11.2 18.4 11.05 18.5 10.95 18.6 10.8 18.7 10.65 18.8 10.5 18.85 10.35 18.95 10.2 19.0 10.05 19.05 9.9 19.1 9.7 19.15 9.65 19.15 9.6 19.2 9.55 19.2 9.5 19.2 9.45 19.2 9.4 19.2 9.35 19.2 9.3 19.25 9.25 19.25 9.2 19.25 9.15 19.25 9.1 19.25 9.05 19.25 9.05 19.25 9.0 19.25 8.95 19.25 8.85 19.25 8.75 19.25 8.6 19.25 8.5 19.2 8.4 19.2 8.3 19.15 8.2 19.15 8.1 19.1 8.05 19.05 7.95 19.0 7.85 18.95 7.8 18.9 7.7 18.85 7.6 18.8 7.55 18.75 7.45 18.65 7.4 18.6 7.35 18.55 7.3 18.5 7.3 18.45 7.25 18.4 7.2 18.35 7.15 18.3 7.15 18.25 7.1 18.2 7.1 18.15 7.05 18.1 7.05 18.05 7.0 18.0 7.0 17.95 7.0 17.85 6.95 17.8 6.85 17.35 6.85 15.75 L6.85 13.5 7.85 13.5 Q7.95 13.5 8.05 13.5 8.15 13.5 8.3 13.5 8.4 13.55 8.5 13.55 8.6 13.55 8.7 13.6 8.8 13.6 8.9 13.65 9.0 13.65 9.1 13.7 9.2 13.7 9.25 13.75 9.35 13.8 9.45 13.85 9.55 13.9 9.6 13.95 9.7 14.0 9.8 14.05 9.85 14.05 9.9 14.1 10.0 14.15 10.05 14.2 10.1 14.3 10.15 14.35 10.2 14.4 10.2 14.45 10.25 14.5 10.3 14.55 10.3 14.6 10.35 14.65 10.35 14.7 10.4 14.75 10.4 14.8 10.45 14.85 10.45 14.9 10.5 14.95 10.55 15.0 10.6 15.05 10.6 15.05 10.65 15.1 10.7 15.1 10.75 15.15 10.8 15.15 10.85 15.15 10.9 15.15 10.95 15.15 11.0 15.15 11.05 15.15 11.1 15.15 11.15 15.15 11.2 15.15 11.25 15.1 11.3 15.1 11.35 15.1 11.35 15.05 11.4 15.0 11.4 15.0 11.4 14.95 11.45 14.9 11.45 14.85 11.45 14.8 11.45 14.75 11.45 14.4 10.9 12.65 10.85 12.45 10.75 12.25 10.7 12.05 10.65 11.9 10.55 11.75 10.5 11.6 10.45 11.5 10.4 11.4 10.3 11.3 10.25 11.2 10.2 11.15 10.15 11.1 10.05 11.0 10.0 11.0 9.95 10.95 9.9 10.95 9.85 10.95 9.8 10.95 9.7 11.0 9.65 11.0 9.6 11.0 9.6 11.05 9.55 11.1 9.5 11.1 9.45 11.15 9.4 11.2 9.4 11.25 9.35 11.3 9.35 11.35 9.3 11.45 9.3 11.5 9.25 11.55 9.25 11.6 9.25 11.65 9.2 11.7 9.2 11.75 9.2 11.8 9.15 11.8 9.15 11.85 9.15 11.9 9.1 11.95 9.1 11.95 9.1 12.0 9.05 12.0 9.05 12.05 9.0 12.05 9.0 12.05 8.95 12.1 8.9 12.1 8.9 12.1 8.85 12.15 8.8 12.15 8.75 12.15 8.7 12.15 8.65 12.15 8.6 12.2 8.55 12.2 8.5 12.2 8.4 12.2 8.35 12.2 8.25 12.25 8.2 12.25 8.1 12.25 8.0 12.25 L6.85 12.3 6.85 7.75 7.95 7.75 Q8.1 7.75 8.2 7.75 8.35 7.75 8.45 7.75 8.55 7.75 8.65 7.8 8.75 7.8 8.85 7.8 8.95 7.8 9.05 7.85 9.15 7.85 9.25 7.9 9.35 7.9 9.4 7.95 9.5 8.0 9.55 8.0 9.6 8.05 9.7 8.1 9.75 8.1 9.85 8.15 9.9 8.2 10.0 8.3 10.1 8.35 10.15 8.4 10.25 8.45 10.3 8.55 10.4 8.6 10.45 8.7 10.55 8.8 10.65 8.85 10.7 8.95 10.8 9.05 10.9 9.15 10.95 9.25 11.05 9.3 11.1 9.4 11.2 9.45 11.25 9.5 11.3 9.6 11.4 9.65 11.45 9.65 11.5 9.7 11.55 9.75 11.6 9.75 11.65 9.8 11.7 9.8 11.75 9.8 11.75 9.8 11.8 9.8 11.8 9.8 11.85 9.8 11.9 9.8 11.9 9.75 11.95 9.75 11.95 9.7 12.0 9.7 12.0 9.65 12.0 9.6 12.05 9.6 12.05 9.55 12.05 9.5 12.05 9.4 12.05 9.35 12.05 9.3 12.05 8.8 11.6 7.25 11.55 7.05 11.45 6.9 11.4 6.7 11.35 6.55 11.25 6.4 11.2 6.3 11.15 6.15 11.1 6.05 11.05 5.95 10.95 5.9 10.9 5.8 10.85 5.75 10.8 5.7 10.75 5.65 10.65 5.65 10.6 5.6 L10.5 5.6 M15.65 11.05 Q15.6 11.05 15.6 11.05 15.55 11.1 15.5 11.1 15.5 11.1 15.45 11.15 15.4 11.15 15.4 11.2 15.3 11.3 14.1 11.5 13.95 11.5 13.8 11.55 13.7 11.55 13.6 11.6 13.45 11.65 13.35 11.65 13.3 11.7 13.2 11.7 13.15 11.75 13.1 11.8 13.0 11.8 13.0 11.85 12.95 11.9 12.95 11.95 12.9 12.0 12.9 12.05 12.9 12.1 12.9 12.1 12.95 12.15 12.95 12.15 12.95 12.2 13.0 12.25 13.0 12.25 13.05 12.3 13.1 12.35 13.15 12.35 13.2 12.4 13.25 12.45 13.3 12.45 13.35 12.5 13.4 12.55 13.5 12.6 13.55 12.6 13.6 12.65 13.6 12.65 13.65 12.7 13.7 12.7 13.7 12.75 13.75 12.75 13.75 12.75 13.8 12.8 13.8 12.8 13.85 12.85 13.85 12.85 13.85 12.9 13.9 12.9 13.9 12.95 13.9 12.95 13.9 13.0 13.95 13.0 13.95 13.05 14.0 13.1 14.0 13.1 14.0 13.15 14.0 13.2 14.05 13.3 14.05 13.35 14.05 13.4 14.15 13.8 14.15 15.9 L14.25 18.95 13.5 19.35 Q13.4 19.4 13.35 19.45 13.25 19.45 13.2 19.5 13.15 19.55 13.1 19.6 13.05 19.6 13.0 19.65 12.95 19.7 12.9 19.7 12.9 19.75 12.85 19.8 12.85 19.8 12.85 19.85 12.8 19.85 12.8 19.9 12.8 19.95 12.85 20.05 12.9 20.1 13.05 20.15 13.15 20.2 13.3 20.25 13.5 20.25 13.7 20.3 13.9 20.35 14.2 20.35 14.45 20.4 14.8 20.4 15.1 20.4 15.5 20.4 15.9 20.45 16.3 20.45 16.45 20.45 16.5 20.45 16.65 20.45 16.7 20.45 16.8 20.45 16.9 20.4 16.95 20.4 17.05 20.4 17.1 20.4 17.15 20.4 17.2 20.4 17.25 20.35 17.3 20.35 17.35 20.35 17.4 20.35 17.4 20.3 17.45 20.3 17.45 20.25 17.5 20.25 17.5 20.2 17.55 20.2 17.55 20.15 17.55 20.1 17.55 20.05 17.55 20.0 17.55 19.95 17.55 19.9 17.55 19.85 17.55 19.8 17.55 19.75 17.5 19.7 17.5 19.7 17.45 19.65 17.4 19.6 17.4 19.55 17.35 19.55 17.3 19.5 17.25 19.5 17.2 19.45 17.15 19.45 17.05 19.4 17.0 19.4 16.95 19.4 16.85 19.35 16.8 19.35 16.75 19.3 16.7 19.25 16.65 19.2 16.6 19.15 16.55 19.1 16.5 19.05 16.45 19.0 16.4 18.95 16.35 18.85 16.3 18.8 16.3 18.7 16.25 18.6 16.25 18.55 16.15 18.2 16.15 16.5 16.15 16.3 16.15 16.1 16.15 15.95 16.15 15.75 16.15 15.6 16.2 15.4 16.2 15.25 16.2 15.1 16.25 14.95 16.25 14.8 16.3 14.65 16.3 14.55 16.35 14.4 16.4 14.3 16.45 14.15 16.45 14.05 16.5 13.9 16.6 13.75 16.7 13.6 16.8 13.5 16.85 13.35 17.0 13.25 17.1 13.15 17.2 13.05 17.3 13.0 17.45 12.95 17.55 12.85 17.7 12.85 17.85 12.8 18.0 12.75 18.15 12.75 18.3 12.75 18.35 12.75 18.4 12.75 18.45 12.75 18.5 12.75 18.55 12.8 18.65 12.8 18.7 12.8 18.75 12.85 18.8 12.85 18.85 12.9 18.9 12.95 18.95 12.95 19.05 13.0 19.1 13.05 19.15 13.1 19.2 13.15 19.25 13.2 19.3 13.25 19.35 13.3 19.4 13.4 19.45 13.45 19.5 13.55 19.55 13.6 19.6 13.7 19.65 13.8 19.65 13.9 19.7 14.0 19.75 14.1 19.75 14.2 19.8 14.35 19.8 14.45 19.85 14.6 19.95 16.0 19.95 16.35 19.95 16.45 19.95 16.55 19.95 16.65 19.95 16.75 19.95 16.85 19.95 16.95 19.95 17.05 19.95 17.15 19.9 17.25 19.9 17.35 19.9 17.45 19.9 17.55 19.9 17.65 19.9 17.75 19.85 17.85 19.85 17.95 19.8 18.35 19.75 18.6 19.7 18.9 19.65 19.0 19.65 19.05 19.6 19.05 19.6 19.1 19.55 19.15 19.55 19.15 19.5 19.2 19.45 19.2 19.45 19.25 19.4 19.25 19.35 19.3 19.35 19.3 19.3 19.35 19.25 19.35 19.2 19.35 19.15 19.4 19.1 19.4 19.05 19.4 18.95 19.45 18.9 19.45 18.85 19.45 18.8 19.5 18.75 19.55 18.7 19.55 18.7 19.6 18.65 19.65 18.6 19.65 18.6 19.7 18.55 19.75 18.55 19.8 18.55 19.85 18.55 19.9 18.55 19.95 18.55 20.0 18.55 20.05 18.55 20.1 18.55 20.1 18.55 20.15 18.55 20.2 18.6 20.2 18.6 20.25 18.6 20.25 18.65 20.3 18.65 20.3 18.65 20.3 18.7 20.3 18.75 20.35 18.8 20.45 19.75 20.45 20.2 20.45 20.6 20.45 21.0 20.4 21.3 20.4 21.65 20.4 21.9 20.35 22.2 20.35 22.4 20.3 22.65 20.25 22.8 20.25 23.0 20.2 23.1 20.15 23.2 20.1 23.25 20.05 23.3 19.95 23.3 19.9 23.3 19.85 23.3 19.85 23.3 19.8 23.25 19.8 23.25 19.75 23.2 19.7 23.2 19.7 23.15 19.65 23.1 19.6 23.05 19.6 23.0 19.55 22.95 19.5 22.9 19.45 22.8 19.45 22.75 19.4 22.65 19.35 L21.9 18.95 21.9 16.0 Q21.9 15.75 21.9 15.5 21.9 15.25 21.85 15.05 21.85 14.85 21.85 14.65 21.8 14.45 21.8 14.25 21.8 14.05 21.75 13.9 21.75 13.75 21.7 13.6 21.7 13.45 21.65 13.3 21.6 13.15 21.6 13.05 21.55 12.85 21.45 12.65 21.35 12.45 21.2 12.3 21.1 12.15 20.95 12.0 20.8 11.9 20.6 11.8 20.45 11.7 20.25 11.6 20.05 11.5 19.8 11.45 19.6 11.4 19.35 11.4 19.1 11.35 18.8 11.35 18.65 11.35 18.55 11.35 18.4 11.35 18.3 11.4 18.2 11.4 18.05 11.45 17.95 11.45 17.8 11.5 17.7 11.55 17.6 11.6 17.5 11.65 17.35 11.7 17.25 11.75 17.15 11.85 17.05 11.9 16.9 12.0 L16.25 12.45 16.25 11.85 Q16.25 11.8 16.25 11.75 16.25 11.7 16.25 11.65 16.25 11.6 16.2 11.55 16.2 11.5 16.2 11.45 16.2 11.4 16.15 11.4 16.15 11.35 16.15 11.35 16.1 11.3 16.1 11.3 16.05 11.25 16.05 11.25 16.0 11.2 15.95 11.2 15.9 11.15 15.9 11.15 15.85 11.1 15.8 11.1 15.8 11.1 15.75 11.1 15.75 11.1 15.7 11.05 15.7 11.05 15.65 11.05 15.65 11.05 15.6 11.05 L15.65 11.05 M27.4 12.35 Q27.45 12.35 27.55 12.35 27.6 12.35 27.7 12.4 27.75 12.4 27.85 12.45 27.95 12.45 28.0 12.5 28.1 12.5 28.2 12.55 28.3 12.6 28.4 12.65 28.45 12.7 28.55 12.75 28.65 12.8 28.75 12.85 28.8 12.9 28.85 12.9 28.9 12.95 28.9 13.0 28.95 13.05 29.0 13.05 29.0 13.1 29.05 13.15 29.1 13.2 29.1 13.2 29.15 13.25 29.15 13.3 29.15 13.35 29.2 13.4 29.2 13.45 29.2 13.5 29.3 13.8 29.3 15.45 29.3 15.65 29.3 15.85 29.3 16.05 29.3 16.2 29.25 16.4 29.25 16.55 29.25 16.7 29.25 16.85 29.2 17.0 29.2 17.15 29.2 17.25 29.15 17.4 29.15 17.5 29.1 17.6 29.1 17.7 29.05 17.8 29.0 17.9 29.0 17.95 28.95 18.05 28.9 18.1 28.85 18.2 28.8 18.25 28.75 18.3 28.7 18.4 28.65 18.45 28.6 18.5 28.5 18.55 28.45 18.6 28.4 18.7 28.3 18.75 28.2 18.8 28.15 18.8 27.4 19.15 27.3 19.15 L27.05 19.15 Q26.95 19.15 26.45 18.95 26.3 18.9 26.15 18.8 26.0 18.75 25.9 18.65 25.75 18.55 25.65 18.45 25.55 18.35 25.45 18.25 25.3 18.1 25.25 17.95 25.15 17.8 25.05 17.65 24.95 17.5 24.9 17.35 24.85 17.15 24.8 16.95 24.75 16.85 24.75 16.8 24.75 16.7 24.7 16.65 24.7 16.55 24.65 16.45 24.65 16.4 24.65 16.3 24.6 16.2 24.6 16.15 24.6 16.05 24.6 15.95 24.6 15.85 24.6 15.8 24.6 15.7 24.6 15.6 24.6 15.5 24.6 15.4 24.6 15.35 24.6 15.25 24.6 15.15 24.65 15.05 24.65 14.95 24.7 14.85 24.7 14.75 24.75 14.65 24.75 14.55 24.8 14.45 24.8 14.35 24.85 14.25 24.9 14.15 24.95 14.05 25.05 13.85 25.15 13.65 25.25 13.5 25.4 13.3 25.5 13.15 25.65 13.05 25.8 12.9 25.95 12.8 26.1 12.7 26.25 12.6 26.45 12.5 26.6 12.45 26.8 12.4 27.0 12.4 27.2 12.35 27.4 12.35 L27.4 12.35" fill="#ffffff" fill-rule="evenodd" stroke="none"/>
    </g>
  </defs>
</svg>
