<?xml version="1.0" encoding="UTF-8" standalone="no"?>
<svg xmlns:ffdec="https://www.free-decompiler.com/flash" xmlns:xlink="http://www.w3.org/1999/xlink" ffdec:objectType="frame" height="26.55px" width="70.8px" xmlns="http://www.w3.org/2000/svg">
  <g transform="matrix(1.0, 0.0, 0.0, 1.0, 0.2, 0.4)">
    <use ffdec:characterId="3" height="26.0" transform="matrix(1.0, 0.0, 0.0, 1.0, 0.0, 0.0)" width="26.0" xlink:href="#shape0"/>
    <use ffdec:characterId="35" height="26.0" transform="matrix(1.0, 0.0, 0.0, 1.0, 0.0, 0.0)" width="26.0" xlink:href="#shape1"/>
    <use ffdec:characterId="35" height="26.0" transform="matrix(1.0, 0.0, 0.0, 1.0, 0.0, 0.0)" width="26.0" xlink:href="#shape1"/>
  </g>
  <defs>
    <g id="shape0" transform="matrix(1.0, 0.0, 0.0, 1.0, 0.0, 0.0)">
      <path d="M23.5 2.45 Q23.5 2.5 23.5 2.5 23.5 2.55 23.5 2.55 23.5 2.55 23.5 2.55 23.5 2.6 23.5 2.6 L23.5 4.05 22.85 3.8 23.5 4.5 23.5 5.25 22.95 5.25 23.5 6.45 23.5 7.1 23.3 8.15 23.5 7.8 23.5 9.55 22.85 9.85 23.15 10.05 23.75 9.8 23.75 8.05 23.5 8.4 23.75 7.35 23.75 6.7 23.2 5.5 23.75 5.5 23.75 4.75 23.1 4.05 23.75 4.3 23.75 2.85 Q23.75 2.8 23.75 2.8 23.75 2.7 23.75 2.65 23.75 2.55 23.7 2.55 23.7 2.5 23.65 2.5 23.6 2.5 23.5 2.45 L23.5 2.45 M23.5 10.4 L23.5 22.5 23.5 23.15 Q23.5 23.4 23.5 23.4 23.45 23.5 23.4 23.5 23.35 23.5 23.15 23.5 L22.5 23.5 21.85 23.5 20.95 23.5 21.0 23.75 22.1 23.75 22.75 23.75 23.4 23.75 Q23.65 23.75 23.7 23.75 23.75 23.7 23.75 23.4 L23.75 22.75 23.75 10.55 23.5 10.4 M20.7 22.75 L19.95 23.5 16.1 23.5 15.25 23.05 15.2 23.5 14.15 23.5 13.9 23.5 12.75 23.4 12.05 23.5 10.85 23.5 10.7 23.3 10.2 23.55 9.7 23.5 8.85 23.25 8.4 23.5 7.5 23.5 7.25 23.35 6.45 23.5 5.85 23.5 5.2 23.5 4.55 23.5 3.95 23.45 3.25 23.5 2.85 23.5 Q2.85 23.55 2.85 23.6 2.85 23.65 2.85 23.7 2.8 23.7 2.8 23.75 2.85 23.75 2.85 23.75 2.85 23.75 2.85 23.75 L3.5 23.75 4.2 23.7 4.8 23.75 5.45 23.75 6.05 23.75 6.7 23.75 7.45 23.6 7.75 23.75 8.65 23.75 9.1 23.5 9.9 23.75 10.45 23.8 10.95 23.55 11.1 23.75 12.3 23.75 13.0 23.65 14.1 23.75 14.4 23.75 15.4 23.75 15.5 23.3 16.35 23.75 20.15 23.75 20.75 23.2 20.7 22.75" fill="#ffffff" fill-rule="evenodd" stroke="none"/>
      <path d="M2.6 2.2 L5.95 2.2 6.2 2.65 6.5 2.4 7.75 2.2 13.5 2.2 13.7 2.7 14.15 2.2 15.45 2.2 16.65 2.2 17.15 2.65 17.35 2.2 18.0 2.2 23.15 2.2 Q23.35 2.2 23.4 2.25 23.45 2.25 23.5 2.35 23.5 2.4 23.5 2.55 23.5 2.55 23.5 2.6 L23.5 4.05 22.85 3.8 23.5 4.5 23.5 5.25 22.95 5.25 23.5 6.45 23.5 7.1 23.3 8.15 23.5 7.8 23.5 9.55 22.85 9.85 23.5 10.3 23.5 22.5 23.5 23.15 Q23.5 23.4 23.5 23.4 23.45 23.5 23.4 23.5 23.35 23.5 23.15 23.5 L22.5 23.5 21.85 23.5 20.75 23.5 20.7 22.75 19.95 23.5 16.1 23.5 15.25 23.05 15.2 23.5 14.15 23.5 13.9 23.5 12.75 23.4 12.05 23.5 10.85 23.5 10.7 23.3 10.2 23.55 9.7 23.5 8.85 23.25 8.4 23.5 7.5 23.5 7.25 23.35 6.45 23.5 5.85 23.5 5.2 23.5 4.55 23.5 3.95 23.45 3.25 23.5 2.6 23.5 Q2.6 23.5 2.6 23.5 2.6 23.5 2.6 23.5 2.4 23.5 2.35 23.5 2.3 23.5 2.25 23.45 2.25 23.4 2.25 23.2 2.25 23.2 2.25 23.2 2.25 23.2 2.25 23.2 2.25 23.15 2.25 23.15 L2.25 17.7 3.05 17.5 2.25 16.75 2.25 16.1 2.25 15.45 2.25 14.45 2.65 14.15 2.25 13.9 2.25 10.65 2.65 10.45 2.25 9.9 2.25 9.0 2.25 8.35 2.25 7.7 2.75 7.2 2.25 6.85 2.25 2.6 Q2.25 2.55 2.25 2.55 2.25 2.4 2.25 2.35 2.3 2.25 2.35 2.25 2.4 2.2 2.55 2.2 2.55 2.2 2.6 2.2 2.6 2.2 2.6 2.2 2.6 2.2 2.6 2.2 L2.6 2.2" fill="#000000" fill-rule="evenodd" stroke="none"/>
    </g>
    <g id="shape1" transform="matrix(1.0, 0.0, 0.0, 1.0, 0.0, 0.0)">
      <path d="M8.95 9.1 Q9.0 9.1 9.05 9.1 9.1 9.1 9.15 9.1 9.2 9.1 9.25 9.15 9.3 9.15 9.35 9.15 9.4 9.15 9.4 9.15 9.45 9.2 9.55 9.25 9.65 9.35 9.8 9.45 9.9 9.6 10.05 9.75 10.25 9.95 10.45 10.2 10.55 10.3 10.65 10.4 10.7 10.55 10.8 10.65 10.9 10.8 11.0 10.9 11.1 11.05 11.15 11.2 11.25 11.3 11.35 11.45 11.45 11.6 11.55 11.8 11.6 11.95 11.7 12.1 11.8 12.25 11.85 12.45 11.95 12.6 12.0 12.8 12.1 12.95 12.15 13.1 12.25 13.25 12.3 13.4 12.35 13.5 12.4 13.65 12.45 13.75 12.5 13.9 12.55 14.0 12.55 14.1 12.6 14.2 12.65 14.3 12.65 14.4 12.65 14.45 12.8 15.05 12.8 16.85 12.8 17.1 12.8 17.3 12.8 17.5 12.8 17.65 12.75 17.85 12.75 18.0 12.75 18.15 12.75 18.3 12.75 18.45 12.7 18.55 12.7 18.65 12.7 18.75 12.65 18.8 12.65 18.85 12.6 18.95 12.6 18.95 12.6 19.0 12.55 19.0 12.5 19.05 12.5 19.1 12.45 19.15 12.4 19.15 12.35 19.2 12.3 19.2 12.25 19.25 12.2 19.25 12.15 19.3 12.1 19.3 12.0 19.35 11.95 19.35 11.9 19.4 11.8 19.4 11.7 19.4 11.65 19.45 11.6 19.45 11.55 19.5 11.45 19.5 11.4 19.55 11.35 19.55 11.35 19.6 11.3 19.65 11.25 19.65 11.25 19.7 11.2 19.75 11.2 19.75 11.2 19.8 11.2 19.85 11.2 19.9 L11.2 20.0 Q11.2 20.05 11.2 20.05 11.2 20.1 11.25 20.1 11.25 20.15 11.3 20.15 11.3 20.2 11.35 20.2 11.35 20.2 11.4 20.25 11.45 20.25 11.5 20.25 11.55 20.3 11.6 20.3 11.65 20.3 11.7 20.3 12.15 20.4 13.95 20.4 15.8 20.35 16.15 20.3 16.2 20.3 16.25 20.3 16.3 20.25 16.35 20.25 16.4 20.25 16.45 20.2 16.5 20.2 16.5 20.15 16.55 20.15 16.6 20.1 16.6 20.1 16.6 20.05 16.65 20.05 16.65 20.0 16.65 19.95 16.65 19.9 16.65 19.85 16.65 19.85 16.65 19.8 16.6 19.75 16.6 19.75 16.55 19.7 16.55 19.65 16.5 19.65 16.45 19.6 16.4 19.55 16.35 19.55 16.3 19.5 16.25 19.5 16.2 19.45 16.1 19.45 16.05 19.4 15.95 19.4 15.9 19.35 15.85 19.35 15.75 19.3 15.7 19.25 15.65 19.25 15.6 19.2 15.55 19.15 15.5 19.1 15.45 19.05 15.4 19.0 15.35 18.95 15.3 18.9 15.3 18.8 15.25 18.75 15.25 18.7 15.2 18.6 15.2 18.5 15.2 18.45 15.15 18.3 15.15 18.2 15.1 18.05 15.1 17.95 15.1 17.8 15.1 17.65 15.05 17.5 15.05 17.35 15.05 17.15 15.05 16.95 15.05 16.8 15.05 16.6 15.05 16.35 L15.05 14.35 16.8 11.05 Q16.95 10.85 18.65 7.5 18.65 7.45 18.7 7.4 18.7 7.35 18.7 7.3 18.7 7.25 18.7 7.2 18.7 7.15 18.7 7.1 18.7 7.05 18.7 7.0 18.7 7.0 18.7 6.95 18.7 6.9 18.7 6.85 18.7 6.8 18.65 6.8 18.65 6.75 18.6 6.75 18.55 6.75 18.5 6.7 18.45 6.7 18.4 6.65 18.3 6.65 18.25 6.65 18.15 6.65 18.05 6.6 17.95 6.6 17.85 6.6 17.75 6.6 17.65 6.6 16.7 6.6 16.45 6.55 16.4 6.55 16.35 6.5 16.35 6.5 16.3 6.45 16.25 6.45 16.25 6.4 16.2 6.4 16.2 6.35 16.15 6.3 16.15 6.3 16.1 6.25 16.1 6.2 16.05 6.15 16.05 6.1 16.0 6.1 16.0 6.05 16.0 6.0 15.95 5.95 15.95 5.9 15.95 5.85 15.9 5.8 15.9 5.8 15.85 5.75 15.85 5.75 15.8 5.7 15.8 5.7 15.75 5.65 15.75 5.65 15.7 5.65 15.65 5.65 15.65 5.6 15.6 5.6 15.55 5.6 15.45 5.6 15.4 5.65 15.35 5.7 15.25 5.7 15.2 5.75 15.15 5.8 15.1 5.9 15.05 5.95 14.95 6.05 14.9 6.15 14.85 6.25 14.8 6.35 14.75 6.45 14.7 6.6 14.65 6.7 14.25 7.85 14.25 8.1 14.3 8.35 14.3 8.4 14.3 8.45 14.35 8.5 14.4 8.5 14.4 8.55 14.45 8.6 14.55 8.6 14.6 8.65 14.65 8.65 14.75 8.7 14.8 8.7 14.9 8.75 15.0 8.75 15.1 8.75 15.2 8.8 15.3 8.8 15.45 8.8 15.5 8.8 15.55 8.8 15.6 8.85 15.65 8.85 15.7 8.85 15.75 8.85 15.8 8.9 15.8 8.9 15.85 8.95 15.85 8.95 15.9 9.0 15.9 9.0 15.9 9.05 15.9 9.1 15.95 9.15 15.95 9.15 15.9 9.5 15.25 10.9 15.15 11.1 15.1 11.25 15.0 11.4 14.95 11.55 14.85 11.65 14.8 11.8 14.7 11.9 14.65 12.0 14.6 12.05 14.55 12.15 14.5 12.2 14.45 12.25 14.4 12.3 14.4 12.3 14.35 12.35 14.3 12.35 14.3 12.35 14.1 11.9 13.8 11.3 13.45 10.6 13.35 10.4 13.25 10.2 13.15 9.95 13.0 9.75 12.9 9.55 12.8 9.4 12.65 9.2 12.55 9.0 12.4 8.8 12.25 8.65 12.15 8.45 12.0 8.3 11.85 8.15 11.7 7.95 11.55 7.8 11.4 7.65 11.25 7.5 11.1 7.35 10.95 7.25 10.85 7.1 10.7 7.0 10.55 6.9 10.45 6.8 10.3 6.75 10.2 6.65 10.1 6.6 9.95 6.55 9.85 6.5 9.75 6.45 9.65 6.45 9.55 6.45 9.45 6.45 9.4 6.45 9.35 6.45 9.35 6.45 9.3 6.45 9.25 6.45 9.2 6.5 9.15 6.5 9.1 6.55 8.95 6.6 8.1 7.65 8.0 7.8 7.9 7.9 7.8 8.0 7.75 8.1 7.65 8.2 7.6 8.3 7.55 8.4 7.5 8.5 7.45 8.6 7.4 8.65 7.35 8.75 7.35 8.8 7.3 8.85 7.3 8.9 7.3 8.95 7.3 9.0 7.3 9.0 7.3 9.05 7.3 9.05 7.3 9.1 7.35 9.1 7.35 9.1 7.35 9.15 7.4 9.15 7.4 9.15 7.45 9.15 7.5 9.2 7.55 9.2 7.55 9.2 7.6 9.2 7.65 9.2 7.7 9.2 L8.95 9.1" fill="#ffffff" fill-rule="evenodd" stroke="none"/>
    </g>
  </defs>
</svg>
