<?xml version="1.0" encoding="UTF-8" standalone="no"?>
<svg xmlns:ffdec="https://www.free-decompiler.com/flash" xmlns:xlink="http://www.w3.org/1999/xlink" ffdec:objectType="frame" height="26.55px" width="70.8px" xmlns="http://www.w3.org/2000/svg">
  <g transform="matrix(1.0, 0.0, 0.0, 1.0, 0.2, 0.4)">
    <use ffdec:characterId="1" height="26.0" transform="matrix(1.0, 0.0, 0.0, 1.0, 0.0, 0.0)" width="35.75" xlink:href="#shape0"/>
    <use ffdec:characterId="117" height="26.0" transform="matrix(1.0, 0.0, 0.0, 1.0, 0.0, 0.0)" width="35.75" xlink:href="#shape1"/>
    <use ffdec:characterId="117" height="26.0" transform="matrix(1.0, 0.0, 0.0, 1.0, 0.0, 0.0)" width="35.75" xlink:href="#shape1"/>
  </g>
  <defs>
    <g id="shape0" transform="matrix(1.0, 0.0, 0.0, 1.0, 0.0, 0.0)">
      <path d="M35.1 2.45 Q35.1 2.5 35.1 2.55 35.1 2.55 35.1 2.6 L35.1 4.05 34.45 3.8 35.1 4.5 35.1 5.25 34.55 5.25 35.1 6.45 35.1 7.1 34.9 8.15 35.1 7.8 35.1 9.55 34.45 9.85 34.8 10.05 35.35 9.8 35.35 8.05 35.15 8.4 35.35 7.35 35.35 6.7 34.8 5.5 35.35 5.5 35.35 4.75 34.7 4.05 35.35 4.3 35.35 2.85 Q35.35 2.85 35.35 2.8 35.35 2.7 35.35 2.65 35.35 2.55 35.3 2.55 35.3 2.5 35.25 2.5 35.2 2.5 35.1 2.45 L35.1 2.45 M35.1 10.4 L35.1 22.5 35.1 23.15 Q35.1 23.45 35.05 23.5 35.05 23.5 34.75 23.5 L34.1 23.5 33.45 23.5 32.6 23.5 32.6 23.75 33.7 23.75 34.35 23.75 35.0 23.75 Q35.25 23.75 35.3 23.75 35.35 23.7 35.35 23.4 L35.35 22.75 35.35 10.55 35.1 10.4 M32.3 22.75 L31.55 23.5 25.95 23.5 25.1 23.05 25.0 23.5 24.0 23.5 23.7 23.5 22.6 23.4 21.9 23.5 20.7 23.5 20.55 23.3 20.05 23.55 7.95 23.5 7.15 23.25 6.65 23.5 5.8 23.5 5.5 23.35 4.75 23.5 4.1 23.5 3.45 23.5 2.8 23.5 2.2 23.45 1.55 23.5 1.1 23.5 Q1.1 23.55 1.1 23.75 1.1 23.75 1.1 23.75 1.1 23.75 1.15 23.75 L1.75 23.75 2.45 23.7 3.05 23.75 3.7 23.75 4.35 23.75 5.0 23.75 5.75 23.6 6.05 23.75 6.9 23.75 18.95 23.75 19.75 23.75 20.3 23.8 20.8 23.55 20.9 23.75 22.15 23.75 22.85 23.65 23.95 23.75 24.25 23.75 25.25 23.75 25.35 23.3 26.15 23.75 31.8 23.75 32.35 23.2 32.3 22.75" fill="#ffffff" fill-rule="evenodd" stroke="none"/>
      <path d="M0.9 2.2 L4.25 2.2 4.5 2.65 4.8 2.4 6.0 2.2 13.45 2.2 13.6 2.7 14.05 2.2 15.35 2.2 26.5 2.2 27.0 2.65 27.2 2.2 27.85 2.2 34.75 2.2 Q34.95 2.2 35.0 2.25 35.1 2.25 35.1 2.35 35.1 2.4 35.1 2.55 35.1 2.55 35.1 2.6 L35.1 4.05 34.45 3.8 35.1 4.5 35.1 5.25 34.55 5.25 35.1 6.45 35.1 7.1 34.9 8.15 35.1 7.8 35.1 9.55 34.45 9.85 35.1 10.3 35.1 22.5 35.1 23.15 Q35.1 23.4 35.1 23.4 35.05 23.5 35.0 23.5 35.0 23.5 34.75 23.5 L34.1 23.5 33.45 23.5 32.35 23.5 32.3 22.75 31.55 23.5 25.95 23.5 25.1 23.05 25.0 23.5 24.0 23.5 23.7 23.5 22.6 23.4 21.9 23.5 20.7 23.5 20.55 23.3 20.05 23.55 7.95 23.5 7.15 23.25 6.65 23.5 5.8 23.5 5.5 23.35 4.75 23.5 4.1 23.5 3.45 23.5 2.8 23.5 2.2 23.45 1.55 23.5 0.9 23.5 Q0.9 23.5 0.9 23.5 0.85 23.5 0.85 23.5 0.65 23.5 0.6 23.5 0.55 23.5 0.55 23.45 0.55 23.4 0.55 23.2 0.55 23.2 0.55 23.2 0.55 23.2 0.55 23.2 0.55 23.15 0.55 23.15 L0.55 17.7 1.3 17.5 0.55 16.75 0.55 16.1 0.55 15.45 0.55 14.45 0.95 14.15 0.55 13.9 0.55 10.65 0.9 10.45 0.55 9.9 0.55 9.0 0.55 8.35 0.55 7.7 1.0 7.2 0.55 6.85 0.55 2.6 Q0.55 2.55 0.55 2.55 0.55 2.4 0.55 2.35 0.55 2.25 0.65 2.25 0.7 2.2 0.85 2.2 0.85 2.2 0.85 2.2 0.85 2.2 0.9 2.2 0.9 2.2 0.9 2.2 L0.9 2.2" fill="#000000" fill-rule="evenodd" stroke="none"/>
    </g>
    <g id="shape1" transform="matrix(1.0, 0.0, 0.0, 1.0, 0.0, 0.0)">
      <path d="M9.65 19.55 Q9.95 19.55 10.25 19.55 10.5 19.55 10.75 19.5 10.95 19.5 11.15 19.5 11.35 19.5 11.5 19.45 11.65 19.45 11.8 19.4 11.9 19.4 12.0 19.35 12.05 19.3 12.1 19.3 12.15 19.25 12.15 19.2 12.15 19.15 12.15 19.1 12.1 19.05 12.1 19.0 12.1 18.95 12.05 18.95 12.0 18.9 11.95 18.85 11.9 18.8 11.85 18.75 11.8 18.7 11.75 18.65 11.7 18.6 11.6 18.55 11.55 18.5 11.45 18.45 L10.75 18.05 10.7 13.25 Q10.65 12.2 10.65 9.95 10.65 8.2 10.75 7.95 10.75 7.9 10.8 7.8 10.8 7.75 10.85 7.7 10.9 7.65 10.95 7.6 11.0 7.55 11.05 7.5 11.1 7.5 11.15 7.45 11.2 7.4 11.25 7.4 11.3 7.35 11.4 7.35 11.45 7.3 11.55 7.3 11.65 7.3 11.7 7.25 11.8 7.25 11.85 7.25 11.9 7.2 11.95 7.2 12.0 7.15 12.05 7.15 12.1 7.1 12.1 7.1 12.15 7.05 12.15 7.0 12.2 7.0 12.2 6.95 12.2 6.9 12.2 6.85 12.2 6.8 12.2 6.75 12.2 6.75 12.15 6.7 12.15 6.65 12.15 6.6 12.1 6.6 12.1 6.55 12.05 6.55 12.0 6.5 11.95 6.5 11.95 6.45 11.9 6.45 11.8 6.4 11.75 6.4 11.7 6.4 11.55 6.4 11.45 6.35 11.3 6.35 11.15 6.35 11.05 6.3 10.9 6.3 10.75 6.3 10.6 6.3 10.45 6.3 10.3 6.25 10.15 6.25 10.0 6.25 9.85 6.25 9.7 6.25 9.55 6.25 9.35 6.25 8.15 6.25 7.7 6.3 7.65 6.3 7.55 6.3 7.5 6.35 7.45 6.35 7.4 6.4 7.35 6.4 7.3 6.45 7.25 6.5 7.2 6.5 7.2 6.55 7.15 6.6 7.15 6.65 7.15 6.7 7.1 6.75 7.1 6.85 7.1 6.9 7.1 6.95 7.1 6.95 7.1 7.0 7.15 7.0 7.15 7.0 7.2 7.05 7.2 7.05 7.25 7.1 7.3 7.1 7.35 7.15 7.4 7.15 7.4 7.15 7.45 7.2 7.45 7.2 7.5 7.2 7.55 7.2 7.6 7.25 7.6 7.25 7.65 7.3 7.7 7.3 7.75 7.3 7.8 7.35 7.85 7.35 7.9 7.4 7.95 7.4 8.0 7.45 L8.6 7.75 8.6 18.1 7.85 18.45 Q7.75 18.5 7.7 18.5 7.6 18.55 7.55 18.6 7.45 18.65 7.4 18.65 7.35 18.7 7.3 18.75 7.25 18.8 7.25 18.8 7.2 18.85 7.2 18.9 7.15 18.95 7.15 19.0 7.15 19.0 7.15 19.05 7.15 19.1 7.2 19.15 7.2 19.2 7.3 19.25 7.35 19.3 7.5 19.35 7.6 19.4 7.75 19.4 7.9 19.45 8.1 19.45 8.3 19.5 8.55 19.5 8.8 19.5 9.05 19.55 9.35 19.55 9.65 19.55 L9.65 19.55" fill="#ffffff" fill-rule="evenodd" stroke="none"/>
      <path d="M15.65 19.55 Q15.75 19.55 15.85 19.55 15.95 19.55 16.05 19.55 16.15 19.55 16.2 19.55 16.3 19.55 16.35 19.5 16.45 19.5 16.5 19.5 16.55 19.5 16.6 19.5 16.6 19.45 16.65 19.45 16.7 19.45 16.7 19.4 16.75 19.4 16.75 19.35 16.8 19.35 16.8 19.3 16.85 19.3 16.85 19.25 16.85 19.25 16.85 19.2 16.85 19.15 16.85 19.1 16.85 19.05 16.85 19.0 16.85 18.95 16.85 18.9 16.8 18.85 16.8 18.85 16.75 18.8 16.75 18.75 16.7 18.7 16.65 18.7 16.6 18.65 16.55 18.65 16.5 18.6 16.45 18.6 16.4 18.55 16.3 18.55 16.25 18.55 16.2 18.5 16.1 18.5 16.05 18.45 16.0 18.4 15.95 18.35 15.9 18.3 15.85 18.25 15.8 18.2 15.8 18.15 15.75 18.1 15.7 18.05 15.65 17.95 15.65 17.9 15.6 17.8 15.6 17.7 15.5 17.4 15.5 15.8 15.5 15.6 15.5 15.4 15.5 15.25 15.5 15.05 15.5 14.9 15.55 14.75 15.55 14.55 15.55 14.4 15.6 14.3 15.6 14.15 15.65 14.0 15.65 13.9 15.7 13.75 15.75 13.65 15.75 13.55 15.8 13.45 15.85 13.3 15.95 13.15 16.0 13.0 16.1 12.9 16.2 12.75 16.3 12.65 16.4 12.55 16.5 12.5 16.65 12.4 16.75 12.35 16.85 12.3 17.0 12.25 17.15 12.2 17.3 12.2 17.45 12.15 17.6 12.15 17.65 12.15 17.7 12.15 17.75 12.15 17.8 12.2 17.85 12.2 17.9 12.2 17.95 12.25 18.0 12.25 18.05 12.25 18.1 12.3 18.15 12.35 18.2 12.35 18.25 12.4 18.35 12.45 18.4 12.5 18.45 12.55 18.5 12.6 18.55 12.65 18.6 12.7 18.65 12.8 18.7 12.85 18.75 12.9 18.8 13.0 18.8 13.1 18.85 13.15 18.9 13.25 18.9 13.35 18.95 13.45 19.0 13.6 19.0 13.7 19.0 13.8 19.05 13.95 19.15 15.1 19.15 15.65 19.15 15.75 19.15 15.85 19.15 15.9 19.15 16.0 19.15 16.1 19.15 16.2 19.15 16.3 19.15 16.4 19.15 16.45 19.1 16.55 19.1 16.65 19.1 16.75 19.1 16.85 19.1 16.95 19.1 17.05 19.05 17.15 19.05 17.35 19.0 17.5 19.0 17.65 18.95 17.8 18.95 17.95 18.9 18.0 18.9 18.1 18.85 18.2 18.85 18.25 18.8 18.25 18.8 18.3 18.75 18.3 18.75 18.35 18.7 18.35 18.7 18.4 18.65 18.4 18.65 18.45 18.6 18.45 18.55 18.45 18.5 18.5 18.5 18.5 18.45 18.5 18.4 18.55 18.35 18.55 18.3 18.55 18.2 18.6 18.15 18.6 18.1 18.6 18.05 18.65 18.0 18.7 17.95 18.7 17.95 18.75 17.9 18.75 17.85 18.8 17.85 18.85 17.85 18.9 17.8 18.95 17.8 19.0 17.8 19.05 17.8 19.1 17.8 19.15 17.8 19.2 17.8 19.25 17.8 19.25 17.85 19.3 17.85 19.35 17.85 19.35 17.9 19.4 17.9 19.4 17.95 19.4 18.0 19.45 18.05 19.45 18.1 19.5 18.2 19.5 18.25 19.5 18.4 19.5 18.5 19.55 18.65 19.55 18.8 19.55 18.95 19.55 19.4 19.55 19.75 19.55 20.15 19.55 20.45 19.5 20.8 19.5 21.05 19.45 21.3 19.45 21.55 19.4 21.75 19.4 21.9 19.35 22.05 19.3 22.15 19.25 22.3 19.2 22.35 19.15 22.4 19.1 22.4 19.05 22.4 19.0 22.4 19.0 22.35 18.95 22.35 18.95 22.35 18.9 22.3 18.85 22.25 18.85 22.25 18.8 22.2 18.75 22.15 18.75 22.1 18.7 22.05 18.65 22.0 18.6 21.9 18.6 21.85 18.55 21.75 18.5 L21.0 18.15 21.0 15.3 Q21.0 15.05 21.0 14.8 21.0 14.6 21.0 14.4 21.0 14.15 20.95 13.95 20.95 13.8 20.95 13.6 20.9 13.4 20.9 13.25 20.85 13.1 20.85 12.95 20.8 12.8 20.8 12.7 20.75 12.55 20.7 12.45 20.65 12.25 20.55 12.05 20.45 11.9 20.35 11.75 20.25 11.6 20.1 11.45 19.95 11.35 19.8 11.25 19.65 11.15 19.45 11.05 19.25 10.95 19.05 10.9 18.8 10.85 18.55 10.85 18.3 10.8 18.05 10.8 17.95 10.8 17.8 10.8 17.7 10.85 17.55 10.85 17.45 10.85 17.35 10.9 17.25 10.95 17.1 10.95 17.0 11.0 16.9 11.05 16.8 11.1 16.65 11.15 16.55 11.2 16.45 11.3 16.35 11.35 16.25 11.4 L15.6 11.9 15.6 11.3 Q15.6 11.25 15.6 11.2 15.6 11.15 15.6 11.1 15.6 11.05 15.55 11.0 15.55 10.95 15.55 10.9 15.55 10.9 15.5 10.85 15.5 10.8 15.5 10.8 15.45 10.75 15.45 10.75 15.4 10.7 15.4 10.7 15.35 10.65 15.3 10.65 15.3 10.65 15.25 10.6 15.2 10.6 15.2 10.6 15.15 10.55 15.15 10.55 15.1 10.55 15.05 10.55 15.05 10.55 15.0 10.55 15.0 10.55 15.0 10.55 14.95 10.55 14.95 10.55 14.9 10.55 14.85 10.6 14.8 10.6 14.75 10.65 14.75 10.65 14.7 10.7 14.7 10.7 14.65 10.7 14.6 10.75 14.55 10.75 14.5 10.8 14.4 10.8 14.35 10.8 14.25 10.85 14.15 10.85 14.05 10.9 13.9 10.9 13.8 10.9 13.65 10.95 13.5 10.95 13.35 10.95 13.25 11.0 13.1 11.0 13.0 11.05 12.9 11.1 12.85 11.1 12.75 11.15 12.65 11.15 12.6 11.2 12.55 11.25 12.5 11.25 12.45 11.3 12.45 11.35 12.4 11.4 12.4 11.4 12.4 11.45 12.4 11.5 12.4 11.5 12.4 11.55 12.45 11.6 12.45 11.6 12.45 11.65 12.5 11.7 12.55 11.7 12.55 11.75 12.6 11.8 12.65 11.8 12.7 11.85 12.75 11.9 12.8 11.95 12.9 11.95 12.95 12.0 13.0 12.05 13.05 12.05 13.1 12.1 13.15 12.15 13.2 12.15 13.2 12.2 13.25 12.2 13.3 12.25 13.3 12.3 13.3 12.3 13.3 12.35 13.35 12.35 13.35 12.4 13.35 12.4 13.4 12.45 13.4 12.45 13.4 12.5 13.4 12.5 13.45 12.55 13.45 12.55 13.45 12.6 13.45 12.65 13.5 12.65 13.5 12.7 13.5 12.75 13.5 12.8 13.55 13.3 13.6 15.2 L13.65 18.15 12.95 18.5 Q12.85 18.55 12.8 18.6 12.7 18.6 12.65 18.65 12.6 18.7 12.55 18.7 12.5 18.75 12.45 18.8 12.4 18.85 12.4 18.85 12.35 18.9 12.35 18.9 12.3 18.95 12.3 19.0 12.3 19.0 12.3 19.05 12.3 19.1 12.35 19.15 12.4 19.2 12.5 19.25 12.6 19.3 12.8 19.35 12.95 19.4 13.15 19.4 13.35 19.45 13.6 19.45 13.9 19.5 14.2 19.5 14.5 19.5 14.9 19.55 15.25 19.55 15.65 19.55 L15.65 19.55" fill="#ffffff" fill-rule="evenodd" stroke="none"/>
      <path d="M24.15 17.85 L24.25 17.25 Q24.25 17.2 24.25 17.15 24.25 17.1 24.2 17.05 24.2 17.05 24.2 17.0 24.15 16.95 24.15 16.9 24.15 16.85 24.1 16.85 24.1 16.8 24.05 16.75 24.0 16.7 24.0 16.7 23.95 16.65 23.9 16.6 23.85 16.55 23.8 16.55 23.8 16.5 23.75 16.45 23.7 16.45 23.65 16.4 23.6 16.4 23.55 16.4 23.45 16.35 23.4 16.35 23.35 16.35 23.3 16.35 23.2 16.3 23.15 16.3 23.05 16.3 23.0 16.3 22.95 16.3 22.85 16.3 22.8 16.3 22.75 16.35 22.65 16.35 22.6 16.4 22.55 16.4 22.5 16.45 22.45 16.5 22.4 16.55 22.35 16.6 22.3 16.65 22.25 16.7 22.2 16.75 22.15 16.85 22.15 16.9 22.15 16.95 22.1 17.0 22.1 17.0 22.05 17.05 22.05 17.1 22.05 17.15 22.0 17.2 22.0 17.25 22.0 17.25 22.0 17.3 22.0 17.35 22.0 17.4 22.0 17.45 21.95 17.5 21.95 17.5 21.95 17.55 21.95 17.65 21.95 17.75 22.0 17.85 22.0 17.95 22.05 18.0 22.1 18.1 22.15 18.2 22.2 18.3 22.25 18.4 22.3 18.5 22.4 18.6 22.45 18.65 22.55 18.75 22.65 18.85 22.75 18.95 22.85 19.05 22.95 19.15 23.1 19.2 23.2 19.3 23.3 19.35 23.45 19.4 23.55 19.5 23.7 19.55 23.85 19.55 23.95 19.6 24.1 19.65 24.25 19.7 24.4 19.7 24.55 19.75 24.7 19.75 24.85 19.75 25.0 19.75 25.15 19.75 25.3 19.75 25.45 19.75 25.6 19.7 25.75 19.7 25.9 19.65 26.05 19.6 26.2 19.6 26.35 19.55 26.45 19.5 26.6 19.4 26.75 19.35 26.85 19.3 27.0 19.2 27.1 19.15 27.25 19.05 27.4 18.95 27.55 18.8 27.7 18.7 27.8 18.55 27.95 18.4 28.05 18.25 28.15 18.15 28.2 18.0 28.3 17.85 28.35 17.65 28.4 17.5 28.45 17.35 28.5 17.15 28.55 17.0 28.55 16.8 28.55 16.6 28.55 16.5 28.55 16.4 28.55 16.35 28.5 16.25 28.5 16.15 28.45 16.1 28.45 16.0 28.4 15.9 28.35 15.85 28.3 15.75 28.25 15.7 28.2 15.6 28.15 15.55 28.1 15.45 28.05 15.4 27.95 15.3 27.9 15.25 27.8 15.15 27.7 15.1 27.6 15.05 27.55 14.95 27.4 14.9 27.3 14.85 27.2 14.8 27.05 14.7 26.95 14.65 26.8 14.6 26.65 14.5 26.5 14.45 26.35 14.4 26.2 14.3 26.05 14.25 25.8 14.15 25.55 14.05 25.35 13.95 25.15 13.9 24.95 13.8 24.8 13.7 24.65 13.6 24.55 13.55 24.4 13.45 24.3 13.35 24.2 13.25 24.15 13.2 24.1 13.1 24.05 13.0 24.05 12.95 24.05 12.85 24.05 12.8 24.05 12.8 24.05 12.75 24.05 12.7 24.05 12.7 24.05 12.65 24.05 12.6 24.1 12.6 24.1 12.55 24.1 12.55 24.15 12.5 24.15 12.45 24.15 12.45 24.2 12.4 24.25 12.4 24.25 12.35 24.3 12.3 24.3 12.3 24.35 12.25 24.35 12.25 24.4 12.25 24.45 12.2 24.45 12.2 24.5 12.15 24.55 12.15 24.55 12.15 24.6 12.1 24.6 12.1 24.65 12.1 24.7 12.05 24.7 12.05 24.75 12.05 24.8 12.05 24.8 12.05 24.85 12.0 24.85 12.0 24.9 12.0 24.95 12.0 24.95 12.0 25.0 12.0 25.05 12.0 25.05 12.0 25.1 12.0 25.15 12.0 25.2 12.0 25.2 11.95 25.25 11.95 25.3 11.95 25.35 11.95 25.35 11.95 25.4 11.95 25.45 11.95 25.5 12.0 25.5 12.0 25.55 12.0 25.6 12.0 25.65 12.0 25.65 12.05 25.7 12.05 25.75 12.05 25.8 12.1 25.85 12.1 25.9 12.1 25.95 12.15 26.0 12.2 26.1 12.2 26.15 12.25 26.2 12.3 26.25 12.35 26.3 12.4 26.35 12.45 26.4 12.5 26.45 12.55 26.5 12.6 26.5 12.65 26.55 12.7 26.55 12.75 26.55 12.85 26.6 12.9 26.6 12.95 26.6 13.0 26.6 13.1 26.6 13.15 26.65 13.2 26.65 13.25 26.65 13.3 26.7 13.35 26.7 13.4 26.7 13.45 26.75 13.5 26.75 13.55 26.75 13.55 26.8 13.6 26.8 13.6 26.85 13.65 26.85 13.65 26.9 13.65 26.9 13.7 26.95 13.7 26.95 13.7 27.0 13.7 27.05 13.7 27.05 13.7 27.1 13.7 27.1 13.7 27.15 13.7 27.2 13.7 27.2 13.65 27.25 13.65 27.3 13.6 27.35 13.6 27.35 13.55 27.4 13.5 27.45 13.5 27.5 13.45 27.55 13.4 27.55 13.35 27.6 13.25 27.65 13.2 27.7 13.15 27.75 13.05 27.8 13.0 27.85 12.9 27.95 12.8 28.0 12.7 28.05 12.6 28.1 12.5 28.15 12.4 28.2 12.3 28.25 12.2 28.3 12.1 28.35 12.0 28.4 11.9 28.45 11.85 28.5 11.75 28.5 11.7 28.55 11.6 28.55 11.55 28.6 11.5 28.6 11.45 28.6 11.4 28.65 11.35 28.65 11.35 28.65 11.3 28.65 11.3 28.65 11.25 28.6 11.25 28.6 11.25 28.6 11.2 28.55 11.2 28.5 11.2 28.45 11.15 28.45 11.15 28.4 11.15 28.3 11.15 28.25 11.15 28.2 11.15 28.15 11.1 28.05 11.1 27.95 11.1 L27.25 11.1 Q27.15 11.1 27.1 11.1 27.0 11.1 26.9 11.1 26.85 11.1 26.75 11.1 26.7 11.1 26.6 11.1 26.55 11.1 26.45 11.1 26.4 11.1 26.35 11.05 26.3 11.05 26.2 11.05 26.15 11.05 26.1 11.05 26.05 11.05 26.0 11.05 25.95 11.0 25.9 11.0 25.85 11.0 25.75 11.0 25.7 11.0 25.65 11.0 25.6 10.95 25.55 10.95 25.5 10.95 25.45 10.95 25.4 10.95 25.35 10.95 25.3 10.95 25.25 10.95 25.2 10.95 25.15 10.95 25.05 10.95 25.0 11.0 24.95 11.0 24.85 11.0 24.8 11.0 24.7 11.05 24.6 11.05 24.5 11.1 24.45 11.1 24.35 11.15 24.25 11.2 24.15 11.2 24.05 11.25 23.95 11.3 23.85 11.35 23.75 11.4 23.65 11.45 23.55 11.5 23.45 11.6 23.35 11.65 23.25 11.75 23.2 11.85 23.1 11.95 23.05 12.05 23.0 12.2 22.95 12.3 22.85 12.45 22.8 12.6 22.75 12.7 22.75 12.85 22.75 12.9 22.75 12.95 22.7 13.0 22.7 13.0 22.7 13.05 22.7 13.1 22.7 13.15 22.7 13.2 22.7 13.2 22.65 13.25 22.65 13.3 22.65 13.35 22.65 13.4 22.65 13.4 22.65 13.45 22.65 13.5 22.65 13.6 22.65 13.7 22.7 13.8 22.7 13.9 22.7 14.0 22.75 14.05 22.8 14.15 22.8 14.25 22.85 14.35 22.9 14.45 22.95 14.5 23.0 14.6 23.1 14.7 23.15 14.75 23.25 14.85 23.3 14.9 23.4 15.0 23.45 15.05 23.55 15.15 23.65 15.2 23.75 15.25 23.8 15.35 23.9 15.4 24.0 15.45 24.1 15.5 24.25 15.55 24.35 15.65 24.45 15.7 24.55 15.75 24.7 15.8 24.8 15.85 24.95 15.85 25.05 15.9 25.2 15.95 25.3 16.0 25.4 16.05 25.5 16.1 25.6 16.15 25.7 16.15 25.8 16.2 25.85 16.25 25.95 16.3 26.05 16.35 26.1 16.4 26.15 16.45 26.25 16.5 26.3 16.5 26.35 16.55 26.4 16.6 26.45 16.65 26.5 16.7 26.55 16.75 26.6 16.8 26.6 16.85 26.65 16.9 26.7 16.95 26.7 17.0 26.75 17.05 26.75 17.1 26.75 17.2 26.8 17.25 26.8 17.3 26.8 17.35 26.8 17.45 26.8 17.5 26.8 17.55 26.8 17.65 26.75 17.7 26.75 17.75 26.75 17.8 26.7 17.85 26.7 17.9 26.65 17.95 26.65 18.0 26.6 18.05 26.55 18.1 26.55 18.15 26.5 18.2 26.45 18.25 26.4 18.3 26.35 18.35 26.3 18.4 26.25 18.4 26.2 18.45 26.1 18.5 26.05 18.5 26.0 18.55 25.9 18.55 25.85 18.6 25.8 18.6 25.7 18.6 25.65 18.6 25.55 18.65 25.5 18.65 25.4 18.65 25.3 18.65 25.15 18.65 25.05 18.65 24.9 18.6 24.8 18.6 24.7 18.55 24.6 18.55 24.5 18.5 24.45 18.45 24.35 18.4 24.3 18.35 24.25 18.3 24.2 18.2 24.2 18.15 24.15 18.05 24.15 17.95 24.15 17.85 L24.15 17.85" fill="#ffffff" fill-rule="evenodd" stroke="none"/>
    </g>
  </defs>
</svg>
