<?xml version="1.0" encoding="UTF-8" standalone="no"?>
<svg xmlns:ffdec="https://www.free-decompiler.com/flash" xmlns:xlink="http://www.w3.org/1999/xlink" ffdec:objectType="frame" height="26.55px" width="70.8px" xmlns="http://www.w3.org/2000/svg">
  <g transform="matrix(1.0, 0.0, 0.0, 1.0, 0.2, 0.4)">
    <use ffdec:characterId="3" height="26.0" transform="matrix(1.0, 0.0, 0.0, 1.0, 0.0, 0.0)" width="26.0" xlink:href="#shape0"/>
    <use ffdec:characterId="36" height="26.0" transform="matrix(1.0, 0.0, 0.0, 1.0, 0.0, 0.0)" width="26.0" xlink:href="#shape1"/>
    <use ffdec:characterId="36" height="26.0" transform="matrix(1.0, 0.0, 0.0, 1.0, 0.0, 0.0)" width="26.0" xlink:href="#shape1"/>
  </g>
  <defs>
    <g id="shape0" transform="matrix(1.0, 0.0, 0.0, 1.0, 0.0, 0.0)">
      <path d="M23.5 2.45 Q23.5 2.5 23.5 2.5 23.5 2.55 23.5 2.55 23.5 2.55 23.5 2.55 23.5 2.6 23.5 2.6 L23.5 4.05 22.85 3.8 23.5 4.5 23.5 5.25 22.95 5.25 23.5 6.45 23.5 7.1 23.3 8.15 23.5 7.8 23.5 9.55 22.85 9.85 23.15 10.05 23.75 9.8 23.75 8.05 23.5 8.4 23.75 7.35 23.75 6.7 23.2 5.5 23.75 5.5 23.75 4.75 23.1 4.05 23.75 4.3 23.75 2.85 Q23.75 2.8 23.75 2.8 23.75 2.7 23.75 2.65 23.75 2.55 23.7 2.55 23.7 2.5 23.65 2.5 23.6 2.5 23.5 2.45 L23.5 2.45 M23.5 10.4 L23.5 22.5 23.5 23.15 Q23.5 23.4 23.5 23.4 23.45 23.5 23.4 23.5 23.35 23.5 23.15 23.5 L22.5 23.5 21.85 23.5 20.95 23.5 21.0 23.75 22.1 23.75 22.75 23.75 23.4 23.75 Q23.65 23.75 23.7 23.75 23.75 23.7 23.75 23.4 L23.75 22.75 23.75 10.55 23.5 10.4 M20.7 22.75 L19.95 23.5 16.1 23.5 15.25 23.05 15.2 23.5 14.15 23.5 13.9 23.5 12.75 23.4 12.05 23.5 10.85 23.5 10.7 23.3 10.2 23.55 9.7 23.5 8.85 23.25 8.4 23.5 7.5 23.5 7.25 23.35 6.45 23.5 5.85 23.5 5.2 23.5 4.55 23.5 3.95 23.45 3.25 23.5 2.85 23.5 Q2.85 23.55 2.85 23.6 2.85 23.65 2.85 23.7 2.8 23.7 2.8 23.75 2.85 23.75 2.85 23.75 2.85 23.75 2.85 23.75 L3.5 23.75 4.2 23.7 4.8 23.75 5.45 23.75 6.05 23.75 6.7 23.75 7.45 23.6 7.75 23.75 8.65 23.75 9.1 23.5 9.9 23.75 10.45 23.8 10.95 23.55 11.1 23.75 12.3 23.75 13.0 23.65 14.1 23.75 14.4 23.75 15.4 23.75 15.5 23.3 16.35 23.75 20.15 23.75 20.75 23.2 20.7 22.75" fill="#ffffff" fill-rule="evenodd" stroke="none"/>
      <path d="M2.6 2.2 L5.95 2.2 6.2 2.65 6.5 2.4 7.75 2.2 13.5 2.2 13.7 2.7 14.15 2.2 15.45 2.2 16.65 2.2 17.15 2.65 17.35 2.2 18.0 2.2 23.15 2.2 Q23.35 2.2 23.4 2.25 23.45 2.25 23.5 2.35 23.5 2.4 23.5 2.55 23.5 2.55 23.5 2.6 L23.5 4.05 22.85 3.8 23.5 4.5 23.5 5.25 22.95 5.25 23.5 6.45 23.5 7.1 23.3 8.15 23.5 7.8 23.5 9.55 22.85 9.85 23.5 10.3 23.5 22.5 23.5 23.15 Q23.5 23.4 23.5 23.4 23.45 23.5 23.4 23.5 23.35 23.5 23.15 23.5 L22.5 23.5 21.85 23.5 20.75 23.5 20.7 22.75 19.95 23.5 16.1 23.5 15.25 23.05 15.2 23.5 14.15 23.5 13.9 23.5 12.75 23.4 12.05 23.5 10.85 23.5 10.7 23.3 10.2 23.55 9.7 23.5 8.85 23.25 8.4 23.5 7.5 23.5 7.25 23.35 6.45 23.5 5.85 23.5 5.2 23.5 4.55 23.5 3.95 23.45 3.25 23.5 2.6 23.5 Q2.6 23.5 2.6 23.5 2.6 23.5 2.6 23.5 2.4 23.5 2.35 23.5 2.3 23.5 2.25 23.45 2.25 23.4 2.25 23.2 2.25 23.2 2.25 23.2 2.25 23.2 2.25 23.2 2.25 23.15 2.25 23.15 L2.25 17.7 3.05 17.5 2.25 16.75 2.25 16.1 2.25 15.45 2.25 14.45 2.65 14.15 2.25 13.9 2.25 10.65 2.65 10.45 2.25 9.9 2.25 9.0 2.25 8.35 2.25 7.7 2.75 7.2 2.25 6.85 2.25 2.6 Q2.25 2.55 2.25 2.55 2.25 2.4 2.25 2.35 2.3 2.25 2.35 2.25 2.4 2.2 2.55 2.2 2.55 2.2 2.6 2.2 2.6 2.2 2.6 2.2 2.6 2.2 2.6 2.2 L2.6 2.2" fill="#000000" fill-rule="evenodd" stroke="none"/>
    </g>
    <g id="shape1" transform="matrix(1.0, 0.0, 0.0, 1.0, 0.0, 0.0)">
      <path d="M7.0 6.15 Q7.0 6.2 6.95 6.25 6.95 6.25 6.95 6.3 6.95 6.35 6.95 6.4 6.95 6.45 6.95 6.45 6.95 6.5 7.0 6.55 7.0 6.6 7.05 6.6 7.05 6.65 7.1 6.7 7.15 6.75 7.2 6.85 7.25 6.9 7.25 6.9 7.3 6.95 7.35 6.95 7.35 7.0 7.4 7.0 7.45 7.05 7.45 7.05 7.5 7.05 7.55 7.1 7.6 7.1 7.6 7.1 7.65 7.1 7.7 7.1 7.75 7.1 7.8 7.1 7.85 7.1 7.85 7.1 7.9 7.1 7.95 7.15 7.95 7.15 8.0 7.15 8.05 7.15 8.05 7.2 8.1 7.2 8.15 7.25 8.15 7.25 8.2 7.25 8.25 7.3 8.25 7.3 8.3 7.35 8.3 7.4 8.35 7.45 8.35 7.5 8.35 7.6 8.4 7.7 8.4 7.85 8.45 8.0 8.45 8.15 8.5 8.4 8.5 8.6 8.5 8.85 8.55 9.15 8.55 9.45 8.55 9.75 8.55 10.1 8.6 10.45 8.6 10.85 L8.65 13.95 Q8.65 16.35 8.75 17.0 8.75 17.1 8.8 17.2 8.8 17.3 8.8 17.35 8.85 17.45 8.85 17.55 8.9 17.65 8.95 17.7 8.95 17.8 9.0 17.9 9.05 17.95 9.1 18.05 9.1 18.15 9.15 18.2 9.2 18.3 9.25 18.35 9.35 18.5 9.45 18.6 9.55 18.75 9.7 18.85 9.8 19.0 9.95 19.1 10.05 19.2 10.2 19.3 10.35 19.4 10.5 19.45 10.65 19.55 10.8 19.6 11.0 19.7 11.15 19.75 11.35 19.8 11.5 19.85 11.6 19.9 11.7 19.9 11.8 19.95 11.9 19.95 11.95 19.95 12.05 20.0 12.15 20.0 12.25 20.0 12.35 20.05 12.45 20.05 12.5 20.05 12.6 20.05 12.7 20.05 12.8 20.1 12.9 20.1 13.0 20.1 13.1 20.1 13.2 20.1 13.25 20.1 13.35 20.05 13.45 20.05 13.55 20.05 13.65 20.05 13.7 20.05 13.8 20.0 13.9 20.0 14.0 20.0 14.1 19.95 14.2 19.95 14.3 19.9 14.35 19.9 14.45 19.85 14.65 19.8 14.8 19.75 15.0 19.65 15.15 19.6 15.3 19.55 15.5 19.45 15.65 19.35 15.75 19.25 15.9 19.15 16.05 19.05 16.2 18.95 16.3 18.85 16.4 18.7 16.55 18.6 16.65 18.45 16.75 18.35 16.8 18.25 16.85 18.2 16.9 18.1 16.95 18.05 16.95 17.95 17.0 17.85 17.05 17.8 17.05 17.7 17.1 17.6 17.15 17.55 17.15 17.45 17.2 17.35 17.2 17.25 17.2 17.15 17.25 17.1 17.25 17.0 17.35 16.05 17.35 13.05 17.4 10.05 17.5 8.7 17.5 8.55 17.5 8.4 17.55 8.25 17.55 8.15 17.55 8.0 17.55 7.9 17.6 7.8 17.6 7.7 17.6 7.6 17.65 7.5 17.65 7.45 17.7 7.4 17.7 7.3 17.75 7.25 17.75 7.2 17.8 7.2 17.8 7.2 17.85 7.2 17.85 7.15 17.85 7.15 17.9 7.15 17.9 7.15 17.95 7.15 17.95 7.15 18.0 7.15 18.05 7.15 18.05 7.15 18.1 7.1 18.15 7.1 18.15 7.1 18.2 7.1 18.25 7.1 18.3 7.1 18.3 7.1 18.35 7.1 18.4 7.1 18.45 7.1 18.45 7.05 18.5 7.05 18.55 7.05 18.6 7.05 18.6 7.0 18.65 7.0 18.7 6.95 18.7 6.95 18.75 6.9 18.8 6.85 18.85 6.85 18.7 7.15 18.9 6.75 18.95 6.65 19.0 6.65 19.0 6.55 19.05 6.55 19.05 6.5 19.05 6.45 19.05 6.4 19.05 6.4 19.05 6.35 19.05 6.3 19.05 6.25 19.05 6.2 19.0 6.15 19.0 6.15 18.95 6.1 18.95 6.05 18.7 5.95 17.15 5.9 15.45 5.95 14.8 6.1 14.75 6.1 14.7 6.15 14.65 6.15 14.6 6.15 14.55 6.2 14.5 6.2 14.5 6.25 14.45 6.25 14.45 6.3 14.4 6.3 14.4 6.35 14.35 6.4 14.35 6.4 14.35 6.45 14.35 6.5 14.35 6.55 14.35 6.6 14.35 6.65 14.35 6.65 14.4 6.7 14.4 6.75 14.45 6.75 14.45 6.8 14.5 6.8 14.55 6.85 14.6 6.9 14.6 6.9 14.7 6.95 14.75 6.95 14.8 7.0 14.85 7.0 14.95 7.0 15.0 7.05 15.1 7.05 15.15 7.1 15.2 7.1 15.25 7.15 15.35 7.2 15.4 7.25 15.45 7.3 15.5 7.35 15.55 7.4 15.6 7.45 15.6 7.5 15.65 7.55 15.7 7.6 15.75 7.65 15.75 7.75 16.0 8.25 16.0 11.8 15.95 15.45 15.75 16.4 15.75 16.55 15.7 16.65 15.65 16.75 15.65 16.9 15.6 17.0 15.55 17.1 15.5 17.2 15.45 17.3 15.45 17.4 15.35 17.5 15.3 17.55 15.25 17.65 15.2 17.7 15.15 17.8 15.05 17.85 15.0 17.9 14.95 17.95 14.85 18.0 14.8 18.05 14.7 18.1 14.6 18.15 14.5 18.2 14.45 18.2 14.35 18.25 14.25 18.3 14.15 18.3 14.0 18.35 13.9 18.35 13.8 18.35 13.7 18.35 13.55 18.4 13.45 18.4 13.3 18.4 13.2 18.4 13.05 18.35 12.95 18.35 12.85 18.35 12.75 18.3 12.6 18.25 12.5 18.25 12.4 18.2 12.3 18.15 12.2 18.1 12.1 18.05 12.0 18.0 11.95 17.95 11.85 17.85 11.75 17.8 L11.1 17.2 11.1 7.5 11.85 7.15 Q11.95 7.1 12.05 7.05 12.1 7.05 12.2 7.0 12.25 6.95 12.3 6.9 12.35 6.85 12.4 6.8 12.45 6.8 12.5 6.75 12.5 6.7 12.55 6.65 12.55 6.6 12.6 6.6 12.6 6.55 12.6 6.5 12.6 6.45 12.6 6.4 12.55 6.4 12.55 6.35 12.55 6.3 12.5 6.3 12.45 6.25 12.4 6.25 12.35 6.2 12.3 6.2 12.25 6.15 12.2 6.15 12.1 6.1 12.05 6.1 11.95 6.1 11.85 6.05 11.0 5.95 8.2 5.95 8.05 5.95 7.95 5.95 7.8 5.95 7.7 5.95 7.6 5.95 7.5 6.0 7.45 6.0 7.35 6.0 7.3 6.0 7.2 6.05 7.15 6.05 7.1 6.05 7.05 6.1 7.05 6.1 7.0 6.15 7.0 6.15 L7.0 6.15" fill="#ffffff" fill-rule="evenodd" stroke="none"/>
    </g>
  </defs>
</svg>
