<?xml version="1.0" encoding="UTF-8" standalone="no"?>
<svg xmlns:ffdec="https://www.free-decompiler.com/flash" xmlns:xlink="http://www.w3.org/1999/xlink" ffdec:objectType="frame" height="26.55px" width="70.8px" xmlns="http://www.w3.org/2000/svg">
  <g transform="matrix(1.0, 0.0, 0.0, 1.0, 0.2, 0.4)">
    <use ffdec:characterId="3" height="26.0" transform="matrix(1.0, 0.0, 0.0, 1.0, 0.0, 0.0)" width="26.0" xlink:href="#shape0"/>
    <use ffdec:characterId="24" height="26.0" transform="matrix(1.0, 0.0, 0.0, 1.0, 0.0, 0.0)" width="26.0" xlink:href="#shape1"/>
    <use ffdec:characterId="24" height="26.0" transform="matrix(1.0, 0.0, 0.0, 1.0, 0.0, 0.0)" width="26.0" xlink:href="#shape1"/>
  </g>
  <defs>
    <g id="shape0" transform="matrix(1.0, 0.0, 0.0, 1.0, 0.0, 0.0)">
      <path d="M23.5 2.45 Q23.5 2.5 23.5 2.5 23.5 2.55 23.5 2.55 23.5 2.55 23.5 2.55 23.5 2.6 23.5 2.6 L23.5 4.05 22.85 3.8 23.5 4.5 23.5 5.25 22.95 5.25 23.5 6.45 23.5 7.1 23.3 8.15 23.5 7.8 23.5 9.55 22.85 9.85 23.15 10.05 23.75 9.8 23.75 8.05 23.5 8.4 23.75 7.35 23.75 6.7 23.2 5.5 23.75 5.5 23.75 4.75 23.1 4.05 23.75 4.3 23.75 2.85 Q23.75 2.8 23.75 2.8 23.75 2.7 23.75 2.65 23.75 2.55 23.7 2.55 23.7 2.5 23.65 2.5 23.6 2.5 23.5 2.45 L23.5 2.45 M23.5 10.4 L23.5 22.5 23.5 23.15 Q23.5 23.4 23.5 23.4 23.45 23.5 23.4 23.5 23.35 23.5 23.15 23.5 L22.5 23.5 21.85 23.5 20.95 23.5 21.0 23.75 22.1 23.75 22.75 23.75 23.4 23.75 Q23.65 23.75 23.7 23.75 23.75 23.7 23.75 23.4 L23.75 22.75 23.75 10.55 23.5 10.4 M20.7 22.75 L19.95 23.5 16.1 23.5 15.25 23.05 15.2 23.5 14.15 23.5 13.9 23.5 12.75 23.4 12.05 23.5 10.85 23.5 10.7 23.3 10.2 23.55 9.7 23.5 8.85 23.25 8.4 23.5 7.5 23.5 7.25 23.35 6.45 23.5 5.85 23.5 5.2 23.5 4.55 23.5 3.95 23.45 3.25 23.5 2.85 23.5 Q2.85 23.55 2.85 23.6 2.85 23.65 2.85 23.7 2.8 23.7 2.8 23.75 2.85 23.75 2.85 23.75 2.85 23.75 2.85 23.75 L3.5 23.75 4.2 23.7 4.8 23.75 5.45 23.75 6.05 23.75 6.7 23.75 7.45 23.6 7.75 23.75 8.65 23.75 9.1 23.5 9.9 23.75 10.45 23.8 10.95 23.55 11.1 23.75 12.3 23.75 13.0 23.65 14.1 23.75 14.4 23.75 15.4 23.75 15.5 23.3 16.35 23.75 20.15 23.75 20.75 23.2 20.7 22.75" fill="#ffffff" fill-rule="evenodd" stroke="none"/>
      <path d="M2.6 2.2 L5.95 2.2 6.2 2.65 6.5 2.4 7.75 2.2 13.5 2.2 13.7 2.7 14.15 2.2 15.45 2.2 16.65 2.2 17.15 2.65 17.35 2.2 18.0 2.2 23.15 2.2 Q23.35 2.2 23.4 2.25 23.45 2.25 23.5 2.35 23.5 2.4 23.5 2.55 23.5 2.55 23.5 2.6 L23.5 4.05 22.85 3.8 23.5 4.5 23.5 5.25 22.95 5.25 23.5 6.45 23.5 7.1 23.3 8.15 23.5 7.8 23.5 9.55 22.85 9.85 23.5 10.3 23.5 22.5 23.5 23.15 Q23.5 23.4 23.5 23.4 23.45 23.5 23.4 23.5 23.35 23.5 23.15 23.5 L22.5 23.5 21.85 23.5 20.75 23.5 20.7 22.75 19.95 23.5 16.1 23.5 15.25 23.05 15.2 23.5 14.15 23.5 13.9 23.5 12.75 23.4 12.05 23.5 10.85 23.5 10.7 23.3 10.2 23.55 9.7 23.5 8.85 23.25 8.4 23.5 7.5 23.5 7.25 23.35 6.45 23.5 5.85 23.5 5.2 23.5 4.55 23.5 3.95 23.45 3.25 23.5 2.6 23.5 Q2.6 23.5 2.6 23.5 2.6 23.5 2.6 23.5 2.4 23.5 2.35 23.5 2.3 23.5 2.25 23.45 2.25 23.4 2.25 23.2 2.25 23.2 2.25 23.2 2.25 23.2 2.25 23.2 2.25 23.15 2.25 23.15 L2.25 17.7 3.05 17.5 2.25 16.75 2.25 16.1 2.25 15.45 2.25 14.45 2.65 14.15 2.25 13.9 2.25 10.65 2.65 10.45 2.25 9.9 2.25 9.0 2.25 8.35 2.25 7.7 2.75 7.2 2.25 6.85 2.25 2.6 Q2.25 2.55 2.25 2.55 2.25 2.4 2.25 2.35 2.3 2.25 2.35 2.25 2.4 2.2 2.55 2.2 2.55 2.2 2.6 2.2 2.6 2.2 2.6 2.2 2.6 2.2 2.6 2.2 L2.6 2.2" fill="#000000" fill-rule="evenodd" stroke="none"/>
    </g>
    <g id="shape1" transform="matrix(1.0, 0.0, 0.0, 1.0, 0.0, 0.0)">
      <path d="M13.0 19.9 Q13.3 19.9 13.6 19.9 13.9 19.9 14.15 19.9 14.35 19.85 14.55 19.85 14.75 19.85 14.95 19.8 15.1 19.8 15.2 19.75 15.35 19.75 15.4 19.7 15.5 19.7 15.55 19.65 15.6 19.6 15.6 19.55 15.6 19.5 15.6 19.45 15.55 19.4 15.55 19.35 15.5 19.3 15.5 19.25 15.45 19.2 15.4 19.2 15.35 19.15 15.3 19.1 15.25 19.05 15.2 19.0 15.1 18.95 15.05 18.9 14.95 18.85 14.85 18.8 L14.15 18.4 14.05 13.35 Q14.05 12.3 14.05 9.95 14.05 8.15 14.15 7.85 14.15 7.8 14.2 7.7 14.2 7.65 14.25 7.6 14.3 7.55 14.35 7.5 14.35 7.45 14.4 7.4 14.45 7.35 14.55 7.35 14.6 7.3 14.65 7.25 14.75 7.25 14.8 7.2 14.85 7.2 14.95 7.15 15.05 7.15 15.1 7.15 15.2 7.1 15.25 7.1 15.35 7.05 15.4 7.05 15.45 7.05 15.5 7.0 15.55 7.0 15.55 6.95 15.6 6.9 15.6 6.9 15.65 6.85 15.65 6.8 15.65 6.8 15.65 6.75 15.65 6.7 15.65 6.65 15.65 6.6 15.6 6.55 15.6 6.5 15.6 6.5 15.55 6.45 15.5 6.4 15.5 6.4 15.45 6.35 15.4 6.35 15.35 6.3 15.3 6.3 15.25 6.25 15.2 6.25 15.1 6.25 14.95 6.25 14.85 6.2 14.7 6.2 14.55 6.2 14.4 6.15 14.25 6.15 14.1 6.15 13.95 6.15 13.8 6.1 13.65 6.1 13.5 6.1 13.35 6.1 13.2 6.1 13.05 6.1 12.85 6.1 12.7 6.1 11.5 6.1 10.95 6.15 10.9 6.15 10.8 6.15 10.75 6.2 10.7 6.2 10.65 6.25 10.6 6.25 10.55 6.3 10.5 6.35 10.45 6.35 10.45 6.4 10.4 6.45 10.4 6.5 10.35 6.55 10.35 6.65 10.35 6.7 10.35 6.75 10.35 6.8 10.35 6.8 10.35 6.85 10.4 6.85 10.4 6.9 10.45 6.9 10.45 6.95 10.5 6.95 10.55 7.0 10.6 7.0 10.65 7.05 10.85 7.15 11.1 7.25 11.3 7.35 L11.9 7.65 11.9 18.4 11.1 18.75 Q11.0 18.8 10.95 18.85 10.85 18.9 10.8 18.9 10.7 18.95 10.65 19.0 10.6 19.05 10.55 19.1 10.5 19.1 10.45 19.15 10.45 19.2 10.4 19.25 10.4 19.3 10.4 19.35 10.35 19.35 10.35 19.4 10.35 19.45 10.4 19.5 10.45 19.6 10.55 19.65 10.6 19.65 10.75 19.7 10.85 19.75 11.0 19.8 11.2 19.8 11.4 19.85 11.6 19.85 11.85 19.9 12.1 19.9 12.35 19.9 12.65 19.9 13.0 19.9 L13.0 19.9" fill="#ffffff" fill-rule="evenodd" stroke="none"/>
    </g>
  </defs>
</svg>
