<?xml version="1.0" encoding="UTF-8" standalone="no"?>
<svg xmlns:ffdec="https://www.free-decompiler.com/flash" xmlns:xlink="http://www.w3.org/1999/xlink" ffdec:objectType="frame" height="26.55px" width="70.8px" xmlns="http://www.w3.org/2000/svg">
  <g transform="matrix(1.0, 0.0, 0.0, 1.0, 0.2, 0.4)">
    <use ffdec:characterId="3" height="26.0" transform="matrix(1.0, 0.0, 0.0, 1.0, 0.0, 0.0)" width="26.0" xlink:href="#shape0"/>
    <use ffdec:characterId="165" height="26.0" transform="matrix(1.0, 0.0, 0.0, 1.0, 0.0, 0.0)" width="26.0" xlink:href="#shape1"/>
    <use ffdec:characterId="165" height="26.0" transform="matrix(1.0, 0.0, 0.0, 1.0, 0.0, 0.0)" width="26.0" xlink:href="#shape1"/>
  </g>
  <defs>
    <g id="shape0" transform="matrix(1.0, 0.0, 0.0, 1.0, 0.0, 0.0)">
      <path d="M23.5 2.45 Q23.5 2.5 23.5 2.5 23.5 2.55 23.5 2.55 23.5 2.55 23.5 2.55 23.5 2.6 23.5 2.6 L23.5 4.05 22.85 3.8 23.5 4.5 23.5 5.25 22.95 5.25 23.5 6.45 23.5 7.1 23.3 8.15 23.5 7.8 23.5 9.55 22.85 9.85 23.15 10.05 23.75 9.8 23.75 8.05 23.5 8.4 23.75 7.35 23.75 6.7 23.2 5.5 23.75 5.5 23.75 4.75 23.1 4.05 23.75 4.3 23.75 2.85 Q23.75 2.8 23.75 2.8 23.75 2.7 23.75 2.65 23.75 2.55 23.7 2.55 23.7 2.5 23.65 2.5 23.6 2.5 23.5 2.45 L23.5 2.45 M23.5 10.4 L23.5 22.5 23.5 23.15 Q23.5 23.4 23.5 23.4 23.45 23.5 23.4 23.5 23.35 23.5 23.15 23.5 L22.5 23.5 21.85 23.5 20.95 23.5 21.0 23.75 22.1 23.75 22.75 23.75 23.4 23.75 Q23.65 23.75 23.7 23.75 23.75 23.7 23.75 23.4 L23.75 22.75 23.75 10.55 23.5 10.4 M20.7 22.75 L19.95 23.5 16.1 23.5 15.25 23.05 15.2 23.5 14.15 23.5 13.9 23.5 12.75 23.4 12.05 23.5 10.85 23.5 10.7 23.3 10.2 23.55 9.7 23.5 8.85 23.25 8.4 23.5 7.5 23.5 7.25 23.35 6.45 23.5 5.85 23.5 5.2 23.5 4.55 23.5 3.95 23.45 3.25 23.5 2.85 23.5 Q2.85 23.55 2.85 23.6 2.85 23.65 2.85 23.7 2.8 23.7 2.8 23.75 2.85 23.75 2.85 23.75 2.85 23.75 2.85 23.75 L3.5 23.75 4.2 23.7 4.8 23.75 5.45 23.75 6.05 23.75 6.7 23.75 7.45 23.6 7.75 23.75 8.65 23.75 9.1 23.5 9.9 23.75 10.45 23.8 10.95 23.55 11.1 23.75 12.3 23.75 13.0 23.65 14.1 23.75 14.4 23.75 15.4 23.75 15.5 23.3 16.35 23.75 20.15 23.75 20.75 23.2 20.7 22.75" fill="#ffffff" fill-rule="evenodd" stroke="none"/>
      <path d="M2.6 2.2 L5.95 2.2 6.2 2.65 6.5 2.4 7.75 2.2 13.5 2.2 13.7 2.7 14.15 2.2 15.45 2.2 16.65 2.2 17.15 2.65 17.35 2.2 18.0 2.2 23.15 2.2 Q23.35 2.2 23.4 2.25 23.45 2.25 23.5 2.35 23.5 2.4 23.5 2.55 23.5 2.55 23.5 2.6 L23.5 4.05 22.85 3.8 23.5 4.5 23.5 5.25 22.95 5.25 23.5 6.45 23.5 7.1 23.3 8.15 23.5 7.8 23.5 9.55 22.85 9.85 23.5 10.3 23.5 22.5 23.5 23.15 Q23.5 23.4 23.5 23.4 23.45 23.5 23.4 23.5 23.35 23.5 23.15 23.5 L22.5 23.5 21.85 23.5 20.75 23.5 20.7 22.75 19.95 23.5 16.1 23.5 15.25 23.05 15.2 23.5 14.15 23.5 13.9 23.5 12.75 23.4 12.05 23.5 10.85 23.5 10.7 23.3 10.2 23.55 9.7 23.5 8.85 23.25 8.4 23.5 7.5 23.5 7.25 23.35 6.45 23.5 5.85 23.5 5.2 23.5 4.55 23.5 3.95 23.45 3.25 23.5 2.6 23.5 Q2.6 23.5 2.6 23.5 2.6 23.5 2.6 23.5 2.4 23.5 2.35 23.5 2.3 23.5 2.25 23.45 2.25 23.4 2.25 23.2 2.25 23.2 2.25 23.2 2.25 23.2 2.25 23.2 2.25 23.15 2.25 23.15 L2.25 17.7 3.05 17.5 2.25 16.75 2.25 16.1 2.25 15.45 2.25 14.45 2.65 14.15 2.25 13.9 2.25 10.65 2.65 10.45 2.25 9.9 2.25 9.0 2.25 8.35 2.25 7.7 2.75 7.2 2.25 6.85 2.25 2.6 Q2.25 2.55 2.25 2.55 2.25 2.4 2.25 2.35 2.3 2.25 2.35 2.25 2.4 2.2 2.55 2.2 2.55 2.2 2.6 2.2 2.6 2.2 2.6 2.2 2.6 2.2 2.6 2.2 L2.6 2.2" fill="#000000" fill-rule="evenodd" stroke="none"/>
    </g>
    <g id="shape1" transform="matrix(1.0, 0.0, 0.0, 1.0, 0.0, 0.0)">
      <path d="M8.05 7.6 Q7.75 7.9 7.5 8.15 7.25 8.45 7.0 8.8 6.8 9.1 6.6 9.4 6.4 9.75 6.25 10.1 6.1 10.45 6.0 10.8 5.9 11.15 5.85 11.55 5.75 11.9 5.7 12.3 5.7 12.7 5.7 13.1 5.7 13.45 5.7 13.75 5.75 14.1 5.8 14.4 5.85 14.7 5.95 15.0 6.0 15.3 6.1 15.6 6.2 15.9 6.35 16.2 6.5 16.5 6.65 16.75 6.8 17.05 7.0 17.3 7.2 17.55 7.45 17.8 7.55 17.95 7.7 18.1 7.8 18.25 7.95 18.35 8.1 18.5 8.25 18.6 8.4 18.75 8.55 18.85 8.7 19.0 8.85 19.1 9.0 19.2 9.15 19.3 9.35 19.4 9.5 19.5 9.65 19.6 9.85 19.65 9.95 19.7 10.05 19.75 10.15 19.8 10.25 19.85 10.3 19.9 10.4 19.9 10.5 19.95 10.6 20.0 10.7 20.05 10.75 20.05 10.85 20.1 10.95 20.1 11.05 20.15 11.1 20.15 11.2 20.2 11.3 20.2 11.4 20.2 11.45 20.25 11.55 20.25 11.65 20.25 11.75 20.3 11.85 20.3 11.95 20.3 12.05 20.3 12.2 20.3 12.3 20.3 12.4 20.35 12.55 20.35 12.65 20.35 12.8 20.35 12.9 20.35 13.05 20.35 13.35 20.35 13.65 20.3 14.0 20.3 14.25 20.25 14.55 20.2 14.85 20.15 15.15 20.05 15.4 19.95 15.7 19.85 15.95 19.75 16.25 19.65 16.5 19.5 16.75 19.35 17.0 19.2 17.25 19.0 17.5 18.85 17.75 18.65 17.95 18.45 18.2 18.25 18.4 18.0 18.6 17.8 18.8 17.55 19.0 17.3 19.15 17.05 19.3 16.75 19.45 16.5 19.6 16.2 19.75 15.9 19.85 15.6 19.95 15.3 20.05 15.0 20.15 14.65 20.15 14.55 20.2 14.45 20.2 14.35 20.25 14.3 20.25 14.2 20.25 14.1 20.25 14.0 20.3 13.95 20.3 13.85 20.3 13.75 20.3 13.7 20.3 13.6 20.3 13.5 20.3 13.45 20.3 13.35 20.3 13.25 20.3 13.15 20.3 13.1 20.3 13.0 20.3 12.9 20.3 12.8 20.3 12.7 20.3 12.6 20.3 12.5 20.3 12.4 20.25 12.3 20.25 12.15 20.25 12.05 20.2 11.95 20.2 11.8 20.15 11.7 20.15 11.55 20.1 11.25 20.0 10.95 19.9 10.65 19.8 10.35 19.7 10.05 19.55 9.8 19.4 9.5 19.25 9.25 19.1 9.0 18.95 8.75 18.75 8.5 18.55 8.25 18.35 8.0 18.15 7.8 17.9 7.55 17.7 7.35 17.45 7.15 17.2 6.95 16.95 6.75 16.65 6.6 16.4 6.45 16.1 6.3 15.8 6.2 15.5 6.1 15.2 6.0 14.9 5.9 14.6 5.8 14.3 5.75 13.95 5.7 13.6 5.7 13.3 5.65 12.95 5.65 12.6 5.65 12.25 5.7 11.9 5.7 11.55 5.8 11.25 5.85 10.9 5.95 10.6 6.05 10.3 6.15 10.0 6.3 9.7 6.45 9.4 6.6 9.1 6.75 8.8 6.95 8.55 7.15 8.3 7.4 8.05 7.6 L8.05 7.6 M15.8 8.85 Q16.05 9.15 16.25 9.45 16.45 9.75 16.6 10.05 16.8 10.35 16.95 10.7 17.05 11.05 17.2 11.35 17.3 11.7 17.4 12.05 17.5 12.45 17.55 12.8 17.6 13.15 17.6 13.55 17.65 13.95 17.65 14.35 17.65 14.55 17.65 14.7 17.65 14.9 17.65 15.05 17.6 15.2 17.6 15.35 17.55 15.55 17.55 15.65 17.5 15.8 17.5 15.95 17.45 16.1 17.4 16.2 17.35 16.35 17.3 16.45 17.3 16.6 17.2 16.7 17.1 16.85 17.05 17.0 16.95 17.15 16.85 17.3 16.75 17.45 16.65 17.6 16.55 17.75 16.45 17.85 16.3 17.95 16.2 18.05 16.05 18.2 15.95 18.3 15.8 18.4 15.65 18.45 15.5 18.55 15.35 18.6 15.25 18.65 15.15 18.7 15.05 18.75 14.95 18.8 14.85 18.8 14.75 18.85 14.65 18.9 14.55 18.9 14.45 18.95 14.35 18.95 14.25 18.95 14.15 19.0 14.05 19.0 13.95 19.0 13.85 19.0 13.7 19.0 13.45 19.0 13.25 19.0 13.0 18.95 12.8 18.9 12.55 18.85 12.35 18.8 12.1 18.7 11.9 18.6 11.7 18.5 11.5 18.4 11.25 18.25 11.05 18.1 10.85 17.95 10.65 17.75 10.45 17.6 10.3 17.4 10.15 17.25 10.0 17.1 9.9 16.9 9.75 16.75 9.65 16.55 9.5 16.35 9.4 16.15 9.3 15.95 9.2 15.7 9.1 15.45 9.0 15.25 8.9 15.0 8.8 14.75 8.7 14.45 8.65 14.2 8.55 13.9 8.5 13.75 8.5 13.6 8.45 13.45 8.4 13.3 8.4 13.15 8.35 13.0 8.35 12.85 8.3 12.7 8.3 12.55 8.25 12.45 8.25 12.3 8.25 12.15 8.25 12.05 8.25 11.9 8.2 11.8 8.2 11.7 8.2 11.6 8.2 11.45 8.2 11.35 8.25 11.25 8.25 11.15 8.25 11.0 8.25 10.9 8.3 10.8 8.3 10.7 8.3 10.6 8.35 10.5 8.35 10.45 8.4 10.35 8.4 10.25 8.45 10.15 8.45 10.05 8.55 9.8 8.6 9.6 8.7 9.4 8.85 9.2 8.95 9.0 9.05 8.8 9.2 8.6 9.35 8.45 9.45 8.3 9.65 8.15 9.8 8.0 9.95 7.85 10.15 7.75 10.35 7.6 10.55 7.5 10.75 7.4 10.85 7.35 10.95 7.3 11.05 7.25 11.15 7.25 11.25 7.2 11.35 7.15 11.45 7.15 11.55 7.1 11.65 7.1 11.8 7.1 11.9 7.05 12.0 7.05 12.1 7.05 12.2 7.05 12.3 7.0 12.4 7.0 12.65 7.0 12.85 7.05 13.1 7.05 13.35 7.15 13.55 7.2 13.75 7.3 14.0 7.35 14.2 7.5 14.4 7.6 14.6 7.75 14.85 7.9 15.05 8.05 15.25 8.25 15.4 8.45 15.6 8.65 15.8 8.85 L15.8 8.85" fill="#ffffff" fill-rule="evenodd" stroke="none"/>
    </g>
  </defs>
</svg>
