<?xml version="1.0" encoding="UTF-8" standalone="no"?>
<svg xmlns:ffdec="https://www.free-decompiler.com/flash" xmlns:xlink="http://www.w3.org/1999/xlink" ffdec:objectType="frame" height="26.55px" width="70.8px" xmlns="http://www.w3.org/2000/svg">
  <g transform="matrix(1.0, 0.0, 0.0, 1.0, 0.2, 0.4)">
    <use ffdec:characterId="118" height="26.0" transform="matrix(1.0, 0.0, 0.0, 1.0, 0.0, 0.0)" width="35.75" xlink:href="#shape0"/>
    <use ffdec:characterId="118" height="26.0" transform="matrix(1.0, 0.0, 0.0, 1.0, 0.0, 0.0)" width="35.75" xlink:href="#shape0"/>
  </g>
  <defs>
    <g id="shape0" transform="matrix(1.0, 0.0, 0.0, 1.0, 0.0, 0.0)">
      <path d="M6.25 7.8 Q6.25 7.85 6.25 7.9 6.3 7.9 6.3 7.95 6.3 7.95 6.35 8.0 6.35 8.0 6.4 8.0 6.5 8.05 6.75 8.15 7.0 8.3 7.15 8.4 L7.75 8.7 7.75 18.95 6.95 19.3 Q6.85 19.35 6.8 19.35 6.7 19.4 6.65 19.45 6.6 19.5 6.55 19.5 6.5 19.55 6.45 19.6 6.4 19.65 6.4 19.7 6.35 19.7 6.35 19.75 6.3 19.8 6.3 19.85 6.3 19.85 6.3 19.9 6.3 19.95 6.3 19.95 6.3 20.0 6.3 20.05 6.35 20.05 6.35 20.1 6.4 20.1 6.4 20.15 6.45 20.15 6.5 20.2 6.55 20.2 6.6 20.25 6.65 20.25 6.7 20.25 6.75 20.3 6.8 20.3 7.3 20.45 11.05 20.45 11.2 20.45 11.35 20.45 11.5 20.45 11.65 20.45 11.8 20.4 11.95 20.4 12.1 20.4 12.2 20.4 12.35 20.35 12.45 20.35 12.55 20.35 12.65 20.3 12.75 20.3 12.85 20.3 12.95 20.25 13.05 20.25 13.35 20.15 13.6 20.05 13.9 19.95 14.15 19.8 14.4 19.65 14.65 19.45 14.9 19.3 15.1 19.1 15.35 18.9 15.5 18.65 15.7 18.45 15.9 18.2 16.1 17.95 16.25 17.65 16.4 17.35 16.55 17.05 16.65 16.85 16.7 16.7 16.75 16.5 16.85 16.3 16.9 16.15 16.95 15.95 17.0 15.75 17.05 15.6 17.05 15.4 17.1 15.25 17.15 15.05 17.15 14.9 17.15 14.7 17.2 14.55 17.2 14.35 17.2 14.2 17.2 14.05 17.2 13.85 17.2 13.7 17.2 13.55 17.15 13.4 17.15 13.25 17.15 13.05 17.1 12.95 17.1 12.8 17.1 12.65 17.05 12.5 17.05 12.35 17.0 12.2 16.95 12.1 16.95 11.95 16.9 11.8 16.85 11.7 16.85 11.55 16.8 11.45 16.75 11.35 16.7 11.25 16.7 11.15 16.65 11.05 16.6 10.95 16.55 10.85 16.55 10.75 16.5 10.7 16.45 10.6 16.4 10.5 16.35 10.45 16.35 10.35 16.3 10.3 16.25 10.25 16.2 10.15 16.15 10.1 16.1 10.05 16.05 9.95 16.0 9.9 15.95 9.8 15.9 9.75 15.8 9.65 15.75 9.6 15.7 9.5 15.6 9.45 15.55 9.35 15.45 9.25 15.35 9.2 15.3 9.1 15.15 8.95 15.0 8.8 14.85 8.65 14.7 8.55 14.55 8.4 14.4 8.3 14.25 8.2 14.1 8.1 13.95 8.0 13.8 7.9 13.65 7.85 13.5 7.75 13.3 7.7 13.15 7.6 13.0 7.55 12.85 7.5 12.7 7.45 12.55 7.4 12.35 7.4 12.15 7.35 12.0 7.3 11.8 7.3 11.55 7.25 11.35 7.25 11.1 7.2 10.9 7.2 10.65 7.2 10.4 7.15 10.15 7.15 9.85 7.15 9.6 7.15 9.3 7.15 7.05 7.15 6.6 7.25 6.55 7.25 6.5 7.3 6.5 7.3 6.45 7.35 6.4 7.35 6.4 7.4 6.35 7.4 6.35 7.45 6.35 7.5 6.3 7.5 6.3 7.55 6.3 7.6 6.25 7.65 6.25 7.7 6.25 7.75 6.25 7.8 L6.25 7.8 M13.45 9.75 Q13.55 9.85 13.65 9.95 13.7 10.1 13.8 10.2 13.85 10.3 13.95 10.4 14.0 10.5 14.05 10.6 14.15 10.7 14.2 10.8 14.25 10.9 14.3 11.05 14.35 11.15 14.4 11.25 14.45 11.35 14.45 11.45 14.5 11.55 14.55 11.65 14.55 11.8 14.6 11.9 14.6 12.05 14.65 12.2 14.65 12.35 14.7 12.5 14.7 12.65 14.7 12.8 14.75 12.95 14.75 13.15 14.75 13.35 14.75 13.55 14.75 13.7 14.75 13.95 14.75 14.15 14.75 14.35 14.75 14.55 14.75 14.7 14.75 14.9 14.7 15.05 14.7 15.25 14.7 15.4 14.65 15.6 14.65 15.75 14.65 15.9 14.6 16.05 14.55 16.2 14.55 16.35 14.5 16.5 14.45 16.65 14.4 16.8 14.35 16.9 14.35 17.0 14.25 17.15 14.2 17.25 14.15 17.4 14.1 17.5 14.05 17.6 13.95 17.75 13.9 17.85 13.8 17.95 13.7 18.1 13.6 18.2 13.5 18.3 13.45 18.4 13.3 18.5 13.2 18.6 13.1 18.7 13.0 18.8 12.9 18.85 12.8 18.95 12.7 19.0 12.6 19.05 12.5 19.1 12.4 19.15 12.3 19.2 12.2 19.25 12.1 19.25 12.0 19.3 11.9 19.3 11.8 19.3 11.7 19.3 11.6 19.3 11.5 19.3 11.4 19.3 11.3 19.3 11.25 19.25 11.15 19.25 11.05 19.2 11.0 19.2 10.9 19.15 10.85 19.1 10.75 19.1 10.7 19.05 10.65 19.0 10.55 18.95 10.5 18.9 10.45 18.85 10.4 18.8 10.35 18.7 10.3 18.65 10.25 18.55 10.2 18.5 10.2 18.4 10.15 18.35 10.1 18.25 10.1 18.15 10.05 18.05 10.05 18.0 10.0 17.9 10.0 17.8 9.95 17.7 9.95 17.6 9.95 17.5 9.9 16.65 9.9 13.2 L9.9 8.3 10.55 8.3 Q10.75 8.3 10.95 8.35 11.15 8.35 11.35 8.4 11.55 8.45 11.75 8.5 11.9 8.6 12.1 8.65 12.3 8.75 12.45 8.9 12.65 9.0 12.8 9.15 12.95 9.25 13.15 9.4 13.3 9.6 13.45 9.75 L13.45 9.75" fill="#ffffff" fill-rule="evenodd" stroke="none"/>
      <path d="M18.9 13.25 Q18.8 13.35 18.75 13.45 18.65 13.55 18.55 13.65 18.5 13.75 18.4 13.85 18.35 13.95 18.3 14.05 18.25 14.15 18.2 14.25 18.15 14.35 18.1 14.4 18.05 14.5 18.0 14.6 17.95 14.65 17.95 14.75 17.9 14.85 17.9 14.9 17.85 15.0 17.85 15.1 17.85 15.15 17.8 15.25 17.8 15.35 17.8 15.45 17.75 15.5 17.75 15.6 17.75 15.7 17.75 15.8 17.75 15.9 17.75 15.95 17.75 16.05 17.75 16.15 17.75 16.35 17.75 16.55 17.75 16.75 17.8 16.9 17.8 17.1 17.8 17.25 17.85 17.45 17.9 17.6 17.9 17.75 17.95 17.9 18.0 18.05 18.05 18.2 18.1 18.35 18.2 18.45 18.25 18.6 18.3 18.7 18.45 18.95 18.6 19.15 18.8 19.35 18.95 19.55 19.15 19.75 19.35 19.9 19.55 20.05 19.75 20.15 20.0 20.3 20.2 20.35 20.45 20.45 20.7 20.5 20.95 20.6 21.2 20.6 21.45 20.65 21.75 20.65 21.9 20.65 22.1 20.65 22.25 20.6 22.45 20.6 22.6 20.55 22.75 20.5 22.95 20.45 23.1 20.4 23.25 20.35 23.4 20.25 23.55 20.2 23.75 20.1 23.9 20.0 24.05 19.9 24.2 19.8 24.35 19.65 24.45 19.6 24.5 19.5 24.6 19.45 24.65 19.35 24.7 19.3 24.75 19.25 24.8 19.2 24.85 19.15 24.9 19.05 24.9 19.0 24.95 18.95 24.95 18.9 25.0 18.85 25.0 18.8 25.0 18.8 25.0 18.75 25.0 18.7 25.0 18.65 25.0 18.65 24.95 18.6 24.95 18.55 24.95 18.55 24.9 18.5 24.9 18.5 24.85 18.45 24.85 18.45 24.8 18.45 24.75 18.4 24.75 18.4 24.7 18.4 24.65 18.4 24.6 18.4 24.55 18.4 24.55 18.4 24.5 18.4 24.45 18.4 24.4 18.45 24.35 18.45 24.3 18.45 24.25 18.5 24.2 18.5 24.15 18.55 24.05 18.6 24.0 18.6 23.95 18.65 23.85 18.7 23.8 18.75 23.75 18.8 23.65 18.85 23.6 18.9 23.5 18.95 23.4 18.95 23.35 19.0 23.25 19.05 23.15 19.05 23.05 19.1 22.95 19.1 22.8 19.15 22.7 19.15 22.6 19.15 22.5 19.2 22.35 19.2 22.25 19.2 22.1 19.2 22.0 19.2 21.85 19.2 21.75 19.2 21.65 19.15 21.5 19.15 21.4 19.1 21.3 19.05 21.2 19.0 21.1 19.0 21.0 18.9 20.95 18.85 20.85 18.8 20.75 18.75 20.7 18.65 20.6 18.6 20.5 18.5 20.45 18.45 20.4 18.35 20.35 18.3 20.3 18.25 20.3 18.15 20.25 18.1 20.2 18.05 20.15 17.95 20.15 17.9 20.1 17.8 20.05 17.75 20.05 17.65 20.0 17.6 19.95 17.5 19.95 17.4 19.95 17.35 21.75 16.55 22.4 16.2 24.2 15.05 24.55 14.9 24.6 14.9 24.65 14.85 24.7 14.85 24.7 14.8 24.75 14.8 24.8 14.75 24.8 14.75 24.85 14.7 24.85 14.7 24.85 14.65 24.9 14.6 24.9 14.6 24.9 14.55 24.9 14.55 24.9 14.5 24.9 14.5 24.9 14.45 24.9 14.4 24.9 14.35 24.9 14.3 24.85 14.25 24.85 14.25 24.8 14.2 24.8 14.15 24.75 14.15 24.7 14.1 24.65 14.05 24.45 13.45 24.45 13.4 24.4 13.3 24.35 13.25 24.3 13.15 24.25 13.1 24.2 13.0 24.15 12.95 24.1 12.85 24.0 12.75 23.9 12.7 23.85 12.6 23.7 12.5 23.6 12.4 23.5 12.3 23.4 12.2 23.25 12.1 23.2 12.05 23.1 12.05 23.05 12.0 23.0 11.95 22.9 11.95 22.8 11.9 22.75 11.9 22.65 11.85 22.55 11.85 22.45 11.8 22.35 11.8 22.25 11.8 22.15 11.8 22.05 11.8 21.95 11.75 21.8 11.75 21.6 11.75 21.4 11.8 21.2 11.8 21.0 11.85 20.8 11.9 20.65 11.95 20.45 12.05 20.25 12.15 20.1 12.25 19.9 12.35 19.75 12.45 19.55 12.6 19.4 12.75 19.2 12.9 19.05 13.05 18.9 13.25 L18.9 13.25 M22.7 14.45 Q22.65 14.5 22.6 14.55 22.55 14.65 22.5 14.7 22.45 14.75 22.4 14.85 22.3 14.9 22.25 14.95 22.15 15.0 22.05 15.1 21.95 15.15 21.85 15.25 21.75 15.3 21.6 15.4 21.5 15.45 21.35 15.55 20.2 16.15 19.7 16.3 19.7 16.2 19.65 16.1 19.65 15.95 19.65 15.75 19.65 15.6 19.65 15.35 19.65 15.15 19.65 14.95 19.7 14.75 19.7 14.6 19.75 14.4 19.8 14.25 19.85 14.1 19.9 13.95 20.0 13.8 20.1 13.7 20.2 13.55 20.3 13.45 20.4 13.35 20.5 13.25 20.65 13.2 20.8 13.1 20.85 13.1 20.9 13.05 20.95 13.05 21.0 13.05 21.05 13.0 21.05 13.0 21.1 13.0 21.15 13.0 21.2 13.0 21.2 12.95 21.25 12.95 21.3 12.95 21.3 12.95 21.35 12.95 21.4 12.95 21.4 12.95 21.45 12.95 21.5 12.9 21.55 12.9 21.55 12.9 21.6 12.9 21.65 12.9 21.7 12.9 21.75 12.9 21.8 12.9 21.85 12.95 21.9 12.95 21.95 13.0 22.0 13.0 22.05 13.05 22.1 13.05 22.15 13.1 22.2 13.15 22.25 13.2 22.3 13.25 22.35 13.3 22.4 13.35 22.45 13.4 22.5 13.45 22.5 13.5 22.55 13.55 22.6 13.6 22.6 13.65 22.65 13.7 22.65 13.75 22.7 13.75 22.7 13.8 22.7 13.85 22.75 13.9 22.75 13.95 22.75 14.0 22.75 14.0 22.75 14.05 22.75 14.15 22.75 14.2 22.75 14.25 22.75 14.3 22.7 14.35 22.7 14.35 22.7 14.4 22.7 14.45 22.7 14.45 L22.7 14.45" fill="#ffffff" fill-rule="evenodd" stroke="none"/>
      <path d="M26.85 20.35 Q28.6 20.35 29.1 20.3 29.15 20.3 29.2 20.3 29.25 20.25 29.25 20.25 29.3 20.2 29.35 20.2 29.35 20.15 29.4 20.15 29.4 20.1 29.45 20.1 29.45 20.05 29.45 20.0 29.45 19.95 29.5 19.95 29.5 19.9 29.5 19.85 29.5 19.8 29.5 19.8 29.5 19.75 29.45 19.7 29.45 19.7 29.45 19.65 29.45 19.65 29.4 19.65 29.4 19.6 29.35 19.6 29.35 19.6 29.3 19.6 29.25 19.55 29.25 19.55 29.2 19.55 29.15 19.55 29.1 19.55 29.1 19.55 29.05 19.55 29.0 19.55 28.95 19.55 28.95 19.5 28.9 19.5 28.85 19.5 28.8 19.45 28.8 19.45 28.75 19.45 28.7 19.4 28.7 19.35 28.65 19.35 28.6 19.3 28.55 19.25 28.5 19.2 28.5 19.15 28.45 19.1 28.45 19.05 28.4 19.0 28.4 18.9 28.35 18.85 28.35 18.75 28.3 18.7 28.3 18.6 28.3 18.5 28.25 18.35 28.25 18.25 28.25 18.15 28.25 18.0 28.25 17.85 28.15 16.95 28.15 12.85 28.15 8.9 28.25 8.0 28.25 7.9 28.25 7.75 28.25 7.65 28.3 7.55 28.3 7.45 28.3 7.35 28.35 7.3 28.35 7.2 28.4 7.1 28.45 7.05 28.45 6.95 28.5 6.9 28.55 6.8 28.55 6.75 28.6 6.7 28.65 6.65 28.7 6.6 28.75 6.55 28.8 6.5 28.8 6.45 28.85 6.35 28.9 6.3 28.9 6.25 28.95 6.2 28.95 6.15 29.0 6.1 29.0 6.05 29.0 6.0 29.05 5.95 29.05 5.9 29.05 5.85 29.1 5.75 29.1 5.7 29.1 5.65 29.1 5.6 29.1 5.6 29.1 5.55 29.05 5.5 29.05 5.5 29.05 5.45 29.0 5.45 29.0 5.4 28.95 5.4 28.95 5.4 28.9 5.35 28.9 5.35 28.85 5.35 28.8 5.35 28.55 5.35 26.85 6.3 26.65 6.4 26.45 6.5 26.25 6.65 26.1 6.75 25.95 6.85 25.85 6.95 25.7 7.0 25.6 7.1 25.5 7.2 25.4 7.25 25.35 7.35 25.3 7.4 25.25 7.5 25.2 7.55 25.2 7.6 25.2 7.65 25.2 7.7 25.2 7.75 25.2 7.8 25.2 7.85 25.2 7.9 25.25 7.9 25.25 7.95 25.25 7.95 25.3 8.0 25.3 8.0 25.3 8.0 25.35 8.0 25.35 8.05 25.4 8.05 25.4 8.05 25.45 8.05 25.45 8.05 25.5 8.05 25.5 8.05 25.55 8.1 25.55 8.1 25.6 8.1 25.65 8.1 25.7 8.1 25.7 8.1 25.75 8.1 L26.35 8.1 26.35 19.1 25.6 19.45 Q25.5 19.5 25.45 19.55 25.4 19.55 25.35 19.6 25.25 19.65 25.2 19.7 25.15 19.7 25.15 19.75 25.1 19.8 25.05 19.85 25.05 19.85 25.0 19.9 25.0 19.9 25.0 19.95 24.95 19.95 24.95 20.0 24.95 20.05 25.0 20.1 25.0 20.15 25.1 20.15 25.15 20.2 25.25 20.25 25.3 20.25 25.45 20.3 25.55 20.3 25.7 20.3 25.85 20.35 26.0 20.35 26.2 20.35 26.4 20.35 26.6 20.35 26.85 20.35 L26.85 20.35" fill="#ffffff" fill-rule="evenodd" stroke="none"/>
    </g>
  </defs>
</svg>
