<?xml version="1.0" encoding="UTF-8" standalone="no"?>
<svg xmlns:ffdec="https://www.free-decompiler.com/flash" xmlns:xlink="http://www.w3.org/1999/xlink" ffdec:objectType="frame" height="26.55px" width="70.8px" xmlns="http://www.w3.org/2000/svg">
  <g transform="matrix(1.0, 0.0, 0.0, 1.0, 0.2, 0.4)">
    <use ffdec:characterId="3" height="26.0" transform="matrix(1.0, 0.0, 0.0, 1.0, 0.0, 0.0)" width="26.0" xlink:href="#shape0"/>
    <use ffdec:characterId="124" height="26.0" transform="matrix(1.0, 0.0, 0.0, 1.0, 0.0, 0.0)" width="26.0" xlink:href="#shape1"/>
    <use ffdec:characterId="124" height="26.0" transform="matrix(1.0, 0.0, 0.0, 1.0, 0.0, 0.0)" width="26.0" xlink:href="#shape1"/>
  </g>
  <defs>
    <g id="shape0" transform="matrix(1.0, 0.0, 0.0, 1.0, 0.0, 0.0)">
      <path d="M23.5 2.45 Q23.5 2.5 23.5 2.5 23.5 2.55 23.5 2.55 23.5 2.55 23.5 2.55 23.5 2.6 23.5 2.6 L23.5 4.05 22.85 3.8 23.5 4.5 23.5 5.25 22.95 5.25 23.5 6.45 23.5 7.1 23.3 8.15 23.5 7.8 23.5 9.55 22.85 9.85 23.15 10.05 23.75 9.8 23.75 8.05 23.5 8.4 23.75 7.35 23.75 6.7 23.2 5.5 23.75 5.5 23.75 4.75 23.1 4.05 23.75 4.3 23.75 2.85 Q23.75 2.8 23.75 2.8 23.75 2.7 23.75 2.65 23.75 2.55 23.7 2.55 23.7 2.5 23.65 2.5 23.6 2.5 23.5 2.45 L23.5 2.45 M23.5 10.4 L23.5 22.5 23.5 23.15 Q23.5 23.4 23.5 23.4 23.45 23.5 23.4 23.5 23.35 23.5 23.15 23.5 L22.5 23.5 21.85 23.5 20.95 23.5 21.0 23.75 22.1 23.75 22.75 23.75 23.4 23.75 Q23.65 23.75 23.7 23.75 23.75 23.7 23.75 23.4 L23.75 22.75 23.75 10.55 23.5 10.4 M20.7 22.75 L19.95 23.5 16.1 23.5 15.25 23.05 15.2 23.5 14.15 23.5 13.9 23.5 12.75 23.4 12.05 23.5 10.85 23.5 10.7 23.3 10.2 23.55 9.7 23.5 8.85 23.25 8.4 23.5 7.5 23.5 7.25 23.35 6.45 23.5 5.85 23.5 5.2 23.5 4.55 23.5 3.95 23.45 3.25 23.5 2.85 23.5 Q2.85 23.55 2.85 23.6 2.85 23.65 2.85 23.7 2.8 23.7 2.8 23.75 2.85 23.75 2.85 23.75 2.85 23.75 2.85 23.75 L3.5 23.75 4.2 23.7 4.8 23.75 5.45 23.75 6.05 23.75 6.7 23.75 7.45 23.6 7.75 23.75 8.65 23.75 9.1 23.5 9.9 23.75 10.45 23.8 10.95 23.55 11.1 23.75 12.3 23.75 13.0 23.65 14.1 23.75 14.4 23.75 15.4 23.75 15.5 23.3 16.35 23.75 20.15 23.75 20.75 23.2 20.7 22.75" fill="#000000" fill-opacity="0.0" fill-rule="evenodd" stroke="none"/>
      <path d="M2.6 2.2 L5.95 2.2 6.2 2.65 6.5 2.4 7.75 2.2 13.5 2.2 13.7 2.7 14.15 2.2 15.45 2.2 16.65 2.2 17.15 2.65 17.35 2.2 18.0 2.2 23.15 2.2 Q23.35 2.2 23.4 2.25 23.45 2.25 23.5 2.35 23.5 2.4 23.5 2.55 23.5 2.55 23.5 2.6 L23.5 4.05 22.85 3.8 23.5 4.5 23.5 5.25 22.95 5.25 23.5 6.45 23.5 7.1 23.3 8.15 23.5 7.8 23.5 9.55 22.85 9.85 23.5 10.3 23.5 22.5 23.5 23.15 Q23.5 23.4 23.5 23.4 23.45 23.5 23.4 23.5 23.35 23.5 23.15 23.5 L22.5 23.5 21.85 23.5 20.75 23.5 20.7 22.75 19.95 23.5 16.1 23.5 15.25 23.05 15.2 23.5 14.15 23.5 13.9 23.5 12.75 23.4 12.05 23.5 10.85 23.5 10.7 23.3 10.2 23.55 9.7 23.5 8.85 23.25 8.4 23.5 7.5 23.5 7.25 23.35 6.45 23.5 5.85 23.5 5.2 23.5 4.55 23.5 3.95 23.45 3.25 23.5 2.6 23.5 Q2.6 23.5 2.6 23.5 2.6 23.5 2.6 23.5 2.4 23.5 2.35 23.5 2.3 23.5 2.25 23.45 2.25 23.4 2.25 23.2 2.25 23.2 2.25 23.2 2.25 23.2 2.25 23.2 2.25 23.15 2.25 23.15 L2.25 17.7 3.05 17.5 2.25 16.75 2.25 16.1 2.25 15.45 2.25 14.45 2.65 14.15 2.25 13.9 2.25 10.65 2.65 10.45 2.25 9.9 2.25 9.0 2.25 8.35 2.25 7.7 2.75 7.2 2.25 6.85 2.25 2.6 Q2.25 2.55 2.25 2.55 2.25 2.4 2.25 2.35 2.3 2.25 2.35 2.25 2.4 2.2 2.55 2.2 2.55 2.2 2.6 2.2 2.6 2.2 2.6 2.2 2.6 2.2 2.6 2.2 L2.6 2.2" fill="#000000" fill-opacity="0.0" fill-rule="evenodd" stroke="none"/>
    </g>
    <g id="shape1" transform="matrix(1.0, 0.0, 0.0, 1.0, 0.0, 0.0)">
      <path d="M25.65 6.5 Q25.65 6.55 25.65 6.6 25.65 6.55 25.65 6.6 L25.65 7.5 25.25 7.35 25.65 7.75 25.65 8.25 25.3 8.2 25.65 8.95 25.65 9.35 25.5 10.0 25.65 9.8 25.65 10.85 25.25 11.05 25.45 11.2 25.8 11.0 25.8 9.95 25.65 10.15 25.8 9.5 25.8 9.1 25.45 8.35 25.8 8.4 25.8 7.95 25.4 7.5 25.8 7.65 25.8 6.75 Q25.8 6.75 25.8 6.75 25.8 6.75 25.8 6.75 25.8 6.65 25.8 6.6 25.8 6.55 25.75 6.55 25.7 6.55 25.65 6.5 L25.65 6.5 M25.65 11.4 L25.65 18.85 25.65 19.25 Q25.65 19.45 25.6 19.45 25.6 19.45 25.45 19.45 L25.05 19.45 24.65 19.45 24.1 19.45 24.1 19.6 24.8 19.6 25.2 19.6 25.6 19.6 Q25.75 19.6 25.75 19.6 25.8 19.6 25.8 19.4 L25.8 19.0 25.8 11.5 25.65 11.4 M23.9 19.0 L23.45 19.45 15.65 19.45 15.15 19.15 15.1 19.45 14.45 19.45 14.25 19.45 13.6 19.4 13.15 19.45 12.4 19.45 12.3 19.35 12.05 19.5 4.75 19.45 4.25 19.3 4.0 19.45 3.45 19.45 3.25 19.35 2.8 19.45 2.4 19.45 2.0 19.45 1.6 19.45 1.25 19.45 0.8 19.45 0.55 19.45 Q0.55 19.5 0.55 19.6 0.55 19.6 0.55 19.6 0.55 19.6 0.55 19.6 L0.95 19.6 1.4 19.6 1.75 19.6 2.15 19.6 2.55 19.6 2.95 19.6 3.4 19.5 3.6 19.6 4.1 19.6 11.35 19.6 11.85 19.6 12.15 19.65 12.45 19.5 12.55 19.6 13.3 19.6 13.75 19.55 14.4 19.6 14.6 19.6 15.2 19.6 15.3 19.3 15.8 19.6 23.6 19.6 23.95 19.3 23.9 19.0" fill="#ffffff" fill-rule="evenodd" stroke="none"/>
      <path d="M0.4 6.35 L2.5 6.35 2.65 6.65 2.8 6.45 3.6 6.35 8.75 6.35 8.85 6.65 9.1 6.35 9.95 6.35 17.95 6.35 18.3 6.65 18.4 6.35 18.8 6.35 25.45 6.35 Q25.55 6.35 25.6 6.35 25.65 6.4 25.65 6.45 25.65 6.45 25.65 6.6 25.65 6.6 25.65 6.6 L25.65 7.5 25.25 7.35 25.65 7.75 25.65 8.25 25.3 8.2 25.65 8.95 25.65 9.35 25.5 10.0 25.65 9.8 25.65 10.85 25.25 11.05 25.65 11.35 25.65 18.85 25.65 19.25 Q25.65 19.45 25.6 19.45 25.6 19.45 25.45 19.45 L25.05 19.45 24.65 19.45 23.95 19.45 23.9 19.0 23.45 19.45 15.65 19.45 15.15 19.15 15.1 19.45 14.45 19.45 14.25 19.45 13.6 19.4 13.15 19.45 12.4 19.45 12.3 19.35 12.05 19.5 4.75 19.45 4.25 19.3 4.0 19.45 3.45 19.45 3.25 19.35 2.8 19.45 2.4 19.45 2.0 19.45 1.6 19.45 1.25 19.45 0.8 19.45 0.4 19.45 Q0.4 19.45 0.4 19.45 0.4 19.45 0.4 19.45 0.25 19.45 0.2 19.45 0.2 19.45 0.2 19.3 0.2 19.3 0.2 19.25 0.2 19.25 0.2 19.25 0.2 19.25 0.2 19.25 L0.2 15.9 0.7 15.8 0.2 15.3 0.2 14.9 0.2 14.5 0.2 13.9 0.45 13.7 0.2 13.55 0.2 11.55 0.45 11.45 0.2 11.1 0.2 10.55 0.2 10.15 0.2 9.75 0.5 9.45 0.2 9.2 0.2 6.6 Q0.2 6.6 0.2 6.6 0.2 6.5 0.2 6.45 0.2 6.4 0.25 6.4 0.3 6.35 0.4 6.35 0.4 6.35 0.4 6.35 0.4 6.35 0.4 6.35 0.4 6.35 0.4 6.35 L0.4 6.35" fill="#000000" fill-rule="evenodd" stroke="none"/>
      <path d="M13.65 7.5 Q13.6 7.5 13.6 7.5 13.55 7.5 13.55 7.5 13.5 7.5 13.45 7.55 13.45 7.55 13.4 7.55 13.35 7.6 13.3 7.6 13.3 7.6 13.25 7.65 13.2 7.7 13.15 7.7 13.1 7.75 13.1 7.8 13.0 7.9 12.85 8.0 12.75 8.1 12.65 8.2 12.55 8.3 12.45 8.45 12.35 8.55 12.2 8.65 12.1 8.8 12.0 8.9 11.9 9.0 11.8 9.15 11.7 9.25 11.65 9.4 11.55 9.55 11.45 9.65 11.35 9.8 11.25 9.9 11.15 10.05 11.1 10.15 11.0 10.25 10.95 10.4 10.85 10.5 10.8 10.6 10.75 10.7 10.7 10.8 10.65 10.9 10.6 11.0 10.55 11.05 10.5 11.15 10.45 11.25 10.45 11.3 L9.9 12.8 9.25 11.2 Q9.15 10.95 9.1 10.75 9.0 10.55 8.9 10.35 8.8 10.2 8.75 10.0 8.65 9.85 8.55 9.7 8.5 9.55 8.4 9.4 8.3 9.25 8.25 9.15 8.15 9.0 8.1 8.9 8.0 8.85 7.95 8.75 7.8 8.6 7.65 8.45 7.55 8.35 7.4 8.25 7.25 8.1 7.15 8.05 7.05 7.95 6.9 7.85 6.8 7.8 6.7 7.75 6.6 7.7 6.5 7.65 6.4 7.6 6.3 7.6 6.2 7.6 6.1 7.6 6.05 7.6 6.05 7.6 6.0 7.6 6.0 7.6 5.95 7.6 5.95 7.6 5.9 7.6 5.9 7.65 5.85 7.65 5.85 7.65 5.8 7.7 5.75 7.7 5.75 7.7 5.7 7.75 5.7 7.75 5.65 7.8 5.6 7.85 5.55 7.9 5.5 7.95 5.45 8.0 5.4 8.1 5.4 8.15 5.35 8.2 5.35 8.3 5.3 8.35 5.3 8.45 5.25 8.5 5.25 8.6 5.25 8.7 5.2 8.8 5.2 8.85 5.2 8.95 5.2 9.0 5.2 9.0 5.2 9.05 5.25 9.05 5.25 9.05 5.3 9.1 5.3 9.1 5.35 9.1 5.35 9.15 5.4 9.15 5.45 9.15 5.5 9.15 5.55 9.2 5.6 9.2 5.65 9.2 5.7 9.2 L5.7 9.2 Q5.75 9.2 5.8 9.2 5.85 9.2 5.9 9.2 5.9 9.25 5.95 9.25 6.0 9.25 6.0 9.3 6.05 9.35 6.05 9.35 6.05 9.4 6.1 9.45 6.1 9.5 6.1 9.55 6.1 9.6 6.1 9.65 6.1 10.6 5.45 13.75 4.7 16.9 4.45 17.2 4.4 17.25 4.4 17.3 4.35 17.3 4.35 17.35 4.3 17.4 4.25 17.4 4.25 17.45 4.2 17.45 4.2 17.45 4.15 17.5 4.1 17.5 4.1 17.5 4.05 17.5 4.05 17.55 4.0 17.55 4.0 17.55 L3.95 17.55 Q3.9 17.55 3.85 17.55 3.8 17.55 3.75 17.55 3.75 17.6 3.7 17.6 3.65 17.65 3.65 17.65 3.6 17.7 3.55 17.75 3.5 17.8 3.5 17.8 3.5 17.85 3.45 17.9 3.45 17.9 3.45 17.95 3.45 18.0 3.45 18.0 3.4 18.05 3.4 18.05 3.4 18.1 3.45 18.15 3.45 18.2 3.5 18.25 3.5 18.25 3.55 18.3 3.55 18.3 3.6 18.35 3.65 18.35 3.75 18.35 3.8 18.4 3.9 18.4 4.0 18.4 4.1 18.45 4.2 18.45 4.3 18.45 4.45 18.45 4.6 18.45 4.7 18.45 4.85 18.45 6.1 18.45 6.65 18.35 6.7 18.35 6.75 18.35 6.8 18.3 6.85 18.3 6.9 18.3 6.9 18.25 6.95 18.25 6.95 18.25 7.0 18.2 7.0 18.2 7.05 18.15 7.05 18.15 7.05 18.1 7.1 18.1 7.1 18.05 7.1 18.0 7.1 17.95 7.1 17.95 7.1 17.9 7.05 17.85 7.05 17.85 7.0 17.8 7.0 17.75 6.95 17.75 6.95 17.7 6.9 17.7 6.85 17.65 6.8 17.65 6.75 17.6 6.7 17.6 6.65 17.6 6.55 17.55 L6.25 17.45 Q6.2 17.45 6.2 17.4 6.15 17.4 6.15 17.4 6.1 17.35 6.1 17.3 6.1 17.3 6.05 17.25 6.05 17.2 6.0 17.15 6.0 17.1 6.0 17.1 6.0 17.05 6.0 17.0 6.0 16.95 6.0 16.95 6.0 16.35 6.35 14.85 L7.3 10.75 7.75 11.8 Q8.35 13.05 9.1 16.45 9.1 16.5 9.15 16.55 9.15 16.6 9.2 16.65 9.2 16.7 9.25 16.75 9.25 16.8 9.3 16.8 9.3 16.85 9.35 16.9 9.4 16.9 9.45 16.9 9.45 16.95 9.5 16.95 9.55 16.95 9.6 16.95 9.65 16.95 9.7 16.95 9.75 16.95 9.75 16.9 9.8 16.9 9.85 16.9 9.85 16.85 9.9 16.8 9.95 16.8 9.95 16.75 10.0 16.7 10.0 16.65 10.05 16.6 10.05 16.55 10.1 16.5 10.1 16.45 11.0 13.0 11.4 12.25 11.8 11.5 12.1 11.0 12.2 11.15 12.7 13.85 13.15 16.7 13.15 16.85 L13.15 17.2 Q13.15 17.25 13.1 17.3 13.1 17.3 13.05 17.35 13.05 17.4 13.0 17.4 13.0 17.45 12.95 17.45 12.95 17.5 12.9 17.5 12.85 17.5 12.85 17.5 12.8 17.55 12.75 17.55 12.75 17.55 12.7 17.55 L12.6 17.55 Q12.55 17.55 12.55 17.55 12.5 17.55 12.45 17.55 12.45 17.55 12.4 17.6 12.35 17.6 12.35 17.6 12.3 17.6 12.3 17.65 12.25 17.65 12.2 17.65 12.2 17.7 12.15 17.7 12.15 17.75 12.1 17.75 12.1 17.8 12.05 17.8 12.05 17.85 12.0 17.85 12.0 17.9 12.0 17.95 12.0 17.95 12.0 18.0 12.0 18.05 12.0 18.05 12.0 18.1 12.0 18.1 12.0 18.15 12.0 18.2 12.0 18.2 12.05 18.25 12.05 18.3 12.1 18.3 12.15 18.35 12.2 18.35 12.3 18.4 12.4 18.4 12.5 18.45 12.65 18.45 12.75 18.45 12.95 18.5 13.1 18.5 13.3 18.5 13.5 18.5 13.7 18.5 13.95 18.5 14.2 18.5 14.45 18.5 14.7 18.5 14.9 18.5 15.1 18.5 15.3 18.5 15.45 18.45 15.65 18.45 15.75 18.45 15.9 18.4 16.0 18.4 16.1 18.4 16.2 18.35 16.25 18.3 16.3 18.3 16.35 18.25 16.35 18.2 16.35 18.15 16.35 18.1 16.35 18.05 16.35 18.0 16.35 17.95 16.3 17.9 16.3 17.9 16.25 17.85 16.25 17.8 16.2 17.75 16.15 17.7 16.1 17.7 16.05 17.65 15.95 17.6 15.9 17.55 15.8 17.55 15.75 17.5 15.65 17.45 15.6 17.45 15.6 17.45 15.55 17.4 15.5 17.4 15.45 17.4 15.45 17.35 15.4 17.35 15.4 17.3 15.35 17.3 15.3 17.25 15.3 17.2 15.25 17.2 15.25 17.15 15.2 17.1 15.2 17.05 15.2 17.05 15.05 16.75 14.3 13.3 13.6 9.95 13.6 9.55 13.6 9.5 13.6 9.45 13.6 9.4 13.65 9.35 13.65 9.3 13.65 9.3 13.7 9.25 13.7 9.25 13.7 9.2 13.75 9.2 13.75 9.15 13.8 9.15 13.85 9.15 13.9 9.15 13.9 9.15 13.95 9.15 14.0 9.15 14.05 9.15 14.15 9.15 14.2 9.15 14.2 9.15 14.25 9.1 14.3 9.1 14.35 9.1 14.35 9.1 14.4 9.05 14.4 9.05 14.4 9.0 14.45 9.0 14.45 9.0 14.45 8.95 14.45 8.95 14.45 8.8 14.4 8.7 14.4 8.6 14.35 8.5 14.35 8.4 14.3 8.3 14.3 8.2 14.25 8.15 14.25 8.05 14.2 8.0 14.2 7.9 14.2 7.85 14.15 7.8 14.15 7.8 14.1 7.75 14.1 7.7 14.1 7.65 14.05 7.65 14.05 7.65 14.0 7.6 14.0 7.6 13.95 7.55 13.95 7.55 13.9 7.55 13.9 7.55 13.85 7.5 13.8 7.5 13.8 7.5 13.75 7.5 13.75 7.5 13.7 7.5 13.65 7.5 L13.65 7.5 M19.1 9.05 Q18.9 9.05 18.75 9.05 18.6 9.05 18.45 9.05 18.3 9.05 18.2 9.05 18.05 9.05 17.95 9.05 17.85 9.05 17.8 9.1 17.7 9.1 17.65 9.1 17.6 9.1 17.55 9.15 17.55 9.15 17.5 9.15 17.45 9.2 17.45 9.2 17.45 9.25 17.4 9.3 17.4 9.35 17.4 9.35 17.4 9.4 17.4 9.4 17.4 9.45 17.45 9.5 17.45 9.5 17.5 9.55 17.5 9.55 17.55 9.6 17.55 9.65 17.6 9.65 17.65 9.7 17.7 9.7 17.75 9.75 17.8 9.8 17.85 9.8 17.95 9.85 18.0 9.9 18.05 9.9 18.15 9.95 18.2 10.0 18.25 10.05 18.25 10.1 18.3 10.15 18.35 10.2 18.4 10.25 18.4 10.3 18.45 10.35 18.45 10.4 18.45 10.45 18.45 10.5 18.45 10.6 18.45 10.65 18.45 10.7 18.45 10.8 18.4 10.9 18.4 11.05 18.35 11.15 18.3 11.3 18.25 11.45 18.15 11.6 18.1 11.8 18.0 12.0 17.9 12.2 17.75 12.4 17.65 12.6 17.5 12.85 17.35 13.1 17.2 13.4 17.05 13.65 16.9 13.9 16.8 14.15 16.65 14.35 16.55 14.6 16.45 14.8 16.35 15.0 16.3 15.15 16.2 15.35 16.15 15.5 16.1 15.65 16.05 15.75 16.0 15.9 16.0 16.0 15.95 16.1 15.95 16.15 15.95 16.2 15.95 16.2 15.95 16.25 16.0 16.25 16.0 16.3 16.0 16.3 16.05 16.35 16.05 16.35 16.1 16.4 16.1 16.4 16.15 16.4 16.2 16.4 16.2 16.4 16.25 16.45 16.3 16.45 16.35 16.45 16.4 16.45 16.45 16.45 16.5 16.45 16.55 16.4 16.65 16.4 16.7 16.35 16.8 16.35 16.85 16.3 16.95 16.3 17.05 16.25 17.15 16.2 17.25 16.15 17.35 16.1 17.5 16.05 17.6 16.0 17.75 15.95 18.8 15.5 19.1 15.4 19.1 15.6 19.05 15.95 19.05 16.4 19.05 16.45 19.05 16.5 19.05 16.6 19.05 16.65 19.05 16.7 19.05 16.75 19.05 16.8 19.05 16.85 19.0 16.9 19.0 16.95 19.0 17.0 19.0 17.05 19.0 17.1 18.95 17.1 18.95 17.15 18.95 17.15 18.95 17.2 18.95 17.2 18.9 17.25 18.9 17.3 18.85 17.3 18.8 17.35 18.8 17.35 18.75 17.4 18.7 17.4 18.65 17.45 18.6 17.45 18.55 17.5 18.5 17.5 18.45 17.55 18.4 17.6 18.35 17.6 18.3 17.65 18.25 17.7 18.2 17.7 18.15 17.75 18.1 17.75 18.05 17.8 18.0 17.8 17.95 17.85 17.95 17.9 17.9 17.9 17.9 17.95 17.85 17.95 17.85 18.0 17.8 18.05 17.8 18.05 17.8 18.1 17.8 18.15 17.8 18.2 17.85 18.25 17.85 18.25 17.95 18.3 18.0 18.35 18.1 18.35 18.2 18.4 18.3 18.4 18.45 18.45 18.6 18.45 18.75 18.5 18.95 18.5 19.15 18.5 19.4 18.5 19.6 18.5 19.85 18.5 20.1 18.5 20.35 18.5 20.55 18.5 20.75 18.5 20.95 18.45 21.1 18.45 21.3 18.45 21.4 18.4 21.55 18.4 21.65 18.35 21.75 18.35 21.8 18.3 21.85 18.25 21.9 18.2 21.95 18.2 21.95 18.15 21.95 18.1 21.95 18.1 21.9 18.05 21.9 18.0 21.9 18.0 21.85 17.95 21.85 17.9 21.8 17.9 21.8 17.85 21.75 17.8 21.7 17.8 21.65 17.75 21.6 17.7 21.55 17.7 21.5 17.65 21.45 17.65 21.4 17.6 21.35 17.6 21.3 17.55 21.25 17.55 21.15 17.5 21.15 17.5 21.1 17.45 21.05 17.45 21.0 17.4 20.95 17.35 20.95 17.35 20.9 17.3 20.85 17.3 20.85 17.25 20.8 17.25 20.8 17.2 20.8 17.2 20.75 17.15 20.75 17.1 20.75 17.1 20.7 17.05 20.7 17.0 20.7 17.0 20.7 16.95 20.7 16.9 20.65 16.85 20.65 16.8 20.65 16.75 20.65 16.7 20.65 16.65 20.65 16.6 20.65 16.55 L20.7 15.65 Q20.7 15.6 20.65 15.5 20.65 15.4 20.65 15.4 20.7 15.4 20.75 15.35 20.8 15.35 20.8 15.3 20.85 15.3 20.9 15.3 20.9 15.3 20.95 15.25 21.0 15.25 21.0 15.25 21.05 15.25 21.1 15.25 21.1 15.25 21.15 15.25 21.15 15.25 21.15 15.25 21.2 15.25 21.2 15.25 21.25 15.25 21.25 15.25 21.3 15.3 21.3 15.3 21.35 15.3 21.35 15.35 21.35 15.35 21.35 15.4 21.4 15.4 21.4 15.45 21.4 15.5 21.4 15.5 21.4 15.55 21.4 15.6 L21.35 16.05 Q21.35 16.1 21.35 16.15 21.35 16.2 21.4 16.25 21.4 16.3 21.4 16.35 21.45 16.35 21.45 16.4 21.5 16.4 21.5 16.45 21.55 16.45 21.6 16.45 21.6 16.5 21.65 16.5 21.7 16.5 21.75 16.5 21.8 16.5 21.95 16.45 22.05 16.45 22.1 16.4 22.15 16.4 22.2 16.35 22.3 16.35 22.35 16.3 22.4 16.25 22.4 16.25 22.45 16.2 22.5 16.15 22.5 16.1 22.55 16.05 22.55 16.0 22.55 15.9 22.6 15.85 22.6 15.8 22.6 15.75 22.6 15.75 22.6 15.7 22.55 15.7 22.55 15.65 22.55 15.6 22.55 15.6 22.5 15.55 22.5 15.5 22.5 15.5 22.45 15.45 22.45 15.4 22.4 15.35 22.4 15.35 22.35 15.3 22.35 15.25 22.3 15.15 22.25 15.1 22.15 15.05 22.1 15.0 22.05 14.95 22.0 14.9 21.9 14.85 21.85 14.8 21.8 14.75 21.75 14.7 21.65 14.7 21.6 14.65 21.55 14.65 21.45 14.6 21.4 14.6 21.35 14.6 L20.7 14.55 20.65 12.8 Q20.65 12.6 20.65 12.4 20.65 12.2 20.65 12.05 20.65 11.9 20.65 11.8 20.6 11.65 20.6 11.55 20.6 11.45 20.6 11.35 20.55 11.3 20.55 11.25 20.55 11.2 20.5 11.15 20.5 11.15 20.5 11.15 20.45 11.15 20.45 11.15 20.4 11.15 20.35 11.2 20.3 11.25 20.25 11.3 20.2 11.35 20.15 11.4 20.1 11.45 20.05 11.55 20.0 11.65 19.95 11.75 19.9 11.85 19.85 11.95 19.75 12.1 19.7 12.25 19.65 12.4 19.55 12.5 19.5 12.65 19.45 12.75 19.4 12.85 19.35 13.0 19.3 13.1 19.25 13.2 19.25 13.3 19.2 13.35 19.15 13.45 19.15 13.5 19.15 13.6 19.1 13.65 19.1 13.75 19.1 13.8 19.1 13.9 19.1 14.2 19.1 14.4 19.05 14.55 18.7 14.65 18.15 14.9 L17.15 15.3 17.45 14.9 Q18.2 13.75 19.4 11.65 19.95 10.65 20.25 10.05 20.55 9.5 20.55 9.35 20.55 9.3 20.55 9.3 20.5 9.25 20.45 9.2 20.4 9.2 20.35 9.15 20.3 9.15 20.2 9.1 20.1 9.1 20.0 9.1 19.85 9.05 19.7 9.05 19.6 9.05 19.45 9.05 19.25 9.05 19.1 9.05 L19.1 9.05" fill="#ffffff" fill-rule="evenodd" stroke="none"/>
    </g>
  </defs>
</svg>
