<?xml version="1.0" encoding="UTF-8" standalone="no"?>
<svg xmlns:ffdec="https://www.free-decompiler.com/flash" xmlns:xlink="http://www.w3.org/1999/xlink" ffdec:objectType="frame" height="26.55px" width="70.8px" xmlns="http://www.w3.org/2000/svg">
  <g transform="matrix(1.0, 0.0, 0.0, 1.0, 0.2, 0.4)">
    <use ffdec:characterId="3" height="26.0" transform="matrix(1.0, 0.0, 0.0, 1.0, 0.0, 0.0)" width="26.0" xlink:href="#shape0"/>
    <use ffdec:characterId="38" height="26.0" transform="matrix(1.0, 0.0, 0.0, 1.0, 0.0, 0.0)" width="26.0" xlink:href="#shape1"/>
    <use ffdec:characterId="38" height="26.0" transform="matrix(1.0, 0.0, 0.0, 1.0, 0.0, 0.0)" width="26.0" xlink:href="#shape1"/>
    <use ffdec:characterId="39" height="26.0" transform="matrix(1.0, 0.0, 0.0, 1.0, 0.0, 0.0)" width="26.0" xlink:href="#shape2"/>
    <use ffdec:characterId="39" height="26.0" transform="matrix(1.0, 0.0, 0.0, 1.0, 0.0, 0.0)" width="26.0" xlink:href="#shape2"/>
  </g>
  <defs>
    <g id="shape0" transform="matrix(1.0, 0.0, 0.0, 1.0, 0.0, 0.0)">
      <path d="M23.5 2.45 Q23.5 2.5 23.5 2.5 23.5 2.55 23.5 2.55 23.5 2.55 23.5 2.55 23.5 2.6 23.5 2.6 L23.5 4.05 22.85 3.8 23.5 4.5 23.5 5.25 22.95 5.25 23.5 6.45 23.5 7.1 23.3 8.15 23.5 7.8 23.5 9.55 22.85 9.85 23.15 10.05 23.75 9.8 23.75 8.05 23.5 8.4 23.75 7.35 23.75 6.7 23.2 5.5 23.75 5.5 23.75 4.75 23.1 4.05 23.75 4.3 23.75 2.85 Q23.75 2.8 23.75 2.8 23.75 2.7 23.75 2.65 23.75 2.55 23.7 2.55 23.7 2.5 23.65 2.5 23.6 2.5 23.5 2.45 L23.5 2.45 M23.5 10.4 L23.5 22.5 23.5 23.15 Q23.5 23.4 23.5 23.4 23.45 23.5 23.4 23.5 23.35 23.5 23.15 23.5 L22.5 23.5 21.85 23.5 20.95 23.5 21.0 23.75 22.1 23.75 22.75 23.75 23.4 23.75 Q23.65 23.75 23.7 23.75 23.75 23.7 23.75 23.4 L23.75 22.75 23.75 10.55 23.5 10.4 M20.7 22.75 L19.95 23.5 16.1 23.5 15.25 23.05 15.2 23.5 14.15 23.5 13.9 23.5 12.75 23.4 12.05 23.5 10.85 23.5 10.7 23.3 10.2 23.55 9.7 23.5 8.85 23.25 8.4 23.5 7.5 23.5 7.25 23.35 6.45 23.5 5.85 23.5 5.2 23.5 4.55 23.5 3.95 23.45 3.25 23.5 2.85 23.5 Q2.85 23.55 2.85 23.6 2.85 23.65 2.85 23.7 2.8 23.7 2.8 23.75 2.85 23.75 2.85 23.75 2.85 23.75 2.85 23.75 L3.5 23.75 4.2 23.7 4.8 23.75 5.45 23.75 6.05 23.75 6.7 23.75 7.45 23.6 7.75 23.75 8.65 23.75 9.1 23.5 9.9 23.75 10.45 23.8 10.95 23.55 11.1 23.75 12.3 23.75 13.0 23.65 14.1 23.75 14.4 23.75 15.4 23.75 15.5 23.3 16.35 23.75 20.15 23.75 20.75 23.2 20.7 22.75" fill="#ffffff" fill-rule="evenodd" stroke="none"/>
      <path d="M2.6 2.2 L5.95 2.2 6.2 2.65 6.5 2.4 7.75 2.2 13.5 2.2 13.7 2.7 14.15 2.2 15.45 2.2 16.65 2.2 17.15 2.65 17.35 2.2 18.0 2.2 23.15 2.2 Q23.35 2.2 23.4 2.25 23.45 2.25 23.5 2.35 23.5 2.4 23.5 2.55 23.5 2.55 23.5 2.6 L23.5 4.05 22.85 3.8 23.5 4.5 23.5 5.25 22.95 5.25 23.5 6.45 23.5 7.1 23.3 8.15 23.5 7.8 23.5 9.55 22.85 9.85 23.5 10.3 23.5 22.5 23.5 23.15 Q23.5 23.4 23.5 23.4 23.45 23.5 23.4 23.5 23.35 23.5 23.15 23.5 L22.5 23.5 21.85 23.5 20.75 23.5 20.7 22.75 19.95 23.5 16.1 23.5 15.25 23.05 15.2 23.5 14.15 23.5 13.9 23.5 12.75 23.4 12.05 23.5 10.85 23.5 10.7 23.3 10.2 23.55 9.7 23.5 8.85 23.25 8.4 23.5 7.5 23.5 7.25 23.35 6.45 23.5 5.85 23.5 5.2 23.5 4.55 23.5 3.95 23.45 3.25 23.5 2.6 23.5 Q2.6 23.5 2.6 23.5 2.6 23.5 2.6 23.5 2.4 23.5 2.35 23.5 2.3 23.5 2.25 23.45 2.25 23.4 2.25 23.2 2.25 23.2 2.25 23.2 2.25 23.2 2.25 23.2 2.25 23.15 2.25 23.15 L2.25 17.7 3.05 17.5 2.25 16.75 2.25 16.1 2.25 15.45 2.25 14.45 2.65 14.15 2.25 13.9 2.25 10.65 2.65 10.45 2.25 9.9 2.25 9.0 2.25 8.35 2.25 7.7 2.75 7.2 2.25 6.85 2.25 2.6 Q2.25 2.55 2.25 2.55 2.25 2.4 2.25 2.35 2.3 2.25 2.35 2.25 2.4 2.2 2.55 2.2 2.55 2.2 2.6 2.2 2.6 2.2 2.6 2.2 2.6 2.2 2.6 2.2 L2.6 2.2" fill="#000000" fill-rule="evenodd" stroke="none"/>
    </g>
    <g id="shape1" transform="matrix(1.0, 0.0, 0.0, 1.0, 0.0, 0.0)">
      <path d="M17.3 7.85 L19.25 7.85 Q19.35 7.8 19.45 7.8 19.55 7.75 19.65 7.7 19.7 7.7 19.8 7.65 19.85 7.6 19.9 7.55 19.95 7.5 20.0 7.5 20.05 7.45 20.05 7.4 20.1 7.35 20.1 7.3 20.1 7.25 20.1 7.2 20.0 7.1 19.95 7.0 19.85 6.95 19.75 6.85 19.65 6.8 19.55 6.75 19.45 6.65 19.35 6.65 19.25 6.6 19.1 6.55 19.0 6.5 18.9 6.5 18.75 6.45 18.65 6.45 18.5 6.45 18.4 6.45 18.35 6.45 18.3 6.45 18.3 6.45 18.25 6.45 18.2 6.45 18.15 6.45 18.15 6.45 18.1 6.45 L15.9 6.65 Q15.85 7.1 15.8 7.55 15.7 8.0 15.7 8.5 15.65 8.95 15.6 9.4 15.55 9.85 15.5 10.3 15.5 10.75 15.45 11.25 15.45 11.7 15.4 12.15 15.4 12.6 15.4 13.05 15.4 13.5 15.4 13.95 15.4 14.4 15.4 14.85 15.4 15.35 15.45 15.8 15.45 16.25 15.45 16.7 15.5 17.2 15.5 17.65 15.55 18.1 15.6 18.55 15.65 19.0 15.65 19.45 15.7 19.95 15.8 20.4 15.85 20.85 15.9 21.3 L18.15 21.45 18.45 21.45 Q18.6 21.45 18.7 21.45 18.85 21.4 18.95 21.4 19.05 21.4 19.15 21.35 19.25 21.3 19.3 21.3 19.4 21.25 19.45 21.2 19.5 21.15 19.55 21.1 19.6 21.05 19.6 20.95 19.6 20.9 19.6 20.85 19.6 20.8 19.55 20.7 19.55 20.65 19.5 20.6 19.45 20.55 19.4 20.5 19.4 20.45 19.35 20.4 19.3 20.35 19.25 20.3 19.15 20.25 19.1 20.25 19.05 20.2 19.0 20.2 18.9 20.15 18.85 20.15 L17.3 20.15 Q17.1 16.6 17.1 13.85 17.1 13.45 17.1 13.1 17.1 12.7 17.1 12.3 17.15 11.95 17.15 11.55 17.15 11.2 17.15 10.8 17.2 10.45 17.2 10.05 17.2 9.7 17.25 9.3 17.25 8.95 17.25 8.6 17.3 8.2 17.3 7.85 L17.3 7.85" fill="#ffffff" fill-rule="evenodd" stroke="none"/>
      <path d="M8.55 4.55 Q8.45 4.55 8.35 4.6 8.3 4.6 8.2 4.65 8.15 4.65 8.05 4.75 8.0 4.8 7.9 4.85 7.85 4.95 7.8 5.05 7.75 5.1 7.7 5.25 7.65 5.35 7.6 5.45 7.55 5.6 7.5 5.75 6.5 9.5 5.9 10.85 6.0 11.0 6.15 11.2 6.25 11.4 6.35 11.65 6.5 11.9 6.6 12.2 6.7 12.5 6.75 12.85 6.85 13.2 6.95 13.6 7.05 14.0 7.1 14.4 7.2 14.85 7.25 15.35 7.3 15.85 7.35 16.4 7.4 16.5 7.45 16.55 7.5 16.65 7.55 16.7 7.6 16.8 7.65 16.85 7.7 16.9 7.75 16.95 7.85 17.0 7.9 17.05 7.95 17.1 8.05 17.15 8.1 17.2 8.2 17.2 8.25 17.25 8.35 17.25 8.45 17.25 8.5 17.25 8.55 17.2 8.65 17.2 8.7 17.15 8.75 17.1 8.8 17.05 8.85 17.0 8.9 16.95 8.9 16.9 8.95 16.85 8.95 16.75 9.0 16.7 9.0 16.6 9.0 16.5 9.0 16.4 9.0 16.35 9.0 16.25 9.0 16.2 8.95 16.15 8.95 16.1 8.95 16.0 8.9 15.95 8.9 15.9 8.85 15.85 8.8 15.8 8.75 15.7 8.75 15.65 8.7 15.6 8.65 15.55 8.6 15.5 8.5 15.45 8.45 15.4 8.4 15.35 8.3 15.25 8.25 15.15 8.2 15.05 8.2 14.95 8.15 14.8 8.1 14.65 8.1 14.5 8.05 14.35 8.05 14.15 8.0 13.95 8.0 13.75 8.0 13.55 8.0 13.3 8.0 13.05 L8.0 12.95 Q8.0 12.7 8.0 12.45 7.95 12.2 7.95 12.0 7.95 11.8 7.9 11.65 7.9 11.45 7.85 11.3 7.85 11.15 7.8 11.05 7.75 10.95 7.7 10.85 7.65 10.75 7.6 10.7 7.55 10.65 7.5 10.6 7.55 10.55 7.55 10.5 7.6 10.45 7.6 10.4 7.65 10.3 7.65 10.25 7.7 10.15 7.75 10.1 7.75 10.0 7.8 9.9 7.8 9.85 7.85 9.75 7.85 9.6 7.9 9.5 7.9 9.4 7.95 9.3 L8.55 6.25 Q8.55 6.2 8.6 6.15 8.6 6.1 8.6 6.05 8.65 6.0 8.65 5.95 8.65 5.95 8.7 5.9 8.7 5.85 8.75 5.85 8.75 5.8 8.8 5.8 8.8 5.75 8.85 5.75 8.9 5.7 8.9 5.7 8.95 5.7 8.95 5.65 9.0 5.65 9.0 5.6 9.0 5.6 9.05 5.55 9.05 5.55 9.1 5.5 9.1 5.45 9.1 5.4 9.1 5.35 9.15 5.3 9.15 5.3 9.15 5.2 9.15 5.15 9.15 5.1 9.15 5.05 9.15 5.0 9.15 4.95 9.1 4.9 9.1 4.85 9.05 4.8 9.05 4.8 9.0 4.75 8.95 4.7 8.9 4.7 8.85 4.65 8.8 4.65 8.75 4.6 8.7 4.6 8.6 4.6 8.55 4.55 L8.55 4.55" fill="#ffffff" fill-rule="evenodd" stroke="none"/>
    </g>
  </defs>
</svg>
