<?xml version="1.0" encoding="UTF-8" standalone="no"?>
<svg xmlns:ffdec="https://www.free-decompiler.com/flash" xmlns:xlink="http://www.w3.org/1999/xlink" ffdec:objectType="frame" height="26.55px" width="70.8px" xmlns="http://www.w3.org/2000/svg">
  <g transform="matrix(1.0, 0.0, 0.0, 1.0, 0.2, 0.4)">
    <use ffdec:characterId="3" height="26.0" transform="matrix(1.0, 0.0, 0.0, 1.0, 0.0, 0.0)" width="26.0" xlink:href="#shape0"/>
    <use ffdec:characterId="126" height="26.0" transform="matrix(1.0, 0.0, 0.0, 1.0, 0.0, 0.0)" width="26.0" xlink:href="#shape1"/>
    <use ffdec:characterId="126" height="26.0" transform="matrix(1.0, 0.0, 0.0, 1.0, 0.0, 0.0)" width="26.0" xlink:href="#shape1"/>
  </g>
  <defs>
    <g id="shape0" transform="matrix(1.0, 0.0, 0.0, 1.0, 0.0, 0.0)">
      <path d="M23.5 2.45 Q23.5 2.5 23.5 2.5 23.5 2.55 23.5 2.55 23.5 2.55 23.5 2.55 23.5 2.6 23.5 2.6 L23.5 4.05 22.85 3.8 23.5 4.5 23.5 5.25 22.95 5.25 23.5 6.45 23.5 7.1 23.3 8.15 23.5 7.8 23.5 9.55 22.85 9.85 23.15 10.05 23.75 9.8 23.75 8.05 23.5 8.4 23.75 7.35 23.75 6.7 23.2 5.5 23.75 5.5 23.75 4.75 23.1 4.05 23.75 4.3 23.75 2.85 Q23.75 2.8 23.75 2.8 23.75 2.7 23.75 2.65 23.75 2.55 23.7 2.55 23.7 2.5 23.65 2.5 23.6 2.5 23.5 2.45 L23.5 2.45 M23.5 10.4 L23.5 22.5 23.5 23.15 Q23.5 23.4 23.5 23.4 23.45 23.5 23.4 23.5 23.35 23.5 23.15 23.5 L22.5 23.5 21.85 23.5 20.95 23.5 21.0 23.75 22.1 23.75 22.75 23.75 23.4 23.75 Q23.65 23.75 23.7 23.75 23.75 23.7 23.75 23.4 L23.75 22.75 23.75 10.55 23.5 10.4 M20.7 22.75 L19.95 23.5 16.1 23.5 15.25 23.05 15.2 23.5 14.15 23.5 13.9 23.5 12.75 23.4 12.05 23.5 10.85 23.5 10.7 23.3 10.2 23.55 9.7 23.5 8.85 23.25 8.4 23.5 7.5 23.5 7.25 23.35 6.45 23.5 5.85 23.5 5.2 23.5 4.55 23.5 3.95 23.45 3.25 23.5 2.85 23.5 Q2.85 23.55 2.85 23.6 2.85 23.65 2.85 23.7 2.8 23.7 2.8 23.75 2.85 23.75 2.85 23.75 2.85 23.75 2.85 23.75 L3.5 23.75 4.2 23.7 4.8 23.75 5.45 23.75 6.05 23.75 6.7 23.75 7.45 23.6 7.75 23.75 8.65 23.75 9.1 23.5 9.9 23.75 10.45 23.8 10.95 23.55 11.1 23.75 12.3 23.75 13.0 23.65 14.1 23.75 14.4 23.75 15.4 23.75 15.5 23.3 16.35 23.75 20.15 23.75 20.75 23.2 20.7 22.75" fill="#000000" fill-opacity="0.0" fill-rule="evenodd" stroke="none"/>
      <path d="M2.6 2.2 L5.95 2.2 6.2 2.65 6.5 2.4 7.75 2.2 13.5 2.2 13.7 2.7 14.15 2.2 15.45 2.2 16.65 2.2 17.15 2.65 17.35 2.2 18.0 2.2 23.15 2.2 Q23.35 2.2 23.4 2.25 23.45 2.25 23.5 2.35 23.5 2.4 23.5 2.55 23.5 2.55 23.5 2.6 L23.5 4.05 22.85 3.8 23.5 4.5 23.5 5.25 22.95 5.25 23.5 6.45 23.5 7.1 23.3 8.15 23.5 7.8 23.5 9.55 22.85 9.85 23.5 10.3 23.5 22.5 23.5 23.15 Q23.5 23.4 23.5 23.4 23.45 23.5 23.4 23.5 23.35 23.5 23.15 23.5 L22.5 23.5 21.85 23.5 20.75 23.5 20.7 22.75 19.95 23.5 16.1 23.5 15.25 23.05 15.2 23.5 14.15 23.5 13.9 23.5 12.75 23.4 12.05 23.5 10.85 23.5 10.7 23.3 10.2 23.55 9.7 23.5 8.85 23.25 8.4 23.5 7.5 23.5 7.25 23.35 6.45 23.5 5.85 23.5 5.2 23.5 4.55 23.5 3.95 23.45 3.25 23.5 2.6 23.5 Q2.6 23.5 2.6 23.5 2.6 23.5 2.6 23.5 2.4 23.5 2.35 23.5 2.3 23.5 2.25 23.45 2.25 23.4 2.25 23.2 2.25 23.2 2.25 23.2 2.25 23.2 2.25 23.2 2.25 23.15 2.25 23.15 L2.25 17.7 3.05 17.5 2.25 16.75 2.25 16.1 2.25 15.45 2.25 14.45 2.65 14.15 2.25 13.9 2.25 10.65 2.65 10.45 2.25 9.9 2.25 9.0 2.25 8.35 2.25 7.7 2.75 7.2 2.25 6.85 2.25 2.6 Q2.25 2.55 2.25 2.55 2.25 2.4 2.25 2.35 2.3 2.25 2.35 2.25 2.4 2.2 2.55 2.2 2.55 2.2 2.6 2.2 2.6 2.2 2.6 2.2 2.6 2.2 2.6 2.2 L2.6 2.2" fill="#000000" fill-opacity="0.0" fill-rule="evenodd" stroke="none"/>
    </g>
    <g id="shape1" transform="matrix(1.0, 0.0, 0.0, 1.0, 0.0, 0.0)">
      <path d="M25.65 6.5 Q25.65 6.55 25.65 6.6 25.65 6.55 25.65 6.6 L25.65 7.5 25.25 7.35 25.65 7.75 25.65 8.25 25.3 8.2 25.65 8.95 25.65 9.35 25.5 10.0 25.65 9.8 25.65 10.85 25.25 11.05 25.45 11.2 25.8 11.0 25.8 9.95 25.65 10.15 25.8 9.5 25.8 9.1 25.45 8.35 25.8 8.4 25.8 7.95 25.4 7.5 25.8 7.65 25.8 6.75 Q25.8 6.75 25.8 6.75 25.8 6.75 25.8 6.75 25.8 6.65 25.8 6.6 25.8 6.55 25.75 6.55 25.7 6.55 25.65 6.5 L25.65 6.5 M25.65 11.4 L25.65 18.85 25.65 19.25 Q25.65 19.45 25.6 19.45 25.6 19.45 25.45 19.45 L25.05 19.45 24.65 19.45 24.1 19.45 24.1 19.6 24.8 19.6 25.2 19.6 25.6 19.6 Q25.75 19.6 25.75 19.6 25.8 19.6 25.8 19.4 L25.8 19.0 25.8 11.5 25.65 11.4 M23.9 19.0 L23.45 19.45 15.65 19.45 15.15 19.15 15.1 19.45 14.45 19.45 14.25 19.45 13.6 19.4 13.15 19.45 12.4 19.45 12.3 19.35 12.05 19.5 4.75 19.45 4.25 19.3 4.0 19.45 3.45 19.45 3.25 19.35 2.8 19.45 2.4 19.45 2.0 19.45 1.6 19.45 1.25 19.45 0.8 19.45 0.55 19.45 Q0.55 19.5 0.55 19.6 0.55 19.6 0.55 19.6 0.55 19.6 0.55 19.6 L0.95 19.6 1.4 19.6 1.75 19.6 2.15 19.6 2.55 19.6 2.95 19.6 3.4 19.5 3.6 19.6 4.1 19.6 11.35 19.6 11.85 19.6 12.15 19.65 12.45 19.5 12.55 19.6 13.3 19.6 13.75 19.55 14.4 19.6 14.6 19.6 15.2 19.6 15.3 19.3 15.8 19.6 23.6 19.6 23.95 19.3 23.9 19.0" fill="#ffffff" fill-rule="evenodd" stroke="none"/>
      <path d="M0.4 6.35 L2.5 6.35 2.65 6.65 2.8 6.45 3.6 6.35 8.75 6.35 8.85 6.65 9.1 6.35 9.95 6.35 17.95 6.35 18.3 6.65 18.4 6.35 18.8 6.35 25.45 6.35 Q25.55 6.35 25.6 6.35 25.65 6.4 25.65 6.45 25.65 6.45 25.65 6.6 25.65 6.6 25.65 6.6 L25.65 7.5 25.25 7.35 25.65 7.75 25.65 8.25 25.3 8.2 25.65 8.95 25.65 9.35 25.5 10.0 25.65 9.8 25.65 10.85 25.25 11.05 25.65 11.35 25.65 18.85 25.65 19.25 Q25.65 19.45 25.6 19.45 25.6 19.45 25.45 19.45 L25.05 19.45 24.65 19.45 23.95 19.45 23.9 19.0 23.45 19.45 15.65 19.45 15.15 19.15 15.1 19.45 14.45 19.45 14.25 19.45 13.6 19.4 13.15 19.45 12.4 19.45 12.3 19.35 12.05 19.5 4.75 19.45 4.25 19.3 4.0 19.45 3.45 19.45 3.25 19.35 2.8 19.45 2.4 19.45 2.0 19.45 1.6 19.45 1.25 19.45 0.8 19.45 0.4 19.45 Q0.4 19.45 0.4 19.45 0.4 19.45 0.4 19.45 0.25 19.45 0.2 19.45 0.2 19.45 0.2 19.3 0.2 19.3 0.2 19.25 0.2 19.25 0.2 19.25 0.2 19.25 0.2 19.25 L0.2 15.9 0.7 15.8 0.2 15.3 0.2 14.9 0.2 14.5 0.2 13.9 0.45 13.7 0.2 13.55 0.2 11.55 0.45 11.45 0.2 11.1 0.2 10.55 0.2 10.15 0.2 9.75 0.5 9.45 0.2 9.2 0.2 6.6 Q0.2 6.6 0.2 6.6 0.2 6.5 0.2 6.45 0.2 6.4 0.25 6.4 0.3 6.35 0.4 6.35 0.4 6.35 0.4 6.35 0.4 6.35 0.4 6.35 0.4 6.35 0.4 6.35 L0.4 6.35" fill="#000000" fill-rule="evenodd" stroke="none"/>
      <path d="M13.9 7.5 Q13.85 7.5 13.85 7.5 13.8 7.5 13.75 7.5 13.7 7.5 13.7 7.55 13.65 7.55 13.6 7.55 13.6 7.6 13.55 7.6 13.5 7.6 13.45 7.65 13.4 7.7 13.4 7.7 13.35 7.75 13.3 7.8 13.2 7.9 13.1 8.0 12.95 8.1 12.85 8.2 12.75 8.3 12.65 8.45 12.55 8.55 12.45 8.65 12.35 8.8 12.25 8.9 12.15 9.0 12.05 9.15 11.95 9.25 11.85 9.4 11.75 9.55 11.65 9.65 11.55 9.8 11.45 9.9 11.35 10.05 11.3 10.15 11.2 10.25 11.15 10.4 11.05 10.5 11.0 10.6 10.95 10.7 10.9 10.8 10.85 10.9 10.8 11.0 10.75 11.05 10.7 11.15 10.7 11.25 10.65 11.3 L10.15 12.8 9.5 11.2 Q9.4 10.95 9.3 10.75 9.2 10.55 9.15 10.35 9.05 10.2 8.95 10.0 8.85 9.85 8.8 9.7 8.7 9.55 8.6 9.4 8.55 9.25 8.45 9.15 8.35 9.0 8.3 8.9 8.2 8.85 8.15 8.75 8.0 8.6 7.85 8.45 7.75 8.35 7.6 8.25 7.5 8.1 7.35 8.05 7.25 7.95 7.15 7.85 7.0 7.8 6.9 7.75 6.8 7.7 6.7 7.65 6.6 7.6 6.5 7.6 6.4 7.6 6.3 7.6 6.3 7.6 6.25 7.6 6.25 7.6 6.2 7.6 6.2 7.6 6.15 7.6 6.1 7.6 6.1 7.65 6.05 7.65 6.05 7.65 6.0 7.7 6.0 7.7 5.95 7.7 5.95 7.75 5.9 7.75 5.85 7.8 5.8 7.85 5.75 7.9 5.7 7.95 5.65 8.0 5.65 8.1 5.6 8.15 5.55 8.2 5.55 8.3 5.5 8.35 5.5 8.45 5.45 8.5 5.45 8.6 5.45 8.7 5.45 8.8 5.45 8.85 5.45 8.95 5.45 9.0 5.45 9.0 5.45 9.05 5.45 9.05 5.5 9.05 5.5 9.1 5.5 9.1 5.55 9.1 5.6 9.15 5.6 9.15 5.65 9.15 5.7 9.15 5.75 9.2 5.8 9.2 5.85 9.2 5.9 9.2 L5.95 9.2 Q6.0 9.2 6.05 9.2 6.1 9.2 6.1 9.2 6.15 9.25 6.2 9.25 6.2 9.25 6.25 9.3 6.25 9.35 6.25 9.35 6.3 9.4 6.3 9.45 6.3 9.5 6.3 9.55 6.35 9.6 6.35 9.65 6.3 10.7 5.65 13.75 4.95 16.85 4.7 17.2 4.65 17.25 4.65 17.3 4.6 17.3 4.55 17.35 4.55 17.4 4.5 17.4 4.45 17.45 4.45 17.45 4.4 17.45 4.35 17.5 4.35 17.5 4.3 17.5 4.3 17.5 4.25 17.55 4.2 17.55 4.2 17.55 L4.15 17.55 Q4.1 17.55 4.05 17.55 4.0 17.55 4.0 17.55 3.95 17.6 3.9 17.6 3.85 17.65 3.85 17.65 3.8 17.7 3.8 17.75 3.75 17.8 3.75 17.8 3.7 17.85 3.7 17.9 3.65 17.9 3.65 17.95 3.65 18.0 3.65 18.0 3.65 18.05 3.65 18.05 3.65 18.15 3.7 18.25 3.7 18.25 3.75 18.3 3.8 18.3 3.85 18.35 3.9 18.35 3.95 18.35 4.0 18.4 4.1 18.4 4.2 18.4 4.3 18.45 4.4 18.45 4.55 18.45 4.65 18.45 4.8 18.45 4.95 18.45 5.1 18.45 6.3 18.45 6.85 18.35 6.9 18.35 6.95 18.35 7.0 18.3 7.05 18.3 7.1 18.3 7.1 18.25 7.15 18.25 7.2 18.25 7.2 18.2 7.25 18.2 7.25 18.15 7.25 18.15 7.3 18.1 7.3 18.1 7.3 18.05 7.3 18.0 7.3 17.95 7.3 17.95 7.3 17.9 7.25 17.85 7.25 17.85 7.25 17.8 7.2 17.75 7.15 17.75 7.15 17.7 7.1 17.7 7.05 17.65 7.0 17.65 6.95 17.6 6.9 17.6 6.85 17.6 6.8 17.55 L6.5 17.45 Q6.45 17.45 6.4 17.4 6.4 17.4 6.35 17.4 6.35 17.35 6.3 17.3 6.3 17.3 6.25 17.25 6.25 17.2 6.25 17.15 6.2 17.1 6.2 17.1 6.2 17.05 6.2 17.0 6.2 16.95 6.2 16.95 6.2 16.35 6.6 14.85 L7.5 10.75 8.0 11.8 Q8.6 13.15 9.3 16.45 9.3 16.5 9.35 16.55 9.35 16.6 9.4 16.65 9.4 16.7 9.45 16.75 9.45 16.8 9.5 16.8 9.55 16.85 9.55 16.9 9.6 16.9 9.65 16.9 9.7 16.95 9.75 16.95 9.75 16.95 9.8 16.95 9.85 16.95 9.9 16.95 9.95 16.95 9.95 16.9 10.0 16.9 10.05 16.9 10.1 16.85 10.1 16.8 10.15 16.8 10.2 16.75 10.2 16.7 10.25 16.65 10.25 16.6 10.3 16.55 10.3 16.5 10.3 16.45 11.2 13.0 11.6 12.25 12.05 11.4 12.3 11.0 12.45 11.15 12.9 13.85 13.35 16.65 13.35 16.85 L13.35 17.2 Q13.35 17.25 13.3 17.3 13.3 17.3 13.25 17.35 13.25 17.4 13.25 17.4 13.2 17.45 13.15 17.45 13.15 17.5 13.1 17.5 13.1 17.5 13.05 17.5 13.0 17.55 13.0 17.55 12.95 17.55 12.9 17.55 L12.85 17.55 Q12.8 17.55 12.75 17.55 12.75 17.55 12.7 17.55 12.65 17.55 12.6 17.6 12.6 17.6 12.55 17.6 12.5 17.6 12.5 17.65 12.45 17.65 12.45 17.65 12.4 17.7 12.4 17.7 12.35 17.75 12.35 17.75 12.3 17.8 12.3 17.8 12.25 17.85 12.25 17.85 12.25 17.9 12.25 17.95 12.2 17.95 12.2 18.0 12.2 18.05 12.2 18.05 12.2 18.1 12.2 18.1 12.2 18.15 12.2 18.2 12.25 18.2 12.25 18.25 12.25 18.3 12.3 18.3 12.35 18.35 12.45 18.35 12.5 18.4 12.6 18.4 12.7 18.45 12.85 18.45 13.0 18.45 13.15 18.5 13.3 18.5 13.5 18.5 13.7 18.5 13.9 18.5 14.15 18.5 14.4 18.5 14.65 18.5 14.9 18.5 15.1 18.5 15.3 18.5 15.5 18.5 15.65 18.45 15.85 18.45 15.95 18.45 16.1 18.4 16.2 18.4 16.3 18.4 16.4 18.35 16.45 18.3 16.5 18.3 16.55 18.25 16.55 18.2 16.55 18.2 16.55 18.15 16.6 18.15 16.6 18.1 16.6 18.05 16.6 18.0 16.55 17.95 16.55 17.9 16.55 17.9 16.5 17.85 16.45 17.8 16.4 17.75 16.35 17.7 16.3 17.7 16.25 17.65 16.2 17.6 16.1 17.55 16.05 17.55 15.95 17.5 15.85 17.45 15.8 17.45 15.8 17.45 15.75 17.4 15.7 17.4 15.7 17.4 15.65 17.35 15.6 17.35 15.6 17.3 15.55 17.3 15.55 17.25 15.5 17.2 15.5 17.2 15.45 17.15 15.45 17.1 15.4 17.05 15.4 17.05 15.25 16.7 14.5 13.3 13.85 9.9 13.85 9.55 13.85 9.5 13.85 9.45 13.85 9.4 13.85 9.35 13.85 9.3 13.9 9.3 13.9 9.25 13.9 9.25 13.95 9.2 13.95 9.2 14.0 9.15 14.0 9.15 14.05 9.15 14.1 9.15 14.15 9.15 14.15 9.15 14.2 9.15 14.3 9.15 14.35 9.15 14.4 9.15 14.45 9.15 14.45 9.1 14.5 9.1 14.55 9.1 14.55 9.1 14.6 9.05 14.6 9.05 14.65 9.0 14.65 9.0 14.65 9.0 14.65 8.95 14.65 8.95 14.65 8.8 14.6 8.7 14.6 8.6 14.55 8.5 14.55 8.4 14.5 8.3 14.5 8.2 14.5 8.15 14.45 8.05 14.45 8.0 14.4 7.9 14.4 7.85 14.35 7.8 14.35 7.8 14.35 7.75 14.3 7.7 14.3 7.65 14.25 7.65 14.25 7.65 14.2 7.6 14.2 7.6 14.15 7.55 14.15 7.55 14.1 7.55 14.1 7.55 14.05 7.5 14.05 7.5 14.0 7.5 14.0 7.5 13.95 7.5 13.9 7.5 13.9 7.5 L13.9 7.5 M19.55 8.65 Q19.5 8.65 19.4 8.65 19.35 8.65 19.25 8.65 19.2 8.65 19.15 8.65 19.1 8.65 19.0 8.7 18.95 8.7 18.9 8.7 18.85 8.7 18.8 8.7 18.75 8.75 18.7 8.75 18.65 8.75 18.6 8.8 18.55 8.8 18.5 8.85 18.45 8.85 18.4 8.85 18.35 8.9 18.3 8.9 18.25 8.95 18.2 8.95 18.1 9.0 18.05 9.0 18.0 9.05 17.95 9.1 17.85 9.15 17.8 9.15 17.75 9.2 17.65 9.25 17.4 9.45 17.15 9.65 16.9 9.85 16.7 10.1 16.5 10.35 16.35 10.6 16.2 10.85 16.05 11.15 15.9 11.45 15.8 11.75 15.7 12.1 15.65 12.45 15.6 12.8 15.55 13.15 15.5 13.5 15.5 13.9 15.5 14.2 15.55 14.5 15.55 14.8 15.6 15.05 15.65 15.3 15.7 15.55 15.8 15.8 15.9 16.05 16.0 16.3 16.1 16.5 16.2 16.75 16.35 16.95 16.5 17.15 16.65 17.35 16.85 17.5 17.0 17.7 17.1 17.8 17.25 17.9 17.35 18.0 17.5 18.05 17.6 18.15 17.75 18.2 17.85 18.25 18.0 18.3 18.1 18.35 18.25 18.4 18.4 18.45 18.55 18.45 18.7 18.5 18.8 18.5 18.95 18.5 19.1 18.5 19.3 18.5 19.5 18.5 19.7 18.45 19.9 18.4 20.1 18.35 20.3 18.3 20.45 18.2 20.65 18.1 20.8 18.0 20.95 17.9 21.1 17.75 21.25 17.6 21.4 17.45 21.55 17.3 21.7 17.15 21.8 16.95 21.85 16.85 21.95 16.75 22.0 16.6 22.05 16.5 22.1 16.4 22.15 16.25 22.2 16.15 22.2 16.05 22.25 15.9 22.3 15.8 22.3 15.7 22.35 15.55 22.35 15.45 22.35 15.3 22.35 15.2 22.35 15.1 22.35 14.95 22.35 14.85 22.35 14.7 22.35 14.6 22.3 14.5 22.3 14.35 22.3 14.25 22.25 14.15 22.2 14.05 22.2 13.95 22.15 13.85 22.1 13.75 22.05 13.65 22.05 13.55 22.0 13.5 21.9 13.4 21.8 13.25 21.7 13.15 21.6 13.0 21.5 12.9 21.4 12.8 21.25 12.7 21.15 12.65 21.0 12.55 20.85 12.5 20.7 12.45 20.55 12.4 20.4 12.35 20.2 12.35 20.05 12.3 19.85 12.3 19.65 12.3 19.55 12.3 19.45 12.3 19.35 12.3 19.25 12.35 19.15 12.35 19.05 12.35 18.95 12.4 18.85 12.45 18.75 12.45 18.65 12.5 18.6 12.55 18.5 12.6 18.4 12.65 18.35 12.75 18.25 12.8 18.2 12.85 18.15 12.9 18.15 12.9 18.1 12.95 18.05 13.0 18.05 13.0 18.0 13.05 18.0 13.1 17.95 13.1 17.95 13.15 17.95 13.2 17.9 13.2 17.9 13.25 17.9 13.25 17.9 13.3 17.9 13.35 17.9 13.35 17.9 13.4 17.9 13.45 17.9 13.45 17.95 13.5 17.95 13.5 18.0 13.55 18.0 13.55 18.05 13.55 18.1 13.55 18.15 13.55 18.2 13.55 18.2 13.55 18.25 13.55 18.3 13.55 18.3 13.55 18.35 13.55 18.4 13.55 18.4 13.55 18.45 13.55 18.5 13.55 18.55 13.5 18.55 13.5 18.6 13.5 18.65 13.5 18.7 13.45 18.75 13.45 18.8 13.45 18.8 13.45 18.85 13.4 18.9 13.4 18.95 13.4 19.0 13.4 19.0 13.4 19.05 13.35 19.1 13.35 19.15 13.35 19.2 13.35 19.25 13.35 19.3 13.35 19.35 13.35 19.4 13.35 19.45 13.35 19.5 13.35 19.55 13.35 19.6 13.35 19.65 13.35 19.7 13.4 19.75 13.4 19.8 13.45 19.85 13.45 19.9 13.5 19.95 13.5 20.0 13.55 20.05 13.6 20.1 13.65 20.15 13.7 20.2 13.75 20.25 13.8 20.3 13.85 20.35 13.9 20.4 14.0 20.4 14.05 20.45 14.1 20.5 14.2 20.5 14.3 20.55 14.35 20.55 14.45 20.55 14.55 20.6 14.6 20.6 14.7 20.6 14.8 20.6 14.9 20.65 15.0 20.65 15.1 20.65 15.3 20.65 15.45 20.6 15.65 20.6 15.8 20.55 15.95 20.55 16.1 20.5 16.25 20.45 16.35 20.4 16.5 20.35 16.6 20.25 16.7 20.2 16.8 20.15 16.95 20.05 17.0 19.95 17.1 19.85 17.2 19.8 17.25 19.75 17.25 19.7 17.3 19.7 17.3 19.65 17.3 19.6 17.35 19.55 17.35 19.5 17.4 19.45 17.4 19.4 17.4 19.4 17.4 19.35 17.45 19.3 17.45 19.25 17.45 19.2 17.45 19.2 17.45 19.15 17.45 19.1 17.45 19.05 17.45 19.05 17.45 19.0 17.45 18.95 17.4 18.9 17.4 18.85 17.4 18.85 17.4 18.8 17.4 18.75 17.35 18.7 17.35 18.65 17.35 18.65 17.35 18.6 17.3 18.55 17.3 18.45 17.25 18.4 17.2 18.3 17.15 18.25 17.1 18.2 17.05 18.1 17.0 18.05 16.9 18.0 16.85 17.95 16.75 17.9 16.7 17.85 16.6 17.8 16.5 17.75 16.4 17.7 16.3 17.7 16.2 17.65 16.1 17.6 16.0 17.6 15.9 17.55 15.75 17.55 15.65 17.5 15.5 17.5 15.4 17.5 15.25 17.45 15.1 17.45 15.0 17.45 14.85 17.4 14.7 17.4 14.55 17.4 14.4 17.4 14.25 17.4 14.05 17.4 13.9 17.4 13.75 17.4 13.55 17.4 13.4 17.4 13.25 17.45 13.1 17.45 12.95 17.45 12.8 17.45 12.65 17.5 12.5 17.5 12.35 17.55 12.2 17.55 12.05 17.6 11.95 17.6 11.8 17.65 11.65 17.7 11.55 17.75 11.3 17.85 11.1 17.95 10.85 18.05 10.7 18.1 10.5 18.2 10.35 18.3 10.2 18.45 10.05 18.55 9.95 18.65 9.85 18.8 9.75 18.9 9.7 19.05 9.65 19.2 9.6 19.3 9.55 19.45 9.55 L19.8 9.55 Q19.85 9.55 19.9 9.55 19.95 9.55 20.0 9.55 20.0 9.6 20.05 9.6 20.1 9.6 20.1 9.6 20.15 9.65 20.15 9.65 20.2 9.7 20.2 9.7 20.2 9.7 20.2 9.75 20.25 9.8 20.25 9.8 20.25 9.85 20.25 9.85 20.2 9.9 20.2 9.9 20.2 9.95 20.2 10.0 20.15 10.0 20.15 10.05 20.15 10.1 20.1 10.15 20.1 10.2 20.05 10.2 20.05 10.25 20.05 10.3 20.0 10.35 20.0 10.4 20.0 10.4 20.0 10.45 20.0 10.5 20.0 10.55 20.0 10.6 20.0 10.65 20.0 10.7 20.0 10.75 20.0 10.75 20.0 10.8 20.05 10.85 20.05 10.9 20.1 10.95 20.1 11.05 20.15 11.1 20.2 11.15 20.25 11.2 20.3 11.25 20.35 11.3 20.4 11.3 20.45 11.35 20.55 11.35 20.6 11.4 20.65 11.4 20.75 11.45 20.8 11.45 20.9 11.45 21.0 11.45 21.0 11.45 21.05 11.45 21.1 11.45 21.1 11.45 21.15 11.45 21.15 11.4 21.2 11.4 21.25 11.4 21.3 11.35 21.35 11.35 21.35 11.3 21.4 11.3 21.45 11.25 21.5 11.25 21.55 11.2 21.6 11.15 21.65 11.1 21.7 11.1 21.75 11.05 21.75 11.0 21.8 10.95 21.85 10.95 21.85 10.9 21.9 10.85 21.9 10.8 21.95 10.75 21.95 10.7 21.95 10.65 21.95 10.6 22.0 10.55 22.0 10.5 22.0 10.45 22.0 10.35 22.0 10.25 21.95 10.15 21.95 10.05 21.95 9.95 21.9 9.85 21.85 9.8 21.8 9.7 21.8 9.6 21.75 9.55 21.7 9.45 21.6 9.4 21.55 9.3 21.5 9.25 21.4 9.2 21.35 9.15 21.25 9.1 21.15 9.05 21.1 8.95 21.0 8.9 20.9 8.9 20.8 8.85 20.65 8.8 20.55 8.75 20.45 8.75 20.35 8.7 20.2 8.7 20.1 8.7 19.95 8.65 19.8 8.65 19.7 8.65 19.55 8.65 L19.55 8.65" fill="#ffffff" fill-rule="evenodd" stroke="none"/>
    </g>
  </defs>
</svg>
