<?xml version="1.0" encoding="UTF-8" standalone="no"?>
<svg xmlns:ffdec="https://www.free-decompiler.com/flash" xmlns:xlink="http://www.w3.org/1999/xlink" ffdec:objectType="frame" height="26.55px" width="70.8px" xmlns="http://www.w3.org/2000/svg">
  <g transform="matrix(1.0, 0.0, 0.0, 1.0, 0.2, 0.4)">
    <use ffdec:characterId="3" height="26.0" transform="matrix(1.0, 0.0, 0.0, 1.0, 0.0, 0.0)" width="26.0" xlink:href="#shape0"/>
    <use ffdec:characterId="127" height="26.0" transform="matrix(1.0, 0.0, 0.0, 1.0, 0.0, 0.0)" width="26.0" xlink:href="#shape1"/>
    <use ffdec:characterId="127" height="26.0" transform="matrix(1.0, 0.0, 0.0, 1.0, 0.0, 0.0)" width="26.0" xlink:href="#shape1"/>
  </g>
  <defs>
    <g id="shape0" transform="matrix(1.0, 0.0, 0.0, 1.0, 0.0, 0.0)">
      <path d="M23.5 2.45 Q23.5 2.5 23.5 2.5 23.5 2.55 23.5 2.55 23.5 2.55 23.5 2.55 23.5 2.6 23.5 2.6 L23.5 4.05 22.85 3.8 23.5 4.5 23.5 5.25 22.95 5.25 23.5 6.45 23.5 7.1 23.3 8.15 23.5 7.8 23.5 9.55 22.85 9.85 23.15 10.05 23.75 9.8 23.75 8.05 23.5 8.4 23.75 7.35 23.75 6.7 23.2 5.5 23.75 5.5 23.75 4.75 23.1 4.05 23.75 4.3 23.75 2.85 Q23.75 2.8 23.75 2.8 23.75 2.7 23.75 2.65 23.75 2.55 23.7 2.55 23.7 2.5 23.65 2.5 23.6 2.5 23.5 2.45 L23.5 2.45 M23.5 10.4 L23.5 22.5 23.5 23.15 Q23.5 23.4 23.5 23.4 23.45 23.5 23.4 23.5 23.35 23.5 23.15 23.5 L22.5 23.5 21.85 23.5 20.95 23.5 21.0 23.75 22.1 23.75 22.75 23.75 23.4 23.75 Q23.65 23.75 23.7 23.75 23.75 23.7 23.75 23.4 L23.75 22.75 23.75 10.55 23.5 10.4 M20.7 22.75 L19.95 23.5 16.1 23.5 15.25 23.05 15.2 23.5 14.15 23.5 13.9 23.5 12.75 23.4 12.05 23.5 10.85 23.5 10.7 23.3 10.2 23.55 9.7 23.5 8.85 23.25 8.4 23.5 7.5 23.5 7.25 23.35 6.45 23.5 5.85 23.5 5.2 23.5 4.55 23.5 3.95 23.45 3.25 23.5 2.85 23.5 Q2.85 23.55 2.85 23.6 2.85 23.65 2.85 23.7 2.8 23.7 2.8 23.75 2.85 23.75 2.85 23.75 2.85 23.75 2.85 23.75 L3.5 23.75 4.2 23.7 4.8 23.75 5.45 23.75 6.05 23.75 6.7 23.75 7.45 23.6 7.75 23.75 8.65 23.75 9.1 23.5 9.9 23.75 10.45 23.8 10.95 23.55 11.1 23.75 12.3 23.75 13.0 23.65 14.1 23.75 14.4 23.75 15.4 23.75 15.5 23.3 16.35 23.75 20.15 23.75 20.75 23.2 20.7 22.75" fill="#000000" fill-opacity="0.0" fill-rule="evenodd" stroke="none"/>
      <path d="M2.6 2.2 L5.95 2.2 6.2 2.65 6.5 2.4 7.75 2.2 13.5 2.2 13.7 2.7 14.15 2.2 15.45 2.2 16.65 2.2 17.15 2.65 17.35 2.2 18.0 2.2 23.15 2.2 Q23.35 2.2 23.4 2.25 23.45 2.25 23.5 2.35 23.5 2.4 23.5 2.55 23.5 2.55 23.5 2.6 L23.5 4.05 22.85 3.8 23.5 4.5 23.5 5.25 22.95 5.25 23.5 6.45 23.5 7.1 23.3 8.15 23.5 7.8 23.5 9.55 22.85 9.85 23.5 10.3 23.5 22.5 23.5 23.15 Q23.5 23.4 23.5 23.4 23.45 23.5 23.4 23.5 23.35 23.5 23.15 23.5 L22.5 23.5 21.85 23.5 20.75 23.5 20.7 22.75 19.95 23.5 16.1 23.5 15.25 23.05 15.2 23.5 14.15 23.5 13.9 23.5 12.75 23.4 12.05 23.5 10.85 23.5 10.7 23.3 10.2 23.55 9.7 23.5 8.85 23.25 8.4 23.5 7.5 23.5 7.25 23.35 6.45 23.5 5.85 23.5 5.2 23.5 4.55 23.5 3.95 23.45 3.25 23.5 2.6 23.5 Q2.6 23.5 2.6 23.5 2.6 23.5 2.6 23.5 2.4 23.5 2.35 23.5 2.3 23.5 2.25 23.45 2.25 23.4 2.25 23.2 2.25 23.2 2.25 23.2 2.25 23.2 2.25 23.2 2.25 23.15 2.25 23.15 L2.25 17.7 3.05 17.5 2.25 16.75 2.25 16.1 2.25 15.45 2.25 14.45 2.65 14.15 2.25 13.9 2.25 10.65 2.65 10.45 2.25 9.9 2.25 9.0 2.25 8.35 2.25 7.7 2.75 7.2 2.25 6.85 2.25 2.6 Q2.25 2.55 2.25 2.55 2.25 2.4 2.25 2.35 2.3 2.25 2.35 2.25 2.4 2.2 2.55 2.2 2.55 2.2 2.6 2.2 2.6 2.2 2.6 2.2 2.6 2.2 2.6 2.2 L2.6 2.2" fill="#000000" fill-opacity="0.0" fill-rule="evenodd" stroke="none"/>
    </g>
    <g id="shape1" transform="matrix(1.0, 0.0, 0.0, 1.0, 0.0, 0.0)">
      <path d="M25.65 6.5 Q25.65 6.55 25.65 6.6 25.65 6.55 25.65 6.6 L25.65 7.5 25.25 7.35 25.65 7.75 25.65 8.25 25.3 8.2 25.65 8.95 25.65 9.35 25.5 10.0 25.65 9.8 25.65 10.85 25.25 11.05 25.45 11.2 25.8 11.0 25.8 9.95 25.65 10.15 25.8 9.5 25.8 9.1 25.45 8.35 25.8 8.4 25.8 7.95 25.4 7.5 25.8 7.65 25.8 6.75 Q25.8 6.75 25.8 6.75 25.8 6.75 25.8 6.75 25.8 6.65 25.8 6.6 25.8 6.55 25.75 6.55 25.7 6.55 25.65 6.5 L25.65 6.5 M25.65 11.4 L25.65 18.85 25.65 19.25 Q25.65 19.45 25.6 19.45 25.6 19.45 25.45 19.45 L25.05 19.45 24.65 19.45 24.1 19.45 24.1 19.6 24.8 19.6 25.2 19.6 25.6 19.6 Q25.75 19.6 25.75 19.6 25.8 19.6 25.8 19.4 L25.8 19.0 25.8 11.5 25.65 11.4 M23.9 19.0 L23.45 19.45 15.65 19.45 15.15 19.15 15.1 19.45 14.45 19.45 14.25 19.45 13.6 19.4 13.15 19.45 12.4 19.45 12.3 19.35 12.05 19.5 4.75 19.45 4.25 19.3 4.0 19.45 3.45 19.45 3.25 19.35 2.8 19.45 2.4 19.45 2.0 19.45 1.6 19.45 1.25 19.45 0.8 19.45 0.55 19.45 Q0.55 19.5 0.55 19.6 0.55 19.6 0.55 19.6 0.55 19.6 0.55 19.6 L0.95 19.6 1.4 19.6 1.75 19.6 2.15 19.6 2.55 19.6 2.95 19.6 3.4 19.5 3.6 19.6 4.1 19.6 11.35 19.6 11.85 19.6 12.15 19.65 12.45 19.5 12.55 19.6 13.3 19.6 13.75 19.55 14.4 19.6 14.6 19.6 15.2 19.6 15.3 19.3 15.8 19.6 23.6 19.6 23.95 19.3 23.9 19.0" fill="#ffffff" fill-rule="evenodd" stroke="none"/>
      <path d="M0.4 6.35 L2.5 6.35 2.65 6.65 2.8 6.45 3.6 6.35 8.75 6.35 8.85 6.65 9.1 6.35 9.95 6.35 17.95 6.35 18.3 6.65 18.4 6.35 18.8 6.35 25.45 6.35 Q25.55 6.35 25.6 6.35 25.65 6.4 25.65 6.45 25.65 6.45 25.65 6.6 25.65 6.6 25.65 6.6 L25.65 7.5 25.25 7.35 25.65 7.75 25.65 8.25 25.3 8.2 25.65 8.95 25.65 9.35 25.5 10.0 25.65 9.8 25.65 10.85 25.25 11.05 25.65 11.35 25.65 18.85 25.65 19.25 Q25.65 19.45 25.6 19.45 25.6 19.45 25.45 19.45 L25.05 19.45 24.65 19.45 23.95 19.45 23.9 19.0 23.45 19.45 15.65 19.45 15.15 19.15 15.1 19.45 14.45 19.45 14.25 19.45 13.6 19.4 13.15 19.45 12.4 19.45 12.3 19.35 12.05 19.5 4.75 19.45 4.25 19.3 4.0 19.45 3.45 19.45 3.25 19.35 2.8 19.45 2.4 19.45 2.0 19.45 1.6 19.45 1.25 19.45 0.8 19.45 0.4 19.45 Q0.4 19.45 0.4 19.45 0.4 19.45 0.4 19.45 0.25 19.45 0.2 19.45 0.2 19.45 0.2 19.3 0.2 19.3 0.2 19.25 0.2 19.25 0.2 19.25 0.2 19.25 0.2 19.25 L0.2 15.9 0.7 15.8 0.2 15.3 0.2 14.9 0.2 14.5 0.2 13.9 0.45 13.7 0.2 13.55 0.2 11.55 0.45 11.45 0.2 11.1 0.2 10.55 0.2 10.15 0.2 9.75 0.5 9.45 0.2 9.2 0.2 6.6 Q0.2 6.6 0.2 6.6 0.2 6.5 0.2 6.45 0.2 6.4 0.25 6.4 0.3 6.35 0.4 6.35 0.4 6.35 0.4 6.35 0.4 6.35 0.4 6.35 0.4 6.35 0.4 6.35 L0.4 6.35" fill="#000000" fill-rule="evenodd" stroke="none"/>
      <path d="M14.3 7.45 Q14.25 7.45 14.25 7.45 14.2 7.45 14.15 7.45 14.15 7.45 14.1 7.5 14.05 7.5 14.05 7.5 14.0 7.55 13.95 7.55 13.9 7.6 13.9 7.6 13.85 7.65 13.8 7.7 13.75 7.7 13.7 7.75 13.6 7.85 13.5 7.95 13.4 8.05 13.25 8.15 13.15 8.3 13.05 8.4 12.95 8.5 12.85 8.6 12.75 8.75 12.65 8.85 12.55 9.0 12.45 9.1 12.35 9.25 12.25 9.35 12.15 9.5 12.1 9.6 12.0 9.75 11.9 9.85 11.8 10.0 11.7 10.1 11.65 10.25 11.55 10.35 11.5 10.45 11.45 10.55 11.35 10.65 11.3 10.75 11.25 10.85 11.2 10.95 11.2 11.05 11.15 11.1 11.1 11.2 11.1 11.25 L10.55 12.75 9.9 11.15 Q9.8 10.95 9.7 10.7 9.65 10.5 9.55 10.3 9.45 10.15 9.35 9.95 9.3 9.8 9.2 9.65 9.1 9.5 9.05 9.35 8.95 9.2 8.85 9.1 8.8 9.0 8.7 8.9 8.65 8.8 8.55 8.7 8.4 8.55 8.3 8.45 8.15 8.3 8.0 8.2 7.9 8.1 7.8 8.0 7.65 7.9 7.55 7.85 7.45 7.75 7.3 7.7 7.2 7.65 7.1 7.6 7.0 7.6 6.9 7.55 6.8 7.55 6.75 7.55 6.7 7.55 6.7 7.55 6.65 7.55 6.65 7.55 6.6 7.55 6.6 7.55 6.55 7.6 6.5 7.6 6.5 7.6 6.45 7.65 6.45 7.65 6.4 7.65 6.4 7.7 6.35 7.7 6.3 7.75 6.3 7.75 6.25 7.8 6.2 7.85 6.15 7.9 6.1 8.0 6.05 8.05 6.05 8.1 6.0 8.2 5.95 8.25 5.95 8.3 5.9 8.4 5.9 8.5 5.9 8.55 5.85 8.65 5.85 8.75 5.85 8.85 5.85 8.95 5.85 8.95 5.85 9.0 5.85 9.0 5.9 9.05 5.9 9.05 5.9 9.05 5.95 9.1 5.95 9.1 6.0 9.1 6.05 9.1 6.05 9.1 6.1 9.15 6.15 9.15 6.2 9.15 6.25 9.15 6.35 9.15 L6.35 9.15 Q6.4 9.15 6.45 9.15 6.5 9.15 6.5 9.2 6.55 9.2 6.6 9.2 6.6 9.25 6.65 9.25 6.65 9.3 6.7 9.35 6.7 9.35 6.7 9.4 6.75 9.45 6.75 9.5 6.75 9.55 6.75 9.6 6.75 10.6 6.05 13.7 5.4 16.8 5.1 17.2 5.05 17.25 5.05 17.25 5.0 17.3 5.0 17.3 4.95 17.35 4.9 17.35 4.9 17.4 4.85 17.4 4.8 17.45 4.8 17.45 4.75 17.45 4.75 17.5 4.7 17.5 4.65 17.5 4.65 17.5 4.6 17.5 L4.6 17.5 Q4.55 17.5 4.5 17.5 4.45 17.5 4.4 17.5 4.35 17.55 4.35 17.55 4.3 17.6 4.25 17.6 4.25 17.65 4.2 17.7 4.15 17.75 4.15 17.8 4.1 17.8 4.1 17.85 4.1 17.9 4.1 17.9 4.05 17.95 4.05 17.95 4.05 18.0 4.05 18.0 4.05 18.05 4.05 18.1 4.1 18.15 4.1 18.2 4.1 18.25 4.15 18.25 4.2 18.25 4.25 18.3 4.3 18.3 4.35 18.35 4.45 18.35 4.5 18.35 4.6 18.4 4.7 18.4 4.8 18.4 4.95 18.4 5.05 18.4 5.2 18.4 5.35 18.4 5.5 18.4 6.15 18.4 6.6 18.4 7.0 18.35 7.25 18.3 7.3 18.3 7.35 18.3 7.4 18.25 7.45 18.25 7.5 18.25 7.55 18.25 7.6 18.2 7.6 18.2 7.65 18.15 7.65 18.15 7.7 18.15 7.7 18.1 7.7 18.05 7.7 18.05 7.7 18.0 7.7 18.0 7.7 17.95 7.7 17.9 7.7 17.9 7.7 17.85 7.65 17.8 7.65 17.75 7.6 17.75 7.6 17.7 7.55 17.7 7.5 17.65 7.5 17.65 7.45 17.6 7.4 17.6 7.35 17.55 7.25 17.55 7.2 17.5 L6.9 17.45 Q6.85 17.45 6.85 17.4 6.8 17.4 6.8 17.35 6.75 17.3 6.75 17.3 6.7 17.25 6.7 17.2 6.7 17.15 6.65 17.1 6.65 17.1 6.65 17.05 6.65 17.0 6.65 16.95 6.65 16.95 6.65 16.9 6.65 16.35 7.0 14.8 L7.9 10.7 8.4 11.8 Q9.0 13.0 9.75 16.4 9.75 16.45 9.8 16.5 9.8 16.6 9.8 16.6 9.85 16.65 9.85 16.7 9.9 16.75 9.9 16.8 9.95 16.8 10.0 16.85 10.0 16.85 10.05 16.9 10.1 16.9 10.15 16.9 10.2 16.9 10.25 16.9 10.3 16.9 10.35 16.9 10.35 16.9 10.4 16.9 10.45 16.85 10.5 16.85 10.5 16.8 10.55 16.8 10.55 16.75 10.6 16.7 10.65 16.65 10.65 16.6 10.7 16.6 10.7 16.5 10.7 16.45 10.75 16.4 11.6 13.0 12.05 12.2 12.1 12.1 12.15 12.0 12.2 11.95 12.2 11.85 12.25 11.75 12.3 11.7 12.35 11.6 12.4 11.55 12.45 11.45 12.5 11.4 12.5 11.3 12.55 11.25 12.6 11.15 12.65 11.1 12.7 11.0 12.7 10.95 12.85 11.1 13.3 13.8 13.75 16.55 13.75 16.85 L13.75 17.15 Q13.75 17.2 13.7 17.25 13.7 17.25 13.7 17.3 13.65 17.35 13.65 17.35 13.6 17.4 13.6 17.4 13.55 17.45 13.55 17.45 13.5 17.45 13.5 17.5 13.45 17.5 13.4 17.5 13.35 17.5 13.35 17.5 L13.25 17.5 Q13.2 17.5 13.2 17.5 13.15 17.5 13.1 17.5 13.05 17.5 13.05 17.55 13.0 17.55 12.95 17.55 12.95 17.55 12.9 17.6 12.9 17.6 12.85 17.65 12.85 17.65 12.8 17.65 12.8 17.7 12.75 17.7 12.7 17.75 12.7 17.75 12.7 17.8 12.65 17.85 12.65 17.85 12.65 17.9 12.65 17.9 12.65 17.95 12.6 18.0 12.6 18.0 12.6 18.05 12.65 18.1 12.65 18.1 12.65 18.15 12.65 18.2 12.65 18.2 12.65 18.25 12.7 18.25 12.75 18.3 12.85 18.3 12.9 18.35 13.0 18.35 13.15 18.4 13.25 18.4 13.4 18.45 13.55 18.45 13.75 18.45 13.9 18.45 14.1 18.45 14.35 18.5 14.55 18.5 14.8 18.5 15.05 18.5 15.3 18.5 15.5 18.5 15.7 18.45 15.9 18.45 16.1 18.45 16.25 18.45 16.4 18.4 16.55 18.4 16.65 18.35 16.75 18.35 16.8 18.3 16.9 18.3 16.95 18.25 16.95 18.2 17.0 18.15 17.0 18.15 17.0 18.05 17.0 18.0 17.0 17.95 17.0 17.9 16.95 17.9 16.95 17.85 16.9 17.8 16.9 17.75 16.85 17.7 16.8 17.7 16.75 17.65 16.65 17.6 16.6 17.55 16.55 17.55 16.45 17.5 16.4 17.45 16.3 17.45 16.25 17.45 16.2 17.4 16.2 17.4 16.15 17.4 16.1 17.35 16.1 17.35 16.05 17.3 16.0 17.3 16.0 17.25 15.95 17.2 15.95 17.2 15.9 17.15 15.9 17.1 15.85 17.05 15.85 17.05 15.8 17.0 15.65 16.65 14.95 13.3 14.25 9.95 14.25 9.5 14.25 9.45 14.25 9.4 14.25 9.35 14.25 9.3 14.3 9.3 14.3 9.25 14.3 9.2 14.35 9.2 14.35 9.15 14.4 9.15 14.4 9.15 14.45 9.1 14.5 9.1 14.5 9.1 14.55 9.1 14.6 9.1 14.65 9.1 14.7 9.1 14.75 9.1 14.8 9.1 14.85 9.1 14.9 9.1 14.95 9.05 14.95 9.05 15.0 9.05 15.0 9.0 15.05 9.0 15.05 9.0 15.05 8.95 15.05 8.95 15.05 8.9 15.05 8.9 15.05 8.8 15.0 8.65 15.0 8.55 15.0 8.45 14.95 8.35 14.95 8.25 14.9 8.15 14.9 8.1 14.9 8.0 14.85 7.95 14.85 7.9 14.8 7.85 14.8 7.8 14.75 7.75 14.75 7.7 14.75 7.7 14.7 7.65 14.7 7.65 14.65 7.6 14.65 7.6 14.6 7.55 14.6 7.55 14.55 7.5 14.55 7.5 14.5 7.5 14.5 7.5 14.45 7.45 14.45 7.45 14.4 7.45 14.35 7.45 14.35 7.45 14.3 7.45 L14.3 7.45 M21.45 8.5 Q21.4 8.5 21.4 8.5 21.35 8.5 21.3 8.5 21.25 8.55 21.2 8.55 21.15 8.6 21.1 8.6 21.05 8.65 21.0 8.7 20.95 8.75 20.9 8.75 20.85 8.8 20.8 8.8 20.75 8.85 20.7 8.85 20.65 8.9 20.65 8.9 20.6 8.9 20.55 8.9 20.55 8.9 20.5 8.9 20.5 8.9 20.45 8.9 L20.2 8.9 Q20.15 8.9 19.2 8.8 19.1 8.8 19.0 8.75 18.9 8.75 18.8 8.7 18.7 8.7 18.6 8.7 18.5 8.7 18.45 8.65 18.35 8.65 18.25 8.65 18.15 8.65 18.1 8.65 18.0 8.65 17.9 8.65 17.85 8.65 17.75 8.65 17.65 8.65 17.6 8.65 17.5 8.65 17.45 8.65 17.35 8.65 17.3 8.7 17.25 8.7 17.2 8.75 17.1 8.75 17.05 8.8 17.0 8.8 16.95 8.85 16.9 8.9 16.85 8.9 16.85 8.95 16.8 9.0 16.75 9.05 16.7 9.1 16.7 9.15 16.65 9.2 16.6 9.3 16.6 9.35 16.55 9.4 16.55 9.5 16.5 9.55 16.5 9.6 16.45 9.7 16.45 9.8 16.4 9.85 16.4 9.95 16.4 10.05 16.35 10.1 16.35 10.35 16.3 10.7 16.25 10.95 16.25 11.0 16.25 11.05 16.25 11.1 16.3 11.15 16.3 11.15 16.3 11.2 16.35 11.2 16.35 11.25 16.4 11.25 16.45 11.25 16.5 11.25 16.6 11.25 16.65 11.25 16.7 11.25 16.75 11.2 16.8 11.2 16.8 11.15 16.85 11.15 16.9 11.15 16.9 11.1 16.95 11.1 17.0 11.05 17.0 11.0 17.05 11.0 17.05 10.95 17.1 10.9 17.1 10.9 17.15 10.85 17.15 10.8 17.2 10.75 17.2 10.7 17.25 10.7 17.25 10.65 17.3 10.6 17.3 10.6 17.35 10.55 17.4 10.55 17.4 10.5 17.45 10.5 17.45 10.5 17.5 10.5 17.5 10.45 17.55 10.45 17.6 10.45 17.6 10.45 17.75 10.4 18.5 10.4 L19.9 10.4 Q19.95 10.4 20.0 10.4 20.05 10.4 20.05 10.4 20.1 10.4 20.15 10.4 20.15 10.4 20.2 10.4 20.25 10.4 20.25 10.4 20.3 10.4 20.3 10.4 20.3 10.4 20.35 10.4 20.55 10.2 20.7 10.1 20.6 10.6 20.45 10.9 20.45 10.95 20.4 11.05 20.35 11.15 20.25 11.25 20.15 11.4 20.05 11.55 19.95 11.65 19.85 11.85 19.7 12.0 19.55 12.2 L18.7 13.3 Q18.5 13.55 18.3 13.8 18.15 14.05 18.0 14.25 17.85 14.5 17.7 14.7 17.6 14.95 17.5 15.15 17.4 15.35 17.3 15.55 17.25 15.75 17.2 15.95 17.15 16.15 17.1 16.3 17.1 16.5 17.1 16.65 17.1 16.8 17.1 17.0 17.1 17.15 17.15 17.3 17.2 17.4 17.2 17.55 17.25 17.7 17.3 17.8 17.35 17.9 17.45 18.0 17.5 18.1 17.6 18.2 17.65 18.25 17.75 18.35 17.85 18.4 17.95 18.45 17.95 18.45 18.0 18.45 18.0 18.5 18.05 18.5 18.05 18.5 18.1 18.5 18.15 18.5 18.15 18.55 18.2 18.55 18.2 18.55 18.25 18.55 18.3 18.55 18.3 18.55 18.35 18.55 18.4 18.55 18.45 18.55 18.5 18.55 18.5 18.55 18.55 18.55 18.6 18.55 18.65 18.5 18.65 18.5 18.7 18.5 18.75 18.45 18.8 18.45 18.85 18.4 18.9 18.35 18.95 18.35 19.0 18.3 19.05 18.25 19.1 18.2 19.15 18.15 19.2 18.15 19.2 18.1 19.25 18.05 19.25 18.05 19.3 18.0 19.3 17.95 19.35 17.9 19.35 17.8 19.4 17.75 19.4 17.7 19.4 17.6 19.4 17.55 19.4 17.45 19.4 17.35 19.4 17.3 19.4 17.2 19.4 17.15 19.4 17.1 19.4 17.05 19.4 17.0 19.4 16.95 19.4 16.9 19.4 16.85 19.35 16.8 19.35 16.7 19.35 16.65 19.3 16.6 19.3 16.5 19.25 16.45 19.2 16.4 19.2 16.3 19.15 16.25 19.1 16.15 19.1 16.05 19.05 16.0 19.05 15.9 19.0 15.8 19.0 15.75 19.0 15.65 19.0 15.6 19.0 15.5 19.0 15.45 19.0 15.4 19.05 15.3 19.05 15.25 19.05 15.15 19.1 15.1 19.15 15.05 20.2 13.15 20.6 12.6 20.75 12.35 20.9 12.15 21.05 11.9 21.2 11.65 21.3 11.45 21.4 11.25 21.5 11.0 21.6 10.8 21.7 10.6 21.75 10.4 21.8 10.2 21.85 10.0 21.9 9.8 21.9 9.65 21.95 9.45 21.95 9.3 21.95 9.2 21.95 9.1 21.95 9.05 21.9 8.95 21.9 8.9 21.9 8.8 21.85 8.75 21.85 8.7 21.8 8.65 21.8 8.6 21.75 8.6 21.7 8.55 21.7 8.5 21.65 8.5 21.6 8.5 21.55 8.5 L21.45 8.5" fill="#ffffff" fill-rule="evenodd" stroke="none"/>
    </g>
  </defs>
</svg>
