<?xml version="1.0" encoding="UTF-8" standalone="no"?>
<svg xmlns:ffdec="https://www.free-decompiler.com/flash" xmlns:xlink="http://www.w3.org/1999/xlink" ffdec:objectType="frame" height="26.55px" width="70.8px" xmlns="http://www.w3.org/2000/svg">
  <g transform="matrix(1.0, 0.0, 0.0, 1.0, 0.2, 0.4)">
    <use ffdec:characterId="27" height="26.0" transform="matrix(1.0, 0.0, 0.0, 1.0, 0.0, 0.0)" width="41.75" xlink:href="#shape0"/>
    <use ffdec:characterId="130" height="26.0" transform="matrix(1.0, 0.0, 0.0, 1.0, 0.0, 0.0)" width="41.75" xlink:href="#shape1"/>
    <use ffdec:characterId="130" height="26.0" transform="matrix(1.0, 0.0, 0.0, 1.0, 0.0, 0.0)" width="41.75" xlink:href="#shape1"/>
  </g>
  <defs>
    <g id="shape0" transform="matrix(1.0, 0.0, 0.0, 1.0, 0.0, 0.0)">
      <path d="M41.4 2.45 Q41.4 2.5 41.4 2.5 41.4 2.55 41.4 2.55 41.4 2.55 41.4 2.6 L41.4 4.05 40.75 3.8 41.4 4.5 41.4 5.25 40.85 5.25 41.4 6.45 41.4 7.1 41.2 8.15 41.4 7.8 41.4 9.55 40.75 9.85 41.1 10.05 41.65 9.8 41.65 8.05 41.45 8.4 41.65 7.35 41.65 6.7 41.1 5.5 41.65 5.5 41.65 4.75 41.0 4.05 41.65 4.3 41.65 2.85 Q41.65 2.85 41.65 2.8 41.65 2.7 41.65 2.65 41.65 2.55 41.6 2.55 41.6 2.5 41.55 2.5 41.5 2.5 41.4 2.45 L41.4 2.45 M41.4 10.4 L41.4 22.5 41.4 23.15 Q41.4 23.4 41.4 23.4 41.4 23.5 41.3 23.5 41.3 23.5 41.05 23.5 L40.4 23.5 39.75 23.5 38.9 23.5 38.9 23.75 40.0 23.75 40.65 23.75 41.3 23.75 Q41.5 23.75 41.55 23.75 41.6 23.75 41.65 23.65 41.65 23.65 41.65 23.4 L41.65 22.75 41.65 10.55 41.4 10.4 M38.6 22.75 L37.85 23.5 25.15 23.5 24.3 23.05 24.25 23.5 23.2 23.5 22.9 23.5 21.8 23.4 21.1 23.5 19.9 23.5 19.75 23.3 19.25 23.55 7.45 23.5 6.65 23.25 6.2 23.5 5.3 23.5 5.05 23.35 4.25 23.5 3.65 23.5 3.0 23.5 2.35 23.5 1.75 23.45 1.05 23.5 0.65 23.5 Q0.65 23.65 0.6 23.75 0.65 23.75 0.65 23.75 0.65 23.75 0.65 23.75 L1.3 23.75 2.0 23.7 2.6 23.75 3.2 23.75 3.85 23.75 4.5 23.75 5.25 23.6 5.55 23.75 6.45 23.75 18.15 23.75 18.95 23.75 19.5 23.8 20.0 23.55 20.1 23.75 21.35 23.75 22.05 23.65 23.15 23.75 23.45 23.75 24.45 23.75 24.55 23.3 25.35 23.75 38.1 23.75 38.65 23.2 38.6 22.75" fill="#ffffff" fill-rule="evenodd" stroke="none"/>
      <path d="M0.4 2.2 L3.75 2.2 4.0 2.65 4.3 2.4 5.55 2.2 13.95 2.2 14.1 2.7 14.55 2.2 15.85 2.2 28.95 2.2 29.45 2.65 29.65 2.2 30.3 2.2 41.05 2.2 Q41.25 2.2 41.3 2.25 41.4 2.25 41.4 2.35 41.4 2.4 41.4 2.55 41.4 2.55 41.4 2.6 L41.4 4.05 40.75 3.8 41.4 4.5 41.4 5.25 40.85 5.25 41.4 6.45 41.4 7.1 41.2 8.15 41.4 7.8 41.4 9.55 40.75 9.85 41.4 10.3 41.4 22.5 41.4 23.15 Q41.4 23.4 41.4 23.4 41.4 23.5 41.3 23.5 41.3 23.5 41.05 23.5 L40.4 23.5 39.75 23.5 38.65 23.5 38.6 22.75 37.85 23.5 25.15 23.5 24.3 23.05 24.25 23.5 23.2 23.5 22.9 23.5 21.8 23.4 21.1 23.5 19.9 23.5 19.75 23.3 19.25 23.55 7.45 23.5 6.65 23.25 6.2 23.5 5.3 23.5 5.05 23.35 4.25 23.5 3.65 23.5 3.0 23.5 2.35 23.5 1.75 23.45 1.05 23.5 0.4 23.5 Q0.4 23.5 0.4 23.5 0.4 23.5 0.4 23.5 0.2 23.5 0.15 23.5 0.1 23.5 0.05 23.45 0.05 23.4 0.05 23.2 0.05 23.2 0.05 23.2 0.05 23.2 0.05 23.2 0.05 23.15 0.05 23.15 L0.05 17.7 0.85 17.5 0.05 16.75 0.05 16.1 0.05 15.45 0.05 14.45 0.45 14.15 0.05 13.9 0.05 10.65 0.45 10.45 0.05 9.9 0.05 9.0 0.05 8.35 0.05 7.7 0.55 7.2 0.05 6.85 0.05 2.6 Q0.05 2.55 0.05 2.55 0.05 2.4 0.05 2.35 0.1 2.25 0.15 2.25 0.2 2.2 0.35 2.2 0.35 2.2 0.4 2.2 0.4 2.2 0.4 2.2 0.4 2.2 0.4 2.2 L0.4 2.2" fill="#000000" fill-rule="evenodd" stroke="none"/>
    </g>
    <g id="shape1" transform="matrix(1.0, 0.0, 0.0, 1.0, 0.0, 0.0)">
      <path d="M15.0 10.0 L15.05 10.0 Q15.1 10.0 15.15 10.0 15.2 10.0 15.2 10.05 15.25 10.05 15.25 10.1 15.25 10.1 15.25 10.15 15.25 10.2 15.25 10.25 14.65 12.4 14.1 13.9 14.05 14.1 13.95 14.25 13.9 14.45 13.85 14.65 13.8 14.8 13.75 14.95 13.7 15.15 13.65 15.3 13.6 15.45 13.55 15.6 13.5 15.8 13.5 15.9 13.45 16.05 13.4 16.2 13.4 16.35 13.35 16.5 13.35 16.35 13.35 16.15 13.3 15.95 13.25 15.75 13.25 15.5 13.2 15.25 13.15 15.0 13.05 14.75 13.0 14.45 12.9 14.15 12.8 13.85 12.7 13.5 12.6 13.15 12.5 12.75 12.35 12.4 12.25 12.0 12.2 11.85 12.1 11.65 12.05 11.5 11.95 11.35 11.9 11.2 11.8 11.0 11.75 10.85 11.65 10.7 11.55 10.55 11.45 10.45 11.35 10.3 11.25 10.15 11.1 10.0 11.0 9.9 10.9 9.75 10.75 9.65 10.6 9.5 10.5 9.4 10.4 9.3 10.3 9.2 10.2 9.1 10.1 9.0 10.0 8.95 9.9 8.85 9.85 8.8 9.75 8.75 9.7 8.7 9.65 8.65 9.6 8.6 9.55 8.6 9.5 8.55 9.45 8.55 L9.4 8.55 Q9.35 8.55 9.35 8.55 9.3 8.6 9.25 8.6 9.25 8.6 9.2 8.6 9.15 8.65 9.15 8.65 9.1 8.7 9.05 8.7 9.05 8.75 9.0 8.8 8.95 8.8 8.9 8.85 8.9 8.9 8.85 8.95 L8.25 9.7 Q8.2 9.75 8.2 9.75 8.15 9.8 8.15 9.85 8.1 9.9 8.1 9.9 8.05 9.95 8.05 9.95 8.05 10.0 8.05 10.0 8.0 10.05 8.0 10.05 8.0 10.05 8.0 10.05 8.0 10.1 8.0 10.1 8.0 10.1 8.0 10.15 8.05 10.2 8.05 10.2 8.1 10.25 8.1 10.3 8.15 10.3 8.15 10.35 8.2 10.35 8.25 10.35 8.25 10.4 8.3 10.4 8.35 10.4 8.4 10.4 8.45 10.4 8.5 10.4 8.5 10.4 8.55 10.4 8.6 10.4 8.65 10.4 8.7 10.35 8.7 10.35 8.75 10.35 8.8 10.35 8.85 10.35 8.85 10.35 8.9 10.3 8.95 10.35 9.0 10.35 9.05 10.35 9.1 10.35 9.15 10.35 9.15 10.35 9.2 10.4 9.35 10.45 9.5 10.55 9.6 10.6 9.75 10.65 9.85 10.75 9.95 10.85 10.05 10.95 10.1 11.0 10.15 11.1 10.25 11.25 10.3 11.35 10.3 11.45 10.35 11.55 10.4 11.7 10.4 11.8 10.4 11.95 10.4 12.0 10.4 12.1 10.4 12.2 10.35 12.3 10.35 12.4 10.3 12.55 10.25 12.7 10.2 12.85 10.2 13.0 10.15 13.15 10.05 13.3 10.0 13.5 9.95 13.7 9.85 13.95 9.8 14.15 9.7 14.4 L8.95 16.45 Q8.9 16.1 8.85 15.8 8.8 15.5 8.75 15.2 8.7 14.9 8.6 14.6 8.55 14.3 8.5 14.05 8.45 13.8 8.35 13.55 8.3 13.3 8.2 13.1 8.15 12.85 8.05 12.65 8.0 12.45 7.9 12.25 7.8 12.05 7.7 11.85 7.6 11.65 7.5 11.45 7.4 11.25 7.25 11.05 7.15 10.85 7.0 10.65 6.85 10.4 6.65 10.2 6.5 10.0 6.35 9.75 6.15 9.55 5.95 9.35 5.75 9.1 5.55 8.9 5.5 8.8 5.4 8.75 5.35 8.7 5.3 8.65 5.25 8.6 5.2 8.55 5.15 8.5 5.15 8.5 5.1 8.45 5.05 8.45 5.05 8.45 5.0 8.45 5.0 8.45 4.95 8.45 4.85 8.4 4.85 8.5 4.8 8.5 4.7 8.5 4.6 8.55 4.15 9.25 3.55 10.0 3.55 10.0 3.5 10.0 3.5 10.05 3.45 10.05 3.45 10.1 3.45 10.1 3.5 10.15 3.5 10.15 3.55 10.2 3.65 10.2 3.7 10.2 3.8 10.25 3.9 10.25 4.0 10.25 4.15 10.3 4.3 10.3 4.45 10.35 4.55 10.4 4.7 10.5 4.85 10.55 5.0 10.7 5.15 10.8 5.25 10.95 5.4 11.15 5.55 11.3 5.7 11.5 5.85 11.75 5.95 11.95 6.1 12.25 6.25 12.5 6.4 12.8 6.55 13.1 6.65 13.4 6.8 13.7 6.9 14.0 7.0 14.3 7.1 14.6 7.2 14.9 7.3 15.2 7.4 15.5 7.45 15.8 7.55 16.1 7.6 16.4 7.65 16.7 7.7 17.0 7.75 17.3 7.8 17.6 L7.9 18.7 8.8 18.75 Q8.8 18.8 8.85 18.8 8.9 18.8 8.95 18.8 L9.3 18.8 Q9.35 18.8 9.4 18.8 9.45 18.8 9.45 18.75 9.5 18.75 9.55 18.75 9.55 18.7 9.6 18.7 L9.85 17.7 10.0 17.15 Q10.45 15.65 10.75 14.8 11.05 14.05 11.2 13.55 11.4 14.1 11.45 14.2 11.45 14.25 11.7 15.1 11.8 15.65 12.05 17.1 12.05 17.25 12.1 17.4 12.1 17.5 12.15 17.65 12.15 17.75 12.2 17.85 12.2 18.0 12.25 18.05 12.25 18.15 12.3 18.25 12.3 18.3 12.3 18.35 12.35 18.4 12.35 18.45 12.4 18.5 12.4 18.5 12.4 18.55 12.45 18.55 12.5 18.6 12.5 18.6 12.55 18.6 12.6 18.65 12.65 18.65 12.7 18.65 12.75 18.7 12.8 18.7 12.85 18.7 12.9 18.7 13.0 18.7 13.05 18.7 13.1 18.7 13.2 18.7 L14.15 18.7 14.4 17.55 Q14.75 15.75 15.8 12.85 L17.0 9.4 Q17.0 9.35 17.05 9.3 17.05 9.25 17.1 9.2 17.1 9.15 17.1 9.15 17.1 9.1 17.15 9.05 17.15 9.0 17.15 9.0 17.15 8.95 17.15 8.9 17.15 8.9 17.15 8.85 17.15 8.85 17.15 8.8 17.15 8.75 17.15 8.75 17.15 8.7 17.1 8.7 17.1 8.65 17.05 8.65 17.05 8.6 17.0 8.6 17.0 8.6 16.95 8.6 16.9 8.55 16.9 8.55 16.85 8.55 16.8 8.55 16.75 8.55 16.7 8.55 16.65 8.55 16.55 8.5 16.5 8.5 16.4 8.5 16.35 8.5 16.25 8.5 16.15 8.5 16.05 8.5 15.25 8.5 15.1 8.45 15.05 8.45 15.0 8.4 15.0 8.4 14.95 8.35 14.9 8.35 14.9 8.3 14.85 8.3 14.85 8.25 14.8 8.2 14.8 8.15 14.8 8.1 14.75 8.05 14.75 8.05 14.75 8.0 14.7 7.95 14.7 7.95 14.7 7.9 14.65 7.9 14.65 7.9 14.6 7.85 14.55 7.85 14.55 7.85 14.5 7.8 14.5 7.8 14.45 7.8 14.4 7.8 14.35 7.8 14.35 7.8 14.3 7.8 14.25 7.85 14.25 7.85 14.2 7.9 14.15 7.9 14.15 7.95 14.1 7.95 14.05 8.0 14.05 8.05 14.0 8.05 14.0 8.1 13.95 8.15 13.95 8.2 13.9 8.25 13.9 8.3 13.85 8.35 13.85 8.4 13.8 8.45 13.8 8.5 13.8 8.55 13.8 8.6 13.75 8.6 13.75 8.65 13.75 8.7 13.65 8.9 13.7 8.7 13.7 8.75 13.7 8.75 13.7 8.75 13.7 8.75 13.65 8.8 13.6 9.15 13.6 9.2 13.6 9.25 13.55 9.3 13.55 9.35 13.55 9.4 13.55 9.45 13.55 9.45 13.55 9.5 13.55 9.55 13.55 9.55 13.6 9.6 13.6 9.6 13.6 9.65 13.65 9.65 13.65 9.7 13.7 9.75 13.75 9.75 13.8 9.8 13.85 9.85 13.95 9.85 14.0 9.9 14.1 9.9 14.2 9.95 14.3 9.95 14.4 9.95 14.5 10.0 14.6 10.0 14.75 10.0 14.9 10.0 15.0 10.0 L15.0 10.0" fill="#ffffff" fill-rule="evenodd" stroke="none"/>
      <path d="M17.7 9.2 L18.15 9.2 18.15 17.7 17.6 17.95 Q17.55 18.0 17.5 18.0 17.4 18.05 17.4 18.1 17.35 18.1 17.3 18.15 17.25 18.2 17.2 18.2 17.2 18.25 17.15 18.25 17.15 18.3 17.15 18.3 17.1 18.35 17.1 18.35 17.1 18.4 17.1 18.4 17.1 18.45 17.1 18.45 17.15 18.5 17.2 18.55 17.25 18.55 17.3 18.55 17.35 18.6 17.45 18.6 17.55 18.65 17.65 18.65 17.75 18.65 17.9 18.65 18.0 18.65 18.15 18.7 18.3 18.7 18.5 18.7 19.95 18.65 20.25 18.65 20.3 18.65 20.35 18.65 20.35 18.6 20.4 18.6 20.45 18.6 20.45 18.55 20.5 18.55 20.5 18.55 20.55 18.5 20.55 18.5 20.55 18.45 20.6 18.45 20.6 18.4 20.6 18.4 20.6 18.35 20.6 18.35 20.6 18.3 20.6 18.3 20.6 18.25 20.55 18.25 20.55 18.2 20.55 18.2 20.5 18.15 20.5 18.15 20.45 18.1 20.45 18.1 20.4 18.05 20.35 18.05 20.35 18.05 20.3 18.0 20.25 18.0 20.2 18.0 20.15 18.0 20.1 17.95 20.05 17.95 20.0 17.9 19.95 17.9 19.9 17.85 19.9 17.85 19.85 17.8 19.8 17.75 19.8 17.7 19.75 17.65 19.7 17.6 19.7 17.55 19.7 17.5 19.65 17.45 19.65 17.4 19.55 17.15 19.55 15.9 19.55 15.75 19.55 15.6 19.55 15.45 19.55 15.35 19.6 15.2 19.6 15.1 19.6 14.95 19.6 14.85 19.6 14.75 19.65 14.65 19.65 14.55 19.65 14.45 19.7 14.35 19.7 14.25 19.7 14.15 19.75 14.1 19.75 14.05 19.75 14.0 19.8 14.0 19.8 13.95 19.85 13.9 19.85 13.85 19.9 13.8 19.9 13.8 19.95 13.75 20.0 13.7 20.0 13.65 20.05 13.6 20.1 13.6 20.15 13.55 20.2 13.5 20.25 13.45 20.3 13.4 20.35 13.35 20.4 13.35 20.45 13.3 20.5 13.25 20.55 13.25 20.6 13.2 20.65 13.2 20.7 13.15 20.75 13.15 20.8 13.15 20.85 13.1 20.9 13.1 20.95 13.1 21.05 13.1 21.1 13.1 21.15 13.1 21.2 13.1 21.25 13.1 21.3 13.1 21.35 13.1 21.4 13.15 21.45 13.15 21.5 13.15 21.5 13.2 21.55 13.2 21.6 13.25 21.65 13.25 21.7 13.3 21.75 13.3 21.8 13.35 21.85 13.4 21.9 13.45 21.95 13.5 21.95 13.5 22.0 13.55 22.05 13.6 22.05 13.65 22.1 13.75 22.15 13.8 22.15 13.85 22.2 13.95 22.2 14.0 22.2 14.1 22.25 14.15 22.25 14.25 22.3 14.35 22.3 14.45 22.4 15.25 22.4 15.75 22.4 15.85 22.4 15.9 22.4 15.95 22.4 16.05 22.4 16.1 22.4 16.2 22.4 16.25 22.4 16.35 22.4 16.4 22.35 16.45 22.35 16.55 22.35 16.6 22.35 16.7 22.35 16.75 22.35 16.85 22.3 16.9 22.3 17.0 22.3 17.05 22.3 17.15 22.25 17.2 22.25 17.25 22.25 17.3 22.25 17.4 22.25 17.45 22.25 17.5 22.2 17.5 22.2 17.55 22.2 17.6 22.2 17.65 22.15 17.65 22.15 17.7 22.15 17.7 22.15 17.75 22.1 17.75 22.1 17.8 22.1 17.8 22.05 17.8 22.05 17.85 22.0 17.85 22.0 17.9 22.0 17.9 21.95 17.9 21.95 17.95 21.9 17.95 21.85 17.95 21.85 17.95 21.8 18.0 21.75 18.0 21.7 18.0 21.65 18.05 21.6 18.05 21.6 18.05 21.55 18.1 21.5 18.1 21.5 18.15 21.45 18.15 21.4 18.2 21.4 18.2 21.4 18.25 21.35 18.3 21.35 18.3 21.35 18.35 21.35 18.4 21.35 18.45 21.35 18.5 21.35 18.55 21.35 18.6 21.4 18.65 21.45 18.65 21.45 18.7 21.5 18.7 21.55 18.75 21.55 18.75 21.65 18.75 21.7 18.75 21.8 18.75 21.9 18.75 22.0 18.75 22.1 18.75 22.25 18.75 22.6 18.75 22.85 18.75 23.15 18.75 23.4 18.75 23.65 18.75 23.85 18.7 24.05 18.7 24.2 18.65 24.4 18.65 24.5 18.6 24.6 18.6 24.7 18.55 24.8 18.5 24.85 18.45 24.85 18.45 24.85 18.4 24.85 18.4 24.85 18.35 24.85 18.35 24.85 18.3 24.8 18.3 24.8 18.25 24.75 18.25 24.75 18.2 24.7 18.15 24.7 18.15 24.65 18.1 24.6 18.1 24.55 18.05 24.5 18.05 24.45 18.0 24.35 17.95 L23.8 17.7 23.8 15.75 Q23.8 15.55 23.8 15.35 23.8 15.15 23.8 14.95 23.8 14.8 23.8 14.6 23.8 14.45 23.75 14.3 23.75 14.15 23.75 14.0 23.7 13.9 23.7 13.75 23.7 13.65 23.65 13.55 23.65 13.45 23.6 13.35 23.55 13.25 23.55 13.15 23.5 13.1 23.45 13.0 23.45 12.95 23.4 12.85 23.35 12.8 23.3 12.7 23.25 12.65 23.2 12.6 23.1 12.55 23.05 12.5 23.0 12.45 22.9 12.4 22.85 12.35 22.75 12.3 22.7 12.25 22.65 12.25 22.55 12.2 22.5 12.2 22.45 12.15 22.35 12.15 22.3 12.1 22.25 12.1 22.15 12.1 22.1 12.05 22.0 12.05 21.95 12.05 21.9 12.05 21.8 12.05 21.75 12.05 21.65 12.05 21.55 12.05 21.5 12.05 21.4 12.05 21.35 12.05 21.25 12.1 21.2 12.1 21.1 12.1 21.0 12.15 20.95 12.15 20.85 12.2 20.75 12.25 20.7 12.3 20.6 12.3 20.5 12.35 20.4 12.4 20.35 12.5 L19.55 12.9 19.55 10.7 Q19.6 9.15 19.6 8.8 19.6 8.75 19.6 8.7 19.65 8.65 19.65 8.6 19.65 8.55 19.7 8.5 19.7 8.45 19.7 8.4 19.75 8.35 19.75 8.3 19.8 8.25 19.8 8.2 19.85 8.15 19.9 8.1 19.9 8.05 19.95 8.0 20.0 7.95 20.0 7.9 20.05 7.9 20.05 7.85 20.1 7.8 20.15 7.75 20.15 7.7 20.15 7.7 20.2 7.65 20.2 7.6 20.2 7.55 20.25 7.5 20.25 7.5 20.25 7.45 20.25 7.4 20.25 7.35 20.25 7.3 20.25 7.3 20.25 7.25 20.25 7.2 20.25 7.2 20.25 7.15 20.25 7.15 20.25 7.15 20.2 7.1 20.2 7.1 20.2 7.1 20.15 7.05 20.15 7.05 20.1 7.05 20.1 7.05 20.05 7.05 20.0 7.05 20.0 7.05 19.95 7.05 19.9 7.1 19.8 7.1 19.75 7.15 19.65 7.2 19.55 7.25 19.45 7.25 19.35 7.35 19.25 7.4 19.15 7.45 19.0 7.5 18.85 7.6 18.7 7.65 18.55 7.75 18.4 7.85 18.25 7.95 18.1 8.0 18.0 8.1 17.85 8.15 17.75 8.25 17.65 8.3 17.6 8.4 17.5 8.45 17.45 8.5 17.4 8.6 17.35 8.65 17.3 8.7 17.25 8.75 17.25 8.8 17.25 8.85 17.25 8.9 17.25 8.9 17.25 8.95 17.3 9.0 17.3 9.0 17.3 9.05 17.35 9.05 17.35 9.1 17.4 9.1 17.45 9.15 17.45 9.15 17.5 9.15 17.55 9.15 17.6 9.2 17.65 9.2 17.7 9.2 L17.7 9.2" fill="#ffffff" fill-rule="evenodd" stroke="none"/>
      <path d="M24.95 13.2 Q24.9 13.3 24.8 13.35 24.75 13.45 24.7 13.55 24.65 13.6 24.6 13.7 24.55 13.75 24.5 13.85 24.45 13.9 24.4 14.0 24.35 14.05 24.35 14.1 24.3 14.2 24.25 14.25 24.25 14.3 24.2 14.4 24.2 14.45 24.15 14.5 24.15 14.6 24.15 14.65 24.15 14.7 24.1 14.8 24.1 14.85 24.1 14.9 24.1 15.0 24.1 15.05 24.05 15.1 24.05 15.2 24.05 15.25 24.05 15.3 24.05 15.4 24.05 15.45 24.05 15.6 24.05 15.75 24.05 15.9 24.1 16.05 24.1 16.2 24.1 16.35 24.15 16.45 24.15 16.6 24.2 16.7 24.25 16.85 24.3 16.95 24.3 17.05 24.35 17.15 24.4 17.25 24.45 17.35 24.5 17.45 24.6 17.65 24.75 17.8 24.9 17.95 25.0 18.1 25.15 18.25 25.3 18.35 25.45 18.5 25.65 18.6 25.8 18.65 26.0 18.75 26.15 18.8 26.35 18.85 26.55 18.9 26.75 18.95 26.95 18.95 27.15 18.95 27.3 18.95 27.45 18.95 27.55 18.95 27.7 18.9 27.85 18.9 27.95 18.85 28.1 18.8 28.2 18.75 28.35 18.7 28.45 18.65 28.6 18.6 28.7 18.5 28.85 18.45 28.95 18.35 29.05 18.3 29.2 18.2 29.25 18.15 29.3 18.1 29.35 18.05 29.4 18.0 29.45 17.9 29.5 17.85 29.55 17.8 29.6 17.8 29.6 17.75 29.65 17.7 29.65 17.65 29.65 17.6 29.7 17.55 29.7 17.55 29.7 17.5 29.7 17.45 29.7 17.4 29.7 17.4 29.7 17.35 29.7 17.35 29.65 17.3 29.65 17.3 29.65 17.3 29.6 17.25 29.6 17.25 29.6 17.25 29.55 17.25 29.5 17.2 29.5 17.2 29.45 17.2 29.45 17.2 29.4 17.2 29.35 17.2 29.35 17.2 29.3 17.2 29.25 17.2 29.25 17.25 29.2 17.25 29.15 17.25 29.1 17.3 29.05 17.3 29.05 17.35 29.0 17.35 28.95 17.4 28.9 17.4 28.85 17.45 28.8 17.45 28.7 17.5 28.65 17.55 28.6 17.6 28.55 17.6 28.45 17.65 28.4 17.7 28.3 17.7 28.25 17.75 28.15 17.75 28.1 17.75 28.0 17.8 27.9 17.8 27.85 17.8 27.75 17.8 27.65 17.8 27.55 17.85 27.45 17.85 27.35 17.85 27.25 17.85 27.15 17.8 27.1 17.8 27.0 17.8 26.9 17.75 26.85 17.75 26.75 17.7 26.7 17.65 26.6 17.6 26.55 17.55 26.45 17.5 26.4 17.45 26.35 17.4 26.3 17.35 26.25 17.3 26.2 17.25 26.15 17.2 26.1 17.15 26.1 17.1 26.05 17.05 26.0 17.0 26.0 16.95 25.95 16.85 25.9 16.8 25.9 16.75 25.85 16.7 25.85 16.65 25.8 16.6 25.8 16.5 25.8 16.45 25.75 16.4 27.1 15.8 27.7 15.5 29.05 14.6 29.35 14.5 29.4 14.45 29.45 14.45 29.5 14.4 29.5 14.4 29.55 14.35 29.55 14.35 29.6 14.3 29.6 14.3 29.65 14.25 29.65 14.25 29.65 14.2 29.65 14.15 29.65 14.15 29.65 14.1 29.65 14.1 29.65 14.05 29.6 14.0 29.6 14.0 29.6 13.95 29.55 13.95 29.5 13.9 29.5 13.9 29.45 13.85 29.45 13.85 29.45 13.8 29.4 13.7 29.4 13.65 29.35 13.55 29.35 13.5 29.3 13.4 29.3 13.35 29.25 13.3 29.2 13.2 29.2 13.15 29.15 13.1 29.1 13.05 29.05 12.95 29.0 12.9 28.95 12.85 28.85 12.75 28.8 12.7 28.7 12.65 28.65 12.55 28.55 12.5 28.45 12.4 28.35 12.35 28.3 12.3 28.25 12.3 28.2 12.25 28.15 12.2 28.1 12.2 28.0 12.15 27.95 12.15 27.9 12.15 27.8 12.1 27.75 12.1 27.65 12.1 27.55 12.1 27.5 12.05 27.4 12.05 27.3 12.05 27.2 12.05 27.05 12.05 26.9 12.05 26.75 12.1 26.6 12.15 26.45 12.15 26.3 12.2 26.15 12.3 26.0 12.35 25.9 12.4 25.75 12.5 25.6 12.6 25.5 12.7 25.35 12.8 25.2 12.95 25.1 13.05 24.95 13.2 L24.95 13.2 M27.9 14.15 Q27.9 14.2 27.85 14.25 27.8 14.3 27.75 14.35 27.7 14.4 27.65 14.45 27.6 14.5 27.55 14.55 27.5 14.6 27.4 14.65 27.35 14.7 27.25 14.75 27.2 14.8 27.1 14.85 27.0 14.9 26.9 15.0 25.9 15.5 25.6 15.55 25.6 15.5 25.55 15.45 25.55 15.4 25.55 15.3 25.55 15.2 25.55 15.1 25.55 15.0 25.55 14.85 25.55 14.7 25.55 14.55 25.55 14.4 25.6 14.25 25.6 14.1 25.65 14.0 25.7 13.85 25.75 13.75 25.8 13.65 25.9 13.55 25.95 13.45 26.05 13.4 26.15 13.3 26.25 13.2 26.35 13.15 26.45 13.1 26.5 13.1 26.55 13.05 26.55 13.05 26.6 13.05 26.65 13.05 26.7 13.0 26.7 13.0 26.75 13.0 26.8 13.0 26.8 13.0 26.85 13.0 26.85 12.95 26.9 12.95 26.9 12.95 27.05 12.95 27.05 12.95 27.1 12.95 27.1 12.95 27.15 12.95 27.2 12.95 27.2 12.95 27.25 12.95 27.3 13.0 27.35 13.0 27.35 13.0 27.4 13.05 27.45 13.05 27.5 13.1 27.5 13.15 27.55 13.15 27.6 13.2 27.65 13.25 27.7 13.3 27.7 13.35 27.75 13.35 27.8 13.4 27.8 13.45 27.85 13.45 27.85 13.5 27.9 13.55 27.9 13.6 27.9 13.6 27.9 13.65 27.95 13.7 27.95 13.7 27.95 13.75 27.95 13.8 27.95 13.8 27.95 13.85 27.95 13.9 27.95 13.95 27.95 14.0 27.95 14.0 27.95 14.05 27.95 14.1 27.9 14.1 27.9 14.15 27.9 14.15 L27.9 14.15" fill="#ffffff" fill-rule="evenodd" stroke="none"/>
      <path d="M30.55 13.2 Q30.5 13.3 30.4 13.35 30.35 13.45 30.3 13.55 30.25 13.6 30.2 13.7 30.15 13.75 30.1 13.85 30.05 13.9 30.0 14.0 29.95 14.05 29.9 14.1 29.9 14.2 29.85 14.25 29.8 14.3 29.8 14.4 29.8 14.45 29.75 14.5 29.75 14.6 29.75 14.65 29.7 14.7 29.7 14.8 29.7 14.85 29.7 14.9 29.65 15.0 29.65 15.05 29.65 15.1 29.65 15.2 29.65 15.25 29.65 15.3 29.65 15.4 29.65 15.45 29.65 15.6 29.65 15.75 29.65 15.9 29.65 16.05 29.7 16.2 29.7 16.35 29.75 16.45 29.75 16.6 29.8 16.7 29.8 16.85 29.85 16.95 29.9 17.05 29.95 17.15 30.0 17.25 30.05 17.35 30.1 17.45 30.2 17.65 30.35 17.8 30.45 17.95 30.6 18.1 30.75 18.25 30.9 18.35 31.05 18.5 31.2 18.6 31.4 18.65 31.55 18.75 31.75 18.8 31.95 18.85 32.15 18.9 32.35 18.95 32.55 18.95 32.75 18.95 32.9 18.95 33.0 18.95 33.15 18.95 33.3 18.9 33.4 18.9 33.55 18.85 33.7 18.8 33.8 18.75 33.95 18.7 34.05 18.65 34.2 18.6 34.3 18.5 34.4 18.45 34.55 18.35 34.65 18.3 34.75 18.2 34.8 18.15 34.9 18.1 34.95 18.05 35.0 18.0 35.05 17.9 35.1 17.85 35.15 17.8 35.15 17.8 35.2 17.75 35.2 17.7 35.25 17.65 35.25 17.6 35.25 17.55 35.3 17.55 35.3 17.5 35.3 17.45 35.3 17.4 35.3 17.4 35.3 17.35 35.25 17.35 35.25 17.3 35.25 17.3 35.2 17.3 35.2 17.25 35.2 17.25 35.15 17.25 35.15 17.25 35.1 17.2 35.1 17.2 35.05 17.2 35.0 17.2 35.0 17.2 34.95 17.2 34.95 17.2 34.9 17.2 34.85 17.2 34.85 17.25 34.8 17.25 34.75 17.25 34.7 17.3 34.65 17.3 34.6 17.35 34.55 17.35 34.5 17.4 34.45 17.4 34.4 17.45 34.35 17.45 34.3 17.5 34.25 17.55 34.2 17.6 34.1 17.6 34.05 17.65 34.0 17.7 33.9 17.7 33.85 17.75 33.75 17.75 33.7 17.75 33.6 17.8 33.5 17.8 33.4 17.8 33.35 17.8 33.25 17.8 33.15 17.85 33.05 17.85 32.95 17.85 32.85 17.85 32.75 17.8 32.7 17.8 32.6 17.8 32.5 17.75 32.4 17.75 32.35 17.7 32.25 17.65 32.2 17.6 32.1 17.55 32.05 17.5 32.0 17.45 31.95 17.4 31.85 17.35 31.8 17.3 31.75 17.25 31.75 17.2 31.7 17.15 31.65 17.1 31.6 17.05 31.6 17.0 31.55 16.95 31.55 16.85 31.5 16.8 31.5 16.75 31.45 16.7 31.45 16.65 31.4 16.6 31.4 16.5 31.35 16.45 31.35 16.4 32.75 15.8 33.25 15.5 34.7 14.6 34.95 14.5 35.0 14.45 35.05 14.45 35.05 14.4 35.1 14.4 35.15 14.35 35.15 14.35 35.2 14.3 35.2 14.3 35.2 14.25 35.2 14.25 35.2 14.2 35.2 14.15 35.2 14.15 35.2 14.1 35.2 14.1 35.2 14.05 35.2 14.0 35.2 14.0 35.15 13.95 35.15 13.95 35.1 13.9 35.05 13.9 35.0 13.8 34.85 13.4 34.85 13.35 34.8 13.3 34.8 13.2 34.75 13.15 34.7 13.1 34.65 13.05 34.65 12.95 34.55 12.9 34.5 12.85 34.45 12.75 34.35 12.7 34.3 12.65 34.2 12.55 34.1 12.5 34.05 12.4 33.95 12.35 33.9 12.3 33.85 12.3 33.8 12.25 33.75 12.2 33.65 12.2 33.6 12.15 33.55 12.15 33.45 12.15 33.4 12.1 33.3 12.1 33.25 12.1 33.15 12.1 33.05 12.05 33.0 12.05 32.9 12.05 32.8 12.05 32.65 12.05 32.5 12.05 32.35 12.1 32.2 12.15 32.05 12.15 31.9 12.2 31.75 12.3 31.6 12.35 31.45 12.4 31.35 12.5 31.2 12.6 31.05 12.7 30.95 12.8 30.8 12.95 30.65 13.05 30.55 13.2 L30.55 13.2 M33.5 14.15 Q33.45 14.2 33.45 14.25 33.4 14.3 33.35 14.35 33.3 14.4 33.25 14.45 33.2 14.5 33.15 14.55 33.05 14.6 33.0 14.65 32.95 14.7 32.85 14.75 32.75 14.8 32.65 14.85 32.55 14.9 32.45 15.0 31.55 15.45 31.2 15.55 31.2 15.55 31.2 15.5 31.15 15.5 31.15 15.45 31.15 15.4 31.15 15.35 31.15 15.35 31.15 15.3 31.15 15.25 31.15 15.2 31.1 15.15 31.1 15.1 31.1 15.05 31.1 14.95 31.1 14.9 31.1 14.85 31.1 14.7 31.1 14.55 31.15 14.4 31.15 14.25 31.2 14.1 31.25 14.0 31.3 13.85 31.35 13.75 31.4 13.65 31.45 13.55 31.55 13.45 31.65 13.4 31.7 13.3 31.8 13.2 31.9 13.15 32.0 13.1 32.05 13.1 32.1 13.05 32.15 13.05 32.2 13.05 32.2 13.05 32.25 13.0 32.3 13.0 32.35 13.0 32.35 13.0 32.4 13.0 32.4 13.0 32.45 12.95 32.5 12.95 32.5 12.95 32.6 12.95 32.6 12.95 32.65 12.95 32.7 12.95 32.7 12.95 32.75 12.95 32.8 12.95 32.85 12.95 32.85 13.0 32.9 13.0 32.95 13.0 33.0 13.05 33.0 13.05 33.05 13.1 33.1 13.15 33.15 13.15 33.15 13.2 33.2 13.25 33.25 13.3 33.3 13.35 33.3 13.35 33.35 13.4 33.4 13.45 33.4 13.45 33.45 13.5 33.45 13.55 33.45 13.6 33.5 13.6 33.5 13.65 33.5 13.7 33.5 13.7 33.55 13.75 33.55 13.8 33.55 13.8 33.55 13.9 33.55 13.95 33.5 14.0 33.5 14.05 33.5 14.1 33.5 14.15 L33.5 14.15" fill="#ffffff" fill-rule="evenodd" stroke="none"/>
      <path d="M36.25 18.75 Q37.7 18.75 37.95 18.7 38.0 18.7 38.05 18.7 38.05 18.65 38.1 18.65 38.15 18.65 38.15 18.6 38.2 18.6 38.2 18.55 38.25 18.55 38.25 18.5 38.25 18.5 38.25 18.45 38.3 18.45 38.3 18.4 38.3 18.35 38.3 18.35 38.3 18.3 38.3 18.25 38.25 18.2 38.25 18.2 38.25 18.15 38.2 18.15 38.15 18.15 38.15 18.1 38.1 18.1 38.05 18.1 38.0 18.1 38.0 18.1 37.95 18.1 37.95 18.1 37.9 18.1 37.85 18.1 37.85 18.05 37.8 18.05 37.8 18.05 37.75 18.05 37.7 18.0 37.7 18.0 37.65 17.95 37.65 17.95 37.6 17.9 37.6 17.9 37.55 17.85 37.55 17.85 37.5 17.8 37.5 17.75 37.45 17.7 37.45 17.6 37.45 17.55 37.4 17.5 37.4 17.45 37.4 17.35 37.35 17.25 37.35 17.2 37.35 17.1 37.35 17.0 37.3 16.9 37.3 16.8 37.25 15.8 37.25 12.9 37.25 9.8 37.3 9.15 37.3 9.05 37.3 8.95 37.35 8.9 37.35 8.8 37.35 8.7 37.4 8.65 37.4 8.6 37.4 8.5 37.45 8.45 37.45 8.4 37.5 8.3 37.5 8.25 37.55 8.2 37.6 8.15 37.6 8.1 37.65 8.1 37.7 8.05 37.7 8.0 37.75 7.95 37.75 7.9 37.8 7.85 37.8 7.85 37.85 7.8 37.85 7.75 37.9 7.7 37.9 7.65 37.9 7.6 37.95 7.6 37.95 7.55 37.95 7.5 37.95 7.45 37.95 7.4 37.95 7.35 37.95 7.35 37.95 7.3 37.95 7.25 37.95 7.25 37.95 7.2 37.95 7.2 37.95 7.15 37.9 7.15 37.9 7.15 37.9 7.1 37.85 7.1 37.85 7.1 37.8 7.1 37.8 7.1 37.75 7.1 37.7 7.1 37.7 7.1 37.65 7.1 37.6 7.15 37.5 7.15 37.45 7.2 37.35 7.25 37.25 7.25 37.15 7.3 37.05 7.35 36.95 7.4 36.8 7.5 36.7 7.55 36.55 7.65 36.4 7.7 36.25 7.8 36.1 7.9 35.95 8.0 35.8 8.05 35.7 8.15 35.55 8.25 35.45 8.3 35.35 8.35 35.25 8.45 35.2 8.5 35.15 8.55 35.05 8.65 35.05 8.7 35.0 8.75 34.95 8.8 34.95 8.85 34.95 8.9 34.95 8.95 34.95 9.0 34.95 9.05 35.0 9.1 35.0 9.1 35.05 9.15 35.05 9.15 35.1 9.15 35.1 9.2 35.15 9.2 35.2 9.2 35.2 9.2 35.25 9.2 35.3 9.2 35.35 9.2 35.4 9.2 L35.85 9.2 35.85 17.75 35.3 18.05 Q35.25 18.1 35.2 18.1 35.1 18.15 35.05 18.15 35.0 18.2 35.0 18.2 34.95 18.25 34.9 18.25 34.9 18.3 34.85 18.3 34.85 18.35 34.8 18.35 34.8 18.4 34.8 18.4 34.8 18.45 34.8 18.45 34.8 18.5 34.8 18.5 34.85 18.55 34.9 18.6 34.95 18.6 35.0 18.65 35.05 18.65 35.15 18.65 35.25 18.7 35.35 18.7 35.45 18.7 35.6 18.7 35.75 18.75 35.9 18.75 36.05 18.75 36.25 18.75 L36.25 18.75" fill="#ffffff" fill-rule="evenodd" stroke="none"/>
      <path d="M27.65 9.2 Q28.1 9.2 28.55 9.15 28.95 9.05 29.35 8.9 29.75 8.75 30.15 8.55 30.45 8.4 30.85 8.2 31.0 8.1 31.5 7.85 31.85 7.6 32.05 7.5 32.3 7.4 32.5 7.3 32.7 7.25 32.85 7.3 33.0 7.35 32.9 7.5 32.8 7.65 32.5 7.85 32.25 8.05 31.85 8.35 31.45 8.6 30.95 8.9 30.5 9.2 30.0 9.45 29.55 9.7 29.1 9.95 28.65 10.15 28.35 10.25 28.0 10.4 27.85 10.4 27.7 10.4 27.35 10.3 27.0 10.2 26.55 10.0 26.15 9.8 25.65 9.55 25.15 9.3 24.7 9.0 24.2 8.75 23.8 8.45 23.4 8.2 23.1 7.95 22.85 7.7 22.75 7.55 22.7 7.4 22.85 7.35 23.0 7.3 23.2 7.35 23.35 7.35 23.6 7.5 23.75 7.6 24.05 7.8 24.55 8.15 24.55 8.15 24.9 8.35 25.2 8.55 25.55 8.75 25.9 8.85 26.3 9.0 26.7 9.1 27.2 9.2 27.65 9.2 L27.65 9.2" fill="#ffffff" fill-rule="evenodd" stroke="none"/>
      <path d="M27.65 9.2 Q28.1 9.2 28.55 9.15 28.95 9.05 29.35 8.9 29.75 8.75 30.15 8.55 30.45 8.4 30.85 8.2 31.0 8.1 31.5 7.85 31.85 7.6 32.05 7.5 32.3 7.4 32.5 7.3 32.7 7.25 32.85 7.3 33.0 7.35 32.9 7.5 32.8 7.65 32.5 7.85 32.25 8.05 31.85 8.35 31.45 8.6 30.95 8.9 30.5 9.2 30.0 9.45 29.55 9.7 29.1 9.95 28.65 10.15 28.35 10.25 28.0 10.4 27.85 10.4 27.7 10.4 27.35 10.3 27.0 10.2 26.55 10.0 26.15 9.8 25.65 9.55 25.15 9.3 24.7 9.0 24.2 8.75 23.8 8.45 23.4 8.2 23.1 7.95 22.85 7.7 22.75 7.55 22.7 7.4 22.85 7.35 23.0 7.3 23.2 7.35 23.35 7.35 23.6 7.5 23.75 7.6 24.05 7.8 24.55 8.15 24.55 8.15 24.9 8.35 25.2 8.55 25.55 8.75 25.9 8.85 26.3 9.0 26.7 9.1 27.2 9.2 27.65 9.2 L27.65 9.2 Z" fill="none" stroke="#ffffff" stroke-linecap="round" stroke-linejoin="round" stroke-width="1.0"/>
    </g>
  </defs>
</svg>
