<?xml version="1.0" encoding="UTF-8" standalone="no"?>
<svg xmlns:ffdec="https://www.free-decompiler.com/flash" xmlns:xlink="http://www.w3.org/1999/xlink" ffdec:objectType="frame" height="26.55px" width="70.8px" xmlns="http://www.w3.org/2000/svg">
  <g transform="matrix(1.0, 0.0, 0.0, 1.0, 0.2, 0.4)">
    <use ffdec:characterId="3" height="26.0" transform="matrix(1.0, 0.0, 0.0, 1.0, 0.0, 0.0)" width="26.0" xlink:href="#shape0"/>
    <use ffdec:characterId="40" height="26.0" transform="matrix(1.0, 0.0, 0.0, 1.0, 0.0, 0.0)" width="26.0" xlink:href="#shape1"/>
    <use ffdec:characterId="40" height="26.0" transform="matrix(1.0, 0.0, 0.0, 1.0, 0.0, 0.0)" width="26.0" xlink:href="#shape1"/>
    <use ffdec:characterId="41" height="26.0" transform="matrix(1.0, 0.0, 0.0, 1.0, 0.0, 0.0)" width="26.0" xlink:href="#shape2"/>
    <use ffdec:characterId="41" height="26.0" transform="matrix(1.0, 0.0, 0.0, 1.0, 0.0, 0.0)" width="26.0" xlink:href="#shape2"/>
  </g>
  <defs>
    <g id="shape0" transform="matrix(1.0, 0.0, 0.0, 1.0, 0.0, 0.0)">
      <path d="M23.5 2.45 Q23.5 2.5 23.5 2.5 23.5 2.55 23.5 2.55 23.5 2.55 23.5 2.55 23.5 2.6 23.5 2.6 L23.5 4.05 22.85 3.8 23.5 4.5 23.5 5.25 22.95 5.25 23.5 6.45 23.5 7.1 23.3 8.15 23.5 7.8 23.5 9.55 22.85 9.85 23.15 10.05 23.75 9.8 23.75 8.05 23.5 8.4 23.75 7.35 23.75 6.7 23.2 5.5 23.75 5.5 23.75 4.75 23.1 4.05 23.75 4.3 23.75 2.85 Q23.75 2.8 23.75 2.8 23.75 2.7 23.75 2.65 23.75 2.55 23.7 2.55 23.7 2.5 23.65 2.5 23.6 2.5 23.5 2.45 L23.5 2.45 M23.5 10.4 L23.5 22.5 23.5 23.15 Q23.5 23.4 23.5 23.4 23.45 23.5 23.4 23.5 23.35 23.5 23.15 23.5 L22.5 23.5 21.85 23.5 20.95 23.5 21.0 23.75 22.1 23.75 22.75 23.75 23.4 23.75 Q23.65 23.75 23.7 23.75 23.75 23.7 23.75 23.4 L23.75 22.75 23.75 10.55 23.5 10.4 M20.7 22.75 L19.95 23.5 16.1 23.5 15.25 23.05 15.2 23.5 14.15 23.5 13.9 23.5 12.75 23.4 12.05 23.5 10.85 23.5 10.7 23.3 10.2 23.55 9.7 23.5 8.85 23.25 8.4 23.5 7.5 23.5 7.25 23.35 6.45 23.5 5.85 23.5 5.2 23.5 4.55 23.5 3.95 23.45 3.25 23.5 2.85 23.5 Q2.85 23.55 2.85 23.6 2.85 23.65 2.85 23.7 2.8 23.7 2.8 23.75 2.85 23.75 2.85 23.75 2.85 23.75 2.85 23.75 L3.5 23.75 4.2 23.7 4.8 23.75 5.45 23.75 6.05 23.75 6.7 23.75 7.45 23.6 7.75 23.75 8.65 23.75 9.1 23.5 9.9 23.75 10.45 23.8 10.95 23.55 11.1 23.75 12.3 23.75 13.0 23.65 14.1 23.75 14.4 23.75 15.4 23.75 15.5 23.3 16.35 23.75 20.15 23.75 20.75 23.2 20.7 22.75" fill="#ffffff" fill-rule="evenodd" stroke="none"/>
      <path d="M2.6 2.2 L5.95 2.2 6.2 2.65 6.5 2.4 7.75 2.2 13.5 2.2 13.7 2.7 14.15 2.2 15.45 2.2 16.65 2.2 17.15 2.65 17.35 2.2 18.0 2.2 23.15 2.2 Q23.35 2.2 23.4 2.25 23.45 2.25 23.5 2.35 23.5 2.4 23.5 2.55 23.5 2.55 23.5 2.6 L23.5 4.05 22.85 3.8 23.5 4.5 23.5 5.25 22.95 5.25 23.5 6.45 23.5 7.1 23.3 8.15 23.5 7.8 23.5 9.55 22.85 9.85 23.5 10.3 23.5 22.5 23.5 23.15 Q23.5 23.4 23.5 23.4 23.45 23.5 23.4 23.5 23.35 23.5 23.15 23.5 L22.5 23.5 21.85 23.5 20.75 23.5 20.7 22.75 19.95 23.5 16.1 23.5 15.25 23.05 15.2 23.5 14.15 23.5 13.9 23.5 12.75 23.4 12.05 23.5 10.85 23.5 10.7 23.3 10.2 23.55 9.7 23.5 8.85 23.25 8.4 23.5 7.5 23.5 7.25 23.35 6.45 23.5 5.85 23.5 5.2 23.5 4.55 23.5 3.95 23.45 3.25 23.5 2.6 23.5 Q2.6 23.5 2.6 23.5 2.6 23.5 2.6 23.5 2.4 23.5 2.35 23.5 2.3 23.5 2.25 23.45 2.25 23.4 2.25 23.2 2.25 23.2 2.25 23.2 2.25 23.2 2.25 23.2 2.25 23.15 2.25 23.15 L2.25 17.7 3.05 17.5 2.25 16.75 2.25 16.1 2.25 15.45 2.25 14.45 2.65 14.15 2.25 13.9 2.25 10.65 2.65 10.45 2.25 9.9 2.25 9.0 2.25 8.35 2.25 7.7 2.75 7.2 2.25 6.85 2.25 2.6 Q2.25 2.55 2.25 2.55 2.25 2.4 2.25 2.35 2.3 2.25 2.35 2.25 2.4 2.2 2.55 2.2 2.55 2.2 2.6 2.2 2.6 2.2 2.6 2.2 2.6 2.2 2.6 2.2 L2.6 2.2" fill="#000000" fill-rule="evenodd" stroke="none"/>
    </g>
    <g id="shape1" transform="matrix(1.0, 0.0, 0.0, 1.0, 0.0, 0.0)">
      <path d="M18.2 7.85 L16.25 7.85 Q16.15 7.8 16.05 7.8 15.95 7.75 15.85 7.7 15.8 7.7 15.75 7.65 15.65 7.6 15.6 7.55 15.55 7.5 15.5 7.5 15.45 7.45 15.45 7.4 15.4 7.35 15.4 7.3 15.4 7.25 15.4 7.2 15.5 7.1 15.55 7.0 15.65 6.95 15.75 6.85 15.85 6.8 15.95 6.75 16.05 6.65 16.15 6.65 16.25 6.6 16.4 6.55 16.5 6.5 16.6 6.5 16.75 6.45 16.85 6.45 17.0 6.45 17.1 6.45 17.15 6.45 17.2 6.45 17.2 6.45 17.25 6.45 17.3 6.45 17.35 6.45 17.35 6.45 17.4 6.45 L19.6 6.65 Q19.65 7.1 19.7 7.55 19.8 8.0 19.85 8.5 19.9 8.95 19.9 9.4 19.95 9.85 20.0 10.3 20.0 10.75 20.05 11.25 20.05 11.7 20.1 12.15 20.1 12.6 20.1 13.05 20.1 13.5 20.1 13.95 20.1 14.4 20.1 14.85 20.1 15.35 20.1 15.8 20.05 16.25 20.05 16.7 20.0 17.2 20.0 17.65 19.95 18.1 19.9 18.55 19.9 19.0 19.85 19.45 19.8 19.95 19.75 20.4 19.7 20.85 19.6 21.3 L17.35 21.45 17.05 21.45 Q16.9 21.45 16.8 21.45 16.65 21.4 16.55 21.4 16.45 21.4 16.35 21.35 16.25 21.3 16.2 21.3 16.1 21.25 16.05 21.2 16.0 21.15 15.95 21.1 15.95 21.05 15.9 20.95 15.9 20.9 15.9 20.85 15.9 20.8 15.95 20.7 16.0 20.65 16.0 20.6 16.05 20.55 16.1 20.5 16.15 20.45 16.2 20.4 16.25 20.35 16.3 20.3 16.35 20.25 16.4 20.25 16.45 20.2 16.5 20.2 16.6 20.15 16.65 20.15 L18.2 20.15 Q18.4 16.7 18.4 13.85 18.4 13.45 18.4 13.1 18.4 12.7 18.4 12.3 18.35 11.95 18.35 11.55 18.35 11.2 18.35 10.8 18.35 10.45 18.3 10.05 18.3 9.7 18.3 9.3 18.25 8.95 18.25 8.6 18.2 8.2 18.2 7.85 L18.2 7.85" fill="#ffffff" fill-rule="evenodd" stroke="none"/>
      <path d="M8.8 10.5 Q8.75 10.5 8.7 10.45 8.7 10.45 8.65 10.4 8.6 10.35 8.6 10.3 8.55 10.25 8.5 10.2 8.5 10.15 8.45 10.05 8.45 10.0 8.4 9.9 8.4 9.85 8.4 9.75 8.35 9.65 8.35 9.55 L8.0 7.45 Q7.9 6.85 7.75 5.7 7.75 5.6 7.7 5.5 7.65 5.4 7.6 5.3 7.55 5.2 7.5 5.1 7.45 5.05 7.35 4.95 7.3 4.9 7.2 4.8 7.15 4.75 7.05 4.7 6.95 4.65 6.8 4.6 6.7 4.55 6.55 4.5 6.5 4.5 6.4 4.5 6.35 4.5 6.3 4.55 6.25 4.55 6.2 4.6 6.15 4.6 6.15 4.65 6.1 4.7 6.05 4.75 6.05 4.8 6.05 4.85 6.0 4.9 6.0 4.95 6.0 5.05 6.0 5.1 6.0 5.2 6.0 5.25 6.0 5.35 6.0 5.4 6.05 5.45 6.05 5.5 6.05 5.55 6.1 5.6 6.1 5.7 6.15 5.7 6.15 5.75 6.2 5.8 6.25 5.85 6.3 5.85 6.3 5.9 6.35 5.9 6.4 5.95 6.45 6.0 6.5 6.1 6.55 6.2 6.55 6.35 6.6 6.5 6.65 6.7 6.7 6.95 6.7 7.15 6.75 7.45 6.75 7.75 6.8 8.05 6.8 8.4 6.85 8.8 6.85 9.15 6.85 9.6 6.85 9.7 6.85 9.8 6.9 9.9 6.95 10.0 6.95 10.1 7.0 10.2 7.05 10.3 7.1 10.35 7.2 10.45 7.25 10.55 7.35 10.6 7.45 10.7 7.5 10.75 7.65 10.85 7.75 10.9 7.85 10.95 7.75 11.05 7.65 11.2 7.6 11.3 7.5 11.4 7.45 11.55 7.35 11.65 7.3 11.75 7.25 11.85 7.2 11.95 7.15 12.05 7.1 12.15 7.1 12.2 7.05 12.3 7.05 12.4 7.0 12.5 7.0 12.55 7.0 12.95 7.0 13.35 6.95 13.7 6.95 14.0 6.9 14.35 6.85 14.65 6.8 14.9 6.75 15.15 6.65 15.4 6.6 15.55 6.5 15.75 6.4 15.9 6.3 16.05 6.15 16.15 6.05 16.25 5.9 16.3 5.85 16.35 5.85 16.35 5.8 16.4 5.8 16.45 5.8 16.5 5.75 16.5 5.75 16.55 5.75 16.6 5.75 16.6 5.7 16.65 5.7 16.7 5.7 16.7 5.7 16.75 5.7 16.8 5.7 16.8 5.7 16.85 5.7 16.85 5.7 16.9 5.7 16.9 5.7 16.95 5.75 16.95 5.75 17.0 5.75 17.0 5.8 17.05 5.8 17.1 5.85 17.1 5.9 17.15 5.9 17.15 5.95 17.2 6.0 17.25 6.05 17.25 6.1 17.3 6.4 17.4 6.4 17.4 6.6 17.3 6.8 17.15 7.0 17.0 7.2 16.85 7.35 16.65 7.5 16.4 7.65 16.2 7.75 15.9 7.85 15.6 7.95 15.3 8.05 15.0 8.1 14.6 8.15 14.25 8.15 13.85 8.2 13.45 8.2 13.0 L8.2 12.35 Q8.25 12.25 8.3 12.1 8.35 12.0 8.4 11.9 8.45 11.8 8.5 11.75 8.55 11.65 8.55 11.55 8.6 11.5 8.65 11.4 8.7 11.35 8.75 11.3 8.75 11.25 8.8 11.2 8.85 11.15 8.85 11.1 8.95 11.0 9.0 10.95 9.05 10.85 9.1 10.8 9.1 10.75 9.1 10.7 9.1 10.7 9.1 10.65 9.1 10.65 9.1 10.65 9.1 10.6 9.05 10.6 9.05 10.6 9.05 10.55 9.0 10.55 9.0 10.55 8.95 10.55 8.95 10.5 8.9 10.5 8.85 10.5 8.85 10.5 8.8 10.5 L8.8 10.5" fill="#ffffff" fill-rule="evenodd" stroke="none"/>
    </g>
  </defs>
</svg>
