<?xml version="1.0" encoding="UTF-8" standalone="no"?>
<svg xmlns:ffdec="https://www.free-decompiler.com/flash" xmlns:xlink="http://www.w3.org/1999/xlink" ffdec:objectType="frame" height="26.55px" width="70.8px" xmlns="http://www.w3.org/2000/svg">
  <g transform="matrix(1.0, 0.0, 0.0, 1.0, 0.2, 0.4)">
    <use ffdec:characterId="1" height="26.0" transform="matrix(1.0, 0.0, 0.0, 1.0, 0.0, 0.0)" width="35.75" xlink:href="#shape0"/>
    <use ffdec:characterId="131" height="26.0" transform="matrix(1.0, 0.0, 0.0, 1.0, 0.0, 0.0)" width="35.75" xlink:href="#shape1"/>
    <use ffdec:characterId="131" height="26.0" transform="matrix(1.0, 0.0, 0.0, 1.0, 0.0, 0.0)" width="35.75" xlink:href="#shape1"/>
  </g>
  <defs>
    <g id="shape0" transform="matrix(1.0, 0.0, 0.0, 1.0, 0.0, 0.0)">
      <path d="M35.1 2.45 Q35.1 2.5 35.1 2.55 35.1 2.55 35.1 2.6 L35.1 4.05 34.45 3.8 35.1 4.5 35.1 5.25 34.55 5.25 35.1 6.45 35.1 7.1 34.9 8.15 35.1 7.8 35.1 9.55 34.45 9.85 34.8 10.05 35.35 9.8 35.35 8.05 35.15 8.4 35.35 7.35 35.35 6.7 34.8 5.5 35.35 5.5 35.35 4.75 34.7 4.05 35.35 4.3 35.35 2.85 Q35.35 2.85 35.35 2.8 35.35 2.7 35.35 2.65 35.35 2.55 35.3 2.55 35.3 2.5 35.25 2.5 35.2 2.5 35.1 2.45 L35.1 2.45 M35.1 10.4 L35.1 22.5 35.1 23.15 Q35.1 23.45 35.05 23.5 35.05 23.5 34.75 23.5 L34.1 23.5 33.45 23.5 32.6 23.5 32.6 23.75 33.7 23.75 34.35 23.75 35.0 23.75 Q35.25 23.75 35.3 23.75 35.35 23.7 35.35 23.4 L35.35 22.75 35.35 10.55 35.1 10.4 M32.3 22.75 L31.55 23.5 25.95 23.5 25.1 23.05 25.0 23.5 24.0 23.5 23.7 23.5 22.6 23.4 21.9 23.5 20.7 23.5 20.55 23.3 20.05 23.55 7.95 23.5 7.15 23.25 6.65 23.5 5.8 23.5 5.5 23.35 4.75 23.5 4.1 23.5 3.45 23.5 2.8 23.5 2.2 23.45 1.55 23.5 1.1 23.5 Q1.1 23.55 1.1 23.75 1.1 23.75 1.1 23.75 1.1 23.75 1.15 23.75 L1.75 23.75 2.45 23.7 3.05 23.75 3.7 23.75 4.35 23.75 5.0 23.75 5.75 23.6 6.05 23.75 6.9 23.75 18.95 23.75 19.75 23.75 20.3 23.8 20.8 23.55 20.9 23.75 22.15 23.75 22.85 23.65 23.95 23.75 24.25 23.75 25.25 23.75 25.35 23.3 26.15 23.75 31.8 23.75 32.35 23.2 32.3 22.75" fill="#000000" fill-opacity="0.0" fill-rule="evenodd" stroke="none"/>
      <path d="M0.9 2.2 L4.25 2.2 4.5 2.65 4.8 2.4 6.0 2.2 13.45 2.2 13.6 2.7 14.05 2.2 15.35 2.2 26.5 2.2 27.0 2.65 27.2 2.2 27.85 2.2 34.75 2.2 Q34.95 2.2 35.0 2.25 35.1 2.25 35.1 2.35 35.1 2.4 35.1 2.55 35.1 2.55 35.1 2.6 L35.1 4.05 34.45 3.8 35.1 4.5 35.1 5.25 34.55 5.25 35.1 6.45 35.1 7.1 34.9 8.15 35.1 7.8 35.1 9.55 34.45 9.85 35.1 10.3 35.1 22.5 35.1 23.15 Q35.1 23.4 35.1 23.4 35.05 23.5 35.0 23.5 35.0 23.5 34.75 23.5 L34.1 23.5 33.45 23.5 32.35 23.5 32.3 22.75 31.55 23.5 25.95 23.5 25.1 23.05 25.0 23.5 24.0 23.5 23.7 23.5 22.6 23.4 21.9 23.5 20.7 23.5 20.55 23.3 20.05 23.55 7.95 23.5 7.15 23.25 6.65 23.5 5.8 23.5 5.5 23.35 4.75 23.5 4.1 23.5 3.45 23.5 2.8 23.5 2.2 23.45 1.55 23.5 0.9 23.5 Q0.9 23.5 0.9 23.5 0.85 23.5 0.85 23.5 0.65 23.5 0.6 23.5 0.55 23.5 0.55 23.45 0.55 23.4 0.55 23.2 0.55 23.2 0.55 23.2 0.55 23.2 0.55 23.2 0.55 23.15 0.55 23.15 L0.55 17.7 1.3 17.5 0.55 16.75 0.55 16.1 0.55 15.45 0.55 14.45 0.95 14.15 0.55 13.9 0.55 10.65 0.9 10.45 0.55 9.9 0.55 9.0 0.55 8.35 0.55 7.7 1.0 7.2 0.55 6.85 0.55 2.6 Q0.55 2.55 0.55 2.55 0.55 2.4 0.55 2.35 0.55 2.25 0.65 2.25 0.7 2.2 0.85 2.2 0.85 2.2 0.85 2.2 0.85 2.2 0.9 2.2 0.9 2.2 0.9 2.2 L0.9 2.2" fill="#000000" fill-opacity="0.0" fill-rule="evenodd" stroke="none"/>
    </g>
    <g id="shape1" transform="matrix(1.0, 0.0, 0.0, 1.0, 0.0, 0.0)">
      <path d="M0.0 0.2 L0.0 20.95 7.1 20.95 6.8 19.75 1.9 19.75 Q1.9 19.75 1.85 19.15 1.85 18.35 1.85 17.55 1.85 16.35 1.9 15.2 1.95 13.8 2.05 12.55 2.2 11.05 2.4 9.8 2.65 8.4 3.05 7.35 3.45 6.15 4.0 5.4 4.6 4.65 5.35 4.4 5.35 4.4 5.2 4.4 5.05 4.35 4.9 4.3 4.65 4.25 4.4 4.2 4.15 4.1 3.9 3.95 3.6 3.85 3.35 3.7 3.05 3.5 2.85 3.3 2.65 3.05 2.55 2.8 2.4 2.5 2.4 2.15 L26.75 2.15 26.75 4.45 28.35 4.6 28.35 2.15 28.35 0.25 0.0 0.2 M28.35 6.5 L26.75 6.65 26.8 19.75 9.3 19.75 9.7 20.95 28.35 20.95 28.35 19.75 28.35 6.5" fill="#f1edf8" fill-rule="evenodd" stroke="none"/>
      <path d="M7.4 5.05 L7.4 6.25 7.4 23.85 7.4 25.75 35.75 25.8 35.75 5.05 7.4 5.05 M8.95 6.25 L33.85 6.25 Q33.85 6.25 33.9 6.85 33.9 7.65 33.9 8.45 33.9 9.65 33.85 10.8 33.8 12.2 33.7 13.45 33.55 14.95 33.35 16.2 33.1 17.6 32.7 18.65 32.3 19.85 31.75 20.6 31.15 21.35 30.4 21.6 30.4 21.6 30.55 21.6 30.7 21.65 30.85 21.7 31.1 21.75 31.35 21.8 31.6 21.9 31.85 22.05 32.15 22.15 32.4 22.3 32.7 22.5 32.9 22.7 33.1 22.95 33.2 23.2 33.35 23.5 33.35 23.85 L9.0 23.85 8.95 6.25" fill="#f1edf8" fill-rule="evenodd" stroke="none"/>
    </g>
  </defs>
</svg>
