<?xml version="1.0" encoding="UTF-8" standalone="no"?>
<svg xmlns:ffdec="https://www.free-decompiler.com/flash" xmlns:xlink="http://www.w3.org/1999/xlink" ffdec:objectType="frame" height="26.55px" width="70.8px" xmlns="http://www.w3.org/2000/svg">
  <g transform="matrix(1.0, 0.0, 0.0, 1.0, 0.2, 0.4)">
    <use ffdec:characterId="132" height="26.0" transform="matrix(1.0, 0.0, 0.0, 1.0, 0.05, 0.05)" width="26.0" xlink:href="#shape0"/>
    <use ffdec:characterId="134" height="26.0" transform="matrix(1.0, 0.0, 0.0, 1.0, 0.0, 0.0)" width="26.0" xlink:href="#shape1"/>
    <use ffdec:characterId="134" height="26.0" transform="matrix(1.0, 0.0, 0.0, 1.0, 0.0, 0.0)" width="26.0" xlink:href="#shape1"/>
  </g>
  <defs>
    <g id="shape0" transform="matrix(1.0, 0.0, 0.0, 1.0, -0.05, -0.05)">
      <path d="M13.45 25.3 Q13.8 25.3 14.15 25.3 14.5 25.25 14.9 25.2 15.25 25.15 15.65 25.05 16.0 24.95 16.4 24.85 16.75 24.7 17.15 24.55 17.55 24.4 17.95 24.2 18.35 24.05 18.75 23.8 19.15 23.6 19.55 23.35 19.95 23.1 20.35 22.8 20.7 22.55 21.05 22.25 21.4 21.9 21.7 21.6 22.05 21.3 22.3 20.95 22.6 20.6 22.85 20.2 23.1 19.85 23.35 19.45 23.55 19.05 23.75 18.65 23.95 18.2 24.1 17.8 24.25 17.35 24.4 16.9 24.5 16.45 24.6 16.0 24.7 15.5 24.75 15.05 24.8 14.55 24.85 14.1 24.85 13.6 24.85 13.1 24.85 12.65 24.85 12.15 24.8 11.65 24.75 11.1 24.7 10.6 24.6 10.1 24.5 9.6 24.35 9.1 24.25 8.6 24.05 8.15 23.9 7.7 23.7 7.3 23.55 6.85 23.3 6.45 23.1 6.05 22.85 5.7 22.6 5.35 22.35 5.05 22.05 4.7 21.75 4.4 21.45 4.15 21.1 3.9 20.85 3.7 20.6 3.5 20.35 3.3 20.1 3.15 19.85 2.95 19.6 2.8 19.35 2.65 19.1 2.5 18.85 2.35 18.6 2.2 18.35 2.05 18.05 1.95 17.8 1.8 17.55 1.7 17.3 1.6 17.0 1.5 16.25 1.25 15.5 1.05 14.8 0.9 14.05 0.85 13.3 0.75 12.6 0.8 11.85 0.85 11.15 0.95 10.45 1.1 9.7 1.35 9.0 1.6 8.3 1.95 7.6 2.25 6.9 2.7 6.2 3.15 5.55 3.7 5.25 3.95 5.0 4.15 4.7 4.4 4.45 4.7 4.2 4.95 4.0 5.2 3.75 5.5 3.55 5.8 3.35 6.05 3.15 6.4 3.0 6.7 2.8 7.0 2.65 7.3 2.5 7.65 2.35 8.0 2.25 8.35 2.15 8.7 2.0 9.0 1.9 9.35 1.8 9.7 1.75 10.05 1.65 10.4 1.55 10.8 1.5 11.15 1.45 11.5 1.4 11.9 1.35 12.25 1.3 12.65 1.3 13.05 1.25 13.45 1.25 13.85 1.25 14.25 1.25 14.65 1.25 15.05 1.25 15.45 1.3 15.85 1.35 16.2 1.4 16.6 1.5 17.0 1.6 17.35 1.7 17.75 1.85 18.1 2.0 18.5 2.2 18.85 2.35 19.25 2.55 19.6 2.75 19.95 2.95 20.35 3.2 20.7 3.45 21.05 3.7 21.35 3.95 21.7 4.25 22.0 4.55 22.25 4.8 22.5 5.1 22.75 5.4 23.0 5.7 23.2 6.05 23.45 6.35 23.6 6.7 23.8 7.0 23.95 7.35 24.1 7.7 24.25 8.05 24.4 8.45 24.5 8.8 24.6 9.15 24.7 9.5 24.8 9.9 24.9 10.25 24.95 10.6 25.05 10.95 25.1 11.3 25.15 11.65 25.2 12.05 25.25 12.4 25.25 12.75 25.3 13.1 25.3 13.45 25.3 L13.45 25.3" fill="#000000" fill-rule="evenodd" stroke="none"/>
    </g>
    <g id="shape1" transform="matrix(1.0, 0.0, 0.0, 1.0, 0.0, 0.0)">
      <path d="M8.2 5.0 Q8.1 5.0 8.0 5.0 7.9 5.0 7.85 5.0 7.75 5.0 7.7 5.05 7.65 5.05 7.6 5.05 7.55 5.1 7.5 5.1 7.45 5.15 7.45 5.15 7.4 5.2 7.4 5.25 7.4 5.25 7.4 5.3 7.4 5.35 7.45 5.45 7.45 5.5 7.55 5.6 7.6 5.65 7.75 5.75 7.85 5.85 8.0 5.9 8.15 6.0 8.35 6.1 8.55 6.2 8.8 6.3 9.05 6.4 9.3 6.5 9.6 6.6 9.9 6.7 10.2 6.8 10.5 6.9 10.8 7.0 11.1 7.1 11.35 7.2 11.6 7.25 11.85 7.35 12.05 7.4 12.25 7.45 12.45 7.5 12.65 7.5 12.8 7.55 12.95 7.6 13.1 7.6 13.25 7.6 13.35 7.6 13.45 7.6 13.6 7.6 13.75 7.6 13.9 7.55 14.05 7.55 14.2 7.5 14.35 7.5 14.5 7.45 14.65 7.4 14.85 7.35 15.0 7.3 15.2 7.25 15.4 7.2 15.6 7.1 15.8 7.05 16.0 6.95 17.9 6.25 18.3 6.15 18.35 6.1 18.45 6.1 18.5 6.05 18.55 6.05 18.6 6.0 18.65 6.0 18.65 5.95 18.7 5.95 18.75 5.9 18.75 5.9 18.8 5.9 18.8 5.85 18.8 5.85 18.85 5.8 18.85 5.8 18.85 5.75 18.85 5.65 18.85 5.6 18.8 5.5 18.8 5.45 18.75 5.35 18.75 5.3 18.7 5.25 18.65 5.2 18.6 5.15 18.55 5.15 18.45 5.1 18.4 5.05 18.35 5.05 18.25 5.05 18.15 5.0 18.05 5.0 L18.05 5.05 Q17.8 5.05 17.3 5.1 16.7 5.2 15.9 5.35 14.1 5.7 13.45 5.7 12.7 5.7 10.85 5.35 9.05 5.0 8.2 5.0 L8.2 5.0 M20.65 7.1 Q20.6 7.1 20.55 7.1 20.5 7.1 20.5 7.15 20.45 7.15 20.4 7.15 20.4 7.2 20.35 7.25 20.35 7.25 20.3 7.3 20.3 7.3 20.25 7.35 20.25 7.35 20.25 7.4 20.25 7.4 20.2 7.45 20.2 7.5 20.2 7.5 20.2 7.55 20.2 7.6 20.2 7.6 20.2 7.65 20.2 7.7 20.2 7.75 20.2 7.85 20.2 7.95 20.15 8.0 20.15 8.05 20.15 8.1 20.1 8.1 20.1 8.1 20.0 8.1 19.95 8.1 19.9 8.05 19.8 8.0 19.7 7.95 19.65 7.95 19.6 7.9 19.55 7.9 19.5 7.9 19.45 7.85 19.35 7.85 19.3 7.85 19.2 7.85 19.15 7.85 19.05 7.85 18.95 7.8 18.85 7.8 18.75 7.8 18.65 7.8 18.55 7.8 18.45 7.8 18.35 7.8 18.25 7.8 18.15 7.8 18.05 7.8 17.95 7.8 17.85 7.85 17.75 7.85 17.65 7.85 17.6 7.85 17.5 7.9 17.45 7.9 17.35 7.9 17.3 7.95 17.2 7.95 17.15 7.95 17.1 8.0 17.05 8.0 17.0 8.05 16.9 8.05 16.85 8.1 16.8 8.1 16.75 8.15 16.7 8.2 16.65 8.2 16.55 8.25 16.5 8.3 16.45 8.3 16.4 8.35 16.35 8.4 16.3 8.45 16.25 8.5 16.2 8.55 16.05 8.65 15.95 8.8 15.85 8.95 15.75 9.05 15.65 9.2 15.6 9.3 15.5 9.45 15.45 9.6 15.35 9.75 15.35 9.85 15.3 10.0 15.25 10.15 15.2 10.3 15.2 10.45 15.2 10.6 15.2 10.75 15.2 10.9 15.2 11.05 15.2 11.2 15.25 11.3 15.25 11.45 15.25 11.6 15.3 11.7 15.35 11.8 15.4 11.95 15.4 12.05 15.45 12.15 15.55 12.25 15.6 12.35 15.65 12.45 15.7 12.55 15.8 12.6 15.85 12.7 15.95 12.75 16.05 12.85 16.15 12.95 16.3 13.05 16.4 13.15 16.55 13.25 16.7 13.35 16.85 13.5 17.05 13.6 17.25 13.7 17.45 13.85 17.65 13.95 17.85 14.1 18.05 14.2 18.3 14.35 18.55 14.5 18.75 14.65 19.0 14.75 19.2 14.9 19.4 15.05 19.55 15.15 19.75 15.3 19.9 15.45 20.05 15.55 20.2 15.7 20.3 15.8 20.45 15.95 20.55 16.05 20.65 16.15 20.75 16.3 20.8 16.4 20.85 16.45 20.85 16.5 20.9 16.6 20.9 16.65 20.95 16.7 20.95 16.75 21.0 16.8 21.0 16.9 21.0 16.95 21.05 17.0 21.05 17.05 21.05 17.15 21.05 17.2 21.05 17.25 21.05 17.35 21.05 17.4 21.05 17.45 21.05 17.55 21.05 17.6 21.05 17.7 21.05 17.75 21.0 17.85 21.0 17.9 21.0 18.0 20.95 18.05 20.95 18.15 20.9 18.2 20.85 18.3 20.85 18.35 20.8 18.45 20.75 18.5 20.75 18.6 20.7 18.7 20.6 18.8 20.55 18.95 20.45 19.05 20.35 19.1 20.25 19.2 20.15 19.3 20.05 19.35 19.95 19.45 19.8 19.5 19.7 19.55 19.55 19.6 19.4 19.65 19.25 19.7 19.15 19.75 18.95 19.75 18.9 19.75 18.9 19.75 18.85 19.8 18.8 19.8 18.8 19.8 18.75 19.8 18.7 19.8 18.65 19.8 18.65 19.8 18.6 19.85 18.55 19.85 18.55 19.85 18.5 19.85 18.45 19.85 18.45 19.85 18.4 19.85 18.3 19.85 18.2 19.85 18.1 19.85 18.0 19.8 17.9 19.8 17.8 19.75 17.7 19.75 17.6 19.7 17.55 19.65 17.45 19.6 17.35 19.6 17.3 19.5 17.2 19.45 17.15 19.4 17.05 19.35 17.0 19.25 16.95 19.2 16.95 19.15 16.9 19.15 16.85 19.1 16.85 19.05 16.85 19.05 16.8 19.0 16.8 19.0 16.8 18.95 16.75 18.95 16.75 18.9 16.75 18.9 16.75 18.85 16.75 18.85 16.75 18.85 16.75 18.85 16.75 18.85 16.75 18.8 16.8 18.8 16.8 18.8 16.8 18.75 16.85 18.75 16.85 18.75 16.85 18.7 16.9 18.7 16.9 18.65 16.95 18.65 16.95 18.6 17.0 18.6 17.05 18.55 17.1 18.5 17.1 18.5 17.15 18.45 17.15 18.4 17.2 18.4 17.2 18.35 17.2 18.3 17.25 18.25 17.25 18.2 17.25 18.15 17.3 18.1 17.3 18.05 17.3 18.0 17.3 17.95 17.3 17.9 17.3 17.8 17.3 17.75 17.3 17.7 17.3 17.65 17.3 17.55 17.25 17.5 17.25 17.45 17.25 17.4 17.2 17.35 17.2 17.3 17.15 17.25 17.1 17.2 17.1 17.15 17.05 17.1 17.0 17.05 16.95 17.0 16.9 16.95 16.85 16.9 16.8 16.85 16.75 16.85 16.7 16.8 16.65 16.75 16.6 16.75 16.55 16.7 16.5 16.7 16.45 16.65 16.4 16.65 16.35 16.65 16.3 16.6 16.25 16.6 16.25 16.6 16.2 16.6 16.15 16.6 16.1 16.6 16.05 16.6 16.0 16.6 15.95 16.6 15.9 16.6 15.85 16.6 15.8 16.65 15.75 16.65 15.7 16.65 15.65 16.65 15.65 16.7 15.6 16.7 15.55 16.7 15.5 16.75 15.45 16.75 15.4 16.75 15.3 16.8 15.2 16.9 15.1 16.95 15.05 17.0 14.95 17.1 14.9 17.2 14.85 17.3 14.8 17.4 14.75 17.45 14.7 17.6 14.65 17.7 14.65 17.8 14.6 17.9 14.6 18.05 14.6 18.15 14.6 18.3 14.6 18.45 14.6 18.6 14.6 18.7 14.65 18.85 14.7 19.0 14.75 19.1 14.8 19.25 14.85 19.35 14.9 19.45 15.0 19.6 15.1 19.7 15.2 19.8 15.3 19.9 15.4 20.0 15.5 20.1 15.65 20.2 15.8 20.3 15.95 20.4 16.05 20.5 16.2 20.55 16.35 20.65 16.55 20.7 16.7 20.75 16.85 20.8 17.05 20.85 17.25 20.9 17.4 20.95 17.6 20.95 17.8 21.0 18.0 21.0 18.2 21.0 18.4 21.0 L18.45 21.0 Q18.65 21.0 18.85 21.0 19.05 21.0 19.25 20.95 19.45 20.9 19.6 20.9 19.8 20.85 20.0 20.8 20.15 20.75 20.3 20.65 20.5 20.6 20.65 20.5 20.8 20.45 20.95 20.35 21.1 20.25 21.25 20.15 21.4 20.05 21.55 19.9 21.7 19.8 21.8 19.65 21.95 19.5 22.05 19.4 22.15 19.25 22.25 19.1 22.35 18.95 22.45 18.75 22.5 18.6 22.6 18.4 22.65 18.25 22.75 18.05 22.8 17.85 22.85 17.65 22.85 17.6 22.9 17.5 22.9 17.45 22.9 17.4 22.9 17.35 22.95 17.25 22.95 17.2 22.95 17.15 22.95 17.1 22.95 17.0 22.95 16.95 22.95 16.9 22.95 16.85 23.0 16.75 23.0 16.7 23.0 16.65 23.0 16.35 22.95 16.05 22.9 15.8 22.8 15.5 22.7 15.2 22.55 14.95 22.4 14.7 22.2 14.4 22.0 14.15 21.75 13.9 21.5 13.65 21.2 13.4 20.9 13.2 20.55 12.95 20.2 12.7 19.8 12.5 17.9 11.4 17.5 11.05 17.45 11.0 17.4 10.95 17.35 10.9 17.35 10.85 17.3 10.8 17.25 10.75 17.25 10.7 17.2 10.65 17.2 10.6 17.15 10.55 17.15 10.5 17.15 10.45 17.1 10.4 17.1 10.35 17.1 10.35 17.1 10.3 17.1 10.25 17.1 10.2 17.1 10.15 17.1 10.1 17.1 10.05 17.1 10.0 17.1 9.95 17.15 9.95 17.15 9.9 17.15 9.85 17.15 9.8 17.15 9.75 17.2 9.75 17.2 9.7 17.2 9.65 17.2 9.65 17.25 9.55 17.3 9.45 17.35 9.4 17.45 9.3 17.5 9.25 17.55 9.2 17.65 9.15 17.75 9.1 17.8 9.05 17.9 9.0 18.0 8.95 18.1 8.95 18.2 8.9 18.35 8.9 18.45 8.9 18.55 8.9 18.65 8.9 18.7 8.9 18.8 8.9 18.9 8.9 19.0 8.95 19.05 8.95 19.15 9.0 19.25 9.0 19.3 9.05 19.4 9.05 19.5 9.1 19.55 9.15 19.65 9.2 19.75 9.25 19.8 9.3 19.9 9.35 20.0 9.4 20.05 9.45 20.15 9.5 20.2 9.6 20.3 9.65 20.35 9.7 20.4 9.75 20.5 9.85 20.55 9.9 20.6 10.0 20.65 10.05 20.75 10.15 20.8 10.2 20.85 10.3 20.9 10.35 20.95 10.45 21.0 10.55 21.05 10.6 21.1 10.65 21.1 10.75 21.15 10.8 21.2 10.85 21.25 10.9 21.3 10.95 21.35 11.0 21.35 11.05 21.4 11.1 21.45 11.15 21.5 11.2 21.55 11.2 21.55 11.25 21.6 11.25 21.65 11.25 21.7 11.3 21.7 11.3 21.75 11.3 21.8 11.3 21.85 11.3 21.85 11.3 21.9 11.3 21.9 11.25 21.95 11.25 21.95 11.2 22.0 11.2 22.0 11.15 22.05 11.1 22.05 11.1 22.1 11.05 L22.1 10.75 Q22.05 10.4 21.6 8.8 21.55 8.6 21.5 8.4 21.4 8.2 21.35 8.05 21.3 7.9 21.25 7.75 21.15 7.6 21.1 7.5 21.05 7.4 21.0 7.35 20.95 7.25 20.85 7.2 20.8 7.15 20.75 7.1 20.7 7.1 20.65 7.1 L20.65 7.1 M5.1 7.8 Q4.85 7.8 4.65 7.8 4.45 7.8 4.25 7.85 4.05 7.85 3.9 7.85 3.75 7.9 3.65 7.9 3.5 7.9 3.4 7.95 3.3 7.95 3.25 8.0 3.15 8.0 3.15 8.05 3.1 8.1 3.05 8.15 3.05 8.15 3.05 8.2 3.05 8.25 3.05 8.25 3.0 8.3 3.0 8.35 3.0 8.35 3.0 8.4 3.0 8.4 3.05 8.4 3.05 8.45 3.05 8.45 3.05 8.5 3.05 8.5 3.1 8.55 3.1 8.55 3.1 8.6 3.15 8.6 3.15 8.65 3.2 8.65 3.2 8.7 3.25 8.7 3.25 8.75 3.3 8.75 3.35 8.8 3.35 8.8 3.4 8.8 3.4 8.85 3.45 8.85 3.5 8.9 3.5 8.9 3.55 8.9 3.6 8.9 3.65 8.95 3.65 8.95 3.7 8.95 3.75 8.95 3.8 9.0 3.85 9.0 3.9 9.0 3.95 9.0 3.95 9.0 4.0 9.05 4.05 9.05 4.05 9.05 4.1 9.05 4.1 9.1 4.15 9.1 4.15 9.1 4.15 9.15 4.2 9.15 4.2 9.15 4.25 9.4 4.3 9.55 4.35 9.85 4.35 12.65 L4.35 15.65 Q4.4 17.8 4.35 18.6 L4.3 19.15 Q4.3 19.2 4.3 19.3 4.25 19.35 4.25 19.4 4.25 19.45 4.2 19.45 4.2 19.5 4.2 19.55 4.15 19.55 4.15 19.6 4.15 19.6 4.1 19.6 4.1 19.65 4.1 19.65 4.05 19.65 4.05 19.65 4.0 19.65 4.0 19.7 3.95 19.7 3.95 19.7 3.9 19.7 3.9 19.7 3.85 19.7 3.8 19.7 3.8 19.7 3.75 19.7 3.7 19.7 3.65 19.7 3.65 19.75 3.6 19.75 3.55 19.75 3.55 19.75 3.5 19.8 3.45 19.8 3.45 19.8 3.4 19.85 3.4 19.85 3.35 19.9 3.35 19.9 3.3 19.9 3.25 19.95 3.25 19.95 3.15 20.05 3.1 20.1 3.05 20.2 3.05 20.25 3.0 20.3 3.0 20.35 3.0 20.4 3.05 20.6 3.05 20.6 3.1 20.65 3.1 20.65 3.1 20.65 3.15 20.7 3.15 20.7 3.2 20.7 3.2 20.7 3.25 20.75 3.3 20.75 3.35 20.75 3.35 20.75 3.4 20.8 3.45 20.8 3.5 20.8 3.55 20.8 4.0 20.85 6.0 20.85 6.25 20.85 6.5 20.85 6.7 20.85 6.9 20.85 7.1 20.85 7.25 20.85 7.4 20.8 7.55 20.8 7.7 20.8 7.8 20.8 7.9 20.75 8.0 20.75 8.05 20.7 8.1 20.7 8.15 20.65 8.2 20.65 8.2 20.6 8.25 20.6 8.25 20.55 8.25 20.5 8.25 20.5 8.25 20.45 8.25 20.4 8.25 20.4 8.2 20.35 8.2 20.3 8.2 20.25 8.15 20.25 8.15 20.2 8.1 20.15 8.05 20.1 8.0 20.05 7.95 20.0 7.95 20.0 7.9 19.95 7.85 19.9 7.85 19.9 7.8 19.85 7.75 19.85 7.7 19.85 7.65 19.8 7.6 19.8 7.55 19.8 7.5 19.75 7.45 19.75 7.4 19.75 7.35 19.75 7.3 19.75 7.25 19.75 7.2 19.75 7.15 19.75 7.1 19.7 7.1 19.7 7.05 19.65 7.0 19.6 6.95 19.6 6.9 19.55 6.9 19.5 6.85 19.45 6.8 19.35 6.75 19.3 6.75 19.25 6.7 19.15 6.65 19.05 6.65 18.95 6.6 18.9 6.6 18.8 6.55 18.75 6.55 18.65 6.55 18.6 6.5 18.5 6.5 18.45 6.5 18.35 6.5 18.25 6.45 18.2 6.45 18.1 6.45 18.05 6.45 17.95 6.45 17.9 6.45 17.8 L6.5 15.7 6.5 8.85 7.1 9.0 Q8.1 9.2 8.15 9.2 8.15 9.25 8.2 9.25 8.2 9.3 8.25 9.3 8.3 9.35 8.3 9.35 8.35 9.4 8.4 9.45 8.45 9.45 8.45 9.5 8.5 9.5 8.55 9.55 8.6 9.6 8.65 9.65 8.75 9.65 8.8 9.7 8.95 9.8 9.05 9.9 9.2 10.0 9.3 10.15 9.4 10.25 9.5 10.4 9.6 10.55 9.7 10.7 9.75 10.85 9.8 11.0 9.85 11.15 9.9 11.35 9.95 11.5 9.95 11.7 10.0 11.9 10.0 12.1 10.0 12.3 10.0 12.5 9.95 12.65 9.9 12.85 9.9 13.0 9.8 13.15 9.75 13.3 9.7 13.45 9.6 13.6 9.55 13.7 9.45 13.85 9.35 13.95 9.2 14.05 9.1 14.15 8.95 14.25 8.8 14.35 8.6 14.45 8.45 14.55 8.3 14.65 8.15 14.75 8.0 14.8 7.9 14.9 7.75 15.0 7.65 15.05 7.6 15.15 7.5 15.2 7.45 15.25 7.4 15.3 7.35 15.35 7.3 15.4 7.3 15.45 7.3 15.5 7.3 15.55 7.3 15.6 7.3 15.65 7.3 15.7 7.35 15.75 7.35 15.85 7.4 15.95 7.45 16.05 7.5 16.15 7.6 16.3 7.65 16.4 7.75 16.55 7.85 16.7 7.95 16.9 8.1 17.05 8.2 17.25 8.35 17.45 8.5 17.7 8.65 17.9 8.8 18.1 8.95 18.3 9.05 18.5 9.2 18.7 9.3 18.85 9.4 19.0 9.45 19.15 9.55 19.3 9.65 19.45 9.7 19.6 9.75 19.7 9.8 19.8 9.85 19.9 9.85 20.0 9.9 20.1 L10.05 20.75 11.9 20.75 Q13.05 20.75 13.5 20.7 13.55 20.7 13.6 20.65 13.65 20.65 13.65 20.65 13.7 20.6 13.75 20.6 13.8 20.6 13.8 20.55 13.85 20.55 13.85 20.5 13.85 20.5 13.9 20.45 13.9 20.45 13.9 20.4 13.9 20.35 13.9 20.35 13.9 20.3 13.9 20.25 13.9 20.25 13.85 20.2 13.85 20.15 13.8 20.1 13.75 20.05 13.7 20.05 13.65 20.0 13.6 19.95 13.55 19.9 13.45 19.85 13.4 19.85 13.3 19.8 13.2 19.75 13.1 19.7 13.0 19.65 12.9 19.6 12.8 19.55 12.7 19.45 12.6 19.35 12.45 19.3 12.35 19.2 12.2 19.1 12.1 18.95 11.95 18.85 11.8 18.7 11.65 18.6 11.5 18.45 11.35 18.3 11.2 18.1 11.05 17.95 L8.85 15.65 Q9.25 15.55 9.6 15.4 9.95 15.3 10.25 15.1 10.55 14.95 10.8 14.75 11.05 14.55 11.25 14.3 11.45 14.05 11.6 13.8 11.75 13.5 11.85 13.2 11.95 12.9 12.0 12.55 12.05 12.2 12.05 11.8 12.05 11.5 12.0 11.2 11.95 10.9 11.9 10.6 11.8 10.35 11.7 10.1 11.55 9.85 11.4 9.6 11.25 9.35 11.05 9.15 10.85 8.95 10.6 8.75 10.35 8.6 10.05 8.45 9.8 8.25 9.45 8.15 9.35 8.1 9.2 8.05 9.05 8.05 8.9 8.0 8.7 7.95 8.55 7.95 8.35 7.9 8.1 7.9 7.9 7.85 7.65 7.85 7.4 7.85 7.1 7.85 6.85 7.8 6.5 7.8 6.2 7.8 5.9 7.8 L5.7 7.8 Q5.6 7.8 5.1 7.8 L5.1 7.8" fill="#ffffff" fill-rule="evenodd" stroke="none"/>
    </g>
  </defs>
</svg>
