<?xml version="1.0" encoding="UTF-8" standalone="no"?>
<svg xmlns:ffdec="https://www.free-decompiler.com/flash" xmlns:xlink="http://www.w3.org/1999/xlink" ffdec:objectType="frame" height="26.55px" width="70.8px" xmlns="http://www.w3.org/2000/svg">
  <g transform="matrix(1.0, 0.0, 0.0, 1.0, 0.2, 0.4)">
    <use ffdec:characterId="132" height="26.0" transform="matrix(1.0, 0.0, 0.0, 1.0, 0.05, 0.05)" width="26.0" xlink:href="#shape0"/>
    <use ffdec:characterId="35" height="26.0" transform="matrix(1.0, 0.0, 0.0, 1.0, 0.0, 0.0)" width="26.0" xlink:href="#shape1"/>
    <use ffdec:characterId="35" height="26.0" transform="matrix(1.0, 0.0, 0.0, 1.0, 0.0, 0.0)" width="26.0" xlink:href="#shape1"/>
  </g>
  <defs>
    <g id="shape0" transform="matrix(1.0, 0.0, 0.0, 1.0, -0.05, -0.05)">
      <path d="M13.45 25.3 Q13.8 25.3 14.15 25.3 14.5 25.25 14.9 25.2 15.25 25.15 15.65 25.05 16.0 24.95 16.4 24.85 16.75 24.7 17.15 24.55 17.55 24.4 17.95 24.2 18.35 24.05 18.75 23.8 19.15 23.6 19.55 23.35 19.95 23.1 20.35 22.8 20.7 22.55 21.05 22.25 21.4 21.9 21.7 21.6 22.05 21.3 22.3 20.95 22.6 20.6 22.85 20.2 23.1 19.85 23.35 19.45 23.55 19.05 23.75 18.65 23.95 18.2 24.1 17.8 24.25 17.35 24.4 16.9 24.5 16.45 24.6 16.0 24.7 15.5 24.75 15.05 24.8 14.55 24.85 14.1 24.85 13.6 24.85 13.1 24.85 12.65 24.85 12.15 24.8 11.65 24.75 11.1 24.7 10.6 24.6 10.1 24.5 9.6 24.35 9.1 24.25 8.6 24.05 8.15 23.9 7.7 23.7 7.3 23.55 6.85 23.3 6.45 23.1 6.05 22.85 5.7 22.6 5.35 22.35 5.05 22.05 4.7 21.75 4.4 21.45 4.15 21.1 3.9 20.85 3.7 20.6 3.5 20.35 3.3 20.1 3.15 19.85 2.95 19.6 2.8 19.35 2.65 19.1 2.5 18.85 2.35 18.6 2.2 18.35 2.05 18.05 1.95 17.8 1.8 17.55 1.7 17.3 1.6 17.0 1.5 16.25 1.25 15.5 1.05 14.8 0.9 14.05 0.85 13.3 0.75 12.6 0.8 11.85 0.85 11.15 0.95 10.45 1.1 9.7 1.35 9.0 1.6 8.3 1.95 7.6 2.25 6.9 2.7 6.2 3.15 5.55 3.7 5.25 3.95 5.0 4.15 4.7 4.4 4.45 4.7 4.2 4.95 4.0 5.2 3.75 5.5 3.55 5.8 3.35 6.05 3.15 6.4 3.0 6.7 2.8 7.0 2.65 7.3 2.5 7.65 2.35 8.0 2.25 8.35 2.15 8.7 2.0 9.0 1.9 9.35 1.8 9.7 1.75 10.05 1.65 10.4 1.55 10.8 1.5 11.15 1.45 11.5 1.4 11.9 1.35 12.25 1.3 12.65 1.3 13.05 1.25 13.45 1.25 13.85 1.25 14.25 1.25 14.65 1.25 15.05 1.25 15.45 1.3 15.85 1.35 16.2 1.4 16.6 1.5 17.0 1.6 17.35 1.7 17.75 1.85 18.1 2.0 18.5 2.2 18.85 2.35 19.25 2.55 19.6 2.75 19.95 2.95 20.35 3.2 20.7 3.45 21.05 3.7 21.35 3.95 21.7 4.25 22.0 4.55 22.25 4.8 22.5 5.1 22.75 5.4 23.0 5.7 23.2 6.05 23.45 6.35 23.6 6.7 23.8 7.0 23.95 7.35 24.1 7.7 24.25 8.05 24.4 8.45 24.5 8.8 24.6 9.15 24.7 9.5 24.8 9.9 24.9 10.25 24.95 10.6 25.05 10.95 25.1 11.3 25.15 11.65 25.2 12.05 25.25 12.4 25.25 12.75 25.3 13.1 25.3 13.45 25.3 L13.45 25.3" fill="#000000" fill-rule="evenodd" stroke="none"/>
    </g>
    <g id="shape1" transform="matrix(1.0, 0.0, 0.0, 1.0, 0.0, 0.0)">
      <path d="M8.95 9.1 Q9.0 9.1 9.05 9.1 9.1 9.1 9.15 9.1 9.2 9.1 9.25 9.15 9.3 9.15 9.35 9.15 9.4 9.15 9.4 9.15 9.45 9.2 9.55 9.25 9.65 9.35 9.8 9.45 9.9 9.6 10.05 9.75 10.25 9.95 10.45 10.2 10.55 10.3 10.65 10.4 10.7 10.55 10.8 10.65 10.9 10.8 11.0 10.9 11.1 11.05 11.15 11.2 11.25 11.3 11.35 11.45 11.45 11.6 11.55 11.8 11.6 11.95 11.7 12.1 11.8 12.25 11.85 12.45 11.95 12.6 12.0 12.8 12.1 12.95 12.15 13.1 12.25 13.25 12.3 13.4 12.35 13.5 12.4 13.65 12.45 13.75 12.5 13.9 12.55 14.0 12.55 14.1 12.6 14.2 12.65 14.3 12.65 14.4 12.65 14.45 12.8 15.05 12.8 16.85 12.8 17.1 12.8 17.3 12.8 17.5 12.8 17.65 12.75 17.85 12.75 18.0 12.75 18.15 12.75 18.3 12.75 18.45 12.7 18.55 12.7 18.65 12.7 18.75 12.65 18.8 12.65 18.85 12.6 18.95 12.6 18.95 12.6 19.0 12.55 19.0 12.5 19.05 12.5 19.1 12.45 19.15 12.4 19.15 12.35 19.2 12.3 19.2 12.25 19.25 12.2 19.25 12.15 19.3 12.1 19.3 12.0 19.35 11.95 19.35 11.9 19.4 11.8 19.4 11.7 19.4 11.65 19.45 11.6 19.45 11.55 19.5 11.45 19.5 11.4 19.55 11.35 19.55 11.35 19.6 11.3 19.65 11.25 19.65 11.25 19.7 11.2 19.75 11.2 19.75 11.2 19.8 11.2 19.85 11.2 19.9 L11.2 20.0 Q11.2 20.05 11.2 20.05 11.2 20.1 11.25 20.1 11.25 20.15 11.3 20.15 11.3 20.2 11.35 20.2 11.35 20.2 11.4 20.25 11.45 20.25 11.5 20.25 11.55 20.3 11.6 20.3 11.65 20.3 11.7 20.3 12.15 20.4 13.95 20.4 15.8 20.35 16.15 20.3 16.2 20.3 16.25 20.3 16.3 20.25 16.35 20.25 16.4 20.25 16.45 20.2 16.5 20.2 16.5 20.15 16.55 20.15 16.6 20.1 16.6 20.1 16.6 20.05 16.65 20.05 16.65 20.0 16.65 19.95 16.65 19.9 16.65 19.85 16.65 19.85 16.65 19.8 16.6 19.75 16.6 19.75 16.55 19.7 16.55 19.65 16.5 19.65 16.45 19.6 16.4 19.55 16.35 19.55 16.3 19.5 16.25 19.5 16.2 19.45 16.1 19.45 16.05 19.4 15.95 19.4 15.9 19.35 15.85 19.35 15.75 19.3 15.7 19.25 15.65 19.25 15.6 19.2 15.55 19.15 15.5 19.1 15.45 19.05 15.4 19.0 15.35 18.95 15.3 18.9 15.3 18.8 15.25 18.75 15.25 18.7 15.2 18.6 15.2 18.5 15.2 18.45 15.15 18.3 15.15 18.2 15.1 18.05 15.1 17.95 15.1 17.8 15.1 17.65 15.05 17.5 15.05 17.35 15.05 17.15 15.05 16.95 15.05 16.8 15.05 16.6 15.05 16.35 L15.05 14.35 16.8 11.05 Q16.95 10.85 18.65 7.5 18.65 7.45 18.7 7.4 18.7 7.35 18.7 7.3 18.7 7.25 18.7 7.2 18.7 7.15 18.7 7.1 18.7 7.05 18.7 7.0 18.7 7.0 18.7 6.95 18.7 6.9 18.7 6.85 18.7 6.8 18.65 6.8 18.65 6.75 18.6 6.75 18.55 6.75 18.5 6.7 18.45 6.7 18.4 6.65 18.3 6.65 18.25 6.65 18.15 6.65 18.05 6.6 17.95 6.6 17.85 6.6 17.75 6.6 17.65 6.6 16.7 6.6 16.45 6.55 16.4 6.55 16.35 6.5 16.35 6.5 16.3 6.45 16.25 6.45 16.25 6.4 16.2 6.4 16.2 6.35 16.15 6.3 16.15 6.3 16.1 6.25 16.1 6.2 16.05 6.15 16.05 6.1 16.0 6.1 16.0 6.05 16.0 6.0 15.95 5.95 15.95 5.9 15.95 5.85 15.9 5.8 15.9 5.8 15.85 5.75 15.85 5.75 15.8 5.7 15.8 5.7 15.75 5.65 15.75 5.65 15.7 5.65 15.65 5.65 15.65 5.6 15.6 5.6 15.55 5.6 15.45 5.6 15.4 5.65 15.35 5.7 15.25 5.7 15.2 5.75 15.15 5.8 15.1 5.9 15.05 5.95 14.95 6.05 14.9 6.15 14.85 6.25 14.8 6.35 14.75 6.45 14.7 6.6 14.65 6.7 14.25 7.85 14.25 8.1 14.3 8.35 14.3 8.4 14.3 8.45 14.35 8.5 14.4 8.5 14.4 8.55 14.45 8.6 14.55 8.6 14.6 8.65 14.65 8.65 14.75 8.7 14.8 8.7 14.9 8.75 15.0 8.75 15.1 8.75 15.2 8.8 15.3 8.8 15.45 8.8 15.5 8.8 15.55 8.8 15.6 8.85 15.65 8.85 15.7 8.85 15.75 8.85 15.8 8.9 15.8 8.9 15.85 8.95 15.85 8.95 15.9 9.0 15.9 9.0 15.9 9.05 15.9 9.1 15.95 9.15 15.95 9.15 15.9 9.5 15.25 10.9 15.15 11.1 15.1 11.25 15.0 11.4 14.95 11.55 14.85 11.65 14.8 11.8 14.7 11.9 14.65 12.0 14.6 12.05 14.55 12.15 14.5 12.2 14.45 12.25 14.4 12.3 14.4 12.3 14.35 12.35 14.3 12.35 14.3 12.35 14.1 11.9 13.8 11.3 13.45 10.6 13.35 10.4 13.25 10.2 13.15 9.95 13.0 9.75 12.9 9.55 12.8 9.4 12.65 9.2 12.55 9.0 12.4 8.8 12.25 8.65 12.15 8.45 12.0 8.3 11.85 8.15 11.7 7.95 11.55 7.8 11.4 7.65 11.25 7.5 11.1 7.35 10.95 7.25 10.85 7.1 10.7 7.0 10.55 6.9 10.45 6.8 10.3 6.75 10.2 6.65 10.1 6.6 9.95 6.55 9.85 6.5 9.75 6.45 9.65 6.45 9.55 6.45 9.45 6.45 9.4 6.45 9.35 6.45 9.35 6.45 9.3 6.45 9.25 6.45 9.2 6.5 9.15 6.5 9.1 6.55 8.95 6.6 8.1 7.65 8.0 7.8 7.9 7.9 7.8 8.0 7.75 8.1 7.65 8.2 7.6 8.3 7.55 8.4 7.5 8.5 7.45 8.6 7.4 8.65 7.35 8.75 7.35 8.8 7.3 8.85 7.3 8.9 7.3 8.95 7.3 9.0 7.3 9.0 7.3 9.05 7.3 9.05 7.3 9.1 7.35 9.1 7.35 9.1 7.35 9.15 7.4 9.15 7.4 9.15 7.45 9.15 7.5 9.2 7.55 9.2 7.55 9.2 7.6 9.2 7.65 9.2 7.7 9.2 L8.95 9.1" fill="#ffffff" fill-rule="evenodd" stroke="none"/>
    </g>
  </defs>
</svg>
