<?xml version="1.0" encoding="UTF-8" standalone="no"?>
<svg xmlns:ffdec="https://www.free-decompiler.com/flash" xmlns:xlink="http://www.w3.org/1999/xlink" ffdec:objectType="frame" height="26.55px" width="70.8px" xmlns="http://www.w3.org/2000/svg">
  <g transform="matrix(1.0, 0.0, 0.0, 1.0, 0.2, 0.4)">
    <use ffdec:characterId="1" height="26.0" transform="matrix(1.0, 0.0, 0.0, 1.0, 0.0, 0.0)" width="35.75" xlink:href="#shape0"/>
    <use ffdec:characterId="24" height="26.0" transform="matrix(2.0714, 0.0, 0.0, 0.3756, 16.75, 15.75)" width="26.0" xlink:href="#shape1"/>
    <use ffdec:characterId="24" height="26.0" transform="matrix(2.0714, 0.0, 0.0, 0.3756, 15.95, 15.15)" width="26.0" xlink:href="#shape1"/>
  </g>
  <defs>
    <g id="shape0" transform="matrix(1.0, 0.0, 0.0, 1.0, 0.0, 0.0)">
      <path d="M35.1 2.45 Q35.1 2.5 35.1 2.55 35.1 2.55 35.1 2.6 L35.1 4.05 34.45 3.8 35.1 4.5 35.1 5.25 34.55 5.25 35.1 6.45 35.1 7.1 34.9 8.15 35.1 7.8 35.1 9.55 34.45 9.85 34.8 10.05 35.35 9.8 35.35 8.05 35.15 8.4 35.35 7.35 35.35 6.7 34.8 5.5 35.35 5.5 35.35 4.75 34.7 4.05 35.35 4.3 35.35 2.85 Q35.35 2.85 35.35 2.8 35.35 2.7 35.35 2.65 35.35 2.55 35.3 2.55 35.3 2.5 35.25 2.5 35.2 2.5 35.1 2.45 L35.1 2.45 M35.1 10.4 L35.1 22.5 35.1 23.15 Q35.1 23.45 35.05 23.5 35.05 23.5 34.75 23.5 L34.1 23.5 33.45 23.5 32.6 23.5 32.6 23.75 33.7 23.75 34.35 23.75 35.0 23.75 Q35.25 23.75 35.3 23.75 35.35 23.7 35.35 23.4 L35.35 22.75 35.35 10.55 35.1 10.4 M32.3 22.75 L31.55 23.5 25.95 23.5 25.1 23.05 25.0 23.5 24.0 23.5 23.7 23.5 22.6 23.4 21.9 23.5 20.7 23.5 20.55 23.3 20.05 23.55 7.95 23.5 7.15 23.25 6.65 23.5 5.8 23.5 5.5 23.35 4.75 23.5 4.1 23.5 3.45 23.5 2.8 23.5 2.2 23.45 1.55 23.5 1.1 23.5 Q1.1 23.55 1.1 23.75 1.1 23.75 1.1 23.75 1.1 23.75 1.15 23.75 L1.75 23.75 2.45 23.7 3.05 23.75 3.7 23.75 4.35 23.75 5.0 23.75 5.75 23.6 6.05 23.75 6.9 23.75 18.95 23.75 19.75 23.75 20.3 23.8 20.8 23.55 20.9 23.75 22.15 23.75 22.85 23.65 23.95 23.75 24.25 23.75 25.25 23.75 25.35 23.3 26.15 23.75 31.8 23.75 32.35 23.2 32.3 22.75" fill="#ffffff" fill-rule="evenodd" stroke="none"/>
      <path d="M0.9 2.2 L4.25 2.2 4.5 2.65 4.8 2.4 6.0 2.2 13.45 2.2 13.6 2.7 14.05 2.2 15.35 2.2 26.5 2.2 27.0 2.65 27.2 2.2 27.85 2.2 34.75 2.2 Q34.95 2.2 35.0 2.25 35.1 2.25 35.1 2.35 35.1 2.4 35.1 2.55 35.1 2.55 35.1 2.6 L35.1 4.05 34.45 3.8 35.1 4.5 35.1 5.25 34.55 5.25 35.1 6.45 35.1 7.1 34.9 8.15 35.1 7.8 35.1 9.55 34.45 9.85 35.1 10.3 35.1 22.5 35.1 23.15 Q35.1 23.4 35.1 23.4 35.05 23.5 35.0 23.5 35.0 23.5 34.75 23.5 L34.1 23.5 33.45 23.5 32.35 23.5 32.3 22.75 31.55 23.5 25.95 23.5 25.1 23.05 25.0 23.5 24.0 23.5 23.7 23.5 22.6 23.4 21.9 23.5 20.7 23.5 20.55 23.3 20.05 23.55 7.95 23.5 7.15 23.25 6.65 23.5 5.8 23.5 5.5 23.35 4.75 23.5 4.1 23.5 3.45 23.5 2.8 23.5 2.2 23.45 1.55 23.5 0.9 23.5 Q0.9 23.5 0.9 23.5 0.85 23.5 0.85 23.5 0.65 23.5 0.6 23.5 0.55 23.5 0.55 23.45 0.55 23.4 0.55 23.2 0.55 23.2 0.55 23.2 0.55 23.2 0.55 23.2 0.55 23.15 0.55 23.15 L0.55 17.7 1.3 17.5 0.55 16.75 0.55 16.1 0.55 15.45 0.55 14.45 0.95 14.15 0.55 13.9 0.55 10.65 0.9 10.45 0.55 9.9 0.55 9.0 0.55 8.35 0.55 7.7 1.0 7.2 0.55 6.85 0.55 2.6 Q0.55 2.55 0.55 2.55 0.55 2.4 0.55 2.35 0.55 2.25 0.65 2.25 0.7 2.2 0.85 2.2 0.85 2.2 0.85 2.2 0.85 2.2 0.9 2.2 0.9 2.2 0.9 2.2 L0.9 2.2" fill="#000000" fill-rule="evenodd" stroke="none"/>
    </g>
    <g id="shape1" transform="matrix(1.0, 0.0, 0.0, 1.0, 0.0, 0.0)">
      <path d="M13.0 19.9 Q13.3 19.9 13.6 19.9 13.9 19.9 14.15 19.9 14.35 19.85 14.55 19.85 14.75 19.85 14.95 19.8 15.1 19.8 15.2 19.75 15.35 19.75 15.4 19.7 15.5 19.7 15.55 19.65 15.6 19.6 15.6 19.55 15.6 19.5 15.6 19.45 15.55 19.4 15.55 19.35 15.5 19.3 15.5 19.25 15.45 19.2 15.4 19.2 15.35 19.15 15.3 19.1 15.25 19.05 15.2 19.0 15.1 18.95 15.05 18.9 14.95 18.85 14.85 18.8 L14.15 18.4 14.05 13.35 Q14.05 12.3 14.05 9.95 14.05 8.15 14.15 7.85 14.15 7.8 14.2 7.7 14.2 7.65 14.25 7.6 14.3 7.55 14.35 7.5 14.35 7.45 14.4 7.4 14.45 7.35 14.55 7.35 14.6 7.3 14.65 7.25 14.75 7.25 14.8 7.2 14.85 7.2 14.95 7.15 15.05 7.15 15.1 7.15 15.2 7.1 15.25 7.1 15.35 7.05 15.4 7.05 15.45 7.05 15.5 7.0 15.55 7.0 15.55 6.95 15.6 6.9 15.6 6.9 15.65 6.85 15.65 6.8 15.65 6.8 15.65 6.75 15.65 6.7 15.65 6.65 15.65 6.6 15.6 6.55 15.6 6.5 15.6 6.5 15.55 6.45 15.5 6.4 15.5 6.4 15.45 6.35 15.4 6.35 15.35 6.3 15.3 6.3 15.25 6.25 15.2 6.25 15.1 6.25 14.95 6.25 14.85 6.2 14.7 6.2 14.55 6.2 14.4 6.15 14.25 6.15 14.1 6.15 13.95 6.15 13.8 6.1 13.65 6.1 13.5 6.1 13.35 6.1 13.2 6.1 13.05 6.1 12.85 6.1 12.7 6.1 11.5 6.1 10.95 6.15 10.9 6.15 10.8 6.15 10.75 6.2 10.7 6.2 10.65 6.25 10.6 6.25 10.55 6.3 10.5 6.35 10.45 6.35 10.45 6.4 10.4 6.45 10.4 6.5 10.35 6.55 10.35 6.65 10.35 6.7 10.35 6.75 10.35 6.8 10.35 6.8 10.35 6.85 10.4 6.85 10.4 6.9 10.45 6.9 10.45 6.95 10.5 6.95 10.55 7.0 10.6 7.0 10.65 7.05 10.85 7.15 11.1 7.25 11.3 7.35 L11.9 7.65 11.9 18.4 11.1 18.75 Q11.0 18.8 10.95 18.85 10.85 18.9 10.8 18.9 10.7 18.95 10.65 19.0 10.6 19.05 10.55 19.1 10.5 19.1 10.45 19.15 10.45 19.2 10.4 19.25 10.4 19.3 10.4 19.35 10.35 19.35 10.35 19.4 10.35 19.45 10.4 19.5 10.45 19.6 10.55 19.65 10.6 19.65 10.75 19.7 10.85 19.75 11.0 19.8 11.2 19.8 11.4 19.85 11.6 19.85 11.85 19.9 12.1 19.9 12.35 19.9 12.65 19.9 13.0 19.9 L13.0 19.9" fill="#ffffff" fill-rule="evenodd" stroke="none"/>
    </g>
  </defs>
</svg>
