<?xml version="1.0" encoding="UTF-8" standalone="no"?>
<svg xmlns:ffdec="https://www.free-decompiler.com/flash" xmlns:xlink="http://www.w3.org/1999/xlink" ffdec:objectType="frame" height="26.55px" width="70.8px" xmlns="http://www.w3.org/2000/svg">
  <g transform="matrix(1.0, 0.0, 0.0, 1.0, 0.2, 0.4)">
    <use ffdec:characterId="132" height="26.0" transform="matrix(1.0, 0.0, 0.0, 1.0, 0.05, 0.05)" width="26.0" xlink:href="#shape0"/>
    <use ffdec:characterId="144" height="13.1" transform="matrix(1.0, 0.0, 0.0, 1.0, 8.4, 7.1)" width="10.95" xlink:href="#shape1"/>
    <use ffdec:characterId="144" height="13.1" transform="matrix(1.0, 0.0, 0.0, 1.0, 7.6, 6.5)" width="10.95" xlink:href="#shape1"/>
  </g>
  <defs>
    <g id="shape0" transform="matrix(1.0, 0.0, 0.0, 1.0, -0.05, -0.05)">
      <path d="M13.45 25.3 Q13.8 25.3 14.15 25.3 14.5 25.25 14.9 25.2 15.25 25.15 15.65 25.05 16.0 24.95 16.4 24.85 16.75 24.7 17.15 24.55 17.55 24.4 17.95 24.2 18.35 24.05 18.75 23.8 19.15 23.6 19.55 23.35 19.95 23.1 20.35 22.8 20.7 22.55 21.05 22.25 21.4 21.9 21.7 21.6 22.05 21.3 22.3 20.95 22.6 20.6 22.85 20.2 23.1 19.85 23.35 19.45 23.55 19.05 23.75 18.65 23.95 18.2 24.1 17.8 24.25 17.35 24.4 16.9 24.5 16.45 24.6 16.0 24.7 15.5 24.75 15.05 24.8 14.55 24.85 14.1 24.85 13.6 24.85 13.1 24.85 12.65 24.85 12.15 24.8 11.65 24.75 11.1 24.7 10.6 24.6 10.1 24.5 9.6 24.35 9.1 24.25 8.6 24.05 8.15 23.9 7.7 23.7 7.3 23.55 6.85 23.3 6.45 23.1 6.05 22.85 5.7 22.6 5.35 22.35 5.05 22.05 4.7 21.75 4.4 21.45 4.15 21.1 3.9 20.85 3.7 20.6 3.5 20.35 3.3 20.1 3.15 19.85 2.95 19.6 2.8 19.35 2.65 19.1 2.5 18.85 2.35 18.6 2.2 18.35 2.05 18.05 1.95 17.8 1.8 17.55 1.7 17.3 1.6 17.0 1.5 16.25 1.25 15.5 1.05 14.8 0.9 14.05 0.85 13.3 0.75 12.6 0.8 11.85 0.85 11.15 0.95 10.45 1.1 9.7 1.35 9.0 1.6 8.3 1.95 7.6 2.25 6.9 2.7 6.2 3.15 5.55 3.7 5.25 3.95 5.0 4.15 4.7 4.4 4.45 4.7 4.2 4.95 4.0 5.2 3.75 5.5 3.55 5.8 3.35 6.05 3.15 6.4 3.0 6.7 2.8 7.0 2.65 7.3 2.5 7.65 2.35 8.0 2.25 8.35 2.15 8.7 2.0 9.0 1.9 9.35 1.8 9.7 1.75 10.05 1.65 10.4 1.55 10.8 1.5 11.15 1.45 11.5 1.4 11.9 1.35 12.25 1.3 12.65 1.3 13.05 1.25 13.45 1.25 13.85 1.25 14.25 1.25 14.65 1.25 15.05 1.25 15.45 1.3 15.85 1.35 16.2 1.4 16.6 1.5 17.0 1.6 17.35 1.7 17.75 1.85 18.1 2.0 18.5 2.2 18.85 2.35 19.25 2.55 19.6 2.75 19.95 2.95 20.35 3.2 20.7 3.45 21.05 3.7 21.35 3.95 21.7 4.25 22.0 4.55 22.25 4.8 22.5 5.1 22.75 5.4 23.0 5.7 23.2 6.05 23.45 6.35 23.6 6.7 23.8 7.0 23.95 7.35 24.1 7.7 24.25 8.05 24.4 8.45 24.5 8.8 24.6 9.15 24.7 9.5 24.8 9.9 24.9 10.25 24.95 10.6 25.05 10.95 25.1 11.3 25.15 11.65 25.2 12.05 25.25 12.4 25.25 12.75 25.3 13.1 25.3 13.45 25.3 L13.45 25.3" fill="#000000" fill-rule="evenodd" stroke="none"/>
    </g>
    <g id="shape1" transform="matrix(1.0, 0.0, 0.0, 1.0, 0.0, 0.0)">
      <path d="M0.0 0.15 L1.7 0.15 1.7 11.45 4.55 11.45 4.55 12.95 0.0 12.95 0.0 0.15 M9.1 2.7 L8.85 1.9 Q8.65 1.5 8.15 1.5 7.75 1.5 7.5 1.8 7.3 2.05 7.25 2.45 L7.15 3.15 7.15 3.55 5.55 3.55 5.55 3.45 Q5.5 2.45 5.7 1.7 5.85 0.9 6.45 0.45 7.0 0.0 8.1 0.0 9.2 0.0 9.75 0.4 10.35 0.85 10.6 1.6 L10.8 3.3 10.7 4.5 10.35 5.6 Q10.0 6.1 9.35 6.3 L9.35 6.35 10.4 7.0 10.85 8.05 10.95 9.3 10.7 11.2 Q10.45 12.05 9.8 12.6 9.15 13.1 8.0 13.1 6.55 13.1 5.9 12.35 5.3 11.55 5.3 10.15 L5.3 9.75 6.95 9.75 6.95 10.15 7.05 10.85 7.35 11.35 8.0 11.6 8.7 11.3 9.05 10.7 9.2 9.9 9.2 9.2 9.1 8.15 8.65 7.35 7.7 7.05 7.2 7.05 7.2 5.5 7.4 5.5 8.5 5.35 9.0 4.7 9.15 3.55 9.1 2.7" fill="#cccccc" fill-rule="evenodd" stroke="none"/>
    </g>
  </defs>
</svg>
