<?xml version="1.0" encoding="UTF-8" standalone="no"?>
<svg xmlns:ffdec="https://www.free-decompiler.com/flash" xmlns:xlink="http://www.w3.org/1999/xlink" ffdec:objectType="frame" height="26.55px" width="70.8px" xmlns="http://www.w3.org/2000/svg">
  <g transform="matrix(1.0, 0.0, 0.0, 1.0, 0.2, 0.4)">
    <use ffdec:characterId="3" height="26.0" transform="matrix(1.0, 0.0, 0.0, 1.0, 0.0, 0.0)" width="26.0" xlink:href="#shape0"/>
    <use ffdec:characterId="45" height="26.0" transform="matrix(1.0, 0.0, 0.0, 1.0, 0.0, 0.0)" width="26.0" xlink:href="#shape1"/>
    <use ffdec:characterId="45" height="26.0" transform="matrix(1.0, 0.0, 0.0, 1.0, 0.0, 0.0)" width="26.0" xlink:href="#shape1"/>
  </g>
  <defs>
    <g id="shape0" transform="matrix(1.0, 0.0, 0.0, 1.0, 0.0, 0.0)">
      <path d="M23.5 2.45 Q23.5 2.5 23.5 2.5 23.5 2.55 23.5 2.55 23.5 2.55 23.5 2.55 23.5 2.6 23.5 2.6 L23.5 4.05 22.85 3.8 23.5 4.5 23.5 5.25 22.95 5.25 23.5 6.45 23.5 7.1 23.3 8.15 23.5 7.8 23.5 9.55 22.85 9.85 23.15 10.05 23.75 9.8 23.75 8.05 23.5 8.4 23.75 7.35 23.75 6.7 23.2 5.5 23.75 5.5 23.75 4.75 23.1 4.05 23.75 4.3 23.75 2.85 Q23.75 2.8 23.75 2.8 23.75 2.7 23.75 2.65 23.75 2.55 23.7 2.55 23.7 2.5 23.65 2.5 23.6 2.5 23.5 2.45 L23.5 2.45 M23.5 10.4 L23.5 22.5 23.5 23.15 Q23.5 23.4 23.5 23.4 23.45 23.5 23.4 23.5 23.35 23.5 23.15 23.5 L22.5 23.5 21.85 23.5 20.95 23.5 21.0 23.75 22.1 23.75 22.75 23.75 23.4 23.75 Q23.65 23.75 23.7 23.75 23.75 23.7 23.75 23.4 L23.75 22.75 23.75 10.55 23.5 10.4 M20.7 22.75 L19.95 23.5 16.1 23.5 15.25 23.05 15.2 23.5 14.15 23.5 13.9 23.5 12.75 23.4 12.05 23.5 10.85 23.5 10.7 23.3 10.2 23.55 9.7 23.5 8.85 23.25 8.4 23.5 7.5 23.5 7.25 23.35 6.45 23.5 5.85 23.5 5.2 23.5 4.55 23.5 3.95 23.45 3.25 23.5 2.85 23.5 Q2.85 23.55 2.85 23.6 2.85 23.65 2.85 23.7 2.8 23.7 2.8 23.75 2.85 23.75 2.85 23.75 2.85 23.75 2.85 23.75 L3.5 23.75 4.2 23.7 4.8 23.75 5.45 23.75 6.05 23.75 6.7 23.75 7.45 23.6 7.75 23.75 8.65 23.75 9.1 23.5 9.9 23.75 10.45 23.8 10.95 23.55 11.1 23.75 12.3 23.75 13.0 23.65 14.1 23.75 14.4 23.75 15.4 23.75 15.5 23.3 16.35 23.75 20.15 23.75 20.75 23.2 20.7 22.75" fill="#ffffff" fill-rule="evenodd" stroke="none"/>
      <path d="M2.6 2.2 L5.95 2.2 6.2 2.65 6.5 2.4 7.75 2.2 13.5 2.2 13.7 2.7 14.15 2.2 15.45 2.2 16.65 2.2 17.15 2.65 17.35 2.2 18.0 2.2 23.15 2.2 Q23.35 2.2 23.4 2.25 23.45 2.25 23.5 2.35 23.5 2.4 23.5 2.55 23.5 2.55 23.5 2.6 L23.5 4.05 22.85 3.8 23.5 4.5 23.5 5.25 22.95 5.25 23.5 6.45 23.5 7.1 23.3 8.15 23.5 7.8 23.5 9.55 22.85 9.85 23.5 10.3 23.5 22.5 23.5 23.15 Q23.5 23.4 23.5 23.4 23.45 23.5 23.4 23.5 23.35 23.5 23.15 23.5 L22.5 23.5 21.85 23.5 20.75 23.5 20.7 22.75 19.95 23.5 16.1 23.5 15.25 23.05 15.2 23.5 14.15 23.5 13.9 23.5 12.75 23.4 12.05 23.5 10.85 23.5 10.7 23.3 10.2 23.55 9.7 23.5 8.85 23.25 8.4 23.5 7.5 23.5 7.25 23.35 6.45 23.5 5.85 23.5 5.2 23.5 4.55 23.5 3.95 23.45 3.25 23.5 2.6 23.5 Q2.6 23.5 2.6 23.5 2.6 23.5 2.6 23.5 2.4 23.5 2.35 23.5 2.3 23.5 2.25 23.45 2.25 23.4 2.25 23.2 2.25 23.2 2.25 23.2 2.25 23.2 2.25 23.2 2.25 23.15 2.25 23.15 L2.25 17.7 3.05 17.5 2.25 16.75 2.25 16.1 2.25 15.45 2.25 14.45 2.65 14.15 2.25 13.9 2.25 10.65 2.65 10.45 2.25 9.9 2.25 9.0 2.25 8.35 2.25 7.7 2.75 7.2 2.25 6.85 2.25 2.6 Q2.25 2.55 2.25 2.55 2.25 2.4 2.25 2.35 2.3 2.25 2.35 2.25 2.4 2.2 2.55 2.2 2.55 2.2 2.6 2.2 2.6 2.2 2.6 2.2 2.6 2.2 2.6 2.2 L2.6 2.2" fill="#000000" fill-rule="evenodd" stroke="none"/>
    </g>
    <g id="shape1" transform="matrix(1.0, 0.0, 0.0, 1.0, 0.0, 0.0)">
      <path d="M14.45 6.65 Q14.4 6.65 14.4 6.65 14.35 6.65 14.3 6.65 14.25 6.65 14.2 6.65 14.15 6.6 14.1 6.6 14.05 6.55 13.95 6.5 13.9 6.5 13.85 6.45 13.8 6.45 13.75 6.45 13.7 6.4 13.6 6.4 13.55 6.4 13.45 6.4 13.4 6.4 13.3 6.35 13.2 6.35 13.1 6.35 13.0 6.35 12.9 6.35 12.75 6.35 12.65 6.35 12.55 6.35 12.4 6.35 12.3 6.35 12.2 6.35 12.1 6.35 12.0 6.4 11.9 6.4 11.8 6.4 11.75 6.4 11.65 6.45 11.55 6.45 11.5 6.45 11.4 6.5 11.35 6.5 11.3 6.5 11.2 6.55 11.15 6.55 11.05 6.6 11.0 6.6 10.95 6.65 10.9 6.7 10.8 6.7 10.75 6.75 10.7 6.8 10.65 6.8 10.6 6.85 10.55 6.9 10.5 6.95 10.45 7.0 10.4 7.0 10.35 7.05 10.3 7.1 10.15 7.25 10.05 7.4 9.9 7.5 9.8 7.65 9.7 7.8 9.6 7.95 9.5 8.1 9.45 8.25 9.4 8.4 9.35 8.55 9.25 8.7 9.25 8.85 9.2 9.0 9.2 9.15 9.15 9.3 9.15 9.45 9.15 9.6 9.15 9.75 9.2 9.95 9.2 10.05 9.25 10.2 9.25 10.35 9.3 10.5 9.35 10.6 9.35 10.75 9.4 10.85 9.5 11.0 9.55 11.1 9.6 11.2 9.65 11.3 9.75 11.4 9.8 11.45 9.9 11.55 10.0 11.65 10.1 11.75 10.2 11.85 10.35 11.95 10.5 12.05 10.65 12.15 10.8 12.25 10.95 12.4 11.15 12.5 11.35 12.65 11.55 12.75 11.8 12.9 12.0 13.05 12.25 13.2 12.5 13.35 12.75 13.5 13.0 13.65 13.25 13.8 13.45 13.9 13.65 14.05 13.85 14.2 14.05 14.35 14.2 14.45 14.35 14.6 14.5 14.75 14.65 14.9 14.75 15.0 14.9 15.15 15.0 15.25 15.1 15.4 15.15 15.5 15.2 15.55 15.2 15.65 15.25 15.7 15.25 15.75 15.3 15.8 15.3 15.9 15.35 15.95 15.35 16.0 15.4 16.1 15.4 16.15 15.4 16.2 15.4 16.3 15.45 16.35 15.45 16.45 15.45 16.5 15.45 16.6 15.45 16.65 15.45 16.75 15.45 16.8 15.4 16.9 15.4 16.95 15.4 17.05 15.35 17.1 15.35 17.2 15.3 17.25 15.3 17.35 15.25 17.45 15.25 17.5 15.2 17.6 15.15 17.7 15.1 17.75 15.1 17.85 15.05 18.0 14.95 18.1 14.85 18.2 14.75 18.3 14.65 18.4 14.55 18.5 14.45 18.6 14.35 18.65 14.2 18.75 14.1 18.8 13.95 18.85 13.8 18.9 13.7 19.0 13.5 19.0 13.35 19.05 13.2 19.1 13.15 19.1 13.1 19.1 13.1 19.1 13.05 19.15 13.0 19.15 12.95 19.15 12.9 19.15 12.9 19.15 12.85 19.15 12.8 19.15 12.75 19.15 12.75 19.15 12.7 19.15 12.65 19.15 12.65 19.15 12.6 19.15 12.5 19.15 12.35 19.15 12.25 19.15 12.15 19.1 12.05 19.1 11.95 19.1 11.85 19.05 11.75 19.0 11.65 19.0 11.6 18.95 11.5 18.9 11.4 18.85 11.35 18.8 11.25 18.7 11.2 18.65 11.1 18.55 11.05 18.5 11.0 18.45 11.0 18.4 10.95 18.35 10.9 18.3 10.9 18.3 10.85 18.25 10.85 18.2 10.85 18.2 10.85 18.15 10.85 18.1 10.9 18.05 10.9 18.0 11.0 17.95 11.05 17.9 11.15 17.8 11.2 17.75 11.2 17.75 11.25 17.7 11.25 17.65 11.3 17.6 11.3 17.6 11.35 17.55 11.35 17.5 11.35 17.45 11.4 17.4 11.4 17.35 11.4 17.25 11.4 17.2 11.4 17.15 11.45 17.1 11.45 17.0 11.45 16.95 11.45 16.9 11.45 16.8 11.4 16.75 11.4 16.7 11.35 16.65 11.35 16.6 11.35 16.5 11.3 16.45 11.25 16.4 11.25 16.35 11.2 16.3 11.15 16.25 11.1 16.2 11.05 16.15 11.0 16.1 10.95 16.05 10.9 16.0 10.85 15.95 10.8 15.95 10.75 15.9 10.7 15.85 10.65 15.85 10.6 15.8 10.55 15.8 10.5 15.75 10.45 15.75 10.4 15.75 10.35 15.7 10.3 15.7 10.25 15.7 10.2 15.7 10.15 15.7 10.1 15.7 10.05 15.7 10.0 15.7 9.95 15.75 9.9 15.75 9.85 15.75 9.8 15.75 9.75 15.75 9.7 15.8 9.65 15.8 9.6 15.8 9.55 15.85 9.5 15.85 9.45 15.9 9.4 15.9 9.3 15.95 9.2 16.05 9.1 16.1 9.0 16.2 8.95 16.25 8.85 16.35 8.8 16.45 8.75 16.55 8.7 16.65 8.65 16.75 8.6 16.9 8.6 17.0 8.55 17.1 8.55 17.25 8.5 17.4 8.5 17.55 8.5 17.7 8.55 17.85 8.55 18.0 8.6 18.15 8.6 18.25 8.7 18.4 8.75 18.55 8.8 18.65 8.9 18.8 8.95 18.9 9.05 19.0 9.15 19.15 9.3 19.25 9.4 19.35 9.55 19.45 9.7 19.6 9.85 19.7 10.0 19.8 10.15 19.85 10.3 19.95 10.45 20.05 10.6 20.1 10.8 20.15 10.95 20.2 11.15 20.25 11.35 20.3 11.55 20.35 11.75 20.35 11.95 20.4 12.15 20.4 12.4 20.4 12.6 20.4 L12.65 20.4 Q12.85 20.4 13.1 20.4 13.3 20.4 13.5 20.35 13.7 20.3 13.9 20.3 14.1 20.25 14.3 20.2 14.45 20.1 14.65 20.05 14.8 20.0 15.0 19.9 15.15 19.8 15.35 19.7 15.5 19.6 15.65 19.5 15.8 19.4 15.95 19.25 16.1 19.1 16.25 19.0 16.35 18.85 16.5 18.7 16.6 18.55 16.7 18.35 16.8 18.2 16.9 18.0 17.0 17.85 17.05 17.65 17.15 17.45 17.2 17.25 17.3 17.1 17.35 16.85 17.35 16.8 17.4 16.7 17.4 16.65 17.4 16.55 17.4 16.5 17.4 16.45 17.45 16.35 17.45 16.3 17.45 16.25 17.45 16.15 17.45 16.1 17.45 16.05 17.45 15.95 17.45 15.9 17.5 15.85 17.5 15.75 17.5 15.45 17.45 15.15 17.4 14.85 17.25 14.55 17.15 14.25 17.0 13.95 16.85 13.65 16.65 13.4 16.4 13.1 16.15 12.85 15.9 12.6 15.55 12.35 15.25 12.1 14.9 11.85 14.5 11.6 14.1 11.35 12.05 10.2 11.65 9.8 11.6 9.75 11.55 9.7 11.5 9.65 11.45 9.6 11.4 9.55 11.4 9.5 11.35 9.45 11.3 9.4 11.3 9.35 11.25 9.3 11.25 9.25 11.25 9.2 11.25 9.15 11.2 9.1 11.2 9.05 11.2 9.0 11.2 8.95 11.2 8.9 11.2 8.85 11.2 8.8 11.2 8.75 11.25 8.7 11.25 8.65 11.25 8.6 11.25 8.55 11.25 8.55 11.25 8.5 11.3 8.45 11.3 8.4 11.3 8.35 11.3 8.35 11.35 8.3 11.4 8.2 11.45 8.1 11.5 8.05 11.6 7.95 11.65 7.9 11.7 7.8 11.8 7.75 11.9 7.7 12.0 7.65 12.1 7.6 12.2 7.6 12.3 7.55 12.4 7.55 12.5 7.5 12.65 7.5 12.75 7.5 12.85 7.5 12.95 7.5 13.05 7.5 13.1 7.55 13.2 7.55 13.3 7.55 13.4 7.6 13.5 7.65 13.6 7.65 13.65 7.7 13.75 7.75 13.85 7.8 13.95 7.8 14.0 7.85 14.1 7.95 14.2 8.0 14.3 8.05 14.35 8.1 14.45 8.2 14.55 8.25 14.6 8.3 14.7 8.4 14.75 8.45 14.8 8.5 14.9 8.6 14.95 8.65 15.0 8.75 15.1 8.85 15.15 8.9 15.2 9.0 15.25 9.05 15.3 9.15 15.35 9.25 15.4 9.3 15.45 9.4 15.5 9.45 15.55 9.55 15.6 9.6 15.65 9.65 15.65 9.7 15.7 9.75 15.75 9.8 15.8 9.85 15.85 9.9 15.9 9.95 15.95 9.95 15.95 10.0 16.0 10.0 16.05 10.05 16.1 10.05 16.15 10.05 16.15 10.05 16.2 10.05 16.25 10.05 16.3 10.05 16.3 10.05 16.35 10.05 16.4 10.0 16.4 10.0 16.45 9.95 16.45 9.9 16.5 9.85 16.5 9.85 16.5 9.8 L16.5 9.45 Q16.5 9.2 16.0 7.4 15.95 7.15 15.85 6.95 15.8 6.75 15.75 6.6 15.7 6.45 15.6 6.3 15.55 6.15 15.5 6.05 15.4 5.9 15.35 5.85 15.3 5.75 15.25 5.7 15.15 5.65 15.1 5.6 15.05 5.6 15.0 5.6 14.95 5.6 14.9 5.6 14.9 5.6 14.85 5.6 14.8 5.6 14.8 5.65 14.75 5.65 14.75 5.7 14.7 5.7 14.65 5.75 14.65 5.75 14.6 5.8 14.6 5.8 14.6 5.85 14.55 5.9 14.55 5.9 14.55 5.95 14.55 5.95 14.55 6.0 14.5 6.05 14.5 6.05 14.5 6.1 14.5 6.15 14.5 6.2 14.5 6.25 14.5 6.3 14.5 6.4 14.5 6.5 14.5 6.55 14.45 6.6 14.45 6.65 14.45 6.65 L14.45 6.65" fill="#ffffff" fill-rule="evenodd" stroke="none"/>
    </g>
  </defs>
</svg>
