<?xml version="1.0" encoding="UTF-8" standalone="no"?>
<svg xmlns:ffdec="https://www.free-decompiler.com/flash" xmlns:xlink="http://www.w3.org/1999/xlink" ffdec:objectType="frame" height="26.55px" width="70.8px" xmlns="http://www.w3.org/2000/svg">
  <g transform="matrix(1.0, 0.0, 0.0, 1.0, 0.2, 0.4)">
    <use ffdec:characterId="3" height="26.0" transform="matrix(1.0, 0.0, 0.0, 1.0, 0.0, 0.0)" width="26.0" xlink:href="#shape0"/>
    <use ffdec:characterId="46" height="26.0" transform="matrix(1.0, 0.0, 0.0, 1.0, 0.0, 0.0)" width="26.0" xlink:href="#shape1"/>
    <use ffdec:characterId="46" height="26.0" transform="matrix(1.0, 0.0, 0.0, 1.0, 0.0, 0.0)" width="26.0" xlink:href="#shape1"/>
  </g>
  <defs>
    <g id="shape0" transform="matrix(1.0, 0.0, 0.0, 1.0, 0.0, 0.0)">
      <path d="M23.5 2.45 Q23.5 2.5 23.5 2.5 23.5 2.55 23.5 2.55 23.5 2.55 23.5 2.55 23.5 2.6 23.5 2.6 L23.5 4.05 22.85 3.8 23.5 4.5 23.5 5.25 22.95 5.25 23.5 6.45 23.5 7.1 23.3 8.15 23.5 7.8 23.5 9.55 22.85 9.85 23.15 10.05 23.75 9.8 23.75 8.05 23.5 8.4 23.75 7.35 23.75 6.7 23.2 5.5 23.75 5.5 23.75 4.75 23.1 4.05 23.75 4.3 23.75 2.85 Q23.75 2.8 23.75 2.8 23.75 2.7 23.75 2.65 23.75 2.55 23.7 2.55 23.7 2.5 23.65 2.5 23.6 2.5 23.5 2.45 L23.5 2.45 M23.5 10.4 L23.5 22.5 23.5 23.15 Q23.5 23.4 23.5 23.4 23.45 23.5 23.4 23.5 23.35 23.5 23.15 23.5 L22.5 23.5 21.85 23.5 20.95 23.5 21.0 23.75 22.1 23.75 22.75 23.75 23.4 23.75 Q23.65 23.75 23.7 23.75 23.75 23.7 23.75 23.4 L23.75 22.75 23.75 10.55 23.5 10.4 M20.7 22.75 L19.95 23.5 16.1 23.5 15.25 23.05 15.2 23.5 14.15 23.5 13.9 23.5 12.75 23.4 12.05 23.5 10.85 23.5 10.7 23.3 10.2 23.55 9.7 23.5 8.85 23.25 8.4 23.5 7.5 23.5 7.25 23.35 6.45 23.5 5.85 23.5 5.2 23.5 4.55 23.5 3.95 23.45 3.25 23.5 2.85 23.5 Q2.85 23.55 2.85 23.6 2.85 23.65 2.85 23.7 2.8 23.7 2.8 23.75 2.85 23.75 2.85 23.75 2.85 23.75 2.85 23.75 L3.5 23.75 4.2 23.7 4.8 23.75 5.45 23.75 6.05 23.75 6.7 23.75 7.45 23.6 7.75 23.75 8.65 23.75 9.1 23.5 9.9 23.75 10.45 23.8 10.95 23.55 11.1 23.75 12.3 23.75 13.0 23.65 14.1 23.75 14.4 23.75 15.4 23.75 15.5 23.3 16.35 23.75 20.15 23.75 20.75 23.2 20.7 22.75" fill="#ffffff" fill-rule="evenodd" stroke="none"/>
      <path d="M2.6 2.2 L5.95 2.2 6.2 2.65 6.5 2.4 7.75 2.2 13.5 2.2 13.7 2.7 14.15 2.2 15.45 2.2 16.65 2.2 17.15 2.65 17.35 2.2 18.0 2.2 23.15 2.2 Q23.35 2.2 23.4 2.25 23.45 2.25 23.5 2.35 23.5 2.4 23.5 2.55 23.5 2.55 23.5 2.6 L23.5 4.05 22.85 3.8 23.5 4.5 23.5 5.25 22.95 5.25 23.5 6.45 23.5 7.1 23.3 8.15 23.5 7.8 23.5 9.55 22.85 9.85 23.5 10.3 23.5 22.5 23.5 23.15 Q23.5 23.4 23.5 23.4 23.45 23.5 23.4 23.5 23.35 23.5 23.15 23.5 L22.5 23.5 21.85 23.5 20.75 23.5 20.7 22.75 19.95 23.5 16.1 23.5 15.25 23.05 15.2 23.5 14.15 23.5 13.9 23.5 12.75 23.4 12.05 23.5 10.85 23.5 10.7 23.3 10.2 23.55 9.7 23.5 8.85 23.25 8.4 23.5 7.5 23.5 7.25 23.35 6.45 23.5 5.85 23.5 5.2 23.5 4.55 23.5 3.95 23.45 3.25 23.5 2.6 23.5 Q2.6 23.5 2.6 23.5 2.6 23.5 2.6 23.5 2.4 23.5 2.35 23.5 2.3 23.5 2.25 23.45 2.25 23.4 2.25 23.2 2.25 23.2 2.25 23.2 2.25 23.2 2.25 23.2 2.25 23.15 2.25 23.15 L2.25 17.7 3.05 17.5 2.25 16.75 2.25 16.1 2.25 15.45 2.25 14.45 2.65 14.15 2.25 13.9 2.25 10.65 2.65 10.45 2.25 9.9 2.25 9.0 2.25 8.35 2.25 7.7 2.75 7.2 2.25 6.85 2.25 2.6 Q2.25 2.55 2.25 2.55 2.25 2.4 2.25 2.35 2.3 2.25 2.35 2.25 2.4 2.2 2.55 2.2 2.55 2.2 2.6 2.2 2.6 2.2 2.6 2.2 2.6 2.2 2.6 2.2 L2.6 2.2" fill="#000000" fill-rule="evenodd" stroke="none"/>
    </g>
    <g id="shape1" transform="matrix(1.0, 0.0, 0.0, 1.0, 0.0, 0.0)">
      <path d="M7.3 6.75 Q7.3 6.8 7.3 6.85 7.3 6.9 7.35 6.9 7.35 6.95 7.4 6.95 8.05 7.25 8.2 7.35 L8.8 7.65 8.8 18.4 8.0 18.75 Q7.9 18.8 7.85 18.85 7.75 18.9 7.7 18.9 7.65 18.95 7.6 19.0 7.5 19.05 7.5 19.1 7.45 19.1 7.4 19.15 7.35 19.2 7.35 19.25 7.3 19.3 7.3 19.35 7.3 19.35 7.3 19.4 7.3 19.45 7.3 19.45 7.3 19.5 7.35 19.55 7.35 19.55 7.35 19.6 7.4 19.65 7.45 19.65 7.45 19.7 7.5 19.7 7.55 19.75 7.6 19.75 7.65 19.75 7.7 19.8 7.8 19.8 7.85 19.8 8.35 19.95 12.25 19.95 12.45 19.95 12.6 19.95 12.75 19.95 12.9 19.95 13.05 19.95 13.2 19.95 13.35 19.9 13.5 19.9 13.6 19.9 13.75 19.9 13.85 19.85 14.0 19.85 14.1 19.8 14.2 19.8 14.3 19.75 14.4 19.75 14.7 19.65 15.0 19.55 15.3 19.4 15.55 19.25 15.8 19.1 16.05 18.95 16.3 18.75 16.55 18.55 16.75 18.35 17.0 18.1 17.2 17.85 17.4 17.6 17.55 17.35 17.75 17.05 17.9 16.75 18.05 16.4 18.15 16.2 18.2 16.0 18.3 15.85 18.35 15.65 18.4 15.45 18.45 15.25 18.5 15.05 18.55 14.9 18.6 14.7 18.65 14.5 18.65 14.35 18.7 14.15 18.7 13.95 18.7 13.8 18.7 13.6 18.7 13.45 18.7 13.25 18.7 13.1 18.7 12.9 18.7 12.75 18.7 12.6 18.7 12.4 18.65 12.25 18.65 12.1 18.65 11.95 18.6 11.8 18.6 11.65 18.55 11.5 18.5 11.35 18.5 11.2 18.45 11.05 18.4 10.95 18.35 10.8 18.35 10.7 18.3 10.6 18.25 10.45 18.2 10.35 18.2 10.25 18.15 10.15 18.1 10.05 18.05 9.95 18.05 9.85 18.0 9.75 17.95 9.65 17.9 9.55 17.85 9.5 17.85 9.4 17.8 9.35 17.75 9.3 17.7 9.2 17.65 9.15 17.6 9.05 17.55 9.0 17.5 8.9 17.45 8.85 17.35 8.75 17.3 8.7 17.2 8.6 17.15 8.5 17.05 8.45 17.0 8.35 16.9 8.25 16.8 8.15 16.75 8.1 16.6 7.95 16.45 7.8 16.25 7.65 16.1 7.5 15.95 7.4 15.8 7.25 15.65 7.15 15.45 7.05 15.3 6.95 15.15 6.85 15.0 6.75 14.85 6.7 14.65 6.6 14.5 6.55 14.35 6.45 14.2 6.4 14.05 6.35 13.85 6.3 13.65 6.3 13.45 6.25 13.25 6.2 13.05 6.2 12.85 6.15 12.6 6.15 12.35 6.1 12.1 6.1 11.85 6.05 11.6 6.05 11.35 6.05 11.05 6.05 10.75 6.05 10.45 6.05 8.1 6.05 7.6 6.15 7.55 6.15 7.55 6.2 7.5 6.2 7.45 6.25 7.45 6.25 7.4 6.3 7.4 6.3 7.35 6.35 7.35 6.4 7.3 6.45 7.3 6.5 7.3 6.5 7.3 6.55 7.3 6.6 7.3 6.7 7.3 6.75 L7.3 6.75 M14.8 8.8 Q14.9 8.9 15.0 9.0 15.1 9.1 15.15 9.25 15.25 9.35 15.3 9.45 15.4 9.55 15.45 9.65 15.5 9.8 15.6 9.9 15.65 10.0 15.7 10.1 15.75 10.2 15.8 10.35 15.85 10.45 15.85 10.55 15.9 10.65 15.95 10.8 15.95 10.9 16.0 11.05 16.05 11.15 16.05 11.3 16.1 11.45 16.1 11.65 16.1 11.8 16.15 11.95 16.15 12.15 16.15 12.35 16.15 12.5 16.2 12.75 16.2 12.95 16.2 13.15 16.2 13.35 16.2 13.55 16.2 13.75 16.15 13.95 16.15 14.15 16.15 14.35 16.15 14.5 16.1 14.7 16.1 14.85 16.05 15.05 16.05 15.2 16.0 15.35 16.0 15.55 15.95 15.7 15.9 15.85 15.85 16.0 15.8 16.15 15.75 16.25 15.7 16.4 15.65 16.5 15.6 16.65 15.55 16.75 15.5 16.9 15.4 17.0 15.35 17.15 15.25 17.25 15.15 17.4 15.1 17.5 15.0 17.6 14.9 17.7 14.8 17.85 14.65 17.95 14.55 18.05 14.45 18.15 14.35 18.25 14.25 18.3 14.1 18.4 14.0 18.45 13.9 18.5 13.8 18.55 13.7 18.6 13.6 18.65 13.5 18.7 13.4 18.75 13.3 18.75 13.15 18.75 13.05 18.8 12.95 18.8 12.85 18.8 12.75 18.8 12.65 18.8 12.55 18.75 12.5 18.75 12.4 18.7 12.3 18.7 12.2 18.65 12.15 18.65 12.05 18.6 12.0 18.55 11.9 18.5 11.85 18.45 11.8 18.4 11.75 18.35 11.65 18.3 11.6 18.25 11.55 18.15 11.5 18.1 11.45 18.0 11.4 17.9 11.35 17.85 11.35 17.75 11.3 17.65 11.25 17.6 11.25 17.5 11.2 17.4 11.2 17.3 11.2 17.2 11.15 17.1 11.15 17.0 11.15 16.9 11.05 16.05 11.05 12.4 L11.05 7.25 11.8 7.25 Q12.0 7.25 12.2 7.3 12.4 7.3 12.6 7.35 12.8 7.4 13.0 7.45 13.2 7.55 13.4 7.65 13.6 7.75 13.75 7.85 13.95 7.95 14.1 8.1 14.3 8.25 14.45 8.4 14.65 8.6 14.8 8.8 L14.8 8.8" fill="#ffffff" fill-rule="evenodd" stroke="none"/>
    </g>
  </defs>
</svg>
