<?xml version="1.0" encoding="UTF-8" standalone="no"?>
<svg xmlns:ffdec="https://www.free-decompiler.com/flash" xmlns:xlink="http://www.w3.org/1999/xlink" ffdec:objectType="frame" height="26.55px" width="70.8px" xmlns="http://www.w3.org/2000/svg">
  <g transform="matrix(1.0, 0.0, 0.0, 1.0, 0.2, 0.4)">
    <use ffdec:characterId="3" height="26.0" transform="matrix(1.0, 0.0, 0.0, 1.0, 0.0, 0.0)" width="26.0" xlink:href="#shape0"/>
    <use ffdec:characterId="48" height="26.0" transform="matrix(1.0, 0.0, 0.0, 1.0, 0.0, 0.0)" width="26.0" xlink:href="#shape1"/>
    <use ffdec:characterId="48" height="26.0" transform="matrix(1.0, 0.0, 0.0, 1.0, 0.0, 0.0)" width="26.0" xlink:href="#shape1"/>
  </g>
  <defs>
    <g id="shape0" transform="matrix(1.0, 0.0, 0.0, 1.0, 0.0, 0.0)">
      <path d="M23.5 2.45 Q23.5 2.5 23.5 2.5 23.5 2.55 23.5 2.55 23.5 2.55 23.5 2.55 23.5 2.6 23.5 2.6 L23.5 4.05 22.85 3.8 23.5 4.5 23.5 5.25 22.95 5.25 23.5 6.45 23.5 7.1 23.3 8.15 23.5 7.8 23.5 9.55 22.85 9.85 23.15 10.05 23.75 9.8 23.75 8.05 23.5 8.4 23.75 7.35 23.75 6.7 23.2 5.5 23.75 5.5 23.75 4.75 23.1 4.05 23.75 4.3 23.75 2.85 Q23.75 2.8 23.75 2.8 23.75 2.7 23.75 2.65 23.75 2.55 23.7 2.55 23.7 2.5 23.65 2.5 23.6 2.5 23.5 2.45 L23.5 2.45 M23.5 10.4 L23.5 22.5 23.5 23.15 Q23.5 23.4 23.5 23.4 23.45 23.5 23.4 23.5 23.35 23.5 23.15 23.5 L22.5 23.5 21.85 23.5 20.95 23.5 21.0 23.75 22.1 23.75 22.75 23.75 23.4 23.75 Q23.65 23.75 23.7 23.75 23.75 23.7 23.75 23.4 L23.75 22.75 23.75 10.55 23.5 10.4 M20.7 22.75 L19.95 23.5 16.1 23.5 15.25 23.05 15.2 23.5 14.15 23.5 13.9 23.5 12.75 23.4 12.05 23.5 10.85 23.5 10.7 23.3 10.2 23.55 9.7 23.5 8.85 23.25 8.4 23.5 7.5 23.5 7.25 23.35 6.45 23.5 5.85 23.5 5.2 23.5 4.55 23.5 3.95 23.45 3.25 23.5 2.85 23.5 Q2.85 23.55 2.85 23.6 2.85 23.65 2.85 23.7 2.8 23.7 2.8 23.75 2.85 23.75 2.85 23.75 2.85 23.75 2.85 23.75 L3.5 23.75 4.2 23.7 4.8 23.75 5.45 23.75 6.05 23.75 6.7 23.75 7.45 23.6 7.75 23.75 8.65 23.75 9.1 23.5 9.9 23.75 10.45 23.8 10.95 23.55 11.1 23.75 12.3 23.75 13.0 23.65 14.1 23.75 14.4 23.75 15.4 23.75 15.5 23.3 16.35 23.75 20.15 23.75 20.75 23.2 20.7 22.75" fill="#ffffff" fill-rule="evenodd" stroke="none"/>
      <path d="M2.6 2.2 L5.95 2.2 6.2 2.65 6.5 2.4 7.75 2.2 13.5 2.2 13.7 2.7 14.15 2.2 15.45 2.2 16.65 2.2 17.15 2.65 17.35 2.2 18.0 2.2 23.15 2.2 Q23.35 2.2 23.4 2.25 23.45 2.25 23.5 2.35 23.5 2.4 23.5 2.55 23.5 2.55 23.5 2.6 L23.5 4.05 22.85 3.8 23.5 4.5 23.5 5.25 22.95 5.25 23.5 6.45 23.5 7.1 23.3 8.15 23.5 7.8 23.5 9.55 22.85 9.85 23.5 10.3 23.5 22.5 23.5 23.15 Q23.5 23.4 23.5 23.4 23.45 23.5 23.4 23.5 23.35 23.5 23.15 23.5 L22.5 23.5 21.85 23.5 20.75 23.5 20.7 22.75 19.95 23.5 16.1 23.5 15.25 23.05 15.2 23.5 14.15 23.5 13.9 23.5 12.75 23.4 12.05 23.5 10.85 23.5 10.7 23.3 10.2 23.55 9.7 23.5 8.85 23.25 8.4 23.5 7.5 23.5 7.25 23.35 6.45 23.5 5.85 23.5 5.2 23.5 4.55 23.5 3.95 23.45 3.25 23.5 2.6 23.5 Q2.6 23.5 2.6 23.5 2.6 23.5 2.6 23.5 2.4 23.5 2.35 23.5 2.3 23.5 2.25 23.45 2.25 23.4 2.25 23.2 2.25 23.2 2.25 23.2 2.25 23.2 2.25 23.2 2.25 23.15 2.25 23.15 L2.25 17.7 3.05 17.5 2.25 16.75 2.25 16.1 2.25 15.45 2.25 14.45 2.65 14.15 2.25 13.9 2.25 10.65 2.65 10.45 2.25 9.9 2.25 9.0 2.25 8.35 2.25 7.7 2.75 7.2 2.25 6.85 2.25 2.6 Q2.25 2.55 2.25 2.55 2.25 2.4 2.25 2.35 2.3 2.25 2.35 2.25 2.4 2.2 2.55 2.2 2.55 2.2 2.6 2.2 2.6 2.2 2.6 2.2 2.6 2.2 2.6 2.2 L2.6 2.2" fill="#000000" fill-rule="evenodd" stroke="none"/>
    </g>
    <g id="shape1" transform="matrix(1.0, 0.0, 0.0, 1.0, 0.0, 0.0)">
      <path d="M17.9 19.25 L17.8 16.9 17.8 16.5 Q17.8 16.45 17.8 16.4 17.8 16.35 17.8 16.3 17.8 16.25 17.85 16.2 17.85 16.15 17.85 16.1 17.85 16.05 17.9 16.0 17.9 15.95 17.9 15.9 17.95 15.85 17.95 15.8 18.0 15.7 18.0 15.65 18.05 15.6 18.05 15.55 18.1 15.5 18.15 15.4 18.2 15.35 18.25 15.3 18.3 15.25 18.4 15.2 18.45 15.1 18.55 15.05 18.6 15.0 18.7 14.9 18.8 14.85 18.9 14.8 19.0 14.7 19.1 14.65 19.15 14.6 19.2 14.6 19.2 14.55 19.25 14.55 19.3 14.55 19.3 14.5 19.35 14.5 19.35 14.45 19.4 14.45 19.4 14.4 19.4 14.4 19.45 14.35 19.45 14.35 19.45 14.3 19.45 14.3 19.45 14.25 19.45 14.2 19.4 14.15 19.35 14.1 19.25 14.05 19.2 14.05 19.05 14.0 18.9 13.95 18.75 13.95 18.55 13.9 18.35 13.9 18.1 13.9 17.85 13.85 17.55 13.85 17.25 13.85 16.9 13.85 16.55 13.85 16.2 13.85 15.85 13.85 15.55 13.85 15.25 13.85 15.0 13.85 14.75 13.85 14.5 13.9 14.35 13.9 14.15 13.9 14.0 13.9 13.85 13.95 13.75 13.95 13.65 13.95 13.6 14.0 13.5 14.0 13.5 14.05 13.5 14.1 13.5 14.1 13.45 14.15 13.45 14.2 13.45 14.25 13.45 14.3 13.45 14.35 13.45 14.4 13.5 14.45 13.5 14.5 13.55 14.55 13.55 14.6 13.6 14.65 13.65 14.7 13.7 14.7 13.75 14.75 13.8 14.8 13.9 14.8 13.95 14.85 14.05 14.85 14.1 14.9 14.2 14.9 14.4 14.95 14.55 15.0 14.7 15.05 14.85 15.15 14.95 15.2 15.1 15.3 15.2 15.4 15.3 15.5 15.35 15.6 15.45 15.7 15.5 15.85 15.55 15.95 15.6 16.1 15.6 16.25 15.6 16.4 15.6 16.55 15.6 16.75 15.6 16.95 15.55 17.1 15.5 17.3 15.45 17.45 15.4 17.6 15.3 17.75 15.2 17.9 15.1 18.0 14.95 18.15 14.85 18.25 14.65 18.35 14.5 18.45 14.35 18.5 14.15 18.6 13.95 18.65 13.9 18.65 13.85 18.7 13.75 18.7 13.7 18.7 13.65 18.75 13.6 18.75 13.55 18.75 13.5 18.75 13.45 18.8 13.35 18.8 13.3 18.8 13.25 18.8 13.2 18.8 13.15 18.8 13.1 18.85 13.05 18.85 L13.0 18.85 Q12.95 18.85 12.9 18.85 12.8 18.85 12.75 18.8 12.7 18.8 12.6 18.8 12.55 18.75 12.45 18.75 12.4 18.7 12.3 18.65 12.2 18.65 12.1 18.6 12.05 18.55 11.95 18.5 11.85 18.45 11.75 18.4 11.55 18.3 11.35 18.2 11.2 18.1 11.0 17.95 10.85 17.8 10.7 17.65 10.55 17.5 10.4 17.35 10.25 17.2 10.1 17.0 9.95 16.8 9.85 16.6 9.75 16.35 9.65 16.15 9.5 15.9 9.4 15.65 9.35 15.5 9.3 15.3 9.25 15.15 9.2 14.95 9.15 14.8 9.1 14.6 9.05 14.45 9.05 14.25 9.0 14.05 9.0 13.85 8.95 13.65 8.95 13.45 8.95 13.25 8.95 13.05 8.9 12.85 8.9 12.65 8.9 12.25 8.95 11.9 8.95 11.55 9.0 11.25 9.05 10.9 9.15 10.6 9.2 10.3 9.35 10.0 9.45 9.75 9.6 9.45 9.7 9.2 9.9 8.95 10.05 8.75 10.25 8.5 10.45 8.3 10.65 8.1 10.75 8.0 10.85 7.9 10.95 7.85 11.05 7.75 11.2 7.7 11.3 7.65 11.4 7.6 11.55 7.55 11.65 7.5 11.8 7.45 11.9 7.45 12.05 7.4 12.2 7.4 12.35 7.35 12.45 7.35 12.6 7.35 12.75 7.35 12.9 7.35 13.05 7.35 13.2 7.4 13.3 7.4 13.45 7.45 13.6 7.45 13.7 7.5 13.85 7.55 13.95 7.55 14.1 7.6 14.2 7.65 14.3 7.7 14.4 7.75 14.55 7.8 14.65 7.9 14.75 7.95 14.85 8.05 14.95 8.1 15.05 8.2 15.15 8.3 15.2 8.35 15.3 8.45 15.4 8.55 15.5 8.65 15.55 8.75 15.65 8.85 15.7 8.95 15.8 9.05 15.85 9.15 15.95 9.25 16.0 9.4 16.05 9.5 16.15 9.6 16.2 9.7 16.25 9.8 16.3 9.9 16.4 9.95 16.45 10.0 16.5 10.1 16.55 10.15 16.6 10.2 16.7 10.2 16.75 10.25 16.8 10.3 16.85 10.3 16.9 10.3 16.95 10.3 17.0 10.3 17.05 10.3 17.1 10.3 17.1 10.3 17.15 10.25 17.2 10.25 17.2 10.2 17.25 10.2 17.25 10.15 17.25 10.1 17.3 10.1 17.3 10.05 17.3 10.0 17.3 9.95 17.3 9.85 17.3 9.8 17.3 9.75 17.3 9.65 17.3 9.55 17.3 9.5 17.25 9.4 17.25 9.3 17.25 9.15 17.2 9.05 17.2 8.9 17.15 8.8 17.1 8.65 17.05 8.5 17.0 8.35 16.95 8.15 16.9 8.0 16.85 7.8 16.4 6.35 16.15 5.85 16.1 5.8 16.1 5.75 16.05 5.7 16.0 5.65 16.0 5.65 15.95 5.6 15.9 5.55 15.9 5.55 15.85 5.5 15.8 5.5 15.8 5.5 15.75 5.45 15.7 5.45 15.7 5.45 15.65 5.45 15.6 5.45 15.55 5.45 15.5 5.45 15.45 5.45 15.4 5.5 15.35 5.5 15.3 5.5 15.3 5.55 15.25 5.6 15.2 5.6 15.2 5.65 15.2 5.7 15.15 5.75 15.15 5.8 15.15 5.9 15.1 5.95 15.1 6.0 15.1 6.25 15.1 6.5 15.1 6.65 15.1 6.8 L14.75 6.5 Q14.7 6.45 14.6 6.4 14.55 6.4 14.45 6.35 14.35 6.35 14.2 6.3 14.1 6.3 13.95 6.25 13.8 6.25 13.65 6.25 13.5 6.2 13.3 6.2 13.15 6.2 12.95 6.2 12.75 6.2 12.5 6.2 12.3 6.2 12.05 6.2 11.85 6.25 11.65 6.25 11.45 6.3 11.25 6.35 11.05 6.35 10.85 6.45 10.65 6.5 10.5 6.55 10.3 6.6 10.15 6.7 9.95 6.8 9.8 6.9 9.6 7.0 9.45 7.1 9.3 7.2 9.15 7.35 8.95 7.45 8.8 7.6 8.65 7.75 8.55 7.95 8.4 8.1 8.25 8.25 8.1 8.45 8.0 8.65 7.85 8.85 7.7 9.05 7.6 9.3 7.45 9.5 7.35 9.75 7.25 10.0 7.15 10.2 7.1 10.4 7.0 10.6 6.95 10.8 6.85 11.05 6.8 11.25 6.75 11.5 6.7 11.7 6.65 11.95 6.65 12.2 6.6 12.45 6.6 12.7 6.55 12.95 6.55 13.2 6.55 13.5 6.55 13.75 6.55 13.95 6.55 14.1 6.55 14.3 6.6 14.5 6.6 14.65 6.6 14.8 6.6 14.95 6.65 15.1 6.65 15.25 6.65 15.4 6.7 15.55 6.7 15.65 6.75 15.8 6.75 15.9 6.8 16.0 6.85 16.1 6.9 16.2 6.9 16.3 6.95 16.4 6.95 16.5 7.0 16.6 7.0 16.7 7.05 16.75 7.05 16.85 7.1 16.9 7.1 17.0 7.15 17.05 7.15 17.1 7.2 17.2 7.2 17.25 7.25 17.3 7.25 17.35 7.45 17.75 7.7 18.1 7.95 18.45 8.2 18.75 8.45 19.05 8.75 19.3 9.05 19.55 9.4 19.75 9.7 19.95 10.05 20.1 10.4 20.25 10.8 20.35 11.2 20.45 11.6 20.5 12.0 20.55 12.45 20.55 12.55 20.55 12.65 20.55 12.75 20.55 12.85 20.55 12.95 20.55 13.05 20.55 13.15 20.55 13.25 20.5 13.35 20.5 13.4 20.5 13.5 20.5 13.55 20.5 13.65 20.45 13.7 20.45 13.75 20.45 13.8 20.4 13.85 20.4 13.95 20.35 14.0 20.35 14.05 20.3 14.1 20.3 14.2 20.25 14.25 20.25 14.35 20.2 14.4 20.15 14.5 20.1 14.55 20.05 14.65 20.05 14.7 20.0 14.8 19.95 14.9 19.85 14.95 19.8 L16.05 19.1 16.75 19.85 Q16.85 19.95 16.9 20.0 17.0 20.05 17.05 20.15 17.1 20.2 17.15 20.25 17.25 20.3 17.3 20.35 17.35 20.35 17.4 20.4 17.45 20.45 17.5 20.45 17.55 20.45 17.6 20.5 17.6 20.5 17.65 20.5 17.7 20.5 17.7 20.5 17.75 20.45 17.75 20.45 17.8 20.4 17.8 20.35 17.85 20.3 17.85 20.25 17.85 20.2 17.9 20.1 17.9 20.05 17.9 19.95 17.9 19.85 17.9 19.75 17.9 19.65 17.9 19.55 L17.9 19.25" fill="#ffffff" fill-rule="evenodd" stroke="none"/>
    </g>
  </defs>
</svg>
