<?xml version="1.0" encoding="UTF-8" standalone="no"?>
<svg xmlns:ffdec="https://www.free-decompiler.com/flash" xmlns:xlink="http://www.w3.org/1999/xlink" ffdec:objectType="frame" height="26.55px" width="70.8px" xmlns="http://www.w3.org/2000/svg">
  <g transform="matrix(1.0, 0.0, 0.0, 1.0, 0.2, 0.4)">
    <use ffdec:characterId="3" height="26.0" transform="matrix(1.0, 0.0, 0.0, 1.0, 0.0, 0.0)" width="26.0" xlink:href="#shape0"/>
    <use ffdec:characterId="50" height="26.0" transform="matrix(1.0, 0.0, 0.0, 1.0, 0.0, 0.0)" width="26.0" xlink:href="#shape1"/>
    <use ffdec:characterId="50" height="26.0" transform="matrix(1.0, 0.0, 0.0, 1.0, 0.0, 0.0)" width="26.0" xlink:href="#shape1"/>
  </g>
  <defs>
    <g id="shape0" transform="matrix(1.0, 0.0, 0.0, 1.0, 0.0, 0.0)">
      <path d="M23.5 2.45 Q23.5 2.5 23.5 2.5 23.5 2.55 23.5 2.55 23.5 2.55 23.5 2.55 23.5 2.6 23.5 2.6 L23.5 4.05 22.85 3.8 23.5 4.5 23.5 5.25 22.95 5.25 23.5 6.45 23.5 7.1 23.3 8.15 23.5 7.8 23.5 9.55 22.85 9.85 23.15 10.05 23.75 9.8 23.75 8.05 23.5 8.4 23.75 7.35 23.75 6.7 23.2 5.5 23.75 5.5 23.75 4.75 23.1 4.05 23.75 4.3 23.75 2.85 Q23.75 2.8 23.75 2.8 23.75 2.7 23.75 2.65 23.75 2.55 23.7 2.55 23.7 2.5 23.65 2.5 23.6 2.5 23.5 2.45 L23.5 2.45 M23.5 10.4 L23.5 22.5 23.5 23.15 Q23.5 23.4 23.5 23.4 23.45 23.5 23.4 23.5 23.35 23.5 23.15 23.5 L22.5 23.5 21.85 23.5 20.95 23.5 21.0 23.75 22.1 23.75 22.75 23.75 23.4 23.75 Q23.65 23.75 23.7 23.75 23.75 23.7 23.75 23.4 L23.75 22.75 23.75 10.55 23.5 10.4 M20.7 22.75 L19.95 23.5 16.1 23.5 15.25 23.05 15.2 23.5 14.15 23.5 13.9 23.5 12.75 23.4 12.05 23.5 10.85 23.5 10.7 23.3 10.2 23.55 9.7 23.5 8.85 23.25 8.4 23.5 7.5 23.5 7.25 23.35 6.45 23.5 5.85 23.5 5.2 23.5 4.55 23.5 3.95 23.45 3.25 23.5 2.85 23.5 Q2.85 23.55 2.85 23.6 2.85 23.65 2.85 23.7 2.8 23.7 2.8 23.75 2.85 23.75 2.85 23.75 2.85 23.75 2.85 23.75 L3.5 23.75 4.2 23.7 4.8 23.75 5.45 23.75 6.05 23.75 6.7 23.75 7.45 23.6 7.75 23.75 8.65 23.75 9.1 23.5 9.9 23.75 10.45 23.8 10.95 23.55 11.1 23.75 12.3 23.75 13.0 23.65 14.1 23.75 14.4 23.75 15.4 23.75 15.5 23.3 16.35 23.75 20.15 23.75 20.75 23.2 20.7 22.75" fill="#ffffff" fill-rule="evenodd" stroke="none"/>
      <path d="M2.6 2.2 L5.95 2.2 6.2 2.65 6.5 2.4 7.75 2.2 13.5 2.2 13.7 2.7 14.15 2.2 15.45 2.2 16.65 2.2 17.15 2.65 17.35 2.2 18.0 2.2 23.15 2.2 Q23.35 2.2 23.4 2.25 23.45 2.25 23.5 2.35 23.5 2.4 23.5 2.55 23.5 2.55 23.5 2.6 L23.5 4.05 22.85 3.8 23.5 4.5 23.5 5.25 22.95 5.25 23.5 6.45 23.5 7.1 23.3 8.15 23.5 7.8 23.5 9.55 22.85 9.85 23.5 10.3 23.5 22.5 23.5 23.15 Q23.5 23.4 23.5 23.4 23.45 23.5 23.4 23.5 23.35 23.5 23.15 23.5 L22.5 23.5 21.85 23.5 20.75 23.5 20.7 22.75 19.95 23.5 16.1 23.5 15.25 23.05 15.2 23.5 14.15 23.5 13.9 23.5 12.75 23.4 12.05 23.5 10.85 23.5 10.7 23.3 10.2 23.55 9.7 23.5 8.85 23.25 8.4 23.5 7.5 23.5 7.25 23.35 6.45 23.5 5.85 23.5 5.2 23.5 4.55 23.5 3.95 23.45 3.25 23.5 2.6 23.5 Q2.6 23.5 2.6 23.5 2.6 23.5 2.6 23.5 2.4 23.5 2.35 23.5 2.3 23.5 2.25 23.45 2.25 23.4 2.25 23.2 2.25 23.2 2.25 23.2 2.25 23.2 2.25 23.2 2.25 23.15 2.25 23.15 L2.25 17.7 3.05 17.5 2.25 16.75 2.25 16.1 2.25 15.45 2.25 14.45 2.65 14.15 2.25 13.9 2.25 10.65 2.65 10.45 2.25 9.9 2.25 9.0 2.25 8.35 2.25 7.7 2.75 7.2 2.25 6.85 2.25 2.6 Q2.25 2.55 2.25 2.55 2.25 2.4 2.25 2.35 2.3 2.25 2.35 2.25 2.4 2.2 2.55 2.2 2.55 2.2 2.6 2.2 2.6 2.2 2.6 2.2 2.6 2.2 2.6 2.2 L2.6 2.2" fill="#000000" fill-rule="evenodd" stroke="none"/>
    </g>
    <g id="shape1" transform="matrix(1.0, 0.0, 0.0, 1.0, 0.0, 0.0)">
      <path d="M9.45 21.35 Q9.45 21.45 9.45 21.5 9.45 21.6 9.5 21.65 9.5 21.7 9.5 21.8 9.55 21.85 9.6 21.9 9.6 21.95 9.65 22.0 9.7 22.05 9.75 22.1 9.8 22.15 9.85 22.2 9.9 22.25 10.0 22.3 10.05 22.35 10.1 22.35 10.2 22.4 10.25 22.4 10.3 22.45 10.35 22.45 10.45 22.5 10.5 22.5 10.55 22.5 10.65 22.55 10.7 22.55 10.8 22.55 10.85 22.55 10.95 22.55 11.0 22.6 11.1 22.6 11.35 22.6 11.6 22.55 11.85 22.5 12.1 22.45 12.35 22.4 12.55 22.25 12.8 22.15 13.0 22.0 13.2 21.9 13.4 21.7 13.6 21.55 13.8 21.35 14.0 21.1 14.15 20.9 14.3 20.65 14.45 20.35 14.5 20.25 14.55 20.15 14.6 20.1 14.65 20.0 14.65 19.9 14.7 19.8 14.75 19.7 14.75 19.6 14.8 19.5 14.8 19.4 14.85 19.3 14.85 19.2 14.9 19.1 14.9 19.0 14.9 18.9 14.9 18.8 15.0 18.05 15.05 13.4 L15.15 7.45 15.85 7.2 Q15.95 7.15 16.0 7.15 16.1 7.1 16.15 7.05 16.2 7.0 16.3 6.95 16.35 6.95 16.35 6.9 16.4 6.85 16.45 6.8 16.5 6.75 16.5 6.7 16.55 6.65 16.55 6.6 16.55 6.55 16.55 6.45 16.55 6.4 16.55 6.4 16.55 6.35 16.55 6.3 16.5 6.3 16.5 6.25 16.5 6.2 16.45 6.2 16.45 6.15 16.4 6.15 16.35 6.1 16.3 6.1 16.2 6.1 16.1 6.1 16.05 6.1 16.05 6.1 16.0 6.1 15.95 6.1 15.9 6.05 15.85 6.05 15.85 6.05 15.8 6.05 15.75 6.05 15.7 6.05 15.65 6.05 15.6 6.05 15.55 6.05 15.5 6.05 15.45 6.05 15.4 6.05 L13.2 6.05 Q12.95 6.05 12.75 6.05 12.55 6.05 12.4 6.05 12.25 6.05 12.1 6.05 11.95 6.05 11.8 6.1 11.7 6.1 11.6 6.1 11.5 6.1 11.45 6.15 11.4 6.15 11.35 6.15 11.3 6.2 11.3 6.2 11.25 6.25 11.25 6.25 11.2 6.3 11.2 6.35 11.15 6.35 11.15 6.4 11.15 6.45 11.15 6.45 11.15 6.5 11.15 6.55 11.15 6.55 11.15 6.6 11.15 6.65 11.15 6.65 11.15 6.7 11.2 6.75 11.2 6.8 11.25 6.8 11.25 6.85 11.3 6.9 11.3 6.9 11.35 6.95 11.4 6.95 11.45 7.0 11.45 7.0 11.5 7.05 11.55 7.05 11.6 7.1 11.65 7.1 11.75 7.15 11.8 7.15 11.85 7.2 11.95 7.25 12.0 7.25 12.1 7.3 12.15 7.35 12.25 7.4 12.3 7.4 12.35 7.45 12.4 7.5 12.45 7.55 12.5 7.65 12.55 7.7 12.6 7.75 12.65 7.8 12.65 7.85 12.65 7.95 12.7 8.0 12.8 8.4 12.8 10.45 12.8 10.95 12.8 12.5 12.75 13.8 12.75 14.6 L12.75 17.45 Q12.7 19.8 12.55 20.2 12.55 20.3 12.55 20.35 12.55 20.4 12.5 20.5 12.5 20.55 12.5 20.6 12.5 20.65 12.45 20.7 12.45 20.75 12.45 20.8 12.4 20.8 12.4 20.85 12.4 20.9 12.35 20.9 12.35 20.95 12.35 20.95 12.3 21.0 12.25 21.0 12.25 21.05 12.2 21.05 12.15 21.1 12.15 21.1 12.1 21.1 12.05 21.1 12.05 21.1 12.0 21.1 11.85 21.05 11.4 20.75 11.35 20.7 11.3 20.7 11.25 20.65 11.2 20.65 11.15 20.6 11.1 20.6 11.1 20.55 11.05 20.55 11.0 20.5 10.95 20.5 10.95 20.5 10.9 20.5 10.85 20.45 10.85 20.45 10.8 20.45 10.8 20.45 L10.6 20.45 Q10.45 20.45 10.35 20.45 10.2 20.5 10.1 20.5 10.0 20.55 9.9 20.6 9.8 20.65 9.75 20.7 9.65 20.75 9.6 20.8 9.55 20.9 9.5 20.95 9.5 21.05 9.45 21.15 9.45 21.25 9.45 21.35 L9.45 21.35" fill="#ffffff" fill-rule="evenodd" stroke="none"/>
    </g>
  </defs>
</svg>
