<?xml version="1.0" encoding="UTF-8" standalone="no"?>
<svg xmlns:ffdec="https://www.free-decompiler.com/flash" xmlns:xlink="http://www.w3.org/1999/xlink" ffdec:objectType="frame" height="26.55px" width="70.8px" xmlns="http://www.w3.org/2000/svg">
  <g transform="matrix(1.0, 0.0, 0.0, 1.0, 0.2, 0.4)">
    <use ffdec:characterId="3" height="26.0" transform="matrix(1.0, 0.0, 0.0, 1.0, 0.0, 0.0)" width="26.0" xlink:href="#shape0"/>
    <use ffdec:characterId="51" height="26.0" transform="matrix(1.0, 0.0, 0.0, 1.0, 0.0, 0.0)" width="26.0" xlink:href="#shape1"/>
    <use ffdec:characterId="51" height="26.0" transform="matrix(1.0, 0.0, 0.0, 1.0, 0.0, 0.0)" width="26.0" xlink:href="#shape1"/>
  </g>
  <defs>
    <g id="shape0" transform="matrix(1.0, 0.0, 0.0, 1.0, 0.0, 0.0)">
      <path d="M23.5 2.45 Q23.5 2.5 23.5 2.5 23.5 2.55 23.5 2.55 23.5 2.55 23.5 2.55 23.5 2.6 23.5 2.6 L23.5 4.05 22.85 3.8 23.5 4.5 23.5 5.25 22.95 5.25 23.5 6.45 23.5 7.1 23.3 8.15 23.5 7.8 23.5 9.55 22.85 9.85 23.15 10.05 23.75 9.8 23.75 8.05 23.5 8.4 23.75 7.35 23.75 6.7 23.2 5.5 23.75 5.5 23.75 4.75 23.1 4.05 23.75 4.3 23.75 2.85 Q23.75 2.8 23.75 2.8 23.75 2.7 23.75 2.65 23.75 2.55 23.7 2.55 23.7 2.5 23.65 2.5 23.6 2.5 23.5 2.45 L23.5 2.45 M23.5 10.4 L23.5 22.5 23.5 23.15 Q23.5 23.4 23.5 23.4 23.45 23.5 23.4 23.5 23.35 23.5 23.15 23.5 L22.5 23.5 21.85 23.5 20.95 23.5 21.0 23.75 22.1 23.75 22.75 23.75 23.4 23.75 Q23.65 23.75 23.7 23.75 23.75 23.7 23.75 23.4 L23.75 22.75 23.75 10.55 23.5 10.4 M20.7 22.75 L19.95 23.5 16.1 23.5 15.25 23.05 15.2 23.5 14.15 23.5 13.9 23.5 12.75 23.4 12.05 23.5 10.85 23.5 10.7 23.3 10.2 23.55 9.7 23.5 8.85 23.25 8.4 23.5 7.5 23.5 7.25 23.35 6.45 23.5 5.85 23.5 5.2 23.5 4.55 23.5 3.95 23.45 3.25 23.5 2.85 23.5 Q2.85 23.55 2.85 23.6 2.85 23.65 2.85 23.7 2.8 23.7 2.8 23.75 2.85 23.75 2.85 23.75 2.85 23.75 2.85 23.75 L3.5 23.75 4.2 23.7 4.8 23.75 5.45 23.75 6.05 23.75 6.7 23.75 7.45 23.6 7.75 23.75 8.65 23.75 9.1 23.5 9.9 23.75 10.45 23.8 10.95 23.55 11.1 23.75 12.3 23.75 13.0 23.65 14.1 23.75 14.4 23.75 15.4 23.75 15.5 23.3 16.35 23.75 20.15 23.75 20.75 23.2 20.7 22.75" fill="#ffffff" fill-rule="evenodd" stroke="none"/>
      <path d="M2.6 2.2 L5.95 2.2 6.2 2.65 6.5 2.4 7.75 2.2 13.5 2.2 13.7 2.7 14.15 2.2 15.45 2.2 16.65 2.2 17.15 2.65 17.35 2.2 18.0 2.2 23.15 2.2 Q23.35 2.2 23.4 2.25 23.45 2.25 23.5 2.35 23.5 2.4 23.5 2.55 23.5 2.55 23.5 2.6 L23.5 4.05 22.85 3.8 23.5 4.5 23.5 5.25 22.95 5.25 23.5 6.45 23.5 7.1 23.3 8.15 23.5 7.8 23.5 9.55 22.85 9.85 23.5 10.3 23.5 22.5 23.5 23.15 Q23.5 23.4 23.5 23.4 23.45 23.5 23.4 23.5 23.35 23.5 23.15 23.5 L22.5 23.5 21.85 23.5 20.75 23.5 20.7 22.75 19.95 23.5 16.1 23.5 15.25 23.05 15.2 23.5 14.15 23.5 13.9 23.5 12.75 23.4 12.05 23.5 10.85 23.5 10.7 23.3 10.2 23.55 9.7 23.5 8.85 23.25 8.4 23.5 7.5 23.5 7.25 23.35 6.45 23.5 5.85 23.5 5.2 23.5 4.55 23.5 3.95 23.45 3.25 23.5 2.6 23.5 Q2.6 23.5 2.6 23.5 2.6 23.5 2.6 23.5 2.4 23.5 2.35 23.5 2.3 23.5 2.25 23.45 2.25 23.4 2.25 23.2 2.25 23.2 2.25 23.2 2.25 23.2 2.25 23.2 2.25 23.15 2.25 23.15 L2.25 17.7 3.05 17.5 2.25 16.75 2.25 16.1 2.25 15.45 2.25 14.45 2.65 14.15 2.25 13.9 2.25 10.65 2.65 10.45 2.25 9.9 2.25 9.0 2.25 8.35 2.25 7.7 2.75 7.2 2.25 6.85 2.25 2.6 Q2.25 2.55 2.25 2.55 2.25 2.4 2.25 2.35 2.3 2.25 2.35 2.25 2.4 2.2 2.55 2.2 2.55 2.2 2.6 2.2 2.6 2.2 2.6 2.2 2.6 2.2 2.6 2.2 L2.6 2.2" fill="#000000" fill-rule="evenodd" stroke="none"/>
    </g>
    <g id="shape1" transform="matrix(1.0, 0.0, 0.0, 1.0, 0.0, 0.0)">
      <path d="M7.55 6.7 Q7.55 6.75 7.55 6.8 7.55 6.85 7.6 6.85 7.6 6.9 7.65 6.95 7.7 7.0 7.75 7.05 7.8 7.1 7.85 7.1 7.9 7.15 7.95 7.2 8.0 7.25 8.1 7.3 8.2 7.3 8.25 7.35 L9.05 7.7 9.05 18.5 8.25 18.85 Q8.15 18.9 8.1 18.95 8.0 18.95 7.95 19.0 7.9 19.05 7.85 19.1 7.75 19.15 7.75 19.2 7.7 19.2 7.65 19.25 7.6 19.3 7.6 19.35 7.55 19.4 7.55 19.4 7.55 19.45 7.55 19.5 7.55 19.55 7.6 19.6 7.65 19.7 7.7 19.7 7.8 19.75 7.9 19.8 8.05 19.85 8.2 19.9 8.4 19.9 8.6 19.95 8.8 19.95 9.05 20.0 9.3 20.0 9.6 20.0 9.85 20.0 10.2 20.0 10.55 20.0 10.8 20.0 11.1 20.0 11.35 19.95 11.6 19.95 11.8 19.95 12.0 19.9 12.2 19.9 12.35 19.85 12.5 19.8 12.6 19.75 12.7 19.7 12.75 19.7 12.8 19.6 12.85 19.55 12.85 19.5 12.85 19.45 12.85 19.4 12.85 19.4 12.8 19.35 12.8 19.3 12.75 19.25 12.7 19.2 12.7 19.2 12.65 19.15 12.55 19.1 12.5 19.05 12.45 19.0 12.4 19.0 12.3 18.95 12.25 18.9 12.15 18.85 L11.35 18.5 11.2 13.65 12.2 13.85 Q12.3 13.9 12.45 13.9 12.55 13.95 12.65 13.95 12.75 14.0 12.85 14.0 12.95 14.05 13.0 14.1 13.1 14.1 13.15 14.15 13.2 14.15 13.3 14.2 13.35 14.2 13.4 14.25 13.45 14.25 13.5 14.25 13.55 14.3 13.55 14.3 13.6 14.35 13.65 14.4 13.7 14.45 13.7 14.5 13.75 14.55 13.8 14.65 13.85 14.7 13.85 14.8 13.9 14.85 13.95 14.95 13.95 15.05 14.0 15.15 14.05 15.25 14.1 15.4 14.15 15.5 14.15 15.65 14.2 15.75 14.25 15.85 14.25 16.0 14.3 16.1 14.3 16.25 14.35 16.35 14.35 16.45 14.4 16.6 14.4 16.75 14.4 16.85 14.45 17.0 14.45 17.1 14.45 17.25 14.5 17.4 14.6 18.55 14.7 18.9 14.7 18.95 14.7 19.0 14.75 19.05 14.75 19.1 14.75 19.15 14.8 19.2 14.8 19.25 14.8 19.3 14.85 19.35 14.85 19.4 14.85 19.4 14.9 19.45 14.9 19.5 14.95 19.55 14.95 19.55 15.0 19.6 15.05 19.65 15.05 19.7 15.1 19.7 15.1 19.75 15.15 19.75 15.2 19.8 15.2 19.8 15.25 19.85 15.25 19.85 15.3 19.85 15.3 19.9 15.35 19.9 15.35 19.9 15.4 19.9 15.45 19.9 15.45 19.9 15.5 19.95 15.8 20.0 15.85 20.0 15.9 20.0 15.95 20.05 16.0 20.05 16.0 20.05 16.05 20.05 16.1 20.05 16.15 20.05 16.2 20.05 16.25 20.05 L18.0 19.9 Q18.05 19.9 18.1 19.9 18.15 19.9 18.2 19.9 18.25 19.85 18.3 19.85 18.3 19.85 18.35 19.8 18.35 19.8 18.4 19.75 18.4 19.7 18.4 19.7 18.45 19.65 18.45 19.6 18.45 19.55 18.45 19.5 18.45 19.45 18.45 19.4 18.45 19.4 18.4 19.35 18.4 19.3 18.35 19.25 18.3 19.25 18.25 19.2 18.25 19.15 18.2 19.15 18.15 19.1 18.05 19.05 18.0 19.0 17.95 19.0 17.85 18.95 17.8 18.95 17.7 18.9 17.65 18.85 17.55 18.8 17.45 18.7 17.4 18.6 17.3 18.5 17.25 18.4 17.15 18.25 17.1 18.1 17.05 17.95 17.0 17.8 16.95 17.6 16.9 17.4 16.85 17.2 16.8 17.0 16.75 16.75 16.7 16.5 16.65 16.3 16.6 16.05 16.55 15.85 16.45 15.6 16.4 15.4 16.3 15.2 16.25 15.0 16.15 14.85 16.05 14.65 15.95 14.5 15.8 14.3 15.7 14.15 15.6 14.0 15.45 13.85 15.35 13.75 15.2 13.6 15.05 13.5 14.95 13.35 14.8 13.25 14.7 13.15 14.55 13.05 14.45 13.0 14.35 12.9 14.2 12.85 14.1 12.75 14.0 12.7 13.9 12.65 13.8 12.6 13.75 12.6 13.65 12.55 13.55 12.55 L12.65 12.4 13.2 11.4 Q13.35 11.1 13.55 10.85 13.7 10.6 13.9 10.35 14.1 10.1 14.3 9.9 14.5 9.7 14.7 9.5 14.9 9.3 15.15 9.1 15.4 8.95 15.6 8.8 15.85 8.65 16.1 8.5 16.35 8.35 16.6 8.25 16.75 8.2 16.85 8.15 16.95 8.1 17.05 8.05 17.15 8.0 17.25 7.95 17.35 7.9 17.4 7.85 17.5 7.8 17.55 7.75 17.6 7.7 17.65 7.65 17.7 7.6 17.75 7.55 17.8 7.5 17.8 7.5 17.85 7.45 17.85 7.4 17.85 7.35 17.9 7.3 17.9 7.3 17.9 7.2 17.9 7.2 17.9 7.1 17.9 7.1 17.9 7.05 17.9 7.05 17.9 7.0 17.9 6.95 17.9 6.95 17.9 6.9 17.9 6.9 17.9 6.85 17.9 6.85 17.9 6.8 17.9 6.75 17.85 6.75 17.85 6.7 17.85 6.65 17.85 6.65 17.8 6.55 17.8 6.5 17.75 6.4 17.7 6.35 17.65 6.3 17.6 6.2 17.55 6.15 17.5 6.1 17.45 6.1 17.4 6.05 17.35 6.0 17.25 6.0 17.2 5.95 17.15 5.95 17.05 5.95 17.0 5.95 16.95 5.95 16.95 5.95 16.9 5.95 16.85 6.0 16.85 6.0 16.8 6.0 16.75 6.0 16.7 6.05 16.65 6.05 16.6 6.1 16.55 6.1 16.45 6.15 16.4 6.15 16.35 6.2 16.25 6.25 16.2 6.3 16.0 6.4 15.85 6.5 15.65 6.6 15.5 6.7 15.3 6.85 15.15 6.95 15.0 7.1 14.8 7.2 14.65 7.35 14.45 7.5 14.3 7.65 14.15 7.8 13.95 8.0 13.8 8.15 13.6 8.35 13.45 8.5 13.3 8.7 13.1 8.85 12.95 9.05 12.85 9.25 12.7 9.4 12.55 9.6 12.45 9.75 12.3 9.95 12.2 10.15 12.1 10.3 12.0 10.5 11.9 10.65 11.8 10.85 11.75 11.0 11.65 11.2 11.6 11.35 11.35 11.9 11.3 11.9 11.25 12.05 11.25 11.3 11.25 11.1 11.25 10.65 11.3 10.25 11.3 10.0 L11.35 7.7 12.15 7.35 Q12.25 7.3 12.3 7.25 12.4 7.25 12.45 7.2 12.5 7.15 12.6 7.1 12.65 7.05 12.7 7.05 12.7 7.0 12.75 6.95 12.8 6.9 12.8 6.85 12.85 6.85 12.85 6.8 12.85 6.75 12.85 6.7 12.85 6.65 12.8 6.6 12.75 6.55 12.7 6.5 12.6 6.45 12.5 6.4 12.35 6.4 12.2 6.35 12.0 6.3 11.8 6.3 11.6 6.25 11.35 6.25 11.1 6.25 10.8 6.2 10.5 6.2 10.2 6.2 9.85 6.2 9.6 6.2 9.3 6.2 9.05 6.25 8.8 6.25 8.6 6.3 8.4 6.3 8.2 6.35 8.05 6.35 7.95 6.4 7.8 6.45 7.7 6.5 7.65 6.55 7.6 6.6 7.55 6.65 7.55 6.7 L7.55 6.7" fill="#ffffff" fill-rule="evenodd" stroke="none"/>
    </g>
  </defs>
</svg>
