<?xml version="1.0" encoding="UTF-8" standalone="no"?>
<svg xmlns:ffdec="https://www.free-decompiler.com/flash" xmlns:xlink="http://www.w3.org/1999/xlink" ffdec:objectType="frame" height="26.55px" width="70.8px" xmlns="http://www.w3.org/2000/svg">
  <g transform="matrix(1.0, 0.0, 0.0, 1.0, 0.2, 0.4)">
    <use ffdec:characterId="3" height="26.0" transform="matrix(1.0, 0.0, 0.0, 1.0, 0.0, 0.0)" width="26.0" xlink:href="#shape0"/>
    <use ffdec:characterId="53" height="26.0" transform="matrix(1.0, 0.0, 0.0, 1.0, 0.0, 0.0)" width="26.0" xlink:href="#shape1"/>
    <use ffdec:characterId="53" height="26.0" transform="matrix(1.0, 0.0, 0.0, 1.0, 0.0, 0.0)" width="26.0" xlink:href="#shape1"/>
    <use ffdec:characterId="54" height="26.0" transform="matrix(1.0, 0.0, 0.0, 1.0, 0.0, 0.0)" width="26.0" xlink:href="#shape2"/>
    <use ffdec:characterId="54" height="26.0" transform="matrix(1.0, 0.0, 0.0, 1.0, 0.0, 0.0)" width="26.0" xlink:href="#shape2"/>
  </g>
  <defs>
    <g id="shape0" transform="matrix(1.0, 0.0, 0.0, 1.0, 0.0, 0.0)">
      <path d="M23.5 2.45 Q23.5 2.5 23.5 2.5 23.5 2.55 23.5 2.55 23.5 2.55 23.5 2.55 23.5 2.6 23.5 2.6 L23.5 4.05 22.85 3.8 23.5 4.5 23.5 5.25 22.95 5.25 23.5 6.45 23.5 7.1 23.3 8.15 23.5 7.8 23.5 9.55 22.85 9.85 23.15 10.05 23.75 9.8 23.75 8.05 23.5 8.4 23.75 7.35 23.75 6.7 23.2 5.5 23.75 5.5 23.75 4.75 23.1 4.05 23.75 4.3 23.75 2.85 Q23.75 2.8 23.75 2.8 23.75 2.7 23.75 2.65 23.75 2.55 23.7 2.55 23.7 2.5 23.65 2.5 23.6 2.5 23.5 2.45 L23.5 2.45 M23.5 10.4 L23.5 22.5 23.5 23.15 Q23.5 23.4 23.5 23.4 23.45 23.5 23.4 23.5 23.35 23.5 23.15 23.5 L22.5 23.5 21.85 23.5 20.95 23.5 21.0 23.75 22.1 23.75 22.75 23.75 23.4 23.75 Q23.65 23.75 23.7 23.75 23.75 23.7 23.75 23.4 L23.75 22.75 23.75 10.55 23.5 10.4 M20.7 22.75 L19.95 23.5 16.1 23.5 15.25 23.05 15.2 23.5 14.15 23.5 13.9 23.5 12.75 23.4 12.05 23.5 10.85 23.5 10.7 23.3 10.2 23.55 9.7 23.5 8.85 23.25 8.4 23.5 7.5 23.5 7.25 23.35 6.45 23.5 5.85 23.5 5.2 23.5 4.55 23.5 3.95 23.45 3.25 23.5 2.85 23.5 Q2.85 23.55 2.85 23.6 2.85 23.65 2.85 23.7 2.8 23.7 2.8 23.75 2.85 23.75 2.85 23.75 2.85 23.75 2.85 23.75 L3.5 23.75 4.2 23.7 4.8 23.75 5.45 23.75 6.05 23.75 6.7 23.75 7.45 23.6 7.75 23.75 8.65 23.75 9.1 23.5 9.9 23.75 10.45 23.8 10.95 23.55 11.1 23.75 12.3 23.75 13.0 23.65 14.1 23.75 14.4 23.75 15.4 23.75 15.5 23.3 16.35 23.75 20.15 23.75 20.75 23.2 20.7 22.75" fill="#ffffff" fill-rule="evenodd" stroke="none"/>
      <path d="M2.6 2.2 L5.95 2.2 6.2 2.65 6.5 2.4 7.75 2.2 13.5 2.2 13.7 2.7 14.15 2.2 15.45 2.2 16.65 2.2 17.15 2.65 17.35 2.2 18.0 2.2 23.15 2.2 Q23.35 2.2 23.4 2.25 23.45 2.25 23.5 2.35 23.5 2.4 23.5 2.55 23.5 2.55 23.5 2.6 L23.5 4.05 22.85 3.8 23.5 4.5 23.5 5.25 22.95 5.25 23.5 6.45 23.5 7.1 23.3 8.15 23.5 7.8 23.5 9.55 22.85 9.85 23.5 10.3 23.5 22.5 23.5 23.15 Q23.5 23.4 23.5 23.4 23.45 23.5 23.4 23.5 23.35 23.5 23.15 23.5 L22.5 23.5 21.85 23.5 20.75 23.5 20.7 22.75 19.95 23.5 16.1 23.5 15.25 23.05 15.2 23.5 14.15 23.5 13.9 23.5 12.75 23.4 12.05 23.5 10.85 23.5 10.7 23.3 10.2 23.55 9.7 23.5 8.85 23.25 8.4 23.5 7.5 23.5 7.25 23.35 6.45 23.5 5.85 23.5 5.2 23.5 4.55 23.5 3.95 23.45 3.25 23.5 2.6 23.5 Q2.6 23.5 2.6 23.5 2.6 23.5 2.6 23.5 2.4 23.5 2.35 23.5 2.3 23.5 2.25 23.45 2.25 23.4 2.25 23.2 2.25 23.2 2.25 23.2 2.25 23.2 2.25 23.2 2.25 23.15 2.25 23.15 L2.25 17.7 3.05 17.5 2.25 16.75 2.25 16.1 2.25 15.45 2.25 14.45 2.65 14.15 2.25 13.9 2.25 10.65 2.65 10.45 2.25 9.9 2.25 9.0 2.25 8.35 2.25 7.7 2.75 7.2 2.25 6.85 2.25 2.6 Q2.25 2.55 2.25 2.55 2.25 2.4 2.25 2.35 2.3 2.25 2.35 2.25 2.4 2.2 2.55 2.2 2.55 2.2 2.6 2.2 2.6 2.2 2.6 2.2 2.6 2.2 2.6 2.2 L2.6 2.2" fill="#000000" fill-rule="evenodd" stroke="none"/>
    </g>
    <g id="shape1" transform="matrix(1.0, 0.0, 0.0, 1.0, 0.0, 0.0)">
      <path d="M16.2 8.25 Q16.25 8.4 16.3 8.5 16.35 8.65 16.45 8.75 16.5 8.85 16.6 8.95 16.7 9.05 16.8 9.1 16.9 9.15 17.0 9.2 17.1 9.25 17.25 9.3 17.35 9.35 17.5 9.35 17.65 9.35 17.8 9.35 17.85 9.35 17.9 9.35 17.95 9.35 18.0 9.35 18.05 9.35 18.1 9.3 18.15 9.3 18.2 9.3 18.25 9.25 18.3 9.25 18.35 9.2 18.4 9.15 18.45 9.15 18.5 9.1 18.6 9.05 18.65 9.0 18.7 8.95 18.75 8.9 18.8 8.85 18.85 8.8 18.9 8.75 18.95 8.7 19.0 8.6 19.0 8.55 19.05 8.45 19.05 8.35 19.1 8.25 19.1 8.15 19.1 8.05 19.15 7.9 19.15 7.8 19.15 7.65 19.15 7.55 19.15 7.4 19.1 7.3 19.1 7.2 19.05 7.1 19.0 7.0 18.95 6.9 18.85 6.8 18.8 6.75 18.7 6.65 18.65 6.55 18.55 6.5 18.45 6.45 18.3 6.35 18.2 6.3 18.05 6.25 18.0 6.25 17.95 6.25 17.9 6.2 17.9 6.2 17.85 6.2 17.8 6.2 17.75 6.2 17.7 6.15 17.65 6.15 17.6 6.15 17.55 6.15 17.5 6.15 17.45 6.15 17.4 6.15 17.35 6.15 17.3 6.15 17.25 6.15 17.2 6.15 17.15 6.15 17.1 6.15 17.05 6.15 17.0 6.2 16.9 6.2 16.85 6.25 16.8 6.25 16.75 6.3 16.7 6.35 16.65 6.4 16.6 6.45 16.55 6.5 16.5 6.55 16.45 6.6 16.4 6.65 16.35 6.7 16.3 6.8 16.25 6.85 16.2 6.9 16.2 6.95 16.15 7.0 16.15 7.05 16.1 7.15 16.1 7.2 16.05 7.25 16.05 7.3 16.05 7.35 16.0 7.4 16.0 7.45 16.0 7.5 16.0 7.55 16.0 7.6 16.0 7.65 16.0 7.7 16.05 7.75 16.05 7.8 16.05 7.85 16.05 7.9 16.1 7.95 16.1 8.0 16.1 8.05 16.1 8.1 16.15 8.15 16.15 8.2 16.2 8.2 16.2 8.25 L16.2 8.25 M18.85 17.25 Q18.9 17.2 18.9 17.1 18.95 17.05 18.95 16.95 19.0 16.9 19.0 16.85 19.05 16.75 19.05 16.7 19.1 16.6 19.1 16.5 19.1 16.45 19.15 16.35 19.15 16.3 19.15 16.2 19.15 16.1 19.15 16.05 19.15 15.8 19.1 15.55 19.1 15.35 19.05 15.15 19.0 14.95 18.9 14.8 18.85 14.6 18.75 14.5 18.6 14.35 18.5 14.25 18.35 14.15 18.25 14.1 18.1 14.05 17.9 14.0 17.75 14.0 17.55 14.0 17.45 14.0 17.4 14.0 17.3 14.0 17.2 14.0 17.15 14.0 17.05 14.05 17.0 14.05 16.9 14.1 16.85 14.1 16.75 14.15 16.7 14.2 16.65 14.2 16.6 14.25 16.5 14.3 16.45 14.35 16.4 14.4 16.35 14.45 16.3 14.5 16.25 14.55 16.2 14.65 16.2 14.7 16.15 14.75 16.1 14.85 16.1 14.9 16.05 15.0 16.05 15.05 16.0 15.15 16.0 15.25 16.0 15.3 16.0 15.4 16.0 15.5 16.0 15.6 16.0 15.7 16.0 15.8 16.0 15.9 16.0 16.0 16.05 16.05 16.05 16.15 16.1 16.25 16.1 16.3 16.15 16.4 16.2 16.45 16.25 16.5 16.3 16.6 16.35 16.65 16.4 16.7 16.45 16.75 16.5 16.8 16.55 16.85 16.6 16.9 16.65 16.95 16.7 17.05 16.75 17.1 16.8 17.15 16.85 17.2 16.9 17.3 16.9 17.35 16.95 17.45 16.95 17.5 17.0 17.55 17.0 17.65 17.0 17.7 17.0 17.8 17.0 17.9 17.0 18.0 17.0 18.05 17.0 18.1 16.95 18.2 16.95 18.25 16.9 18.35 16.9 18.4 16.85 18.45 16.8 18.55 16.75 18.6 16.7 18.65 16.65 18.7 16.6 18.75 16.5 18.85 16.45 18.9 16.35 18.95 16.3 19.0 16.2 19.05 16.15 19.1 16.1 19.1 16.05 19.15 16.0 19.2 15.95 19.25 15.9 19.3 15.9 19.3 15.85 19.35 15.85 19.4 15.8 19.4 15.8 19.45 15.8 19.45 15.75 19.5 15.75 19.5 15.75 19.55 15.75 19.6 15.75 19.65 15.8 19.65 15.8 19.7 15.8 19.75 15.85 19.75 15.85 19.8 15.9 19.8 15.95 19.8 15.95 19.85 16.0 19.85 16.05 19.85 16.05 19.85 16.1 19.85 16.15 19.85 16.2 19.85 16.25 19.85 16.3 19.8 16.4 19.8 16.45 19.75 16.55 19.7 16.6 19.65 16.7 19.6 16.8 19.55 16.9 19.45 17.0 19.4 17.1 19.3 17.2 19.2 17.3 19.1 17.45 19.0 17.6 18.85 18.7 17.6 18.85 17.25 L18.85 17.25" fill="#ffffff" fill-rule="evenodd" stroke="none"/>
      <path d="M7.0 16.55 Q7.05 16.7 7.1 16.8 7.15 16.95 7.25 17.05 7.3 17.15 7.4 17.2 7.5 17.3 7.6 17.4 7.7 17.45 7.8 17.5 7.9 17.55 8.05 17.6 8.15 17.6 8.3 17.65 8.45 17.65 8.6 17.65 8.65 17.65 8.7 17.65 8.75 17.65 8.8 17.65 8.85 17.6 8.9 17.6 8.95 17.6 9.0 17.55 9.05 17.55 9.1 17.5 9.15 17.5 9.2 17.45 9.25 17.45 9.35 17.4 9.4 17.35 9.45 17.35 9.5 17.3 9.55 17.25 9.6 17.2 9.65 17.1 9.7 17.05 9.75 16.95 9.8 16.9 9.8 16.8 9.85 16.7 9.85 16.6 9.9 16.55 9.9 16.45 9.95 16.3 9.95 16.2 9.95 16.1 9.95 16.0 9.95 15.85 9.95 15.75 9.9 15.6 9.9 15.5 9.85 15.4 9.8 15.3 9.75 15.2 9.7 15.1 9.6 15.0 9.55 14.95 9.45 14.85 9.35 14.8 9.25 14.7 9.15 14.65 9.0 14.6 8.9 14.55 8.85 14.55 8.8 14.5 8.75 14.5 8.7 14.5 8.65 14.5 8.6 14.45 8.55 14.45 8.5 14.45 8.45 14.45 8.4 14.45 8.35 14.45 8.3 14.45 8.25 14.45 8.2 14.4 8.15 14.4 8.1 14.4 8.05 14.4 8.0 14.4 7.95 14.45 7.9 14.45 7.85 14.45 7.8 14.5 7.75 14.5 7.7 14.55 7.6 14.6 7.55 14.6 7.5 14.65 7.45 14.7 7.4 14.75 7.35 14.8 7.3 14.85 7.25 14.9 7.2 14.95 7.15 15.0 7.1 15.1 7.05 15.15 7.05 15.2 7.0 15.25 6.95 15.3 6.95 15.35 6.9 15.4 6.9 15.45 6.85 15.55 6.85 15.6 6.85 15.65 6.85 15.65 6.85 15.7 6.85 15.75 6.85 15.8 6.85 15.85 6.85 15.9 6.85 15.95 6.85 16.0 6.85 16.05 6.85 16.1 6.9 16.15 6.9 16.2 6.9 16.25 6.9 16.3 6.95 16.35 6.95 16.4 6.95 16.45 7.0 16.5 7.0 16.55 L7.0 16.55 M7.0 8.3 Q7.05 8.45 7.1 8.55 7.15 8.7 7.25 8.8 7.3 8.9 7.4 8.95 7.5 9.05 7.6 9.1 7.7 9.2 7.8 9.25 7.9 9.3 8.05 9.3 8.15 9.35 8.3 9.35 8.45 9.4 8.6 9.4 8.65 9.4 8.7 9.4 8.75 9.4 8.8 9.35 8.85 9.35 8.9 9.35 8.95 9.35 9.0 9.3 9.05 9.3 9.1 9.25 9.15 9.25 9.2 9.2 9.25 9.15 9.35 9.1 9.4 9.1 9.45 9.05 9.5 9.0 9.55 8.95 9.6 8.9 9.65 8.85 9.7 8.8 9.75 8.7 9.8 8.65 9.8 8.55 9.85 8.45 9.85 8.35 9.9 8.25 9.9 8.15 9.95 8.05 9.95 7.95 9.95 7.8 9.95 7.7 9.95 7.6 9.95 7.45 9.9 7.35 9.9 7.25 9.85 7.15 9.8 7.05 9.75 6.95 9.7 6.85 9.6 6.75 9.55 6.7 9.45 6.6 9.35 6.5 9.25 6.45 9.15 6.4 9.0 6.3 8.9 6.25 8.85 6.25 8.8 6.25 8.75 6.2 8.7 6.2 8.65 6.2 8.6 6.2 8.55 6.2 8.5 6.2 8.45 6.2 8.4 6.2 8.35 6.15 8.3 6.15 8.25 6.15 8.2 6.15 8.15 6.15 8.1 6.15 8.05 6.15 8.0 6.15 7.95 6.15 7.9 6.15 7.85 6.2 7.8 6.2 7.75 6.25 7.7 6.25 7.65 6.3 7.55 6.35 7.5 6.35 7.45 6.4 7.4 6.45 7.35 6.5 7.3 6.55 7.25 6.6 7.2 6.65 7.15 6.75 7.1 6.8 7.05 6.85 7.05 6.9 7.0 6.95 6.95 7.05 6.95 7.1 6.9 7.15 6.9 7.2 6.85 7.25 6.85 7.3 6.85 7.35 6.85 7.4 6.85 7.45 6.85 7.5 6.85 7.55 6.85 7.6 6.85 7.65 6.85 7.7 6.85 7.75 6.85 7.8 6.85 7.85 6.9 7.9 6.9 7.95 6.9 8.0 6.9 8.05 6.95 8.1 6.95 8.15 6.95 8.2 7.0 8.25 7.0 8.3 L7.0 8.3" fill="#ffffff" fill-rule="evenodd" stroke="none"/>
    </g>
  </defs>
</svg>
