<?xml version="1.0" encoding="UTF-8" standalone="no"?>
<svg xmlns:ffdec="https://www.free-decompiler.com/flash" xmlns:xlink="http://www.w3.org/1999/xlink" ffdec:objectType="frame" height="26.55px" width="70.8px" xmlns="http://www.w3.org/2000/svg">
  <g transform="matrix(1.0, 0.0, 0.0, 1.0, 0.2, 0.4)">
    <use ffdec:characterId="3" height="26.0" transform="matrix(1.0, 0.0, 0.0, 1.0, 0.0, 0.0)" width="26.0" xlink:href="#shape0"/>
    <use ffdec:characterId="8" height="26.0" transform="matrix(1.0, 0.0, 0.0, 1.0, 0.0, 0.0)" width="26.0" xlink:href="#shape1"/>
    <use ffdec:characterId="8" height="26.0" transform="matrix(1.0, 0.0, 0.0, 1.0, 0.0, 0.0)" width="26.0" xlink:href="#shape1"/>
    <use ffdec:characterId="9" height="26.0" transform="matrix(1.0, 0.0, 0.0, 1.0, 0.0, 0.0)" width="26.0" xlink:href="#shape2"/>
    <use ffdec:characterId="9" height="26.0" transform="matrix(1.0, 0.0, 0.0, 1.0, 0.0, 0.0)" width="26.0" xlink:href="#shape2"/>
  </g>
  <defs>
    <g id="shape0" transform="matrix(1.0, 0.0, 0.0, 1.0, 0.0, 0.0)">
      <path d="M23.5 2.45 Q23.5 2.5 23.5 2.5 23.5 2.55 23.5 2.55 23.5 2.55 23.5 2.55 23.5 2.6 23.5 2.6 L23.5 4.05 22.85 3.8 23.5 4.5 23.5 5.25 22.95 5.25 23.5 6.45 23.5 7.1 23.3 8.15 23.5 7.8 23.5 9.55 22.85 9.85 23.15 10.05 23.75 9.8 23.75 8.05 23.5 8.4 23.75 7.35 23.75 6.7 23.2 5.5 23.75 5.5 23.75 4.75 23.1 4.05 23.75 4.3 23.75 2.85 Q23.75 2.8 23.75 2.8 23.75 2.7 23.75 2.65 23.75 2.55 23.7 2.55 23.7 2.5 23.65 2.5 23.6 2.5 23.5 2.45 L23.5 2.45 M23.5 10.4 L23.5 22.5 23.5 23.15 Q23.5 23.4 23.5 23.4 23.45 23.5 23.4 23.5 23.35 23.5 23.15 23.5 L22.5 23.5 21.85 23.5 20.95 23.5 21.0 23.75 22.1 23.75 22.75 23.75 23.4 23.75 Q23.65 23.75 23.7 23.75 23.75 23.7 23.75 23.4 L23.75 22.75 23.75 10.55 23.5 10.4 M20.7 22.75 L19.95 23.5 16.1 23.5 15.25 23.05 15.2 23.5 14.15 23.5 13.9 23.5 12.75 23.4 12.05 23.5 10.85 23.5 10.7 23.3 10.2 23.55 9.7 23.5 8.85 23.25 8.4 23.5 7.5 23.5 7.25 23.35 6.45 23.5 5.85 23.5 5.2 23.5 4.55 23.5 3.95 23.45 3.25 23.5 2.85 23.5 Q2.85 23.55 2.85 23.6 2.85 23.65 2.85 23.7 2.8 23.7 2.8 23.75 2.85 23.75 2.85 23.75 2.85 23.75 2.85 23.75 L3.5 23.75 4.2 23.7 4.8 23.75 5.45 23.75 6.05 23.75 6.7 23.75 7.45 23.6 7.75 23.75 8.65 23.75 9.1 23.5 9.9 23.75 10.45 23.8 10.95 23.55 11.1 23.75 12.3 23.75 13.0 23.65 14.1 23.75 14.4 23.75 15.4 23.75 15.5 23.3 16.35 23.75 20.15 23.75 20.75 23.2 20.7 22.75" fill="#ffffff" fill-rule="evenodd" stroke="none"/>
      <path d="M2.6 2.2 L5.95 2.2 6.2 2.65 6.5 2.4 7.75 2.2 13.5 2.2 13.7 2.7 14.15 2.2 15.45 2.2 16.65 2.2 17.15 2.65 17.35 2.2 18.0 2.2 23.15 2.2 Q23.35 2.2 23.4 2.25 23.45 2.25 23.5 2.35 23.5 2.4 23.5 2.55 23.5 2.55 23.5 2.6 L23.5 4.05 22.85 3.8 23.5 4.5 23.5 5.25 22.95 5.25 23.5 6.45 23.5 7.1 23.3 8.15 23.5 7.8 23.5 9.55 22.85 9.85 23.5 10.3 23.5 22.5 23.5 23.15 Q23.5 23.4 23.5 23.4 23.45 23.5 23.4 23.5 23.35 23.5 23.15 23.5 L22.5 23.5 21.85 23.5 20.75 23.5 20.7 22.75 19.95 23.5 16.1 23.5 15.25 23.05 15.2 23.5 14.15 23.5 13.9 23.5 12.75 23.4 12.05 23.5 10.85 23.5 10.7 23.3 10.2 23.55 9.7 23.5 8.85 23.25 8.4 23.5 7.5 23.5 7.25 23.35 6.45 23.5 5.85 23.5 5.2 23.5 4.55 23.5 3.95 23.45 3.25 23.5 2.6 23.5 Q2.6 23.5 2.6 23.5 2.6 23.5 2.6 23.5 2.4 23.5 2.35 23.5 2.3 23.5 2.25 23.45 2.25 23.4 2.25 23.2 2.25 23.2 2.25 23.2 2.25 23.2 2.25 23.2 2.25 23.15 2.25 23.15 L2.25 17.7 3.05 17.5 2.25 16.75 2.25 16.1 2.25 15.45 2.25 14.45 2.65 14.15 2.25 13.9 2.25 10.65 2.65 10.45 2.25 9.9 2.25 9.0 2.25 8.35 2.25 7.7 2.75 7.2 2.25 6.85 2.25 2.6 Q2.25 2.55 2.25 2.55 2.25 2.4 2.25 2.35 2.3 2.25 2.35 2.25 2.4 2.2 2.55 2.2 2.55 2.2 2.6 2.2 2.6 2.2 2.6 2.2 2.6 2.2 2.6 2.2 L2.6 2.2" fill="#000000" fill-rule="evenodd" stroke="none"/>
    </g>
    <g id="shape1" transform="matrix(1.0, 0.0, 0.0, 1.0, 0.0, 0.0)">
      <path d="M8.45 19.2 Q8.35 19.2 8.25 19.2 8.2 19.2 8.1 19.2 8.05 19.2 7.95 19.15 7.9 19.15 7.85 19.15 7.8 19.1 7.7 19.1 7.65 19.05 7.6 19.05 7.55 19.0 7.55 19.0 7.5 18.95 7.45 18.9 7.4 18.85 7.35 18.85 7.35 18.8 7.3 18.75 7.25 18.7 7.25 18.65 7.2 18.55 7.15 18.5 7.15 18.4 7.1 18.35 7.05 18.25 7.05 18.15 7.0 18.05 6.95 17.95 6.95 17.85 6.9 17.75 6.85 17.65 6.85 17.55 6.8 17.4 6.75 17.35 6.7 17.25 6.65 17.15 6.65 17.05 6.6 17.0 6.55 16.9 6.5 16.85 6.45 16.8 6.4 16.75 6.35 16.7 6.3 16.65 6.3 16.6 6.25 16.55 6.2 16.5 6.15 16.5 6.1 16.45 6.05 16.4 6.0 16.4 5.95 16.35 5.9 16.35 5.85 16.35 5.85 16.3 5.8 16.3 5.75 16.3 5.7 16.3 5.7 16.3 5.65 16.25 5.6 16.25 5.6 16.25 5.55 16.25 5.5 16.25 5.45 16.25 5.45 16.3 5.4 16.3 5.35 16.3 5.3 16.35 5.25 16.35 5.25 16.4 5.2 16.4 5.15 16.45 5.05 16.5 5.0 16.55 4.95 16.6 4.9 16.65 4.85 16.7 4.8 16.8 4.75 16.85 4.75 16.9 4.7 17.0 4.7 17.1 4.65 17.15 4.65 17.25 4.65 17.35 4.65 17.45 4.65 17.55 4.65 17.65 4.65 17.75 4.65 17.85 4.7 17.95 4.7 18.05 4.7 18.15 4.75 18.25 4.8 18.35 4.85 18.45 4.9 18.55 4.95 18.65 5.0 18.75 5.05 18.85 5.1 18.95 5.2 19.05 5.25 19.1 5.35 19.2 5.4 19.25 5.5 19.35 5.6 19.45 5.65 19.5 5.75 19.6 5.85 19.65 5.95 19.7 6.05 19.8 6.15 19.85 6.25 19.9 6.35 19.95 6.5 20.0 6.6 20.05 6.7 20.1 6.8 20.15 6.9 20.2 7.05 20.2 7.15 20.25 7.25 20.3 7.4 20.3 7.5 20.35 7.6 20.35 7.7 20.4 7.8 20.4 7.9 20.4 8.05 20.45 8.15 20.45 8.25 20.45 8.35 20.45 8.4 20.45 8.5 20.45 8.7 20.45 8.95 20.45 9.15 20.4 9.35 20.4 9.55 20.35 9.75 20.3 9.9 20.25 10.1 20.2 10.3 20.1 10.45 20.05 10.65 19.95 10.8 19.85 10.95 19.75 11.15 19.65 11.3 19.5 11.45 19.4 11.65 19.2 11.85 19.05 12.0 18.85 12.15 18.65 12.3 18.45 12.45 18.3 12.55 18.1 12.65 17.9 12.75 17.65 12.85 17.45 12.9 17.25 12.95 17.05 13.0 16.85 13.05 16.6 13.05 16.4 13.05 16.15 13.05 15.95 13.05 15.7 13.0 15.5 13.0 15.3 12.95 15.1 12.9 14.9 12.85 14.7 12.75 14.55 12.7 14.35 12.6 14.2 12.5 14.05 12.4 13.9 12.25 13.75 12.15 13.6 12.0 13.45 11.85 13.35 11.75 13.25 11.65 13.15 11.55 13.05 11.45 13.0 11.35 12.9 11.25 12.85 11.2 12.8 11.15 12.75 11.05 12.7 11.0 12.65 10.95 12.6 10.9 12.6 10.85 12.55 10.8 12.55 10.8 12.55 10.75 12.55 10.7 12.55 10.65 12.55 10.65 12.5 10.6 12.5 10.6 12.45 10.6 12.45 10.6 12.4 10.65 12.35 10.65 12.3 10.7 12.2 10.75 12.15 10.85 12.0 10.95 11.95 11.05 11.8 11.2 11.6 11.35 11.45 11.5 11.25 11.6 11.1 11.75 10.9 11.85 10.75 11.95 10.6 12.0 10.4 12.1 10.25 12.15 10.05 12.2 9.9 12.25 9.7 12.3 9.55 12.3 9.4 12.35 9.2 12.35 9.05 12.35 9.0 12.35 8.9 12.35 8.85 12.3 8.8 12.3 8.7 12.3 8.65 12.3 8.6 12.25 8.5 12.25 8.45 12.25 8.35 12.2 8.3 12.2 8.25 12.15 8.15 12.15 8.1 12.1 8.05 12.05 7.95 12.0 7.85 11.9 7.7 11.8 7.6 11.7 7.5 11.6 7.4 11.5 7.35 11.35 7.25 11.2 7.15 11.1 7.1 10.9 7.0 10.75 6.95 10.55 6.9 10.4 6.85 10.2 6.8 9.95 6.75 9.75 6.7 9.6 6.7 9.3 6.7 9.05 6.65 8.85 6.65 8.7 6.65 8.55 6.65 8.45 6.7 8.3 6.7 8.15 6.7 8.05 6.75 7.9 6.75 7.75 6.8 7.65 6.85 7.5 6.9 7.4 6.9 7.25 6.95 7.15 7.0 7.05 7.1 6.9 7.15 6.8 7.2 6.65 7.3 6.5 7.4 6.3 7.55 6.2 7.65 6.05 7.8 5.95 7.9 5.85 8.05 5.75 8.15 5.65 8.3 5.6 8.45 5.55 8.6 5.5 8.75 5.45 8.9 5.4 9.05 5.4 9.2 5.4 9.4 5.4 9.45 5.4 9.5 5.4 9.55 5.45 9.6 5.45 9.65 5.45 9.7 5.5 9.75 5.5 9.8 5.55 9.85 5.6 9.9 5.65 9.95 5.65 10.0 5.7 10.05 5.75 10.1 5.8 10.15 5.9 10.2 5.95 10.25 6.0 10.3 6.05 10.35 6.1 10.4 6.2 10.45 6.25 10.5 6.3 10.55 6.35 10.55 6.4 10.6 6.45 10.6 6.5 10.65 6.6 10.65 6.65 10.65 6.7 10.65 6.75 10.65 6.8 10.65 6.85 10.65 6.9 10.65 6.95 10.65 7.0 10.65 7.05 10.6 7.1 10.6 7.15 10.55 7.2 10.55 7.25 10.5 7.3 10.5 7.35 10.45 7.4 10.4 7.45 10.35 7.5 10.3 7.5 10.25 7.55 10.2 7.6 10.15 7.65 10.1 7.65 10.0 7.7 9.95 7.75 9.9 7.75 9.85 7.8 9.8 7.8 9.75 7.8 9.75 7.85 9.7 7.85 9.65 7.85 9.6 7.9 9.6 7.9 9.55 7.9 9.5 7.9 9.5 7.9 9.45 7.9 9.45 7.9 9.4 7.9 9.4 7.9 9.35 7.9 9.3 7.9 9.3 7.85 9.25 7.85 9.2 7.85 9.2 7.85 9.15 7.8 9.1 7.8 9.05 7.75 9.0 7.75 9.0 7.7 8.95 7.65 8.9 7.65 8.85 7.65 8.8 7.6 8.8 7.6 8.75 7.55 8.7 7.55 8.65 7.55 8.65 7.5 8.6 7.5 8.55 7.5 8.55 7.5 8.5 7.5 8.45 7.5 8.45 7.5 8.4 7.5 8.35 7.5 8.25 7.5 8.2 7.55 8.15 7.55 8.05 7.6 8.0 7.65 7.95 7.7 7.9 7.8 7.85 7.85 7.85 7.95 7.8 8.05 7.75 8.15 7.75 8.25 7.75 8.4 7.7 8.5 7.7 8.65 7.7 8.75 7.7 8.85 7.7 8.9 7.7 9.0 7.75 9.1 7.75 9.15 7.8 9.25 7.8 9.3 7.85 9.4 7.9 9.45 7.95 9.5 8.0 9.55 8.05 9.6 8.1 9.65 8.15 9.7 8.2 9.75 8.3 9.8 8.35 9.85 8.45 9.9 8.5 9.9 8.6 9.95 8.65 10.0 8.7 10.0 8.8 10.05 8.85 10.05 8.9 10.05 8.95 10.1 9.0 10.1 9.1 10.1 9.15 10.1 9.2 10.1 9.25 10.1 9.3 10.1 9.5 10.1 9.65 10.1 9.8 10.05 9.95 10.05 10.15 10.0 10.25 10.0 10.4 9.95 10.55 9.9 10.7 9.85 10.85 9.8 10.95 9.75 11.05 9.65 11.2 9.6 11.3 9.5 11.4 9.45 11.5 9.4 11.55 9.3 11.6 9.25 11.65 9.15 11.7 9.1 11.75 9.0 11.8 8.9 11.85 8.8 11.9 8.7 11.95 8.6 12.0 8.5 12.0 8.4 12.05 8.25 12.1 8.15 12.1 8.0 12.15 7.9 12.15 7.75 12.2 7.65 12.2 7.5 12.25 7.4 12.25 7.25 12.3 7.15 12.3 7.05 12.35 6.95 12.4 6.85 12.4 6.8 12.45 6.7 12.45 6.65 12.5 6.55 12.5 6.5 12.55 6.45 12.6 6.4 12.6 6.35 12.65 6.3 12.7 6.25 12.75 6.2 12.8 6.15 12.85 6.1 12.9 6.05 12.95 6.05 13.0 6.0 13.05 6.0 13.1 5.95 13.15 5.95 13.2 5.95 13.3 5.95 13.35 5.95 13.4 5.95 13.5 5.95 13.6 5.95 13.7 5.95 13.8 6.0 13.85 6.0 13.95 6.05 14.0 6.05 14.1 6.1 14.15 6.15 14.2 6.2 14.25 6.25 14.25 6.3 14.3 6.35 14.3 6.45 14.35 6.5 14.35 6.6 14.35 6.65 14.35 6.7 14.35 6.75 14.35 6.8 14.3 6.85 14.3 6.9 14.3 6.95 14.3 7.0 14.25 7.05 14.25 7.1 14.2 7.15 14.15 7.25 14.15 7.3 14.1 7.35 14.05 7.4 14.0 7.5 13.95 7.55 13.9 7.65 13.85 7.7 13.85 7.75 13.8 7.85 13.75 7.9 13.75 8.0 13.7 8.1 13.7 8.15 13.65 8.25 13.65 8.35 13.65 8.45 13.65 8.55 13.6 8.65 13.6 8.75 13.6 8.85 13.6 9.05 13.6 9.25 13.65 9.4 13.7 9.55 13.8 9.7 13.85 9.85 14.0 9.95 14.15 10.1 14.3 10.2 14.5 10.25 14.7 10.35 14.9 10.4 15.2 10.45 15.45 10.45 15.75 10.5 16.05 10.5 16.4 10.5 16.75 10.45 17.05 10.4 17.35 10.35 17.65 10.3 17.9 10.2 18.1 10.1 18.35 9.95 18.5 9.85 18.7 9.7 18.8 9.55 18.95 9.35 19.05 9.15 19.1 8.95 19.15 8.7 19.2 8.45 19.2 L8.45 19.2" fill="#ffffff" fill-rule="evenodd" stroke="none"/>
      <path d="M19.8 8.05 Q20.2 6.5 20.2 6.1 20.15 6.05 20.1 6.0 20.05 5.95 20.0 5.95 20.0 5.9 19.95 5.9 19.9 5.85 19.85 5.8 19.8 5.8 19.75 5.8 19.7 5.75 19.65 5.75 19.6 5.75 19.6 5.75 19.55 5.75 19.5 5.75 19.45 5.75 19.4 5.75 19.35 5.75 19.35 5.75 19.3 5.75 19.25 5.8 19.2 5.8 19.15 5.85 19.1 5.85 19.05 5.9 19.0 5.9 19.0 5.95 18.95 6.0 18.9 6.0 18.85 6.05 18.8 6.1 L18.4 8.05 17.05 8.05 Q17.35 6.6 17.5 6.25 17.5 6.15 17.5 6.1 17.45 6.05 17.45 5.95 17.4 5.9 17.35 5.85 17.35 5.8 17.25 5.75 17.2 5.75 17.15 5.7 17.1 5.65 17.0 5.65 16.9 5.6 16.8 5.6 16.75 5.55 16.6 5.55 L16.3 5.55 Q16.25 5.7 16.2 5.8 16.1 5.95 16.05 6.1 16.0 6.25 15.95 6.4 15.9 6.55 15.85 6.7 15.8 6.85 15.75 7.0 15.75 7.2 15.7 7.35 15.65 7.5 15.65 7.7 15.6 7.85 15.6 8.05 15.25 8.05 14.3 8.05 14.2 8.05 14.1 8.05 14.05 8.1 13.95 8.1 13.9 8.15 13.8 8.2 13.75 8.2 13.7 8.25 13.65 8.3 13.6 8.35 13.6 8.45 13.55 8.5 13.55 8.55 13.55 8.65 13.5 8.7 13.5 8.8 13.5 8.85 13.5 8.95 13.5 9.0 13.55 9.05 13.6 9.1 13.65 9.1 13.7 9.15 13.7 9.2 13.75 9.2 13.8 9.25 13.85 9.25 13.9 9.25 14.0 9.3 14.05 9.3 14.1 9.3 14.15 9.35 14.2 9.35 14.25 9.35 14.35 9.35 14.4 9.35 14.45 9.35 14.55 9.35 14.6 9.35 14.65 9.35 14.7 9.35 14.8 9.35 14.85 9.35 14.9 9.35 14.95 9.35 15.0 9.35 15.05 9.3 15.1 9.3 15.2 9.3 15.25 9.3 15.3 9.3 15.35 9.3 L15.05 10.45 Q14.85 10.45 14.45 10.5 14.0 10.55 13.8 10.55 13.7 10.55 13.65 10.55 13.6 10.6 13.5 10.6 13.45 10.65 13.4 10.65 13.35 10.7 13.3 10.75 13.3 10.8 13.25 10.8 13.2 10.85 13.2 10.9 13.2 11.0 13.15 11.05 13.15 11.1 13.15 11.15 13.15 11.25 13.15 11.3 13.15 11.35 13.2 11.4 13.2 11.5 13.25 11.5 13.25 11.55 13.3 11.6 13.35 11.65 13.4 11.65 13.4 11.7 13.45 11.7 13.5 11.75 13.6 11.75 13.65 11.75 13.7 11.75 L14.8 11.75 14.5 13.2 Q14.5 13.3 14.5 13.4 14.5 13.45 14.55 13.55 14.55 13.6 14.6 13.65 14.65 13.75 14.7 13.75 14.7 13.8 14.8 13.85 14.85 13.9 14.9 13.9 14.95 13.95 15.05 13.95 15.1 13.95 15.2 13.95 15.25 13.95 15.35 13.95 15.4 13.95 15.45 13.95 15.5 13.9 15.55 13.9 15.6 13.9 15.65 13.85 15.7 13.8 15.75 13.8 15.75 13.75 15.8 13.7 15.8 13.65 15.85 13.6 15.85 13.55 15.85 13.5 16.0 13.1 16.3 11.7 L17.65 11.7 17.35 13.1 Q17.35 13.2 17.35 13.3 17.35 13.4 17.4 13.5 17.4 13.55 17.45 13.65 17.45 13.7 17.5 13.75 17.55 13.8 17.6 13.85 17.65 13.9 17.75 13.95 17.8 13.95 17.9 14.0 17.95 14.0 18.05 14.0 18.25 14.05 18.25 14.05 18.3 14.05 18.35 14.05 18.4 14.05 18.4 14.0 18.45 14.0 18.5 13.95 18.5 13.95 18.55 13.9 18.55 13.85 18.6 13.85 18.6 13.8 18.6 13.75 18.6 13.7 18.6 13.6 18.65 13.55 18.6 13.5 L18.95 11.7 20.35 11.65 Q20.45 11.65 20.5 11.65 20.6 11.65 20.65 11.6 20.75 11.6 20.8 11.55 20.85 11.55 20.9 11.5 20.95 11.45 21.0 11.45 21.0 11.4 21.05 11.35 21.05 11.3 21.05 11.2 21.1 11.15 21.1 11.1 21.1 11.0 21.1 10.95 21.05 10.9 21.05 10.85 21.0 10.8 21.0 10.75 20.95 10.7 20.9 10.65 20.85 10.6 20.8 10.6 20.75 10.55 20.65 10.55 20.6 10.5 20.5 10.5 20.4 10.5 20.3 10.5 L19.25 10.5 19.55 9.25 20.75 9.2 Q20.8 9.2 20.9 9.2 20.95 9.15 21.0 9.15 21.05 9.15 21.1 9.1 21.15 9.05 21.2 9.05 21.25 9.0 21.25 8.95 21.3 8.9 21.3 8.85 21.35 8.75 21.35 8.7 21.35 8.65 21.35 8.55 21.35 8.45 21.35 8.4 21.35 8.35 21.3 8.3 21.3 8.2 21.25 8.15 21.2 8.1 21.15 8.1 21.1 8.05 21.05 8.0 20.95 8.0 20.9 7.95 20.8 7.95 20.7 7.95 20.6 7.9 20.5 7.9 20.45 7.9 20.4 7.9 20.35 7.9 20.35 7.95 20.3 7.95 20.25 7.95 20.2 7.95 20.15 7.95 20.1 7.95 20.05 8.0 20.0 8.0 20.0 8.0 19.95 8.0 19.9 8.0 19.85 8.0 19.8 8.05 L19.8 8.05 M18.15 9.25 L17.9 10.5 16.55 10.5 16.55 10.45 16.8 9.25 18.15 9.25" fill="#ffffff" fill-rule="evenodd" stroke="none"/>
    </g>
  </defs>
</svg>
