<?xml version="1.0" encoding="UTF-8" standalone="no"?>
<svg xmlns:ffdec="https://www.free-decompiler.com/flash" xmlns:xlink="http://www.w3.org/1999/xlink" ffdec:objectType="frame" height="26.55px" width="70.8px" xmlns="http://www.w3.org/2000/svg">
  <g transform="matrix(1.0, 0.0, 0.0, 1.0, 0.2, 0.4)">
    <use ffdec:characterId="3" height="26.0" transform="matrix(1.0, 0.0, 0.0, 1.0, 0.0, 0.0)" width="26.0" xlink:href="#shape0"/>
    <use ffdec:characterId="56" height="26.0" transform="matrix(1.0, 0.0, 0.0, 1.0, 0.0, 0.0)" width="26.0" xlink:href="#shape1"/>
    <use ffdec:characterId="56" height="26.0" transform="matrix(1.0, 0.0, 0.0, 1.0, 0.0, 0.0)" width="26.0" xlink:href="#shape1"/>
    <use ffdec:characterId="57" height="26.0" transform="matrix(1.0, 0.0, 0.0, 1.0, 0.0, 0.0)" width="26.0" xlink:href="#shape2"/>
    <use ffdec:characterId="57" height="26.0" transform="matrix(1.0, 0.0, 0.0, 1.0, 0.0, 0.0)" width="26.0" xlink:href="#shape2"/>
  </g>
  <defs>
    <g id="shape0" transform="matrix(1.0, 0.0, 0.0, 1.0, 0.0, 0.0)">
      <path d="M23.5 2.45 Q23.5 2.5 23.5 2.5 23.5 2.55 23.5 2.55 23.5 2.55 23.5 2.55 23.5 2.6 23.5 2.6 L23.5 4.05 22.85 3.8 23.5 4.5 23.5 5.25 22.95 5.25 23.5 6.45 23.5 7.1 23.3 8.15 23.5 7.8 23.5 9.55 22.85 9.85 23.15 10.05 23.75 9.8 23.75 8.05 23.5 8.4 23.75 7.35 23.75 6.7 23.2 5.5 23.75 5.5 23.75 4.75 23.1 4.05 23.75 4.3 23.75 2.85 Q23.75 2.8 23.75 2.8 23.75 2.7 23.75 2.65 23.75 2.55 23.7 2.55 23.7 2.5 23.65 2.5 23.6 2.5 23.5 2.45 L23.5 2.45 M23.5 10.4 L23.5 22.5 23.5 23.15 Q23.5 23.4 23.5 23.4 23.45 23.5 23.4 23.5 23.35 23.5 23.15 23.5 L22.5 23.5 21.85 23.5 20.95 23.5 21.0 23.75 22.1 23.75 22.75 23.75 23.4 23.75 Q23.65 23.75 23.7 23.75 23.75 23.7 23.75 23.4 L23.75 22.75 23.75 10.55 23.5 10.4 M20.7 22.75 L19.95 23.5 16.1 23.5 15.25 23.05 15.2 23.5 14.15 23.5 13.9 23.5 12.75 23.4 12.05 23.5 10.85 23.5 10.7 23.3 10.2 23.55 9.7 23.5 8.85 23.25 8.4 23.5 7.5 23.5 7.25 23.35 6.45 23.5 5.85 23.5 5.2 23.5 4.55 23.5 3.95 23.45 3.25 23.5 2.85 23.5 Q2.85 23.55 2.85 23.6 2.85 23.65 2.85 23.7 2.8 23.7 2.8 23.75 2.85 23.75 2.85 23.75 2.85 23.75 2.85 23.75 L3.5 23.75 4.2 23.7 4.8 23.75 5.45 23.75 6.05 23.75 6.7 23.75 7.45 23.6 7.75 23.75 8.65 23.75 9.1 23.5 9.9 23.75 10.45 23.8 10.95 23.55 11.1 23.75 12.3 23.75 13.0 23.65 14.1 23.75 14.4 23.75 15.4 23.75 15.5 23.3 16.35 23.75 20.15 23.75 20.75 23.2 20.7 22.75" fill="#ffffff" fill-rule="evenodd" stroke="none"/>
      <path d="M2.6 2.2 L5.95 2.2 6.2 2.65 6.5 2.4 7.75 2.2 13.5 2.2 13.7 2.7 14.15 2.2 15.45 2.2 16.65 2.2 17.15 2.65 17.35 2.2 18.0 2.2 23.15 2.2 Q23.35 2.2 23.4 2.25 23.45 2.25 23.5 2.35 23.5 2.4 23.5 2.55 23.5 2.55 23.5 2.6 L23.5 4.05 22.85 3.8 23.5 4.5 23.5 5.25 22.95 5.25 23.5 6.45 23.5 7.1 23.3 8.15 23.5 7.8 23.5 9.55 22.85 9.85 23.5 10.3 23.5 22.5 23.5 23.15 Q23.5 23.4 23.5 23.4 23.45 23.5 23.4 23.5 23.35 23.5 23.15 23.5 L22.5 23.5 21.85 23.5 20.75 23.5 20.7 22.75 19.95 23.5 16.1 23.5 15.25 23.05 15.2 23.5 14.15 23.5 13.9 23.5 12.75 23.4 12.05 23.5 10.85 23.5 10.7 23.3 10.2 23.55 9.7 23.5 8.85 23.25 8.4 23.5 7.5 23.5 7.25 23.35 6.45 23.5 5.85 23.5 5.2 23.5 4.55 23.5 3.95 23.45 3.25 23.5 2.6 23.5 Q2.6 23.5 2.6 23.5 2.6 23.5 2.6 23.5 2.4 23.5 2.35 23.5 2.3 23.5 2.25 23.45 2.25 23.4 2.25 23.2 2.25 23.2 2.25 23.2 2.25 23.2 2.25 23.2 2.25 23.15 2.25 23.15 L2.25 17.7 3.05 17.5 2.25 16.75 2.25 16.1 2.25 15.45 2.25 14.45 2.65 14.15 2.25 13.9 2.25 10.65 2.65 10.45 2.25 9.9 2.25 9.0 2.25 8.35 2.25 7.7 2.75 7.2 2.25 6.85 2.25 2.6 Q2.25 2.55 2.25 2.55 2.25 2.4 2.25 2.35 2.3 2.25 2.35 2.25 2.4 2.2 2.55 2.2 2.55 2.2 2.6 2.2 2.6 2.2 2.6 2.2 2.6 2.2 2.6 2.2 L2.6 2.2" fill="#000000" fill-rule="evenodd" stroke="none"/>
    </g>
    <g id="shape1" transform="matrix(1.0, 0.0, 0.0, 1.0, 0.0, 0.0)">
      <path d="M5.8 7.75 Q5.8 7.8 5.8 7.85 5.8 7.95 5.85 7.95 5.85 8.0 5.9 8.05 5.95 8.05 6.0 8.1 6.05 8.1 6.1 8.1 6.15 8.1 6.25 8.1 6.3 8.05 6.4 8.05 6.5 8.0 6.6 8.0 6.7 7.95 6.8 7.9 6.85 7.9 6.95 7.85 7.05 7.8 7.1 7.8 7.2 7.75 7.3 7.75 7.35 7.7 7.45 7.7 7.55 7.7 7.6 7.65 7.7 7.65 7.75 7.65 7.85 7.65 7.95 7.65 8.2 7.65 8.75 7.75 9.45 7.85 10.25 8.1 12.2 8.55 12.6 8.55 12.65 8.55 12.75 8.55 12.85 8.5 12.95 8.5 13.05 8.45 13.15 8.45 13.25 8.4 13.35 8.35 13.5 8.3 13.6 8.25 13.75 8.15 13.85 8.1 14.0 8.05 14.15 7.95 14.3 7.85 14.45 7.75 14.6 7.65 14.75 7.6 14.85 7.5 15.0 7.45 15.1 7.35 15.2 7.3 15.3 7.2 15.35 7.15 15.45 7.1 15.5 7.0 15.55 6.95 15.6 6.9 15.65 6.85 15.65 6.8 15.7 6.75 15.7 6.7 15.7 6.65 15.65 6.6 15.6 6.55 15.55 6.5 15.5 6.45 15.4 6.45 15.3 6.4 15.15 6.35 15.0 6.35 14.85 6.3 14.7 6.3 14.45 6.3 14.3 6.3 14.05 6.25 13.8 6.25 13.55 6.25 13.3 6.25 13.05 6.25 12.8 6.25 12.55 6.25 12.3 6.25 12.1 6.25 11.85 6.2 11.65 6.2 11.4 6.2 11.2 6.15 11.0 6.15 10.8 6.1 10.65 6.1 10.45 6.05 10.25 6.05 10.1 6.0 8.55 5.8 7.95 5.85 7.9 5.85 7.85 5.85 7.75 5.85 7.7 5.9 7.6 5.9 7.55 5.95 7.45 5.95 7.4 6.0 7.3 6.05 7.2 6.1 7.15 6.15 7.05 6.2 6.95 6.25 6.85 6.3 6.75 6.35 6.65 6.45 6.55 6.5 6.45 6.6 6.35 6.65 6.3 6.75 6.2 6.8 6.15 6.9 6.05 6.95 6.0 7.05 5.95 7.15 5.9 7.2 5.85 7.3 5.85 7.4 5.8 7.45 5.8 7.55 5.8 7.65 5.8 7.75 L5.8 7.75" fill="#ffffff" fill-rule="evenodd" stroke="none"/>
      <path d="M19.05 20.2 Q19.1 20.2 19.1 20.2 19.15 20.2 19.2 20.15 19.25 20.15 19.25 20.15 19.3 20.1 19.3 20.05 19.35 20.05 19.35 20.0 19.45 19.7 19.45 19.65 19.45 19.6 19.4 19.5 19.4 19.4 19.35 19.3 19.3 19.2 19.25 19.05 19.15 18.95 19.05 18.85 18.95 18.7 18.85 18.55 18.75 18.4 18.6 18.25 18.45 18.1 18.3 17.95 18.15 17.75 18.0 17.6 16.75 16.35 16.2 16.0 16.2 16.0 16.15 15.95 16.1 15.95 16.05 15.95 16.0 15.95 16.0 15.9 15.95 15.9 15.9 15.9 15.9 15.9 15.85 15.9 15.8 15.9 15.8 15.85 15.75 15.85 15.7 15.85 15.7 15.85 15.65 15.85 15.6 15.85 15.6 15.85 15.55 15.85 15.5 15.9 15.45 15.9 15.45 15.9 15.4 15.95 15.35 15.95 15.3 16.0 15.25 16.0 15.25 16.05 15.2 16.05 15.15 16.1 15.1 16.15 15.05 16.15 15.0 16.2 14.95 16.25 14.9 16.3 14.85 16.35 14.85 16.4 14.8 16.45 14.8 16.5 14.75 16.55 14.7 16.6 14.7 16.65 14.7 16.7 14.65 16.7 14.65 16.75 14.65 16.8 14.65 16.85 14.6 16.9 14.6 16.9 14.6 16.95 14.6 17.0 14.6 17.05 14.65 17.1 14.65 17.1 14.65 17.15 14.7 17.2 14.7 17.25 14.7 17.3 14.75 17.35 14.8 17.4 14.8 17.45 14.85 17.5 14.9 17.6 14.95 17.65 14.95 17.7 15.1 17.85 15.35 18.05 15.65 18.25 16.05 18.55 16.5 18.85 17.1 19.2 18.85 20.2 19.05 20.2 L19.05 20.2" fill="#ffffff" fill-rule="evenodd" stroke="none"/>
    </g>
  </defs>
</svg>
