<?xml version="1.0" encoding="UTF-8" standalone="no"?>
<svg xmlns:ffdec="https://www.free-decompiler.com/flash" xmlns:xlink="http://www.w3.org/1999/xlink" ffdec:objectType="frame" height="26.55px" width="70.8px" xmlns="http://www.w3.org/2000/svg">
  <g transform="matrix(1.0, 0.0, 0.0, 1.0, 0.2, 0.4)">
    <use ffdec:characterId="3" height="26.0" transform="matrix(1.0, 0.0, 0.0, 1.0, 0.0, 0.0)" width="26.0" xlink:href="#shape0"/>
    <use ffdec:characterId="61" height="26.0" transform="matrix(1.0, 0.0, 0.0, 1.0, 0.0, 0.0)" width="26.0" xlink:href="#shape1"/>
    <use ffdec:characterId="61" height="26.0" transform="matrix(1.0, 0.0, 0.0, 1.0, 0.0, 0.0)" width="26.0" xlink:href="#shape1"/>
  </g>
  <defs>
    <g id="shape0" transform="matrix(1.0, 0.0, 0.0, 1.0, 0.0, 0.0)">
      <path d="M23.5 2.45 Q23.5 2.5 23.5 2.5 23.5 2.55 23.5 2.55 23.5 2.55 23.5 2.55 23.5 2.6 23.5 2.6 L23.5 4.05 22.85 3.8 23.5 4.5 23.5 5.25 22.95 5.25 23.5 6.45 23.5 7.1 23.3 8.15 23.5 7.8 23.5 9.55 22.85 9.85 23.15 10.05 23.75 9.8 23.75 8.05 23.5 8.4 23.75 7.35 23.75 6.7 23.2 5.5 23.75 5.5 23.75 4.75 23.1 4.05 23.75 4.3 23.75 2.85 Q23.75 2.8 23.75 2.8 23.75 2.7 23.75 2.65 23.75 2.55 23.7 2.55 23.7 2.5 23.65 2.5 23.6 2.5 23.5 2.45 L23.5 2.45 M23.5 10.4 L23.5 22.5 23.5 23.15 Q23.5 23.4 23.5 23.4 23.45 23.5 23.4 23.5 23.35 23.5 23.15 23.5 L22.5 23.5 21.85 23.5 20.95 23.5 21.0 23.75 22.1 23.75 22.75 23.75 23.4 23.75 Q23.65 23.75 23.7 23.75 23.75 23.7 23.75 23.4 L23.75 22.75 23.75 10.55 23.5 10.4 M20.7 22.75 L19.95 23.5 16.1 23.5 15.25 23.05 15.2 23.5 14.15 23.5 13.9 23.5 12.75 23.4 12.05 23.5 10.85 23.5 10.7 23.3 10.2 23.55 9.7 23.5 8.85 23.25 8.4 23.5 7.5 23.5 7.25 23.35 6.45 23.5 5.85 23.5 5.2 23.5 4.55 23.5 3.95 23.45 3.25 23.5 2.85 23.5 Q2.85 23.55 2.85 23.6 2.85 23.65 2.85 23.7 2.8 23.7 2.8 23.75 2.85 23.75 2.85 23.75 2.85 23.75 2.85 23.75 L3.5 23.75 4.2 23.7 4.8 23.75 5.45 23.75 6.05 23.75 6.7 23.75 7.45 23.6 7.75 23.75 8.65 23.75 9.1 23.5 9.9 23.75 10.45 23.8 10.95 23.55 11.1 23.75 12.3 23.75 13.0 23.65 14.1 23.75 14.4 23.75 15.4 23.75 15.5 23.3 16.35 23.75 20.15 23.75 20.75 23.2 20.7 22.75" fill="#ffffff" fill-rule="evenodd" stroke="none"/>
      <path d="M2.6 2.2 L5.95 2.2 6.2 2.65 6.5 2.4 7.75 2.2 13.5 2.2 13.7 2.7 14.15 2.2 15.45 2.2 16.65 2.2 17.15 2.65 17.35 2.2 18.0 2.2 23.15 2.2 Q23.35 2.2 23.4 2.25 23.45 2.25 23.5 2.35 23.5 2.4 23.5 2.55 23.5 2.55 23.5 2.6 L23.5 4.05 22.85 3.8 23.5 4.5 23.5 5.25 22.95 5.25 23.5 6.45 23.5 7.1 23.3 8.15 23.5 7.8 23.5 9.55 22.85 9.85 23.5 10.3 23.5 22.5 23.5 23.15 Q23.5 23.4 23.5 23.4 23.45 23.5 23.4 23.5 23.35 23.5 23.15 23.5 L22.5 23.5 21.85 23.5 20.75 23.5 20.7 22.75 19.95 23.5 16.1 23.5 15.25 23.05 15.2 23.5 14.15 23.5 13.9 23.5 12.75 23.4 12.05 23.5 10.85 23.5 10.7 23.3 10.2 23.55 9.7 23.5 8.85 23.25 8.4 23.5 7.5 23.5 7.25 23.35 6.45 23.5 5.85 23.5 5.2 23.5 4.55 23.5 3.95 23.45 3.25 23.5 2.6 23.5 Q2.6 23.5 2.6 23.5 2.6 23.5 2.6 23.5 2.4 23.5 2.35 23.5 2.3 23.5 2.25 23.45 2.25 23.4 2.25 23.2 2.25 23.2 2.25 23.2 2.25 23.2 2.25 23.2 2.25 23.15 2.25 23.15 L2.25 17.7 3.05 17.5 2.25 16.75 2.25 16.1 2.25 15.45 2.25 14.45 2.65 14.15 2.25 13.9 2.25 10.65 2.65 10.45 2.25 9.9 2.25 9.0 2.25 8.35 2.25 7.7 2.75 7.2 2.25 6.85 2.25 2.6 Q2.25 2.55 2.25 2.55 2.25 2.4 2.25 2.35 2.3 2.25 2.35 2.25 2.4 2.2 2.55 2.2 2.55 2.2 2.6 2.2 2.6 2.2 2.6 2.2 2.6 2.2 2.6 2.2 L2.6 2.2" fill="#000000" fill-rule="evenodd" stroke="none"/>
    </g>
    <g id="shape1" transform="matrix(1.0, 0.0, 0.0, 1.0, 0.0, 0.0)">
      <path d="M7.3 8.35 Q7.3 8.35 7.3 8.35 7.35 8.4 7.35 8.4 7.35 8.45 7.4 8.5 7.4 8.55 7.45 8.6 7.5 8.65 7.5 8.65 7.55 8.7 7.55 8.7 7.6 8.75 7.65 8.75 7.65 8.75 7.7 8.75 7.75 8.75 7.8 8.75 7.85 8.7 7.9 8.7 7.95 8.65 8.3 8.55 8.35 8.5 8.4 8.5 8.4 8.5 8.45 8.45 8.5 8.45 8.55 8.45 8.55 8.4 8.6 8.4 8.6 8.4 8.65 8.4 8.65 8.4 8.7 8.4 8.7 8.4 8.7 8.4 8.75 8.4 8.75 8.4 8.8 8.4 8.9 8.45 9.0 8.45 9.1 8.55 9.2 8.65 9.3 8.75 9.4 8.9 9.55 9.05 9.65 9.2 9.8 9.4 9.95 9.6 10.1 9.85 10.25 10.1 10.4 10.4 10.6 10.7 10.75 11.0 L11.7 12.8 9.9 15.65 Q8.9 17.3 8.35 17.95 8.3 18.05 8.2 18.1 8.15 18.2 8.05 18.3 8.0 18.35 7.9 18.45 7.85 18.5 7.8 18.55 7.7 18.6 7.65 18.65 7.55 18.7 7.5 18.75 7.4 18.8 7.35 18.85 7.3 18.9 7.2 18.9 7.1 18.95 7.05 18.95 7.0 19.0 6.95 19.05 6.9 19.1 6.85 19.1 6.8 19.15 6.75 19.2 6.7 19.25 6.7 19.3 6.65 19.3 6.65 19.35 6.6 19.4 6.6 19.45 6.6 19.5 6.6 19.5 6.6 19.55 6.65 19.65 6.7 19.7 6.8 19.75 6.9 19.8 7.0 19.85 7.15 19.9 7.35 19.95 7.55 19.95 7.75 20.0 8.0 20.0 8.25 20.05 8.55 20.05 8.85 20.05 9.2 20.05 9.55 20.05 11.0 20.1 11.2 19.95 11.2 19.95 11.25 19.9 11.25 19.9 11.25 19.9 11.3 19.85 11.3 19.85 11.3 19.8 11.3 19.8 11.35 19.75 11.35 19.7 11.35 19.7 11.35 19.65 11.35 19.6 11.35 19.55 11.35 19.5 11.35 19.45 11.35 19.4 11.35 19.35 11.35 19.3 11.3 19.3 11.3 19.25 11.3 19.2 11.25 19.15 11.25 19.15 11.2 19.1 11.15 19.05 11.15 19.05 11.1 19.0 11.05 19.0 11.0 18.95 10.95 18.95 10.9 18.95 10.85 18.95 10.8 18.9 10.75 18.9 10.7 18.85 10.65 18.85 10.6 18.8 10.55 18.8 10.5 18.75 10.5 18.7 10.45 18.65 10.45 18.6 10.45 18.55 10.4 18.5 10.4 18.45 10.4 18.4 10.4 18.35 10.4 18.3 10.4 18.2 10.45 18.15 10.45 18.05 10.5 17.95 10.55 17.8 10.55 17.7 10.65 17.55 10.7 17.4 10.75 17.25 10.85 17.1 10.95 16.9 11.0 16.7 11.15 16.5 11.25 16.3 11.35 16.1 11.45 15.85 11.6 15.7 11.7 15.5 11.8 15.3 11.9 15.15 11.95 15.0 12.05 14.85 12.15 14.75 12.2 14.65 12.25 14.55 12.35 14.5 12.4 14.4 12.45 14.35 12.45 14.35 12.5 14.3 12.55 14.3 12.7 14.3 13.7 16.2 14.15 17.05 14.45 17.65 14.65 18.2 14.65 18.3 14.65 18.35 14.65 18.35 14.65 18.4 14.65 18.45 14.65 18.45 14.6 18.5 14.6 18.55 14.6 18.55 14.55 18.6 14.55 18.6 14.5 18.65 14.5 18.7 14.45 18.7 14.4 18.75 14.35 18.8 14.35 18.8 14.3 18.85 14.25 18.85 14.2 18.9 14.2 18.9 14.15 18.95 14.1 18.95 14.05 19.0 14.0 19.0 13.95 19.05 13.95 19.05 13.9 19.1 13.85 19.1 13.8 19.1 13.8 19.15 13.75 19.15 13.7 19.15 13.65 19.15 13.65 19.2 13.6 19.2 13.6 19.25 13.55 19.25 13.55 19.3 13.55 19.35 13.55 19.35 13.55 19.4 13.55 19.45 13.55 19.5 13.55 19.55 13.55 19.55 13.55 19.6 13.6 19.65 13.6 19.75 13.6 19.75 13.65 19.8 13.65 19.8 13.65 19.85 13.7 19.85 13.7 19.9 13.75 19.9 13.75 19.9 13.8 19.95 13.85 19.95 13.85 19.95 13.9 19.95 13.95 20.0 14.0 20.0 14.0 20.0 14.05 20.0 14.7 20.05 16.6 20.05 16.85 20.05 17.1 20.05 17.35 20.05 17.55 20.05 17.75 20.0 17.95 20.0 18.15 20.0 18.3 20.0 18.5 19.95 18.6 19.95 18.75 19.9 18.9 19.9 19.0 19.85 19.1 19.85 19.2 19.8 19.25 19.8 19.3 19.8 19.3 19.75 19.35 19.75 19.35 19.7 19.35 19.65 19.35 19.65 19.4 19.6 19.4 19.55 19.4 19.5 19.4 19.45 19.4 19.4 19.4 19.35 19.4 19.3 19.35 19.25 19.35 19.2 19.35 19.15 19.3 19.15 19.25 19.1 19.25 19.05 19.2 19.05 19.15 19.0 19.1 19.0 19.05 18.95 19.0 18.95 18.95 18.95 18.9 18.9 18.85 18.9 18.75 18.9 18.7 18.85 18.65 18.85 18.55 18.8 18.5 18.8 18.4 18.75 18.35 18.7 18.3 18.65 18.2 18.6 18.15 18.55 18.1 18.5 18.0 18.4 17.95 18.35 17.9 18.3 17.8 18.2 17.25 17.45 15.9 15.15 L14.3 12.3 15.0 11.2 Q16.25 9.15 16.9 8.35 16.95 8.25 17.05 8.15 17.1 8.1 17.2 8.0 17.25 7.95 17.35 7.85 17.4 7.8 17.5 7.7 17.55 7.65 17.65 7.6 17.7 7.55 17.8 7.5 17.9 7.45 17.95 7.4 18.05 7.35 18.15 7.3 18.25 7.25 18.3 7.25 18.35 7.2 18.45 7.15 18.5 7.1 18.55 7.05 18.6 7.0 18.65 7.0 18.7 6.95 18.7 6.9 18.75 6.85 18.8 6.8 18.8 6.75 18.8 6.7 18.8 6.65 18.8 6.6 18.8 6.55 18.8 6.5 18.8 6.5 18.8 6.45 18.8 6.4 18.75 6.4 18.75 6.35 18.7 6.35 18.65 6.3 18.65 6.3 18.5 6.25 18.05 6.2 17.75 6.15 16.3 6.15 15.0 6.15 14.6 6.25 14.55 6.25 14.5 6.25 14.45 6.3 14.4 6.3 14.35 6.3 14.3 6.35 14.25 6.35 14.25 6.4 14.2 6.4 14.15 6.45 14.15 6.45 14.1 6.5 14.1 6.5 14.05 6.55 14.05 6.6 14.0 6.65 14.0 6.7 14.0 6.7 14.0 6.75 14.0 6.8 14.0 6.8 14.0 6.85 14.0 6.9 14.0 6.9 14.05 6.95 14.05 6.95 14.1 7.0 14.1 7.0 14.15 7.05 14.2 7.05 14.2 7.05 14.25 7.1 14.3 7.1 14.3 7.1 14.35 7.15 14.35 7.15 14.4 7.15 14.45 7.2 14.45 7.2 14.5 7.25 14.55 7.25 14.6 7.3 14.6 7.3 14.65 7.35 14.7 7.35 14.75 7.4 14.8 7.4 14.85 7.45 14.9 7.5 14.9 7.5 14.95 7.55 15.0 7.6 15.0 7.6 15.05 7.65 15.05 7.7 15.05 7.7 15.1 7.75 15.1 7.8 15.1 7.8 15.1 7.85 15.15 7.9 15.15 7.9 15.15 7.95 15.1 7.95 15.1 8.0 15.1 8.05 15.1 8.1 15.1 8.15 15.05 8.2 15.05 8.25 15.0 8.3 15.0 8.4 14.95 8.5 14.9 8.55 14.85 8.65 14.8 8.75 14.75 8.85 14.7 8.95 14.65 9.05 14.55 9.2 14.4 9.5 14.25 9.7 14.1 9.95 14.0 10.1 13.9 10.3 13.8 10.4 13.75 10.5 13.65 10.6 13.6 10.65 13.6 10.65 13.55 10.65 13.5 10.6 13.45 10.6 13.4 10.5 13.35 10.45 13.3 10.35 13.2 10.25 13.1 10.15 13.05 10.0 12.95 9.85 12.85 9.7 12.7 9.5 12.6 9.3 12.45 9.1 12.35 8.85 12.2 8.6 11.05 6.6 10.7 6.25 10.65 6.2 10.6 6.15 10.6 6.15 10.55 6.1 10.5 6.05 10.45 6.05 10.4 6.0 10.35 6.0 10.3 6.0 10.25 5.95 10.2 5.95 10.15 5.95 10.1 5.95 10.05 5.95 9.95 5.95 9.9 5.95 9.9 5.95 9.9 5.95 9.85 5.95 9.75 5.95 9.7 6.0 9.6 6.0 9.55 6.05 9.45 6.1 9.35 6.15 9.25 6.2 9.15 6.25 9.05 6.35 8.95 6.4 8.85 6.5 8.75 6.6 8.6 6.7 8.5 6.8 8.35 6.9 8.2 7.0 8.1 7.15 8.0 7.25 7.9 7.35 7.8 7.45 7.7 7.55 7.65 7.65 7.6 7.75 7.5 7.85 7.45 7.9 7.4 8.0 7.4 8.05 7.35 8.15 7.35 8.2 7.3 8.25 7.3 8.35 L7.3 8.35" fill="#ffffff" fill-rule="evenodd" stroke="none"/>
    </g>
  </defs>
</svg>
