<?xml version="1.0" encoding="UTF-8" standalone="no"?>
<svg xmlns:ffdec="https://www.free-decompiler.com/flash" xmlns:xlink="http://www.w3.org/1999/xlink" ffdec:objectType="frame" height="26.55px" width="70.8px" xmlns="http://www.w3.org/2000/svg">
  <g transform="matrix(1.0, 0.0, 0.0, 1.0, 0.2, 0.4)">
    <use ffdec:characterId="3" height="26.0" transform="matrix(1.0, 0.0, 0.0, 1.0, 0.0, 0.0)" width="26.0" xlink:href="#shape0"/>
    <use ffdec:characterId="63" height="26.0" transform="matrix(1.0, 0.0, 0.0, 1.0, 0.0, 0.0)" width="26.0" xlink:href="#shape1"/>
    <use ffdec:characterId="63" height="26.0" transform="matrix(1.0, 0.0, 0.0, 1.0, 0.0, 0.0)" width="26.0" xlink:href="#shape1"/>
  </g>
  <defs>
    <g id="shape0" transform="matrix(1.0, 0.0, 0.0, 1.0, 0.0, 0.0)">
      <path d="M23.5 2.45 Q23.5 2.5 23.5 2.5 23.5 2.55 23.5 2.55 23.5 2.55 23.5 2.55 23.5 2.6 23.5 2.6 L23.5 4.05 22.85 3.8 23.5 4.5 23.5 5.25 22.95 5.25 23.5 6.45 23.5 7.1 23.3 8.15 23.5 7.8 23.5 9.55 22.85 9.85 23.15 10.05 23.75 9.8 23.75 8.05 23.5 8.4 23.75 7.35 23.75 6.7 23.2 5.5 23.75 5.5 23.75 4.75 23.1 4.05 23.75 4.3 23.75 2.85 Q23.75 2.8 23.75 2.8 23.75 2.7 23.75 2.65 23.75 2.55 23.7 2.55 23.7 2.5 23.65 2.5 23.6 2.5 23.5 2.45 L23.5 2.45 M23.5 10.4 L23.5 22.5 23.5 23.15 Q23.5 23.4 23.5 23.4 23.45 23.5 23.4 23.5 23.35 23.5 23.15 23.5 L22.5 23.5 21.85 23.5 20.95 23.5 21.0 23.75 22.1 23.75 22.75 23.75 23.4 23.75 Q23.65 23.75 23.7 23.75 23.75 23.7 23.75 23.4 L23.75 22.75 23.75 10.55 23.5 10.4 M20.7 22.75 L19.95 23.5 16.1 23.5 15.25 23.05 15.2 23.5 14.15 23.5 13.9 23.5 12.75 23.4 12.05 23.5 10.85 23.5 10.7 23.3 10.2 23.55 9.7 23.5 8.85 23.25 8.4 23.5 7.5 23.5 7.25 23.35 6.45 23.5 5.85 23.5 5.2 23.5 4.55 23.5 3.95 23.45 3.25 23.5 2.85 23.5 Q2.85 23.55 2.85 23.6 2.85 23.65 2.85 23.7 2.8 23.7 2.8 23.75 2.85 23.75 2.85 23.75 2.85 23.75 2.85 23.75 L3.5 23.75 4.2 23.7 4.8 23.75 5.45 23.75 6.05 23.75 6.7 23.75 7.45 23.6 7.75 23.75 8.65 23.75 9.1 23.5 9.9 23.75 10.45 23.8 10.95 23.55 11.1 23.75 12.3 23.75 13.0 23.65 14.1 23.75 14.4 23.75 15.4 23.75 15.5 23.3 16.35 23.75 20.15 23.75 20.75 23.2 20.7 22.75" fill="#ffffff" fill-rule="evenodd" stroke="none"/>
      <path d="M2.6 2.2 L5.95 2.2 6.2 2.65 6.5 2.4 7.75 2.2 13.5 2.2 13.7 2.7 14.15 2.2 15.45 2.2 16.65 2.2 17.15 2.65 17.35 2.2 18.0 2.2 23.15 2.2 Q23.35 2.2 23.4 2.25 23.45 2.25 23.5 2.35 23.5 2.4 23.5 2.55 23.5 2.55 23.5 2.6 L23.5 4.05 22.85 3.8 23.5 4.5 23.5 5.25 22.95 5.25 23.5 6.45 23.5 7.1 23.3 8.15 23.5 7.8 23.5 9.55 22.85 9.85 23.5 10.3 23.5 22.5 23.5 23.15 Q23.5 23.4 23.5 23.4 23.45 23.5 23.4 23.5 23.35 23.5 23.15 23.5 L22.5 23.5 21.85 23.5 20.75 23.5 20.7 22.75 19.95 23.5 16.1 23.5 15.25 23.05 15.2 23.5 14.15 23.5 13.9 23.5 12.75 23.4 12.05 23.5 10.85 23.5 10.7 23.3 10.2 23.55 9.7 23.5 8.85 23.25 8.4 23.5 7.5 23.5 7.25 23.35 6.45 23.5 5.85 23.5 5.2 23.5 4.55 23.5 3.95 23.45 3.25 23.5 2.6 23.5 Q2.6 23.5 2.6 23.5 2.6 23.5 2.6 23.5 2.4 23.5 2.35 23.5 2.3 23.5 2.25 23.45 2.25 23.4 2.25 23.2 2.25 23.2 2.25 23.2 2.25 23.2 2.25 23.2 2.25 23.15 2.25 23.15 L2.25 17.7 3.05 17.5 2.25 16.75 2.25 16.1 2.25 15.45 2.25 14.45 2.65 14.15 2.25 13.9 2.25 10.65 2.65 10.45 2.25 9.9 2.25 9.0 2.25 8.35 2.25 7.7 2.75 7.2 2.25 6.85 2.25 2.6 Q2.25 2.55 2.25 2.55 2.25 2.4 2.25 2.35 2.3 2.25 2.35 2.25 2.4 2.2 2.55 2.2 2.55 2.2 2.6 2.2 2.6 2.2 2.6 2.2 2.6 2.2 2.6 2.2 L2.6 2.2" fill="#000000" fill-rule="evenodd" stroke="none"/>
    </g>
    <g id="shape1" transform="matrix(1.0, 0.0, 0.0, 1.0, 0.0, 0.0)">
      <path d="M8.15 9.05 Q8.2 9.05 8.25 9.05 8.25 9.05 8.3 9.05 8.35 9.05 8.4 9.1 8.45 9.1 8.5 9.1 8.55 9.1 8.6 9.15 8.65 9.15 8.7 9.2 8.75 9.2 8.8 9.25 8.85 9.25 8.85 9.3 8.95 9.35 9.1 9.45 9.2 9.55 9.3 9.7 9.45 9.85 9.6 10.05 9.7 10.25 9.85 10.5 10.0 10.75 10.1 11.0 10.25 11.3 10.4 11.6 10.55 11.95 10.7 12.3 10.85 12.7 11.0 13.1 11.15 13.5 11.3 13.9 11.45 14.3 11.6 14.7 11.75 15.1 11.85 15.5 12.0 15.85 12.1 16.25 12.2 16.65 12.3 17.0 12.4 17.35 12.5 17.75 12.55 18.1 12.65 18.45 12.7 18.8 12.75 19.15 L12.95 20.35 15.6 20.35 15.75 19.1 Q15.8 18.8 15.85 18.5 15.9 18.2 16.0 17.85 16.05 17.5 16.15 17.1 16.25 16.7 16.4 16.3 16.5 15.9 16.65 15.45 16.75 15.0 16.9 14.5 17.05 14.05 17.25 13.5 17.4 13.0 17.6 12.45 19.05 8.4 19.25 7.65 19.25 7.6 19.25 7.55 19.3 7.5 19.3 7.45 19.3 7.45 19.3 7.4 19.3 7.35 19.3 7.3 19.3 7.25 19.3 7.25 19.25 7.2 19.25 7.15 19.25 7.15 19.25 7.1 19.25 7.1 19.2 7.05 19.15 7.0 19.1 6.95 19.05 6.9 19.0 6.9 18.9 6.85 18.8 6.8 18.7 6.8 18.6 6.75 18.45 6.7 18.3 6.7 18.15 6.7 18.0 6.65 17.8 6.65 17.6 6.65 17.4 6.6 17.2 6.6 17.2 6.6 16.8 6.45 16.75 6.45 16.75 6.4 16.7 6.4 16.65 6.35 16.65 6.35 16.6 6.3 16.55 6.3 16.55 6.25 16.5 6.25 16.5 6.2 16.45 6.15 16.45 6.15 16.4 6.1 16.4 6.05 16.4 6.0 16.4 6.0 16.4 5.95 16.35 5.9 16.35 5.9 16.3 5.85 16.3 5.8 16.25 5.8 16.25 5.75 16.2 5.75 16.15 5.7 16.15 5.7 16.1 5.7 16.05 5.65 16.05 5.65 16.0 5.65 15.95 5.65 15.9 5.65 15.85 5.65 15.8 5.65 15.8 5.65 15.75 5.65 15.7 5.65 15.65 5.7 15.6 5.7 15.6 5.75 15.55 5.75 15.5 5.8 15.45 5.85 15.45 5.85 15.4 5.9 15.35 5.95 15.3 6.0 15.3 6.1 15.25 6.15 15.25 6.2 15.2 6.25 15.15 6.3 15.15 6.35 15.1 6.4 15.1 6.45 15.05 6.5 15.05 6.5 15.05 6.55 15.0 6.6 15.0 6.65 15.0 6.7 14.95 6.7 14.95 6.75 14.95 6.8 14.95 6.85 14.95 6.85 14.95 6.9 14.95 6.9 14.95 6.95 14.9 7.0 14.9 7.0 14.9 7.05 14.9 7.1 14.9 7.1 14.9 7.15 14.9 7.2 14.9 7.2 14.9 7.25 14.9 7.3 14.9 7.35 14.9 7.4 14.9 7.45 14.95 7.55 14.95 7.65 15.0 7.75 15.05 7.85 15.1 7.95 15.15 8.1 15.15 8.1 15.2 8.15 15.2 8.15 15.25 8.15 15.3 8.2 15.35 8.2 15.4 8.2 15.45 8.2 15.55 8.25 15.6 8.25 15.7 8.25 15.75 8.25 15.85 8.25 15.95 8.25 16.05 8.25 16.15 8.25 16.25 8.25 16.35 8.25 16.45 8.25 16.55 8.25 16.65 8.3 16.7 8.3 16.8 8.3 16.85 8.35 16.9 8.35 16.95 8.35 17.0 8.4 17.0 8.4 17.05 8.45 17.05 8.45 17.1 8.5 17.1 8.55 16.95 9.25 15.75 13.0 L14.5 17.65 13.9 14.95 Q13.6 13.6 12.6 11.3 12.5 11.05 12.35 10.75 12.25 10.5 12.15 10.25 12.0 10.0 11.9 9.8 11.8 9.55 11.65 9.35 11.55 9.1 11.4 8.9 11.3 8.7 11.15 8.5 11.05 8.3 10.9 8.1 10.8 7.9 10.65 7.75 10.5 7.55 10.4 7.4 10.25 7.25 10.15 7.15 10.05 7.0 9.95 6.9 9.85 6.8 9.7 6.7 9.6 6.6 9.5 6.55 9.45 6.45 9.35 6.45 9.25 6.4 9.15 6.35 9.1 6.35 9.0 6.35 8.9 6.35 8.85 6.35 8.75 6.4 8.7 6.4 8.6 6.45 8.5 6.5 8.4 6.55 8.35 6.6 8.25 6.65 8.15 6.75 8.05 6.8 7.95 6.9 7.85 7.0 7.75 7.1 7.65 7.2 7.55 7.35 7.45 7.45 7.35 7.6 7.25 7.7 7.2 7.8 7.1 7.9 7.05 8.0 7.0 8.1 6.95 8.15 6.85 8.25 6.85 8.35 6.8 8.4 6.75 8.5 6.75 8.55 6.75 8.6 6.7 8.65 6.7 8.7 6.75 8.85 6.75 8.85 6.75 8.9 6.8 8.9 6.8 8.95 6.85 8.95 6.85 9.0 6.9 9.0 6.9 9.05 6.95 9.05 6.95 9.05 7.0 9.1 7.05 9.1 7.1 9.1 7.1 9.1 7.15 9.1 7.2 9.15 7.25 9.15 L8.15 9.05" fill="#ffffff" fill-rule="evenodd" stroke="none"/>
    </g>
  </defs>
</svg>
