<?xml version="1.0" encoding="UTF-8" standalone="no"?>
<svg xmlns:ffdec="https://www.free-decompiler.com/flash" xmlns:xlink="http://www.w3.org/1999/xlink" ffdec:objectType="frame" height="26.55px" width="70.8px" xmlns="http://www.w3.org/2000/svg">
  <g transform="matrix(1.0, 0.0, 0.0, 1.0, 0.2, 0.4)">
    <use ffdec:characterId="3" height="26.0" transform="matrix(1.0, 0.0, 0.0, 1.0, 0.0, 0.0)" width="26.0" xlink:href="#shape0"/>
    <use ffdec:characterId="65" height="26.0" transform="matrix(1.0, 0.0, 0.0, 1.0, 0.0, 0.0)" width="26.0" xlink:href="#shape1"/>
    <use ffdec:characterId="65" height="26.0" transform="matrix(1.0, 0.0, 0.0, 1.0, 0.0, 0.0)" width="26.0" xlink:href="#shape1"/>
  </g>
  <defs>
    <g id="shape0" transform="matrix(1.0, 0.0, 0.0, 1.0, 0.0, 0.0)">
      <path d="M23.5 2.45 Q23.5 2.5 23.5 2.5 23.5 2.55 23.5 2.55 23.5 2.55 23.5 2.55 23.5 2.6 23.5 2.6 L23.5 4.05 22.85 3.8 23.5 4.5 23.5 5.25 22.95 5.25 23.5 6.45 23.5 7.1 23.3 8.15 23.5 7.8 23.5 9.55 22.85 9.85 23.15 10.05 23.75 9.8 23.75 8.05 23.5 8.4 23.75 7.35 23.75 6.7 23.2 5.5 23.75 5.5 23.75 4.75 23.1 4.05 23.75 4.3 23.75 2.85 Q23.75 2.8 23.75 2.8 23.75 2.7 23.75 2.65 23.75 2.55 23.7 2.55 23.7 2.5 23.65 2.5 23.6 2.5 23.5 2.45 L23.5 2.45 M23.5 10.4 L23.5 22.5 23.5 23.15 Q23.5 23.4 23.5 23.4 23.45 23.5 23.4 23.5 23.35 23.5 23.15 23.5 L22.5 23.5 21.85 23.5 20.95 23.5 21.0 23.75 22.1 23.75 22.75 23.75 23.4 23.75 Q23.65 23.75 23.7 23.75 23.75 23.7 23.75 23.4 L23.75 22.75 23.75 10.55 23.5 10.4 M20.7 22.75 L19.95 23.5 16.1 23.5 15.25 23.05 15.2 23.5 14.15 23.5 13.9 23.5 12.75 23.4 12.05 23.5 10.85 23.5 10.7 23.3 10.2 23.55 9.7 23.5 8.85 23.25 8.4 23.5 7.5 23.5 7.25 23.35 6.45 23.5 5.85 23.5 5.2 23.5 4.55 23.5 3.95 23.45 3.25 23.5 2.85 23.5 Q2.85 23.55 2.85 23.6 2.85 23.65 2.85 23.7 2.8 23.7 2.8 23.75 2.85 23.75 2.85 23.75 2.85 23.75 2.85 23.75 L3.5 23.75 4.2 23.7 4.8 23.75 5.45 23.75 6.05 23.75 6.7 23.75 7.45 23.6 7.75 23.75 8.65 23.75 9.1 23.5 9.9 23.75 10.45 23.8 10.95 23.55 11.1 23.75 12.3 23.75 13.0 23.65 14.1 23.75 14.4 23.75 15.4 23.75 15.5 23.3 16.35 23.75 20.15 23.75 20.75 23.2 20.7 22.75" fill="#ffffff" fill-rule="evenodd" stroke="none"/>
      <path d="M2.6 2.2 L5.95 2.2 6.2 2.65 6.5 2.4 7.75 2.2 13.5 2.2 13.7 2.7 14.15 2.2 15.45 2.2 16.65 2.2 17.15 2.65 17.35 2.2 18.0 2.2 23.15 2.2 Q23.35 2.2 23.4 2.25 23.45 2.25 23.5 2.35 23.5 2.4 23.5 2.55 23.5 2.55 23.5 2.6 L23.5 4.05 22.85 3.8 23.5 4.5 23.5 5.25 22.95 5.25 23.5 6.45 23.5 7.1 23.3 8.15 23.5 7.8 23.5 9.55 22.85 9.85 23.5 10.3 23.5 22.5 23.5 23.15 Q23.5 23.4 23.5 23.4 23.45 23.5 23.4 23.5 23.35 23.5 23.15 23.5 L22.5 23.5 21.85 23.5 20.75 23.5 20.7 22.75 19.95 23.5 16.1 23.5 15.25 23.05 15.2 23.5 14.15 23.5 13.9 23.5 12.75 23.4 12.05 23.5 10.85 23.5 10.7 23.3 10.2 23.55 9.7 23.5 8.85 23.25 8.4 23.5 7.5 23.5 7.25 23.35 6.45 23.5 5.85 23.5 5.2 23.5 4.55 23.5 3.95 23.45 3.25 23.5 2.6 23.5 Q2.6 23.5 2.6 23.5 2.6 23.5 2.6 23.5 2.4 23.5 2.35 23.5 2.3 23.5 2.25 23.45 2.25 23.4 2.25 23.2 2.25 23.2 2.25 23.2 2.25 23.2 2.25 23.2 2.25 23.15 2.25 23.15 L2.25 17.7 3.05 17.5 2.25 16.75 2.25 16.1 2.25 15.45 2.25 14.45 2.65 14.15 2.25 13.9 2.25 10.65 2.65 10.45 2.25 9.9 2.25 9.0 2.25 8.35 2.25 7.7 2.75 7.2 2.25 6.85 2.25 2.6 Q2.25 2.55 2.25 2.55 2.25 2.4 2.25 2.35 2.3 2.25 2.35 2.25 2.4 2.2 2.55 2.2 2.55 2.2 2.6 2.2 2.6 2.2 2.6 2.2 2.6 2.2 2.6 2.2 L2.6 2.2" fill="#000000" fill-rule="evenodd" stroke="none"/>
    </g>
    <g id="shape1" transform="matrix(1.0, 0.0, 0.0, 1.0, 0.0, 0.0)">
      <path d="M17.9 19.75 L17.65 13.5 17.65 7.55 18.4 7.3 Q18.5 7.25 18.55 7.25 18.65 7.2 18.7 7.15 18.75 7.1 18.85 7.1 18.9 7.05 18.95 7.0 18.95 6.95 19.0 6.9 19.05 6.85 19.05 6.8 19.1 6.75 19.1 6.7 19.1 6.65 19.1 6.6 19.1 6.55 19.1 6.5 19.1 6.5 19.1 6.45 19.05 6.4 19.05 6.4 19.05 6.35 19.0 6.35 19.0 6.3 18.95 6.3 18.95 6.25 18.9 6.25 18.85 6.25 18.85 6.2 18.8 6.2 18.75 6.2 18.4 6.1 16.95 6.1 15.4 6.15 15.05 6.2 15.0 6.2 14.95 6.2 14.9 6.25 14.85 6.25 14.8 6.25 14.75 6.3 14.7 6.3 14.65 6.3 14.6 6.35 14.6 6.35 14.55 6.4 14.55 6.4 14.5 6.45 14.5 6.45 14.45 6.5 14.45 6.5 14.45 6.55 14.45 6.55 14.4 6.6 14.4 6.65 14.4 6.65 14.4 6.7 14.45 6.75 14.45 6.75 14.45 6.8 14.45 6.85 14.5 6.85 14.5 6.9 14.5 6.95 14.55 6.95 14.6 7.0 14.6 7.05 14.65 7.1 14.65 7.1 14.7 7.1 14.75 7.15 14.75 7.15 14.8 7.2 14.85 7.2 14.9 7.25 14.95 7.25 14.95 7.25 15.0 7.3 15.05 7.3 15.1 7.3 15.15 7.3 15.2 7.3 15.25 7.3 15.3 7.3 15.35 7.35 15.4 7.35 15.4 7.35 15.45 7.4 15.5 7.4 15.5 7.4 15.55 7.45 15.6 7.45 15.6 7.5 15.65 7.5 15.65 7.55 15.65 7.55 15.7 7.6 15.7 7.65 15.7 7.65 15.7 7.7 15.75 7.75 15.75 7.8 15.8 7.9 15.8 8.0 15.8 8.1 15.85 8.2 15.85 8.35 15.85 8.5 15.85 8.7 15.9 8.85 15.9 9.05 15.9 9.25 15.9 9.5 15.9 9.7 15.9 9.95 L16.0 13.55 15.4 12.5 Q15.25 12.25 15.1 11.95 14.95 11.7 14.75 11.45 14.6 11.15 14.45 10.9 14.25 10.65 14.05 10.4 13.9 10.2 13.7 9.95 13.5 9.7 13.3 9.45 13.1 9.25 12.85 9.0 12.65 8.8 12.45 8.55 12.1 8.25 11.8 7.95 11.5 7.65 11.2 7.45 10.9 7.2 10.65 7.0 10.35 6.8 10.1 6.65 9.85 6.45 9.65 6.35 9.4 6.2 9.2 6.15 8.95 6.05 8.75 6.0 8.6 6.0 8.4 6.0 8.35 6.0 8.3 6.0 8.2 6.0 8.1 6.0 8.0 6.05 7.9 6.05 7.75 6.1 7.6 6.15 7.55 6.15 7.5 6.2 7.45 6.2 7.4 6.25 7.4 6.3 7.35 6.3 7.3 6.35 7.3 6.4 7.25 6.45 7.25 6.55 7.2 6.6 7.2 6.65 7.2 6.75 7.2 6.85 7.2 6.9 7.2 7.0 7.2 7.05 7.2 7.1 7.2 7.15 7.2 7.15 7.2 7.2 7.2 7.25 7.2 7.25 7.2 7.3 7.2 7.35 7.2 7.35 7.2 7.4 7.2 7.4 7.2 7.4 7.2 7.45 7.25 7.55 7.25 7.65 7.3 7.75 7.35 7.85 7.35 7.9 7.4 8.0 7.45 8.05 7.5 8.1 7.55 8.15 7.6 8.2 7.65 8.25 7.65 8.25 7.7 8.3 7.75 8.3 7.8 8.35 7.9 8.35 L7.9 8.35 Q7.95 8.35 8.1 8.4 8.15 8.4 8.15 8.45 8.2 8.5 8.25 8.55 8.25 8.6 8.3 8.7 8.3 8.8 8.35 8.95 8.35 9.05 8.35 9.2 8.4 9.4 8.4 9.55 8.4 9.75 8.4 10.0 8.4 10.2 8.45 10.45 L8.5 11.6 Q8.5 12.55 8.5 14.05 8.5 15.55 8.5 16.1 8.55 17.9 8.45 18.25 8.45 18.3 8.4 18.4 8.35 18.45 8.35 18.5 8.3 18.55 8.25 18.6 8.2 18.65 8.15 18.7 8.1 18.75 8.05 18.8 7.95 18.8 7.9 18.85 7.85 18.85 7.75 18.9 7.65 18.9 7.6 18.95 7.5 18.95 7.45 19.0 7.35 19.0 7.3 19.0 7.25 19.05 7.15 19.05 7.1 19.1 7.05 19.1 7.05 19.15 7.0 19.2 6.95 19.2 6.95 19.25 6.9 19.3 6.9 19.35 6.9 19.4 6.9 19.4 6.9 19.45 6.9 19.5 6.9 19.5 6.9 19.55 6.95 19.6 6.95 19.65 6.95 19.65 7.0 19.7 7.05 19.7 7.05 19.75 7.1 19.75 7.15 19.8 7.2 19.8 7.2 19.8 7.25 19.85 7.3 19.85 7.8 19.9 9.25 19.9 10.7 19.95 11.2 19.85 11.25 19.85 11.3 19.85 11.35 19.8 11.4 19.8 11.4 19.8 11.45 19.75 11.5 19.75 11.5 19.7 11.55 19.7 11.55 19.65 11.6 19.6 11.6 19.6 11.6 19.55 11.6 19.5 11.6 19.45 11.6 19.4 11.6 19.35 11.6 19.35 11.6 19.3 11.6 19.25 11.55 19.25 11.55 19.2 11.5 19.15 11.5 19.15 11.45 19.1 11.4 19.1 11.35 19.05 11.3 19.0 11.25 19.0 11.2 19.0 11.15 18.95 11.05 18.95 11.0 18.95 11.0 18.95 10.95 18.95 10.95 18.9 10.9 18.9 10.85 18.9 10.85 18.9 10.8 18.85 10.8 18.85 10.75 18.85 10.7 18.8 10.7 18.8 10.65 18.8 10.65 18.75 10.6 18.75 10.55 18.7 10.5 18.7 10.5 18.65 10.45 18.65 10.45 18.6 10.4 18.6 10.4 18.55 10.35 18.55 10.35 18.5 10.3 18.5 10.3 18.45 10.3 18.45 10.25 18.4 10.25 18.4 10.25 18.35 10.2 18.35 10.2 18.3 10.15 18.25 10.15 18.15 10.15 18.1 10.1 17.95 10.1 17.85 10.05 17.7 10.05 17.5 10.05 17.35 10.0 17.15 10.0 16.9 10.0 16.7 10.0 16.45 9.95 16.2 9.95 15.9 9.95 15.6 9.95 15.3 9.95 15.15 9.95 14.6 9.95 14.1 10.0 13.8 L10.1 9.4 11.4 10.55 Q11.5 10.65 11.6 10.75 11.7 10.85 11.8 10.95 11.9 11.05 12.0 11.2 12.1 11.3 12.2 11.45 12.3 11.6 12.45 11.75 12.55 11.9 12.65 12.05 12.75 12.2 12.9 12.4 13.0 12.55 13.1 12.75 L15.0 15.75 Q15.05 15.85 15.15 15.95 15.2 16.05 15.25 16.2 15.35 16.3 15.4 16.4 15.45 16.5 15.5 16.6 15.55 16.7 15.6 16.8 15.65 16.9 15.7 17.0 15.75 17.15 15.75 17.25 15.8 17.35 15.8 17.45 15.85 17.55 15.85 17.65 15.9 17.75 15.95 17.9 15.95 18.0 16.0 18.15 16.0 18.25 16.05 18.4 16.05 18.55 16.1 18.7 16.1 18.8 16.1 18.95 16.1 19.1 16.15 19.3 16.15 19.45 16.15 19.6 16.15 19.65 16.15 19.7 16.2 19.75 16.2 19.8 16.25 19.8 16.3 19.85 16.3 19.9 16.35 19.9 16.45 19.95 16.5 19.95 16.55 20.0 16.6 20.0 16.7 20.0 16.8 20.0 16.85 20.0 16.95 20.0 17.05 20.0 17.15 20.0 17.25 20.0 17.3 20.0 17.4 20.0 17.45 20.0 17.55 19.95 17.6 19.95 17.65 19.95 17.7 19.9 17.75 19.9 17.8 19.85 17.8 19.85 17.85 19.8 17.85 19.8 17.9 19.75 L17.9 19.75" fill="#ffffff" fill-rule="evenodd" stroke="none"/>
    </g>
  </defs>
</svg>
