<?xml version="1.0" encoding="UTF-8" standalone="no"?>
<svg xmlns:ffdec="https://www.free-decompiler.com/flash" xmlns:xlink="http://www.w3.org/1999/xlink" ffdec:objectType="frame" height="26.55px" width="70.8px" xmlns="http://www.w3.org/2000/svg">
  <g transform="matrix(1.0, 0.0, 0.0, 1.0, 0.2, 0.4)">
    <use ffdec:characterId="3" height="26.0" transform="matrix(1.0, 0.0, 0.0, 1.0, 0.0, 0.0)" width="26.0" xlink:href="#shape0"/>
    <use ffdec:characterId="10" height="26.0" transform="matrix(1.0, 0.0, 0.0, 1.0, 0.0, 0.0)" width="26.0" xlink:href="#shape1"/>
    <use ffdec:characterId="10" height="26.0" transform="matrix(1.0, 0.0, 0.0, 1.0, 0.0, 0.0)" width="26.0" xlink:href="#shape1"/>
    <use ffdec:characterId="11" height="26.0" transform="matrix(1.0, 0.0, 0.0, 1.0, 0.0, 0.0)" width="26.0" xlink:href="#shape2"/>
    <use ffdec:characterId="11" height="26.0" transform="matrix(1.0, 0.0, 0.0, 1.0, 0.0, 0.0)" width="26.0" xlink:href="#shape2"/>
  </g>
  <defs>
    <g id="shape0" transform="matrix(1.0, 0.0, 0.0, 1.0, 0.0, 0.0)">
      <path d="M23.5 2.45 Q23.5 2.5 23.5 2.5 23.5 2.55 23.5 2.55 23.5 2.55 23.5 2.55 23.5 2.6 23.5 2.6 L23.5 4.05 22.85 3.8 23.5 4.5 23.5 5.25 22.95 5.25 23.5 6.45 23.5 7.1 23.3 8.15 23.5 7.8 23.5 9.55 22.85 9.85 23.15 10.05 23.75 9.8 23.75 8.05 23.5 8.4 23.75 7.35 23.75 6.7 23.2 5.5 23.75 5.5 23.75 4.75 23.1 4.05 23.75 4.3 23.75 2.85 Q23.75 2.8 23.75 2.8 23.75 2.7 23.75 2.65 23.75 2.55 23.7 2.55 23.7 2.5 23.65 2.5 23.6 2.5 23.5 2.45 L23.5 2.45 M23.5 10.4 L23.5 22.5 23.5 23.15 Q23.5 23.4 23.5 23.4 23.45 23.5 23.4 23.5 23.35 23.5 23.15 23.5 L22.5 23.5 21.85 23.5 20.95 23.5 21.0 23.75 22.1 23.75 22.75 23.75 23.4 23.75 Q23.65 23.75 23.7 23.75 23.75 23.7 23.75 23.4 L23.75 22.75 23.75 10.55 23.5 10.4 M20.7 22.75 L19.95 23.5 16.1 23.5 15.25 23.05 15.2 23.5 14.15 23.5 13.9 23.5 12.75 23.4 12.05 23.5 10.85 23.5 10.7 23.3 10.2 23.55 9.7 23.5 8.85 23.25 8.4 23.5 7.5 23.5 7.25 23.35 6.45 23.5 5.85 23.5 5.2 23.5 4.55 23.5 3.95 23.45 3.25 23.5 2.85 23.5 Q2.85 23.55 2.85 23.6 2.85 23.65 2.85 23.7 2.8 23.7 2.8 23.75 2.85 23.75 2.85 23.75 2.85 23.75 2.85 23.75 L3.5 23.75 4.2 23.7 4.8 23.75 5.45 23.75 6.05 23.75 6.7 23.75 7.45 23.6 7.75 23.75 8.65 23.75 9.1 23.5 9.9 23.75 10.45 23.8 10.95 23.55 11.1 23.75 12.3 23.75 13.0 23.65 14.1 23.75 14.4 23.75 15.4 23.75 15.5 23.3 16.35 23.75 20.15 23.75 20.75 23.2 20.7 22.75" fill="#ffffff" fill-rule="evenodd" stroke="none"/>
      <path d="M2.6 2.2 L5.95 2.2 6.2 2.65 6.5 2.4 7.75 2.2 13.5 2.2 13.7 2.7 14.15 2.2 15.45 2.2 16.65 2.2 17.15 2.65 17.35 2.2 18.0 2.2 23.15 2.2 Q23.35 2.2 23.4 2.25 23.45 2.25 23.5 2.35 23.5 2.4 23.5 2.55 23.5 2.55 23.5 2.6 L23.5 4.05 22.85 3.8 23.5 4.5 23.5 5.25 22.95 5.25 23.5 6.45 23.5 7.1 23.3 8.15 23.5 7.8 23.5 9.55 22.85 9.85 23.5 10.3 23.5 22.5 23.5 23.15 Q23.5 23.4 23.5 23.4 23.45 23.5 23.4 23.5 23.35 23.5 23.15 23.5 L22.5 23.5 21.85 23.5 20.75 23.5 20.7 22.75 19.95 23.5 16.1 23.5 15.25 23.05 15.2 23.5 14.15 23.5 13.9 23.5 12.75 23.4 12.05 23.5 10.85 23.5 10.7 23.3 10.2 23.55 9.7 23.5 8.85 23.25 8.4 23.5 7.5 23.5 7.25 23.35 6.45 23.5 5.85 23.5 5.2 23.5 4.55 23.5 3.95 23.45 3.25 23.5 2.6 23.5 Q2.6 23.5 2.6 23.5 2.6 23.5 2.6 23.5 2.4 23.5 2.35 23.5 2.3 23.5 2.25 23.45 2.25 23.4 2.25 23.2 2.25 23.2 2.25 23.2 2.25 23.2 2.25 23.2 2.25 23.15 2.25 23.15 L2.25 17.7 3.05 17.5 2.25 16.75 2.25 16.1 2.25 15.45 2.25 14.45 2.65 14.15 2.25 13.9 2.25 10.65 2.65 10.45 2.25 9.9 2.25 9.0 2.25 8.35 2.25 7.7 2.75 7.2 2.25 6.85 2.25 2.6 Q2.25 2.55 2.25 2.55 2.25 2.4 2.25 2.35 2.3 2.25 2.35 2.25 2.4 2.2 2.55 2.2 2.55 2.2 2.6 2.2 2.6 2.2 2.6 2.2 2.6 2.2 2.6 2.2 L2.6 2.2" fill="#000000" fill-rule="evenodd" stroke="none"/>
    </g>
    <g id="shape1" transform="matrix(1.0, 0.0, 0.0, 1.0, 0.0, 0.0)">
      <path d="M12.85 18.8 Q12.85 18.9 12.85 18.95 12.85 19.0 12.9 19.05 12.9 19.1 12.95 19.15 12.95 19.2 13.0 19.25 13.05 19.3 13.05 19.3 13.1 19.35 13.15 19.35 13.2 19.35 13.3 19.4 13.35 19.4 13.4 19.4 13.5 19.4 13.7 19.35 13.8 19.35 13.9 19.3 14.0 19.25 14.1 19.2 14.15 19.2 14.2 19.15 14.3 19.1 14.35 19.0 14.4 18.95 14.45 18.9 14.5 18.85 14.5 18.75 14.55 18.65 14.55 18.6 14.55 18.5 14.55 18.4 14.55 18.35 14.55 18.35 14.55 18.3 14.55 18.25 14.55 18.2 14.5 18.15 14.5 18.1 14.5 18.05 14.45 18.0 14.45 17.95 14.4 17.9 14.35 17.85 14.35 17.8 14.3 17.75 14.25 17.7 14.2 17.65 14.1 17.55 14.05 17.45 13.95 17.35 13.9 17.3 13.8 17.2 13.7 17.15 13.65 17.05 13.55 17.0 13.45 16.95 13.4 16.9 13.3 16.85 13.2 16.85 13.1 16.8 13.0 16.8 12.95 16.75 12.85 16.75 L11.9 16.65 11.85 14.2 Q11.85 13.9 11.85 13.65 11.85 13.4 11.85 13.2 11.85 13.0 11.85 12.8 11.8 12.6 11.8 12.5 11.8 12.35 11.8 12.2 11.75 12.1 11.75 12.05 11.7 11.95 11.7 11.95 11.65 11.9 11.65 11.9 11.6 11.9 11.55 11.9 11.5 11.95 11.45 12.0 11.4 12.05 11.35 12.1 11.25 12.2 11.2 12.3 11.15 12.4 11.05 12.5 10.95 12.6 10.9 12.75 10.8 12.9 10.7 13.1 10.65 13.25 10.55 13.45 10.45 13.65 10.35 13.8 10.25 14.0 10.2 14.15 10.1 14.35 10.05 14.5 10.0 14.65 9.95 14.75 9.9 14.9 9.85 15.0 9.8 15.15 9.8 15.25 9.75 15.35 9.75 15.45 9.7 15.55 9.7 15.6 9.65 16.65 9.65 16.65 9.6 16.65 9.5 16.7 9.45 16.75 9.35 16.75 9.3 16.8 9.2 16.8 9.15 16.85 9.05 16.85 8.95 16.9 8.9 16.95 8.8 16.95 8.7 17.0 8.65 17.05 8.55 17.05 8.45 17.1 8.35 17.15 L7.0 17.75 7.4 17.15 Q8.45 15.6 10.1 12.65 10.9 11.25 11.35 10.4 11.75 9.6 11.75 9.4 11.75 9.35 11.7 9.3 11.7 9.25 11.6 9.2 11.55 9.2 11.45 9.15 11.35 9.1 11.2 9.1 11.1 9.05 10.95 9.05 10.75 9.0 10.6 9.0 10.4 9.0 10.15 8.95 9.95 8.95 9.7 8.95 9.45 8.95 9.2 8.95 9.0 8.95 8.8 8.95 8.6 9.0 8.4 9.0 8.25 9.0 8.1 9.0 7.95 9.0 7.85 9.05 7.75 9.05 7.7 9.05 7.6 9.1 7.55 9.1 7.5 9.15 7.5 9.15 7.45 9.2 7.45 9.2 7.4 9.25 7.4 9.3 7.35 9.35 7.35 9.35 7.35 9.4 7.35 9.45 7.35 9.5 7.35 9.55 7.35 9.55 7.4 9.6 7.4 9.65 7.45 9.7 7.5 9.75 7.5 9.75 7.55 9.8 7.65 9.85 7.7 9.9 7.75 9.95 7.8 10.0 7.9 10.0 8.0 10.05 8.1 10.1 8.2 10.15 8.25 10.2 8.35 10.25 8.4 10.3 8.5 10.35 8.55 10.45 8.6 10.5 8.65 10.55 8.7 10.65 8.75 10.7 8.75 10.8 8.8 10.9 8.8 10.95 8.8 11.05 8.85 11.15 8.85 11.25 8.85 11.35 8.8 11.5 8.8 11.6 8.75 11.8 8.65 11.95 8.6 12.15 8.5 12.35 8.4 12.6 8.3 12.85 8.15 13.1 8.0 13.4 7.85 13.7 7.65 14.0 7.5 14.35 7.3 14.65 7.05 15.05 6.85 15.45 6.65 15.75 6.45 16.1 6.3 16.4 6.15 16.75 6.0 17.0 5.9 17.3 5.75 17.5 5.65 17.75 5.6 18.0 5.5 18.2 5.45 18.35 5.4 18.55 5.35 18.7 5.35 18.85 5.35 18.95 5.35 19.0 5.35 19.05 5.35 19.05 5.35 19.1 5.4 19.15 5.4 19.15 5.45 19.2 5.45 19.2 5.5 19.25 5.55 19.25 5.55 19.3 5.6 19.3 5.65 19.3 5.7 19.3 5.8 19.3 5.85 19.3 5.9 19.3 6.0 19.3 6.05 19.3 6.15 19.25 6.25 19.25 6.35 19.2 6.45 19.2 6.6 19.15 6.7 19.1 6.85 19.05 7.0 19.0 7.15 18.95 7.3 18.9 7.45 18.8 7.6 18.75 7.8 18.65 9.25 18.0 9.7 17.85 9.7 18.15 9.65 18.65 9.65 19.2 9.65 19.35 9.65 19.45 9.65 19.55 9.65 19.6 9.65 19.7 9.6 19.75 9.6 19.85 9.6 19.9 9.6 20.0 9.6 20.05 9.55 20.1 9.55 20.15 9.55 20.2 9.55 20.25 9.5 20.3 9.5 20.35 9.45 20.4 9.45 20.45 9.4 20.45 9.35 20.5 9.35 20.55 9.3 20.55 9.25 20.6 9.2 20.65 9.15 20.7 9.1 20.7 9.05 20.75 8.95 20.8 8.9 20.85 8.85 20.85 8.75 20.9 8.65 20.95 8.6 21.0 8.5 21.05 8.45 21.1 8.35 21.1 8.3 21.15 8.25 21.2 8.15 21.25 8.1 21.3 8.05 21.35 8.05 21.35 8.0 21.4 7.95 21.45 7.95 21.5 7.9 21.55 7.9 21.6 7.9 21.65 7.9 21.7 7.9 21.75 7.95 21.8 8.0 21.85 8.1 21.9 8.15 21.95 8.3 22.0 8.45 22.05 8.6 22.1 8.8 22.1 9.0 22.15 9.25 22.15 9.5 22.2 9.8 22.2 10.1 22.2 10.4 22.2 10.8 22.2 11.15 22.2 11.45 22.2 11.8 22.2 12.05 22.2 12.3 22.15 12.55 22.15 12.75 22.1 12.95 22.1 13.1 22.05 13.25 22.0 13.4 21.95 13.5 21.9 13.55 21.85 13.6 21.8 13.65 21.75 13.65 21.7 13.65 21.65 13.65 21.6 13.65 21.55 13.6 21.5 13.6 21.45 13.55 21.4 13.55 21.4 13.5 21.35 13.45 21.3 13.4 21.25 13.35 21.2 13.25 21.15 13.2 21.1 13.15 21.05 13.05 21.05 13.0 21.0 12.9 20.95 12.85 20.95 12.75 20.9 12.7 20.85 12.6 20.8 12.55 20.8 12.5 20.75 12.4 20.7 12.35 20.65 12.3 20.6 12.25 20.6 12.2 20.55 12.2 20.5 12.15 20.5 12.1 20.45 12.1 20.4 12.05 20.35 12.05 20.35 12.0 20.3 12.0 20.25 12.0 20.2 11.95 20.15 11.95 20.1 11.95 20.05 11.9 19.95 11.9 19.9 11.9 19.85 11.9 19.8 11.9 19.7 11.85 19.65 11.85 19.55 11.85 19.5 L11.9 18.2 Q11.9 17.95 11.85 17.85 11.9 17.8 11.95 17.8 12.0 17.8 12.05 17.75 12.1 17.75 12.15 17.75 12.2 17.7 12.25 17.7 12.3 17.7 12.35 17.7 12.35 17.65 12.4 17.65 12.45 17.65 12.45 17.65 12.5 17.65 12.55 17.65 12.6 17.65 12.65 17.65 12.7 17.65 12.7 17.7 12.75 17.7 12.8 17.7 12.8 17.75 12.85 17.8 12.85 17.8 12.9 17.85 12.9 17.9 12.9 17.95 12.9 17.95 12.95 18.05 12.95 18.1 12.95 18.15 L12.85 18.8" fill="#ffffff" fill-rule="evenodd" stroke="none"/>
      <path d="M17.65 3.8 Q17.6 3.8 17.6 3.8 17.55 3.8 17.5 3.85 17.45 3.9 17.4 3.9 17.4 3.95 17.35 3.95 17.35 4.0 17.35 4.05 17.3 4.1 17.3 4.15 17.3 4.2 17.3 4.3 17.3 4.35 17.25 4.45 17.25 4.5 17.25 4.6 17.25 4.7 17.25 4.8 17.25 4.9 17.25 5.0 17.1 5.0 17.0 5.05 16.9 5.05 16.75 5.1 16.65 5.1 16.55 5.15 16.4 5.2 16.3 5.25 16.2 5.3 16.1 5.35 16.0 5.45 15.9 5.5 15.8 5.6 15.7 5.65 15.6 5.75 15.5 5.85 15.45 5.9 15.4 5.95 15.35 6.05 15.3 6.1 15.25 6.15 15.2 6.2 15.15 6.3 15.15 6.35 15.1 6.4 15.1 6.45 15.05 6.55 15.05 6.6 15.0 6.65 15.0 6.7 15.0 6.8 15.0 6.85 L15.0 7.1 Q15.0 7.2 15.0 7.3 15.0 7.4 15.0 7.5 15.0 7.6 15.05 7.7 15.05 7.75 15.05 7.85 15.1 7.95 15.1 8.0 15.15 8.1 15.15 8.15 15.2 8.25 15.2 8.3 15.25 8.4 15.3 8.45 15.35 8.5 15.35 8.6 15.4 8.65 15.45 8.7 15.5 8.8 15.55 8.85 15.65 8.9 15.7 9.0 15.75 9.05 15.85 9.1 15.9 9.15 16.0 9.25 16.1 9.3 16.2 9.35 16.3 9.4 16.4 9.45 L17.25 10.0 17.25 12.0 Q17.25 13.35 17.25 14.05 17.2 14.05 17.15 14.05 17.1 14.05 17.05 14.0 17.0 14.0 16.95 14.0 16.95 14.0 16.9 13.95 16.85 13.95 16.8 13.95 16.75 13.9 16.7 13.9 16.65 13.85 16.6 13.85 16.55 13.8 16.55 13.75 16.5 13.7 16.45 13.65 16.4 13.65 16.35 13.6 16.3 13.55 16.25 13.55 16.25 13.5 16.2 13.45 16.2 13.45 16.2 13.4 16.15 13.4 16.15 13.4 16.15 13.35 16.15 13.35 16.15 13.3 16.15 13.25 16.2 13.2 16.25 13.1 16.3 13.05 16.35 12.95 16.4 12.85 16.4 12.8 16.45 12.75 16.5 12.7 16.5 12.65 16.5 12.6 16.55 12.55 16.55 12.5 16.55 12.5 16.55 12.45 16.55 12.45 16.55 12.4 16.55 12.4 16.55 12.35 16.5 12.35 16.5 12.3 16.5 12.3 16.5 12.25 16.45 12.2 16.45 12.2 16.4 12.15 16.4 12.1 16.35 12.1 16.35 12.05 16.3 12.0 16.25 11.95 16.2 11.9 16.2 11.85 16.15 11.85 16.1 11.8 16.05 11.8 16.05 11.75 16.0 11.75 15.95 11.7 15.9 11.7 15.85 11.65 15.8 11.65 15.75 11.65 15.7 11.65 15.65 11.6 15.6 11.6 15.55 11.6 15.45 11.6 15.4 11.6 15.3 11.65 15.25 11.65 15.15 11.65 15.1 11.7 15.05 11.75 15.0 11.8 14.9 11.85 14.85 11.9 14.8 11.95 14.75 12.0 14.7 12.05 14.65 12.15 14.6 12.2 14.55 12.3 14.55 12.35 14.55 12.35 14.5 12.4 14.5 12.45 14.5 12.45 14.5 12.5 14.5 12.55 14.45 12.55 14.45 12.6 14.45 12.6 14.45 12.65 14.45 12.7 14.45 12.7 14.45 12.75 14.45 12.8 14.45 12.8 14.45 12.9 14.45 12.95 14.45 13.05 14.5 13.1 14.5 13.2 14.55 13.25 14.55 13.35 14.6 13.4 14.65 13.5 14.7 13.6 14.75 13.65 14.8 13.75 14.85 13.85 14.95 13.9 15.0 14.0 15.1 14.1 15.2 14.2 15.25 14.25 15.35 14.35 15.45 14.4 15.55 14.45 15.65 14.55 15.75 14.6 15.85 14.65 15.95 14.7 16.1 14.7 16.2 14.75 16.3 14.8 16.45 14.8 16.6 14.8 16.7 14.85 16.85 14.85 L17.3 14.85 Q17.25 15.3 17.25 15.55 17.25 15.6 17.25 15.65 17.25 15.75 17.3 15.8 17.3 15.85 17.3 15.85 17.3 15.9 17.35 15.95 17.35 15.95 17.4 16.0 17.4 16.0 17.45 16.05 17.45 16.05 17.5 16.05 17.55 16.1 17.55 16.1 17.6 16.1 17.65 16.1 17.65 16.05 17.7 16.05 17.75 16.05 17.75 16.0 17.8 16.0 17.8 15.95 17.8 15.9 17.85 15.9 17.85 15.85 17.85 15.8 17.85 15.75 17.9 15.7 17.9 15.65 17.9 15.55 17.9 15.5 17.9 15.45 17.9 15.35 17.9 15.3 17.9 15.25 17.9 15.2 17.9 15.2 17.9 15.15 17.9 15.1 17.9 15.05 17.9 15.0 17.9 15.0 17.9 14.95 17.9 14.95 17.9 14.9 17.9 14.9 17.95 14.9 18.0 14.9 18.05 14.9 18.1 14.9 18.15 14.9 18.15 14.85 18.2 14.85 18.25 14.85 18.25 14.85 18.3 14.85 18.35 14.8 18.35 14.8 18.35 14.8 18.4 14.75 18.4 14.75 18.4 14.75 18.45 14.7 18.8 14.5 19.3 14.15 19.7 13.9 19.75 13.85 19.85 13.8 19.9 13.75 19.95 13.65 20.05 13.6 20.1 13.55 20.15 13.45 20.2 13.4 20.25 13.3 20.3 13.2 20.35 13.1 20.4 13.0 20.45 12.95 20.5 12.8 20.55 12.7 20.55 12.6 20.55 12.55 20.6 12.5 20.6 12.45 20.6 12.4 20.6 12.35 20.6 12.3 20.65 12.25 20.65 12.2 20.65 12.15 20.65 12.1 20.65 12.05 20.65 11.95 20.65 11.9 20.65 11.85 20.65 11.8 20.65 11.75 20.65 11.55 20.6 11.35 20.6 11.15 20.55 11.0 20.5 10.8 20.4 10.6 20.3 10.4 20.2 10.25 20.05 10.05 19.9 9.85 19.8 9.7 19.6 9.5 19.45 9.3 19.2 9.15 19.0 8.95 18.8 8.8 L17.9 8.15 17.9 5.9 Q18.05 6.0 18.15 6.05 18.25 6.15 18.4 6.25 18.5 6.3 18.6 6.4 18.7 6.5 18.8 6.6 18.9 6.7 19.0 6.8 19.05 6.85 19.15 7.0 19.25 7.1 19.3 7.2 19.35 7.3 19.45 7.4 19.45 7.45 19.5 7.5 19.5 7.55 19.55 7.55 19.6 7.6 19.6 7.6 19.65 7.65 19.65 7.65 19.7 7.65 19.7 7.65 19.75 7.65 19.8 7.65 19.8 7.65 19.85 7.65 19.85 7.6 19.9 7.6 19.9 7.6 19.9 7.55 19.95 7.55 19.95 7.5 19.95 7.5 19.95 7.45 19.95 7.45 20.0 7.4 20.0 7.4 20.0 7.35 20.0 7.35 20.0 7.3 20.0 7.25 20.0 7.25 20.0 7.2 20.0 7.15 20.0 6.85 19.7 5.75 19.65 5.6 19.6 5.5 19.6 5.4 19.55 5.3 19.5 5.2 19.45 5.1 19.4 5.05 19.35 4.95 19.35 4.9 19.3 4.85 19.25 4.8 19.2 4.75 19.15 4.7 19.15 4.7 19.1 4.65 19.05 4.65 19.0 4.65 18.95 4.65 18.9 4.65 18.9 4.65 18.85 4.65 18.85 4.7 18.8 4.7 18.8 4.7 18.75 4.75 18.75 4.75 18.75 4.8 18.7 4.85 18.7 4.9 18.7 4.95 18.7 4.95 18.7 5.05 18.7 5.1 18.7 5.15 18.7 5.2 18.7 5.25 18.7 5.25 18.65 5.3 18.65 5.3 18.65 5.35 18.6 5.35 18.6 5.35 18.6 5.35 18.55 5.35 18.55 5.35 18.5 5.3 18.45 5.3 18.45 5.25 18.4 5.25 18.4 5.2 18.35 5.2 18.35 5.2 18.3 5.15 18.25 5.15 18.25 5.15 18.2 5.1 18.15 5.1 18.1 5.1 18.1 5.05 18.05 5.05 18.0 5.05 18.0 5.05 17.95 5.0 17.9 5.0 L17.9 4.85 Q17.9 4.7 17.9 4.6 17.9 4.5 17.9 4.4 17.9 4.3 17.85 4.2 17.85 4.1 17.85 4.05 17.8 4.0 17.8 3.95 17.8 3.9 17.75 3.85 17.75 3.8 17.7 3.8 17.7 3.8 17.65 3.8 L17.65 3.8 M17.3 7.9 L16.9 7.7 Q16.85 7.65 16.8 7.65 16.7 7.6 16.65 7.55 16.6 7.5 16.6 7.45 16.55 7.4 16.5 7.35 16.5 7.3 16.45 7.25 16.45 7.15 16.4 7.1 16.4 7.0 16.4 6.95 16.4 6.85 16.4 6.75 16.4 6.75 16.4 6.7 16.4 6.7 16.4 6.65 16.4 6.65 16.4 6.6 16.45 6.55 16.45 6.55 16.45 6.5 16.5 6.45 16.5 6.45 16.5 6.4 16.55 6.35 16.55 6.3 16.6 6.3 16.65 6.25 16.65 6.2 16.7 6.15 16.75 6.15 16.75 6.1 16.8 6.05 16.85 6.05 16.85 6.0 16.9 6.0 16.95 5.95 17.0 5.95 17.05 5.9 17.05 5.9 17.1 5.9 17.15 5.9 17.2 5.9 17.25 5.9 L17.3 5.9 Q17.25 6.5 17.25 6.8 17.25 6.95 17.25 7.35 17.25 7.7 17.3 7.9 L17.3 7.9 M19.3 12.15 Q19.3 12.2 19.3 12.25 19.3 12.25 19.3 12.3 19.3 12.35 19.3 12.4 19.3 12.4 19.25 12.45 19.25 12.5 19.25 12.55 19.25 12.55 19.25 12.6 19.25 12.65 19.25 12.65 19.2 12.7 19.2 12.75 19.15 12.85 19.15 12.95 19.1 13.0 19.05 13.1 19.0 13.15 18.95 13.25 18.9 13.3 18.85 13.4 18.75 13.45 18.7 13.5 18.65 13.55 18.55 13.65 18.5 13.7 18.4 13.75 18.35 13.8 18.25 13.85 L17.9 14.0 Q17.9 12.85 17.9 12.2 L17.9 10.35 18.4 10.7 Q18.5 10.75 18.6 10.85 18.7 10.9 18.8 11.0 18.85 11.1 18.95 11.15 19.0 11.25 19.05 11.35 19.1 11.45 19.15 11.55 19.2 11.65 19.25 11.75 19.25 11.85 19.3 11.95 19.3 12.05 19.3 12.15 L19.3 12.15" fill="#ffffff" fill-rule="evenodd" stroke="none"/>
    </g>
  </defs>
</svg>
