<?xml version="1.0" encoding="UTF-8" standalone="no"?>
<svg xmlns:ffdec="https://www.free-decompiler.com/flash" xmlns:xlink="http://www.w3.org/1999/xlink" ffdec:objectType="frame" height="26.55px" width="70.8px" xmlns="http://www.w3.org/2000/svg">
  <g transform="matrix(1.0, 0.0, 0.0, 1.0, 0.2, 0.4)">
    <use ffdec:characterId="3" height="26.0" transform="matrix(1.0, 0.0, 0.0, 1.0, 0.0, 0.0)" width="26.0" xlink:href="#shape0"/>
    <use ffdec:characterId="67" height="26.0" transform="matrix(1.0, 0.0, 0.0, 1.0, 0.0, 0.0)" width="26.0" xlink:href="#shape1"/>
    <use ffdec:characterId="67" height="26.0" transform="matrix(1.0, 0.0, 0.0, 1.0, 0.0, 0.0)" width="26.0" xlink:href="#shape1"/>
    <use ffdec:characterId="68" height="26.0" transform="matrix(1.0, 0.0, 0.0, 1.0, 0.0, 0.0)" width="26.0" xlink:href="#shape2"/>
    <use ffdec:characterId="68" height="26.0" transform="matrix(1.0, 0.0, 0.0, 1.0, 0.0, 0.0)" width="26.0" xlink:href="#shape2"/>
  </g>
  <defs>
    <g id="shape0" transform="matrix(1.0, 0.0, 0.0, 1.0, 0.0, 0.0)">
      <path d="M23.5 2.45 Q23.5 2.5 23.5 2.5 23.5 2.55 23.5 2.55 23.5 2.55 23.5 2.55 23.5 2.6 23.5 2.6 L23.5 4.05 22.85 3.8 23.5 4.5 23.5 5.25 22.95 5.25 23.5 6.45 23.5 7.1 23.3 8.15 23.5 7.8 23.5 9.55 22.85 9.85 23.15 10.05 23.75 9.8 23.75 8.05 23.5 8.4 23.75 7.35 23.75 6.7 23.2 5.5 23.75 5.5 23.75 4.75 23.1 4.05 23.75 4.3 23.75 2.85 Q23.75 2.8 23.75 2.8 23.75 2.7 23.75 2.65 23.75 2.55 23.7 2.55 23.7 2.5 23.65 2.5 23.6 2.5 23.5 2.45 L23.5 2.45 M23.5 10.4 L23.5 22.5 23.5 23.15 Q23.5 23.4 23.5 23.4 23.45 23.5 23.4 23.5 23.35 23.5 23.15 23.5 L22.5 23.5 21.85 23.5 20.95 23.5 21.0 23.75 22.1 23.75 22.75 23.75 23.4 23.75 Q23.65 23.75 23.7 23.75 23.75 23.7 23.75 23.4 L23.75 22.75 23.75 10.55 23.5 10.4 M20.7 22.75 L19.95 23.5 16.1 23.5 15.25 23.05 15.2 23.5 14.15 23.5 13.9 23.5 12.75 23.4 12.05 23.5 10.85 23.5 10.7 23.3 10.2 23.55 9.7 23.5 8.85 23.25 8.4 23.5 7.5 23.5 7.25 23.35 6.45 23.5 5.85 23.5 5.2 23.5 4.55 23.5 3.95 23.45 3.25 23.5 2.85 23.5 Q2.85 23.55 2.85 23.6 2.85 23.65 2.85 23.7 2.8 23.7 2.8 23.75 2.85 23.75 2.85 23.75 2.85 23.75 2.85 23.75 L3.5 23.75 4.2 23.7 4.8 23.75 5.45 23.75 6.05 23.75 6.7 23.75 7.45 23.6 7.75 23.75 8.65 23.75 9.1 23.5 9.9 23.75 10.45 23.8 10.95 23.55 11.1 23.75 12.3 23.75 13.0 23.65 14.1 23.75 14.4 23.75 15.4 23.75 15.5 23.3 16.35 23.75 20.15 23.75 20.75 23.2 20.7 22.75" fill="#ffffff" fill-rule="evenodd" stroke="none"/>
      <path d="M2.6 2.2 L5.95 2.2 6.2 2.65 6.5 2.4 7.75 2.2 13.5 2.2 13.7 2.7 14.15 2.2 15.45 2.2 16.65 2.2 17.15 2.65 17.35 2.2 18.0 2.2 23.15 2.2 Q23.35 2.2 23.4 2.25 23.45 2.25 23.5 2.35 23.5 2.4 23.5 2.55 23.5 2.55 23.5 2.6 L23.5 4.05 22.85 3.8 23.5 4.5 23.5 5.25 22.95 5.25 23.5 6.45 23.5 7.1 23.3 8.15 23.5 7.8 23.5 9.55 22.85 9.85 23.5 10.3 23.5 22.5 23.5 23.15 Q23.5 23.4 23.5 23.4 23.45 23.5 23.4 23.5 23.35 23.5 23.15 23.5 L22.5 23.5 21.85 23.5 20.75 23.5 20.7 22.75 19.95 23.5 16.1 23.5 15.25 23.05 15.2 23.5 14.15 23.5 13.9 23.5 12.75 23.4 12.05 23.5 10.85 23.5 10.7 23.3 10.2 23.55 9.7 23.5 8.85 23.25 8.4 23.5 7.5 23.5 7.25 23.35 6.45 23.5 5.85 23.5 5.2 23.5 4.55 23.5 3.95 23.45 3.25 23.5 2.6 23.5 Q2.6 23.5 2.6 23.5 2.6 23.5 2.6 23.5 2.4 23.5 2.35 23.5 2.3 23.5 2.25 23.45 2.25 23.4 2.25 23.2 2.25 23.2 2.25 23.2 2.25 23.2 2.25 23.2 2.25 23.15 2.25 23.15 L2.25 17.7 3.05 17.5 2.25 16.75 2.25 16.1 2.25 15.45 2.25 14.45 2.65 14.15 2.25 13.9 2.25 10.65 2.65 10.45 2.25 9.9 2.25 9.0 2.25 8.35 2.25 7.7 2.75 7.2 2.25 6.85 2.25 2.6 Q2.25 2.55 2.25 2.55 2.25 2.4 2.25 2.35 2.3 2.25 2.35 2.25 2.4 2.2 2.55 2.2 2.55 2.2 2.6 2.2 2.6 2.2 2.6 2.2 2.6 2.2 2.6 2.2 L2.6 2.2" fill="#000000" fill-rule="evenodd" stroke="none"/>
    </g>
    <g id="shape1" transform="matrix(1.0, 0.0, 0.0, 1.0, 0.0, 0.0)">
      <path d="M18.95 18.7 Q18.95 18.65 19.0 18.6 19.0 18.55 19.05 18.5 19.05 18.45 19.05 18.4 19.1 18.35 19.1 18.3 19.1 18.25 19.15 18.15 19.15 18.1 19.15 18.05 19.15 18.0 19.15 17.95 19.15 17.9 19.2 17.85 19.2 17.65 19.15 17.5 19.15 17.35 19.1 17.25 19.05 17.1 19.0 17.0 18.95 16.9 18.9 16.8 18.8 16.7 18.75 16.65 18.65 16.6 18.55 16.55 18.45 16.5 18.35 16.5 18.2 16.45 18.05 16.45 L18.0 16.45 Q17.95 16.45 17.9 16.45 17.85 16.45 17.8 16.45 17.75 16.45 17.7 16.5 17.65 16.5 17.6 16.5 17.55 16.55 17.5 16.55 17.45 16.55 17.45 16.6 17.4 16.65 17.35 16.65 17.3 16.7 17.3 16.75 17.25 16.8 17.25 16.8 17.2 16.85 17.15 16.9 17.15 16.95 17.1 17.0 17.1 17.0 17.05 17.05 17.05 17.1 17.05 17.2 17.05 17.25 17.0 17.3 17.0 17.35 17.0 17.4 17.0 17.45 17.0 17.55 17.0 17.6 17.0 17.7 17.0 17.75 17.05 17.8 17.05 17.85 17.05 17.9 17.1 17.95 17.1 18.0 17.1 18.05 17.15 18.1 17.2 18.15 17.2 18.2 17.25 18.25 17.3 18.3 17.3 18.3 17.35 18.35 17.4 18.4 17.45 18.45 17.5 18.45 17.5 18.5 17.55 18.55 17.55 18.6 17.6 18.65 17.6 18.7 17.65 18.75 17.65 18.75 17.7 18.8 17.7 18.85 17.7 18.9 17.7 18.95 17.7 19.0 17.7 19.1 17.7 19.15 17.7 19.2 17.7 19.25 17.7 19.3 17.65 19.35 17.65 19.4 17.65 19.45 17.6 19.5 17.6 19.5 17.55 19.55 17.5 19.6 17.5 19.65 17.45 19.7 17.4 19.7 17.35 19.75 17.3 19.8 17.25 19.85 17.2 19.85 17.15 19.9 17.1 19.9 17.05 19.95 17.05 19.95 17.0 20.0 17.0 20.05 16.95 20.05 16.95 20.05 16.9 20.1 16.9 20.1 16.9 20.15 16.9 20.15 16.85 20.15 16.85 20.2 16.85 20.25 16.85 20.3 16.9 20.3 16.9 20.35 16.95 20.35 16.95 20.4 17.0 20.4 17.05 20.4 17.1 20.4 17.15 20.4 17.2 20.4 17.2 20.4 17.25 20.4 17.3 20.35 17.35 20.35 17.4 20.3 17.45 20.3 17.5 20.25 17.55 20.2 17.6 20.15 17.7 20.1 17.75 20.05 17.85 20.0 17.9 19.9 18.0 19.85 18.05 19.75 18.15 19.65 18.25 19.6 18.3 19.5 18.4 19.4 18.45 19.35 18.55 19.25 18.6 19.2 18.65 19.15 18.7 19.05 18.75 19.0 18.8 18.95 18.85 18.9 18.9 18.85 18.9 18.8 18.95 18.75 18.95 18.7 L18.95 18.7" fill="#ffffff" fill-rule="evenodd" stroke="none"/>
      <path d="M8.85 10.35 Q9.2 10.0 9.55 9.7 9.9 9.35 10.25 9.05 10.55 8.75 10.85 8.45 11.15 8.15 11.4 7.85 11.7 7.55 11.95 7.3 12.2 7.0 12.4 6.75 12.6 6.5 12.8 6.25 13.0 6.0 13.2 5.75 13.15 5.75 13.1 5.7 13.05 5.7 13.0 5.7 13.0 5.65 12.95 5.65 12.9 5.65 12.85 5.65 12.8 5.6 12.75 5.6 12.75 5.6 12.7 5.6 12.65 5.6 12.6 5.6 12.55 5.6 12.55 5.6 12.5 5.6 12.45 5.6 12.4 5.6 12.35 5.6 12.35 5.6 12.3 5.6 12.25 5.6 12.2 5.6 12.15 5.6 12.15 5.6 12.1 5.6 12.05 5.6 12.05 5.65 12.0 5.65 11.95 5.65 11.95 5.65 11.85 5.65 11.75 5.7 11.65 5.75 11.5 5.8 11.4 5.9 11.25 6.0 11.1 6.1 10.9 6.25 10.7 6.4 10.5 6.6 10.3 6.8 10.1 7.05 9.85 7.25 9.6 7.55 9.35 7.8 9.1 8.1 L6.8 10.65 6.85 10.75 11.3 15.55 Q11.35 15.55 11.4 15.55 11.45 15.6 11.5 15.6 11.55 15.6 11.6 15.6 11.65 15.6 11.7 15.6 11.7 15.6 11.75 15.6 11.85 15.6 12.0 15.6 12.1 15.6 12.25 15.55 12.35 15.55 12.45 15.5 12.55 15.45 12.65 15.4 12.75 15.35 12.85 15.3 12.95 15.2 13.05 15.15 13.15 15.05 13.2 14.95 13.3 14.85 13.4 14.75 13.25 14.55 13.1 14.35 12.95 14.15 12.75 13.9 12.55 13.65 12.3 13.4 12.05 13.15 11.75 12.85 11.5 12.6 11.15 12.3 10.85 12.0 10.45 11.7 10.1 11.35 9.7 11.0 9.3 10.7 8.85 10.35 L8.85 10.35" fill="#ffffff" fill-rule="evenodd" stroke="none"/>
    </g>
  </defs>
</svg>
