<?xml version="1.0" encoding="UTF-8" standalone="no"?>
<svg xmlns:ffdec="https://www.free-decompiler.com/flash" xmlns:xlink="http://www.w3.org/1999/xlink" ffdec:objectType="frame" height="26.55px" width="70.8px" xmlns="http://www.w3.org/2000/svg">
  <g transform="matrix(1.0, 0.0, 0.0, 1.0, 0.2, 0.4)">
    <use ffdec:characterId="3" height="26.0" transform="matrix(1.0, 0.0, 0.0, 1.0, 0.0, 0.0)" width="26.0" xlink:href="#shape0"/>
    <use ffdec:characterId="71" height="26.0" transform="matrix(1.0, 0.0, 0.0, 1.0, 0.0, 0.0)" width="26.0" xlink:href="#shape1"/>
    <use ffdec:characterId="71" height="26.0" transform="matrix(1.0, 0.0, 0.0, 1.0, 0.0, 0.0)" width="26.0" xlink:href="#shape1"/>
    <use ffdec:characterId="72" height="26.0" transform="matrix(1.0, 0.0, 0.0, 1.0, 0.0, 0.0)" width="26.0" xlink:href="#shape2"/>
    <use ffdec:characterId="72" height="26.0" transform="matrix(1.0, 0.0, 0.0, 1.0, 0.0, 0.0)" width="26.0" xlink:href="#shape2"/>
  </g>
  <defs>
    <g id="shape0" transform="matrix(1.0, 0.0, 0.0, 1.0, 0.0, 0.0)">
      <path d="M23.5 2.45 Q23.5 2.5 23.5 2.5 23.5 2.55 23.5 2.55 23.5 2.55 23.5 2.55 23.5 2.6 23.5 2.6 L23.5 4.05 22.85 3.8 23.5 4.5 23.5 5.25 22.95 5.25 23.5 6.45 23.5 7.1 23.3 8.15 23.5 7.8 23.5 9.55 22.85 9.85 23.15 10.05 23.75 9.8 23.75 8.05 23.5 8.4 23.75 7.35 23.75 6.7 23.2 5.5 23.75 5.5 23.75 4.75 23.1 4.05 23.75 4.3 23.75 2.85 Q23.75 2.8 23.75 2.8 23.75 2.7 23.75 2.65 23.75 2.55 23.7 2.55 23.7 2.5 23.65 2.5 23.6 2.5 23.5 2.45 L23.5 2.45 M23.5 10.4 L23.5 22.5 23.5 23.15 Q23.5 23.4 23.5 23.4 23.45 23.5 23.4 23.5 23.35 23.5 23.15 23.5 L22.5 23.5 21.85 23.5 20.95 23.5 21.0 23.75 22.1 23.75 22.75 23.75 23.4 23.75 Q23.65 23.75 23.7 23.75 23.75 23.7 23.75 23.4 L23.75 22.75 23.75 10.55 23.5 10.4 M20.7 22.75 L19.95 23.5 16.1 23.5 15.25 23.05 15.2 23.5 14.15 23.5 13.9 23.5 12.75 23.4 12.05 23.5 10.85 23.5 10.7 23.3 10.2 23.55 9.7 23.5 8.85 23.25 8.4 23.5 7.5 23.5 7.25 23.35 6.45 23.5 5.85 23.5 5.2 23.5 4.55 23.5 3.95 23.45 3.25 23.5 2.85 23.5 Q2.85 23.55 2.85 23.6 2.85 23.65 2.85 23.7 2.8 23.7 2.8 23.75 2.85 23.75 2.85 23.75 2.85 23.75 2.85 23.75 L3.5 23.75 4.2 23.7 4.8 23.75 5.45 23.75 6.05 23.75 6.7 23.75 7.45 23.6 7.75 23.75 8.65 23.75 9.1 23.5 9.9 23.75 10.45 23.8 10.95 23.55 11.1 23.75 12.3 23.75 13.0 23.65 14.1 23.75 14.4 23.75 15.4 23.75 15.5 23.3 16.35 23.75 20.15 23.75 20.75 23.2 20.7 22.75" fill="#ffffff" fill-rule="evenodd" stroke="none"/>
      <path d="M2.6 2.2 L5.95 2.2 6.2 2.65 6.5 2.4 7.75 2.2 13.5 2.2 13.7 2.7 14.15 2.2 15.45 2.2 16.65 2.2 17.15 2.65 17.35 2.2 18.0 2.2 23.15 2.2 Q23.35 2.2 23.4 2.25 23.45 2.25 23.5 2.35 23.5 2.4 23.5 2.55 23.5 2.55 23.5 2.6 L23.5 4.05 22.85 3.8 23.5 4.5 23.5 5.25 22.95 5.25 23.5 6.45 23.5 7.1 23.3 8.15 23.5 7.8 23.5 9.55 22.85 9.85 23.5 10.3 23.5 22.5 23.5 23.15 Q23.5 23.4 23.5 23.4 23.45 23.5 23.4 23.5 23.35 23.5 23.15 23.5 L22.5 23.5 21.85 23.5 20.75 23.5 20.7 22.75 19.95 23.5 16.1 23.5 15.25 23.05 15.2 23.5 14.15 23.5 13.9 23.5 12.75 23.4 12.05 23.5 10.85 23.5 10.7 23.3 10.2 23.55 9.7 23.5 8.85 23.25 8.4 23.5 7.5 23.5 7.25 23.35 6.45 23.5 5.85 23.5 5.2 23.5 4.55 23.5 3.95 23.45 3.25 23.5 2.6 23.5 Q2.6 23.5 2.6 23.5 2.6 23.5 2.6 23.5 2.4 23.5 2.35 23.5 2.3 23.5 2.25 23.45 2.25 23.4 2.25 23.2 2.25 23.2 2.25 23.2 2.25 23.2 2.25 23.2 2.25 23.15 2.25 23.15 L2.25 17.7 3.05 17.5 2.25 16.75 2.25 16.1 2.25 15.45 2.25 14.45 2.65 14.15 2.25 13.9 2.25 10.65 2.65 10.45 2.25 9.9 2.25 9.0 2.25 8.35 2.25 7.7 2.75 7.2 2.25 6.85 2.25 2.6 Q2.25 2.55 2.25 2.55 2.25 2.4 2.25 2.35 2.3 2.25 2.35 2.25 2.4 2.2 2.55 2.2 2.55 2.2 2.6 2.2 2.6 2.2 2.6 2.2 2.6 2.2 2.6 2.2 L2.6 2.2" fill="#000000" fill-rule="evenodd" stroke="none"/>
    </g>
    <g id="shape1" transform="matrix(1.0, 0.0, 0.0, 1.0, 0.0, 0.0)">
      <path d="M16.9 18.8 L19.6 5.05 Q19.55 5.0 19.55 4.95 19.5 4.9 19.45 4.85 19.4 4.8 19.4 4.75 19.35 4.75 19.3 4.7 19.25 4.7 19.2 4.65 19.2 4.65 19.15 4.6 19.1 4.6 19.05 4.6 19.0 4.6 18.95 4.6 18.9 4.6 18.85 4.6 18.8 4.6 18.75 4.6 18.7 4.65 18.65 4.65 18.6 4.65 18.55 4.7 18.5 4.7 18.45 4.75 18.4 4.75 18.35 4.8 18.3 4.8 18.25 4.85 18.2 4.9 18.15 4.95 L18.1 5.0 15.45 18.75 Q15.5 18.8 15.55 18.85 15.6 18.95 15.6 18.95 15.65 19.0 15.7 19.05 15.75 19.1 15.8 19.15 15.85 19.15 15.9 19.2 15.95 19.2 16.0 19.25 16.05 19.25 16.1 19.25 16.15 19.25 16.15 19.25 16.2 19.25 16.25 19.25 16.3 19.25 16.35 19.2 16.4 19.2 16.45 19.2 16.5 19.15 16.55 19.15 16.6 19.1 16.65 19.05 16.7 19.05 16.7 19.0 16.75 18.95 16.8 18.9 16.85 18.85 16.9 18.8 L16.9 18.8" fill="#ffffff" fill-rule="evenodd" stroke="none"/>
      <path d="M10.65 16.05 L10.55 14.95 Q10.55 14.9 10.55 14.85 10.55 14.8 10.55 14.75 10.55 14.7 10.55 14.65 10.6 14.6 10.6 14.6 10.6 14.55 10.6 14.5 10.7 14.3 11.95 13.15 12.1 13.0 12.25 12.9 12.4 12.75 12.55 12.65 12.65 12.5 12.8 12.4 12.9 12.3 13.0 12.2 13.15 12.1 13.2 12.0 13.3 11.9 13.4 11.8 13.5 11.7 13.55 11.6 13.6 11.55 13.65 11.45 13.7 11.4 13.75 11.3 13.8 11.25 13.85 11.15 13.9 11.1 13.9 11.0 13.95 10.9 14.0 10.8 14.0 10.7 14.05 10.6 14.05 10.5 14.05 10.4 14.1 10.25 14.1 10.15 14.1 10.05 14.1 9.9 14.1 9.8 14.1 9.65 14.05 9.55 14.05 9.4 14.0 9.3 14.0 9.2 13.95 9.05 13.9 8.95 13.85 8.85 13.8 8.75 13.75 8.6 13.65 8.5 13.6 8.4 13.5 8.3 13.4 8.2 13.35 8.1 13.2 7.95 13.05 7.85 12.95 7.7 12.75 7.6 12.6 7.5 12.45 7.45 12.3 7.35 12.1 7.3 11.95 7.2 11.75 7.15 11.6 7.1 11.4 7.05 11.2 7.05 10.95 7.0 10.75 7.0 10.55 7.0 10.25 7.0 10.0 7.05 9.75 7.05 9.5 7.1 9.25 7.15 9.0 7.2 8.75 7.3 8.55 7.35 8.35 7.45 8.15 7.55 7.95 7.65 7.75 7.8 7.6 7.95 7.45 8.1 7.25 8.25 7.1 8.4 7.0 8.5 6.95 8.6 6.85 8.7 6.8 8.8 6.75 8.9 6.7 8.95 6.65 9.05 6.6 9.15 6.55 9.25 6.5 9.35 6.5 9.4 6.45 9.5 6.45 9.6 6.45 9.65 6.4 9.75 6.4 9.85 6.4 9.95 6.4 10.0 6.4 10.1 6.45 10.15 6.45 10.25 6.5 10.3 6.5 10.4 6.55 10.45 6.55 10.55 6.6 10.6 6.65 10.7 6.65 10.75 6.7 10.85 6.75 10.9 6.8 10.95 6.85 11.05 6.9 11.1 6.95 11.15 7.05 11.25 7.1 11.3 7.15 11.35 7.2 11.35 7.25 11.4 7.35 11.45 7.4 11.45 7.45 11.5 7.5 11.5 7.55 11.55 7.6 11.55 7.65 11.55 7.75 11.55 7.8 11.55 7.85 11.55 7.9 11.55 7.95 11.55 8.05 11.55 8.1 11.5 8.15 11.5 8.2 11.5 8.25 11.45 8.3 11.4 8.4 11.4 8.45 11.35 8.5 11.3 8.55 11.25 8.65 11.2 8.7 11.15 8.75 11.1 8.8 11.05 8.9 11.0 8.95 10.95 9.0 10.9 9.05 10.85 9.1 10.8 9.15 10.7 9.15 10.7 9.2 10.65 9.2 10.6 9.25 10.55 9.25 10.5 9.3 10.45 9.3 10.4 9.3 10.35 9.3 10.3 9.3 10.25 9.3 10.2 9.3 10.15 9.3 10.1 9.25 10.1 9.25 10.05 9.25 10.0 9.2 9.95 9.2 9.9 9.15 9.85 9.15 9.8 9.1 9.75 9.1 9.65 9.05 9.6 9.0 9.55 9.0 9.5 8.95 9.45 8.9 9.4 8.85 9.35 8.85 9.3 8.8 9.25 8.8 9.2 8.75 9.2 8.75 9.15 8.7 9.1 8.7 9.05 8.7 9.05 8.65 9.0 8.65 9.0 8.65 8.95 8.65 8.95 8.65 8.9 8.65 8.85 9.05 8.5 9.1 8.45 9.15 8.4 9.2 8.4 9.25 8.35 9.3 8.35 9.35 8.3 9.4 8.3 9.45 8.25 9.5 8.25 9.6 8.2 9.65 8.2 9.7 8.2 9.75 8.2 9.8 8.2 9.85 8.2 9.9 8.2 9.95 8.2 10.0 8.2 10.1 8.2 10.15 8.2 10.2 8.2 10.25 8.2 10.3 8.25 10.35 8.25 10.4 8.25 10.5 8.25 10.55 8.3 10.6 8.3 10.65 8.35 10.7 8.35 10.75 8.4 10.8 8.4 10.9 8.45 11.0 8.55 11.1 8.65 11.2 8.7 11.25 8.8 11.35 8.9 11.4 9.0 11.45 9.1 11.55 9.2 11.55 9.35 11.6 9.45 11.65 9.55 11.65 9.7 11.7 9.85 11.7 10.0 11.7 10.1 11.7 10.2 11.7 10.3 11.7 10.35 11.65 10.45 11.65 10.55 11.6 10.65 11.6 10.75 11.55 10.85 11.5 10.95 11.45 11.1 11.45 11.2 11.35 11.3 11.3 11.45 11.25 11.55 11.2 11.65 11.1 11.8 11.05 11.95 10.95 12.05 10.9 12.15 10.85 12.25 10.75 12.35 10.7 12.45 10.65 12.55 10.55 12.65 10.5 12.7 10.45 12.8 10.35 12.85 10.3 12.9 10.25 12.95 10.15 13.0 10.1 13.05 10.05 13.1 10.0 13.15 9.95 13.2 9.85 13.25 9.8 13.3 9.75 13.35 9.65 13.45 9.6 13.5 9.55 13.6 9.45 13.7 9.4 13.75 9.3 13.85 9.25 13.95 9.15 14.1 9.1 14.2 9.0 14.3 8.95 14.45 8.9 14.6 8.8 14.7 8.75 14.8 8.7 14.9 8.65 15.05 8.6 15.15 8.55 15.25 8.5 15.35 8.45 15.45 8.45 15.5 8.4 15.6 8.4 15.7 8.35 15.75 8.35 15.85 8.35 15.9 8.35 16.0 8.35 16.05 8.35 16.15 8.35 16.2 8.35 16.25 8.4 16.3 8.4 16.4 8.4 16.45 8.45 16.5 8.45 16.55 8.5 16.6 8.5 16.65 8.55 16.7 8.55 16.8 8.6 16.85 8.65 16.9 8.7 16.95 8.75 17.0 8.8 17.05 8.85 17.05 8.9 17.1 8.95 17.15 9.0 17.15 9.05 17.2 9.15 17.2 9.2 17.25 9.25 17.25 9.3 17.3 9.4 17.3 9.45 17.3 9.5 17.3 9.6 17.3 9.65 17.3 9.75 17.3 9.9 17.3 10.0 17.25 10.1 17.25 10.15 17.2 10.25 17.15 10.35 17.1 10.4 17.0 10.45 16.9 10.5 16.8 10.55 16.7 10.6 16.6 10.6 16.45 10.65 16.35 10.65 16.2 10.65 16.05 L10.65 16.05 M8.6 19.0 Q8.55 19.05 8.5 19.1 8.45 19.2 8.4 19.25 8.35 19.3 8.3 19.35 8.25 19.4 8.2 19.5 8.2 19.55 8.15 19.6 8.15 19.65 8.15 19.75 8.1 19.8 8.1 19.85 8.1 19.9 8.1 19.95 8.1 20.0 8.1 20.05 8.1 20.15 8.15 20.2 8.15 20.25 8.15 20.3 8.2 20.4 8.2 20.45 8.25 20.5 8.3 20.55 8.35 20.65 8.4 20.7 8.45 20.75 8.5 20.8 8.55 20.85 8.6 20.9 8.65 20.95 8.75 21.0 8.8 21.05 8.85 21.1 8.9 21.15 9.0 21.2 9.05 21.25 9.1 21.3 9.15 21.3 9.25 21.35 9.3 21.35 9.35 21.35 9.4 21.4 9.5 21.4 9.55 21.4 9.6 21.4 9.65 21.4 9.75 21.4 9.8 21.4 9.85 21.4 9.95 21.35 10.0 21.35 10.05 21.3 10.1 21.3 10.2 21.25 10.25 21.25 10.3 21.2 10.35 21.15 10.4 21.1 10.45 21.05 10.5 21.05 10.55 20.95 10.6 20.9 10.65 20.85 10.7 20.8 10.75 20.75 10.8 20.7 10.8 20.65 10.85 20.6 10.85 20.5 10.9 20.45 10.9 20.4 10.95 20.35 10.95 20.25 10.95 20.2 10.95 20.15 11.0 20.1 11.0 20.0 11.0 19.95 11.0 19.9 10.95 19.8 10.95 19.75 10.95 19.7 10.9 19.65 10.9 19.55 10.85 19.5 10.85 19.45 10.8 19.4 10.75 19.3 10.7 19.25 10.65 19.2 10.6 19.15 10.55 19.05 10.5 19.0 10.45 18.95 10.4 18.9 10.3 18.85 10.25 18.8 10.2 18.75 10.15 18.7 10.1 18.7 10.0 18.65 9.95 18.6 9.9 18.6 9.85 18.55 9.8 18.55 9.7 18.55 9.65 18.55 9.6 18.5 9.55 18.5 9.5 18.5 9.45 18.5 9.35 18.55 9.3 18.55 9.25 18.55 9.2 18.6 9.1 18.6 9.05 18.65 9.0 18.7 8.95 18.7 8.9 18.75 8.8 18.8 8.75 18.85 8.7 18.9 8.65 18.95 8.6 19.0 L8.6 19.0" fill="#ffffff" fill-rule="evenodd" stroke="none"/>
    </g>
  </defs>
</svg>
