<?xml version="1.0" encoding="UTF-8" standalone="no"?>
<svg xmlns:ffdec="https://www.free-decompiler.com/flash" xmlns:xlink="http://www.w3.org/1999/xlink" ffdec:objectType="frame" height="26.55px" width="70.8px" xmlns="http://www.w3.org/2000/svg">
  <g transform="matrix(1.0, 0.0, 0.0, 1.0, 0.2, 0.4)">
    <use ffdec:characterId="27" height="26.0" transform="matrix(1.0, 0.0, 0.0, 1.0, 0.0, 0.0)" width="41.75" xlink:href="#shape0"/>
    <use ffdec:characterId="77" height="26.0" transform="matrix(1.0, 0.0, 0.0, 1.0, 0.0, 0.0)" width="41.75" xlink:href="#shape1"/>
    <use ffdec:characterId="77" height="26.0" transform="matrix(1.0, 0.0, 0.0, 1.0, 0.0, 0.0)" width="41.75" xlink:href="#shape1"/>
  </g>
  <defs>
    <g id="shape0" transform="matrix(1.0, 0.0, 0.0, 1.0, 0.0, 0.0)">
      <path d="M41.4 2.45 Q41.4 2.5 41.4 2.5 41.4 2.55 41.4 2.55 41.4 2.55 41.4 2.6 L41.4 4.05 40.75 3.8 41.4 4.5 41.4 5.25 40.85 5.25 41.4 6.45 41.4 7.1 41.2 8.15 41.4 7.8 41.4 9.55 40.75 9.85 41.1 10.05 41.65 9.8 41.65 8.05 41.45 8.4 41.65 7.35 41.65 6.7 41.1 5.5 41.65 5.5 41.65 4.75 41.0 4.05 41.65 4.3 41.65 2.85 Q41.65 2.85 41.65 2.8 41.65 2.7 41.65 2.65 41.65 2.55 41.6 2.55 41.6 2.5 41.55 2.5 41.5 2.5 41.4 2.45 L41.4 2.45 M41.4 10.4 L41.4 22.5 41.4 23.15 Q41.4 23.4 41.4 23.4 41.4 23.5 41.3 23.5 41.3 23.5 41.05 23.5 L40.4 23.5 39.75 23.5 38.9 23.5 38.9 23.75 40.0 23.75 40.65 23.75 41.3 23.75 Q41.5 23.75 41.55 23.75 41.6 23.75 41.65 23.65 41.65 23.65 41.65 23.4 L41.65 22.75 41.65 10.55 41.4 10.4 M38.6 22.75 L37.85 23.5 25.15 23.5 24.3 23.05 24.25 23.5 23.2 23.5 22.9 23.5 21.8 23.4 21.1 23.5 19.9 23.5 19.75 23.3 19.25 23.55 7.45 23.5 6.65 23.25 6.2 23.5 5.3 23.5 5.05 23.35 4.25 23.5 3.65 23.5 3.0 23.5 2.35 23.5 1.75 23.45 1.05 23.5 0.65 23.5 Q0.65 23.65 0.6 23.75 0.65 23.75 0.65 23.75 0.65 23.75 0.65 23.75 L1.3 23.75 2.0 23.7 2.6 23.75 3.2 23.75 3.85 23.75 4.5 23.75 5.25 23.6 5.55 23.75 6.45 23.75 18.15 23.75 18.95 23.75 19.5 23.8 20.0 23.55 20.1 23.75 21.35 23.75 22.05 23.65 23.15 23.75 23.45 23.75 24.45 23.75 24.55 23.3 25.35 23.75 38.1 23.75 38.65 23.2 38.6 22.75" fill="#ffffff" fill-rule="evenodd" stroke="none"/>
      <path d="M0.4 2.2 L3.75 2.2 4.0 2.65 4.3 2.4 5.55 2.2 13.95 2.2 14.1 2.7 14.55 2.2 15.85 2.2 28.95 2.2 29.45 2.65 29.65 2.2 30.3 2.2 41.05 2.2 Q41.25 2.2 41.3 2.25 41.4 2.25 41.4 2.35 41.4 2.4 41.4 2.55 41.4 2.55 41.4 2.6 L41.4 4.05 40.75 3.8 41.4 4.5 41.4 5.25 40.85 5.25 41.4 6.45 41.4 7.1 41.2 8.15 41.4 7.8 41.4 9.55 40.75 9.85 41.4 10.3 41.4 22.5 41.4 23.15 Q41.4 23.4 41.4 23.4 41.4 23.5 41.3 23.5 41.3 23.5 41.05 23.5 L40.4 23.5 39.75 23.5 38.65 23.5 38.6 22.75 37.85 23.5 25.15 23.5 24.3 23.05 24.25 23.5 23.2 23.5 22.9 23.5 21.8 23.4 21.1 23.5 19.9 23.5 19.75 23.3 19.25 23.55 7.45 23.5 6.65 23.25 6.2 23.5 5.3 23.5 5.05 23.35 4.25 23.5 3.65 23.5 3.0 23.5 2.35 23.5 1.75 23.45 1.05 23.5 0.4 23.5 Q0.4 23.5 0.4 23.5 0.4 23.5 0.4 23.5 0.2 23.5 0.15 23.5 0.1 23.5 0.05 23.45 0.05 23.4 0.05 23.2 0.05 23.2 0.05 23.2 0.05 23.2 0.05 23.2 0.05 23.15 0.05 23.15 L0.05 17.7 0.85 17.5 0.05 16.75 0.05 16.1 0.05 15.45 0.05 14.45 0.45 14.15 0.05 13.9 0.05 10.65 0.45 10.45 0.05 9.9 0.05 9.0 0.05 8.35 0.05 7.7 0.55 7.2 0.05 6.85 0.05 2.6 Q0.05 2.55 0.05 2.55 0.05 2.4 0.05 2.35 0.1 2.25 0.15 2.25 0.2 2.2 0.35 2.2 0.35 2.2 0.4 2.2 0.4 2.2 0.4 2.2 0.4 2.2 0.4 2.2 L0.4 2.2" fill="#000000" fill-rule="evenodd" stroke="none"/>
    </g>
    <g id="shape1" transform="matrix(1.0, 0.0, 0.0, 1.0, 0.0, 0.0)">
      <path d="M10.9 4.3 Q10.9 4.3 10.85 4.25 10.85 4.25 10.85 4.2 10.8 4.2 10.75 4.2 10.75 4.15 10.7 4.15 10.65 4.1 10.6 4.1 10.6 4.05 10.55 4.05 10.5 4.05 10.45 4.0 10.35 4.0 10.3 3.95 10.25 3.95 10.15 3.9 10.1 3.9 10.0 3.85 9.9 3.85 9.8 3.85 9.7 3.8 9.6 3.8 9.5 3.8 9.35 3.8 9.25 3.8 9.1 3.75 8.95 3.75 8.8 3.75 8.65 3.75 8.5 3.75 8.5 3.75 7.85 3.75 7.75 3.75 7.7 3.75 7.6 3.75 7.5 3.75 7.45 3.75 7.35 3.75 7.25 3.8 7.15 3.8 7.05 3.8 6.95 3.8 6.9 3.85 6.8 3.85 6.7 3.9 6.6 3.9 6.5 3.95 6.4 3.95 6.3 4.0 6.2 4.05 6.05 4.1 5.95 4.15 5.85 4.2 5.7 4.3 5.6 4.35 5.45 4.45 5.35 4.55 5.2 4.65 5.05 4.75 4.9 4.85 4.75 5.0 4.6 5.1 4.45 5.25 4.3 5.4 4.15 5.55 4.0 5.7 3.85 5.85 3.75 6.0 3.6 6.15 3.5 6.3 3.35 6.45 3.25 6.65 3.15 6.8 3.05 6.95 2.95 7.1 2.85 7.25 2.75 7.4 2.65 7.55 2.6 7.7 2.5 7.9 2.45 8.05 2.4 8.25 2.3 8.4 2.25 8.6 2.2 8.75 2.15 8.95 2.15 9.15 2.1 9.35 2.05 9.55 2.05 9.8 2.0 10.0 2.0 10.25 1.95 10.45 1.95 10.7 1.95 10.95 1.95 11.2 1.95 11.45 1.95 11.7 1.95 11.95 2.0 12.2 2.0 12.45 2.05 12.65 2.05 12.85 2.1 13.1 2.15 13.3 2.2 13.5 2.25 13.7 2.3 13.9 2.35 14.05 2.4 14.25 2.5 14.4 2.55 14.6 2.65 14.85 2.8 15.1 2.9 15.3 3.05 15.55 3.15 15.75 3.3 15.95 3.45 16.15 3.6 16.35 3.75 16.55 3.95 16.7 4.1 16.85 4.25 17.05 4.45 17.2 4.6 17.35 4.8 17.5 5.0 17.6 5.2 17.75 5.4 17.85 5.6 18.0 5.8 18.1 6.0 18.2 6.2 18.25 6.4 18.35 6.65 18.45 6.85 18.5 7.05 18.55 7.3 18.6 7.55 18.65 7.75 18.65 8.0 18.7 8.25 18.7 8.5 18.7 8.65 18.7 8.8 18.7 8.95 18.7 9.1 18.7 9.2 18.65 9.35 18.65 9.5 18.65 9.65 18.6 9.8 18.55 9.95 18.55 10.15 18.5 10.3 18.45 10.45 18.4 10.6 18.35 10.75 18.3 10.9 18.25 11.05 18.2 11.2 18.1 11.35 18.05 11.5 18.0 11.65 17.95 11.8 17.85 11.9 17.8 12.05 17.75 12.15 17.65 12.25 17.6 12.4 17.55 12.5 17.45 12.6 17.4 12.7 17.3 12.8 17.25 12.85 17.15 12.95 17.05 13.0 17.0 13.1 16.95 13.15 16.85 13.25 16.8 13.3 16.7 13.35 16.65 13.4 16.6 13.45 16.5 13.45 16.45 13.5 16.4 13.5 16.3 13.55 16.25 13.55 16.2 13.55 16.15 13.55 16.05 13.55 16.0 13.5 15.75 13.5 15.7 13.45 15.65 13.45 15.65 13.4 15.6 13.4 15.6 13.35 15.6 13.3 15.55 13.25 15.55 13.2 15.55 13.15 15.55 13.1 15.6 13.05 15.6 13.0 15.6 12.95 15.65 12.9 15.65 12.85 15.65 12.8 15.7 12.75 15.7 12.7 15.75 12.65 15.8 12.6 15.8 12.55 15.85 12.5 15.9 12.45 15.9 12.25 16.05 12.05 16.2 11.9 16.35 11.7 16.45 11.5 16.55 11.3 16.65 11.15 16.75 10.95 16.85 10.75 16.9 10.6 16.95 10.4 17.05 10.25 17.05 10.05 17.1 9.85 17.1 9.7 17.15 9.5 17.15 9.3 17.15 9.1 17.1 8.95 17.1 8.75 17.05 8.55 17.0 8.35 16.9 8.15 16.85 7.95 16.75 7.75 16.65 7.6 16.5 7.4 16.4 7.2 16.2 7.0 16.05 6.8 15.9 6.6 15.7 6.4 15.5 6.15 15.25 5.95 15.0 5.7 14.75 5.55 14.45 5.35 14.15 5.2 13.85 5.05 13.55 4.9 13.25 4.8 12.9 4.7 12.55 4.6 12.2 4.55 11.85 4.5 11.45 4.45 11.1 4.45 10.7 4.45 10.3 4.45 9.95 4.45 9.6 4.5 9.3 4.55 9.0 4.6 8.65 4.65 8.4 4.75 8.1 4.85 7.85 4.95 7.55 5.05 7.3 5.2 7.05 5.35 6.85 5.5 6.6 5.65 6.4 5.85 6.15 6.05 6.0 6.15 5.9 6.3 5.75 6.45 5.65 6.55 5.55 6.7 5.45 6.85 5.4 7.0 5.3 7.15 5.25 7.3 5.2 7.45 5.15 7.6 5.1 7.75 5.05 7.9 5.05 8.05 5.0 8.2 5.0 8.4 5.0 8.5 5.0 8.55 5.0 8.65 5.0 8.75 5.0 8.8 5.05 8.9 5.05 9.0 5.05 9.1 5.05 9.15 5.1 9.25 5.1 9.35 5.1 9.45 5.15 9.5 5.15 9.6 5.2 9.7 5.2 9.8 5.25 9.9 5.3 10.0 5.35 10.1 5.4 10.2 5.5 10.35 5.6 10.45 5.7 10.6 5.8 10.75 5.95 10.9 6.1 11.05 6.25 11.2 6.45 11.4 6.6 11.55 6.8 11.75 7.05 11.95 7.25 12.15 7.5 12.2 7.55 12.25 7.65 12.3 7.7 12.35 7.75 12.4 7.8 12.45 7.85 12.5 7.85 12.55 7.9 12.6 7.95 12.65 7.95 12.7 8.0 12.75 8.0 12.8 8.0 12.85 8.05 12.85 8.05 12.9 8.05 12.95 8.05 13.0 8.05 13.0 8.05 13.05 8.0 13.1 8.0 13.1 8.0 13.15 7.95 13.15 7.95 13.2 7.9 13.2 7.9 13.25 7.85 13.25 7.8 13.25 7.75 13.25 7.7 13.25 7.65 13.25 7.6 13.2 7.1 12.6 5.35 12.15 3.9 11.85 3.4 11.8 3.35 11.8 3.3 11.75 3.25 11.75 3.2 11.7 3.15 11.7 3.15 11.65 3.1 11.6 3.05 11.6 3.05 11.55 3.0 11.5 3.0 11.45 3.0 11.45 2.95 11.4 2.95 11.35 2.95 11.3 2.95 11.25 2.95 11.15 2.95 11.1 2.95 11.05 3.0 11.0 3.0 11.0 3.0 10.95 3.05 10.95 3.05 10.9 3.2 10.9 3.55 10.9 3.6 10.9 3.65 10.9 3.7 10.9 3.75 10.9 3.8 10.95 3.85 10.95 3.9 10.95 3.95 10.95 4.0 10.95 4.05 10.95 4.1 10.9 4.15 10.9 4.2 10.9 4.25 10.9 4.25 10.9 4.3 L10.9 4.3" fill="#ffffff" fill-rule="evenodd" stroke="none"/>
      <path d="M19.9 11.35 Q19.9 11.4 19.9 11.5 19.9 11.55 19.85 11.65 19.85 11.7 19.85 11.75 19.8 11.85 19.8 11.9 19.75 11.95 19.7 12.0 19.65 12.1 19.65 12.15 19.6 12.2 19.55 12.25 19.5 12.35 19.4 12.4 19.35 12.45 19.25 12.5 19.2 12.55 19.1 12.6 19.0 12.65 18.85 12.75 18.75 12.8 18.6 12.85 18.45 12.9 18.3 13.0 18.15 13.05 17.95 13.1 17.8 13.2 17.6 13.25 17.4 13.3 17.15 13.4 16.95 13.45 16.75 13.55 16.55 13.6 16.35 13.7 16.15 13.75 16.0 13.85 15.8 13.9 15.65 14.0 15.5 14.1 15.35 14.15 15.25 14.25 15.1 14.35 15.0 14.4 14.9 14.5 14.75 14.6 14.7 14.7 14.6 14.8 14.5 14.85 14.45 14.95 14.35 15.05 14.3 15.15 14.25 15.25 14.2 15.3 14.15 15.4 14.1 15.5 14.05 15.55 14.0 15.65 14.0 15.75 14.0 15.85 13.95 15.9 13.95 16.0 13.95 16.1 13.95 16.2 13.95 16.25 13.95 16.35 14.0 16.45 14.0 16.5 14.0 16.6 14.05 16.7 14.05 16.75 14.1 16.85 14.1 16.95 14.15 17.05 14.15 17.1 14.2 17.2 14.25 17.3 14.3 17.4 14.35 17.45 14.45 17.6 14.55 17.75 14.65 17.9 14.75 18.05 14.85 18.15 15.0 18.25 15.15 18.35 15.35 18.45 15.5 18.5 15.7 18.6 15.9 18.65 16.1 18.7 16.3 18.75 16.55 18.75 16.8 18.75 17.05 18.75 17.2 18.75 17.3 18.75 17.45 18.75 17.6 18.75 17.7 18.7 17.8 18.7 17.95 18.65 18.05 18.65 18.15 18.6 18.25 18.55 18.35 18.55 18.45 18.5 18.55 18.45 18.65 18.4 18.75 18.35 18.85 18.25 L19.7 17.65 19.75 18.3 Q19.75 18.35 19.75 18.45 19.8 18.5 19.8 18.55 19.8 18.6 19.8 18.65 19.85 18.7 19.85 18.75 19.85 18.75 19.9 18.8 19.9 18.8 19.9 18.8 19.95 18.85 19.95 18.85 19.95 18.85 20.0 18.9 20.0 18.9 20.05 18.9 20.1 18.95 20.15 18.95 20.2 18.95 20.25 18.95 20.45 18.95 22.2 18.65 22.35 18.65 22.45 18.6 22.55 18.6 22.65 18.55 22.75 18.55 22.8 18.5 22.9 18.45 22.95 18.45 23.0 18.4 23.05 18.35 23.1 18.35 23.15 18.3 23.15 18.25 23.2 18.2 23.2 18.15 23.2 18.1 23.2 18.05 23.2 18.05 23.2 18.0 23.15 18.0 23.15 17.95 23.15 17.9 23.1 17.9 23.1 17.85 23.05 17.85 23.0 17.8 23.0 17.8 22.95 17.75 22.9 17.75 22.85 17.7 22.8 17.65 22.75 17.65 22.3 17.4 22.2 17.3 22.2 17.3 22.15 17.25 22.15 17.2 22.1 17.15 22.1 17.1 22.1 17.0 22.05 16.95 22.05 16.8 22.05 16.75 22.0 16.7 22.0 16.65 22.0 16.6 22.0 16.55 22.0 16.5 21.95 16.45 21.95 16.4 21.95 16.35 21.95 16.3 21.95 16.2 21.95 16.15 21.95 16.1 21.95 16.05 21.9 16.0 21.9 15.9 21.85 14.7 21.8 13.2 21.8 12.9 21.75 12.65 21.75 12.4 21.75 12.2 21.7 11.95 21.7 11.75 21.65 11.55 21.65 11.4 21.6 11.25 21.6 11.1 21.55 10.95 21.5 10.8 21.5 10.7 21.45 10.6 21.4 10.5 21.35 10.45 21.25 10.3 21.15 10.15 21.0 10.0 20.9 9.9 20.75 9.75 20.6 9.65 20.4 9.55 20.25 9.5 20.05 9.4 19.85 9.35 19.65 9.3 19.45 9.25 19.2 9.2 19.0 9.2 18.75 9.15 18.5 9.15 18.4 9.15 18.3 9.15 18.2 9.15 18.1 9.2 18.0 9.2 17.85 9.2 17.75 9.25 17.65 9.25 17.5 9.25 17.4 9.3 17.25 9.35 17.15 9.35 17.0 9.4 16.85 9.45 16.75 9.45 16.6 9.5 16.45 9.55 16.3 9.6 16.2 9.65 16.05 9.7 15.95 9.75 15.85 9.8 15.7 9.9 15.6 9.95 15.5 10.05 15.4 10.1 15.3 10.2 15.25 10.25 15.15 10.35 15.1 10.45 15.0 10.5 14.95 10.6 14.9 10.65 14.85 10.7 14.85 10.75 14.8 10.8 14.8 10.85 14.75 10.9 14.75 10.95 14.7 11.0 14.7 11.0 14.7 11.05 14.65 11.1 14.65 11.15 14.65 11.2 14.65 11.25 14.65 11.25 14.65 11.3 14.65 11.35 14.65 11.4 14.65 11.45 14.65 11.5 14.7 11.5 14.7 11.55 14.7 11.6 14.75 11.65 14.75 11.65 14.8 11.7 14.8 11.75 14.85 11.8 14.9 11.8 14.95 11.85 15.0 11.9 15.05 11.9 15.1 11.95 15.15 11.95 15.2 12.0 15.25 12.0 15.3 12.05 15.35 12.05 15.4 12.1 15.45 12.1 15.5 12.1 15.55 12.15 15.6 12.15 15.65 12.15 15.7 12.15 15.75 12.15 15.8 12.15 15.85 12.15 L16.1 12.15 Q16.15 12.15 16.15 12.15 16.2 12.15 16.25 12.15 16.3 12.15 16.35 12.15 16.35 12.15 16.4 12.1 16.45 12.1 16.5 12.1 16.55 12.1 16.6 12.1 16.65 12.05 16.7 12.05 16.75 12.05 16.8 12.0 16.85 12.0 16.9 11.95 16.95 11.95 17.0 11.9 17.0 11.9 17.05 11.85 17.1 11.85 17.1 11.8 17.15 11.8 17.15 11.75 17.15 11.75 17.2 11.7 17.2 11.7 17.2 11.65 17.2 11.65 17.2 11.6 17.2 11.55 17.2 11.5 17.2 11.45 17.2 11.4 17.2 11.35 17.15 11.3 17.15 11.3 17.15 11.25 17.1 11.2 17.1 11.15 17.05 11.1 17.05 11.1 17.05 11.05 17.0 11.0 17.0 11.0 17.0 10.95 16.95 10.9 16.95 10.9 16.95 10.85 16.95 10.85 16.95 10.8 16.95 10.75 17.0 10.7 17.05 10.65 17.05 10.6 17.15 10.55 17.2 10.5 17.25 10.45 17.35 10.4 17.4 10.35 17.5 10.3 17.65 10.3 17.75 10.25 17.85 10.2 18.0 10.15 18.15 10.15 18.2 10.15 18.25 10.15 18.25 10.1 18.3 10.1 18.35 10.1 18.4 10.1 18.4 10.1 18.45 10.1 18.5 10.1 18.55 10.05 18.55 10.05 18.6 10.05 18.65 10.05 18.65 10.05 18.7 10.05 18.75 10.05 18.9 10.05 19.0 10.05 19.15 10.1 19.25 10.15 19.35 10.2 19.45 10.25 19.55 10.3 19.6 10.4 19.7 10.45 19.75 10.55 19.8 10.65 19.8 10.8 19.85 10.9 19.85 11.05 19.9 11.2 19.9 11.35 L19.9 11.35 M19.3 16.45 Q19.2 16.55 19.1 16.7 19.0 16.8 18.9 16.9 18.75 17.0 18.65 17.05 18.55 17.15 18.45 17.2 18.35 17.25 18.25 17.3 18.15 17.35 18.0 17.4 17.9 17.4 17.8 17.45 17.7 17.45 17.6 17.45 17.5 17.45 17.4 17.45 17.3 17.4 17.2 17.4 17.1 17.4 17.0 17.35 16.95 17.3 16.85 17.25 16.75 17.2 16.7 17.15 16.65 17.1 16.55 17.05 16.5 16.95 16.45 16.9 16.4 16.8 16.35 16.7 16.3 16.6 16.25 16.55 16.25 16.45 16.2 16.35 16.2 16.3 16.2 16.2 16.2 16.1 16.2 16.0 16.2 15.9 16.25 15.8 16.3 15.75 16.3 15.65 16.35 15.55 16.45 15.45 16.5 15.35 16.55 15.25 16.6 15.2 16.65 15.15 16.7 15.1 16.75 15.05 16.85 15.0 16.9 14.95 17.0 14.9 17.05 14.85 17.15 14.8 17.25 14.75 17.35 14.7 17.45 14.65 17.55 14.6 17.65 14.55 17.8 14.45 17.9 14.4 18.05 14.35 18.15 14.3 18.3 14.25 18.4 14.2 18.55 14.15 18.65 14.05 18.75 14.0 18.9 13.95 19.0 13.9 19.1 13.85 19.25 13.8 19.35 13.75 19.45 13.65 19.55 13.6 19.7 13.55 19.8 13.5 19.85 14.2 19.85 14.45 19.85 14.65 19.85 14.8 19.85 14.95 19.8 15.1 19.8 15.25 19.75 15.4 19.75 15.55 19.7 15.7 19.7 15.8 19.65 15.9 19.6 16.05 19.55 16.15 19.5 16.25 19.45 16.3 19.4 16.4 19.3 16.45 L19.3 16.45" fill="#ffffff" fill-rule="evenodd" stroke="none"/>
      <path d="M22.35 9.9 Q22.35 9.95 22.35 9.95 22.35 10.0 22.4 10.05 22.4 10.05 22.4 10.1 22.45 10.15 22.5 10.15 22.5 10.2 22.55 10.25 22.6 10.25 22.65 10.3 22.75 10.35 22.8 10.4 22.85 10.4 22.95 10.45 L23.55 10.8 23.55 21.75 22.95 22.05 Q22.85 22.1 22.8 22.15 22.7 22.2 22.65 22.25 22.6 22.25 22.55 22.3 22.5 22.35 22.45 22.4 22.45 22.45 22.4 22.45 22.35 22.5 22.35 22.55 22.35 22.6 22.3 22.65 22.3 22.7 22.3 22.7 22.3 22.75 22.35 22.8 22.4 22.8 22.45 22.85 22.55 22.9 22.65 22.9 22.75 22.95 22.95 22.95 23.1 23.0 23.3 23.0 23.45 23.0 23.7 23.05 23.95 23.05 24.2 23.05 24.45 23.05 24.8 23.05 25.1 23.05 25.35 23.05 25.65 23.05 25.85 23.05 26.1 23.0 26.3 23.0 26.5 23.0 26.65 22.95 26.8 22.95 26.95 22.95 27.05 22.9 27.15 22.9 27.25 22.85 27.3 22.8 27.35 22.8 27.35 22.75 27.4 22.75 27.4 22.7 27.4 22.7 27.4 22.65 27.4 22.6 27.4 22.6 27.35 22.55 27.35 22.55 27.3 22.5 27.3 22.45 27.25 22.45 27.2 22.4 27.15 22.35 27.1 22.35 27.05 22.3 27.0 22.25 26.9 22.2 26.85 22.2 26.75 22.15 26.7 22.1 26.6 22.05 26.55 22.0 26.45 21.95 26.35 21.95 26.3 21.9 26.25 21.85 26.2 21.8 26.1 21.75 26.05 21.7 26.05 21.65 26.0 21.65 25.95 21.6 25.9 21.55 25.9 21.5 25.85 21.45 25.85 21.4 25.85 21.35 25.8 21.3 25.8 21.25 25.8 21.2 25.75 21.1 25.75 21.0 25.75 20.95 25.75 20.8 25.7 20.7 25.7 20.6 25.7 20.5 25.7 20.35 25.7 20.2 25.7 20.05 25.7 19.9 25.7 19.75 L25.7 18.2 26.3 18.55 Q26.35 18.6 26.45 18.65 26.55 18.65 26.65 18.7 26.75 18.75 26.9 18.75 27.0 18.8 27.15 18.8 27.3 18.8 27.45 18.85 27.6 18.85 27.8 18.85 27.95 18.9 28.15 18.9 28.35 18.9 28.55 18.9 28.6 18.9 28.65 18.9 28.7 18.9 28.75 18.85 28.8 18.85 28.9 18.85 28.95 18.85 29.05 18.8 29.1 18.8 29.2 18.75 29.25 18.75 29.35 18.7 29.45 18.65 29.5 18.65 29.6 18.6 29.7 18.55 29.8 18.5 29.9 18.45 30.0 18.4 30.1 18.35 30.2 18.3 30.3 18.25 30.4 18.2 30.5 18.15 30.55 18.05 30.65 18.0 30.75 17.95 30.85 17.85 30.9 17.8 31.0 17.7 31.1 17.65 31.15 17.55 31.35 17.35 31.5 17.15 31.65 17.0 31.8 16.75 31.95 16.55 32.05 16.3 32.2 16.1 32.25 15.85 32.35 15.6 32.45 15.35 32.5 15.05 32.55 14.8 32.6 14.5 32.6 14.2 32.65 13.9 32.65 13.6 32.65 13.3 32.6 13.0 32.6 12.7 32.55 12.45 32.5 12.15 32.4 11.9 32.3 11.65 32.2 11.45 32.1 11.2 32.0 11.0 31.85 10.75 31.7 10.6 31.5 10.4 31.35 10.2 31.15 10.05 30.95 9.9 30.8 9.8 30.7 9.75 30.55 9.65 30.4 9.6 30.3 9.5 30.15 9.45 30.0 9.4 29.85 9.35 29.7 9.3 29.6 9.25 29.45 9.25 29.25 9.2 29.1 9.2 28.95 9.15 28.8 9.15 28.65 9.15 L28.6 9.15 Q28.45 9.15 28.25 9.15 28.1 9.2 27.95 9.2 27.8 9.2 27.7 9.25 27.55 9.25 27.45 9.3 27.3 9.3 27.2 9.35 27.1 9.35 27.0 9.4 26.9 9.45 26.8 9.5 26.75 9.55 26.65 9.6 L25.95 10.05 25.9 9.55 Q25.9 9.5 25.9 9.45 25.85 9.4 25.85 9.35 25.85 9.35 25.8 9.3 25.8 9.25 25.8 9.2 25.75 9.2 25.75 9.15 25.7 9.1 25.7 9.1 25.65 9.05 25.65 9.05 25.6 9.05 25.6 9.0 25.25 8.9 25.15 8.9 25.1 8.9 25.05 8.9 25.05 8.9 25.0 8.95 24.95 8.95 24.9 9.0 24.9 9.0 24.85 9.05 24.85 9.05 24.8 9.05 24.75 9.1 24.65 9.1 24.6 9.15 24.5 9.15 24.45 9.15 24.35 9.2 24.25 9.2 24.1 9.25 24.0 9.25 23.85 9.25 23.7 9.3 23.55 9.3 23.4 9.35 23.25 9.35 23.15 9.4 23.0 9.4 22.9 9.45 22.8 9.5 22.7 9.5 22.65 9.55 22.55 9.6 22.5 9.65 22.45 9.65 22.4 9.7 22.35 9.75 22.35 9.8 22.35 9.85 22.35 9.9 L22.35 9.9 M29.15 11.05 Q29.35 11.15 29.5 11.25 29.65 11.4 29.8 11.55 29.9 11.7 30.05 11.85 30.15 12.05 30.25 12.25 30.35 12.45 30.4 12.65 30.5 12.9 30.55 13.15 30.6 13.4 30.65 13.65 30.65 13.95 30.65 14.25 30.65 14.5 30.6 14.75 30.55 15.0 30.5 15.25 30.45 15.45 30.4 15.65 30.3 15.85 30.25 16.05 30.15 16.2 30.05 16.4 29.95 16.55 29.85 16.7 29.75 16.85 29.6 16.95 29.5 17.05 29.35 17.15 29.25 17.2 29.2 17.25 29.1 17.3 29.05 17.35 28.95 17.4 28.9 17.45 28.8 17.45 28.75 17.5 28.65 17.55 28.55 17.55 28.5 17.55 28.4 17.6 28.35 17.6 28.25 17.6 28.15 17.6 28.1 17.6 28.0 17.6 27.95 17.6 27.85 17.6 27.8 17.6 27.7 17.6 27.6 17.6 27.55 17.55 27.45 17.55 27.4 17.55 27.3 17.5 27.25 17.5 27.15 17.5 27.1 17.45 27.05 17.45 26.95 17.4 26.9 17.35 26.75 17.3 26.6 17.2 26.5 17.1 26.35 16.95 26.25 16.8 26.15 16.6 26.05 16.4 26.0 16.15 25.9 15.95 25.85 15.65 25.8 15.4 25.75 15.05 25.7 14.75 25.7 14.4 25.7 14.05 25.7 13.65 25.7 12.1 25.8 11.8 25.8 11.75 25.85 11.7 25.85 11.7 25.9 11.65 25.9 11.6 25.95 11.55 26.0 11.5 26.05 11.45 26.1 11.45 26.15 11.4 26.2 11.35 26.25 11.3 26.35 11.25 26.4 11.2 26.5 11.15 26.6 11.1 26.7 11.05 26.75 11.0 26.85 10.95 26.95 10.95 27.0 10.9 27.1 10.85 27.2 10.85 27.25 10.8 27.35 10.8 27.45 10.75 27.5 10.75 27.6 10.75 27.7 10.7 27.75 10.7 27.85 10.7 27.95 10.7 28.05 10.7 28.1 10.7 28.2 10.7 28.25 10.75 28.35 10.75 28.4 10.75 28.5 10.75 28.55 10.8 28.65 10.8 28.7 10.85 28.8 10.85 28.9 10.9 28.95 10.9 29.0 10.95 29.1 11.0 29.15 11.05 L29.15 11.05" fill="#ffffff" fill-rule="evenodd" stroke="none"/>
      <path d="M34.9 16.75 L35.0 16.1 Q35.0 16.05 35.0 16.0 35.0 15.95 35.0 15.9 35.0 15.85 34.95 15.8 34.95 15.8 34.95 15.75 34.9 15.7 34.9 15.65 34.85 15.6 34.8 15.55 34.8 15.55 34.75 15.5 34.7 15.45 34.65 15.4 34.6 15.35 34.55 15.35 34.5 15.3 34.45 15.25 34.4 15.25 34.35 15.2 34.3 15.2 34.25 15.15 34.2 15.15 34.1 15.15 34.05 15.1 34.0 15.1 33.9 15.1 33.85 15.1 33.75 15.1 33.65 15.1 33.6 15.1 33.5 15.1 33.45 15.1 33.35 15.15 33.3 15.15 33.25 15.2 33.2 15.2 33.15 15.25 33.05 15.3 33.0 15.35 32.95 15.4 32.9 15.45 32.85 15.5 32.8 15.6 32.8 15.65 32.75 15.75 32.75 15.8 32.7 15.85 32.7 15.85 32.65 15.9 32.65 15.95 32.65 16.0 32.6 16.05 32.6 16.1 32.6 16.15 32.6 16.2 32.6 16.2 32.6 16.25 32.55 16.3 32.55 16.35 32.55 16.4 32.55 16.45 32.55 16.55 32.55 16.65 32.6 16.75 32.6 16.85 32.65 16.95 32.7 17.05 32.75 17.15 32.8 17.25 32.85 17.35 32.95 17.45 33.0 17.55 33.1 17.65 33.2 17.75 33.3 17.85 33.4 17.95 33.5 18.05 33.65 18.15 33.75 18.25 33.9 18.3 34.0 18.4 34.15 18.45 34.3 18.5 34.45 18.6 34.6 18.65 34.75 18.7 34.9 18.7 35.05 18.75 35.2 18.75 35.35 18.8 35.55 18.8 35.7 18.8 35.85 18.8 36.0 18.8 36.2 18.8 36.35 18.8 36.5 18.75 36.7 18.75 36.85 18.7 37.0 18.65 37.15 18.65 37.3 18.6 37.45 18.5 37.6 18.45 37.75 18.4 37.85 18.3 38.0 18.25 38.15 18.15 38.25 18.05 38.45 17.95 38.6 17.8 38.75 17.65 38.9 17.5 39.0 17.35 39.15 17.2 39.25 17.05 39.35 16.9 39.45 16.75 39.5 16.55 39.55 16.4 39.6 16.2 39.65 16.0 39.65 15.8 39.7 15.6 39.7 15.4 39.7 15.3 39.7 15.2 39.7 15.1 39.65 15.0 39.65 14.95 39.6 14.85 39.55 14.75 39.55 14.65 39.5 14.6 39.45 14.5 39.4 14.4 39.35 14.35 39.3 14.25 39.2 14.15 39.15 14.1 39.05 14.0 38.95 13.95 38.9 13.85 38.8 13.8 38.7 13.7 38.6 13.65 38.45 13.55 38.35 13.5 38.2 13.45 38.1 13.35 37.95 13.3 37.8 13.2 37.65 13.15 37.5 13.05 37.3 13.0 37.15 12.95 36.95 12.85 36.7 12.75 36.45 12.65 36.2 12.55 36.0 12.45 35.8 12.35 35.65 12.25 35.45 12.15 35.35 12.05 35.2 12.0 35.1 11.9 35.0 11.8 34.95 11.7 34.85 11.6 34.85 11.5 34.8 11.45 34.8 11.35 34.8 11.3 34.8 11.25 34.8 11.25 34.8 11.2 34.8 11.15 34.85 11.1 34.85 11.1 34.85 11.05 34.85 11.0 34.9 11.0 34.9 10.95 34.95 10.95 34.95 10.9 35.0 10.85 35.0 10.85 35.05 10.8 35.1 10.75 35.1 10.75 35.15 10.7 35.2 10.7 35.2 10.65 35.25 10.65 35.25 10.6 35.3 10.6 35.35 10.6 35.35 10.55 35.4 10.55 35.45 10.5 35.45 10.5 35.5 10.5 35.55 10.45 35.55 10.45 35.6 10.45 35.6 10.45 35.65 10.45 35.7 10.4 35.75 10.4 35.75 10.4 35.8 10.4 35.85 10.4 35.9 10.4 35.95 10.4 35.95 10.4 36.0 10.4 36.05 10.4 36.1 10.4 36.15 10.4 36.15 10.4 36.2 10.4 36.25 10.4 36.25 10.4 36.3 10.4 36.35 10.4 36.4 10.4 36.45 10.4 36.5 10.45 36.55 10.45 36.6 10.45 36.6 10.45 36.65 10.5 36.7 10.5 36.75 10.5 36.8 10.55 36.85 10.55 36.95 10.6 37.0 10.65 37.1 10.7 37.15 10.7 37.2 10.75 37.25 10.85 37.3 10.9 37.35 10.95 37.4 11.0 37.45 11.05 37.5 11.1 37.5 11.2 37.55 11.25 37.55 11.3 37.55 11.4 37.55 11.45 37.55 11.55 37.6 11.6 37.6 11.65 37.6 11.75 37.6 11.8 37.65 11.85 37.65 11.9 37.7 11.95 37.7 12.0 37.7 12.05 37.75 12.1 37.75 12.1 37.8 12.15 37.8 12.15 37.85 12.2 37.85 12.2 37.9 12.25 37.9 12.25 37.95 12.25 38.0 12.25 38.0 12.3 38.05 12.3 38.1 12.3 38.1 12.25 38.15 12.25 38.2 12.25 38.2 12.25 38.25 12.2 38.3 12.2 38.35 12.15 38.4 12.15 38.4 12.1 38.45 12.05 38.5 12.0 38.55 11.95 38.6 11.9 38.65 11.85 38.7 11.8 38.75 11.7 38.8 11.65 38.85 11.55 38.9 11.5 38.95 11.4 39.0 11.3 39.1 11.2 39.15 11.1 39.2 11.0 39.25 10.85 39.3 10.75 39.4 10.6 39.45 10.5 39.5 10.4 39.55 10.3 39.6 10.25 39.65 10.15 39.65 10.05 39.7 10.0 39.7 9.95 39.75 9.85 39.75 9.8 39.8 9.75 39.8 9.75 39.8 9.7 39.8 9.65 39.8 9.65 39.8 9.6 39.8 9.6 39.75 9.55 39.75 9.55 39.7 9.55 39.65 9.5 39.6 9.5 39.55 9.5 39.5 9.5 39.45 9.5 39.4 9.45 39.3 9.45 39.25 9.45 39.15 9.45 39.05 9.45 L38.3 9.45 Q38.2 9.45 38.1 9.45 38.0 9.45 37.95 9.45 37.85 9.45 37.75 9.45 37.65 9.45 37.6 9.45 37.5 9.45 37.45 9.4 37.35 9.4 37.3 9.4 37.25 9.4 37.15 9.4 37.1 9.35 37.05 9.35 37.0 9.35 36.95 9.35 36.85 9.35 36.8 9.3 36.75 9.3 36.7 9.3 36.65 9.3 36.55 9.3 36.5 9.3 36.45 9.3 36.4 9.3 36.35 9.3 36.3 9.3 36.25 9.3 36.15 9.3 36.1 9.3 36.05 9.3 36.0 9.3 35.9 9.3 35.85 9.3 35.75 9.3 35.7 9.35 35.6 9.35 35.5 9.4 35.45 9.4 35.35 9.45 35.25 9.45 35.15 9.5 35.05 9.55 34.9 9.55 34.8 9.6 34.7 9.65 34.6 9.7 34.45 9.75 34.35 9.8 34.25 9.9 34.15 9.95 34.05 10.05 34.0 10.15 33.9 10.25 33.8 10.35 33.75 10.5 33.65 10.6 33.6 10.75 33.55 10.9 33.5 11.05 33.45 11.2 33.4 11.35 33.4 11.4 33.4 11.45 33.35 11.5 33.35 11.55 33.35 11.55 33.35 11.6 33.35 11.65 33.35 11.7 33.35 11.75 33.35 11.8 33.3 11.85 33.3 11.85 33.3 11.9 33.3 11.95 33.3 12.0 33.3 12.05 33.3 12.15 33.3 12.25 33.35 12.35 33.35 12.45 33.4 12.55 33.4 12.65 33.45 12.75 33.5 12.85 33.55 12.95 33.6 13.05 33.65 13.15 33.7 13.25 33.75 13.3 33.85 13.4 33.95 13.5 34.0 13.55 34.1 13.65 34.2 13.7 34.25 13.8 34.35 13.9 34.45 13.95 34.55 14.0 34.7 14.1 34.8 14.15 34.9 14.25 35.0 14.3 35.15 14.35 35.25 14.4 35.35 14.45 35.5 14.5 35.65 14.55 35.75 14.6 35.9 14.65 36.0 14.7 36.15 14.75 36.25 14.8 36.4 14.85 36.5 14.9 36.6 14.95 36.7 15.0 36.8 15.05 36.9 15.1 36.95 15.15 37.05 15.2 37.1 15.2 37.2 15.25 37.25 15.3 37.3 15.35 37.35 15.4 37.4 15.45 37.5 15.5 37.5 15.55 37.55 15.6 37.6 15.65 37.65 15.7 37.7 15.8 37.7 15.85 37.75 15.9 37.75 15.95 37.75 16.05 37.8 16.1 37.8 16.15 37.8 16.25 37.8 16.3 37.8 16.35 37.8 16.45 37.8 16.5 37.75 16.55 37.75 16.65 37.75 16.7 37.7 16.75 37.7 16.8 37.65 16.85 37.65 16.95 37.6 17.0 37.55 17.05 37.5 17.1 37.45 17.15 37.4 17.2 37.35 17.25 37.3 17.3 37.25 17.35 37.2 17.35 37.1 17.4 37.05 17.45 37.0 17.45 36.9 17.5 36.85 17.5 36.75 17.55 36.7 17.55 36.6 17.6 36.55 17.6 36.45 17.6 36.35 17.6 36.3 17.6 36.2 17.6 36.05 17.6 35.9 17.6 35.75 17.6 35.65 17.55 35.5 17.55 35.4 17.5 35.3 17.45 35.25 17.4 35.15 17.35 35.1 17.3 35.05 17.2 35.0 17.15 34.95 17.05 34.95 16.95 34.9 16.85 34.9 16.75 L34.9 16.75" fill="#ffffff" fill-rule="evenodd" stroke="none"/>
    </g>
  </defs>
</svg>
