<?xml version="1.0" encoding="UTF-8" standalone="no"?>
<svg xmlns:ffdec="https://www.free-decompiler.com/flash" xmlns:xlink="http://www.w3.org/1999/xlink" ffdec:objectType="frame" height="26.55px" width="70.8px" xmlns="http://www.w3.org/2000/svg">
  <g transform="matrix(1.0, 0.0, 0.0, 1.0, 0.2, 0.4)">
    <use ffdec:characterId="3" height="26.0" transform="matrix(1.0, 0.0, 0.0, 1.0, 0.0, 0.0)" width="26.0" xlink:href="#shape0"/>
    <use ffdec:characterId="12" height="26.0" transform="matrix(1.0, 0.0, 0.0, 1.0, 0.0, 0.0)" width="26.0" xlink:href="#shape1"/>
    <use ffdec:characterId="12" height="26.0" transform="matrix(1.0, 0.0, 0.0, 1.0, 0.0, 0.0)" width="26.0" xlink:href="#shape1"/>
    <use ffdec:characterId="13" height="26.0" transform="matrix(1.0, 0.0, 0.0, 1.0, 0.0, 0.0)" width="26.0" xlink:href="#shape2"/>
    <use ffdec:characterId="13" height="26.0" transform="matrix(1.0, 0.0, 0.0, 1.0, 0.0, 0.0)" width="26.0" xlink:href="#shape2"/>
  </g>
  <defs>
    <g id="shape0" transform="matrix(1.0, 0.0, 0.0, 1.0, 0.0, 0.0)">
      <path d="M23.5 2.45 Q23.5 2.5 23.5 2.5 23.5 2.55 23.5 2.55 23.5 2.55 23.5 2.55 23.5 2.6 23.5 2.6 L23.5 4.05 22.85 3.8 23.5 4.5 23.5 5.25 22.95 5.25 23.5 6.45 23.5 7.1 23.3 8.15 23.5 7.8 23.5 9.55 22.85 9.85 23.15 10.05 23.75 9.8 23.75 8.05 23.5 8.4 23.75 7.35 23.75 6.7 23.2 5.5 23.75 5.5 23.75 4.75 23.1 4.05 23.75 4.3 23.75 2.85 Q23.75 2.8 23.75 2.8 23.75 2.7 23.75 2.65 23.75 2.55 23.7 2.55 23.7 2.5 23.65 2.5 23.6 2.5 23.5 2.45 L23.5 2.45 M23.5 10.4 L23.5 22.5 23.5 23.15 Q23.5 23.4 23.5 23.4 23.45 23.5 23.4 23.5 23.35 23.5 23.15 23.5 L22.5 23.5 21.85 23.5 20.95 23.5 21.0 23.75 22.1 23.75 22.75 23.75 23.4 23.75 Q23.65 23.75 23.7 23.75 23.75 23.7 23.75 23.4 L23.75 22.75 23.75 10.55 23.5 10.4 M20.7 22.75 L19.95 23.5 16.1 23.5 15.25 23.05 15.2 23.5 14.15 23.5 13.9 23.5 12.75 23.4 12.05 23.5 10.85 23.5 10.7 23.3 10.2 23.55 9.7 23.5 8.85 23.25 8.4 23.5 7.5 23.5 7.25 23.35 6.45 23.5 5.85 23.5 5.2 23.5 4.55 23.5 3.95 23.45 3.25 23.5 2.85 23.5 Q2.85 23.55 2.85 23.6 2.85 23.65 2.85 23.7 2.8 23.7 2.8 23.75 2.85 23.75 2.85 23.75 2.85 23.75 2.85 23.75 L3.5 23.75 4.2 23.7 4.8 23.75 5.45 23.75 6.05 23.75 6.7 23.75 7.45 23.6 7.75 23.75 8.65 23.75 9.1 23.5 9.9 23.75 10.45 23.8 10.95 23.55 11.1 23.75 12.3 23.75 13.0 23.65 14.1 23.75 14.4 23.75 15.4 23.75 15.5 23.3 16.35 23.75 20.15 23.75 20.75 23.2 20.7 22.75" fill="#ffffff" fill-rule="evenodd" stroke="none"/>
      <path d="M2.6 2.2 L5.95 2.2 6.2 2.65 6.5 2.4 7.75 2.2 13.5 2.2 13.7 2.7 14.15 2.2 15.45 2.2 16.65 2.2 17.15 2.65 17.35 2.2 18.0 2.2 23.15 2.2 Q23.35 2.2 23.4 2.25 23.45 2.25 23.5 2.35 23.5 2.4 23.5 2.55 23.5 2.55 23.5 2.6 L23.5 4.05 22.85 3.8 23.5 4.5 23.5 5.25 22.95 5.25 23.5 6.45 23.5 7.1 23.3 8.15 23.5 7.8 23.5 9.55 22.85 9.85 23.5 10.3 23.5 22.5 23.5 23.15 Q23.5 23.4 23.5 23.4 23.45 23.5 23.4 23.5 23.35 23.5 23.15 23.5 L22.5 23.5 21.85 23.5 20.75 23.5 20.7 22.75 19.95 23.5 16.1 23.5 15.25 23.05 15.2 23.5 14.15 23.5 13.9 23.5 12.75 23.4 12.05 23.5 10.85 23.5 10.7 23.3 10.2 23.55 9.7 23.5 8.85 23.25 8.4 23.5 7.5 23.5 7.25 23.35 6.45 23.5 5.85 23.5 5.2 23.5 4.55 23.5 3.95 23.45 3.25 23.5 2.6 23.5 Q2.6 23.5 2.6 23.5 2.6 23.5 2.6 23.5 2.4 23.5 2.35 23.5 2.3 23.5 2.25 23.45 2.25 23.4 2.25 23.2 2.25 23.2 2.25 23.2 2.25 23.2 2.25 23.2 2.25 23.15 2.25 23.15 L2.25 17.7 3.05 17.5 2.25 16.75 2.25 16.1 2.25 15.45 2.25 14.45 2.65 14.15 2.25 13.9 2.25 10.65 2.65 10.45 2.25 9.9 2.25 9.0 2.25 8.35 2.25 7.7 2.75 7.2 2.25 6.85 2.25 2.6 Q2.25 2.55 2.25 2.55 2.25 2.4 2.25 2.35 2.3 2.25 2.35 2.25 2.4 2.2 2.55 2.2 2.55 2.2 2.6 2.2 2.6 2.2 2.6 2.2 2.6 2.2 2.6 2.2 L2.6 2.2" fill="#000000" fill-rule="evenodd" stroke="none"/>
    </g>
    <g id="shape1" transform="matrix(1.0, 0.0, 0.0, 1.0, 0.0, 0.0)">
      <path d="M4.5 15.1 Q4.55 15.1 4.6 15.1 4.65 15.1 4.75 15.05 4.8 15.05 4.85 15.0 4.9 14.95 5.0 14.9 5.05 14.85 5.1 14.8 5.2 14.75 5.25 14.7 5.3 14.65 5.4 14.55 5.5 14.5 5.55 14.4 5.65 14.3 5.7 14.25 5.8 14.15 5.9 14.1 5.95 14.05 6.05 14.0 6.15 13.95 6.25 13.9 6.35 13.85 6.45 13.8 6.55 13.75 6.65 13.75 6.8 13.75 6.9 13.7 7.0 13.7 7.15 13.7 7.25 13.7 7.4 13.7 7.5 13.75 7.6 13.75 7.7 13.8 7.8 13.8 7.9 13.85 8.0 13.9 8.1 13.95 8.2 14.0 8.25 14.05 8.35 14.1 8.45 14.15 8.5 14.2 8.6 14.25 8.7 14.35 8.8 14.45 8.9 14.6 9.0 14.7 9.05 14.85 9.15 14.95 9.2 15.1 9.25 15.25 9.3 15.4 9.35 15.6 9.4 15.75 9.45 15.9 9.45 16.1 9.5 16.3 9.5 16.5 9.5 16.7 9.5 16.9 9.5 17.1 9.5 17.3 9.45 17.5 9.45 17.65 9.4 17.85 9.4 18.0 9.35 18.2 9.3 18.35 9.25 18.5 9.15 18.65 9.1 18.8 9.0 18.95 8.95 19.1 8.85 19.25 8.75 19.35 8.6 19.45 8.55 19.55 8.45 19.6 8.4 19.7 8.3 19.75 8.2 19.85 8.1 19.9 8.05 19.95 7.95 20.0 7.85 20.05 7.75 20.05 7.65 20.1 7.55 20.1 7.45 20.15 7.35 20.15 7.2 20.15 7.1 20.15 7.1 20.2 7.05 20.2 6.95 20.2 6.85 20.2 6.75 20.15 6.65 20.15 6.55 20.1 6.45 20.1 6.35 20.05 6.25 20.05 6.2 20.0 6.1 19.95 6.05 19.9 5.95 19.85 5.9 19.8 5.8 19.75 5.75 19.7 5.7 19.65 5.65 19.6 5.6 19.5 5.55 19.45 5.5 19.4 5.45 19.35 5.45 19.3 5.4 19.25 5.4 19.25 5.4 19.2 5.4 19.15 5.4 19.15 5.4 19.15 5.45 19.1 5.45 19.1 5.5 19.1 5.55 19.1 5.6 19.1 5.6 19.1 5.65 19.1 5.7 19.05 5.75 19.05 5.75 19.0 5.8 19.0 5.85 18.95 5.85 18.9 5.9 18.9 5.95 18.85 5.95 18.8 6.0 18.75 6.05 18.7 6.05 18.65 6.1 18.55 6.15 18.5 6.15 18.4 6.2 18.35 6.2 18.3 6.25 18.25 6.25 18.2 6.25 18.15 6.3 18.1 6.3 18.05 6.3 18.0 6.3 17.95 6.3 17.9 6.3 17.9 6.3 17.85 6.3 17.8 6.3 17.8 6.3 17.75 6.3 17.75 6.25 17.7 6.25 17.65 6.25 17.65 6.2 17.6 6.2 17.55 6.15 17.5 6.15 17.45 6.1 17.45 6.1 17.4 6.05 17.35 6.0 17.3 5.95 17.25 5.9 17.2 5.9 17.1 5.85 17.05 5.8 17.0 5.75 16.95 5.7 16.9 5.65 16.9 5.6 16.85 5.55 16.8 5.5 16.8 5.4 16.75 5.35 16.75 5.3 16.7 5.25 16.7 5.2 16.7 5.15 16.7 5.1 16.65 5.05 16.65 5.0 16.65 4.95 16.65 4.9 16.65 4.85 16.65 4.8 16.7 4.75 16.7 4.7 16.7 4.65 16.7 4.6 16.7 4.55 16.75 4.5 16.75 4.45 16.75 4.45 16.8 4.4 16.8 4.35 16.85 4.3 16.85 4.2 16.9 4.1 17.0 4.0 17.05 3.9 17.15 3.85 17.25 3.75 17.35 3.7 17.4 3.65 17.55 3.6 17.65 3.55 17.75 3.5 17.9 3.5 18.0 3.45 18.15 3.45 18.3 3.4 18.45 3.4 18.6 3.4 18.65 3.4 18.75 3.4 18.8 3.4 18.9 3.45 18.95 3.45 19.0 3.45 19.05 3.45 19.15 3.5 19.2 3.5 19.25 3.5 19.3 3.55 19.35 3.55 19.4 3.55 19.45 3.6 19.5 3.6 19.5 3.65 19.55 3.65 19.6 3.7 19.65 3.75 19.7 3.75 19.75 3.8 19.8 3.85 19.85 3.9 19.95 3.95 20.0 4.0 20.05 4.05 20.1 4.1 20.15 4.15 20.2 4.2 20.25 4.3 20.3 4.35 20.35 4.5 20.5 4.65 20.6 4.85 20.75 5.0 20.85 5.15 20.95 5.35 21.0 5.5 21.1 5.7 21.15 5.85 21.25 6.05 21.3 6.2 21.35 6.4 21.4 6.6 21.4 6.75 21.4 6.95 21.45 7.15 21.45 7.35 21.45 7.55 21.45 7.75 21.4 7.9 21.4 8.1 21.35 8.3 21.35 8.5 21.3 8.65 21.25 8.85 21.2 9.05 21.15 9.2 21.05 9.4 21.0 9.55 20.9 9.75 20.85 9.9 20.75 10.1 20.65 10.25 20.55 10.4 20.4 10.55 20.3 10.7 20.15 10.85 20.05 11.0 19.9 11.1 19.75 11.25 19.6 11.35 19.45 11.45 19.25 11.55 19.1 11.65 18.9 11.75 18.75 11.8 18.55 11.9 18.35 11.95 18.15 12.0 18.05 12.0 17.95 12.0 17.85 12.05 17.75 12.05 17.6 12.1 17.5 12.1 17.4 12.1 17.3 12.15 17.2 12.15 17.1 12.15 17.0 12.15 16.9 12.15 16.8 12.15 16.7 12.15 16.6 12.15 16.5 12.15 16.4 12.15 16.3 12.15 16.2 12.15 16.1 12.15 16.0 12.15 15.9 12.15 15.8 12.15 15.7 12.1 15.6 12.1 15.5 12.1 15.4 12.05 15.3 12.05 15.2 12.0 15.1 12.0 15.0 11.95 14.9 11.9 14.7 11.8 14.45 11.7 14.25 11.6 14.1 11.5 13.9 11.4 13.75 11.3 13.6 11.15 13.45 11.05 13.3 10.9 13.2 10.8 13.05 10.65 12.95 10.5 12.9 10.3 12.8 10.15 12.7 10.0 12.65 9.8 12.6 9.65 12.55 9.5 12.5 9.3 12.45 9.15 12.45 9.0 12.4 8.85 12.35 8.7 12.35 8.55 12.3 8.4 12.3 8.25 12.25 8.1 12.25 7.95 12.25 7.8 12.2 7.7 12.2 7.55 12.2 7.4 12.2 7.3 12.25 7.15 12.25 7.05 12.25 6.9 12.3 6.8 12.35 6.7 12.4 6.55 12.45 6.45 12.5 6.3 12.55 6.2 12.6 6.1 12.7 5.95 12.75 5.85 12.85 5.75 12.9 5.65 13.0 5.7 12.55 6.0 11.35 L6.45 9.95 8.55 10.1 Q9.45 10.2 9.9 10.2 10.35 10.15 10.5 10.15 10.55 10.15 10.55 10.15 10.6 10.1 10.6 10.1 10.65 10.1 10.7 10.05 10.75 10.0 10.75 10.0 10.8 9.95 10.85 9.9 10.9 9.85 10.95 9.8 10.95 9.75 11.0 9.7 11.05 9.6 11.1 9.55 11.15 9.45 11.2 9.4 11.25 9.3 11.3 9.2 11.3 9.15 11.35 9.05 11.4 8.95 11.4 8.85 11.45 8.75 11.45 8.65 11.45 8.55 11.5 8.4 11.5 8.3 11.5 8.15 11.5 8.05 11.5 7.9 11.5 7.75 11.5 7.65 11.5 7.55 11.45 7.45 11.45 7.35 11.45 7.3 11.4 7.2 11.4 7.15 11.35 7.05 11.3 7.05 11.3 7.0 11.25 6.95 11.2 6.9 11.15 6.9 11.1 6.9 11.0 6.9 10.95 6.9 10.95 6.9 10.9 6.9 10.85 6.9 10.8 6.9 10.8 6.95 10.75 6.95 10.7 7.0 10.7 7.0 10.65 7.05 10.6 7.05 10.6 7.1 10.55 7.15 10.55 7.2 10.5 7.25 10.45 7.3 10.4 7.35 10.4 7.4 10.35 7.45 10.3 7.45 10.3 7.5 10.25 7.55 10.25 7.55 10.2 7.6 10.15 7.65 10.15 7.65 10.1 7.65 10.05 7.7 10.05 7.7 10.0 7.7 9.95 7.75 9.95 7.75 9.9 7.75 9.7 7.75 9.5 7.8 9.4 7.8 L6.85 7.7 Q6.8 7.7 6.8 7.7 6.75 7.7 6.75 7.7 6.7 7.7 6.65 7.7 6.65 7.7 6.6 7.7 6.6 7.7 6.55 7.7 6.5 7.7 6.5 7.7 6.45 7.7 6.4 7.7 6.4 7.7 6.35 7.7 6.3 7.7 6.25 7.7 6.25 7.75 6.2 7.75 6.15 7.75 6.15 7.75 6.1 7.8 6.05 7.8 6.0 7.85 6.0 7.85 5.95 7.9 5.9 7.9 5.9 7.95 5.85 8.0 5.8 8.0 5.75 8.05 5.45 8.45 4.7 11.05 3.95 13.7 3.95 14.45 3.95 14.55 3.95 14.6 3.95 14.65 4.0 14.75 4.0 14.8 4.05 14.85 4.05 14.9 4.1 14.95 4.15 15.0 4.15 15.0 4.2 15.05 4.25 15.1 4.3 15.1 4.35 15.1 4.45 15.1 4.5 15.1 L4.5 15.1" fill="#ffffff" fill-rule="evenodd" stroke="none"/>
      <path d="M17.1 8.4 Q17.1 8.35 17.15 8.3 17.15 8.25 17.15 8.2 17.15 8.15 17.15 8.1 17.15 8.0 17.2 7.95 17.2 7.9 17.2 7.85 17.2 7.8 17.2 7.75 17.2 7.7 17.2 7.65 17.2 7.6 17.2 7.55 17.2 7.35 17.2 7.2 17.2 7.0 17.15 6.85 17.15 6.65 17.1 6.5 17.05 6.35 17.0 6.2 16.95 6.05 16.9 5.95 16.85 5.8 16.75 5.65 16.7 5.55 16.6 5.4 16.5 5.3 16.4 5.2 16.35 5.1 16.25 5.05 16.15 5.0 16.1 4.9 16.0 4.85 15.95 4.8 15.85 4.75 15.75 4.7 15.7 4.7 15.6 4.65 15.5 4.6 15.45 4.6 15.35 4.6 15.25 4.55 15.15 4.55 15.05 4.55 L15.05 4.55 Q14.95 4.55 14.85 4.55 14.8 4.55 14.7 4.55 14.6 4.6 14.55 4.6 14.45 4.6 14.4 4.65 14.35 4.65 14.25 4.7 14.2 4.7 14.15 4.75 14.1 4.75 14.05 4.8 14.0 4.85 13.95 4.85 13.8 4.95 13.65 5.05 13.55 5.2 13.4 5.3 13.3 5.45 13.2 5.6 13.1 5.75 13.05 5.9 12.95 6.1 12.9 6.25 12.85 6.45 12.8 6.65 12.8 6.85 12.75 7.05 12.75 7.25 12.75 7.45 12.75 7.7 12.75 7.9 12.8 8.1 12.8 8.3 12.85 8.5 12.9 8.7 12.95 8.9 13.0 9.05 13.1 9.2 13.15 9.35 13.25 9.5 13.35 9.65 13.45 9.75 13.6 9.9 13.7 10.0 13.85 10.1 13.9 10.15 13.95 10.2 14.0 10.2 14.1 10.25 14.15 10.25 14.2 10.3 14.3 10.3 14.35 10.35 14.45 10.35 14.5 10.4 14.6 10.4 14.65 10.4 14.75 10.4 14.8 10.4 14.9 10.45 15.0 10.45 15.2 10.45 15.4 10.4 15.6 10.4 15.75 10.3 15.9 10.25 16.05 10.15 16.2 10.05 16.35 9.9 16.5 9.8 16.6 9.65 16.7 9.45 16.8 9.3 16.9 9.1 17.0 8.85 17.05 8.65 17.1 8.4 L17.1 8.4 M14.7 5.45 Q14.9 5.4 14.95 5.4 15.0 5.4 15.05 5.45 15.15 5.45 15.2 5.5 15.25 5.55 15.35 5.6 15.4 5.65 15.45 5.75 15.5 5.85 15.55 5.95 15.6 6.05 15.65 6.15 15.7 6.25 15.7 6.4 15.75 6.55 15.75 6.7 15.75 6.85 15.8 7.05 15.8 7.2 15.8 7.4 15.8 7.6 15.8 7.75 15.8 7.95 15.75 8.1 15.75 8.25 15.75 8.4 15.7 8.55 15.7 8.7 15.65 8.8 15.6 8.9 15.55 9.0 15.55 9.1 15.5 9.2 15.45 9.25 15.4 9.35 15.3 9.4 15.25 9.45 15.25 9.45 15.2 9.5 15.2 9.55 15.15 9.55 15.1 9.55 15.05 9.6 15.05 9.6 15.0 9.6 14.95 9.6 14.9 9.6 14.85 9.6 14.85 9.6 14.8 9.55 14.75 9.55 14.7 9.5 14.7 9.5 14.65 9.45 14.6 9.45 14.6 9.4 14.55 9.35 14.5 9.3 14.5 9.25 14.45 9.2 14.4 9.15 14.4 9.1 14.35 9.05 14.35 8.95 14.3 8.9 14.3 8.8 14.25 8.7 14.25 8.6 14.2 8.5 14.2 8.4 14.2 8.25 14.15 8.15 14.15 8.0 14.15 7.85 14.15 7.7 14.15 7.55 14.15 7.4 14.15 7.25 14.15 7.1 14.15 6.9 14.15 6.75 14.2 6.6 14.2 6.5 14.2 6.35 14.25 6.25 14.3 6.1 14.3 6.0 14.35 5.9 14.4 5.8 14.45 5.75 14.5 5.65 14.6 5.6 14.65 5.5 14.7 5.45 L14.7 5.45 M21.05 14.65 Q21.2 14.6 21.3 14.5 21.45 14.45 21.55 14.35 21.7 14.3 21.8 14.15 21.9 14.05 22.0 13.95 22.05 13.85 22.15 13.7 22.2 13.55 22.3 13.4 22.35 13.25 22.4 13.1 22.45 12.9 22.5 12.7 22.6 12.15 22.6 11.8 22.6 11.6 22.6 11.45 22.55 11.25 22.55 11.1 22.5 10.95 22.5 10.8 22.45 10.65 22.4 10.5 22.35 10.4 22.3 10.25 22.25 10.15 22.15 10.0 22.1 9.9 22.05 9.8 21.95 9.7 21.85 9.6 21.75 9.5 21.7 9.45 21.6 9.35 21.5 9.3 21.4 9.2 21.35 9.15 21.25 9.1 21.15 9.05 21.05 9.05 21.0 9.0 20.9 8.95 20.8 8.95 20.75 8.9 20.65 8.9 20.55 8.9 20.5 8.9 20.4 8.9 20.35 8.9 20.25 8.9 20.15 8.9 20.1 8.9 20.0 8.95 19.95 8.95 19.85 8.95 19.8 9.0 19.7 9.0 19.65 9.05 19.6 9.05 19.5 9.1 19.45 9.15 19.4 9.15 19.35 9.2 19.2 9.3 19.05 9.4 18.95 9.55 18.8 9.65 18.7 9.8 18.6 9.95 18.5 10.1 18.45 10.25 18.35 10.45 18.3 10.6 18.25 10.8 18.2 11.0 18.15 11.2 18.15 11.4 18.1 11.6 18.1 11.85 18.1 12.1 18.15 12.3 18.15 12.5 18.2 12.7 18.2 12.9 18.25 13.05 18.35 13.25 18.4 13.4 18.45 13.55 18.55 13.7 18.65 13.85 18.75 14.0 18.85 14.1 19.0 14.25 19.1 14.35 19.25 14.45 19.3 14.5 19.35 14.5 19.4 14.55 19.45 14.55 19.5 14.6 19.6 14.6 19.65 14.65 19.7 14.65 19.75 14.65 19.85 14.7 19.9 14.7 19.95 14.7 20.05 14.7 20.1 14.7 20.2 14.75 20.25 14.75 20.9 14.7 21.05 14.65 L21.05 14.65 M21.15 11.85 Q21.15 12.05 21.15 12.2 21.15 12.35 21.1 12.5 21.1 12.65 21.1 12.8 21.05 12.9 21.05 13.05 21.0 13.15 21.0 13.25 20.95 13.35 20.9 13.45 20.85 13.55 20.8 13.6 20.75 13.7 20.7 13.75 20.65 13.8 20.65 13.85 20.6 13.85 20.55 13.9 20.55 13.9 20.5 13.9 20.45 13.95 20.45 13.95 L20.3 13.95 Q20.2 13.9 20.1 13.85 20.05 13.8 19.95 13.75 19.9 13.65 19.8 13.55 19.75 13.45 19.7 13.3 19.65 13.2 19.65 13.0 19.6 12.85 19.55 12.65 19.55 12.5 19.55 12.25 19.5 12.05 19.5 11.8 19.5 11.65 19.5 11.55 19.5 11.4 19.55 11.3 19.55 11.15 19.55 11.05 19.55 10.95 19.6 10.85 19.6 10.75 19.6 10.7 19.65 10.6 19.65 10.5 19.7 10.45 19.7 10.35 19.75 10.3 19.75 10.25 19.8 10.2 19.8 10.15 19.85 10.1 19.9 10.05 19.9 10.0 19.95 9.95 20.0 9.9 20.0 9.9 20.05 9.85 20.1 9.85 20.15 9.8 20.15 9.8 20.2 9.8 20.25 9.8 20.3 9.75 20.3 9.75 20.4 9.75 20.5 9.8 20.6 9.8 20.7 9.9 20.75 9.95 20.85 10.05 20.9 10.15 20.95 10.3 21.0 10.4 21.05 10.6 21.1 10.75 21.1 10.95 21.15 11.15 21.15 11.35 21.15 11.6 21.15 11.85 L21.15 11.85 M14.85 13.6 Q14.85 13.65 14.8 13.7 14.8 13.7 14.8 13.75 14.75 13.8 14.75 13.85 14.75 13.9 14.75 13.9 14.7 13.95 14.7 14.0 14.7 14.05 14.7 14.05 14.7 14.1 14.7 14.1 14.7 14.15 14.7 14.2 14.7 14.25 14.7 14.3 14.7 14.35 14.75 14.35 14.75 14.4 14.75 14.45 14.8 14.45 14.8 14.5 14.85 14.55 14.85 14.55 14.9 14.55 14.95 14.6 14.95 14.6 15.0 14.6 15.05 14.6 15.1 14.6 15.15 14.6 15.2 14.6 15.25 14.6 15.3 14.6 15.35 14.55 15.4 14.55 15.45 14.55 15.45 14.5 15.5 14.5 15.55 14.45 15.6 14.45 15.6 14.4 15.65 14.35 15.7 14.35 15.7 14.3 15.75 14.25 L20.5 5.65 Q20.55 5.6 20.55 5.55 20.55 5.55 20.6 5.5 20.6 5.45 20.6 5.4 20.6 5.35 20.65 5.35 20.65 5.3 20.65 5.25 20.65 5.2 20.65 5.1 20.6 5.05 20.6 5.0 20.6 4.95 20.55 4.9 20.55 4.85 20.5 4.85 20.45 4.8 20.4 4.8 20.4 4.75 20.35 4.75 20.3 4.7 20.2 4.7 20.15 4.7 20.1 4.7 20.05 4.7 20.0 4.7 20.0 4.7 19.95 4.7 19.9 4.7 19.9 4.75 19.85 4.75 19.8 4.75 19.8 4.8 19.75 4.8 19.75 4.85 19.7 4.85 19.7 4.9 19.65 4.9 19.65 4.95 19.65 5.0 L14.85 13.6" fill="#ffffff" fill-rule="evenodd" stroke="none"/>
    </g>
  </defs>
</svg>
