<?xml version="1.0" encoding="UTF-8" standalone="no"?>
<svg xmlns:ffdec="https://www.free-decompiler.com/flash" xmlns:xlink="http://www.w3.org/1999/xlink" ffdec:objectType="frame" height="26.55px" width="70.8px" xmlns="http://www.w3.org/2000/svg">
  <g transform="matrix(1.0, 0.0, 0.0, 1.0, 0.2, 0.4)">
    <use ffdec:characterId="3" height="26.0" transform="matrix(1.0, 0.0, 0.0, 1.0, 0.0, 0.0)" width="26.0" xlink:href="#shape0"/>
    <use ffdec:characterId="80" height="26.0" transform="matrix(1.0, 0.0, 0.0, 1.0, 0.0, 0.0)" width="26.0" xlink:href="#shape1"/>
    <use ffdec:characterId="80" height="26.0" transform="matrix(1.0, 0.0, 0.0, 1.0, 0.0, 0.0)" width="26.0" xlink:href="#shape1"/>
  </g>
  <defs>
    <g id="shape0" transform="matrix(1.0, 0.0, 0.0, 1.0, 0.0, 0.0)">
      <path d="M23.5 2.45 Q23.5 2.5 23.5 2.5 23.5 2.55 23.5 2.55 23.5 2.55 23.5 2.55 23.5 2.6 23.5 2.6 L23.5 4.05 22.85 3.8 23.5 4.5 23.5 5.25 22.95 5.25 23.5 6.45 23.5 7.1 23.3 8.15 23.5 7.8 23.5 9.55 22.85 9.85 23.15 10.05 23.75 9.8 23.75 8.05 23.5 8.4 23.75 7.35 23.75 6.7 23.2 5.5 23.75 5.5 23.75 4.75 23.1 4.05 23.75 4.3 23.75 2.85 Q23.75 2.8 23.75 2.8 23.75 2.7 23.75 2.65 23.75 2.55 23.7 2.55 23.7 2.5 23.65 2.5 23.6 2.5 23.5 2.45 L23.5 2.45 M23.5 10.4 L23.5 22.5 23.5 23.15 Q23.5 23.4 23.5 23.4 23.45 23.5 23.4 23.5 23.35 23.5 23.15 23.5 L22.5 23.5 21.85 23.5 20.95 23.5 21.0 23.75 22.1 23.75 22.75 23.75 23.4 23.75 Q23.65 23.75 23.7 23.75 23.75 23.7 23.75 23.4 L23.75 22.75 23.75 10.55 23.5 10.4 M20.7 22.75 L19.95 23.5 16.1 23.5 15.25 23.05 15.2 23.5 14.15 23.5 13.9 23.5 12.75 23.4 12.05 23.5 10.85 23.5 10.7 23.3 10.2 23.55 9.7 23.5 8.85 23.25 8.4 23.5 7.5 23.5 7.25 23.35 6.45 23.5 5.85 23.5 5.2 23.5 4.55 23.5 3.95 23.45 3.25 23.5 2.85 23.5 Q2.85 23.55 2.85 23.6 2.85 23.65 2.85 23.7 2.8 23.7 2.8 23.75 2.85 23.75 2.85 23.75 2.85 23.75 2.85 23.75 L3.5 23.75 4.2 23.7 4.8 23.75 5.45 23.75 6.05 23.75 6.7 23.75 7.45 23.6 7.75 23.75 8.65 23.75 9.1 23.5 9.9 23.75 10.45 23.8 10.95 23.55 11.1 23.75 12.3 23.75 13.0 23.65 14.1 23.75 14.4 23.75 15.4 23.75 15.5 23.3 16.35 23.75 20.15 23.75 20.75 23.2 20.7 22.75" fill="#ffffff" fill-rule="evenodd" stroke="none"/>
      <path d="M2.6 2.2 L5.95 2.2 6.2 2.65 6.5 2.4 7.75 2.2 13.5 2.2 13.7 2.7 14.15 2.2 15.45 2.2 16.65 2.2 17.15 2.65 17.35 2.2 18.0 2.2 23.15 2.2 Q23.35 2.2 23.4 2.25 23.45 2.25 23.5 2.35 23.5 2.4 23.5 2.55 23.5 2.55 23.5 2.6 L23.5 4.05 22.85 3.8 23.5 4.5 23.5 5.25 22.95 5.25 23.5 6.45 23.5 7.1 23.3 8.15 23.5 7.8 23.5 9.55 22.85 9.85 23.5 10.3 23.5 22.5 23.5 23.15 Q23.5 23.4 23.5 23.4 23.45 23.5 23.4 23.5 23.35 23.5 23.15 23.5 L22.5 23.5 21.85 23.5 20.75 23.5 20.7 22.75 19.95 23.5 16.1 23.5 15.25 23.05 15.2 23.5 14.15 23.5 13.9 23.5 12.75 23.4 12.05 23.5 10.85 23.5 10.7 23.3 10.2 23.55 9.7 23.5 8.85 23.25 8.4 23.5 7.5 23.5 7.25 23.35 6.45 23.5 5.85 23.5 5.2 23.5 4.55 23.5 3.95 23.45 3.25 23.5 2.6 23.5 Q2.6 23.5 2.6 23.5 2.6 23.5 2.6 23.5 2.4 23.5 2.35 23.5 2.3 23.5 2.25 23.45 2.25 23.4 2.25 23.2 2.25 23.2 2.25 23.2 2.25 23.2 2.25 23.2 2.25 23.15 2.25 23.15 L2.25 17.7 3.05 17.5 2.25 16.75 2.25 16.1 2.25 15.45 2.25 14.45 2.65 14.15 2.25 13.9 2.25 10.65 2.65 10.45 2.25 9.9 2.25 9.0 2.25 8.35 2.25 7.7 2.75 7.2 2.25 6.85 2.25 2.6 Q2.25 2.55 2.25 2.55 2.25 2.4 2.25 2.35 2.3 2.25 2.35 2.25 2.4 2.2 2.55 2.2 2.55 2.2 2.6 2.2 2.6 2.2 2.6 2.2 2.6 2.2 2.6 2.2 L2.6 2.2" fill="#000000" fill-rule="evenodd" stroke="none"/>
    </g>
    <g id="shape1" transform="matrix(1.0, 0.0, 0.0, 1.0, 0.0, 0.0)">
      <path d="M12.15 5.6 Q12.1 5.6 12.1 5.6 12.05 5.6 12.0 5.6 12.0 5.6 11.95 5.65 11.9 5.65 11.9 5.65 11.85 5.7 11.85 5.7 11.85 5.75 11.8 5.8 11.8 5.8 11.8 5.85 11.75 5.9 11.75 5.9 11.75 5.95 11.7 6.0 11.7 6.0 11.7 6.05 11.65 6.1 11.65 6.15 11.6 6.15 11.6 6.2 11.6 6.2 11.55 6.25 11.55 6.25 11.5 6.25 11.5 6.3 11.45 6.3 11.45 6.3 11.4 6.35 11.35 6.35 11.35 6.35 11.3 6.4 11.25 6.4 11.2 6.4 11.15 6.4 11.1 6.4 11.05 6.4 11.0 6.45 10.95 6.45 10.85 6.45 10.8 6.45 10.75 6.45 10.65 6.45 10.6 6.45 10.5 6.45 9.7 6.55 7.9 6.55 6.0 6.6 5.45 6.7 5.4 6.7 5.35 6.75 5.3 6.75 5.25 6.75 5.2 6.75 5.15 6.8 5.1 6.8 5.1 6.85 5.05 6.85 5.0 6.9 5.0 6.9 5.0 6.95 4.95 7.0 4.95 7.0 4.95 7.05 4.95 7.1 4.95 7.15 4.95 7.2 4.95 7.2 5.0 7.25 5.0 7.3 5.05 7.35 5.1 7.35 5.1 7.4 5.15 7.45 5.2 7.5 5.3 7.5 5.35 7.55 5.4 7.6 5.5 7.65 5.55 7.7 5.65 7.7 L6.45 8.05 6.45 18.9 5.65 19.2 Q5.55 19.25 5.5 19.3 5.4 19.35 5.35 19.35 5.25 19.4 5.2 19.45 5.15 19.5 5.1 19.55 5.1 19.55 5.05 19.6 5.0 19.65 5.0 19.7 4.95 19.75 4.95 19.8 4.95 19.8 4.95 19.85 4.95 19.9 4.95 19.9 4.95 19.95 5.0 20.0 5.0 20.05 5.0 20.05 5.05 20.1 5.05 20.1 5.1 20.15 5.15 20.15 5.15 20.2 5.2 20.2 5.25 20.2 5.3 20.25 5.35 20.25 5.4 20.25 6.0 20.35 7.5 20.35 9.1 20.4 9.3 20.4 9.35 20.4 9.35 20.4 9.4 20.4 9.45 20.4 9.45 20.4 9.5 20.4 9.5 20.4 9.55 20.4 9.55 20.4 9.6 20.4 9.65 20.4 9.65 20.4 9.7 20.35 9.7 20.35 9.75 20.35 9.75 20.35 9.8 20.35 9.8 20.35 9.85 20.3 9.85 20.3 9.9 20.3 9.95 20.3 9.95 20.3 10.0 20.3 10.05 20.3 10.05 20.3 10.1 20.3 10.15 20.3 10.2 20.3 10.2 20.3 10.25 20.3 10.3 20.3 10.3 20.3 10.35 20.25 10.35 20.25 10.35 20.2 10.35 20.15 10.35 20.05 10.35 19.95 10.3 19.8 10.3 19.75 10.3 19.7 10.25 19.65 10.25 19.6 10.25 19.55 10.2 19.55 10.2 19.5 10.15 19.45 10.1 19.45 10.1 19.4 10.05 19.35 10.0 19.35 9.95 19.35 9.9 19.3 9.85 19.3 9.8 19.3 9.7 19.3 9.6 19.25 9.55 19.25 9.45 19.2 9.4 19.2 9.3 19.15 9.25 19.1 9.2 19.1 9.15 19.05 9.1 19.0 9.05 18.95 9.0 18.9 8.95 18.85 8.95 18.8 8.9 18.75 8.9 18.65 8.85 18.6 8.85 18.5 8.85 18.4 8.8 18.3 8.8 18.2 8.8 18.05 8.75 17.9 8.75 17.75 8.75 17.6 8.75 17.4 8.7 17.2 8.7 17.0 8.7 16.8 8.7 16.55 8.7 16.35 8.7 16.05 L8.7 13.4 9.95 13.55 Q10.05 13.55 10.15 13.55 10.2 13.55 10.3 13.6 10.4 13.6 10.45 13.6 10.55 13.6 10.6 13.65 10.7 13.65 10.75 13.65 10.8 13.7 10.85 13.7 10.95 13.7 11.0 13.75 11.05 13.75 11.1 13.75 11.15 13.8 11.2 13.8 11.25 13.85 11.3 13.9 11.35 13.95 11.4 13.95 11.45 14.0 11.5 14.05 11.55 14.1 11.6 14.15 11.65 14.25 11.7 14.3 11.75 14.35 11.85 14.45 11.9 14.5 11.95 14.6 12.0 14.65 12.05 14.75 12.15 14.8 12.2 14.85 12.25 14.9 12.3 14.95 12.35 15.0 12.4 15.05 12.45 15.05 12.5 15.1 12.55 15.1 12.6 15.15 12.65 15.15 12.65 15.15 12.7 15.2 12.75 15.2 12.8 15.2 12.8 15.2 12.85 15.15 12.85 15.15 12.9 15.15 12.9 15.1 12.95 15.1 12.95 15.05 13.0 15.0 13.0 14.95 13.0 14.9 13.0 14.85 13.0 14.8 13.0 14.75 13.05 14.65 13.05 14.6 13.05 14.5 13.05 14.45 13.0 14.35 13.0 14.25 13.0 14.1 12.95 14.0 12.95 13.85 12.9 13.75 12.85 13.6 12.8 13.45 12.75 13.3 12.7 13.1 12.65 12.95 12.6 12.75 12.55 12.6 12.5 12.4 12.45 12.2 12.35 12.0 12.3 11.85 12.2 11.7 12.15 11.55 12.05 11.4 12.0 11.3 11.9 11.2 11.85 11.1 11.8 11.0 11.7 10.95 11.65 10.9 11.55 10.85 11.5 10.8 11.4 10.8 11.35 10.8 11.3 10.8 11.3 10.8 11.25 10.8 11.25 10.85 11.2 10.85 11.2 10.85 11.15 10.9 11.15 10.95 11.1 10.95 11.1 11.0 11.1 11.05 11.05 11.1 11.05 11.15 11.05 11.2 11.0 11.25 11.0 11.3 11.0 11.4 11.0 11.45 10.95 11.5 10.95 11.55 10.95 11.65 10.95 11.7 10.9 11.75 10.9 11.8 10.85 11.85 10.85 11.9 10.8 11.9 10.8 11.95 10.75 12.0 10.7 12.05 10.7 12.05 10.65 12.1 10.6 12.1 10.55 12.15 10.5 12.15 10.45 12.15 10.4 12.2 10.35 12.2 10.3 12.2 10.25 12.25 10.2 12.25 10.1 12.25 10.05 12.25 9.95 12.25 9.9 12.25 9.8 12.3 9.75 12.3 9.65 12.3 L8.7 12.3 8.7 7.7 9.8 7.7 Q10.05 7.7 10.3 7.75 10.5 7.75 10.75 7.8 10.95 7.85 11.15 7.9 11.35 7.95 11.5 8.05 11.65 8.1 11.8 8.25 11.95 8.35 12.1 8.45 12.25 8.55 12.35 8.7 12.45 8.85 12.55 9.0 12.6 9.05 12.6 9.15 12.65 9.2 12.7 9.25 12.7 9.3 12.75 9.35 12.8 9.4 12.85 9.45 12.9 9.5 12.9 9.55 12.95 9.6 13.0 9.6 13.05 9.65 13.1 9.7 13.15 9.7 13.2 9.75 13.25 9.75 13.3 9.8 13.35 9.8 13.4 9.8 13.45 9.8 13.45 9.8 13.5 9.8 13.55 9.8 13.6 9.8 13.6 9.8 13.65 9.75 13.65 9.75 13.7 9.7 13.75 9.7 13.75 9.65 13.75 9.6 13.75 9.6 13.75 9.6 13.75 9.55 13.8 9.55 13.8 9.55 13.8 9.5 13.8 9.5 13.8 9.45 13.8 9.45 13.8 9.4 13.8 9.4 13.8 9.35 13.8 9.3 13.8 9.3 13.8 9.25 13.8 9.2 13.8 9.15 13.8 9.1 13.8 9.05 13.8 8.95 13.75 8.9 13.75 8.8 13.7 8.7 13.65 8.55 13.65 8.45 13.6 8.3 13.55 8.15 13.5 8.0 13.45 7.85 13.35 7.65 13.3 7.5 13.2 7.3 13.15 7.1 13.05 6.9 13.0 6.75 12.9 6.6 12.85 6.45 12.8 6.3 12.75 6.15 12.7 6.05 12.6 5.95 12.55 5.9 12.5 5.8 12.45 5.75 12.4 5.7 12.35 5.65 12.3 5.6 12.25 5.6 12.2 5.6 12.2 5.6 12.15 5.6 12.15 5.6 L12.15 5.6 M17.3 8.0 Q17.15 8.0 17.05 8.0 16.9 8.0 16.8 8.0 16.65 8.05 16.55 8.05 16.4 8.1 16.3 8.1 16.2 8.15 16.1 8.2 15.95 8.2 15.85 8.25 15.75 8.3 15.65 8.35 15.55 8.4 15.45 8.45 15.3 8.55 15.15 8.65 15.0 8.75 14.9 8.85 14.75 9.0 14.65 9.1 14.55 9.2 14.5 9.35 14.4 9.45 14.35 9.6 14.3 9.7 14.25 9.85 14.2 10.0 14.2 10.15 14.15 10.3 14.15 10.45 14.15 10.5 14.15 10.55 14.15 10.6 14.2 10.6 14.2 10.65 14.25 10.7 14.25 10.75 14.3 10.8 14.3 10.85 14.35 10.9 14.35 10.95 14.4 11.0 14.45 11.05 14.5 11.1 14.55 11.15 14.6 11.2 14.65 11.25 14.7 11.3 14.75 11.35 14.8 11.35 14.85 11.4 14.9 11.45 14.95 11.45 15.0 11.5 15.05 11.5 15.15 11.55 15.2 11.55 15.25 11.55 15.3 11.55 15.35 11.6 15.4 11.6 15.45 11.6 15.5 11.6 15.55 11.6 15.6 11.6 15.65 11.55 15.65 11.55 15.7 11.55 15.75 11.5 15.8 11.5 15.85 11.45 15.9 11.4 15.9 11.4 15.95 11.35 16.0 11.3 16.05 11.25 16.1 11.2 16.1 11.15 16.15 11.1 16.15 11.05 16.2 11.0 16.25 10.95 16.25 10.9 16.3 10.85 16.3 10.8 16.35 10.8 16.35 10.75 16.35 10.7 16.4 10.65 16.4 10.65 16.4 10.6 16.4 10.6 16.4 10.55 16.45 10.55 16.45 10.5 16.45 10.5 16.45 10.45 16.45 10.45 16.45 10.4 16.4 10.4 16.4 10.35 16.4 10.3 16.4 10.3 16.35 10.25 16.35 10.2 16.35 10.2 16.3 10.15 16.3 10.1 16.3 10.05 16.25 10.0 16.2 9.95 16.2 9.95 16.15 9.9 16.15 9.85 16.15 9.8 16.1 9.8 16.1 9.75 16.1 9.7 16.05 9.7 16.05 9.65 16.05 9.6 16.05 9.6 16.05 9.55 16.05 9.5 16.05 9.5 16.05 9.45 16.05 9.4 16.05 9.35 16.1 9.25 16.1 9.2 16.15 9.2 16.2 9.15 16.25 9.1 16.3 9.05 16.4 9.0 16.45 9.0 16.55 8.95 16.65 8.95 16.75 8.95 16.85 8.95 16.95 8.9 17.1 8.9 17.2 8.9 17.25 8.9 17.35 8.95 17.4 8.95 17.5 8.95 17.55 9.0 17.65 9.0 17.7 9.05 17.75 9.1 17.8 9.1 17.85 9.15 17.9 9.2 17.95 9.25 18.0 9.3 18.05 9.4 18.1 9.45 18.15 9.5 18.2 9.6 18.2 9.65 18.25 9.7 18.25 9.75 18.3 9.85 18.3 9.9 18.35 9.95 18.35 10.0 18.4 10.05 18.4 10.1 18.4 10.15 18.4 10.2 18.4 10.25 18.4 10.3 18.4 10.35 18.4 10.5 18.4 10.65 18.4 10.8 18.35 10.95 18.35 11.1 18.3 11.25 18.3 11.35 18.25 11.5 18.2 11.6 18.15 11.75 18.1 11.85 18.05 11.95 18.0 12.05 17.95 12.15 17.85 12.25 17.8 12.35 17.75 12.4 17.7 12.45 17.6 12.5 17.55 12.55 17.5 12.6 17.4 12.6 17.3 12.65 17.25 12.7 17.15 12.75 17.05 12.75 16.95 12.8 16.85 12.8 16.75 12.85 16.65 12.9 16.55 12.9 16.4 12.95 16.3 12.95 16.15 13.0 16.05 13.0 15.95 13.05 15.85 13.05 15.75 13.1 15.65 13.1 15.6 13.15 15.5 13.15 15.4 13.2 15.35 13.2 15.3 13.25 15.2 13.25 15.15 13.3 15.1 13.3 15.05 13.35 15.0 13.4 14.95 13.4 14.9 13.45 14.85 13.5 14.85 13.55 14.8 13.6 14.75 13.6 14.75 13.65 14.7 13.7 14.7 13.75 14.7 13.8 14.7 13.9 14.65 13.95 14.65 14.0 14.65 14.05 14.65 14.15 14.65 14.25 14.65 14.3 14.65 14.4 14.7 14.45 14.7 14.55 14.75 14.6 14.75 14.65 14.8 14.7 14.85 14.75 14.9 14.8 14.95 14.8 15.0 14.85 15.05 14.85 15.1 14.9 15.2 14.9 15.25 14.9 15.3 14.9 15.35 14.9 15.4 14.9 15.4 14.9 15.45 14.85 15.5 14.85 15.55 14.85 15.6 14.8 15.65 14.8 15.7 14.75 15.75 14.75 15.8 14.7 15.85 14.65 15.95 14.65 16.0 14.6 16.05 14.55 16.1 14.5 16.15 14.5 16.25 14.45 16.3 14.4 16.35 14.4 16.45 14.35 16.5 14.35 16.6 14.3 16.65 14.3 16.75 14.25 16.8 14.25 16.9 14.25 17.0 14.25 17.1 14.25 17.15 14.2 17.25 14.2 17.45 14.2 17.6 14.25 17.75 14.3 17.9 14.35 18.05 14.45 18.15 14.55 18.3 14.7 18.4 14.85 18.45 15.0 18.55 15.2 18.6 15.4 18.65 15.65 18.7 15.9 18.75 16.15 18.75 16.45 18.75 16.75 18.75 17.05 18.7 17.35 18.7 17.6 18.65 17.85 18.55 18.1 18.5 18.3 18.4 18.5 18.3 18.65 18.15 18.8 18.05 18.9 17.9 19.05 17.7 19.1 17.55 19.2 17.35 19.2 17.15 19.25 16.95 19.25 16.85 19.25 16.8 19.25 16.7 19.25 16.65 19.25 16.55 19.25 16.5 19.25 16.45 19.2 16.35 19.2 16.3 19.2 16.25 19.15 16.2 19.15 16.15 19.1 16.15 19.1 16.1 19.05 16.05 19.05 16.0 19.0 15.95 18.95 15.95 18.95 15.9 18.9 15.9 18.85 15.85 18.8 15.8 18.75 15.8 18.7 15.75 18.6 15.75 18.55 15.7 18.5 15.65 18.4 15.65 18.3 15.6 18.25 15.6 18.15 15.55 18.05 15.5 17.95 15.45 17.85 15.45 17.75 15.4 17.65 15.4 17.55 15.35 17.5 15.3 17.4 15.3 17.35 15.25 17.25 15.2 17.2 15.15 17.15 15.15 17.1 15.1 17.05 15.05 17.0 15.0 16.95 14.95 16.9 14.9 16.9 14.85 16.85 14.8 16.85 14.8 16.8 14.75 16.75 14.7 16.75 14.65 16.7 14.65 16.7 14.6 16.7 14.55 16.65 14.5 16.65 14.5 16.65 14.45 16.65 14.45 16.65 14.4 16.65 14.35 16.6 14.35 16.6 14.3 16.6 14.25 16.6 14.25 16.65 14.2 16.65 14.15 16.65 14.1 16.65 14.1 16.7 14.05 16.7 14.0 16.7 14.0 16.75 13.95 16.8 13.85 16.85 13.8 16.85 13.75 16.9 13.7 16.95 13.7 17.05 13.65 17.1 13.6 17.15 13.55 17.2 13.55 17.3 13.5 17.35 13.5 17.45 13.5 17.5 13.5 17.6 13.45 17.7 13.45 17.8 13.45 17.9 13.45 18.0 13.5 18.05 13.5 18.15 13.5 18.25 13.55 18.35 13.6 18.45 13.6 18.5 13.65 18.6 13.7 18.7 13.75 18.75 13.8 18.85 13.85 18.95 13.9 19.05 14.0 19.1 14.05 19.2 14.1 19.25 14.2 19.35 14.25 19.4 14.35 19.5 14.4 19.55 14.5 19.6 14.6 19.65 14.65 19.75 14.75 19.8 14.85 19.85 14.95 19.9 15.05 19.95 15.15 20.0 15.25 20.05 15.35 20.05 15.45 20.1 15.55 20.15 15.65 20.15 15.75 20.2 15.85 20.25 15.95 20.25 16.05 20.3 16.15 20.3 16.25 20.3 16.35 20.35 16.45 20.35 16.55 20.35 16.65 20.35 16.7 20.4 16.8 20.4 16.9 20.4 17.0 20.4 17.2 20.4 17.35 20.4 17.55 20.35 17.75 20.35 17.9 20.3 18.1 20.25 18.25 20.2 18.4 20.15 18.55 20.1 18.75 20.0 18.9 19.95 19.05 19.85 19.2 19.75 19.35 19.65 19.5 19.55 19.6 19.45 19.8 19.3 19.95 19.1 20.1 18.95 20.25 18.8 20.4 18.6 20.5 18.45 20.6 18.25 20.7 18.05 20.8 17.9 20.85 17.7 20.9 17.5 20.95 17.3 21.0 17.15 21.05 16.95 21.05 16.75 21.05 16.55 21.05 16.35 21.05 16.15 21.0 15.95 21.0 15.75 20.95 15.6 20.9 15.4 20.85 15.25 20.8 15.1 20.7 14.9 20.65 14.75 20.55 14.6 20.45 14.5 20.35 14.35 20.25 14.2 20.1 14.1 20.0 14.0 19.8 13.85 19.7 13.75 19.55 13.6 19.45 13.55 19.3 13.45 19.25 13.4 19.15 13.3 19.1 13.3 19.05 13.25 19.0 13.25 18.95 13.25 18.9 13.25 18.9 13.25 18.85 13.2 18.85 13.2 18.85 13.15 18.85 13.05 19.25 12.6 19.4 12.45 19.5 12.3 19.65 12.15 19.75 11.95 19.85 11.8 19.95 11.65 20.05 11.5 20.1 11.35 20.2 11.2 20.25 11.05 20.3 10.9 20.35 10.75 20.4 10.6 20.4 10.45 20.4 10.25 20.4 10.1 20.4 10.05 20.4 10.0 20.4 9.95 20.4 9.85 20.4 9.8 20.4 9.75 20.35 9.7 20.35 9.65 20.35 9.6 20.3 9.5 20.3 9.45 20.3 9.4 20.25 9.35 20.25 9.3 20.2 9.2 20.15 9.15 20.1 9.05 20.0 8.95 19.95 8.85 19.85 8.75 19.75 8.65 19.65 8.6 19.55 8.5 19.4 8.45 19.3 8.35 19.15 8.3 19.0 8.25 18.8 8.2 18.65 8.15 18.45 8.1 18.3 8.05 18.1 8.05 18.05 8.05 18.0 8.05 17.95 8.05 17.9 8.0 17.85 8.0 17.8 8.0 17.75 8.0 17.7 8.0 17.65 8.0 17.6 8.0 17.55 8.0 17.5 8.0 17.45 8.0 17.4 8.0 17.35 8.0 17.3 8.0 L17.3 8.0" fill="#ffffff" fill-rule="evenodd" stroke="none"/>
    </g>
  </defs>
</svg>
