<?xml version="1.0" encoding="UTF-8" standalone="no"?>
<svg xmlns:ffdec="https://www.free-decompiler.com/flash" xmlns:xlink="http://www.w3.org/1999/xlink" ffdec:objectType="frame" height="26.55px" width="70.8px" xmlns="http://www.w3.org/2000/svg">
  <g transform="matrix(1.0, 0.0, 0.0, 1.0, 0.2, 0.4)">
    <use ffdec:characterId="3" height="26.0" transform="matrix(1.0, 0.0, 0.0, 1.0, 0.0, 0.0)" width="26.0" xlink:href="#shape0"/>
    <use ffdec:characterId="81" height="26.0" transform="matrix(1.0, 0.0, 0.0, 1.0, 0.0, 0.0)" width="26.0" xlink:href="#shape1"/>
    <use ffdec:characterId="81" height="26.0" transform="matrix(1.0, 0.0, 0.0, 1.0, 0.0, 0.0)" width="26.0" xlink:href="#shape1"/>
  </g>
  <defs>
    <g id="shape0" transform="matrix(1.0, 0.0, 0.0, 1.0, 0.0, 0.0)">
      <path d="M23.5 2.45 Q23.5 2.5 23.5 2.5 23.5 2.55 23.5 2.55 23.5 2.55 23.5 2.55 23.5 2.6 23.5 2.6 L23.5 4.05 22.85 3.8 23.5 4.5 23.5 5.25 22.95 5.25 23.5 6.45 23.5 7.1 23.3 8.15 23.5 7.8 23.5 9.55 22.85 9.85 23.15 10.05 23.75 9.8 23.75 8.05 23.5 8.4 23.75 7.35 23.75 6.7 23.2 5.5 23.75 5.5 23.75 4.75 23.1 4.05 23.75 4.3 23.75 2.85 Q23.75 2.8 23.75 2.8 23.75 2.7 23.75 2.65 23.75 2.55 23.7 2.55 23.7 2.5 23.65 2.5 23.6 2.5 23.5 2.45 L23.5 2.45 M23.5 10.4 L23.5 22.5 23.5 23.15 Q23.5 23.4 23.5 23.4 23.45 23.5 23.4 23.5 23.35 23.5 23.15 23.5 L22.5 23.5 21.85 23.5 20.95 23.5 21.0 23.75 22.1 23.75 22.75 23.75 23.4 23.75 Q23.65 23.75 23.7 23.75 23.75 23.7 23.75 23.4 L23.75 22.75 23.75 10.55 23.5 10.4 M20.7 22.75 L19.95 23.5 16.1 23.5 15.25 23.05 15.2 23.5 14.15 23.5 13.9 23.5 12.75 23.4 12.05 23.5 10.85 23.5 10.7 23.3 10.2 23.55 9.7 23.5 8.85 23.25 8.4 23.5 7.5 23.5 7.25 23.35 6.45 23.5 5.85 23.5 5.2 23.5 4.55 23.5 3.95 23.45 3.25 23.5 2.85 23.5 Q2.85 23.55 2.85 23.6 2.85 23.65 2.85 23.7 2.8 23.7 2.8 23.75 2.85 23.75 2.85 23.75 2.85 23.75 2.85 23.75 L3.5 23.75 4.2 23.7 4.8 23.75 5.45 23.75 6.05 23.75 6.7 23.75 7.45 23.6 7.75 23.75 8.65 23.75 9.1 23.5 9.9 23.75 10.45 23.8 10.95 23.55 11.1 23.75 12.3 23.75 13.0 23.65 14.1 23.75 14.4 23.75 15.4 23.75 15.5 23.3 16.35 23.75 20.15 23.75 20.75 23.2 20.7 22.75" fill="#ffffff" fill-rule="evenodd" stroke="none"/>
      <path d="M2.6 2.2 L5.95 2.2 6.2 2.65 6.5 2.4 7.75 2.2 13.5 2.2 13.7 2.7 14.15 2.2 15.45 2.2 16.65 2.2 17.15 2.65 17.35 2.2 18.0 2.2 23.15 2.2 Q23.35 2.2 23.4 2.25 23.45 2.25 23.5 2.35 23.5 2.4 23.5 2.55 23.5 2.55 23.5 2.6 L23.5 4.05 22.85 3.8 23.5 4.5 23.5 5.25 22.95 5.25 23.5 6.45 23.5 7.1 23.3 8.15 23.5 7.8 23.5 9.55 22.85 9.85 23.5 10.3 23.5 22.5 23.5 23.15 Q23.5 23.4 23.5 23.4 23.45 23.5 23.4 23.5 23.35 23.5 23.15 23.5 L22.5 23.5 21.85 23.5 20.75 23.5 20.7 22.75 19.95 23.5 16.1 23.5 15.25 23.05 15.2 23.5 14.15 23.5 13.9 23.5 12.75 23.4 12.05 23.5 10.85 23.5 10.7 23.3 10.2 23.55 9.7 23.5 8.85 23.25 8.4 23.5 7.5 23.5 7.25 23.35 6.45 23.5 5.85 23.5 5.2 23.5 4.55 23.5 3.95 23.45 3.25 23.5 2.6 23.5 Q2.6 23.5 2.6 23.5 2.6 23.5 2.6 23.5 2.4 23.5 2.35 23.5 2.3 23.5 2.25 23.45 2.25 23.4 2.25 23.2 2.25 23.2 2.25 23.2 2.25 23.2 2.25 23.2 2.25 23.15 2.25 23.15 L2.25 17.7 3.05 17.5 2.25 16.75 2.25 16.1 2.25 15.45 2.25 14.45 2.65 14.15 2.25 13.9 2.25 10.65 2.65 10.45 2.25 9.9 2.25 9.0 2.25 8.35 2.25 7.7 2.75 7.2 2.25 6.85 2.25 2.6 Q2.25 2.55 2.25 2.55 2.25 2.4 2.25 2.35 2.3 2.25 2.35 2.25 2.4 2.2 2.55 2.2 2.55 2.2 2.6 2.2 2.6 2.2 2.6 2.2 2.6 2.2 2.6 2.2 L2.6 2.2" fill="#000000" fill-rule="evenodd" stroke="none"/>
    </g>
    <g id="shape1" transform="matrix(1.0, 0.0, 0.0, 1.0, 0.0, 0.0)">
      <path d="M12.05 5.6 Q12.0 5.6 12.0 5.6 11.95 5.6 11.9 5.6 11.9 5.6 11.85 5.65 11.8 5.65 11.8 5.65 11.75 5.7 11.75 5.7 11.7 5.75 11.7 5.8 11.7 5.8 11.7 5.85 11.65 5.9 11.65 5.9 11.65 5.95 11.6 6.0 11.6 6.0 11.6 6.05 11.55 6.1 11.55 6.15 11.5 6.15 11.5 6.2 11.5 6.2 11.45 6.25 11.45 6.25 11.4 6.25 11.4 6.3 11.35 6.3 11.3 6.3 11.3 6.35 11.25 6.35 11.25 6.35 11.2 6.4 11.15 6.4 11.1 6.4 11.05 6.4 11.0 6.4 10.95 6.4 10.9 6.45 10.85 6.45 10.75 6.45 10.7 6.45 10.65 6.45 10.55 6.45 10.5 6.45 10.4 6.45 9.55 6.55 7.8 6.55 5.9 6.6 5.35 6.7 5.3 6.7 5.25 6.75 5.2 6.75 5.15 6.75 5.1 6.75 5.05 6.8 5.0 6.8 4.95 6.85 4.95 6.85 4.9 6.9 4.9 6.9 4.85 6.95 4.85 7.0 4.85 7.0 4.85 7.05 4.85 7.1 4.85 7.15 4.85 7.2 4.85 7.2 4.9 7.25 4.9 7.3 4.95 7.35 4.95 7.35 5.0 7.4 5.05 7.45 5.1 7.5 5.15 7.5 5.25 7.55 5.3 7.6 5.4 7.65 5.45 7.7 5.55 7.7 L6.35 8.05 6.35 18.9 5.55 19.2 Q5.45 19.25 5.4 19.3 5.3 19.35 5.25 19.35 5.15 19.4 5.1 19.45 5.05 19.5 5.0 19.55 4.95 19.55 4.95 19.6 4.9 19.65 4.9 19.7 4.85 19.75 4.85 19.8 4.85 19.8 4.85 19.85 4.85 19.9 4.85 19.9 4.85 19.95 4.85 20.0 4.9 20.05 4.9 20.05 4.95 20.1 4.95 20.1 5.0 20.15 5.05 20.15 5.05 20.2 5.1 20.2 5.15 20.2 5.2 20.25 5.25 20.25 5.3 20.25 5.9 20.35 7.4 20.35 9.0 20.4 9.2 20.4 9.25 20.4 9.3 20.4 9.35 20.4 9.4 20.4 9.45 20.4 9.5 20.4 9.55 20.4 9.55 20.35 9.6 20.35 9.65 20.35 9.7 20.35 9.7 20.35 9.75 20.3 9.75 20.3 9.8 20.3 9.85 20.3 9.85 20.3 9.9 20.3 9.95 20.3 9.95 20.3 10.0 20.3 10.05 20.3 10.05 20.3 10.1 20.3 10.15 20.3 10.2 20.3 10.2 20.3 10.25 20.25 10.25 20.25 10.25 20.2 10.25 20.15 10.25 20.05 10.25 19.95 10.2 19.8 10.2 19.75 10.2 19.7 10.15 19.65 10.15 19.6 10.15 19.55 10.1 19.55 10.1 19.5 10.05 19.45 10.0 19.45 10.0 19.4 9.95 19.35 9.9 19.35 9.85 19.35 9.8 19.3 9.75 19.3 9.7 19.3 9.6 19.3 9.5 19.25 9.45 19.25 9.35 19.2 9.3 19.2 9.2 19.15 9.15 19.1 9.1 19.1 9.05 19.05 9.0 19.0 8.95 18.95 8.9 18.9 8.85 18.85 8.85 18.8 8.8 18.75 8.75 18.65 8.6 18.15 8.6 16.05 L8.6 13.4 9.85 13.55 Q9.95 13.55 10.05 13.55 10.1 13.55 10.2 13.6 10.3 13.6 10.35 13.6 10.45 13.6 10.5 13.65 10.55 13.65 10.65 13.65 10.7 13.7 10.75 13.7 10.8 13.7 10.9 13.75 10.95 13.75 11.0 13.75 11.05 13.8 11.1 13.8 11.15 13.85 11.2 13.9 11.25 13.95 11.3 13.95 11.35 14.0 11.4 14.05 11.45 14.1 11.5 14.15 11.55 14.25 11.6 14.3 11.65 14.35 11.7 14.45 11.8 14.5 11.85 14.6 11.9 14.65 11.95 14.75 12.05 14.8 12.1 14.85 12.15 14.9 12.2 14.95 12.25 15.0 12.3 15.05 12.35 15.05 12.4 15.1 12.45 15.1 12.5 15.15 12.5 15.15 12.55 15.15 12.6 15.2 12.65 15.2 12.7 15.2 12.7 15.2 12.75 15.15 12.75 15.15 12.8 15.15 12.8 15.1 12.85 15.1 12.85 15.05 12.85 15.0 12.9 14.95 12.9 14.9 12.9 14.85 12.9 14.8 12.9 14.75 12.9 14.65 12.9 14.6 12.9 14.5 12.9 14.45 12.9 14.35 12.9 14.25 12.85 14.1 12.85 14.0 12.8 13.85 12.8 13.75 12.75 13.6 12.7 13.45 12.65 13.3 12.6 13.1 12.55 12.95 12.5 12.75 12.45 12.6 12.35 12.4 12.3 12.2 12.2 12.0 12.15 11.85 12.1 11.7 12.0 11.55 11.95 11.4 11.9 11.3 11.8 11.2 11.75 11.1 11.65 11.0 11.6 10.95 11.55 10.9 11.45 10.85 11.4 10.8 11.3 10.8 11.25 10.8 11.2 10.8 11.2 10.8 11.15 10.8 11.15 10.85 11.1 10.85 11.1 10.85 11.05 10.9 11.05 10.95 11.0 10.95 11.0 11.0 10.95 11.05 10.95 11.1 10.95 11.15 10.95 11.2 10.9 11.25 10.9 11.3 10.9 11.4 10.9 11.45 10.85 11.5 10.85 11.55 10.85 11.65 10.8 11.7 10.8 11.75 10.8 11.8 10.75 11.85 10.75 11.9 10.7 11.9 10.7 11.95 10.65 12.0 10.6 12.05 10.6 12.05 10.55 12.1 10.5 12.1 10.45 12.15 10.4 12.15 10.35 12.15 10.3 12.2 10.25 12.2 10.2 12.2 10.15 12.25 10.05 12.25 10.0 12.25 9.95 12.25 9.85 12.25 9.8 12.25 9.7 12.3 9.6 12.3 9.55 12.3 L8.6 12.3 8.6 7.7 9.7 7.7 Q9.95 7.7 10.2 7.75 10.4 7.75 10.65 7.8 10.85 7.85 11.05 7.9 11.25 7.95 11.4 8.05 11.55 8.1 11.7 8.25 11.85 8.35 12.0 8.45 12.1 8.55 12.25 8.7 12.35 8.85 12.4 9.0 12.45 9.05 12.5 9.15 12.5 9.2 12.55 9.25 12.6 9.3 12.65 9.35 12.7 9.4 12.75 9.45 12.75 9.5 12.8 9.55 12.85 9.6 12.9 9.6 12.95 9.65 13.0 9.7 13.05 9.7 13.1 9.75 13.15 9.75 13.2 9.8 13.25 9.8 13.3 9.8 13.3 9.8 13.35 9.8 13.4 9.8 13.45 9.8 13.45 9.8 13.5 9.8 13.55 9.75 13.55 9.75 13.6 9.7 13.6 9.7 13.65 9.65 13.65 9.6 13.65 9.6 13.7 9.55 13.7 9.5 13.7 9.4 13.7 9.3 13.7 9.2 13.7 9.15 13.7 9.1 13.7 9.05 13.65 8.95 13.65 8.9 13.65 8.8 13.6 8.7 13.55 8.55 13.55 8.45 13.5 8.3 13.45 8.15 13.4 8.0 13.35 7.85 13.25 7.65 13.2 7.5 13.1 7.3 13.05 7.1 12.95 6.9 12.9 6.75 12.8 6.6 12.75 6.45 12.7 6.3 12.65 6.15 12.55 6.05 12.5 5.95 12.45 5.9 12.4 5.8 12.35 5.75 12.3 5.7 12.25 5.65 12.2 5.6 12.15 5.6 12.1 5.6 12.1 5.6 12.05 5.6 12.05 5.6 L12.05 5.6 M16.75 8.45 Q16.5 8.45 16.3 8.45 16.1 8.45 15.95 8.45 15.75 8.45 15.6 8.5 15.45 8.5 15.35 8.5 15.25 8.5 15.15 8.55 15.05 8.55 14.95 8.55 14.9 8.55 14.85 8.6 14.8 8.6 14.8 8.65 14.75 8.7 14.7 8.75 14.65 8.8 14.65 8.9 14.65 8.95 14.65 8.95 14.65 9.0 14.7 9.05 14.7 9.1 14.75 9.1 14.8 9.15 14.8 9.2 14.85 9.2 14.9 9.25 14.95 9.3 15.05 9.35 15.1 9.4 15.15 9.4 15.25 9.45 15.35 9.5 15.45 9.55 15.5 9.6 15.6 9.65 15.65 9.7 15.7 9.75 15.75 9.8 15.8 9.85 15.85 9.9 15.9 9.95 15.9 10.05 15.95 10.1 15.95 10.2 16.0 10.25 16.0 10.35 16.0 10.4 16.0 10.5 16.0 10.6 16.0 10.7 15.95 10.85 15.9 11.0 15.85 11.15 15.8 11.35 15.7 11.5 15.6 11.7 15.5 11.95 15.4 12.2 15.25 12.45 15.1 12.7 14.95 13.0 14.8 13.3 14.6 13.6 14.4 13.95 14.2 14.3 14.05 14.6 13.9 14.9 13.75 15.15 13.6 15.45 13.45 15.7 13.35 15.95 13.25 16.15 13.15 16.4 13.1 16.55 13.0 16.75 12.95 16.9 12.9 17.1 12.9 17.2 12.85 17.35 12.85 17.45 12.85 17.5 12.85 17.5 12.85 17.55 12.9 17.6 12.9 17.6 12.9 17.65 12.95 17.65 12.95 17.7 13.0 17.7 13.05 17.75 13.05 17.75 13.1 17.75 13.15 17.75 13.2 17.75 13.25 17.8 13.3 17.8 13.35 17.8 13.45 17.8 13.5 17.75 13.6 17.75 13.7 17.75 13.8 17.7 13.85 17.65 14.0 17.65 14.1 17.6 14.2 17.55 14.35 17.5 14.45 17.45 14.6 17.4 14.75 17.3 14.9 17.25 15.05 17.2 16.35 16.6 16.75 16.5 16.75 17.5 16.7 17.8 16.7 17.9 16.7 17.95 16.7 18.05 16.7 18.1 16.7 18.2 16.7 18.25 16.7 18.3 16.7 18.4 16.7 18.45 16.65 18.5 16.65 18.55 16.65 18.6 16.65 18.65 16.6 18.65 16.6 18.7 16.6 18.75 16.55 18.8 16.55 18.8 16.5 18.85 16.45 18.85 16.45 18.9 16.4 18.95 16.35 18.95 16.3 19.0 16.25 19.05 16.2 19.05 16.15 19.1 16.05 19.15 16.0 19.2 15.95 19.2 15.85 19.25 15.8 19.3 15.7 19.35 15.65 19.35 15.6 19.4 15.5 19.45 15.45 19.5 15.4 19.5 15.35 19.55 15.3 19.6 15.3 19.65 15.25 19.65 15.2 19.7 15.2 19.75 15.2 19.8 15.15 19.85 15.15 19.85 15.15 19.9 15.15 19.95 15.2 20.0 15.25 20.05 15.3 20.1 15.4 20.15 15.5 20.2 15.65 20.25 15.8 20.25 15.95 20.3 16.15 20.3 16.4 20.35 16.6 20.35 16.85 20.4 17.15 20.4 17.45 20.4 17.75 20.4 18.05 20.4 18.35 20.4 18.65 20.4 18.9 20.35 19.15 20.35 19.35 20.3 19.55 20.3 19.7 20.25 19.85 20.25 20.0 20.2 20.1 20.15 20.2 20.1 20.25 20.05 20.3 20.0 20.35 19.95 20.35 19.9 20.35 19.85 20.35 19.8 20.35 19.8 20.3 19.75 20.3 19.7 20.25 19.65 20.25 19.65 20.2 19.6 20.15 19.55 20.1 19.5 20.05 19.45 20.0 19.45 19.95 19.4 19.9 19.35 19.8 19.3 19.75 19.3 19.65 19.25 19.6 19.25 19.55 19.2 19.45 19.15 19.4 19.15 19.35 19.1 19.3 19.05 19.25 19.05 19.2 19.0 19.15 18.95 19.1 18.9 19.05 18.9 19.0 18.85 19.0 18.8 18.95 18.8 18.95 18.75 18.9 18.7 18.9 18.7 18.9 18.65 18.85 18.6 18.85 18.55 18.8 18.5 18.8 18.45 18.8 18.4 18.8 18.35 18.75 18.3 18.75 18.25 18.75 18.2 18.75 18.15 18.75 18.05 18.75 18.0 18.75 17.95 L18.8 16.8 Q18.8 16.75 18.75 16.6 18.75 16.5 18.75 16.45 18.8 16.45 18.85 16.4 18.9 16.4 18.95 16.4 18.95 16.35 19.0 16.35 19.05 16.35 19.1 16.35 19.1 16.3 19.15 16.3 19.2 16.3 19.2 16.3 19.25 16.3 19.3 16.3 19.3 16.3 19.35 16.3 19.4 16.3 19.45 16.3 19.45 16.3 19.5 16.3 19.55 16.35 19.55 16.35 19.6 16.35 19.6 16.4 19.65 16.4 19.65 16.45 19.65 16.5 19.7 16.55 19.7 16.55 19.7 16.6 19.7 16.65 19.7 16.7 L19.65 17.3 Q19.65 17.35 19.65 17.45 19.65 17.5 19.65 17.55 19.7 17.6 19.7 17.65 19.75 17.7 19.75 17.7 19.8 17.75 19.85 17.75 19.85 17.8 19.9 17.8 19.95 17.85 20.0 17.85 20.05 17.85 20.15 17.85 20.2 17.85 20.4 17.8 20.5 17.8 20.6 17.75 20.65 17.75 20.75 17.7 20.8 17.65 20.85 17.6 20.9 17.55 20.95 17.5 21.0 17.45 21.05 17.4 21.1 17.35 21.1 17.25 21.15 17.2 21.15 17.1 21.15 17.05 21.15 16.95 21.15 16.9 21.15 16.9 21.15 16.85 21.15 16.8 21.15 16.8 21.1 16.75 21.1 16.7 21.1 16.65 21.05 16.6 21.05 16.55 21.0 16.55 21.0 16.5 20.95 16.45 20.95 16.4 20.9 16.35 20.85 16.3 20.8 16.2 20.7 16.1 20.65 16.05 20.55 15.95 20.5 15.9 20.4 15.8 20.35 15.75 20.25 15.7 20.2 15.65 20.1 15.6 20.0 15.6 19.95 15.55 19.85 15.5 19.75 15.5 19.7 15.5 19.6 15.45 L18.8 15.4 18.75 13.2 Q18.75 12.95 18.75 12.7 18.75 12.5 18.75 12.3 18.7 12.1 18.7 11.9 18.7 11.75 18.7 11.65 18.65 11.5 18.65 11.4 18.65 11.3 18.6 11.25 18.6 11.15 18.55 11.15 18.55 11.1 18.5 11.1 18.45 11.1 18.45 11.1 18.4 11.15 18.35 11.2 18.3 11.25 18.25 11.3 18.2 11.35 18.15 11.45 18.05 11.55 18.0 11.65 17.95 11.75 17.85 11.9 17.8 12.0 17.7 12.15 17.6 12.3 17.55 12.5 17.45 12.65 17.4 12.85 17.3 13.0 17.25 13.15 17.15 13.3 17.1 13.45 17.05 13.55 17.0 13.7 16.95 13.8 16.9 13.9 16.9 14.0 16.85 14.1 16.85 14.2 16.8 14.3 16.8 14.35 16.8 14.45 16.8 14.65 16.75 14.95 16.75 15.25 16.75 15.4 16.3 15.55 15.55 15.85 L14.35 16.35 14.7 15.85 Q15.65 14.45 17.15 11.8 17.85 10.55 18.25 9.75 18.6 9.05 18.6 8.85 18.6 8.8 18.6 8.75 18.55 8.7 18.5 8.7 18.45 8.65 18.35 8.6 18.25 8.6 18.15 8.55 18.05 8.55 17.9 8.5 17.75 8.5 17.6 8.5 17.4 8.5 17.2 8.45 17.0 8.45 16.75 8.45 L16.75 8.45" fill="#ffffff" fill-rule="evenodd" stroke="none"/>
    </g>
  </defs>
</svg>
