<?xml version="1.0" encoding="UTF-8" standalone="no"?>
<svg xmlns:ffdec="https://www.free-decompiler.com/flash" xmlns:xlink="http://www.w3.org/1999/xlink" ffdec:objectType="frame" height="26.55px" width="70.8px" xmlns="http://www.w3.org/2000/svg">
  <g transform="matrix(1.0, 0.0, 0.0, 1.0, 0.2, 0.4)">
    <use ffdec:characterId="3" height="26.0" transform="matrix(1.0, 0.0, 0.0, 1.0, 0.0, 0.0)" width="26.0" xlink:href="#shape0"/>
    <use ffdec:characterId="83" height="26.0" transform="matrix(1.0, 0.0, 0.0, 1.0, 0.0, 0.0)" width="26.0" xlink:href="#shape1"/>
    <use ffdec:characterId="83" height="26.0" transform="matrix(1.0, 0.0, 0.0, 1.0, 0.0, 0.0)" width="26.0" xlink:href="#shape1"/>
  </g>
  <defs>
    <g id="shape0" transform="matrix(1.0, 0.0, 0.0, 1.0, 0.0, 0.0)">
      <path d="M23.5 2.45 Q23.5 2.5 23.5 2.5 23.5 2.55 23.5 2.55 23.5 2.55 23.5 2.55 23.5 2.6 23.5 2.6 L23.5 4.05 22.85 3.8 23.5 4.5 23.5 5.25 22.95 5.25 23.5 6.45 23.5 7.1 23.3 8.15 23.5 7.8 23.5 9.55 22.85 9.85 23.15 10.05 23.75 9.8 23.75 8.05 23.5 8.4 23.75 7.35 23.75 6.7 23.2 5.5 23.75 5.5 23.75 4.75 23.1 4.05 23.75 4.3 23.75 2.85 Q23.75 2.8 23.75 2.8 23.75 2.7 23.75 2.65 23.75 2.55 23.7 2.55 23.7 2.5 23.65 2.5 23.6 2.5 23.5 2.45 L23.5 2.45 M23.5 10.4 L23.5 22.5 23.5 23.15 Q23.5 23.4 23.5 23.4 23.45 23.5 23.4 23.5 23.35 23.5 23.15 23.5 L22.5 23.5 21.85 23.5 20.95 23.5 21.0 23.75 22.1 23.75 22.75 23.75 23.4 23.75 Q23.65 23.75 23.7 23.75 23.75 23.7 23.75 23.4 L23.75 22.75 23.75 10.55 23.5 10.4 M20.7 22.75 L19.95 23.5 16.1 23.5 15.25 23.05 15.2 23.5 14.15 23.5 13.9 23.5 12.75 23.4 12.05 23.5 10.85 23.5 10.7 23.3 10.2 23.55 9.7 23.5 8.85 23.25 8.4 23.5 7.5 23.5 7.25 23.35 6.45 23.5 5.85 23.5 5.2 23.5 4.55 23.5 3.95 23.45 3.25 23.5 2.85 23.5 Q2.85 23.55 2.85 23.6 2.85 23.65 2.85 23.7 2.8 23.7 2.8 23.75 2.85 23.75 2.85 23.75 2.85 23.75 2.85 23.75 L3.5 23.75 4.2 23.7 4.8 23.75 5.45 23.75 6.05 23.75 6.7 23.75 7.45 23.6 7.75 23.75 8.65 23.75 9.1 23.5 9.9 23.75 10.45 23.8 10.95 23.55 11.1 23.75 12.3 23.75 13.0 23.65 14.1 23.75 14.4 23.75 15.4 23.75 15.5 23.3 16.35 23.75 20.15 23.75 20.75 23.2 20.7 22.75" fill="#ffffff" fill-rule="evenodd" stroke="none"/>
      <path d="M2.6 2.2 L5.95 2.2 6.2 2.65 6.5 2.4 7.75 2.2 13.5 2.2 13.7 2.7 14.15 2.2 15.45 2.2 16.65 2.2 17.15 2.65 17.35 2.2 18.0 2.2 23.15 2.2 Q23.35 2.2 23.4 2.25 23.45 2.25 23.5 2.35 23.5 2.4 23.5 2.55 23.5 2.55 23.5 2.6 L23.5 4.05 22.85 3.8 23.5 4.5 23.5 5.25 22.95 5.25 23.5 6.45 23.5 7.1 23.3 8.15 23.5 7.8 23.5 9.55 22.85 9.85 23.5 10.3 23.5 22.5 23.5 23.15 Q23.5 23.4 23.5 23.4 23.45 23.5 23.4 23.5 23.35 23.5 23.15 23.5 L22.5 23.5 21.85 23.5 20.75 23.5 20.7 22.75 19.95 23.5 16.1 23.5 15.25 23.05 15.2 23.5 14.15 23.5 13.9 23.5 12.75 23.4 12.05 23.5 10.85 23.5 10.7 23.3 10.2 23.55 9.7 23.5 8.85 23.25 8.4 23.5 7.5 23.5 7.25 23.35 6.45 23.5 5.85 23.5 5.2 23.5 4.55 23.5 3.95 23.45 3.25 23.5 2.6 23.5 Q2.6 23.5 2.6 23.5 2.6 23.5 2.6 23.5 2.4 23.5 2.35 23.5 2.3 23.5 2.25 23.45 2.25 23.4 2.25 23.2 2.25 23.2 2.25 23.2 2.25 23.2 2.25 23.2 2.25 23.15 2.25 23.15 L2.25 17.7 3.05 17.5 2.25 16.75 2.25 16.1 2.25 15.45 2.25 14.45 2.65 14.15 2.25 13.9 2.25 10.65 2.65 10.45 2.25 9.9 2.25 9.0 2.25 8.35 2.25 7.7 2.75 7.2 2.25 6.85 2.25 2.6 Q2.25 2.55 2.25 2.55 2.25 2.4 2.25 2.35 2.3 2.25 2.35 2.25 2.4 2.2 2.55 2.2 2.55 2.2 2.6 2.2 2.6 2.2 2.6 2.2 2.6 2.2 2.6 2.2 L2.6 2.2" fill="#000000" fill-rule="evenodd" stroke="none"/>
    </g>
    <g id="shape1" transform="matrix(1.0, 0.0, 0.0, 1.0, 0.0, 0.0)">
      <path d="M11.35 5.6 Q11.3 5.6 11.3 5.6 11.25 5.6 11.2 5.6 11.2 5.6 11.15 5.65 11.1 5.65 11.1 5.65 11.1 5.7 11.05 5.7 11.05 5.75 11.0 5.8 11.0 5.8 11.0 5.85 10.95 5.9 10.95 5.9 10.95 5.95 10.9 6.0 10.9 6.0 10.9 6.05 10.85 6.1 10.85 6.15 10.85 6.15 10.8 6.2 10.8 6.2 10.75 6.25 10.75 6.25 10.7 6.25 10.7 6.3 10.65 6.3 10.65 6.3 10.6 6.35 10.55 6.35 10.55 6.35 10.5 6.4 10.45 6.4 10.4 6.4 10.35 6.4 10.3 6.4 10.25 6.4 10.2 6.45 10.15 6.45 10.1 6.45 10.0 6.45 9.95 6.45 9.85 6.45 9.8 6.45 9.7 6.45 8.9 6.55 7.1 6.55 5.2 6.6 4.65 6.7 4.6 6.7 4.55 6.75 4.5 6.75 4.45 6.75 4.4 6.75 4.35 6.8 4.3 6.8 4.3 6.85 4.25 6.85 4.2 6.9 4.2 6.9 4.2 6.95 4.15 7.0 4.15 7.0 4.15 7.05 4.15 7.1 4.15 7.15 4.15 7.2 4.15 7.2 4.2 7.25 4.2 7.3 4.25 7.35 4.3 7.35 4.35 7.4 4.35 7.45 4.45 7.5 4.5 7.5 4.55 7.55 4.6 7.6 4.7 7.65 4.75 7.7 4.85 7.7 L5.65 8.05 5.65 18.9 4.85 19.2 Q4.75 19.25 4.7 19.3 4.6 19.35 4.55 19.35 4.5 19.4 4.4 19.45 4.35 19.5 4.3 19.55 4.3 19.55 4.25 19.6 4.2 19.65 4.2 19.7 4.15 19.75 4.15 19.8 4.15 19.8 4.15 19.85 4.15 19.9 4.15 19.9 4.15 19.95 4.2 20.0 4.2 20.05 4.2 20.05 4.25 20.1 4.25 20.1 4.3 20.15 4.35 20.15 4.35 20.2 4.4 20.2 4.45 20.2 4.5 20.25 4.55 20.25 4.65 20.25 5.2 20.35 6.7 20.35 8.3 20.4 8.5 20.4 8.55 20.4 8.55 20.4 8.6 20.4 8.65 20.4 8.65 20.4 8.7 20.4 8.7 20.4 8.75 20.4 8.8 20.4 8.8 20.4 8.85 20.4 8.85 20.4 8.9 20.35 8.9 20.35 8.95 20.35 8.95 20.35 9.0 20.35 9.0 20.35 9.05 20.3 9.05 20.3 9.1 20.3 9.15 20.3 9.15 20.3 9.2 20.3 9.25 20.3 9.25 20.3 9.3 20.3 9.35 20.3 9.4 20.3 9.4 20.3 9.45 20.3 9.5 20.3 9.55 20.3 9.55 20.25 9.55 20.25 9.55 20.2 9.55 20.15 9.55 20.05 9.55 19.95 9.5 19.8 9.5 19.75 9.5 19.7 9.45 19.65 9.45 19.6 9.45 19.55 9.4 19.55 9.4 19.5 9.35 19.45 9.3 19.45 9.3 19.4 9.25 19.35 9.2 19.35 9.15 19.35 9.1 19.3 9.05 19.3 9.0 19.3 8.9 19.3 8.8 19.25 8.75 19.25 8.65 19.2 8.6 19.2 8.5 19.15 8.45 19.1 8.4 19.1 8.35 19.05 8.3 19.0 8.25 18.95 8.2 18.9 8.15 18.85 8.15 18.8 8.1 18.75 8.1 18.65 8.05 18.6 8.05 18.5 8.05 18.4 8.0 18.3 8.0 18.2 8.0 18.05 7.95 17.9 7.95 17.75 7.95 17.6 7.95 17.4 7.95 17.2 7.9 17.0 7.9 16.8 7.9 16.55 7.9 16.35 7.9 16.05 L7.9 13.4 9.15 13.55 Q9.25 13.55 9.35 13.55 9.4 13.55 9.5 13.6 9.6 13.6 9.65 13.6 9.75 13.6 9.8 13.65 9.9 13.65 9.95 13.65 10.0 13.7 10.05 13.7 10.15 13.7 10.2 13.75 10.25 13.75 10.3 13.75 10.35 13.8 10.4 13.8 10.45 13.85 10.5 13.9 10.55 13.95 10.6 13.95 10.65 14.0 10.7 14.05 10.75 14.1 10.8 14.15 10.85 14.25 10.9 14.3 10.95 14.35 11.05 14.45 11.1 14.5 11.15 14.6 11.2 14.65 11.25 14.75 11.35 14.8 11.4 14.85 11.45 14.9 11.5 14.95 11.55 15.0 11.6 15.05 11.65 15.05 11.7 15.1 11.75 15.1 11.8 15.15 11.85 15.15 11.85 15.15 11.9 15.2 11.95 15.2 12.0 15.2 12.0 15.2 12.05 15.15 12.05 15.15 12.1 15.15 12.1 15.1 12.15 15.1 12.15 15.05 12.2 15.0 12.2 14.95 12.2 14.9 12.2 14.85 12.2 14.8 12.25 14.75 12.25 14.65 12.25 14.6 12.25 14.5 12.25 14.45 12.2 14.35 12.2 14.25 12.2 14.1 12.15 14.0 12.15 13.85 12.1 13.75 12.05 13.6 12.0 13.45 11.95 13.3 11.9 13.1 11.85 12.95 11.8 12.75 11.75 12.6 11.7 12.4 11.65 12.2 11.55 12.0 11.5 11.85 11.4 11.7 11.35 11.55 11.25 11.4 11.2 11.3 11.15 11.2 11.05 11.1 11.0 11.0 10.9 10.95 10.85 10.9 10.75 10.85 10.7 10.8 10.65 10.8 10.55 10.8 10.5 10.8 10.5 10.8 10.45 10.8 10.45 10.85 10.4 10.85 10.4 10.85 10.35 10.9 10.35 10.95 10.3 10.95 10.3 11.0 10.3 11.05 10.25 11.1 10.25 11.15 10.25 11.2 10.25 11.25 10.2 11.3 10.2 11.4 10.2 11.45 10.15 11.5 10.15 11.55 10.15 11.65 10.15 11.7 10.1 11.75 10.1 11.8 10.05 11.85 10.05 11.9 10.0 11.9 10.0 11.95 9.95 12.0 9.95 12.05 9.9 12.05 9.85 12.1 9.8 12.1 9.75 12.15 9.7 12.15 9.65 12.15 9.6 12.2 9.55 12.2 9.5 12.2 9.45 12.25 9.4 12.25 9.3 12.25 9.25 12.25 9.15 12.25 9.1 12.25 9.0 12.3 8.95 12.3 8.85 12.3 L7.9 12.3 7.9 7.7 9.0 7.7 Q9.25 7.7 9.5 7.75 9.7 7.75 9.95 7.8 10.15 7.85 10.35 7.9 10.55 7.95 10.7 8.05 10.85 8.1 11.0 8.25 11.15 8.35 11.3 8.45 11.45 8.55 11.55 8.7 11.65 8.85 11.75 9.0 11.8 9.05 11.8 9.15 11.85 9.2 11.9 9.25 11.9 9.3 11.95 9.35 12.0 9.4 12.05 9.45 12.1 9.5 12.1 9.55 12.15 9.6 12.2 9.6 12.25 9.65 12.3 9.7 12.35 9.7 12.4 9.75 12.45 9.75 12.5 9.8 12.55 9.8 12.6 9.8 12.65 9.8 12.65 9.8 12.7 9.8 12.75 9.8 12.8 9.8 12.8 9.8 12.85 9.75 12.85 9.75 12.9 9.7 12.95 9.7 12.95 9.65 13.0 9.6 13.0 9.6 13.0 9.6 13.0 9.6 13.0 9.55 13.0 9.55 13.0 9.5 13.0 9.5 13.0 9.45 13.0 9.45 13.0 9.4 13.0 9.4 13.0 9.35 13.0 9.3 13.0 9.3 13.0 9.25 13.0 9.2 13.0 9.15 13.0 9.1 13.0 9.05 13.0 8.95 12.95 8.9 12.95 8.8 12.9 8.7 12.85 8.55 12.85 8.45 12.8 8.3 12.75 8.15 12.7 8.0 12.65 7.85 12.55 7.65 12.5 7.5 12.4 7.3 12.35 7.1 12.25 6.9 12.2 6.75 12.15 6.6 12.05 6.45 12.0 6.3 11.95 6.15 11.9 6.05 11.8 5.95 11.75 5.9 11.7 5.8 11.65 5.75 11.6 5.7 11.55 5.65 11.5 5.6 11.45 5.6 11.4 5.6 11.4 5.6 11.35 5.6 11.35 5.6 L11.35 5.6 M18.3 8.0 Q18.2 8.0 18.15 8.0 18.05 8.0 17.95 8.0 17.9 8.0 17.8 8.0 17.7 8.0 17.65 8.05 17.55 8.05 17.5 8.05 17.45 8.05 17.35 8.1 17.3 8.1 17.25 8.1 17.15 8.15 17.1 8.15 17.05 8.15 17.0 8.2 16.95 8.2 16.85 8.25 16.8 8.25 16.75 8.3 16.65 8.35 16.6 8.35 16.5 8.4 16.45 8.45 16.35 8.5 16.3 8.55 16.2 8.6 16.1 8.65 16.05 8.7 15.95 8.75 15.6 9.0 15.3 9.25 15.0 9.5 14.75 9.8 14.5 10.1 14.3 10.45 14.1 10.75 13.9 11.15 13.75 11.5 13.6 11.9 13.5 12.3 13.4 12.75 13.3 13.15 13.3 13.65 13.25 14.1 13.25 14.6 13.25 15.0 13.3 15.35 13.3 15.7 13.35 16.05 13.4 16.35 13.5 16.7 13.6 17.0 13.7 17.3 13.85 17.6 14.0 17.9 14.15 18.15 14.3 18.4 14.5 18.65 14.7 18.9 14.9 19.15 15.15 19.35 15.3 19.5 15.45 19.6 15.55 19.7 15.75 19.8 15.9 19.9 16.05 20.0 16.2 20.05 16.35 20.15 16.5 20.2 16.7 20.25 16.85 20.3 17.05 20.35 17.2 20.35 17.4 20.4 17.6 20.4 17.75 20.4 18.0 20.4 18.3 20.35 18.55 20.35 18.75 20.25 19.0 20.2 19.25 20.1 19.45 20.0 19.7 19.9 19.9 19.75 20.1 19.6 20.3 19.45 20.45 19.25 20.65 19.1 20.85 18.85 21.0 18.65 21.15 18.4 21.25 18.25 21.3 18.15 21.4 18.0 21.45 17.85 21.5 17.7 21.6 17.55 21.65 17.4 21.7 17.25 21.7 17.15 21.75 17.0 21.8 16.85 21.8 16.7 21.85 16.55 21.85 16.4 21.85 16.25 21.85 16.05 21.85 15.9 21.85 15.75 21.85 15.6 21.8 15.45 21.8 15.3 21.75 15.2 21.75 15.05 21.7 14.9 21.7 14.75 21.65 14.65 21.6 14.5 21.55 14.4 21.5 14.3 21.45 14.2 21.35 14.05 21.3 13.95 21.2 13.8 21.05 13.65 20.9 13.45 20.8 13.35 20.65 13.2 20.45 13.1 20.3 13.0 20.15 12.9 19.95 12.85 19.75 12.75 19.55 12.7 19.35 12.65 19.15 12.6 18.95 12.6 18.7 12.55 18.45 12.55 18.3 12.55 18.2 12.55 18.05 12.6 17.95 12.6 17.8 12.65 17.7 12.65 17.55 12.7 17.45 12.75 17.35 12.8 17.2 12.85 17.1 12.9 17.0 12.95 16.9 13.05 16.8 13.1 16.7 13.2 16.6 13.3 16.55 13.35 16.5 13.4 16.5 13.4 16.45 13.45 16.4 13.5 16.4 13.55 16.35 13.55 16.35 13.6 16.3 13.65 16.3 13.7 16.25 13.75 16.25 13.75 16.25 13.8 16.25 13.85 16.25 13.9 16.25 13.9 16.25 13.95 16.25 13.95 16.25 14.0 16.25 14.0 16.25 14.05 16.3 14.05 16.3 14.1 16.3 14.1 16.35 14.1 16.35 14.15 16.4 14.15 16.4 14.15 16.45 14.15 16.5 14.15 16.55 14.2 16.6 14.2 16.65 14.2 16.65 14.2 16.7 14.2 16.75 14.2 16.8 14.15 16.8 14.15 16.85 14.15 16.9 14.15 16.95 14.15 17.0 14.1 17.05 14.1 17.1 14.1 17.15 14.1 17.2 14.05 17.25 14.05 17.3 14.05 17.35 14.05 17.4 14.0 17.45 14.0 17.5 14.0 17.55 13.95 17.6 13.95 17.65 13.95 17.7 13.95 17.75 13.9 17.8 13.9 17.9 13.9 17.95 13.9 18.0 13.9 18.05 13.9 18.1 13.9 18.2 13.9 18.25 13.9 18.3 13.9 18.4 13.9 18.45 13.95 18.5 13.95 18.55 13.95 18.6 14.0 18.7 14.05 18.75 14.05 18.8 14.1 18.85 14.15 18.95 14.2 19.0 14.25 19.05 14.35 19.1 14.4 19.15 14.45 19.2 14.5 19.25 14.6 19.35 14.7 19.4 14.8 19.45 14.85 19.45 14.95 19.5 15.05 19.55 15.15 19.6 15.25 19.6 15.4 19.6 15.5 19.65 15.6 19.65 15.75 19.65 15.85 19.65 16.0 19.65 16.1 19.65 16.35 19.65 16.55 19.65 16.75 19.6 16.95 19.6 17.15 19.55 17.35 19.5 17.5 19.45 17.7 19.35 17.85 19.3 18.0 19.2 18.15 19.15 18.25 19.05 18.4 18.95 18.5 18.85 18.6 18.7 18.7 18.65 18.75 18.6 18.8 18.55 18.8 18.5 18.85 18.4 18.9 18.35 18.9 18.3 18.95 18.25 18.95 18.2 19.0 18.15 19.0 18.1 19.0 18.05 19.05 18.0 19.05 17.95 19.05 17.9 19.05 17.85 19.05 17.8 19.05 17.75 19.05 17.7 19.05 17.65 19.05 17.6 19.05 17.55 19.0 17.5 19.0 17.45 19.0 17.4 19.0 17.35 18.95 17.3 18.95 17.25 18.95 17.2 18.9 17.15 18.9 17.1 18.9 17.1 18.85 17.0 18.8 16.9 18.75 16.8 18.7 16.7 18.6 16.6 18.55 16.55 18.45 16.45 18.4 16.4 18.3 16.3 18.2 16.25 18.1 16.2 18.0 16.1 17.85 16.05 17.75 16.0 17.65 15.95 17.5 15.95 17.35 15.9 17.2 15.85 17.1 15.85 16.95 15.8 16.8 15.75 16.65 15.75 16.45 15.7 16.3 15.7 16.15 15.65 15.95 15.65 15.75 15.65 15.6 15.65 15.4 15.6 15.2 15.6 15.0 15.6 14.8 15.6 14.6 15.6 14.4 15.6 14.2 15.6 13.95 15.65 13.75 15.65 13.55 15.65 13.4 15.7 13.2 15.7 13.0 15.75 12.8 15.75 12.65 15.8 12.45 15.8 12.3 15.85 12.1 15.9 11.95 15.95 11.8 16.0 11.65 16.1 11.35 16.2 11.05 16.3 10.8 16.4 10.55 16.5 10.3 16.65 10.15 16.8 9.95 16.9 9.75 17.05 9.6 17.2 9.5 17.35 9.4 17.5 9.3 17.7 9.2 17.85 9.2 18.0 9.15 18.2 9.15 L18.6 9.15 Q18.65 9.15 18.75 9.15 18.8 9.15 18.85 9.15 18.9 9.15 18.95 9.2 19.0 9.2 19.0 9.2 19.05 9.25 19.1 9.25 19.1 9.3 19.15 9.3 19.15 9.35 19.15 9.35 19.15 9.4 19.15 9.45 19.15 9.45 19.15 9.5 19.15 9.5 19.15 9.55 19.15 9.55 19.15 9.55 19.15 9.6 19.15 9.6 19.1 9.65 19.1 9.7 19.1 9.7 19.1 9.75 19.05 9.75 19.05 9.8 19.05 9.8 19.0 9.85 19.0 9.9 18.95 9.9 18.95 9.95 18.95 10.0 18.95 10.0 18.95 10.05 18.9 10.05 18.9 10.1 18.9 10.15 18.9 10.15 18.9 10.2 18.9 10.25 18.85 10.25 18.85 10.3 18.85 10.35 18.85 10.35 18.85 10.4 18.85 10.4 18.85 10.45 18.85 10.5 18.85 10.5 18.85 10.55 18.85 10.55 18.85 10.6 18.9 10.6 18.9 10.65 18.9 10.7 18.9 10.7 18.9 10.75 18.95 10.75 18.95 10.8 18.95 10.8 19.0 10.9 19.05 10.95 19.1 11.05 19.15 11.1 19.2 11.2 19.25 11.25 19.35 11.3 19.4 11.35 19.5 11.4 19.55 11.4 19.65 11.45 19.75 11.45 19.8 11.5 19.9 11.5 20.0 11.5 20.15 11.5 20.2 11.5 20.2 11.5 20.25 11.5 20.3 11.5 20.3 11.45 20.35 11.45 20.4 11.45 20.45 11.4 20.5 11.4 20.55 11.35 20.6 11.35 20.65 11.3 20.7 11.3 20.75 11.25 20.85 11.2 20.9 11.15 20.95 11.1 21.0 11.05 21.05 11.0 21.1 10.95 21.15 10.9 21.2 10.85 21.2 10.8 21.25 10.75 21.3 10.7 21.3 10.6 21.35 10.55 21.35 10.5 21.35 10.45 21.35 10.35 21.35 10.3 21.35 10.25 21.35 10.1 21.35 10.0 21.35 9.85 21.3 9.75 21.3 9.65 21.25 9.5 21.2 9.4 21.15 9.3 21.1 9.2 21.05 9.1 21.0 9.0 20.9 8.9 20.85 8.85 20.75 8.75 20.65 8.65 20.55 8.6 20.45 8.5 20.35 8.45 20.25 8.4 20.1 8.3 20.0 8.25 19.85 8.2 19.7 8.15 19.6 8.15 19.45 8.1 19.3 8.05 19.15 8.05 19.0 8.0 18.8 8.0 18.65 8.0 18.5 8.0 18.3 8.0 L18.3 8.0" fill="#ffffff" fill-rule="evenodd" stroke="none"/>
    </g>
  </defs>
</svg>
