<?xml version="1.0" encoding="UTF-8" standalone="no"?>
<svg xmlns:ffdec="https://www.free-decompiler.com/flash" xmlns:xlink="http://www.w3.org/1999/xlink" ffdec:objectType="frame" height="26.55px" width="70.8px" xmlns="http://www.w3.org/2000/svg">
  <g transform="matrix(1.0, 0.0, 0.0, 1.0, 0.2, 0.4)">
    <use ffdec:characterId="3" height="26.0" transform="matrix(1.0, 0.0, 0.0, 1.0, 0.0, 0.0)" width="26.0" xlink:href="#shape0"/>
    <use ffdec:characterId="84" height="26.0" transform="matrix(1.0, 0.0, 0.0, 1.0, 0.0, 0.0)" width="26.0" xlink:href="#shape1"/>
    <use ffdec:characterId="84" height="26.0" transform="matrix(1.0, 0.0, 0.0, 1.0, 0.0, 0.0)" width="26.0" xlink:href="#shape1"/>
  </g>
  <defs>
    <g id="shape0" transform="matrix(1.0, 0.0, 0.0, 1.0, 0.0, 0.0)">
      <path d="M23.5 2.45 Q23.5 2.5 23.5 2.5 23.5 2.55 23.5 2.55 23.5 2.55 23.5 2.55 23.5 2.6 23.5 2.6 L23.5 4.05 22.85 3.8 23.5 4.5 23.5 5.25 22.95 5.25 23.5 6.45 23.5 7.1 23.3 8.15 23.5 7.8 23.5 9.55 22.85 9.85 23.15 10.05 23.75 9.8 23.75 8.05 23.5 8.4 23.75 7.35 23.75 6.7 23.2 5.5 23.75 5.5 23.75 4.75 23.1 4.05 23.75 4.3 23.75 2.85 Q23.75 2.8 23.75 2.8 23.75 2.7 23.75 2.65 23.75 2.55 23.7 2.55 23.7 2.5 23.65 2.5 23.6 2.5 23.5 2.45 L23.5 2.45 M23.5 10.4 L23.5 22.5 23.5 23.15 Q23.5 23.4 23.5 23.4 23.45 23.5 23.4 23.5 23.35 23.5 23.15 23.5 L22.5 23.5 21.85 23.5 20.95 23.5 21.0 23.75 22.1 23.75 22.75 23.75 23.4 23.75 Q23.65 23.75 23.7 23.75 23.75 23.7 23.75 23.4 L23.75 22.75 23.75 10.55 23.5 10.4 M20.7 22.75 L19.95 23.5 16.1 23.5 15.25 23.05 15.2 23.5 14.15 23.5 13.9 23.5 12.75 23.4 12.05 23.5 10.85 23.5 10.7 23.3 10.2 23.55 9.7 23.5 8.85 23.25 8.4 23.5 7.5 23.5 7.25 23.35 6.45 23.5 5.85 23.5 5.2 23.5 4.55 23.5 3.95 23.45 3.25 23.5 2.85 23.5 Q2.85 23.55 2.85 23.6 2.85 23.65 2.85 23.7 2.8 23.7 2.8 23.75 2.85 23.75 2.85 23.75 2.85 23.75 2.85 23.75 L3.5 23.75 4.2 23.7 4.8 23.75 5.45 23.75 6.05 23.75 6.7 23.75 7.45 23.6 7.75 23.75 8.65 23.75 9.1 23.5 9.9 23.75 10.45 23.8 10.95 23.55 11.1 23.75 12.3 23.75 13.0 23.65 14.1 23.75 14.4 23.75 15.4 23.75 15.5 23.3 16.35 23.75 20.15 23.75 20.75 23.2 20.7 22.75" fill="#ffffff" fill-rule="evenodd" stroke="none"/>
      <path d="M2.6 2.2 L5.95 2.2 6.2 2.65 6.5 2.4 7.75 2.2 13.5 2.2 13.7 2.7 14.15 2.2 15.45 2.2 16.65 2.2 17.15 2.65 17.35 2.2 18.0 2.2 23.15 2.2 Q23.35 2.2 23.4 2.25 23.45 2.25 23.5 2.35 23.5 2.4 23.5 2.55 23.5 2.55 23.5 2.6 L23.5 4.05 22.85 3.8 23.5 4.5 23.5 5.25 22.95 5.25 23.5 6.45 23.5 7.1 23.3 8.15 23.5 7.8 23.5 9.55 22.85 9.85 23.5 10.3 23.5 22.5 23.5 23.15 Q23.5 23.4 23.5 23.4 23.45 23.5 23.4 23.5 23.35 23.5 23.15 23.5 L22.5 23.5 21.85 23.5 20.75 23.5 20.7 22.75 19.95 23.5 16.1 23.5 15.25 23.05 15.2 23.5 14.15 23.5 13.9 23.5 12.75 23.4 12.05 23.5 10.85 23.5 10.7 23.3 10.2 23.55 9.7 23.5 8.85 23.25 8.4 23.5 7.5 23.5 7.25 23.35 6.45 23.5 5.85 23.5 5.2 23.5 4.55 23.5 3.95 23.45 3.25 23.5 2.6 23.5 Q2.6 23.5 2.6 23.5 2.6 23.5 2.6 23.5 2.4 23.5 2.35 23.5 2.3 23.5 2.25 23.45 2.25 23.4 2.25 23.2 2.25 23.2 2.25 23.2 2.25 23.2 2.25 23.2 2.25 23.15 2.25 23.15 L2.25 17.7 3.05 17.5 2.25 16.75 2.25 16.1 2.25 15.45 2.25 14.45 2.65 14.15 2.25 13.9 2.25 10.65 2.65 10.45 2.25 9.9 2.25 9.0 2.25 8.35 2.25 7.7 2.75 7.2 2.25 6.85 2.25 2.6 Q2.25 2.55 2.25 2.55 2.25 2.4 2.25 2.35 2.3 2.25 2.35 2.25 2.4 2.2 2.55 2.2 2.55 2.2 2.6 2.2 2.6 2.2 2.6 2.2 2.6 2.2 2.6 2.2 L2.6 2.2" fill="#000000" fill-rule="evenodd" stroke="none"/>
    </g>
    <g id="shape1" transform="matrix(1.0, 0.0, 0.0, 1.0, 0.0, 0.0)">
      <path d="M11.8 5.55 Q11.75 5.55 11.75 5.55 11.7 5.55 11.65 5.55 11.65 5.6 11.6 5.6 11.55 5.6 11.55 5.65 11.5 5.65 11.5 5.7 11.5 5.7 11.45 5.75 11.45 5.75 11.45 5.8 11.4 5.85 11.4 5.9 11.4 5.95 11.35 5.95 11.35 6.0 11.35 6.05 11.3 6.05 11.3 6.1 11.25 6.15 11.25 6.15 11.25 6.2 11.2 6.2 11.2 6.2 11.15 6.25 11.15 6.25 11.1 6.25 11.1 6.3 11.05 6.3 11.0 6.3 11.0 6.3 10.95 6.35 10.9 6.35 10.85 6.35 10.8 6.35 10.75 6.35 10.7 6.4 10.65 6.4 10.6 6.4 10.5 6.4 10.45 6.4 10.4 6.4 10.3 6.45 10.25 6.45 10.15 6.45 10.1 6.45 9.15 6.5 8.35 6.5 7.55 6.55 5.75 6.55 5.1 6.7 5.05 6.7 5.0 6.7 4.95 6.7 4.9 6.75 4.85 6.75 4.8 6.75 4.75 6.8 4.7 6.8 4.7 6.85 4.65 6.85 4.65 6.9 4.6 6.9 4.6 6.95 4.6 7.0 4.6 7.0 4.6 7.05 4.6 7.1 4.6 7.15 4.6 7.15 4.65 7.2 4.65 7.25 4.7 7.3 4.75 7.35 4.75 7.35 4.8 7.4 4.85 7.45 4.95 7.5 5.0 7.55 5.05 7.55 5.15 7.6 5.2 7.65 5.3 7.7 L6.1 8.0 6.1 18.85 5.3 19.2 Q5.2 19.25 5.15 19.25 5.05 19.3 5.0 19.35 4.9 19.4 4.85 19.4 4.8 19.45 4.75 19.5 4.7 19.55 4.7 19.6 4.65 19.6 4.65 19.65 4.6 19.7 4.6 19.75 4.6 19.8 4.6 19.85 4.6 19.9 4.6 19.9 4.6 19.95 4.6 19.95 4.65 20.0 4.65 20.05 4.7 20.05 4.7 20.1 4.75 20.1 4.8 20.1 4.8 20.15 4.85 20.15 4.9 20.2 4.95 20.2 5.0 20.2 5.05 20.2 5.6 20.3 7.15 20.35 7.6 20.35 8.05 20.35 8.3 20.35 8.65 20.35 8.9 20.4 8.95 20.4 9.0 20.4 9.05 20.4 9.1 20.4 9.15 20.35 9.2 20.35 9.25 20.35 9.3 20.35 9.35 20.35 9.35 20.3 9.4 20.3 9.45 20.3 9.45 20.3 9.5 20.3 9.5 20.25 9.55 20.25 9.6 20.25 9.6 20.25 9.65 20.25 9.7 20.25 9.7 20.25 9.75 20.25 9.8 20.25 9.8 20.25 9.85 20.25 9.9 20.25 9.95 20.25 10.0 20.25 10.0 20.2 10.0 20.15 10.0 20.05 10.0 19.95 9.95 19.8 9.95 19.75 9.95 19.7 9.9 19.65 9.9 19.6 9.9 19.55 9.85 19.5 9.85 19.45 9.8 19.45 9.75 19.4 9.75 19.35 9.7 19.35 9.65 19.3 9.6 19.3 9.55 19.3 9.5 19.25 9.45 19.25 9.35 19.25 9.25 19.2 9.2 19.2 9.1 19.15 9.05 19.15 8.95 19.1 8.9 19.1 8.85 19.05 8.8 19.0 8.75 18.95 8.7 18.9 8.65 18.85 8.6 18.8 8.6 18.75 8.55 18.7 8.5 18.65 8.35 18.1 8.35 16.05 L8.35 13.35 9.6 13.5 Q9.7 13.5 9.8 13.5 9.85 13.55 9.95 13.55 10.05 13.55 10.1 13.55 10.2 13.6 10.25 13.6 10.35 13.6 10.4 13.65 10.45 13.65 10.5 13.65 10.55 13.7 10.65 13.7 10.7 13.7 10.75 13.75 10.8 13.75 10.85 13.8 10.9 13.85 10.95 13.85 11.0 13.9 11.05 13.95 11.1 14.0 11.15 14.05 11.2 14.1 11.25 14.15 11.3 14.2 11.35 14.25 11.4 14.3 11.45 14.4 11.55 14.45 11.6 14.55 11.65 14.6 11.7 14.7 11.8 14.75 11.85 14.8 11.9 14.85 11.95 14.9 12.0 14.95 12.05 15.0 12.1 15.05 12.15 15.05 12.2 15.1 12.25 15.1 12.25 15.15 12.3 15.15 12.35 15.15 12.4 15.15 12.45 15.15 12.45 15.15 12.5 15.15 12.5 15.1 12.55 15.1 12.55 15.05 12.6 15.05 12.6 15.0 12.6 14.95 12.65 14.9 12.65 14.85 12.65 14.8 12.65 14.75 12.65 14.7 12.7 14.6 12.7 14.55 12.65 13.95 12.15 12.35 12.1 12.15 12.0 12.0 11.95 11.8 11.85 11.65 11.8 11.5 11.7 11.4 11.65 11.25 11.55 11.15 11.5 11.05 11.45 11.0 11.35 10.9 11.3 10.85 11.2 10.8 11.15 10.8 11.05 10.75 11.0 10.75 10.95 10.75 10.95 10.75 10.9 10.75 10.9 10.8 10.85 10.8 10.85 10.85 10.8 10.85 10.8 10.9 10.75 10.95 10.75 10.95 10.7 11.0 10.7 11.05 10.7 11.1 10.7 11.15 10.65 11.2 10.65 11.3 10.65 11.35 10.65 11.45 10.6 11.5 10.6 11.55 10.6 11.6 10.55 11.65 10.55 11.7 10.55 11.75 10.5 11.8 10.5 11.85 10.45 11.9 10.45 11.95 10.4 11.95 10.35 12.0 10.35 12.0 10.3 12.05 10.25 12.05 10.2 12.1 10.15 12.1 10.1 12.15 10.05 12.15 10.0 12.15 9.95 12.2 9.9 12.2 9.8 12.2 9.75 12.2 9.7 12.2 9.6 12.25 9.55 12.25 9.45 12.25 9.4 12.25 9.3 12.25 L8.35 12.25 8.35 7.7 9.45 7.7 Q9.7 7.7 9.95 7.7 10.15 7.75 10.4 7.75 10.6 7.8 10.8 7.85 11.0 7.95 11.15 8.0 11.3 8.1 11.45 8.2 11.6 8.3 11.75 8.4 11.85 8.55 12.0 8.7 12.1 8.8 12.15 9.0 12.2 9.05 12.25 9.1 12.25 9.2 12.3 9.25 12.35 9.3 12.4 9.35 12.45 9.4 12.5 9.45 12.5 9.5 12.55 9.5 12.6 9.55 12.65 9.6 12.7 9.6 12.75 9.65 12.8 9.7 12.85 9.7 12.9 9.7 12.95 9.75 13.0 9.75 13.05 9.75 13.05 9.75 13.1 9.75 13.15 9.75 13.2 9.75 13.2 9.75 13.25 9.75 13.3 9.75 13.3 9.7 13.35 9.7 13.35 9.65 13.4 9.6 13.4 9.6 13.4 9.6 13.4 9.55 13.4 9.55 13.45 9.55 13.45 9.5 13.45 9.5 13.45 9.45 13.45 9.45 13.45 9.4 13.45 9.4 13.45 9.35 13.45 9.3 13.45 9.3 13.45 9.25 13.45 9.2 13.45 9.15 13.45 9.1 13.45 9.05 13.45 9.0 13.4 8.9 13.4 8.85 13.4 8.75 13.35 8.65 13.3 8.5 13.3 8.4 13.25 8.25 13.2 8.1 13.15 7.95 13.1 7.8 13.0 7.65 12.95 7.45 12.85 7.25 12.8 7.05 12.7 6.85 12.65 6.7 12.55 6.55 12.5 6.4 12.45 6.25 12.4 6.15 12.3 6.0 12.25 5.9 12.2 5.85 12.15 5.75 12.1 5.7 12.05 5.65 12.0 5.6 11.95 5.6 11.9 5.55 11.85 5.55 11.85 5.55 11.8 5.55 11.8 5.55 L11.8 5.55 M20.75 7.8 Q20.7 7.8 20.65 7.8 20.6 7.8 20.55 7.85 20.5 7.9 20.4 7.95 20.3 8.0 20.2 8.05 20.15 8.1 20.1 8.1 20.05 8.15 20.0 8.15 20.0 8.2 19.95 8.2 19.9 8.25 19.85 8.25 19.85 8.3 19.8 8.3 19.75 8.3 19.75 8.3 19.7 8.3 19.65 8.35 19.65 8.35 19.6 8.35 L19.25 8.35 Q19.15 8.35 18.8 8.3 18.35 8.2 18.0 8.15 17.85 8.15 17.75 8.1 17.6 8.1 17.5 8.05 17.35 8.05 17.25 8.05 17.1 8.0 17.0 8.0 16.9 8.0 16.8 8.0 16.65 8.0 16.55 8.0 16.45 8.0 16.35 7.95 16.25 7.95 16.15 7.95 16.05 7.95 15.95 7.95 15.85 8.0 15.75 8.0 15.65 8.0 15.6 8.05 15.5 8.05 15.45 8.1 15.35 8.1 15.3 8.15 15.2 8.2 15.15 8.25 15.1 8.3 15.05 8.35 15.0 8.4 14.95 8.45 14.9 8.5 14.85 8.6 14.8 8.65 14.75 8.7 14.7 8.8 14.7 8.85 14.65 8.95 14.6 9.05 14.55 9.15 14.55 9.2 14.5 9.3 14.5 9.4 14.45 9.5 14.45 9.65 14.4 9.75 14.4 9.85 14.3 10.85 14.3 10.95 14.3 11.0 14.3 11.05 14.3 11.1 14.3 11.1 14.3 11.15 14.3 11.15 14.3 11.2 14.35 11.25 14.4 11.25 14.45 11.25 14.5 11.25 14.6 11.25 14.65 11.25 14.8 11.25 14.85 11.25 14.9 11.2 14.95 11.2 15.0 11.15 15.05 11.15 15.05 11.1 15.1 11.1 15.15 11.05 15.2 11.0 15.2 11.0 15.25 10.95 15.3 10.9 15.35 10.85 15.35 10.8 15.4 10.75 15.4 10.7 15.45 10.65 15.45 10.6 15.5 10.6 15.5 10.55 15.55 10.5 15.6 10.45 15.6 10.45 15.65 10.4 15.65 10.4 15.7 10.35 15.75 10.35 15.75 10.3 15.8 10.3 15.85 10.3 15.85 10.3 15.9 10.3 15.95 10.25 16.1 10.25 16.2 10.25 16.35 10.25 16.5 10.2 16.7 10.2 16.9 10.2 17.1 10.2 L18.85 10.2 Q18.9 10.2 18.95 10.2 19.0 10.2 19.05 10.2 19.1 10.2 19.1 10.2 19.15 10.2 19.2 10.2 19.2 10.2 19.25 10.2 19.3 10.2 19.3 10.2 19.35 10.2 19.35 10.2 19.35 10.2 19.4 10.15 19.5 10.15 19.85 9.85 19.7 10.45 19.55 10.85 19.4 11.25 18.4 12.5 L17.3 13.85 Q17.05 14.15 16.85 14.45 16.6 14.75 16.45 15.05 16.25 15.35 16.1 15.65 15.95 15.9 15.8 16.15 15.7 16.45 15.6 16.7 15.5 16.95 15.45 17.2 15.4 17.4 15.35 17.65 15.3 17.85 15.3 18.1 15.3 18.3 15.3 18.5 15.35 18.7 15.4 18.85 15.4 19.05 15.45 19.2 15.5 19.35 15.6 19.5 15.65 19.65 15.75 19.75 15.8 19.9 15.9 20.0 16.05 20.1 16.15 20.2 16.25 20.25 16.4 20.35 16.45 20.35 16.45 20.35 16.5 20.4 16.5 20.4 16.55 20.4 16.6 20.4 16.6 20.4 16.65 20.4 16.7 20.45 16.75 20.45 16.75 20.45 16.8 20.45 16.85 20.45 16.9 20.45 16.95 20.45 17.0 20.45 17.05 20.45 17.1 20.45 17.15 20.45 17.2 20.4 17.25 20.4 17.3 20.4 17.35 20.35 17.4 20.35 17.45 20.3 17.55 20.25 17.6 20.2 17.65 20.15 17.7 20.1 17.8 20.05 17.85 20.0 17.95 19.95 18.0 19.9 18.0 19.9 18.05 19.85 18.1 19.8 18.1 19.75 18.15 19.7 18.15 19.6 18.15 19.55 18.2 19.45 18.2 19.35 18.2 19.3 18.25 19.2 18.25 19.1 18.25 18.95 18.25 18.85 18.25 18.7 18.25 18.65 18.25 18.6 18.25 18.55 18.25 18.5 18.25 18.45 18.2 18.35 18.2 18.3 18.2 18.2 18.15 18.15 18.15 18.05 18.1 18.0 18.05 17.9 18.05 17.8 18.0 17.7 17.95 17.6 17.9 17.5 17.85 17.4 17.8 17.3 17.8 17.2 17.75 17.1 17.75 17.0 17.7 16.9 17.7 16.8 17.7 16.7 17.7 16.65 17.7 16.55 17.75 16.45 17.75 16.35 17.75 16.3 17.8 16.2 17.85 16.1 17.9 16.05 19.2 13.65 19.7 13.0 19.9 12.7 20.1 12.4 20.3 12.1 20.45 11.8 20.6 11.55 20.75 11.25 20.9 11.0 21.0 10.7 21.1 10.45 21.15 10.2 21.25 9.95 21.3 9.7 21.35 9.45 21.4 9.25 21.4 9.0 21.4 8.8 21.4 8.7 21.4 8.6 21.4 8.45 21.4 8.4 21.35 8.3 21.35 8.2 21.3 8.15 21.3 8.05 21.25 8.0 21.2 7.95 21.2 7.9 21.15 7.85 21.1 7.85 21.05 7.8 21.0 7.8 20.95 7.8 L20.75 7.8" fill="#ffffff" fill-rule="evenodd" stroke="none"/>
    </g>
  </defs>
</svg>
