<?xml version="1.0" encoding="UTF-8" standalone="no"?>
<svg xmlns:ffdec="https://www.free-decompiler.com/flash" xmlns:xlink="http://www.w3.org/1999/xlink" ffdec:objectType="frame" height="26.55px" width="70.8px" xmlns="http://www.w3.org/2000/svg">
  <g transform="matrix(1.0, 0.0, 0.0, 1.0, 0.2, 0.4)">
    <use ffdec:characterId="3" height="26.0" transform="matrix(1.0, 0.0, 0.0, 1.0, 0.0, 0.0)" width="26.0" xlink:href="#shape0"/>
    <use ffdec:characterId="86" height="26.0" transform="matrix(1.0, 0.0, 0.0, 1.0, 0.0, 0.0)" width="26.0" xlink:href="#shape1"/>
    <use ffdec:characterId="86" height="26.0" transform="matrix(1.0, 0.0, 0.0, 1.0, 0.0, 0.0)" width="26.0" xlink:href="#shape1"/>
  </g>
  <defs>
    <g id="shape0" transform="matrix(1.0, 0.0, 0.0, 1.0, 0.0, 0.0)">
      <path d="M23.5 2.45 Q23.5 2.5 23.5 2.5 23.5 2.55 23.5 2.55 23.5 2.55 23.5 2.55 23.5 2.6 23.5 2.6 L23.5 4.05 22.85 3.8 23.5 4.5 23.5 5.25 22.95 5.25 23.5 6.45 23.5 7.1 23.3 8.15 23.5 7.8 23.5 9.55 22.85 9.85 23.15 10.05 23.75 9.8 23.75 8.05 23.5 8.4 23.75 7.35 23.75 6.7 23.2 5.5 23.75 5.5 23.75 4.75 23.1 4.05 23.75 4.3 23.75 2.85 Q23.75 2.8 23.75 2.8 23.75 2.7 23.75 2.65 23.75 2.55 23.7 2.55 23.7 2.5 23.65 2.5 23.6 2.5 23.5 2.45 L23.5 2.45 M23.5 10.4 L23.5 22.5 23.5 23.15 Q23.5 23.4 23.5 23.4 23.45 23.5 23.4 23.5 23.35 23.5 23.15 23.5 L22.5 23.5 21.85 23.5 20.95 23.5 21.0 23.75 22.1 23.75 22.75 23.75 23.4 23.75 Q23.65 23.75 23.7 23.75 23.75 23.7 23.75 23.4 L23.75 22.75 23.75 10.55 23.5 10.4 M20.7 22.75 L19.95 23.5 16.1 23.5 15.25 23.05 15.2 23.5 14.15 23.5 13.9 23.5 12.75 23.4 12.05 23.5 10.85 23.5 10.7 23.3 10.2 23.55 9.7 23.5 8.85 23.25 8.4 23.5 7.5 23.5 7.25 23.35 6.45 23.5 5.85 23.5 5.2 23.5 4.55 23.5 3.95 23.45 3.25 23.5 2.85 23.5 Q2.85 23.55 2.85 23.6 2.85 23.65 2.85 23.7 2.8 23.7 2.8 23.75 2.85 23.75 2.85 23.75 2.85 23.75 2.85 23.75 L3.5 23.75 4.2 23.7 4.8 23.75 5.45 23.75 6.05 23.75 6.7 23.75 7.45 23.6 7.75 23.75 8.65 23.75 9.1 23.5 9.9 23.75 10.45 23.8 10.95 23.55 11.1 23.75 12.3 23.75 13.0 23.65 14.1 23.75 14.4 23.75 15.4 23.75 15.5 23.3 16.35 23.75 20.15 23.75 20.75 23.2 20.7 22.75" fill="#ffffff" fill-rule="evenodd" stroke="none"/>
      <path d="M2.6 2.2 L5.95 2.2 6.2 2.65 6.5 2.4 7.75 2.2 13.5 2.2 13.7 2.7 14.15 2.2 15.45 2.2 16.65 2.2 17.15 2.65 17.35 2.2 18.0 2.2 23.15 2.2 Q23.35 2.2 23.4 2.25 23.45 2.25 23.5 2.35 23.5 2.4 23.5 2.55 23.5 2.55 23.5 2.6 L23.5 4.05 22.85 3.8 23.5 4.5 23.5 5.25 22.95 5.25 23.5 6.45 23.5 7.1 23.3 8.15 23.5 7.8 23.5 9.55 22.85 9.85 23.5 10.3 23.5 22.5 23.5 23.15 Q23.5 23.4 23.5 23.4 23.45 23.5 23.4 23.5 23.35 23.5 23.15 23.5 L22.5 23.5 21.85 23.5 20.75 23.5 20.7 22.75 19.95 23.5 16.1 23.5 15.25 23.05 15.2 23.5 14.15 23.5 13.9 23.5 12.75 23.4 12.05 23.5 10.85 23.5 10.7 23.3 10.2 23.55 9.7 23.5 8.85 23.25 8.4 23.5 7.5 23.5 7.25 23.35 6.45 23.5 5.85 23.5 5.2 23.5 4.55 23.5 3.95 23.45 3.25 23.5 2.6 23.5 Q2.6 23.5 2.6 23.5 2.6 23.5 2.6 23.5 2.4 23.5 2.35 23.5 2.3 23.5 2.25 23.45 2.25 23.4 2.25 23.2 2.25 23.2 2.25 23.2 2.25 23.2 2.25 23.2 2.25 23.15 2.25 23.15 L2.25 17.7 3.05 17.5 2.25 16.75 2.25 16.1 2.25 15.45 2.25 14.45 2.65 14.15 2.25 13.9 2.25 10.65 2.65 10.45 2.25 9.9 2.25 9.0 2.25 8.35 2.25 7.7 2.75 7.2 2.25 6.85 2.25 2.6 Q2.25 2.55 2.25 2.55 2.25 2.4 2.25 2.35 2.3 2.25 2.35 2.25 2.4 2.2 2.55 2.2 2.55 2.2 2.6 2.2 2.6 2.2 2.6 2.2 2.6 2.2 2.6 2.2 L2.6 2.2" fill="#000000" fill-rule="evenodd" stroke="none"/>
    </g>
    <g id="shape1" transform="matrix(1.0, 0.0, 0.0, 1.0, 0.0, 0.0)">
      <path d="M11.3 5.6 Q11.25 5.6 11.25 5.6 11.2 5.6 11.15 5.6 11.15 5.6 11.1 5.65 11.05 5.65 11.05 5.65 11.0 5.7 11.0 5.7 11.0 5.75 10.95 5.8 10.95 5.8 10.95 5.85 10.9 5.9 10.9 5.9 10.9 5.95 10.85 6.0 10.85 6.0 10.85 6.05 10.8 6.1 10.8 6.15 10.8 6.15 10.75 6.2 10.75 6.2 10.7 6.25 10.7 6.25 10.65 6.25 10.65 6.3 10.6 6.3 10.6 6.3 10.55 6.35 10.5 6.35 10.5 6.35 10.45 6.4 10.4 6.4 10.35 6.4 10.3 6.4 10.25 6.4 10.2 6.4 10.15 6.45 10.1 6.45 10.05 6.45 9.95 6.45 9.9 6.45 9.8 6.45 9.75 6.45 9.65 6.45 8.85 6.55 7.05 6.55 5.15 6.6 4.6 6.7 4.55 6.7 4.5 6.75 4.45 6.75 4.4 6.75 4.35 6.75 4.3 6.8 4.25 6.8 4.25 6.85 4.2 6.85 4.15 6.9 4.15 6.9 4.15 6.95 4.1 7.0 4.1 7.0 4.1 7.05 4.1 7.1 4.1 7.15 4.1 7.2 4.1 7.2 4.15 7.25 4.15 7.3 4.2 7.35 4.25 7.35 4.25 7.4 4.3 7.45 4.4 7.5 4.45 7.5 4.5 7.55 4.55 7.6 4.65 7.65 4.7 7.7 4.8 7.7 L5.6 8.05 5.6 18.9 4.8 19.2 Q4.7 19.25 4.65 19.3 4.55 19.35 4.5 19.35 4.45 19.4 4.35 19.45 4.3 19.5 4.25 19.55 4.25 19.55 4.2 19.6 4.15 19.65 4.15 19.7 4.1 19.75 4.1 19.8 4.1 19.8 4.1 19.85 4.1 19.9 4.1 19.9 4.1 19.95 4.15 20.0 4.15 20.05 4.15 20.05 4.2 20.1 4.2 20.1 4.25 20.15 4.3 20.15 4.3 20.2 4.35 20.2 4.4 20.2 4.45 20.25 4.5 20.25 4.55 20.25 5.2 20.35 6.65 20.35 8.25 20.4 8.45 20.4 8.5 20.4 8.5 20.4 8.55 20.4 8.6 20.4 8.6 20.4 8.65 20.4 8.65 20.4 8.7 20.4 8.75 20.4 8.75 20.4 8.8 20.4 8.8 20.4 8.85 20.35 8.85 20.35 8.9 20.35 8.9 20.35 8.95 20.35 8.95 20.35 9.0 20.3 9.0 20.3 9.05 20.3 9.1 20.3 9.1 20.3 9.15 20.3 9.2 20.3 9.2 20.3 9.25 20.3 9.3 20.3 9.35 20.3 9.35 20.3 9.4 20.3 9.45 20.3 9.5 20.3 9.5 20.25 9.5 20.25 9.5 20.2 9.5 20.15 9.5 20.05 9.5 19.95 9.45 19.8 9.45 19.75 9.45 19.7 9.4 19.65 9.4 19.6 9.4 19.55 9.35 19.55 9.35 19.5 9.3 19.45 9.25 19.45 9.25 19.4 9.2 19.35 9.15 19.35 9.1 19.35 9.05 19.3 9.0 19.3 8.95 19.3 8.85 19.3 8.75 19.25 8.7 19.25 8.6 19.2 8.55 19.2 8.45 19.15 8.4 19.1 8.35 19.1 8.3 19.05 8.25 19.0 8.2 18.95 8.15 18.9 8.1 18.85 8.1 18.8 8.05 18.75 8.05 18.65 8.0 18.6 8.0 18.5 8.0 18.4 7.95 18.3 7.95 18.2 7.95 18.05 7.9 17.9 7.9 17.75 7.9 17.6 7.9 17.4 7.9 17.2 7.85 17.0 7.85 16.8 7.85 16.55 7.85 16.35 7.85 16.05 L7.85 13.4 9.1 13.55 Q9.2 13.55 9.3 13.55 9.35 13.55 9.45 13.6 9.55 13.6 9.6 13.6 9.7 13.6 9.75 13.65 9.85 13.65 9.9 13.65 9.95 13.7 10.0 13.7 10.1 13.7 10.15 13.75 10.2 13.75 10.25 13.75 10.3 13.8 10.35 13.8 10.4 13.85 10.45 13.9 10.5 13.95 10.55 13.95 10.6 14.0 10.65 14.05 10.7 14.1 10.75 14.15 10.8 14.25 10.85 14.3 10.9 14.35 11.0 14.45 11.05 14.5 11.1 14.6 11.15 14.65 11.2 14.75 11.3 14.8 11.35 14.85 11.4 14.9 11.45 14.95 11.5 15.0 11.55 15.05 11.6 15.05 11.65 15.1 11.7 15.1 11.75 15.15 11.8 15.15 11.8 15.15 11.85 15.2 11.9 15.2 11.95 15.2 11.95 15.2 12.0 15.15 12.0 15.15 12.05 15.15 12.05 15.1 12.1 15.1 12.1 15.05 12.15 15.0 12.15 14.95 12.15 14.9 12.15 14.85 12.15 14.8 12.2 14.75 12.2 14.65 12.2 14.6 12.2 14.5 12.2 14.45 12.15 14.35 12.15 14.25 12.15 14.1 12.1 14.0 12.1 13.85 12.05 13.75 12.0 13.6 11.95 13.45 11.9 13.3 11.85 13.1 11.8 12.95 11.75 12.75 11.7 12.6 11.65 12.4 11.6 12.2 11.5 12.0 11.45 11.85 11.35 11.7 11.3 11.55 11.2 11.4 11.15 11.3 11.1 11.2 11.0 11.1 10.95 11.0 10.85 10.95 10.8 10.9 10.7 10.85 10.65 10.8 10.55 10.8 10.5 10.8 10.45 10.8 10.45 10.8 10.4 10.8 10.4 10.85 10.35 10.85 10.35 10.85 10.3 10.9 10.3 10.95 10.25 10.95 10.25 11.0 10.25 11.05 10.2 11.1 10.2 11.15 10.2 11.2 10.15 11.25 10.15 11.3 10.15 11.4 10.15 11.45 10.1 11.5 10.1 11.55 10.1 11.65 10.1 11.7 10.05 11.75 10.05 11.8 10.0 11.85 10.0 11.9 9.95 11.9 9.95 11.95 9.9 12.0 9.9 12.05 9.85 12.05 9.8 12.1 9.75 12.1 9.7 12.15 9.65 12.15 9.6 12.15 9.55 12.2 9.5 12.2 9.45 12.2 9.4 12.25 9.35 12.25 9.25 12.25 9.2 12.25 9.1 12.25 9.05 12.25 8.95 12.3 8.9 12.3 8.8 12.3 L7.85 12.3 7.85 7.7 8.95 7.7 Q9.2 7.7 9.45 7.75 9.65 7.75 9.9 7.8 10.1 7.85 10.3 7.9 10.5 7.95 10.65 8.05 10.8 8.1 10.95 8.25 11.1 8.35 11.25 8.45 11.4 8.55 11.5 8.7 11.6 8.85 11.7 9.0 11.75 9.05 11.75 9.15 11.8 9.2 11.85 9.25 11.85 9.3 11.9 9.35 11.95 9.4 12.0 9.45 12.05 9.5 12.05 9.55 12.1 9.6 12.15 9.6 12.2 9.65 12.25 9.7 12.3 9.7 12.35 9.75 12.4 9.75 12.45 9.8 12.5 9.8 12.55 9.8 12.6 9.8 12.6 9.8 12.65 9.8 12.7 9.8 12.75 9.8 12.75 9.8 12.8 9.75 12.8 9.75 12.85 9.7 12.9 9.7 12.9 9.65 12.95 9.6 12.95 9.6 12.95 9.55 12.9 9.9 12.95 9.5 12.95 9.45 12.95 9.45 12.95 9.4 12.95 9.35 12.95 9.25 12.95 9.2 12.95 9.15 12.95 9.1 12.95 9.05 12.95 8.95 12.9 8.9 12.9 8.8 12.85 8.7 12.8 8.55 12.8 8.45 12.75 8.3 12.7 8.15 12.65 8.0 12.6 7.85 12.5 7.65 12.45 7.5 12.35 7.3 12.3 7.1 12.2 6.9 12.15 6.75 12.1 6.6 12.0 6.45 11.95 6.3 11.9 6.15 11.85 6.05 11.75 5.95 11.7 5.9 11.65 5.8 11.6 5.75 11.55 5.7 11.5 5.65 11.45 5.6 11.4 5.6 11.35 5.6 11.35 5.6 11.3 5.6 11.3 5.6 L11.3 5.6 M17.2 7.95 Q17.05 7.95 16.95 7.95 16.85 8.0 16.7 8.0 16.6 8.05 16.45 8.05 16.35 8.1 16.25 8.1 16.1 8.15 16.0 8.2 15.9 8.25 15.8 8.3 15.65 8.35 15.55 8.4 15.45 8.45 15.35 8.5 15.25 8.55 15.1 8.65 15.0 8.7 14.9 8.8 14.8 8.9 14.7 9.0 14.6 9.1 14.5 9.2 14.4 9.3 14.3 9.4 14.2 9.5 14.1 9.6 14.05 9.75 13.95 9.85 13.85 10.0 13.8 10.1 13.7 10.25 13.65 10.35 13.6 10.5 13.55 10.65 13.45 10.75 13.4 10.9 13.35 11.0 13.35 11.15 13.3 11.25 13.25 11.4 13.25 11.5 13.2 11.6 13.2 11.75 13.2 11.85 13.15 12.0 13.15 12.1 13.15 12.2 13.15 12.35 13.2 12.45 13.2 12.6 13.2 12.7 13.25 12.8 13.25 12.95 13.3 13.05 13.35 13.15 13.35 13.3 13.4 13.4 13.45 13.55 13.5 13.65 13.55 13.75 13.65 13.9 13.7 14.0 13.75 14.1 13.85 14.25 13.9 14.35 13.95 14.45 14.05 14.55 14.1 14.65 14.2 14.75 14.25 14.8 14.35 14.9 14.4 14.95 14.5 15.05 14.55 15.1 14.65 15.15 14.75 15.2 14.8 15.25 14.9 15.3 15.0 15.35 15.1 15.4 15.15 15.4 15.25 15.45 15.35 15.5 15.45 15.5 15.55 15.55 15.65 15.55 15.8 15.6 15.9 15.6 16.0 15.6 16.15 15.65 16.25 15.65 16.35 15.65 16.5 15.65 16.65 15.65 16.8 15.65 16.9 15.65 17.05 15.65 17.15 15.65 17.25 15.6 17.35 15.6 17.5 15.55 17.6 15.55 17.7 15.5 17.8 15.45 17.85 15.45 17.95 15.4 18.05 15.35 18.15 15.3 18.2 15.2 18.3 15.15 18.35 15.1 18.45 15.05 18.5 15.0 18.55 14.95 18.6 14.9 18.65 14.85 18.7 14.8 18.7 14.75 18.75 14.7 18.8 14.65 18.8 14.6 18.8 14.55 18.85 14.5 18.85 14.5 18.85 14.45 18.85 14.4 18.85 14.35 18.85 14.3 18.85 14.3 18.8 14.25 18.8 14.2 18.75 14.2 18.75 14.15 18.7 14.15 18.65 14.15 18.6 14.15 18.55 14.15 18.55 14.15 18.5 14.15 18.45 14.15 18.4 14.15 18.4 14.15 18.35 14.2 18.3 14.2 18.25 14.2 18.2 14.2 18.15 14.2 18.1 14.25 18.05 14.25 18.0 14.25 17.95 14.3 17.9 14.3 17.85 14.3 17.8 14.3 17.75 14.35 17.7 14.35 17.65 14.35 17.6 14.35 17.55 14.4 17.5 14.4 17.45 14.4 17.45 14.4 17.4 14.4 17.35 14.4 17.3 14.4 17.25 14.4 17.2 14.4 17.15 14.4 17.0 14.4 16.9 14.4 16.75 14.35 16.65 14.35 16.55 14.3 16.45 14.25 16.35 14.2 16.25 14.15 16.15 14.1 16.05 14.0 16.0 13.9 15.9 13.8 15.85 13.7 15.75 13.6 15.7 13.45 15.65 13.35 15.6 13.25 15.6 13.2 15.55 13.1 15.55 13.0 15.5 12.95 15.5 12.85 15.5 12.75 15.45 12.65 15.45 12.55 15.45 12.45 15.4 12.4 15.4 12.3 15.4 12.2 15.4 12.1 15.4 12.0 15.4 11.85 15.4 11.8 15.4 11.8 15.4 11.75 15.4 11.7 15.4 11.6 15.4 11.45 15.4 11.35 15.45 11.25 15.45 11.1 15.5 11.0 15.5 10.9 15.55 10.8 15.6 10.7 15.65 10.55 15.7 10.45 15.75 10.35 15.8 10.25 15.85 10.15 15.95 10.05 16.0 10.0 16.05 9.9 16.15 9.8 16.2 9.75 16.3 9.65 16.35 9.6 16.45 9.5 16.5 9.45 16.6 9.4 16.7 9.35 16.75 9.3 16.85 9.25 16.9 9.25 17.0 9.2 17.1 9.2 17.15 9.2 17.25 9.2 17.4 9.2 17.55 9.2 17.65 9.25 17.8 9.25 17.9 9.3 18.05 9.35 18.15 9.4 18.25 9.45 18.35 9.55 18.45 9.6 18.55 9.7 18.6 9.8 18.7 9.9 18.75 10.05 18.85 10.15 18.9 10.3 18.95 10.45 19.0 10.6 19.05 10.75 19.1 10.9 19.15 11.1 19.2 11.3 19.2 11.5 19.25 11.7 19.3 11.9 19.3 12.15 19.3 12.35 19.35 12.6 19.35 12.85 19.35 13.1 19.35 13.4 19.35 13.65 19.35 13.95 19.35 14.2 19.35 14.45 19.35 14.75 19.3 14.95 19.3 15.2 19.3 15.45 19.25 15.65 19.25 15.85 19.2 16.05 19.15 16.25 19.15 16.45 19.1 16.6 19.05 16.8 19.0 16.95 18.95 17.1 18.9 17.25 18.85 17.4 18.8 17.5 18.7 17.65 18.65 17.75 18.6 17.9 18.5 18.0 18.45 18.1 18.35 18.2 18.25 18.3 18.2 18.4 18.1 18.5 18.0 18.6 17.9 18.7 17.8 18.8 17.7 18.85 17.65 18.9 17.6 18.95 17.55 18.95 17.5 19.0 17.45 19.05 17.35 19.05 17.3 19.1 17.25 19.1 17.2 19.15 17.15 19.15 17.1 19.15 17.05 19.2 17.0 19.2 16.95 19.2 16.85 19.2 16.8 19.2 16.75 19.2 16.7 19.2 16.65 19.2 16.6 19.2 16.55 19.2 16.5 19.2 16.45 19.2 16.4 19.2 16.35 19.2 16.3 19.2 16.3 19.15 16.25 19.15 16.2 19.15 16.15 19.1 16.15 19.1 16.1 19.05 16.05 19.05 16.05 19.0 16.0 19.0 16.0 18.95 16.0 18.95 16.0 18.9 15.95 18.85 15.95 18.85 15.95 18.8 15.95 18.75 15.95 18.75 16.0 18.7 16.0 18.65 16.0 18.6 16.05 18.55 16.05 18.5 16.1 18.45 16.1 18.4 16.1 18.35 16.15 18.3 16.15 18.3 16.2 18.25 16.2 18.2 16.2 18.15 16.25 18.1 16.25 18.1 16.25 18.05 16.25 18.0 16.25 17.95 16.25 17.95 16.25 17.9 16.25 17.85 16.25 17.8 16.25 17.8 16.25 17.75 16.25 17.75 16.25 17.7 16.2 17.65 16.2 17.6 16.15 17.6 16.15 17.55 16.1 17.5 16.1 17.45 16.05 17.4 16.05 17.35 16.0 17.3 15.95 17.25 15.9 17.2 15.85 17.15 15.8 17.1 15.75 17.1 15.7 17.05 15.65 17.0 15.6 17.0 15.55 16.95 15.5 16.95 15.45 16.95 15.45 16.9 15.4 16.9 15.35 16.9 15.3 16.85 15.25 16.85 15.2 16.85 15.15 16.85 15.1 16.85 15.05 16.85 15.0 16.85 14.95 16.85 14.9 16.85 14.9 16.9 14.85 16.9 14.8 16.9 14.75 16.9 14.7 16.9 14.65 16.95 14.65 16.95 14.6 16.95 14.55 16.95 14.5 17.0 14.45 17.0 14.35 17.05 14.25 17.1 14.15 17.15 14.1 17.25 14.0 17.3 13.95 17.35 13.9 17.45 13.85 17.5 13.8 17.6 13.75 17.7 13.7 17.75 13.7 17.85 13.7 17.95 13.65 18.05 13.65 18.15 13.65 18.3 13.65 18.35 13.65 18.45 13.7 18.5 13.7 18.6 13.75 18.65 13.75 18.75 13.8 18.85 13.85 18.9 13.9 19.0 14.0 19.1 14.05 19.15 14.15 19.25 14.2 19.35 14.3 19.45 14.4 19.55 14.5 19.6 14.6 19.7 14.7 19.8 14.85 19.9 14.95 19.95 15.05 20.05 15.2 20.1 15.3 20.15 15.45 20.2 15.55 20.25 15.7 20.3 15.85 20.35 16.0 20.35 16.1 20.4 16.25 20.4 16.4 20.4 16.55 20.4 16.7 20.4 16.85 20.4 17.0 20.4 17.15 20.35 17.3 20.3 17.5 20.3 17.65 20.25 17.8 20.2 17.95 20.1 18.15 20.05 18.3 20.0 18.45 19.9 18.65 19.8 18.8 19.7 19.0 19.6 19.15 19.5 19.3 19.4 19.5 19.25 19.65 19.15 19.8 19.0 19.95 18.85 20.1 18.7 20.25 18.55 20.35 18.4 20.5 18.25 20.6 18.1 20.75 17.9 20.85 17.75 20.95 17.55 21.05 17.4 21.15 17.2 21.25 17.0 21.35 16.8 21.4 16.6 21.5 16.4 21.55 16.2 21.6 16.0 21.65 15.8 21.7 15.65 21.75 15.4 21.8 15.2 21.8 15.0 21.85 14.8 21.85 14.6 21.9 14.4 21.9 14.2 21.9 14.0 21.9 13.75 21.9 13.4 21.9 13.05 21.85 12.7 21.8 12.4 21.75 12.1 21.7 11.8 21.6 11.5 21.5 11.2 21.4 10.9 21.3 10.65 21.15 10.4 21.0 10.15 20.9 9.9 20.7 9.7 20.55 9.45 20.35 9.25 20.2 9.1 20.05 8.95 19.85 8.8 19.7 8.7 19.5 8.55 19.35 8.45 19.15 8.35 18.95 8.3 18.75 8.2 18.55 8.15 18.35 8.1 18.1 8.05 17.9 8.0 17.65 8.0 17.4 7.95 17.2 7.95 L17.2 7.95" fill="#ffffff" fill-rule="evenodd" stroke="none"/>
    </g>
  </defs>
</svg>
