<?xml version="1.0" encoding="UTF-8" standalone="no"?>
<svg xmlns:ffdec="https://www.free-decompiler.com/flash" xmlns:xlink="http://www.w3.org/1999/xlink" ffdec:objectType="frame" height="26.55px" width="70.8px" xmlns="http://www.w3.org/2000/svg">
  <g transform="matrix(1.0, 0.0, 0.0, 1.0, 0.2, 0.4)">
    <use ffdec:characterId="88" height="26.0" transform="matrix(1.0, 0.0, 0.0, 1.0, 0.0, 0.0)" width="52.95" xlink:href="#shape0"/>
    <use ffdec:characterId="89" height="26.0" transform="matrix(1.0, 0.0, 0.0, 1.0, 0.0, 0.0)" width="52.95" xlink:href="#shape1"/>
    <use ffdec:characterId="89" height="26.0" transform="matrix(1.0, 0.0, 0.0, 1.0, 0.0, 0.0)" width="52.95" xlink:href="#shape1"/>
  </g>
  <defs>
    <g id="shape0" transform="matrix(1.0, 0.0, 0.0, 1.0, 0.0, 0.0)">
      <path d="M52.4 2.45 Q52.4 2.5 52.4 2.5 52.4 2.55 52.4 2.55 52.4 2.55 52.4 2.6 L52.4 4.05 51.8 3.8 52.4 4.5 52.4 5.25 51.85 5.25 52.4 6.45 52.4 7.1 52.2 8.15 52.4 7.8 52.4 9.55 51.8 9.85 52.1 10.05 52.65 9.8 52.65 8.05 52.45 8.4 52.65 7.35 52.65 6.7 52.1 5.5 52.65 5.5 52.65 4.75 52.0 4.05 52.65 4.3 52.65 2.85 Q52.65 2.85 52.65 2.8 52.65 2.7 52.65 2.65 52.65 2.55 52.6 2.55 52.6 2.5 52.55 2.5 52.5 2.5 52.4 2.45 L52.4 2.45 M52.4 10.4 L52.4 22.5 52.4 23.15 Q52.4 23.4 52.4 23.4 52.4 23.5 52.3 23.5 52.3 23.5 52.05 23.5 L51.4 23.5 50.75 23.5 49.9 23.5 49.9 23.75 51.0 23.75 51.65 23.75 52.3 23.75 Q52.55 23.75 52.55 23.75 52.6 23.75 52.65 23.65 52.65 23.65 52.65 23.4 L52.65 22.75 52.65 10.55 52.4 10.4 M49.6 22.75 L48.85 23.5 30.75 23.5 29.9 23.05 29.85 23.5 28.8 23.5 28.5 23.5 27.4 23.4 26.7 23.5 25.5 23.5 25.35 23.3 24.85 23.55 7.7 23.5 6.9 23.25 6.45 23.5 5.55 23.5 5.25 23.35 4.5 23.5 3.85 23.5 3.2 23.5 2.6 23.5 2.0 23.45 1.3 23.5 0.9 23.5 Q0.9 23.55 0.9 23.6 0.85 23.65 0.85 23.7 0.85 23.7 0.85 23.75 0.85 23.75 0.9 23.75 0.9 23.75 0.9 23.75 L1.55 23.75 2.2 23.7 2.8 23.75 3.45 23.75 4.1 23.75 4.75 23.75 5.5 23.6 5.8 23.75 6.65 23.75 23.75 23.75 24.55 23.75 25.1 23.8 25.6 23.55 25.7 23.75 26.95 23.75 27.65 23.65 28.75 23.75 29.05 23.75 30.05 23.75 30.15 23.3 30.95 23.75 49.1 23.75 49.65 23.2 49.6 22.75" fill="#ffffff" fill-rule="evenodd" stroke="none"/>
      <path d="M0.65 2.2 L4.0 2.2 4.25 2.65 4.55 2.4 5.8 2.2 19.55 2.2 19.7 2.7 20.15 2.2 21.45 2.2 40.9 2.2 41.4 2.65 41.6 2.2 42.25 2.2 52.05 2.2 Q52.25 2.2 52.3 2.25 52.4 2.25 52.4 2.35 52.4 2.4 52.4 2.55 52.4 2.55 52.4 2.6 L52.4 4.05 51.75 3.8 52.4 4.5 52.4 5.25 51.85 5.25 52.4 6.45 52.4 7.1 52.2 8.15 52.4 7.8 52.4 9.55 51.75 9.85 52.4 10.3 52.4 22.5 52.4 23.15 Q52.4 23.4 52.4 23.4 52.4 23.5 52.3 23.5 52.3 23.5 52.05 23.5 L51.4 23.5 50.75 23.5 49.65 23.5 49.6 22.75 48.85 23.5 30.75 23.5 29.9 23.05 29.85 23.5 28.8 23.5 28.5 23.5 27.4 23.4 26.7 23.5 25.5 23.5 25.35 23.3 24.85 23.55 7.7 23.5 6.9 23.25 6.45 23.5 5.55 23.5 5.25 23.35 4.5 23.5 3.85 23.5 3.2 23.5 2.6 23.5 2.0 23.45 1.3 23.5 0.65 23.5 Q0.65 23.5 0.65 23.5 0.65 23.5 0.6 23.5 0.4 23.5 0.4 23.5 0.3 23.5 0.3 23.45 0.3 23.4 0.3 23.2 0.3 23.2 0.3 23.2 0.3 23.2 0.3 23.2 0.3 23.2 0.3 23.2 0.3 23.15 0.3 23.15 L0.3 17.7 1.1 17.5 0.3 16.75 0.3 16.1 0.3 15.45 0.3 14.45 0.7 14.15 0.3 13.9 0.3 10.65 0.65 10.45 0.3 9.9 0.3 9.0 0.3 8.35 0.3 7.7 0.75 7.2 0.3 6.85 0.3 2.6 Q0.3 2.55 0.3 2.55 0.3 2.4 0.3 2.35 0.35 2.25 0.4 2.25 0.45 2.2 0.6 2.2 0.6 2.2 0.6 2.2 0.65 2.2 0.65 2.2 0.65 2.2 0.65 2.2 0.65 2.2 0.65 2.2 L0.65 2.2" fill="#000000" fill-rule="evenodd" stroke="none"/>
    </g>
    <g id="shape1" transform="matrix(1.0, 0.0, 0.0, 1.0, 0.0, 0.0)">
      <path d="M46.3 5.9 Q46.05 5.95 44.6 6.75 44.4 6.85 44.25 6.95 44.1 7.05 43.95 7.1 43.8 7.2 43.7 7.3 43.6 7.35 43.5 7.45 43.4 7.5 43.35 7.6 43.25 7.65 43.2 7.75 43.15 7.8 43.15 7.85 43.1 7.9 43.1 7.95 43.1 8.0 43.1 8.05 43.15 8.1 43.15 8.1 43.15 8.15 43.2 8.2 43.2 8.2 43.25 8.25 43.25 8.25 43.3 8.3 43.3 8.3 43.35 8.3 43.4 8.3 43.45 8.35 43.5 8.35 43.55 8.35 43.6 8.35 43.65 8.35 L44.15 8.35 44.15 18.1 43.5 18.4 Q43.45 18.45 43.35 18.45 43.3 18.5 43.25 18.55 43.2 18.6 43.15 18.6 43.1 18.65 43.1 18.65 43.05 18.7 43.0 18.75 43.0 18.75 43.0 18.8 42.95 18.8 42.95 18.85 42.95 18.9 42.95 18.9 42.95 18.95 42.95 19.0 43.0 19.0 43.05 19.05 43.1 19.1 43.15 19.1 43.25 19.15 43.35 19.15 43.45 19.15 43.6 19.2 43.7 19.2 43.85 19.2 44.0 19.2 44.2 19.2 44.35 19.25 44.55 19.25 46.3 19.2 46.55 19.15 46.6 19.15 46.65 19.15 46.7 19.15 46.75 19.1 46.75 19.1 46.8 19.1 46.85 19.05 46.85 19.05 46.9 19.0 46.9 19.0 46.9 18.95 46.95 18.95 46.95 18.9 46.95 18.9 46.95 18.85 46.95 18.8 46.95 18.75 46.95 18.75 46.95 18.7 46.95 18.7 46.95 18.65 46.95 18.65 46.95 18.6 46.9 18.6 46.9 18.6 46.9 18.55 46.85 18.55 46.85 18.55 46.8 18.55 46.75 18.5 46.75 18.5 46.7 18.5 46.6 18.5 46.5 18.5 46.4 18.45 46.3 18.4 46.2 18.35 46.15 18.3 46.05 18.2 46.0 18.1 45.95 18.0 45.9 17.9 45.85 17.75 45.85 17.65 45.8 17.5 45.8 17.3 45.8 17.15 45.8 16.95 45.8 15.95 45.85 15.95 45.9 15.95 46.25 16.5 46.3 16.55 46.35 16.65 46.4 16.7 46.45 16.75 46.55 16.85 46.6 16.95 46.65 17.0 46.75 17.1 46.8 17.2 46.9 17.25 47.0 17.35 47.05 17.45 47.15 17.55 47.25 17.65 47.35 17.75 47.45 17.85 47.55 17.95 47.65 18.05 47.75 18.15 47.8 18.25 47.9 18.35 48.0 18.45 48.05 18.55 48.15 18.6 48.25 18.7 48.3 18.75 48.4 18.8 48.45 18.9 48.5 18.95 48.6 19.0 48.65 19.05 48.7 19.1 48.75 19.15 48.8 19.15 48.9 19.2 48.95 19.25 49.0 19.25 49.05 19.3 49.15 19.3 49.2 19.35 49.25 19.35 49.3 19.4 49.4 19.4 49.45 19.4 49.5 19.4 49.6 19.45 49.65 19.45 49.7 19.45 49.75 19.45 49.85 19.45 49.9 19.45 49.95 19.4 50.05 19.4 50.1 19.35 50.15 19.35 50.2 19.3 50.3 19.3 50.35 19.25 50.4 19.2 50.5 19.15 50.55 19.1 50.6 19.05 50.7 19.0 50.75 18.95 50.8 18.9 50.85 18.85 50.9 18.8 50.95 18.75 51.0 18.7 51.05 18.65 51.1 18.6 51.15 18.55 51.15 18.5 51.2 18.45 51.2 18.45 51.2 18.4 51.25 18.35 51.25 18.3 51.25 18.3 51.25 18.25 51.25 18.2 51.25 18.15 51.25 18.15 51.2 18.1 51.2 18.05 51.15 18.05 51.15 18.0 51.1 18.0 51.05 17.95 51.0 17.95 50.95 17.95 50.9 17.95 50.85 17.9 50.8 17.9 50.75 17.9 50.65 17.9 50.6 17.9 50.5 17.9 50.45 17.9 50.35 17.9 50.3 17.9 50.25 17.9 50.2 17.9 50.15 17.85 50.05 17.85 50.0 17.85 49.95 17.85 49.95 17.8 49.9 17.8 49.85 17.8 49.8 17.75 49.75 17.75 49.7 17.75 49.7 17.7 49.65 17.7 49.6 17.65 49.55 17.6 49.5 17.6 49.45 17.55 49.4 17.5 49.35 17.45 49.3 17.4 49.2 17.35 49.15 17.25 49.1 17.2 49.0 17.15 48.95 17.05 48.9 17.0 48.8 16.9 48.75 16.85 48.7 16.75 48.6 16.7 48.55 16.6 48.45 16.55 48.4 16.45 48.35 16.35 48.25 16.3 48.2 16.2 48.15 16.15 48.1 16.05 48.0 15.95 47.95 15.9 47.9 15.8 47.85 15.75 L47.4 15.15 48.25 14.4 Q48.4 14.25 48.5 14.1 48.65 14.0 48.75 13.9 48.9 13.75 49.0 13.65 49.1 13.6 49.2 13.5 49.25 13.4 49.35 13.35 49.4 13.3 49.5 13.25 49.55 13.2 49.6 13.15 49.65 13.15 49.65 13.15 49.75 13.1 49.85 13.05 49.9 13.05 50.0 13.0 50.05 12.95 50.1 12.9 50.2 12.85 50.25 12.8 50.3 12.75 50.3 12.65 50.35 12.6 50.35 12.55 50.4 12.5 50.4 12.4 50.4 12.35 50.4 12.3 50.4 12.25 50.4 12.2 50.4 12.15 50.35 12.1 50.35 12.1 50.3 12.05 50.3 12.0 50.25 12.0 50.25 11.95 50.2 11.95 50.15 11.95 50.1 11.9 50.05 11.9 50.0 11.9 49.9 11.9 49.85 11.9 49.45 11.85 48.9 11.85 48.3 11.8 48.25 11.8 47.75 11.8 47.65 11.85 47.6 11.85 47.6 11.9 47.55 11.9 47.55 11.9 47.5 11.95 47.5 11.95 47.45 12.0 47.45 12.0 47.45 12.05 47.45 12.05 47.4 12.1 47.4 12.15 47.4 12.15 47.4 12.2 47.4 12.25 47.4 12.3 47.4 12.35 47.4 12.35 47.4 12.4 47.4 12.45 47.4 12.45 47.45 12.5 47.45 12.5 47.45 12.55 47.5 12.55 47.5 12.6 47.55 12.6 47.55 12.6 47.6 12.6 47.6 12.6 47.65 12.6 47.7 12.6 47.75 12.6 47.8 12.6 47.8 12.6 47.85 12.65 47.9 12.65 47.9 12.65 47.95 12.65 47.95 12.7 48.0 12.7 48.0 12.7 48.05 12.75 48.05 12.75 48.05 12.8 48.05 12.8 48.05 12.85 48.05 12.85 48.05 12.9 48.05 12.95 48.05 13.0 48.0 13.1 47.95 13.15 47.9 13.25 47.9 13.3 47.8 13.4 47.75 13.5 47.7 13.6 47.6 13.65 47.5 13.75 47.4 13.85 47.3 14.0 47.2 14.1 47.05 14.2 L45.85 15.35 45.8 11.5 Q45.8 10.65 45.8 9.35 45.8 9.25 45.8 9.15 45.8 9.05 45.8 8.95 45.8 8.9 45.8 8.8 45.8 8.7 45.8 8.6 45.8 8.55 45.8 8.45 45.8 8.4 45.8 8.3 45.8 8.25 45.8 8.15 45.8 8.1 45.85 8.05 45.85 8.0 45.85 7.9 45.85 7.85 45.9 7.8 45.9 7.7 45.9 7.65 45.95 7.6 45.95 7.55 45.95 7.45 46.0 7.4 46.05 7.35 46.05 7.3 46.1 7.25 46.1 7.15 46.15 7.1 46.2 7.05 46.25 7.0 46.3 6.95 46.3 6.9 46.35 6.85 46.4 6.8 46.4 6.75 46.45 6.7 46.45 6.65 46.5 6.6 46.5 6.55 46.5 6.5 46.5 6.45 46.55 6.4 46.55 6.35 46.55 6.35 46.55 6.3 46.55 6.25 46.55 6.2 46.55 6.15 46.55 6.15 46.55 6.1 46.55 6.05 46.55 6.05 46.5 6.0 46.5 6.0 46.5 5.95 46.45 5.95 46.45 5.95 46.4 5.95 46.4 5.95 46.35 5.9 46.3 5.9 L46.3 5.9 M3.0 7.4 Q2.95 7.4 2.95 7.4 2.9 7.4 2.9 7.4 2.85 7.45 2.8 7.45 2.8 7.45 2.75 7.45 2.7 7.45 2.65 7.45 2.6 7.5 2.55 7.5 2.5 7.5 2.45 7.55 2.35 7.55 2.3 7.55 2.25 7.55 2.2 7.6 2.2 7.6 2.15 7.65 2.1 7.65 2.1 7.7 2.05 7.75 2.05 7.8 2.0 7.85 2.0 7.9 2.0 7.95 1.95 8.0 1.95 8.05 1.95 8.15 1.95 8.2 1.95 8.3 1.95 8.55 1.95 8.6 2.0 8.7 2.0 8.8 2.05 8.9 2.05 8.95 2.1 9.05 2.15 9.1 2.15 9.15 2.2 9.2 2.25 9.25 2.3 9.3 2.3 9.35 2.35 9.35 2.4 9.4 2.45 9.4 2.5 9.4 2.55 9.4 L2.55 9.4 Q2.7 9.45 2.7 9.45 2.75 9.45 2.75 9.5 2.8 9.55 2.85 9.6 2.85 9.65 2.9 9.75 2.9 9.8 2.9 9.9 2.95 10.05 2.95 10.15 2.95 10.3 2.95 10.45 3.0 10.6 3.0 10.8 3.0 11.0 3.0 11.2 L3.05 12.2 Q3.05 12.85 3.05 14.25 3.1 15.45 3.1 16.0 3.05 17.6 3.0 17.85 3.0 17.9 2.95 17.95 2.95 18.0 2.9 18.05 2.9 18.1 2.85 18.1 2.8 18.15 2.75 18.2 2.7 18.25 2.65 18.25 2.6 18.3 2.55 18.3 2.5 18.35 2.4 18.35 2.35 18.4 2.3 18.4 2.25 18.4 2.15 18.4 2.1 18.45 2.05 18.45 2.0 18.5 1.95 18.5 1.9 18.5 1.85 18.55 1.8 18.55 1.8 18.6 1.75 18.65 1.75 18.65 1.7 18.7 1.7 18.75 1.7 18.75 1.7 18.8 1.7 18.85 1.7 18.85 1.7 18.9 1.7 18.95 1.75 18.95 1.75 19.0 1.75 19.0 1.8 19.05 1.8 19.05 1.85 19.05 1.85 19.1 1.9 19.1 1.95 19.15 2.0 19.15 2.0 19.15 2.05 19.15 2.45 19.25 3.7 19.25 5.05 19.2 5.35 19.15 5.4 19.15 5.45 19.15 5.45 19.15 5.5 19.1 5.55 19.1 5.55 19.1 5.6 19.05 5.6 19.05 5.65 19.0 5.65 19.0 5.65 18.95 5.7 18.95 5.7 18.9 5.7 18.85 5.7 18.85 5.7 18.8 5.7 18.75 5.7 18.75 5.7 18.7 5.65 18.65 5.65 18.65 5.65 18.6 5.6 18.6 5.6 18.55 5.55 18.55 5.5 18.5 5.5 18.5 5.45 18.45 5.4 18.45 5.35 18.45 5.3 18.4 5.25 18.4 5.2 18.4 5.2 18.4 5.15 18.4 5.15 18.35 5.1 18.35 5.1 18.35 5.05 18.35 5.0 18.35 5.0 18.3 4.95 18.3 4.95 18.3 4.9 18.3 4.9 18.25 4.85 18.25 4.85 18.25 4.8 18.2 4.75 18.15 4.75 18.15 4.7 18.1 4.65 18.1 4.65 18.05 4.6 18.05 4.6 18.0 4.55 17.95 4.55 17.95 4.5 17.9 4.5 17.85 4.45 17.75 4.45 17.7 4.4 17.6 4.4 17.45 4.4 17.35 4.35 17.2 4.35 17.05 4.35 16.9 4.35 16.7 4.3 16.5 4.3 16.3 4.3 16.05 4.3 15.8 4.3 15.55 4.3 15.3 4.3 14.6 4.3 14.05 L4.4 10.3 5.5 11.3 Q5.6 11.35 5.65 11.45 5.75 11.55 5.85 11.6 5.95 11.7 6.0 11.8 6.1 11.95 6.2 12.05 6.3 12.15 6.4 12.3 6.45 12.4 6.55 12.55 6.65 12.7 6.75 12.85 6.85 13.0 6.95 13.15 L8.55 15.7 Q8.6 15.8 8.65 15.9 8.75 15.95 8.8 16.05 8.85 16.15 8.9 16.25 8.95 16.35 9.0 16.4 9.05 16.5 9.05 16.6 9.1 16.7 9.15 16.75 9.2 16.85 9.2 16.95 9.25 17.05 9.25 17.15 9.3 17.25 9.3 17.3 9.35 17.4 9.35 17.5 9.4 17.6 9.4 17.7 9.4 17.8 9.45 17.95 9.45 18.05 9.45 18.15 9.5 18.3 9.5 18.4 9.5 18.55 9.5 18.7 9.55 18.8 9.55 18.95 9.55 19.0 9.55 19.05 9.6 19.05 9.6 19.1 9.6 19.15 9.65 19.15 9.7 19.2 9.75 19.2 9.75 19.25 9.8 19.25 9.85 19.25 9.95 19.3 10.0 19.3 10.05 19.3 10.15 19.3 10.25 19.3 10.35 19.3 10.4 19.3 10.45 19.3 10.55 19.3 10.6 19.3 10.65 19.25 10.7 19.25 10.75 19.25 10.8 19.25 10.85 19.2 10.9 19.2 10.9 19.2 10.95 19.15 10.95 19.15 11.0 19.1 11.0 19.1 L11.0 19.1 10.8 13.8 10.8 8.75 11.45 8.5 Q11.5 8.5 11.6 8.45 11.65 8.45 11.7 8.4 11.75 8.4 11.8 8.35 11.85 8.3 11.9 8.3 11.95 8.25 11.95 8.2 12.0 8.15 12.0 8.1 12.0 8.05 12.05 8.05 12.05 8.0 12.05 7.95 12.05 7.9 12.05 7.9 12.05 7.85 12.05 7.8 12.0 7.8 12.0 7.75 12.0 7.75 11.95 7.7 11.95 7.7 11.9 7.7 11.9 7.65 11.85 7.65 11.85 7.65 11.8 7.6 11.8 7.6 11.75 7.6 11.4 7.55 10.25 7.55 9.0 7.55 8.6 7.6 8.55 7.6 8.5 7.6 8.45 7.65 8.4 7.65 8.35 7.65 8.35 7.65 8.3 7.7 8.25 7.7 8.25 7.7 8.2 7.75 8.2 7.75 8.15 7.8 8.15 7.8 8.15 7.8 8.1 7.85 8.1 7.85 8.1 7.9 8.1 7.9 8.1 7.95 8.05 8.0 8.05 8.0 8.1 8.05 8.1 8.05 8.1 8.1 8.1 8.1 8.1 8.15 8.1 8.15 8.15 8.2 8.15 8.25 8.2 8.25 8.2 8.3 8.25 8.3 8.25 8.35 8.3 8.35 8.3 8.35 8.35 8.4 8.4 8.4 8.4 8.45 8.45 8.45 8.45 8.45 8.5 8.5 8.55 8.5 8.55 8.5 8.6 8.55 8.65 8.55 8.7 8.55 8.75 8.55 8.75 8.55 8.8 8.55 8.85 8.55 8.85 8.6 8.9 8.6 8.95 8.6 8.95 8.65 9.0 8.65 9.0 8.65 9.05 8.7 9.05 8.7 9.1 8.7 9.1 8.75 9.15 8.75 9.15 8.8 9.15 8.8 9.2 8.85 9.3 9.1 9.35 10.8 L9.4 13.85 8.9 12.95 Q8.8 12.7 8.65 12.5 8.5 12.25 8.35 12.05 8.25 11.8 8.1 11.6 7.95 11.4 7.75 11.2 7.6 11.0 7.45 10.75 7.3 10.55 7.1 10.35 6.95 10.2 6.75 10.0 6.6 9.8 6.4 9.6 6.1 9.35 5.85 9.1 5.6 8.85 5.35 8.65 5.1 8.45 4.85 8.3 4.65 8.1 4.45 7.95 4.2 7.85 4.0 7.75 3.8 7.65 3.65 7.55 3.45 7.5 3.3 7.45 3.15 7.4 3.0 7.4 L3.0 7.4 M36.8 7.55 Q35.7 7.55 35.3 7.6 35.25 7.6 35.2 7.6 35.15 7.65 35.1 7.65 35.05 7.65 35.0 7.65 35.0 7.7 34.95 7.7 34.9 7.7 34.9 7.75 34.85 7.75 34.85 7.75 34.85 7.8 34.8 7.8 34.8 7.85 34.8 7.85 34.8 7.9 34.75 7.95 34.75 8.0 34.75 8.0 34.75 8.05 34.75 8.1 34.75 8.1 34.75 8.15 34.75 8.2 34.75 8.2 34.8 8.25 34.85 8.3 34.85 8.3 34.95 8.35 35.05 8.4 35.0 8.35 35.05 8.4 35.05 8.4 35.1 8.4 35.1 8.4 35.15 8.45 35.2 8.45 35.2 8.45 35.25 8.5 35.3 8.5 35.35 8.55 35.4 8.55 35.45 8.55 35.5 8.6 35.55 8.6 L36.05 8.9 36.05 18.0 35.35 18.3 Q35.3 18.35 35.2 18.35 35.15 18.4 35.1 18.45 35.05 18.45 35.0 18.5 34.95 18.55 34.9 18.55 34.85 18.6 34.85 18.65 34.8 18.65 34.8 18.7 34.8 18.75 34.75 18.75 34.75 18.8 34.75 18.85 34.75 18.9 34.75 18.9 34.75 18.95 34.8 18.95 34.8 19.0 34.85 19.0 34.85 19.05 34.9 19.05 34.9 19.05 34.95 19.1 35.0 19.1 35.05 19.1 35.05 19.15 35.1 19.15 35.15 19.15 35.25 19.15 35.65 19.25 37.8 19.3 39.65 19.3 40.5 19.4 40.6 19.4 40.65 19.4 40.7 19.4 40.8 19.45 40.85 19.45 40.9 19.45 40.95 19.45 41.0 19.5 41.0 19.5 41.05 19.5 41.1 19.55 41.1 19.55 41.1 19.55 41.15 19.6 41.15 19.6 41.15 19.65 41.15 19.7 41.15 19.75 41.15 19.8 41.15 19.85 41.2 19.85 41.2 19.9 41.2 19.95 41.25 19.95 41.3 20.0 41.3 20.0 41.35 20.05 41.4 20.05 41.4 20.05 41.45 20.05 41.5 20.1 41.55 20.1 41.6 20.1 41.6 20.1 41.65 20.05 41.7 20.05 41.7 20.05 41.75 20.0 41.8 20.0 41.8 19.95 41.85 19.95 41.9 19.9 41.95 19.9 41.95 19.85 42.0 19.8 42.05 19.75 42.05 19.65 42.1 19.6 42.15 19.5 42.2 19.4 42.25 19.3 42.3 19.15 42.35 19.0 42.4 18.85 42.45 18.7 42.5 18.55 42.55 18.35 42.6 18.15 43.1 16.65 43.1 16.35 43.1 16.1 43.05 16.1 43.05 16.05 43.0 16.05 43.0 16.0 43.0 15.95 42.95 15.95 42.95 15.95 42.9 15.9 42.9 15.9 42.85 15.9 42.85 15.9 42.8 15.9 42.75 15.9 42.75 15.9 42.7 15.9 42.7 15.9 42.65 15.9 42.6 15.9 42.6 15.95 42.55 15.95 42.5 15.95 42.5 16.0 42.45 16.0 42.4 16.05 42.4 16.1 42.35 16.1 42.3 16.15 42.3 16.2 42.25 16.25 42.2 16.25 42.2 16.3 42.15 16.35 42.1 16.4 41.95 16.65 41.8 16.85 41.65 17.05 41.5 17.25 41.3 17.4 41.15 17.55 41.0 17.7 40.8 17.8 40.6 17.95 40.4 18.05 40.2 18.1 40.0 18.15 39.8 18.25 39.6 18.25 39.35 18.3 39.15 18.3 39.1 18.3 39.05 18.3 39.05 18.3 39.0 18.3 38.95 18.3 38.9 18.25 38.9 18.25 38.85 18.25 38.8 18.25 38.8 18.25 38.8 18.25 38.75 18.2 38.75 18.2 38.7 18.2 38.7 18.15 38.65 18.15 38.6 18.1 38.6 18.1 38.55 18.05 38.55 18.05 38.5 18.0 38.45 17.95 38.45 17.9 38.4 17.9 38.35 17.85 38.3 17.8 38.25 17.75 38.25 17.7 38.2 17.65 38.15 17.6 38.15 17.55 38.1 17.5 38.1 17.45 38.05 17.35 38.05 17.3 38.0 17.25 38.0 17.2 38.0 17.15 37.95 17.1 37.95 17.0 37.95 16.95 37.95 16.9 37.95 16.85 37.95 16.75 37.95 16.7 37.95 16.6 37.95 16.5 37.95 16.45 37.95 16.35 37.9 16.25 37.9 16.15 37.9 16.05 37.9 15.95 37.9 15.85 37.9 15.75 37.9 15.6 37.9 15.5 37.9 15.4 37.9 15.25 37.9 14.3 37.9 13.55 37.95 13.05 L38.0 8.85 38.65 8.6 Q38.75 8.55 38.8 8.5 38.9 8.5 38.95 8.45 39.0 8.4 39.05 8.35 39.1 8.3 39.15 8.3 39.2 8.25 39.2 8.2 39.25 8.15 39.25 8.1 39.3 8.05 39.3 8.0 39.3 7.95 39.3 7.9 39.3 7.85 39.3 7.85 39.3 7.8 39.3 7.8 39.25 7.75 39.25 7.75 39.25 7.75 39.2 7.7 39.2 7.7 39.15 7.7 39.15 7.65 39.1 7.65 39.05 7.65 39.0 7.6 39.0 7.6 38.95 7.6 38.5 7.55 37.15 7.55 37.0 7.55 36.8 7.55 L36.8 7.55 M23.3 11.3 Q23.25 11.3 23.2 11.3 23.2 11.35 23.15 11.35 23.1 11.4 23.1 11.45 23.0 11.55 22.0 11.7 21.85 11.7 21.75 11.75 21.65 11.75 21.55 11.8 21.45 11.8 21.4 11.8 21.3 11.85 21.25 11.9 21.15 11.9 21.15 11.95 21.1 11.95 21.05 12.0 21.0 12.05 21.0 12.05 21.0 12.1 21.0 12.15 21.0 12.15 21.0 12.2 21.0 12.25 21.05 12.25 21.05 12.3 21.1 12.3 21.1 12.35 21.15 12.4 21.2 12.4 21.25 12.45 21.3 12.5 21.35 12.5 21.45 12.55 21.5 12.6 21.6 12.65 21.7 12.7 21.7 12.7 21.75 12.75 21.75 12.75 21.75 12.75 21.8 12.8 21.8 12.8 21.8 12.85 21.85 12.85 21.85 12.9 21.85 12.95 21.85 12.95 21.9 13.0 21.9 13.05 21.9 13.1 21.9 13.15 21.9 13.2 22.0 13.5 22.05 15.45 L22.1 18.0 21.5 18.35 Q21.4 18.4 21.35 18.4 21.3 18.45 21.25 18.45 21.2 18.5 21.15 18.55 21.1 18.55 21.05 18.6 21.0 18.6 21.0 18.65 20.95 18.7 20.95 18.7 20.9 18.75 20.9 18.75 20.9 18.8 20.9 18.8 20.9 18.85 20.95 18.9 21.0 18.95 21.1 19.0 21.2 19.05 21.3 19.1 21.45 19.1 21.65 19.15 21.85 19.15 22.05 19.2 22.3 19.2 22.6 19.2 22.85 19.25 23.2 19.25 23.5 19.25 23.85 19.25 L23.85 19.25 Q24.25 19.25 24.5 19.2 24.7 19.2 24.8 19.15 24.85 19.15 24.85 19.1 24.9 19.05 24.9 19.05 24.9 19.0 24.9 18.95 24.95 18.9 24.95 18.85 24.95 18.8 24.95 18.75 24.95 18.7 24.9 18.7 24.9 18.65 24.85 18.6 24.85 18.55 24.8 18.55 24.8 18.5 24.75 18.5 24.7 18.45 24.65 18.45 24.6 18.4 24.55 18.4 24.5 18.35 24.45 18.35 24.4 18.35 24.35 18.3 24.3 18.3 24.25 18.25 24.15 18.25 24.15 18.2 24.1 18.15 24.05 18.1 24.0 18.1 24.0 18.05 23.95 18.0 23.9 17.9 23.9 17.85 23.85 17.8 23.85 17.75 23.85 17.65 23.85 17.6 23.8 17.5 23.8 17.45 23.8 17.35 23.75 17.25 23.75 17.15 23.75 17.05 23.75 16.95 23.75 16.8 23.75 16.7 23.7 16.55 23.7 16.45 23.7 16.3 23.7 16.15 23.7 16.0 23.7 15.85 23.7 15.7 23.7 15.55 23.7 15.4 23.7 15.25 23.75 15.1 23.75 14.95 23.75 14.85 23.75 14.7 23.8 14.6 23.8 14.45 23.8 14.35 23.85 14.25 23.85 14.15 23.9 14.05 23.9 13.95 23.95 13.85 23.95 13.8 23.95 13.75 24.0 13.75 24.0 13.7 24.05 13.65 24.05 13.6 24.1 13.55 24.15 13.5 24.15 13.45 24.2 13.4 24.25 13.35 24.3 13.35 24.35 13.3 24.4 13.25 24.45 13.2 24.5 13.15 24.55 13.1 24.6 13.05 24.65 13.0 24.75 12.95 24.8 12.95 24.85 12.9 24.9 12.85 24.95 12.85 25.0 12.8 25.1 12.8 25.15 12.8 25.2 12.75 25.25 12.75 25.3 12.75 25.35 12.75 25.4 12.75 25.45 12.75 25.5 12.75 25.6 12.75 25.65 12.8 25.7 12.8 25.75 12.8 25.8 12.85 25.85 12.85 25.95 12.9 26.0 12.95 26.05 12.95 26.1 13.0 26.15 13.05 26.2 13.1 26.25 13.15 26.3 13.25 26.35 13.3 26.4 13.4 26.45 13.5 26.5 13.65 26.55 13.75 26.6 13.95 26.6 14.1 26.65 14.3 26.7 14.5 26.7 14.7 26.7 14.95 26.75 15.2 26.75 15.5 26.75 15.8 26.75 16.1 26.75 16.4 26.75 16.5 26.75 16.6 26.75 16.65 26.75 16.75 26.75 16.85 26.75 16.9 26.75 17.0 26.75 17.1 26.7 17.15 26.7 17.25 26.7 17.3 26.7 17.4 26.7 17.45 26.65 17.5 26.65 17.6 26.65 17.65 26.65 17.75 26.6 17.8 26.6 17.85 26.55 17.9 26.5 18.0 26.5 18.05 26.45 18.1 26.4 18.1 26.4 18.15 26.35 18.2 26.3 18.25 26.25 18.25 26.2 18.3 26.15 18.3 26.1 18.35 26.05 18.35 26.0 18.35 25.95 18.4 25.9 18.4 25.85 18.4 25.8 18.45 25.75 18.45 25.75 18.5 25.7 18.5 25.65 18.55 25.65 18.55 25.65 18.6 25.6 18.6 25.6 18.65 25.6 18.65 25.6 18.7 25.6 18.75 25.6 18.8 25.6 18.8 25.6 18.85 25.6 18.85 25.6 18.9 25.65 18.9 25.65 18.95 25.7 18.95 25.7 19.0 25.75 19.0 25.75 19.0 25.8 19.05 25.85 19.05 25.9 19.05 25.95 19.05 26.0 19.1 26.4 19.15 28.0 19.15 28.2 19.15 28.4 19.15 28.55 19.15 28.7 19.15 28.85 19.1 29.0 19.1 29.1 19.1 29.2 19.05 29.3 19.05 29.4 19.0 29.45 19.0 29.5 18.95 29.55 18.95 29.6 18.9 29.6 18.85 29.6 18.8 29.6 18.8 29.6 18.75 29.6 18.75 29.55 18.7 29.55 18.7 29.5 18.65 29.5 18.65 29.45 18.6 29.4 18.6 29.35 18.55 29.3 18.5 29.25 18.5 29.2 18.45 29.15 18.4 29.1 18.35 29.0 18.35 L28.4 18.0 28.4 15.9 Q28.4 14.35 28.45 14.0 28.45 13.95 28.5 13.9 28.5 13.85 28.5 13.8 28.55 13.75 28.55 13.7 28.6 13.65 28.65 13.6 28.65 13.55 28.7 13.5 28.75 13.45 28.8 13.4 28.8 13.35 28.85 13.3 28.9 13.25 28.95 13.15 29.0 13.1 29.05 13.05 29.1 13.0 29.2 13.0 29.25 12.95 29.3 12.9 29.35 12.85 29.45 12.85 29.5 12.8 29.55 12.8 29.65 12.8 29.7 12.75 29.75 12.75 29.85 12.75 29.9 12.75 30.0 12.75 L30.0 12.75 Q30.05 12.75 30.15 12.75 30.2 12.75 30.3 12.8 30.35 12.8 30.4 12.8 30.45 12.85 30.55 12.85 30.6 12.9 30.65 12.95 30.7 12.95 30.75 13.0 30.8 13.05 30.85 13.1 30.9 13.15 30.95 13.25 30.95 13.3 31.0 13.3 31.0 13.35 31.0 13.4 31.05 13.45 31.05 13.45 31.05 13.5 31.1 13.55 31.1 13.6 31.1 13.65 31.1 13.7 31.1 13.75 31.15 13.8 31.15 13.85 31.15 13.9 31.15 13.95 31.2 14.65 31.2 15.85 31.2 17.2 31.1 17.7 31.1 17.75 31.05 17.8 31.05 17.85 31.05 17.9 31.0 17.95 31.0 18.0 31.0 18.05 30.95 18.1 30.95 18.15 30.9 18.15 30.9 18.2 30.85 18.25 30.8 18.25 30.8 18.3 30.75 18.3 30.7 18.3 30.65 18.35 30.6 18.35 30.55 18.4 30.5 18.4 30.45 18.45 30.4 18.5 30.35 18.5 30.35 18.55 30.3 18.6 30.3 18.6 30.25 18.65 30.25 18.7 30.25 18.75 30.2 18.75 30.2 18.8 30.2 18.85 30.2 18.9 30.2 18.9 30.2 18.95 30.25 18.95 30.25 19.0 30.25 19.0 30.25 19.05 30.3 19.05 30.3 19.1 30.35 19.1 30.35 19.15 30.4 19.15 30.4 19.15 30.45 19.15 30.5 19.2 30.55 19.2 30.9 19.25 32.05 19.25 33.3 19.25 33.7 19.15 33.75 19.15 33.8 19.15 33.85 19.15 33.9 19.1 33.95 19.1 34.0 19.1 34.05 19.05 34.05 19.05 34.1 19.05 34.1 19.0 34.15 19.0 34.15 18.95 34.15 18.95 34.15 18.9 34.2 18.9 34.2 18.85 34.2 18.8 34.2 18.8 34.15 18.75 34.15 18.7 34.15 18.7 34.1 18.65 34.1 18.65 34.05 18.6 34.0 18.55 34.0 18.55 33.95 18.5 33.9 18.45 33.85 18.45 33.8 18.4 33.75 18.35 33.65 18.35 L33.05 18.0 33.05 15.6 Q33.05 15.4 33.05 15.2 33.05 15.0 33.05 14.8 33.0 14.6 33.0 14.45 33.0 14.25 33.0 14.1 33.0 13.95 32.95 13.8 32.95 13.7 32.9 13.55 32.9 13.45 32.85 13.3 32.85 13.2 32.8 13.1 32.8 13.0 32.75 12.9 32.7 12.85 32.7 12.75 32.65 12.65 32.6 12.6 32.55 12.5 32.5 12.45 32.45 12.35 32.4 12.3 32.35 12.2 32.3 12.15 32.2 12.1 32.15 12.05 32.05 12.0 32.0 11.95 31.9 11.9 31.85 11.85 31.75 11.8 31.65 11.8 31.6 11.75 31.5 11.7 31.4 11.7 31.35 11.65 31.25 11.65 31.15 11.6 31.05 11.6 31.0 11.6 30.9 11.6 30.8 11.55 30.7 11.55 30.6 11.55 30.45 11.55 30.3 11.55 30.15 11.6 30.0 11.6 29.85 11.65 29.7 11.7 29.6 11.7 29.45 11.8 29.35 11.85 29.2 11.9 29.1 11.95 29.0 12.05 28.9 12.15 28.8 12.2 28.7 12.3 28.6 12.4 28.55 12.45 28.55 12.45 28.5 12.5 28.5 12.5 28.45 12.55 28.45 12.55 28.4 12.55 28.35 12.6 28.35 12.6 28.3 12.6 28.3 12.6 28.25 12.6 28.25 12.6 28.2 12.55 28.1 12.55 27.6 12.1 27.55 12.05 27.5 12.0 27.45 11.95 27.4 11.9 27.35 11.85 27.3 11.85 27.25 11.8 27.2 11.75 27.15 11.75 27.1 11.7 27.05 11.7 27.05 11.65 27.0 11.65 26.95 11.65 26.95 11.6 26.9 11.6 26.85 11.6 26.85 11.6 26.8 11.6 26.8 11.6 26.75 11.55 26.75 11.55 26.7 11.55 26.65 11.55 26.65 11.55 26.6 11.55 26.55 11.55 26.5 11.55 26.5 11.55 26.45 11.55 26.4 11.55 26.35 11.55 26.2 11.55 26.05 11.55 25.9 11.55 25.75 11.6 25.6 11.6 25.45 11.6 25.3 11.65 25.2 11.7 25.05 11.7 24.95 11.75 24.85 11.8 24.75 11.85 24.65 11.9 24.55 11.95 24.45 12.0 24.35 12.1 L23.8 12.5 23.8 11.95 Q23.8 11.9 23.8 11.85 23.8 11.8 23.8 11.8 23.8 11.75 23.8 11.7 23.8 11.7 23.75 11.65 23.75 11.6 23.75 11.6 23.75 11.55 23.7 11.55 23.7 11.5 23.65 11.5 23.65 11.45 23.65 11.45 23.6 11.4 23.55 11.4 23.5 11.35 23.45 11.35 23.4 11.3 23.35 11.3 23.35 11.3 23.3 11.3 L23.3 11.3 M19.3 11.35 L18.75 11.45 Q18.5 11.55 17.45 11.7 17.35 11.7 17.2 11.75 17.1 11.75 17.0 11.8 16.9 11.8 16.85 11.85 16.75 11.85 16.7 11.9 16.65 11.95 16.6 11.95 16.55 12.0 16.5 12.05 16.45 12.05 16.45 12.1 16.45 12.15 16.45 12.2 16.45 12.25 16.45 12.25 16.45 12.3 16.45 12.3 16.5 12.35 16.5 12.35 16.55 12.4 16.55 12.4 16.6 12.45 16.6 12.45 16.65 12.5 16.7 12.5 16.75 12.5 16.8 12.55 16.85 12.55 16.9 12.6 16.95 12.6 17.0 12.65 17.05 12.65 17.1 12.7 17.15 12.7 17.2 12.75 17.25 12.75 17.3 12.8 17.3 12.85 17.35 12.85 17.4 12.9 17.4 12.95 17.45 13.0 17.45 13.0 17.5 13.05 17.5 13.1 17.5 13.15 17.55 13.2 17.55 13.25 17.55 13.35 17.6 13.4 17.6 13.5 17.6 13.6 17.6 13.7 17.65 13.85 17.65 13.95 17.65 14.1 17.65 14.25 17.65 14.4 17.65 14.6 17.65 14.75 17.65 14.95 17.65 15.15 17.65 15.3 17.65 15.45 17.65 15.65 17.65 15.8 17.65 15.95 17.6 16.05 17.6 16.2 17.6 16.35 17.55 16.45 17.55 16.55 17.55 16.65 17.5 16.8 17.5 16.85 17.45 16.95 17.45 17.05 17.4 17.1 17.4 17.2 17.35 17.25 17.35 17.35 17.3 17.4 17.25 17.45 17.2 17.5 17.15 17.55 17.1 17.6 17.05 17.7 17.0 17.75 16.95 17.75 16.9 17.8 16.85 17.85 16.8 17.9 16.75 17.95 16.7 18.0 16.6 18.0 16.55 18.05 16.5 18.05 16.45 18.1 16.35 18.1 16.3 18.15 16.25 18.15 16.2 18.2 16.15 18.2 16.1 18.2 16.05 18.2 16.0 18.2 15.95 18.25 15.9 18.25 15.85 18.25 15.75 18.25 15.6 18.2 15.5 18.2 15.4 18.15 15.3 18.15 15.25 18.1 15.15 18.05 15.05 17.95 15.0 17.9 14.9 17.85 14.85 17.75 14.8 17.65 14.75 17.55 14.7 17.45 14.65 17.35 14.65 17.2 14.6 17.1 14.6 17.0 14.55 16.9 14.55 16.75 14.55 16.65 14.5 16.5 14.5 16.4 14.5 16.25 14.45 16.1 14.45 15.95 14.45 15.8 14.45 15.6 14.45 15.45 14.45 15.3 14.45 15.1 14.45 14.9 L14.5 12.75 Q14.5 11.75 14.4 11.65 14.4 11.65 14.4 11.6 14.35 11.6 14.35 11.55 14.3 11.55 14.3 11.55 14.3 11.5 14.25 11.5 14.25 11.5 14.2 11.45 14.2 11.45 14.15 11.45 14.1 11.45 14.1 11.4 14.05 11.4 14.0 11.4 13.95 11.4 13.9 11.4 13.85 11.4 13.85 11.4 13.8 11.4 13.75 11.4 13.7 11.4 13.7 11.4 13.65 11.45 13.65 11.45 13.6 11.45 13.55 11.5 13.55 11.5 13.55 11.55 13.65 11.5 13.25 11.6 12.9 11.7 12.5 11.75 12.4 11.75 12.3 11.8 12.2 11.8 12.1 11.85 12.05 11.85 11.95 11.9 11.9 11.9 11.85 11.95 11.8 12.0 11.75 12.0 11.7 12.05 11.7 12.1 11.65 12.1 11.65 12.15 11.6 12.2 11.6 12.25 11.6 12.25 11.6 12.3 11.65 12.3 11.65 12.35 11.65 12.35 11.7 12.4 11.7 12.4 11.75 12.45 11.8 12.45 11.85 12.5 11.85 12.5 11.9 12.55 11.95 12.55 12.05 12.6 12.1 12.6 12.15 12.6 L12.8 12.85 12.8 15.2 Q12.8 15.45 12.8 15.7 12.8 15.9 12.8 16.15 12.8 16.35 12.8 16.55 12.85 16.75 12.85 16.9 12.85 17.1 12.9 17.25 12.9 17.4 12.95 17.55 12.95 17.7 13.0 17.8 13.0 17.95 13.05 18.05 13.1 18.15 13.15 18.25 13.15 18.3 13.2 18.4 13.25 18.5 13.35 18.55 13.4 18.65 13.45 18.7 13.5 18.8 13.6 18.85 13.7 18.95 13.75 19.0 13.85 19.05 13.95 19.1 14.05 19.15 14.15 19.2 14.2 19.25 14.3 19.25 14.35 19.3 14.4 19.3 14.5 19.35 14.55 19.35 14.65 19.4 14.7 19.4 14.8 19.4 14.9 19.45 14.95 19.45 15.05 19.45 15.15 19.45 15.2 19.45 15.3 19.45 15.4 19.45 15.5 19.45 15.6 19.45 15.65 19.45 15.75 19.45 15.85 19.4 15.95 19.4 16.0 19.4 16.1 19.35 16.2 19.3 16.25 19.3 16.35 19.25 16.45 19.2 16.5 19.15 16.6 19.1 16.65 19.05 16.75 19.0 17.4 18.55 17.45 18.55 17.45 18.55 17.5 18.55 17.5 18.55 17.5 18.55 17.5 18.6 17.55 18.6 17.55 18.65 17.55 18.65 17.55 18.7 17.55 18.7 17.55 18.75 17.55 18.8 17.55 18.85 17.55 18.9 17.55 18.95 17.55 19.0 17.55 19.05 17.55 19.1 17.55 19.15 17.55 19.2 17.6 19.25 17.6 19.3 17.6 19.35 17.6 19.4 17.65 19.4 17.65 19.45 17.65 19.45 17.7 19.5 17.7 19.5 17.75 19.55 17.75 19.55 17.8 19.55 17.8 19.55 18.1 19.55 18.25 19.55 19.95 19.25 20.0 19.25 20.1 19.2 20.15 19.2 20.2 19.15 20.25 19.15 20.3 19.15 20.35 19.1 20.35 19.1 20.4 19.05 20.4 19.05 20.45 19.0 20.45 19.0 20.45 19.0 20.5 18.95 20.5 18.95 20.5 18.9 20.5 18.85 20.5 18.85 20.45 18.8 20.45 18.8 20.45 18.75 20.4 18.75 20.35 18.7 20.35 18.65 20.3 18.65 20.25 18.6 20.2 18.55 20.15 18.55 20.1 18.5 20.05 18.45 19.95 18.45 19.9 18.4 L19.3 18.05 19.3 11.35" fill="#ffffff" fill-rule="evenodd" stroke="none"/>
    </g>
  </defs>
</svg>
