<?xml version="1.0" encoding="UTF-8" standalone="no"?>
<svg xmlns:ffdec="https://www.free-decompiler.com/flash" xmlns:xlink="http://www.w3.org/1999/xlink" ffdec:objectType="frame" height="26.55px" width="70.8px" xmlns="http://www.w3.org/2000/svg">
  <g transform="matrix(1.0, 0.0, 0.0, 1.0, 0.2, 0.4)">
    <use ffdec:characterId="3" height="26.0" transform="matrix(1.0, 0.0, 0.0, 1.0, 0.0, 0.0)" width="26.0" xlink:href="#shape0"/>
    <use ffdec:characterId="14" height="26.0" transform="matrix(1.0, 0.0, 0.0, 1.0, 0.0, 0.0)" width="26.0" xlink:href="#shape1"/>
    <use ffdec:characterId="14" height="26.0" transform="matrix(1.0, 0.0, 0.0, 1.0, 0.0, 0.0)" width="26.0" xlink:href="#shape1"/>
    <use ffdec:characterId="15" height="26.0" transform="matrix(1.0, 0.0, 0.0, 1.0, 0.0, 0.0)" width="26.0" xlink:href="#shape2"/>
    <use ffdec:characterId="15" height="26.0" transform="matrix(1.0, 0.0, 0.0, 1.0, 0.0, 0.0)" width="26.0" xlink:href="#shape2"/>
  </g>
  <defs>
    <g id="shape0" transform="matrix(1.0, 0.0, 0.0, 1.0, 0.0, 0.0)">
      <path d="M23.5 2.45 Q23.5 2.5 23.5 2.5 23.5 2.55 23.5 2.55 23.5 2.55 23.5 2.55 23.5 2.6 23.5 2.6 L23.5 4.05 22.85 3.8 23.5 4.5 23.5 5.25 22.95 5.25 23.5 6.45 23.5 7.1 23.3 8.15 23.5 7.8 23.5 9.55 22.85 9.85 23.15 10.05 23.75 9.8 23.75 8.05 23.5 8.4 23.75 7.35 23.75 6.7 23.2 5.5 23.75 5.5 23.75 4.75 23.1 4.05 23.75 4.3 23.75 2.85 Q23.75 2.8 23.75 2.8 23.75 2.7 23.75 2.65 23.75 2.55 23.7 2.55 23.7 2.5 23.65 2.5 23.6 2.5 23.5 2.45 L23.5 2.45 M23.5 10.4 L23.5 22.5 23.5 23.15 Q23.5 23.4 23.5 23.4 23.45 23.5 23.4 23.5 23.35 23.5 23.15 23.5 L22.5 23.5 21.85 23.5 20.95 23.5 21.0 23.75 22.1 23.75 22.75 23.75 23.4 23.75 Q23.65 23.75 23.7 23.75 23.75 23.7 23.75 23.4 L23.75 22.75 23.75 10.55 23.5 10.4 M20.7 22.75 L19.95 23.5 16.1 23.5 15.25 23.05 15.2 23.5 14.15 23.5 13.9 23.5 12.75 23.4 12.05 23.5 10.85 23.5 10.7 23.3 10.2 23.55 9.7 23.5 8.85 23.25 8.4 23.5 7.5 23.5 7.25 23.35 6.45 23.5 5.85 23.5 5.2 23.5 4.55 23.5 3.95 23.45 3.25 23.5 2.85 23.5 Q2.85 23.55 2.85 23.6 2.85 23.65 2.85 23.7 2.8 23.7 2.8 23.75 2.85 23.75 2.85 23.75 2.85 23.75 2.85 23.75 L3.5 23.75 4.2 23.7 4.8 23.75 5.45 23.75 6.05 23.75 6.7 23.75 7.45 23.6 7.75 23.75 8.65 23.75 9.1 23.5 9.9 23.75 10.45 23.8 10.95 23.55 11.1 23.75 12.3 23.75 13.0 23.65 14.1 23.75 14.4 23.75 15.4 23.75 15.5 23.3 16.35 23.75 20.15 23.75 20.75 23.2 20.7 22.75" fill="#ffffff" fill-rule="evenodd" stroke="none"/>
      <path d="M2.6 2.2 L5.95 2.2 6.2 2.65 6.5 2.4 7.75 2.2 13.5 2.2 13.7 2.7 14.15 2.2 15.45 2.2 16.65 2.2 17.15 2.65 17.35 2.2 18.0 2.2 23.15 2.2 Q23.35 2.2 23.4 2.25 23.45 2.25 23.5 2.35 23.5 2.4 23.5 2.55 23.5 2.55 23.5 2.6 L23.5 4.05 22.85 3.8 23.5 4.5 23.5 5.25 22.95 5.25 23.5 6.45 23.5 7.1 23.3 8.15 23.5 7.8 23.5 9.55 22.85 9.85 23.5 10.3 23.5 22.5 23.5 23.15 Q23.5 23.4 23.5 23.4 23.45 23.5 23.4 23.5 23.35 23.5 23.15 23.5 L22.5 23.5 21.85 23.5 20.75 23.5 20.7 22.75 19.95 23.5 16.1 23.5 15.25 23.05 15.2 23.5 14.15 23.5 13.9 23.5 12.75 23.4 12.05 23.5 10.85 23.5 10.7 23.3 10.2 23.55 9.7 23.5 8.85 23.25 8.4 23.5 7.5 23.5 7.25 23.35 6.45 23.5 5.85 23.5 5.2 23.5 4.55 23.5 3.95 23.45 3.25 23.5 2.6 23.5 Q2.6 23.5 2.6 23.5 2.6 23.5 2.6 23.5 2.4 23.5 2.35 23.5 2.3 23.5 2.25 23.45 2.25 23.4 2.25 23.2 2.25 23.2 2.25 23.2 2.25 23.2 2.25 23.2 2.25 23.15 2.25 23.15 L2.25 17.7 3.05 17.5 2.25 16.75 2.25 16.1 2.25 15.45 2.25 14.45 2.65 14.15 2.25 13.9 2.25 10.65 2.65 10.45 2.25 9.9 2.25 9.0 2.25 8.35 2.25 7.7 2.75 7.2 2.25 6.85 2.25 2.6 Q2.25 2.55 2.25 2.55 2.25 2.4 2.25 2.35 2.3 2.25 2.35 2.25 2.4 2.2 2.55 2.2 2.55 2.2 2.6 2.2 2.6 2.2 2.6 2.2 2.6 2.2 2.6 2.2 L2.6 2.2" fill="#000000" fill-rule="evenodd" stroke="none"/>
    </g>
    <g id="shape1" transform="matrix(1.0, 0.0, 0.0, 1.0, 0.0, 0.0)">
      <path d="M12.05 15.8 Q12.05 16.05 12.05 16.3 12.0 16.55 12.0 16.75 11.95 16.95 11.9 17.15 11.85 17.35 11.8 17.55 11.75 17.7 11.65 17.9 11.55 18.05 11.45 18.2 11.35 18.35 11.25 18.45 11.1 18.55 11.0 18.7 10.95 18.75 10.85 18.8 10.8 18.8 10.75 18.85 10.65 18.9 10.6 18.9 10.55 18.95 10.5 18.95 10.45 19.0 10.35 19.0 10.3 19.0 10.25 19.05 10.2 19.05 10.15 19.05 10.1 19.05 10.05 19.05 10.0 19.05 9.95 19.05 9.9 19.05 9.8 19.05 9.75 19.05 9.7 19.0 9.65 19.0 9.6 19.0 9.55 19.0 9.5 18.95 9.45 18.95 9.4 18.95 9.35 18.9 9.3 18.9 9.25 18.85 9.2 18.85 9.1 18.8 8.95 18.7 8.85 18.65 8.75 18.55 8.65 18.5 8.55 18.4 8.5 18.3 8.4 18.2 8.3 18.1 8.25 18.0 8.15 17.85 8.1 17.75 8.05 17.6 8.0 17.45 7.95 17.35 7.9 17.2 7.85 17.05 7.8 16.9 7.8 16.7 7.75 16.55 7.7 16.35 7.7 16.2 7.65 16.0 7.65 15.8 7.6 15.6 7.6 15.4 7.6 15.2 7.55 15.0 7.55 14.8 7.55 14.55 7.55 14.35 7.55 14.1 7.55 13.85 7.55 13.65 7.55 13.4 7.55 13.2 7.6 12.95 7.6 12.75 7.6 12.55 7.65 12.35 7.65 12.15 7.7 11.95 7.75 11.75 7.75 11.55 7.8 11.35 7.85 11.15 7.9 11.0 7.95 10.8 8.05 10.45 8.15 10.15 8.3 9.85 8.4 9.6 8.55 9.35 8.7 9.15 8.85 8.9 9.0 8.75 9.15 8.55 9.3 8.45 9.5 8.3 9.65 8.2 9.85 8.15 10.05 8.1 10.2 8.05 10.45 8.05 L10.9 8.05 Q10.95 8.05 11.05 8.05 11.1 8.05 11.15 8.05 11.2 8.05 11.25 8.1 11.3 8.1 11.35 8.1 11.4 8.15 11.4 8.15 11.45 8.2 11.45 8.25 11.5 8.25 11.5 8.3 11.5 8.35 11.5 8.4 11.5 8.4 11.5 8.45 11.5 8.45 11.5 8.5 11.5 8.5 11.45 8.55 11.45 8.55 11.45 8.6 11.45 8.6 11.45 8.65 11.4 8.65 11.4 8.7 11.4 8.75 11.35 8.75 11.35 8.8 11.35 8.85 11.35 8.9 11.3 8.9 11.3 8.95 11.25 9.0 11.25 9.0 11.25 9.05 11.25 9.1 11.2 9.1 11.2 9.15 11.2 9.2 11.2 9.2 11.15 9.25 11.15 9.3 11.15 9.35 11.15 9.35 11.15 9.4 11.15 9.45 11.15 9.45 11.15 9.5 11.15 9.55 11.15 9.55 11.15 9.6 11.15 9.65 11.15 9.65 11.2 9.7 11.2 9.7 11.2 9.75 11.2 9.8 11.2 9.8 11.25 9.85 11.25 9.9 11.25 9.9 11.3 10.0 11.35 10.1 11.4 10.15 11.45 10.25 11.55 10.3 11.6 10.35 11.7 10.45 11.75 10.5 11.85 10.55 11.95 10.55 12.0 10.6 12.1 10.65 12.2 10.65 12.35 10.65 12.45 10.7 12.55 10.7 12.6 10.7 12.65 10.7 12.65 10.7 12.7 10.65 12.75 10.65 12.8 10.65 12.85 10.6 12.9 10.6 12.95 10.55 13.05 10.5 13.1 10.5 13.15 10.45 13.2 10.4 13.3 10.35 13.35 10.35 13.4 10.3 13.45 10.25 13.55 10.2 13.6 10.15 13.65 10.05 13.7 10.0 13.75 9.95 13.8 9.9 13.8 9.8 13.85 9.75 13.85 9.7 13.9 9.65 13.9 9.55 13.95 9.5 13.95 9.4 13.95 9.35 13.95 9.25 13.95 9.1 13.95 8.95 13.9 8.85 13.9 8.7 13.85 8.6 13.8 8.45 13.8 8.35 13.75 8.2 13.65 8.1 13.6 8.0 13.55 7.9 13.45 7.8 13.35 7.7 13.25 7.6 13.15 7.5 13.05 7.45 12.95 7.35 12.8 7.3 12.7 7.2 12.55 7.15 12.4 7.1 12.25 7.0 12.1 6.95 11.95 6.95 11.8 6.9 11.65 6.85 11.45 6.8 11.3 6.8 11.1 6.8 10.9 6.75 10.75 6.75 10.55 6.75 10.45 6.75 10.35 6.75 10.25 6.75 10.15 6.75 10.05 6.75 10.0 6.8 9.9 6.8 9.8 6.8 9.75 6.8 9.65 6.85 9.55 6.85 9.5 6.85 9.4 6.9 9.35 6.9 9.25 6.9 9.2 6.95 9.15 6.95 9.05 7.0 9.0 7.0 8.95 7.05 8.85 7.1 8.8 7.1 8.7 7.15 8.65 7.2 8.55 7.25 8.45 7.3 8.4 7.3 8.3 7.4 8.2 7.45 8.1 7.5 8.0 7.55 7.9 7.6 7.55 7.85 7.2 8.15 6.9 8.45 6.6 8.8 6.3 9.1 6.1 9.5 5.85 9.85 5.65 10.25 5.45 10.65 5.35 11.1 5.2 11.55 5.1 12.05 5.0 12.55 4.95 13.05 4.9 13.55 4.9 14.1 4.9 14.5 4.95 14.9 4.95 15.3 5.05 15.7 5.1 16.1 5.2 16.45 5.3 16.8 5.45 17.1 5.55 17.45 5.75 17.75 5.9 18.05 6.1 18.35 6.3 18.65 6.5 18.9 6.75 19.15 7.0 19.4 7.15 19.55 7.3 19.65 7.5 19.8 7.65 19.9 7.85 20.0 8.0 20.1 8.2 20.2 8.35 20.25 8.55 20.35 8.75 20.4 8.95 20.45 9.15 20.45 9.35 20.5 9.55 20.55 9.75 20.55 9.95 20.55 10.25 20.55 10.5 20.5 10.8 20.5 11.05 20.4 11.35 20.35 11.6 20.25 11.85 20.15 12.05 20.0 12.3 19.85 12.5 19.7 12.75 19.5 12.95 19.3 13.15 19.1 13.35 18.85 13.55 18.6 13.7 18.35 13.8 18.2 13.9 18.05 13.95 17.9 14.05 17.75 14.1 17.55 14.15 17.4 14.25 17.25 14.3 17.1 14.35 16.9 14.35 16.75 14.4 16.6 14.45 16.4 14.45 16.25 14.45 16.1 14.5 15.9 14.5 15.75 14.5 15.55 14.5 15.4 14.45 15.25 14.45 15.05 14.45 14.9 14.4 14.75 14.35 14.6 14.35 14.45 14.3 14.3 14.25 14.15 14.2 14.0 14.15 13.9 14.1 13.75 14.0 13.65 13.95 13.5 13.85 13.4 13.7 13.2 13.6 13.05 13.45 12.85 13.3 12.7 13.1 12.55 12.95 12.45 12.75 12.35 12.55 12.25 12.35 12.15 12.15 12.05 11.95 12.0 11.7 11.95 11.5 11.9 11.25 11.9 11.0 11.85 10.7 11.85 10.55 11.85 10.4 11.85 10.25 11.9 10.1 11.9 10.0 11.95 9.85 11.95 9.7 12.0 9.6 12.05 9.45 12.1 9.35 12.15 9.2 12.25 9.1 12.3 8.95 12.4 8.85 12.45 8.75 12.55 8.65 12.65 8.6 12.7 8.55 12.75 8.5 12.8 8.45 12.85 8.45 12.9 8.4 12.9 8.35 12.95 8.35 13.0 8.3 13.05 8.3 13.1 8.3 13.15 8.25 13.2 8.25 13.2 8.25 13.25 8.25 13.3 8.25 13.35 8.25 13.4 8.25 13.4 8.25 13.45 8.25 13.45 8.3 13.5 8.3 13.5 8.3 13.55 8.35 13.55 8.35 13.6 8.4 13.6 8.4 13.6 8.45 13.6 8.5 13.65 8.5 13.65 8.55 13.65 8.6 13.65 8.65 13.65 8.7 13.65 8.75 13.65 8.8 13.65 8.85 13.65 8.85 13.6 8.9 13.6 8.95 13.6 9.0 13.6 9.1 13.6 9.15 13.55 9.2 13.55 9.25 13.55 9.3 13.5 9.35 13.5 9.4 13.5 9.45 13.5 9.5 13.45 9.55 13.45 9.6 13.4 9.7 13.4 9.75 13.4 9.8 13.35 9.85 13.35 9.95 13.35 10.0 13.35 10.05 13.35 10.15 13.35 10.2 13.3 10.25 13.3 10.35 13.3 10.4 13.3 10.45 13.3 10.55 13.3 10.6 13.35 10.7 13.35 10.75 13.35 10.8 13.4 10.9 13.45 10.95 13.5 11.05 13.5 11.1 13.55 11.15 13.6 11.25 13.7 11.3 13.75 11.35 13.8 11.45 13.9 11.5 13.95 11.55 14.05 11.65 14.1 11.7 14.2 11.75 14.3 11.8 14.4 11.85 14.5 11.9 14.6 11.9 14.75 11.95 14.85 12.0 15.0 12.0 15.1 12.0 15.25 12.05 15.35 12.05 15.5 12.05 15.65 12.05 15.8 L12.05 15.8" fill="#ffffff" fill-rule="evenodd" stroke="none"/>
      <path d="M16.4 7.4 Q16.45 7.4 16.45 7.4 16.5 7.4 16.55 7.4 16.6 7.4 16.65 7.35 16.7 7.35 16.75 7.35 16.8 7.3 16.9 7.3 16.95 7.3 17.05 7.25 17.1 7.25 17.2 7.2 17.3 7.15 17.35 7.15 17.45 7.1 17.55 7.1 17.6 7.05 17.7 7.05 17.8 7.0 17.85 7.0 17.95 7.0 18.0 6.95 18.05 6.95 18.1 6.95 18.2 6.9 18.25 6.9 18.3 6.9 18.35 6.9 18.4 6.9 18.45 6.9 18.5 6.9 18.55 6.9 18.6 6.9 18.65 6.9 18.7 6.9 18.75 6.95 18.85 6.95 18.9 6.95 18.95 7.0 19.05 7.0 19.1 7.0 19.2 7.05 19.3 7.05 19.4 7.1 19.5 7.15 19.6 7.15 19.7 7.2 19.8 7.2 19.85 7.25 19.95 7.25 20.0 7.3 20.1 7.3 20.2 7.35 20.25 7.35 20.3 7.35 20.4 7.4 20.45 7.4 20.5 7.4 20.55 7.4 20.65 7.4 20.7 7.4 20.75 7.4 20.8 7.4 20.85 7.4 20.85 7.4 20.9 7.4 20.95 7.4 20.95 7.4 21.0 7.4 21.0 7.35 21.05 7.35 21.05 7.35 21.05 7.3 21.05 7.3 21.1 7.25 21.1 7.25 21.1 7.2 21.1 7.2 21.1 7.15 21.1 7.1 21.05 7.05 21.05 7.0 21.0 6.9 20.95 6.85 20.9 6.8 20.8 6.75 20.75 6.65 20.65 6.6 20.6 6.5 20.45 6.45 20.35 6.35 20.25 6.3 20.15 6.2 20.0 6.15 19.85 6.05 19.75 6.0 19.6 5.9 19.5 5.85 19.35 5.75 19.25 5.7 19.15 5.65 19.05 5.6 18.95 5.6 18.85 5.55 18.8 5.5 18.7 5.5 18.65 5.5 18.6 5.45 18.5 5.45 18.5 5.45 18.45 5.45 18.4 5.45 18.3 5.45 18.25 5.5 18.2 5.5 18.1 5.5 18.05 5.55 17.95 5.6 17.9 5.6 17.8 5.65 17.75 5.7 17.65 5.75 17.6 5.75 17.5 5.8 17.4 5.9 17.3 5.95 16.5 6.45 16.3 6.55 16.25 6.6 16.2 6.6 16.2 6.65 16.15 6.65 16.15 6.7 16.1 6.75 16.1 6.75 16.1 6.8 16.1 6.8 16.1 6.85 16.1 6.9 16.1 7.0 16.1 7.05 16.1 7.1 16.1 7.15 16.15 7.2 16.15 7.2 16.15 7.25 16.2 7.3 16.2 7.3 16.25 7.35 16.25 7.35 16.3 7.4 16.35 7.4 16.35 7.4 16.4 7.4 L16.4 7.4" fill="#ffffff" fill-rule="evenodd" stroke="none"/>
    </g>
  </defs>
</svg>
