<?xml version="1.0" encoding="UTF-8" standalone="no"?>
<svg xmlns:ffdec="https://www.free-decompiler.com/flash" xmlns:xlink="http://www.w3.org/1999/xlink" ffdec:objectType="frame" height="26.55px" width="70.8px" xmlns="http://www.w3.org/2000/svg">
  <g transform="matrix(1.0, 0.0, 0.0, 1.0, 0.2, 0.4)">
    <use ffdec:characterId="1" height="26.0" transform="matrix(1.0, 0.0, 0.0, 1.0, 0.0, 0.0)" width="35.75" xlink:href="#shape0"/>
    <use ffdec:characterId="96" height="26.0" transform="matrix(1.0, 0.0, 0.0, 1.0, 0.0, 0.0)" width="35.75" xlink:href="#shape1"/>
    <use ffdec:characterId="96" height="26.0" transform="matrix(1.0, 0.0, 0.0, 1.0, 0.0, 0.0)" width="35.75" xlink:href="#shape1"/>
  </g>
  <defs>
    <g id="shape0" transform="matrix(1.0, 0.0, 0.0, 1.0, 0.0, 0.0)">
      <path d="M35.1 2.45 Q35.1 2.5 35.1 2.55 35.1 2.55 35.1 2.6 L35.1 4.05 34.45 3.8 35.1 4.5 35.1 5.25 34.55 5.25 35.1 6.45 35.1 7.1 34.9 8.15 35.1 7.8 35.1 9.55 34.45 9.85 34.8 10.05 35.35 9.8 35.35 8.05 35.15 8.4 35.35 7.35 35.35 6.7 34.8 5.5 35.35 5.5 35.35 4.75 34.7 4.05 35.35 4.3 35.35 2.85 Q35.35 2.85 35.35 2.8 35.35 2.7 35.35 2.65 35.35 2.55 35.3 2.55 35.3 2.5 35.25 2.5 35.2 2.5 35.1 2.45 L35.1 2.45 M35.1 10.4 L35.1 22.5 35.1 23.15 Q35.1 23.45 35.05 23.5 35.05 23.5 34.75 23.5 L34.1 23.5 33.45 23.5 32.6 23.5 32.6 23.75 33.7 23.75 34.35 23.75 35.0 23.75 Q35.25 23.75 35.3 23.75 35.35 23.7 35.35 23.4 L35.35 22.75 35.35 10.55 35.1 10.4 M32.3 22.75 L31.55 23.5 25.95 23.5 25.1 23.05 25.0 23.5 24.0 23.5 23.7 23.5 22.6 23.4 21.9 23.5 20.7 23.5 20.55 23.3 20.05 23.55 7.95 23.5 7.15 23.25 6.65 23.5 5.8 23.5 5.5 23.35 4.75 23.5 4.1 23.5 3.45 23.5 2.8 23.5 2.2 23.45 1.55 23.5 1.1 23.5 Q1.1 23.55 1.1 23.75 1.1 23.75 1.1 23.75 1.1 23.75 1.15 23.75 L1.75 23.75 2.45 23.7 3.05 23.75 3.7 23.75 4.35 23.75 5.0 23.75 5.75 23.6 6.05 23.75 6.9 23.75 18.95 23.75 19.75 23.75 20.3 23.8 20.8 23.55 20.9 23.75 22.15 23.75 22.85 23.65 23.95 23.75 24.25 23.75 25.25 23.75 25.35 23.3 26.15 23.75 31.8 23.75 32.35 23.2 32.3 22.75" fill="#ffffff" fill-rule="evenodd" stroke="none"/>
      <path d="M0.9 2.2 L4.25 2.2 4.5 2.65 4.8 2.4 6.0 2.2 13.45 2.2 13.6 2.7 14.05 2.2 15.35 2.2 26.5 2.2 27.0 2.65 27.2 2.2 27.85 2.2 34.75 2.2 Q34.95 2.2 35.0 2.25 35.1 2.25 35.1 2.35 35.1 2.4 35.1 2.55 35.1 2.55 35.1 2.6 L35.1 4.05 34.45 3.8 35.1 4.5 35.1 5.25 34.55 5.25 35.1 6.45 35.1 7.1 34.9 8.15 35.1 7.8 35.1 9.55 34.45 9.85 35.1 10.3 35.1 22.5 35.1 23.15 Q35.1 23.4 35.1 23.4 35.05 23.5 35.0 23.5 35.0 23.5 34.75 23.5 L34.1 23.5 33.45 23.5 32.35 23.5 32.3 22.75 31.55 23.5 25.95 23.5 25.1 23.05 25.0 23.5 24.0 23.5 23.7 23.5 22.6 23.4 21.9 23.5 20.7 23.5 20.55 23.3 20.05 23.55 7.95 23.5 7.15 23.25 6.65 23.5 5.8 23.5 5.5 23.35 4.75 23.5 4.1 23.5 3.45 23.5 2.8 23.5 2.2 23.45 1.55 23.5 0.9 23.5 Q0.9 23.5 0.9 23.5 0.85 23.5 0.85 23.5 0.65 23.5 0.6 23.5 0.55 23.5 0.55 23.45 0.55 23.4 0.55 23.2 0.55 23.2 0.55 23.2 0.55 23.2 0.55 23.2 0.55 23.15 0.55 23.15 L0.55 17.7 1.3 17.5 0.55 16.75 0.55 16.1 0.55 15.45 0.55 14.45 0.95 14.15 0.55 13.9 0.55 10.65 0.9 10.45 0.55 9.9 0.55 9.0 0.55 8.35 0.55 7.7 1.0 7.2 0.55 6.85 0.55 2.6 Q0.55 2.55 0.55 2.55 0.55 2.4 0.55 2.35 0.55 2.25 0.65 2.25 0.7 2.2 0.85 2.2 0.85 2.2 0.85 2.2 0.85 2.2 0.9 2.2 0.9 2.2 0.9 2.2 L0.9 2.2" fill="#000000" fill-rule="evenodd" stroke="none"/>
    </g>
    <g id="shape1" transform="matrix(1.0, 0.0, 0.0, 1.0, 0.0, 0.0)">
      <path d="M14.6 9.25 Q14.6 9.15 14.6 9.05 14.65 8.95 14.7 8.9 14.7 8.8 14.75 8.75 14.8 8.7 14.85 8.65 14.9 8.6 14.95 8.6 14.95 8.55 15.0 8.55 15.05 8.5 15.05 8.5 15.05 8.5 15.1 8.5 L15.1 7.8 12.55 7.8 12.55 8.45 Q12.65 8.5 12.7 8.6 12.75 8.65 12.8 8.75 12.85 8.8 12.9 8.9 12.95 9.0 12.95 9.05 12.95 9.15 13.0 9.2 13.0 9.25 13.0 9.35 13.0 9.35 13.0 9.4 13.0 9.4 13.0 9.45 L13.0 15.5 7.95 8.85 7.95 8.9 7.5 9.1 7.6 9.25 7.1 9.0 7.35 8.85 7.45 8.9 7.7 8.75 7.7 8.65 7.75 8.65 7.9 7.85 7.9 7.8 7.4 7.8 5.3 7.8 5.3 8.45 Q5.4 8.5 5.45 8.55 5.5 8.6 5.6 8.7 5.6 8.75 5.65 8.85 5.7 8.95 5.7 9.0 5.75 9.1 5.75 9.15 5.75 9.2 5.8 9.25 5.8 9.3 5.8 9.35 5.8 9.35 5.8 9.4 L5.8 16.15 Q5.8 16.4 5.75 16.6 5.75 16.8 5.7 16.95 5.65 17.05 5.6 17.15 5.6 17.25 5.55 17.3 5.5 17.4 5.45 17.4 5.4 17.45 5.35 17.45 5.35 17.5 5.3 17.5 5.3 17.5 5.3 17.5 L5.3 18.2 7.95 18.2 7.95 17.5 Q7.85 17.45 7.8 17.4 7.7 17.3 7.65 17.2 7.6 17.1 7.55 17.0 7.55 16.9 7.5 16.75 7.5 16.65 7.5 16.55 7.45 16.45 7.45 16.35 7.45 16.3 7.45 16.2 7.45 16.2 7.45 16.15 L7.45 13.05 7.35 13.1 7.25 13.2 7.2 13.1 7.1 13.1 7.1 13.05 7.15 13.05 7.15 13.0 7.2 12.95 7.35 12.95 7.35 12.85 7.5 12.8 7.5 11.0 12.95 18.2 15.1 18.2 15.1 17.5 Q15.0 17.5 14.95 17.45 14.85 17.4 14.8 17.3 14.75 17.2 14.7 17.1 14.7 16.95 14.65 16.85 14.65 16.7 14.6 16.6 14.6 16.5 14.6 16.4 14.6 16.3 14.6 16.25 14.6 16.2 14.6 16.15 L14.6 11.15 14.6 9.25" fill="#f1edf8" fill-rule="evenodd" stroke="none"/>
      <path d="M20.0 13.75 Q20.0 13.75 20.15 13.75 20.35 13.75 20.5 13.7 20.8 13.65 21.05 13.6 21.35 13.5 21.65 13.4 22.0 13.25 22.25 13.05 22.55 12.85 22.8 12.55 23.05 12.25 23.15 11.85 23.3 11.45 23.3 10.95 23.3 10.4 23.15 9.9 23.0 9.5 22.8 9.15 22.55 8.8 22.25 8.6 21.95 8.35 21.65 8.2 21.35 8.05 21.0 8.0 20.75 7.9 20.5 7.85 20.3 7.85 20.1 7.85 20.05 7.85 19.95 7.8 L16.15 7.8 16.15 7.9 16.15 8.5 16.5 8.85 16.5 9.15 16.6 9.2 16.6 10.15 16.7 10.15 16.7 10.35 17.0 10.45 17.3 10.5 17.25 10.6 16.75 10.6 16.65 10.75 16.65 10.95 16.65 16.1 Q16.65 16.1 16.65 16.15 16.6 16.45 16.65 16.25 16.65 16.35 16.6 16.45 16.6 16.55 16.6 16.65 16.55 16.75 16.55 16.85 16.5 17.0 16.45 17.1 16.4 17.2 16.3 17.3 16.25 17.4 16.15 17.45 L16.15 18.2 18.65 18.2 18.65 17.45 Q18.65 17.45 18.65 17.45 18.6 17.4 18.6 17.4 18.55 17.35 18.5 17.35 18.45 17.3 18.45 17.2 18.4 17.15 18.35 17.05 18.3 16.95 18.3 16.85 18.25 16.75 18.25 16.6 18.25 16.45 18.25 16.25 L18.25 12.35 18.1 12.25 18.15 12.2 18.2 12.15 18.2 11.0 18.2 10.85 18.1 10.7 18.15 10.35 18.15 10.2 18.2 10.3 18.2 10.2 18.2 9.25 20.15 9.25 Q20.15 9.25 20.25 9.25 20.3 9.25 20.4 9.3 20.55 9.3 20.65 9.35 20.85 9.4 20.95 9.5 21.15 9.55 21.25 9.65 21.4 9.8 21.55 9.95 21.65 10.15 21.75 10.35 21.8 10.6 21.8 10.9 21.8 10.9 21.8 10.95 21.8 11.05 21.8 11.15 21.8 11.3 21.75 11.4 21.65 11.55 21.55 11.7 21.45 11.85 21.3 11.95 21.1 12.1 20.85 12.2 20.55 12.3 20.15 12.35 19.75 12.4 19.25 12.35 L19.2 12.35 19.2 13.3 20.0 13.75" fill="#f1edf8" fill-rule="evenodd" stroke="none"/>
      <path d="M23.1 15.95 Q23.1 15.95 23.1 16.0 23.05 16.05 23.05 16.15 23.0 16.25 23.0 16.35 22.95 16.5 22.9 16.6 22.85 16.75 22.85 16.9 22.8 17.05 22.8 17.15 22.8 17.3 22.75 17.4 22.75 17.5 22.75 17.6 22.75 17.7 22.85 17.75 22.95 17.8 23.15 17.9 23.35 17.95 23.6 18.0 23.8 18.05 24.1 18.1 24.4 18.1 24.75 18.15 25.1 18.15 25.45 18.15 25.8 18.15 26.15 18.15 26.55 18.15 26.9 18.1 27.05 18.05 27.2 18.05 27.4 18.0 27.65 17.9 27.9 17.85 28.15 17.7 28.5 17.55 28.75 17.4 29.05 17.2 29.3 16.9 29.55 16.65 29.75 16.3 29.95 15.95 30.05 15.5 30.2 15.05 30.2 14.5 30.2 14.2 30.15 13.9 30.05 13.65 29.95 13.4 29.8 13.15 29.65 12.95 29.5 12.7 29.25 12.55 29.05 12.35 28.85 12.2 28.6 12.1 28.4 12.0 28.15 11.9 27.9 11.8 27.7 11.75 27.45 11.7 27.4 11.7 27.35 11.7 27.25 11.65 27.1 11.65 26.95 11.65 26.8 11.65 26.6 11.6 26.4 11.6 26.2 11.6 26.0 11.65 25.8 11.65 25.65 11.65 25.45 11.7 25.3 11.75 25.1 11.8 25.0 11.85 25.0 11.85 25.0 11.75 25.05 11.55 25.05 11.5 25.05 11.25 25.1 11.1 25.1 10.85 25.15 10.65 25.2 10.4 25.25 10.2 25.3 9.95 25.35 9.8 25.45 9.65 25.5 9.55 25.6 9.45 25.7 9.45 26.0 9.45 27.75 9.5 29.5 9.55 29.7 9.55 29.75 9.55 29.85 9.5 29.9 9.4 30.0 9.3 30.05 9.15 30.1 9.0 30.15 8.85 30.25 8.7 30.3 8.55 30.35 8.4 30.35 8.25 30.4 8.1 30.45 8.0 30.45 7.9 30.45 7.9 30.45 7.85 L29.3 7.85 Q29.25 7.85 29.25 7.85 29.2 7.85 29.2 7.85 29.15 7.9 29.15 7.9 29.1 7.9 29.05 7.9 29.0 7.95 28.95 7.95 28.85 7.95 28.75 7.95 28.65 8.0 28.45 8.0 28.3 8.0 28.1 8.0 26.9 8.0 24.7 8.0 24.5 8.0 24.35 8.15 24.2 8.25 24.1 8.5 23.95 8.75 23.85 9.1 23.8 9.4 23.7 9.8 23.65 10.2 23.6 10.65 23.5 11.0 23.5 11.45 23.45 11.85 23.45 12.3 23.4 12.65 23.4 13.05 23.4 13.05 23.4 13.05 23.45 13.1 23.45 13.1 23.5 13.15 23.55 13.2 23.6 13.25 23.65 13.3 23.7 13.35 23.75 13.35 23.85 13.4 23.9 13.45 24.0 13.5 24.1 13.5 24.2 13.5 24.3 13.5 24.3 13.5 24.45 13.45 24.7 13.4 24.95 13.35 25.3 13.25 25.6 13.2 26.0 13.15 26.35 13.1 26.8 13.1 27.1 13.15 27.5 13.2 27.8 13.35 28.1 13.55 28.25 13.8 28.4 14.1 28.4 14.55 28.4 15.0 28.25 15.35 28.1 15.7 27.85 15.9 27.6 16.15 27.2 16.3 26.85 16.45 26.45 16.5 26.05 16.55 25.6 16.55 25.15 16.5 24.7 16.45 24.25 16.35 23.85 16.25 23.45 16.15 23.1 15.95 L23.1 15.95" fill="#f1edf8" fill-rule="evenodd" stroke="none"/>
    </g>
  </defs>
</svg>
