<?xml version="1.0" encoding="UTF-8" standalone="no"?>
<svg xmlns:ffdec="https://www.free-decompiler.com/flash" xmlns:xlink="http://www.w3.org/1999/xlink" ffdec:objectType="frame" height="26.55px" width="70.8px" xmlns="http://www.w3.org/2000/svg">
  <g transform="matrix(1.0, 0.0, 0.0, 1.0, 0.2, 0.4)">
    <use ffdec:characterId="1" height="26.0" transform="matrix(1.0, 0.0, 0.0, 1.0, 0.0, 0.0)" width="35.75" xlink:href="#shape0"/>
    <use ffdec:characterId="98" height="26.0" transform="matrix(1.0, 0.0, 0.0, 1.0, 0.0, 0.0)" width="35.75" xlink:href="#shape1"/>
    <use ffdec:characterId="98" height="26.0" transform="matrix(1.0, 0.0, 0.0, 1.0, 0.0, 0.0)" width="35.75" xlink:href="#shape1"/>
  </g>
  <defs>
    <g id="shape0" transform="matrix(1.0, 0.0, 0.0, 1.0, 0.0, 0.0)">
      <path d="M35.1 2.45 Q35.1 2.5 35.1 2.55 35.1 2.55 35.1 2.6 L35.1 4.05 34.45 3.8 35.1 4.5 35.1 5.25 34.55 5.25 35.1 6.45 35.1 7.1 34.9 8.15 35.1 7.8 35.1 9.55 34.45 9.85 34.8 10.05 35.35 9.8 35.35 8.05 35.15 8.4 35.35 7.35 35.35 6.7 34.8 5.5 35.35 5.5 35.35 4.75 34.7 4.05 35.35 4.3 35.35 2.85 Q35.35 2.85 35.35 2.8 35.35 2.7 35.35 2.65 35.35 2.55 35.3 2.55 35.3 2.5 35.25 2.5 35.2 2.5 35.1 2.45 L35.1 2.45 M35.1 10.4 L35.1 22.5 35.1 23.15 Q35.1 23.45 35.05 23.5 35.05 23.5 34.75 23.5 L34.1 23.5 33.45 23.5 32.6 23.5 32.6 23.75 33.7 23.75 34.35 23.75 35.0 23.75 Q35.25 23.75 35.3 23.75 35.35 23.7 35.35 23.4 L35.35 22.75 35.35 10.55 35.1 10.4 M32.3 22.75 L31.55 23.5 25.95 23.5 25.1 23.05 25.0 23.5 24.0 23.5 23.7 23.5 22.6 23.4 21.9 23.5 20.7 23.5 20.55 23.3 20.05 23.55 7.95 23.5 7.15 23.25 6.65 23.5 5.8 23.5 5.5 23.35 4.75 23.5 4.1 23.5 3.45 23.5 2.8 23.5 2.2 23.45 1.55 23.5 1.1 23.5 Q1.1 23.55 1.1 23.75 1.1 23.75 1.1 23.75 1.1 23.75 1.15 23.75 L1.75 23.75 2.45 23.7 3.05 23.75 3.7 23.75 4.35 23.75 5.0 23.75 5.75 23.6 6.05 23.75 6.9 23.75 18.95 23.75 19.75 23.75 20.3 23.8 20.8 23.55 20.9 23.75 22.15 23.75 22.85 23.65 23.95 23.75 24.25 23.75 25.25 23.75 25.35 23.3 26.15 23.75 31.8 23.75 32.35 23.2 32.3 22.75" fill="#ffffff" fill-rule="evenodd" stroke="none"/>
      <path d="M0.9 2.2 L4.25 2.2 4.5 2.65 4.8 2.4 6.0 2.2 13.45 2.2 13.6 2.7 14.05 2.2 15.35 2.2 26.5 2.2 27.0 2.65 27.2 2.2 27.85 2.2 34.75 2.2 Q34.95 2.2 35.0 2.25 35.1 2.25 35.1 2.35 35.1 2.4 35.1 2.55 35.1 2.55 35.1 2.6 L35.1 4.05 34.45 3.8 35.1 4.5 35.1 5.25 34.55 5.25 35.1 6.45 35.1 7.1 34.9 8.15 35.1 7.8 35.1 9.55 34.45 9.85 35.1 10.3 35.1 22.5 35.1 23.15 Q35.1 23.4 35.1 23.4 35.05 23.5 35.0 23.5 35.0 23.5 34.75 23.5 L34.1 23.5 33.45 23.5 32.35 23.5 32.3 22.75 31.55 23.5 25.95 23.5 25.1 23.05 25.0 23.5 24.0 23.5 23.7 23.5 22.6 23.4 21.9 23.5 20.7 23.5 20.55 23.3 20.05 23.55 7.95 23.5 7.15 23.25 6.65 23.5 5.8 23.5 5.5 23.35 4.75 23.5 4.1 23.5 3.45 23.5 2.8 23.5 2.2 23.45 1.55 23.5 0.9 23.5 Q0.9 23.5 0.9 23.5 0.85 23.5 0.85 23.5 0.65 23.5 0.6 23.5 0.55 23.5 0.55 23.45 0.55 23.4 0.55 23.2 0.55 23.2 0.55 23.2 0.55 23.2 0.55 23.2 0.55 23.15 0.55 23.15 L0.55 17.7 1.3 17.5 0.55 16.75 0.55 16.1 0.55 15.45 0.55 14.45 0.95 14.15 0.55 13.9 0.55 10.65 0.9 10.45 0.55 9.9 0.55 9.0 0.55 8.35 0.55 7.7 1.0 7.2 0.55 6.85 0.55 2.6 Q0.55 2.55 0.55 2.55 0.55 2.4 0.55 2.35 0.55 2.25 0.65 2.25 0.7 2.2 0.85 2.2 0.85 2.2 0.85 2.2 0.85 2.2 0.9 2.2 0.9 2.2 0.9 2.2 L0.9 2.2" fill="#000000" fill-rule="evenodd" stroke="none"/>
    </g>
    <g id="shape1" transform="matrix(1.0, 0.0, 0.0, 1.0, 0.0, 0.0)">
      <path d="M15.0 9.25 Q15.0 9.15 15.05 9.05 15.05 8.95 15.1 8.9 15.1 8.8 15.15 8.75 15.2 8.7 15.25 8.65 15.3 8.6 15.35 8.6 15.4 8.55 15.4 8.55 15.45 8.5 15.45 8.5 15.5 8.5 15.5 8.5 L15.5 7.8 12.95 7.8 12.95 8.45 Q13.05 8.5 13.1 8.6 13.15 8.65 13.2 8.75 13.25 8.8 13.3 8.9 13.35 9.0 13.35 9.05 13.4 9.15 13.4 9.2 13.4 9.25 13.4 9.35 13.45 9.35 13.45 9.4 13.45 9.4 13.45 9.45 L13.4 15.5 8.35 8.85 8.35 8.9 7.9 9.1 8.0 9.25 7.5 9.0 7.8 8.85 7.85 8.9 8.1 8.75 8.1 8.65 8.15 8.65 8.3 7.85 8.3 7.8 7.85 7.8 5.7 7.8 5.7 8.45 Q5.8 8.5 5.85 8.55 5.95 8.6 6.0 8.7 6.05 8.75 6.05 8.85 6.1 8.95 6.15 9.0 6.15 9.1 6.2 9.15 6.2 9.2 6.2 9.25 6.2 9.3 6.2 9.35 6.2 9.35 6.2 9.4 L6.2 16.15 Q6.2 16.4 6.15 16.6 6.15 16.8 6.1 16.95 6.1 17.05 6.05 17.15 6.0 17.25 5.95 17.3 5.9 17.4 5.85 17.4 5.8 17.45 5.8 17.45 5.75 17.5 5.7 17.5 5.7 17.5 5.7 17.5 L5.7 18.2 8.35 18.2 8.35 17.5 Q8.25 17.45 8.2 17.4 8.1 17.3 8.05 17.2 8.0 17.1 8.0 17.0 7.95 16.9 7.95 16.75 7.9 16.65 7.9 16.55 7.9 16.45 7.9 16.35 7.85 16.3 7.85 16.2 7.85 16.2 7.85 16.15 L7.85 13.05 7.75 13.1 7.7 13.2 7.6 13.1 7.5 13.1 7.5 13.05 7.55 13.05 7.55 13.0 7.6 12.95 7.75 12.95 7.75 12.85 7.9 12.8 7.9 11.0 13.4 18.2 15.5 18.2 15.5 17.5 Q15.4 17.5 15.35 17.45 15.3 17.4 15.2 17.3 15.15 17.2 15.15 17.1 15.1 16.95 15.05 16.85 15.05 16.7 15.05 16.6 15.0 16.5 15.0 16.4 15.0 16.3 15.0 16.25 15.0 16.2 15.0 16.15 L15.0 11.15 15.0 9.25" fill="#f1edf8" fill-rule="evenodd" stroke="none"/>
      <path d="M20.4 13.75 Q20.4 13.75 20.55 13.75 20.75 13.75 20.9 13.7 21.2 13.65 21.45 13.6 21.8 13.5 22.05 13.4 22.4 13.25 22.65 13.05 23.0 12.85 23.2 12.55 23.45 12.25 23.55 11.85 23.7 11.45 23.7 10.95 23.7 10.4 23.55 9.9 23.45 9.5 23.2 9.15 22.95 8.8 22.65 8.6 22.4 8.35 22.05 8.2 21.75 8.05 21.45 8.0 21.15 7.9 20.9 7.85 20.7 7.85 20.5 7.85 20.45 7.85 20.4 7.8 L16.6 7.8 16.6 7.9 16.6 8.5 16.95 8.85 16.95 9.15 17.0 9.2 17.0 10.15 17.1 10.15 17.1 10.35 17.4 10.45 17.75 10.5 17.65 10.6 17.15 10.6 17.1 10.75 17.05 10.95 17.05 16.1 Q17.05 16.1 17.05 16.15 17.05 16.2 17.05 16.25 17.05 16.35 17.05 16.45 17.0 16.55 17.0 16.65 16.95 16.75 16.95 16.85 16.9 17.0 16.85 17.1 16.8 17.2 16.75 17.3 16.65 17.4 16.6 17.45 L16.6 18.2 19.1 18.2 19.1 17.45 Q19.1 17.45 19.05 17.45 19.05 17.4 19.0 17.4 18.95 17.35 18.95 17.35 18.9 17.3 18.85 17.2 18.8 17.15 18.75 17.05 18.7 16.95 18.7 16.85 18.65 16.75 18.65 16.6 18.65 16.45 18.65 16.25 L18.65 12.35 18.5 12.25 18.55 12.2 18.65 12.15 18.65 11.0 18.6 10.85 18.5 10.7 18.55 10.35 18.6 10.2 18.65 10.3 18.65 10.2 18.65 9.25 20.6 9.25 Q20.6 9.25 20.65 9.25 20.75 9.25 20.85 9.3 20.95 9.3 21.1 9.35 21.25 9.4 21.4 9.5 21.55 9.55 21.7 9.65 21.85 9.8 21.95 9.95 22.05 10.15 22.15 10.35 22.2 10.6 22.25 10.9 22.25 10.9 22.25 10.95 22.25 11.05 22.25 11.15 22.2 11.3 22.15 11.4 22.1 11.55 22.0 11.7 21.85 11.85 21.7 11.95 21.5 12.1 21.25 12.2 20.95 12.3 20.6 12.35 20.2 12.4 19.7 12.35 L19.6 12.35 19.6 13.3 20.4 13.75" fill="#f1edf8" fill-rule="evenodd" stroke="none"/>
      <path d="M24.45 13.75 Q24.45 13.75 25.05 13.7 25.8 13.65 26.4 13.65 26.4 13.85 26.4 14.0 26.35 14.15 26.35 14.35 26.35 14.55 26.3 14.7 26.3 14.9 26.3 15.05 26.25 15.25 26.25 15.4 26.2 15.6 26.2 15.75 26.15 15.9 26.1 16.0 26.1 16.1 26.05 16.2 26.05 16.2 26.1 16.2 26.15 16.2 26.2 16.25 26.3 16.25 26.35 16.25 26.45 16.25 26.55 16.25 26.7 16.25 26.8 16.25 26.95 16.25 27.05 16.25 27.15 16.2 27.25 16.15 27.35 16.15 27.45 16.1 27.45 16.05 27.55 13.65 27.7 13.65 27.85 13.65 28.05 13.65 28.2 13.65 28.35 13.65 28.5 13.65 28.65 13.65 28.8 13.7 29.0 13.7 29.1 13.7 29.25 13.75 29.4 13.75 29.55 13.8 29.65 13.8 29.8 13.85 29.85 13.85 29.85 13.85 29.85 13.8 29.9 13.8 29.9 13.75 29.95 13.65 29.95 13.6 30.0 13.5 30.0 13.4 30.05 13.3 30.05 13.2 30.05 13.1 30.05 13.0 30.05 12.85 30.0 12.75 30.0 12.65 29.95 12.6 29.9 12.55 27.6 12.55 27.65 9.85 27.5 9.85 26.9 10.2 26.3 10.6 26.35 10.55 26.4 12.55 26.15 12.55 25.9 12.55 25.65 12.55 25.4 12.55 25.15 12.55 24.95 12.55 24.75 12.6 24.55 12.6 24.35 12.6 24.2 12.6 24.05 12.6 23.95 12.65 23.8 12.65 23.75 12.65 23.7 12.7 23.7 12.7 24.05 13.25 24.45 13.75 L24.45 13.75" fill="#f1edf8" fill-rule="evenodd" stroke="none"/>
    </g>
  </defs>
</svg>
