<?xml version="1.0" encoding="UTF-8" standalone="no"?>
<svg xmlns:ffdec="https://www.free-decompiler.com/flash" xmlns:xlink="http://www.w3.org/1999/xlink" ffdec:objectType="frame" height="26.55px" width="70.8px" xmlns="http://www.w3.org/2000/svg">
  <g transform="matrix(1.0, 0.0, 0.0, 1.0, 0.2, 0.4)">
    <use ffdec:characterId="1" height="26.0" transform="matrix(1.0, 0.0, 0.0, 1.0, 0.0, 0.0)" width="35.75" xlink:href="#shape0"/>
    <use ffdec:characterId="101" height="26.0" transform="matrix(1.0, 0.0, 0.0, 1.0, 0.0, 0.0)" width="35.75" xlink:href="#shape1"/>
    <use ffdec:characterId="101" height="26.0" transform="matrix(1.0, 0.0, 0.0, 1.0, 0.0, 0.0)" width="35.75" xlink:href="#shape1"/>
  </g>
  <defs>
    <g id="shape0" transform="matrix(1.0, 0.0, 0.0, 1.0, 0.0, 0.0)">
      <path d="M35.1 2.45 Q35.1 2.5 35.1 2.55 35.1 2.55 35.1 2.6 L35.1 4.05 34.45 3.8 35.1 4.5 35.1 5.25 34.55 5.25 35.1 6.45 35.1 7.1 34.9 8.15 35.1 7.8 35.1 9.55 34.45 9.85 34.8 10.05 35.35 9.8 35.35 8.05 35.15 8.4 35.35 7.35 35.35 6.7 34.8 5.5 35.35 5.5 35.35 4.75 34.7 4.05 35.35 4.3 35.35 2.85 Q35.35 2.85 35.35 2.8 35.35 2.7 35.35 2.65 35.35 2.55 35.3 2.55 35.3 2.5 35.25 2.5 35.2 2.5 35.1 2.45 L35.1 2.45 M35.1 10.4 L35.1 22.5 35.1 23.15 Q35.1 23.45 35.05 23.5 35.05 23.5 34.75 23.5 L34.1 23.5 33.45 23.5 32.6 23.5 32.6 23.75 33.7 23.75 34.35 23.75 35.0 23.75 Q35.25 23.75 35.3 23.75 35.35 23.7 35.35 23.4 L35.35 22.75 35.35 10.55 35.1 10.4 M32.3 22.75 L31.55 23.5 25.95 23.5 25.1 23.05 25.0 23.5 24.0 23.5 23.7 23.5 22.6 23.4 21.9 23.5 20.7 23.5 20.55 23.3 20.05 23.55 7.95 23.5 7.15 23.25 6.65 23.5 5.8 23.5 5.5 23.35 4.75 23.5 4.1 23.5 3.45 23.5 2.8 23.5 2.2 23.45 1.55 23.5 1.1 23.5 Q1.1 23.55 1.1 23.75 1.1 23.75 1.1 23.75 1.1 23.75 1.15 23.75 L1.75 23.75 2.45 23.7 3.05 23.75 3.7 23.75 4.35 23.75 5.0 23.75 5.75 23.6 6.05 23.75 6.9 23.75 18.95 23.75 19.75 23.75 20.3 23.8 20.8 23.55 20.9 23.75 22.15 23.75 22.85 23.65 23.95 23.75 24.25 23.75 25.25 23.75 25.35 23.3 26.15 23.75 31.8 23.75 32.35 23.2 32.3 22.75" fill="#ffffff" fill-rule="evenodd" stroke="none"/>
      <path d="M0.9 2.2 L4.25 2.2 4.5 2.65 4.8 2.4 6.0 2.2 13.45 2.2 13.6 2.7 14.05 2.2 15.35 2.2 26.5 2.2 27.0 2.65 27.2 2.2 27.85 2.2 34.75 2.2 Q34.95 2.2 35.0 2.25 35.1 2.25 35.1 2.35 35.1 2.4 35.1 2.55 35.1 2.55 35.1 2.6 L35.1 4.05 34.45 3.8 35.1 4.5 35.1 5.25 34.55 5.25 35.1 6.45 35.1 7.1 34.9 8.15 35.1 7.8 35.1 9.55 34.45 9.85 35.1 10.3 35.1 22.5 35.1 23.15 Q35.1 23.4 35.1 23.4 35.05 23.5 35.0 23.5 35.0 23.5 34.75 23.5 L34.1 23.5 33.45 23.5 32.35 23.5 32.3 22.75 31.55 23.5 25.95 23.5 25.1 23.05 25.0 23.5 24.0 23.5 23.7 23.5 22.6 23.4 21.9 23.5 20.7 23.5 20.55 23.3 20.05 23.55 7.95 23.5 7.15 23.25 6.65 23.5 5.8 23.5 5.5 23.35 4.75 23.5 4.1 23.5 3.45 23.5 2.8 23.5 2.2 23.45 1.55 23.5 0.9 23.5 Q0.9 23.5 0.9 23.5 0.85 23.5 0.85 23.5 0.65 23.5 0.6 23.5 0.55 23.5 0.55 23.45 0.55 23.4 0.55 23.2 0.55 23.2 0.55 23.2 0.55 23.2 0.55 23.2 0.55 23.15 0.55 23.15 L0.55 17.7 1.3 17.5 0.55 16.75 0.55 16.1 0.55 15.45 0.55 14.45 0.95 14.15 0.55 13.9 0.55 10.65 0.9 10.45 0.55 9.9 0.55 9.0 0.55 8.35 0.55 7.7 1.0 7.2 0.55 6.85 0.55 2.6 Q0.55 2.55 0.55 2.55 0.55 2.4 0.55 2.35 0.55 2.25 0.65 2.25 0.7 2.2 0.85 2.2 0.85 2.2 0.85 2.2 0.85 2.2 0.9 2.2 0.9 2.2 0.9 2.2 L0.9 2.2" fill="#000000" fill-rule="evenodd" stroke="none"/>
    </g>
    <g id="shape1" transform="matrix(1.0, 0.0, 0.0, 1.0, 0.0, 0.0)">
      <path d="M14.65 9.25 Q14.65 9.15 14.65 9.05 14.7 8.95 14.75 8.9 14.75 8.8 14.8 8.75 14.85 8.7 14.9 8.65 14.95 8.6 15.0 8.6 15.0 8.55 15.05 8.55 15.1 8.5 15.1 8.5 15.1 8.5 15.15 8.5 L15.15 7.8 12.6 7.8 12.6 8.45 Q12.7 8.5 12.75 8.6 12.8 8.65 12.85 8.75 12.9 8.8 12.95 8.9 13.0 9.0 13.0 9.05 13.05 9.15 13.05 9.2 13.05 9.25 13.05 9.35 13.05 9.35 13.05 9.4 13.05 9.4 13.05 9.45 L13.05 15.5 8.0 8.85 8.0 8.9 7.55 9.1 7.65 9.25 7.15 9.0 7.4 8.85 7.5 8.9 7.75 8.75 7.75 8.65 7.8 8.65 7.95 7.85 7.95 7.8 7.45 7.8 5.35 7.8 5.35 8.45 Q5.45 8.5 5.5 8.55 5.55 8.6 5.65 8.7 5.7 8.75 5.7 8.85 5.75 8.95 5.8 9.0 5.8 9.1 5.8 9.15 5.85 9.2 5.85 9.25 5.85 9.3 5.85 9.35 5.85 9.35 5.85 9.4 L5.85 16.15 Q5.85 16.4 5.8 16.6 5.8 16.8 5.75 16.95 5.7 17.05 5.65 17.15 5.65 17.25 5.6 17.3 5.55 17.4 5.5 17.4 5.45 17.45 5.4 17.45 5.4 17.5 5.35 17.5 5.35 17.5 5.35 17.5 L5.35 18.2 8.0 18.2 8.0 17.5 Q7.9 17.45 7.85 17.4 7.75 17.3 7.7 17.2 7.65 17.1 7.6 17.0 7.6 16.9 7.55 16.75 7.55 16.65 7.55 16.55 7.5 16.45 7.5 16.35 7.5 16.3 7.5 16.2 7.5 16.2 7.5 16.15 L7.5 13.05 7.4 13.1 7.35 13.2 7.25 13.1 7.15 13.1 7.15 13.05 7.2 13.05 7.2 13.0 7.25 12.95 7.4 12.95 7.4 12.85 7.55 12.8 7.55 11.0 13.0 18.2 15.15 18.2 15.15 17.5 Q15.05 17.5 15.0 17.45 14.9 17.4 14.85 17.3 14.8 17.2 14.8 17.1 14.75 16.95 14.7 16.85 14.7 16.7 14.7 16.6 14.65 16.5 14.65 16.4 14.65 16.3 14.65 16.25 14.65 16.2 14.65 16.15 L14.65 11.15 14.65 9.25" fill="#f1edf8" fill-rule="evenodd" stroke="none"/>
      <path d="M20.05 13.75 Q20.05 13.75 20.2 13.75 20.4 13.75 20.55 13.7 20.85 13.65 21.1 13.6 21.4 13.5 21.7 13.4 22.05 13.25 22.3 13.05 22.6 12.85 22.85 12.55 23.1 12.25 23.2 11.85 23.35 11.45 23.35 10.95 23.35 10.4 23.2 9.9 23.1 9.5 22.85 9.15 22.6 8.8 22.3 8.6 22.0 8.35 21.7 8.2 21.4 8.05 21.05 8.0 20.8 7.9 20.55 7.85 20.35 7.85 20.15 7.85 20.1 7.85 20.0 7.8 L16.2 7.8 16.2 7.9 16.2 8.5 16.55 8.85 16.55 9.15 16.65 9.2 16.65 10.15 16.75 10.15 16.75 10.35 17.05 10.45 17.4 10.5 17.3 10.6 16.8 10.6 16.7 10.75 16.7 10.95 16.7 16.1 Q16.7 16.1 16.7 16.15 16.7 16.25 16.7 16.25 16.7 16.35 16.65 16.45 16.65 16.55 16.65 16.65 16.6 16.75 16.6 16.85 16.55 17.0 16.5 17.1 16.45 17.2 16.4 17.3 16.3 17.4 16.2 17.45 L16.2 18.2 18.75 18.2 18.75 17.45 Q18.75 17.45 18.7 17.45 18.7 17.4 18.65 17.4 18.6 17.35 18.6 17.35 18.55 17.3 18.5 17.2 18.45 17.15 18.4 17.05 18.35 16.95 18.35 16.85 18.3 16.75 18.3 16.6 18.3 16.45 18.3 16.25 L18.3 12.35 18.15 12.25 18.2 12.2 18.3 12.15 18.3 11.0 18.25 10.85 18.15 10.7 18.2 10.35 18.2 10.2 18.3 10.3 18.3 10.2 18.3 9.25 20.25 9.25 Q20.25 9.25 20.3 9.25 20.4 9.25 20.5 9.3 20.6 9.3 20.75 9.35 20.9 9.4 21.05 9.5 21.2 9.55 21.35 9.65 21.5 9.8 21.6 9.95 21.7 10.15 21.8 10.35 21.85 10.6 21.85 10.9 21.85 10.9 21.85 10.95 21.85 11.05 21.85 11.15 21.85 11.3 21.8 11.4 21.75 11.55 21.65 11.7 21.5 11.85 21.35 11.95 21.15 12.1 20.9 12.2 20.6 12.3 20.25 12.35 19.8 12.4 19.35 12.35 L19.25 12.35 19.25 13.3 20.05 13.75" fill="#f1edf8" fill-rule="evenodd" stroke="none"/>
      <path d="M25.15 12.45 Q25.15 12.45 25.15 12.5 25.15 12.55 25.2 12.6 25.2 12.7 25.2 12.8 25.25 12.9 25.3 12.95 25.35 13.05 25.45 13.15 25.55 13.2 25.65 13.25 25.8 13.3 26.0 13.25 26.2 13.25 26.4 13.2 26.55 13.15 26.8 13.1 27.0 13.1 27.2 13.1 27.4 13.15 27.65 13.2 27.85 13.25 28.05 13.35 28.25 13.4 28.4 13.55 28.6 13.65 28.7 13.8 28.85 13.95 28.9 14.1 29.0 14.25 29.0 14.45 29.0 14.6 28.95 14.8 28.9 14.95 28.8 15.15 28.7 15.3 28.6 15.5 28.5 15.65 28.35 15.8 28.2 15.95 28.0 16.05 27.85 16.2 27.7 16.3 27.5 16.4 27.3 16.45 27.15 16.55 26.95 16.55 26.6 16.6 26.3 16.65 26.05 16.65 25.75 16.6 25.5 16.6 25.3 16.55 25.1 16.5 24.9 16.4 24.75 16.35 24.6 16.25 24.5 16.2 24.4 16.1 24.3 16.05 24.25 16.0 24.25 16.0 24.2 16.0 24.2 16.1 24.15 16.2 24.15 16.3 24.05 16.45 24.0 16.5 23.9 16.65 23.8 16.7 23.7 16.85 23.3 17.25 23.55 17.0 23.45 17.1 23.4 17.15 23.35 17.25 23.3 17.3 23.3 17.35 23.35 17.35 23.4 17.4 23.45 17.45 23.5 17.5 23.6 17.55 23.65 17.6 23.8 17.65 23.9 17.7 24.05 17.8 24.2 17.85 24.4 17.9 24.6 17.95 24.8 18.0 25.05 18.05 25.35 18.1 25.65 18.15 25.95 18.15 26.3 18.2 26.65 18.15 27.0 18.1 27.35 18.05 27.7 17.95 28.05 17.8 28.4 17.7 28.7 17.5 29.0 17.25 29.3 17.0 29.55 16.7 29.8 16.4 30.0 16.05 30.15 15.65 30.3 15.2 30.35 14.75 30.4 14.3 30.35 13.85 30.35 13.5 30.2 13.2 30.05 12.9 29.85 12.65 29.7 12.45 29.45 12.3 29.25 12.15 29.05 12.05 28.85 12.0 28.65 11.95 28.55 11.9 28.4 11.85 28.35 11.85 28.3 11.85 28.3 11.85 28.35 11.8 28.45 11.75 28.5 11.7 28.65 11.6 28.75 11.45 28.9 11.35 29.0 11.2 29.15 11.05 29.25 10.9 29.4 10.7 29.45 10.5 29.55 10.3 29.6 10.1 29.65 9.85 29.65 9.6 29.65 9.35 29.55 9.15 29.5 8.95 29.35 8.8 29.25 8.65 29.1 8.5 28.95 8.35 28.75 8.25 28.6 8.15 28.4 8.1 28.25 8.0 28.05 7.95 27.85 7.9 27.65 7.9 27.5 7.85 27.3 7.85 27.15 7.85 27.0 7.85 26.8 7.9 26.65 7.9 26.45 7.95 26.3 8.0 26.1 8.05 25.95 8.1 25.75 8.15 25.6 8.25 25.4 8.35 25.25 8.45 25.1 8.55 24.9 8.7 24.75 8.85 24.6 9.0 24.5 9.1 24.4 9.25 24.3 9.3 24.2 9.4 24.1 9.45 24.05 9.5 24.0 9.55 23.95 9.6 23.9 9.65 23.85 9.65 23.8 9.7 23.8 9.7 23.75 9.7 23.75 9.7 23.75 9.7 23.75 9.7 23.75 9.8 23.75 9.95 23.8 10.1 23.8 10.25 23.85 10.4 23.9 10.55 23.95 10.7 24.0 10.85 24.05 11.0 24.1 11.1 24.15 11.25 24.15 11.3 24.2 11.4 24.25 11.4 24.25 11.45 24.25 11.4 24.25 11.35 24.3 11.25 24.35 11.15 24.45 11.0 24.55 10.9 24.7 10.75 24.85 10.55 25.0 10.4 25.15 10.25 25.3 10.1 25.45 9.9 25.65 9.75 25.8 9.6 25.95 9.5 26.15 9.4 26.3 9.3 26.45 9.2 26.6 9.2 26.75 9.15 26.9 9.15 27.05 9.15 27.2 9.15 27.35 9.2 27.5 9.25 27.6 9.3 27.7 9.4 27.8 9.5 27.9 9.6 28.0 9.75 28.05 9.9 28.1 10.05 28.1 10.2 28.1 10.35 28.0 10.55 27.9 10.75 27.7 10.95 27.55 11.1 27.3 11.3 27.1 11.45 26.8 11.6 26.55 11.75 26.3 11.9 26.05 12.0 25.8 12.15 25.6 12.2 25.4 12.3 25.2 12.4 25.15 12.45 L25.15 12.45" fill="#f1edf8" fill-rule="evenodd" stroke="none"/>
    </g>
  </defs>
</svg>
