<?xml version="1.0" encoding="UTF-8" standalone="no"?>
<svg xmlns:ffdec="https://www.free-decompiler.com/flash" xmlns:xlink="http://www.w3.org/1999/xlink" ffdec:objectType="frame" height="26.55px" width="70.8px" xmlns="http://www.w3.org/2000/svg">
  <g transform="matrix(1.0, 0.0, 0.0, 1.0, 0.2, 0.4)">
    <use ffdec:characterId="1" height="26.0" transform="matrix(1.0, 0.0, 0.0, 1.0, 0.0, 0.0)" width="35.75" xlink:href="#shape0"/>
    <use ffdec:characterId="102" height="26.0" transform="matrix(1.0, 0.0, 0.0, 1.0, 0.0, 0.0)" width="35.75" xlink:href="#shape1"/>
    <use ffdec:characterId="102" height="26.0" transform="matrix(1.0, 0.0, 0.0, 1.0, 0.0, 0.0)" width="35.75" xlink:href="#shape1"/>
  </g>
  <defs>
    <g id="shape0" transform="matrix(1.0, 0.0, 0.0, 1.0, 0.0, 0.0)">
      <path d="M35.1 2.45 Q35.1 2.5 35.1 2.55 35.1 2.55 35.1 2.6 L35.1 4.05 34.45 3.8 35.1 4.5 35.1 5.25 34.55 5.25 35.1 6.45 35.1 7.1 34.9 8.15 35.1 7.8 35.1 9.55 34.45 9.85 34.8 10.05 35.35 9.8 35.35 8.05 35.15 8.4 35.35 7.35 35.35 6.7 34.8 5.5 35.35 5.5 35.35 4.75 34.7 4.05 35.35 4.3 35.35 2.85 Q35.35 2.85 35.35 2.8 35.35 2.7 35.35 2.65 35.35 2.55 35.3 2.55 35.3 2.5 35.25 2.5 35.2 2.5 35.1 2.45 L35.1 2.45 M35.1 10.4 L35.1 22.5 35.1 23.15 Q35.1 23.45 35.05 23.5 35.05 23.5 34.75 23.5 L34.1 23.5 33.45 23.5 32.6 23.5 32.6 23.75 33.7 23.75 34.35 23.75 35.0 23.75 Q35.25 23.75 35.3 23.75 35.35 23.7 35.35 23.4 L35.35 22.75 35.35 10.55 35.1 10.4 M32.3 22.75 L31.55 23.5 25.95 23.5 25.1 23.05 25.0 23.5 24.0 23.5 23.7 23.5 22.6 23.4 21.9 23.5 20.7 23.5 20.55 23.3 20.05 23.55 7.95 23.5 7.15 23.25 6.65 23.5 5.8 23.5 5.5 23.35 4.75 23.5 4.1 23.5 3.45 23.5 2.8 23.5 2.2 23.45 1.55 23.5 1.1 23.5 Q1.1 23.55 1.1 23.75 1.1 23.75 1.1 23.75 1.1 23.75 1.15 23.75 L1.75 23.75 2.45 23.7 3.05 23.75 3.7 23.75 4.35 23.75 5.0 23.75 5.75 23.6 6.05 23.75 6.9 23.75 18.95 23.75 19.75 23.75 20.3 23.8 20.8 23.55 20.9 23.75 22.15 23.75 22.85 23.65 23.95 23.75 24.25 23.75 25.25 23.75 25.35 23.3 26.15 23.75 31.8 23.75 32.35 23.2 32.3 22.75" fill="#ffffff" fill-rule="evenodd" stroke="none"/>
      <path d="M0.9 2.2 L4.25 2.2 4.5 2.65 4.8 2.4 6.0 2.2 13.45 2.2 13.6 2.7 14.05 2.2 15.35 2.2 26.5 2.2 27.0 2.65 27.2 2.2 27.85 2.2 34.75 2.2 Q34.95 2.2 35.0 2.25 35.1 2.25 35.1 2.35 35.1 2.4 35.1 2.55 35.1 2.55 35.1 2.6 L35.1 4.05 34.45 3.8 35.1 4.5 35.1 5.25 34.55 5.25 35.1 6.45 35.1 7.1 34.9 8.15 35.1 7.8 35.1 9.55 34.45 9.85 35.1 10.3 35.1 22.5 35.1 23.15 Q35.1 23.4 35.1 23.4 35.05 23.5 35.0 23.5 35.0 23.5 34.75 23.5 L34.1 23.5 33.45 23.5 32.35 23.5 32.3 22.75 31.55 23.5 25.95 23.5 25.1 23.05 25.0 23.5 24.0 23.5 23.7 23.5 22.6 23.4 21.9 23.5 20.7 23.5 20.55 23.3 20.05 23.55 7.95 23.5 7.15 23.25 6.65 23.5 5.8 23.5 5.5 23.35 4.75 23.5 4.1 23.5 3.45 23.5 2.8 23.5 2.2 23.45 1.55 23.5 0.9 23.5 Q0.9 23.5 0.9 23.5 0.85 23.5 0.85 23.5 0.65 23.5 0.6 23.5 0.55 23.5 0.55 23.45 0.55 23.4 0.55 23.2 0.55 23.2 0.55 23.2 0.55 23.2 0.55 23.2 0.55 23.15 0.55 23.15 L0.55 17.7 1.3 17.5 0.55 16.75 0.55 16.1 0.55 15.45 0.55 14.45 0.95 14.15 0.55 13.9 0.55 10.65 0.9 10.45 0.55 9.9 0.55 9.0 0.55 8.35 0.55 7.7 1.0 7.2 0.55 6.85 0.55 2.6 Q0.55 2.55 0.55 2.55 0.55 2.4 0.55 2.35 0.55 2.25 0.65 2.25 0.7 2.2 0.85 2.2 0.85 2.2 0.85 2.2 0.85 2.2 0.9 2.2 0.9 2.2 0.9 2.2 L0.9 2.2" fill="#000000" fill-rule="evenodd" stroke="none"/>
    </g>
    <g id="shape1" transform="matrix(1.0, 0.0, 0.0, 1.0, 0.0, 0.0)">
      <path d="M14.2 9.25 Q14.2 9.15 14.2 9.05 14.25 8.95 14.25 8.9 14.3 8.8 14.35 8.75 14.35 8.7 14.4 8.65 14.45 8.6 14.5 8.6 14.55 8.55 14.55 8.55 14.6 8.5 14.6 8.5 14.65 8.5 14.65 8.5 L14.65 7.8 12.1 7.8 12.1 8.45 Q12.2 8.5 12.25 8.6 12.3 8.65 12.35 8.75 12.4 8.8 12.45 8.9 12.5 9.0 12.5 9.05 12.55 9.15 12.55 9.2 12.55 9.25 12.6 9.35 12.6 9.35 12.6 9.4 12.6 9.4 12.6 9.45 L12.55 15.5 7.5 8.85 7.5 8.9 7.05 9.1 7.2 9.25 6.65 9.0 6.95 8.85 7.0 8.9 7.25 8.75 7.25 8.65 7.3 8.65 7.45 7.85 7.45 7.8 7.0 7.8 4.85 7.8 4.85 8.45 Q4.95 8.5 5.0 8.55 5.1 8.6 5.15 8.7 5.2 8.75 5.25 8.85 5.25 8.95 5.3 9.0 5.3 9.1 5.35 9.15 5.35 9.2 5.35 9.25 5.35 9.3 5.35 9.35 5.35 9.35 5.35 9.4 L5.35 16.15 Q5.35 16.4 5.3 16.6 5.3 16.8 5.25 16.95 5.25 17.05 5.2 17.15 5.15 17.25 5.1 17.3 5.05 17.4 5.0 17.4 4.95 17.45 4.95 17.45 4.9 17.5 4.85 17.5 4.85 17.5 4.85 17.5 L4.85 18.2 7.5 18.2 7.5 17.5 Q7.4 17.45 7.35 17.4 7.25 17.3 7.2 17.2 7.15 17.1 7.15 17.0 7.1 16.9 7.1 16.75 7.05 16.65 7.05 16.55 7.05 16.45 7.05 16.35 7.05 16.3 7.05 16.2 7.05 16.2 7.05 16.15 L7.05 13.05 6.9 13.1 6.85 13.2 6.75 13.1 6.65 13.1 6.65 13.05 6.7 13.05 6.7 13.0 6.75 12.95 6.9 12.95 6.9 12.85 7.05 12.8 7.05 11.0 12.55 18.2 14.65 18.2 14.65 17.5 Q14.55 17.5 14.5 17.45 14.45 17.4 14.35 17.3 14.35 17.2 14.3 17.1 14.25 16.95 14.25 16.85 14.2 16.7 14.2 16.6 14.2 16.5 14.15 16.4 14.15 16.3 14.15 16.25 14.15 16.2 14.15 16.15 L14.15 11.15 14.2 9.25" fill="#f1edf8" fill-rule="evenodd" stroke="none"/>
      <path d="M19.55 13.75 Q19.55 13.75 19.7 13.75 19.9 13.75 20.1 13.7 20.35 13.65 20.6 13.6 20.95 13.5 21.2 13.4 21.55 13.25 21.8 13.05 22.15 12.85 22.35 12.55 22.6 12.25 22.7 11.85 22.85 11.45 22.85 10.95 22.85 10.4 22.7 9.9 22.6 9.5 22.35 9.15 22.1 8.8 21.8 8.6 21.55 8.35 21.2 8.2 20.9 8.05 20.6 8.0 20.3 7.9 20.05 7.85 19.85 7.85 19.65 7.85 19.6 7.85 19.55 7.8 L15.75 7.8 15.75 7.9 15.75 8.5 16.1 8.85 16.1 9.15 16.15 9.2 16.15 10.15 16.25 10.15 16.25 10.35 16.55 10.45 16.9 10.5 16.8 10.6 16.3 10.6 16.25 10.75 16.2 10.95 16.2 16.1 Q16.2 16.1 16.2 16.15 16.2 16.2 16.2 16.25 16.2 16.35 16.2 16.45 16.15 16.55 16.15 16.65 16.1 16.75 16.1 16.85 16.05 17.0 16.0 17.1 15.95 17.2 15.9 17.3 15.8 17.4 15.75 17.45 L15.75 18.2 18.25 18.2 18.25 17.45 Q18.25 17.45 18.2 17.45 18.2 17.4 18.15 17.4 18.1 17.35 18.1 17.35 18.05 17.3 18.0 17.2 17.95 17.15 17.9 17.05 17.85 16.95 17.85 16.85 17.8 16.75 17.8 16.6 17.8 16.45 17.8 16.25 L17.8 12.35 17.7 12.25 17.7 12.2 17.8 12.15 17.8 11.0 17.75 10.85 17.7 10.7 17.7 10.35 17.75 10.2 17.8 10.3 17.8 10.2 17.8 9.25 19.75 9.25 Q19.75 9.25 19.8 9.25 19.9 9.25 20.0 9.3 20.1 9.3 20.25 9.35 20.4 9.4 20.55 9.5 20.7 9.55 20.85 9.65 21.0 9.8 21.1 9.95 21.25 10.15 21.3 10.35 21.35 10.6 21.4 10.9 21.4 10.9 21.4 10.95 21.4 11.05 21.4 11.15 21.35 11.3 21.3 11.4 21.25 11.55 21.15 11.7 21.05 11.85 20.85 11.95 20.65 12.1 20.4 12.2 20.1 12.3 19.75 12.35 19.35 12.4 18.85 12.35 L18.75 12.35 18.75 13.3 19.55 13.75" fill="#f1edf8" fill-rule="evenodd" stroke="none"/>
      <path d="M30.75 11.4 Q30.65 11.0 30.6 10.9 30.5 10.55 30.45 10.3 30.3 10.0 30.2 9.75 30.05 9.4 29.85 9.15 29.65 8.9 29.4 8.65 29.15 8.4 28.85 8.25 28.5 8.05 28.1 8.0 27.7 7.9 27.2 7.9 26.65 7.9 26.2 8.05 25.75 8.25 25.4 8.55 25.05 8.8 24.8 9.2 24.55 9.55 24.35 10.0 24.15 10.4 24.0 10.85 23.9 11.25 23.8 11.65 23.75 12.0 23.7 12.35 23.7 12.6 23.7 12.8 23.7 13.15 23.7 13.25 23.7 13.65 23.7 14.0 23.75 14.45 23.85 14.85 23.9 15.35 24.05 15.8 24.25 16.3 24.5 16.65 24.75 17.1 25.1 17.4 25.5 17.75 26.0 17.95 26.55 18.15 27.25 18.15 27.95 18.15 28.5 17.9 29.0 17.7 29.45 17.25 29.8 16.9 30.1 16.35 30.35 15.85 30.55 15.25 30.7 14.7 30.8 14.1 30.9 13.55 30.9 13.0 30.9 12.5 30.85 12.1 30.85 11.65 30.75 11.4 L30.75 11.4 M28.95 15.7 Q28.85 15.95 28.7 16.15 28.5 16.35 28.3 16.5 28.1 16.65 27.85 16.75 27.6 16.8 27.35 16.8 27.1 16.85 26.85 16.8 26.6 16.75 26.35 16.6 26.1 16.5 25.9 16.3 25.75 16.1 25.6 15.85 25.45 15.6 25.35 15.25 25.25 14.95 25.2 14.6 25.15 14.25 25.1 13.85 25.1 13.5 25.1 13.15 25.1 12.8 25.15 12.4 25.2 12.05 25.25 11.75 25.3 11.4 25.35 11.1 25.4 10.85 25.45 10.6 25.55 10.3 25.7 10.0 25.9 9.8 26.15 9.6 26.35 9.45 26.6 9.35 26.85 9.25 27.15 9.25 27.4 9.25 27.7 9.3 27.95 9.35 28.15 9.45 28.4 9.6 28.55 9.8 28.75 10.0 28.85 10.2 29.0 10.55 29.1 10.85 29.2 11.2 29.25 11.55 29.35 11.85 29.4 12.2 29.45 12.55 29.45 12.9 29.45 13.25 29.45 13.6 29.4 13.95 29.35 14.3 29.3 14.65 29.2 15.0 29.1 15.35 28.95 15.7 L28.95 15.7" fill="#f1edf8" fill-rule="evenodd" stroke="none"/>
    </g>
  </defs>
</svg>
