<?xml version="1.0" encoding="UTF-8" standalone="no"?>
<svg xmlns:ffdec="https://www.free-decompiler.com/flash" xmlns:xlink="http://www.w3.org/1999/xlink" ffdec:objectType="shape" height="26.0px" width="26.0px" xmlns="http://www.w3.org/2000/svg">
  <g transform="matrix(1.0, 0.0, 0.0, 1.0, 0.0, 0.0)">
    <path d="M14.05 2.05 Q18.6 2.5 21.5 6.0 21.85 6.45 22.15 6.9 L13.0 13.0 14.05 2.05" fill="#cccccc" fill-rule="evenodd" stroke="none"/>
    <path d="M23.75 15.35 Q22.75 19.8 18.9 22.25 15.8 24.25 12.1 23.95 7.6 23.6 4.65 20.15 2.2 17.35 2.0 13.65 1.75 9.1 4.8 5.7 7.25 2.9 10.85 2.2 L13.0 13.0 23.75 15.35" fill="#e6e6e6" fill-rule="evenodd" stroke="none"/>
    <path d="M22.1 6.8 Q24.65 10.55 23.8 15.05 23.25 18.2 21.0 20.55 17.9 23.85 13.35 24.0 10.1 24.1 7.35 22.45 3.45 20.1 2.35 15.7 1.55 12.55 2.55 9.5 4.0 5.2 8.1 3.15 10.95 1.7 14.15 2.05 L13.0 13.0 22.1 6.8" fill="#b8b8b8" fill-rule="evenodd" stroke="none"/>
    <path d="M23.85 11.2 Q24.6 15.7 21.95 19.4 20.55 21.35 18.5 22.5 14.55 24.8 10.15 23.65 7.9 23.05 6.05 21.55 2.5 18.65 2.05 14.1 1.8 11.75 2.55 9.5 4.0 5.2 8.1 3.15 10.2 2.1 12.55 2.0 L13.0 13.0 23.85 11.2" fill="#b0b0b0" fill-rule="evenodd" stroke="none"/>
    <path d="M21.0 20.55 Q17.9 23.85 13.35 24.0 11.2 24.05 9.2 23.3 4.9 21.75 3.0 17.6 2.1 15.65 2.0 13.55 1.8 8.95 4.85 5.6 6.3 4.0 8.2 3.1 L13.0 13.0 21.0 20.55" fill="#a6a6a6" fill-rule="evenodd" stroke="none"/>
    <path d="M17.75 22.9 Q13.65 24.9 9.35 23.4 6.5 22.4 4.55 20.05 1.65 16.55 2.05 12.05 2.3 9.0 4.1 6.55 L13.0 13.0 17.75 22.9" fill="#9c9c9c" fill-rule="evenodd" stroke="none"/>
    <path d="M14.3 23.9 Q9.8 24.45 6.2 21.65 5.55 21.1 4.95 20.5 1.85 17.15 2.0 12.6 2.05 11.75 2.2 10.9 L13.0 13.0 14.3 23.9" fill="#919191" fill-rule="evenodd" stroke="none"/>
    <path d="M10.8 23.8 Q6.3 22.85 3.8 19.05 2.5 17.05 2.15 14.7 L13.0 13.0 10.8 23.8" fill="#878787" fill-rule="evenodd" stroke="none"/>
    <path d="M7.6 22.6 Q4.35 20.75 2.9 17.35 L13.0 13.0 7.6 22.6" fill="#808080" fill-rule="evenodd" stroke="none"/>
    <path d="M23.0 13.0 Q23.0 8.85 20.05 5.95 17.15 3.0 13.0 3.0 8.85 3.0 5.95 5.95 3.0 8.85 3.0 13.0 3.0 17.15 5.95 20.05 8.85 23.0 13.0 23.0 17.15 23.0 20.05 20.05 23.0 17.15 23.0 13.0 L23.0 13.0" fill="url(#gradient0)" fill-rule="evenodd" stroke="none"/>
  </g>
  <defs>
    <linearGradient gradientTransform="matrix(-0.017, -0.0171, 0.0171, -0.017, 17.3, 17.5)" gradientUnits="userSpaceOnUse" id="gradient0" spreadMethod="pad" x1="-819.2" x2="819.2">
      <stop offset="0.0" stop-color="#8f8f8f"/>
      <stop offset="0.21176470588235294" stop-color="#ababab"/>
      <stop offset="0.3607843137254902" stop-color="#999999"/>
      <stop offset="0.5176470588235295" stop-color="#d9d9d9"/>
      <stop offset="0.6274509803921569" stop-color="#b8b8b8"/>
      <stop offset="0.7294117647058823" stop-color="#ababab"/>
      <stop offset="0.8549019607843137" stop-color="#cccccc"/>
      <stop offset="1.0" stop-color="#808080"/>
    </linearGradient>
  </defs>
</svg>
