<?xml version="1.0" encoding="UTF-8" standalone="no"?>
<svg xmlns:ffdec="https://www.free-decompiler.com/flash" xmlns:xlink="http://www.w3.org/1999/xlink" ffdec:objectType="shape" height="12.8px" width="13.5px" xmlns="http://www.w3.org/2000/svg">
  <g transform="matrix(1.0, 0.0, 0.0, 1.0, 0.0, 0.0)">
    <path d="M5.0 12.75 L2.4 12.25 0.85 10.7 0.85 2.05 2.4 0.5 4.75 0.0 5.25 0.0 7.6 0.5 9.15 2.05 9.15 10.7 7.6 12.25 5.0 12.75" fill="#404040" fill-rule="evenodd" stroke="none"/>
    <path d="M1.0 6.15 L4.75 6.15 4.75 0.15 2.5 0.65 1.0 2.15 1.0 6.15" fill="#3cdcdc" fill-rule="evenodd" stroke="none"/>
    <path d="M9.0 6.15 L5.25 6.15 5.25 0.15 7.5 0.65 9.0 2.15 9.0 6.15" fill="#b2b2b2" fill-rule="evenodd" stroke="none"/>
    <path d="M1.0 6.65 L1.0 10.65 2.5 12.15 5.0 12.65 7.5 12.15 9.0 10.65 9.0 6.65 1.0 6.65" fill="#b2b2b2" fill-rule="evenodd" stroke="none"/>
    <path d="M1.0 6.65 L9.0 6.65 8.5 7.15 1.5 7.15 1.0 6.65" fill="#d9d9d9" fill-rule="evenodd" stroke="none"/>
    <path d="M1.0 6.65 L1.0 10.65 1.5 10.35 1.5 7.15 1.0 6.65" fill="#808080" fill-rule="evenodd" stroke="none"/>
    <path d="M9.0 6.65 L9.0 10.65 8.5 10.35 8.5 7.15 9.0 6.65" fill="#a6a6a6" fill-rule="evenodd" stroke="none"/>
    <path d="M1.5 10.35 L2.8 11.65 2.5 12.15 1.0 10.65 1.5 10.35" fill="#737373" fill-rule="evenodd" stroke="none"/>
    <path d="M5.0 12.65 L5.0 12.15 2.8 11.65 2.5 12.15 5.0 12.65" fill="#595959" fill-rule="evenodd" stroke="none"/>
    <path d="M5.0 12.65 L5.0 12.15 7.2 11.65 7.5 12.15 5.0 12.65" fill="#666666" fill-rule="evenodd" stroke="none"/>
    <path d="M8.5 10.35 L7.2 11.65 7.5 12.15 9.0 10.65 8.5 10.35" fill="#999999" fill-rule="evenodd" stroke="none"/>
    <path d="M1.0 6.15 L4.75 6.15 4.25 5.65 1.5 5.65 1.0 6.15" fill="#4d4d4d" fill-rule="evenodd" stroke="none"/>
    <path d="M1.0 2.15 L1.0 6.15 1.5 5.65 1.5 2.35 1.0 2.15" fill="#808080" fill-rule="evenodd" stroke="none"/>
    <path d="M4.75 6.15 L4.75 0.15 4.25 0.7 4.25 5.65 4.75 6.15" fill="#a6a6a6" fill-rule="evenodd" stroke="none"/>
    <path d="M1.5 2.35 L2.8 1.0 2.5 0.65 1.0 2.15 1.5 2.35" fill="#a6a6a6" fill-rule="evenodd" stroke="none"/>
    <path d="M2.8 1.0 L4.25 0.7 4.75 0.15 2.5 0.65 2.8 1.0" fill="#c4c4c4" fill-rule="evenodd" stroke="none"/>
    <path d="M9.0 6.15 L5.25 6.15 5.75 5.65 8.5 5.65 9.0 6.15" fill="#4d4d4d" fill-rule="evenodd" stroke="none"/>
    <path d="M9.0 2.15 L9.0 6.15 8.5 5.65 8.5 2.35 9.0 2.15" fill="#a6a6a6" fill-rule="evenodd" stroke="none"/>
    <path d="M5.25 6.15 L5.25 0.15 5.75 0.7 5.75 5.65 5.25 6.15" fill="#808080" fill-rule="evenodd" stroke="none"/>
    <path d="M8.5 2.35 L7.2 1.0 7.5 0.65 9.0 2.15 8.5 2.35" fill="#bababa" fill-rule="evenodd" stroke="none"/>
    <path d="M7.2 1.0 L5.75 0.7 5.25 0.15 7.5 0.65 7.2 1.0" fill="#d9d9d9" fill-rule="evenodd" stroke="none"/>
  </g>
</svg>
