<?xml version="1.0" encoding="UTF-8" standalone="no"?>
<svg xmlns:ffdec="https://www.free-decompiler.com/flash" xmlns:xlink="http://www.w3.org/1999/xlink" ffdec:objectType="shape" height="12.95px" width="32.45px" xmlns="http://www.w3.org/2000/svg">
  <g transform="matrix(1.0, 0.0, 0.0, 1.0, 0.0, 0.0)">
    <path d="M13.0 12.75 L10.4 12.25 8.85 10.7 8.85 2.05 10.4 0.5 12.75 0.0 13.25 0.0 15.6 0.5 17.15 2.05 17.15 10.7 15.6 12.25 13.0 12.75" fill="#404040" fill-rule="evenodd" stroke="none"/>
    <path d="M9.0 6.15 L12.75 6.15 12.75 0.15 10.5 0.65 9.0 2.15 9.0 6.15" fill="#b2b2b2" fill-rule="evenodd" stroke="none"/>
    <path d="M17.0 6.15 L13.25 6.15 13.25 0.15 15.5 0.65 17.0 2.15 17.0 6.15" fill="#b2b2b2" fill-rule="evenodd" stroke="none"/>
    <path d="M9.0 6.65 L9.0 10.65 10.5 12.15 13.0 12.65 15.5 12.15 17.0 10.65 17.0 6.65 9.0 6.65" fill="#b2b2b2" fill-rule="evenodd" stroke="none"/>
    <path d="M9.0 6.65 L17.0 6.65 16.5 7.15 9.5 7.15 9.0 6.65" fill="#d9d9d9" fill-rule="evenodd" stroke="none"/>
    <path d="M9.0 6.65 L9.0 10.65 9.5 10.35 9.5 7.15 9.0 6.65" fill="#808080" fill-rule="evenodd" stroke="none"/>
    <path d="M17.0 6.65 L17.0 10.65 16.5 10.35 16.5 7.15 17.0 6.65" fill="#a6a6a6" fill-rule="evenodd" stroke="none"/>
    <path d="M9.5 10.35 L10.8 11.65 10.5 12.15 9.0 10.65 9.5 10.35" fill="#737373" fill-rule="evenodd" stroke="none"/>
    <path d="M13.0 12.65 L13.0 12.15 10.8 11.65 10.5 12.15 13.0 12.65" fill="#595959" fill-rule="evenodd" stroke="none"/>
    <path d="M13.0 12.65 L13.0 12.15 15.2 11.65 15.5 12.15 13.0 12.65" fill="#666666" fill-rule="evenodd" stroke="none"/>
    <path d="M16.5 10.35 L15.2 11.65 15.5 12.15 17.0 10.65 16.5 10.35" fill="#999999" fill-rule="evenodd" stroke="none"/>
    <path d="M9.0 6.15 L12.75 6.15 12.25 5.65 9.5 5.65 9.0 6.15" fill="#4d4d4d" fill-rule="evenodd" stroke="none"/>
    <path d="M9.0 2.15 L9.0 6.15 9.5 5.65 9.5 2.35 9.0 2.15" fill="#808080" fill-rule="evenodd" stroke="none"/>
    <path d="M12.75 6.15 L12.75 0.15 12.25 0.7 12.25 5.65 12.75 6.15" fill="#a6a6a6" fill-rule="evenodd" stroke="none"/>
    <path d="M9.5 2.35 L10.8 1.0 10.5 0.65 9.0 2.15 9.5 2.35" fill="#a6a6a6" fill-rule="evenodd" stroke="none"/>
    <path d="M10.8 1.0 L12.25 0.7 12.75 0.15 10.5 0.65 10.8 1.0" fill="#c4c4c4" fill-rule="evenodd" stroke="none"/>
    <path d="M17.0 6.15 L13.25 6.15 13.75 5.65 16.5 5.65 17.0 6.15" fill="#4d4d4d" fill-rule="evenodd" stroke="none"/>
    <path d="M17.0 2.15 L17.0 6.15 16.5 5.65 16.5 2.35 17.0 2.15" fill="#a6a6a6" fill-rule="evenodd" stroke="none"/>
    <path d="M13.25 6.15 L13.25 0.15 13.75 0.7 13.75 5.65 13.25 6.15" fill="#808080" fill-rule="evenodd" stroke="none"/>
    <path d="M16.5 2.35 L15.2 1.0 15.5 0.65 17.0 2.15 16.5 2.35" fill="#bababa" fill-rule="evenodd" stroke="none"/>
    <path d="M15.2 1.0 L13.75 0.7 13.25 0.15 15.5 0.65 15.2 1.0" fill="#d9d9d9" fill-rule="evenodd" stroke="none"/>
  </g>
</svg>
