<?xml version="1.0" encoding="UTF-8" standalone="no"?>
<svg xmlns:ffdec="https://www.free-decompiler.com/flash" xmlns:xlink="http://www.w3.org/1999/xlink" ffdec:objectType="shape" height="26.0px" width="41.75px" xmlns="http://www.w3.org/2000/svg">
  <g transform="matrix(1.0, 0.0, 0.0, 1.0, 0.0, 0.0)">
    <path d="M39.75 4.5 Q39.75 3.45 39.0 2.75 38.3 2.0 37.25 2.0 L4.5 2.0 Q3.45 2.0 2.75 2.75 2.0 3.45 2.0 4.5 L2.0 21.5 Q2.0 22.55 2.75 23.25 3.45 24.0 4.5 24.0 L37.25 24.0 Q38.3 24.0 39.0 23.25 39.75 22.55 39.75 21.5 L39.75 4.5 39.75 4.5" fill="#140f0a" fill-rule="evenodd" stroke="none"/>
    <path d="M2.0 2.0 L39.75 2.0 39.75 24.0 2.0 24.0 2.0 2.0" fill="url(#gradient0)" fill-rule="evenodd" stroke="none"/>
    <path d="M2.0 2.0 L3.5 3.5 3.5 22.5 2.0 24.0 2.0 2.0" fill="#808080" fill-rule="evenodd" stroke="none"/>
    <path d="M39.75 24.0 L38.25 22.5 38.25 3.5 39.75 2.0 39.75 24.0" fill="#a6a6a6" fill-rule="evenodd" stroke="none"/>
    <path d="M2.0 24.0 L3.5 22.5 38.25 22.5 39.75 24.0 2.0 24.0" fill="#4d4d4d" fill-rule="evenodd" stroke="none"/>
    <path d="M39.75 2.0 L38.25 3.5 3.5 3.5 2.0 2.0 39.75 2.0" fill="#d9d9d9" fill-rule="evenodd" stroke="none"/>
  </g>
  <defs>
    <linearGradient gradientTransform="matrix(0.023, 0.0134, -0.0134, 0.023, 20.85, 13.0)" gradientUnits="userSpaceOnUse" id="gradient0" spreadMethod="pad" x1="-819.2" x2="819.2">
      <stop offset="0.0" stop-color="#696969"/>
      <stop offset="0.12156862745098039" stop-color="#b2b2b2"/>
      <stop offset="0.23529411764705882" stop-color="#d9d9d9"/>
      <stop offset="0.32941176470588235" stop-color="#b2b2b2"/>
      <stop offset="0.34509803921568627" stop-color="#c2c2c2"/>
      <stop offset="0.5137254901960784" stop-color="#a3a3a3"/>
      <stop offset="0.6862745098039216" stop-color="#b2b2b2"/>
      <stop offset="0.7254901960784313" stop-color="#9c9c9c"/>
      <stop offset="0.8745098039215686" stop-color="#d9d9d9"/>
      <stop offset="1.0" stop-color="#a1a1a1"/>
    </linearGradient>
  </defs>
</svg>
