<?xml version="1.0" encoding="UTF-8" standalone="no"?>
<svg xmlns:ffdec="https://www.free-decompiler.com/flash" xmlns:xlink="http://www.w3.org/1999/xlink" ffdec:objectType="shape" height="26.0px" width="52.95px" xmlns="http://www.w3.org/2000/svg">
  <g transform="matrix(1.0, 0.0, 0.0, 1.0, 0.0, 0.0)">
    <path d="M2.0 2.0 L2.0 24.0 50.95 24.0 50.95 2.0 2.0 2.0" fill="url(#gradient0)" fill-rule="evenodd" stroke="none"/>
    <path d="M2.0 2.0 L3.5 3.5 3.5 22.5 2.0 24.0 2.0 2.0" fill="#808080" fill-rule="evenodd" stroke="none"/>
    <path d="M50.95 24.0 L49.45 22.5 49.45 3.5 50.95 2.0 50.95 24.0" fill="#a6a6a6" fill-rule="evenodd" stroke="none"/>
    <path d="M2.0 24.0 L3.5 22.5 49.45 22.5 50.95 24.0 2.0 24.0" fill="#4d4d4d" fill-rule="evenodd" stroke="none"/>
    <path d="M50.95 2.0 L49.45 3.5 3.5 3.5 2.0 2.0 50.95 2.0" fill="#d9d9d9" fill-rule="evenodd" stroke="none"/>
  </g>
  <defs>
    <linearGradient gradientTransform="matrix(0.0239, 0.0132, -0.0132, 0.0239, 27.0, 13.05)" gradientUnits="userSpaceOnUse" id="gradient0" spreadMethod="pad" x1="-819.2" x2="819.2">
      <stop offset="0.0" stop-color="#8f8f8f"/>
      <stop offset="0.06666666666666667" stop-color="#b2b2b2"/>
      <stop offset="0.1568627450980392" stop-color="#d9d9d9"/>
      <stop offset="0.28627450980392155" stop-color="#a6a6a6"/>
      <stop offset="0.4" stop-color="#c4c4c4"/>
      <stop offset="0.7019607843137254" stop-color="#a1a1a1"/>
      <stop offset="0.7294117647058823" stop-color="#919191"/>
      <stop offset="0.8901960784313725" stop-color="#a6a6a6"/>
      <stop offset="0.9254901960784314" stop-color="#b2b2b2"/>
      <stop offset="1.0" stop-color="#d9d9d9"/>
    </linearGradient>
  </defs>
</svg>
