<?xml version="1.0" encoding="UTF-8" standalone="no"?>
<svg xmlns:ffdec="https://www.free-decompiler.com/flash" xmlns:xlink="http://www.w3.org/1999/xlink" ffdec:objectType="shape" height="12.8px" width="17.1px" xmlns="http://www.w3.org/2000/svg">
  <g transform="matrix(1.0, 0.0, 0.0, 1.0, 0.0, 0.0)">
    <path d="M11.15 5.2 Q11.55 4.65 11.55 3.55 L11.4 2.5 10.95 1.7 9.95 1.45 9.7 1.45 9.7 5.7 Q10.75 5.75 11.15 5.2 M11.15 0.05 L12.25 0.45 13.05 1.5 13.35 3.4 Q13.35 5.35 12.5 6.3 11.65 7.2 9.7 7.1 L9.7 12.8 8.0 12.8 8.0 0.0 10.05 0.0 11.15 0.05 M14.1 9.05 L14.1 7.75 17.1 7.75 17.1 9.05 14.1 9.05 M4.65 9.7 L4.25 0.0 5.95 0.0 5.95 12.8 4.35 12.8 1.35 2.9 1.7 12.8 0.0 12.8 0.0 0.0 1.6 0.0 4.6 9.7 4.65 9.7" fill="#cccccc" fill-rule="evenodd" stroke="none"/>
  </g>
</svg>
