<?xml version="1.0" encoding="UTF-8" standalone="no"?>
<svg xmlns:ffdec="https://www.free-decompiler.com/flash" xmlns:xlink="http://www.w3.org/1999/xlink" ffdec:objectType="shape" height="11.35px" width="11.35px" xmlns="http://www.w3.org/2000/svg">
  <g transform="matrix(1.0, 0.0, 0.0, 1.0, 0.0, 0.0)">
    <path d="M4.2 4.75 L4.2 6.25 4.2 8.85 4.2 10.35 5.7 10.35 11.35 10.35 11.35 8.85 11.35 4.75 5.7 4.75 4.2 4.75 4.2 4.75 M5.7 6.25 L9.85 6.25 9.85 8.85 5.7 8.85 5.7 6.25 5.7 6.25" fill="#cccccc" fill-rule="evenodd" stroke="none"/>
    <path d="M0.0 1.3 L0.0 2.8 0.0 6.9 1.5 6.9 2.3 6.9 2.3 5.4 1.5 5.4 1.5 2.8 5.65 2.8 5.65 3.25 7.15 3.25 7.15 2.8 7.15 1.3 5.65 1.3 0.0 1.3 0.0 1.3" fill="#cccccc" fill-rule="evenodd" stroke="none"/>
  </g>
</svg>
