<?xml version="1.0" encoding="UTF-8" standalone="no"?>
<svg xmlns:ffdec="https://www.free-decompiler.com/flash" xmlns:xlink="http://www.w3.org/1999/xlink" ffdec:objectType="shape" height="12.95px" width="5.75px" xmlns="http://www.w3.org/2000/svg">
  <g transform="matrix(1.0, 0.0, 0.0, 1.0, 0.0, 0.0)">
    <path d="M3.9 2.35 L3.55 1.75 Q3.3 1.5 2.85 1.5 2.45 1.5 2.2 1.8 2.0 2.1 1.95 2.55 L1.85 3.35 1.9 3.95 1.9 4.3 0.15 4.3 0.15 3.85 Q0.15 2.8 0.3 1.95 0.5 1.05 1.05 0.5 1.65 0.0 2.9 0.0 4.45 0.0 5.1 0.8 5.75 1.65 5.75 3.15 5.75 4.1 5.35 5.25 L4.5 7.45 3.55 9.4 2.45 11.45 5.65 11.45 5.65 12.95 0.0 12.95 3.1 6.35 3.7 4.75 4.0 3.05 3.9 2.35" fill="#cccccc" fill-rule="evenodd" stroke="none"/>
  </g>
</svg>
