<?xml version="1.0" encoding="UTF-8" standalone="no"?>
<svg xmlns:ffdec="https://www.free-decompiler.com/flash" xmlns:xlink="http://www.w3.org/1999/xlink" ffdec:objectType="frame" height="26.05px" width="52.95px" xmlns="http://www.w3.org/2000/svg">
  <g transform="matrix(1.0, 0.0, 0.0, 1.0, 0.0, 0.0)">
    <use ffdec:characterId="1" height="26.0" transform="matrix(1.0, 0.0, 0.0, 1.0, 0.0, 0.0)" width="35.75" xlink:href="#shape0"/>
    <use ffdec:characterId="2" height="12.95" transform="matrix(1.0, 0.0, 0.0, 1.0, 11.75, 7.15)" width="13.85" xlink:href="#shape1"/>
    <use ffdec:characterId="2" height="12.95" transform="matrix(1.0, 0.0, 0.0, 1.0, 10.95, 6.55)" width="13.85" xlink:href="#shape1"/>
  </g>
  <defs>
    <g id="shape0" transform="matrix(1.0, 0.0, 0.0, 1.0, 0.0, 0.0)">
      <path d="M3.2 1.8 L32.55 1.8 Q32.7 1.8 32.85 1.85 32.95 1.85 33.1 1.9 33.25 1.95 33.35 2.05 33.45 2.1 33.55 2.2 33.65 2.3 33.7 2.4 33.8 2.5 33.85 2.65 33.9 2.75 33.95 2.9 33.95 3.05 33.95 3.2 L33.95 22.85 Q33.95 23.0 33.9 23.1 33.9 23.25 33.85 23.4 33.8 23.5 33.7 23.6 33.65 23.7 33.55 23.8 33.45 23.9 33.35 24.0 33.25 24.05 33.1 24.1 33.0 24.15 32.85 24.2 32.7 24.2 32.55 24.2 L3.2 24.2 Q3.05 24.2 2.9 24.2 2.8 24.15 2.65 24.1 2.55 24.05 2.4 23.95 2.3 23.9 2.2 23.8 2.1 23.7 2.05 23.6 1.95 23.5 1.9 23.35 1.85 23.25 1.85 23.1 1.8 22.95 1.8 22.85 L1.8 3.2 Q1.8 3.05 1.85 2.9 1.85 2.8 1.9 2.65 1.95 2.5 2.05 2.4 2.1 2.3 2.2 2.2 2.3 2.1 2.4 2.05 2.5 1.95 2.65 1.9 2.75 1.85 2.9 1.85 3.05 1.8 3.2 1.8 L3.2 1.8" fill="#000000" fill-rule="evenodd" stroke="none"/>
      <path d="M3.2 1.3 Q3.0 1.3 2.8 1.35 2.65 1.35 2.45 1.45 2.3 1.5 2.15 1.6 2.0 1.7 1.85 1.85 1.75 2.0 1.6 2.15 1.5 2.3 1.45 2.45 1.4 2.6 1.35 2.8 1.3 3.0 1.3 3.2 L1.3 22.85 Q1.3 23.05 1.35 23.2 1.4 23.4 1.45 23.55 1.5 23.75 1.6 23.9 1.75 24.05 1.85 24.15 2.0 24.3 2.15 24.4 2.3 24.5 2.45 24.55 2.6 24.65 2.8 24.65 3.0 24.7 3.2 24.7 L32.55 24.7 Q32.75 24.7 32.95 24.65 33.1 24.65 33.3 24.55 33.45 24.5 33.6 24.4 33.75 24.3 33.9 24.15 34.05 24.05 34.15 23.9 34.25 23.75 34.3 23.55 34.4 23.4 34.4 23.2 34.45 23.0 34.45 22.85 L34.45 3.2 Q34.45 3.0 34.4 2.8 34.4 2.65 34.3 2.45 34.25 2.3 34.15 2.15 34.05 2.0 33.9 1.85 33.75 1.7 33.6 1.6 33.45 1.5 33.3 1.45 33.15 1.35 32.95 1.35 32.75 1.3 32.55 1.3 L3.2 1.3 M3.2 2.3 L32.55 2.3 Q32.65 2.3 32.75 2.3 32.85 2.35 32.9 2.35 33.0 2.4 33.05 2.45 33.15 2.5 33.2 2.55 33.25 2.6 33.3 2.7 33.35 2.75 33.4 2.85 33.4 2.9 33.45 3.0 33.45 3.1 33.45 3.2 L33.45 22.85 Q33.45 22.95 33.45 23.0 33.4 23.1 33.4 23.2 33.35 23.25 33.3 23.35 33.25 23.4 33.2 23.45 33.15 23.5 33.05 23.55 33.0 23.6 32.9 23.65 32.85 23.7 32.75 23.7 32.65 23.7 32.55 23.7 L3.2 23.7 Q3.1 23.7 3.0 23.7 2.9 23.65 2.85 23.65 2.75 23.6 2.7 23.55 2.6 23.5 2.55 23.45 2.5 23.4 2.45 23.35 2.4 23.25 2.35 23.2 2.35 23.1 2.3 23.0 2.3 22.9 2.3 22.85 L2.3 3.2 Q2.3 3.1 2.3 3.0 2.35 2.9 2.35 2.85 2.4 2.75 2.45 2.7 2.5 2.6 2.55 2.55 2.6 2.5 2.7 2.45 2.75 2.4 2.85 2.35 2.9 2.35 3.0 2.3 3.1 2.3 3.2 2.3 L3.2 2.3" fill="#ffffff" fill-rule="evenodd" stroke="none"/>
    </g>
    <g id="shape1" transform="matrix(1.0, 0.0, 0.0, 1.0, 0.0, 0.0)">
      <path d="M0.0 0.0 L4.55 0.0 4.55 1.45 1.7 1.45 1.7 5.5 4.25 5.5 4.25 6.95 1.7 6.95 1.7 11.3 4.55 11.3 4.55 12.8 0.0 12.8 0.0 0.0 M8.85 4.45 L8.85 5.95 8.25 5.65 7.65 5.5 Q7.2 5.5 6.9 5.75 6.55 6.0 6.55 6.45 6.6 6.95 7.0 7.3 L7.9 8.05 8.8 8.95 Q9.2 9.5 9.25 10.4 9.2 11.55 8.6 12.25 7.95 12.9 6.8 12.95 L6.05 12.85 5.4 12.55 5.4 10.95 6.0 11.35 6.7 11.5 Q7.2 11.5 7.5 11.2 L7.75 10.45 7.5 9.65 6.85 9.05 6.05 8.45 5.35 7.6 5.1 6.45 Q5.1 5.4 5.75 4.75 6.35 4.1 7.4 4.1 L8.15 4.15 8.85 4.45 M13.25 4.15 L13.85 4.35 13.85 6.0 13.55 5.7 13.1 5.55 Q12.55 5.6 12.3 5.9 12.0 6.2 11.85 6.65 L11.7 7.6 11.7 8.45 11.7 9.25 11.85 10.25 12.25 11.1 Q12.55 11.45 13.05 11.45 L13.5 11.35 13.85 11.1 13.85 12.6 13.25 12.85 12.55 12.95 Q11.75 12.9 11.25 12.5 L10.45 11.4 10.1 10.0 10.05 8.6 10.1 7.15 Q10.2 6.35 10.45 5.65 10.7 4.95 11.2 4.55 11.7 4.1 12.6 4.1 L13.25 4.15" fill="#000000" fill-rule="evenodd" stroke="none"/>
    </g>
  </defs>
</svg>
