<?xml version="1.0" encoding="UTF-8" standalone="no"?>
<svg xmlns:ffdec="https://www.free-decompiler.com/flash" xmlns:xlink="http://www.w3.org/1999/xlink" ffdec:objectType="frame" height="26.05px" width="52.95px" xmlns="http://www.w3.org/2000/svg">
  <g transform="matrix(1.0, 0.0, 0.0, 1.0, 0.0, 0.0)">
    <use ffdec:characterId="1" height="26.0" transform="matrix(1.0, 0.0, 0.0, 1.0, 0.0, 0.0)" width="35.75" xlink:href="#shape0"/>
    <use ffdec:characterId="110" height="13.15" transform="matrix(1.0, 0.0, 0.0, 1.0, 6.4, 7.0)" width="24.15" xlink:href="#shape1"/>
    <use ffdec:characterId="110" height="13.15" transform="matrix(1.0, 0.0, 0.0, 1.0, 5.8, 6.4)" width="24.15" xlink:href="#shape1"/>
  </g>
  <defs>
    <g id="shape0" transform="matrix(1.0, 0.0, 0.0, 1.0, 0.0, 0.0)">
      <path d="M3.2 1.8 L32.55 1.8 Q32.7 1.8 32.85 1.85 32.95 1.85 33.1 1.9 33.25 1.95 33.35 2.05 33.45 2.1 33.55 2.2 33.65 2.3 33.7 2.4 33.8 2.5 33.85 2.65 33.9 2.75 33.95 2.9 33.95 3.05 33.95 3.2 L33.95 22.85 Q33.95 23.0 33.9 23.1 33.9 23.25 33.85 23.4 33.8 23.5 33.7 23.6 33.65 23.7 33.55 23.8 33.45 23.9 33.35 24.0 33.25 24.05 33.1 24.1 33.0 24.15 32.85 24.2 32.7 24.2 32.55 24.2 L3.2 24.2 Q3.05 24.2 2.9 24.2 2.8 24.15 2.65 24.1 2.55 24.05 2.4 23.95 2.3 23.9 2.2 23.8 2.1 23.7 2.05 23.6 1.95 23.5 1.9 23.35 1.85 23.25 1.85 23.1 1.8 22.95 1.8 22.85 L1.8 3.2 Q1.8 3.05 1.85 2.9 1.85 2.8 1.9 2.65 1.95 2.5 2.05 2.4 2.1 2.3 2.2 2.2 2.3 2.1 2.4 2.05 2.5 1.95 2.65 1.9 2.75 1.85 2.9 1.85 3.05 1.8 3.2 1.8 L3.2 1.8" fill="#000000" fill-rule="evenodd" stroke="none"/>
      <path d="M3.2 1.3 Q3.0 1.3 2.8 1.35 2.65 1.35 2.45 1.45 2.3 1.5 2.15 1.6 2.0 1.7 1.85 1.85 1.75 2.0 1.6 2.15 1.5 2.3 1.45 2.45 1.4 2.6 1.35 2.8 1.3 3.0 1.3 3.2 L1.3 22.85 Q1.3 23.05 1.35 23.2 1.4 23.4 1.45 23.55 1.5 23.75 1.6 23.9 1.75 24.05 1.85 24.15 2.0 24.3 2.15 24.4 2.3 24.5 2.45 24.55 2.6 24.65 2.8 24.65 3.0 24.7 3.2 24.7 L32.55 24.7 Q32.75 24.7 32.95 24.65 33.1 24.65 33.3 24.55 33.45 24.5 33.6 24.4 33.75 24.3 33.9 24.15 34.05 24.05 34.15 23.9 34.25 23.75 34.3 23.55 34.4 23.4 34.4 23.2 34.45 23.0 34.45 22.85 L34.45 3.2 Q34.45 3.0 34.4 2.8 34.4 2.65 34.3 2.45 34.25 2.3 34.15 2.15 34.05 2.0 33.9 1.85 33.75 1.7 33.6 1.6 33.45 1.5 33.3 1.45 33.15 1.35 32.95 1.35 32.75 1.3 32.55 1.3 L3.2 1.3 M3.2 2.3 L32.55 2.3 Q32.65 2.3 32.75 2.3 32.85 2.35 32.9 2.35 33.0 2.4 33.05 2.45 33.15 2.5 33.2 2.55 33.25 2.6 33.3 2.7 33.35 2.75 33.4 2.85 33.4 2.9 33.45 3.0 33.45 3.1 33.45 3.2 L33.45 22.85 Q33.45 22.95 33.45 23.0 33.4 23.1 33.4 23.2 33.35 23.25 33.3 23.35 33.25 23.4 33.2 23.45 33.15 23.5 33.05 23.55 33.0 23.6 32.9 23.65 32.85 23.7 32.75 23.7 32.65 23.7 32.55 23.7 L3.2 23.7 Q3.1 23.7 3.0 23.7 2.9 23.65 2.85 23.65 2.75 23.6 2.7 23.55 2.6 23.5 2.55 23.45 2.5 23.4 2.45 23.35 2.4 23.25 2.35 23.2 2.35 23.1 2.3 23.0 2.3 22.9 2.3 22.85 L2.3 3.2 Q2.3 3.1 2.3 3.0 2.35 2.9 2.35 2.85 2.4 2.75 2.45 2.7 2.5 2.6 2.55 2.55 2.6 2.5 2.7 2.45 2.75 2.4 2.85 2.35 2.9 2.35 3.0 2.3 3.1 2.3 3.2 2.3 L3.2 2.3" fill="#ffffff" fill-rule="evenodd" stroke="none"/>
    </g>
    <g id="shape1" transform="matrix(1.0, 0.0, 0.0, 1.0, 0.0, 0.0)">
      <path d="M3.4 2.7 L2.95 1.9 1.95 1.65 1.7 1.65 1.7 5.9 Q2.75 5.95 3.15 5.4 3.55 4.85 3.55 3.75 L3.4 2.7 M4.25 0.65 L5.05 1.7 5.35 3.6 Q5.35 5.55 4.5 6.5 3.65 7.4 1.7 7.3 L1.7 13.0 0.0 13.0 0.0 0.2 2.05 0.2 3.15 0.25 4.25 0.65 M9.75 5.85 L9.5 5.85 Q8.6 5.85 8.25 6.3 7.9 6.75 7.9 7.6 L7.9 13.0 6.3 13.0 6.3 4.4 7.9 4.4 7.9 5.45 7.95 5.45 8.65 4.6 Q9.1 4.3 9.75 4.3 L9.75 5.85 M10.3 5.7 L10.3 4.4 11.15 4.4 11.15 2.0 12.75 2.0 12.75 4.4 13.6 4.4 13.6 5.7 12.75 5.7 12.75 13.0 11.15 13.0 11.15 5.7 10.3 5.7 M18.0 0.1 L18.85 0.45 18.85 2.15 18.15 1.75 17.4 1.6 Q16.7 1.65 16.3 2.1 15.9 2.55 15.9 3.25 L16.0 4.0 16.35 4.65 17.65 6.05 18.6 7.15 19.25 8.35 19.45 9.8 Q19.45 10.75 19.1 11.5 L18.05 12.7 16.45 13.15 15.45 13.0 Q15.0 12.9 14.6 12.55 L14.6 10.85 15.35 11.3 16.25 11.5 17.1 11.25 17.6 10.6 17.75 9.7 Q17.75 8.95 17.4 8.4 L16.5 7.35 15.45 6.3 14.55 5.0 Q14.2 4.3 14.15 3.3 14.15 2.4 14.5 1.65 14.8 0.9 15.45 0.45 16.1 0.0 17.05 0.0 L18.0 0.1 M21.5 4.75 Q22.0 4.3 22.9 4.3 L23.55 4.35 24.15 4.55 24.15 6.2 23.85 5.9 23.4 5.75 Q22.85 5.8 22.6 6.1 22.3 6.4 22.15 6.85 L22.0 7.8 22.0 8.65 22.0 9.45 22.15 10.45 22.55 11.3 Q22.85 11.65 23.35 11.65 L23.8 11.55 24.15 11.3 24.15 12.8 23.55 13.05 22.85 13.15 Q22.05 13.1 21.55 12.7 21.0 12.25 20.75 11.6 20.5 10.95 20.4 10.2 L20.35 8.8 20.4 7.35 Q20.5 6.55 20.75 5.85 21.0 5.15 21.5 4.75" fill="#000000" fill-rule="evenodd" stroke="none"/>
    </g>
  </defs>
</svg>
