<?xml version="1.0" encoding="UTF-8" standalone="no"?>
<svg xmlns:ffdec="https://www.free-decompiler.com/flash" xmlns:xlink="http://www.w3.org/1999/xlink" ffdec:objectType="frame" height="26.05px" width="52.95px" xmlns="http://www.w3.org/2000/svg">
  <g transform="matrix(1.0, 0.0, 0.0, 1.0, 0.0, 0.0)">
    <use ffdec:characterId="27" height="26.0" transform="matrix(1.0, 0.0, 0.0, 1.0, 0.0, 0.0)" width="41.75" xlink:href="#shape0"/>
    <use ffdec:characterId="112" height="12.95" transform="matrix(1.0, 0.0, 0.0, 1.0, 7.75, 7.15)" width="27.85" xlink:href="#shape1"/>
    <use ffdec:characterId="112" height="12.95" transform="matrix(1.0, 0.0, 0.0, 1.0, 6.95, 6.55)" width="27.85" xlink:href="#shape1"/>
  </g>
  <defs>
    <g id="shape0" transform="matrix(1.0, 0.0, 0.0, 1.0, 0.0, 0.0)">
      <path d="M3.2 1.8 L38.55 1.8 Q38.7 1.8 38.85 1.85 38.95 1.85 39.1 1.9 39.25 1.95 39.35 2.05 39.45 2.1 39.55 2.2 39.65 2.3 39.7 2.4 39.8 2.5 39.85 2.65 39.9 2.75 39.9 2.9 39.95 3.05 39.95 3.2 L39.95 22.8 Q39.95 22.95 39.9 23.1 39.9 23.2 39.85 23.35 39.8 23.45 39.7 23.6 39.65 23.7 39.55 23.8 39.45 23.9 39.35 23.95 39.25 24.05 39.1 24.1 39.0 24.15 38.85 24.15 38.7 24.2 38.55 24.2 L3.2 24.2 Q3.05 24.2 2.9 24.15 2.8 24.15 2.65 24.1 2.55 24.05 2.4 23.95 2.3 23.9 2.2 23.8 2.1 23.7 2.05 23.6 1.95 23.45 1.9 23.35 1.85 23.2 1.85 23.1 1.8 22.95 1.8 22.8 L1.8 3.2 Q1.8 3.05 1.85 2.9 1.85 2.8 1.9 2.65 1.95 2.5 2.05 2.4 2.1 2.3 2.2 2.2 2.3 2.1 2.4 2.05 2.5 1.95 2.65 1.9 2.75 1.85 2.9 1.8 3.05 1.8 3.2 1.8 L3.2 1.8" fill="#000000" fill-rule="evenodd" stroke="none"/>
      <path d="M3.2 1.3 Q3.0 1.3 2.8 1.35 2.65 1.35 2.45 1.45 2.3 1.5 2.15 1.6 2.0 1.7 1.85 1.85 1.75 2.0 1.6 2.15 1.5 2.3 1.45 2.45 1.4 2.6 1.35 2.8 1.3 3.0 1.3 3.2 L1.3 22.8 Q1.3 23.0 1.35 23.2 1.4 23.35 1.45 23.55 1.5 23.7 1.6 23.85 1.75 24.0 1.85 24.15 2.0 24.25 2.15 24.35 2.3 24.45 2.45 24.55 2.6 24.6 2.8 24.65 3.0 24.7 3.2 24.7 L38.55 24.7 Q38.75 24.7 38.95 24.65 39.1 24.6 39.3 24.55 39.45 24.5 39.6 24.35 39.75 24.25 39.9 24.15 40.05 24.0 40.15 23.85 40.25 23.7 40.3 23.55 40.4 23.35 40.4 23.2 40.45 23.0 40.45 22.8 L40.45 3.2 Q40.45 3.0 40.4 2.8 40.4 2.65 40.3 2.45 40.25 2.3 40.15 2.15 40.05 2.0 39.9 1.85 39.75 1.7 39.6 1.6 39.45 1.5 39.3 1.45 39.15 1.35 38.95 1.35 38.75 1.3 38.55 1.3 L3.2 1.3 M3.2 2.3 L38.55 2.3 Q38.65 2.3 38.75 2.3 38.85 2.35 38.9 2.35 39.0 2.4 39.05 2.45 39.15 2.5 39.2 2.55 39.25 2.6 39.3 2.7 39.35 2.75 39.4 2.85 39.4 2.9 39.45 3.0 39.45 3.1 39.45 3.2 L39.45 22.8 Q39.45 22.9 39.45 23.0 39.4 23.05 39.4 23.15 39.35 23.25 39.3 23.3 39.25 23.4 39.2 23.45 39.15 23.5 39.05 23.55 39.0 23.6 38.9 23.65 38.85 23.65 38.75 23.7 38.65 23.7 38.55 23.7 L3.2 23.7 Q3.1 23.7 3.0 23.7 2.9 23.65 2.85 23.65 2.75 23.6 2.7 23.55 2.6 23.5 2.55 23.45 2.5 23.4 2.45 23.3 2.4 23.25 2.35 23.15 2.35 23.1 2.3 23.0 2.3 22.9 2.3 22.8 L2.3 3.2 Q2.3 3.1 2.3 3.0 2.35 2.9 2.35 2.85 2.4 2.75 2.45 2.7 2.5 2.6 2.55 2.55 2.6 2.5 2.7 2.45 2.75 2.4 2.85 2.35 2.9 2.35 3.0 2.3 3.1 2.3 3.2 2.3 L3.2 2.3" fill="#ffffff" fill-rule="evenodd" stroke="none"/>
    </g>
    <g id="shape1" transform="matrix(1.0, 0.0, 0.0, 1.0, 0.0, 0.0)">
      <path d="M1.7 5.0 L4.25 5.0 4.25 0.0 5.95 0.0 5.95 12.8 4.25 12.8 4.25 6.45 1.7 6.45 1.7 12.8 0.0 12.8 0.0 0.0 1.7 0.0 1.7 5.0 M10.85 8.55 L10.85 7.8 10.8 6.8 10.5 5.9 Q10.25 5.55 9.8 5.55 9.35 5.55 9.1 5.9 L8.8 6.8 8.7 7.8 8.75 8.55 8.7 9.25 8.8 10.25 9.1 11.1 Q9.35 11.45 9.8 11.5 10.25 11.45 10.5 11.1 L10.8 10.25 10.85 9.25 10.85 8.55 M11.25 4.5 L12.05 5.6 12.4 7.05 12.5 8.55 12.4 10.0 12.05 11.4 11.25 12.5 Q10.7 12.9 9.8 12.95 8.9 12.9 8.35 12.5 L7.5 11.4 7.15 10.0 7.1 8.55 7.15 7.05 7.5 5.6 8.35 4.5 Q8.9 4.1 9.8 4.1 10.7 4.1 11.25 4.5 M25.25 5.5 Q24.9 5.5 24.7 5.75 L24.4 6.35 24.35 7.05 24.35 7.7 26.25 7.7 26.2 7.05 26.1 6.35 25.8 5.75 Q25.6 5.5 25.25 5.5 M21.7 5.1 L21.85 6.15 21.85 12.8 20.25 12.8 20.25 6.8 20.1 5.9 Q19.95 5.5 19.4 5.5 18.85 5.5 18.6 5.8 L18.4 6.5 18.35 7.35 18.35 12.8 16.75 12.8 16.75 6.95 16.75 6.3 16.5 5.75 Q16.3 5.5 15.85 5.5 15.35 5.5 15.15 5.8 14.95 6.1 14.9 6.55 L14.9 7.35 14.9 12.8 13.3 12.8 13.3 4.2 14.9 4.2 14.9 5.25 14.95 5.25 15.6 4.4 Q16.0 4.1 16.6 4.1 17.2 4.1 17.6 4.4 18.05 4.7 18.15 5.25 L18.2 5.25 18.9 4.4 Q19.3 4.1 19.95 4.1 L21.1 4.35 21.7 5.1 M26.65 4.55 Q27.15 4.95 27.45 5.65 L27.8 7.1 27.85 8.55 27.85 8.8 24.35 8.8 24.35 9.55 24.45 10.45 24.75 11.2 Q24.95 11.5 25.35 11.5 L25.95 11.25 26.25 10.65 26.35 9.9 27.8 9.9 27.55 11.4 26.75 12.5 Q26.2 12.9 25.3 12.95 24.4 12.9 23.9 12.5 23.35 12.1 23.1 11.45 L22.75 10.0 22.7 8.55 22.75 7.15 Q22.85 6.35 23.1 5.65 23.35 4.95 23.85 4.55 24.4 4.1 25.25 4.1 26.15 4.1 26.65 4.55" fill="#000000" fill-rule="evenodd" stroke="none"/>
    </g>
  </defs>
</svg>
