<?xml version="1.0" encoding="UTF-8" standalone="no"?>
<svg xmlns:ffdec="https://www.free-decompiler.com/flash" xmlns:xlink="http://www.w3.org/1999/xlink" ffdec:objectType="frame" height="26.05px" width="52.95px" xmlns="http://www.w3.org/2000/svg">
  <g transform="matrix(1.0, 0.0, 0.0, 1.0, 0.0, 0.0)">
    <use ffdec:characterId="1" height="26.0" transform="matrix(1.0, 0.0, 0.0, 1.0, 0.0, 0.0)" width="35.75" xlink:href="#shape0"/>
    <use ffdec:characterId="116" height="16.45" transform="matrix(1.0, 0.0, 0.0, 1.0, 5.7, 6.55)" width="25.8" xlink:href="#shape1"/>
    <use ffdec:characterId="116" height="16.45" transform="matrix(1.0, 0.0, 0.0, 1.0, 4.9, 5.95)" width="25.8" xlink:href="#shape1"/>
  </g>
  <defs>
    <g id="shape0" transform="matrix(1.0, 0.0, 0.0, 1.0, 0.0, 0.0)">
      <path d="M3.2 1.8 L32.55 1.8 Q32.7 1.8 32.85 1.85 32.95 1.85 33.1 1.9 33.25 1.95 33.35 2.05 33.45 2.1 33.55 2.2 33.65 2.3 33.7 2.4 33.8 2.5 33.85 2.65 33.9 2.75 33.95 2.9 33.95 3.05 33.95 3.2 L33.95 22.85 Q33.95 23.0 33.9 23.1 33.9 23.25 33.85 23.4 33.8 23.5 33.7 23.6 33.65 23.7 33.55 23.8 33.45 23.9 33.35 24.0 33.25 24.05 33.1 24.1 33.0 24.15 32.85 24.2 32.7 24.2 32.55 24.2 L3.2 24.2 Q3.05 24.2 2.9 24.2 2.8 24.15 2.65 24.1 2.55 24.05 2.4 23.95 2.3 23.9 2.2 23.8 2.1 23.7 2.05 23.6 1.95 23.5 1.9 23.35 1.85 23.25 1.85 23.1 1.8 22.95 1.8 22.85 L1.8 3.2 Q1.8 3.05 1.85 2.9 1.85 2.8 1.9 2.65 1.95 2.5 2.05 2.4 2.1 2.3 2.2 2.2 2.3 2.1 2.4 2.05 2.5 1.95 2.65 1.9 2.75 1.85 2.9 1.85 3.05 1.8 3.2 1.8 L3.2 1.8" fill="#000000" fill-rule="evenodd" stroke="none"/>
      <path d="M3.2 1.3 Q3.0 1.3 2.8 1.35 2.65 1.35 2.45 1.45 2.3 1.5 2.15 1.6 2.0 1.7 1.85 1.85 1.75 2.0 1.6 2.15 1.5 2.3 1.45 2.45 1.4 2.6 1.35 2.8 1.3 3.0 1.3 3.2 L1.3 22.85 Q1.3 23.05 1.35 23.2 1.4 23.4 1.45 23.55 1.5 23.75 1.6 23.9 1.75 24.05 1.85 24.15 2.0 24.3 2.15 24.4 2.3 24.5 2.45 24.55 2.6 24.65 2.8 24.65 3.0 24.7 3.2 24.7 L32.55 24.7 Q32.75 24.7 32.95 24.65 33.1 24.65 33.3 24.55 33.45 24.5 33.6 24.4 33.75 24.3 33.9 24.15 34.05 24.05 34.15 23.9 34.25 23.75 34.3 23.55 34.4 23.4 34.4 23.2 34.45 23.0 34.45 22.85 L34.45 3.2 Q34.45 3.0 34.4 2.8 34.4 2.65 34.3 2.45 34.25 2.3 34.15 2.15 34.05 2.0 33.9 1.85 33.75 1.7 33.6 1.6 33.45 1.5 33.3 1.45 33.15 1.35 32.95 1.35 32.75 1.3 32.55 1.3 L3.2 1.3 M3.2 2.3 L32.55 2.3 Q32.65 2.3 32.75 2.3 32.85 2.35 32.9 2.35 33.0 2.4 33.05 2.45 33.15 2.5 33.2 2.55 33.25 2.6 33.3 2.7 33.35 2.75 33.4 2.85 33.4 2.9 33.45 3.0 33.45 3.1 33.45 3.2 L33.45 22.85 Q33.45 22.95 33.45 23.0 33.4 23.1 33.4 23.2 33.35 23.25 33.3 23.35 33.25 23.4 33.2 23.45 33.15 23.5 33.05 23.55 33.0 23.6 32.9 23.65 32.85 23.7 32.75 23.7 32.65 23.7 32.55 23.7 L3.2 23.7 Q3.1 23.7 3.0 23.7 2.9 23.65 2.85 23.65 2.75 23.6 2.7 23.55 2.6 23.5 2.55 23.45 2.5 23.4 2.45 23.35 2.4 23.25 2.35 23.2 2.35 23.1 2.3 23.0 2.3 22.9 2.3 22.85 L2.3 3.2 Q2.3 3.1 2.3 3.0 2.35 2.9 2.35 2.85 2.4 2.75 2.45 2.7 2.5 2.6 2.55 2.55 2.6 2.5 2.7 2.45 2.75 2.4 2.85 2.35 2.9 2.35 3.0 2.3 3.1 2.3 3.2 2.3 L3.2 2.3" fill="#ffffff" fill-rule="evenodd" stroke="none"/>
    </g>
    <g id="shape1" transform="matrix(1.0, 0.0, 0.0, 1.0, 0.0, 0.0)">
      <path d="M4.25 0.45 L5.05 1.5 5.35 3.4 Q5.35 5.35 4.5 6.3 3.65 7.2 1.7 7.1 L1.7 12.8 0.0 12.8 0.0 0.0 2.05 0.0 3.15 0.05 4.25 0.45 M3.4 2.5 L2.95 1.7 1.95 1.45 1.7 1.45 1.7 5.7 Q2.75 5.75 3.15 5.2 3.55 4.65 3.55 3.55 L3.4 2.5 M9.3 5.9 Q9.05 5.5 8.7 5.5 L8.05 5.9 7.75 6.75 7.7 7.75 7.7 8.45 7.7 9.2 7.75 10.25 8.05 11.15 Q8.3 11.5 8.75 11.5 9.15 11.5 9.4 11.15 L9.65 10.3 9.75 9.3 9.7 8.55 9.7 7.8 9.6 6.75 9.3 5.9 M9.7 5.2 L9.7 4.2 11.3 4.2 11.3 12.85 11.0 15.15 10.15 16.2 8.7 16.45 Q7.55 16.45 6.85 15.8 6.2 15.2 6.15 14.0 L6.15 13.75 7.7 13.75 7.8 14.35 8.1 14.85 8.75 15.05 Q9.25 15.0 9.45 14.75 L9.7 14.05 9.7 13.2 9.7 11.8 9.65 11.8 9.1 12.65 8.15 12.95 Q7.4 12.9 6.95 12.45 L6.3 11.3 6.1 9.85 6.05 8.55 6.05 7.3 6.3 5.8 Q6.45 5.05 6.9 4.6 7.35 4.1 8.1 4.1 L9.1 4.4 9.65 5.25 9.7 5.2 M17.45 4.95 L17.2 3.2 Q17.0 2.4 16.4 1.9 15.85 1.4 14.8 1.45 L14.8 11.35 Q15.85 11.35 16.4 10.95 L17.2 9.85 17.45 8.3 17.45 6.6 17.45 4.95 M16.2 0.05 Q16.8 0.1 17.35 0.45 L18.35 1.5 19.0 3.45 19.25 6.6 19.05 9.55 18.4 11.35 17.35 12.35 15.95 12.75 14.25 12.8 13.1 12.8 13.1 0.0 15.0 0.0 16.2 0.05 M22.35 5.2 L22.65 4.7 23.0 4.4 23.5 4.15 24.05 4.1 Q24.9 4.1 25.3 4.5 L25.75 5.6 25.8 6.9 25.8 12.8 24.2 12.8 24.2 6.85 24.15 6.25 23.9 5.75 Q23.7 5.5 23.25 5.5 22.75 5.55 22.55 5.85 22.35 6.2 22.3 6.6 L22.3 7.45 22.3 12.8 20.7 12.8 20.7 4.2 22.3 4.2 22.3 5.2 22.35 5.2" fill="#000000" fill-rule="evenodd" stroke="none"/>
    </g>
  </defs>
</svg>
