<?xml version="1.0" encoding="UTF-8" standalone="no"?>
<svg xmlns:ffdec="https://www.free-decompiler.com/flash" xmlns:xlink="http://www.w3.org/1999/xlink" ffdec:objectType="frame" height="26.05px" width="52.95px" xmlns="http://www.w3.org/2000/svg">
  <g transform="matrix(1.0, 0.0, 0.0, 1.0, 0.0, 0.0)">
    <use ffdec:characterId="1" height="26.0" transform="matrix(1.0, 0.0, 0.0, 1.0, 0.0, 0.0)" width="35.75" xlink:href="#shape0"/>
    <use ffdec:characterId="131" height="13.15" transform="matrix(1.0, 0.0, 0.0, 1.0, 6.7, 7.0)" width="23.95" xlink:href="#shape1"/>
    <use ffdec:characterId="131" height="13.15" transform="matrix(1.0, 0.0, 0.0, 1.1902, 5.9, 6.4)" width="23.95" xlink:href="#shape1"/>
  </g>
  <defs>
    <g id="shape0" transform="matrix(1.0, 0.0, 0.0, 1.0, 0.0, 0.0)">
      <path d="M3.2 1.8 L32.55 1.8 Q32.7 1.8 32.85 1.85 32.95 1.85 33.1 1.9 33.25 1.95 33.35 2.05 33.45 2.1 33.55 2.2 33.65 2.3 33.7 2.4 33.8 2.5 33.85 2.65 33.9 2.75 33.95 2.9 33.95 3.05 33.95 3.2 L33.95 22.85 Q33.95 23.0 33.9 23.1 33.9 23.25 33.85 23.4 33.8 23.5 33.7 23.6 33.65 23.7 33.55 23.8 33.45 23.9 33.35 24.0 33.25 24.05 33.1 24.1 33.0 24.15 32.85 24.2 32.7 24.2 32.55 24.2 L3.2 24.2 Q3.05 24.2 2.9 24.2 2.8 24.15 2.65 24.1 2.55 24.05 2.4 23.95 2.3 23.9 2.2 23.8 2.1 23.7 2.05 23.6 1.95 23.5 1.9 23.35 1.85 23.25 1.85 23.1 1.8 22.95 1.8 22.85 L1.8 3.2 Q1.8 3.05 1.85 2.9 1.85 2.8 1.9 2.65 1.95 2.5 2.05 2.4 2.1 2.3 2.2 2.2 2.3 2.1 2.4 2.05 2.5 1.95 2.65 1.9 2.75 1.85 2.9 1.85 3.05 1.8 3.2 1.8 L3.2 1.8" fill="#000000" fill-rule="evenodd" stroke="none"/>
      <path d="M3.2 1.3 Q3.0 1.3 2.8 1.35 2.65 1.35 2.45 1.45 2.3 1.5 2.15 1.6 2.0 1.7 1.85 1.85 1.75 2.0 1.6 2.15 1.5 2.3 1.45 2.45 1.4 2.6 1.35 2.8 1.3 3.0 1.3 3.2 L1.3 22.85 Q1.3 23.05 1.35 23.2 1.4 23.4 1.45 23.55 1.5 23.75 1.6 23.9 1.75 24.05 1.85 24.15 2.0 24.3 2.15 24.4 2.3 24.5 2.45 24.55 2.6 24.65 2.8 24.65 3.0 24.7 3.2 24.7 L32.55 24.7 Q32.75 24.7 32.95 24.65 33.1 24.65 33.3 24.55 33.45 24.5 33.6 24.4 33.75 24.3 33.9 24.15 34.05 24.05 34.15 23.9 34.25 23.75 34.3 23.55 34.4 23.4 34.4 23.2 34.45 23.0 34.45 22.85 L34.45 3.2 Q34.45 3.0 34.4 2.8 34.4 2.65 34.3 2.45 34.25 2.3 34.15 2.15 34.05 2.0 33.9 1.85 33.75 1.7 33.6 1.6 33.45 1.5 33.3 1.45 33.15 1.35 32.95 1.35 32.75 1.3 32.55 1.3 L3.2 1.3 M3.2 2.3 L32.55 2.3 Q32.65 2.3 32.75 2.3 32.85 2.35 32.9 2.35 33.0 2.4 33.05 2.45 33.15 2.5 33.2 2.55 33.25 2.6 33.3 2.7 33.35 2.75 33.4 2.85 33.4 2.9 33.45 3.0 33.45 3.1 33.45 3.2 L33.45 22.85 Q33.45 22.95 33.45 23.0 33.4 23.1 33.4 23.2 33.35 23.25 33.3 23.35 33.25 23.4 33.2 23.45 33.15 23.5 33.05 23.55 33.0 23.6 32.9 23.65 32.85 23.7 32.75 23.7 32.65 23.7 32.55 23.7 L3.2 23.7 Q3.1 23.7 3.0 23.7 2.9 23.65 2.85 23.65 2.75 23.6 2.7 23.55 2.6 23.5 2.55 23.45 2.5 23.4 2.45 23.35 2.4 23.25 2.35 23.2 2.35 23.1 2.3 23.0 2.3 22.9 2.3 22.85 L2.3 3.2 Q2.3 3.1 2.3 3.0 2.35 2.9 2.35 2.85 2.4 2.75 2.45 2.7 2.5 2.6 2.55 2.55 2.6 2.5 2.7 2.45 2.75 2.4 2.85 2.35 2.9 2.35 3.0 2.3 3.1 2.3 3.2 2.3 L3.2 2.3" fill="#ffffff" fill-rule="evenodd" stroke="none"/>
    </g>
    <g id="shape1" transform="matrix(1.0, 0.0, 0.0, 1.0, 0.0, 0.0)">
      <path d="M1.05 5.25 Q1.05 7.45 1.3 8.35 1.55 9.2 2.15 9.2 2.75 9.2 3.0 8.35 3.25 7.5 3.25 5.25 3.25 3.05 3.0 2.2 2.75 1.35 2.15 1.35 1.55 1.35 1.3 2.2 1.05 3.1 1.05 5.25 L1.05 5.25 M0.0 5.3 Q0.0 2.5 0.5 1.25 1.0 0.05 2.15 0.05 3.25 0.05 3.75 1.25 4.25 2.5 4.25 5.3 4.25 8.1 3.75 9.3 3.25 10.5 2.15 10.5 1.0 10.5 0.5 9.3 0.0 8.1 0.0 5.3 L0.0 5.3" fill="#000000" fill-rule="evenodd" stroke="none"/>
      <path d="M6.1 6.95 Q6.1 8.25 6.25 8.8 6.45 9.35 6.8 9.35 7.15 9.35 7.35 8.8 7.5 8.25 7.5 6.95 7.5 5.65 7.35 5.1 7.15 4.6 6.8 4.6 6.45 4.6 6.25 5.1 6.1 5.65 6.1 6.95 L6.1 6.95 M5.2 13.15 L5.2 3.55 6.15 3.55 6.15 4.2 Q6.35 3.8 6.55 3.6 6.8 3.4 7.15 3.4 7.8 3.4 8.1 4.25 8.4 5.15 8.4 6.95 8.4 8.75 8.1 9.65 7.8 10.5 7.15 10.5 6.8 10.5 6.55 10.3 6.35 10.1 6.15 9.7 L6.15 13.15 5.2 13.15" fill="#000000" fill-rule="evenodd" stroke="none"/>
      <path d="M9.4 10.4 L9.4 4.45 8.9 4.45 8.9 3.55 9.4 3.55 9.4 1.65 10.35 1.65 10.35 3.55 11.05 3.55 11.05 4.45 10.35 4.45 10.35 10.4 9.4 10.4" fill="#000000" fill-rule="evenodd" stroke="none"/>
      <path d="M11.55 1.5 Q11.55 1.15 11.7 0.9 11.9 0.65 12.15 0.65 12.35 0.65 12.55 0.9 12.7 1.15 12.7 1.5 12.7 1.8 12.55 2.05 12.35 2.3 12.15 2.3 11.9 2.3 11.7 2.05 11.55 1.85 11.55 1.5 L11.55 1.5 M11.65 10.4 L11.65 3.55 12.6 3.55 12.6 10.4 11.65 10.4" fill="#000000" fill-rule="evenodd" stroke="none"/>
      <path d="M14.4 6.95 Q14.4 8.2 14.6 8.8 14.8 9.35 15.15 9.35 15.55 9.35 15.75 8.75 15.95 8.2 15.95 6.95 15.95 5.7 15.75 5.1 15.55 4.5 15.15 4.5 14.8 4.5 14.6 5.1 14.4 5.7 14.4 6.95 L14.4 6.95 M13.5 6.95 Q13.5 5.2 13.9 4.3 14.35 3.4 15.15 3.4 16.0 3.4 16.4 4.3 16.85 5.2 16.85 6.95 16.85 8.7 16.4 9.6 16.0 10.5 15.15 10.5 14.35 10.5 13.9 9.6 13.5 8.7 13.5 6.95 L13.5 6.95" fill="#000000" fill-rule="evenodd" stroke="none"/>
      <path d="M17.75 10.4 L17.75 3.55 18.65 3.55 18.65 4.2 Q18.85 3.85 19.1 3.65 19.35 3.45 19.7 3.45 20.25 3.45 20.55 3.9 20.8 4.3 20.8 5.15 L20.8 10.4 19.9 10.4 19.9 5.8 Q19.9 5.1 19.75 4.85 19.6 4.6 19.3 4.6 19.0 4.6 18.85 4.85 18.7 5.1 18.7 5.6 L18.7 10.4 17.75 10.4" fill="#000000" fill-rule="evenodd" stroke="none"/>
      <path d="M21.65 8.95 Q21.85 9.15 22.05 9.3 22.2 9.4 22.4 9.4 22.7 9.4 22.9 9.15 23.1 8.95 23.1 8.55 23.1 8.1 22.55 7.45 22.5 7.35 22.45 7.35 22.0 6.7 21.8 6.25 21.65 5.85 21.65 5.35 21.65 4.5 22.05 3.95 22.4 3.4 23.05 3.4 23.25 3.4 23.45 3.45 23.65 3.55 23.85 3.65 L23.85 4.95 Q23.7 4.75 23.5 4.6 23.35 4.5 23.1 4.5 22.85 4.5 22.65 4.75 22.5 4.95 22.5 5.3 22.5 5.75 23.0 6.35 23.1 6.45 23.15 6.55 23.6 7.1 23.75 7.55 23.95 8.05 23.95 8.6 23.95 9.45 23.55 10.0 23.15 10.5 22.5 10.5 22.3 10.5 22.1 10.45 21.85 10.4 21.65 10.25 L21.65 8.95" fill="#000000" fill-rule="evenodd" stroke="none"/>
    </g>
  </defs>
</svg>
