<?xml version="1.0" encoding="UTF-8" standalone="no"?>
<svg xmlns:ffdec="https://www.free-decompiler.com/flash" xmlns:xlink="http://www.w3.org/1999/xlink" ffdec:objectType="frame" height="26.05px" width="52.95px" xmlns="http://www.w3.org/2000/svg">
  <g transform="matrix(1.0, 0.0, 0.0, 1.0, 0.0, 0.0)">
    <use ffdec:characterId="132" height="26.0" transform="matrix(1.0, 0.0, 0.0, 1.0, 0.05, 0.05)" width="26.0" xlink:href="#shape0"/>
    <use ffdec:characterId="133" height="15.15" transform="matrix(1.0, 0.0, 0.0, 1.0, 9.15, 5.6)" width="10.2" xlink:href="#shape1"/>
    <use ffdec:characterId="144" height="13.1" transform="matrix(1.0, 0.0, 0.0, 1.0, 7.6, 6.5)" width="10.95" xlink:href="#shape2"/>
  </g>
  <defs>
    <g id="shape0" transform="matrix(1.0, 0.0, 0.0, 1.0, -0.05, -0.05)">
      <path d="M22.6 13.05 Q22.6 9.1 19.8 6.3 17.0 3.5 13.05 3.5 9.1 3.5 6.3 6.3 3.5 9.1 3.5 13.05 3.5 17.0 6.3 19.8 9.1 22.6 13.05 22.6 17.0 22.6 19.8 19.8 22.6 17.0 22.6 13.05 L22.6 13.05" fill="#000000" fill-rule="evenodd" stroke="none"/>
      <path d="M22.6 13.05 Q22.6 9.1 19.8 6.3 17.0 3.5 13.05 3.5 9.1 3.5 6.3 6.3 3.5 9.1 3.5 13.05 3.5 17.0 6.3 19.8 9.1 22.6 13.05 22.6 17.0 22.6 19.8 19.8 22.6 17.0 22.6 13.05 L22.6 13.05 Z" fill="none" stroke="#ffffff" stroke-linecap="round" stroke-linejoin="round" stroke-width="1.0"/>
    </g>
    <g id="shape1" transform="matrix(1.0, 0.0, 0.0, 1.0, 0.0, 0.0)">
      <path d="M0.0 2.2 L1.7 2.2 1.7 13.5 4.55 13.5 4.55 15.0 0.0 15.0 0.0 2.2 M4.45 2.35 L0.55 0.0 8.3 0.0 4.45 2.35 M7.8 2.0 L8.75 2.1 Q9.2 2.2 9.6 2.45 L9.6 4.15 9.2 3.9 8.9 3.75 8.15 3.6 7.3 3.9 7.05 4.1 Q6.8 4.4 6.7 4.8 L6.65 5.25 6.75 6.0 7.1 6.65 8.4 8.05 9.35 9.15 10.0 10.35 10.2 11.8 Q10.2 12.75 9.85 13.5 9.5 14.25 8.8 14.7 8.15 15.15 7.2 15.15 L6.2 15.0 5.35 14.55 5.35 12.85 6.1 13.3 7.0 13.5 7.85 13.25 8.35 12.6 8.5 11.7 Q8.5 10.95 8.15 10.4 L7.25 9.35 6.2 8.3 5.3 7.0 Q4.95 6.3 4.9 5.3 L4.9 5.25 4.95 4.8 5.15 3.9 5.25 3.65 5.4 3.35 5.65 2.95 5.8 2.8 6.2 2.45 Q6.85 2.0 7.8 2.0" fill="#000000" fill-rule="evenodd" stroke="none"/>
    </g>
    <g id="shape2" transform="matrix(1.0, 0.0, 0.0, 1.0, 0.0, 0.0)">
      <path d="M0.0 0.15 L1.7 0.15 1.7 11.45 4.55 11.45 4.55 12.95 0.0 12.95 0.0 0.15 M9.1 2.7 L8.85 1.9 Q8.65 1.5 8.15 1.5 7.75 1.5 7.5 1.8 7.3 2.05 7.25 2.45 L7.15 3.15 7.15 3.55 5.55 3.55 5.55 3.45 Q5.5 2.45 5.7 1.7 5.85 0.9 6.45 0.45 7.0 0.0 8.1 0.0 9.2 0.0 9.75 0.4 10.35 0.85 10.6 1.6 L10.8 3.3 10.7 4.5 10.35 5.6 Q10.0 6.1 9.35 6.3 L9.35 6.35 10.4 7.0 10.85 8.05 10.95 9.3 10.7 11.2 Q10.45 12.05 9.8 12.6 9.15 13.1 8.0 13.1 6.55 13.1 5.9 12.35 5.3 11.55 5.3 10.15 L5.3 9.75 6.95 9.75 6.95 10.15 7.05 10.85 7.35 11.35 8.0 11.6 8.7 11.3 9.05 10.7 9.2 9.9 9.2 9.2 9.1 8.15 8.65 7.35 7.7 7.05 7.2 7.05 7.2 5.5 7.4 5.5 8.5 5.35 9.0 4.7 9.15 3.55 9.1 2.7" fill="#cccccc" fill-rule="evenodd" stroke="none"/>
    </g>
  </defs>
</svg>
