<?xml version="1.0" encoding="UTF-8" standalone="no"?>
<svg xmlns:ffdec="https://www.free-decompiler.com/flash" xmlns:xlink="http://www.w3.org/1999/xlink" ffdec:objectType="frame" height="26.05px" width="52.95px" xmlns="http://www.w3.org/2000/svg">
  <g transform="matrix(1.0, 0.0, 0.0, 1.0, 0.0, 0.0)">
    <use ffdec:characterId="132" height="26.0" transform="matrix(1.0, 0.0, 0.0, 1.0, 0.05, 0.05)" width="26.0" xlink:href="#shape0"/>
    <use ffdec:characterId="44" height="12.8" transform="matrix(1.0, 0.0, 0.0, 1.0, 10.4, 7.2)" width="6.9" xlink:href="#shape1"/>
    <use ffdec:characterId="148" height="11.8" transform="matrix(1.0, 0.0, 0.0, 1.0, 7.1, 7.1)" width="11.9" xlink:href="#shape2"/>
  </g>
  <defs>
    <g id="shape0" transform="matrix(1.0, 0.0, 0.0, 1.0, -0.05, -0.05)">
      <path d="M22.6 13.05 Q22.6 9.1 19.8 6.3 17.0 3.5 13.05 3.5 9.1 3.5 6.3 6.3 3.5 9.1 3.5 13.05 3.5 17.0 6.3 19.8 9.1 22.6 13.05 22.6 17.0 22.6 19.8 19.8 22.6 17.0 22.6 13.05 L22.6 13.05" fill="#000000" fill-rule="evenodd" stroke="none"/>
      <path d="M22.6 13.05 Q22.6 9.1 19.8 6.3 17.0 3.5 13.05 3.5 9.1 3.5 6.3 6.3 3.5 9.1 3.5 13.05 3.5 17.0 6.3 19.8 9.1 22.6 13.05 22.6 17.0 22.6 19.8 19.8 22.6 17.0 22.6 13.05 L22.6 13.05 Z" fill="none" stroke="#ffffff" stroke-linecap="round" stroke-linejoin="round" stroke-width="1.0"/>
    </g>
    <g id="shape1" transform="matrix(1.0, 0.0, 0.0, 1.0, 0.0, 0.0)">
      <path d="M2.8 0.0 L4.15 0.0 6.9 12.8 5.2 12.8 4.7 10.3 2.15 10.3 1.7 12.8 0.0 12.8 2.8 0.0 M2.4 8.95 L4.45 8.95 3.45 2.45 2.4 8.95" fill="#000000" fill-rule="evenodd" stroke="none"/>
    </g>
    <g id="shape2" transform="matrix(1.0, 0.0, 0.0, 1.0, 0.0, 0.0)">
      <path d="M11.9 1.25 L7.25 5.9 11.9 10.55 10.6 11.8 5.95 7.15 1.3 11.8 0.0 10.55 4.65 5.9 0.0 1.25 1.3 0.0 5.95 4.65 6.1 4.55 10.6 0.0 11.9 1.25" fill="#cccccc" fill-rule="evenodd" stroke="none"/>
    </g>
  </defs>
</svg>
