<?xml version="1.0" encoding="UTF-8" standalone="no"?>
<svg xmlns:ffdec="https://www.free-decompiler.com/flash" xmlns:xlink="http://www.w3.org/1999/xlink" ffdec:objectType="frame" height="26.05px" width="52.95px" xmlns="http://www.w3.org/2000/svg">
  <g transform="matrix(1.0, 0.0, 0.0, 1.0, 0.0, 0.0)">
    <use ffdec:characterId="1" height="26.0" transform="matrix(1.0, 0.0, 0.0, 1.0, 0.0, 0.0)" width="35.75" xlink:href="#shape0"/>
    <use ffdec:characterId="143" height="12.95" transform="matrix(1.0, 0.0, 0.0, 1.0, 5.45, 7.15)" width="32.45" xlink:href="#shape1"/>
    <use ffdec:characterId="143" height="12.95" transform="matrix(1.0, 0.0, 0.0, 1.0, 4.65, 6.55)" width="32.45" xlink:href="#shape1"/>
  </g>
  <defs>
    <g id="shape0" transform="matrix(1.0, 0.0, 0.0, 1.0, 0.0, 0.0)">
      <path d="M3.2 1.8 L32.55 1.8 Q32.7 1.8 32.85 1.85 32.95 1.85 33.1 1.9 33.25 1.95 33.35 2.05 33.45 2.1 33.55 2.2 33.65 2.3 33.7 2.4 33.8 2.5 33.85 2.65 33.9 2.75 33.95 2.9 33.95 3.05 33.95 3.2 L33.95 22.85 Q33.95 23.0 33.9 23.1 33.9 23.25 33.85 23.4 33.8 23.5 33.7 23.6 33.65 23.7 33.55 23.8 33.45 23.9 33.35 24.0 33.25 24.05 33.1 24.1 33.0 24.15 32.85 24.2 32.7 24.2 32.55 24.2 L3.2 24.2 Q3.05 24.2 2.9 24.2 2.8 24.15 2.65 24.1 2.55 24.05 2.4 23.95 2.3 23.9 2.2 23.8 2.1 23.7 2.05 23.6 1.95 23.5 1.9 23.35 1.85 23.25 1.85 23.1 1.8 22.95 1.8 22.85 L1.8 3.2 Q1.8 3.05 1.85 2.9 1.85 2.8 1.9 2.65 1.95 2.5 2.05 2.4 2.1 2.3 2.2 2.2 2.3 2.1 2.4 2.05 2.5 1.95 2.65 1.9 2.75 1.85 2.9 1.85 3.05 1.8 3.2 1.8 L3.2 1.8" fill="#000000" fill-rule="evenodd" stroke="none"/>
      <path d="M3.2 1.3 Q3.0 1.3 2.8 1.35 2.65 1.35 2.45 1.45 2.3 1.5 2.15 1.6 2.0 1.7 1.85 1.85 1.75 2.0 1.6 2.15 1.5 2.3 1.45 2.45 1.4 2.6 1.35 2.8 1.3 3.0 1.3 3.2 L1.3 22.85 Q1.3 23.05 1.35 23.2 1.4 23.4 1.45 23.55 1.5 23.75 1.6 23.9 1.75 24.05 1.85 24.15 2.0 24.3 2.15 24.4 2.3 24.5 2.45 24.55 2.6 24.65 2.8 24.65 3.0 24.7 3.2 24.7 L32.55 24.7 Q32.75 24.7 32.95 24.65 33.1 24.65 33.3 24.55 33.45 24.5 33.6 24.4 33.75 24.3 33.9 24.15 34.05 24.05 34.15 23.9 34.25 23.75 34.3 23.55 34.4 23.4 34.4 23.2 34.45 23.0 34.45 22.85 L34.45 3.2 Q34.45 3.0 34.4 2.8 34.4 2.65 34.3 2.45 34.25 2.3 34.15 2.15 34.05 2.0 33.9 1.85 33.75 1.7 33.6 1.6 33.45 1.5 33.3 1.45 33.15 1.35 32.95 1.35 32.75 1.3 32.55 1.3 L3.2 1.3 M3.2 2.3 L32.55 2.3 Q32.65 2.3 32.75 2.3 32.85 2.35 32.9 2.35 33.0 2.4 33.05 2.45 33.15 2.5 33.2 2.55 33.25 2.6 33.3 2.7 33.35 2.75 33.4 2.85 33.4 2.9 33.45 3.0 33.45 3.1 33.45 3.2 L33.45 22.85 Q33.45 22.95 33.45 23.0 33.4 23.1 33.4 23.2 33.35 23.25 33.3 23.35 33.25 23.4 33.2 23.45 33.15 23.5 33.05 23.55 33.0 23.6 32.9 23.65 32.85 23.7 32.75 23.7 32.65 23.7 32.55 23.7 L3.2 23.7 Q3.1 23.7 3.0 23.7 2.9 23.65 2.85 23.65 2.75 23.6 2.7 23.55 2.6 23.5 2.55 23.45 2.5 23.4 2.45 23.35 2.4 23.25 2.35 23.2 2.35 23.1 2.3 23.0 2.3 22.9 2.3 22.85 L2.3 3.2 Q2.3 3.1 2.3 3.0 2.35 2.9 2.35 2.85 2.4 2.75 2.45 2.7 2.5 2.6 2.55 2.55 2.6 2.5 2.7 2.45 2.75 2.4 2.85 2.35 2.9 2.35 3.0 2.3 3.1 2.3 3.2 2.3 L3.2 2.3" fill="#ffffff" fill-rule="evenodd" stroke="none"/>
    </g>
    <g id="shape1" transform="matrix(1.0, 0.0, 0.0, 1.0, 0.0, 0.0)">
      <path d="M6.05 0.0 L7.55 0.0 8.75 12.8 7.05 12.8 6.6 3.95 4.95 12.8 3.8 12.8 2.15 3.95 2.1 3.95 1.65 12.8 0.0 12.8 1.05 0.0 2.5 0.0 4.35 9.25 4.4 9.25 4.45 8.7 6.05 0.0 M13.8 4.5 L14.6 5.6 14.95 7.05 15.05 8.55 14.95 10.0 14.6 11.4 13.8 12.5 Q13.25 12.9 12.35 12.95 11.45 12.9 10.9 12.5 L10.05 11.4 9.7 10.0 9.65 8.55 9.7 7.05 Q9.8 6.3 10.05 5.6 L10.9 4.5 Q11.45 4.1 12.35 4.1 13.25 4.1 13.8 4.5 M13.05 5.9 Q12.8 5.55 12.35 5.55 11.9 5.55 11.65 5.9 L11.35 6.8 11.25 7.8 11.3 8.55 11.25 9.25 11.35 10.25 11.65 11.1 Q11.9 11.45 12.35 11.5 L13.05 11.1 13.35 10.25 13.4 9.25 13.4 8.55 13.4 7.8 13.35 6.8 13.05 5.9 M21.4 10.0 L21.2 11.55 20.4 12.6 18.9 12.95 Q17.75 12.95 17.2 12.55 16.6 12.15 16.4 11.4 16.25 10.65 16.25 9.7 L16.25 4.2 17.85 4.2 17.85 9.6 17.85 10.45 Q17.9 10.85 18.1 11.15 18.3 11.45 18.85 11.5 L19.55 11.2 19.75 10.5 19.8 9.7 19.8 4.2 21.4 4.2 21.4 10.0 M26.1 4.45 L26.1 5.95 25.5 5.65 24.9 5.5 Q24.45 5.5 24.15 5.75 23.8 6.0 23.8 6.45 23.85 6.95 24.25 7.3 L25.15 8.05 26.05 8.95 Q26.45 9.5 26.5 10.4 26.45 11.55 25.85 12.25 25.2 12.9 24.05 12.95 L23.3 12.85 22.65 12.55 22.65 10.95 23.25 11.35 23.95 11.5 24.75 11.2 25.0 10.45 24.75 9.65 24.1 9.05 23.3 8.45 22.6 7.6 22.35 6.45 Q22.35 5.4 23.0 4.75 23.6 4.1 24.65 4.1 L25.4 4.15 26.1 4.45 M30.8 7.05 L30.7 6.35 30.4 5.75 Q30.2 5.5 29.85 5.5 29.5 5.5 29.3 5.75 L29.0 6.35 28.95 7.05 28.95 7.7 30.85 7.7 30.8 7.05 M31.25 4.55 Q31.75 4.95 32.05 5.65 L32.4 7.1 32.45 8.55 32.45 8.8 28.95 8.8 28.95 9.55 29.05 10.45 29.35 11.2 Q29.55 11.5 29.95 11.5 L30.55 11.25 30.85 10.65 30.95 9.9 32.4 9.9 32.15 11.4 31.35 12.5 Q30.8 12.9 29.9 12.95 29.0 12.9 28.5 12.5 27.95 12.1 27.7 11.45 L27.35 10.0 27.3 8.55 27.35 7.15 Q27.45 6.35 27.7 5.65 27.95 4.95 28.45 4.55 29.0 4.1 29.85 4.1 30.75 4.1 31.25 4.55" fill="#000000" fill-rule="evenodd" stroke="none"/>
    </g>
  </defs>
</svg>
