<?xml version="1.0" encoding="UTF-8" standalone="no"?>
<svg xmlns:ffdec="https://www.free-decompiler.com/flash" xmlns:xlink="http://www.w3.org/1999/xlink" ffdec:objectType="frame" height="26.05px" width="52.95px" xmlns="http://www.w3.org/2000/svg">
  <g transform="matrix(1.0, 0.0, 0.0, 1.0, 0.0, 0.0)">
    <use ffdec:characterId="132" height="26.0" transform="matrix(1.0, 0.0, 0.0, 1.0, 0.05, 0.05)" width="26.0" xlink:href="#shape0"/>
    <use ffdec:characterId="144" height="13.1" transform="matrix(1.0, 0.0, 0.0, 1.0, 8.4, 7.1)" width="10.95" xlink:href="#shape1"/>
    <use ffdec:characterId="144" height="13.1" transform="matrix(1.0, 0.0, 0.0, 1.0, 7.6, 6.5)" width="10.95" xlink:href="#shape1"/>
  </g>
  <defs>
    <g id="shape0" transform="matrix(1.0, 0.0, 0.0, 1.0, -0.05, -0.05)">
      <path d="M22.6 13.05 Q22.6 9.1 19.8 6.3 17.0 3.5 13.05 3.5 9.1 3.5 6.3 6.3 3.5 9.1 3.5 13.05 3.5 17.0 6.3 19.8 9.1 22.6 13.05 22.6 17.0 22.6 19.8 19.8 22.6 17.0 22.6 13.05 L22.6 13.05" fill="#000000" fill-rule="evenodd" stroke="none"/>
      <path d="M22.6 13.05 Q22.6 9.1 19.8 6.3 17.0 3.5 13.05 3.5 9.1 3.5 6.3 6.3 3.5 9.1 3.5 13.05 3.5 17.0 6.3 19.8 9.1 22.6 13.05 22.6 17.0 22.6 19.8 19.8 22.6 17.0 22.6 13.05 L22.6 13.05 Z" fill="none" stroke="#ffffff" stroke-linecap="round" stroke-linejoin="round" stroke-width="1.0"/>
    </g>
    <g id="shape1" transform="matrix(1.0, 0.0, 0.0, 1.0, 0.0, 0.0)">
      <path d="M0.0 0.15 L1.7 0.15 1.7 11.45 4.55 11.45 4.55 12.95 0.0 12.95 0.0 0.15 M9.1 2.7 L8.85 1.9 Q8.65 1.5 8.15 1.5 7.75 1.5 7.5 1.8 7.3 2.05 7.25 2.45 L7.15 3.15 7.15 3.55 5.55 3.55 5.55 3.45 Q5.5 2.45 5.7 1.7 5.85 0.9 6.45 0.45 7.0 0.0 8.1 0.0 9.2 0.0 9.75 0.4 10.35 0.85 10.6 1.6 L10.8 3.3 10.7 4.5 10.35 5.6 Q10.0 6.1 9.35 6.3 L9.35 6.35 10.4 7.0 10.85 8.05 10.95 9.3 10.7 11.2 Q10.45 12.05 9.8 12.6 9.15 13.1 8.0 13.1 6.55 13.1 5.9 12.35 5.3 11.55 5.3 10.15 L5.3 9.75 6.95 9.75 6.95 10.15 7.05 10.85 7.35 11.35 8.0 11.6 8.7 11.3 9.05 10.7 9.2 9.9 9.2 9.2 9.1 8.15 8.65 7.35 7.7 7.05 7.2 7.05 7.2 5.5 7.4 5.5 8.5 5.35 9.0 4.7 9.15 3.55 9.1 2.7" fill="#000000" fill-rule="evenodd" stroke="none"/>
    </g>
  </defs>
</svg>
