<?xml version="1.0" encoding="UTF-8" standalone="no"?>
<svg xmlns:ffdec="https://www.free-decompiler.com/flash" xmlns:xlink="http://www.w3.org/1999/xlink" ffdec:objectType="frame" height="26.05px" width="52.95px" xmlns="http://www.w3.org/2000/svg">
  <g transform="matrix(1.0, 0.0, 0.0, 1.0, 0.0, 0.0)">
    <use ffdec:characterId="3" height="26.0" transform="matrix(1.0, 0.0, 0.0, 1.0, 0.0, 0.0)" width="26.0" xlink:href="#shape0"/>
    <use ffdec:characterId="12" height="7.9" transform="matrix(1.1684, 0.0, 0.0, 1.1684, 7.25, 5.65)" width="4.75" xlink:href="#shape1"/>
    <use ffdec:characterId="12" height="7.9" transform="matrix(1.1684, 0.0, 0.0, 1.1684, 6.45, 5.05)" width="4.75" xlink:href="#shape1"/>
    <use ffdec:characterId="13" height="12.95" transform="matrix(1.0, 0.0, 0.0, 1.0, 14.5, 8.25)" width="5.6" xlink:href="#shape2"/>
    <use ffdec:characterId="13" height="12.95" transform="matrix(1.0, 0.0, 0.0, 1.0, 13.7, 7.65)" width="5.6" xlink:href="#shape2"/>
  </g>
  <defs>
    <g id="shape0" transform="matrix(1.0, 0.0, 0.0, 1.0, 0.0, 0.0)">
      <path d="M3.2 1.8 L22.8 1.8 Q22.95 1.8 23.1 1.85 23.2 1.85 23.35 1.9 23.45 1.95 23.6 2.05 23.7 2.1 23.8 2.2 23.9 2.3 23.95 2.4 24.05 2.5 24.1 2.65 24.15 2.75 24.15 2.9 24.2 3.05 24.2 3.2 L24.2 22.8 Q24.2 22.95 24.15 23.1 24.15 23.2 24.1 23.35 24.05 23.45 23.95 23.6 23.9 23.7 23.8 23.8 23.7 23.9 23.6 23.95 23.5 24.05 23.35 24.1 23.25 24.15 23.1 24.15 22.95 24.2 22.8 24.2 L3.2 24.2 Q3.05 24.2 2.9 24.15 2.8 24.15 2.65 24.1 2.55 24.05 2.4 23.95 2.3 23.9 2.2 23.8 2.1 23.7 2.05 23.6 1.95 23.5 1.9 23.35 1.85 23.25 1.85 23.1 1.8 22.95 1.8 22.8 L1.8 3.2 Q1.8 3.05 1.85 2.9 1.85 2.8 1.9 2.65 1.95 2.5 2.05 2.4 2.1 2.3 2.2 2.2 2.3 2.1 2.4 2.05 2.5 1.95 2.65 1.9 2.75 1.85 2.9 1.85 3.05 1.8 3.2 1.8 L3.2 1.8" fill="#000000" fill-rule="evenodd" stroke="none"/>
      <path d="M3.2 1.3 Q3.0 1.3 2.8 1.35 2.65 1.4 2.45 1.45 2.3 1.5 2.15 1.6 2.0 1.7 1.85 1.85 1.75 2.0 1.6 2.15 1.5 2.3 1.45 2.45 1.4 2.6 1.35 2.8 1.3 3.0 1.3 3.2 L1.3 22.8 Q1.3 23.0 1.35 23.2 1.4 23.35 1.45 23.55 1.5 23.7 1.6 23.85 1.7 24.0 1.85 24.15 2.0 24.25 2.15 24.4 2.3 24.5 2.45 24.55 2.6 24.6 2.8 24.65 3.0 24.7 3.2 24.7 L22.8 24.7 Q23.0 24.7 23.2 24.65 23.35 24.6 23.55 24.55 23.7 24.5 23.85 24.4 24.0 24.25 24.15 24.15 24.25 24.0 24.4 23.85 24.5 23.7 24.55 23.55 24.6 23.4 24.65 23.2 24.7 23.0 24.7 22.8 L24.7 3.2 Q24.7 3.0 24.65 2.8 24.6 2.65 24.55 2.45 24.5 2.3 24.4 2.15 24.3 2.0 24.15 1.85 24.0 1.7 23.85 1.6 23.7 1.5 23.55 1.45 23.4 1.35 23.2 1.35 23.0 1.3 22.8 1.3 L3.2 1.3 M3.2 2.3 L22.8 2.3 Q22.9 2.3 23.0 2.3 23.1 2.35 23.15 2.35 23.25 2.4 23.3 2.45 23.4 2.5 23.45 2.55 23.5 2.6 23.55 2.7 23.6 2.75 23.65 2.85 23.65 2.9 23.7 3.0 23.7 3.1 23.7 3.2 L23.7 22.8 Q23.7 22.9 23.7 23.0 23.65 23.1 23.65 23.15 23.6 23.25 23.55 23.3 23.5 23.4 23.45 23.45 23.4 23.5 23.3 23.55 23.25 23.6 23.15 23.65 23.1 23.65 23.0 23.7 22.9 23.7 22.8 23.7 L3.2 23.7 Q3.1 23.7 3.0 23.7 2.9 23.65 2.85 23.65 2.75 23.6 2.7 23.55 2.6 23.5 2.55 23.45 2.5 23.4 2.45 23.3 2.4 23.25 2.35 23.15 2.35 23.1 2.3 23.0 2.3 22.9 2.3 22.8 L2.3 3.2 Q2.3 3.1 2.3 3.0 2.35 2.9 2.35 2.85 2.4 2.75 2.45 2.7 2.5 2.6 2.55 2.55 2.6 2.5 2.7 2.45 2.75 2.4 2.85 2.35 2.9 2.35 3.0 2.3 3.1 2.3 3.2 2.3 L3.2 2.3" fill="#ffffff" fill-rule="evenodd" stroke="none"/>
    </g>
    <g id="shape1" transform="matrix(1.0, 0.0, 0.0, 1.0, 0.0, 0.0)">
      <path d="M0.8 7.8 L0.15 7.8 3.95 0.1 4.6 0.1 0.8 7.8 M4.1 5.75 L4.05 5.35 3.95 5.0 3.65 4.85 3.4 5.0 3.25 5.35 3.25 5.75 3.25 6.05 3.25 6.35 3.25 6.8 3.4 7.15 3.65 7.3 3.95 7.15 4.05 6.8 4.1 6.35 4.1 6.05 4.1 5.75 M1.3 0.75 L1.1 0.6 Q0.9 0.6 0.8 0.75 L0.7 1.1 0.65 1.5 0.65 1.8 0.65 2.15 0.7 2.55 0.8 2.9 1.1 3.05 1.3 2.9 1.45 2.55 1.45 2.15 1.45 1.8 1.45 1.5 1.45 1.1 1.3 0.75 M2.15 1.25 L2.15 1.8 2.15 2.4 2.0 3.0 1.7 3.45 1.1 3.65 0.5 3.45 0.15 3.0 0.0 2.4 0.0 1.8 0.0 1.25 0.15 0.65 0.5 0.15 1.1 0.0 1.7 0.15 2.0 0.65 2.15 1.25 M4.6 4.85 L4.7 5.45 4.75 6.05 4.7 6.65 4.6 7.25 4.25 7.7 3.65 7.9 3.05 7.7 2.75 7.25 2.6 6.65 2.6 6.05 2.6 5.45 2.75 4.85 3.05 4.4 3.65 4.2 4.25 4.4 4.6 4.85" fill="#000000" fill-rule="evenodd" stroke="none"/>
    </g>
    <g id="shape2" transform="matrix(1.0, 0.0, 0.0, 1.0, 0.0, 0.0)">
      <path d="M5.45 1.45 L2.65 1.45 2.25 4.7 Q3.4 4.65 4.15 5.1 4.9 5.55 5.25 6.4 5.6 7.2 5.6 8.3 L5.45 10.0 4.85 11.5 3.7 12.55 Q3.0 12.95 2.0 12.95 L1.0 12.8 0.0 12.45 0.45 10.9 1.2 11.3 1.95 11.45 2.9 11.15 3.5 10.45 3.8 9.5 3.85 8.55 Q3.9 7.45 3.35 6.75 2.85 6.05 1.65 6.05 L1.15 6.1 0.6 6.2 1.35 0.0 5.45 0.0 5.45 1.45" fill="#000000" fill-rule="evenodd" stroke="none"/>
    </g>
  </defs>
</svg>
