<?xml version="1.0" encoding="UTF-8" standalone="no"?>
<svg xmlns:ffdec="https://www.free-decompiler.com/flash" xmlns:xlink="http://www.w3.org/1999/xlink" ffdec:objectType="frame" height="26.05px" width="52.95px" xmlns="http://www.w3.org/2000/svg">
  <g transform="matrix(1.0, 0.0, 0.0, 1.0, 0.0, 0.0)">
    <use ffdec:characterId="1" height="26.0" transform="matrix(1.0, 0.0, 0.0, 1.0, 0.0, 0.0)" width="35.75" xlink:href="#shape0"/>
    <use ffdec:characterId="100" height="12.95" transform="matrix(1.0, 0.0, 0.0, 1.0, 8.7, 7.05)" width="19.95" xlink:href="#shape1"/>
    <use ffdec:characterId="100" height="12.95" transform="matrix(1.0, 0.0, 0.0, 1.0, 7.9, 6.45)" width="19.95" xlink:href="#shape1"/>
  </g>
  <defs>
    <g id="shape0" transform="matrix(1.0, 0.0, 0.0, 1.0, 0.0, 0.0)">
      <path d="M3.2 1.8 L32.55 1.8 Q32.7 1.8 32.85 1.85 32.95 1.85 33.1 1.9 33.25 1.95 33.35 2.05 33.45 2.1 33.55 2.2 33.65 2.3 33.7 2.4 33.8 2.5 33.85 2.65 33.9 2.75 33.95 2.9 33.95 3.05 33.95 3.2 L33.95 22.85 Q33.95 23.0 33.9 23.1 33.9 23.25 33.85 23.4 33.8 23.5 33.7 23.6 33.65 23.7 33.55 23.8 33.45 23.9 33.35 24.0 33.25 24.05 33.1 24.1 33.0 24.15 32.85 24.2 32.7 24.2 32.55 24.2 L3.2 24.2 Q3.05 24.2 2.9 24.2 2.8 24.15 2.65 24.1 2.55 24.05 2.4 23.95 2.3 23.9 2.2 23.8 2.1 23.7 2.05 23.6 1.95 23.5 1.9 23.35 1.85 23.25 1.85 23.1 1.8 22.95 1.8 22.85 L1.8 3.2 Q1.8 3.05 1.85 2.9 1.85 2.8 1.9 2.65 1.95 2.5 2.05 2.4 2.1 2.3 2.2 2.2 2.3 2.1 2.4 2.05 2.5 1.95 2.65 1.9 2.75 1.85 2.9 1.85 3.05 1.8 3.2 1.8 L3.2 1.8" fill="#000000" fill-rule="evenodd" stroke="none"/>
      <path d="M3.2 1.3 Q3.0 1.3 2.8 1.35 2.65 1.35 2.45 1.45 2.3 1.5 2.15 1.6 2.0 1.7 1.85 1.85 1.75 2.0 1.6 2.15 1.5 2.3 1.45 2.45 1.4 2.6 1.35 2.8 1.3 3.0 1.3 3.2 L1.3 22.85 Q1.3 23.05 1.35 23.2 1.4 23.4 1.45 23.55 1.5 23.75 1.6 23.9 1.75 24.05 1.85 24.15 2.0 24.3 2.15 24.4 2.3 24.5 2.45 24.55 2.6 24.65 2.8 24.65 3.0 24.7 3.2 24.7 L32.55 24.7 Q32.75 24.7 32.95 24.65 33.1 24.65 33.3 24.55 33.45 24.5 33.6 24.4 33.75 24.3 33.9 24.15 34.05 24.05 34.15 23.9 34.25 23.75 34.3 23.55 34.4 23.4 34.4 23.2 34.45 23.0 34.45 22.85 L34.45 3.2 Q34.45 3.0 34.4 2.8 34.4 2.65 34.3 2.45 34.25 2.3 34.15 2.15 34.05 2.0 33.9 1.85 33.75 1.7 33.6 1.6 33.45 1.5 33.3 1.45 33.15 1.35 32.95 1.35 32.75 1.3 32.55 1.3 L3.2 1.3 M3.2 2.3 L32.55 2.3 Q32.65 2.3 32.75 2.3 32.85 2.35 32.9 2.35 33.0 2.4 33.05 2.45 33.15 2.5 33.2 2.55 33.25 2.6 33.3 2.7 33.35 2.75 33.4 2.85 33.4 2.9 33.45 3.0 33.45 3.1 33.45 3.2 L33.45 22.85 Q33.45 22.95 33.45 23.0 33.4 23.1 33.4 23.2 33.35 23.25 33.3 23.35 33.25 23.4 33.2 23.45 33.15 23.5 33.05 23.55 33.0 23.6 32.9 23.65 32.85 23.7 32.75 23.7 32.65 23.7 32.55 23.7 L3.2 23.7 Q3.1 23.7 3.0 23.7 2.9 23.65 2.85 23.65 2.75 23.6 2.7 23.55 2.6 23.5 2.55 23.45 2.5 23.4 2.45 23.35 2.4 23.25 2.35 23.2 2.35 23.1 2.3 23.0 2.3 22.9 2.3 22.85 L2.3 3.2 Q2.3 3.1 2.3 3.0 2.35 2.9 2.35 2.85 2.4 2.75 2.45 2.7 2.5 2.6 2.55 2.55 2.6 2.5 2.7 2.45 2.75 2.4 2.85 2.35 2.9 2.35 3.0 2.3 3.1 2.3 3.2 2.3 L3.2 2.3" fill="#ffffff" fill-rule="evenodd" stroke="none"/>
    </g>
    <g id="shape1" transform="matrix(1.0, 0.0, 0.0, 1.0, 0.0, 0.0)">
      <path d="M1.6 0.15 L4.6 9.85 4.65 9.85 4.25 0.15 5.95 0.15 5.95 12.95 4.35 12.95 1.35 3.05 1.7 12.95 0.0 12.95 0.0 0.15 1.6 0.15 M13.05 1.65 L13.35 3.55 Q13.35 5.5 12.5 6.45 11.65 7.35 9.7 7.25 L9.7 12.95 8.0 12.95 8.0 0.15 10.05 0.15 11.15 0.2 12.25 0.6 13.05 1.65 M11.15 5.35 Q11.55 4.8 11.55 3.7 L11.4 2.65 10.95 1.85 9.95 1.6 9.7 1.6 9.7 5.85 Q10.75 5.9 11.15 5.35 M18.2 3.05 L18.1 2.35 17.75 1.75 Q17.5 1.5 17.05 1.5 16.65 1.5 16.4 1.8 16.2 2.1 16.15 2.55 L16.05 3.35 16.1 3.95 16.1 4.3 14.35 4.3 14.35 3.85 Q14.35 2.8 14.5 1.95 14.7 1.05 15.25 0.5 15.85 0.0 17.1 0.0 18.65 0.0 19.3 0.8 19.95 1.65 19.95 3.15 19.95 4.1 19.55 5.25 L18.7 7.45 17.75 9.4 16.65 11.45 19.85 11.45 19.85 12.95 14.2 12.95 17.3 6.35 17.9 4.75 18.2 3.05" fill="#000000" fill-rule="evenodd" stroke="none"/>
    </g>
  </defs>
</svg>
