<?xml version="1.0" encoding="UTF-8" standalone="no"?>
<svg xmlns:ffdec="https://www.free-decompiler.com/flash" xmlns:xlink="http://www.w3.org/1999/xlink" ffdec:objectType="frame" height="26.05px" width="52.95px" xmlns="http://www.w3.org/2000/svg">
  <g transform="matrix(1.0, 0.0, 0.0, 1.0, 0.0, 0.0)">
    <use ffdec:characterId="27" height="26.0" transform="matrix(1.0, 0.0, 0.0, 1.0, 0.0, 0.0)" width="41.75" xlink:href="#shape0"/>
    <use ffdec:characterId="28" height="14.25" transform="matrix(1.0, 0.0, 0.0, 1.0, 9.8, 5.85)" width="23.7" xlink:href="#shape1"/>
    <use ffdec:characterId="28" height="14.25" transform="matrix(1.0, 0.0, 0.0, 1.0, 9.0, 5.25)" width="23.7" xlink:href="#shape1"/>
  </g>
  <defs>
    <g id="shape0" transform="matrix(1.0, 0.0, 0.0, 1.0, 0.0, 0.0)">
      <path d="M3.2 1.8 L38.55 1.8 Q38.7 1.8 38.85 1.85 38.95 1.85 39.1 1.9 39.25 1.95 39.35 2.05 39.45 2.1 39.55 2.2 39.65 2.3 39.7 2.4 39.8 2.5 39.85 2.65 39.9 2.75 39.9 2.9 39.95 3.05 39.95 3.2 L39.95 22.8 Q39.95 22.95 39.9 23.1 39.9 23.2 39.85 23.35 39.8 23.45 39.7 23.6 39.65 23.7 39.55 23.8 39.45 23.9 39.35 23.95 39.25 24.05 39.1 24.1 39.0 24.15 38.85 24.15 38.7 24.2 38.55 24.2 L3.2 24.2 Q3.05 24.2 2.9 24.15 2.8 24.15 2.65 24.1 2.55 24.05 2.4 23.95 2.3 23.9 2.2 23.8 2.1 23.7 2.05 23.6 1.95 23.45 1.9 23.35 1.85 23.2 1.85 23.1 1.8 22.95 1.8 22.8 L1.8 3.2 Q1.8 3.05 1.85 2.9 1.85 2.8 1.9 2.65 1.95 2.5 2.05 2.4 2.1 2.3 2.2 2.2 2.3 2.1 2.4 2.05 2.5 1.95 2.65 1.9 2.75 1.85 2.9 1.8 3.05 1.8 3.2 1.8 L3.2 1.8" fill="#000000" fill-rule="evenodd" stroke="none"/>
      <path d="M3.2 1.3 Q3.0 1.3 2.8 1.35 2.65 1.35 2.45 1.45 2.3 1.5 2.15 1.6 2.0 1.7 1.85 1.85 1.75 2.0 1.6 2.15 1.5 2.3 1.45 2.45 1.4 2.6 1.35 2.8 1.3 3.0 1.3 3.2 L1.3 22.8 Q1.3 23.0 1.35 23.2 1.4 23.35 1.45 23.55 1.5 23.7 1.6 23.85 1.75 24.0 1.85 24.15 2.0 24.25 2.15 24.35 2.3 24.45 2.45 24.55 2.6 24.6 2.8 24.65 3.0 24.7 3.2 24.7 L38.55 24.7 Q38.75 24.7 38.95 24.65 39.1 24.6 39.3 24.55 39.45 24.5 39.6 24.35 39.75 24.25 39.9 24.15 40.05 24.0 40.15 23.85 40.25 23.7 40.3 23.55 40.4 23.35 40.4 23.2 40.45 23.0 40.45 22.8 L40.45 3.2 Q40.45 3.0 40.4 2.8 40.4 2.65 40.3 2.45 40.25 2.3 40.15 2.15 40.05 2.0 39.9 1.85 39.75 1.7 39.6 1.6 39.45 1.5 39.3 1.45 39.15 1.35 38.95 1.35 38.75 1.3 38.55 1.3 L3.2 1.3 M3.2 2.3 L38.55 2.3 Q38.65 2.3 38.75 2.3 38.85 2.35 38.9 2.35 39.0 2.4 39.05 2.45 39.15 2.5 39.2 2.55 39.25 2.6 39.3 2.7 39.35 2.75 39.4 2.85 39.4 2.9 39.45 3.0 39.45 3.1 39.45 3.2 L39.45 22.8 Q39.45 22.9 39.45 23.0 39.4 23.05 39.4 23.15 39.35 23.25 39.3 23.3 39.25 23.4 39.2 23.45 39.15 23.5 39.05 23.55 39.0 23.6 38.9 23.65 38.85 23.65 38.75 23.7 38.65 23.7 38.55 23.7 L3.2 23.7 Q3.1 23.7 3.0 23.7 2.9 23.65 2.85 23.65 2.75 23.6 2.7 23.55 2.6 23.5 2.55 23.45 2.5 23.4 2.45 23.3 2.4 23.25 2.35 23.15 2.35 23.1 2.3 23.0 2.3 22.9 2.3 22.8 L2.3 3.2 Q2.3 3.1 2.3 3.0 2.35 2.9 2.35 2.85 2.4 2.75 2.45 2.7 2.5 2.6 2.55 2.55 2.6 2.5 2.7 2.45 2.75 2.4 2.85 2.35 2.9 2.35 3.0 2.3 3.1 2.3 3.2 2.3 L3.2 2.3" fill="#ffffff" fill-rule="evenodd" stroke="none"/>
    </g>
    <g id="shape1" transform="matrix(1.0, 0.0, 0.0, 1.0, 0.0, 0.0)">
      <path d="M0.25 11.75 Q0.7 12.15 1.1 12.35 1.5 12.5 1.85 12.5 2.45 12.5 2.8 12.05 3.15 11.55 3.15 10.75 3.15 9.6 1.8 8.1 1.65 7.9 1.55 7.8 0.7 6.85 0.35 6.0 0.0 5.2 0.0 4.15 0.0 2.65 0.7 1.65 1.4 0.65 2.4 0.65 2.85 0.65 3.3 0.8 3.7 0.95 4.1 1.25 L4.1 3.05 Q3.75 2.65 3.35 2.5 3.0 2.3 2.65 2.3 2.05 2.3 1.7 2.8 1.3 3.3 1.3 4.15 1.3 5.25 2.75 6.85 2.85 7.0 2.95 7.05 3.75 7.95 4.1 8.8 4.45 9.65 4.45 10.75 4.45 12.25 3.75 13.25 3.05 14.25 1.95 14.25 1.5 14.25 1.1 14.1 0.7 13.9 0.25 13.6 L0.25 11.75" fill="#000000" fill-rule="evenodd" stroke="none"/>
      <path d="M6.35 8.65 L8.15 8.65 8.15 8.4 Q8.15 7.3 7.95 6.85 7.75 6.35 7.3 6.35 6.85 6.35 6.6 6.95 6.35 7.5 6.35 8.65 L6.35 8.65 M9.25 11.1 L9.25 11.2 Q9.25 12.65 8.75 13.45 8.25 14.25 7.35 14.25 6.25 14.25 5.75 13.15 5.25 12.0 5.25 9.6 5.25 7.3 5.75 6.15 6.25 5.0 7.25 5.0 8.35 5.0 8.85 6.05 9.3 7.05 9.3 9.4 L9.3 9.95 6.35 9.95 6.35 10.2 Q6.35 11.6 6.6 12.25 6.8 12.85 7.3 12.85 7.7 12.85 7.95 12.4 8.15 12.0 8.15 11.1 L9.25 11.1" fill="#000000" fill-rule="evenodd" stroke="none"/>
      <path d="M10.5 14.1 L10.5 0.0 11.65 0.0 11.65 14.1 10.5 14.1" fill="#000000" fill-rule="evenodd" stroke="none"/>
      <path d="M13.95 8.65 L15.75 8.65 15.75 8.4 Q15.75 7.3 15.55 6.85 15.35 6.35 14.9 6.35 14.45 6.35 14.2 6.95 13.95 7.5 13.95 8.65 L13.95 8.65 M16.85 11.1 L16.85 11.2 Q16.85 12.65 16.35 13.45 15.85 14.25 14.95 14.25 13.85 14.25 13.35 13.15 12.85 12.0 12.85 9.6 12.85 7.3 13.35 6.15 13.85 5.0 14.85 5.0 15.95 5.0 16.45 6.05 16.9 7.05 16.9 9.4 L16.9 9.95 13.95 9.95 13.95 10.2 Q13.95 11.6 14.2 12.25 14.4 12.85 14.9 12.85 15.3 12.85 15.55 12.4 15.75 12.0 15.75 11.1 L16.85 11.1" fill="#000000" fill-rule="evenodd" stroke="none"/>
      <path d="M20.6 13.95 Q20.35 14.1 20.1 14.2 19.85 14.25 19.6 14.25 18.65 14.25 18.2 13.15 17.7 12.0 17.7 9.65 17.7 7.35 18.2 6.2 18.65 5.0 19.55 5.0 19.85 5.0 20.1 5.1 20.35 5.2 20.6 5.35 L20.6 6.9 Q20.45 6.7 20.3 6.6 20.1 6.5 19.95 6.5 19.45 6.5 19.15 7.3 18.9 8.1 18.9 9.7 18.9 11.2 19.15 11.9 19.4 12.65 19.9 12.65 20.1 12.65 20.25 12.55 20.45 12.45 20.6 12.25 L20.6 13.95" fill="#000000" fill-rule="evenodd" stroke="none"/>
      <path d="M21.6 14.1 L21.6 6.4 20.95 6.4 20.95 5.15 21.6 5.15 21.6 2.75 22.75 2.75 22.75 5.15 23.65 5.15 23.65 6.4 22.75 6.4 22.75 14.1 21.6 14.1" fill="#000000" fill-rule="evenodd" stroke="none"/>
    </g>
  </defs>
</svg>
