<?xml version="1.0" encoding="UTF-8" standalone="no"?>
<svg xmlns:ffdec="https://www.free-decompiler.com/flash" xmlns:xlink="http://www.w3.org/1999/xlink" ffdec:objectType="frame" height="26.05px" width="52.95px" xmlns="http://www.w3.org/2000/svg">
  <g transform="matrix(1.0, 0.0, 0.0, 1.0, 0.0, 0.0)">
    <use ffdec:characterId="88" height="26.0" transform="matrix(1.0, 0.0, 0.0, 1.0, 0.0, 0.0)" width="52.95" xlink:href="#shape0"/>
    <use ffdec:characterId="106" height="12.95" transform="matrix(1.0, 0.0, 0.0, 1.0, 6.4, 7.15)" width="40.15" xlink:href="#shape1"/>
    <use ffdec:characterId="106" height="12.95" transform="matrix(1.0, 0.0, 0.0, 1.0, 6.4, 6.55)" width="40.15" xlink:href="#shape1"/>
  </g>
  <defs>
    <g id="shape0" transform="matrix(1.0, 0.0, 0.0, 1.0, 0.0, 0.0)">
      <path d="M3.2 1.8 L49.8 1.8 Q49.95 1.8 50.05 1.85 50.2 1.85 50.35 1.9 50.45 1.95 50.55 2.05 50.65 2.1 50.75 2.2 50.85 2.3 50.95 2.4 51.0 2.5 51.05 2.65 51.1 2.75 51.15 2.9 51.15 3.05 51.15 3.2 L51.15 22.8 Q51.15 22.95 51.15 23.1 51.1 23.2 51.05 23.35 51.0 23.45 50.9 23.6 50.85 23.7 50.75 23.8 50.65 23.9 50.55 23.95 50.45 24.05 50.3 24.1 50.2 24.15 50.05 24.15 49.9 24.2 49.8 24.2 L3.2 24.2 Q3.05 24.2 2.9 24.15 2.8 24.15 2.65 24.1 2.55 24.05 2.4 23.95 2.3 23.9 2.2 23.8 2.1 23.7 2.05 23.6 1.95 23.5 1.9 23.35 1.85 23.25 1.85 23.1 1.8 22.95 1.8 22.8 L1.8 3.2 Q1.8 3.05 1.85 2.9 1.85 2.8 1.9 2.65 1.95 2.55 2.05 2.4 2.1 2.3 2.2 2.2 2.3 2.1 2.4 2.05 2.5 1.95 2.65 1.9 2.75 1.85 2.9 1.85 3.05 1.8 3.2 1.8 L3.2 1.8" fill="#000000" fill-rule="evenodd" stroke="none"/>
      <path d="M3.2 1.3 Q3.0 1.3 2.8 1.35 2.65 1.4 2.45 1.45 2.3 1.5 2.15 1.6 2.0 1.75 1.85 1.85 1.75 2.0 1.6 2.15 1.5 2.3 1.45 2.45 1.4 2.65 1.35 2.8 1.3 3.0 1.3 3.2 L1.3 22.8 Q1.3 23.0 1.35 23.2 1.4 23.35 1.45 23.55 1.5 23.7 1.6 23.85 1.75 24.0 1.85 24.15 2.0 24.25 2.15 24.35 2.3 24.5 2.45 24.55 2.6 24.6 2.8 24.65 3.0 24.7 3.2 24.7 L49.8 24.7 Q50.0 24.7 50.15 24.65 50.35 24.6 50.5 24.55 50.7 24.5 50.85 24.4 51.0 24.25 51.1 24.15 51.25 24.0 51.35 23.85 51.45 23.7 51.5 23.55 51.6 23.35 51.6 23.2 51.65 23.0 51.65 22.8 L51.65 3.2 Q51.65 3.0 51.6 2.8 51.6 2.65 51.5 2.45 51.45 2.3 51.35 2.15 51.25 2.0 51.1 1.85 51.0 1.75 50.85 1.65 50.7 1.5 50.5 1.45 50.35 1.4 50.15 1.35 49.95 1.3 49.8 1.3 L3.2 1.3 M3.2 2.3 L49.8 2.3 Q49.9 2.3 49.95 2.3 50.05 2.35 50.15 2.35 50.2 2.4 50.3 2.45 50.35 2.5 50.4 2.55 50.45 2.6 50.5 2.7 50.55 2.75 50.6 2.85 50.65 2.9 50.65 3.0 50.65 3.1 50.65 3.2 L50.65 22.8 Q50.65 22.9 50.65 23.0 50.6 23.05 50.6 23.15 50.55 23.25 50.5 23.3 50.45 23.4 50.4 23.45 50.35 23.5 50.25 23.55 50.2 23.6 50.1 23.65 50.05 23.65 49.95 23.7 49.85 23.7 49.8 23.7 L3.2 23.7 Q3.1 23.7 3.0 23.7 2.9 23.65 2.85 23.65 2.75 23.6 2.7 23.55 2.6 23.5 2.55 23.45 2.5 23.4 2.45 23.3 2.4 23.25 2.35 23.15 2.35 23.1 2.3 23.0 2.3 22.9 2.3 22.8 L2.3 3.2 Q2.3 3.1 2.3 3.0 2.35 2.95 2.35 2.85 2.4 2.75 2.45 2.7 2.5 2.6 2.55 2.55 2.6 2.5 2.7 2.45 2.75 2.4 2.85 2.35 2.9 2.35 3.0 2.3 3.1 2.3 3.2 2.3 L3.2 2.3" fill="#ffffff" fill-rule="evenodd" stroke="none"/>
    </g>
    <g id="shape1" transform="matrix(1.0, 0.0, 0.0, 1.0, 0.0, 0.0)">
      <path d="M4.65 9.7 L4.25 0.0 5.95 0.0 5.95 12.8 4.35 12.8 1.35 2.9 1.7 12.8 0.0 12.8 0.0 0.0 1.6 0.0 4.6 9.7 4.65 9.7 M11.55 3.55 L11.4 2.5 10.95 1.7 9.95 1.45 9.7 1.45 9.7 5.7 Q10.75 5.75 11.15 5.2 11.55 4.65 11.55 3.55 M11.15 0.05 L12.25 0.45 13.05 1.5 13.35 3.4 Q13.35 5.35 12.5 6.3 11.65 7.2 9.7 7.1 L9.7 12.8 8.0 12.8 8.0 0.0 10.05 0.0 11.15 0.05 M16.3 5.5 L18.85 5.5 18.85 6.95 16.3 6.95 16.3 11.3 19.15 11.3 19.15 12.8 14.6 12.8 14.6 0.0 19.15 0.0 19.15 1.45 16.3 1.45 16.3 5.5 M21.8 4.2 L21.8 5.2 21.85 5.2 22.15 4.7 Q22.3 4.5 22.5 4.4 L23.0 4.15 23.55 4.1 Q24.4 4.1 24.8 4.5 L25.25 5.6 25.3 6.9 25.3 12.8 23.7 12.8 23.7 6.85 23.65 6.25 23.4 5.75 Q23.2 5.5 22.75 5.5 22.25 5.55 22.05 5.85 21.85 6.2 21.8 6.6 L21.8 7.45 21.8 12.8 20.2 12.8 20.2 4.2 21.8 4.2 M26.25 4.2 L27.1 4.2 27.1 1.8 28.7 1.8 28.7 4.2 29.55 4.2 29.55 5.5 28.7 5.5 28.7 12.8 27.1 12.8 27.1 5.5 26.25 5.5 26.25 4.2 M33.4 5.75 L32.85 5.5 Q32.5 5.5 32.3 5.75 L32.0 6.35 31.95 7.05 31.95 7.7 33.85 7.7 33.8 7.05 33.7 6.35 33.4 5.75 M34.25 4.55 L35.05 5.65 35.4 7.1 35.45 8.55 35.45 8.8 31.95 8.8 31.95 9.55 32.05 10.45 32.35 11.2 Q32.55 11.5 32.95 11.5 L33.55 11.25 33.85 10.65 33.95 9.9 35.4 9.9 35.15 11.4 34.35 12.5 Q33.8 12.9 32.9 12.95 L31.5 12.5 30.7 11.45 30.35 10.0 30.3 8.55 30.35 7.15 Q30.45 6.35 30.7 5.65 30.95 4.95 31.45 4.55 32.0 4.1 32.85 4.1 33.75 4.1 34.25 4.55 M38.3 5.25 L38.35 5.25 39.05 4.4 40.15 4.1 40.15 5.65 39.9 5.65 Q39.0 5.65 38.65 6.1 38.3 6.55 38.3 7.4 L38.3 12.8 36.7 12.8 36.7 4.2 38.3 4.2 38.3 5.25" fill="#000000" fill-rule="evenodd" stroke="none"/>
    </g>
  </defs>
</svg>
