<?xml version="1.0" encoding="UTF-8" standalone="no"?>
<svg xmlns:ffdec="https://www.free-decompiler.com/flash" xmlns:xlink="http://www.w3.org/1999/xlink" ffdec:objectType="frame" height="26.05px" width="52.95px" xmlns="http://www.w3.org/2000/svg">
  <g transform="matrix(1.0, 0.0, 0.0, 1.0, 0.0, 0.0)">
    <use ffdec:characterId="88" height="26.0" transform="matrix(1.0, 0.0, 0.0, 1.0, 0.0, 0.0)" width="52.95" xlink:href="#shape0"/>
    <use ffdec:characterId="90" height="14.25" transform="matrix(1.0, 0.0, 0.0, 1.0, 11.35, 5.9)" width="31.85" xlink:href="#shape1"/>
    <use ffdec:characterId="90" height="14.25" transform="matrix(1.0, 0.0, 0.0, 1.0, 10.55, 5.3)" width="31.85" xlink:href="#shape1"/>
  </g>
  <defs>
    <g id="shape0" transform="matrix(1.0, 0.0, 0.0, 1.0, 0.0, 0.0)">
      <path d="M3.2 1.8 L49.8 1.8 Q49.95 1.8 50.05 1.85 50.2 1.85 50.35 1.9 50.45 1.95 50.55 2.05 50.65 2.1 50.75 2.2 50.85 2.3 50.95 2.4 51.0 2.5 51.05 2.65 51.1 2.75 51.15 2.9 51.15 3.05 51.15 3.2 L51.15 22.8 Q51.15 22.95 51.15 23.1 51.1 23.2 51.05 23.35 51.0 23.45 50.9 23.6 50.85 23.7 50.75 23.8 50.65 23.9 50.55 23.95 50.45 24.05 50.3 24.1 50.2 24.15 50.05 24.15 49.9 24.2 49.8 24.2 L3.2 24.2 Q3.05 24.2 2.9 24.15 2.8 24.15 2.65 24.1 2.55 24.05 2.4 23.95 2.3 23.9 2.2 23.8 2.1 23.7 2.05 23.6 1.95 23.5 1.9 23.35 1.85 23.25 1.85 23.1 1.8 22.95 1.8 22.8 L1.8 3.2 Q1.8 3.05 1.85 2.9 1.85 2.8 1.9 2.65 1.95 2.55 2.05 2.4 2.1 2.3 2.2 2.2 2.3 2.1 2.4 2.05 2.5 1.95 2.65 1.9 2.75 1.85 2.9 1.85 3.05 1.8 3.2 1.8 L3.2 1.8" fill="#000000" fill-rule="evenodd" stroke="none"/>
      <path d="M3.2 1.3 Q3.0 1.3 2.8 1.35 2.65 1.4 2.45 1.45 2.3 1.5 2.15 1.6 2.0 1.75 1.85 1.85 1.75 2.0 1.6 2.15 1.5 2.3 1.45 2.45 1.4 2.65 1.35 2.8 1.3 3.0 1.3 3.2 L1.3 22.8 Q1.3 23.0 1.35 23.2 1.4 23.35 1.45 23.55 1.5 23.7 1.6 23.85 1.75 24.0 1.85 24.15 2.0 24.25 2.15 24.35 2.3 24.5 2.45 24.55 2.6 24.6 2.8 24.65 3.0 24.7 3.2 24.7 L49.8 24.7 Q50.0 24.7 50.15 24.65 50.35 24.6 50.5 24.55 50.7 24.5 50.85 24.4 51.0 24.25 51.1 24.15 51.25 24.0 51.35 23.85 51.45 23.7 51.5 23.55 51.6 23.35 51.6 23.2 51.65 23.0 51.65 22.8 L51.65 3.2 Q51.65 3.0 51.6 2.8 51.6 2.65 51.5 2.45 51.45 2.3 51.35 2.15 51.25 2.0 51.1 1.85 51.0 1.75 50.85 1.65 50.7 1.5 50.5 1.45 50.35 1.4 50.15 1.35 49.95 1.3 49.8 1.3 L3.2 1.3 M3.2 2.3 L49.8 2.3 Q49.9 2.3 49.95 2.3 50.05 2.35 50.15 2.35 50.2 2.4 50.3 2.45 50.35 2.5 50.4 2.55 50.45 2.6 50.5 2.7 50.55 2.75 50.6 2.85 50.65 2.9 50.65 3.0 50.65 3.1 50.65 3.2 L50.65 22.8 Q50.65 22.9 50.65 23.0 50.6 23.05 50.6 23.15 50.55 23.25 50.5 23.3 50.45 23.4 50.4 23.45 50.35 23.5 50.25 23.55 50.2 23.6 50.1 23.65 50.05 23.65 49.95 23.7 49.85 23.7 49.8 23.7 L3.2 23.7 Q3.1 23.7 3.0 23.7 2.9 23.65 2.85 23.65 2.75 23.6 2.7 23.55 2.6 23.5 2.55 23.45 2.5 23.4 2.45 23.3 2.4 23.25 2.35 23.15 2.35 23.1 2.3 23.0 2.3 22.9 2.3 22.8 L2.3 3.2 Q2.3 3.1 2.3 3.0 2.35 2.95 2.35 2.85 2.4 2.75 2.45 2.7 2.5 2.6 2.55 2.55 2.6 2.5 2.7 2.45 2.75 2.4 2.85 2.35 2.9 2.35 3.0 2.3 3.1 2.3 3.2 2.3 L3.2 2.3" fill="#ffffff" fill-rule="evenodd" stroke="none"/>
    </g>
    <g id="shape1" transform="matrix(1.0, 0.0, 0.0, 1.0, 0.0, 0.0)">
      <path d="M3.85 1.2 Q4.3 1.3 4.7 1.55 L4.7 3.25 4.0 2.85 3.25 2.7 Q2.55 2.75 2.15 3.2 1.75 3.65 1.75 4.35 L1.85 5.1 2.2 5.75 3.5 7.15 4.45 8.25 5.1 9.45 5.3 10.9 Q5.3 11.85 4.95 12.6 L3.9 13.8 2.3 14.25 1.3 14.1 0.45 13.65 0.45 11.95 1.2 12.4 2.1 12.6 2.95 12.35 3.45 11.7 3.6 10.8 Q3.6 10.05 3.25 9.5 L2.35 8.45 1.3 7.4 0.4 6.1 Q0.05 5.4 0.0 4.4 0.0 3.5 0.35 2.75 0.65 2.0 1.3 1.55 1.95 1.1 2.9 1.1 L3.85 1.2 M7.35 5.85 Q7.85 5.4 8.75 5.4 L9.4 5.45 10.0 5.65 10.0 7.3 9.7 7.0 9.25 6.85 Q8.7 6.9 8.45 7.2 8.15 7.5 8.0 7.95 L7.85 8.9 7.85 9.75 7.85 10.55 8.0 11.55 8.4 12.4 Q8.7 12.75 9.2 12.75 L9.65 12.65 10.0 12.4 10.0 13.9 9.4 14.15 8.7 14.25 Q7.9 14.2 7.4 13.8 6.85 13.35 6.6 12.7 L6.25 11.3 6.2 9.9 6.25 8.45 Q6.35 7.65 6.6 6.95 6.85 6.25 7.35 5.85 M11.2 5.5 L12.8 5.5 12.8 6.55 12.85 6.55 13.55 5.7 Q14.0 5.4 14.65 5.4 L14.65 6.95 14.4 6.95 Q13.5 6.95 13.15 7.4 12.8 7.85 12.8 8.7 L12.8 14.1 11.2 14.1 11.2 5.5 M20.6 12.6 L20.6 14.1 16.05 14.1 16.05 1.3 17.75 1.3 17.75 12.6 20.6 12.6 M24.35 5.45 L24.95 5.65 24.95 7.3 24.65 7.0 24.2 6.85 Q23.65 6.9 23.4 7.2 23.1 7.5 22.95 7.95 L22.8 8.9 22.8 9.75 22.8 10.55 22.95 11.55 23.35 12.4 24.15 12.75 24.6 12.65 24.95 12.4 24.95 13.9 24.35 14.15 23.65 14.25 Q22.85 14.2 22.35 13.8 21.8 13.35 21.55 12.7 21.3 12.05 21.2 11.3 L21.15 9.9 21.2 8.45 Q21.3 7.65 21.55 6.95 21.8 6.25 22.3 5.85 22.8 5.4 23.7 5.4 L24.35 5.45 M26.15 0.0 L27.75 0.0 27.75 9.3 27.8 9.3 29.75 5.5 31.55 5.5 29.35 9.3 31.85 14.1 30.0 14.1 27.8 9.55 27.75 9.55 27.75 14.1 26.15 14.1 26.15 0.0" fill="#000000" fill-rule="evenodd" stroke="none"/>
    </g>
  </defs>
</svg>
