<?xml version="1.0" encoding="UTF-8" standalone="no"?>
<svg xmlns:ffdec="https://www.free-decompiler.com/flash" xmlns:xlink="http://www.w3.org/1999/xlink" ffdec:objectType="shape" height="13.15px" width="23.95px" xmlns="http://www.w3.org/2000/svg">
  <g transform="matrix(1.0, 0.0, 0.0, 1.0, 0.0, 0.0)">
    <path d="M4.7 0.45 L4.7 2.15 4.0 1.75 3.25 1.6 Q2.55 1.65 2.15 2.1 1.75 2.55 1.75 3.25 L1.85 4.0 2.2 4.65 3.5 6.05 4.45 7.15 5.1 8.35 5.3 9.8 Q5.3 10.75 4.95 11.5 L3.9 12.7 2.3 13.15 1.3 13.0 0.45 12.55 0.45 10.85 1.2 11.3 2.1 11.5 2.95 11.25 3.45 10.6 3.6 9.7 Q3.6 8.95 3.25 8.4 L2.35 7.35 1.3 6.3 0.4 5.0 Q0.05 4.3 0.0 3.3 0.0 2.4 0.35 1.65 0.65 0.9 1.3 0.45 1.95 0.0 2.9 0.0 L3.85 0.1 Q4.3 0.2 4.7 0.45 M6.75 5.7 L5.9 5.7 5.9 4.4 6.75 4.4 6.75 2.0 8.35 2.0 8.35 4.4 9.2 4.4 9.2 5.7 8.35 5.7 8.35 13.0 6.75 13.0 6.75 5.7 M12.0 4.3 L12.95 4.6 13.55 5.35 13.6 5.35 13.6 4.4 15.2 4.4 15.2 13.0 13.6 13.0 13.6 11.9 13.55 11.9 13.0 12.8 11.95 13.15 Q11.25 13.1 10.8 12.65 L10.2 11.4 10.0 9.9 9.95 8.6 10.0 7.3 10.2 5.9 Q10.4 5.2 10.85 4.75 11.25 4.3 12.0 4.3 M13.25 6.1 Q13.0 5.75 12.65 5.7 12.2 5.75 11.95 6.1 L11.65 6.95 11.6 7.95 11.6 8.7 11.6 9.45 11.65 10.45 11.95 11.35 Q12.2 11.7 12.65 11.7 L13.25 11.35 13.55 10.45 13.65 9.45 13.65 8.7 13.65 7.95 13.55 6.95 13.25 6.1 M18.3 5.45 L19.0 4.6 Q19.45 4.3 20.1 4.3 L20.1 5.85 19.85 5.85 Q18.95 5.85 18.6 6.3 18.25 6.75 18.25 7.6 L18.25 13.0 16.65 13.0 16.65 4.4 18.25 4.4 18.25 5.45 18.3 5.45 M21.5 5.7 L20.65 5.7 20.65 4.4 21.5 4.4 21.5 2.0 23.1 2.0 23.1 4.4 23.95 4.4 23.95 5.7 23.1 5.7 23.1 13.0 21.5 13.0 21.5 5.7" fill="#cccccc" fill-rule="evenodd" stroke="none"/>
  </g>
</svg>
