<?xml version="1.0" encoding="UTF-8" standalone="no"?>
<svg xmlns:ffdec="https://www.free-decompiler.com/flash" xmlns:xlink="http://www.w3.org/1999/xlink" ffdec:objectType="shape" height="12.95px" width="5.5px" xmlns="http://www.w3.org/2000/svg">
  <g transform="matrix(1.0, 0.0, 0.0, 1.0, 0.0, 0.0)">
    <path d="M1.75 9.65 L1.85 10.45 2.15 11.15 Q2.4 11.4 2.75 11.45 3.15 11.4 3.35 11.15 L3.65 10.45 3.75 9.65 3.75 8.95 3.75 8.25 3.65 7.4 3.35 6.7 Q3.15 6.45 2.75 6.45 L2.5 6.45 Q2.35 6.5 2.15 6.7 L1.85 7.45 Q1.7 8.0 1.7 8.95 L1.75 9.65 M2.6 0.0 L4.4 0.0 1.9 5.45 1.95 5.5 2.55 5.05 3.25 4.9 Q4.05 4.95 4.5 5.3 4.95 5.7 5.2 6.35 L5.45 7.65 5.5 8.95 5.35 10.85 Q5.15 11.75 4.6 12.35 4.0 12.95 2.75 12.95 1.8 12.95 1.25 12.55 L0.4 11.55 0.05 10.15 0.0 8.6 0.2 6.25 Q0.4 5.15 0.75 4.15 L1.55 2.15 2.6 0.0" fill="#cccccc" fill-rule="evenodd" stroke="none"/>
  </g>
</svg>
