<?xml version="1.0" encoding="UTF-8" standalone="no"?>
<svg xmlns:ffdec="https://www.free-decompiler.com/flash" xmlns:xlink="http://www.w3.org/1999/xlink" ffdec:objectType="frame" height="26.55px" width="70.8px" xmlns="http://www.w3.org/2000/svg">
  <g transform="matrix(1.0, 0.0, 0.0, 1.0, 0.2, 0.4)">
    <use ffdec:characterId="3" height="26.0" transform="matrix(1.0, 0.0, 0.0, 1.0, 0.0, 0.0)" width="26.0" xlink:href="#shape0"/>
    <use ffdec:characterId="20" height="26.0" transform="matrix(1.0, 0.0, 0.0, 1.0, 0.0, 0.0)" width="26.0" xlink:href="#shape1"/>
    <use ffdec:characterId="20" height="26.0" transform="matrix(1.0, 0.0, 0.0, 1.0, 0.0, 0.0)" width="26.0" xlink:href="#shape1"/>
    <use ffdec:characterId="21" height="26.0" transform="matrix(1.0, 0.0, 0.0, 1.0, 0.0, 0.0)" width="26.0" xlink:href="#shape2"/>
    <use ffdec:characterId="21" height="26.0" transform="matrix(1.0, 0.0, 0.0, 1.0, 0.0, 0.0)" width="26.0" xlink:href="#shape2"/>
  </g>
  <defs>
    <g id="shape0" transform="matrix(1.0, 0.0, 0.0, 1.0, 0.0, 0.0)">
      <path d="M23.5 2.45 Q23.5 2.5 23.5 2.5 23.5 2.55 23.5 2.55 23.5 2.55 23.5 2.55 23.5 2.6 23.5 2.6 L23.5 4.05 22.85 3.8 23.5 4.5 23.5 5.25 22.95 5.25 23.5 6.45 23.5 7.1 23.3 8.15 23.5 7.8 23.5 9.55 22.85 9.85 23.15 10.05 23.75 9.8 23.75 8.05 23.5 8.4 23.75 7.35 23.75 6.7 23.2 5.5 23.75 5.5 23.75 4.75 23.1 4.05 23.75 4.3 23.75 2.85 Q23.75 2.8 23.75 2.8 23.75 2.7 23.75 2.65 23.75 2.55 23.7 2.55 23.7 2.5 23.65 2.5 23.6 2.5 23.5 2.45 L23.5 2.45 M23.5 10.4 L23.5 22.5 23.5 23.15 Q23.5 23.4 23.5 23.4 23.45 23.5 23.4 23.5 23.35 23.5 23.15 23.5 L22.5 23.5 21.85 23.5 20.95 23.5 21.0 23.75 22.1 23.75 22.75 23.75 23.4 23.75 Q23.65 23.75 23.7 23.75 23.75 23.7 23.75 23.4 L23.75 22.75 23.75 10.55 23.5 10.4 M20.7 22.75 L19.95 23.5 16.1 23.5 15.25 23.05 15.2 23.5 14.15 23.5 13.9 23.5 12.75 23.4 12.05 23.5 10.85 23.5 10.7 23.3 10.2 23.55 9.7 23.5 8.85 23.25 8.4 23.5 7.5 23.5 7.25 23.35 6.45 23.5 5.85 23.5 5.2 23.5 4.55 23.5 3.95 23.45 3.25 23.5 2.85 23.5 Q2.85 23.55 2.85 23.6 2.85 23.65 2.85 23.7 2.8 23.7 2.8 23.75 2.85 23.75 2.85 23.75 2.85 23.75 2.85 23.75 L3.5 23.75 4.2 23.7 4.8 23.75 5.45 23.75 6.05 23.75 6.7 23.75 7.45 23.6 7.75 23.75 8.65 23.75 9.1 23.5 9.9 23.75 10.45 23.8 10.95 23.55 11.1 23.75 12.3 23.75 13.0 23.65 14.1 23.75 14.4 23.75 15.4 23.75 15.5 23.3 16.35 23.75 20.15 23.75 20.75 23.2 20.7 22.75" fill="#ffffff" fill-rule="evenodd" stroke="none"/>
      <path d="M2.6 2.2 L5.95 2.2 6.2 2.65 6.5 2.4 7.75 2.2 13.5 2.2 13.7 2.7 14.15 2.2 15.45 2.2 16.65 2.2 17.15 2.65 17.35 2.2 18.0 2.2 23.15 2.2 Q23.35 2.2 23.4 2.25 23.45 2.25 23.5 2.35 23.5 2.4 23.5 2.55 23.5 2.55 23.5 2.6 L23.5 4.05 22.85 3.8 23.5 4.5 23.5 5.25 22.95 5.25 23.5 6.45 23.5 7.1 23.3 8.15 23.5 7.8 23.5 9.55 22.85 9.85 23.5 10.3 23.5 22.5 23.5 23.15 Q23.5 23.4 23.5 23.4 23.45 23.5 23.4 23.5 23.35 23.5 23.15 23.5 L22.5 23.5 21.85 23.5 20.75 23.5 20.7 22.75 19.95 23.5 16.1 23.5 15.25 23.05 15.2 23.5 14.15 23.5 13.9 23.5 12.75 23.4 12.05 23.5 10.85 23.5 10.7 23.3 10.2 23.55 9.7 23.5 8.85 23.25 8.4 23.5 7.5 23.5 7.25 23.35 6.45 23.5 5.85 23.5 5.2 23.5 4.55 23.5 3.95 23.45 3.25 23.5 2.6 23.5 Q2.6 23.5 2.6 23.5 2.6 23.5 2.6 23.5 2.4 23.5 2.35 23.5 2.3 23.5 2.25 23.45 2.25 23.4 2.25 23.2 2.25 23.2 2.25 23.2 2.25 23.2 2.25 23.2 2.25 23.15 2.25 23.15 L2.25 17.7 3.05 17.5 2.25 16.75 2.25 16.1 2.25 15.45 2.25 14.45 2.65 14.15 2.25 13.9 2.25 10.65 2.65 10.45 2.25 9.9 2.25 9.0 2.25 8.35 2.25 7.7 2.75 7.2 2.25 6.85 2.25 2.6 Q2.25 2.55 2.25 2.55 2.25 2.4 2.25 2.35 2.3 2.25 2.35 2.25 2.4 2.2 2.55 2.2 2.55 2.2 2.6 2.2 2.6 2.2 2.6 2.2 2.6 2.2 2.6 2.2 L2.6 2.2" fill="#000000" fill-rule="evenodd" stroke="none"/>
    </g>
    <g id="shape1" transform="matrix(1.0, 0.0, 0.0, 1.0, 0.0, 0.0)">
      <path d="M4.9 4.65 Q5.1 4.7 5.25 4.75 5.4 4.85 5.5 4.95 5.6 5.05 5.65 5.15 5.75 5.25 5.75 5.35 5.8 5.45 5.8 5.6 5.8 5.65 5.8 5.75 5.8 5.85 5.8 5.9 5.8 5.9 5.8 5.95 5.45 6.85 5.3 7.8 5.2 8.65 5.25 9.5 5.3 10.25 5.5 11.0 5.7 11.65 6.0 12.3 6.25 12.8 6.55 13.35 6.85 13.75 7.1 14.1 7.35 14.4 7.55 14.6 7.6 14.7 7.7 14.8 7.2 14.1 6.9 13.35 6.6 12.65 6.5 11.9 6.4 11.2 6.4 10.45 6.45 9.8 6.55 9.15 6.7 8.55 6.85 8.0 7.0 7.55 7.2 7.1 7.3 6.8 7.45 6.5 7.5 6.4 7.55 6.3 L6.95 5.85 7.0 5.65 8.35 5.65 8.35 4.65 4.9 4.65" fill="#f1edf8" fill-rule="evenodd" stroke="none"/>
    </g>
    <g id="shape2" transform="matrix(1.0, 0.0, 0.0, 1.0, 0.0, 0.0)">
      <path d="M14.35 21.7 Q14.95 21.7 15.35 21.65 15.9 21.65 16.35 21.55 16.9 21.45 17.35 21.3 17.85 21.15 18.3 20.9 18.75 20.6 19.15 20.25 19.55 19.85 19.9 19.3 20.25 18.75 20.55 18.05 20.85 17.3 21.05 16.4 21.3 15.3 21.4 14.3 21.5 13.35 21.4 12.5 21.35 11.7 21.2 11.05 21.0 10.35 20.7 9.85 20.4 9.3 19.95 8.95 19.55 8.55 19.1 8.3 18.6 8.1 18.05 8.0 17.45 7.9 16.85 8.0 16.4 8.05 15.95 8.2 15.55 8.35 15.15 8.6 14.75 8.85 14.4 9.2 14.05 9.5 13.8 9.9 13.5 10.3 13.3 10.75 13.1 11.2 12.95 11.7 12.85 12.2 12.8 12.7 12.75 13.2 12.8 13.7 12.85 14.0 12.95 14.3 13.1 14.6 13.3 14.9 13.55 15.2 13.85 15.5 14.2 15.75 14.6 16.0 15.05 16.2 15.5 16.3 16.05 16.45 16.65 16.4 17.25 16.4 17.9 16.2 18.6 16.05 19.35 15.7 19.35 15.7 19.3 15.85 19.2 16.0 19.15 16.2 19.0 16.45 18.85 16.7 18.7 17.0 18.5 17.3 18.3 17.65 18.1 17.95 17.9 18.25 17.65 18.55 17.4 18.85 17.15 19.05 16.9 19.25 16.65 19.35 16.3 19.5 16.0 19.6 15.75 19.65 15.5 19.7 15.25 19.7 15.1 19.7 14.9 19.65 14.75 19.6 14.65 19.55 14.5 19.5 14.4 19.4 14.35 19.3 14.3 19.25 14.2 19.2 14.15 19.1 14.1 19.1 14.05 19.05 14.0 19.05 13.9 19.0 13.8 19.0 13.7 19.0 13.6 19.0 13.5 19.05 13.4 19.05 13.25 19.1 13.2 19.15 13.1 19.25 13.0 19.3 12.95 19.4 12.95 19.5 12.9 19.65 12.95 19.8 13.0 20.0 12.95 20.2 12.95 20.35 12.85 20.55 12.85 20.55 12.7 20.85 12.6 21.05 12.6 21.15 12.55 21.25 12.6 21.35 12.7 21.45 12.85 21.55 13.05 21.6 13.4 21.65 13.8 21.7 14.35 21.7 L14.35 21.7 M15.0 12.6 Q15.0 12.35 15.1 12.05 15.15 11.8 15.25 11.5 15.35 11.25 15.5 11.0 15.65 10.75 15.85 10.55 16.05 10.3 16.25 10.2 16.5 10.0 16.75 9.95 17.05 9.9 17.35 9.9 17.65 9.95 17.95 10.05 18.25 10.15 18.45 10.4 18.7 10.6 18.85 10.85 19.0 11.1 19.15 11.45 19.25 11.7 19.3 12.05 19.4 12.3 19.4 12.65 19.45 12.85 19.45 13.1 19.5 13.3 19.5 13.45 19.5 13.5 19.5 13.6 19.15 13.8 18.8 13.95 18.4 14.05 18.0 14.15 17.65 14.25 17.25 14.3 16.85 14.3 16.55 14.25 16.15 14.2 15.9 14.1 15.6 14.0 15.4 13.8 15.2 13.6 15.1 13.3 15.0 13.0 15.0 12.6 L15.0 12.6" fill="#f1edf8" fill-rule="evenodd" stroke="none"/>
    </g>
  </defs>
</svg>
