<?xml version="1.0" encoding="UTF-8" standalone="no"?>
<svg xmlns:ffdec="https://www.free-decompiler.com/flash" xmlns:xlink="http://www.w3.org/1999/xlink" ffdec:objectType="frame" height="26.55px" width="70.8px" xmlns="http://www.w3.org/2000/svg">
  <g transform="matrix(1.0, 0.0, 0.0, 1.0, 0.2, 0.4)">
    <use ffdec:characterId="3" height="26.0" transform="matrix(1.0, 0.0, 0.0, 1.0, 0.0, 0.0)" width="26.0" xlink:href="#shape0"/>
    <use ffdec:characterId="22" height="26.0" transform="matrix(1.0, 0.0, 0.0, 1.0, 0.0, 0.0)" width="26.0" xlink:href="#shape1"/>
    <use ffdec:characterId="22" height="26.0" transform="matrix(1.0, 0.0, 0.0, 1.0, 0.0, 0.0)" width="26.0" xlink:href="#shape1"/>
    <use ffdec:characterId="23" height="26.0" transform="matrix(1.0, 0.0, 0.0, 1.0, 0.0, 0.0)" width="26.0" xlink:href="#shape2"/>
    <use ffdec:characterId="23" height="26.0" transform="matrix(1.0, 0.0, 0.0, 1.0, 0.0, 0.0)" width="26.0" xlink:href="#shape2"/>
  </g>
  <defs>
    <g id="shape0" transform="matrix(1.0, 0.0, 0.0, 1.0, 0.0, 0.0)">
      <path d="M23.5 2.45 Q23.5 2.5 23.5 2.5 23.5 2.55 23.5 2.55 23.5 2.55 23.5 2.55 23.5 2.6 23.5 2.6 L23.5 4.05 22.85 3.8 23.5 4.5 23.5 5.25 22.95 5.25 23.5 6.45 23.5 7.1 23.3 8.15 23.5 7.8 23.5 9.55 22.85 9.85 23.15 10.05 23.75 9.8 23.75 8.05 23.5 8.4 23.75 7.35 23.75 6.7 23.2 5.5 23.75 5.5 23.75 4.75 23.1 4.05 23.75 4.3 23.75 2.85 Q23.75 2.8 23.75 2.8 23.75 2.7 23.75 2.65 23.75 2.55 23.7 2.55 23.7 2.5 23.65 2.5 23.6 2.5 23.5 2.45 L23.5 2.45 M23.5 10.4 L23.5 22.5 23.5 23.15 Q23.5 23.4 23.5 23.4 23.45 23.5 23.4 23.5 23.35 23.5 23.15 23.5 L22.5 23.5 21.85 23.5 20.95 23.5 21.0 23.75 22.1 23.75 22.75 23.75 23.4 23.75 Q23.65 23.75 23.7 23.75 23.75 23.7 23.75 23.4 L23.75 22.75 23.75 10.55 23.5 10.4 M20.7 22.75 L19.95 23.5 16.1 23.5 15.25 23.05 15.2 23.5 14.15 23.5 13.9 23.5 12.75 23.4 12.05 23.5 10.85 23.5 10.7 23.3 10.2 23.55 9.7 23.5 8.85 23.25 8.4 23.5 7.5 23.5 7.25 23.35 6.45 23.5 5.85 23.5 5.2 23.5 4.55 23.5 3.95 23.45 3.25 23.5 2.85 23.5 Q2.85 23.55 2.85 23.6 2.85 23.65 2.85 23.7 2.8 23.7 2.8 23.75 2.85 23.75 2.85 23.75 2.85 23.75 2.85 23.75 L3.5 23.75 4.2 23.7 4.8 23.75 5.45 23.75 6.05 23.75 6.7 23.75 7.45 23.6 7.75 23.75 8.65 23.75 9.1 23.5 9.9 23.75 10.45 23.8 10.95 23.55 11.1 23.75 12.3 23.75 13.0 23.65 14.1 23.75 14.4 23.75 15.4 23.75 15.5 23.3 16.35 23.75 20.15 23.75 20.75 23.2 20.7 22.75" fill="#ffffff" fill-rule="evenodd" stroke="none"/>
      <path d="M2.6 2.2 L5.95 2.2 6.2 2.65 6.5 2.4 7.75 2.2 13.5 2.2 13.7 2.7 14.15 2.2 15.45 2.2 16.65 2.2 17.15 2.65 17.35 2.2 18.0 2.2 23.15 2.2 Q23.35 2.2 23.4 2.25 23.45 2.25 23.5 2.35 23.5 2.4 23.5 2.55 23.5 2.55 23.5 2.6 L23.5 4.05 22.85 3.8 23.5 4.5 23.5 5.25 22.95 5.25 23.5 6.45 23.5 7.1 23.3 8.15 23.5 7.8 23.5 9.55 22.85 9.85 23.5 10.3 23.5 22.5 23.5 23.15 Q23.5 23.4 23.5 23.4 23.45 23.5 23.4 23.5 23.35 23.5 23.15 23.5 L22.5 23.5 21.85 23.5 20.75 23.5 20.7 22.75 19.95 23.5 16.1 23.5 15.25 23.05 15.2 23.5 14.15 23.5 13.9 23.5 12.75 23.4 12.05 23.5 10.85 23.5 10.7 23.3 10.2 23.55 9.7 23.5 8.85 23.25 8.4 23.5 7.5 23.5 7.25 23.35 6.45 23.5 5.85 23.5 5.2 23.5 4.55 23.5 3.95 23.45 3.25 23.5 2.6 23.5 Q2.6 23.5 2.6 23.5 2.6 23.5 2.6 23.5 2.4 23.5 2.35 23.5 2.3 23.5 2.25 23.45 2.25 23.4 2.25 23.2 2.25 23.2 2.25 23.2 2.25 23.2 2.25 23.2 2.25 23.15 2.25 23.15 L2.25 17.7 3.05 17.5 2.25 16.75 2.25 16.1 2.25 15.45 2.25 14.45 2.65 14.15 2.25 13.9 2.25 10.65 2.65 10.45 2.25 9.9 2.25 9.0 2.25 8.35 2.25 7.7 2.75 7.2 2.25 6.85 2.25 2.6 Q2.25 2.55 2.25 2.55 2.25 2.4 2.25 2.35 2.3 2.25 2.35 2.25 2.4 2.2 2.55 2.2 2.55 2.2 2.6 2.2 2.6 2.2 2.6 2.2 2.6 2.2 2.6 2.2 L2.6 2.2" fill="#000000" fill-rule="evenodd" stroke="none"/>
    </g>
    <g id="shape1" transform="matrix(1.0, 0.0, 0.0, 1.0, 0.0, 0.0)">
      <path d="M5.0 5.15 Q5.5 5.35 5.85 5.7 6.2 6.05 6.45 6.5 6.7 6.9 6.8 7.4 6.95 7.85 7.0 8.4 7.05 8.8 7.05 9.3 7.1 9.65 7.05 10.05 7.05 10.35 7.0 10.6 7.0 10.7 7.0 10.8 7.0 11.15 6.9 11.5 6.85 11.8 6.7 12.2 6.6 12.5 6.5 12.85 6.4 13.15 6.25 13.45 6.15 13.75 6.0 14.0 5.9 14.2 5.8 14.4 5.7 14.55 5.65 14.7 5.6 14.75 5.6 14.8 6.15 14.45 6.55 14.05 6.95 13.65 7.3 13.2 7.6 12.75 7.8 12.3 8.0 11.85 8.15 11.4 8.3 11.05 8.35 10.65 8.4 10.3 8.45 10.0 8.5 9.8 8.5 9.6 8.5 9.5 8.5 9.4 8.5 8.9 8.45 8.4 8.4 8.0 8.35 7.6 8.3 7.2 8.2 6.9 8.15 6.6 8.05 6.3 7.95 6.1 7.85 5.85 7.8 5.7 7.7 5.55 7.65 5.45 7.6 5.4 7.6 5.35 7.55 5.3 L7.55 5.3 Q7.55 5.2 7.6 5.15 7.65 5.05 7.7 4.95 7.8 4.85 7.9 4.75 7.95 4.65 8.05 4.55 8.15 4.5 8.25 4.4 8.35 4.35 8.45 4.25 8.5 4.25 8.55 4.2 8.55 4.15 8.6 4.15 L5.0 4.15 5.0 5.15" fill="#f1edf8" fill-rule="evenodd" stroke="none"/>
    </g>
    <g id="shape2" transform="matrix(1.0, 0.0, 0.0, 1.0, 0.0, 0.0)">
      <path d="M21.45 12.55 Q21.25 11.9 21.25 11.85 21.1 11.4 21.0 11.05 20.85 10.65 20.65 10.25 20.45 9.85 20.2 9.5 19.95 9.1 19.6 8.8 19.25 8.5 18.85 8.25 18.4 8.0 17.85 7.9 17.3 7.75 16.65 7.75 15.9 7.75 15.3 8.0 14.7 8.2 14.2 8.6 13.75 9.0 13.35 9.55 13.0 10.05 12.75 10.65 12.5 11.15 12.3 11.8 12.15 12.3 12.05 12.85 11.95 13.35 11.9 13.75 11.85 14.15 11.85 14.4 11.9 18.8 11.85 15.05 11.85 15.55 11.9 16.0 11.95 16.65 12.05 17.2 12.15 17.85 12.35 18.45 12.6 19.1 12.95 19.65 13.3 20.25 13.8 20.65 14.35 21.1 15.0 21.35 15.75 21.65 16.7 21.65 17.6 21.65 18.35 21.3 19.05 21.05 19.65 20.45 20.15 19.95 20.55 19.2 20.9 18.55 21.15 17.75 21.35 17.0 21.5 16.2 21.6 15.45 21.6 14.7 21.65 14.0 21.6 13.4 21.55 12.9 21.45 12.55 L21.45 12.55 M19.0 18.35 Q18.85 18.7 18.65 18.95 18.4 19.25 18.1 19.45 17.85 19.6 17.5 19.75 17.15 19.85 16.8 19.85 16.45 19.85 16.1 19.8 15.75 19.7 15.45 19.55 15.15 19.4 14.9 19.15 14.65 18.9 14.45 18.55 14.25 18.2 14.1 17.75 14.0 17.3 13.9 16.8 13.85 16.35 13.8 15.85 13.8 15.35 13.8 14.85 13.8 14.4 13.85 13.9 13.9 13.4 13.95 12.95 14.0 12.55 14.1 12.1 14.2 11.75 14.25 11.4 14.4 10.95 14.6 10.65 14.85 10.3 15.15 10.05 15.45 9.85 15.85 9.75 16.15 9.6 16.55 9.6 16.9 9.55 17.25 9.65 17.6 9.75 17.95 9.9 18.25 10.05 18.5 10.3 18.75 10.6 18.85 10.9 19.05 11.35 19.2 11.8 19.3 12.25 19.4 12.7 19.55 13.15 19.6 13.6 19.65 14.05 19.65 14.55 19.7 15.0 19.65 15.45 19.6 15.95 19.55 16.4 19.45 16.9 19.35 17.4 19.2 17.85 19.0 18.35 L19.0 18.35" fill="#f1edf8" fill-rule="evenodd" stroke="none"/>
    </g>
  </defs>
</svg>
