<?xml version="1.0" encoding="UTF-8" standalone="no"?>
<svg xmlns:ffdec="https://www.free-decompiler.com/flash" xmlns:xlink="http://www.w3.org/1999/xlink" ffdec:objectType="frame" height="26.55px" width="70.8px" xmlns="http://www.w3.org/2000/svg">
  <g transform="matrix(1.0, 0.0, 0.0, 1.0, 0.2, 0.4)">
    <use ffdec:characterId="3" height="26.0" transform="matrix(1.0, 0.0, 0.0, 1.0, 0.0, 0.0)" width="26.0" xlink:href="#shape0"/>
    <use ffdec:characterId="25" height="26.0" transform="matrix(1.0, 0.0, 0.0, 1.0, 0.0, 0.0)" width="26.0" xlink:href="#shape1"/>
    <use ffdec:characterId="25" height="26.0" transform="matrix(1.0, 0.0, 0.0, 1.0, 0.0, 0.0)" width="26.0" xlink:href="#shape1"/>
    <use ffdec:characterId="26" height="26.0" transform="matrix(1.0, 0.0, 0.0, 1.0, 0.0, 0.0)" width="26.0" xlink:href="#shape2"/>
    <use ffdec:characterId="26" height="26.0" transform="matrix(1.0, 0.0, 0.0, 1.0, 0.0, 0.0)" width="26.0" xlink:href="#shape2"/>
  </g>
  <defs>
    <g id="shape0" transform="matrix(1.0, 0.0, 0.0, 1.0, 0.0, 0.0)">
      <path d="M23.5 2.45 Q23.5 2.5 23.5 2.5 23.5 2.55 23.5 2.55 23.5 2.55 23.5 2.55 23.5 2.6 23.5 2.6 L23.5 4.05 22.85 3.8 23.5 4.5 23.5 5.25 22.95 5.25 23.5 6.45 23.5 7.1 23.3 8.15 23.5 7.8 23.5 9.55 22.85 9.85 23.15 10.05 23.75 9.8 23.75 8.05 23.5 8.4 23.75 7.35 23.75 6.7 23.2 5.5 23.75 5.5 23.75 4.75 23.1 4.05 23.75 4.3 23.75 2.85 Q23.75 2.8 23.75 2.8 23.75 2.7 23.75 2.65 23.75 2.55 23.7 2.55 23.7 2.5 23.65 2.5 23.6 2.5 23.5 2.45 L23.5 2.45 M23.5 10.4 L23.5 22.5 23.5 23.15 Q23.5 23.4 23.5 23.4 23.45 23.5 23.4 23.5 23.35 23.5 23.15 23.5 L22.5 23.5 21.85 23.5 20.95 23.5 21.0 23.75 22.1 23.75 22.75 23.75 23.4 23.75 Q23.65 23.75 23.7 23.75 23.75 23.7 23.75 23.4 L23.75 22.75 23.75 10.55 23.5 10.4 M20.7 22.75 L19.95 23.5 16.1 23.5 15.25 23.05 15.2 23.5 14.15 23.5 13.9 23.5 12.75 23.4 12.05 23.5 10.85 23.5 10.7 23.3 10.2 23.55 9.7 23.5 8.85 23.25 8.4 23.5 7.5 23.5 7.25 23.35 6.45 23.5 5.85 23.5 5.2 23.5 4.55 23.5 3.95 23.45 3.25 23.5 2.85 23.5 Q2.85 23.55 2.85 23.6 2.85 23.65 2.85 23.7 2.8 23.7 2.8 23.75 2.85 23.75 2.85 23.75 2.85 23.75 2.85 23.75 L3.5 23.75 4.2 23.7 4.8 23.75 5.45 23.75 6.05 23.75 6.7 23.75 7.45 23.6 7.75 23.75 8.65 23.75 9.1 23.5 9.9 23.75 10.45 23.8 10.95 23.55 11.1 23.75 12.3 23.75 13.0 23.65 14.1 23.75 14.4 23.75 15.4 23.75 15.5 23.3 16.35 23.75 20.15 23.75 20.75 23.2 20.7 22.75" fill="#ffffff" fill-rule="evenodd" stroke="none"/>
      <path d="M2.6 2.2 L5.95 2.2 6.2 2.65 6.5 2.4 7.75 2.2 13.5 2.2 13.7 2.7 14.15 2.2 15.45 2.2 16.65 2.2 17.15 2.65 17.35 2.2 18.0 2.2 23.15 2.2 Q23.35 2.2 23.4 2.25 23.45 2.25 23.5 2.35 23.5 2.4 23.5 2.55 23.5 2.55 23.5 2.6 L23.5 4.05 22.85 3.8 23.5 4.5 23.5 5.25 22.95 5.25 23.5 6.45 23.5 7.1 23.3 8.15 23.5 7.8 23.5 9.55 22.85 9.85 23.5 10.3 23.5 22.5 23.5 23.15 Q23.5 23.4 23.5 23.4 23.45 23.5 23.4 23.5 23.35 23.5 23.15 23.5 L22.5 23.5 21.85 23.5 20.75 23.5 20.7 22.75 19.95 23.5 16.1 23.5 15.25 23.05 15.2 23.5 14.15 23.5 13.9 23.5 12.75 23.4 12.05 23.5 10.85 23.5 10.7 23.3 10.2 23.55 9.7 23.5 8.85 23.25 8.4 23.5 7.5 23.5 7.25 23.35 6.45 23.5 5.85 23.5 5.2 23.5 4.55 23.5 3.95 23.45 3.25 23.5 2.6 23.5 Q2.6 23.5 2.6 23.5 2.6 23.5 2.6 23.5 2.4 23.5 2.35 23.5 2.3 23.5 2.25 23.45 2.25 23.4 2.25 23.2 2.25 23.2 2.25 23.2 2.25 23.2 2.25 23.2 2.25 23.15 2.25 23.15 L2.25 17.7 3.05 17.5 2.25 16.75 2.25 16.1 2.25 15.45 2.25 14.45 2.65 14.15 2.25 13.9 2.25 10.65 2.65 10.45 2.25 9.9 2.25 9.0 2.25 8.35 2.25 7.7 2.75 7.2 2.25 6.85 2.25 2.6 Q2.25 2.55 2.25 2.55 2.25 2.4 2.25 2.35 2.3 2.25 2.35 2.25 2.4 2.2 2.55 2.2 2.55 2.2 2.6 2.2 2.6 2.2 2.6 2.2 2.6 2.2 2.6 2.2 L2.6 2.2" fill="#000000" fill-rule="evenodd" stroke="none"/>
    </g>
    <g id="shape1" transform="matrix(1.0, 0.0, 0.0, 1.0, 0.0, 0.0)">
      <path d="M5.4 10.1 Q5.4 10.1 6.25 10.05 7.3 10.0 8.1 9.95 8.1 10.2 8.1 10.4 8.05 10.7 8.05 10.9 8.0 11.2 8.0 11.45 8.0 11.7 7.95 11.95 7.9 12.2 7.9 12.4 7.85 12.65 7.8 12.85 7.75 13.05 7.7 13.25 7.65 13.4 7.6 13.55 7.6 13.55 7.65 13.55 7.55 13.55 7.8 13.55 7.95 13.6 8.05 13.6 8.2 13.6 8.35 13.6 8.5 13.6 8.65 13.6 8.85 13.55 9.0 13.55 9.15 13.5 9.3 13.45 9.45 13.4 9.6 13.35 9.6 13.35 9.65 12.25 9.7 10.45 9.7 9.95 9.9 9.95 10.15 9.95 10.35 9.95 10.6 9.95 10.8 9.95 11.05 10.0 11.25 10.0 11.5 10.0 11.7 10.05 11.9 10.05 12.1 10.1 12.3 10.1 12.5 10.15 12.65 10.2 12.8 10.2 12.95 10.25 12.95 10.25 12.95 10.2 13.0 10.15 13.0 10.05 13.05 9.95 13.1 9.85 13.1 9.75 13.15 9.6 13.15 9.45 13.2 9.3 13.2 9.15 13.2 9.0 13.2 8.85 13.15 8.75 13.1 8.6 13.0 8.45 13.0 8.45 12.0 8.45 10.45 8.45 9.75 8.45 9.75 8.05 9.75 7.7 9.8 7.35 9.8 7.0 9.8 6.7 9.8 6.4 9.8 6.05 9.8 5.8 9.8 5.55 9.8 5.35 9.75 5.1 9.75 4.95 9.75 4.8 9.7 4.75 9.7 4.65 9.65 4.65 8.8 5.2 8.0 5.7 8.0 5.7 8.0 5.75 8.0 5.75 8.0 5.9 8.0 6.05 8.05 6.15 8.05 6.35 8.05 6.5 8.05 6.7 8.05 6.9 8.1 7.15 8.1 7.4 8.1 7.65 8.1 7.9 8.1 8.15 8.1 8.45 7.75 8.45 7.4 8.45 7.05 8.45 6.75 8.45 6.4 8.45 6.1 8.45 5.8 8.5 5.55 8.5 5.25 8.5 5.05 8.5 4.8 8.55 4.65 8.55 4.5 8.55 4.45 8.6 4.35 8.6 4.35 8.65 4.85 9.4 5.4 10.1 L5.4 10.1" fill="#f1edf8" fill-rule="evenodd" stroke="none"/>
    </g>
    <g id="shape2" transform="matrix(1.0, 0.0, 0.0, 1.0, 0.0, 0.0)">
      <path d="M20.0 18.8 Q20.0 18.8 20.0 18.8 19.95 18.8 19.9 18.8 19.9 18.8 19.85 18.8 19.7 18.8 19.7 18.8 19.6 18.8 19.55 18.8 19.4 18.8 19.3 18.8 19.2 18.85 19.1 18.85 18.95 18.85 18.8 18.85 18.8 18.85 18.85 18.85 18.85 18.8 18.85 18.8 18.75 18.75 14.95 18.8 11.0 18.85 11.05 19.15 11.05 19.85 11.05 20.5 11.05 20.5 11.3 20.45 11.7 20.4 12.05 20.35 12.55 20.3 13.1 20.25 13.8 20.2 14.45 20.15 15.25 20.1 16.0 20.1 16.85 20.1 17.65 20.1 18.5 20.15 19.3 20.25 20.15 20.4 20.85 20.55 20.85 20.55 20.85 20.55 20.85 20.5 20.85 20.45 20.9 20.4 20.9 20.35 20.9 20.3 20.9 20.2 20.95 20.1 20.95 20.0 20.95 19.85 20.9 19.75 20.9 19.6 20.9 19.4 20.9 19.25 20.85 19.05 20.85 19.05 20.85 19.05 20.8 19.0 20.8 19.0 20.8 19.0 20.75 18.95 20.7 18.95 20.65 18.9 20.6 18.9 20.55 18.85 20.5 18.85 20.4 18.8 20.35 18.8 20.25 18.8 20.1 18.8 20.0 18.8 L20.0 18.8 M21.25 16.9 Q21.25 16.9 21.25 16.85 21.2 16.85 21.15 16.8 21.1 16.8 21.05 16.75 21.0 16.7 20.95 16.65 20.85 16.6 20.75 16.55 20.65 16.55 20.55 16.5 20.45 16.45 20.3 16.45 20.2 16.45 20.05 16.45 20.05 16.45 20.05 16.4 20.15 16.35 15.55 16.4 11.0 16.45 11.05 16.75 11.05 17.45 11.1 18.1 11.1 18.1 11.35 18.05 11.7 18.0 12.05 17.95 12.6 17.9 13.1 17.85 13.8 17.8 14.45 17.75 15.25 17.7 16.0 17.7 16.85 17.7 17.65 17.7 18.5 17.75 19.3 17.85 20.15 18.0 20.85 18.15 20.85 18.15 20.85 18.1 20.85 18.05 20.85 18.0 20.85 17.9 20.85 17.85 20.9 17.75 20.95 17.65 20.95 17.6 21.05 17.5 21.1 17.45 21.2 17.4 21.35 17.35 21.5 17.35 21.65 17.35 21.85 17.4 21.8 17.4 21.25 16.9 L21.25 16.9" fill="#f1edf8" fill-rule="evenodd" stroke="none"/>
    </g>
  </defs>
</svg>
