<?xml version="1.0" encoding="UTF-8" standalone="no"?>
<svg xmlns:ffdec="https://www.free-decompiler.com/flash" xmlns:xlink="http://www.w3.org/1999/xlink" ffdec:objectType="frame" height="26.55px" width="70.8px" xmlns="http://www.w3.org/2000/svg">
  <g transform="matrix(1.0, 0.0, 0.0, 1.0, 0.2, 0.4)">
    <use ffdec:characterId="3" height="26.0" transform="matrix(1.0, 0.0, 0.0, 1.0, 0.0, 0.0)" width="26.0" xlink:href="#shape0"/>
    <use ffdec:characterId="30" height="26.0" transform="matrix(1.0, 0.0, 0.0, 1.0, 0.0, 0.0)" width="26.0" xlink:href="#shape1"/>
    <use ffdec:characterId="30" height="26.0" transform="matrix(1.0, 0.0, 0.0, 1.0, 0.0, 0.0)" width="26.0" xlink:href="#shape1"/>
  </g>
  <defs>
    <g id="shape0" transform="matrix(1.0, 0.0, 0.0, 1.0, 0.0, 0.0)">
      <path d="M23.5 2.45 Q23.5 2.5 23.5 2.5 23.5 2.55 23.5 2.55 23.5 2.55 23.5 2.55 23.5 2.6 23.5 2.6 L23.5 4.05 22.85 3.8 23.5 4.5 23.5 5.25 22.95 5.25 23.5 6.45 23.5 7.1 23.3 8.15 23.5 7.8 23.5 9.55 22.85 9.85 23.15 10.05 23.75 9.8 23.75 8.05 23.5 8.4 23.75 7.35 23.75 6.7 23.2 5.5 23.75 5.5 23.75 4.75 23.1 4.05 23.75 4.3 23.75 2.85 Q23.75 2.8 23.75 2.8 23.75 2.7 23.75 2.65 23.75 2.55 23.7 2.55 23.7 2.5 23.65 2.5 23.6 2.5 23.5 2.45 L23.5 2.45 M23.5 10.4 L23.5 22.5 23.5 23.15 Q23.5 23.4 23.5 23.4 23.45 23.5 23.4 23.5 23.35 23.5 23.15 23.5 L22.5 23.5 21.85 23.5 20.95 23.5 21.0 23.75 22.1 23.75 22.75 23.75 23.4 23.75 Q23.65 23.75 23.7 23.75 23.75 23.7 23.75 23.4 L23.75 22.75 23.75 10.55 23.5 10.4 M20.7 22.75 L19.95 23.5 16.1 23.5 15.25 23.05 15.2 23.5 14.15 23.5 13.9 23.5 12.75 23.4 12.05 23.5 10.85 23.5 10.7 23.3 10.2 23.55 9.7 23.5 8.85 23.25 8.4 23.5 7.5 23.5 7.25 23.35 6.45 23.5 5.85 23.5 5.2 23.5 4.55 23.5 3.95 23.45 3.25 23.5 2.85 23.5 Q2.85 23.55 2.85 23.6 2.85 23.65 2.85 23.7 2.8 23.7 2.8 23.75 2.85 23.75 2.85 23.75 2.85 23.75 2.85 23.75 L3.5 23.75 4.2 23.7 4.8 23.75 5.45 23.75 6.05 23.75 6.7 23.75 7.45 23.6 7.75 23.75 8.65 23.75 9.1 23.5 9.9 23.75 10.45 23.8 10.95 23.55 11.1 23.75 12.3 23.75 13.0 23.65 14.1 23.75 14.4 23.75 15.4 23.75 15.5 23.3 16.35 23.75 20.15 23.75 20.75 23.2 20.7 22.75" fill="#ffffff" fill-rule="evenodd" stroke="none"/>
      <path d="M2.6 2.2 L5.95 2.2 6.2 2.65 6.5 2.4 7.75 2.2 13.5 2.2 13.7 2.7 14.15 2.2 15.45 2.2 16.65 2.2 17.15 2.65 17.35 2.2 18.0 2.2 23.15 2.2 Q23.35 2.2 23.4 2.25 23.45 2.25 23.5 2.35 23.5 2.4 23.5 2.55 23.5 2.55 23.5 2.6 L23.5 4.05 22.85 3.8 23.5 4.5 23.5 5.25 22.95 5.25 23.5 6.45 23.5 7.1 23.3 8.15 23.5 7.8 23.5 9.55 22.85 9.85 23.5 10.3 23.5 22.5 23.5 23.15 Q23.5 23.4 23.5 23.4 23.45 23.5 23.4 23.5 23.35 23.5 23.15 23.5 L22.5 23.5 21.85 23.5 20.75 23.5 20.7 22.75 19.95 23.5 16.1 23.5 15.25 23.05 15.2 23.5 14.15 23.5 13.9 23.5 12.75 23.4 12.05 23.5 10.85 23.5 10.7 23.3 10.2 23.55 9.7 23.5 8.85 23.25 8.4 23.5 7.5 23.5 7.25 23.35 6.45 23.5 5.85 23.5 5.2 23.5 4.55 23.5 3.95 23.45 3.25 23.5 2.6 23.5 Q2.6 23.5 2.6 23.5 2.6 23.5 2.6 23.5 2.4 23.5 2.35 23.5 2.3 23.5 2.25 23.45 2.25 23.4 2.25 23.2 2.25 23.2 2.25 23.2 2.25 23.2 2.25 23.2 2.25 23.15 2.25 23.15 L2.25 17.7 3.05 17.5 2.25 16.75 2.25 16.1 2.25 15.45 2.25 14.45 2.65 14.15 2.25 13.9 2.25 10.65 2.65 10.45 2.25 9.9 2.25 9.0 2.25 8.35 2.25 7.7 2.75 7.2 2.25 6.85 2.25 2.6 Q2.25 2.55 2.25 2.55 2.25 2.4 2.25 2.35 2.3 2.25 2.35 2.25 2.4 2.2 2.55 2.2 2.55 2.2 2.6 2.2 2.6 2.2 2.6 2.2 2.6 2.2 2.6 2.2 L2.6 2.2" fill="#000000" fill-rule="evenodd" stroke="none"/>
    </g>
    <g id="shape1" transform="matrix(1.0, 0.0, 0.0, 1.0, 0.0, 0.0)">
      <path d="M17.3 18.2 Q17.65 17.95 17.95 17.65 18.25 17.35 18.5 17.05 18.75 16.75 19.0 16.4 19.2 16.05 19.4 15.7 19.55 15.3 19.7 14.9 19.8 14.5 19.9 14.1 20.0 13.65 20.05 13.2 20.05 12.75 20.05 12.25 20.05 11.45 19.9 10.7 19.8 9.95 19.5 9.3 19.25 8.6 18.85 7.95 18.5 7.35 18.0 6.85 17.5 6.3 16.95 5.9 16.4 5.45 15.75 5.2 15.1 4.9 14.45 4.75 13.75 4.55 13.0 4.55 12.3 4.55 11.55 4.7 10.9 4.85 10.25 5.15 9.6 5.45 9.05 5.9 8.5 6.3 8.0 6.85 7.5 7.35 7.15 7.95 6.75 8.6 6.5 9.25 6.2 9.95 6.05 10.7 5.95 11.45 5.95 12.25 5.95 13.05 6.1 13.8 6.2 14.5 6.5 15.2 6.75 15.9 7.15 16.5 7.5 17.1 8.0 17.6 8.5 18.15 9.05 18.55 9.6 18.95 10.25 19.25 10.9 19.55 11.6 19.7 12.3 19.85 13.0 19.85 13.2 19.85 13.35 19.85 13.5 19.85 13.65 19.85 13.8 19.8 13.95 19.8 14.1 19.8 14.2 19.8 14.35 19.75 14.5 19.75 14.65 19.75 14.75 19.7 14.9 19.65 15.05 19.65 15.2 19.6 15.35 19.55 L15.4 19.65 Q15.4 19.65 15.5 19.7 15.7 19.95 15.7 19.9 15.9 20.05 16.05 20.2 16.25 20.4 16.45 20.55 16.65 20.7 16.9 20.85 17.15 21.05 17.35 21.15 17.6 21.3 17.8 21.35 18.0 21.45 18.2 21.45 L19.7 21.05 19.65 20.85 Q19.65 20.85 19.6 20.8 19.55 20.8 19.5 20.75 19.4 20.65 19.3 20.55 19.15 20.45 19.05 20.3 18.85 20.15 18.7 19.95 18.5 19.75 18.3 19.5 18.05 19.25 17.85 18.9 17.55 18.6 17.3 18.2 L17.3 18.2 M7.15 9.1 L6.7 8.75 7.0 8.75 7.15 8.5 7.3 8.55 7.6 8.3 8.0 8.3 Q7.9 8.3 7.75 8.35 7.65 8.4 7.6 8.45 7.5 8.5 7.45 8.6 7.4 8.65 7.35 8.75 7.3 8.8 7.25 8.85 7.2 8.9 7.2 8.95 7.2 9.0 7.15 9.05 7.15 9.05 7.15 9.1 L7.15 9.1 M13.05 17.45 Q12.5 17.45 12.0 17.35 11.55 17.2 11.1 17.0 10.7 16.8 10.3 16.5 9.95 16.2 9.65 15.8 9.35 15.45 9.15 15.0 8.9 14.6 8.75 14.15 8.6 13.7 8.55 13.2 8.45 12.75 8.45 12.25 8.45 11.85 8.5 11.4 8.6 10.95 8.75 10.5 8.9 10.0 9.1 9.6 9.3 9.15 9.6 8.75 9.9 8.3 10.25 8.0 10.6 7.65 11.05 7.4 11.45 7.15 11.95 7.0 12.45 6.85 13.0 6.85 13.6 6.85 14.1 7.0 14.6 7.1 15.05 7.35 15.45 7.6 15.8 7.95 16.15 8.25 16.4 8.65 16.7 9.0 16.9 9.45 17.1 9.9 17.2 10.35 17.35 10.8 17.4 11.3 17.45 11.75 17.45 12.2 17.45 12.75 17.4 13.25 17.35 13.7 17.25 14.15 17.2 14.5 17.05 14.85 16.95 15.15 16.8 15.4 16.7 15.6 16.55 15.85 16.4 16.0 16.25 16.2 16.15 16.3 16.0 16.45 15.8 16.65 15.75 16.7 L15.65 16.8 Q15.65 16.8 15.65 16.8 15.6 16.8 15.6 16.8 15.55 16.75 15.5 16.75 15.45 16.7 15.4 16.7 15.3 16.65 15.25 16.55 15.15 16.5 15.1 16.4 15.0 16.3 14.9 16.2 14.8 16.05 14.7 15.9 L12.05 15.7 13.4 17.4 Q13.4 17.4 13.4 17.4 13.05 17.5 13.35 17.4 13.35 17.4 13.35 17.4 13.3 17.4 13.3 17.4 13.25 17.45 13.25 17.45 13.2 17.45 13.2 17.45 13.15 17.45 13.1 17.45 13.1 17.45 13.05 17.45 L13.05 17.45" fill="#f1edf8" fill-rule="evenodd" stroke="none"/>
    </g>
  </defs>
</svg>
