<?xml version="1.0" encoding="UTF-8" standalone="no"?>
<svg xmlns:ffdec="https://www.free-decompiler.com/flash" xmlns:xlink="http://www.w3.org/1999/xlink" ffdec:objectType="frame" height="26.55px" width="70.8px" xmlns="http://www.w3.org/2000/svg">
  <g transform="matrix(1.0, 0.0, 0.0, 1.0, 0.2, 0.4)">
    <use ffdec:characterId="1" height="26.0" transform="matrix(1.0, 0.0, 0.0, 1.0, 0.0, 0.0)" width="35.75" xlink:href="#shape0"/>
    <use ffdec:characterId="107" height="26.0" transform="matrix(1.0, 0.0, 0.0, 1.0, 0.0, 0.0)" width="35.75" xlink:href="#shape1"/>
    <use ffdec:characterId="107" height="26.0" transform="matrix(1.0, 0.0, 0.0, 1.0, 0.0, 0.0)" width="35.75" xlink:href="#shape1"/>
  </g>
  <defs>
    <g id="shape0" transform="matrix(1.0, 0.0, 0.0, 1.0, 0.0, 0.0)">
      <path d="M33.35 2.45 Q33.35 2.5 33.35 2.55 33.35 2.55 33.35 2.6 L33.35 4.05 32.7 3.8 33.35 4.5 33.35 5.25 32.8 5.25 33.35 6.45 33.35 7.1 33.1 8.15 33.35 7.8 33.35 9.55 32.7 9.85 33.0 10.05 33.6 9.8 33.6 8.05 33.35 8.4 33.6 7.35 33.6 6.7 33.05 5.5 33.6 5.5 33.6 4.75 32.95 4.05 33.6 4.3 33.6 2.85 Q33.6 2.8 33.6 2.8 33.6 2.7 33.6 2.65 33.55 2.55 33.55 2.55 33.5 2.5 33.45 2.5 33.45 2.5 33.35 2.45 L33.35 2.45 M33.35 10.4 L33.35 22.5 33.35 23.15 Q33.35 23.4 33.35 23.4 33.3 23.5 33.25 23.5 33.2 23.5 33.0 23.5 L32.35 23.5 31.7 23.5 30.8 23.5 30.85 23.75 31.95 23.75 32.6 23.75 33.2 23.75 Q33.45 23.75 33.45 23.75 33.55 23.75 33.55 23.65 33.55 23.65 33.6 23.4 L33.6 22.75 33.6 10.55 33.35 10.4 33.35 10.4 M30.55 22.75 L29.75 23.5 25.95 23.5 25.1 23.05 25.0 23.5 24.0 23.5 23.7 23.5 22.6 23.4 21.9 23.5 20.7 23.5 20.55 23.3 20.05 23.55 9.6 23.5 8.75 23.25 8.3 23.5 7.45 23.5 7.15 23.35 6.4 23.5 5.75 23.5 5.1 23.5 4.45 23.5 3.85 23.45 3.15 23.5 2.75 23.5 Q2.75 23.55 2.75 23.65 2.75 23.7 2.75 23.75 2.75 23.75 2.75 23.75 2.75 23.75 2.75 23.75 L3.4 23.75 4.1 23.7 4.7 23.75 5.35 23.75 5.95 23.75 6.6 23.75 7.4 23.6 7.65 23.75 8.55 23.75 18.95 23.75 19.75 23.75 20.3 23.8 20.8 23.55 20.9 23.75 22.15 23.75 22.85 23.65 23.95 23.75 24.25 23.75 25.25 23.75 25.35 23.3 26.15 23.75 30.0 23.75 30.55 23.2 30.55 22.75 30.55 22.75" fill="#ffffff" fill-rule="evenodd" stroke="none"/>
      <path d="M2.55 2.2 L5.85 2.2 6.1 2.65 6.4 2.4 7.65 2.2 13.45 2.2 13.6 2.7 14.05 2.2 15.35 2.2 26.5 2.2 27.0 2.65 27.2 2.2 27.85 2.2 33.0 2.2 Q33.2 2.2 33.25 2.25 33.3 2.25 33.35 2.35 33.35 2.4 33.35 2.55 33.35 2.55 33.35 2.6 L33.35 4.05 32.7 3.8 33.35 4.5 33.35 5.25 32.8 5.25 33.35 6.45 33.35 7.1 33.1 8.15 33.35 7.8 33.35 9.55 32.7 9.85 33.35 10.3 33.35 22.5 33.35 23.15 Q33.35 23.4 33.35 23.4 33.3 23.5 33.25 23.5 33.2 23.5 33.0 23.5 L32.35 23.5 31.7 23.5 30.6 23.5 30.5 22.75 29.75 23.5 25.95 23.5 25.1 23.05 25.0 23.5 24.0 23.5 23.7 23.5 22.6 23.4 21.9 23.5 20.7 23.5 20.55 23.3 20.05 23.55 9.6 23.5 8.75 23.25 8.3 23.5 7.45 23.5 7.15 23.35 6.4 23.5 5.75 23.5 5.1 23.5 4.45 23.5 3.85 23.45 3.15 23.5 2.55 23.5 Q2.5 23.5 2.5 23.5 2.5 23.5 2.5 23.5 2.3 23.5 2.25 23.5 2.2 23.5 2.15 23.45 2.15 23.4 2.2 23.2 2.2 23.2 2.15 23.2 2.15 23.2 2.15 23.2 2.15 23.15 2.15 23.15 L2.15 17.7 2.95 17.5 2.15 16.75 2.15 16.1 2.15 15.45 2.15 14.45 2.6 14.15 2.15 13.9 2.15 10.65 2.55 10.45 2.15 9.9 2.15 9.0 2.15 8.35 2.15 7.7 2.65 7.2 2.15 6.85 2.15 2.6 Q2.15 2.55 2.15 2.55 2.15 2.4 2.2 2.35 2.2 2.25 2.25 2.25 2.3 2.2 2.45 2.2 2.5 2.2 2.5 2.2 2.5 2.2 2.5 2.2 2.5 2.2 2.55 2.2 2.55 2.2 2.55 2.2 L2.55 2.2" fill="#000000" fill-rule="evenodd" stroke="none"/>
    </g>
    <g id="shape1" transform="matrix(1.0, 0.0, 0.0, 1.0, 0.0, 0.0)">
      <path d="M10.45 14.85 Q10.45 14.85 10.4 14.8 10.35 14.75 10.35 14.75 10.3 14.65 10.25 14.6 10.15 14.5 10.1 14.4 10.0 14.3 9.95 14.2 9.85 14.1 9.8 13.95 9.7 13.8 9.65 13.7 9.55 13.55 9.5 13.4 9.5 13.4 9.6 13.4 9.7 13.4 9.85 13.35 10.05 13.3 10.2 13.25 10.45 13.15 10.6 13.05 10.85 12.95 11.05 12.75 11.25 12.55 11.4 12.3 11.55 12.05 11.65 11.7 11.75 11.35 11.75 10.9 11.75 10.35 11.6 9.9 11.5 9.5 11.25 9.2 11.05 8.9 10.75 8.65 10.45 8.45 10.15 8.3 9.85 8.15 9.55 8.1 9.3 8.0 9.05 8.0 8.85 7.95 8.65 7.95 8.6 7.95 8.55 7.95 L4.85 7.95 4.85 8.05 4.85 8.6 5.2 8.95 5.2 9.2 5.25 9.3 5.25 10.2 5.35 10.2 5.35 10.4 5.65 10.5 5.95 10.55 5.9 10.65 5.4 10.65 5.35 10.8 5.3 10.95 5.3 16.2 Q5.3 16.2 5.3 16.25 5.3 16.3 5.3 16.35 5.3 16.45 5.3 16.55 5.25 16.65 5.25 16.75 5.2 16.9 5.2 17.0 5.15 17.1 5.1 17.15 5.05 17.25 5.0 17.3 4.9 17.35 4.85 17.35 L4.85 18.05 7.3 18.05 7.3 17.35 Q7.3 17.35 7.3 17.35 7.25 17.35 7.25 17.35 7.2 17.35 7.15 17.35 7.15 17.3 7.1 17.25 7.05 17.2 7.0 17.1 7.0 17.05 6.95 16.9 6.9 16.8 6.9 16.6 6.9 16.45 6.9 16.2 L6.9 12.55 6.75 12.45 6.8 12.35 6.85 12.35 6.85 11.2 6.85 11.1 6.75 10.95 6.8 10.6 6.8 10.45 6.85 10.55 6.85 10.45 6.85 9.35 8.55 9.35 Q8.55 9.35 8.6 9.35 8.7 9.35 8.8 9.35 8.95 9.4 9.1 9.4 9.25 9.45 9.4 9.5 9.6 9.6 9.75 9.7 9.9 9.8 10.0 9.95 10.15 10.1 10.2 10.3 10.25 10.5 10.25 10.75 L10.25 10.95 Q10.25 10.95 10.25 11.0 10.25 11.1 10.25 11.15 10.2 11.3 10.2 11.4 10.15 11.55 10.05 11.65 10.0 11.8 9.85 11.9 9.7 12.05 9.55 12.15 9.35 12.25 9.1 12.3 8.8 12.35 8.5 12.35 L8.05 12.35 8.05 14.2 9.15 16.15 Q9.15 16.15 9.2 16.25 9.25 16.3 9.35 16.45 9.45 16.6 9.55 16.75 9.7 16.9 9.85 17.1 10.0 17.25 10.15 17.45 10.35 17.6 10.5 17.75 10.65 17.9 10.85 17.95 11.0 18.05 11.15 18.05 L12.15 18.05 12.15 17.4 Q12.15 17.4 12.1 17.4 12.05 17.35 11.95 17.35 11.85 17.3 11.75 17.25 11.65 17.15 11.55 17.05 11.4 16.9 11.25 16.7 11.1 16.5 11.0 16.25 10.85 16.0 10.7 15.65 10.55 15.3 10.45 14.85 L10.45 14.85" fill="#f1edf8" fill-rule="evenodd" stroke="none"/>
      <path d="M17.2 16.35 Q17.2 16.35 17.05 16.35 16.85 16.35 16.65 16.35 16.35 16.3 16.1 16.25 15.75 16.15 15.45 16.05 15.1 15.9 14.8 15.7 14.5 15.45 14.25 15.1 14.0 14.75 13.85 14.3 13.7 13.8 13.7 13.2 13.7 12.45 13.85 11.85 14.0 11.3 14.25 10.85 14.5 10.45 14.8 10.15 15.1 9.9 15.45 9.75 15.75 9.55 16.1 9.5 16.35 9.4 16.65 9.35 16.85 9.35 17.05 9.35 17.1 9.35 17.2 9.35 17.2 9.35 17.25 9.35 17.35 9.35 17.45 9.35 17.6 9.4 17.75 9.45 17.95 9.5 18.1 9.55 18.3 9.65 18.45 9.8 18.6 9.95 18.75 10.15 18.85 10.35 18.95 10.6 19.05 10.9 19.05 11.25 L19.5 11.4 Q19.5 11.4 19.55 11.35 19.6 11.25 19.65 11.2 19.7 11.1 19.8 11.0 19.9 10.9 19.95 10.75 20.05 10.6 20.15 10.45 20.25 10.3 20.35 10.1 20.45 9.95 20.55 9.75 20.65 9.6 20.7 9.4 20.7 9.4 20.7 9.4 20.7 9.45 20.65 9.45 20.6 9.45 20.6 9.45 20.55 9.45 20.5 9.45 20.4 9.45 20.35 9.4 20.25 9.35 20.2 9.3 20.1 9.25 20.0 9.1 19.85 9.0 19.75 8.85 19.75 8.85 19.7 8.8 19.6 8.75 19.55 8.7 19.4 8.65 19.25 8.55 19.1 8.45 18.9 8.4 18.7 8.3 18.45 8.25 18.2 8.15 17.95 8.1 17.65 8.0 17.35 8.0 17.0 7.95 16.7 7.95 15.85 7.9 15.1 8.1 14.45 8.3 13.95 8.65 13.45 8.95 13.1 9.4 12.8 9.8 12.55 10.35 12.35 10.75 12.2 11.25 12.1 11.65 12.05 12.05 12.0 12.35 12.0 12.65 12.0 12.75 12.0 12.85 12.0 13.8 12.2 14.65 12.4 15.35 12.75 15.95 13.05 16.45 13.45 16.85 13.85 17.2 14.3 17.5 14.7 17.7 15.15 17.85 15.5 17.95 15.85 18.0 16.1 18.05 16.35 18.05 16.45 18.05 16.55 18.05 17.05 18.05 17.55 17.9 18.0 17.8 18.4 17.65 18.75 17.45 19.1 17.2 19.4 17.0 19.7 16.75 19.95 16.55 20.15 16.3 20.3 16.15 20.45 15.95 20.55 15.8 20.65 15.65 20.7 15.6 20.7 15.55 L20.75 14.45 20.2 14.55 Q20.0 14.85 19.8 15.15 19.55 15.35 19.3 15.55 19.1 15.75 18.8 15.9 18.6 16.0 18.35 16.1 18.1 16.2 17.9 16.25 17.7 16.3 17.55 16.3 17.4 16.35 17.3 16.35 17.25 16.35 17.2 16.35 L17.2 16.35" fill="#f1edf8" fill-rule="evenodd" stroke="none"/>
      <path d="M24.5 11.6 L24.45 11.6 Q24.45 11.6 24.5 11.6 L24.5 11.6 Q24.5 11.65 24.5 11.65 24.4 11.7 24.1 11.7 23.7 11.7 22.85 11.65 22.85 11.65 22.7 11.75 L22.7 10.75 22.3 10.2 Q22.3 10.3 22.25 10.35 22.25 10.45 22.2 10.55 22.15 10.6 22.05 10.65 22.0 10.75 21.9 10.8 21.85 10.85 21.8 10.9 21.7 10.95 21.65 11.0 21.6 11.05 21.55 11.05 21.55 11.05 21.55 11.05 L21.55 11.75 20.4 11.75 20.0 12.35 20.0 12.7 21.25 12.7 21.55 12.7 21.55 15.35 21.55 16.1 Q21.55 16.35 21.55 16.6 21.5 16.75 21.5 16.95 21.45 17.1 21.45 17.2 21.4 17.3 21.35 17.4 21.35 17.45 21.3 17.5 21.25 17.55 21.25 17.55 21.2 17.6 21.2 17.6 21.2 17.6 21.15 17.6 L21.15 18.05 23.05 18.05 23.05 17.6 Q23.0 17.6 22.95 17.55 22.9 17.45 22.85 17.35 22.85 17.25 22.8 17.1 22.8 17.0 22.75 16.85 22.75 16.7 22.7 16.55 22.7 16.45 22.7 16.35 22.7 16.25 22.7 16.15 22.65 16.15 22.65 16.1 L22.7 12.65 23.45 12.65 Q23.45 12.65 23.45 12.65 23.5 12.65 23.55 12.65 23.6 12.65 23.65 12.65 23.7 12.6 23.8 12.6 23.85 12.6 23.9 12.55 24.0 12.55 24.05 12.5 24.1 12.45 24.15 12.4 24.25 12.35 24.25 12.3 L24.55 11.65 24.5 11.6" fill="#f1edf8" fill-rule="evenodd" stroke="none"/>
      <path d="M28.15 12.35 Q28.15 12.35 28.1 12.35 28.1 12.35 28.05 12.3 28.0 12.25 27.95 12.25 27.9 12.2 27.8 12.15 27.75 12.1 27.65 12.05 27.55 12.05 27.45 12.0 27.35 11.95 27.25 11.95 27.15 11.95 27.05 11.95 27.0 11.95 26.95 11.95 26.85 11.95 26.8 11.95 26.7 11.95 26.65 12.0 26.55 12.0 26.5 12.05 26.4 12.05 26.3 12.1 26.25 12.1 26.15 12.15 26.1 12.2 26.0 12.25 25.95 12.3 25.9 12.4 L25.9 12.3 Q25.9 12.25 25.9 12.2 25.9 12.15 25.95 12.1 25.95 12.05 26.0 12.0 26.05 11.95 26.05 11.9 26.1 11.9 26.15 11.85 26.15 11.85 26.2 11.8 26.2 11.8 26.2 11.8 26.25 11.75 26.25 11.75 L25.45 11.75 24.4 11.95 Q24.45 11.95 24.5 12.0 24.55 12.05 24.6 12.05 24.6 12.1 24.65 12.15 24.65 12.2 24.7 12.25 24.7 12.25 24.7 12.3 24.7 12.35 24.7 12.35 24.7 12.4 24.7 12.4 24.7 12.4 24.7 12.45 L24.7 16.4 24.7 16.8 Q24.7 16.95 24.7 17.05 24.7 17.15 24.65 17.2 24.65 17.3 24.6 17.35 24.6 17.4 24.55 17.4 24.55 17.45 24.5 17.45 24.5 17.5 24.45 17.5 24.45 17.5 24.45 17.5 24.45 17.5 24.45 17.5 L24.45 18.05 26.2 18.05 26.2 17.55 Q26.15 17.55 26.1 17.5 26.1 17.45 26.05 17.4 26.0 17.35 26.0 17.3 25.95 17.25 25.95 17.15 25.95 17.1 25.9 17.0 25.9 16.95 25.9 16.9 25.9 16.85 25.9 16.8 25.9 16.8 25.9 16.8 L25.9 14.4 25.8 14.4 25.75 14.45 25.7 14.45 25.6 14.45 25.6 14.35 25.65 14.4 25.65 14.35 25.7 14.35 25.8 14.35 25.8 14.3 25.9 14.25 25.9 13.95 Q25.9 13.9 25.9 13.8 25.9 13.75 25.95 13.65 25.95 13.6 26.0 13.5 26.0 13.4 26.1 13.35 26.15 13.25 26.2 13.2 26.3 13.1 26.45 13.05 26.55 13.0 26.7 13.0 26.85 12.95 27.05 12.95 27.05 12.95 27.1 12.95 27.15 12.95 27.2 13.0 27.3 13.0 27.4 13.05 27.5 13.1 27.55 13.15 27.7 13.25 27.8 13.35 27.9 13.45 27.95 13.6 28.05 13.75 28.1 13.95 28.2 14.15 28.2 14.4 28.2 14.4 28.5 14.1 28.8 13.8 28.8 13.8 28.8 13.65 28.8 13.45 28.8 13.35 28.8 13.25 28.75 13.15 28.7 13.05 28.65 12.95 28.6 12.85 28.55 12.8 28.5 12.7 28.4 12.65 28.35 12.55 28.3 12.5 28.25 12.45 28.2 12.45 28.15 12.4 28.15 12.4 28.15 12.35 L28.15 12.35" fill="#f1edf8" fill-rule="evenodd" stroke="none"/>
      <path d="M30.55 16.2 L30.55 11.0 30.45 11.05 30.4 11.15 30.35 11.1 30.3 11.1 30.3 11.0 30.35 11.0 30.35 10.95 30.35 10.9 30.45 10.9 30.45 10.85 30.55 10.75 30.55 8.8 Q30.55 8.7 30.55 8.6 30.6 8.55 30.6 8.45 30.65 8.35 30.65 8.3 30.7 8.25 30.75 8.15 30.75 8.1 30.8 8.1 30.8 8.05 30.85 8.0 30.85 8.0 30.9 7.95 30.9 7.95 30.9 7.95 L30.55 7.95 28.9 8.4 Q29.05 8.85 29.15 9.3 L29.15 15.5 29.15 16.2 Q29.15 16.4 29.15 16.6 29.15 16.75 29.1 16.9 29.1 17.0 29.05 17.1 29.0 17.2 29.0 17.25 28.95 17.3 28.95 17.35 28.9 17.35 28.9 17.4 28.85 17.4 28.85 17.4 28.85 17.4 28.85 17.4 L28.85 18.05 30.9 18.05 30.9 17.4 Q30.85 17.4 30.8 17.35 30.75 17.3 30.7 17.2 30.7 17.15 30.65 17.0 30.6 16.9 30.6 16.8 30.6 16.7 30.55 16.6 30.55 16.5 30.55 16.4 30.55 16.3 30.55 16.25 30.55 16.2 30.55 16.2 L30.55 16.2" fill="#f1edf8" fill-rule="evenodd" stroke="none"/>
    </g>
  </defs>
</svg>
