<?xml version="1.0" encoding="UTF-8" standalone="no"?>
<svg xmlns:ffdec="https://www.free-decompiler.com/flash" xmlns:xlink="http://www.w3.org/1999/xlink" ffdec:objectType="frame" height="26.55px" width="70.8px" xmlns="http://www.w3.org/2000/svg">
  <g transform="matrix(1.0, 0.0, 0.0, 1.0, 0.2, 0.4)">
    <use ffdec:characterId="3" height="26.0" transform="matrix(1.0, 0.0, 0.0, 1.0, 0.0, 0.0)" width="26.0" xlink:href="#shape0"/>
    <use ffdec:characterId="31" height="26.0" transform="matrix(1.0, 0.0, 0.0, 1.0, 0.0, 0.0)" width="26.0" xlink:href="#shape1"/>
    <use ffdec:characterId="31" height="26.0" transform="matrix(1.0, 0.0, 0.0, 1.0, 0.0, 0.0)" width="26.0" xlink:href="#shape1"/>
  </g>
  <defs>
    <g id="shape0" transform="matrix(1.0, 0.0, 0.0, 1.0, 0.0, 0.0)">
      <path d="M23.5 2.45 Q23.5 2.5 23.5 2.5 23.5 2.55 23.5 2.55 23.5 2.55 23.5 2.55 23.5 2.6 23.5 2.6 L23.5 4.05 22.85 3.8 23.5 4.5 23.5 5.25 22.95 5.25 23.5 6.45 23.5 7.1 23.3 8.15 23.5 7.8 23.5 9.55 22.85 9.85 23.15 10.05 23.75 9.8 23.75 8.05 23.5 8.4 23.75 7.35 23.75 6.7 23.2 5.5 23.75 5.5 23.75 4.75 23.1 4.05 23.75 4.3 23.75 2.85 Q23.75 2.8 23.75 2.8 23.75 2.7 23.75 2.65 23.75 2.55 23.7 2.55 23.7 2.5 23.65 2.5 23.6 2.5 23.5 2.45 L23.5 2.45 M23.5 10.4 L23.5 22.5 23.5 23.15 Q23.5 23.4 23.5 23.4 23.45 23.5 23.4 23.5 23.35 23.5 23.15 23.5 L22.5 23.5 21.85 23.5 20.95 23.5 21.0 23.75 22.1 23.75 22.75 23.75 23.4 23.75 Q23.65 23.75 23.7 23.75 23.75 23.7 23.75 23.4 L23.75 22.75 23.75 10.55 23.5 10.4 M20.7 22.75 L19.95 23.5 16.1 23.5 15.25 23.05 15.2 23.5 14.15 23.5 13.9 23.5 12.75 23.4 12.05 23.5 10.85 23.5 10.7 23.3 10.2 23.55 9.7 23.5 8.85 23.25 8.4 23.5 7.5 23.5 7.25 23.35 6.45 23.5 5.85 23.5 5.2 23.5 4.55 23.5 3.95 23.45 3.25 23.5 2.85 23.5 Q2.85 23.55 2.85 23.6 2.85 23.65 2.85 23.7 2.8 23.7 2.8 23.75 2.85 23.75 2.85 23.75 2.85 23.75 2.85 23.75 L3.5 23.75 4.2 23.7 4.8 23.75 5.45 23.75 6.05 23.75 6.7 23.75 7.45 23.6 7.75 23.75 8.65 23.75 9.1 23.5 9.9 23.75 10.45 23.8 10.95 23.55 11.1 23.75 12.3 23.75 13.0 23.65 14.1 23.75 14.4 23.75 15.4 23.75 15.5 23.3 16.35 23.75 20.15 23.75 20.75 23.2 20.7 22.75" fill="#ffffff" fill-rule="evenodd" stroke="none"/>
      <path d="M2.6 2.2 L5.95 2.2 6.2 2.65 6.5 2.4 7.75 2.2 13.5 2.2 13.7 2.7 14.15 2.2 15.45 2.2 16.65 2.2 17.15 2.65 17.35 2.2 18.0 2.2 23.15 2.2 Q23.35 2.2 23.4 2.25 23.45 2.25 23.5 2.35 23.5 2.4 23.5 2.55 23.5 2.55 23.5 2.6 L23.5 4.05 22.85 3.8 23.5 4.5 23.5 5.25 22.95 5.25 23.5 6.45 23.5 7.1 23.3 8.15 23.5 7.8 23.5 9.55 22.85 9.85 23.5 10.3 23.5 22.5 23.5 23.15 Q23.5 23.4 23.5 23.4 23.45 23.5 23.4 23.5 23.35 23.5 23.15 23.5 L22.5 23.5 21.85 23.5 20.75 23.5 20.7 22.75 19.95 23.5 16.1 23.5 15.25 23.05 15.2 23.5 14.15 23.5 13.9 23.5 12.75 23.4 12.05 23.5 10.85 23.5 10.7 23.3 10.2 23.55 9.7 23.5 8.85 23.25 8.4 23.5 7.5 23.5 7.25 23.35 6.45 23.5 5.85 23.5 5.2 23.5 4.55 23.5 3.95 23.45 3.25 23.5 2.6 23.5 Q2.6 23.5 2.6 23.5 2.6 23.5 2.6 23.5 2.4 23.5 2.35 23.5 2.3 23.5 2.25 23.45 2.25 23.4 2.25 23.2 2.25 23.2 2.25 23.2 2.25 23.2 2.25 23.2 2.25 23.15 2.25 23.15 L2.25 17.7 3.05 17.5 2.25 16.75 2.25 16.1 2.25 15.45 2.25 14.45 2.65 14.15 2.25 13.9 2.25 10.65 2.65 10.45 2.25 9.9 2.25 9.0 2.25 8.35 2.25 7.7 2.75 7.2 2.25 6.85 2.25 2.6 Q2.25 2.55 2.25 2.55 2.25 2.4 2.25 2.35 2.3 2.25 2.35 2.25 2.4 2.2 2.55 2.2 2.55 2.2 2.6 2.2 2.6 2.2 2.6 2.2 2.6 2.2 2.6 2.2 L2.6 2.2" fill="#000000" fill-rule="evenodd" stroke="none"/>
    </g>
    <g id="shape1" transform="matrix(1.0, 0.0, 0.0, 1.0, 0.0, 0.0)">
      <path d="M11.85 17.35 L11.85 17.35 11.85 17.35 11.85 17.35 11.85 17.35 11.55 17.45 11.5 17.15 11.65 17.05 11.65 17.0 11.85 16.95 Q11.85 16.9 11.85 16.9 11.9 16.85 11.9 16.8 11.9 16.75 11.9 16.7 11.9 16.65 11.9 16.6 11.9 16.55 11.9 16.5 11.9 16.45 11.9 16.35 11.9 16.3 11.9 16.25 11.9 16.15 11.85 16.05 L11.9 16.1 11.9 16.7 12.0 16.7 Q11.8 16.8 11.9 16.8 11.95 16.8 12.0 16.8 L12.0 16.7 12.05 16.65 12.0 16.9 12.05 16.9 12.05 16.95 13.05 15.05 14.1 17.25 14.25 17.7 14.5 18.3 14.6 17.85 14.5 18.3 15.4 20.05 15.65 20.75 15.65 20.75 18.0 20.75 18.05 20.75 18.05 20.1 Q18.0 20.1 17.95 19.95 17.95 19.85 17.95 19.7 17.95 19.55 17.95 19.3 18.0 19.1 18.0 18.9 18.05 18.7 18.05 18.45 18.1 18.25 18.15 18.1 18.15 17.95 18.15 17.8 18.2 17.75 18.2 17.7 L18.2 17.7 19.45 12.6 19.15 12.55 19.05 12.45 19.0 12.6 18.85 12.5 18.65 12.55 Q18.65 12.55 18.8 12.25 18.95 12.2 19.1 12.1 L19.0 12.0 19.25 12.0 19.25 11.8 19.5 11.75 19.55 12.15 20.25 8.85 Q20.25 8.85 20.25 8.75 20.3 8.55 20.35 8.45 20.4 8.2 20.45 8.0 20.5 7.75 20.6 7.55 20.7 7.25 20.8 7.05 20.9 6.8 21.0 6.6 21.15 6.4 21.3 6.3 21.45 6.2 21.6 6.2 L21.6 5.25 17.75 5.25 17.75 6.2 Q17.75 6.2 17.8 6.2 17.8 6.25 17.85 6.3 17.9 6.35 17.95 6.5 18.0 6.6 18.0 6.8 18.05 7.0 18.05 7.25 18.05 7.55 18.05 7.95 18.0 8.35 17.95 8.85 17.85 9.35 17.75 10.0 L16.1 16.35 16.0 16.35 14.45 13.4 13.05 10.8 11.6 13.2 9.9 16.0 9.8 16.0 8.5 10.0 Q8.4 9.4 8.35 9.05 L8.1 8.9 7.95 8.9 7.95 8.8 7.85 8.8 Q7.8 8.75 7.8 8.7 7.8 8.65 7.8 8.6 7.8 8.6 7.85 8.55 7.85 8.55 7.9 8.55 7.9 8.6 7.95 8.6 8.0 8.6 8.0 8.6 8.05 8.6 8.05 8.65 8.1 8.65 8.1 8.65 8.15 8.65 8.15 8.65 8.2 8.65 8.25 8.7 8.25 8.7 8.3 8.7 8.25 8.3 8.2 7.95 8.2 7.6 8.2 7.35 8.2 7.1 8.25 6.9 8.25 6.7 8.3 6.55 8.35 6.45 8.4 6.35 8.4 6.3 8.45 6.25 8.5 6.2 8.5 6.2 8.5 6.2 8.55 6.2 L8.55 5.25 4.4 5.25 4.4 6.2 Q4.6 6.25 4.75 6.4 4.95 6.5 5.1 6.7 5.2 6.9 5.35 7.15 5.45 7.35 5.55 7.6 5.65 7.85 5.7 8.05 5.75 8.25 5.8 8.45 5.85 8.6 5.9 8.75 5.9 8.8 5.9 8.85 L7.65 17.75 Q7.65 17.85 7.7 18.0 7.7 18.15 7.75 18.35 7.75 18.5 7.8 18.7 7.8 18.9 7.85 19.1 7.85 19.3 7.85 19.45 7.85 19.6 7.85 19.75 7.85 19.9 7.8 20.0 7.75 20.05 7.7 20.1 L7.7 20.75 7.8 20.75 10.05 20.75 10.35 20.1 11.85 17.35" fill="#f1edf8" fill-rule="evenodd" stroke="none"/>
    </g>
  </defs>
</svg>
