<?xml version="1.0" encoding="UTF-8" standalone="no"?>
<svg xmlns:ffdec="https://www.free-decompiler.com/flash" xmlns:xlink="http://www.w3.org/1999/xlink" ffdec:objectType="frame" height="26.55px" width="70.8px" xmlns="http://www.w3.org/2000/svg">
  <g transform="matrix(1.0, 0.0, 0.0, 1.0, 0.2, 0.4)">
    <use ffdec:characterId="3" height="26.0" transform="matrix(1.0, 0.0, 0.0, 1.0, 0.0, 0.0)" width="26.0" xlink:href="#shape0"/>
    <use ffdec:characterId="32" height="26.0" transform="matrix(1.0, 0.0, 0.0, 1.0, 0.0, 0.0)" width="26.0" xlink:href="#shape1"/>
    <use ffdec:characterId="32" height="26.0" transform="matrix(1.0, 0.0, 0.0, 1.0, 0.0, 0.0)" width="26.0" xlink:href="#shape1"/>
  </g>
  <defs>
    <g id="shape0" transform="matrix(1.0, 0.0, 0.0, 1.0, 0.0, 0.0)">
      <path d="M23.5 2.45 Q23.5 2.5 23.5 2.5 23.5 2.55 23.5 2.55 23.5 2.55 23.5 2.55 23.5 2.6 23.5 2.6 L23.5 4.05 22.85 3.8 23.5 4.5 23.5 5.25 22.95 5.25 23.5 6.45 23.5 7.1 23.3 8.15 23.5 7.8 23.5 9.55 22.85 9.85 23.15 10.05 23.75 9.8 23.75 8.05 23.5 8.4 23.75 7.35 23.75 6.7 23.2 5.5 23.75 5.5 23.75 4.75 23.1 4.05 23.75 4.3 23.75 2.85 Q23.75 2.8 23.75 2.8 23.75 2.7 23.75 2.65 23.75 2.55 23.7 2.55 23.7 2.5 23.65 2.5 23.6 2.5 23.5 2.45 L23.5 2.45 M23.5 10.4 L23.5 22.5 23.5 23.15 Q23.5 23.4 23.5 23.4 23.45 23.5 23.4 23.5 23.35 23.5 23.15 23.5 L22.5 23.5 21.85 23.5 20.95 23.5 21.0 23.75 22.1 23.75 22.75 23.75 23.4 23.75 Q23.65 23.75 23.7 23.75 23.75 23.7 23.75 23.4 L23.75 22.75 23.75 10.55 23.5 10.4 M20.7 22.75 L19.95 23.5 16.1 23.5 15.25 23.05 15.2 23.5 14.15 23.5 13.9 23.5 12.75 23.4 12.05 23.5 10.85 23.5 10.7 23.3 10.2 23.55 9.7 23.5 8.85 23.25 8.4 23.5 7.5 23.5 7.25 23.35 6.45 23.5 5.85 23.5 5.2 23.5 4.55 23.5 3.95 23.45 3.25 23.5 2.85 23.5 Q2.85 23.55 2.85 23.6 2.85 23.65 2.85 23.7 2.8 23.7 2.8 23.75 2.85 23.75 2.85 23.75 2.85 23.75 2.85 23.75 L3.5 23.75 4.2 23.7 4.8 23.75 5.45 23.75 6.05 23.75 6.7 23.75 7.45 23.6 7.75 23.75 8.65 23.75 9.1 23.5 9.9 23.75 10.45 23.8 10.95 23.55 11.1 23.75 12.3 23.75 13.0 23.65 14.1 23.75 14.4 23.75 15.4 23.75 15.5 23.3 16.35 23.75 20.15 23.75 20.75 23.2 20.7 22.75" fill="#ffffff" fill-rule="evenodd" stroke="none"/>
      <path d="M2.6 2.2 L5.95 2.2 6.2 2.65 6.5 2.4 7.75 2.2 13.5 2.2 13.7 2.7 14.15 2.2 15.45 2.2 16.65 2.2 17.15 2.65 17.35 2.2 18.0 2.2 23.15 2.2 Q23.35 2.2 23.4 2.25 23.45 2.25 23.5 2.35 23.5 2.4 23.5 2.55 23.5 2.55 23.5 2.6 L23.5 4.05 22.85 3.8 23.5 4.5 23.5 5.25 22.95 5.25 23.5 6.45 23.5 7.1 23.3 8.15 23.5 7.8 23.5 9.55 22.85 9.85 23.5 10.3 23.5 22.5 23.5 23.15 Q23.5 23.4 23.5 23.4 23.45 23.5 23.4 23.5 23.35 23.5 23.15 23.5 L22.5 23.5 21.85 23.5 20.75 23.5 20.7 22.75 19.95 23.5 16.1 23.5 15.25 23.05 15.2 23.5 14.15 23.5 13.9 23.5 12.75 23.4 12.05 23.5 10.85 23.5 10.7 23.3 10.2 23.55 9.7 23.5 8.85 23.25 8.4 23.5 7.5 23.5 7.25 23.35 6.45 23.5 5.85 23.5 5.2 23.5 4.55 23.5 3.95 23.45 3.25 23.5 2.6 23.5 Q2.6 23.5 2.6 23.5 2.6 23.5 2.6 23.5 2.4 23.5 2.35 23.5 2.3 23.5 2.25 23.45 2.25 23.4 2.25 23.2 2.25 23.2 2.25 23.2 2.25 23.2 2.25 23.2 2.25 23.15 2.25 23.15 L2.25 17.7 3.05 17.5 2.25 16.75 2.25 16.1 2.25 15.45 2.25 14.45 2.65 14.15 2.25 13.9 2.25 10.65 2.65 10.45 2.25 9.9 2.25 9.0 2.25 8.35 2.25 7.7 2.75 7.2 2.25 6.85 2.25 2.6 Q2.25 2.55 2.25 2.55 2.25 2.4 2.25 2.35 2.3 2.25 2.35 2.25 2.4 2.2 2.55 2.2 2.55 2.2 2.6 2.2 2.6 2.2 2.6 2.2 2.6 2.2 2.6 2.2 L2.6 2.2" fill="#000000" fill-rule="evenodd" stroke="none"/>
    </g>
    <g id="shape1" transform="matrix(1.0, 0.0, 0.0, 1.0, 0.0, 0.0)">
      <path d="M17.85 8.15 L17.85 5.25 12.1 5.25 9.2 5.25 8.15 5.25 8.15 5.3 8.15 6.85 8.15 6.85 Q8.2 6.9 8.2 6.9 8.25 6.95 8.3 6.95 8.3 7.0 8.35 7.05 8.4 7.05 8.4 7.1 8.45 7.15 8.45 7.15 8.5 7.2 8.5 7.25 8.55 7.25 8.55 7.3 8.6 7.35 8.6 7.35 8.65 7.4 8.65 7.5 8.7 7.55 8.7 7.6 8.75 7.7 8.75 7.75 8.75 7.8 8.8 7.9 8.8 7.95 8.8 8.05 8.8 8.1 8.85 8.15 8.85 8.25 8.85 8.3 8.85 8.35 8.85 8.45 L8.85 9.15 8.85 17.25 Q8.85 17.6 8.8 17.85 8.75 18.1 8.7 18.3 8.65 18.5 8.6 18.65 8.55 18.8 8.45 18.85 8.4 18.95 8.35 19.0 8.3 19.05 8.25 19.1 8.2 19.1 8.15 19.1 8.15 19.1 8.15 19.1 L8.15 20.75 11.5 20.75 11.5 20.75 15.3 20.75 Q15.3 20.75 17.85 20.75 L17.85 18.05 17.0 18.05 Q17.0 18.05 16.95 18.05 16.9 18.1 16.85 18.15 16.75 18.2 16.65 18.25 16.5 18.3 16.3 18.35 16.1 18.4 15.85 18.45 15.55 18.5 15.2 18.55 14.85 18.6 14.4 18.6 13.95 18.65 13.45 18.65 13.15 18.65 12.85 18.55 12.6 18.5 12.4 18.4 12.2 18.25 12.0 18.1 11.9 17.95 11.75 17.8 11.65 17.6 11.55 17.4 11.5 17.25 11.45 17.05 11.4 16.9 11.4 16.75 11.35 16.65 11.35 16.5 L11.35 13.7 13.35 13.7 Q13.4 13.7 13.45 13.7 13.6 13.7 13.75 13.7 13.95 13.7 14.15 13.65 14.4 13.65 14.65 13.6 14.9 13.6 15.15 13.55 15.4 13.45 15.6 13.4 15.85 13.35 15.95 13.25 16.15 13.15 16.2 13.0 L16.4 12.4 16.65 11.75 Q16.65 11.75 16.45 11.8 16.2 11.85 15.85 11.85 15.35 11.9 14.65 11.95 13.8 11.95 12.7 11.9 12.7 11.9 12.7 11.9 12.7 11.95 12.65 11.95 12.6 12.0 12.6 12.05 12.5 12.05 12.45 12.1 12.35 12.15 12.25 12.2 12.15 12.25 12.05 12.25 11.9 12.3 11.75 12.3 11.55 12.35 11.35 12.35 L11.35 10.05 11.2 10.15 11.1 10.25 11.05 10.3 10.95 10.2 10.8 10.2 10.8 10.05 10.85 10.1 10.9 10.0 10.95 9.9 11.15 9.9 11.2 9.8 11.35 9.7 11.35 8.1 Q11.4 7.95 11.5 7.8 11.55 7.7 11.7 7.6 11.8 7.5 11.95 7.45 12.1 7.4 12.25 7.35 12.4 7.3 12.55 7.3 12.7 7.3 12.8 7.3 12.9 7.3 13.0 7.3 13.0 7.3 13.05 7.3 L14.25 7.3 Q14.25 7.3 14.35 7.3 14.5 7.3 14.65 7.3 14.85 7.3 15.05 7.35 15.3 7.35 15.55 7.4 15.8 7.4 16.05 7.5 16.3 7.55 16.5 7.65 16.75 7.75 16.9 7.85 17.1 7.95 17.15 8.15 L17.85 8.15" fill="#f1edf8" fill-rule="evenodd" stroke="none"/>
    </g>
  </defs>
</svg>
