<?xml version="1.0" encoding="UTF-8" standalone="no"?>
<svg xmlns:ffdec="https://www.free-decompiler.com/flash" xmlns:xlink="http://www.w3.org/1999/xlink" ffdec:objectType="frame" height="26.55px" width="70.8px" xmlns="http://www.w3.org/2000/svg">
  <g transform="matrix(1.0, 0.0, 0.0, 1.0, 0.2, 0.4)">
    <use ffdec:characterId="3" height="26.0" transform="matrix(1.0, 0.0, 0.0, 1.0, 0.0, 0.0)" width="26.0" xlink:href="#shape0"/>
    <use ffdec:characterId="33" height="26.0" transform="matrix(1.0, 0.0, 0.0, 1.0, 0.0, 0.0)" width="26.0" xlink:href="#shape1"/>
    <use ffdec:characterId="33" height="26.0" transform="matrix(1.0, 0.0, 0.0, 1.0, 0.0, 0.0)" width="26.0" xlink:href="#shape1"/>
  </g>
  <defs>
    <g id="shape0" transform="matrix(1.0, 0.0, 0.0, 1.0, 0.0, 0.0)">
      <path d="M23.5 2.45 Q23.5 2.5 23.5 2.5 23.5 2.55 23.5 2.55 23.5 2.55 23.5 2.55 23.5 2.6 23.5 2.6 L23.5 4.05 22.85 3.8 23.5 4.5 23.5 5.25 22.95 5.25 23.5 6.45 23.5 7.1 23.3 8.15 23.5 7.8 23.5 9.55 22.85 9.85 23.15 10.05 23.75 9.8 23.75 8.05 23.5 8.4 23.75 7.35 23.75 6.7 23.2 5.5 23.75 5.5 23.75 4.75 23.1 4.05 23.75 4.3 23.75 2.85 Q23.75 2.8 23.75 2.8 23.75 2.7 23.75 2.65 23.75 2.55 23.7 2.55 23.7 2.5 23.65 2.5 23.6 2.5 23.5 2.45 L23.5 2.45 M23.5 10.4 L23.5 22.5 23.5 23.15 Q23.5 23.4 23.5 23.4 23.45 23.5 23.4 23.5 23.35 23.5 23.15 23.5 L22.5 23.5 21.85 23.5 20.95 23.5 21.0 23.75 22.1 23.75 22.75 23.75 23.4 23.75 Q23.65 23.75 23.7 23.75 23.75 23.7 23.75 23.4 L23.75 22.75 23.75 10.55 23.5 10.4 M20.7 22.75 L19.95 23.5 16.1 23.5 15.25 23.05 15.2 23.5 14.15 23.5 13.9 23.5 12.75 23.4 12.05 23.5 10.85 23.5 10.7 23.3 10.2 23.55 9.7 23.5 8.85 23.25 8.4 23.5 7.5 23.5 7.25 23.35 6.45 23.5 5.85 23.5 5.2 23.5 4.55 23.5 3.95 23.45 3.25 23.5 2.85 23.5 Q2.85 23.55 2.85 23.6 2.85 23.65 2.85 23.7 2.8 23.7 2.8 23.75 2.85 23.75 2.85 23.75 2.85 23.75 2.85 23.75 L3.5 23.75 4.2 23.7 4.8 23.75 5.45 23.75 6.05 23.75 6.7 23.75 7.45 23.6 7.75 23.75 8.65 23.75 9.1 23.5 9.9 23.75 10.45 23.8 10.95 23.55 11.1 23.75 12.3 23.75 13.0 23.65 14.1 23.75 14.4 23.75 15.4 23.75 15.5 23.3 16.35 23.75 20.15 23.75 20.75 23.2 20.7 22.75" fill="#ffffff" fill-rule="evenodd" stroke="none"/>
      <path d="M2.6 2.2 L5.95 2.2 6.2 2.65 6.5 2.4 7.75 2.2 13.5 2.2 13.7 2.7 14.15 2.2 15.45 2.2 16.65 2.2 17.15 2.65 17.35 2.2 18.0 2.2 23.15 2.2 Q23.35 2.2 23.4 2.25 23.45 2.25 23.5 2.35 23.5 2.4 23.5 2.55 23.5 2.55 23.5 2.6 L23.5 4.05 22.85 3.8 23.5 4.5 23.5 5.25 22.95 5.25 23.5 6.45 23.5 7.1 23.3 8.15 23.5 7.8 23.5 9.55 22.85 9.85 23.5 10.3 23.5 22.5 23.5 23.15 Q23.5 23.4 23.5 23.4 23.45 23.5 23.4 23.5 23.35 23.5 23.15 23.5 L22.5 23.5 21.85 23.5 20.75 23.5 20.7 22.75 19.95 23.5 16.1 23.5 15.25 23.05 15.2 23.5 14.15 23.5 13.9 23.5 12.75 23.4 12.05 23.5 10.85 23.5 10.7 23.3 10.2 23.55 9.7 23.5 8.85 23.25 8.4 23.5 7.5 23.5 7.25 23.35 6.45 23.5 5.85 23.5 5.2 23.5 4.55 23.5 3.95 23.45 3.25 23.5 2.6 23.5 Q2.6 23.5 2.6 23.5 2.6 23.5 2.6 23.5 2.4 23.5 2.35 23.5 2.3 23.5 2.25 23.45 2.25 23.4 2.25 23.2 2.25 23.2 2.25 23.2 2.25 23.2 2.25 23.2 2.25 23.15 2.25 23.15 L2.25 17.7 3.05 17.5 2.25 16.75 2.25 16.1 2.25 15.45 2.25 14.45 2.65 14.15 2.25 13.9 2.25 10.65 2.65 10.45 2.25 9.9 2.25 9.0 2.25 8.35 2.25 7.7 2.75 7.2 2.25 6.85 2.25 2.6 Q2.25 2.55 2.25 2.55 2.25 2.4 2.25 2.35 2.3 2.25 2.35 2.25 2.4 2.2 2.55 2.2 2.55 2.2 2.6 2.2 2.6 2.2 2.6 2.2 2.6 2.2 2.6 2.2 L2.6 2.2" fill="#000000" fill-rule="evenodd" stroke="none"/>
    </g>
    <g id="shape1" transform="matrix(1.0, 0.0, 0.0, 1.0, 0.0, 0.0)">
      <path d="M16.0 15.8 Q16.0 15.8 15.95 15.75 15.9 15.7 15.85 15.65 15.75 15.55 15.7 15.45 15.55 15.3 15.45 15.15 15.35 15.0 15.25 14.85 15.1 14.65 15.0 14.45 14.85 14.25 14.75 14.05 14.6 13.8 14.55 13.6 14.85 13.6 14.7 13.6 14.9 13.55 15.1 13.55 15.35 13.45 15.65 13.4 15.95 13.25 16.25 13.1 16.6 12.9 16.9 12.65 17.25 12.35 17.45 11.95 17.7 11.5 17.85 11.0 18.0 10.45 18.0 9.75 18.0 8.95 17.8 8.25 17.6 7.65 17.25 7.15 16.9 6.7 16.45 6.35 16.05 6.0 15.55 5.8 15.1 5.6 14.65 5.5 14.25 5.4 13.85 5.3 13.55 5.3 13.3 5.25 13.2 5.25 13.05 5.25 L7.4 5.25 7.4 5.4 7.4 6.25 7.95 6.8 7.95 7.2 8.05 7.3 8.05 8.75 8.25 8.75 8.25 9.05 8.65 9.15 9.15 9.25 9.05 9.35 8.3 9.35 8.2 9.6 8.15 9.9 8.15 17.85 Q8.15 17.85 8.15 17.95 8.15 18.05 8.15 18.15 8.1 18.3 8.1 18.4 8.1 18.6 8.05 18.75 8.0 18.95 7.95 19.1 7.9 19.25 7.8 19.35 7.75 19.5 7.65 19.55 7.55 19.65 7.4 19.65 L7.4 20.75 11.2 20.75 11.2 19.7 Q11.2 19.7 11.15 19.7 11.15 19.7 11.1 19.7 11.05 19.65 11.0 19.65 10.95 19.6 10.85 19.5 10.8 19.45 10.75 19.3 10.7 19.15 10.65 19.0 10.6 18.8 10.6 18.55 10.55 18.25 10.55 17.9 L10.55 12.3 10.35 12.1 10.4 12.0 10.5 12.0 10.5 10.25 10.45 10.05 10.35 9.85 10.4 9.3 10.45 9.1 10.5 9.25 10.5 9.1 10.5 7.4 13.1 7.4 Q13.1 7.4 13.2 7.4 13.35 7.4 13.5 7.45 13.75 7.45 13.95 7.5 14.2 7.6 14.4 7.65 14.7 7.8 14.9 7.9 15.15 8.1 15.3 8.3 15.5 8.55 15.6 8.85 15.75 9.15 15.75 9.55 L15.75 9.85 Q15.75 9.85 15.75 9.95 15.75 10.05 15.7 10.2 15.65 10.35 15.6 10.55 15.55 10.75 15.4 10.95 15.3 11.15 15.1 11.35 14.9 11.55 14.6 11.7 14.3 11.85 13.9 11.95 13.5 12.05 13.0 12.05 L12.3 12.05 12.3 14.85 14.0 17.8 Q14.0 17.8 14.1 17.9 14.2 18.05 14.3 18.25 14.45 18.5 14.65 18.7 14.85 19.0 15.05 19.25 15.3 19.55 15.55 19.75 15.85 20.05 16.05 20.25 16.35 20.45 16.6 20.6 16.85 20.75 17.05 20.75 L18.6 20.75 18.6 19.75 Q18.6 19.75 18.5 19.75 18.45 19.7 18.3 19.65 18.15 19.6 18.0 19.5 17.85 19.35 17.65 19.15 17.45 18.95 17.25 18.7 17.0 18.4 16.8 18.0 16.6 17.55 16.4 17.05 16.2 16.5 16.0 15.8 L16.0 15.8" fill="#f1edf8" fill-rule="evenodd" stroke="none"/>
    </g>
  </defs>
</svg>
