<?xml version="1.0" encoding="UTF-8" standalone="no"?>
<svg xmlns:ffdec="https://www.free-decompiler.com/flash" xmlns:xlink="http://www.w3.org/1999/xlink" ffdec:objectType="frame" height="26.55px" width="70.8px" xmlns="http://www.w3.org/2000/svg">
  <g transform="matrix(1.0, 0.0, 0.0, 1.0, 0.2, 0.4)">
    <use ffdec:characterId="3" height="26.0" transform="matrix(1.0, 0.0, 0.0, 1.0, 0.0, 0.0)" width="26.0" xlink:href="#shape0"/>
    <use ffdec:characterId="4" height="26.0" transform="matrix(1.0, 0.0, 0.0, 1.0, 0.0, 0.0)" width="26.0" xlink:href="#shape1"/>
    <use ffdec:characterId="4" height="26.0" transform="matrix(1.0, 0.0, 0.0, 1.0, 0.0, 0.0)" width="26.0" xlink:href="#shape1"/>
    <use ffdec:characterId="5" height="26.0" transform="matrix(1.0, 0.0, 0.0, 1.0, 0.0, 0.0)" width="26.0" xlink:href="#shape2"/>
    <use ffdec:characterId="5" height="26.0" transform="matrix(1.0, 0.0, 0.0, 1.0, 0.0, 0.0)" width="26.0" xlink:href="#shape2"/>
  </g>
  <defs>
    <g id="shape0" transform="matrix(1.0, 0.0, 0.0, 1.0, 0.0, 0.0)">
      <path d="M23.5 2.45 Q23.5 2.5 23.5 2.5 23.5 2.55 23.5 2.55 23.5 2.55 23.5 2.55 23.5 2.6 23.5 2.6 L23.5 4.05 22.85 3.8 23.5 4.5 23.5 5.25 22.95 5.25 23.5 6.45 23.5 7.1 23.3 8.15 23.5 7.8 23.5 9.55 22.85 9.85 23.15 10.05 23.75 9.8 23.75 8.05 23.5 8.4 23.75 7.35 23.75 6.7 23.2 5.5 23.75 5.5 23.75 4.75 23.1 4.05 23.75 4.3 23.75 2.85 Q23.75 2.8 23.75 2.8 23.75 2.7 23.75 2.65 23.75 2.55 23.7 2.55 23.7 2.5 23.65 2.5 23.6 2.5 23.5 2.45 L23.5 2.45 M23.5 10.4 L23.5 22.5 23.5 23.15 Q23.5 23.4 23.5 23.4 23.45 23.5 23.4 23.5 23.35 23.5 23.15 23.5 L22.5 23.5 21.85 23.5 20.95 23.5 21.0 23.75 22.1 23.75 22.75 23.75 23.4 23.75 Q23.65 23.75 23.7 23.75 23.75 23.7 23.75 23.4 L23.75 22.75 23.75 10.55 23.5 10.4 M20.7 22.75 L19.95 23.5 16.1 23.5 15.25 23.05 15.2 23.5 14.15 23.5 13.9 23.5 12.75 23.4 12.05 23.5 10.85 23.5 10.7 23.3 10.2 23.55 9.7 23.5 8.85 23.25 8.4 23.5 7.5 23.5 7.25 23.35 6.45 23.5 5.85 23.5 5.2 23.5 4.55 23.5 3.95 23.45 3.25 23.5 2.85 23.5 Q2.85 23.55 2.85 23.6 2.85 23.65 2.85 23.7 2.8 23.7 2.8 23.75 2.85 23.75 2.85 23.75 2.85 23.75 2.85 23.75 L3.5 23.75 4.2 23.7 4.8 23.75 5.45 23.75 6.05 23.75 6.7 23.75 7.45 23.6 7.75 23.75 8.65 23.75 9.1 23.5 9.9 23.75 10.45 23.8 10.95 23.55 11.1 23.75 12.3 23.75 13.0 23.65 14.1 23.75 14.4 23.75 15.4 23.75 15.5 23.3 16.35 23.75 20.15 23.75 20.75 23.2 20.7 22.75" fill="#ffffff" fill-rule="evenodd" stroke="none"/>
      <path d="M2.6 2.2 L5.95 2.2 6.2 2.65 6.5 2.4 7.75 2.2 13.5 2.2 13.7 2.7 14.15 2.2 15.45 2.2 16.65 2.2 17.15 2.65 17.35 2.2 18.0 2.2 23.15 2.2 Q23.35 2.2 23.4 2.25 23.45 2.25 23.5 2.35 23.5 2.4 23.5 2.55 23.5 2.55 23.5 2.6 L23.5 4.05 22.85 3.8 23.5 4.5 23.5 5.25 22.95 5.25 23.5 6.45 23.5 7.1 23.3 8.15 23.5 7.8 23.5 9.55 22.85 9.85 23.5 10.3 23.5 22.5 23.5 23.15 Q23.5 23.4 23.5 23.4 23.45 23.5 23.4 23.5 23.35 23.5 23.15 23.5 L22.5 23.5 21.85 23.5 20.75 23.5 20.7 22.75 19.95 23.5 16.1 23.5 15.25 23.05 15.2 23.5 14.15 23.5 13.9 23.5 12.75 23.4 12.05 23.5 10.85 23.5 10.7 23.3 10.2 23.55 9.7 23.5 8.85 23.25 8.4 23.5 7.5 23.5 7.25 23.35 6.45 23.5 5.85 23.5 5.2 23.5 4.55 23.5 3.95 23.45 3.25 23.5 2.6 23.5 Q2.6 23.5 2.6 23.5 2.6 23.5 2.6 23.5 2.4 23.5 2.35 23.5 2.3 23.5 2.25 23.45 2.25 23.4 2.25 23.2 2.25 23.2 2.25 23.2 2.25 23.2 2.25 23.2 2.25 23.15 2.25 23.15 L2.25 17.7 3.05 17.5 2.25 16.75 2.25 16.1 2.25 15.45 2.25 14.45 2.65 14.15 2.25 13.9 2.25 10.65 2.65 10.45 2.25 9.9 2.25 9.0 2.25 8.35 2.25 7.7 2.75 7.2 2.25 6.85 2.25 2.6 Q2.25 2.55 2.25 2.55 2.25 2.4 2.25 2.35 2.3 2.25 2.35 2.25 2.4 2.2 2.55 2.2 2.55 2.2 2.6 2.2 2.6 2.2 2.6 2.2 2.6 2.2 2.6 2.2 L2.6 2.2" fill="#000000" fill-rule="evenodd" stroke="none"/>
    </g>
    <g id="shape1" transform="matrix(1.0, 0.0, 0.0, 1.0, 0.0, 0.0)">
      <path d="M7.9 16.0 L7.1 17.25 7.9 18.6 9.25 18.6 10.05 17.3 9.25 16.0 7.9 16.0 M7.75 4.7 Q7.75 4.7 7.75 4.7 7.55 4.75 7.7 4.7 7.65 4.75 7.6 4.75 7.55 4.75 7.55 4.8 7.5 4.8 7.45 4.85 7.4 4.9 7.4 4.95 7.35 5.05 7.35 5.1 7.35 5.2 7.35 5.35 L8.0 14.45 Q8.0 14.7 8.0 14.95 L8.75 14.8 Q8.8 14.8 8.85 14.75 8.9 14.75 8.95 14.7 9.0 14.7 9.05 14.65 9.1 14.6 9.15 14.55 9.15 14.5 9.2 14.5 9.2 14.45 9.25 14.4 9.25 14.35 9.25 14.3 9.3 14.25 9.3 14.15 L9.95 5.4 9.95 5.3 Q10.05 4.85 10.2 4.4 L7.75 4.7" fill="#f1edf8" fill-rule="evenodd" stroke="none"/>
    </g>
    <g id="shape2" transform="matrix(1.0, 0.0, 0.0, 1.0, 0.0, 0.0)">
      <path d="M16.05 8.75 Q15.85 8.75 15.7 8.85 15.6 8.9 15.5 9.0 15.45 9.1 15.45 9.3 15.45 9.4 15.45 9.6 15.5 9.7 15.55 9.85 15.6 10.0 15.65 10.15 15.7 10.25 15.7 10.3 15.75 10.35 15.75 10.4 15.75 10.3 15.8 10.25 15.8 10.2 15.85 10.15 15.9 10.1 16.0 10.05 16.05 10.0 16.1 10.0 16.2 9.95 16.25 9.95 16.3 9.95 16.4 9.9 16.4 9.9 16.45 9.9 16.5 9.9 16.5 9.9 16.65 9.9 16.75 9.95 16.85 9.95 16.9 10.0 17.0 10.05 17.05 10.15 17.1 10.25 17.15 10.35 17.2 10.45 17.25 10.6 17.25 10.7 17.3 10.9 17.3 11.05 17.3 11.25 17.3 11.4 17.3 11.65 L17.3 17.85 Q17.3 18.05 17.3 18.3 17.3 18.5 17.25 18.7 17.25 18.9 17.2 19.1 17.15 19.3 17.1 19.5 17.05 19.65 17.0 19.8 16.95 19.95 16.85 20.05 16.75 20.15 16.7 20.2 16.6 20.25 16.5 20.25 L16.2 20.25 16.2 21.7 20.2 21.7 20.2 20.25 19.9 20.25 Q19.8 20.25 19.75 20.2 19.65 20.15 19.6 20.05 19.5 19.95 19.45 19.8 19.4 19.65 19.35 19.5 19.3 19.3 19.25 19.1 19.2 18.9 19.2 18.7 19.15 18.5 19.15 18.3 19.15 18.05 19.15 17.85 L19.15 7.75 18.45 7.75 Q18.4 7.8 18.15 8.0 17.95 8.1 17.85 8.2 17.7 8.3 17.6 8.35 17.45 8.45 17.35 8.5 17.2 8.55 17.05 8.6 16.95 8.65 16.8 8.7 16.65 8.75 16.45 8.75 16.3 8.75 16.1 8.75 L16.05 8.75" fill="#f1edf8" fill-rule="evenodd" stroke="none"/>
    </g>
  </defs>
</svg>
