<?xml version="1.0" encoding="UTF-8" standalone="no"?>
<svg xmlns:ffdec="https://www.free-decompiler.com/flash" xmlns:xlink="http://www.w3.org/1999/xlink" ffdec:objectType="frame" height="26.55px" width="70.8px" xmlns="http://www.w3.org/2000/svg">
  <g transform="matrix(1.0, 0.0, 0.0, 1.0, 0.2, 0.4)">
    <use ffdec:characterId="1" height="26.0" transform="matrix(1.0, 0.0, 0.0, 1.0, 0.0, 0.0)" width="35.75" xlink:href="#shape0"/>
    <use ffdec:characterId="114" height="26.0" transform="matrix(1.0, 0.0, 0.0, 1.0, 0.0, 0.0)" width="41.75" xlink:href="#shape1"/>
    <use ffdec:characterId="114" height="26.0" transform="matrix(1.0, 0.0, 0.0, 1.0, 0.0, 0.0)" width="41.75" xlink:href="#shape1"/>
  </g>
  <defs>
    <g id="shape0" transform="matrix(1.0, 0.0, 0.0, 1.0, 0.0, 0.0)">
      <path d="M33.35 2.45 Q33.35 2.5 33.35 2.55 33.35 2.55 33.35 2.6 L33.35 4.05 32.7 3.8 33.35 4.5 33.35 5.25 32.8 5.25 33.35 6.45 33.35 7.1 33.1 8.15 33.35 7.8 33.35 9.55 32.7 9.85 33.0 10.05 33.6 9.8 33.6 8.05 33.35 8.4 33.6 7.35 33.6 6.7 33.05 5.5 33.6 5.5 33.6 4.75 32.95 4.05 33.6 4.3 33.6 2.85 Q33.6 2.8 33.6 2.8 33.6 2.7 33.6 2.65 33.55 2.55 33.55 2.55 33.5 2.5 33.45 2.5 33.45 2.5 33.35 2.45 L33.35 2.45 M33.35 10.4 L33.35 22.5 33.35 23.15 Q33.35 23.4 33.35 23.4 33.3 23.5 33.25 23.5 33.2 23.5 33.0 23.5 L32.35 23.5 31.7 23.5 30.8 23.5 30.85 23.75 31.95 23.75 32.6 23.75 33.2 23.75 Q33.45 23.75 33.45 23.75 33.55 23.75 33.55 23.65 33.55 23.65 33.6 23.4 L33.6 22.75 33.6 10.55 33.35 10.4 33.35 10.4 M30.55 22.75 L29.75 23.5 25.95 23.5 25.1 23.05 25.0 23.5 24.0 23.5 23.7 23.5 22.6 23.4 21.9 23.5 20.7 23.5 20.55 23.3 20.05 23.55 9.6 23.5 8.75 23.25 8.3 23.5 7.45 23.5 7.15 23.35 6.4 23.5 5.75 23.5 5.1 23.5 4.45 23.5 3.85 23.45 3.15 23.5 2.75 23.5 Q2.75 23.55 2.75 23.65 2.75 23.7 2.75 23.75 2.75 23.75 2.75 23.75 2.75 23.75 2.75 23.75 L3.4 23.75 4.1 23.7 4.7 23.75 5.35 23.75 5.95 23.75 6.6 23.75 7.4 23.6 7.65 23.75 8.55 23.75 18.95 23.75 19.75 23.75 20.3 23.8 20.8 23.55 20.9 23.75 22.15 23.75 22.85 23.65 23.95 23.75 24.25 23.75 25.25 23.75 25.35 23.3 26.15 23.75 30.0 23.75 30.55 23.2 30.55 22.75 30.55 22.75" fill="#ffffff" fill-rule="evenodd" stroke="none"/>
      <path d="M2.55 2.2 L5.85 2.2 6.1 2.65 6.4 2.4 7.65 2.2 13.45 2.2 13.6 2.7 14.05 2.2 15.35 2.2 26.5 2.2 27.0 2.65 27.2 2.2 27.85 2.2 33.0 2.2 Q33.2 2.2 33.25 2.25 33.3 2.25 33.35 2.35 33.35 2.4 33.35 2.55 33.35 2.55 33.35 2.6 L33.35 4.05 32.7 3.8 33.35 4.5 33.35 5.25 32.8 5.25 33.35 6.45 33.35 7.1 33.1 8.15 33.35 7.8 33.35 9.55 32.7 9.85 33.35 10.3 33.35 22.5 33.35 23.15 Q33.35 23.4 33.35 23.4 33.3 23.5 33.25 23.5 33.2 23.5 33.0 23.5 L32.35 23.5 31.7 23.5 30.6 23.5 30.5 22.75 29.75 23.5 25.95 23.5 25.1 23.05 25.0 23.5 24.0 23.5 23.7 23.5 22.6 23.4 21.9 23.5 20.7 23.5 20.55 23.3 20.05 23.55 9.6 23.5 8.75 23.25 8.3 23.5 7.45 23.5 7.15 23.35 6.4 23.5 5.75 23.5 5.1 23.5 4.45 23.5 3.85 23.45 3.15 23.5 2.55 23.5 Q2.5 23.5 2.5 23.5 2.5 23.5 2.5 23.5 2.3 23.5 2.25 23.5 2.2 23.5 2.15 23.45 2.15 23.4 2.2 23.2 2.2 23.2 2.15 23.2 2.15 23.2 2.15 23.2 2.15 23.15 2.15 23.15 L2.15 17.7 2.95 17.5 2.15 16.75 2.15 16.1 2.15 15.45 2.15 14.45 2.6 14.15 2.15 13.9 2.15 10.65 2.55 10.45 2.15 9.9 2.15 9.0 2.15 8.35 2.15 7.7 2.65 7.2 2.15 6.85 2.15 2.6 Q2.15 2.55 2.15 2.55 2.15 2.4 2.2 2.35 2.2 2.25 2.25 2.25 2.3 2.2 2.45 2.2 2.5 2.2 2.5 2.2 2.5 2.2 2.5 2.2 2.5 2.2 2.55 2.2 2.55 2.2 2.55 2.2 L2.55 2.2" fill="#000000" fill-rule="evenodd" stroke="none"/>
    </g>
    <g id="shape1" transform="matrix(1.0, 0.0, 0.0, 1.0, 0.0, 0.0)">
      <path d="M11.6 11.95 Q11.6 11.95 11.75 11.95 11.9 11.95 12.05 11.9 12.3 11.9 12.55 11.8 12.85 11.75 13.15 11.65 13.45 11.5 13.7 11.3 14.0 11.1 14.2 10.85 14.4 10.55 14.55 10.2 14.65 9.8 14.65 9.35 14.65 8.8 14.5 8.4 14.4 7.95 14.2 7.65 13.95 7.35 13.7 7.1 13.4 6.9 13.1 6.75 12.85 6.65 12.55 6.55 12.3 6.5 12.05 6.45 11.85 6.45 11.7 6.4 11.6 6.4 11.55 6.4 L8.0 6.4 8.0 6.5 8.0 7.05 8.3 7.4 8.3 7.65 8.4 7.7 8.4 8.6 8.45 8.6 8.45 8.8 8.75 8.85 9.05 8.95 9.0 9.0 8.55 9.0 8.45 9.15 8.4 9.35 8.4 14.15 Q8.4 14.15 8.4 14.2 8.4 14.25 8.4 14.3 8.4 14.4 8.4 14.5 8.4 14.6 8.35 14.7 8.35 14.8 8.3 14.9 8.3 15.0 8.25 15.1 8.2 15.2 8.15 15.3 8.05 15.4 8.0 15.45 L8.0 16.15 10.35 16.15 10.35 15.4 Q10.35 15.4 10.35 15.4 10.3 15.4 10.25 15.35 10.25 15.35 10.2 15.3 10.15 15.3 10.1 15.2 10.05 15.15 10.05 15.1 10.0 15.0 9.95 14.9 9.95 14.75 9.95 14.65 9.9 14.5 9.95 14.3 L9.95 10.7 9.8 10.6 9.85 10.5 9.9 10.5 9.9 9.4 9.9 9.3 9.8 9.15 9.85 8.75 9.85 8.65 9.9 8.75 9.9 8.65 9.9 7.75 11.75 7.75 Q11.75 7.75 11.8 7.75 11.9 7.75 12.0 7.8 12.1 7.8 12.2 7.85 12.35 7.9 12.5 7.95 12.65 8.05 12.8 8.15 12.9 8.25 13.0 8.45 13.15 8.6 13.2 8.8 13.3 9.05 13.3 9.3 13.3 9.3 13.3 9.35 13.3 9.45 13.3 9.55 13.25 9.65 13.2 9.75 13.15 9.9 13.05 10.05 12.95 10.2 12.8 10.3 12.6 10.45 12.35 10.5 12.1 10.6 11.75 10.65 11.35 10.7 10.9 10.65 L10.85 10.65 10.85 11.55 11.6 11.95" fill="#f1edf8" fill-rule="evenodd" stroke="none"/>
      <path d="M19.8 10.45 L19.5 10.3 17.85 10.7 Q17.75 10.65 17.7 10.6 17.6 10.55 17.55 10.5 17.45 10.5 17.35 10.45 17.25 10.4 17.2 10.4 17.1 10.35 17.0 10.35 16.9 10.3 16.8 10.3 16.7 10.3 16.6 10.3 16.5 10.3 16.4 10.3 16.15 10.3 15.85 10.35 15.6 10.35 15.35 10.45 15.1 10.5 14.9 10.6 14.65 10.75 14.5 10.9 14.3 11.05 14.15 11.25 14.0 11.45 13.85 11.7 13.75 11.95 13.7 12.2 13.65 12.5 13.65 12.85 13.65 13.05 13.65 13.25 13.7 13.45 13.75 13.65 13.75 13.85 13.85 14.0 13.9 14.15 13.95 14.3 14.05 14.45 14.1 14.6 14.2 14.75 14.25 14.85 14.35 14.95 14.4 15.05 14.5 15.1 14.55 15.15 14.5 15.2 14.45 15.2 14.45 15.25 14.4 15.3 14.35 15.35 14.3 15.35 14.25 15.4 14.25 15.45 14.2 15.45 14.15 15.5 14.1 15.5 14.05 15.55 14.0 15.55 13.95 15.55 13.9 15.55 13.8 15.55 13.8 15.55 13.8 15.6 13.8 15.65 13.85 15.7 13.85 15.8 13.9 15.85 13.9 15.95 13.95 16.05 14.0 16.15 14.05 16.25 14.1 16.35 14.2 16.45 14.25 16.55 14.35 16.6 14.45 16.7 14.6 16.75 14.05 17.2 14.0 17.3 13.85 17.7 13.65 18.1 13.65 18.1 13.65 18.35 13.65 18.4 13.65 18.45 13.7 18.45 13.7 18.5 13.75 18.6 13.75 18.65 13.8 18.7 13.85 18.75 13.9 18.85 13.95 18.9 14.0 18.95 14.05 19.0 14.1 19.05 14.15 19.1 14.2 19.15 14.25 19.2 14.35 19.25 14.45 19.3 14.6 19.35 14.7 19.4 14.8 19.4 14.95 19.45 15.05 19.5 15.2 19.5 15.3 19.55 15.45 19.55 15.55 19.55 15.7 19.55 15.85 19.6 16.0 19.6 16.1 19.6 16.25 19.6 16.85 19.6 16.65 19.6 16.9 19.6 17.05 19.6 17.25 19.6 17.45 19.55 17.6 19.55 17.8 19.55 18.0 19.5 18.15 19.45 18.3 19.45 18.45 19.4 18.6 19.3 18.75 19.25 18.9 19.15 19.0 19.1 19.1 19.05 19.15 18.95 19.25 18.85 19.3 18.75 19.35 18.65 19.4 18.5 19.45 18.4 19.5 18.3 19.55 18.15 19.6 18.05 19.6 17.95 19.65 17.8 19.65 17.7 19.65 17.6 19.7 17.5 19.7 17.45 19.7 17.4 19.7 17.35 19.7 17.3 19.65 17.2 19.65 17.15 19.65 17.1 19.6 17.05 19.6 17.0 19.55 16.95 19.55 16.9 19.5 16.85 19.5 16.8 19.45 16.75 19.4 16.7 19.4 16.65 19.35 16.6 19.3 16.55 19.25 16.5 19.2 16.45 19.15 16.4 19.1 16.35 19.05 16.35 19.0 16.3 18.95 16.25 18.9 16.25 18.8 16.2 18.75 16.2 18.7 16.15 18.65 16.15 18.55 16.15 18.5 16.1 18.4 16.1 17.35 16.0 16.75 15.95 16.65 15.95 16.6 15.95 16.5 15.95 16.45 15.95 16.35 15.95 16.3 15.95 16.25 15.95 16.15 15.95 16.1 15.95 16.05 15.95 15.85 15.95 16.0 15.95 15.95 15.95 15.9 15.95 15.9 15.95 15.85 15.95 15.8 15.95 15.75 15.9 15.7 15.9 15.7 15.9 15.65 15.85 15.6 15.85 15.55 15.85 15.55 15.8 15.5 15.8 15.5 15.8 15.45 15.75 15.45 15.75 15.45 15.75 15.4 15.75 15.35 15.6 15.35 15.6 15.35 15.55 15.35 15.45 15.35 15.35 15.4 15.3 15.45 15.35 15.55 15.35 15.6 15.4 15.65 15.4 15.75 15.45 15.8 15.45 15.85 15.45 15.95 15.45 16.0 15.5 16.1 15.5 16.2 15.5 16.25 15.5 16.35 15.5 16.4 15.5 16.5 15.5 16.6 15.5 16.85 15.5 17.1 15.45 17.35 15.4 17.6 15.3 17.8 15.2 18.0 15.1 18.2 14.95 18.35 14.8 18.5 14.6 18.65 14.4 18.75 14.2 18.85 13.95 18.9 13.7 18.95 13.45 19.0 13.15 19.0 12.85 19.0 12.75 19.0 12.6 19.0 12.5 19.0 12.4 18.95 12.3 18.95 12.2 18.9 12.1 18.9 12.05 18.85 11.95 18.8 11.85 18.75 11.75 18.7 11.7 18.65 11.6 18.55 11.5 18.5 11.45 18.4 11.35 L19.0 11.5 Q19.05 11.5 19.15 11.45 19.25 11.4 19.3 11.35 19.35 11.25 19.45 11.15 19.5 11.05 19.55 10.95 19.6 10.85 19.65 10.75 19.7 10.7 19.75 10.6 19.8 10.55 19.8 10.5 19.8 10.45 19.8 10.45 L19.8 10.45 M15.7 16.85 Q16.25 16.95 17.1 17.0 17.3 17.0 17.85 17.15 18.0 17.2 18.1 17.2 18.2 17.25 18.25 17.3 18.3 17.35 18.35 17.35 18.4 17.4 18.45 17.45 18.45 17.45 18.5 17.5 18.5 17.55 18.5 17.55 18.5 17.6 18.5 17.6 18.5 17.8 18.5 17.65 18.5 17.7 18.5 17.75 18.5 17.8 18.5 17.8 18.45 17.85 18.45 17.9 18.45 17.95 18.4 17.95 18.4 18.0 18.35 18.05 18.35 18.1 18.3 18.1 18.25 18.15 18.2 18.2 18.15 18.25 18.1 18.25 18.05 18.25 18.0 18.3 17.95 18.35 17.9 18.35 17.85 18.4 17.75 18.4 17.7 18.45 17.6 18.45 17.5 18.5 17.4 18.5 17.3 18.55 17.2 18.55 17.05 18.55 16.95 18.6 16.8 18.6 16.7 18.6 16.55 18.6 16.4 18.6 16.3 18.6 16.15 18.6 16.05 18.55 15.95 18.55 15.85 18.55 15.75 18.55 15.65 18.5 15.6 18.5 15.5 18.5 15.45 18.45 15.4 18.45 15.35 18.4 15.25 18.35 15.2 18.3 15.15 18.3 15.15 18.25 15.1 18.25 15.1 18.2 15.05 18.2 15.05 18.15 15.0 18.15 15.0 18.1 15.0 18.1 15.0 18.05 15.0 18.05 15.0 18.0 14.95 18.0 14.95 17.95 14.95 17.95 14.95 17.9 14.95 17.85 14.95 17.85 14.95 17.8 15.0 17.8 15.0 17.75 15.0 17.75 15.0 17.7 15.0 17.7 15.05 17.65 15.05 17.65 15.05 17.6 15.1 17.6 15.1 17.55 15.1 17.5 15.15 17.5 15.15 17.45 15.2 17.35 15.7 16.85 L15.7 16.85 M14.1 12.25 L13.9 12.15 14.05 12.15 14.1 12.1 14.15 12.1 14.25 12.0 14.4 12.0 Q14.35 12.0 14.3 12.05 14.25 12.05 14.25 12.05 14.2 12.1 14.15 12.1 14.15 12.15 14.15 12.2 14.1 12.2 14.1 12.2 14.1 12.25 14.1 12.25 14.1 12.25 14.1 12.25 14.1 12.25 14.1 12.25 L14.1 12.25 M16.45 14.4 Q16.4 14.4 16.35 14.4 16.3 14.4 16.2 14.4 16.15 14.4 16.1 14.35 16.0 14.35 15.95 14.35 15.85 14.3 15.8 14.3 15.7 14.25 15.65 14.25 15.55 14.2 15.5 14.15 15.4 14.1 15.3 14.05 15.3 14.05 15.3 14.05 L15.3 14.05 Q15.2 14.0 15.15 13.9 15.1 13.85 15.05 13.75 15.0 13.65 15.0 13.55 14.95 13.45 14.95 13.35 14.95 13.25 14.95 13.15 14.95 13.05 14.95 12.95 14.95 12.9 14.95 12.8 14.95 12.7 14.95 12.7 14.95 12.6 14.95 12.5 15.0 12.35 15.05 12.25 15.05 12.15 15.15 12.0 15.2 11.9 15.3 11.8 15.35 11.7 15.5 11.6 15.6 11.5 15.75 11.45 15.9 11.35 16.05 11.35 16.25 11.3 16.45 11.3 16.6 11.3 16.75 11.35 16.9 11.35 17.05 11.4 17.15 11.5 17.25 11.55 17.35 11.65 17.45 11.75 17.55 11.9 17.6 12.0 17.65 12.15 17.7 12.3 17.75 12.45 17.75 12.6 17.8 12.75 17.8 12.95 17.8 13.1 17.8 13.25 17.75 13.35 17.7 13.5 17.7 13.65 17.6 13.75 17.55 13.85 17.5 13.95 17.4 14.05 17.3 14.15 17.2 14.25 17.05 14.3 16.95 14.35 16.8 14.35 16.65 14.4 16.45 14.4 L16.45 14.4" fill="#f1edf8" fill-rule="evenodd" stroke="none"/>
      <path d="M25.75 6.4 L25.75 6.95 Q25.8 7.0 25.9 7.05 25.95 7.05 25.95 7.15 26.0 7.2 26.05 7.25 26.05 7.3 26.1 7.4 26.1 7.45 26.1 7.5 26.1 7.55 26.1 7.6 26.1 7.65 26.15 7.7 26.15 7.7 26.15 7.7 L26.15 11.9 26.15 12.1 Q26.1 12.4 26.1 12.55 26.1 12.7 26.05 12.85 26.0 13.0 25.95 13.2 25.9 13.4 25.8 13.55 25.7 13.75 25.6 13.9 25.45 14.05 25.3 14.2 25.1 14.35 24.9 14.45 24.65 14.6 24.4 14.65 24.15 14.7 23.8 14.7 23.8 14.7 23.7 14.7 23.6 14.7 23.45 14.7 23.3 14.65 23.15 14.6 22.9 14.5 22.75 14.4 22.5 14.3 22.35 14.1 22.15 13.9 22.0 13.65 21.85 13.35 21.75 13.0 21.65 12.6 21.65 12.1 L21.65 7.7 Q21.65 7.7 21.65 7.65 21.65 7.6 21.65 7.6 21.65 7.55 21.7 7.5 21.7 7.4 21.7 7.35 21.75 7.3 21.75 7.25 21.8 7.15 21.8 7.1 21.85 7.05 21.9 7.0 21.95 6.95 22.05 6.9 L22.05 6.4 19.75 6.4 19.75 6.95 Q19.75 6.95 19.75 6.95 19.8 7.0 19.8 7.0 19.85 7.0 19.85 7.05 19.9 7.05 19.9 7.1 19.95 7.15 20.0 7.2 20.0 7.25 20.05 7.35 20.05 7.4 20.1 7.5 20.1 7.6 20.1 7.7 20.1 10.3 20.1 12.9 20.1 12.9 20.1 13.05 20.15 13.2 20.2 13.4 20.25 13.65 20.35 13.9 20.5 14.25 20.65 14.5 20.85 14.85 21.1 15.1 21.4 15.4 21.75 15.6 22.15 15.85 22.6 16.0 23.1 16.15 23.7 16.15 24.35 16.15 24.95 16.0 25.45 15.9 25.9 15.65 26.3 15.45 26.6 15.15 26.85 14.9 27.1 14.55 27.25 14.3 27.4 14.0 27.5 13.75 27.55 13.5 27.65 13.3 27.65 13.15 27.65 13.1 27.65 13.0 L27.6 13.0 27.65 12.8 27.65 12.7 Q27.7 12.7 27.7 7.7 27.7 7.6 27.7 7.5 27.7 7.4 27.75 7.35 27.75 7.25 27.8 7.2 27.8 7.15 27.85 7.1 27.9 7.05 27.9 7.05 27.95 7.0 28.0 7.0 28.0 7.0 28.0 6.95 28.05 6.95 28.05 6.95 L28.05 6.4 25.75 6.4" fill="#f1edf8" fill-rule="evenodd" stroke="none"/>
      <path d="M31.1 10.35 Q31.1 10.35 31.05 10.35 L31.05 10.35 Q30.9 10.35 30.8 10.35 30.65 10.35 30.55 10.4 30.45 10.4 30.35 10.4 30.25 10.45 30.15 10.45 30.05 10.5 29.95 10.5 29.85 10.55 29.75 10.55 29.7 10.6 29.6 10.65 29.5 10.7 29.4 10.75 L29.4 10.3 28.75 10.3 27.9 10.85 28.0 10.95 Q28.05 10.95 28.1 10.95 28.1 11.0 28.15 11.0 28.15 11.05 28.2 11.1 28.2 11.15 28.25 11.2 28.25 11.25 28.25 11.3 28.25 11.3 28.25 11.35 28.25 11.35 28.25 11.35 28.25 11.35 28.25 11.35 L28.25 11.35 Q28.25 11.35 28.25 11.35 L28.25 12.05 28.25 18.2 Q28.25 18.2 28.25 18.25 28.25 18.25 28.25 18.3 28.25 18.35 28.25 18.4 28.25 18.5 28.25 18.55 28.2 18.65 28.2 18.7 28.15 18.8 28.15 18.85 28.1 18.95 28.05 19.0 28.0 19.05 27.95 19.1 L29.45 19.55 29.8 19.55 Q29.8 19.55 29.8 19.5 29.75 19.5 29.75 19.45 29.7 19.4 29.7 19.3 29.65 19.25 29.65 19.15 29.6 19.05 29.6 18.95 29.55 18.85 29.55 18.75 29.5 18.65 29.5 18.5 29.5 18.4 29.5 18.3 L29.5 17.2 29.4 17.1 29.4 17.0 29.3 17.0 29.25 16.95 29.25 16.9 29.2 16.95 29.2 16.85 29.3 16.85 29.35 16.8 29.4 16.9 29.45 16.95 29.45 15.6 Q29.55 15.7 29.6 15.75 29.7 15.8 29.8 15.85 29.9 15.9 29.95 15.95 30.05 16.0 30.15 16.0 30.25 16.05 30.35 16.05 30.4 16.05 30.5 16.1 30.6 16.1 30.7 16.1 30.75 16.1 30.85 16.1 31.2 16.1 31.5 16.1 31.8 16.05 32.1 15.95 32.35 15.9 32.6 15.75 32.8 15.6 33.0 15.4 33.2 15.25 33.35 15.0 33.45 14.8 33.55 14.5 33.65 14.25 33.7 13.95 33.75 13.65 33.75 13.35 33.75 13.0 33.7 12.65 33.65 12.35 33.55 12.05 33.45 11.8 33.35 11.55 33.2 11.3 33.05 11.15 32.85 10.95 32.65 10.8 32.45 10.65 32.2 10.55 31.95 10.45 31.7 10.4 31.4 10.35 31.1 10.35 L31.1 10.35 M31.0 15.05 Q30.8 15.05 30.6 15.0 30.45 14.95 30.3 14.85 30.15 14.8 30.05 14.65 29.95 14.55 29.85 14.4 29.75 14.3 29.7 14.15 29.6 14.0 29.55 13.85 29.5 13.7 29.5 13.55 29.5 13.45 29.5 13.3 29.5 13.05 29.55 12.85 29.55 12.65 29.6 12.5 29.65 12.3 29.75 12.15 29.85 12.0 29.95 11.9 30.05 11.75 30.15 11.65 30.25 11.6 30.4 11.5 30.5 11.45 30.65 11.45 30.75 11.4 30.9 11.4 31.1 11.4 31.3 11.45 31.45 11.45 31.65 11.55 31.8 11.6 31.95 11.7 32.05 11.8 32.15 11.9 32.3 12.05 32.35 12.2 32.45 12.35 32.5 12.55 32.55 12.7 32.6 12.9 32.65 13.1 32.65 13.35 32.65 13.5 32.6 13.65 32.6 13.85 32.5 14.0 32.45 14.15 32.4 14.25 32.3 14.4 32.2 14.5 32.05 14.65 31.95 14.75 31.8 14.85 31.65 14.9 31.5 14.95 31.35 15.0 31.2 15.05 31.0 15.05 L31.0 15.05" fill="#f1edf8" fill-rule="evenodd" stroke="none"/>
    </g>
  </defs>
</svg>
