<?xml version="1.0" encoding="UTF-8" standalone="no"?>
<svg xmlns:ffdec="https://www.free-decompiler.com/flash" xmlns:xlink="http://www.w3.org/1999/xlink" ffdec:objectType="frame" height="26.55px" width="70.8px" xmlns="http://www.w3.org/2000/svg">
  <g transform="matrix(1.0, 0.0, 0.0, 1.0, 0.2, 0.4)">
    <use ffdec:characterId="1" height="26.0" transform="matrix(1.0, 0.0, 0.0, 1.0, 0.0, 0.0)" width="35.75" xlink:href="#shape0"/>
    <use ffdec:characterId="115" height="26.0" transform="matrix(1.0, 0.0, 0.0, 1.0, 0.0, 0.0)" width="35.75" xlink:href="#shape1"/>
    <use ffdec:characterId="115" height="26.0" transform="matrix(1.0, 0.0, 0.0, 1.0, 0.0, 0.0)" width="35.75" xlink:href="#shape1"/>
  </g>
  <defs>
    <g id="shape0" transform="matrix(1.0, 0.0, 0.0, 1.0, 0.0, 0.0)">
      <path d="M33.35 2.45 Q33.35 2.5 33.35 2.55 33.35 2.55 33.35 2.6 L33.35 4.05 32.7 3.8 33.35 4.5 33.35 5.25 32.8 5.25 33.35 6.45 33.35 7.1 33.1 8.15 33.35 7.8 33.35 9.55 32.7 9.85 33.0 10.05 33.6 9.8 33.6 8.05 33.35 8.4 33.6 7.35 33.6 6.7 33.05 5.5 33.6 5.5 33.6 4.75 32.95 4.05 33.6 4.3 33.6 2.85 Q33.6 2.8 33.6 2.8 33.6 2.7 33.6 2.65 33.55 2.55 33.55 2.55 33.5 2.5 33.45 2.5 33.45 2.5 33.35 2.45 L33.35 2.45 M33.35 10.4 L33.35 22.5 33.35 23.15 Q33.35 23.4 33.35 23.4 33.3 23.5 33.25 23.5 33.2 23.5 33.0 23.5 L32.35 23.5 31.7 23.5 30.8 23.5 30.85 23.75 31.95 23.75 32.6 23.75 33.2 23.75 Q33.45 23.75 33.45 23.75 33.55 23.75 33.55 23.65 33.55 23.65 33.6 23.4 L33.6 22.75 33.6 10.55 33.35 10.4 33.35 10.4 M30.55 22.75 L29.75 23.5 25.95 23.5 25.1 23.05 25.0 23.5 24.0 23.5 23.7 23.5 22.6 23.4 21.9 23.5 20.7 23.5 20.55 23.3 20.05 23.55 9.6 23.5 8.75 23.25 8.3 23.5 7.45 23.5 7.15 23.35 6.4 23.5 5.75 23.5 5.1 23.5 4.45 23.5 3.85 23.45 3.15 23.5 2.75 23.5 Q2.75 23.55 2.75 23.65 2.75 23.7 2.75 23.75 2.75 23.75 2.75 23.75 2.75 23.75 2.75 23.75 L3.4 23.75 4.1 23.7 4.7 23.75 5.35 23.75 5.95 23.75 6.6 23.75 7.4 23.6 7.65 23.75 8.55 23.75 18.95 23.75 19.75 23.75 20.3 23.8 20.8 23.55 20.9 23.75 22.15 23.75 22.85 23.65 23.95 23.75 24.25 23.75 25.25 23.75 25.35 23.3 26.15 23.75 30.0 23.75 30.55 23.2 30.55 22.75 30.55 22.75" fill="#ffffff" fill-rule="evenodd" stroke="none"/>
      <path d="M2.55 2.2 L5.85 2.2 6.1 2.65 6.4 2.4 7.65 2.2 13.45 2.2 13.6 2.7 14.05 2.2 15.35 2.2 26.5 2.2 27.0 2.65 27.2 2.2 27.85 2.2 33.0 2.2 Q33.2 2.2 33.25 2.25 33.3 2.25 33.35 2.35 33.35 2.4 33.35 2.55 33.35 2.55 33.35 2.6 L33.35 4.05 32.7 3.8 33.35 4.5 33.35 5.25 32.8 5.25 33.35 6.45 33.35 7.1 33.1 8.15 33.35 7.8 33.35 9.55 32.7 9.85 33.35 10.3 33.35 22.5 33.35 23.15 Q33.35 23.4 33.35 23.4 33.3 23.5 33.25 23.5 33.2 23.5 33.0 23.5 L32.35 23.5 31.7 23.5 30.6 23.5 30.5 22.75 29.75 23.5 25.95 23.5 25.1 23.05 25.0 23.5 24.0 23.5 23.7 23.5 22.6 23.4 21.9 23.5 20.7 23.5 20.55 23.3 20.05 23.55 9.6 23.5 8.75 23.25 8.3 23.5 7.45 23.5 7.15 23.35 6.4 23.5 5.75 23.5 5.1 23.5 4.45 23.5 3.85 23.45 3.15 23.5 2.55 23.5 Q2.5 23.5 2.5 23.5 2.5 23.5 2.5 23.5 2.3 23.5 2.25 23.5 2.2 23.5 2.15 23.45 2.15 23.4 2.2 23.2 2.2 23.2 2.15 23.2 2.15 23.2 2.15 23.2 2.15 23.15 2.15 23.15 L2.15 17.7 2.95 17.5 2.15 16.75 2.15 16.1 2.15 15.45 2.15 14.45 2.6 14.15 2.15 13.9 2.15 10.65 2.55 10.45 2.15 9.9 2.15 9.0 2.15 8.35 2.15 7.7 2.65 7.2 2.15 6.85 2.15 2.6 Q2.15 2.55 2.15 2.55 2.15 2.4 2.2 2.35 2.2 2.25 2.25 2.25 2.3 2.2 2.45 2.2 2.5 2.2 2.5 2.2 2.5 2.2 2.5 2.2 2.5 2.2 2.55 2.2 2.55 2.2 2.55 2.2 L2.55 2.2" fill="#000000" fill-rule="evenodd" stroke="none"/>
    </g>
    <g id="shape1" transform="matrix(1.0, 0.0, 0.0, 1.0, 0.0, 0.0)">
      <path d="M13.55 8.85 L13.55 6.45 8.7 6.45 6.25 6.45 5.4 6.45 5.4 6.45 5.4 7.75 5.4 7.75 Q5.45 7.8 5.45 7.8 5.5 7.85 5.5 7.85 5.55 7.9 5.55 7.9 5.6 7.95 5.6 7.95 5.65 8.0 5.65 8.0 5.7 8.05 5.7 8.1 5.75 8.1 5.75 8.15 5.75 8.15 5.8 8.2 5.8 8.25 5.85 8.3 5.85 8.35 5.9 8.4 5.9 8.45 5.9 8.5 5.9 8.55 5.95 8.65 5.95 8.7 5.95 8.75 5.95 8.8 5.95 8.85 6.0 8.9 6.0 9.0 6.0 9.05 6.0 9.1 L6.0 9.65 6.0 16.45 Q6.0 16.75 5.95 16.95 5.9 17.2 5.85 17.35 5.85 17.5 5.75 17.65 5.7 17.75 5.65 17.8 5.6 17.9 5.55 17.95 5.5 17.95 5.45 18.0 5.45 18.0 5.4 18.0 5.4 18.0 5.4 18.0 L5.4 19.35 8.2 19.35 8.2 19.35 11.4 19.35 Q11.4 19.35 13.55 19.35 L13.55 17.1 12.8 17.1 Q12.8 17.1 12.75 17.15 12.75 17.15 12.7 17.2 12.6 17.25 12.5 17.25 12.35 17.3 12.2 17.35 12.05 17.4 11.85 17.45 11.6 17.5 11.3 17.55 11.0 17.6 10.65 17.6 10.25 17.6 9.85 17.6 9.6 17.6 9.35 17.55 9.15 17.5 8.95 17.4 8.8 17.3 8.65 17.15 8.5 17.05 8.4 16.9 8.35 16.75 8.25 16.6 8.2 16.45 8.15 16.3 8.15 16.2 8.1 16.05 8.1 15.95 8.1 15.85 L8.1 13.5 9.75 13.5 Q9.75 13.5 9.85 13.5 9.95 13.5 10.1 13.5 10.25 13.5 10.45 13.45 10.65 13.45 10.85 13.4 11.05 13.4 11.25 13.35 11.45 13.3 11.65 13.25 11.85 13.2 11.95 13.1 12.1 13.0 12.15 12.9 L12.3 12.4 12.5 11.85 Q12.5 11.85 12.35 11.9 12.15 11.95 11.85 11.95 11.4 12.0 10.85 12.0 10.15 12.0 9.25 11.95 9.25 11.95 9.25 11.95 9.2 12.0 9.2 12.0 9.15 12.05 9.1 12.1 9.05 12.1 9.0 12.15 8.95 12.2 8.85 12.2 8.75 12.25 8.65 12.3 8.55 12.3 8.4 12.35 8.25 12.35 8.1 12.35 L8.1 10.45 7.95 10.5 7.85 10.6 7.8 10.65 7.75 10.55 7.65 10.55 7.6 10.45 7.7 10.5 7.7 10.4 7.75 10.35 7.9 10.35 7.95 10.25 8.1 10.15 8.1 8.8 Q8.15 8.65 8.2 8.55 8.25 8.45 8.4 8.35 8.5 8.3 8.6 8.25 8.7 8.2 8.85 8.15 8.95 8.15 9.1 8.15 9.2 8.15 9.3 8.1 9.4 8.1 9.45 8.1 9.5 8.1 9.5 8.1 L10.5 8.1 Q10.5 8.1 10.6 8.1 10.8 8.1 10.85 8.1 11.0 8.15 11.2 8.15 11.4 8.15 11.6 8.2 11.8 8.25 12.0 8.3 12.25 8.35 12.4 8.4 12.6 8.5 12.75 8.6 12.9 8.7 12.95 8.85 L13.55 8.85" fill="#f1edf8" fill-rule="evenodd" stroke="none"/>
      <path d="M21.35 18.05 L21.35 15.25 21.35 14.25 Q21.35 14.0 21.3 13.75 21.25 13.5 21.15 13.3 21.05 13.05 20.9 12.85 20.75 12.65 20.55 12.5 20.35 12.3 20.15 12.15 19.9 12.0 19.65 11.9 19.4 11.8 19.1 11.75 18.8 11.7 18.45 11.7 18.25 11.7 18.15 11.7 18.0 11.7 17.85 11.7 17.7 11.75 17.6 11.75 17.45 11.75 17.35 11.8 17.25 11.8 17.1 11.85 17.0 11.9 16.9 11.95 16.8 12.0 16.7 12.1 16.65 12.15 16.55 12.25 L16.55 12.0 Q16.55 11.9 16.55 11.85 16.6 11.8 16.6 11.7 16.65 11.65 16.7 11.65 16.7 11.6 16.75 11.55 16.8 11.55 16.85 11.5 16.85 11.5 16.9 11.45 16.9 11.45 16.95 11.45 16.95 11.45 16.95 11.45 L16.45 11.45 14.7 11.8 Q14.75 11.85 14.8 11.9 14.85 11.95 14.9 12.05 14.95 12.1 14.95 12.2 15.0 12.3 15.0 12.4 15.05 12.45 15.05 12.55 15.05 12.6 15.05 12.65 15.05 12.7 15.05 12.75 15.05 12.75 15.05 12.8 L15.05 17.45 15.05 17.75 Q15.05 17.9 15.05 18.05 15.0 18.2 15.0 18.3 14.95 18.4 14.9 18.5 14.85 18.55 14.85 18.6 14.8 18.65 14.75 18.7 14.7 18.75 14.65 18.75 14.65 18.75 14.6 18.8 14.6 18.8 14.6 18.8 L14.6 19.4 17.1 19.4 17.1 18.75 Q17.0 18.75 16.95 18.7 16.9 18.65 16.85 18.6 16.8 18.55 16.75 18.45 16.7 18.35 16.7 18.25 16.65 18.15 16.65 18.05 16.65 18.0 16.6 17.9 16.6 17.85 16.6 17.8 16.6 17.75 16.6 17.75 L16.6 15.6 16.6 15.6 Q16.6 15.6 16.6 15.5 16.6 15.35 16.6 15.2 16.65 15.05 16.65 14.85 16.7 14.6 16.75 14.4 16.85 14.15 16.95 14.0 17.05 13.75 17.25 13.6 17.4 13.45 17.65 13.35 17.9 13.25 18.2 13.25 18.5 13.25 18.8 13.35 19.0 13.4 19.2 13.55 19.35 13.7 19.45 13.9 19.6 14.1 19.65 14.3 19.7 14.5 19.75 14.7 19.75 14.85 19.75 15.05 19.75 15.15 19.75 15.3 19.75 15.3 19.75 15.35 L19.75 17.7 19.75 18.1 Q19.75 18.2 19.75 18.35 19.7 18.45 19.65 18.55 19.65 18.65 19.6 18.75 19.55 18.85 19.55 18.9 19.5 19.0 19.45 19.05 19.4 19.1 19.4 19.15 19.35 19.2 19.35 19.2 19.35 19.2 19.35 19.25 L19.35 19.35 21.65 19.35 21.65 18.75 Q21.6 18.75 21.55 18.7 21.55 18.7 21.5 18.65 21.45 18.6 21.45 18.55 21.4 18.5 21.4 18.4 21.4 18.35 21.35 18.3 21.35 18.25 21.35 18.15 21.35 18.15 21.35 18.1 21.35 18.1 21.35 18.05 L21.35 18.05 M16.45 15.3 L16.35 15.25 16.25 15.25 16.25 15.2 16.3 15.25 16.35 15.2 16.35 15.15 16.4 15.15 16.45 15.25 16.45 15.3" fill="#f1edf8" fill-rule="evenodd" stroke="none"/>
      <path d="M26.05 11.25 Q26.2 11.25 26.35 11.25 26.5 11.3 26.7 11.3 26.85 11.3 27.0 11.35 27.15 11.4 27.3 11.45 27.45 11.45 27.6 11.55 27.75 11.6 27.85 11.65 28.0 11.75 28.15 11.8 28.25 11.9 28.35 12.0 L28.35 10.6 28.45 10.7 28.55 10.8 28.6 10.75 28.7 10.75 28.75 10.6 28.65 10.65 28.65 10.6 28.65 10.5 28.5 10.5 28.45 10.4 28.35 10.3 28.35 7.45 Q28.35 7.3 28.35 7.2 28.3 7.1 28.3 7.0 28.25 6.9 28.2 6.8 28.15 6.75 28.15 6.7 28.1 6.65 28.05 6.6 28.0 6.55 28.0 6.55 27.95 6.5 27.95 6.5 27.9 6.5 27.9 6.5 L28.4 6.5 30.35 7.1 Q30.3 7.15 30.2 7.2 30.15 7.25 30.1 7.35 30.1 7.4 30.05 7.5 30.0 7.6 30.0 7.65 29.95 7.75 29.95 7.85 29.95 7.9 29.95 7.95 29.95 8.0 29.9 8.05 29.9 8.05 29.9 8.1 L29.9 17.45 29.9 18.4 Q29.9 18.4 29.85 18.45 29.75 18.5 29.65 18.6 29.5 18.65 29.35 18.75 29.1 18.9 28.9 19.0 28.6 19.1 28.3 19.2 27.95 19.3 27.6 19.4 27.2 19.45 26.8 19.5 26.3 19.55 25.8 19.55 25.5 19.55 25.2 19.5 24.9 19.45 24.65 19.3 24.35 19.2 24.05 19.0 23.8 18.8 23.55 18.55 23.3 18.25 23.1 17.95 22.9 17.6 22.75 17.2 22.6 16.8 22.55 16.3 22.45 15.8 22.45 15.25 22.45 14.75 22.55 14.25 22.65 13.8 22.8 13.4 22.95 13.05 23.2 12.75 23.4 12.45 23.7 12.2 23.95 11.95 24.25 11.75 24.55 11.6 24.85 11.5 25.15 11.4 25.45 11.3 25.75 11.25 26.05 11.25 L26.05 11.25 M26.15 18.0 Q26.45 18.0 26.7 17.95 26.9 17.9 27.15 17.8 27.35 17.65 27.5 17.5 27.65 17.35 27.8 17.15 27.95 17.0 28.0 16.75 28.1 16.55 28.2 16.3 28.25 16.05 28.25 15.8 28.3 15.55 28.3 15.3 28.3 15.1 28.25 14.85 28.25 14.65 28.15 14.45 28.1 14.2 28.0 14.05 27.9 13.85 27.75 13.65 27.65 13.5 27.45 13.35 27.3 13.2 27.1 13.1 26.85 13.0 26.65 12.95 26.4 12.9 26.1 12.9 25.8 12.9 25.55 12.95 25.35 13.0 25.15 13.1 24.95 13.2 24.75 13.35 24.6 13.5 24.5 13.7 24.35 13.85 24.25 14.05 24.15 14.25 24.1 14.5 24.05 14.7 24.0 14.9 24.0 15.15 24.0 15.35 24.0 15.65 24.0 15.9 24.05 16.15 24.1 16.4 24.15 16.65 24.2 16.85 24.3 17.05 24.4 17.25 24.55 17.4 24.7 17.55 24.85 17.7 25.05 17.8 25.3 17.9 25.55 17.95 25.8 18.0 26.15 18.0 L26.15 18.0" fill="#f1edf8" fill-rule="evenodd" stroke="none"/>
    </g>
  </defs>
</svg>
