<?xml version="1.0" encoding="UTF-8" standalone="no"?>
<svg xmlns:ffdec="https://www.free-decompiler.com/flash" xmlns:xlink="http://www.w3.org/1999/xlink" ffdec:objectType="frame" height="26.55px" width="70.8px" xmlns="http://www.w3.org/2000/svg">
  <g transform="matrix(1.0, 0.0, 0.0, 1.0, 0.2, 0.4)">
    <use ffdec:characterId="1" height="26.0" transform="matrix(1.0, 0.0, 0.0, 1.0, 0.0, 0.0)" width="35.75" xlink:href="#shape0"/>
    <use ffdec:characterId="117" height="26.0" transform="matrix(1.0, 0.0, 0.0, 1.0, 0.0, 0.0)" width="35.75" xlink:href="#shape1"/>
    <use ffdec:characterId="117" height="26.0" transform="matrix(1.0, 0.0, 0.0, 1.0, 0.0, 0.0)" width="35.75" xlink:href="#shape1"/>
  </g>
  <defs>
    <g id="shape0" transform="matrix(1.0, 0.0, 0.0, 1.0, 0.0, 0.0)">
      <path d="M33.35 2.45 Q33.35 2.5 33.35 2.55 33.35 2.55 33.35 2.6 L33.35 4.05 32.7 3.8 33.35 4.5 33.35 5.25 32.8 5.25 33.35 6.45 33.35 7.1 33.1 8.15 33.35 7.8 33.35 9.55 32.7 9.85 33.0 10.05 33.6 9.8 33.6 8.05 33.35 8.4 33.6 7.35 33.6 6.7 33.05 5.5 33.6 5.5 33.6 4.75 32.95 4.05 33.6 4.3 33.6 2.85 Q33.6 2.8 33.6 2.8 33.6 2.7 33.6 2.65 33.55 2.55 33.55 2.55 33.5 2.5 33.45 2.5 33.45 2.5 33.35 2.45 L33.35 2.45 M33.35 10.4 L33.35 22.5 33.35 23.15 Q33.35 23.4 33.35 23.4 33.3 23.5 33.25 23.5 33.2 23.5 33.0 23.5 L32.35 23.5 31.7 23.5 30.8 23.5 30.85 23.75 31.95 23.75 32.6 23.75 33.2 23.75 Q33.45 23.75 33.45 23.75 33.55 23.75 33.55 23.65 33.55 23.65 33.6 23.4 L33.6 22.75 33.6 10.55 33.35 10.4 33.35 10.4 M30.55 22.75 L29.75 23.5 25.95 23.5 25.1 23.05 25.0 23.5 24.0 23.5 23.7 23.5 22.6 23.4 21.9 23.5 20.7 23.5 20.55 23.3 20.05 23.55 9.6 23.5 8.75 23.25 8.3 23.5 7.45 23.5 7.15 23.35 6.4 23.5 5.75 23.5 5.1 23.5 4.45 23.5 3.85 23.45 3.15 23.5 2.75 23.5 Q2.75 23.55 2.75 23.65 2.75 23.7 2.75 23.75 2.75 23.75 2.75 23.75 2.75 23.75 2.75 23.75 L3.4 23.75 4.1 23.7 4.7 23.75 5.35 23.75 5.95 23.75 6.6 23.75 7.4 23.6 7.65 23.75 8.55 23.75 18.95 23.75 19.75 23.75 20.3 23.8 20.8 23.55 20.9 23.75 22.15 23.75 22.85 23.65 23.95 23.75 24.25 23.75 25.25 23.75 25.35 23.3 26.15 23.75 30.0 23.75 30.55 23.2 30.55 22.75 30.55 22.75" fill="#ffffff" fill-rule="evenodd" stroke="none"/>
      <path d="M2.55 2.2 L5.85 2.2 6.1 2.65 6.4 2.4 7.65 2.2 13.45 2.2 13.6 2.7 14.05 2.2 15.35 2.2 26.5 2.2 27.0 2.65 27.2 2.2 27.85 2.2 33.0 2.2 Q33.2 2.2 33.25 2.25 33.3 2.25 33.35 2.35 33.35 2.4 33.35 2.55 33.35 2.55 33.35 2.6 L33.35 4.05 32.7 3.8 33.35 4.5 33.35 5.25 32.8 5.25 33.35 6.45 33.35 7.1 33.1 8.15 33.35 7.8 33.35 9.55 32.7 9.85 33.35 10.3 33.35 22.5 33.35 23.15 Q33.35 23.4 33.35 23.4 33.3 23.5 33.25 23.5 33.2 23.5 33.0 23.5 L32.35 23.5 31.7 23.5 30.6 23.5 30.5 22.75 29.75 23.5 25.95 23.5 25.1 23.05 25.0 23.5 24.0 23.5 23.7 23.5 22.6 23.4 21.9 23.5 20.7 23.5 20.55 23.3 20.05 23.55 9.6 23.5 8.75 23.25 8.3 23.5 7.45 23.5 7.15 23.35 6.4 23.5 5.75 23.5 5.1 23.5 4.45 23.5 3.85 23.45 3.15 23.5 2.55 23.5 Q2.5 23.5 2.5 23.5 2.5 23.5 2.5 23.5 2.3 23.5 2.25 23.5 2.2 23.5 2.15 23.45 2.15 23.4 2.2 23.2 2.2 23.2 2.15 23.2 2.15 23.2 2.15 23.2 2.15 23.15 2.15 23.15 L2.15 17.7 2.95 17.5 2.15 16.75 2.15 16.1 2.15 15.45 2.15 14.45 2.6 14.15 2.15 13.9 2.15 10.65 2.55 10.45 2.15 9.9 2.15 9.0 2.15 8.35 2.15 7.7 2.65 7.2 2.15 6.85 2.15 2.6 Q2.15 2.55 2.15 2.55 2.15 2.4 2.2 2.35 2.2 2.25 2.25 2.25 2.3 2.2 2.45 2.2 2.5 2.2 2.5 2.2 2.5 2.2 2.5 2.2 2.5 2.2 2.55 2.2 2.55 2.2 2.55 2.2 L2.55 2.2" fill="#000000" fill-rule="evenodd" stroke="none"/>
    </g>
    <g id="shape1" transform="matrix(1.0, 0.0, 0.0, 1.0, 0.0, 0.0)">
      <path d="M9.2 6.45 L9.2 7.2 Q9.3 7.25 9.4 7.35 9.5 7.45 9.55 7.55 9.65 7.6 9.7 7.7 9.7 7.8 9.75 7.9 9.8 8.0 9.8 8.1 9.8 8.15 9.85 8.25 9.85 8.3 9.85 8.35 9.85 8.35 9.85 8.4 L9.85 16.85 Q9.85 17.15 9.8 17.4 9.8 17.65 9.75 17.8 9.7 18.0 9.65 18.1 9.6 18.25 9.5 18.3 9.45 18.4 9.4 18.45 9.35 18.45 9.3 18.5 9.25 18.5 9.25 18.5 9.25 18.5 9.2 18.5 L9.2 19.35 12.4 19.35 12.4 18.55 Q12.3 18.55 12.2 18.45 12.1 18.4 12.05 18.3 12.0 18.15 11.95 18.0 11.9 17.85 11.85 17.7 11.85 17.55 11.85 17.4 11.8 17.25 11.8 17.15 11.8 17.05 11.8 16.95 11.8 16.9 11.8 16.85 L11.8 10.6 11.65 10.65 11.55 10.8 11.45 10.7 11.3 10.7 11.3 10.6 11.4 10.65 11.4 10.55 11.45 10.5 11.6 10.5 11.65 10.4 11.8 10.3 11.8 8.25 Q11.8 8.1 11.85 8.0 11.85 7.85 11.9 7.75 11.95 7.7 12.0 7.6 12.05 7.55 12.1 7.45 12.15 7.4 12.2 7.4 12.25 7.35 12.3 7.3 12.35 7.3 12.35 7.3 12.4 7.3 12.4 7.3 L12.4 6.45 9.2 6.45" fill="#f1edf8" fill-rule="evenodd" stroke="none"/>
      <path d="M20.15 18.05 L20.15 15.25 20.15 14.25 Q20.15 14.0 20.1 13.75 20.05 13.5 19.95 13.3 19.85 13.05 19.7 12.85 19.55 12.65 19.35 12.45 19.2 12.3 18.95 12.15 18.75 12.0 18.45 11.9 18.2 11.8 17.9 11.75 17.6 11.7 17.3 11.7 17.1 11.7 17.0 11.7 16.8 11.7 16.7 11.7 16.55 11.7 16.45 11.75 16.3 11.75 16.2 11.8 16.05 11.8 15.95 11.85 15.85 11.9 15.75 11.95 15.65 12.0 15.55 12.1 15.45 12.15 15.35 12.25 L15.35 12.0 Q15.35 11.9 15.35 11.85 15.4 11.8 15.45 11.7 15.45 11.65 15.5 11.6 15.55 11.6 15.6 11.55 15.6 11.5 15.65 11.5 15.7 11.5 15.7 11.45 15.75 11.45 15.75 11.45 15.8 11.45 15.8 11.45 L15.3 11.45 13.5 11.75 Q13.55 11.8 13.65 11.85 13.7 11.95 13.75 12.0 13.75 12.1 13.8 12.2 13.8 12.25 13.85 12.35 13.85 12.45 13.85 12.5 13.9 12.6 13.9 12.65 13.9 12.7 13.9 12.75 13.9 12.75 13.9 12.8 L13.9 17.4 13.9 17.7 Q13.9 17.85 13.9 18.05 13.85 18.15 13.8 18.3 13.8 18.4 13.75 18.45 13.7 18.55 13.65 18.6 13.6 18.65 13.55 18.7 13.55 18.7 13.5 18.75 13.45 18.75 13.45 18.75 13.45 18.75 13.45 18.75 L13.45 19.35 15.95 19.35 15.95 18.75 Q15.85 18.75 15.8 18.7 15.75 18.65 15.65 18.6 15.6 18.5 15.6 18.4 15.55 18.35 15.5 18.25 15.5 18.15 15.5 18.05 15.45 17.95 15.45 17.85 15.45 17.8 15.45 17.75 15.45 17.75 15.45 17.7 L15.45 15.55 15.45 15.55 Q15.45 15.55 15.45 15.45 15.45 15.35 15.45 15.2 15.45 15.0 15.5 14.8 15.55 14.6 15.6 14.4 15.65 14.15 15.8 13.95 15.9 13.75 16.05 13.6 16.25 13.4 16.45 13.3 16.7 13.2 17.05 13.2 17.35 13.2 17.6 13.3 17.85 13.4 18.05 13.55 18.2 13.7 18.3 13.9 18.4 14.05 18.45 14.3 18.55 14.45 18.55 14.7 18.6 14.85 18.6 15.0 18.6 15.15 18.6 15.25 18.6 15.3 18.55 15.35 L18.55 17.7 18.55 18.05 Q18.55 18.15 18.55 18.3 18.5 18.4 18.5 18.5 18.45 18.6 18.4 18.7 18.4 18.8 18.35 18.9 18.3 18.95 18.3 19.05 18.25 19.1 18.2 19.15 18.2 19.15 18.15 19.2 18.15 19.2 18.15 19.2 L18.15 19.35 20.45 19.35 20.45 18.75 Q20.4 18.75 20.35 18.7 20.35 18.7 20.3 18.65 20.3 18.6 20.25 18.5 20.25 18.45 20.2 18.4 20.2 18.35 20.2 18.25 20.2 18.2 20.2 18.15 20.15 18.1 20.15 18.05 20.15 18.05 20.15 18.05 L20.15 18.05 M15.25 15.3 L15.2 15.25 15.1 15.25 15.1 15.2 15.15 15.2 15.15 15.15 15.2 15.1 15.25 15.1 15.3 15.25 15.25 15.3" fill="#f1edf8" fill-rule="evenodd" stroke="none"/>
      <path d="M26.55 16.95 Q26.55 16.7 26.5 16.45 26.45 16.25 26.35 16.05 26.25 15.9 26.15 15.75 26.05 15.65 25.95 15.55 25.85 15.45 25.75 15.4 25.65 15.35 25.55 15.3 25.5 15.25 25.45 15.25 25.45 15.25 25.4 15.25 24.7 15.05 24.0 14.9 23.75 14.8 23.55 14.7 23.4 14.6 23.25 14.45 23.15 14.35 23.05 14.25 23.0 14.15 22.95 14.0 22.9 13.9 22.9 13.85 22.9 13.75 22.9 13.7 22.9 13.65 22.9 13.6 22.9 13.55 22.9 13.55 23.0 13.3 23.2 13.15 23.35 12.95 23.55 12.9 23.75 12.8 23.95 12.8 24.15 12.75 24.4 12.8 24.6 12.8 24.8 12.9 24.95 12.9 25.15 13.0 25.25 13.0 25.35 13.05 25.4 13.1 25.45 13.1 L26.15 13.1 26.15 12.05 Q25.85 11.9 25.5 11.75 25.25 11.65 24.95 11.6 24.65 11.55 24.4 11.55 24.15 11.55 23.9 11.55 23.7 11.55 23.5 11.6 23.35 11.6 23.2 11.65 23.1 11.65 23.0 11.7 23.0 11.7 22.95 11.7 22.7 11.8 22.5 11.9 22.3 12.05 22.15 12.2 22.0 12.3 21.9 12.5 21.8 12.65 21.75 12.8 21.7 12.95 21.65 13.1 21.6 13.2 21.6 13.35 21.6 13.45 21.55 13.5 21.55 13.55 21.55 13.55 21.55 13.85 21.6 14.1 21.65 14.35 21.75 14.55 21.85 14.75 22.0 14.95 22.1 15.1 22.25 15.25 22.35 15.35 22.5 15.45 22.6 15.55 22.7 15.65 22.8 15.7 22.85 15.7 22.9 15.75 22.9 15.75 L23.1 15.75 23.15 15.6 23.3 15.65 23.4 15.5 23.65 15.5 Q23.6 15.55 23.5 15.55 23.45 15.6 23.4 15.65 23.4 15.65 23.35 15.7 23.3 15.75 23.3 15.75 23.25 15.8 23.25 15.85 23.2 15.85 23.2 15.85 23.2 15.9 23.2 15.9 23.2 15.9 23.2 15.9 23.6 15.95 23.9 16.05 24.2 16.15 24.4 16.25 24.65 16.3 24.8 16.4 24.9 16.5 25.0 16.6 25.1 16.7 25.15 16.75 25.15 16.85 25.2 16.9 25.2 16.95 25.2 17.0 25.2 17.0 25.2 17.05 25.2 17.2 25.15 17.35 25.1 17.5 24.95 17.6 24.85 17.7 24.75 17.75 24.6 17.85 24.45 17.9 24.35 17.95 24.2 17.95 24.05 18.0 23.95 18.0 23.85 18.0 23.8 18.0 23.75 18.0 23.7 18.0 23.45 18.0 23.25 17.95 23.05 17.9 22.9 17.8 22.75 17.75 22.65 17.7 22.5 17.6 22.45 17.5 22.35 17.45 22.3 17.35 22.25 17.3 22.2 17.2 22.15 17.15 22.15 17.1 22.15 17.1 22.15 17.1 L21.4 17.1 21.4 18.3 Q21.5 18.5 21.65 18.65 21.8 18.8 22.0 18.9 22.15 19.0 22.35 19.1 22.55 19.15 22.8 19.2 22.95 19.25 23.15 19.3 23.3 19.3 23.5 19.35 23.6 19.35 23.7 19.35 23.75 19.35 23.8 19.35 24.1 19.35 24.35 19.35 24.6 19.3 24.8 19.25 25.0 19.2 25.15 19.15 25.3 19.05 25.45 19.0 25.55 18.9 25.7 18.85 25.75 18.8 25.85 18.7 25.9 18.65 25.9 18.6 25.95 18.6 25.95 18.6 26.05 18.4 26.15 18.25 26.25 18.05 26.35 17.9 26.4 17.75 26.45 17.6 26.5 17.5 26.5 17.4 26.5 17.3 26.55 17.2 26.55 17.1 26.55 17.05 26.55 17.0 26.55 16.95 26.55 16.95 26.55 16.95 L26.55 16.95" fill="#f1edf8" fill-rule="evenodd" stroke="none"/>
    </g>
  </defs>
</svg>
