<?xml version="1.0" encoding="UTF-8" standalone="no"?>
<svg xmlns:ffdec="https://www.free-decompiler.com/flash" xmlns:xlink="http://www.w3.org/1999/xlink" ffdec:objectType="frame" height="26.55px" width="70.8px" xmlns="http://www.w3.org/2000/svg">
  <g transform="matrix(1.0, 0.0, 0.0, 1.0, 0.2, 0.4)">
    <use ffdec:characterId="3" height="26.0" transform="matrix(1.0, 0.0, 0.0, 1.0, 0.0, 0.0)" width="26.0" xlink:href="#shape0"/>
    <use ffdec:characterId="36" height="26.0" transform="matrix(1.0, 0.0, 0.0, 1.0, 0.0, 0.0)" width="26.0" xlink:href="#shape1"/>
    <use ffdec:characterId="36" height="26.0" transform="matrix(1.0, 0.0, 0.0, 1.0, 0.0, 0.0)" width="26.0" xlink:href="#shape1"/>
  </g>
  <defs>
    <g id="shape0" transform="matrix(1.0, 0.0, 0.0, 1.0, 0.0, 0.0)">
      <path d="M23.5 2.45 Q23.5 2.5 23.5 2.5 23.5 2.55 23.5 2.55 23.5 2.55 23.5 2.55 23.5 2.6 23.5 2.6 L23.5 4.05 22.85 3.8 23.5 4.5 23.5 5.25 22.95 5.25 23.5 6.45 23.5 7.1 23.3 8.15 23.5 7.8 23.5 9.55 22.85 9.85 23.15 10.05 23.75 9.8 23.75 8.05 23.5 8.4 23.75 7.35 23.75 6.7 23.2 5.5 23.75 5.5 23.75 4.75 23.1 4.05 23.75 4.3 23.75 2.85 Q23.75 2.8 23.75 2.8 23.75 2.7 23.75 2.65 23.75 2.55 23.7 2.55 23.7 2.5 23.65 2.5 23.6 2.5 23.5 2.45 L23.5 2.45 M23.5 10.4 L23.5 22.5 23.5 23.15 Q23.5 23.4 23.5 23.4 23.45 23.5 23.4 23.5 23.35 23.5 23.15 23.5 L22.5 23.5 21.85 23.5 20.95 23.5 21.0 23.75 22.1 23.75 22.75 23.75 23.4 23.75 Q23.65 23.75 23.7 23.75 23.75 23.7 23.75 23.4 L23.75 22.75 23.75 10.55 23.5 10.4 M20.7 22.75 L19.95 23.5 16.1 23.5 15.25 23.05 15.2 23.5 14.15 23.5 13.9 23.5 12.75 23.4 12.05 23.5 10.85 23.5 10.7 23.3 10.2 23.55 9.7 23.5 8.85 23.25 8.4 23.5 7.5 23.5 7.25 23.35 6.45 23.5 5.85 23.5 5.2 23.5 4.55 23.5 3.95 23.45 3.25 23.5 2.85 23.5 Q2.85 23.55 2.85 23.6 2.85 23.65 2.85 23.7 2.8 23.7 2.8 23.75 2.85 23.75 2.85 23.75 2.85 23.75 2.85 23.75 L3.5 23.75 4.2 23.7 4.8 23.75 5.45 23.75 6.05 23.75 6.7 23.75 7.45 23.6 7.75 23.75 8.65 23.75 9.1 23.5 9.9 23.75 10.45 23.8 10.95 23.55 11.1 23.75 12.3 23.75 13.0 23.65 14.1 23.75 14.4 23.75 15.4 23.75 15.5 23.3 16.35 23.75 20.15 23.75 20.75 23.2 20.7 22.75" fill="#ffffff" fill-rule="evenodd" stroke="none"/>
      <path d="M2.6 2.2 L5.95 2.2 6.2 2.65 6.5 2.4 7.75 2.2 13.5 2.2 13.7 2.7 14.15 2.2 15.45 2.2 16.65 2.2 17.15 2.65 17.35 2.2 18.0 2.2 23.15 2.2 Q23.35 2.2 23.4 2.25 23.45 2.25 23.5 2.35 23.5 2.4 23.5 2.55 23.5 2.55 23.5 2.6 L23.5 4.05 22.85 3.8 23.5 4.5 23.5 5.25 22.95 5.25 23.5 6.45 23.5 7.1 23.3 8.15 23.5 7.8 23.5 9.55 22.85 9.85 23.5 10.3 23.5 22.5 23.5 23.15 Q23.5 23.4 23.5 23.4 23.45 23.5 23.4 23.5 23.35 23.5 23.15 23.5 L22.5 23.5 21.85 23.5 20.75 23.5 20.7 22.75 19.95 23.5 16.1 23.5 15.25 23.05 15.2 23.5 14.15 23.5 13.9 23.5 12.75 23.4 12.05 23.5 10.85 23.5 10.7 23.3 10.2 23.55 9.7 23.5 8.85 23.25 8.4 23.5 7.5 23.5 7.25 23.35 6.45 23.5 5.85 23.5 5.2 23.5 4.55 23.5 3.95 23.45 3.25 23.5 2.6 23.5 Q2.6 23.5 2.6 23.5 2.6 23.5 2.6 23.5 2.4 23.5 2.35 23.5 2.3 23.5 2.25 23.45 2.25 23.4 2.25 23.2 2.25 23.2 2.25 23.2 2.25 23.2 2.25 23.2 2.25 23.15 2.25 23.15 L2.25 17.7 3.05 17.5 2.25 16.75 2.25 16.1 2.25 15.45 2.25 14.45 2.65 14.15 2.25 13.9 2.25 10.65 2.65 10.45 2.25 9.9 2.25 9.0 2.25 8.35 2.25 7.7 2.75 7.2 2.25 6.85 2.25 2.6 Q2.25 2.55 2.25 2.55 2.25 2.4 2.25 2.35 2.3 2.25 2.35 2.25 2.4 2.2 2.55 2.2 2.55 2.2 2.6 2.2 2.6 2.2 2.6 2.2 2.6 2.2 2.6 2.2 L2.6 2.2" fill="#000000" fill-rule="evenodd" stroke="none"/>
    </g>
    <g id="shape1" transform="matrix(1.0, 0.0, 0.0, 1.0, 0.0, 0.0)">
      <path d="M16.0 5.25 L16.0 6.15 Q16.1 6.2 16.2 6.25 16.3 6.3 16.35 6.4 16.4 6.5 16.45 6.6 16.5 6.7 16.5 6.8 16.55 6.9 16.55 7.0 16.55 7.1 16.55 7.15 16.55 7.25 16.55 7.3 16.55 7.3 16.55 7.35 L16.55 14.0 16.55 14.35 Q16.55 14.5 16.55 14.7 16.55 15.0 16.55 15.05 16.5 15.3 16.45 15.5 16.4 15.8 16.3 16.05 16.2 16.35 16.05 16.65 15.9 16.95 15.7 17.2 15.5 17.45 15.25 17.7 14.95 17.95 14.6 18.1 14.25 18.3 13.85 18.35 13.4 18.45 12.85 18.45 12.85 18.45 12.7 18.45 12.55 18.45 12.35 18.4 12.05 18.4 11.8 18.3 11.45 18.2 11.15 18.0 10.8 17.8 10.55 17.55 10.2 17.2 10.0 16.8 9.75 16.35 9.6 15.75 9.45 15.1 9.45 14.35 L9.45 7.25 Q9.45 7.25 9.45 7.2 9.45 7.15 9.45 7.1 9.45 7.05 9.5 6.95 9.5 6.85 9.55 6.75 9.55 6.65 9.6 6.55 9.65 6.45 9.7 6.35 9.75 6.25 9.85 6.2 9.95 6.1 10.05 6.05 L10.05 5.25 6.4 5.25 6.4 6.15 Q6.4 6.15 6.4 6.15 6.45 6.15 6.5 6.2 6.5 6.2 6.55 6.25 6.65 6.3 6.65 6.35 6.75 6.45 6.8 6.55 6.85 6.65 6.85 6.75 6.9 6.85 6.95 7.0 6.95 7.15 6.95 7.35 6.95 11.45 6.95 15.6 6.95 15.6 7.0 15.8 7.0 16.1 7.1 16.4 7.2 16.8 7.4 17.2 7.6 17.7 7.85 18.15 8.15 18.7 8.55 19.1 9.05 19.6 9.6 19.95 10.2 20.3 10.95 20.5 11.75 20.75 12.7 20.75 13.75 20.75 14.7 20.55 15.5 20.35 16.2 19.95 16.8 19.65 17.3 19.2 17.75 18.75 18.1 18.25 18.4 17.85 18.6 17.35 18.75 16.95 18.9 16.55 18.95 16.25 19.0 16.0 19.0 15.9 19.05 15.8 L18.9 15.75 19.05 15.45 19.05 15.3 Q19.05 15.3 19.05 11.65 19.05 7.2 19.05 7.35 19.05 7.2 19.05 7.0 19.1 6.9 19.15 6.75 19.15 6.65 19.2 6.55 19.25 6.45 19.35 6.35 19.4 6.3 19.45 6.25 19.5 6.2 19.55 6.2 19.55 6.15 19.6 6.15 19.6 6.15 19.6 6.15 L19.6 5.25 16.0 5.25" fill="#f1edf8" fill-rule="evenodd" stroke="none"/>
    </g>
  </defs>
</svg>
