<?xml version="1.0" encoding="UTF-8" standalone="no"?>
<svg xmlns:ffdec="https://www.free-decompiler.com/flash" xmlns:xlink="http://www.w3.org/1999/xlink" ffdec:objectType="frame" height="26.55px" width="70.8px" xmlns="http://www.w3.org/2000/svg">
  <g transform="matrix(1.0, 0.0, 0.0, 1.0, 0.2, 0.4)">
    <use ffdec:characterId="3" height="26.0" transform="matrix(1.0, 0.0, 0.0, 1.0, 0.0, 0.0)" width="26.0" xlink:href="#shape0"/>
    <use ffdec:characterId="165" height="26.0" transform="matrix(1.0, 0.0, 0.0, 1.0, 0.0, 0.0)" width="26.0" xlink:href="#shape1"/>
    <use ffdec:characterId="165" height="26.0" transform="matrix(1.0, 0.0, 0.0, 1.0, 0.0, 0.0)" width="26.0" xlink:href="#shape1"/>
  </g>
  <defs>
    <g id="shape0" transform="matrix(1.0, 0.0, 0.0, 1.0, 0.0, 0.0)">
      <path d="M23.5 2.45 Q23.5 2.5 23.5 2.5 23.5 2.55 23.5 2.55 23.5 2.55 23.5 2.55 23.5 2.6 23.5 2.6 L23.5 4.05 22.85 3.8 23.5 4.5 23.5 5.25 22.95 5.25 23.5 6.45 23.5 7.1 23.3 8.15 23.5 7.8 23.5 9.55 22.85 9.85 23.15 10.05 23.75 9.8 23.75 8.05 23.5 8.4 23.75 7.35 23.75 6.7 23.2 5.5 23.75 5.5 23.75 4.75 23.1 4.05 23.75 4.3 23.75 2.85 Q23.75 2.8 23.75 2.8 23.75 2.7 23.75 2.65 23.75 2.55 23.7 2.55 23.7 2.5 23.65 2.5 23.6 2.5 23.5 2.45 L23.5 2.45 M23.5 10.4 L23.5 22.5 23.5 23.15 Q23.5 23.4 23.5 23.4 23.45 23.5 23.4 23.5 23.35 23.5 23.15 23.5 L22.5 23.5 21.85 23.5 20.95 23.5 21.0 23.75 22.1 23.75 22.75 23.75 23.4 23.75 Q23.65 23.75 23.7 23.75 23.75 23.7 23.75 23.4 L23.75 22.75 23.75 10.55 23.5 10.4 M20.7 22.75 L19.95 23.5 16.1 23.5 15.25 23.05 15.2 23.5 14.15 23.5 13.9 23.5 12.75 23.4 12.05 23.5 10.85 23.5 10.7 23.3 10.2 23.55 9.7 23.5 8.85 23.25 8.4 23.5 7.5 23.5 7.25 23.35 6.45 23.5 5.85 23.5 5.2 23.5 4.55 23.5 3.95 23.45 3.25 23.5 2.85 23.5 Q2.85 23.55 2.85 23.6 2.85 23.65 2.85 23.7 2.8 23.7 2.8 23.75 2.85 23.75 2.85 23.75 2.85 23.75 2.85 23.75 L3.5 23.75 4.2 23.7 4.8 23.75 5.45 23.75 6.05 23.75 6.7 23.75 7.45 23.6 7.75 23.75 8.65 23.75 9.1 23.5 9.9 23.75 10.45 23.8 10.95 23.55 11.1 23.75 12.3 23.75 13.0 23.65 14.1 23.75 14.4 23.75 15.4 23.75 15.5 23.3 16.35 23.75 20.15 23.75 20.75 23.2 20.7 22.75" fill="#ffffff" fill-rule="evenodd" stroke="none"/>
      <path d="M2.6 2.2 L5.95 2.2 6.2 2.65 6.5 2.4 7.75 2.2 13.5 2.2 13.7 2.7 14.15 2.2 15.45 2.2 16.65 2.2 17.15 2.65 17.35 2.2 18.0 2.2 23.15 2.2 Q23.35 2.2 23.4 2.25 23.45 2.25 23.5 2.35 23.5 2.4 23.5 2.55 23.5 2.55 23.5 2.6 L23.5 4.05 22.85 3.8 23.5 4.5 23.5 5.25 22.95 5.25 23.5 6.45 23.5 7.1 23.3 8.15 23.5 7.8 23.5 9.55 22.85 9.85 23.5 10.3 23.5 22.5 23.5 23.15 Q23.5 23.4 23.5 23.4 23.45 23.5 23.4 23.5 23.35 23.5 23.15 23.5 L22.5 23.5 21.85 23.5 20.75 23.5 20.7 22.75 19.95 23.5 16.1 23.5 15.25 23.05 15.2 23.5 14.15 23.5 13.9 23.5 12.75 23.4 12.05 23.5 10.85 23.5 10.7 23.3 10.2 23.55 9.7 23.5 8.85 23.25 8.4 23.5 7.5 23.5 7.25 23.35 6.45 23.5 5.85 23.5 5.2 23.5 4.55 23.5 3.95 23.45 3.25 23.5 2.6 23.5 Q2.6 23.5 2.6 23.5 2.6 23.5 2.6 23.5 2.4 23.5 2.35 23.5 2.3 23.5 2.25 23.45 2.25 23.4 2.25 23.2 2.25 23.2 2.25 23.2 2.25 23.2 2.25 23.2 2.25 23.15 2.25 23.15 L2.25 17.7 3.05 17.5 2.25 16.75 2.25 16.1 2.25 15.45 2.25 14.45 2.65 14.15 2.25 13.9 2.25 10.65 2.65 10.45 2.25 9.9 2.25 9.0 2.25 8.35 2.25 7.7 2.75 7.2 2.25 6.85 2.25 2.6 Q2.25 2.55 2.25 2.55 2.25 2.4 2.25 2.35 2.3 2.25 2.35 2.25 2.4 2.2 2.55 2.2 2.55 2.2 2.6 2.2 2.6 2.2 2.6 2.2 2.6 2.2 2.6 2.2 L2.6 2.2" fill="#000000" fill-rule="evenodd" stroke="none"/>
    </g>
    <g id="shape1" transform="matrix(1.0, 0.0, 0.0, 1.0, 0.0, 0.0)">
      <path d="M13.0 5.25 Q12.2 5.25 11.45 5.4 10.75 5.6 10.05 5.9 9.35 6.2 8.75 6.6 8.15 7.05 7.6 7.6 7.1 8.1 6.7 8.75 6.25 9.35 6.0 10.05 5.7 10.75 5.55 11.5 5.4 12.25 5.4 13.05 5.4 13.85 5.55 14.6 5.7 15.35 6.0 16.0 6.3 16.7 6.7 17.35 7.1 17.95 7.6 18.45 8.15 19.0 8.75 19.4 9.35 19.85 10.05 20.1 10.75 20.4 11.45 20.55 12.2 20.75 13.0 20.75 13.8 20.75 14.55 20.6 15.25 20.45 15.95 20.15 16.65 19.85 17.25 19.4 17.85 19.0 18.4 18.45 18.9 17.95 19.3 17.35 19.75 16.7 20.0 16.05 20.3 15.35 20.45 14.6 20.6 13.85 20.6 13.05 20.6 12.25 20.45 11.5 20.3 10.75 20.0 10.05 19.7 9.35 19.3 8.75 18.9 8.1 18.4 7.6 17.85 7.05 17.25 6.6 16.65 6.2 15.95 5.9 15.25 5.6 14.55 5.45 13.8 5.25 13.0 5.25 L13.0 5.25 M13.05 18.25 Q12.5 18.25 12.05 18.15 11.55 18.05 11.15 17.9 10.7 17.7 10.35 17.45 9.95 17.2 9.65 16.85 9.35 16.5 9.15 16.1 8.9 15.7 8.75 15.2 8.55 14.75 8.5 14.2 8.4 13.65 8.4 13.05 8.4 12.6 8.5 11.8 L8.4 11.45 8.2 11.35 8.2 11.25 8.65 11.1 Q8.65 10.85 8.65 10.8 8.6 10.75 8.6 10.85 8.55 10.9 8.5 11.0 8.5 11.0 8.5 11.05 8.5 11.1 8.55 11.1 8.6 11.15 8.6 11.15 8.65 11.2 8.65 11.2 8.65 11.0 8.75 10.7 8.8 10.45 8.95 10.15 9.1 9.85 9.3 9.6 9.55 9.3 9.8 9.0 10.1 8.75 10.45 8.5 10.8 8.25 11.15 8.1 11.6 7.9 12.05 7.8 12.5 7.7 13.0 7.7 13.55 7.7 14.1 7.85 14.6 7.95 15.0 8.2 15.45 8.4 15.8 8.75 16.15 9.05 16.45 9.45 16.7 9.8 16.9 10.25 17.1 10.7 17.25 11.15 17.4 11.6 17.45 12.05 17.55 12.55 17.55 13.0 17.55 13.55 17.5 14.1 17.4 14.6 17.25 15.1 17.15 15.55 16.95 15.95 16.7 16.4 16.45 16.75 16.15 17.1 15.8 17.35 15.45 17.65 15.05 17.85 14.6 18.05 14.1 18.15 13.6 18.25 13.05 18.25 L13.05 18.25" fill="#f1edf8" fill-rule="evenodd" stroke="none"/>
    </g>
  </defs>
</svg>
