<?xml version="1.0" encoding="UTF-8" standalone="no"?>
<svg xmlns:ffdec="https://www.free-decompiler.com/flash" xmlns:xlink="http://www.w3.org/1999/xlink" ffdec:objectType="frame" height="26.55px" width="70.8px" xmlns="http://www.w3.org/2000/svg">
  <g transform="matrix(1.0, 0.0, 0.0, 1.0, 0.2, 0.4)">
    <use ffdec:characterId="3" height="26.0" transform="matrix(1.0, 0.0, 0.0, 1.0, 0.0, 0.0)" width="26.0" xlink:href="#shape0"/>
    <use ffdec:characterId="37" height="26.0" transform="matrix(1.0, 0.0, 0.0, 1.0, 0.0, 0.0)" width="26.0" xlink:href="#shape1"/>
    <use ffdec:characterId="37" height="26.0" transform="matrix(1.0, 0.0, 0.0, 1.0, 0.0, 0.0)" width="26.0" xlink:href="#shape1"/>
  </g>
  <defs>
    <g id="shape0" transform="matrix(1.0, 0.0, 0.0, 1.0, 0.0, 0.0)">
      <path d="M23.5 2.45 Q23.5 2.5 23.5 2.5 23.5 2.55 23.5 2.55 23.5 2.55 23.5 2.55 23.5 2.6 23.5 2.6 L23.5 4.05 22.85 3.8 23.5 4.5 23.5 5.25 22.95 5.25 23.5 6.45 23.5 7.1 23.3 8.15 23.5 7.8 23.5 9.55 22.85 9.85 23.15 10.05 23.75 9.8 23.75 8.05 23.5 8.4 23.75 7.35 23.75 6.7 23.2 5.5 23.75 5.5 23.75 4.75 23.1 4.05 23.75 4.3 23.75 2.85 Q23.75 2.8 23.75 2.8 23.75 2.7 23.75 2.65 23.75 2.55 23.7 2.55 23.7 2.5 23.65 2.5 23.6 2.5 23.5 2.45 L23.5 2.45 M23.5 10.4 L23.5 22.5 23.5 23.15 Q23.5 23.4 23.5 23.4 23.45 23.5 23.4 23.5 23.35 23.5 23.15 23.5 L22.5 23.5 21.85 23.5 20.95 23.5 21.0 23.75 22.1 23.75 22.75 23.75 23.4 23.75 Q23.65 23.75 23.7 23.75 23.75 23.7 23.75 23.4 L23.75 22.75 23.75 10.55 23.5 10.4 M20.7 22.75 L19.95 23.5 16.1 23.5 15.25 23.05 15.2 23.5 14.15 23.5 13.9 23.5 12.75 23.4 12.05 23.5 10.85 23.5 10.7 23.3 10.2 23.55 9.7 23.5 8.85 23.25 8.4 23.5 7.5 23.5 7.25 23.35 6.45 23.5 5.85 23.5 5.2 23.5 4.55 23.5 3.95 23.45 3.25 23.5 2.85 23.5 Q2.85 23.55 2.85 23.6 2.85 23.65 2.85 23.7 2.8 23.7 2.8 23.75 2.85 23.75 2.85 23.75 2.85 23.75 2.85 23.75 L3.5 23.75 4.2 23.7 4.8 23.75 5.45 23.75 6.05 23.75 6.7 23.75 7.45 23.6 7.75 23.75 8.65 23.75 9.1 23.5 9.9 23.75 10.45 23.8 10.95 23.55 11.1 23.75 12.3 23.75 13.0 23.65 14.1 23.75 14.4 23.75 15.4 23.75 15.5 23.3 16.35 23.75 20.15 23.75 20.75 23.2 20.7 22.75" fill="#ffffff" fill-rule="evenodd" stroke="none"/>
      <path d="M2.6 2.2 L5.95 2.2 6.2 2.65 6.5 2.4 7.75 2.2 13.5 2.2 13.7 2.7 14.15 2.2 15.45 2.2 16.65 2.2 17.15 2.65 17.35 2.2 18.0 2.2 23.15 2.2 Q23.35 2.2 23.4 2.25 23.45 2.25 23.5 2.35 23.5 2.4 23.5 2.55 23.5 2.55 23.5 2.6 L23.5 4.05 22.85 3.8 23.5 4.5 23.5 5.25 22.95 5.25 23.5 6.45 23.5 7.1 23.3 8.15 23.5 7.8 23.5 9.55 22.85 9.85 23.5 10.3 23.5 22.5 23.5 23.15 Q23.5 23.4 23.5 23.4 23.45 23.5 23.4 23.5 23.35 23.5 23.15 23.5 L22.5 23.5 21.85 23.5 20.75 23.5 20.7 22.75 19.95 23.5 16.1 23.5 15.25 23.05 15.2 23.5 14.15 23.5 13.9 23.5 12.75 23.4 12.05 23.5 10.85 23.5 10.7 23.3 10.2 23.55 9.7 23.5 8.85 23.25 8.4 23.5 7.5 23.5 7.25 23.35 6.45 23.5 5.85 23.5 5.2 23.5 4.55 23.5 3.95 23.45 3.25 23.5 2.6 23.5 Q2.6 23.5 2.6 23.5 2.6 23.5 2.6 23.5 2.4 23.5 2.35 23.5 2.3 23.5 2.25 23.45 2.25 23.4 2.25 23.2 2.25 23.2 2.25 23.2 2.25 23.2 2.25 23.2 2.25 23.15 2.25 23.15 L2.25 17.7 3.05 17.5 2.25 16.75 2.25 16.1 2.25 15.45 2.25 14.45 2.65 14.15 2.25 13.9 2.25 10.65 2.65 10.45 2.25 9.9 2.25 9.0 2.25 8.35 2.25 7.7 2.75 7.2 2.25 6.85 2.25 2.6 Q2.25 2.55 2.25 2.55 2.25 2.4 2.25 2.35 2.3 2.25 2.35 2.25 2.4 2.2 2.55 2.2 2.55 2.2 2.6 2.2 2.6 2.2 2.6 2.2 2.6 2.2 2.6 2.2 L2.6 2.2" fill="#000000" fill-rule="evenodd" stroke="none"/>
    </g>
    <g id="shape1" transform="matrix(1.0, 0.0, 0.0, 1.0, 0.0, 0.0)">
      <path d="M13.4 14.1 Q13.4 14.1 13.6 14.1 13.9 14.1 14.15 14.05 14.6 14.0 14.95 13.9 15.45 13.75 15.85 13.6 16.35 13.35 16.75 13.1 17.25 12.75 17.55 12.35 17.95 11.85 18.1 11.3 18.35 10.65 18.35 9.9 18.35 9.05 18.15 8.35 17.95 7.7 17.55 7.2 17.25 6.75 16.75 6.4 16.35 6.05 15.85 5.85 15.4 5.65 14.95 5.5 14.55 5.4 14.15 5.35 13.85 5.3 13.55 5.25 13.45 5.25 13.35 5.25 L7.65 5.25 7.65 5.4 7.65 6.25 8.2 6.8 8.2 7.2 8.3 7.3 8.3 8.75 8.45 8.75 8.45 9.05 8.9 9.2 9.4 9.25 9.3 9.4 8.55 9.4 8.4 9.65 8.35 9.9 8.35 17.6 Q8.35 17.6 8.35 17.65 8.35 17.75 8.35 17.85 8.35 18.0 8.35 18.15 8.3 18.3 8.3 18.45 8.25 18.65 8.2 18.8 8.15 19.0 8.1 19.15 8.0 19.3 7.9 19.45 7.8 19.55 7.65 19.65 L7.65 20.75 11.4 20.75 11.4 19.6 Q11.4 19.6 11.35 19.6 11.35 19.6 11.3 19.55 11.25 19.5 11.2 19.45 11.1 19.4 11.05 19.3 11.0 19.2 10.95 19.1 10.85 18.95 10.85 18.75 10.8 18.6 10.75 18.35 10.75 18.15 10.75 17.85 L10.75 12.05 10.6 11.9 10.65 11.8 10.75 11.75 10.75 10.0 10.7 9.8 10.6 9.6 10.6 9.0 10.65 8.85 10.75 8.95 10.75 8.8 10.75 7.4 13.65 7.4 Q13.65 7.4 13.75 7.4 13.9 7.4 14.05 7.45 14.2 7.5 14.4 7.55 14.65 7.6 14.85 7.75 15.1 7.85 15.3 8.05 15.55 8.2 15.7 8.45 15.9 8.75 16.0 9.05 16.1 9.45 16.1 9.9 16.1 9.9 16.1 10.0 16.1 10.1 16.1 10.25 16.05 10.45 16.0 10.6 15.9 10.85 15.75 11.05 15.6 11.25 15.3 11.45 15.05 11.65 14.65 11.8 14.2 11.95 13.65 12.0 13.05 12.05 12.3 12.05 L12.2 12.05 12.2 13.45 13.4 14.1" fill="#f1edf8" fill-rule="evenodd" stroke="none"/>
    </g>
  </defs>
</svg>
