<?xml version="1.0" encoding="UTF-8" standalone="no"?>
<svg xmlns:ffdec="https://www.free-decompiler.com/flash" xmlns:xlink="http://www.w3.org/1999/xlink" ffdec:objectType="frame" height="26.55px" width="70.8px" xmlns="http://www.w3.org/2000/svg">
  <g transform="matrix(1.0, 0.0, 0.0, 1.0, 0.2, 0.4)">
    <use ffdec:characterId="118" height="26.0" transform="matrix(1.0, 0.0, 0.0, 1.0, 0.0, 0.0)" width="35.75" xlink:href="#shape0"/>
    <use ffdec:characterId="118" height="26.0" transform="matrix(1.0, 0.0, 0.0, 1.0, 0.0, 0.0)" width="35.75" xlink:href="#shape0"/>
  </g>
  <defs>
    <g id="shape0" transform="matrix(1.0, 0.0, 0.0, 1.0, 0.0, 0.0)">
      <path d="M11.8 6.45 L6.9 6.45 6.9 6.55 6.9 7.55 7.4 8.25 7.4 8.6 7.5 8.65 7.5 9.9 7.65 9.9 7.65 10.15 8.05 10.25 8.45 10.3 8.35 10.45 7.65 10.45 7.6 10.65 7.55 10.85 7.55 16.75 Q7.55 16.75 7.55 16.8 7.55 16.85 7.55 16.95 7.55 17.05 7.55 17.2 7.5 17.35 7.5 17.45 7.45 17.6 7.4 17.75 7.4 17.9 7.3 18.05 7.25 18.2 7.15 18.3 7.05 18.4 6.95 18.45 L6.95 19.35 8.85 19.35 9.85 19.35 11.9 19.35 Q11.95 19.35 12.1 19.35 12.4 19.3 12.7 19.25 13.1 19.15 13.5 19.0 14.0 18.8 14.45 18.5 14.95 18.2 15.4 17.75 15.85 17.25 16.2 16.6 16.55 15.9 16.75 15.0 17.0 14.05 17.0 12.9 17.0 11.75 16.75 10.8 16.55 9.9 16.2 9.2 15.85 8.55 15.35 8.05 14.9 7.6 14.4 7.3 13.95 7.0 13.45 6.8 13.05 6.65 12.6 6.55 12.3 6.5 12.0 6.45 11.9 6.45 11.8 6.45 L11.8 6.45 M12.2 17.4 L10.0 17.4 9.5 17.4 9.5 8.45 10.0 8.45 12.2 8.45 Q12.2 8.45 12.3 8.45 12.45 8.45 12.65 8.5 12.85 8.6 13.05 8.7 13.35 8.85 13.6 9.05 13.85 9.25 14.1 9.55 14.35 9.9 14.55 10.35 14.75 10.85 14.85 11.5 14.95 12.15 14.95 12.95 14.95 13.75 14.85 14.4 14.75 15.0 14.55 15.45 14.35 15.9 14.1 16.25 13.85 16.55 13.6 16.8 13.35 17.0 13.05 17.1 12.85 17.25 12.6 17.3 12.45 17.35 12.3 17.35 12.25 17.4 12.2 17.4 L12.2 17.4" fill="#f1edf8" fill-rule="evenodd" stroke="none"/>
      <path d="M21.95 17.75 Q21.95 17.75 21.9 17.75 21.8 17.7 21.7 17.7 21.55 17.65 21.4 17.6 21.2 17.55 21.05 17.45 20.85 17.35 20.7 17.2 20.55 17.1 20.4 16.9 20.25 16.7 20.15 16.5 20.05 16.25 20.05 16.0 20.05 15.95 20.0 15.9 20.0 15.85 20.0 15.85 20.0 15.8 20.0 15.75 L21.05 15.75 23.5 15.7 Q23.5 15.7 23.55 15.7 23.65 15.7 23.7 15.7 23.8 15.65 23.9 15.65 24.0 15.65 24.15 15.6 24.25 15.55 24.4 15.5 24.5 15.45 24.65 15.4 24.75 15.3 24.85 15.2 24.95 15.1 25.0 15.0 L25.4 13.75 Q25.4 13.75 25.4 13.75 25.4 13.7 25.4 13.65 25.4 13.75 25.45 13.55 25.45 13.5 25.45 13.45 25.5 13.35 25.5 13.25 25.5 13.15 25.5 13.1 25.55 13.0 25.55 12.9 25.55 12.8 25.55 12.7 25.55 12.7 25.55 12.7 25.55 12.75 25.5 12.75 25.5 12.8 25.45 12.8 25.4 12.85 25.4 12.85 25.35 12.85 25.3 12.85 25.25 12.85 25.2 12.8 25.15 12.75 25.05 12.65 25.0 12.55 24.95 12.45 24.85 12.25 24.7 12.05 24.55 11.9 24.35 11.75 24.15 11.65 23.95 11.55 23.75 11.45 23.55 11.4 23.35 11.35 23.15 11.3 23.0 11.25 22.85 11.25 22.75 11.25 22.65 11.25 22.6 11.25 22.55 11.25 22.0 11.25 21.55 11.3 21.1 11.4 20.7 11.55 20.3 11.7 20.0 11.95 19.7 12.2 19.45 12.45 19.2 12.7 19.0 13.0 18.85 13.25 18.7 13.55 18.6 13.85 18.55 14.1 18.5 14.35 18.45 14.55 L17.95 14.7 Q18.0 14.75 18.05 14.85 18.05 14.95 18.05 15.0 18.1 15.05 18.1 15.15 18.1 15.3 18.1 15.3 18.15 15.35 18.15 15.4 18.15 15.45 18.2 15.5 18.25 15.55 18.25 15.55 18.3 15.6 18.4 15.6 L18.35 15.55 18.4 15.6 18.4 15.55 18.45 15.5 18.55 15.5 18.55 15.5 18.65 15.45 18.65 15.55 18.55 15.6 18.5 15.65 18.45 15.65 18.45 15.65 Q18.45 15.7 18.4 15.75 18.4 16.4 18.6 16.95 18.75 17.45 19.1 17.85 19.35 18.2 19.7 18.5 20.05 18.75 20.45 18.95 20.8 19.1 21.2 19.2 21.5 19.25 21.8 19.3 22.05 19.35 22.25 19.35 22.35 19.35 22.45 19.35 22.85 19.35 23.2 19.3 23.5 19.25 23.8 19.15 24.05 19.05 24.3 18.95 24.5 18.85 24.65 18.75 24.8 18.6 24.9 18.5 25.0 18.4 25.1 18.3 25.15 18.25 25.15 18.2 25.2 18.15 25.2 18.15 L25.15 16.55 24.45 16.65 Q24.4 16.85 24.25 17.05 24.1 17.2 23.9 17.3 23.7 17.45 23.5 17.5 23.3 17.6 23.05 17.65 22.85 17.7 22.65 17.7 22.5 17.75 22.3 17.75 22.15 17.75 22.05 17.75 22.0 17.75 21.95 17.75 L21.95 17.75 M22.3 12.4 Q22.3 12.4 22.4 12.4 22.45 12.4 22.55 12.4 22.7 12.45 22.8 12.5 23.0 12.55 23.1 12.6 23.25 12.7 23.4 12.8 23.55 12.95 23.65 13.1 23.75 13.3 23.8 13.55 23.85 13.8 23.8 14.15 23.8 14.15 22.95 14.3 22.0 14.5 21.4 14.55 L20.0 14.55 Q20.1 14.1 20.3 13.75 20.45 13.45 20.65 13.2 20.8 13.0 21.0 12.8 21.2 12.7 21.4 12.6 21.6 12.5 21.75 12.45 21.9 12.4 22.05 12.4 22.15 12.4 22.25 12.4 22.3 12.4 22.3 12.4 L22.3 12.4" fill="#f1edf8" fill-rule="evenodd" stroke="none"/>
      <path d="M28.4 17.0 L28.4 10.35 28.3 10.4 28.2 10.5 28.15 10.45 28.05 10.45 28.05 10.35 28.1 10.35 28.1 10.3 28.15 10.25 28.25 10.25 28.3 10.15 28.4 10.05 28.4 7.55 Q28.4 7.45 28.4 7.3 28.45 7.2 28.45 7.1 28.5 7.0 28.55 6.9 28.55 6.8 28.6 6.75 28.65 6.65 28.7 6.6 28.7 6.55 28.75 6.5 28.8 6.5 28.8 6.45 28.8 6.45 28.8 6.45 L28.35 6.45 26.25 7.0 Q26.3 7.05 26.35 7.15 26.4 7.25 26.45 7.35 26.45 7.45 26.5 7.55 26.5 7.65 26.55 7.75 26.55 7.8 26.6 7.9 26.6 7.95 26.6 8.05 26.6 8.1 26.6 8.15 26.6 8.15 26.6 8.15 L26.6 16.1 26.6 16.95 Q26.6 17.25 26.6 17.45 26.55 17.7 26.55 17.85 26.5 18.0 26.45 18.15 26.45 18.25 26.4 18.35 26.35 18.4 26.3 18.45 26.3 18.5 26.25 18.5 26.2 18.5 26.2 18.55 26.2 18.55 26.2 18.55 L26.2 19.35 28.85 19.35 28.85 18.55 Q28.75 18.55 28.7 18.5 28.65 18.4 28.6 18.3 28.55 18.2 28.5 18.05 28.5 17.9 28.45 17.75 28.45 17.65 28.4 17.5 28.4 17.35 28.4 17.25 28.4 17.15 28.4 17.05 28.4 17.0 28.4 17.0 L28.4 17.0" fill="#f1edf8" fill-rule="evenodd" stroke="none"/>
    </g>
  </defs>
</svg>
