<?xml version="1.0" encoding="UTF-8" standalone="no"?>
<svg xmlns:ffdec="https://www.free-decompiler.com/flash" xmlns:xlink="http://www.w3.org/1999/xlink" ffdec:objectType="frame" height="26.55px" width="70.8px" xmlns="http://www.w3.org/2000/svg">
  <g transform="matrix(1.0, 0.0, 0.0, 1.0, 0.2, 0.4)">
    <use ffdec:characterId="3" height="26.0" transform="matrix(1.0, 0.0, 0.0, 1.0, 0.0, 0.0)" width="26.0" xlink:href="#shape0"/>
    <use ffdec:characterId="123" height="26.0" transform="matrix(1.0, 0.0, 0.0, 1.0, 0.0, 0.0)" width="26.0" xlink:href="#shape1"/>
    <use ffdec:characterId="123" height="26.0" transform="matrix(1.0, 0.0, 0.0, 1.0, 0.0, 0.0)" width="26.0" xlink:href="#shape1"/>
  </g>
  <defs>
    <g id="shape0" transform="matrix(1.0, 0.0, 0.0, 1.0, 0.0, 0.0)">
      <path d="M23.5 2.45 Q23.5 2.5 23.5 2.5 23.5 2.55 23.5 2.55 23.5 2.55 23.5 2.55 23.5 2.6 23.5 2.6 L23.5 4.05 22.85 3.8 23.5 4.5 23.5 5.25 22.95 5.25 23.5 6.45 23.5 7.1 23.3 8.15 23.5 7.8 23.5 9.55 22.85 9.85 23.15 10.05 23.75 9.8 23.75 8.05 23.5 8.4 23.75 7.35 23.75 6.7 23.2 5.5 23.75 5.5 23.75 4.75 23.1 4.05 23.75 4.3 23.75 2.85 Q23.75 2.8 23.75 2.8 23.75 2.7 23.75 2.65 23.75 2.55 23.7 2.55 23.7 2.5 23.65 2.5 23.6 2.5 23.5 2.45 L23.5 2.45 M23.5 10.4 L23.5 22.5 23.5 23.15 Q23.5 23.4 23.5 23.4 23.45 23.5 23.4 23.5 23.35 23.5 23.15 23.5 L22.5 23.5 21.85 23.5 20.95 23.5 21.0 23.75 22.1 23.75 22.75 23.75 23.4 23.75 Q23.65 23.75 23.7 23.75 23.75 23.7 23.75 23.4 L23.75 22.75 23.75 10.55 23.5 10.4 M20.7 22.75 L19.95 23.5 16.1 23.5 15.25 23.05 15.2 23.5 14.15 23.5 13.9 23.5 12.75 23.4 12.05 23.5 10.85 23.5 10.7 23.3 10.2 23.55 9.7 23.5 8.85 23.25 8.4 23.5 7.5 23.5 7.25 23.35 6.45 23.5 5.85 23.5 5.2 23.5 4.55 23.5 3.95 23.45 3.25 23.5 2.85 23.5 Q2.85 23.55 2.85 23.6 2.85 23.65 2.85 23.7 2.8 23.7 2.8 23.75 2.85 23.75 2.85 23.75 2.85 23.75 2.85 23.75 L3.5 23.75 4.2 23.7 4.8 23.75 5.45 23.75 6.05 23.75 6.7 23.75 7.45 23.6 7.75 23.75 8.65 23.75 9.1 23.5 9.9 23.75 10.45 23.8 10.95 23.55 11.1 23.75 12.3 23.75 13.0 23.65 14.1 23.75 14.4 23.75 15.4 23.75 15.5 23.3 16.35 23.75 20.15 23.75 20.75 23.2 20.7 22.75" fill="#000000" fill-opacity="0.0" fill-rule="evenodd" stroke="none"/>
      <path d="M2.6 2.2 L5.95 2.2 6.2 2.65 6.5 2.4 7.75 2.2 13.5 2.2 13.7 2.7 14.15 2.2 15.45 2.2 16.65 2.2 17.15 2.65 17.35 2.2 18.0 2.2 23.15 2.2 Q23.35 2.2 23.4 2.25 23.45 2.25 23.5 2.35 23.5 2.4 23.5 2.55 23.5 2.55 23.5 2.6 L23.5 4.05 22.85 3.8 23.5 4.5 23.5 5.25 22.95 5.25 23.5 6.45 23.5 7.1 23.3 8.15 23.5 7.8 23.5 9.55 22.85 9.85 23.5 10.3 23.5 22.5 23.5 23.15 Q23.5 23.4 23.5 23.4 23.45 23.5 23.4 23.5 23.35 23.5 23.15 23.5 L22.5 23.5 21.85 23.5 20.75 23.5 20.7 22.75 19.95 23.5 16.1 23.5 15.25 23.05 15.2 23.5 14.15 23.5 13.9 23.5 12.75 23.4 12.05 23.5 10.85 23.5 10.7 23.3 10.2 23.55 9.7 23.5 8.85 23.25 8.4 23.5 7.5 23.5 7.25 23.35 6.45 23.5 5.85 23.5 5.2 23.5 4.55 23.5 3.95 23.45 3.25 23.5 2.6 23.5 Q2.6 23.5 2.6 23.5 2.6 23.5 2.6 23.5 2.4 23.5 2.35 23.5 2.3 23.5 2.25 23.45 2.25 23.4 2.25 23.2 2.25 23.2 2.25 23.2 2.25 23.2 2.25 23.2 2.25 23.15 2.25 23.15 L2.25 17.7 3.05 17.5 2.25 16.75 2.25 16.1 2.25 15.45 2.25 14.45 2.65 14.15 2.25 13.9 2.25 10.65 2.65 10.45 2.25 9.9 2.25 9.0 2.25 8.35 2.25 7.7 2.75 7.2 2.25 6.85 2.25 2.6 Q2.25 2.55 2.25 2.55 2.25 2.4 2.25 2.35 2.3 2.25 2.35 2.25 2.4 2.2 2.55 2.2 2.55 2.2 2.6 2.2 2.6 2.2 2.6 2.2 2.6 2.2 2.6 2.2 L2.6 2.2" fill="#000000" fill-opacity="0.0" fill-rule="evenodd" stroke="none"/>
    </g>
    <g id="shape1" transform="matrix(1.0, 0.0, 0.0, 1.0, 0.0, 0.0)">
      <path d="M9.9 0.5 Q9.75 0.5 9.65 0.5 9.5 0.5 9.4 0.55 9.25 0.55 9.15 0.6 9.05 0.65 8.9 0.7 8.8 0.7 8.7 0.8 8.6 0.85 8.45 0.9 8.35 0.95 8.25 1.05 8.15 1.15 8.05 1.2 7.95 1.3 7.9 1.4 7.8 1.5 7.75 1.6 7.7 1.7 7.6 1.85 7.55 1.95 7.5 2.05 7.5 2.2 7.45 2.3 7.4 2.4 7.4 2.55 7.35 2.65 7.35 2.8 7.35 2.95 7.35 3.05 L7.35 5.95 Q7.5 5.95 7.7 6.0 7.95 6.0 8.05 6.0 L8.05 3.55 7.45 2.8 Q7.45 2.8 7.75 2.95 8.05 3.1 8.05 3.05 8.05 2.95 8.05 2.9 8.1 2.8 8.1 2.7 8.1 2.6 8.15 2.5 8.15 2.4 8.2 2.35 8.25 2.25 8.25 2.15 8.3 2.05 8.35 1.95 8.4 1.9 8.45 1.8 8.5 1.75 8.55 1.7 8.6 1.65 8.7 1.55 8.75 1.5 8.85 1.45 8.9 1.4 9.0 1.35 9.05 1.3 9.15 1.25 9.25 1.25 9.3 1.2 9.4 1.2 9.5 1.15 9.55 1.15 9.65 1.15 9.75 1.15 9.85 1.15 L16.15 1.15 Q16.25 1.15 16.35 1.15 16.4 1.15 16.5 1.15 16.6 1.2 16.65 1.2 16.75 1.25 16.85 1.25 16.9 1.3 17.0 1.35 17.05 1.4 17.15 1.45 17.2 1.5 17.3 1.55 17.35 1.6 17.4 1.7 17.45 1.75 17.55 1.85 17.6 1.9 17.65 1.95 17.7 2.05 17.75 2.1 17.75 2.2 17.8 2.3 17.85 2.35 17.85 2.45 17.9 2.5 17.9 2.6 17.9 2.7 17.95 2.8 17.95 2.9 17.95 2.95 L17.95 16.0 Q18.0 16.0 18.15 16.0 18.3 16.0 18.65 16.0 L18.65 3.05 Q18.65 2.95 18.65 2.85 18.65 2.8 18.65 2.7 18.6 2.6 18.6 2.5 18.6 2.45 18.55 2.35 18.55 2.25 18.5 2.2 18.5 2.1 18.45 2.05 18.4 1.95 18.4 1.85 18.35 1.8 18.3 1.75 L17.9 1.2 Q17.8 1.1 17.7 1.05 17.6 0.95 17.5 0.9 17.4 0.85 17.3 0.75 17.2 0.7 17.05 0.65 16.95 0.65 16.85 0.6 16.7 0.55 16.6 0.55 16.5 0.5 16.35 0.5 16.25 0.5 16.1 0.5 L9.9 0.5 M7.35 6.2 L7.35 6.9 Q7.6 6.9 8.05 6.9 L8.05 6.25 Q7.85 6.25 7.35 6.2 L7.35 6.2 M7.35 7.15 L7.35 7.9 Q7.5 7.9 8.05 7.9 L8.05 7.15 Q8.0 7.15 7.95 7.15 7.9 7.15 7.85 7.15 7.85 7.15 7.8 7.15 7.75 7.15 7.7 7.15 7.65 7.15 7.6 7.15 7.55 7.15 7.5 7.15 7.5 7.15 7.45 7.15 7.4 7.15 7.35 7.15 L7.35 7.15 M7.35 8.15 L7.35 8.95 Q7.55 8.95 8.0 8.95 8.0 8.95 8.05 8.95 L8.05 8.15 Q8.0 8.15 7.7 8.15 7.5 8.15 7.35 8.15 L7.35 8.15 M8.05 9.2 Q8.05 9.2 8.0 9.2 7.85 9.2 7.35 9.25 L7.35 22.95 Q7.35 23.1 7.35 23.2 7.35 23.35 7.4 23.45 7.4 23.55 7.45 23.7 7.5 23.8 7.5 23.9 7.55 24.05 7.6 24.15 7.7 24.25 7.75 24.35 7.8 24.45 7.9 24.55 8.0 24.65 8.05 24.75 8.15 24.85 8.25 24.95 8.35 25.0 8.45 25.1 8.55 25.15 8.7 25.2 8.8 25.25 8.9 25.3 9.05 25.35 9.15 25.4 9.25 25.45 9.4 25.45 9.5 25.5 9.65 25.5 9.75 25.5 9.9 25.5 L16.1 25.5 Q16.25 25.5 16.35 25.5 16.5 25.5 16.6 25.45 16.7 25.45 16.85 25.4 16.95 25.35 17.05 25.3 17.2 25.25 17.3 25.2 17.4 25.15 17.5 25.1 17.6 25.0 17.7 24.95 17.8 24.85 17.9 24.75 L18.3 24.25 Q18.35 24.2 18.4 24.1 18.4 24.05 18.45 23.95 18.5 23.9 18.5 23.8 18.55 23.7 18.55 23.65 18.6 23.55 18.6 23.45 18.6 23.4 18.65 23.3 18.65 23.2 18.65 23.1 18.65 23.05 18.65 22.95 L18.65 20.2 Q18.15 20.15 18.15 20.15 18.2 20.1 18.2 20.15 18.2 20.1 17.95 20.1 L17.95 23.05 Q17.95 23.15 17.95 23.2 17.95 23.3 17.9 23.4 17.9 23.5 17.85 23.55 17.85 23.65 17.8 23.7 17.8 23.8 17.75 23.9 17.7 23.95 17.65 24.05 17.6 24.1 17.55 24.2 17.5 24.25 17.4 24.35 17.35 24.4 17.25 24.45 17.2 24.5 17.15 24.55 17.05 24.6 17.0 24.65 16.9 24.7 16.8 24.75 16.75 24.75 16.65 24.8 16.6 24.8 16.5 24.8 16.4 24.85 16.3 24.85 16.25 24.85 16.15 24.85 L9.85 24.85 Q9.75 24.85 9.65 24.85 9.55 24.85 9.5 24.8 9.4 24.8 9.3 24.8 9.25 24.75 9.15 24.7 9.05 24.7 9.0 24.65 8.9 24.6 8.85 24.55 8.75 24.5 8.7 24.45 8.65 24.4 8.55 24.35 8.5 24.3 8.45 24.2 8.4 24.15 8.35 24.05 8.3 24.0 8.25 23.9 8.2 23.8 8.15 23.75 8.15 23.65 8.1 23.55 8.1 23.5 8.1 23.4 8.05 23.3 8.05 23.2 8.05 23.1 8.05 23.05 L8.05 9.2 M18.65 16.25 Q18.5 16.25 18.15 16.25 18.1 16.25 18.1 16.25 18.05 16.25 18.0 16.25 18.0 16.25 17.95 16.25 L17.95 17.2 Q17.95 17.2 17.95 17.2 18.4 17.2 18.65 17.15 L18.65 16.25 M18.65 17.45 Q18.55 17.45 18.0 17.45 17.95 17.45 17.95 17.45 L17.95 18.5 Q17.95 18.5 18.0 18.5 18.4 18.4 18.65 18.35 L18.65 17.45 M18.65 18.65 Q18.5 18.65 18.05 18.75 17.95 18.75 17.95 18.75 L17.95 19.85 Q18.2 19.85 18.25 19.85 18.25 19.85 18.15 19.85 18.2 19.9 18.65 19.9 L18.65 18.65" fill="#f1edf8" fill-rule="evenodd" stroke="none"/>
      <path d="M15.6 3.25 L13.05 6.8 10.7 3.4 Q9.35 3.55 8.5 3.55 L8.5 3.85 Q8.55 3.85 8.6 3.9 8.6 3.9 8.65 3.95 8.7 4.0 8.7 4.05 8.7 4.1 8.75 4.15 8.75 4.2 8.75 4.25 8.75 4.3 8.8 4.35 8.8 4.35 8.8 4.4 8.8 4.4 8.8 4.4 L8.8 10.7 Q8.8 10.85 8.8 10.95 8.75 11.1 8.75 11.2 8.7 11.3 8.65 11.35 8.6 11.4 8.6 11.45 8.55 11.5 8.5 11.55 8.45 11.6 8.45 11.6 8.4 11.65 8.4 11.65 8.35 11.65 8.35 11.65 L8.35 12.2 10.5 12.2 10.5 11.65 Q10.45 11.65 10.35 11.6 10.3 11.55 10.3 11.45 10.25 11.4 10.2 11.3 10.2 11.2 10.15 11.1 10.15 11.05 10.15 10.95 10.15 10.85 10.15 10.8 10.15 10.75 10.15 10.7 10.15 10.65 10.15 10.65 L10.15 10.15 Q10.1 10.2 10.0 10.2 9.95 10.25 9.95 10.3 9.85 10.3 9.85 10.25 9.85 10.2 9.85 10.15 L9.9 10.15 9.95 10.1 10.0 10.1 10.1 9.95 10.1 5.55 10.2 5.55 13.0 9.3 15.7 5.55 15.75 5.55 15.75 10.7 Q15.75 10.85 15.75 11.0 15.75 11.1 15.7 11.2 15.7 11.3 15.65 11.35 15.65 11.45 15.6 11.5 15.55 11.5 15.55 11.55 15.5 11.6 15.5 11.6 15.45 11.6 15.45 11.65 15.45 11.65 15.45 11.65 L15.45 12.2 17.65 12.2 17.65 11.65 Q17.6 11.6 17.55 11.55 17.5 11.5 17.45 11.45 17.45 11.4 17.4 11.3 17.4 11.2 17.35 11.15 17.35 11.05 17.35 11.0 17.3 10.9 17.3 10.85 17.3 10.8 17.3 10.75 17.3 10.75 17.3 10.75 L17.3 6.8 17.2 6.8 17.2 6.7 17.05 6.65 17.1 6.6 17.0 6.55 16.9 6.5 16.85 6.35 16.95 6.4 17.0 6.35 17.05 6.4 17.15 6.35 17.35 6.35 17.35 4.05 17.4 3.9 17.3 3.95 17.15 3.95 17.1 4.0 16.85 4.0 17.0 3.9 17.0 3.85 17.25 3.85 17.3 3.75 17.65 3.75 17.65 3.25 15.6 3.25 M14.1 6.95 L14.3 7.0 14.3 7.1 14.4 7.1 14.3 7.2 14.1 7.15 14.1 7.15 14.0 7.1 14.1 6.95" fill="#f1edf8" fill-rule="evenodd" stroke="none"/>
      <path d="M11.25 16.8 Q11.25 16.8 11.25 16.85 11.25 16.9 11.25 17.0 11.25 17.1 11.3 17.15 11.35 17.25 11.4 17.35 11.45 17.45 11.55 17.55 11.65 17.6 11.75 17.65 11.9 17.7 12.1 17.65 12.3 17.65 12.55 17.55 12.7 17.5 12.95 17.5 13.15 17.45 13.35 17.5 13.6 17.5 13.8 17.55 14.05 17.65 14.25 17.75 14.45 17.8 14.6 17.95 14.8 18.05 14.95 18.2 15.05 18.35 15.15 18.5 15.2 18.7 15.2 18.9 15.2 19.05 15.15 19.25 15.1 19.45 15.0 19.6 14.95 19.8 14.8 19.95 14.7 20.15 14.5 20.3 14.35 20.45 14.2 20.6 14.05 20.7 13.85 20.8 13.65 20.9 13.5 21.0 13.3 21.05 13.1 21.1 12.75 21.15 12.45 21.15 12.15 21.2 11.85 21.15 11.6 21.1 11.35 21.05 11.15 21.0 10.95 20.95 10.8 20.85 10.65 20.8 10.55 20.7 10.45 20.65 10.35 20.6 10.3 20.55 10.25 20.5 10.25 20.5 10.25 20.6 10.2 20.75 10.15 20.85 10.1 20.95 10.0 21.05 9.9 21.15 9.85 21.25 9.7 21.35 9.4 21.7 9.55 21.55 9.45 21.65 9.4 21.7 9.35 21.8 9.3 21.85 9.3 21.9 9.35 21.95 9.4 22.0 9.45 22.05 9.5 22.1 9.6 22.15 9.7 22.2 9.8 22.25 9.95 22.3 10.1 22.35 10.25 22.4 10.45 22.5 10.65 22.55 10.9 22.6 11.15 22.65 11.4 22.7 11.7 22.75 12.05 22.75 12.4 22.8 12.75 22.75 13.15 22.7 13.5 22.65 13.9 22.55 14.25 22.4 14.6 22.25 14.9 22.05 15.25 21.85 15.5 21.55 15.8 21.25 16.05 20.9 16.25 20.55 16.4 20.15 16.6 19.7 16.65 19.2 16.7 18.7 16.65 18.3 16.6 17.9 16.45 17.6 16.35 17.3 16.15 17.05 15.95 16.85 15.7 16.65 15.5 16.55 15.25 16.4 15.1 16.35 14.9 16.3 14.75 16.25 14.6 16.2 14.55 16.2 14.5 16.2 14.5 16.2 14.55 16.15 14.65 16.1 14.75 16.0 14.85 15.9 14.95 15.8 15.1 15.65 15.2 15.5 15.35 15.35 15.5 15.2 15.6 15.0 15.7 14.8 15.8 14.55 15.85 14.35 15.9 14.1 15.9 13.9 15.9 13.65 15.8 13.45 15.75 13.25 15.6 13.05 15.5 12.85 15.3 12.7 15.15 12.6 15.0 12.45 14.8 12.35 14.6 12.3 14.4 12.2 14.2 12.15 14.05 12.1 13.85 12.05 13.65 12.05 13.5 12.05 13.35 12.05 13.15 12.05 12.95 12.1 12.8 12.1 12.6 12.15 12.45 12.2 12.25 12.25 12.05 12.3 11.85 12.35 11.7 12.45 11.5 12.55 11.35 12.65 11.15 12.75 11.0 12.9 10.8 13.05 10.65 13.2 10.55 13.35 10.4 13.45 10.3 13.55 10.25 13.65 10.15 13.7 10.1 13.75 10.0 13.8 9.95 13.85 9.9 13.9 9.85 13.9 9.85 13.95 9.8 13.95 9.8 13.95 9.75 13.95 9.75 13.95 9.75 13.95 9.75 14.05 9.8 14.2 9.8 14.35 9.85 14.55 9.85 14.7 9.9 14.85 9.95 15.0 10.0 15.15 10.05 15.3 10.1 15.45 10.15 15.55 10.2 15.65 10.25 15.7 10.25 15.75 10.3 15.75 10.3 15.7 10.3 15.65 10.35 15.55 10.4 15.45 10.5 15.3 10.6 15.2 10.75 15.0 10.9 14.85 11.05 14.7 11.2 14.5 11.35 14.35 11.55 14.15 11.7 14.05 11.9 13.85 12.05 13.75 12.25 13.6 12.4 13.55 12.55 13.45 12.75 13.45 12.9 13.4 13.05 13.4 13.2 13.35 13.35 13.4 13.5 13.45 13.65 13.5 13.8 13.55 13.9 13.65 14.0 13.75 14.1 13.9 14.15 14.0 14.2 14.15 14.25 14.3 14.3 14.5 14.3 14.7 14.2 14.85 14.1 15.05 13.9 15.25 13.7 15.4 13.45 15.6 13.25 15.75 12.95 15.95 12.7 16.1 12.4 16.25 12.15 16.35 11.9 16.5 11.7 16.6 11.5 16.7 11.25 16.8 11.25 16.8 L11.25 16.8" fill="#f1edf8" fill-rule="evenodd" stroke="none"/>
    </g>
  </defs>
</svg>
