<?xml version="1.0" encoding="UTF-8" standalone="no"?>
<svg xmlns:ffdec="https://www.free-decompiler.com/flash" xmlns:xlink="http://www.w3.org/1999/xlink" ffdec:objectType="frame" height="26.55px" width="70.8px" xmlns="http://www.w3.org/2000/svg">
  <g transform="matrix(1.0, 0.0, 0.0, 1.0, 0.2, 0.4)">
    <use ffdec:characterId="3" height="26.0" transform="matrix(1.0, 0.0, 0.0, 1.0, 0.0, 0.0)" width="26.0" xlink:href="#shape0"/>
    <use ffdec:characterId="126" height="26.0" transform="matrix(1.0, 0.0, 0.0, 1.0, 0.0, 0.0)" width="26.0" xlink:href="#shape1"/>
    <use ffdec:characterId="126" height="26.0" transform="matrix(1.0, 0.0, 0.0, 1.0, 0.0, 0.0)" width="26.0" xlink:href="#shape1"/>
  </g>
  <defs>
    <g id="shape0" transform="matrix(1.0, 0.0, 0.0, 1.0, 0.0, 0.0)">
      <path d="M23.5 2.45 Q23.5 2.5 23.5 2.5 23.5 2.55 23.5 2.55 23.5 2.55 23.5 2.55 23.5 2.6 23.5 2.6 L23.5 4.05 22.85 3.8 23.5 4.5 23.5 5.25 22.95 5.25 23.5 6.45 23.5 7.1 23.3 8.15 23.5 7.8 23.5 9.55 22.85 9.85 23.15 10.05 23.75 9.8 23.75 8.05 23.5 8.4 23.75 7.35 23.75 6.7 23.2 5.5 23.75 5.5 23.75 4.75 23.1 4.05 23.75 4.3 23.75 2.85 Q23.75 2.8 23.75 2.8 23.75 2.7 23.75 2.65 23.75 2.55 23.7 2.55 23.7 2.5 23.65 2.5 23.6 2.5 23.5 2.45 L23.5 2.45 M23.5 10.4 L23.5 22.5 23.5 23.15 Q23.5 23.4 23.5 23.4 23.45 23.5 23.4 23.5 23.35 23.5 23.15 23.5 L22.5 23.5 21.85 23.5 20.95 23.5 21.0 23.75 22.1 23.75 22.75 23.75 23.4 23.75 Q23.65 23.75 23.7 23.75 23.75 23.7 23.75 23.4 L23.75 22.75 23.75 10.55 23.5 10.4 M20.7 22.75 L19.95 23.5 16.1 23.5 15.25 23.05 15.2 23.5 14.15 23.5 13.9 23.5 12.75 23.4 12.05 23.5 10.85 23.5 10.7 23.3 10.2 23.55 9.7 23.5 8.85 23.25 8.4 23.5 7.5 23.5 7.25 23.35 6.45 23.5 5.85 23.5 5.2 23.5 4.55 23.5 3.95 23.45 3.25 23.5 2.85 23.5 Q2.85 23.55 2.85 23.6 2.85 23.65 2.85 23.7 2.8 23.7 2.8 23.75 2.85 23.75 2.85 23.75 2.85 23.75 2.85 23.75 L3.5 23.75 4.2 23.7 4.8 23.75 5.45 23.75 6.05 23.75 6.7 23.75 7.45 23.6 7.75 23.75 8.65 23.75 9.1 23.5 9.9 23.75 10.45 23.8 10.95 23.55 11.1 23.75 12.3 23.75 13.0 23.65 14.1 23.75 14.4 23.75 15.4 23.75 15.5 23.3 16.35 23.75 20.15 23.75 20.75 23.2 20.7 22.75" fill="#000000" fill-opacity="0.0" fill-rule="evenodd" stroke="none"/>
      <path d="M2.6 2.2 L5.95 2.2 6.2 2.65 6.5 2.4 7.75 2.2 13.5 2.2 13.7 2.7 14.15 2.2 15.45 2.2 16.65 2.2 17.15 2.65 17.35 2.2 18.0 2.2 23.15 2.2 Q23.35 2.2 23.4 2.25 23.45 2.25 23.5 2.35 23.5 2.4 23.5 2.55 23.5 2.55 23.5 2.6 L23.5 4.05 22.85 3.8 23.5 4.5 23.5 5.25 22.95 5.25 23.5 6.45 23.5 7.1 23.3 8.15 23.5 7.8 23.5 9.55 22.85 9.85 23.5 10.3 23.5 22.5 23.5 23.15 Q23.5 23.4 23.5 23.4 23.45 23.5 23.4 23.5 23.35 23.5 23.15 23.5 L22.5 23.5 21.85 23.5 20.75 23.5 20.7 22.75 19.95 23.5 16.1 23.5 15.25 23.05 15.2 23.5 14.15 23.5 13.9 23.5 12.75 23.4 12.05 23.5 10.85 23.5 10.7 23.3 10.2 23.55 9.7 23.5 8.85 23.25 8.4 23.5 7.5 23.5 7.25 23.35 6.45 23.5 5.85 23.5 5.2 23.5 4.55 23.5 3.95 23.45 3.25 23.5 2.6 23.5 Q2.6 23.5 2.6 23.5 2.6 23.5 2.6 23.5 2.4 23.5 2.35 23.5 2.3 23.5 2.25 23.45 2.25 23.4 2.25 23.2 2.25 23.2 2.25 23.2 2.25 23.2 2.25 23.2 2.25 23.15 2.25 23.15 L2.25 17.7 3.05 17.5 2.25 16.75 2.25 16.1 2.25 15.45 2.25 14.45 2.65 14.15 2.25 13.9 2.25 10.65 2.65 10.45 2.25 9.9 2.25 9.0 2.25 8.35 2.25 7.7 2.75 7.2 2.25 6.85 2.25 2.6 Q2.25 2.55 2.25 2.55 2.25 2.4 2.25 2.35 2.3 2.25 2.35 2.25 2.4 2.2 2.55 2.2 2.55 2.2 2.6 2.2 2.6 2.2 2.6 2.2 2.6 2.2 2.6 2.2 L2.6 2.2" fill="#000000" fill-opacity="0.0" fill-rule="evenodd" stroke="none"/>
    </g>
    <g id="shape1" transform="matrix(1.0, 0.0, 0.0, 1.0, 0.0, 0.0)">
      <path d="M3.6 5.6 Q3.45 5.6 3.3 5.65 3.15 5.65 3.0 5.75 2.9 5.8 2.75 5.85 2.65 5.95 2.55 6.05 2.4 6.15 2.35 6.3 2.25 6.4 2.2 6.55 2.15 6.7 2.1 6.85 2.1 7.0 2.1 7.15 L2.1 18.85 Q2.1 19.0 2.1 19.15 2.15 19.3 2.2 19.45 2.25 19.6 2.35 19.7 2.45 19.85 2.55 19.95 2.65 20.05 2.75 20.15 2.9 20.2 3.05 20.25 3.15 20.35 3.3 20.35 3.45 20.4 3.6 20.4 L22.35 20.4 Q22.5 20.4 22.65 20.35 22.8 20.35 22.95 20.25 23.1 20.2 23.25 20.15 23.35 20.05 23.45 19.95 23.55 19.85 23.65 19.7 23.75 19.6 23.8 19.45 23.85 19.3 23.9 19.15 23.9 19.0 23.9 18.85 L23.9 11.2 23.75 11.25 23.45 11.35 Q22.95 11.55 22.4 11.7 L22.4 18.85 Q22.45 18.9 22.35 18.9 L14.45 18.9 14.45 19.05 14.6 19.4 14.4 19.4 14.3 19.2 14.3 19.05 14.1 19.0 14.05 18.9 3.6 18.9 Q3.6 18.9 3.6 18.85 L3.6 9.95 Q3.6 9.95 3.6 9.95 3.55 9.9 3.55 9.9 3.5 9.85 3.45 9.8 3.45 9.8 3.4 9.75 3.35 9.7 3.3 9.65 3.25 9.65 3.2 9.6 3.15 9.55 3.1 9.5 3.05 9.5 3.0 9.45 2.75 9.15 2.45 8.85 2.55 8.9 2.65 9.0 2.75 9.05 2.9 9.05 2.95 9.1 3.05 9.15 3.15 9.15 3.25 9.2 3.3 9.2 3.4 9.2 3.45 9.2 3.5 9.2 3.5 9.2 3.55 9.2 3.6 9.2 3.6 9.2 L3.6 7.15 Q3.55 7.1 3.6 7.1 L22.35 7.1 Q22.4 7.1 22.4 7.15 L22.4 11.2 22.4 11.45 Q22.4 11.45 22.4 11.45 22.45 11.45 22.5 11.45 22.55 11.4 22.55 11.4 22.65 11.4 22.7 11.4 22.8 11.35 22.85 11.35 23.0 11.3 23.1 11.25 23.2 11.2 23.35 11.15 23.5 11.1 23.7 11.05 L23.9 10.9 23.9 7.15 Q23.9 7.0 23.9 6.85 23.85 6.7 23.8 6.55 23.75 6.4 23.65 6.3 23.55 6.15 23.45 6.05 23.35 5.95 23.25 5.85 23.1 5.8 22.95 5.75 22.85 5.65 22.7 5.65 22.55 5.6 22.35 5.6 L3.6 5.6" fill="#f1edf8" fill-rule="evenodd" stroke="none"/>
      <path d="M13.75 8.7 L14.05 8.7 14.1 8.6 14.5 8.6 14.5 8.0 12.25 8.0 9.4 11.95 6.65 8.0 4.35 8.0 4.35 8.7 Q4.4 8.7 4.45 8.75 4.5 8.8 4.5 8.85 4.55 8.9 4.55 8.95 4.6 9.0 4.6 9.05 4.65 9.1 4.65 9.15 4.65 9.2 4.65 9.25 4.65 9.3 4.65 9.3 4.65 9.3 4.65 9.35 L4.65 16.3 Q4.65 16.45 4.65 16.6 4.6 16.75 4.6 16.85 4.55 16.95 4.5 17.0 4.5 17.1 4.45 17.15 4.4 17.2 4.35 17.25 4.3 17.3 4.25 17.3 4.25 17.35 4.2 17.35 4.2 17.35 4.2 17.35 L4.2 18.0 6.6 18.0 6.6 17.35 Q6.5 17.35 6.45 17.3 6.4 17.25 6.35 17.15 6.3 17.05 6.25 16.95 6.25 16.9 6.2 16.75 6.2 16.65 6.2 16.55 6.15 16.5 6.15 16.4 6.15 16.35 6.15 16.3 6.15 16.25 6.15 16.25 L6.15 15.7 Q6.25 15.75 6.05 15.75 6.0 15.8 5.95 15.85 5.85 15.85 5.85 15.8 5.85 15.75 5.9 15.7 L5.95 15.7 5.95 15.65 6.0 15.6 6.15 15.5 6.15 10.6 6.25 10.6 9.35 14.75 12.3 10.6 12.4 10.6 12.4 16.3 Q12.4 16.45 12.4 16.6 12.4 16.75 12.35 16.85 12.35 16.95 12.3 17.05 12.25 17.1 12.25 17.15 12.2 17.2 12.15 17.25 12.15 17.3 12.1 17.3 12.1 17.3 12.05 17.35 12.05 17.35 12.05 17.35 L12.05 18.0 14.5 18.0 14.5 17.35 Q14.45 17.3 14.4 17.25 14.35 17.2 14.3 17.15 14.25 17.05 14.25 16.95 14.2 16.9 14.2 16.8 14.15 16.7 14.15 16.6 14.15 16.55 14.1 16.5 14.1 16.45 14.1 16.4 14.1 16.35 14.1 16.35 L14.1 12.0 14.0 11.95 14.0 11.85 13.8 11.85 13.9 11.75 13.75 11.7 13.7 11.65 13.6 11.5 13.75 11.55 13.8 11.45 13.85 11.55 13.95 11.5 14.15 11.45 14.15 8.9 14.2 8.75 14.1 8.85 13.95 8.8 13.9 8.9 13.6 8.85 13.75 8.75 13.75 8.7 M10.8 12.45 L10.6 12.4 10.6 12.35 10.5 12.3 10.55 12.1 10.75 12.15 10.8 12.3 10.9 12.3 10.8 12.45" fill="#f1edf8" fill-rule="evenodd" stroke="none"/>
      <path d="M21.25 13.65 Q21.2 13.4 21.1 13.15 20.95 12.85 20.8 12.6 20.6 12.35 20.4 12.15 20.15 11.9 19.85 11.75 19.55 11.6 19.25 11.5 18.9 11.45 18.5 11.45 18.1 11.5 17.7 11.65 17.25 11.8 16.75 12.15 16.75 12.15 16.75 12.05 16.8 11.95 16.8 11.85 16.8 11.7 16.85 11.55 16.9 11.35 16.95 11.15 17.0 10.95 17.1 10.75 17.2 10.55 17.3 10.4 17.45 10.2 17.6 10.05 17.8 9.9 18.0 9.8 18.35 9.6 18.7 9.55 19.0 9.45 19.3 9.5 19.55 9.5 19.75 9.6 19.95 9.7 20.15 9.8 20.3 9.95 20.4 10.1 20.5 10.2 20.6 10.35 20.65 10.45 20.7 10.55 20.75 10.6 20.75 10.6 20.75 10.6 20.8 10.5 20.85 10.35 20.9 10.2 20.95 10.0 20.95 9.8 21.0 9.55 20.95 9.35 20.95 9.05 20.85 8.85 20.7 8.6 20.5 8.45 20.25 8.25 19.9 8.15 19.55 8.05 19.0 8.05 18.9 8.05 18.8 8.05 18.6 8.05 18.45 8.1 18.25 8.1 18.0 8.15 17.75 8.25 17.5 8.35 17.25 8.5 17.0 8.65 16.7 8.9 16.5 9.15 16.25 9.45 16.05 9.8 15.8 10.25 15.65 10.75 15.5 11.2 15.4 11.75 15.3 12.3 15.2 12.85 15.15 13.5 15.1 14.05 15.1 14.7 15.2 15.25 15.3 15.85 15.45 16.3 15.7 16.8 16.0 17.2 16.4 17.55 16.9 17.75 17.45 18.0 18.1 18.0 18.7 18.0 19.2 17.9 19.65 17.75 20.05 17.55 20.35 17.4 20.65 17.1 20.85 16.85 21.05 16.5 21.2 16.2 21.25 15.8 21.35 15.5 21.35 15.1 21.4 14.75 21.35 14.35 21.3 14.0 21.25 13.65 L21.25 13.65 M20.1 15.15 Q20.1 15.4 19.95 15.6 19.9 15.75 19.7 15.9 19.55 16.05 19.35 16.2 19.15 16.3 18.95 16.4 18.75 16.45 18.5 16.5 18.3 16.5 18.1 16.5 17.9 16.5 17.7 16.45 17.55 16.4 17.4 16.35 17.3 16.25 17.2 16.1 17.1 15.95 17.0 15.8 16.95 15.6 16.9 15.4 16.85 15.2 16.8 15.0 16.75 14.85 16.75 14.65 16.7 14.5 16.7 14.35 16.7 14.2 16.7 14.1 16.7 14.05 16.7 14.05 16.95 13.75 17.25 13.5 17.5 13.25 17.85 13.15 18.1 13.0 18.4 13.0 18.7 12.95 18.95 13.05 19.25 13.1 19.45 13.3 19.7 13.45 19.85 13.7 20.0 14.0 20.05 14.35 20.1 14.7 20.1 15.15 L20.1 15.15" fill="#f1edf8" fill-rule="evenodd" stroke="none"/>
    </g>
  </defs>
</svg>
