<?xml version="1.0" encoding="UTF-8" standalone="no"?>
<svg xmlns:ffdec="https://www.free-decompiler.com/flash" xmlns:xlink="http://www.w3.org/1999/xlink" ffdec:objectType="frame" height="26.55px" width="70.8px" xmlns="http://www.w3.org/2000/svg">
  <g transform="matrix(1.0, 0.0, 0.0, 1.0, 0.2, 0.4)">
    <use ffdec:characterId="27" height="26.0" transform="matrix(1.0, 0.0, 0.0, 1.0, 0.0, 0.0)" width="41.75" xlink:href="#shape0"/>
    <use ffdec:characterId="129" height="26.0" transform="matrix(1.0, 0.0, 0.0, 1.0, 0.0, 0.0)" width="41.75" xlink:href="#shape1"/>
    <use ffdec:characterId="129" height="26.0" transform="matrix(1.0, 0.0, 0.0, 1.0, 0.0, 0.0)" width="41.75" xlink:href="#shape1"/>
  </g>
  <defs>
    <g id="shape0" transform="matrix(1.0, 0.0, 0.0, 1.0, 0.0, 0.0)">
      <path d="M40.45 2.45 Q40.45 2.5 40.45 2.5 40.45 2.55 40.45 2.55 40.45 2.55 40.45 2.6 L40.45 4.05 39.8 3.8 40.45 4.5 40.45 5.25 39.9 5.25 40.45 6.45 40.45 7.1 40.25 8.15 40.45 7.8 40.45 9.55 39.8 9.85 40.1 10.05 40.7 9.8 40.7 8.05 40.45 8.4 40.7 7.35 40.7 6.7 40.15 5.5 40.7 5.5 40.7 4.75 40.05 4.05 40.7 4.3 40.7 2.85 Q40.7 2.8 40.7 2.8 40.7 2.7 40.7 2.65 40.7 2.55 40.65 2.55 40.65 2.5 40.6 2.5 40.55 2.5 40.45 2.45 L40.45 2.45 M40.45 10.4 L40.45 22.5 40.45 23.15 Q40.45 23.4 40.45 23.4 40.4 23.5 40.35 23.5 40.3 23.5 40.1 23.5 L39.45 23.5 38.8 23.5 37.9 23.5 37.95 23.75 39.05 23.75 39.7 23.75 40.35 23.75 Q40.6 23.75 40.65 23.75 40.7 23.7 40.7 23.4 L40.7 22.75 40.7 10.55 40.45 10.4 M37.65 22.75 L36.9 23.5 25.15 23.5 24.3 23.05 24.25 23.5 23.2 23.5 22.9 23.5 21.8 23.4 21.1 23.5 19.9 23.5 19.75 23.3 19.25 23.55 8.9 23.5 8.05 23.25 7.6 23.5 6.7 23.5 6.45 23.35 5.65 23.5 5.05 23.5 4.4 23.5 3.75 23.5 3.15 23.45 2.45 23.5 2.05 23.5 Q2.05 23.5 2.05 23.65 2.05 23.7 2.05 23.75 2.05 23.75 2.05 23.75 2.05 23.75 2.05 23.75 L2.7 23.75 3.4 23.7 4.0 23.75 4.65 23.75 5.25 23.75 5.9 23.75 6.7 23.6 6.95 23.75 7.85 23.75 18.15 23.75 18.95 23.75 19.5 23.8 20.0 23.55 20.1 23.75 21.35 23.75 22.05 23.65 23.15 23.75 23.45 23.75 24.45 23.75 24.55 23.3 25.35 23.75 37.1 23.75 37.7 23.2 37.65 22.75" fill="#ffffff" fill-rule="evenodd" stroke="none"/>
      <path d="M1.85 2.2 L5.15 2.2 5.4 2.65 5.7 2.4 6.95 2.2 13.95 2.2 14.1 2.7 14.55 2.2 15.85 2.2 28.95 2.2 29.45 2.65 29.65 2.2 30.3 2.2 40.1 2.2 Q40.3 2.2 40.35 2.25 40.4 2.25 40.45 2.35 40.45 2.4 40.45 2.55 40.45 2.55 40.45 2.6 L40.45 4.05 39.8 3.8 40.45 4.5 40.45 5.25 39.9 5.25 40.45 6.45 40.45 7.1 40.25 8.15 40.45 7.8 40.45 9.55 39.8 9.85 40.45 10.3 40.45 22.5 40.45 23.15 Q40.45 23.4 40.45 23.4 40.4 23.5 40.35 23.5 40.3 23.5 40.1 23.5 L39.45 23.5 38.8 23.5 37.7 23.5 37.65 22.75 36.9 23.5 25.15 23.5 24.3 23.05 24.25 23.5 23.2 23.5 22.9 23.5 21.8 23.4 21.1 23.5 19.9 23.5 19.75 23.3 19.25 23.55 8.9 23.5 8.05 23.25 7.6 23.5 6.7 23.5 6.45 23.35 5.65 23.5 5.05 23.5 4.4 23.5 3.75 23.5 3.15 23.45 2.45 23.5 1.85 23.5 Q1.8 23.5 1.8 23.5 1.8 23.5 1.8 23.5 1.6 23.5 1.55 23.5 1.5 23.5 1.45 23.45 1.45 23.4 1.45 23.2 1.45 23.2 1.45 23.2 1.45 23.2 1.45 23.2 1.45 23.15 1.45 23.15 L1.45 17.7 2.25 17.5 1.45 16.75 1.45 16.1 1.45 15.45 1.45 14.45 1.85 14.15 1.45 13.9 1.45 10.65 1.85 10.45 1.45 9.9 1.45 9.0 1.45 8.35 1.45 7.7 1.95 7.2 1.45 6.85 1.45 2.6 Q1.45 2.55 1.45 2.55 1.45 2.4 1.45 2.35 1.5 2.25 1.55 2.25 1.6 2.2 1.75 2.2 1.8 2.2 1.8 2.2 1.8 2.2 1.8 2.2 1.8 2.2 1.8 2.2 1.85 2.2 1.85 2.2 L1.85 2.2" fill="#000000" fill-rule="evenodd" stroke="none"/>
    </g>
    <g id="shape1" transform="matrix(1.0, 0.0, 0.0, 1.0, 0.0, 0.0)">
      <path d="M25.1 10.6 Q25.1 10.6 26.2 10.8 27.35 11.05 27.4 11.05 27.55 11.0 25.7 8.7 24.75 7.55 23.85 6.4 23.8 6.4 23.8 6.45 23.75 6.5 23.75 6.5 23.15 7.0 21.5 8.85 19.7 10.85 19.85 10.9 19.85 10.9 21.1 10.7 21.75 10.6 22.4 10.5 22.4 10.5 22.4 10.45 22.45 10.45 22.45 10.35 22.5 10.3 22.55 10.25 22.6 10.15 22.65 10.05 22.75 9.95 22.85 9.8 22.95 9.7 23.1 9.6 23.25 9.45 23.4 9.3 23.6 9.2 23.8 9.05 24.0 9.2 24.15 9.4 24.3 9.55 24.4 9.7 24.55 9.8 24.65 9.95 24.75 10.05 24.8 10.15 24.9 10.25 24.95 10.35 25.0 10.4 25.0 10.5 25.05 10.55 25.05 10.55 25.05 10.6 25.1 10.6 L25.1 10.6" fill="#f1edf8" fill-rule="evenodd" stroke="none"/>
      <path d="M10.0 17.45 L10.0 17.4 10.0 17.4 10.0 17.45 9.95 17.45 9.75 17.5 9.75 17.3 9.85 17.25 9.85 17.2 9.95 17.15 Q9.95 17.15 9.95 17.1 10.0 17.1 10.0 17.05 10.0 17.05 10.0 17.0 10.0 17.0 10.0 16.95 10.0 16.9 10.0 16.9 10.0 16.85 10.0 16.8 10.0 16.75 10.0 16.7 10.0 16.65 10.0 16.6 L10.0 16.65 10.0 17.0 10.05 17.0 Q10.05 17.0 10.0 17.05 10.0 17.05 10.0 17.05 10.05 17.05 10.05 17.05 L10.05 17.0 10.1 16.95 10.05 17.15 10.1 17.15 10.1 17.2 10.75 15.95 11.4 17.35 11.5 17.65 11.65 18.05 11.7 17.75 11.65 18.05 12.2 19.15 12.4 19.6 12.4 19.6 13.85 19.6 13.9 19.6 13.9 19.15 Q13.85 19.15 13.85 19.1 13.85 19.0 13.85 18.9 13.85 18.8 13.85 18.65 13.85 18.55 13.85 18.4 13.9 18.25 13.9 18.1 13.95 18.0 13.95 17.9 13.95 17.8 14.0 17.7 14.0 17.7 14.0 17.65 L14.0 17.65 14.8 14.4 14.6 14.4 14.55 14.3 14.5 14.4 14.4 14.35 14.3 14.4 Q14.3 14.4 14.4 14.2 14.5 14.15 14.55 14.1 L14.5 14.05 14.65 14.0 14.65 13.9 14.8 13.9 14.85 14.15 15.3 12.05 Q15.3 12.0 15.3 11.95 15.35 11.9 15.35 11.8 15.4 11.65 15.4 11.5 15.45 11.35 15.5 11.2 15.55 11.05 15.65 10.9 15.7 10.75 15.75 10.65 15.85 10.5 15.95 10.45 16.05 10.35 16.15 10.35 L16.15 9.75 13.7 9.75 13.7 10.35 Q13.7 10.35 13.75 10.35 13.75 10.4 13.75 10.4 13.8 10.45 13.85 10.55 13.85 10.6 13.9 10.75 13.9 10.85 13.9 11.05 13.9 11.25 13.9 11.45 13.9 11.7 13.85 12.05 13.8 12.35 13.7 12.75 L12.65 16.8 12.6 16.8 11.65 14.9 10.75 13.3 9.8 14.8 8.75 16.6 8.7 16.6 7.85 12.75 Q7.85 12.65 7.8 12.45 7.75 12.25 7.75 12.2 L7.6 12.05 7.5 12.05 7.5 12.0 7.4 12.0 Q7.4 11.95 7.4 11.9 7.4 11.9 7.4 11.85 7.4 11.85 7.45 11.85 7.5 11.85 7.5 11.9 7.55 11.9 7.55 11.9 7.55 11.9 7.6 11.9 7.55 11.9 7.55 11.9 7.6 11.9 7.65 11.9 7.7 11.95 7.7 11.95 7.65 11.7 7.65 11.45 7.65 11.25 7.65 11.1 7.65 10.9 7.65 10.8 7.7 10.7 7.7 10.6 7.75 10.5 7.75 10.45 7.8 10.4 7.8 10.4 7.85 10.35 7.85 10.35 7.85 10.35 7.85 10.35 L7.85 9.75 5.25 9.75 5.25 10.35 Q5.35 10.4 5.5 10.45 5.6 10.55 5.7 10.7 5.75 10.8 5.85 10.95 5.9 11.1 5.95 11.25 6.05 11.4 6.05 11.55 6.1 11.65 6.15 11.8 6.15 11.9 6.2 11.95 6.2 12.0 6.2 12.05 L7.3 17.7 Q7.3 17.75 7.35 17.85 7.35 17.95 7.35 18.05 7.4 18.15 7.4 18.3 7.4 18.4 7.4 18.5 7.45 18.65 7.45 18.75 7.45 18.85 7.45 18.95 7.4 19.05 7.4 19.1 7.4 19.15 7.35 19.15 L7.35 19.6 7.4 19.6 8.85 19.6 9.0 19.15 10.0 17.45" fill="#f1edf8" fill-rule="evenodd" stroke="none"/>
      <path d="M21.7 18.6 L21.7 15.8 21.7 15.4 Q21.7 15.2 21.65 15.0 21.65 14.8 21.55 14.65 21.5 14.45 21.4 14.3 21.3 14.1 21.15 14.0 21.05 13.85 20.85 13.75 20.7 13.6 20.5 13.55 20.3 13.45 20.05 13.4 19.8 13.35 19.5 13.35 19.4 13.35 19.3 13.35 19.2 13.35 19.1 13.4 19.0 13.4 18.9 13.45 18.85 13.45 18.75 13.5 18.65 13.5 18.6 13.55 18.5 13.6 18.45 13.65 18.4 13.7 18.35 13.75 18.25 13.8 18.25 13.85 L18.25 12.55 18.15 12.6 18.1 12.7 18.05 12.65 17.95 12.65 17.95 12.55 18.0 12.6 18.0 12.55 18.05 12.5 18.1 12.5 18.15 12.4 18.25 12.35 18.25 10.8 Q18.25 10.7 18.25 10.6 18.25 10.5 18.3 10.4 18.3 10.3 18.35 10.25 18.35 10.15 18.4 10.1 18.45 10.0 18.45 9.95 18.5 9.9 18.5 9.85 18.55 9.8 18.55 9.8 18.55 9.75 18.55 9.75 L18.2 9.75 16.65 10.2 Q16.7 10.25 16.8 10.25 16.85 10.3 16.9 10.35 16.9 10.4 16.95 10.5 17.0 10.55 17.0 10.6 17.05 10.65 17.05 10.7 17.05 10.75 17.05 10.8 17.05 10.85 17.1 10.85 17.1 10.9 17.1 10.9 L17.1 16.4 17.1 17.75 Q17.1 17.95 17.05 18.15 17.05 18.3 17.0 18.45 17.0 18.6 16.95 18.7 16.95 18.8 16.9 18.85 16.85 18.95 16.85 19.0 16.8 19.0 16.8 19.05 16.75 19.05 16.75 19.1 16.75 19.1 16.7 19.1 L16.7 19.55 18.65 19.55 18.65 19.1 Q18.6 19.1 18.55 19.05 18.5 19.0 18.45 18.9 18.4 18.8 18.4 18.65 18.35 18.55 18.35 18.4 18.35 18.3 18.3 18.2 18.3 18.1 18.3 17.95 18.3 17.9 18.3 17.8 18.3 17.8 18.3 17.75 L18.3 15.5 Q18.3 15.5 18.3 15.45 18.3 15.4 18.3 15.35 18.35 15.25 18.35 15.2 18.4 15.1 18.45 15.0 18.5 14.9 18.6 14.8 18.65 14.7 18.8 14.65 18.95 14.55 19.1 14.55 19.3 14.5 19.55 14.5 19.75 14.5 19.9 14.55 20.0 14.6 20.1 14.7 20.2 14.75 20.3 14.9 20.35 15.0 20.4 15.1 20.45 15.2 20.45 15.35 20.5 15.45 20.5 15.55 20.5 15.6 20.5 15.7 20.5 15.7 20.5 15.75 L20.5 18.3 20.5 18.6 Q20.5 18.7 20.5 18.75 20.45 18.85 20.45 18.9 20.45 18.95 20.4 18.95 20.35 19.0 20.35 19.05 20.3 19.05 20.3 19.05 20.25 19.1 20.25 19.1 20.25 19.1 20.2 19.1 20.2 19.1 20.2 19.1 L20.2 19.55 22.0 19.55 22.0 19.1 Q21.95 19.1 21.9 19.1 21.85 19.05 21.85 19.0 21.8 19.0 21.75 18.95 21.75 18.9 21.75 18.85 21.7 18.8 21.7 18.75 21.7 18.7 21.7 18.7 21.7 18.65 21.7 18.6 21.7 18.6 21.7 18.6 L21.7 18.6" fill="#f1edf8" fill-rule="evenodd" stroke="none"/>
      <path d="M25.35 18.35 Q25.35 18.35 25.3 18.35 25.2 18.35 25.1 18.3 25.0 18.25 24.9 18.25 24.75 18.2 24.65 18.1 24.5 18.05 24.35 17.95 24.25 17.85 24.15 17.7 24.05 17.55 23.95 17.4 23.9 17.2 23.85 17.0 23.85 16.95 23.85 16.9 23.8 16.85 23.8 16.85 L24.65 16.85 26.5 16.75 Q26.5 16.75 26.55 16.75 26.55 16.75 26.65 16.75 26.7 16.75 26.8 16.75 26.9 16.75 26.95 16.7 27.05 16.7 27.15 16.65 27.25 16.6 27.35 16.55 27.45 16.5 27.5 16.4 27.6 16.35 27.6 16.25 L27.9 15.3 Q28.0 15.35 28.05 14.5 28.05 14.5 28.05 14.5 28.05 14.55 28.0 14.55 28.0 14.6 28.0 14.6 27.95 14.6 27.9 14.65 27.9 14.65 27.85 14.65 27.8 14.6 27.75 14.6 27.7 14.55 27.7 14.5 27.65 14.4 27.6 14.3 27.5 14.15 27.4 14.0 27.3 13.9 27.15 13.8 27.0 13.7 26.85 13.65 26.7 13.55 26.5 13.5 26.4 13.5 26.25 13.45 26.1 13.45 26.0 13.4 25.9 13.4 25.85 13.4 25.8 13.4 25.75 13.4 25.35 13.4 25.0 13.45 24.65 13.5 24.35 13.65 24.05 13.75 23.8 13.95 23.6 14.1 23.4 14.3 23.25 14.5 23.1 14.75 22.95 14.95 22.85 15.15 22.8 15.35 22.75 15.55 22.7 15.75 22.65 15.9 L22.3 16.05 Q22.35 16.1 22.35 16.15 22.35 16.2 22.4 16.25 22.4 16.3 22.4 16.4 22.4 16.45 22.4 16.5 22.4 16.55 22.45 16.55 22.45 16.6 22.45 16.65 22.5 16.65 22.55 16.7 22.55 16.7 22.6 16.7 L22.6 16.7 22.65 16.7 22.65 16.7 22.65 16.65 22.75 16.65 22.75 16.65 22.8 16.6 22.8 16.7 22.75 16.7 22.7 16.75 22.65 16.75 22.65 16.75 Q22.65 16.8 22.65 16.8 22.65 17.3 22.8 17.7 22.9 18.1 23.15 18.4 23.35 18.7 23.65 18.9 23.9 19.1 24.2 19.25 24.45 19.35 24.75 19.45 24.95 19.5 25.2 19.55 25.4 19.55 25.55 19.55 25.6 19.55 25.7 19.6 26.0 19.6 26.25 19.55 26.5 19.5 26.7 19.4 26.9 19.35 27.1 19.25 27.25 19.2 27.35 19.1 27.45 19.0 27.55 18.9 27.65 18.85 27.7 18.75 27.75 18.7 27.75 18.65 27.75 18.65 27.8 18.65 L27.75 17.45 27.25 17.5 Q27.2 17.65 27.05 17.8 26.95 17.9 26.8 18.0 26.65 18.1 26.5 18.15 26.35 18.2 26.15 18.25 26.0 18.3 25.85 18.3 25.7 18.35 25.6 18.35 25.5 18.35 25.4 18.35 25.35 18.35 25.35 18.35 L25.35 18.35 M25.6 14.3 Q25.6 14.3 25.65 14.3 25.7 14.3 25.8 14.3 25.9 14.3 26.0 14.35 26.1 14.4 26.2 14.45 26.3 14.5 26.4 14.6 26.5 14.7 26.6 14.85 26.65 14.95 26.7 15.15 26.75 15.35 26.75 15.6 26.8 15.6 26.1 15.75 25.35 15.9 24.9 15.9 L23.85 15.9 Q23.95 15.6 24.05 15.3 24.2 15.1 24.35 14.9 24.45 14.75 24.6 14.6 24.75 14.5 24.9 14.4 25.05 14.35 25.15 14.35 25.3 14.3 25.4 14.3 25.45 14.3 25.55 14.3 25.6 14.3 25.6 14.3 L25.6 14.3" fill="#f1edf8" fill-rule="evenodd" stroke="none"/>
      <path d="M31.3 18.35 Q31.3 18.35 31.25 18.35 31.15 18.35 31.1 18.3 30.95 18.25 30.85 18.25 30.7 18.2 30.6 18.1 30.45 18.05 30.35 17.95 30.2 17.85 30.1 17.7 30.0 17.55 29.9 17.4 29.85 17.2 29.85 17.0 29.8 16.95 29.8 16.9 29.8 16.9 29.8 16.85 L30.6 16.85 32.45 16.75 Q32.45 16.75 32.5 16.75 32.55 16.75 32.6 16.75 32.65 16.75 32.75 16.75 32.85 16.75 32.95 16.7 33.05 16.7 33.1 16.65 33.2 16.6 33.3 16.55 33.4 16.5 33.45 16.4 33.55 16.35 33.6 16.25 L33.9 15.3 Q33.9 15.3 33.95 15.05 34.0 14.75 34.0 14.5 34.0 14.5 34.0 14.5 34.0 14.55 34.0 14.55 33.95 14.6 33.95 14.6 33.9 14.6 33.9 14.65 33.85 14.65 33.8 14.65 33.75 14.6 33.75 14.6 33.7 14.55 33.65 14.5 33.6 14.4 33.55 14.3 33.45 14.15 33.35 14.0 33.25 13.9 33.1 13.8 32.95 13.7 32.8 13.65 32.65 13.55 32.5 13.5 32.35 13.5 32.2 13.45 32.1 13.45 31.95 13.4 31.85 13.4 31.8 13.4 31.75 13.4 31.75 13.4 31.35 13.4 30.95 13.45 30.65 13.5 30.3 13.65 30.05 13.75 29.8 13.95 29.55 14.1 29.35 14.3 29.2 14.5 29.05 14.75 28.95 14.95 28.85 15.15 28.75 15.35 28.7 15.55 28.65 15.75 28.65 15.9 L28.25 16.05 Q28.3 16.1 28.3 16.15 28.3 16.2 28.35 16.25 28.35 16.3 28.35 16.4 28.35 16.45 28.4 16.5 28.4 16.55 28.4 16.55 28.4 16.6 28.45 16.65 28.45 16.65 28.5 16.7 28.55 16.7 28.6 16.7 L28.55 16.7 28.6 16.7 28.6 16.7 28.6 16.65 28.7 16.65 28.7 16.65 28.75 16.6 28.75 16.7 28.7 16.7 28.65 16.75 28.65 16.75 28.6 16.75 Q28.6 16.8 28.6 16.8 28.6 17.3 28.75 17.7 28.9 18.1 29.1 18.4 29.3 18.7 29.6 18.9 29.85 19.1 30.15 19.25 30.4 19.35 30.7 19.45 30.95 19.5 31.2 19.55 31.35 19.55 31.5 19.55 31.6 19.55 31.65 19.6 31.95 19.6 32.2 19.55 32.45 19.5 32.7 19.4 32.85 19.35 33.05 19.25 33.2 19.2 33.3 19.1 33.45 19.0 33.5 18.9 33.6 18.85 33.65 18.75 33.7 18.7 33.7 18.65 33.75 18.65 33.75 18.65 L33.7 17.45 33.2 17.5 Q33.15 17.65 33.0 17.8 32.9 17.9 32.75 18.0 32.65 18.1 32.45 18.15 32.3 18.2 32.1 18.25 31.95 18.3 31.8 18.3 31.7 18.35 31.55 18.35 31.45 18.35 31.35 18.35 31.35 18.35 31.3 18.35 L31.3 18.35 M31.55 14.3 Q31.55 14.3 31.6 14.3 31.65 14.3 31.75 14.3 31.85 14.3 31.95 14.35 32.05 14.4 32.15 14.45 32.3 14.5 32.35 14.6 32.5 14.7 32.55 14.85 32.65 14.95 32.65 15.15 32.7 15.35 32.7 15.6 32.75 15.6 32.05 15.75 31.3 15.9 30.85 15.9 L29.8 15.9 Q29.9 15.6 30.0 15.3 30.15 15.1 30.3 14.9 30.4 14.75 30.6 14.6 30.7 14.5 30.85 14.4 31.0 14.35 31.15 14.35 31.25 14.3 31.35 14.3 31.45 14.3 31.5 14.3 31.55 14.3 31.55 14.3 L31.55 14.3" fill="#f1edf8" fill-rule="evenodd" stroke="none"/>
      <path d="M36.15 17.75 L36.15 12.75 36.1 12.75 36.05 12.85 36.0 12.8 35.9 12.8 35.9 12.75 35.95 12.75 35.95 12.7 36.0 12.65 36.05 12.65 36.1 12.55 36.15 12.5 36.15 10.6 Q36.15 10.5 36.15 10.4 36.2 10.35 36.2 10.25 36.25 10.2 36.25 10.1 36.3 10.05 36.35 10.0 36.35 9.95 36.4 9.9 36.4 9.85 36.45 9.8 36.45 9.8 36.5 9.8 36.5 9.75 36.5 9.75 L36.15 9.75 34.55 10.2 Q34.7 10.65 34.8 11.05 L34.8 17.1 34.8 17.75 Q34.8 17.95 34.8 18.15 34.8 18.3 34.75 18.45 34.75 18.55 34.7 18.65 34.7 18.75 34.65 18.8 34.6 18.85 34.6 18.85 34.55 18.9 34.55 18.9 34.5 18.95 34.5 18.95 34.5 18.95 34.5 18.95 L34.5 19.55 36.5 19.55 36.5 18.95 Q36.45 18.95 36.4 18.9 36.35 18.85 36.3 18.75 36.3 18.7 36.25 18.55 36.25 18.45 36.2 18.35 36.2 18.25 36.2 18.15 36.15 18.05 36.15 17.95 36.15 17.9 36.15 17.8 36.15 17.8 36.15 17.75 L36.15 17.75" fill="#f1edf8" fill-rule="evenodd" stroke="none"/>
    </g>
  </defs>
</svg>
