<?xml version="1.0" encoding="UTF-8" standalone="no"?>
<svg xmlns:ffdec="https://www.free-decompiler.com/flash" xmlns:xlink="http://www.w3.org/1999/xlink" ffdec:objectType="frame" height="26.55px" width="70.8px" xmlns="http://www.w3.org/2000/svg">
  <g transform="matrix(1.0, 0.0, 0.0, 1.0, 0.2, 0.4)">
    <use ffdec:characterId="132" height="26.0" transform="matrix(1.0, 0.0, 0.0, 1.0, 0.05, 0.05)" width="26.0" xlink:href="#shape0"/>
    <use ffdec:characterId="133" height="26.0" transform="matrix(1.0, 0.0, 0.0, 1.0, 0.0, 0.0)" width="26.0" xlink:href="#shape1"/>
    <use ffdec:characterId="133" height="26.0" transform="matrix(1.0, 0.0, 0.0, 1.0, 0.0, 0.0)" width="26.0" xlink:href="#shape1"/>
  </g>
  <defs>
    <g id="shape0" transform="matrix(1.0, 0.0, 0.0, 1.0, -0.05, -0.05)">
      <path d="M22.1 22.1 Q21.6 22.55 21.1 22.95 20.6 23.4 20.1 23.75 19.55 24.1 19.05 24.35 18.5 24.65 17.9 24.9 17.35 25.1 16.75 25.3 16.2 25.45 15.55 25.6 14.95 25.7 14.35 25.75 13.7 25.85 13.05 25.85 12.4 25.85 11.75 25.8 11.1 25.7 10.5 25.6 9.9 25.5 9.3 25.3 8.7 25.15 8.15 24.9 7.6 24.65 7.05 24.35 6.5 24.05 6.0 23.7 5.5 23.35 5.0 22.95 4.5 22.55 4.0 22.1 3.55 21.65 3.15 21.15 2.7 20.65 2.35 20.1 2.0 19.6 1.75 19.05 1.45 18.55 1.2 17.95 1.0 17.4 0.8 16.8 0.65 16.25 0.5 15.65 0.4 15.0 0.35 14.4 0.25 13.75 0.25 13.1 0.25 12.45 0.3 11.8 0.4 11.15 0.5 10.55 0.6 9.95 0.8 9.35 0.95 8.75 1.2 8.2 1.45 7.65 1.75 7.1 2.05 6.55 2.4 6.0 2.75 5.5 3.15 5.0 3.55 4.5 4.0 4.0 4.45 3.55 4.95 3.15 5.45 2.7 6.0 2.35 6.5 2.0 7.05 1.75 7.6 1.45 8.15 1.2 8.7 1.0 9.3 0.8 9.9 0.65 10.5 0.5 11.1 0.4 11.75 0.35 12.4 0.25 13.05 0.25 13.7 0.25 14.35 0.3 15.0 0.4 15.6 0.5 16.2 0.6 16.8 0.8 17.4 0.95 17.95 1.2 18.5 1.45 19.05 1.75 19.6 2.05 20.1 2.4 20.6 2.75 21.1 3.15 21.6 3.55 22.1 4.0 22.55 4.5 22.95 5.0 23.4 5.5 23.75 6.0 24.1 6.55 24.35 7.1 24.65 7.6 24.9 8.2 25.1 8.75 25.3 9.35 25.45 9.95 25.6 10.55 25.7 11.15 25.75 11.8 25.85 12.45 25.85 13.1 25.85 13.5 25.8 13.85 25.8 14.2 25.75 14.55 25.7 14.95 25.65 15.3 25.6 15.65 25.5 16.0 25.45 16.35 25.35 16.65 25.25 17.0 25.15 17.35 25.0 17.65 24.9 18.0 24.75 18.3 24.6 18.6 24.6 18.6 24.55 18.65 24.5 18.65 24.45 18.65 24.4 18.7 24.3 18.7 24.25 18.7 24.15 18.7 24.05 18.7 23.95 18.7 23.9 18.7 23.8 18.7 23.7 18.65 23.65 18.65 23.55 18.65 23.55 18.65 23.55 18.65 23.55 18.65 23.55 18.65 23.55 18.65 23.55 18.65 23.55 18.7 23.6 18.7 23.6 18.7 23.65 18.75 23.7 18.75 23.75 18.75 23.75 18.8 23.8 18.8 23.85 18.8 23.9 18.85 23.95 18.85 24.0 18.85 24.05 18.85 24.1 18.85 24.1 18.85 24.15 18.9 24.2 18.9 24.2 18.95 24.2 18.95 24.2 19.0 24.25 19.05 24.25 19.05 24.3 19.1 24.3 19.15 24.3 19.15 24.3 19.15 24.3 19.15 24.2 19.35 24.1 19.55 23.95 19.7 23.85 19.9 23.7 20.1 23.6 20.3 23.45 20.5 23.3 20.65 23.15 20.85 23.0 21.05 22.85 21.2 22.7 21.4 22.55 21.55 22.4 21.75 22.25 21.9 22.1 22.1 M13.05 1.45 Q12.5 1.45 11.95 1.5 11.45 1.55 10.9 1.65 10.4 1.75 9.9 1.95 9.4 2.1 8.95 2.3 8.45 2.5 8.0 2.8 7.55 3.05 7.1 3.4 6.65 3.7 6.25 4.05 5.85 4.45 5.45 4.85 4.95 5.4 4.25 6.45 4.25 6.45 4.2 6.45 4.2 6.45 4.15 6.45 4.15 6.5 4.1 6.5 4.05 6.5 4.05 6.5 4.0 6.5 3.95 6.5 3.9 6.5 3.85 6.5 3.8 6.5 3.75 6.5 3.7 6.5 3.65 6.5 3.6 6.5 3.5 6.5 3.45 6.5 3.3 6.55 3.25 6.55 3.2 6.55 2.2 6.55 2.15 6.55 2.1 6.55 2.15 6.55 2.15 6.55 2.15 6.55 2.2 6.6 2.25 6.6 2.35 6.65 2.4 6.65 2.5 6.7 2.55 6.7 2.65 6.75 2.75 6.75 2.85 6.8 2.95 6.8 3.05 6.8 3.15 6.8 3.2 6.8 3.3 6.8 3.35 6.85 3.4 6.85 3.5 6.9 3.55 6.9 3.6 6.95 3.6 6.95 3.65 7.0 3.7 7.0 3.7 7.05 3.75 7.05 3.75 7.1 3.75 7.1 3.75 7.15 3.75 7.15 3.55 7.5 3.35 7.85 3.2 8.2 3.05 8.55 2.9 8.95 2.8 9.3 2.7 9.65 2.6 10.0 2.5 10.4 2.45 10.75 2.4 11.15 2.35 11.55 2.3 11.9 2.3 12.3 2.25 12.7 2.25 13.1 2.25 13.65 2.3 14.2 2.35 14.8 2.45 15.35 2.55 15.9 2.7 16.4 2.85 16.95 3.05 17.45 3.25 18.0 3.5 18.5 3.75 19.0 4.05 19.45 4.35 19.95 4.7 20.35 5.05 20.8 5.45 21.25 5.85 21.65 6.25 22.05 6.7 22.4 7.1 22.75 7.55 23.05 8.0 23.3 8.45 23.6 8.95 23.8 9.4 24.0 9.9 24.15 10.4 24.35 10.9 24.45 11.45 24.55 11.95 24.6 12.5 24.65 13.05 24.65 13.6 24.65 14.15 24.6 14.7 24.55 15.2 24.45 15.75 24.35 16.2 24.15 16.7 24.0 17.2 23.8 17.65 23.6 18.1 23.3 18.6 23.05 19.0 22.7 19.45 22.4 19.85 22.05 20.25 21.65 20.65 21.25 21.05 20.85 21.4 20.4 21.75 19.95 22.05 19.45 22.35 19.0 22.6 18.5 22.85 18.0 23.05 17.45 23.25 16.95 23.4 16.4 23.55 15.9 23.65 15.35 23.75 14.8 23.8 14.2 23.85 13.65 23.85 13.1 23.85 12.55 23.8 12.0 23.75 11.45 23.65 10.9 23.55 10.3 23.4 9.8 23.25 9.25 23.05 8.7 22.85 8.2 22.6 7.7 22.35 7.2 22.05 6.7 21.75 6.2 21.4 5.75 21.05 5.3 20.65 4.85 20.25 4.45 19.85 4.05 19.45 3.7 19.0 3.35 18.6 3.05 18.1 2.8 17.65 2.5 17.2 2.3 16.7 2.1 16.2 1.95 15.75 1.75 15.2 1.65 14.7 1.55 14.15 1.5 13.6 1.45 13.05 1.45" fill="#f1edf8" fill-rule="evenodd" stroke="none"/>
    </g>
    <g id="shape1" transform="matrix(1.0, 0.0, 0.0, 1.0, 0.0, 0.0)">
      <path d="M18.4 10.75 Q18.1 10.45 17.75 10.25 17.5 10.05 17.15 9.95 16.9 9.85 16.6 9.8 16.35 9.8 16.1 9.8 15.85 9.8 15.65 9.85 15.5 9.9 15.3 9.95 15.2 9.95 15.1 10.0 15.05 10.05 15.0 10.05 14.75 10.15 14.55 10.3 14.4 10.45 14.25 10.65 14.1 10.8 14.0 11.0 13.95 11.15 13.85 11.35 13.8 11.5 13.8 11.65 13.75 11.8 13.75 11.95 13.75 12.05 13.75 12.1 13.75 12.15 13.75 12.2 13.75 12.55 13.85 12.8 13.9 13.1 14.0 13.3 14.1 13.5 14.25 13.7 14.35 13.85 14.5 13.95 14.65 14.05 14.8 14.15 14.9 14.2 15.0 14.25 15.1 14.3 15.2 14.35 15.2 14.35 15.25 14.35 L15.4 14.35 15.5 14.2 15.6 14.2 15.75 14.05 16.0 14.05 Q15.75 14.3 15.5 14.55 15.9 14.6 16.2 14.7 16.5 14.8 16.75 14.95 16.95 15.05 17.1 15.15 17.25 15.25 17.35 15.4 17.4 15.5 17.45 15.6 17.5 15.7 17.5 15.8 17.55 15.85 17.55 15.9 17.55 15.9 17.55 15.95 17.55 16.1 17.45 16.25 17.4 16.4 17.25 16.5 17.15 16.6 17.0 16.65 16.85 16.7 16.65 16.75 16.5 16.8 16.35 16.8 16.2 16.85 16.05 16.85 15.95 16.85 15.85 16.85 15.8 16.85 15.75 16.85 15.5 16.85 15.25 16.75 15.0 16.7 14.85 16.6 14.65 16.5 14.5 16.4 14.4 16.3 14.3 16.2 14.2 16.1 14.15 15.95 14.1 15.9 14.05 15.8 14.0 15.75 14.0 15.65 14.0 15.65 13.95 15.6 L13.35 15.6 13.35 16.95 Q13.45 17.15 13.6 17.35 13.8 17.5 14.0 17.6 14.2 17.75 14.4 17.8 14.6 17.9 14.85 17.95 15.05 18.0 15.25 18.05 15.4 18.1 15.6 18.1 15.7 18.1 15.8 18.1 15.85 18.15 15.9 18.15 16.2 18.15 16.5 18.15 16.75 18.1 17.0 18.05 17.2 18.0 17.4 17.95 17.55 17.85 17.7 17.8 17.8 17.7 17.95 17.65 18.0 17.55 18.1 17.5 18.15 17.45 18.2 17.4 18.2 17.4 18.2 17.35 18.35 17.2 18.45 17.05 18.55 16.9 18.65 16.7 18.7 16.55 18.75 16.4 18.75 16.25 18.8 16.15 18.8 16.0 18.8 15.9 18.8 15.8 18.8 15.7 18.8 15.65 18.75 15.55 18.75 15.55 18.75 15.55 18.7 15.35 18.65 15.15 18.55 15.0 18.45 14.85 18.35 14.7 18.2 14.55 18.1 14.45 17.95 14.3 17.8 14.2 17.7 14.15 17.6 14.05 17.45 14.0 17.4 13.95 17.3 13.9 17.3 13.9 17.25 13.9 16.55 13.55 15.85 13.2 15.65 13.1 15.5 13.0 15.35 12.9 15.2 12.75 15.1 12.65 15.05 12.55 15.0 12.45 14.95 12.35 14.95 12.25 14.9 12.15 14.9 12.05 14.9 12.0 14.9 11.95 14.9 11.9 14.95 11.85 14.95 11.85 15.0 11.6 15.15 11.4 15.25 11.25 15.45 11.15 15.6 11.05 15.85 11.0 16.05 10.95 16.3 10.95 16.5 10.95 16.75 11.05 16.95 11.1 17.15 11.2 17.35 11.3 17.5 11.45 17.65 11.6 17.7 11.75 L18.4 11.75 18.4 10.75" fill="#f1edf8" fill-rule="evenodd" stroke="none"/>
      <path d="M14.5 8.05 Q14.5 8.05 15.65 7.95 16.8 7.85 16.85 7.85 17.0 7.85 15.1 8.95 14.15 9.45 13.2 10.0 13.2 10.0 13.15 10.0 13.15 10.0 13.1 9.95 12.55 9.75 10.8 8.85 8.95 7.95 9.15 7.9 9.15 7.9 10.45 8.0 11.1 8.05 11.75 8.1 11.75 8.1 11.75 8.1 11.8 8.15 11.8 8.15 11.85 8.2 11.9 8.25 11.95 8.25 12.05 8.3 12.1 8.35 12.2 8.4 12.35 8.5 12.45 8.55 12.6 8.6 12.75 8.65 12.95 8.7 13.15 8.75 13.35 8.7 13.5 8.6 13.65 8.55 13.8 8.5 13.9 8.4 14.05 8.35 14.1 8.3 14.2 8.25 14.3 8.2 14.35 8.15 14.4 8.15 14.4 8.1 14.45 8.1 14.45 8.05 14.5 8.05 14.5 8.05 L14.5 8.05" fill="#f1edf8" fill-rule="evenodd" stroke="none"/>
      <path d="M12.2 16.75 Q12.2 16.75 12.15 16.75 12.45 16.7 12.0 16.8 11.85 16.85 11.75 16.85 11.6 16.9 11.45 16.95 11.25 16.95 11.1 17.0 10.85 17.05 10.7 17.05 10.45 17.1 10.25 17.1 10.05 17.1 9.85 17.1 9.7 17.1 9.55 17.05 9.4 17.0 9.3 16.9 9.2 16.8 9.15 16.65 9.1 16.55 9.05 16.4 9.0 16.25 9.0 16.1 8.95 16.0 8.95 15.9 8.95 15.8 8.95 15.7 8.95 15.7 8.95 15.65 L8.95 12.35 8.85 12.4 8.8 12.5 8.75 12.45 8.65 12.45 8.65 12.35 8.7 12.4 8.7 12.35 8.75 12.3 8.85 12.3 8.85 12.2 9.0 12.15 9.0 10.95 Q9.0 10.85 9.0 10.75 9.0 10.65 9.05 10.55 9.05 10.5 9.05 10.4 9.1 10.35 9.15 10.3 9.15 10.25 9.2 10.25 9.2 10.2 9.2 10.2 9.25 10.2 9.25 10.2 9.25 10.15 9.25 10.15 L9.25 9.6 7.3 9.6 7.3 10.1 Q7.35 10.15 7.4 10.2 7.45 10.25 7.5 10.3 7.55 10.35 7.55 10.45 7.6 10.5 7.6 10.55 7.6 10.65 7.6 10.7 7.6 10.75 7.6 10.8 7.6 10.85 7.6 10.85 7.6 10.9 7.6 10.9 L7.6 15.55 Q7.6 15.8 7.6 16.05 7.6 16.25 7.55 16.45 7.55 16.6 7.5 16.75 7.45 16.85 7.4 16.95 7.4 17.05 7.35 17.15 7.3 17.2 7.3 17.25 7.25 17.25 7.25 17.3 7.25 17.3 7.25 17.3 L7.2 18.15 9.5 18.15 9.5 18.15 11.6 18.15 Q11.6 18.1 12.7 18.15 L12.7 16.75 12.2 16.75" fill="#f1edf8" fill-rule="evenodd" stroke="none"/>
    </g>
  </defs>
</svg>
