<?xml version="1.0" encoding="UTF-8" standalone="no"?>
<svg xmlns:ffdec="https://www.free-decompiler.com/flash" xmlns:xlink="http://www.w3.org/1999/xlink" ffdec:objectType="frame" height="26.55px" width="70.8px" xmlns="http://www.w3.org/2000/svg">
  <g transform="matrix(1.0, 0.0, 0.0, 1.0, 0.2, 0.4)">
    <use ffdec:characterId="3" height="26.0" transform="matrix(1.0, 0.0, 0.0, 1.0, 0.0, 0.0)" width="26.0" xlink:href="#shape0"/>
    <use ffdec:characterId="135" height="26.0" transform="matrix(1.0, 0.0, 0.0, 1.0, 0.0, 0.0)" width="26.0" xlink:href="#shape1"/>
    <use ffdec:characterId="135" height="26.0" transform="matrix(1.0, 0.0, 0.0, 1.0, 0.0, 0.0)" width="26.0" xlink:href="#shape1"/>
  </g>
  <defs>
    <g id="shape0" transform="matrix(1.0, 0.0, 0.0, 1.0, 0.0, 0.0)">
      <path d="M23.5 2.45 Q23.5 2.5 23.5 2.5 23.5 2.55 23.5 2.55 23.5 2.55 23.5 2.55 23.5 2.6 23.5 2.6 L23.5 4.05 22.85 3.8 23.5 4.5 23.5 5.25 22.95 5.25 23.5 6.45 23.5 7.1 23.3 8.15 23.5 7.8 23.5 9.55 22.85 9.85 23.15 10.05 23.75 9.8 23.75 8.05 23.5 8.4 23.75 7.35 23.75 6.7 23.2 5.5 23.75 5.5 23.75 4.75 23.1 4.05 23.75 4.3 23.75 2.85 Q23.75 2.8 23.75 2.8 23.75 2.7 23.75 2.65 23.75 2.55 23.7 2.55 23.7 2.5 23.65 2.5 23.6 2.5 23.5 2.45 L23.5 2.45 M23.5 10.4 L23.5 22.5 23.5 23.15 Q23.5 23.4 23.5 23.4 23.45 23.5 23.4 23.5 23.35 23.5 23.15 23.5 L22.5 23.5 21.85 23.5 20.95 23.5 21.0 23.75 22.1 23.75 22.75 23.75 23.4 23.75 Q23.65 23.75 23.7 23.75 23.75 23.7 23.75 23.4 L23.75 22.75 23.75 10.55 23.5 10.4 M20.7 22.75 L19.95 23.5 16.1 23.5 15.25 23.05 15.2 23.5 14.15 23.5 13.9 23.5 12.75 23.4 12.05 23.5 10.85 23.5 10.7 23.3 10.2 23.55 9.7 23.5 8.85 23.25 8.4 23.5 7.5 23.5 7.25 23.35 6.45 23.5 5.85 23.5 5.2 23.5 4.55 23.5 3.95 23.45 3.25 23.5 2.85 23.5 Q2.85 23.55 2.85 23.6 2.85 23.65 2.85 23.7 2.8 23.7 2.8 23.75 2.85 23.75 2.85 23.75 2.85 23.75 2.85 23.75 L3.5 23.75 4.2 23.7 4.8 23.75 5.45 23.75 6.05 23.75 6.7 23.75 7.45 23.6 7.75 23.75 8.65 23.75 9.1 23.5 9.9 23.75 10.45 23.8 10.95 23.55 11.1 23.75 12.3 23.75 13.0 23.65 14.1 23.75 14.4 23.75 15.4 23.75 15.5 23.3 16.35 23.75 20.15 23.75 20.75 23.2 20.7 22.75" fill="#ffffff" fill-rule="evenodd" stroke="none"/>
      <path d="M2.6 2.2 L5.95 2.2 6.2 2.65 6.5 2.4 7.75 2.2 13.5 2.2 13.7 2.7 14.15 2.2 15.45 2.2 16.65 2.2 17.15 2.65 17.35 2.2 18.0 2.2 23.15 2.2 Q23.35 2.2 23.4 2.25 23.45 2.25 23.5 2.35 23.5 2.4 23.5 2.55 23.5 2.55 23.5 2.6 L23.5 4.05 22.85 3.8 23.5 4.5 23.5 5.25 22.95 5.25 23.5 6.45 23.5 7.1 23.3 8.15 23.5 7.8 23.5 9.55 22.85 9.85 23.5 10.3 23.5 22.5 23.5 23.15 Q23.5 23.4 23.5 23.4 23.45 23.5 23.4 23.5 23.35 23.5 23.15 23.5 L22.5 23.5 21.85 23.5 20.75 23.5 20.7 22.75 19.95 23.5 16.1 23.5 15.25 23.05 15.2 23.5 14.15 23.5 13.9 23.5 12.75 23.4 12.05 23.5 10.85 23.5 10.7 23.3 10.2 23.55 9.7 23.5 8.85 23.25 8.4 23.5 7.5 23.5 7.25 23.35 6.45 23.5 5.85 23.5 5.2 23.5 4.55 23.5 3.95 23.45 3.25 23.5 2.6 23.5 Q2.6 23.5 2.6 23.5 2.6 23.5 2.6 23.5 2.4 23.5 2.35 23.5 2.3 23.5 2.25 23.45 2.25 23.4 2.25 23.2 2.25 23.2 2.25 23.2 2.25 23.2 2.25 23.2 2.25 23.15 2.25 23.15 L2.25 17.7 3.05 17.5 2.25 16.75 2.25 16.1 2.25 15.45 2.25 14.45 2.65 14.15 2.25 13.9 2.25 10.65 2.65 10.45 2.25 9.9 2.25 9.0 2.25 8.35 2.25 7.7 2.75 7.2 2.25 6.85 2.25 2.6 Q2.25 2.55 2.25 2.55 2.25 2.4 2.25 2.35 2.3 2.25 2.35 2.25 2.4 2.2 2.55 2.2 2.55 2.2 2.6 2.2 2.6 2.2 2.6 2.2 2.6 2.2 2.6 2.2 L2.6 2.2" fill="#000000" fill-rule="evenodd" stroke="none"/>
    </g>
    <g id="shape1" transform="matrix(1.0, 0.0, 0.0, 1.0, 0.0, 0.0)">
      <path d="M16.7 12.2 L15.65 12.2 15.65 12.2 15.5 12.1 15.55 12.0 15.6 12.0 15.6 10.75 15.55 10.65 15.5 10.5 15.5 10.35 15.55 10.2 15.6 10.3 15.6 10.2 15.6 9.25 17.0 9.25 Q17.0 9.25 17.05 9.25 17.15 9.25 17.25 9.3 17.35 9.3 17.45 9.35 17.6 9.4 17.75 9.5 17.9 9.55 18.0 9.65 18.15 9.8 18.25 9.95 18.35 10.1 18.45 10.3 18.5 10.55 18.5 10.8 18.5 10.8 18.5 10.85 18.5 10.95 18.5 11.0 18.45 11.15 18.45 11.25 18.4 11.4 18.3 11.5 18.25 11.65 18.1 11.75 17.95 11.9 17.8 12.0 17.6 12.1 17.35 12.15 17.05 12.2 16.7 12.2 L16.7 12.2 M18.75 12.8 Q18.85 12.75 18.95 12.65 19.05 12.6 19.15 12.5 19.25 12.4 19.35 12.3 19.45 12.2 19.5 12.1 19.6 12.0 19.65 11.85 19.7 11.7 19.75 11.6 19.8 11.45 19.85 11.25 19.85 11.1 19.85 10.9 19.9 10.3 19.8 9.85 19.7 9.4 19.5 9.05 19.35 8.75 19.1 8.55 18.85 8.35 18.6 8.2 18.35 8.1 18.05 8.05 17.85 8.0 17.6 7.95 17.45 7.95 17.3 7.95 17.25 7.95 17.15 7.95 L13.55 7.95 13.55 8.05 13.55 8.8 13.9 9.15 13.9 9.45 13.95 9.5 13.95 10.4 14.05 10.4 14.05 10.6 14.35 10.65 14.65 10.75 14.6 10.8 14.1 10.8 14.05 10.95 14.0 11.15 14.0 16.0 Q14.0 16.0 14.0 16.05 14.0 16.15 14.0 16.2 14.0 16.3 13.95 16.4 13.95 16.5 13.95 16.6 13.9 16.75 13.9 16.85 13.85 16.95 13.8 17.05 13.75 17.15 13.7 17.2 13.6 17.3 13.55 17.3 L13.55 18.0 15.45 18.0 17.75 18.0 Q17.75 18.0 17.85 18.0 17.95 18.0 18.1 18.0 18.3 18.0 18.45 17.95 18.7 17.9 18.9 17.85 19.15 17.75 19.35 17.6 19.6 17.45 19.75 17.25 19.95 17.0 20.1 16.7 20.25 16.35 20.3 15.95 20.35 15.65 20.35 15.35 20.35 15.1 20.3 14.8 20.3 14.55 20.2 14.35 20.15 14.1 20.0 13.9 19.9 13.7 19.8 13.5 19.65 13.35 19.5 13.2 19.3 13.05 19.15 12.95 18.95 12.85 18.75 12.8 L18.75 12.8 M15.65 16.7 Q15.65 16.6 15.65 16.6 15.65 16.6 15.65 16.5 L15.65 13.6 15.75 13.6 17.3 13.6 Q17.3 13.6 17.35 13.6 17.4 13.6 17.5 13.6 17.6 13.65 17.7 13.65 17.85 13.7 17.95 13.75 18.1 13.85 18.2 13.95 18.3 14.05 18.4 14.2 18.5 14.35 18.55 14.55 18.6 14.8 18.6 15.05 18.6 15.05 18.6 15.15 18.6 15.3 18.6 15.4 18.55 15.6 18.5 15.75 18.4 16.0 18.3 16.15 18.15 16.35 17.95 16.5 17.7 16.7 17.4 16.75 17.05 16.85 16.65 16.85 16.2 16.85 15.65 16.7 L15.65 16.7" fill="#f1edf8" fill-rule="evenodd" stroke="none"/>
      <path d="M11.5 16.35 Q11.5 16.35 11.45 16.35 11.35 16.4 11.25 16.45 11.15 16.45 11.0 16.5 10.8 16.55 10.6 16.6 10.4 16.65 10.2 16.65 9.95 16.7 9.75 16.75 9.5 16.75 9.25 16.8 9.0 16.8 8.75 16.8 8.55 16.8 8.4 16.75 8.25 16.65 8.15 16.55 8.0 16.4 7.95 16.25 7.85 16.1 7.8 15.95 7.75 15.8 7.75 15.65 7.7 15.5 7.7 15.35 7.7 15.25 7.7 15.15 7.7 15.15 7.7 15.1 L7.7 11.2 7.6 11.25 7.5 11.35 7.45 11.3 7.35 11.3 7.35 11.2 7.4 11.25 7.4 11.2 7.45 11.1 7.6 11.1 7.6 11.05 7.75 11.0 7.75 9.55 Q7.75 9.4 7.75 9.3 7.75 9.2 7.8 9.1 7.8 9.0 7.85 8.9 7.85 8.85 7.9 8.8 7.95 8.75 7.95 8.75 8.0 8.7 8.0 8.65 8.05 8.65 8.05 8.65 8.05 8.65 8.1 8.65 L8.1 8.0 5.75 8.0 5.75 8.6 Q5.85 8.65 5.9 8.7 5.95 8.75 6.0 8.8 6.05 8.9 6.05 8.95 6.1 9.05 6.1 9.1 6.1 9.2 6.1 9.25 6.15 9.3 6.15 9.4 6.15 9.4 6.15 9.45 6.15 9.5 6.15 9.5 L6.15 14.95 Q6.15 15.25 6.15 15.55 6.1 15.8 6.05 16.0 6.05 16.2 6.0 16.35 5.95 16.5 5.9 16.65 5.85 16.75 5.85 16.85 5.8 16.9 5.75 16.95 5.75 17.0 5.7 17.0 5.7 17.05 5.7 17.05 L5.65 18.0 8.35 18.0 8.35 18.0 10.8 18.0 Q10.8 18.0 11.25 18.0 11.8 18.0 12.1 18.0 L12.1 16.35 11.5 16.35" fill="#f1edf8" fill-rule="evenodd" stroke="none"/>
    </g>
  </defs>
</svg>
