<?xml version="1.0" encoding="UTF-8" standalone="no"?>
<svg xmlns:ffdec="https://www.free-decompiler.com/flash" xmlns:xlink="http://www.w3.org/1999/xlink" ffdec:objectType="frame" height="26.55px" width="70.8px" xmlns="http://www.w3.org/2000/svg">
  <g transform="matrix(1.0, 0.0, 0.0, 1.0, 0.2, 0.4)">
    <use ffdec:characterId="3" height="26.0" transform="matrix(1.0, 0.0, 0.0, 1.0, 0.0, 0.0)" width="26.0" xlink:href="#shape0"/>
    <use ffdec:characterId="136" height="26.0" transform="matrix(1.0, 0.0, 0.0, 1.0, 0.0, 0.0)" width="26.0" xlink:href="#shape1"/>
    <use ffdec:characterId="136" height="26.0" transform="matrix(1.0, 0.0, 0.0, 1.0, 0.0, 0.0)" width="26.0" xlink:href="#shape1"/>
  </g>
  <defs>
    <g id="shape0" transform="matrix(1.0, 0.0, 0.0, 1.0, 0.0, 0.0)">
      <path d="M23.5 2.45 Q23.5 2.5 23.5 2.5 23.5 2.55 23.5 2.55 23.5 2.55 23.5 2.55 23.5 2.6 23.5 2.6 L23.5 4.05 22.85 3.8 23.5 4.5 23.5 5.25 22.95 5.25 23.5 6.45 23.5 7.1 23.3 8.15 23.5 7.8 23.5 9.55 22.85 9.85 23.15 10.05 23.75 9.8 23.75 8.05 23.5 8.4 23.75 7.35 23.75 6.7 23.2 5.5 23.75 5.5 23.75 4.75 23.1 4.05 23.75 4.3 23.75 2.85 Q23.75 2.8 23.75 2.8 23.75 2.7 23.75 2.65 23.75 2.55 23.7 2.55 23.7 2.5 23.65 2.5 23.6 2.5 23.5 2.45 L23.5 2.45 M23.5 10.4 L23.5 22.5 23.5 23.15 Q23.5 23.4 23.5 23.4 23.45 23.5 23.4 23.5 23.35 23.5 23.15 23.5 L22.5 23.5 21.85 23.5 20.95 23.5 21.0 23.75 22.1 23.75 22.75 23.75 23.4 23.75 Q23.65 23.75 23.7 23.75 23.75 23.7 23.75 23.4 L23.75 22.75 23.75 10.55 23.5 10.4 M20.7 22.75 L19.95 23.5 16.1 23.5 15.25 23.05 15.2 23.5 14.15 23.5 13.9 23.5 12.75 23.4 12.05 23.5 10.85 23.5 10.7 23.3 10.2 23.55 9.7 23.5 8.85 23.25 8.4 23.5 7.5 23.5 7.25 23.35 6.45 23.5 5.85 23.5 5.2 23.5 4.55 23.5 3.95 23.45 3.25 23.5 2.85 23.5 Q2.85 23.55 2.85 23.6 2.85 23.65 2.85 23.7 2.8 23.7 2.8 23.75 2.85 23.75 2.85 23.75 2.85 23.75 2.85 23.75 L3.5 23.75 4.2 23.7 4.8 23.75 5.45 23.75 6.05 23.75 6.7 23.75 7.45 23.6 7.75 23.75 8.65 23.75 9.1 23.5 9.9 23.75 10.45 23.8 10.95 23.55 11.1 23.75 12.3 23.75 13.0 23.65 14.1 23.75 14.4 23.75 15.4 23.75 15.5 23.3 16.35 23.75 20.15 23.75 20.75 23.2 20.7 22.75" fill="#ffffff" fill-rule="evenodd" stroke="none"/>
      <path d="M2.6 2.2 L5.95 2.2 6.2 2.65 6.5 2.4 7.75 2.2 13.5 2.2 13.7 2.7 14.15 2.2 15.45 2.2 16.65 2.2 17.15 2.65 17.35 2.2 18.0 2.2 23.15 2.2 Q23.35 2.2 23.4 2.25 23.45 2.25 23.5 2.35 23.5 2.4 23.5 2.55 23.5 2.55 23.5 2.6 L23.5 4.05 22.85 3.8 23.5 4.5 23.5 5.25 22.95 5.25 23.5 6.45 23.5 7.1 23.3 8.15 23.5 7.8 23.5 9.55 22.85 9.85 23.5 10.3 23.5 22.5 23.5 23.15 Q23.5 23.4 23.5 23.4 23.45 23.5 23.4 23.5 23.35 23.5 23.15 23.5 L22.5 23.5 21.85 23.5 20.75 23.5 20.7 22.75 19.95 23.5 16.1 23.5 15.25 23.05 15.2 23.5 14.15 23.5 13.9 23.5 12.75 23.4 12.05 23.5 10.85 23.5 10.7 23.3 10.2 23.55 9.7 23.5 8.85 23.25 8.4 23.5 7.5 23.5 7.25 23.35 6.45 23.5 5.85 23.5 5.2 23.5 4.55 23.5 3.95 23.45 3.25 23.5 2.6 23.5 Q2.6 23.5 2.6 23.5 2.6 23.5 2.6 23.5 2.4 23.5 2.35 23.5 2.3 23.5 2.25 23.45 2.25 23.4 2.25 23.2 2.25 23.2 2.25 23.2 2.25 23.2 2.25 23.2 2.25 23.15 2.25 23.15 L2.25 17.7 3.05 17.5 2.25 16.75 2.25 16.1 2.25 15.45 2.25 14.45 2.65 14.15 2.25 13.9 2.25 10.65 2.65 10.45 2.25 9.9 2.25 9.0 2.25 8.35 2.25 7.7 2.75 7.2 2.25 6.85 2.25 2.6 Q2.25 2.55 2.25 2.55 2.25 2.4 2.25 2.35 2.3 2.25 2.35 2.25 2.4 2.2 2.55 2.2 2.55 2.2 2.6 2.2 2.6 2.2 2.6 2.2 2.6 2.2 2.6 2.2 L2.6 2.2" fill="#000000" fill-rule="evenodd" stroke="none"/>
    </g>
    <g id="shape1" transform="matrix(1.0, 0.0, 0.0, 1.0, 0.0, 0.0)">
      <path d="M11.4 14.85 Q11.4 14.85 11.35 14.8 11.3 14.75 11.3 14.7 11.25 14.65 11.2 14.6 11.1 14.5 11.05 14.4 10.95 14.3 10.9 14.2 10.8 14.05 10.7 13.95 10.65 13.8 10.55 13.7 10.5 13.55 10.45 13.4 10.45 13.4 10.55 13.4 10.65 13.4 10.8 13.35 10.95 13.3 11.15 13.25 11.35 13.15 11.55 13.05 11.8 12.95 11.95 12.75 12.2 12.55 12.35 12.3 12.5 12.05 12.6 11.7 12.7 11.35 12.7 10.9 12.7 10.35 12.55 9.95 12.45 9.55 12.2 9.2 11.95 8.9 11.65 8.7 11.4 8.5 11.1 8.35 10.8 8.2 10.5 8.15 10.25 8.05 10.0 8.05 9.8 8.0 9.6 8.0 9.55 8.0 9.5 8.0 L5.8 8.0 5.8 8.1 5.8 8.6 6.15 9.0 6.15 9.25 6.25 9.3 6.25 10.25 6.35 10.25 6.35 10.45 6.65 10.5 6.95 10.55 6.85 10.65 6.4 10.65 6.35 10.8 6.3 11.0 6.3 16.15 Q6.3 16.15 6.3 16.2 6.3 16.3 6.3 16.35 6.3 16.45 6.25 16.5 6.25 16.65 6.25 16.75 6.2 16.85 6.15 16.95 6.15 17.05 6.1 17.15 6.05 17.2 5.95 17.25 5.9 17.3 5.8 17.3 L5.8 18.0 8.25 18.0 8.25 17.35 Q8.25 17.35 8.25 17.35 8.2 17.35 8.2 17.35 8.15 17.3 8.15 17.3 8.1 17.25 8.05 17.2 8.0 17.15 8.0 17.1 7.95 17.0 7.9 16.9 7.9 16.75 7.85 16.6 7.85 16.4 7.85 16.2 L7.85 12.55 7.7 12.45 7.75 12.35 7.85 12.35 7.85 11.2 7.8 11.1 7.7 10.95 7.75 10.6 7.8 10.45 7.85 10.55 7.85 10.45 7.85 9.4 9.5 9.4 Q9.5 9.4 9.55 9.4 9.65 9.4 9.75 9.4 9.9 9.4 10.05 9.45 10.2 9.5 10.35 9.55 10.55 9.6 10.65 9.7 10.85 9.8 10.95 9.95 11.05 10.1 11.15 10.3 11.2 10.5 11.2 10.75 L11.2 10.95 Q11.2 10.95 11.2 11.0 11.2 11.1 11.2 11.2 11.15 11.3 11.15 11.4 11.1 11.55 11.0 11.65 10.9 11.8 10.8 11.95 10.65 12.05 10.5 12.15 10.3 12.25 10.05 12.3 9.75 12.4 9.45 12.4 L9.0 12.4 9.0 14.2 10.1 16.1 Q10.1 16.1 10.15 16.2 10.2 16.3 10.3 16.4 10.4 16.55 10.5 16.7 10.65 16.9 10.8 17.05 10.95 17.25 11.1 17.4 11.25 17.55 11.45 17.7 11.6 17.85 11.75 17.9 11.95 18.0 12.1 18.0 L13.05 18.0 13.05 17.35 Q13.05 17.35 13.0 17.35 12.95 17.35 12.9 17.3 12.8 17.25 12.7 17.2 12.55 17.1 12.45 17.0 12.3 16.85 12.2 16.7 12.05 16.5 11.9 16.25 11.75 15.95 11.65 15.65 11.5 15.25 11.4 14.85 L11.4 14.85" fill="#f1edf8" fill-rule="evenodd" stroke="none"/>
      <path d="M16.7 12.2 L15.65 12.2 15.65 12.2 15.5 12.1 15.55 12.0 15.6 12.0 15.6 10.75 15.55 10.65 15.5 10.5 15.5 10.35 15.55 10.2 15.6 10.3 15.6 10.2 15.6 9.25 17.0 9.25 Q17.0 9.25 17.05 9.25 17.15 9.25 17.25 9.3 17.35 9.3 17.45 9.35 17.6 9.4 17.75 9.5 17.9 9.55 18.0 9.65 18.15 9.8 18.25 9.95 18.35 10.1 18.45 10.3 18.5 10.55 18.5 10.8 18.5 10.8 18.5 10.85 18.5 10.95 18.5 11.0 18.45 11.15 18.45 11.25 18.4 11.4 18.3 11.5 18.25 11.65 18.1 11.75 17.95 11.9 17.8 12.0 17.6 12.1 17.35 12.15 17.05 12.2 16.7 12.2 L16.7 12.2 M18.75 12.8 Q18.85 12.75 18.95 12.65 19.05 12.6 19.15 12.5 19.25 12.4 19.35 12.3 19.45 12.2 19.5 12.1 19.6 12.0 19.65 11.85 19.7 11.7 19.75 11.6 19.8 11.45 19.85 11.25 19.85 11.1 19.85 10.9 19.9 10.3 19.8 9.85 19.7 9.4 19.5 9.05 19.35 8.75 19.1 8.55 18.85 8.35 18.6 8.2 18.35 8.1 18.05 8.05 17.85 8.0 17.6 7.95 17.45 7.95 17.3 7.95 17.25 7.95 17.15 7.95 L13.55 7.95 13.55 8.05 13.55 8.8 13.9 9.15 13.9 9.45 13.95 9.5 13.95 10.4 14.05 10.4 14.05 10.6 14.35 10.65 14.65 10.75 14.6 10.8 14.1 10.8 14.05 10.95 14.0 11.15 14.0 16.0 Q14.0 16.0 14.0 16.05 14.0 16.15 14.0 16.2 14.0 16.3 13.95 16.4 13.95 16.5 13.95 16.6 13.9 16.75 13.9 16.85 13.85 16.95 13.8 17.05 13.75 17.15 13.7 17.2 13.6 17.3 13.55 17.3 L13.55 18.0 15.45 18.0 17.75 18.0 Q17.75 18.0 17.85 18.0 17.95 18.0 18.1 18.0 18.3 18.0 18.45 17.95 18.7 17.9 18.9 17.85 19.15 17.75 19.35 17.6 19.6 17.45 19.75 17.25 19.95 17.0 20.1 16.7 20.25 16.35 20.3 15.95 20.35 15.65 20.35 15.35 20.35 15.1 20.3 14.8 20.3 14.55 20.2 14.35 20.15 14.1 20.0 13.9 19.9 13.7 19.8 13.5 19.65 13.35 19.5 13.2 19.3 13.05 19.15 12.95 18.95 12.85 18.75 12.8 L18.75 12.8 M15.65 16.7 Q15.65 16.6 15.65 16.6 15.65 16.6 15.65 16.5 L15.65 13.6 15.75 13.6 17.3 13.6 Q17.3 13.6 17.35 13.6 17.4 13.6 17.5 13.6 17.6 13.65 17.7 13.65 17.85 13.7 17.95 13.75 18.1 13.85 18.2 13.95 18.3 14.05 18.4 14.2 18.5 14.35 18.55 14.55 18.6 14.8 18.6 15.05 18.6 15.05 18.6 15.15 18.6 15.3 18.6 15.4 18.55 15.6 18.5 15.75 18.4 16.0 18.3 16.15 18.15 16.35 17.95 16.5 17.7 16.7 17.4 16.75 17.05 16.85 16.65 16.85 16.2 16.85 15.65 16.7 L15.65 16.7" fill="#f1edf8" fill-rule="evenodd" stroke="none"/>
    </g>
  </defs>
</svg>
