<?xml version="1.0" encoding="UTF-8" standalone="no"?>
<svg xmlns:ffdec="https://www.free-decompiler.com/flash" xmlns:xlink="http://www.w3.org/1999/xlink" ffdec:objectType="frame" height="26.55px" width="70.8px" xmlns="http://www.w3.org/2000/svg">
  <g transform="matrix(1.0, 0.0, 0.0, 1.0, 0.2, 0.4)">
    <use ffdec:characterId="27" height="26.0" transform="matrix(1.0, 0.0, 0.0, 1.0, 0.0, 0.0)" width="41.75" xlink:href="#shape0"/>
    <use ffdec:characterId="42" height="26.0" transform="matrix(1.0, 0.0, 0.0, 1.0, 0.0, 0.0)" width="41.75" xlink:href="#shape1"/>
    <use ffdec:characterId="42" height="26.0" transform="matrix(1.0, 0.0, 0.0, 1.0, 0.0, 0.0)" width="41.75" xlink:href="#shape1"/>
  </g>
  <defs>
    <g id="shape0" transform="matrix(1.0, 0.0, 0.0, 1.0, 0.0, 0.0)">
      <path d="M40.45 2.45 Q40.45 2.5 40.45 2.5 40.45 2.55 40.45 2.55 40.45 2.55 40.45 2.6 L40.45 4.05 39.8 3.8 40.45 4.5 40.45 5.25 39.9 5.25 40.45 6.45 40.45 7.1 40.25 8.15 40.45 7.8 40.45 9.55 39.8 9.85 40.1 10.05 40.7 9.8 40.7 8.05 40.45 8.4 40.7 7.35 40.7 6.7 40.15 5.5 40.7 5.5 40.7 4.75 40.05 4.05 40.7 4.3 40.7 2.85 Q40.7 2.8 40.7 2.8 40.7 2.7 40.7 2.65 40.7 2.55 40.65 2.55 40.65 2.5 40.6 2.5 40.55 2.5 40.45 2.45 L40.45 2.45 M40.45 10.4 L40.45 22.5 40.45 23.15 Q40.45 23.4 40.45 23.4 40.4 23.5 40.35 23.5 40.3 23.5 40.1 23.5 L39.45 23.5 38.8 23.5 37.9 23.5 37.95 23.75 39.05 23.75 39.7 23.75 40.35 23.75 Q40.6 23.75 40.65 23.75 40.7 23.7 40.7 23.4 L40.7 22.75 40.7 10.55 40.45 10.4 M37.65 22.75 L36.9 23.5 25.15 23.5 24.3 23.05 24.25 23.5 23.2 23.5 22.9 23.5 21.8 23.4 21.1 23.5 19.9 23.5 19.75 23.3 19.25 23.55 8.9 23.5 8.05 23.25 7.6 23.5 6.7 23.5 6.45 23.35 5.65 23.5 5.05 23.5 4.4 23.5 3.75 23.5 3.15 23.45 2.45 23.5 2.05 23.5 Q2.05 23.5 2.05 23.65 2.05 23.7 2.05 23.75 2.05 23.75 2.05 23.75 2.05 23.75 2.05 23.75 L2.7 23.75 3.4 23.7 4.0 23.75 4.65 23.75 5.25 23.75 5.9 23.75 6.7 23.6 6.95 23.75 7.85 23.75 18.15 23.75 18.95 23.75 19.5 23.8 20.0 23.55 20.1 23.75 21.35 23.75 22.05 23.65 23.15 23.75 23.45 23.75 24.45 23.75 24.55 23.3 25.35 23.75 37.1 23.75 37.7 23.2 37.65 22.75" fill="#ffffff" fill-rule="evenodd" stroke="none"/>
      <path d="M1.85 2.2 L5.15 2.2 5.4 2.65 5.7 2.4 6.95 2.2 13.95 2.2 14.1 2.7 14.55 2.2 15.85 2.2 28.95 2.2 29.45 2.65 29.65 2.2 30.3 2.2 40.1 2.2 Q40.3 2.2 40.35 2.25 40.4 2.25 40.45 2.35 40.45 2.4 40.45 2.55 40.45 2.55 40.45 2.6 L40.45 4.05 39.8 3.8 40.45 4.5 40.45 5.25 39.9 5.25 40.45 6.45 40.45 7.1 40.25 8.15 40.45 7.8 40.45 9.55 39.8 9.85 40.45 10.3 40.45 22.5 40.45 23.15 Q40.45 23.4 40.45 23.4 40.4 23.5 40.35 23.5 40.3 23.5 40.1 23.5 L39.45 23.5 38.8 23.5 37.7 23.5 37.65 22.75 36.9 23.5 25.15 23.5 24.3 23.05 24.25 23.5 23.2 23.5 22.9 23.5 21.8 23.4 21.1 23.5 19.9 23.5 19.75 23.3 19.25 23.55 8.9 23.5 8.05 23.25 7.6 23.5 6.7 23.5 6.45 23.35 5.65 23.5 5.05 23.5 4.4 23.5 3.75 23.5 3.15 23.45 2.45 23.5 1.85 23.5 Q1.8 23.5 1.8 23.5 1.8 23.5 1.8 23.5 1.6 23.5 1.55 23.5 1.5 23.5 1.45 23.45 1.45 23.4 1.45 23.2 1.45 23.2 1.45 23.2 1.45 23.2 1.45 23.2 1.45 23.15 1.45 23.15 L1.45 17.7 2.25 17.5 1.45 16.75 1.45 16.1 1.45 15.45 1.45 14.45 1.85 14.15 1.45 13.9 1.45 10.65 1.85 10.45 1.45 9.9 1.45 9.0 1.45 8.35 1.45 7.7 1.95 7.2 1.45 6.85 1.45 2.6 Q1.45 2.55 1.45 2.55 1.45 2.4 1.45 2.35 1.5 2.25 1.55 2.25 1.6 2.2 1.75 2.2 1.8 2.2 1.8 2.2 1.8 2.2 1.8 2.2 1.8 2.2 1.8 2.2 1.85 2.2 1.85 2.2 L1.85 2.2" fill="#000000" fill-rule="evenodd" stroke="none"/>
    </g>
    <g id="shape1" transform="matrix(1.0, 0.0, 0.0, 1.0, 0.0, 0.0)">
      <path d="M12.55 8.4 L12.55 5.75 7.1 5.75 4.4 5.75 3.4 5.75 3.4 5.75 3.4 7.25 3.4 7.25 Q3.45 7.25 3.5 7.3 3.5 7.3 3.55 7.35 3.6 7.35 3.6 7.4 3.65 7.45 3.65 7.45 3.7 7.5 3.7 7.5 3.75 7.55 3.75 7.6 3.8 7.6 3.8 7.65 3.85 7.65 3.85 7.7 3.9 7.75 3.9 7.8 3.95 7.85 3.95 7.95 3.95 8.0 4.0 8.05 4.0 8.15 4.0 8.2 4.05 8.25 4.05 8.35 4.05 8.4 4.05 8.45 4.05 8.5 4.1 8.6 4.1 8.65 4.1 8.7 L4.1 9.35 4.1 16.95 Q4.1 17.25 4.05 17.55 4.0 17.75 3.95 17.95 3.9 18.15 3.85 18.3 3.8 18.4 3.7 18.5 3.65 18.55 3.6 18.6 3.55 18.65 3.5 18.7 3.45 18.7 3.45 18.7 3.4 18.7 3.4 18.7 L3.4 20.25 6.55 20.25 6.55 20.25 10.15 20.25 Q10.15 20.25 12.55 20.25 L12.55 17.7 11.75 17.7 Q11.75 17.7 11.7 17.75 11.65 17.75 11.6 17.8 11.5 17.85 11.4 17.9 11.25 17.95 11.05 18.0 10.85 18.05 10.65 18.1 10.35 18.15 10.05 18.2 9.7 18.2 9.3 18.25 8.85 18.25 8.4 18.25 8.1 18.25 7.85 18.2 7.6 18.15 7.4 18.0 7.2 17.9 7.05 17.75 6.9 17.65 6.8 17.45 6.7 17.3 6.65 17.15 6.55 16.95 6.5 16.8 6.5 16.65 6.45 16.5 6.45 16.4 6.4 16.25 L6.4 13.65 8.3 13.65 Q8.3 13.65 8.4 13.65 8.55 13.65 8.65 13.65 8.85 13.65 9.05 13.6 9.3 13.6 9.5 13.55 9.75 13.55 10.0 13.5 10.25 13.45 10.4 13.35 10.6 13.3 10.75 13.2 10.9 13.1 10.95 13.0 L11.2 12.45 11.4 11.8 Q11.35 11.8 11.25 11.85 11.0 11.9 10.65 11.95 10.15 12.0 9.5 12.0 8.7 12.0 7.7 11.95 7.75 11.9 7.7 11.95 7.7 12.0 7.65 12.0 7.6 12.05 7.6 12.05 7.5 12.1 7.45 12.15 7.4 12.2 7.3 12.2 7.2 12.25 7.05 12.3 6.95 12.3 6.8 12.35 6.6 12.35 6.4 12.35 L6.4 10.25 6.25 10.3 6.2 10.4 6.15 10.45 6.05 10.35 5.9 10.35 5.9 10.25 6.0 10.3 6.0 10.2 6.05 10.1 6.25 10.1 6.25 10.0 6.45 9.9 6.45 8.4 Q6.5 8.25 6.55 8.1 6.65 8.0 6.75 7.9 6.85 7.85 7.0 7.75 7.15 7.7 7.3 7.7 7.45 7.65 7.55 7.65 7.7 7.65 7.8 7.65 7.9 7.65 7.95 7.65 8.0 7.65 8.05 7.65 L9.15 7.65 Q9.15 7.65 9.25 7.65 9.35 7.65 9.5 7.65 9.7 7.65 9.9 7.65 10.15 7.7 10.35 7.7 10.6 7.75 10.8 7.8 11.05 7.85 11.25 7.95 11.5 8.05 11.65 8.15 11.8 8.25 11.9 8.4 L12.55 8.4" fill="#f1edf8" fill-rule="evenodd" stroke="none"/>
      <path d="M20.5 18.75 L20.5 15.65 20.5 14.5 Q20.5 14.2 20.45 13.95 20.4 13.65 20.25 13.4 20.15 13.15 20.0 12.95 19.85 12.7 19.6 12.5 19.4 12.3 19.15 12.15 18.9 12.0 18.6 11.9 18.3 11.75 18.0 11.7 17.65 11.65 17.3 11.65 17.1 11.65 16.95 11.65 16.75 11.65 16.6 11.65 16.45 11.65 16.3 11.7 16.15 11.7 16.05 11.75 15.9 11.75 15.8 11.8 15.65 11.85 15.55 11.9 15.45 12.0 15.35 12.1 15.25 12.15 15.15 12.3 L15.15 11.95 Q15.15 11.85 15.15 11.8 15.2 11.7 15.2 11.65 15.25 11.6 15.3 11.55 15.3 11.5 15.35 11.45 15.4 11.45 15.45 11.4 15.5 11.4 15.55 11.4 15.55 11.35 15.6 11.35 15.6 11.35 15.6 11.35 L15.05 11.35 13.05 11.75 Q13.15 11.8 13.2 11.85 13.25 11.95 13.3 12.0 13.35 12.1 13.35 12.2 13.4 12.3 13.4 12.4 13.45 12.5 13.45 12.55 13.45 12.65 13.45 12.7 13.45 12.75 13.45 12.8 13.45 12.85 13.45 12.85 L13.45 18.05 13.45 18.4 Q13.45 18.6 13.45 18.75 13.4 18.9 13.4 19.05 13.35 19.15 13.3 19.25 13.25 19.3 13.2 19.4 13.15 19.45 13.1 19.5 13.05 19.5 13.05 19.55 13.0 19.55 12.95 19.55 12.95 19.55 12.95 19.6 L12.95 20.25 15.8 20.25 15.8 19.55 Q15.7 19.55 15.6 19.5 15.55 19.45 15.5 19.35 15.4 19.3 15.4 19.2 15.35 19.1 15.3 18.95 15.25 18.85 15.25 18.75 15.25 18.65 15.2 18.6 15.2 18.5 15.2 18.45 15.2 18.4 15.2 18.4 L15.2 16.0 15.2 16.0 Q15.2 16.0 15.2 15.9 15.2 15.75 15.2 15.6 15.25 15.35 15.25 15.15 15.3 14.9 15.4 14.65 15.45 14.4 15.6 14.2 15.7 13.95 15.9 13.75 16.1 13.55 16.35 13.45 16.65 13.35 17.0 13.35 17.35 13.35 17.65 13.45 17.9 13.55 18.1 13.75 18.3 13.9 18.4 14.1 18.55 14.3 18.6 14.55 18.65 14.75 18.7 15.0 18.75 15.15 18.75 15.35 18.75 15.5 18.75 15.65 18.75 15.7 18.7 15.75 L18.7 18.35 18.7 18.8 Q18.7 18.95 18.7 19.05 18.65 19.2 18.65 19.3 18.6 19.45 18.55 19.55 18.5 19.65 18.5 19.7 18.45 19.8 18.4 19.85 18.35 19.95 18.3 20.0 18.3 20.0 18.25 20.05 18.25 20.05 18.25 20.05 L18.25 20.25 20.85 20.25 20.85 19.55 Q20.8 19.55 20.75 19.5 20.7 19.5 20.7 19.45 20.65 19.35 20.6 19.3 20.6 19.25 20.55 19.15 20.55 19.1 20.55 19.0 20.55 18.95 20.5 18.9 20.5 18.85 20.5 18.8 20.5 18.8 20.5 18.75 L20.5 18.75 M15.0 15.7 L14.9 15.65 14.8 15.65 14.8 15.55 14.85 15.6 14.9 15.55 14.9 15.5 14.95 15.5 15.05 15.65 15.0 15.7" fill="#f1edf8" fill-rule="evenodd" stroke="none"/>
      <path d="M26.3 11.0 L26.25 11.0 Q26.25 11.0 26.3 11.0 L26.3 11.0 Q26.35 11.05 26.3 11.05 26.2 11.1 25.75 11.1 25.15 11.15 23.95 11.05 23.95 11.1 23.75 11.2 L23.75 9.75 23.15 9.0 Q23.15 9.1 23.1 9.25 23.05 9.35 23.0 9.45 22.9 9.55 22.8 9.65 22.7 9.75 22.6 9.85 22.5 9.95 22.4 10.0 22.3 10.05 22.25 10.15 22.15 10.15 22.1 10.2 22.1 10.2 22.05 10.25 L22.05 11.25 20.45 11.25 19.9 12.05 19.9 12.55 21.65 12.55 22.1 12.55 22.1 16.4 22.1 17.45 Q22.1 17.8 22.05 18.15 22.05 18.4 22.0 18.65 21.95 18.85 21.9 19.05 21.85 19.2 21.8 19.3 21.75 19.4 21.7 19.45 21.65 19.5 21.6 19.55 21.6 19.6 21.55 19.6 21.55 19.6 21.55 19.6 L21.55 20.25 24.2 20.25 24.2 19.6 Q24.15 19.6 24.05 19.5 24.0 19.4 23.95 19.25 23.9 19.1 23.85 18.9 23.85 18.75 23.8 18.5 23.8 18.35 23.75 18.1 23.75 17.95 23.7 17.8 23.7 17.65 23.7 17.55 23.7 17.5 23.7 17.45 L23.7 12.5 24.8 12.5 Q24.8 12.5 24.85 12.5 24.9 12.5 24.95 12.5 25.0 12.5 25.1 12.45 25.2 12.45 25.3 12.45 25.4 12.4 25.45 12.35 25.6 12.3 25.65 12.25 25.75 12.2 25.85 12.15 25.9 12.05 25.95 12.0 L26.35 11.05 26.3 11.0" fill="#f1edf8" fill-rule="evenodd" stroke="none"/>
      <path d="M28.65 18.45 Q28.6 18.45 28.55 18.45 28.45 18.4 28.3 18.4 28.15 18.35 28.0 18.25 27.8 18.2 27.6 18.1 27.4 18.0 27.2 17.85 27.0 17.7 26.85 17.5 26.7 17.3 26.6 17.05 26.5 16.75 26.45 16.45 26.45 16.4 26.45 16.35 26.35 16.15 26.4 16.3 26.4 16.25 26.4 16.2 L27.6 16.2 30.35 16.1 Q30.35 16.1 30.4 16.1 30.45 16.1 30.55 16.1 30.65 16.1 30.8 16.05 30.9 16.05 31.05 16.0 31.2 16.0 31.35 15.95 31.5 15.85 31.6 15.8 31.75 15.7 31.85 15.6 31.95 15.45 32.0 15.3 L32.45 13.95 Q32.55 14.05 32.65 12.8 32.65 12.8 32.65 12.8 32.65 12.85 32.6 12.85 32.6 12.9 32.55 12.9 32.5 12.95 32.45 12.95 32.4 12.95 32.35 12.95 32.3 12.95 32.25 12.9 32.15 12.8 32.1 12.7 32.05 12.6 31.95 12.45 31.85 12.2 31.65 12.0 31.5 11.85 31.25 11.7 31.05 11.55 30.85 11.45 30.6 11.35 30.4 11.3 30.2 11.25 29.95 11.2 29.8 11.15 29.6 11.15 29.5 11.15 29.35 11.15 29.35 11.1 29.3 11.1 28.7 11.1 28.15 11.2 27.65 11.3 27.2 11.45 26.75 11.65 26.4 11.95 26.05 12.15 25.8 12.5 25.55 12.8 25.3 13.1 25.15 13.4 25.0 13.75 24.85 14.05 24.8 14.35 24.7 14.6 24.7 14.8 L24.15 15.05 Q24.2 15.15 24.2 15.2 24.25 15.3 24.25 15.4 24.3 15.45 24.3 15.55 24.3 15.65 24.3 15.7 24.35 15.75 24.35 15.8 24.35 15.85 24.4 15.9 24.45 15.95 24.5 16.0 24.55 16.0 24.6 16.05 L24.6 16.0 24.65 16.0 24.65 16.0 24.65 15.95 24.8 15.95 24.8 15.9 24.9 15.85 24.9 16.0 24.8 16.05 24.75 16.05 24.7 16.05 24.65 16.05 Q24.65 16.1 24.65 16.15 24.65 16.9 24.85 17.5 25.05 18.1 25.4 18.55 25.7 18.95 26.1 19.25 26.5 19.55 26.95 19.75 27.3 19.95 27.75 20.05 28.1 20.15 28.45 20.2 28.7 20.25 28.95 20.25 29.05 20.25 29.15 20.25 29.6 20.25 30.0 20.15 30.35 20.1 30.7 20.0 30.95 19.9 31.2 19.8 31.45 19.65 31.65 19.55 31.8 19.4 31.9 19.3 32.05 19.2 32.1 19.05 32.15 19.0 32.2 18.9 32.25 18.9 32.25 18.85 L32.2 17.1 31.45 17.2 Q31.35 17.45 31.2 17.65 31.05 17.8 30.8 17.95 30.6 18.1 30.35 18.2 30.1 18.25 29.85 18.3 29.65 18.35 29.4 18.4 29.2 18.45 29.0 18.45 28.85 18.45 28.75 18.45 28.7 18.45 28.65 18.45 L28.65 18.45 M29.0 12.45 Q29.0 12.45 29.1 12.45 29.2 12.45 29.3 12.45 29.45 12.5 29.6 12.55 29.75 12.6 29.9 12.65 30.1 12.75 30.25 12.9 30.4 13.05 30.5 13.25 30.6 13.45 30.65 13.7 30.7 14.0 30.7 14.4 30.7 14.4 29.75 14.6 28.65 14.8 28.0 14.8 L26.4 14.8 Q26.55 14.35 26.75 13.95 26.9 13.6 27.15 13.3 27.35 13.1 27.55 12.9 27.75 12.75 28.0 12.65 28.2 12.55 28.4 12.5 28.55 12.45 28.7 12.45 28.85 12.45 28.95 12.45 29.0 12.45 29.0 12.45 L29.0 12.45" fill="#f1edf8" fill-rule="evenodd" stroke="none"/>
      <path d="M37.8 12.1 Q37.8 12.1 37.75 12.05 37.7 12.05 37.65 12.0 37.6 11.95 37.5 11.9 37.4 11.85 37.3 11.8 37.2 11.7 37.1 11.65 36.95 11.6 36.8 11.55 36.65 11.5 36.5 11.5 36.35 11.45 36.2 11.45 36.1 11.45 36.05 11.45 35.95 11.45 35.85 11.5 35.75 11.5 35.65 11.55 35.5 11.55 35.4 11.6 35.3 11.65 35.2 11.7 35.05 11.75 34.95 11.8 34.85 11.85 34.75 11.95 34.65 12.0 34.55 12.1 L34.55 12.0 Q34.55 11.9 34.6 11.85 34.6 11.75 34.65 11.7 34.65 11.6 34.7 11.55 34.75 11.5 34.8 11.45 34.85 11.4 34.9 11.35 34.95 11.3 35.0 11.3 35.0 11.25 35.05 11.25 35.05 11.25 35.05 11.25 L33.9 11.25 32.45 11.5 Q32.55 11.55 32.6 11.55 32.65 11.6 32.7 11.65 32.75 11.7 32.8 11.8 32.8 11.85 32.85 11.9 32.85 11.95 32.85 12.0 32.85 12.05 32.85 12.1 32.9 12.1 32.9 12.15 32.9 12.15 32.9 12.15 L32.9 17.85 32.9 18.4 Q32.9 18.6 32.85 18.75 32.85 18.9 32.8 19.0 32.8 19.15 32.75 19.2 32.7 19.3 32.65 19.35 32.65 19.4 32.6 19.4 32.55 19.45 32.5 19.45 32.5 19.45 32.5 19.45 32.45 19.45 32.45 19.45 L32.45 20.25 35.0 20.25 35.0 19.5 Q34.95 19.5 34.9 19.45 34.85 19.4 34.8 19.3 34.75 19.25 34.7 19.15 34.65 19.05 34.65 18.95 34.6 18.85 34.6 18.75 34.6 18.65 34.6 18.6 34.55 18.5 34.55 18.45 34.55 18.45 34.55 18.4 L34.55 15.0 34.45 15.0 34.35 15.1 34.25 15.05 34.15 15.05 34.15 14.95 34.2 15.0 34.2 14.95 34.25 14.9 34.4 14.9 34.45 14.85 34.55 14.75 34.55 14.4 Q34.55 14.3 34.55 14.2 34.6 14.1 34.6 13.95 34.65 13.85 34.7 13.75 34.75 13.6 34.85 13.5 34.9 13.35 35.05 13.25 35.15 13.15 35.35 13.1 35.5 13.0 35.75 13.0 35.95 12.95 36.25 12.95 36.25 12.95 36.3 12.95 36.4 12.95 36.45 13.0 36.6 13.0 36.7 13.1 36.85 13.15 37.0 13.25 37.15 13.35 37.25 13.5 37.4 13.65 37.55 13.85 37.65 14.1 37.75 14.35 37.85 14.65 37.9 15.0 37.9 15.0 38.3 14.6 38.7 14.15 38.75 14.1 38.75 13.9 38.75 13.65 38.75 13.5 38.7 13.35 38.7 13.2 38.6 13.05 38.55 12.95 38.45 12.8 38.4 12.7 38.3 12.55 38.2 12.45 38.1 12.4 38.05 12.3 37.95 12.25 37.9 12.15 37.85 12.15 37.8 12.1 37.8 12.1 L37.8 12.1" fill="#f1edf8" fill-rule="evenodd" stroke="none"/>
    </g>
  </defs>
</svg>
