<?xml version="1.0" encoding="UTF-8" standalone="no"?>
<svg xmlns:ffdec="https://www.free-decompiler.com/flash" xmlns:xlink="http://www.w3.org/1999/xlink" ffdec:objectType="frame" height="26.55px" width="70.8px" xmlns="http://www.w3.org/2000/svg">
  <g transform="matrix(1.0, 0.0, 0.0, 1.0, 0.2, 0.4)">
    <use ffdec:characterId="1" height="26.0" transform="matrix(1.0, 0.0, 0.0, 1.0, 0.0, 0.0)" width="35.75" xlink:href="#shape0"/>
    <use ffdec:characterId="139" height="13.15" transform="matrix(1.0, 0.0, 0.0, 1.0, 0.0, 0.0)" width="16.4" xlink:href="#shape1"/>
    <use ffdec:characterId="139" height="13.15" transform="matrix(1.0, 0.0, 0.0, 1.0, 0.0, 0.0)" width="16.4" xlink:href="#shape1"/>
  </g>
  <defs>
    <g id="shape0" transform="matrix(1.0, 0.0, 0.0, 1.0, 0.0, 0.0)">
      <path d="M33.35 2.45 Q33.35 2.5 33.35 2.55 33.35 2.55 33.35 2.6 L33.35 4.05 32.7 3.8 33.35 4.5 33.35 5.25 32.8 5.25 33.35 6.45 33.35 7.1 33.1 8.15 33.35 7.8 33.35 9.55 32.7 9.85 33.0 10.05 33.6 9.8 33.6 8.05 33.35 8.4 33.6 7.35 33.6 6.7 33.05 5.5 33.6 5.5 33.6 4.75 32.95 4.05 33.6 4.3 33.6 2.85 Q33.6 2.8 33.6 2.8 33.6 2.7 33.6 2.65 33.55 2.55 33.55 2.55 33.5 2.5 33.45 2.5 33.45 2.5 33.35 2.45 L33.35 2.45 M33.35 10.4 L33.35 22.5 33.35 23.15 Q33.35 23.4 33.35 23.4 33.3 23.5 33.25 23.5 33.2 23.5 33.0 23.5 L32.35 23.5 31.7 23.5 30.8 23.5 30.85 23.75 31.95 23.75 32.6 23.75 33.2 23.75 Q33.45 23.75 33.45 23.75 33.55 23.75 33.55 23.65 33.55 23.65 33.6 23.4 L33.6 22.75 33.6 10.55 33.35 10.4 33.35 10.4 M30.55 22.75 L29.75 23.5 25.95 23.5 25.1 23.05 25.0 23.5 24.0 23.5 23.7 23.5 22.6 23.4 21.9 23.5 20.7 23.5 20.55 23.3 20.05 23.55 9.6 23.5 8.75 23.25 8.3 23.5 7.45 23.5 7.15 23.35 6.4 23.5 5.75 23.5 5.1 23.5 4.45 23.5 3.85 23.45 3.15 23.5 2.75 23.5 Q2.75 23.55 2.75 23.65 2.75 23.7 2.75 23.75 2.75 23.75 2.75 23.75 2.75 23.75 2.75 23.75 L3.4 23.75 4.1 23.7 4.7 23.75 5.35 23.75 5.95 23.75 6.6 23.75 7.4 23.6 7.65 23.75 8.55 23.75 18.95 23.75 19.75 23.75 20.3 23.8 20.8 23.55 20.9 23.75 22.15 23.75 22.85 23.65 23.95 23.75 24.25 23.75 25.25 23.75 25.35 23.3 26.15 23.75 30.0 23.75 30.55 23.2 30.55 22.75 30.55 22.75" fill="#ffffff" fill-rule="evenodd" stroke="none"/>
      <path d="M2.55 2.2 L5.85 2.2 6.1 2.65 6.4 2.4 7.65 2.2 13.45 2.2 13.6 2.7 14.05 2.2 15.35 2.2 26.5 2.2 27.0 2.65 27.2 2.2 27.85 2.2 33.0 2.2 Q33.2 2.2 33.25 2.25 33.3 2.25 33.35 2.35 33.35 2.4 33.35 2.55 33.35 2.55 33.35 2.6 L33.35 4.05 32.7 3.8 33.35 4.5 33.35 5.25 32.8 5.25 33.35 6.45 33.35 7.1 33.1 8.15 33.35 7.8 33.35 9.55 32.7 9.85 33.35 10.3 33.35 22.5 33.35 23.15 Q33.35 23.4 33.35 23.4 33.3 23.5 33.25 23.5 33.2 23.5 33.0 23.5 L32.35 23.5 31.7 23.5 30.6 23.5 30.5 22.75 29.75 23.5 25.95 23.5 25.1 23.05 25.0 23.5 24.0 23.5 23.7 23.5 22.6 23.4 21.9 23.5 20.7 23.5 20.55 23.3 20.05 23.55 9.6 23.5 8.75 23.25 8.3 23.5 7.45 23.5 7.15 23.35 6.4 23.5 5.75 23.5 5.1 23.5 4.45 23.5 3.85 23.45 3.15 23.5 2.55 23.5 Q2.5 23.5 2.5 23.5 2.5 23.5 2.5 23.5 2.3 23.5 2.25 23.5 2.2 23.5 2.15 23.45 2.15 23.4 2.2 23.2 2.2 23.2 2.15 23.2 2.15 23.2 2.15 23.2 2.15 23.15 2.15 23.15 L2.15 17.7 2.95 17.5 2.15 16.75 2.15 16.1 2.15 15.45 2.15 14.45 2.6 14.15 2.15 13.9 2.15 10.65 2.55 10.45 2.15 9.9 2.15 9.0 2.15 8.35 2.15 7.7 2.65 7.2 2.15 6.85 2.15 2.6 Q2.15 2.55 2.15 2.55 2.15 2.4 2.2 2.35 2.2 2.25 2.25 2.25 2.3 2.2 2.45 2.2 2.5 2.2 2.5 2.2 2.5 2.2 2.5 2.2 2.5 2.2 2.55 2.2 2.55 2.2 2.55 2.2 L2.55 2.2" fill="#000000" fill-rule="evenodd" stroke="none"/>
    </g>
    <g id="shape1" transform="matrix(1.0, 0.0, 0.0, 1.0, 0.0, 0.0)">
      <path d="M8.8 11.4 L9.1 12.1 8.8 12.85 Q8.5 13.15 8.05 13.15 7.65 13.15 7.35 12.85 7.05 12.55 7.05 12.1 7.05 11.7 7.35 11.4 7.65 11.1 8.05 11.1 8.5 11.1 8.8 11.4 M1.25 12.1 Q1.25 11.7 1.55 11.4 1.85 11.1 2.25 11.1 2.7 11.1 3.0 11.4 L3.3 12.1 3.0 12.85 Q2.7 13.15 2.25 13.15 L1.55 12.85 Q1.25 12.55 1.25 12.1 M4.0 0.55 Q4.55 1.1 4.7 1.95 L4.8 3.85 4.8 4.95 4.6 6.05 4.05 6.9 Q3.7 7.25 3.05 7.25 L3.05 10.0 1.55 10.0 1.55 6.1 1.95 6.15 Q2.55 6.15 2.8 5.8 L3.15 5.05 3.2 4.05 3.2 3.4 3.15 2.5 2.9 1.8 2.35 1.45 Q1.95 1.5 1.8 1.75 1.65 2.0 1.65 2.4 L1.6 3.05 1.6 3.35 0.0 3.35 0.0 3.15 Q0.0 2.3 0.15 1.6 0.3 0.85 0.8 0.45 1.25 0.0 2.3 0.0 3.45 0.05 4.0 0.55 M13.85 11.1 Q14.3 11.1 14.6 11.4 L14.9 12.1 14.6 12.85 Q14.3 13.15 13.85 13.15 13.45 13.15 13.15 12.85 12.85 12.55 12.85 12.1 12.85 11.7 13.15 11.4 13.45 11.1 13.85 11.1 M10.6 4.95 L10.4 6.05 9.85 6.9 Q9.5 7.25 8.85 7.25 L8.85 10.0 7.35 10.0 7.35 6.1 7.75 6.15 Q8.35 6.15 8.6 5.8 L8.95 5.05 9.0 4.05 9.0 3.4 8.95 2.5 8.7 1.8 Q8.5 1.5 8.15 1.45 7.75 1.5 7.6 1.75 7.45 2.0 7.45 2.4 L7.4 3.05 7.4 3.35 5.8 3.35 5.8 3.15 Q5.8 2.3 5.95 1.6 6.1 0.85 6.6 0.45 7.05 0.0 8.1 0.0 9.25 0.05 9.8 0.55 10.35 1.1 10.5 1.95 L10.6 3.85 10.6 4.95 M16.3 1.95 L16.4 3.85 16.4 4.95 16.2 6.05 15.65 6.9 14.65 7.25 14.65 10.0 13.15 10.0 13.15 6.1 13.55 6.15 Q14.15 6.15 14.4 5.8 L14.75 5.05 14.8 4.05 14.8 3.4 14.75 2.5 14.5 1.8 Q14.3 1.5 13.95 1.45 L13.4 1.75 Q13.25 2.0 13.25 2.4 L13.2 3.05 13.2 3.35 11.6 3.35 11.6 3.15 Q11.6 2.3 11.75 1.6 11.9 0.85 12.4 0.45 12.85 0.0 13.9 0.0 15.05 0.05 15.6 0.55 16.15 1.1 16.3 1.95" fill="#cccccc" fill-rule="evenodd" stroke="none"/>
    </g>
  </defs>
</svg>
