<?xml version="1.0" encoding="UTF-8" standalone="no"?>
<svg xmlns:ffdec="https://www.free-decompiler.com/flash" xmlns:xlink="http://www.w3.org/1999/xlink" ffdec:objectType="frame" height="26.55px" width="70.8px" xmlns="http://www.w3.org/2000/svg">
  <g transform="matrix(1.0, 0.0, 0.0, 1.0, 0.2, 0.4)">
    <use ffdec:characterId="27" height="26.0" transform="matrix(1.0, 0.0, 0.0, 1.0, 0.0, 0.0)" width="41.75" xlink:href="#shape0"/>
    <use ffdec:characterId="140" height="26.0" transform="matrix(1.0, 0.0, 0.0, 1.0, 0.0, 0.0)" width="41.75" xlink:href="#shape1"/>
    <use ffdec:characterId="140" height="26.0" transform="matrix(1.0, 0.0, 0.0, 1.0, 0.0, 0.0)" width="41.75" xlink:href="#shape1"/>
  </g>
  <defs>
    <g id="shape0" transform="matrix(1.0, 0.0, 0.0, 1.0, 0.0, 0.0)">
      <path d="M40.45 2.45 Q40.45 2.5 40.45 2.5 40.45 2.55 40.45 2.55 40.45 2.55 40.45 2.6 L40.45 4.05 39.8 3.8 40.45 4.5 40.45 5.25 39.9 5.25 40.45 6.45 40.45 7.1 40.25 8.15 40.45 7.8 40.45 9.55 39.8 9.85 40.1 10.05 40.7 9.8 40.7 8.05 40.45 8.4 40.7 7.35 40.7 6.7 40.15 5.5 40.7 5.5 40.7 4.75 40.05 4.05 40.7 4.3 40.7 2.85 Q40.7 2.8 40.7 2.8 40.7 2.7 40.7 2.65 40.7 2.55 40.65 2.55 40.65 2.5 40.6 2.5 40.55 2.5 40.45 2.45 L40.45 2.45 M40.45 10.4 L40.45 22.5 40.45 23.15 Q40.45 23.4 40.45 23.4 40.4 23.5 40.35 23.5 40.3 23.5 40.1 23.5 L39.45 23.5 38.8 23.5 37.9 23.5 37.95 23.75 39.05 23.75 39.7 23.75 40.35 23.75 Q40.6 23.75 40.65 23.75 40.7 23.7 40.7 23.4 L40.7 22.75 40.7 10.55 40.45 10.4 M37.65 22.75 L36.9 23.5 25.15 23.5 24.3 23.05 24.25 23.5 23.2 23.5 22.9 23.5 21.8 23.4 21.1 23.5 19.9 23.5 19.75 23.3 19.25 23.55 8.9 23.5 8.05 23.25 7.6 23.5 6.7 23.5 6.45 23.35 5.65 23.5 5.05 23.5 4.4 23.5 3.75 23.5 3.15 23.45 2.45 23.5 2.05 23.5 Q2.05 23.5 2.05 23.65 2.05 23.7 2.05 23.75 2.05 23.75 2.05 23.75 2.05 23.75 2.05 23.75 L2.7 23.75 3.4 23.7 4.0 23.75 4.65 23.75 5.25 23.75 5.9 23.75 6.7 23.6 6.95 23.75 7.85 23.75 18.15 23.75 18.95 23.75 19.5 23.8 20.0 23.55 20.1 23.75 21.35 23.75 22.05 23.65 23.15 23.75 23.45 23.75 24.45 23.75 24.55 23.3 25.35 23.75 37.1 23.75 37.7 23.2 37.65 22.75" fill="#ffffff" fill-rule="evenodd" stroke="none"/>
      <path d="M1.85 2.2 L5.15 2.2 5.4 2.65 5.7 2.4 6.95 2.2 13.95 2.2 14.1 2.7 14.55 2.2 15.85 2.2 28.95 2.2 29.45 2.65 29.65 2.2 30.3 2.2 40.1 2.2 Q40.3 2.2 40.35 2.25 40.4 2.25 40.45 2.35 40.45 2.4 40.45 2.55 40.45 2.55 40.45 2.6 L40.45 4.05 39.8 3.8 40.45 4.5 40.45 5.25 39.9 5.25 40.45 6.45 40.45 7.1 40.25 8.15 40.45 7.8 40.45 9.55 39.8 9.85 40.45 10.3 40.45 22.5 40.45 23.15 Q40.45 23.4 40.45 23.4 40.4 23.5 40.35 23.5 40.3 23.5 40.1 23.5 L39.45 23.5 38.8 23.5 37.7 23.5 37.65 22.75 36.9 23.5 25.15 23.5 24.3 23.05 24.25 23.5 23.2 23.5 22.9 23.5 21.8 23.4 21.1 23.5 19.9 23.5 19.75 23.3 19.25 23.55 8.9 23.5 8.05 23.25 7.6 23.5 6.7 23.5 6.45 23.35 5.65 23.5 5.05 23.5 4.4 23.5 3.75 23.5 3.15 23.45 2.45 23.5 1.85 23.5 Q1.8 23.5 1.8 23.5 1.8 23.5 1.8 23.5 1.6 23.5 1.55 23.5 1.5 23.5 1.45 23.45 1.45 23.4 1.45 23.2 1.45 23.2 1.45 23.2 1.45 23.2 1.45 23.2 1.45 23.15 1.45 23.15 L1.45 17.7 2.25 17.5 1.45 16.75 1.45 16.1 1.45 15.45 1.45 14.45 1.85 14.15 1.45 13.9 1.45 10.65 1.85 10.45 1.45 9.9 1.45 9.0 1.45 8.35 1.45 7.7 1.95 7.2 1.45 6.85 1.45 2.6 Q1.45 2.55 1.45 2.55 1.45 2.4 1.45 2.35 1.5 2.25 1.55 2.25 1.6 2.2 1.75 2.2 1.8 2.2 1.8 2.2 1.8 2.2 1.8 2.2 1.8 2.2 1.8 2.2 1.85 2.2 1.85 2.2 L1.85 2.2" fill="#000000" fill-rule="evenodd" stroke="none"/>
    </g>
    <g id="shape1" transform="matrix(1.0, 0.0, 0.0, 1.0, 0.0, 0.0)">
      <path d="M10.0 17.6 L10.0 17.6 10.0 17.6 10.0 17.6 9.95 17.6 9.75 17.65 9.75 17.45 9.85 17.4 9.85 17.4 9.95 17.35 Q9.95 17.35 9.95 17.3 10.0 17.3 10.0 17.25 10.0 17.25 10.0 17.2 10.0 17.2 10.0 17.15 10.0 17.1 10.0 17.05 10.0 17.05 10.0 17.0 10.0 16.95 10.0 16.9 10.0 16.85 10.0 16.8 L10.0 16.85 10.0 17.2 10.05 17.2 Q10.05 17.2 10.0 17.25 10.0 17.25 10.0 17.25 10.05 17.25 10.05 17.25 L10.05 17.2 10.1 17.15 10.05 17.35 10.1 17.35 10.1 17.35 10.75 16.15 11.4 17.55 11.5 17.85 11.65 18.2 11.7 17.95 11.65 18.2 12.2 19.35 12.4 19.75 12.4 19.75 13.85 19.75 13.9 19.75 13.9 19.35 Q13.85 19.35 13.85 19.25 13.85 19.2 13.85 19.1 13.85 19.0 13.85 18.85 13.85 18.75 13.85 18.6 13.9 18.45 13.9 18.3 13.95 18.2 13.95 18.05 13.95 18.0 14.0 17.9 14.0 17.9 14.0 17.85 L14.0 17.85 14.8 14.6 14.6 14.6 14.55 14.5 14.5 14.6 14.4 14.55 14.3 14.6 Q14.3 14.55 14.4 14.4 14.5 14.35 14.55 14.3 L14.5 14.25 14.65 14.2 14.65 14.1 14.8 14.05 14.85 14.35 15.3 12.2 Q15.3 12.2 15.3 12.15 15.35 12.05 15.35 11.95 15.4 11.8 15.4 11.7 15.45 11.55 15.5 11.4 15.55 11.2 15.65 11.1 15.7 10.95 15.75 10.8 15.85 10.7 15.95 10.6 16.05 10.55 16.15 10.55 L16.15 9.95 13.7 9.95 13.7 10.55 Q13.7 10.55 13.75 10.55 13.75 10.6 13.75 10.6 13.8 10.65 13.85 10.75 13.85 10.8 13.9 10.95 13.9 11.05 13.9 11.25 13.9 11.4 13.9 11.65 13.9 11.9 13.85 12.2 13.8 12.55 13.7 12.95 L12.65 17.0 12.6 17.0 11.65 15.1 10.75 13.45 9.8 14.95 8.75 16.75 8.7 16.75 7.85 12.95 Q7.85 12.95 7.8 12.65 7.75 12.45 7.75 12.35 L7.6 12.25 7.5 12.25 7.5 12.2 7.4 12.2 Q7.4 12.15 7.4 12.1 7.4 12.05 7.4 12.05 7.4 12.05 7.45 12.05 7.5 12.05 7.5 12.05 7.55 12.05 7.55 12.1 7.55 12.1 7.6 12.1 7.55 12.1 7.55 12.1 7.6 12.1 7.65 12.1 7.7 12.1 7.7 12.15 7.65 11.9 7.65 11.65 7.65 11.45 7.65 11.25 7.65 11.1 7.65 11.0 7.7 10.85 7.7 10.8 7.75 10.7 7.75 10.65 7.8 10.6 7.8 10.6 7.85 10.55 7.85 10.55 7.85 10.55 7.85 10.55 L7.85 9.95 5.25 9.95 5.25 10.55 Q5.35 10.6 5.5 10.65 5.6 10.75 5.7 10.85 5.75 11.0 5.85 11.15 5.9 11.3 5.95 11.45 6.05 11.6 6.05 11.75 6.1 11.85 6.15 12.0 6.15 12.05 6.2 12.15 6.2 12.2 6.2 12.2 L7.3 17.9 Q7.3 17.95 7.35 18.05 7.35 18.15 7.35 18.25 7.4 18.35 7.4 18.5 7.4 18.6 7.4 18.7 7.45 18.85 7.45 18.95 7.45 19.05 7.45 19.15 7.4 19.25 7.4 19.3 7.4 19.35 7.35 19.35 L7.35 19.75 7.4 19.75 8.85 19.75 9.0 19.35 10.0 17.6" fill="#f1edf8" fill-rule="evenodd" stroke="none"/>
      <path d="M21.7 18.8 L21.7 16.0 21.7 15.6 Q21.7 15.4 21.65 15.2 21.65 15.0 21.55 14.85 21.5 14.65 21.4 14.5 21.3 14.3 21.15 14.15 21.05 14.05 20.85 13.9 20.7 13.8 20.5 13.7 20.3 13.65 20.05 13.6 19.8 13.55 19.5 13.55 19.4 13.55 19.3 13.55 19.2 13.55 19.1 13.6 19.0 13.6 18.9 13.65 18.85 13.65 18.75 13.7 18.65 13.7 18.6 13.75 18.5 13.8 18.45 13.85 18.4 13.85 18.35 13.9 18.25 13.95 18.25 14.0 L18.25 12.75 18.15 12.8 18.1 12.9 18.05 12.85 17.95 12.85 17.95 12.75 18.0 12.75 18.0 12.7 18.05 12.65 18.1 12.65 18.15 12.6 18.25 12.5 18.25 11.0 Q18.25 10.9 18.25 10.8 18.25 10.7 18.3 10.6 18.3 10.5 18.35 10.4 18.35 10.35 18.4 10.25 18.45 10.2 18.45 10.15 18.5 10.1 18.5 10.05 18.55 10.0 18.55 9.95 18.55 9.95 18.55 9.95 L18.2 9.95 16.65 10.4 Q16.7 10.4 16.8 10.45 16.85 10.5 16.9 10.55 16.9 10.6 16.95 10.7 17.0 10.75 17.0 10.8 17.05 10.85 17.05 10.9 17.05 10.95 17.05 11.0 17.05 11.05 17.1 11.05 17.1 11.05 17.1 11.1 L17.1 16.55 17.1 17.95 Q17.1 18.15 17.05 18.35 17.05 18.5 17.0 18.65 17.0 18.8 16.95 18.9 16.95 19.0 16.9 19.05 16.85 19.1 16.85 19.15 16.8 19.2 16.8 19.25 16.75 19.25 16.75 19.25 16.75 19.3 16.7 19.3 L16.7 19.75 18.65 19.75 18.65 19.25 Q18.6 19.25 18.55 19.2 18.5 19.15 18.45 19.05 18.4 18.95 18.4 18.85 18.35 18.75 18.35 18.6 18.35 18.5 18.3 18.35 18.3 18.25 18.3 18.15 18.3 18.1 18.3 18.0 18.3 18.0 18.3 17.95 L18.3 15.7 Q18.3 15.7 18.3 15.65 18.3 15.6 18.3 15.55 18.35 15.45 18.35 15.35 18.4 15.25 18.45 15.2 18.5 15.05 18.6 15.0 18.65 14.9 18.8 14.85 18.95 14.75 19.1 14.7 19.3 14.65 19.55 14.65 19.75 14.65 19.9 14.7 20.0 14.75 20.1 14.85 20.2 14.95 20.3 15.05 20.35 15.15 20.4 15.3 20.45 15.4 20.45 15.55 20.5 15.65 20.5 15.75 20.5 15.8 20.5 15.9 20.5 15.9 20.5 15.95 L20.5 18.5 20.5 18.8 Q20.5 18.9 20.5 18.95 20.45 19.05 20.45 19.1 20.45 19.15 20.4 19.15 20.35 19.2 20.35 19.2 20.3 19.25 20.3 19.25 20.25 19.25 20.25 19.3 20.25 19.3 20.2 19.3 20.2 19.3 20.2 19.3 L20.2 19.75 22.0 19.75 22.0 19.3 Q21.95 19.3 21.9 19.25 21.85 19.25 21.85 19.2 21.8 19.2 21.75 19.15 21.75 19.1 21.75 19.05 21.7 19.0 21.7 18.95 21.7 18.9 21.7 18.85 21.7 18.85 21.7 18.8 21.7 18.8 21.7 18.8 L21.7 18.8" fill="#f1edf8" fill-rule="evenodd" stroke="none"/>
      <path d="M25.35 18.55 Q25.35 18.55 25.3 18.55 25.2 18.5 25.1 18.5 25.0 18.45 24.9 18.4 24.75 18.35 24.65 18.3 24.5 18.25 24.35 18.15 24.25 18.0 24.15 17.9 24.05 17.75 23.95 17.6 23.9 17.4 23.85 17.2 23.85 17.15 23.85 17.1 23.8 17.05 23.8 17.05 L24.65 17.05 26.5 16.95 Q26.5 16.95 26.55 16.95 26.6 16.95 26.65 16.95 26.7 16.95 26.8 16.95 26.9 16.9 26.95 16.9 27.05 16.85 27.15 16.85 27.25 16.8 27.35 16.75 27.45 16.7 27.5 16.6 27.6 16.55 27.6 16.45 L27.9 15.5 Q28.0 15.5 28.05 14.7 28.05 14.7 28.05 14.7 28.05 14.75 28.0 14.75 28.0 14.8 28.0 14.8 27.95 14.8 27.9 14.8 27.9 14.85 27.85 14.8 27.8 14.8 27.75 14.75 27.7 14.75 27.7 14.65 27.65 14.6 27.6 14.5 27.5 14.35 27.4 14.2 27.3 14.1 27.15 14.0 27.0 13.9 26.85 13.8 26.7 13.75 26.5 13.7 26.4 13.65 26.25 13.65 26.1 13.6 26.0 13.6 25.9 13.6 25.85 13.6 25.8 13.6 25.75 13.6 25.35 13.6 25.0 13.65 24.65 13.7 24.35 13.85 24.05 13.95 23.8 14.15 23.6 14.3 23.4 14.5 23.25 14.7 23.1 14.95 22.95 15.15 22.85 15.35 22.8 15.55 22.75 15.75 22.7 15.95 22.65 16.1 L22.3 16.25 Q22.35 16.3 22.35 16.35 22.35 16.4 22.4 16.45 22.4 16.5 22.4 16.55 22.4 16.65 22.4 16.65 22.4 16.7 22.45 16.75 22.45 16.8 22.45 16.85 22.5 16.85 22.55 16.9 22.55 16.9 22.6 16.9 L22.6 16.85 22.65 16.9 22.65 16.85 22.65 16.85 22.75 16.85 22.75 16.8 22.8 16.8 22.8 16.85 22.75 16.9 22.7 16.9 22.65 16.9 22.65 16.9 Q22.65 16.95 22.65 17.0 22.65 17.5 22.8 17.9 22.9 18.3 23.15 18.6 23.35 18.9 23.65 19.1 23.9 19.3 24.2 19.4 24.45 19.55 24.75 19.6 24.95 19.7 25.2 19.7 25.4 19.75 25.55 19.75 25.6 19.75 25.7 19.75 26.0 19.75 26.25 19.7 26.5 19.65 26.7 19.6 26.9 19.55 27.1 19.45 27.25 19.35 27.35 19.25 27.45 19.2 27.55 19.1 27.65 19.05 27.7 18.95 27.75 18.9 27.75 18.85 27.75 18.85 27.8 18.8 L27.75 17.65 27.25 17.7 Q27.2 17.85 27.05 18.0 26.95 18.1 26.8 18.2 26.65 18.3 26.5 18.35 26.35 18.4 26.15 18.45 26.0 18.5 25.85 18.5 25.7 18.55 25.6 18.55 25.5 18.55 25.4 18.55 25.35 18.55 25.35 18.55 L25.35 18.55 M25.6 14.45 Q25.6 14.45 25.65 14.45 25.75 14.45 25.8 14.5 25.9 14.5 26.0 14.55 26.1 14.55 26.2 14.6 26.3 14.7 26.4 14.8 26.5 14.9 26.6 15.0 26.65 15.15 26.7 15.35 26.75 15.55 26.75 15.8 26.75 15.8 26.1 15.95 25.35 16.05 24.9 16.1 L23.85 16.1 Q23.95 15.8 24.05 15.5 24.2 15.25 24.35 15.1 24.45 14.9 24.6 14.8 24.75 14.7 24.9 14.6 25.05 14.55 25.15 14.5 25.3 14.5 25.4 14.5 25.45 14.45 25.55 14.45 25.6 14.45 25.6 14.45 L25.6 14.45" fill="#f1edf8" fill-rule="evenodd" stroke="none"/>
      <path d="M31.3 18.55 Q31.3 18.55 31.25 18.55 31.15 18.5 31.1 18.5 30.95 18.45 30.85 18.4 30.7 18.35 30.6 18.3 30.45 18.25 30.35 18.15 30.2 18.0 30.1 17.9 30.0 17.75 29.9 17.6 29.85 17.4 29.85 17.2 29.8 17.05 29.8 17.05 L30.6 17.05 32.45 16.95 Q32.45 16.95 32.5 16.95 32.55 16.95 32.6 16.95 32.65 16.95 32.75 16.95 32.85 16.9 32.95 16.9 33.05 16.85 33.1 16.85 33.2 16.8 33.3 16.75 33.4 16.7 33.45 16.6 33.55 16.55 33.6 16.45 L33.9 15.5 Q33.9 15.5 33.95 15.25 34.0 14.95 34.0 14.7 34.0 14.7 34.0 14.7 34.0 14.75 34.0 14.75 33.95 14.75 33.95 14.8 33.9 14.8 33.9 14.8 33.85 14.85 33.8 14.8 33.75 14.8 33.75 14.75 33.7 14.75 33.65 14.65 33.6 14.6 33.55 14.5 33.45 14.35 33.35 14.2 33.25 14.1 33.1 14.0 32.95 13.9 32.8 13.8 32.65 13.75 32.5 13.7 32.35 13.65 32.2 13.65 32.1 13.6 31.95 13.6 31.85 13.6 31.8 13.6 31.75 13.6 31.75 13.6 31.35 13.6 30.95 13.65 30.65 13.7 30.3 13.85 30.05 13.95 29.8 14.15 29.55 14.3 29.35 14.5 29.2 14.7 29.05 14.95 28.95 15.15 28.85 15.35 28.75 15.55 28.7 15.75 28.65 15.95 28.65 16.1 L28.25 16.25 Q28.3 16.3 28.3 16.35 28.3 16.4 28.35 16.45 28.35 16.5 28.35 16.55 28.35 16.65 28.4 16.65 28.4 16.7 28.4 16.75 28.4 16.8 28.45 16.85 28.45 16.85 28.5 16.9 28.55 16.9 28.6 16.9 L28.55 16.85 28.6 16.9 28.6 16.85 28.6 16.85 28.7 16.85 28.7 16.8 28.75 16.8 28.75 16.85 28.7 16.9 28.65 16.9 28.65 16.9 28.6 16.9 Q28.6 16.95 28.6 17.0 28.6 17.5 28.75 17.9 28.9 18.3 29.1 18.6 29.3 18.9 29.6 19.1 29.85 19.3 30.15 19.4 30.4 19.55 30.7 19.6 30.95 19.7 31.2 19.7 31.35 19.75 31.5 19.75 31.6 19.75 31.65 19.75 31.95 19.75 32.2 19.7 32.45 19.65 32.7 19.6 32.85 19.55 33.05 19.45 33.2 19.35 33.3 19.25 33.45 19.2 33.5 19.1 33.6 19.05 33.65 18.95 33.7 18.9 33.7 18.85 33.75 18.85 33.75 18.8 L33.7 17.65 33.2 17.7 Q33.15 17.85 33.0 18.0 32.9 18.1 32.75 18.2 32.65 18.3 32.45 18.35 32.3 18.4 32.1 18.45 31.95 18.5 31.8 18.5 31.7 18.55 31.55 18.55 31.45 18.55 31.35 18.55 31.35 18.55 31.3 18.55 L31.3 18.55 M31.55 14.45 Q31.55 14.45 31.6 14.45 31.7 14.45 31.75 14.5 31.85 14.5 31.95 14.55 32.05 14.55 32.15 14.6 32.3 14.7 32.35 14.8 32.5 14.9 32.55 15.0 32.65 15.15 32.65 15.35 32.7 15.55 32.7 15.8 32.7 15.8 32.05 15.95 31.3 16.05 30.85 16.1 L29.8 16.1 Q29.9 15.8 30.0 15.5 30.15 15.25 30.3 15.1 30.4 14.9 30.6 14.8 30.7 14.7 30.85 14.6 31.0 14.55 31.15 14.5 31.25 14.5 31.35 14.5 31.45 14.45 31.5 14.45 31.55 14.45 31.55 14.45 L31.55 14.45" fill="#f1edf8" fill-rule="evenodd" stroke="none"/>
      <path d="M36.15 17.95 L36.15 12.9 36.1 12.95 36.05 13.05 36.0 13.0 35.9 13.0 35.9 12.9 35.95 12.95 35.95 12.9 36.0 12.8 36.05 12.8 36.1 12.75 36.15 12.7 36.15 10.8 Q36.15 10.7 36.15 10.6 36.2 10.55 36.2 10.45 36.25 10.35 36.25 10.3 36.3 10.25 36.35 10.2 36.35 10.15 36.4 10.1 36.4 10.05 36.45 10.0 36.45 10.0 36.5 9.95 36.5 9.95 36.5 9.95 L36.15 9.95 34.55 10.4 Q34.7 10.85 34.8 11.25 L34.8 17.3 34.8 17.95 Q34.8 18.15 34.8 18.35 34.8 18.5 34.75 18.65 34.75 18.75 34.7 18.85 34.7 18.9 34.65 19.0 34.6 19.05 34.6 19.05 34.55 19.1 34.55 19.1 34.5 19.1 34.5 19.1 34.5 19.1 34.5 19.1 L34.5 19.75 36.5 19.75 36.5 19.1 Q36.45 19.1 36.4 19.05 36.35 19.0 36.3 18.95 36.3 18.85 36.25 18.75 36.25 18.65 36.2 18.55 36.2 18.45 36.2 18.3 36.15 18.25 36.15 18.15 36.15 18.05 36.15 18.0 36.15 18.0 36.15 17.95 L36.15 17.95" fill="#f1edf8" fill-rule="evenodd" stroke="none"/>
      <path d="M26.1 6.25 Q25.8 6.25 25.5 6.3 25.2 6.35 24.9 6.5 24.65 6.6 24.4 6.8 24.15 6.95 23.95 7.15 23.75 7.35 23.6 7.6 23.45 7.85 23.3 8.15 23.2 8.4 23.15 8.7 23.1 9.0 23.1 9.35 23.1 9.65 23.15 9.95 23.2 10.25 23.3 10.5 23.45 10.8 23.6 11.05 23.75 11.25 23.95 11.5 24.15 11.7 24.4 11.85 24.65 12.0 24.9 12.15 25.2 12.25 25.5 12.3 25.8 12.35 26.1 12.35 26.4 12.35 26.7 12.3 27.0 12.25 27.25 12.1 27.55 12.0 27.8 11.85 28.05 11.7 28.25 11.45 28.45 11.25 28.6 11.0 28.75 10.75 28.9 10.5 29.0 10.25 29.05 9.95 29.1 9.65 29.1 9.35 29.1 9.05 29.05 8.75 29.0 8.45 28.85 8.15 28.75 7.85 28.6 7.6 28.45 7.35 28.25 7.15 28.05 6.95 27.8 6.75 27.55 6.6 27.25 6.5 27.0 6.35 26.7 6.3 26.4 6.25 26.1 6.25 L26.1 6.25 M26.15 11.95 Q25.9 11.95 25.65 11.9 25.4 11.85 25.15 11.75 24.95 11.7 24.75 11.55 24.6 11.45 24.45 11.25 24.25 11.1 24.15 10.9 24.05 10.65 23.95 10.45 23.85 10.2 23.85 9.9 23.8 9.65 23.8 9.35 23.8 9.3 23.8 9.25 23.8 9.2 23.8 9.2 23.8 9.15 23.8 9.1 23.8 9.05 23.8 9.0 23.8 9.0 23.8 8.95 23.8 8.9 23.8 8.85 23.85 8.85 23.85 8.8 23.85 8.75 23.85 8.7 L23.75 8.55 23.65 8.45 23.7 8.4 23.9 8.35 Q23.9 8.15 23.85 8.2 23.85 8.25 23.85 8.35 23.9 8.4 23.9 8.4 23.9 8.3 23.95 8.15 24.0 8.0 24.05 7.85 24.15 7.7 24.25 7.6 24.35 7.4 24.5 7.3 24.65 7.15 24.8 7.05 25.0 6.9 25.2 6.8 25.4 6.75 25.6 6.7 25.85 6.65 26.1 6.65 26.4 6.65 26.65 6.7 26.9 6.75 27.15 6.9 27.35 7.0 27.55 7.15 27.7 7.3 27.85 7.5 28.0 7.7 28.1 7.9 28.2 8.15 28.25 8.35 28.35 8.6 28.4 8.85 28.4 9.05 28.4 9.3 28.4 9.6 28.35 9.85 28.35 10.1 28.25 10.35 28.2 10.6 28.1 10.8 28.0 11.0 27.85 11.2 27.7 11.4 27.55 11.5 27.35 11.65 27.15 11.75 26.95 11.85 26.7 11.9 26.45 11.95 26.15 11.95 L26.15 11.95" fill="#f1edf8" fill-rule="evenodd" stroke="none"/>
      <path d="M29.75 8.7 Q29.7 8.7 29.65 8.7 29.55 8.65 29.55 8.65 29.5 8.65 29.45 8.7 29.5 8.75 30.0 9.35 30.05 9.35 30.05 9.3 30.05 9.25 30.1 9.2 30.1 9.1 30.1 9.1 30.15 9.05 30.15 9.05 30.3 8.65 30.35 8.55 30.25 8.55 30.25 8.55 30.2 8.6 30.15 8.6 30.1 8.6 30.05 8.65 30.05 8.7 30.0 8.75 30.0 8.85 29.95 8.9 29.9 8.9 29.85 8.85 29.8 8.8 29.8 8.75 29.75 8.75 29.75 8.7 L29.75 8.7" fill="#f1edf8" fill-rule="evenodd" stroke="none"/>
      <path d="M29.8 9.8 Q29.6 9.7 29.55 9.7 29.6 9.8 29.7 10.1 29.75 10.35 29.8 10.5 29.85 10.5 29.9 10.45 29.9 10.45 29.95 10.4 30.15 10.2 30.0 10.3 30.05 10.3 30.1 10.25 30.35 10.0 30.45 9.9 30.35 9.9 30.35 9.9 30.3 9.85 30.25 9.85 30.2 9.85 30.15 9.9 30.1 9.9 30.1 9.95 30.05 10.0 30.0 10.05 29.95 10.05 29.9 10.05 29.85 10.0 29.85 9.95 29.85 9.9 29.85 9.85 29.85 9.8 29.8 9.8 L29.8 9.8" fill="#f1edf8" fill-rule="evenodd" stroke="none"/>
      <path d="M29.5 10.8 Q29.45 10.8 29.45 10.75 29.4 10.65 29.4 10.65 29.35 10.6 29.3 10.6 29.25 10.75 29.2 11.05 29.15 11.4 29.15 11.45 29.2 11.45 29.25 11.45 29.25 11.45 29.3 11.4 29.4 11.4 29.4 11.4 29.45 11.35 29.5 11.35 29.55 11.35 29.55 11.35 29.6 11.35 29.6 11.3 29.65 11.3 29.7 11.3 29.7 11.3 29.75 11.3 29.8 11.3 29.8 11.25 29.85 11.25 29.85 11.25 29.9 11.25 29.95 11.2 29.95 11.2 30.0 11.2 29.7 11.05 29.65 11.05 29.6 11.15 29.5 11.1 29.4 11.1 29.45 11.0 29.45 10.95 29.45 10.9 29.45 10.85 29.5 10.8 L29.5 10.8" fill="#f1edf8" fill-rule="evenodd" stroke="none"/>
      <path d="M22.8 10.35 Q22.95 10.35 23.0 10.35 23.1 10.35 23.05 10.3 23.0 10.25 23.0 10.25 22.95 10.2 22.9 10.15 22.9 10.1 22.85 10.1 22.8 10.05 22.8 10.0 22.75 10.0 22.7 9.95 22.7 9.9 22.65 9.85 22.6 9.85 22.6 9.8 22.55 9.75 22.5 9.75 22.5 9.75 22.4 9.95 22.4 10.05 22.3 10.25 22.25 10.4 22.25 10.5 22.25 10.55 22.3 10.55 22.2 10.6 22.45 10.45 22.5 10.45 22.5 10.4 22.5 10.4 22.55 10.35 22.55 10.25 22.55 10.25 22.55 10.2 22.6 10.2 22.65 10.2 22.7 10.2 22.7 10.25 22.75 10.3 22.8 10.35 22.8 10.35 L22.8 10.35" fill="#f1edf8" fill-rule="evenodd" stroke="none"/>
      <path d="M22.6 9.15 Q22.65 9.2 22.7 9.2 22.75 9.2 22.8 9.2 22.85 9.2 22.85 9.15 22.75 9.05 22.65 8.8 22.5 8.6 22.4 8.5 22.4 8.5 22.25 8.7 22.2 8.75 22.1 8.95 22.05 9.1 22.0 9.2 22.0 9.25 22.05 9.25 21.35 9.4 22.2 9.2 22.25 9.2 22.25 9.15 22.3 9.15 22.3 9.1 22.35 9.0 22.35 9.0 22.35 8.95 22.4 8.95 22.45 8.95 22.45 9.0 22.5 9.0 22.5 9.05 22.55 9.05 22.55 9.1 22.6 9.15 22.6 9.15 L22.6 9.15" fill="#f1edf8" fill-rule="evenodd" stroke="none"/>
      <path d="M22.7 8.2 Q22.75 8.25 22.75 8.25 22.8 8.3 22.8 8.35 22.85 8.35 22.85 8.35 22.9 8.35 22.9 8.3 22.9 7.95 22.85 7.55 22.85 7.5 22.75 7.55 22.4 7.75 22.6 7.65 22.55 7.7 22.4 7.8 22.25 7.9 22.15 7.95 22.1 8.0 22.2 8.0 22.1 8.0 22.35 8.05 22.4 8.05 22.45 8.05 22.45 8.0 22.5 8.0 22.5 8.0 22.6 7.95 22.65 7.9 22.7 8.0 22.7 8.0 22.7 8.2 L22.7 8.2 22.7 8.2 22.7 8.2" fill="#f1edf8" fill-rule="evenodd" stroke="none"/>
    </g>
  </defs>
</svg>
