<?xml version="1.0" encoding="UTF-8" standalone="no"?>
<svg xmlns:ffdec="https://www.free-decompiler.com/flash" xmlns:xlink="http://www.w3.org/1999/xlink" ffdec:objectType="frame" height="26.55px" width="70.8px" xmlns="http://www.w3.org/2000/svg">
  <g transform="matrix(1.0, 0.0, 0.0, 1.0, 0.2, 0.4)">
    <use ffdec:characterId="1" height="26.0" transform="matrix(1.0, 0.0, 0.0, 1.0, 0.0, 0.0)" width="35.75" xlink:href="#shape0"/>
    <use ffdec:characterId="43" height="26.0" transform="matrix(1.0, 0.0, 0.0, 1.0, 0.0, 0.0)" width="35.75" xlink:href="#shape1"/>
    <use ffdec:characterId="43" height="26.0" transform="matrix(1.0, 0.0, 0.0, 1.0, 0.0, 0.0)" width="35.75" xlink:href="#shape1"/>
  </g>
  <defs>
    <g id="shape0" transform="matrix(1.0, 0.0, 0.0, 1.0, 0.0, 0.0)">
      <path d="M33.35 2.45 Q33.35 2.5 33.35 2.55 33.35 2.55 33.35 2.6 L33.35 4.05 32.7 3.8 33.35 4.5 33.35 5.25 32.8 5.25 33.35 6.45 33.35 7.1 33.1 8.15 33.35 7.8 33.35 9.55 32.7 9.85 33.0 10.05 33.6 9.8 33.6 8.05 33.35 8.4 33.6 7.35 33.6 6.7 33.05 5.5 33.6 5.5 33.6 4.75 32.95 4.05 33.6 4.3 33.6 2.85 Q33.6 2.8 33.6 2.8 33.6 2.7 33.6 2.65 33.55 2.55 33.55 2.55 33.5 2.5 33.45 2.5 33.45 2.5 33.35 2.45 L33.35 2.45 M33.35 10.4 L33.35 22.5 33.35 23.15 Q33.35 23.4 33.35 23.4 33.3 23.5 33.25 23.5 33.2 23.5 33.0 23.5 L32.35 23.5 31.7 23.5 30.8 23.5 30.85 23.75 31.95 23.75 32.6 23.75 33.2 23.75 Q33.45 23.75 33.45 23.75 33.55 23.75 33.55 23.65 33.55 23.65 33.6 23.4 L33.6 22.75 33.6 10.55 33.35 10.4 33.35 10.4 M30.55 22.75 L29.75 23.5 25.95 23.5 25.1 23.05 25.0 23.5 24.0 23.5 23.7 23.5 22.6 23.4 21.9 23.5 20.7 23.5 20.55 23.3 20.05 23.55 9.6 23.5 8.75 23.25 8.3 23.5 7.45 23.5 7.15 23.35 6.4 23.5 5.75 23.5 5.1 23.5 4.45 23.5 3.85 23.45 3.15 23.5 2.75 23.5 Q2.75 23.55 2.75 23.65 2.75 23.7 2.75 23.75 2.75 23.75 2.75 23.75 2.75 23.75 2.75 23.75 L3.4 23.75 4.1 23.7 4.7 23.75 5.35 23.75 5.95 23.75 6.6 23.75 7.4 23.6 7.65 23.75 8.55 23.75 18.95 23.75 19.75 23.75 20.3 23.8 20.8 23.55 20.9 23.75 22.15 23.75 22.85 23.65 23.95 23.75 24.25 23.75 25.25 23.75 25.35 23.3 26.15 23.75 30.0 23.75 30.55 23.2 30.55 22.75 30.55 22.75" fill="#ffffff" fill-rule="evenodd" stroke="none"/>
      <path d="M2.55 2.2 L5.85 2.2 6.1 2.65 6.4 2.4 7.65 2.2 13.45 2.2 13.6 2.7 14.05 2.2 15.35 2.2 26.5 2.2 27.0 2.65 27.2 2.2 27.85 2.2 33.0 2.2 Q33.2 2.2 33.25 2.25 33.3 2.25 33.35 2.35 33.35 2.4 33.35 2.55 33.35 2.55 33.35 2.6 L33.35 4.05 32.7 3.8 33.35 4.5 33.35 5.25 32.8 5.25 33.35 6.45 33.35 7.1 33.1 8.15 33.35 7.8 33.35 9.55 32.7 9.85 33.35 10.3 33.35 22.5 33.35 23.15 Q33.35 23.4 33.35 23.4 33.3 23.5 33.25 23.5 33.2 23.5 33.0 23.5 L32.35 23.5 31.7 23.5 30.6 23.5 30.5 22.75 29.75 23.5 25.95 23.5 25.1 23.05 25.0 23.5 24.0 23.5 23.7 23.5 22.6 23.4 21.9 23.5 20.7 23.5 20.55 23.3 20.05 23.55 9.6 23.5 8.75 23.25 8.3 23.5 7.45 23.5 7.15 23.35 6.4 23.5 5.75 23.5 5.1 23.5 4.45 23.5 3.85 23.45 3.15 23.5 2.55 23.5 Q2.5 23.5 2.5 23.5 2.5 23.5 2.5 23.5 2.3 23.5 2.25 23.5 2.2 23.5 2.15 23.45 2.15 23.4 2.2 23.2 2.2 23.2 2.15 23.2 2.15 23.2 2.15 23.2 2.15 23.15 2.15 23.15 L2.15 17.7 2.95 17.5 2.15 16.75 2.15 16.1 2.15 15.45 2.15 14.45 2.6 14.15 2.15 13.9 2.15 10.65 2.55 10.45 2.15 9.9 2.15 9.0 2.15 8.35 2.15 7.7 2.65 7.2 2.15 6.85 2.15 2.6 Q2.15 2.55 2.15 2.55 2.15 2.4 2.2 2.35 2.2 2.25 2.25 2.25 2.3 2.2 2.45 2.2 2.5 2.2 2.5 2.2 2.5 2.2 2.5 2.2 2.5 2.2 2.55 2.2 2.55 2.2 2.55 2.2 L2.55 2.2" fill="#000000" fill-rule="evenodd" stroke="none"/>
    </g>
    <g id="shape1" transform="matrix(1.0, 0.0, 0.0, 1.0, 0.0, 0.0)">
      <path d="M16.45 16.35 Q16.45 16.35 16.3 16.35 16.1 16.35 15.9 16.35 15.6 16.3 15.35 16.25 15.0 16.15 14.7 16.05 14.35 15.9 14.05 15.7 13.75 15.45 13.5 15.1 13.25 14.75 13.1 14.3 12.95 13.8 12.95 13.2 12.95 12.45 13.1 11.85 13.25 11.3 13.5 10.85 13.75 10.45 14.05 10.15 14.35 9.9 14.7 9.75 15.0 9.55 15.35 9.45 15.6 9.4 15.9 9.35 16.1 9.35 16.3 9.35 16.35 9.35 16.45 9.35 16.45 9.35 16.5 9.35 16.6 9.35 16.7 9.35 16.85 9.4 17.0 9.45 17.2 9.5 17.35 9.55 17.55 9.65 17.7 9.8 17.85 9.95 18.0 10.15 18.1 10.35 18.2 10.6 18.3 10.9 18.3 11.25 L18.75 11.4 Q18.75 11.4 18.8 11.35 18.95 11.1 18.9 11.2 18.95 11.1 19.05 11.0 19.1 10.9 19.2 10.75 19.3 10.6 19.4 10.45 19.5 10.3 19.6 10.1 19.7 9.95 19.8 9.75 19.9 9.6 19.95 9.4 19.95 9.4 19.95 9.4 19.9 9.45 19.9 9.45 19.85 9.45 19.85 9.45 19.8 9.45 19.75 9.45 19.65 9.45 19.6 9.4 19.5 9.35 19.45 9.3 19.35 9.25 19.25 9.1 19.1 9.0 19.0 8.85 19.0 8.85 18.95 8.8 18.85 8.75 18.8 8.7 18.65 8.65 18.5 8.55 18.35 8.45 18.15 8.4 17.95 8.3 17.7 8.2 17.45 8.15 17.2 8.1 16.9 8.0 16.6 8.0 16.25 7.95 15.95 7.95 15.1 7.9 14.35 8.1 13.7 8.3 13.2 8.65 12.7 8.95 12.35 9.4 12.05 9.8 11.8 10.35 11.6 10.75 11.45 11.25 11.35 11.65 11.3 12.05 11.25 12.35 11.25 12.65 11.25 12.75 11.25 12.85 11.25 13.8 11.45 14.65 11.65 15.35 12.0 15.95 12.3 16.45 12.7 16.85 13.1 17.25 13.55 17.5 13.95 17.7 14.4 17.85 14.75 17.95 15.1 18.0 15.35 18.05 15.6 18.05 15.7 18.05 15.8 18.05 16.3 18.05 16.8 17.9 17.25 17.8 17.65 17.65 18.0 17.45 18.35 17.25 18.65 17.0 18.95 16.75 19.2 16.55 19.4 16.35 19.55 16.15 19.7 15.95 19.8 15.8 19.9 15.65 19.95 15.6 19.95 15.55 L20.0 14.45 19.45 14.55 Q19.25 14.85 19.05 15.15 18.8 15.35 18.55 15.55 18.35 15.75 18.05 15.9 17.85 16.0 17.6 16.1 17.35 16.2 17.15 16.25 16.95 16.3 16.8 16.3 16.65 16.35 16.55 16.35 16.5 16.35 16.45 16.35 L16.45 16.35" fill="#f1edf8" fill-rule="evenodd" stroke="none"/>
      <path d="M23.75 11.6 L23.7 11.6 Q23.7 11.6 23.75 11.6 L23.75 11.6 Q23.75 11.65 23.75 11.65 23.65 11.7 23.35 11.7 22.95 11.7 22.1 11.65 22.1 11.65 21.95 11.75 L21.95 10.75 21.55 10.2 Q21.55 10.3 21.5 10.35 21.5 10.45 21.45 10.55 21.4 10.6 21.3 10.65 21.25 10.75 21.15 10.8 21.1 10.85 21.05 10.9 20.95 10.95 20.9 11.0 20.85 11.05 20.8 11.05 20.8 11.05 20.8 11.05 L20.8 11.75 19.65 11.75 19.25 12.35 19.25 12.7 20.5 12.7 20.8 12.7 20.8 15.35 20.8 16.1 Q20.8 16.35 20.8 16.6 20.75 16.8 20.75 16.95 20.7 17.1 20.7 17.2 20.65 17.3 20.6 17.4 20.6 17.45 20.55 17.5 20.5 17.55 20.5 17.55 20.45 17.6 20.45 17.6 20.45 17.6 20.4 17.6 L20.4 18.05 22.3 18.05 22.3 17.6 Q22.25 17.6 22.2 17.55 22.15 17.45 22.1 17.35 22.1 17.25 22.05 17.1 22.05 17.0 22.0 16.85 22.0 16.7 21.95 16.6 21.95 16.45 21.95 16.35 21.95 16.25 21.95 16.15 21.9 16.15 21.9 16.1 L21.95 12.65 22.7 12.65 Q22.7 12.65 22.7 12.65 22.75 12.65 22.8 12.65 22.85 12.65 22.9 12.65 22.95 12.6 23.05 12.6 23.1 12.6 23.15 12.55 23.25 12.55 23.3 12.5 23.35 12.45 23.4 12.4 23.5 12.35 23.5 12.3 L23.8 11.65 23.75 11.6" fill="#f1edf8" fill-rule="evenodd" stroke="none"/>
      <path d="M27.4 12.35 Q27.4 12.35 27.35 12.35 27.4 12.35 27.3 12.3 27.25 12.25 27.2 12.25 27.15 12.2 27.05 12.15 27.0 12.1 26.9 12.05 26.8 12.05 26.7 12.0 26.6 11.95 26.5 11.95 26.4 11.95 26.3 11.95 26.25 11.95 26.2 11.95 26.1 11.95 26.05 11.95 25.95 11.95 25.9 12.0 25.8 12.0 25.75 12.05 25.65 12.05 25.55 12.1 25.5 12.1 25.4 12.15 25.35 12.2 25.25 12.25 25.2 12.3 25.15 12.4 L25.15 12.3 Q25.15 12.25 25.15 12.2 25.15 12.15 25.2 12.1 25.2 12.05 25.25 12.0 25.3 11.95 25.3 11.9 25.35 11.9 25.4 11.85 25.4 11.8 25.45 11.8 25.45 11.8 25.45 11.8 25.5 11.75 25.5 11.75 L24.7 11.75 23.65 11.95 Q23.7 11.95 23.75 12.0 23.8 12.05 23.85 12.05 23.85 12.1 23.9 12.15 23.9 12.2 23.95 12.25 23.95 12.25 23.95 12.3 23.95 12.35 23.95 12.35 23.95 12.4 23.95 12.4 23.95 12.4 23.95 12.45 L23.95 16.4 23.95 16.8 Q23.95 16.95 23.95 17.05 23.95 17.15 23.9 17.2 23.9 17.3 23.85 17.35 23.85 17.4 23.8 17.45 23.8 17.45 23.75 17.5 23.75 17.5 23.7 17.5 23.7 17.5 23.7 17.5 23.7 17.5 23.7 17.5 L23.7 18.05 25.45 18.05 25.45 17.55 Q25.4 17.55 25.35 17.5 25.35 17.45 25.3 17.4 25.25 17.35 25.25 17.3 25.2 17.25 25.2 17.15 25.2 17.1 25.15 17.0 25.15 16.95 25.15 16.9 25.15 16.85 25.15 16.8 25.15 16.8 25.15 16.8 L25.15 14.4 25.05 14.4 25.0 14.45 24.95 14.45 24.85 14.45 24.85 14.35 24.9 14.4 24.9 14.35 24.95 14.35 25.05 14.35 25.05 14.3 25.15 14.25 25.15 13.95 Q25.15 13.9 25.15 13.8 25.15 13.75 25.2 13.65 25.2 13.6 25.25 13.5 25.25 13.4 25.35 13.35 25.4 13.25 25.5 13.2 25.55 13.1 25.7 13.05 25.8 13.0 25.95 13.0 26.1 12.95 26.3 12.95 26.3 12.95 26.35 12.95 26.4 12.95 26.45 13.0 26.55 13.0 26.65 13.05 26.75 13.1 26.85 13.15 26.95 13.25 27.05 13.35 27.15 13.45 27.2 13.6 27.3 13.75 27.35 13.95 27.45 14.15 27.45 14.4 27.45 14.4 27.75 14.1 28.05 13.8 28.05 13.8 28.05 13.65 28.05 13.45 28.05 13.35 28.05 13.25 28.0 13.15 27.95 13.05 27.9 12.95 27.85 12.85 27.8 12.8 27.75 12.7 27.7 12.65 27.6 12.55 27.55 12.5 27.5 12.45 27.45 12.45 27.4 12.4 27.4 12.4 27.4 12.35 L27.4 12.35" fill="#f1edf8" fill-rule="evenodd" stroke="none"/>
      <path d="M29.8 16.2 L29.8 11.0 29.75 11.05 29.65 11.15 29.6 11.1 29.55 11.1 29.55 11.0 29.6 11.0 29.6 10.95 29.6 10.9 29.7 10.9 29.75 10.85 29.8 10.75 29.8 8.8 Q29.8 8.7 29.8 8.6 29.85 8.55 29.85 8.45 29.9 8.35 29.9 8.3 29.95 8.25 30.0 8.15 30.0 8.1 30.05 8.05 30.05 8.05 30.1 8.0 30.1 8.0 30.15 7.95 30.15 7.95 30.15 7.95 L29.8 7.95 28.15 8.4 Q28.3 8.85 28.45 9.3 L28.45 15.5 28.45 16.2 Q28.45 16.4 28.4 16.6 28.4 16.75 28.4 16.9 28.35 17.0 28.3 17.1 28.3 17.2 28.25 17.25 28.2 17.3 28.2 17.35 28.15 17.35 28.15 17.4 28.1 17.4 28.1 17.4 28.1 17.4 28.1 17.4 L28.1 18.05 30.15 18.05 30.15 17.4 Q30.1 17.4 30.05 17.35 30.0 17.3 29.95 17.2 29.95 17.15 29.9 17.0 29.9 16.9 29.85 16.8 29.85 16.7 29.85 16.6 29.8 16.5 29.8 16.4 29.8 16.3 29.8 16.25 29.8 16.2 29.8 16.2 L29.8 16.2" fill="#f1edf8" fill-rule="evenodd" stroke="none"/>
      <path d="M11.5 16.4 Q11.5 16.4 11.45 16.4 11.35 16.45 11.25 16.45 11.1 16.5 10.95 16.55 10.8 16.6 10.6 16.6 10.4 16.65 10.2 16.7 9.95 16.75 9.7 16.75 9.45 16.8 9.2 16.8 8.95 16.85 8.7 16.85 8.5 16.85 8.35 16.75 8.2 16.7 8.1 16.55 7.95 16.45 7.9 16.3 7.8 16.15 7.75 16.0 7.75 15.85 7.7 15.65 7.65 15.55 7.65 15.4 7.65 15.3 7.65 15.2 7.65 15.15 7.65 15.1 L7.65 11.2 7.55 11.25 7.45 11.35 7.4 11.3 7.3 11.3 7.3 11.2 7.35 11.25 7.35 11.15 7.4 11.1 7.55 11.1 7.55 11.05 7.7 10.95 7.7 9.55 Q7.7 9.4 7.7 9.3 7.7 9.15 7.75 9.05 7.75 8.95 7.8 8.9 7.85 8.85 7.85 8.75 7.9 8.75 7.95 8.7 7.95 8.65 8.0 8.65 8.0 8.6 8.0 8.6 8.05 8.6 8.05 8.6 L8.05 7.95 5.7 7.95 5.7 8.55 Q5.75 8.6 5.85 8.65 5.9 8.7 5.95 8.75 5.95 8.85 6.0 8.9 6.05 9.0 6.05 9.1 6.05 9.15 6.05 9.2 6.05 9.3 6.1 9.35 6.1 9.4 6.1 9.45 6.1 9.45 6.1 9.45 L6.1 15.0 Q6.1 15.3 6.05 15.55 6.05 15.8 6.0 16.05 6.0 16.25 5.95 16.4 5.9 16.55 5.85 16.65 5.8 16.8 5.75 16.85 5.75 16.95 5.7 17.0 5.65 17.05 5.65 17.05 5.65 17.05 5.6 17.1 L5.6 18.05 8.3 18.05 8.3 18.05 10.8 18.05 Q10.8 18.05 11.2 18.05 11.75 18.05 12.1 18.05 L12.1 16.4 11.5 16.4" fill="#f1edf8" fill-rule="evenodd" stroke="none"/>
    </g>
  </defs>
</svg>
