<?xml version="1.0" encoding="UTF-8" standalone="no"?>
<svg xmlns:ffdec="https://www.free-decompiler.com/flash" xmlns:xlink="http://www.w3.org/1999/xlink" ffdec:objectType="frame" height="26.55px" width="70.8px" xmlns="http://www.w3.org/2000/svg">
  <g transform="matrix(1.0, 0.0, 0.0, 1.0, 0.2, 0.4)">
    <use ffdec:characterId="3" height="26.0" transform="matrix(1.0, 0.0, 0.0, 1.0, 0.0, 0.0)" width="26.0" xlink:href="#shape0"/>
    <use ffdec:characterId="6" height="26.0" transform="matrix(1.0, 0.0, 0.0, 1.0, 0.0, 0.0)" width="26.0" xlink:href="#shape1"/>
    <use ffdec:characterId="6" height="26.0" transform="matrix(1.0, 0.0, 0.0, 1.0, 0.0, 0.0)" width="26.0" xlink:href="#shape1"/>
    <use ffdec:characterId="7" height="26.0" transform="matrix(1.0, 0.0, 0.0, 1.0, 0.0, 0.0)" width="26.0" xlink:href="#shape2"/>
    <use ffdec:characterId="7" height="26.0" transform="matrix(1.0, 0.0, 0.0, 1.0, 0.0, 0.0)" width="26.0" xlink:href="#shape2"/>
  </g>
  <defs>
    <g id="shape0" transform="matrix(1.0, 0.0, 0.0, 1.0, 0.0, 0.0)">
      <path d="M23.5 2.45 Q23.5 2.5 23.5 2.5 23.5 2.55 23.5 2.55 23.5 2.55 23.5 2.55 23.5 2.6 23.5 2.6 L23.5 4.05 22.85 3.8 23.5 4.5 23.5 5.25 22.95 5.25 23.5 6.45 23.5 7.1 23.3 8.15 23.5 7.8 23.5 9.55 22.85 9.85 23.15 10.05 23.75 9.8 23.75 8.05 23.5 8.4 23.75 7.35 23.75 6.7 23.2 5.5 23.75 5.5 23.75 4.75 23.1 4.05 23.75 4.3 23.75 2.85 Q23.75 2.8 23.75 2.8 23.75 2.7 23.75 2.65 23.75 2.55 23.7 2.55 23.7 2.5 23.65 2.5 23.6 2.5 23.5 2.45 L23.5 2.45 M23.5 10.4 L23.5 22.5 23.5 23.15 Q23.5 23.4 23.5 23.4 23.45 23.5 23.4 23.5 23.35 23.5 23.15 23.5 L22.5 23.5 21.85 23.5 20.95 23.5 21.0 23.75 22.1 23.75 22.75 23.75 23.4 23.75 Q23.65 23.75 23.7 23.75 23.75 23.7 23.75 23.4 L23.75 22.75 23.75 10.55 23.5 10.4 M20.7 22.75 L19.95 23.5 16.1 23.5 15.25 23.05 15.2 23.5 14.15 23.5 13.9 23.5 12.75 23.4 12.05 23.5 10.85 23.5 10.7 23.3 10.2 23.55 9.7 23.5 8.85 23.25 8.4 23.5 7.5 23.5 7.25 23.35 6.45 23.5 5.85 23.5 5.2 23.5 4.55 23.5 3.95 23.45 3.25 23.5 2.85 23.5 Q2.85 23.55 2.85 23.6 2.85 23.65 2.85 23.7 2.8 23.7 2.8 23.75 2.85 23.75 2.85 23.75 2.85 23.75 2.85 23.75 L3.5 23.75 4.2 23.7 4.8 23.75 5.45 23.75 6.05 23.75 6.7 23.75 7.45 23.6 7.75 23.75 8.65 23.75 9.1 23.5 9.9 23.75 10.45 23.8 10.95 23.55 11.1 23.75 12.3 23.75 13.0 23.65 14.1 23.75 14.4 23.75 15.4 23.75 15.5 23.3 16.35 23.75 20.15 23.75 20.75 23.2 20.7 22.75" fill="#ffffff" fill-rule="evenodd" stroke="none"/>
      <path d="M2.6 2.2 L5.95 2.2 6.2 2.65 6.5 2.4 7.75 2.2 13.5 2.2 13.7 2.7 14.15 2.2 15.45 2.2 16.65 2.2 17.15 2.65 17.35 2.2 18.0 2.2 23.15 2.2 Q23.35 2.2 23.4 2.25 23.45 2.25 23.5 2.35 23.5 2.4 23.5 2.55 23.5 2.55 23.5 2.6 L23.5 4.05 22.85 3.8 23.5 4.5 23.5 5.25 22.95 5.25 23.5 6.45 23.5 7.1 23.3 8.15 23.5 7.8 23.5 9.55 22.85 9.85 23.5 10.3 23.5 22.5 23.5 23.15 Q23.5 23.4 23.5 23.4 23.45 23.5 23.4 23.5 23.35 23.5 23.15 23.5 L22.5 23.5 21.85 23.5 20.75 23.5 20.7 22.75 19.95 23.5 16.1 23.5 15.25 23.05 15.2 23.5 14.15 23.5 13.9 23.5 12.75 23.4 12.05 23.5 10.85 23.5 10.7 23.3 10.2 23.55 9.7 23.5 8.85 23.25 8.4 23.5 7.5 23.5 7.25 23.35 6.45 23.5 5.85 23.5 5.2 23.5 4.55 23.5 3.95 23.45 3.25 23.5 2.6 23.5 Q2.6 23.5 2.6 23.5 2.6 23.5 2.6 23.5 2.4 23.5 2.35 23.5 2.3 23.5 2.25 23.45 2.25 23.4 2.25 23.2 2.25 23.2 2.25 23.2 2.25 23.2 2.25 23.2 2.25 23.15 2.25 23.15 L2.25 17.7 3.05 17.5 2.25 16.75 2.25 16.1 2.25 15.45 2.25 14.45 2.65 14.15 2.25 13.9 2.25 10.65 2.65 10.45 2.25 9.9 2.25 9.0 2.25 8.35 2.25 7.7 2.75 7.2 2.25 6.85 2.25 2.6 Q2.25 2.55 2.25 2.55 2.25 2.4 2.25 2.35 2.3 2.25 2.35 2.25 2.4 2.2 2.55 2.2 2.55 2.2 2.6 2.2 2.6 2.2 2.6 2.2 2.6 2.2 2.6 2.2 L2.6 2.2" fill="#000000" fill-rule="evenodd" stroke="none"/>
    </g>
    <g id="shape1" transform="matrix(1.0, 0.0, 0.0, 1.0, 0.0, 0.0)">
      <path d="M11.35 11.85 Q11.4 11.85 11.4 11.85 11.4 11.85 11.45 11.85 11.55 11.85 11.7 11.8 11.85 11.8 12.0 11.7 12.15 11.6 12.3 11.45 12.5 11.3 12.6 11.1 12.75 10.85 12.85 10.6 12.9 10.25 12.95 9.9 12.95 9.45 12.9 9.0 12.85 8.45 12.65 7.85 12.6 7.7 12.55 7.55 12.5 7.4 12.45 7.25 12.4 7.1 12.3 6.95 12.25 6.8 12.15 6.65 12.05 6.5 11.95 6.4 11.85 6.25 11.75 6.15 11.6 6.0 11.45 5.9 11.3 5.8 11.15 5.75 10.9 5.65 10.65 5.55 10.4 5.45 10.15 5.4 9.85 5.35 9.6 5.35 9.35 5.35 9.1 5.4 8.8 5.4 8.55 5.45 8.3 5.5 8.1 5.6 7.85 5.7 7.6 5.85 7.4 5.95 7.2 6.1 6.95 6.3 6.75 6.5 6.5 6.7 6.35 6.9 6.15 7.1 6.0 7.35 5.85 7.55 5.75 7.8 5.65 8.1 5.6 8.35 5.5 8.65 5.45 9.0 5.45 9.3 5.45 9.7 5.45 10.05 5.45 10.5 5.45 10.75 5.55 11.0 5.6 11.2 5.7 11.45 5.8 11.65 5.9 11.85 6.05 12.05 6.2 12.25 6.35 12.45 6.5 12.6 6.7 12.75 6.85 12.9 7.05 13.05 7.25 13.15 7.5 13.25 7.7 13.35 7.9 13.4 8.1 13.45 8.3 13.5 8.45 13.55 8.6 13.55 8.75 13.6 8.9 13.6 9.05 13.6 9.15 13.6 9.25 13.55 9.35 13.55 9.4 13.5 9.5 13.5 9.55 13.45 9.6 13.45 9.6 13.45 9.65 13.45 9.65 13.4 9.7 13.35 9.7 13.3 9.75 13.25 9.75 13.15 9.8 13.1 9.8 13.05 9.85 13.0 9.85 12.95 9.85 12.9 9.85 12.85 9.85 12.8 9.85 12.75 9.85 12.7 9.85 12.7 9.85 12.7 9.85 12.7 9.85 12.65 9.85 12.65 9.85 12.65 9.8 12.7 9.8 12.7 9.8 12.7 9.8 12.7 9.75 12.7 9.75 12.7 9.7 12.75 9.65 12.75 9.6 12.75 9.55 12.75 9.45 12.75 8.9 12.8 8.45 12.7 8.0 12.65 7.65 12.45 7.3 12.3 7.05 12.05 6.85 11.8 6.65 11.5 6.5 11.2 6.4 10.85 6.35 10.55 6.3 10.2 6.3 9.85 6.3 9.5 6.35 9.15 6.4 8.85 6.45 8.6 6.5 8.4 6.6 8.15 6.7 7.95 6.8 7.75 6.9 7.55 7.0 7.4 7.15 7.2 7.3 7.05 7.45 6.9 7.6 6.75 7.8 6.65 8.0 6.55 8.25 6.45 8.45 6.35 8.7 6.3 8.95 6.25 9.2 6.2 9.45 6.2 9.7 6.2 9.95 6.2 10.2 6.3 10.45 6.35 10.65 6.45 10.85 6.55 11.05 6.7 11.2 6.9 11.35 7.1 11.55 7.3 11.65 7.5 11.75 7.75 11.85 8.05 11.95 8.4 12.0 8.7 12.05 9.05 12.05 9.3 12.1 9.55 12.05 9.8 12.0 10.0 11.95 10.2 11.9 10.35 11.8 10.5 11.7 10.65 11.55 10.7 11.45 10.8 11.25 10.85 11.1 10.9 10.95 10.9 L11.35 11.85 M12.0 11.4 Q12.0 11.4 11.75 11.4 11.45 11.35 11.4 11.35 11.35 11.35 11.3 11.3 11.3 11.3 11.25 11.25 11.25 11.25 11.2 11.2 11.2 11.15 11.2 11.15 11.15 11.1 11.15 11.1 11.15 11.1 11.15 11.05 11.15 11.05 11.15 11.05 11.15 11.05 11.15 11.05 L11.15 8.8 Q11.15 8.35 11.1 7.9 10.95 7.55 10.7 7.35 10.45 7.1 10.2 7.0 9.95 6.9 9.65 6.9 9.4 6.9 9.1 6.95 8.9 7.0 8.65 7.05 8.45 7.1 8.25 7.2 8.1 7.3 7.95 7.35 7.9 7.4 7.85 7.4 L7.85 8.35 8.2 8.3 8.5 8.0 Q8.85 7.85 9.1 7.8 9.35 7.75 9.55 7.75 9.75 7.75 9.85 7.8 10.0 7.8 10.05 7.9 10.15 7.95 10.15 8.05 10.2 8.15 10.2 8.2 10.2 8.3 10.2 8.35 10.2 8.35 10.2 8.4 L9.05 8.45 Q9.05 8.45 9.0 8.45 8.9 8.5 8.85 8.5 8.75 8.55 8.65 8.6 8.5 8.65 8.4 8.7 8.25 8.75 8.15 8.85 8.0 8.9 7.9 9.0 7.75 9.1 7.65 9.2 7.55 9.35 7.5 9.45 7.4 9.7 7.35 9.95 7.25 10.15 7.25 10.35 7.25 10.55 7.25 10.7 7.25 10.85 7.3 11.0 7.3 11.1 7.35 11.2 7.4 11.3 7.45 11.4 7.45 11.45 7.5 11.5 7.5 11.5 7.5 11.5 7.65 11.65 7.8 11.75 7.95 11.85 8.1 11.95 8.25 12.0 8.4 12.0 8.55 12.0 8.7 12.0 8.8 12.0 8.95 12.0 9.05 11.95 9.15 11.95 9.2 11.9 9.25 11.9 9.3 11.9 9.3 11.9 L10.1 11.4 10.1 11.75 10.2 11.85 11.4 11.85 12.0 11.45 12.0 11.4 M9.8 10.25 L9.3 10.7 Q9.3 10.7 9.25 10.75 9.15 10.8 9.1 10.8 9.0 10.85 8.9 10.9 8.8 10.95 8.7 10.95 8.55 10.95 8.5 10.9 8.4 10.85 8.3 10.75 8.25 10.6 8.25 10.4 8.25 10.15 8.3 9.85 8.3 9.85 8.3 9.8 8.35 9.75 8.4 9.7 8.45 9.65 8.5 9.6 8.6 9.5 8.7 9.45 8.8 9.4 8.85 9.35 9.0 9.3 9.1 9.3 9.2 9.25 9.3 9.3 9.45 9.3 9.55 9.4 9.55 9.4 9.55 9.4 9.55 9.35 9.55 9.35 9.5 9.3 9.5 9.25 9.55 9.25 9.55 9.2 9.55 9.15 9.6 9.15 9.65 9.1 9.7 9.05 9.8 9.05 9.9 9.05 10.05 9.0 10.2 9.0 L10.2 10.25 9.8 10.25" fill="#f1edf8" fill-rule="evenodd" stroke="none"/>
    </g>
    <g id="shape2" transform="matrix(1.0, 0.0, 0.0, 1.0, 0.0, 0.0)">
      <path d="M13.8 10.45 Q13.7 10.8 13.7 11.1 13.7 11.4 13.8 11.65 13.9 11.85 14.05 12.05 14.2 12.2 14.4 12.35 14.55 12.5 14.75 12.6 14.9 12.65 15.05 12.7 15.15 12.75 15.25 12.75 15.3 12.8 15.3 12.75 15.25 12.7 15.2 12.65 15.2 12.6 15.15 12.55 15.15 12.5 15.15 12.4 15.15 12.35 15.15 12.3 15.15 12.2 15.15 12.15 15.2 12.1 15.2 12.05 15.2 12.0 15.2 11.95 15.2 11.95 15.25 11.95 15.35 11.55 15.5 11.2 15.65 10.9 15.8 10.6 16.0 10.4 16.15 10.2 16.35 10.05 16.5 9.95 16.7 9.85 16.85 9.75 17.0 9.7 17.15 9.7 17.2 9.65 17.3 9.65 17.35 9.65 17.4 9.65 17.6 9.65 17.75 9.65 17.9 9.65 18.05 9.7 18.15 9.7 18.3 9.75 18.4 9.75 18.5 9.8 18.6 9.85 18.7 9.9 18.75 9.95 18.85 10.0 18.9 10.1 19.0 10.15 19.05 10.2 19.15 10.3 19.25 10.4 19.35 10.6 19.45 10.7 19.55 10.9 19.6 11.05 19.65 11.25 19.65 11.4 19.7 11.6 19.7 11.75 19.7 11.95 19.7 12.1 19.7 12.3 19.65 12.45 19.65 12.65 19.6 12.8 19.55 12.95 19.5 13.1 19.45 13.25 19.4 13.4 19.3 13.55 19.25 13.65 19.2 13.8 19.1 13.9 19.05 14.05 18.95 14.15 18.9 14.25 18.85 14.3 18.75 14.45 18.65 14.55 18.65 14.6 18.55 14.7 18.5 14.8 18.25 15.2 17.3 16.3 17.2 16.4 15.6 18.0 13.85 19.75 13.45 20.2 L13.45 21.7 21.0 21.7 21.55 18.6 20.2 18.6 Q20.15 18.7 20.1 18.85 20.05 18.95 20.0 19.05 19.95 19.15 19.9 19.2 19.85 19.3 19.8 19.35 19.75 19.45 19.7 19.5 19.65 19.55 19.6 19.6 19.55 19.65 19.5 19.7 19.45 19.75 19.4 19.8 19.35 19.85 19.3 19.85 19.2 19.9 19.15 19.95 19.05 19.95 18.95 20.0 18.85 20.0 18.75 20.05 18.65 20.05 18.55 20.05 18.45 20.05 18.35 20.1 18.25 20.1 18.1 20.1 18.0 20.1 17.9 20.1 L16.5 20.1 Q16.75 19.8 17.45 19.05 L19.45 16.75 Q19.45 16.7 19.6 16.6 19.75 16.4 19.85 16.3 20.0 16.1 20.15 15.9 20.3 15.65 20.5 15.4 20.65 15.15 20.8 14.9 21.0 14.6 21.15 14.3 21.3 14.0 21.4 13.75 21.5 13.45 21.55 13.15 21.6 12.95 21.6 12.7 21.65 12.45 21.65 12.2 21.65 11.95 21.6 11.65 21.6 11.35 21.55 11.1 21.5 10.8 21.45 10.5 21.35 10.2 21.25 9.95 21.1 9.7 20.95 9.45 20.8 9.2 20.6 9.0 20.45 8.85 20.3 8.75 20.1 8.6 19.95 8.5 19.75 8.4 19.6 8.3 19.4 8.2 19.2 8.15 19.0 8.05 18.8 8.0 18.6 7.9 18.4 7.9 18.15 7.85 17.95 7.8 17.75 7.8 17.55 7.8 17.15 7.8 16.8 7.85 16.45 7.9 16.1 8.0 15.8 8.1 15.55 8.2 15.25 8.35 15.05 8.55 14.8 8.7 14.65 8.9 14.45 9.1 14.3 9.35 14.15 9.6 14.0 9.9 13.9 10.15 13.8 10.45 L13.8 10.45" fill="#f1edf8" fill-rule="evenodd" stroke="none"/>
    </g>
  </defs>
</svg>
