<?xml version="1.0" encoding="UTF-8" standalone="no"?>
<svg xmlns:ffdec="https://www.free-decompiler.com/flash" xmlns:xlink="http://www.w3.org/1999/xlink" ffdec:objectType="frame" height="26.55px" width="70.8px" xmlns="http://www.w3.org/2000/svg">
  <g transform="matrix(1.0, 0.0, 0.0, 1.0, 0.2, 0.4)">
    <use ffdec:characterId="3" height="26.0" transform="matrix(1.0, 0.0, 0.0, 1.0, 0.0, 0.0)" width="26.0" xlink:href="#shape0"/>
    <use ffdec:characterId="44" height="26.0" transform="matrix(1.0, 0.0, 0.0, 1.0, 0.0, 0.0)" width="26.0" xlink:href="#shape1"/>
    <use ffdec:characterId="44" height="26.0" transform="matrix(1.0, 0.0, 0.0, 1.0, 0.0, 0.0)" width="26.0" xlink:href="#shape1"/>
  </g>
  <defs>
    <g id="shape0" transform="matrix(1.0, 0.0, 0.0, 1.0, 0.0, 0.0)">
      <path d="M23.5 2.45 Q23.5 2.5 23.5 2.5 23.5 2.55 23.5 2.55 23.5 2.55 23.5 2.55 23.5 2.6 23.5 2.6 L23.5 4.05 22.85 3.8 23.5 4.5 23.5 5.25 22.95 5.25 23.5 6.45 23.5 7.1 23.3 8.15 23.5 7.8 23.5 9.55 22.85 9.85 23.15 10.05 23.75 9.8 23.75 8.05 23.5 8.4 23.75 7.35 23.75 6.7 23.2 5.5 23.75 5.5 23.75 4.75 23.1 4.05 23.75 4.3 23.75 2.85 Q23.75 2.8 23.75 2.8 23.75 2.7 23.75 2.65 23.75 2.55 23.7 2.55 23.7 2.5 23.65 2.5 23.6 2.5 23.5 2.45 L23.5 2.45 M23.5 10.4 L23.5 22.5 23.5 23.15 Q23.5 23.4 23.5 23.4 23.45 23.5 23.4 23.5 23.35 23.5 23.15 23.5 L22.5 23.5 21.85 23.5 20.95 23.5 21.0 23.75 22.1 23.75 22.75 23.75 23.4 23.75 Q23.65 23.75 23.7 23.75 23.75 23.7 23.75 23.4 L23.75 22.75 23.75 10.55 23.5 10.4 M20.7 22.75 L19.95 23.5 16.1 23.5 15.25 23.05 15.2 23.5 14.15 23.5 13.9 23.5 12.75 23.4 12.05 23.5 10.85 23.5 10.7 23.3 10.2 23.55 9.7 23.5 8.85 23.25 8.4 23.5 7.5 23.5 7.25 23.35 6.45 23.5 5.85 23.5 5.2 23.5 4.55 23.5 3.95 23.45 3.25 23.5 2.85 23.5 Q2.85 23.55 2.85 23.6 2.85 23.65 2.85 23.7 2.8 23.7 2.8 23.75 2.85 23.75 2.85 23.75 2.85 23.75 2.85 23.75 L3.5 23.75 4.2 23.7 4.8 23.75 5.45 23.75 6.05 23.75 6.7 23.75 7.45 23.6 7.75 23.75 8.65 23.75 9.1 23.5 9.9 23.75 10.45 23.8 10.95 23.55 11.1 23.75 12.3 23.75 13.0 23.65 14.1 23.75 14.4 23.75 15.4 23.75 15.5 23.3 16.35 23.75 20.15 23.75 20.75 23.2 20.7 22.75" fill="#ffffff" fill-rule="evenodd" stroke="none"/>
      <path d="M2.6 2.2 L5.95 2.2 6.2 2.65 6.5 2.4 7.75 2.2 13.5 2.2 13.7 2.7 14.15 2.2 15.45 2.2 16.65 2.2 17.15 2.65 17.35 2.2 18.0 2.2 23.15 2.2 Q23.35 2.2 23.4 2.25 23.45 2.25 23.5 2.35 23.5 2.4 23.5 2.55 23.5 2.55 23.5 2.6 L23.5 4.05 22.85 3.8 23.5 4.5 23.5 5.25 22.95 5.25 23.5 6.45 23.5 7.1 23.3 8.15 23.5 7.8 23.5 9.55 22.85 9.85 23.5 10.3 23.5 22.5 23.5 23.15 Q23.5 23.4 23.5 23.4 23.45 23.5 23.4 23.5 23.35 23.5 23.15 23.5 L22.5 23.5 21.85 23.5 20.75 23.5 20.7 22.75 19.95 23.5 16.1 23.5 15.25 23.05 15.2 23.5 14.15 23.5 13.9 23.5 12.75 23.4 12.05 23.5 10.85 23.5 10.7 23.3 10.2 23.55 9.7 23.5 8.85 23.25 8.4 23.5 7.5 23.5 7.25 23.35 6.45 23.5 5.85 23.5 5.2 23.5 4.55 23.5 3.95 23.45 3.25 23.5 2.6 23.5 Q2.6 23.5 2.6 23.5 2.6 23.5 2.6 23.5 2.4 23.5 2.35 23.5 2.3 23.5 2.25 23.45 2.25 23.4 2.25 23.2 2.25 23.2 2.25 23.2 2.25 23.2 2.25 23.2 2.25 23.15 2.25 23.15 L2.25 17.7 3.05 17.5 2.25 16.75 2.25 16.1 2.25 15.45 2.25 14.45 2.65 14.15 2.25 13.9 2.25 10.65 2.65 10.45 2.25 9.9 2.25 9.0 2.25 8.35 2.25 7.7 2.75 7.2 2.25 6.85 2.25 2.6 Q2.25 2.55 2.25 2.55 2.25 2.4 2.25 2.35 2.3 2.25 2.35 2.25 2.4 2.2 2.55 2.2 2.55 2.2 2.6 2.2 2.6 2.2 2.6 2.2 2.6 2.2 2.6 2.2 L2.6 2.2" fill="#000000" fill-rule="evenodd" stroke="none"/>
    </g>
    <g id="shape1" transform="matrix(1.0, 0.0, 0.0, 1.0, 0.0, 0.0)">
      <path d="M19.45 18.55 L19.0 17.75 12.85 5.25 6.3 19.1 Q5.9 19.75 5.8 19.85 L5.8 20.75 8.5 20.75 9.0 20.75 9.0 19.85 Q9.0 19.85 9.0 19.85 9.0 19.85 9.0 19.85 8.95 19.85 8.95 19.8 8.95 19.8 8.95 19.75 8.9 19.7 8.9 19.65 8.9 19.6 8.9 19.55 8.9 19.5 8.9 19.4 8.95 19.3 8.95 19.2 L9.9 17.3 13.95 17.15 Q13.95 17.15 14.0 17.15 14.05 17.15 14.1 17.15 14.2 17.15 14.3 17.15 14.4 17.15 14.55 17.15 14.7 17.15 14.85 17.15 15.0 17.15 15.15 17.1 15.3 17.1 15.45 17.1 15.6 17.05 15.75 17.0 L16.55 18.05 Q16.7 18.25 16.8 18.4 16.9 18.6 17.0 18.75 17.05 18.9 17.05 19.05 17.1 19.2 17.1 19.35 17.1 19.45 17.1 19.55 17.05 19.65 17.05 19.7 17.05 19.8 17.0 19.8 17.0 19.85 17.0 19.85 L17.0 20.75 17.6 20.75 20.2 20.75 20.2 19.85 Q20.05 19.7 19.45 18.55 L19.45 18.55 M15.45 14.85 L15.05 14.85 14.9 14.85 14.7 14.85 14.5 15.15 14.05 14.75 Q13.7 14.75 13.6 14.75 13.35 14.7 12.75 14.7 12.75 14.7 12.7 14.75 12.65 14.75 12.6 14.8 12.55 14.85 12.45 14.95 12.35 15.0 12.2 15.1 12.1 15.15 11.95 15.25 11.75 15.3 11.55 15.4 11.35 15.45 11.15 15.5 10.9 15.55 10.65 15.6 L12.05 12.15 12.0 11.9 11.9 11.8 11.9 11.75 11.8 11.65 Q11.85 11.55 11.85 11.55 11.9 11.5 11.9 11.5 11.95 11.45 11.95 11.5 11.95 11.5 12.0 11.55 12.0 11.55 12.05 11.6 12.05 11.65 12.05 11.65 12.1 11.65 12.1 11.7 12.1 11.7 12.15 11.7 12.15 11.75 12.2 11.75 12.2 11.8 12.2 11.8 L12.95 10.05 14.85 14.4 15.1 14.45 Q15.0 14.65 14.9 14.85 L15.05 14.85 15.45 14.5 Q15.45 14.55 15.45 14.6 15.45 14.65 15.45 14.65 15.5 14.7 15.5 14.7 15.55 14.7 15.55 14.75 15.55 14.75 15.6 14.75 15.6 14.75 15.6 14.75 15.6 14.75 15.6 14.75 L15.45 14.85" fill="#f1edf8" fill-rule="evenodd" stroke="none"/>
    </g>
  </defs>
</svg>
