<?xml version="1.0" encoding="UTF-8" standalone="no"?>
<svg xmlns:ffdec="https://www.free-decompiler.com/flash" xmlns:xlink="http://www.w3.org/1999/xlink" ffdec:objectType="frame" height="26.55px" width="70.8px" xmlns="http://www.w3.org/2000/svg">
  <g transform="matrix(1.0, 0.0, 0.0, 1.0, 0.2, 0.4)">
    <use ffdec:characterId="1" height="26.0" transform="matrix(1.0, 0.0, 0.0, 1.0, 0.0, 0.0)" width="35.75" xlink:href="#shape0"/>
    <use ffdec:characterId="143" height="12.95" transform="matrix(1.0, 0.0, 0.0, 1.0, 4.5, 6.0)" width="32.45" xlink:href="#shape1"/>
    <use ffdec:characterId="143" height="12.95" transform="matrix(1.0, 0.0, 0.0, 1.0, 3.7, 5.4)" width="32.45" xlink:href="#shape1"/>
  </g>
  <defs>
    <g id="shape0" transform="matrix(1.0, 0.0, 0.0, 1.0, 0.0, 0.0)">
      <path d="M33.35 2.45 Q33.35 2.5 33.35 2.55 33.35 2.55 33.35 2.6 L33.35 4.05 32.7 3.8 33.35 4.5 33.35 5.25 32.8 5.25 33.35 6.45 33.35 7.1 33.1 8.15 33.35 7.8 33.35 9.55 32.7 9.85 33.0 10.05 33.6 9.8 33.6 8.05 33.35 8.4 33.6 7.35 33.6 6.7 33.05 5.5 33.6 5.5 33.6 4.75 32.95 4.05 33.6 4.3 33.6 2.85 Q33.6 2.8 33.6 2.8 33.6 2.7 33.6 2.65 33.55 2.55 33.55 2.55 33.5 2.5 33.45 2.5 33.45 2.5 33.35 2.45 L33.35 2.45 M33.35 10.4 L33.35 22.5 33.35 23.15 Q33.35 23.4 33.35 23.4 33.3 23.5 33.25 23.5 33.2 23.5 33.0 23.5 L32.35 23.5 31.7 23.5 30.8 23.5 30.85 23.75 31.95 23.75 32.6 23.75 33.2 23.75 Q33.45 23.75 33.45 23.75 33.55 23.75 33.55 23.65 33.55 23.65 33.6 23.4 L33.6 22.75 33.6 10.55 33.35 10.4 33.35 10.4 M30.55 22.75 L29.75 23.5 25.95 23.5 25.1 23.05 25.0 23.5 24.0 23.5 23.7 23.5 22.6 23.4 21.9 23.5 20.7 23.5 20.55 23.3 20.05 23.55 9.6 23.5 8.75 23.25 8.3 23.5 7.45 23.5 7.15 23.35 6.4 23.5 5.75 23.5 5.1 23.5 4.45 23.5 3.85 23.45 3.15 23.5 2.75 23.5 Q2.75 23.55 2.75 23.65 2.75 23.7 2.75 23.75 2.75 23.75 2.75 23.75 2.75 23.75 2.75 23.75 L3.4 23.75 4.1 23.7 4.7 23.75 5.35 23.75 5.95 23.75 6.6 23.75 7.4 23.6 7.65 23.75 8.55 23.75 18.95 23.75 19.75 23.75 20.3 23.8 20.8 23.55 20.9 23.75 22.15 23.75 22.85 23.65 23.95 23.75 24.25 23.75 25.25 23.75 25.35 23.3 26.15 23.75 30.0 23.75 30.55 23.2 30.55 22.75 30.55 22.75" fill="#ffffff" fill-rule="evenodd" stroke="none"/>
      <path d="M2.55 2.2 L5.85 2.2 6.1 2.65 6.4 2.4 7.65 2.2 13.45 2.2 13.6 2.7 14.05 2.2 15.35 2.2 26.5 2.2 27.0 2.65 27.2 2.2 27.85 2.2 33.0 2.2 Q33.2 2.2 33.25 2.25 33.3 2.25 33.35 2.35 33.35 2.4 33.35 2.55 33.35 2.55 33.35 2.6 L33.35 4.05 32.7 3.8 33.35 4.5 33.35 5.25 32.8 5.25 33.35 6.45 33.35 7.1 33.1 8.15 33.35 7.8 33.35 9.55 32.7 9.85 33.35 10.3 33.35 22.5 33.35 23.15 Q33.35 23.4 33.35 23.4 33.3 23.5 33.25 23.5 33.2 23.5 33.0 23.5 L32.35 23.5 31.7 23.5 30.6 23.5 30.5 22.75 29.75 23.5 25.95 23.5 25.1 23.05 25.0 23.5 24.0 23.5 23.7 23.5 22.6 23.4 21.9 23.5 20.7 23.5 20.55 23.3 20.05 23.55 9.6 23.5 8.75 23.25 8.3 23.5 7.45 23.5 7.15 23.35 6.4 23.5 5.75 23.5 5.1 23.5 4.45 23.5 3.85 23.45 3.15 23.5 2.55 23.5 Q2.5 23.5 2.5 23.5 2.5 23.5 2.5 23.5 2.3 23.5 2.25 23.5 2.2 23.5 2.15 23.45 2.15 23.4 2.2 23.2 2.2 23.2 2.15 23.2 2.15 23.2 2.15 23.2 2.15 23.15 2.15 23.15 L2.15 17.7 2.95 17.5 2.15 16.75 2.15 16.1 2.15 15.45 2.15 14.45 2.6 14.15 2.15 13.9 2.15 10.65 2.55 10.45 2.15 9.9 2.15 9.0 2.15 8.35 2.15 7.7 2.65 7.2 2.15 6.85 2.15 2.6 Q2.15 2.55 2.15 2.55 2.15 2.4 2.2 2.35 2.2 2.25 2.25 2.25 2.3 2.2 2.45 2.2 2.5 2.2 2.5 2.2 2.5 2.2 2.5 2.2 2.5 2.2 2.55 2.2 2.55 2.2 2.55 2.2 L2.55 2.2" fill="#000000" fill-rule="evenodd" stroke="none"/>
    </g>
    <g id="shape1" transform="matrix(1.0, 0.0, 0.0, 1.0, 0.0, 0.0)">
      <path d="M9.05 4.15 L9.3 4.15 9.35 4.05 9.75 4.05 9.75 3.5 7.6 3.5 4.95 7.25 2.35 3.5 0.15 3.5 0.15 4.15 Q0.2 4.15 0.25 4.2 0.25 4.2 0.3 4.25 0.35 4.3 0.35 4.35 0.4 4.4 0.4 4.45 0.4 4.5 0.4 4.55 0.45 4.6 0.45 4.65 0.45 4.7 0.45 4.7 0.45 4.75 0.45 4.75 L0.45 11.35 Q0.45 11.5 0.45 11.65 0.4 11.75 0.4 11.85 0.35 11.95 0.3 12.05 0.25 12.1 0.2 12.15 0.2 12.2 0.15 12.25 0.1 12.25 0.05 12.3 0.05 12.3 0.0 12.35 0.0 12.35 0.0 12.35 L0.0 12.95 2.25 12.95 2.25 12.35 Q2.2 12.35 2.1 12.3 2.05 12.25 2.0 12.15 2.0 12.05 1.95 11.95 1.9 11.9 1.9 11.8 1.9 11.7 1.9 11.6 1.85 11.5 1.85 11.45 1.85 11.35 1.85 11.3 1.85 11.3 1.85 11.25 L1.85 10.8 Q1.85 10.8 1.8 10.8 1.75 10.85 1.75 10.85 1.7 10.85 1.65 10.9 1.55 10.9 1.55 10.85 1.6 10.8 1.6 10.8 L1.65 10.75 1.65 10.7 1.75 10.7 1.85 10.55 1.85 5.95 1.95 5.95 4.85 9.85 7.7 5.95 7.75 5.95 7.75 11.35 Q7.75 11.5 7.75 11.65 7.75 11.75 7.7 11.85 7.7 11.95 7.65 12.05 7.65 12.1 7.6 12.15 7.55 12.2 7.55 12.25 7.5 12.25 7.5 12.3 7.45 12.3 7.45 12.3 7.45 12.3 7.45 12.3 L7.45 12.95 9.75 12.95 9.75 12.3 Q9.7 12.3 9.65 12.25 9.6 12.2 9.55 12.1 9.55 12.05 9.5 11.95 9.45 11.9 9.45 11.8 9.45 11.7 9.4 11.65 9.4 11.55 9.4 11.5 9.4 11.45 9.4 11.4 9.4 11.4 9.4 11.4 L9.4 7.25 9.25 7.25 9.25 7.1 9.1 7.1 9.15 7.05 9.05 7.0 9.0 6.95 8.9 6.8 9.0 6.85 9.1 6.75 9.15 6.85 9.2 6.8 9.45 6.75 9.45 4.35 9.45 4.2 9.4 4.25 9.2 4.25 9.15 4.3 8.9 4.3 9.05 4.2 9.05 4.15 M6.25 7.7 L6.05 7.65 6.05 7.6 5.95 7.55 6.0 7.4 6.2 7.45 6.25 7.55 6.3 7.55 6.25 7.7" fill="#f1edf8" fill-rule="evenodd" stroke="none"/>
      <path d="M13.75 7.3 Q13.45 7.3 13.15 7.35 12.85 7.4 12.6 7.45 12.35 7.55 12.1 7.7 11.85 7.85 11.65 8.0 11.4 8.2 11.25 8.4 11.1 8.65 10.95 8.9 10.85 9.15 10.8 9.45 10.7 9.75 10.7 10.1 10.7 10.45 10.75 10.75 10.85 11.05 10.95 11.3 11.1 11.55 11.25 11.8 11.4 12.0 11.65 12.2 11.85 12.35 12.1 12.5 12.3 12.65 12.6 12.75 12.85 12.85 13.15 12.9 13.45 12.95 13.75 12.95 14.05 12.95 14.3 12.9 14.6 12.85 14.85 12.8 15.15 12.7 15.35 12.55 15.6 12.45 15.8 12.25 16.0 12.1 16.2 11.9 16.35 11.65 16.45 11.4 16.6 11.1 16.65 10.8 16.7 10.45 16.7 10.1 16.7 9.75 16.65 9.45 16.6 9.15 16.45 8.9 16.35 8.65 16.2 8.4 16.0 8.2 15.8 8.0 15.6 7.8 15.35 7.7 15.1 7.55 14.85 7.45 14.6 7.35 14.3 7.3 14.0 7.3 13.75 7.3 L13.75 7.3 M13.75 11.8 Q13.55 11.8 13.35 11.75 13.2 11.75 13.0 11.65 12.85 11.6 12.75 11.5 12.6 11.4 12.5 11.3 12.4 11.15 12.35 11.0 12.25 10.9 12.2 10.75 12.15 10.6 12.15 10.4 12.1 10.25 12.1 10.1 12.1 9.95 12.15 9.8 12.15 9.6 12.2 9.45 12.3 9.3 12.35 9.15 12.45 9.05 12.55 8.9 12.65 8.8 12.8 8.7 12.95 8.6 13.1 8.5 13.25 8.45 13.4 8.4 13.55 8.35 13.75 8.35 13.95 8.35 14.1 8.4 14.25 8.4 14.4 8.5 14.55 8.55 14.7 8.65 14.8 8.75 14.9 8.85 15.05 9.0 15.1 9.15 15.2 9.25 15.25 9.4 15.3 9.55 15.35 9.75 15.4 9.9 15.4 10.1 15.4 10.25 15.35 10.45 15.35 10.6 15.3 10.75 15.2 10.9 15.15 11.05 15.05 11.2 14.95 11.3 14.85 11.45 14.7 11.5 14.6 11.6 14.45 11.7 14.3 11.75 14.1 11.8 13.9 11.8 13.75 11.8 L13.75 11.8" fill="#f1edf8" fill-rule="evenodd" stroke="none"/>
      <path d="M20.6 7.35 L20.6 7.65 Q20.65 7.65 20.7 7.7 20.7 7.75 20.75 7.8 20.75 7.8 20.75 7.85 20.8 7.9 20.8 7.9 20.8 7.95 20.8 7.95 20.8 8.0 20.8 8.0 20.8 8.0 20.8 7.95 L20.8 10.45 20.8 10.55 Q20.8 10.6 20.8 10.65 20.8 10.7 20.8 10.75 20.8 10.75 20.8 10.8 20.8 10.9 20.75 10.95 20.75 11.05 20.7 11.15 20.7 11.25 20.65 11.35 20.6 11.45 20.55 11.5 20.5 11.6 20.4 11.7 20.35 11.75 20.2 11.8 20.1 11.85 20.0 11.9 19.85 11.9 19.65 11.9 19.65 11.9 19.6 11.9 19.55 11.9 19.5 11.9 19.4 11.9 19.35 11.85 19.25 11.8 19.15 11.75 19.05 11.7 18.95 11.6 18.85 11.5 18.8 11.35 18.7 11.2 18.7 11.0 18.65 10.8 18.65 10.55 L18.65 8.0 Q18.65 8.0 18.65 8.0 18.65 7.95 18.65 7.95 18.65 7.95 18.65 7.9 18.65 7.9 18.65 7.85 18.65 7.8 18.65 7.8 18.7 7.75 18.7 7.75 18.75 7.7 18.75 7.7 18.8 7.65 18.85 7.65 L18.85 7.35 17.35 7.35 17.35 7.65 Q17.35 7.65 17.35 7.65 17.4 7.65 17.4 7.7 17.4 7.7 17.45 7.7 17.45 7.75 17.5 7.75 17.5 7.8 17.5 7.8 17.55 7.85 17.55 7.9 17.55 7.95 17.6 8.0 17.6 8.05 17.6 8.1 17.6 9.6 17.55 11.05 17.55 11.05 17.55 11.15 17.6 11.25 17.6 11.35 17.65 11.5 17.7 11.65 17.75 11.85 17.85 12.0 17.95 12.2 18.1 12.35 18.25 12.5 18.45 12.65 18.7 12.8 18.95 12.85 19.25 12.95 19.6 12.95 20.0 12.95 20.3 12.85 20.6 12.8 20.85 12.65 21.05 12.55 21.25 12.35 21.4 12.2 21.5 12.05 21.6 11.85 21.7 11.7 21.75 11.55 21.75 11.4 21.8 11.3 21.8 11.2 21.8 11.15 21.8 11.1 L21.75 11.1 21.8 11.0 21.8 10.95 Q21.8 10.95 21.8 9.65 21.8 8.35 21.8 8.1 21.8 8.05 21.8 8.0 21.8 7.95 21.85 7.9 21.85 7.85 21.9 7.8 21.9 7.8 21.9 7.75 21.95 7.75 21.95 7.7 22.0 7.7 22.0 7.7 22.0 7.7 22.0 7.65 22.05 7.65 22.05 7.65 L22.05 7.35 20.6 7.35" fill="#f1edf8" fill-rule="evenodd" stroke="none"/>
      <path d="M26.45 11.15 Q26.45 10.95 26.4 10.8 26.35 10.65 26.3 10.5 26.25 10.4 26.15 10.3 26.1 10.2 26.0 10.15 25.95 10.1 25.85 10.05 25.8 10.0 25.75 9.95 25.7 9.95 25.65 9.95 25.65 9.95 25.6 9.9 25.1 9.8 24.6 9.65 24.4 9.6 24.3 9.5 24.15 9.45 24.05 9.35 23.95 9.25 23.9 9.2 23.85 9.1 23.85 9.05 23.8 8.95 23.8 8.9 23.8 8.85 23.8 8.8 23.8 8.75 23.8 8.7 23.8 8.7 23.8 8.7 23.9 8.5 24.0 8.4 24.1 8.3 24.25 8.2 24.4 8.15 24.55 8.15 24.7 8.15 24.9 8.15 25.05 8.15 25.2 8.2 25.3 8.25 25.45 8.3 25.5 8.3 25.6 8.35 25.6 8.35 25.65 8.35 L26.15 8.35 26.15 7.6 Q25.95 7.5 25.7 7.4 25.5 7.3 25.25 7.3 25.05 7.25 24.9 7.25 24.7 7.2 24.55 7.25 24.4 7.25 24.25 7.25 24.1 7.3 24.0 7.3 23.95 7.3 23.9 7.35 23.85 7.35 23.85 7.35 23.65 7.4 23.5 7.5 23.4 7.6 23.25 7.7 23.15 7.8 23.1 7.9 23.0 8.05 22.95 8.15 22.9 8.25 22.9 8.35 22.85 8.45 22.85 8.55 22.85 8.6 22.8 8.65 22.8 8.7 22.8 8.7 22.8 8.9 22.85 9.1 22.9 9.3 22.95 9.45 23.05 9.6 23.15 9.7 23.2 9.85 23.3 9.95 23.4 10.0 23.5 10.1 23.55 10.15 23.65 10.2 23.7 10.25 23.75 10.3 23.8 10.3 23.8 10.3 L23.95 10.3 24.0 10.2 24.05 10.2 24.15 10.1 24.35 10.1 Q24.15 10.25 24.0 10.4 24.3 10.45 24.5 10.5 24.75 10.6 24.9 10.65 25.05 10.7 25.15 10.8 25.25 10.85 25.35 10.9 25.4 11.0 25.4 11.05 25.45 11.1 25.45 11.15 25.45 11.2 25.45 11.2 25.45 11.25 25.45 11.25 25.45 11.35 25.4 11.5 25.35 11.55 25.3 11.65 25.2 11.7 25.1 11.8 25.05 11.85 24.95 11.85 24.85 11.9 24.75 11.9 24.65 11.95 24.55 11.95 24.5 11.95 24.45 11.95 24.4 11.95 24.4 11.95 24.25 11.95 24.05 11.9 23.95 11.85 23.8 11.8 23.7 11.75 23.6 11.7 23.5 11.65 23.45 11.6 23.4 11.55 23.35 11.45 23.3 11.4 23.3 11.35 23.25 11.35 23.25 11.3 23.25 11.3 23.25 11.25 L22.7 11.25 22.7 12.15 Q22.75 12.3 22.9 12.4 23.0 12.5 23.1 12.6 23.25 12.7 23.4 12.75 23.55 12.8 23.7 12.85 23.85 12.85 24.0 12.9 24.1 12.9 24.2 12.9 24.3 12.95 24.4 12.95 24.4 12.95 24.45 12.95 24.65 12.95 24.85 12.95 25.0 12.9 25.15 12.85 25.3 12.85 25.45 12.8 25.55 12.75 25.65 12.65 25.75 12.6 25.8 12.55 25.9 12.5 25.95 12.45 25.95 12.45 26.0 12.4 26.0 12.4 26.0 12.35 26.1 12.2 26.15 12.1 26.25 12.0 26.3 11.85 26.35 11.75 26.35 11.65 26.4 11.6 26.4 11.5 26.45 11.4 26.45 11.35 26.45 11.3 26.45 11.25 26.45 11.2 26.45 11.2 26.45 11.2 26.45 11.15 L26.45 11.15" fill="#f1edf8" fill-rule="evenodd" stroke="none"/>
      <path d="M29.8 11.75 Q29.8 11.75 29.75 11.75 29.65 11.75 29.6 11.7 29.5 11.7 29.35 11.65 29.25 11.6 29.1 11.55 29.0 11.45 28.85 11.4 28.75 11.25 28.65 11.15 28.55 11.0 28.5 10.85 28.4 10.65 28.4 10.45 28.4 10.4 28.35 10.4 28.35 10.35 28.35 10.3 L29.15 10.3 30.9 10.25 Q30.9 10.25 30.95 10.25 31.0 10.25 31.05 10.25 31.1 10.25 31.2 10.25 31.3 10.2 31.35 10.2 31.45 10.15 31.55 10.15 31.65 10.1 31.75 10.05 31.8 10.0 31.9 9.9 31.95 9.85 32.0 9.75 L32.3 8.85 Q32.3 8.85 32.35 8.6 32.4 8.3 32.4 8.1 32.4 8.1 32.4 8.1 32.4 8.1 32.4 8.15 32.35 8.15 32.35 8.15 32.3 8.2 32.3 8.2 32.25 8.2 32.2 8.2 32.2 8.2 32.15 8.15 32.1 8.1 32.05 8.05 32.0 7.95 31.95 7.85 31.9 7.7 31.75 7.55 31.65 7.45 31.5 7.35 31.4 7.3 31.25 7.2 31.1 7.15 30.95 7.1 30.8 7.1 30.65 7.05 30.55 7.05 30.45 7.0 30.35 7.0 30.3 7.0 30.25 7.0 30.2 7.0 29.8 7.0 29.45 7.05 29.15 7.1 28.85 7.25 28.6 7.35 28.35 7.55 28.1 7.7 27.95 7.9 27.75 8.1 27.65 8.3 27.5 8.5 27.4 8.7 27.35 8.9 27.3 9.1 27.25 9.25 27.25 9.4 L26.85 9.55 Q26.9 9.6 26.9 9.65 26.95 9.7 26.95 9.75 26.95 9.8 26.95 9.85 27.0 10.0 27.0 9.95 27.0 10.0 27.0 10.05 27.0 10.1 27.05 10.1 27.05 10.15 27.1 10.15 27.15 10.2 27.2 10.2 L27.15 10.15 27.2 10.2 27.2 10.15 27.2 10.15 27.3 10.15 27.3 10.1 27.35 10.1 27.35 10.15 27.3 10.2 27.25 10.2 27.25 10.2 27.2 10.2 Q27.2 10.25 27.2 10.3 27.2 10.8 27.35 11.2 27.45 11.55 27.7 11.85 27.9 12.1 28.15 12.3 28.4 12.5 28.7 12.65 28.95 12.75 29.2 12.8 29.45 12.9 29.7 12.9 29.85 12.95 30.0 12.95 30.05 12.95 30.15 12.95 30.45 12.95 30.7 12.9 30.95 12.85 31.15 12.8 31.3 12.7 31.5 12.65 31.65 12.55 31.75 12.5 31.85 12.4 31.95 12.3 32.0 12.25 32.05 12.2 32.1 12.15 32.15 12.1 32.15 12.05 32.15 12.05 L32.15 10.9 31.6 10.95 Q31.55 11.1 31.45 11.25 31.35 11.35 31.2 11.45 31.05 11.55 30.9 11.6 30.75 11.65 30.6 11.7 30.45 11.7 30.3 11.75 30.15 11.75 30.05 11.75 29.95 11.75 29.85 11.75 29.85 11.75 29.8 11.75 L29.8 11.75 M30.05 7.85 Q30.05 7.85 30.1 7.85 30.15 7.85 30.25 7.85 30.35 7.9 30.4 7.9 30.55 7.95 30.65 8.0 30.75 8.05 30.85 8.15 30.95 8.25 31.0 8.4 31.1 8.5 31.1 8.7 31.15 8.9 31.15 9.1 31.15 9.15 30.5 9.25 29.85 9.4 29.4 9.4 L28.35 9.4 Q28.45 9.1 28.55 8.85 28.7 8.6 28.8 8.45 28.95 8.3 29.1 8.15 29.25 8.05 29.4 8.0 29.5 7.95 29.65 7.9 29.75 7.85 29.85 7.85 29.95 7.85 30.0 7.85 30.05 7.85 30.05 7.85 L30.05 7.85" fill="#f1edf8" fill-rule="evenodd" stroke="none"/>
    </g>
  </defs>
</svg>
