<?xml version="1.0" encoding="UTF-8" standalone="no"?>
<svg xmlns:ffdec="https://www.free-decompiler.com/flash" xmlns:xlink="http://www.w3.org/1999/xlink" ffdec:objectType="frame" height="26.55px" width="70.8px" xmlns="http://www.w3.org/2000/svg">
  <g transform="matrix(1.0, 0.0, 0.0, 1.0, 0.2, 0.4)">
    <use ffdec:characterId="1" height="26.0" transform="matrix(1.0, 0.0, 0.0, 1.0, 0.0, 0.0)" width="35.75" xlink:href="#shape0"/>
    <use ffdec:characterId="142" height="14.25" transform="matrix(1.0, 0.0, 0.0, 1.0, 4.5, 6.0)" width="28.3" xlink:href="#shape1"/>
    <use ffdec:characterId="142" height="14.25" transform="matrix(1.0, 0.0, 0.0, 1.0, 3.7, 5.4)" width="28.3" xlink:href="#shape1"/>
  </g>
  <defs>
    <g id="shape0" transform="matrix(1.0, 0.0, 0.0, 1.0, 0.0, 0.0)">
      <path d="M33.35 2.45 Q33.35 2.5 33.35 2.55 33.35 2.55 33.35 2.6 L33.35 4.05 32.7 3.8 33.35 4.5 33.35 5.25 32.8 5.25 33.35 6.45 33.35 7.1 33.1 8.15 33.35 7.8 33.35 9.55 32.7 9.85 33.0 10.05 33.6 9.8 33.6 8.05 33.35 8.4 33.6 7.35 33.6 6.7 33.05 5.5 33.6 5.5 33.6 4.75 32.95 4.05 33.6 4.3 33.6 2.85 Q33.6 2.8 33.6 2.8 33.6 2.7 33.6 2.65 33.55 2.55 33.55 2.55 33.5 2.5 33.45 2.5 33.45 2.5 33.35 2.45 L33.35 2.45 M33.35 10.4 L33.35 22.5 33.35 23.15 Q33.35 23.4 33.35 23.4 33.3 23.5 33.25 23.5 33.2 23.5 33.0 23.5 L32.35 23.5 31.7 23.5 30.8 23.5 30.85 23.75 31.95 23.75 32.6 23.75 33.2 23.75 Q33.45 23.75 33.45 23.75 33.55 23.75 33.55 23.65 33.55 23.65 33.6 23.4 L33.6 22.75 33.6 10.55 33.35 10.4 33.35 10.4 M30.55 22.75 L29.75 23.5 25.95 23.5 25.1 23.05 25.0 23.5 24.0 23.5 23.7 23.5 22.6 23.4 21.9 23.5 20.7 23.5 20.55 23.3 20.05 23.55 9.6 23.5 8.75 23.25 8.3 23.5 7.45 23.5 7.15 23.35 6.4 23.5 5.75 23.5 5.1 23.5 4.45 23.5 3.85 23.45 3.15 23.5 2.75 23.5 Q2.75 23.55 2.75 23.65 2.75 23.7 2.75 23.75 2.75 23.75 2.75 23.75 2.75 23.75 2.75 23.75 L3.4 23.75 4.1 23.7 4.7 23.75 5.35 23.75 5.95 23.75 6.6 23.75 7.4 23.6 7.65 23.75 8.55 23.75 18.95 23.75 19.75 23.75 20.3 23.8 20.8 23.55 20.9 23.75 22.15 23.75 22.85 23.65 23.95 23.75 24.25 23.75 25.25 23.75 25.35 23.3 26.15 23.75 30.0 23.75 30.55 23.2 30.55 22.75 30.55 22.75" fill="#ffffff" fill-rule="evenodd" stroke="none"/>
      <path d="M2.55 2.2 L5.85 2.2 6.1 2.65 6.4 2.4 7.65 2.2 13.45 2.2 13.6 2.7 14.05 2.2 15.35 2.2 26.5 2.2 27.0 2.65 27.2 2.2 27.85 2.2 33.0 2.2 Q33.2 2.2 33.25 2.25 33.3 2.25 33.35 2.35 33.35 2.4 33.35 2.55 33.35 2.55 33.35 2.6 L33.35 4.05 32.7 3.8 33.35 4.5 33.35 5.25 32.8 5.25 33.35 6.45 33.35 7.1 33.1 8.15 33.35 7.8 33.35 9.55 32.7 9.85 33.35 10.3 33.35 22.5 33.35 23.15 Q33.35 23.4 33.35 23.4 33.3 23.5 33.25 23.5 33.2 23.5 33.0 23.5 L32.35 23.5 31.7 23.5 30.6 23.5 30.5 22.75 29.75 23.5 25.95 23.5 25.1 23.05 25.0 23.5 24.0 23.5 23.7 23.5 22.6 23.4 21.9 23.5 20.7 23.5 20.55 23.3 20.05 23.55 9.6 23.5 8.75 23.25 8.3 23.5 7.45 23.5 7.15 23.35 6.4 23.5 5.75 23.5 5.1 23.5 4.45 23.5 3.85 23.45 3.15 23.5 2.55 23.5 Q2.5 23.5 2.5 23.5 2.5 23.5 2.5 23.5 2.3 23.5 2.25 23.5 2.2 23.5 2.15 23.45 2.15 23.4 2.2 23.2 2.2 23.2 2.15 23.2 2.15 23.2 2.15 23.2 2.15 23.15 2.15 23.15 L2.15 17.7 2.95 17.5 2.15 16.75 2.15 16.1 2.15 15.45 2.15 14.45 2.6 14.15 2.15 13.9 2.15 10.65 2.55 10.45 2.15 9.9 2.15 9.0 2.15 8.35 2.15 7.7 2.65 7.2 2.15 6.85 2.15 2.6 Q2.15 2.55 2.15 2.55 2.15 2.4 2.2 2.35 2.2 2.25 2.25 2.25 2.3 2.2 2.45 2.2 2.5 2.2 2.5 2.2 2.5 2.2 2.5 2.2 2.5 2.2 2.55 2.2 2.55 2.2 2.55 2.2 L2.55 2.2" fill="#000000" fill-rule="evenodd" stroke="none"/>
    </g>
    <g id="shape1" transform="matrix(1.0, 0.0, 0.0, 1.0, 0.0, 0.0)">
      <path d="M9.3 8.35 L9.2 7.65 8.9 7.05 8.35 6.8 Q8.0 6.8 7.8 7.05 L7.5 7.65 7.45 8.35 7.45 9.0 9.35 9.0 9.3 8.35 M2.9 1.1 L3.85 1.2 Q4.3 1.3 4.7 1.55 L4.7 3.25 4.0 2.85 3.25 2.7 Q2.55 2.75 2.15 3.2 1.75 3.65 1.75 4.35 L1.85 5.1 2.2 5.75 3.5 7.15 4.45 8.25 5.1 9.45 5.3 10.9 Q5.3 11.85 4.95 12.6 L3.9 13.8 2.3 14.25 1.3 14.1 0.45 13.65 0.45 11.95 1.2 12.4 2.1 12.6 2.95 12.35 3.45 11.7 3.6 10.8 Q3.6 10.05 3.25 9.5 L2.35 8.45 1.3 7.4 0.4 6.1 Q0.05 5.4 0.0 4.4 0.0 3.5 0.35 2.75 0.65 2.0 1.3 1.55 1.95 1.1 2.9 1.1 M18.1 8.35 L18.0 7.65 17.7 7.05 Q17.5 6.8 17.15 6.8 16.8 6.8 16.6 7.05 L16.3 7.65 16.25 8.35 16.25 9.0 18.15 9.0 18.1 8.35 M10.9 8.4 L10.95 9.85 10.95 10.1 7.45 10.1 7.45 10.85 7.55 11.75 7.85 12.5 Q8.05 12.8 8.45 12.8 8.85 12.8 9.05 12.55 L9.35 11.95 9.45 11.2 10.9 11.2 10.65 12.7 9.85 13.8 Q9.3 14.2 8.4 14.25 7.5 14.2 7.0 13.8 6.45 13.4 6.2 12.75 L5.85 11.3 5.8 9.85 5.85 8.45 Q5.95 7.65 6.2 6.95 6.45 6.25 6.95 5.85 7.5 5.4 8.35 5.4 9.25 5.4 9.75 5.85 10.25 6.25 10.55 6.95 L10.9 8.4 M12.0 0.0 L13.6 0.0 13.6 14.1 12.0 14.1 12.0 0.0 M17.15 5.4 Q18.05 5.4 18.55 5.85 19.05 6.25 19.35 6.95 L19.7 8.4 19.75 9.85 19.75 10.1 16.25 10.1 16.25 10.85 16.35 11.75 16.65 12.5 Q16.85 12.8 17.25 12.8 L17.85 12.55 18.15 11.95 18.25 11.2 19.7 11.2 19.45 12.7 18.65 13.8 17.2 14.25 Q16.3 14.2 15.8 13.8 15.25 13.4 15.0 12.75 L14.65 11.3 14.6 9.85 14.65 8.45 Q14.75 7.65 15.0 6.95 15.25 6.25 15.75 5.85 16.3 5.4 17.15 5.4 M23.75 5.45 L24.35 5.65 24.35 7.3 24.05 7.0 23.6 6.85 Q23.05 6.9 22.8 7.2 22.5 7.5 22.35 7.95 L22.2 8.9 22.2 9.75 22.2 10.55 22.35 11.55 22.75 12.4 Q23.05 12.75 23.55 12.75 L24.0 12.65 24.35 12.4 24.35 13.9 23.75 14.15 23.05 14.25 Q22.25 14.2 21.75 13.8 21.2 13.35 20.95 12.7 20.7 12.05 20.6 11.3 L20.55 9.9 20.6 8.45 Q20.7 7.65 20.95 6.95 21.2 6.25 21.7 5.85 22.2 5.4 23.1 5.4 L23.75 5.45 M25.85 3.1 L27.45 3.1 27.45 5.5 28.3 5.5 28.3 6.8 27.45 6.8 27.45 14.1 25.85 14.1 25.85 6.8 25.0 6.8 25.0 5.5 25.85 5.5 25.85 3.1" fill="#cccccc" fill-rule="evenodd" stroke="none"/>
    </g>
  </defs>
</svg>
