<?xml version="1.0" encoding="UTF-8" standalone="no"?>
<svg xmlns:ffdec="https://www.free-decompiler.com/flash" xmlns:xlink="http://www.w3.org/1999/xlink" ffdec:objectType="frame" height="26.55px" width="70.8px" xmlns="http://www.w3.org/2000/svg">
  <g transform="matrix(1.0, 0.0, 0.0, 1.0, 0.2, 0.4)">
    <use ffdec:characterId="132" height="26.0" transform="matrix(1.0, 0.0, 0.0, 1.0, 0.05, 0.05)" width="26.0" xlink:href="#shape0"/>
    <use ffdec:characterId="148" height="11.8" transform="matrix(1.0, 0.0, 0.0, 1.0, 7.9, 7.7)" width="11.9" xlink:href="#shape1"/>
    <use ffdec:characterId="148" height="11.8" transform="matrix(1.0, 0.0, 0.0, 1.0, 7.1, 7.1)" width="11.9" xlink:href="#shape1"/>
  </g>
  <defs>
    <g id="shape0" transform="matrix(1.0, 0.0, 0.0, 1.0, -0.05, -0.05)">
      <path d="M22.1 22.1 Q21.6 22.55 21.1 22.95 20.6 23.4 20.1 23.75 19.55 24.1 19.05 24.35 18.5 24.65 17.9 24.9 17.35 25.1 16.75 25.3 16.2 25.45 15.55 25.6 14.95 25.7 14.35 25.75 13.7 25.85 13.05 25.85 12.4 25.85 11.75 25.8 11.1 25.7 10.5 25.6 9.9 25.5 9.3 25.3 8.7 25.15 8.15 24.9 7.6 24.65 7.05 24.35 6.5 24.05 6.0 23.7 5.5 23.35 5.0 22.95 4.5 22.55 4.0 22.1 3.55 21.65 3.15 21.15 2.7 20.65 2.35 20.1 2.0 19.6 1.75 19.05 1.45 18.55 1.2 17.95 1.0 17.4 0.8 16.8 0.65 16.25 0.5 15.65 0.4 15.0 0.35 14.4 0.25 13.75 0.25 13.1 0.25 12.45 0.3 11.8 0.4 11.15 0.5 10.55 0.6 9.95 0.8 9.35 0.95 8.75 1.2 8.2 1.45 7.65 1.75 7.1 2.05 6.55 2.4 6.0 2.75 5.5 3.15 5.0 3.55 4.5 4.0 4.0 4.45 3.55 4.95 3.15 5.45 2.7 6.0 2.35 6.5 2.0 7.05 1.75 7.6 1.45 8.15 1.2 8.7 1.0 9.3 0.8 9.9 0.65 10.5 0.5 11.1 0.4 11.75 0.35 12.4 0.25 13.05 0.25 13.7 0.25 14.35 0.3 15.0 0.4 15.6 0.5 16.2 0.6 16.8 0.8 17.4 0.95 17.95 1.2 18.5 1.45 19.05 1.75 19.6 2.05 20.1 2.4 20.6 2.75 21.1 3.15 21.6 3.55 22.1 4.0 22.55 4.5 22.95 5.0 23.4 5.5 23.75 6.0 24.1 6.55 24.35 7.1 24.65 7.6 24.9 8.2 25.1 8.75 25.3 9.35 25.45 9.95 25.6 10.55 25.7 11.15 25.75 11.8 25.85 12.45 25.85 13.1 25.85 13.5 25.8 13.85 25.8 14.2 25.75 14.55 25.7 14.95 25.65 15.3 25.6 15.65 25.5 16.0 25.45 16.35 25.35 16.65 25.25 17.0 25.15 17.35 25.0 17.65 24.9 18.0 24.75 18.3 24.6 18.6 24.6 18.6 24.55 18.65 24.5 18.65 24.45 18.65 24.4 18.7 24.3 18.7 24.25 18.7 24.15 18.7 24.05 18.7 23.95 18.7 23.9 18.7 23.8 18.7 23.7 18.65 23.65 18.65 23.55 18.65 23.55 18.65 23.55 18.65 23.55 18.65 23.55 18.65 23.55 18.65 23.55 18.65 23.55 18.7 23.6 18.7 23.6 18.7 23.65 18.75 23.7 18.75 23.75 18.75 23.75 18.8 23.8 18.8 23.85 18.8 23.9 18.85 23.95 18.85 24.0 18.85 24.05 18.85 24.1 18.85 24.1 18.85 24.15 18.9 24.2 18.9 24.2 18.95 24.2 18.95 24.2 19.0 24.25 19.05 24.25 19.05 24.3 19.1 24.3 19.15 24.3 19.15 24.3 19.15 24.3 19.15 24.2 19.35 24.1 19.55 23.95 19.7 23.85 19.9 23.7 20.1 23.6 20.3 23.45 20.5 23.3 20.65 23.15 20.85 23.0 21.05 22.85 21.2 22.7 21.4 22.55 21.55 22.4 21.75 22.25 21.9 22.1 22.1 M13.05 1.45 Q12.5 1.45 11.95 1.5 11.45 1.55 10.9 1.65 10.4 1.75 9.9 1.95 9.4 2.1 8.95 2.3 8.45 2.5 8.0 2.8 7.55 3.05 7.1 3.4 6.65 3.7 6.25 4.05 5.85 4.45 5.45 4.85 4.95 5.4 4.25 6.45 4.25 6.45 4.2 6.45 4.2 6.45 4.15 6.45 4.15 6.5 4.1 6.5 4.05 6.5 4.05 6.5 4.0 6.5 3.95 6.5 3.9 6.5 3.85 6.5 3.8 6.5 3.75 6.5 3.7 6.5 3.65 6.5 3.6 6.5 3.5 6.5 3.45 6.5 3.3 6.55 3.25 6.55 3.2 6.55 2.2 6.55 2.15 6.55 2.1 6.55 2.15 6.55 2.15 6.55 2.15 6.55 2.2 6.6 2.25 6.6 2.35 6.65 2.4 6.65 2.5 6.7 2.55 6.7 2.65 6.75 2.75 6.75 2.85 6.8 2.95 6.8 3.05 6.8 3.15 6.8 3.2 6.8 3.3 6.8 3.35 6.85 3.4 6.85 3.5 6.9 3.55 6.9 3.6 6.95 3.6 6.95 3.65 7.0 3.7 7.0 3.7 7.05 3.75 7.05 3.75 7.1 3.75 7.1 3.75 7.15 3.75 7.15 3.55 7.5 3.35 7.85 3.2 8.2 3.05 8.55 2.9 8.95 2.8 9.3 2.7 9.65 2.6 10.0 2.5 10.4 2.45 10.75 2.4 11.15 2.35 11.55 2.3 11.9 2.3 12.3 2.25 12.7 2.25 13.1 2.25 13.65 2.3 14.2 2.35 14.8 2.45 15.35 2.55 15.9 2.7 16.4 2.85 16.95 3.05 17.45 3.25 18.0 3.5 18.5 3.75 19.0 4.05 19.45 4.35 19.95 4.7 20.35 5.05 20.8 5.45 21.25 5.85 21.65 6.25 22.05 6.7 22.4 7.1 22.75 7.55 23.05 8.0 23.3 8.45 23.6 8.95 23.8 9.4 24.0 9.9 24.15 10.4 24.35 10.9 24.45 11.45 24.55 11.95 24.6 12.5 24.65 13.05 24.65 13.6 24.65 14.15 24.6 14.7 24.55 15.2 24.45 15.75 24.35 16.2 24.15 16.7 24.0 17.2 23.8 17.65 23.6 18.1 23.3 18.6 23.05 19.0 22.7 19.45 22.4 19.85 22.05 20.25 21.65 20.65 21.25 21.05 20.85 21.4 20.4 21.75 19.95 22.05 19.45 22.35 19.0 22.6 18.5 22.85 18.0 23.05 17.45 23.25 16.95 23.4 16.4 23.55 15.9 23.65 15.35 23.75 14.8 23.8 14.2 23.85 13.65 23.85 13.1 23.85 12.55 23.8 12.0 23.75 11.45 23.65 10.9 23.55 10.3 23.4 9.8 23.25 9.25 23.05 8.7 22.85 8.2 22.6 7.7 22.35 7.2 22.05 6.7 21.75 6.2 21.4 5.75 21.05 5.3 20.65 4.85 20.25 4.45 19.85 4.05 19.45 3.7 19.0 3.35 18.6 3.05 18.1 2.8 17.65 2.5 17.2 2.3 16.7 2.1 16.2 1.95 15.75 1.75 15.2 1.65 14.7 1.55 14.15 1.5 13.6 1.45 13.05 1.45" fill="#f1edf8" fill-rule="evenodd" stroke="none"/>
    </g>
    <g id="shape1" transform="matrix(1.0, 0.0, 0.0, 1.0, 0.0, 0.0)">
      <path d="M11.9 1.25 L7.25 5.9 11.9 10.55 10.6 11.8 5.95 7.15 1.3 11.8 0.0 10.55 4.65 5.9 0.0 1.25 1.3 0.0 5.95 4.65 6.1 4.55 10.6 0.0 11.9 1.25" fill="#cccccc" fill-rule="evenodd" stroke="none"/>
    </g>
  </defs>
</svg>
