<?xml version="1.0" encoding="UTF-8" standalone="no"?>
<svg xmlns:ffdec="https://www.free-decompiler.com/flash" xmlns:xlink="http://www.w3.org/1999/xlink" ffdec:objectType="frame" height="26.55px" width="70.8px" xmlns="http://www.w3.org/2000/svg">
  <g transform="matrix(1.0, 0.0, 0.0, 1.0, 0.2, 0.4)">
    <use ffdec:characterId="3" height="26.0" transform="matrix(1.0, 0.0, 0.0, 1.0, 0.0, 0.0)" width="26.0" xlink:href="#shape0"/>
    <use ffdec:characterId="47" height="26.0" transform="matrix(1.0, 0.0, 0.0, 1.0, 0.0, 0.0)" width="26.0" xlink:href="#shape1"/>
    <use ffdec:characterId="47" height="26.0" transform="matrix(1.0, 0.0, 0.0, 1.0, 0.0, 0.0)" width="26.0" xlink:href="#shape1"/>
  </g>
  <defs>
    <g id="shape0" transform="matrix(1.0, 0.0, 0.0, 1.0, 0.0, 0.0)">
      <path d="M23.5 2.45 Q23.5 2.5 23.5 2.5 23.5 2.55 23.5 2.55 23.5 2.55 23.5 2.55 23.5 2.6 23.5 2.6 L23.5 4.05 22.85 3.8 23.5 4.5 23.5 5.25 22.95 5.25 23.5 6.45 23.5 7.1 23.3 8.15 23.5 7.8 23.5 9.55 22.85 9.85 23.15 10.05 23.75 9.8 23.75 8.05 23.5 8.4 23.75 7.35 23.75 6.7 23.2 5.5 23.75 5.5 23.75 4.75 23.1 4.05 23.75 4.3 23.75 2.85 Q23.75 2.8 23.75 2.8 23.75 2.7 23.75 2.65 23.75 2.55 23.7 2.55 23.7 2.5 23.65 2.5 23.6 2.5 23.5 2.45 L23.5 2.45 M23.5 10.4 L23.5 22.5 23.5 23.15 Q23.5 23.4 23.5 23.4 23.45 23.5 23.4 23.5 23.35 23.5 23.15 23.5 L22.5 23.5 21.85 23.5 20.95 23.5 21.0 23.75 22.1 23.75 22.75 23.75 23.4 23.75 Q23.65 23.75 23.7 23.75 23.75 23.7 23.75 23.4 L23.75 22.75 23.75 10.55 23.5 10.4 M20.7 22.75 L19.95 23.5 16.1 23.5 15.25 23.05 15.2 23.5 14.15 23.5 13.9 23.5 12.75 23.4 12.05 23.5 10.85 23.5 10.7 23.3 10.2 23.55 9.7 23.5 8.85 23.25 8.4 23.5 7.5 23.5 7.25 23.35 6.45 23.5 5.85 23.5 5.2 23.5 4.55 23.5 3.95 23.45 3.25 23.5 2.85 23.5 Q2.85 23.55 2.85 23.6 2.85 23.65 2.85 23.7 2.8 23.7 2.8 23.75 2.85 23.75 2.85 23.75 2.85 23.75 2.85 23.75 L3.5 23.75 4.2 23.7 4.8 23.75 5.45 23.75 6.05 23.75 6.7 23.75 7.45 23.6 7.75 23.75 8.65 23.75 9.1 23.5 9.9 23.75 10.45 23.8 10.95 23.55 11.1 23.75 12.3 23.75 13.0 23.65 14.1 23.75 14.4 23.75 15.4 23.75 15.5 23.3 16.35 23.75 20.15 23.75 20.75 23.2 20.7 22.75" fill="#ffffff" fill-rule="evenodd" stroke="none"/>
      <path d="M2.6 2.2 L5.95 2.2 6.2 2.65 6.5 2.4 7.75 2.2 13.5 2.2 13.7 2.7 14.15 2.2 15.45 2.2 16.65 2.2 17.15 2.65 17.35 2.2 18.0 2.2 23.15 2.2 Q23.35 2.2 23.4 2.25 23.45 2.25 23.5 2.35 23.5 2.4 23.5 2.55 23.5 2.55 23.5 2.6 L23.5 4.05 22.85 3.8 23.5 4.5 23.5 5.25 22.95 5.25 23.5 6.45 23.5 7.1 23.3 8.15 23.5 7.8 23.5 9.55 22.85 9.85 23.5 10.3 23.5 22.5 23.5 23.15 Q23.5 23.4 23.5 23.4 23.45 23.5 23.4 23.5 23.35 23.5 23.15 23.5 L22.5 23.5 21.85 23.5 20.75 23.5 20.7 22.75 19.95 23.5 16.1 23.5 15.25 23.05 15.2 23.5 14.15 23.5 13.9 23.5 12.75 23.4 12.05 23.5 10.85 23.5 10.7 23.3 10.2 23.55 9.7 23.5 8.85 23.25 8.4 23.5 7.5 23.5 7.25 23.35 6.45 23.5 5.85 23.5 5.2 23.5 4.55 23.5 3.95 23.45 3.25 23.5 2.6 23.5 Q2.6 23.5 2.6 23.5 2.6 23.5 2.6 23.5 2.4 23.5 2.35 23.5 2.3 23.5 2.25 23.45 2.25 23.4 2.25 23.2 2.25 23.2 2.25 23.2 2.25 23.2 2.25 23.2 2.25 23.15 2.25 23.15 L2.25 17.7 3.05 17.5 2.25 16.75 2.25 16.1 2.25 15.45 2.25 14.45 2.65 14.15 2.25 13.9 2.25 10.65 2.65 10.45 2.25 9.9 2.25 9.0 2.25 8.35 2.25 7.7 2.75 7.2 2.25 6.85 2.25 2.6 Q2.25 2.55 2.25 2.55 2.25 2.4 2.25 2.35 2.3 2.25 2.35 2.25 2.4 2.2 2.55 2.2 2.55 2.2 2.6 2.2 2.6 2.2 2.6 2.2 2.6 2.2 2.6 2.2 L2.6 2.2" fill="#000000" fill-rule="evenodd" stroke="none"/>
    </g>
    <g id="shape1" transform="matrix(1.0, 0.0, 0.0, 1.0, 0.0, 0.0)">
      <path d="M16.85 12.1 L16.9 11.75 15.85 11.55 Q15.85 11.55 15.85 11.6 15.85 11.6 15.85 11.65 15.8 11.7 15.75 11.7 15.7 11.75 15.55 11.8 15.45 11.85 15.25 11.85 15.0 11.85 14.7 11.85 14.35 11.85 13.95 11.8 13.45 11.8 12.9 11.7 12.9 11.7 12.9 11.7 12.85 11.75 12.8 11.75 12.8 11.75 12.75 11.8 12.65 11.85 12.6 11.85 12.5 11.9 12.4 11.9 12.3 11.95 12.2 11.95 12.1 12.0 11.95 12.0 11.8 12.05 11.65 12.05 L11.65 10.85 11.45 10.9 11.3 11.05 11.2 10.95 11.2 10.95 11.15 10.85 11.25 10.9 11.15 10.8 11.2 10.7 11.45 10.7 11.45 10.6 11.7 10.5 11.7 8.05 Q11.7 7.85 11.75 7.7 11.85 7.55 12.0 7.4 12.1 7.3 12.3 7.2 12.45 7.15 12.65 7.1 12.8 7.05 13.0 7.0 13.15 7.0 13.3 7.0 13.45 6.95 13.55 6.95 13.55 6.95 13.6 6.95 L15.0 6.95 Q15.0 6.95 15.05 6.95 15.2 6.95 15.25 6.95 15.4 7.0 15.55 7.0 15.7 7.0 15.85 7.05 16.05 7.1 16.2 7.15 16.4 7.2 16.55 7.3 16.7 7.4 16.8 7.5 16.9 7.65 17.0 7.8 L17.7 7.8 17.7 5.25 12.1 5.25 9.35 5.25 8.3 5.25 8.3 6.5 Q8.5 6.5 8.65 6.6 8.8 6.65 8.9 6.8 9.0 6.85 9.1 7.0 9.15 7.1 9.2 7.25 9.25 7.35 9.3 7.5 9.3 7.6 9.35 7.7 9.35 7.8 9.35 7.85 9.35 7.9 9.35 7.9 L9.35 17.55 Q9.35 17.9 9.3 18.2 9.3 18.45 9.25 18.65 9.2 18.85 9.1 19.0 9.05 19.1 9.0 19.2 8.95 19.3 8.9 19.35 8.85 19.4 8.8 19.4 8.75 19.45 8.7 19.45 8.7 19.45 8.7 19.45 L8.7 20.75 12.35 20.75 12.35 19.45 Q12.2 19.4 12.1 19.3 12.0 19.2 11.95 19.1 11.85 18.95 11.8 18.75 11.75 18.6 11.7 18.45 11.7 18.3 11.65 18.1 11.65 18.0 11.65 17.85 11.65 17.75 11.65 17.65 11.65 17.6 11.65 17.6 L11.65 13.45 14.35 13.35 Q14.4 13.35 14.45 13.35 14.55 13.35 14.7 13.35 14.9 13.3 15.05 13.3 15.3 13.25 15.5 13.2 15.7 13.15 15.9 13.05 16.15 12.95 16.3 12.8 16.5 12.7 16.65 12.5 16.8 12.3 16.85 12.1 L16.85 12.1" fill="#f1edf8" fill-rule="evenodd" stroke="none"/>
    </g>
  </defs>
</svg>
