<?xml version="1.0" encoding="UTF-8" standalone="no"?>
<svg xmlns:ffdec="https://www.free-decompiler.com/flash" xmlns:xlink="http://www.w3.org/1999/xlink" ffdec:objectType="frame" height="26.55px" width="70.8px" xmlns="http://www.w3.org/2000/svg">
  <g transform="matrix(1.0, 0.0, 0.0, 1.0, 0.2, 0.4)">
    <use ffdec:characterId="3" height="26.0" transform="matrix(1.0, 0.0, 0.0, 1.0, 0.0, 0.0)" width="26.0" xlink:href="#shape0"/>
    <use ffdec:characterId="48" height="26.0" transform="matrix(1.0, 0.0, 0.0, 1.0, 0.0, 0.0)" width="26.0" xlink:href="#shape1"/>
    <use ffdec:characterId="48" height="26.0" transform="matrix(1.0, 0.0, 0.0, 1.0, 0.0, 0.0)" width="26.0" xlink:href="#shape1"/>
  </g>
  <defs>
    <g id="shape0" transform="matrix(1.0, 0.0, 0.0, 1.0, 0.0, 0.0)">
      <path d="M23.5 2.45 Q23.5 2.5 23.5 2.5 23.5 2.55 23.5 2.55 23.5 2.55 23.5 2.55 23.5 2.6 23.5 2.6 L23.5 4.05 22.85 3.8 23.5 4.5 23.5 5.25 22.95 5.25 23.5 6.45 23.5 7.1 23.3 8.15 23.5 7.8 23.5 9.55 22.85 9.85 23.15 10.05 23.75 9.8 23.75 8.05 23.5 8.4 23.75 7.35 23.75 6.7 23.2 5.5 23.75 5.5 23.75 4.75 23.1 4.05 23.75 4.3 23.75 2.85 Q23.75 2.8 23.75 2.8 23.75 2.7 23.75 2.65 23.75 2.55 23.7 2.55 23.7 2.5 23.65 2.5 23.6 2.5 23.5 2.45 L23.5 2.45 M23.5 10.4 L23.5 22.5 23.5 23.15 Q23.5 23.4 23.5 23.4 23.45 23.5 23.4 23.5 23.35 23.5 23.15 23.5 L22.5 23.5 21.85 23.5 20.95 23.5 21.0 23.75 22.1 23.75 22.75 23.75 23.4 23.75 Q23.65 23.75 23.7 23.75 23.75 23.7 23.75 23.4 L23.75 22.75 23.75 10.55 23.5 10.4 M20.7 22.75 L19.95 23.5 16.1 23.5 15.25 23.05 15.2 23.5 14.15 23.5 13.9 23.5 12.75 23.4 12.05 23.5 10.85 23.5 10.7 23.3 10.2 23.55 9.7 23.5 8.85 23.25 8.4 23.5 7.5 23.5 7.25 23.35 6.45 23.5 5.85 23.5 5.2 23.5 4.55 23.5 3.95 23.45 3.25 23.5 2.85 23.5 Q2.85 23.55 2.85 23.6 2.85 23.65 2.85 23.7 2.8 23.7 2.8 23.75 2.85 23.75 2.85 23.75 2.85 23.75 2.85 23.75 L3.5 23.75 4.2 23.7 4.8 23.75 5.45 23.75 6.05 23.75 6.7 23.75 7.45 23.6 7.75 23.75 8.65 23.75 9.1 23.5 9.9 23.75 10.45 23.8 10.95 23.55 11.1 23.75 12.3 23.75 13.0 23.65 14.1 23.75 14.4 23.75 15.4 23.75 15.5 23.3 16.35 23.75 20.15 23.75 20.75 23.2 20.7 22.75" fill="#ffffff" fill-rule="evenodd" stroke="none"/>
      <path d="M2.6 2.2 L5.95 2.2 6.2 2.65 6.5 2.4 7.75 2.2 13.5 2.2 13.7 2.7 14.15 2.2 15.45 2.2 16.65 2.2 17.15 2.65 17.35 2.2 18.0 2.2 23.15 2.2 Q23.35 2.2 23.4 2.25 23.45 2.25 23.5 2.35 23.5 2.4 23.5 2.55 23.5 2.55 23.5 2.6 L23.5 4.05 22.85 3.8 23.5 4.5 23.5 5.25 22.95 5.25 23.5 6.45 23.5 7.1 23.3 8.15 23.5 7.8 23.5 9.55 22.85 9.85 23.5 10.3 23.5 22.5 23.5 23.15 Q23.5 23.4 23.5 23.4 23.45 23.5 23.4 23.5 23.35 23.5 23.15 23.5 L22.5 23.5 21.85 23.5 20.75 23.5 20.7 22.75 19.95 23.5 16.1 23.5 15.25 23.05 15.2 23.5 14.15 23.5 13.9 23.5 12.75 23.4 12.05 23.5 10.85 23.5 10.7 23.3 10.2 23.55 9.7 23.5 8.85 23.25 8.4 23.5 7.5 23.5 7.25 23.35 6.45 23.5 5.85 23.5 5.2 23.5 4.55 23.5 3.95 23.45 3.25 23.5 2.6 23.5 Q2.6 23.5 2.6 23.5 2.6 23.5 2.6 23.5 2.4 23.5 2.35 23.5 2.3 23.5 2.25 23.45 2.25 23.4 2.25 23.2 2.25 23.2 2.25 23.2 2.25 23.2 2.25 23.2 2.25 23.15 2.25 23.15 L2.25 17.7 3.05 17.5 2.25 16.75 2.25 16.1 2.25 15.45 2.25 14.45 2.65 14.15 2.25 13.9 2.25 10.65 2.65 10.45 2.25 9.9 2.25 9.0 2.25 8.35 2.25 7.7 2.75 7.2 2.25 6.85 2.25 2.6 Q2.25 2.55 2.25 2.55 2.25 2.4 2.25 2.35 2.3 2.25 2.35 2.25 2.4 2.2 2.55 2.2 2.55 2.2 2.6 2.2 2.6 2.2 2.6 2.2 2.6 2.2 2.6 2.2 L2.6 2.2" fill="#000000" fill-rule="evenodd" stroke="none"/>
    </g>
    <g id="shape1" transform="matrix(1.0, 0.0, 0.0, 1.0, 0.0, 0.0)">
      <path d="M20.5 13.5 Q20.5 13.5 20.5 13.5 20.45 13.55 20.45 13.55 20.35 13.6 20.3 13.6 20.15 13.65 20.0 13.65 19.85 13.7 19.6 13.7 19.35 13.7 19.0 13.7 18.6 13.7 18.15 13.65 17.7 13.6 17.1 13.5 17.1 13.5 17.05 13.55 17.0 13.55 16.95 13.6 16.85 13.65 16.75 13.7 16.65 13.8 16.5 13.85 16.35 13.9 16.2 13.95 16.0 14.05 15.85 14.1 15.6 14.15 15.4 14.15 15.15 14.2 14.9 14.2 L14.35 14.95 15.85 14.95 Q15.95 14.95 16.0 14.95 16.1 15.0 16.15 15.0 16.2 15.05 16.25 15.1 16.3 15.1 16.35 15.15 16.35 15.2 16.4 15.25 16.4 15.3 16.4 15.4 16.4 15.45 16.4 15.5 16.4 15.55 16.35 15.6 L18.5 16.45 Q18.5 16.45 18.5 16.4 18.55 16.3 18.55 16.25 18.6 16.1 18.65 16.0 18.7 15.85 18.75 15.75 18.8 15.6 18.85 15.45 18.9 15.3 18.95 15.2 19.05 15.1 19.1 15.0 19.15 14.9 19.25 14.9 19.3 14.9 19.4 14.85 19.5 14.85 19.55 14.85 19.65 14.85 19.7 14.8 19.8 14.8 19.9 14.8 19.95 14.75 20.05 14.75 20.1 14.7 20.2 14.7 20.25 14.65 20.3 14.6 20.35 14.6 20.4 14.55 L20.9 13.55 20.5 13.5 M12.8 18.25 Q12.2 18.25 11.65 18.15 11.1 18.05 10.65 17.9 10.2 17.7 9.8 17.45 9.4 17.15 9.05 16.85 8.75 16.5 8.5 16.05 8.25 15.65 8.1 15.15 7.9 14.65 7.85 14.1 7.75 13.5 7.75 12.9 7.75 12.2 7.85 11.6 7.95 11.0 8.2 10.5 8.4 10.0 8.65 9.55 8.95 9.15 9.3 8.85 9.65 8.5 10.05 8.25 10.4 8.05 10.85 7.85 11.25 7.7 11.7 7.65 12.1 7.55 12.55 7.55 13.0 7.55 13.45 7.6 13.85 7.65 14.2 7.75 14.55 7.8 14.85 7.95 15.15 8.05 15.4 8.2 15.6 8.35 15.8 8.5 16.0 8.65 16.15 8.85 16.25 9.0 16.35 9.2 16.45 9.4 16.5 9.55 L18.55 9.6 Q18.45 9.1 18.25 8.65 18.1 8.2 17.85 7.8 17.6 7.4 17.25 7.05 16.95 6.7 16.55 6.4 16.2 6.15 15.75 5.9 15.3 5.7 14.8 5.55 14.3 5.4 13.75 5.35 13.25 5.25 12.65 5.25 11.9 5.25 11.15 5.4 10.4 5.55 9.7 5.85 9.05 6.15 8.45 6.6 7.85 7.0 7.3 7.55 6.8 8.05 6.4 8.65 6.0 9.3 5.7 10.0 5.4 10.7 5.25 11.45 5.1 12.2 5.1 13.0 5.1 13.8 5.25 14.55 5.4 15.3 5.7 16.0 5.95 16.7 6.35 17.35 6.8 17.95 7.3 18.45 7.8 19.0 8.4 19.4 9.0 19.85 9.65 20.15 10.35 20.45 11.1 20.6 11.85 20.75 12.6 20.75 13.1 20.75 13.55 20.7 14.05 20.7 14.45 20.6 14.9 20.55 15.35 20.4 15.75 20.25 16.15 20.05 16.55 19.8 16.9 19.5 17.25 19.15 17.55 18.75 17.85 18.3 18.1 17.75 18.35 17.15 18.55 16.45 L16.35 15.6 Q16.25 15.95 16.15 16.2 16.05 16.5 15.9 16.75 15.8 17.0 15.6 17.2 15.45 17.4 15.25 17.6 15.05 17.75 14.8 17.85 14.55 18.0 14.25 18.1 13.95 18.15 13.6 18.2 13.25 18.25 12.8 18.25 L12.8 18.25 M6.4 9.8 L5.9 9.45 6.25 9.45 6.35 9.2 6.55 9.25 6.85 9.0 7.3 9.0 Q7.15 9.0 7.05 9.05 6.95 9.1 6.85 9.15 6.75 9.2 6.7 9.3 6.65 9.35 6.6 9.45 6.55 9.5 6.5 9.55 6.45 9.6 6.45 9.7 6.45 9.75 6.4 9.75 6.4 9.8 6.4 9.8 L6.4 9.8" fill="#f1edf8" fill-rule="evenodd" stroke="none"/>
    </g>
  </defs>
</svg>
