<?xml version="1.0" encoding="UTF-8" standalone="no"?>
<svg xmlns:ffdec="https://www.free-decompiler.com/flash" xmlns:xlink="http://www.w3.org/1999/xlink" ffdec:objectType="frame" height="26.55px" width="70.8px" xmlns="http://www.w3.org/2000/svg">
  <g transform="matrix(1.0, 0.0, 0.0, 1.0, 0.2, 0.4)">
    <use ffdec:characterId="3" height="26.0" transform="matrix(1.0, 0.0, 0.0, 1.0, 0.0, 0.0)" width="26.0" xlink:href="#shape0"/>
    <use ffdec:characterId="49" height="26.0" transform="matrix(1.0, 0.0, 0.0, 1.0, 0.0, 0.0)" width="26.0" xlink:href="#shape1"/>
    <use ffdec:characterId="49" height="26.0" transform="matrix(1.0, 0.0, 0.0, 1.0, 0.0, 0.0)" width="26.0" xlink:href="#shape1"/>
  </g>
  <defs>
    <g id="shape0" transform="matrix(1.0, 0.0, 0.0, 1.0, 0.0, 0.0)">
      <path d="M23.5 2.45 Q23.5 2.5 23.5 2.5 23.5 2.55 23.5 2.55 23.5 2.55 23.5 2.55 23.5 2.6 23.5 2.6 L23.5 4.05 22.85 3.8 23.5 4.5 23.5 5.25 22.95 5.25 23.5 6.45 23.5 7.1 23.3 8.15 23.5 7.8 23.5 9.55 22.85 9.85 23.15 10.05 23.75 9.8 23.75 8.05 23.5 8.4 23.75 7.35 23.75 6.7 23.2 5.5 23.75 5.5 23.75 4.75 23.1 4.05 23.75 4.3 23.75 2.85 Q23.75 2.8 23.75 2.8 23.75 2.7 23.75 2.65 23.75 2.55 23.7 2.55 23.7 2.5 23.65 2.5 23.6 2.5 23.5 2.45 L23.5 2.45 M23.5 10.4 L23.5 22.5 23.5 23.15 Q23.5 23.4 23.5 23.4 23.45 23.5 23.4 23.5 23.35 23.5 23.15 23.5 L22.5 23.5 21.85 23.5 20.95 23.5 21.0 23.75 22.1 23.75 22.75 23.75 23.4 23.75 Q23.65 23.75 23.7 23.75 23.75 23.7 23.75 23.4 L23.75 22.75 23.75 10.55 23.5 10.4 M20.7 22.75 L19.95 23.5 16.1 23.5 15.25 23.05 15.2 23.5 14.15 23.5 13.9 23.5 12.75 23.4 12.05 23.5 10.85 23.5 10.7 23.3 10.2 23.55 9.7 23.5 8.85 23.25 8.4 23.5 7.5 23.5 7.25 23.35 6.45 23.5 5.85 23.5 5.2 23.5 4.55 23.5 3.95 23.45 3.25 23.5 2.85 23.5 Q2.85 23.55 2.85 23.6 2.85 23.65 2.85 23.7 2.8 23.7 2.8 23.75 2.85 23.75 2.85 23.75 2.85 23.75 2.85 23.75 L3.5 23.75 4.2 23.7 4.8 23.75 5.45 23.75 6.05 23.75 6.7 23.75 7.45 23.6 7.75 23.75 8.65 23.75 9.1 23.5 9.9 23.75 10.45 23.8 10.95 23.55 11.1 23.75 12.3 23.75 13.0 23.65 14.1 23.75 14.4 23.75 15.4 23.75 15.5 23.3 16.35 23.75 20.15 23.75 20.75 23.2 20.7 22.75" fill="#ffffff" fill-rule="evenodd" stroke="none"/>
      <path d="M2.6 2.2 L5.95 2.2 6.2 2.65 6.5 2.4 7.75 2.2 13.5 2.2 13.7 2.7 14.15 2.2 15.45 2.2 16.65 2.2 17.15 2.65 17.35 2.2 18.0 2.2 23.15 2.2 Q23.35 2.2 23.4 2.25 23.45 2.25 23.5 2.35 23.5 2.4 23.5 2.55 23.5 2.55 23.5 2.6 L23.5 4.05 22.85 3.8 23.5 4.5 23.5 5.25 22.95 5.25 23.5 6.45 23.5 7.1 23.3 8.15 23.5 7.8 23.5 9.55 22.85 9.85 23.5 10.3 23.5 22.5 23.5 23.15 Q23.5 23.4 23.5 23.4 23.45 23.5 23.4 23.5 23.35 23.5 23.15 23.5 L22.5 23.5 21.85 23.5 20.75 23.5 20.7 22.75 19.95 23.5 16.1 23.5 15.25 23.05 15.2 23.5 14.15 23.5 13.9 23.5 12.75 23.4 12.05 23.5 10.85 23.5 10.7 23.3 10.2 23.55 9.7 23.5 8.85 23.25 8.4 23.5 7.5 23.5 7.25 23.35 6.45 23.5 5.85 23.5 5.2 23.5 4.55 23.5 3.95 23.45 3.25 23.5 2.6 23.5 Q2.6 23.5 2.6 23.5 2.6 23.5 2.6 23.5 2.4 23.5 2.35 23.5 2.3 23.5 2.25 23.45 2.25 23.4 2.25 23.2 2.25 23.2 2.25 23.2 2.25 23.2 2.25 23.2 2.25 23.15 2.25 23.15 L2.25 17.7 3.05 17.5 2.25 16.75 2.25 16.1 2.25 15.45 2.25 14.45 2.65 14.15 2.25 13.9 2.25 10.65 2.65 10.45 2.25 9.9 2.25 9.0 2.25 8.35 2.25 7.7 2.75 7.2 2.25 6.85 2.25 2.6 Q2.25 2.55 2.25 2.55 2.25 2.4 2.25 2.35 2.3 2.25 2.35 2.25 2.4 2.2 2.55 2.2 2.55 2.2 2.6 2.2 2.6 2.2 2.6 2.2 2.6 2.2 2.6 2.2 L2.6 2.2" fill="#000000" fill-rule="evenodd" stroke="none"/>
    </g>
    <g id="shape1" transform="matrix(1.0, 0.0, 0.0, 1.0, 0.0, 0.0)">
      <path d="M19.2 6.2 L19.2 5.25 15.4 5.25 15.4 6.3 Q15.4 6.3 15.45 6.3 15.45 6.3 15.5 6.35 15.55 6.35 15.6 6.4 15.7 6.45 15.75 6.5 15.8 6.6 15.85 6.65 15.95 6.75 16.0 6.85 16.05 7.0 16.05 7.1 16.1 7.25 16.1 7.45 L16.1 9.85 16.3 9.95 16.3 10.05 16.5 10.05 16.55 10.15 16.6 10.25 16.7 10.2 16.65 10.35 16.5 10.35 16.4 10.4 16.25 10.3 16.1 10.2 16.1 10.55 Q16.1 10.65 16.1 10.7 16.1 10.8 16.05 10.9 16.05 11.05 16.05 11.15 16.0 11.3 16.0 11.4 15.95 11.5 15.9 11.6 15.85 11.75 15.75 11.8 15.7 11.9 15.6 11.95 15.5 12.0 15.4 12.0 L10.6 12.0 Q10.6 12.0 10.55 12.0 10.55 12.0 10.5 11.95 10.45 11.9 10.35 11.85 10.3 11.8 10.25 11.7 10.15 11.6 10.1 11.45 10.05 11.3 10.0 11.05 9.95 10.85 9.9 10.55 9.9 10.25 9.9 9.85 L9.9 9.85 9.9 7.6 Q9.9 7.6 9.9 7.55 9.9 7.5 9.9 7.45 9.9 7.35 9.9 7.25 9.95 7.15 9.95 7.05 10.0 6.9 10.05 6.8 10.1 6.7 10.2 6.6 10.25 6.45 10.35 6.35 10.5 6.25 10.6 6.2 L10.6 5.25 6.8 5.25 6.8 6.3 Q6.8 6.3 6.85 6.3 6.85 6.3 6.9 6.35 6.95 6.35 7.0 6.4 7.1 6.45 7.15 6.5 7.2 6.6 7.25 6.65 7.3 6.75 7.35 6.85 7.4 7.0 7.45 7.1 7.45 7.25 7.45 7.45 L7.5 17.75 Q7.5 17.75 7.5 17.85 7.5 17.95 7.5 18.05 7.5 18.25 7.45 18.4 7.45 18.6 7.4 18.75 7.4 18.95 7.35 19.1 7.25 19.3 7.2 19.45 7.1 19.6 7.05 19.65 6.9 19.75 6.8 19.75 L6.8 20.75 10.6 20.75 10.6 19.7 Q10.6 19.7 10.55 19.7 10.55 19.7 10.5 19.7 10.45 19.65 10.4 19.6 10.3 19.55 10.25 19.5 10.2 19.4 10.1 19.25 10.05 19.1 10.0 18.9 9.95 18.65 9.9 18.4 9.9 18.1 9.9 17.75 L9.9 16.35 9.9 16.35 Q9.9 16.35 9.9 16.35 L9.9 15.65 Q9.9 15.55 9.9 15.4 9.9 15.3 9.95 15.2 9.95 15.05 10.0 14.95 10.0 14.85 10.05 14.75 10.1 14.65 10.15 14.55 10.2 14.45 10.25 14.4 10.35 14.35 10.4 14.3 10.5 14.3 10.6 14.3 L15.4 14.3 Q15.4 14.3 15.45 14.3 15.45 14.3 15.5 14.3 15.55 14.35 15.6 14.35 15.7 14.4 15.75 14.45 15.8 14.5 15.85 14.6 15.95 14.7 16.0 14.8 16.05 14.95 16.05 15.1 16.1 15.3 16.1 15.5 L16.1 17.75 Q16.1 17.75 16.1 17.85 16.1 17.95 16.1 18.05 16.1 18.25 16.05 18.4 16.05 18.6 16.0 18.75 16.0 18.95 15.95 19.1 15.85 19.3 15.8 19.45 15.7 19.6 15.65 19.65 15.5 19.75 15.4 19.75 L15.4 20.75 19.2 20.75 19.2 19.7 Q19.2 19.7 19.15 19.7 19.15 19.7 19.1 19.7 19.05 19.65 19.0 19.6 18.9 19.55 18.85 19.5 18.8 19.4 18.7 19.25 18.65 19.1 18.6 18.9 18.55 18.65 18.5 18.4 18.5 18.1 18.45 17.75 L18.45 7.6 Q18.45 7.6 18.45 7.55 18.45 7.45 18.5 7.45 18.5 7.35 18.5 7.25 18.55 7.15 18.55 7.05 18.6 6.9 18.65 6.8 18.7 6.7 18.8 6.6 18.85 6.45 18.95 6.35 19.05 6.25 19.2 6.2 L19.2 6.2" fill="#f1edf8" fill-rule="evenodd" stroke="none"/>
    </g>
  </defs>
</svg>
