<?xml version="1.0" encoding="UTF-8" standalone="no"?>
<svg xmlns:ffdec="https://www.free-decompiler.com/flash" xmlns:xlink="http://www.w3.org/1999/xlink" ffdec:objectType="frame" height="26.55px" width="70.8px" xmlns="http://www.w3.org/2000/svg">
  <g transform="matrix(1.0, 0.0, 0.0, 1.0, 0.2, 0.4)">
    <use ffdec:characterId="3" height="26.0" transform="matrix(1.0, 0.0, 0.0, 1.0, 0.0, 0.0)" width="26.0" xlink:href="#shape0"/>
    <use ffdec:characterId="51" height="26.0" transform="matrix(1.0, 0.0, 0.0, 1.0, 0.0, 0.0)" width="26.0" xlink:href="#shape1"/>
    <use ffdec:characterId="51" height="26.0" transform="matrix(1.0, 0.0, 0.0, 1.0, 0.0, 0.0)" width="26.0" xlink:href="#shape1"/>
  </g>
  <defs>
    <g id="shape0" transform="matrix(1.0, 0.0, 0.0, 1.0, 0.0, 0.0)">
      <path d="M23.5 2.45 Q23.5 2.5 23.5 2.5 23.5 2.55 23.5 2.55 23.5 2.55 23.5 2.55 23.5 2.6 23.5 2.6 L23.5 4.05 22.85 3.8 23.5 4.5 23.5 5.25 22.95 5.25 23.5 6.45 23.5 7.1 23.3 8.15 23.5 7.8 23.5 9.55 22.85 9.85 23.15 10.05 23.75 9.8 23.75 8.05 23.5 8.4 23.75 7.35 23.75 6.7 23.2 5.5 23.75 5.5 23.75 4.75 23.1 4.05 23.75 4.3 23.75 2.85 Q23.75 2.8 23.75 2.8 23.75 2.7 23.75 2.65 23.75 2.55 23.7 2.55 23.7 2.5 23.65 2.5 23.6 2.5 23.5 2.45 L23.5 2.45 M23.5 10.4 L23.5 22.5 23.5 23.15 Q23.5 23.4 23.5 23.4 23.45 23.5 23.4 23.5 23.35 23.5 23.15 23.5 L22.5 23.5 21.85 23.5 20.95 23.5 21.0 23.75 22.1 23.75 22.75 23.75 23.4 23.75 Q23.65 23.75 23.7 23.75 23.75 23.7 23.75 23.4 L23.75 22.75 23.75 10.55 23.5 10.4 M20.7 22.75 L19.95 23.5 16.1 23.5 15.25 23.05 15.2 23.5 14.15 23.5 13.9 23.5 12.75 23.4 12.05 23.5 10.85 23.5 10.7 23.3 10.2 23.55 9.7 23.5 8.85 23.25 8.4 23.5 7.5 23.5 7.25 23.35 6.45 23.5 5.85 23.5 5.2 23.5 4.55 23.5 3.95 23.45 3.25 23.5 2.85 23.5 Q2.85 23.55 2.85 23.6 2.85 23.65 2.85 23.7 2.8 23.7 2.8 23.75 2.85 23.75 2.85 23.75 2.85 23.75 2.85 23.75 L3.5 23.75 4.2 23.7 4.8 23.75 5.45 23.75 6.05 23.75 6.7 23.75 7.45 23.6 7.75 23.75 8.65 23.75 9.1 23.5 9.9 23.75 10.45 23.8 10.95 23.55 11.1 23.75 12.3 23.75 13.0 23.65 14.1 23.75 14.4 23.75 15.4 23.75 15.5 23.3 16.35 23.75 20.15 23.75 20.75 23.2 20.7 22.75" fill="#ffffff" fill-rule="evenodd" stroke="none"/>
      <path d="M2.6 2.2 L5.95 2.2 6.2 2.65 6.5 2.4 7.75 2.2 13.5 2.2 13.7 2.7 14.15 2.2 15.45 2.2 16.65 2.2 17.15 2.65 17.35 2.2 18.0 2.2 23.15 2.2 Q23.35 2.2 23.4 2.25 23.45 2.25 23.5 2.35 23.5 2.4 23.5 2.55 23.5 2.55 23.5 2.6 L23.5 4.05 22.85 3.8 23.5 4.5 23.5 5.25 22.95 5.25 23.5 6.45 23.5 7.1 23.3 8.15 23.5 7.8 23.5 9.55 22.85 9.85 23.5 10.3 23.5 22.5 23.5 23.15 Q23.5 23.4 23.5 23.4 23.45 23.5 23.4 23.5 23.35 23.5 23.15 23.5 L22.5 23.5 21.85 23.5 20.75 23.5 20.7 22.75 19.95 23.5 16.1 23.5 15.25 23.05 15.2 23.5 14.15 23.5 13.9 23.5 12.75 23.4 12.05 23.5 10.85 23.5 10.7 23.3 10.2 23.55 9.7 23.5 8.85 23.25 8.4 23.5 7.5 23.5 7.25 23.35 6.45 23.5 5.85 23.5 5.2 23.5 4.55 23.5 3.95 23.45 3.25 23.5 2.6 23.5 Q2.6 23.5 2.6 23.5 2.6 23.5 2.6 23.5 2.4 23.5 2.35 23.5 2.3 23.5 2.25 23.45 2.25 23.4 2.25 23.2 2.25 23.2 2.25 23.2 2.25 23.2 2.25 23.2 2.25 23.15 2.25 23.15 L2.25 17.7 3.05 17.5 2.25 16.75 2.25 16.1 2.25 15.45 2.25 14.45 2.65 14.15 2.25 13.9 2.25 10.65 2.65 10.45 2.25 9.9 2.25 9.0 2.25 8.35 2.25 7.7 2.75 7.2 2.25 6.85 2.25 2.6 Q2.25 2.55 2.25 2.55 2.25 2.4 2.25 2.35 2.3 2.25 2.35 2.25 2.4 2.2 2.55 2.2 2.55 2.2 2.6 2.2 2.6 2.2 2.6 2.2 2.6 2.2 2.6 2.2 L2.6 2.2" fill="#000000" fill-rule="evenodd" stroke="none"/>
    </g>
    <g id="shape1" transform="matrix(1.0, 0.0, 0.0, 1.0, 0.0, 0.0)">
      <path d="M6.5 6.05 Q6.6 6.1 6.75 6.15 6.8 6.2 6.9 6.3 6.95 6.35 7.0 6.45 7.05 6.5 7.1 6.6 7.1 6.65 7.15 6.75 7.15 6.8 7.15 6.9 7.15 6.9 7.15 6.95 7.15 7.0 7.15 7.0 L7.15 15.1 7.65 15.55 7.85 15.55 7.95 15.3 8.35 15.35 8.35 15.45 8.55 15.55 8.55 15.65 8.5 15.8 8.15 15.85 8.1 15.7 7.95 15.75 7.65 15.55 7.15 15.45 7.15 18.35 Q7.15 18.55 7.1 18.7 7.1 18.9 7.05 19.0 7.0 19.15 6.95 19.25 6.9 19.35 6.8 19.45 6.75 19.5 6.7 19.55 6.65 19.6 6.6 19.65 6.55 19.65 6.5 19.7 6.5 19.7 6.5 19.7 L6.5 20.75 10.15 20.75 10.15 19.75 Q10.05 19.7 10.0 19.6 9.9 19.5 9.85 19.4 9.8 19.25 9.75 19.15 9.7 19.05 9.7 18.95 9.65 18.85 9.65 18.7 9.65 18.65 9.65 18.55 9.65 18.5 9.65 18.45 9.65 18.4 9.65 18.4 9.65 18.4 9.65 13.2 9.65 7.8 9.65 7.3 9.65 7.15 9.65 6.95 9.7 6.85 9.75 6.7 9.75 6.6 9.85 6.5 9.9 6.4 9.95 6.35 10.0 6.25 10.1 6.2 10.15 6.15 10.2 6.15 10.25 6.1 10.25 6.1 10.3 6.1 10.3 6.05 L10.3 5.25 6.5 5.25 6.5 6.05 M17.2 17.4 L16.05 15.2 Q16.05 15.2 16.0 15.15 15.9 15.1 15.8 15.05 15.65 14.95 15.5 14.85 15.3 14.75 15.1 14.6 14.9 14.4 14.7 14.25 14.45 14.0 14.2 13.8 13.95 13.55 13.75 13.25 13.5 12.95 13.3 12.6 L17.4 8.1 Q17.4 8.1 17.45 8.05 17.55 7.95 17.65 7.8 17.75 7.65 17.9 7.5 18.05 7.35 18.2 7.2 18.35 7.0 18.55 6.8 18.7 6.65 18.85 6.5 19.05 6.35 19.2 6.25 19.35 6.15 19.45 6.1 L19.45 5.25 14.95 5.25 14.95 6.1 Q14.95 6.1 15.0 6.1 15.0 6.15 15.05 6.2 15.1 6.25 15.15 6.3 15.2 6.35 15.25 6.45 15.3 6.55 15.3 6.65 15.3 6.75 15.3 6.85 15.25 7.0 15.15 7.15 15.1 7.3 14.95 7.45 L10.35 12.6 12.85 16.0 13.4 16.05 Q13.4 16.05 13.35 16.1 13.35 16.2 13.4 16.2 13.6 16.25 13.75 16.25 L13.9 16.15 13.95 16.2 14.3 16.35 14.15 16.45 13.2 16.45 13.2 16.75 14.45 18.15 Q14.45 18.15 14.5 18.2 14.55 18.25 14.65 18.35 14.7 18.45 14.8 18.55 14.9 18.7 15.0 18.8 15.05 18.95 15.1 19.1 15.2 19.25 15.2 19.35 15.2 19.5 15.15 19.6 15.1 19.75 15.0 19.8 L15.0 20.7 19.5 20.7 19.5 19.75 Q19.5 19.75 19.45 19.75 19.4 19.7 19.35 19.7 19.25 19.65 19.15 19.6 19.05 19.5 18.9 19.4 18.75 19.25 18.55 19.1 18.4 18.9 18.2 18.7 17.95 18.45 17.7 18.15 17.45 17.8 17.2 17.4 L17.2 17.4 M14.55 16.45 L14.4 16.35 14.55 16.2 14.6 16.35 14.65 16.4 14.55 16.45" fill="#f1edf8" fill-rule="evenodd" stroke="none"/>
    </g>
  </defs>
</svg>
