<?xml version="1.0" encoding="UTF-8" standalone="no"?>
<svg xmlns:ffdec="https://www.free-decompiler.com/flash" xmlns:xlink="http://www.w3.org/1999/xlink" ffdec:objectType="frame" height="26.55px" width="70.8px" xmlns="http://www.w3.org/2000/svg">
  <g transform="matrix(1.0, 0.0, 0.0, 1.0, 0.2, 0.4)">
    <use ffdec:characterId="3" height="26.0" transform="matrix(1.0, 0.0, 0.0, 1.0, 0.0, 0.0)" width="26.0" xlink:href="#shape0"/>
    <use ffdec:characterId="55" height="26.0" transform="matrix(1.0, 0.0, 0.0, 1.0, 0.0, 0.0)" width="26.0" xlink:href="#shape1"/>
    <use ffdec:characterId="55" height="26.0" transform="matrix(1.0, 0.0, 0.0, 1.0, 0.0, 0.0)" width="26.0" xlink:href="#shape1"/>
    <use ffdec:characterId="68" height="26.0" transform="matrix(1.0, 0.0, 0.0, 1.0, 0.0, 0.0)" width="26.0" xlink:href="#shape2"/>
    <use ffdec:characterId="68" height="26.0" transform="matrix(1.0, 0.0, 0.0, 1.0, 0.0, 0.0)" width="26.0" xlink:href="#shape2"/>
  </g>
  <defs>
    <g id="shape0" transform="matrix(1.0, 0.0, 0.0, 1.0, 0.0, 0.0)">
      <path d="M23.5 2.45 Q23.5 2.5 23.5 2.5 23.5 2.55 23.5 2.55 23.5 2.55 23.5 2.55 23.5 2.6 23.5 2.6 L23.5 4.05 22.85 3.8 23.5 4.5 23.5 5.25 22.95 5.25 23.5 6.45 23.5 7.1 23.3 8.15 23.5 7.8 23.5 9.55 22.85 9.85 23.15 10.05 23.75 9.8 23.75 8.05 23.5 8.4 23.75 7.35 23.75 6.7 23.2 5.5 23.75 5.5 23.75 4.75 23.1 4.05 23.75 4.3 23.75 2.85 Q23.75 2.8 23.75 2.8 23.75 2.7 23.75 2.65 23.75 2.55 23.7 2.55 23.7 2.5 23.65 2.5 23.6 2.5 23.5 2.45 L23.5 2.45 M23.5 10.4 L23.5 22.5 23.5 23.15 Q23.5 23.4 23.5 23.4 23.45 23.5 23.4 23.5 23.35 23.5 23.15 23.5 L22.5 23.5 21.85 23.5 20.95 23.5 21.0 23.75 22.1 23.75 22.75 23.75 23.4 23.75 Q23.65 23.75 23.7 23.75 23.75 23.7 23.75 23.4 L23.75 22.75 23.75 10.55 23.5 10.4 M20.7 22.75 L19.95 23.5 16.1 23.5 15.25 23.05 15.2 23.5 14.15 23.5 13.9 23.5 12.75 23.4 12.05 23.5 10.85 23.5 10.7 23.3 10.2 23.55 9.7 23.5 8.85 23.25 8.4 23.5 7.5 23.5 7.25 23.35 6.45 23.5 5.85 23.5 5.2 23.5 4.55 23.5 3.95 23.45 3.25 23.5 2.85 23.5 Q2.85 23.55 2.85 23.6 2.85 23.65 2.85 23.7 2.8 23.7 2.8 23.75 2.85 23.75 2.85 23.75 2.85 23.75 2.85 23.75 L3.5 23.75 4.2 23.7 4.8 23.75 5.45 23.75 6.05 23.75 6.7 23.75 7.45 23.6 7.75 23.75 8.65 23.75 9.1 23.5 9.9 23.75 10.45 23.8 10.95 23.55 11.1 23.75 12.3 23.75 13.0 23.65 14.1 23.75 14.4 23.75 15.4 23.75 15.5 23.3 16.35 23.75 20.15 23.75 20.75 23.2 20.7 22.75" fill="#ffffff" fill-rule="evenodd" stroke="none"/>
      <path d="M2.6 2.2 L5.95 2.2 6.2 2.65 6.5 2.4 7.75 2.2 13.5 2.2 13.7 2.7 14.15 2.2 15.45 2.2 16.65 2.2 17.15 2.65 17.35 2.2 18.0 2.2 23.15 2.2 Q23.35 2.2 23.4 2.25 23.45 2.25 23.5 2.35 23.5 2.4 23.5 2.55 23.5 2.55 23.5 2.6 L23.5 4.05 22.85 3.8 23.5 4.5 23.5 5.25 22.95 5.25 23.5 6.45 23.5 7.1 23.3 8.15 23.5 7.8 23.5 9.55 22.85 9.85 23.5 10.3 23.5 22.5 23.5 23.15 Q23.5 23.4 23.5 23.4 23.45 23.5 23.4 23.5 23.35 23.5 23.15 23.5 L22.5 23.5 21.85 23.5 20.75 23.5 20.7 22.75 19.95 23.5 16.1 23.5 15.25 23.05 15.2 23.5 14.15 23.5 13.9 23.5 12.75 23.4 12.05 23.5 10.85 23.5 10.7 23.3 10.2 23.55 9.7 23.5 8.85 23.25 8.4 23.5 7.5 23.5 7.25 23.35 6.45 23.5 5.85 23.5 5.2 23.5 4.55 23.5 3.95 23.45 3.25 23.5 2.6 23.5 Q2.6 23.5 2.6 23.5 2.6 23.5 2.6 23.5 2.4 23.5 2.35 23.5 2.3 23.5 2.25 23.45 2.25 23.4 2.25 23.2 2.25 23.2 2.25 23.2 2.25 23.2 2.25 23.2 2.25 23.15 2.25 23.15 L2.25 17.7 3.05 17.5 2.25 16.75 2.25 16.1 2.25 15.45 2.25 14.45 2.65 14.15 2.25 13.9 2.25 10.65 2.65 10.45 2.25 9.9 2.25 9.0 2.25 8.35 2.25 7.7 2.75 7.2 2.25 6.85 2.25 2.6 Q2.25 2.55 2.25 2.55 2.25 2.4 2.25 2.35 2.3 2.25 2.35 2.25 2.4 2.2 2.55 2.2 2.55 2.2 2.6 2.2 2.6 2.2 2.6 2.2 2.6 2.2 2.6 2.2 L2.6 2.2" fill="#000000" fill-rule="evenodd" stroke="none"/>
    </g>
    <g id="shape1" transform="matrix(1.0, 0.0, 0.0, 1.0, 0.0, 0.0)">
      <path d="M6.2 4.65 L4.85 5.3 4.95 6.85 Q4.95 6.85 5.0 6.85 5.1 6.9 5.2 6.95 5.3 7.05 5.4 7.15 5.5 7.25 5.55 7.4 5.65 7.6 5.65 7.8 5.7 8.05 5.65 8.35 5.6 8.7 5.45 9.1 5.3 9.5 5.05 10.0 5.05 10.0 5.1 9.95 5.15 9.9 5.2 9.85 5.3 9.8 5.35 9.75 5.45 9.65 5.55 9.55 5.65 9.45 5.75 9.35 5.85 9.25 5.95 9.15 6.05 9.05 6.1 8.9 6.2 8.8 6.25 8.7 6.25 8.7 6.3 8.65 6.55 8.25 6.4 8.45 6.5 8.35 6.55 8.2 6.65 8.05 6.75 7.9 6.85 7.7 6.95 7.55 7.05 7.35 7.1 7.2 7.2 7.0 7.2 6.85 7.25 6.65 7.25 6.55 7.25 6.35 7.2 6.15 7.15 5.95 7.1 5.75 7.0 5.6 6.9 5.45 6.85 5.3 6.7 5.15 6.65 5.05 6.5 4.95 6.45 4.85 6.35 4.75 6.3 4.7 6.2 4.65 6.2 4.65 6.2 4.65 L6.2 4.65 M9.55 4.65 L8.2 5.3 8.35 6.85 Q8.35 6.85 8.4 6.85 8.5 6.9 8.55 6.95 8.65 7.05 8.75 7.15 8.85 7.25 8.9 7.4 9.0 7.6 9.05 7.8 9.05 8.05 9.0 8.35 8.95 8.7 8.85 9.1 8.7 9.5 8.4 10.0 8.4 10.0 8.45 9.95 8.5 9.9 8.55 9.85 8.65 9.8 8.7 9.75 8.8 9.65 8.9 9.55 9.0 9.45 9.1 9.35 9.2 9.25 9.3 9.15 9.4 9.05 9.45 8.9 9.55 8.8 9.6 8.7 9.6 8.7 9.65 8.65 9.7 8.55 9.75 8.45 9.85 8.35 9.9 8.2 10.0 8.05 10.1 7.9 10.2 7.7 10.3 7.55 10.4 7.35 10.45 7.2 10.55 7.0 10.6 6.85 10.65 6.65 10.65 6.55 10.65 6.35 10.6 6.15 10.55 5.95 10.45 5.75 10.4 5.6 10.3 5.45 10.2 5.3 10.1 5.15 10.0 5.05 9.9 4.95 9.8 4.85 9.7 4.75 9.65 4.7 9.6 4.65 9.55 4.65 9.55 4.65 L9.55 4.65" fill="#f1edf8" fill-rule="evenodd" stroke="none"/>
    </g>
    <g id="shape2" transform="matrix(1.0, 0.0, 0.0, 1.0, 0.0, 0.0)">
      <path d="M20.4 15.05 L19.0 15.9 19.15 17.55 Q19.15 17.55 19.2 17.6 19.3 17.6 19.4 17.7 19.5 17.75 19.6 17.9 19.7 18.05 19.75 18.25 19.85 18.45 19.85 18.75 19.85 19.05 19.8 19.4 19.7 19.85 19.55 20.3 19.35 20.85 19.0 21.45 19.0 21.45 19.05 21.4 19.15 21.35 19.2 21.3 19.3 21.2 19.35 21.1 19.5 21.0 19.6 20.9 19.75 20.8 19.85 20.65 19.95 20.5 20.1 20.4 20.2 20.25 20.3 20.1 20.4 19.95 20.45 19.8 20.45 19.8 20.5 19.75 20.55 19.65 20.65 19.5 20.75 19.35 20.85 19.2 21.0 19.0 21.1 18.8 21.25 18.6 21.35 18.4 21.45 18.15 21.55 17.95 21.65 17.7 21.7 17.55 21.75 17.3 21.75 17.15 21.75 16.9 21.7 16.65 21.65 16.4 21.55 16.2 21.45 16.0 21.35 15.85 21.2 15.7 21.1 15.55 20.95 15.45 20.85 15.35 20.75 15.25 20.6 15.15 20.55 15.1 20.45 15.1 20.45 15.05 20.4 15.05 L20.4 15.05" fill="#f1edf8" fill-rule="evenodd" stroke="none"/>
    </g>
  </defs>
</svg>
