<?xml version="1.0" encoding="UTF-8" standalone="no"?>
<svg xmlns:ffdec="https://www.free-decompiler.com/flash" xmlns:xlink="http://www.w3.org/1999/xlink" ffdec:objectType="frame" height="26.55px" width="70.8px" xmlns="http://www.w3.org/2000/svg">
  <g transform="matrix(1.0, 0.0, 0.0, 1.0, 0.2, 0.4)">
    <use ffdec:characterId="3" height="26.0" transform="matrix(1.0, 0.0, 0.0, 1.0, 0.0, 0.0)" width="26.0" xlink:href="#shape0"/>
    <use ffdec:characterId="56" height="26.0" transform="matrix(1.0, 0.0, 0.0, 1.0, 0.0, 0.0)" width="26.0" xlink:href="#shape1"/>
    <use ffdec:characterId="56" height="26.0" transform="matrix(1.0, 0.0, 0.0, 1.0, 0.0, 0.0)" width="26.0" xlink:href="#shape1"/>
    <use ffdec:characterId="57" height="26.0" transform="matrix(1.0, 0.0, 0.0, 1.0, 0.0, 0.0)" width="26.0" xlink:href="#shape2"/>
    <use ffdec:characterId="57" height="26.0" transform="matrix(1.0, 0.0, 0.0, 1.0, 0.0, 0.0)" width="26.0" xlink:href="#shape2"/>
  </g>
  <defs>
    <g id="shape0" transform="matrix(1.0, 0.0, 0.0, 1.0, 0.0, 0.0)">
      <path d="M23.5 2.45 Q23.5 2.5 23.5 2.5 23.5 2.55 23.5 2.55 23.5 2.55 23.5 2.55 23.5 2.6 23.5 2.6 L23.5 4.05 22.85 3.8 23.5 4.5 23.5 5.25 22.95 5.25 23.5 6.45 23.5 7.1 23.3 8.15 23.5 7.8 23.5 9.55 22.85 9.85 23.15 10.05 23.75 9.8 23.75 8.05 23.5 8.4 23.75 7.35 23.75 6.7 23.2 5.5 23.75 5.5 23.75 4.75 23.1 4.05 23.75 4.3 23.75 2.85 Q23.75 2.8 23.75 2.8 23.75 2.7 23.75 2.65 23.75 2.55 23.7 2.55 23.7 2.5 23.65 2.5 23.6 2.5 23.5 2.45 L23.5 2.45 M23.5 10.4 L23.5 22.5 23.5 23.15 Q23.5 23.4 23.5 23.4 23.45 23.5 23.4 23.5 23.35 23.5 23.15 23.5 L22.5 23.5 21.85 23.5 20.95 23.5 21.0 23.75 22.1 23.75 22.75 23.75 23.4 23.75 Q23.65 23.75 23.7 23.75 23.75 23.7 23.75 23.4 L23.75 22.75 23.75 10.55 23.5 10.4 M20.7 22.75 L19.95 23.5 16.1 23.5 15.25 23.05 15.2 23.5 14.15 23.5 13.9 23.5 12.75 23.4 12.05 23.5 10.85 23.5 10.7 23.3 10.2 23.55 9.7 23.5 8.85 23.25 8.4 23.5 7.5 23.5 7.25 23.35 6.45 23.5 5.85 23.5 5.2 23.5 4.55 23.5 3.95 23.45 3.25 23.5 2.85 23.5 Q2.85 23.55 2.85 23.6 2.85 23.65 2.85 23.7 2.8 23.7 2.8 23.75 2.85 23.75 2.85 23.75 2.85 23.75 2.85 23.75 L3.5 23.75 4.2 23.7 4.8 23.75 5.45 23.75 6.05 23.75 6.7 23.75 7.45 23.6 7.75 23.75 8.65 23.75 9.1 23.5 9.9 23.75 10.45 23.8 10.95 23.55 11.1 23.75 12.3 23.75 13.0 23.65 14.1 23.75 14.4 23.75 15.4 23.75 15.5 23.3 16.35 23.75 20.15 23.75 20.75 23.2 20.7 22.75" fill="#ffffff" fill-rule="evenodd" stroke="none"/>
      <path d="M2.6 2.2 L5.95 2.2 6.2 2.65 6.5 2.4 7.75 2.2 13.5 2.2 13.7 2.7 14.15 2.2 15.45 2.2 16.65 2.2 17.15 2.65 17.35 2.2 18.0 2.2 23.15 2.2 Q23.35 2.2 23.4 2.25 23.45 2.25 23.5 2.35 23.5 2.4 23.5 2.55 23.5 2.55 23.5 2.6 L23.5 4.05 22.85 3.8 23.5 4.5 23.5 5.25 22.95 5.25 23.5 6.45 23.5 7.1 23.3 8.15 23.5 7.8 23.5 9.55 22.85 9.85 23.5 10.3 23.5 22.5 23.5 23.15 Q23.5 23.4 23.5 23.4 23.45 23.5 23.4 23.5 23.35 23.5 23.15 23.5 L22.5 23.5 21.85 23.5 20.75 23.5 20.7 22.75 19.95 23.5 16.1 23.5 15.25 23.05 15.2 23.5 14.15 23.5 13.9 23.5 12.75 23.4 12.05 23.5 10.85 23.5 10.7 23.3 10.2 23.55 9.7 23.5 8.85 23.25 8.4 23.5 7.5 23.5 7.25 23.35 6.45 23.5 5.85 23.5 5.2 23.5 4.55 23.5 3.95 23.45 3.25 23.5 2.6 23.5 Q2.6 23.5 2.6 23.5 2.6 23.5 2.6 23.5 2.4 23.5 2.35 23.5 2.3 23.5 2.25 23.45 2.25 23.4 2.25 23.2 2.25 23.2 2.25 23.2 2.25 23.2 2.25 23.2 2.25 23.15 2.25 23.15 L2.25 17.7 3.05 17.5 2.25 16.75 2.25 16.1 2.25 15.45 2.25 14.45 2.65 14.15 2.25 13.9 2.25 10.65 2.65 10.45 2.25 9.9 2.25 9.0 2.25 8.35 2.25 7.7 2.75 7.2 2.25 6.85 2.25 2.6 Q2.25 2.55 2.25 2.55 2.25 2.4 2.25 2.35 2.3 2.25 2.35 2.25 2.4 2.2 2.55 2.2 2.55 2.2 2.6 2.2 2.6 2.2 2.6 2.2 2.6 2.2 2.6 2.2 L2.6 2.2" fill="#000000" fill-rule="evenodd" stroke="none"/>
    </g>
    <g id="shape1" transform="matrix(1.0, 0.0, 0.0, 1.0, 0.0, 0.0)">
      <path d="M17.5 6.35 Q16.55 6.7 15.75 6.95 14.95 7.2 14.3 7.35 13.7 7.45 13.15 7.5 12.6 7.5 12.15 7.45 11.7 7.4 11.25 7.3 10.85 7.2 10.4 7.05 10.1 6.9 9.55 6.7 8.9 6.4 8.6 6.3 8.1 6.1 7.65 6.0 7.2 5.95 6.75 5.95 6.35 5.95 6.0 6.05 5.65 6.1 5.35 6.25 5.05 6.35 4.8 6.5 4.6 6.6 4.4 6.75 4.25 6.85 4.15 6.95 4.1 7.0 4.05 7.0 4.05 7.0 4.05 7.85 4.05 8.65 4.05 8.65 4.1 8.6 4.15 8.6 4.25 8.5 4.45 8.4 4.65 8.3 4.9 8.2 5.2 8.1 5.55 8.0 5.9 7.9 6.3 7.85 6.8 7.85 7.25 7.9 7.75 7.95 8.3 8.1 8.85 8.25 9.45 8.55 10.1 8.9 10.55 9.05 11.05 9.25 11.45 9.3 11.85 9.35 12.25 9.3 12.6 9.25 13.0 9.1 13.35 8.95 13.8 8.7 14.1 8.5 14.75 8.1 15.6 7.55 15.95 7.3 16.75 6.8 17.5 6.35 L17.5 6.35" fill="#f1edf8" fill-rule="evenodd" stroke="none"/>
    </g>
    <g id="shape2" transform="matrix(1.0, 0.0, 0.0, 1.0, 0.0, 0.0)">
      <path d="M17.8 18.05 L17.65 19.35 18.6 19.95 Q18.6 19.95 18.65 19.9 18.7 19.9 18.8 19.85 18.9 19.8 19.0 19.8 19.15 19.75 19.3 19.8 19.45 19.8 19.65 19.9 19.85 20.0 20.05 20.15 20.3 20.35 20.5 20.6 20.75 20.9 21.0 21.35 21.0 21.35 21.0 21.3 21.0 21.25 20.95 21.2 20.95 21.1 20.95 21.0 20.9 20.9 20.9 20.8 20.85 20.65 20.8 20.55 20.8 20.4 20.75 20.3 20.7 20.15 20.65 20.05 20.6 19.95 20.55 19.85 20.55 19.85 20.5 19.8 20.5 19.7 20.45 19.65 20.4 19.5 20.35 19.4 20.25 19.25 20.2 19.1 20.1 18.95 20.05 18.8 19.95 18.65 19.85 18.55 19.75 18.4 19.65 18.3 19.55 18.15 19.45 18.1 19.3 18.0 19.15 17.95 19.0 17.9 18.85 17.85 18.7 17.85 18.55 17.85 18.45 17.85 18.3 17.85 18.2 17.9 18.1 17.9 18.0 17.95 17.95 17.95 17.9 18.0 17.85 18.0 17.8 18.0 17.8 18.05 L17.8 18.05" fill="#f1edf8" fill-rule="evenodd" stroke="none"/>
    </g>
  </defs>
</svg>
