<?xml version="1.0" encoding="UTF-8" standalone="no"?>
<svg xmlns:ffdec="https://www.free-decompiler.com/flash" xmlns:xlink="http://www.w3.org/1999/xlink" ffdec:objectType="frame" height="26.55px" width="70.8px" xmlns="http://www.w3.org/2000/svg">
  <g transform="matrix(1.0, 0.0, 0.0, 1.0, 0.2, 0.4)">
    <use ffdec:characterId="27" height="26.0" transform="matrix(1.0, 0.0, 0.0, 1.0, 0.0, 0.0)" width="41.75" xlink:href="#shape0"/>
    <use ffdec:characterId="58" height="26.0" transform="matrix(1.0, 0.0, 0.0, 1.0, 0.0, 0.0)" width="41.75" xlink:href="#shape1"/>
    <use ffdec:characterId="58" height="26.0" transform="matrix(1.0, 0.0, 0.0, 1.0, 0.0, 0.0)" width="41.75" xlink:href="#shape1"/>
  </g>
  <defs>
    <g id="shape0" transform="matrix(1.0, 0.0, 0.0, 1.0, 0.0, 0.0)">
      <path d="M40.45 2.45 Q40.45 2.5 40.45 2.5 40.45 2.55 40.45 2.55 40.45 2.55 40.45 2.6 L40.45 4.05 39.8 3.8 40.45 4.5 40.45 5.25 39.9 5.25 40.45 6.45 40.45 7.1 40.25 8.15 40.45 7.8 40.45 9.55 39.8 9.85 40.1 10.05 40.7 9.8 40.7 8.05 40.45 8.4 40.7 7.35 40.7 6.7 40.15 5.5 40.7 5.5 40.7 4.75 40.05 4.05 40.7 4.3 40.7 2.85 Q40.7 2.8 40.7 2.8 40.7 2.7 40.7 2.65 40.7 2.55 40.65 2.55 40.65 2.5 40.6 2.5 40.55 2.5 40.45 2.45 L40.45 2.45 M40.45 10.4 L40.45 22.5 40.45 23.15 Q40.45 23.4 40.45 23.4 40.4 23.5 40.35 23.5 40.3 23.5 40.1 23.5 L39.45 23.5 38.8 23.5 37.9 23.5 37.95 23.75 39.05 23.75 39.7 23.75 40.35 23.75 Q40.6 23.75 40.65 23.75 40.7 23.7 40.7 23.4 L40.7 22.75 40.7 10.55 40.45 10.4 M37.65 22.75 L36.9 23.5 25.15 23.5 24.3 23.05 24.25 23.5 23.2 23.5 22.9 23.5 21.8 23.4 21.1 23.5 19.9 23.5 19.75 23.3 19.25 23.55 8.9 23.5 8.05 23.25 7.6 23.5 6.7 23.5 6.45 23.35 5.65 23.5 5.05 23.5 4.4 23.5 3.75 23.5 3.15 23.45 2.45 23.5 2.05 23.5 Q2.05 23.5 2.05 23.65 2.05 23.7 2.05 23.75 2.05 23.75 2.05 23.75 2.05 23.75 2.05 23.75 L2.7 23.75 3.4 23.7 4.0 23.75 4.65 23.75 5.25 23.75 5.9 23.75 6.7 23.6 6.95 23.75 7.85 23.75 18.15 23.75 18.95 23.75 19.5 23.8 20.0 23.55 20.1 23.75 21.35 23.75 22.05 23.65 23.15 23.75 23.45 23.75 24.45 23.75 24.55 23.3 25.35 23.75 37.1 23.75 37.7 23.2 37.65 22.75" fill="#ffffff" fill-rule="evenodd" stroke="none"/>
      <path d="M1.85 2.2 L5.15 2.2 5.4 2.65 5.7 2.4 6.95 2.2 13.95 2.2 14.1 2.7 14.55 2.2 15.85 2.2 28.95 2.2 29.45 2.65 29.65 2.2 30.3 2.2 40.1 2.2 Q40.3 2.2 40.35 2.25 40.4 2.25 40.45 2.35 40.45 2.4 40.45 2.55 40.45 2.55 40.45 2.6 L40.45 4.05 39.8 3.8 40.45 4.5 40.45 5.25 39.9 5.25 40.45 6.45 40.45 7.1 40.25 8.15 40.45 7.8 40.45 9.55 39.8 9.85 40.45 10.3 40.45 22.5 40.45 23.15 Q40.45 23.4 40.45 23.4 40.4 23.5 40.35 23.5 40.3 23.5 40.1 23.5 L39.45 23.5 38.8 23.5 37.7 23.5 37.65 22.75 36.9 23.5 25.15 23.5 24.3 23.05 24.25 23.5 23.2 23.5 22.9 23.5 21.8 23.4 21.1 23.5 19.9 23.5 19.75 23.3 19.25 23.55 8.9 23.5 8.05 23.25 7.6 23.5 6.7 23.5 6.45 23.35 5.65 23.5 5.05 23.5 4.4 23.5 3.75 23.5 3.15 23.45 2.45 23.5 1.85 23.5 Q1.8 23.5 1.8 23.5 1.8 23.5 1.8 23.5 1.6 23.5 1.55 23.5 1.5 23.5 1.45 23.45 1.45 23.4 1.45 23.2 1.45 23.2 1.45 23.2 1.45 23.2 1.45 23.2 1.45 23.15 1.45 23.15 L1.45 17.7 2.25 17.5 1.45 16.75 1.45 16.1 1.45 15.45 1.45 14.45 1.85 14.15 1.45 13.9 1.45 10.65 1.85 10.45 1.45 9.9 1.45 9.0 1.45 8.35 1.45 7.7 1.95 7.2 1.45 6.85 1.45 2.6 Q1.45 2.55 1.45 2.55 1.45 2.4 1.45 2.35 1.5 2.25 1.55 2.25 1.6 2.2 1.75 2.2 1.8 2.2 1.8 2.2 1.8 2.2 1.8 2.2 1.8 2.2 1.8 2.2 1.85 2.2 1.85 2.2 L1.85 2.2" fill="#000000" fill-rule="evenodd" stroke="none"/>
    </g>
    <g id="shape1" transform="matrix(1.0, 0.0, 0.0, 1.0, 0.0, 0.0)">
      <path d="M12.55 7.2 Q12.0 6.65 11.4 6.3 10.85 5.95 10.3 5.75 9.75 5.55 9.25 5.45 8.75 5.4 8.3 5.45 7.9 5.45 7.5 5.55 7.15 5.6 6.85 5.7 6.65 5.75 6.5 5.85 6.4 5.9 6.35 5.9 5.9 6.1 5.55 6.4 5.2 6.65 4.9 7.0 4.7 7.3 4.5 7.65 4.35 7.95 4.2 8.3 4.1 8.55 4.05 8.9 4.0 9.1 4.0 9.35 3.95 9.55 3.95 9.7 3.95 9.75 3.95 9.85 4.0 10.45 4.1 11.0 4.25 11.5 4.45 11.9 4.65 12.3 4.9 12.6 5.15 12.9 5.4 13.1 5.65 13.3 5.9 13.45 6.1 13.6 6.3 13.65 6.45 13.75 6.6 13.8 6.65 13.8 6.75 13.8 L7.05 13.8 7.2 13.55 7.4 13.6 7.7 13.3 8.15 13.3 Q8.0 13.35 7.9 13.45 7.8 13.5 7.7 13.6 7.6 13.65 7.55 13.75 7.5 13.8 7.4 13.85 7.35 13.9 7.35 14.0 7.3 14.0 7.25 14.05 7.25 14.1 7.25 14.1 7.25 14.15 7.25 14.15 7.95 14.3 8.55 14.5 9.1 14.65 9.5 14.9 9.9 15.1 10.15 15.3 10.4 15.5 10.6 15.75 10.75 15.95 10.85 16.15 10.9 16.3 10.95 16.45 10.95 16.55 10.95 16.65 10.95 16.7 10.95 16.75 10.95 17.05 10.8 17.35 10.7 17.55 10.45 17.75 10.25 17.95 9.95 18.05 9.65 18.15 9.35 18.25 9.05 18.3 8.75 18.35 8.5 18.4 8.2 18.4 8.05 18.4 7.85 18.4 7.8 18.4 7.7 18.4 7.2 18.35 6.75 18.25 6.35 18.15 6.0 17.95 5.7 17.8 5.4 17.6 5.2 17.4 5.0 17.2 4.85 17.0 4.7 16.8 4.6 16.65 4.5 16.5 4.45 16.35 4.45 16.25 4.4 16.2 4.4 16.15 L3.25 16.15 3.25 18.6 Q3.45 19.0 3.75 19.3 4.05 19.6 4.45 19.8 4.75 20.05 5.2 20.2 5.55 20.35 6.0 20.45 6.35 20.55 6.75 20.65 7.05 20.7 7.35 20.75 7.6 20.75 7.8 20.75 7.9 20.75 7.95 20.8 8.5 20.8 9.05 20.75 9.5 20.75 9.95 20.65 10.3 20.55 10.65 20.4 11.0 20.3 11.25 20.15 11.5 20.0 11.7 19.85 11.85 19.75 12.0 19.6 12.1 19.55 12.15 19.45 12.2 19.4 12.2 19.4 12.45 19.1 12.65 18.8 12.85 18.5 13.0 18.2 13.1 17.9 13.15 17.6 13.25 17.35 13.25 17.1 13.3 16.85 13.3 16.65 13.3 16.45 13.25 16.3 13.25 16.2 13.25 16.05 13.25 16.05 13.2 16.0 13.15 15.65 13.0 15.3 12.85 15.0 12.65 14.7 12.45 14.45 12.2 14.15 11.95 13.95 11.7 13.75 11.5 13.55 11.25 13.4 11.05 13.3 10.85 13.15 10.7 13.1 10.55 13.0 10.5 13.0 10.45 12.95 9.15 12.3 7.9 11.7 7.5 11.55 7.2 11.3 6.95 11.15 6.7 10.9 6.55 10.7 6.4 10.5 6.3 10.3 6.25 10.1 6.15 9.95 6.15 9.75 6.15 9.6 6.15 9.45 6.15 9.35 6.15 9.3 6.15 9.25 6.15 9.2 6.25 8.75 6.5 8.4 6.75 8.1 7.1 7.9 7.4 7.7 7.85 7.6 8.2 7.55 8.65 7.55 9.05 7.6 9.5 7.7 9.9 7.85 10.25 8.05 10.6 8.25 10.85 8.5 11.15 8.75 11.25 9.05 L12.55 9.05 12.55 7.2" fill="#f1edf8" fill-rule="evenodd" stroke="none"/>
      <path d="M20.75 19.25 L20.75 14.85 20.75 14.25 Q20.75 13.95 20.7 13.6 20.65 13.3 20.55 13.0 20.45 12.75 20.3 12.5 20.15 12.2 19.95 12.0 19.75 11.75 19.5 11.6 19.2 11.4 18.9 11.25 18.55 11.15 18.15 11.1 17.75 11.0 17.35 11.0 17.2 11.0 17.05 11.0 16.85 11.05 16.7 11.05 16.55 11.1 16.4 11.1 16.25 11.15 16.15 11.2 16.0 11.25 15.85 11.3 15.75 11.4 15.65 11.45 15.55 11.5 15.45 11.6 15.35 11.65 15.3 11.75 L15.3 9.75 15.15 9.8 15.1 9.95 15.0 9.9 14.9 9.9 14.9 9.75 14.95 9.75 14.95 9.7 15.0 9.6 15.15 9.6 15.15 9.5 15.3 9.4 15.3 6.95 Q15.3 6.8 15.35 6.65 15.35 6.5 15.4 6.35 15.4 6.2 15.5 6.05 15.5 5.95 15.55 5.8 15.6 5.7 15.65 5.6 15.7 5.55 15.75 5.45 15.8 5.4 15.8 5.35 15.85 5.35 15.85 5.3 L15.25 5.3 12.8 6.0 Q12.9 6.05 13.0 6.1 13.1 6.2 13.2 6.3 13.25 6.35 13.3 6.45 13.35 6.55 13.4 6.65 13.4 6.75 13.45 6.85 13.45 6.9 13.45 7.0 13.5 7.05 13.5 7.1 13.5 7.1 13.5 7.1 L13.5 15.75 13.5 17.9 Q13.5 18.25 13.45 18.55 13.45 18.8 13.4 19.05 13.35 19.25 13.3 19.4 13.25 19.55 13.2 19.7 13.15 19.8 13.1 19.85 13.05 19.95 13.0 20.0 13.0 20.0 12.95 20.05 12.95 20.05 12.95 20.05 L12.95 20.8 16.0 20.8 16.0 20.0 Q15.9 20.0 15.8 19.9 15.75 19.85 15.7 19.7 15.6 19.55 15.6 19.35 15.55 19.2 15.5 19.0 15.5 18.8 15.45 18.6 15.45 18.45 15.45 18.25 15.45 18.15 15.4 18.05 15.4 18.0 15.4 17.95 L15.4 14.35 Q15.4 14.35 15.4 14.3 15.4 14.2 15.45 14.1 15.45 14.0 15.5 13.85 15.55 13.7 15.65 13.55 15.7 13.4 15.85 13.25 16.0 13.15 16.2 13.0 16.4 12.9 16.7 12.85 17.0 12.75 17.35 12.75 17.65 12.75 17.9 12.85 18.1 12.9 18.3 13.05 18.45 13.2 18.55 13.4 18.65 13.55 18.75 13.75 18.8 13.95 18.85 14.15 18.85 14.3 18.9 14.45 18.9 14.55 18.9 14.65 18.9 14.7 18.9 14.75 L18.9 18.8 18.9 19.25 Q18.9 19.4 18.85 19.5 18.85 19.6 18.8 19.7 18.8 19.8 18.75 19.85 18.7 19.9 18.65 19.95 18.6 20.0 18.55 20.0 18.55 20.05 18.5 20.05 18.45 20.05 18.45 20.05 18.45 20.05 18.4 20.05 L18.4 20.8 21.25 20.8 21.25 20.05 Q21.15 20.05 21.1 20.0 21.05 20.0 21.0 19.95 20.95 19.9 20.9 19.8 20.85 19.75 20.85 19.65 20.8 19.6 20.8 19.5 20.8 19.45 20.8 19.4 20.75 19.35 20.75 19.3 20.75 19.3 20.75 19.25 L20.75 19.25" fill="#f1edf8" fill-rule="evenodd" stroke="none"/>
      <path d="M21.65 9.45 L22.85 10.3 24.0 9.45 24.0 8.3 22.85 7.5 21.65 8.3 21.65 9.45 M23.8 19.2 L23.8 14.6 23.75 14.65 23.65 14.75 23.6 14.65 23.5 14.65 23.45 14.6 23.5 14.6 23.55 14.55 23.6 14.55 23.65 14.55 23.75 14.5 23.85 14.4 23.85 11.8 Q23.85 11.7 23.85 11.65 23.9 11.55 23.9 11.5 23.95 11.45 23.95 11.4 24.0 11.35 24.05 11.3 24.05 11.3 24.1 11.25 24.15 11.25 24.15 11.25 24.2 11.2 24.2 11.2 24.2 11.2 24.25 11.2 L23.8 11.2 21.5 11.55 Q21.55 11.55 21.6 11.6 21.65 11.6 21.7 11.6 21.75 11.65 21.75 11.7 21.8 11.7 21.8 11.75 21.8 11.75 21.85 11.8 21.85 11.85 21.85 11.85 21.85 11.85 21.85 11.9 21.85 11.9 21.85 11.9 L21.85 18.6 21.85 19.2 Q21.85 19.4 21.8 19.55 21.8 19.7 21.75 19.8 21.75 19.9 21.7 20.0 21.65 20.05 21.65 20.1 21.6 20.15 21.55 20.2 21.55 20.2 21.5 20.25 21.45 20.25 21.45 20.25 21.45 20.25 21.45 20.25 L21.45 20.8 24.25 20.8 24.25 20.25 Q24.2 20.25 24.1 20.2 24.05 20.15 24.0 20.1 24.0 20.05 23.95 19.95 23.9 19.85 23.9 19.75 23.85 19.65 23.85 19.55 23.85 19.45 23.85 19.4 23.8 19.3 23.8 19.25 23.8 19.25 23.8 19.2 L23.8 19.2" fill="#f1edf8" fill-rule="evenodd" stroke="none"/>
      <path d="M30.3 7.05 Q30.3 7.05 30.4 7.05 30.5 7.05 30.6 7.1 30.75 7.1 30.9 7.15 31.1 7.2 31.25 7.3 31.45 7.4 31.6 7.55 31.75 7.7 31.9 7.9 32.05 8.15 32.1 8.4 32.2 8.75 32.2 9.15 L32.9 9.15 33.25 6.45 32.85 6.55 Q32.85 6.55 32.8 6.5 32.75 6.4 32.65 6.3 32.55 6.15 32.45 6.05 32.25 5.9 32.1 5.75 31.9 5.6 31.65 5.5 31.35 5.4 31.05 5.3 30.7 5.2 30.35 5.2 29.95 5.2 29.5 5.25 29.2 5.3 28.9 5.35 28.6 5.45 28.3 5.6 28.0 5.7 27.7 5.9 27.4 6.1 27.1 6.35 26.85 6.65 26.6 7.0 26.35 7.35 26.2 7.75 26.0 8.2 25.95 8.75 25.85 9.3 25.85 9.9 L25.85 11.75 24.7 11.7 24.05 12.45 24.0 12.95 25.85 13.0 25.85 16.85 25.85 17.9 Q25.85 18.25 25.8 18.5 25.8 18.8 25.75 19.0 25.7 19.15 25.65 19.3 25.6 19.45 25.55 19.55 25.5 19.65 25.45 19.7 25.4 19.75 25.35 19.75 25.3 19.8 25.3 19.8 25.3 19.8 25.25 19.8 L25.25 20.8 28.3 20.8 28.3 19.8 Q28.2 19.8 28.15 19.7 28.05 19.65 28.0 19.5 27.95 19.4 27.9 19.2 27.85 19.05 27.85 18.85 27.8 18.7 27.8 18.5 27.75 18.35 27.75 18.2 27.75 18.1 27.75 18.0 27.75 17.95 27.75 17.9 L27.75 13.0 29.8 12.95 Q29.8 12.95 29.85 12.95 29.85 12.95 29.9 12.95 30.0 12.95 30.1 12.95 30.2 12.9 30.3 12.9 30.4 12.85 30.5 12.75 30.65 12.7 30.8 12.6 30.95 12.45 31.1 12.3 31.25 12.15 31.4 11.95 L31.95 11.25 31.25 10.9 Q31.25 10.9 31.25 10.95 31.2 10.95 31.15 11.0 31.1 11.05 31.05 11.05 30.95 11.1 30.8 11.15 30.7 11.2 30.5 11.2 30.3 11.25 30.1 11.25 29.85 11.3 29.55 11.25 29.2 11.25 28.85 11.25 28.85 11.25 28.85 11.25 28.8 11.25 28.75 11.3 28.7 11.3 28.7 11.35 28.65 11.35 28.55 11.4 28.5 11.45 28.4 11.45 28.3 11.5 28.25 11.55 28.1 11.55 28.0 11.6 27.85 11.65 27.75 11.65 L27.75 10.45 Q27.75 10.45 27.75 10.3 27.75 10.15 27.75 9.95 27.8 9.65 27.85 9.4 27.9 9.05 28.05 8.75 28.15 8.4 28.35 8.15 28.55 7.8 28.8 7.6 29.1 7.35 29.45 7.2 29.85 7.05 30.3 7.05 L30.3 7.05" fill="#f1edf8" fill-rule="evenodd" stroke="none"/>
      <path d="M38.45 10.95 L38.4 10.95 Q38.4 10.95 38.45 10.95 L38.45 10.95 Q38.5 11.0 38.45 11.0 38.35 11.05 37.85 11.05 37.2 11.05 35.95 11.0 35.95 11.0 35.7 11.15 L35.7 9.6 35.1 8.8 Q35.1 8.9 35.05 9.05 35.0 9.15 34.9 9.3 34.85 9.4 34.75 9.5 34.65 9.6 34.5 9.7 34.4 9.8 34.3 9.85 34.2 9.95 34.1 10.0 34.05 10.05 34.0 10.1 33.95 10.1 33.95 10.1 L33.95 11.15 32.2 11.15 31.6 12.05 31.6 12.6 33.5 12.6 33.95 12.6 33.95 16.7 33.95 17.8 Q33.95 18.2 33.95 18.55 33.9 18.85 33.85 19.1 33.8 19.3 33.75 19.5 33.7 19.65 33.65 19.8 33.6 19.9 33.55 19.95 33.5 20.0 33.45 20.05 33.45 20.1 33.4 20.1 33.4 20.1 33.35 20.1 L33.35 20.8 36.25 20.8 36.25 20.1 Q36.15 20.1 36.1 20.0 36.05 19.9 35.95 19.75 35.9 19.6 35.85 19.35 35.85 19.2 35.8 18.95 35.75 18.75 35.75 18.55 35.7 18.35 35.7 18.15 35.7 18.05 35.65 17.9 35.65 17.85 35.65 17.8 L35.7 12.55 36.85 12.55 Q36.85 12.55 36.9 12.55 36.95 12.55 37.0 12.55 37.1 12.5 37.15 12.5 37.25 12.5 37.35 12.45 37.45 12.4 37.55 12.4 37.7 12.35 37.75 12.3 37.9 12.25 37.95 12.15 38.05 12.1 38.1 12.0 L38.5 11.0 38.45 10.95" fill="#f1edf8" fill-rule="evenodd" stroke="none"/>
    </g>
  </defs>
</svg>
