<?xml version="1.0" encoding="UTF-8" standalone="no"?>
<svg xmlns:ffdec="https://www.free-decompiler.com/flash" xmlns:xlink="http://www.w3.org/1999/xlink" ffdec:objectType="frame" height="26.55px" width="70.8px" xmlns="http://www.w3.org/2000/svg">
  <g transform="matrix(1.0, 0.0, 0.0, 1.0, 0.2, 0.4)">
    <use ffdec:characterId="3" height="26.0" transform="matrix(1.0, 0.0, 0.0, 1.0, 0.0, 0.0)" width="26.0" xlink:href="#shape0"/>
    <use ffdec:characterId="62" height="26.0" transform="matrix(1.0, 0.0, 0.0, 1.0, 0.0, 0.0)" width="26.0" xlink:href="#shape1"/>
    <use ffdec:characterId="62" height="26.0" transform="matrix(1.0, 0.0, 0.0, 1.0, 0.0, 0.0)" width="26.0" xlink:href="#shape1"/>
  </g>
  <defs>
    <g id="shape0" transform="matrix(1.0, 0.0, 0.0, 1.0, 0.0, 0.0)">
      <path d="M23.5 2.45 Q23.5 2.5 23.5 2.5 23.5 2.55 23.5 2.55 23.5 2.55 23.5 2.55 23.5 2.6 23.5 2.6 L23.5 4.05 22.85 3.8 23.5 4.5 23.5 5.25 22.95 5.25 23.5 6.45 23.5 7.1 23.3 8.15 23.5 7.8 23.5 9.55 22.85 9.85 23.15 10.05 23.75 9.8 23.75 8.05 23.5 8.4 23.75 7.35 23.75 6.7 23.2 5.5 23.75 5.5 23.75 4.75 23.1 4.05 23.75 4.3 23.75 2.85 Q23.75 2.8 23.75 2.8 23.75 2.7 23.75 2.65 23.75 2.55 23.7 2.55 23.7 2.5 23.65 2.5 23.6 2.5 23.5 2.45 L23.5 2.45 M23.5 10.4 L23.5 22.5 23.5 23.15 Q23.5 23.4 23.5 23.4 23.45 23.5 23.4 23.5 23.35 23.5 23.15 23.5 L22.5 23.5 21.85 23.5 20.95 23.5 21.0 23.75 22.1 23.75 22.75 23.75 23.4 23.75 Q23.65 23.75 23.7 23.75 23.75 23.7 23.75 23.4 L23.75 22.75 23.75 10.55 23.5 10.4 M20.7 22.75 L19.95 23.5 16.1 23.5 15.25 23.05 15.2 23.5 14.15 23.5 13.9 23.5 12.75 23.4 12.05 23.5 10.85 23.5 10.7 23.3 10.2 23.55 9.7 23.5 8.85 23.25 8.4 23.5 7.5 23.5 7.25 23.35 6.45 23.5 5.85 23.5 5.2 23.5 4.55 23.5 3.95 23.45 3.25 23.5 2.85 23.5 Q2.85 23.55 2.85 23.6 2.85 23.65 2.85 23.7 2.8 23.7 2.8 23.75 2.85 23.75 2.85 23.75 2.85 23.75 2.85 23.75 L3.5 23.75 4.2 23.7 4.8 23.75 5.45 23.75 6.05 23.75 6.7 23.75 7.45 23.6 7.75 23.75 8.65 23.75 9.1 23.5 9.9 23.75 10.45 23.8 10.95 23.55 11.1 23.75 12.3 23.75 13.0 23.65 14.1 23.75 14.4 23.75 15.4 23.75 15.5 23.3 16.35 23.75 20.15 23.75 20.75 23.2 20.7 22.75" fill="#ffffff" fill-rule="evenodd" stroke="none"/>
      <path d="M2.6 2.2 L5.95 2.2 6.2 2.65 6.5 2.4 7.75 2.2 13.5 2.2 13.7 2.7 14.15 2.2 15.45 2.2 16.65 2.2 17.15 2.65 17.35 2.2 18.0 2.2 23.15 2.2 Q23.35 2.2 23.4 2.25 23.45 2.25 23.5 2.35 23.5 2.4 23.5 2.55 23.5 2.55 23.5 2.6 L23.5 4.05 22.85 3.8 23.5 4.5 23.5 5.25 22.95 5.25 23.5 6.45 23.5 7.1 23.3 8.15 23.5 7.8 23.5 9.55 22.85 9.85 23.5 10.3 23.5 22.5 23.5 23.15 Q23.5 23.4 23.5 23.4 23.45 23.5 23.4 23.5 23.35 23.5 23.15 23.5 L22.5 23.5 21.85 23.5 20.75 23.5 20.7 22.75 19.95 23.5 16.1 23.5 15.25 23.05 15.2 23.5 14.15 23.5 13.9 23.5 12.75 23.4 12.05 23.5 10.85 23.5 10.7 23.3 10.2 23.55 9.7 23.5 8.85 23.25 8.4 23.5 7.5 23.5 7.25 23.35 6.45 23.5 5.85 23.5 5.2 23.5 4.55 23.5 3.95 23.45 3.25 23.5 2.6 23.5 Q2.6 23.5 2.6 23.5 2.6 23.5 2.6 23.5 2.4 23.5 2.35 23.5 2.3 23.5 2.25 23.45 2.25 23.4 2.25 23.2 2.25 23.2 2.25 23.2 2.25 23.2 2.25 23.2 2.25 23.15 2.25 23.15 L2.25 17.7 3.05 17.5 2.25 16.75 2.25 16.1 2.25 15.45 2.25 14.45 2.65 14.15 2.25 13.9 2.25 10.65 2.65 10.45 2.25 9.9 2.25 9.0 2.25 8.35 2.25 7.7 2.75 7.2 2.25 6.85 2.25 2.6 Q2.25 2.55 2.25 2.55 2.25 2.4 2.25 2.35 2.3 2.25 2.35 2.25 2.4 2.2 2.55 2.2 2.55 2.2 2.6 2.2 2.6 2.2 2.6 2.2 2.6 2.2 2.6 2.2 L2.6 2.2" fill="#000000" fill-rule="evenodd" stroke="none"/>
    </g>
    <g id="shape1" transform="matrix(1.0, 0.0, 0.0, 1.0, 0.0, 0.0)">
      <path d="M14.3 18.15 Q14.3 18.15 14.05 18.15 13.75 18.15 13.45 18.1 13.0 18.05 12.6 18.0 12.1 17.85 11.65 17.65 11.1 17.45 10.65 17.1 10.15 16.75 9.8 16.25 9.4 15.7 9.2 15.0 8.95 14.25 8.95 13.3 8.95 12.15 9.2 11.25 9.4 10.4 9.8 9.75 10.15 9.15 10.65 8.7 11.05 8.3 11.6 8.0 12.05 7.75 12.6 7.6 13.0 7.5 13.45 7.45 13.75 7.4 14.05 7.4 14.15 7.4 14.25 7.4 14.25 7.4 14.35 7.4 14.55 7.4 14.7 7.45 14.9 7.5 15.15 7.55 15.4 7.65 15.65 7.75 15.95 7.9 16.2 8.1 16.45 8.35 16.65 8.65 16.85 8.95 16.95 9.35 17.1 9.85 17.1 10.35 L17.8 10.55 Q17.8 10.55 17.85 10.5 17.9 10.4 18.0 10.3 18.1 10.15 18.25 10.0 18.4 9.8 18.5 9.6 18.7 9.35 18.85 9.1 19.0 8.85 19.15 8.6 19.3 8.35 19.4 8.05 19.55 7.8 19.65 7.5 19.65 7.5 19.65 7.5 19.6 7.55 19.55 7.55 19.5 7.6 19.45 7.6 19.4 7.6 19.3 7.6 19.2 7.6 19.1 7.5 19.0 7.45 18.85 7.35 18.7 7.25 18.55 7.1 18.35 6.9 18.2 6.65 18.2 6.65 18.1 6.6 18.0 6.5 17.85 6.45 17.65 6.3 17.45 6.2 17.2 6.1 16.9 5.95 16.55 5.8 16.25 5.7 15.85 5.6 15.45 5.5 15.0 5.4 14.5 5.35 14.0 5.25 13.5 5.25 12.2 5.2 11.1 5.5 10.1 5.75 9.3 6.3 8.6 6.8 8.0 7.5 7.55 8.15 7.15 8.9 6.85 9.6 6.65 10.35 6.5 10.95 6.4 11.55 6.35 12.0 6.3 12.45 6.3 12.6 6.3 12.8 6.3 14.3 6.65 15.5 6.9 16.65 7.45 17.55 7.9 18.35 8.55 18.95 9.15 19.5 9.85 19.85 10.45 20.2 11.1 20.4 11.65 20.55 12.25 20.65 12.65 20.7 13.0 20.75 13.15 20.75 13.3 20.75 14.1 20.75 14.8 20.55 15.5 20.4 16.15 20.1 16.7 19.85 17.2 19.5 17.7 19.15 18.1 18.8 18.45 18.45 18.8 18.1 19.05 17.8 19.3 17.5 19.45 17.3 19.55 17.1 19.6 17.0 19.65 16.9 L19.7 15.25 18.9 15.4 Q18.6 15.85 18.25 16.3 17.95 16.65 17.55 16.95 17.2 17.2 16.75 17.4 16.4 17.6 16.0 17.75 15.7 17.9 15.35 17.95 15.05 18.05 14.8 18.05 14.6 18.1 14.4 18.1 14.35 18.1 14.3 18.15 L14.3 18.15" fill="#f1edf8" fill-rule="evenodd" stroke="none"/>
    </g>
  </defs>
</svg>
