<?xml version="1.0" encoding="UTF-8" standalone="no"?>
<svg xmlns:ffdec="https://www.free-decompiler.com/flash" xmlns:xlink="http://www.w3.org/1999/xlink" ffdec:objectType="frame" height="26.55px" width="70.8px" xmlns="http://www.w3.org/2000/svg">
  <g transform="matrix(1.0, 0.0, 0.0, 1.0, 0.2, 0.4)">
    <use ffdec:characterId="3" height="26.0" transform="matrix(1.0, 0.0, 0.0, 1.0, 0.0, 0.0)" width="26.0" xlink:href="#shape0"/>
    <use ffdec:characterId="64" height="26.0" transform="matrix(1.0, 0.0, 0.0, 1.0, 0.0, 0.0)" width="26.0" xlink:href="#shape1"/>
    <use ffdec:characterId="64" height="26.0" transform="matrix(1.0, 0.0, 0.0, 1.0, 0.0, 0.0)" width="26.0" xlink:href="#shape1"/>
  </g>
  <defs>
    <g id="shape0" transform="matrix(1.0, 0.0, 0.0, 1.0, 0.0, 0.0)">
      <path d="M23.5 2.45 Q23.5 2.5 23.5 2.5 23.5 2.55 23.5 2.55 23.5 2.55 23.5 2.55 23.5 2.6 23.5 2.6 L23.5 4.05 22.85 3.8 23.5 4.5 23.5 5.25 22.95 5.25 23.5 6.45 23.5 7.1 23.3 8.15 23.5 7.8 23.5 9.55 22.85 9.85 23.15 10.05 23.75 9.8 23.75 8.05 23.5 8.4 23.75 7.35 23.75 6.7 23.2 5.5 23.75 5.5 23.75 4.75 23.1 4.05 23.75 4.3 23.75 2.85 Q23.75 2.8 23.75 2.8 23.75 2.7 23.75 2.65 23.75 2.55 23.7 2.55 23.7 2.5 23.65 2.5 23.6 2.5 23.5 2.45 L23.5 2.45 M23.5 10.4 L23.5 22.5 23.5 23.15 Q23.5 23.4 23.5 23.4 23.45 23.5 23.4 23.5 23.35 23.5 23.15 23.5 L22.5 23.5 21.85 23.5 20.95 23.5 21.0 23.75 22.1 23.75 22.75 23.75 23.4 23.75 Q23.65 23.75 23.7 23.75 23.75 23.7 23.75 23.4 L23.75 22.75 23.75 10.55 23.5 10.4 M20.7 22.75 L19.95 23.5 16.1 23.5 15.25 23.05 15.2 23.5 14.15 23.5 13.9 23.5 12.75 23.4 12.05 23.5 10.85 23.5 10.7 23.3 10.2 23.55 9.7 23.5 8.85 23.25 8.4 23.5 7.5 23.5 7.25 23.35 6.45 23.5 5.85 23.5 5.2 23.5 4.55 23.5 3.95 23.45 3.25 23.5 2.85 23.5 Q2.85 23.55 2.85 23.6 2.85 23.65 2.85 23.7 2.8 23.7 2.8 23.75 2.85 23.75 2.85 23.75 2.85 23.75 2.85 23.75 L3.5 23.75 4.2 23.7 4.8 23.75 5.45 23.75 6.05 23.75 6.7 23.75 7.45 23.6 7.75 23.75 8.65 23.75 9.1 23.5 9.9 23.75 10.45 23.8 10.95 23.55 11.1 23.75 12.3 23.75 13.0 23.65 14.1 23.75 14.4 23.75 15.4 23.75 15.5 23.3 16.35 23.75 20.15 23.75 20.75 23.2 20.7 22.75" fill="#ffffff" fill-rule="evenodd" stroke="none"/>
      <path d="M2.6 2.2 L5.95 2.2 6.2 2.65 6.5 2.4 7.75 2.2 13.5 2.2 13.7 2.7 14.15 2.2 15.45 2.2 16.65 2.2 17.15 2.65 17.35 2.2 18.0 2.2 23.15 2.2 Q23.35 2.2 23.4 2.25 23.45 2.25 23.5 2.35 23.5 2.4 23.5 2.55 23.5 2.55 23.5 2.6 L23.5 4.05 22.85 3.8 23.5 4.5 23.5 5.25 22.95 5.25 23.5 6.45 23.5 7.1 23.3 8.15 23.5 7.8 23.5 9.55 22.85 9.85 23.5 10.3 23.5 22.5 23.5 23.15 Q23.5 23.4 23.5 23.4 23.45 23.5 23.4 23.5 23.35 23.5 23.15 23.5 L22.5 23.5 21.85 23.5 20.75 23.5 20.7 22.75 19.95 23.5 16.1 23.5 15.25 23.05 15.2 23.5 14.15 23.5 13.9 23.5 12.75 23.4 12.05 23.5 10.85 23.5 10.7 23.3 10.2 23.55 9.7 23.5 8.85 23.25 8.4 23.5 7.5 23.5 7.25 23.35 6.45 23.5 5.85 23.5 5.2 23.5 4.55 23.5 3.95 23.45 3.25 23.5 2.6 23.5 Q2.6 23.5 2.6 23.5 2.6 23.5 2.6 23.5 2.4 23.5 2.35 23.5 2.3 23.5 2.25 23.45 2.25 23.4 2.25 23.2 2.25 23.2 2.25 23.2 2.25 23.2 2.25 23.2 2.25 23.15 2.25 23.15 L2.25 17.7 3.05 17.5 2.25 16.75 2.25 16.1 2.25 15.45 2.25 14.45 2.65 14.15 2.25 13.9 2.25 10.65 2.65 10.45 2.25 9.9 2.25 9.0 2.25 8.35 2.25 7.7 2.75 7.2 2.25 6.85 2.25 2.6 Q2.25 2.55 2.25 2.55 2.25 2.4 2.25 2.35 2.3 2.25 2.35 2.25 2.4 2.2 2.55 2.2 2.55 2.2 2.6 2.2 2.6 2.2 2.6 2.2 2.6 2.2 2.6 2.2 L2.6 2.2" fill="#000000" fill-rule="evenodd" stroke="none"/>
    </g>
    <g id="shape1" transform="matrix(1.0, 0.0, 0.0, 1.0, 0.0, 0.0)">
      <path d="M12.65 11.8 L10.95 11.8 10.95 11.8 10.75 11.65 10.8 11.5 10.95 11.5 10.95 9.6 10.9 9.4 10.75 9.2 10.8 8.9 10.85 8.75 10.95 8.85 10.95 8.7 10.95 7.25 13.05 7.25 Q13.05 7.25 13.15 7.25 13.3 7.3 13.4 7.3 13.6 7.35 13.8 7.4 14.0 7.5 14.2 7.6 14.45 7.75 14.65 7.9 14.85 8.1 15.0 8.3 15.2 8.6 15.3 8.9 15.4 9.25 15.4 9.65 15.4 9.65 15.4 9.75 15.4 9.85 15.35 10.0 15.35 10.15 15.3 10.3 15.2 10.55 15.1 10.7 15.0 10.95 14.8 11.1 14.6 11.3 14.3 11.45 14.0 11.6 13.6 11.7 13.15 11.8 12.65 11.8 L12.65 11.8 M15.8 12.7 Q15.95 12.6 16.1 12.5 16.3 12.4 16.45 12.25 16.55 12.1 16.7 11.95 16.85 11.8 16.95 11.65 17.05 11.45 17.15 11.25 17.25 11.05 17.35 10.85 17.4 10.6 17.45 10.35 17.5 10.1 17.5 9.85 17.55 8.95 17.4 8.2 17.25 7.55 16.95 7.0 16.7 6.55 16.3 6.2 15.95 5.85 15.55 5.65 15.15 5.5 14.75 5.4 14.4 5.3 14.05 5.25 13.8 5.25 13.55 5.25 13.45 5.25 13.35 5.25 L7.75 5.25 7.75 5.4 7.75 6.55 8.25 7.1 8.25 7.55 8.4 7.6 8.4 9.05 8.55 9.05 8.55 9.35 8.95 9.45 9.45 9.55 9.35 9.65 8.6 9.65 8.5 9.9 8.45 10.15 8.45 17.65 Q8.45 17.65 8.45 17.75 8.45 17.85 8.45 17.95 8.4 18.1 8.4 18.25 8.4 18.45 8.35 18.6 8.3 18.8 8.25 18.95 8.2 19.15 8.15 19.3 8.05 19.45 7.95 19.55 7.85 19.65 7.75 19.7 L7.75 20.75 10.7 20.75 14.2 20.75 Q14.2 20.75 14.35 20.75 14.55 20.75 14.75 20.75 15.05 20.75 15.35 20.7 15.7 20.6 16.0 20.5 16.4 20.35 16.7 20.15 17.05 19.9 17.35 19.6 17.65 19.25 17.85 18.75 18.1 18.25 18.2 17.6 18.25 17.15 18.25 16.7 18.25 16.25 18.2 15.85 18.15 15.45 18.05 15.1 17.9 14.75 17.75 14.4 17.6 14.1 17.4 13.85 17.15 13.55 16.9 13.35 16.65 13.15 16.4 13.0 16.1 12.8 15.8 12.7 L15.8 12.7 M11.0 18.75 Q10.95 18.65 10.95 18.6 10.95 18.55 10.95 18.45 L10.95 13.95 11.15 13.95 13.55 13.95 Q13.45 13.95 13.65 13.95 13.75 13.95 13.85 14.0 14.0 14.0 14.2 14.05 14.4 14.1 14.55 14.2 14.75 14.3 14.9 14.5 15.1 14.65 15.25 14.9 15.4 15.15 15.5 15.45 15.6 15.8 15.6 16.2 15.6 16.2 15.6 16.35 15.6 16.55 15.55 16.75 15.5 17.05 15.4 17.3 15.25 17.65 15.05 17.9 14.85 18.25 14.5 18.45 14.15 18.7 13.7 18.85 13.2 19.0 12.55 19.0 11.85 18.95 11.0 18.75 L11.0 18.75" fill="#f1edf8" fill-rule="evenodd" stroke="none"/>
    </g>
  </defs>
</svg>
