<?xml version="1.0" encoding="UTF-8" standalone="no"?>
<svg xmlns:ffdec="https://www.free-decompiler.com/flash" xmlns:xlink="http://www.w3.org/1999/xlink" ffdec:objectType="frame" height="26.55px" width="70.8px" xmlns="http://www.w3.org/2000/svg">
  <g transform="matrix(1.0, 0.0, 0.0, 1.0, 0.2, 0.4)">
    <use ffdec:characterId="3" height="26.0" transform="matrix(1.0, 0.0, 0.0, 1.0, 0.0, 0.0)" width="26.0" xlink:href="#shape0"/>
    <use ffdec:characterId="10" height="26.0" transform="matrix(1.0, 0.0, 0.0, 1.0, 0.0, 0.0)" width="26.0" xlink:href="#shape1"/>
    <use ffdec:characterId="10" height="26.0" transform="matrix(1.0, 0.0, 0.0, 1.0, 0.0, 0.0)" width="26.0" xlink:href="#shape1"/>
    <use ffdec:characterId="11" height="26.0" transform="matrix(1.0, 0.0, 0.0, 1.0, 0.0, 0.0)" width="26.0" xlink:href="#shape2"/>
    <use ffdec:characterId="11" height="26.0" transform="matrix(1.0, 0.0, 0.0, 1.0, 0.0, 0.0)" width="26.0" xlink:href="#shape2"/>
  </g>
  <defs>
    <g id="shape0" transform="matrix(1.0, 0.0, 0.0, 1.0, 0.0, 0.0)">
      <path d="M23.5 2.45 Q23.5 2.5 23.5 2.5 23.5 2.55 23.5 2.55 23.5 2.55 23.5 2.55 23.5 2.6 23.5 2.6 L23.5 4.05 22.85 3.8 23.5 4.5 23.5 5.25 22.95 5.25 23.5 6.45 23.5 7.1 23.3 8.15 23.5 7.8 23.5 9.55 22.85 9.85 23.15 10.05 23.75 9.8 23.75 8.05 23.5 8.4 23.75 7.35 23.75 6.7 23.2 5.5 23.75 5.5 23.75 4.75 23.1 4.05 23.75 4.3 23.75 2.85 Q23.75 2.8 23.75 2.8 23.75 2.7 23.75 2.65 23.75 2.55 23.7 2.55 23.7 2.5 23.65 2.5 23.6 2.5 23.5 2.45 L23.5 2.45 M23.5 10.4 L23.5 22.5 23.5 23.15 Q23.5 23.4 23.5 23.4 23.45 23.5 23.4 23.5 23.35 23.5 23.15 23.5 L22.5 23.5 21.85 23.5 20.95 23.5 21.0 23.75 22.1 23.75 22.75 23.75 23.4 23.75 Q23.65 23.75 23.7 23.75 23.75 23.7 23.75 23.4 L23.75 22.75 23.75 10.55 23.5 10.4 M20.7 22.75 L19.95 23.5 16.1 23.5 15.25 23.05 15.2 23.5 14.15 23.5 13.9 23.5 12.75 23.4 12.05 23.5 10.85 23.5 10.7 23.3 10.2 23.55 9.7 23.5 8.85 23.25 8.4 23.5 7.5 23.5 7.25 23.35 6.45 23.5 5.85 23.5 5.2 23.5 4.55 23.5 3.95 23.45 3.25 23.5 2.85 23.5 Q2.85 23.55 2.85 23.6 2.85 23.65 2.85 23.7 2.8 23.7 2.8 23.75 2.85 23.75 2.85 23.75 2.85 23.75 2.85 23.75 L3.5 23.75 4.2 23.7 4.8 23.75 5.45 23.75 6.05 23.75 6.7 23.75 7.45 23.6 7.75 23.75 8.65 23.75 9.1 23.5 9.9 23.75 10.45 23.8 10.95 23.55 11.1 23.75 12.3 23.75 13.0 23.65 14.1 23.75 14.4 23.75 15.4 23.75 15.5 23.3 16.35 23.75 20.15 23.75 20.75 23.2 20.7 22.75" fill="#ffffff" fill-rule="evenodd" stroke="none"/>
      <path d="M2.6 2.2 L5.95 2.2 6.2 2.65 6.5 2.4 7.75 2.2 13.5 2.2 13.7 2.7 14.15 2.2 15.45 2.2 16.65 2.2 17.15 2.65 17.35 2.2 18.0 2.2 23.15 2.2 Q23.35 2.2 23.4 2.25 23.45 2.25 23.5 2.35 23.5 2.4 23.5 2.55 23.5 2.55 23.5 2.6 L23.5 4.05 22.85 3.8 23.5 4.5 23.5 5.25 22.95 5.25 23.5 6.45 23.5 7.1 23.3 8.15 23.5 7.8 23.5 9.55 22.85 9.85 23.5 10.3 23.5 22.5 23.5 23.15 Q23.5 23.4 23.5 23.4 23.45 23.5 23.4 23.5 23.35 23.5 23.15 23.5 L22.5 23.5 21.85 23.5 20.75 23.5 20.7 22.75 19.95 23.5 16.1 23.5 15.25 23.05 15.2 23.5 14.15 23.5 13.9 23.5 12.75 23.4 12.05 23.5 10.85 23.5 10.7 23.3 10.2 23.55 9.7 23.5 8.85 23.25 8.4 23.5 7.5 23.5 7.25 23.35 6.45 23.5 5.85 23.5 5.2 23.5 4.55 23.5 3.95 23.45 3.25 23.5 2.6 23.5 Q2.6 23.5 2.6 23.5 2.6 23.5 2.6 23.5 2.4 23.5 2.35 23.5 2.3 23.5 2.25 23.45 2.25 23.4 2.25 23.2 2.25 23.2 2.25 23.2 2.25 23.2 2.25 23.2 2.25 23.15 2.25 23.15 L2.25 17.7 3.05 17.5 2.25 16.75 2.25 16.1 2.25 15.45 2.25 14.45 2.65 14.15 2.25 13.9 2.25 10.65 2.65 10.45 2.25 9.9 2.25 9.0 2.25 8.35 2.25 7.7 2.75 7.2 2.25 6.85 2.25 2.6 Q2.25 2.55 2.25 2.55 2.25 2.4 2.25 2.35 2.3 2.25 2.35 2.25 2.4 2.2 2.55 2.2 2.55 2.2 2.6 2.2 2.6 2.2 2.6 2.2 2.6 2.2 2.6 2.2 L2.6 2.2" fill="#000000" fill-rule="evenodd" stroke="none"/>
    </g>
    <g id="shape1" transform="matrix(1.0, 0.0, 0.0, 1.0, 0.0, 0.0)">
      <path d="M11.1 6.2 Q10.8 5.9 10.45 5.7 10.15 5.5 9.85 5.4 9.55 5.3 9.25 5.25 9.0 5.25 8.75 5.25 8.5 5.25 8.3 5.3 8.1 5.35 7.95 5.4 7.85 5.45 7.75 5.5 7.7 5.5 7.65 5.5 7.4 5.6 7.2 5.75 7.0 5.9 6.85 6.1 6.75 6.25 6.65 6.45 6.55 6.65 6.5 6.8 6.45 7.0 6.4 7.15 6.35 7.3 6.35 7.4 6.35 7.5 6.35 7.6 6.35 7.65 6.35 7.65 6.35 8.0 6.45 8.3 6.5 8.55 6.65 8.8 6.75 9.0 6.85 9.2 7.0 9.35 7.15 9.5 7.3 9.6 7.4 9.65 7.55 9.75 7.65 9.8 7.75 9.85 7.8 9.85 7.85 9.85 7.9 9.85 L8.05 9.85 8.15 9.75 8.25 9.75 8.4 9.6 8.65 9.6 Q8.4 9.85 8.15 10.05 8.55 10.15 8.85 10.25 9.15 10.35 9.4 10.45 9.6 10.55 9.75 10.7 9.9 10.8 10.0 10.95 10.1 11.05 10.15 11.15 10.2 11.25 10.2 11.3 10.2 11.4 10.2 11.45 10.2 11.45 10.2 11.5 10.2 11.65 10.15 11.8 10.05 11.95 9.95 12.05 9.8 12.15 9.65 12.2 9.5 12.25 9.3 12.3 9.15 12.35 9.0 12.35 8.85 12.4 8.7 12.4 8.6 12.4 8.5 12.4 8.45 12.4 8.4 12.4 8.1 12.4 7.9 12.3 7.65 12.25 7.45 12.15 7.3 12.05 7.15 11.95 7.05 11.85 6.9 11.75 6.85 11.65 6.75 11.5 6.7 11.45 6.65 11.35 6.65 11.25 6.6 11.2 6.6 11.2 6.6 11.15 L5.95 11.15 5.95 12.5 Q6.05 12.7 6.25 12.9 6.4 13.05 6.6 13.2 6.8 13.3 7.05 13.4 7.25 13.5 7.45 13.55 7.65 13.6 7.9 13.65 8.05 13.65 8.25 13.7 8.35 13.7 8.45 13.7 8.5 13.7 8.55 13.7 8.85 13.7 9.15 13.7 9.4 13.65 9.65 13.6 9.85 13.55 10.05 13.5 10.2 13.45 10.35 13.35 10.5 13.3 10.6 13.2 10.7 13.15 10.8 13.05 10.85 13.0 10.85 12.95 10.9 12.95 10.9 12.95 11.05 12.8 11.15 12.6 11.25 12.45 11.35 12.3 11.4 12.15 11.45 11.95 11.45 11.85 11.5 11.7 11.5 11.55 11.5 11.45 11.5 11.35 11.5 11.25 11.5 11.15 11.45 11.1 11.45 11.1 11.45 11.05 11.4 10.85 11.35 10.65 11.25 10.5 11.15 10.35 11.05 10.2 10.9 10.05 10.75 9.95 10.6 9.85 10.5 9.75 10.35 9.65 10.25 9.55 10.15 9.5 10.05 9.45 10.0 9.45 9.95 9.4 9.95 9.4 9.25 9.05 8.5 8.7 8.3 8.6 8.15 8.5 8.0 8.4 7.85 8.25 7.75 8.15 7.7 8.05 7.65 7.95 7.6 7.8 7.55 7.75 7.55 7.65 7.55 7.55 7.55 7.45 7.55 7.4 7.55 7.35 7.55 7.35 7.55 7.35 7.6 7.1 7.75 6.9 7.9 6.75 8.05 6.6 8.25 6.5 8.5 6.45 8.7 6.4 8.95 6.45 9.15 6.45 9.4 6.5 9.6 6.6 9.8 6.7 10.0 6.8 10.15 6.95 10.3 7.1 10.4 7.25 L11.1 7.25 11.1 6.2" fill="#f1edf8" fill-rule="evenodd" stroke="none"/>
      <path d="M8.35 13.75 L8.55 14.4 9.2 14.85 9.2 4.65 8.4 4.0 8.15 4.3 8.35 13.75" fill="#f1edf8" fill-rule="evenodd" stroke="none"/>
    </g>
    <g id="shape2" transform="matrix(1.0, 0.0, 0.0, 1.0, 0.0, 0.0)">
      <path d="M20.8 17.75 Q20.75 17.55 20.75 17.35 20.75 17.1 20.75 16.85 20.75 16.65 20.8 16.35 20.85 16.15 20.95 15.9 21.0 15.7 21.05 15.45 21.1 15.3 21.15 15.1 21.2 15.0 21.25 14.85 21.25 14.8 21.25 14.8 L20.25 14.8 Q20.1 15.1 19.95 15.3 19.8 15.5 19.7 15.7 19.55 15.8 19.5 15.9 19.4 16.0 19.3 16.05 19.25 16.05 19.2 16.05 19.15 16.0 19.1 15.95 19.05 15.85 19.05 15.75 19.05 15.65 19.05 15.5 19.0 10.65 19.0 7.45 19.0 7.45 18.95 7.45 18.95 7.45 18.9 7.45 18.85 7.45 18.8 7.45 18.7 7.45 18.65 7.45 18.55 7.5 18.45 7.5 18.35 7.55 18.25 7.55 18.15 7.6 18.05 7.65 17.95 7.7 17.8 7.8 17.7 7.85 17.65 7.95 17.55 8.05 17.4 8.15 17.3 8.3 17.2 8.5 17.05 8.65 16.9 8.85 16.8 9.05 16.6 9.35 17.65 7.8 16.2 9.85 16.0 10.2 15.8 10.5 15.55 10.85 15.3 11.2 13.3 14.15 11.25 17.1 11.2 17.15 11.2 17.2 11.2 17.25 11.15 17.3 11.15 17.35 11.15 17.4 11.15 17.5 11.15 17.5 11.2 17.55 11.2 17.6 11.25 17.65 11.3 17.7 11.35 17.7 11.45 17.75 11.55 17.75 11.65 17.75 L17.25 17.75 Q17.25 18.2 17.25 18.6 17.2 19.0 17.15 19.3 17.1 19.55 17.05 19.8 17.0 20.0 16.95 20.15 16.9 20.3 16.8 20.4 16.75 20.5 16.65 20.55 16.55 20.6 16.45 20.6 16.4 20.65 16.3 20.65 16.2 20.65 16.15 20.7 16.1 20.7 16.05 20.8 16.0 20.85 16.0 20.95 15.95 21.0 15.95 21.1 15.95 21.2 15.9 21.3 15.9 21.35 15.9 21.45 15.9 21.5 15.9 21.55 15.9 21.6 15.9 21.6 L20.2 21.6 Q20.2 21.55 20.2 21.35 20.2 21.25 20.2 21.15 20.2 21.05 20.2 21.0 20.2 20.9 20.2 20.85 20.15 20.8 20.15 20.75 20.1 20.7 20.05 20.65 20.0 20.65 19.95 20.6 19.9 20.6 19.8 20.6 19.65 20.6 19.5 20.5 19.4 20.35 19.3 20.15 19.2 19.95 19.15 19.7 19.1 19.45 19.1 19.2 19.05 18.95 19.05 18.65 19.05 18.45 19.05 18.2 19.05 18.0 19.05 17.85 19.05 17.8 19.05 17.75 19.2 17.75 19.4 17.8 19.55 17.8 19.75 17.9 19.85 17.9 20.05 18.0 20.25 18.1 20.35 18.1 20.5 18.15 20.6 18.15 20.7 18.2 20.75 18.15 20.8 18.1 20.85 18.0 20.85 17.9 20.8 17.75 L20.8 17.75 M17.25 16.05 Q17.25 16.05 15.75 16.05 14.25 16.05 14.25 16.05 L17.25 11.5 17.25 16.05" fill="#f1edf8" fill-rule="evenodd" stroke="none"/>
    </g>
  </defs>
</svg>
