<?xml version="1.0" encoding="UTF-8" standalone="no"?>
<svg xmlns:ffdec="https://www.free-decompiler.com/flash" xmlns:xlink="http://www.w3.org/1999/xlink" ffdec:objectType="frame" height="26.55px" width="70.8px" xmlns="http://www.w3.org/2000/svg">
  <g transform="matrix(1.0, 0.0, 0.0, 1.0, 0.2, 0.4)">
    <use ffdec:characterId="3" height="26.0" transform="matrix(1.0, 0.0, 0.0, 1.0, 0.0, 0.0)" width="26.0" xlink:href="#shape0"/>
    <use ffdec:characterId="66" height="26.0" transform="matrix(1.0, 0.0, 0.0, 1.0, 0.0, 0.0)" width="26.0" xlink:href="#shape1"/>
    <use ffdec:characterId="66" height="26.0" transform="matrix(1.0, 0.0, 0.0, 1.0, 0.0, 0.0)" width="26.0" xlink:href="#shape1"/>
  </g>
  <defs>
    <g id="shape0" transform="matrix(1.0, 0.0, 0.0, 1.0, 0.0, 0.0)">
      <path d="M23.5 2.45 Q23.5 2.5 23.5 2.5 23.5 2.55 23.5 2.55 23.5 2.55 23.5 2.55 23.5 2.6 23.5 2.6 L23.5 4.05 22.85 3.8 23.5 4.5 23.5 5.25 22.95 5.25 23.5 6.45 23.5 7.1 23.3 8.15 23.5 7.8 23.5 9.55 22.85 9.85 23.15 10.05 23.75 9.8 23.75 8.05 23.5 8.4 23.75 7.35 23.75 6.7 23.2 5.5 23.75 5.5 23.75 4.75 23.1 4.05 23.75 4.3 23.75 2.85 Q23.75 2.8 23.75 2.8 23.75 2.7 23.75 2.65 23.75 2.55 23.7 2.55 23.7 2.5 23.65 2.5 23.6 2.5 23.5 2.45 L23.5 2.45 M23.5 10.4 L23.5 22.5 23.5 23.15 Q23.5 23.4 23.5 23.4 23.45 23.5 23.4 23.5 23.35 23.5 23.15 23.5 L22.5 23.5 21.85 23.5 20.95 23.5 21.0 23.75 22.1 23.75 22.75 23.75 23.4 23.75 Q23.65 23.75 23.7 23.75 23.75 23.7 23.75 23.4 L23.75 22.75 23.75 10.55 23.5 10.4 M20.7 22.75 L19.95 23.5 16.1 23.5 15.25 23.05 15.2 23.5 14.15 23.5 13.9 23.5 12.75 23.4 12.05 23.5 10.85 23.5 10.7 23.3 10.2 23.55 9.7 23.5 8.85 23.25 8.4 23.5 7.5 23.5 7.25 23.35 6.45 23.5 5.85 23.5 5.2 23.5 4.55 23.5 3.95 23.45 3.25 23.5 2.85 23.5 Q2.85 23.55 2.85 23.6 2.85 23.65 2.85 23.7 2.8 23.7 2.8 23.75 2.85 23.75 2.85 23.75 2.85 23.75 2.85 23.75 L3.5 23.75 4.2 23.7 4.8 23.75 5.45 23.75 6.05 23.75 6.7 23.75 7.45 23.6 7.75 23.75 8.65 23.75 9.1 23.5 9.9 23.75 10.45 23.8 10.95 23.55 11.1 23.75 12.3 23.75 13.0 23.65 14.1 23.75 14.4 23.75 15.4 23.75 15.5 23.3 16.35 23.75 20.15 23.75 20.75 23.2 20.7 22.75" fill="#ffffff" fill-rule="evenodd" stroke="none"/>
      <path d="M2.6 2.2 L5.95 2.2 6.2 2.65 6.5 2.4 7.75 2.2 13.5 2.2 13.7 2.7 14.15 2.2 15.45 2.2 16.65 2.2 17.15 2.65 17.35 2.2 18.0 2.2 23.15 2.2 Q23.35 2.2 23.4 2.25 23.45 2.25 23.5 2.35 23.5 2.4 23.5 2.55 23.5 2.55 23.5 2.6 L23.5 4.05 22.85 3.8 23.5 4.5 23.5 5.25 22.95 5.25 23.5 6.45 23.5 7.1 23.3 8.15 23.5 7.8 23.5 9.55 22.85 9.85 23.5 10.3 23.5 22.5 23.5 23.15 Q23.5 23.4 23.5 23.4 23.45 23.5 23.4 23.5 23.35 23.5 23.15 23.5 L22.5 23.5 21.85 23.5 20.75 23.5 20.7 22.75 19.95 23.5 16.1 23.5 15.25 23.05 15.2 23.5 14.15 23.5 13.9 23.5 12.75 23.4 12.05 23.5 10.85 23.5 10.7 23.3 10.2 23.55 9.7 23.5 8.85 23.25 8.4 23.5 7.5 23.5 7.25 23.35 6.45 23.5 5.85 23.5 5.2 23.5 4.55 23.5 3.95 23.45 3.25 23.5 2.6 23.5 Q2.6 23.5 2.6 23.5 2.6 23.5 2.6 23.5 2.4 23.5 2.35 23.5 2.3 23.5 2.25 23.45 2.25 23.4 2.25 23.2 2.25 23.2 2.25 23.2 2.25 23.2 2.25 23.2 2.25 23.15 2.25 23.15 L2.25 17.7 3.05 17.5 2.25 16.75 2.25 16.1 2.25 15.45 2.25 14.45 2.65 14.15 2.25 13.9 2.25 10.65 2.65 10.45 2.25 9.9 2.25 9.0 2.25 8.35 2.25 7.7 2.75 7.2 2.25 6.85 2.25 2.6 Q2.25 2.55 2.25 2.55 2.25 2.4 2.25 2.35 2.3 2.25 2.35 2.25 2.4 2.2 2.55 2.2 2.55 2.2 2.6 2.2 2.6 2.2 2.6 2.2 2.6 2.2 2.6 2.2 L2.6 2.2" fill="#000000" fill-rule="evenodd" stroke="none"/>
    </g>
    <g id="shape1" transform="matrix(1.0, 0.0, 0.0, 1.0, 0.0, 0.0)">
      <path d="M19.85 6.3 L20.3 6.3 20.35 6.2 21.0 6.2 21.0 5.25 17.5 5.25 13.1 11.4 8.85 5.25 5.25 5.25 5.25 6.3 Q5.35 6.35 5.4 6.4 5.45 6.45 5.5 6.5 5.55 6.6 5.6 6.7 5.65 6.75 5.65 6.85 5.7 6.95 5.7 7.05 5.7 7.1 5.75 7.2 5.75 7.25 5.75 7.3 5.75 7.3 5.75 7.3 L5.75 18.1 Q5.75 18.35 5.7 18.55 5.7 18.75 5.65 18.95 5.6 19.1 5.5 19.25 5.45 19.35 5.4 19.45 5.3 19.55 5.25 19.6 5.2 19.65 5.15 19.7 5.1 19.7 5.05 19.75 5.05 19.75 5.0 19.75 L5.0 20.75 8.7 20.75 8.7 19.75 Q8.6 19.75 8.5 19.65 8.4 19.55 8.35 19.45 8.25 19.3 8.2 19.15 8.15 19.0 8.15 18.85 8.1 18.7 8.1 18.55 8.1 18.4 8.1 18.25 8.05 18.15 8.05 18.1 8.05 18.05 8.05 18.0 L8.05 17.2 Q8.05 17.2 8.0 17.25 7.9 17.3 7.9 17.3 7.8 17.35 7.75 17.4 7.7 17.4 7.65 17.4 7.65 17.4 7.6 17.35 7.6 17.35 7.6 17.3 7.6 17.3 7.6 17.25 7.6 17.25 7.6 17.2 7.6 17.2 7.6 17.2 7.6 17.2 7.6 17.2 L7.7 17.15 7.75 17.1 7.85 17.05 8.05 16.85 8.05 9.3 8.2 9.3 13.0 15.7 17.6 9.3 17.75 9.3 17.75 18.15 Q17.75 18.4 17.75 18.6 17.7 18.8 17.65 19.0 17.65 19.15 17.6 19.25 17.55 19.35 17.5 19.45 17.45 19.55 17.35 19.6 17.35 19.65 17.3 19.65 17.25 19.7 17.2 19.7 17.2 19.7 17.2 19.7 L17.2 20.75 21.0 20.75 21.0 19.7 Q20.9 19.65 20.8 19.6 20.75 19.5 20.7 19.4 20.6 19.25 20.6 19.15 20.55 19.0 20.5 18.85 20.45 18.75 20.45 18.6 20.45 18.5 20.4 18.4 20.4 18.3 20.4 18.25 20.4 18.2 20.4 18.2 L20.4 11.45 20.2 11.4 20.2 11.2 19.95 11.2 20.05 11.05 19.85 11.0 19.75 10.9 19.65 10.65 19.8 10.75 19.9 10.6 20.0 10.75 20.1 10.65 20.45 10.6 20.45 6.65 20.55 6.4 20.4 6.55 20.1 6.5 20.05 6.6 19.65 6.55 19.85 6.4 19.85 6.3 M15.25 12.15 L14.95 12.05 14.95 11.95 14.75 11.9 14.9 11.65 15.2 11.7 15.25 11.9 15.4 11.95 15.25 12.15" fill="#f1edf8" fill-rule="evenodd" stroke="none"/>
    </g>
  </defs>
</svg>
