<?xml version="1.0" encoding="UTF-8" standalone="no"?>
<svg xmlns:ffdec="https://www.free-decompiler.com/flash" xmlns:xlink="http://www.w3.org/1999/xlink" ffdec:objectType="frame" height="26.55px" width="70.8px" xmlns="http://www.w3.org/2000/svg">
  <g transform="matrix(1.0, 0.0, 0.0, 1.0, 0.2, 0.4)">
    <use ffdec:characterId="3" height="26.0" transform="matrix(1.0, 0.0, 0.0, 1.0, 0.0, 0.0)" width="26.0" xlink:href="#shape0"/>
    <use ffdec:characterId="71" height="26.0" transform="matrix(1.0, 0.0, 0.0, 1.0, 0.0, 0.0)" width="26.0" xlink:href="#shape1"/>
    <use ffdec:characterId="71" height="26.0" transform="matrix(1.0, 0.0, 0.0, 1.0, 0.0, 0.0)" width="26.0" xlink:href="#shape1"/>
    <use ffdec:characterId="72" height="26.0" transform="matrix(1.0, 0.0, 0.0, 1.0, 0.0, 0.0)" width="26.0" xlink:href="#shape2"/>
    <use ffdec:characterId="72" height="26.0" transform="matrix(1.0, 0.0, 0.0, 1.0, 0.0, 0.0)" width="26.0" xlink:href="#shape2"/>
  </g>
  <defs>
    <g id="shape0" transform="matrix(1.0, 0.0, 0.0, 1.0, 0.0, 0.0)">
      <path d="M23.5 2.45 Q23.5 2.5 23.5 2.5 23.5 2.55 23.5 2.55 23.5 2.55 23.5 2.55 23.5 2.6 23.5 2.6 L23.5 4.05 22.85 3.8 23.5 4.5 23.5 5.25 22.95 5.25 23.5 6.45 23.5 7.1 23.3 8.15 23.5 7.8 23.5 9.55 22.85 9.85 23.15 10.05 23.75 9.8 23.75 8.05 23.5 8.4 23.75 7.35 23.75 6.7 23.2 5.5 23.75 5.5 23.75 4.75 23.1 4.05 23.75 4.3 23.75 2.85 Q23.75 2.8 23.75 2.8 23.75 2.7 23.75 2.65 23.75 2.55 23.7 2.55 23.7 2.5 23.65 2.5 23.6 2.5 23.5 2.45 L23.5 2.45 M23.5 10.4 L23.5 22.5 23.5 23.15 Q23.5 23.4 23.5 23.4 23.45 23.5 23.4 23.5 23.35 23.5 23.15 23.5 L22.5 23.5 21.85 23.5 20.95 23.5 21.0 23.75 22.1 23.75 22.75 23.75 23.4 23.75 Q23.65 23.75 23.7 23.75 23.75 23.7 23.75 23.4 L23.75 22.75 23.75 10.55 23.5 10.4 M20.7 22.75 L19.95 23.5 16.1 23.5 15.25 23.05 15.2 23.5 14.15 23.5 13.9 23.5 12.75 23.4 12.05 23.5 10.85 23.5 10.7 23.3 10.2 23.55 9.7 23.5 8.85 23.25 8.4 23.5 7.5 23.5 7.25 23.35 6.45 23.5 5.85 23.5 5.2 23.5 4.55 23.5 3.95 23.45 3.25 23.5 2.85 23.5 Q2.85 23.55 2.85 23.6 2.85 23.65 2.85 23.7 2.8 23.7 2.8 23.75 2.85 23.75 2.85 23.75 2.85 23.75 2.85 23.75 L3.5 23.75 4.2 23.7 4.8 23.75 5.45 23.75 6.05 23.75 6.7 23.75 7.45 23.6 7.75 23.75 8.65 23.75 9.1 23.5 9.9 23.75 10.45 23.8 10.95 23.55 11.1 23.75 12.3 23.75 13.0 23.65 14.1 23.75 14.4 23.75 15.4 23.75 15.5 23.3 16.35 23.75 20.15 23.75 20.75 23.2 20.7 22.75" fill="#ffffff" fill-rule="evenodd" stroke="none"/>
      <path d="M2.6 2.2 L5.95 2.2 6.2 2.65 6.5 2.4 7.75 2.2 13.5 2.2 13.7 2.7 14.15 2.2 15.45 2.2 16.65 2.2 17.15 2.65 17.35 2.2 18.0 2.2 23.15 2.2 Q23.35 2.2 23.4 2.25 23.45 2.25 23.5 2.35 23.5 2.4 23.5 2.55 23.5 2.55 23.5 2.6 L23.5 4.05 22.85 3.8 23.5 4.5 23.5 5.25 22.95 5.25 23.5 6.45 23.5 7.1 23.3 8.15 23.5 7.8 23.5 9.55 22.85 9.85 23.5 10.3 23.5 22.5 23.5 23.15 Q23.5 23.4 23.5 23.4 23.45 23.5 23.4 23.5 23.35 23.5 23.15 23.5 L22.5 23.5 21.85 23.5 20.75 23.5 20.7 22.75 19.95 23.5 16.1 23.5 15.25 23.05 15.2 23.5 14.15 23.5 13.9 23.5 12.75 23.4 12.05 23.5 10.85 23.5 10.7 23.3 10.2 23.55 9.7 23.5 8.85 23.25 8.4 23.5 7.5 23.5 7.25 23.35 6.45 23.5 5.85 23.5 5.2 23.5 4.55 23.5 3.95 23.45 3.25 23.5 2.6 23.5 Q2.6 23.5 2.6 23.5 2.6 23.5 2.6 23.5 2.4 23.5 2.35 23.5 2.3 23.5 2.25 23.45 2.25 23.4 2.25 23.2 2.25 23.2 2.25 23.2 2.25 23.2 2.25 23.2 2.25 23.15 2.25 23.15 L2.25 17.7 3.05 17.5 2.25 16.75 2.25 16.1 2.25 15.45 2.25 14.45 2.65 14.15 2.25 13.9 2.25 10.65 2.65 10.45 2.25 9.9 2.25 9.0 2.25 8.35 2.25 7.7 2.75 7.2 2.25 6.85 2.25 2.6 Q2.25 2.55 2.25 2.55 2.25 2.4 2.25 2.35 2.3 2.25 2.35 2.25 2.4 2.2 2.55 2.2 2.55 2.2 2.6 2.2 2.6 2.2 2.6 2.2 2.6 2.2 2.6 2.2 L2.6 2.2" fill="#000000" fill-rule="evenodd" stroke="none"/>
    </g>
    <g id="shape1" transform="matrix(1.0, 0.0, 0.0, 1.0, 0.0, 0.0)">
      <path d="M6.55 14.2 L5.85 15.3 6.55 16.45 7.75 16.45 8.4 15.35 7.75 14.2 6.55 14.2 M8.4 4.3 L7.35 4.3 Q7.4 4.25 6.4 4.75 5.5 5.15 5.5 5.2 5.75 6.4 6.0 7.6 6.0 7.6 6.0 7.55 6.05 7.45 6.1 7.3 6.2 7.2 6.25 7.05 6.35 6.85 6.5 6.7 6.65 6.5 6.8 6.35 6.95 6.2 7.15 6.1 7.4 5.95 7.6 5.85 7.85 5.8 8.15 5.8 8.15 5.8 8.2 5.8 8.25 5.8 8.35 5.8 8.45 5.85 8.55 5.85 8.7 5.9 8.8 5.95 8.95 6.0 9.05 6.1 9.2 6.25 9.3 6.35 9.4 6.55 9.45 6.7 9.5 6.95 9.55 7.2 9.55 7.2 9.55 7.25 9.55 7.35 9.55 7.4 9.55 7.5 9.5 7.65 9.5 7.75 9.4 7.9 9.35 8.05 9.2 8.15 9.1 8.3 8.9 8.45 8.65 8.55 8.4 8.65 8.1 8.75 7.7 8.8 7.7 8.8 7.6 8.8 7.5 8.85 7.35 8.9 7.2 8.95 7.05 9.05 6.85 9.2 6.7 9.4 6.5 9.6 6.4 9.9 6.3 10.2 6.25 10.6 6.2 11.05 6.3 11.6 6.35 12.2 6.6 12.9 6.6 12.9 6.6 12.95 6.6 12.95 6.6 13.0 6.65 13.05 6.65 13.1 6.7 13.15 6.75 13.15 6.8 13.2 6.9 13.25 7.0 13.25 7.1 13.3 7.2 13.3 7.35 13.3 7.5 13.25 7.7 13.2 7.7 13.2 7.7 13.1 7.7 12.95 7.7 12.8 7.7 12.55 7.7 12.35 7.75 12.1 7.75 11.85 7.8 11.55 7.85 11.3 7.95 11.05 8.05 10.85 8.15 10.6 8.25 10.45 8.4 10.3 8.6 10.25 8.9 10.15 9.15 10.05 9.4 9.95 9.65 9.8 9.9 9.65 10.15 9.5 10.35 9.35 10.55 9.15 10.75 8.95 10.9 8.7 11.05 8.5 11.15 8.2 11.2 7.95 11.25 7.65 11.3 7.35 11.25 7.0 11.25 7.0 11.25 6.9 11.2 6.75 11.2 6.6 11.1 6.35 11.05 6.15 10.95 5.9 10.8 5.65 10.65 5.4 10.45 5.2 10.25 4.9 9.95 4.75 9.65 4.55 9.25 4.45 8.85 4.3 8.4 4.3 L8.4 4.3" fill="#f1edf8" fill-rule="evenodd" stroke="none"/>
    </g>
    <g id="shape2" transform="matrix(1.0, 0.0, 0.0, 1.0, 0.0, 0.0)">
      <path d="M14.05 20.25 Q14.05 20.25 12.85 20.95 11.7 21.7 11.65 21.7 11.35 21.65 14.3 14.9 15.75 11.55 17.25 8.15 17.55 8.0 17.9 7.8 18.2 7.6 18.6 7.45 18.9 7.3 19.3 7.1 19.6 6.95 19.95 6.8 20.25 6.7 20.55 6.55 20.8 6.45 21.05 6.35 21.25 6.3 21.4 6.25 21.45 6.25 21.5 6.2 20.95 6.65 20.25 7.55 19.7 8.35 19.0 9.5 18.4 10.5 17.75 11.75 17.2 12.9 16.6 14.2 16.1 15.3 15.6 16.45 15.2 17.45 14.8 18.4 14.5 19.1 14.25 19.75 14.15 20.0 14.05 20.25 L14.05 20.25" fill="#f1edf8" fill-rule="evenodd" stroke="none"/>
    </g>
  </defs>
</svg>
