<?xml version="1.0" encoding="UTF-8" standalone="no"?>
<svg xmlns:ffdec="https://www.free-decompiler.com/flash" xmlns:xlink="http://www.w3.org/1999/xlink" ffdec:objectType="frame" height="26.55px" width="70.8px" xmlns="http://www.w3.org/2000/svg">
  <g transform="matrix(1.0, 0.0, 0.0, 1.0, 0.2, 0.4)">
    <use ffdec:characterId="27" height="26.0" transform="matrix(1.0, 0.0, 0.0, 1.0, 0.0, 0.0)" width="41.75" xlink:href="#shape0"/>
    <use ffdec:characterId="73" height="26.0" transform="matrix(1.0, 0.0, 0.0, 1.0, 0.0, 0.0)" width="41.75" xlink:href="#shape1"/>
    <use ffdec:characterId="73" height="26.0" transform="matrix(1.0, 0.0, 0.0, 1.0, 0.0, 0.0)" width="41.75" xlink:href="#shape1"/>
  </g>
  <defs>
    <g id="shape0" transform="matrix(1.0, 0.0, 0.0, 1.0, 0.0, 0.0)">
      <path d="M40.45 2.45 Q40.45 2.5 40.45 2.5 40.45 2.55 40.45 2.55 40.45 2.55 40.45 2.6 L40.45 4.05 39.8 3.8 40.45 4.5 40.45 5.25 39.9 5.25 40.45 6.45 40.45 7.1 40.25 8.15 40.45 7.8 40.45 9.55 39.8 9.85 40.1 10.05 40.7 9.8 40.7 8.05 40.45 8.4 40.7 7.35 40.7 6.7 40.15 5.5 40.7 5.5 40.7 4.75 40.05 4.05 40.7 4.3 40.7 2.85 Q40.7 2.8 40.7 2.8 40.7 2.7 40.7 2.65 40.7 2.55 40.65 2.55 40.65 2.5 40.6 2.5 40.55 2.5 40.45 2.45 L40.45 2.45 M40.45 10.4 L40.45 22.5 40.45 23.15 Q40.45 23.4 40.45 23.4 40.4 23.5 40.35 23.5 40.3 23.5 40.1 23.5 L39.45 23.5 38.8 23.5 37.9 23.5 37.95 23.75 39.05 23.75 39.7 23.75 40.35 23.75 Q40.6 23.75 40.65 23.75 40.7 23.7 40.7 23.4 L40.7 22.75 40.7 10.55 40.45 10.4 M37.65 22.75 L36.9 23.5 25.15 23.5 24.3 23.05 24.25 23.5 23.2 23.5 22.9 23.5 21.8 23.4 21.1 23.5 19.9 23.5 19.75 23.3 19.25 23.55 8.9 23.5 8.05 23.25 7.6 23.5 6.7 23.5 6.45 23.35 5.65 23.5 5.05 23.5 4.4 23.5 3.75 23.5 3.15 23.45 2.45 23.5 2.05 23.5 Q2.05 23.5 2.05 23.65 2.05 23.7 2.05 23.75 2.05 23.75 2.05 23.75 2.05 23.75 2.05 23.75 L2.7 23.75 3.4 23.7 4.0 23.75 4.65 23.75 5.25 23.75 5.9 23.75 6.7 23.6 6.95 23.75 7.85 23.75 18.15 23.75 18.95 23.75 19.5 23.8 20.0 23.55 20.1 23.75 21.35 23.75 22.05 23.65 23.15 23.75 23.45 23.75 24.45 23.75 24.55 23.3 25.35 23.75 37.1 23.75 37.7 23.2 37.65 22.75" fill="#ffffff" fill-rule="evenodd" stroke="none"/>
      <path d="M1.85 2.2 L5.15 2.2 5.4 2.65 5.7 2.4 6.95 2.2 13.95 2.2 14.1 2.7 14.55 2.2 15.85 2.2 28.95 2.2 29.45 2.65 29.65 2.2 30.3 2.2 40.1 2.2 Q40.3 2.2 40.35 2.25 40.4 2.25 40.45 2.35 40.45 2.4 40.45 2.55 40.45 2.55 40.45 2.6 L40.45 4.05 39.8 3.8 40.45 4.5 40.45 5.25 39.9 5.25 40.45 6.45 40.45 7.1 40.25 8.15 40.45 7.8 40.45 9.55 39.8 9.85 40.45 10.3 40.45 22.5 40.45 23.15 Q40.45 23.4 40.45 23.4 40.4 23.5 40.35 23.5 40.3 23.5 40.1 23.5 L39.45 23.5 38.8 23.5 37.7 23.5 37.65 22.75 36.9 23.5 25.15 23.5 24.3 23.05 24.25 23.5 23.2 23.5 22.9 23.5 21.8 23.4 21.1 23.5 19.9 23.5 19.75 23.3 19.25 23.55 8.9 23.5 8.05 23.25 7.6 23.5 6.7 23.5 6.45 23.35 5.65 23.5 5.05 23.5 4.4 23.5 3.75 23.5 3.15 23.45 2.45 23.5 1.85 23.5 Q1.8 23.5 1.8 23.5 1.8 23.5 1.8 23.5 1.6 23.5 1.55 23.5 1.5 23.5 1.45 23.45 1.45 23.4 1.45 23.2 1.45 23.2 1.45 23.2 1.45 23.2 1.45 23.2 1.45 23.15 1.45 23.15 L1.45 17.7 2.25 17.5 1.45 16.75 1.45 16.1 1.45 15.45 1.45 14.45 1.85 14.15 1.45 13.9 1.45 10.65 1.85 10.45 1.45 9.9 1.45 9.0 1.45 8.35 1.45 7.7 1.95 7.2 1.45 6.85 1.45 2.6 Q1.45 2.55 1.45 2.55 1.45 2.4 1.45 2.35 1.5 2.25 1.55 2.25 1.6 2.2 1.75 2.2 1.8 2.2 1.8 2.2 1.8 2.2 1.8 2.2 1.8 2.2 1.8 2.2 1.85 2.2 1.85 2.2 L1.85 2.2" fill="#000000" fill-rule="evenodd" stroke="none"/>
    </g>
    <g id="shape1" transform="matrix(1.0, 0.0, 0.0, 1.0, 0.0, 0.0)">
      <path d="M16.8 10.25 Q16.45 9.9 16.1 9.7 15.8 9.5 15.45 9.35 15.1 9.25 14.8 9.2 14.5 9.15 14.2 9.15 14.0 9.2 13.75 9.25 13.55 9.25 13.35 9.35 13.25 9.35 13.15 9.4 13.1 9.45 13.05 9.45 12.8 9.55 12.55 9.75 12.35 9.9 12.2 10.1 12.05 10.3 11.9 10.5 11.85 10.7 11.75 10.9 11.7 11.05 11.65 11.25 11.65 11.4 11.6 11.55 11.6 11.65 11.6 11.75 11.6 11.8 11.6 11.85 11.6 12.2 11.7 12.55 11.8 12.85 11.9 13.1 12.0 13.35 12.2 13.5 12.3 13.7 12.5 13.8 12.6 13.95 12.75 14.05 12.9 14.1 13.05 14.15 13.1 14.2 13.2 14.25 13.25 14.25 13.3 14.25 L13.5 14.25 13.55 14.1 13.7 14.1 13.85 13.95 14.15 13.95 Q14.05 14.0 14.0 14.05 13.95 14.1 13.85 14.1 13.8 14.15 13.75 14.2 13.75 14.25 13.7 14.3 13.65 14.3 13.65 14.35 13.6 14.4 13.6 14.4 13.6 14.4 13.6 14.45 13.6 14.45 13.6 14.45 14.05 14.55 14.4 14.65 14.7 14.75 14.95 14.9 15.2 15.0 15.35 15.15 15.5 15.3 15.6 15.4 15.7 15.55 15.75 15.65 15.8 15.75 15.8 15.85 15.85 15.9 15.85 16.0 15.85 16.0 15.85 16.0 15.85 16.2 15.75 16.35 15.7 16.5 15.55 16.65 15.4 16.75 15.2 16.8 15.05 16.9 14.85 16.95 14.7 16.95 14.5 17.0 14.35 17.0 14.2 17.0 14.05 17.05 13.95 17.05 13.9 17.0 13.85 17.0 13.55 17.0 13.3 16.9 13.05 16.85 12.85 16.75 12.65 16.65 12.5 16.55 12.35 16.4 12.25 16.3 12.15 16.2 12.05 16.05 12.0 15.95 11.95 15.85 11.9 15.8 11.9 15.7 11.9 15.7 11.85 15.65 L11.15 15.65 11.15 17.15 Q11.25 17.4 11.45 17.55 11.65 17.75 11.85 17.9 12.1 18.0 12.35 18.1 12.55 18.2 12.85 18.3 13.05 18.35 13.3 18.4 13.5 18.4 13.65 18.45 13.8 18.45 13.95 18.45 14.0 18.45 14.0 18.45 14.35 18.45 14.65 18.45 14.95 18.4 15.2 18.35 15.45 18.3 15.65 18.25 15.85 18.15 16.0 18.05 16.15 18.0 16.3 17.9 16.4 17.85 16.45 17.75 16.5 17.7 16.55 17.65 16.6 17.65 16.6 17.6 16.75 17.45 16.9 17.25 17.0 17.05 17.05 16.9 17.15 16.7 17.2 16.55 17.2 16.4 17.25 16.25 17.25 16.1 17.25 15.95 17.25 15.85 17.25 15.75 17.25 15.7 17.2 15.6 17.2 15.6 17.2 15.55 17.15 15.35 17.05 15.15 17.0 14.95 16.85 14.75 16.75 14.6 16.6 14.45 16.45 14.35 16.3 14.2 16.15 14.1 16.0 14.0 15.9 13.9 15.75 13.85 15.7 13.8 15.6 13.75 15.55 13.75 15.55 13.75 14.75 13.35 13.95 12.95 13.7 12.85 13.55 12.75 13.4 12.6 13.25 12.5 13.15 12.35 13.05 12.25 13.0 12.1 12.95 12.0 12.95 11.9 12.95 11.8 12.9 11.7 12.9 11.6 12.9 11.55 12.95 11.5 12.95 11.5 12.95 11.45 13.0 11.2 13.15 10.95 13.3 10.8 13.5 10.65 13.7 10.55 13.95 10.5 14.2 10.45 14.45 10.45 14.7 10.5 14.95 10.55 15.2 10.65 15.4 10.75 15.6 10.85 15.8 11.0 15.95 11.2 16.0 11.35 L16.8 11.35 16.8 10.25" fill="#f1edf8" fill-rule="evenodd" stroke="none"/>
      <path d="M22.75 17.55 L22.75 14.85 22.75 14.5 Q22.75 14.3 22.7 14.1 22.7 13.95 22.65 13.75 22.55 13.6 22.5 13.45 22.4 13.25 22.25 13.15 22.15 13.0 21.95 12.9 21.8 12.8 21.6 12.7 21.4 12.65 21.2 12.6 20.95 12.55 20.65 12.55 20.55 12.55 20.45 12.55 20.4 12.55 20.3 12.6 20.2 12.6 20.1 12.6 20.0 12.65 19.95 12.65 19.85 12.7 19.8 12.75 19.7 12.75 19.65 12.8 19.6 12.85 19.55 12.9 19.5 12.95 19.45 13.0 L19.45 11.8 19.35 11.8 19.3 11.9 19.25 11.85 19.2 11.85 19.2 11.8 19.25 11.8 19.25 11.75 19.25 11.7 19.35 11.7 19.35 11.65 19.45 11.55 19.45 10.1 Q19.45 10.0 19.45 9.9 19.5 9.8 19.5 9.75 19.5 9.65 19.55 9.55 19.6 9.5 19.6 9.4 19.65 9.35 19.65 9.3 19.7 9.25 19.7 9.2 19.75 9.15 19.75 9.15 19.75 9.1 19.75 9.1 L19.4 9.1 17.9 9.5 Q17.95 9.55 18.05 9.6 18.1 9.6 18.15 9.7 18.2 9.75 18.2 9.8 18.25 9.85 18.3 9.9 18.3 9.95 18.3 10.0 18.35 10.05 18.35 10.1 18.35 10.15 18.35 10.15 18.35 10.2 18.35 10.2 L18.35 15.45 18.35 16.75 Q18.35 16.95 18.35 17.15 18.3 17.3 18.3 17.4 18.25 17.55 18.25 17.65 18.2 17.75 18.15 17.8 18.15 17.85 18.1 17.9 18.1 17.95 18.05 18.0 18.05 18.0 18.0 18.0 18.0 18.0 18.0 18.0 L18.0 18.45 19.85 18.45 19.85 18.0 Q19.8 18.0 19.75 17.95 19.7 17.9 19.65 17.8 19.65 17.75 19.6 17.6 19.6 17.5 19.55 17.4 19.55 17.25 19.55 17.15 19.55 17.05 19.55 16.95 19.5 16.85 19.5 16.8 19.5 16.8 19.5 16.75 L19.5 14.6 Q19.5 14.6 19.5 14.55 19.5 14.5 19.5 14.45 19.55 14.35 19.55 14.3 19.6 14.2 19.65 14.1 19.7 14.0 19.8 13.9 19.85 13.85 20.0 13.75 20.1 13.7 20.3 13.65 20.45 13.6 20.7 13.6 20.85 13.6 21.0 13.65 21.15 13.7 21.25 13.8 21.35 13.9 21.4 14.0 21.5 14.1 21.5 14.2 21.55 14.3 21.6 14.45 21.6 14.55 21.6 14.65 21.6 14.7 21.6 14.75 21.6 14.8 21.6 14.8 L21.6 17.3 21.6 17.55 Q21.6 17.65 21.6 17.7 21.6 17.75 21.55 17.8 21.55 17.85 21.5 17.9 21.5 17.95 21.45 17.95 21.45 18.0 21.4 18.0 21.4 18.0 21.35 18.0 21.35 18.0 21.35 18.0 21.35 18.0 21.35 18.0 L21.35 18.45 23.05 18.45 23.05 18.0 Q23.0 18.0 22.95 18.0 22.9 17.95 22.85 17.9 22.85 17.9 22.8 17.85 22.8 17.8 22.8 17.75 22.75 17.7 22.75 17.65 22.75 17.6 22.75 17.6 22.75 17.55 22.75 17.55 22.75 17.55 22.75 17.6 L22.75 17.55" fill="#f1edf8" fill-rule="evenodd" stroke="none"/>
      <path d="M23.7 11.6 L24.4 12.1 25.1 11.6 25.1 10.9 24.4 10.4 23.7 10.9 23.7 11.6 M25.0 17.5 L25.0 14.7 24.95 14.75 24.95 14.8 24.9 14.75 24.8 14.75 24.8 14.7 24.8 14.75 24.85 14.7 24.85 14.7 24.9 14.7 24.95 14.65 25.05 14.6 25.05 13.05 Q25.05 13.0 25.05 12.95 25.05 12.9 25.05 12.85 25.1 12.8 25.1 12.8 25.15 12.75 25.15 12.75 25.15 12.7 25.2 12.7 25.2 12.7 25.25 12.7 25.25 12.65 25.25 12.65 25.25 12.65 25.25 12.65 L25.0 12.65 23.6 12.85 Q23.65 12.85 23.7 12.9 23.75 12.9 23.75 12.95 23.8 12.95 23.8 13.0 23.8 13.0 23.8 13.05 23.8 13.05 23.8 13.1 23.8 13.1 23.8 13.1 23.8 13.1 23.8 13.05 L23.8 17.15 23.8 17.5 Q23.8 17.6 23.8 17.7 23.8 17.8 23.75 17.85 23.75 17.95 23.75 18.0 23.7 18.05 23.7 18.05 23.65 18.1 23.65 18.1 23.65 18.1 23.6 18.15 23.6 18.15 23.6 18.15 23.55 18.15 23.55 18.15 L23.55 18.45 25.3 18.45 25.3 18.15 Q25.25 18.15 25.2 18.15 25.2 18.1 25.15 18.05 25.1 18.0 25.1 17.95 25.1 17.9 25.05 17.85 25.05 17.8 25.05 17.7 25.05 17.65 25.0 17.6 25.0 17.6 25.0 17.55 25.0 17.55 25.0 17.5 L25.0 17.5" fill="#f1edf8" fill-rule="evenodd" stroke="none"/>
      <path d="M29.9 10.15 Q29.9 10.15 29.95 10.15 30.0 10.15 30.1 10.15 30.2 10.2 30.25 10.2 30.4 10.25 30.5 10.3 30.6 10.35 30.7 10.45 30.8 10.55 30.85 10.65 30.95 10.8 31.0 11.0 31.05 11.2 31.05 11.4 L31.5 11.4 31.7 9.8 31.45 9.85 Q31.45 9.85 31.4 9.8 31.4 9.75 31.35 9.7 31.25 9.6 31.2 9.55 31.1 9.45 31.0 9.4 30.85 9.3 30.7 9.2 30.55 9.15 30.35 9.1 30.15 9.05 29.95 9.05 29.7 9.0 29.4 9.05 29.25 9.05 29.05 9.1 28.85 9.2 28.7 9.25 28.5 9.35 28.3 9.45 28.15 9.6 28.0 9.75 27.8 9.9 27.65 10.1 27.5 10.35 27.4 10.6 27.3 10.85 27.25 11.2 27.2 11.5 27.2 11.9 L27.2 13.0 26.5 12.95 26.1 13.4 26.1 13.75 27.2 13.75 27.2 16.1 27.2 16.75 Q27.2 16.95 27.2 17.1 27.15 17.25 27.15 17.4 27.1 17.5 27.1 17.6 27.05 17.65 27.0 17.75 27.0 17.75 26.95 17.8 26.95 17.85 26.9 17.85 26.9 17.85 26.85 17.85 26.85 17.85 26.85 17.85 L26.85 18.45 28.7 18.45 28.7 17.85 Q28.65 17.85 28.6 17.8 28.55 17.75 28.5 17.7 28.5 17.6 28.45 17.5 28.45 17.4 28.4 17.3 28.4 17.2 28.4 17.1 28.35 17.0 28.35 16.9 28.35 16.85 28.35 16.8 28.35 16.75 28.35 16.75 L28.35 13.75 29.6 13.75 Q29.6 13.75 29.6 13.75 29.65 13.75 29.7 13.75 29.7 13.75 29.75 13.7 29.85 13.7 29.9 13.7 29.95 13.65 30.05 13.6 30.1 13.55 30.2 13.5 30.3 13.45 30.4 13.35 30.5 13.25 30.55 13.1 L30.9 12.7 30.5 12.5 Q30.5 12.5 30.5 12.5 30.45 12.55 30.45 12.55 30.4 12.55 30.35 12.6 30.3 12.6 30.2 12.65 30.15 12.65 30.05 12.7 29.9 12.7 29.75 12.7 29.6 12.7 29.45 12.7 29.25 12.7 29.0 12.7 29.0 12.7 29.0 12.7 28.85 12.8 28.95 12.7 28.95 12.75 28.9 12.75 28.9 12.75 28.85 12.8 28.8 12.8 28.75 12.8 28.7 12.85 28.65 12.85 28.6 12.9 28.5 12.9 28.45 12.9 28.35 12.95 L28.35 12.25 Q28.35 12.05 28.35 12.15 28.35 12.05 28.35 11.9 28.4 11.75 28.4 11.6 28.45 11.35 28.55 11.2 28.6 11.0 28.7 10.8 28.85 10.6 29.0 10.5 29.15 10.35 29.4 10.25 29.6 10.15 29.9 10.15 L29.9 10.15" fill="#f1edf8" fill-rule="evenodd" stroke="none"/>
      <path d="M36.1 12.5 L36.1 12.5 Q36.1 12.5 36.1 12.5 L36.1 12.5 Q36.15 12.55 36.1 12.55 36.05 12.6 35.75 12.6 35.35 12.6 34.6 12.55 34.6 12.55 34.45 12.65 L34.45 11.7 34.1 11.2 Q34.1 11.25 34.05 11.35 34.05 11.45 34.0 11.5 33.95 11.55 33.85 11.65 33.8 11.7 33.75 11.75 33.65 11.8 33.6 11.85 33.55 11.9 33.5 11.95 33.45 11.95 33.4 12.0 33.4 12.0 33.35 12.0 L33.35 12.65 32.35 12.65 31.95 13.2 31.95 13.5 33.1 13.5 33.4 13.5 33.4 16.0 33.4 16.65 Q33.4 16.9 33.4 17.1 33.35 17.3 33.35 17.45 33.3 17.55 33.3 17.7 33.25 17.8 33.2 17.85 33.2 17.9 33.15 17.95 33.1 18.0 33.1 18.05 33.05 18.05 33.05 18.05 33.05 18.05 33.05 18.05 L33.05 18.5 34.75 18.5 34.75 18.05 Q34.7 18.05 34.65 18.0 34.65 17.95 34.6 17.85 34.55 17.75 34.55 17.6 34.5 17.5 34.5 17.35 34.5 17.25 34.45 17.1 34.45 17.0 34.45 16.9 34.45 16.8 34.4 16.75 34.4 16.7 34.4 16.65 L34.45 13.5 35.15 13.5 Q35.15 13.5 35.15 13.5 35.2 13.5 35.25 13.5 35.3 13.45 35.35 13.45 35.4 13.45 35.45 13.45 35.5 13.4 35.55 13.4 35.65 13.35 35.7 13.3 35.75 13.3 35.8 13.25 35.85 13.2 35.9 13.15 L36.15 12.55 36.1 12.5" fill="#f1edf8" fill-rule="evenodd" stroke="none"/>
      <path d="M9.25 11.7 Q9.25 11.7 10.05 11.9 10.85 12.15 10.85 12.15 10.95 12.1 9.7 9.8 9.05 8.65 8.4 7.5 8.4 7.5 8.3 7.6 7.85 8.2 6.75 9.95 5.5 11.95 5.6 12.0 6.5 11.8 7.4 11.6 7.4 11.6 7.4 11.55 7.4 11.55 7.45 11.45 7.45 11.4 7.5 11.35 7.55 11.25 7.6 11.15 7.65 11.05 7.7 10.9 7.8 10.8 7.85 10.7 7.95 10.55 8.1 10.4 8.2 10.3 8.35 10.15 8.5 10.3 8.6 10.5 8.7 10.65 8.8 10.8 8.85 10.9 8.95 11.05 9.0 11.15 9.05 11.25 9.1 11.35 9.15 11.45 9.2 11.5 9.2 11.6 9.25 11.65 9.25 11.65 9.25 11.7 9.25 11.7 L9.25 11.7" fill="#f1edf8" fill-rule="evenodd" stroke="none"/>
    </g>
  </defs>
</svg>
