<?xml version="1.0" encoding="UTF-8" standalone="no"?>
<svg xmlns:ffdec="https://www.free-decompiler.com/flash" xmlns:xlink="http://www.w3.org/1999/xlink" ffdec:objectType="frame" height="26.55px" width="70.8px" xmlns="http://www.w3.org/2000/svg">
  <g transform="matrix(1.0, 0.0, 0.0, 1.0, 0.2, 0.4)">
    <use ffdec:characterId="1" height="26.0" transform="matrix(1.0, 0.0, 0.0, 1.0, 0.0, 0.0)" width="35.75" xlink:href="#shape0"/>
    <use ffdec:characterId="74" height="26.0" transform="matrix(1.0, 0.0, 0.0, 1.0, 0.0, 0.0)" width="35.75" xlink:href="#shape1"/>
    <use ffdec:characterId="74" height="26.0" transform="matrix(1.0, 0.0, 0.0, 1.0, 0.0, 0.0)" width="35.75" xlink:href="#shape1"/>
  </g>
  <defs>
    <g id="shape0" transform="matrix(1.0, 0.0, 0.0, 1.0, 0.0, 0.0)">
      <path d="M33.35 2.45 Q33.35 2.5 33.35 2.55 33.35 2.55 33.35 2.6 L33.35 4.05 32.7 3.8 33.35 4.5 33.35 5.25 32.8 5.25 33.35 6.45 33.35 7.1 33.1 8.15 33.35 7.8 33.35 9.55 32.7 9.85 33.0 10.05 33.6 9.8 33.6 8.05 33.35 8.4 33.6 7.35 33.6 6.7 33.05 5.5 33.6 5.5 33.6 4.75 32.95 4.05 33.6 4.3 33.6 2.85 Q33.6 2.8 33.6 2.8 33.6 2.7 33.6 2.65 33.55 2.55 33.55 2.55 33.5 2.5 33.45 2.5 33.45 2.5 33.35 2.45 L33.35 2.45 M33.35 10.4 L33.35 22.5 33.35 23.15 Q33.35 23.4 33.35 23.4 33.3 23.5 33.25 23.5 33.2 23.5 33.0 23.5 L32.35 23.5 31.7 23.5 30.8 23.5 30.85 23.75 31.95 23.75 32.6 23.75 33.2 23.75 Q33.45 23.75 33.45 23.75 33.55 23.75 33.55 23.65 33.55 23.65 33.6 23.4 L33.6 22.75 33.6 10.55 33.35 10.4 33.35 10.4 M30.55 22.75 L29.75 23.5 25.95 23.5 25.1 23.05 25.0 23.5 24.0 23.5 23.7 23.5 22.6 23.4 21.9 23.5 20.7 23.5 20.55 23.3 20.05 23.55 9.6 23.5 8.75 23.25 8.3 23.5 7.45 23.5 7.15 23.35 6.4 23.5 5.75 23.5 5.1 23.5 4.45 23.5 3.85 23.45 3.15 23.5 2.75 23.5 Q2.75 23.55 2.75 23.65 2.75 23.7 2.75 23.75 2.75 23.75 2.75 23.75 2.75 23.75 2.75 23.75 L3.4 23.75 4.1 23.7 4.7 23.75 5.35 23.75 5.95 23.75 6.6 23.75 7.4 23.6 7.65 23.75 8.55 23.75 18.95 23.75 19.75 23.75 20.3 23.8 20.8 23.55 20.9 23.75 22.15 23.75 22.85 23.65 23.95 23.75 24.25 23.75 25.25 23.75 25.35 23.3 26.15 23.75 30.0 23.75 30.55 23.2 30.55 22.75 30.55 22.75" fill="#ffffff" fill-rule="evenodd" stroke="none"/>
      <path d="M2.55 2.2 L5.85 2.2 6.1 2.65 6.4 2.4 7.65 2.2 13.45 2.2 13.6 2.7 14.05 2.2 15.35 2.2 26.5 2.2 27.0 2.65 27.2 2.2 27.85 2.2 33.0 2.2 Q33.2 2.2 33.25 2.25 33.3 2.25 33.35 2.35 33.35 2.4 33.35 2.55 33.35 2.55 33.35 2.6 L33.35 4.05 32.7 3.8 33.35 4.5 33.35 5.25 32.8 5.25 33.35 6.45 33.35 7.1 33.1 8.15 33.35 7.8 33.35 9.55 32.7 9.85 33.35 10.3 33.35 22.5 33.35 23.15 Q33.35 23.4 33.35 23.4 33.3 23.5 33.25 23.5 33.2 23.5 33.0 23.5 L32.35 23.5 31.7 23.5 30.6 23.5 30.5 22.75 29.75 23.5 25.95 23.5 25.1 23.05 25.0 23.5 24.0 23.5 23.7 23.5 22.6 23.4 21.9 23.5 20.7 23.5 20.55 23.3 20.05 23.55 9.6 23.5 8.75 23.25 8.3 23.5 7.45 23.5 7.15 23.35 6.4 23.5 5.75 23.5 5.1 23.5 4.45 23.5 3.85 23.45 3.15 23.5 2.55 23.5 Q2.5 23.5 2.5 23.5 2.5 23.5 2.5 23.5 2.3 23.5 2.25 23.5 2.2 23.5 2.15 23.45 2.15 23.4 2.2 23.2 2.2 23.2 2.15 23.2 2.15 23.2 2.15 23.2 2.15 23.15 2.15 23.15 L2.15 17.7 2.95 17.5 2.15 16.75 2.15 16.1 2.15 15.45 2.15 14.45 2.6 14.15 2.15 13.9 2.15 10.65 2.55 10.45 2.15 9.9 2.15 9.0 2.15 8.35 2.15 7.7 2.65 7.2 2.15 6.85 2.15 2.6 Q2.15 2.55 2.15 2.55 2.15 2.4 2.2 2.35 2.2 2.25 2.25 2.25 2.3 2.2 2.45 2.2 2.5 2.2 2.5 2.2 2.5 2.2 2.5 2.2 2.5 2.2 2.55 2.2 2.55 2.2 2.55 2.2 L2.55 2.2" fill="#000000" fill-rule="evenodd" stroke="none"/>
    </g>
    <g id="shape1" transform="matrix(1.0, 0.0, 0.0, 1.0, 0.0, 0.0)">
      <path d="M16.6 9.45 Q16.6 9.35 16.6 9.25 16.65 9.15 16.65 9.1 16.7 9.0 16.75 8.95 16.75 8.9 16.8 8.85 16.85 8.8 16.9 8.75 16.95 8.75 17.0 8.75 17.0 8.7 17.05 8.7 17.05 8.7 17.05 8.7 L17.05 8.0 14.5 8.0 14.5 8.65 Q14.6 8.7 14.65 8.8 14.7 8.85 14.8 8.95 14.85 9.0 14.85 9.1 14.9 9.2 14.95 9.25 14.95 9.35 14.95 9.4 15.0 9.45 15.0 9.5 15.0 9.55 15.0 9.6 15.0 9.6 15.0 9.65 L14.95 15.7 9.9 9.05 9.9 9.1 9.45 9.3 9.6 9.45 9.1 9.2 9.35 9.05 9.4 9.1 9.65 8.95 9.65 8.85 9.7 8.85 9.85 8.05 9.85 8.0 9.4 8.0 7.25 8.0 7.25 8.65 Q7.35 8.7 7.4 8.75 7.5 8.8 7.55 8.9 7.6 8.95 7.65 9.05 7.65 9.1 7.7 9.2 7.7 9.25 7.75 9.35 7.75 9.4 7.75 9.45 7.75 9.5 7.75 9.55 7.75 9.55 7.75 9.55 L7.75 16.35 Q7.75 16.6 7.7 16.8 7.7 17.0 7.65 17.15 7.65 17.25 7.6 17.35 7.55 17.45 7.5 17.5 7.45 17.6 7.4 17.6 7.35 17.65 7.35 17.65 7.3 17.65 7.3 17.7 7.25 17.7 7.25 17.7 L7.25 18.35 9.9 18.35 9.9 17.7 Q9.8 17.65 9.75 17.6 9.7 17.5 9.6 17.4 9.6 17.3 9.55 17.2 9.5 17.1 9.5 16.95 9.45 16.85 9.45 16.75 9.45 16.65 9.45 16.55 9.45 16.5 9.45 16.4 9.45 16.4 9.45 16.35 L9.45 13.2 9.3 13.3 9.25 13.35 9.15 13.3 9.05 13.3 9.05 13.2 9.1 13.25 9.1 13.2 9.15 13.15 9.3 13.15 9.3 13.05 9.45 13.0 9.45 11.2 14.95 18.35 17.05 18.35 17.05 17.7 Q16.95 17.7 16.9 17.65 16.85 17.6 16.8 17.5 16.75 17.4 16.7 17.3 16.65 17.15 16.65 17.05 16.6 16.9 16.6 16.8 16.6 16.7 16.6 16.6 16.55 16.5 16.55 16.45 16.55 16.4 16.55 16.35 L16.55 11.35 16.6 9.45" fill="#f1edf8" fill-rule="evenodd" stroke="none"/>
      <path d="M22.0 13.95 Q22.0 13.95 22.15 13.95 22.3 13.95 22.5 13.9 22.75 13.85 23.0 13.8 23.35 13.7 23.65 13.6 23.95 13.45 24.25 13.25 24.55 13.05 24.75 12.75 25.0 12.45 25.15 12.05 25.25 11.65 25.25 11.15 25.25 10.6 25.1 10.1 25.0 9.7 24.75 9.35 24.5 9.0 24.2 8.8 23.95 8.55 23.6 8.4 23.3 8.25 23.0 8.2 22.75 8.1 22.45 8.05 22.25 8.05 22.1 8.05 22.0 8.0 21.95 8.0 L18.15 8.0 18.15 8.1 18.15 8.7 18.5 9.05 18.5 9.35 18.55 9.4 18.55 10.35 18.65 10.35 18.65 10.55 18.95 10.65 19.3 10.7 19.2 10.8 18.7 10.8 18.65 10.95 18.6 11.15 18.6 16.3 Q18.6 16.3 18.6 16.35 18.6 16.4 18.6 16.45 18.6 16.55 18.6 16.65 18.55 16.75 18.55 16.85 18.55 16.95 18.5 17.05 18.45 17.2 18.4 17.3 18.35 17.4 18.3 17.5 18.25 17.6 18.15 17.65 L18.15 18.35 20.65 18.35 20.65 17.6 Q20.65 17.6 20.65 17.6 20.6 17.6 20.55 17.55 20.55 17.55 20.5 17.5 20.45 17.45 20.4 17.4 20.35 17.35 20.3 17.25 20.3 17.15 20.25 17.05 20.2 16.95 20.2 16.8 20.2 16.65 20.2 16.45 L20.2 12.55 20.1 12.45 20.1 12.4 20.2 12.35 20.2 11.2 20.15 11.05 20.1 10.9 20.1 10.55 20.15 10.4 20.2 10.5 20.2 10.4 20.2 9.45 22.15 9.45 Q22.15 9.45 22.2 9.45 22.3 9.45 22.4 9.5 22.55 9.5 22.65 9.55 22.8 9.6 22.95 9.65 23.1 9.75 23.25 9.85 23.4 10.0 23.5 10.15 23.65 10.35 23.7 10.55 23.8 10.8 23.8 11.1 23.8 11.1 23.8 11.15 23.8 11.25 23.8 11.35 23.75 11.5 23.7 11.6 23.65 11.75 23.55 11.9 23.45 12.05 23.25 12.15 23.05 12.3 22.8 12.4 22.5 12.5 22.15 12.55 21.75 12.6 21.25 12.55 L21.15 12.55 21.15 13.5 22.0 13.95" fill="#f1edf8" fill-rule="evenodd" stroke="none"/>
      <path d="M25.9 8.15 L25.8 8.6 26.0 8.9 Q26.0 8.9 26.05 8.9 26.05 8.85 26.1 8.85 26.2 8.85 26.25 8.85 26.3 8.85 26.4 8.85 26.5 8.9 26.55 8.95 26.65 9.0 26.75 9.05 26.85 9.15 26.9 9.25 27.0 9.4 27.05 9.55 27.05 9.55 27.05 9.5 27.1 9.5 27.1 9.45 27.1 9.4 27.15 9.35 27.15 9.3 27.15 9.25 27.15 9.2 27.1 9.15 27.1 9.15 27.1 9.1 27.05 9.1 27.05 9.05 27.0 9.0 27.0 8.95 26.95 8.85 26.9 8.8 26.85 8.7 26.8 8.65 26.75 8.55 26.7 8.5 26.65 8.45 26.6 8.4 26.55 8.3 26.5 8.3 26.2 8.25 25.9 8.15 L25.9 8.15 M25.55 9.5 L25.8 9.8 26.15 9.85 Q26.15 9.85 26.15 9.85 26.15 9.8 26.2 9.75 26.25 9.7 26.25 9.65 26.3 9.6 26.4 9.55 26.45 9.5 26.55 9.5 26.65 9.45 26.75 9.4 26.85 9.4 27.0 9.4 27.15 9.45 27.3 9.5 27.3 9.5 27.3 9.45 27.3 9.45 27.25 9.4 27.25 9.35 27.2 9.35 27.2 9.3 27.15 9.25 27.1 9.2 27.05 9.2 27.05 9.2 27.0 9.2 27.0 9.2 26.95 9.2 26.85 9.15 26.8 9.15 26.75 9.15 26.65 9.1 26.55 9.1 26.5 9.1 26.4 9.1 26.3 9.1 26.2 9.1 26.15 9.1 26.05 9.1 26.0 9.1 25.75 9.3 25.55 9.5 L25.55 9.5 M26.75 10.7 L27.15 10.55 27.3 10.25 Q27.3 10.25 27.25 10.2 27.25 10.2 27.2 10.15 27.15 10.1 27.15 10.0 27.1 9.95 27.1 9.85 27.05 9.75 27.05 9.65 27.05 9.55 27.05 9.4 27.1 9.3 27.15 9.15 27.2 9.05 27.3 8.9 27.3 8.9 27.25 8.9 27.25 8.9 27.2 8.9 27.15 8.9 27.1 8.95 27.05 8.95 27.05 9.0 27.0 9.0 26.95 9.05 26.95 9.05 26.95 9.1 26.95 9.1 26.9 9.15 26.85 9.25 26.85 9.3 26.8 9.35 26.75 9.45 26.7 9.55 26.7 9.6 26.65 9.7 26.6 9.8 26.6 9.9 26.55 9.95 26.55 10.05 26.55 10.1 26.65 10.4 26.75 10.7 L26.75 10.7 M28.45 9.95 L28.3 9.55 28.0 9.4 Q28.0 9.4 28.0 9.4 27.95 9.45 27.95 9.45 27.9 9.5 27.85 9.5 27.8 9.5 27.75 9.5 27.7 9.55 27.65 9.5 27.55 9.5 27.45 9.45 27.35 9.45 27.25 9.35 27.1 9.3 26.95 9.2 26.95 9.2 26.95 9.2 26.95 9.15 27.0 9.3 27.0 9.35 27.0 9.4 27.0 9.45 27.05 9.45 27.1 9.5 27.1 9.5 27.1 9.5 27.1 9.55 27.15 9.6 27.2 9.6 27.2 9.65 27.25 9.7 27.3 9.75 27.35 9.85 27.4 9.9 27.5 9.95 27.55 10.0 27.6 10.05 27.7 10.1 27.75 10.15 27.8 10.15 27.9 10.15 28.2 10.05 28.45 9.95 L28.45 9.95 M28.5 8.45 L28.15 8.25 27.8 8.35 Q27.8 8.35 27.8 8.4 27.8 8.4 27.8 8.45 27.8 8.55 27.75 8.6 27.75 8.65 27.7 8.75 27.65 8.8 27.6 8.9 27.5 8.95 27.45 9.0 27.3 9.05 27.2 9.1 27.05 9.15 26.9 9.15 26.9 9.15 26.9 9.2 26.95 9.2 26.95 9.25 27.0 9.25 27.05 9.3 27.1 9.3 27.1 9.35 27.15 9.35 27.2 9.35 27.2 9.35 27.25 9.35 27.25 9.35 27.3 9.3 27.4 9.3 27.45 9.3 27.55 9.25 27.6 9.25 27.7 9.25 27.75 9.2 27.85 9.2 27.95 9.15 28.05 9.1 28.1 9.1 28.15 9.05 28.25 9.0 28.35 8.75 28.5 8.45 L28.5 8.45 M27.35 7.65 L26.95 7.8 26.8 8.1 Q26.8 8.1 26.85 8.1 26.85 8.15 26.9 8.2 26.95 8.25 26.95 8.3 27.0 8.35 27.0 8.45 27.05 8.5 27.05 8.6 27.05 8.7 27.05 8.8 27.05 8.95 27.0 9.05 26.9 9.2 26.8 9.35 26.8 9.35 26.8 9.35 26.85 9.35 26.85 9.35 26.9 9.3 26.95 9.3 26.95 9.3 27.0 9.25 27.05 9.25 27.1 9.25 27.1 9.2 27.15 9.2 27.2 9.15 27.2 9.15 27.2 9.1 27.25 9.1 27.25 9.1 27.25 9.05 27.25 9.05 27.3 9.0 27.35 8.95 27.35 8.9 27.4 8.85 27.4 8.75 27.45 8.7 27.5 8.65 27.55 8.55 27.55 8.45 27.6 8.4 27.6 8.3 27.6 8.25 27.6 8.15 27.45 7.9 27.35 7.65 L27.35 7.65" fill="#f1edf8" fill-rule="evenodd" stroke="none"/>
    </g>
  </defs>
</svg>
