<?xml version="1.0" encoding="UTF-8" standalone="no"?>
<svg xmlns:ffdec="https://www.free-decompiler.com/flash" xmlns:xlink="http://www.w3.org/1999/xlink" ffdec:objectType="frame" height="26.55px" width="70.8px" xmlns="http://www.w3.org/2000/svg">
  <g transform="matrix(1.0, 0.0, 0.0, 1.0, 0.2, 0.4)">
    <use ffdec:characterId="27" height="26.0" transform="matrix(1.0, 0.0, 0.0, 1.0, 0.0, 0.0)" width="41.75" xlink:href="#shape0"/>
    <use ffdec:characterId="76" height="26.0" transform="matrix(1.0, 0.0, 0.0, 1.0, 0.0, 0.0)" width="41.75" xlink:href="#shape1"/>
    <use ffdec:characterId="76" height="26.0" transform="matrix(1.0, 0.0, 0.0, 1.0, 0.0, 0.0)" width="41.75" xlink:href="#shape1"/>
  </g>
  <defs>
    <g id="shape0" transform="matrix(1.0, 0.0, 0.0, 1.0, 0.0, 0.0)">
      <path d="M40.45 2.45 Q40.45 2.5 40.45 2.5 40.45 2.55 40.45 2.55 40.45 2.55 40.45 2.6 L40.45 4.05 39.8 3.8 40.45 4.5 40.45 5.25 39.9 5.25 40.45 6.45 40.45 7.1 40.25 8.15 40.45 7.8 40.45 9.55 39.8 9.85 40.1 10.05 40.7 9.8 40.7 8.05 40.45 8.4 40.7 7.35 40.7 6.7 40.15 5.5 40.7 5.5 40.7 4.75 40.05 4.05 40.7 4.3 40.7 2.85 Q40.7 2.8 40.7 2.8 40.7 2.7 40.7 2.65 40.7 2.55 40.65 2.55 40.65 2.5 40.6 2.5 40.55 2.5 40.45 2.45 L40.45 2.45 M40.45 10.4 L40.45 22.5 40.45 23.15 Q40.45 23.4 40.45 23.4 40.4 23.5 40.35 23.5 40.3 23.5 40.1 23.5 L39.45 23.5 38.8 23.5 37.9 23.5 37.95 23.75 39.05 23.75 39.7 23.75 40.35 23.75 Q40.6 23.75 40.65 23.75 40.7 23.7 40.7 23.4 L40.7 22.75 40.7 10.55 40.45 10.4 M37.65 22.75 L36.9 23.5 25.15 23.5 24.3 23.05 24.25 23.5 23.2 23.5 22.9 23.5 21.8 23.4 21.1 23.5 19.9 23.5 19.75 23.3 19.25 23.55 8.9 23.5 8.05 23.25 7.6 23.5 6.7 23.5 6.45 23.35 5.65 23.5 5.05 23.5 4.4 23.5 3.75 23.5 3.15 23.45 2.45 23.5 2.05 23.5 Q2.05 23.5 2.05 23.65 2.05 23.7 2.05 23.75 2.05 23.75 2.05 23.75 2.05 23.75 2.05 23.75 L2.7 23.75 3.4 23.7 4.0 23.75 4.65 23.75 5.25 23.75 5.9 23.75 6.7 23.6 6.95 23.75 7.85 23.75 18.15 23.75 18.95 23.75 19.5 23.8 20.0 23.55 20.1 23.75 21.35 23.75 22.05 23.65 23.15 23.75 23.45 23.75 24.45 23.75 24.55 23.3 25.35 23.75 37.1 23.75 37.7 23.2 37.65 22.75" fill="#ffffff" fill-rule="evenodd" stroke="none"/>
      <path d="M1.85 2.2 L5.15 2.2 5.4 2.65 5.7 2.4 6.95 2.2 13.95 2.2 14.1 2.7 14.55 2.2 15.85 2.2 28.95 2.2 29.45 2.65 29.65 2.2 30.3 2.2 40.1 2.2 Q40.3 2.2 40.35 2.25 40.4 2.25 40.45 2.35 40.45 2.4 40.45 2.55 40.45 2.55 40.45 2.6 L40.45 4.05 39.8 3.8 40.45 4.5 40.45 5.25 39.9 5.25 40.45 6.45 40.45 7.1 40.25 8.15 40.45 7.8 40.45 9.55 39.8 9.85 40.45 10.3 40.45 22.5 40.45 23.15 Q40.45 23.4 40.45 23.4 40.4 23.5 40.35 23.5 40.3 23.5 40.1 23.5 L39.45 23.5 38.8 23.5 37.7 23.5 37.65 22.75 36.9 23.5 25.15 23.5 24.3 23.05 24.25 23.5 23.2 23.5 22.9 23.5 21.8 23.4 21.1 23.5 19.9 23.5 19.75 23.3 19.25 23.55 8.9 23.5 8.05 23.25 7.6 23.5 6.7 23.5 6.45 23.35 5.65 23.5 5.05 23.5 4.4 23.5 3.75 23.5 3.15 23.45 2.45 23.5 1.85 23.5 Q1.8 23.5 1.8 23.5 1.8 23.5 1.8 23.5 1.6 23.5 1.55 23.5 1.5 23.5 1.45 23.45 1.45 23.4 1.45 23.2 1.45 23.2 1.45 23.2 1.45 23.2 1.45 23.2 1.45 23.15 1.45 23.15 L1.45 17.7 2.25 17.5 1.45 16.75 1.45 16.1 1.45 15.45 1.45 14.45 1.85 14.15 1.45 13.9 1.45 10.65 1.85 10.45 1.45 9.9 1.45 9.0 1.45 8.35 1.45 7.7 1.95 7.2 1.45 6.85 1.45 2.6 Q1.45 2.55 1.45 2.55 1.45 2.4 1.45 2.35 1.5 2.25 1.55 2.25 1.6 2.2 1.75 2.2 1.8 2.2 1.8 2.2 1.8 2.2 1.8 2.2 1.8 2.2 1.8 2.2 1.85 2.2 1.85 2.2 L1.85 2.2" fill="#000000" fill-rule="evenodd" stroke="none"/>
    </g>
    <g id="shape1" transform="matrix(1.0, 0.0, 0.0, 1.0, 0.0, 0.0)">
      <path d="M12.35 7.05 Q11.8 6.55 11.25 6.2 10.75 5.85 10.2 5.65 9.7 5.5 9.2 5.4 8.75 5.35 8.3 5.35 7.9 5.4 7.5 5.45 7.2 5.55 6.95 5.6 6.75 5.7 6.55 5.75 6.5 5.8 6.4 5.85 6.0 6.05 5.65 6.3 5.3 6.55 5.05 6.85 4.85 7.15 4.65 7.5 4.5 7.75 4.4 8.1 4.3 8.35 4.25 8.65 4.2 8.9 4.15 9.15 4.15 9.3 4.15 9.45 4.15 9.5 4.15 9.55 4.2 10.15 4.3 10.65 4.45 11.15 4.65 11.55 4.8 11.9 5.05 12.2 5.25 12.45 5.55 12.7 5.75 12.85 6.0 13.0 6.2 13.15 6.4 13.2 6.55 13.3 6.7 13.3 6.75 13.35 6.8 13.35 L7.1 13.35 7.25 13.1 7.45 13.15 7.7 12.85 8.15 12.85 Q8.05 12.9 7.9 13.0 7.8 13.05 7.7 13.15 7.65 13.2 7.55 13.3 7.5 13.35 7.45 13.4 7.4 13.45 7.35 13.5 7.35 13.55 7.3 13.6 7.3 13.65 7.3 13.65 7.25 13.65 7.25 13.65 7.95 13.8 8.5 14.0 9.0 14.15 9.4 14.35 9.8 14.55 10.05 14.8 10.3 14.95 10.45 15.2 10.6 15.35 10.7 15.55 10.75 15.7 10.8 15.85 10.8 16.0 10.8 16.1 10.8 16.1 10.8 16.15 10.8 16.45 10.65 16.7 10.55 16.95 10.35 17.1 10.1 17.3 9.85 17.4 9.6 17.5 9.25 17.6 9.0 17.65 8.7 17.7 8.45 17.7 8.2 17.7 8.05 17.75 7.85 17.75 7.8 17.75 7.7 17.75 7.2 17.7 6.8 17.6 6.4 17.5 6.1 17.3 5.8 17.15 5.55 16.95 5.3 16.8 5.15 16.6 5.0 16.4 4.85 16.2 4.75 16.05 4.7 15.9 4.65 15.8 4.6 15.7 4.6 15.65 4.6 15.6 L3.45 15.6 3.45 17.9 Q3.65 18.25 3.95 18.55 4.2 18.85 4.6 19.1 4.9 19.3 5.35 19.45 5.7 19.6 6.1 19.7 6.45 19.8 6.8 19.85 7.1 19.9 7.4 19.95 7.6 19.95 7.8 20.0 7.9 20.0 7.95 20.0 8.5 20.0 9.0 20.0 9.45 19.95 9.85 19.85 10.2 19.75 10.55 19.65 10.85 19.5 11.1 19.4 11.3 19.25 11.5 19.1 11.65 19.0 11.8 18.9 11.9 18.8 11.95 18.7 12.0 18.7 12.0 18.65 12.25 18.4 12.45 18.1 12.6 17.8 12.75 17.5 12.85 17.25 12.95 17.0 13.0 16.75 13.0 16.5 13.05 16.25 13.05 16.05 13.05 15.9 13.0 15.75 13.0 15.6 13.0 15.5 13.0 15.45 13.0 15.45 12.95 15.1 12.8 14.8 12.65 14.5 12.45 14.2 12.25 13.95 12.0 13.7 11.8 13.5 11.55 13.3 11.35 13.15 11.1 12.95 10.9 12.85 10.7 12.75 10.55 12.65 10.45 12.6 10.4 12.6 10.35 12.55 9.1 11.95 7.9 11.35 7.55 11.2 7.25 11.0 7.0 10.8 6.8 10.6 6.6 10.4 6.5 10.2 6.4 10.0 6.3 9.85 6.25 9.65 6.25 9.5 6.2 9.35 6.25 9.2 6.25 9.15 6.25 9.05 6.25 9.0 6.25 9.0 6.35 8.55 6.6 8.25 6.8 7.95 7.15 7.75 7.45 7.55 7.85 7.45 8.2 7.4 8.6 7.4 9.0 7.45 9.4 7.55 9.8 7.65 10.15 7.85 10.5 8.05 10.7 8.3 11.0 8.55 11.1 8.8 L12.35 8.8 12.35 7.05" fill="#f1edf8" fill-rule="evenodd" stroke="none"/>
      <path d="M16.95 10.8 Q16.9 10.8 16.9 10.8 L16.9 10.8 Q16.75 10.8 16.6 10.8 16.45 10.8 16.3 10.8 16.15 10.85 16.05 10.85 15.9 10.9 15.8 10.9 15.7 10.95 15.55 10.95 15.45 11.0 15.35 11.05 15.25 11.1 15.15 11.15 15.05 11.2 14.95 11.25 L14.95 10.75 14.1 10.75 13.15 11.4 13.25 11.5 Q13.3 11.5 13.35 11.5 13.4 11.5 13.4 11.55 13.45 11.6 13.45 11.65 13.5 11.65 13.5 11.7 13.55 11.75 13.55 11.8 13.55 11.85 13.55 11.9 13.55 11.95 13.6 11.95 13.6 11.95 13.6 12.0 L13.6 12.0 Q13.6 12.0 13.6 12.0 L13.6 12.8 13.6 20.1 Q13.6 20.1 13.6 20.15 13.6 20.1 13.6 20.2 13.6 20.3 13.55 20.35 13.55 20.45 13.55 20.5 13.5 20.6 13.5 20.7 13.45 20.8 13.4 20.85 13.4 20.95 13.35 21.05 13.25 21.1 13.2 21.15 L15.0 21.7 15.35 21.7 Q15.35 21.7 15.35 21.65 15.35 21.65 15.3 21.55 15.3 21.5 15.25 21.4 15.2 21.3 15.2 21.2 15.15 21.1 15.15 21.0 15.1 20.85 15.05 20.75 15.05 20.6 15.05 20.5 15.0 20.35 15.0 20.2 L15.0 18.9 14.9 18.8 14.9 18.7 14.8 18.7 14.75 18.65 14.75 18.6 14.7 18.6 14.7 18.5 14.8 18.5 14.85 18.45 14.9 18.55 15.0 18.6 15.0 17.05 Q15.1 17.15 15.2 17.2 15.3 17.3 15.4 17.35 15.5 17.4 15.6 17.45 15.7 17.45 15.8 17.5 15.9 17.55 16.05 17.55 16.15 17.55 16.25 17.6 16.35 17.6 16.45 17.6 16.5 17.6 16.65 17.6 17.05 17.65 17.45 17.6 17.8 17.55 18.1 17.45 18.45 17.35 18.7 17.2 19.0 17.0 19.2 16.8 19.4 16.6 19.6 16.3 19.75 16.05 19.85 15.75 20.0 15.4 20.05 15.05 20.1 14.7 20.1 14.3 20.1 13.9 20.05 13.5 20.0 13.15 19.85 12.8 19.75 12.5 19.6 12.2 19.45 11.95 19.25 11.7 19.0 11.5 18.75 11.3 18.5 11.15 18.25 11.05 17.95 10.9 17.65 10.85 17.3 10.8 16.95 10.8 L16.95 10.8 M16.85 16.35 Q16.6 16.35 16.4 16.3 16.2 16.25 16.0 16.15 15.85 16.05 15.7 15.9 15.55 15.75 15.45 15.6 15.35 15.45 15.25 15.3 15.2 15.1 15.1 14.95 15.05 14.75 15.05 14.6 15.0 14.45 15.0 14.3 15.0 14.0 15.05 13.75 15.1 13.55 15.15 13.3 15.25 13.1 15.35 12.9 15.4 12.75 15.55 12.6 15.65 12.45 15.8 12.35 15.95 12.25 16.1 12.15 16.25 12.1 16.4 12.05 16.55 12.05 16.7 12.05 16.95 12.05 17.15 12.1 17.4 12.1 17.55 12.2 17.75 12.25 17.9 12.4 18.1 12.5 18.2 12.65 18.35 12.8 18.45 12.95 18.55 13.15 18.6 13.35 18.7 13.6 18.7 13.8 18.75 14.05 18.75 14.3 18.75 14.5 18.7 14.7 18.7 14.9 18.6 15.05 18.55 15.25 18.45 15.4 18.35 15.6 18.2 15.7 18.1 15.85 17.95 16.0 17.8 16.1 17.6 16.15 17.45 16.25 17.25 16.3 17.05 16.35 16.85 16.35 L16.85 16.35" fill="#f1edf8" fill-rule="evenodd" stroke="none"/>
      <path d="M26.3 17.0 Q26.3 17.0 26.25 17.0 26.25 16.95 26.2 16.95 26.15 16.95 26.1 16.9 26.05 16.85 26.0 16.8 25.95 16.75 25.9 16.7 25.9 16.65 25.9 16.6 25.85 16.55 25.85 16.5 25.85 16.45 25.8 16.4 25.8 16.35 25.8 16.35 25.8 16.35 25.8 16.3 25.8 16.3 25.8 15.4 25.8 14.25 25.8 13.55 25.8 13.3 25.8 13.05 25.8 12.8 25.8 12.65 25.75 12.45 25.75 12.3 25.75 12.2 25.7 12.1 25.7 12.0 25.65 11.95 25.65 11.9 25.6 11.85 25.6 11.8 25.55 11.8 25.55 11.8 25.55 11.8 25.25 11.4 24.85 11.15 24.5 10.9 24.1 10.8 23.75 10.7 23.3 10.7 22.95 10.7 22.55 10.75 22.2 10.85 21.85 10.95 21.6 11.05 21.35 11.2 21.15 11.3 20.95 11.4 20.9 11.45 20.85 11.45 L20.85 13.1 21.3 13.05 21.7 12.65 Q22.15 12.35 22.5 12.15 22.85 12.0 23.15 11.95 23.4 11.9 23.6 11.95 23.8 11.95 23.95 12.05 24.1 12.15 24.2 12.3 24.3 12.4 24.35 12.5 24.4 12.6 24.4 12.7 24.45 12.75 24.45 12.8 L22.55 13.1 Q22.55 13.1 22.45 13.15 22.35 13.2 22.25 13.25 22.1 13.3 21.9 13.4 21.7 13.5 21.55 13.6 21.3 13.7 21.15 13.8 20.95 13.9 20.8 14.0 20.6 14.15 20.5 14.25 20.4 14.35 20.35 14.45 20.2 14.75 20.15 15.05 20.05 15.35 20.0 15.6 19.95 15.8 19.95 16.05 19.95 16.2 20.0 16.35 20.0 16.5 20.05 16.65 20.1 16.75 20.1 16.8 20.15 16.85 20.2 16.9 20.2 16.95 20.2 16.95 20.35 17.2 20.6 17.35 20.8 17.5 21.0 17.6 21.25 17.7 21.5 17.75 21.7 17.8 21.9 17.8 22.1 17.8 22.3 17.75 22.5 17.75 22.65 17.7 22.75 17.7 22.85 17.65 22.9 17.65 22.95 17.65 L24.4 17.0 24.4 17.45 24.5 17.6 26.35 17.6 26.35 17.05 26.3 17.0 M24.4 15.7 L23.25 16.15 Q23.25 16.15 23.15 16.2 23.05 16.25 22.95 16.3 22.8 16.35 22.65 16.4 22.45 16.4 22.3 16.45 22.1 16.45 21.95 16.4 21.8 16.3 21.7 16.2 21.6 16.05 21.6 15.8 21.55 15.55 21.65 15.2 21.65 15.2 21.65 15.15 21.7 15.1 21.75 15.0 21.8 14.95 21.85 14.85 21.95 14.75 22.05 14.65 22.15 14.55 22.25 14.5 22.35 14.45 22.5 14.4 22.6 14.35 22.75 14.4 22.9 14.4 23.1 14.5 23.1 14.5 23.1 14.5 23.1 14.45 23.15 14.45 23.15 14.4 23.2 14.35 23.25 14.3 23.3 14.25 23.4 14.2 23.5 14.15 23.6 14.1 23.7 14.1 23.85 14.05 24.05 14.05 24.2 14.0 24.45 14.0 L24.4 15.7 24.4 15.7" fill="#f1edf8" fill-rule="evenodd" stroke="none"/>
      <path d="M29.05 16.3 Q29.05 16.3 29.0 16.3 28.9 16.3 28.8 16.25 28.65 16.25 28.55 16.2 28.4 16.1 28.25 16.0 28.1 15.9 27.95 15.75 27.8 15.6 27.7 15.4 27.6 15.15 27.5 14.9 27.45 14.55 27.45 14.2 27.45 13.8 27.5 13.5 27.6 13.15 27.7 12.95 27.85 12.7 28.0 12.55 28.15 12.4 28.3 12.25 28.45 12.15 28.6 12.1 28.75 12.05 28.9 12.0 29.0 12.0 29.1 12.0 29.1 12.0 29.15 12.0 29.15 12.0 29.2 12.0 29.3 12.0 29.35 12.0 29.5 12.0 29.6 12.0 29.75 12.05 29.85 12.05 30.0 12.1 30.1 12.15 30.25 12.25 30.35 12.35 30.45 12.45 30.5 12.6 30.55 12.75 30.55 12.9 L30.8 13.05 Q30.8 13.05 30.85 13.05 30.9 13.0 30.95 12.95 31.0 12.9 31.1 12.8 31.2 12.75 31.25 12.65 31.35 12.55 31.45 12.45 31.55 12.35 31.65 12.2 31.7 12.1 31.8 12.0 31.85 11.85 31.9 11.75 31.9 11.75 31.9 11.75 31.9 11.75 31.85 11.75 31.85 11.8 31.8 11.8 31.8 11.8 31.75 11.8 31.7 11.75 31.65 11.75 31.6 11.7 31.55 11.65 31.45 11.6 31.4 11.55 31.3 11.45 31.25 11.35 31.25 11.35 31.2 11.3 31.15 11.3 31.1 11.25 31.0 11.2 30.9 11.15 30.8 11.1 30.65 11.05 30.5 10.95 30.35 10.9 30.2 10.85 30.0 10.8 29.8 10.75 29.6 10.7 29.4 10.7 29.15 10.7 28.55 10.7 28.1 10.8 27.65 10.95 27.3 11.15 26.95 11.4 26.7 11.7 26.5 12.0 26.35 12.35 26.2 12.65 26.1 12.95 26.05 13.25 26.0 13.55 25.95 13.75 25.95 13.9 25.95 14.0 25.95 14.05 25.95 14.7 26.1 15.25 26.25 15.75 26.45 16.15 26.65 16.55 26.95 16.8 27.2 17.05 27.55 17.25 27.8 17.35 28.1 17.45 28.35 17.55 28.6 17.6 28.75 17.6 28.95 17.6 29.0 17.6 29.05 17.6 29.4 17.6 29.75 17.55 30.05 17.45 30.3 17.35 30.6 17.25 30.8 17.15 31.0 17.0 31.2 16.85 31.35 16.75 31.5 16.6 31.65 16.5 31.75 16.35 31.8 16.3 31.85 16.2 31.9 16.15 31.9 16.15 L31.85 14.45 31.55 14.5 Q31.4 14.85 31.15 15.15 31.0 15.4 30.75 15.6 30.55 15.75 30.35 15.9 30.15 16.05 29.95 16.1 29.8 16.2 29.6 16.25 29.45 16.25 29.3 16.25 29.2 16.3 29.15 16.3 29.1 16.3 29.05 16.3 L29.05 16.3" fill="#f1edf8" fill-rule="evenodd" stroke="none"/>
      <path d="M35.1 16.2 Q35.1 16.2 35.05 16.2 34.95 16.15 34.85 16.15 34.75 16.1 34.6 16.05 34.45 16.0 34.3 15.9 34.15 15.85 34.0 15.7 33.85 15.6 33.7 15.45 33.6 15.25 33.5 15.1 33.45 14.85 33.4 14.6 33.4 14.6 33.35 14.5 33.35 14.45 33.35 14.45 L34.3 14.45 36.5 14.35 Q36.5 14.35 36.55 14.35 36.6 14.35 36.65 14.35 36.75 14.35 36.85 14.3 36.95 14.3 37.05 14.25 37.15 14.25 37.25 14.2 37.4 14.15 37.5 14.1 37.6 14.0 37.7 13.95 37.75 13.85 37.8 13.7 L38.15 12.65 Q38.15 12.65 38.15 12.6 38.15 12.6 38.2 12.55 38.2 12.5 38.2 12.45 38.2 12.4 38.25 12.35 38.25 12.25 38.25 12.2 38.3 12.1 38.3 12.05 38.3 11.95 38.3 11.85 38.3 11.8 38.35 11.7 38.35 11.7 38.35 11.7 38.3 11.75 38.3 11.75 38.25 11.8 38.25 11.8 38.2 11.8 38.15 11.85 38.15 11.85 38.1 11.85 38.05 11.8 38.0 11.75 37.95 11.75 37.9 11.65 37.85 11.55 37.75 11.45 37.65 11.25 37.5 11.1 37.4 10.95 37.2 10.85 37.05 10.75 36.85 10.65 36.7 10.6 36.5 10.5 36.35 10.5 36.2 10.45 36.05 10.4 35.9 10.4 35.8 10.4 35.7 10.4 35.7 10.4 35.65 10.4 35.15 10.4 34.75 10.45 34.35 10.5 34.0 10.7 33.65 10.8 33.35 11.05 33.1 11.2 32.85 11.45 32.65 11.7 32.5 11.95 32.35 12.2 32.25 12.45 32.15 12.7 32.05 12.95 32.0 13.15 32.0 13.3 L31.55 13.5 Q31.6 13.55 31.6 13.65 31.65 13.7 31.65 13.75 31.65 13.8 31.7 13.9 31.7 14.0 31.7 14.0 31.7 14.05 31.7 14.1 31.75 14.15 31.75 14.2 31.8 14.25 31.85 14.25 31.85 14.25 31.95 14.3 L31.9 14.25 31.95 14.25 31.95 14.25 31.95 14.2 32.1 14.2 32.1 14.2 32.15 14.15 32.15 14.25 32.1 14.3 32.05 14.3 32.0 14.3 31.95 14.3 Q31.95 14.35 31.95 14.4 31.95 15.0 32.15 15.45 32.3 15.9 32.55 16.3 32.8 16.6 33.1 16.85 33.4 17.1 33.8 17.25 34.1 17.4 34.45 17.45 34.7 17.55 35.0 17.6 35.2 17.6 35.4 17.65 35.45 17.65 35.55 17.65 35.9 17.65 36.2 17.6 36.5 17.55 36.75 17.45 37.0 17.35 37.2 17.25 37.35 17.15 37.5 17.05 37.65 16.95 37.75 16.85 37.8 16.8 37.9 16.7 37.95 16.65 37.95 16.6 38.0 16.55 38.0 16.55 L38.0 15.15 37.35 15.2 Q37.3 15.4 37.15 15.55 37.0 15.7 36.85 15.8 36.7 15.9 36.5 16.0 36.3 16.05 36.1 16.1 35.9 16.15 35.75 16.15 35.55 16.2 35.4 16.2 35.3 16.2 35.2 16.2 35.15 16.2 35.1 16.2 L35.1 16.2 M35.45 11.4 Q35.45 11.4 35.5 11.4 35.6 11.4 35.65 11.45 35.8 11.45 35.9 11.5 36.0 11.55 36.15 11.6 36.3 11.7 36.4 11.8 36.5 11.9 36.6 12.05 36.7 12.25 36.75 12.45 36.8 12.7 36.75 12.95 36.8 12.95 36.0 13.15 35.15 13.3 34.6 13.3 L33.35 13.3 Q33.45 12.95 33.6 12.6 33.75 12.35 33.95 12.15 34.1 11.95 34.25 11.8 34.45 11.65 34.6 11.6 34.75 11.5 34.95 11.45 35.05 11.45 35.2 11.4 35.3 11.4 35.35 11.4 35.4 11.4 35.45 11.4 L35.45 11.4" fill="#f1edf8" fill-rule="evenodd" stroke="none"/>
    </g>
  </defs>
</svg>
