<?xml version="1.0" encoding="UTF-8" standalone="no"?>
<svg xmlns:ffdec="https://www.free-decompiler.com/flash" xmlns:xlink="http://www.w3.org/1999/xlink" ffdec:objectType="frame" height="26.55px" width="70.8px" xmlns="http://www.w3.org/2000/svg">
  <g transform="matrix(1.0, 0.0, 0.0, 1.0, 0.2, 0.4)">
    <use ffdec:characterId="27" height="26.0" transform="matrix(1.0, 0.0, 0.0, 1.0, 0.0, 0.0)" width="41.75" xlink:href="#shape0"/>
    <use ffdec:characterId="77" height="26.0" transform="matrix(1.0, 0.0, 0.0, 1.0, 0.0, 0.0)" width="41.75" xlink:href="#shape1"/>
    <use ffdec:characterId="77" height="26.0" transform="matrix(1.0, 0.0, 0.0, 1.0, 0.0, 0.0)" width="41.75" xlink:href="#shape1"/>
  </g>
  <defs>
    <g id="shape0" transform="matrix(1.0, 0.0, 0.0, 1.0, 0.0, 0.0)">
      <path d="M40.45 2.45 Q40.45 2.5 40.45 2.5 40.45 2.55 40.45 2.55 40.45 2.55 40.45 2.6 L40.45 4.05 39.8 3.8 40.45 4.5 40.45 5.25 39.9 5.25 40.45 6.45 40.45 7.1 40.25 8.15 40.45 7.8 40.45 9.55 39.8 9.85 40.1 10.05 40.7 9.8 40.7 8.05 40.45 8.4 40.7 7.35 40.7 6.7 40.15 5.5 40.7 5.5 40.7 4.75 40.05 4.05 40.7 4.3 40.7 2.85 Q40.7 2.8 40.7 2.8 40.7 2.7 40.7 2.65 40.7 2.55 40.65 2.55 40.65 2.5 40.6 2.5 40.55 2.5 40.45 2.45 L40.45 2.45 M40.45 10.4 L40.45 22.5 40.45 23.15 Q40.45 23.4 40.45 23.4 40.4 23.5 40.35 23.5 40.3 23.5 40.1 23.5 L39.45 23.5 38.8 23.5 37.9 23.5 37.95 23.75 39.05 23.75 39.7 23.75 40.35 23.75 Q40.6 23.75 40.65 23.75 40.7 23.7 40.7 23.4 L40.7 22.75 40.7 10.55 40.45 10.4 M37.65 22.75 L36.9 23.5 25.15 23.5 24.3 23.05 24.25 23.5 23.2 23.5 22.9 23.5 21.8 23.4 21.1 23.5 19.9 23.5 19.75 23.3 19.25 23.55 8.9 23.5 8.05 23.25 7.6 23.5 6.7 23.5 6.45 23.35 5.65 23.5 5.05 23.5 4.4 23.5 3.75 23.5 3.15 23.45 2.45 23.5 2.05 23.5 Q2.05 23.5 2.05 23.65 2.05 23.7 2.05 23.75 2.05 23.75 2.05 23.75 2.05 23.75 2.05 23.75 L2.7 23.75 3.4 23.7 4.0 23.75 4.65 23.75 5.25 23.75 5.9 23.75 6.7 23.6 6.95 23.75 7.85 23.75 18.15 23.75 18.95 23.75 19.5 23.8 20.0 23.55 20.1 23.75 21.35 23.75 22.05 23.65 23.15 23.75 23.45 23.75 24.45 23.75 24.55 23.3 25.35 23.75 37.1 23.75 37.7 23.2 37.65 22.75" fill="#ffffff" fill-rule="evenodd" stroke="none"/>
      <path d="M1.85 2.2 L5.15 2.2 5.4 2.65 5.7 2.4 6.95 2.2 13.95 2.2 14.1 2.7 14.55 2.2 15.85 2.2 28.95 2.2 29.45 2.65 29.65 2.2 30.3 2.2 40.1 2.2 Q40.3 2.2 40.35 2.25 40.4 2.25 40.45 2.35 40.45 2.4 40.45 2.55 40.45 2.55 40.45 2.6 L40.45 4.05 39.8 3.8 40.45 4.5 40.45 5.25 39.9 5.25 40.45 6.45 40.45 7.1 40.25 8.15 40.45 7.8 40.45 9.55 39.8 9.85 40.45 10.3 40.45 22.5 40.45 23.15 Q40.45 23.4 40.45 23.4 40.4 23.5 40.35 23.5 40.3 23.5 40.1 23.5 L39.45 23.5 38.8 23.5 37.7 23.5 37.65 22.75 36.9 23.5 25.15 23.5 24.3 23.05 24.25 23.5 23.2 23.5 22.9 23.5 21.8 23.4 21.1 23.5 19.9 23.5 19.75 23.3 19.25 23.55 8.9 23.5 8.05 23.25 7.6 23.5 6.7 23.5 6.45 23.35 5.65 23.5 5.05 23.5 4.4 23.5 3.75 23.5 3.15 23.45 2.45 23.5 1.85 23.5 Q1.8 23.5 1.8 23.5 1.8 23.5 1.8 23.5 1.6 23.5 1.55 23.5 1.5 23.5 1.45 23.45 1.45 23.4 1.45 23.2 1.45 23.2 1.45 23.2 1.45 23.2 1.45 23.2 1.45 23.15 1.45 23.15 L1.45 17.7 2.25 17.5 1.45 16.75 1.45 16.1 1.45 15.45 1.45 14.45 1.85 14.15 1.45 13.9 1.45 10.65 1.85 10.45 1.45 9.9 1.45 9.0 1.45 8.35 1.45 7.7 1.95 7.2 1.45 6.85 1.45 2.6 Q1.45 2.55 1.45 2.55 1.45 2.4 1.45 2.35 1.5 2.25 1.55 2.25 1.6 2.2 1.75 2.2 1.8 2.2 1.8 2.2 1.8 2.2 1.8 2.2 1.8 2.2 1.8 2.2 1.85 2.2 1.85 2.2 L1.85 2.2" fill="#000000" fill-rule="evenodd" stroke="none"/>
    </g>
    <g id="shape1" transform="matrix(1.0, 0.0, 0.0, 1.0, 0.0, 0.0)">
      <path d="M11.1 16.2 Q11.1 16.2 10.9 16.2 10.7 16.2 10.45 16.2 10.05 16.15 9.75 16.1 9.3 16.0 8.95 15.85 8.5 15.65 8.15 15.4 7.75 15.1 7.45 14.7 7.15 14.25 6.95 13.7 6.8 13.05 6.8 12.3 6.8 11.4 7.0 10.65 7.15 9.95 7.45 9.4 7.75 8.9 8.15 8.55 8.5 8.25 8.95 8.0 9.3 7.8 9.7 7.7 10.05 7.6 10.4 7.55 10.65 7.5 10.9 7.5 11.0 7.5 11.1 7.5 11.1 7.5 11.2 7.5 11.3 7.5 11.45 7.55 11.65 7.55 11.8 7.6 12.0 7.7 12.2 7.8 12.45 7.9 12.65 8.1 12.85 8.25 13.0 8.5 13.2 8.8 13.3 9.1 13.4 9.5 13.4 9.9 L13.95 10.1 Q13.95 10.1 14.0 10.05 14.15 9.85 14.1 9.85 14.2 9.75 14.3 9.6 14.45 9.45 14.55 9.3 14.65 9.1 14.8 8.9 14.9 8.7 15.05 8.5 15.15 8.25 15.25 8.05 15.4 7.8 15.45 7.6 15.45 7.6 15.45 7.6 15.4 7.65 15.4 7.65 15.35 7.65 15.3 7.65 15.25 7.7 15.2 7.65 15.1 7.65 15.0 7.6 14.9 7.55 14.8 7.5 14.7 7.4 14.55 7.25 14.4 7.1 14.25 6.9 14.25 6.9 14.2 6.85 14.1 6.8 14.0 6.7 13.85 6.65 13.65 6.55 13.45 6.45 13.25 6.35 12.95 6.25 12.7 6.15 12.35 6.05 12.05 5.95 11.65 5.85 11.3 5.85 10.9 5.8 10.45 5.8 9.4 5.75 8.5 6.0 7.7 6.2 7.05 6.65 6.45 7.05 6.0 7.6 5.6 8.1 5.3 8.75 5.05 9.3 4.9 9.9 4.75 10.4 4.7 10.9 4.65 11.25 4.65 11.6 4.6 11.75 4.6 11.9 4.6 13.1 4.9 14.1 5.1 15.0 5.55 15.75 5.9 16.4 6.45 16.9 6.9 17.3 7.5 17.65 8.0 17.9 8.55 18.05 8.95 18.2 9.45 18.3 9.75 18.35 10.05 18.35 10.2 18.35 10.3 18.35 10.95 18.35 11.55 18.2 12.1 18.05 12.6 17.8 13.05 17.6 13.5 17.3 13.85 17.05 14.2 16.75 14.5 16.5 14.75 16.2 15.0 15.95 15.15 15.7 15.3 15.55 15.4 15.4 15.45 15.3 15.45 15.25 L15.5 13.9 14.85 14.0 Q14.65 14.4 14.35 14.7 14.05 15.0 13.75 15.25 13.45 15.5 13.1 15.65 12.85 15.8 12.5 15.9 12.25 16.0 11.95 16.1 11.75 16.15 11.5 16.2 11.35 16.2 11.2 16.2 11.15 16.2 11.1 16.2 L11.1 16.2" fill="#f1edf8" fill-rule="evenodd" stroke="none"/>
      <path d="M23.35 16.3 Q23.35 16.3 23.35 16.25 23.3 16.2 23.25 16.2 23.2 16.2 23.1 16.15 23.05 16.1 23.0 16.05 22.95 16.0 22.9 15.9 22.9 15.85 22.85 15.8 22.85 15.75 22.8 15.65 22.8 15.6 22.8 15.55 22.8 15.55 22.8 15.5 22.8 15.5 22.8 15.5 22.75 15.4 22.8 12.15 22.8 11.85 22.8 11.55 22.8 11.3 22.75 11.05 22.75 10.85 22.7 10.7 22.7 10.55 22.65 10.45 22.65 10.35 22.6 10.25 22.55 10.2 22.55 10.15 22.5 10.1 22.5 10.1 22.5 10.1 22.5 10.05 22.15 9.55 21.65 9.25 21.25 9.0 20.75 8.85 20.3 8.75 19.8 8.75 19.4 8.75 18.9 8.85 18.5 8.95 18.1 9.1 17.75 9.2 17.45 9.35 17.2 9.5 17.0 9.6 16.95 9.65 16.85 9.7 L16.9 11.65 17.4 11.55 17.9 11.1 Q18.4 10.75 18.85 10.55 19.25 10.35 19.6 10.25 19.9 10.2 20.15 10.25 20.4 10.3 20.6 10.4 20.75 10.5 20.85 10.65 20.95 10.8 21.05 10.95 21.1 11.05 21.1 11.15 21.15 11.2 21.15 11.25 L18.9 11.65 Q18.9 11.65 18.8 11.7 18.7 11.75 18.55 11.8 18.35 11.9 18.15 12.0 17.9 12.1 17.7 12.2 17.45 12.35 17.25 12.5 17.0 12.6 16.8 12.75 16.6 12.9 16.5 13.0 16.35 13.1 16.3 13.2 16.15 13.6 16.05 13.95 15.95 14.3 15.9 14.6 15.85 14.85 15.85 15.1 15.85 15.35 15.85 15.55 15.9 15.7 15.95 15.85 15.95 15.95 16.0 16.05 16.05 16.15 16.1 16.2 16.1 16.2 16.1 16.2 16.3 16.5 16.55 16.7 16.8 16.9 17.1 17.0 17.35 17.1 17.65 17.15 17.9 17.2 18.15 17.2 18.4 17.25 18.6 17.2 18.8 17.2 19.0 17.15 19.15 17.1 19.25 17.05 19.3 17.05 19.35 17.05 L21.1 16.3 21.1 16.8 21.25 17.0 23.4 17.0 23.4 16.35 23.35 16.3 M21.1 14.7 L19.75 15.3 Q19.75 15.3 19.65 15.35 19.5 15.4 19.35 15.45 19.2 15.5 19.0 15.55 18.75 15.6 18.6 15.6 18.35 15.6 18.2 15.55 18.0 15.5 17.9 15.3 17.75 15.15 17.75 14.85 17.7 14.55 17.8 14.15 17.8 14.15 17.85 14.1 17.9 14.0 17.95 13.95 18.0 13.8 18.1 13.7 18.2 13.6 18.3 13.5 18.4 13.4 18.55 13.3 18.7 13.2 18.85 13.2 19.0 13.15 19.15 13.2 19.35 13.2 19.55 13.3 19.55 13.3 19.55 13.3 19.55 13.25 19.6 13.2 19.6 13.15 19.65 13.15 19.75 13.05 19.8 13.0 19.9 12.95 20.0 12.9 20.15 12.85 20.3 12.8 20.45 12.75 20.65 12.75 20.9 12.7 21.15 12.7 L21.1 14.7 21.1 14.7" fill="#f1edf8" fill-rule="evenodd" stroke="none"/>
      <path d="M27.6 8.9 Q27.55 8.9 27.5 8.9 L27.5 8.9 Q27.3 8.9 27.15 8.9 26.95 8.9 26.8 8.95 26.65 8.95 26.5 8.95 26.35 9.0 26.2 9.05 26.05 9.05 25.95 9.1 25.8 9.15 25.7 9.2 25.55 9.25 25.45 9.3 25.3 9.35 25.2 9.45 L25.2 8.85 24.2 8.85 23.05 9.6 23.2 9.7 Q23.25 9.7 23.3 9.7 23.35 9.75 23.4 9.8 23.4 9.8 23.45 9.9 23.45 9.95 23.5 10.0 23.5 10.05 23.55 10.1 23.55 10.15 23.55 10.2 23.55 10.25 23.55 10.3 23.55 10.3 23.55 10.3 L23.55 10.3 Q23.55 10.3 23.55 10.3 L23.55 11.3 23.55 19.95 Q23.55 19.95 23.55 20.0 23.55 20.05 23.55 20.1 23.55 20.2 23.55 20.25 23.55 20.35 23.5 20.45 23.5 20.6 23.45 20.7 23.45 20.8 23.4 20.9 23.35 21.0 23.25 21.1 23.2 21.15 23.1 21.25 L25.25 21.9 25.7 21.9 Q25.7 21.9 25.7 21.85 25.6 21.65 25.65 21.75 25.6 21.65 25.55 21.55 25.55 21.4 25.5 21.3 25.45 21.15 25.4 21.05 25.4 20.9 25.35 20.75 25.3 20.6 25.3 20.45 25.3 20.25 25.3 20.1 L25.3 18.55 25.15 18.45 25.15 18.3 25.0 18.3 25.0 18.25 24.95 18.15 24.9 18.2 24.9 18.05 25.0 18.05 25.1 18.0 25.15 18.15 25.25 18.2 25.25 16.3 Q25.35 16.4 25.5 16.5 25.6 16.6 25.75 16.65 25.85 16.75 26.0 16.8 26.1 16.85 26.25 16.85 26.35 16.9 26.5 16.95 26.6 16.95 26.75 16.95 26.85 17.0 27.0 17.0 27.05 17.0 27.25 17.0 27.75 17.05 28.15 17.0 28.6 16.95 28.95 16.8 29.35 16.7 29.65 16.5 30.0 16.3 30.25 16.05 30.5 15.8 30.7 15.45 30.9 15.15 31.05 14.75 31.2 14.4 31.25 14.0 31.35 13.55 31.35 13.1 31.35 12.6 31.3 12.15 31.2 11.7 31.05 11.3 30.95 10.9 30.75 10.6 30.55 10.25 30.3 10.0 30.05 9.7 29.75 9.5 29.45 9.3 29.1 9.2 28.75 9.05 28.4 8.95 28.0 8.9 27.6 8.9 L27.6 8.9 M27.45 15.5 Q27.15 15.5 26.9 15.45 26.65 15.35 26.45 15.25 26.25 15.15 26.1 14.95 25.9 14.8 25.8 14.6 25.65 14.45 25.55 14.25 25.45 14.05 25.4 13.85 25.35 13.65 25.3 13.45 25.3 13.25 25.3 13.05 25.3 12.75 25.35 12.45 25.4 12.15 25.45 11.9 25.55 11.65 25.65 11.4 25.75 11.2 25.9 11.05 26.05 10.9 26.2 10.75 26.35 10.6 26.55 10.55 26.7 10.45 26.9 10.4 27.1 10.35 27.25 10.35 27.55 10.35 27.8 10.4 28.05 10.45 28.3 10.55 28.55 10.65 28.75 10.8 28.9 10.9 29.1 11.1 29.25 11.25 29.35 11.5 29.5 11.7 29.55 11.95 29.65 12.2 29.7 12.5 29.7 12.8 29.7 13.1 29.7 13.35 29.65 13.55 29.65 13.8 29.55 14.0 29.45 14.2 29.35 14.4 29.25 14.6 29.1 14.75 28.95 14.95 28.75 15.05 28.6 15.2 28.35 15.3 28.15 15.4 27.95 15.45 27.7 15.5 27.45 15.5 L27.45 15.5" fill="#f1edf8" fill-rule="evenodd" stroke="none"/>
      <path d="M36.85 14.45 Q36.85 14.2 36.8 13.95 36.75 13.7 36.65 13.5 36.55 13.35 36.45 13.2 36.35 13.1 36.25 13.0 36.15 12.9 36.0 12.8 35.95 12.75 35.85 12.7 35.75 12.7 35.7 12.65 35.7 12.65 35.65 12.65 34.9 12.45 34.15 12.3 33.9 12.2 33.7 12.05 33.5 11.95 33.35 11.8 33.25 11.7 33.15 11.6 33.1 11.45 33.05 11.35 33.0 11.25 33.0 11.15 33.0 11.1 33.0 11.0 33.0 10.95 33.0 10.9 33.0 10.9 33.0 10.85 33.1 10.6 33.3 10.4 33.45 10.25 33.7 10.15 33.9 10.1 34.15 10.05 34.35 10.05 34.6 10.05 34.8 10.1 35.0 10.15 35.2 10.2 35.35 10.25 35.5 10.3 35.6 10.35 35.65 10.35 35.7 10.4 L36.45 10.4 36.45 9.25 Q36.1 9.1 35.8 8.95 35.45 8.85 35.15 8.8 34.85 8.75 34.6 8.75 34.3 8.7 34.05 8.75 33.85 8.75 33.65 8.8 33.5 8.8 33.3 8.85 33.2 8.85 33.1 8.9 33.1 8.9 33.05 8.95 32.8 9.05 32.55 9.15 32.35 9.25 32.2 9.45 32.05 9.55 31.95 9.75 31.85 9.9 31.8 10.1 31.7 10.2 31.65 10.4 31.65 10.5 31.6 10.65 31.6 10.75 31.6 10.8 31.6 10.85 31.6 10.9 31.6 11.2 31.65 11.45 31.7 11.7 31.8 11.95 31.9 12.15 32.05 12.35 32.15 12.5 32.3 12.65 32.45 12.8 32.55 12.9 32.7 13.0 32.8 13.05 32.9 13.1 32.95 13.15 33.0 13.2 33.0 13.2 L33.2 13.15 33.25 13.05 33.4 13.05 33.55 12.9 33.8 12.9 Q33.75 12.95 33.65 13.0 33.6 13.0 33.55 13.05 33.5 13.1 33.45 13.15 33.45 13.2 33.4 13.2 33.35 13.25 33.35 13.3 33.35 13.3 33.3 13.35 33.3 13.35 33.3 13.35 33.3 13.35 33.3 13.35 33.7 13.4 34.05 13.5 34.35 13.6 34.6 13.7 34.8 13.8 35.0 13.9 35.15 14.0 35.25 14.1 35.3 14.2 35.35 14.3 35.4 14.35 35.4 14.4 35.45 14.5 35.45 14.5 35.45 14.55 35.45 14.55 35.45 14.75 35.4 14.9 35.3 15.05 35.2 15.15 35.1 15.25 34.95 15.35 34.8 15.4 34.65 15.45 34.5 15.5 34.35 15.55 34.25 15.55 34.1 15.6 34.0 15.6 33.95 15.6 33.9 15.6 33.85 15.6 33.6 15.6 33.4 15.55 33.2 15.5 33.0 15.4 32.85 15.35 32.7 15.25 32.6 15.15 32.5 15.05 32.4 15.0 32.35 14.9 32.3 14.8 32.25 14.75 32.2 14.7 32.2 14.65 32.2 14.65 32.2 14.6 L31.4 14.6 31.4 15.9 Q31.5 16.1 31.65 16.25 31.8 16.4 32.0 16.55 32.2 16.65 32.45 16.75 32.65 16.8 32.85 16.9 33.05 16.9 33.3 16.95 33.45 17.0 33.6 17.0 33.75 17.0 33.85 17.0 33.9 17.0 33.95 17.0 34.25 17.0 34.5 17.0 34.75 16.95 35.0 16.9 35.2 16.85 35.4 16.8 35.55 16.7 35.7 16.65 35.85 16.55 35.95 16.45 36.05 16.4 36.1 16.35 36.15 16.3 36.2 16.25 36.2 16.2 36.2 16.2 36.35 16.0 36.45 15.8 36.55 15.65 36.6 15.5 36.7 15.35 36.75 15.2 36.8 15.05 36.8 14.95 36.85 14.8 36.85 14.75 36.85 14.65 36.85 14.6 36.85 14.55 36.85 14.5 36.85 14.45 36.85 14.45 L36.85 14.45" fill="#f1edf8" fill-rule="evenodd" stroke="none"/>
    </g>
  </defs>
</svg>
