<?xml version="1.0" encoding="UTF-8" standalone="no"?>
<svg xmlns:ffdec="https://www.free-decompiler.com/flash" xmlns:xlink="http://www.w3.org/1999/xlink" ffdec:objectType="frame" height="26.55px" width="70.8px" xmlns="http://www.w3.org/2000/svg">
  <g transform="matrix(1.0, 0.0, 0.0, 1.0, 0.2, 0.4)">
    <use ffdec:characterId="3" height="26.0" transform="matrix(1.0, 0.0, 0.0, 1.0, 0.0, 0.0)" width="26.0" xlink:href="#shape0"/>
    <use ffdec:characterId="12" height="26.0" transform="matrix(1.0, 0.0, 0.0, 1.0, 0.0, 0.0)" width="26.0" xlink:href="#shape1"/>
    <use ffdec:characterId="12" height="26.0" transform="matrix(1.0, 0.0, 0.0, 1.0, 0.0, 0.0)" width="26.0" xlink:href="#shape1"/>
    <use ffdec:characterId="13" height="26.0" transform="matrix(1.0, 0.0, 0.0, 1.0, 0.0, 0.0)" width="26.0" xlink:href="#shape2"/>
    <use ffdec:characterId="13" height="26.0" transform="matrix(1.0, 0.0, 0.0, 1.0, 0.0, 0.0)" width="26.0" xlink:href="#shape2"/>
  </g>
  <defs>
    <g id="shape0" transform="matrix(1.0, 0.0, 0.0, 1.0, 0.0, 0.0)">
      <path d="M23.5 2.45 Q23.5 2.5 23.5 2.5 23.5 2.55 23.5 2.55 23.5 2.55 23.5 2.55 23.5 2.6 23.5 2.6 L23.5 4.05 22.85 3.8 23.5 4.5 23.5 5.25 22.95 5.25 23.5 6.45 23.5 7.1 23.3 8.15 23.5 7.8 23.5 9.55 22.85 9.85 23.15 10.05 23.75 9.8 23.75 8.05 23.5 8.4 23.75 7.35 23.75 6.7 23.2 5.5 23.75 5.5 23.75 4.75 23.1 4.05 23.75 4.3 23.75 2.85 Q23.75 2.8 23.75 2.8 23.75 2.7 23.75 2.65 23.75 2.55 23.7 2.55 23.7 2.5 23.65 2.5 23.6 2.5 23.5 2.45 L23.5 2.45 M23.5 10.4 L23.5 22.5 23.5 23.15 Q23.5 23.4 23.5 23.4 23.45 23.5 23.4 23.5 23.35 23.5 23.15 23.5 L22.5 23.5 21.85 23.5 20.95 23.5 21.0 23.75 22.1 23.75 22.75 23.75 23.4 23.75 Q23.65 23.75 23.7 23.75 23.75 23.7 23.75 23.4 L23.75 22.75 23.75 10.55 23.5 10.4 M20.7 22.75 L19.95 23.5 16.1 23.5 15.25 23.05 15.2 23.5 14.15 23.5 13.9 23.5 12.75 23.4 12.05 23.5 10.85 23.5 10.7 23.3 10.2 23.55 9.7 23.5 8.85 23.25 8.4 23.5 7.5 23.5 7.25 23.35 6.45 23.5 5.85 23.5 5.2 23.5 4.55 23.5 3.95 23.45 3.25 23.5 2.85 23.5 Q2.85 23.55 2.85 23.6 2.85 23.65 2.85 23.7 2.8 23.7 2.8 23.75 2.85 23.75 2.85 23.75 2.85 23.75 2.85 23.75 L3.5 23.75 4.2 23.7 4.8 23.75 5.45 23.75 6.05 23.75 6.7 23.75 7.45 23.6 7.75 23.75 8.65 23.75 9.1 23.5 9.9 23.75 10.45 23.8 10.95 23.55 11.1 23.75 12.3 23.75 13.0 23.65 14.1 23.75 14.4 23.75 15.4 23.75 15.5 23.3 16.35 23.75 20.15 23.75 20.75 23.2 20.7 22.75" fill="#ffffff" fill-rule="evenodd" stroke="none"/>
      <path d="M2.6 2.2 L5.95 2.2 6.2 2.65 6.5 2.4 7.75 2.2 13.5 2.2 13.7 2.7 14.15 2.2 15.45 2.2 16.65 2.2 17.15 2.65 17.35 2.2 18.0 2.2 23.15 2.2 Q23.35 2.2 23.4 2.25 23.45 2.25 23.5 2.35 23.5 2.4 23.5 2.55 23.5 2.55 23.5 2.6 L23.5 4.05 22.85 3.8 23.5 4.5 23.5 5.25 22.95 5.25 23.5 6.45 23.5 7.1 23.3 8.15 23.5 7.8 23.5 9.55 22.85 9.85 23.5 10.3 23.5 22.5 23.5 23.15 Q23.5 23.4 23.5 23.4 23.45 23.5 23.4 23.5 23.35 23.5 23.15 23.5 L22.5 23.5 21.85 23.5 20.75 23.5 20.7 22.75 19.95 23.5 16.1 23.5 15.25 23.05 15.2 23.5 14.15 23.5 13.9 23.5 12.75 23.4 12.05 23.5 10.85 23.5 10.7 23.3 10.2 23.55 9.7 23.5 8.85 23.25 8.4 23.5 7.5 23.5 7.25 23.35 6.45 23.5 5.85 23.5 5.2 23.5 4.55 23.5 3.95 23.45 3.25 23.5 2.6 23.5 Q2.6 23.5 2.6 23.5 2.6 23.5 2.6 23.5 2.4 23.5 2.35 23.5 2.3 23.5 2.25 23.45 2.25 23.4 2.25 23.2 2.25 23.2 2.25 23.2 2.25 23.2 2.25 23.2 2.25 23.15 2.25 23.15 L2.25 17.7 3.05 17.5 2.25 16.75 2.25 16.1 2.25 15.45 2.25 14.45 2.65 14.15 2.25 13.9 2.25 10.65 2.65 10.45 2.25 9.9 2.25 9.0 2.25 8.35 2.25 7.7 2.75 7.2 2.25 6.85 2.25 2.6 Q2.25 2.55 2.25 2.55 2.25 2.4 2.25 2.35 2.3 2.25 2.35 2.25 2.4 2.2 2.55 2.2 2.55 2.2 2.6 2.2 2.6 2.2 2.6 2.2 2.6 2.2 2.6 2.2 L2.6 2.2" fill="#000000" fill-rule="evenodd" stroke="none"/>
    </g>
    <g id="shape1" transform="matrix(1.0, 0.0, 0.0, 1.0, 0.0, 0.0)">
      <path d="M12.0 5.05 Q12.0 5.05 11.6 5.2 11.4 5.25 11.2 5.3 10.95 5.35 10.7 5.4 10.4 5.45 10.1 5.5 9.8 5.6 9.5 5.65 9.15 5.7 8.85 5.7 8.55 5.75 8.25 5.75 8.0 5.8 7.8 5.8 7.55 5.75 7.4 5.75 7.3 5.7 6.95 5.6 6.95 5.6 6.7 5.6 6.5 5.6 6.3 5.65 6.15 5.7 5.95 5.75 5.8 5.8 5.65 5.9 5.5 6.05 5.4 6.15 5.25 6.3 5.15 6.45 5.05 6.6 5.0 6.75 4.9 6.9 4.85 7.1 4.85 7.3 4.85 7.5 4.85 7.7 4.9 7.85 4.9 8.05 5.0 8.2 5.05 8.4 5.15 8.55 5.25 8.65 5.4 8.8 5.5 8.95 5.65 9.0 5.8 9.15 6.0 9.2 6.15 9.25 6.35 9.3 6.5 9.35 6.7 9.35 6.9 9.35 7.1 9.3 7.25 9.25 7.45 9.2 7.6 9.15 7.75 9.05 7.9 8.95 8.0 8.8 8.15 8.65 8.25 8.5 8.35 8.35 8.4 8.2 8.5 8.05 8.55 7.85 8.55 7.65 8.55 7.5 8.55 7.45 8.55 7.4 8.55 7.35 8.55 7.3 8.55 7.25 8.55 7.25 8.55 7.2 8.55 7.15 8.55 7.1 8.5 7.05 8.5 7.0 8.5 6.95 8.45 6.9 8.45 6.85 8.45 6.8 8.45 6.75 8.45 6.7 8.4 6.65 8.4 6.65 8.4 6.6 8.35 6.55 8.35 6.5 8.3 6.45 8.3 6.45 8.25 6.4 8.2 6.35 8.25 6.35 8.35 6.35 8.45 6.4 8.45 6.4 8.55 6.4 8.65 6.4 8.7 6.45 8.8 6.45 8.9 6.45 9.0 6.45 9.1 6.45 9.25 6.45 9.35 6.4 9.5 6.4 9.6 6.35 9.75 6.3 9.75 6.3 9.95 6.25 9.95 6.25 9.9 6.3 9.85 6.3 9.85 6.35 9.85 6.3 7.45 10.0 5.05 13.6 5.2 13.65 5.75 13.6 6.35 13.5 6.25 13.5 8.55 9.8 11.0 5.9 12.0 5.05 L12.0 5.05 M6.7 6.35 Q6.8 6.35 6.95 6.4 7.05 6.4 7.15 6.45 7.25 6.5 7.35 6.55 7.4 6.6 7.5 6.7 7.55 6.8 7.6 6.85 7.65 6.95 7.7 7.05 7.75 7.15 7.75 7.25 7.8 7.35 7.8 7.45 7.8 7.55 7.8 7.65 7.75 7.75 7.7 7.85 7.7 7.95 7.65 8.0 7.6 8.1 7.5 8.15 7.45 8.25 7.35 8.3 7.3 8.35 7.2 8.4 7.1 8.45 6.95 8.5 6.85 8.5 6.7 8.5 6.55 8.5 6.45 8.5 6.35 8.45 6.25 8.4 6.15 8.35 6.05 8.3 6.0 8.25 5.9 8.15 5.85 8.1 5.8 8.0 5.75 7.95 5.7 7.85 5.7 7.75 5.65 7.65 5.65 7.55 5.65 7.5 5.65 7.4 5.65 7.3 5.7 7.2 5.75 7.1 5.75 7.0 5.8 6.9 5.9 6.8 5.95 6.75 6.0 6.65 6.1 6.6 6.2 6.5 6.3 6.45 6.4 6.4 6.5 6.4 6.6 6.35 6.7 6.35 L6.7 6.35 M10.3 8.95 Q10.1 8.95 9.9 9.0 9.75 9.05 9.55 9.1 9.4 9.2 9.25 9.3 9.1 9.4 8.95 9.5 8.85 9.65 8.75 9.8 8.65 9.95 8.55 10.1 8.5 10.25 8.45 10.45 8.4 10.65 8.4 10.85 8.4 11.05 8.45 11.2 8.5 11.4 8.55 11.55 8.65 11.75 8.75 11.9 8.85 12.05 8.95 12.15 9.1 12.3 9.25 12.4 9.4 12.5 9.55 12.55 9.75 12.65 9.9 12.65 10.1 12.7 10.3 12.7 10.5 12.7 10.65 12.65 10.85 12.65 11.0 12.55 11.2 12.5 11.35 12.4 11.5 12.3 11.6 12.15 11.75 12.0 11.85 11.85 11.95 11.7 12.0 11.55 12.1 11.4 12.1 11.2 12.15 11.0 12.15 10.85 12.15 10.65 12.1 10.45 12.1 10.3 12.0 10.1 11.95 9.95 11.85 9.8 11.75 9.65 11.6 9.5 11.5 9.4 11.35 9.3 11.2 9.2 11.0 9.1 10.85 9.05 10.65 9.0 10.5 8.95 10.3 8.95 L10.3 8.95 M10.3 11.85 Q10.2 11.85 10.1 11.85 10.0 11.85 9.95 11.8 9.85 11.75 9.75 11.7 9.7 11.65 9.6 11.6 9.55 11.55 9.45 11.45 9.4 11.35 9.35 11.25 9.35 11.15 9.3 11.05 9.3 10.95 9.3 10.85 9.3 10.75 9.3 10.6 9.35 10.5 9.35 10.4 9.4 10.3 9.45 10.2 9.5 10.15 9.6 10.05 9.65 10.0 9.75 9.95 9.8 9.9 9.9 9.85 10.0 9.8 10.1 9.8 10.2 9.75 10.3 9.75 10.4 9.75 10.5 9.75 10.6 9.8 10.7 9.85 10.8 9.85 10.9 9.95 10.95 10.0 11.05 10.05 11.1 10.15 11.15 10.2 11.2 10.3 11.25 10.4 11.3 10.5 11.3 10.6 11.3 10.7 11.3 10.8 11.3 10.9 11.3 11.0 11.25 11.15 11.25 11.25 11.2 11.35 11.15 11.4 11.1 11.5 11.05 11.55 11.0 11.65 10.9 11.7 10.8 11.75 10.75 11.8 10.65 11.85 10.55 11.85 10.4 11.85 10.3 11.85 L10.3 11.85" fill="#f1edf8" fill-rule="evenodd" stroke="none"/>
    </g>
    <g id="shape2" transform="matrix(1.0, 0.0, 0.0, 1.0, 0.0, 0.0)">
      <path d="M11.9 18.65 Q11.9 18.65 11.85 18.7 11.85 18.8 11.8 18.9 11.75 19.05 11.75 19.2 11.7 19.35 11.65 19.55 11.6 19.7 11.55 19.9 11.5 20.1 11.5 20.25 11.45 20.45 11.45 20.6 11.45 20.75 11.45 20.85 11.45 20.95 11.6 21.05 11.75 21.15 12.0 21.25 12.2 21.3 12.55 21.4 12.9 21.45 13.3 21.5 13.7 21.55 14.15 21.6 14.6 21.6 15.05 21.6 15.55 21.6 16.05 21.6 16.55 21.55 17.0 21.5 17.2 21.45 17.4 21.45 17.7 21.35 18.0 21.25 18.4 21.15 18.75 21.0 19.15 20.8 19.55 20.55 19.95 20.25 20.25 19.95 20.65 19.55 20.9 19.1 21.15 18.6 21.3 18.0 21.5 17.35 21.5 16.65 21.5 16.25 21.4 15.85 21.3 15.5 21.15 15.15 21.0 14.8 20.75 14.5 20.5 14.25 20.25 14.0 20.0 13.75 19.65 13.55 19.35 13.4 19.05 13.25 18.75 13.1 18.4 13.0 18.1 12.9 17.8 12.85 17.75 12.85 17.65 12.85 17.5 12.8 17.3 12.8 17.1 12.8 16.9 12.75 16.6 12.75 16.4 12.75 16.1 12.75 15.85 12.75 15.55 12.8 15.3 12.8 15.05 12.85 14.85 12.9 14.65 13.0 14.5 13.1 14.5 13.1 14.5 12.95 14.5 12.8 14.55 12.6 14.55 12.3 14.6 12.05 14.6 11.75 14.65 11.45 14.7 11.1 14.8 10.85 14.85 10.55 14.95 10.3 15.05 10.05 15.15 9.95 15.3 9.8 15.45 9.8 15.8 9.8 18.2 9.9 20.5 9.95 20.8 9.95 20.9 9.95 21.0 9.85 21.1 9.75 21.2 9.6 21.3 9.45 21.4 9.2 21.45 9.05 21.55 8.8 21.6 8.6 21.65 8.35 21.75 8.2 21.75 8.0 21.8 7.85 21.85 7.75 21.85 7.7 21.85 7.65 L20.3 7.65 Q20.25 7.65 20.2 7.65 20.2 7.65 20.15 7.7 20.05 7.7 20.1 7.7 20.05 7.75 19.95 7.75 19.9 7.75 19.8 7.8 19.7 7.8 19.55 7.8 19.35 7.85 19.15 7.85 18.95 7.85 18.65 7.85 17.05 7.85 14.1 7.85 13.85 7.85 13.65 8.05 13.45 8.2 13.25 8.55 13.1 8.9 12.95 9.35 12.8 9.75 12.7 10.3 12.6 10.8 12.55 11.4 12.45 11.95 12.4 12.55 12.4 13.1 12.35 13.65 12.3 14.2 12.3 14.7 12.3 14.7 12.3 14.7 12.4 14.8 12.4 14.8 12.45 14.85 12.5 14.9 12.55 14.95 12.6 15.0 12.7 15.05 12.8 15.1 12.9 15.2 13.0 15.2 13.1 15.25 13.25 15.3 13.35 15.3 13.5 15.3 13.5 15.3 13.75 15.25 14.05 15.15 14.4 15.05 14.85 14.95 15.25 14.9 15.8 14.8 16.3 14.8 16.85 14.75 17.35 14.85 17.85 14.9 18.25 15.1 18.65 15.35 18.85 15.7 19.1 16.1 19.1 16.7 19.1 17.3 18.9 17.8 18.7 18.25 18.3 18.55 17.95 18.9 17.45 19.1 17.0 19.25 16.4 19.35 15.9 19.4 15.25 19.4 14.65 19.4 14.05 19.3 13.45 19.2 12.9 19.0 12.35 18.85 11.9 18.65 L11.9 18.65" fill="#f1edf8" fill-rule="evenodd" stroke="none"/>
    </g>
  </defs>
</svg>
