<?xml version="1.0" encoding="UTF-8" standalone="no"?>
<svg xmlns:ffdec="https://www.free-decompiler.com/flash" xmlns:xlink="http://www.w3.org/1999/xlink" ffdec:objectType="frame" height="26.55px" width="70.8px" xmlns="http://www.w3.org/2000/svg">
  <g transform="matrix(1.0, 0.0, 0.0, 1.0, 0.2, 0.4)">
    <use ffdec:characterId="3" height="26.0" transform="matrix(1.0, 0.0, 0.0, 1.0, 0.0, 0.0)" width="26.0" xlink:href="#shape0"/>
    <use ffdec:characterId="79" height="26.0" transform="matrix(1.0, 0.0, 0.0, 1.0, 0.0, 0.0)" width="26.0" xlink:href="#shape1"/>
    <use ffdec:characterId="79" height="26.0" transform="matrix(1.0, 0.0, 0.0, 1.0, 0.0, 0.0)" width="26.0" xlink:href="#shape1"/>
  </g>
  <defs>
    <g id="shape0" transform="matrix(1.0, 0.0, 0.0, 1.0, 0.0, 0.0)">
      <path d="M23.5 2.45 Q23.5 2.5 23.5 2.5 23.5 2.55 23.5 2.55 23.5 2.55 23.5 2.55 23.5 2.6 23.5 2.6 L23.5 4.05 22.85 3.8 23.5 4.5 23.5 5.25 22.95 5.25 23.5 6.45 23.5 7.1 23.3 8.15 23.5 7.8 23.5 9.55 22.85 9.85 23.15 10.05 23.75 9.8 23.75 8.05 23.5 8.4 23.75 7.35 23.75 6.7 23.2 5.5 23.75 5.5 23.75 4.75 23.1 4.05 23.75 4.3 23.75 2.85 Q23.75 2.8 23.75 2.8 23.75 2.7 23.75 2.65 23.75 2.55 23.7 2.55 23.7 2.5 23.65 2.5 23.6 2.5 23.5 2.45 L23.5 2.45 M23.5 10.4 L23.5 22.5 23.5 23.15 Q23.5 23.4 23.5 23.4 23.45 23.5 23.4 23.5 23.35 23.5 23.15 23.5 L22.5 23.5 21.85 23.5 20.95 23.5 21.0 23.75 22.1 23.75 22.75 23.75 23.4 23.75 Q23.65 23.75 23.7 23.75 23.75 23.7 23.75 23.4 L23.75 22.75 23.75 10.55 23.5 10.4 M20.7 22.75 L19.95 23.5 16.1 23.5 15.25 23.05 15.2 23.5 14.15 23.5 13.9 23.5 12.75 23.4 12.05 23.5 10.85 23.5 10.7 23.3 10.2 23.55 9.7 23.5 8.85 23.25 8.4 23.5 7.5 23.5 7.25 23.35 6.45 23.5 5.85 23.5 5.2 23.5 4.55 23.5 3.95 23.45 3.25 23.5 2.85 23.5 Q2.85 23.55 2.85 23.6 2.85 23.65 2.85 23.7 2.8 23.7 2.8 23.75 2.85 23.75 2.85 23.75 2.85 23.75 2.85 23.75 L3.5 23.75 4.2 23.7 4.8 23.75 5.45 23.75 6.05 23.75 6.7 23.75 7.45 23.6 7.75 23.75 8.65 23.75 9.1 23.5 9.9 23.75 10.45 23.8 10.95 23.55 11.1 23.75 12.3 23.75 13.0 23.65 14.1 23.75 14.4 23.75 15.4 23.75 15.5 23.3 16.35 23.75 20.15 23.75 20.75 23.2 20.7 22.75" fill="#ffffff" fill-rule="evenodd" stroke="none"/>
      <path d="M2.6 2.2 L5.95 2.2 6.2 2.65 6.5 2.4 7.75 2.2 13.5 2.2 13.7 2.7 14.15 2.2 15.45 2.2 16.65 2.2 17.15 2.65 17.35 2.2 18.0 2.2 23.15 2.2 Q23.35 2.2 23.4 2.25 23.45 2.25 23.5 2.35 23.5 2.4 23.5 2.55 23.5 2.55 23.5 2.6 L23.5 4.05 22.85 3.8 23.5 4.5 23.5 5.25 22.95 5.25 23.5 6.45 23.5 7.1 23.3 8.15 23.5 7.8 23.5 9.55 22.85 9.85 23.5 10.3 23.5 22.5 23.5 23.15 Q23.5 23.4 23.5 23.4 23.45 23.5 23.4 23.5 23.35 23.5 23.15 23.5 L22.5 23.5 21.85 23.5 20.75 23.5 20.7 22.75 19.95 23.5 16.1 23.5 15.25 23.05 15.2 23.5 14.15 23.5 13.9 23.5 12.75 23.4 12.05 23.5 10.85 23.5 10.7 23.3 10.2 23.55 9.7 23.5 8.85 23.25 8.4 23.5 7.5 23.5 7.25 23.35 6.45 23.5 5.85 23.5 5.2 23.5 4.55 23.5 3.95 23.45 3.25 23.5 2.6 23.5 Q2.6 23.5 2.6 23.5 2.6 23.5 2.6 23.5 2.4 23.5 2.35 23.5 2.3 23.5 2.25 23.45 2.25 23.4 2.25 23.2 2.25 23.2 2.25 23.2 2.25 23.2 2.25 23.2 2.25 23.15 2.25 23.15 L2.25 17.7 3.05 17.5 2.25 16.75 2.25 16.1 2.25 15.45 2.25 14.45 2.65 14.15 2.25 13.9 2.25 10.65 2.65 10.45 2.25 9.9 2.25 9.0 2.25 8.35 2.25 7.7 2.75 7.2 2.25 6.85 2.25 2.6 Q2.25 2.55 2.25 2.55 2.25 2.4 2.25 2.35 2.3 2.25 2.35 2.25 2.4 2.2 2.55 2.2 2.55 2.2 2.6 2.2 2.6 2.2 2.6 2.2 2.6 2.2 2.6 2.2 L2.6 2.2" fill="#000000" fill-rule="evenodd" stroke="none"/>
    </g>
    <g id="shape1" transform="matrix(1.0, 0.0, 0.0, 1.0, 0.0, 0.0)">
      <path d="M12.25 12.2 L12.3 11.9 11.4 11.75 Q11.4 11.75 11.4 11.75 11.4 11.8 11.4 11.8 11.35 11.85 11.3 11.9 11.25 11.9 11.15 11.95 11.0 11.95 10.85 12.0 10.65 12.0 10.35 12.0 10.05 12.0 9.7 11.95 9.25 11.9 8.75 11.85 8.75 11.85 8.75 11.85 8.7 11.9 8.7 11.9 8.65 11.9 8.6 11.95 8.55 11.95 8.5 12.0 8.45 12.0 8.35 12.05 8.25 12.05 8.15 12.1 8.05 12.1 7.95 12.15 7.8 12.15 7.65 12.15 L7.65 11.1 7.5 11.15 7.4 11.3 7.25 11.2 7.25 11.2 7.25 11.1 7.3 11.15 7.2 11.05 7.25 11.0 7.5 11.0 7.5 10.9 7.7 10.8 7.7 8.65 Q7.7 8.45 7.75 8.3 7.85 8.2 7.95 8.1 8.05 8.0 8.25 7.9 8.35 7.85 8.55 7.8 8.7 7.75 8.85 7.7 9.0 7.7 9.15 7.7 9.25 7.7 9.35 7.7 9.35 7.7 9.4 7.7 L10.6 7.7 Q10.6 7.7 10.65 7.7 10.75 7.7 10.85 7.7 10.95 7.7 11.1 7.7 11.25 7.75 11.4 7.75 11.55 7.8 11.7 7.85 11.85 7.9 12.0 8.0 12.1 8.05 12.2 8.15 12.3 8.3 12.35 8.4 L13.0 8.4 13.0 6.15 8.05 6.15 5.65 6.15 4.75 6.15 4.75 7.25 Q4.9 7.25 5.05 7.35 5.15 7.4 5.25 7.5 5.35 7.6 5.4 7.7 5.5 7.8 5.55 7.95 5.55 8.05 5.6 8.15 5.6 8.25 5.65 8.35 5.65 8.4 5.65 8.45 5.65 8.5 5.65 8.5 L5.65 17.0 Q5.65 17.3 5.6 17.55 5.6 17.8 5.55 18.0 5.5 18.15 5.45 18.3 5.4 18.4 5.35 18.5 5.3 18.55 5.25 18.6 5.2 18.65 5.15 18.65 5.1 18.7 5.1 18.7 5.05 18.7 5.05 18.7 L5.05 19.85 8.25 19.85 8.25 18.7 Q8.15 18.65 8.05 18.6 7.95 18.5 7.9 18.35 7.85 18.25 7.8 18.1 7.75 17.95 7.75 17.8 7.7 17.65 7.7 17.5 7.65 17.4 7.65 17.25 7.65 17.2 7.65 17.1 7.65 17.05 7.65 17.05 L7.65 13.4 10.05 13.3 Q10.05 13.3 10.15 13.3 10.25 13.3 10.35 13.3 10.55 13.25 10.7 13.25 10.9 13.2 11.05 13.15 11.25 13.1 11.45 13.05 11.65 12.95 11.8 12.85 11.95 12.7 12.1 12.55 12.2 12.4 12.25 12.2 L12.25 12.2" fill="#f1edf8" fill-rule="evenodd" stroke="none"/>
      <path d="M13.6 8.85 Q13.5 9.2 13.5 9.5 13.55 9.75 13.65 10.0 13.7 10.2 13.9 10.4 14.0 10.55 14.2 10.7 14.35 10.8 14.55 10.9 14.7 10.95 14.85 11.0 14.95 11.05 15.0 11.05 15.1 11.1 15.05 11.05 15.0 11.0 14.95 10.95 14.95 10.9 14.95 10.85 14.9 10.8 14.9 10.75 14.9 10.65 14.95 10.6 14.95 10.55 14.95 10.45 14.95 10.4 15.0 10.35 15.0 10.35 15.0 10.3 15.0 10.3 15.0 10.25 15.1 9.85 15.25 9.5 15.4 9.2 15.55 8.95 15.75 8.75 15.9 8.6 16.1 8.45 16.25 8.3 16.45 8.2 16.6 8.15 16.7 8.1 16.85 8.05 16.95 8.05 17.05 8.05 17.05 8.05 17.1 8.0 17.3 8.0 17.45 8.0 17.6 8.05 17.75 8.05 17.85 8.1 18.0 8.1 18.1 8.15 18.2 8.2 18.3 8.25 18.35 8.3 18.45 8.35 18.55 8.4 18.6 8.45 18.7 8.5 18.75 8.6 18.85 8.65 18.95 8.8 19.05 8.95 19.15 9.05 19.2 9.25 19.25 9.4 19.3 9.55 19.35 9.75 19.35 9.9 19.4 10.1 19.35 10.25 19.35 10.45 19.35 10.6 19.35 10.8 19.3 10.95 19.25 11.1 19.25 11.25 19.2 11.4 19.15 11.55 19.1 11.7 19.0 11.8 18.95 11.95 18.85 12.05 18.8 12.2 18.75 12.3 18.65 12.4 18.6 12.5 18.55 12.6 18.45 12.7 18.35 12.8 18.3 12.9 18.25 12.95 18.2 13.05 17.95 13.45 17.05 14.5 17.05 14.5 15.35 16.2 13.65 17.9 13.3 18.3 L13.25 19.8 20.65 19.8 21.2 16.75 19.85 16.75 Q19.8 16.85 19.75 17.0 19.7 17.1 19.65 17.2 19.6 17.3 19.55 17.35 19.5 17.45 19.45 17.5 19.4 17.6 19.35 17.65 19.3 17.7 19.25 17.75 19.2 17.8 19.15 17.85 19.15 17.9 19.1 17.95 19.05 18.0 19.0 18.0 18.9 18.05 18.8 18.05 18.75 18.1 18.65 18.1 18.55 18.15 18.45 18.15 18.35 18.15 18.25 18.2 18.15 18.2 18.05 18.2 17.95 18.2 17.85 18.2 17.75 18.2 17.6 18.2 L16.25 18.2 Q16.55 17.85 16.65 17.8 16.8 17.6 17.2 17.2 L19.1 14.95 Q19.2 14.85 19.25 14.8 19.35 14.65 19.5 14.5 19.65 14.3 19.8 14.1 19.95 13.9 20.1 13.65 20.3 13.4 20.45 13.15 20.65 12.85 20.75 12.6 20.9 12.3 21.0 12.0 21.15 11.7 21.2 11.45 21.25 11.25 21.25 11.05 21.25 10.8 21.25 10.55 21.25 10.25 21.25 10.0 21.25 9.7 21.2 9.45 21.15 9.15 21.05 8.9 21.0 8.6 20.85 8.35 20.75 8.05 20.6 7.85 20.45 7.6 20.25 7.4 20.1 7.25 19.95 7.15 19.8 7.05 19.6 6.95 19.45 6.8 19.25 6.75 19.05 6.65 18.85 6.55 18.7 6.45 18.5 6.4 18.3 6.35 18.1 6.3 17.9 6.25 17.7 6.25 17.5 6.2 17.3 6.2 16.9 6.2 16.55 6.25 16.2 6.3 15.9 6.4 15.6 6.5 15.3 6.65 15.05 6.75 14.85 6.95 14.6 7.1 14.45 7.3 14.25 7.5 14.1 7.75 13.95 8.0 13.85 8.25 13.7 8.55 13.6 8.85 L13.6 8.85" fill="#f1edf8" fill-rule="evenodd" stroke="none"/>
    </g>
  </defs>
</svg>
