<?xml version="1.0" encoding="UTF-8" standalone="no"?>
<svg xmlns:ffdec="https://www.free-decompiler.com/flash" xmlns:xlink="http://www.w3.org/1999/xlink" ffdec:objectType="frame" height="26.55px" width="70.8px" xmlns="http://www.w3.org/2000/svg">
  <g transform="matrix(1.0, 0.0, 0.0, 1.0, 0.2, 0.4)">
    <use ffdec:characterId="3" height="26.0" transform="matrix(1.0, 0.0, 0.0, 1.0, 0.0, 0.0)" width="26.0" xlink:href="#shape0"/>
    <use ffdec:characterId="80" height="26.0" transform="matrix(1.0, 0.0, 0.0, 1.0, 0.0, 0.0)" width="26.0" xlink:href="#shape1"/>
    <use ffdec:characterId="80" height="26.0" transform="matrix(1.0, 0.0, 0.0, 1.0, 0.0, 0.0)" width="26.0" xlink:href="#shape1"/>
  </g>
  <defs>
    <g id="shape0" transform="matrix(1.0, 0.0, 0.0, 1.0, 0.0, 0.0)">
      <path d="M23.5 2.45 Q23.5 2.5 23.5 2.5 23.5 2.55 23.5 2.55 23.5 2.55 23.5 2.55 23.5 2.6 23.5 2.6 L23.5 4.05 22.85 3.8 23.5 4.5 23.5 5.25 22.95 5.25 23.5 6.45 23.5 7.1 23.3 8.15 23.5 7.8 23.5 9.55 22.85 9.85 23.15 10.05 23.75 9.8 23.75 8.05 23.5 8.4 23.75 7.35 23.75 6.7 23.2 5.5 23.75 5.5 23.75 4.75 23.1 4.05 23.75 4.3 23.75 2.85 Q23.75 2.8 23.75 2.8 23.75 2.7 23.75 2.65 23.75 2.55 23.7 2.55 23.7 2.5 23.65 2.5 23.6 2.5 23.5 2.45 L23.5 2.45 M23.5 10.4 L23.5 22.5 23.5 23.15 Q23.5 23.4 23.5 23.4 23.45 23.5 23.4 23.5 23.35 23.5 23.15 23.5 L22.5 23.5 21.85 23.5 20.95 23.5 21.0 23.75 22.1 23.75 22.75 23.75 23.4 23.75 Q23.65 23.75 23.7 23.75 23.75 23.7 23.75 23.4 L23.75 22.75 23.75 10.55 23.5 10.4 M20.7 22.75 L19.95 23.5 16.1 23.5 15.25 23.05 15.2 23.5 14.15 23.5 13.9 23.5 12.75 23.4 12.05 23.5 10.85 23.5 10.7 23.3 10.2 23.55 9.7 23.5 8.85 23.25 8.4 23.5 7.5 23.5 7.25 23.35 6.45 23.5 5.85 23.5 5.2 23.5 4.55 23.5 3.95 23.45 3.25 23.5 2.85 23.5 Q2.85 23.55 2.85 23.6 2.85 23.65 2.85 23.7 2.8 23.7 2.8 23.75 2.85 23.75 2.85 23.75 2.85 23.75 2.85 23.75 L3.5 23.75 4.2 23.7 4.8 23.75 5.45 23.75 6.05 23.75 6.7 23.75 7.45 23.6 7.75 23.75 8.65 23.75 9.1 23.5 9.9 23.75 10.45 23.8 10.95 23.55 11.1 23.75 12.3 23.75 13.0 23.65 14.1 23.75 14.4 23.75 15.4 23.75 15.5 23.3 16.35 23.75 20.15 23.75 20.75 23.2 20.7 22.75" fill="#ffffff" fill-rule="evenodd" stroke="none"/>
      <path d="M2.6 2.2 L5.95 2.2 6.2 2.65 6.5 2.4 7.75 2.2 13.5 2.2 13.7 2.7 14.15 2.2 15.45 2.2 16.65 2.2 17.15 2.65 17.35 2.2 18.0 2.2 23.15 2.2 Q23.35 2.2 23.4 2.25 23.45 2.25 23.5 2.35 23.5 2.4 23.5 2.55 23.5 2.55 23.5 2.6 L23.5 4.05 22.85 3.8 23.5 4.5 23.5 5.25 22.95 5.25 23.5 6.45 23.5 7.1 23.3 8.15 23.5 7.8 23.5 9.55 22.85 9.85 23.5 10.3 23.5 22.5 23.5 23.15 Q23.5 23.4 23.5 23.4 23.45 23.5 23.4 23.5 23.35 23.5 23.15 23.5 L22.5 23.5 21.85 23.5 20.75 23.5 20.7 22.75 19.95 23.5 16.1 23.5 15.25 23.05 15.2 23.5 14.15 23.5 13.9 23.5 12.75 23.4 12.05 23.5 10.85 23.5 10.7 23.3 10.2 23.55 9.7 23.5 8.85 23.25 8.4 23.5 7.5 23.5 7.25 23.35 6.45 23.5 5.85 23.5 5.2 23.5 4.55 23.5 3.95 23.45 3.25 23.5 2.6 23.5 Q2.6 23.5 2.6 23.5 2.6 23.5 2.6 23.5 2.4 23.5 2.35 23.5 2.3 23.5 2.25 23.45 2.25 23.4 2.25 23.2 2.25 23.2 2.25 23.2 2.25 23.2 2.25 23.2 2.25 23.15 2.25 23.15 L2.25 17.7 3.05 17.5 2.25 16.75 2.25 16.1 2.25 15.45 2.25 14.45 2.65 14.15 2.25 13.9 2.25 10.65 2.65 10.45 2.25 9.9 2.25 9.0 2.25 8.35 2.25 7.7 2.75 7.2 2.25 6.85 2.25 2.6 Q2.25 2.55 2.25 2.55 2.25 2.4 2.25 2.35 2.3 2.25 2.35 2.25 2.4 2.2 2.55 2.2 2.55 2.2 2.6 2.2 2.6 2.2 2.6 2.2 2.6 2.2 2.6 2.2 L2.6 2.2" fill="#000000" fill-rule="evenodd" stroke="none"/>
    </g>
    <g id="shape1" transform="matrix(1.0, 0.0, 0.0, 1.0, 0.0, 0.0)">
      <path d="M12.05 12.15 L12.1 11.85 11.2 11.7 Q11.2 11.7 11.2 11.7 11.2 11.75 11.15 11.75 11.15 11.8 11.1 11.85 11.05 11.85 10.95 11.9 10.8 11.95 10.65 11.95 10.45 11.95 10.15 11.95 9.85 11.95 9.5 11.9 9.1 11.9 8.6 11.8 8.6 11.8 8.6 11.8 8.55 11.85 8.55 11.85 8.5 11.85 8.45 11.9 8.4 11.9 8.35 11.95 8.25 11.95 8.15 12.0 8.1 12.0 8.0 12.05 7.85 12.05 7.75 12.1 7.6 12.1 7.5 12.1 L7.5 11.05 7.35 11.1 7.2 11.25 7.1 11.15 7.1 11.15 7.05 11.05 7.15 11.1 7.05 11.0 7.1 10.95 7.3 10.95 7.35 10.85 7.55 10.75 7.55 8.6 Q7.55 8.45 7.6 8.3 7.65 8.15 7.8 8.05 7.9 7.95 8.05 7.9 8.2 7.8 8.35 7.75 8.5 7.75 8.7 7.7 8.8 7.7 8.95 7.7 9.05 7.65 9.15 7.65 9.2 7.65 9.2 7.65 L10.4 7.65 Q10.4 7.65 10.45 7.65 10.55 7.65 10.65 7.65 10.75 7.7 10.9 7.7 11.05 7.7 11.2 7.75 11.35 7.8 11.5 7.85 11.65 7.9 11.75 7.95 11.9 8.05 12.0 8.15 12.1 8.25 12.15 8.4 L12.75 8.4 12.75 6.15 7.9 6.15 5.5 6.15 4.6 6.15 4.6 7.25 Q4.75 7.25 4.9 7.35 5.0 7.4 5.1 7.5 5.2 7.6 5.25 7.7 5.35 7.8 5.35 7.9 5.4 8.0 5.45 8.15 5.45 8.25 5.5 8.3 5.5 8.4 5.5 8.45 5.5 8.45 5.5 8.5 L5.5 16.95 Q5.5 17.25 5.45 17.5 5.45 17.7 5.4 17.9 5.35 18.05 5.3 18.2 5.25 18.3 5.2 18.4 5.15 18.45 5.1 18.5 5.05 18.55 5.0 18.55 4.95 18.6 4.95 18.6 4.9 18.6 4.9 18.6 L4.9 19.7 8.1 19.7 8.1 18.6 Q8.0 18.55 7.9 18.5 7.8 18.4 7.75 18.25 7.7 18.15 7.65 18.0 7.6 17.85 7.55 17.7 7.55 17.6 7.5 17.45 7.5 17.3 7.5 17.2 7.5 17.1 7.5 17.0 7.5 17.0 7.5 16.95 L7.5 13.35 9.9 13.25 Q9.9 13.25 10.0 13.25 10.05 13.25 10.2 13.25 10.35 13.2 10.5 13.2 10.7 13.15 10.85 13.1 11.05 13.05 11.25 13.0 11.45 12.9 11.6 12.8 11.75 12.65 11.85 12.5 12.0 12.35 12.05 12.15 L12.05 12.15" fill="#f1edf8" fill-rule="evenodd" stroke="none"/>
      <path d="M14.55 12.2 Q14.55 12.2 14.55 12.25 14.55 12.35 14.55 12.45 14.6 12.55 14.65 12.65 14.65 12.8 14.75 12.9 14.8 13.05 14.95 13.1 15.05 13.2 15.2 13.25 15.4 13.3 15.6 13.3 15.85 13.3 16.15 13.2 16.4 13.1 16.65 13.1 16.9 13.05 17.2 13.1 17.5 13.1 17.75 13.2 18.05 13.25 18.3 13.4 18.6 13.5 18.8 13.65 19.05 13.8 19.2 14.0 19.35 14.15 19.45 14.4 19.55 14.6 19.55 14.8 19.55 15.05 19.5 15.25 19.45 15.5 19.3 15.75 19.2 15.95 19.05 16.2 18.9 16.4 18.7 16.6 18.5 16.8 18.3 16.95 18.05 17.15 17.85 17.25 17.6 17.4 17.35 17.5 17.15 17.55 16.9 17.6 16.45 17.7 16.05 17.7 15.7 17.7 15.35 17.7 15.0 17.65 14.7 17.55 14.45 17.5 14.2 17.4 14.0 17.3 13.8 17.2 13.65 17.15 13.55 17.05 13.45 16.95 13.35 16.9 13.35 16.9 13.3 16.85 13.3 17.0 13.25 17.15 13.2 17.25 13.1 17.4 13.0 17.55 12.9 17.7 12.8 17.8 12.65 17.95 12.05 18.6 12.4 18.2 12.3 18.3 12.25 18.4 12.15 18.5 12.15 18.55 12.1 18.65 12.15 18.65 12.2 18.7 12.25 18.75 12.35 18.85 12.45 18.9 12.6 18.95 12.75 19.05 12.9 19.15 13.1 19.2 13.3 19.3 13.55 19.35 13.8 19.45 14.1 19.5 14.4 19.55 14.8 19.6 15.15 19.65 15.6 19.7 16.05 19.75 16.5 19.7 16.95 19.65 17.4 19.55 17.9 19.45 18.3 19.25 18.75 19.05 19.2 18.8 19.6 18.55 19.95 18.2 20.3 17.8 20.6 17.4 20.9 16.95 21.1 16.4 21.3 15.85 21.35 15.2 21.45 14.6 21.35 14.05 21.3 13.6 21.15 13.15 20.95 12.8 20.7 12.5 20.5 12.25 20.2 12.05 19.95 11.85 19.65 11.75 19.4 11.6 19.15 11.55 18.95 11.5 18.8 11.45 18.7 11.45 18.65 11.45 18.65 11.45 18.75 11.4 18.85 11.3 18.95 11.2 19.1 11.1 19.25 10.95 19.4 10.8 19.55 10.6 19.75 10.4 19.9 10.15 20.05 9.9 20.2 9.65 20.3 9.4 20.35 9.1 20.45 8.8 20.4 8.5 20.4 8.2 20.3 7.95 20.2 7.7 20.05 7.45 19.9 7.25 19.7 7.05 19.5 6.9 19.25 6.75 19.05 6.6 18.8 6.5 18.55 6.4 18.3 6.35 18.05 6.3 17.8 6.25 17.6 6.2 17.35 6.2 17.15 6.2 16.95 6.2 16.7 6.25 16.5 6.3 16.25 6.3 16.05 6.4 15.8 6.45 15.55 6.55 15.35 6.6 15.1 6.75 14.9 6.85 14.65 7.0 14.45 7.15 14.25 7.3 14.0 7.5 13.8 7.7 13.65 7.85 13.5 8.0 13.4 8.1 13.3 8.25 13.2 8.3 13.1 8.4 13.0 8.45 12.95 8.5 12.9 8.55 12.85 8.6 12.8 8.6 12.75 8.6 12.7 8.65 12.7 8.65 12.7 8.65 12.7 8.65 12.7 8.8 12.7 8.95 12.75 9.15 12.8 9.35 12.85 9.55 12.9 9.75 12.95 9.95 13.0 10.15 13.1 10.35 13.15 10.5 13.2 10.65 13.25 10.75 13.3 10.85 13.35 10.85 13.35 10.9 13.4 10.85 13.4 10.8 13.45 10.65 13.55 10.55 13.65 10.35 13.8 10.2 13.95 9.95 14.1 9.75 14.3 9.55 14.5 9.35 14.7 9.1 14.95 8.9 15.15 8.7 15.4 8.5 15.6 8.35 15.85 8.2 16.0 8.1 16.2 8.0 16.4 7.95 16.6 7.9 16.85 7.9 17.05 7.9 17.2 7.95 17.4 7.95 17.55 8.05 17.75 8.15 17.9 8.25 18.05 8.35 18.15 8.55 18.25 8.7 18.3 8.9 18.35 9.1 18.4 9.3 18.4 9.5 18.25 9.75 18.15 10.0 17.9 10.25 17.65 10.45 17.35 10.7 17.05 10.9 16.7 11.1 16.4 11.3 16.0 11.5 15.7 11.65 15.4 11.8 15.15 11.95 14.85 12.05 14.55 12.2 14.55 12.2 L14.55 12.2" fill="#f1edf8" fill-rule="evenodd" stroke="none"/>
    </g>
  </defs>
</svg>
