<?xml version="1.0" encoding="UTF-8" standalone="no"?>
<svg xmlns:ffdec="https://www.free-decompiler.com/flash" xmlns:xlink="http://www.w3.org/1999/xlink" ffdec:objectType="frame" height="26.55px" width="70.8px" xmlns="http://www.w3.org/2000/svg">
  <g transform="matrix(1.0, 0.0, 0.0, 1.0, 0.2, 0.4)">
    <use ffdec:characterId="3" height="26.0" transform="matrix(1.0, 0.0, 0.0, 1.0, 0.0, 0.0)" width="26.0" xlink:href="#shape0"/>
    <use ffdec:characterId="81" height="26.0" transform="matrix(1.0, 0.0, 0.0, 1.0, 0.0, 0.0)" width="26.0" xlink:href="#shape1"/>
    <use ffdec:characterId="81" height="26.0" transform="matrix(1.0, 0.0, 0.0, 1.0, 0.0, 0.0)" width="26.0" xlink:href="#shape1"/>
  </g>
  <defs>
    <g id="shape0" transform="matrix(1.0, 0.0, 0.0, 1.0, 0.0, 0.0)">
      <path d="M23.5 2.45 Q23.5 2.5 23.5 2.5 23.5 2.55 23.5 2.55 23.5 2.55 23.5 2.55 23.5 2.6 23.5 2.6 L23.5 4.05 22.85 3.8 23.5 4.5 23.5 5.25 22.95 5.25 23.5 6.45 23.5 7.1 23.3 8.15 23.5 7.8 23.5 9.55 22.85 9.85 23.15 10.05 23.75 9.8 23.75 8.05 23.5 8.4 23.75 7.35 23.75 6.7 23.2 5.5 23.75 5.5 23.75 4.75 23.1 4.05 23.75 4.3 23.75 2.85 Q23.75 2.8 23.75 2.8 23.75 2.7 23.75 2.65 23.75 2.55 23.7 2.55 23.7 2.5 23.65 2.5 23.6 2.5 23.5 2.45 L23.5 2.45 M23.5 10.4 L23.5 22.5 23.5 23.15 Q23.5 23.4 23.5 23.4 23.45 23.5 23.4 23.5 23.35 23.5 23.15 23.5 L22.5 23.5 21.85 23.5 20.95 23.5 21.0 23.75 22.1 23.75 22.75 23.75 23.4 23.75 Q23.65 23.75 23.7 23.75 23.75 23.7 23.75 23.4 L23.75 22.75 23.75 10.55 23.5 10.4 M20.7 22.75 L19.95 23.5 16.1 23.5 15.25 23.05 15.2 23.5 14.15 23.5 13.9 23.5 12.75 23.4 12.05 23.5 10.85 23.5 10.7 23.3 10.2 23.55 9.7 23.5 8.85 23.25 8.4 23.5 7.5 23.5 7.25 23.35 6.45 23.5 5.85 23.5 5.2 23.5 4.55 23.5 3.95 23.45 3.25 23.5 2.85 23.5 Q2.85 23.55 2.85 23.6 2.85 23.65 2.85 23.7 2.8 23.7 2.8 23.75 2.85 23.75 2.85 23.75 2.85 23.75 2.85 23.75 L3.5 23.75 4.2 23.7 4.8 23.75 5.45 23.75 6.05 23.75 6.7 23.75 7.45 23.6 7.75 23.75 8.65 23.75 9.1 23.5 9.9 23.75 10.45 23.8 10.95 23.55 11.1 23.75 12.3 23.75 13.0 23.65 14.1 23.75 14.4 23.75 15.4 23.75 15.5 23.3 16.35 23.75 20.15 23.75 20.75 23.2 20.7 22.75" fill="#ffffff" fill-rule="evenodd" stroke="none"/>
      <path d="M2.6 2.2 L5.95 2.2 6.2 2.65 6.5 2.4 7.75 2.2 13.5 2.2 13.7 2.7 14.15 2.2 15.45 2.2 16.65 2.2 17.15 2.65 17.35 2.2 18.0 2.2 23.15 2.2 Q23.35 2.2 23.4 2.25 23.45 2.25 23.5 2.35 23.5 2.4 23.5 2.55 23.5 2.55 23.5 2.6 L23.5 4.05 22.85 3.8 23.5 4.5 23.5 5.25 22.95 5.25 23.5 6.45 23.5 7.1 23.3 8.15 23.5 7.8 23.5 9.55 22.85 9.85 23.5 10.3 23.5 22.5 23.5 23.15 Q23.5 23.4 23.5 23.4 23.45 23.5 23.4 23.5 23.35 23.5 23.15 23.5 L22.5 23.5 21.85 23.5 20.75 23.5 20.7 22.75 19.95 23.5 16.1 23.5 15.25 23.05 15.2 23.5 14.15 23.5 13.9 23.5 12.75 23.4 12.05 23.5 10.85 23.5 10.7 23.3 10.2 23.55 9.7 23.5 8.85 23.25 8.4 23.5 7.5 23.5 7.25 23.35 6.45 23.5 5.85 23.5 5.2 23.5 4.55 23.5 3.95 23.45 3.25 23.5 2.6 23.5 Q2.6 23.5 2.6 23.5 2.6 23.5 2.6 23.5 2.4 23.5 2.35 23.5 2.3 23.5 2.25 23.45 2.25 23.4 2.25 23.2 2.25 23.2 2.25 23.2 2.25 23.2 2.25 23.2 2.25 23.15 2.25 23.15 L2.25 17.7 3.05 17.5 2.25 16.75 2.25 16.1 2.25 15.45 2.25 14.45 2.65 14.15 2.25 13.9 2.25 10.65 2.65 10.45 2.25 9.9 2.25 9.0 2.25 8.35 2.25 7.7 2.75 7.2 2.25 6.85 2.25 2.6 Q2.25 2.55 2.25 2.55 2.25 2.4 2.25 2.35 2.3 2.25 2.35 2.25 2.4 2.2 2.55 2.2 2.55 2.2 2.6 2.2 2.6 2.2 2.6 2.2 2.6 2.2 2.6 2.2 L2.6 2.2" fill="#000000" fill-rule="evenodd" stroke="none"/>
    </g>
    <g id="shape1" transform="matrix(1.0, 0.0, 0.0, 1.0, 0.0, 0.0)">
      <path d="M12.75 12.3 L12.85 11.95 11.9 11.8 Q11.9 11.85 11.9 11.85 11.9 11.85 11.9 11.9 11.85 11.9 11.8 11.95 11.75 12.0 11.65 12.0 11.55 12.05 11.35 12.05 11.15 12.1 10.9 12.1 10.6 12.1 10.2 12.05 9.8 12.0 9.3 11.95 9.3 11.95 9.3 11.95 9.25 11.95 9.25 12.0 9.2 12.0 9.15 12.05 9.1 12.05 9.05 12.1 9.0 12.1 8.9 12.15 8.8 12.15 8.7 12.15 8.6 12.2 8.5 12.2 8.35 12.25 8.2 12.25 L8.2 11.2 8.05 11.25 7.95 11.4 7.8 11.3 7.8 11.3 7.8 11.2 7.85 11.25 7.75 11.15 7.8 11.1 8.05 11.1 8.05 11.0 8.25 10.9 8.25 8.75 Q8.25 8.6 8.3 8.45 8.4 8.3 8.5 8.2 8.6 8.1 8.8 8.05 8.9 7.95 9.1 7.9 9.25 7.9 9.4 7.85 9.55 7.85 9.7 7.8 9.8 7.8 9.85 7.8 9.9 7.8 9.95 7.8 L11.15 7.8 Q11.15 7.8 11.2 7.8 11.3 7.8 11.4 7.8 11.5 7.8 11.6 7.85 11.8 7.85 11.9 7.9 12.05 7.95 12.2 8.0 12.35 8.05 12.5 8.1 12.65 8.2 12.75 8.3 12.85 8.4 12.9 8.55 L13.5 8.55 13.5 6.3 8.65 6.3 6.25 6.3 5.35 6.3 5.35 7.4 Q5.5 7.4 5.65 7.5 5.75 7.55 5.85 7.65 5.95 7.75 6.0 7.85 6.05 7.95 6.1 8.05 6.15 8.15 6.2 8.3 6.2 8.35 6.2 8.45 6.25 8.55 6.25 8.6 6.25 8.6 6.25 8.65 L6.25 17.05 Q6.25 17.35 6.2 17.6 6.2 17.8 6.15 18.0 6.1 18.15 6.05 18.3 6.0 18.4 5.9 18.5 5.9 18.55 5.8 18.6 5.8 18.65 5.75 18.7 5.7 18.7 5.65 18.7 5.65 18.7 5.65 18.7 L5.65 19.85 8.8 19.85 8.8 18.7 Q8.7 18.65 8.6 18.6 8.55 18.5 8.45 18.4 8.4 18.25 8.35 18.1 8.3 18.0 8.3 17.8 8.25 17.7 8.25 17.55 8.25 17.4 8.2 17.3 8.2 17.2 8.2 17.15 8.2 17.1 8.2 17.05 L8.2 13.45 10.6 13.4 Q10.6 13.4 10.7 13.4 10.8 13.4 10.9 13.35 11.05 13.35 11.2 13.35 11.4 13.3 11.6 13.25 11.8 13.2 11.95 13.1 12.15 13.0 12.3 12.9 12.5 12.8 12.6 12.65 12.7 12.5 12.75 12.3 L12.75 12.3" fill="#f1edf8" fill-rule="evenodd" stroke="none"/>
      <path d="M20.2 16.1 Q20.15 15.95 20.15 15.7 20.15 15.5 20.15 15.25 20.2 15.0 20.25 14.75 20.3 14.55 20.35 14.3 20.4 14.1 20.45 13.9 20.5 13.7 20.55 13.55 20.6 13.4 20.65 13.3 20.65 13.25 20.65 13.25 L19.65 13.25 Q19.5 13.55 19.35 13.75 19.25 13.95 19.15 14.1 19.0 14.25 18.95 14.3 18.85 14.4 18.8 14.45 18.7 14.45 18.65 14.45 18.6 14.4 18.6 14.35 18.55 14.3 18.55 14.15 18.5 14.05 18.5 13.9 18.5 13.45 18.5 10.75 18.45 7.35 18.45 6.15 18.45 6.15 18.45 6.15 18.45 6.15 18.35 6.15 18.3 6.15 18.25 6.15 18.2 6.15 18.15 6.2 18.05 6.2 17.95 6.2 17.85 6.25 17.75 6.25 17.65 6.3 17.55 6.35 17.45 6.4 17.35 6.5 17.25 6.55 17.15 6.65 17.1 6.75 16.95 6.85 16.85 7.0 16.75 7.15 16.65 7.3 16.45 7.55 16.35 7.7 16.15 7.95 16.15 7.95 15.8 8.5 15.55 8.85 15.4 9.1 15.15 9.45 14.9 9.8 12.95 12.65 11.0 15.45 10.95 15.5 10.95 15.55 10.95 15.6 10.9 15.65 10.9 15.7 10.9 15.75 10.9 15.85 10.95 15.85 10.95 15.9 10.95 15.95 11.0 16.0 11.05 16.05 11.1 16.05 11.2 16.05 11.3 16.1 11.4 16.1 L16.8 16.1 Q16.8 16.55 16.75 16.95 16.75 17.3 16.7 17.6 16.65 17.85 16.6 18.05 16.55 18.25 16.5 18.4 16.45 18.55 16.35 18.65 16.3 18.75 16.2 18.8 16.15 18.85 16.05 18.85 15.95 18.9 15.9 18.9 15.8 18.9 15.75 18.95 15.7 18.95 15.65 19.05 15.6 19.1 15.6 19.2 15.55 19.25 15.55 19.35 15.5 19.4 15.5 19.5 15.5 19.6 15.5 19.65 15.5 19.7 15.5 19.75 15.5 19.8 15.5 19.8 L19.65 19.8 Q19.65 19.75 19.65 19.6 19.65 19.45 19.65 19.4 19.65 19.3 19.65 19.2 19.65 19.15 19.6 19.1 19.6 19.05 19.6 19.0 19.55 18.95 19.5 18.9 19.45 18.9 19.4 18.85 19.35 18.85 19.3 18.85 19.15 18.85 19.0 18.75 18.9 18.6 18.8 18.4 18.7 18.25 18.65 18.0 18.6 17.75 18.55 17.45 18.55 17.25 18.5 16.95 18.5 16.75 18.5 16.5 18.5 16.35 18.5 16.2 18.5 16.15 18.5 16.1 18.65 16.1 18.85 16.15 19.0 16.15 19.15 16.25 19.3 16.25 19.5 16.35 19.7 16.4 19.8 16.45 19.95 16.5 20.0 16.5 20.1 16.5 20.2 16.5 20.25 16.45 20.25 16.35 20.25 16.25 20.2 16.1 L20.2 16.1 M16.8 14.5 Q16.8 14.5 15.35 14.45 13.9 14.45 13.9 14.5 L16.8 10.05 16.8 14.5" fill="#f1edf8" fill-rule="evenodd" stroke="none"/>
    </g>
  </defs>
</svg>
