<?xml version="1.0" encoding="UTF-8" standalone="no"?>
<svg xmlns:ffdec="https://www.free-decompiler.com/flash" xmlns:xlink="http://www.w3.org/1999/xlink" ffdec:objectType="frame" height="26.55px" width="70.8px" xmlns="http://www.w3.org/2000/svg">
  <g transform="matrix(1.0, 0.0, 0.0, 1.0, 0.2, 0.4)">
    <use ffdec:characterId="3" height="26.0" transform="matrix(1.0, 0.0, 0.0, 1.0, 0.0, 0.0)" width="26.0" xlink:href="#shape0"/>
    <use ffdec:characterId="82" height="26.0" transform="matrix(1.0, 0.0, 0.0, 1.0, 0.0, 0.0)" width="26.0" xlink:href="#shape1"/>
    <use ffdec:characterId="82" height="26.0" transform="matrix(1.0, 0.0, 0.0, 1.0, 0.0, 0.0)" width="26.0" xlink:href="#shape1"/>
  </g>
  <defs>
    <g id="shape0" transform="matrix(1.0, 0.0, 0.0, 1.0, 0.0, 0.0)">
      <path d="M23.5 2.45 Q23.5 2.5 23.5 2.5 23.5 2.55 23.5 2.55 23.5 2.55 23.5 2.55 23.5 2.6 23.5 2.6 L23.5 4.05 22.85 3.8 23.5 4.5 23.5 5.25 22.95 5.25 23.5 6.45 23.5 7.1 23.3 8.15 23.5 7.8 23.5 9.55 22.85 9.85 23.15 10.05 23.75 9.8 23.75 8.05 23.5 8.4 23.75 7.35 23.75 6.7 23.2 5.5 23.75 5.5 23.75 4.75 23.1 4.05 23.75 4.3 23.75 2.85 Q23.75 2.8 23.75 2.8 23.75 2.7 23.75 2.65 23.75 2.55 23.7 2.55 23.7 2.5 23.65 2.5 23.6 2.5 23.5 2.45 L23.5 2.45 M23.5 10.4 L23.5 22.5 23.5 23.15 Q23.5 23.4 23.5 23.4 23.45 23.5 23.4 23.5 23.35 23.5 23.15 23.5 L22.5 23.5 21.85 23.5 20.95 23.5 21.0 23.75 22.1 23.75 22.75 23.75 23.4 23.75 Q23.65 23.75 23.7 23.75 23.75 23.7 23.75 23.4 L23.75 22.75 23.75 10.55 23.5 10.4 M20.7 22.75 L19.95 23.5 16.1 23.5 15.25 23.05 15.2 23.5 14.15 23.5 13.9 23.5 12.75 23.4 12.05 23.5 10.85 23.5 10.7 23.3 10.2 23.55 9.7 23.5 8.85 23.25 8.4 23.5 7.5 23.5 7.25 23.35 6.45 23.5 5.85 23.5 5.2 23.5 4.55 23.5 3.95 23.45 3.25 23.5 2.85 23.5 Q2.85 23.55 2.85 23.6 2.85 23.65 2.85 23.7 2.8 23.7 2.8 23.75 2.85 23.75 2.85 23.75 2.85 23.75 2.85 23.75 L3.5 23.75 4.2 23.7 4.8 23.75 5.45 23.75 6.05 23.75 6.7 23.75 7.45 23.6 7.75 23.75 8.65 23.75 9.1 23.5 9.9 23.75 10.45 23.8 10.95 23.55 11.1 23.75 12.3 23.75 13.0 23.65 14.1 23.75 14.4 23.75 15.4 23.75 15.5 23.3 16.35 23.75 20.15 23.75 20.75 23.2 20.7 22.75" fill="#ffffff" fill-rule="evenodd" stroke="none"/>
      <path d="M2.6 2.2 L5.95 2.2 6.2 2.65 6.5 2.4 7.75 2.2 13.5 2.2 13.7 2.7 14.15 2.2 15.45 2.2 16.65 2.2 17.15 2.65 17.35 2.2 18.0 2.2 23.15 2.2 Q23.35 2.2 23.4 2.25 23.45 2.25 23.5 2.35 23.5 2.4 23.5 2.55 23.5 2.55 23.5 2.6 L23.5 4.05 22.85 3.8 23.5 4.5 23.5 5.25 22.95 5.25 23.5 6.45 23.5 7.1 23.3 8.15 23.5 7.8 23.5 9.55 22.85 9.85 23.5 10.3 23.5 22.5 23.5 23.15 Q23.5 23.4 23.5 23.4 23.45 23.5 23.4 23.5 23.35 23.5 23.15 23.5 L22.5 23.5 21.85 23.5 20.75 23.5 20.7 22.75 19.95 23.5 16.1 23.5 15.25 23.05 15.2 23.5 14.15 23.5 13.9 23.5 12.75 23.4 12.05 23.5 10.85 23.5 10.7 23.3 10.2 23.55 9.7 23.5 8.85 23.25 8.4 23.5 7.5 23.5 7.25 23.35 6.45 23.5 5.85 23.5 5.2 23.5 4.55 23.5 3.95 23.45 3.25 23.5 2.6 23.5 Q2.6 23.5 2.6 23.5 2.6 23.5 2.6 23.5 2.4 23.5 2.35 23.5 2.3 23.5 2.25 23.45 2.25 23.4 2.25 23.2 2.25 23.2 2.25 23.2 2.25 23.2 2.25 23.2 2.25 23.15 2.25 23.15 L2.25 17.7 3.05 17.5 2.25 16.75 2.25 16.1 2.25 15.45 2.25 14.45 2.65 14.15 2.25 13.9 2.25 10.65 2.65 10.45 2.25 9.9 2.25 9.0 2.25 8.35 2.25 7.7 2.75 7.2 2.25 6.85 2.25 2.6 Q2.25 2.55 2.25 2.55 2.25 2.4 2.25 2.35 2.3 2.25 2.35 2.25 2.4 2.2 2.55 2.2 2.55 2.2 2.6 2.2 2.6 2.2 2.6 2.2 2.6 2.2 2.6 2.2 L2.6 2.2" fill="#000000" fill-rule="evenodd" stroke="none"/>
    </g>
    <g id="shape1" transform="matrix(1.0, 0.0, 0.0, 1.0, 0.0, 0.0)">
      <path d="M11.75 12.2 L11.85 11.9 10.9 11.75 Q10.9 11.75 10.9 11.75 10.9 11.8 10.9 11.8 10.85 11.85 10.8 11.9 10.75 11.9 10.65 11.95 10.55 11.95 10.35 12.0 10.15 12.0 9.9 12.0 9.6 12.0 9.2 11.95 8.8 11.9 8.3 11.85 8.3 11.85 8.3 11.85 8.25 11.9 8.25 11.9 8.2 11.9 8.15 11.95 8.1 11.95 8.05 12.0 7.95 12.0 7.9 12.05 7.8 12.05 7.7 12.1 7.55 12.1 7.45 12.15 7.3 12.15 7.2 12.15 L7.2 11.1 7.05 11.15 6.9 11.3 6.8 11.2 6.8 11.2 6.75 11.1 6.85 11.15 6.75 11.05 6.8 11.0 7.0 11.0 7.05 10.9 7.25 10.8 7.25 8.65 Q7.25 8.45 7.3 8.3 7.35 8.2 7.5 8.1 7.6 8.0 7.75 7.9 7.9 7.85 8.05 7.8 8.2 7.75 8.4 7.7 8.5 7.7 8.65 7.7 8.75 7.7 8.85 7.7 8.9 7.7 8.95 7.7 L10.15 7.7 Q10.15 7.7 10.2 7.7 10.3 7.7 10.4 7.7 10.5 7.7 10.65 7.7 10.8 7.75 10.9 7.75 11.1 7.8 11.2 7.85 11.4 7.9 11.5 8.0 11.65 8.05 11.75 8.15 11.85 8.3 11.9 8.4 L12.5 8.4 12.5 6.15 7.6 6.15 5.2 6.15 4.25 6.15 4.25 7.25 Q4.4 7.25 4.55 7.35 4.65 7.4 4.8 7.5 4.85 7.6 4.95 7.7 5.0 7.8 5.05 7.95 5.1 8.05 5.1 8.15 5.15 8.25 5.15 8.35 5.15 8.4 5.2 8.45 5.2 8.5 5.2 8.5 L5.2 17.0 Q5.2 17.3 5.15 17.55 5.1 17.8 5.05 18.0 5.05 18.15 4.95 18.3 4.9 18.4 4.85 18.5 4.8 18.55 4.75 18.6 4.7 18.65 4.65 18.65 4.65 18.7 4.6 18.7 4.6 18.7 4.6 18.7 L4.6 19.85 7.8 19.85 7.8 18.7 Q7.7 18.65 7.6 18.6 7.5 18.5 7.45 18.35 7.4 18.25 7.35 18.1 7.3 17.95 7.25 17.8 7.25 17.65 7.2 17.5 7.2 17.4 7.2 17.25 7.2 17.2 7.2 17.1 7.2 17.05 7.2 17.05 L7.2 13.4 9.6 13.3 Q9.6 13.3 9.7 13.3 9.8 13.3 9.9 13.3 10.05 13.25 10.2 13.25 10.4 13.2 10.6 13.15 10.8 13.1 10.95 13.05 11.15 12.95 11.3 12.85 11.5 12.7 11.6 12.55 11.7 12.4 11.75 12.2 L11.75 12.2" fill="#f1edf8" fill-rule="evenodd" stroke="none"/>
      <path d="M12.0 16.9 Q12.0 16.9 12.0 16.95 11.95 17.15 11.95 17.15 11.9 17.3 11.85 17.45 11.8 17.6 11.75 17.8 11.7 18.0 11.7 18.15 11.65 18.35 11.6 18.5 11.6 18.7 11.6 18.8 11.55 18.95 11.6 19.05 11.6 19.15 11.75 19.25 11.85 19.35 12.1 19.45 12.35 19.5 12.65 19.6 13.0 19.65 13.35 19.7 13.75 19.75 14.2 19.8 14.65 19.8 15.1 19.8 15.6 19.8 16.05 19.8 16.55 19.75 17.0 19.7 17.2 19.7 17.4 19.65 17.7 19.55 18.0 19.5 18.35 19.35 18.7 19.2 19.1 19.0 19.45 18.8 19.85 18.5 20.2 18.15 20.55 17.8 20.8 17.35 21.05 16.85 21.2 16.3 21.35 15.7 21.35 14.95 21.35 14.55 21.25 14.2 21.2 13.8 21.0 13.5 20.85 13.2 20.65 12.9 20.4 12.65 20.15 12.4 19.9 12.15 19.6 12.0 19.3 11.8 19.0 11.65 18.7 11.5 18.35 11.4 18.05 11.35 17.75 11.3 17.7 11.3 17.6 11.25 17.45 11.25 17.3 11.25 17.1 11.2 16.85 11.2 16.6 11.2 16.4 11.2 16.1 11.2 15.85 11.2 15.6 11.2 15.35 11.25 15.1 11.3 14.9 11.35 14.7 11.4 14.55 11.5 14.55 11.5 14.55 11.35 14.55 11.2 14.6 11.0 14.6 10.75 14.65 10.5 14.65 10.2 14.7 9.9 14.75 9.55 14.85 9.3 14.9 9.0 15.0 8.8 15.1 8.55 15.2 8.45 15.3 8.3 15.45 8.3 15.8 8.3 18.15 8.4 20.4 8.45 20.7 8.45 20.8 8.45 20.9 8.35 21.0 8.25 21.1 8.1 21.2 7.95 21.25 7.75 21.35 7.55 21.4 7.3 21.5 7.15 21.55 6.9 21.6 6.75 21.65 6.55 21.7 6.4 21.7 6.3 21.7 6.25 21.75 6.2 L20.25 6.2 Q20.2 6.2 20.15 6.2 20.15 6.2 20.1 6.25 19.7 6.4 20.0 6.25 19.95 6.3 19.9 6.3 19.8 6.3 19.75 6.35 19.6 6.35 19.45 6.35 19.3 6.4 19.1 6.4 18.9 6.4 18.6 6.4 17.05 6.4 14.15 6.4 13.9 6.4 13.7 6.6 13.5 6.75 13.35 7.1 13.2 7.4 13.05 7.85 12.9 8.25 12.8 8.8 12.7 9.3 12.65 9.85 12.6 10.4 12.55 11.0 12.5 11.5 12.45 12.05 12.45 12.55 12.4 13.05 12.4 13.05 12.45 13.1 12.45 13.1 12.5 13.15 12.55 13.2 12.6 13.25 12.65 13.3 12.7 13.35 12.8 13.45 12.9 13.5 13.0 13.55 13.1 13.6 13.2 13.65 13.3 13.65 13.45 13.7 13.6 13.7 13.6 13.7 13.85 13.6 14.1 13.55 14.45 13.45 14.9 13.35 15.3 13.25 15.85 13.2 16.3 13.15 16.85 13.15 17.3 13.2 17.85 13.3 18.2 13.5 18.6 13.7 18.8 14.05 19.05 14.45 19.05 15.05 19.05 15.65 18.85 16.1 18.65 16.55 18.3 16.85 17.95 17.15 17.45 17.35 17.0 17.55 16.45 17.6 15.9 17.7 15.3 17.65 14.7 17.65 14.15 17.55 13.55 17.45 13.0 17.3 12.45 17.1 12.0 16.9 L12.0 16.9" fill="#f1edf8" fill-rule="evenodd" stroke="none"/>
    </g>
  </defs>
</svg>
