<?xml version="1.0" encoding="UTF-8" standalone="no"?>
<svg xmlns:ffdec="https://www.free-decompiler.com/flash" xmlns:xlink="http://www.w3.org/1999/xlink" ffdec:objectType="frame" height="26.55px" width="70.8px" xmlns="http://www.w3.org/2000/svg">
  <g transform="matrix(1.0, 0.0, 0.0, 1.0, 0.2, 0.4)">
    <use ffdec:characterId="3" height="26.0" transform="matrix(1.0, 0.0, 0.0, 1.0, 0.0, 0.0)" width="26.0" xlink:href="#shape0"/>
    <use ffdec:characterId="85" height="26.0" transform="matrix(1.0, 0.0, 0.0, 1.0, 0.0, 0.0)" width="26.0" xlink:href="#shape1"/>
    <use ffdec:characterId="85" height="26.0" transform="matrix(1.0, 0.0, 0.0, 1.0, 0.0, 0.0)" width="26.0" xlink:href="#shape1"/>
  </g>
  <defs>
    <g id="shape0" transform="matrix(1.0, 0.0, 0.0, 1.0, 0.0, 0.0)">
      <path d="M23.5 2.45 Q23.5 2.5 23.5 2.5 23.5 2.55 23.5 2.55 23.5 2.55 23.5 2.55 23.5 2.6 23.5 2.6 L23.5 4.05 22.85 3.8 23.5 4.5 23.5 5.25 22.95 5.25 23.5 6.45 23.5 7.1 23.3 8.15 23.5 7.8 23.5 9.55 22.85 9.85 23.15 10.05 23.75 9.8 23.75 8.05 23.5 8.4 23.75 7.35 23.75 6.7 23.2 5.5 23.75 5.5 23.75 4.75 23.1 4.05 23.75 4.3 23.75 2.85 Q23.75 2.8 23.75 2.8 23.75 2.7 23.75 2.65 23.75 2.55 23.7 2.55 23.7 2.5 23.65 2.5 23.6 2.5 23.5 2.45 L23.5 2.45 M23.5 10.4 L23.5 22.5 23.5 23.15 Q23.5 23.4 23.5 23.4 23.45 23.5 23.4 23.5 23.35 23.5 23.15 23.5 L22.5 23.5 21.85 23.5 20.95 23.5 21.0 23.75 22.1 23.75 22.75 23.75 23.4 23.75 Q23.65 23.75 23.7 23.75 23.75 23.7 23.75 23.4 L23.75 22.75 23.75 10.55 23.5 10.4 M20.7 22.75 L19.95 23.5 16.1 23.5 15.25 23.05 15.2 23.5 14.15 23.5 13.9 23.5 12.75 23.4 12.05 23.5 10.85 23.5 10.7 23.3 10.2 23.55 9.7 23.5 8.85 23.25 8.4 23.5 7.5 23.5 7.25 23.35 6.45 23.5 5.85 23.5 5.2 23.5 4.55 23.5 3.95 23.45 3.25 23.5 2.85 23.5 Q2.85 23.55 2.85 23.6 2.85 23.65 2.85 23.7 2.8 23.7 2.8 23.75 2.85 23.75 2.85 23.75 2.85 23.75 2.85 23.75 L3.5 23.75 4.2 23.7 4.8 23.75 5.45 23.75 6.05 23.75 6.7 23.75 7.45 23.6 7.75 23.75 8.65 23.75 9.1 23.5 9.9 23.75 10.45 23.8 10.95 23.55 11.1 23.75 12.3 23.75 13.0 23.65 14.1 23.75 14.4 23.75 15.4 23.75 15.5 23.3 16.35 23.75 20.15 23.75 20.75 23.2 20.7 22.75" fill="#ffffff" fill-rule="evenodd" stroke="none"/>
      <path d="M2.6 2.2 L5.95 2.2 6.2 2.65 6.5 2.4 7.75 2.2 13.5 2.2 13.7 2.7 14.15 2.2 15.45 2.2 16.65 2.2 17.15 2.65 17.35 2.2 18.0 2.2 23.15 2.2 Q23.35 2.2 23.4 2.25 23.45 2.25 23.5 2.35 23.5 2.4 23.5 2.55 23.5 2.55 23.5 2.6 L23.5 4.05 22.85 3.8 23.5 4.5 23.5 5.25 22.95 5.25 23.5 6.45 23.5 7.1 23.3 8.15 23.5 7.8 23.5 9.55 22.85 9.85 23.5 10.3 23.5 22.5 23.5 23.15 Q23.5 23.4 23.5 23.4 23.45 23.5 23.4 23.5 23.35 23.5 23.15 23.5 L22.5 23.5 21.85 23.5 20.75 23.5 20.7 22.75 19.95 23.5 16.1 23.5 15.25 23.05 15.2 23.5 14.15 23.5 13.9 23.5 12.75 23.4 12.05 23.5 10.85 23.5 10.7 23.3 10.2 23.55 9.7 23.5 8.85 23.25 8.4 23.5 7.5 23.5 7.25 23.35 6.45 23.5 5.85 23.5 5.2 23.5 4.55 23.5 3.95 23.45 3.25 23.5 2.6 23.5 Q2.6 23.5 2.6 23.5 2.6 23.5 2.6 23.5 2.4 23.5 2.35 23.5 2.3 23.5 2.25 23.45 2.25 23.4 2.25 23.2 2.25 23.2 2.25 23.2 2.25 23.2 2.25 23.2 2.25 23.15 2.25 23.15 L2.25 17.7 3.05 17.5 2.25 16.75 2.25 16.1 2.25 15.45 2.25 14.45 2.65 14.15 2.25 13.9 2.25 10.65 2.65 10.45 2.25 9.9 2.25 9.0 2.25 8.35 2.25 7.7 2.75 7.2 2.25 6.85 2.25 2.6 Q2.25 2.55 2.25 2.55 2.25 2.4 2.25 2.35 2.3 2.25 2.35 2.25 2.4 2.2 2.55 2.2 2.55 2.2 2.6 2.2 2.6 2.2 2.6 2.2 2.6 2.2 2.6 2.2 L2.6 2.2" fill="#000000" fill-rule="evenodd" stroke="none"/>
    </g>
    <g id="shape1" transform="matrix(1.0, 0.0, 0.0, 1.0, 0.0, 0.0)">
      <path d="M12.1 12.15 L12.15 11.85 11.2 11.7 Q11.2 11.7 11.2 11.7 11.2 11.75 11.2 11.75 11.2 11.8 11.15 11.85 11.05 11.85 10.95 11.9 10.85 11.95 10.65 11.95 10.45 11.95 10.2 11.95 9.9 11.95 9.55 11.9 9.1 11.9 8.6 11.8 8.6 11.8 8.6 11.8 8.6 11.85 8.55 11.85 8.5 11.85 8.5 11.9 8.4 11.9 8.35 11.95 8.3 11.95 8.2 12.0 8.1 12.0 8.0 12.05 7.9 12.05 7.8 12.1 7.65 12.1 7.5 12.1 L7.5 11.05 7.35 11.1 7.25 11.25 7.15 11.15 7.15 11.15 7.1 11.05 7.2 11.1 7.1 11.0 7.15 10.95 7.35 10.95 7.35 10.85 7.55 10.75 7.55 8.6 Q7.55 8.45 7.6 8.3 7.7 8.15 7.8 8.05 7.95 7.95 8.1 7.9 8.25 7.8 8.4 7.75 8.55 7.75 8.7 7.7 8.85 7.7 9.0 7.7 9.1 7.65 9.2 7.65 9.2 7.65 9.25 7.65 L10.45 7.65 Q10.45 7.65 10.5 7.65 10.6 7.65 10.7 7.65 10.8 7.7 10.95 7.7 11.1 7.7 11.25 7.75 11.4 7.8 11.55 7.85 11.7 7.9 11.8 7.95 11.95 8.05 12.05 8.15 12.15 8.25 12.2 8.4 L12.8 8.4 12.8 6.15 7.95 6.15 5.55 6.15 4.65 6.15 4.65 7.25 Q4.8 7.25 4.95 7.35 5.05 7.4 5.15 7.5 5.25 7.6 5.3 7.7 5.35 7.8 5.4 7.9 5.45 8.0 5.5 8.15 5.5 8.25 5.5 8.3 5.55 8.4 5.55 8.45 5.55 8.45 5.55 8.5 L5.55 16.95 Q5.55 17.25 5.5 17.5 5.5 17.7 5.45 17.9 5.4 18.05 5.35 18.2 5.3 18.3 5.2 18.4 5.2 18.45 5.1 18.5 5.1 18.55 5.05 18.55 5.0 18.6 4.95 18.6 4.95 18.6 4.95 18.6 L4.95 19.7 8.15 19.7 8.15 18.6 Q8.05 18.55 7.95 18.5 7.85 18.4 7.8 18.25 7.7 18.15 7.65 18.0 7.65 17.85 7.6 17.7 7.55 17.6 7.55 17.45 7.55 17.3 7.55 17.2 7.5 17.1 7.5 17.0 7.5 17.0 7.5 16.95 L7.5 13.35 9.9 13.25 Q9.9 13.25 10.0 13.25 10.1 13.25 10.2 13.25 10.35 13.2 10.55 13.2 10.7 13.15 10.9 13.1 11.1 13.05 11.3 13.0 11.5 12.9 11.65 12.8 11.8 12.65 11.9 12.5 12.05 12.35 12.1 12.15 L12.1 12.15" fill="#f1edf8" fill-rule="evenodd" stroke="none"/>
      <path d="M14.7 12.6 Q14.6 12.65 14.55 12.65 14.5 12.7 14.4 12.75 14.35 12.8 14.25 12.8 14.2 12.85 14.15 12.9 14.1 12.9 14.05 12.95 13.95 13.0 13.9 13.05 13.85 13.05 13.8 13.1 13.75 13.15 13.7 13.2 13.5 13.35 13.35 13.5 13.15 13.65 13.0 13.8 12.9 13.95 12.75 14.15 12.65 14.3 12.55 14.5 12.45 14.7 12.35 14.9 12.3 15.1 12.25 15.3 12.2 15.5 12.15 15.75 12.15 15.95 12.15 16.15 12.15 16.35 12.2 16.55 12.2 16.75 12.25 16.95 12.35 17.1 12.4 17.3 12.5 17.5 12.6 17.65 12.75 17.8 12.9 17.95 13.0 18.15 13.15 18.25 13.3 18.4 13.5 18.55 13.65 18.7 13.85 18.8 14.0 18.9 14.2 19.0 14.35 19.1 14.5 19.2 14.7 19.3 14.9 19.35 15.05 19.4 15.25 19.5 15.45 19.55 15.65 19.55 15.8 19.6 16.05 19.65 16.25 19.65 16.45 19.7 16.65 19.7 16.85 19.7 17.1 19.7 17.3 19.7 17.55 19.65 17.75 19.65 17.95 19.6 18.15 19.55 18.4 19.5 18.55 19.45 18.75 19.4 18.95 19.35 19.15 19.25 19.3 19.15 19.5 19.05 19.65 18.95 19.8 18.85 19.95 18.75 20.15 18.6 20.3 18.45 20.45 18.35 20.6 18.15 20.7 18.0 20.8 17.85 20.95 17.7 21.0 17.5 21.1 17.35 21.15 17.15 21.25 16.95 21.3 16.75 21.35 16.55 21.35 16.35 21.35 16.15 21.35 15.9 21.35 15.6 21.35 15.3 21.3 15.05 21.25 14.8 21.15 14.55 21.05 14.3 20.95 14.1 20.8 13.9 20.65 13.7 20.5 13.5 20.3 13.3 20.05 13.1 19.85 12.95 19.55 12.75 19.25 12.6 18.9 12.4 19.2 12.25 19.5 12.1 19.75 11.95 19.95 11.8 20.15 11.65 20.35 11.5 20.5 11.3 20.6 11.1 20.7 10.95 20.8 10.75 20.85 10.55 20.9 10.35 20.95 10.15 21.0 9.9 21.0 9.7 21.0 9.45 21.0 9.25 21.0 9.1 20.95 8.9 20.9 8.75 20.9 8.55 20.8 8.4 20.75 8.25 20.65 8.1 20.6 7.95 20.5 7.8 20.4 7.65 20.25 7.5 20.1 7.4 19.95 7.25 19.85 7.15 19.65 7.05 19.5 6.95 19.35 6.85 19.2 6.75 19.05 6.65 18.85 6.6 18.7 6.5 18.55 6.45 18.35 6.4 18.2 6.35 18.0 6.3 17.85 6.25 17.65 6.25 17.5 6.2 17.3 6.2 17.1 6.2 16.9 6.2 16.7 6.2 16.5 6.2 16.3 6.25 16.1 6.25 15.9 6.3 15.75 6.35 15.55 6.35 15.35 6.45 15.2 6.5 15.0 6.55 14.85 6.65 14.65 6.7 14.5 6.8 14.35 6.9 14.2 7.0 14.0 7.15 13.85 7.25 13.7 7.4 13.55 7.55 13.4 7.7 13.3 7.85 13.2 8.0 13.1 8.15 13.0 8.3 12.9 8.45 12.85 8.6 12.8 8.8 12.75 8.95 12.7 9.15 12.7 9.35 12.65 9.55 12.65 9.7 12.65 9.8 12.65 9.95 12.7 10.05 12.7 10.2 12.75 10.3 12.8 10.4 12.8 10.5 12.85 10.6 12.9 10.75 12.95 10.85 13.0 10.95 13.05 11.05 13.1 11.15 13.2 11.25 13.25 11.3 13.3 11.4 13.35 11.5 13.4 11.55 13.45 11.6 13.5 11.65 13.6 11.75 13.65 11.8 13.7 11.85 13.8 11.9 13.85 12.0 13.95 12.05 14.05 12.15 14.15 12.2 14.25 12.3 14.4 12.4 14.5 12.5 14.7 12.6 L14.7 12.6 M16.35 13.3 L17.65 13.8 Q17.9 13.9 18.1 14.0 18.35 14.15 18.5 14.25 18.7 14.35 18.8 14.4 18.95 14.5 19.05 14.6 19.15 14.7 19.25 14.8 19.3 14.9 19.35 15.05 19.4 15.15 19.4 15.25 19.45 15.4 19.45 15.55 19.45 15.65 19.45 15.7 19.45 15.85 19.4 15.95 19.4 16.05 19.4 16.2 19.35 16.3 19.35 16.45 19.3 16.55 19.25 16.7 19.2 16.8 19.15 16.9 19.1 17.0 19.05 17.1 18.95 17.2 18.85 17.25 18.75 17.3 18.65 17.4 18.55 17.45 18.45 17.5 18.4 17.55 18.3 17.55 18.2 17.6 18.1 17.65 18.0 17.65 17.9 17.7 17.8 17.7 17.7 17.75 17.6 17.75 17.5 17.75 17.4 17.8 17.25 17.8 17.05 17.8 16.85 17.8 16.7 17.8 16.5 17.8 16.35 17.8 16.15 17.75 16.0 17.7 15.85 17.65 15.7 17.6 15.6 17.55 15.45 17.5 15.35 17.4 15.2 17.35 15.1 17.25 15.0 17.2 14.95 17.1 14.85 17.0 14.75 16.95 14.7 16.85 14.6 16.75 14.55 16.7 14.5 16.6 14.4 16.5 14.4 16.45 14.35 16.35 14.3 16.25 14.25 16.15 14.25 16.05 14.2 15.95 14.2 15.8 14.2 15.7 14.2 15.55 14.2 15.4 14.25 15.3 14.3 15.15 14.4 15.0 14.45 14.85 14.6 14.65 14.7 14.5 14.85 14.35 15.0 14.2 15.2 14.05 15.35 13.9 15.55 13.75 15.75 13.6 15.95 13.5 16.15 13.35 16.35 13.3 L16.35 13.3 M17.35 11.65 L17.15 11.55 Q16.9 11.45 15.45 10.55 15.35 10.5 15.25 10.4 15.15 10.35 15.05 10.25 14.95 10.2 14.9 10.1 14.8 10.05 14.75 9.95 14.7 9.9 14.65 9.8 14.6 9.75 14.6 9.65 14.55 9.6 14.55 9.5 14.55 9.45 14.55 9.35 14.55 9.3 14.55 9.25 14.55 9.2 14.6 9.15 14.6 9.1 14.6 9.0 14.65 8.95 14.7 8.9 14.75 8.8 14.8 8.75 14.85 8.65 14.9 8.6 14.95 8.55 15.0 8.5 15.1 8.4 15.15 8.35 15.25 8.3 15.3 8.25 15.4 8.2 15.5 8.15 15.6 8.1 15.7 8.05 15.8 8.05 15.9 8.0 16.05 7.95 16.15 7.95 16.25 7.9 16.35 7.9 16.5 7.85 16.6 7.85 16.7 7.85 16.8 7.85 16.9 7.85 17.05 7.85 17.15 7.85 17.3 7.9 17.4 7.9 17.55 7.95 17.7 8.0 17.8 8.05 17.95 8.1 18.05 8.15 18.15 8.2 18.3 8.25 18.4 8.3 18.5 8.35 18.6 8.45 18.7 8.5 18.8 8.6 18.85 8.65 18.9 8.7 19.0 8.8 19.05 8.85 19.1 8.9 19.15 9.0 19.15 9.05 19.2 9.15 19.25 9.2 19.3 9.3 19.3 9.4 19.3 9.45 19.35 9.6 19.35 9.7 19.35 9.8 19.35 9.9 19.3 10.0 19.25 10.1 19.15 10.2 19.1 10.35 19.0 10.45 18.85 10.6 18.7 10.7 18.6 10.85 18.4 11.0 18.25 11.1 18.1 11.2 17.9 11.35 17.75 11.45 17.55 11.55 17.35 11.65 L17.35 11.65" fill="#f1edf8" fill-rule="evenodd" stroke="none"/>
    </g>
  </defs>
</svg>
