<?xml version="1.0" encoding="UTF-8" standalone="no"?>
<svg xmlns:ffdec="https://www.free-decompiler.com/flash" xmlns:xlink="http://www.w3.org/1999/xlink" ffdec:objectType="frame" height="26.55px" width="70.8px" xmlns="http://www.w3.org/2000/svg">
  <g transform="matrix(1.0, 0.0, 0.0, 1.0, 0.2, 0.4)">
    <use ffdec:characterId="88" height="26.0" transform="matrix(1.0, 0.0, 0.0, 1.0, 0.0, 0.0)" width="52.95" xlink:href="#shape0"/>
    <use ffdec:characterId="89" height="26.0" transform="matrix(1.0, 0.0, 0.0, 1.0, 0.0, 0.0)" width="41.75" xlink:href="#shape1"/>
    <use ffdec:characterId="89" height="26.0" transform="matrix(1.0, 0.0, 0.0, 1.0, 0.0, 0.0)" width="41.75" xlink:href="#shape1"/>
  </g>
  <defs>
    <g id="shape0" transform="matrix(1.0, 0.0, 0.0, 1.0, 0.0, 0.0)">
      <path d="M52.4 2.45 Q52.4 2.5 52.4 2.5 52.4 2.55 52.4 2.55 52.4 2.55 52.4 2.6 L52.4 4.05 51.8 3.8 52.4 4.5 52.4 5.25 51.85 5.25 52.4 6.45 52.4 7.1 52.2 8.15 52.4 7.8 52.4 9.55 51.8 9.85 52.1 10.05 52.65 9.8 52.65 8.05 52.45 8.4 52.65 7.35 52.65 6.7 52.1 5.5 52.65 5.5 52.65 4.75 52.0 4.05 52.65 4.3 52.65 2.85 Q52.65 2.85 52.65 2.8 52.65 2.7 52.65 2.65 52.65 2.55 52.6 2.55 52.6 2.5 52.55 2.5 52.5 2.5 52.4 2.45 L52.4 2.45 M52.4 10.4 L52.4 22.5 52.4 23.15 Q52.4 23.4 52.4 23.4 52.4 23.5 52.3 23.5 52.3 23.5 52.05 23.5 L51.4 23.5 50.75 23.5 49.9 23.5 49.9 23.75 51.0 23.75 51.65 23.75 52.3 23.75 Q52.55 23.75 52.55 23.75 52.6 23.75 52.65 23.65 52.65 23.65 52.65 23.4 L52.65 22.75 52.65 10.55 52.4 10.4 M49.6 22.75 L48.85 23.5 30.75 23.5 29.9 23.05 29.85 23.5 28.8 23.5 28.5 23.5 27.4 23.4 26.7 23.5 25.5 23.5 25.35 23.3 24.85 23.55 7.7 23.5 6.9 23.25 6.45 23.5 5.55 23.5 5.25 23.35 4.5 23.5 3.85 23.5 3.2 23.5 2.6 23.5 2.0 23.45 1.3 23.5 0.9 23.5 Q0.9 23.55 0.9 23.6 0.85 23.65 0.85 23.7 0.85 23.7 0.85 23.75 0.85 23.75 0.9 23.75 0.9 23.75 0.9 23.75 L1.55 23.75 2.2 23.7 2.8 23.75 3.45 23.75 4.1 23.75 4.75 23.75 5.5 23.6 5.8 23.75 6.65 23.75 23.75 23.75 24.55 23.75 25.1 23.8 25.6 23.55 25.7 23.75 26.95 23.75 27.65 23.65 28.75 23.75 29.05 23.75 30.05 23.75 30.15 23.3 30.95 23.75 49.1 23.75 49.65 23.2 49.6 22.75" fill="#ffffff" fill-rule="evenodd" stroke="none"/>
      <path d="M0.65 2.2 L4.0 2.2 4.25 2.65 4.55 2.4 5.8 2.2 19.55 2.2 19.7 2.7 20.15 2.2 21.45 2.2 40.9 2.2 41.4 2.65 41.6 2.2 42.25 2.2 52.05 2.2 Q52.25 2.2 52.3 2.25 52.4 2.25 52.4 2.35 52.4 2.4 52.4 2.55 52.4 2.55 52.4 2.6 L52.4 4.05 51.75 3.8 52.4 4.5 52.4 5.25 51.85 5.25 52.4 6.45 52.4 7.1 52.2 8.15 52.4 7.8 52.4 9.55 51.75 9.85 52.4 10.3 52.4 22.5 52.4 23.15 Q52.4 23.4 52.4 23.4 52.4 23.5 52.3 23.5 52.3 23.5 52.05 23.5 L51.4 23.5 50.75 23.5 49.65 23.5 49.6 22.75 48.85 23.5 30.75 23.5 29.9 23.05 29.85 23.5 28.8 23.5 28.5 23.5 27.4 23.4 26.7 23.5 25.5 23.5 25.35 23.3 24.85 23.55 7.7 23.5 6.9 23.25 6.45 23.5 5.55 23.5 5.25 23.35 4.5 23.5 3.85 23.5 3.2 23.5 2.6 23.5 2.0 23.45 1.3 23.5 0.65 23.5 Q0.65 23.5 0.65 23.5 0.65 23.5 0.6 23.5 0.4 23.5 0.4 23.5 0.3 23.5 0.3 23.45 0.3 23.4 0.3 23.2 0.3 23.2 0.3 23.2 0.3 23.2 0.3 23.2 0.3 23.2 0.3 23.2 0.3 23.15 0.3 23.15 L0.3 17.7 1.1 17.5 0.3 16.75 0.3 16.1 0.3 15.45 0.3 14.45 0.7 14.15 0.3 13.9 0.3 10.65 0.65 10.45 0.3 9.9 0.3 9.0 0.3 8.35 0.3 7.7 0.75 7.2 0.3 6.85 0.3 2.6 Q0.3 2.55 0.3 2.55 0.3 2.4 0.3 2.35 0.35 2.25 0.4 2.25 0.45 2.2 0.6 2.2 0.6 2.2 0.6 2.2 0.65 2.2 0.65 2.2 0.65 2.2 0.65 2.2 0.65 2.2 0.65 2.2 L0.65 2.2" fill="#000000" fill-rule="evenodd" stroke="none"/>
    </g>
    <g id="shape1" transform="matrix(1.0, 0.0, 0.0, 1.0, 0.0, 0.0)">
      <path d="M12.5 9.6 Q12.5 9.5 12.5 9.4 12.55 9.3 12.55 9.25 12.6 9.2 12.65 9.1 12.7 9.05 12.75 9.0 12.75 9.0 12.8 8.95 12.85 8.95 12.85 8.9 12.9 8.9 12.9 8.9 12.95 8.9 12.95 8.9 L12.95 8.25 10.6 8.25 10.6 8.85 Q10.7 8.9 10.75 8.95 10.8 9.05 10.85 9.1 10.9 9.2 10.95 9.25 10.95 9.35 11.0 9.4 11.0 9.45 11.05 9.55 11.05 9.6 11.05 9.65 11.05 9.7 11.05 9.7 11.05 9.75 11.05 9.75 L11.0 15.3 6.4 9.25 6.4 9.25 6.0 9.45 6.1 9.55 5.65 9.35 5.9 9.2 5.95 9.25 6.2 9.1 6.2 9.05 6.25 9.0 6.35 8.3 6.35 8.25 5.95 8.25 4.0 8.25 4.0 8.85 Q4.1 8.9 4.15 8.95 4.2 9.0 4.25 9.05 4.3 9.15 4.35 9.2 4.35 9.3 4.4 9.35 4.4 9.4 4.4 9.5 4.45 9.55 4.45 9.6 4.45 9.65 4.45 9.65 4.45 9.65 4.45 9.7 L4.45 15.9 Q4.45 16.1 4.4 16.3 4.4 16.45 4.35 16.6 4.35 16.7 4.3 16.8 4.25 16.9 4.2 16.95 4.15 17.0 4.1 17.05 4.1 17.05 4.05 17.1 4.05 17.1 4.0 17.1 4.0 17.1 4.0 17.1 L4.0 17.75 6.4 17.75 6.4 17.1 Q6.3 17.05 6.25 17.0 6.2 16.95 6.15 16.85 6.1 16.75 6.05 16.65 6.05 16.55 6.0 16.45 6.0 16.35 6.0 16.25 6.0 16.15 6.0 16.05 5.95 16.0 5.95 15.95 5.95 15.9 5.95 15.9 L5.95 13.05 5.85 13.1 5.8 13.15 5.75 13.1 5.65 13.1 5.65 13.05 5.7 13.05 5.7 13.0 5.7 12.95 5.85 12.95 5.85 12.85 6.0 12.8 6.0 11.15 11.0 17.75 12.95 17.75 12.95 17.1 Q12.85 17.1 12.8 17.05 12.75 17.0 12.7 16.9 12.65 16.85 12.6 16.75 12.6 16.65 12.55 16.5 12.55 16.4 12.5 16.3 12.5 16.2 12.5 16.1 12.5 16.0 12.5 15.95 12.5 15.95 12.5 15.9 L12.5 11.3 12.5 9.6" fill="#f1edf8" fill-rule="evenodd" stroke="none"/>
      <path d="M15.9 12.1 L15.9 12.45 Q15.95 12.45 16.0 12.5 16.05 12.5 16.05 12.55 16.1 12.6 16.1 12.65 16.1 12.65 16.1 12.7 16.1 12.75 16.1 12.75 16.1 12.75 16.1 12.75 16.1 12.75 16.1 12.75 L16.1 15.2 16.1 15.35 Q16.1 15.4 16.1 15.45 16.1 15.5 16.1 15.5 16.1 15.55 16.1 15.6 16.1 15.7 16.1 15.75 16.05 15.85 16.05 15.95 16.0 16.05 16.0 16.15 15.95 16.2 15.9 16.3 15.8 16.4 15.75 16.45 15.65 16.55 15.55 16.6 15.45 16.65 15.3 16.7 15.15 16.7 15.0 16.7 15.0 16.7 14.95 16.7 14.9 16.7 14.85 16.7 14.75 16.65 14.65 16.65 14.55 16.6 14.5 16.55 14.4 16.45 14.3 16.4 14.2 16.25 14.1 16.15 14.05 16.0 14.0 15.8 13.95 15.6 13.95 15.35 L13.95 12.75 Q13.95 12.75 13.95 12.75 13.95 12.75 13.95 12.7 13.95 12.7 13.95 12.7 13.95 12.65 14.0 12.65 14.0 12.6 14.0 12.55 14.0 12.55 14.05 12.5 14.05 12.5 14.1 12.45 14.15 12.45 14.15 12.45 L14.15 12.1 12.7 12.1 12.7 12.45 Q12.7 12.45 12.7 12.45 12.7 12.45 12.75 12.45 12.75 12.5 12.75 12.5 12.8 12.5 12.8 12.55 12.85 12.55 12.85 12.6 12.85 12.65 12.9 12.65 12.9 12.7 12.9 12.75 12.9 12.85 12.9 12.9 12.9 14.35 12.9 15.85 12.9 15.9 12.9 15.95 12.9 16.05 12.95 16.15 12.95 16.3 13.0 16.45 13.1 16.6 13.2 16.8 13.3 16.95 13.45 17.1 13.6 17.3 13.8 17.4 14.0 17.55 14.3 17.65 14.6 17.7 14.95 17.7 15.35 17.7 15.65 17.65 15.95 17.55 16.2 17.45 16.4 17.3 16.6 17.15 16.75 17.0 16.85 16.8 16.95 16.65 17.0 16.5 17.05 16.35 17.1 16.2 17.15 16.1 17.15 16.0 17.15 15.95 17.15 15.9 L17.1 15.9 17.15 15.8 17.15 15.7 Q17.15 15.7 17.15 14.45 17.15 13.1 17.15 12.9 17.15 12.85 17.15 12.8 17.15 12.75 17.2 12.7 17.2 12.65 17.2 12.6 17.25 12.55 17.25 12.55 17.3 12.5 17.3 12.5 17.3 12.5 17.35 12.45 17.35 12.45 17.35 12.45 17.35 12.45 17.35 12.45 L17.35 12.1 15.9 12.1" fill="#f1edf8" fill-rule="evenodd" stroke="none"/>
      <path d="M25.1 16.75 L25.1 14.9 25.1 14.0 Q25.1 13.7 25.05 13.45 25.0 13.2 24.9 13.0 24.8 12.8 24.65 12.7 24.55 12.55 24.4 12.45 24.25 12.35 24.05 12.3 23.9 12.2 23.75 12.2 23.6 12.15 23.45 12.15 23.35 12.1 23.2 12.1 23.05 12.1 22.9 12.1 22.75 12.15 22.65 12.15 22.5 12.2 22.4 12.25 22.25 12.3 22.15 12.35 22.0 12.4 21.9 12.45 21.8 12.5 21.75 12.6 21.65 12.7 21.6 12.8 21.5 12.85 21.45 12.95 21.4 12.8 21.3 12.7 21.2 12.55 21.1 12.5 21.05 12.4 20.95 12.35 20.85 12.25 20.75 12.25 20.65 12.2 20.55 12.15 20.5 12.15 20.4 12.15 20.3 12.1 20.2 12.1 20.15 12.1 20.0 12.1 19.9 12.1 19.8 12.1 19.7 12.15 19.6 12.15 19.55 12.2 19.45 12.2 19.4 12.25 19.35 12.25 19.3 12.3 19.25 12.35 19.2 12.4 19.2 12.4 19.15 12.45 19.15 12.5 19.1 12.55 19.1 12.6 L19.1 12.3 Q19.1 12.25 19.1 12.2 19.1 12.15 19.15 12.1 19.15 12.1 19.15 12.05 19.2 12.0 19.2 12.0 19.2 12.0 19.25 11.95 19.25 11.95 19.25 11.95 19.3 11.95 19.3 11.95 19.3 11.95 19.3 11.95 L18.75 11.95 17.65 12.15 Q17.7 12.2 17.7 12.25 17.75 12.25 17.8 12.35 17.8 12.4 17.8 12.45 17.85 12.5 17.85 12.6 17.85 12.65 17.9 12.7 17.9 12.75 17.9 12.8 17.9 12.85 17.9 12.9 17.9 12.9 17.9 12.9 L17.9 16.1 17.9 16.5 Q17.9 16.65 17.9 16.75 17.85 16.85 17.85 16.95 17.8 17.0 17.8 17.1 17.75 17.15 17.75 17.2 17.7 17.2 17.65 17.25 17.65 17.3 17.6 17.3 17.6 17.3 17.6 17.3 17.55 17.3 17.55 17.3 L17.55 17.75 19.45 17.75 19.45 17.3 Q19.4 17.3 19.35 17.25 19.3 17.25 19.25 17.2 19.2 17.15 19.2 17.05 19.15 17.0 19.15 16.9 19.15 16.85 19.1 16.75 19.1 16.7 19.1 16.65 19.1 16.6 19.1 16.55 19.1 16.55 19.1 16.5 L19.1 15.05 19.1 15.05 Q19.1 15.05 19.1 14.95 19.1 14.85 19.05 14.75 19.05 14.6 19.1 14.45 19.1 14.3 19.1 14.1 19.15 13.95 19.2 13.8 19.25 13.6 19.35 13.5 19.5 13.35 19.65 13.3 19.8 13.2 20.0 13.2 20.2 13.2 20.35 13.3 20.5 13.35 20.6 13.5 20.7 13.6 20.8 13.8 20.85 13.95 20.9 14.15 20.9 14.3 20.95 14.45 20.95 14.6 20.95 14.75 20.95 14.9 20.95 15.0 20.95 15.0 20.95 15.05 L20.95 16.5 20.95 16.75 Q20.95 16.85 20.95 16.9 20.9 17.0 20.9 17.05 20.9 17.1 20.85 17.15 20.85 17.2 20.8 17.2 20.75 17.25 20.75 17.25 20.7 17.25 20.7 17.25 20.7 17.25 20.65 17.25 20.65 17.25 20.65 17.25 L20.65 17.75 22.4 17.75 22.4 17.25 Q22.35 17.25 22.3 17.25 22.25 17.2 22.25 17.2 22.2 17.15 22.2 17.1 22.15 17.05 22.15 17.0 22.15 17.0 22.1 16.95 22.1 16.9 22.1 16.85 22.1 16.8 22.1 16.8 22.1 16.8 22.1 16.75 L22.1 15.7 22.1 15.1 Q22.1 15.05 22.1 15.05 22.1 15.0 22.1 15.0 22.1 14.85 22.1 14.85 22.1 14.7 22.1 14.6 22.15 14.45 22.15 14.3 22.15 14.15 22.2 14.0 22.25 13.85 22.3 13.7 22.4 13.55 22.5 13.45 22.6 13.3 22.7 13.25 22.85 13.2 23.05 13.2 23.25 13.2 23.4 13.3 23.55 13.35 23.65 13.5 23.75 13.6 23.8 13.8 23.85 13.95 23.9 14.15 23.95 14.3 23.95 14.45 24.0 14.6 24.0 14.75 24.0 14.9 24.0 15.0 24.0 15.0 24.0 15.05 L24.0 16.5 24.0 16.75 Q24.0 16.85 24.0 16.9 23.95 17.0 23.95 17.05 23.9 17.1 23.9 17.15 23.85 17.2 23.85 17.2 23.8 17.25 23.75 17.25 23.75 17.25 23.7 17.25 23.7 17.25 23.7 17.25 23.7 17.25 23.7 17.25 L23.7 17.75 25.4 17.75 25.4 17.25 Q25.35 17.25 25.3 17.25 25.25 17.2 25.2 17.2 25.2 17.15 25.15 17.1 25.15 17.05 25.15 17.0 25.1 17.0 25.1 16.95 25.1 16.9 25.1 16.85 25.1 16.8 25.1 16.8 25.1 16.8 25.1 16.75 L25.1 16.75 M18.95 14.85 L18.9 14.8 18.85 14.5 18.85 14.45 18.85 14.45 18.85 14.4 18.9 14.7 18.95 14.7 19.0 14.85 18.95 14.85" fill="#f1edf8" fill-rule="evenodd" stroke="none"/>
      <path d="M31.25 16.2 Q31.25 16.2 31.2 16.2 31.2 16.2 31.05 16.25 30.9 16.3 30.75 16.3 30.6 16.35 30.45 16.4 30.25 16.45 30.05 16.45 29.8 16.5 29.6 16.5 29.35 16.55 29.15 16.55 28.9 16.6 28.65 16.6 28.45 16.6 28.3 16.55 28.2 16.45 28.05 16.35 27.95 16.25 27.9 16.1 27.85 15.95 27.8 15.8 27.75 15.65 27.7 15.5 27.7 15.35 27.7 15.25 27.65 15.15 27.65 15.05 27.65 15.0 27.65 15.0 L27.65 11.3 27.6 11.35 27.5 11.45 27.45 11.4 27.35 11.4 27.35 11.3 27.4 11.35 27.4 11.3 27.45 11.25 27.55 11.25 27.55 11.15 27.7 11.1 27.7 9.75 Q27.7 9.6 27.7 9.5 27.75 9.4 27.75 9.3 27.8 9.2 27.8 9.15 27.85 9.1 27.85 9.05 27.9 9.0 27.95 8.95 27.95 8.95 28.0 8.9 28.0 8.9 28.0 8.9 28.0 8.9 28.05 8.9 L28.05 8.25 25.85 8.25 25.85 8.85 Q25.9 8.9 25.95 8.95 26.05 9.0 26.05 9.05 26.1 9.1 26.15 9.2 26.15 9.25 26.15 9.35 26.2 9.4 26.2 9.45 26.2 9.5 26.2 9.6 26.2 9.6 26.2 9.65 26.2 9.65 26.2 9.7 L26.2 14.85 Q26.2 15.15 26.2 15.4 26.15 15.65 26.15 15.85 26.1 16.0 26.05 16.15 26.05 16.3 26.0 16.45 25.95 16.55 25.9 16.6 25.85 16.7 25.85 16.75 25.8 16.75 25.8 16.8 25.8 16.8 25.75 16.8 L25.75 17.75 28.3 17.75 28.3 17.7 30.6 17.75 Q30.65 17.7 31.8 17.75 L31.8 16.2 31.25 16.2" fill="#f1edf8" fill-rule="evenodd" stroke="none"/>
      <path d="M33.65 16.0 L33.65 11.15 33.55 11.15 33.5 11.25 33.45 11.2 33.4 11.2 33.4 11.15 33.45 11.15 33.45 11.1 33.45 11.05 33.55 11.05 33.55 10.95 33.65 10.9 33.65 8.9 Q33.65 8.8 33.65 8.75 33.65 8.65 33.7 8.6 33.7 8.55 33.7 8.5 33.75 8.45 33.75 8.4 33.75 8.35 33.8 8.35 33.8 8.3 33.8 8.3 33.8 8.3 33.85 8.25 33.85 8.25 33.85 8.25 L33.6 8.25 32.05 8.7 Q32.1 8.75 32.15 8.8 32.2 8.85 32.25 8.9 32.3 9.0 32.3 9.05 32.35 9.1 32.35 9.2 32.4 9.25 32.4 9.35 32.4 9.4 32.4 9.45 32.4 9.45 32.4 9.5 32.4 9.5 32.4 9.55 L32.4 15.5 32.4 15.95 Q32.4 16.15 32.4 16.35 32.35 16.5 32.35 16.6 32.3 16.75 32.3 16.85 32.25 16.9 32.25 16.95 32.2 17.0 32.2 17.05 32.15 17.1 32.15 17.1 32.1 17.1 32.1 17.1 32.1 17.1 32.1 17.1 L32.1 17.7 34.0 17.7 34.0 17.1 Q33.95 17.1 33.9 17.05 33.85 17.0 33.8 16.95 33.75 16.85 33.75 16.75 33.7 16.65 33.7 16.55 33.7 16.45 33.65 16.35 33.65 16.25 33.65 16.15 33.65 16.1 33.65 16.05 33.65 16.0 33.65 16.0 L33.65 16.0 M36.8 16.45 L36.0 15.3 Q36.0 15.3 36.0 15.3 35.95 15.3 35.95 15.3 35.9 15.3 35.85 15.3 35.8 15.25 35.75 15.25 35.7 15.2 35.65 15.15 35.55 15.1 35.5 15.05 35.4 15.0 35.3 14.9 35.2 14.8 35.1 14.65 L36.85 12.55 Q36.85 12.55 36.85 12.55 36.9 12.5 36.9 12.5 36.9 12.5 36.95 12.45 36.95 12.45 37.0 12.4 37.05 12.4 37.1 12.35 37.15 12.35 37.2 12.3 37.25 12.3 37.3 12.25 37.4 12.25 37.45 12.2 L37.45 11.8 35.45 11.8 35.45 12.2 Q35.45 12.2 35.45 12.2 35.5 12.25 35.5 12.25 35.5 12.25 35.55 12.3 35.55 12.3 35.6 12.35 35.6 12.35 35.6 12.4 35.6 12.45 35.6 12.5 35.6 12.55 35.55 12.6 35.5 12.65 35.45 12.7 L33.95 14.65 34.7 15.75 34.95 15.8 Q34.95 15.8 34.95 15.8 34.95 15.85 34.95 15.85 35.05 15.85 35.15 15.9 L35.2 15.85 35.2 15.85 35.35 15.9 35.3 15.95 34.85 15.95 34.85 16.05 35.65 16.9 Q35.65 16.9 35.65 16.95 35.7 17.0 35.7 17.05 35.7 17.15 35.65 17.2 L36.2 17.75 37.75 17.75 37.75 17.2 Q37.75 17.2 37.75 17.2 37.7 17.2 37.7 17.2 37.65 17.2 37.6 17.2 37.55 17.15 37.5 17.15 37.45 17.1 37.35 17.05 37.3 17.0 37.2 16.9 37.1 16.85 37.0 16.75 36.9 16.6 36.8 16.45 L36.8 16.45 M35.45 15.95 L35.4 15.9 35.45 15.85 35.5 15.9 35.7 15.95 35.45 15.95" fill="#f1edf8" fill-rule="evenodd" stroke="none"/>
    </g>
  </defs>
</svg>
