<?xml version="1.0" encoding="UTF-8" standalone="no"?>
<svg xmlns:ffdec="https://www.free-decompiler.com/flash" xmlns:xlink="http://www.w3.org/1999/xlink" ffdec:objectType="frame" height="26.55px" width="70.8px" xmlns="http://www.w3.org/2000/svg">
  <g transform="matrix(1.0, 0.0, 0.0, 1.0, 0.2, 0.4)">
    <use ffdec:characterId="3" height="26.0" transform="matrix(1.0, 0.0, 0.0, 1.0, 0.0, 0.0)" width="26.0" xlink:href="#shape0"/>
    <use ffdec:characterId="14" height="26.0" transform="matrix(1.0, 0.0, 0.0, 1.0, 0.0, 0.0)" width="26.0" xlink:href="#shape1"/>
    <use ffdec:characterId="14" height="26.0" transform="matrix(1.0, 0.0, 0.0, 1.0, 0.0, 0.0)" width="26.0" xlink:href="#shape1"/>
    <use ffdec:characterId="15" height="26.0" transform="matrix(1.0, 0.0, 0.0, 1.0, 0.0, 0.0)" width="26.0" xlink:href="#shape2"/>
    <use ffdec:characterId="15" height="26.0" transform="matrix(1.0, 0.0, 0.0, 1.0, 0.0, 0.0)" width="26.0" xlink:href="#shape2"/>
  </g>
  <defs>
    <g id="shape0" transform="matrix(1.0, 0.0, 0.0, 1.0, 0.0, 0.0)">
      <path d="M23.5 2.45 Q23.5 2.5 23.5 2.5 23.5 2.55 23.5 2.55 23.5 2.55 23.5 2.55 23.5 2.6 23.5 2.6 L23.5 4.05 22.85 3.8 23.5 4.5 23.5 5.25 22.95 5.25 23.5 6.45 23.5 7.1 23.3 8.15 23.5 7.8 23.5 9.55 22.85 9.85 23.15 10.05 23.75 9.8 23.75 8.05 23.5 8.4 23.75 7.35 23.75 6.7 23.2 5.5 23.75 5.5 23.75 4.75 23.1 4.05 23.75 4.3 23.75 2.85 Q23.75 2.8 23.75 2.8 23.75 2.7 23.75 2.65 23.75 2.55 23.7 2.55 23.7 2.5 23.65 2.5 23.6 2.5 23.5 2.45 L23.5 2.45 M23.5 10.4 L23.5 22.5 23.5 23.15 Q23.5 23.4 23.5 23.4 23.45 23.5 23.4 23.5 23.35 23.5 23.15 23.5 L22.5 23.5 21.85 23.5 20.95 23.5 21.0 23.75 22.1 23.75 22.75 23.75 23.4 23.75 Q23.65 23.75 23.7 23.75 23.75 23.7 23.75 23.4 L23.75 22.75 23.75 10.55 23.5 10.4 M20.7 22.75 L19.95 23.5 16.1 23.5 15.25 23.05 15.2 23.5 14.15 23.5 13.9 23.5 12.75 23.4 12.05 23.5 10.85 23.5 10.7 23.3 10.2 23.55 9.7 23.5 8.85 23.25 8.4 23.5 7.5 23.5 7.25 23.35 6.45 23.5 5.85 23.5 5.2 23.5 4.55 23.5 3.95 23.45 3.25 23.5 2.85 23.5 Q2.85 23.55 2.85 23.6 2.85 23.65 2.85 23.7 2.8 23.7 2.8 23.75 2.85 23.75 2.85 23.75 2.85 23.75 2.85 23.75 L3.5 23.75 4.2 23.7 4.8 23.75 5.45 23.75 6.05 23.75 6.7 23.75 7.45 23.6 7.75 23.75 8.65 23.75 9.1 23.5 9.9 23.75 10.45 23.8 10.95 23.55 11.1 23.75 12.3 23.75 13.0 23.65 14.1 23.75 14.4 23.75 15.4 23.75 15.5 23.3 16.35 23.75 20.15 23.75 20.75 23.2 20.7 22.75" fill="#ffffff" fill-rule="evenodd" stroke="none"/>
      <path d="M2.6 2.2 L5.95 2.2 6.2 2.65 6.5 2.4 7.75 2.2 13.5 2.2 13.7 2.7 14.15 2.2 15.45 2.2 16.65 2.2 17.15 2.65 17.35 2.2 18.0 2.2 23.15 2.2 Q23.35 2.2 23.4 2.25 23.45 2.25 23.5 2.35 23.5 2.4 23.5 2.55 23.5 2.55 23.5 2.6 L23.5 4.05 22.85 3.8 23.5 4.5 23.5 5.25 22.95 5.25 23.5 6.45 23.5 7.1 23.3 8.15 23.5 7.8 23.5 9.55 22.85 9.85 23.5 10.3 23.5 22.5 23.5 23.15 Q23.5 23.4 23.5 23.4 23.45 23.5 23.4 23.5 23.35 23.5 23.15 23.5 L22.5 23.5 21.85 23.5 20.75 23.5 20.7 22.75 19.95 23.5 16.1 23.5 15.25 23.05 15.2 23.5 14.15 23.5 13.9 23.5 12.75 23.4 12.05 23.5 10.85 23.5 10.7 23.3 10.2 23.55 9.7 23.5 8.85 23.25 8.4 23.5 7.5 23.5 7.25 23.35 6.45 23.5 5.85 23.5 5.2 23.5 4.55 23.5 3.95 23.45 3.25 23.5 2.6 23.5 Q2.6 23.5 2.6 23.5 2.6 23.5 2.6 23.5 2.4 23.5 2.35 23.5 2.3 23.5 2.25 23.45 2.25 23.4 2.25 23.2 2.25 23.2 2.25 23.2 2.25 23.2 2.25 23.2 2.25 23.15 2.25 23.15 L2.25 17.7 3.05 17.5 2.25 16.75 2.25 16.1 2.25 15.45 2.25 14.45 2.65 14.15 2.25 13.9 2.25 10.65 2.65 10.45 2.25 9.9 2.25 9.0 2.25 8.35 2.25 7.7 2.75 7.2 2.25 6.85 2.25 2.6 Q2.25 2.55 2.25 2.55 2.25 2.4 2.25 2.35 2.3 2.25 2.35 2.25 2.4 2.2 2.55 2.2 2.55 2.2 2.6 2.2 2.6 2.2 2.6 2.2 2.6 2.2 2.6 2.2 L2.6 2.2" fill="#000000" fill-rule="evenodd" stroke="none"/>
    </g>
    <g id="shape1" transform="matrix(1.0, 0.0, 0.0, 1.0, 0.0, 0.0)">
      <path d="M9.55 9.7 Q9.55 9.7 10.15 9.85 10.75 10.0 10.75 10.0 10.85 9.95 9.85 8.25 9.35 7.35 8.9 6.5 8.9 6.5 8.85 6.55 8.55 6.95 7.65 8.35 6.7 9.85 6.8 9.9 6.8 9.9 7.45 9.75 7.8 9.7 8.1 9.6 8.1 9.6 8.1 9.6 8.1 9.6 8.15 9.5 8.15 9.45 8.2 9.4 8.25 9.35 8.25 9.25 8.3 9.15 8.35 9.1 8.45 9.0 8.5 8.9 8.55 8.8 8.65 8.7 8.75 8.6 8.85 8.5 9.2 9.1 9.55 9.7 L9.55 9.7" fill="#f1edf8" fill-rule="evenodd" stroke="none"/>
    </g>
    <g id="shape2" transform="matrix(1.0, 0.0, 0.0, 1.0, 0.0, 0.0)">
      <path d="M21.0 15.7 Q20.95 15.35 20.8 15.0 20.6 14.6 20.4 14.25 20.15 13.9 19.8 13.6 19.5 13.3 19.1 13.05 18.7 12.85 18.25 12.75 17.75 12.65 17.2 12.65 16.65 12.7 16.1 12.95 15.45 13.15 14.8 13.6 14.8 13.6 14.8 13.5 14.85 13.35 14.85 13.2 14.9 13.0 14.95 12.75 15.0 12.5 15.05 12.25 15.15 11.95 15.3 11.7 15.4 11.4 15.6 11.15 15.75 10.9 15.95 10.7 16.2 10.45 16.5 10.35 17.0 10.1 17.45 10.0 17.9 9.9 18.3 9.9 18.65 9.95 18.95 10.1 19.2 10.2 19.45 10.4 19.7 10.55 19.85 10.75 20.0 10.9 20.15 11.1 20.2 11.25 20.3 11.4 20.3 11.45 20.35 11.5 20.35 11.5 20.4 11.35 20.5 11.15 20.55 10.95 20.6 10.65 20.65 10.35 20.7 10.05 20.65 9.7 20.6 9.35 20.45 9.05 20.3 8.75 20.0 8.5 19.65 8.25 19.2 8.1 18.65 7.95 17.9 7.95 17.75 7.95 17.6 7.95 17.4 7.95 17.15 8.0 16.85 8.0 16.55 8.1 16.2 8.2 15.85 8.35 15.45 8.55 15.1 8.8 14.75 9.1 14.4 9.45 14.05 9.9 13.8 10.4 13.5 10.95 13.25 11.65 13.05 12.3 12.9 13.0 12.75 13.8 12.65 14.6 12.55 15.45 12.5 16.25 12.5 17.15 12.6 17.9 12.75 18.7 13.0 19.4 13.3 20.1 13.8 20.6 14.3 21.15 15.0 21.4 15.75 21.7 16.7 21.7 17.5 21.7 18.2 21.55 18.85 21.4 19.35 21.1 19.8 20.85 20.2 20.45 20.5 20.1 20.75 19.65 20.95 19.25 21.05 18.7 21.15 18.25 21.2 17.7 21.2 17.2 21.15 16.7 21.1 16.2 21.0 15.7 L21.0 15.7 M19.4 17.75 Q19.35 18.05 19.25 18.35 19.1 18.6 18.9 18.85 18.7 19.05 18.4 19.2 18.15 19.35 17.85 19.5 17.55 19.6 17.2 19.65 16.9 19.7 16.65 19.7 16.35 19.65 16.1 19.6 15.85 19.55 15.7 19.45 15.55 19.35 15.4 19.1 15.3 18.9 15.15 18.65 15.05 18.4 15.0 18.15 14.9 17.9 14.85 17.6 14.8 17.35 14.8 17.05 14.75 16.85 14.7 16.65 14.7 16.5 14.7 16.35 14.7 16.3 14.7 16.25 15.05 15.8 15.45 15.5 15.85 15.2 16.25 15.0 16.7 14.85 17.1 14.8 17.5 14.75 17.85 14.85 18.25 14.95 18.55 15.2 18.85 15.45 19.05 15.8 19.25 16.15 19.35 16.65 19.45 17.15 19.4 17.75 L19.4 17.75" fill="#f1edf8" fill-rule="evenodd" stroke="none"/>
    </g>
  </defs>
</svg>
