<?xml version="1.0" encoding="UTF-8" standalone="no"?>
<svg xmlns:ffdec="https://www.free-decompiler.com/flash" xmlns:xlink="http://www.w3.org/1999/xlink" ffdec:objectType="frame" height="26.55px" width="70.8px" xmlns="http://www.w3.org/2000/svg">
  <g transform="matrix(1.0, 0.0, 0.0, 1.0, 0.2, 0.4)">
    <use ffdec:characterId="88" height="26.0" transform="matrix(1.0, 0.0, 0.0, 1.0, 0.0, 0.0)" width="52.95" xlink:href="#shape0"/>
    <use ffdec:characterId="90" height="26.0" transform="matrix(1.0, 0.0, 0.0, 1.0, 0.0, 0.0)" width="41.75" xlink:href="#shape1"/>
    <use ffdec:characterId="90" height="26.0" transform="matrix(1.0, 0.0, 0.0, 1.0, 0.0, 0.0)" width="41.75" xlink:href="#shape1"/>
  </g>
  <defs>
    <g id="shape0" transform="matrix(1.0, 0.0, 0.0, 1.0, 0.0, 0.0)">
      <path d="M52.4 2.45 Q52.4 2.5 52.4 2.5 52.4 2.55 52.4 2.55 52.4 2.55 52.4 2.6 L52.4 4.05 51.8 3.8 52.4 4.5 52.4 5.25 51.85 5.25 52.4 6.45 52.4 7.1 52.2 8.15 52.4 7.8 52.4 9.55 51.8 9.85 52.1 10.05 52.65 9.8 52.65 8.05 52.45 8.4 52.65 7.35 52.65 6.7 52.1 5.5 52.65 5.5 52.65 4.75 52.0 4.05 52.65 4.3 52.65 2.85 Q52.65 2.85 52.65 2.8 52.65 2.7 52.65 2.65 52.65 2.55 52.6 2.55 52.6 2.5 52.55 2.5 52.5 2.5 52.4 2.45 L52.4 2.45 M52.4 10.4 L52.4 22.5 52.4 23.15 Q52.4 23.4 52.4 23.4 52.4 23.5 52.3 23.5 52.3 23.5 52.05 23.5 L51.4 23.5 50.75 23.5 49.9 23.5 49.9 23.75 51.0 23.75 51.65 23.75 52.3 23.75 Q52.55 23.75 52.55 23.75 52.6 23.75 52.65 23.65 52.65 23.65 52.65 23.4 L52.65 22.75 52.65 10.55 52.4 10.4 M49.6 22.75 L48.85 23.5 30.75 23.5 29.9 23.05 29.85 23.5 28.8 23.5 28.5 23.5 27.4 23.4 26.7 23.5 25.5 23.5 25.35 23.3 24.85 23.55 7.7 23.5 6.9 23.25 6.45 23.5 5.55 23.5 5.25 23.35 4.5 23.5 3.85 23.5 3.2 23.5 2.6 23.5 2.0 23.45 1.3 23.5 0.9 23.5 Q0.9 23.55 0.9 23.6 0.85 23.65 0.85 23.7 0.85 23.7 0.85 23.75 0.85 23.75 0.9 23.75 0.9 23.75 0.9 23.75 L1.55 23.75 2.2 23.7 2.8 23.75 3.45 23.75 4.1 23.75 4.75 23.75 5.5 23.6 5.8 23.75 6.65 23.75 23.75 23.75 24.55 23.75 25.1 23.8 25.6 23.55 25.7 23.75 26.95 23.75 27.65 23.65 28.75 23.75 29.05 23.75 30.05 23.75 30.15 23.3 30.95 23.75 49.1 23.75 49.65 23.2 49.6 22.75" fill="#ffffff" fill-rule="evenodd" stroke="none"/>
      <path d="M0.65 2.2 L4.0 2.2 4.25 2.65 4.55 2.4 5.8 2.2 19.55 2.2 19.7 2.7 20.15 2.2 21.45 2.2 40.9 2.2 41.4 2.65 41.6 2.2 42.25 2.2 52.05 2.2 Q52.25 2.2 52.3 2.25 52.4 2.25 52.4 2.35 52.4 2.4 52.4 2.55 52.4 2.55 52.4 2.6 L52.4 4.05 51.75 3.8 52.4 4.5 52.4 5.25 51.85 5.25 52.4 6.45 52.4 7.1 52.2 8.15 52.4 7.8 52.4 9.55 51.75 9.85 52.4 10.3 52.4 22.5 52.4 23.15 Q52.4 23.4 52.4 23.4 52.4 23.5 52.3 23.5 52.3 23.5 52.05 23.5 L51.4 23.5 50.75 23.5 49.65 23.5 49.6 22.75 48.85 23.5 30.75 23.5 29.9 23.05 29.85 23.5 28.8 23.5 28.5 23.5 27.4 23.4 26.7 23.5 25.5 23.5 25.35 23.3 24.85 23.55 7.7 23.5 6.9 23.25 6.45 23.5 5.55 23.5 5.25 23.35 4.5 23.5 3.85 23.5 3.2 23.5 2.6 23.5 2.0 23.45 1.3 23.5 0.65 23.5 Q0.65 23.5 0.65 23.5 0.65 23.5 0.6 23.5 0.4 23.5 0.4 23.5 0.3 23.5 0.3 23.45 0.3 23.4 0.3 23.2 0.3 23.2 0.3 23.2 0.3 23.2 0.3 23.2 0.3 23.2 0.3 23.2 0.3 23.15 0.3 23.15 L0.3 17.7 1.1 17.5 0.3 16.75 0.3 16.1 0.3 15.45 0.3 14.45 0.7 14.15 0.3 13.9 0.3 10.65 0.65 10.45 0.3 9.9 0.3 9.0 0.3 8.35 0.3 7.7 0.75 7.2 0.3 6.85 0.3 2.6 Q0.3 2.55 0.3 2.55 0.3 2.4 0.3 2.35 0.35 2.25 0.4 2.25 0.45 2.2 0.6 2.2 0.6 2.2 0.6 2.2 0.65 2.2 0.65 2.2 0.65 2.2 0.65 2.2 0.65 2.2 0.65 2.2 L0.65 2.2" fill="#000000" fill-rule="evenodd" stroke="none"/>
    </g>
    <g id="shape1" transform="matrix(1.0, 0.0, 0.0, 1.0, 0.0, 0.0)">
      <path d="M12.7 9.4 Q12.35 9.05 12.0 8.85 11.65 8.65 11.3 8.5 11.0 8.4 10.7 8.35 10.4 8.3 10.1 8.35 9.85 8.35 9.6 8.4 9.4 8.45 9.25 8.5 9.1 8.55 9.0 8.6 8.95 8.6 8.9 8.65 8.65 8.75 8.4 8.95 8.2 9.1 8.05 9.3 7.9 9.45 7.8 9.7 7.7 9.85 7.6 10.1 7.55 10.25 7.5 10.45 7.5 10.6 7.45 10.75 7.45 10.85 7.45 10.95 7.45 11.0 7.45 11.0 7.45 11.4 7.55 11.7 7.65 12.0 7.75 12.3 7.9 12.5 8.05 12.7 8.15 12.9 8.35 13.0 8.5 13.15 8.65 13.25 8.75 13.3 8.9 13.35 9.0 13.4 9.1 13.45 9.1 13.45 9.15 13.45 L9.35 13.45 9.45 13.3 9.55 13.3 9.75 13.15 10.0 13.15 Q9.9 13.2 9.85 13.25 9.8 13.3 9.75 13.35 9.7 13.35 9.65 13.4 9.6 13.45 9.55 13.5 9.55 13.55 9.5 13.55 9.5 13.6 9.5 13.6 9.45 13.65 9.45 13.65 9.45 13.65 9.45 13.65 9.9 13.75 10.25 13.85 10.6 13.95 10.85 14.1 11.05 14.25 11.25 14.35 11.4 14.5 11.5 14.65 11.6 14.75 11.65 14.85 11.7 14.95 11.7 15.05 11.75 15.15 11.75 15.2 11.75 15.25 11.75 15.25 11.75 15.45 11.65 15.6 11.6 15.75 11.45 15.85 11.3 15.95 11.1 16.05 10.95 16.1 10.75 16.15 10.55 16.2 10.4 16.25 10.2 16.25 10.05 16.25 9.95 16.25 9.85 16.25 9.8 16.25 9.75 16.25 9.45 16.25 9.15 16.15 8.9 16.1 8.7 16.0 8.5 15.9 8.35 15.75 8.2 15.65 8.1 15.5 8.0 15.4 7.9 15.3 7.85 15.2 7.8 15.1 7.75 15.0 7.75 14.95 7.75 14.9 7.75 14.9 L7.0 14.9 7.0 16.4 Q7.1 16.65 7.3 16.8 7.5 17.0 7.75 17.15 7.95 17.25 8.2 17.35 8.45 17.45 8.7 17.55 8.9 17.6 9.15 17.65 9.35 17.65 9.55 17.7 9.7 17.7 9.8 17.7 9.85 17.7 9.9 17.7 10.25 17.7 10.55 17.7 10.85 17.65 11.1 17.6 11.35 17.55 11.55 17.5 11.75 17.4 11.9 17.3 12.05 17.25 12.2 17.15 12.3 17.1 12.35 17.0 12.45 16.95 12.45 16.9 12.5 16.9 12.5 16.85 12.65 16.7 12.8 16.5 12.9 16.3 12.95 16.15 13.05 15.95 13.1 15.8 13.15 15.65 13.15 15.45 13.15 15.35 13.15 15.2 13.15 15.1 13.15 15.0 13.15 14.9 13.15 14.85 13.15 14.8 13.1 14.8 13.05 14.6 13.0 14.35 12.9 14.2 12.75 14.0 12.65 13.85 12.5 13.7 12.35 13.55 12.2 13.4 12.05 13.3 11.9 13.2 11.8 13.15 11.65 13.05 11.55 13.0 11.5 12.95 11.45 12.95 11.45 12.95 10.65 12.55 9.85 12.15 9.6 12.05 9.45 11.9 9.25 11.8 9.15 11.7 9.05 11.55 8.95 11.45 8.9 11.3 8.85 11.2 8.8 11.1 8.8 10.95 8.8 10.9 8.8 10.8 8.8 10.75 8.8 10.7 8.8 10.65 8.8 10.65 8.85 10.35 9.0 10.15 9.15 9.95 9.35 9.85 9.55 9.75 9.8 9.7 10.05 9.65 10.35 9.65 10.6 9.65 10.85 9.75 11.1 9.8 11.3 9.9 11.5 10.05 11.7 10.2 11.85 10.35 11.9 10.55 L12.7 10.55 12.7 9.4" fill="#f1edf8" fill-rule="evenodd" stroke="none"/>
      <path d="M16.05 16.6 Q16.05 16.6 16.0 16.6 15.95 16.6 15.85 16.6 15.75 16.55 15.65 16.55 15.5 16.5 15.4 16.4 15.25 16.3 15.15 16.2 15.0 16.05 14.95 15.9 14.85 15.7 14.8 15.45 14.75 15.2 14.75 14.9 14.75 14.6 14.8 14.3 14.85 14.05 14.95 13.85 15.05 13.7 15.2 13.55 15.3 13.4 15.45 13.35 15.55 13.25 15.7 13.2 15.8 13.15 15.9 13.1 16.0 13.1 16.05 13.1 16.1 13.1 16.15 13.1 16.15 13.1 16.2 13.1 16.25 13.1 16.3 13.1 16.4 13.1 16.5 13.1 16.6 13.15 16.7 13.15 16.8 13.2 16.9 13.25 17.0 13.3 17.1 13.4 17.2 13.45 17.25 13.6 17.3 13.7 17.3 13.85 L17.5 14.0 Q17.5 14.0 17.55 13.95 18.1 13.45 17.6 13.9 17.65 13.85 17.75 13.8 17.8 13.7 17.85 13.65 17.95 13.55 18.0 13.45 18.1 13.35 18.15 13.3 18.25 13.2 18.3 13.1 18.35 13.0 18.4 12.9 18.4 12.9 18.4 12.9 18.35 12.9 18.35 12.9 18.35 12.9 18.3 12.9 18.3 12.95 18.25 12.9 18.2 12.9 18.2 12.9 18.15 12.9 18.1 12.85 18.05 12.8 17.95 12.75 17.9 12.65 17.85 12.6 17.85 12.6 17.8 12.55 17.8 12.55 17.7 12.5 17.65 12.45 17.55 12.4 17.5 12.35 17.35 12.3 17.25 12.25 17.1 12.2 17.0 12.15 16.85 12.1 16.65 12.1 16.5 12.05 16.3 12.05 16.15 12.05 15.65 12.05 15.25 12.15 14.9 12.25 14.6 12.45 14.35 12.6 14.15 12.85 13.95 13.1 13.8 13.4 13.7 13.65 13.6 13.9 13.55 14.1 13.55 14.35 13.5 14.55 13.5 14.7 13.5 14.75 13.5 14.8 13.5 15.35 13.6 15.8 13.75 16.2 13.9 16.55 14.1 16.85 14.35 17.05 14.55 17.25 14.8 17.4 15.0 17.5 15.25 17.6 15.45 17.65 15.65 17.7 15.8 17.7 15.95 17.7 16.0 17.7 16.05 17.7 16.35 17.7 16.6 17.65 16.85 17.6 17.1 17.5 17.3 17.4 17.5 17.3 17.65 17.2 17.8 17.1 17.95 17.0 18.05 16.9 18.15 16.8 18.25 16.7 18.3 16.6 18.35 16.55 18.35 16.55 18.4 16.5 L18.35 15.1 18.1 15.15 Q17.95 15.45 17.8 15.65 17.65 15.9 17.45 16.05 17.3 16.2 17.1 16.3 16.95 16.4 16.8 16.5 16.65 16.55 16.5 16.55 16.4 16.6 16.25 16.6 16.2 16.6 16.1 16.6 16.1 16.6 16.05 16.6 L16.05 16.6" fill="#f1edf8" fill-rule="evenodd" stroke="none"/>
      <path d="M22.05 12.4 Q22.05 12.4 22.05 12.4 21.95 12.35 21.95 12.35 21.9 12.3 21.85 12.3 21.8 12.25 21.75 12.2 21.65 12.15 21.6 12.15 21.5 12.1 21.4 12.05 21.3 12.05 21.2 12.0 21.1 12.0 21.0 12.0 20.95 12.0 20.9 12.0 20.85 12.0 20.75 12.0 20.7 12.05 20.65 12.05 20.55 12.05 20.5 12.1 20.4 12.1 20.35 12.15 20.25 12.15 20.2 12.2 20.1 12.25 20.05 12.3 20.0 12.35 19.95 12.45 L19.95 12.35 Q19.95 12.3 19.95 12.25 19.95 12.2 20.0 12.15 20.0 12.1 20.05 12.05 20.05 12.0 20.1 12.0 20.15 11.95 20.15 11.9 20.2 11.9 20.2 11.9 20.25 11.85 20.25 11.85 20.25 11.85 20.25 11.85 L19.5 11.85 18.55 12.05 Q18.6 12.05 18.65 12.1 18.7 12.1 18.7 12.15 18.75 12.15 18.75 12.2 18.8 12.25 18.8 12.3 18.8 12.3 18.85 12.35 18.85 12.4 18.85 12.4 18.85 12.45 18.85 12.45 18.85 12.45 18.85 12.45 L18.85 16.15 18.85 16.55 Q18.85 16.65 18.85 16.75 18.8 16.85 18.8 16.95 18.8 17.0 18.75 17.05 18.75 17.1 18.7 17.15 18.7 17.15 18.65 17.2 18.65 17.2 18.6 17.2 18.6 17.2 18.6 17.2 18.55 17.2 18.55 17.2 L18.55 17.75 20.25 17.75 20.25 17.25 Q20.2 17.25 20.15 17.2 20.1 17.2 20.1 17.15 20.05 17.1 20.05 17.0 20.0 16.95 20.0 16.9 20.0 16.8 19.95 16.75 19.95 16.7 19.95 16.65 19.95 16.6 19.95 16.55 19.95 16.55 19.95 16.55 L19.95 14.3 19.85 14.3 19.8 14.35 19.75 14.35 19.7 14.35 19.7 14.3 19.7 14.3 19.7 14.3 19.75 14.25 19.85 14.25 19.85 14.2 19.95 14.15 19.95 13.9 Q19.95 13.85 19.95 13.8 19.95 13.7 19.95 13.65 20.0 13.55 20.05 13.45 20.05 13.4 20.1 13.3 20.15 13.25 20.25 13.2 20.35 13.1 20.45 13.05 20.55 13.0 20.7 13.0 20.85 12.95 21.05 12.95 21.05 12.95 21.1 12.95 21.15 12.95 21.2 13.0 21.25 13.0 21.35 13.05 21.45 13.1 21.5 13.15 21.6 13.2 21.7 13.3 21.8 13.4 21.9 13.55 21.95 13.7 22.0 13.9 22.1 14.1 22.1 14.3 22.1 14.3 22.4 14.05 22.65 13.75 22.65 13.75 22.65 13.6 22.7 13.45 22.7 13.35 22.65 13.25 22.65 13.15 22.6 13.05 22.55 12.95 22.5 12.9 22.45 12.8 22.35 12.75 22.3 12.65 22.25 12.6 22.2 12.55 22.15 12.5 22.1 12.45 22.05 12.45 22.05 12.4 22.05 12.4 L22.05 12.4" fill="#f1edf8" fill-rule="evenodd" stroke="none"/>
      <path d="M28.15 16.2 Q28.15 16.2 28.1 16.2 28.05 16.2 27.9 16.25 27.75 16.3 27.65 16.3 27.45 16.35 27.3 16.4 27.1 16.45 26.9 16.45 26.7 16.5 26.45 16.5 26.25 16.55 26.0 16.55 25.75 16.6 25.55 16.6 25.35 16.6 25.2 16.55 25.05 16.45 24.95 16.35 24.85 16.25 24.75 16.1 24.7 15.95 24.65 15.8 24.6 15.65 24.6 15.5 24.55 15.35 24.55 15.25 24.55 15.15 24.55 15.05 24.55 15.0 24.55 15.0 L24.55 11.3 24.45 11.35 24.35 11.45 24.3 11.4 24.2 11.4 24.2 11.3 24.25 11.35 24.25 11.3 24.3 11.25 24.45 11.25 24.45 11.15 24.6 11.1 24.6 9.75 Q24.6 9.6 24.6 9.5 24.6 9.4 24.65 9.3 24.65 9.2 24.7 9.15 24.7 9.1 24.75 9.05 24.75 9.0 24.8 8.95 24.85 8.95 24.85 8.9 24.85 8.9 24.9 8.9 24.9 8.9 24.9 8.9 L24.9 8.25 22.7 8.25 22.7 8.85 Q22.75 8.9 22.85 8.95 22.9 9.0 22.95 9.05 22.95 9.1 23.0 9.2 23.0 9.25 23.05 9.35 23.05 9.4 23.05 9.45 23.05 9.5 23.05 9.6 23.05 9.6 23.05 9.65 23.05 9.65 23.05 9.7 L23.05 14.85 Q23.05 15.15 23.05 15.4 23.0 15.65 23.0 15.85 22.95 16.0 22.95 16.15 22.9 16.3 22.85 16.45 22.8 16.55 22.8 16.6 22.75 16.7 22.7 16.75 22.7 16.75 22.65 16.8 22.65 16.8 22.65 16.8 L22.6 17.75 25.15 17.75 25.15 17.7 27.5 17.75 Q27.45 17.7 28.7 17.75 L28.7 16.2 28.15 16.2" fill="#f1edf8" fill-rule="evenodd" stroke="none"/>
      <path d="M30.6 16.0 L30.6 11.15 30.55 11.15 30.5 11.25 30.45 11.2 30.35 11.2 30.35 11.15 30.4 11.15 30.4 11.1 30.45 11.05 30.55 11.05 30.55 10.95 30.65 10.9 30.65 8.9 Q30.65 8.8 30.65 8.75 30.65 8.65 30.65 8.6 30.7 8.55 30.7 8.5 30.7 8.45 30.75 8.4 30.75 8.35 30.75 8.35 30.8 8.3 30.8 8.3 30.8 8.3 30.8 8.25 30.8 8.25 30.8 8.25 L30.6 8.25 29.0 8.7 Q29.05 8.75 29.15 8.8 29.2 8.85 29.2 8.9 29.25 9.0 29.3 9.05 29.3 9.1 29.35 9.2 29.35 9.25 29.35 9.35 29.35 9.4 29.4 9.45 29.4 9.45 29.4 9.5 29.4 9.5 29.4 9.55 L29.4 15.5 29.4 15.95 Q29.4 16.15 29.4 16.35 29.35 16.5 29.35 16.6 29.3 16.75 29.3 16.85 29.25 16.9 29.2 16.95 29.2 17.0 29.15 17.05 29.15 17.1 29.1 17.1 29.1 17.1 29.05 17.1 29.05 17.1 29.05 17.1 L29.05 17.7 30.95 17.7 30.95 17.1 Q30.9 17.1 30.85 17.05 30.8 17.0 30.75 16.95 30.75 16.85 30.7 16.75 30.7 16.65 30.65 16.55 30.65 16.45 30.65 16.35 30.65 16.25 30.6 16.15 30.6 16.1 30.6 16.05 30.6 16.0 30.6 16.0 L30.6 16.0 M33.75 16.45 L32.95 15.3 Q32.95 15.3 32.95 15.3 32.9 15.3 32.9 15.3 32.85 15.3 32.85 15.3 32.8 15.25 32.75 15.25 32.65 15.2 32.6 15.15 32.55 15.1 32.45 15.05 32.35 15.0 32.3 14.9 32.2 14.8 32.1 14.65 L33.85 12.55 Q33.85 12.55 33.85 12.55 33.85 12.5 33.9 12.5 33.9 12.5 33.9 12.45 33.95 12.45 34.0 12.4 34.0 12.4 34.05 12.35 34.1 12.35 34.15 12.3 34.2 12.3 34.3 12.25 34.35 12.25 34.45 12.2 L34.4 11.8 32.45 11.8 32.45 12.2 Q32.45 12.2 32.45 12.2 32.45 12.2 32.5 12.25 32.5 12.25 32.5 12.3 32.55 12.3 32.55 12.35 32.6 12.35 32.6 12.4 32.6 12.45 32.55 12.5 32.55 12.55 32.55 12.6 32.5 12.65 32.45 12.7 L30.9 14.65 31.7 15.75 31.9 15.8 Q31.9 15.8 31.9 15.8 31.9 15.85 31.9 15.85 32.0 15.85 32.1 15.9 L32.15 15.85 32.2 15.85 32.35 15.9 32.25 15.95 31.85 15.95 31.85 16.05 32.6 16.9 Q32.6 16.9 32.65 16.95 32.65 16.95 32.65 17.0 32.7 17.05 32.7 17.1 32.7 17.15 32.65 17.2 L33.15 17.75 34.75 17.75 34.75 17.2 Q34.75 17.2 34.75 17.2 34.7 17.2 34.7 17.2 34.65 17.2 34.6 17.2 34.55 17.15 34.5 17.15 34.4 17.1 34.35 17.05 34.25 17.0 34.2 16.9 34.1 16.85 34.0 16.75 33.9 16.6 33.75 16.45 L33.75 16.45 M32.45 15.95 L32.4 15.9 32.45 15.85 32.5 15.9 32.7 15.95 32.45 15.95" fill="#f1edf8" fill-rule="evenodd" stroke="none"/>
    </g>
  </defs>
</svg>
