<?xml version="1.0" encoding="UTF-8" standalone="no"?>
<svg xmlns:ffdec="https://www.free-decompiler.com/flash" xmlns:xlink="http://www.w3.org/1999/xlink" ffdec:objectType="frame" height="26.55px" width="70.8px" xmlns="http://www.w3.org/2000/svg">
  <g transform="matrix(1.0, 0.0, 0.0, 1.0, 0.2, 0.4)">
    <use ffdec:characterId="1" height="26.0" transform="matrix(1.0, 0.0, 0.0, 1.0, 0.0, 0.0)" width="35.75" xlink:href="#shape0"/>
    <use ffdec:characterId="92" height="26.0" transform="matrix(1.0, 0.0, 0.0, 1.0, 0.0, 0.0)" width="35.75" xlink:href="#shape1"/>
    <use ffdec:characterId="92" height="26.0" transform="matrix(1.0, 0.0, 0.0, 1.0, 0.0, 0.0)" width="35.75" xlink:href="#shape1"/>
  </g>
  <defs>
    <g id="shape0" transform="matrix(1.0, 0.0, 0.0, 1.0, 0.0, 0.0)">
      <path d="M33.35 2.45 Q33.35 2.5 33.35 2.55 33.35 2.55 33.35 2.6 L33.35 4.05 32.7 3.8 33.35 4.5 33.35 5.25 32.8 5.25 33.35 6.45 33.35 7.1 33.1 8.15 33.35 7.8 33.35 9.55 32.7 9.85 33.0 10.05 33.6 9.8 33.6 8.05 33.35 8.4 33.6 7.35 33.6 6.7 33.05 5.5 33.6 5.5 33.6 4.75 32.95 4.05 33.6 4.3 33.6 2.85 Q33.6 2.8 33.6 2.8 33.6 2.7 33.6 2.65 33.55 2.55 33.55 2.55 33.5 2.5 33.45 2.5 33.45 2.5 33.35 2.45 L33.35 2.45 M33.35 10.4 L33.35 22.5 33.35 23.15 Q33.35 23.4 33.35 23.4 33.3 23.5 33.25 23.5 33.2 23.5 33.0 23.5 L32.35 23.5 31.7 23.5 30.8 23.5 30.85 23.75 31.95 23.75 32.6 23.75 33.2 23.75 Q33.45 23.75 33.45 23.75 33.55 23.75 33.55 23.65 33.55 23.65 33.6 23.4 L33.6 22.75 33.6 10.55 33.35 10.4 33.35 10.4 M30.55 22.75 L29.75 23.5 25.95 23.5 25.1 23.05 25.0 23.5 24.0 23.5 23.7 23.5 22.6 23.4 21.9 23.5 20.7 23.5 20.55 23.3 20.05 23.55 9.6 23.5 8.75 23.25 8.3 23.5 7.45 23.5 7.15 23.35 6.4 23.5 5.75 23.5 5.1 23.5 4.45 23.5 3.85 23.45 3.15 23.5 2.75 23.5 Q2.75 23.55 2.75 23.65 2.75 23.7 2.75 23.75 2.75 23.75 2.75 23.75 2.75 23.75 2.75 23.75 L3.4 23.75 4.1 23.7 4.7 23.75 5.35 23.75 5.95 23.75 6.6 23.75 7.4 23.6 7.65 23.75 8.55 23.75 18.95 23.75 19.75 23.75 20.3 23.8 20.8 23.55 20.9 23.75 22.15 23.75 22.85 23.65 23.95 23.75 24.25 23.75 25.25 23.75 25.35 23.3 26.15 23.75 30.0 23.75 30.55 23.2 30.55 22.75 30.55 22.75" fill="#ffffff" fill-rule="evenodd" stroke="none"/>
      <path d="M2.55 2.2 L5.85 2.2 6.1 2.65 6.4 2.4 7.65 2.2 13.45 2.2 13.6 2.7 14.05 2.2 15.35 2.2 26.5 2.2 27.0 2.65 27.2 2.2 27.85 2.2 33.0 2.2 Q33.2 2.2 33.25 2.25 33.3 2.25 33.35 2.35 33.35 2.4 33.35 2.55 33.35 2.55 33.35 2.6 L33.35 4.05 32.7 3.8 33.35 4.5 33.35 5.25 32.8 5.25 33.35 6.45 33.35 7.1 33.1 8.15 33.35 7.8 33.35 9.55 32.7 9.85 33.35 10.3 33.35 22.5 33.35 23.15 Q33.35 23.4 33.35 23.4 33.3 23.5 33.25 23.5 33.2 23.5 33.0 23.5 L32.35 23.5 31.7 23.5 30.6 23.5 30.5 22.75 29.75 23.5 25.95 23.5 25.1 23.05 25.0 23.5 24.0 23.5 23.7 23.5 22.6 23.4 21.9 23.5 20.7 23.5 20.55 23.3 20.05 23.55 9.6 23.5 8.75 23.25 8.3 23.5 7.45 23.5 7.15 23.35 6.4 23.5 5.75 23.5 5.1 23.5 4.45 23.5 3.85 23.45 3.15 23.5 2.55 23.5 Q2.5 23.5 2.5 23.5 2.5 23.5 2.5 23.5 2.3 23.5 2.25 23.5 2.2 23.5 2.15 23.45 2.15 23.4 2.2 23.2 2.2 23.2 2.15 23.2 2.15 23.2 2.15 23.2 2.15 23.15 2.15 23.15 L2.15 17.7 2.95 17.5 2.15 16.75 2.15 16.1 2.15 15.45 2.15 14.45 2.6 14.15 2.15 13.9 2.15 10.65 2.55 10.45 2.15 9.9 2.15 9.0 2.15 8.35 2.15 7.7 2.65 7.2 2.15 6.85 2.15 2.6 Q2.15 2.55 2.15 2.55 2.15 2.4 2.2 2.35 2.2 2.25 2.25 2.25 2.3 2.2 2.45 2.2 2.5 2.2 2.5 2.2 2.5 2.2 2.5 2.2 2.5 2.2 2.55 2.2 2.55 2.2 2.55 2.2 L2.55 2.2" fill="#000000" fill-rule="evenodd" stroke="none"/>
    </g>
    <g id="shape1" transform="matrix(1.0, 0.0, 0.0, 1.0, 0.0, 0.0)">
      <path d="M14.65 9.25 Q14.65 9.15 14.65 9.05 14.7 8.95 14.7 8.9 14.75 8.8 14.8 8.75 14.8 8.7 14.85 8.65 14.9 8.6 14.95 8.6 15.0 8.55 15.0 8.55 15.05 8.5 15.1 8.5 15.1 8.5 15.1 8.5 L15.1 7.8 12.55 7.8 12.55 8.45 Q12.65 8.5 12.7 8.6 12.75 8.65 12.8 8.75 12.85 8.8 12.9 8.9 12.95 9.0 12.95 9.05 13.0 9.15 13.0 9.2 13.0 9.25 13.05 9.35 13.05 9.35 13.05 9.4 13.05 9.4 13.05 9.45 L13.0 15.5 7.95 8.85 7.95 8.9 7.5 9.1 7.65 9.25 7.1 9.0 7.4 8.85 7.45 8.9 7.7 8.75 7.7 8.65 7.75 8.65 7.9 7.85 7.9 7.8 7.45 7.8 5.3 7.8 5.3 8.45 Q5.4 8.5 5.45 8.55 5.55 8.6 5.6 8.7 5.65 8.75 5.7 8.85 5.7 8.95 5.75 9.0 5.75 9.1 5.8 9.15 5.8 9.2 5.8 9.25 5.8 9.3 5.8 9.35 5.8 9.35 5.8 9.4 L5.8 16.15 Q5.8 16.4 5.75 16.6 5.75 16.8 5.7 16.95 5.7 17.05 5.65 17.15 5.6 17.25 5.55 17.3 5.5 17.4 5.45 17.4 5.4 17.45 5.4 17.45 5.35 17.5 5.35 17.5 5.3 17.5 5.3 17.5 L5.3 18.2 7.95 18.2 7.95 17.5 Q7.85 17.45 7.8 17.4 7.7 17.3 7.65 17.2 7.6 17.1 7.6 17.0 7.55 16.9 7.55 16.75 7.5 16.65 7.5 16.55 7.5 16.45 7.5 16.35 7.5 16.3 7.5 16.2 7.5 16.2 7.5 16.15 L7.5 13.05 7.35 13.1 7.3 13.2 7.2 13.1 7.1 13.1 7.1 13.05 7.15 13.05 7.15 13.0 7.2 12.95 7.35 12.95 7.35 12.85 7.5 12.8 7.5 11.0 13.0 18.2 15.1 18.2 15.1 17.5 Q15.0 17.5 14.95 17.45 14.9 17.4 14.8 17.3 14.8 17.2 14.75 17.1 14.7 16.95 14.7 16.85 14.65 16.7 14.65 16.6 14.65 16.5 14.6 16.4 14.6 16.3 14.6 16.25 14.6 16.2 14.6 16.15 L14.6 11.15 14.65 9.25" fill="#f1edf8" fill-rule="evenodd" stroke="none"/>
      <path d="M20.0 13.75 Q20.0 13.75 20.15 13.75 20.35 13.75 20.55 13.7 20.8 13.65 21.05 13.6 21.4 13.5 21.65 13.4 22.0 13.25 22.25 13.05 22.6 12.85 22.8 12.55 23.05 12.25 23.15 11.85 23.3 11.45 23.3 10.95 23.3 10.4 23.15 9.9 23.05 9.5 22.8 9.15 22.55 8.8 22.25 8.6 22.0 8.35 21.65 8.2 21.35 8.05 21.05 8.0 20.8 7.9 20.5 7.85 20.3 7.85 20.15 7.85 20.05 7.85 20.0 7.8 L16.2 7.8 16.2 7.9 16.2 8.5 16.55 8.85 16.55 9.15 16.6 9.2 16.6 10.15 16.7 10.15 16.7 10.35 17.0 10.45 17.35 10.5 17.25 10.6 16.75 10.6 16.7 10.75 16.65 10.95 16.65 16.1 Q16.65 16.15 16.65 16.15 16.65 16.2 16.65 16.25 16.65 16.35 16.65 16.45 16.6 16.55 16.6 16.65 16.6 16.75 16.55 16.85 16.5 17.0 16.45 17.1 16.4 17.2 16.35 17.3 16.25 17.4 16.2 17.45 L16.2 18.2 18.7 18.2 18.7 17.45 Q18.7 17.45 18.7 17.45 18.65 17.4 18.6 17.4 18.55 17.35 18.55 17.35 18.5 17.3 18.45 17.2 18.4 17.15 18.35 17.05 18.3 16.95 18.3 16.85 18.25 16.75 18.25 16.6 18.25 16.45 18.25 16.25 L18.25 12.35 18.15 12.25 18.15 12.2 18.25 12.15 18.25 11.0 18.2 10.85 18.15 10.7 18.15 10.35 18.2 10.2 18.25 10.3 18.25 10.2 18.25 9.25 20.2 9.25 Q20.2 9.25 20.25 9.25 20.35 9.25 20.45 9.3 20.55 9.3 20.7 9.35 20.85 9.4 21.0 9.5 21.15 9.55 21.3 9.65 21.45 9.8 21.55 9.95 21.7 10.15 21.75 10.35 21.85 10.6 21.85 10.9 21.85 10.9 21.85 10.95 21.85 11.05 21.85 11.15 21.8 11.3 21.75 11.4 21.7 11.55 21.6 11.7 21.5 11.85 21.3 11.95 21.1 12.1 20.85 12.2 20.55 12.3 20.2 12.35 19.8 12.4 19.3 12.35 L19.2 12.35 19.2 13.3 20.0 13.75" fill="#f1edf8" fill-rule="evenodd" stroke="none"/>
      <path d="M25.35 12.75 Q25.3 12.75 25.25 12.8 25.2 12.8 25.15 12.85 25.05 12.9 25.0 12.9 24.95 12.95 24.95 12.95 24.9 13.0 24.85 13.0 24.8 13.05 24.75 13.05 24.7 13.1 24.65 13.1 24.6 13.15 24.6 13.2 24.45 13.3 24.3 13.4 24.2 13.5 24.05 13.65 23.95 13.8 23.85 13.9 23.75 14.05 23.7 14.2 23.6 14.35 23.55 14.5 23.5 14.65 23.45 14.8 23.45 14.95 23.4 15.15 23.4 15.3 23.4 15.45 23.4 15.6 23.4 15.75 23.45 15.9 23.5 16.05 23.55 16.2 23.6 16.35 23.65 16.45 23.75 16.6 23.85 16.7 23.95 16.85 24.05 16.95 24.2 17.05 24.3 17.2 24.45 17.3 24.55 17.4 24.7 17.5 24.8 17.6 24.95 17.65 25.1 17.7 25.2 17.8 25.35 17.85 25.5 17.9 25.6 17.95 25.75 18.0 25.9 18.05 26.05 18.05 26.2 18.1 26.35 18.1 26.5 18.15 26.7 18.15 26.85 18.15 27.0 18.15 27.2 18.15 27.35 18.15 27.5 18.15 27.7 18.1 27.85 18.1 28.0 18.05 28.15 18.0 28.3 17.95 28.45 17.95 28.6 17.85 28.75 17.8 28.85 17.75 29.0 17.7 29.15 17.6 29.25 17.5 29.4 17.45 29.55 17.35 29.65 17.25 29.75 17.1 29.85 17.0 29.95 16.9 30.05 16.75 30.1 16.6 30.2 16.5 30.25 16.35 30.3 16.2 30.35 16.05 30.4 15.9 30.4 15.75 30.45 15.6 30.45 15.45 30.45 15.25 30.45 15.0 30.4 14.8 30.4 14.6 30.35 14.4 30.3 14.2 30.2 14.05 30.15 13.9 30.0 13.7 29.9 13.55 29.75 13.4 29.6 13.25 29.45 13.15 29.25 13.0 29.05 12.85 28.85 12.7 28.55 12.6 28.8 12.5 29.0 12.4 29.2 12.25 29.35 12.15 29.5 12.0 29.65 11.9 29.75 11.75 29.85 11.6 29.95 11.45 30.0 11.3 30.05 11.15 30.1 11.0 30.15 10.85 30.15 10.7 30.15 10.5 30.15 10.35 30.15 10.2 30.15 10.05 30.1 9.9 30.1 9.8 30.05 9.65 30.0 9.55 29.95 9.4 29.9 9.3 29.85 9.2 29.75 9.05 29.7 8.95 29.6 8.85 29.5 8.75 29.4 8.65 29.25 8.55 29.15 8.5 29.05 8.4 28.9 8.35 28.8 8.25 28.65 8.2 28.55 8.15 28.4 8.1 28.3 8.05 28.15 8.0 28.0 7.95 27.9 7.95 27.75 7.9 27.6 7.9 27.45 7.85 27.35 7.85 27.2 7.85 27.05 7.85 26.9 7.85 26.75 7.85 26.6 7.85 26.45 7.9 26.3 7.9 26.15 7.95 26.0 8.0 25.85 8.0 25.7 8.05 25.6 8.1 25.45 8.2 25.3 8.25 25.2 8.3 25.05 8.4 24.95 8.45 24.85 8.55 24.7 8.65 24.6 8.75 24.5 8.85 24.4 8.95 24.3 9.1 24.2 9.2 24.1 9.3 24.05 9.45 24.0 9.55 23.95 9.7 23.9 9.8 23.85 9.95 23.85 10.1 23.8 10.25 23.8 10.4 23.8 10.55 23.8 10.65 23.8 10.75 23.8 10.8 23.85 10.9 23.85 11.0 23.9 11.05 23.9 11.15 23.95 11.25 24.0 11.3 24.0 11.4 24.05 11.45 24.1 11.55 24.15 11.6 24.2 11.7 24.25 11.75 24.3 11.85 24.35 11.9 24.4 11.95 24.4 12.0 24.45 12.05 24.5 12.1 24.55 12.1 24.6 12.15 24.65 12.2 24.7 12.25 24.75 12.3 24.85 12.4 24.95 12.45 25.0 12.5 25.1 12.55 25.2 12.65 25.35 12.75 L25.35 12.75 M26.65 13.25 L27.6 13.65 Q27.8 13.75 27.95 13.8 28.15 13.9 28.25 14.0 28.4 14.05 28.5 14.15 28.6 14.2 28.7 14.3 28.75 14.35 28.8 14.45 28.85 14.5 28.9 14.6 28.95 14.65 28.95 14.75 28.95 14.85 28.95 14.95 28.95 15.0 28.95 15.1 28.95 15.2 28.95 15.25 28.95 15.35 28.9 15.45 28.9 15.55 28.9 15.65 28.85 15.75 28.85 15.85 28.8 15.95 28.75 16.0 28.7 16.1 28.65 16.15 28.6 16.25 28.55 16.3 28.45 16.35 28.4 16.4 28.3 16.45 28.25 16.45 28.15 16.5 28.1 16.55 28.05 16.55 27.95 16.6 27.9 16.6 27.8 16.65 27.75 16.65 27.65 16.65 27.55 16.65 27.5 16.7 27.4 16.7 27.3 16.7 27.15 16.7 27.0 16.7 26.85 16.7 26.7 16.7 26.6 16.7 26.45 16.65 26.35 16.65 26.25 16.6 26.15 16.55 26.0 16.5 25.9 16.45 25.85 16.4 25.75 16.35 25.65 16.3 25.6 16.25 25.5 16.15 25.45 16.1 25.4 16.05 25.3 15.95 25.25 15.9 25.2 15.85 25.15 15.8 25.15 15.75 25.1 15.65 25.05 15.6 25.05 15.5 25.0 15.45 25.0 15.35 25.0 15.3 24.95 15.2 24.95 15.1 24.95 14.95 24.95 14.85 25.0 14.75 25.05 14.65 25.1 14.55 25.15 14.4 25.25 14.3 25.35 14.2 25.45 14.05 25.6 13.95 25.7 13.85 25.85 13.7 26.0 13.6 26.15 13.5 26.3 13.4 26.45 13.35 26.65 13.25 L26.65 13.25 M27.35 12.0 L27.2 11.9 Q26.9 11.8 25.9 11.15 25.8 11.1 25.75 11.05 25.65 11.0 25.6 10.95 25.55 10.9 25.5 10.85 25.45 10.75 25.4 10.7 25.35 10.65 25.3 10.6 25.3 10.55 25.25 10.5 25.25 10.45 25.25 10.35 25.2 10.3 25.2 10.25 25.2 10.2 25.2 10.2 25.2 10.15 25.25 10.1 25.25 10.05 25.3 10.0 25.3 9.95 25.35 9.9 25.35 9.85 25.4 9.8 25.45 9.75 25.5 9.7 25.55 9.65 25.6 9.6 25.65 9.55 25.7 9.5 25.75 9.45 25.8 9.4 25.9 9.4 25.95 9.35 26.05 9.3 26.1 9.3 26.2 9.25 26.3 9.2 26.35 9.2 26.45 9.15 26.55 9.15 26.6 9.15 26.7 9.1 26.8 9.1 26.85 9.1 26.95 9.1 27.05 9.1 27.15 9.1 27.25 9.1 27.35 9.15 27.45 9.15 27.55 9.2 27.6 9.2 27.7 9.25 27.8 9.3 27.9 9.3 28.0 9.35 28.1 9.4 28.15 9.45 28.25 9.5 28.3 9.55 28.4 9.6 28.45 9.65 28.5 9.7 28.55 9.75 28.6 9.8 28.65 9.85 28.7 9.9 28.75 9.95 28.75 10.05 28.8 10.1 28.8 10.15 28.85 10.2 28.85 10.3 28.85 10.35 28.9 10.4 28.9 10.5 28.9 10.6 28.9 10.65 28.85 10.75 28.85 10.8 28.75 10.9 28.7 11.0 28.6 11.1 28.55 11.2 28.4 11.3 28.3 11.4 28.2 11.5 28.05 11.6 27.95 11.7 27.8 11.8 27.65 11.85 27.5 11.95 27.35 12.0 L27.35 12.0" fill="#f1edf8" fill-rule="evenodd" stroke="none"/>
    </g>
  </defs>
</svg>
