<?xml version="1.0" encoding="UTF-8" standalone="no"?>
<svg xmlns:ffdec="https://www.free-decompiler.com/flash" xmlns:xlink="http://www.w3.org/1999/xlink" ffdec:objectType="frame" height="26.55px" width="70.8px" xmlns="http://www.w3.org/2000/svg">
  <g transform="matrix(1.0, 0.0, 0.0, 1.0, 0.2, 0.4)">
    <use ffdec:characterId="1" height="26.0" transform="matrix(1.0, 0.0, 0.0, 1.0, 0.0, 0.0)" width="35.75" xlink:href="#shape0"/>
    <use ffdec:characterId="94" height="26.0" transform="matrix(1.0, 0.0, 0.0, 1.0, 0.0, 0.0)" width="35.75" xlink:href="#shape1"/>
    <use ffdec:characterId="94" height="26.0" transform="matrix(1.0, 0.0, 0.0, 1.0, 0.0, 0.0)" width="35.75" xlink:href="#shape1"/>
  </g>
  <defs>
    <g id="shape0" transform="matrix(1.0, 0.0, 0.0, 1.0, 0.0, 0.0)">
      <path d="M33.35 2.45 Q33.35 2.5 33.35 2.55 33.35 2.55 33.35 2.6 L33.35 4.05 32.7 3.8 33.35 4.5 33.35 5.25 32.8 5.25 33.35 6.45 33.35 7.1 33.1 8.15 33.35 7.8 33.35 9.55 32.7 9.85 33.0 10.05 33.6 9.8 33.6 8.05 33.35 8.4 33.6 7.35 33.6 6.7 33.05 5.5 33.6 5.5 33.6 4.75 32.95 4.05 33.6 4.3 33.6 2.85 Q33.6 2.8 33.6 2.8 33.6 2.7 33.6 2.65 33.55 2.55 33.55 2.55 33.5 2.5 33.45 2.5 33.45 2.5 33.35 2.45 L33.35 2.45 M33.35 10.4 L33.35 22.5 33.35 23.15 Q33.35 23.4 33.35 23.4 33.3 23.5 33.25 23.5 33.2 23.5 33.0 23.5 L32.35 23.5 31.7 23.5 30.8 23.5 30.85 23.75 31.95 23.75 32.6 23.75 33.2 23.75 Q33.45 23.75 33.45 23.75 33.55 23.75 33.55 23.65 33.55 23.65 33.6 23.4 L33.6 22.75 33.6 10.55 33.35 10.4 33.35 10.4 M30.55 22.75 L29.75 23.5 25.95 23.5 25.1 23.05 25.0 23.5 24.0 23.5 23.7 23.5 22.6 23.4 21.9 23.5 20.7 23.5 20.55 23.3 20.05 23.55 9.6 23.5 8.75 23.25 8.3 23.5 7.45 23.5 7.15 23.35 6.4 23.5 5.75 23.5 5.1 23.5 4.45 23.5 3.85 23.45 3.15 23.5 2.75 23.5 Q2.75 23.55 2.75 23.65 2.75 23.7 2.75 23.75 2.75 23.75 2.75 23.75 2.75 23.75 2.75 23.75 L3.4 23.75 4.1 23.7 4.7 23.75 5.35 23.75 5.95 23.75 6.6 23.75 7.4 23.6 7.65 23.75 8.55 23.75 18.95 23.75 19.75 23.75 20.3 23.8 20.8 23.55 20.9 23.75 22.15 23.75 22.85 23.65 23.95 23.75 24.25 23.75 25.25 23.75 25.35 23.3 26.15 23.75 30.0 23.75 30.55 23.2 30.55 22.75 30.55 22.75" fill="#ffffff" fill-rule="evenodd" stroke="none"/>
      <path d="M2.55 2.2 L5.85 2.2 6.1 2.65 6.4 2.4 7.65 2.2 13.45 2.2 13.6 2.7 14.05 2.2 15.35 2.2 26.5 2.2 27.0 2.65 27.2 2.2 27.85 2.2 33.0 2.2 Q33.2 2.2 33.25 2.25 33.3 2.25 33.35 2.35 33.35 2.4 33.35 2.55 33.35 2.55 33.35 2.6 L33.35 4.05 32.7 3.8 33.35 4.5 33.35 5.25 32.8 5.25 33.35 6.45 33.35 7.1 33.1 8.15 33.35 7.8 33.35 9.55 32.7 9.85 33.35 10.3 33.35 22.5 33.35 23.15 Q33.35 23.4 33.35 23.4 33.3 23.5 33.25 23.5 33.2 23.5 33.0 23.5 L32.35 23.5 31.7 23.5 30.6 23.5 30.5 22.75 29.75 23.5 25.95 23.5 25.1 23.05 25.0 23.5 24.0 23.5 23.7 23.5 22.6 23.4 21.9 23.5 20.7 23.5 20.55 23.3 20.05 23.55 9.6 23.5 8.75 23.25 8.3 23.5 7.45 23.5 7.15 23.35 6.4 23.5 5.75 23.5 5.1 23.5 4.45 23.5 3.85 23.45 3.15 23.5 2.55 23.5 Q2.5 23.5 2.5 23.5 2.5 23.5 2.5 23.5 2.3 23.5 2.25 23.5 2.2 23.5 2.15 23.45 2.15 23.4 2.2 23.2 2.2 23.2 2.15 23.2 2.15 23.2 2.15 23.2 2.15 23.15 2.15 23.15 L2.15 17.7 2.95 17.5 2.15 16.75 2.15 16.1 2.15 15.45 2.15 14.45 2.6 14.15 2.15 13.9 2.15 10.65 2.55 10.45 2.15 9.9 2.15 9.0 2.15 8.35 2.15 7.7 2.65 7.2 2.15 6.85 2.15 2.6 Q2.15 2.55 2.15 2.55 2.15 2.4 2.2 2.35 2.2 2.25 2.25 2.25 2.3 2.2 2.45 2.2 2.5 2.2 2.5 2.2 2.5 2.2 2.5 2.2 2.5 2.2 2.55 2.2 2.55 2.2 2.55 2.2 L2.55 2.2" fill="#000000" fill-rule="evenodd" stroke="none"/>
    </g>
    <g id="shape1" transform="matrix(1.0, 0.0, 0.0, 1.0, 0.0, 0.0)">
      <path d="M15.0 9.25 Q15.0 9.15 15.0 9.05 15.05 8.95 15.05 8.9 15.1 8.8 15.15 8.75 15.15 8.7 15.2 8.65 15.25 8.6 15.3 8.6 15.35 8.55 15.35 8.55 15.4 8.5 15.45 8.5 15.45 8.5 15.45 8.5 L15.45 7.8 12.9 7.8 12.9 8.45 Q13.0 8.5 13.05 8.6 13.1 8.65 13.15 8.75 13.2 8.8 13.25 8.9 13.3 9.0 13.3 9.05 13.35 9.15 13.35 9.2 13.35 9.25 13.4 9.35 13.4 9.35 13.4 9.4 13.4 9.4 13.4 9.45 L13.35 15.5 8.3 8.85 8.3 8.9 7.85 9.1 8.0 9.25 7.45 9.0 7.75 8.85 7.8 8.9 8.05 8.75 8.05 8.65 8.1 8.65 8.25 7.85 8.25 7.8 7.8 7.8 5.65 7.8 5.65 8.45 Q5.75 8.5 5.8 8.55 5.9 8.6 5.95 8.7 6.0 8.75 6.05 8.85 6.05 8.95 6.1 9.0 6.1 9.1 6.15 9.15 6.15 9.2 6.15 9.25 6.15 9.3 6.15 9.35 6.15 9.35 6.15 9.4 L6.15 16.15 Q6.15 16.4 6.1 16.6 6.1 16.8 6.05 16.95 6.05 17.05 6.0 17.15 5.95 17.25 5.9 17.3 5.85 17.4 5.8 17.4 5.75 17.45 5.75 17.45 5.7 17.5 5.7 17.5 5.65 17.5 5.65 17.5 L5.65 18.2 8.3 18.2 8.3 17.5 Q8.2 17.45 8.15 17.4 8.05 17.3 8.0 17.2 7.95 17.1 7.95 17.0 7.9 16.9 7.9 16.75 7.85 16.65 7.85 16.55 7.85 16.45 7.85 16.35 7.85 16.3 7.85 16.2 7.85 16.2 7.85 16.15 L7.85 13.05 7.7 13.1 7.65 13.2 7.55 13.1 7.45 13.1 7.45 13.05 7.5 13.05 7.5 13.0 7.55 12.95 7.7 12.95 7.7 12.85 7.85 12.8 7.85 11.0 13.35 18.2 15.45 18.2 15.45 17.5 Q15.35 17.5 15.3 17.45 15.25 17.4 15.15 17.3 15.15 17.2 15.1 17.1 15.05 16.95 15.05 16.85 15.0 16.7 15.0 16.6 15.0 16.5 14.95 16.4 14.95 16.3 14.95 16.25 14.95 16.2 14.95 16.15 L14.95 11.15 15.0 9.25" fill="#f1edf8" fill-rule="evenodd" stroke="none"/>
      <path d="M20.35 13.75 Q20.35 13.75 20.5 13.75 20.7 13.75 20.9 13.7 21.15 13.65 21.4 13.6 21.75 13.5 22.0 13.4 22.35 13.25 22.6 13.05 22.95 12.85 23.15 12.55 23.4 12.25 23.5 11.85 23.65 11.45 23.65 10.95 23.65 10.4 23.5 9.9 23.4 9.5 23.15 9.15 22.9 8.8 22.6 8.6 22.35 8.35 22.0 8.2 21.7 8.05 21.4 8.0 21.15 7.9 20.85 7.85 20.65 7.85 20.5 7.85 20.4 7.85 20.35 7.8 L16.55 7.8 16.55 7.9 16.55 8.5 16.9 8.85 16.9 9.15 16.95 9.2 16.95 10.15 17.05 10.15 17.05 10.35 17.35 10.45 17.7 10.5 17.6 10.6 17.1 10.6 17.05 10.75 17.0 10.95 17.0 16.1 Q17.0 16.1 17.0 16.15 17.0 16.2 17.0 16.25 17.0 16.35 17.0 16.45 16.95 16.55 16.95 16.65 16.95 16.75 16.9 16.85 16.85 17.0 16.8 17.1 16.75 17.2 16.7 17.3 16.6 17.4 16.55 17.45 L16.55 18.2 19.05 18.2 19.05 17.45 Q19.05 17.45 19.05 17.45 19.0 17.4 18.95 17.4 18.95 17.35 18.9 17.35 18.85 17.3 18.8 17.2 18.75 17.15 18.7 17.05 18.65 16.95 18.65 16.85 18.6 16.75 18.6 16.6 18.6 16.45 18.6 16.25 L18.6 12.35 18.5 12.25 18.5 12.2 18.6 12.15 18.6 11.0 18.55 10.85 18.5 10.7 18.5 10.35 18.55 10.2 18.6 10.3 18.6 10.2 18.6 9.25 20.55 9.25 Q20.55 9.25 20.6 9.25 20.7 9.25 20.8 9.3 20.9 9.3 21.05 9.35 21.2 9.4 21.35 9.5 21.5 9.55 21.65 9.65 21.8 9.8 21.9 9.95 22.05 10.15 22.1 10.35 22.2 10.6 22.2 10.9 22.2 10.9 22.2 10.95 22.2 11.05 22.2 11.15 22.15 11.3 22.1 11.4 22.05 11.55 21.95 11.7 21.85 11.85 21.65 11.95 21.45 12.1 21.2 12.2 20.9 12.3 20.55 12.35 20.15 12.4 19.65 12.35 L19.55 12.35 19.55 13.3 20.35 13.75" fill="#f1edf8" fill-rule="evenodd" stroke="none"/>
      <path d="M24.05 13.95 Q24.05 13.95 24.25 13.95 24.5 13.9 24.75 13.9 25.15 13.9 25.5 13.85 26.0 13.85 26.45 13.85 26.95 13.8 27.45 13.8 27.95 13.85 28.4 13.85 28.95 13.9 29.3 13.9 29.75 14.0 30.05 14.05 30.05 14.05 30.05 14.0 30.05 13.95 30.05 13.9 30.1 13.85 30.1 13.8 30.1 13.7 30.1 13.6 30.1 13.5 30.1 13.4 30.1 13.3 30.05 13.2 30.05 13.1 30.0 13.0 29.95 12.9 29.9 12.8 29.75 12.75 26.8 12.8 23.65 12.8 23.7 12.95 23.9 13.45 24.05 13.95 L24.05 13.95" fill="#f1edf8" fill-rule="evenodd" stroke="none"/>
    </g>
  </defs>
</svg>
