<?xml version="1.0" encoding="UTF-8" standalone="no"?>
<svg xmlns:ffdec="https://www.free-decompiler.com/flash" xmlns:xlink="http://www.w3.org/1999/xlink" ffdec:objectType="frame" height="26.55px" width="70.8px" xmlns="http://www.w3.org/2000/svg">
  <g transform="matrix(1.0, 0.0, 0.0, 1.0, 0.2, 0.4)">
    <use ffdec:characterId="1" height="26.0" transform="matrix(1.0, 0.0, 0.0, 1.0, 0.0, 0.0)" width="35.75" xlink:href="#shape0"/>
    <use ffdec:characterId="97" height="26.0" transform="matrix(1.0, 0.0, 0.0, 1.0, 0.0, 0.0)" width="35.75" xlink:href="#shape1"/>
    <use ffdec:characterId="97" height="26.0" transform="matrix(1.0, 0.0, 0.0, 1.0, 0.0, 0.0)" width="35.75" xlink:href="#shape1"/>
  </g>
  <defs>
    <g id="shape0" transform="matrix(1.0, 0.0, 0.0, 1.0, 0.0, 0.0)">
      <path d="M33.35 2.45 Q33.35 2.5 33.35 2.55 33.35 2.55 33.35 2.6 L33.35 4.05 32.7 3.8 33.35 4.5 33.35 5.25 32.8 5.25 33.35 6.45 33.35 7.1 33.1 8.15 33.35 7.8 33.35 9.55 32.7 9.85 33.0 10.05 33.6 9.8 33.6 8.05 33.35 8.4 33.6 7.35 33.6 6.7 33.05 5.5 33.6 5.5 33.6 4.75 32.95 4.05 33.6 4.3 33.6 2.85 Q33.6 2.8 33.6 2.8 33.6 2.7 33.6 2.65 33.55 2.55 33.55 2.55 33.5 2.5 33.45 2.5 33.45 2.5 33.35 2.45 L33.35 2.45 M33.35 10.4 L33.35 22.5 33.35 23.15 Q33.35 23.4 33.35 23.4 33.3 23.5 33.25 23.5 33.2 23.5 33.0 23.5 L32.35 23.5 31.7 23.5 30.8 23.5 30.85 23.75 31.95 23.75 32.6 23.75 33.2 23.75 Q33.45 23.75 33.45 23.75 33.55 23.75 33.55 23.65 33.55 23.65 33.6 23.4 L33.6 22.75 33.6 10.55 33.35 10.4 33.35 10.4 M30.55 22.75 L29.75 23.5 25.95 23.5 25.1 23.05 25.0 23.5 24.0 23.5 23.7 23.5 22.6 23.4 21.9 23.5 20.7 23.5 20.55 23.3 20.05 23.55 9.6 23.5 8.75 23.25 8.3 23.5 7.45 23.5 7.15 23.35 6.4 23.5 5.75 23.5 5.1 23.5 4.45 23.5 3.85 23.45 3.15 23.5 2.75 23.5 Q2.75 23.55 2.75 23.65 2.75 23.7 2.75 23.75 2.75 23.75 2.75 23.75 2.75 23.75 2.75 23.75 L3.4 23.75 4.1 23.7 4.7 23.75 5.35 23.75 5.95 23.75 6.6 23.75 7.4 23.6 7.65 23.75 8.55 23.75 18.95 23.75 19.75 23.75 20.3 23.8 20.8 23.55 20.9 23.75 22.15 23.75 22.85 23.65 23.95 23.75 24.25 23.75 25.25 23.75 25.35 23.3 26.15 23.75 30.0 23.75 30.55 23.2 30.55 22.75 30.55 22.75" fill="#ffffff" fill-rule="evenodd" stroke="none"/>
      <path d="M2.55 2.2 L5.85 2.2 6.1 2.65 6.4 2.4 7.65 2.2 13.45 2.2 13.6 2.7 14.05 2.2 15.35 2.2 26.5 2.2 27.0 2.65 27.2 2.2 27.85 2.2 33.0 2.2 Q33.2 2.2 33.25 2.25 33.3 2.25 33.35 2.35 33.35 2.4 33.35 2.55 33.35 2.55 33.35 2.6 L33.35 4.05 32.7 3.8 33.35 4.5 33.35 5.25 32.8 5.25 33.35 6.45 33.35 7.1 33.1 8.15 33.35 7.8 33.35 9.55 32.7 9.85 33.35 10.3 33.35 22.5 33.35 23.15 Q33.35 23.4 33.35 23.4 33.3 23.5 33.25 23.5 33.2 23.5 33.0 23.5 L32.35 23.5 31.7 23.5 30.6 23.5 30.5 22.75 29.75 23.5 25.95 23.5 25.1 23.05 25.0 23.5 24.0 23.5 23.7 23.5 22.6 23.4 21.9 23.5 20.7 23.5 20.55 23.3 20.05 23.55 9.6 23.5 8.75 23.25 8.3 23.5 7.45 23.5 7.15 23.35 6.4 23.5 5.75 23.5 5.1 23.5 4.45 23.5 3.85 23.45 3.15 23.5 2.55 23.5 Q2.5 23.5 2.5 23.5 2.5 23.5 2.5 23.5 2.3 23.5 2.25 23.5 2.2 23.5 2.15 23.45 2.15 23.4 2.2 23.2 2.2 23.2 2.15 23.2 2.15 23.2 2.15 23.2 2.15 23.15 2.15 23.15 L2.15 17.7 2.95 17.5 2.15 16.75 2.15 16.1 2.15 15.45 2.15 14.45 2.6 14.15 2.15 13.9 2.15 10.65 2.55 10.45 2.15 9.9 2.15 9.0 2.15 8.35 2.15 7.7 2.65 7.2 2.15 6.85 2.15 2.6 Q2.15 2.55 2.15 2.55 2.15 2.4 2.2 2.35 2.2 2.25 2.25 2.25 2.3 2.2 2.45 2.2 2.5 2.2 2.5 2.2 2.5 2.2 2.5 2.2 2.5 2.2 2.55 2.2 2.55 2.2 2.55 2.2 L2.55 2.2" fill="#000000" fill-rule="evenodd" stroke="none"/>
    </g>
    <g id="shape1" transform="matrix(1.0, 0.0, 0.0, 1.0, 0.0, 0.0)">
      <path d="M14.85 9.25 Q14.85 9.15 14.9 9.05 14.9 8.95 14.95 8.85 14.95 8.8 15.0 8.75 15.05 8.7 15.1 8.65 15.15 8.6 15.2 8.55 15.25 8.55 15.25 8.5 15.3 8.5 15.3 8.5 15.35 8.5 15.35 8.5 L15.35 7.8 12.8 7.8 12.8 8.45 Q12.9 8.5 12.95 8.6 13.0 8.65 13.05 8.75 13.1 8.8 13.15 8.9 13.2 8.95 13.2 9.05 13.25 9.1 13.25 9.2 13.25 9.25 13.25 9.3 13.3 9.35 13.3 9.4 13.3 9.4 13.3 9.4 L13.25 15.45 8.2 8.85 8.2 8.9 7.75 9.1 7.9 9.25 7.4 9.0 7.65 8.8 7.7 8.9 7.95 8.75 7.95 8.65 8.0 8.65 8.15 7.85 8.15 7.8 7.7 7.8 5.55 7.8 5.55 8.45 Q5.65 8.5 5.7 8.55 5.8 8.6 5.85 8.7 5.9 8.75 5.95 8.85 5.95 8.9 6.0 9.0 6.05 9.05 6.05 9.15 6.05 9.2 6.05 9.25 6.05 9.3 6.05 9.35 6.05 9.35 6.05 9.35 L6.05 16.1 Q6.05 16.35 6.05 16.55 6.0 16.75 5.95 16.9 5.95 17.0 5.9 17.15 5.85 17.2 5.8 17.3 5.75 17.35 5.7 17.4 5.7 17.4 5.65 17.45 5.6 17.45 5.6 17.45 5.6 17.45 5.55 17.45 L5.55 18.15 8.2 18.15 8.2 17.45 Q8.1 17.4 8.05 17.35 8.0 17.25 7.9 17.15 7.9 17.05 7.85 16.95 7.8 16.85 7.8 16.7 7.75 16.6 7.75 16.5 7.75 16.4 7.75 16.3 7.75 16.25 7.75 16.2 7.75 16.15 7.75 16.15 L7.75 13.0 7.6 13.05 7.55 13.15 7.5 13.1 7.35 13.1 7.35 13.0 7.4 13.05 7.4 12.95 7.45 12.9 7.6 12.9 7.65 12.85 7.75 12.75 7.75 10.95 13.25 18.15 15.35 18.15 15.35 17.45 Q15.25 17.45 15.2 17.4 15.15 17.35 15.05 17.25 15.0 17.15 15.0 17.05 14.95 16.95 14.9 16.8 14.9 16.7 14.9 16.55 14.85 16.45 14.85 16.35 14.85 16.25 14.85 16.2 14.85 16.15 14.85 16.15 L14.85 11.15 14.85 9.25" fill="#f1edf8" fill-rule="evenodd" stroke="none"/>
      <path d="M20.25 13.7 Q20.25 13.7 20.4 13.7 20.55 13.7 20.75 13.65 21.05 13.65 21.3 13.55 21.6 13.5 21.9 13.35 22.25 13.2 22.5 13.05 22.8 12.8 23.0 12.55 23.25 12.2 23.4 11.85 23.55 11.4 23.55 10.9 23.55 10.35 23.4 9.85 23.25 9.45 23.0 9.1 22.8 8.8 22.5 8.55 22.2 8.35 21.9 8.2 21.6 8.05 21.25 7.95 21.0 7.9 20.75 7.85 20.55 7.85 20.35 7.8 20.3 7.8 20.2 7.8 L16.4 7.8 16.4 7.9 16.4 8.45 16.8 8.85 16.8 9.1 16.85 9.15 16.85 10.15 16.95 10.15 16.95 10.35 17.25 10.4 17.6 10.5 17.5 10.55 17.0 10.55 16.95 10.7 16.9 10.9 16.9 16.05 Q16.9 16.05 16.9 16.1 16.9 16.15 16.9 16.2 16.9 16.3 16.85 16.4 16.85 16.5 16.85 16.6 16.8 16.75 16.8 16.85 16.75 16.95 16.7 17.05 16.65 17.2 16.6 17.25 16.5 17.35 16.4 17.4 L16.4 18.15 18.95 18.15 18.95 17.4 Q18.95 17.4 18.9 17.4 18.9 17.35 18.85 17.35 18.8 17.3 18.8 17.3 18.75 17.25 18.7 17.2 18.65 17.1 18.6 17.05 18.55 16.95 18.55 16.8 18.5 16.7 18.5 16.55 18.5 16.4 18.5 16.2 L18.5 12.35 18.35 12.25 18.4 12.15 18.5 12.15 18.5 10.95 18.45 10.85 18.35 10.7 18.4 10.3 18.4 10.2 18.5 10.25 18.5 10.2 18.5 9.25 20.4 9.25 Q20.4 9.25 20.45 9.25 20.55 9.25 20.65 9.3 20.8 9.3 20.9 9.35 21.1 9.4 21.2 9.45 21.4 9.55 21.5 9.65 21.65 9.8 21.8 9.95 21.9 10.15 22.0 10.35 22.05 10.6 22.05 10.9 22.05 10.9 22.05 10.95 22.05 11.05 22.05 11.15 22.05 11.25 22.0 11.4 21.9 11.55 21.8 11.65 21.7 11.8 21.55 11.95 21.35 12.1 21.1 12.15 20.8 12.25 20.4 12.3 20.0 12.35 19.5 12.35 L19.45 12.35 19.45 13.25 20.25 13.7" fill="#f1edf8" fill-rule="evenodd" stroke="none"/>
      <path d="M30.05 13.7 Q30.0 13.45 29.9 13.15 29.75 12.9 29.6 12.65 29.4 12.35 29.15 12.15 28.9 11.9 28.65 11.75 28.35 11.6 28.0 11.5 27.65 11.45 27.25 11.45 26.85 11.5 26.4 11.65 25.95 11.8 25.5 12.15 25.5 12.15 25.5 12.05 25.5 11.95 25.5 11.85 25.55 11.7 25.6 11.55 25.6 11.35 25.65 11.15 25.75 10.95 25.8 10.75 25.9 10.55 26.05 10.35 26.15 10.15 26.35 10.0 26.5 9.85 26.7 9.75 27.1 9.55 27.4 9.5 27.75 9.4 28.05 9.45 28.3 9.45 28.5 9.55 28.75 9.65 28.9 9.75 29.05 9.9 29.2 10.05 29.3 10.15 29.4 10.3 29.45 10.4 29.5 10.5 29.55 10.55 29.55 10.6 29.55 10.55 29.6 10.5 29.65 10.35 29.7 10.2 29.75 9.95 29.75 9.75 29.8 9.5 29.8 9.3 29.75 9.0 29.65 8.8 29.5 8.55 29.3 8.4 29.05 8.2 28.7 8.1 28.3 7.95 27.75 7.95 27.55 7.95 27.55 7.95 27.35 7.95 27.2 8.0 26.95 8.0 26.75 8.1 26.5 8.15 26.25 8.3 25.95 8.4 25.7 8.6 25.45 8.8 25.2 9.1 24.95 9.4 24.7 9.8 24.5 10.2 24.35 10.7 24.2 11.2 24.1 11.7 23.95 12.3 23.9 12.85 23.8 13.5 23.8 14.1 23.8 14.75 23.85 15.3 23.95 15.9 24.15 16.4 24.35 16.95 24.7 17.3 25.1 17.7 25.6 17.9 26.15 18.1 26.85 18.1 27.45 18.1 27.95 18.0 28.45 17.9 28.8 17.7 29.15 17.5 29.45 17.2 29.7 16.95 29.85 16.6 30.0 16.3 30.1 15.9 30.15 15.55 30.2 15.15 30.2 14.8 30.15 14.4 30.1 14.05 30.05 13.7 L30.05 13.7 M28.85 15.2 Q28.85 15.45 28.75 15.65 28.65 15.85 28.5 16.0 28.3 16.15 28.1 16.3 27.95 16.4 27.7 16.5 27.5 16.55 27.25 16.6 27.05 16.65 26.8 16.6 26.6 16.6 26.45 16.55 26.25 16.55 26.15 16.45 26.05 16.35 25.95 16.2 25.85 16.05 25.75 15.85 25.7 15.7 25.6 15.5 25.55 15.3 25.5 15.1 25.5 14.9 25.45 14.7 25.45 14.55 25.4 14.4 25.4 14.25 25.4 14.15 25.4 14.15 25.4 14.1 25.65 13.75 25.95 13.55 26.25 13.3 26.55 13.2 26.85 13.05 27.15 13.0 27.45 13.0 27.75 13.05 28.0 13.15 28.2 13.3 28.45 13.5 28.6 13.75 28.75 14.05 28.85 14.4 28.9 14.75 28.85 15.2 L28.85 15.2" fill="#f1edf8" fill-rule="evenodd" stroke="none"/>
    </g>
  </defs>
</svg>
