<?xml version="1.0" encoding="UTF-8" standalone="no"?>
<svg xmlns:ffdec="https://www.free-decompiler.com/flash" xmlns:xlink="http://www.w3.org/1999/xlink" ffdec:objectType="frame" height="26.55px" width="70.8px" xmlns="http://www.w3.org/2000/svg">
  <g transform="matrix(1.0, 0.0, 0.0, 1.0, 0.2, 0.4)">
    <use ffdec:characterId="1" height="26.0" transform="matrix(1.0, 0.0, 0.0, 1.0, 0.0, 0.0)" width="35.75" xlink:href="#shape0"/>
    <use ffdec:characterId="99" height="26.0" transform="matrix(1.0, 0.0, 0.0, 1.0, 0.0, 0.0)" width="35.75" xlink:href="#shape1"/>
    <use ffdec:characterId="99" height="26.0" transform="matrix(1.0, 0.0, 0.0, 1.0, 0.0, 0.0)" width="35.75" xlink:href="#shape1"/>
  </g>
  <defs>
    <g id="shape0" transform="matrix(1.0, 0.0, 0.0, 1.0, 0.0, 0.0)">
      <path d="M33.35 2.45 Q33.35 2.5 33.35 2.55 33.35 2.55 33.35 2.6 L33.35 4.05 32.7 3.8 33.35 4.5 33.35 5.25 32.8 5.25 33.35 6.45 33.35 7.1 33.1 8.15 33.35 7.8 33.35 9.55 32.7 9.85 33.0 10.05 33.6 9.8 33.6 8.05 33.35 8.4 33.6 7.35 33.6 6.7 33.05 5.5 33.6 5.5 33.6 4.75 32.95 4.05 33.6 4.3 33.6 2.85 Q33.6 2.8 33.6 2.8 33.6 2.7 33.6 2.65 33.55 2.55 33.55 2.55 33.5 2.5 33.45 2.5 33.45 2.5 33.35 2.45 L33.35 2.45 M33.35 10.4 L33.35 22.5 33.35 23.15 Q33.35 23.4 33.35 23.4 33.3 23.5 33.25 23.5 33.2 23.5 33.0 23.5 L32.35 23.5 31.7 23.5 30.8 23.5 30.85 23.75 31.95 23.75 32.6 23.75 33.2 23.75 Q33.45 23.75 33.45 23.75 33.55 23.75 33.55 23.65 33.55 23.65 33.6 23.4 L33.6 22.75 33.6 10.55 33.35 10.4 33.35 10.4 M30.55 22.75 L29.75 23.5 25.95 23.5 25.1 23.05 25.0 23.5 24.0 23.5 23.7 23.5 22.6 23.4 21.9 23.5 20.7 23.5 20.55 23.3 20.05 23.55 9.6 23.5 8.75 23.25 8.3 23.5 7.45 23.5 7.15 23.35 6.4 23.5 5.75 23.5 5.1 23.5 4.45 23.5 3.85 23.45 3.15 23.5 2.75 23.5 Q2.75 23.55 2.75 23.65 2.75 23.7 2.75 23.75 2.75 23.75 2.75 23.75 2.75 23.75 2.75 23.75 L3.4 23.75 4.1 23.7 4.7 23.75 5.35 23.75 5.95 23.75 6.6 23.75 7.4 23.6 7.65 23.75 8.55 23.75 18.95 23.75 19.75 23.75 20.3 23.8 20.8 23.55 20.9 23.75 22.15 23.75 22.85 23.65 23.95 23.75 24.25 23.75 25.25 23.75 25.35 23.3 26.15 23.75 30.0 23.75 30.55 23.2 30.55 22.75 30.55 22.75" fill="#ffffff" fill-rule="evenodd" stroke="none"/>
      <path d="M2.55 2.2 L5.85 2.2 6.1 2.65 6.4 2.4 7.65 2.2 13.45 2.2 13.6 2.7 14.05 2.2 15.35 2.2 26.5 2.2 27.0 2.65 27.2 2.2 27.85 2.2 33.0 2.2 Q33.2 2.2 33.25 2.25 33.3 2.25 33.35 2.35 33.35 2.4 33.35 2.55 33.35 2.55 33.35 2.6 L33.35 4.05 32.7 3.8 33.35 4.5 33.35 5.25 32.8 5.25 33.35 6.45 33.35 7.1 33.1 8.15 33.35 7.8 33.35 9.55 32.7 9.85 33.35 10.3 33.35 22.5 33.35 23.15 Q33.35 23.4 33.35 23.4 33.3 23.5 33.25 23.5 33.2 23.5 33.0 23.5 L32.35 23.5 31.7 23.5 30.6 23.5 30.5 22.75 29.75 23.5 25.95 23.5 25.1 23.05 25.0 23.5 24.0 23.5 23.7 23.5 22.6 23.4 21.9 23.5 20.7 23.5 20.55 23.3 20.05 23.55 9.6 23.5 8.75 23.25 8.3 23.5 7.45 23.5 7.15 23.35 6.4 23.5 5.75 23.5 5.1 23.5 4.45 23.5 3.85 23.45 3.15 23.5 2.55 23.5 Q2.5 23.5 2.5 23.5 2.5 23.5 2.5 23.5 2.3 23.5 2.25 23.5 2.2 23.5 2.15 23.45 2.15 23.4 2.2 23.2 2.2 23.2 2.15 23.2 2.15 23.2 2.15 23.2 2.15 23.15 2.15 23.15 L2.15 17.7 2.95 17.5 2.15 16.75 2.15 16.1 2.15 15.45 2.15 14.45 2.6 14.15 2.15 13.9 2.15 10.65 2.55 10.45 2.15 9.9 2.15 9.0 2.15 8.35 2.15 7.7 2.65 7.2 2.15 6.85 2.15 2.6 Q2.15 2.55 2.15 2.55 2.15 2.4 2.2 2.35 2.2 2.25 2.25 2.25 2.3 2.2 2.45 2.2 2.5 2.2 2.5 2.2 2.5 2.2 2.5 2.2 2.5 2.2 2.55 2.2 2.55 2.2 2.55 2.2 L2.55 2.2" fill="#000000" fill-rule="evenodd" stroke="none"/>
    </g>
    <g id="shape1" transform="matrix(1.0, 0.0, 0.0, 1.0, 0.0, 0.0)">
      <path d="M16.5 9.25 Q16.5 9.15 16.5 9.05 16.55 8.95 16.55 8.9 16.6 8.8 16.65 8.75 16.7 8.7 16.75 8.65 16.75 8.6 16.8 8.6 16.85 8.55 16.9 8.55 16.9 8.5 16.95 8.5 16.95 8.5 16.95 8.5 L16.95 7.8 14.4 7.8 14.4 8.45 Q14.5 8.5 14.55 8.6 14.65 8.65 14.7 8.75 14.75 8.8 14.75 8.9 14.8 9.0 14.85 9.05 14.85 9.15 14.85 9.2 14.9 9.25 14.9 9.35 14.9 9.35 14.9 9.4 14.9 9.4 14.9 9.45 L14.85 15.5 9.85 8.85 9.8 8.9 9.4 9.1 9.5 9.25 9.0 9.0 9.25 8.85 9.3 8.9 9.55 8.75 9.55 8.65 9.6 8.65 9.75 7.85 9.75 7.8 9.3 7.8 7.15 7.8 7.15 8.45 Q7.25 8.5 7.3 8.55 7.4 8.6 7.45 8.7 7.5 8.75 7.55 8.85 7.55 8.95 7.6 9.0 7.6 9.1 7.65 9.15 7.65 9.2 7.65 9.25 7.65 9.3 7.65 9.35 7.65 9.35 7.65 9.4 L7.65 16.15 Q7.65 16.4 7.65 16.6 7.6 16.8 7.55 16.95 7.55 17.05 7.5 17.15 7.45 17.25 7.4 17.3 7.35 17.4 7.3 17.4 7.3 17.45 7.25 17.45 7.2 17.5 7.2 17.5 7.2 17.5 7.15 17.5 L7.15 18.2 9.85 18.2 9.85 17.5 Q9.75 17.45 9.7 17.4 9.6 17.3 9.55 17.2 9.5 17.1 9.45 17.0 9.4 16.9 9.4 16.75 9.4 16.65 9.35 16.55 9.35 16.45 9.35 16.35 9.35 16.3 9.35 16.2 9.35 16.2 9.35 16.15 L9.35 13.05 9.25 13.1 9.15 13.2 9.1 13.1 8.95 13.1 8.95 13.05 9.0 13.05 9.0 13.0 9.05 12.95 9.2 12.95 9.25 12.85 9.35 12.8 9.35 11.0 14.85 18.2 16.95 18.2 16.95 17.5 Q16.85 17.5 16.8 17.45 16.75 17.4 16.7 17.3 16.65 17.2 16.6 17.1 16.55 16.95 16.55 16.85 16.5 16.7 16.5 16.6 16.5 16.5 16.5 16.4 16.5 16.3 16.5 16.25 16.45 16.2 16.45 16.15 L16.45 11.15 16.5 9.25" fill="#f1edf8" fill-rule="evenodd" stroke="none"/>
      <path d="M21.9 13.75 Q21.9 13.75 22.05 13.75 22.2 13.75 22.4 13.7 22.7 13.65 22.95 13.6 23.25 13.5 23.55 13.4 23.85 13.25 24.15 13.05 24.45 12.85 24.65 12.55 24.9 12.25 25.05 11.85 25.2 11.45 25.2 10.95 25.2 10.4 25.05 9.9 24.9 9.5 24.65 9.15 24.45 8.8 24.15 8.6 23.85 8.35 23.5 8.2 23.25 8.05 22.9 8.0 22.65 7.9 22.35 7.85 22.15 7.85 22.0 7.85 21.9 7.85 21.85 7.8 L18.05 7.8 18.05 7.9 18.05 8.5 18.4 8.85 18.4 9.15 18.5 9.2 18.5 10.15 18.55 10.15 18.55 10.35 18.85 10.45 19.2 10.5 19.15 10.6 18.65 10.6 18.55 10.75 18.5 10.95 18.5 16.1 Q18.5 16.1 18.5 16.15 18.5 16.2 18.5 16.25 18.5 16.35 18.5 16.45 18.5 16.55 18.45 16.65 18.45 16.75 18.4 16.85 18.35 17.0 18.3 17.1 18.25 17.2 18.2 17.3 18.15 17.4 18.05 17.45 L18.05 18.2 20.55 18.2 20.55 17.45 Q20.55 17.45 20.55 17.45 20.5 17.4 20.45 17.4 20.45 17.35 20.4 17.35 20.35 17.3 20.3 17.2 20.25 17.15 20.25 17.05 20.2 16.95 20.15 16.85 20.15 16.75 20.1 16.6 20.1 16.45 20.1 16.25 L20.1 12.35 20.0 12.25 20.05 12.2 20.1 12.15 20.1 11.0 20.05 10.85 20.0 10.7 20.0 10.35 20.05 10.2 20.1 10.3 20.1 10.2 20.1 9.25 22.05 9.25 Q22.05 9.25 22.1 9.25 22.2 9.25 22.3 9.3 22.45 9.3 22.55 9.35 22.7 9.4 22.85 9.5 23.0 9.55 23.15 9.65 23.3 9.8 23.4 9.95 23.55 10.15 23.6 10.35 23.7 10.6 23.7 10.9 23.7 10.95 23.7 10.95 23.7 11.05 23.7 11.15 23.65 11.3 23.6 11.4 23.55 11.55 23.45 11.7 23.35 11.85 23.15 11.95 22.95 12.1 22.7 12.2 22.4 12.3 22.05 12.35 21.65 12.4 21.15 12.35 L21.1 12.35 21.1 13.3 21.9 13.75" fill="#f1edf8" fill-rule="evenodd" stroke="none"/>
      <path d="M25.5 8.6 Q25.35 8.6 25.25 8.65 25.15 8.7 25.1 8.8 25.05 8.85 25.05 9.0 25.05 9.1 25.05 9.2 25.1 9.3 25.15 9.45 25.15 9.5 25.2 9.6 25.25 9.7 25.25 9.75 25.25 9.8 25.3 9.8 25.3 9.75 25.3 9.7 25.35 9.65 25.4 9.6 25.4 9.55 25.45 9.55 25.5 9.5 25.55 9.5 25.6 9.5 25.65 9.5 25.7 9.45 25.75 9.45 25.8 9.45 25.8 9.45 25.8 9.45 25.85 9.45 25.95 9.45 26.0 9.45 26.1 9.5 26.15 9.55 26.2 9.55 26.25 9.65 26.3 9.7 26.35 9.75 26.35 9.85 26.4 9.95 26.4 10.05 26.4 10.15 26.4 10.3 26.4 10.45 26.45 10.55 26.45 10.75 L26.45 15.35 Q26.45 15.5 26.45 15.65 26.4 15.8 26.4 15.95 26.4 16.1 26.35 16.25 26.3 16.4 26.3 16.55 26.25 16.65 26.2 16.75 26.15 16.85 26.1 16.95 26.05 17.05 25.95 17.05 25.9 17.1 25.85 17.1 L25.6 17.1 25.6 18.15 28.6 18.15 28.6 17.1 28.35 17.1 Q28.3 17.1 28.25 17.05 28.15 17.0 28.1 16.95 28.05 16.85 28.0 16.75 27.95 16.65 27.95 16.55 27.9 16.4 27.85 16.25 27.85 16.1 27.8 15.95 27.8 15.8 27.8 15.65 27.8 15.5 27.8 15.35 L27.8 7.85 27.25 7.85 Q27.4 7.7 27.0 8.05 26.9 8.1 26.8 8.2 26.7 8.25 26.65 8.3 26.55 8.35 26.45 8.4 26.35 8.45 26.25 8.5 26.15 8.55 26.05 8.55 25.95 8.6 25.8 8.6 25.7 8.6 25.55 8.6 L25.5 8.6" fill="#f1edf8" fill-rule="evenodd" stroke="none"/>
    </g>
  </defs>
</svg>
