<?xml version="1.0" encoding="UTF-8" standalone="no"?>
<svg xmlns:ffdec="https://www.free-decompiler.com/flash" xmlns:xlink="http://www.w3.org/1999/xlink" ffdec:objectType="frame" height="26.55px" width="70.8px" xmlns="http://www.w3.org/2000/svg">
  <g transform="matrix(1.0, 0.0, 0.0, 1.0, 0.2, 0.4)">
    <use ffdec:characterId="1" height="26.0" transform="matrix(1.0, 0.0, 0.0, 1.0, 0.0, 0.0)" width="35.75" xlink:href="#shape0"/>
    <use ffdec:characterId="103" height="26.0" transform="matrix(1.0, 0.0, 0.0, 1.0, 0.0, 0.0)" width="35.75" xlink:href="#shape1"/>
    <use ffdec:characterId="103" height="26.0" transform="matrix(1.0, 0.0, 0.0, 1.0, 0.0, 0.0)" width="35.75" xlink:href="#shape1"/>
  </g>
  <defs>
    <g id="shape0" transform="matrix(1.0, 0.0, 0.0, 1.0, 0.0, 0.0)">
      <path d="M33.35 2.45 Q33.35 2.5 33.35 2.55 33.35 2.55 33.35 2.6 L33.35 4.05 32.7 3.8 33.35 4.5 33.35 5.25 32.8 5.25 33.35 6.45 33.35 7.1 33.1 8.15 33.35 7.8 33.35 9.55 32.7 9.85 33.0 10.05 33.6 9.8 33.6 8.05 33.35 8.4 33.6 7.35 33.6 6.7 33.05 5.5 33.6 5.5 33.6 4.75 32.95 4.05 33.6 4.3 33.6 2.85 Q33.6 2.8 33.6 2.8 33.6 2.7 33.6 2.65 33.55 2.55 33.55 2.55 33.5 2.5 33.45 2.5 33.45 2.5 33.35 2.45 L33.35 2.45 M33.35 10.4 L33.35 22.5 33.35 23.15 Q33.35 23.4 33.35 23.4 33.3 23.5 33.25 23.5 33.2 23.5 33.0 23.5 L32.35 23.5 31.7 23.5 30.8 23.5 30.85 23.75 31.95 23.75 32.6 23.75 33.2 23.75 Q33.45 23.75 33.45 23.75 33.55 23.75 33.55 23.65 33.55 23.65 33.6 23.4 L33.6 22.75 33.6 10.55 33.35 10.4 33.35 10.4 M30.55 22.75 L29.75 23.5 25.95 23.5 25.1 23.05 25.0 23.5 24.0 23.5 23.7 23.5 22.6 23.4 21.9 23.5 20.7 23.5 20.55 23.3 20.05 23.55 9.6 23.5 8.75 23.25 8.3 23.5 7.45 23.5 7.15 23.35 6.4 23.5 5.75 23.5 5.1 23.5 4.45 23.5 3.85 23.45 3.15 23.5 2.75 23.5 Q2.75 23.55 2.75 23.65 2.75 23.7 2.75 23.75 2.75 23.75 2.75 23.75 2.75 23.75 2.75 23.75 L3.4 23.75 4.1 23.7 4.7 23.75 5.35 23.75 5.95 23.75 6.6 23.75 7.4 23.6 7.65 23.75 8.55 23.75 18.95 23.75 19.75 23.75 20.3 23.8 20.8 23.55 20.9 23.75 22.15 23.75 22.85 23.65 23.95 23.75 24.25 23.75 25.25 23.75 25.35 23.3 26.15 23.75 30.0 23.75 30.55 23.2 30.55 22.75 30.55 22.75" fill="#ffffff" fill-rule="evenodd" stroke="none"/>
      <path d="M2.55 2.2 L5.85 2.2 6.1 2.65 6.4 2.4 7.65 2.2 13.45 2.2 13.6 2.7 14.05 2.2 15.35 2.2 26.5 2.2 27.0 2.65 27.2 2.2 27.85 2.2 33.0 2.2 Q33.2 2.2 33.25 2.25 33.3 2.25 33.35 2.35 33.35 2.4 33.35 2.55 33.35 2.55 33.35 2.6 L33.35 4.05 32.7 3.8 33.35 4.5 33.35 5.25 32.8 5.25 33.35 6.45 33.35 7.1 33.1 8.15 33.35 7.8 33.35 9.55 32.7 9.85 33.35 10.3 33.35 22.5 33.35 23.15 Q33.35 23.4 33.35 23.4 33.3 23.5 33.25 23.5 33.2 23.5 33.0 23.5 L32.35 23.5 31.7 23.5 30.6 23.5 30.5 22.75 29.75 23.5 25.95 23.5 25.1 23.05 25.0 23.5 24.0 23.5 23.7 23.5 22.6 23.4 21.9 23.5 20.7 23.5 20.55 23.3 20.05 23.55 9.6 23.5 8.75 23.25 8.3 23.5 7.45 23.5 7.15 23.35 6.4 23.5 5.75 23.5 5.1 23.5 4.45 23.5 3.85 23.45 3.15 23.5 2.55 23.5 Q2.5 23.5 2.5 23.5 2.5 23.5 2.5 23.5 2.3 23.5 2.25 23.5 2.2 23.5 2.15 23.45 2.15 23.4 2.2 23.2 2.2 23.2 2.15 23.2 2.15 23.2 2.15 23.2 2.15 23.15 2.15 23.15 L2.15 17.7 2.95 17.5 2.15 16.75 2.15 16.1 2.15 15.45 2.15 14.45 2.6 14.15 2.15 13.9 2.15 10.65 2.55 10.45 2.15 9.9 2.15 9.0 2.15 8.35 2.15 7.7 2.65 7.2 2.15 6.85 2.15 2.6 Q2.15 2.55 2.15 2.55 2.15 2.4 2.2 2.35 2.2 2.25 2.25 2.25 2.3 2.2 2.45 2.2 2.5 2.2 2.5 2.2 2.5 2.2 2.5 2.2 2.5 2.2 2.55 2.2 2.55 2.2 2.55 2.2 L2.55 2.2" fill="#000000" fill-rule="evenodd" stroke="none"/>
    </g>
    <g id="shape1" transform="matrix(1.0, 0.0, 0.0, 1.0, 0.0, 0.0)">
      <path d="M17.85 9.25 Q17.85 9.15 17.85 9.05 17.9 8.95 17.9 8.9 17.95 8.8 18.0 8.75 18.0 8.7 18.05 8.65 18.1 8.6 18.15 8.6 18.2 8.55 18.25 8.55 18.25 8.5 18.3 8.5 18.3 8.5 18.3 8.5 L18.3 7.8 15.75 7.8 15.75 8.45 Q15.85 8.5 15.9 8.6 15.95 8.65 16.05 8.75 16.1 8.8 16.1 8.9 16.15 9.0 16.2 9.05 16.2 9.15 16.2 9.2 16.25 9.25 16.25 9.35 16.25 9.35 16.25 9.4 16.25 9.4 16.25 9.45 L16.2 15.5 11.15 8.85 11.15 8.9 10.7 9.1 10.85 9.25 10.35 9.0 10.6 8.85 10.65 8.9 10.9 8.75 10.9 8.65 10.95 8.65 11.1 7.85 11.1 7.8 10.65 7.8 8.5 7.8 8.5 8.45 Q8.6 8.5 8.65 8.55 8.75 8.6 8.8 8.7 8.85 8.75 8.9 8.85 8.9 8.95 8.95 9.0 8.95 9.1 9.0 9.15 9.0 9.2 9.0 9.25 9.0 9.3 9.0 9.35 9.0 9.35 9.0 9.4 L9.0 16.15 Q9.0 16.4 8.95 16.6 8.95 16.8 8.9 16.95 8.9 17.05 8.85 17.15 8.8 17.25 8.75 17.3 8.7 17.4 8.65 17.4 8.6 17.45 8.6 17.45 8.55 17.5 8.55 17.5 8.5 17.5 8.5 17.5 L8.5 18.2 11.15 18.2 11.15 17.5 Q11.05 17.45 11.0 17.4 10.95 17.3 10.85 17.2 10.85 17.1 10.8 17.0 10.75 16.9 10.75 16.75 10.7 16.65 10.7 16.55 10.7 16.45 10.7 16.35 10.7 16.3 10.7 16.2 10.7 16.2 10.7 16.15 L10.7 13.05 10.55 13.1 10.5 13.2 10.4 13.1 10.3 13.1 10.3 13.05 10.35 13.05 10.35 13.0 10.4 12.95 10.55 12.95 10.55 12.85 10.7 12.8 10.7 11.0 16.2 18.2 18.3 18.2 18.3 17.5 Q18.2 17.5 18.15 17.45 18.1 17.4 18.05 17.3 18.0 17.2 17.95 17.1 17.9 16.95 17.9 16.85 17.85 16.7 17.85 16.6 17.85 16.5 17.85 16.4 17.8 16.3 17.8 16.25 17.8 16.2 17.8 16.15 L17.8 11.15 17.85 9.25" fill="#f1edf8" fill-rule="evenodd" stroke="none"/>
      <path d="M23.25 13.75 Q23.25 13.75 23.4 13.75 23.55 13.75 23.75 13.7 24.0 13.65 24.3 13.6 24.6 13.5 24.9 13.4 25.2 13.25 25.5 13.05 25.8 12.85 26.0 12.55 26.25 12.25 26.4 11.85 26.5 11.45 26.5 10.95 26.5 10.4 26.35 9.9 26.25 9.5 26.0 9.15 25.75 8.8 25.45 8.6 25.2 8.35 24.85 8.2 24.55 8.05 24.25 8.0 24.0 7.9 23.7 7.85 23.5 7.85 23.35 7.85 23.25 7.85 23.2 7.8 L19.4 7.8 19.4 7.9 19.4 8.5 19.75 8.85 19.75 9.15 19.8 9.2 19.8 10.15 19.9 10.15 19.9 10.35 20.2 10.45 20.55 10.5 20.5 10.6 19.95 10.6 19.9 10.75 19.85 10.95 19.85 16.1 Q19.85 16.1 19.85 16.15 19.85 16.2 19.85 16.25 19.85 16.35 19.85 16.45 19.8 16.55 19.8 16.65 19.8 16.75 19.75 16.85 19.7 17.0 19.65 17.1 19.6 17.2 19.55 17.3 19.5 17.4 19.4 17.45 L19.4 18.2 21.9 18.2 21.9 17.45 Q21.9 17.45 21.9 17.45 21.85 17.4 21.8 17.4 21.8 17.35 21.75 17.35 21.7 17.3 21.65 17.2 21.6 17.15 21.55 17.05 21.55 16.95 21.5 16.85 21.45 16.75 21.45 16.6 21.45 16.45 21.45 16.25 L21.45 12.35 21.35 12.25 21.35 12.2 21.45 12.15 21.45 11.0 21.4 10.85 21.35 10.7 21.35 10.35 21.4 10.2 21.45 10.3 21.45 10.2 21.45 9.25 23.4 9.25 Q23.4 9.25 23.45 9.25 23.55 9.25 23.65 9.3 23.8 9.3 23.9 9.35 24.05 9.4 24.2 9.5 24.35 9.55 24.5 9.65 24.65 9.8 24.75 9.95 24.9 10.15 24.95 10.35 25.05 10.6 25.05 10.9 25.05 10.9 25.05 10.95 25.05 11.05 25.05 11.15 25.0 11.3 24.95 11.4 24.9 11.55 24.8 11.7 24.7 11.85 24.5 11.95 24.3 12.1 24.05 12.2 23.75 12.3 23.4 12.35 23.0 12.4 22.5 12.35 L22.4 12.35 22.4 13.3 23.25 13.75" fill="#f1edf8" fill-rule="evenodd" stroke="none"/>
      <path d="M25.85 16.35 L25.3 17.2 25.85 18.15 26.7 18.15 27.25 17.2 26.7 16.35 25.85 16.35" fill="#f1edf8" fill-rule="evenodd" stroke="none"/>
    </g>
  </defs>
</svg>
