<?xml version="1.0" encoding="UTF-8" standalone="no"?>
<svg xmlns:ffdec="https://www.free-decompiler.com/flash" xmlns:xlink="http://www.w3.org/1999/xlink" ffdec:objectType="frame" height="26.55px" width="70.8px" xmlns="http://www.w3.org/2000/svg">
  <g transform="matrix(1.0, 0.0, 0.0, 1.0, 0.2, 0.4)">
    <use ffdec:characterId="3" height="26.0" transform="matrix(1.0, 0.0, 0.0, 1.0, 0.0, 0.0)" width="26.0" xlink:href="#shape0"/>
    <use ffdec:characterId="104" height="26.0" transform="matrix(1.0, 0.0, 0.0, 1.0, 0.0, 0.0)" width="26.0" xlink:href="#shape1"/>
    <use ffdec:characterId="104" height="26.0" transform="matrix(1.0, 0.0, 0.0, 1.0, 0.0, 0.0)" width="26.0" xlink:href="#shape1"/>
  </g>
  <defs>
    <g id="shape0" transform="matrix(1.0, 0.0, 0.0, 1.0, 0.0, 0.0)">
      <path d="M23.5 2.45 Q23.5 2.5 23.5 2.5 23.5 2.55 23.5 2.55 23.5 2.55 23.5 2.55 23.5 2.6 23.5 2.6 L23.5 4.05 22.85 3.8 23.5 4.5 23.5 5.25 22.95 5.25 23.5 6.45 23.5 7.1 23.3 8.15 23.5 7.8 23.5 9.55 22.85 9.85 23.15 10.05 23.75 9.8 23.75 8.05 23.5 8.4 23.75 7.35 23.75 6.7 23.2 5.5 23.75 5.5 23.75 4.75 23.1 4.05 23.75 4.3 23.75 2.85 Q23.75 2.8 23.75 2.8 23.75 2.7 23.75 2.65 23.75 2.55 23.7 2.55 23.7 2.5 23.65 2.5 23.6 2.5 23.5 2.45 L23.5 2.45 M23.5 10.4 L23.5 22.5 23.5 23.15 Q23.5 23.4 23.5 23.4 23.45 23.5 23.4 23.5 23.35 23.5 23.15 23.5 L22.5 23.5 21.85 23.5 20.95 23.5 21.0 23.75 22.1 23.75 22.75 23.75 23.4 23.75 Q23.65 23.75 23.7 23.75 23.75 23.7 23.75 23.4 L23.75 22.75 23.75 10.55 23.5 10.4 M20.7 22.75 L19.95 23.5 16.1 23.5 15.25 23.05 15.2 23.5 14.15 23.5 13.9 23.5 12.75 23.4 12.05 23.5 10.85 23.5 10.7 23.3 10.2 23.55 9.7 23.5 8.85 23.25 8.4 23.5 7.5 23.5 7.25 23.35 6.45 23.5 5.85 23.5 5.2 23.5 4.55 23.5 3.95 23.45 3.25 23.5 2.85 23.5 Q2.85 23.55 2.85 23.6 2.85 23.65 2.85 23.7 2.8 23.7 2.8 23.75 2.85 23.75 2.85 23.75 2.85 23.75 2.85 23.75 L3.5 23.75 4.2 23.7 4.8 23.75 5.45 23.75 6.05 23.75 6.7 23.75 7.45 23.6 7.75 23.75 8.65 23.75 9.1 23.5 9.9 23.75 10.45 23.8 10.95 23.55 11.1 23.75 12.3 23.75 13.0 23.65 14.1 23.75 14.4 23.75 15.4 23.75 15.5 23.3 16.35 23.75 20.15 23.75 20.75 23.2 20.7 22.75" fill="#ffffff" fill-rule="evenodd" stroke="none"/>
      <path d="M2.6 2.2 L5.95 2.2 6.2 2.65 6.5 2.4 7.75 2.2 13.5 2.2 13.7 2.7 14.15 2.2 15.45 2.2 16.65 2.2 17.15 2.65 17.35 2.2 18.0 2.2 23.15 2.2 Q23.35 2.2 23.4 2.25 23.45 2.25 23.5 2.35 23.5 2.4 23.5 2.55 23.5 2.55 23.5 2.6 L23.5 4.05 22.85 3.8 23.5 4.5 23.5 5.25 22.95 5.25 23.5 6.45 23.5 7.1 23.3 8.15 23.5 7.8 23.5 9.55 22.85 9.85 23.5 10.3 23.5 22.5 23.5 23.15 Q23.5 23.4 23.5 23.4 23.45 23.5 23.4 23.5 23.35 23.5 23.15 23.5 L22.5 23.5 21.85 23.5 20.75 23.5 20.7 22.75 19.95 23.5 16.1 23.5 15.25 23.05 15.2 23.5 14.15 23.5 13.9 23.5 12.75 23.4 12.05 23.5 10.85 23.5 10.7 23.3 10.2 23.55 9.7 23.5 8.85 23.25 8.4 23.5 7.5 23.5 7.25 23.35 6.45 23.5 5.85 23.5 5.2 23.5 4.55 23.5 3.95 23.45 3.25 23.5 2.6 23.5 Q2.6 23.5 2.6 23.5 2.6 23.5 2.6 23.5 2.4 23.5 2.35 23.5 2.3 23.5 2.25 23.45 2.25 23.4 2.25 23.2 2.25 23.2 2.25 23.2 2.25 23.2 2.25 23.2 2.25 23.15 2.25 23.15 L2.25 17.7 3.05 17.5 2.25 16.75 2.25 16.1 2.25 15.45 2.25 14.45 2.65 14.15 2.25 13.9 2.25 10.65 2.65 10.45 2.25 9.9 2.25 9.0 2.25 8.35 2.25 7.7 2.75 7.2 2.25 6.85 2.25 2.6 Q2.25 2.55 2.25 2.55 2.25 2.4 2.25 2.35 2.3 2.25 2.35 2.25 2.4 2.2 2.55 2.2 2.55 2.2 2.6 2.2 2.6 2.2 2.6 2.2 2.6 2.2 2.6 2.2 L2.6 2.2" fill="#000000" fill-rule="evenodd" stroke="none"/>
    </g>
    <g id="shape1" transform="matrix(1.0, 0.0, 0.0, 1.0, 0.0, 0.0)">
      <path d="M11.95 12.35 L12.0 12.05 11.25 11.95 Q11.25 11.95 11.25 11.95 11.25 12.0 11.25 12.0 11.2 12.05 11.15 12.05 11.1 12.1 11.0 12.1 10.9 12.15 10.75 12.15 10.6 12.15 10.35 12.15 10.1 12.15 9.8 12.15 9.45 12.1 9.05 12.05 9.05 12.05 9.05 12.05 9.05 12.05 9.0 12.1 8.95 12.1 8.9 12.1 8.85 12.15 8.8 12.15 8.75 12.2 8.7 12.2 8.6 12.2 8.55 12.25 8.45 12.25 8.35 12.25 8.2 12.3 8.1 12.3 L8.1 11.4 8.0 11.45 7.85 11.55 7.75 11.5 7.75 11.5 7.75 11.4 7.8 11.45 7.75 11.35 7.75 11.3 7.95 11.3 8.0 11.25 8.15 11.15 8.15 9.35 Q8.15 9.2 8.2 9.05 8.25 8.95 8.35 8.85 8.45 8.8 8.6 8.7 8.7 8.65 8.85 8.65 8.95 8.6 9.1 8.55 9.25 8.55 9.35 8.55 9.45 8.55 9.5 8.55 9.55 8.55 9.55 8.55 L10.6 8.55 Q10.6 8.55 10.65 8.55 10.7 8.55 10.8 8.55 10.9 8.55 11.0 8.55 11.1 8.6 11.25 8.6 11.4 8.65 11.5 8.7 11.65 8.7 11.75 8.8 11.85 8.85 11.95 8.95 12.0 9.05 12.05 9.15 L12.6 9.15 12.6 7.25 8.45 7.25 6.4 7.25 5.65 7.25 5.65 8.2 Q5.8 8.2 5.9 8.25 6.0 8.3 6.1 8.4 6.15 8.45 6.2 8.55 6.3 8.65 6.3 8.75 6.35 8.85 6.4 8.95 6.4 9.0 6.4 9.1 6.4 9.15 6.4 9.2 6.4 9.2 6.4 9.25 L6.4 16.35 Q6.4 16.6 6.35 16.8 6.35 17.0 6.3 17.2 6.3 17.3 6.25 17.45 6.2 17.55 6.15 17.6 6.1 17.65 6.05 17.7 6.05 17.75 6.0 17.75 5.95 17.75 5.95 17.75 5.95 17.8 5.95 17.8 L5.95 18.75 8.6 18.75 8.6 17.8 Q8.5 17.75 8.45 17.7 8.35 17.6 8.3 17.5 8.25 17.4 8.2 17.3 8.2 17.15 8.15 17.05 8.15 16.9 8.15 16.8 8.1 16.7 8.1 16.6 8.1 16.5 8.1 16.45 8.1 16.4 8.1 16.4 L8.1 13.3 10.15 13.25 Q10.15 13.25 10.2 13.25 10.3 13.25 10.4 13.25 10.5 13.25 10.65 13.2 10.8 13.2 10.95 13.15 11.15 13.1 11.3 13.05 11.45 12.95 11.6 12.85 11.7 12.75 11.8 12.65 11.9 12.5 11.95 12.35 L11.95 12.35" fill="#f1edf8" fill-rule="evenodd" stroke="none"/>
      <path d="M13.25 8.15 Q13.1 8.15 12.95 8.2 12.85 8.25 12.8 8.35 12.8 8.45 12.75 8.55 12.75 8.65 12.8 8.8 12.8 8.9 12.85 9.05 12.9 9.15 12.95 9.25 12.95 9.35 13.0 9.4 13.0 9.45 13.05 9.45 13.05 9.4 13.05 9.35 13.1 9.3 13.15 9.25 13.15 9.2 13.2 9.15 13.25 9.15 13.35 9.15 13.4 9.1 13.45 9.1 13.5 9.1 13.55 9.1 13.55 9.1 13.6 9.05 13.6 9.05 13.65 9.05 13.75 9.05 13.85 9.1 13.9 9.1 14.0 9.15 14.05 9.2 14.1 9.25 14.15 9.35 14.2 9.4 14.2 9.5 14.25 9.6 14.25 9.75 14.25 9.85 14.3 10.0 14.3 10.15 14.3 10.3 14.3 10.5 L14.3 15.6 Q14.3 15.75 14.3 15.95 14.3 16.1 14.25 16.3 14.25 16.45 14.2 16.6 14.15 16.75 14.15 16.9 14.1 17.05 14.05 17.15 14.0 17.3 13.9 17.35 13.85 17.45 13.8 17.5 13.7 17.55 13.65 17.55 L13.4 17.55 13.4 18.7 16.65 18.7 16.65 17.55 16.4 17.55 Q16.35 17.55 16.25 17.5 16.2 17.45 16.15 17.35 16.1 17.3 16.05 17.15 16.0 17.05 15.95 16.9 15.9 16.75 15.9 16.6 15.85 16.45 15.85 16.25 15.8 16.1 15.8 15.95 15.8 15.75 15.8 15.6 L15.8 7.3 15.2 7.3 Q15.3 7.2 14.95 7.5 14.8 7.6 14.7 7.65 14.6 7.75 14.5 7.8 14.4 7.85 14.3 7.95 14.2 8.0 14.1 8.0 14.0 8.05 13.85 8.1 13.75 8.1 13.6 8.15 13.45 8.15 13.3 8.15 L13.25 8.15" fill="#f1edf8" fill-rule="evenodd" stroke="none"/>
      <path d="M16.95 8.15 Q16.8 8.15 16.65 8.2 16.55 8.25 16.5 8.35 16.45 8.45 16.45 8.55 16.45 8.65 16.45 8.8 16.5 8.9 16.5 9.05 16.55 9.15 16.6 9.25 16.65 9.35 16.65 9.4 16.7 9.45 16.7 9.45 16.7 9.4 16.7 9.35 16.75 9.3 16.8 9.25 16.85 9.2 16.9 9.15 16.95 9.15 17.0 9.15 17.05 9.1 17.1 9.1 17.15 9.1 17.2 9.1 17.25 9.1 17.25 9.05 17.3 9.05 17.3 9.05 17.4 9.05 17.5 9.1 17.6 9.1 17.65 9.15 17.7 9.2 17.75 9.25 17.8 9.35 17.85 9.4 17.9 9.5 17.9 9.6 17.95 9.75 17.95 9.85 17.95 10.0 17.95 10.15 17.95 10.3 17.95 10.5 L17.95 15.6 Q17.95 15.75 17.95 15.95 17.95 16.1 17.9 16.3 17.9 16.45 17.85 16.6 17.85 16.75 17.8 16.9 17.75 17.05 17.7 17.15 17.65 17.3 17.6 17.35 17.55 17.45 17.45 17.5 17.4 17.55 17.3 17.55 L17.05 17.55 17.05 18.7 20.35 18.7 20.35 17.55 20.1 17.55 Q20.05 17.55 19.95 17.5 19.9 17.45 19.85 17.35 19.75 17.3 19.7 17.15 19.65 17.05 19.65 16.9 19.6 16.75 19.55 16.6 19.5 16.45 19.5 16.25 19.5 16.1 19.45 15.95 19.45 15.75 19.45 15.6 L19.45 7.3 18.9 7.3 Q18.85 7.3 18.65 7.5 18.5 7.6 18.4 7.65 18.3 7.75 18.2 7.8 18.1 7.85 18.0 7.95 17.85 8.0 17.75 8.0 17.65 8.05 17.55 8.1 17.4 8.1 17.3 8.15 17.15 8.15 17.0 8.15 L16.95 8.15" fill="#f1edf8" fill-rule="evenodd" stroke="none"/>
    </g>
  </defs>
</svg>
