<?xml version="1.0" encoding="UTF-8" standalone="no"?>
<svg xmlns:ffdec="https://www.free-decompiler.com/flash" xmlns:xlink="http://www.w3.org/1999/xlink" ffdec:objectType="frame" height="26.55px" width="70.8px" xmlns="http://www.w3.org/2000/svg">
  <g transform="matrix(1.0, 0.0, 0.0, 1.0, 0.2, 0.4)">
    <use ffdec:characterId="3" height="26.0" transform="matrix(1.0, 0.0, 0.0, 1.0, 0.0, 0.0)" width="26.0" xlink:href="#shape0"/>
    <use ffdec:characterId="18" height="26.0" transform="matrix(1.0, 0.0, 0.0, 1.0, 0.0, 0.0)" width="26.0" xlink:href="#shape1"/>
    <use ffdec:characterId="18" height="26.0" transform="matrix(1.0, 0.0, 0.0, 1.0, 0.0, 0.0)" width="26.0" xlink:href="#shape1"/>
    <use ffdec:characterId="19" height="26.0" transform="matrix(1.0, 0.0, 0.0, 1.0, 0.0, 0.0)" width="26.0" xlink:href="#shape2"/>
    <use ffdec:characterId="19" height="26.0" transform="matrix(1.0, 0.0, 0.0, 1.0, 0.0, 0.0)" width="26.0" xlink:href="#shape2"/>
  </g>
  <defs>
    <g id="shape0" transform="matrix(1.0, 0.0, 0.0, 1.0, 0.0, 0.0)">
      <path d="M23.5 2.45 Q23.5 2.5 23.5 2.5 23.5 2.55 23.5 2.55 23.5 2.55 23.5 2.55 23.5 2.6 23.5 2.6 L23.5 4.05 22.85 3.8 23.5 4.5 23.5 5.25 22.95 5.25 23.5 6.45 23.5 7.1 23.3 8.15 23.5 7.8 23.5 9.55 22.85 9.85 23.15 10.05 23.75 9.8 23.75 8.05 23.5 8.4 23.75 7.35 23.75 6.7 23.2 5.5 23.75 5.5 23.75 4.75 23.1 4.05 23.75 4.3 23.75 2.85 Q23.75 2.8 23.75 2.8 23.75 2.7 23.75 2.65 23.75 2.55 23.7 2.55 23.7 2.5 23.65 2.5 23.6 2.5 23.5 2.45 L23.5 2.45 M23.5 10.4 L23.5 22.5 23.5 23.15 Q23.5 23.4 23.5 23.4 23.45 23.5 23.4 23.5 23.35 23.5 23.15 23.5 L22.5 23.5 21.85 23.5 20.95 23.5 21.0 23.75 22.1 23.75 22.75 23.75 23.4 23.75 Q23.65 23.75 23.7 23.75 23.75 23.7 23.75 23.4 L23.75 22.75 23.75 10.55 23.5 10.4 M20.7 22.75 L19.95 23.5 16.1 23.5 15.25 23.05 15.2 23.5 14.15 23.5 13.9 23.5 12.75 23.4 12.05 23.5 10.85 23.5 10.7 23.3 10.2 23.55 9.7 23.5 8.85 23.25 8.4 23.5 7.5 23.5 7.25 23.35 6.45 23.5 5.85 23.5 5.2 23.5 4.55 23.5 3.95 23.45 3.25 23.5 2.85 23.5 Q2.85 23.55 2.85 23.6 2.85 23.65 2.85 23.7 2.8 23.7 2.8 23.75 2.85 23.75 2.85 23.75 2.85 23.75 2.85 23.75 L3.5 23.75 4.2 23.7 4.8 23.75 5.45 23.75 6.05 23.75 6.7 23.75 7.45 23.6 7.75 23.75 8.65 23.75 9.1 23.5 9.9 23.75 10.45 23.8 10.95 23.55 11.1 23.75 12.3 23.75 13.0 23.65 14.1 23.75 14.4 23.75 15.4 23.75 15.5 23.3 16.35 23.75 20.15 23.75 20.75 23.2 20.7 22.75" fill="#ffffff" fill-rule="evenodd" stroke="none"/>
      <path d="M2.6 2.2 L5.95 2.2 6.2 2.65 6.5 2.4 7.75 2.2 13.5 2.2 13.7 2.7 14.15 2.2 15.45 2.2 16.65 2.2 17.15 2.65 17.35 2.2 18.0 2.2 23.15 2.2 Q23.35 2.2 23.4 2.25 23.45 2.25 23.5 2.35 23.5 2.4 23.5 2.55 23.5 2.55 23.5 2.6 L23.5 4.05 22.85 3.8 23.5 4.5 23.5 5.25 22.95 5.25 23.5 6.45 23.5 7.1 23.3 8.15 23.5 7.8 23.5 9.55 22.85 9.85 23.5 10.3 23.5 22.5 23.5 23.15 Q23.5 23.4 23.5 23.4 23.45 23.5 23.4 23.5 23.35 23.5 23.15 23.5 L22.5 23.5 21.85 23.5 20.75 23.5 20.7 22.75 19.95 23.5 16.1 23.5 15.25 23.05 15.2 23.5 14.15 23.5 13.9 23.5 12.75 23.4 12.05 23.5 10.85 23.5 10.7 23.3 10.2 23.55 9.7 23.5 8.85 23.25 8.4 23.5 7.5 23.5 7.25 23.35 6.45 23.5 5.85 23.5 5.2 23.5 4.55 23.5 3.95 23.45 3.25 23.5 2.6 23.5 Q2.6 23.5 2.6 23.5 2.6 23.5 2.6 23.5 2.4 23.5 2.35 23.5 2.3 23.5 2.25 23.45 2.25 23.4 2.25 23.2 2.25 23.2 2.25 23.2 2.25 23.2 2.25 23.2 2.25 23.15 2.25 23.15 L2.25 17.7 3.05 17.5 2.25 16.75 2.25 16.1 2.25 15.45 2.25 14.45 2.65 14.15 2.25 13.9 2.25 10.65 2.65 10.45 2.25 9.9 2.25 9.0 2.25 8.35 2.25 7.7 2.75 7.2 2.25 6.85 2.25 2.6 Q2.25 2.55 2.25 2.55 2.25 2.4 2.25 2.35 2.3 2.25 2.35 2.25 2.4 2.2 2.55 2.2 2.55 2.2 2.6 2.2 2.6 2.2 2.6 2.2 2.6 2.2 2.6 2.2 L2.6 2.2" fill="#000000" fill-rule="evenodd" stroke="none"/>
    </g>
    <g id="shape1" transform="matrix(1.0, 0.0, 0.0, 1.0, 0.0, 0.0)">
      <path d="M6.45 6.8 L6.35 7.35 6.6 7.75 Q6.6 7.75 6.65 7.75 6.7 7.7 6.75 7.7 6.85 7.7 6.95 7.7 7.05 7.7 7.15 7.75 7.25 7.75 7.4 7.8 7.5 7.9 7.6 8.0 7.75 8.1 7.85 8.25 7.95 8.4 8.05 8.65 8.05 8.65 8.05 8.65 8.15 8.45 8.05 8.6 8.1 8.55 8.1 8.5 8.1 8.5 8.1 8.45 8.15 8.4 8.15 8.35 8.15 8.3 8.15 8.3 8.15 8.25 8.15 8.2 8.1 8.15 8.1 8.15 8.1 8.15 8.1 8.1 8.05 8.05 8.05 8.0 8.0 7.9 7.95 7.85 7.9 7.75 7.85 7.65 7.75 7.55 7.7 7.45 7.65 7.35 7.55 7.25 7.5 7.15 7.4 7.05 7.35 7.0 7.25 6.95 7.2 6.9 7.15 6.9 7.1 6.85 7.05 6.85 7.0 6.85 6.9 6.8 6.85 6.8 6.8 6.8 6.75 6.8 6.65 6.8 6.6 6.8 6.55 6.8 6.5 6.8 6.5 6.8 6.45 6.8 6.45 6.8 L6.45 6.8 M5.95 8.55 L6.3 9.0 6.8 9.1 Q6.8 9.1 6.8 9.05 6.85 9.0 6.85 8.95 6.9 8.9 6.95 8.8 7.05 8.75 7.15 8.7 7.2 8.6 7.35 8.55 7.45 8.5 7.6 8.5 7.8 8.45 7.95 8.5 8.15 8.5 8.4 8.6 8.4 8.6 8.4 8.6 8.4 8.6 8.35 8.55 8.35 8.5 8.35 8.45 8.3 8.45 8.3 8.4 8.3 8.35 8.25 8.35 8.25 8.3 8.2 8.25 8.15 8.25 8.15 8.25 8.1 8.2 8.05 8.2 8.05 8.2 8.0 8.2 7.95 8.15 7.9 8.15 7.8 8.15 7.7 8.1 7.6 8.1 7.5 8.1 7.4 8.05 7.25 8.05 7.15 8.05 7.05 8.0 6.9 8.0 6.8 8.0 6.7 8.05 6.6 8.05 6.55 8.05 6.5 8.1 6.45 8.1 6.4 8.15 6.35 8.2 6.3 8.25 6.25 8.25 6.2 8.3 6.15 8.35 6.1 8.4 6.05 8.45 6.05 8.5 6.0 8.5 6.0 8.55 6.0 8.55 5.95 8.55 L5.95 8.55 M7.6 10.2 L8.15 10.0 8.35 9.55 Q8.35 9.55 8.3 9.5 8.3 9.5 8.25 9.4 8.2 9.35 8.15 9.25 8.1 9.15 8.05 9.05 8.0 8.9 8.0 8.8 8.0 8.65 8.05 8.5 8.05 8.3 8.15 8.15 8.25 7.95 8.4 7.75 8.4 7.75 8.4 7.75 8.35 7.75 8.35 7.75 8.3 7.75 8.25 7.8 8.2 7.8 8.2 7.8 8.15 7.8 8.1 7.8 8.05 7.85 8.05 7.85 8.0 7.9 7.95 7.9 7.95 7.95 7.9 7.95 7.9 7.95 7.9 8.0 7.85 8.05 7.85 8.1 7.75 8.25 7.75 8.3 7.7 8.4 7.65 8.5 7.6 8.65 7.55 8.75 7.5 8.85 7.45 9.0 7.4 9.1 7.35 9.2 7.35 9.35 7.35 9.4 7.35 9.45 7.35 9.5 7.35 9.55 7.4 9.65 7.4 9.7 7.4 9.75 7.45 9.8 7.45 9.9 7.5 9.95 7.5 10.0 7.55 10.05 7.55 10.1 7.6 10.15 7.6 10.15 7.6 10.15 7.6 10.2 L7.6 10.2 M9.9 9.2 L9.7 8.65 9.3 8.45 Q9.3 8.45 9.3 8.45 9.25 8.5 9.25 8.5 9.2 8.55 9.15 8.55 9.05 8.6 9.0 8.6 8.9 8.6 8.8 8.6 8.7 8.6 8.55 8.55 8.45 8.5 8.25 8.4 8.1 8.3 7.9 8.15 7.9 8.15 7.9 8.15 7.9 8.2 7.9 8.2 7.9 8.25 7.95 8.3 7.95 8.3 7.95 8.35 7.95 8.4 7.95 8.45 8.0 8.45 8.0 8.5 8.05 8.55 8.05 8.55 8.1 8.6 8.1 8.6 8.1 8.6 8.15 8.65 8.2 8.75 8.2 8.75 8.25 8.8 8.3 8.85 8.4 8.95 8.45 9.05 8.55 9.1 8.6 9.2 8.7 9.25 8.8 9.35 8.9 9.4 8.95 9.45 9.05 9.5 9.15 9.5 9.55 9.35 9.9 9.2 L9.9 9.2 M9.95 7.2 L9.5 6.9 9.05 7.05 Q9.05 7.05 9.05 7.1 9.05 7.15 9.05 7.2 9.05 7.3 9.0 7.35 8.95 7.45 8.9 7.55 8.85 7.65 8.75 7.75 8.65 7.85 8.55 7.9 8.4 8.0 8.2 8.05 8.05 8.1 7.8 8.15 7.8 8.15 7.8 8.15 7.8 8.15 7.85 8.2 7.85 8.2 7.9 8.2 7.9 8.25 7.95 8.25 8.0 8.3 8.0 8.3 8.05 8.35 8.1 8.35 8.15 8.35 8.15 8.35 8.2 8.35 8.25 8.35 8.25 8.35 8.3 8.35 8.35 8.35 8.4 8.3 8.5 8.3 8.6 8.3 8.7 8.25 8.8 8.25 8.9 8.2 9.0 8.2 9.15 8.15 9.25 8.1 9.35 8.05 9.45 8.0 9.55 7.95 9.6 7.9 9.65 7.9 9.7 7.85 9.7 7.8 9.75 7.75 9.8 7.7 9.8 7.6 9.85 7.55 9.85 7.5 9.9 7.45 9.9 7.4 9.95 7.35 9.95 7.3 9.95 7.25 9.95 7.2 9.95 7.2 9.95 7.2 L9.95 7.2 M8.45 6.05 L7.9 6.3 7.7 6.7 Q7.7 6.7 7.75 6.75 7.8 6.75 7.8 6.8 7.85 6.9 7.9 6.95 7.95 7.05 8.0 7.15 8.05 7.25 8.05 7.35 8.05 7.5 8.05 7.65 8.0 7.8 7.95 8.0 7.85 8.2 7.7 8.4 7.7 8.4 7.75 8.4 7.75 8.4 7.8 8.35 7.85 8.35 7.85 8.35 7.9 8.3 7.95 8.3 8.0 8.25 8.05 8.25 8.1 8.2 8.15 8.15 8.2 8.15 8.25 8.1 8.25 8.05 8.3 8.05 8.3 8.05 8.3 8.0 8.35 8.0 8.35 7.9 8.4 7.8 8.45 7.75 8.5 7.7 8.55 7.6 8.6 7.5 8.6 7.4 8.65 7.3 8.7 7.2 8.75 7.1 8.75 7.0 8.8 6.85 8.8 6.8 8.6 6.4 8.45 6.05 L8.45 6.05" fill="#f1edf8" fill-rule="evenodd" stroke="none"/>
    </g>
    <g id="shape2" transform="matrix(1.0, 0.0, 0.0, 1.0, 0.0, 0.0)">
      <path d="M14.35 14.35 Q14.25 14.4 14.2 14.4 14.1 14.45 14.05 14.5 14.0 14.55 13.9 14.55 13.85 14.6 13.8 14.65 13.7 14.7 13.65 14.7 13.6 14.75 13.55 14.8 13.5 14.85 13.4 14.85 13.35 14.9 13.3 14.95 13.1 15.1 12.95 15.25 12.75 15.4 12.6 15.6 12.45 15.75 12.35 15.95 12.2 16.15 12.1 16.35 12.0 16.55 11.95 16.75 11.85 16.95 11.8 17.15 11.75 17.35 11.7 17.6 11.7 17.8 11.7 18.0 11.7 18.2 11.75 18.4 11.75 18.65 11.85 18.8 11.9 19.0 12.0 19.2 12.1 19.4 12.2 19.55 12.3 19.75 12.45 19.9 12.6 20.05 12.75 20.2 12.9 20.35 13.1 20.5 13.3 20.65 13.45 20.8 13.6 20.9 13.8 21.0 13.95 21.1 14.15 21.2 14.35 21.25 14.55 21.35 14.7 21.4 14.9 21.45 15.1 21.5 15.3 21.55 15.5 21.6 15.7 21.65 15.95 21.65 16.15 21.65 16.35 21.7 16.6 21.7 16.85 21.7 17.05 21.7 17.3 21.65 17.5 21.65 17.75 21.6 17.95 21.55 18.15 21.5 18.35 21.45 18.55 21.4 18.75 21.3 18.95 21.2 19.1 21.15 19.3 21.05 19.45 20.95 19.65 20.8 19.8 20.7 20.0 20.55 20.15 20.4 20.3 20.25 20.45 20.1 20.55 19.95 20.7 19.75 20.8 19.6 20.9 19.4 21.0 19.25 21.05 19.05 21.1 18.85 21.15 18.65 21.2 18.45 21.2 18.2 21.25 18.0 21.25 17.75 21.25 17.45 21.2 17.15 21.2 16.85 21.1 16.6 21.05 16.35 20.95 16.15 20.8 15.9 20.65 15.7 20.5 15.45 20.35 15.25 20.15 15.05 19.9 14.9 19.65 14.7 19.35 14.5 19.05 14.35 18.7 14.15 19.05 14.0 19.3 13.85 19.55 13.7 19.8 13.55 20.0 13.35 20.15 13.2 20.35 13.0 20.45 12.8 20.55 12.65 20.65 12.4 20.75 12.25 20.8 12.0 20.85 11.8 20.85 11.55 20.85 11.35 20.85 11.1 20.85 10.9 20.85 10.7 20.8 10.55 20.75 10.35 20.75 10.2 20.65 10.0 20.6 9.85 20.5 9.7 20.45 9.55 20.35 9.4 20.2 9.25 20.1 9.1 19.95 8.95 19.8 8.85 19.65 8.7 19.45 8.6 19.3 8.5 19.15 8.4 19.0 8.3 18.8 8.2 18.65 8.15 18.5 8.05 18.3 8.0 18.15 7.95 17.95 7.9 17.8 7.85 17.6 7.8 17.4 7.8 17.2 7.75 17.05 7.75 16.85 7.75 16.65 7.75 16.45 7.75 16.2 7.75 16.0 7.75 15.8 7.8 15.6 7.85 15.4 7.85 15.25 7.9 15.05 8.0 14.85 8.05 14.65 8.1 14.5 8.2 14.3 8.25 14.15 8.35 14.0 8.45 13.8 8.55 13.65 8.7 13.45 8.85 13.3 8.95 13.15 9.1 13.05 9.25 12.9 9.4 12.8 9.55 12.7 9.75 12.6 9.9 12.5 10.05 12.45 10.25 12.4 10.4 12.35 10.6 12.3 10.8 12.25 11.0 12.25 11.15 12.25 11.4 12.25 11.5 12.25 11.65 12.3 11.75 12.3 11.85 12.35 12.0 12.35 12.1 12.4 12.2 12.45 12.3 12.5 12.4 12.55 12.5 12.6 12.65 12.65 12.75 12.7 12.85 12.8 12.95 12.85 13.05 12.9 13.1 12.95 13.2 13.0 13.25 13.1 13.3 13.15 13.4 13.2 13.45 13.25 13.5 13.35 13.6 13.4 13.65 13.5 13.7 13.55 13.8 13.65 13.85 13.8 13.95 13.9 14.05 14.05 14.15 14.15 14.25 14.35 14.35 L14.35 14.35 M16.1 15.05 L17.4 15.6 Q17.7 15.75 17.9 15.85 18.1 15.95 18.3 16.05 18.45 16.15 18.6 16.25 18.75 16.35 18.85 16.45 18.95 16.55 19.05 16.65 19.1 16.75 19.15 16.85 19.2 16.95 19.2 17.1 19.25 17.25 19.25 17.4 19.25 17.5 19.25 17.6 19.25 17.7 19.25 17.8 19.2 17.95 19.2 18.05 19.15 18.2 19.15 18.3 19.1 18.45 19.05 18.55 19.0 18.7 18.95 18.8 18.9 18.9 18.85 19.0 18.75 19.1 18.65 19.15 18.55 19.2 18.45 19.3 18.35 19.35 18.25 19.4 18.15 19.45 18.05 19.5 17.95 19.5 17.85 19.55 17.8 19.6 17.7 19.6 17.6 19.65 17.45 19.65 17.35 19.65 17.25 19.7 17.15 19.7 17.0 19.7 16.8 19.75 16.6 19.75 16.4 19.75 16.2 19.7 16.05 19.7 15.85 19.65 15.7 19.65 15.55 19.6 15.4 19.55 15.25 19.45 15.15 19.4 15.0 19.35 14.9 19.25 14.8 19.2 14.7 19.1 14.6 19.0 14.5 18.9 14.4 18.85 14.35 18.75 14.25 18.65 14.2 18.55 14.1 18.5 14.05 18.4 14.0 18.3 13.95 18.2 13.95 18.1 13.9 18.0 13.85 17.9 13.85 17.8 13.85 17.65 13.8 17.55 13.8 17.4 13.8 17.25 13.85 17.1 13.9 16.95 14.0 16.8 14.1 16.65 14.2 16.5 14.35 16.3 14.5 16.15 14.65 16.0 14.85 15.85 15.05 15.7 15.25 15.55 15.45 15.4 15.65 15.25 15.85 15.15 16.1 15.05 L16.1 15.05 M17.1 13.35 L16.9 13.25 Q16.5 13.1 15.1 12.25 15.0 12.15 14.9 12.1 14.8 12.0 14.7 11.95 14.6 11.85 14.55 11.8 14.45 11.7 14.4 11.6 14.35 11.55 14.3 11.45 14.25 11.4 14.25 11.3 14.2 11.25 14.2 11.15 14.2 11.05 14.2 11.0 14.2 10.95 14.2 10.9 14.2 10.85 14.25 10.8 14.25 10.7 14.25 10.65 14.3 10.6 14.35 10.5 14.4 10.45 14.45 10.35 14.5 10.3 14.55 10.2 14.6 10.15 14.7 10.1 14.75 10.0 14.85 9.95 14.9 9.9 15.0 9.85 15.1 9.8 15.2 9.75 15.3 9.7 15.4 9.65 15.5 9.6 15.6 9.6 15.75 9.55 15.85 9.5 15.95 9.5 16.05 9.45 16.2 9.45 16.3 9.45 16.4 9.45 16.5 9.45 16.6 9.45 16.75 9.45 16.9 9.45 17.0 9.5 17.15 9.5 17.3 9.55 17.45 9.6 17.55 9.65 17.7 9.65 17.8 9.75 17.95 9.8 18.05 9.85 18.15 9.9 18.25 9.95 18.35 10.05 18.45 10.1 18.55 10.2 18.6 10.25 18.7 10.35 18.75 10.4 18.8 10.45 18.85 10.55 18.95 10.6 18.95 10.7 19.0 10.75 19.05 10.85 19.1 10.95 19.1 11.0 19.1 11.1 19.15 11.2 19.15 11.35 19.15 11.45 19.15 11.55 19.1 11.65 19.05 11.75 18.95 11.9 18.9 12.0 18.75 12.15 18.65 12.25 18.5 12.4 18.35 12.55 18.2 12.65 18.05 12.8 17.85 12.95 17.65 13.05 17.5 13.15 17.3 13.25 17.1 13.35 L17.1 13.35" fill="#f1edf8" fill-rule="evenodd" stroke="none"/>
    </g>
  </defs>
</svg>
