<?xml version="1.0" encoding="UTF-8" standalone="no"?>
<svg xmlns:ffdec="https://www.free-decompiler.com/flash" xmlns:xlink="http://www.w3.org/1999/xlink" ffdec:objectType="frame" height="26.05px" width="52.95px" xmlns="http://www.w3.org/2000/svg">
  <g transform="matrix(1.0, 0.0, 0.0, 1.0, 0.0, 0.0)">
    <use ffdec:characterId="27" height="26.0" transform="matrix(1.0, 0.0, 0.0, 1.0, 0.0, 0.0)" width="41.75" xlink:href="#shape0"/>
    <use ffdec:characterId="112" height="12.95" transform="matrix(1.0, 0.0, 0.0, 1.0, 7.75, 7.15)" width="27.85" xlink:href="#shape1"/>
    <use ffdec:characterId="245" height="26.0" transform="matrix(1.0, 0.0, 0.0, 1.0, 0.0, 0.0)" width="41.75" xlink:href="#shape2"/>
  </g>
  <defs>
    <g id="shape0" transform="matrix(1.0, 0.0, 0.0, 1.0, 0.0, 0.0)">
      <path d="M41.75 19.4 Q41.75 22.15 39.8 24.05 37.9 26.0 35.15 26.0 L6.55 26.0 Q3.9 26.0 1.95 24.05 0.0 22.15 0.0 19.4 L0.0 6.6 Q0.0 3.9 1.95 1.95 3.9 0.0 6.55 0.0 L35.15 0.0 Q37.9 0.0 39.8 1.95 41.75 3.9 41.75 6.6 L41.75 19.4 M40.45 6.6 Q40.45 4.4 38.9 2.8 37.3 1.3 35.15 1.3 L6.55 1.3 Q4.4 1.3 2.8 2.8 1.3 4.4 1.3 6.6 L1.3 19.4 Q1.3 21.55 2.8 23.15 4.4 24.7 6.55 24.7 L35.15 24.7 Q37.3 24.7 38.9 23.15 40.45 21.55 40.45 19.4 L40.45 6.6" fill="#000000" fill-opacity="0.0" fill-rule="evenodd" stroke="none"/>
      <path d="M35.15 2.9 L6.55 2.9 Q5.1 2.9 3.95 4.0 2.9 5.1 2.9 6.6 L2.9 19.4 Q2.9 20.9 3.95 22.0 5.1 23.05 6.55 23.05 L35.15 23.05 Q36.65 23.05 37.7 22.0 38.8 20.9 38.8 19.4 L38.8 6.6 Q38.8 5.1 37.75 4.0 36.65 2.9 35.15 2.9 M38.9 2.8 Q40.45 4.4 40.45 6.6 L40.45 19.4 Q40.45 21.55 38.9 23.15 37.3 24.7 35.15 24.7 L6.55 24.7 Q4.4 24.7 2.8 23.15 1.3 21.55 1.3 19.4 L1.3 6.6 Q1.3 4.4 2.8 2.8 4.4 1.3 6.55 1.3 L35.15 1.3 Q37.3 1.3 38.9 2.8" fill="#a6a8ab" fill-opacity="0.0" fill-rule="evenodd" stroke="none"/>
      <path d="M38.85 6.6 L38.85 19.4 Q38.85 20.9 37.7 22.0 36.65 23.1 35.15 23.1 L6.6 23.1 Q5.1 23.1 4.0 22.0 2.9 20.9 2.9 19.4 L2.9 6.6 Q2.9 5.1 4.0 4.0 5.1 2.95 6.6 2.95 L35.15 2.95 Q36.65 2.95 37.75 4.0 38.85 5.1 38.85 6.6" fill="#000000" fill-opacity="0.0" fill-rule="evenodd" stroke="none"/>
    </g>
    <g id="shape1" transform="matrix(1.0, 0.0, 0.0, 1.0, 0.0, 0.0)">
      <path d="M1.7 5.0 L4.25 5.0 4.25 0.0 5.95 0.0 5.95 12.8 4.25 12.8 4.25 6.45 1.7 6.45 1.7 12.8 0.0 12.8 0.0 0.0 1.7 0.0 1.7 5.0 M10.85 8.55 L10.85 7.8 10.8 6.8 10.5 5.9 Q10.25 5.55 9.8 5.55 9.35 5.55 9.1 5.9 L8.8 6.8 8.7 7.8 8.75 8.55 8.7 9.25 8.8 10.25 9.1 11.1 Q9.35 11.45 9.8 11.5 10.25 11.45 10.5 11.1 L10.8 10.25 10.85 9.25 10.85 8.55 M11.25 4.5 L12.05 5.6 12.4 7.05 12.5 8.55 12.4 10.0 12.05 11.4 11.25 12.5 Q10.7 12.9 9.8 12.95 8.9 12.9 8.35 12.5 L7.5 11.4 7.15 10.0 7.1 8.55 7.15 7.05 7.5 5.6 8.35 4.5 Q8.9 4.1 9.8 4.1 10.7 4.1 11.25 4.5 M25.25 5.5 Q24.9 5.5 24.7 5.75 L24.4 6.35 24.35 7.05 24.35 7.7 26.25 7.7 26.2 7.05 26.1 6.35 25.8 5.75 Q25.6 5.5 25.25 5.5 M21.7 5.1 L21.85 6.15 21.85 12.8 20.25 12.8 20.25 6.8 20.1 5.9 Q19.95 5.5 19.4 5.5 18.85 5.5 18.6 5.8 L18.4 6.5 18.35 7.35 18.35 12.8 16.75 12.8 16.75 6.95 16.75 6.3 16.5 5.75 Q16.3 5.5 15.85 5.5 15.35 5.5 15.15 5.8 14.95 6.1 14.9 6.55 L14.9 7.35 14.9 12.8 13.3 12.8 13.3 4.2 14.9 4.2 14.9 5.25 14.95 5.25 15.6 4.4 Q16.0 4.1 16.6 4.1 17.2 4.1 17.6 4.4 18.05 4.7 18.15 5.25 L18.2 5.25 18.9 4.4 Q19.3 4.1 19.95 4.1 L21.1 4.35 21.7 5.1 M26.65 4.55 Q27.15 4.95 27.45 5.65 L27.8 7.1 27.85 8.55 27.85 8.8 24.35 8.8 24.35 9.55 24.45 10.45 24.75 11.2 Q24.95 11.5 25.35 11.5 L25.95 11.25 26.25 10.65 26.35 9.9 27.8 9.9 27.55 11.4 26.75 12.5 Q26.2 12.9 25.3 12.95 24.4 12.9 23.9 12.5 23.35 12.1 23.1 11.45 L22.75 10.0 22.7 8.55 22.75 7.15 Q22.85 6.35 23.1 5.65 23.35 4.95 23.85 4.55 24.4 4.1 25.25 4.1 26.15 4.1 26.65 4.55" fill="#000000" fill-opacity="0.0" fill-rule="evenodd" stroke="none"/>
    </g>
    <g id="shape2" transform="matrix(1.0, 0.0, 0.0, 1.0, 0.0, 0.0)">
      <path d="M4.0 3.0 Q3.9 3.0 3.8 3.0 3.7 3.05 3.6 3.1 3.5 3.1 3.45 3.15 3.35 3.2 3.3 3.3 3.2 3.35 3.15 3.45 3.1 3.5 3.1 3.6 3.05 3.7 3.0 3.8 3.0 3.9 3.0 4.0 L3.0 22.0 Q3.0 22.1 3.0 22.2 3.05 22.3 3.1 22.4 3.1 22.5 3.15 22.55 3.2 22.65 3.3 22.7 3.35 22.8 3.45 22.85 3.5 22.9 3.6 22.9 3.7 22.95 3.8 23.0 3.9 23.0 4.0 23.0 L37.75 23.0 Q37.85 23.0 37.95 23.0 38.05 22.95 38.15 22.9 38.25 22.9 38.3 22.85 38.4 22.8 38.45 22.7 38.55 22.65 38.6 22.55 38.65 22.5 38.65 22.4 38.7 22.3 38.75 22.2 38.75 22.1 38.75 22.0 L38.75 4.0 Q38.75 3.9 38.75 3.8 38.7 3.7 38.65 3.6 38.65 3.5 38.6 3.45 38.55 3.35 38.45 3.3 38.4 3.2 38.3 3.15 38.25 3.1 38.15 3.1 38.05 3.05 37.95 3.0 37.85 3.0 37.75 3.0 L4.0 3.0 4.0 3.0 M4.95 8.5 L6.0 8.5 6.0 11.95 10.8 11.95 10.8 8.5 11.9 8.5 11.9 17.5 10.8 17.5 10.8 13.0 6.0 13.0 6.0 17.5 4.95 17.5 4.95 8.5 4.95 8.5 M34.1 11.65 Q34.25 11.65 34.4 11.65 34.55 11.7 34.7 11.7 34.85 11.75 34.95 11.75 35.1 11.8 35.2 11.85 35.35 11.9 35.45 11.95 35.55 12.05 35.7 12.1 35.8 12.2 35.9 12.25 36.0 12.35 36.05 12.45 36.15 12.55 36.25 12.65 36.3 12.75 36.4 12.9 36.45 13.0 36.5 13.15 36.55 13.25 36.6 13.4 36.65 13.55 36.7 13.7 36.75 13.85 36.75 14.0 36.8 14.15 36.8 14.3 36.8 14.45 36.8 14.65 L36.8 14.85 32.35 14.85 32.35 14.9 Q32.35 15.0 32.35 15.15 32.35 15.25 32.4 15.35 32.4 15.45 32.4 15.55 32.45 15.65 32.5 15.75 32.5 15.85 32.55 15.9 32.6 16.0 32.65 16.1 32.7 16.15 32.75 16.25 32.8 16.3 32.85 16.4 32.9 16.45 33.0 16.5 33.05 16.6 33.15 16.65 33.2 16.7 33.3 16.7 33.35 16.75 33.45 16.8 33.55 16.85 33.65 16.85 33.7 16.9 33.8 16.9 33.9 16.9 34.0 16.95 34.1 16.95 34.2 16.95 34.25 16.95 34.35 16.95 34.4 16.95 34.5 16.9 34.55 16.9 34.6 16.9 34.7 16.9 34.75 16.85 34.8 16.85 34.85 16.8 34.95 16.8 35.0 16.75 35.05 16.75 35.1 16.7 35.15 16.65 35.25 16.65 35.3 16.6 35.35 16.55 35.4 16.5 35.45 16.45 35.5 16.4 35.55 16.35 35.6 16.3 35.65 16.25 35.7 16.2 35.75 16.15 35.8 16.05 35.85 16.0 35.9 15.95 35.95 15.85 36.0 15.8 36.05 15.7 L36.75 16.2 Q36.7 16.3 36.65 16.4 36.6 16.5 36.55 16.55 36.45 16.65 36.4 16.7 36.35 16.8 36.3 16.85 36.2 16.95 36.15 17.0 36.05 17.05 36.0 17.15 35.9 17.2 35.85 17.25 35.75 17.3 35.7 17.35 35.6 17.4 35.55 17.45 35.45 17.5 35.35 17.5 35.25 17.55 35.15 17.6 35.05 17.6 35.0 17.65 34.9 17.65 34.8 17.7 34.7 17.7 34.6 17.7 34.5 17.75 34.35 17.75 34.25 17.75 34.15 17.75 34.0 17.75 33.85 17.75 33.7 17.7 33.55 17.7 33.4 17.65 33.25 17.6 33.15 17.6 33.0 17.55 32.85 17.5 32.75 17.4 32.6 17.35 32.5 17.25 32.4 17.2 32.3 17.1 32.2 17.0 32.1 16.9 32.0 16.8 31.9 16.7 31.8 16.55 31.75 16.45 31.65 16.3 31.6 16.2 31.55 16.05 31.5 15.9 31.45 15.75 31.4 15.6 31.35 15.5 31.35 15.3 31.3 15.15 31.3 15.0 31.3 14.85 31.3 14.65 31.3 14.5 31.3 14.35 31.3 14.2 31.35 14.05 31.35 13.9 31.4 13.75 31.45 13.6 31.5 13.45 31.55 13.35 31.6 13.2 31.65 13.05 31.75 12.95 31.8 12.85 31.9 12.7 32.0 12.6 32.1 12.5 32.2 12.4 32.3 12.3 32.4 12.2 32.5 12.15 32.6 12.05 32.75 12.0 32.85 11.9 33.0 11.85 33.1 11.8 33.25 11.8 33.35 11.75 33.5 11.7 33.65 11.7 33.8 11.65 33.95 11.65 34.1 11.65 L34.1 11.65 M16.55 11.65 Q16.65 11.65 16.7 11.65 16.8 11.65 16.85 11.7 16.95 11.7 17.0 11.7 17.05 11.7 17.15 11.75 17.2 11.75 17.3 11.75 17.35 11.8 17.45 11.8 17.5 11.8 17.55 11.85 17.65 11.85 17.7 11.9 17.75 11.95 17.85 11.95 17.9 12.0 18.0 12.05 18.05 12.05 18.1 12.1 18.15 12.15 18.25 12.2 18.3 12.2 18.35 12.25 18.4 12.3 18.5 12.35 18.55 12.4 18.6 12.45 18.65 12.5 18.7 12.55 18.75 12.6 18.8 12.65 18.85 12.7 18.9 12.8 18.95 12.85 19.0 12.9 19.05 12.95 19.1 13.0 19.15 13.1 19.15 13.15 19.2 13.2 19.25 13.25 19.3 13.35 19.3 13.4 19.35 13.45 19.4 13.55 19.4 13.6 19.45 13.7 19.45 13.75 19.5 13.8 19.5 13.9 19.5 13.95 19.55 14.05 19.55 14.1 19.55 14.2 19.55 14.25 19.6 14.35 19.6 14.4 19.6 14.5 19.6 14.55 19.6 14.65 19.6 14.7 19.6 14.8 19.6 14.85 19.6 14.95 19.6 15.0 19.6 15.1 19.55 15.15 19.55 15.25 19.55 15.3 19.55 15.35 19.5 15.45 19.5 15.5 19.45 15.6 19.45 15.65 19.45 15.75 19.4 15.8 19.35 15.85 19.35 15.9 19.3 16.0 19.25 16.05 19.25 16.1 19.2 16.2 19.15 16.25 19.15 16.3 19.1 16.35 19.05 16.45 19.0 16.5 18.95 16.55 18.9 16.6 18.85 16.65 18.8 16.7 18.75 16.8 18.7 16.85 18.65 16.9 18.6 16.95 18.55 17.0 18.5 17.05 18.4 17.1 18.35 17.15 18.3 17.2 18.25 17.2 18.15 17.25 18.1 17.3 18.05 17.35 18.0 17.4 17.9 17.4 17.85 17.45 17.75 17.5 17.7 17.5 17.65 17.55 17.55 17.55 17.5 17.6 17.4 17.6 17.35 17.65 17.3 17.65 17.2 17.65 17.15 17.7 17.05 17.7 17.0 17.7 16.9 17.7 16.85 17.75 16.75 17.75 16.7 17.75 16.6 17.75 16.55 17.75 16.45 17.75 16.4 17.75 16.3 17.75 16.25 17.75 16.15 17.7 16.1 17.7 16.0 17.7 15.95 17.7 15.85 17.65 15.8 17.65 15.7 17.65 15.65 17.6 15.6 17.6 15.5 17.55 15.45 17.55 15.35 17.5 15.3 17.45 15.2 17.45 15.15 17.4 15.1 17.4 15.05 17.35 14.95 17.3 14.9 17.25 14.85 17.25 14.8 17.2 14.7 17.15 14.65 17.1 14.6 17.05 14.55 17.0 14.5 16.95 14.45 16.9 14.4 16.85 14.35 16.8 14.3 16.75 14.25 16.7 14.2 16.6 14.15 16.55 14.1 16.5 14.05 16.45 14.0 16.4 13.95 16.3 13.9 16.25 13.9 16.2 13.85 16.15 13.8 16.05 13.75 16.0 13.75 15.95 13.7 15.85 13.65 15.8 13.65 15.7 13.65 15.65 13.6 15.6 13.6 15.5 13.55 15.45 13.55 15.35 13.55 15.3 13.55 15.25 13.5 15.15 13.5 15.1 13.5 15.0 13.5 14.95 13.5 14.85 13.5 14.8 13.5 14.7 13.5 14.6 13.5 14.55 13.5 14.45 13.5 14.4 13.5 14.3 13.5 14.25 13.55 14.15 13.55 14.1 13.55 14.05 13.6 13.95 13.6 13.9 13.6 13.8 13.65 13.75 13.65 13.65 13.7 13.6 13.7 13.55 13.75 13.5 13.75 13.4 13.8 13.35 13.85 13.25 13.85 13.2 13.9 13.15 13.95 13.1 14.0 13.0 14.05 12.95 14.1 12.9 14.1 12.85 14.15 12.75 14.2 12.7 14.25 12.65 14.3 12.6 14.4 12.55 14.45 12.5 14.5 12.45 14.55 12.4 14.6 12.35 14.65 12.3 14.75 12.25 14.8 12.2 14.85 12.15 14.9 12.15 14.95 12.1 15.05 12.05 15.1 12.0 15.15 12.0 15.25 11.95 15.3 11.95 15.35 11.9 15.4 11.85 15.5 11.85 15.55 11.8 15.65 11.8 15.7 11.8 15.8 11.75 15.85 11.75 15.95 11.75 16.0 11.7 16.1 11.7 16.15 11.7 16.25 11.7 16.3 11.7 16.4 11.7 16.45 11.65 16.55 11.65 L16.55 11.65 M24.0 11.65 Q24.1 11.65 24.15 11.65 24.25 11.65 24.35 11.7 24.4 11.7 24.5 11.7 24.55 11.7 24.65 11.75 24.7 11.75 24.75 11.8 24.85 11.8 24.9 11.85 24.95 11.85 25.05 11.9 25.1 11.95 25.15 11.95 25.2 12.0 25.25 12.05 25.35 12.05 25.4 12.1 25.45 12.15 25.5 12.2 25.55 12.25 25.6 12.3 25.65 12.4 25.65 12.45 25.7 12.5 25.75 12.55 25.8 12.6 25.8 12.7 25.85 12.75 25.9 12.8 25.95 12.75 26.0 12.65 26.05 12.6 26.1 12.55 26.15 12.5 26.2 12.4 26.25 12.35 26.3 12.3 26.35 12.25 26.4 12.2 26.45 12.15 26.5 12.1 26.55 12.05 26.6 12.05 26.7 12.0 26.75 11.95 26.8 11.9 26.85 11.9 26.95 11.85 27.0 11.85 27.05 11.8 27.15 11.8 27.2 11.75 27.3 11.75 27.35 11.7 27.4 11.7 27.5 11.7 27.55 11.7 27.65 11.7 27.75 11.7 27.8 11.65 27.9 11.65 28.0 11.65 28.15 11.65 28.25 11.7 28.35 11.7 28.45 11.7 28.55 11.75 28.65 11.75 28.75 11.8 28.8 11.85 28.9 11.9 29.0 11.9 29.05 11.95 29.15 12.0 29.2 12.1 29.3 12.15 29.35 12.2 29.4 12.25 29.5 12.35 29.55 12.4 29.6 12.5 29.65 12.55 29.7 12.65 29.7 12.75 29.75 12.85 29.8 12.9 29.8 13.0 29.85 13.1 29.85 13.25 29.85 13.35 29.9 13.45 29.9 13.55 29.9 13.65 L29.9 17.5 28.95 17.5 28.95 14.2 Q28.95 14.1 28.95 14.0 28.95 13.9 28.9 13.8 28.9 13.7 28.9 13.6 28.85 13.5 28.85 13.45 28.85 13.35 28.8 13.3 28.75 13.2 28.75 13.15 28.7 13.1 28.65 13.05 28.65 12.95 28.6 12.9 28.55 12.85 28.5 12.8 28.45 12.75 28.4 12.75 28.35 12.7 28.3 12.65 28.2 12.65 28.15 12.6 28.1 12.6 28.0 12.55 27.95 12.55 27.85 12.55 27.8 12.5 27.7 12.5 27.6 12.5 27.55 12.5 27.5 12.5 27.45 12.5 27.4 12.5 27.35 12.5 27.3 12.5 27.25 12.5 27.2 12.55 27.15 12.55 27.1 12.55 27.05 12.55 27.05 12.6 27.0 12.6 26.95 12.6 26.9 12.6 26.85 12.65 26.8 12.65 26.75 12.65 26.7 12.7 26.7 12.7 26.65 12.75 26.6 12.75 26.6 12.8 26.55 12.8 26.5 12.85 26.5 12.9 26.45 12.9 26.4 12.95 26.4 12.95 26.35 13.0 26.3 13.05 26.3 13.05 26.25 13.1 26.25 13.15 26.2 13.15 26.2 13.2 26.2 13.2 26.15 13.25 26.15 13.3 26.15 13.3 26.1 13.35 26.1 13.4 26.1 13.4 26.05 13.45 26.05 13.5 26.05 13.5 26.05 13.55 26.05 13.6 26.0 13.6 26.0 13.8 25.95 14.0 25.95 14.25 25.95 14.6 L25.95 17.5 25.0 17.5 25.0 14.2 Q25.0 14.1 25.0 14.0 25.0 13.9 25.0 13.8 25.0 13.7 24.95 13.6 24.95 13.5 24.95 13.45 24.9 13.35 24.9 13.3 24.85 13.2 24.8 13.15 24.8 13.1 24.75 13.05 24.7 12.95 24.65 12.9 24.6 12.85 24.55 12.8 24.5 12.75 24.45 12.75 24.4 12.7 24.35 12.65 24.3 12.65 24.25 12.6 24.15 12.6 24.1 12.55 24.05 12.55 23.95 12.55 23.85 12.5 23.8 12.5 23.7 12.5 23.6 12.5 23.55 12.5 23.45 12.5 23.4 12.5 23.3 12.55 23.25 12.55 23.15 12.55 23.1 12.6 23.05 12.6 22.95 12.65 22.9 12.65 22.85 12.65 22.8 12.7 22.75 12.7 22.75 12.75 22.7 12.75 22.65 12.8 22.6 12.8 22.6 12.85 22.55 12.9 22.5 12.9 22.5 12.95 22.45 12.95 22.4 13.0 22.4 13.05 22.35 13.05 22.35 13.1 22.35 13.15 22.3 13.15 22.3 13.2 22.25 13.2 22.25 13.25 22.25 13.25 22.2 13.3 22.2 13.35 22.2 13.35 22.15 13.4 22.15 13.45 22.15 13.45 22.15 13.5 22.1 13.55 22.1 13.55 22.1 13.6 22.1 13.65 22.1 13.7 22.1 13.7 22.05 13.75 22.05 13.8 22.05 13.85 22.05 13.95 22.05 14.0 22.05 14.05 22.05 14.1 22.05 14.2 22.05 14.25 22.05 14.35 22.05 14.4 22.05 14.5 22.05 14.6 L22.05 17.5 21.1 17.5 21.1 11.9 22.05 11.9 22.05 12.75 Q22.1 12.7 22.15 12.6 22.2 12.55 22.25 12.5 22.3 12.45 22.35 12.4 22.4 12.3 22.45 12.25 22.5 12.2 22.55 12.15 22.6 12.15 22.65 12.1 22.7 12.05 22.75 12.0 22.8 11.95 22.9 11.95 22.95 11.9 23.0 11.9 23.1 11.85 23.15 11.85 23.2 11.8 23.25 11.8 23.35 11.75 23.4 11.75 23.45 11.7 23.55 11.7 23.6 11.7 23.7 11.7 23.75 11.7 23.85 11.7 23.9 11.65 24.0 11.65 L24.0 11.65 M34.05 12.5 Q33.95 12.5 33.9 12.5 33.8 12.5 33.7 12.55 33.65 12.55 33.55 12.55 33.5 12.6 33.4 12.6 33.35 12.65 33.25 12.65 33.2 12.7 33.15 12.75 33.05 12.8 33.0 12.85 32.95 12.85 32.9 12.95 32.85 13.0 32.8 13.05 32.75 13.1 32.7 13.15 32.65 13.2 32.6 13.3 32.55 13.35 32.5 13.4 32.5 13.5 32.45 13.55 32.45 13.65 32.4 13.7 32.4 13.8 32.35 13.9 32.35 13.95 32.35 14.05 L35.75 14.05 Q35.75 13.95 35.75 13.85 35.75 13.8 35.7 13.7 35.7 13.6 35.65 13.55 35.65 13.45 35.6 13.4 35.6 13.3 35.55 13.25 35.5 13.2 35.45 13.15 35.45 13.05 35.4 13.0 35.35 12.95 35.25 12.9 35.2 12.85 35.15 12.8 35.1 12.75 35.0 12.75 34.95 12.7 34.9 12.65 34.8 12.65 34.75 12.6 34.65 12.6 34.6 12.55 34.5 12.55 34.4 12.55 34.35 12.5 34.25 12.5 34.15 12.5 34.05 12.5 L34.05 12.5 M16.55 12.6 Q16.45 12.6 16.35 12.6 16.25 12.6 16.15 12.65 16.05 12.65 15.95 12.65 15.85 12.7 15.75 12.75 15.65 12.75 15.6 12.8 15.5 12.85 15.4 12.95 15.35 13.0 15.25 13.05 15.15 13.1 15.1 13.2 15.05 13.3 14.95 13.35 14.9 13.45 14.85 13.5 14.8 13.6 14.75 13.7 14.7 13.8 14.65 13.9 14.6 14.0 14.6 14.05 14.55 14.15 14.55 14.25 14.5 14.4 14.5 14.5 14.5 14.6 14.5 14.7 14.5 14.8 14.5 14.9 14.5 15.05 14.55 15.15 14.55 15.25 14.6 15.35 14.6 15.45 14.65 15.55 14.7 15.6 14.75 15.7 14.8 15.8 14.85 15.9 14.9 15.95 14.95 16.05 15.05 16.15 15.1 16.2 15.15 16.3 15.25 16.35 15.35 16.4 15.4 16.5 15.5 16.55 15.6 16.6 15.65 16.65 15.75 16.65 15.85 16.7 15.95 16.75 16.05 16.75 16.15 16.8 16.25 16.8 16.35 16.8 16.45 16.85 16.55 16.85 16.65 16.85 16.75 16.85 16.85 16.8 16.95 16.8 17.05 16.8 17.15 16.75 17.25 16.7 17.35 16.7 17.4 16.65 17.5 16.6 17.6 16.55 17.65 16.5 17.75 16.45 17.85 16.35 17.9 16.3 18.0 16.2 18.05 16.15 18.15 16.05 18.2 15.95 18.25 15.9 18.3 15.8 18.35 15.7 18.4 15.6 18.45 15.5 18.45 15.45 18.5 15.35 18.5 15.25 18.55 15.15 18.55 15.05 18.55 14.9 18.55 14.8 18.55 14.7 18.55 14.6 18.55 14.5 18.55 14.4 18.5 14.25 18.5 14.15 18.5 14.05 18.45 13.95 18.4 13.9 18.4 13.8 18.35 13.7 18.3 13.6 18.25 13.5 18.2 13.45 18.1 13.35 18.05 13.25 18.0 13.2 17.9 13.1 17.85 13.05 17.75 13.0 17.7 12.95 17.6 12.85 17.5 12.8 17.4 12.75 17.35 12.75 17.25 12.7 17.15 12.65 17.05 12.65 16.95 12.6 16.85 12.6 16.75 12.6 16.65 12.6 16.55 12.6 L16.55 12.6" fill="#ffffff" fill-rule="evenodd" stroke="none"/>
    </g>
  </defs>
</svg>
