<?xml version="1.0" encoding="UTF-8" standalone="no"?>
<svg xmlns:ffdec="https://www.free-decompiler.com/flash" xmlns:xlink="http://www.w3.org/1999/xlink" ffdec:objectType="frame" height="26.05px" width="52.95px" xmlns="http://www.w3.org/2000/svg">
  <g transform="matrix(1.0, 0.0, 0.0, 1.0, 0.0, 0.0)">
    <use ffdec:characterId="1" height="26.0" transform="matrix(1.0, 0.0, 0.0, 1.0, 0.0, 0.0)" width="35.75" xlink:href="#shape0"/>
    <use ffdec:characterId="114" height="16.45" transform="matrix(1.0, 0.0, 0.0, 1.0, 5.7, 6.45)" width="25.95" xlink:href="#shape1"/>
    <use ffdec:characterId="247" height="26.0" transform="matrix(1.0, 0.0, 0.0, 1.0, 0.0, 0.0)" width="35.75" xlink:href="#shape2"/>
  </g>
  <defs>
    <g id="shape0" transform="matrix(1.0, 0.0, 0.0, 1.0, 0.0, 0.0)">
      <path d="M33.7 3.85 L32.9 2.8 Q31.3 1.3 29.15 1.3 L6.6 1.3 Q4.4 1.3 2.8 2.8 1.3 4.4 1.3 6.6 L1.3 19.4 Q1.3 21.55 2.8 23.15 4.4 24.7 6.6 24.7 L29.15 24.7 Q31.3 24.7 32.9 23.15 L33.7 22.15 Q34.45 20.9 34.45 19.4 L34.45 6.6 Q34.45 5.05 33.7 3.85 M33.8 1.95 Q35.75 3.9 35.75 6.6 L35.75 19.4 Q35.75 22.15 33.8 24.05 L33.7 24.15 Q31.85 26.0 29.15 26.0 L6.6 26.0 Q3.9 26.0 1.95 24.05 0.0 22.15 0.0 19.4 L0.0 6.6 Q0.0 3.9 1.95 1.95 3.9 0.0 6.6 0.0 L29.15 0.0 Q31.85 0.0 33.7 1.85 L33.8 1.95" fill="#000000" fill-opacity="0.0" fill-rule="evenodd" stroke="none"/>
      <path d="M34.45 6.6 L34.45 19.4 Q34.45 20.9 33.7 22.15 L32.9 23.15 Q31.3 24.7 29.15 24.7 L6.6 24.7 Q4.4 24.7 2.8 23.15 1.3 21.55 1.3 19.4 L1.3 6.6 Q1.3 4.4 2.8 2.8 4.4 1.3 6.6 1.3 L29.15 1.3 Q31.3 1.3 32.9 2.8 L33.7 3.85 Q34.45 5.05 34.45 6.6 M31.75 4.0 Q30.65 2.9 29.15 2.9 L6.6 2.9 Q5.1 2.9 4.0 4.0 2.95 5.1 2.95 6.6 L2.95 19.4 Q2.95 20.9 4.0 22.0 5.1 23.05 6.6 23.05 L29.15 23.05 Q30.6 23.05 31.75 22.0 32.8 20.85 32.8 19.4 L32.8 6.6 Q32.8 5.1 31.75 4.0" fill="#a6a8ab" fill-opacity="0.0" fill-rule="evenodd" stroke="none"/>
      <path d="M32.8 6.6 L32.8 19.4 Q32.8 20.85 31.75 22.0 30.6 23.05 29.15 23.05 L6.6 23.05 Q5.1 23.05 4.0 22.0 2.95 20.9 2.95 19.4 L2.95 6.6 Q2.95 5.1 4.0 4.0 5.1 2.9 6.6 2.9 L29.15 2.9 Q30.65 2.9 31.75 4.0 32.8 5.1 32.8 6.6" fill="#000000" fill-opacity="0.0" fill-rule="evenodd" stroke="none"/>
    </g>
    <g id="shape1" transform="matrix(1.0, 0.0, 0.0, 1.0, 0.0, 0.0)">
      <path d="M3.15 0.05 L4.25 0.45 5.05 1.5 5.35 3.4 Q5.35 5.35 4.5 6.3 3.65 7.2 1.7 7.1 L1.7 12.8 0.0 12.8 0.0 0.0 2.05 0.0 3.15 0.05 M3.4 2.5 L2.95 1.7 1.95 1.45 1.7 1.45 1.7 5.7 Q2.75 5.75 3.15 5.2 3.55 4.65 3.55 3.55 L3.4 2.5 M9.3 5.9 Q9.05 5.5 8.7 5.5 L8.05 5.9 7.75 6.75 7.7 7.75 7.7 8.45 7.7 9.2 7.75 10.25 8.05 11.15 Q8.3 11.5 8.75 11.5 9.15 11.5 9.4 11.15 L9.65 10.3 9.75 9.3 9.7 8.55 9.7 7.8 9.6 6.75 9.3 5.9 M9.7 5.2 L9.7 4.2 11.3 4.2 11.3 12.85 11.0 15.15 10.15 16.2 8.7 16.45 Q7.55 16.45 6.85 15.8 6.2 15.2 6.15 14.0 L6.15 13.75 7.7 13.75 7.8 14.35 8.1 14.85 8.75 15.05 Q9.25 15.0 9.45 14.75 L9.7 14.05 9.7 13.2 9.7 11.8 9.65 11.8 9.1 12.65 8.15 12.95 Q7.4 12.9 6.95 12.45 L6.3 11.3 6.1 9.85 6.05 8.55 6.05 7.3 6.3 5.8 Q6.45 5.05 6.9 4.6 7.35 4.1 8.1 4.1 L9.1 4.4 9.65 5.25 9.7 5.2 M17.25 0.0 L18.95 0.0 18.95 9.1 18.95 10.4 18.6 11.65 17.75 12.6 16.05 12.95 Q14.7 12.95 14.05 12.4 13.45 11.85 13.25 10.9 13.05 10.0 13.1 8.8 L13.1 0.0 14.8 0.0 14.8 9.4 Q14.8 10.2 14.95 10.65 L15.35 11.2 16.0 11.35 16.85 11.15 17.2 10.5 17.25 9.55 17.25 0.0 M22.35 4.2 L22.35 5.3 22.95 4.4 Q23.3 4.1 23.95 4.1 24.7 4.1 25.1 4.6 L25.7 5.8 25.95 7.3 25.95 8.6 25.95 9.9 25.7 11.3 25.05 12.45 Q24.65 12.9 23.9 12.95 L22.95 12.65 22.35 11.85 22.35 16.3 20.75 16.3 20.75 4.2 22.35 4.2 M23.3 5.5 Q22.9 5.55 22.65 5.9 22.45 6.25 22.4 6.75 L22.3 7.75 22.3 8.5 22.3 9.25 22.4 10.3 22.65 11.15 23.3 11.5 24.0 11.05 24.3 9.95 24.35 8.5 24.35 7.75 24.25 6.75 Q24.2 6.25 23.95 5.9 23.7 5.55 23.3 5.5" fill="#000000" fill-opacity="0.0" fill-rule="evenodd" stroke="none"/>
    </g>
    <g id="shape2" transform="matrix(1.0, 0.0, 0.0, 1.0, 0.0, 0.0)">
      <path d="M4.0 3.0 Q3.9 3.0 3.8 3.0 3.7 3.05 3.6 3.1 3.5 3.1 3.45 3.15 3.35 3.2 3.3 3.3 3.2 3.35 3.15 3.45 3.1 3.5 3.1 3.6 3.05 3.7 3.0 3.8 3.0 3.9 3.0 4.0 L3.0 22.0 Q3.0 22.1 3.0 22.2 3.05 22.3 3.1 22.4 3.1 22.5 3.15 22.55 3.2 22.65 3.3 22.7 3.35 22.8 3.45 22.85 3.5 22.9 3.6 22.9 3.7 22.95 3.8 23.0 3.9 23.0 4.0 23.0 L31.75 23.0 Q31.85 23.0 31.95 23.0 32.05 22.95 32.15 22.9 32.25 22.9 32.3 22.85 32.4 22.8 32.45 22.7 32.55 22.65 32.6 22.55 32.65 22.5 32.65 22.4 32.7 22.3 32.75 22.2 32.75 22.1 32.75 22.0 L32.75 4.0 Q32.75 3.9 32.75 3.8 32.7 3.7 32.65 3.6 32.65 3.5 32.6 3.45 32.55 3.35 32.45 3.3 32.4 3.2 32.3 3.15 32.25 3.1 32.15 3.1 32.05 3.05 31.95 3.0 31.85 3.0 31.75 3.0 L4.0 3.0 4.0 3.0 M5.35 9.0 L7.0 9.0 Q7.1 9.0 7.2 9.0 7.3 9.0 7.4 9.0 7.5 9.0 7.6 9.0 7.7 9.0 7.8 9.0 7.85 9.05 7.95 9.05 8.0 9.05 8.05 9.05 8.15 9.05 8.2 9.05 8.25 9.1 8.3 9.1 8.35 9.1 8.4 9.1 8.45 9.15 8.5 9.15 8.55 9.15 8.6 9.2 8.65 9.2 8.7 9.2 8.75 9.25 8.8 9.25 8.85 9.3 8.85 9.3 8.9 9.3 8.95 9.35 9.0 9.35 9.05 9.4 9.1 9.45 9.15 9.45 9.2 9.5 9.2 9.55 9.25 9.6 9.3 9.65 9.35 9.7 9.35 9.7 9.4 9.75 9.45 9.8 9.5 9.85 9.5 9.9 9.55 10.0 9.55 10.05 9.6 10.1 9.65 10.15 9.65 10.2 9.7 10.25 9.7 10.35 9.75 10.4 9.75 10.45 9.75 10.5 9.8 10.6 9.8 10.65 9.8 10.7 9.8 10.8 9.85 10.85 9.85 10.9 9.85 11.0 9.85 11.05 9.85 11.15 9.85 11.2 9.85 11.25 9.85 11.35 9.85 11.4 9.85 11.5 9.85 11.55 9.8 11.6 9.8 11.7 9.8 11.75 9.8 11.8 9.75 11.9 9.75 11.95 9.7 12.0 9.7 12.05 9.7 12.15 9.65 12.2 9.65 12.25 9.6 12.3 9.6 12.35 9.55 12.45 9.5 12.5 9.5 12.55 9.45 12.6 9.4 12.65 9.35 12.7 9.35 12.75 9.3 12.75 9.25 12.8 9.2 12.85 9.15 12.9 9.1 12.95 9.1 12.95 9.05 13.0 9.0 13.05 8.95 13.05 8.9 13.1 8.9 13.1 8.85 13.15 8.8 13.15 8.75 13.15 8.7 13.2 8.65 13.2 8.6 13.25 8.55 13.25 8.5 13.25 8.45 13.3 8.4 13.3 8.35 13.3 8.3 13.3 8.25 13.3 8.2 13.35 8.15 13.35 8.05 13.35 8.0 13.35 7.95 13.35 7.85 13.4 7.8 13.4 7.7 13.4 7.6 13.4 7.5 13.4 7.45 13.4 7.35 13.4 7.25 13.4 7.15 13.4 7.0 13.4 L6.75 13.4 6.25 13.4 6.25 17.0 5.35 17.0 5.35 9.0 5.35 9.0 M17.4 9.0 L18.35 9.0 18.35 14.0 Q18.35 14.15 18.35 14.3 18.35 14.4 18.35 14.55 18.4 14.7 18.4 14.8 18.45 14.9 18.45 15.05 18.5 15.15 18.55 15.25 18.6 15.35 18.65 15.45 18.65 15.55 18.75 15.6 18.8 15.7 18.85 15.75 18.9 15.8 19.0 15.9 19.05 15.95 19.15 16.0 19.25 16.05 19.3 16.1 19.4 16.15 19.5 16.2 19.6 16.2 19.75 16.25 19.85 16.25 19.95 16.3 20.1 16.3 20.2 16.3 20.35 16.35 20.45 16.35 20.6 16.35 20.7 16.35 20.85 16.3 21.0 16.3 21.1 16.3 21.2 16.25 21.3 16.25 21.45 16.2 21.55 16.15 21.6 16.1 21.7 16.05 21.8 16.0 21.9 15.95 21.95 15.9 22.05 15.85 22.1 15.75 22.15 15.7 22.2 15.6 22.25 15.5 22.3 15.45 22.35 15.35 22.4 15.25 22.45 15.15 22.5 15.05 22.5 14.9 22.55 14.8 22.55 14.7 22.6 14.55 22.6 14.4 22.6 14.25 22.6 14.15 22.6 14.0 L22.6 9.0 23.6 9.0 23.6 14.0 Q23.6 14.2 23.6 14.4 23.55 14.55 23.55 14.75 23.5 14.9 23.45 15.1 23.45 15.25 23.4 15.4 23.35 15.55 23.3 15.7 23.2 15.85 23.15 15.95 23.05 16.1 23.0 16.2 22.9 16.3 22.8 16.4 22.7 16.5 22.6 16.6 22.5 16.7 22.35 16.75 22.25 16.85 22.1 16.9 22.0 16.95 21.85 17.0 21.7 17.05 21.55 17.1 21.35 17.15 21.2 17.15 21.05 17.2 20.85 17.2 20.65 17.2 20.45 17.2 20.25 17.2 20.1 17.2 19.9 17.2 19.75 17.15 19.55 17.15 19.4 17.1 19.25 17.05 19.1 17.0 18.95 16.95 18.85 16.9 18.7 16.85 18.6 16.75 18.45 16.7 18.35 16.6 18.25 16.5 18.15 16.4 18.05 16.3 17.95 16.2 17.9 16.1 17.8 15.95 17.75 15.85 17.7 15.7 17.6 15.55 17.55 15.4 17.5 15.25 17.5 15.1 17.45 14.9 17.4 14.75 17.4 14.55 17.4 14.35 17.4 14.2 17.4 14.0 L17.4 9.0 17.4 9.0 M6.25 9.85 L6.25 12.55 6.75 12.55 Q6.9 12.55 7.05 12.55 7.2 12.55 7.3 12.55 7.45 12.5 7.55 12.5 7.65 12.5 7.75 12.5 7.85 12.45 7.95 12.45 8.05 12.4 8.15 12.4 8.2 12.35 8.25 12.35 8.35 12.3 8.4 12.25 8.45 12.2 8.5 12.15 8.55 12.15 8.6 12.1 8.6 12.05 8.65 12.0 8.7 11.95 8.7 11.85 8.75 11.8 8.75 11.75 8.8 11.65 8.8 11.6 8.8 11.5 8.8 11.45 8.8 11.35 8.8 11.25 8.8 11.15 8.8 11.05 8.8 11.0 8.8 10.9 8.75 10.8 8.75 10.75 8.75 10.65 8.7 10.6 8.7 10.55 8.65 10.5 8.6 10.4 8.55 10.35 8.55 10.3 8.5 10.25 8.45 10.2 8.4 10.2 8.35 10.15 8.25 10.1 8.2 10.1 8.1 10.05 8.05 10.0 7.95 10.0 7.85 9.95 7.75 9.95 7.65 9.95 7.55 9.9 7.45 9.9 7.3 9.9 7.15 9.9 7.05 9.85 6.9 9.85 6.75 9.85 L6.25 9.85 6.25 9.85 M12.9 11.8 Q13.0 11.8 13.05 11.8 13.15 11.8 13.2 11.85 13.3 11.85 13.35 11.85 13.4 11.85 13.5 11.9 13.55 11.9 13.6 11.95 13.7 11.95 13.75 12.0 13.8 12.0 13.85 12.05 13.95 12.05 14.0 12.1 14.05 12.15 14.1 12.2 14.15 12.2 14.2 12.25 14.25 12.3 14.3 12.35 14.35 12.4 14.4 12.45 14.45 12.5 14.5 12.55 14.55 12.6 14.6 12.65 14.65 12.75 14.65 12.8 14.7 12.85 14.75 12.95 L14.75 12.0 15.6 12.0 15.6 16.9 Q15.6 17.0 15.6 17.1 15.6 17.2 15.6 17.3 15.6 17.35 15.6 17.45 15.55 17.55 15.55 17.6 15.55 17.7 15.55 17.75 15.55 17.8 15.55 17.85 15.5 17.95 15.5 18.0 15.5 18.05 15.5 18.05 15.5 18.1 15.45 18.15 15.45 18.2 15.4 18.25 15.4 18.25 15.4 18.3 15.35 18.35 15.35 18.4 15.3 18.45 15.3 18.45 15.25 18.5 15.25 18.55 15.2 18.6 15.2 18.6 15.15 18.65 15.1 18.7 15.05 18.75 15.0 18.8 14.95 18.85 14.95 18.85 14.9 18.9 14.85 18.95 14.8 19.0 14.75 19.0 14.65 19.05 14.6 19.1 14.55 19.1 14.5 19.15 14.45 19.2 14.4 19.2 14.3 19.25 14.25 19.25 14.2 19.25 14.15 19.3 14.05 19.3 14.0 19.35 13.95 19.35 13.85 19.35 13.8 19.4 13.7 19.4 13.65 19.4 13.55 19.4 13.5 19.4 13.4 19.45 13.35 19.45 13.25 19.45 13.2 19.45 13.1 19.45 12.95 19.45 12.8 19.45 12.7 19.45 12.55 19.4 12.45 19.4 12.3 19.35 12.2 19.35 12.1 19.3 12.0 19.3 11.9 19.25 11.75 19.2 11.7 19.15 11.6 19.1 11.5 19.05 11.4 19.0 11.35 18.9 11.25 18.85 11.2 18.75 11.1 18.7 11.05 18.6 11.0 18.55 10.95 18.45 10.9 18.4 10.85 18.3 10.8 18.2 10.75 18.1 10.75 18.0 10.7 17.9 10.7 17.8 10.7 17.7 10.65 17.55 10.65 17.45 L11.65 17.45 11.65 17.5 Q11.65 17.55 11.65 17.65 11.65 17.7 11.65 17.75 11.65 17.85 11.7 17.9 11.7 17.95 11.75 18.0 11.75 18.05 11.8 18.1 11.8 18.15 11.85 18.2 11.9 18.25 11.9 18.3 11.95 18.35 12.0 18.4 12.05 18.45 12.1 18.45 12.15 18.5 12.2 18.5 12.3 18.55 12.35 18.55 12.4 18.6 12.5 18.6 12.55 18.65 12.6 18.65 12.7 18.65 12.8 18.65 12.85 18.7 12.95 18.7 13.0 18.7 13.1 18.7 13.15 18.7 13.25 18.7 13.3 18.7 13.35 18.7 13.4 18.7 13.45 18.65 13.55 18.65 13.6 18.65 13.65 18.65 13.7 18.6 13.75 18.6 13.8 18.6 13.85 18.6 13.9 18.55 13.95 18.55 14.0 18.5 14.05 18.5 14.1 18.45 14.15 18.45 14.15 18.4 14.2 18.4 14.25 18.35 14.3 18.35 14.3 18.3 14.35 18.3 14.4 18.25 14.4 18.2 14.45 18.2 14.45 18.15 14.5 18.1 14.5 18.05 14.55 18.05 14.55 18.0 14.6 17.95 14.6 17.9 14.65 17.85 14.65 17.85 14.65 17.8 14.65 17.75 14.7 17.7 14.7 17.65 14.7 17.6 14.7 17.55 14.7 17.55 14.7 17.5 14.75 17.45 14.75 17.4 14.75 17.4 14.75 17.35 14.75 17.3 14.75 17.25 14.75 17.2 14.75 17.15 14.75 17.1 14.75 17.05 14.75 17.0 14.75 16.95 14.75 16.9 L14.75 16.5 14.75 16.05 Q14.7 16.1 14.7 16.2 14.65 16.25 14.6 16.3 14.55 16.35 14.5 16.4 14.45 16.45 14.4 16.5 14.35 16.6 14.3 16.6 14.25 16.65 14.2 16.7 14.15 16.75 14.1 16.8 14.05 16.85 14.0 16.9 13.95 16.95 13.9 16.95 13.8 17.0 13.75 17.0 13.7 17.05 13.65 17.05 13.55 17.05 13.5 17.1 13.45 17.1 13.35 17.1 13.3 17.15 13.25 17.15 13.15 17.15 13.1 17.15 13.0 17.15 12.95 17.15 12.8 17.15 12.7 17.15 12.55 17.15 12.45 17.1 12.3 17.1 12.2 17.05 12.1 17.0 11.95 16.95 11.85 16.95 11.75 16.85 11.65 16.8 11.55 16.75 11.45 16.7 11.4 16.6 11.3 16.5 11.2 16.45 11.1 16.35 11.05 16.25 11.0 16.15 10.9 16.05 10.85 15.95 10.8 15.8 10.75 15.7 10.7 15.6 10.65 15.45 10.65 15.3 10.6 15.2 10.6 15.05 10.55 14.9 10.55 14.8 10.55 14.65 10.55 14.5 10.55 14.35 10.55 14.2 10.55 14.05 10.6 13.9 10.6 13.75 10.65 13.65 10.65 13.5 10.7 13.4 10.75 13.25 10.8 13.15 10.85 13.05 10.9 12.95 10.95 12.85 11.05 12.75 11.1 12.65 11.2 12.55 11.3 12.45 11.35 12.4 11.45 12.3 11.55 12.25 11.65 12.15 11.75 12.1 11.85 12.05 11.95 12.0 12.05 11.95 12.15 11.9 12.25 11.9 12.4 11.85 12.5 11.85 12.65 11.85 12.75 11.8 12.9 11.8 L12.9 11.8 M28.0 11.8 Q28.15 11.8 28.25 11.8 28.4 11.85 28.55 11.85 28.65 11.9 28.75 11.9 28.9 11.95 29.0 12.0 29.1 12.05 29.2 12.1 29.3 12.15 29.4 12.25 29.5 12.3 29.6 12.4 29.7 12.45 29.75 12.55 29.85 12.65 29.9 12.75 30.0 12.85 30.05 12.95 30.1 13.05 30.15 13.2 30.2 13.3 30.25 13.4 30.3 13.55 30.3 13.65 30.35 13.8 30.35 13.95 30.4 14.05 30.4 14.2 30.4 14.35 30.4 14.5 30.4 14.65 30.4 14.8 30.4 14.95 30.35 15.1 30.35 15.25 30.3 15.35 30.3 15.5 30.25 15.65 30.2 15.75 30.15 15.85 30.1 16.0 30.05 16.1 30.0 16.2 29.9 16.3 29.85 16.4 29.75 16.5 29.65 16.6 29.6 16.65 29.5 16.75 29.4 16.8 29.3 16.9 29.2 16.95 29.1 17.0 29.0 17.05 28.9 17.1 28.8 17.1 28.7 17.15 28.55 17.15 28.45 17.2 28.3 17.2 28.2 17.2 28.05 17.2 27.95 17.2 27.9 17.2 27.8 17.2 27.75 17.2 27.7 17.2 27.6 17.15 27.55 17.15 27.45 17.15 27.4 17.1 27.35 17.1 27.3 17.1 27.2 17.05 27.15 17.05 27.1 17.0 27.05 16.95 27.0 16.95 26.95 16.9 26.9 16.85 26.8 16.85 26.75 16.8 26.7 16.75 26.65 16.7 26.6 16.65 26.55 16.6 26.5 16.55 26.45 16.45 26.4 16.4 26.4 16.35 26.35 16.3 26.3 16.25 26.25 16.15 26.25 16.1 L26.25 19.45 25.4 19.45 25.4 12.0 26.2 12.0 26.2 12.95 Q26.25 12.9 26.25 12.8 26.3 12.75 26.35 12.7 26.4 12.65 26.45 12.55 26.5 12.5 26.55 12.45 26.6 12.4 26.65 12.35 26.7 12.3 26.75 12.25 26.8 12.25 26.85 12.2 26.9 12.15 26.95 12.1 27.0 12.05 27.05 12.05 27.15 12.0 27.2 12.0 27.25 11.95 27.35 11.95 27.4 11.9 27.45 11.9 27.55 11.85 27.6 11.85 27.65 11.85 27.75 11.85 27.8 11.85 27.9 11.8 27.95 11.8 28.0 11.8 L28.0 11.8 M13.1 12.65 Q13.0 12.65 12.9 12.65 12.8 12.65 12.75 12.7 12.65 12.7 12.55 12.7 12.5 12.75 12.4 12.75 12.35 12.8 12.25 12.85 12.2 12.85 12.15 12.9 12.05 12.95 12.0 13.0 11.95 13.05 11.9 13.1 11.85 13.15 11.8 13.25 11.75 13.3 11.7 13.35 11.65 13.45 11.65 13.5 11.6 13.6 11.55 13.7 11.55 13.75 11.5 13.85 11.5 13.95 11.5 14.05 11.45 14.15 11.45 14.25 11.45 14.35 11.45 14.45 11.45 14.55 11.45 14.65 11.45 14.8 11.5 14.9 11.5 15.0 11.5 15.05 11.55 15.15 11.55 15.25 11.6 15.35 11.65 15.4 11.65 15.5 11.7 15.6 11.75 15.65 11.8 15.7 11.85 15.8 11.9 15.85 11.95 15.9 12.0 15.95 12.05 16.0 12.15 16.05 12.2 16.1 12.25 16.15 12.35 16.2 12.4 16.2 12.5 16.25 12.6 16.25 12.65 16.3 12.75 16.3 12.85 16.3 12.95 16.35 13.0 16.35 13.1 16.35 13.2 16.35 13.3 16.35 13.4 16.35 13.5 16.3 13.55 16.3 13.65 16.25 13.75 16.25 13.8 16.2 13.9 16.2 13.95 16.15 14.0 16.1 14.1 16.05 14.15 16.0 14.2 15.95 14.25 15.9 14.3 15.85 14.35 15.8 14.4 15.75 14.45 15.65 14.5 15.6 14.55 15.5 14.6 15.45 14.6 15.35 14.65 15.3 14.65 15.2 14.7 15.1 14.7 15.0 14.75 14.9 14.75 14.8 14.75 14.7 14.75 14.6 14.75 14.5 14.75 14.4 14.75 14.3 14.75 14.2 14.75 14.1 14.7 14.0 14.7 13.95 14.65 13.85 14.65 13.75 14.6 13.65 14.6 13.6 14.55 13.5 14.5 13.45 14.45 13.35 14.4 13.3 14.35 13.2 14.3 13.15 14.25 13.1 14.2 13.05 14.1 13.0 14.05 12.95 14.0 12.9 13.9 12.85 13.85 12.8 13.75 12.75 13.7 12.75 13.6 12.7 13.55 12.7 13.45 12.7 13.35 12.65 13.25 12.65 13.2 12.65 13.1 12.65 L13.1 12.65 M27.9 12.65 Q27.8 12.65 27.7 12.65 27.6 12.65 27.5 12.7 27.45 12.7 27.35 12.7 27.25 12.75 27.2 12.75 27.1 12.8 27.05 12.85 26.95 12.9 26.9 12.9 26.85 12.95 26.75 13.05 26.7 13.1 26.65 13.15 26.6 13.2 26.55 13.3 26.5 13.35 26.45 13.4 26.4 13.5 26.4 13.55 26.35 13.65 26.3 13.75 26.3 13.8 26.25 13.9 26.25 14.0 26.25 14.1 26.2 14.2 26.2 14.3 26.2 14.4 26.2 14.5 26.2 14.6 26.2 14.7 26.2 14.8 26.25 14.9 26.25 15.0 26.25 15.1 26.3 15.2 26.3 15.25 26.35 15.35 26.4 15.45 26.4 15.5 26.45 15.6 26.5 15.65 26.55 15.75 26.6 15.8 26.65 15.85 26.7 15.9 26.8 15.95 26.85 16.05 26.9 16.1 27.0 16.15 27.05 16.15 27.15 16.2 27.2 16.25 27.3 16.25 27.35 16.3 27.45 16.3 27.55 16.35 27.6 16.35 27.7 16.35 27.8 16.35 27.9 16.35 28.0 16.35 28.1 16.35 28.15 16.35 28.25 16.35 28.35 16.3 28.4 16.3 28.5 16.3 28.55 16.25 28.65 16.2 28.7 16.2 28.8 16.15 28.85 16.1 28.9 16.05 28.95 16.0 29.0 15.95 29.05 15.9 29.1 15.85 29.15 15.8 29.2 15.7 29.25 15.65 29.3 15.6 29.35 15.5 29.35 15.45 29.4 15.35 29.4 15.25 29.45 15.2 29.45 15.1 29.5 15.0 29.5 14.9 29.5 14.8 29.5 14.7 29.5 14.6 29.5 14.5 29.5 14.4 29.5 14.25 29.5 14.15 29.45 14.05 29.45 14.0 29.4 13.9 29.4 13.8 29.35 13.7 29.35 13.6 29.3 13.55 29.25 13.45 29.2 13.4 29.2 13.3 29.15 13.25 29.05 13.15 29.0 13.1 28.95 13.05 28.9 13.0 28.85 12.95 28.75 12.9 28.7 12.85 28.65 12.8 28.55 12.75 28.5 12.75 28.4 12.7 28.35 12.7 28.25 12.7 28.15 12.65 28.05 12.65 28.0 12.65 27.9 12.65 L27.9 12.65" fill="#ffffff" fill-rule="evenodd" stroke="none"/>
    </g>
  </defs>
</svg>
