<?xml version="1.0" encoding="UTF-8" standalone="no"?>
<svg xmlns:ffdec="https://www.free-decompiler.com/flash" xmlns:xlink="http://www.w3.org/1999/xlink" ffdec:objectType="frame" height="26.05px" width="52.95px" xmlns="http://www.w3.org/2000/svg">
  <g transform="matrix(1.0, 0.0, 0.0, 1.0, 0.0, 0.0)">
    <use ffdec:characterId="1" height="26.0" transform="matrix(1.0, 0.0, 0.0, 1.0, 0.0, 0.0)" width="35.75" xlink:href="#shape0"/>
    <use ffdec:characterId="117" height="12.95" transform="matrix(1.0, 0.0, 0.0, 1.0, 11.8, 7.2)" width="13.7" xlink:href="#shape1"/>
    <use ffdec:characterId="253" height="26.0" transform="matrix(1.0, 0.0, 0.0, 1.0, 0.0, 0.0)" width="35.75" xlink:href="#shape2"/>
  </g>
  <defs>
    <g id="shape0" transform="matrix(1.0, 0.0, 0.0, 1.0, 0.0, 0.0)">
      <path d="M33.7 3.85 L32.9 2.8 Q31.3 1.3 29.15 1.3 L6.6 1.3 Q4.4 1.3 2.8 2.8 1.3 4.4 1.3 6.6 L1.3 19.4 Q1.3 21.55 2.8 23.15 4.4 24.7 6.6 24.7 L29.15 24.7 Q31.3 24.7 32.9 23.15 L33.7 22.15 Q34.45 20.9 34.45 19.4 L34.45 6.6 Q34.45 5.05 33.7 3.85 M33.8 1.95 Q35.75 3.9 35.75 6.6 L35.75 19.4 Q35.75 22.15 33.8 24.05 L33.7 24.15 Q31.85 26.0 29.15 26.0 L6.6 26.0 Q3.9 26.0 1.95 24.05 0.0 22.15 0.0 19.4 L0.0 6.6 Q0.0 3.9 1.95 1.95 3.9 0.0 6.6 0.0 L29.15 0.0 Q31.85 0.0 33.7 1.85 L33.8 1.95" fill="#000000" fill-opacity="0.0" fill-rule="evenodd" stroke="none"/>
      <path d="M34.45 6.6 L34.45 19.4 Q34.45 20.9 33.7 22.15 L32.9 23.15 Q31.3 24.7 29.15 24.7 L6.6 24.7 Q4.4 24.7 2.8 23.15 1.3 21.55 1.3 19.4 L1.3 6.6 Q1.3 4.4 2.8 2.8 4.4 1.3 6.6 1.3 L29.15 1.3 Q31.3 1.3 32.9 2.8 L33.7 3.85 Q34.45 5.05 34.45 6.6 M31.75 4.0 Q30.65 2.9 29.15 2.9 L6.6 2.9 Q5.1 2.9 4.0 4.0 2.95 5.1 2.95 6.6 L2.95 19.4 Q2.95 20.9 4.0 22.0 5.1 23.05 6.6 23.05 L29.15 23.05 Q30.6 23.05 31.75 22.0 32.8 20.85 32.8 19.4 L32.8 6.6 Q32.8 5.1 31.75 4.0" fill="#a6a8ab" fill-opacity="0.0" fill-rule="evenodd" stroke="none"/>
      <path d="M32.8 6.6 L32.8 19.4 Q32.8 20.85 31.75 22.0 30.6 23.05 29.15 23.05 L6.6 23.05 Q5.1 23.05 4.0 22.0 2.95 20.9 2.95 19.4 L2.95 6.6 Q2.95 5.1 4.0 4.0 5.1 2.9 6.6 2.9 L29.15 2.9 Q30.65 2.9 31.75 4.0 32.8 5.1 32.8 6.6" fill="#000000" fill-opacity="0.0" fill-rule="evenodd" stroke="none"/>
    </g>
    <g id="shape1" transform="matrix(1.0, 0.0, 0.0, 1.0, 0.0, 0.0)">
      <path d="M0.0 0.0 L1.7 0.0 1.7 12.8 0.0 12.8 0.0 0.0 M6.25 4.15 L6.8 4.1 Q7.65 4.1 8.05 4.5 L8.5 5.6 8.55 6.9 8.55 12.8 6.95 12.8 6.95 6.85 6.9 6.25 6.65 5.75 Q6.45 5.5 6.0 5.5 5.5 5.55 5.3 5.85 5.1 6.2 5.05 6.6 L5.05 7.45 5.05 12.8 3.45 12.8 3.45 4.2 5.05 4.2 5.05 5.2 5.1 5.2 5.4 4.7 5.75 4.4 6.25 4.15 M11.85 4.1 L12.6 4.15 13.3 4.45 13.3 5.95 12.7 5.65 12.1 5.5 Q11.65 5.5 11.35 5.75 11.0 6.0 11.0 6.45 11.05 6.95 11.45 7.3 L12.35 8.05 13.25 8.95 Q13.65 9.5 13.7 10.4 13.65 11.55 13.05 12.25 12.4 12.9 11.25 12.95 L10.5 12.85 9.85 12.55 9.85 10.95 10.45 11.35 11.15 11.5 11.95 11.2 12.2 10.45 11.95 9.65 11.3 9.05 10.5 8.45 9.8 7.6 Q9.55 7.15 9.55 6.45 9.55 5.4 10.2 4.75 10.8 4.1 11.85 4.1" fill="#000000" fill-opacity="0.0" fill-rule="evenodd" stroke="none"/>
    </g>
    <g id="shape2" transform="matrix(1.0, 0.0, 0.0, 1.0, 0.0, 0.0)">
      <path d="M4.0 3.0 Q3.9 3.0 3.8 3.0 3.7 3.05 3.6 3.1 3.5 3.1 3.45 3.15 3.35 3.2 3.3 3.3 3.2 3.35 3.15 3.45 3.1 3.5 3.1 3.6 3.05 3.7 3.0 3.8 3.0 3.9 3.0 4.0 L3.0 22.0 Q3.0 22.1 3.0 22.2 3.05 22.3 3.1 22.4 3.1 22.5 3.15 22.55 3.2 22.65 3.3 22.7 3.35 22.8 3.45 22.85 3.5 22.9 3.6 22.9 3.7 22.95 3.8 23.0 3.9 23.0 4.0 23.0 L31.75 23.0 Q31.85 23.0 31.95 23.0 32.05 22.95 32.15 22.9 32.25 22.9 32.3 22.85 32.4 22.8 32.45 22.7 32.55 22.65 32.6 22.55 32.65 22.5 32.65 22.4 32.7 22.3 32.75 22.2 32.75 22.1 32.75 22.0 L32.75 4.0 Q32.75 3.9 32.75 3.8 32.7 3.7 32.65 3.6 32.65 3.5 32.6 3.45 32.55 3.35 32.45 3.3 32.4 3.2 32.3 3.15 32.25 3.1 32.15 3.1 32.05 3.05 31.95 3.0 31.85 3.0 31.75 3.0 L4.0 3.0 4.0 3.0 M10.95 8.5 L12.05 8.5 12.05 17.5 10.95 17.5 10.95 8.5 10.95 8.5 M17.1 11.65 Q17.2 11.65 17.35 11.65 17.45 11.7 17.55 11.7 17.7 11.7 17.8 11.75 17.9 11.75 18.0 11.8 18.1 11.85 18.15 11.9 18.25 11.9 18.35 11.95 18.45 12.0 18.5 12.1 18.6 12.15 18.65 12.2 18.7 12.25 18.8 12.35 18.85 12.4 18.9 12.5 18.95 12.55 19.0 12.65 19.05 12.75 19.05 12.85 19.1 12.9 19.15 13.0 19.15 13.1 19.2 13.25 19.2 13.35 19.2 13.45 19.2 13.55 19.2 13.65 L19.2 17.5 18.25 17.5 18.25 14.2 Q18.25 14.1 18.25 14.0 18.25 13.9 18.2 13.8 18.2 13.7 18.2 13.6 18.15 13.5 18.15 13.45 18.1 13.35 18.1 13.3 18.05 13.2 18.0 13.15 18.0 13.1 17.95 13.05 17.9 12.95 17.85 12.9 17.8 12.85 17.75 12.8 17.7 12.75 17.65 12.75 17.6 12.7 17.55 12.65 17.5 12.65 17.4 12.6 17.35 12.6 17.25 12.55 17.2 12.55 17.1 12.55 17.05 12.5 16.95 12.5 16.85 12.5 16.75 12.5 16.7 12.5 16.65 12.5 16.6 12.5 16.55 12.5 16.5 12.5 16.45 12.5 16.4 12.55 16.35 12.55 16.3 12.55 16.25 12.55 16.2 12.6 16.15 12.6 16.1 12.6 16.05 12.6 16.0 12.65 15.95 12.65 15.9 12.65 15.85 12.7 15.85 12.7 15.8 12.75 15.75 12.75 15.7 12.8 15.7 12.8 15.65 12.85 15.6 12.9 15.6 12.9 15.55 12.95 15.5 12.95 15.5 13.0 15.45 13.05 15.4 13.05 15.4 13.1 15.4 13.15 15.35 13.15 15.35 13.2 15.3 13.2 15.3 13.25 15.25 13.3 15.25 13.3 15.25 13.35 15.2 13.35 15.2 13.4 15.2 13.45 15.2 13.45 15.15 13.5 15.15 13.55 15.15 13.55 15.15 13.6 15.15 13.65 15.15 13.7 15.1 13.7 15.1 13.75 15.1 13.8 15.1 13.9 15.1 13.95 15.1 14.0 15.05 14.05 15.05 14.1 15.05 14.2 15.05 14.25 15.05 14.35 15.05 14.4 15.05 14.5 15.05 14.6 L15.05 17.5 14.1 17.5 14.1 11.9 15.05 11.9 15.05 12.75 Q15.1 12.7 15.15 12.6 15.2 12.55 15.25 12.5 15.3 12.45 15.35 12.4 15.4 12.3 15.45 12.25 15.5 12.2 15.55 12.15 15.6 12.15 15.65 12.1 15.75 12.05 15.8 12.0 15.85 11.95 15.9 11.95 15.95 11.9 16.05 11.9 16.1 11.85 16.2 11.85 16.25 11.8 16.3 11.8 16.4 11.75 16.45 11.75 16.55 11.7 16.6 11.7 16.7 11.7 16.75 11.7 16.85 11.7 16.95 11.7 17.0 11.65 17.1 11.65 L17.1 11.65 M22.75 11.65 Q22.85 11.65 22.9 11.65 23.0 11.65 23.1 11.7 23.15 11.7 23.25 11.7 23.35 11.7 23.4 11.75 23.5 11.75 23.55 11.8 23.65 11.8 23.7 11.85 23.8 11.85 23.85 11.9 23.9 11.95 24.0 11.95 24.05 12.0 24.1 12.05 24.2 12.05 24.25 12.1 24.3 12.15 24.35 12.2 24.4 12.25 24.45 12.3 24.5 12.35 24.5 12.4 24.55 12.5 24.6 12.55 24.65 12.6 24.65 12.65 24.7 12.7 24.75 12.8 L23.95 13.25 Q23.95 13.2 23.9 13.15 23.9 13.1 23.85 13.1 23.85 13.05 23.8 13.0 23.75 12.95 23.75 12.9 23.7 12.9 23.65 12.85 23.65 12.8 23.6 12.8 23.55 12.75 23.5 12.75 23.5 12.7 23.45 12.65 23.4 12.65 23.35 12.6 23.3 12.6 23.25 12.55 23.25 12.55 23.2 12.55 23.15 12.55 23.1 12.5 23.05 12.5 23.0 12.5 22.95 12.5 22.9 12.5 22.85 12.45 22.8 12.45 22.7 12.45 22.65 12.45 22.6 12.45 22.55 12.45 22.5 12.45 22.45 12.45 22.4 12.5 22.35 12.5 22.3 12.5 22.3 12.5 22.25 12.55 22.2 12.55 22.15 12.6 22.1 12.6 22.1 12.6 22.05 12.65 22.0 12.7 21.95 12.7 21.9 12.75 21.9 12.75 21.85 12.8 21.85 12.85 21.8 12.85 21.8 12.9 21.8 12.95 21.75 12.95 21.75 13.0 21.75 13.05 21.75 13.1 21.7 13.15 21.7 13.15 21.7 13.2 21.7 13.25 21.7 13.3 21.7 13.35 21.7 13.45 21.75 13.5 21.75 13.55 21.8 13.6 21.85 13.65 21.9 13.75 22.0 13.8 22.05 13.85 22.15 13.9 22.25 13.95 22.35 14.0 22.45 14.05 22.55 14.1 22.7 14.15 22.85 14.15 22.9 14.15 22.95 14.2 22.95 14.2 23.0 14.25 23.05 14.25 23.1 14.25 23.1 14.25 23.15 14.3 23.25 14.35 23.35 14.35 23.5 14.4 23.6 14.45 23.7 14.5 23.75 14.5 23.85 14.55 23.95 14.6 24.0 14.65 24.1 14.7 24.15 14.75 24.2 14.75 24.3 14.8 24.35 14.85 24.4 14.9 24.45 14.95 24.5 15.0 24.55 15.05 24.55 15.1 24.6 15.15 24.65 15.2 24.65 15.25 24.7 15.35 24.7 15.4 24.75 15.45 24.75 15.5 24.75 15.6 24.75 15.65 24.8 15.75 24.8 15.8 24.8 15.85 24.8 15.95 24.8 16.05 24.8 16.15 24.8 16.25 24.75 16.35 24.75 16.4 24.7 16.5 24.7 16.6 24.65 16.65 24.6 16.75 24.55 16.85 24.55 16.9 24.45 17.0 24.4 17.05 24.35 17.1 24.3 17.2 24.2 17.25 24.15 17.3 24.05 17.35 24.0 17.4 23.9 17.45 23.85 17.5 23.75 17.55 23.65 17.6 23.55 17.6 23.45 17.65 23.4 17.65 23.3 17.7 23.2 17.7 23.05 17.7 22.95 17.75 22.85 17.75 22.75 17.75 22.65 17.75 22.55 17.75 22.45 17.75 22.35 17.75 22.25 17.7 22.2 17.7 22.1 17.7 22.0 17.65 21.95 17.65 21.85 17.65 21.75 17.6 21.7 17.55 21.6 17.55 21.55 17.5 21.45 17.5 21.4 17.45 21.35 17.4 21.25 17.35 21.2 17.35 21.15 17.3 21.1 17.25 21.0 17.2 20.95 17.15 20.9 17.05 20.85 17.0 20.8 16.95 20.75 16.9 20.7 16.85 20.65 16.75 20.6 16.7 20.55 16.65 20.5 16.55 L21.35 16.0 Q21.4 16.05 21.4 16.1 21.45 16.15 21.45 16.2 21.5 16.25 21.55 16.3 21.55 16.35 21.6 16.4 21.65 16.45 21.7 16.45 21.7 16.5 21.75 16.55 21.8 16.6 21.85 16.6 21.9 16.65 21.95 16.7 22.0 16.7 22.05 16.75 22.1 16.75 22.15 16.8 22.2 16.8 22.2 16.8 22.25 16.85 22.35 16.85 22.4 16.85 22.45 16.85 22.5 16.9 22.55 16.9 22.6 16.9 22.65 16.9 22.7 16.9 22.8 16.9 22.85 16.9 22.9 16.9 22.95 16.9 23.0 16.9 23.05 16.9 23.1 16.85 23.15 16.85 23.2 16.85 23.25 16.85 23.3 16.8 23.35 16.8 23.4 16.75 23.45 16.75 23.45 16.7 23.5 16.7 23.55 16.65 23.6 16.6 23.6 16.6 23.65 16.55 23.65 16.55 23.7 16.5 23.7 16.45 23.75 16.45 23.75 16.4 23.8 16.35 23.8 16.3 23.8 16.25 23.8 16.25 23.85 16.2 23.85 16.15 23.85 16.1 23.85 16.05 23.85 16.0 23.85 16.0 23.85 15.95 23.85 15.9 23.8 15.85 23.8 15.85 23.8 15.8 23.8 15.8 23.75 15.75 23.75 15.7 23.75 15.7 23.7 15.65 23.7 15.65 23.7 15.6 23.65 15.6 23.65 15.55 23.6 15.55 23.6 15.5 23.55 15.5 23.5 15.45 23.5 15.45 23.45 15.4 23.4 15.4 23.35 15.35 23.3 15.35 23.25 15.3 23.25 15.3 23.15 15.3 23.1 15.25 23.05 15.25 23.0 15.2 22.95 15.2 22.9 15.2 22.8 15.15 22.55 15.05 22.3 14.95 22.1 14.85 21.9 14.75 21.7 14.65 21.55 14.55 21.4 14.45 21.25 14.35 21.1 14.25 21.05 14.1 20.95 14.0 20.85 13.9 20.8 13.75 20.75 13.65 20.75 13.5 20.75 13.35 20.75 13.25 20.75 13.15 20.75 13.1 20.8 13.0 20.8 12.9 20.8 12.85 20.85 12.75 20.9 12.7 20.9 12.6 20.95 12.55 21.0 12.45 21.05 12.4 21.1 12.35 21.15 12.25 21.2 12.2 21.3 12.15 21.35 12.1 21.45 12.05 21.5 12.0 21.6 11.95 21.65 11.9 21.75 11.85 21.85 11.8 21.95 11.8 22.0 11.75 22.1 11.75 22.2 11.7 22.3 11.7 22.4 11.7 22.5 11.7 22.6 11.65 22.75 11.65 L22.75 11.65" fill="#ffffff" fill-rule="evenodd" stroke="none"/>
    </g>
  </defs>
</svg>
