<?xml version="1.0" encoding="UTF-8" standalone="no"?>
<svg xmlns:ffdec="https://www.free-decompiler.com/flash" xmlns:xlink="http://www.w3.org/1999/xlink" ffdec:objectType="frame" height="26.05px" width="52.95px" xmlns="http://www.w3.org/2000/svg">
  <g transform="matrix(1.0, 0.0, 0.0, 1.0, 0.0, 0.0)">
    <use ffdec:characterId="3" height="26.0" transform="matrix(1.0, 0.0, 0.0, 1.0, 0.0, 0.0)" width="26.0" xlink:href="#shape0"/>
    <use ffdec:characterId="23" height="13.15" transform="matrix(1.0, 0.0, 0.0, 1.0, 10.55, 6.8)" width="6.7" xlink:href="#shape1"/>
    <use ffdec:characterId="177" height="26.0" transform="matrix(1.0, 0.0, 0.0, 1.0, 0.0, 0.0)" width="26.0" xlink:href="#shape2"/>
  </g>
  <defs>
    <g id="shape0" transform="matrix(1.0, 0.0, 0.0, 1.0, 0.0, 0.0)">
      <path d="M22.0 4.0 Q23.05 5.1 23.05 6.6 L23.05 19.4 Q23.05 20.85 22.0 22.0 20.85 23.05 19.4 23.05 L6.6 23.05 Q5.1 23.05 4.0 22.0 2.95 20.9 2.95 19.4 L2.95 6.6 Q2.95 5.1 4.0 4.0 5.1 2.9 6.6 2.9 L19.4 2.9 Q20.9 2.9 22.0 4.0 M26.0 6.6 L26.0 19.4 Q26.0 22.15 24.05 24.05 L23.95 24.15 Q22.1 26.0 19.4 26.0 L6.6 26.0 Q3.9 26.0 1.95 24.05 0.0 22.15 0.0 19.4 L0.0 6.6 Q0.0 3.9 1.95 1.95 3.9 0.0 6.6 0.0 L19.4 0.0 Q22.1 0.0 23.95 1.85 L24.05 1.95 Q26.0 3.9 26.0 6.6 M23.95 3.85 L23.15 2.8 Q21.55 1.3 19.4 1.3 L6.6 1.3 Q4.4 1.3 2.8 2.8 1.3 4.4 1.3 6.6 L1.3 19.4 Q1.3 21.55 2.8 23.15 4.4 24.7 6.6 24.7 L19.4 24.7 Q21.55 24.7 23.15 23.15 L23.95 22.15 Q24.7 20.9 24.7 19.4 L24.7 6.6 Q24.7 5.05 23.95 3.85" fill="#000000" fill-opacity="0.0" fill-rule="evenodd" stroke="none"/>
      <path d="M22.0 4.0 Q20.9 2.9 19.4 2.9 L6.6 2.9 Q5.1 2.9 4.0 4.0 2.95 5.1 2.95 6.6 L2.95 19.4 Q2.95 20.9 4.0 22.0 5.1 23.05 6.6 23.05 L19.4 23.05 Q20.85 23.05 22.0 22.0 23.05 20.85 23.05 19.4 L23.05 6.6 Q23.05 5.1 22.0 4.0 M23.95 3.85 Q24.7 5.05 24.7 6.6 L24.7 19.4 Q24.7 20.9 23.95 22.15 L23.15 23.15 Q21.55 24.7 19.4 24.7 L6.6 24.7 Q4.4 24.7 2.8 23.15 1.3 21.55 1.3 19.4 L1.3 6.6 Q1.3 4.4 2.8 2.8 4.4 1.3 6.6 1.3 L19.4 1.3 Q21.55 1.3 23.15 2.8 L23.95 3.85" fill="#a6a8ab" fill-opacity="0.0" fill-rule="evenodd" stroke="none"/>
    </g>
    <g id="shape1" transform="matrix(1.0, 0.0, 0.0, 1.0, 0.0, 0.0)">
      <path d="M4.35 2.3 Q4.0 1.65 3.35 1.6 2.7 1.65 2.35 2.3 2.0 2.95 1.9 4.1 L1.8 6.6 1.9 9.1 Q2.0 10.2 2.35 10.9 2.7 11.55 3.35 11.55 4.0 11.55 4.35 10.9 L4.8 9.1 4.9 6.6 4.8 4.1 4.35 2.3 M3.35 0.0 Q4.35 0.05 4.95 0.45 L5.95 1.65 6.45 3.3 6.65 5.0 6.7 6.6 6.65 8.15 6.45 9.9 5.95 11.5 4.95 12.7 Q4.35 13.15 3.35 13.15 2.35 13.15 1.75 12.7 1.1 12.25 0.75 11.5 L0.25 9.9 0.05 8.15 0.0 6.6 0.05 5.0 0.25 3.3 Q0.4 2.4 0.75 1.65 1.1 0.9 1.75 0.45 2.35 0.05 3.35 0.0" fill="#000000" fill-opacity="0.0" fill-rule="evenodd" stroke="none"/>
    </g>
    <g id="shape2" transform="matrix(1.0, 0.0, 0.0, 1.0, 0.0, 0.0)">
      <path d="M4.0 3.0 Q3.9 3.0 3.8 3.0 3.7 3.05 3.6 3.1 3.5 3.1 3.45 3.15 3.35 3.2 3.3 3.3 3.2 3.35 3.15 3.45 3.1 3.5 3.1 3.6 3.05 3.7 3.0 3.8 3.0 3.9 3.0 4.0 L3.0 22.0 Q3.0 22.1 3.0 22.2 3.05 22.3 3.1 22.4 3.1 22.5 3.15 22.55 3.2 22.65 3.3 22.7 3.35 22.8 3.45 22.85 3.5 22.9 3.6 22.9 3.7 22.95 3.8 23.0 3.9 23.0 4.0 23.0 L22.0 23.0 Q22.1 23.0 22.2 23.0 22.3 22.95 22.4 22.9 22.5 22.9 22.55 22.85 22.65 22.8 22.7 22.7 22.8 22.65 22.85 22.55 22.9 22.5 22.9 22.4 22.95 22.3 23.0 22.2 23.0 22.1 23.0 22.0 L23.0 4.0 Q23.0 3.9 23.0 3.8 22.95 3.7 22.9 3.6 22.9 3.5 22.85 3.45 22.8 3.35 22.7 3.3 22.65 3.2 22.55 3.15 22.5 3.1 22.4 3.1 22.3 3.05 22.2 3.0 22.1 3.0 22.0 3.0 L4.0 3.0 4.0 3.0 M13.0 8.3 Q13.1 8.3 13.25 8.3 13.35 8.3 13.45 8.3 13.6 8.35 13.7 8.35 13.85 8.35 13.95 8.4 14.05 8.4 14.15 8.45 14.3 8.45 14.4 8.5 14.5 8.55 14.6 8.55 14.75 8.6 14.85 8.65 14.95 8.7 15.05 8.75 15.15 8.8 15.3 8.85 15.4 8.9 15.5 8.95 15.6 9.0 15.7 9.1 15.8 9.15 15.85 9.2 15.95 9.3 16.05 9.35 16.15 9.45 16.25 9.5 16.35 9.6 16.4 9.65 16.5 9.75 16.55 9.85 16.65 9.9 16.75 10.0 16.8 10.1 16.9 10.2 16.95 10.3 17.0 10.4 17.1 10.5 17.15 10.55 17.2 10.65 17.25 10.75 17.3 10.9 17.35 11.0 17.4 11.1 17.45 11.2 17.5 11.3 17.55 11.4 17.55 11.5 17.6 11.65 17.65 11.75 17.65 11.85 17.7 11.95 17.7 12.1 17.75 12.2 17.75 12.3 17.75 12.4 17.8 12.55 17.8 12.65 17.8 12.8 17.8 12.9 17.8 13.0 17.8 13.1 17.8 13.25 17.8 13.35 17.8 13.5 17.75 13.6 17.75 13.7 17.75 13.85 17.7 13.95 17.7 14.05 17.65 14.2 17.65 14.3 17.6 14.4 17.55 14.5 17.55 14.6 17.5 14.75 17.45 14.85 17.4 14.95 17.35 15.05 17.3 15.15 17.25 15.25 17.2 15.35 17.15 15.45 17.1 15.55 17.0 15.65 16.95 15.75 16.9 15.85 16.8 15.9 16.75 16.0 16.65 16.1 16.6 16.2 16.5 16.25 16.4 16.35 16.3 16.45 16.25 16.5 16.15 16.6 16.05 16.65 15.95 16.75 15.85 16.8 15.75 16.9 15.7 16.95 15.6 17.0 15.5 17.05 15.4 17.15 15.25 17.2 15.15 17.25 15.05 17.3 14.95 17.35 14.85 17.4 14.75 17.45 14.6 17.5 14.5 17.5 14.4 17.55 14.3 17.6 14.15 17.6 14.05 17.65 13.95 17.65 13.8 17.65 13.7 17.7 13.6 17.7 13.45 17.7 13.35 17.75 13.25 17.75 13.1 17.75 13.0 17.75 12.9 17.75 12.75 17.75 12.65 17.75 12.55 17.7 12.4 17.7 12.3 17.7 12.2 17.65 12.05 17.65 11.95 17.65 11.85 17.6 11.7 17.55 11.6 17.55 11.5 17.5 11.4 17.45 11.25 17.45 11.15 17.4 11.05 17.35 10.95 17.3 10.85 17.25 10.75 17.2 10.65 17.15 10.55 17.05 10.45 17.0 10.35 16.95 10.25 16.9 10.15 16.8 10.05 16.75 9.95 16.65 9.85 16.6 9.75 16.5 9.7 16.45 9.6 16.35 9.5 16.25 9.45 16.2 9.35 16.1 9.3 16.0 9.2 15.9 9.15 15.85 9.05 15.75 9.0 15.65 8.95 15.55 8.85 15.45 8.8 15.35 8.75 15.25 8.7 15.15 8.65 15.05 8.6 14.95 8.55 14.85 8.5 14.75 8.45 14.65 8.45 14.5 8.4 14.4 8.35 14.3 8.35 14.2 8.3 14.05 8.3 13.95 8.25 13.85 8.25 13.7 8.25 13.6 8.2 13.5 8.2 13.35 8.2 13.25 8.2 13.15 8.2 13.0 8.2 12.9 8.2 12.75 8.2 12.65 8.2 12.55 8.25 12.4 8.25 12.3 8.25 12.2 8.3 12.1 8.3 11.95 8.35 11.85 8.35 11.75 8.4 11.65 8.45 11.5 8.45 11.4 8.5 11.3 8.55 11.2 8.6 11.1 8.65 11.0 8.7 10.9 8.75 10.8 8.8 10.7 8.85 10.6 8.95 10.5 9.0 10.4 9.05 10.3 9.15 10.2 9.2 10.1 9.3 10.0 9.35 9.95 9.45 9.85 9.5 9.75 9.6 9.65 9.7 9.55 9.75 9.5 9.85 9.4 9.95 9.35 10.05 9.3 10.15 9.2 10.25 9.15 10.35 9.1 10.45 9.0 10.55 8.95 10.65 8.9 10.75 8.85 10.85 8.8 10.95 8.75 11.05 8.7 11.15 8.65 11.25 8.6 11.4 8.55 11.5 8.55 11.6 8.5 11.7 8.45 11.85 8.45 11.95 8.4 12.05 8.4 12.2 8.35 12.3 8.35 12.4 8.35 12.55 8.3 12.65 8.3 12.75 8.3 12.9 8.3 13.0 8.3 L13.0 8.3 M13.0 9.3 Q12.9 9.3 12.8 9.3 12.7 9.3 12.65 9.3 12.55 9.3 12.45 9.35 12.35 9.35 12.25 9.35 12.2 9.4 12.1 9.4 12.0 9.4 11.9 9.45 11.85 9.5 11.75 9.5 11.65 9.55 11.6 9.55 11.5 9.6 11.45 9.65 11.35 9.65 11.25 9.7 11.2 9.75 11.1 9.8 11.05 9.85 10.95 9.9 10.9 9.95 10.8 10.0 10.75 10.05 10.65 10.15 10.6 10.2 10.5 10.25 10.45 10.3 10.4 10.35 10.35 10.4 10.25 10.5 10.2 10.55 10.15 10.65 10.1 10.7 10.05 10.8 10.0 10.85 9.95 10.95 9.9 11.0 9.85 11.1 9.8 11.2 9.75 11.25 9.7 11.35 9.65 11.4 9.6 11.5 9.6 11.6 9.55 11.7 9.55 11.75 9.5 11.85 9.45 11.95 9.45 12.0 9.4 12.1 9.4 12.2 9.4 12.3 9.35 12.35 9.35 12.45 9.35 12.55 9.35 12.65 9.3 12.75 9.3 12.85 9.3 12.9 9.3 13.0 9.3 13.1 9.3 13.2 9.3 13.3 9.3 13.4 9.35 13.45 9.35 13.55 9.35 13.65 9.4 13.75 9.4 13.85 9.4 13.9 9.45 14.0 9.45 14.1 9.5 14.2 9.5 14.25 9.55 14.35 9.6 14.45 9.65 14.55 9.65 14.6 9.7 14.7 9.75 14.75 9.8 14.85 9.85 14.9 9.9 15.0 9.95 15.05 9.95 15.15 10.05 15.2 10.1 15.3 10.15 15.35 10.2 15.45 10.25 15.5 10.35 15.55 10.4 15.65 10.45 15.7 10.55 15.8 10.6 15.85 10.65 15.9 10.75 15.95 10.8 16.0 10.9 16.05 10.95 16.1 11.05 16.15 11.1 16.2 11.2 16.25 11.25 16.3 11.35 16.35 11.45 16.4 11.5 16.4 11.6 16.45 11.7 16.5 11.75 16.5 11.85 16.55 11.95 16.55 12.0 16.6 12.1 16.6 12.2 16.65 12.3 16.65 12.35 16.7 12.45 16.7 12.55 16.7 12.65 16.7 12.7 16.7 12.8 16.75 12.9 16.75 13.0 16.75 13.1 16.75 13.2 16.75 13.25 16.75 13.35 16.7 13.45 16.7 13.55 16.7 13.65 16.7 13.7 16.65 13.8 16.65 13.9 16.6 14.0 16.6 14.05 16.6 14.15 16.55 14.25 16.5 14.3 16.5 14.4 16.45 14.5 16.4 14.55 16.4 14.65 16.35 14.75 16.3 14.8 16.25 14.9 16.2 14.95 16.15 15.05 16.1 15.1 16.05 15.2 16.0 15.25 15.95 15.35 15.9 15.4 15.85 15.45 15.75 15.55 15.7 15.6 15.65 15.65 15.6 15.75 15.5 15.8 15.45 15.85 15.35 15.9 15.3 15.95 15.2 16.0 15.15 16.05 15.1 16.1 15.0 16.15 14.9 16.2 14.85 16.25 14.75 16.3 14.7 16.35 14.6 16.4 14.5 16.4 14.45 16.45 14.35 16.45 14.3 16.5 14.2 16.55 14.1 16.55 14.0 16.6 13.95 16.6 13.85 16.6 13.75 16.65 13.65 16.65 13.55 16.65 13.5 16.65 13.4 16.7 13.3 16.7 13.2 16.7 13.1 16.7 13.0 16.7 12.9 16.7 12.8 16.7 12.75 16.7 12.65 16.65 12.55 16.65 12.45 16.65 12.35 16.6 12.3 16.6 12.2 16.6 12.1 16.55 12.0 16.55 11.95 16.5 11.85 16.45 11.75 16.45 11.65 16.4 11.6 16.35 11.5 16.35 11.45 16.3 11.35 16.25 11.25 16.2 11.2 16.15 11.1 16.1 11.0 16.05 10.95 16.0 10.85 15.95 10.8 15.9 10.7 15.85 10.65 15.8 10.6 15.75 10.5 15.65 10.45 15.6 10.35 15.55 10.3 15.45 10.25 15.4 10.15 15.35 10.1 15.25 10.05 15.2 10.0 15.1 9.95 15.05 9.9 14.95 9.85 14.9 9.8 14.8 9.75 14.75 9.7 14.65 9.7 14.55 9.65 14.5 9.6 14.4 9.55 14.3 9.5 14.25 9.5 14.15 9.45 14.05 9.45 14.0 9.4 13.9 9.4 13.8 9.4 13.7 9.35 13.65 9.35 13.55 9.35 13.45 9.3 13.35 9.3 13.3 9.3 13.2 9.3 13.1 9.3 13.0 9.3 L13.0 9.3" fill="#ffffff" fill-rule="evenodd" stroke="none"/>
    </g>
  </defs>
</svg>
