<?xml version="1.0" encoding="UTF-8" standalone="no"?>
<svg xmlns:ffdec="https://www.free-decompiler.com/flash" xmlns:xlink="http://www.w3.org/1999/xlink" ffdec:objectType="frame" height="26.05px" width="52.95px" xmlns="http://www.w3.org/2000/svg">
  <g transform="matrix(1.0, 0.0, 0.0, 1.0, 0.0, 0.0)">
    <use ffdec:characterId="119" height="26.0" transform="matrix(1.0, 0.0, 0.0, 1.0, 0.0, 0.0)" width="26.0" xlink:href="#shape0"/>
    <use ffdec:characterId="120" height="12.8" transform="matrix(0.9293, 0.0, 0.0, 0.9326, 7.55, 8.05)" width="13.5" xlink:href="#shape1"/>
    <use ffdec:characterId="255" height="26.0" transform="matrix(1.0, 0.0, 0.0, 1.0, 0.0, 0.0)" width="26.0" xlink:href="#shape2"/>
  </g>
  <defs>
    <g id="shape0" transform="matrix(1.0, 0.0, 0.0, 1.0, 0.0, 0.0)">
      <path d="M24.1 1.95 Q25.15 3.0 25.65 4.35 L25.9 5.45 26.0 6.45 26.0 6.5 26.0 19.5 26.0 19.65 25.75 21.3 Q25.3 22.85 24.1 24.05 22.15 26.0 19.4 26.0 L6.6 26.0 Q3.9 26.0 1.95 24.05 0.0 22.15 0.0 19.4 L0.05 12.05 Q0.4 7.05 4.1 3.6 7.8 0.1 12.85 0.0 L19.4 0.0 Q22.15 0.0 24.1 1.95 M21.95 4.05 Q23.05 5.1 23.05 6.6 L23.05 19.4 Q23.05 20.9 21.95 21.95 20.9 23.05 19.4 23.05 L6.6 23.05 Q5.1 23.05 4.05 21.95 2.95 20.9 2.95 19.4 L3.0 12.15 Q3.35 8.35 6.2 5.7 9.05 3.05 12.9 2.95 L19.4 2.95 Q20.9 2.95 21.95 4.05 M23.1 2.95 Q21.6 1.4 19.4 1.4 L12.85 1.4 Q8.4 1.5 5.1 4.55 1.8 7.65 1.45 12.1 L1.4 19.4 Q1.4 21.55 2.95 23.1 4.45 24.6 6.6 24.6 L19.4 24.6 Q21.6 24.6 23.1 23.1 24.6 21.6 24.6 19.4 L24.6 6.6 Q24.6 4.45 23.1 2.95" fill="#000000" fill-opacity="0.0" fill-rule="evenodd" stroke="none"/>
      <path d="M21.95 4.05 Q20.9 2.95 19.4 2.95 L12.9 2.95 Q9.05 3.05 6.2 5.7 3.35 8.35 3.0 12.15 L2.95 19.4 Q2.95 20.9 4.05 21.95 5.1 23.05 6.6 23.05 L19.4 23.05 Q20.9 23.05 21.95 21.95 23.05 20.9 23.05 19.4 L23.05 6.6 Q23.05 5.1 21.95 4.05 M23.1 2.95 Q24.6 4.45 24.6 6.6 L24.6 19.4 Q24.6 21.6 23.1 23.1 21.6 24.6 19.4 24.6 L6.6 24.6 Q4.45 24.6 2.95 23.1 1.4 21.55 1.4 19.4 L1.45 12.1 Q1.8 7.65 5.1 4.55 8.4 1.5 12.85 1.4 L19.4 1.4 Q21.6 1.4 23.1 2.95" fill="#a6a8ab" fill-opacity="0.0" fill-rule="evenodd" stroke="none"/>
    </g>
    <g id="shape1" transform="matrix(1.0, 0.0, 0.0, 1.0, 0.0, 0.0)">
      <path d="M4.45 8.7 L6.05 0.0 7.55 0.0 8.75 12.8 7.05 12.8 6.6 3.95 4.95 12.8 3.8 12.8 2.15 3.95 2.1 3.95 1.65 12.8 0.0 12.8 1.05 0.0 2.5 0.0 4.35 9.25 4.4 9.25 4.45 8.7 M10.55 0.0 L13.5 0.0 13.5 12.8 11.8 12.8 11.8 1.45 10.55 1.45 10.55 0.0" fill="#000000" fill-opacity="0.0" fill-rule="evenodd" stroke="none"/>
    </g>
    <g id="shape2" transform="matrix(1.0, 0.0, 0.0, 1.0, 0.0, 0.0)">
      <path d="M12.9 3.0 Q12.4 3.0 11.95 3.05 11.5 3.1 11.05 3.2 10.6 3.3 10.15 3.45 9.75 3.55 9.3 3.75 8.9 3.9 8.5 4.1 8.1 4.35 7.7 4.6 7.35 4.85 6.95 5.1 6.6 5.4 6.25 5.75 5.9 6.1 5.55 6.4 5.25 6.75 5.0 7.15 4.7 7.5 4.45 7.9 4.2 8.25 4.0 8.65 3.8 9.05 3.65 9.5 3.5 9.9 3.4 10.35 3.25 10.75 3.15 11.25 3.1 11.7 3.05 12.15 L3.0 19.35 Q3.0 19.55 3.0 19.7 3.05 19.9 3.05 20.1 3.1 20.25 3.15 20.4 3.2 20.6 3.25 20.75 3.35 20.9 3.45 21.05 3.5 21.2 3.6 21.35 3.7 21.5 3.85 21.65 3.95 21.8 4.1 21.9 4.25 22.05 4.35 22.15 4.5 22.3 4.65 22.4 4.8 22.5 4.95 22.55 5.1 22.65 5.25 22.75 5.4 22.8 5.6 22.85 5.75 22.9 5.9 22.95 6.1 22.95 6.25 23.0 6.45 23.0 6.65 23.0 L19.35 23.0 Q19.55 23.0 19.7 23.0 19.9 22.95 20.1 22.95 20.25 22.9 20.4 22.85 20.6 22.8 20.75 22.75 20.9 22.65 21.05 22.55 21.2 22.5 21.35 22.4 21.5 22.3 21.65 22.15 21.8 22.05 21.9 21.9 22.05 21.75 22.15 21.65 22.3 21.5 22.4 21.35 22.5 21.2 22.55 21.05 22.65 20.9 22.75 20.75 22.8 20.6 22.85 20.4 22.9 20.25 22.95 20.1 22.95 19.9 23.0 19.75 23.0 19.55 23.0 19.35 L23.0 6.65 Q23.0 6.45 23.0 6.3 22.95 6.1 22.95 5.9 22.9 5.75 22.85 5.6 22.8 5.4 22.75 5.25 22.65 5.1 22.55 4.95 22.5 4.8 22.4 4.65 22.3 4.5 22.15 4.35 22.05 4.2 21.9 4.1 21.75 3.95 21.65 3.85 21.5 3.7 21.35 3.6 21.2 3.5 21.05 3.45 20.9 3.35 20.75 3.25 20.6 3.2 20.4 3.15 20.25 3.1 20.1 3.05 19.9 3.05 19.75 3.0 19.55 3.0 19.35 3.0 L12.9 3.0 12.9 3.0 M7.45 8.15 L10.6 15.6 13.75 8.15 15.6 17.5 14.55 17.5 13.4 11.4 10.6 17.85 7.8 11.4 6.7 17.5 5.65 17.5 7.45 8.15 7.45 8.15 M18.1 8.6 L20.35 8.6 20.35 17.5 19.3 17.5 19.3 9.5 17.5 9.5 18.1 8.6 18.1 8.6" fill="#ffffff" fill-rule="evenodd" stroke="none"/>
    </g>
  </defs>
</svg>
