<?xml version="1.0" encoding="UTF-8" standalone="no"?>
<svg xmlns:ffdec="https://www.free-decompiler.com/flash" xmlns:xlink="http://www.w3.org/1999/xlink" ffdec:objectType="frame" height="26.05px" width="52.95px" xmlns="http://www.w3.org/2000/svg">
  <g transform="matrix(1.0, 0.0, 0.0, 1.0, 0.0, 0.0)">
    <use ffdec:characterId="3" height="26.0" transform="matrix(1.0, 0.0, 0.0, 1.0, 0.0, 0.0)" width="26.0" xlink:href="#shape0"/>
    <use ffdec:characterId="136" height="12.8" transform="matrix(0.9293, 0.0, 0.0, 0.9326, 8.1, 8.05)" width="12.3" xlink:href="#shape1"/>
    <use ffdec:characterId="274" height="26.0" transform="matrix(1.0, 0.0, 0.0, 1.0, 0.0, 0.0)" width="26.0" xlink:href="#shape2"/>
  </g>
  <defs>
    <g id="shape0" transform="matrix(1.0, 0.0, 0.0, 1.0, 0.0, 0.0)">
      <path d="M22.0 4.0 Q23.05 5.1 23.05 6.6 L23.05 19.4 Q23.05 20.85 22.0 22.0 20.85 23.05 19.4 23.05 L6.6 23.05 Q5.1 23.05 4.0 22.0 2.95 20.9 2.95 19.4 L2.95 6.6 Q2.95 5.1 4.0 4.0 5.1 2.9 6.6 2.9 L19.4 2.9 Q20.9 2.9 22.0 4.0 M26.0 6.6 L26.0 19.4 Q26.0 22.15 24.05 24.05 L23.95 24.15 Q22.1 26.0 19.4 26.0 L6.6 26.0 Q3.9 26.0 1.95 24.05 0.0 22.15 0.0 19.4 L0.0 6.6 Q0.0 3.9 1.95 1.95 3.9 0.0 6.6 0.0 L19.4 0.0 Q22.1 0.0 23.95 1.85 L24.05 1.95 Q26.0 3.9 26.0 6.6 M23.95 3.85 L23.15 2.8 Q21.55 1.3 19.4 1.3 L6.6 1.3 Q4.4 1.3 2.8 2.8 1.3 4.4 1.3 6.6 L1.3 19.4 Q1.3 21.55 2.8 23.15 4.4 24.7 6.6 24.7 L19.4 24.7 Q21.55 24.7 23.15 23.15 L23.95 22.15 Q24.7 20.9 24.7 19.4 L24.7 6.6 Q24.7 5.05 23.95 3.85" fill="#000000" fill-opacity="0.0" fill-rule="evenodd" stroke="none"/>
      <path d="M22.0 4.0 Q20.9 2.9 19.4 2.9 L6.6 2.9 Q5.1 2.9 4.0 4.0 2.95 5.1 2.95 6.6 L2.95 19.4 Q2.95 20.9 4.0 22.0 5.1 23.05 6.6 23.05 L19.4 23.05 Q20.85 23.05 22.0 22.0 23.05 20.85 23.05 19.4 L23.05 6.6 Q23.05 5.1 22.0 4.0 M23.95 3.85 Q24.7 5.05 24.7 6.6 L24.7 19.4 Q24.7 20.9 23.95 22.15 L23.15 23.15 Q21.55 24.7 19.4 24.7 L6.6 24.7 Q4.4 24.7 2.8 23.15 1.3 21.55 1.3 19.4 L1.3 6.6 Q1.3 4.4 2.8 2.8 4.4 1.3 6.6 1.3 L19.4 1.3 Q21.55 1.3 23.15 2.8 L23.95 3.85" fill="#a6a8ab" fill-opacity="0.0" fill-rule="evenodd" stroke="none"/>
    </g>
    <g id="shape1" transform="matrix(1.0, 0.0, 0.0, 1.0, 0.0, 0.0)">
      <path d="M3.05 0.05 L4.1 0.4 4.9 1.4 Q5.2 2.05 5.2 3.25 L5.05 4.6 4.55 5.85 3.45 6.55 5.8 12.8 4.05 12.8 1.7 6.5 1.7 12.8 0.0 12.8 0.0 0.0 2.05 0.0 3.05 0.05 M3.3 2.5 L2.9 1.7 Q2.6 1.4 1.95 1.45 L1.7 1.45 1.7 5.65 Q2.65 5.7 3.05 5.15 3.4 4.6 3.4 3.65 L3.3 2.5 M10.5 9.25 L10.35 8.05 Q10.25 7.5 9.85 7.25 9.45 6.95 8.65 7.0 L8.65 11.35 9.8 11.15 10.35 10.45 10.5 9.25 M10.45 3.35 L10.3 2.4 9.85 1.7 8.95 1.45 8.65 1.45 8.65 5.65 9.8 5.35 10.35 4.55 10.45 3.35 M12.0 4.65 L11.55 5.65 10.5 6.25 10.5 6.3 11.6 6.95 12.15 8.0 12.3 9.3 Q12.35 11.05 11.6 11.95 10.85 12.8 9.1 12.8 L7.05 12.8 7.05 0.0 9.15 0.0 10.95 0.4 Q11.6 0.8 11.85 1.55 12.15 2.35 12.1 3.4 L12.0 4.65" fill="#000000" fill-opacity="0.0" fill-rule="evenodd" stroke="none"/>
    </g>
    <g id="shape2" transform="matrix(1.0, 0.0, 0.0, 1.0, 0.0, 0.0)">
      <path d="M13.0 2.0 Q12.0 2.0 11.0 2.15 10.0 2.3 9.1 2.6 8.2 2.85 7.4 3.3 6.6 3.7 5.95 4.2 5.25 4.7 4.7 5.3 4.15 5.9 3.8 6.6 3.4 7.25 3.2 8.0 3.0 8.75 3.0 9.5 L3.0 10.0 3.0 22.0 Q3.0 22.1 3.0 22.2 3.05 22.3 3.1 22.4 3.1 22.5 3.15 22.55 3.2 22.65 3.3 22.7 3.35 22.8 3.45 22.85 3.5 22.9 3.6 22.9 3.7 22.95 3.8 23.0 3.9 23.0 4.0 23.0 L22.0 23.0 Q22.1 23.0 22.2 23.0 22.3 22.95 22.4 22.9 22.5 22.9 22.55 22.85 22.65 22.8 22.7 22.7 22.8 22.65 22.85 22.55 22.9 22.5 22.9 22.4 22.95 22.3 23.0 22.2 23.0 22.1 23.0 22.0 L23.0 10.0 23.0 9.5 Q23.0 8.75 22.8 8.0 22.6 7.25 22.2 6.6 21.85 5.9 21.3 5.3 20.75 4.7 20.05 4.2 19.4 3.7 18.6 3.3 17.8 2.85 16.9 2.6 16.0 2.3 15.0 2.15 14.0 2.0 13.0 2.0 L13.0 2.0 M6.9 8.5 L9.05 8.5 Q9.15 8.5 9.25 8.5 9.35 8.5 9.45 8.5 9.55 8.5 9.65 8.5 9.75 8.5 9.8 8.55 9.9 8.55 9.95 8.55 10.05 8.55 10.1 8.55 10.2 8.55 10.25 8.6 10.3 8.6 10.35 8.6 10.4 8.6 10.45 8.65 10.5 8.65 10.55 8.65 10.6 8.7 10.65 8.7 10.7 8.7 10.75 8.75 10.8 8.75 10.85 8.8 10.9 8.8 10.95 8.85 10.95 8.85 11.0 8.9 11.05 8.9 11.1 8.95 11.15 9.0 11.2 9.05 11.25 9.05 11.3 9.1 11.35 9.15 11.35 9.2 11.4 9.25 11.45 9.3 11.5 9.35 11.5 9.4 11.55 9.5 11.6 9.55 11.6 9.6 11.65 9.65 11.7 9.75 11.7 9.8 11.75 9.85 11.75 9.95 11.8 10.0 11.8 10.05 11.85 10.15 11.85 10.2 11.85 10.25 11.9 10.35 11.9 10.4 11.9 10.5 11.9 10.55 11.9 10.65 11.95 10.7 11.95 10.8 11.95 10.85 11.95 10.95 11.95 11.1 11.95 11.2 11.9 11.35 11.9 11.45 11.9 11.6 11.85 11.7 11.8 11.8 11.8 11.95 11.75 12.05 11.7 12.15 11.65 12.25 11.6 12.3 11.55 12.4 11.45 12.5 11.4 12.55 11.3 12.65 11.25 12.7 11.15 12.8 11.05 12.85 10.95 12.9 10.85 12.95 10.75 13.0 10.65 13.05 10.55 13.05 10.45 13.1 10.3 13.15 10.2 13.15 10.05 13.15 9.95 13.2 9.8 13.2 9.65 13.2 9.5 13.2 L9.3 13.2 12.75 17.5 11.4 17.5 8.1 13.2 7.95 13.2 7.95 17.5 6.9 17.5 6.9 8.5 M13.65 8.5 L15.5 8.5 Q15.65 8.5 15.75 8.5 15.85 8.5 16.0 8.5 16.1 8.5 16.2 8.5 16.3 8.5 16.4 8.55 16.45 8.55 16.55 8.55 16.65 8.55 16.7 8.55 16.8 8.55 16.85 8.6 16.9 8.6 17.0 8.6 17.05 8.6 17.1 8.65 17.15 8.65 17.2 8.65 17.25 8.7 17.3 8.7 17.35 8.7 17.4 8.75 17.45 8.75 17.5 8.8 17.55 8.8 17.6 8.85 17.65 8.85 17.7 8.9 17.75 8.9 17.8 8.95 17.85 9.0 17.9 9.05 17.95 9.1 18.0 9.1 18.05 9.15 18.1 9.2 18.15 9.25 18.15 9.3 18.2 9.35 18.25 9.4 18.3 9.5 18.35 9.55 18.35 9.6 18.4 9.65 18.45 9.7 18.45 9.75 18.5 9.8 18.5 9.9 18.55 9.95 18.55 10.0 18.6 10.1 18.6 10.15 18.6 10.2 18.65 10.3 18.65 10.35 18.65 10.45 18.65 10.5 18.7 10.55 18.7 10.65 18.7 10.7 18.7 10.8 18.7 10.85 18.7 10.95 18.7 11.05 18.7 11.1 18.7 11.2 18.65 11.3 18.65 11.35 18.65 11.45 18.6 11.5 18.6 11.6 18.55 11.65 18.55 11.75 18.5 11.8 18.45 11.85 18.45 11.95 18.4 12.0 18.35 12.05 18.3 12.1 18.25 12.15 18.2 12.2 18.15 12.3 18.1 12.35 18.05 12.4 18.0 12.4 17.95 12.45 17.85 12.5 17.8 12.55 17.75 12.6 17.65 12.6 17.6 12.65 17.5 12.7 17.45 12.7 17.35 12.75 17.45 12.75 17.55 12.8 17.65 12.8 17.75 12.85 17.85 12.85 17.9 12.9 18.0 12.95 18.05 12.95 18.15 13.0 18.25 13.05 18.3 13.1 18.35 13.2 18.45 13.25 18.5 13.3 18.55 13.35 18.6 13.45 18.65 13.5 18.7 13.6 18.75 13.7 18.8 13.75 18.85 13.85 18.9 13.95 18.95 14.0 18.95 14.1 19.0 14.2 19.0 14.3 19.05 14.4 19.05 14.5 19.05 14.6 19.1 14.7 19.1 14.85 19.1 14.95 19.1 15.0 19.1 15.1 19.1 15.15 19.1 15.2 19.05 15.3 19.05 15.35 19.05 15.4 19.05 15.45 19.05 15.55 19.0 15.6 19.0 15.65 19.0 15.75 18.95 15.8 18.95 15.85 18.9 15.9 18.9 15.95 18.85 16.0 18.85 16.1 18.8 16.15 18.8 16.2 18.75 16.25 18.75 16.3 18.7 16.35 18.65 16.45 18.6 16.5 18.6 16.55 18.55 16.6 18.5 16.65 18.45 16.7 18.45 16.75 18.4 16.75 18.35 16.8 18.3 16.85 18.25 16.9 18.2 16.95 18.15 17.0 18.1 17.05 18.05 17.05 18.0 17.1 17.9 17.15 17.85 17.15 17.8 17.2 17.75 17.25 17.65 17.25 17.6 17.3 17.55 17.3 17.45 17.35 17.4 17.35 17.35 17.35 17.25 17.4 17.15 17.4 17.1 17.4 17.0 17.45 16.9 17.45 16.75 17.45 16.65 17.45 16.55 17.45 16.4 17.5 16.3 17.5 16.15 17.5 16.0 17.5 15.85 17.5 15.7 17.5 15.5 17.5 L13.65 17.5 13.65 8.5 M7.95 9.4 L7.95 12.4 8.75 12.4 Q8.9 12.4 9.05 12.4 9.2 12.4 9.35 12.4 9.45 12.4 9.6 12.35 9.7 12.35 9.8 12.35 9.9 12.3 10.0 12.3 10.1 12.25 10.2 12.25 10.25 12.2 10.35 12.15 10.4 12.15 10.45 12.1 10.5 12.05 10.55 12.0 10.6 11.95 10.65 11.9 10.7 11.85 10.7 11.8 10.75 11.7 10.75 11.65 10.8 11.6 10.8 11.5 10.85 11.4 10.85 11.35 10.85 11.25 10.85 11.15 10.9 11.05 10.9 10.95 10.9 10.85 10.9 10.75 10.9 10.65 10.85 10.55 10.85 10.45 10.8 10.4 10.8 10.3 10.75 10.25 10.75 10.15 10.7 10.1 10.65 10.0 10.65 9.95 10.6 9.9 10.55 9.85 10.5 9.8 10.45 9.75 10.4 9.7 10.35 9.65 10.25 9.65 10.2 9.6 10.1 9.55 10.0 9.55 9.9 9.5 9.8 9.5 9.7 9.45 9.6 9.45 9.45 9.45 9.35 9.45 9.2 9.4 9.05 9.4 8.95 9.4 8.75 9.4 L7.95 9.4 M14.7 9.45 L14.7 12.45 15.5 12.45 Q15.65 12.45 15.8 12.45 15.9 12.45 16.05 12.4 16.15 12.4 16.3 12.4 16.4 12.4 16.5 12.35 16.6 12.35 16.7 12.3 16.8 12.3 16.85 12.25 16.95 12.2 17.0 12.2 17.1 12.15 17.15 12.1 17.2 12.05 17.25 12.0 17.3 11.95 17.35 11.9 17.4 11.85 17.4 11.8 17.45 11.75 17.5 11.65 17.5 11.6 17.55 11.5 17.55 11.45 17.55 11.35 17.6 11.25 17.6 11.2 17.6 11.1 17.6 11.0 17.6 10.9 17.6 10.8 17.6 10.7 17.55 10.6 17.55 10.5 17.55 10.4 17.5 10.35 17.5 10.25 17.45 10.2 17.45 10.1 17.4 10.05 17.35 10.0 17.3 9.9 17.25 9.85 17.2 9.8 17.15 9.8 17.1 9.75 17.05 9.7 16.95 9.65 16.9 9.65 16.8 9.6 16.75 9.55 16.65 9.55 16.55 9.5 16.45 9.5 16.3 9.5 16.2 9.45 16.1 9.45 15.95 9.45 15.8 9.45 15.7 9.45 15.5 9.45 L14.7 9.45 M14.7 13.3 L14.7 16.55 15.5 16.55 Q15.95 16.55 16.25 16.55 16.55 16.55 16.75 16.5 16.8 16.5 16.85 16.5 16.9 16.45 16.95 16.45 17.0 16.45 17.0 16.45 17.05 16.4 17.1 16.4 17.15 16.4 17.15 16.35 17.2 16.35 17.25 16.35 17.25 16.3 17.3 16.3 17.35 16.3 17.35 16.25 17.4 16.25 17.4 16.2 17.45 16.2 17.5 16.15 17.5 16.1 17.55 16.1 17.6 16.05 17.6 16.05 17.65 16.0 17.65 15.95 17.7 15.9 17.7 15.9 17.75 15.85 17.75 15.8 17.8 15.75 17.8 15.7 17.8 15.65 17.85 15.6 17.85 15.55 17.85 15.55 17.9 15.5 17.9 15.45 17.9 15.4 17.9 15.35 17.95 15.3 17.95 15.25 17.95 15.2 17.95 15.15 17.95 15.1 17.95 15.05 17.95 15.0 17.95 14.95 17.95 14.9 17.95 14.85 17.95 14.75 17.95 14.7 17.95 14.65 17.95 14.6 17.9 14.55 17.9 14.5 17.9 14.45 17.9 14.4 17.85 14.35 17.85 14.3 17.85 14.25 17.8 14.2 17.8 14.15 17.75 14.1 17.75 14.05 17.7 14.0 17.7 13.95 17.65 13.9 17.65 13.9 17.6 13.85 17.55 13.8 17.55 13.75 17.5 13.75 17.45 13.7 17.45 13.65 17.4 13.65 17.35 13.6 17.3 13.6 17.25 13.55 17.2 13.5 17.2 13.5 17.15 13.5 17.1 13.45 17.1 13.45 17.05 13.45 17.05 13.45 17.0 13.4 17.0 13.4 16.95 13.4 16.9 13.4 16.9 13.4 16.85 13.35 16.8 13.35 16.8 13.35 16.75 13.35 16.7 13.35 16.65 13.35 16.65 13.35 16.6 13.35 16.55 13.3 16.5 13.3 16.45 13.3 16.4 13.3 16.35 13.3 16.3 13.3 16.25 13.3 16.2 13.3 16.1 13.3 16.05 13.3 16.0 13.3 15.9 13.3 15.85 13.3 L15.5 13.3 14.7 13.3" fill="#ffffff" fill-rule="evenodd" stroke="none"/>
    </g>
  </defs>
</svg>
