<?xml version="1.0" encoding="UTF-8" standalone="no"?>
<svg xmlns:ffdec="https://www.free-decompiler.com/flash" xmlns:xlink="http://www.w3.org/1999/xlink" ffdec:objectType="frame" height="26.05px" width="52.95px" xmlns="http://www.w3.org/2000/svg">
  <g transform="matrix(1.0, 0.0, 0.0, 1.0, 0.0, 0.0)">
    <use ffdec:characterId="3" height="26.0" transform="matrix(1.0, 0.0, 0.0, 1.0, 0.0, 0.0)" width="26.0" xlink:href="#shape0"/>
    <use ffdec:characterId="138" height="12.8" transform="matrix(0.9293, 0.0, 0.0, 0.9326, 8.6, 8.05)" width="11.25" xlink:href="#shape1"/>
    <use ffdec:characterId="280" height="26.0" transform="matrix(1.0, 0.0, 0.0, 1.0, 0.0, 0.0)" width="26.0" xlink:href="#shape2"/>
  </g>
  <defs>
    <g id="shape0" transform="matrix(1.0, 0.0, 0.0, 1.0, 0.0, 0.0)">
      <path d="M22.0 4.0 Q23.05 5.1 23.05 6.6 L23.05 19.4 Q23.05 20.85 22.0 22.0 20.85 23.05 19.4 23.05 L6.6 23.05 Q5.1 23.05 4.0 22.0 2.95 20.9 2.95 19.4 L2.95 6.6 Q2.95 5.1 4.0 4.0 5.1 2.9 6.6 2.9 L19.4 2.9 Q20.9 2.9 22.0 4.0 M26.0 6.6 L26.0 19.4 Q26.0 22.15 24.05 24.05 L23.95 24.15 Q22.1 26.0 19.4 26.0 L6.6 26.0 Q3.9 26.0 1.95 24.05 0.0 22.15 0.0 19.4 L0.0 6.6 Q0.0 3.9 1.95 1.95 3.9 0.0 6.6 0.0 L19.4 0.0 Q22.1 0.0 23.95 1.85 L24.05 1.95 Q26.0 3.9 26.0 6.6 M23.95 3.85 L23.15 2.8 Q21.55 1.3 19.4 1.3 L6.6 1.3 Q4.4 1.3 2.8 2.8 1.3 4.4 1.3 6.6 L1.3 19.4 Q1.3 21.55 2.8 23.15 4.4 24.7 6.6 24.7 L19.4 24.7 Q21.55 24.7 23.15 23.15 L23.95 22.15 Q24.7 20.9 24.7 19.4 L24.7 6.6 Q24.7 5.05 23.95 3.85" fill="#000000" fill-opacity="0.0" fill-rule="evenodd" stroke="none"/>
      <path d="M22.0 4.0 Q20.9 2.9 19.4 2.9 L6.6 2.9 Q5.1 2.9 4.0 4.0 2.95 5.1 2.95 6.6 L2.95 19.4 Q2.95 20.9 4.0 22.0 5.1 23.05 6.6 23.05 L19.4 23.05 Q20.85 23.05 22.0 22.0 23.05 20.85 23.05 19.4 L23.05 6.6 Q23.05 5.1 22.0 4.0 M23.95 3.85 Q24.7 5.05 24.7 6.6 L24.7 19.4 Q24.7 20.9 23.95 22.15 L23.15 23.15 Q21.55 24.7 19.4 24.7 L6.6 24.7 Q4.4 24.7 2.8 23.15 1.3 21.55 1.3 19.4 L1.3 6.6 Q1.3 4.4 2.8 2.8 4.4 1.3 6.6 1.3 L19.4 1.3 Q21.55 1.3 23.15 2.8 L23.95 3.85" fill="#a6a8ab" fill-opacity="0.0" fill-rule="evenodd" stroke="none"/>
    </g>
    <g id="shape1" transform="matrix(1.0, 0.0, 0.0, 1.0, 0.0, 0.0)">
      <path d="M3.3 2.5 L2.9 1.7 Q2.6 1.4 1.95 1.45 L1.7 1.45 1.7 5.65 Q2.65 5.7 3.05 5.15 3.4 4.6 3.4 3.65 L3.3 2.5 M5.1 2.0 L5.1 2.05 5.2 3.25 5.1 4.35 5.05 4.6 4.55 5.85 3.5 6.55 3.45 6.55 5.8 12.8 4.05 12.8 1.7 6.5 1.7 12.8 0.0 12.8 0.0 0.0 2.05 0.0 3.05 0.05 4.1 0.4 4.9 1.4 5.1 2.0 M11.25 0.0 L11.25 1.45 9.35 1.45 9.35 12.8 7.65 12.8 7.65 1.45 5.65 1.45 5.65 0.0 11.25 0.0" fill="#000000" fill-opacity="0.0" fill-rule="evenodd" stroke="none"/>
    </g>
    <g id="shape2" transform="matrix(1.0, 0.0, 0.0, 1.0, 0.0, 0.0)">
      <path d="M4.0 3.0 Q3.9 3.0 3.8 3.0 3.7 3.05 3.6 3.1 3.5 3.1 3.45 3.15 3.35 3.2 3.3 3.3 3.2 3.35 3.15 3.45 3.1 3.5 3.1 3.6 3.05 3.7 3.0 3.8 3.0 3.9 3.0 4.0 L3.0 16.0 3.0 16.5 Q3.0 17.25 3.2 18.0 3.4 18.75 3.8 19.4 4.15 20.1 4.7 20.7 5.25 21.3 5.95 21.8 6.6 22.3 7.4 22.7 8.2 23.15 9.1 23.4 10.0 23.7 11.0 23.85 12.0 24.0 13.0 24.0 14.0 24.0 15.0 23.85 16.0 23.7 16.9 23.4 17.8 23.15 18.6 22.7 19.4 22.3 20.05 21.8 20.75 21.3 21.3 20.7 21.85 20.1 22.2 19.4 22.6 18.75 22.8 18.0 23.0 17.25 23.0 16.5 L23.0 16.0 23.0 4.0 Q23.0 3.9 23.0 3.8 22.95 3.7 22.9 3.6 22.9 3.5 22.85 3.45 22.8 3.35 22.7 3.3 22.65 3.2 22.55 3.15 22.5 3.1 22.4 3.1 22.3 3.05 22.2 3.0 22.1 3.0 22.0 3.0 L4.0 3.0 4.0 3.0 M7.05 8.5 L9.15 8.5 Q9.25 8.5 9.35 8.5 9.45 8.5 9.55 8.5 9.65 8.5 9.75 8.5 9.85 8.5 9.95 8.55 10.0 8.55 10.1 8.55 10.15 8.55 10.25 8.55 10.3 8.55 10.35 8.6 10.4 8.6 10.45 8.6 10.5 8.6 10.55 8.65 10.6 8.65 10.65 8.65 10.7 8.7 10.75 8.7 10.8 8.7 10.85 8.75 10.9 8.75 10.95 8.8 11.0 8.8 11.05 8.85 11.1 8.85 11.15 8.9 11.2 8.9 11.2 8.95 11.25 9.0 11.3 9.05 11.35 9.05 11.4 9.1 11.45 9.15 11.5 9.2 11.55 9.25 11.55 9.3 11.6 9.35 11.65 9.4 11.7 9.5 11.7 9.55 11.75 9.6 11.8 9.65 11.8 9.7 11.85 9.8 11.9 9.85 11.9 9.95 11.9 10.0 11.95 10.05 11.95 10.15 12.0 10.2 12.0 10.25 12.0 10.35 12.0 10.4 12.05 10.5 12.05 10.55 12.05 10.65 12.05 10.7 12.05 10.8 12.05 10.85 12.05 10.95 12.05 11.1 12.05 11.2 12.05 11.35 12.0 11.45 12.0 11.6 11.95 11.7 11.95 11.8 11.9 11.95 11.85 12.05 11.8 12.15 11.75 12.25 11.7 12.3 11.65 12.4 11.6 12.5 11.5 12.55 11.45 12.65 11.35 12.7 11.3 12.8 11.2 12.85 11.1 12.9 11.0 12.95 10.9 13.0 10.8 13.05 10.7 13.05 10.55 13.1 10.45 13.15 10.3 13.15 10.2 13.15 10.05 13.2 9.9 13.2 9.8 13.2 9.65 13.2 L9.45 13.2 12.9 17.5 11.5 17.5 8.25 13.2 8.1 13.2 8.1 17.5 7.05 17.5 7.05 8.5 7.05 8.5 M12.8 8.5 L18.95 8.5 18.95 9.5 16.45 9.5 16.45 17.5 15.35 17.5 15.35 9.5 12.8 9.5 12.8 8.5 12.8 8.5 M8.1 9.4 L8.1 12.4 8.9 12.4 Q9.05 12.4 9.2 12.4 9.35 12.4 9.5 12.4 9.6 12.4 9.7 12.35 9.85 12.35 9.95 12.35 10.05 12.3 10.15 12.3 10.25 12.25 10.3 12.25 10.4 12.2 10.45 12.15 10.55 12.15 10.6 12.1 10.65 12.05 10.7 12.0 10.75 11.95 10.75 11.9 10.8 11.85 10.85 11.8 10.85 11.7 10.9 11.65 10.9 11.6 10.95 11.5 10.95 11.4 11.0 11.35 11.0 11.25 11.0 11.15 11.0 11.05 11.0 10.95 11.0 10.85 11.0 10.75 11.0 10.65 10.95 10.55 10.95 10.45 10.95 10.4 10.9 10.3 10.9 10.25 10.85 10.15 10.85 10.1 10.8 10.0 10.75 9.95 10.7 9.9 10.65 9.85 10.6 9.8 10.55 9.75 10.5 9.7 10.45 9.65 10.35 9.65 10.3 9.6 10.2 9.55 10.1 9.55 10.05 9.5 9.95 9.5 9.85 9.45 9.7 9.45 9.6 9.45 9.45 9.45 9.35 9.4 9.2 9.4 9.05 9.4 8.9 9.4 L8.1 9.4 8.1 9.4" fill="#ffffff" fill-rule="evenodd" stroke="none"/>
    </g>
  </defs>
</svg>
