<?xml version="1.0" encoding="UTF-8" standalone="no"?>
<svg xmlns:ffdec="https://www.free-decompiler.com/flash" xmlns:xlink="http://www.w3.org/1999/xlink" ffdec:objectType="frame" height="26.05px" width="52.95px" xmlns="http://www.w3.org/2000/svg">
  <g transform="matrix(1.0, 0.0, 0.0, 1.0, 0.0, 0.0)">
    <use ffdec:characterId="3" height="26.0" transform="matrix(1.0, 0.0, 0.0, 1.0, 0.0, 0.0)" width="26.0" xlink:href="#shape0"/>
    <use ffdec:characterId="8" height="8.8" transform="matrix(1.2273, 0.0, 0.0, 1.2273, 6.5, 4.6)" width="5.65" xlink:href="#shape1"/>
    <use ffdec:characterId="8" height="8.8" transform="matrix(1.2273, 0.0, 0.0, 1.2273, 5.7, 4.0)" width="5.65" xlink:href="#shape1"/>
    <use ffdec:characterId="9" height="13.1" transform="matrix(1.0, 0.0, 0.0, 1.0, 14.5, 8.1)" width="5.65" xlink:href="#shape2"/>
    <use ffdec:characterId="157" height="26.0" transform="matrix(1.0, 0.0, 0.0, 1.0, 0.0, 0.0)" width="26.0" xlink:href="#shape3"/>
  </g>
  <defs>
    <g id="shape0" transform="matrix(1.0, 0.0, 0.0, 1.0, 0.0, 0.0)">
      <path d="M22.0 4.0 Q23.05 5.1 23.05 6.6 L23.05 19.4 Q23.05 20.85 22.0 22.0 20.85 23.05 19.4 23.05 L6.6 23.05 Q5.1 23.05 4.0 22.0 2.95 20.9 2.95 19.4 L2.95 6.6 Q2.95 5.1 4.0 4.0 5.1 2.9 6.6 2.9 L19.4 2.9 Q20.9 2.9 22.0 4.0 M26.0 6.6 L26.0 19.4 Q26.0 22.15 24.05 24.05 L23.95 24.15 Q22.1 26.0 19.4 26.0 L6.6 26.0 Q3.9 26.0 1.95 24.05 0.0 22.15 0.0 19.4 L0.0 6.6 Q0.0 3.9 1.95 1.95 3.9 0.0 6.6 0.0 L19.4 0.0 Q22.1 0.0 23.95 1.85 L24.05 1.95 Q26.0 3.9 26.0 6.6 M23.95 3.85 L23.15 2.8 Q21.55 1.3 19.4 1.3 L6.6 1.3 Q4.4 1.3 2.8 2.8 1.3 4.4 1.3 6.6 L1.3 19.4 Q1.3 21.55 2.8 23.15 4.4 24.7 6.6 24.7 L19.4 24.7 Q21.55 24.7 23.15 23.15 L23.95 22.15 Q24.7 20.9 24.7 19.4 L24.7 6.6 Q24.7 5.05 23.95 3.85" fill="#000000" fill-opacity="0.0" fill-rule="evenodd" stroke="none"/>
      <path d="M22.0 4.0 Q20.9 2.9 19.4 2.9 L6.6 2.9 Q5.1 2.9 4.0 4.0 2.95 5.1 2.95 6.6 L2.95 19.4 Q2.95 20.9 4.0 22.0 5.1 23.05 6.6 23.05 L19.4 23.05 Q20.85 23.05 22.0 22.0 23.05 20.85 23.05 19.4 L23.05 6.6 Q23.05 5.1 22.0 4.0 M23.95 3.85 Q24.7 5.05 24.7 6.6 L24.7 19.4 Q24.7 20.9 23.95 22.15 L23.15 23.15 Q21.55 24.7 19.4 24.7 L6.6 24.7 Q4.4 24.7 2.8 23.15 1.3 21.55 1.3 19.4 L1.3 6.6 Q1.3 4.4 2.8 2.8 4.4 1.3 6.6 1.3 L19.4 1.3 Q21.55 1.3 23.15 2.8 L23.95 3.85" fill="#a6a8ab" fill-opacity="0.0" fill-rule="evenodd" stroke="none"/>
    </g>
    <g id="shape1" transform="matrix(1.0, 0.0, 0.0, 1.0, 0.0, 0.0)">
      <path d="M2.55 3.65 L2.1 5.05 3.1 5.05 3.55 3.65 2.55 3.65 M4.65 0.0 L5.3 0.0 4.4 2.95 5.65 2.95 5.5 3.65 4.2 3.65 3.75 5.05 5.05 5.05 4.85 5.75 3.5 5.75 2.65 8.8 2.0 8.8 2.9 5.75 1.9 5.75 0.95 8.8 0.3 8.8 1.25 5.75 0.0 5.75 0.2 5.05 1.45 5.05 1.9 3.65 0.65 3.65 0.85 2.95 2.1 2.95 3.0 0.0 3.6 0.0 2.75 2.95 3.75 2.95 4.65 0.0" fill="#000000" fill-opacity="0.0" fill-rule="evenodd" stroke="none"/>
    </g>
    <g id="shape2" transform="matrix(1.0, 0.0, 0.0, 1.0, 0.0, 0.0)">
      <path d="M2.8 0.0 Q3.9 0.0 4.45 0.4 5.05 0.85 5.3 1.6 L5.5 3.3 5.4 4.5 5.05 5.6 4.05 6.3 4.05 6.35 5.1 7.0 5.55 8.05 5.65 9.3 5.4 11.2 Q5.15 12.05 4.5 12.6 3.85 13.1 2.7 13.1 1.25 13.1 0.6 12.35 0.0 11.55 0.0 10.15 L0.0 9.75 1.65 9.75 1.65 10.15 1.75 10.85 2.05 11.35 Q2.3 11.55 2.7 11.6 L3.4 11.3 3.75 10.7 3.9 9.9 3.9 9.2 3.8 8.15 3.35 7.35 Q3.05 7.05 2.4 7.05 L1.9 7.05 1.9 5.5 2.1 5.5 3.2 5.35 3.7 4.7 3.85 3.55 3.8 2.7 3.55 1.9 Q3.35 1.5 2.85 1.5 2.45 1.5 2.2 1.8 2.0 2.05 1.95 2.45 L1.85 3.15 1.85 3.55 0.25 3.55 0.25 3.45 Q0.2 2.45 0.4 1.7 0.55 0.9 1.15 0.45 1.7 0.0 2.8 0.0" fill="#000000" fill-opacity="0.0" fill-rule="evenodd" stroke="none"/>
    </g>
    <g id="shape3" transform="matrix(1.0, 0.0, 0.0, 1.0, 0.0, 0.0)">
      <path d="M4.0 3.0 Q3.9 3.0 3.8 3.0 3.7 3.05 3.6 3.1 3.5 3.1 3.45 3.15 3.35 3.2 3.3 3.3 3.2 3.35 3.15 3.45 3.1 3.5 3.1 3.6 3.05 3.7 3.0 3.8 3.0 3.9 3.0 4.0 L3.0 22.0 Q3.0 22.1 3.0 22.2 3.05 22.3 3.1 22.4 3.1 22.5 3.15 22.55 3.2 22.65 3.3 22.7 3.35 22.8 3.45 22.85 3.5 22.9 3.6 22.9 3.7 22.95 3.8 23.0 3.9 23.0 4.0 23.0 L22.0 23.0 Q22.1 23.0 22.2 23.0 22.3 22.95 22.4 22.9 22.5 22.9 22.55 22.85 22.65 22.8 22.7 22.7 22.8 22.65 22.85 22.55 22.9 22.5 22.9 22.4 22.95 22.3 23.0 22.2 23.0 22.1 23.0 22.0 L23.0 4.0 Q23.0 3.9 23.0 3.8 22.95 3.7 22.9 3.6 22.9 3.5 22.85 3.45 22.8 3.35 22.7 3.3 22.65 3.2 22.55 3.15 22.5 3.1 22.4 3.1 22.3 3.05 22.2 3.0 22.1 3.0 22.0 3.0 L4.0 3.0 4.0 3.0 M13.05 8.4 Q13.2 8.4 13.35 8.4 13.5 8.4 13.65 8.45 13.8 8.45 13.9 8.5 14.05 8.55 14.2 8.55 14.3 8.6 14.4 8.65 14.55 8.7 14.65 8.75 14.75 8.85 14.85 8.9 14.95 8.95 15.05 9.05 15.15 9.15 15.2 9.2 15.3 9.3 15.35 9.4 15.45 9.5 15.5 9.6 15.55 9.7 15.6 9.8 15.65 9.9 15.65 10.05 15.7 10.15 15.7 10.3 15.75 10.4 15.75 10.55 15.75 10.65 15.75 10.8 15.75 10.9 15.75 11.0 15.75 11.1 15.75 11.2 15.7 11.3 15.7 11.35 15.7 11.45 15.65 11.55 15.65 11.6 15.6 11.7 15.55 11.8 15.5 11.85 15.5 11.95 15.45 12.0 15.4 12.1 15.35 12.15 15.3 12.2 15.25 12.3 15.2 12.35 15.1 12.4 15.05 12.45 15.0 12.5 14.9 12.55 14.85 12.6 14.75 12.65 14.7 12.7 14.6 12.75 14.5 12.8 14.45 12.8 14.35 12.85 14.25 12.9 14.15 12.9 14.25 12.9 14.35 12.95 14.45 12.95 14.55 13.0 14.65 13.05 14.7 13.05 14.8 13.1 14.9 13.15 14.95 13.2 15.05 13.25 15.1 13.3 15.15 13.35 15.25 13.4 15.3 13.5 15.35 13.55 15.4 13.65 15.45 13.7 15.5 13.8 15.55 13.85 15.6 13.95 15.65 14.05 15.7 14.1 15.75 14.2 15.75 14.3 15.8 14.4 15.8 14.5 15.85 14.6 15.85 14.7 15.85 14.8 15.85 14.9 15.9 15.0 15.9 15.1 15.9 15.25 15.9 15.4 15.85 15.55 15.85 15.7 15.8 15.85 15.75 15.95 15.75 16.1 15.7 16.2 15.65 16.35 15.55 16.45 15.5 16.55 15.4 16.65 15.35 16.75 15.25 16.85 15.15 16.95 15.05 17.05 14.95 17.15 14.85 17.2 14.75 17.3 14.6 17.35 14.5 17.4 14.4 17.45 14.25 17.5 14.1 17.55 14.0 17.6 13.85 17.65 13.7 17.7 13.5 17.7 13.35 17.7 13.2 17.75 13.05 17.75 12.85 17.75 12.7 17.75 12.55 17.75 12.4 17.75 12.25 17.7 12.1 17.7 12.0 17.65 11.85 17.6 11.75 17.6 11.6 17.55 11.5 17.5 11.35 17.45 11.25 17.4 11.15 17.3 11.05 17.25 10.95 17.2 10.85 17.1 10.75 17.0 10.7 16.95 10.6 16.85 10.55 16.75 10.45 16.65 10.4 16.55 10.35 16.45 10.3 16.35 10.25 16.25 10.25 16.15 10.2 16.0 10.15 15.9 10.15 15.75 10.15 15.65 10.1 15.5 10.1 15.4 L10.1 15.2 11.2 15.2 11.2 15.3 Q11.2 15.4 11.2 15.5 11.2 15.55 11.25 15.65 11.25 15.7 11.3 15.8 11.3 15.85 11.35 15.95 11.35 16.0 11.4 16.05 11.45 16.15 11.45 16.2 11.5 16.25 11.55 16.3 11.6 16.35 11.65 16.4 11.7 16.45 11.75 16.5 11.85 16.55 11.9 16.6 11.95 16.6 12.05 16.65 12.1 16.7 12.2 16.7 12.25 16.75 12.35 16.75 12.45 16.8 12.5 16.8 12.6 16.8 12.7 16.8 12.8 16.8 12.9 16.8 13.0 16.8 13.1 16.8 13.2 16.8 13.3 16.8 13.4 16.75 13.5 16.75 13.6 16.75 13.7 16.7 13.75 16.7 13.85 16.65 13.9 16.6 14.0 16.55 14.05 16.5 14.15 16.45 14.2 16.45 14.25 16.35 14.3 16.3 14.35 16.25 14.4 16.2 14.45 16.1 14.5 16.05 14.55 15.95 14.6 15.9 14.65 15.8 14.65 15.75 14.7 15.65 14.7 15.55 14.7 15.5 14.75 15.4 14.75 15.3 14.75 15.2 14.75 15.1 14.75 15.0 14.75 14.9 14.75 14.8 14.7 14.7 14.7 14.6 14.7 14.5 14.65 14.4 14.65 14.3 14.6 14.25 14.55 14.15 14.5 14.1 14.45 14.0 14.45 13.95 14.35 13.9 14.3 13.8 14.25 13.75 14.2 13.7 14.1 13.65 14.05 13.6 14.0 13.55 13.9 13.5 13.8 13.5 13.75 13.45 13.65 13.45 13.55 13.4 13.45 13.4 13.35 13.35 13.25 13.35 13.15 13.35 13.05 13.35 12.9 13.3 12.8 13.3 12.75 13.3 12.6 13.35 12.55 13.35 12.55 13.35 12.5 13.35 12.5 13.35 L12.5 12.45 Q12.5 12.45 12.6 12.45 12.65 12.45 12.7 12.45 12.75 12.45 12.75 12.45 12.85 12.45 13.0 12.45 13.1 12.45 13.2 12.45 13.3 12.4 13.4 12.4 13.5 12.4 13.6 12.35 13.65 12.35 13.75 12.3 13.85 12.25 13.9 12.25 14.0 12.2 14.05 12.15 14.1 12.1 14.15 12.05 14.2 12.0 14.25 11.95 14.3 11.9 14.35 11.85 14.4 11.75 14.45 11.7 14.5 11.65 14.5 11.55 14.55 11.5 14.55 11.4 14.6 11.3 14.6 11.25 14.65 11.15 14.65 11.05 14.65 10.95 14.65 10.85 14.65 10.75 14.65 10.7 14.65 10.6 14.6 10.5 14.6 10.45 14.6 10.35 14.55 10.3 14.55 10.2 14.5 10.15 14.45 10.1 14.45 10.0 14.4 9.95 14.35 9.9 14.3 9.85 14.25 9.8 14.2 9.75 14.15 9.7 14.1 9.65 14.05 9.6 13.95 9.55 13.9 9.5 13.85 9.5 13.8 9.45 13.7 9.4 13.65 9.4 13.55 9.4 13.5 9.35 13.4 9.35 13.3 9.35 13.2 9.3 13.15 9.3 13.05 9.3 12.95 9.3 12.85 9.3 12.75 9.3 12.65 9.35 12.6 9.35 12.5 9.35 12.4 9.4 12.35 9.4 12.25 9.45 12.2 9.45 12.1 9.5 12.05 9.55 12.0 9.55 11.95 9.6 11.85 9.65 11.8 9.7 11.75 9.75 11.7 9.8 11.65 9.85 11.6 9.9 11.55 9.95 11.55 10.05 11.5 10.1 11.5 10.15 11.45 10.25 11.4 10.3 11.4 10.4 11.4 10.45 11.35 10.55 11.35 10.65 11.35 10.75 11.35 10.8 L10.3 10.8 Q10.3 10.65 10.3 10.5 10.35 10.4 10.35 10.25 10.4 10.15 10.4 10.0 10.45 9.9 10.5 9.8 10.55 9.65 10.6 9.55 10.65 9.45 10.75 9.35 10.8 9.3 10.9 9.2 10.95 9.1 11.05 9.05 11.15 8.95 11.25 8.9 11.35 8.85 11.45 8.75 11.55 8.7 11.7 8.65 11.8 8.6 11.9 8.55 12.05 8.55 12.2 8.5 12.3 8.45 12.45 8.45 12.6 8.45 12.75 8.4 12.9 8.4 13.05 8.4 L13.05 8.4" fill="#ffffff" fill-rule="evenodd" stroke="none"/>
    </g>
  </defs>
</svg>
