<?xml version="1.0" encoding="UTF-8" standalone="no"?>
<svg xmlns:ffdec="https://www.free-decompiler.com/flash" xmlns:xlink="http://www.w3.org/1999/xlink" ffdec:objectType="frame" height="26.05px" width="52.95px" xmlns="http://www.w3.org/2000/svg">
  <g transform="matrix(1.0, 0.0, 0.0, 1.0, 0.0, 0.0)">
    <use ffdec:characterId="3" height="26.0" transform="matrix(1.0, 0.0, 0.0, 1.0, 0.0, 0.0)" width="26.0" xlink:href="#shape0"/>
    <use ffdec:characterId="64" height="12.8" transform="matrix(1.0, 0.0, 0.0, 1.0, 11.3, 7.2)" width="5.25" xlink:href="#shape1"/>
    <use ffdec:characterId="201" height="26.0" transform="matrix(1.0, 0.0, 0.0, 1.0, 0.0, 0.0)" width="26.0" xlink:href="#shape2"/>
  </g>
  <defs>
    <g id="shape0" transform="matrix(1.0, 0.0, 0.0, 1.0, 0.0, 0.0)">
      <path d="M22.0 4.0 Q23.05 5.1 23.05 6.6 L23.05 19.4 Q23.05 20.85 22.0 22.0 20.85 23.05 19.4 23.05 L6.6 23.05 Q5.1 23.05 4.0 22.0 2.95 20.9 2.95 19.4 L2.95 6.6 Q2.95 5.1 4.0 4.0 5.1 2.9 6.6 2.9 L19.4 2.9 Q20.9 2.9 22.0 4.0 M26.0 6.6 L26.0 19.4 Q26.0 22.15 24.05 24.05 L23.95 24.15 Q22.1 26.0 19.4 26.0 L6.6 26.0 Q3.9 26.0 1.95 24.05 0.0 22.15 0.0 19.4 L0.0 6.6 Q0.0 3.9 1.95 1.95 3.9 0.0 6.6 0.0 L19.4 0.0 Q22.1 0.0 23.95 1.85 L24.05 1.95 Q26.0 3.9 26.0 6.6 M23.95 3.85 L23.15 2.8 Q21.55 1.3 19.4 1.3 L6.6 1.3 Q4.4 1.3 2.8 2.8 1.3 4.4 1.3 6.6 L1.3 19.4 Q1.3 21.55 2.8 23.15 4.4 24.7 6.6 24.7 L19.4 24.7 Q21.55 24.7 23.15 23.15 L23.95 22.15 Q24.7 20.9 24.7 19.4 L24.7 6.6 Q24.7 5.05 23.95 3.85" fill="#000000" fill-opacity="0.0" fill-rule="evenodd" stroke="none"/>
      <path d="M22.0 4.0 Q20.9 2.9 19.4 2.9 L6.6 2.9 Q5.1 2.9 4.0 4.0 2.95 5.1 2.95 6.6 L2.95 19.4 Q2.95 20.9 4.0 22.0 5.1 23.05 6.6 23.05 L19.4 23.05 Q20.85 23.05 22.0 22.0 23.05 20.85 23.05 19.4 L23.05 6.6 Q23.05 5.1 22.0 4.0 M23.95 3.85 Q24.7 5.05 24.7 6.6 L24.7 19.4 Q24.7 20.9 23.95 22.15 L23.15 23.15 Q21.55 24.7 19.4 24.7 L6.6 24.7 Q4.4 24.7 2.8 23.15 1.3 21.55 1.3 19.4 L1.3 6.6 Q1.3 4.4 2.8 2.8 4.4 1.3 6.6 1.3 L19.4 1.3 Q21.55 1.3 23.15 2.8 L23.95 3.85" fill="#a6a8ab" fill-opacity="0.0" fill-rule="evenodd" stroke="none"/>
    </g>
    <g id="shape1" transform="matrix(1.0, 0.0, 0.0, 1.0, 0.0, 0.0)">
      <path d="M3.3 8.05 L2.8 7.25 1.6 7.0 1.6 11.35 2.75 11.15 3.3 10.45 3.45 9.25 3.3 8.05 M3.9 0.4 Q4.55 0.8 4.8 1.55 5.1 2.35 5.05 3.4 L4.95 4.65 4.5 5.65 Q4.15 6.05 3.45 6.25 L3.45 6.3 Q4.2 6.5 4.55 6.95 L5.1 8.0 5.25 9.3 Q5.3 11.05 4.55 11.95 3.8 12.8 2.05 12.8 L0.0 12.8 0.0 0.0 2.1 0.0 Q3.25 0.0 3.9 0.4 M3.25 2.4 L2.8 1.7 1.9 1.45 1.6 1.45 1.6 5.65 Q2.4 5.65 2.75 5.35 L3.3 4.55 3.4 3.35 3.25 2.4" fill="#000000" fill-opacity="0.0" fill-rule="evenodd" stroke="none"/>
    </g>
    <g id="shape2" transform="matrix(1.0, 0.0, 0.0, 1.0, 0.0, 0.0)">
      <path d="M4.0 3.0 Q3.9 3.0 3.8 3.0 3.7 3.05 3.6 3.1 3.5 3.1 3.45 3.15 3.35 3.2 3.3 3.3 3.2 3.35 3.15 3.45 3.1 3.5 3.1 3.6 3.05 3.7 3.0 3.8 3.0 3.9 3.0 4.0 L3.0 22.0 Q3.0 22.1 3.0 22.2 3.05 22.3 3.1 22.4 3.1 22.5 3.15 22.55 3.2 22.65 3.3 22.7 3.35 22.8 3.45 22.85 3.5 22.9 3.6 22.9 3.7 22.95 3.8 23.0 3.9 23.0 4.0 23.0 L22.0 23.0 Q22.1 23.0 22.2 23.0 22.3 22.95 22.4 22.9 22.5 22.9 22.55 22.85 22.65 22.8 22.7 22.7 22.8 22.65 22.85 22.55 22.9 22.5 22.9 22.4 22.95 22.3 23.0 22.2 23.0 22.1 23.0 22.0 L23.0 4.0 Q23.0 3.9 23.0 3.8 22.95 3.7 22.9 3.6 22.9 3.5 22.85 3.45 22.8 3.35 22.7 3.3 22.65 3.2 22.55 3.15 22.5 3.1 22.4 3.1 22.3 3.05 22.2 3.0 22.1 3.0 22.0 3.0 L4.0 3.0 4.0 3.0 M10.3 8.5 L12.15 8.5 Q12.25 8.5 12.4 8.5 12.5 8.5 12.6 8.5 12.7 8.5 12.8 8.5 12.9 8.5 13.0 8.55 13.1 8.55 13.2 8.55 13.25 8.55 13.35 8.55 13.4 8.55 13.5 8.6 13.55 8.6 13.6 8.6 13.65 8.6 13.7 8.65 13.8 8.65 13.85 8.65 13.9 8.7 13.95 8.7 14.0 8.7 14.05 8.75 14.1 8.75 14.15 8.8 14.2 8.8 14.25 8.85 14.3 8.85 14.35 8.9 14.4 8.9 14.4 8.95 14.45 9.0 14.5 9.05 14.55 9.1 14.6 9.1 14.65 9.15 14.7 9.2 14.75 9.25 14.8 9.3 14.85 9.35 14.9 9.4 14.9 9.5 14.95 9.55 15.0 9.6 15.05 9.65 15.05 9.7 15.1 9.75 15.15 9.8 15.15 9.9 15.2 9.95 15.2 10.0 15.2 10.1 15.25 10.15 15.25 10.2 15.25 10.3 15.3 10.35 15.3 10.45 15.3 10.5 15.3 10.55 15.3 10.65 15.3 10.7 15.35 10.8 15.35 10.85 15.35 10.95 15.35 11.05 15.35 11.1 15.3 11.2 15.3 11.3 15.3 11.35 15.25 11.45 15.25 11.5 15.2 11.6 15.2 11.65 15.15 11.75 15.15 11.8 15.1 11.85 15.05 11.95 15.05 12.0 15.0 12.05 14.95 12.1 14.9 12.15 14.85 12.25 14.8 12.3 14.75 12.35 14.7 12.4 14.65 12.4 14.55 12.45 14.5 12.5 14.45 12.55 14.35 12.6 14.3 12.6 14.25 12.65 14.15 12.7 14.05 12.7 14.0 12.75 14.1 12.75 14.2 12.8 14.3 12.8 14.35 12.85 14.45 12.85 14.55 12.9 14.65 12.95 14.7 12.95 14.8 13.0 14.85 13.05 14.95 13.1 15.0 13.2 15.05 13.25 15.15 13.3 15.2 13.35 15.25 13.45 15.3 13.5 15.35 13.6 15.4 13.7 15.45 13.75 15.5 13.85 15.55 13.95 15.55 14.0 15.6 14.1 15.65 14.2 15.65 14.3 15.7 14.4 15.7 14.5 15.7 14.6 15.7 14.7 15.7 14.85 15.7 14.95 15.7 15.0 15.7 15.1 15.7 15.15 15.7 15.2 15.7 15.3 15.7 15.35 15.7 15.4 15.65 15.45 15.65 15.55 15.65 15.6 15.65 15.65 15.6 15.75 15.6 15.8 15.55 15.85 15.55 15.9 15.5 15.95 15.5 16.0 15.45 16.1 15.45 16.15 15.4 16.2 15.4 16.25 15.35 16.3 15.3 16.35 15.3 16.45 15.25 16.5 15.2 16.55 15.2 16.6 15.15 16.65 15.1 16.7 15.05 16.75 15.0 16.75 15.0 16.8 14.95 16.85 14.9 16.9 14.85 16.95 14.8 17.0 14.75 17.05 14.65 17.05 14.6 17.1 14.55 17.15 14.5 17.15 14.45 17.2 14.35 17.25 14.3 17.25 14.25 17.3 14.15 17.3 14.1 17.35 14.05 17.35 14.0 17.35 13.9 17.4 13.8 17.4 13.7 17.4 13.6 17.45 13.5 17.45 13.4 17.45 13.3 17.45 13.15 17.45 13.05 17.5 12.9 17.5 12.75 17.5 12.65 17.5 12.45 17.5 12.3 17.5 12.15 17.5 L10.3 17.5 10.3 8.5 10.3 8.5 M11.3 9.45 L11.3 12.45 12.15 12.45 Q12.3 12.45 12.45 12.45 12.55 12.45 12.7 12.4 12.8 12.4 12.9 12.4 13.05 12.4 13.15 12.35 13.25 12.35 13.3 12.3 13.4 12.3 13.5 12.25 13.55 12.2 13.65 12.2 13.7 12.15 13.75 12.1 13.8 12.05 13.85 12.0 13.9 11.95 13.95 11.9 14.0 11.85 14.05 11.8 14.1 11.75 14.1 11.65 14.15 11.6 14.15 11.5 14.2 11.45 14.2 11.35 14.2 11.25 14.25 11.2 14.25 11.1 14.25 11.0 14.25 10.9 14.25 10.8 14.25 10.7 14.2 10.6 14.2 10.5 14.2 10.4 14.15 10.35 14.15 10.25 14.1 10.2 14.05 10.1 14.05 10.05 14.0 10.0 13.95 9.9 13.9 9.85 13.85 9.8 13.8 9.8 13.75 9.75 13.7 9.7 13.6 9.65 13.55 9.65 13.45 9.6 13.35 9.55 13.25 9.55 13.15 9.5 13.05 9.5 12.95 9.5 12.85 9.45 12.7 9.45 12.6 9.45 12.45 9.45 12.3 9.45 12.15 9.45 L11.3 9.45 11.3 9.45 M11.3 13.3 L11.3 16.55 12.15 16.55 Q12.55 16.55 12.9 16.55 13.2 16.55 13.4 16.5 13.45 16.5 13.5 16.5 13.55 16.45 13.55 16.45 13.6 16.45 13.65 16.45 13.7 16.4 13.75 16.4 13.75 16.4 13.8 16.35 13.85 16.35 13.85 16.35 13.9 16.3 13.95 16.3 13.95 16.3 14.0 16.25 14.05 16.25 14.05 16.2 14.1 16.2 14.15 16.15 14.15 16.1 14.2 16.1 14.2 16.05 14.25 16.05 14.25 16.0 14.3 15.95 14.3 15.9 14.35 15.9 14.35 15.85 14.4 15.8 14.4 15.75 14.45 15.7 14.45 15.65 14.5 15.6 14.5 15.55 14.5 15.55 14.5 15.5 14.55 15.45 14.55 15.4 14.55 15.35 14.55 15.3 14.55 15.25 14.6 15.2 14.6 15.15 14.6 15.1 14.6 15.05 14.6 15.0 14.6 14.95 14.6 14.9 14.6 14.85 14.6 14.75 14.6 14.7 14.55 14.65 14.55 14.6 14.55 14.55 14.55 14.5 14.55 14.45 14.5 14.4 14.5 14.35 14.5 14.3 14.45 14.25 14.45 14.2 14.4 14.15 14.4 14.1 14.4 14.05 14.35 14.0 14.3 13.95 14.3 13.9 14.25 13.9 14.25 13.85 14.2 13.8 14.15 13.75 14.15 13.75 14.1 13.7 14.05 13.65 14.0 13.65 14.0 13.6 13.95 13.6 13.9 13.55 13.85 13.5 13.8 13.5 13.8 13.5 13.75 13.45 13.75 13.45 13.7 13.45 13.7 13.45 13.65 13.4 13.6 13.4 13.6 13.4 13.55 13.4 13.5 13.4 13.5 13.35 13.45 13.35 13.4 13.35 13.4 13.35 13.35 13.35 13.3 13.35 13.25 13.35 13.25 13.35 13.2 13.3 13.15 13.3 13.1 13.3 13.05 13.3 13.0 13.3 12.95 13.3 12.85 13.3 12.8 13.3 12.75 13.3 12.7 13.3 12.6 13.3 12.55 13.3 12.45 13.3 L12.15 13.3 11.3 13.3 11.3 13.3" fill="#ffffff" fill-rule="evenodd" stroke="none"/>
    </g>
  </defs>
</svg>
