<?xml version="1.0" encoding="UTF-8" standalone="no"?>
<svg xmlns:ffdec="https://www.free-decompiler.com/flash" xmlns:xlink="http://www.w3.org/1999/xlink" ffdec:objectType="frame" height="26.05px" width="52.95px" xmlns="http://www.w3.org/2000/svg">
  <g transform="matrix(1.0, 0.0, 0.0, 1.0, 0.0, 0.0)">
    <use ffdec:characterId="3" height="26.0" transform="matrix(1.0, 0.0, 0.0, 1.0, 0.0, 0.0)" width="26.0" xlink:href="#shape0"/>
    <use ffdec:characterId="69" height="5.4" transform="matrix(1.4167, 0.0, 0.0, 1.4167, 7.5, 5.65)" width="4.25" xlink:href="#shape1"/>
    <use ffdec:characterId="69" height="5.4" transform="matrix(1.4167, 0.0, 0.0, 1.4167, 6.7, 5.05)" width="4.25" xlink:href="#shape1"/>
    <use ffdec:characterId="70" height="2.05" transform="matrix(1.0, 0.0, 0.0, 1.0, 16.45, 19.5)" width="2.0" xlink:href="#shape2"/>
    <use ffdec:characterId="205" height="26.0" transform="matrix(1.0, 0.0, 0.0, 1.0, 0.0, 0.0)" width="26.0" xlink:href="#shape3"/>
  </g>
  <defs>
    <g id="shape0" transform="matrix(1.0, 0.0, 0.0, 1.0, 0.0, 0.0)">
      <path d="M22.0 4.0 Q23.05 5.1 23.05 6.6 L23.05 19.4 Q23.05 20.85 22.0 22.0 20.85 23.05 19.4 23.05 L6.6 23.05 Q5.1 23.05 4.0 22.0 2.95 20.9 2.95 19.4 L2.95 6.6 Q2.95 5.1 4.0 4.0 5.1 2.9 6.6 2.9 L19.4 2.9 Q20.9 2.9 22.0 4.0 M26.0 6.6 L26.0 19.4 Q26.0 22.15 24.05 24.05 L23.95 24.15 Q22.1 26.0 19.4 26.0 L6.6 26.0 Q3.9 26.0 1.95 24.05 0.0 22.15 0.0 19.4 L0.0 6.6 Q0.0 3.9 1.95 1.95 3.9 0.0 6.6 0.0 L19.4 0.0 Q22.1 0.0 23.95 1.85 L24.05 1.95 Q26.0 3.9 26.0 6.6 M23.95 3.85 L23.15 2.8 Q21.55 1.3 19.4 1.3 L6.6 1.3 Q4.4 1.3 2.8 2.8 1.3 4.4 1.3 6.6 L1.3 19.4 Q1.3 21.55 2.8 23.15 4.4 24.7 6.6 24.7 L19.4 24.7 Q21.55 24.7 23.15 23.15 L23.95 22.15 Q24.7 20.9 24.7 19.4 L24.7 6.6 Q24.7 5.05 23.95 3.85" fill="#000000" fill-opacity="0.0" fill-rule="evenodd" stroke="none"/>
      <path d="M22.0 4.0 Q20.9 2.9 19.4 2.9 L6.6 2.9 Q5.1 2.9 4.0 4.0 2.95 5.1 2.95 6.6 L2.95 19.4 Q2.95 20.9 4.0 22.0 5.1 23.05 6.6 23.05 L19.4 23.05 Q20.85 23.05 22.0 22.0 23.05 20.85 23.05 19.4 L23.05 6.6 Q23.05 5.1 22.0 4.0 M23.95 3.85 Q24.7 5.05 24.7 6.6 L24.7 19.4 Q24.7 20.9 23.95 22.15 L23.15 23.15 Q21.55 24.7 19.4 24.7 L6.6 24.7 Q4.4 24.7 2.8 23.15 1.3 21.55 1.3 19.4 L1.3 6.6 Q1.3 4.4 2.8 2.8 4.4 1.3 6.6 1.3 L19.4 1.3 Q21.55 1.3 23.15 2.8 L23.95 3.85" fill="#a6a8ab" fill-opacity="0.0" fill-rule="evenodd" stroke="none"/>
    </g>
    <g id="shape1" transform="matrix(1.0, 0.0, 0.0, 1.0, 0.0, 0.0)">
      <path d="M4.25 2.4 L4.25 3.05 0.0 5.4 0.0 4.65 3.45 2.7 0.0 0.75 0.0 0.0 4.25 2.4" fill="#000000" fill-opacity="0.0" fill-rule="evenodd" stroke="none"/>
    </g>
    <g id="shape2" transform="matrix(1.0, 0.0, 0.0, 1.0, 0.0, 0.0)">
      <path d="M1.0 2.05 Q0.55 2.05 0.3 1.75 0.0 1.45 0.0 1.0 0.0 0.6 0.3 0.3 0.55 0.0 1.0 0.0 1.45 0.0 1.7 0.3 L2.0 1.0 1.7 1.75 1.0 2.05" fill="#000000" fill-opacity="0.0" fill-rule="evenodd" stroke="none"/>
    </g>
    <g id="shape3" transform="matrix(1.0, 0.0, 0.0, 1.0, 0.0, 0.0)">
      <path d="M4.0 3.0 Q3.9 3.0 3.8 3.0 3.7 3.05 3.6 3.1 3.5 3.1 3.45 3.15 3.35 3.2 3.3 3.3 3.2 3.35 3.15 3.45 3.1 3.5 3.1 3.6 3.05 3.7 3.0 3.8 3.0 3.9 3.0 4.0 L3.0 22.0 Q3.0 22.1 3.0 22.2 3.05 22.3 3.1 22.4 3.1 22.5 3.15 22.55 3.2 22.65 3.3 22.7 3.35 22.8 3.45 22.85 3.5 22.9 3.6 22.9 3.7 22.95 3.8 23.0 3.9 23.0 4.0 23.0 L22.0 23.0 Q22.1 23.0 22.2 23.0 22.3 22.95 22.4 22.9 22.5 22.9 22.55 22.85 22.65 22.8 22.7 22.7 22.8 22.65 22.85 22.55 22.9 22.5 22.9 22.4 22.95 22.3 23.0 22.2 23.0 22.1 23.0 22.0 L23.0 4.0 Q23.0 3.9 23.0 3.8 22.95 3.7 22.9 3.6 22.9 3.5 22.85 3.45 22.8 3.35 22.7 3.3 22.65 3.2 22.55 3.15 22.5 3.1 22.4 3.1 22.3 3.05 22.2 3.0 22.1 3.0 22.0 3.0 L4.0 3.0 4.0 3.0 M13.0 16.15 Q13.05 16.15 13.05 16.15 13.1 16.15 13.15 16.15 13.2 16.2 13.2 16.2 13.25 16.2 13.3 16.2 13.3 16.25 13.35 16.25 13.35 16.25 13.4 16.3 13.45 16.3 13.45 16.35 13.5 16.35 13.5 16.4 13.55 16.4 13.55 16.45 13.6 16.45 13.6 16.5 13.65 16.55 13.65 16.55 13.65 16.6 13.7 16.6 13.7 16.65 13.7 16.7 13.7 16.7 13.7 16.75 13.75 16.8 13.75 16.8 13.75 16.85 13.75 16.9 13.75 16.95 13.75 16.95 13.75 17.0 13.75 17.05 13.7 17.1 13.7 17.1 13.7 17.15 13.7 17.2 13.65 17.2 13.65 17.25 13.65 17.25 13.6 17.3 13.6 17.35 13.55 17.35 13.55 17.4 13.5 17.4 13.5 17.45 13.45 17.45 13.45 17.45 13.4 17.5 13.35 17.5 13.35 17.55 13.3 17.55 13.3 17.55 13.25 17.55 13.2 17.6 13.2 17.6 13.15 17.6 13.1 17.6 13.05 17.6 13.05 17.6 13.0 17.6 12.95 17.6 12.9 17.6 12.9 17.6 12.85 17.6 12.8 17.6 12.8 17.6 12.75 17.55 12.7 17.55 12.7 17.55 12.65 17.55 12.6 17.5 12.6 17.5 12.55 17.5 12.55 17.45 12.5 17.45 12.45 17.4 12.45 17.4 12.4 17.35 12.4 17.3 12.35 17.3 12.35 17.25 12.35 17.25 12.3 17.2 12.3 17.2 12.3 17.15 12.3 17.1 12.3 17.1 12.25 17.05 12.25 17.0 12.25 16.95 12.25 16.95 12.25 16.9 12.25 16.85 12.25 16.85 12.25 16.8 12.25 16.75 12.3 16.7 12.3 16.7 12.3 16.65 12.3 16.6 12.35 16.6 12.35 16.55 12.35 16.5 12.4 16.5 12.4 16.45 12.45 16.45 12.45 16.4 12.5 16.4 12.5 16.35 12.55 16.35 12.55 16.3 12.6 16.3 12.65 16.25 12.65 16.25 12.7 16.25 12.7 16.2 12.75 16.2 12.8 16.2 12.8 16.2 12.85 16.2 12.9 16.15 12.9 16.15 12.95 16.15 13.0 16.15 L13.0 16.15" fill="#ffffff" fill-rule="evenodd" stroke="none"/>
    </g>
  </defs>
</svg>
