<?xml version="1.0" encoding="UTF-8" standalone="no"?>
<svg xmlns:ffdec="https://www.free-decompiler.com/flash" xmlns:xlink="http://www.w3.org/1999/xlink" ffdec:objectType="frame" height="26.05px" width="52.95px" xmlns="http://www.w3.org/2000/svg">
  <g transform="matrix(1.0, 0.0, 0.0, 1.0, 0.0, 0.0)">
    <use ffdec:characterId="27" height="26.0" transform="matrix(1.0, 0.0, 0.0, 1.0, 0.0, 0.0)" width="41.75" xlink:href="#shape0"/>
    <use ffdec:characterId="77" height="16.5" transform="matrix(1.0, 0.0, 0.0, 1.0, 10.2, 6.35)" width="22.9" xlink:href="#shape1"/>
    <use ffdec:characterId="211" height="26.0" transform="matrix(1.0, 0.0, 0.0, 1.0, 0.0, 0.0)" width="41.75" xlink:href="#shape2"/>
  </g>
  <defs>
    <g id="shape0" transform="matrix(1.0, 0.0, 0.0, 1.0, 0.0, 0.0)">
      <path d="M41.75 19.4 Q41.75 22.15 39.8 24.05 37.9 26.0 35.15 26.0 L6.55 26.0 Q3.9 26.0 1.95 24.05 0.0 22.15 0.0 19.4 L0.0 6.6 Q0.0 3.9 1.95 1.95 3.9 0.0 6.55 0.0 L35.15 0.0 Q37.9 0.0 39.8 1.95 41.75 3.9 41.75 6.6 L41.75 19.4 M40.45 6.6 Q40.45 4.4 38.9 2.8 37.3 1.3 35.15 1.3 L6.55 1.3 Q4.4 1.3 2.8 2.8 1.3 4.4 1.3 6.6 L1.3 19.4 Q1.3 21.55 2.8 23.15 4.4 24.7 6.55 24.7 L35.15 24.7 Q37.3 24.7 38.9 23.15 40.45 21.55 40.45 19.4 L40.45 6.6" fill="#000000" fill-opacity="0.0" fill-rule="evenodd" stroke="none"/>
      <path d="M35.15 2.9 L6.55 2.9 Q5.1 2.9 3.95 4.0 2.9 5.1 2.9 6.6 L2.9 19.4 Q2.9 20.9 3.95 22.0 5.1 23.05 6.55 23.05 L35.15 23.05 Q36.65 23.05 37.7 22.0 38.8 20.9 38.8 19.4 L38.8 6.6 Q38.8 5.1 37.75 4.0 36.65 2.9 35.15 2.9 M38.9 2.8 Q40.45 4.4 40.45 6.6 L40.45 19.4 Q40.45 21.55 38.9 23.15 37.3 24.7 35.15 24.7 L6.55 24.7 Q4.4 24.7 2.8 23.15 1.3 21.55 1.3 19.4 L1.3 6.6 Q1.3 4.4 2.8 2.8 4.4 1.3 6.55 1.3 L35.15 1.3 Q37.3 1.3 38.9 2.8" fill="#a6a8ab" fill-opacity="0.0" fill-rule="evenodd" stroke="none"/>
      <path d="M38.85 6.6 L38.85 19.4 Q38.85 20.9 37.7 22.0 36.65 23.1 35.15 23.1 L6.6 23.1 Q5.1 23.1 4.0 22.0 2.9 20.9 2.9 19.4 L2.9 6.6 Q2.9 5.1 4.0 4.0 5.1 2.95 6.6 2.95 L35.15 2.95 Q36.65 2.95 37.75 4.0 38.85 5.1 38.85 6.6" fill="#000000" fill-opacity="0.0" fill-rule="evenodd" stroke="none"/>
    </g>
    <g id="shape1" transform="matrix(1.0, 0.0, 0.0, 1.0, 0.0, 0.0)">
      <path d="M8.45 5.7 Q8.0 5.75 7.75 6.1 L7.45 6.95 7.4 7.95 7.4 8.7 7.4 9.45 7.45 10.45 7.75 11.35 Q8.0 11.7 8.45 11.7 L9.05 11.35 9.35 10.45 9.45 9.45 9.45 8.7 9.45 7.95 9.35 6.95 9.05 6.1 Q8.8 5.75 8.45 5.7 M6.0 5.9 Q6.2 5.2 6.65 4.75 7.05 4.3 7.8 4.3 8.35 4.3 8.75 4.6 L9.35 5.35 9.4 5.35 9.4 4.4 11.0 4.4 11.0 13.0 9.4 13.0 9.4 11.9 9.35 11.9 8.8 12.8 7.75 13.15 Q7.05 13.1 6.6 12.65 L6.0 11.4 5.8 9.9 5.75 8.6 5.8 7.3 6.0 5.9 M5.3 0.4 L5.3 1.95 4.8 1.7 4.2 1.6 Q3.5 1.6 3.05 2.0 L2.35 2.95 1.95 4.2 1.85 5.55 1.8 6.65 1.85 8.15 2.15 9.75 Q2.4 10.55 2.9 11.05 3.4 11.55 4.3 11.55 L4.8 11.5 5.3 11.3 5.3 12.8 4.65 13.1 3.95 13.15 Q2.65 13.15 1.85 12.55 1.1 11.95 0.7 11.0 0.3 10.05 0.15 8.9 L0.0 6.8 0.05 5.1 0.35 3.3 Q0.55 2.4 1.0 1.65 1.4 0.9 2.1 0.45 2.8 0.05 3.8 0.0 L4.6 0.1 Q4.95 0.2 5.3 0.4 M17.15 4.8 L17.75 6.0 18.0 7.5 18.0 8.8 18.0 10.1 17.75 11.5 17.1 12.65 Q16.7 13.1 15.95 13.15 L15.0 12.85 14.4 12.05 14.4 16.5 12.8 16.5 12.8 4.4 14.4 4.4 14.4 5.5 15.0 4.6 Q15.35 4.3 16.0 4.3 16.75 4.3 17.15 4.8 M16.0 6.1 L15.35 5.7 Q14.95 5.75 14.7 6.1 14.5 6.45 14.45 6.95 L14.35 7.95 14.35 8.7 14.35 9.45 14.45 10.5 Q14.5 11.0 14.7 11.35 14.95 11.7 15.35 11.7 15.85 11.7 16.05 11.25 L16.35 10.15 16.4 8.7 16.4 7.95 16.3 6.95 16.0 6.1 M21.8 4.35 L22.5 4.65 22.5 6.15 21.9 5.85 21.3 5.7 Q20.85 5.7 20.55 5.95 20.2 6.2 20.2 6.65 20.25 7.15 20.65 7.5 L21.55 8.25 22.45 9.15 Q22.85 9.7 22.9 10.6 22.85 11.75 22.25 12.45 21.6 13.1 20.45 13.15 L19.7 13.05 19.05 12.75 19.05 11.15 19.65 11.55 20.35 11.7 21.15 11.4 21.4 10.65 21.15 9.85 20.5 9.25 19.7 8.65 19.0 7.8 Q18.75 7.35 18.75 6.65 18.75 5.6 19.4 4.95 20.0 4.3 21.05 4.3 L21.8 4.35" fill="#000000" fill-opacity="0.0" fill-rule="evenodd" stroke="none"/>
    </g>
    <g id="shape2" transform="matrix(1.0, 0.0, 0.0, 1.0, 0.0, 0.0)">
      <path d="M4.0 3.0 Q3.9 3.0 3.8 3.0 3.7 3.05 3.6 3.1 3.5 3.1 3.45 3.15 3.35 3.2 3.3 3.3 3.2 3.35 3.15 3.45 3.1 3.5 3.1 3.6 3.05 3.7 3.0 3.8 3.0 3.9 3.0 4.0 L3.0 22.0 Q3.0 22.1 3.0 22.2 3.05 22.3 3.1 22.4 3.1 22.5 3.15 22.55 3.2 22.65 3.3 22.7 3.35 22.8 3.45 22.85 3.5 22.9 3.6 22.9 3.7 22.95 3.8 23.0 3.9 23.0 4.0 23.0 L37.75 23.0 Q37.85 23.0 37.95 23.0 38.05 22.95 38.15 22.9 38.25 22.9 38.3 22.85 38.4 22.8 38.45 22.7 38.55 22.65 38.6 22.55 38.65 22.5 38.65 22.4 38.7 22.3 38.75 22.2 38.75 22.1 38.75 22.0 L38.75 4.0 Q38.75 3.9 38.75 3.8 38.7 3.7 38.65 3.6 38.65 3.5 38.6 3.45 38.55 3.35 38.45 3.3 38.4 3.2 38.3 3.15 38.25 3.1 38.15 3.1 38.05 3.05 37.95 3.0 37.85 3.0 37.75 3.0 L4.0 3.0 4.0 3.0 M11.9 8.3 Q12.0 8.3 12.1 8.3 12.2 8.3 12.3 8.3 12.4 8.3 12.45 8.3 12.55 8.35 12.65 8.35 12.75 8.35 12.85 8.4 12.95 8.4 13.05 8.4 13.15 8.45 13.2 8.45 13.3 8.5 13.4 8.55 13.5 8.55 13.6 8.6 13.7 8.65 13.75 8.65 13.85 8.7 13.95 8.75 14.05 8.8 14.15 8.85 14.2 8.85 14.3 8.9 14.4 8.95 14.5 9.0 14.6 9.1 14.65 9.15 14.75 9.2 14.85 9.25 L14.85 10.65 Q14.75 10.55 14.7 10.5 14.6 10.4 14.5 10.3 14.45 10.25 14.35 10.2 14.25 10.1 14.2 10.05 14.1 10.0 14.0 9.9 13.9 9.85 13.85 9.8 13.75 9.75 13.65 9.7 13.55 9.65 13.45 9.6 13.35 9.55 13.25 9.55 13.2 9.5 13.1 9.45 13.0 9.45 12.9 9.4 12.8 9.4 12.7 9.35 12.6 9.35 12.5 9.35 12.4 9.3 12.3 9.3 12.2 9.3 12.1 9.3 11.95 9.3 11.85 9.3 11.75 9.3 11.65 9.3 11.6 9.3 11.5 9.3 11.4 9.3 11.3 9.35 11.25 9.35 11.15 9.35 11.05 9.35 11.0 9.4 10.9 9.4 10.8 9.45 10.7 9.45 10.65 9.5 10.55 9.55 10.45 9.55 10.35 9.6 10.3 9.65 10.2 9.7 10.15 9.7 10.05 9.75 10.0 9.8 9.9 9.85 9.85 9.9 9.75 9.95 9.7 10.0 9.6 10.05 9.55 10.15 9.5 10.2 9.4 10.25 9.35 10.3 9.3 10.4 9.25 10.45 9.15 10.55 9.1 10.6 9.05 10.65 9.0 10.75 8.95 10.8 8.9 10.85 8.85 10.95 8.8 11.0 8.75 11.1 8.7 11.15 8.65 11.25 8.6 11.35 8.6 11.4 8.55 11.5 8.5 11.55 8.45 11.65 8.45 11.7 8.4 11.8 8.4 11.9 8.35 12.0 8.35 12.1 8.35 12.15 8.3 12.25 8.3 12.35 8.3 12.45 8.3 12.55 8.25 12.65 8.25 12.75 8.25 12.85 8.25 12.95 8.25 13.05 8.25 13.1 8.25 13.2 8.25 13.25 8.25 13.35 8.25 13.4 8.25 13.5 8.3 13.55 8.3 13.65 8.3 13.7 8.3 13.8 8.35 13.85 8.35 13.9 8.35 14.0 8.35 14.05 8.4 14.1 8.4 14.2 8.4 14.25 8.45 14.35 8.45 14.4 8.5 14.45 8.5 14.5 8.55 14.55 8.55 14.65 8.6 14.7 8.65 14.75 8.65 14.8 8.7 14.85 8.7 14.95 8.75 15.0 8.8 15.05 8.85 15.1 8.85 15.15 8.9 15.25 9.0 15.35 9.05 15.45 9.15 15.5 9.2 15.6 9.3 15.7 9.4 15.75 9.45 15.85 9.55 15.9 9.65 16.0 9.75 16.05 9.8 16.1 9.9 16.2 10.0 16.25 10.1 16.3 10.2 16.35 10.3 16.4 10.4 16.45 10.5 16.5 10.6 16.55 10.7 16.55 10.8 16.6 10.9 16.65 11.0 16.65 11.15 16.7 11.25 16.7 11.35 16.7 11.45 16.75 11.55 16.75 11.7 16.75 11.8 16.75 11.9 16.75 12.0 16.75 12.1 16.75 12.2 16.75 12.35 16.75 12.45 16.7 12.55 16.7 12.65 16.7 12.75 16.65 12.85 16.65 12.95 16.6 13.05 16.6 13.15 16.55 13.2 16.5 13.3 16.5 13.4 16.45 13.5 16.4 13.6 16.35 13.7 16.3 13.75 16.25 13.85 16.2 13.95 16.15 14.05 16.1 14.1 16.0 14.2 15.95 14.3 15.9 14.35 15.8 14.45 15.75 14.55 15.65 14.6 15.6 14.7 15.5 14.75 15.4 14.85 15.35 L14.85 16.75 Q14.75 16.8 14.7 16.85 14.6 16.95 14.5 17.0 14.4 17.05 14.35 17.1 14.25 17.15 14.15 17.2 14.05 17.25 13.95 17.25 13.9 17.3 13.8 17.35 13.7 17.4 13.6 17.45 13.5 17.45 13.4 17.5 13.3 17.55 13.2 17.55 13.1 17.6 13.0 17.6 12.9 17.65 12.8 17.65 12.7 17.65 12.6 17.7 12.5 17.7 12.4 17.7 12.3 17.7 12.2 17.7 12.1 17.75 12.0 17.75 11.9 17.75 11.8 17.75 11.7 17.75 11.65 17.75 11.55 17.75 11.45 17.75 11.35 17.7 11.3 17.7 11.2 17.7 11.1 17.7 11.0 17.65 10.95 17.65 10.85 17.65 10.75 17.6 10.7 17.6 10.6 17.6 10.5 17.55 10.4 17.55 10.3 17.5 10.25 17.5 10.15 17.45 10.1 17.4 10.0 17.4 9.9 17.35 9.85 17.3 9.75 17.25 9.7 17.25 9.6 17.2 9.55 17.15 9.45 17.1 9.4 17.05 9.3 17.0 9.25 16.95 9.15 16.9 9.05 16.8 8.9 16.75 8.8 16.65 8.7 16.55 8.6 16.45 8.5 16.35 8.4 16.25 8.3 16.15 8.2 16.05 8.1 15.95 8.0 15.85 7.95 15.7 7.85 15.6 7.8 15.5 7.7 15.35 7.65 15.25 7.6 15.1 7.55 15.0 7.45 14.85 7.45 14.75 7.4 14.6 7.35 14.45 7.3 14.35 7.25 14.2 7.25 14.05 7.2 13.9 7.2 13.75 7.15 13.65 7.15 13.5 7.15 13.35 7.15 13.2 7.15 13.05 7.15 12.9 7.15 12.8 7.15 12.65 7.15 12.55 7.15 12.4 7.2 12.3 7.2 12.15 7.2 12.05 7.25 11.95 7.25 11.8 7.3 11.7 7.35 11.6 7.35 11.5 7.4 11.35 7.45 11.25 7.5 11.15 7.55 11.05 7.6 10.95 7.65 10.85 7.7 10.75 7.75 10.65 7.8 10.55 7.85 10.45 7.9 10.35 8.0 10.25 8.05 10.15 8.15 10.05 8.2 9.95 8.3 9.85 8.35 9.8 8.45 9.7 8.55 9.6 8.65 9.5 8.7 9.45 8.8 9.35 8.9 9.3 9.0 9.2 9.1 9.15 9.15 9.1 9.25 9.05 9.35 8.95 9.45 8.9 9.55 8.85 9.65 8.8 9.75 8.75 9.85 8.7 9.95 8.65 10.05 8.6 10.15 8.55 10.25 8.55 10.4 8.5 10.5 8.45 10.6 8.45 10.7 8.4 10.85 8.4 10.95 8.35 11.05 8.35 11.15 8.35 11.3 8.3 11.4 8.3 11.55 8.3 11.65 8.3 11.75 8.3 11.9 8.3 L11.9 8.3 M18.8 11.65 Q18.9 11.65 18.95 11.65 19.05 11.65 19.15 11.7 19.2 11.7 19.3 11.7 19.4 11.75 19.45 11.75 19.55 11.75 19.6 11.8 19.65 11.8 19.75 11.85 19.8 11.9 19.9 11.9 19.95 11.95 20.0 12.0 20.05 12.05 20.15 12.1 20.2 12.1 20.25 12.15 20.3 12.2 20.35 12.25 20.45 12.35 20.5 12.4 20.55 12.45 20.6 12.5 20.65 12.55 20.7 12.65 20.75 12.7 20.75 12.8 20.8 12.85 20.85 12.95 L20.85 11.9 21.8 11.9 21.8 17.5 20.9 17.5 20.9 16.5 Q20.85 16.55 20.8 16.65 20.75 16.7 20.7 16.8 20.65 16.85 20.6 16.9 20.55 16.95 20.5 17.0 20.45 17.1 20.4 17.15 20.35 17.2 20.25 17.25 20.2 17.3 20.15 17.35 20.1 17.4 20.0 17.4 19.95 17.45 19.85 17.5 19.8 17.5 19.75 17.55 19.65 17.6 19.6 17.6 19.55 17.65 19.45 17.65 19.4 17.7 19.3 17.7 19.25 17.7 19.15 17.7 19.1 17.75 19.0 17.75 18.9 17.75 18.85 17.75 18.7 17.75 18.55 17.75 18.4 17.7 18.25 17.7 18.15 17.65 18.0 17.65 17.85 17.6 17.75 17.55 17.6 17.5 17.5 17.4 17.4 17.35 17.3 17.25 17.2 17.2 17.1 17.1 17.0 17.0 16.9 16.9 16.8 16.8 16.7 16.7 16.65 16.55 16.55 16.45 16.5 16.35 16.45 16.2 16.4 16.1 16.35 15.95 16.3 15.8 16.25 15.65 16.2 15.5 16.2 15.35 16.15 15.2 16.15 15.05 16.15 14.85 16.15 14.7 16.15 14.55 16.15 14.35 16.15 14.2 16.2 14.05 16.2 13.9 16.25 13.75 16.3 13.6 16.35 13.45 16.35 13.3 16.45 13.2 16.5 13.05 16.55 12.95 16.6 12.8 16.7 12.7 16.8 12.6 16.85 12.5 16.95 12.4 17.05 12.3 17.15 12.2 17.25 12.15 17.35 12.05 17.45 12.0 17.6 11.95 17.7 11.9 17.85 11.85 17.95 11.8 18.1 11.75 18.2 11.7 18.35 11.7 18.5 11.7 18.65 11.65 18.8 11.65 L18.8 11.65 M26.7 11.65 Q26.85 11.65 27.0 11.65 27.15 11.7 27.3 11.7 27.4 11.75 27.55 11.8 27.7 11.8 27.8 11.9 27.95 11.95 28.05 12.0 28.15 12.05 28.25 12.15 28.35 12.2 28.45 12.3 28.55 12.4 28.65 12.5 28.75 12.6 28.85 12.7 28.9 12.85 29.0 12.95 29.05 13.05 29.1 13.2 29.15 13.35 29.2 13.45 29.25 13.6 29.3 13.75 29.35 13.9 29.35 14.05 29.4 14.2 29.4 14.35 29.4 14.55 29.4 14.7 29.4 14.85 29.4 15.05 29.4 15.2 29.35 15.35 29.35 15.5 29.3 15.65 29.25 15.8 29.2 15.95 29.15 16.1 29.1 16.2 29.05 16.35 29.0 16.45 28.95 16.6 28.85 16.7 28.75 16.8 28.7 16.9 28.6 17.0 28.5 17.1 28.4 17.2 28.3 17.25 28.2 17.35 28.05 17.4 27.95 17.5 27.85 17.55 27.7 17.6 27.6 17.6 27.45 17.65 27.3 17.7 27.2 17.7 27.05 17.75 26.9 17.75 26.75 17.75 26.65 17.75 26.6 17.75 26.5 17.75 26.4 17.7 26.35 17.7 26.25 17.7 26.15 17.7 26.1 17.65 26.0 17.65 25.95 17.6 25.85 17.6 25.8 17.55 25.75 17.55 25.65 17.5 25.6 17.45 25.55 17.45 25.5 17.4 25.4 17.35 25.35 17.3 25.3 17.25 25.25 17.2 25.2 17.15 25.1 17.1 25.05 17.05 25.0 16.95 24.95 16.9 24.9 16.85 24.85 16.75 24.8 16.7 24.8 16.65 24.75 16.55 24.7 16.5 L24.7 20.25 23.75 20.25 23.75 11.9 24.65 11.9 24.65 12.95 Q24.7 12.85 24.75 12.8 24.8 12.7 24.85 12.65 24.9 12.6 24.95 12.5 25.0 12.45 25.05 12.4 25.1 12.35 25.15 12.3 25.2 12.25 25.25 12.2 25.3 12.15 25.4 12.1 25.45 12.05 25.5 12.0 25.55 11.95 25.65 11.9 25.7 11.9 25.8 11.85 25.85 11.85 25.95 11.8 26.0 11.75 26.1 11.75 26.15 11.75 26.25 11.7 26.3 11.7 26.4 11.7 26.45 11.7 26.55 11.7 26.65 11.65 26.7 11.65 L26.7 11.65 M32.55 11.65 Q32.65 11.65 32.75 11.65 32.8 11.65 32.9 11.7 33.0 11.7 33.05 11.7 33.15 11.7 33.25 11.75 33.3 11.75 33.4 11.8 33.45 11.8 33.55 11.85 33.6 11.85 33.65 11.9 33.75 11.95 33.8 11.95 33.85 12.0 33.95 12.05 34.0 12.05 34.05 12.1 34.1 12.15 34.15 12.2 34.2 12.25 34.25 12.3 34.3 12.35 34.35 12.4 34.4 12.5 34.4 12.55 34.45 12.6 34.5 12.65 34.5 12.7 34.55 12.8 L33.75 13.25 Q33.75 13.2 33.7 13.15 33.7 13.1 33.65 13.1 33.65 13.05 33.6 13.0 33.6 12.95 33.55 12.9 33.55 12.9 33.5 12.85 33.45 12.8 33.4 12.8 33.4 12.75 33.35 12.75 33.3 12.7 33.25 12.65 33.2 12.65 33.15 12.6 33.15 12.6 33.1 12.55 33.05 12.55 33.0 12.55 32.95 12.55 32.9 12.5 32.85 12.5 32.8 12.5 32.75 12.5 32.7 12.5 32.65 12.45 32.6 12.45 32.55 12.45 32.5 12.45 32.45 12.45 32.4 12.45 32.35 12.45 32.3 12.45 32.25 12.5 32.2 12.5 32.15 12.5 32.1 12.5 32.05 12.55 32.0 12.55 32.0 12.6 31.95 12.6 31.9 12.6 31.85 12.65 31.85 12.7 31.8 12.7 31.75 12.75 31.75 12.75 31.7 12.8 31.7 12.85 31.65 12.85 31.65 12.9 31.6 12.95 31.6 12.95 31.6 13.0 31.55 13.05 31.55 13.1 31.55 13.15 31.55 13.15 31.55 13.2 31.55 13.25 31.55 13.3 31.55 13.35 31.55 13.45 31.6 13.5 31.6 13.55 31.65 13.6 31.7 13.65 31.75 13.75 31.8 13.8 31.9 13.85 31.95 13.9 32.05 13.95 32.15 14.0 32.25 14.05 32.4 14.1 32.5 14.15 32.65 14.15 32.7 14.15 32.75 14.2 32.75 14.2 32.8 14.2 32.85 14.25 32.85 14.25 32.9 14.25 32.95 14.25 32.95 14.25 33.0 14.3 33.1 14.35 33.2 14.35 33.3 14.4 33.4 14.45 33.5 14.5 33.6 14.5 33.7 14.55 33.75 14.6 33.85 14.65 33.9 14.7 34.0 14.75 34.05 14.75 34.1 14.8 34.15 14.85 34.2 14.9 34.25 14.95 34.3 15.0 34.35 15.05 34.4 15.1 34.4 15.15 34.45 15.2 34.45 15.25 34.5 15.35 34.5 15.4 34.55 15.45 34.55 15.5 34.6 15.6 34.6 15.65 34.6 15.75 34.6 15.8 34.6 15.85 34.6 15.95 34.6 16.05 34.6 16.15 34.6 16.25 34.55 16.35 34.55 16.4 34.55 16.5 34.5 16.6 34.45 16.65 34.45 16.75 34.4 16.85 34.35 16.9 34.3 17.0 34.25 17.05 34.2 17.1 34.1 17.2 34.05 17.25 34.0 17.3 33.9 17.35 33.8 17.4 33.75 17.45 33.65 17.5 33.55 17.55 33.5 17.6 33.4 17.6 33.3 17.65 33.2 17.65 33.1 17.7 33.0 17.7 32.9 17.7 32.8 17.75 32.7 17.75 32.55 17.75 32.45 17.75 32.35 17.75 32.25 17.75 32.2 17.75 32.1 17.7 32.0 17.7 31.9 17.7 31.85 17.65 31.75 17.65 31.65 17.65 31.6 17.6 31.5 17.55 31.45 17.55 31.35 17.5 31.3 17.5 31.2 17.45 31.15 17.4 31.05 17.35 31.0 17.35 30.95 17.3 30.9 17.25 30.85 17.2 30.8 17.15 30.7 17.05 30.65 17.0 30.6 16.95 30.55 16.9 30.5 16.85 30.45 16.75 30.45 16.7 30.4 16.65 30.35 16.55 L31.15 16.0 Q31.2 16.05 31.2 16.1 31.25 16.15 31.3 16.2 31.3 16.25 31.35 16.3 31.4 16.35 31.45 16.4 31.45 16.45 31.5 16.45 31.55 16.5 31.6 16.55 31.65 16.6 31.65 16.6 31.7 16.65 31.75 16.7 31.8 16.7 31.85 16.75 31.9 16.75 31.95 16.8 32.0 16.8 32.05 16.8 32.1 16.85 32.15 16.85 32.2 16.85 32.25 16.85 32.3 16.9 32.35 16.9 32.4 16.9 32.5 16.9 32.55 16.9 32.6 16.9 32.65 16.9 32.7 16.9 32.75 16.9 32.8 16.9 32.9 16.9 32.95 16.85 33.0 16.85 33.05 16.85 33.05 16.85 33.1 16.8 33.15 16.8 33.2 16.75 33.25 16.75 33.3 16.7 33.35 16.7 33.35 16.65 33.4 16.6 33.4 16.6 33.45 16.55 33.5 16.55 33.5 16.5 33.55 16.45 33.55 16.45 33.6 16.4 33.6 16.35 33.6 16.3 33.65 16.25 33.65 16.25 33.65 16.2 33.65 16.15 33.65 16.1 33.65 16.05 33.65 16.0 33.65 16.0 33.65 15.95 33.65 15.9 33.65 15.85 33.65 15.85 33.6 15.8 33.6 15.8 33.6 15.75 33.6 15.7 33.55 15.7 33.55 15.65 33.5 15.65 33.5 15.6 33.5 15.6 33.45 15.55 33.45 15.55 33.4 15.5 33.35 15.5 33.35 15.45 33.3 15.45 33.25 15.4 33.25 15.4 33.2 15.35 33.15 15.35 33.1 15.3 33.05 15.3 33.0 15.3 32.95 15.25 32.9 15.25 32.85 15.2 32.75 15.2 32.75 15.2 32.6 15.15 32.35 15.05 32.1 14.95 31.9 14.85 31.7 14.75 31.5 14.65 31.35 14.55 31.2 14.45 31.05 14.35 30.95 14.25 30.85 14.1 30.75 14.0 30.7 13.9 30.6 13.75 30.6 13.65 30.55 13.5 30.55 13.35 30.55 13.25 30.55 13.15 30.55 13.1 30.6 13.0 30.6 12.9 30.65 12.85 30.65 12.75 30.7 12.7 30.75 12.6 30.75 12.55 30.8 12.45 30.85 12.4 30.9 12.35 31.0 12.25 31.05 12.2 31.1 12.15 31.15 12.1 31.25 12.05 31.3 12.0 31.4 11.95 31.5 11.9 31.55 11.85 31.65 11.8 31.75 11.8 31.85 11.75 31.95 11.75 32.05 11.7 32.15 11.7 32.25 11.7 32.35 11.7 32.45 11.65 32.55 11.65 L32.55 11.65 M26.55 12.6 Q26.45 12.6 26.35 12.6 26.25 12.6 26.15 12.65 26.05 12.65 25.95 12.7 25.85 12.7 25.75 12.75 25.7 12.8 25.6 12.8 25.5 12.85 25.45 12.9 25.35 12.95 25.3 13.05 25.25 13.1 25.15 13.15 25.1 13.2 25.05 13.3 25.0 13.4 24.95 13.45 24.9 13.55 24.85 13.65 24.8 13.75 24.8 13.8 24.75 13.9 24.75 14.0 24.7 14.15 24.7 14.25 24.7 14.35 24.7 14.45 24.65 14.6 24.65 14.7 24.65 14.8 24.65 14.95 24.65 15.05 24.7 15.15 24.7 15.25 24.75 15.35 24.75 15.45 24.8 15.55 24.85 15.65 24.85 15.75 24.9 15.85 24.95 15.9 25.0 16.0 25.05 16.05 25.15 16.15 25.2 16.2 25.25 16.3 25.35 16.35 25.4 16.4 25.5 16.45 25.55 16.5 25.65 16.55 25.7 16.6 25.8 16.65 25.9 16.7 26.0 16.7 26.05 16.75 26.15 16.75 26.25 16.75 26.35 16.8 26.45 16.8 26.55 16.8 26.65 16.8 26.75 16.8 26.85 16.8 26.95 16.75 27.05 16.75 27.15 16.7 27.25 16.7 27.3 16.65 27.4 16.65 27.5 16.6 27.55 16.55 27.65 16.5 27.7 16.45 27.75 16.4 27.85 16.35 27.9 16.25 27.95 16.2 28.0 16.1 28.05 16.05 28.1 15.95 28.15 15.9 28.2 15.8 28.25 15.75 28.25 15.65 28.3 15.55 28.3 15.45 28.35 15.35 28.35 15.25 28.35 15.15 28.35 15.05 28.4 14.95 28.4 14.8 28.4 14.65 28.4 14.55 28.4 14.45 28.35 14.3 28.35 14.2 28.3 14.1 28.3 14.0 28.25 13.9 28.25 13.8 28.2 13.7 28.15 13.6 28.1 13.5 28.05 13.45 28.0 13.35 27.95 13.25 27.9 13.2 27.85 13.1 27.75 13.05 27.7 13.0 27.65 12.95 27.55 12.9 27.5 12.85 27.4 12.8 27.3 12.75 27.25 12.7 27.15 12.7 27.05 12.65 26.95 12.65 26.85 12.6 26.75 12.6 26.65 12.6 26.55 12.6 L26.55 12.6 M19.0 12.65 Q18.9 12.65 18.8 12.65 18.7 12.65 18.6 12.65 18.5 12.7 18.4 12.7 18.3 12.75 18.25 12.75 18.15 12.8 18.05 12.85 18.0 12.9 17.9 12.95 17.85 13.0 17.8 13.05 17.7 13.1 17.65 13.15 17.6 13.2 17.55 13.3 17.5 13.35 17.45 13.45 17.4 13.55 17.35 13.6 17.3 13.7 17.3 13.8 17.25 13.9 17.25 14.0 17.2 14.1 17.2 14.2 17.2 14.3 17.2 14.4 17.15 14.55 17.15 14.65 17.15 14.8 17.15 14.9 17.15 15.0 17.2 15.15 17.2 15.25 17.25 15.35 17.25 15.45 17.3 15.55 17.3 15.65 17.35 15.75 17.4 15.85 17.45 15.9 17.5 16.0 17.55 16.1 17.6 16.15 17.65 16.25 17.7 16.3 17.8 16.35 17.85 16.45 17.9 16.5 18.0 16.55 18.1 16.55 18.15 16.6 18.25 16.65 18.35 16.7 18.45 16.7 18.5 16.75 18.6 16.75 18.7 16.75 18.8 16.75 18.95 16.8 19.05 16.8 19.15 16.8 19.25 16.8 19.35 16.75 19.45 16.75 19.55 16.75 19.65 16.7 19.75 16.7 19.8 16.65 19.9 16.6 19.95 16.55 20.05 16.55 20.1 16.5 20.2 16.45 20.25 16.35 20.35 16.3 20.4 16.25 20.45 16.2 20.5 16.1 20.55 16.05 20.6 15.95 20.65 15.85 20.7 15.8 20.75 15.7 20.75 15.6 20.8 15.5 20.8 15.4 20.85 15.3 20.85 15.2 20.85 15.1 20.85 14.95 20.9 14.85 20.9 14.75 20.9 14.65 20.9 14.5 20.85 14.4 20.85 14.3 20.85 14.2 20.8 14.1 20.8 14.0 20.75 13.9 20.7 13.8 20.7 13.7 20.65 13.6 20.6 13.5 20.55 13.45 20.5 13.35 20.4 13.3 20.35 13.2 20.3 13.15 20.2 13.05 20.15 13.0 20.1 12.95 20.0 12.9 19.9 12.85 19.85 12.8 19.75 12.75 19.7 12.75 19.6 12.7 19.5 12.7 19.4 12.65 19.3 12.65 19.2 12.65 19.1 12.6 19.0 12.65 L19.0 12.65" fill="#ffffff" fill-rule="evenodd" stroke="none"/>
    </g>
  </defs>
</svg>
