<?xml version="1.0" encoding="UTF-8" standalone="no"?>
<svg xmlns:ffdec="https://www.free-decompiler.com/flash" xmlns:xlink="http://www.w3.org/1999/xlink" ffdec:objectType="frame" height="26.05px" width="52.95px" xmlns="http://www.w3.org/2000/svg">
  <g transform="matrix(1.0, 0.0, 0.0, 1.0, 0.0, 0.0)">
    <use ffdec:characterId="3" height="26.0" transform="matrix(1.0, 0.0, 0.0, 1.0, 0.0, 0.0)" width="26.0" xlink:href="#shape0"/>
    <use ffdec:characterId="86" height="12.95" transform="matrix(1.0, 0.0, 0.0, 1.0, 8.25, 7.05)" width="11.0" xlink:href="#shape1"/>
    <use ffdec:characterId="220" height="26.0" transform="matrix(1.0, 0.0, 0.0, 1.0, 0.0, 0.0)" width="26.0" xlink:href="#shape2"/>
  </g>
  <defs>
    <g id="shape0" transform="matrix(1.0, 0.0, 0.0, 1.0, 0.0, 0.0)">
      <path d="M22.0 4.0 Q23.05 5.1 23.05 6.6 L23.05 19.4 Q23.05 20.85 22.0 22.0 20.85 23.05 19.4 23.05 L6.6 23.05 Q5.1 23.05 4.0 22.0 2.95 20.9 2.95 19.4 L2.95 6.6 Q2.95 5.1 4.0 4.0 5.1 2.9 6.6 2.9 L19.4 2.9 Q20.9 2.9 22.0 4.0 M26.0 6.6 L26.0 19.4 Q26.0 22.15 24.05 24.05 L23.95 24.15 Q22.1 26.0 19.4 26.0 L6.6 26.0 Q3.9 26.0 1.95 24.05 0.0 22.15 0.0 19.4 L0.0 6.6 Q0.0 3.9 1.95 1.95 3.9 0.0 6.6 0.0 L19.4 0.0 Q22.1 0.0 23.95 1.85 L24.05 1.95 Q26.0 3.9 26.0 6.6 M23.95 3.85 L23.15 2.8 Q21.55 1.3 19.4 1.3 L6.6 1.3 Q4.4 1.3 2.8 2.8 1.3 4.4 1.3 6.6 L1.3 19.4 Q1.3 21.55 2.8 23.15 4.4 24.7 6.6 24.7 L19.4 24.7 Q21.55 24.7 23.15 23.15 L23.95 22.15 Q24.7 20.9 24.7 19.4 L24.7 6.6 Q24.7 5.05 23.95 3.85" fill="#000000" fill-opacity="0.0" fill-rule="evenodd" stroke="none"/>
      <path d="M22.0 4.0 Q20.9 2.9 19.4 2.9 L6.6 2.9 Q5.1 2.9 4.0 4.0 2.95 5.1 2.95 6.6 L2.95 19.4 Q2.95 20.9 4.0 22.0 5.1 23.05 6.6 23.05 L19.4 23.05 Q20.85 23.05 22.0 22.0 23.05 20.85 23.05 19.4 L23.05 6.6 Q23.05 5.1 22.0 4.0 M23.95 3.85 Q24.7 5.05 24.7 6.6 L24.7 19.4 Q24.7 20.9 23.95 22.15 L23.15 23.15 Q21.55 24.7 19.4 24.7 L6.6 24.7 Q4.4 24.7 2.8 23.15 1.3 21.55 1.3 19.4 L1.3 6.6 Q1.3 4.4 2.8 2.8 4.4 1.3 6.6 1.3 L19.4 1.3 Q21.55 1.3 23.15 2.8 L23.95 3.85" fill="#a6a8ab" fill-opacity="0.0" fill-rule="evenodd" stroke="none"/>
    </g>
    <g id="shape1" transform="matrix(1.0, 0.0, 0.0, 1.0, 0.0, 0.0)">
      <path d="M4.6 0.15 L4.6 1.6 1.7 1.6 1.7 5.65 4.3 5.65 4.3 7.1 1.7 7.1 1.7 12.95 0.0 12.95 0.0 0.15 4.6 0.15 M7.35 2.5 L7.25 3.4 7.25 4.1 7.25 4.8 7.35 5.6 7.65 6.25 Q7.85 6.55 8.25 6.55 8.65 6.55 8.85 6.25 L9.15 5.55 9.25 4.7 9.25 4.0 9.25 3.3 9.15 2.45 8.85 1.8 Q8.6 1.5 8.25 1.5 7.85 1.5 7.65 1.8 L7.35 2.5 M10.6 1.4 L10.95 2.8 11.0 4.35 10.8 6.85 10.1 9.1 9.1 11.4 8.35 12.95 6.5 12.95 9.05 7.6 9.0 7.55 8.45 7.95 7.7 8.05 Q6.95 8.05 6.55 7.7 L5.85 6.8 5.55 5.55 5.5 4.35 5.55 2.8 Q5.65 2.05 5.9 1.4 6.15 0.75 6.7 0.4 7.25 0.0 8.25 0.0 9.2 0.0 9.75 0.35 L10.6 1.4" fill="#000000" fill-opacity="0.0" fill-rule="evenodd" stroke="none"/>
    </g>
    <g id="shape2" transform="matrix(1.0, 0.0, 0.0, 1.0, 0.0, 0.0)">
      <path d="M4.0 3.0 Q3.9 3.0 3.8 3.0 3.7 3.05 3.6 3.1 3.5 3.1 3.45 3.15 3.35 3.2 3.3 3.3 3.2 3.35 3.15 3.45 3.1 3.5 3.1 3.6 3.05 3.7 3.0 3.8 3.0 3.9 3.0 4.0 L3.0 22.0 Q3.0 22.1 3.0 22.2 3.05 22.3 3.1 22.4 3.1 22.5 3.15 22.55 3.2 22.65 3.3 22.7 3.35 22.8 3.45 22.85 3.5 22.9 3.6 22.9 3.7 22.95 3.8 23.0 3.9 23.0 4.0 23.0 L22.0 23.0 Q22.1 23.0 22.2 23.0 22.3 22.95 22.4 22.9 22.5 22.9 22.55 22.85 22.65 22.8 22.7 22.7 22.8 22.65 22.85 22.55 22.9 22.5 22.9 22.4 22.95 22.3 23.0 22.2 23.0 22.1 23.0 22.0 L23.0 4.0 Q23.0 3.9 23.0 3.8 22.95 3.7 22.9 3.6 22.9 3.5 22.85 3.45 22.8 3.35 22.7 3.3 22.65 3.2 22.55 3.15 22.5 3.1 22.4 3.1 22.3 3.05 22.2 3.0 22.1 3.0 22.0 3.0 L4.0 3.0 4.0 3.0 M16.2 8.4 Q16.35 8.4 16.5 8.4 16.65 8.45 16.8 8.45 16.95 8.5 17.05 8.5 17.2 8.55 17.3 8.6 17.45 8.65 17.55 8.75 17.7 8.8 17.8 8.85 17.9 8.95 18.0 9.05 18.1 9.1 18.2 9.2 18.3 9.3 18.4 9.4 18.45 9.55 18.55 9.65 18.6 9.75 18.65 9.9 18.7 10.05 18.75 10.15 18.8 10.3 18.85 10.45 18.9 10.6 18.9 10.75 18.95 10.9 18.95 11.05 18.95 11.2 18.95 11.35 18.95 11.5 18.95 11.7 18.9 11.85 18.85 12.05 18.8 12.25 18.7 12.45 18.65 12.7 18.55 12.9 18.45 13.15 18.3 13.4 18.15 13.65 18.0 13.9 17.85 14.15 17.65 14.45 17.5 14.75 17.25 15.05 L17.25 15.1 15.15 18.0 14.25 17.5 17.15 13.7 Q17.1 13.75 17.05 13.75 17.0 13.8 17.0 13.8 16.95 13.85 16.9 13.85 16.85 13.9 16.8 13.9 16.75 13.95 16.75 13.95 16.7 13.95 16.65 14.0 16.6 14.0 16.55 14.0 16.5 14.05 16.5 14.05 16.45 14.05 16.4 14.05 16.35 14.1 16.3 14.1 16.25 14.1 16.2 14.1 16.2 14.1 16.15 14.1 16.1 14.15 16.05 14.15 16.0 14.15 15.95 14.15 15.9 14.15 15.85 14.15 15.8 14.15 15.75 14.15 15.6 14.15 15.45 14.15 15.3 14.15 15.2 14.1 15.05 14.1 14.9 14.05 14.8 14.0 14.65 13.95 14.55 13.9 14.45 13.85 14.3 13.8 14.2 13.7 14.1 13.65 14.0 13.55 13.9 13.5 13.8 13.4 13.7 13.3 13.6 13.2 13.55 13.1 13.45 12.95 13.4 12.85 13.35 12.75 13.3 12.6 13.25 12.5 13.2 12.35 13.15 12.25 13.1 12.1 13.1 11.95 13.05 11.8 13.05 11.65 13.05 11.55 13.05 11.35 13.05 11.2 13.05 11.0 13.05 10.85 13.1 10.7 13.15 10.55 13.15 10.4 13.2 10.3 13.25 10.15 13.3 10.0 13.4 9.9 13.45 9.75 13.5 9.65 13.6 9.5 13.7 9.4 13.8 9.3 13.9 9.2 14.0 9.1 14.1 9.0 14.25 8.95 14.35 8.85 14.5 8.8 14.6 8.7 14.75 8.65 14.9 8.6 15.05 8.55 15.2 8.5 15.35 8.5 15.5 8.45 15.7 8.45 15.85 8.4 16.0 8.4 16.2 8.4 L16.2 8.4 M7.05 8.5 L11.8 8.5 11.8 9.5 8.1 9.5 8.1 12.05 11.8 12.05 11.8 13.05 8.1 13.05 8.1 17.5 7.05 17.5 7.05 8.5 7.05 8.5 M16.0 9.3 Q15.9 9.3 15.8 9.3 15.7 9.3 15.6 9.35 15.5 9.35 15.4 9.35 15.35 9.4 15.25 9.45 15.15 9.45 15.1 9.5 15.0 9.55 14.95 9.6 14.85 9.65 14.8 9.7 14.7 9.75 14.65 9.85 14.6 9.9 14.55 10.0 14.5 10.05 14.45 10.15 14.4 10.2 14.35 10.3 14.3 10.4 14.3 10.45 14.25 10.55 14.2 10.65 14.2 10.75 14.2 10.85 14.15 10.95 14.15 11.05 14.15 11.15 14.15 11.25 14.15 11.35 14.15 11.5 14.15 11.6 14.2 11.7 14.2 11.8 14.2 11.9 14.25 12.0 14.3 12.1 14.3 12.2 14.35 12.25 14.4 12.35 14.45 12.45 14.5 12.5 14.55 12.6 14.6 12.65 14.65 12.75 14.7 12.8 14.8 12.85 14.85 12.9 14.95 12.95 15.0 13.0 15.1 13.05 15.15 13.1 15.25 13.15 15.35 13.15 15.45 13.2 15.55 13.2 15.65 13.25 15.75 13.25 15.85 13.25 15.95 13.25 16.05 13.25 16.15 13.25 16.25 13.25 16.35 13.25 16.45 13.2 16.55 13.2 16.6 13.2 16.7 13.15 16.8 13.1 16.85 13.1 16.95 13.05 17.0 13.0 17.1 12.95 17.15 12.9 17.25 12.85 17.3 12.75 17.35 12.7 17.4 12.65 17.45 12.55 17.55 12.5 17.6 12.4 17.65 12.35 17.65 12.25 17.7 12.15 17.75 12.05 17.75 12.0 17.8 11.9 17.8 11.8 17.85 11.7 17.85 11.6 17.85 11.5 17.85 11.4 17.85 11.25 17.85 11.15 17.85 11.05 17.85 10.95 17.85 10.85 17.8 10.75 17.8 10.65 17.75 10.55 17.75 10.45 17.7 10.35 17.65 10.3 17.65 10.2 17.6 10.1 17.55 10.05 17.5 9.95 17.4 9.9 17.35 9.85 17.3 9.8 17.2 9.7 17.15 9.65 17.1 9.6 17.0 9.55 16.95 9.5 16.85 9.45 16.75 9.45 16.7 9.4 16.6 9.35 16.5 9.35 16.4 9.35 16.3 9.3 16.2 9.3 16.1 9.3 16.0 9.3 L16.0 9.3" fill="#ffffff" fill-rule="evenodd" stroke="none"/>
    </g>
  </defs>
</svg>
