<?xml version="1.0" encoding="UTF-8" standalone="no"?>
<svg xmlns:ffdec="https://www.free-decompiler.com/flash" xmlns:xlink="http://www.w3.org/1999/xlink" ffdec:objectType="frame" height="26.05px" width="52.95px" xmlns="http://www.w3.org/2000/svg">
  <g transform="matrix(1.0, 0.0, 0.0, 1.0, 0.0, 0.0)">
    <use ffdec:characterId="1" height="26.0" transform="matrix(1.0, 0.0, 0.0, 1.0, 0.0, 0.0)" width="35.75" xlink:href="#shape0"/>
    <use ffdec:characterId="99" height="12.8" transform="matrix(1.0, 0.0, 0.0, 1.0, 9.7, 7.2)" width="17.9" xlink:href="#shape1"/>
    <use ffdec:characterId="232" height="26.0" transform="matrix(1.0, 0.0, 0.0, 1.0, 0.0, 0.0)" width="35.75" xlink:href="#shape2"/>
  </g>
  <defs>
    <g id="shape0" transform="matrix(1.0, 0.0, 0.0, 1.0, 0.0, 0.0)">
      <path d="M33.7 3.85 L32.9 2.8 Q31.3 1.3 29.15 1.3 L6.6 1.3 Q4.4 1.3 2.8 2.8 1.3 4.4 1.3 6.6 L1.3 19.4 Q1.3 21.55 2.8 23.15 4.4 24.7 6.6 24.7 L29.15 24.7 Q31.3 24.7 32.9 23.15 L33.7 22.15 Q34.45 20.9 34.45 19.4 L34.45 6.6 Q34.45 5.05 33.7 3.85 M33.8 1.95 Q35.75 3.9 35.75 6.6 L35.75 19.4 Q35.75 22.15 33.8 24.05 L33.7 24.15 Q31.85 26.0 29.15 26.0 L6.6 26.0 Q3.9 26.0 1.95 24.05 0.0 22.15 0.0 19.4 L0.0 6.6 Q0.0 3.9 1.95 1.95 3.9 0.0 6.6 0.0 L29.15 0.0 Q31.85 0.0 33.7 1.85 L33.8 1.95" fill="#000000" fill-opacity="0.0" fill-rule="evenodd" stroke="none"/>
      <path d="M34.45 6.6 L34.45 19.4 Q34.45 20.9 33.7 22.15 L32.9 23.15 Q31.3 24.7 29.15 24.7 L6.6 24.7 Q4.4 24.7 2.8 23.15 1.3 21.55 1.3 19.4 L1.3 6.6 Q1.3 4.4 2.8 2.8 4.4 1.3 6.6 1.3 L29.15 1.3 Q31.3 1.3 32.9 2.8 L33.7 3.85 Q34.45 5.05 34.45 6.6 M31.75 4.0 Q30.65 2.9 29.15 2.9 L6.6 2.9 Q5.1 2.9 4.0 4.0 2.95 5.1 2.95 6.6 L2.95 19.4 Q2.95 20.9 4.0 22.0 5.1 23.05 6.6 23.05 L29.15 23.05 Q30.6 23.05 31.75 22.0 32.8 20.85 32.8 19.4 L32.8 6.6 Q32.8 5.1 31.75 4.0" fill="#a6a8ab" fill-opacity="0.0" fill-rule="evenodd" stroke="none"/>
      <path d="M32.8 6.6 L32.8 19.4 Q32.8 20.85 31.75 22.0 30.6 23.05 29.15 23.05 L6.6 23.05 Q5.1 23.05 4.0 22.0 2.95 20.9 2.95 19.4 L2.95 6.6 Q2.95 5.1 4.0 4.0 5.1 2.9 6.6 2.9 L29.15 2.9 Q30.65 2.9 31.75 4.0 32.8 5.1 32.8 6.6" fill="#000000" fill-opacity="0.0" fill-rule="evenodd" stroke="none"/>
    </g>
    <g id="shape1" transform="matrix(1.0, 0.0, 0.0, 1.0, 0.0, 0.0)">
      <path d="M4.65 9.7 L4.25 0.0 5.95 0.0 5.95 12.8 4.35 12.8 1.35 2.9 1.7 12.8 0.0 12.8 0.0 0.0 1.6 0.0 4.6 9.7 4.65 9.7 M12.25 0.45 L13.05 1.5 13.35 3.4 Q13.35 5.35 12.5 6.3 11.65 7.2 9.7 7.1 L9.7 12.8 8.0 12.8 8.0 0.0 10.05 0.0 11.15 0.05 12.25 0.45 M11.15 5.2 Q11.55 4.65 11.55 3.55 L11.4 2.5 10.95 1.7 9.95 1.45 9.7 1.45 9.7 5.7 Q10.75 5.75 11.15 5.2 M14.95 1.45 L14.95 0.0 17.9 0.0 17.9 12.8 16.2 12.8 16.2 1.45 14.95 1.45" fill="#000000" fill-opacity="0.0" fill-rule="evenodd" stroke="none"/>
    </g>
    <g id="shape2" transform="matrix(1.0, 0.0, 0.0, 1.0, 0.0, 0.0)">
      <path d="M4.0 3.0 Q3.9 3.0 3.8 3.0 3.7 3.05 3.6 3.1 3.5 3.1 3.45 3.15 3.35 3.2 3.3 3.3 3.2 3.35 3.15 3.45 3.1 3.5 3.1 3.6 3.05 3.7 3.0 3.8 3.0 3.9 3.0 4.0 L3.0 22.0 Q3.0 22.1 3.0 22.2 3.05 22.3 3.1 22.4 3.1 22.5 3.15 22.55 3.2 22.65 3.3 22.7 3.35 22.8 3.45 22.85 3.5 22.9 3.6 22.9 3.7 22.95 3.8 23.0 3.9 23.0 4.0 23.0 L31.75 23.0 Q31.85 23.0 31.95 23.0 32.05 22.95 32.15 22.9 32.25 22.9 32.3 22.85 32.4 22.8 32.45 22.7 32.55 22.65 32.6 22.55 32.65 22.5 32.65 22.4 32.7 22.3 32.75 22.2 32.75 22.1 32.75 22.0 L32.75 4.0 Q32.75 3.9 32.75 3.8 32.7 3.7 32.65 3.6 32.65 3.5 32.6 3.45 32.55 3.35 32.45 3.3 32.4 3.2 32.3 3.15 32.25 3.1 32.15 3.1 32.05 3.05 31.95 3.0 31.85 3.0 31.75 3.0 L4.0 3.0 4.0 3.0 M8.1 8.15 L14.7 15.35 14.7 8.5 15.7 8.5 15.7 17.85 9.1 10.75 9.1 17.5 8.1 17.5 8.1 8.15 8.1 8.15 M17.85 8.5 L19.75 8.5 Q19.85 8.5 20.0 8.5 20.1 8.5 20.2 8.5 20.3 8.5 20.4 8.5 20.5 8.5 20.6 8.55 20.7 8.55 20.8 8.55 20.85 8.55 20.95 8.55 21.0 8.55 21.1 8.6 21.15 8.6 21.2 8.6 21.25 8.6 21.3 8.65 21.35 8.65 21.45 8.65 21.5 8.7 21.55 8.7 21.6 8.7 21.65 8.75 21.7 8.75 21.75 8.8 21.8 8.8 21.85 8.85 21.9 8.85 21.9 8.9 21.95 8.9 22.0 8.95 22.05 9.0 22.1 9.05 22.15 9.05 22.2 9.1 22.25 9.15 22.3 9.2 22.35 9.25 22.4 9.3 22.45 9.35 22.45 9.4 22.5 9.5 22.55 9.55 22.6 9.6 22.6 9.65 22.65 9.7 22.7 9.8 22.75 9.85 22.75 9.95 22.8 10.0 22.8 10.05 22.8 10.15 22.85 10.2 22.85 10.3 22.85 10.35 22.9 10.45 22.9 10.5 22.9 10.6 22.9 10.65 22.9 10.75 22.9 10.8 22.95 10.9 22.95 11.0 22.95 11.1 22.95 11.15 22.95 11.25 22.9 11.3 22.9 11.4 22.9 11.45 22.9 11.55 22.85 11.6 22.85 11.7 22.85 11.75 22.8 11.8 22.8 11.9 22.75 11.95 22.75 12.05 22.7 12.1 22.7 12.15 22.65 12.2 22.65 12.3 22.6 12.35 22.55 12.4 22.5 12.45 22.5 12.55 22.45 12.6 22.4 12.65 22.35 12.7 22.3 12.75 22.25 12.8 22.2 12.85 22.15 12.9 22.1 12.95 22.05 12.95 22.0 13.0 21.95 13.05 21.9 13.05 21.85 13.1 21.85 13.1 21.8 13.15 21.75 13.15 21.7 13.2 21.65 13.2 21.6 13.25 21.55 13.25 21.5 13.3 21.45 13.3 21.35 13.3 21.3 13.35 21.25 13.35 21.2 13.35 21.15 13.35 21.1 13.4 21.0 13.4 20.95 13.4 20.85 13.4 20.8 13.4 20.7 13.45 20.6 13.45 20.5 13.45 20.4 13.45 20.3 13.45 20.2 13.45 20.1 13.45 20.0 13.45 19.85 13.45 19.75 13.45 L19.45 13.45 18.9 13.45 18.9 17.5 17.85 17.5 17.85 8.5 17.85 8.5 M25.35 8.6 L27.65 8.6 27.65 17.5 26.6 17.5 26.6 9.5 24.75 9.5 25.35 8.6 25.35 8.6 M18.9 9.5 L18.9 12.5 19.45 12.5 Q19.6 12.5 19.8 12.5 19.95 12.5 20.1 12.45 20.2 12.45 20.35 12.45 20.5 12.45 20.6 12.4 20.7 12.4 20.8 12.35 20.9 12.35 21.0 12.3 21.1 12.3 21.15 12.25 21.25 12.2 21.3 12.15 21.35 12.1 21.4 12.05 21.45 12.0 21.5 11.95 21.55 11.9 21.6 11.85 21.6 11.8 21.65 11.7 21.7 11.65 21.7 11.55 21.75 11.5 21.75 11.4 21.75 11.35 21.75 11.25 21.75 11.15 21.75 11.05 21.75 10.95 21.75 10.85 21.75 10.75 21.75 10.65 21.7 10.55 21.7 10.45 21.7 10.4 21.65 10.3 21.6 10.25 21.6 10.15 21.55 10.1 21.5 10.05 21.45 10.0 21.4 9.9 21.35 9.85 21.3 9.85 21.25 9.8 21.15 9.75 21.1 9.7 21.0 9.7 20.9 9.65 20.8 9.6 20.7 9.6 20.6 9.55 20.45 9.55 20.35 9.55 20.2 9.5 20.05 9.5 19.9 9.5 19.75 9.5 19.6 9.5 19.45 9.5 L18.9 9.5 18.9 9.5" fill="#ffffff" fill-rule="evenodd" stroke="none"/>
    </g>
  </defs>
</svg>
