<?xml version="1.0" encoding="UTF-8" standalone="no"?>
<svg xmlns:ffdec="https://www.free-decompiler.com/flash" xmlns:xlink="http://www.w3.org/1999/xlink" ffdec:objectType="frame" height="26.05px" width="52.95px" xmlns="http://www.w3.org/2000/svg">
  <g transform="matrix(1.0, 0.0, 0.0, 1.0, 0.0, 0.0)">
    <use ffdec:characterId="3" height="26.0" transform="matrix(1.0, 0.0, 0.0, 1.0, 0.0, 0.0)" width="26.0" xlink:href="#shape0"/>
    <use ffdec:characterId="18" height="3.3" transform="matrix(1.7581, 0.0, 0.0, 1.7581, 8.05, 5.6)" width="3.1" xlink:href="#shape1"/>
    <use ffdec:characterId="18" height="3.3" transform="matrix(1.7581, 0.0, 0.0, 1.7581, 7.25, 5.0)" width="3.1" xlink:href="#shape1"/>
    <use ffdec:characterId="19" height="13.1" transform="matrix(1.0, 0.0, 0.0, 1.0, 14.55, 8.1)" width="5.55" xlink:href="#shape2"/>
    <use ffdec:characterId="162" height="26.0" transform="matrix(1.0, 0.0, 0.0, 1.0, 0.0, 0.0)" width="26.0" xlink:href="#shape3"/>
  </g>
  <defs>
    <g id="shape0" transform="matrix(1.0, 0.0, 0.0, 1.0, 0.0, 0.0)">
      <path d="M22.0 4.0 Q23.05 5.1 23.05 6.6 L23.05 19.4 Q23.05 20.85 22.0 22.0 20.85 23.05 19.4 23.05 L6.6 23.05 Q5.1 23.05 4.0 22.0 2.95 20.9 2.95 19.4 L2.95 6.6 Q2.95 5.1 4.0 4.0 5.1 2.9 6.6 2.9 L19.4 2.9 Q20.9 2.9 22.0 4.0 M26.0 6.6 L26.0 19.4 Q26.0 22.15 24.05 24.05 L23.95 24.15 Q22.1 26.0 19.4 26.0 L6.6 26.0 Q3.9 26.0 1.95 24.05 0.0 22.15 0.0 19.4 L0.0 6.6 Q0.0 3.9 1.95 1.95 3.9 0.0 6.6 0.0 L19.4 0.0 Q22.1 0.0 23.95 1.85 L24.05 1.95 Q26.0 3.9 26.0 6.6 M23.95 3.85 L23.15 2.8 Q21.55 1.3 19.4 1.3 L6.6 1.3 Q4.4 1.3 2.8 2.8 1.3 4.4 1.3 6.6 L1.3 19.4 Q1.3 21.55 2.8 23.15 4.4 24.7 6.6 24.7 L19.4 24.7 Q21.55 24.7 23.15 23.15 L23.95 22.15 Q24.7 20.9 24.7 19.4 L24.7 6.6 Q24.7 5.05 23.95 3.85" fill="#000000" fill-opacity="0.0" fill-rule="evenodd" stroke="none"/>
      <path d="M22.0 4.0 Q20.9 2.9 19.4 2.9 L6.6 2.9 Q5.1 2.9 4.0 4.0 2.95 5.1 2.95 6.6 L2.95 19.4 Q2.95 20.9 4.0 22.0 5.1 23.05 6.6 23.05 L19.4 23.05 Q20.85 23.05 22.0 22.0 23.05 20.85 23.05 19.4 L23.05 6.6 Q23.05 5.1 22.0 4.0 M23.95 3.85 Q24.7 5.05 24.7 6.6 L24.7 19.4 Q24.7 20.9 23.95 22.15 L23.15 23.15 Q21.55 24.7 19.4 24.7 L6.6 24.7 Q4.4 24.7 2.8 23.15 1.3 21.55 1.3 19.4 L1.3 6.6 Q1.3 4.4 2.8 2.8 4.4 1.3 6.6 1.3 L19.4 1.3 Q21.55 1.3 23.15 2.8 L23.95 3.85" fill="#a6a8ab" fill-opacity="0.0" fill-rule="evenodd" stroke="none"/>
    </g>
    <g id="shape1" transform="matrix(1.0, 0.0, 0.0, 1.0, 0.0, 0.0)">
      <path d="M2.85 2.65 L1.75 1.95 1.75 3.3 1.3 3.3 1.4 1.95 0.25 2.65 0.0 2.3 1.15 1.65 0.0 1.05 0.2 0.65 1.4 1.35 1.3 0.0 1.75 0.0 1.75 1.35 2.85 0.6 3.1 1.0 1.9 1.65 3.1 2.3 2.85 2.65" fill="#000000" fill-opacity="0.0" fill-rule="evenodd" stroke="none"/>
    </g>
    <g id="shape2" transform="matrix(1.0, 0.0, 0.0, 1.0, 0.0, 0.0)">
      <path d="M2.1 7.2 L1.8 7.9 1.7 8.7 1.7 9.45 1.75 10.3 2.05 11.2 2.75 11.6 3.45 11.2 3.75 10.3 3.8 9.45 3.8 8.7 3.65 7.9 3.35 7.2 Q3.15 6.9 2.75 6.9 2.35 6.9 2.1 7.2 M3.35 1.85 Q3.15 1.5 2.75 1.5 2.3 1.5 2.1 1.85 1.9 2.15 1.85 2.55 L1.8 3.3 1.85 4.05 2.1 4.85 Q2.35 5.25 2.75 5.25 L3.35 4.85 3.6 4.05 3.7 3.3 3.65 2.55 3.35 1.85 M2.65 0.0 Q3.7 0.0 4.3 0.35 4.9 0.7 5.15 1.4 L5.4 3.1 5.3 4.25 4.9 5.3 Q4.6 5.8 4.0 6.0 4.7 6.2 5.0 6.7 L5.45 7.85 5.55 9.1 5.35 11.0 Q5.15 11.95 4.55 12.5 3.95 13.1 2.75 13.1 1.6 13.1 1.0 12.55 0.4 12.0 0.2 11.15 -0.05 10.3 0.0 9.35 L0.05 8.0 Q0.1 7.3 0.45 6.75 0.75 6.2 1.5 6.0 0.9 5.75 0.6 5.3 L0.2 4.25 0.1 3.1 Q0.05 2.25 0.3 1.5 0.5 0.8 1.1 0.4 1.65 0.0 2.65 0.0" fill="#000000" fill-opacity="0.0" fill-rule="evenodd" stroke="none"/>
    </g>
    <g id="shape3" transform="matrix(1.0, 0.0, 0.0, 1.0, 0.0, 0.0)">
      <path d="M4.0 3.0 Q3.9 3.0 3.8 3.0 3.7 3.05 3.6 3.1 3.5 3.1 3.45 3.15 3.35 3.2 3.3 3.3 3.2 3.35 3.15 3.45 3.1 3.5 3.1 3.6 3.05 3.7 3.0 3.8 3.0 3.9 3.0 4.0 L3.0 22.0 Q3.0 22.1 3.0 22.2 3.05 22.3 3.1 22.4 3.1 22.5 3.15 22.55 3.2 22.65 3.3 22.7 3.35 22.8 3.45 22.85 3.5 22.9 3.6 22.9 3.7 22.95 3.8 23.0 3.9 23.0 4.0 23.0 L22.0 23.0 Q22.1 23.0 22.2 23.0 22.3 22.95 22.4 22.9 22.5 22.9 22.55 22.85 22.65 22.8 22.7 22.7 22.8 22.65 22.85 22.55 22.9 22.5 22.9 22.4 22.95 22.3 23.0 22.2 23.0 22.1 23.0 22.0 L23.0 4.0 Q23.0 3.9 23.0 3.8 22.95 3.7 22.9 3.6 22.9 3.5 22.85 3.45 22.8 3.35 22.7 3.3 22.65 3.2 22.55 3.15 22.5 3.1 22.4 3.1 22.3 3.05 22.2 3.0 22.1 3.0 22.0 3.0 L4.0 3.0 4.0 3.0 M13.0 8.4 Q13.15 8.4 13.3 8.4 13.45 8.4 13.6 8.45 13.75 8.45 13.85 8.5 14.0 8.55 14.1 8.55 14.25 8.6 14.35 8.65 14.45 8.7 14.55 8.75 14.7 8.85 14.8 8.9 14.85 8.95 14.95 9.05 15.05 9.15 15.15 9.2 15.2 9.3 15.3 9.4 15.35 9.5 15.4 9.6 15.45 9.7 15.5 9.8 15.55 9.9 15.6 10.0 15.65 10.1 15.65 10.25 15.65 10.35 15.7 10.5 15.7 10.6 15.7 10.75 15.7 10.85 15.7 10.95 15.7 11.0 15.65 11.1 15.65 11.2 15.65 11.25 15.6 11.35 15.6 11.45 15.55 11.5 15.55 11.6 15.5 11.65 15.45 11.75 15.45 11.8 15.4 11.85 15.35 11.95 15.3 12.0 15.25 12.05 15.2 12.15 15.15 12.2 15.1 12.25 15.0 12.3 14.95 12.35 14.9 12.4 14.8 12.45 14.75 12.5 14.7 12.55 14.6 12.6 14.5 12.6 14.45 12.65 14.35 12.7 14.25 12.7 14.2 12.75 14.3 12.8 14.4 12.8 14.5 12.85 14.6 12.9 14.7 12.95 14.8 13.0 14.9 13.05 14.95 13.1 15.05 13.15 15.1 13.2 15.2 13.25 15.3 13.35 15.35 13.4 15.4 13.45 15.5 13.55 15.55 13.6 15.6 13.7 15.65 13.75 15.7 13.85 15.75 13.95 15.8 14.0 15.85 14.1 15.9 14.2 15.9 14.3 15.95 14.4 15.95 14.5 16.0 14.6 16.0 14.7 16.0 14.8 16.0 14.9 16.05 15.0 16.05 15.1 16.05 15.25 16.05 15.4 16.0 15.55 16.0 15.7 15.95 15.85 15.9 15.95 15.9 16.1 15.85 16.2 15.8 16.35 15.7 16.45 15.65 16.55 15.6 16.65 15.5 16.75 15.4 16.85 15.3 16.95 15.2 17.05 15.1 17.15 15.0 17.2 14.9 17.3 14.75 17.35 14.65 17.4 14.55 17.45 14.4 17.5 14.25 17.55 14.15 17.6 14.0 17.65 13.85 17.65 13.65 17.7 13.5 17.7 13.35 17.75 13.2 17.75 13.0 17.75 12.85 17.75 12.65 17.75 12.5 17.7 12.35 17.7 12.2 17.7 12.05 17.65 11.9 17.6 11.75 17.55 11.6 17.5 11.5 17.45 11.35 17.4 11.25 17.35 11.1 17.3 11.0 17.2 10.9 17.15 10.8 17.05 10.7 16.95 10.6 16.85 10.5 16.75 10.45 16.65 10.35 16.55 10.3 16.45 10.25 16.35 10.2 16.2 10.15 16.1 10.1 15.95 10.05 15.85 10.0 15.7 10.0 15.55 10.0 15.4 9.95 15.3 9.95 15.15 9.95 15.05 9.95 14.9 10.0 14.8 10.0 14.7 10.0 14.6 10.05 14.5 10.05 14.4 10.1 14.3 10.1 14.2 10.15 14.1 10.2 14.05 10.25 13.95 10.3 13.85 10.35 13.75 10.4 13.7 10.45 13.6 10.5 13.5 10.6 13.45 10.65 13.4 10.7 13.3 10.8 13.25 10.85 13.2 10.95 13.15 11.05 13.1 11.1 13.0 11.2 13.0 11.3 12.95 11.4 12.9 11.5 12.85 11.6 12.8 11.7 12.75 11.8 12.75 11.7 12.7 11.6 12.7 11.55 12.65 11.45 12.6 11.35 12.55 11.3 12.55 11.2 12.5 11.15 12.45 11.1 12.4 11.0 12.35 10.95 12.3 10.9 12.25 10.85 12.15 10.8 12.1 10.75 12.05 10.7 12.0 10.65 11.95 10.6 11.85 10.55 11.8 10.5 11.7 10.5 11.65 10.45 11.55 10.4 11.5 10.4 11.4 10.35 11.3 10.35 11.25 10.35 11.15 10.3 11.05 10.3 10.95 10.3 10.85 10.3 10.75 10.3 10.65 10.3 10.55 10.3 10.4 10.3 10.3 10.35 10.2 10.35 10.05 10.4 9.95 10.45 9.85 10.5 9.75 10.55 9.65 10.6 9.55 10.65 9.45 10.7 9.4 10.8 9.3 10.85 9.2 10.95 9.1 11.05 9.05 11.15 8.95 11.25 8.9 11.35 8.85 11.45 8.75 11.55 8.7 11.7 8.65 11.8 8.6 11.9 8.55 12.05 8.55 12.15 8.5 12.3 8.45 12.45 8.45 12.55 8.45 12.7 8.4 12.85 8.4 13.0 8.4 L13.0 8.4 M13.0 9.2 Q12.9 9.2 12.8 9.2 12.75 9.2 12.65 9.25 12.55 9.25 12.5 9.3 12.4 9.3 12.35 9.3 12.25 9.35 12.2 9.4 12.15 9.4 12.05 9.45 12.0 9.5 11.95 9.55 11.9 9.6 11.85 9.65 11.8 9.7 11.75 9.75 11.7 9.8 11.65 9.85 11.6 9.9 11.6 10.0 11.55 10.05 11.5 10.1 11.5 10.15 11.45 10.25 11.45 10.3 11.45 10.4 11.4 10.45 11.4 10.55 11.4 10.65 11.4 10.7 11.4 10.8 11.4 10.9 11.4 10.95 11.45 11.05 11.45 11.1 11.45 11.2 11.5 11.25 11.5 11.35 11.55 11.4 11.55 11.45 11.6 11.55 11.65 11.6 11.7 11.65 11.7 11.7 11.75 11.75 11.8 11.8 11.85 11.85 11.9 11.9 12.0 11.95 12.05 11.95 12.1 12.0 12.2 12.05 12.25 12.05 12.3 12.1 12.4 12.1 12.45 12.15 12.55 12.15 12.65 12.15 12.7 12.2 12.8 12.2 12.9 12.2 13.0 12.2 13.1 12.2 13.2 12.2 13.25 12.2 13.35 12.15 13.45 12.15 13.5 12.15 13.6 12.1 13.65 12.1 13.75 12.05 13.8 12.05 13.85 12.0 13.95 11.95 14.0 11.95 14.05 11.9 14.1 11.85 14.15 11.8 14.2 11.75 14.25 11.7 14.3 11.65 14.35 11.6 14.4 11.55 14.4 11.45 14.45 11.4 14.5 11.35 14.5 11.25 14.55 11.2 14.55 11.15 14.55 11.05 14.6 11.0 14.6 10.9 14.6 10.8 14.6 10.7 14.6 10.6 14.6 10.55 14.6 10.45 14.55 10.4 14.55 10.3 14.55 10.25 14.5 10.15 14.5 10.1 14.45 10.05 14.4 9.95 14.4 9.9 14.35 9.85 14.3 9.8 14.25 9.75 14.2 9.7 14.15 9.65 14.1 9.6 14.05 9.55 14.0 9.5 13.95 9.45 13.85 9.4 13.8 9.4 13.75 9.35 13.65 9.35 13.6 9.3 13.5 9.3 13.45 9.25 13.35 9.25 13.25 9.25 13.2 9.25 13.1 9.2 13.0 9.2 L13.0 9.2 M13.0 13.2 Q12.9 13.2 12.8 13.2 12.7 13.2 12.6 13.25 12.5 13.25 12.4 13.3 12.3 13.3 12.2 13.35 12.1 13.35 12.05 13.4 11.95 13.45 11.9 13.5 11.8 13.55 11.75 13.6 11.65 13.65 11.6 13.7 11.55 13.75 11.5 13.85 11.45 13.9 11.4 13.95 11.35 14.05 11.3 14.15 11.25 14.2 11.25 14.3 11.2 14.35 11.15 14.45 11.15 14.55 11.15 14.65 11.1 14.75 11.1 14.85 11.1 14.95 11.1 15.05 11.1 15.15 11.1 15.25 11.1 15.35 11.15 15.45 11.15 15.55 11.15 15.65 11.2 15.75 11.25 15.8 11.25 15.9 11.3 16.0 11.35 16.05 11.4 16.15 11.45 16.2 11.5 16.25 11.55 16.35 11.6 16.4 11.65 16.45 11.75 16.5 11.8 16.55 11.85 16.6 11.95 16.65 12.05 16.7 12.1 16.7 12.2 16.75 12.3 16.8 12.4 16.8 12.45 16.85 12.55 16.85 12.65 16.85 12.75 16.85 12.9 16.85 13.0 16.85 13.1 16.85 13.2 16.85 13.3 16.85 13.4 16.85 13.5 16.8 13.6 16.8 13.7 16.8 13.8 16.75 13.85 16.7 13.95 16.7 14.05 16.65 14.1 16.6 14.2 16.55 14.25 16.5 14.3 16.45 14.4 16.4 14.45 16.35 14.5 16.25 14.55 16.2 14.6 16.15 14.65 16.05 14.7 16.0 14.75 15.9 14.75 15.8 14.8 15.75 14.8 15.65 14.85 15.55 14.85 15.45 14.85 15.35 14.85 15.25 14.9 15.15 14.9 15.05 14.9 14.95 14.9 14.85 14.85 14.75 14.85 14.65 14.85 14.55 14.8 14.45 14.8 14.35 14.75 14.3 14.7 14.2 14.7 14.1 14.65 14.05 14.6 13.95 14.55 13.9 14.5 13.85 14.45 13.75 14.35 13.7 14.3 13.65 14.25 13.6 14.15 13.55 14.1 13.5 14.0 13.45 13.95 13.4 13.85 13.35 13.8 13.35 13.7 13.3 13.6 13.3 13.5 13.25 13.4 13.25 13.3 13.2 13.2 13.2 13.1 13.2 13.0 13.2 L13.0 13.2" fill="#ffffff" fill-rule="evenodd" stroke="none"/>
    </g>
  </defs>
</svg>
