<?xml version="1.0" encoding="UTF-8" standalone="no"?>
<svg xmlns:ffdec="https://www.free-decompiler.com/flash" xmlns:xlink="http://www.w3.org/1999/xlink" ffdec:objectType="frame" height="26.05px" width="52.95px" xmlns="http://www.w3.org/2000/svg">
  <g transform="matrix(1.0, 0.0, 0.0, 1.0, 0.0, 0.0)">
    <use ffdec:characterId="132" height="26.0" transform="matrix(1.0, 0.0, 0.0, 1.0, 0.05, 0.05)" width="26.0" xlink:href="#shape0"/>
    <use ffdec:characterId="133" height="15.15" transform="matrix(1.0, 0.0, 0.0, 1.0, 9.15, 5.6)" width="10.2" xlink:href="#shape1"/>
    <use ffdec:characterId="133" height="15.15" transform="matrix(1.0, 0.0, 0.0, 1.0, 8.35, 5.0)" width="10.2" xlink:href="#shape1"/>
  </g>
  <defs>
    <g id="shape0" transform="matrix(1.0, 0.0, 0.0, 1.0, -0.05, -0.05)">
      <path d="M3.55 13.05 Q3.55 9.1 6.35 6.3 9.15 3.5 13.05 3.5 17.0 3.5 19.75 6.3 22.55 9.1 22.55 13.05 22.55 17.0 19.75 19.7 17.0 22.5 13.05 22.5 9.15 22.5 6.35 19.7 3.55 17.0 3.55 13.05" fill="#000000" fill-opacity="0.6" fill-rule="evenodd" stroke="none"/>
      <path d="M21.0 20.95 Q17.65 24.25 13.05 24.25 8.4 24.25 5.1 20.95 1.8 17.65 1.8 13.05 1.8 8.4 5.1 5.05 8.4 1.75 13.05 1.75 17.7 1.75 21.0 5.05 24.3 8.4 24.3 13.05 24.3 17.65 21.0 20.95 M13.05 3.5 Q9.15 3.5 6.35 6.3 3.55 9.1 3.55 13.05 3.55 17.0 6.35 19.7 9.15 22.5 13.05 22.5 17.0 22.5 19.75 19.7 22.55 17.0 22.55 13.05 22.55 9.1 19.75 6.3 17.0 3.5 13.05 3.5" fill="#a6a8ab" fill-opacity="0.6" fill-rule="evenodd" stroke="none"/>
      <path d="M26.05 13.05 Q26.05 18.4 22.2 22.2 18.4 26.05 13.05 26.05 7.7 26.05 3.85 22.2 0.05 18.4 0.05 13.05 0.05 7.65 3.85 3.85 7.65 0.05 13.05 0.05 18.4 0.05 22.2 3.85 26.05 7.65 26.05 13.05 M24.3 13.05 Q24.3 8.4 21.0 5.05 17.7 1.75 13.05 1.75 8.4 1.75 5.1 5.05 1.8 8.4 1.8 13.05 1.8 17.65 5.1 20.95 8.4 24.25 13.05 24.25 17.65 24.25 21.0 20.95 24.3 17.65 24.3 13.05" fill="#000000" fill-opacity="0.6" fill-rule="evenodd" stroke="none"/>
    </g>
    <g id="shape1" transform="matrix(1.0, 0.0, 0.0, 1.0, 0.0, 0.0)">
      <path d="M0.0 2.2 L1.7 2.2 1.7 13.5 4.55 13.5 4.55 15.0 0.0 15.0 0.0 2.2 M4.45 2.35 L0.55 0.0 8.3 0.0 4.45 2.35 M7.8 2.0 L8.75 2.1 Q9.2 2.2 9.6 2.45 L9.6 4.15 9.2 3.9 8.9 3.75 8.15 3.6 7.3 3.9 7.05 4.1 Q6.8 4.4 6.7 4.8 L6.65 5.25 6.75 6.0 7.1 6.65 8.4 8.05 9.35 9.15 10.0 10.35 10.2 11.8 Q10.2 12.75 9.85 13.5 9.5 14.25 8.8 14.7 8.15 15.15 7.2 15.15 L6.2 15.0 5.35 14.55 5.35 12.85 6.1 13.3 7.0 13.5 7.85 13.25 8.35 12.6 8.5 11.7 Q8.5 10.95 8.15 10.4 L7.25 9.35 6.2 8.3 5.3 7.0 Q4.95 6.3 4.9 5.3 L4.9 5.25 4.95 4.8 5.15 3.9 5.25 3.65 5.4 3.35 5.65 2.95 5.8 2.8 6.2 2.45 Q6.85 2.0 7.8 2.0" fill="#000000" fill-rule="evenodd" stroke="none"/>
    </g>
  </defs>
</svg>
