<?xml version="1.0" encoding="UTF-8" standalone="no"?>
<svg xmlns:ffdec="https://www.free-decompiler.com/flash" xmlns:xlink="http://www.w3.org/1999/xlink" ffdec:objectType="frame" height="26.05px" width="52.95px" xmlns="http://www.w3.org/2000/svg">
  <g transform="matrix(1.0, 0.0, 0.0, 1.0, 0.0, 0.0)">
    <use ffdec:characterId="132" height="26.0" transform="matrix(1.0, 0.0, 0.0, 1.0, 0.05, 0.05)" width="26.0" xlink:href="#shape0"/>
    <use ffdec:characterId="134" height="15.15" transform="matrix(1.0, 0.0, 0.0, 1.0, 8.15, 5.6)" width="11.6" xlink:href="#shape1"/>
    <use ffdec:characterId="134" height="15.15" transform="matrix(1.0, 0.0, 0.0, 1.0, 7.35, 5.0)" width="11.6" xlink:href="#shape1"/>
  </g>
  <defs>
    <g id="shape0" transform="matrix(1.0, 0.0, 0.0, 1.0, -0.05, -0.05)">
      <path d="M3.55 13.05 Q3.55 9.1 6.35 6.3 9.15 3.5 13.05 3.5 17.0 3.5 19.75 6.3 22.55 9.1 22.55 13.05 22.55 17.0 19.75 19.7 17.0 22.5 13.05 22.5 9.15 22.5 6.35 19.7 3.55 17.0 3.55 13.05" fill="#000000" fill-opacity="0.6" fill-rule="evenodd" stroke="none"/>
      <path d="M21.0 20.95 Q17.65 24.25 13.05 24.25 8.4 24.25 5.1 20.95 1.8 17.65 1.8 13.05 1.8 8.4 5.1 5.05 8.4 1.75 13.05 1.75 17.7 1.75 21.0 5.05 24.3 8.4 24.3 13.05 24.3 17.65 21.0 20.95 M13.05 3.5 Q9.15 3.5 6.35 6.3 3.55 9.1 3.55 13.05 3.55 17.0 6.35 19.7 9.15 22.5 13.05 22.5 17.0 22.5 19.75 19.7 22.55 17.0 22.55 13.05 22.55 9.1 19.75 6.3 17.0 3.5 13.05 3.5" fill="#a6a8ab" fill-opacity="0.6" fill-rule="evenodd" stroke="none"/>
      <path d="M26.05 13.05 Q26.05 18.4 22.2 22.2 18.4 26.05 13.05 26.05 7.7 26.05 3.85 22.2 0.05 18.4 0.05 13.05 0.05 7.65 3.85 3.85 7.65 0.05 13.05 0.05 18.4 0.05 22.2 3.85 26.05 7.65 26.05 13.05 M24.3 13.05 Q24.3 8.4 21.0 5.05 17.7 1.75 13.05 1.75 8.4 1.75 5.1 5.05 1.8 8.4 1.8 13.05 1.8 17.65 5.1 20.95 8.4 24.25 13.05 24.25 17.65 24.25 21.0 20.95 24.3 17.65 24.3 13.05" fill="#000000" fill-opacity="0.6" fill-rule="evenodd" stroke="none"/>
    </g>
    <g id="shape1" transform="matrix(1.0, 0.0, 0.0, 1.0, 0.0, 0.0)">
      <path d="M9.3 0.0 L5.45 2.35 1.55 0.0 9.3 0.0" fill="#000000" fill-rule="evenodd" stroke="none"/>
      <path d="M1.95 3.65 L1.7 3.65 1.7 7.85 Q2.65 7.9 3.05 7.35 3.4 6.8 3.4 5.85 L3.3 4.7 2.9 3.9 2.8 3.8 1.95 3.65 M3.05 2.25 L4.1 2.6 4.9 3.6 5.0 3.8 5.2 5.45 5.05 6.8 4.55 8.05 3.45 8.75 5.8 15.0 4.05 15.0 1.7 8.7 1.7 15.0 0.0 15.0 0.0 2.2 2.05 2.2 3.05 2.25 M11.0 2.45 L11.0 4.15 10.4 3.8 10.3 3.75 9.55 3.6 8.85 3.8 Q8.6 3.9 8.45 4.1 8.05 4.55 8.05 5.25 L8.15 6.0 8.5 6.65 9.8 8.05 10.75 9.15 11.4 10.35 11.6 11.8 Q11.6 12.75 11.25 13.5 L10.2 14.7 Q9.55 15.15 8.6 15.15 L7.6 15.0 6.75 14.55 6.75 12.85 7.5 13.3 8.4 13.5 9.25 13.25 9.75 12.6 9.9 11.7 Q9.9 10.95 9.55 10.4 L8.65 9.35 7.6 8.3 6.7 7.0 Q6.35 6.3 6.3 5.3 6.3 4.5 6.6 3.8 L6.65 3.65 Q6.95 2.9 7.6 2.45 8.25 2.0 9.2 2.0 L10.15 2.1 11.0 2.45" fill="#000000" fill-rule="evenodd" stroke="none"/>
    </g>
  </defs>
</svg>
