<?xml version="1.0" encoding="UTF-8" standalone="no"?>
<svg xmlns:ffdec="https://www.free-decompiler.com/flash" xmlns:xlink="http://www.w3.org/1999/xlink" ffdec:objectType="frame" height="26.05px" width="52.95px" xmlns="http://www.w3.org/2000/svg">
  <g transform="matrix(1.0, 0.0, 0.0, 1.0, 0.0, 0.0)">
    <use ffdec:characterId="132" height="26.0" transform="matrix(1.0, 0.0, 0.0, 1.0, 0.05, 0.05)" width="26.0" xlink:href="#shape0"/>
    <use ffdec:characterId="64" height="12.8" transform="matrix(1.0, 0.0, 0.0, 1.0, 11.7, 7.3)" width="5.25" xlink:href="#shape1"/>
    <use ffdec:characterId="64" height="12.8" transform="matrix(1.0, 0.0, 0.0, 1.0, 10.9, 6.7)" width="5.25" xlink:href="#shape1"/>
  </g>
  <defs>
    <g id="shape0" transform="matrix(1.0, 0.0, 0.0, 1.0, -0.05, -0.05)">
      <path d="M3.55 13.05 Q3.55 9.1 6.35 6.3 9.15 3.5 13.05 3.5 17.0 3.5 19.75 6.3 22.55 9.1 22.55 13.05 22.55 17.0 19.75 19.7 17.0 22.5 13.05 22.5 9.15 22.5 6.35 19.7 3.55 17.0 3.55 13.05" fill="#000000" fill-opacity="0.6" fill-rule="evenodd" stroke="none"/>
      <path d="M21.0 20.95 Q17.65 24.25 13.05 24.25 8.4 24.25 5.1 20.95 1.8 17.65 1.8 13.05 1.8 8.4 5.1 5.05 8.4 1.75 13.05 1.75 17.7 1.75 21.0 5.05 24.3 8.4 24.3 13.05 24.3 17.65 21.0 20.95 M13.05 3.5 Q9.15 3.5 6.35 6.3 3.55 9.1 3.55 13.05 3.55 17.0 6.35 19.7 9.15 22.5 13.05 22.5 17.0 22.5 19.75 19.7 22.55 17.0 22.55 13.05 22.55 9.1 19.75 6.3 17.0 3.5 13.05 3.5" fill="#a6a8ab" fill-opacity="0.6" fill-rule="evenodd" stroke="none"/>
      <path d="M26.05 13.05 Q26.05 18.4 22.2 22.2 18.4 26.05 13.05 26.05 7.7 26.05 3.85 22.2 0.05 18.4 0.05 13.05 0.05 7.65 3.85 3.85 7.65 0.05 13.05 0.05 18.4 0.05 22.2 3.85 26.05 7.65 26.05 13.05 M24.3 13.05 Q24.3 8.4 21.0 5.05 17.7 1.75 13.05 1.75 8.4 1.75 5.1 5.05 1.8 8.4 1.8 13.05 1.8 17.65 5.1 20.95 8.4 24.25 13.05 24.25 17.65 24.25 21.0 20.95 24.3 17.65 24.3 13.05" fill="#000000" fill-opacity="0.6" fill-rule="evenodd" stroke="none"/>
    </g>
    <g id="shape1" transform="matrix(1.0, 0.0, 0.0, 1.0, 0.0, 0.0)">
      <path d="M3.3 8.05 L2.8 7.25 1.6 7.0 1.6 11.35 2.75 11.15 3.3 10.45 3.45 9.25 3.3 8.05 M3.9 0.4 Q4.55 0.8 4.8 1.55 5.1 2.35 5.05 3.4 L4.95 4.65 4.5 5.65 Q4.15 6.05 3.45 6.25 L3.45 6.3 Q4.2 6.5 4.55 6.95 L5.1 8.0 5.25 9.3 Q5.3 11.05 4.55 11.95 3.8 12.8 2.05 12.8 L0.0 12.8 0.0 0.0 2.1 0.0 Q3.25 0.0 3.9 0.4 M3.25 2.4 L2.8 1.7 1.9 1.45 1.6 1.45 1.6 5.65 Q2.4 5.65 2.75 5.35 L3.3 4.55 3.4 3.35 3.25 2.4" fill="#000000" fill-rule="evenodd" stroke="none"/>
    </g>
  </defs>
</svg>
