<?xml version="1.0" encoding="UTF-8" standalone="no"?>
<svg xmlns:ffdec="https://www.free-decompiler.com/flash" xmlns:xlink="http://www.w3.org/1999/xlink" ffdec:objectType="frame" height="26.05px" width="52.95px" xmlns="http://www.w3.org/2000/svg">
  <g transform="matrix(1.0, 0.0, 0.0, 1.0, 0.0, 0.0)">
    <use ffdec:characterId="27" height="26.0" transform="matrix(1.0, 0.0, 0.0, 1.0, 0.0, 0.0)" width="41.75" xlink:href="#shape0"/>
    <use ffdec:characterId="58" height="14.4" transform="matrix(1.0, 0.0, 0.0, 1.0, 10.1, 5.75)" width="23.1" xlink:href="#shape1"/>
    <use ffdec:characterId="58" height="14.4" transform="matrix(1.0, 0.0, 0.0, 1.0, 9.3, 5.15)" width="23.1" xlink:href="#shape1"/>
  </g>
  <defs>
    <g id="shape0" transform="matrix(1.0, 0.0, 0.0, 1.0, 0.0, 0.0)">
      <path d="M41.75 19.4 Q41.75 22.15 39.8 24.05 37.9 26.0 35.15 26.0 L6.55 26.0 Q3.9 26.0 1.95 24.05 0.0 22.15 0.0 19.4 L0.0 6.6 Q0.0 3.9 1.95 1.95 3.9 0.0 6.55 0.0 L35.15 0.0 Q37.9 0.0 39.8 1.95 41.75 3.9 41.75 6.6 L41.75 19.4 M40.45 6.6 Q40.45 4.4 38.9 2.8 37.3 1.3 35.15 1.3 L6.55 1.3 Q4.4 1.3 2.8 2.8 1.3 4.4 1.3 6.6 L1.3 19.4 Q1.3 21.55 2.8 23.15 4.4 24.7 6.55 24.7 L35.15 24.7 Q37.3 24.7 38.9 23.15 40.45 21.55 40.45 19.4 L40.45 6.6" fill="#000000" fill-opacity="0.6" fill-rule="evenodd" stroke="none"/>
      <path d="M35.15 2.9 L6.55 2.9 Q5.1 2.9 3.95 4.0 2.9 5.1 2.9 6.6 L2.9 19.4 Q2.9 20.9 3.95 22.0 5.1 23.05 6.55 23.05 L35.15 23.05 Q36.65 23.05 37.7 22.0 38.8 20.9 38.8 19.4 L38.8 6.6 Q38.8 5.1 37.75 4.0 36.65 2.9 35.15 2.9 M38.9 2.8 Q40.45 4.4 40.45 6.6 L40.45 19.4 Q40.45 21.55 38.9 23.15 37.3 24.7 35.15 24.7 L6.55 24.7 Q4.4 24.7 2.8 23.15 1.3 21.55 1.3 19.4 L1.3 6.6 Q1.3 4.4 2.8 2.8 4.4 1.3 6.55 1.3 L35.15 1.3 Q37.3 1.3 38.9 2.8" fill="#a6a8ab" fill-opacity="0.6" fill-rule="evenodd" stroke="none"/>
      <path d="M38.85 6.6 L38.85 19.4 Q38.85 20.9 37.7 22.0 36.65 23.1 35.15 23.1 L6.6 23.1 Q5.1 23.1 4.0 22.0 2.9 20.9 2.9 19.4 L2.9 6.6 Q2.9 5.1 4.0 4.0 5.1 2.95 6.6 2.95 L35.15 2.95 Q36.65 2.95 37.75 4.0 38.85 5.1 38.85 6.6" fill="#000000" fill-opacity="0.6" fill-rule="evenodd" stroke="none"/>
    </g>
    <g id="shape1" transform="matrix(1.0, 0.0, 0.0, 1.0, 0.0, 0.0)">
      <path d="M2.9 1.25 L3.85 1.35 Q4.3 1.45 4.7 1.7 L4.7 3.4 4.0 3.0 3.25 2.85 Q2.55 2.9 2.15 3.35 1.75 3.8 1.75 4.5 L1.85 5.25 2.2 5.9 3.5 7.3 4.45 8.4 5.1 9.6 5.3 11.05 Q5.3 12.0 4.95 12.75 L3.9 13.95 2.3 14.4 1.3 14.25 0.45 13.8 0.45 12.1 1.2 12.55 2.1 12.75 2.95 12.5 3.45 11.85 3.6 10.95 Q3.6 10.2 3.25 9.65 L2.35 8.6 1.3 7.55 0.4 6.25 Q0.05 5.55 0.0 4.55 0.0 3.65 0.35 2.9 0.65 2.15 1.3 1.7 1.95 1.25 2.9 1.25 M11.5 7.05 L11.55 8.35 11.55 14.25 9.95 14.25 9.95 8.3 9.9 7.7 9.65 7.15 9.0 6.95 Q8.5 6.95 8.3 7.3 8.1 7.6 8.05 8.05 L8.05 8.9 8.05 14.25 6.45 14.25 6.45 0.15 8.05 0.15 8.05 6.65 8.1 6.65 8.4 6.15 8.75 5.85 9.25 5.6 9.8 5.55 Q10.65 5.55 11.05 5.95 L11.5 7.05 M13.05 5.65 L14.65 5.65 14.65 14.25 13.05 14.25 13.05 5.65 M13.1 2.3 Q13.4 2.0 13.85 2.0 14.3 2.0 14.6 2.3 14.9 2.6 14.9 3.05 L14.6 3.8 13.85 4.15 13.1 3.8 12.75 3.05 Q12.8 2.6 13.1 2.3 M19.2 1.75 L18.85 1.7 18.3 1.9 18.1 2.45 18.1 3.1 18.1 5.65 19.45 5.65 19.45 6.95 18.1 6.95 18.1 14.25 16.5 14.25 16.5 6.95 15.7 6.95 15.7 5.65 16.5 5.65 16.5 2.9 16.6 1.5 Q16.7 0.85 17.15 0.4 17.55 0.0 18.45 0.0 L19.0 0.05 19.5 0.25 19.5 1.9 19.2 1.75 M20.65 5.65 L20.65 3.25 22.25 3.25 22.25 5.65 23.1 5.65 23.1 6.95 22.25 6.95 22.25 14.25 20.65 14.25 20.65 6.95 19.8 6.95 19.8 5.65 20.65 5.65" fill="#000000" fill-rule="evenodd" stroke="none"/>
    </g>
  </defs>
</svg>
