<?xml version="1.0" encoding="UTF-8" standalone="no"?>
<svg xmlns:ffdec="https://www.free-decompiler.com/flash" xmlns:xlink="http://www.w3.org/1999/xlink" ffdec:objectType="frame" height="26.05px" width="52.95px" xmlns="http://www.w3.org/2000/svg">
  <g transform="matrix(1.0, 0.0, 0.0, 1.0, 0.0, 0.0)">
    <use ffdec:characterId="3" height="26.0" transform="matrix(1.0, 0.0, 0.0, 1.0, 0.0, 0.0)" width="26.0" xlink:href="#shape0"/>
    <use ffdec:characterId="12" height="7.9" transform="matrix(1.1684, 0.0, 0.0, 1.1684, 7.25, 5.65)" width="4.75" xlink:href="#shape1"/>
    <use ffdec:characterId="12" height="7.9" transform="matrix(1.1684, 0.0, 0.0, 1.1684, 6.45, 5.05)" width="4.75" xlink:href="#shape1"/>
    <use ffdec:characterId="13" height="12.95" transform="matrix(1.0, 0.0, 0.0, 1.0, 14.5, 8.25)" width="5.6" xlink:href="#shape2"/>
    <use ffdec:characterId="13" height="12.95" transform="matrix(1.0, 0.0, 0.0, 1.0, 13.7, 7.65)" width="5.6" xlink:href="#shape2"/>
  </g>
  <defs>
    <g id="shape0" transform="matrix(1.0, 0.0, 0.0, 1.0, 0.0, 0.0)">
      <path d="M22.0 4.0 Q23.05 5.1 23.05 6.6 L23.05 19.4 Q23.05 20.85 22.0 22.0 20.85 23.05 19.4 23.05 L6.6 23.05 Q5.1 23.05 4.0 22.0 2.95 20.9 2.95 19.4 L2.95 6.6 Q2.95 5.1 4.0 4.0 5.1 2.9 6.6 2.9 L19.4 2.9 Q20.9 2.9 22.0 4.0 M26.0 6.6 L26.0 19.4 Q26.0 22.15 24.05 24.05 L23.95 24.15 Q22.1 26.0 19.4 26.0 L6.6 26.0 Q3.9 26.0 1.95 24.05 0.0 22.15 0.0 19.4 L0.0 6.6 Q0.0 3.9 1.95 1.95 3.9 0.0 6.6 0.0 L19.4 0.0 Q22.1 0.0 23.95 1.85 L24.05 1.95 Q26.0 3.9 26.0 6.6 M23.95 3.85 L23.15 2.8 Q21.55 1.3 19.4 1.3 L6.6 1.3 Q4.4 1.3 2.8 2.8 1.3 4.4 1.3 6.6 L1.3 19.4 Q1.3 21.55 2.8 23.15 4.4 24.7 6.6 24.7 L19.4 24.7 Q21.55 24.7 23.15 23.15 L23.95 22.15 Q24.7 20.9 24.7 19.4 L24.7 6.6 Q24.7 5.05 23.95 3.85" fill="#000000" fill-opacity="0.6" fill-rule="evenodd" stroke="none"/>
      <path d="M22.0 4.0 Q20.9 2.9 19.4 2.9 L6.6 2.9 Q5.1 2.9 4.0 4.0 2.95 5.1 2.95 6.6 L2.95 19.4 Q2.95 20.9 4.0 22.0 5.1 23.05 6.6 23.05 L19.4 23.05 Q20.85 23.05 22.0 22.0 23.05 20.85 23.05 19.4 L23.05 6.6 Q23.05 5.1 22.0 4.0 M23.95 3.85 Q24.7 5.05 24.7 6.6 L24.7 19.4 Q24.7 20.9 23.95 22.15 L23.15 23.15 Q21.55 24.7 19.4 24.7 L6.6 24.7 Q4.4 24.7 2.8 23.15 1.3 21.55 1.3 19.4 L1.3 6.6 Q1.3 4.4 2.8 2.8 4.4 1.3 6.6 1.3 L19.4 1.3 Q21.55 1.3 23.15 2.8 L23.95 3.85" fill="#a6a8ab" fill-opacity="0.6" fill-rule="evenodd" stroke="none"/>
    </g>
    <g id="shape1" transform="matrix(1.0, 0.0, 0.0, 1.0, 0.0, 0.0)">
      <path d="M0.8 7.8 L0.15 7.8 3.95 0.1 4.6 0.1 0.8 7.8 M4.1 5.75 L4.05 5.35 3.95 5.0 3.65 4.85 3.4 5.0 3.25 5.35 3.25 5.75 3.25 6.05 3.25 6.35 3.25 6.8 3.4 7.15 3.65 7.3 3.95 7.15 4.05 6.8 4.1 6.35 4.1 6.05 4.1 5.75 M1.3 0.75 L1.1 0.6 Q0.9 0.6 0.8 0.75 L0.7 1.1 0.65 1.5 0.65 1.8 0.65 2.15 0.7 2.55 0.8 2.9 1.1 3.05 1.3 2.9 1.45 2.55 1.45 2.15 1.45 1.8 1.45 1.5 1.45 1.1 1.3 0.75 M2.15 1.25 L2.15 1.8 2.15 2.4 2.0 3.0 1.7 3.45 1.1 3.65 0.5 3.45 0.15 3.0 0.0 2.4 0.0 1.8 0.0 1.25 0.15 0.65 0.5 0.15 1.1 0.0 1.7 0.15 2.0 0.65 2.15 1.25 M4.6 4.85 L4.7 5.45 4.75 6.05 4.7 6.65 4.6 7.25 4.25 7.7 3.65 7.9 3.05 7.7 2.75 7.25 2.6 6.65 2.6 6.05 2.6 5.45 2.75 4.85 3.05 4.4 3.65 4.2 4.25 4.4 4.6 4.85" fill="#000000" fill-rule="evenodd" stroke="none"/>
    </g>
    <g id="shape2" transform="matrix(1.0, 0.0, 0.0, 1.0, 0.0, 0.0)">
      <path d="M5.45 1.45 L2.65 1.45 2.25 4.7 Q3.4 4.65 4.15 5.1 4.9 5.55 5.25 6.4 5.6 7.2 5.6 8.3 L5.45 10.0 4.85 11.5 3.7 12.55 Q3.0 12.95 2.0 12.95 L1.0 12.8 0.0 12.45 0.45 10.9 1.2 11.3 1.95 11.45 2.9 11.15 3.5 10.45 3.8 9.5 3.85 8.55 Q3.9 7.45 3.35 6.75 2.85 6.05 1.65 6.05 L1.15 6.1 0.6 6.2 1.35 0.0 5.45 0.0 5.45 1.45" fill="#000000" fill-rule="evenodd" stroke="none"/>
    </g>
  </defs>
</svg>
