<?xml version="1.0" encoding="UTF-8" standalone="no"?>
<svg xmlns:ffdec="https://www.free-decompiler.com/flash" xmlns:xlink="http://www.w3.org/1999/xlink" ffdec:objectType="frame" height="26.05px" width="52.95px" xmlns="http://www.w3.org/2000/svg">
  <g transform="matrix(1.0, 0.0, 0.0, 1.0, 0.0, 0.0)">
    <use ffdec:characterId="88" height="26.0" transform="matrix(1.0, 0.0, 0.0, 1.0, 0.0, 0.0)" width="52.95" xlink:href="#shape0"/>
    <use ffdec:characterId="89" height="14.25" transform="matrix(1.0, 0.0, 0.0, 1.0, 7.45, 5.9)" width="40.45" xlink:href="#shape1"/>
    <use ffdec:characterId="89" height="14.25" transform="matrix(1.0, 0.0, 0.0, 1.0, 6.65, 5.3)" width="40.45" xlink:href="#shape1"/>
  </g>
  <defs>
    <g id="shape0" transform="matrix(1.0, 0.0, 0.0, 1.0, 0.0, 0.0)">
      <path d="M52.95 6.6 L52.95 19.4 Q52.95 22.15 51.0 24.05 49.1 26.0 46.35 26.0 L6.55 26.0 Q3.9 26.0 1.95 24.05 0.0 22.15 0.0 19.4 L0.0 6.6 Q0.0 3.9 1.95 1.95 3.9 0.0 6.55 0.0 L46.35 0.0 Q49.1 0.0 51.0 1.95 52.95 3.9 52.95 6.6 M46.35 1.3 L6.55 1.3 Q4.4 1.3 2.8 2.8 1.3 4.4 1.3 6.6 L1.3 19.4 Q1.3 21.55 2.8 23.15 4.4 24.7 6.55 24.7 L46.35 24.7 Q48.45 24.7 50.1 23.15 51.65 21.6 51.65 19.4 L51.65 6.6 Q51.65 4.4 50.1 2.8 48.5 1.3 46.35 1.3" fill="#000000" fill-opacity="0.6" fill-rule="evenodd" stroke="none"/>
      <path d="M46.35 2.9 L6.55 2.9 Q5.1 2.9 4.0 4.0 2.95 5.1 2.95 6.6 L2.95 19.4 Q2.95 20.9 4.0 22.0 5.1 23.05 6.55 23.05 L46.35 23.05 Q47.85 23.05 48.95 22.0 50.0 20.85 50.0 19.4 L50.0 6.6 Q50.0 5.1 48.95 4.0 47.8 2.9 46.35 2.9 M50.1 2.8 Q51.65 4.4 51.65 6.6 L51.65 19.4 Q51.65 21.6 50.1 23.15 48.45 24.7 46.35 24.7 L6.55 24.7 Q4.4 24.7 2.8 23.15 1.3 21.55 1.3 19.4 L1.3 6.6 Q1.3 4.4 2.8 2.8 4.4 1.3 6.55 1.3 L46.35 1.3 Q48.5 1.3 50.1 2.8" fill="#a6a8ab" fill-opacity="0.6" fill-rule="evenodd" stroke="none"/>
      <path d="M50.0 6.6 L50.0 19.4 Q50.0 20.85 48.95 22.0 47.85 23.05 46.35 23.05 L6.55 23.05 Q5.1 23.05 4.0 22.0 2.95 20.9 2.95 19.4 L2.95 6.6 Q2.95 5.1 4.0 4.0 5.1 2.9 6.55 2.9 L46.35 2.9 Q47.8 2.9 48.95 4.0 50.0 5.1 50.0 6.6" fill="#000000" fill-opacity="0.6" fill-rule="evenodd" stroke="none"/>
    </g>
    <g id="shape1" transform="matrix(1.0, 0.0, 0.0, 1.0, 0.0, 0.0)">
      <path d="M0.0 1.3 L1.6 1.3 4.6 11.0 4.65 11.0 4.25 1.3 5.95 1.3 5.95 14.1 4.35 14.1 1.35 4.2 1.35 4.25 1.45 5.1 1.7 14.1 0.0 14.1 0.0 1.3 M11.25 5.5 L12.85 5.5 12.85 11.3 12.65 12.85 11.85 13.9 Q11.3 14.25 10.35 14.25 9.2 14.25 8.65 13.85 8.05 13.45 7.85 12.7 7.7 11.95 7.7 11.0 L7.7 5.5 9.3 5.5 9.3 10.9 9.3 11.75 9.55 12.45 Q9.75 12.75 10.3 12.8 10.8 12.75 11.0 12.5 L11.2 11.8 11.25 11.0 11.25 5.5 M24.65 1.3 L26.35 1.3 26.35 12.6 29.2 12.6 29.2 14.1 24.65 14.1 24.65 1.3 M20.95 5.4 L22.1 5.65 22.7 6.4 22.85 7.45 22.85 14.1 21.25 14.1 21.25 8.1 21.1 7.2 Q20.95 6.8 20.4 6.8 19.85 6.8 19.6 7.1 L19.4 7.8 19.35 8.65 19.35 14.1 17.75 14.1 17.75 8.25 17.75 7.6 17.5 7.05 Q17.3 6.8 16.85 6.8 16.35 6.8 16.15 7.1 15.95 7.4 15.9 7.85 L15.9 8.65 15.9 14.1 14.3 14.1 14.3 5.5 15.9 5.5 15.9 6.55 15.95 6.55 Q16.15 6.0 16.6 5.7 17.0 5.4 17.6 5.4 18.2 5.4 18.6 5.7 19.05 6.0 19.15 6.55 L19.2 6.55 19.9 5.7 Q20.3 5.4 20.95 5.4 M32.95 5.45 L33.55 5.65 33.55 7.3 33.25 7.0 32.8 6.85 Q32.25 6.9 32.0 7.2 31.7 7.5 31.55 7.95 L31.4 8.9 31.4 9.75 31.4 10.55 31.55 11.55 31.95 12.4 Q32.25 12.75 32.75 12.75 L33.2 12.65 33.55 12.4 33.55 13.9 32.95 14.15 32.25 14.25 Q31.45 14.2 30.95 13.8 30.4 13.35 30.15 12.7 29.9 12.05 29.8 11.3 L29.75 9.9 29.8 8.45 Q29.9 7.65 30.15 6.95 30.4 6.25 30.9 5.85 31.4 5.4 32.3 5.4 L32.95 5.45 M38.35 5.5 L40.15 5.5 37.95 9.3 40.45 14.1 38.6 14.1 36.4 9.55 36.35 9.55 36.35 14.1 34.75 14.1 34.75 0.0 36.35 0.0 36.35 9.3 36.4 9.3 38.35 5.5" fill="#000000" fill-rule="evenodd" stroke="none"/>
    </g>
  </defs>
</svg>
