<?xml version="1.0" encoding="UTF-8" standalone="no"?>
<svg xmlns:ffdec="https://www.free-decompiler.com/flash" xmlns:xlink="http://www.w3.org/1999/xlink" ffdec:objectType="frame" height="26.05px" width="52.95px" xmlns="http://www.w3.org/2000/svg">
  <g transform="matrix(1.0, 0.0, 0.0, 1.0, 0.0, 0.0)">
    <use ffdec:characterId="1" height="26.0" transform="matrix(1.0, 0.0, 0.0, 1.0, 0.0, 0.0)" width="35.75" xlink:href="#shape0"/>
    <use ffdec:characterId="29" height="14.25" transform="matrix(1.0, 0.0, 0.0, 1.0, 9.3, 5.25)" width="17.15" xlink:href="#shape1"/>
  </g>
  <defs>
    <g id="shape0" transform="matrix(1.0, 0.0, 0.0, 1.0, 0.0, 0.0)">
      <path d="M33.8 1.95 Q35.75 3.9 35.75 6.6 L35.75 19.4 Q35.75 22.15 33.8 24.05 L33.7 24.15 Q31.85 26.0 29.15 26.0 L6.6 26.0 Q3.9 26.0 1.95 24.05 0.0 22.15 0.0 19.4 L0.0 6.6 Q0.0 3.9 1.95 1.95 3.9 0.0 6.6 0.0 L29.15 0.0 Q31.85 0.0 33.7 1.85 L33.8 1.95 M32.9 2.8 Q31.3 1.3 29.15 1.3 L6.6 1.3 Q4.4 1.3 2.8 2.8 1.3 4.4 1.3 6.6 L1.3 19.4 Q1.3 21.55 2.8 23.15 4.4 24.7 6.6 24.7 L29.15 24.7 Q31.3 24.7 32.9 23.15 L33.7 22.15 Q34.45 20.9 34.45 19.4 L34.45 6.6 Q34.45 5.05 33.7 3.85 L32.9 2.8" fill="#c89b6f" fill-rule="evenodd" stroke="none"/>
      <path d="M33.7 3.85 Q34.45 5.05 34.45 6.6 L34.45 19.4 Q34.45 20.9 33.7 22.15 L32.9 23.15 Q31.3 24.7 29.15 24.7 L6.6 24.7 Q4.4 24.7 2.8 23.15 1.3 21.55 1.3 19.4 L1.3 6.6 Q1.3 4.4 2.8 2.8 4.4 1.3 6.6 1.3 L29.15 1.3 Q31.3 1.3 32.9 2.8 L33.7 3.85 M31.75 4.0 Q30.65 2.9 29.15 2.9 L6.6 2.9 Q5.1 2.9 4.0 4.0 2.95 5.1 2.95 6.6 L2.95 19.4 Q2.95 20.9 4.0 22.0 5.1 23.05 6.6 23.05 L29.15 23.05 Q30.6 23.05 31.75 22.0 32.8 20.85 32.8 19.4 L32.8 6.6 Q32.8 5.1 31.75 4.0" fill="#3e0d00" fill-rule="evenodd" stroke="none"/>
      <path d="M32.8 6.6 L32.8 19.4 Q32.8 20.85 31.75 22.0 30.6 23.05 29.15 23.05 L6.6 23.05 Q5.1 23.05 4.0 22.0 2.95 20.9 2.95 19.4 L2.95 6.6 Q2.95 5.1 4.0 4.0 5.1 2.9 6.6 2.9 L29.15 2.9 Q30.65 2.9 31.75 4.0 32.8 5.1 32.8 6.6" fill="#c89b6f" fill-rule="evenodd" stroke="none"/>
    </g>
    <g id="shape1" transform="matrix(1.0, 0.0, 0.0, 1.0, 0.0, 0.0)">
      <path d="M8.85 8.05 L8.55 7.2 Q8.3 6.85 7.95 6.8 7.5 6.85 7.25 7.2 L6.95 8.05 6.9 9.05 6.9 9.8 6.9 10.55 6.95 11.55 7.25 12.45 Q7.5 12.8 7.95 12.8 L8.55 12.45 8.85 11.55 8.95 10.55 8.95 9.8 8.95 9.05 8.85 8.05 M6.15 5.85 Q6.55 5.4 7.3 5.4 7.85 5.4 8.25 5.7 L8.85 6.45 8.9 6.45 8.9 5.5 10.5 5.5 10.5 14.1 8.9 14.1 8.9 13.0 8.85 13.0 8.3 13.9 Q7.95 14.25 7.25 14.25 6.55 14.2 6.1 13.75 L5.5 12.5 5.3 11.0 5.25 9.7 5.3 8.4 5.5 7.0 Q5.7 6.3 6.15 5.85 M5.6 1.3 L5.6 2.75 3.7 2.75 3.7 14.1 2.0 14.1 2.0 2.75 0.0 2.75 0.0 1.3 5.6 1.3 M13.85 7.2 Q13.65 7.55 13.6 8.05 L13.5 9.05 13.5 9.8 13.5 10.55 13.6 11.55 13.85 12.4 Q14.1 12.8 14.5 12.8 14.9 12.8 15.15 12.4 L15.45 11.55 15.55 10.55 15.55 9.8 15.55 9.05 15.45 8.05 15.15 7.15 Q14.9 6.8 14.5 6.8 14.1 6.8 13.85 7.2 M11.95 0.0 L13.55 0.0 13.55 6.45 13.85 6.0 14.15 5.65 14.55 5.45 15.1 5.4 Q15.85 5.4 16.25 5.85 L16.9 7.0 17.15 8.4 17.15 9.7 17.15 11.0 16.9 12.5 16.3 13.75 Q15.9 14.2 15.15 14.25 14.45 14.25 14.15 13.9 L13.55 13.0 13.55 14.1 11.95 14.1 11.95 0.0" fill="#3e0d00" fill-rule="evenodd" stroke="none"/>
    </g>
  </defs>
</svg>
