<?xml version="1.0" encoding="UTF-8" standalone="no"?>
<svg xmlns:ffdec="https://www.free-decompiler.com/flash" xmlns:xlink="http://www.w3.org/1999/xlink" ffdec:objectType="frame" height="26.05px" width="52.95px" xmlns="http://www.w3.org/2000/svg">
  <g transform="matrix(1.0, 0.0, 0.0, 1.0, 0.0, 0.0)">
    <use ffdec:characterId="121" height="26.0" transform="matrix(1.0, 0.0, 0.0, 1.0, 0.0, 0.0)" width="26.0" xlink:href="#shape0"/>
    <use ffdec:characterId="122" height="12.95" transform="matrix(0.9293, 0.0, 0.0, 0.9326, 5.0, 7.3)" width="15.55" xlink:href="#shape1"/>
  </g>
  <defs>
    <g id="shape0" transform="matrix(1.0, 0.0, 0.0, 1.0, 0.0, 0.0)">
      <path d="M23.05 19.4 L23.0 12.15 Q22.65 8.35 19.85 5.7 16.95 3.05 13.1 2.95 L6.6 2.95 Q5.1 2.95 4.05 4.05 2.95 5.1 2.95 6.6 L2.95 19.4 Q2.95 20.9 4.05 21.95 5.1 23.05 6.6 23.05 L19.4 23.05 Q20.9 23.05 21.95 21.95 23.05 20.9 23.05 19.4 M24.6 19.4 Q24.6 21.55 23.1 23.1 21.55 24.6 19.4 24.6 L6.6 24.6 Q4.45 24.6 2.95 23.1 1.4 21.6 1.4 19.4 L1.4 6.6 Q1.4 4.45 2.95 2.95 4.45 1.4 6.6 1.4 L13.15 1.4 Q17.6 1.5 20.9 4.55 24.25 7.65 24.55 12.1 L24.6 19.4" fill="#3e0d00" fill-rule="evenodd" stroke="none"/>
      <path d="M23.05 19.4 Q23.05 20.9 21.95 21.95 20.9 23.05 19.4 23.05 L6.6 23.05 Q5.1 23.05 4.05 21.95 2.95 20.9 2.95 19.4 L2.95 6.6 Q2.95 5.1 4.05 4.05 5.1 2.95 6.6 2.95 L13.1 2.95 Q16.95 3.05 19.85 5.7 22.65 8.35 23.0 12.15 L23.05 19.4 M24.6 19.4 L24.55 12.1 Q24.25 7.65 20.9 4.55 17.6 1.5 13.15 1.4 L6.6 1.4 Q4.45 1.4 2.95 2.95 1.4 4.45 1.4 6.6 L1.4 19.4 Q1.4 21.6 2.95 23.1 4.45 24.6 6.6 24.6 L19.4 24.6 Q21.55 24.6 23.1 23.1 24.6 21.55 24.6 19.4 M25.95 12.05 L26.0 19.4 Q26.0 22.15 24.05 24.05 22.15 26.0 19.4 26.0 L6.6 26.0 Q3.85 26.0 1.9 24.05 0.1 22.25 0.0 19.7 L0.0 6.35 Q0.1 3.75 1.9 1.95 3.85 0.0 6.6 0.0 L13.15 0.0 Q18.2 0.1 21.9 3.6 25.6 7.05 25.95 12.05" fill="#c89b6f" fill-rule="evenodd" stroke="none"/>
    </g>
    <g id="shape1" transform="matrix(1.0, 0.0, 0.0, 1.0, 0.0, 0.0)">
      <path d="M6.05 0.15 L7.55 0.15 8.75 12.95 7.05 12.95 6.6 4.1 4.95 12.95 3.8 12.95 2.15 4.1 2.1 4.1 1.65 12.95 0.0 12.95 1.05 0.15 2.5 0.15 4.35 9.4 4.4 9.4 4.45 8.85 6.05 0.15 M13.8 3.05 L13.7 2.35 13.35 1.75 Q13.1 1.5 12.65 1.5 12.25 1.5 12.0 1.8 11.8 2.1 11.75 2.55 L11.65 3.35 11.7 3.95 11.7 4.3 9.95 4.3 9.95 3.85 Q9.95 2.8 10.1 1.95 10.3 1.05 10.85 0.5 11.45 0.0 12.7 0.0 14.25 0.0 14.9 0.8 15.55 1.65 15.55 3.15 15.55 4.1 15.15 5.25 L14.3 7.45 13.35 9.4 12.25 11.45 15.45 11.45 15.45 12.95 9.8 12.95 12.9 6.35 13.5 4.75 13.8 3.05" fill="#3e0d00" fill-rule="evenodd" stroke="none"/>
    </g>
  </defs>
</svg>
