<?xml version="1.0" encoding="UTF-8" standalone="no"?>
<svg xmlns:ffdec="https://www.free-decompiler.com/flash" xmlns:xlink="http://www.w3.org/1999/xlink" ffdec:objectType="frame" height="26.05px" width="52.95px" xmlns="http://www.w3.org/2000/svg">
  <g transform="matrix(1.0, 0.0, 0.0, 1.0, 0.0, 0.0)">
    <use ffdec:characterId="1" height="26.0" transform="matrix(1.0, 0.0, 0.0, 1.0, 1.65, 0.0)" width="35.75" xlink:href="#shape0"/>
    <use ffdec:characterId="131" height="13.15" transform="matrix(1.0, 0.0, 0.0, 1.0, 5.9, 6.4)" width="23.95" xlink:href="#shape1"/>
  </g>
  <defs>
    <g id="shape0" transform="matrix(1.0, 0.0, 0.0, 1.0, 0.0, 0.0)">
      <path d="M33.8 1.95 Q35.75 3.9 35.75 6.6 L35.75 19.4 Q35.75 22.15 33.8 24.05 L33.7 24.15 Q31.85 26.0 29.15 26.0 L6.6 26.0 Q3.9 26.0 1.95 24.05 0.0 22.15 0.0 19.4 L0.0 6.6 Q0.0 3.9 1.95 1.95 3.9 0.0 6.6 0.0 L29.15 0.0 Q31.85 0.0 33.7 1.85 L33.8 1.95 M32.9 2.8 Q31.3 1.3 29.15 1.3 L6.6 1.3 Q4.4 1.3 2.8 2.8 1.3 4.4 1.3 6.6 L1.3 19.4 Q1.3 21.55 2.8 23.15 4.4 24.7 6.6 24.7 L29.15 24.7 Q31.3 24.7 32.9 23.15 L33.7 22.15 Q34.45 20.9 34.45 19.4 L34.45 6.6 Q34.45 5.05 33.7 3.85 L32.9 2.8" fill="#c89b6f" fill-rule="evenodd" stroke="none"/>
      <path d="M33.7 3.85 Q34.45 5.05 34.45 6.6 L34.45 19.4 Q34.45 20.9 33.7 22.15 L32.9 23.15 Q31.3 24.7 29.15 24.7 L6.6 24.7 Q4.4 24.7 2.8 23.15 1.3 21.55 1.3 19.4 L1.3 6.6 Q1.3 4.4 2.8 2.8 4.4 1.3 6.6 1.3 L29.15 1.3 Q31.3 1.3 32.9 2.8 L33.7 3.85 M31.75 4.0 Q30.65 2.9 29.15 2.9 L6.6 2.9 Q5.1 2.9 4.0 4.0 2.95 5.1 2.95 6.6 L2.95 19.4 Q2.95 20.9 4.0 22.0 5.1 23.05 6.6 23.05 L29.15 23.05 Q30.6 23.05 31.75 22.0 32.8 20.85 32.8 19.4 L32.8 6.6 Q32.8 5.1 31.75 4.0" fill="#3e0d00" fill-rule="evenodd" stroke="none"/>
      <path d="M32.8 6.6 L32.8 19.4 Q32.8 20.85 31.75 22.0 30.6 23.05 29.15 23.05 L6.6 23.05 Q5.1 23.05 4.0 22.0 2.95 20.9 2.95 19.4 L2.95 6.6 Q2.95 5.1 4.0 4.0 5.1 2.9 6.6 2.9 L29.15 2.9 Q30.65 2.9 31.75 4.0 32.8 5.1 32.8 6.6" fill="#c89b6f" fill-rule="evenodd" stroke="none"/>
    </g>
    <g id="shape1" transform="matrix(1.0, 0.0, 0.0, 1.0, 0.0, 0.0)">
      <path d="M4.7 0.45 L4.7 2.15 4.0 1.75 3.25 1.6 Q2.55 1.65 2.15 2.1 1.75 2.55 1.75 3.25 L1.85 4.0 2.2 4.65 3.5 6.05 4.45 7.15 5.1 8.35 5.3 9.8 Q5.3 10.75 4.95 11.5 L3.9 12.7 2.3 13.15 1.3 13.0 0.45 12.55 0.45 10.85 1.2 11.3 2.1 11.5 2.95 11.25 3.45 10.6 3.6 9.7 Q3.6 8.95 3.25 8.4 L2.35 7.35 1.3 6.3 0.4 5.0 Q0.05 4.3 0.0 3.3 0.0 2.4 0.35 1.65 0.65 0.9 1.3 0.45 1.95 0.0 2.9 0.0 L3.85 0.1 Q4.3 0.2 4.7 0.45 M5.9 4.4 L6.75 4.4 6.75 2.0 8.35 2.0 8.35 4.4 9.2 4.4 9.2 5.7 8.35 5.7 8.35 13.0 6.75 13.0 6.75 5.7 5.9 5.7 5.9 4.4 M13.25 6.1 Q13.0 5.75 12.65 5.7 12.2 5.75 11.95 6.1 L11.65 6.95 11.6 7.95 11.6 8.7 11.6 9.45 11.65 10.45 11.95 11.35 Q12.2 11.7 12.65 11.7 L13.25 11.35 13.55 10.45 13.65 9.45 13.65 8.7 13.65 7.95 13.55 6.95 13.25 6.1 M12.0 4.3 L12.95 4.6 13.55 5.35 13.6 5.35 13.6 4.4 15.2 4.4 15.2 13.0 13.6 13.0 13.6 11.9 13.55 11.9 13.0 12.8 11.95 13.15 Q11.25 13.1 10.8 12.65 L10.2 11.4 10.0 9.9 9.95 8.6 10.0 7.3 10.2 5.9 Q10.4 5.2 10.85 4.75 11.25 4.3 12.0 4.3 M20.1 5.85 L19.85 5.85 Q18.95 5.85 18.6 6.3 18.25 6.75 18.25 7.6 L18.25 13.0 16.65 13.0 16.65 4.4 18.25 4.4 18.25 5.45 18.3 5.45 19.0 4.6 Q19.45 4.3 20.1 4.3 L20.1 5.85 M21.5 5.7 L20.65 5.7 20.65 4.4 21.5 4.4 21.5 2.0 23.1 2.0 23.1 4.4 23.95 4.4 23.95 5.7 23.1 5.7 23.1 13.0 21.5 13.0 21.5 5.7" fill="#3e0d00" fill-rule="evenodd" stroke="none"/>
    </g>
  </defs>
</svg>
