<?xml version="1.0" encoding="UTF-8" standalone="no"?>
<svg xmlns:ffdec="https://www.free-decompiler.com/flash" xmlns:xlink="http://www.w3.org/1999/xlink" ffdec:objectType="frame" height="26.05px" width="52.95px" xmlns="http://www.w3.org/2000/svg">
  <g transform="matrix(1.0, 0.0, 0.0, 1.0, 0.0, 0.0)">
    <use ffdec:characterId="1" height="26.0" transform="matrix(1.0, 0.0, 0.0, 1.0, 1.65, 0.0)" width="35.75" xlink:href="#shape0"/>
    <use ffdec:characterId="132" height="14.25" transform="matrix(1.0, 0.0, 0.0, 1.0, 6.0, 5.3)" width="23.7" xlink:href="#shape1"/>
  </g>
  <defs>
    <g id="shape0" transform="matrix(1.0, 0.0, 0.0, 1.0, 0.0, 0.0)">
      <path d="M33.8 1.95 Q35.75 3.9 35.75 6.6 L35.75 19.4 Q35.75 22.15 33.8 24.05 L33.7 24.15 Q31.85 26.0 29.15 26.0 L6.6 26.0 Q3.9 26.0 1.95 24.05 0.0 22.15 0.0 19.4 L0.0 6.6 Q0.0 3.9 1.95 1.95 3.9 0.0 6.6 0.0 L29.15 0.0 Q31.85 0.0 33.7 1.85 L33.8 1.95 M32.9 2.8 Q31.3 1.3 29.15 1.3 L6.6 1.3 Q4.4 1.3 2.8 2.8 1.3 4.4 1.3 6.6 L1.3 19.4 Q1.3 21.55 2.8 23.15 4.4 24.7 6.6 24.7 L29.15 24.7 Q31.3 24.7 32.9 23.15 L33.7 22.15 Q34.45 20.9 34.45 19.4 L34.45 6.6 Q34.45 5.05 33.7 3.85 L32.9 2.8" fill="#c89b6f" fill-rule="evenodd" stroke="none"/>
      <path d="M33.7 3.85 Q34.45 5.05 34.45 6.6 L34.45 19.4 Q34.45 20.9 33.7 22.15 L32.9 23.15 Q31.3 24.7 29.15 24.7 L6.6 24.7 Q4.4 24.7 2.8 23.15 1.3 21.55 1.3 19.4 L1.3 6.6 Q1.3 4.4 2.8 2.8 4.4 1.3 6.6 1.3 L29.15 1.3 Q31.3 1.3 32.9 2.8 L33.7 3.85 M31.75 4.0 Q30.65 2.9 29.15 2.9 L6.6 2.9 Q5.1 2.9 4.0 4.0 2.95 5.1 2.95 6.6 L2.95 19.4 Q2.95 20.9 4.0 22.0 5.1 23.05 6.6 23.05 L29.15 23.05 Q30.6 23.05 31.75 22.0 32.8 20.85 32.8 19.4 L32.8 6.6 Q32.8 5.1 31.75 4.0" fill="#3e0d00" fill-rule="evenodd" stroke="none"/>
      <path d="M32.8 6.6 L32.8 19.4 Q32.8 20.85 31.75 22.0 30.6 23.05 29.15 23.05 L6.6 23.05 Q5.1 23.05 4.0 22.0 2.95 20.9 2.95 19.4 L2.95 6.6 Q2.95 5.1 4.0 4.0 5.1 2.9 6.6 2.9 L29.15 2.9 Q30.65 2.9 31.75 4.0 32.8 5.1 32.8 6.6" fill="#c89b6f" fill-rule="evenodd" stroke="none"/>
    </g>
    <g id="shape1" transform="matrix(1.0, 0.0, 0.0, 1.0, 0.0, 0.0)">
      <path d="M3.3 11.75 L3.45 10.55 3.3 9.35 2.8 8.55 1.6 8.3 1.6 12.65 2.75 12.45 3.3 11.75 M1.9 2.75 L1.6 2.75 1.6 6.95 Q2.4 6.95 2.75 6.65 L3.3 5.85 3.4 4.65 3.25 3.7 2.8 3.0 1.9 2.75 M3.9 1.7 Q4.55 2.1 4.8 2.85 5.1 3.65 5.05 4.7 L4.95 5.95 4.5 6.95 Q4.15 7.35 3.45 7.55 L3.45 7.6 Q4.2 7.8 4.55 8.25 L5.1 9.3 5.25 10.6 Q5.3 12.35 4.55 13.25 3.8 14.1 2.05 14.1 L0.0 14.1 0.0 1.3 2.1 1.3 Q3.25 1.3 3.9 1.7 M10.25 9.05 L10.15 8.05 9.85 7.2 Q9.6 6.85 9.25 6.8 8.8 6.85 8.55 7.2 L8.25 8.05 8.2 9.05 8.2 9.8 8.2 10.55 8.25 11.55 8.55 12.45 Q8.8 12.8 9.25 12.8 L9.85 12.45 10.15 11.55 10.25 10.55 10.25 9.8 10.25 9.05 M10.2 5.5 L11.8 5.5 11.8 14.1 10.2 14.1 10.2 13.0 10.15 13.0 9.6 13.9 Q9.25 14.25 8.55 14.25 7.85 14.2 7.4 13.75 L6.8 12.5 6.6 11.0 6.55 9.7 6.6 8.4 6.8 7.0 Q7.0 6.3 7.45 5.85 7.85 5.4 8.6 5.4 9.15 5.4 9.55 5.7 L10.15 6.45 10.2 6.45 10.2 5.5 M15.55 5.4 L16.2 5.45 16.8 5.65 16.8 7.3 16.5 7.0 16.05 6.85 Q15.5 6.9 15.25 7.2 L14.8 7.95 14.65 8.9 14.65 9.75 14.65 10.55 14.8 11.55 15.2 12.4 Q15.5 12.75 16.0 12.75 L16.45 12.65 16.8 12.4 16.8 13.9 16.2 14.15 15.5 14.25 Q14.7 14.2 14.2 13.8 13.65 13.35 13.4 12.7 L13.05 11.3 13.0 9.9 13.05 8.45 Q13.15 7.65 13.4 6.95 13.65 6.25 14.15 5.85 14.65 5.4 15.55 5.4 M21.6 5.5 L23.4 5.5 21.2 9.3 23.7 14.1 21.85 14.1 19.65 9.55 19.6 9.55 19.6 14.1 18.0 14.1 18.0 0.0 19.6 0.0 19.6 9.3 19.65 9.3 21.6 5.5" fill="#3e0d00" fill-rule="evenodd" stroke="none"/>
    </g>
  </defs>
</svg>
