<?xml version="1.0" encoding="UTF-8" standalone="no"?>
<svg xmlns:ffdec="https://www.free-decompiler.com/flash" xmlns:xlink="http://www.w3.org/1999/xlink" ffdec:objectType="frame" height="26.05px" width="52.95px" xmlns="http://www.w3.org/2000/svg">
  <g transform="matrix(1.0, 0.0, 0.0, 1.0, 0.0, 0.0)">
    <use ffdec:characterId="1" height="26.0" transform="matrix(1.0, 0.0, 0.0, 1.0, 0.0, 0.0)" width="35.75" xlink:href="#shape0"/>
    <use ffdec:characterId="43" height="14.25" transform="matrix(1.0, 0.0, 0.0, 1.0, 6.7, 5.3)" width="22.3" xlink:href="#shape1"/>
  </g>
  <defs>
    <g id="shape0" transform="matrix(1.0, 0.0, 0.0, 1.0, 0.0, 0.0)">
      <path d="M33.8 1.95 Q35.75 3.9 35.75 6.6 L35.75 19.4 Q35.75 22.15 33.8 24.05 L33.7 24.15 Q31.85 26.0 29.15 26.0 L6.6 26.0 Q3.9 26.0 1.95 24.05 0.0 22.15 0.0 19.4 L0.0 6.6 Q0.0 3.9 1.95 1.95 3.9 0.0 6.6 0.0 L29.15 0.0 Q31.85 0.0 33.7 1.85 L33.8 1.95 M32.9 2.8 Q31.3 1.3 29.15 1.3 L6.6 1.3 Q4.4 1.3 2.8 2.8 1.3 4.4 1.3 6.6 L1.3 19.4 Q1.3 21.55 2.8 23.15 4.4 24.7 6.6 24.7 L29.15 24.7 Q31.3 24.7 32.9 23.15 L33.7 22.15 Q34.45 20.9 34.45 19.4 L34.45 6.6 Q34.45 5.05 33.7 3.85 L32.9 2.8" fill="#c89b6f" fill-rule="evenodd" stroke="none"/>
      <path d="M33.7 3.85 Q34.45 5.05 34.45 6.6 L34.45 19.4 Q34.45 20.9 33.7 22.15 L32.9 23.15 Q31.3 24.7 29.15 24.7 L6.6 24.7 Q4.4 24.7 2.8 23.15 1.3 21.55 1.3 19.4 L1.3 6.6 Q1.3 4.4 2.8 2.8 4.4 1.3 6.6 1.3 L29.15 1.3 Q31.3 1.3 32.9 2.8 L33.7 3.85 M31.75 4.0 Q30.65 2.9 29.15 2.9 L6.6 2.9 Q5.1 2.9 4.0 4.0 2.95 5.1 2.95 6.6 L2.95 19.4 Q2.95 20.9 4.0 22.0 5.1 23.05 6.6 23.05 L29.15 23.05 Q30.6 23.05 31.75 22.0 32.8 20.85 32.8 19.4 L32.8 6.6 Q32.8 5.1 31.75 4.0" fill="#3e0d00" fill-rule="evenodd" stroke="none"/>
      <path d="M32.8 6.6 L32.8 19.4 Q32.8 20.85 31.75 22.0 30.6 23.05 29.15 23.05 L6.6 23.05 Q5.1 23.05 4.0 22.0 2.95 20.9 2.95 19.4 L2.95 6.6 Q2.95 5.1 4.0 4.0 5.1 2.9 6.6 2.9 L29.15 2.9 Q30.65 2.9 31.75 4.0 32.8 5.1 32.8 6.6" fill="#c89b6f" fill-rule="evenodd" stroke="none"/>
    </g>
    <g id="shape1" transform="matrix(1.0, 0.0, 0.0, 1.0, 0.0, 0.0)">
      <path d="M0.0 1.3 L1.7 1.3 1.7 12.6 4.55 12.6 4.55 14.1 0.0 14.1 0.0 1.3 M12.7 5.5 L12.7 3.1 14.3 3.1 14.3 5.5 15.15 5.5 15.15 6.8 14.3 6.8 14.3 14.1 12.7 14.1 12.7 6.8 11.85 6.8 11.85 5.5 12.7 5.5 M11.4 1.5 L11.4 3.05 10.9 2.8 10.3 2.7 Q9.6 2.7 9.15 3.1 L8.45 4.05 8.05 5.3 7.95 6.65 7.9 7.75 7.95 9.25 8.25 10.85 Q8.5 11.65 9.0 12.15 9.5 12.65 10.4 12.65 L10.9 12.6 11.4 12.4 11.4 13.9 10.75 14.2 10.05 14.25 Q8.75 14.25 7.95 13.65 7.2 13.05 6.8 12.1 6.4 11.15 6.25 10.0 L6.1 7.9 6.15 6.2 6.45 4.4 Q6.65 3.5 7.1 2.75 7.5 2.0 8.2 1.55 8.9 1.15 9.9 1.1 L10.7 1.2 11.4 1.5 M18.5 5.7 Q18.95 5.4 19.6 5.4 L19.6 6.95 19.35 6.95 Q18.45 6.95 18.1 7.4 17.75 7.85 17.75 8.7 L17.75 14.1 16.15 14.1 16.15 5.5 17.75 5.5 17.75 6.55 17.8 6.55 18.5 5.7 M20.7 14.1 L20.7 0.0 22.3 0.0 22.3 14.1 20.7 14.1" fill="#3e0d00" fill-rule="evenodd" stroke="none"/>
    </g>
  </defs>
</svg>
