<?xml version="1.0" encoding="UTF-8" standalone="no"?>
<svg xmlns:ffdec="https://www.free-decompiler.com/flash" xmlns:xlink="http://www.w3.org/1999/xlink" ffdec:objectType="frame" height="26.05px" width="52.95px" xmlns="http://www.w3.org/2000/svg">
  <g transform="matrix(1.0, 0.0, 0.0, 1.0, 0.0, 0.0)">
    <use ffdec:characterId="27" height="26.0" transform="matrix(1.0, 0.0, 0.0, 1.0, 0.0, 0.0)" width="41.75" xlink:href="#shape0"/>
    <use ffdec:characterId="76" height="16.5" transform="matrix(1.0, 0.0, 0.0, 1.0, 6.4, 5.55)" width="29.0" xlink:href="#shape1"/>
  </g>
  <defs>
    <g id="shape0" transform="matrix(1.0, 0.0, 0.0, 1.0, 0.0, 0.0)">
      <path d="M41.75 19.4 Q41.75 22.15 39.8 24.05 37.9 26.0 35.15 26.0 L6.55 26.0 Q3.9 26.0 1.95 24.05 0.0 22.15 0.0 19.4 L0.0 6.6 Q0.0 3.9 1.95 1.95 3.9 0.0 6.55 0.0 L35.15 0.0 Q37.9 0.0 39.8 1.95 41.75 3.9 41.75 6.6 L41.75 19.4 M40.45 6.6 Q40.45 4.4 38.9 2.8 37.3 1.3 35.15 1.3 L6.55 1.3 Q4.4 1.3 2.8 2.8 1.3 4.4 1.3 6.6 L1.3 19.4 Q1.3 21.55 2.8 23.15 4.4 24.7 6.55 24.7 L35.15 24.7 Q37.3 24.7 38.9 23.15 40.45 21.55 40.45 19.4 L40.45 6.6" fill="#c89b6f" fill-rule="evenodd" stroke="none"/>
      <path d="M38.9 2.8 Q40.45 4.4 40.45 6.6 L40.45 19.4 Q40.45 21.55 38.9 23.15 37.3 24.7 35.15 24.7 L6.55 24.7 Q4.4 24.7 2.8 23.15 1.3 21.55 1.3 19.4 L1.3 6.6 Q1.3 4.4 2.8 2.8 4.4 1.3 6.55 1.3 L35.15 1.3 Q37.3 1.3 38.9 2.8 M37.75 4.0 Q36.65 2.9 35.15 2.9 L6.55 2.9 Q5.1 2.9 3.95 4.0 2.9 5.1 2.9 6.6 L2.9 19.4 Q2.9 20.9 3.95 22.0 5.1 23.05 6.55 23.05 L35.15 23.05 Q36.65 23.05 37.7 22.0 38.8 20.9 38.8 19.4 L38.8 6.6 Q38.8 5.1 37.75 4.0" fill="#3e0d00" fill-rule="evenodd" stroke="none"/>
      <path d="M38.85 6.6 L38.85 19.4 Q38.85 20.9 37.7 22.0 36.65 23.1 35.15 23.1 L6.6 23.1 Q5.1 23.1 4.0 22.0 2.9 20.9 2.9 19.4 L2.9 6.6 Q2.9 5.1 4.0 4.0 5.1 2.95 6.6 2.95 L35.15 2.95 Q36.65 2.95 37.75 4.0 38.85 5.1 38.85 6.6" fill="#c89b6f" fill-rule="evenodd" stroke="none"/>
    </g>
    <g id="shape1" transform="matrix(1.0, 0.0, 0.0, 1.0, 0.0, 0.0)">
      <path d="M4.7 0.45 L4.7 2.15 4.0 1.75 3.25 1.6 Q2.55 1.65 2.15 2.1 1.75 2.55 1.75 3.25 L1.85 4.0 2.2 4.65 3.5 6.05 4.45 7.15 5.1 8.35 5.3 9.8 Q5.3 10.75 4.95 11.5 L3.9 12.7 2.3 13.15 1.3 13.0 0.45 12.55 0.45 10.85 1.2 11.3 2.1 11.5 2.95 11.25 3.45 10.6 3.6 9.7 Q3.6 8.95 3.25 8.4 L2.35 7.35 1.3 6.3 0.4 5.0 Q0.05 4.3 0.0 3.3 0.0 2.4 0.35 1.65 0.65 0.9 1.3 0.45 1.95 0.0 2.9 0.0 L3.85 0.1 Q4.3 0.2 4.7 0.45 M9.65 6.1 Q9.4 5.75 9.0 5.7 8.6 5.75 8.35 6.1 8.15 6.45 8.1 6.95 L8.0 7.95 8.0 8.7 8.0 9.45 8.1 10.5 Q8.15 11.0 8.35 11.35 8.6 11.7 9.0 11.7 L9.7 11.25 10.0 10.15 10.05 8.7 10.05 7.95 9.95 6.95 9.65 6.1 M10.8 4.8 L11.4 6.0 11.65 7.5 11.65 8.8 11.65 10.1 11.4 11.5 10.75 12.65 Q10.35 13.1 9.6 13.15 L8.65 12.85 Q8.3 12.55 8.05 12.05 L8.05 16.5 6.45 16.5 6.45 4.4 8.05 4.4 8.05 5.5 8.65 4.6 Q9.0 4.3 9.65 4.3 10.4 4.3 10.8 4.8 M15.95 6.1 Q15.7 5.75 15.35 5.7 14.9 5.75 14.65 6.1 L14.35 6.95 14.3 7.95 14.3 8.7 14.3 9.45 14.35 10.45 14.65 11.35 Q14.9 11.7 15.35 11.7 15.7 11.7 15.95 11.35 L16.25 10.45 16.35 9.45 16.35 8.7 16.35 7.95 16.25 6.95 15.95 6.1 M16.3 4.4 L17.9 4.4 17.9 13.0 16.3 13.0 16.3 11.9 16.25 11.9 15.7 12.8 14.65 13.15 Q13.95 13.1 13.5 12.65 L12.9 11.4 12.7 9.9 12.65 8.6 12.7 7.3 12.9 5.9 Q13.1 5.2 13.55 4.75 13.95 4.3 14.7 4.3 L15.65 4.6 16.25 5.35 16.3 5.35 16.3 4.4 M22.6 5.9 L22.15 5.75 Q21.6 5.8 21.35 6.1 21.05 6.4 20.9 6.85 L20.75 7.8 20.75 8.65 20.75 9.45 20.9 10.45 21.3 11.3 Q21.6 11.65 22.1 11.65 L22.55 11.55 22.9 11.3 22.9 12.8 22.3 13.05 21.6 13.15 Q20.8 13.1 20.3 12.7 19.75 12.25 19.5 11.6 L19.15 10.2 19.1 8.8 19.15 7.35 Q19.25 6.55 19.5 5.85 19.75 5.15 20.25 4.75 20.75 4.3 21.65 4.3 L22.3 4.35 22.9 4.55 22.9 6.2 22.6 5.9 M27.8 4.75 L28.6 5.85 28.95 7.3 29.0 8.75 29.0 9.0 25.5 9.0 25.5 9.75 25.6 10.65 25.9 11.4 Q26.1 11.7 26.5 11.7 L27.1 11.45 27.4 10.85 27.5 10.1 28.95 10.1 28.7 11.6 27.9 12.7 Q27.35 13.1 26.45 13.15 25.55 13.1 25.05 12.7 24.5 12.3 24.25 11.65 L23.9 10.2 23.85 8.75 23.9 7.35 Q24.0 6.55 24.25 5.85 24.5 5.15 25.0 4.75 25.55 4.3 26.4 4.3 27.3 4.3 27.8 4.75 M26.95 5.95 Q26.75 5.7 26.4 5.7 26.05 5.7 25.85 5.95 L25.55 6.55 25.5 7.25 25.5 7.9 27.4 7.9 27.35 7.25 27.25 6.55 26.95 5.95" fill="#3e0d00" fill-rule="evenodd" stroke="none"/>
    </g>
  </defs>
</svg>
