<?xml version="1.0" encoding="UTF-8" standalone="no"?>
<svg xmlns:ffdec="https://www.free-decompiler.com/flash" xmlns:xlink="http://www.w3.org/1999/xlink" ffdec:objectType="frame" height="26.05px" width="52.95px" xmlns="http://www.w3.org/2000/svg">
  <g transform="matrix(1.0, 0.0, 0.0, 1.0, 0.0, 0.0)">
    <use ffdec:characterId="1" height="26.0" transform="matrix(1.0, 0.0, 0.0, 1.0, 0.0, 0.0)" width="35.75" xlink:href="#shape0"/>
    <use ffdec:characterId="93" height="12.95" transform="matrix(1.0, 0.0, 0.0, 1.0, 7.9, 6.45)" width="19.8" xlink:href="#shape1"/>
  </g>
  <defs>
    <g id="shape0" transform="matrix(1.0, 0.0, 0.0, 1.0, 0.0, 0.0)">
      <path d="M33.8 1.95 Q35.75 3.9 35.75 6.6 L35.75 19.4 Q35.75 22.15 33.8 24.05 L33.7 24.15 Q31.85 26.0 29.15 26.0 L6.6 26.0 Q3.9 26.0 1.95 24.05 0.0 22.15 0.0 19.4 L0.0 6.6 Q0.0 3.9 1.95 1.95 3.9 0.0 6.6 0.0 L29.15 0.0 Q31.85 0.0 33.7 1.85 L33.8 1.95 M32.9 2.8 Q31.3 1.3 29.15 1.3 L6.6 1.3 Q4.4 1.3 2.8 2.8 1.3 4.4 1.3 6.6 L1.3 19.4 Q1.3 21.55 2.8 23.15 4.4 24.7 6.6 24.7 L29.15 24.7 Q31.3 24.7 32.9 23.15 L33.7 22.15 Q34.45 20.9 34.45 19.4 L34.45 6.6 Q34.45 5.05 33.7 3.85 L32.9 2.8" fill="#c89b6f" fill-rule="evenodd" stroke="none"/>
      <path d="M33.7 3.85 Q34.45 5.05 34.45 6.6 L34.45 19.4 Q34.45 20.9 33.7 22.15 L32.9 23.15 Q31.3 24.7 29.15 24.7 L6.6 24.7 Q4.4 24.7 2.8 23.15 1.3 21.55 1.3 19.4 L1.3 6.6 Q1.3 4.4 2.8 2.8 4.4 1.3 6.6 1.3 L29.15 1.3 Q31.3 1.3 32.9 2.8 L33.7 3.85 M31.75 4.0 Q30.65 2.9 29.15 2.9 L6.6 2.9 Q5.1 2.9 4.0 4.0 2.95 5.1 2.95 6.6 L2.95 19.4 Q2.95 20.9 4.0 22.0 5.1 23.05 6.6 23.05 L29.15 23.05 Q30.6 23.05 31.75 22.0 32.8 20.85 32.8 19.4 L32.8 6.6 Q32.8 5.1 31.75 4.0" fill="#3e0d00" fill-rule="evenodd" stroke="none"/>
      <path d="M32.8 6.6 L32.8 19.4 Q32.8 20.85 31.75 22.0 30.6 23.05 29.15 23.05 L6.6 23.05 Q5.1 23.05 4.0 22.0 2.95 20.9 2.95 19.4 L2.95 6.6 Q2.95 5.1 4.0 4.0 5.1 2.9 6.6 2.9 L29.15 2.9 Q30.65 2.9 31.75 4.0 32.8 5.1 32.8 6.6" fill="#c89b6f" fill-rule="evenodd" stroke="none"/>
    </g>
    <g id="shape1" transform="matrix(1.0, 0.0, 0.0, 1.0, 0.0, 0.0)">
      <path d="M4.65 9.85 L4.25 0.15 5.95 0.15 5.95 12.95 4.35 12.95 1.35 3.05 1.7 12.95 0.0 12.95 0.0 0.15 1.6 0.15 4.6 9.85 4.65 9.85 M11.4 2.65 L10.95 1.85 9.95 1.6 9.7 1.6 9.7 5.85 Q10.75 5.9 11.15 5.35 11.55 4.8 11.55 3.7 L11.4 2.65 M11.15 0.2 L12.25 0.6 13.05 1.65 13.35 3.55 Q13.35 5.5 12.5 6.45 11.65 7.35 9.7 7.25 L9.7 12.95 8.0 12.95 8.0 0.15 10.05 0.15 11.15 0.2 M16.45 1.8 L16.15 2.5 16.05 3.4 16.05 4.1 16.05 4.8 16.15 5.6 16.45 6.25 Q16.65 6.55 17.05 6.55 17.45 6.55 17.65 6.25 L17.95 5.55 18.05 4.7 18.05 4.0 18.05 3.3 17.95 2.45 17.65 1.8 Q17.4 1.5 17.05 1.5 16.65 1.5 16.45 1.8 M18.55 0.35 L19.4 1.4 19.75 2.8 19.8 4.35 19.6 6.85 18.9 9.1 17.9 11.4 17.15 12.95 15.3 12.95 17.85 7.6 17.8 7.55 17.25 7.95 16.5 8.05 15.35 7.7 14.65 6.8 14.35 5.55 14.3 4.35 14.35 2.8 Q14.45 2.05 14.7 1.4 14.95 0.75 15.5 0.4 16.05 0.0 17.05 0.0 18.0 0.0 18.55 0.35" fill="#3e0d00" fill-rule="evenodd" stroke="none"/>
    </g>
  </defs>
</svg>
