<?xml version="1.0" encoding="UTF-8" standalone="no"?>
<svg xmlns:ffdec="https://www.free-decompiler.com/flash" xmlns:xlink="http://www.w3.org/1999/xlink" ffdec:objectType="frame" height="26.05px" width="52.95px" xmlns="http://www.w3.org/2000/svg">
  <g transform="matrix(1.0, 0.0, 0.0, 1.0, 0.0, 0.0)">
    <use ffdec:characterId="3" height="26.0" transform="matrix(1.0, 0.0, 0.0, 1.0, 0.0, 0.0)" width="26.0" xlink:href="#shape0"/>
    <use ffdec:characterId="16" height="7.25" transform="matrix(1.3478, 0.0, 0.0, 1.3478, 7.3, 5.65)" width="4.6" xlink:href="#shape1"/>
    <use ffdec:characterId="16" height="7.25" transform="matrix(1.3478, 0.0, 0.0, 1.3478, 6.5, 5.05)" width="4.6" xlink:href="#shape1"/>
    <use ffdec:characterId="17" height="12.8" transform="matrix(1.0, 0.0, 0.0, 1.0, 13.65, 7.8)" width="5.75" xlink:href="#shape2"/>
  </g>
  <defs>
    <g id="shape0" transform="matrix(1.0, 0.0, 0.0, 1.0, 0.0, 0.0)">
      <path d="M23.95 3.85 Q24.7 5.05 24.7 6.6 L24.7 19.4 Q24.7 20.9 23.95 22.15 L23.15 23.15 Q21.55 24.7 19.4 24.7 L6.6 24.7 Q4.4 24.7 2.8 23.15 1.3 21.55 1.3 19.4 L1.3 6.6 Q1.3 4.4 2.8 2.8 4.4 1.3 6.6 1.3 L19.4 1.3 Q21.55 1.3 23.15 2.8 L23.95 3.85 M22.0 4.0 Q20.9 2.9 19.4 2.9 L6.6 2.9 Q5.1 2.9 4.0 4.0 2.95 5.1 2.95 6.6 L2.95 19.4 Q2.95 20.9 4.0 22.0 5.1 23.05 6.6 23.05 L19.4 23.05 Q20.85 23.05 22.0 22.0 23.05 20.85 23.05 19.4 L23.05 6.6 Q23.05 5.1 22.0 4.0" fill="#3e0d00" fill-rule="evenodd" stroke="none"/>
      <path d="M23.95 3.85 L23.15 2.8 Q21.55 1.3 19.4 1.3 L6.6 1.3 Q4.4 1.3 2.8 2.8 1.3 4.4 1.3 6.6 L1.3 19.4 Q1.3 21.55 2.8 23.15 4.4 24.7 6.6 24.7 L19.4 24.7 Q21.55 24.7 23.15 23.15 L23.95 22.15 Q24.7 20.9 24.7 19.4 L24.7 6.6 Q24.7 5.05 23.95 3.85 M22.0 4.0 Q23.05 5.1 23.05 6.6 L23.05 19.4 Q23.05 20.85 22.0 22.0 20.85 23.05 19.4 23.05 L6.6 23.05 Q5.1 23.05 4.0 22.0 2.95 20.9 2.95 19.4 L2.95 6.6 Q2.95 5.1 4.0 4.0 5.1 2.9 6.6 2.9 L19.4 2.9 Q20.9 2.9 22.0 4.0 M24.05 1.95 Q26.0 3.9 26.0 6.6 L26.0 19.4 Q26.0 22.15 24.05 24.05 L23.95 24.15 Q22.1 26.0 19.4 26.0 L6.6 26.0 Q3.9 26.0 1.95 24.05 0.0 22.15 0.0 19.4 L0.0 6.6 Q0.0 3.9 1.95 1.95 3.9 0.0 6.6 0.0 L19.4 0.0 Q22.1 0.0 23.95 1.85 L24.05 1.95" fill="#c89b6f" fill-rule="evenodd" stroke="none"/>
    </g>
    <g id="shape1" transform="matrix(1.0, 0.0, 0.0, 1.0, 0.0, 0.0)">
      <path d="M1.0 5.3 L1.15 5.8 1.45 6.2 1.9 6.35 2.35 6.2 2.65 5.85 1.6 4.05 1.15 4.6 Q1.0 4.9 1.0 5.3 M2.6 1.35 L2.45 0.9 Q2.3 0.75 2.05 0.75 1.75 0.75 1.6 0.95 1.45 1.15 1.45 1.4 L1.6 2.05 1.85 2.65 2.2 2.25 2.5 1.85 2.6 1.35 M2.0 0.0 Q2.6 0.0 3.05 0.35 3.45 0.7 3.45 1.35 L3.3 2.15 2.85 2.8 2.3 3.4 3.3 5.05 3.95 4.15 4.6 4.7 3.8 5.85 4.6 7.15 3.45 7.15 3.1 6.55 2.5 7.05 1.75 7.25 Q1.25 7.25 0.85 6.95 L0.25 6.3 0.0 5.35 0.2 4.55 0.6 3.85 1.1 3.25 0.7 2.4 0.5 1.45 0.7 0.65 1.2 0.15 2.0 0.0" fill="#000000" fill-rule="evenodd" stroke="none"/>
    </g>
    <g id="shape2" transform="matrix(1.0, 0.0, 0.0, 1.0, 0.0, 0.0)">
      <path d="M0.0 0.0 L5.75 0.0 1.85 12.8 0.0 12.8 3.55 1.45 0.0 1.45 0.0 0.0" fill="#3e0d00" fill-rule="evenodd" stroke="none"/>
    </g>
  </defs>
</svg>
