<?xml version="1.0" encoding="UTF-8" standalone="no"?>
<svg xmlns:ffdec="https://www.free-decompiler.com/flash" xmlns:xlink="http://www.w3.org/1999/xlink" ffdec:objectType="frame" height="26.05px" width="52.95px" xmlns="http://www.w3.org/2000/svg">
  <g transform="matrix(1.0, 0.0, 0.0, 1.0, 0.0, 0.0)">
    <use ffdec:characterId="3" height="26.0" transform="matrix(1.0, 0.0, 0.0, 1.0, 0.0, 0.0)" width="26.0" xlink:href="#shape0"/>
    <use ffdec:characterId="18" height="3.3" transform="matrix(1.7581, 0.0, 0.0, 1.7581, 8.05, 5.6)" width="3.1" xlink:href="#shape1"/>
    <use ffdec:characterId="18" height="3.3" transform="matrix(1.7581, 0.0, 0.0, 1.7581, 7.25, 5.0)" width="3.1" xlink:href="#shape1"/>
    <use ffdec:characterId="19" height="13.1" transform="matrix(1.0, 0.0, 0.0, 1.0, 13.75, 7.5)" width="5.55" xlink:href="#shape2"/>
  </g>
  <defs>
    <g id="shape0" transform="matrix(1.0, 0.0, 0.0, 1.0, 0.0, 0.0)">
      <path d="M23.95 3.85 Q24.7 5.05 24.7 6.6 L24.7 19.4 Q24.7 20.9 23.95 22.15 L23.15 23.15 Q21.55 24.7 19.4 24.7 L6.6 24.7 Q4.4 24.7 2.8 23.15 1.3 21.55 1.3 19.4 L1.3 6.6 Q1.3 4.4 2.8 2.8 4.4 1.3 6.6 1.3 L19.4 1.3 Q21.55 1.3 23.15 2.8 L23.95 3.85 M22.0 4.0 Q20.9 2.9 19.4 2.9 L6.6 2.9 Q5.1 2.9 4.0 4.0 2.95 5.1 2.95 6.6 L2.95 19.4 Q2.95 20.9 4.0 22.0 5.1 23.05 6.6 23.05 L19.4 23.05 Q20.85 23.05 22.0 22.0 23.05 20.85 23.05 19.4 L23.05 6.6 Q23.05 5.1 22.0 4.0" fill="#3e0d00" fill-rule="evenodd" stroke="none"/>
      <path d="M23.95 3.85 L23.15 2.8 Q21.55 1.3 19.4 1.3 L6.6 1.3 Q4.4 1.3 2.8 2.8 1.3 4.4 1.3 6.6 L1.3 19.4 Q1.3 21.55 2.8 23.15 4.4 24.7 6.6 24.7 L19.4 24.7 Q21.55 24.7 23.15 23.15 L23.95 22.15 Q24.7 20.9 24.7 19.4 L24.7 6.6 Q24.7 5.05 23.95 3.85 M22.0 4.0 Q23.05 5.1 23.05 6.6 L23.05 19.4 Q23.05 20.85 22.0 22.0 20.85 23.05 19.4 23.05 L6.6 23.05 Q5.1 23.05 4.0 22.0 2.95 20.9 2.95 19.4 L2.95 6.6 Q2.95 5.1 4.0 4.0 5.1 2.9 6.6 2.9 L19.4 2.9 Q20.9 2.9 22.0 4.0 M24.05 1.95 Q26.0 3.9 26.0 6.6 L26.0 19.4 Q26.0 22.15 24.05 24.05 L23.95 24.15 Q22.1 26.0 19.4 26.0 L6.6 26.0 Q3.9 26.0 1.95 24.05 0.0 22.15 0.0 19.4 L0.0 6.6 Q0.0 3.9 1.95 1.95 3.9 0.0 6.6 0.0 L19.4 0.0 Q22.1 0.0 23.95 1.85 L24.05 1.95" fill="#c89b6f" fill-rule="evenodd" stroke="none"/>
    </g>
    <g id="shape1" transform="matrix(1.0, 0.0, 0.0, 1.0, 0.0, 0.0)">
      <path d="M2.85 2.65 L1.75 1.95 1.75 3.3 1.3 3.3 1.4 1.95 0.25 2.65 0.0 2.3 1.15 1.65 0.0 1.05 0.2 0.65 1.4 1.35 1.3 0.0 1.75 0.0 1.75 1.35 2.85 0.6 3.1 1.0 1.9 1.65 3.1 2.3 2.85 2.65" fill="#000000" fill-rule="evenodd" stroke="none"/>
    </g>
    <g id="shape2" transform="matrix(1.0, 0.0, 0.0, 1.0, 0.0, 0.0)">
      <path d="M2.1 7.2 L1.8 7.9 1.7 8.7 1.7 9.45 1.75 10.3 2.05 11.2 2.75 11.6 3.45 11.2 3.75 10.3 3.8 9.45 3.8 8.7 3.65 7.9 3.35 7.2 Q3.15 6.9 2.75 6.9 2.35 6.9 2.1 7.2 M3.35 1.85 Q3.15 1.5 2.75 1.5 2.3 1.5 2.1 1.85 1.9 2.15 1.85 2.55 L1.8 3.3 1.85 4.05 2.1 4.85 Q2.35 5.25 2.75 5.25 L3.35 4.85 3.6 4.05 3.7 3.3 3.65 2.55 3.35 1.85 M2.65 0.0 Q3.7 0.0 4.3 0.35 4.9 0.7 5.15 1.4 L5.4 3.1 5.3 4.25 4.9 5.3 Q4.6 5.8 4.0 6.0 4.7 6.2 5.0 6.7 L5.45 7.85 5.55 9.1 5.35 11.0 Q5.15 11.95 4.55 12.5 3.95 13.1 2.75 13.1 1.6 13.1 1.0 12.55 0.4 12.0 0.2 11.15 -0.05 10.3 0.0 9.35 L0.05 8.0 Q0.1 7.3 0.45 6.75 0.75 6.2 1.5 6.0 0.9 5.75 0.6 5.3 L0.2 4.25 0.1 3.1 Q0.05 2.25 0.3 1.5 0.5 0.8 1.1 0.4 1.65 0.0 2.65 0.0" fill="#3e0d00" fill-rule="evenodd" stroke="none"/>
    </g>
  </defs>
</svg>
