<?xml version="1.0" encoding="UTF-8" standalone="no"?>
<svg xmlns:ffdec="https://www.free-decompiler.com/flash" xmlns:xlink="http://www.w3.org/1999/xlink" ffdec:objectType="frame" height="26.05px" width="52.95px" xmlns="http://www.w3.org/2000/svg">
  <g transform="matrix(1.0, 0.0, 0.0, 1.0, 0.0, 0.0)">
    <use ffdec:characterId="1" height="26.0" transform="matrix(1.0, 0.0, 0.0, 1.0, 0.0, 0.0)" width="35.75" xlink:href="#shape0"/>
    <use ffdec:characterId="107" height="14.25" transform="matrix(1.0, 0.0, 0.0, 1.0, 7.2, 5.9)" width="22.9" xlink:href="#shape1"/>
    <use ffdec:characterId="240" height="26.0" transform="matrix(1.0, 0.0, 0.0, 1.0, 0.0, 0.0)" width="35.75" xlink:href="#shape2"/>
  </g>
  <defs>
    <g id="shape0" transform="matrix(1.0, 0.0, 0.0, 1.0, 0.0, 0.0)">
      <path d="M33.7 3.85 L32.9 2.8 Q31.3 1.3 29.15 1.3 L6.6 1.3 Q4.4 1.3 2.8 2.8 1.3 4.4 1.3 6.6 L1.3 19.4 Q1.3 21.55 2.8 23.15 4.4 24.7 6.6 24.7 L29.15 24.7 Q31.3 24.7 32.9 23.15 L33.7 22.15 Q34.45 20.9 34.45 19.4 L34.45 6.6 Q34.45 5.05 33.7 3.85 M33.8 1.95 Q35.75 3.9 35.75 6.6 L35.75 19.4 Q35.75 22.15 33.8 24.05 L33.7 24.15 Q31.85 26.0 29.15 26.0 L6.6 26.0 Q3.9 26.0 1.95 24.05 0.0 22.15 0.0 19.4 L0.0 6.6 Q0.0 3.9 1.95 1.95 3.9 0.0 6.6 0.0 L29.15 0.0 Q31.85 0.0 33.7 1.85 L33.8 1.95" fill="#000000" fill-opacity="0.0" fill-rule="evenodd" stroke="none"/>
      <path d="M34.45 6.6 L34.45 19.4 Q34.45 20.9 33.7 22.15 L32.9 23.15 Q31.3 24.7 29.15 24.7 L6.6 24.7 Q4.4 24.7 2.8 23.15 1.3 21.55 1.3 19.4 L1.3 6.6 Q1.3 4.4 2.8 2.8 4.4 1.3 6.6 1.3 L29.15 1.3 Q31.3 1.3 32.9 2.8 L33.7 3.85 Q34.45 5.05 34.45 6.6 M31.75 4.0 Q30.65 2.9 29.15 2.9 L6.6 2.9 Q5.1 2.9 4.0 4.0 2.95 5.1 2.95 6.6 L2.95 19.4 Q2.95 20.9 4.0 22.0 5.1 23.05 6.6 23.05 L29.15 23.05 Q30.6 23.05 31.75 22.0 32.8 20.85 32.8 19.4 L32.8 6.6 Q32.8 5.1 31.75 4.0" fill="#a6a8ab" fill-opacity="0.0" fill-rule="evenodd" stroke="none"/>
      <path d="M32.8 6.6 L32.8 19.4 Q32.8 20.85 31.75 22.0 30.6 23.05 29.15 23.05 L6.6 23.05 Q5.1 23.05 4.0 22.0 2.95 20.9 2.95 19.4 L2.95 6.6 Q2.95 5.1 4.0 4.0 5.1 2.9 6.6 2.9 L29.15 2.9 Q30.65 2.9 31.75 4.0 32.8 5.1 32.8 6.6" fill="#000000" fill-opacity="0.0" fill-rule="evenodd" stroke="none"/>
    </g>
    <g id="shape1" transform="matrix(1.0, 0.0, 0.0, 1.0, 0.0, 0.0)">
      <path d="M0.0 1.3 L2.05 1.3 3.05 1.35 4.1 1.7 4.9 2.7 Q5.2 3.35 5.2 4.55 L5.05 5.9 4.55 7.15 3.45 7.85 5.8 14.1 4.05 14.1 1.7 7.8 1.7 14.1 0.0 14.1 0.0 1.3 M1.95 2.75 L1.7 2.75 1.7 6.95 Q2.65 7.0 3.05 6.45 3.4 5.9 3.4 4.95 L3.3 3.8 2.9 3.0 Q2.6 2.7 1.95 2.75 M14.9 3.1 L14.9 5.5 15.75 5.5 15.75 6.8 14.9 6.8 14.9 14.1 13.3 14.1 13.3 6.8 12.45 6.8 12.45 5.5 13.3 5.5 13.3 3.1 14.9 3.1 M11.3 1.2 L12.0 1.5 12.0 3.05 11.5 2.8 10.9 2.7 Q10.2 2.7 9.75 3.1 9.3 3.45 9.05 4.05 L8.65 5.3 8.55 6.65 8.5 7.75 8.55 9.25 8.85 10.85 Q9.1 11.65 9.6 12.15 10.1 12.65 11.0 12.65 L11.5 12.6 12.0 12.4 12.0 13.9 11.35 14.2 10.65 14.25 Q9.35 14.25 8.55 13.65 7.8 13.05 7.4 12.1 7.0 11.15 6.85 10.0 L6.7 7.9 6.75 6.2 7.05 4.4 Q7.25 3.5 7.7 2.75 8.1 2.0 8.8 1.55 9.5 1.15 10.5 1.1 L11.3 1.2 M16.75 5.5 L18.35 5.5 18.35 6.55 18.4 6.55 19.1 5.7 20.2 5.4 20.2 6.95 19.95 6.95 Q19.05 6.95 18.7 7.4 18.35 7.85 18.35 8.7 L18.35 14.1 16.75 14.1 16.75 5.5 M22.9 14.1 L21.3 14.1 21.3 0.0 22.9 0.0 22.9 14.1" fill="#000000" fill-opacity="0.0" fill-rule="evenodd" stroke="none"/>
    </g>
    <g id="shape2" transform="matrix(1.0, 0.0, 0.0, 1.0, 0.0, 0.0)">
      <path d="M4.0 3.0 Q3.9 3.0 3.8 3.0 3.7 3.05 3.6 3.1 3.5 3.1 3.45 3.15 3.35 3.2 3.3 3.3 3.2 3.35 3.15 3.45 3.1 3.5 3.1 3.6 3.05 3.7 3.0 3.8 3.0 3.9 3.0 4.0 L3.0 22.0 Q3.0 22.1 3.0 22.2 3.05 22.3 3.1 22.4 3.1 22.5 3.15 22.55 3.2 22.65 3.3 22.7 3.35 22.8 3.45 22.85 3.5 22.9 3.6 22.9 3.7 22.95 3.8 23.0 3.9 23.0 4.0 23.0 L31.75 23.0 Q31.85 23.0 31.95 23.0 32.05 22.95 32.15 22.9 32.25 22.9 32.3 22.85 32.4 22.8 32.45 22.7 32.55 22.65 32.6 22.55 32.65 22.5 32.65 22.4 32.7 22.3 32.75 22.2 32.75 22.1 32.75 22.0 L32.75 4.0 Q32.75 3.9 32.75 3.8 32.7 3.7 32.65 3.6 32.65 3.5 32.6 3.45 32.55 3.35 32.45 3.3 32.4 3.2 32.3 3.15 32.25 3.1 32.15 3.1 32.05 3.05 31.95 3.0 31.85 3.0 31.75 3.0 L4.0 3.0 4.0 3.0 M29.15 7.95 L30.1 7.95 30.1 17.5 29.15 17.5 29.15 7.95 29.15 7.95 M16.7 8.3 Q16.8 8.3 16.9 8.3 17.0 8.3 17.1 8.3 17.2 8.3 17.3 8.3 17.4 8.35 17.5 8.35 17.6 8.35 17.7 8.4 17.75 8.4 17.85 8.4 17.95 8.45 18.05 8.45 18.15 8.5 18.25 8.55 18.35 8.55 18.45 8.6 18.5 8.65 18.6 8.65 18.7 8.7 18.8 8.75 18.85 8.8 18.95 8.85 19.05 8.85 19.15 8.9 19.25 8.95 19.3 9.0 19.4 9.1 19.5 9.15 19.6 9.2 19.7 9.25 L19.7 10.65 Q19.6 10.55 19.55 10.5 19.45 10.4 19.35 10.3 19.25 10.25 19.2 10.2 19.1 10.1 19.0 10.05 18.9 10.0 18.85 9.9 18.75 9.85 18.65 9.8 18.55 9.75 18.5 9.7 18.4 9.65 18.3 9.6 18.2 9.55 18.1 9.55 18.0 9.5 17.9 9.45 17.85 9.45 17.75 9.4 17.65 9.4 17.55 9.35 17.45 9.35 17.3 9.35 17.2 9.3 17.1 9.3 17.0 9.3 16.9 9.3 16.8 9.3 16.7 9.3 16.6 9.3 16.5 9.3 16.45 9.3 16.35 9.3 16.25 9.3 16.15 9.35 16.05 9.35 16.0 9.35 15.9 9.35 15.8 9.4 15.7 9.4 15.65 9.45 15.55 9.45 15.45 9.5 15.35 9.55 15.3 9.55 15.2 9.6 15.15 9.65 15.05 9.7 14.95 9.7 14.9 9.75 14.8 9.8 14.75 9.85 14.65 9.9 14.6 9.95 14.5 10.0 14.45 10.05 14.35 10.15 14.3 10.2 14.25 10.25 14.2 10.3 14.1 10.4 14.05 10.45 14.0 10.55 13.9 10.6 13.85 10.65 13.8 10.75 13.75 10.8 13.7 10.85 13.65 10.95 13.6 11.0 13.55 11.1 13.5 11.15 13.5 11.25 13.45 11.35 13.4 11.4 13.35 11.5 13.35 11.55 13.3 11.65 13.3 11.7 13.25 11.8 13.25 11.9 13.2 12.0 13.2 12.1 13.15 12.15 13.15 12.25 13.15 12.35 13.1 12.45 13.1 12.55 13.1 12.65 13.1 12.75 13.1 12.85 13.1 12.95 13.1 13.05 13.1 13.1 13.1 13.2 13.1 13.25 13.1 13.35 13.1 13.4 13.1 13.5 13.1 13.55 13.1 13.65 13.15 13.7 13.15 13.8 13.15 13.85 13.15 13.9 13.2 14.0 13.2 14.05 13.2 14.1 13.25 14.2 13.25 14.25 13.3 14.35 13.3 14.4 13.35 14.45 13.35 14.5 13.4 14.55 13.4 14.65 13.45 14.7 13.45 14.75 13.5 14.8 13.5 14.85 13.55 14.95 13.6 15.0 13.6 15.05 13.65 15.1 13.7 15.15 13.75 15.25 13.85 15.35 13.9 15.45 14.0 15.5 14.05 15.6 14.15 15.7 14.2 15.75 14.3 15.85 14.4 15.9 14.45 16.0 14.55 16.05 14.65 16.1 14.75 16.2 14.85 16.25 14.9 16.3 15.0 16.35 15.1 16.4 15.2 16.45 15.3 16.5 15.4 16.55 15.5 16.55 15.65 16.6 15.75 16.65 15.85 16.65 15.95 16.7 16.05 16.7 16.15 16.7 16.3 16.75 16.4 16.75 16.5 16.75 16.6 16.75 16.75 16.75 16.85 16.75 16.95 16.75 17.05 16.75 17.15 16.75 17.25 16.7 17.35 16.7 17.45 16.7 17.55 16.65 17.65 16.65 17.75 16.6 17.85 16.6 17.95 16.55 18.05 16.5 18.15 16.5 18.25 16.45 18.35 16.4 18.45 16.35 18.55 16.3 18.6 16.25 18.7 16.2 18.8 16.15 18.85 16.1 18.95 16.0 19.05 15.95 19.1 15.9 19.2 15.8 19.3 15.75 19.35 15.65 19.45 15.6 19.5 15.5 19.6 15.4 19.7 15.35 L19.7 16.75 Q19.6 16.8 19.5 16.85 19.45 16.95 19.35 17.0 19.25 17.05 19.15 17.1 19.05 17.15 19.0 17.2 18.9 17.25 18.8 17.25 18.7 17.3 18.6 17.35 18.5 17.4 18.4 17.45 18.35 17.45 18.25 17.5 18.15 17.55 18.05 17.55 17.95 17.6 17.85 17.6 17.75 17.65 17.65 17.65 17.55 17.65 17.45 17.7 17.35 17.7 17.25 17.7 17.15 17.7 17.05 17.7 16.95 17.75 16.85 17.75 16.75 17.75 16.65 17.75 16.55 17.75 16.45 17.75 16.4 17.75 16.3 17.75 16.2 17.7 16.1 17.7 16.0 17.7 15.95 17.7 15.85 17.65 15.75 17.65 15.7 17.65 15.6 17.6 15.5 17.6 15.4 17.6 15.35 17.55 15.25 17.55 15.15 17.5 15.1 17.5 15.0 17.45 14.9 17.4 14.85 17.4 14.75 17.35 14.65 17.3 14.6 17.25 14.5 17.25 14.45 17.2 14.35 17.15 14.3 17.1 14.2 17.05 14.15 17.0 14.05 16.95 14.0 16.9 13.85 16.8 13.75 16.75 13.65 16.65 13.55 16.55 13.4 16.45 13.3 16.35 13.2 16.25 13.1 16.15 13.0 16.05 12.95 15.95 12.85 15.85 12.75 15.7 12.7 15.6 12.6 15.5 12.55 15.35 12.5 15.25 12.45 15.1 12.35 15.0 12.3 14.85 12.25 14.75 12.2 14.6 12.15 14.45 12.15 14.35 12.1 14.2 12.05 14.05 12.05 13.9 12.0 13.75 12.0 13.65 12.0 13.5 11.95 13.35 11.95 13.2 11.95 13.05 11.95 12.9 11.95 12.8 11.95 12.65 12.0 12.55 12.0 12.4 12.0 12.3 12.0 12.15 12.05 12.05 12.05 11.95 12.1 11.8 12.1 11.7 12.15 11.6 12.2 11.5 12.2 11.35 12.25 11.25 12.3 11.15 12.35 11.05 12.4 10.95 12.45 10.85 12.5 10.75 12.55 10.65 12.6 10.55 12.7 10.45 12.75 10.35 12.8 10.25 12.9 10.15 12.95 10.05 13.05 9.95 13.1 9.85 13.2 9.8 13.3 9.7 13.35 9.6 13.45 9.5 13.55 9.45 13.6 9.35 13.7 9.3 13.8 9.2 13.9 9.15 14.0 9.1 14.1 9.05 14.2 8.95 14.3 8.9 14.4 8.85 14.5 8.8 14.6 8.75 14.7 8.7 14.8 8.65 14.9 8.6 15.0 8.55 15.1 8.55 15.2 8.5 15.3 8.45 15.45 8.45 15.55 8.4 15.65 8.4 15.75 8.35 15.9 8.35 16.0 8.35 16.1 8.3 16.25 8.3 16.35 8.3 16.45 8.3 16.6 8.3 16.7 8.3 L16.7 8.3 M5.65 8.5 L7.75 8.5 Q7.85 8.5 7.95 8.5 8.05 8.5 8.15 8.5 8.25 8.5 8.35 8.5 8.45 8.5 8.55 8.55 8.6 8.55 8.7 8.55 8.75 8.55 8.85 8.55 8.9 8.55 8.95 8.6 9.0 8.6 9.05 8.6 9.1 8.6 9.15 8.65 9.2 8.65 9.25 8.65 9.3 8.7 9.35 8.7 9.4 8.7 9.45 8.75 9.5 8.75 9.55 8.8 9.6 8.8 9.65 8.85 9.7 8.85 9.75 8.9 9.8 8.9 9.8 8.95 9.85 9.0 9.9 9.05 9.95 9.05 10.0 9.1 10.05 9.15 10.1 9.2 10.15 9.25 10.15 9.3 10.2 9.35 10.25 9.4 10.3 9.5 10.3 9.55 10.35 9.6 10.4 9.65 10.4 9.7 10.45 9.8 10.5 9.85 10.5 9.95 10.5 10.0 10.55 10.05 10.55 10.15 10.55 10.2 10.6 10.25 10.6 10.35 10.6 10.4 10.65 10.5 10.65 10.55 10.65 10.65 10.65 10.7 10.65 10.8 10.65 10.85 10.65 10.95 10.65 11.1 10.65 11.2 10.65 11.35 10.6 11.45 10.6 11.6 10.55 11.7 10.55 11.8 10.5 11.95 10.45 12.05 10.4 12.15 10.35 12.25 10.3 12.3 10.25 12.4 10.2 12.5 10.1 12.55 10.05 12.65 9.95 12.7 9.9 12.8 9.8 12.85 9.7 12.9 9.6 12.95 9.5 13.0 9.4 13.05 9.3 13.05 9.15 13.1 9.05 13.15 8.9 13.15 8.8 13.15 8.65 13.2 8.5 13.2 8.4 13.2 8.25 13.2 L8.05 13.2 11.45 17.5 10.1 17.5 6.85 13.2 6.7 13.2 6.7 17.5 5.65 17.5 5.65 8.5 5.65 8.5 M6.7 9.4 L6.7 12.4 7.5 12.4 Q7.65 12.4 7.8 12.4 7.95 12.4 8.05 12.4 8.2 12.4 8.3 12.35 8.45 12.35 8.55 12.35 8.65 12.3 8.75 12.3 8.85 12.25 8.9 12.25 9.0 12.2 9.05 12.15 9.1 12.15 9.2 12.1 9.25 12.05 9.3 12.0 9.35 11.95 9.35 11.9 9.4 11.85 9.45 11.8 9.45 11.7 9.5 11.65 9.5 11.6 9.55 11.5 9.55 11.4 9.55 11.35 9.6 11.25 9.6 11.15 9.6 11.05 9.6 10.95 9.6 10.85 9.6 10.75 9.6 10.65 9.55 10.55 9.55 10.45 9.55 10.4 9.5 10.3 9.5 10.25 9.45 10.15 9.45 10.1 9.4 10.0 9.35 9.95 9.3 9.9 9.25 9.85 9.2 9.8 9.15 9.75 9.1 9.7 9.05 9.65 8.95 9.65 8.9 9.6 8.8 9.55 8.7 9.55 8.65 9.5 8.55 9.5 8.4 9.45 8.3 9.45 8.2 9.45 8.05 9.45 7.95 9.4 7.8 9.4 7.65 9.4 7.5 9.4 L6.7 9.4 6.7 9.4 M21.55 9.6 L22.55 9.6 22.55 11.9 23.55 11.9 23.55 12.65 22.55 12.65 22.55 17.5 21.55 17.5 21.55 12.65 20.5 12.65 20.5 11.9 21.55 11.9 21.55 9.6 21.55 9.6 M27.4 11.7 Q27.45 11.7 27.5 11.7 27.55 11.7 27.6 11.7 27.6 11.7 27.65 11.7 27.7 11.7 27.75 11.7 27.75 11.7 27.9 11.75 28.0 11.75 28.05 11.8 L27.75 12.65 Q27.45 12.6 27.45 12.6 27.4 12.6 27.35 12.6 27.35 12.55 27.3 12.55 27.25 12.55 27.2 12.55 27.2 12.55 27.15 12.55 27.05 12.55 26.95 12.55 26.9 12.55 26.8 12.6 26.7 12.6 26.65 12.65 26.55 12.65 26.5 12.7 26.4 12.7 26.35 12.75 26.3 12.8 26.2 12.85 26.15 12.9 26.1 13.0 26.05 13.05 26.0 13.1 25.95 13.15 25.9 13.25 25.85 13.35 25.85 13.4 25.8 13.5 25.75 13.6 25.75 13.7 25.7 13.8 25.7 13.9 25.7 14.0 25.65 14.1 25.65 14.25 25.65 14.35 25.65 14.5 25.65 14.6 25.65 14.75 L25.65 17.5 24.65 17.5 24.65 11.9 25.55 11.9 25.55 13.05 Q25.6 12.95 25.65 12.85 25.7 12.8 25.75 12.7 25.8 12.65 25.85 12.55 25.9 12.5 25.95 12.4 26.0 12.35 26.05 12.3 26.1 12.25 26.15 12.2 26.2 12.15 26.25 12.1 26.3 12.05 26.35 12.0 26.4 11.95 26.45 11.95 26.5 11.9 26.6 11.85 26.65 11.85 26.7 11.8 26.75 11.8 26.85 11.75 26.9 11.75 26.95 11.75 27.05 11.7 27.1 11.7 27.2 11.7 27.25 11.7 27.35 11.7 27.4 11.7 L27.4 11.7" fill="#ffffff" fill-rule="evenodd" stroke="none"/>
    </g>
  </defs>
</svg>
