<?xml version="1.0" encoding="UTF-8" standalone="no"?>
<svg xmlns:ffdec="https://www.free-decompiler.com/flash" xmlns:xlink="http://www.w3.org/1999/xlink" ffdec:objectType="frame" height="26.05px" width="52.95px" xmlns="http://www.w3.org/2000/svg">
  <g transform="matrix(1.0, 0.0, 0.0, 1.0, 0.0, 0.0)">
    <use ffdec:characterId="1" height="26.0" transform="matrix(1.0, 0.0, 0.0, 1.0, 0.0, 0.0)" width="35.75" xlink:href="#shape0"/>
    <use ffdec:characterId="109" height="14.1" transform="matrix(1.0, 0.0, 0.0, 1.0, 8.65, 5.85)" width="20.0" xlink:href="#shape1"/>
    <use ffdec:characterId="242" height="26.0" transform="matrix(1.0, 0.0, 0.0, 1.0, 0.0, 0.0)" width="35.75" xlink:href="#shape2"/>
  </g>
  <defs>
    <g id="shape0" transform="matrix(1.0, 0.0, 0.0, 1.0, 0.0, 0.0)">
      <path d="M33.7 3.85 L32.9 2.8 Q31.3 1.3 29.15 1.3 L6.6 1.3 Q4.4 1.3 2.8 2.8 1.3 4.4 1.3 6.6 L1.3 19.4 Q1.3 21.55 2.8 23.15 4.4 24.7 6.6 24.7 L29.15 24.7 Q31.3 24.7 32.9 23.15 L33.7 22.15 Q34.45 20.9 34.45 19.4 L34.45 6.6 Q34.45 5.05 33.7 3.85 M33.8 1.95 Q35.75 3.9 35.75 6.6 L35.75 19.4 Q35.75 22.15 33.8 24.05 L33.7 24.15 Q31.85 26.0 29.15 26.0 L6.6 26.0 Q3.9 26.0 1.95 24.05 0.0 22.15 0.0 19.4 L0.0 6.6 Q0.0 3.9 1.95 1.95 3.9 0.0 6.6 0.0 L29.15 0.0 Q31.85 0.0 33.7 1.85 L33.8 1.95" fill="#000000" fill-opacity="0.0" fill-rule="evenodd" stroke="none"/>
      <path d="M34.45 6.6 L34.45 19.4 Q34.45 20.9 33.7 22.15 L32.9 23.15 Q31.3 24.7 29.15 24.7 L6.6 24.7 Q4.4 24.7 2.8 23.15 1.3 21.55 1.3 19.4 L1.3 6.6 Q1.3 4.4 2.8 2.8 4.4 1.3 6.6 1.3 L29.15 1.3 Q31.3 1.3 32.9 2.8 L33.7 3.85 Q34.45 5.05 34.45 6.6 M31.75 4.0 Q30.65 2.9 29.15 2.9 L6.6 2.9 Q5.1 2.9 4.0 4.0 2.95 5.1 2.95 6.6 L2.95 19.4 Q2.95 20.9 4.0 22.0 5.1 23.05 6.6 23.05 L29.15 23.05 Q30.6 23.05 31.75 22.0 32.8 20.85 32.8 19.4 L32.8 6.6 Q32.8 5.1 31.75 4.0" fill="#a6a8ab" fill-opacity="0.0" fill-rule="evenodd" stroke="none"/>
      <path d="M32.8 6.6 L32.8 19.4 Q32.8 20.85 31.75 22.0 30.6 23.05 29.15 23.05 L6.6 23.05 Q5.1 23.05 4.0 22.0 2.95 20.9 2.95 19.4 L2.95 6.6 Q2.95 5.1 4.0 4.0 5.1 2.9 6.6 2.9 L29.15 2.9 Q30.65 2.9 31.75 4.0 32.8 5.1 32.8 6.6" fill="#000000" fill-opacity="0.0" fill-rule="evenodd" stroke="none"/>
    </g>
    <g id="shape1" transform="matrix(1.0, 0.0, 0.0, 1.0, 0.0, 0.0)">
      <path d="M8.15 14.1 L6.45 14.1 9.25 1.3 10.6 1.3 13.35 14.1 11.65 14.1 11.15 11.6 8.6 11.6 8.15 14.1 M9.9 3.75 L8.85 10.25 10.9 10.25 9.9 3.75 M3.05 1.35 L4.1 1.7 4.9 2.7 Q5.2 3.35 5.2 4.55 L5.05 5.9 4.55 7.15 3.45 7.85 5.8 14.1 4.05 14.1 1.7 7.8 1.7 14.1 0.0 14.1 0.0 1.3 2.05 1.3 3.05 1.35 M1.95 2.75 L1.7 2.75 1.7 6.95 Q2.65 7.0 3.05 6.45 3.4 5.9 3.4 4.95 L3.3 3.8 2.9 3.0 Q2.6 2.7 1.95 2.75 M14.2 0.0 L15.8 0.0 15.8 14.1 14.2 14.1 14.2 0.0 M16.7 5.5 L17.55 5.5 17.55 3.1 19.15 3.1 19.15 5.5 20.0 5.5 20.0 6.8 19.15 6.8 19.15 14.1 17.55 14.1 17.55 6.8 16.7 6.8 16.7 5.5" fill="#000000" fill-opacity="0.0" fill-rule="evenodd" stroke="none"/>
    </g>
    <g id="shape2" transform="matrix(1.0, 0.0, 0.0, 1.0, 0.0, 0.0)">
      <path d="M4.0 3.0 Q3.9 3.0 3.8 3.0 3.7 3.05 3.6 3.1 3.5 3.1 3.45 3.15 3.35 3.2 3.3 3.3 3.2 3.35 3.15 3.45 3.1 3.5 3.1 3.6 3.05 3.7 3.0 3.8 3.0 3.9 3.0 4.0 L3.0 22.0 Q3.0 22.1 3.0 22.2 3.05 22.3 3.1 22.4 3.1 22.5 3.15 22.55 3.2 22.65 3.3 22.7 3.35 22.8 3.45 22.85 3.5 22.9 3.6 22.9 3.7 22.95 3.8 23.0 3.9 23.0 4.0 23.0 L31.75 23.0 Q31.85 23.0 31.95 23.0 32.05 22.95 32.15 22.9 32.25 22.9 32.3 22.85 32.4 22.8 32.45 22.7 32.55 22.65 32.6 22.55 32.65 22.5 32.65 22.4 32.7 22.3 32.75 22.2 32.75 22.1 32.75 22.0 L32.75 4.0 Q32.75 3.9 32.75 3.8 32.7 3.7 32.65 3.6 32.65 3.5 32.6 3.45 32.55 3.35 32.45 3.3 32.4 3.2 32.3 3.15 32.25 3.1 32.15 3.1 32.05 3.05 31.95 3.0 31.85 3.0 31.75 3.0 L4.0 3.0 4.0 3.0 M22.55 7.95 L23.55 7.95 23.55 17.5 22.55 17.5 22.55 7.95 22.55 7.95 M17.6 8.15 L21.7 17.5 20.55 17.5 19.35 14.75 15.85 14.75 14.7 17.5 13.85 17.5 12.5 17.5 9.2 13.2 9.05 13.2 9.05 17.5 8.0 17.5 8.0 8.5 10.15 8.5 Q10.25 8.5 10.35 8.5 10.45 8.5 10.55 8.5 10.65 8.5 10.75 8.5 10.85 8.5 10.9 8.55 11.0 8.55 11.05 8.55 11.15 8.55 11.2 8.55 11.3 8.55 11.35 8.6 11.4 8.6 11.45 8.6 11.5 8.6 11.55 8.65 11.6 8.65 11.65 8.65 11.7 8.7 11.75 8.7 11.8 8.7 11.85 8.75 11.9 8.75 11.95 8.8 12.0 8.8 12.05 8.85 12.05 8.85 12.1 8.9 12.15 8.9 12.2 8.95 12.25 9.0 12.3 9.05 12.35 9.05 12.4 9.1 12.45 9.15 12.45 9.2 12.5 9.25 12.55 9.3 12.6 9.35 12.65 9.4 12.65 9.5 12.7 9.55 12.75 9.6 12.75 9.65 12.8 9.75 12.8 9.8 12.85 9.85 12.85 9.95 12.9 10.0 12.9 10.05 12.95 10.15 12.95 10.2 12.95 10.25 13.0 10.35 13.0 10.4 13.0 10.5 13.0 10.55 13.0 10.65 13.05 10.7 13.05 10.8 13.05 10.85 13.05 10.95 13.05 11.1 13.05 11.2 13.0 11.35 13.0 11.45 13.0 11.6 12.95 11.7 12.9 11.8 12.9 11.95 12.85 12.05 12.8 12.15 12.75 12.25 12.7 12.3 12.65 12.4 12.55 12.5 12.5 12.55 12.4 12.65 12.35 12.7 12.25 12.8 12.15 12.85 12.05 12.9 11.95 12.95 11.85 13.0 11.75 13.05 11.65 13.05 11.55 13.1 11.4 13.15 11.3 13.15 11.15 13.15 11.05 13.2 10.9 13.2 10.75 13.2 10.6 13.2 L10.4 13.2 13.65 17.2 17.6 8.15 17.6 8.15 M9.05 9.4 L9.05 12.4 9.9 12.4 Q10.05 12.4 10.2 12.4 10.35 12.4 10.45 12.4 10.6 12.4 10.7 12.35 10.8 12.35 10.95 12.35 11.05 12.3 11.1 12.3 11.2 12.25 11.3 12.25 11.35 12.2 11.45 12.15 11.5 12.15 11.55 12.1 11.6 12.05 11.65 12.0 11.7 11.95 11.75 11.9 11.8 11.85 11.8 11.8 11.85 11.7 11.85 11.65 11.9 11.6 11.9 11.5 11.95 11.4 11.95 11.35 11.95 11.25 11.95 11.15 12.0 11.05 12.0 10.95 12.0 10.85 12.0 10.75 12.0 10.65 11.95 10.55 11.95 10.45 11.9 10.4 11.9 10.3 11.85 10.25 11.85 10.15 11.8 10.1 11.8 10.0 11.75 9.95 11.7 9.9 11.65 9.85 11.6 9.8 11.55 9.75 11.5 9.7 11.45 9.65 11.35 9.65 11.3 9.6 11.2 9.55 11.1 9.55 11.0 9.5 10.9 9.5 10.8 9.45 10.7 9.45 10.55 9.45 10.45 9.45 10.3 9.4 10.15 9.4 10.05 9.4 9.9 9.4 L9.05 9.4 9.05 9.4 M25.7 9.6 L26.7 9.6 26.7 11.9 27.75 11.9 27.75 12.65 26.7 12.65 26.7 17.5 25.7 17.5 25.7 12.65 24.7 12.65 24.7 11.9 25.7 11.9 25.7 9.6 25.7 9.6 M17.6 10.5 L16.15 13.8 19.05 13.8 17.6 10.5 17.6 10.5" fill="#ffffff" fill-rule="evenodd" stroke="none"/>
    </g>
  </defs>
</svg>
