<?xml version="1.0" encoding="UTF-8" standalone="no"?>
<svg xmlns:ffdec="https://www.free-decompiler.com/flash" xmlns:xlink="http://www.w3.org/1999/xlink" ffdec:objectType="frame" height="26.05px" width="52.95px" xmlns="http://www.w3.org/2000/svg">
  <g transform="matrix(1.0, 0.0, 0.0, 1.0, 0.0, 0.0)">
    <use ffdec:characterId="1" height="26.0" transform="matrix(1.0, 0.0, 0.0, 1.0, 0.0, 0.0)" width="35.75" xlink:href="#shape0"/>
    <use ffdec:characterId="115" height="14.25" transform="matrix(1.0, 0.0, 0.0, 1.0, 10.05, 5.85)" width="17.2" xlink:href="#shape1"/>
    <use ffdec:characterId="250" height="26.0" transform="matrix(1.0, 0.0, 0.0, 1.0, 0.0, 0.0)" width="35.75" xlink:href="#shape2"/>
  </g>
  <defs>
    <g id="shape0" transform="matrix(1.0, 0.0, 0.0, 1.0, 0.0, 0.0)">
      <path d="M33.7 3.85 L32.9 2.8 Q31.3 1.3 29.15 1.3 L6.6 1.3 Q4.4 1.3 2.8 2.8 1.3 4.4 1.3 6.6 L1.3 19.4 Q1.3 21.55 2.8 23.15 4.4 24.7 6.6 24.7 L29.15 24.7 Q31.3 24.7 32.9 23.15 L33.7 22.15 Q34.45 20.9 34.45 19.4 L34.45 6.6 Q34.45 5.05 33.7 3.85 M33.8 1.95 Q35.75 3.9 35.75 6.6 L35.75 19.4 Q35.75 22.15 33.8 24.05 L33.7 24.15 Q31.85 26.0 29.15 26.0 L6.6 26.0 Q3.9 26.0 1.95 24.05 0.0 22.15 0.0 19.4 L0.0 6.6 Q0.0 3.9 1.95 1.95 3.9 0.0 6.6 0.0 L29.15 0.0 Q31.85 0.0 33.7 1.85 L33.8 1.95" fill="#000000" fill-opacity="0.0" fill-rule="evenodd" stroke="none"/>
      <path d="M34.45 6.6 L34.45 19.4 Q34.45 20.9 33.7 22.15 L32.9 23.15 Q31.3 24.7 29.15 24.7 L6.6 24.7 Q4.4 24.7 2.8 23.15 1.3 21.55 1.3 19.4 L1.3 6.6 Q1.3 4.4 2.8 2.8 4.4 1.3 6.6 1.3 L29.15 1.3 Q31.3 1.3 32.9 2.8 L33.7 3.85 Q34.45 5.05 34.45 6.6 M31.75 4.0 Q30.65 2.9 29.15 2.9 L6.6 2.9 Q5.1 2.9 4.0 4.0 2.95 5.1 2.95 6.6 L2.95 19.4 Q2.95 20.9 4.0 22.0 5.1 23.05 6.6 23.05 L29.15 23.05 Q30.6 23.05 31.75 22.0 32.8 20.85 32.8 19.4 L32.8 6.6 Q32.8 5.1 31.75 4.0" fill="#a6a8ab" fill-opacity="0.0" fill-rule="evenodd" stroke="none"/>
      <path d="M32.8 6.6 L32.8 19.4 Q32.8 20.85 31.75 22.0 30.6 23.05 29.15 23.05 L6.6 23.05 Q5.1 23.05 4.0 22.0 2.95 20.9 2.95 19.4 L2.95 6.6 Q2.95 5.1 4.0 4.0 5.1 2.9 6.6 2.9 L29.15 2.9 Q30.65 2.9 31.75 4.0 32.8 5.1 32.8 6.6" fill="#000000" fill-opacity="0.0" fill-rule="evenodd" stroke="none"/>
    </g>
    <g id="shape1" transform="matrix(1.0, 0.0, 0.0, 1.0, 0.0, 0.0)">
      <path d="M4.55 1.3 L4.55 2.75 1.7 2.75 1.7 6.8 4.25 6.8 4.25 8.25 1.7 8.25 1.7 12.6 4.55 12.6 4.55 14.1 0.0 14.1 0.0 1.3 4.55 1.3 M10.65 6.9 L10.7 8.2 10.7 14.1 9.1 14.1 9.1 8.15 9.05 7.55 8.8 7.05 8.15 6.8 Q7.65 6.85 7.45 7.15 L7.2 7.9 7.2 8.75 7.2 14.1 5.6 14.1 5.6 5.5 7.2 5.5 7.2 6.5 7.25 6.5 7.55 6.0 7.9 5.7 8.4 5.45 8.95 5.4 Q9.8 5.4 10.2 5.8 L10.65 6.9 M14.65 6.8 Q14.2 6.8 13.95 7.15 L13.65 8.05 13.6 9.05 13.6 9.8 13.6 10.55 13.65 11.55 13.95 12.45 Q14.2 12.8 14.65 12.8 L15.25 12.45 15.55 11.55 15.65 10.55 15.65 9.8 15.65 9.05 15.55 8.05 15.25 7.2 Q15.0 6.8 14.65 6.8 M15.6 0.0 L17.2 0.0 17.2 14.1 15.6 14.1 15.6 13.0 15.55 13.0 14.95 13.9 13.95 14.25 Q13.25 14.2 12.8 13.75 L12.2 12.5 12.0 11.0 11.95 9.7 12.0 8.4 12.2 7.0 Q12.4 6.3 12.85 5.85 13.25 5.4 14.0 5.4 L14.95 5.65 15.55 6.45 15.6 6.45 15.6 0.0" fill="#000000" fill-opacity="0.0" fill-rule="evenodd" stroke="none"/>
    </g>
    <g id="shape2" transform="matrix(1.0, 0.0, 0.0, 1.0, 0.0, 0.0)">
      <path d="M4.0 3.0 Q3.9 3.0 3.8 3.0 3.7 3.05 3.6 3.1 3.5 3.1 3.45 3.15 3.35 3.2 3.3 3.3 3.2 3.35 3.15 3.45 3.1 3.5 3.1 3.6 3.05 3.7 3.0 3.8 3.0 3.9 3.0 4.0 L3.0 22.0 Q3.0 22.1 3.0 22.2 3.05 22.3 3.1 22.4 3.1 22.5 3.15 22.55 3.2 22.65 3.3 22.7 3.35 22.8 3.45 22.85 3.5 22.9 3.6 22.9 3.7 22.95 3.8 23.0 3.9 23.0 4.0 23.0 L31.75 23.0 Q31.85 23.0 31.95 23.0 32.05 22.95 32.15 22.9 32.25 22.9 32.3 22.85 32.4 22.8 32.45 22.7 32.55 22.65 32.6 22.55 32.65 22.5 32.65 22.4 32.7 22.3 32.75 22.2 32.75 22.1 32.75 22.0 L32.75 4.0 Q32.75 3.9 32.75 3.8 32.7 3.7 32.65 3.6 32.65 3.5 32.6 3.45 32.55 3.35 32.45 3.3 32.4 3.2 32.3 3.15 32.25 3.1 32.15 3.1 32.05 3.05 31.95 3.0 31.85 3.0 31.75 3.0 L4.0 3.0 4.0 3.0 M26.25 7.95 L27.25 7.95 27.25 17.5 26.3 17.5 26.3 16.5 Q26.25 16.55 26.2 16.65 26.15 16.7 26.1 16.8 26.05 16.85 26.0 16.9 25.95 16.95 25.9 17.0 25.85 17.1 25.8 17.15 25.75 17.2 25.7 17.25 25.65 17.3 25.55 17.35 25.5 17.35 25.45 17.4 25.4 17.45 25.3 17.5 25.25 17.5 25.15 17.55 25.1 17.6 25.05 17.6 24.95 17.65 24.9 17.65 24.8 17.7 24.75 17.7 24.65 17.7 24.55 17.7 24.5 17.75 24.4 17.75 24.35 17.75 24.25 17.75 24.1 17.75 23.95 17.75 23.8 17.7 23.7 17.7 23.55 17.65 23.4 17.65 23.3 17.6 23.15 17.55 23.05 17.5 22.9 17.4 22.8 17.35 22.7 17.25 22.6 17.2 22.5 17.1 22.4 17.0 22.3 16.9 22.2 16.8 22.15 16.7 22.05 16.55 22.0 16.45 21.9 16.35 21.85 16.2 21.8 16.1 21.75 15.95 21.7 15.8 21.65 15.65 21.65 15.5 21.6 15.35 21.6 15.2 21.6 15.05 21.55 14.85 21.55 14.7 21.55 14.55 21.55 14.35 21.6 14.2 21.6 14.05 21.65 13.9 21.65 13.75 21.7 13.6 21.75 13.45 21.8 13.3 21.85 13.2 21.9 13.05 21.95 12.95 22.05 12.8 22.1 12.7 22.2 12.6 22.3 12.5 22.4 12.4 22.5 12.3 22.6 12.2 22.7 12.15 22.8 12.05 22.9 12.0 23.0 11.95 23.15 11.9 23.25 11.85 23.4 11.8 23.5 11.75 23.65 11.7 23.8 11.7 23.95 11.7 24.05 11.65 24.2 11.65 24.3 11.65 24.4 11.65 24.45 11.65 24.55 11.7 24.65 11.7 24.7 11.7 24.8 11.75 24.85 11.75 24.95 11.75 25.0 11.8 25.1 11.8 25.15 11.85 25.25 11.9 25.3 11.9 25.35 11.95 25.45 12.0 25.5 12.05 25.55 12.1 25.65 12.1 25.7 12.15 25.75 12.2 25.8 12.25 25.85 12.35 25.9 12.4 25.95 12.45 26.0 12.5 26.05 12.55 26.1 12.65 26.15 12.7 26.2 12.8 26.25 12.85 26.25 12.95 L26.25 7.95 26.25 7.95 M8.5 8.5 L13.25 8.5 13.25 9.5 9.6 9.5 9.6 12.05 13.25 12.05 13.25 13.05 9.6 13.05 9.6 16.5 13.25 16.5 13.25 17.5 8.5 17.5 8.5 8.5 8.5 8.5 M17.95 11.65 Q18.1 11.65 18.2 11.65 18.3 11.7 18.45 11.7 18.55 11.7 18.65 11.75 18.75 11.75 18.85 11.8 18.95 11.85 19.05 11.9 19.15 11.9 19.2 11.95 19.3 12.0 19.4 12.1 19.45 12.15 19.55 12.2 19.6 12.25 19.65 12.35 19.75 12.4 19.8 12.5 19.85 12.55 19.85 12.65 19.9 12.75 19.95 12.85 20.0 12.9 20.0 13.0 20.05 13.1 20.05 13.25 20.05 13.35 20.1 13.45 20.1 13.55 20.1 13.65 L20.1 17.5 19.1 17.5 19.1 14.2 Q19.1 14.1 19.1 14.0 19.1 13.9 19.1 13.8 19.05 13.7 19.05 13.6 19.05 13.5 19.0 13.45 19.0 13.35 18.95 13.3 18.95 13.2 18.9 13.15 18.85 13.1 18.85 13.05 18.8 12.95 18.75 12.9 18.7 12.85 18.65 12.8 18.6 12.75 18.55 12.75 18.5 12.7 18.4 12.65 18.35 12.65 18.3 12.6 18.2 12.6 18.15 12.55 18.05 12.55 18.0 12.55 17.9 12.5 17.8 12.5 17.75 12.5 17.65 12.5 17.6 12.5 17.55 12.5 17.5 12.5 17.45 12.5 17.4 12.5 17.35 12.5 17.25 12.55 17.2 12.55 17.15 12.55 17.15 12.55 17.1 12.6 17.05 12.6 17.0 12.6 16.95 12.6 16.9 12.65 16.85 12.65 16.8 12.65 16.75 12.7 16.7 12.7 16.7 12.75 16.65 12.75 16.6 12.8 16.55 12.8 16.55 12.85 16.5 12.9 16.45 12.9 16.4 12.95 16.4 12.95 16.35 13.0 16.3 13.05 16.3 13.05 16.25 13.1 16.25 13.15 16.2 13.15 16.2 13.2 16.15 13.2 16.15 13.25 16.15 13.3 16.1 13.3 16.1 13.35 16.1 13.35 16.1 13.4 16.05 13.45 16.05 13.45 16.05 13.5 16.05 13.55 16.0 13.55 16.0 13.6 16.0 13.65 16.0 13.7 16.0 13.7 15.95 13.75 15.95 13.8 15.95 13.9 15.95 13.95 15.95 14.0 15.95 14.05 15.95 14.1 15.95 14.2 15.95 14.25 15.95 14.35 15.95 14.4 15.95 14.5 15.95 14.6 L15.95 17.5 15.0 17.5 15.0 11.9 15.9 11.9 15.9 12.75 Q15.95 12.7 16.0 12.6 16.05 12.55 16.1 12.5 16.15 12.45 16.2 12.4 16.25 12.3 16.3 12.25 16.35 12.2 16.45 12.15 16.5 12.15 16.55 12.1 16.6 12.05 16.65 12.0 16.75 11.95 16.8 11.95 16.85 11.9 16.95 11.9 17.0 11.85 17.05 11.85 17.15 11.8 17.2 11.8 17.25 11.75 17.35 11.75 17.4 11.7 17.5 11.7 17.55 11.7 17.65 11.7 17.75 11.7 17.8 11.7 17.9 11.65 17.95 11.65 L17.95 11.65 M24.4 12.65 Q24.3 12.65 24.2 12.65 24.1 12.65 24.0 12.65 23.9 12.7 23.8 12.7 23.7 12.75 23.65 12.75 23.55 12.8 23.5 12.85 23.4 12.85 23.35 12.9 23.25 12.95 23.2 13.05 23.1 13.1 23.05 13.15 23.0 13.2 22.95 13.3 22.9 13.35 22.85 13.45 22.8 13.5 22.75 13.6 22.75 13.7 22.7 13.75 22.65 13.85 22.65 13.95 22.65 14.05 22.6 14.15 22.6 14.25 22.6 14.35 22.6 14.5 22.6 14.6 22.6 14.75 22.6 14.85 22.6 14.95 22.6 15.1 22.65 15.2 22.65 15.3 22.7 15.4 22.7 15.5 22.75 15.6 22.75 15.7 22.8 15.8 22.85 15.9 22.9 16.0 22.95 16.05 23.0 16.15 23.05 16.2 23.1 16.3 23.2 16.35 23.25 16.4 23.35 16.45 23.4 16.5 23.5 16.55 23.55 16.6 23.65 16.65 23.75 16.7 23.8 16.7 23.9 16.75 24.0 16.75 24.1 16.8 24.2 16.8 24.3 16.8 24.4 16.8 24.5 16.8 24.6 16.8 24.7 16.8 24.8 16.75 24.9 16.75 25.0 16.75 25.1 16.7 25.2 16.65 25.3 16.65 25.35 16.6 25.45 16.55 25.5 16.5 25.6 16.45 25.65 16.4 25.75 16.3 25.8 16.25 25.85 16.2 25.9 16.1 25.95 16.05 26.0 15.95 26.05 15.85 26.1 15.8 26.15 15.7 26.15 15.6 26.2 15.5 26.25 15.4 26.25 15.3 26.25 15.2 26.3 15.05 26.3 14.95 26.3 14.85 26.3 14.7 26.3 14.6 26.3 14.5 26.3 14.35 26.25 14.25 26.25 14.15 26.2 14.05 26.2 13.95 26.15 13.85 26.15 13.75 26.1 13.7 26.05 13.6 26.0 13.5 25.95 13.45 25.9 13.35 25.85 13.25 25.8 13.2 25.75 13.15 25.65 13.05 25.6 13.0 25.5 12.95 25.45 12.9 25.35 12.85 25.25 12.8 25.15 12.75 25.1 12.75 25.0 12.7 24.9 12.7 24.8 12.65 24.7 12.65 24.6 12.65 24.5 12.6 24.4 12.65 L24.4 12.65" fill="#ffffff" fill-rule="evenodd" stroke="none"/>
    </g>
  </defs>
</svg>
