<?xml version="1.0" encoding="UTF-8" standalone="no"?>
<svg xmlns:ffdec="https://www.free-decompiler.com/flash" xmlns:xlink="http://www.w3.org/1999/xlink" ffdec:objectType="frame" height="26.05px" width="52.95px" xmlns="http://www.w3.org/2000/svg">
  <g transform="matrix(1.0, 0.0, 0.0, 1.0, 0.0, 0.0)">
    <use ffdec:characterId="132" height="26.0" transform="matrix(1.0, 0.0, 0.0, 1.0, 0.05, 0.05)" width="26.0" xlink:href="#shape0"/>
    <use ffdec:characterId="134" height="15.15" transform="matrix(1.0, 0.0, 0.0, 1.0, 8.15, 5.6)" width="11.6" xlink:href="#shape1"/>
    <use ffdec:characterId="272" height="26.0" transform="matrix(1.0, 0.0, 0.0, 1.0, 0.0, 0.0)" width="26.0" xlink:href="#shape2"/>
  </g>
  <defs>
    <g id="shape0" transform="matrix(1.0, 0.0, 0.0, 1.0, -0.05, -0.05)">
      <path d="M3.55 13.05 Q3.55 9.1 6.35 6.3 9.15 3.5 13.05 3.5 17.0 3.5 19.75 6.3 22.55 9.1 22.55 13.05 22.55 17.0 19.75 19.7 17.0 22.5 13.05 22.5 9.15 22.5 6.35 19.7 3.55 17.0 3.55 13.05" fill="#000000" fill-opacity="0.0" fill-rule="evenodd" stroke="none"/>
      <path d="M21.0 20.95 Q17.65 24.25 13.05 24.25 8.4 24.25 5.1 20.95 1.8 17.65 1.8 13.05 1.8 8.4 5.1 5.05 8.4 1.75 13.05 1.75 17.7 1.75 21.0 5.05 24.3 8.4 24.3 13.05 24.3 17.65 21.0 20.95 M13.05 3.5 Q9.15 3.5 6.35 6.3 3.55 9.1 3.55 13.05 3.55 17.0 6.35 19.7 9.15 22.5 13.05 22.5 17.0 22.5 19.75 19.7 22.55 17.0 22.55 13.05 22.55 9.1 19.75 6.3 17.0 3.5 13.05 3.5" fill="#a6a8ab" fill-opacity="0.0" fill-rule="evenodd" stroke="none"/>
      <path d="M26.05 13.05 Q26.05 18.4 22.2 22.2 18.4 26.05 13.05 26.05 7.7 26.05 3.85 22.2 0.05 18.4 0.05 13.05 0.05 7.65 3.85 3.85 7.65 0.05 13.05 0.05 18.4 0.05 22.2 3.85 26.05 7.65 26.05 13.05 M24.3 13.05 Q24.3 8.4 21.0 5.05 17.7 1.75 13.05 1.75 8.4 1.75 5.1 5.05 1.8 8.4 1.8 13.05 1.8 17.65 5.1 20.95 8.4 24.25 13.05 24.25 17.65 24.25 21.0 20.95 24.3 17.65 24.3 13.05" fill="#000000" fill-opacity="0.0" fill-rule="evenodd" stroke="none"/>
    </g>
    <g id="shape1" transform="matrix(1.0, 0.0, 0.0, 1.0, 0.0, 0.0)">
      <path d="M9.3 0.0 L5.45 2.35 1.55 0.0 9.3 0.0" fill="#000000" fill-opacity="0.0" fill-rule="evenodd" stroke="none"/>
      <path d="M1.95 3.65 L1.7 3.65 1.7 7.85 Q2.65 7.9 3.05 7.35 3.4 6.8 3.4 5.85 L3.3 4.7 2.9 3.9 2.8 3.8 1.95 3.65 M3.05 2.25 L4.1 2.6 4.9 3.6 5.0 3.8 5.2 5.45 5.05 6.8 4.55 8.05 3.45 8.75 5.8 15.0 4.05 15.0 1.7 8.7 1.7 15.0 0.0 15.0 0.0 2.2 2.05 2.2 3.05 2.25 M11.0 2.45 L11.0 4.15 10.4 3.8 10.3 3.75 9.55 3.6 8.85 3.8 Q8.6 3.9 8.45 4.1 8.05 4.55 8.05 5.25 L8.15 6.0 8.5 6.65 9.8 8.05 10.75 9.15 11.4 10.35 11.6 11.8 Q11.6 12.75 11.25 13.5 L10.2 14.7 Q9.55 15.15 8.6 15.15 L7.6 15.0 6.75 14.55 6.75 12.85 7.5 13.3 8.4 13.5 9.25 13.25 9.75 12.6 9.9 11.7 Q9.9 10.95 9.55 10.4 L8.65 9.35 7.6 8.3 6.7 7.0 Q6.35 6.3 6.3 5.3 6.3 4.5 6.6 3.8 L6.65 3.65 Q6.95 2.9 7.6 2.45 8.25 2.0 9.2 2.0 L10.15 2.1 11.0 2.45" fill="#000000" fill-opacity="0.0" fill-rule="evenodd" stroke="none"/>
    </g>
    <g id="shape2" transform="matrix(1.0, 0.0, 0.0, 1.0, 0.0, 0.0)">
      <path d="M13.0 3.5 Q12.05 3.5 11.1 3.7 10.15 3.9 9.3 4.25 8.45 4.6 7.7 5.1 6.95 5.65 6.3 6.3 5.65 6.95 5.1 7.7 4.6 8.45 4.25 9.3 3.9 10.15 3.7 11.1 3.5 12.05 3.5 13.0 3.5 13.95 3.7 14.9 3.9 15.85 4.25 16.7 4.6 17.55 5.1 18.3 5.65 19.05 6.3 19.7 6.95 20.35 7.7 20.9 8.45 21.4 9.3 21.75 10.15 22.1 11.1 22.3 12.05 22.5 13.0 22.5 13.95 22.5 14.9 22.3 15.85 22.1 16.7 21.75 17.55 21.4 18.3 20.9 19.05 20.35 19.7 19.7 20.35 19.05 20.9 18.3 21.4 17.55 21.75 16.7 22.1 15.85 22.3 14.9 22.5 13.95 22.5 13.0 22.5 12.05 22.3 11.1 22.1 10.15 21.75 9.3 21.4 8.45 20.9 7.7 20.35 6.95 19.7 6.3 19.05 5.65 18.3 5.1 17.55 4.6 16.7 4.25 15.85 3.9 14.9 3.7 13.95 3.5 13.0 3.5 L13.0 3.5 M11.0 5.5 L13.0 5.5 15.0 5.5 13.0 7.5 11.0 5.5 11.0 5.5 M16.1 8.3 Q16.2 8.3 16.3 8.3 16.4 8.3 16.5 8.3 16.55 8.3 16.65 8.35 16.75 8.35 16.85 8.35 16.9 8.4 17.0 8.4 17.1 8.45 17.15 8.5 17.25 8.5 17.35 8.55 17.4 8.6 17.5 8.65 17.55 8.7 17.65 8.75 17.7 8.8 17.75 8.85 17.85 8.9 17.9 8.95 17.95 9.0 18.0 9.05 18.05 9.1 18.1 9.2 18.15 9.25 18.2 9.35 18.25 9.4 18.3 9.5 18.35 9.55 18.4 9.65 L17.5 10.2 Q17.45 10.15 17.45 10.1 17.4 10.0 17.35 9.95 17.3 9.9 17.3 9.85 17.25 9.8 17.2 9.75 17.15 9.7 17.1 9.65 17.05 9.6 17.05 9.6 17.0 9.55 16.95 9.5 16.9 9.45 16.85 9.45 16.8 9.4 16.75 9.4 16.7 9.35 16.65 9.35 16.6 9.3 16.55 9.3 16.5 9.25 16.45 9.25 16.4 9.25 16.35 9.2 16.3 9.2 16.25 9.2 16.15 9.2 16.1 9.2 16.05 9.2 16.0 9.2 15.9 9.2 15.85 9.2 15.8 9.2 15.7 9.2 15.65 9.2 15.6 9.25 15.5 9.25 15.45 9.25 15.4 9.3 15.35 9.3 15.25 9.35 15.2 9.4 15.15 9.4 15.1 9.45 15.05 9.5 15.0 9.55 14.95 9.6 14.9 9.65 14.85 9.7 14.85 9.75 14.8 9.8 14.75 9.85 14.75 9.9 14.7 9.95 14.7 10.0 14.7 10.1 14.65 10.15 14.65 10.2 14.65 10.3 14.65 10.35 14.65 10.4 14.65 10.5 14.65 10.55 14.65 10.6 14.65 10.65 14.65 10.7 14.65 10.8 14.65 10.85 14.7 10.9 14.7 10.95 14.7 11.0 14.75 11.05 14.75 11.1 14.8 11.15 14.8 11.2 14.85 11.25 14.9 11.25 14.9 11.3 14.95 11.35 15.0 11.4 15.05 11.45 15.1 11.5 15.15 11.5 15.2 11.55 15.25 11.6 15.3 11.65 15.35 11.7 15.4 11.7 15.5 11.75 15.55 11.8 15.6 11.85 15.7 11.85 15.75 11.9 15.85 11.95 L17.1 12.5 Q17.2 12.55 17.3 12.6 17.45 12.65 17.5 12.7 17.6 12.75 17.7 12.8 17.8 12.9 17.9 12.95 17.95 13.0 18.05 13.05 18.1 13.15 18.2 13.2 18.25 13.25 18.35 13.35 18.4 13.4 18.45 13.5 18.5 13.6 18.55 13.65 18.6 13.75 18.65 13.8 18.7 13.9 18.7 14.0 18.75 14.1 18.8 14.2 18.8 14.25 18.85 14.35 18.85 14.45 18.85 14.55 18.9 14.65 18.9 14.75 18.9 14.85 18.9 14.95 18.9 15.1 18.9 15.25 18.85 15.4 18.85 15.55 18.8 15.7 18.8 15.85 18.75 15.95 18.7 16.1 18.65 16.2 18.6 16.35 18.5 16.45 18.45 16.55 18.35 16.65 18.3 16.75 18.2 16.9 18.1 16.95 18.0 17.05 17.9 17.15 17.8 17.2 17.65 17.3 17.55 17.35 17.45 17.45 17.3 17.5 17.2 17.55 17.05 17.6 16.9 17.6 16.8 17.65 16.65 17.7 16.5 17.7 16.35 17.7 16.15 17.75 16.0 17.75 15.85 17.75 15.75 17.75 15.6 17.7 15.5 17.7 15.35 17.7 15.25 17.65 15.15 17.65 15.05 17.6 14.9 17.55 14.8 17.5 14.7 17.45 14.6 17.4 14.5 17.35 14.4 17.3 14.3 17.25 14.25 17.2 14.15 17.15 14.05 17.05 14.0 16.95 13.9 16.9 13.85 16.8 13.75 16.7 13.7 16.6 13.65 16.55 13.55 16.45 13.5 16.3 13.45 16.2 13.4 16.1 13.35 16.0 13.35 15.9 13.3 15.75 13.25 15.65 L14.25 15.15 Q14.25 15.25 14.3 15.35 14.3 15.45 14.35 15.55 14.4 15.65 14.4 15.7 14.45 15.8 14.5 15.9 14.55 15.95 14.55 16.05 14.6 16.1 14.65 16.15 14.7 16.25 14.75 16.3 14.8 16.35 14.85 16.4 14.9 16.45 14.95 16.5 15.05 16.55 15.1 16.6 15.15 16.6 15.25 16.65 15.3 16.7 15.4 16.7 15.45 16.75 15.55 16.75 15.6 16.8 15.7 16.8 15.75 16.8 15.85 16.8 15.9 16.8 16.0 16.8 16.1 16.8 16.2 16.8 16.3 16.8 16.4 16.8 16.5 16.75 16.55 16.75 16.65 16.75 16.75 16.7 16.8 16.65 16.9 16.65 16.95 16.6 17.05 16.55 17.1 16.5 17.2 16.45 17.25 16.4 17.3 16.35 17.35 16.3 17.4 16.25 17.5 16.15 17.55 16.1 17.55 16.05 17.6 15.95 17.65 15.9 17.7 15.8 17.7 15.75 17.75 15.65 17.75 15.6 17.8 15.5 17.8 15.4 17.8 15.35 17.8 15.25 17.8 15.15 17.8 15.05 17.8 15.0 17.8 14.95 17.8 14.85 17.75 14.8 17.75 14.7 17.75 14.65 17.7 14.6 17.7 14.5 17.65 14.45 17.65 14.4 17.6 14.35 17.6 14.25 17.55 14.2 17.5 14.15 17.45 14.1 17.4 14.05 17.35 14.0 17.3 13.95 17.25 13.9 17.2 13.85 17.15 13.8 17.1 13.75 17.05 13.7 16.95 13.65 16.9 13.6 16.8 13.55 16.75 13.5 16.65 13.45 16.6 13.4 16.5 13.4 16.4 13.35 L15.3 12.9 Q15.2 12.85 15.1 12.8 15.0 12.75 14.9 12.7 14.8 12.65 14.7 12.55 14.6 12.5 14.55 12.45 14.45 12.4 14.4 12.35 14.3 12.25 14.25 12.2 14.15 12.15 14.1 12.05 14.05 12.0 14.0 11.9 13.95 11.85 13.9 11.75 13.85 11.7 13.8 11.6 13.75 11.5 13.7 11.45 13.7 11.35 13.65 11.25 13.65 11.15 13.6 11.1 13.6 11.0 13.55 10.9 13.55 10.8 13.55 10.7 13.55 10.6 13.55 10.5 13.55 10.4 13.55 10.25 13.55 10.15 13.6 10.05 13.6 9.95 13.65 9.85 13.7 9.7 13.7 9.6 13.75 9.5 13.8 9.45 13.9 9.35 13.95 9.25 14.0 9.15 14.1 9.05 14.15 9.0 14.25 8.9 14.35 8.8 14.45 8.75 14.55 8.7 14.65 8.65 14.75 8.6 14.85 8.55 14.95 8.5 15.05 8.45 15.2 8.4 15.3 8.35 15.4 8.35 15.55 8.3 15.65 8.3 15.8 8.3 15.95 8.3 16.1 8.3 L16.1 8.3 M7.1 8.5 L9.2 8.5 Q9.3 8.5 9.45 8.5 9.55 8.5 9.65 8.5 9.75 8.5 9.85 8.5 9.9 8.5 10.0 8.55 10.1 8.55 10.15 8.55 10.25 8.55 10.3 8.55 10.35 8.55 10.45 8.6 10.5 8.6 10.55 8.6 10.6 8.6 10.65 8.65 10.7 8.65 10.75 8.65 10.8 8.7 10.85 8.7 10.9 8.7 10.95 8.75 11.0 8.75 11.05 8.8 11.1 8.8 11.1 8.85 11.15 8.85 11.2 8.9 11.25 8.9 11.3 8.95 11.35 9.0 11.4 9.05 11.45 9.05 11.5 9.1 11.5 9.15 11.55 9.2 11.6 9.25 11.65 9.3 11.7 9.35 11.7 9.4 11.75 9.5 11.8 9.55 11.8 9.6 11.85 9.65 11.9 9.75 11.9 9.8 11.95 9.85 11.95 9.95 12.0 10.0 12.0 10.05 12.0 10.15 12.05 10.2 12.05 10.25 12.05 10.35 12.1 10.4 12.1 10.5 12.1 10.55 12.1 10.65 12.1 10.7 12.15 10.8 12.15 10.85 12.15 10.95 12.15 11.1 12.15 11.2 12.1 11.35 12.1 11.45 12.1 11.6 12.05 11.7 12.0 11.8 12.0 11.95 11.95 12.05 11.9 12.15 11.85 12.25 11.8 12.3 11.7 12.4 11.65 12.5 11.6 12.55 11.5 12.65 11.4 12.7 11.35 12.8 11.25 12.85 11.15 12.9 11.05 12.95 10.95 13.0 10.85 13.05 10.75 13.05 10.65 13.1 10.5 13.15 10.4 13.15 10.25 13.15 10.15 13.2 10.0 13.2 9.85 13.2 9.7 13.2 L9.5 13.2 12.95 17.5 11.6 17.5 8.3 13.2 8.15 13.2 8.15 17.5 7.1 17.5 7.1 8.5 7.1 8.5 M8.15 9.4 L8.15 12.4 8.95 12.4 Q9.1 12.4 9.25 12.4 9.4 12.4 9.55 12.4 9.65 12.4 9.8 12.35 9.9 12.35 10.0 12.35 10.1 12.3 10.2 12.3 10.3 12.25 10.4 12.25 10.45 12.2 10.55 12.15 10.6 12.15 10.65 12.1 10.7 12.05 10.75 12.0 10.8 11.95 10.85 11.9 10.85 11.85 10.9 11.8 10.95 11.7 10.95 11.65 11.0 11.6 11.0 11.5 11.05 11.4 11.05 11.35 11.05 11.25 11.05 11.15 11.05 11.05 11.05 10.95 11.05 10.85 11.05 10.75 11.05 10.65 11.05 10.55 11.0 10.45 11.0 10.4 11.0 10.3 10.95 10.25 10.95 10.15 10.9 10.1 10.85 10.0 10.85 9.95 10.8 9.9 10.75 9.85 10.7 9.8 10.65 9.75 10.6 9.7 10.5 9.65 10.45 9.65 10.35 9.6 10.3 9.55 10.2 9.55 10.1 9.5 10.0 9.5 9.9 9.45 9.8 9.45 9.65 9.45 9.55 9.45 9.4 9.4 9.25 9.4 9.1 9.4 8.95 9.4 L8.15 9.4 8.15 9.4" fill="#ffffff" fill-rule="evenodd" stroke="none"/>
    </g>
  </defs>
</svg>
