<?xml version="1.0" encoding="UTF-8" standalone="no"?>
<svg xmlns:ffdec="https://www.free-decompiler.com/flash" xmlns:xlink="http://www.w3.org/1999/xlink" ffdec:objectType="frame" height="26.05px" width="52.95px" xmlns="http://www.w3.org/2000/svg">
  <g transform="matrix(1.0, 0.0, 0.0, 1.0, 0.0, 0.0)">
    <use ffdec:characterId="3" height="26.0" transform="matrix(1.0, 0.0, 0.0, 1.0, 0.0, 0.0)" width="26.0" xlink:href="#shape0"/>
    <use ffdec:characterId="135" height="12.8" transform="matrix(0.9293, 0.0, 0.0, 0.9326, 8.75, 8.05)" width="10.9" xlink:href="#shape1"/>
    <use ffdec:characterId="273" height="26.0" transform="matrix(1.0, 0.0, 0.0, 1.0, 0.0, 0.0)" width="26.0" xlink:href="#shape2"/>
  </g>
  <defs>
    <g id="shape0" transform="matrix(1.0, 0.0, 0.0, 1.0, 0.0, 0.0)">
      <path d="M22.0 4.0 Q23.05 5.1 23.05 6.6 L23.05 19.4 Q23.05 20.85 22.0 22.0 20.85 23.05 19.4 23.05 L6.6 23.05 Q5.1 23.05 4.0 22.0 2.95 20.9 2.95 19.4 L2.95 6.6 Q2.95 5.1 4.0 4.0 5.1 2.9 6.6 2.9 L19.4 2.9 Q20.9 2.9 22.0 4.0 M26.0 6.6 L26.0 19.4 Q26.0 22.15 24.05 24.05 L23.95 24.15 Q22.1 26.0 19.4 26.0 L6.6 26.0 Q3.9 26.0 1.95 24.05 0.0 22.15 0.0 19.4 L0.0 6.6 Q0.0 3.9 1.95 1.95 3.9 0.0 6.6 0.0 L19.4 0.0 Q22.1 0.0 23.95 1.85 L24.05 1.95 Q26.0 3.9 26.0 6.6 M23.95 3.85 L23.15 2.8 Q21.55 1.3 19.4 1.3 L6.6 1.3 Q4.4 1.3 2.8 2.8 1.3 4.4 1.3 6.6 L1.3 19.4 Q1.3 21.55 2.8 23.15 4.4 24.7 6.6 24.7 L19.4 24.7 Q21.55 24.7 23.15 23.15 L23.95 22.15 Q24.7 20.9 24.7 19.4 L24.7 6.6 Q24.7 5.05 23.95 3.85" fill="#000000" fill-opacity="0.0" fill-rule="evenodd" stroke="none"/>
      <path d="M22.0 4.0 Q20.9 2.9 19.4 2.9 L6.6 2.9 Q5.1 2.9 4.0 4.0 2.95 5.1 2.95 6.6 L2.95 19.4 Q2.95 20.9 4.0 22.0 5.1 23.05 6.6 23.05 L19.4 23.05 Q20.85 23.05 22.0 22.0 23.05 20.85 23.05 19.4 L23.05 6.6 Q23.05 5.1 22.0 4.0 M23.95 3.85 Q24.7 5.05 24.7 6.6 L24.7 19.4 Q24.7 20.9 23.95 22.15 L23.15 23.15 Q21.55 24.7 19.4 24.7 L6.6 24.7 Q4.4 24.7 2.8 23.15 1.3 21.55 1.3 19.4 L1.3 6.6 Q1.3 4.4 2.8 2.8 4.4 1.3 6.6 1.3 L19.4 1.3 Q21.55 1.3 23.15 2.8 L23.95 3.85" fill="#a6a8ab" fill-opacity="0.0" fill-rule="evenodd" stroke="none"/>
    </g>
    <g id="shape1" transform="matrix(1.0, 0.0, 0.0, 1.0, 0.0, 0.0)">
      <path d="M7.25 7.0 L7.25 11.35 8.4 11.15 8.95 10.45 9.1 9.25 8.95 8.05 Q8.85 7.5 8.45 7.25 8.05 6.95 7.25 7.0 M0.0 0.0 L1.7 0.0 1.7 11.3 4.55 11.3 4.55 12.8 0.0 12.8 0.0 0.0 M8.9 2.4 L8.45 1.7 7.55 1.45 7.25 1.45 7.25 5.65 8.4 5.35 8.95 4.55 9.05 3.35 8.9 2.4 M10.7 3.4 L10.6 4.65 10.15 5.65 9.1 6.25 9.1 6.3 Q9.85 6.5 10.2 6.95 L10.75 8.0 10.9 9.3 Q10.95 11.05 10.2 11.95 9.45 12.8 7.7 12.8 L5.65 12.8 5.65 0.0 7.75 0.0 Q8.9 0.0 9.55 0.4 10.2 0.8 10.45 1.55 10.75 2.35 10.7 3.4" fill="#000000" fill-opacity="0.0" fill-rule="evenodd" stroke="none"/>
    </g>
    <g id="shape2" transform="matrix(1.0, 0.0, 0.0, 1.0, 0.0, 0.0)">
      <path d="M13.0 2.0 Q12.0 2.0 11.0 2.15 10.0 2.3 9.1 2.6 8.2 2.85 7.4 3.3 6.6 3.7 5.95 4.2 5.25 4.7 4.7 5.3 4.15 5.9 3.8 6.6 3.4 7.25 3.2 8.0 3.0 8.75 3.0 9.5 L3.0 10.0 3.0 22.0 Q3.0 22.1 3.0 22.2 3.05 22.3 3.1 22.4 3.1 22.5 3.15 22.55 3.2 22.65 3.3 22.7 3.35 22.8 3.45 22.85 3.5 22.9 3.6 22.9 3.7 22.95 3.8 23.0 3.9 23.0 4.0 23.0 L22.0 23.0 Q22.1 23.0 22.2 23.0 22.3 22.95 22.4 22.9 22.5 22.9 22.55 22.85 22.65 22.8 22.7 22.7 22.8 22.65 22.85 22.55 22.9 22.5 22.9 22.4 22.95 22.3 23.0 22.2 23.0 22.1 23.0 22.0 L23.0 10.0 23.0 9.5 Q23.0 8.75 22.8 8.0 22.6 7.25 22.2 6.6 21.85 5.9 21.3 5.3 20.75 4.7 20.05 4.2 19.4 3.7 18.6 3.3 17.8 2.85 16.9 2.6 16.0 2.3 15.0 2.15 14.0 2.0 13.0 2.0 L13.0 2.0 M7.4 8.5 L8.5 8.5 8.5 16.5 11.9 16.5 11.9 17.5 7.4 17.5 7.4 8.5 M13.15 8.5 L15.05 8.5 Q15.15 8.5 15.3 8.5 15.4 8.5 15.5 8.5 15.6 8.5 15.7 8.5 15.8 8.5 15.9 8.55 16.0 8.55 16.05 8.55 16.15 8.55 16.2 8.55 16.3 8.55 16.35 8.6 16.4 8.6 16.5 8.6 16.55 8.6 16.6 8.65 16.65 8.65 16.7 8.65 16.75 8.7 16.8 8.7 16.85 8.7 16.9 8.75 16.95 8.75 17.0 8.8 17.05 8.8 17.1 8.85 17.15 8.85 17.2 8.9 17.25 8.9 17.3 8.95 17.35 9.0 17.4 9.05 17.45 9.1 17.5 9.1 17.55 9.15 17.6 9.2 17.65 9.25 17.7 9.3 17.7 9.35 17.75 9.4 17.8 9.5 17.85 9.55 17.85 9.6 17.9 9.65 17.95 9.7 17.95 9.75 18.0 9.8 18.0 9.9 18.05 9.95 18.05 10.0 18.1 10.1 18.1 10.15 18.1 10.2 18.15 10.3 18.15 10.35 18.15 10.45 18.15 10.5 18.2 10.55 18.2 10.65 18.2 10.7 18.2 10.8 18.2 10.85 18.2 10.95 18.2 11.05 18.2 11.1 18.2 11.2 18.15 11.3 18.15 11.35 18.15 11.45 18.1 11.5 18.1 11.6 18.05 11.65 18.05 11.75 18.0 11.8 17.95 11.85 17.95 11.95 17.9 12.0 17.85 12.05 17.8 12.1 17.75 12.15 17.7 12.2 17.65 12.3 17.6 12.35 17.55 12.4 17.5 12.4 17.45 12.45 17.35 12.5 17.3 12.55 17.25 12.6 17.15 12.6 17.1 12.65 17.0 12.7 16.95 12.7 16.85 12.75 16.95 12.75 17.05 12.8 17.15 12.8 17.25 12.85 17.35 12.85 17.4 12.9 17.5 12.95 17.6 12.95 17.65 13.0 17.75 13.05 17.8 13.1 17.85 13.2 17.95 13.25 18.0 13.3 18.05 13.35 18.1 13.45 18.15 13.5 18.2 13.6 18.25 13.7 18.3 13.75 18.35 13.85 18.4 13.95 18.45 14.0 18.45 14.1 18.5 14.2 18.5 14.3 18.55 14.4 18.55 14.5 18.6 14.6 18.6 14.7 18.6 14.85 18.6 14.95 18.6 15.0 18.6 15.1 18.6 15.15 18.6 15.2 18.6 15.3 18.55 15.35 18.55 15.4 18.55 15.45 18.55 15.55 18.5 15.6 18.5 15.65 18.5 15.75 18.45 15.8 18.45 15.85 18.4 15.9 18.4 15.95 18.35 16.0 18.35 16.1 18.3 16.15 18.3 16.2 18.25 16.25 18.25 16.3 18.2 16.35 18.15 16.45 18.15 16.5 18.1 16.55 18.05 16.6 18.0 16.65 17.95 16.7 17.95 16.75 17.9 16.75 17.85 16.8 17.8 16.85 17.75 16.9 17.7 16.95 17.65 17.0 17.6 17.05 17.55 17.05 17.5 17.1 17.4 17.15 17.35 17.15 17.3 17.2 17.25 17.25 17.15 17.25 17.1 17.3 17.05 17.3 17.0 17.35 16.9 17.35 16.85 17.35 16.75 17.4 16.65 17.4 16.6 17.4 16.5 17.45 16.4 17.45 16.25 17.45 16.15 17.45 16.05 17.45 15.9 17.5 15.8 17.5 15.65 17.5 15.5 17.5 15.35 17.5 15.2 17.5 15.05 17.5 L13.15 17.5 13.15 8.5 M14.2 9.45 L14.2 12.45 15.05 12.45 Q15.2 12.45 15.3 12.45 15.45 12.45 15.55 12.4 15.7 12.4 15.8 12.4 15.9 12.4 16.0 12.35 16.1 12.35 16.2 12.3 16.3 12.3 16.35 12.25 16.45 12.2 16.5 12.2 16.6 12.15 16.65 12.1 16.7 12.05 16.75 12.0 16.8 11.95 16.85 11.9 16.9 11.85 16.9 11.8 16.95 11.75 17.0 11.65 17.0 11.6 17.05 11.5 17.05 11.45 17.05 11.35 17.1 11.25 17.1 11.2 17.1 11.1 17.1 11.0 17.1 10.9 17.1 10.8 17.1 10.7 17.05 10.6 17.05 10.5 17.05 10.4 17.0 10.35 17.0 10.25 16.95 10.2 16.95 10.1 16.9 10.05 16.85 10.0 16.8 9.9 16.75 9.85 16.7 9.8 16.65 9.8 16.6 9.75 16.55 9.7 16.45 9.65 16.4 9.65 16.3 9.6 16.25 9.55 16.15 9.55 16.05 9.5 15.95 9.5 15.8 9.5 15.7 9.45 15.6 9.45 15.45 9.45 15.3 9.45 15.2 9.45 15.05 9.45 L14.2 9.45 M14.2 13.3 L14.2 16.55 15.05 16.55 Q15.15 16.55 15.25 16.55 15.35 16.55 15.45 16.55 15.5 16.55 15.6 16.55 15.7 16.55 15.75 16.55 15.85 16.55 15.9 16.55 16.0 16.55 16.05 16.55 16.1 16.5 16.15 16.5 16.2 16.5 16.25 16.5 16.3 16.5 16.35 16.5 16.4 16.45 16.45 16.45 16.5 16.45 16.5 16.45 16.55 16.4 16.6 16.4 16.65 16.4 16.65 16.35 16.7 16.35 16.75 16.35 16.75 16.3 16.8 16.3 16.85 16.3 16.85 16.25 16.9 16.25 16.9 16.2 16.95 16.2 17.0 16.15 17.0 16.1 17.05 16.1 17.1 16.05 17.1 16.05 17.15 16.0 17.15 15.95 17.2 15.9 17.2 15.9 17.25 15.85 17.25 15.8 17.3 15.75 17.3 15.7 17.3 15.65 17.35 15.6 17.35 15.55 17.35 15.55 17.4 15.5 17.4 15.45 17.4 15.4 17.4 15.35 17.45 15.3 17.45 15.25 17.45 15.2 17.45 15.15 17.45 15.1 17.45 15.05 17.45 15.0 17.45 14.95 17.45 14.9 17.45 14.85 17.45 14.75 17.45 14.7 17.45 14.65 17.45 14.6 17.4 14.55 17.4 14.5 17.4 14.45 17.4 14.4 17.35 14.35 17.35 14.3 17.35 14.25 17.3 14.2 17.3 14.15 17.25 14.1 17.25 14.05 17.2 14.0 17.2 13.95 17.15 13.9 17.15 13.9 17.1 13.85 17.05 13.8 17.05 13.75 17.0 13.75 16.95 13.7 16.95 13.65 16.9 13.65 16.85 13.6 16.8 13.6 16.75 13.55 16.7 13.5 16.7 13.5 16.65 13.5 16.6 13.45 16.6 13.45 16.55 13.45 16.55 13.45 16.5 13.4 16.5 13.4 16.45 13.4 16.4 13.4 16.4 13.4 16.35 13.35 16.3 13.35 16.3 13.35 16.25 13.35 16.2 13.35 16.15 13.35 16.15 13.35 16.1 13.35 16.05 13.3 16.0 13.3 15.95 13.3 15.9 13.3 15.85 13.3 15.8 13.3 15.75 13.3 15.7 13.3 15.6 13.3 15.55 13.3 15.5 13.3 15.4 13.3 15.35 13.3 L15.05 13.3 14.2 13.3" fill="#ffffff" fill-rule="evenodd" stroke="none"/>
    </g>
  </defs>
</svg>
