<?xml version="1.0" encoding="UTF-8" standalone="no"?>
<svg xmlns:ffdec="https://www.free-decompiler.com/flash" xmlns:xlink="http://www.w3.org/1999/xlink" ffdec:objectType="frame" height="26.05px" width="52.95px" xmlns="http://www.w3.org/2000/svg">
  <g transform="matrix(1.0, 0.0, 0.0, 1.0, 0.0, 0.0)">
    <use ffdec:characterId="132" height="26.0" transform="matrix(1.0, 0.0, 0.0, 1.0, 0.05, 0.05)" width="26.0" xlink:href="#shape0"/>
    <use ffdec:characterId="35" height="12.8" transform="matrix(1.0, 0.0, 0.0, 1.0, 10.55, 7.2)" width="6.6" xlink:href="#shape1"/>
    <use ffdec:characterId="278" height="26.0" transform="matrix(1.0, 0.0, 0.0, 1.0, 0.0, 0.0)" width="26.0" xlink:href="#shape2"/>
  </g>
  <defs>
    <g id="shape0" transform="matrix(1.0, 0.0, 0.0, 1.0, -0.05, -0.05)">
      <path d="M3.55 13.05 Q3.55 9.1 6.35 6.3 9.15 3.5 13.05 3.5 17.0 3.5 19.75 6.3 22.55 9.1 22.55 13.05 22.55 17.0 19.75 19.7 17.0 22.5 13.05 22.5 9.15 22.5 6.35 19.7 3.55 17.0 3.55 13.05" fill="#000000" fill-opacity="0.0" fill-rule="evenodd" stroke="none"/>
      <path d="M21.0 20.95 Q17.65 24.25 13.05 24.25 8.4 24.25 5.1 20.95 1.8 17.65 1.8 13.05 1.8 8.4 5.1 5.05 8.4 1.75 13.05 1.75 17.7 1.75 21.0 5.05 24.3 8.4 24.3 13.05 24.3 17.65 21.0 20.95 M13.05 3.5 Q9.15 3.5 6.35 6.3 3.55 9.1 3.55 13.05 3.55 17.0 6.35 19.7 9.15 22.5 13.05 22.5 17.0 22.5 19.75 19.7 22.55 17.0 22.55 13.05 22.55 9.1 19.75 6.3 17.0 3.5 13.05 3.5" fill="#a6a8ab" fill-opacity="0.0" fill-rule="evenodd" stroke="none"/>
      <path d="M26.05 13.05 Q26.05 18.4 22.2 22.2 18.4 26.05 13.05 26.05 7.7 26.05 3.85 22.2 0.05 18.4 0.05 13.05 0.05 7.65 3.85 3.85 7.65 0.05 13.05 0.05 18.4 0.05 22.2 3.85 26.05 7.65 26.05 13.05 M24.3 13.05 Q24.3 8.4 21.0 5.05 17.7 1.75 13.05 1.75 8.4 1.75 5.1 5.05 1.8 8.4 1.8 13.05 1.8 17.65 5.1 20.95 8.4 24.25 13.05 24.25 17.65 24.25 21.0 20.95 24.3 17.65 24.3 13.05" fill="#000000" fill-opacity="0.0" fill-rule="evenodd" stroke="none"/>
    </g>
    <g id="shape1" transform="matrix(1.0, 0.0, 0.0, 1.0, 0.0, 0.0)">
      <path d="M6.6 0.0 L4.2 7.25 4.2 12.8 2.5 12.8 2.5 7.25 0.0 0.0 1.8 0.0 3.4 5.9 4.75 0.0 6.6 0.0" fill="#000000" fill-opacity="0.0" fill-rule="evenodd" stroke="none"/>
    </g>
    <g id="shape2" transform="matrix(1.0, 0.0, 0.0, 1.0, 0.0, 0.0)">
      <path d="M13.0 3.5 Q12.05 3.5 11.1 3.7 10.15 3.9 9.3 4.25 8.45 4.6 7.7 5.1 6.95 5.65 6.3 6.3 5.65 6.95 5.1 7.7 4.6 8.45 4.25 9.3 3.9 10.15 3.7 11.1 3.5 12.05 3.5 13.0 3.5 13.95 3.7 14.9 3.9 15.85 4.25 16.7 4.6 17.55 5.1 18.3 5.65 19.05 6.3 19.7 6.95 20.35 7.7 20.9 8.45 21.4 9.3 21.75 10.15 22.1 11.1 22.3 12.05 22.5 13.0 22.5 13.95 22.5 14.9 22.3 15.85 22.1 16.7 21.75 17.55 21.4 18.3 20.9 19.05 20.35 19.7 19.7 20.35 19.05 20.9 18.3 21.4 17.55 21.75 16.7 22.1 15.85 22.3 14.9 22.5 13.95 22.5 13.0 22.5 12.05 22.3 11.1 22.1 10.15 21.75 9.3 21.4 8.45 20.9 7.7 20.35 6.95 19.7 6.3 19.05 5.65 18.3 5.1 17.55 4.6 16.7 4.25 15.85 3.9 14.9 3.7 13.95 3.5 13.0 3.5 L13.0 3.5 M9.4 8.5 L10.65 8.5 13.0 12.4 15.35 8.5 16.6 8.5 13.55 13.4 13.55 17.5 12.45 17.5 12.45 13.4 9.4 8.5 9.4 8.5" fill="#ffffff" fill-rule="evenodd" stroke="none"/>
    </g>
  </defs>
</svg>
