<?xml version="1.0" encoding="UTF-8" standalone="no"?>
<svg xmlns:ffdec="https://www.free-decompiler.com/flash" xmlns:xlink="http://www.w3.org/1999/xlink" ffdec:objectType="frame" height="26.05px" width="52.95px" xmlns="http://www.w3.org/2000/svg">
  <g transform="matrix(1.0, 0.0, 0.0, 1.0, 0.0, 0.0)">
    <use ffdec:characterId="1" height="26.0" transform="matrix(1.0, 0.0, 0.0, 1.0, 0.0, 0.0)" width="35.75" xlink:href="#shape0"/>
    <use ffdec:characterId="139" height="13.15" transform="matrix(1.0, 0.0, 0.0, 1.0, 10.45, 7.05)" width="16.4" xlink:href="#shape1"/>
    <use ffdec:characterId="281" height="26.0" transform="matrix(1.0, 0.0, 0.0, 1.0, 0.0, 0.0)" width="35.75" xlink:href="#shape2"/>
  </g>
  <defs>
    <g id="shape0" transform="matrix(1.0, 0.0, 0.0, 1.0, 0.0, 0.0)">
      <path d="M33.7 3.85 L32.9 2.8 Q31.3 1.3 29.15 1.3 L6.6 1.3 Q4.4 1.3 2.8 2.8 1.3 4.4 1.3 6.6 L1.3 19.4 Q1.3 21.55 2.8 23.15 4.4 24.7 6.6 24.7 L29.15 24.7 Q31.3 24.7 32.9 23.15 L33.7 22.15 Q34.45 20.9 34.45 19.4 L34.45 6.6 Q34.45 5.05 33.7 3.85 M33.8 1.95 Q35.75 3.9 35.75 6.6 L35.75 19.4 Q35.75 22.15 33.8 24.05 L33.7 24.15 Q31.85 26.0 29.15 26.0 L6.6 26.0 Q3.9 26.0 1.95 24.05 0.0 22.15 0.0 19.4 L0.0 6.6 Q0.0 3.9 1.95 1.95 3.9 0.0 6.6 0.0 L29.15 0.0 Q31.85 0.0 33.7 1.85 L33.8 1.95" fill="#000000" fill-opacity="0.0" fill-rule="evenodd" stroke="none"/>
      <path d="M34.45 6.6 L34.45 19.4 Q34.45 20.9 33.7 22.15 L32.9 23.15 Q31.3 24.7 29.15 24.7 L6.6 24.7 Q4.4 24.7 2.8 23.15 1.3 21.55 1.3 19.4 L1.3 6.6 Q1.3 4.4 2.8 2.8 4.4 1.3 6.6 1.3 L29.15 1.3 Q31.3 1.3 32.9 2.8 L33.7 3.85 Q34.45 5.05 34.45 6.6 M31.75 4.0 Q30.65 2.9 29.15 2.9 L6.6 2.9 Q5.1 2.9 4.0 4.0 2.95 5.1 2.95 6.6 L2.95 19.4 Q2.95 20.9 4.0 22.0 5.1 23.05 6.6 23.05 L29.15 23.05 Q30.6 23.05 31.75 22.0 32.8 20.85 32.8 19.4 L32.8 6.6 Q32.8 5.1 31.75 4.0" fill="#a6a8ab" fill-opacity="0.0" fill-rule="evenodd" stroke="none"/>
      <path d="M32.8 6.6 L32.8 19.4 Q32.8 20.85 31.75 22.0 30.6 23.05 29.15 23.05 L6.6 23.05 Q5.1 23.05 4.0 22.0 2.95 20.9 2.95 19.4 L2.95 6.6 Q2.95 5.1 4.0 4.0 5.1 2.9 6.6 2.9 L29.15 2.9 Q30.65 2.9 31.75 4.0 32.8 5.1 32.8 6.6" fill="#000000" fill-opacity="0.0" fill-rule="evenodd" stroke="none"/>
    </g>
    <g id="shape1" transform="matrix(1.0, 0.0, 0.0, 1.0, 0.0, 0.0)">
      <path d="M8.8 11.4 L9.1 12.1 8.8 12.85 Q8.5 13.15 8.05 13.15 7.65 13.15 7.35 12.85 7.05 12.55 7.05 12.1 7.05 11.7 7.35 11.4 7.65 11.1 8.05 11.1 8.5 11.1 8.8 11.4 M1.25 12.1 Q1.25 11.7 1.55 11.4 1.85 11.1 2.25 11.1 2.7 11.1 3.0 11.4 L3.3 12.1 3.0 12.85 Q2.7 13.15 2.25 13.15 L1.55 12.85 Q1.25 12.55 1.25 12.1 M4.0 0.55 Q4.55 1.1 4.7 1.95 L4.8 3.85 4.8 4.95 4.6 6.05 4.05 6.9 Q3.7 7.25 3.05 7.25 L3.05 10.0 1.55 10.0 1.55 6.1 1.95 6.15 Q2.55 6.15 2.8 5.8 L3.15 5.05 3.2 4.05 3.2 3.4 3.15 2.5 2.9 1.8 2.35 1.45 Q1.95 1.5 1.8 1.75 1.65 2.0 1.65 2.4 L1.6 3.05 1.6 3.35 0.0 3.35 0.0 3.15 Q0.0 2.3 0.15 1.6 0.3 0.85 0.8 0.45 1.25 0.0 2.3 0.0 3.45 0.05 4.0 0.55 M13.85 11.1 Q14.3 11.1 14.6 11.4 L14.9 12.1 14.6 12.85 Q14.3 13.15 13.85 13.15 13.45 13.15 13.15 12.85 12.85 12.55 12.85 12.1 12.85 11.7 13.15 11.4 13.45 11.1 13.85 11.1 M10.6 4.95 L10.4 6.05 9.85 6.9 Q9.5 7.25 8.85 7.25 L8.85 10.0 7.35 10.0 7.35 6.1 7.75 6.15 Q8.35 6.15 8.6 5.8 L8.95 5.05 9.0 4.05 9.0 3.4 8.95 2.5 8.7 1.8 Q8.5 1.5 8.15 1.45 7.75 1.5 7.6 1.75 7.45 2.0 7.45 2.4 L7.4 3.05 7.4 3.35 5.8 3.35 5.8 3.15 Q5.8 2.3 5.95 1.6 6.1 0.85 6.6 0.45 7.05 0.0 8.1 0.0 9.25 0.05 9.8 0.55 10.35 1.1 10.5 1.95 L10.6 3.85 10.6 4.95 M16.3 1.95 L16.4 3.85 16.4 4.95 16.2 6.05 15.65 6.9 14.65 7.25 14.65 10.0 13.15 10.0 13.15 6.1 13.55 6.15 Q14.15 6.15 14.4 5.8 L14.75 5.05 14.8 4.05 14.8 3.4 14.75 2.5 14.5 1.8 Q14.3 1.5 13.95 1.45 L13.4 1.75 Q13.25 2.0 13.25 2.4 L13.2 3.05 13.2 3.35 11.6 3.35 11.6 3.15 Q11.6 2.3 11.75 1.6 11.9 0.85 12.4 0.45 12.85 0.0 13.9 0.0 15.05 0.05 15.6 0.55 16.15 1.1 16.3 1.95" fill="#000000" fill-opacity="0.0" fill-rule="evenodd" stroke="none"/>
    </g>
    <g id="shape2" transform="matrix(1.0, 0.0, 0.0, 1.0, 0.0, 0.0)">
      <path d="M4.0 3.0 Q3.9 3.0 3.8 3.0 3.7 3.05 3.6 3.1 3.5 3.1 3.45 3.15 3.35 3.2 3.3 3.3 3.2 3.35 3.15 3.45 3.1 3.5 3.1 3.6 3.05 3.7 3.0 3.8 3.0 3.9 3.0 4.0 L3.0 22.0 Q3.0 22.1 3.0 22.2 3.05 22.3 3.1 22.4 3.1 22.5 3.15 22.55 3.2 22.65 3.3 22.7 3.35 22.8 3.45 22.85 3.5 22.9 3.6 22.9 3.7 22.95 3.8 23.0 3.9 23.0 4.0 23.0 L31.75 23.0 Q31.85 23.0 31.95 23.0 32.05 22.95 32.15 22.9 32.25 22.9 32.3 22.85 32.4 22.8 32.45 22.7 32.55 22.65 32.6 22.55 32.65 22.5 32.65 22.4 32.7 22.3 32.75 22.2 32.75 22.1 32.75 22.0 L32.75 4.0 Q32.75 3.9 32.75 3.8 32.7 3.7 32.65 3.6 32.65 3.5 32.6 3.45 32.55 3.35 32.45 3.3 32.4 3.2 32.3 3.15 32.25 3.1 32.15 3.1 32.05 3.05 31.95 3.0 31.85 3.0 31.75 3.0 L4.0 3.0 4.0 3.0 M11.3 8.3 Q11.45 8.3 11.55 8.3 11.65 8.3 11.8 8.35 11.9 8.35 12.0 8.35 12.1 8.4 12.2 8.45 12.3 8.45 12.4 8.5 12.5 8.55 12.55 8.6 12.65 8.65 12.75 8.7 12.8 8.75 12.9 8.85 12.95 8.9 13.05 9.0 13.1 9.05 13.15 9.1 13.2 9.2 13.25 9.3 13.3 9.35 13.3 9.45 13.35 9.55 13.4 9.65 13.4 9.75 13.45 9.85 13.45 9.95 13.45 10.05 13.45 10.15 13.45 10.25 13.45 10.3 13.45 10.4 13.45 10.45 13.45 10.55 13.45 10.6 13.4 10.65 13.4 10.75 13.4 10.8 13.35 10.85 13.35 10.9 13.3 11.0 13.25 11.05 13.25 11.1 13.2 11.15 13.15 11.2 13.1 11.3 13.05 11.35 13.0 11.4 12.95 11.45 12.9 11.55 12.85 11.6 12.8 11.65 12.7 11.7 12.65 11.8 12.55 11.85 12.45 11.9 12.35 12.0 12.25 12.05 12.15 12.15 12.05 12.2 11.95 12.3 11.85 12.35 11.75 12.4 11.55 12.55 11.4 12.65 11.3 12.7 11.2 12.8 11.1 12.9 11.0 13.0 10.9 13.05 10.8 13.15 10.75 13.25 10.65 13.3 10.6 13.4 10.55 13.5 10.55 13.55 10.5 13.65 10.5 13.75 10.45 13.8 10.45 13.9 10.45 13.95 10.45 14.0 10.45 14.0 10.45 14.05 10.5 14.1 10.5 14.15 10.5 14.15 10.5 14.2 10.55 14.25 10.55 14.25 10.55 14.3 10.6 14.35 10.6 14.35 10.65 14.4 10.65 14.4 10.7 14.45 10.75 14.5 10.75 14.5 10.8 14.5 10.8 14.55 10.85 14.55 10.9 14.6 10.9 14.6 10.95 14.6 11.0 14.65 11.05 14.65 11.05 14.65 11.1 14.65 11.15 14.65 11.2 14.65 11.25 14.65 11.3 14.65 11.35 14.65 11.4 14.65 11.45 14.65 11.5 14.65 11.55 14.65 11.6 14.6 11.65 14.6 11.7 14.6 11.75 14.55 11.8 14.55 11.8 14.5 11.85 14.5 11.9 14.45 11.9 14.45 11.95 14.4 12.0 14.35 12.05 14.3 12.05 14.25 12.05 14.25 12.1 14.2 12.1 14.15 12.15 14.1 12.15 14.05 12.15 14.0 12.15 13.95 12.2 13.85 12.2 13.8 12.2 13.75 12.2 13.7 12.2 13.6 12.2 13.55 12.2 13.45 L12.2 13.4 13.15 13.4 13.15 13.6 Q13.15 13.7 13.15 13.85 13.15 13.95 13.15 14.05 13.1 14.15 13.1 14.25 13.05 14.35 13.05 14.45 13.0 14.55 12.95 14.6 12.95 14.7 12.9 14.75 12.85 14.85 12.8 14.9 12.75 15.0 12.65 15.05 12.6 15.1 12.55 15.15 12.45 15.25 12.4 15.3 12.3 15.3 12.25 15.35 12.15 15.4 12.05 15.45 12.0 15.45 11.9 15.5 11.8 15.5 11.7 15.55 11.6 15.55 11.5 15.55 11.4 15.55 11.25 15.55 11.15 15.55 11.05 15.55 10.95 15.55 10.85 15.55 10.75 15.5 10.7 15.5 10.6 15.45 10.5 15.45 10.45 15.4 10.35 15.4 10.25 15.35 10.2 15.3 10.15 15.25 10.05 15.2 10.0 15.15 9.95 15.1 9.9 15.05 9.85 14.95 9.8 14.9 9.75 14.85 9.7 14.75 9.65 14.7 9.6 14.6 9.6 14.5 9.55 14.45 9.5 14.35 9.5 14.25 9.5 14.15 9.45 14.05 9.45 13.95 9.45 13.85 9.45 13.75 9.45 13.7 9.45 13.6 9.45 13.55 9.45 13.5 9.5 13.4 9.5 13.35 9.5 13.3 9.55 13.25 9.55 13.15 9.6 13.1 9.6 13.05 9.65 13.0 9.65 12.95 9.7 12.85 9.75 12.8 9.75 12.75 9.8 12.7 9.85 12.65 9.9 12.6 9.95 12.5 10.0 12.45 10.05 12.4 10.15 12.35 10.2 12.25 10.3 12.2 10.35 12.15 10.45 12.05 10.55 12.0 10.65 11.9 10.75 11.85 10.85 11.75 10.95 11.7 11.0 11.65 11.25 11.5 11.4 11.4 11.5 11.3 11.65 11.2 11.75 11.15 11.85 11.05 11.95 10.95 12.05 10.85 12.1 10.8 12.2 10.7 12.25 10.6 12.3 10.55 12.3 10.45 12.35 10.35 12.4 10.3 12.4 10.2 12.4 10.15 12.4 10.1 12.4 10.05 12.4 10.0 12.4 9.95 12.35 9.9 12.35 9.85 12.35 9.8 12.3 9.75 12.3 9.7 12.3 9.7 12.25 9.65 12.25 9.6 12.2 9.55 12.15 9.55 12.15 9.5 12.1 9.45 12.05 9.4 12.0 9.4 12.0 9.35 11.95 9.35 11.9 9.35 11.85 9.3 11.8 9.3 11.75 9.25 11.7 9.25 11.65 9.25 11.6 9.25 11.55 9.25 11.5 9.2 11.45 9.2 11.35 9.2 11.3 9.2 11.25 9.2 11.15 9.2 11.1 9.2 11.05 9.25 11.0 9.25 10.95 9.25 10.85 9.3 10.8 9.3 10.75 9.3 10.7 9.35 10.65 9.35 10.6 9.4 10.6 9.45 10.55 9.5 10.5 9.5 10.45 9.55 10.4 9.6 10.4 9.65 10.35 9.7 10.3 9.75 10.3 9.8 10.3 9.85 10.25 9.9 10.25 9.95 10.2 10.05 10.2 10.1 10.2 10.15 10.2 10.25 10.15 10.3 10.15 10.35 10.15 10.45 10.15 10.5 L9.15 10.5 9.15 10.35 Q9.15 10.25 9.15 10.15 9.2 10.0 9.2 9.9 9.2 9.8 9.25 9.7 9.25 9.6 9.3 9.5 9.35 9.45 9.4 9.35 9.45 9.25 9.5 9.15 9.55 9.1 9.6 9.0 9.7 8.95 9.75 8.85 9.8 8.8 9.9 8.7 10.0 8.65 10.05 8.6 10.15 8.55 10.25 8.5 10.35 8.45 10.45 8.45 10.55 8.4 10.65 8.4 10.75 8.35 10.85 8.35 10.95 8.3 11.05 8.3 11.2 8.3 11.3 8.3 L11.3 8.3 M17.85 8.3 Q18.0 8.3 18.1 8.3 18.2 8.3 18.35 8.35 18.45 8.35 18.55 8.35 18.65 8.4 18.75 8.45 18.85 8.45 18.95 8.5 19.05 8.55 19.15 8.6 19.2 8.65 19.3 8.7 19.35 8.75 19.45 8.85 19.5 8.9 19.6 9.0 19.65 9.05 19.7 9.1 19.75 9.2 19.8 9.3 19.85 9.35 19.9 9.45 19.9 9.55 19.95 9.65 19.95 9.75 20.0 9.85 20.0 9.95 20.0 10.05 20.0 10.15 20.0 10.25 20.0 10.3 20.0 10.4 20.0 10.45 20.0 10.55 20.0 10.6 19.95 10.65 19.95 10.75 19.95 10.8 19.9 10.85 19.9 10.9 19.85 11.0 19.85 11.05 19.8 11.1 19.75 11.15 19.7 11.2 19.7 11.3 19.65 11.35 19.6 11.4 19.55 11.45 19.5 11.55 19.4 11.6 19.35 11.65 19.25 11.7 19.2 11.8 19.1 11.85 19.0 11.9 18.95 12.0 18.85 12.05 18.75 12.15 18.6 12.2 18.5 12.3 18.4 12.35 18.3 12.4 18.1 12.55 17.95 12.65 17.85 12.7 17.75 12.8 17.65 12.9 17.55 13.0 17.45 13.05 17.35 13.15 17.3 13.25 17.25 13.3 17.2 13.4 17.15 13.5 17.1 13.55 17.05 13.65 17.05 13.75 17.0 13.8 17.0 13.9 17.0 13.95 17.0 14.0 17.0 14.0 17.05 14.05 17.05 14.1 17.05 14.15 17.05 14.15 17.1 14.2 17.1 14.25 17.1 14.25 17.15 14.3 17.15 14.35 17.15 14.35 17.2 14.4 17.2 14.4 17.25 14.45 17.3 14.5 17.3 14.5 17.35 14.5 17.4 14.55 17.4 14.55 17.45 14.6 17.5 14.6 17.5 14.6 17.55 14.65 17.6 14.65 17.65 14.65 17.65 14.65 17.7 14.65 17.75 14.65 17.8 14.65 17.85 14.65 17.9 14.65 17.95 14.65 18.0 14.65 18.05 14.65 18.1 14.65 18.15 14.6 18.2 14.6 18.25 14.6 18.3 14.55 18.35 14.55 18.4 14.5 18.4 14.5 18.45 14.45 18.5 14.45 18.5 14.4 18.55 14.35 18.6 14.3 18.6 14.25 18.65 14.25 18.65 14.2 18.65 14.15 18.7 14.1 18.7 14.05 18.7 14.0 18.75 13.95 18.75 13.85 18.75 13.8 18.75 13.75 18.75 13.7 18.75 13.6 18.8 13.55 18.8 13.45 L18.8 13.4 19.7 13.4 19.7 13.6 Q19.7 13.7 19.7 13.85 19.7 13.95 19.7 14.05 19.65 14.15 19.65 14.25 19.65 14.35 19.6 14.45 19.55 14.55 19.55 14.6 19.5 14.7 19.45 14.75 19.4 14.85 19.35 14.9 19.3 15.0 19.25 15.05 19.2 15.1 19.1 15.15 19.05 15.25 18.95 15.3 18.9 15.3 18.8 15.35 18.7 15.4 18.65 15.45 18.55 15.45 18.45 15.5 18.35 15.5 18.25 15.55 18.15 15.55 18.05 15.55 17.95 15.55 17.85 15.55 17.75 15.55 17.65 15.55 17.55 15.55 17.45 15.55 17.35 15.5 17.25 15.5 17.15 15.45 17.05 15.45 17.0 15.4 16.9 15.4 16.85 15.35 16.75 15.3 16.7 15.25 16.6 15.2 16.55 15.15 16.5 15.1 16.45 15.05 16.4 14.95 16.35 14.9 16.3 14.85 16.25 14.75 16.2 14.7 16.15 14.6 16.15 14.5 16.1 14.45 16.1 14.35 16.05 14.25 16.05 14.15 16.05 14.05 16.0 13.95 16.0 13.85 16.0 13.75 16.0 13.7 16.0 13.6 16.0 13.55 16.05 13.5 16.05 13.4 16.05 13.35 16.05 13.3 16.1 13.25 16.1 13.15 16.15 13.1 16.15 13.05 16.2 13.0 16.2 12.95 16.25 12.85 16.3 12.8 16.3 12.75 16.35 12.7 16.4 12.65 16.45 12.6 16.5 12.5 16.55 12.45 16.65 12.4 16.7 12.35 16.75 12.25 16.85 12.2 16.95 12.15 17.0 12.05 17.1 12.0 17.2 11.9 17.3 11.85 17.4 11.75 17.5 11.7 17.6 11.65 17.8 11.5 17.95 11.4 18.05 11.3 18.2 11.2 18.3 11.15 18.4 11.05 18.5 10.95 18.6 10.85 18.65 10.8 18.75 10.7 18.8 10.6 18.85 10.55 18.9 10.45 18.9 10.35 18.95 10.3 18.95 10.2 18.95 10.15 18.95 10.1 18.95 10.05 18.95 10.0 18.95 9.95 18.9 9.9 18.9 9.85 18.9 9.8 18.9 9.75 18.85 9.7 18.85 9.7 18.8 9.65 18.8 9.6 18.75 9.55 18.75 9.55 18.7 9.5 18.65 9.45 18.6 9.4 18.6 9.4 18.55 9.35 18.5 9.35 18.45 9.35 18.4 9.3 18.35 9.3 18.3 9.25 18.25 9.25 18.2 9.25 18.15 9.25 18.1 9.25 18.05 9.2 18.0 9.2 17.95 9.2 17.85 9.2 17.8 9.2 17.7 9.2 17.65 9.2 17.6 9.25 17.55 9.25 17.5 9.25 17.45 9.3 17.4 9.3 17.35 9.3 17.3 9.35 17.25 9.35 17.2 9.4 17.15 9.45 17.1 9.5 17.05 9.5 17.0 9.55 16.95 9.6 16.95 9.65 16.9 9.7 16.9 9.75 16.85 9.8 16.85 9.85 16.8 9.9 16.8 9.95 16.8 10.05 16.75 10.1 16.75 10.15 16.75 10.25 16.75 10.3 16.75 10.35 16.7 10.45 16.7 10.5 L15.75 10.5 15.75 10.35 Q15.75 10.25 15.75 10.15 15.75 10.0 15.75 9.9 15.8 9.8 15.8 9.7 15.85 9.6 15.9 9.5 15.9 9.45 15.95 9.35 16.0 9.25 16.05 9.15 16.1 9.1 16.15 9.0 16.25 8.95 16.3 8.85 16.4 8.8 16.45 8.7 16.55 8.65 16.6 8.6 16.7 8.55 16.8 8.5 16.9 8.45 17.0 8.45 17.1 8.4 17.2 8.4 17.3 8.35 17.4 8.35 17.5 8.3 17.6 8.3 17.75 8.3 17.85 8.3 L17.85 8.3 M24.4 8.3 Q24.55 8.3 24.65 8.3 24.75 8.3 24.9 8.35 25.0 8.35 25.1 8.35 25.2 8.4 25.3 8.45 25.4 8.45 25.5 8.5 25.6 8.55 25.7 8.6 25.8 8.65 25.85 8.7 25.95 8.75 26.0 8.85 26.05 8.9 26.15 9.0 26.2 9.05 26.25 9.1 26.3 9.2 26.35 9.3 26.4 9.35 26.45 9.45 26.5 9.55 26.5 9.65 26.55 9.75 26.55 9.85 26.55 9.95 26.55 10.05 26.6 10.15 26.6 10.25 26.6 10.3 26.6 10.4 26.6 10.45 26.55 10.55 26.55 10.6 26.55 10.65 26.5 10.75 26.5 10.8 26.5 10.85 26.45 10.9 26.4 11.0 26.4 11.05 26.35 11.1 26.3 11.15 26.3 11.2 26.25 11.3 26.2 11.35 26.15 11.4 26.1 11.45 26.05 11.55 25.95 11.6 25.9 11.65 25.85 11.7 25.75 11.8 25.65 11.85 25.6 11.9 25.5 12.0 25.4 12.05 25.3 12.15 25.2 12.2 25.05 12.3 24.95 12.35 24.9 12.4 24.7 12.55 24.55 12.65 24.45 12.7 24.3 12.8 24.2 12.9 24.1 13.0 24.0 13.05 23.95 13.15 23.85 13.25 23.8 13.3 23.75 13.4 23.7 13.5 23.65 13.55 23.6 13.65 23.6 13.75 23.6 13.8 23.6 13.9 23.6 13.95 23.6 14.0 23.6 14.0 23.6 14.05 23.6 14.1 23.6 14.15 23.65 14.15 23.65 14.2 23.65 14.25 23.65 14.25 23.7 14.3 23.7 14.35 23.75 14.35 23.75 14.4 23.8 14.4 23.8 14.45 23.85 14.5 23.85 14.5 23.9 14.5 23.95 14.55 23.95 14.55 24.0 14.6 24.05 14.6 24.05 14.6 24.1 14.65 24.15 14.65 24.2 14.65 24.25 14.65 24.25 14.65 24.3 14.65 24.35 14.65 24.4 14.65 24.45 14.65 24.5 14.65 24.55 14.65 24.6 14.65 24.65 14.65 24.7 14.6 24.75 14.6 24.8 14.6 24.85 14.55 24.9 14.55 24.95 14.5 24.95 14.5 25.0 14.45 25.05 14.45 25.05 14.4 25.1 14.35 25.15 14.3 25.15 14.25 25.2 14.25 25.2 14.2 25.25 14.15 25.25 14.1 25.25 14.05 25.3 14.0 25.3 13.95 25.3 13.85 25.3 13.8 25.3 13.75 25.35 13.7 25.35 13.6 25.35 13.55 25.35 13.45 L25.35 13.4 26.3 13.4 26.3 13.6 Q26.3 13.7 26.3 13.85 26.3 13.95 26.25 14.05 26.25 14.15 26.2 14.25 26.2 14.35 26.15 14.45 26.15 14.55 26.1 14.6 26.05 14.7 26.0 14.75 25.95 14.85 25.9 14.9 25.85 15.0 25.8 15.05 25.75 15.1 25.65 15.15 25.6 15.25 25.5 15.3 25.45 15.3 25.35 15.35 25.3 15.4 25.2 15.45 25.1 15.45 25.0 15.5 24.9 15.5 24.8 15.55 24.7 15.55 24.6 15.55 24.5 15.55 24.4 15.55 24.3 15.55 24.2 15.55 24.1 15.55 24.0 15.55 23.9 15.5 23.8 15.5 23.7 15.45 23.65 15.45 23.55 15.4 23.45 15.4 23.4 15.35 23.3 15.3 23.25 15.25 23.2 15.2 23.1 15.15 23.05 15.1 23.0 15.05 22.95 14.95 22.9 14.9 22.85 14.85 22.8 14.75 22.75 14.7 22.7 14.6 22.7 14.5 22.65 14.45 22.65 14.35 22.6 14.25 22.6 14.15 22.6 14.05 22.6 13.95 22.55 13.85 22.55 13.75 22.55 13.7 22.55 13.6 22.55 13.55 22.6 13.5 22.6 13.4 22.6 13.35 22.65 13.3 22.65 13.25 22.65 13.15 22.7 13.1 22.7 13.05 22.75 13.0 22.8 12.95 22.8 12.85 22.85 12.8 22.9 12.75 22.95 12.7 23.0 12.65 23.05 12.6 23.1 12.5 23.15 12.45 23.2 12.4 23.25 12.35 23.35 12.25 23.4 12.2 23.5 12.15 23.6 12.05 23.65 12.0 23.75 11.9 23.85 11.85 23.95 11.75 24.05 11.7 24.15 11.65 24.35 11.5 24.5 11.4 24.6 11.3 24.75 11.2 24.85 11.15 24.95 11.05 25.05 10.95 25.15 10.85 25.2 10.8 25.3 10.7 25.35 10.6 25.4 10.55 25.45 10.45 25.5 10.35 25.5 10.3 25.5 10.2 25.5 10.15 25.5 10.1 25.5 10.05 25.5 10.0 25.5 9.95 25.5 9.9 25.45 9.85 25.45 9.8 25.45 9.75 25.4 9.7 25.4 9.7 25.4 9.65 25.35 9.6 25.3 9.55 25.3 9.55 25.25 9.5 25.2 9.45 25.15 9.4 25.15 9.4 25.1 9.35 25.05 9.35 25.0 9.35 24.95 9.3 24.9 9.3 24.85 9.25 24.8 9.25 24.75 9.25 24.7 9.25 24.65 9.25 24.6 9.2 24.55 9.2 24.5 9.2 24.45 9.2 24.4 9.2 24.3 9.2 24.25 9.2 24.2 9.25 24.1 9.25 24.05 9.25 24.0 9.3 23.95 9.3 23.9 9.3 23.85 9.35 23.8 9.35 23.75 9.4 23.7 9.45 23.65 9.5 23.6 9.5 23.6 9.55 23.55 9.6 23.5 9.65 23.5 9.7 23.45 9.75 23.45 9.8 23.4 9.85 23.4 9.9 23.35 9.95 23.35 10.05 23.3 10.1 23.3 10.15 23.3 10.25 23.3 10.3 23.3 10.35 23.3 10.45 23.3 10.5 L22.3 10.5 22.3 10.35 Q22.3 10.25 22.3 10.15 22.3 10.0 22.35 9.9 22.35 9.8 22.35 9.7 22.4 9.6 22.45 9.5 22.45 9.45 22.5 9.35 22.55 9.25 22.6 9.15 22.65 9.1 22.75 9.0 22.8 8.95 22.85 8.85 22.95 8.8 23.0 8.7 23.1 8.65 23.2 8.6 23.25 8.55 23.35 8.5 23.45 8.45 23.55 8.45 23.65 8.4 23.75 8.4 23.85 8.35 23.95 8.35 24.05 8.3 24.2 8.3 24.3 8.3 24.4 8.3 L24.4 8.3 M11.15 16.3 Q11.2 16.3 11.25 16.3 11.25 16.3 11.3 16.3 11.35 16.3 11.4 16.3 11.4 16.3 11.45 16.35 11.5 16.35 11.5 16.35 11.55 16.4 11.55 16.4 11.6 16.4 11.65 16.45 11.65 16.45 11.7 16.5 11.7 16.55 11.75 16.55 11.75 16.6 11.8 16.6 11.8 16.65 11.8 16.65 11.85 16.7 11.85 16.75 11.85 16.75 11.85 16.8 11.9 16.85 11.9 16.85 11.9 16.9 11.9 16.95 11.9 16.95 11.9 17.0 11.9 17.05 11.9 17.1 11.9 17.1 11.9 17.15 11.9 17.2 11.85 17.2 11.85 17.25 11.85 17.3 11.85 17.3 11.8 17.35 11.8 17.4 11.8 17.4 11.75 17.45 11.75 17.45 11.7 17.5 11.7 17.55 11.65 17.55 11.65 17.6 11.6 17.6 11.6 17.65 11.55 17.65 11.5 17.65 11.5 17.7 11.45 17.7 11.4 17.7 11.4 17.7 11.35 17.7 11.3 17.75 11.3 17.75 11.25 17.75 11.2 17.75 11.15 17.75 11.1 17.75 11.1 17.75 11.05 17.75 11.0 17.75 11.0 17.7 10.95 17.7 10.9 17.7 10.9 17.7 10.85 17.65 10.8 17.65 10.8 17.65 10.75 17.6 10.75 17.6 10.7 17.6 10.7 17.55 10.65 17.55 10.6 17.5 10.6 17.5 10.6 17.45 10.55 17.4 10.55 17.4 10.5 17.35 10.5 17.35 10.5 17.3 10.5 17.25 10.45 17.25 10.45 17.2 10.45 17.15 10.45 17.1 10.45 17.1 10.45 17.05 10.45 17.0 10.45 16.95 10.45 16.95 10.45 16.9 10.45 16.85 10.45 16.85 10.45 16.8 10.5 16.75 10.5 16.75 10.5 16.7 10.5 16.65 10.55 16.65 10.55 16.6 10.6 16.6 10.6 16.55 10.65 16.5 10.65 16.5 10.7 16.45 10.7 16.45 10.75 16.4 10.75 16.4 10.8 16.4 10.85 16.35 10.85 16.35 10.9 16.35 10.9 16.3 10.95 16.3 11.0 16.3 11.05 16.3 11.05 16.3 11.1 16.3 11.15 16.3 11.15 16.3 L11.15 16.3 M17.75 16.3 Q17.8 16.3 17.8 16.3 17.85 16.3 17.9 16.3 17.9 16.3 17.95 16.3 18.0 16.3 18.0 16.35 18.05 16.35 18.05 16.35 18.1 16.4 18.15 16.4 18.15 16.4 18.2 16.45 18.2 16.45 18.25 16.5 18.3 16.55 18.3 16.55 18.3 16.6 18.35 16.6 18.35 16.65 18.4 16.65 18.4 16.7 18.4 16.75 18.4 16.75 18.45 16.8 18.45 16.85 18.45 16.85 18.45 16.9 18.45 16.95 18.45 16.95 18.45 17.0 18.45 17.05 18.45 17.1 18.45 17.1 18.45 17.15 18.45 17.2 18.45 17.2 18.4 17.25 18.4 17.3 18.4 17.3 18.4 17.35 18.35 17.4 18.35 17.4 18.3 17.45 18.3 17.45 18.25 17.5 18.25 17.55 18.2 17.55 18.2 17.6 18.15 17.6 18.15 17.65 18.1 17.65 18.1 17.65 18.05 17.7 18.0 17.7 18.0 17.7 17.95 17.7 17.9 17.7 17.9 17.75 17.85 17.75 17.8 17.75 17.75 17.75 17.75 17.75 17.7 17.75 17.65 17.75 17.65 17.75 17.6 17.75 17.55 17.7 17.5 17.7 17.5 17.7 17.45 17.7 17.4 17.65 17.4 17.65 17.35 17.65 17.3 17.6 17.3 17.6 17.25 17.6 17.25 17.55 17.2 17.55 17.2 17.5 17.15 17.5 17.15 17.45 17.1 17.4 17.1 17.4 17.1 17.35 17.05 17.35 17.05 17.3 17.05 17.25 17.05 17.25 17.0 17.2 17.0 17.15 17.0 17.1 17.0 17.1 17.0 17.05 17.0 17.0 17.0 16.95 17.0 16.95 17.0 16.9 17.0 16.85 17.0 16.85 17.05 16.8 17.05 16.75 17.05 16.75 17.05 16.7 17.1 16.65 17.1 16.65 17.1 16.6 17.15 16.6 17.15 16.55 17.2 16.5 17.2 16.5 17.25 16.45 17.25 16.45 17.3 16.4 17.3 16.4 17.35 16.4 17.4 16.35 17.4 16.35 17.45 16.35 17.5 16.3 17.5 16.3 17.55 16.3 17.6 16.3 17.6 16.3 17.65 16.3 17.7 16.3 17.75 16.3 L17.75 16.3 M24.3 16.3 Q24.35 16.3 24.35 16.3 24.4 16.3 24.45 16.3 24.45 16.3 24.5 16.3 24.55 16.3 24.55 16.35 24.6 16.35 24.65 16.35 24.65 16.4 24.7 16.4 24.7 16.4 24.75 16.45 24.8 16.45 24.8 16.5 24.85 16.55 24.85 16.55 24.9 16.6 24.9 16.6 24.9 16.65 24.95 16.65 24.95 16.7 24.95 16.75 25.0 16.75 25.0 16.8 25.0 16.85 25.0 16.85 25.0 16.9 25.0 16.95 25.0 16.95 25.0 17.0 25.0 17.05 25.0 17.1 25.0 17.1 25.0 17.15 25.0 17.2 25.0 17.2 25.0 17.25 24.95 17.3 24.95 17.3 24.95 17.35 24.9 17.4 24.9 17.4 24.9 17.45 24.85 17.45 24.85 17.5 24.8 17.55 24.8 17.55 24.75 17.6 24.7 17.6 24.7 17.65 24.65 17.65 24.65 17.65 24.6 17.7 24.55 17.7 24.55 17.7 24.5 17.7 24.45 17.7 24.45 17.75 24.4 17.75 24.35 17.75 24.35 17.75 24.3 17.75 24.25 17.75 24.2 17.75 24.2 17.75 24.15 17.75 24.1 17.7 24.05 17.7 24.05 17.7 24.0 17.7 23.95 17.65 23.95 17.65 23.9 17.65 23.9 17.6 23.85 17.6 23.8 17.6 23.8 17.55 23.75 17.55 23.75 17.5 23.7 17.5 23.7 17.45 23.65 17.4 23.65 17.4 23.65 17.35 23.6 17.35 23.6 17.3 23.6 17.25 23.6 17.25 23.6 17.2 23.55 17.15 23.55 17.1 23.55 17.1 23.55 17.05 23.55 17.0 23.55 16.95 23.55 16.95 23.55 16.9 23.55 16.85 23.6 16.85 23.6 16.8 23.6 16.75 23.6 16.75 23.65 16.7 23.65 16.65 23.65 16.65 23.7 16.6 23.7 16.6 23.7 16.55 23.75 16.5 23.75 16.5 23.8 16.45 23.8 16.45 23.85 16.4 23.9 16.4 23.9 16.4 23.95 16.35 23.95 16.35 24.0 16.35 24.05 16.3 24.05 16.3 24.1 16.3 24.15 16.3 24.2 16.3 24.2 16.3 24.25 16.3 24.3 16.3 L24.3 16.3" fill="#ffffff" fill-rule="evenodd" stroke="none"/>
    </g>
  </defs>
</svg>
