<?xml version="1.0" encoding="UTF-8" standalone="no"?>
<svg xmlns:ffdec="https://www.free-decompiler.com/flash" xmlns:xlink="http://www.w3.org/1999/xlink" ffdec:objectType="frame" height="26.05px" width="52.95px" xmlns="http://www.w3.org/2000/svg">
  <g transform="matrix(1.0, 0.0, 0.0, 1.0, 0.0, 0.0)">
    <use ffdec:characterId="1" height="26.0" transform="matrix(1.0, 0.0, 0.0, 1.0, 0.0, 0.0)" width="35.75" xlink:href="#shape0"/>
    <use ffdec:characterId="143" height="12.95" transform="matrix(1.0, 0.0, 0.0, 1.0, 5.45, 7.15)" width="32.45" xlink:href="#shape1"/>
    <use ffdec:characterId="143" height="12.95" transform="matrix(1.0, 0.0, 0.0, 1.0, 4.65, 6.55)" width="32.45" xlink:href="#shape1"/>
  </g>
  <defs>
    <g id="shape0" transform="matrix(1.0, 0.0, 0.0, 1.0, 0.0, 0.0)">
      <path d="M33.7 3.85 L32.9 2.8 Q31.3 1.3 29.15 1.3 L6.6 1.3 Q4.4 1.3 2.8 2.8 1.3 4.4 1.3 6.6 L1.3 19.4 Q1.3 21.55 2.8 23.15 4.4 24.7 6.6 24.7 L29.15 24.7 Q31.3 24.7 32.9 23.15 L33.7 22.15 Q34.45 20.9 34.45 19.4 L34.45 6.6 Q34.45 5.05 33.7 3.85 M33.8 1.95 Q35.75 3.9 35.75 6.6 L35.75 19.4 Q35.75 22.15 33.8 24.05 L33.7 24.15 Q31.85 26.0 29.15 26.0 L6.6 26.0 Q3.9 26.0 1.95 24.05 0.0 22.15 0.0 19.4 L0.0 6.6 Q0.0 3.9 1.95 1.95 3.9 0.0 6.6 0.0 L29.15 0.0 Q31.85 0.0 33.7 1.85 L33.8 1.95" fill="#000000" fill-opacity="0.0" fill-rule="evenodd" stroke="none"/>
      <path d="M34.45 6.6 L34.45 19.4 Q34.45 20.9 33.7 22.15 L32.9 23.15 Q31.3 24.7 29.15 24.7 L6.6 24.7 Q4.4 24.7 2.8 23.15 1.3 21.55 1.3 19.4 L1.3 6.6 Q1.3 4.4 2.8 2.8 4.4 1.3 6.6 1.3 L29.15 1.3 Q31.3 1.3 32.9 2.8 L33.7 3.85 Q34.45 5.05 34.45 6.6 M31.75 4.0 Q30.65 2.9 29.15 2.9 L6.6 2.9 Q5.1 2.9 4.0 4.0 2.95 5.1 2.95 6.6 L2.95 19.4 Q2.95 20.9 4.0 22.0 5.1 23.05 6.6 23.05 L29.15 23.05 Q30.6 23.05 31.75 22.0 32.8 20.85 32.8 19.4 L32.8 6.6 Q32.8 5.1 31.75 4.0" fill="#a6a8ab" fill-opacity="0.0" fill-rule="evenodd" stroke="none"/>
      <path d="M32.8 6.6 L32.8 19.4 Q32.8 20.85 31.75 22.0 30.6 23.05 29.15 23.05 L6.6 23.05 Q5.1 23.05 4.0 22.0 2.95 20.9 2.95 19.4 L2.95 6.6 Q2.95 5.1 4.0 4.0 5.1 2.9 6.6 2.9 L29.15 2.9 Q30.65 2.9 31.75 4.0 32.8 5.1 32.8 6.6" fill="#000000" fill-opacity="0.0" fill-rule="evenodd" stroke="none"/>
    </g>
    <g id="shape1" transform="matrix(1.0, 0.0, 0.0, 1.0, 0.0, 0.0)">
      <path d="M6.05 0.0 L7.55 0.0 8.75 12.8 7.05 12.8 6.6 3.95 4.95 12.8 3.8 12.8 2.15 3.95 2.1 3.95 1.65 12.8 0.0 12.8 1.05 0.0 2.5 0.0 4.35 9.25 4.4 9.25 4.45 8.7 6.05 0.0 M13.8 4.5 L14.6 5.6 14.95 7.05 15.05 8.55 14.95 10.0 14.6 11.4 13.8 12.5 Q13.25 12.9 12.35 12.95 11.45 12.9 10.9 12.5 L10.05 11.4 9.7 10.0 9.65 8.55 9.7 7.05 Q9.8 6.3 10.05 5.6 L10.9 4.5 Q11.45 4.1 12.35 4.1 13.25 4.1 13.8 4.5 M13.05 5.9 Q12.8 5.55 12.35 5.55 11.9 5.55 11.65 5.9 L11.35 6.8 11.25 7.8 11.3 8.55 11.25 9.25 11.35 10.25 11.65 11.1 Q11.9 11.45 12.35 11.5 L13.05 11.1 13.35 10.25 13.4 9.25 13.4 8.55 13.4 7.8 13.35 6.8 13.05 5.9 M21.4 10.0 L21.2 11.55 20.4 12.6 18.9 12.95 Q17.75 12.95 17.2 12.55 16.6 12.15 16.4 11.4 16.25 10.65 16.25 9.7 L16.25 4.2 17.85 4.2 17.85 9.6 17.85 10.45 Q17.9 10.85 18.1 11.15 18.3 11.45 18.85 11.5 L19.55 11.2 19.75 10.5 19.8 9.7 19.8 4.2 21.4 4.2 21.4 10.0 M26.1 4.45 L26.1 5.95 25.5 5.65 24.9 5.5 Q24.45 5.5 24.15 5.75 23.8 6.0 23.8 6.45 23.85 6.95 24.25 7.3 L25.15 8.05 26.05 8.95 Q26.45 9.5 26.5 10.4 26.45 11.55 25.85 12.25 25.2 12.9 24.05 12.95 L23.3 12.85 22.65 12.55 22.65 10.95 23.25 11.35 23.95 11.5 24.75 11.2 25.0 10.45 24.75 9.65 24.1 9.05 23.3 8.45 22.6 7.6 22.35 6.45 Q22.35 5.4 23.0 4.75 23.6 4.1 24.65 4.1 L25.4 4.15 26.1 4.45 M30.8 7.05 L30.7 6.35 30.4 5.75 Q30.2 5.5 29.85 5.5 29.5 5.5 29.3 5.75 L29.0 6.35 28.95 7.05 28.95 7.7 30.85 7.7 30.8 7.05 M31.25 4.55 Q31.75 4.95 32.05 5.65 L32.4 7.1 32.45 8.55 32.45 8.8 28.95 8.8 28.95 9.55 29.05 10.45 29.35 11.2 Q29.55 11.5 29.95 11.5 L30.55 11.25 30.85 10.65 30.95 9.9 32.4 9.9 32.15 11.4 31.35 12.5 Q30.8 12.9 29.9 12.95 29.0 12.9 28.5 12.5 27.95 12.1 27.7 11.45 L27.35 10.0 27.3 8.55 27.35 7.15 Q27.45 6.35 27.7 5.65 27.95 4.95 28.45 4.55 29.0 4.1 29.85 4.1 30.75 4.1 31.25 4.55" fill="#000000" fill-opacity="0.0" fill-rule="evenodd" stroke="none"/>
    </g>
  </defs>
</svg>
