<?xml version="1.0" encoding="UTF-8" standalone="no"?>
<svg xmlns:ffdec="https://www.free-decompiler.com/flash" xmlns:xlink="http://www.w3.org/1999/xlink" ffdec:objectType="frame" height="26.05px" width="52.95px" xmlns="http://www.w3.org/2000/svg">
  <g transform="matrix(1.0, 0.0, 0.0, 1.0, 0.0, 0.0)">
    <use ffdec:characterId="3" height="26.0" transform="matrix(1.0, 0.0, 0.0, 1.0, 0.0, 0.0)" width="26.0" xlink:href="#shape0"/>
    <use ffdec:characterId="53" height="5.35" transform="matrix(1.8318, 0.0, 0.0, 1.8318, 9.0, 5.6)" width="1.25" xlink:href="#shape1"/>
    <use ffdec:characterId="53" height="5.35" transform="matrix(1.8318, 0.0, 0.0, 1.8318, 8.2, 5.0)" width="1.25" xlink:href="#shape1"/>
    <use ffdec:characterId="54" height="11.85" transform="matrix(1.0, 0.0, 0.0, 1.0, 16.15, 9.7)" width="2.6" xlink:href="#shape2"/>
    <use ffdec:characterId="192" height="26.0" transform="matrix(1.0, 0.0, 0.0, 1.0, 0.0, 0.0)" width="26.0" xlink:href="#shape3"/>
  </g>
  <defs>
    <g id="shape0" transform="matrix(1.0, 0.0, 0.0, 1.0, 0.0, 0.0)">
      <path d="M22.0 4.0 Q23.05 5.1 23.05 6.6 L23.05 19.4 Q23.05 20.85 22.0 22.0 20.85 23.05 19.4 23.05 L6.6 23.05 Q5.1 23.05 4.0 22.0 2.95 20.9 2.95 19.4 L2.95 6.6 Q2.95 5.1 4.0 4.0 5.1 2.9 6.6 2.9 L19.4 2.9 Q20.9 2.9 22.0 4.0 M26.0 6.6 L26.0 19.4 Q26.0 22.15 24.05 24.05 L23.95 24.15 Q22.1 26.0 19.4 26.0 L6.6 26.0 Q3.9 26.0 1.95 24.05 0.0 22.15 0.0 19.4 L0.0 6.6 Q0.0 3.9 1.95 1.95 3.9 0.0 6.6 0.0 L19.4 0.0 Q22.1 0.0 23.95 1.85 L24.05 1.95 Q26.0 3.9 26.0 6.6 M23.95 3.85 L23.15 2.8 Q21.55 1.3 19.4 1.3 L6.6 1.3 Q4.4 1.3 2.8 2.8 1.3 4.4 1.3 6.6 L1.3 19.4 Q1.3 21.55 2.8 23.15 4.4 24.7 6.6 24.7 L19.4 24.7 Q21.55 24.7 23.15 23.15 L23.95 22.15 Q24.7 20.9 24.7 19.4 L24.7 6.6 Q24.7 5.05 23.95 3.85" fill="#000000" fill-opacity="0.0" fill-rule="evenodd" stroke="none"/>
      <path d="M22.0 4.0 Q20.9 2.9 19.4 2.9 L6.6 2.9 Q5.1 2.9 4.0 4.0 2.95 5.1 2.95 6.6 L2.95 19.4 Q2.95 20.9 4.0 22.0 5.1 23.05 6.6 23.05 L19.4 23.05 Q20.85 23.05 22.0 22.0 23.05 20.85 23.05 19.4 L23.05 6.6 Q23.05 5.1 22.0 4.0 M23.95 3.85 Q24.7 5.05 24.7 6.6 L24.7 19.4 Q24.7 20.9 23.95 22.15 L23.15 23.15 Q21.55 24.7 19.4 24.7 L6.6 24.7 Q4.4 24.7 2.8 23.15 1.3 21.55 1.3 19.4 L1.3 6.6 Q1.3 4.4 2.8 2.8 4.4 1.3 6.6 1.3 L19.4 1.3 Q21.55 1.3 23.15 2.8 L23.95 3.85" fill="#a6a8ab" fill-opacity="0.0" fill-rule="evenodd" stroke="none"/>
    </g>
    <g id="shape1" transform="matrix(1.0, 0.0, 0.0, 1.0, 0.0, 0.0)">
      <path d="M0.65 5.35 Q0.35 5.35 0.2 5.15 L0.0 4.7 0.2 4.3 Q0.35 4.1 0.65 4.1 L1.05 4.3 1.25 4.7 1.05 5.15 Q0.9 5.35 0.65 5.35 M0.0 0.6 L0.2 0.2 Q0.35 0.0 0.65 0.0 L1.05 0.2 1.25 0.6 1.05 1.05 Q0.9 1.25 0.65 1.25 0.35 1.25 0.2 1.05 L0.0 0.6" fill="#000000" fill-opacity="0.0" fill-rule="evenodd" stroke="none"/>
    </g>
    <g id="shape2" transform="matrix(1.0, 0.0, 0.0, 1.0, 0.0, 0.0)">
      <path d="M2.55 7.3 L0.9 11.85 0.0 11.6 1.15 6.9 2.55 7.3 M0.6 1.0 Q0.6 0.55 0.9 0.3 1.15 0.0 1.6 0.0 2.05 0.0 2.3 0.3 L2.6 1.0 2.3 1.75 Q2.05 2.05 1.6 2.05 1.15 2.05 0.9 1.75 0.6 1.45 0.6 1.0" fill="#000000" fill-opacity="0.0" fill-rule="evenodd" stroke="none"/>
    </g>
    <g id="shape3" transform="matrix(1.0, 0.0, 0.0, 1.0, 0.0, 0.0)">
      <path d="M4.0 3.0 Q3.9 3.0 3.8 3.0 3.7 3.05 3.6 3.1 3.5 3.1 3.45 3.15 3.35 3.2 3.3 3.3 3.2 3.35 3.15 3.45 3.1 3.5 3.1 3.6 3.05 3.7 3.0 3.8 3.0 3.9 3.0 4.0 L3.0 22.0 Q3.0 22.1 3.0 22.2 3.05 22.3 3.1 22.4 3.1 22.5 3.15 22.55 3.2 22.65 3.3 22.7 3.35 22.8 3.45 22.85 3.5 22.9 3.6 22.9 3.7 22.95 3.8 23.0 3.9 23.0 4.0 23.0 L22.0 23.0 Q22.1 23.0 22.2 23.0 22.3 22.95 22.4 22.9 22.5 22.9 22.55 22.85 22.65 22.8 22.7 22.7 22.8 22.65 22.85 22.55 22.9 22.5 22.9 22.4 22.95 22.3 23.0 22.2 23.0 22.1 23.0 22.0 L23.0 4.0 Q23.0 3.9 23.0 3.8 22.95 3.7 22.9 3.6 22.9 3.5 22.85 3.45 22.8 3.35 22.7 3.3 22.65 3.2 22.55 3.15 22.5 3.1 22.4 3.1 22.3 3.05 22.2 3.0 22.1 3.0 22.0 3.0 L4.0 3.0 4.0 3.0 M13.45 12.0 Q13.5 12.0 13.55 12.0 13.55 12.0 13.6 12.05 13.65 12.05 13.7 12.05 13.7 12.05 13.75 12.05 13.8 12.1 13.8 12.1 13.85 12.1 13.9 12.15 13.9 12.15 13.95 12.2 13.95 12.2 14.0 12.25 14.0 12.25 14.05 12.3 14.05 12.35 14.1 12.35 14.1 12.4 14.1 12.4 14.15 12.45 14.15 12.5 14.15 12.5 14.15 12.55 14.2 12.55 14.2 12.6 14.2 12.65 14.2 12.7 14.2 12.7 14.2 12.75 14.2 12.8 14.2 12.85 14.2 12.85 14.2 12.9 14.2 12.95 14.15 12.95 14.15 13.0 14.15 13.05 14.15 13.05 14.1 13.1 14.1 13.15 14.1 13.15 14.05 13.2 14.05 13.2 14.0 13.25 14.0 13.3 13.95 13.3 13.95 13.35 13.9 13.35 13.9 13.4 13.85 13.4 13.8 13.4 13.8 13.45 13.75 13.45 13.75 13.45 13.7 13.45 13.65 13.45 13.6 13.45 13.6 13.5 13.55 13.5 13.5 13.5 13.45 13.5 13.4 13.5 13.4 13.5 13.35 13.5 13.3 13.5 13.3 13.45 13.25 13.45 13.2 13.45 13.2 13.45 13.15 13.4 13.1 13.4 13.1 13.4 13.05 13.35 13.05 13.35 13.0 13.35 13.0 13.3 12.95 13.3 12.9 13.25 12.9 13.25 12.9 13.2 12.85 13.15 12.85 13.15 12.85 13.1 12.8 13.1 12.8 13.05 12.8 13.0 12.75 12.95 12.75 12.95 12.75 12.9 12.75 12.85 12.75 12.85 12.75 12.8 12.75 12.75 12.75 12.7 12.75 12.7 12.75 12.65 12.75 12.6 12.75 12.55 12.75 12.55 12.8 12.5 12.8 12.45 12.8 12.45 12.85 12.4 12.85 12.4 12.85 12.35 12.9 12.3 12.9 12.3 12.95 12.25 12.95 12.25 13.0 12.2 13.0 12.2 13.05 12.15 13.05 12.15 13.1 12.15 13.15 12.1 13.15 12.1 13.2 12.1 13.2 12.05 13.25 12.05 13.3 12.05 13.35 12.05 13.35 12.05 13.4 12.05 13.45 12.0 13.45 12.0 L13.45 12.0 M12.95 15.95 L14.0 16.3 12.5 19.55 11.8 19.3 12.95 15.95 12.95 15.95" fill="#ffffff" fill-rule="evenodd" stroke="none"/>
    </g>
  </defs>
</svg>
