<?xml version="1.0" encoding="UTF-8" standalone="no"?>
<svg xmlns:ffdec="https://www.free-decompiler.com/flash" xmlns:xlink="http://www.w3.org/1999/xlink" ffdec:objectType="frame" height="26.05px" width="52.95px" xmlns="http://www.w3.org/2000/svg">
  <g transform="matrix(1.0, 0.0, 0.0, 1.0, 0.0, 0.0)">
    <use ffdec:characterId="3" height="26.0" transform="matrix(1.0, 0.0, 0.0, 1.0, 0.0, 0.0)" width="26.0" xlink:href="#shape0"/>
    <use ffdec:characterId="10" height="9.1" transform="matrix(1.0769, 0.0, 0.0, 1.0769, 7.8, 5.6)" width="3.65" xlink:href="#shape1"/>
    <use ffdec:characterId="10" height="9.1" transform="matrix(1.0769, 0.0, 0.0, 1.0769, 7.0, 5.0)" width="3.65" xlink:href="#shape1"/>
    <use ffdec:characterId="11" height="12.8" transform="matrix(1.0, 0.0, 0.0, 1.0, 14.35, 8.4)" width="5.9" xlink:href="#shape2"/>
    <use ffdec:characterId="158" height="26.0" transform="matrix(1.0, 0.0, 0.0, 1.0, 0.0, 0.0)" width="26.0" xlink:href="#shape3"/>
  </g>
  <defs>
    <g id="shape0" transform="matrix(1.0, 0.0, 0.0, 1.0, 0.0, 0.0)">
      <path d="M22.0 4.0 Q23.05 5.1 23.05 6.6 L23.05 19.4 Q23.05 20.85 22.0 22.0 20.85 23.05 19.4 23.05 L6.6 23.05 Q5.1 23.05 4.0 22.0 2.95 20.9 2.95 19.4 L2.95 6.6 Q2.95 5.1 4.0 4.0 5.1 2.9 6.6 2.9 L19.4 2.9 Q20.9 2.9 22.0 4.0 M26.0 6.6 L26.0 19.4 Q26.0 22.15 24.05 24.05 L23.95 24.15 Q22.1 26.0 19.4 26.0 L6.6 26.0 Q3.9 26.0 1.95 24.05 0.0 22.15 0.0 19.4 L0.0 6.6 Q0.0 3.9 1.95 1.95 3.9 0.0 6.6 0.0 L19.4 0.0 Q22.1 0.0 23.95 1.85 L24.05 1.95 Q26.0 3.9 26.0 6.6 M23.95 3.85 L23.15 2.8 Q21.55 1.3 19.4 1.3 L6.6 1.3 Q4.4 1.3 2.8 2.8 1.3 4.4 1.3 6.6 L1.3 19.4 Q1.3 21.55 2.8 23.15 4.4 24.7 6.6 24.7 L19.4 24.7 Q21.55 24.7 23.15 23.15 L23.95 22.15 Q24.7 20.9 24.7 19.4 L24.7 6.6 Q24.7 5.05 23.95 3.85" fill="#000000" fill-opacity="0.0" fill-rule="evenodd" stroke="none"/>
      <path d="M22.0 4.0 Q20.9 2.9 19.4 2.9 L6.6 2.9 Q5.1 2.9 4.0 4.0 2.95 5.1 2.95 6.6 L2.95 19.4 Q2.95 20.9 4.0 22.0 5.1 23.05 6.6 23.05 L19.4 23.05 Q20.85 23.05 22.0 22.0 23.05 20.85 23.05 19.4 L23.05 6.6 Q23.05 5.1 22.0 4.0 M23.95 3.85 Q24.7 5.05 24.7 6.6 L24.7 19.4 Q24.7 20.9 23.95 22.15 L23.15 23.15 Q21.55 24.7 19.4 24.7 L6.6 24.7 Q4.4 24.7 2.8 23.15 1.3 21.55 1.3 19.4 L1.3 6.6 Q1.3 4.4 2.8 2.8 4.4 1.3 6.6 1.3 L19.4 1.3 Q21.55 1.3 23.15 2.8 L23.95 3.85" fill="#a6a8ab" fill-opacity="0.0" fill-rule="evenodd" stroke="none"/>
    </g>
    <g id="shape1" transform="matrix(1.0, 0.0, 0.0, 1.0, 0.0, 0.0)">
      <path d="M2.05 0.0 L2.05 0.7 3.0 1.0 3.55 1.8 2.75 2.3 2.45 1.75 1.85 1.55 Q1.4 1.55 1.2 1.85 L1.0 2.55 Q1.0 2.95 1.15 3.2 L1.6 3.65 2.25 4.1 3.05 4.65 3.5 5.25 3.65 6.25 3.55 7.25 3.0 8.0 Q2.7 8.35 2.05 8.4 L2.05 9.1 1.6 9.1 1.6 8.4 0.65 8.05 0.1 7.25 0.95 6.85 1.25 7.35 Q1.45 7.55 1.8 7.55 L2.3 7.4 2.6 6.95 2.65 6.4 2.55 5.7 2.15 5.3 1.6 4.95 Q1.1 4.65 0.75 4.35 L0.2 3.6 0.0 2.6 0.2 1.7 0.7 1.0 Q1.05 0.7 1.6 0.7 L1.6 0.0 2.05 0.0" fill="#000000" fill-opacity="0.0" fill-rule="evenodd" stroke="none"/>
    </g>
    <g id="shape2" transform="matrix(1.0, 0.0, 0.0, 1.0, 0.0, 0.0)">
      <path d="M3.45 2.6 L3.4 2.6 1.35 8.0 3.45 8.0 3.45 2.6 M3.45 0.0 L5.1 0.0 5.1 8.0 5.9 8.0 5.9 9.3 5.1 9.3 5.1 12.8 3.45 12.8 3.45 9.3 0.0 9.3 0.0 7.8 3.45 0.0" fill="#000000" fill-opacity="0.0" fill-rule="evenodd" stroke="none"/>
    </g>
    <g id="shape3" transform="matrix(1.0, 0.0, 0.0, 1.0, 0.0, 0.0)">
      <path d="M4.0 3.0 Q3.9 3.0 3.8 3.0 3.7 3.05 3.6 3.1 3.5 3.1 3.45 3.15 3.35 3.2 3.3 3.3 3.2 3.35 3.15 3.45 3.1 3.5 3.1 3.6 3.05 3.7 3.0 3.8 3.0 3.9 3.0 4.0 L3.0 22.0 Q3.0 22.1 3.0 22.2 3.05 22.3 3.1 22.4 3.1 22.5 3.15 22.55 3.2 22.65 3.3 22.7 3.35 22.8 3.45 22.85 3.5 22.9 3.6 22.9 3.7 22.95 3.8 23.0 3.9 23.0 4.0 23.0 L22.0 23.0 Q22.1 23.0 22.2 23.0 22.3 22.95 22.4 22.9 22.5 22.9 22.55 22.85 22.65 22.8 22.7 22.7 22.8 22.65 22.85 22.55 22.9 22.5 22.9 22.4 22.95 22.3 23.0 22.2 23.0 22.1 23.0 22.0 L23.0 4.0 Q23.0 3.9 23.0 3.8 22.95 3.7 22.9 3.6 22.9 3.5 22.85 3.45 22.8 3.35 22.7 3.3 22.65 3.2 22.55 3.15 22.5 3.1 22.4 3.1 22.3 3.05 22.2 3.0 22.1 3.0 22.0 3.0 L4.0 3.0 4.0 3.0 M14.65 8.4 L15.1 8.4 15.1 14.7 16.15 14.7 16.15 15.55 15.1 15.55 15.1 17.5 14.05 17.5 14.05 15.55 9.85 15.55 14.65 8.4 14.65 8.4 M14.05 10.75 L11.4 14.7 14.05 14.7 14.05 10.75 14.05 10.75" fill="#ffffff" fill-rule="evenodd" stroke="none"/>
    </g>
  </defs>
</svg>
