<?xml version="1.0" encoding="UTF-8" standalone="no"?>
<svg xmlns:ffdec="https://www.free-decompiler.com/flash" xmlns:xlink="http://www.w3.org/1999/xlink" ffdec:objectType="frame" height="26.05px" width="52.95px" xmlns="http://www.w3.org/2000/svg">
  <g transform="matrix(1.0, 0.0, 0.0, 1.0, 0.0, 0.0)">
    <use ffdec:characterId="1" height="26.0" transform="matrix(1.0, 0.0, 0.0, 1.0, 0.0, 0.0)" width="35.75" xlink:href="#shape0"/>
    <use ffdec:characterId="94" height="12.8" transform="matrix(1.0, 0.0, 0.0, 1.0, 10.1, 7.2)" width="17.1" xlink:href="#shape1"/>
    <use ffdec:characterId="227" height="26.0" transform="matrix(1.0, 0.0, 0.0, 1.0, 0.0, 0.0)" width="35.75" xlink:href="#shape2"/>
  </g>
  <defs>
    <g id="shape0" transform="matrix(1.0, 0.0, 0.0, 1.0, 0.0, 0.0)">
      <path d="M33.7 3.85 L32.9 2.8 Q31.3 1.3 29.15 1.3 L6.6 1.3 Q4.4 1.3 2.8 2.8 1.3 4.4 1.3 6.6 L1.3 19.4 Q1.3 21.55 2.8 23.15 4.4 24.7 6.6 24.7 L29.15 24.7 Q31.3 24.7 32.9 23.15 L33.7 22.15 Q34.45 20.9 34.45 19.4 L34.45 6.6 Q34.45 5.05 33.7 3.85 M33.8 1.95 Q35.75 3.9 35.75 6.6 L35.75 19.4 Q35.75 22.15 33.8 24.05 L33.7 24.15 Q31.85 26.0 29.15 26.0 L6.6 26.0 Q3.9 26.0 1.95 24.05 0.0 22.15 0.0 19.4 L0.0 6.6 Q0.0 3.9 1.95 1.95 3.9 0.0 6.6 0.0 L29.15 0.0 Q31.85 0.0 33.7 1.85 L33.8 1.95" fill="#000000" fill-opacity="0.0" fill-rule="evenodd" stroke="none"/>
      <path d="M34.45 6.6 L34.45 19.4 Q34.45 20.9 33.7 22.15 L32.9 23.15 Q31.3 24.7 29.15 24.7 L6.6 24.7 Q4.4 24.7 2.8 23.15 1.3 21.55 1.3 19.4 L1.3 6.6 Q1.3 4.4 2.8 2.8 4.4 1.3 6.6 1.3 L29.15 1.3 Q31.3 1.3 32.9 2.8 L33.7 3.85 Q34.45 5.05 34.45 6.6 M31.75 4.0 Q30.65 2.9 29.15 2.9 L6.6 2.9 Q5.1 2.9 4.0 4.0 2.95 5.1 2.95 6.6 L2.95 19.4 Q2.95 20.9 4.0 22.0 5.1 23.05 6.6 23.05 L29.15 23.05 Q30.6 23.05 31.75 22.0 32.8 20.85 32.8 19.4 L32.8 6.6 Q32.8 5.1 31.75 4.0" fill="#a6a8ab" fill-opacity="0.0" fill-rule="evenodd" stroke="none"/>
      <path d="M32.8 6.6 L32.8 19.4 Q32.8 20.85 31.75 22.0 30.6 23.05 29.15 23.05 L6.6 23.05 Q5.1 23.05 4.0 22.0 2.95 20.9 2.95 19.4 L2.95 6.6 Q2.95 5.1 4.0 4.0 5.1 2.9 6.6 2.9 L29.15 2.9 Q30.65 2.9 31.75 4.0 32.8 5.1 32.8 6.6" fill="#000000" fill-opacity="0.0" fill-rule="evenodd" stroke="none"/>
    </g>
    <g id="shape1" transform="matrix(1.0, 0.0, 0.0, 1.0, 0.0, 0.0)">
      <path d="M11.15 5.2 Q11.55 4.65 11.55 3.55 L11.4 2.5 10.95 1.7 9.95 1.45 9.7 1.45 9.7 5.7 Q10.75 5.75 11.15 5.2 M11.15 0.05 L12.25 0.45 13.05 1.5 13.35 3.4 Q13.35 5.35 12.5 6.3 11.65 7.2 9.7 7.1 L9.7 12.8 8.0 12.8 8.0 0.0 10.05 0.0 11.15 0.05 M14.1 9.05 L14.1 7.75 17.1 7.75 17.1 9.05 14.1 9.05 M4.65 9.7 L4.25 0.0 5.95 0.0 5.95 12.8 4.35 12.8 1.35 2.9 1.7 12.8 0.0 12.8 0.0 0.0 1.6 0.0 4.6 9.7 4.65 9.7" fill="#000000" fill-opacity="0.0" fill-rule="evenodd" stroke="none"/>
    </g>
    <g id="shape2" transform="matrix(1.0, 0.0, 0.0, 1.0, 0.0, 0.0)">
      <path d="M4.0 3.0 Q3.9 3.0 3.8 3.0 3.7 3.05 3.6 3.1 3.5 3.1 3.45 3.15 3.35 3.2 3.3 3.3 3.2 3.35 3.15 3.45 3.1 3.5 3.1 3.6 3.05 3.7 3.0 3.8 3.0 3.9 3.0 4.0 L3.0 22.0 Q3.0 22.1 3.0 22.2 3.05 22.3 3.1 22.4 3.1 22.5 3.15 22.55 3.2 22.65 3.3 22.7 3.35 22.8 3.45 22.85 3.5 22.9 3.6 22.9 3.7 22.95 3.8 23.0 3.9 23.0 4.0 23.0 L31.75 23.0 Q31.85 23.0 31.95 23.0 32.05 22.95 32.15 22.9 32.25 22.9 32.3 22.85 32.4 22.8 32.45 22.7 32.55 22.65 32.6 22.55 32.65 22.5 32.65 22.4 32.7 22.3 32.75 22.2 32.75 22.1 32.75 22.0 L32.75 4.0 Q32.75 3.9 32.75 3.8 32.7 3.7 32.65 3.6 32.65 3.5 32.6 3.45 32.55 3.35 32.45 3.3 32.4 3.2 32.3 3.15 32.25 3.1 32.15 3.1 32.05 3.05 31.95 3.0 31.85 3.0 31.75 3.0 L4.0 3.0 4.0 3.0 M9.05 8.15 L15.65 15.35 15.65 8.5 16.7 8.5 16.7 17.85 10.1 10.75 10.1 17.5 9.05 17.5 9.05 8.15 9.05 8.15 M18.85 8.5 L20.7 8.5 Q20.85 8.5 20.95 8.5 21.05 8.5 21.15 8.5 21.3 8.5 21.4 8.5 21.5 8.5 21.6 8.55 21.65 8.55 21.75 8.55 21.85 8.55 21.9 8.55 22.0 8.55 22.05 8.6 22.1 8.6 22.2 8.6 22.25 8.6 22.3 8.65 22.35 8.65 22.4 8.65 22.45 8.7 22.5 8.7 22.55 8.7 22.6 8.75 22.65 8.75 22.7 8.8 22.75 8.8 22.8 8.85 22.85 8.85 22.9 8.9 22.95 8.9 23.0 8.95 23.05 9.0 23.1 9.05 23.15 9.05 23.2 9.1 23.25 9.15 23.3 9.2 23.35 9.25 23.35 9.3 23.4 9.35 23.45 9.4 23.5 9.5 23.5 9.55 23.55 9.6 23.6 9.65 23.65 9.7 23.65 9.8 23.7 9.85 23.7 9.95 23.75 10.0 23.75 10.05 23.8 10.15 23.8 10.2 23.8 10.3 23.85 10.35 23.85 10.45 23.85 10.5 23.9 10.6 23.9 10.65 23.9 10.75 23.9 10.8 23.9 10.9 23.9 11.0 23.9 11.1 23.9 11.15 23.9 11.25 23.9 11.3 23.9 11.4 23.85 11.45 23.85 11.55 23.85 11.6 23.85 11.7 23.8 11.75 23.8 11.8 23.75 11.9 23.75 11.95 23.7 12.05 23.7 12.1 23.65 12.15 23.6 12.2 23.6 12.3 23.55 12.35 23.5 12.4 23.5 12.45 23.45 12.55 23.4 12.6 23.35 12.65 23.35 12.7 23.3 12.75 23.25 12.8 23.2 12.85 23.15 12.9 23.1 12.95 23.05 12.95 23.0 13.0 22.95 13.05 22.9 13.05 22.85 13.1 22.8 13.1 22.75 13.15 22.7 13.15 22.65 13.2 22.6 13.2 22.55 13.25 22.5 13.25 22.45 13.3 22.4 13.3 22.35 13.3 22.3 13.35 22.25 13.35 22.2 13.35 22.15 13.35 22.05 13.4 22.0 13.4 21.9 13.4 21.85 13.4 21.75 13.4 21.7 13.45 21.6 13.45 21.5 13.45 21.4 13.45 21.3 13.45 21.2 13.45 21.1 13.45 20.95 13.45 20.85 13.45 20.7 13.45 L20.4 13.45 19.9 13.45 19.9 17.5 18.85 17.5 18.85 8.5 18.85 8.5 M19.9 9.5 L19.9 12.5 20.4 12.5 Q20.6 12.5 20.75 12.5 20.9 12.5 21.05 12.45 21.2 12.45 21.3 12.45 21.45 12.45 21.55 12.4 21.7 12.4 21.8 12.35 21.9 12.35 21.95 12.3 22.05 12.3 22.15 12.25 22.2 12.2 22.25 12.15 22.3 12.1 22.35 12.05 22.4 12.0 22.45 11.95 22.5 11.9 22.55 11.85 22.6 11.8 22.6 11.7 22.65 11.65 22.7 11.55 22.7 11.5 22.7 11.4 22.75 11.35 22.75 11.25 22.75 11.15 22.75 11.05 22.75 10.95 22.75 10.85 22.75 10.75 22.7 10.65 22.7 10.55 22.7 10.45 22.65 10.4 22.6 10.3 22.6 10.25 22.55 10.15 22.5 10.1 22.45 10.05 22.4 10.0 22.35 9.9 22.3 9.85 22.25 9.85 22.2 9.8 22.1 9.75 22.05 9.7 21.95 9.7 21.85 9.65 21.75 9.6 21.65 9.6 21.55 9.55 21.45 9.55 21.3 9.55 21.2 9.5 21.05 9.5 20.9 9.5 20.75 9.5 20.6 9.5 20.4 9.5 L19.9 9.5 19.9 9.5 M23.8 14.2 L26.7 14.2 26.7 15.2 23.8 15.2 23.8 14.2 23.8 14.2" fill="#ffffff" fill-rule="evenodd" stroke="none"/>
    </g>
  </defs>
</svg>
