<?xml version="1.0" encoding="UTF-8" standalone="no"?>
<svg xmlns:ffdec="https://www.free-decompiler.com/flash" xmlns:xlink="http://www.w3.org/1999/xlink" ffdec:objectType="shape" height="26.0px" width="26.0px" xmlns="http://www.w3.org/2000/svg">
  <g transform="matrix(1.0, 0.0, 0.0, 1.0, 0.0, 0.0)">
    <path d="M11.1 6.2 Q10.8 5.9 10.45 5.7 10.15 5.5 9.85 5.4 9.55 5.3 9.25 5.25 9.0 5.25 8.75 5.25 8.5 5.25 8.3 5.3 8.1 5.35 7.95 5.4 7.85 5.45 7.75 5.5 7.7 5.5 7.65 5.5 7.4 5.6 7.2 5.75 7.0 5.9 6.85 6.1 6.75 6.25 6.65 6.45 6.55 6.65 6.5 6.8 6.45 7.0 6.4 7.15 6.35 7.3 6.35 7.4 6.35 7.5 6.35 7.6 6.35 7.65 6.35 7.65 6.35 8.0 6.45 8.3 6.5 8.55 6.65 8.8 6.75 9.0 6.85 9.2 7.0 9.35 7.15 9.5 7.3 9.6 7.4 9.65 7.55 9.75 7.65 9.8 7.75 9.85 7.8 9.85 7.85 9.85 7.9 9.85 L8.05 9.85 8.15 9.75 8.25 9.75 8.4 9.6 8.65 9.6 Q8.4 9.85 8.15 10.05 8.55 10.15 8.85 10.25 9.15 10.35 9.4 10.45 9.6 10.55 9.75 10.7 9.9 10.8 10.0 10.95 10.1 11.05 10.15 11.15 10.2 11.25 10.2 11.3 10.2 11.4 10.2 11.45 10.2 11.45 10.2 11.5 10.2 11.65 10.15 11.8 10.05 11.95 9.95 12.05 9.8 12.15 9.65 12.2 9.5 12.25 9.3 12.3 9.15 12.35 9.0 12.35 8.85 12.4 8.7 12.4 8.6 12.4 8.5 12.4 8.45 12.4 8.4 12.4 8.1 12.4 7.9 12.3 7.65 12.25 7.45 12.15 7.3 12.05 7.15 11.95 7.05 11.85 6.9 11.75 6.85 11.65 6.75 11.5 6.7 11.45 6.65 11.35 6.65 11.25 6.6 11.2 6.6 11.2 6.6 11.15 L5.95 11.15 5.95 12.5 Q6.05 12.7 6.25 12.9 6.4 13.05 6.6 13.2 6.8 13.3 7.05 13.4 7.25 13.5 7.45 13.55 7.65 13.6 7.9 13.65 8.05 13.65 8.25 13.7 8.35 13.7 8.45 13.7 8.5 13.7 8.55 13.7 8.85 13.7 9.15 13.7 9.4 13.65 9.65 13.6 9.85 13.55 10.05 13.5 10.2 13.45 10.35 13.35 10.5 13.3 10.6 13.2 10.7 13.15 10.8 13.05 10.85 13.0 10.85 12.95 10.9 12.95 10.9 12.95 11.05 12.8 11.15 12.6 11.25 12.45 11.35 12.3 11.4 12.15 11.45 11.95 11.45 11.85 11.5 11.7 11.5 11.55 11.5 11.45 11.5 11.35 11.5 11.25 11.5 11.15 11.45 11.1 11.45 11.1 11.45 11.05 11.4 10.85 11.35 10.65 11.25 10.5 11.15 10.35 11.05 10.2 10.9 10.05 10.75 9.95 10.6 9.85 10.5 9.75 10.35 9.65 10.25 9.55 10.15 9.5 10.05 9.45 10.0 9.45 9.95 9.4 9.95 9.4 9.25 9.05 8.5 8.7 8.3 8.6 8.15 8.5 8.0 8.4 7.85 8.25 7.75 8.15 7.7 8.05 7.65 7.95 7.6 7.8 7.55 7.75 7.55 7.65 7.55 7.55 7.55 7.45 7.55 7.4 7.55 7.35 7.55 7.35 7.55 7.35 7.6 7.1 7.75 6.9 7.9 6.75 8.05 6.6 8.25 6.5 8.5 6.45 8.7 6.4 8.95 6.45 9.15 6.45 9.4 6.5 9.6 6.6 9.8 6.7 10.0 6.8 10.15 6.95 10.3 7.1 10.4 7.25 L11.1 7.25 11.1 6.2" fill="#f1edf8" fill-rule="evenodd" stroke="none"/>
    <path d="M8.35 13.75 L8.55 14.4 9.2 14.85 9.2 4.65 8.4 4.0 8.15 4.3 8.35 13.75" fill="#f1edf8" fill-rule="evenodd" stroke="none"/>
  </g>
</svg>
