<?xml version="1.0" encoding="UTF-8" standalone="no"?>
<svg xmlns:ffdec="https://www.free-decompiler.com/flash" xmlns:xlink="http://www.w3.org/1999/xlink" ffdec:objectType="shape" height="26.0px" width="26.0px" xmlns="http://www.w3.org/2000/svg">
  <g transform="matrix(1.0, 0.0, 0.0, 1.0, 0.0, 0.0)">
    <path d="M10.25 11.95 L10.35 11.7 9.55 11.55 Q9.55 11.55 9.55 11.55 9.55 11.6 9.55 11.6 9.5 11.65 9.45 11.7 9.4 11.7 9.35 11.75 9.25 11.75 9.1 11.8 8.9 11.8 8.7 11.8 8.45 11.8 8.1 11.75 7.75 11.7 7.35 11.65 7.35 11.65 7.35 11.65 7.3 11.7 7.3 11.7 7.25 11.7 7.25 11.75 7.2 11.75 7.15 11.8 7.05 11.8 7.0 11.8 6.9 11.85 6.85 11.85 6.75 11.9 6.65 11.9 6.55 11.9 6.4 11.9 L6.4 11.0 6.3 11.1 6.2 11.2 6.1 11.1 6.1 11.1 6.05 11.0 6.1 11.05 6.05 11.0 6.1 10.95 6.25 10.95 6.3 10.85 6.45 10.75 6.45 8.95 Q6.45 8.8 6.5 8.7 6.55 8.55 6.65 8.5 6.75 8.4 6.9 8.35 7.0 8.3 7.15 8.25 7.3 8.2 7.45 8.2 7.55 8.2 7.65 8.15 7.75 8.15 7.8 8.15 7.85 8.15 7.9 8.15 L8.9 8.15 Q8.9 8.15 8.95 8.15 9.05 8.15 9.1 8.15 9.2 8.15 9.3 8.2 9.45 8.2 9.55 8.25 9.7 8.25 9.8 8.3 9.95 8.35 10.05 8.4 10.15 8.5 10.25 8.55 10.35 8.65 10.35 8.8 L10.9 8.8 10.9 6.9 6.75 6.9 4.75 6.9 3.95 6.9 3.95 7.8 Q4.1 7.8 4.2 7.9 4.3 7.95 4.4 8.0 4.45 8.1 4.55 8.2 4.6 8.25 4.65 8.35 4.65 8.45 4.7 8.55 4.7 8.65 4.7 8.7 4.75 8.75 4.75 8.8 4.75 8.85 4.75 8.85 L4.75 16.0 Q4.75 16.25 4.7 16.45 4.7 16.65 4.65 16.8 4.6 16.95 4.55 17.05 4.5 17.15 4.45 17.25 4.45 17.3 4.4 17.35 4.35 17.35 4.3 17.4 4.3 17.4 4.25 17.4 4.25 17.4 4.25 17.4 L4.25 18.35 6.95 18.35 6.95 17.4 Q6.85 17.35 6.75 17.3 6.7 17.25 6.65 17.1 6.6 17.05 6.55 16.9 6.5 16.8 6.5 16.65 6.45 16.55 6.45 16.4 6.45 16.3 6.4 16.2 6.4 16.15 6.4 16.05 6.4 16.05 6.4 16.0 L6.4 12.95 8.45 12.9 Q8.45 12.9 8.5 12.9 8.6 12.9 8.7 12.9 8.85 12.85 8.95 12.85 9.15 12.8 9.25 12.75 9.45 12.7 9.6 12.65 9.75 12.6 9.9 12.5 10.05 12.4 10.15 12.25 10.25 12.1 10.25 11.95 L10.25 11.95" fill="#f1edf8" fill-rule="evenodd" stroke="none"/>
    <path d="M11.6 7.75 Q11.45 7.75 11.3 7.8 11.2 7.85 11.15 7.95 11.1 8.05 11.1 8.2 11.1 8.3 11.1 8.45 11.1 8.55 11.15 8.65 11.2 8.8 11.25 8.9 11.25 8.95 11.3 9.05 11.3 9.05 11.35 9.1 11.35 9.05 11.35 8.95 11.4 8.9 11.45 8.9 11.5 8.85 11.55 8.8 11.6 8.8 11.65 8.75 11.7 8.75 11.75 8.75 11.8 8.7 11.85 8.7 11.9 8.7 11.9 8.7 11.95 8.7 11.95 8.7 12.05 8.7 12.15 8.7 12.25 8.75 12.3 8.8 12.35 8.85 12.4 8.9 12.45 8.95 12.5 9.05 12.5 9.15 12.55 9.25 12.55 9.35 12.6 9.5 12.6 9.6 12.6 9.8 12.6 9.9 12.6 10.1 L12.6 15.2 Q12.6 15.35 12.6 15.55 12.6 15.75 12.55 15.9 12.55 16.05 12.5 16.25 12.5 16.4 12.45 16.55 12.4 16.7 12.35 16.8 12.3 16.9 12.25 17.0 12.15 17.1 12.1 17.15 12.0 17.2 11.95 17.2 L11.7 17.2 11.7 18.35 15.0 18.35 15.0 17.2 14.75 17.2 Q14.7 17.2 14.6 17.15 14.55 17.1 14.5 17.0 14.4 16.9 14.35 16.8 14.3 16.7 14.25 16.55 14.25 16.4 14.2 16.25 14.15 16.05 14.15 15.9 14.1 15.75 14.1 15.55 14.1 15.4 14.1 15.2 L14.1 6.9 13.55 6.9 Q13.65 6.85 13.3 7.1 13.15 7.2 13.05 7.3 12.95 7.35 12.85 7.45 12.7 7.5 12.6 7.55 12.5 7.6 12.4 7.65 12.3 7.7 12.2 7.7 12.05 7.75 11.9 7.75 11.8 7.75 11.65 7.75 L11.6 7.75" fill="#f1edf8" fill-rule="evenodd" stroke="none"/>
    <path d="M15.65 9.15 Q15.55 9.45 15.55 9.65 15.6 9.9 15.65 10.1 15.75 10.3 15.85 10.45 16.0 10.55 16.15 10.7 16.25 10.8 16.4 10.85 16.55 10.9 16.65 10.95 16.75 11.0 16.8 11.0 16.9 11.0 16.85 11.0 16.8 10.95 16.8 10.95 16.75 10.9 16.75 10.85 16.75 10.8 16.75 10.75 16.75 10.65 16.75 10.6 16.75 10.55 16.75 10.5 16.75 10.45 16.8 10.4 16.8 10.4 16.8 10.35 16.8 10.35 16.8 10.35 16.9 10.0 17.0 9.75 17.15 9.45 17.3 9.25 17.4 9.05 17.55 8.9 17.7 8.8 17.85 8.7 18.0 8.6 18.15 8.55 18.25 8.5 18.35 8.5 18.45 8.45 18.5 8.45 18.55 8.45 18.55 8.45 18.7 8.45 18.85 8.45 18.95 8.45 19.1 8.5 19.2 8.5 19.3 8.55 19.4 8.55 19.5 8.6 19.55 8.65 19.65 8.65 19.7 8.7 19.75 8.75 19.85 8.8 19.9 8.85 19.95 8.9 20.0 9.0 20.1 9.1 20.2 9.2 20.25 9.35 20.3 9.5 20.35 9.6 20.4 9.75 20.45 9.9 20.45 10.05 20.45 10.2 20.45 10.35 20.45 10.5 20.45 10.6 20.45 10.75 20.4 10.9 20.4 11.05 20.35 11.15 20.25 11.45 19.5 12.65 19.25 13.0 18.5 13.9 18.4 14.0 17.1 15.3 15.65 16.75 15.35 17.1 L15.35 18.35 21.55 18.35 22.0 15.75 20.9 15.75 Q20.85 15.85 20.8 15.95 20.75 16.05 20.7 16.15 20.7 16.2 20.65 16.3 20.6 16.35 20.55 16.4 20.5 16.45 20.45 16.5 20.4 16.55 20.4 16.6 20.35 16.65 20.3 16.7 20.25 16.75 20.2 16.75 20.15 16.8 20.1 16.8 20.05 16.85 20.0 16.85 19.95 16.9 19.85 16.9 19.8 16.95 19.7 16.95 19.6 16.95 19.55 16.95 19.45 17.0 19.35 17.0 19.25 17.0 19.2 17.0 19.1 17.0 19.0 17.0 L17.85 17.0 Q18.0 16.85 18.65 16.15 L20.25 14.25 Q20.3 14.2 20.35 14.1 20.45 14.0 20.55 13.9 20.7 13.7 20.8 13.55 20.95 13.35 21.1 13.15 21.25 12.95 21.4 12.75 21.55 12.5 21.65 12.25 21.75 12.05 21.85 11.8 21.95 11.55 22.0 11.35 22.05 11.2 22.05 11.0 22.05 10.8 22.05 10.55 22.05 10.35 22.05 10.1 22.05 9.85 22.0 9.65 21.95 9.4 21.9 9.15 21.8 8.9 21.75 8.7 21.65 8.5 21.5 8.3 21.35 8.1 21.2 7.95 21.1 7.85 20.95 7.75 20.8 7.65 20.65 7.55 20.5 7.45 20.35 7.35 20.2 7.3 20.05 7.2 19.9 7.15 19.7 7.1 19.55 7.05 19.4 7.0 19.2 6.95 19.05 6.95 18.9 6.95 18.7 6.95 18.35 6.95 18.1 7.0 17.8 7.0 17.55 7.1 17.3 7.15 17.05 7.3 16.85 7.4 16.65 7.55 16.45 7.7 16.3 7.85 16.15 8.05 16.05 8.25 15.9 8.45 15.8 8.65 15.7 8.9 15.65 9.15 L15.65 9.15" fill="#f1edf8" fill-rule="evenodd" stroke="none"/>
  </g>
</svg>
