<?xml version="1.0" encoding="UTF-8" standalone="no"?>
<svg xmlns:ffdec="https://www.free-decompiler.com/flash" xmlns:xlink="http://www.w3.org/1999/xlink" ffdec:objectType="shape" height="26.0px" width="35.75px" xmlns="http://www.w3.org/2000/svg">
  <g transform="matrix(1.0, 0.0, 0.0, 1.0, 0.0, 0.0)">
    <path d="M11.65 14.85 Q11.65 14.85 11.6 14.85 11.6 14.8 11.55 14.75 11.5 14.7 11.45 14.6 11.35 14.55 11.3 14.45 11.2 14.35 11.15 14.2 11.05 14.1 11.0 14.0 10.9 13.85 10.8 13.7 10.75 13.55 10.7 13.4 10.7 13.4 10.8 13.4 10.9 13.4 11.05 13.35 11.2 13.35 11.4 13.25 11.6 13.2 11.8 13.1 12.05 12.95 12.25 12.8 12.45 12.6 12.6 12.35 12.75 12.05 12.85 11.75 12.95 11.35 12.95 10.9 12.95 10.35 12.8 9.95 12.7 9.5 12.45 9.2 12.25 8.9 11.95 8.7 11.65 8.5 11.35 8.35 11.05 8.2 10.75 8.1 10.5 8.05 10.25 8.0 10.05 8.0 9.85 8.0 9.8 8.0 9.75 8.0 L6.05 8.0 6.05 8.05 6.05 8.6 6.4 9.0 6.4 9.25 6.45 9.3 6.45 10.25 6.55 10.25 6.55 10.45 6.85 10.5 7.15 10.55 7.1 10.65 6.6 10.65 6.55 10.8 6.5 11.0 6.5 16.2 Q6.5 16.2 6.5 16.25 6.5 16.3 6.5 16.4 6.5 16.5 6.5 16.55 6.45 16.7 6.45 16.8 6.4 16.9 6.4 17.0 6.35 17.1 6.3 17.2 6.25 17.25 6.2 17.3 6.1 17.35 6.05 17.35 L6.05 18.1 8.5 18.1 8.5 17.4 Q8.5 17.4 8.5 17.4 8.45 17.4 8.45 17.4 8.4 17.4 8.35 17.35 8.35 17.35 8.3 17.3 8.25 17.25 8.2 17.15 8.2 17.05 8.15 16.95 8.1 16.8 8.1 16.65 8.1 16.45 8.1 16.25 L8.1 12.55 7.95 12.45 8.0 12.4 8.05 12.4 8.05 11.25 8.05 11.1 7.95 11.0 8.0 10.6 8.0 10.5 8.05 10.55 8.05 10.5 8.05 9.4 9.75 9.4 Q9.75 9.4 9.8 9.4 9.9 9.4 10.0 9.4 10.15 9.45 10.3 9.45 10.45 9.5 10.6 9.55 10.8 9.6 10.9 9.7 11.1 9.85 11.2 9.95 11.3 10.1 11.4 10.3 11.45 10.5 11.45 10.75 L11.45 11.0 Q11.45 11.0 11.45 11.05 11.45 11.1 11.45 11.2 11.4 11.3 11.4 11.45 11.35 11.55 11.25 11.7 11.15 11.85 11.05 11.95 10.9 12.1 10.75 12.2 10.55 12.3 10.3 12.35 10.0 12.4 9.65 12.4 L9.25 12.4 9.25 14.25 10.35 16.15 Q10.35 16.15 10.4 16.25 10.45 16.35 10.55 16.45 10.65 16.6 10.75 16.75 10.9 16.95 11.05 17.1 11.2 17.3 11.35 17.45 11.55 17.65 11.7 17.75 11.85 17.9 12.0 18.0 12.2 18.05 12.35 18.1 L13.35 18.1 13.35 17.4 Q13.35 17.4 13.3 17.4 13.25 17.4 13.15 17.35 13.05 17.3 12.95 17.25 12.85 17.15 12.7 17.05 12.6 16.9 12.45 16.75 12.3 16.55 12.15 16.3 12.0 16.0 11.9 15.65 11.75 15.3 11.65 14.85 L11.65 14.85" fill="#f1edf8" fill-rule="evenodd" stroke="none"/>
    <path d="M22.5 16.6 L22.2 16.1 18.2 7.95 13.95 16.95 Q13.7 17.4 13.6 17.45 L13.6 18.05 15.4 18.05 15.7 18.05 15.7 17.5 Q15.7 17.5 15.7 17.5 15.7 17.5 15.7 17.5 15.7 17.45 15.65 17.45 15.65 17.45 15.65 17.4 15.65 17.4 15.65 17.35 15.65 17.3 15.65 17.3 15.65 17.25 15.65 17.2 15.65 17.1 15.7 17.05 L16.3 15.8 18.95 15.75 Q18.95 15.75 18.95 15.75 19.0 15.75 19.05 15.75 20.0 15.7 19.15 15.75 19.25 15.75 19.3 15.75 19.4 15.7 19.5 15.7 19.6 15.7 19.7 15.7 19.8 15.7 19.9 15.65 20.0 15.65 20.1 15.6 L20.65 16.3 Q20.75 16.4 20.8 16.55 20.85 16.65 20.9 16.75 20.95 16.85 20.95 16.95 21.0 17.05 21.0 17.15 21.0 17.2 20.95 17.3 20.95 17.35 20.95 17.4 20.95 17.45 20.95 17.45 20.9 17.45 20.9 17.5 L20.9 18.05 21.3 18.05 23.0 18.05 23.0 17.45 Q22.9 17.4 22.5 16.6 L22.5 16.6 M19.9 14.2 L19.4 14.2 19.3 14.4 19.0 14.15 Q18.8 14.15 18.7 14.15 18.55 14.1 18.15 14.1 18.15 14.1 18.15 14.1 18.1 14.15 18.05 14.2 18.0 14.2 17.95 14.25 17.9 14.3 17.8 14.35 17.7 14.4 17.6 14.45 17.5 14.5 17.35 14.55 17.25 14.6 17.1 14.65 16.95 14.7 16.75 14.7 L17.7 12.45 17.65 12.3 17.6 12.25 17.6 12.2 17.55 12.15 Q17.55 12.05 17.6 12.05 17.6 12.0 17.6 12.0 17.65 12.0 17.65 12.05 17.65 12.05 17.7 12.1 17.7 12.15 17.7 12.15 17.7 12.15 17.8 12.25 L18.25 11.1 19.5 13.9 19.75 13.95 19.75 14.05 19.65 14.45 19.95 14.0 Q19.95 14.0 19.95 14.0 19.95 14.0 19.9 14.0 19.9 14.05 19.9 14.05 19.9 14.05 19.95 14.1 19.95 14.1 20.0 14.15 L19.9 14.2" fill="#f1edf8" fill-rule="evenodd" stroke="none"/>
    <path d="M25.0 16.2 L25.0 11.05 24.95 11.05 24.9 11.15 24.8 11.1 24.75 11.1 24.75 11.05 24.8 11.05 24.8 11.0 24.8 10.95 24.9 10.95 24.95 10.85 25.0 10.8 25.0 8.85 Q25.0 8.75 25.0 8.65 25.05 8.55 25.05 8.5 25.1 8.4 25.1 8.35 25.15 8.25 25.2 8.2 25.2 8.15 25.25 8.1 25.25 8.05 25.3 8.05 25.3 8.0 25.35 8.0 25.35 8.0 25.35 8.0 L25.0 8.0 23.35 8.4 Q23.5 8.85 23.65 9.35 L23.65 15.5 23.65 16.2 Q23.65 16.4 23.65 16.6 23.6 16.75 23.6 16.9 23.55 17.05 23.5 17.15 23.5 17.2 23.45 17.25 23.45 17.3 23.4 17.35 23.35 17.4 23.35 17.4 23.3 17.4 23.3 17.4 23.3 17.4 23.3 17.4 L23.3 18.05 25.35 18.05 25.35 17.4 Q25.3 17.4 25.25 17.35 25.2 17.3 25.15 17.25 25.15 17.15 25.1 17.05 25.1 16.95 25.05 16.8 25.05 16.7 25.05 16.6 25.0 16.5 25.0 16.4 25.0 16.35 25.0 16.25 25.0 16.25 25.0 16.2 L25.0 16.2" fill="#f1edf8" fill-rule="evenodd" stroke="none"/>
    <path d="M29.65 11.65 L29.65 11.65 Q29.65 11.65 29.65 11.65 29.65 11.65 29.65 11.65 L29.65 11.65 Q29.95 11.8 28.05 11.7 28.05 11.7 27.9 11.8 L27.9 10.75 27.5 10.25 Q27.5 10.35 27.45 10.4 27.45 10.5 27.35 10.55 27.3 10.65 27.25 10.7 27.2 10.75 27.1 10.85 27.05 10.9 26.95 10.95 26.9 11.0 26.85 11.05 26.8 11.05 26.75 11.1 26.75 11.1 26.7 11.1 L26.7 11.8 25.6 11.8 25.2 12.4 25.2 12.75 26.45 12.75 26.75 12.75 26.75 15.4 26.75 16.15 Q26.75 16.4 26.75 16.6 26.7 16.8 26.7 16.95 26.65 17.1 26.6 17.25 26.6 17.35 26.55 17.4 26.5 17.5 26.45 17.55 26.45 17.55 26.4 17.6 26.4 17.6 26.35 17.6 26.35 17.6 26.35 17.65 L26.35 18.1 28.2 18.1 28.2 17.6 Q28.15 17.6 28.1 17.55 28.05 17.5 28.05 17.35 28.0 17.3 27.95 17.15 27.95 17.0 27.95 16.85 27.9 16.75 27.9 16.6 27.9 16.5 27.85 16.35 27.85 16.25 27.85 16.2 27.85 16.15 27.85 16.15 L27.85 12.7 28.6 12.7 Q28.6 12.7 28.65 12.7 28.7 12.7 28.7 12.7 28.75 12.7 28.8 12.65 28.9 12.65 28.95 12.65 29.0 12.6 29.1 12.6 29.15 12.55 29.2 12.5 29.3 12.5 29.35 12.45 29.4 12.4 29.45 12.35 L29.7 11.7 29.65 11.65" fill="#f1edf8" fill-rule="evenodd" stroke="none"/>
  </g>
</svg>
