<?xml version="1.0" encoding="UTF-8" standalone="no"?>
<svg xmlns:ffdec="https://www.free-decompiler.com/flash" xmlns:xlink="http://www.w3.org/1999/xlink" ffdec:objectType="shape" height="26.0px" width="26.0px" xmlns="http://www.w3.org/2000/svg">
  <g transform="matrix(1.0, 0.0, 0.0, 1.0, 0.0, 0.0)">
    <path d="M20.8 17.75 Q20.75 17.55 20.75 17.35 20.75 17.1 20.75 16.85 20.75 16.65 20.8 16.35 20.85 16.15 20.95 15.9 21.0 15.7 21.05 15.45 21.1 15.3 21.15 15.1 21.2 15.0 21.25 14.85 21.25 14.8 21.25 14.8 L20.25 14.8 Q20.1 15.1 19.95 15.3 19.8 15.5 19.7 15.7 19.55 15.8 19.5 15.9 19.4 16.0 19.3 16.05 19.25 16.05 19.2 16.05 19.15 16.0 19.1 15.95 19.05 15.85 19.05 15.75 19.05 15.65 19.05 15.5 19.0 10.65 19.0 7.45 19.0 7.45 18.95 7.45 18.95 7.45 18.9 7.45 18.85 7.45 18.8 7.45 18.7 7.45 18.65 7.45 18.55 7.5 18.45 7.5 18.35 7.55 18.25 7.55 18.15 7.6 18.05 7.65 17.95 7.7 17.8 7.8 17.7 7.85 17.65 7.95 17.55 8.05 17.4 8.15 17.3 8.3 17.2 8.5 17.05 8.65 16.9 8.85 16.8 9.05 16.6 9.35 17.65 7.8 16.2 9.85 16.0 10.2 15.8 10.5 15.55 10.85 15.3 11.2 13.3 14.15 11.25 17.1 11.2 17.15 11.2 17.2 11.2 17.25 11.15 17.3 11.15 17.35 11.15 17.4 11.15 17.5 11.15 17.5 11.2 17.55 11.2 17.6 11.25 17.65 11.3 17.7 11.35 17.7 11.45 17.75 11.55 17.75 11.65 17.75 L17.25 17.75 Q17.25 18.2 17.25 18.6 17.2 19.0 17.15 19.3 17.1 19.55 17.05 19.8 17.0 20.0 16.95 20.15 16.9 20.3 16.8 20.4 16.75 20.5 16.65 20.55 16.55 20.6 16.45 20.6 16.4 20.65 16.3 20.65 16.2 20.65 16.15 20.7 16.1 20.7 16.05 20.8 16.0 20.85 16.0 20.95 15.95 21.0 15.95 21.1 15.95 21.2 15.9 21.3 15.9 21.35 15.9 21.45 15.9 21.5 15.9 21.55 15.9 21.6 15.9 21.6 L20.2 21.6 Q20.2 21.55 20.2 21.35 20.2 21.25 20.2 21.15 20.2 21.05 20.2 21.0 20.2 20.9 20.2 20.85 20.15 20.8 20.15 20.75 20.1 20.7 20.05 20.65 20.0 20.65 19.95 20.6 19.9 20.6 19.8 20.6 19.65 20.6 19.5 20.5 19.4 20.35 19.3 20.15 19.2 19.95 19.15 19.7 19.1 19.45 19.1 19.2 19.05 18.95 19.05 18.65 19.05 18.45 19.05 18.2 19.05 18.0 19.05 17.85 19.05 17.8 19.05 17.75 19.2 17.75 19.4 17.8 19.55 17.8 19.75 17.9 19.85 17.9 20.05 18.0 20.25 18.1 20.35 18.1 20.5 18.15 20.6 18.15 20.7 18.2 20.75 18.15 20.8 18.1 20.85 18.0 20.85 17.9 20.8 17.75 L20.8 17.75 M17.25 16.05 Q17.25 16.05 15.75 16.05 14.25 16.05 14.25 16.05 L17.25 11.5 17.25 16.05" fill="#f1edf8" fill-rule="evenodd" stroke="none"/>
  </g>
</svg>
