<?xml version="1.0" encoding="UTF-8" standalone="no"?>
<svg xmlns:ffdec="https://www.free-decompiler.com/flash" xmlns:xlink="http://www.w3.org/1999/xlink" ffdec:objectType="shape" height="26.0px" width="41.75px" xmlns="http://www.w3.org/2000/svg">
  <g transform="matrix(1.0, 0.0, 0.0, 1.0, 0.0, 0.0)">
    <path d="M13.5 6.55 L13.5 5.8 10.4 5.8 10.4 6.6 Q10.4 6.6 10.4 6.6 10.45 6.6 10.5 6.65 10.55 6.65 10.6 6.7 10.65 6.75 10.7 6.8 10.75 6.85 10.8 6.9 10.85 7.0 10.9 7.05 10.9 7.15 10.95 7.25 10.95 7.4 10.95 7.55 L10.95 9.5 11.15 9.6 11.15 9.65 11.3 9.65 11.35 9.75 11.4 9.85 11.45 9.8 11.4 9.9 11.3 9.9 11.2 9.95 11.1 9.85 11.0 9.8 11.0 10.05 Q11.0 10.15 11.0 10.2 11.0 10.3 10.95 10.35 10.95 10.45 10.95 10.55 10.9 10.65 10.9 10.75 10.85 10.85 10.8 10.95 10.75 11.05 10.7 11.1 10.65 11.15 10.55 11.2 10.5 11.25 10.4 11.25 L6.5 11.25 Q6.5 11.25 6.5 11.25 6.45 11.25 6.4 11.2 6.35 11.2 6.3 11.15 6.25 11.1 6.2 11.0 6.15 10.9 6.1 10.8 6.05 10.65 6.0 10.5 5.95 10.3 5.95 10.05 5.9 9.8 5.9 9.5 L5.9 9.5 5.9 7.65 Q5.9 7.65 5.9 7.6 5.9 7.55 5.9 7.55 5.95 7.45 5.95 7.4 5.95 7.3 6.0 7.2 6.0 7.1 6.05 7.05 6.1 6.95 6.15 6.85 6.25 6.75 6.3 6.65 6.4 6.6 6.5 6.55 L6.5 5.8 3.4 5.8 3.4 6.6 Q3.4 6.6 3.45 6.6 3.45 6.6 3.5 6.65 3.55 6.65 3.6 6.7 3.65 6.75 3.7 6.8 3.75 6.85 3.8 6.9 3.85 7.0 3.85 7.05 3.9 7.15 3.95 7.25 3.95 7.4 3.95 7.55 L4.0 15.95 Q4.0 15.95 4.0 16.0 4.0 16.15 4.0 16.2 3.95 16.3 3.95 16.45 3.95 16.6 3.9 16.75 3.9 16.9 3.85 17.05 3.8 17.2 3.75 17.3 3.7 17.4 3.6 17.45 3.5 17.55 3.4 17.55 L3.4 18.35 6.5 18.35 6.5 17.5 Q6.5 17.5 6.5 17.5 6.45 17.5 6.4 17.5 6.35 17.45 6.35 17.45 6.25 17.4 6.2 17.3 6.15 17.25 6.1 17.15 6.05 17.0 6.0 16.85 5.95 16.65 5.95 16.45 5.9 16.2 5.9 15.9 L5.9 14.8 5.9 14.8 Q5.9 14.8 5.9 14.75 L5.9 14.2 Q5.9 14.1 5.9 14.0 5.95 13.9 5.95 13.85 5.95 13.75 6.0 13.65 6.0 13.55 6.05 13.45 6.1 13.4 6.15 13.35 6.2 13.25 6.25 13.2 6.3 13.15 6.35 13.15 6.45 13.1 6.5 13.1 L10.4 13.1 Q10.4 13.1 10.4 13.1 10.45 13.1 10.5 13.1 10.55 13.15 10.6 13.15 10.65 13.2 10.7 13.25 10.75 13.3 10.8 13.35 10.85 13.45 10.9 13.55 10.95 13.65 10.95 13.8 11.0 13.95 11.0 14.1 L11.0 15.95 Q11.0 15.95 11.0 16.0 11.0 16.1 11.0 16.2 10.95 16.3 10.95 16.45 10.95 16.6 10.9 16.75 10.9 16.9 10.85 17.05 10.8 17.2 10.75 17.3 10.65 17.4 10.6 17.45 10.5 17.55 10.4 17.55 L10.4 18.35 13.5 18.35 13.5 17.5 Q13.5 17.5 13.45 17.5 13.45 17.5 13.4 17.5 13.35 17.45 13.3 17.45 13.25 17.4 13.2 17.3 13.15 17.25 13.1 17.15 13.05 17.0 13.0 16.85 12.95 16.65 12.95 16.45 12.9 16.2 12.9 15.9 L12.9 7.65 Q12.9 7.65 12.9 7.6 12.9 7.55 12.9 7.55 12.9 7.45 12.95 7.4 12.95 7.3 13.0 7.2 13.0 7.1 13.05 7.05 13.1 6.95 13.15 6.85 13.2 6.75 13.3 6.65 13.4 6.6 13.5 6.55 L13.5 6.55" fill="#f1edf8" fill-rule="evenodd" stroke="none"/>
    <path d="M17.15 11.15 Q16.75 11.15 16.4 11.2 16.05 11.25 15.7 11.4 15.35 11.5 15.05 11.7 14.75 11.85 14.5 12.1 14.2 12.3 14.0 12.6 13.8 12.9 13.65 13.2 13.5 13.55 13.4 13.9 13.3 14.3 13.3 14.75 13.3 15.15 13.4 15.55 13.45 15.95 13.65 16.25 13.8 16.6 14.0 16.9 14.2 17.15 14.5 17.4 14.75 17.6 15.05 17.8 15.35 17.95 15.7 18.1 16.05 18.2 16.4 18.25 16.75 18.3 17.15 18.3 17.5 18.3 17.85 18.25 18.25 18.2 18.55 18.1 18.9 18.0 19.2 17.85 19.5 17.7 19.75 17.5 20.05 17.25 20.25 17.0 20.45 16.7 20.6 16.35 20.75 16.0 20.85 15.6 20.9 15.2 20.9 14.75 20.9 14.3 20.8 13.9 20.75 13.55 20.6 13.2 20.45 12.85 20.25 12.6 20.05 12.3 19.75 12.05 19.5 11.85 19.2 11.65 18.9 11.5 18.55 11.4 18.2 11.25 17.85 11.2 17.5 11.15 17.15 11.15 L17.15 11.15 M17.15 16.9 Q16.9 16.9 16.65 16.85 16.45 16.8 16.25 16.7 16.05 16.65 15.9 16.5 15.7 16.4 15.6 16.2 15.45 16.05 15.35 15.9 15.25 15.7 15.2 15.5 15.15 15.35 15.1 15.15 15.1 14.95 15.1 14.75 15.1 14.55 15.15 14.35 15.15 14.15 15.25 13.95 15.3 13.75 15.4 13.55 15.5 13.4 15.65 13.2 15.8 13.05 15.95 12.95 16.1 12.8 16.3 12.7 16.5 12.6 16.7 12.55 16.9 12.5 17.15 12.5 17.35 12.5 17.6 12.55 17.8 12.6 18.0 12.7 18.2 12.75 18.35 12.9 18.5 13.0 18.65 13.15 18.8 13.3 18.9 13.5 19.0 13.65 19.1 13.85 19.15 14.05 19.2 14.25 19.25 14.5 19.25 14.7 19.25 14.9 19.2 15.15 19.15 15.35 19.1 15.55 19.05 15.75 18.95 15.9 18.8 16.1 18.7 16.25 18.55 16.4 18.4 16.55 18.2 16.65 18.05 16.75 17.85 16.8 17.6 16.85 17.4 16.9 17.15 16.9 L17.15 16.9" fill="#f1edf8" fill-rule="evenodd" stroke="none"/>
    <path d="M30.5 17.15 L30.5 14.75 30.5 13.6 Q30.5 13.2 30.4 12.9 30.35 12.6 30.2 12.35 30.1 12.15 29.95 11.95 29.8 11.75 29.6 11.65 29.4 11.5 29.2 11.45 29.0 11.35 28.8 11.3 28.65 11.3 28.45 11.25 28.3 11.25 28.1 11.25 27.9 11.25 27.75 11.25 27.55 11.3 27.4 11.3 27.2 11.35 27.05 11.4 26.9 11.45 26.75 11.5 26.6 11.6 26.5 11.65 26.35 11.75 26.25 11.85 26.15 11.95 26.05 12.05 25.95 12.2 25.9 12.3 25.8 12.1 25.7 11.95 25.6 11.8 25.5 11.7 25.35 11.6 25.25 11.5 25.15 11.45 25.0 11.4 24.9 11.35 24.8 11.3 24.65 11.25 24.55 11.25 24.45 11.25 24.3 11.25 24.2 11.25 24.05 11.25 23.9 11.25 23.8 11.25 23.65 11.25 23.55 11.3 23.45 11.3 23.35 11.35 23.3 11.4 23.25 11.45 23.15 11.5 23.1 11.55 23.05 11.55 23.05 11.6 23.0 11.65 22.95 11.75 22.95 11.75 22.9 11.85 L22.9 11.5 Q22.9 11.45 22.9 11.35 22.95 11.3 22.95 11.25 22.95 11.2 23.0 11.15 23.0 11.15 23.05 11.1 23.05 11.05 23.1 11.05 23.1 11.05 23.1 11.0 23.15 11.0 23.15 11.0 23.15 11.0 23.15 11.0 L22.45 11.0 21.05 11.3 Q21.1 11.35 21.15 11.4 21.2 11.45 21.25 11.5 21.25 11.6 21.3 11.65 21.3 11.75 21.35 11.85 21.35 11.9 21.35 12.0 21.4 12.05 21.4 12.1 21.4 12.15 21.4 12.2 21.4 12.2 21.4 12.25 L21.4 16.3 21.4 16.8 Q21.4 16.95 21.4 17.1 21.35 17.25 21.35 17.35 21.3 17.45 21.25 17.5 21.25 17.6 21.2 17.65 21.15 17.7 21.1 17.75 21.05 17.75 21.05 17.8 21.0 17.8 21.0 17.8 21.0 17.8 21.0 17.8 L21.0 18.35 23.35 18.35 23.35 17.8 Q23.3 17.8 23.2 17.75 23.15 17.7 23.1 17.65 23.05 17.6 23.05 17.5 23.0 17.4 22.95 17.3 22.95 17.2 22.95 17.1 22.9 17.05 22.9 16.95 22.9 16.9 22.9 16.85 22.9 16.8 22.9 16.8 L22.9 14.95 22.9 14.95 Q22.9 14.95 22.9 14.85 22.9 14.7 22.9 14.6 22.85 14.4 22.9 14.2 22.9 14.0 22.95 13.75 22.95 13.55 23.05 13.35 23.15 13.1 23.25 12.95 23.4 12.8 23.6 12.7 23.8 12.6 24.05 12.6 24.3 12.6 24.5 12.7 24.65 12.8 24.8 12.95 24.95 13.15 25.05 13.35 25.1 13.55 25.15 13.8 25.2 14.0 25.25 14.2 25.25 14.4 25.25 14.6 25.25 14.75 25.25 14.85 25.25 14.9 25.25 14.95 L25.25 16.8 25.25 17.15 Q25.25 17.25 25.25 17.35 25.2 17.45 25.2 17.5 25.15 17.55 25.15 17.6 25.1 17.65 25.05 17.7 25.05 17.7 25.0 17.7 24.95 17.75 24.95 17.75 24.9 17.75 24.9 17.75 24.9 17.75 24.85 17.75 L24.85 18.35 27.1 18.35 27.1 17.75 Q27.05 17.75 27.0 17.7 26.95 17.7 26.9 17.65 26.85 17.6 26.8 17.55 26.8 17.5 26.75 17.45 26.75 17.4 26.75 17.35 26.75 17.3 26.7 17.25 26.7 17.2 26.7 17.15 26.7 17.15 26.7 17.15 L26.7 15.8 26.7 15.0 Q26.7 14.95 26.7 14.9 26.7 14.9 26.7 14.85 26.7 15.15 26.7 14.65 26.7 14.5 26.7 14.35 26.75 14.2 26.75 14.0 26.8 13.8 26.85 13.6 26.9 13.4 27.0 13.25 27.1 13.05 27.2 12.9 27.35 12.75 27.5 12.7 27.65 12.6 27.9 12.6 28.15 12.6 28.35 12.7 28.5 12.8 28.65 12.95 28.75 13.15 28.85 13.35 28.95 13.55 29.0 13.8 29.05 14.0 29.05 14.2 29.1 14.4 29.1 14.6 29.1 14.75 29.1 14.85 29.1 14.9 29.1 14.95 L29.1 16.8 29.1 17.15 Q29.1 17.25 29.05 17.35 29.05 17.45 29.05 17.5 29.0 17.55 28.95 17.6 28.95 17.65 28.9 17.7 28.85 17.7 28.8 17.7 28.8 17.75 28.75 17.75 28.75 17.75 28.7 17.75 28.7 17.75 28.7 17.75 L28.7 18.35 30.85 18.35 30.85 17.75 Q30.8 17.75 30.75 17.7 30.7 17.7 30.65 17.65 30.6 17.6 30.6 17.55 30.55 17.5 30.55 17.45 30.5 17.4 30.5 17.35 30.5 17.3 30.5 17.25 30.5 17.2 30.5 17.15 30.5 17.15 30.5 17.15 L30.5 17.15 M22.75 14.7 L22.65 14.65 22.6 14.25 22.6 14.15 22.6 14.2 22.6 14.15 22.65 14.55 22.7 14.55 22.75 14.7 22.75 14.7" fill="#f1edf8" fill-rule="evenodd" stroke="none"/>
    <path d="M34.45 16.95 Q34.45 16.95 34.4 16.95 34.3 16.9 34.2 16.9 34.05 16.85 33.95 16.8 33.75 16.75 33.6 16.65 33.45 16.55 33.3 16.45 33.15 16.3 33.0 16.15 32.9 15.95 32.8 15.75 32.7 15.55 32.7 15.3 32.7 15.3 32.65 15.2 32.65 15.15 32.65 15.1 L33.65 15.1 35.9 15.0 Q35.9 15.0 35.95 15.0 36.0 15.0 36.05 15.0 36.15 15.0 36.25 14.95 36.35 14.95 36.45 14.95 36.6 14.9 36.7 14.85 36.85 14.8 36.95 14.75 37.05 14.65 37.1 14.55 37.2 14.45 37.25 14.35 L37.65 13.25 Q37.65 13.25 37.7 12.9 37.8 12.55 37.8 12.25 37.8 12.25 37.8 12.25 37.8 12.3 37.75 12.3 37.75 12.35 37.7 12.35 37.65 12.4 37.65 12.4 37.6 12.4 37.55 12.4 37.5 12.4 37.45 12.35 37.4 12.3 37.35 12.2 37.3 12.1 37.2 12.0 37.1 11.8 36.95 11.65 36.85 11.5 36.65 11.35 36.5 11.25 36.3 11.15 36.1 11.1 35.9 11.05 35.75 11.0 35.55 10.95 35.45 10.95 35.3 10.9 35.2 10.9 35.1 10.9 35.05 10.9 35.0 10.9 34.5 10.9 34.05 10.95 33.65 11.05 33.3 11.2 32.95 11.35 32.65 11.55 32.35 11.75 32.15 12.0 31.9 12.25 31.75 12.55 31.6 12.8 31.45 13.05 31.35 13.3 31.3 13.55 31.25 13.75 31.25 13.95 L30.75 14.1 Q30.8 14.15 30.8 14.25 30.85 14.3 30.85 14.4 30.9 14.45 30.9 14.5 30.9 14.65 30.9 14.65 30.95 14.7 30.95 14.75 30.95 14.8 31.0 14.85 31.0 14.9 31.05 14.9 31.1 14.95 31.15 14.95 L31.15 14.9 31.2 14.9 31.2 14.9 31.2 14.85 31.3 14.85 31.3 14.85 31.4 14.8 31.4 14.9 31.3 14.95 31.25 14.95 31.25 14.95 31.2 14.95 Q31.2 15.0 31.2 15.05 31.2 15.65 31.4 16.15 31.55 16.65 31.8 17.0 32.05 17.35 32.4 17.6 32.7 17.85 33.1 18.0 33.4 18.15 33.75 18.25 34.05 18.35 34.35 18.35 34.55 18.4 34.75 18.4 34.85 18.4 34.9 18.4 35.25 18.4 35.6 18.35 35.9 18.3 36.15 18.2 36.4 18.15 36.6 18.05 36.8 17.95 36.95 17.8 37.1 17.75 37.2 17.6 37.3 17.55 37.35 17.45 37.4 17.4 37.45 17.3 37.45 17.3 37.45 17.3 L37.45 15.85 36.8 15.9 Q36.75 16.1 36.6 16.25 36.45 16.4 36.25 16.5 36.1 16.65 35.9 16.7 35.7 16.8 35.5 16.8 35.3 16.85 35.1 16.9 34.95 16.9 34.8 16.9 34.65 16.95 34.55 16.95 34.5 16.95 34.45 16.95 L34.45 16.95 M34.8 11.95 Q34.8 11.95 34.85 11.95 34.95 11.95 35.05 12.0 35.15 12.0 35.25 12.05 35.4 12.1 35.55 12.15 35.7 12.25 35.8 12.35 35.9 12.45 36.0 12.65 36.1 12.8 36.15 13.05 36.2 13.3 36.2 13.55 36.2 13.6 35.4 13.75 34.5 13.9 33.95 13.95 L32.65 13.95 Q32.75 13.55 32.9 13.25 33.05 12.95 33.25 12.7 33.4 12.5 33.6 12.35 33.75 12.25 33.95 12.15 34.1 12.05 34.3 12.0 34.4 12.0 34.55 11.95 34.65 11.95 34.75 11.95 34.75 11.95 34.8 11.95 L34.8 11.95" fill="#f1edf8" fill-rule="evenodd" stroke="none"/>
  </g>
</svg>
