<?xml version="1.0" encoding="UTF-8" standalone="no"?>
<svg xmlns:ffdec="https://www.free-decompiler.com/flash" xmlns:xlink="http://www.w3.org/1999/xlink" ffdec:objectType="shape" height="26.0px" width="26.0px" xmlns="http://www.w3.org/2000/svg">
  <g transform="matrix(1.0, 0.0, 0.0, 1.0, 0.0, 0.0)">
    <path d="M15.4 11.15 Q15.4 11.15 16.6 11.5 17.8 11.8 17.85 11.8 18.0 11.7 15.65 7.95 14.4 6.1 13.2 4.25 13.2 4.3 13.15 4.4 12.05 5.85 10.3 8.25 8.0 11.5 8.15 11.55 9.5 11.25 10.9 10.95 10.9 10.95 10.95 10.85 11.0 10.7 11.05 10.5 11.15 10.3 11.3 10.05 11.4 9.75 11.55 9.45 11.75 9.15 11.9 8.8 12.1 8.5 12.3 8.2 12.5 7.85 12.7 7.6 12.95 7.3 13.2 7.1 13.4 7.35 13.6 7.7 13.8 8.0 14.05 8.35 14.2 8.65 14.4 9.0 14.55 9.3 14.75 9.65 14.85 9.95 15.0 10.25 15.1 10.45 15.2 10.7 15.3 10.85 15.35 11.0 15.35 11.05 15.4 11.15 L15.4 11.15" fill="#f1edf8" fill-rule="evenodd" stroke="none"/>
    <path d="M14.1 21.05 Q14.1 21.05 14.05 20.7 14.05 20.25 14.0 19.7 13.95 19.0 13.95 18.25 13.9 17.35 13.85 16.5 13.85 15.5 13.85 14.6 13.85 13.55 13.9 12.7 13.95 11.75 14.05 11.0 14.15 10.15 14.3 9.6 14.3 9.6 14.25 9.6 14.15 9.55 14.05 9.55 13.9 9.55 13.75 9.55 13.6 9.5 13.45 9.5 13.25 9.5 13.05 9.5 12.85 9.55 12.65 9.55 12.45 9.6 12.25 9.7 12.05 9.75 11.9 9.85 11.85 9.5 11.85 15.8 11.85 21.8 12.15 21.75 13.1 21.4 14.1 21.05 L14.1 21.05" fill="#f1edf8" fill-rule="evenodd" stroke="none"/>
  </g>
</svg>
