<?xml version="1.0" encoding="UTF-8" standalone="no"?>
<svg xmlns:ffdec="https://www.free-decompiler.com/flash" xmlns:xlink="http://www.w3.org/1999/xlink" ffdec:objectType="shape" height="26.0px" width="41.75px" xmlns="http://www.w3.org/2000/svg">
  <g transform="matrix(1.0, 0.0, 0.0, 1.0, 0.0, 0.0)">
    <path d="M11.8 11.9 Q11.8 11.9 11.95 11.9 12.1 11.9 12.3 11.85 12.55 11.85 12.8 11.75 13.15 11.7 13.4 11.6 13.75 11.45 14.0 11.25 14.3 11.05 14.5 10.75 14.75 10.45 14.9 10.1 15.0 9.7 15.0 9.2 15.0 8.65 14.85 8.2 14.75 7.75 14.5 7.45 14.3 7.15 14.0 6.9 13.7 6.7 13.4 6.55 13.1 6.4 12.8 6.3 12.55 6.25 12.3 6.2 12.1 6.2 11.9 6.15 11.85 6.15 11.75 6.15 L8.05 6.15 8.05 6.25 8.05 6.8 8.4 7.15 8.4 7.45 8.5 7.5 8.5 8.45 8.6 8.45 8.6 8.65 8.85 8.7 9.2 8.75 9.1 8.85 8.65 8.85 8.55 9.0 8.5 9.2 8.5 14.2 Q8.5 14.2 8.5 14.25 8.5 14.3 8.5 14.35 8.5 14.45 8.5 14.55 8.5 14.65 8.45 14.75 8.45 14.85 8.4 15.0 8.4 15.1 8.35 15.2 8.3 15.3 8.2 15.4 8.15 15.5 8.05 15.55 L8.05 16.25 10.5 16.25 10.5 15.5 Q10.5 15.5 10.5 15.5 10.45 15.5 10.45 15.45 10.4 15.45 10.35 15.4 10.3 15.35 10.25 15.3 10.25 15.25 10.2 15.15 10.15 15.05 10.15 14.95 10.1 14.85 10.1 14.7 10.1 14.55 10.1 14.35 L10.1 10.6 9.95 10.5 10.0 10.4 10.05 10.4 10.05 9.25 10.05 9.15 9.95 9.0 10.0 8.6 10.0 8.5 10.05 8.55 10.05 8.5 10.05 7.55 11.95 7.55 Q11.95 7.55 12.0 7.55 12.1 7.55 12.2 7.6 12.35 7.6 12.45 7.65 12.6 7.7 12.75 7.75 12.9 7.85 13.05 7.95 13.2 8.1 13.3 8.25 13.4 8.45 13.5 8.65 13.55 8.9 13.6 9.15 13.6 9.15 13.6 9.2 13.6 9.3 13.6 9.4 13.55 9.55 13.5 9.65 13.45 9.8 13.35 9.9 13.25 10.05 13.05 10.2 12.85 10.35 12.6 10.4 12.35 10.5 11.95 10.55 11.6 10.6 11.1 10.55 L11.0 10.55 11.0 11.5 11.8 11.9" fill="#f1edf8" fill-rule="evenodd" stroke="none"/>
    <path d="M20.35 10.35 L20.05 10.15 18.3 10.6 Q18.25 10.55 18.15 10.5 18.05 10.45 18.0 10.4 17.9 10.4 17.8 10.35 17.7 10.3 17.6 10.3 17.5 10.25 17.45 10.25 17.35 10.2 17.25 10.2 17.15 10.2 17.05 10.2 16.95 10.15 16.85 10.15 16.55 10.15 16.3 10.2 16.0 10.25 15.75 10.3 15.5 10.4 15.25 10.5 15.0 10.65 14.85 10.8 14.6 10.95 14.45 11.15 14.3 11.4 14.2 11.65 14.05 11.9 14.0 12.2 13.95 12.5 13.95 12.85 13.95 13.05 13.95 13.25 14.0 13.45 14.05 13.65 14.1 13.85 14.15 14.05 14.2 14.2 14.3 14.4 14.35 14.55 14.45 14.65 14.5 14.8 14.6 14.9 14.65 15.05 14.75 15.1 14.85 15.2 14.9 15.25 14.85 15.3 14.8 15.3 14.75 15.35 14.7 15.4 14.65 15.45 14.65 15.45 14.6 15.5 14.55 15.5 14.5 15.55 14.5 15.6 14.45 15.6 14.4 15.6 14.3 15.65 14.25 15.65 14.2 15.65 14.15 15.65 14.15 15.65 14.15 15.7 14.15 15.75 14.15 15.8 14.2 15.9 14.2 15.95 14.25 16.1 14.25 16.15 14.3 16.3 14.35 16.4 14.45 16.5 14.5 16.6 14.6 16.7 14.7 16.75 14.8 16.85 14.95 16.9 14.4 17.35 14.35 17.5 14.3 17.6 14.25 17.65 14.2 17.75 14.15 17.8 14.1 17.85 14.1 17.95 14.05 18.0 14.05 18.05 14.0 18.1 14.0 18.15 14.0 18.2 14.0 18.2 14.0 18.25 14.0 18.25 14.0 18.25 14.0 18.25 13.95 18.45 13.95 18.55 13.95 18.6 13.95 18.65 14.0 18.7 14.0 18.75 14.05 18.8 14.05 18.85 14.1 18.9 14.15 19.0 14.2 19.05 14.25 19.1 14.3 19.2 14.35 19.25 14.4 19.3 14.45 19.35 14.55 19.4 14.6 19.4 14.7 19.45 14.8 19.5 14.95 19.55 15.05 19.6 15.15 19.65 15.3 19.7 15.4 19.75 15.55 19.75 15.65 19.8 15.8 19.8 15.95 19.8 16.1 19.8 16.25 19.85 16.4 19.85 16.5 19.85 16.7 19.85 17.15 19.85 17.1 19.85 17.35 19.85 17.5 19.85 17.7 19.85 17.9 19.8 18.1 19.8 18.25 19.8 18.45 19.75 18.6 19.7 18.8 19.7 18.95 19.65 19.1 19.55 19.25 19.5 19.4 19.4 19.55 19.3 19.65 19.25 19.7 19.15 19.75 19.05 19.85 18.95 19.9 18.85 19.95 18.7 20.0 18.6 20.05 18.5 20.1 18.35 20.1 18.25 20.15 18.1 20.2 18.0 20.2 17.9 20.2 17.8 20.2 17.7 20.2 17.6 20.2 17.55 20.2 17.5 20.2 17.45 20.2 17.35 20.15 17.3 20.15 17.25 20.15 17.2 20.1 17.15 20.1 17.1 20.05 17.05 20.05 17.0 20.0 16.95 20.0 16.9 19.95 16.85 19.9 16.8 19.85 16.75 19.8 16.7 19.75 16.65 19.7 16.6 19.65 16.55 19.6 16.5 19.55 16.45 19.5 16.45 19.45 16.4 19.4 16.35 19.3 16.35 19.25 16.3 19.2 16.3 19.1 16.25 19.05 16.25 19.0 16.25 18.9 16.25 18.85 16.25 18.8 16.25 18.7 16.2 18.65 16.2 18.55 16.2 18.45 16.2 18.4 16.15 18.25 16.15 18.15 16.15 18.05 16.15 17.9 16.1 17.75 16.1 17.65 16.1 17.5 16.1 17.3 16.1 17.15 16.1 16.45 16.05 16.25 16.05 16.2 16.05 16.15 16.05 16.1 16.0 16.05 16.0 16.05 16.0 16.0 15.95 15.95 15.95 15.9 15.95 15.9 15.9 15.85 15.9 15.85 15.9 15.8 15.85 15.8 15.85 15.8 15.85 15.75 15.8 15.75 15.75 15.7 15.7 15.7 15.7 15.7 15.7 15.7 15.55 15.75 15.45 15.75 15.4 15.8 15.45 15.9 15.45 15.95 15.5 16.05 15.5 16.1 15.55 16.2 15.55 16.25 15.55 16.35 15.55 16.4 15.55 16.5 15.6 16.6 15.6 16.65 15.6 16.75 15.6 16.85 15.6 16.9 15.6 17.0 15.6 17.3 15.6 17.55 15.55 17.8 15.5 18.05 15.4 18.25 15.3 18.45 15.15 18.65 15.05 18.85 14.85 19.0 14.7 19.1 14.45 19.25 14.25 19.35 14.0 19.45 13.75 19.5 13.45 19.55 13.15 19.55 12.85 19.55 12.7 19.55 12.6 19.5 12.5 19.5 12.4 19.5 12.3 19.45 12.2 19.45 12.1 19.4 12.0 19.35 11.9 19.3 11.8 19.25 11.7 19.2 11.65 19.15 11.55 19.05 11.45 19.0 11.35 18.9 11.3 L19.55 11.45 Q19.6 11.45 19.7 11.4 19.75 11.35 19.85 11.25 19.9 11.2 20.0 11.1 20.05 11.0 20.1 10.9 20.15 10.8 20.2 10.7 20.25 10.6 20.3 10.5 20.3 10.45 20.35 10.4 20.35 10.35 20.35 10.35 L20.35 10.35 M16.1 17.0 Q16.65 17.1 17.5 17.15 17.75 17.15 18.3 17.3 18.45 17.35 18.55 17.35 18.65 17.4 18.75 17.45 18.8 17.5 18.85 17.55 18.9 17.55 18.95 17.6 18.95 17.65 18.95 17.7 19.0 17.7 19.0 17.75 19.0 17.75 19.0 17.8 19.0 18.25 19.0 17.85 19.0 17.9 19.0 17.95 19.0 18.0 19.0 18.0 18.95 18.05 18.95 18.1 18.95 18.15 18.9 18.15 18.9 18.2 18.85 18.25 18.85 18.3 18.8 18.3 18.75 18.35 18.7 18.4 18.65 18.45 18.6 18.45 18.55 18.5 18.5 18.5 18.45 18.55 18.4 18.55 18.3 18.6 18.25 18.6 18.15 18.65 18.05 18.65 17.95 18.7 17.85 18.7 17.75 18.75 17.65 18.75 17.5 18.8 17.4 18.8 17.25 18.8 17.1 18.8 16.95 18.8 16.8 18.8 16.65 18.8 16.55 18.8 16.45 18.8 16.35 18.75 16.25 18.75 16.15 18.75 16.05 18.75 16.0 18.7 15.9 18.7 15.85 18.65 15.75 18.65 15.7 18.6 15.65 18.55 15.6 18.55 15.55 18.5 15.5 18.5 15.5 18.45 15.45 18.45 15.4 18.4 15.4 18.35 15.4 18.35 15.35 18.3 15.35 18.3 15.35 18.25 15.35 18.25 15.35 18.2 15.35 18.2 15.35 18.15 15.35 18.1 15.35 18.1 15.35 18.05 15.35 18.05 15.35 18.0 15.35 18.0 15.35 17.95 15.35 17.95 15.35 17.9 15.4 17.85 15.4 17.85 15.4 17.8 15.4 17.8 15.45 17.75 15.45 17.75 15.45 17.7 15.5 17.65 15.5 17.65 15.6 17.55 16.1 17.0 L16.1 17.0 M14.4 12.25 L14.25 12.1 14.35 12.1 14.4 12.05 14.45 12.05 14.55 11.95 14.75 11.95 Q14.7 11.95 14.65 12.0 14.6 12.0 14.6 12.0 14.55 12.05 14.5 12.05 14.5 12.1 14.5 12.1 14.45 12.15 14.45 12.15 14.45 12.2 14.45 12.2 14.45 12.2 14.4 12.2 14.4 12.25 14.4 12.25 L14.4 12.25 M16.9 14.45 Q16.85 14.45 16.8 14.45 16.7 14.45 16.65 14.45 16.55 14.45 16.5 14.4 16.45 14.4 16.35 14.4 16.25 14.4 16.2 14.35 16.1 14.3 16.0 14.3 15.95 14.25 15.85 14.2 15.75 14.15 15.7 14.1 15.7 14.1 15.7 14.1 L15.7 14.1 Q15.6 14.05 15.55 13.95 15.5 13.85 15.45 13.75 15.4 13.65 15.35 13.55 15.35 13.45 15.3 13.35 15.3 13.25 15.3 13.15 15.3 13.05 15.3 12.95 15.3 12.9 15.3 12.8 15.3 12.7 15.3 12.65 15.3 12.55 15.3 12.45 15.35 12.3 15.4 12.2 15.45 12.1 15.5 11.95 15.55 11.85 15.65 11.75 15.75 11.65 15.85 11.55 16.0 11.45 16.1 11.4 16.25 11.3 16.45 11.25 16.65 11.25 16.85 11.25 17.05 11.25 17.2 11.3 17.35 11.3 17.45 11.35 17.6 11.45 17.7 11.5 17.8 11.6 17.9 11.75 18.0 11.85 18.05 11.95 18.1 12.1 18.15 12.25 18.2 12.4 18.25 12.6 18.25 12.75 18.25 12.95 18.25 13.1 18.25 13.25 18.2 13.4 18.15 13.5 18.15 13.65 18.1 13.75 18.0 13.9 17.95 14.0 17.85 14.1 17.75 14.2 17.65 14.25 17.5 14.35 17.4 14.4 17.2 14.45 17.05 14.45 16.9 14.45 L16.9 14.45" fill="#f1edf8" fill-rule="evenodd" stroke="none"/>
    <path d="M24.1 6.15 L20.25 6.15 20.25 6.25 20.25 7.0 20.65 7.55 20.65 7.85 20.75 7.9 20.75 8.85 20.85 8.85 20.85 9.05 21.15 9.15 21.5 9.2 21.4 9.3 20.85 9.3 20.8 9.45 20.8 9.6 20.8 14.2 Q20.8 14.2 20.8 14.25 20.8 14.35 20.8 14.35 20.8 14.45 20.75 14.55 20.75 14.65 20.75 14.75 20.7 14.9 20.7 15.0 20.65 15.1 20.6 15.2 20.55 15.3 20.45 15.4 20.4 15.5 20.3 15.55 L20.3 16.25 21.8 16.25 22.55 16.25 24.2 16.25 Q24.2 16.25 24.35 16.25 24.6 16.2 24.8 16.15 25.15 16.1 25.45 15.95 25.8 15.8 26.15 15.6 26.55 15.3 26.9 15.0 27.25 14.6 27.5 14.1 27.8 13.5 27.95 12.85 28.15 12.1 28.15 11.2 28.15 10.3 27.95 9.55 27.8 8.9 27.5 8.3 27.25 7.8 26.85 7.4 26.5 7.1 26.1 6.8 25.75 6.6 25.35 6.45 25.05 6.3 24.7 6.25 24.5 6.2 24.25 6.15 24.15 6.15 24.1 6.15 L24.1 6.15 M24.4 14.7 L22.7 14.7 22.3 14.7 22.3 7.7 22.7 7.7 24.4 7.7 Q24.4 7.7 24.5 7.7 24.6 7.75 24.75 7.75 24.9 7.85 25.1 7.9 25.3 8.0 25.5 8.2 25.7 8.35 25.9 8.6 26.1 8.9 26.25 9.25 26.4 9.6 26.45 10.1 26.55 10.6 26.55 11.25 26.55 11.85 26.45 12.35 26.4 12.8 26.2 13.2 26.1 13.55 25.9 13.8 25.7 14.05 25.5 14.25 25.3 14.4 25.1 14.5 24.9 14.6 24.75 14.65 24.6 14.65 24.5 14.7 24.45 14.7 24.4 14.7 L24.4 14.7" fill="#f1edf8" fill-rule="evenodd" stroke="none"/>
    <path d="M33.45 15.2 L33.45 13.05 33.45 12.25 Q33.45 12.05 33.4 11.85 33.35 11.65 33.3 11.5 33.2 11.3 33.1 11.15 33.0 11.0 32.85 10.85 32.7 10.7 32.5 10.6 32.35 10.5 32.15 10.45 31.9 10.35 31.7 10.3 31.45 10.25 31.2 10.25 31.05 10.25 30.95 10.25 30.85 10.25 30.75 10.25 30.6 10.3 30.55 10.3 30.45 10.3 30.35 10.3 30.25 10.35 30.15 10.4 30.1 10.4 30.0 10.45 29.9 10.5 29.85 10.55 29.75 10.6 29.7 10.7 L29.7 10.5 Q29.7 10.45 29.7 10.4 29.75 10.3 29.75 10.3 29.8 10.25 29.8 10.2 29.85 10.15 29.85 10.15 29.9 10.1 29.95 10.1 29.95 10.1 30.0 10.1 30.0 10.05 30.0 10.05 30.05 10.05 30.05 10.05 L29.65 10.05 28.25 10.3 Q28.3 10.35 28.35 10.4 28.4 10.45 28.45 10.5 28.45 10.55 28.5 10.65 28.5 10.7 28.5 10.8 28.55 10.85 28.55 10.9 28.55 10.95 28.55 11.0 28.55 11.05 28.55 11.1 28.55 11.1 28.55 11.1 L28.55 14.7 28.55 14.95 Q28.55 15.1 28.55 15.2 28.5 15.3 28.5 15.4 28.45 15.45 28.45 15.55 28.4 15.6 28.35 15.65 28.35 15.7 28.3 15.7 28.3 15.75 28.25 15.75 28.25 15.75 28.2 15.75 28.2 15.75 28.2 15.75 L28.2 16.25 30.15 16.25 30.15 15.75 Q30.1 15.75 30.05 15.7 30.0 15.7 29.95 15.65 29.9 15.55 29.85 15.5 29.85 15.45 29.8 15.35 29.8 15.3 29.8 15.2 29.8 15.15 29.75 15.1 29.75 15.05 29.75 15.0 29.75 14.95 29.75 14.95 L29.75 13.25 29.75 13.25 Q29.75 13.25 29.75 13.2 29.75 13.1 29.75 13.0 29.8 12.85 29.8 12.7 29.85 12.5 29.9 12.35 29.95 12.15 30.0 12.05 30.1 11.85 30.25 11.75 30.4 11.6 30.55 11.55 30.75 11.45 31.0 11.45 31.25 11.45 31.45 11.5 31.65 11.6 31.75 11.7 31.9 11.8 32.0 11.95 32.05 12.1 32.1 12.3 32.15 12.4 32.2 12.6 32.2 12.7 32.2 12.85 32.2 12.95 32.2 13.05 32.2 13.05 32.2 13.1 L32.2 14.95 32.2 15.25 Q32.2 15.35 32.2 15.45 32.15 15.5 32.15 15.6 32.1 15.65 32.1 15.75 32.05 15.8 32.05 15.85 32.0 15.95 32.0 16.0 31.95 16.0 31.95 16.05 31.9 16.1 31.9 16.1 31.9 16.1 31.9 16.1 L31.9 16.25 33.7 16.25 33.7 15.75 Q33.65 15.75 33.65 15.75 33.6 15.7 33.55 15.65 33.55 15.65 33.5 15.6 33.5 15.55 33.5 15.5 33.5 15.45 33.45 15.4 33.45 15.35 33.45 15.3 33.45 15.25 33.45 15.25 33.45 15.2 33.45 15.2 L33.45 15.2 M29.65 13.05 L29.55 13.05 29.5 13.05 29.5 13.0 29.5 13.0 29.55 12.95 29.55 12.95 29.6 12.95 29.65 13.05 29.65 13.05" fill="#f1edf8" fill-rule="evenodd" stroke="none"/>
  </g>
</svg>
