<?xml version="1.0" encoding="UTF-8" standalone="no"?>
<svg xmlns:ffdec="https://www.free-decompiler.com/flash" xmlns:xlink="http://www.w3.org/1999/xlink" ffdec:objectType="shape" height="26.0px" width="26.0px" xmlns="http://www.w3.org/2000/svg">
  <g transform="matrix(1.0, 0.0, 0.0, 1.0, 0.0, 0.0)">
    <path d="M12.0 5.05 Q12.0 5.05 11.6 5.2 11.4 5.25 11.2 5.3 10.95 5.35 10.7 5.4 10.4 5.45 10.1 5.5 9.8 5.6 9.5 5.65 9.15 5.7 8.85 5.7 8.55 5.75 8.25 5.75 8.0 5.8 7.8 5.8 7.55 5.75 7.4 5.75 7.3 5.7 6.95 5.6 6.95 5.6 6.7 5.6 6.5 5.6 6.3 5.65 6.15 5.7 5.95 5.75 5.8 5.8 5.65 5.9 5.5 6.05 5.4 6.15 5.25 6.3 5.15 6.45 5.05 6.6 5.0 6.75 4.9 6.9 4.85 7.1 4.85 7.3 4.85 7.5 4.85 7.7 4.9 7.85 4.9 8.05 5.0 8.2 5.05 8.4 5.15 8.55 5.25 8.65 5.4 8.8 5.5 8.95 5.65 9.0 5.8 9.15 6.0 9.2 6.15 9.25 6.35 9.3 6.5 9.35 6.7 9.35 6.9 9.35 7.1 9.3 7.25 9.25 7.45 9.2 7.6 9.15 7.75 9.05 7.9 8.95 8.0 8.8 8.15 8.65 8.25 8.5 8.35 8.35 8.4 8.2 8.5 8.05 8.55 7.85 8.55 7.65 8.55 7.5 8.55 7.45 8.55 7.4 8.55 7.35 8.55 7.3 8.55 7.25 8.55 7.25 8.55 7.2 8.55 7.15 8.55 7.1 8.5 7.05 8.5 7.0 8.5 6.95 8.45 6.9 8.45 6.85 8.45 6.8 8.45 6.75 8.45 6.7 8.4 6.65 8.4 6.65 8.4 6.6 8.35 6.55 8.35 6.5 8.3 6.45 8.3 6.45 8.25 6.4 8.2 6.35 8.25 6.35 8.35 6.35 8.45 6.4 8.45 6.4 8.55 6.4 8.65 6.4 8.7 6.45 8.8 6.45 8.9 6.45 9.0 6.45 9.1 6.45 9.25 6.45 9.35 6.4 9.5 6.4 9.6 6.35 9.75 6.3 9.75 6.3 9.95 6.25 9.95 6.25 9.9 6.3 9.85 6.3 9.85 6.35 9.85 6.3 7.45 10.0 5.05 13.6 5.2 13.65 5.75 13.6 6.35 13.5 6.25 13.5 8.55 9.8 11.0 5.9 12.0 5.05 L12.0 5.05 M6.7 6.35 Q6.8 6.35 6.95 6.4 7.05 6.4 7.15 6.45 7.25 6.5 7.35 6.55 7.4 6.6 7.5 6.7 7.55 6.8 7.6 6.85 7.65 6.95 7.7 7.05 7.75 7.15 7.75 7.25 7.8 7.35 7.8 7.45 7.8 7.55 7.8 7.65 7.75 7.75 7.7 7.85 7.7 7.95 7.65 8.0 7.6 8.1 7.5 8.15 7.45 8.25 7.35 8.3 7.3 8.35 7.2 8.4 7.1 8.45 6.95 8.5 6.85 8.5 6.7 8.5 6.55 8.5 6.45 8.5 6.35 8.45 6.25 8.4 6.15 8.35 6.05 8.3 6.0 8.25 5.9 8.15 5.85 8.1 5.8 8.0 5.75 7.95 5.7 7.85 5.7 7.75 5.65 7.65 5.65 7.55 5.65 7.5 5.65 7.4 5.65 7.3 5.7 7.2 5.75 7.1 5.75 7.0 5.8 6.9 5.9 6.8 5.95 6.75 6.0 6.65 6.1 6.6 6.2 6.5 6.3 6.45 6.4 6.4 6.5 6.4 6.6 6.35 6.7 6.35 L6.7 6.35 M10.3 8.95 Q10.1 8.95 9.9 9.0 9.75 9.05 9.55 9.1 9.4 9.2 9.25 9.3 9.1 9.4 8.95 9.5 8.85 9.65 8.75 9.8 8.65 9.95 8.55 10.1 8.5 10.25 8.45 10.45 8.4 10.65 8.4 10.85 8.4 11.05 8.45 11.2 8.5 11.4 8.55 11.55 8.65 11.75 8.75 11.9 8.85 12.05 8.95 12.15 9.1 12.3 9.25 12.4 9.4 12.5 9.55 12.55 9.75 12.65 9.9 12.65 10.1 12.7 10.3 12.7 10.5 12.7 10.65 12.65 10.85 12.65 11.0 12.55 11.2 12.5 11.35 12.4 11.5 12.3 11.6 12.15 11.75 12.0 11.85 11.85 11.95 11.7 12.0 11.55 12.1 11.4 12.1 11.2 12.15 11.0 12.15 10.85 12.15 10.65 12.1 10.45 12.1 10.3 12.0 10.1 11.95 9.95 11.85 9.8 11.75 9.65 11.6 9.5 11.5 9.4 11.35 9.3 11.2 9.2 11.0 9.1 10.85 9.05 10.65 9.0 10.5 8.95 10.3 8.95 L10.3 8.95 M10.3 11.85 Q10.2 11.85 10.1 11.85 10.0 11.85 9.95 11.8 9.85 11.75 9.75 11.7 9.7 11.65 9.6 11.6 9.55 11.55 9.45 11.45 9.4 11.35 9.35 11.25 9.35 11.15 9.3 11.05 9.3 10.95 9.3 10.85 9.3 10.75 9.3 10.6 9.35 10.5 9.35 10.4 9.4 10.3 9.45 10.2 9.5 10.15 9.6 10.05 9.65 10.0 9.75 9.95 9.8 9.9 9.9 9.85 10.0 9.8 10.1 9.8 10.2 9.75 10.3 9.75 10.4 9.75 10.5 9.75 10.6 9.8 10.7 9.85 10.8 9.85 10.9 9.95 10.95 10.0 11.05 10.05 11.1 10.15 11.15 10.2 11.2 10.3 11.25 10.4 11.3 10.5 11.3 10.6 11.3 10.7 11.3 10.8 11.3 10.9 11.3 11.0 11.25 11.15 11.25 11.25 11.2 11.35 11.15 11.4 11.1 11.5 11.05 11.55 11.0 11.65 10.9 11.7 10.8 11.75 10.75 11.8 10.65 11.85 10.55 11.85 10.4 11.85 10.3 11.85 L10.3 11.85" fill="#f1edf8" fill-rule="evenodd" stroke="none"/>
  </g>
</svg>
