<?xml version="1.0" encoding="UTF-8" standalone="no"?>
<svg xmlns:ffdec="https://www.free-decompiler.com/flash" xmlns:xlink="http://www.w3.org/1999/xlink" ffdec:objectType="shape" height="26.0px" width="26.0px" xmlns="http://www.w3.org/2000/svg">
  <g transform="matrix(1.0, 0.0, 0.0, 1.0, 0.0, 0.0)">
    <path d="M7.55 17.2 Q7.55 17.2 7.5 17.2 7.45 17.25 7.35 17.25 7.25 17.3 7.1 17.35 6.95 17.4 6.8 17.4 6.6 17.45 6.4 17.5 6.2 17.5 6.0 17.55 5.8 17.55 5.55 17.6 5.35 17.6 5.15 17.6 5.0 17.6 4.85 17.55 4.7 17.5 4.6 17.35 4.5 17.25 4.45 17.15 4.35 17.0 4.3 16.85 4.3 16.75 4.25 16.6 4.25 16.45 4.2 16.35 4.2 16.25 4.2 16.15 4.2 16.15 4.2 16.1 L4.2 12.7 4.15 12.75 4.05 12.8 4.0 12.75 3.9 12.75 3.9 12.7 3.95 12.7 3.95 12.65 4.0 12.6 4.1 12.6 4.1 12.55 4.25 12.5 4.25 11.25 Q4.25 11.1 4.25 11.0 4.25 10.9 4.3 10.8 4.3 10.75 4.35 10.7 4.35 10.6 4.4 10.55 4.4 10.55 4.45 10.5 4.45 10.45 4.5 10.45 4.5 10.45 4.55 10.45 4.55 10.4 4.55 10.4 L4.55 9.85 2.5 9.85 2.5 10.35 Q2.55 10.4 2.6 10.45 2.65 10.5 2.7 10.55 2.75 10.6 2.75 10.7 2.8 10.75 2.8 10.85 2.8 10.9 2.85 10.95 2.85 11.0 2.85 11.05 2.85 11.1 2.85 11.15 2.85 11.15 2.85 11.15 L2.85 16.0 Q2.85 16.25 2.85 16.5 2.8 16.7 2.8 16.9 2.75 17.1 2.7 17.2 2.7 17.35 2.65 17.45 2.6 17.55 2.55 17.65 2.55 17.7 2.5 17.75 2.5 17.75 2.45 17.8 2.45 17.8 2.45 17.8 L2.4 18.7 4.8 18.7 4.8 18.65 6.95 18.7 Q6.95 18.65 8.05 18.7 L8.05 17.2 7.55 17.2" fill="#f1edf8" fill-rule="evenodd" stroke="none"/>
    <path d="M16.7 10.45 L16.95 10.45 17.0 10.35 17.35 10.35 17.35 9.85 15.35 9.85 12.85 13.35 10.45 9.85 8.4 9.85 8.4 10.45 Q8.45 10.45 8.5 10.5 8.5 10.5 8.55 10.55 8.55 10.6 8.6 10.65 8.6 10.7 8.6 10.75 8.65 10.8 8.65 10.85 8.65 10.9 8.65 10.95 8.65 10.95 8.65 11.0 8.65 11.0 8.65 11.0 L8.65 17.15 Q8.65 17.3 8.65 17.4 8.6 17.55 8.6 17.65 8.55 17.75 8.55 17.8 8.5 17.85 8.45 17.95 8.4 18.0 8.4 18.0 8.35 18.05 8.3 18.05 8.3 18.1 8.25 18.1 8.25 18.1 8.25 18.1 L8.25 18.65 10.35 18.65 10.35 18.1 Q10.3 18.1 10.25 18.05 10.2 18.0 10.15 17.9 10.1 17.85 10.05 17.75 10.05 17.7 10.05 17.6 10.0 17.5 10.0 17.4 10.0 17.35 10.0 17.25 10.0 17.2 10.0 17.15 10.0 17.15 10.0 17.1 L10.0 16.65 Q10.0 16.65 9.95 16.65 9.9 16.7 9.9 16.7 9.85 16.75 9.8 16.75 9.7 16.8 9.7 16.7 9.75 16.7 9.75 16.65 L9.8 16.65 9.8 16.6 9.85 16.55 10.0 16.45 10.0 12.15 10.05 12.15 12.8 15.8 15.45 12.15 15.5 12.15 15.5 17.2 Q15.5 17.35 15.5 17.45 15.5 17.6 15.45 17.65 15.45 17.75 15.4 17.85 15.4 17.9 15.35 17.95 15.35 18.0 15.3 18.0 15.25 18.05 15.25 18.05 15.25 18.05 15.2 18.1 15.2 18.1 15.2 18.1 L15.2 18.65 17.35 18.65 17.35 18.1 Q17.3 18.05 17.25 18.0 17.2 17.95 17.2 17.9 17.15 17.85 17.1 17.75 17.1 17.7 17.1 17.6 17.05 17.55 17.05 17.45 17.05 17.4 17.05 17.35 17.05 17.3 17.0 17.25 17.0 17.2 17.0 17.2 L17.0 13.35 16.9 13.35 16.9 13.25 16.75 13.2 16.8 13.15 16.7 13.1 16.65 13.05 16.6 12.9 16.7 12.95 16.75 12.9 16.8 13.0 16.85 12.9 17.05 12.9 17.05 10.65 17.1 10.5 17.0 10.55 16.85 10.55 16.8 10.6 16.6 10.6 16.7 10.5 16.7 10.45 M14.1 13.75 L13.9 13.7 13.9 13.65 13.8 13.65 13.85 13.45 14.05 13.5 14.1 13.6 14.15 13.65 14.1 13.75" fill="#f1edf8" fill-rule="evenodd" stroke="none"/>
    <path d="M20.4 13.55 L19.45 13.55 19.45 13.55 19.35 13.45 19.35 13.4 19.45 13.4 19.45 12.3 19.4 12.2 19.35 12.05 19.35 11.9 19.4 11.8 19.45 11.85 19.45 11.8 19.45 10.95 20.65 10.95 Q20.65 10.95 20.7 10.95 20.8 10.95 20.85 11.0 20.95 11.0 21.05 11.05 21.2 11.1 21.3 11.15 21.45 11.25 21.55 11.35 21.7 11.45 21.75 11.55 21.85 11.7 21.9 11.9 21.95 12.1 21.95 12.3 21.95 12.3 21.95 12.35 21.95 12.45 21.95 12.5 21.95 12.6 21.9 12.7 21.85 12.85 21.8 12.95 21.75 13.05 21.65 13.15 21.5 13.3 21.35 13.35 21.2 13.45 20.95 13.5 20.7 13.55 20.4 13.55 L20.4 13.55 M22.2 14.1 Q22.3 14.05 22.4 13.95 22.5 13.9 22.55 13.85 22.65 13.75 22.7 13.65 22.8 13.55 22.85 13.45 22.95 13.35 23.0 13.25 23.05 13.15 23.1 13.0 23.15 12.9 23.15 12.75 23.2 12.6 23.2 12.45 23.25 11.95 23.15 11.5 23.05 11.1 22.9 10.8 22.75 10.55 22.5 10.35 22.3 10.2 22.05 10.05 21.85 9.95 21.6 9.9 21.4 9.85 21.2 9.85 21.05 9.8 20.9 9.8 20.85 9.85 20.8 9.85 L17.6 9.85 17.6 9.9 17.6 10.55 17.9 10.9 17.9 11.1 18.0 11.15 18.0 12.0 18.05 12.0 18.05 12.15 18.3 12.2 18.6 12.25 18.5 12.35 18.1 12.35 18.05 12.45 18.0 12.6 18.0 16.9 Q18.0 16.9 18.0 16.95 18.0 17.0 18.0 17.05 18.0 17.15 18.0 17.25 17.95 17.35 17.95 17.45 17.95 17.55 17.9 17.65 17.9 17.75 17.85 17.85 17.8 17.9 17.75 17.95 17.7 18.05 17.6 18.05 L17.6 18.65 19.3 18.65 21.3 18.65 Q21.3 18.65 21.4 18.65 21.5 18.65 21.6 18.65 21.8 18.65 21.95 18.6 22.15 18.6 22.35 18.5 22.55 18.45 22.75 18.3 22.95 18.2 23.1 18.0 23.25 17.8 23.4 17.5 23.5 17.2 23.55 16.85 23.6 16.6 23.6 16.35 23.6 16.1 23.55 15.85 23.55 15.65 23.45 15.45 23.4 15.25 23.3 15.05 23.25 14.85 23.1 14.7 23.0 14.55 22.85 14.45 22.7 14.3 22.55 14.25 22.4 14.15 22.2 14.1 L22.2 14.1 M19.45 17.55 Q19.45 17.45 19.45 17.35 L19.45 14.8 19.55 14.8 20.9 14.8 Q20.9 14.8 20.95 14.8 21.0 14.8 21.1 14.8 21.2 14.8 21.3 14.85 21.4 14.9 21.5 14.95 21.6 15.0 21.7 15.1 21.8 15.2 21.9 15.3 22.0 15.45 22.05 15.65 22.1 15.85 22.1 16.05 22.1 16.05 22.1 16.15 22.1 16.25 22.05 16.4 22.05 16.55 21.95 16.7 21.9 16.9 21.8 17.05 21.65 17.2 21.5 17.35 21.3 17.5 21.0 17.55 20.7 17.65 20.35 17.65 19.95 17.65 19.45 17.55 L19.45 17.55" fill="#f1edf8" fill-rule="evenodd" stroke="none"/>
  </g>
</svg>
