<?xml version="1.0" encoding="UTF-8" standalone="no"?>
<svg xmlns:ffdec="https://www.free-decompiler.com/flash" xmlns:xlink="http://www.w3.org/1999/xlink" ffdec:objectType="shape" height="26.0px" width="26.0px" xmlns="http://www.w3.org/2000/svg">
  <g transform="matrix(1.0, 0.0, 0.0, 1.0, 0.0, 0.0)">
    <path d="M23.95 2.2 L23.9 2.25 Q24.0 2.45 24.25 4.05 24.25 4.1 23.8 4.85 23.4 5.65 23.4 5.75 23.4 5.75 23.45 5.75 23.5 5.75 23.5 5.75 23.55 5.75 23.6 5.7 23.65 5.65 23.75 5.65 23.75 5.65 23.75 5.65 23.85 5.4 24.2 4.8 24.45 4.3 24.45 4.25 24.4 4.05 24.4 3.85 24.05 1.5 24.35 3.5 24.3 3.3 24.3 3.15 24.25 3.0 24.25 2.9 24.2 2.75 24.2 2.65 24.15 2.55 24.1 2.45 24.1 2.4 24.05 2.3 24.0 2.25 23.95 2.2 L23.95 2.2 M24.75 5.2 Q24.7 5.2 24.6 5.3 24.8 7.45 25.0 9.55 L24.55 10.15 24.8 10.3 25.2 9.75 Q25.2 9.75 25.1 8.3 24.95 6.5 24.75 5.2 24.75 5.2 24.75 5.2 24.75 5.2 24.75 5.2 L24.75 5.2 M25.0 10.45 L25.0 14.0 24.55 14.3 24.8 14.45 25.2 14.2 25.2 10.55 25.0 10.45 M25.0 14.65 L25.0 15.7 25.0 16.45 25.0 17.15 24.1 18.05 24.45 18.1 25.2 17.35 25.2 16.65 25.2 15.9 25.2 14.8 25.0 14.65 M25.0 18.4 L25.0 24.35 Q25.0 24.35 25.0 24.35 25.0 24.35 25.0 24.4 25.0 24.4 25.0 24.4 25.0 24.6 25.0 24.65 24.95 24.7 24.9 24.75 24.85 24.75 24.65 24.75 24.6 24.75 24.6 24.75 24.6 24.75 24.6 24.75 L23.85 24.75 23.1 24.7 22.45 24.75 21.7 24.75 21.0 24.75 20.3 24.75 19.45 24.55 19.1 24.75 18.15 24.75 17.6 24.4 16.7 24.75 16.1 24.75 15.55 24.5 15.4 24.75 14.05 24.75 13.25 24.6 12.0 24.75 11.7 24.75 10.75 24.75 10.75 24.95 11.9 24.95 12.2 24.95 13.45 24.85 14.25 24.95 15.6 24.95 15.75 24.7 16.3 24.95 16.9 24.95 17.8 24.6 18.35 24.95 19.3 24.95 19.65 24.75 20.5 24.95 21.2 24.95 21.9 24.95 22.65 24.95 23.3 24.9 24.05 24.95 24.8 24.95 Q24.8 24.95 24.8 24.95 24.8 24.95 24.85 24.95 25.05 24.95 25.1 24.95 25.15 24.9 25.2 24.85 25.2 24.8 25.2 24.6 25.2 24.6 25.2 24.6 25.2 24.55 25.2 24.55 25.2 24.55 25.2 24.55 L25.2 18.45 25.0 18.4 M4.4 23.9 L4.35 24.75 3.1 24.75 2.4 24.75 1.7 24.75 Q1.65 24.75 1.55 24.75 1.55 24.75 1.5 24.75 1.5 24.8 1.5 24.85 1.5 24.9 1.55 24.9 1.55 24.9 1.6 24.95 1.65 24.95 1.7 24.95 1.7 24.95 1.9 24.95 L2.6 24.95 3.3 24.95 4.55 24.95 4.6 24.1 4.4 23.9 M10.45 24.2 L9.55 24.75 5.25 24.75 5.45 24.95 9.75 24.95 10.5 24.5 10.45 24.2" fill="#ffffff" fill-rule="evenodd" stroke="none"/>
    <path d="M12.4 0.95 L12.2 1.5 11.75 0.95 10.25 0.95 8.9 0.95 8.35 1.45 8.1 0.95 7.4 0.95 1.7 0.95 Q1.6 0.95 1.55 0.95 1.5 0.95 1.45 0.95 1.4 1.0 1.4 1.0 1.35 1.0 1.35 1.0 1.3 1.05 1.3 1.05 1.3 1.1 1.3 1.15 1.3 1.15 1.3 1.2 1.3 1.25 1.3 1.35 1.3 1.35 1.3 1.35 L1.3 3.0 2.0 2.7 1.3 3.5 1.3 4.35 1.9 4.35 1.3 5.65 1.3 6.4 1.5 7.55 1.3 7.2 1.3 9.15 2.0 9.5 1.3 10.0 1.3 23.6 1.3 24.35 Q1.3 24.6 1.3 24.65 1.3 24.7 1.4 24.75 1.4 24.75 1.7 24.75 L2.4 24.75 3.1 24.75 4.35 24.75 4.4 23.9 5.25 24.75 9.55 24.75 10.45 24.2 10.55 24.75 11.7 24.75 12.0 24.75 13.25 24.65 14.05 24.75 15.4 24.75 15.55 24.5 16.1 24.75 16.7 24.75 17.6 24.4 18.15 24.75 19.1 24.75 19.45 24.55 20.3 24.75 21.0 24.75 21.7 24.75 22.45 24.75 23.1 24.7 23.85 24.75 24.6 24.75 Q24.6 24.75 24.6 24.75 24.6 24.75 24.65 24.75 24.85 24.75 24.9 24.75 24.95 24.7 25.0 24.65 25.0 24.6 25.0 24.4 25.0 24.4 25.0 24.4 25.0 24.35 25.0 24.35 25.0 24.35 25.0 24.35 L25.0 18.25 24.1 18.05 25.0 17.15 25.0 16.45 25.0 15.7 25.0 14.6 24.55 14.3 25.0 14.0 25.0 10.35 24.55 10.15 25.0 9.55 Q25.0 9.55 24.9 8.1 24.75 6.3 24.55 5.0 24.55 5.0 24.5 5.0 24.45 5.05 24.4 5.1 24.3 5.15 24.2 5.25 24.05 5.4 24.0 5.4 23.9 5.5 23.8 5.55 23.7 5.65 23.65 5.7 23.55 5.75 23.5 5.75 23.45 5.8 23.4 5.75 23.4 5.65 23.8 4.9 24.25 4.1 24.25 4.05 24.2 3.85 24.2 3.65 24.05 2.75 24.15 3.3 24.1 3.1 24.1 2.95 24.05 2.8 24.05 2.7 24.0 2.55 24.0 2.45 23.95 2.35 23.9 2.25 23.85 2.2 23.85 2.1 23.8 2.05 23.75 2.0 23.7 1.95 23.55 1.9 23.45 1.85 23.3 1.8 23.15 1.75 22.95 1.7 22.75 1.65 22.5 1.6 22.25 1.6 22.0 1.55 21.75 1.5 21.45 1.45 21.15 1.45 20.85 1.4 20.55 1.35 20.2 1.35 20.2 1.35 20.15 1.4 20.1 1.4 20.1 1.5 20.05 1.55 20.0 1.6 20.0 1.65 19.95 1.8 19.9 1.9 19.85 1.95 19.8 2.0 19.75 2.1 19.75 2.15 19.7 2.2 19.65 2.2 19.65 2.2 19.6 2.2 19.6 2.15 19.55 2.1 19.55 2.05 19.55 2.0 19.5 1.9 19.5 1.85 19.5 1.75 19.45 1.6 19.45 1.55 19.45 1.5 19.4 1.4 19.4 1.35 19.35 1.3 19.35 1.25 19.3 1.25 15.85 1.1 12.4 0.95 L12.4 0.95" fill="#000000" fill-rule="evenodd" stroke="none"/>
  </g>
</svg>
