<?xml version="1.0" encoding="UTF-8" standalone="no"?>
<svg xmlns:ffdec="https://www.free-decompiler.com/flash" xmlns:xlink="http://www.w3.org/1999/xlink" ffdec:objectType="shape" height="26.0px" width="26.0px" xmlns="http://www.w3.org/2000/svg">
  <g transform="matrix(1.0, 0.0, 0.0, 1.0, 0.0, 0.0)">
    <path d="M16.7 10.45 L16.95 10.45 17.0 10.35 17.35 10.35 17.35 9.85 15.35 9.85 12.85 13.35 10.45 9.85 8.4 9.85 8.4 10.45 Q8.45 10.45 8.5 10.5 8.5 10.5 8.55 10.55 8.55 10.6 8.6 10.65 8.6 10.7 8.6 10.75 8.65 10.8 8.65 10.85 8.65 10.9 8.65 10.95 8.65 10.95 8.65 11.0 8.65 11.0 8.65 11.0 L8.65 17.15 Q8.65 17.3 8.65 17.4 8.6 17.55 8.6 17.65 8.55 17.75 8.55 17.8 8.5 17.85 8.45 17.95 8.4 18.0 8.4 18.0 8.35 18.05 8.3 18.05 8.3 18.1 8.25 18.1 8.25 18.1 8.25 18.1 L8.25 18.65 10.35 18.65 10.35 18.1 Q10.3 18.1 10.25 18.05 10.2 18.0 10.15 17.9 10.1 17.85 10.05 17.75 10.05 17.7 10.05 17.6 10.0 17.5 10.0 17.4 10.0 17.35 10.0 17.25 10.0 17.2 10.0 17.15 10.0 17.15 10.0 17.1 L10.0 16.65 Q10.0 16.65 9.95 16.65 9.9 16.7 9.9 16.7 9.85 16.75 9.8 16.75 9.7 16.8 9.7 16.7 9.75 16.7 9.75 16.65 L9.8 16.65 9.8 16.6 9.85 16.55 10.0 16.45 10.0 12.15 10.05 12.15 12.8 15.8 15.45 12.15 15.5 12.15 15.5 17.2 Q15.5 17.35 15.5 17.45 15.5 17.6 15.45 17.65 15.45 17.75 15.4 17.85 15.4 17.9 15.35 17.95 15.35 18.0 15.3 18.0 15.25 18.05 15.25 18.05 15.25 18.05 15.2 18.1 15.2 18.1 15.2 18.1 L15.2 18.65 17.35 18.65 17.35 18.1 Q17.3 18.05 17.25 18.0 17.2 17.95 17.2 17.9 17.15 17.85 17.1 17.75 17.1 17.7 17.1 17.6 17.05 17.55 17.05 17.45 17.05 17.4 17.05 17.35 17.05 17.3 17.0 17.25 17.0 17.2 17.0 17.2 L17.0 13.35 16.9 13.35 16.9 13.25 16.75 13.2 16.8 13.15 16.7 13.1 16.65 13.05 16.6 12.9 16.7 12.95 16.75 12.9 16.8 13.0 16.85 12.9 17.05 12.9 17.05 10.65 17.1 10.5 17.0 10.55 16.85 10.55 16.8 10.6 16.6 10.6 16.7 10.5 16.7 10.45 M14.1 13.75 L13.9 13.7 13.9 13.65 13.8 13.65 13.85 13.45 14.05 13.5 14.1 13.6 14.15 13.65 14.1 13.75" fill="#f1edf8" fill-rule="evenodd" stroke="none"/>
    <path d="M20.4 13.55 L19.45 13.55 19.45 13.55 19.35 13.45 19.35 13.4 19.45 13.4 19.45 12.3 19.4 12.2 19.35 12.05 19.35 11.9 19.4 11.8 19.45 11.85 19.45 11.8 19.45 10.95 20.65 10.95 Q20.65 10.95 20.7 10.95 20.8 10.95 20.85 11.0 20.95 11.0 21.05 11.05 21.2 11.1 21.3 11.15 21.45 11.25 21.55 11.35 21.7 11.45 21.75 11.55 21.85 11.7 21.9 11.9 21.95 12.1 21.95 12.3 21.95 12.3 21.95 12.35 21.95 12.45 21.95 12.5 21.95 12.6 21.9 12.7 21.85 12.85 21.8 12.95 21.75 13.05 21.65 13.15 21.5 13.3 21.35 13.35 21.2 13.45 20.95 13.5 20.7 13.55 20.4 13.55 L20.4 13.55 M22.2 14.1 Q22.3 14.05 22.4 13.95 22.5 13.9 22.55 13.85 22.65 13.75 22.7 13.65 22.8 13.55 22.85 13.45 22.95 13.35 23.0 13.25 23.05 13.15 23.1 13.0 23.15 12.9 23.15 12.75 23.2 12.6 23.2 12.45 23.25 11.95 23.15 11.5 23.05 11.1 22.9 10.8 22.75 10.55 22.5 10.35 22.3 10.2 22.05 10.05 21.85 9.95 21.6 9.9 21.4 9.85 21.2 9.85 21.05 9.8 20.9 9.8 20.85 9.85 20.8 9.85 L17.6 9.85 17.6 9.9 17.6 10.55 17.9 10.9 17.9 11.1 18.0 11.15 18.0 12.0 18.05 12.0 18.05 12.15 18.3 12.2 18.6 12.25 18.5 12.35 18.1 12.35 18.05 12.45 18.0 12.6 18.0 16.9 Q18.0 16.9 18.0 16.95 18.0 17.0 18.0 17.05 18.0 17.15 18.0 17.25 17.95 17.35 17.95 17.45 17.95 17.55 17.9 17.65 17.9 17.75 17.85 17.85 17.8 17.9 17.75 17.95 17.7 18.05 17.6 18.05 L17.6 18.65 19.3 18.65 21.3 18.65 Q21.3 18.65 21.4 18.65 21.5 18.65 21.6 18.65 21.8 18.65 21.95 18.6 22.15 18.6 22.35 18.5 22.55 18.45 22.75 18.3 22.95 18.2 23.1 18.0 23.25 17.8 23.4 17.5 23.5 17.2 23.55 16.85 23.6 16.6 23.6 16.35 23.6 16.1 23.55 15.85 23.55 15.65 23.45 15.45 23.4 15.25 23.3 15.05 23.25 14.85 23.1 14.7 23.0 14.55 22.85 14.45 22.7 14.3 22.55 14.25 22.4 14.15 22.2 14.1 L22.2 14.1 M19.45 17.55 Q19.45 17.45 19.45 17.35 L19.45 14.8 19.55 14.8 20.9 14.8 Q20.9 14.8 20.95 14.8 21.0 14.8 21.1 14.8 21.2 14.8 21.3 14.85 21.4 14.9 21.5 14.95 21.6 15.0 21.7 15.1 21.8 15.2 21.9 15.3 22.0 15.45 22.05 15.65 22.1 15.85 22.1 16.05 22.1 16.05 22.1 16.15 22.1 16.25 22.05 16.4 22.05 16.55 21.95 16.7 21.9 16.9 21.8 17.05 21.65 17.2 21.5 17.35 21.3 17.5 21.0 17.55 20.7 17.65 20.35 17.65 19.95 17.65 19.45 17.55 L19.45 17.55" fill="#f1edf8" fill-rule="evenodd" stroke="none"/>
    <path d="M7.1 15.85 Q7.1 15.85 7.1 15.85 7.05 15.8 7.0 15.75 7.0 15.7 6.95 15.65 6.85 15.55 6.8 15.5 6.75 15.4 6.7 15.3 6.6 15.2 6.55 15.1 6.45 14.95 6.4 14.85 6.35 14.75 6.3 14.6 6.3 14.6 6.4 14.6 6.5 14.6 6.6 14.55 6.75 14.55 6.9 14.5 7.1 14.4 7.25 14.3 7.45 14.2 7.65 14.05 7.8 13.9 7.95 13.65 8.1 13.4 8.15 13.15 8.25 12.8 8.25 12.4 8.25 11.95 8.15 11.55 8.0 11.2 7.8 10.9 7.65 10.65 7.35 10.45 7.15 10.3 6.85 10.15 6.6 10.05 6.35 10.0 6.1 9.9 5.9 9.9 5.7 9.85 5.55 9.85 5.5 9.85 5.45 9.85 L2.25 9.85 2.25 9.95 2.25 10.4 2.55 10.75 2.55 10.95 2.6 11.0 2.6 11.85 2.7 11.85 2.7 12.0 2.95 12.05 3.2 12.1 3.15 12.2 2.7 12.2 2.65 12.35 2.65 12.5 2.65 17.05 Q2.65 17.05 2.65 17.1 2.65 17.15 2.65 17.2 2.65 17.3 2.6 17.35 2.6 17.45 2.6 17.55 2.55 17.65 2.55 17.75 2.5 17.85 2.45 17.9 2.4 17.95 2.35 18.0 2.3 18.05 2.25 18.05 L2.25 18.7 4.4 18.7 4.4 18.05 Q4.4 18.05 4.4 18.05 4.35 18.05 4.35 18.05 4.3 18.05 4.25 18.05 4.25 18.0 4.2 17.95 4.15 17.95 4.15 17.85 4.1 17.8 4.05 17.7 4.05 17.55 4.05 17.4 4.0 17.25 4.0 17.05 L4.0 13.85 3.9 13.75 3.95 13.7 4.0 13.7 4.0 12.7 3.95 12.6 3.9 12.45 3.9 12.15 3.95 12.05 4.0 12.1 4.0 12.05 4.0 11.1 5.45 11.1 Q5.45 11.1 5.5 11.1 5.6 11.1 5.7 11.1 5.8 11.1 5.95 11.15 6.1 11.2 6.2 11.25 6.35 11.3 6.5 11.35 6.65 11.45 6.75 11.6 6.85 11.7 6.9 11.9 6.95 12.05 6.95 12.3 L6.95 12.45 Q6.95 12.45 6.95 12.5 6.95 12.6 6.95 12.65 6.9 12.75 6.9 12.85 6.85 13.0 6.8 13.1 6.7 13.2 6.6 13.3 6.5 13.45 6.3 13.5 6.15 13.6 5.95 13.65 5.7 13.7 5.4 13.7 L5.0 13.7 5.0 15.3 6.0 17.0 Q6.0 17.0 6.05 17.05 6.1 17.15 6.15 17.25 6.25 17.4 6.35 17.5 6.45 17.7 6.6 17.8 6.75 18.0 6.85 18.15 7.0 18.3 7.15 18.4 7.3 18.5 7.45 18.6 7.6 18.65 7.75 18.7 L8.6 18.7 8.6 18.1 Q8.6 18.1 8.55 18.1 8.5 18.1 8.45 18.05 8.35 18.0 8.25 17.95 8.15 17.9 8.05 17.8 7.95 17.65 7.85 17.5 7.7 17.35 7.6 17.1 7.45 16.85 7.35 16.55 7.2 16.25 7.1 15.85 L7.1 15.85" fill="#f1edf8" fill-rule="evenodd" stroke="none"/>
  </g>
</svg>
