<?xml version="1.0" encoding="UTF-8" standalone="no"?>
<svg xmlns:ffdec="https://www.free-decompiler.com/flash" xmlns:xlink="http://www.w3.org/1999/xlink" ffdec:objectType="shape" height="26.0px" width="26.0px" xmlns="http://www.w3.org/2000/svg">
  <g transform="matrix(1.0, 0.0, 0.0, 1.0, 0.0, 0.0)">
    <path d="M3.6 5.6 Q3.45 5.6 3.3 5.65 3.15 5.65 3.0 5.75 2.9 5.8 2.75 5.85 2.65 5.95 2.55 6.05 2.4 6.15 2.35 6.3 2.25 6.4 2.2 6.55 2.15 6.7 2.1 6.85 2.1 7.0 2.1 7.15 L2.1 18.85 Q2.1 19.0 2.1 19.15 2.15 19.3 2.2 19.45 2.25 19.6 2.35 19.7 2.45 19.85 2.55 19.95 2.65 20.05 2.75 20.15 2.9 20.2 3.05 20.25 3.15 20.35 3.3 20.35 3.45 20.4 3.6 20.4 L22.35 20.4 Q22.5 20.4 22.65 20.35 22.8 20.35 22.95 20.25 23.1 20.2 23.25 20.15 23.35 20.05 23.45 19.95 23.55 19.85 23.65 19.7 23.75 19.6 23.8 19.45 23.85 19.3 23.9 19.15 23.9 19.0 23.9 18.85 L23.9 11.2 23.75 11.25 23.45 11.35 Q22.95 11.55 22.4 11.7 L22.4 18.85 Q22.45 18.9 22.35 18.9 L14.45 18.9 14.45 19.05 14.6 19.4 14.4 19.4 14.3 19.2 14.3 19.05 14.1 19.0 14.05 18.9 3.6 18.9 Q3.6 18.9 3.6 18.85 L3.6 9.95 Q3.6 9.95 3.6 9.95 3.55 9.9 3.55 9.9 3.5 9.85 3.45 9.8 3.45 9.8 3.4 9.75 3.35 9.7 3.3 9.65 3.25 9.65 3.2 9.6 3.15 9.55 3.1 9.5 3.05 9.5 3.0 9.45 2.75 9.15 2.45 8.85 2.55 8.9 2.65 9.0 2.75 9.05 2.9 9.05 2.95 9.1 3.05 9.15 3.15 9.15 3.25 9.2 3.3 9.2 3.4 9.2 3.45 9.2 3.5 9.2 3.5 9.2 3.55 9.2 3.6 9.2 3.6 9.2 L3.6 7.15 Q3.55 7.1 3.6 7.1 L22.35 7.1 Q22.4 7.1 22.4 7.15 L22.4 11.2 22.4 11.45 Q22.4 11.45 22.4 11.45 22.45 11.45 22.5 11.45 22.55 11.4 22.55 11.4 22.65 11.4 22.7 11.4 22.8 11.35 22.85 11.35 23.0 11.3 23.1 11.25 23.2 11.2 23.35 11.15 23.5 11.1 23.7 11.05 L23.9 10.9 23.9 7.15 Q23.9 7.0 23.9 6.85 23.85 6.7 23.8 6.55 23.75 6.4 23.65 6.3 23.55 6.15 23.45 6.05 23.35 5.95 23.25 5.85 23.1 5.8 22.95 5.75 22.85 5.65 22.7 5.65 22.55 5.6 22.35 5.6 L3.6 5.6" fill="#f1edf8" fill-rule="evenodd" stroke="none"/>
    <path d="M13.9 8.7 L14.2 8.7 14.25 8.6 14.65 8.6 14.65 8.0 12.35 8.0 9.55 11.95 6.8 8.0 4.5 8.0 4.5 8.7 Q4.55 8.7 4.6 8.75 4.65 8.8 4.65 8.85 4.7 8.9 4.7 8.95 4.75 9.0 4.75 9.05 4.75 9.1 4.8 9.15 4.8 9.2 4.8 9.25 4.8 9.3 4.8 9.3 4.8 9.3 4.8 9.35 L4.8 16.3 Q4.8 16.45 4.8 16.6 4.75 16.75 4.75 16.85 4.7 16.95 4.65 17.0 4.6 17.1 4.55 17.15 4.55 17.2 4.5 17.25 4.45 17.3 4.4 17.3 4.4 17.35 4.35 17.35 4.35 17.35 4.35 17.35 L4.35 18.0 6.7 18.0 6.7 17.35 Q6.65 17.35 6.55 17.3 6.5 17.25 6.45 17.15 6.4 17.05 6.4 16.95 6.35 16.9 6.35 16.75 6.35 16.65 6.3 16.55 6.3 16.5 6.3 16.4 6.3 16.35 6.3 16.3 6.3 16.25 6.3 16.25 L6.3 15.7 Q6.3 15.7 6.25 15.75 6.2 15.75 6.2 15.75 6.15 15.8 6.1 15.85 6.0 15.85 6.0 15.8 6.0 15.75 6.0 15.7 L6.05 15.7 6.1 15.65 6.15 15.6 6.3 15.5 6.3 10.6 6.4 10.6 9.5 14.75 12.45 10.6 12.55 10.6 12.55 16.3 Q12.55 16.45 12.55 16.6 12.5 16.75 12.5 16.85 12.45 16.95 12.45 17.05 12.4 17.1 12.35 17.15 12.35 17.2 12.3 17.25 12.3 17.3 12.25 17.3 12.25 17.3 12.2 17.35 12.2 17.35 12.2 17.35 L12.2 18.0 14.65 18.0 14.65 17.35 Q14.6 17.3 14.55 17.25 14.5 17.2 14.45 17.15 14.4 17.05 14.35 16.95 14.35 16.9 14.3 16.8 14.3 16.7 14.3 16.6 14.25 16.55 14.25 16.5 14.25 16.45 14.25 16.4 14.25 16.35 14.25 16.35 L14.25 12.0 14.1 11.95 14.1 11.85 13.95 11.85 14.0 11.75 13.9 11.7 13.85 11.65 13.75 11.5 13.85 11.55 13.95 11.45 14.0 11.55 14.05 11.5 14.3 11.45 14.3 8.9 14.35 8.75 14.25 8.85 14.05 8.8 14.0 8.9 13.75 8.85 13.9 8.75 13.9 8.7 M10.95 12.45 L10.75 12.4 10.75 12.35 10.6 12.3 10.7 12.1 10.9 12.15 10.95 12.3 11.0 12.3 10.95 12.45" fill="#f1edf8" fill-rule="evenodd" stroke="none"/>
    <path d="M21.3 15.25 Q21.25 15.15 21.25 14.95 21.25 14.8 21.3 14.65 21.3 14.5 21.35 14.3 21.35 14.15 21.4 13.95 21.45 13.8 21.5 13.65 21.55 13.55 21.6 13.4 21.6 13.3 21.65 13.25 21.65 13.2 21.65 13.2 L20.95 13.2 Q20.85 13.4 20.75 13.55 20.65 13.7 20.55 13.8 20.45 13.9 20.4 14.0 20.35 14.05 20.3 14.05 20.25 14.1 20.2 14.05 20.15 14.05 20.15 14.0 20.1 13.95 20.1 13.85 20.1 13.8 20.1 13.7 20.05 10.95 20.05 8.0 20.05 8.0 20.05 8.0 20.05 8.0 20.0 8.0 19.95 8.0 19.9 8.0 19.85 8.0 19.8 8.05 19.75 8.05 19.7 8.05 19.6 8.05 19.55 8.1 19.45 8.1 19.4 8.15 19.3 8.2 19.25 8.25 19.1 8.35 17.45 10.65 16.05 12.75 14.6 14.8 14.6 14.85 14.55 14.9 14.55 14.9 14.55 14.95 14.55 15.0 14.55 15.05 14.55 15.1 14.55 15.1 14.55 15.15 14.55 15.15 14.6 15.2 14.65 15.25 14.7 15.25 14.75 15.25 14.8 15.25 14.85 15.25 L18.8 15.25 Q18.8 15.6 18.8 15.85 18.8 16.15 18.75 16.35 18.75 16.55 18.7 16.7 18.65 16.85 18.6 16.95 18.55 17.05 18.5 17.15 18.45 17.2 18.4 17.25 18.35 17.3 18.3 17.3 18.25 17.3 18.15 17.3 18.1 17.3 18.05 17.35 18.0 17.35 18.0 17.4 17.95 17.45 17.95 17.5 17.9 17.6 17.9 17.65 17.9 17.7 17.9 17.75 17.9 17.8 17.9 17.9 17.9 17.9 17.9 17.95 17.9 17.95 17.9 18.0 L20.9 18.0 Q20.9 18.0 20.9 17.85 20.9 17.75 20.9 17.7 20.9 17.6 20.9 17.55 20.9 17.5 20.9 17.45 20.9 17.4 20.85 17.4 20.85 17.35 20.8 17.35 20.8 17.3 20.75 17.3 20.7 17.3 20.65 17.3 20.55 17.3 20.45 17.2 20.35 17.15 20.3 17.0 20.2 16.85 20.2 16.65 20.15 16.5 20.1 16.3 20.1 16.1 20.1 15.9 20.1 15.75 20.1 15.6 20.1 15.45 20.1 15.35 20.1 15.3 20.1 15.25 20.2 15.25 20.35 15.3 20.45 15.3 20.6 15.35 20.65 15.4 20.8 15.45 20.95 15.5 21.0 15.5 21.1 15.55 21.2 15.55 21.25 15.6 21.3 15.55 21.35 15.55 21.35 15.45 21.35 15.4 21.3 15.25 L21.3 15.25 M18.8 14.1 Q18.8 14.1 17.75 14.1 16.7 14.1 16.7 14.1 L18.8 10.85 18.8 14.1" fill="#f1edf8" fill-rule="evenodd" stroke="none"/>
  </g>
</svg>
