<?xml version="1.0" encoding="UTF-8" standalone="no"?>
<svg xmlns:ffdec="https://www.free-decompiler.com/flash" xmlns:xlink="http://www.w3.org/1999/xlink" ffdec:objectType="shape" height="26.0px" width="26.0px" xmlns="http://www.w3.org/2000/svg">
  <g transform="matrix(1.0, 0.0, 0.0, 1.0, 0.0, 0.0)">
    <path d="M3.6 5.6 Q3.45 5.6 3.3 5.65 3.15 5.65 3.0 5.75 2.9 5.8 2.75 5.85 2.65 5.95 2.55 6.05 2.4 6.15 2.35 6.3 2.25 6.4 2.2 6.55 2.15 6.7 2.1 6.85 2.1 7.0 2.1 7.15 L2.1 18.85 Q2.1 19.0 2.1 19.15 2.15 19.3 2.2 19.45 2.25 19.6 2.35 19.7 2.45 19.85 2.55 19.95 2.65 20.05 2.75 20.15 2.9 20.2 3.05 20.25 3.15 20.35 3.3 20.35 3.45 20.4 3.6 20.4 L22.35 20.4 Q22.5 20.4 22.65 20.35 22.8 20.35 22.95 20.25 23.1 20.2 23.25 20.15 23.35 20.05 23.45 19.95 23.55 19.85 23.65 19.7 23.75 19.6 23.8 19.45 23.85 19.3 23.9 19.15 23.9 19.0 23.9 18.85 L23.9 11.2 23.75 11.25 23.45 11.35 Q22.95 11.55 22.4 11.7 L22.4 18.85 Q22.45 18.9 22.35 18.9 L14.45 18.9 14.45 19.05 14.6 19.4 14.4 19.4 14.3 19.2 14.3 19.05 14.1 19.0 14.05 18.9 3.6 18.9 Q3.6 18.9 3.6 18.85 L3.6 9.95 Q3.6 9.95 3.6 9.95 3.55 9.9 3.55 9.9 3.5 9.85 3.45 9.8 3.45 9.8 3.4 9.75 3.35 9.7 3.3 9.65 3.25 9.65 3.2 9.6 3.15 9.55 3.1 9.5 3.05 9.5 3.0 9.45 2.75 9.15 2.45 8.85 2.55 8.9 2.65 9.0 2.75 9.05 2.9 9.05 2.95 9.1 3.05 9.15 3.15 9.15 3.25 9.2 3.3 9.2 3.4 9.2 3.45 9.2 3.5 9.2 3.5 9.2 3.55 9.2 3.6 9.2 3.6 9.2 L3.6 7.15 Q3.55 7.1 3.6 7.1 L22.35 7.1 Q22.4 7.1 22.4 7.15 L22.4 11.2 22.4 11.45 Q22.4 11.45 22.4 11.45 22.45 11.45 22.5 11.45 22.55 11.4 22.55 11.4 22.65 11.4 22.7 11.4 22.8 11.35 22.85 11.35 23.0 11.3 23.1 11.25 23.2 11.2 23.35 11.15 23.5 11.1 23.7 11.05 L23.9 10.9 23.9 7.15 Q23.9 7.0 23.9 6.85 23.85 6.7 23.8 6.55 23.75 6.4 23.65 6.3 23.55 6.15 23.45 6.05 23.35 5.95 23.25 5.85 23.1 5.8 22.95 5.75 22.85 5.65 22.7 5.65 22.55 5.6 22.35 5.6 L3.6 5.6" fill="#f1edf8" fill-rule="evenodd" stroke="none"/>
    <path d="M13.75 8.7 L14.05 8.7 14.1 8.6 14.5 8.6 14.5 8.0 12.25 8.0 9.4 11.95 6.65 8.0 4.35 8.0 4.35 8.7 Q4.4 8.7 4.45 8.75 4.5 8.8 4.5 8.85 4.55 8.9 4.55 8.95 4.6 9.0 4.6 9.05 4.65 9.1 4.65 9.15 4.65 9.2 4.65 9.25 4.65 9.3 4.65 9.3 4.65 9.3 4.65 9.35 L4.65 16.3 Q4.65 16.45 4.65 16.6 4.6 16.75 4.6 16.85 4.55 16.95 4.5 17.0 4.5 17.1 4.45 17.15 4.4 17.2 4.35 17.25 4.3 17.3 4.25 17.3 4.25 17.35 4.2 17.35 4.2 17.35 4.2 17.35 L4.2 18.0 6.6 18.0 6.6 17.35 Q6.5 17.35 6.45 17.3 6.4 17.25 6.35 17.15 6.3 17.05 6.25 16.95 6.25 16.9 6.2 16.75 6.2 16.65 6.2 16.55 6.15 16.5 6.15 16.4 6.15 16.35 6.15 16.3 6.15 16.25 6.15 16.25 L6.15 15.7 Q6.25 15.75 6.05 15.75 6.0 15.8 5.95 15.85 5.85 15.85 5.85 15.8 5.85 15.75 5.9 15.7 L5.95 15.7 5.95 15.65 6.0 15.6 6.15 15.5 6.15 10.6 6.25 10.6 9.35 14.75 12.3 10.6 12.4 10.6 12.4 16.3 Q12.4 16.45 12.4 16.6 12.4 16.75 12.35 16.85 12.35 16.95 12.3 17.05 12.25 17.1 12.25 17.15 12.2 17.2 12.15 17.25 12.15 17.3 12.1 17.3 12.1 17.3 12.05 17.35 12.05 17.35 12.05 17.35 L12.05 18.0 14.5 18.0 14.5 17.35 Q14.45 17.3 14.4 17.25 14.35 17.2 14.3 17.15 14.25 17.05 14.25 16.95 14.2 16.9 14.2 16.8 14.15 16.7 14.15 16.6 14.15 16.55 14.1 16.5 14.1 16.45 14.1 16.4 14.1 16.35 14.1 16.35 L14.1 12.0 14.0 11.95 14.0 11.85 13.8 11.85 13.9 11.75 13.75 11.7 13.7 11.65 13.6 11.5 13.75 11.55 13.8 11.45 13.85 11.55 13.95 11.5 14.15 11.45 14.15 8.9 14.2 8.75 14.1 8.85 13.95 8.8 13.9 8.9 13.6 8.85 13.75 8.75 13.75 8.7 M10.8 12.45 L10.6 12.4 10.6 12.35 10.5 12.3 10.55 12.1 10.75 12.15 10.8 12.3 10.9 12.3 10.8 12.45" fill="#f1edf8" fill-rule="evenodd" stroke="none"/>
    <path d="M16.8 12.7 Q16.75 12.75 16.7 12.75 16.65 12.8 16.6 12.8 16.55 12.85 16.5 12.85 16.45 12.9 16.4 12.9 16.35 12.95 16.3 13.0 16.25 13.0 16.25 13.05 16.2 13.05 16.15 13.1 16.1 13.1 16.1 13.15 15.95 13.25 15.85 13.35 15.7 13.45 15.6 13.6 15.5 13.7 15.4 13.85 15.3 14.0 15.2 14.1 15.15 14.25 15.1 14.4 15.05 14.55 15.0 14.7 14.95 14.85 14.95 15.0 14.95 15.15 14.95 15.3 14.95 15.45 14.95 15.6 15.0 15.75 15.05 15.9 15.05 16.05 15.15 16.15 15.2 16.3 15.3 16.4 15.35 16.55 15.45 16.65 15.55 16.75 15.7 16.9 15.8 17.0 15.9 17.1 16.05 17.2 16.2 17.3 16.3 17.4 16.45 17.45 16.55 17.5 16.7 17.55 16.8 17.65 16.95 17.7 17.05 17.7 17.2 17.75 17.35 17.8 17.5 17.85 17.65 17.85 17.8 17.9 17.95 17.9 18.1 17.9 18.25 17.9 18.4 17.9 18.55 17.9 18.75 17.9 18.9 17.9 19.05 17.85 19.2 17.85 19.35 17.8 19.5 17.8 19.65 17.75 19.8 17.7 19.95 17.65 20.05 17.6 20.2 17.55 20.3 17.45 20.45 17.4 20.55 17.3 20.7 17.2 20.8 17.1 20.95 17.0 21.05 16.9 21.15 16.8 21.25 16.7 21.3 16.55 21.4 16.45 21.45 16.3 21.5 16.2 21.55 16.05 21.6 15.9 21.65 15.75 21.65 15.6 21.7 15.45 21.7 15.3 21.7 15.15 21.7 14.9 21.7 14.7 21.65 14.5 21.6 14.35 21.55 14.15 21.5 14.0 21.4 13.8 21.3 13.65 21.2 13.5 21.05 13.35 20.9 13.25 20.75 13.1 20.55 12.95 20.35 12.85 20.15 12.7 19.9 12.55 20.15 12.45 20.35 12.35 20.5 12.25 20.65 12.15 20.8 12.0 20.95 11.9 21.05 11.75 21.15 11.65 21.2 11.5 21.3 11.35 21.35 11.2 21.35 11.05 21.4 10.9 21.4 10.75 21.45 10.6 21.45 10.4 21.45 10.25 21.45 10.15 21.4 10.0 21.4 9.9 21.35 9.75 21.3 9.65 21.25 9.5 21.2 9.4 21.15 9.3 21.05 9.2 20.95 9.1 20.9 9.0 20.8 8.9 20.7 8.8 20.55 8.7 20.45 8.65 20.35 8.55 20.2 8.5 20.1 8.45 20.0 8.35 19.85 8.3 19.75 8.25 19.6 8.2 19.5 8.15 19.35 8.15 19.25 8.1 19.1 8.1 19.0 8.05 18.85 8.05 18.7 8.05 18.55 8.0 18.45 8.0 18.3 8.0 18.15 8.0 18.0 8.05 17.85 8.05 17.7 8.1 17.55 8.1 17.45 8.15 17.3 8.2 17.15 8.25 17.05 8.3 16.9 8.35 16.8 8.4 16.65 8.45 16.55 8.55 16.4 8.6 16.3 8.7 16.2 8.8 16.05 8.9 15.95 9.0 15.85 9.1 15.8 9.2 15.7 9.3 15.65 9.45 15.55 9.55 15.5 9.65 15.45 9.8 15.4 9.9 15.4 10.05 15.35 10.2 15.35 10.35 15.3 10.45 15.3 10.6 15.3 10.7 15.3 10.8 15.35 10.85 15.35 10.95 15.35 11.05 15.4 11.1 15.4 11.2 15.45 11.25 15.5 11.35 15.55 11.4 15.55 11.5 15.6 11.55 15.65 11.65 15.7 11.7 15.75 11.8 15.8 11.85 15.85 11.9 15.9 11.95 15.9 12.0 15.95 12.05 16.0 12.1 16.05 12.15 16.1 12.15 16.15 12.2 16.2 12.25 16.25 12.3 16.3 12.35 16.4 12.45 16.5 12.5 16.6 12.55 16.7 12.65 16.8 12.7 L16.8 12.7 M18.05 13.2 L19.0 13.6 Q19.2 13.7 19.35 13.75 19.5 13.85 19.6 13.9 19.75 14.0 19.85 14.05 19.95 14.15 20.0 14.2 20.1 14.25 20.15 14.35 20.2 14.4 20.2 14.5 20.25 14.6 20.25 14.65 20.3 14.75 20.3 14.85 20.3 14.95 20.3 15.0 20.3 15.05 20.25 15.15 20.25 15.25 20.25 15.35 20.25 15.45 20.2 15.5 20.2 15.6 20.15 15.7 20.1 15.8 20.1 15.85 20.05 15.95 20.0 16.0 19.95 16.1 19.85 16.1 19.75 16.15 19.7 16.2 19.65 16.25 19.55 16.3 19.5 16.3 19.45 16.35 19.35 16.4 19.3 16.4 19.25 16.45 19.15 16.45 19.1 16.45 19.0 16.5 18.95 16.5 18.85 16.5 18.8 16.5 18.7 16.5 18.55 16.5 18.4 16.5 18.25 16.55 18.15 16.5 18.0 16.5 17.9 16.5 17.75 16.45 17.65 16.45 17.55 16.4 17.45 16.35 17.35 16.3 17.25 16.25 17.2 16.2 17.1 16.15 17.05 16.1 16.95 16.0 16.9 15.95 16.85 15.9 16.75 15.8 16.75 15.75 16.7 15.7 16.65 15.65 16.6 15.6 16.55 15.55 16.55 15.45 16.5 15.4 16.5 15.3 16.45 15.25 16.45 15.15 16.45 15.05 16.45 14.95 16.45 14.85 16.45 14.75 16.5 14.65 16.5 14.55 16.55 14.45 16.65 14.35 16.75 14.25 16.8 14.1 16.95 14.0 17.05 13.9 17.15 13.75 17.3 13.65 17.45 13.55 17.6 13.45 17.75 13.35 17.9 13.3 18.05 13.2 L18.05 13.2 M18.75 12.0 L18.6 11.95 Q18.45 11.9 17.35 11.2 17.25 11.15 17.2 11.1 17.1 11.05 17.05 11.0 17.0 10.95 16.95 10.9 16.9 10.85 16.85 10.8 16.8 10.7 16.8 10.65 16.75 10.6 16.75 10.55 16.7 10.5 16.7 10.45 16.7 10.4 16.7 10.35 16.7 10.3 16.7 10.25 16.7 10.25 16.7 10.2 16.75 10.15 16.75 10.1 16.75 10.05 16.8 10.0 16.85 9.95 16.85 9.9 16.9 9.85 16.95 9.8 17.0 9.75 17.05 9.7 17.1 9.65 17.15 9.6 17.2 9.55 17.25 9.55 17.35 9.5 17.4 9.45 17.45 9.45 17.55 9.4 17.65 9.35 17.7 9.35 17.8 9.3 17.85 9.3 17.95 9.25 18.05 9.25 18.1 9.25 18.2 9.25 18.25 9.2 18.35 9.2 18.45 9.2 18.55 9.2 18.6 9.25 18.7 9.25 18.8 9.25 18.9 9.3 19.0 9.35 19.1 9.35 19.2 9.4 19.25 9.45 19.35 9.5 19.45 9.5 19.5 9.55 19.6 9.6 19.65 9.65 19.7 9.7 19.75 9.75 19.8 9.8 19.9 9.85 19.95 9.9 19.95 9.95 20.0 10.0 20.05 10.05 20.1 10.1 20.1 10.15 20.15 10.25 20.15 10.3 20.2 10.35 20.2 10.4 20.2 10.5 20.2 10.55 20.2 10.65 20.2 10.7 20.15 10.8 20.15 10.85 20.1 10.95 20.0 11.05 19.95 11.15 19.85 11.25 19.75 11.35 19.65 11.45 19.55 11.55 19.4 11.6 19.3 11.7 19.15 11.8 19.05 11.85 18.9 11.95 18.75 12.0 L18.75 12.0" fill="#f1edf8" fill-rule="evenodd" stroke="none"/>
  </g>
</svg>
