<?xml version="1.0" encoding="UTF-8" standalone="no"?>
<svg xmlns:ffdec="https://www.free-decompiler.com/flash" xmlns:xlink="http://www.w3.org/1999/xlink" ffdec:objectType="shape" height="26.0px" width="26.0px" xmlns="http://www.w3.org/2000/svg">
  <g transform="matrix(1.0, 0.0, 0.0, 1.0, 0.0, 0.0)">
    <path d="M11.9 18.65 Q11.9 18.65 11.85 18.7 11.85 18.8 11.8 18.9 11.75 19.05 11.75 19.2 11.7 19.35 11.65 19.55 11.6 19.7 11.55 19.9 11.5 20.1 11.5 20.25 11.45 20.45 11.45 20.6 11.45 20.75 11.45 20.85 11.45 20.95 11.6 21.05 11.75 21.15 12.0 21.25 12.2 21.3 12.55 21.4 12.9 21.45 13.3 21.5 13.7 21.55 14.15 21.6 14.6 21.6 15.05 21.6 15.55 21.6 16.05 21.6 16.55 21.55 17.0 21.5 17.2 21.45 17.4 21.45 17.7 21.35 18.0 21.25 18.4 21.15 18.75 21.0 19.15 20.8 19.55 20.55 19.95 20.25 20.25 19.95 20.65 19.55 20.9 19.1 21.15 18.6 21.3 18.0 21.5 17.35 21.5 16.65 21.5 16.25 21.4 15.85 21.3 15.5 21.15 15.15 21.0 14.8 20.75 14.5 20.5 14.25 20.25 14.0 20.0 13.75 19.65 13.55 19.35 13.4 19.05 13.25 18.75 13.1 18.4 13.0 18.1 12.9 17.8 12.85 17.75 12.85 17.65 12.85 17.5 12.8 17.3 12.8 17.1 12.8 16.9 12.75 16.6 12.75 16.4 12.75 16.1 12.75 15.85 12.75 15.55 12.8 15.3 12.8 15.05 12.85 14.85 12.9 14.65 13.0 14.5 13.1 14.5 13.1 14.5 12.95 14.5 12.8 14.55 12.6 14.55 12.3 14.6 12.05 14.6 11.75 14.65 11.45 14.7 11.1 14.8 10.85 14.85 10.55 14.95 10.3 15.05 10.05 15.15 9.95 15.3 9.8 15.45 9.8 15.8 9.8 18.2 9.9 20.5 9.95 20.8 9.95 20.9 9.95 21.0 9.85 21.1 9.75 21.2 9.6 21.3 9.45 21.4 9.2 21.45 9.05 21.55 8.8 21.6 8.6 21.65 8.35 21.75 8.2 21.75 8.0 21.8 7.85 21.85 7.75 21.85 7.7 21.85 7.65 L20.3 7.65 Q20.25 7.65 20.2 7.65 20.2 7.65 20.15 7.7 20.05 7.7 20.1 7.7 20.05 7.75 19.95 7.75 19.9 7.75 19.8 7.8 19.7 7.8 19.55 7.8 19.35 7.85 19.15 7.85 18.95 7.85 18.65 7.85 17.05 7.85 14.1 7.85 13.85 7.85 13.65 8.05 13.45 8.2 13.25 8.55 13.1 8.9 12.95 9.35 12.8 9.75 12.7 10.3 12.6 10.8 12.55 11.4 12.45 11.95 12.4 12.55 12.4 13.1 12.35 13.65 12.3 14.2 12.3 14.7 12.3 14.7 12.3 14.7 12.4 14.8 12.4 14.8 12.45 14.85 12.5 14.9 12.55 14.95 12.6 15.0 12.7 15.05 12.8 15.1 12.9 15.2 13.0 15.2 13.1 15.25 13.25 15.3 13.35 15.3 13.5 15.3 13.5 15.3 13.75 15.25 14.05 15.15 14.4 15.05 14.85 14.95 15.25 14.9 15.8 14.8 16.3 14.8 16.85 14.75 17.35 14.85 17.85 14.9 18.25 15.1 18.65 15.35 18.85 15.7 19.1 16.1 19.1 16.7 19.1 17.3 18.9 17.8 18.7 18.25 18.3 18.55 17.95 18.9 17.45 19.1 17.0 19.25 16.4 19.35 15.9 19.4 15.25 19.4 14.65 19.4 14.05 19.3 13.45 19.2 12.9 19.0 12.35 18.85 11.9 18.65 L11.9 18.65" fill="#f1edf8" fill-rule="evenodd" stroke="none"/>
  </g>
</svg>
