<?xml version="1.0" encoding="UTF-8" standalone="no"?>
<svg xmlns:ffdec="https://www.free-decompiler.com/flash" xmlns:xlink="http://www.w3.org/1999/xlink" ffdec:objectType="shape" height="26.0px" width="26.0px" xmlns="http://www.w3.org/2000/svg">
  <g transform="matrix(1.0, 0.0, 0.0, 1.0, 0.0, 0.0)">
    <path d="M11.85 15.45 Q11.85 15.45 11.85 15.45 11.8 15.4 11.8 15.35 11.75 15.3 11.7 15.25 11.65 15.2 11.55 15.1 11.5 15.0 11.45 14.95 11.35 14.85 11.3 14.75 11.25 14.6 11.2 14.5 11.1 14.4 11.05 14.25 11.05 14.25 11.15 14.25 11.25 14.25 11.35 14.2 11.5 14.2 11.65 14.15 11.85 14.1 12.0 14.0 12.2 13.9 12.35 13.75 12.55 13.55 12.65 13.35 12.8 13.15 12.85 12.85 12.95 12.55 12.95 12.2 12.95 11.75 12.85 11.4 12.75 11.05 12.55 10.75 12.35 10.5 12.1 10.3 11.9 10.15 11.6 10.05 11.4 9.95 11.1 9.85 10.9 9.8 10.7 9.75 10.55 9.75 10.4 9.75 10.35 9.75 10.25 9.75 L7.2 9.75 7.2 9.8 7.2 10.25 7.5 10.55 7.5 10.8 7.55 10.85 7.55 11.6 7.65 11.6 7.65 11.8 7.9 11.85 8.15 11.9 8.1 11.95 7.65 11.95 7.65 12.1 7.6 12.25 7.6 16.6 Q7.6 16.6 7.6 16.65 7.6 16.7 7.6 16.75 7.6 16.8 7.55 16.9 7.55 17.0 7.55 17.05 7.5 17.15 7.5 17.25 7.45 17.35 7.4 17.4 7.4 17.45 7.35 17.5 7.25 17.55 7.2 17.55 L7.2 18.15 9.25 18.15 9.25 17.55 Q9.25 17.55 9.25 17.55 9.2 17.55 9.2 17.55 9.15 17.55 9.15 17.55 9.1 17.5 9.1 17.45 9.05 17.45 9.0 17.35 9.0 17.3 8.95 17.2 8.95 17.1 8.9 16.95 8.9 16.8 8.9 16.6 L8.9 13.55 8.8 13.45 8.85 13.4 8.9 13.4 8.9 12.45 8.85 12.35 8.8 12.25 8.8 11.95 8.85 11.8 8.9 11.9 8.9 11.8 8.9 10.9 10.3 10.9 Q10.3 10.9 10.35 10.9 10.45 10.9 10.5 10.9 10.65 10.95 10.75 10.95 10.9 11.0 11.0 11.05 11.15 11.1 11.25 11.2 11.4 11.25 11.5 11.4 11.6 11.5 11.65 11.7 11.7 11.85 11.7 12.05 L11.7 12.25 Q11.7 12.25 11.7 12.3 11.7 12.35 11.7 12.4 11.7 12.5 11.65 12.6 11.6 12.7 11.55 12.85 11.45 12.95 11.35 13.05 11.25 13.15 11.1 13.25 10.95 13.3 10.75 13.35 10.5 13.4 10.25 13.4 L9.85 13.4 9.85 14.95 10.75 16.55 Q10.75 16.55 10.8 16.6 11.0 16.85 10.95 16.8 11.05 16.95 11.1 17.05 11.25 17.2 11.35 17.35 11.5 17.5 11.6 17.6 11.75 17.75 11.9 17.9 12.05 18.0 12.2 18.05 12.35 18.15 12.45 18.15 L13.25 18.15 13.25 17.6 Q13.25 17.6 13.2 17.6 13.15 17.6 13.1 17.55 13.05 17.5 12.95 17.45 12.85 17.4 12.75 17.3 12.65 17.2 12.55 17.05 12.4 16.85 12.3 16.65 12.2 16.4 12.1 16.15 11.95 15.85 11.85 15.45 L11.85 15.45" fill="#f1edf8" fill-rule="evenodd" stroke="none"/>
    <path d="M18.4 10.75 Q18.1 10.45 17.75 10.25 17.5 10.05 17.15 9.95 16.9 9.85 16.6 9.8 16.35 9.8 16.1 9.8 15.85 9.8 15.65 9.85 15.5 9.9 15.3 9.95 15.2 9.95 15.1 10.0 15.05 10.05 15.0 10.05 14.75 10.15 14.55 10.3 14.4 10.45 14.25 10.65 14.1 10.8 14.0 11.0 13.95 11.15 13.85 11.35 13.8 11.5 13.8 11.65 13.75 11.8 13.75 11.95 13.75 12.05 13.75 12.1 13.75 12.15 13.75 12.2 13.75 12.55 13.85 12.8 13.9 13.1 14.0 13.3 14.1 13.5 14.25 13.7 14.35 13.85 14.5 13.95 14.65 14.05 14.8 14.15 14.9 14.2 15.0 14.25 15.1 14.3 15.2 14.35 15.2 14.35 15.25 14.35 L15.4 14.35 15.5 14.2 15.6 14.2 15.75 14.05 16.0 14.05 Q15.75 14.3 15.5 14.55 15.9 14.6 16.2 14.7 16.5 14.8 16.75 14.95 16.95 15.05 17.1 15.15 17.25 15.25 17.35 15.4 17.4 15.5 17.45 15.6 17.5 15.7 17.5 15.8 17.55 15.85 17.55 15.9 17.55 15.9 17.55 15.95 17.55 16.1 17.45 16.25 17.4 16.4 17.25 16.5 17.15 16.6 17.0 16.65 16.85 16.7 16.65 16.75 16.5 16.8 16.35 16.8 16.2 16.85 16.05 16.85 15.95 16.85 15.85 16.85 15.8 16.85 15.75 16.85 15.5 16.85 15.25 16.75 15.0 16.7 14.85 16.6 14.65 16.5 14.5 16.4 14.4 16.3 14.3 16.2 14.2 16.1 14.15 15.95 14.1 15.9 14.05 15.8 14.0 15.75 14.0 15.65 14.0 15.65 13.95 15.6 L13.35 15.6 13.35 16.95 Q13.45 17.15 13.6 17.35 13.8 17.5 14.0 17.6 14.2 17.75 14.4 17.8 14.6 17.9 14.85 17.95 15.05 18.0 15.25 18.05 15.4 18.1 15.6 18.1 15.7 18.1 15.8 18.1 15.85 18.15 15.9 18.15 16.2 18.15 16.5 18.15 16.75 18.1 17.0 18.05 17.2 18.0 17.4 17.95 17.55 17.85 17.7 17.8 17.8 17.7 17.95 17.65 18.0 17.55 18.1 17.5 18.15 17.45 18.2 17.4 18.2 17.4 18.2 17.35 18.35 17.2 18.45 17.05 18.55 16.9 18.65 16.7 18.7 16.55 18.75 16.4 18.75 16.25 18.8 16.15 18.8 16.0 18.8 15.9 18.8 15.8 18.8 15.7 18.8 15.65 18.75 15.55 18.75 15.55 18.75 15.55 18.7 15.35 18.65 15.15 18.55 15.0 18.45 14.85 18.35 14.7 18.2 14.55 18.1 14.45 17.95 14.3 17.8 14.2 17.7 14.15 17.6 14.05 17.45 14.0 17.4 13.95 17.3 13.9 17.3 13.9 17.25 13.9 16.55 13.55 15.85 13.2 15.65 13.1 15.5 13.0 15.35 12.9 15.2 12.75 15.1 12.65 15.05 12.55 15.0 12.45 14.95 12.35 14.95 12.25 14.9 12.15 14.9 12.05 14.9 12.0 14.9 11.95 14.9 11.9 14.95 11.85 14.95 11.85 15.0 11.6 15.15 11.4 15.25 11.25 15.45 11.15 15.6 11.05 15.85 11.0 16.05 10.95 16.3 10.95 16.5 10.95 16.75 11.05 16.95 11.1 17.15 11.2 17.35 11.3 17.5 11.45 17.65 11.6 17.7 11.75 L18.4 11.75 18.4 10.75" fill="#f1edf8" fill-rule="evenodd" stroke="none"/>
    <path d="M14.5 8.05 Q14.5 8.05 15.65 7.95 16.8 7.85 16.85 7.85 17.0 7.85 15.1 8.95 14.15 9.45 13.2 10.0 13.2 10.0 13.15 10.0 13.15 10.0 13.1 9.95 12.55 9.75 10.8 8.85 8.95 7.95 9.15 7.9 9.15 7.9 10.45 8.0 11.1 8.05 11.75 8.1 11.75 8.1 11.75 8.1 11.8 8.15 11.8 8.15 11.85 8.2 11.9 8.25 11.95 8.25 12.05 8.3 12.1 8.35 12.2 8.4 12.35 8.5 12.45 8.55 12.6 8.6 12.75 8.65 12.95 8.7 13.15 8.75 13.35 8.7 13.5 8.6 13.65 8.55 13.8 8.5 13.9 8.4 14.05 8.35 14.1 8.3 14.2 8.25 14.3 8.2 14.35 8.15 14.4 8.15 14.4 8.1 14.45 8.1 14.45 8.05 14.5 8.05 14.5 8.05 L14.5 8.05" fill="#f1edf8" fill-rule="evenodd" stroke="none"/>
  </g>
</svg>
