<?xml version="1.0" encoding="UTF-8" standalone="no"?>
<svg xmlns:ffdec="https://www.free-decompiler.com/flash" xmlns:xlink="http://www.w3.org/1999/xlink" ffdec:objectType="shape" height="26.0px" width="26.0px" xmlns="http://www.w3.org/2000/svg">
  <g transform="matrix(1.0, 0.0, 0.0, 1.0, 0.0, 0.0)">
    <path d="M20.45 7.35 L13.05 7.35 13.05 8.9 13.45 8.9 Q13.45 8.9 13.45 8.85 13.5 8.85 13.5 8.8 13.55 8.75 13.55 8.75 13.6 8.7 13.65 8.65 13.75 8.6 13.8 8.55 13.9 8.5 14.0 8.5 14.15 8.45 14.25 8.45 14.4 8.4 14.6 8.4 14.9 8.4 15.55 8.4 15.65 8.4 15.7 8.4 15.8 8.45 15.85 8.45 15.9 8.5 15.95 8.55 16.0 8.55 16.0 8.6 16.05 8.65 16.05 8.7 16.05 8.7 16.05 8.75 16.05 8.75 16.05 8.8 16.05 8.8 16.05 8.8 L16.05 14.5 Q16.05 14.7 16.05 14.85 16.0 15.0 16.0 15.1 15.95 15.25 15.95 15.3 15.9 15.4 15.9 15.45 15.85 15.5 15.8 15.5 15.8 15.55 15.75 15.55 15.75 15.55 15.75 15.6 15.75 15.6 15.7 15.6 L15.75 16.15 17.7 16.15 17.7 15.55 Q17.65 15.55 17.6 15.5 17.55 15.45 17.5 15.35 17.5 15.3 17.45 15.2 17.45 15.1 17.4 15.0 17.4 14.9 17.4 14.8 17.4 14.75 17.4 14.65 17.4 14.6 17.35 14.55 17.35 14.5 17.35 14.5 L17.35 10.45 17.3 10.5 17.25 10.55 17.15 10.5 17.1 10.5 17.05 10.45 17.1 10.45 17.15 10.4 17.15 10.35 17.3 10.35 17.3 10.3 17.4 10.25 17.4 8.7 Q17.4 8.65 17.4 8.6 17.45 8.55 17.45 8.5 17.5 8.5 17.55 8.45 17.6 8.45 17.65 8.45 17.65 8.4 17.7 8.4 17.7 8.4 17.75 8.4 17.75 8.4 17.75 8.4 17.75 8.4 17.75 8.4 L18.95 8.4 Q18.95 8.4 19.0 8.4 19.05 8.4 19.1 8.4 19.2 8.4 19.3 8.45 19.4 8.45 19.45 8.45 19.6 8.5 19.65 8.5 19.75 8.55 19.85 8.6 19.95 8.65 20.0 8.7 20.05 8.8 20.05 8.9 L20.45 8.9 20.45 7.35" fill="#f1edf8" fill-rule="evenodd" stroke="none"/>
    <path d="M12.55 14.7 Q12.55 14.7 12.5 14.7 12.4 14.75 12.35 14.75 12.2 14.8 12.1 14.8 11.95 14.85 11.8 14.9 11.6 14.9 11.4 14.95 11.2 15.0 11.0 15.0 10.8 15.05 10.6 15.05 10.35 15.05 10.15 15.05 10.0 15.05 9.85 15.0 9.7 14.95 9.6 14.85 9.5 14.75 9.45 14.6 9.4 14.5 9.35 14.3 9.3 14.2 9.25 14.05 9.25 13.95 9.25 13.8 9.25 13.75 9.25 13.65 9.25 13.6 9.25 13.6 L9.25 10.2 9.15 10.25 9.05 10.3 9.0 10.25 8.95 10.25 8.95 10.2 8.95 10.2 8.95 10.15 9.0 10.1 9.15 10.1 9.15 10.05 9.25 10.0 9.25 8.75 Q9.25 8.65 9.25 8.5 9.3 8.4 9.3 8.35 9.3 8.25 9.35 8.2 9.4 8.15 9.4 8.1 9.45 8.05 9.45 8.0 9.5 8.0 9.5 7.95 9.55 7.95 9.55 7.95 9.55 7.95 9.55 7.95 L9.55 7.35 7.55 7.35 7.55 7.9 Q7.6 7.95 7.65 8.0 7.7 8.0 7.75 8.1 7.8 8.15 7.8 8.2 7.8 8.3 7.85 8.35 7.85 8.4 7.85 8.45 7.85 8.5 7.85 8.6 7.85 8.6 7.85 8.65 7.85 8.65 7.85 8.7 L7.85 13.45 Q7.85 13.7 7.85 13.95 7.8 14.2 7.8 14.35 7.75 14.55 7.75 14.7 7.7 14.8 7.65 14.95 7.65 15.0 7.6 15.1 7.55 15.15 7.55 15.2 7.5 15.25 7.5 15.25 7.45 15.25 7.45 15.3 L7.45 16.15 9.8 16.15 9.8 16.1 11.95 16.15 Q12.0 16.1 13.05 16.15 L13.05 14.7 12.55 14.7" fill="#f1edf8" fill-rule="evenodd" stroke="none"/>
  </g>
</svg>
