<?xml version="1.0" encoding="UTF-8" standalone="no"?>
<svg xmlns:ffdec="https://www.free-decompiler.com/flash" xmlns:xlink="http://www.w3.org/1999/xlink" ffdec:objectType="shape" height="26.0px" width="26.0px" xmlns="http://www.w3.org/2000/svg">
  <g transform="matrix(1.0, 0.0, 0.0, 1.0, 0.0, 0.0)">
    <path d="M11.6 13.35 Q11.6 13.35 11.6 13.3 11.6 13.35 11.5 13.25 11.45 13.2 11.4 13.15 11.35 13.05 11.3 12.95 11.25 12.9 11.15 12.8 11.1 12.7 11.05 12.55 10.95 12.45 10.9 12.35 10.8 12.2 10.75 12.1 10.75 12.1 10.85 12.1 10.95 12.1 11.05 12.05 11.25 12.0 11.4 11.95 11.6 11.9 11.75 11.8 11.95 11.7 12.1 11.55 12.3 11.35 12.45 11.15 12.55 10.9 12.65 10.6 12.75 10.3 12.75 9.9 12.75 9.45 12.65 9.05 12.5 8.7 12.3 8.4 12.1 8.15 11.85 7.95 11.65 7.8 11.35 7.65 11.1 7.55 10.85 7.5 10.6 7.45 10.4 7.4 10.2 7.35 10.05 7.35 10.0 7.35 9.95 7.35 L6.75 7.35 6.75 7.45 6.75 7.9 7.05 8.25 7.05 8.45 7.1 8.5 7.1 9.35 7.2 9.35 7.2 9.5 7.45 9.55 7.7 9.6 7.65 9.7 7.25 9.7 7.2 9.8 7.15 10.0 7.15 14.5 Q7.15 14.5 7.15 14.55 7.15 14.6 7.15 14.65 7.15 14.75 7.1 14.8 7.1 14.9 7.1 15.0 7.05 15.1 7.05 15.2 7.0 15.3 6.95 15.35 6.9 15.45 6.85 15.45 6.8 15.5 6.75 15.5 L6.75 16.15 8.9 16.15 8.9 15.55 Q8.9 15.55 8.9 15.55 8.85 15.55 8.85 15.55 8.8 15.55 8.75 15.5 8.75 15.5 8.7 15.45 8.65 15.4 8.65 15.35 8.6 15.25 8.55 15.15 8.55 15.05 8.55 14.9 8.5 14.75 8.5 14.55 L8.5 11.35 8.4 11.25 8.45 11.2 8.5 11.2 8.5 10.2 8.45 10.1 8.4 9.95 8.4 9.65 8.45 9.55 8.5 9.6 8.5 9.55 8.5 8.6 9.95 8.6 Q9.95 8.6 10.0 8.6 10.1 8.6 10.2 8.6 10.3 8.6 10.45 8.65 10.55 8.7 10.7 8.75 10.85 8.8 11.0 8.85 11.1 8.95 11.2 9.1 11.35 9.2 11.4 9.4 11.45 9.55 11.45 9.8 L11.45 9.95 Q11.45 9.95 11.45 10.0 11.45 10.1 11.45 10.15 11.4 10.25 11.4 10.35 11.35 10.45 11.25 10.6 11.2 10.7 11.1 10.8 10.95 10.9 10.8 11.0 10.65 11.1 10.4 11.15 10.2 11.2 9.9 11.2 L9.5 11.2 9.5 12.8 10.45 14.45 Q10.45 14.45 10.5 14.55 10.55 14.6 10.65 14.7 10.75 14.85 10.85 15.0 10.95 15.15 11.1 15.3 11.2 15.45 11.35 15.6 11.5 15.75 11.65 15.85 11.8 16.0 11.95 16.05 12.1 16.15 12.2 16.15 L13.05 16.15 13.05 15.55 Q13.05 15.55 13.0 15.55 12.95 15.55 12.9 15.5 12.85 15.45 12.75 15.4 12.65 15.35 12.55 15.25 12.4 15.15 12.3 14.95 12.2 14.8 12.05 14.6 11.95 14.35 11.85 14.05 11.7 13.7 11.6 13.35 L11.6 13.35" fill="#f1edf8" fill-rule="evenodd" stroke="none"/>
    <path d="M20.45 7.35 L13.05 7.35 13.05 8.9 13.45 8.9 Q13.45 8.9 13.45 8.85 13.5 8.85 13.5 8.8 13.55 8.75 13.55 8.75 13.6 8.7 13.65 8.65 13.75 8.6 13.8 8.55 13.9 8.5 14.0 8.5 14.15 8.45 14.25 8.45 14.4 8.4 14.6 8.4 14.9 8.4 15.55 8.4 15.65 8.4 15.7 8.4 15.8 8.45 15.85 8.45 15.9 8.5 15.95 8.55 16.0 8.55 16.0 8.6 16.05 8.65 16.05 8.7 16.05 8.7 16.05 8.75 16.05 8.75 16.05 8.8 16.05 8.8 16.05 8.8 L16.05 14.5 Q16.05 14.7 16.05 14.85 16.0 15.0 16.0 15.1 15.95 15.25 15.95 15.3 15.9 15.4 15.9 15.45 15.85 15.5 15.8 15.5 15.8 15.55 15.75 15.55 15.75 15.55 15.75 15.6 15.75 15.6 15.7 15.6 L15.75 16.15 17.7 16.15 17.7 15.55 Q17.65 15.55 17.6 15.5 17.55 15.45 17.5 15.35 17.5 15.3 17.45 15.2 17.45 15.1 17.4 15.0 17.4 14.9 17.4 14.8 17.4 14.75 17.4 14.65 17.4 14.6 17.35 14.55 17.35 14.5 17.35 14.5 L17.35 10.45 17.3 10.5 17.25 10.55 17.15 10.5 17.1 10.5 17.05 10.45 17.1 10.45 17.15 10.4 17.15 10.35 17.3 10.35 17.3 10.3 17.4 10.25 17.4 8.7 Q17.4 8.65 17.4 8.6 17.45 8.55 17.45 8.5 17.5 8.5 17.55 8.45 17.6 8.45 17.65 8.45 17.65 8.4 17.7 8.4 17.7 8.4 17.75 8.4 17.75 8.4 17.75 8.4 17.75 8.4 17.75 8.4 L18.95 8.4 Q18.95 8.4 19.0 8.4 19.05 8.4 19.1 8.4 19.2 8.4 19.3 8.45 19.4 8.45 19.45 8.45 19.6 8.5 19.65 8.5 19.75 8.55 19.85 8.6 19.95 8.65 20.0 8.7 20.05 8.8 20.05 8.9 L20.45 8.9 20.45 7.35" fill="#f1edf8" fill-rule="evenodd" stroke="none"/>
  </g>
</svg>
