<?xml version="1.0" encoding="UTF-8" standalone="no"?>
<svg xmlns:ffdec="https://www.free-decompiler.com/flash" xmlns:xlink="http://www.w3.org/1999/xlink" ffdec:objectType="shape" height="26.0px" width="26.0px" xmlns="http://www.w3.org/2000/svg">
  <g transform="matrix(1.0, 0.0, 0.0, 1.0, 0.0, 0.0)">
    <path d="M9.55 9.7 Q9.55 9.7 10.15 9.85 10.75 10.0 10.75 10.0 10.85 9.95 9.85 8.25 9.35 7.35 8.9 6.5 8.9 6.5 8.85 6.55 8.55 6.95 7.65 8.35 6.7 9.85 6.8 9.9 6.8 9.9 7.45 9.75 7.8 9.7 8.1 9.6 8.1 9.6 8.1 9.6 8.1 9.6 8.15 9.5 8.15 9.45 8.2 9.4 8.25 9.35 8.25 9.25 8.3 9.15 8.35 9.1 8.45 9.0 8.5 8.9 8.55 8.8 8.65 8.7 8.75 8.6 8.85 8.5 9.2 9.1 9.55 9.7 L9.55 9.7" fill="#f1edf8" fill-rule="evenodd" stroke="none"/>
  </g>
</svg>
