<?xml version="1.0" encoding="UTF-8" standalone="no"?>
<svg xmlns:ffdec="https://www.free-decompiler.com/flash" xmlns:xlink="http://www.w3.org/1999/xlink" ffdec:objectType="shape" height="26.0px" width="26.0px" xmlns="http://www.w3.org/2000/svg">
  <g transform="matrix(1.0, 0.0, 0.0, 1.0, 0.0, 0.0)">
    <path d="M11.65 4.55 Q11.6 4.5 11.55 4.45 11.5 4.45 11.5 4.45 11.45 4.45 11.4 4.5 11.35 4.5 11.35 4.55 11.3 4.6 11.25 4.65 11.25 4.7 11.25 4.75 11.2 4.8 11.2 4.85 11.2 4.85 11.2 4.9 11.2 4.9 11.25 4.95 11.25 5.0 11.3 5.1 11.3 5.2 11.3 5.3 11.35 5.4 11.35 5.5 11.35 5.65 11.35 5.75 11.35 5.85 11.3 6.0 11.25 6.1 11.2 6.2 11.15 6.3 11.05 6.4 10.8 6.6 10.6 6.85 10.25 7.15 10.0 7.45 9.65 7.8 9.4 8.1 9.1 8.45 8.9 8.75 8.65 9.1 8.25 9.65 7.8 10.35 7.5 10.9 7.4 10.85 7.3 10.8 7.2 10.75 7.15 10.7 7.05 10.6 7.0 10.55 6.9 10.5 6.85 10.4 6.8 10.35 6.75 10.25 6.7 10.15 6.7 10.05 6.65 9.95 6.65 9.85 6.65 9.7 6.65 9.6 6.65 9.4 6.7 9.2 6.75 9.05 6.85 8.9 6.95 8.7 7.1 8.6 7.25 8.45 7.4 8.3 7.55 8.2 7.8 8.1 8.0 8.0 8.2 7.9 8.45 7.85 8.7 7.75 9.0 7.7 9.25 7.65 9.2 7.65 9.1 7.6 9.0 7.55 8.9 7.5 8.75 7.45 8.65 7.35 8.5 7.25 8.4 7.15 8.25 7.0 8.15 6.9 8.0 6.75 7.95 6.65 7.85 6.5 7.8 6.4 7.75 6.3 7.75 6.15 7.75 6.05 7.75 5.95 7.8 5.85 7.85 5.75 7.9 5.65 7.95 5.55 8.05 5.45 8.1 5.35 8.2 5.3 8.3 5.25 8.4 5.2 8.55 5.15 8.65 5.1 8.8 5.05 8.9 5.05 9.05 5.05 9.2 5.05 9.3 5.05 9.4 5.05 9.5 5.1 9.55 5.1 9.65 5.1 9.7 5.15 9.75 5.15 9.8 5.15 9.85 5.2 9.9 5.2 9.95 5.25 10.0 5.25 10.05 5.3 10.1 5.35 10.1 5.35 10.15 5.4 10.2 5.4 10.2 5.45 10.25 5.5 10.3 5.55 10.35 5.55 10.35 5.6 10.4 5.65 10.45 5.65 10.5 5.7 10.55 5.7 10.6 5.7 10.65 5.75 10.7 5.7 10.75 5.7 10.8 5.7 10.85 5.7 10.9 5.65 10.9 5.6 10.95 5.55 10.95 5.55 10.95 5.5 10.95 5.45 10.95 5.4 10.95 5.35 10.9 5.3 10.9 5.25 10.9 5.2 10.85 5.15 10.85 5.1 10.8 5.05 10.8 5.05 10.75 5.0 10.75 4.9 10.7 4.85 10.65 4.8 10.6 4.75 10.55 4.7 10.5 4.65 10.45 4.6 10.4 4.55 10.35 4.5 10.3 4.45 10.25 4.4 10.2 4.35 10.15 4.35 10.1 4.3 10.05 4.3 10.0 4.3 9.95 4.25 9.9 4.25 9.85 4.2 9.8 4.2 9.8 4.2 9.75 4.15 9.65 4.15 9.6 4.15 9.55 4.15 9.5 4.15 9.4 4.1 9.3 4.1 9.2 4.1 9.1 4.1 8.95 4.1 8.75 4.1 8.55 4.15 8.4 4.15 8.25 4.2 8.1 4.25 7.95 4.3 7.8 4.4 7.7 4.45 7.6 4.55 7.5 4.6 7.4 4.7 7.35 4.75 7.25 4.8 7.2 4.9 7.15 4.95 7.1 5.0 7.05 5.05 7.0 5.1 7.0 5.2 6.95 5.3 6.9 5.35 6.9 5.45 6.85 5.55 6.85 5.65 6.8 5.75 6.8 5.85 6.75 5.95 6.75 6.05 6.75 6.15 6.75 6.2 6.75 6.3 6.75 6.35 6.75 6.4 6.8 6.45 6.8 6.5 6.8 6.55 6.85 6.65 6.9 6.7 6.9 6.75 6.95 6.8 7.0 6.9 7.0 6.95 7.05 7.0 7.1 7.05 7.1 7.15 7.15 7.2 7.2 7.25 7.2 7.25 7.2 7.25 7.15 7.3 7.0 7.4 6.9 7.45 6.75 7.6 6.65 7.75 6.45 7.9 6.3 8.05 6.15 8.25 6.0 8.5 5.85 8.7 5.75 8.95 5.6 9.25 5.55 9.5 5.5 9.8 5.55 10.1 5.55 10.25 5.6 10.4 5.65 10.5 5.75 10.65 5.8 10.75 5.9 10.9 6.0 11.0 6.1 11.1 6.2 11.2 6.3 11.3 6.4 11.4 6.55 11.45 6.65 11.55 6.8 11.6 6.95 11.7 7.1 11.75 7.1 11.8 7.05 11.85 7.05 11.9 7.0 11.9 7.0 11.95 6.95 12.0 6.95 12.05 6.95 12.1 6.9 12.1 6.9 12.15 6.9 12.2 6.85 12.25 6.85 12.25 6.85 12.3 6.85 12.3 6.8 12.35 6.75 12.5 6.7 12.65 6.65 12.8 6.65 12.95 6.6 13.05 6.6 13.2 6.55 13.3 6.55 13.4 6.5 13.5 6.5 13.6 6.5 13.65 6.5 13.75 6.5 13.8 6.5 13.85 6.5 13.9 6.5 13.9 6.55 14.0 6.8 14.35 7.1 14.7 7.2 14.8 7.25 14.8 7.25 14.75 7.25 14.65 7.3 14.5 7.3 14.45 7.3 14.2 7.3 13.95 7.35 13.8 7.35 13.55 7.4 13.4 7.4 13.3 7.45 13.25 7.45 13.15 7.45 13.1 7.5 13.0 7.5 12.95 7.55 12.85 7.55 12.8 7.6 12.7 7.6 12.65 7.65 12.55 7.7 12.45 7.75 12.4 7.8 12.25 7.9 12.0 7.9 12.0 8.0 12.0 8.1 12.05 8.15 12.05 8.25 12.1 8.35 12.1 8.4 12.1 8.5 12.1 8.55 12.1 8.65 12.1 8.7 12.1 8.8 12.15 8.85 12.1 8.9 12.1 9.0 12.1 9.05 12.1 9.1 12.1 9.35 12.05 9.6 11.95 9.8 11.85 10.0 11.7 10.15 11.6 10.3 11.4 10.4 11.25 10.45 11.1 10.55 10.9 10.55 10.7 10.55 10.5 10.55 10.3 10.55 10.15 10.5 9.95 10.45 9.75 10.35 9.6 10.25 9.45 10.2 9.3 10.15 9.15 10.15 9.0 10.15 8.85 10.15 8.75 10.15 8.6 10.2 8.5 10.25 8.35 10.35 8.25 10.45 8.15 10.55 8.0 10.65 7.9 10.8 7.8 10.95 7.7 11.1 7.55 11.25 7.45 11.4 7.3 11.6 7.15 11.7 7.0 11.85 6.8 11.9 6.65 12.0 6.45 12.05 6.25 12.1 6.05 12.1 5.85 12.15 5.65 12.1 5.4 12.05 5.2 11.95 5.0 11.85 4.75 11.65 4.55 L11.65 4.55 M8.45 11.15 Q8.6 10.9 9.3 9.95 9.35 9.85 9.45 9.85 9.5 9.85 9.5 9.95 9.55 10.05 9.55 10.15 9.55 10.3 9.55 10.45 9.5 10.6 9.4 10.75 9.35 10.9 9.2 11.0 9.1 11.1 8.9 11.15 8.7 11.2 8.45 11.15 L8.45 11.15" fill="#f1edf8" fill-rule="evenodd" stroke="none"/>
  </g>
</svg>
