<?xml version="1.0" encoding="UTF-8" standalone="no"?>
<svg xmlns:ffdec="https://www.free-decompiler.com/flash" xmlns:xlink="http://www.w3.org/1999/xlink" ffdec:objectType="shape" height="26.0px" width="26.0px" xmlns="http://www.w3.org/2000/svg">
  <g transform="matrix(1.0, 0.0, 0.0, 1.0, 0.0, 0.0)">
    <path d="M9.8 18.7 Q9.8 18.7 10.0 18.7 10.3 18.65 10.6 18.65 11.0 18.6 11.45 18.6 12.0 18.6 12.5 18.55 13.1 18.55 13.6 18.55 14.25 18.55 14.75 18.6 15.3 18.6 15.75 18.65 16.25 18.75 16.6 18.85 16.6 18.85 16.6 18.8 16.6 18.9 16.6 18.7 16.6 18.6 16.65 18.5 16.65 18.4 16.65 18.3 16.65 18.2 16.65 18.1 16.6 17.95 16.6 17.85 16.6 17.7 16.55 17.6 16.5 17.5 16.45 17.4 16.6 17.35 12.9 17.35 9.35 17.4 9.35 17.55 9.55 18.1 9.8 18.7 L9.8 18.7" fill="#f1edf8" fill-rule="evenodd" stroke="none"/>
  </g>
</svg>
