<?xml version="1.0" encoding="UTF-8" standalone="no"?>
<svg xmlns:ffdec="https://www.free-decompiler.com/flash" xmlns:xlink="http://www.w3.org/1999/xlink" ffdec:objectType="shape" height="26.0px" width="26.0px" xmlns="http://www.w3.org/2000/svg">
  <g transform="matrix(1.0, 0.0, 0.0, 1.0, 0.0, 0.0)">
    <path d="M7.3 9.9 Q7.3 9.9 7.55 9.9 7.9 9.85 8.25 9.8 8.8 9.75 9.35 9.7 10.1 9.7 10.85 9.65 11.75 9.6 12.7 9.6 13.75 9.6 14.8 9.6 15.95 9.65 17.1 9.7 18.4 9.8 19.65 9.95 19.6 10.0 19.8 9.6 20.05 9.0 20.6 8.05 22.2 7.95 12.95 8.2 5.35 8.4 5.4 8.75 6.35 9.35 7.3 9.9 L7.3 9.9" fill="#f1edf8" fill-rule="evenodd" stroke="none"/>
  </g>
</svg>
