<?xml version="1.0" encoding="UTF-8" standalone="no"?>
<svg xmlns:ffdec="https://www.free-decompiler.com/flash" xmlns:xlink="http://www.w3.org/1999/xlink" ffdec:objectType="shape" height="26.0px" width="26.0px" xmlns="http://www.w3.org/2000/svg">
  <g transform="matrix(1.0, 0.0, 0.0, 1.0, 0.0, 0.0)">
    <path d="M12.85 9.65 Q12.8 9.85 12.85 10.0 12.9 10.15 13.0 10.25 13.1 10.35 13.25 10.45 13.4 10.5 13.55 10.55 13.7 10.6 13.9 10.65 14.0 10.65 14.15 10.65 14.25 10.7 14.35 10.7 14.4 10.7 14.45 10.7 14.35 10.65 14.25 10.55 14.2 10.5 14.15 10.45 14.05 10.4 14.05 10.35 14.0 10.25 14.0 10.2 13.95 10.15 13.95 10.05 14.0 10.0 14.0 9.9 14.05 9.85 14.15 9.75 14.2 9.65 14.3 9.5 14.35 9.45 14.4 9.4 14.45 9.4 14.5 9.35 14.55 9.3 14.65 9.3 14.7 9.25 14.8 9.25 14.85 9.25 14.95 9.2 15.05 9.2 15.1 9.2 15.2 9.2 15.3 9.2 15.4 9.2 15.5 9.2 L18.7 9.2 18.8 9.05 Q18.6 9.3 18.45 9.6 18.25 9.9 18.1 10.2 17.95 10.5 17.8 10.8 17.6 11.15 17.45 11.5 17.3 11.85 17.15 12.25 17.0 12.65 16.85 13.1 16.65 13.5 16.5 14.0 16.35 14.45 16.15 15.0 16.05 15.35 15.95 15.75 15.8 16.1 15.7 16.55 15.6 16.95 15.55 17.4 15.45 17.8 15.35 18.25 15.3 18.65 15.25 19.05 15.15 19.45 15.1 19.8 15.1 20.15 15.05 20.45 15.05 20.75 15.05 21.0 L15.05 21.35 17.15 21.35 Q17.15 21.0 17.15 20.65 17.2 20.3 17.2 19.9 17.25 19.55 17.3 19.1 17.35 18.7 17.4 18.3 17.5 17.85 17.6 17.4 17.65 16.95 17.8 16.55 17.9 16.1 18.0 15.65 18.15 15.2 18.3 14.8 18.85 13.05 20.45 9.85 21.1 8.65 21.25 8.45 L21.25 7.45 15.35 7.45 Q15.25 7.45 15.1 7.45 15.0 7.45 14.9 7.45 14.8 7.45 14.7 7.45 14.6 7.4 14.5 7.4 14.45 7.4 14.35 7.35 14.3 7.35 14.2 7.35 14.15 7.3 14.1 7.3 14.0 7.25 13.95 7.25 L13.2 7.25 12.85 9.65" fill="#f1edf8" fill-rule="evenodd" stroke="none"/>
  </g>
</svg>
