<?xml version="1.0" encoding="UTF-8" standalone="no"?>
<svg xmlns:ffdec="https://www.free-decompiler.com/flash" xmlns:xlink="http://www.w3.org/1999/xlink" ffdec:objectType="shape" height="26.0px" width="26.0px" xmlns="http://www.w3.org/2000/svg">
  <g transform="matrix(1.0, 0.0, 0.0, 1.0, 0.0, 0.0)">
    <path d="M6.45 6.8 L6.35 7.35 6.6 7.75 Q6.6 7.75 6.65 7.75 6.7 7.7 6.75 7.7 6.85 7.7 6.95 7.7 7.05 7.7 7.15 7.75 7.25 7.75 7.4 7.8 7.5 7.9 7.6 8.0 7.75 8.1 7.85 8.25 7.95 8.4 8.05 8.65 8.05 8.65 8.05 8.65 8.15 8.45 8.05 8.6 8.1 8.55 8.1 8.5 8.1 8.5 8.1 8.45 8.15 8.4 8.15 8.35 8.15 8.3 8.15 8.3 8.15 8.25 8.15 8.2 8.1 8.15 8.1 8.15 8.1 8.15 8.1 8.1 8.05 8.05 8.05 8.0 8.0 7.9 7.95 7.85 7.9 7.75 7.85 7.65 7.75 7.55 7.7 7.45 7.65 7.35 7.55 7.25 7.5 7.15 7.4 7.05 7.35 7.0 7.25 6.95 7.2 6.9 7.15 6.9 7.1 6.85 7.05 6.85 7.0 6.85 6.9 6.8 6.85 6.8 6.8 6.8 6.75 6.8 6.65 6.8 6.6 6.8 6.55 6.8 6.5 6.8 6.5 6.8 6.45 6.8 6.45 6.8 L6.45 6.8 M5.95 8.55 L6.3 9.0 6.8 9.1 Q6.8 9.1 6.8 9.05 6.85 9.0 6.85 8.95 6.9 8.9 6.95 8.8 7.05 8.75 7.15 8.7 7.2 8.6 7.35 8.55 7.45 8.5 7.6 8.5 7.8 8.45 7.95 8.5 8.15 8.5 8.4 8.6 8.4 8.6 8.4 8.6 8.4 8.6 8.35 8.55 8.35 8.5 8.35 8.45 8.3 8.45 8.3 8.4 8.3 8.35 8.25 8.35 8.25 8.3 8.2 8.25 8.15 8.25 8.15 8.25 8.1 8.2 8.05 8.2 8.05 8.2 8.0 8.2 7.95 8.15 7.9 8.15 7.8 8.15 7.7 8.1 7.6 8.1 7.5 8.1 7.4 8.05 7.25 8.05 7.15 8.05 7.05 8.0 6.9 8.0 6.8 8.0 6.7 8.05 6.6 8.05 6.55 8.05 6.5 8.1 6.45 8.1 6.4 8.15 6.35 8.2 6.3 8.25 6.25 8.25 6.2 8.3 6.15 8.35 6.1 8.4 6.05 8.45 6.05 8.5 6.0 8.5 6.0 8.55 6.0 8.55 5.95 8.55 L5.95 8.55 M7.6 10.2 L8.15 10.0 8.35 9.55 Q8.35 9.55 8.3 9.5 8.3 9.5 8.25 9.4 8.2 9.35 8.15 9.25 8.1 9.15 8.05 9.05 8.0 8.9 8.0 8.8 8.0 8.65 8.05 8.5 8.05 8.3 8.15 8.15 8.25 7.95 8.4 7.75 8.4 7.75 8.4 7.75 8.35 7.75 8.35 7.75 8.3 7.75 8.25 7.8 8.2 7.8 8.2 7.8 8.15 7.8 8.1 7.8 8.05 7.85 8.05 7.85 8.0 7.9 7.95 7.9 7.95 7.95 7.9 7.95 7.9 7.95 7.9 8.0 7.85 8.05 7.85 8.1 7.75 8.25 7.75 8.3 7.7 8.4 7.65 8.5 7.6 8.65 7.55 8.75 7.5 8.85 7.45 9.0 7.4 9.1 7.35 9.2 7.35 9.35 7.35 9.4 7.35 9.45 7.35 9.5 7.35 9.55 7.4 9.65 7.4 9.7 7.4 9.75 7.45 9.8 7.45 9.9 7.5 9.95 7.5 10.0 7.55 10.05 7.55 10.1 7.6 10.15 7.6 10.15 7.6 10.15 7.6 10.2 L7.6 10.2 M9.9 9.2 L9.7 8.65 9.3 8.45 Q9.3 8.45 9.3 8.45 9.25 8.5 9.25 8.5 9.2 8.55 9.15 8.55 9.05 8.6 9.0 8.6 8.9 8.6 8.8 8.6 8.7 8.6 8.55 8.55 8.45 8.5 8.25 8.4 8.1 8.3 7.9 8.15 7.9 8.15 7.9 8.15 7.9 8.2 7.9 8.2 7.9 8.25 7.95 8.3 7.95 8.3 7.95 8.35 7.95 8.4 7.95 8.45 8.0 8.45 8.0 8.5 8.05 8.55 8.05 8.55 8.1 8.6 8.1 8.6 8.1 8.6 8.15 8.65 8.2 8.75 8.2 8.75 8.25 8.8 8.3 8.85 8.4 8.95 8.45 9.05 8.55 9.1 8.6 9.2 8.7 9.25 8.8 9.35 8.9 9.4 8.95 9.45 9.05 9.5 9.15 9.5 9.55 9.35 9.9 9.2 L9.9 9.2 M9.95 7.2 L9.5 6.9 9.05 7.05 Q9.05 7.05 9.05 7.1 9.05 7.15 9.05 7.2 9.05 7.3 9.0 7.35 8.95 7.45 8.9 7.55 8.85 7.65 8.75 7.75 8.65 7.85 8.55 7.9 8.4 8.0 8.2 8.05 8.05 8.1 7.8 8.15 7.8 8.15 7.8 8.15 7.8 8.15 7.85 8.2 7.85 8.2 7.9 8.2 7.9 8.25 7.95 8.25 8.0 8.3 8.0 8.3 8.05 8.35 8.1 8.35 8.15 8.35 8.15 8.35 8.2 8.35 8.25 8.35 8.25 8.35 8.3 8.35 8.35 8.35 8.4 8.3 8.5 8.3 8.6 8.3 8.7 8.25 8.8 8.25 8.9 8.2 9.0 8.2 9.15 8.15 9.25 8.1 9.35 8.05 9.45 8.0 9.55 7.95 9.6 7.9 9.65 7.9 9.7 7.85 9.7 7.8 9.75 7.75 9.8 7.7 9.8 7.6 9.85 7.55 9.85 7.5 9.9 7.45 9.9 7.4 9.95 7.35 9.95 7.3 9.95 7.25 9.95 7.2 9.95 7.2 9.95 7.2 L9.95 7.2 M8.45 6.05 L7.9 6.3 7.7 6.7 Q7.7 6.7 7.75 6.75 7.8 6.75 7.8 6.8 7.85 6.9 7.9 6.95 7.95 7.05 8.0 7.15 8.05 7.25 8.05 7.35 8.05 7.5 8.05 7.65 8.0 7.8 7.95 8.0 7.85 8.2 7.7 8.4 7.7 8.4 7.75 8.4 7.75 8.4 7.8 8.35 7.85 8.35 7.85 8.35 7.9 8.3 7.95 8.3 8.0 8.25 8.05 8.25 8.1 8.2 8.15 8.15 8.2 8.15 8.25 8.1 8.25 8.05 8.3 8.05 8.3 8.05 8.3 8.0 8.35 8.0 8.35 7.9 8.4 7.8 8.45 7.75 8.5 7.7 8.55 7.6 8.6 7.5 8.6 7.4 8.65 7.3 8.7 7.2 8.75 7.1 8.75 7.0 8.8 6.85 8.8 6.8 8.6 6.4 8.45 6.05 L8.45 6.05" fill="#f1edf8" fill-rule="evenodd" stroke="none"/>
  </g>
</svg>
