<?xml version="1.0" encoding="UTF-8" standalone="no"?>
<svg xmlns:ffdec="https://www.free-decompiler.com/flash" xmlns:xlink="http://www.w3.org/1999/xlink" ffdec:objectType="shape" height="26.0px" width="35.75px" xmlns="http://www.w3.org/2000/svg">
  <g transform="matrix(1.0, 0.0, 0.0, 1.0, 0.0, 0.0)">
    <path d="M15.4 8.15 L15.4 5.25 9.6 5.25 6.75 5.25 5.7 5.25 5.7 5.3 5.7 6.85 5.7 6.85 Q5.75 6.9 5.75 6.9 5.8 6.95 5.85 6.95 5.85 7.0 5.9 7.05 5.95 7.05 5.95 7.1 6.0 7.15 6.0 7.15 6.05 7.2 6.05 7.25 6.1 7.25 6.1 7.3 6.15 7.35 6.15 7.35 6.2 7.4 6.2 7.5 6.25 7.55 6.25 7.6 6.3 7.7 6.3 7.75 6.3 7.8 6.35 7.9 6.35 7.95 6.35 8.05 6.35 8.1 6.4 8.15 6.4 8.25 6.4 8.3 6.4 8.35 6.4 8.45 L6.4 9.15 6.4 17.25 Q6.4 17.6 6.35 17.85 6.3 18.1 6.25 18.3 6.2 18.5 6.15 18.65 6.1 18.8 6.0 18.85 5.95 18.95 5.9 19.0 5.85 19.05 5.8 19.05 5.75 19.1 5.7 19.1 5.7 19.1 5.7 19.1 L5.7 20.75 9.05 20.75 9.05 20.75 12.85 20.75 Q12.85 20.75 15.4 20.75 L15.4 18.05 14.55 18.05 Q14.55 18.05 14.5 18.05 14.45 18.1 14.4 18.15 14.3 18.2 14.2 18.25 14.05 18.3 13.85 18.35 13.65 18.4 13.4 18.45 13.1 18.5 12.75 18.55 12.4 18.6 11.95 18.6 11.5 18.65 11.0 18.65 10.7 18.65 10.4 18.55 10.15 18.5 9.95 18.4 9.75 18.25 9.55 18.1 9.4 17.95 9.3 17.75 9.2 17.6 9.1 17.4 9.05 17.25 9.0 17.05 8.95 16.9 8.95 16.75 8.9 16.65 8.9 16.5 L8.9 13.7 10.9 13.7 Q10.9 13.7 11.0 13.7 11.15 13.7 11.3 13.7 11.5 13.7 11.7 13.65 11.95 13.65 12.2 13.6 12.45 13.55 12.7 13.55 12.95 13.45 13.15 13.4 13.4 13.3 13.5 13.25 13.7 13.1 13.75 13.0 L13.95 12.4 14.2 11.75 Q14.2 11.75 14.15 11.75 14.1 11.8 14.0 11.8 13.9 11.8 13.8 11.85 13.6 11.85 13.4 11.85 13.15 11.9 12.9 11.9 12.55 11.9 12.2 11.95 11.8 11.95 11.35 11.9 10.85 11.9 10.25 11.9 10.3 11.85 10.25 11.9 10.25 11.95 10.2 11.95 10.15 12.0 10.1 12.0 10.05 12.05 10.0 12.1 9.9 12.15 9.8 12.2 9.7 12.25 9.6 12.25 9.45 12.3 9.3 12.3 9.1 12.35 8.9 12.35 L8.9 10.05 8.75 10.15 8.65 10.25 8.6 10.3 8.5 10.2 8.35 10.2 8.35 10.05 8.4 10.1 8.45 10.0 8.5 9.9 8.7 9.9 8.75 9.8 8.9 9.7 8.9 8.1 Q8.95 7.95 9.05 7.8 9.1 7.7 9.25 7.6 9.35 7.5 9.5 7.45 9.65 7.4 9.8 7.35 9.95 7.3 10.1 7.3 10.25 7.3 10.35 7.3 10.45 7.3 10.55 7.3 10.55 7.3 10.6 7.3 L11.8 7.3 Q11.8 7.3 11.9 7.3 12.05 7.3 12.2 7.3 12.4 7.3 12.6 7.35 12.85 7.35 13.1 7.4 13.35 7.4 13.6 7.5 13.85 7.55 14.05 7.65 14.3 7.7 14.45 7.85 14.65 7.95 14.7 8.15 L15.4 8.15" fill="#f1edf8" fill-rule="evenodd" stroke="none"/>
    <path d="M22.05 17.85 Q22.05 17.55 22.0 17.25 21.9 17.0 21.8 16.8 21.75 16.6 21.6 16.45 21.5 16.3 21.35 16.15 21.25 16.05 21.1 16.0 21.0 15.9 20.9 15.85 20.85 15.85 20.75 15.8 20.75 15.8 20.7 15.8 19.85 15.6 19.05 15.4 18.75 15.3 18.5 15.15 18.3 15.0 18.15 14.85 18.0 14.75 17.9 14.6 17.85 14.45 17.8 14.35 17.75 14.25 17.75 14.1 17.7 14.05 17.7 13.95 17.7 13.9 17.75 13.8 17.75 13.8 17.75 13.8 17.85 13.5 18.05 13.3 18.25 13.1 18.5 13.0 18.75 12.9 19.0 12.9 19.25 12.85 19.5 12.9 19.75 12.9 20.0 13.0 20.2 13.05 20.4 13.1 20.55 13.15 20.65 13.2 20.7 13.25 20.75 13.25 L21.6 13.25 21.6 11.95 Q21.25 11.75 20.85 11.65 20.5 11.5 20.15 11.45 19.8 11.4 19.5 11.4 19.2 11.35 18.9 11.4 18.7 11.4 18.45 11.45 18.25 11.45 18.1 11.5 17.95 11.55 17.85 11.55 17.8 11.6 17.75 11.6 17.45 11.7 17.2 11.85 17.0 11.95 16.8 12.15 16.65 12.3 16.55 12.5 16.4 12.7 16.35 12.9 16.25 13.05 16.2 13.25 16.2 13.4 16.15 13.55 16.15 13.65 16.15 13.75 16.1 13.75 16.1 13.8 16.1 14.15 16.2 14.45 16.25 14.75 16.35 15.0 16.5 15.25 16.65 15.45 16.75 15.65 16.95 15.8 17.05 15.95 17.25 16.1 17.35 16.2 17.5 16.25 17.6 16.35 17.7 16.4 17.7 16.4 17.75 16.4 L17.95 16.4 18.05 16.25 18.15 16.25 18.35 16.1 18.6 16.1 Q18.5 16.15 18.45 16.2 18.4 16.25 18.35 16.3 18.3 16.3 18.25 16.35 18.2 16.4 18.15 16.45 18.15 16.45 18.1 16.5 18.1 16.55 18.1 16.55 18.05 16.6 18.05 16.6 18.05 16.6 18.05 16.6 18.5 16.7 18.9 16.8 19.25 16.9 19.55 17.0 19.75 17.1 19.95 17.2 20.1 17.3 20.25 17.45 20.35 17.55 20.4 17.65 20.45 17.7 20.45 17.8 20.45 17.85 20.45 17.9 20.45 17.95 20.45 17.95 20.45 18.15 20.4 18.35 20.3 18.5 20.2 18.6 20.05 18.75 19.9 18.85 19.75 18.9 19.6 18.95 19.45 19.0 19.25 19.05 19.1 19.1 18.95 19.1 18.85 19.1 18.75 19.15 18.75 19.15 18.7 19.15 18.4 19.15 18.15 19.05 17.95 19.0 17.75 18.9 17.55 18.85 17.4 18.75 17.25 18.65 17.15 18.55 17.05 18.45 17.0 18.35 16.9 18.25 16.85 18.15 16.85 18.1 16.8 18.05 16.8 18.05 16.8 18.0 L15.9 18.0 15.9 19.45 Q16.0 19.7 16.2 19.85 16.35 20.05 16.6 20.2 16.8 20.3 17.1 20.4 17.3 20.5 17.55 20.55 17.8 20.6 18.05 20.65 18.2 20.7 18.4 20.7 18.55 20.7 18.7 20.7 18.75 20.7 18.8 20.75 19.15 20.75 19.45 20.75 19.7 20.7 20.0 20.65 20.2 20.55 20.45 20.5 20.6 20.4 20.8 20.3 20.9 20.2 21.05 20.1 21.15 20.05 21.2 19.95 21.3 19.9 21.3 19.85 21.35 19.8 21.35 19.8 21.5 19.6 21.6 19.35 21.75 19.2 21.8 19.0 21.9 18.8 21.95 18.65 22.0 18.5 22.0 18.35 22.05 18.25 22.05 18.15 22.05 18.05 22.05 18.0 22.05 17.9 22.05 17.9 22.05 17.85 22.05 17.85 L22.05 17.85" fill="#f1edf8" fill-rule="evenodd" stroke="none"/>
    <path d="M26.25 18.95 Q26.25 18.95 26.15 18.95 26.05 18.9 25.9 18.9 25.75 18.85 25.55 18.8 25.35 18.7 25.15 18.6 24.95 18.45 24.75 18.25 24.55 18.05 24.4 17.75 24.25 17.45 24.2 17.05 24.1 16.65 24.1 16.15 24.1 15.6 24.2 15.15 24.3 14.75 24.45 14.45 24.6 14.15 24.8 13.9 25.0 13.7 25.25 13.55 25.45 13.4 25.65 13.35 25.85 13.25 26.0 13.2 26.15 13.2 26.3 13.15 26.35 13.15 26.4 13.15 26.4 13.15 26.45 13.15 26.6 13.15 26.7 13.15 26.85 13.15 27.0 13.2 27.15 13.2 27.3 13.25 27.5 13.35 27.65 13.4 27.85 13.5 27.95 13.65 28.1 13.8 28.15 13.95 28.25 14.15 28.25 14.45 L28.6 14.6 Q28.6 14.6 28.65 14.55 28.7 14.5 28.8 14.45 28.9 14.35 29.0 14.3 29.1 14.15 29.2 14.05 29.35 13.9 29.45 13.8 29.6 13.6 29.7 13.5 29.85 13.3 29.9 13.15 30.0 13.0 30.05 12.85 30.05 12.85 30.05 12.85 30.05 12.85 30.0 12.85 30.0 12.9 29.95 12.9 29.9 12.9 29.85 12.9 29.8 12.85 29.75 12.85 29.65 12.8 29.6 12.75 29.5 12.7 29.4 12.6 29.3 12.45 29.2 12.35 29.2 12.35 29.15 12.3 29.05 12.25 29.0 12.2 28.85 12.1 28.75 12.05 28.6 11.95 28.4 11.9 28.2 11.8 28.0 11.7 27.75 11.65 27.55 11.55 27.25 11.5 27.0 11.45 26.7 11.45 26.4 11.45 25.6 11.4 24.95 11.6 24.35 11.75 23.85 12.1 23.45 12.35 23.1 12.8 22.8 13.15 22.6 13.65 22.4 14.05 22.3 14.5 22.2 14.85 22.15 15.25 22.1 15.5 22.05 15.75 22.05 15.85 22.05 15.95 22.05 16.85 22.25 17.6 22.45 18.25 22.75 18.8 23.05 19.3 23.45 19.65 23.75 19.95 24.2 20.2 24.55 20.4 24.95 20.55 25.3 20.65 25.6 20.7 25.85 20.7 26.1 20.7 26.2 20.7 26.25 20.75 26.7 20.75 27.15 20.65 27.55 20.55 27.95 20.4 28.3 20.25 28.6 20.1 28.9 19.9 29.15 19.7 29.35 19.55 29.55 19.35 29.7 19.2 29.85 19.05 29.95 18.95 30.0 18.8 30.05 18.8 30.05 18.75 L30.0 16.45 29.6 16.55 Q29.35 17.0 29.1 17.4 28.85 17.75 28.55 18.0 28.25 18.25 28.0 18.45 27.7 18.6 27.45 18.7 27.2 18.8 27.0 18.85 26.8 18.9 26.6 18.9 26.45 18.95 26.35 18.95 26.3 18.95 26.25 18.95 L26.25 18.95" fill="#f1edf8" fill-rule="evenodd" stroke="none"/>
  </g>
</svg>
