<?xml version="1.0" encoding="UTF-8" standalone="no"?>
<svg xmlns:ffdec="https://www.free-decompiler.com/flash" xmlns:xlink="http://www.w3.org/1999/xlink" ffdec:objectType="shape" height="26.0px" width="26.0px" xmlns="http://www.w3.org/2000/svg">
  <g transform="matrix(1.0, 0.0, 0.0, 1.0, 0.0, 0.0)">
    <path d="M4.9 4.65 Q5.1 4.7 5.25 4.75 5.4 4.85 5.5 4.95 5.6 5.05 5.65 5.15 5.75 5.25 5.75 5.35 5.8 5.45 5.8 5.6 5.8 5.65 5.8 5.75 5.8 5.85 5.8 5.9 5.8 5.9 5.8 5.95 5.45 6.85 5.3 7.8 5.2 8.65 5.25 9.5 5.3 10.25 5.5 11.0 5.7 11.65 6.0 12.3 6.25 12.8 6.55 13.35 6.85 13.75 7.1 14.1 7.35 14.4 7.55 14.6 7.6 14.7 7.7 14.8 7.2 14.1 6.9 13.35 6.6 12.65 6.5 11.9 6.4 11.2 6.4 10.45 6.45 9.8 6.55 9.15 6.7 8.55 6.85 8.0 7.0 7.55 7.2 7.1 7.3 6.8 7.45 6.5 7.5 6.4 7.55 6.3 L6.95 5.85 7.0 5.65 8.35 5.65 8.35 4.65 4.9 4.65" fill="#f1edf8" fill-rule="evenodd" stroke="none"/>
  </g>
</svg>
