<?xml version="1.0" encoding="UTF-8" standalone="no"?>
<svg xmlns:ffdec="https://www.free-decompiler.com/flash" xmlns:xlink="http://www.w3.org/1999/xlink" ffdec:objectType="shape" height="26.0px" width="26.0px" xmlns="http://www.w3.org/2000/svg">
  <g transform="matrix(1.0, 0.0, 0.0, 1.0, 0.0, 0.0)">
    <path d="M14.35 21.7 Q14.95 21.7 15.35 21.65 15.9 21.65 16.35 21.55 16.9 21.45 17.35 21.3 17.85 21.15 18.3 20.9 18.75 20.6 19.15 20.25 19.55 19.85 19.9 19.3 20.25 18.75 20.55 18.05 20.85 17.3 21.05 16.4 21.3 15.3 21.4 14.3 21.5 13.35 21.4 12.5 21.35 11.7 21.2 11.05 21.0 10.35 20.7 9.85 20.4 9.3 19.95 8.95 19.55 8.55 19.1 8.3 18.6 8.1 18.05 8.0 17.45 7.9 16.85 8.0 16.4 8.05 15.95 8.2 15.55 8.35 15.15 8.6 14.75 8.85 14.4 9.2 14.05 9.5 13.8 9.9 13.5 10.3 13.3 10.75 13.1 11.2 12.95 11.7 12.85 12.2 12.8 12.7 12.75 13.2 12.8 13.7 12.85 14.0 12.95 14.3 13.1 14.6 13.3 14.9 13.55 15.2 13.85 15.5 14.2 15.75 14.6 16.0 15.05 16.2 15.5 16.3 16.05 16.45 16.65 16.4 17.25 16.4 17.9 16.2 18.6 16.05 19.35 15.7 19.35 15.7 19.3 15.85 19.2 16.0 19.15 16.2 19.0 16.45 18.85 16.7 18.7 17.0 18.5 17.3 18.3 17.65 18.1 17.95 17.9 18.25 17.65 18.55 17.4 18.85 17.15 19.05 16.9 19.25 16.65 19.35 16.3 19.5 16.0 19.6 15.75 19.65 15.5 19.7 15.25 19.7 15.1 19.7 14.9 19.65 14.75 19.6 14.65 19.55 14.5 19.5 14.4 19.4 14.35 19.3 14.3 19.25 14.2 19.2 14.15 19.1 14.1 19.1 14.05 19.05 14.0 19.05 13.9 19.0 13.8 19.0 13.7 19.0 13.6 19.0 13.5 19.05 13.4 19.05 13.25 19.1 13.2 19.15 13.1 19.25 13.0 19.3 12.95 19.4 12.95 19.5 12.9 19.65 12.95 19.8 13.0 20.0 12.95 20.2 12.95 20.35 12.85 20.55 12.85 20.55 12.7 20.85 12.6 21.05 12.6 21.15 12.55 21.25 12.6 21.35 12.7 21.45 12.85 21.55 13.05 21.6 13.4 21.65 13.8 21.7 14.35 21.7 L14.35 21.7 M15.0 12.6 Q15.0 12.35 15.1 12.05 15.15 11.8 15.25 11.5 15.35 11.25 15.5 11.0 15.65 10.75 15.85 10.55 16.05 10.3 16.25 10.2 16.5 10.0 16.75 9.95 17.05 9.9 17.35 9.9 17.65 9.95 17.95 10.05 18.25 10.15 18.45 10.4 18.7 10.6 18.85 10.85 19.0 11.1 19.15 11.45 19.25 11.7 19.3 12.05 19.4 12.3 19.4 12.65 19.45 12.85 19.45 13.1 19.5 13.3 19.5 13.45 19.5 13.5 19.5 13.6 19.15 13.8 18.8 13.95 18.4 14.05 18.0 14.15 17.65 14.25 17.25 14.3 16.85 14.3 16.55 14.25 16.15 14.2 15.9 14.1 15.6 14.0 15.4 13.8 15.2 13.6 15.1 13.3 15.0 13.0 15.0 12.6 L15.0 12.6" fill="#f1edf8" fill-rule="evenodd" stroke="none"/>
  </g>
</svg>
