<?xml version="1.0" encoding="UTF-8" standalone="no"?>
<svg xmlns:ffdec="https://www.free-decompiler.com/flash" xmlns:xlink="http://www.w3.org/1999/xlink" ffdec:objectType="shape" height="26.0px" width="26.0px" xmlns="http://www.w3.org/2000/svg">
  <g transform="matrix(1.0, 0.0, 0.0, 1.0, 0.0, 0.0)">
    <path d="M5.0 5.15 Q5.5 5.35 5.85 5.7 6.2 6.05 6.45 6.5 6.7 6.9 6.8 7.4 6.95 7.85 7.0 8.4 7.05 8.8 7.05 9.3 7.1 9.65 7.05 10.05 7.05 10.35 7.0 10.6 7.0 10.7 7.0 10.8 7.0 11.15 6.9 11.5 6.85 11.8 6.7 12.2 6.6 12.5 6.5 12.85 6.4 13.15 6.25 13.45 6.15 13.75 6.0 14.0 5.9 14.2 5.8 14.4 5.7 14.55 5.65 14.7 5.6 14.75 5.6 14.8 6.15 14.45 6.55 14.05 6.95 13.65 7.3 13.2 7.6 12.75 7.8 12.3 8.0 11.85 8.15 11.4 8.3 11.05 8.35 10.65 8.4 10.3 8.45 10.0 8.5 9.8 8.5 9.6 8.5 9.5 8.5 9.4 8.5 8.9 8.45 8.4 8.4 8.0 8.35 7.6 8.3 7.2 8.2 6.9 8.15 6.6 8.05 6.3 7.95 6.1 7.85 5.85 7.8 5.7 7.7 5.55 7.65 5.45 7.6 5.4 7.6 5.35 7.55 5.3 L7.55 5.3 Q7.55 5.2 7.6 5.15 7.65 5.05 7.7 4.95 7.8 4.85 7.9 4.75 7.95 4.65 8.05 4.55 8.15 4.5 8.25 4.4 8.35 4.35 8.45 4.25 8.5 4.25 8.55 4.2 8.55 4.15 8.6 4.15 L5.0 4.15 5.0 5.15" fill="#f1edf8" fill-rule="evenodd" stroke="none"/>
  </g>
</svg>
