<?xml version="1.0" encoding="UTF-8" standalone="no"?>
<svg xmlns:ffdec="https://www.free-decompiler.com/flash" xmlns:xlink="http://www.w3.org/1999/xlink" ffdec:objectType="shape" height="26.0px" width="26.0px" xmlns="http://www.w3.org/2000/svg">
  <g transform="matrix(1.0, 0.0, 0.0, 1.0, 0.0, 0.0)">
    <path d="M21.45 12.55 Q21.25 11.9 21.25 11.85 21.1 11.4 21.0 11.05 20.85 10.65 20.65 10.25 20.45 9.85 20.2 9.5 19.95 9.1 19.6 8.8 19.25 8.5 18.85 8.25 18.4 8.0 17.85 7.9 17.3 7.75 16.65 7.75 15.9 7.75 15.3 8.0 14.7 8.2 14.2 8.6 13.75 9.0 13.35 9.55 13.0 10.05 12.75 10.65 12.5 11.15 12.3 11.8 12.15 12.3 12.05 12.85 11.95 13.35 11.9 13.75 11.85 14.15 11.85 14.4 11.9 18.8 11.85 15.05 11.85 15.55 11.9 16.0 11.95 16.65 12.05 17.2 12.15 17.85 12.35 18.45 12.6 19.1 12.95 19.65 13.3 20.25 13.8 20.65 14.35 21.1 15.0 21.35 15.75 21.65 16.7 21.65 17.6 21.65 18.35 21.3 19.05 21.05 19.65 20.45 20.15 19.95 20.55 19.2 20.9 18.55 21.15 17.75 21.35 17.0 21.5 16.2 21.6 15.45 21.6 14.7 21.65 14.0 21.6 13.4 21.55 12.9 21.45 12.55 L21.45 12.55 M19.0 18.35 Q18.85 18.7 18.65 18.95 18.4 19.25 18.1 19.45 17.85 19.6 17.5 19.75 17.15 19.85 16.8 19.85 16.45 19.85 16.1 19.8 15.75 19.7 15.45 19.55 15.15 19.4 14.9 19.15 14.65 18.9 14.45 18.55 14.25 18.2 14.1 17.75 14.0 17.3 13.9 16.8 13.85 16.35 13.8 15.85 13.8 15.35 13.8 14.85 13.8 14.4 13.85 13.9 13.9 13.4 13.95 12.95 14.0 12.55 14.1 12.1 14.2 11.75 14.25 11.4 14.4 10.95 14.6 10.65 14.85 10.3 15.15 10.05 15.45 9.85 15.85 9.75 16.15 9.6 16.55 9.6 16.9 9.55 17.25 9.65 17.6 9.75 17.95 9.9 18.25 10.05 18.5 10.3 18.75 10.6 18.85 10.9 19.05 11.35 19.2 11.8 19.3 12.25 19.4 12.7 19.55 13.15 19.6 13.6 19.65 14.05 19.65 14.55 19.7 15.0 19.65 15.45 19.6 15.95 19.55 16.4 19.45 16.9 19.35 17.4 19.2 17.85 19.0 18.35 L19.0 18.35" fill="#f1edf8" fill-rule="evenodd" stroke="none"/>
  </g>
</svg>
