<?xml version="1.0" encoding="UTF-8" standalone="no"?>
<svg xmlns:ffdec="https://www.free-decompiler.com/flash" xmlns:xlink="http://www.w3.org/1999/xlink" ffdec:objectType="shape" height="26.0px" width="26.0px" xmlns="http://www.w3.org/2000/svg">
  <g transform="matrix(1.0, 0.0, 0.0, 1.0, 0.0, 0.0)">
    <path d="M11.1 5.25 L11.1 6.2 Q11.25 6.25 11.35 6.35 11.45 6.45 11.5 6.55 11.6 6.7 11.65 6.8 11.7 6.9 11.75 7.05 11.8 7.15 11.8 7.25 11.8 7.35 11.85 7.4 11.85 7.5 11.85 7.55 11.85 7.55 11.85 7.6 L11.85 17.7 Q11.85 18.05 11.8 18.35 11.75 18.65 11.7 18.85 11.65 19.05 11.6 19.25 11.55 19.35 11.45 19.45 11.4 19.55 11.3 19.6 11.25 19.65 11.2 19.7 11.15 19.7 11.15 19.7 11.1 19.7 11.1 19.7 L11.1 20.75 14.9 20.75 14.9 19.75 Q14.75 19.75 14.65 19.65 14.55 19.6 14.5 19.45 14.4 19.3 14.35 19.1 14.3 18.95 14.3 18.75 14.25 18.55 14.2 18.4 14.2 18.2 14.2 18.05 14.2 17.95 14.2 17.85 14.2 17.8 14.2 17.75 L14.2 10.25 14.0 10.35 13.9 10.45 13.8 10.4 13.6 10.4 13.6 10.25 13.7 10.3 13.75 10.2 13.75 10.1 14.0 10.1 14.0 10.0 14.2 9.9 14.2 7.4 Q14.2 7.25 14.25 7.1 14.25 6.95 14.3 6.85 14.35 6.75 14.4 6.65 14.5 6.55 14.55 6.5 14.6 6.45 14.7 6.4 14.75 6.35 14.8 6.3 14.85 6.3 14.85 6.3 14.9 6.25 14.9 6.25 L14.9 5.25 11.1 5.25" fill="#f1edf8" fill-rule="evenodd" stroke="none"/>
  </g>
</svg>
