<?xml version="1.0" encoding="UTF-8" standalone="no"?>
<svg xmlns:ffdec="https://www.free-decompiler.com/flash" xmlns:xlink="http://www.w3.org/1999/xlink" ffdec:objectType="shape" height="26.0px" width="26.0px" xmlns="http://www.w3.org/2000/svg">
  <g transform="matrix(1.0, 0.0, 0.0, 1.0, 0.0, 0.0)">
    <path d="M5.4 10.1 Q5.4 10.1 6.25 10.05 7.3 10.0 8.1 9.95 8.1 10.2 8.1 10.4 8.05 10.7 8.05 10.9 8.0 11.2 8.0 11.45 8.0 11.7 7.95 11.95 7.9 12.2 7.9 12.4 7.85 12.65 7.8 12.85 7.75 13.05 7.7 13.25 7.65 13.4 7.6 13.55 7.6 13.55 7.65 13.55 7.55 13.55 7.8 13.55 7.95 13.6 8.05 13.6 8.2 13.6 8.35 13.6 8.5 13.6 8.65 13.6 8.85 13.55 9.0 13.55 9.15 13.5 9.3 13.45 9.45 13.4 9.6 13.35 9.6 13.35 9.65 12.25 9.7 10.45 9.7 9.95 9.9 9.95 10.15 9.95 10.35 9.95 10.6 9.95 10.8 9.95 11.05 10.0 11.25 10.0 11.5 10.0 11.7 10.05 11.9 10.05 12.1 10.1 12.3 10.1 12.5 10.15 12.65 10.2 12.8 10.2 12.95 10.25 12.95 10.25 12.95 10.2 13.0 10.15 13.0 10.05 13.05 9.95 13.1 9.85 13.1 9.75 13.15 9.6 13.15 9.45 13.2 9.3 13.2 9.15 13.2 9.0 13.2 8.85 13.15 8.75 13.1 8.6 13.0 8.45 13.0 8.45 12.0 8.45 10.45 8.45 9.75 8.45 9.75 8.05 9.75 7.7 9.8 7.35 9.8 7.0 9.8 6.7 9.8 6.4 9.8 6.05 9.8 5.8 9.8 5.55 9.8 5.35 9.75 5.1 9.75 4.95 9.75 4.8 9.7 4.75 9.7 4.65 9.65 4.65 8.8 5.2 8.0 5.7 8.0 5.7 8.0 5.75 8.0 5.75 8.0 5.9 8.0 6.05 8.05 6.15 8.05 6.35 8.05 6.5 8.05 6.7 8.05 6.9 8.1 7.15 8.1 7.4 8.1 7.65 8.1 7.9 8.1 8.15 8.1 8.45 7.75 8.45 7.4 8.45 7.05 8.45 6.75 8.45 6.4 8.45 6.1 8.45 5.8 8.5 5.55 8.5 5.25 8.5 5.05 8.5 4.8 8.55 4.65 8.55 4.5 8.55 4.45 8.6 4.35 8.6 4.35 8.65 4.85 9.4 5.4 10.1 L5.4 10.1" fill="#f1edf8" fill-rule="evenodd" stroke="none"/>
  </g>
</svg>
