<?xml version="1.0" encoding="UTF-8" standalone="no"?>
<svg xmlns:ffdec="https://www.free-decompiler.com/flash" xmlns:xlink="http://www.w3.org/1999/xlink" ffdec:objectType="shape" height="26.0px" width="26.0px" xmlns="http://www.w3.org/2000/svg">
  <g transform="matrix(1.0, 0.0, 0.0, 1.0, 0.0, 0.0)">
    <path d="M20.0 18.8 Q20.0 18.8 20.0 18.8 19.95 18.8 19.9 18.8 19.9 18.8 19.85 18.8 19.7 18.8 19.7 18.8 19.6 18.8 19.55 18.8 19.4 18.8 19.3 18.8 19.2 18.85 19.1 18.85 18.95 18.85 18.8 18.85 18.8 18.85 18.85 18.85 18.85 18.8 18.85 18.8 18.75 18.75 14.95 18.8 11.0 18.85 11.05 19.15 11.05 19.85 11.05 20.5 11.05 20.5 11.3 20.45 11.7 20.4 12.05 20.35 12.55 20.3 13.1 20.25 13.8 20.2 14.45 20.15 15.25 20.1 16.0 20.1 16.85 20.1 17.65 20.1 18.5 20.15 19.3 20.25 20.15 20.4 20.85 20.55 20.85 20.55 20.85 20.55 20.85 20.5 20.85 20.45 20.9 20.4 20.9 20.35 20.9 20.3 20.9 20.2 20.95 20.1 20.95 20.0 20.95 19.85 20.9 19.75 20.9 19.6 20.9 19.4 20.9 19.25 20.85 19.05 20.85 19.05 20.85 19.05 20.8 19.0 20.8 19.0 20.8 19.0 20.75 18.95 20.7 18.95 20.65 18.9 20.6 18.9 20.55 18.85 20.5 18.85 20.4 18.8 20.35 18.8 20.25 18.8 20.1 18.8 20.0 18.8 L20.0 18.8 M21.25 16.9 Q21.25 16.9 21.25 16.85 21.2 16.85 21.15 16.8 21.1 16.8 21.05 16.75 21.0 16.7 20.95 16.65 20.85 16.6 20.75 16.55 20.65 16.55 20.55 16.5 20.45 16.45 20.3 16.45 20.2 16.45 20.05 16.45 20.05 16.45 20.05 16.4 20.15 16.35 15.55 16.4 11.0 16.45 11.05 16.75 11.05 17.45 11.1 18.1 11.1 18.1 11.35 18.05 11.7 18.0 12.05 17.95 12.6 17.9 13.1 17.85 13.8 17.8 14.45 17.75 15.25 17.7 16.0 17.7 16.85 17.7 17.65 17.7 18.5 17.75 19.3 17.85 20.15 18.0 20.85 18.15 20.85 18.15 20.85 18.1 20.85 18.05 20.85 18.0 20.85 17.9 20.85 17.85 20.9 17.75 20.95 17.65 20.95 17.6 21.05 17.5 21.1 17.45 21.2 17.4 21.35 17.35 21.5 17.35 21.65 17.35 21.85 17.4 21.8 17.4 21.25 16.9 L21.25 16.9" fill="#f1edf8" fill-rule="evenodd" stroke="none"/>
  </g>
</svg>
