<?xml version="1.0" encoding="UTF-8" standalone="no"?>
<svg xmlns:ffdec="https://www.free-decompiler.com/flash" xmlns:xlink="http://www.w3.org/1999/xlink" ffdec:objectType="shape" height="26.0px" width="41.75px" xmlns="http://www.w3.org/2000/svg">
  <g transform="matrix(1.0, 0.0, 0.0, 1.0, 0.0, 0.0)">
    <path d="M40.45 2.45 Q40.45 2.5 40.45 2.5 40.45 2.55 40.45 2.55 40.45 2.55 40.45 2.6 L40.45 4.05 39.8 3.8 40.45 4.5 40.45 5.25 39.9 5.25 40.45 6.45 40.45 7.1 40.25 8.15 40.45 7.8 40.45 9.55 39.8 9.85 40.1 10.05 40.7 9.8 40.7 8.05 40.45 8.4 40.7 7.35 40.7 6.7 40.15 5.5 40.7 5.5 40.7 4.75 40.05 4.05 40.7 4.3 40.7 2.85 Q40.7 2.8 40.7 2.8 40.7 2.7 40.7 2.65 40.7 2.55 40.65 2.55 40.65 2.5 40.6 2.5 40.55 2.5 40.45 2.45 L40.45 2.45 M40.45 10.4 L40.45 22.5 40.45 23.15 Q40.45 23.4 40.45 23.4 40.4 23.5 40.35 23.5 40.3 23.5 40.1 23.5 L39.45 23.5 38.8 23.5 37.9 23.5 37.95 23.75 39.05 23.75 39.7 23.75 40.35 23.75 Q40.6 23.75 40.65 23.75 40.7 23.7 40.7 23.4 L40.7 22.75 40.7 10.55 40.45 10.4 M37.65 22.75 L36.9 23.5 25.15 23.5 24.3 23.05 24.25 23.5 23.2 23.5 22.9 23.5 21.8 23.4 21.1 23.5 19.9 23.5 19.75 23.3 19.25 23.55 8.9 23.5 8.05 23.25 7.6 23.5 6.7 23.5 6.45 23.35 5.65 23.5 5.05 23.5 4.4 23.5 3.75 23.5 3.15 23.45 2.45 23.5 2.05 23.5 Q2.05 23.5 2.05 23.65 2.05 23.7 2.05 23.75 2.05 23.75 2.05 23.75 2.05 23.75 2.05 23.75 L2.7 23.75 3.4 23.7 4.0 23.75 4.65 23.75 5.25 23.75 5.9 23.75 6.7 23.6 6.95 23.75 7.85 23.75 18.15 23.75 18.95 23.75 19.5 23.8 20.0 23.55 20.1 23.75 21.35 23.75 22.05 23.65 23.15 23.75 23.45 23.75 24.45 23.75 24.55 23.3 25.35 23.75 37.1 23.75 37.7 23.2 37.65 22.75" fill="#ffffff" fill-rule="evenodd" stroke="none"/>
    <path d="M1.85 2.2 L5.15 2.2 5.4 2.65 5.7 2.4 6.95 2.2 13.95 2.2 14.1 2.7 14.55 2.2 15.85 2.2 28.95 2.2 29.45 2.65 29.65 2.2 30.3 2.2 40.1 2.2 Q40.3 2.2 40.35 2.25 40.4 2.25 40.45 2.35 40.45 2.4 40.45 2.55 40.45 2.55 40.45 2.6 L40.45 4.05 39.8 3.8 40.45 4.5 40.45 5.25 39.9 5.25 40.45 6.45 40.45 7.1 40.25 8.15 40.45 7.8 40.45 9.55 39.8 9.85 40.45 10.3 40.45 22.5 40.45 23.15 Q40.45 23.4 40.45 23.4 40.4 23.5 40.35 23.5 40.3 23.5 40.1 23.5 L39.45 23.5 38.8 23.5 37.7 23.5 37.65 22.75 36.9 23.5 25.15 23.5 24.3 23.05 24.25 23.5 23.2 23.5 22.9 23.5 21.8 23.4 21.1 23.5 19.9 23.5 19.75 23.3 19.25 23.55 8.9 23.5 8.05 23.25 7.6 23.5 6.7 23.5 6.45 23.35 5.65 23.5 5.05 23.5 4.4 23.5 3.75 23.5 3.15 23.45 2.45 23.5 1.85 23.5 Q1.8 23.5 1.8 23.5 1.8 23.5 1.8 23.5 1.6 23.5 1.55 23.5 1.5 23.5 1.45 23.45 1.45 23.4 1.45 23.2 1.45 23.2 1.45 23.2 1.45 23.2 1.45 23.2 1.45 23.15 1.45 23.15 L1.45 17.7 2.25 17.5 1.45 16.75 1.45 16.1 1.45 15.45 1.45 14.45 1.85 14.15 1.45 13.9 1.45 10.65 1.85 10.45 1.45 9.9 1.45 9.0 1.45 8.35 1.45 7.7 1.95 7.2 1.45 6.85 1.45 2.6 Q1.45 2.55 1.45 2.55 1.45 2.4 1.45 2.35 1.5 2.25 1.55 2.25 1.6 2.2 1.75 2.2 1.8 2.2 1.8 2.2 1.8 2.2 1.8 2.2 1.8 2.2 1.8 2.2 1.85 2.2 1.85 2.2 L1.85 2.2" fill="#000000" fill-rule="evenodd" stroke="none"/>
  </g>
</svg>
