<?xml version="1.0" encoding="UTF-8" standalone="no"?>
<svg xmlns:ffdec="https://www.free-decompiler.com/flash" xmlns:xlink="http://www.w3.org/1999/xlink" ffdec:objectType="shape" height="26.0px" width="41.75px" xmlns="http://www.w3.org/2000/svg">
  <g transform="matrix(1.0, 0.0, 0.0, 1.0, 0.0, 0.0)">
    <path d="M12.2 12.3 L11.15 12.3 11.15 12.3 11.0 12.2 11.05 12.15 11.1 12.1 11.1 10.95 11.1 10.8 11.0 10.7 11.0 10.5 11.05 10.4 11.1 10.45 11.1 10.4 11.1 9.45 12.45 9.45 Q12.45 9.45 12.5 9.45 12.6 9.5 12.65 9.5 12.8 9.55 12.9 9.55 13.05 9.6 13.15 9.7 13.3 9.75 13.45 9.85 13.55 10.0 13.65 10.15 13.8 10.3 13.85 10.5 13.9 10.7 13.9 10.95 13.9 10.95 13.9 11.0 13.9 11.1 13.9 11.15 13.85 11.3 13.85 11.4 13.8 11.5 13.7 11.65 13.65 11.75 13.5 11.9 13.4 12.0 13.2 12.1 13.0 12.2 12.8 12.25 12.5 12.3 12.2 12.3 L12.2 12.3 M14.15 12.9 Q14.25 12.85 14.35 12.75 14.45 12.7 14.55 12.6 14.65 12.5 14.7 12.45 14.8 12.35 14.9 12.2 14.95 12.1 15.0 12.0 15.05 11.85 15.1 11.7 15.15 11.55 15.2 11.4 15.2 11.25 15.25 11.1 15.3 10.55 15.2 10.05 15.1 9.65 14.9 9.3 14.75 9.0 14.5 8.8 14.25 8.6 14.0 8.5 13.75 8.35 13.5 8.3 13.3 8.25 13.05 8.25 12.9 8.2 12.75 8.2 12.7 8.25 12.6 8.25 L9.1 8.25 9.1 8.3 9.1 9.05 9.45 9.4 9.45 9.65 9.5 9.7 9.5 10.6 9.6 10.6 9.6 10.75 9.9 10.85 10.2 10.9 10.1 11.0 9.65 11.0 9.6 11.1 9.55 11.3 9.55 16.0 Q9.55 16.0 9.55 16.05 9.55 16.1 9.55 16.15 9.55 16.25 9.5 16.35 9.5 16.45 9.5 16.6 9.45 16.7 9.45 16.8 9.4 16.9 9.35 17.0 9.3 17.1 9.25 17.15 9.2 17.25 9.1 17.25 L9.1 17.9 10.95 17.9 13.15 17.9 Q13.15 17.9 13.25 17.9 13.35 17.9 13.5 17.9 13.7 17.9 13.85 17.85 14.1 17.85 14.3 17.75 14.5 17.65 14.7 17.55 14.95 17.4 15.15 17.2 15.3 16.95 15.45 16.65 15.6 16.35 15.65 15.95 15.7 15.65 15.7 15.4 15.7 15.1 15.65 14.85 15.6 14.6 15.55 14.4 15.5 14.15 15.4 13.95 15.25 13.75 15.15 13.6 15.0 13.4 14.85 13.3 14.7 13.15 14.5 13.05 14.35 12.95 14.15 12.9 L14.15 12.9 M11.15 16.65 Q11.15 16.6 11.15 16.55 11.15 16.55 11.15 16.45 L11.15 13.65 11.25 13.65 12.75 13.65 Q12.75 13.65 12.8 13.65 12.85 13.65 12.95 13.65 13.05 13.7 13.15 13.7 13.25 13.75 13.4 13.8 13.5 13.9 13.6 14.0 13.75 14.1 13.8 14.25 13.9 14.4 13.95 14.6 14.0 14.8 14.0 15.1 14.0 15.1 14.0 15.2 14.0 15.3 14.0 15.45 13.95 15.6 13.9 15.75 13.8 15.95 13.7 16.15 13.55 16.35 13.35 16.5 13.15 16.65 12.85 16.7 12.5 16.8 12.1 16.8 11.7 16.8 11.15 16.65 L11.15 16.65" fill="#f1edf8" fill-rule="evenodd" stroke="none"/>
    <path d="M21.2 17.25 Q21.3 17.2 21.15 17.15 21.1 17.15 21.05 17.1 21.0 17.1 20.95 17.05 20.95 17.0 20.9 16.95 20.9 16.95 20.85 16.9 20.85 16.85 20.85 16.8 20.8 16.75 20.8 16.75 20.8 16.7 20.8 16.7 20.8 16.65 20.8 16.65 20.8 16.65 20.8 15.85 20.8 14.9 20.8 14.3 20.8 14.05 20.8 13.85 20.8 13.7 20.8 13.5 20.75 13.35 20.75 13.25 20.75 13.15 20.7 13.05 20.7 13.0 20.65 12.9 20.65 12.9 20.65 12.85 20.6 12.8 20.6 12.8 20.6 12.8 20.6 12.8 20.35 12.45 20.0 12.25 19.7 12.05 19.35 11.95 19.05 11.85 18.7 11.85 18.35 11.85 18.05 11.95 17.75 12.0 17.45 12.1 17.2 12.2 17.0 12.3 16.8 12.35 16.7 12.45 16.6 12.5 16.55 12.5 L16.6 13.9 16.95 13.85 17.3 13.55 Q17.65 13.3 18.0 13.15 18.25 13.0 18.5 12.95 18.75 12.9 18.95 12.95 19.1 12.95 19.25 13.05 19.35 13.1 19.45 13.2 19.5 13.3 19.55 13.4 19.6 13.5 19.6 13.55 19.65 13.6 19.65 13.65 L18.05 13.9 Q18.05 13.9 17.95 13.95 17.9 14.0 17.75 14.05 17.65 14.1 17.5 14.15 17.3 14.25 17.15 14.35 17.0 14.4 16.85 14.5 16.65 14.6 16.55 14.7 16.4 14.8 16.3 14.9 16.2 14.95 16.15 15.05 16.05 15.35 15.95 15.6 15.9 15.8 15.85 16.05 15.85 16.25 15.85 16.4 15.85 16.55 15.85 16.7 15.85 16.8 15.9 16.9 15.95 17.0 15.95 17.05 16.0 17.1 16.0 17.15 16.0 17.2 16.05 17.2 16.2 17.4 16.35 17.55 16.55 17.7 16.75 17.75 16.9 17.85 17.1 17.9 17.3 17.9 17.5 17.9 17.65 17.9 17.85 17.9 17.95 17.85 18.1 17.85 18.2 17.8 18.3 17.8 18.3 17.8 18.35 17.8 L19.6 17.25 19.6 17.6 19.7 17.75 21.25 17.75 21.25 17.3 21.2 17.25 M19.6 16.1 L18.65 16.5 Q18.65 16.5 18.55 16.55 18.5 16.6 18.35 16.6 18.25 16.65 18.1 16.7 17.95 16.75 17.8 16.75 17.65 16.75 17.5 16.7 17.4 16.65 17.3 16.55 17.2 16.4 17.2 16.2 17.2 16.0 17.25 15.7 17.25 15.7 17.25 15.65 17.3 15.6 17.35 15.55 17.4 15.45 17.45 15.4 17.5 15.3 17.6 15.25 17.65 15.15 17.75 15.1 17.85 15.05 17.95 15.0 18.1 15.0 18.2 15.0 18.35 15.05 18.5 15.1 18.5 15.1 18.5 15.1 18.5 15.05 18.5 15.05 18.55 15.0 18.6 14.95 18.6 14.95 18.65 14.9 18.75 14.85 18.8 14.8 18.9 14.8 19.0 14.75 19.15 14.7 19.3 14.7 19.45 14.7 19.65 14.7 L19.6 16.1 19.6 16.1" fill="#f1edf8" fill-rule="evenodd" stroke="none"/>
    <path d="M24.05 16.75 Q24.05 16.75 24.0 16.75 23.9 16.75 23.85 16.75 23.7 16.7 23.6 16.65 23.45 16.6 23.35 16.55 23.2 16.45 23.1 16.35 22.95 16.2 22.85 16.0 22.75 15.85 22.7 15.6 22.65 15.3 22.65 15.0 22.65 14.65 22.7 14.4 22.75 14.15 22.9 13.9 23.0 13.75 23.1 13.6 23.25 13.45 23.4 13.35 23.5 13.3 23.65 13.2 23.75 13.15 23.9 13.15 23.95 13.15 24.05 13.1 24.1 13.1 24.1 13.1 24.1 13.1 24.15 13.1 24.25 13.1 24.3 13.1 24.4 13.1 24.5 13.15 24.6 13.15 24.7 13.2 24.85 13.2 24.9 13.25 25.05 13.35 25.1 13.4 25.2 13.5 25.25 13.6 25.3 13.75 25.3 13.9 L25.55 14.05 Q25.55 14.05 25.55 14.0 25.6 14.0 25.65 13.95 25.7 13.9 25.75 13.85 25.85 13.75 25.9 13.7 26.0 13.6 26.05 13.5 26.15 13.4 26.2 13.3 26.3 13.2 26.35 13.1 26.4 13.0 26.45 12.9 26.45 12.9 26.45 12.9 26.45 12.9 26.4 12.9 26.4 12.95 26.4 12.95 26.35 12.95 26.3 12.95 26.3 12.95 26.25 12.9 26.2 12.9 26.15 12.85 26.1 12.8 26.0 12.75 25.95 12.65 25.9 12.6 25.9 12.6 25.85 12.55 25.8 12.55 25.75 12.5 25.7 12.45 25.6 12.4 25.5 12.35 25.4 12.3 25.25 12.25 25.15 12.2 25.0 12.15 24.85 12.1 24.65 12.05 24.5 12.05 24.3 12.0 24.1 12.0 23.6 12.0 23.2 12.1 22.8 12.2 22.5 12.4 22.25 12.6 22.05 12.85 21.85 13.1 21.7 13.4 21.6 13.65 21.5 13.95 21.45 14.2 21.4 14.45 21.4 14.6 21.4 14.75 21.4 14.85 21.4 14.9 21.4 15.45 21.5 15.95 21.65 16.35 21.85 16.7 22.0 17.0 22.25 17.25 22.45 17.45 22.75 17.6 22.95 17.7 23.2 17.8 23.4 17.85 23.65 17.9 23.8 17.9 23.95 17.9 24.0 17.9 24.05 17.9 24.35 17.9 24.6 17.85 24.9 17.8 25.1 17.7 25.35 17.6 25.55 17.5 25.7 17.4 25.85 17.25 26.0 17.15 26.15 17.05 26.2 16.95 26.3 16.85 26.35 16.75 26.4 16.7 26.45 16.65 26.45 16.65 L26.4 15.2 26.15 15.25 Q26.0 15.55 25.85 15.8 25.65 16.0 25.5 16.2 25.3 16.35 25.1 16.45 24.95 16.55 24.8 16.65 24.65 16.7 24.5 16.75 24.35 16.75 24.25 16.75 24.15 16.8 24.1 16.75 24.05 16.75 24.05 16.75 L24.05 16.75" fill="#f1edf8" fill-rule="evenodd" stroke="none"/>
    <path d="M28.35 16.1 L28.35 11.05 28.3 11.1 28.25 11.2 28.2 11.15 28.1 11.15 28.1 11.05 28.15 11.05 28.15 11.0 28.2 10.95 28.25 10.95 28.3 10.9 28.35 10.8 28.35 8.75 Q28.35 8.65 28.35 8.55 28.4 8.5 28.4 8.45 28.4 8.35 28.45 8.3 28.45 8.25 28.45 8.25 28.5 8.2 28.5 8.15 28.5 8.15 28.55 8.1 28.55 8.1 28.55 8.1 28.55 8.1 28.55 8.1 L28.35 8.1 26.7 8.5 Q26.75 8.55 26.8 8.6 26.9 8.7 26.9 8.75 26.95 8.8 27.0 8.9 27.0 8.95 27.05 9.05 27.05 9.1 27.05 9.2 27.05 9.25 27.05 9.3 27.05 9.35 27.1 9.4 27.1 9.4 27.1 9.4 L27.1 15.6 27.1 16.1 Q27.1 16.3 27.05 16.5 27.05 16.65 27.05 16.8 27.0 16.9 26.95 17.0 26.95 17.05 26.9 17.1 26.9 17.15 26.85 17.2 26.8 17.25 26.8 17.25 26.75 17.25 26.75 17.25 26.75 17.25 26.75 17.25 L26.75 17.9 28.7 17.9 28.7 17.25 Q28.65 17.25 28.6 17.2 28.55 17.15 28.5 17.1 28.5 17.0 28.45 16.9 28.45 16.8 28.4 16.7 28.4 16.6 28.4 16.45 28.35 16.4 28.35 16.3 28.35 16.2 28.35 16.15 28.35 16.1 28.35 16.1 L28.35 16.1 M31.6 16.6 L30.8 15.4 Q30.8 15.4 30.8 15.4 30.75 15.4 30.75 15.4 30.7 15.4 30.65 15.35 30.6 15.35 30.55 15.3 30.5 15.3 30.4 15.25 30.35 15.2 30.25 15.15 30.2 15.05 30.1 14.95 30.0 14.85 29.9 14.75 L31.7 12.5 Q31.7 12.5 31.7 12.5 31.7 12.5 31.75 12.45 31.75 12.45 31.8 12.45 31.8 12.4 31.85 12.4 31.9 12.35 31.95 12.35 32.0 12.3 32.05 12.3 32.1 12.25 32.15 12.25 32.25 12.2 32.3 12.2 L32.3 11.75 30.25 11.75 30.25 12.2 Q30.25 12.2 30.25 12.2 30.3 12.2 30.3 12.25 30.3 12.25 30.35 12.25 30.35 12.3 30.35 12.3 30.4 12.35 30.4 12.4 30.4 12.45 30.4 12.5 30.35 12.55 30.35 12.6 30.3 12.65 30.25 12.7 L28.65 14.75 29.45 15.85 29.7 15.9 Q29.7 15.9 29.7 15.95 29.7 15.95 29.7 15.95 29.8 15.95 29.9 16.0 L29.95 15.95 30.0 15.95 30.15 16.0 30.05 16.05 29.65 16.05 29.65 16.15 30.45 17.05 Q30.45 17.05 30.45 17.1 30.5 17.15 30.5 17.15 30.5 17.2 30.5 17.25 30.5 17.3 30.45 17.35 L31.0 17.9 32.65 17.9 32.65 17.4 Q32.65 17.4 32.65 17.4 32.6 17.4 32.6 17.4 32.55 17.35 32.5 17.35 32.45 17.35 32.4 17.3 32.3 17.25 32.25 17.2 32.15 17.15 32.05 17.05 31.95 17.0 31.85 16.85 31.75 16.75 31.6 16.6 L31.6 16.6 M30.25 16.05 L30.2 16.05 30.25 15.95 30.3 16.05 30.5 16.05 30.25 16.05" fill="#f1edf8" fill-rule="evenodd" stroke="none"/>
  </g>
</svg>
