<?xml version="1.0" encoding="UTF-8" standalone="no"?>
<svg xmlns:ffdec="https://www.free-decompiler.com/flash" xmlns:xlink="http://www.w3.org/1999/xlink" ffdec:objectType="shape" height="26.0px" width="35.75px" xmlns="http://www.w3.org/2000/svg">
  <g transform="matrix(1.0, 0.0, 0.0, 1.0, 0.0, 0.0)">
    <path d="M17.35 5.15 L4.35 5.15 4.35 7.85 5.05 7.85 Q5.1 7.8 5.05 7.8 5.1 7.75 5.15 7.7 5.2 7.65 5.25 7.6 5.35 7.5 5.4 7.4 5.55 7.35 5.7 7.25 5.85 7.2 6.0 7.15 6.25 7.05 6.45 7.05 6.7 7.0 7.0 7.0 7.55 7.0 8.75 7.0 8.9 7.0 9.05 7.05 9.15 7.05 9.25 7.1 9.35 7.15 9.45 7.2 9.5 7.3 9.55 7.35 9.55 7.4 9.6 7.5 9.6 7.55 9.65 7.6 9.65 7.65 9.65 7.65 9.65 7.7 9.65 7.7 L9.65 17.7 Q9.65 18.05 9.6 18.35 9.6 18.6 9.55 18.8 9.5 19.0 9.45 19.15 9.4 19.3 9.3 19.4 9.25 19.5 9.2 19.55 9.15 19.6 9.1 19.6 9.1 19.65 9.05 19.65 9.05 19.65 9.05 19.65 L9.05 20.65 12.55 20.65 12.55 19.65 Q12.45 19.6 12.35 19.5 12.3 19.45 12.2 19.3 12.15 19.15 12.1 19.0 12.05 18.85 12.05 18.65 12.0 18.5 12.0 18.3 11.95 18.15 11.95 18.05 11.95 17.9 11.95 17.85 11.95 17.8 11.95 17.75 L11.95 10.6 11.8 10.65 11.7 10.8 11.6 10.7 11.45 10.7 11.4 10.6 11.5 10.65 11.5 10.55 11.6 10.45 11.75 10.45 11.8 10.35 12.0 10.25 12.0 7.55 Q12.0 7.45 12.05 7.4 12.05 7.3 12.1 7.25 12.15 7.2 12.2 7.15 12.25 7.1 12.3 7.1 12.4 7.05 12.45 7.05 12.5 7.0 12.55 7.0 12.6 7.0 12.6 7.0 12.65 7.0 12.65 7.0 L14.75 7.0 Q14.75 7.0 14.8 7.0 14.9 7.0 15.0 7.0 15.15 7.0 15.3 7.05 15.5 7.05 15.65 7.1 15.85 7.15 16.0 7.2 16.2 7.25 16.3 7.35 16.45 7.45 16.55 7.55 16.65 7.7 16.7 7.85 L17.35 7.85 17.35 5.15" fill="#f1edf8" fill-rule="evenodd" stroke="none"/>
    <path d="M21.9 19.8 Q21.9 19.8 21.9 19.75 21.85 19.7 21.75 19.7 21.65 19.65 21.6 19.6 21.55 19.55 21.5 19.5 21.45 19.45 21.4 19.35 21.35 19.3 21.35 19.25 21.3 19.15 21.3 19.1 21.3 19.05 21.25 19.0 21.25 18.95 21.25 18.9 21.25 18.9 21.25 18.85 21.25 18.85 21.25 17.65 21.25 16.15 21.25 15.1 21.25 14.75 21.25 14.45 21.25 14.15 21.25 13.9 21.2 13.65 21.2 13.5 21.15 13.3 21.1 13.2 21.1 13.05 21.05 13.0 21.0 12.9 21.0 12.85 20.95 12.8 20.95 12.8 20.95 12.8 20.9 12.75 20.5 12.2 20.0 11.85 19.5 11.55 18.95 11.4 18.45 11.3 17.9 11.3 17.4 11.3 16.9 11.4 16.45 11.5 15.95 11.7 15.6 11.8 15.25 12.0 15.0 12.1 14.75 12.25 14.65 12.3 14.55 12.35 L14.6 14.55 15.2 14.45 15.75 13.95 Q16.3 13.55 16.8 13.3 17.3 13.1 17.65 13.0 18.0 12.95 18.3 13.0 18.55 13.05 18.8 13.15 18.95 13.3 19.1 13.45 19.2 13.6 19.3 13.75 19.35 13.9 19.4 14.0 19.4 14.05 19.4 14.1 L16.9 14.55 Q16.9 14.55 16.8 14.6 16.65 14.65 16.45 14.75 16.25 14.85 16.05 14.95 15.75 15.05 15.5 15.2 15.25 15.35 15.0 15.5 14.7 15.65 14.5 15.8 14.3 15.95 14.15 16.05 14.0 16.2 13.95 16.3 13.75 16.75 13.65 17.15 13.55 17.55 13.5 17.85 13.45 18.2 13.4 18.45 13.4 18.7 13.45 18.95 13.5 19.1 13.55 19.3 13.55 19.4 13.6 19.55 13.65 19.6 13.7 19.65 13.7 19.7 13.75 19.7 13.95 20.0 14.25 20.25 14.55 20.45 14.85 20.6 15.1 20.75 15.45 20.8 15.75 20.85 16.05 20.85 16.3 20.85 16.55 20.8 16.8 20.8 17.0 20.75 17.15 20.7 17.3 20.65 17.35 20.65 17.4 20.65 L19.4 19.8 19.35 20.35 19.5 20.6 21.95 20.6 21.95 19.9 21.9 19.8 M19.4 18.0 L17.85 18.65 Q17.85 18.65 17.75 18.7 17.6 18.75 17.4 18.85 17.2 18.9 17.0 18.95 16.75 19.0 16.5 19.0 16.25 19.0 16.1 18.95 15.85 18.85 15.75 18.7 15.6 18.5 15.6 18.2 15.55 17.85 15.65 17.35 15.65 17.35 15.7 17.3 15.75 17.2 15.8 17.1 15.85 17.0 15.95 16.9 16.05 16.75 16.2 16.65 16.3 16.5 16.45 16.4 16.65 16.3 16.8 16.3 17.0 16.25 17.15 16.3 17.4 16.3 17.6 16.45 17.6 16.45 17.6 16.4 17.6 16.4 17.65 16.35 17.7 16.3 17.75 16.25 17.8 16.15 17.9 16.1 18.0 16.05 18.1 16.0 18.25 15.9 18.45 15.85 18.65 15.8 18.85 15.8 19.1 15.75 19.4 15.75 L19.4 18.0 19.4 18.0" fill="#f1edf8" fill-rule="evenodd" stroke="none"/>
    <path d="M27.1 10.9 Q26.9 10.9 26.75 10.9 26.55 10.95 26.35 10.95 26.15 11.0 26.0 11.0 25.8 11.05 25.65 11.1 25.45 11.15 25.3 11.25 25.1 11.3 24.95 11.4 24.8 11.5 24.65 11.6 24.45 11.7 24.35 11.8 L24.35 10.15 24.25 10.2 24.15 10.35 24.05 10.3 23.95 10.3 23.9 10.15 24.0 10.2 24.0 10.1 24.05 10.0 24.2 10.0 24.25 9.9 24.35 9.75 24.35 6.4 Q24.35 6.25 24.4 6.1 24.4 5.95 24.45 5.8 24.5 5.7 24.55 5.6 24.6 5.55 24.65 5.45 24.7 5.4 24.75 5.35 24.75 5.3 24.8 5.25 24.85 5.25 24.9 5.2 24.9 5.2 24.9 5.2 L24.3 5.2 21.95 5.95 Q22.05 6.0 22.1 6.1 22.2 6.15 22.25 6.25 22.3 6.35 22.35 6.45 22.4 6.55 22.4 6.65 22.45 6.7 22.45 6.8 22.45 6.9 22.5 6.95 22.5 7.0 22.5 7.05 22.5 7.1 22.5 7.1 L22.5 18.3 22.5 19.45 Q22.5 19.45 22.55 19.5 22.7 19.6 22.8 19.65 23.0 19.75 23.2 19.9 23.45 20.0 23.7 20.15 24.05 20.3 24.4 20.4 24.8 20.5 25.25 20.6 25.75 20.7 26.25 20.75 26.8 20.85 27.4 20.85 27.75 20.85 28.1 20.75 28.45 20.7 28.8 20.55 29.15 20.4 29.5 20.15 29.8 19.9 30.1 19.6 30.4 19.3 30.6 18.9 30.85 18.5 31.05 18.0 31.2 17.5 31.3 16.95 31.4 16.35 31.4 15.7 31.4 15.05 31.3 14.5 31.2 13.95 31.0 13.5 30.8 13.05 30.5 12.7 30.25 12.3 29.95 12.0 29.65 11.75 29.25 11.55 28.95 11.3 28.55 11.2 28.2 11.05 27.8 11.0 27.45 10.9 27.1 10.9 L27.1 10.9 M27.0 19.0 Q26.65 19.0 26.35 18.9 26.1 18.85 25.85 18.7 25.6 18.6 25.4 18.4 25.2 18.2 25.05 18.0 24.9 17.75 24.75 17.5 24.65 17.25 24.55 16.95 24.5 16.65 24.45 16.35 24.4 16.05 24.4 15.75 24.4 15.5 24.45 15.25 24.5 14.95 24.55 14.7 24.65 14.45 24.8 14.2 24.9 14.0 25.05 13.8 25.25 13.55 25.45 13.4 25.65 13.25 25.9 13.1 26.15 13.0 26.45 12.9 26.75 12.85 27.05 12.85 27.4 12.85 27.7 12.9 28.0 13.0 28.25 13.1 28.45 13.25 28.65 13.4 28.85 13.6 29.0 13.8 29.15 14.0 29.25 14.25 29.35 14.5 29.45 14.75 29.5 15.0 29.55 15.3 29.6 15.55 29.6 15.8 29.6 16.15 29.55 16.45 29.55 16.75 29.5 17.05 29.4 17.35 29.35 17.6 29.25 17.85 29.1 18.05 28.95 18.25 28.75 18.45 28.55 18.6 28.3 18.75 28.05 18.85 27.7 18.9 27.4 19.0 27.0 19.0 L27.0 19.0" fill="#f1edf8" fill-rule="evenodd" stroke="none"/>
  </g>
</svg>
