<?xml version="1.0" encoding="UTF-8" standalone="no"?>
<svg xmlns:ffdec="https://www.free-decompiler.com/flash" xmlns:xlink="http://www.w3.org/1999/xlink" ffdec:objectType="shape" height="26.0px" width="26.0px" xmlns="http://www.w3.org/2000/svg">
  <g transform="matrix(1.0, 0.0, 0.0, 1.0, 0.0, 0.0)">
    <path d="M19.5 5.25 L6.5 5.25 6.5 7.95 7.2 7.95 Q7.2 7.95 7.2 7.9 7.25 7.85 7.25 7.8 7.3 7.75 7.4 7.7 7.45 7.6 7.55 7.55 7.7 7.45 7.8 7.35 7.95 7.3 8.15 7.25 8.35 7.15 8.6 7.15 8.85 7.1 9.15 7.1 9.7 7.1 10.9 7.1 11.05 7.1 11.2 7.15 11.3 7.15 11.4 7.2 11.5 7.25 11.55 7.35 11.65 7.4 11.65 7.45 11.7 7.5 11.75 7.6 11.75 7.65 11.75 7.7 11.8 7.75 11.8 7.8 11.8 7.8 11.8 7.8 L11.8 17.85 Q11.8 18.2 11.75 18.45 11.7 18.75 11.65 18.95 11.65 19.15 11.55 19.3 11.5 19.4 11.45 19.5 11.4 19.6 11.35 19.65 11.3 19.7 11.25 19.75 11.2 19.75 11.2 19.75 11.2 19.75 11.15 19.75 L11.2 20.75 14.7 20.75 14.7 19.75 Q14.6 19.7 14.5 19.6 14.4 19.55 14.35 19.4 14.3 19.25 14.25 19.1 14.2 18.95 14.15 18.75 14.15 18.6 14.1 18.4 14.1 18.3 14.1 18.15 14.1 18.05 14.1 17.95 14.1 17.9 14.1 17.85 L14.1 10.7 13.95 10.75 13.8 10.9 13.7 10.85 13.55 10.85 13.55 10.7 13.65 10.75 13.65 10.65 13.7 10.6 13.9 10.6 13.95 10.45 14.15 10.35 14.15 7.65 Q14.15 7.55 14.15 7.5 14.2 7.4 14.25 7.35 14.3 7.3 14.35 7.25 14.4 7.2 14.45 7.2 14.5 7.15 14.55 7.15 14.6 7.15 14.65 7.1 14.7 7.1 14.75 7.1 14.75 7.1 14.8 7.1 L16.9 7.1 Q16.9 7.1 16.95 7.1 17.05 7.1 17.15 7.1 17.3 7.1 17.45 7.15 17.65 7.15 17.8 7.2 17.95 7.25 18.15 7.3 18.3 7.35 18.45 7.45 18.6 7.55 18.7 7.65 18.8 7.8 18.85 7.95 L19.5 7.95 19.5 5.25" fill="#f1edf8" fill-rule="evenodd" stroke="none"/>
  </g>
</svg>
