<?xml version="1.0" encoding="UTF-8" standalone="no"?>
<svg xmlns:ffdec="https://www.free-decompiler.com/flash" xmlns:xlink="http://www.w3.org/1999/xlink" ffdec:objectType="shape" height="26.0px" width="26.0px" xmlns="http://www.w3.org/2000/svg">
  <g transform="matrix(1.0, 0.0, 0.0, 1.0, 0.0, 0.0)">
    <path d="M15.95 5.25 L15.95 6.15 Q16.1 6.2 16.15 6.35 16.2 6.45 16.2 6.65 16.2 6.8 16.1 7.05 16.1 7.2 16.0 7.45 15.9 7.65 15.8 7.85 15.75 8.05 15.65 8.2 15.6 8.35 15.55 8.45 15.5 8.5 15.5 8.55 L13.3 12.3 13.1 12.3 10.7 8.55 Q10.55 8.25 10.45 7.95 10.35 7.7 10.35 7.45 10.3 7.25 10.3 7.05 10.35 6.85 10.4 6.7 10.4 6.55 10.5 6.45 10.55 6.35 10.6 6.25 10.65 6.2 10.7 6.15 10.7 6.15 10.7 6.15 L10.7 5.25 6.55 5.25 6.55 6.15 Q6.6 6.15 6.65 6.2 6.75 6.3 6.85 6.4 6.95 6.5 7.05 6.65 7.15 6.8 7.25 6.95 7.35 7.1 7.45 7.3 7.5 7.4 7.6 7.55 7.65 7.65 7.7 7.75 7.75 7.75 7.75 7.8 L12.0 14.55 12.0 17.25 12.15 17.35 13.0 17.35 13.15 17.45 13.6 17.5 13.55 17.65 12.3 17.6 12.0 17.8 Q12.0 18.15 11.95 18.4 11.9 18.65 11.85 18.9 11.75 19.1 11.7 19.25 11.6 19.4 11.55 19.5 11.45 19.6 11.4 19.65 11.35 19.7 11.25 19.75 11.2 19.8 11.15 19.8 11.15 19.8 11.15 19.8 L11.15 20.75 14.85 20.75 14.85 19.75 Q14.75 19.7 14.65 19.65 14.55 19.55 14.45 19.4 14.4 19.3 14.35 19.15 14.3 19.05 14.25 18.9 14.25 18.75 14.2 18.6 14.2 18.5 14.2 18.35 14.2 18.3 14.2 18.2 14.2 18.15 14.2 18.15 L14.2 14.6 18.3 7.75 Q18.45 7.5 18.55 7.25 18.65 7.05 18.8 6.9 18.9 6.75 19.0 6.6 19.05 6.5 19.15 6.4 19.2 6.35 19.25 6.3 19.3 6.25 19.35 6.2 19.4 6.2 19.4 6.15 19.4 6.15 19.45 6.15 L19.45 5.25 15.95 5.25" fill="#f1edf8" fill-rule="evenodd" stroke="none"/>
  </g>
</svg>
