<?xml version="1.0" encoding="UTF-8" standalone="no"?>
<svg xmlns:ffdec="https://www.free-decompiler.com/flash" xmlns:xlink="http://www.w3.org/1999/xlink" ffdec:objectType="shape" height="26.0px" width="26.0px" xmlns="http://www.w3.org/2000/svg">
  <g transform="matrix(1.0, 0.0, 0.0, 1.0, 0.0, 0.0)">
    <path d="M16.0 5.25 L16.0 6.15 Q16.1 6.2 16.2 6.25 16.3 6.3 16.35 6.4 16.4 6.5 16.45 6.6 16.5 6.7 16.5 6.8 16.55 6.9 16.55 7.0 16.55 7.1 16.55 7.15 16.55 7.25 16.55 7.3 16.55 7.3 16.55 7.35 L16.55 14.0 16.55 14.35 Q16.55 14.5 16.55 14.7 16.55 15.0 16.55 15.05 16.5 15.3 16.45 15.5 16.4 15.8 16.3 16.05 16.2 16.35 16.05 16.65 15.9 16.95 15.7 17.2 15.5 17.45 15.25 17.7 14.95 17.95 14.6 18.1 14.25 18.3 13.85 18.35 13.4 18.45 12.85 18.45 12.85 18.45 12.7 18.45 12.55 18.45 12.35 18.4 12.05 18.4 11.8 18.3 11.45 18.2 11.15 18.0 10.8 17.8 10.55 17.55 10.2 17.2 10.0 16.8 9.75 16.35 9.6 15.75 9.45 15.1 9.45 14.35 L9.45 7.25 Q9.45 7.25 9.45 7.2 9.45 7.15 9.45 7.1 9.45 7.05 9.5 6.95 9.5 6.85 9.55 6.75 9.55 6.65 9.6 6.55 9.65 6.45 9.7 6.35 9.75 6.25 9.85 6.2 9.95 6.1 10.05 6.05 L10.05 5.25 6.4 5.25 6.4 6.15 Q6.4 6.15 6.4 6.15 6.45 6.15 6.5 6.2 6.5 6.2 6.55 6.25 6.65 6.3 6.65 6.35 6.75 6.45 6.8 6.55 6.85 6.65 6.85 6.75 6.9 6.85 6.95 7.0 6.95 7.15 6.95 7.35 6.95 11.45 6.95 15.6 6.95 15.6 7.0 15.8 7.0 16.1 7.1 16.4 7.2 16.8 7.4 17.2 7.6 17.7 7.85 18.15 8.15 18.7 8.55 19.1 9.05 19.6 9.6 19.95 10.2 20.3 10.95 20.5 11.75 20.75 12.7 20.75 13.75 20.75 14.7 20.55 15.5 20.35 16.2 19.95 16.8 19.65 17.3 19.2 17.75 18.75 18.1 18.25 18.4 17.85 18.6 17.35 18.75 16.95 18.9 16.55 18.95 16.25 19.0 16.0 19.0 15.9 19.05 15.8 L18.9 15.75 19.05 15.45 19.05 15.3 Q19.05 15.3 19.05 11.65 19.05 7.2 19.05 7.35 19.05 7.2 19.05 7.0 19.1 6.9 19.15 6.75 19.15 6.65 19.2 6.55 19.25 6.45 19.35 6.35 19.4 6.3 19.45 6.25 19.5 6.2 19.55 6.2 19.55 6.15 19.6 6.15 19.6 6.15 19.6 6.15 L19.6 5.25 16.0 5.25" fill="#f1edf8" fill-rule="evenodd" stroke="none"/>
  </g>
</svg>
