<?xml version="1.0" encoding="UTF-8" standalone="no"?>
<svg xmlns:ffdec="https://www.free-decompiler.com/flash" xmlns:xlink="http://www.w3.org/1999/xlink" ffdec:objectType="shape" height="26.0px" width="26.0px" xmlns="http://www.w3.org/2000/svg">
  <g transform="matrix(1.0, 0.0, 0.0, 1.0, 0.0, 0.0)">
    <path d="M13.4 14.1 Q13.4 14.1 13.6 14.1 13.9 14.1 14.15 14.05 14.6 14.0 14.95 13.9 15.45 13.75 15.85 13.6 16.35 13.35 16.75 13.1 17.25 12.75 17.55 12.35 17.95 11.85 18.1 11.3 18.35 10.65 18.35 9.9 18.35 9.05 18.15 8.35 17.95 7.7 17.55 7.2 17.25 6.75 16.75 6.4 16.35 6.05 15.85 5.85 15.4 5.65 14.95 5.5 14.55 5.4 14.15 5.35 13.85 5.3 13.55 5.25 13.45 5.25 13.35 5.25 L7.65 5.25 7.65 5.4 7.65 6.25 8.2 6.8 8.2 7.2 8.3 7.3 8.3 8.75 8.45 8.75 8.45 9.05 8.9 9.2 9.4 9.25 9.3 9.4 8.55 9.4 8.4 9.65 8.35 9.9 8.35 17.6 Q8.35 17.6 8.35 17.65 8.35 17.75 8.35 17.85 8.35 18.0 8.35 18.15 8.3 18.3 8.3 18.45 8.25 18.65 8.2 18.8 8.15 19.0 8.1 19.15 8.0 19.3 7.9 19.45 7.8 19.55 7.65 19.65 L7.65 20.75 11.4 20.75 11.4 19.6 Q11.4 19.6 11.35 19.6 11.35 19.6 11.3 19.55 11.25 19.5 11.2 19.45 11.1 19.4 11.05 19.3 11.0 19.2 10.95 19.1 10.85 18.95 10.85 18.75 10.8 18.6 10.75 18.35 10.75 18.15 10.75 17.85 L10.75 12.05 10.6 11.9 10.65 11.8 10.75 11.75 10.75 10.0 10.7 9.8 10.6 9.6 10.6 9.0 10.65 8.85 10.75 8.95 10.75 8.8 10.75 7.4 13.65 7.4 Q13.65 7.4 13.75 7.4 13.9 7.4 14.05 7.45 14.2 7.5 14.4 7.55 14.65 7.6 14.85 7.75 15.1 7.85 15.3 8.05 15.55 8.2 15.7 8.45 15.9 8.75 16.0 9.05 16.1 9.45 16.1 9.9 16.1 9.9 16.1 10.0 16.1 10.1 16.1 10.25 16.05 10.45 16.0 10.6 15.9 10.85 15.75 11.05 15.6 11.25 15.3 11.45 15.05 11.65 14.65 11.8 14.2 11.95 13.65 12.0 13.05 12.05 12.3 12.05 L12.2 12.05 12.2 13.45 13.4 14.1" fill="#f1edf8" fill-rule="evenodd" stroke="none"/>
  </g>
</svg>
