<?xml version="1.0" encoding="UTF-8" standalone="no"?>
<svg xmlns:ffdec="https://www.free-decompiler.com/flash" xmlns:xlink="http://www.w3.org/1999/xlink" ffdec:objectType="shape" height="26.0px" width="26.0px" xmlns="http://www.w3.org/2000/svg">
  <g transform="matrix(1.0, 0.0, 0.0, 1.0, 0.0, 0.0)">
    <path d="M8.75 6.15 L8.5 4.25 5.7 10.4 8.35 17.15 8.7 14.0 8.3 14.25 7.8 13.15 7.8 12.0 Q7.75 12.0 7.7 11.95 7.7 11.9 7.6 11.85 7.55 11.75 7.5 11.65 7.45 11.55 7.4 11.45 7.3 11.3 7.25 11.2 7.2 11.1 7.2 11.0 7.15 10.9 7.1 10.8 7.1 10.7 7.1 10.7 L7.55 9.4 Q7.55 9.4 7.55 9.4 7.55 9.4 7.6 9.4 7.6 9.4 7.65 9.4 7.7 9.4 7.7 9.4 7.75 9.4 7.8 9.4 7.85 9.45 7.9 9.45 7.9 9.5 7.95 9.55 8.0 9.6 8.0 9.7 8.0 9.7 8.0 9.7 8.0 9.65 8.0 9.6 8.0 9.6 8.0 9.55 8.0 9.5 7.95 9.4 7.95 9.35 7.95 9.3 7.9 9.25 7.85 9.15 7.85 9.1 7.8 9.05 7.75 8.95 7.7 8.9 L7.95 7.9 Q8.3 6.6 8.2 6.9 8.5 5.95 8.5 5.95 8.75 6.15 8.75 6.15 L8.75 6.15" fill="#f1edf8" fill-rule="evenodd" stroke="none"/>
  </g>
</svg>
