<?xml version="1.0" encoding="UTF-8" standalone="no"?>
<svg xmlns:ffdec="https://www.free-decompiler.com/flash" xmlns:xlink="http://www.w3.org/1999/xlink" ffdec:objectType="shape" height="26.0px" width="26.0px" xmlns="http://www.w3.org/2000/svg">
  <g transform="matrix(1.0, 0.0, 0.0, 1.0, 0.0, 0.0)">
    <path d="M15.0 6.2 L15.0 21.75 16.4 19.85 Q16.4 19.85 16.4 19.45 16.35 18.9 16.35 18.35 16.35 17.55 16.4 16.75 16.4 15.8 16.5 14.95 16.6 13.9 16.75 13.05 16.95 12.1 17.2 11.35 17.5 10.55 17.85 10.05 18.3 9.5 18.85 9.35 18.85 9.35 18.75 9.35 18.65 9.3 18.5 9.25 18.35 9.2 18.15 9.15 17.95 9.1 17.8 9.0 17.55 8.9 17.4 8.8 17.2 8.65 17.05 8.5 16.9 8.3 16.8 8.1 16.75 7.9 16.75 7.65 L20.3 7.65 20.3 6.2 15.0 6.2" fill="#f1edf8" fill-rule="evenodd" stroke="none"/>
  </g>
</svg>
