<?xml version="1.0" encoding="UTF-8" standalone="no"?>
<svg xmlns:ffdec="https://www.free-decompiler.com/flash" xmlns:xlink="http://www.w3.org/1999/xlink" ffdec:objectType="shape" height="26.0px" width="26.0px" xmlns="http://www.w3.org/2000/svg">
  <g transform="matrix(1.0, 0.0, 0.0, 1.0, 0.0, 0.0)">
    <path d="M7.9 16.0 L7.1 17.25 7.9 18.6 9.25 18.6 10.05 17.3 9.25 16.0 7.9 16.0 M7.75 4.7 Q7.75 4.7 7.75 4.7 7.55 4.75 7.7 4.7 7.65 4.75 7.6 4.75 7.55 4.75 7.55 4.8 7.5 4.8 7.45 4.85 7.4 4.9 7.4 4.95 7.35 5.05 7.35 5.1 7.35 5.2 7.35 5.35 L8.0 14.45 Q8.0 14.7 8.0 14.95 L8.75 14.8 Q8.8 14.8 8.85 14.75 8.9 14.75 8.95 14.7 9.0 14.7 9.05 14.65 9.1 14.6 9.15 14.55 9.15 14.5 9.2 14.5 9.2 14.45 9.25 14.4 9.25 14.35 9.25 14.3 9.3 14.25 9.3 14.15 L9.95 5.4 9.95 5.3 Q10.05 4.85 10.2 4.4 L7.75 4.7" fill="#f1edf8" fill-rule="evenodd" stroke="none"/>
  </g>
</svg>
