<?xml version="1.0" encoding="UTF-8" standalone="no"?>
<svg xmlns:ffdec="https://www.free-decompiler.com/flash" xmlns:xlink="http://www.w3.org/1999/xlink" ffdec:objectType="shape" height="26.0px" width="26.0px" xmlns="http://www.w3.org/2000/svg">
  <g transform="matrix(1.0, 0.0, 0.0, 1.0, 0.0, 0.0)">
    <path d="M5.7 6.15 L5.9 4.25 8.75 10.4 6.1 17.15 5.75 14.0 6.1 14.25 6.6 13.15 6.6 12.0 Q6.65 12.0 6.7 11.95 6.75 11.9 6.8 11.85 6.85 11.75 6.9 11.65 7.0 11.55 7.05 11.45 7.1 11.3 7.15 11.2 7.2 11.1 7.25 11.0 7.3 10.9 7.3 10.8 7.35 10.7 7.35 10.7 L6.9 9.4 Q6.9 9.4 6.9 9.4 6.85 9.4 6.85 9.4 6.8 9.4 6.8 9.4 6.75 9.4 6.7 9.4 6.65 9.4 6.65 9.4 6.6 9.45 6.55 9.45 6.5 9.5 6.45 9.55 6.45 9.6 6.4 9.7 6.4 9.7 6.4 9.7 6.4 9.65 6.4 9.6 6.45 9.55 6.45 9.55 6.45 9.5 6.45 9.4 6.5 9.35 6.5 9.3 6.5 9.25 6.55 9.15 6.6 9.1 6.65 9.05 6.7 8.95 6.75 8.9 L6.5 7.9 Q6.5 7.9 6.2 6.9 5.95 5.95 5.9 5.95 5.9 5.95 5.85 6.0 5.75 6.05 5.75 6.1 5.7 6.15 5.7 6.15 L5.7 6.15" fill="#f1edf8" fill-rule="evenodd" stroke="none"/>
  </g>
</svg>
