<?xml version="1.0" encoding="UTF-8" standalone="no"?>
<svg xmlns:ffdec="https://www.free-decompiler.com/flash" xmlns:xlink="http://www.w3.org/1999/xlink" ffdec:objectType="shape" height="26.0px" width="26.0px" xmlns="http://www.w3.org/2000/svg">
  <g transform="matrix(1.0, 0.0, 0.0, 1.0, 0.0, 0.0)">
    <path d="M20.3 6.2 L20.3 21.75 18.9 19.85 Q18.9 19.85 18.9 19.45 18.95 18.9 18.95 18.35 18.95 17.55 18.95 16.75 18.9 15.8 18.8 14.95 18.7 13.9 18.55 13.05 18.4 12.1 18.1 11.35 17.8 10.55 17.45 10.05 17.0 9.5 16.45 9.35 16.45 9.35 16.55 9.35 16.65 9.3 16.8 9.25 16.95 9.2 17.15 9.15 17.35 9.1 17.5 9.0 17.75 8.9 17.9 8.8 18.1 8.65 18.25 8.5 18.4 8.3 18.5 8.1 18.6 7.9 18.6 7.65 L15.0 7.65 15.0 6.2 20.3 6.2" fill="#f1edf8" fill-rule="evenodd" stroke="none"/>
  </g>
</svg>
