<?xml version="1.0" encoding="UTF-8" standalone="no"?>
<svg xmlns:ffdec="https://www.free-decompiler.com/flash" xmlns:xlink="http://www.w3.org/1999/xlink" ffdec:objectType="shape" height="26.0px" width="26.0px" xmlns="http://www.w3.org/2000/svg">
  <g transform="matrix(1.0, 0.0, 0.0, 1.0, 0.0, 0.0)">
    <path d="M19.45 18.55 L19.0 17.75 12.85 5.25 6.3 19.1 Q5.9 19.75 5.8 19.85 L5.8 20.75 8.5 20.75 9.0 20.75 9.0 19.85 Q9.0 19.85 9.0 19.85 9.0 19.85 9.0 19.85 8.95 19.85 8.95 19.8 8.95 19.8 8.95 19.75 8.9 19.7 8.9 19.65 8.9 19.6 8.9 19.55 8.9 19.5 8.9 19.4 8.95 19.3 8.95 19.2 L9.9 17.3 13.95 17.15 Q13.95 17.15 14.0 17.15 14.05 17.15 14.1 17.15 14.2 17.15 14.3 17.15 14.4 17.15 14.55 17.15 14.7 17.15 14.85 17.15 15.0 17.15 15.15 17.1 15.3 17.1 15.45 17.1 15.6 17.05 15.75 17.0 L16.55 18.05 Q16.7 18.25 16.8 18.4 16.9 18.6 17.0 18.75 17.05 18.9 17.05 19.05 17.1 19.2 17.1 19.35 17.1 19.45 17.1 19.55 17.05 19.65 17.05 19.7 17.05 19.8 17.0 19.8 17.0 19.85 17.0 19.85 L17.0 20.75 17.6 20.75 20.2 20.75 20.2 19.85 Q20.05 19.7 19.45 18.55 L19.45 18.55 M15.45 14.85 L15.05 14.85 14.9 14.85 14.7 14.85 14.5 15.15 14.05 14.75 Q13.7 14.75 13.6 14.75 13.35 14.7 12.75 14.7 12.75 14.7 12.7 14.75 12.65 14.75 12.6 14.8 12.55 14.85 12.45 14.95 12.35 15.0 12.2 15.1 12.1 15.15 11.95 15.25 11.75 15.3 11.55 15.4 11.35 15.45 11.15 15.5 10.9 15.55 10.65 15.6 L12.05 12.15 12.0 11.9 11.9 11.8 11.9 11.75 11.8 11.65 Q11.85 11.55 11.85 11.55 11.9 11.5 11.9 11.5 11.95 11.45 11.95 11.5 11.95 11.5 12.0 11.55 12.0 11.55 12.05 11.6 12.05 11.65 12.05 11.65 12.1 11.65 12.1 11.7 12.1 11.7 12.15 11.7 12.15 11.75 12.2 11.75 12.2 11.8 12.2 11.8 L12.95 10.05 14.85 14.4 15.1 14.45 Q15.0 14.65 14.9 14.85 L15.05 14.85 15.45 14.5 Q15.45 14.55 15.45 14.6 15.45 14.65 15.45 14.65 15.5 14.7 15.5 14.7 15.55 14.7 15.55 14.75 15.55 14.75 15.6 14.75 15.6 14.75 15.6 14.75 15.6 14.75 15.6 14.75 L15.45 14.85" fill="#f1edf8" fill-rule="evenodd" stroke="none"/>
  </g>
</svg>
