<?xml version="1.0" encoding="UTF-8" standalone="no"?>
<svg xmlns:ffdec="https://www.free-decompiler.com/flash" xmlns:xlink="http://www.w3.org/1999/xlink" ffdec:objectType="shape" height="26.0px" width="26.0px" xmlns="http://www.w3.org/2000/svg">
  <g transform="matrix(1.0, 0.0, 0.0, 1.0, 0.0, 0.0)">
    <path d="M17.3 7.1 Q16.75 6.55 16.15 6.2 15.6 5.85 15.05 5.65 14.5 5.45 13.95 5.35 13.5 5.3 13.05 5.35 12.65 5.35 12.25 5.4 11.9 5.5 11.6 5.6 11.4 5.65 11.2 5.75 11.15 5.75 11.1 5.8 10.65 6.0 10.25 6.3 9.95 6.55 9.65 6.9 9.4 7.15 9.25 7.5 9.05 7.85 8.95 8.15 8.85 8.45 8.8 8.75 8.75 9.0 8.7 9.25 8.7 9.45 8.7 9.6 8.7 9.65 8.7 9.7 8.75 10.3 8.85 10.85 9.0 11.35 9.2 11.8 9.4 12.15 9.65 12.5 9.85 12.75 10.15 13.0 10.4 13.2 10.65 13.35 10.85 13.45 11.05 13.55 11.2 13.65 11.35 13.65 11.4 13.7 11.45 13.7 L11.8 13.65 11.95 13.45 12.15 13.5 12.4 13.2 12.9 13.2 Q12.75 13.25 12.65 13.35 12.55 13.4 12.45 13.5 12.35 13.55 12.3 13.65 12.2 13.7 12.15 13.75 12.1 13.8 12.05 13.85 12.05 13.9 12.0 13.95 12.0 14.0 12.0 14.0 12.0 14.05 11.95 14.05 12.65 14.2 13.25 14.4 13.8 14.55 14.2 14.8 14.6 15.0 14.9 15.2 15.15 15.4 15.3 15.65 15.45 15.8 15.55 16.0 15.65 16.2 15.65 16.35 15.7 16.45 15.7 16.55 15.7 16.6 15.7 16.65 15.7 16.95 15.55 17.25 15.45 17.45 15.2 17.65 15.0 17.85 14.65 17.95 14.4 18.05 14.05 18.15 13.8 18.2 13.5 18.25 13.2 18.25 12.95 18.3 12.75 18.3 12.6 18.3 12.5 18.3 12.45 18.3 11.95 18.25 11.5 18.15 11.1 18.05 10.75 17.85 10.45 17.7 10.15 17.5 9.95 17.3 9.75 17.1 9.55 16.9 9.45 16.7 9.35 16.55 9.25 16.35 9.2 16.25 9.15 16.15 9.15 16.1 9.15 16.05 L7.95 16.05 7.95 18.5 Q8.15 18.9 8.45 19.2 8.75 19.5 9.15 19.7 9.5 19.95 9.95 20.1 10.3 20.25 10.75 20.35 11.1 20.45 11.5 20.55 11.8 20.6 12.1 20.65 12.35 20.65 12.55 20.65 12.6 20.65 12.7 20.65 13.25 20.7 13.8 20.65 14.25 20.6 14.7 20.5 15.05 20.4 15.4 20.3 15.7 20.15 16.0 20.0 16.25 19.9 16.45 19.75 16.6 19.65 16.75 19.5 16.85 19.4 16.9 19.35 16.95 19.3 16.95 19.25 17.2 18.95 17.4 18.65 17.6 18.4 17.75 18.05 17.85 17.8 17.9 17.5 18.0 17.25 18.0 17.0 18.05 16.75 18.05 16.55 18.05 16.35 18.0 16.2 18.0 16.05 18.0 15.95 17.95 15.9 17.95 15.9 17.9 15.55 17.75 15.2 17.6 14.9 17.4 14.6 17.2 14.3 16.95 14.05 16.7 13.85 16.45 13.65 16.25 13.45 16.0 13.3 15.8 13.15 15.6 13.05 15.45 13.0 15.3 12.9 15.25 12.9 15.2 12.85 13.9 12.2 12.6 11.55 12.2 11.4 11.9 11.2 11.65 11.0 11.45 10.8 11.25 10.6 11.15 10.4 11.05 10.2 10.95 10.0 10.9 9.8 10.9 9.65 10.85 9.5 10.9 9.35 10.9 9.25 10.9 9.2 10.9 9.15 10.9 9.1 11.0 8.65 11.25 8.3 11.5 8.0 11.85 7.8 12.15 7.6 12.55 7.5 12.95 7.45 13.4 7.45 13.8 7.5 14.2 7.6 14.65 7.75 15.0 7.95 15.35 8.1 15.6 8.4 15.85 8.65 16.0 8.95 L17.3 8.95 17.3 7.1" fill="#f1edf8" fill-rule="evenodd" stroke="none"/>
  </g>
</svg>
