<?xml version="1.0" encoding="UTF-8" standalone="no"?>
<svg xmlns:ffdec="https://www.free-decompiler.com/flash" xmlns:xlink="http://www.w3.org/1999/xlink" ffdec:objectType="shape" height="26.0px" width="26.0px" xmlns="http://www.w3.org/2000/svg">
  <g transform="matrix(1.0, 0.0, 0.0, 1.0, 0.0, 0.0)">
    <path d="M12.8 5.25 L6.95 5.25 6.95 5.4 6.95 6.6 7.55 7.45 7.55 7.85 7.65 7.95 7.65 9.4 7.85 9.4 7.85 9.7 8.3 9.85 8.8 9.9 8.7 10.1 7.9 10.1 7.8 10.3 7.75 10.55 7.75 17.6 Q7.75 17.55 7.75 17.65 7.75 17.75 7.75 17.85 7.75 18.0 7.75 18.15 7.7 18.3 7.7 18.45 7.65 18.65 7.6 18.8 7.55 19.0 7.45 19.15 7.35 19.3 7.25 19.45 7.15 19.6 7.0 19.65 L7.0 20.75 9.3 20.75 10.45 20.75 12.95 20.75 Q12.95 20.75 13.2 20.7 13.55 20.7 13.9 20.6 14.4 20.5 14.9 20.3 15.45 20.05 16.0 19.75 16.6 19.35 17.1 18.8 17.7 18.2 18.1 17.45 18.55 16.6 18.75 15.55 19.05 14.35 19.05 13.0 19.05 11.65 18.8 10.5 18.55 9.45 18.05 8.6 17.65 7.8 17.05 7.2 16.55 6.7 15.95 6.3 15.4 5.95 14.8 5.7 14.3 5.5 13.8 5.4 13.45 5.35 13.1 5.3 12.95 5.3 12.8 5.25 L12.8 5.25 M13.3 18.4 L10.65 18.4 10.05 18.4 10.05 7.65 10.65 7.65 13.3 7.65 Q13.3 7.65 13.45 7.65 13.6 7.7 13.8 7.75 14.1 7.85 14.35 7.95 14.65 8.15 14.95 8.35 15.3 8.65 15.55 9.0 15.9 9.45 16.1 10.0 16.35 10.6 16.5 11.3 16.65 12.1 16.65 13.05 16.65 14.0 16.5 14.75 16.35 15.5 16.1 16.05 15.9 16.6 15.6 17.0 15.3 17.4 14.95 17.65 14.7 17.9 14.35 18.05 14.1 18.2 13.8 18.25 13.6 18.35 13.45 18.35 13.35 18.35 13.3 18.4 L13.3 18.4" fill="#f1edf8" fill-rule="evenodd" stroke="none"/>
  </g>
</svg>
