<?xml version="1.0" encoding="UTF-8" standalone="no"?>
<svg xmlns:ffdec="https://www.free-decompiler.com/flash" xmlns:xlink="http://www.w3.org/1999/xlink" ffdec:objectType="shape" height="26.0px" width="26.0px" xmlns="http://www.w3.org/2000/svg">
  <g transform="matrix(1.0, 0.0, 0.0, 1.0, 0.0, 0.0)">
    <path d="M16.85 12.1 L16.9 11.75 15.85 11.55 Q15.85 11.55 15.85 11.6 15.85 11.6 15.85 11.65 15.8 11.7 15.75 11.7 15.7 11.75 15.55 11.8 15.45 11.85 15.25 11.85 15.0 11.85 14.7 11.85 14.35 11.85 13.95 11.8 13.45 11.8 12.9 11.7 12.9 11.7 12.9 11.7 12.85 11.75 12.8 11.75 12.8 11.75 12.75 11.8 12.65 11.85 12.6 11.85 12.5 11.9 12.4 11.9 12.3 11.95 12.2 11.95 12.1 12.0 11.95 12.0 11.8 12.05 11.65 12.05 L11.65 10.85 11.45 10.9 11.3 11.05 11.2 10.95 11.2 10.95 11.15 10.85 11.25 10.9 11.15 10.8 11.2 10.7 11.45 10.7 11.45 10.6 11.7 10.5 11.7 8.05 Q11.7 7.85 11.75 7.7 11.85 7.55 12.0 7.4 12.1 7.3 12.3 7.2 12.45 7.15 12.65 7.1 12.8 7.05 13.0 7.0 13.15 7.0 13.3 7.0 13.45 6.95 13.55 6.95 13.55 6.95 13.6 6.95 L15.0 6.95 Q15.0 6.95 15.05 6.95 15.2 6.95 15.25 6.95 15.4 7.0 15.55 7.0 15.7 7.0 15.85 7.05 16.05 7.1 16.2 7.15 16.4 7.2 16.55 7.3 16.7 7.4 16.8 7.5 16.9 7.65 17.0 7.8 L17.7 7.8 17.7 5.25 12.1 5.25 9.35 5.25 8.3 5.25 8.3 6.5 Q8.5 6.5 8.65 6.6 8.8 6.65 8.9 6.8 9.0 6.85 9.1 7.0 9.15 7.1 9.2 7.25 9.25 7.35 9.3 7.5 9.3 7.6 9.35 7.7 9.35 7.8 9.35 7.85 9.35 7.9 9.35 7.9 L9.35 17.55 Q9.35 17.9 9.3 18.2 9.3 18.45 9.25 18.65 9.2 18.85 9.1 19.0 9.05 19.1 9.0 19.2 8.95 19.3 8.9 19.35 8.85 19.4 8.8 19.4 8.75 19.45 8.7 19.45 8.7 19.45 8.7 19.45 L8.7 20.75 12.35 20.75 12.35 19.45 Q12.2 19.4 12.1 19.3 12.0 19.2 11.95 19.1 11.85 18.95 11.8 18.75 11.75 18.6 11.7 18.45 11.7 18.3 11.65 18.1 11.65 18.0 11.65 17.85 11.65 17.75 11.65 17.65 11.65 17.6 11.65 17.6 L11.65 13.45 14.35 13.35 Q14.4 13.35 14.45 13.35 14.55 13.35 14.7 13.35 14.9 13.3 15.05 13.3 15.3 13.25 15.5 13.2 15.7 13.15 15.9 13.05 16.15 12.95 16.3 12.8 16.5 12.7 16.65 12.5 16.8 12.3 16.85 12.1 L16.85 12.1" fill="#f1edf8" fill-rule="evenodd" stroke="none"/>
  </g>
</svg>
