<?xml version="1.0" encoding="UTF-8" standalone="no"?>
<svg xmlns:ffdec="https://www.free-decompiler.com/flash" xmlns:xlink="http://www.w3.org/1999/xlink" ffdec:objectType="shape" height="26.0px" width="26.0px" xmlns="http://www.w3.org/2000/svg">
  <g transform="matrix(1.0, 0.0, 0.0, 1.0, 0.0, 0.0)">
    <path d="M19.2 6.2 L19.2 5.25 15.4 5.25 15.4 6.3 Q15.4 6.3 15.45 6.3 15.45 6.3 15.5 6.35 15.55 6.35 15.6 6.4 15.7 6.45 15.75 6.5 15.8 6.6 15.85 6.65 15.95 6.75 16.0 6.85 16.05 7.0 16.05 7.1 16.1 7.25 16.1 7.45 L16.1 9.85 16.3 9.95 16.3 10.05 16.5 10.05 16.55 10.15 16.6 10.25 16.7 10.2 16.65 10.35 16.5 10.35 16.4 10.4 16.25 10.3 16.1 10.2 16.1 10.55 Q16.1 10.65 16.1 10.7 16.1 10.8 16.05 10.9 16.05 11.05 16.05 11.15 16.0 11.3 16.0 11.4 15.95 11.5 15.9 11.6 15.85 11.75 15.75 11.8 15.7 11.9 15.6 11.95 15.5 12.0 15.4 12.0 L10.6 12.0 Q10.6 12.0 10.55 12.0 10.55 12.0 10.5 11.95 10.45 11.9 10.35 11.85 10.3 11.8 10.25 11.7 10.15 11.6 10.1 11.45 10.05 11.3 10.0 11.05 9.95 10.85 9.9 10.55 9.9 10.25 9.9 9.85 L9.9 9.85 9.9 7.6 Q9.9 7.6 9.9 7.55 9.9 7.5 9.9 7.45 9.9 7.35 9.9 7.25 9.95 7.15 9.95 7.05 10.0 6.9 10.05 6.8 10.1 6.7 10.2 6.6 10.25 6.45 10.35 6.35 10.5 6.25 10.6 6.2 L10.6 5.25 6.8 5.25 6.8 6.3 Q6.8 6.3 6.85 6.3 6.85 6.3 6.9 6.35 6.95 6.35 7.0 6.4 7.1 6.45 7.15 6.5 7.2 6.6 7.25 6.65 7.3 6.75 7.35 6.85 7.4 7.0 7.45 7.1 7.45 7.25 7.45 7.45 L7.5 17.75 Q7.5 17.75 7.5 17.85 7.5 17.95 7.5 18.05 7.5 18.25 7.45 18.4 7.45 18.6 7.4 18.75 7.4 18.95 7.35 19.1 7.25 19.3 7.2 19.45 7.1 19.6 7.05 19.65 6.9 19.75 6.8 19.75 L6.8 20.75 10.6 20.75 10.6 19.7 Q10.6 19.7 10.55 19.7 10.55 19.7 10.5 19.7 10.45 19.65 10.4 19.6 10.3 19.55 10.25 19.5 10.2 19.4 10.1 19.25 10.05 19.1 10.0 18.9 9.95 18.65 9.9 18.4 9.9 18.1 9.9 17.75 L9.9 16.35 9.9 16.35 Q9.9 16.35 9.9 16.35 L9.9 15.65 Q9.9 15.55 9.9 15.4 9.9 15.3 9.95 15.2 9.95 15.05 10.0 14.95 10.0 14.85 10.05 14.75 10.1 14.65 10.15 14.55 10.2 14.45 10.25 14.4 10.35 14.35 10.4 14.3 10.5 14.3 10.6 14.3 L15.4 14.3 Q15.4 14.3 15.45 14.3 15.45 14.3 15.5 14.3 15.55 14.35 15.6 14.35 15.7 14.4 15.75 14.45 15.8 14.5 15.85 14.6 15.95 14.7 16.0 14.8 16.05 14.95 16.05 15.1 16.1 15.3 16.1 15.5 L16.1 17.75 Q16.1 17.75 16.1 17.85 16.1 17.95 16.1 18.05 16.1 18.25 16.05 18.4 16.05 18.6 16.0 18.75 16.0 18.95 15.95 19.1 15.85 19.3 15.8 19.45 15.7 19.6 15.65 19.65 15.5 19.75 15.4 19.75 L15.4 20.75 19.2 20.75 19.2 19.7 Q19.2 19.7 19.15 19.7 19.15 19.7 19.1 19.7 19.05 19.65 19.0 19.6 18.9 19.55 18.85 19.5 18.8 19.4 18.7 19.25 18.65 19.1 18.6 18.9 18.55 18.65 18.5 18.4 18.5 18.1 18.45 17.75 L18.45 7.6 Q18.45 7.6 18.45 7.55 18.45 7.45 18.5 7.45 18.5 7.35 18.5 7.25 18.55 7.15 18.55 7.05 18.6 6.9 18.65 6.8 18.7 6.7 18.8 6.6 18.85 6.45 18.95 6.35 19.05 6.25 19.2 6.2 L19.2 6.2" fill="#f1edf8" fill-rule="evenodd" stroke="none"/>
  </g>
</svg>
