<?xml version="1.0" encoding="UTF-8" standalone="no"?>
<svg xmlns:ffdec="https://www.free-decompiler.com/flash" xmlns:xlink="http://www.w3.org/1999/xlink" ffdec:objectType="shape" height="26.0px" width="26.0px" xmlns="http://www.w3.org/2000/svg">
  <g transform="matrix(1.0, 0.0, 0.0, 1.0, 0.0, 0.0)">
    <path d="M16.05 8.75 Q15.85 8.75 15.7 8.85 15.6 8.9 15.5 9.0 15.45 9.1 15.45 9.3 15.45 9.4 15.45 9.6 15.5 9.7 15.55 9.85 15.6 10.0 15.65 10.15 15.7 10.25 15.7 10.3 15.75 10.35 15.75 10.4 15.75 10.3 15.8 10.25 15.8 10.2 15.85 10.15 15.9 10.1 16.0 10.05 16.05 10.0 16.1 10.0 16.2 9.95 16.25 9.95 16.3 9.95 16.4 9.9 16.4 9.9 16.45 9.9 16.5 9.9 16.5 9.9 16.65 9.9 16.75 9.95 16.85 9.95 16.9 10.0 17.0 10.05 17.05 10.15 17.1 10.25 17.15 10.35 17.2 10.45 17.25 10.6 17.25 10.7 17.3 10.9 17.3 11.05 17.3 11.25 17.3 11.4 17.3 11.65 L17.3 17.85 Q17.3 18.05 17.3 18.3 17.3 18.5 17.25 18.7 17.25 18.9 17.2 19.1 17.15 19.3 17.1 19.5 17.05 19.65 17.0 19.8 16.95 19.95 16.85 20.05 16.75 20.15 16.7 20.2 16.6 20.25 16.5 20.25 L16.2 20.25 16.2 21.7 20.2 21.7 20.2 20.25 19.9 20.25 Q19.8 20.25 19.75 20.2 19.65 20.15 19.6 20.05 19.5 19.95 19.45 19.8 19.4 19.65 19.35 19.5 19.3 19.3 19.25 19.1 19.2 18.9 19.2 18.7 19.15 18.5 19.15 18.3 19.15 18.05 19.15 17.85 L19.15 7.75 18.45 7.75 Q18.4 7.8 18.15 8.0 17.95 8.1 17.85 8.2 17.7 8.3 17.6 8.35 17.45 8.45 17.35 8.5 17.2 8.55 17.05 8.6 16.95 8.65 16.8 8.7 16.65 8.75 16.45 8.75 16.3 8.75 16.1 8.75 L16.05 8.75" fill="#f1edf8" fill-rule="evenodd" stroke="none"/>
  </g>
</svg>
