<?xml version="1.0" encoding="UTF-8" standalone="no"?>
<svg xmlns:ffdec="https://www.free-decompiler.com/flash" xmlns:xlink="http://www.w3.org/1999/xlink" ffdec:objectType="shape" height="26.0px" width="26.0px" xmlns="http://www.w3.org/2000/svg">
  <g transform="matrix(1.0, 0.0, 0.0, 1.0, 0.0, 0.0)">
    <path d="M13.25 5.25 L13.25 5.8 Q13.25 5.8 13.25 5.8 13.3 5.85 13.35 5.85 13.35 5.9 13.4 5.9 13.45 5.95 13.5 6.0 13.55 6.05 13.6 6.1 13.65 6.2 13.7 6.3 13.75 6.4 13.75 6.5 13.8 6.6 13.8 6.75 L13.8 9.2 13.8 16.6 Q13.8 16.95 13.75 17.25 13.7 17.5 13.6 17.75 13.5 17.95 13.4 18.1 13.3 18.25 13.15 18.35 13.05 18.45 12.95 18.5 12.85 18.55 12.7 18.6 12.65 18.6 12.6 18.6 12.55 18.6 12.5 18.6 12.45 18.6 12.4 18.65 12.35 18.65 12.3 18.65 12.25 18.65 12.2 18.65 12.15 18.65 12.1 18.65 12.05 18.6 12.0 18.6 11.95 18.6 11.9 18.55 11.85 18.55 11.8 18.55 11.75 18.5 11.7 18.5 L11.7 18.5 11.65 18.5 11.65 18.55 11.6 18.6 11.65 18.6 11.65 18.65 11.7 18.7 11.6 18.65 11.6 18.65 11.55 18.6 11.6 18.55 11.6 18.5 11.55 18.55 11.5 18.5 11.6 18.45 11.6 18.45 Q11.5 18.4 11.4 18.3 11.3 18.2 11.2 18.1 11.1 18.0 11.0 17.9 10.95 17.8 10.85 17.7 10.8 17.65 10.75 17.55 10.7 17.45 10.65 17.4 10.6 17.35 10.6 17.3 10.6 17.3 10.55 17.25 L10.25 17.25 9.75 18.7 Q9.9 19.25 10.2 19.65 10.4 20.0 10.75 20.25 11.05 20.5 11.4 20.6 11.7 20.7 12.1 20.7 12.4 20.75 12.7 20.7 13.0 20.65 13.25 20.6 13.45 20.55 13.6 20.5 13.7 20.45 13.75 20.45 13.75 20.45 13.85 20.4 13.95 20.4 14.05 20.35 14.2 20.25 14.35 20.15 14.55 20.05 14.7 19.9 14.9 19.7 15.05 19.5 15.25 19.3 15.35 19.05 15.5 18.75 15.6 18.4 15.65 18.05 15.65 17.65 L15.65 6.9 Q15.65 6.9 15.65 6.85 15.65 6.9 15.65 6.8 15.65 6.75 15.7 6.7 15.7 6.65 15.7 6.55 15.75 6.5 15.75 6.4 15.75 6.35 15.8 6.25 15.85 6.2 15.9 6.15 15.95 6.05 16.0 6.0 L15.9 6.05 15.8 6.0 15.8 6.1 15.65 6.05 15.6 6.0 15.6 5.9 15.7 5.9 15.7 5.85 15.9 5.8 15.95 5.9 16.05 5.9 Q16.1 5.9 16.15 5.85 16.2 5.8 16.25 5.75 L16.25 5.25 13.25 5.25 13.25 5.25" fill="#f1edf8" fill-rule="evenodd" stroke="none"/>
  </g>
</svg>
