<?xml version="1.0" encoding="UTF-8" standalone="no"?>
<svg xmlns:ffdec="https://www.free-decompiler.com/flash" xmlns:xlink="http://www.w3.org/1999/xlink" ffdec:objectType="shape" height="26.0px" width="26.0px" xmlns="http://www.w3.org/2000/svg">
  <g transform="matrix(1.0, 0.0, 0.0, 1.0, 0.0, 0.0)">
    <path d="M17.05 18.2 Q17.05 18.2 16.95 18.25 16.85 18.25 16.7 18.3 16.5 18.35 16.25 18.4 16.0 18.45 15.7 18.55 15.4 18.6 15.05 18.65 14.7 18.7 14.35 18.75 13.95 18.8 13.6 18.85 13.2 18.85 12.8 18.85 12.5 18.85 12.25 18.75 12.05 18.65 11.85 18.45 11.7 18.25 11.55 18.05 11.45 17.8 11.35 17.55 11.3 17.3 11.25 17.05 11.25 16.85 11.2 16.65 11.2 16.5 11.2 16.35 11.2 16.3 11.2 16.25 L11.2 10.25 11.05 10.35 10.9 10.45 10.8 10.4 10.65 10.4 10.65 10.25 10.75 10.3 10.75 10.2 10.8 10.1 11.05 10.1 11.05 10.0 11.25 9.9 11.25 7.7 Q11.25 7.5 11.25 7.3 11.3 7.1 11.35 6.95 11.35 6.85 11.4 6.7 11.45 6.6 11.5 6.55 11.55 6.45 11.6 6.4 11.65 6.35 11.7 6.3 11.75 6.3 11.75 6.3 11.75 6.25 11.8 6.25 L11.8 5.25 8.2 5.25 8.2 6.2 Q8.3 6.25 8.4 6.35 8.5 6.4 8.55 6.55 8.6 6.65 8.65 6.75 8.7 6.85 8.75 7.0 8.75 7.1 8.75 7.2 8.8 7.3 8.8 7.4 8.8 7.45 8.8 7.55 8.8 7.55 8.8 7.6 L8.8 16.05 Q8.8 16.5 8.75 16.95 8.75 17.3 8.7 17.65 8.65 17.95 8.55 18.2 8.5 18.4 8.45 18.6 8.4 18.75 8.3 18.9 8.25 19.0 8.2 19.1 8.15 19.15 8.1 19.2 8.1 19.2 8.1 19.25 L8.05 20.75 12.2 20.75 12.2 20.7 16.0 20.75 Q16.1 20.7 17.95 20.75 L17.95 18.2 17.05 18.2" fill="#f1edf8" fill-rule="evenodd" stroke="none"/>
  </g>
</svg>
