<?xml version="1.0" encoding="UTF-8" standalone="no"?>
<svg xmlns:ffdec="https://www.free-decompiler.com/flash" xmlns:xlink="http://www.w3.org/1999/xlink" ffdec:objectType="shape" height="26.0px" width="26.0px" xmlns="http://www.w3.org/2000/svg">
  <g transform="matrix(1.0, 0.0, 0.0, 1.0, 0.0, 0.0)">
    <path d="M18.5 15.0 L16.8 15.8 16.95 17.75 Q16.95 17.75 17.05 17.8 17.15 17.8 17.25 17.9 17.35 18.0 17.5 18.1 17.6 18.25 17.7 18.45 17.8 18.65 17.85 18.95 17.9 19.25 17.85 19.65 17.8 20.05 17.6 20.5 17.45 21.05 17.1 21.65 17.1 21.65 17.15 21.6 17.2 21.55 17.3 21.5 17.4 21.4 17.45 21.35 17.6 21.2 17.7 21.1 17.85 21.0 17.95 20.85 18.1 20.75 18.2 20.6 18.3 20.45 18.4 20.3 18.5 20.15 18.55 20.0 18.55 20.0 18.6 19.95 18.65 19.85 18.75 19.75 18.85 19.6 18.95 19.4 19.1 19.2 19.2 19.05 19.35 18.8 19.45 18.6 19.55 18.35 19.65 18.15 19.75 17.95 19.8 17.75 19.85 17.55 19.85 17.35 19.85 17.1 19.8 16.85 19.75 16.6 19.65 16.35 19.55 16.15 19.4 15.95 19.3 15.8 19.15 15.6 19.05 15.5 18.9 15.35 18.8 15.25 18.7 15.15 18.6 15.1 18.55 15.0 18.5 15.0 18.5 15.0 L18.5 15.0 M17.65 8.95 L16.8 10.35 17.65 11.8 19.2 11.8 20.0 10.35 19.2 8.95 17.65 8.95" fill="#f1edf8" fill-rule="evenodd" stroke="none"/>
  </g>
</svg>
