<?xml version="1.0" encoding="UTF-8" standalone="no"?>
<svg xmlns:ffdec="https://www.free-decompiler.com/flash" xmlns:xlink="http://www.w3.org/1999/xlink" ffdec:objectType="shape" height="26.0px" width="26.0px" xmlns="http://www.w3.org/2000/svg">
  <g transform="matrix(1.0, 0.0, 0.0, 1.0, 0.0, 0.0)">
    <path d="M6.2 4.65 L4.85 5.3 4.95 6.85 Q4.95 6.85 5.0 6.85 5.1 6.9 5.2 6.95 5.3 7.05 5.4 7.15 5.5 7.25 5.55 7.4 5.65 7.6 5.65 7.8 5.7 8.05 5.65 8.35 5.6 8.7 5.45 9.1 5.3 9.5 5.05 10.0 5.05 10.0 5.1 9.95 5.15 9.9 5.2 9.85 5.3 9.8 5.35 9.75 5.45 9.65 5.55 9.55 5.65 9.45 5.75 9.35 5.85 9.25 5.95 9.15 6.05 9.05 6.1 8.9 6.2 8.8 6.25 8.7 6.25 8.7 6.3 8.65 6.55 8.25 6.4 8.45 6.5 8.35 6.55 8.2 6.65 8.05 6.75 7.9 6.85 7.7 6.95 7.55 7.05 7.35 7.1 7.2 7.2 7.0 7.2 6.85 7.25 6.65 7.25 6.55 7.25 6.35 7.2 6.15 7.15 5.95 7.1 5.75 7.0 5.6 6.9 5.45 6.85 5.3 6.7 5.15 6.65 5.05 6.5 4.95 6.45 4.85 6.35 4.75 6.3 4.7 6.2 4.65 6.2 4.65 6.2 4.65 L6.2 4.65 M9.55 4.65 L8.2 5.3 8.35 6.85 Q8.35 6.85 8.4 6.85 8.5 6.9 8.55 6.95 8.65 7.05 8.75 7.15 8.85 7.25 8.9 7.4 9.0 7.6 9.05 7.8 9.05 8.05 9.0 8.35 8.95 8.7 8.85 9.1 8.7 9.5 8.4 10.0 8.4 10.0 8.45 9.95 8.5 9.9 8.55 9.85 8.65 9.8 8.7 9.75 8.8 9.65 8.9 9.55 9.0 9.45 9.1 9.35 9.2 9.25 9.3 9.15 9.4 9.05 9.45 8.9 9.55 8.8 9.6 8.7 9.6 8.7 9.65 8.65 9.7 8.55 9.75 8.45 9.85 8.35 9.9 8.2 10.0 8.05 10.1 7.9 10.2 7.7 10.3 7.55 10.4 7.35 10.45 7.2 10.55 7.0 10.6 6.85 10.65 6.65 10.65 6.55 10.65 6.35 10.6 6.15 10.55 5.95 10.45 5.75 10.4 5.6 10.3 5.45 10.2 5.3 10.1 5.15 10.0 5.05 9.9 4.95 9.8 4.85 9.7 4.75 9.65 4.7 9.6 4.65 9.55 4.65 9.55 4.65 L9.55 4.65" fill="#f1edf8" fill-rule="evenodd" stroke="none"/>
  </g>
</svg>
