<?xml version="1.0" encoding="UTF-8" standalone="no"?>
<svg xmlns:ffdec="https://www.free-decompiler.com/flash" xmlns:xlink="http://www.w3.org/1999/xlink" ffdec:objectType="shape" height="26.0px" width="26.0px" xmlns="http://www.w3.org/2000/svg">
  <g transform="matrix(1.0, 0.0, 0.0, 1.0, 0.0, 0.0)">
    <path d="M17.5 6.35 Q16.55 6.7 15.75 6.95 14.95 7.2 14.3 7.35 13.7 7.45 13.15 7.5 12.6 7.5 12.15 7.45 11.7 7.4 11.25 7.3 10.85 7.2 10.4 7.05 10.1 6.9 9.55 6.7 8.9 6.4 8.6 6.3 8.1 6.1 7.65 6.0 7.2 5.95 6.75 5.95 6.35 5.95 6.0 6.05 5.65 6.1 5.35 6.25 5.05 6.35 4.8 6.5 4.6 6.6 4.4 6.75 4.25 6.85 4.15 6.95 4.1 7.0 4.05 7.0 4.05 7.0 4.05 7.85 4.05 8.65 4.05 8.65 4.1 8.6 4.15 8.6 4.25 8.5 4.45 8.4 4.65 8.3 4.9 8.2 5.2 8.1 5.55 8.0 5.9 7.9 6.3 7.85 6.8 7.85 7.25 7.9 7.75 7.95 8.3 8.1 8.85 8.25 9.45 8.55 10.1 8.9 10.55 9.05 11.05 9.25 11.45 9.3 11.85 9.35 12.25 9.3 12.6 9.25 13.0 9.1 13.35 8.95 13.8 8.7 14.1 8.5 14.75 8.1 15.6 7.55 15.95 7.3 16.75 6.8 17.5 6.35 L17.5 6.35" fill="#f1edf8" fill-rule="evenodd" stroke="none"/>
  </g>
</svg>
