<?xml version="1.0" encoding="UTF-8" standalone="no"?>
<svg xmlns:ffdec="https://www.free-decompiler.com/flash" xmlns:xlink="http://www.w3.org/1999/xlink" ffdec:objectType="shape" height="26.0px" width="26.0px" xmlns="http://www.w3.org/2000/svg">
  <g transform="matrix(1.0, 0.0, 0.0, 1.0, 0.0, 0.0)">
    <path d="M17.8 18.05 L17.65 19.35 18.6 19.95 Q18.6 19.95 18.65 19.9 18.7 19.9 18.8 19.85 18.9 19.8 19.0 19.8 19.15 19.75 19.3 19.8 19.45 19.8 19.65 19.9 19.85 20.0 20.05 20.15 20.3 20.35 20.5 20.6 20.75 20.9 21.0 21.35 21.0 21.35 21.0 21.3 21.0 21.25 20.95 21.2 20.95 21.1 20.95 21.0 20.9 20.9 20.9 20.8 20.85 20.65 20.8 20.55 20.8 20.4 20.75 20.3 20.7 20.15 20.65 20.05 20.6 19.95 20.55 19.85 20.55 19.85 20.5 19.8 20.5 19.7 20.45 19.65 20.4 19.5 20.35 19.4 20.25 19.25 20.2 19.1 20.1 18.95 20.05 18.8 19.95 18.65 19.85 18.55 19.75 18.4 19.65 18.3 19.55 18.15 19.45 18.1 19.3 18.0 19.15 17.95 19.0 17.9 18.85 17.85 18.7 17.85 18.55 17.85 18.45 17.85 18.3 17.85 18.2 17.9 18.1 17.9 18.0 17.95 17.95 17.95 17.9 18.0 17.85 18.0 17.8 18.0 17.8 18.05 L17.8 18.05" fill="#f1edf8" fill-rule="evenodd" stroke="none"/>
  </g>
</svg>
