<?xml version="1.0" encoding="UTF-8" standalone="no"?>
<svg xmlns:ffdec="https://www.free-decompiler.com/flash" xmlns:xlink="http://www.w3.org/1999/xlink" ffdec:objectType="shape" height="26.0px" width="26.0px" xmlns="http://www.w3.org/2000/svg">
  <g transform="matrix(1.0, 0.0, 0.0, 1.0, 0.0, 0.0)">
    <path d="M11.35 11.85 Q11.4 11.85 11.4 11.85 11.4 11.85 11.45 11.85 11.55 11.85 11.7 11.8 11.85 11.8 12.0 11.7 12.15 11.6 12.3 11.45 12.5 11.3 12.6 11.1 12.75 10.85 12.85 10.6 12.9 10.25 12.95 9.9 12.95 9.45 12.9 9.0 12.85 8.45 12.65 7.85 12.6 7.7 12.55 7.55 12.5 7.4 12.45 7.25 12.4 7.1 12.3 6.95 12.25 6.8 12.15 6.65 12.05 6.5 11.95 6.4 11.85 6.25 11.75 6.15 11.6 6.0 11.45 5.9 11.3 5.8 11.15 5.75 10.9 5.65 10.65 5.55 10.4 5.45 10.15 5.4 9.85 5.35 9.6 5.35 9.35 5.35 9.1 5.4 8.8 5.4 8.55 5.45 8.3 5.5 8.1 5.6 7.85 5.7 7.6 5.85 7.4 5.95 7.2 6.1 6.95 6.3 6.75 6.5 6.5 6.7 6.35 6.9 6.15 7.1 6.0 7.35 5.85 7.55 5.75 7.8 5.65 8.1 5.6 8.35 5.5 8.65 5.45 9.0 5.45 9.3 5.45 9.7 5.45 10.05 5.45 10.5 5.45 10.75 5.55 11.0 5.6 11.2 5.7 11.45 5.8 11.65 5.9 11.85 6.05 12.05 6.2 12.25 6.35 12.45 6.5 12.6 6.7 12.75 6.85 12.9 7.05 13.05 7.25 13.15 7.5 13.25 7.7 13.35 7.9 13.4 8.1 13.45 8.3 13.5 8.45 13.55 8.6 13.55 8.75 13.6 8.9 13.6 9.05 13.6 9.15 13.6 9.25 13.55 9.35 13.55 9.4 13.5 9.5 13.5 9.55 13.45 9.6 13.45 9.6 13.45 9.65 13.45 9.65 13.4 9.7 13.35 9.7 13.3 9.75 13.25 9.75 13.15 9.8 13.1 9.8 13.05 9.85 13.0 9.85 12.95 9.85 12.9 9.85 12.85 9.85 12.8 9.85 12.75 9.85 12.7 9.85 12.7 9.85 12.7 9.85 12.7 9.85 12.65 9.85 12.65 9.85 12.65 9.8 12.7 9.8 12.7 9.8 12.7 9.8 12.7 9.75 12.7 9.75 12.7 9.7 12.75 9.65 12.75 9.6 12.75 9.55 12.75 9.45 12.75 8.9 12.8 8.45 12.7 8.0 12.65 7.65 12.45 7.3 12.3 7.05 12.05 6.85 11.8 6.65 11.5 6.5 11.2 6.4 10.85 6.35 10.55 6.3 10.2 6.3 9.85 6.3 9.5 6.35 9.15 6.4 8.85 6.45 8.6 6.5 8.4 6.6 8.15 6.7 7.95 6.8 7.75 6.9 7.55 7.0 7.4 7.15 7.2 7.3 7.05 7.45 6.9 7.6 6.75 7.8 6.65 8.0 6.55 8.25 6.45 8.45 6.35 8.7 6.3 8.95 6.25 9.2 6.2 9.45 6.2 9.7 6.2 9.95 6.2 10.2 6.3 10.45 6.35 10.65 6.45 10.85 6.55 11.05 6.7 11.2 6.9 11.35 7.1 11.55 7.3 11.65 7.5 11.75 7.75 11.85 8.05 11.95 8.4 12.0 8.7 12.05 9.05 12.05 9.3 12.1 9.55 12.05 9.8 12.0 10.0 11.95 10.2 11.9 10.35 11.8 10.5 11.7 10.65 11.55 10.7 11.45 10.8 11.25 10.85 11.1 10.9 10.95 10.9 L11.35 11.85 M12.0 11.4 Q12.0 11.4 11.75 11.4 11.45 11.35 11.4 11.35 11.35 11.35 11.3 11.3 11.3 11.3 11.25 11.25 11.25 11.25 11.2 11.2 11.2 11.15 11.2 11.15 11.15 11.1 11.15 11.1 11.15 11.1 11.15 11.05 11.15 11.05 11.15 11.05 11.15 11.05 11.15 11.05 L11.15 8.8 Q11.15 8.35 11.1 7.9 10.95 7.55 10.7 7.35 10.45 7.1 10.2 7.0 9.95 6.9 9.65 6.9 9.4 6.9 9.1 6.95 8.9 7.0 8.65 7.05 8.45 7.1 8.25 7.2 8.1 7.3 7.95 7.35 7.9 7.4 7.85 7.4 L7.85 8.35 8.2 8.3 8.5 8.0 Q8.85 7.85 9.1 7.8 9.35 7.75 9.55 7.75 9.75 7.75 9.85 7.8 10.0 7.8 10.05 7.9 10.15 7.95 10.15 8.05 10.2 8.15 10.2 8.2 10.2 8.3 10.2 8.35 10.2 8.35 10.2 8.4 L9.05 8.45 Q9.05 8.45 9.0 8.45 8.9 8.5 8.85 8.5 8.75 8.55 8.65 8.6 8.5 8.65 8.4 8.7 8.25 8.75 8.15 8.85 8.0 8.9 7.9 9.0 7.75 9.1 7.65 9.2 7.55 9.35 7.5 9.45 7.4 9.7 7.35 9.95 7.25 10.15 7.25 10.35 7.25 10.55 7.25 10.7 7.25 10.85 7.3 11.0 7.3 11.1 7.35 11.2 7.4 11.3 7.45 11.4 7.45 11.45 7.5 11.5 7.5 11.5 7.5 11.5 7.65 11.65 7.8 11.75 7.95 11.85 8.1 11.95 8.25 12.0 8.4 12.0 8.55 12.0 8.7 12.0 8.8 12.0 8.95 12.0 9.05 11.95 9.15 11.95 9.2 11.9 9.25 11.9 9.3 11.9 9.3 11.9 L10.1 11.4 10.1 11.75 10.2 11.85 11.4 11.85 12.0 11.45 12.0 11.4 M9.8 10.25 L9.3 10.7 Q9.3 10.7 9.25 10.75 9.15 10.8 9.1 10.8 9.0 10.85 8.9 10.9 8.8 10.95 8.7 10.95 8.55 10.95 8.5 10.9 8.4 10.85 8.3 10.75 8.25 10.6 8.25 10.4 8.25 10.15 8.3 9.85 8.3 9.85 8.3 9.8 8.35 9.75 8.4 9.7 8.45 9.65 8.5 9.6 8.6 9.5 8.7 9.45 8.8 9.4 8.85 9.35 9.0 9.3 9.1 9.3 9.2 9.25 9.3 9.3 9.45 9.3 9.55 9.4 9.55 9.4 9.55 9.4 9.55 9.35 9.55 9.35 9.5 9.3 9.5 9.25 9.55 9.25 9.55 9.2 9.55 9.15 9.6 9.15 9.65 9.1 9.7 9.05 9.8 9.05 9.9 9.05 10.05 9.0 10.2 9.0 L10.2 10.25 9.8 10.25" fill="#f1edf8" fill-rule="evenodd" stroke="none"/>
  </g>
</svg>
