<?xml version="1.0" encoding="UTF-8" standalone="no"?>
<svg xmlns:ffdec="https://www.free-decompiler.com/flash" xmlns:xlink="http://www.w3.org/1999/xlink" ffdec:objectType="shape" height="26.0px" width="26.0px" xmlns="http://www.w3.org/2000/svg">
  <g transform="matrix(1.0, 0.0, 0.0, 1.0, 0.0, 0.0)">
    <path d="M19.1 5.25 L6.9 5.25 6.9 8.45 7.6 7.9 Q7.65 7.85 7.7 7.75 7.75 7.7 7.85 7.65 7.95 7.6 8.05 7.6 8.15 7.55 8.25 7.55 8.35 7.5 8.45 7.5 8.5 7.5 8.6 7.5 8.65 7.5 8.7 7.5 8.75 7.5 8.75 7.5 L16.15 7.45 7.0 19.0 6.9 19.1 6.9 19.25 6.9 20.75 7.2 20.75 19.1 20.75 19.1 17.55 17.75 18.1 Q17.75 18.2 17.7 18.3 17.6 18.35 17.5 18.4 17.35 18.45 17.2 18.5 17.05 18.55 16.85 18.55 16.7 18.55 16.5 18.55 16.35 18.55 16.2 18.55 16.1 18.55 16.0 18.55 15.95 18.55 15.95 18.55 L13.05 18.55 13.15 18.75 13.25 18.95 13.2 19.1 13.2 19.3 13.05 19.3 13.1 19.2 13.0 19.2 12.95 19.1 12.95 18.8 12.85 18.75 12.75 18.5 10.85 18.5 19.1 7.2 19.1 5.25" fill="#f1edf8" fill-rule="evenodd" stroke="none"/>
  </g>
</svg>
