<?xml version="1.0" encoding="UTF-8" standalone="no"?>
<svg xmlns:ffdec="https://www.free-decompiler.com/flash" xmlns:xlink="http://www.w3.org/1999/xlink" ffdec:objectType="shape" height="26.0px" width="26.0px" xmlns="http://www.w3.org/2000/svg">
  <g transform="matrix(1.0, 0.0, 0.0, 1.0, 0.0, 0.0)">
    <path d="M17.85 18.45 L14.45 12.9 17.8 7.5 Q17.9 7.3 18.05 7.1 18.2 6.9 18.3 6.75 18.4 6.65 18.55 6.55 18.65 6.45 18.75 6.35 18.85 6.3 18.9 6.25 19.0 6.2 19.05 6.2 19.1 6.15 19.15 6.15 19.15 6.15 19.15 6.15 L19.15 5.25 15.1 5.25 15.1 6.15 Q15.25 6.2 15.3 6.25 15.4 6.35 15.45 6.45 15.5 6.55 15.55 6.65 15.55 6.75 15.55 6.85 15.55 6.95 15.55 7.1 15.55 7.15 15.5 7.25 15.5 7.3 15.5 7.4 15.45 7.4 15.45 7.45 L13.2 10.8 12.85 10.8 10.7 7.6 Q10.55 7.4 10.5 7.2 10.45 7.0 10.45 6.85 10.45 6.75 10.5 6.6 10.55 6.5 10.6 6.4 10.65 6.35 10.75 6.25 10.8 6.2 10.85 6.2 10.9 6.15 10.95 6.15 11.0 6.1 11.0 6.1 L11.0 5.25 6.85 5.25 6.85 6.1 Q7.0 6.2 7.15 6.35 7.3 6.45 7.5 6.65 7.65 6.85 7.8 7.05 7.95 7.2 8.1 7.4 8.2 7.6 8.35 7.8 8.4 7.95 8.5 8.1 8.6 8.2 8.65 8.3 8.65 8.35 8.7 8.4 L11.85 12.9 8.0 18.5 Q7.9 18.7 7.75 18.9 7.65 19.05 7.5 19.2 7.4 19.35 7.25 19.45 7.15 19.55 7.05 19.6 7.0 19.7 6.9 19.7 6.8 19.75 6.75 19.8 6.7 19.8 6.65 19.8 6.65 19.85 6.65 19.85 L6.65 20.7 11.2 20.7 11.2 19.85 Q11.05 19.8 10.95 19.7 10.9 19.65 10.8 19.55 10.75 19.45 10.75 19.35 10.75 19.25 10.75 19.1 10.75 19.0 10.75 18.9 10.75 18.8 10.75 18.7 10.8 18.65 10.8 18.6 10.8 18.55 10.8 18.55 L13.2 14.7 13.25 14.7 15.0 17.8 Q15.15 18.05 15.25 18.3 15.3 18.5 15.35 18.75 15.35 18.9 15.35 19.1 15.35 19.25 15.3 19.35 15.25 19.5 15.2 19.6 15.15 19.65 15.1 19.75 15.05 19.8 15.0 19.85 15.0 19.85 14.95 19.85 L14.95 20.75 19.35 20.75 19.35 19.85 Q19.2 19.75 19.05 19.65 18.9 19.55 18.75 19.45 18.65 19.3 18.5 19.2 18.4 19.1 18.3 18.95 18.2 18.85 18.1 18.75 18.05 18.65 17.95 18.6 17.9 18.55 17.9 18.45 17.85 18.45 17.85 18.45 L17.85 18.45" fill="#f1edf8" fill-rule="evenodd" stroke="none"/>
  </g>
</svg>
