<?xml version="1.0" encoding="UTF-8" standalone="no"?>
<svg xmlns:ffdec="https://www.free-decompiler.com/flash" xmlns:xlink="http://www.w3.org/1999/xlink" ffdec:objectType="shape" height="26.0px" width="26.0px" xmlns="http://www.w3.org/2000/svg">
  <g transform="matrix(1.0, 0.0, 0.0, 1.0, 0.0, 0.0)">
    <path d="M15.35 5.25 L15.35 6.2 Q15.55 6.25 15.7 6.45 15.85 6.55 15.9 6.75 16.0 6.95 16.0 7.2 16.0 7.4 16.0 7.6 16.0 7.8 15.95 8.05 15.95 8.2 15.9 8.4 15.85 8.5 15.8 8.6 15.8 8.65 15.8 8.7 L13.25 17.65 13.2 17.65 10.7 9.75 Q10.45 9.15 10.35 8.6 10.2 8.15 10.15 7.75 10.15 7.4 10.15 7.1 10.15 6.85 10.25 6.65 10.3 6.5 10.4 6.4 10.45 6.3 10.55 6.2 10.6 6.2 10.65 6.15 10.7 6.15 10.7 6.15 L10.7 5.25 6.45 5.25 6.45 6.15 Q6.55 6.2 6.65 6.4 6.75 6.55 6.9 6.75 7.0 6.95 7.1 7.2 7.25 7.45 7.35 7.7 7.45 7.9 7.55 8.15 7.65 8.35 7.75 8.55 7.8 8.7 7.85 8.8 7.85 8.85 7.9 8.9 L11.85 20.75 14.55 20.75 18.0 8.85 Q18.15 8.45 18.3 8.1 18.45 7.75 18.55 7.45 18.7 7.2 18.85 7.0 18.95 6.85 19.05 6.7 19.15 6.55 19.25 6.45 19.35 6.35 19.4 6.3 19.45 6.25 19.5 6.25 19.5 6.25 19.55 6.2 L19.55 5.25 15.35 5.25" fill="#f1edf8" fill-rule="evenodd" stroke="none"/>
  </g>
</svg>
