<?xml version="1.0" encoding="UTF-8" standalone="no"?>
<svg xmlns:ffdec="https://www.free-decompiler.com/flash" xmlns:xlink="http://www.w3.org/1999/xlink" ffdec:objectType="shape" height="26.0px" width="26.0px" xmlns="http://www.w3.org/2000/svg">
  <g transform="matrix(1.0, 0.0, 0.0, 1.0, 0.0, 0.0)">
    <path d="M19.6 7.4 Q19.6 7.25 19.65 7.1 19.65 6.95 19.7 6.85 19.75 6.75 19.85 6.65 19.9 6.55 19.95 6.5 20.05 6.45 20.1 6.4 20.15 6.35 20.2 6.3 20.25 6.3 20.3 6.3 20.3 6.25 20.3 6.25 L20.3 5.25 16.5 5.25 16.5 6.2 Q16.65 6.3 16.75 6.4 16.85 6.5 16.9 6.65 17.0 6.75 17.05 6.9 17.1 7.0 17.15 7.1 17.15 7.2 17.2 7.35 17.2 7.4 17.25 7.5 17.25 7.55 17.25 7.6 17.25 7.65 17.25 7.65 L17.2 16.75 9.65 6.85 9.65 6.85 9.0 7.2 9.15 7.4 8.4 7.05 8.8 6.75 8.9 6.9 9.25 6.65 9.25 6.5 9.35 6.5 9.55 5.3 9.55 5.25 8.85 5.25 5.7 5.25 5.7 6.2 Q5.85 6.25 5.95 6.35 6.05 6.45 6.1 6.55 6.2 6.7 6.25 6.8 6.3 6.9 6.35 7.05 6.35 7.15 6.4 7.25 6.4 7.35 6.4 7.4 6.45 7.5 6.45 7.55 6.45 7.55 6.45 7.6 L6.45 17.7 Q6.45 18.05 6.4 18.35 6.35 18.65 6.3 18.85 6.25 19.05 6.15 19.25 6.1 19.35 6.05 19.45 5.95 19.55 5.9 19.6 5.85 19.65 5.8 19.7 5.75 19.7 5.7 19.7 5.7 19.7 5.7 19.7 L5.7 20.75 9.65 20.75 9.65 19.75 Q9.5 19.7 9.4 19.55 9.3 19.45 9.2 19.3 9.15 19.15 9.1 18.95 9.05 18.8 9.0 18.65 9.0 18.45 8.95 18.3 8.95 18.15 8.95 18.0 8.95 17.9 8.95 17.8 8.95 17.8 8.95 17.75 L8.95 13.05 8.75 13.15 8.65 13.25 8.55 13.2 8.35 13.2 8.35 13.05 8.45 13.1 8.45 13.0 8.5 12.9 8.75 12.9 8.75 12.8 8.95 12.7 8.95 10.0 17.15 20.75 20.3 20.75 20.3 19.75 Q20.2 19.75 20.05 19.65 20.0 19.6 19.9 19.45 19.85 19.3 19.8 19.1 19.75 18.95 19.7 18.75 19.65 18.55 19.65 18.4 19.6 18.2 19.6 18.05 19.6 17.95 19.6 17.85 19.6 17.8 19.6 17.75 L19.6 10.25 19.6 7.4" fill="#f1edf8" fill-rule="evenodd" stroke="none"/>
  </g>
</svg>
