<?xml version="1.0" encoding="UTF-8" standalone="no"?>
<svg xmlns:ffdec="https://www.free-decompiler.com/flash" xmlns:xlink="http://www.w3.org/1999/xlink" ffdec:objectType="shape" height="26.0px" width="26.0px" xmlns="http://www.w3.org/2000/svg">
  <g transform="matrix(1.0, 0.0, 0.0, 1.0, 0.0, 0.0)">
    <path d="M19.85 6.3 L20.3 6.3 20.35 6.2 21.0 6.2 21.0 5.25 17.5 5.25 13.1 11.4 8.85 5.25 5.25 5.25 5.25 6.3 Q5.35 6.35 5.4 6.4 5.45 6.45 5.5 6.5 5.55 6.6 5.6 6.7 5.65 6.75 5.65 6.85 5.7 6.95 5.7 7.05 5.7 7.1 5.75 7.2 5.75 7.25 5.75 7.3 5.75 7.3 5.75 7.3 L5.75 18.1 Q5.75 18.35 5.7 18.55 5.7 18.75 5.65 18.95 5.6 19.1 5.5 19.25 5.45 19.35 5.4 19.45 5.3 19.55 5.25 19.6 5.2 19.65 5.15 19.7 5.1 19.7 5.05 19.75 5.05 19.75 5.0 19.75 L5.0 20.75 8.7 20.75 8.7 19.75 Q8.6 19.75 8.5 19.65 8.4 19.55 8.35 19.45 8.25 19.3 8.2 19.15 8.15 19.0 8.15 18.85 8.1 18.7 8.1 18.55 8.1 18.4 8.1 18.25 8.05 18.15 8.05 18.1 8.05 18.05 8.05 18.0 L8.05 17.2 Q8.05 17.2 8.0 17.25 7.9 17.3 7.9 17.3 7.8 17.35 7.75 17.4 7.7 17.4 7.65 17.4 7.65 17.4 7.6 17.35 7.6 17.35 7.6 17.3 7.6 17.3 7.6 17.25 7.6 17.25 7.6 17.2 7.6 17.2 7.6 17.2 7.6 17.2 7.6 17.2 L7.7 17.15 7.75 17.1 7.85 17.05 8.05 16.85 8.05 9.3 8.2 9.3 13.0 15.7 17.6 9.3 17.75 9.3 17.75 18.15 Q17.75 18.4 17.75 18.6 17.7 18.8 17.65 19.0 17.65 19.15 17.6 19.25 17.55 19.35 17.5 19.45 17.45 19.55 17.35 19.6 17.35 19.65 17.3 19.65 17.25 19.7 17.2 19.7 17.2 19.7 17.2 19.7 L17.2 20.75 21.0 20.75 21.0 19.7 Q20.9 19.65 20.8 19.6 20.75 19.5 20.7 19.4 20.6 19.25 20.6 19.15 20.55 19.0 20.5 18.85 20.45 18.75 20.45 18.6 20.45 18.5 20.4 18.4 20.4 18.3 20.4 18.25 20.4 18.2 20.4 18.2 L20.4 11.45 20.2 11.4 20.2 11.2 19.95 11.2 20.05 11.05 19.85 11.0 19.75 10.9 19.65 10.65 19.8 10.75 19.9 10.6 20.0 10.75 20.1 10.65 20.45 10.6 20.45 6.65 20.55 6.4 20.4 6.55 20.1 6.5 20.05 6.6 19.65 6.55 19.85 6.4 19.85 6.3 M15.25 12.15 L14.95 12.05 14.95 11.95 14.75 11.9 14.9 11.65 15.2 11.7 15.25 11.9 15.4 11.95 15.25 12.15" fill="#f1edf8" fill-rule="evenodd" stroke="none"/>
  </g>
</svg>
