<?xml version="1.0" encoding="UTF-8" standalone="no"?>
<svg xmlns:ffdec="https://www.free-decompiler.com/flash" xmlns:xlink="http://www.w3.org/1999/xlink" ffdec:objectType="shape" height="26.0px" width="26.0px" xmlns="http://www.w3.org/2000/svg">
  <g transform="matrix(1.0, 0.0, 0.0, 1.0, 0.0, 0.0)">
    <path d="M12.05 12.75 Q12.05 12.75 12.4 14.1 12.8 15.5 12.8 15.55 12.7 15.75 8.45 13.05 6.35 11.65 4.25 10.3 4.3 10.25 4.4 10.2 12.4 4.4 12.55 4.6 12.2 6.15 11.8 7.65 11.8 7.65 11.65 7.7 11.5 7.8 11.3 7.85 11.05 8.0 10.8 8.1 10.45 8.25 10.15 8.4 9.75 8.6 9.4 8.8 9.05 9.05 8.7 9.25 8.35 9.5 8.05 9.75 7.7 10.0 7.45 10.25 7.75 10.5 8.15 10.75 8.45 10.95 8.85 11.2 9.25 11.4 9.65 11.65 10.0 11.8 10.35 12.0 10.7 12.15 11.0 12.3 11.3 12.45 11.55 12.55 11.75 12.65 11.9 12.7 11.95 12.75 12.05 12.75 L12.05 12.75" fill="#f1edf8" fill-rule="evenodd" stroke="none"/>
  </g>
</svg>
