<?xml version="1.0" encoding="UTF-8" standalone="no"?>
<svg xmlns:ffdec="https://www.free-decompiler.com/flash" xmlns:xlink="http://www.w3.org/1999/xlink" ffdec:objectType="shape" height="26.0px" width="26.0px" xmlns="http://www.w3.org/2000/svg">
  <g transform="matrix(1.0, 0.0, 0.0, 1.0, 0.0, 0.0)">
    <path d="M20.4 15.05 L19.0 15.9 19.15 17.55 Q19.15 17.55 19.2 17.6 19.3 17.6 19.4 17.7 19.5 17.75 19.6 17.9 19.7 18.05 19.75 18.25 19.85 18.45 19.85 18.75 19.85 19.05 19.8 19.4 19.7 19.85 19.55 20.3 19.35 20.85 19.0 21.45 19.0 21.45 19.05 21.4 19.15 21.35 19.2 21.3 19.3 21.2 19.35 21.1 19.5 21.0 19.6 20.9 19.75 20.8 19.85 20.65 19.95 20.5 20.1 20.4 20.2 20.25 20.3 20.1 20.4 19.95 20.45 19.8 20.45 19.8 20.5 19.75 20.55 19.65 20.65 19.5 20.75 19.35 20.85 19.2 21.0 19.0 21.1 18.8 21.25 18.6 21.35 18.4 21.45 18.15 21.55 17.95 21.65 17.7 21.7 17.55 21.75 17.3 21.75 17.15 21.75 16.9 21.7 16.65 21.65 16.4 21.55 16.2 21.45 16.0 21.35 15.85 21.2 15.7 21.1 15.55 20.95 15.45 20.85 15.35 20.75 15.25 20.6 15.15 20.55 15.1 20.45 15.1 20.45 15.05 20.4 15.05 L20.4 15.05" fill="#f1edf8" fill-rule="evenodd" stroke="none"/>
  </g>
</svg>
