<?xml version="1.0" encoding="UTF-8" standalone="no"?>
<svg xmlns:ffdec="https://www.free-decompiler.com/flash" xmlns:xlink="http://www.w3.org/1999/xlink" ffdec:objectType="shape" height="26.0px" width="26.0px" xmlns="http://www.w3.org/2000/svg">
  <g transform="matrix(1.0, 0.0, 0.0, 1.0, 0.0, 0.0)">
    <path d="M5.0 12.75 Q5.0 12.75 4.6 14.1 4.25 15.5 4.25 15.55 4.35 15.75 8.55 13.05 10.7 11.65 12.8 10.3 12.7 10.25 12.6 10.2 4.7 4.25 4.5 4.6 4.5 4.6 4.85 6.15 5.05 6.9 5.25 7.65 5.25 7.65 5.4 7.7 5.6 7.8 5.75 7.85 6.0 8.0 6.25 8.1 6.6 8.25 6.9 8.4 7.3 8.6 7.6 8.8 8.0 9.05 8.35 9.25 8.7 9.5 9.0 9.75 9.35 10.0 9.55 10.25 9.25 10.5 8.9 10.75 8.55 10.95 8.15 11.2 7.8 11.4 7.4 11.65 7.05 11.8 6.65 12.0 6.35 12.15 6.0 12.3 5.75 12.45 5.5 12.55 5.3 12.65 5.15 12.7 5.05 12.75 5.0 12.75 L5.0 12.75" fill="#f1edf8" fill-rule="evenodd" stroke="none"/>
  </g>
</svg>
