<?xml version="1.0" encoding="UTF-8" standalone="no"?>
<svg xmlns:ffdec="https://www.free-decompiler.com/flash" xmlns:xlink="http://www.w3.org/1999/xlink" ffdec:objectType="shape" height="26.0px" width="26.0px" xmlns="http://www.w3.org/2000/svg">
  <g transform="matrix(1.0, 0.0, 0.0, 1.0, 0.0, 0.0)">
    <path d="M13.8 10.45 Q13.7 10.8 13.7 11.1 13.7 11.4 13.8 11.65 13.9 11.85 14.05 12.05 14.2 12.2 14.4 12.35 14.55 12.5 14.75 12.6 14.9 12.65 15.05 12.7 15.15 12.75 15.25 12.75 15.3 12.8 15.3 12.75 15.25 12.7 15.2 12.65 15.2 12.6 15.15 12.55 15.15 12.5 15.15 12.4 15.15 12.35 15.15 12.3 15.15 12.2 15.15 12.15 15.2 12.1 15.2 12.05 15.2 12.0 15.2 11.95 15.2 11.95 15.25 11.95 15.35 11.55 15.5 11.2 15.65 10.9 15.8 10.6 16.0 10.4 16.15 10.2 16.35 10.05 16.5 9.95 16.7 9.85 16.85 9.75 17.0 9.7 17.15 9.7 17.2 9.65 17.3 9.65 17.35 9.65 17.4 9.65 17.6 9.65 17.75 9.65 17.9 9.65 18.05 9.7 18.15 9.7 18.3 9.75 18.4 9.75 18.5 9.8 18.6 9.85 18.7 9.9 18.75 9.95 18.85 10.0 18.9 10.1 19.0 10.15 19.05 10.2 19.15 10.3 19.25 10.4 19.35 10.6 19.45 10.7 19.55 10.9 19.6 11.05 19.65 11.25 19.65 11.4 19.7 11.6 19.7 11.75 19.7 11.95 19.7 12.1 19.7 12.3 19.65 12.45 19.65 12.65 19.6 12.8 19.55 12.95 19.5 13.1 19.45 13.25 19.4 13.4 19.3 13.55 19.25 13.65 19.2 13.8 19.1 13.9 19.05 14.05 18.95 14.15 18.9 14.25 18.85 14.3 18.75 14.45 18.65 14.55 18.65 14.6 18.55 14.7 18.5 14.8 18.25 15.2 17.3 16.3 17.2 16.4 15.6 18.0 13.85 19.75 13.45 20.2 L13.45 21.7 21.0 21.7 21.55 18.6 20.2 18.6 Q20.15 18.7 20.1 18.85 20.05 18.95 20.0 19.05 19.95 19.15 19.9 19.2 19.85 19.3 19.8 19.35 19.75 19.45 19.7 19.5 19.65 19.55 19.6 19.6 19.55 19.65 19.5 19.7 19.45 19.75 19.4 19.8 19.35 19.85 19.3 19.85 19.2 19.9 19.15 19.95 19.05 19.95 18.95 20.0 18.85 20.0 18.75 20.05 18.65 20.05 18.55 20.05 18.45 20.05 18.35 20.1 18.25 20.1 18.1 20.1 18.0 20.1 17.9 20.1 L16.5 20.1 Q16.75 19.8 17.45 19.05 L19.45 16.75 Q19.45 16.7 19.6 16.6 19.75 16.4 19.85 16.3 20.0 16.1 20.15 15.9 20.3 15.65 20.5 15.4 20.65 15.15 20.8 14.9 21.0 14.6 21.15 14.3 21.3 14.0 21.4 13.75 21.5 13.45 21.55 13.15 21.6 12.95 21.6 12.7 21.65 12.45 21.65 12.2 21.65 11.95 21.6 11.65 21.6 11.35 21.55 11.1 21.5 10.8 21.45 10.5 21.35 10.2 21.25 9.95 21.1 9.7 20.95 9.45 20.8 9.2 20.6 9.0 20.45 8.85 20.3 8.75 20.1 8.6 19.95 8.5 19.75 8.4 19.6 8.3 19.4 8.2 19.2 8.15 19.0 8.05 18.8 8.0 18.6 7.9 18.4 7.9 18.15 7.85 17.95 7.8 17.75 7.8 17.55 7.8 17.15 7.8 16.8 7.85 16.45 7.9 16.1 8.0 15.8 8.1 15.55 8.2 15.25 8.35 15.05 8.55 14.8 8.7 14.65 8.9 14.45 9.1 14.3 9.35 14.15 9.6 14.0 9.9 13.9 10.15 13.8 10.45 L13.8 10.45" fill="#f1edf8" fill-rule="evenodd" stroke="none"/>
  </g>
</svg>
