<?xml version="1.0" encoding="UTF-8" standalone="no"?>
<svg xmlns:ffdec="https://www.free-decompiler.com/flash" xmlns:xlink="http://www.w3.org/1999/xlink" ffdec:objectType="shape" height="26.0px" width="26.0px" xmlns="http://www.w3.org/2000/svg">
  <g transform="matrix(1.0, 0.0, 0.0, 1.0, 0.0, 0.0)">
    <path d="M6.55 14.2 L5.85 15.3 6.55 16.45 7.75 16.45 8.4 15.35 7.75 14.2 6.55 14.2 M8.4 4.3 L7.35 4.3 Q7.4 4.25 6.4 4.75 5.5 5.15 5.5 5.2 5.75 6.4 6.0 7.6 6.0 7.6 6.0 7.55 6.05 7.45 6.1 7.3 6.2 7.2 6.25 7.05 6.35 6.85 6.5 6.7 6.65 6.5 6.8 6.35 6.95 6.2 7.15 6.1 7.4 5.95 7.6 5.85 7.85 5.8 8.15 5.8 8.15 5.8 8.2 5.8 8.25 5.8 8.35 5.8 8.45 5.85 8.55 5.85 8.7 5.9 8.8 5.95 8.95 6.0 9.05 6.1 9.2 6.25 9.3 6.35 9.4 6.55 9.45 6.7 9.5 6.95 9.55 7.2 9.55 7.2 9.55 7.25 9.55 7.35 9.55 7.4 9.55 7.5 9.5 7.65 9.5 7.75 9.4 7.9 9.35 8.05 9.2 8.15 9.1 8.3 8.9 8.45 8.65 8.55 8.4 8.65 8.1 8.75 7.7 8.8 7.7 8.8 7.6 8.8 7.5 8.85 7.35 8.9 7.2 8.95 7.05 9.05 6.85 9.2 6.7 9.4 6.5 9.6 6.4 9.9 6.3 10.2 6.25 10.6 6.2 11.05 6.3 11.6 6.35 12.2 6.6 12.9 6.6 12.9 6.6 12.95 6.6 12.95 6.6 13.0 6.65 13.05 6.65 13.1 6.7 13.15 6.75 13.15 6.8 13.2 6.9 13.25 7.0 13.25 7.1 13.3 7.2 13.3 7.35 13.3 7.5 13.25 7.7 13.2 7.7 13.2 7.7 13.1 7.7 12.95 7.7 12.8 7.7 12.55 7.7 12.35 7.75 12.1 7.75 11.85 7.8 11.55 7.85 11.3 7.95 11.05 8.05 10.85 8.15 10.6 8.25 10.45 8.4 10.3 8.6 10.25 8.9 10.15 9.15 10.05 9.4 9.95 9.65 9.8 9.9 9.65 10.15 9.5 10.35 9.35 10.55 9.15 10.75 8.95 10.9 8.7 11.05 8.5 11.15 8.2 11.2 7.95 11.25 7.65 11.3 7.35 11.25 7.0 11.25 7.0 11.25 6.9 11.2 6.75 11.2 6.6 11.1 6.35 11.05 6.15 10.95 5.9 10.8 5.65 10.65 5.4 10.45 5.2 10.25 4.9 9.95 4.75 9.65 4.55 9.25 4.45 8.85 4.3 8.4 4.3 L8.4 4.3" fill="#f1edf8" fill-rule="evenodd" stroke="none"/>
  </g>
</svg>
