<?xml version="1.0" encoding="UTF-8" standalone="no"?>
<svg xmlns:ffdec="https://www.free-decompiler.com/flash" xmlns:xlink="http://www.w3.org/1999/xlink" ffdec:objectType="shape" height="26.0px" width="26.0px" xmlns="http://www.w3.org/2000/svg">
  <g transform="matrix(1.0, 0.0, 0.0, 1.0, 0.0, 0.0)">
    <path d="M14.05 20.25 Q14.05 20.25 12.85 20.95 11.7 21.7 11.65 21.7 11.35 21.65 14.3 14.9 15.75 11.55 17.25 8.15 17.55 8.0 17.9 7.8 18.2 7.6 18.6 7.45 18.9 7.3 19.3 7.1 19.6 6.95 19.95 6.8 20.25 6.7 20.55 6.55 20.8 6.45 21.05 6.35 21.25 6.3 21.4 6.25 21.45 6.25 21.5 6.2 20.95 6.65 20.25 7.55 19.7 8.35 19.0 9.5 18.4 10.5 17.75 11.75 17.2 12.9 16.6 14.2 16.1 15.3 15.6 16.45 15.2 17.45 14.8 18.4 14.5 19.1 14.25 19.75 14.15 20.0 14.05 20.25 L14.05 20.25" fill="#f1edf8" fill-rule="evenodd" stroke="none"/>
  </g>
</svg>
