<?xml version="1.0" encoding="UTF-8" standalone="no"?>
<svg xmlns:ffdec="https://www.free-decompiler.com/flash" xmlns:xlink="http://www.w3.org/1999/xlink" ffdec:objectType="shape" height="26.0px" width="35.75px" xmlns="http://www.w3.org/2000/svg">
  <g transform="matrix(1.0, 0.0, 0.0, 1.0, 0.0, 0.0)">
    <path d="M12.4 16.4 Q12.4 16.4 12.35 16.4 12.25 16.45 12.15 16.5 12.0 16.5 11.85 16.55 11.7 16.6 11.5 16.65 11.3 16.7 11.1 16.7 10.85 16.75 10.6 16.8 10.35 16.8 10.1 16.85 9.85 16.85 9.6 16.85 9.4 16.85 9.25 16.8 9.1 16.7 9.0 16.6 8.85 16.45 8.8 16.3 8.7 16.15 8.65 16.0 8.6 15.85 8.6 15.7 8.55 15.55 8.55 15.4 8.55 15.3 8.55 15.2 8.55 15.15 8.55 15.15 L8.55 11.2 8.45 11.25 8.35 11.35 8.3 11.3 8.2 11.3 8.2 11.2 8.25 11.25 8.25 11.2 8.3 11.1 8.45 11.1 8.45 11.05 8.6 11.0 8.6 9.55 Q8.6 9.4 8.6 9.3 8.6 9.15 8.65 9.05 8.65 9.0 8.7 8.9 8.75 8.85 8.75 8.8 8.8 8.75 8.8 8.7 8.85 8.65 8.9 8.65 8.9 8.65 8.9 8.6 8.95 8.6 8.95 8.6 L8.95 7.95 6.6 7.95 6.6 8.55 Q6.65 8.6 6.75 8.65 6.8 8.7 6.85 8.8 6.85 8.85 6.9 8.95 6.9 9.0 6.95 9.1 6.95 9.15 6.95 9.25 6.95 9.3 6.95 9.35 7.0 9.4 6.95 9.45 6.95 9.45 6.95 9.45 L6.95 15.0 Q6.95 15.3 6.95 15.6 6.9 15.85 6.9 16.05 6.85 16.25 6.8 16.4 6.8 16.55 6.75 16.7 6.7 16.8 6.65 16.9 6.6 16.95 6.6 17.0 6.55 17.05 6.55 17.05 6.55 17.1 6.5 17.1 L6.5 18.1 9.2 18.1 9.2 18.05 11.7 18.1 Q11.7 18.05 13.0 18.1 L13.0 16.4 12.4 16.4" fill="#f1edf8" fill-rule="evenodd" stroke="none"/>
    <path d="M22.05 16.6 L21.75 16.1 17.75 7.9 13.45 16.95 Q13.4 17.05 13.35 17.1 13.3 17.2 13.3 17.25 13.25 17.35 13.2 17.4 13.15 17.45 13.15 17.45 L13.15 18.05 14.9 18.05 15.25 18.05 15.25 17.5 Q15.25 17.5 15.25 17.5 15.25 17.5 15.2 17.5 15.2 17.45 15.2 17.45 15.2 17.45 15.2 17.4 15.15 17.4 15.15 17.35 15.15 17.3 15.15 17.3 15.15 17.25 15.15 17.15 15.2 17.1 15.2 17.05 L15.8 15.8 18.45 15.7 Q18.45 15.7 18.5 15.7 18.5 15.7 18.55 15.7 18.6 15.7 18.7 15.7 18.75 15.7 18.85 15.7 18.95 15.7 19.05 15.7 19.15 15.7 19.25 15.7 19.35 15.7 19.45 15.65 19.55 15.65 19.65 15.6 L20.15 16.3 Q20.25 16.4 20.35 16.55 20.4 16.65 20.45 16.75 20.5 16.85 20.5 16.95 20.5 17.05 20.5 17.15 20.5 17.2 20.5 17.3 20.5 17.35 20.5 17.4 20.5 17.4 20.45 17.45 20.45 17.45 20.45 17.5 L20.45 18.05 20.85 18.05 22.55 18.05 22.55 17.45 Q22.45 17.4 22.05 16.6 L22.05 16.6 M19.45 14.2 L18.95 14.2 18.85 14.4 18.55 14.15 Q18.35 14.15 18.25 14.15 18.1 14.1 17.65 14.1 17.65 14.1 17.65 14.1 17.6 14.15 17.6 14.15 17.55 14.2 17.45 14.25 17.4 14.3 17.35 14.35 17.25 14.4 17.15 14.45 17.0 14.5 16.9 14.55 16.75 14.6 16.6 14.65 16.45 14.65 16.3 14.7 L17.2 12.45 17.2 12.3 17.1 12.2 17.1 12.15 17.05 12.1 Q17.05 12.05 17.1 12.0 17.1 12.0 17.15 12.0 17.15 12.0 17.15 12.0 17.2 12.0 17.2 12.05 17.25 12.1 17.2 12.1 17.25 12.1 17.25 12.15 17.25 12.15 17.3 12.15 17.3 12.2 17.35 12.2 L17.8 11.05 19.05 13.9 19.25 13.9 19.25 14.05 19.2 14.45 19.5 14.0 Q19.5 14.0 19.5 14.0 19.45 14.0 19.45 14.0 19.45 14.05 19.45 14.05 19.45 14.05 19.45 14.1 19.5 14.1 19.55 14.15 L19.45 14.2" fill="#f1edf8" fill-rule="evenodd" stroke="none"/>
    <path d="M24.55 16.2 L24.55 11.0 24.5 11.05 24.45 11.15 24.35 11.1 24.3 11.1 24.3 11.0 24.35 11.05 24.35 11.0 24.35 10.9 24.45 10.9 24.5 10.85 24.55 10.75 24.55 8.85 Q24.55 8.75 24.55 8.65 24.6 8.55 24.6 8.45 24.65 8.4 24.65 8.3 24.7 8.25 24.75 8.2 24.75 8.15 24.8 8.1 24.8 8.05 24.85 8.0 24.85 8.0 24.9 7.95 24.9 7.95 24.9 7.95 L24.55 7.95 22.9 8.4 Q23.05 8.85 23.2 9.3 L23.2 15.5 23.2 16.2 Q23.2 16.4 23.15 16.6 23.15 16.75 23.15 16.9 23.1 17.05 23.05 17.1 23.05 17.2 23.0 17.25 22.95 17.3 22.95 17.35 22.9 17.4 22.9 17.4 22.85 17.4 22.85 17.4 22.85 17.4 22.85 17.4 L22.85 18.05 24.9 18.05 24.9 17.4 Q24.85 17.4 24.8 17.35 24.75 17.3 24.7 17.2 24.7 17.15 24.65 17.05 24.65 16.95 24.6 16.8 24.6 16.7 24.6 16.6 24.55 16.5 24.55 16.4 24.55 16.35 24.55 16.25 24.55 16.25 24.55 16.2 L24.55 16.2" fill="#f1edf8" fill-rule="evenodd" stroke="none"/>
    <path d="M29.2 11.65 L29.2 11.65 Q29.2 11.65 29.2 11.65 L29.2 11.65 Q34.15 12.0 27.6 11.65 27.6 11.7 27.45 11.75 L27.45 10.75 27.05 10.25 Q27.05 10.3 27.0 10.4 27.0 10.5 26.9 10.55 26.85 10.6 26.8 10.7 26.75 10.75 26.65 10.8 26.6 10.9 26.5 10.95 26.45 10.95 26.4 11.0 26.35 11.05 26.3 11.05 26.3 11.1 26.25 11.1 L26.25 11.8 25.15 11.8 24.75 12.35 24.75 12.7 26.0 12.7 26.3 12.7 26.3 15.4 26.3 16.1 Q26.3 16.35 26.3 16.6 26.25 16.8 26.25 16.95 26.2 17.1 26.15 17.2 26.15 17.35 26.1 17.4 26.05 17.5 26.0 17.5 26.0 17.55 25.95 17.6 25.95 17.6 25.9 17.6 25.9 17.6 25.9 17.6 L25.9 18.1 27.75 18.1 27.75 17.6 Q27.7 17.6 27.65 17.55 27.6 17.5 27.6 17.35 27.55 17.25 27.55 17.15 27.5 17.0 27.5 16.85 27.45 16.75 27.45 16.6 27.45 16.5 27.4 16.35 27.4 16.25 27.4 16.2 27.4 16.15 27.4 16.1 L27.4 12.7 28.15 12.7 Q28.15 12.7 28.2 12.7 28.15 12.7 28.25 12.7 28.3 12.65 28.35 12.65 28.45 12.65 28.5 12.6 28.6 12.6 28.65 12.6 28.7 12.55 28.8 12.5 28.85 12.45 28.9 12.4 28.95 12.35 29.0 12.3 L29.25 11.65 29.2 11.65" fill="#f1edf8" fill-rule="evenodd" stroke="none"/>
  </g>
</svg>
