<?xml version="1.0" encoding="UTF-8" standalone="no"?>
<svg xmlns:ffdec="https://www.free-decompiler.com/flash" xmlns:xlink="http://www.w3.org/1999/xlink" ffdec:objectType="shape" height="26.0px" width="26.0px" xmlns="http://www.w3.org/2000/svg">
  <g transform="matrix(1.0, 0.0, 0.0, 1.0, 0.0, 0.0)">
    <path d="M13.6 12.15 L13.7 11.8 12.75 11.65 Q12.75 11.65 12.75 11.7 12.75 11.7 12.75 11.75 12.7 11.8 12.65 11.8 12.6 11.85 12.5 11.9 12.4 11.9 12.2 11.95 12.0 11.95 11.75 11.95 11.45 11.95 11.05 11.9 10.65 11.85 10.15 11.8 10.15 11.8 10.15 11.8 10.1 11.8 10.1 11.85 10.05 11.85 10.0 11.9 9.95 11.9 9.9 11.95 9.8 11.95 9.75 12.0 9.65 12.0 9.55 12.05 9.45 12.05 9.3 12.05 9.2 12.1 9.05 12.1 L9.05 11.05 8.9 11.1 8.8 11.25 8.65 11.15 8.65 11.15 8.65 11.05 8.7 11.1 8.6 11.0 8.65 10.95 8.85 10.95 8.9 10.85 9.1 10.75 9.1 8.6 Q9.1 8.4 9.15 8.3 9.25 8.15 9.35 8.05 9.45 7.95 9.6 7.85 9.75 7.8 9.95 7.75 10.1 7.7 10.25 7.7 10.4 7.65 10.5 7.65 10.6 7.65 10.7 7.65 10.75 7.65 10.8 7.65 L12.0 7.65 Q12.0 7.65 12.05 7.65 12.15 7.65 12.25 7.65 12.35 7.65 12.5 7.7 12.65 7.7 12.75 7.75 12.95 7.75 13.05 7.8 13.25 7.85 13.35 7.95 13.5 8.05 13.6 8.15 13.7 8.25 13.75 8.4 L14.35 8.4 14.35 6.15 9.45 6.15 7.05 6.15 6.15 6.15 6.15 7.25 Q6.3 7.25 6.45 7.35 6.55 7.4 6.65 7.5 6.75 7.55 6.85 7.7 6.9 7.8 6.95 7.9 7.0 8.0 7.0 8.1 7.05 8.2 7.05 8.3 7.05 8.35 7.05 8.45 7.05 8.45 7.05 8.5 L7.05 16.9 Q7.05 17.2 7.0 17.45 7.0 17.7 6.95 17.9 6.9 18.05 6.85 18.2 6.8 18.3 6.75 18.4 6.7 18.45 6.65 18.5 6.6 18.55 6.55 18.55 6.5 18.6 6.5 18.6 6.5 18.6 6.45 18.6 L6.45 19.7 9.65 19.7 9.65 18.6 Q9.55 18.55 9.45 18.5 9.35 18.4 9.3 18.25 9.25 18.15 9.2 18.0 9.15 17.85 9.1 17.7 9.1 17.55 9.1 17.4 9.05 17.3 9.05 17.2 9.05 17.1 9.05 17.0 9.05 17.0 9.05 16.95 L9.05 13.3 11.45 13.25 Q11.45 13.25 11.55 13.25 11.65 13.25 11.75 13.25 11.9 13.2 12.05 13.2 12.25 13.15 12.45 13.1 12.65 13.05 12.8 12.95 13.0 12.9 13.15 12.8 13.35 12.65 13.45 12.5 13.55 12.35 13.6 12.15 L13.6 12.15" fill="#f1edf8" fill-rule="evenodd" stroke="none"/>
    <path d="M15.8 7.2 Q15.6 7.2 15.45 7.25 15.35 7.3 15.3 7.45 15.25 7.55 15.25 7.7 15.2 7.8 15.25 7.95 15.25 8.1 15.3 8.25 15.35 8.4 15.4 8.5 15.45 8.6 15.5 8.7 15.5 8.7 15.55 8.75 15.55 8.65 15.55 8.6 15.6 8.55 15.65 8.5 15.7 8.45 15.75 8.4 15.8 8.35 15.9 8.35 15.95 8.35 16.0 8.3 16.05 8.3 16.15 8.3 16.15 8.3 16.2 8.3 16.25 8.3 16.25 8.3 16.4 8.3 16.5 8.3 16.6 8.35 16.65 8.4 16.75 8.45 16.8 8.5 16.85 8.6 16.9 8.7 16.95 8.8 16.95 8.95 17.0 9.05 17.0 9.25 17.0 9.35 17.0 9.55 17.05 9.75 17.05 9.95 L17.05 16.0 Q17.05 16.2 17.05 16.4 17.0 16.6 17.0 16.8 16.95 17.0 16.95 17.2 16.9 17.4 16.85 17.55 16.8 17.75 16.75 17.85 16.65 18.0 16.6 18.1 16.5 18.2 16.45 18.25 16.35 18.3 16.25 18.3 L15.95 18.3 15.95 19.7 19.85 19.7 19.85 18.3 19.55 18.3 Q19.45 18.3 19.4 18.25 19.3 18.2 19.25 18.1 19.15 18.0 19.1 17.85 19.05 17.75 19.0 17.55 18.95 17.4 18.9 17.2 18.85 17.0 18.85 16.8 18.8 16.6 18.8 16.4 18.8 16.2 18.8 16.0 L18.8 6.15 18.15 6.15 Q18.3 6.05 17.85 6.4 17.65 6.5 17.55 6.6 17.4 6.7 17.3 6.8 17.15 6.85 17.05 6.9 16.9 7.0 16.8 7.05 16.65 7.1 16.55 7.1 16.4 7.15 16.2 7.15 16.05 7.2 15.85 7.2 L15.8 7.2" fill="#f1edf8" fill-rule="evenodd" stroke="none"/>
  </g>
</svg>
