<?xml version="1.0" encoding="UTF-8" standalone="no"?>
<svg xmlns:ffdec="https://www.free-decompiler.com/flash" xmlns:xlink="http://www.w3.org/1999/xlink" ffdec:objectType="shape" height="26.0px" width="26.0px" xmlns="http://www.w3.org/2000/svg">
  <g transform="matrix(1.0, 0.0, 0.0, 1.0, 0.0, 0.0)">
    <path d="M10.65 5.5 Q10.65 5.5 10.65 5.5 10.7 5.5 10.6 5.5 10.55 5.5 10.55 5.5 10.5 5.5 10.45 5.55 10.4 5.55 10.4 5.6 10.35 5.6 10.3 5.65 10.25 5.7 10.25 5.75 10.2 5.85 10.2 5.95 L9.95 7.55 Q8.85 7.55 8.1 7.55 L8.4 6.15 8.4 6.05 Q8.55 5.75 8.75 5.4 L7.7 5.5 Q7.7 5.5 7.7 5.5 7.4 5.5 7.65 5.5 7.6 5.5 7.55 5.5 7.5 5.5 7.5 5.55 7.45 5.55 7.4 5.6 7.35 5.6 7.35 5.65 7.3 5.7 7.25 5.75 7.25 5.85 7.25 5.95 L6.95 7.55 Q5.25 7.65 5.3 7.7 5.45 8.15 5.55 8.65 5.6 8.6 6.75 8.6 L6.5 10.4 Q5.25 10.45 5.3 10.5 5.45 11.0 5.55 11.45 5.55 11.45 6.3 11.45 L6.05 13.15 Q6.0 13.35 5.95 13.55 L6.4 13.5 Q6.45 13.5 6.5 13.5 6.55 13.5 6.6 13.5 6.65 13.45 6.65 13.45 6.7 13.45 6.75 13.4 6.8 13.4 6.8 13.35 6.85 13.3 6.85 13.3 6.9 13.25 6.9 13.2 6.95 13.15 6.95 13.1 L7.3 11.4 Q7.9 11.35 9.3 11.35 L9.0 13.15 Q8.95 13.35 8.9 13.55 L9.55 13.5 Q9.6 13.5 9.65 13.5 9.65 13.5 9.7 13.5 9.75 13.45 9.75 13.45 9.8 13.45 9.8 13.4 9.8 13.4 9.85 13.35 9.85 13.3 9.85 13.3 9.9 13.25 9.9 13.2 9.9 13.15 9.9 13.1 L10.3 11.4 Q10.45 11.4 10.6 11.4 10.7 11.4 10.85 11.4 10.95 11.4 11.05 11.4 11.2 11.45 11.3 11.45 11.4 11.45 11.5 11.45 11.6 11.45 11.65 11.5 11.75 11.5 11.85 11.5 11.9 11.55 12.0 11.55 12.0 11.55 12.0 11.5 12.0 11.5 12.05 11.4 12.05 11.35 12.05 11.3 12.1 11.2 12.1 11.1 12.1 11.0 12.1 10.9 12.1 10.8 12.1 10.75 12.1 10.65 12.1 10.55 12.05 10.45 12.0 10.4 12.15 10.4 10.5 10.4 L10.85 8.55 Q12.05 8.65 12.25 8.7 12.25 8.7 12.25 8.65 12.25 8.65 12.3 8.6 12.3 8.5 12.3 8.45 12.3 8.35 12.3 8.3 12.3 8.2 12.3 8.1 12.3 8.0 12.3 7.9 12.25 7.8 12.25 7.75 12.2 7.65 12.15 7.55 12.2 7.6 11.1 7.55 L11.4 6.15 11.4 6.05 Q11.55 5.75 11.7 5.4 L10.65 5.5 M7.85 8.55 Q9.3 8.55 9.75 8.55 L9.5 10.4 Q9.4 10.4 9.25 10.4 9.15 10.4 9.0 10.4 8.9 10.4 8.75 10.4 8.65 10.4 8.5 10.4 8.4 10.4 8.25 10.4 8.15 10.4 8.0 10.4 7.9 10.4 7.8 10.4 7.65 10.4 7.55 10.4 L7.85 8.55" fill="#f1edf8" fill-rule="evenodd" stroke="none"/>
  </g>
</svg>
