<?xml version="1.0" encoding="UTF-8" standalone="no"?>
<svg xmlns:ffdec="https://www.free-decompiler.com/flash" xmlns:xlink="http://www.w3.org/1999/xlink" ffdec:objectType="shape" height="26.0px" width="26.0px" xmlns="http://www.w3.org/2000/svg">
  <g transform="matrix(1.0, 0.0, 0.0, 1.0, 0.0, 0.0)">
    <path d="M12.45 12.2 L12.5 11.9 11.6 11.75 Q11.6 11.75 11.6 11.75 11.6 11.8 11.55 11.8 11.55 11.85 11.5 11.9 11.45 11.9 11.35 11.95 11.2 11.95 11.05 12.0 10.8 12.0 10.55 12.0 10.25 12.0 9.9 11.95 9.45 11.9 8.95 11.85 8.95 11.85 8.95 11.85 8.9 11.9 8.9 11.9 8.85 11.9 8.8 11.95 8.75 11.95 8.7 12.0 8.65 12.0 8.55 12.05 8.45 12.05 8.35 12.1 8.25 12.1 8.1 12.15 8.0 12.15 7.85 12.15 L7.85 11.1 7.7 11.15 7.6 11.3 7.45 11.2 7.45 11.2 7.45 11.1 7.5 11.15 7.4 11.05 7.45 11.0 7.65 11.0 7.7 10.9 7.9 10.8 7.9 8.65 Q7.9 8.45 7.95 8.3 8.05 8.2 8.15 8.1 8.25 8.0 8.45 7.9 8.55 7.85 8.75 7.8 8.9 7.75 9.05 7.7 9.2 7.7 9.35 7.7 9.45 7.7 9.55 7.7 9.55 7.7 9.6 7.7 L10.8 7.7 Q10.8 7.7 10.85 7.7 10.95 7.7 11.05 7.7 11.15 7.7 11.3 7.7 11.45 7.75 11.6 7.75 11.75 7.8 11.9 7.85 12.05 7.9 12.2 8.0 12.3 8.05 12.4 8.15 12.5 8.3 12.55 8.4 L13.2 8.4 13.2 6.15 8.25 6.15 5.85 6.15 4.95 6.15 4.95 7.25 Q5.1 7.25 5.25 7.35 5.35 7.4 5.45 7.5 5.55 7.6 5.6 7.7 5.7 7.8 5.75 7.95 5.75 8.05 5.8 8.15 5.8 8.25 5.85 8.35 5.85 8.4 5.85 8.45 5.85 8.5 5.85 8.5 L5.85 17.0 Q5.85 17.3 5.8 17.55 5.8 17.8 5.75 18.0 5.7 18.15 5.65 18.3 5.6 18.4 5.55 18.5 5.5 18.55 5.45 18.6 5.4 18.65 5.35 18.65 5.3 18.7 5.3 18.7 5.25 18.7 5.25 18.7 L5.25 19.85 8.45 19.85 8.45 18.7 Q8.35 18.65 8.25 18.6 8.15 18.5 8.1 18.35 8.05 18.25 8.0 18.1 7.95 17.95 7.9 17.8 7.9 17.65 7.9 17.5 7.85 17.4 7.85 17.25 7.85 17.2 7.85 17.1 7.85 17.05 7.85 17.05 L7.85 13.4 10.25 13.3 Q10.25 13.3 10.35 13.3 10.45 13.3 10.55 13.3 10.7 13.25 10.9 13.25 11.05 13.2 11.25 13.15 11.45 13.1 11.65 13.05 11.85 12.95 12.0 12.85 12.15 12.7 12.25 12.55 12.4 12.4 12.45 12.2 L12.45 12.2" fill="#f1edf8" fill-rule="evenodd" stroke="none"/>
    <path d="M20.9 13.95 Q20.85 13.6 20.7 13.25 20.5 12.9 20.3 12.55 20.05 12.2 19.75 11.9 19.4 11.6 19.05 11.4 18.6 11.15 18.2 11.05 17.7 10.95 17.2 11.0 16.65 11.05 16.1 11.25 15.5 11.5 14.85 11.9 14.85 11.9 14.85 11.8 14.85 11.65 14.9 11.5 14.95 11.3 14.95 11.1 15.05 10.85 15.1 10.6 15.2 10.3 15.3 10.05 15.45 9.75 15.6 9.55 15.75 9.25 16.0 9.05 16.2 8.85 16.5 8.7 17.0 8.45 17.45 8.35 17.85 8.25 18.25 8.3 18.55 8.35 18.9 8.45 19.15 8.6 19.4 8.75 19.6 8.9 19.75 9.15 19.9 9.3 20.05 9.5 20.1 9.6 20.2 9.75 20.2 9.8 20.25 9.85 20.25 9.85 20.3 9.7 20.4 9.5 20.45 9.3 20.5 9.05 20.55 8.75 20.55 8.4 20.55 8.1 20.5 7.75 20.35 7.5 20.2 7.15 19.9 6.9 19.6 6.65 19.1 6.55 18.6 6.35 17.85 6.35 17.5 6.35 17.55 6.35 17.35 6.35 17.1 6.4 16.8 6.45 16.55 6.55 16.2 6.65 15.85 6.8 15.5 6.95 15.15 7.2 14.8 7.5 14.45 7.85 14.1 8.25 13.85 8.8 13.55 9.35 13.35 10.0 13.15 10.65 13.0 11.35 12.85 12.1 12.75 12.85 12.65 13.7 12.6 14.5 12.6 15.35 12.7 16.1 12.85 16.9 13.1 17.55 13.4 18.25 13.85 18.7 14.35 19.25 15.0 19.5 15.75 19.8 16.7 19.8 17.5 19.8 18.15 19.65 18.8 19.5 19.25 19.25 19.75 19.0 20.1 18.6 20.4 18.25 20.65 17.8 20.85 17.4 20.95 16.9 21.05 16.45 21.05 15.9 21.1 15.45 21.05 14.9 21.0 14.45 20.9 13.95 L20.9 13.95 M19.35 15.95 Q19.3 16.25 19.2 16.55 19.05 16.8 18.85 17.0 18.65 17.2 18.35 17.4 18.1 17.55 17.8 17.65 17.5 17.75 17.2 17.8 16.9 17.85 16.65 17.85 16.35 17.8 16.1 17.75 15.9 17.7 15.7 17.6 15.55 17.5 15.4 17.3 15.3 17.1 15.2 16.85 15.1 16.6 15.0 16.3 14.95 16.05 14.9 15.8 14.85 15.55 14.8 15.3 14.8 15.1 14.75 14.85 14.75 14.7 14.75 14.6 14.75 14.5 14.75 14.45 15.1 14.0 15.5 13.7 15.85 13.4 16.3 13.25 16.7 13.1 17.1 13.05 17.45 13.0 17.85 13.1 18.2 13.25 18.5 13.45 18.8 13.7 19.0 14.05 19.2 14.4 19.3 14.85 19.35 15.35 19.35 15.95 L19.35 15.95" fill="#f1edf8" fill-rule="evenodd" stroke="none"/>
  </g>
</svg>
