<?xml version="1.0" encoding="UTF-8" standalone="no"?>
<svg xmlns:ffdec="https://www.free-decompiler.com/flash" xmlns:xlink="http://www.w3.org/1999/xlink" ffdec:objectType="shape" height="26.0px" width="26.0px" xmlns="http://www.w3.org/2000/svg">
  <g transform="matrix(1.0, 0.0, 0.0, 1.0, 0.0, 0.0)">
    <path d="M12.2 12.3 L12.25 12.0 11.35 11.85 Q11.35 11.85 11.35 11.85 11.35 11.9 11.35 11.9 11.3 11.95 11.25 12.0 11.2 12.0 11.1 12.05 10.95 12.05 10.8 12.1 10.6 12.1 10.35 12.1 10.05 12.1 9.65 12.05 9.25 12.0 8.75 11.95 8.75 11.95 8.75 11.95 8.7 12.0 8.7 12.0 8.65 12.0 8.6 12.05 8.55 12.05 8.5 12.1 8.4 12.1 8.35 12.15 8.25 12.15 8.15 12.2 8.05 12.2 7.95 12.2 7.8 12.25 7.65 12.25 L7.65 11.2 7.5 11.25 7.4 11.4 7.25 11.3 7.25 11.3 7.25 11.2 7.3 11.25 7.2 11.15 7.25 11.1 7.5 11.1 7.5 11.0 7.7 10.9 7.7 8.8 Q7.7 8.6 7.75 8.45 7.85 8.35 7.95 8.25 8.05 8.15 8.2 8.05 8.35 8.0 8.55 7.95 8.7 7.9 8.85 7.85 9.0 7.85 9.1 7.85 9.2 7.85 9.3 7.85 9.35 7.85 9.4 7.85 L10.6 7.85 Q10.6 7.85 10.65 7.85 10.75 7.85 10.8 7.85 10.95 7.85 11.05 7.85 11.2 7.9 11.35 7.9 11.5 7.95 11.65 8.0 11.8 8.05 11.95 8.15 12.05 8.2 12.15 8.3 12.25 8.45 12.3 8.55 L12.9 8.55 12.9 6.35 8.05 6.35 5.7 6.35 4.8 6.35 4.8 7.4 Q4.95 7.4 5.1 7.5 5.2 7.55 5.3 7.65 5.4 7.75 5.45 7.85 5.5 7.95 5.55 8.1 5.6 8.2 5.65 8.3 5.65 8.4 5.65 8.5 5.65 8.55 5.7 8.6 5.7 8.65 5.7 8.65 L5.7 17.05 Q5.7 17.35 5.65 17.6 5.6 17.8 5.6 18.0 5.55 18.15 5.5 18.3 5.45 18.4 5.35 18.5 5.3 18.55 5.25 18.6 5.2 18.65 5.2 18.7 5.15 18.7 5.1 18.7 5.1 18.7 5.1 18.7 L5.1 19.85 8.25 19.85 8.25 18.7 Q8.15 18.65 8.05 18.6 7.95 18.5 7.9 18.4 7.85 18.25 7.8 18.1 7.75 18.0 7.75 17.85 7.7 17.7 7.7 17.55 7.65 17.45 7.65 17.3 7.65 17.2 7.65 17.15 7.65 17.1 7.65 17.05 L7.65 13.45 10.05 13.4 Q10.05 13.4 10.15 13.4 10.25 13.4 10.35 13.4 10.5 13.35 10.65 13.35 10.85 13.3 11.0 13.25 11.2 13.2 11.4 13.1 11.6 13.05 11.75 12.95 11.9 12.8 12.0 12.65 12.15 12.5 12.2 12.3 L12.2 12.3" fill="#f1edf8" fill-rule="evenodd" stroke="none"/>
    <path d="M13.1 8.5 Q13.05 8.7 13.1 8.85 13.15 9.0 13.25 9.1 13.35 9.2 13.5 9.25 13.65 9.35 13.8 9.4 13.95 9.4 14.1 9.45 14.25 9.45 14.35 9.5 14.45 9.5 14.55 9.5 14.6 9.5 14.65 9.5 14.55 9.45 14.5 9.4 14.4 9.3 14.35 9.25 14.3 9.2 14.25 9.15 14.2 9.1 14.2 9.05 14.2 9.0 14.2 8.9 14.2 8.85 14.25 8.75 14.3 8.65 14.35 8.6 14.4 8.5 14.5 8.35 14.55 8.3 14.6 8.25 14.65 8.25 14.7 8.2 14.75 8.2 14.85 8.15 14.9 8.15 15.0 8.1 15.05 8.1 15.15 8.1 15.2 8.05 15.3 8.05 15.4 8.05 15.5 8.05 15.6 8.05 15.7 8.05 L18.75 8.05 18.85 7.95 Q18.65 8.2 18.5 8.5 18.35 8.75 18.2 9.05 18.0 9.3 17.85 9.65 17.7 9.95 17.55 10.3 17.4 10.65 17.25 11.0 17.1 11.4 16.95 11.8 16.8 12.2 16.65 12.7 16.5 13.15 16.3 13.65 16.2 13.95 16.1 14.35 16.0 14.7 15.9 15.15 15.8 15.5 15.7 15.95 15.6 16.35 15.55 16.75 15.45 17.15 15.4 17.55 15.35 17.9 15.3 18.25 15.25 18.6 15.25 18.9 15.2 19.2 15.2 19.4 L15.2 19.8 17.25 19.8 Q17.25 19.5 17.25 19.15 17.3 18.8 17.3 18.4 17.35 18.0 17.4 17.6 17.45 17.2 17.5 16.8 17.6 16.4 17.7 16.0 17.75 15.55 17.85 15.15 17.95 14.7 18.1 14.3 18.2 13.85 18.35 13.45 18.9 11.75 20.45 8.7 21.0 7.65 21.2 7.35 L21.2 6.4 15.5 6.4 Q15.4 6.4 15.3 6.4 15.2 6.4 15.1 6.4 15.0 6.35 14.9 6.35 14.8 6.35 14.75 6.35 14.65 6.3 14.55 6.3 14.5 6.3 14.45 6.25 14.35 6.25 14.3 6.2 14.25 6.2 14.2 6.15 L13.45 6.15 13.1 8.5" fill="#f1edf8" fill-rule="evenodd" stroke="none"/>
  </g>
</svg>
