<?xml version="1.0" encoding="UTF-8" standalone="no"?>
<svg xmlns:ffdec="https://www.free-decompiler.com/flash" xmlns:xlink="http://www.w3.org/1999/xlink" ffdec:objectType="shape" height="26.0px" width="26.0px" xmlns="http://www.w3.org/2000/svg">
  <g transform="matrix(1.0, 0.0, 0.0, 1.0, 0.0, 0.0)">
    <path d="M12.45 12.15 L12.5 11.85 11.6 11.7 Q11.6 11.7 11.6 11.7 11.6 11.75 11.6 11.75 11.55 11.8 11.5 11.85 11.45 11.85 11.35 11.9 11.2 11.95 11.05 11.95 10.85 11.95 10.6 11.95 10.3 11.95 9.9 11.9 9.5 11.9 9.0 11.8 9.0 11.8 9.0 11.8 8.95 11.85 8.95 11.85 8.9 11.85 8.85 11.9 8.8 11.9 8.75 11.95 8.65 11.95 8.6 12.0 8.5 12.0 8.4 12.05 8.3 12.05 8.15 12.1 8.05 12.1 7.9 12.1 L7.9 11.05 7.75 11.1 7.6 11.25 7.5 11.15 7.5 11.15 7.45 11.05 7.55 11.1 7.45 11.0 7.5 10.95 7.7 10.95 7.75 10.85 7.95 10.75 7.95 8.6 Q7.95 8.45 8.0 8.3 8.05 8.15 8.2 8.05 8.3 7.95 8.45 7.9 8.6 7.8 8.75 7.75 8.9 7.75 9.1 7.7 9.2 7.7 9.35 7.7 9.45 7.65 9.55 7.65 9.6 7.65 9.65 7.65 L10.85 7.65 Q10.85 7.65 10.9 7.65 11.0 7.65 11.05 7.65 11.2 7.7 11.3 7.7 11.45 7.7 11.6 7.75 11.75 7.8 11.9 7.85 12.05 7.9 12.2 7.95 12.3 8.05 12.4 8.15 12.5 8.25 12.55 8.4 L13.2 8.4 13.2 6.15 8.3 6.15 5.9 6.15 5.0 6.15 5.0 7.25 Q5.15 7.25 5.3 7.35 5.4 7.4 5.5 7.5 5.6 7.6 5.65 7.7 5.75 7.8 5.8 7.9 5.8 8.0 5.85 8.15 5.85 8.25 5.9 8.3 5.9 8.4 5.9 8.45 5.9 8.45 5.9 8.5 L5.9 16.95 Q5.9 17.25 5.85 17.5 5.85 17.7 5.8 17.9 5.75 18.05 5.7 18.2 5.65 18.3 5.6 18.4 5.55 18.45 5.5 18.5 5.45 18.55 5.4 18.55 5.35 18.6 5.35 18.6 5.35 18.6 5.3 18.6 L5.3 19.7 8.5 19.7 8.5 18.6 Q8.4 18.55 8.3 18.5 8.2 18.4 8.15 18.25 8.1 18.15 8.05 18.0 8.0 17.85 7.95 17.7 7.95 17.6 7.9 17.45 7.9 17.3 7.9 17.2 7.9 17.1 7.9 17.0 7.9 17.0 7.9 16.95 L7.9 13.35 10.3 13.25 Q10.3 13.25 10.4 13.25 10.5 13.25 10.6 13.25 10.75 13.2 10.9 13.2 11.1 13.15 11.25 13.1 11.45 13.05 11.65 13.0 11.85 12.9 12.0 12.8 12.15 12.65 12.3 12.5 12.4 12.35 12.45 12.15 L12.45 12.15" fill="#f1edf8" fill-rule="evenodd" stroke="none"/>
    <path d="M14.15 19.7 Q14.7 19.7 15.15 19.7 15.65 19.65 16.1 19.55 16.6 19.5 17.05 19.35 17.55 19.2 17.95 18.95 18.4 18.65 18.8 18.3 19.2 17.9 19.5 17.4 19.85 16.85 20.15 16.15 20.4 15.45 20.6 14.6 20.85 13.55 20.95 12.6 21.05 11.65 21.0 10.85 20.95 10.05 20.75 9.4 20.55 8.75 20.25 8.25 20.0 7.75 19.6 7.35 19.2 7.0 18.7 6.75 18.25 6.55 17.7 6.45 17.15 6.4 16.55 6.45 16.1 6.5 15.7 6.65 15.3 6.8 14.9 7.05 14.55 7.25 14.2 7.6 13.85 7.9 13.6 8.3 13.35 8.7 13.15 9.15 12.95 9.55 12.8 10.05 12.7 10.5 12.65 11.0 12.6 11.45 12.65 11.95 12.7 12.2 12.8 12.5 12.95 12.85 13.15 13.1 13.35 13.45 13.65 13.7 14.0 13.95 14.4 14.15 14.8 14.4 15.3 14.5 15.8 14.6 16.35 14.6 16.95 14.6 17.6 14.4 18.25 14.25 19.0 13.9 19.0 13.9 18.95 14.05 18.85 14.2 18.75 14.35 18.65 14.6 18.5 14.85 18.35 15.2 18.2 15.45 18.0 15.8 17.8 16.05 17.55 16.4 17.35 16.65 17.1 16.95 16.85 17.15 16.6 17.35 16.35 17.45 16.05 17.6 15.75 17.7 15.5 17.75 15.25 17.75 15.05 17.8 14.85 17.75 14.7 17.75 14.55 17.7 14.4 17.65 14.3 17.55 14.2 17.5 14.15 17.4 14.1 17.35 14.0 17.3 13.95 17.2 13.9 17.15 13.85 17.1 13.8 17.1 13.7 17.1 13.65 17.1 13.55 17.1 13.4 17.1 13.3 17.15 13.2 17.15 13.1 17.2 13.0 17.25 12.9 17.35 12.85 17.4 12.8 17.5 12.8 17.6 12.75 17.7 12.8 17.85 12.85 18.0 12.8 18.2 12.8 18.35 12.7 18.55 12.7 18.55 12.55 18.9 12.45 19.05 12.45 19.15 12.4 19.3 12.45 19.4 12.55 19.5 12.7 19.55 12.9 19.6 13.25 19.65 13.6 19.7 14.15 19.7 L14.15 19.7 M14.8 10.9 Q14.8 10.65 14.85 10.4 14.95 10.1 15.05 9.85 15.15 9.6 15.3 9.35 15.4 9.1 15.6 8.9 15.8 8.7 16.0 8.55 16.25 8.4 16.5 8.35 16.75 8.25 17.05 8.3 17.35 8.3 17.65 8.45 17.9 8.55 18.15 8.75 18.35 8.95 18.5 9.25 18.65 9.5 18.8 9.8 18.9 10.05 18.95 10.35 19.0 10.65 19.05 10.95 19.1 11.15 19.1 11.4 19.1 11.6 19.1 11.75 19.1 11.8 19.1 11.85 18.8 12.05 18.4 12.2 18.05 12.3 17.7 12.4 17.3 12.5 16.95 12.55 16.6 12.55 16.25 12.5 15.9 12.5 15.65 12.35 15.35 12.25 15.15 12.05 14.95 11.85 14.85 11.55 14.75 11.3 14.8 10.9 L14.8 10.9" fill="#f1edf8" fill-rule="evenodd" stroke="none"/>
  </g>
</svg>
