<?xml version="1.0" encoding="UTF-8" standalone="no"?>
<svg xmlns:ffdec="https://www.free-decompiler.com/flash" xmlns:xlink="http://www.w3.org/1999/xlink" ffdec:objectType="shape" height="26.0px" width="26.0px" xmlns="http://www.w3.org/2000/svg">
  <g transform="matrix(1.0, 0.0, 0.0, 1.0, 0.0, 0.0)">
    <path d="M10.2 12.35 L10.25 12.05 9.45 11.95 Q9.45 11.95 9.45 11.95 9.45 12.0 9.45 12.0 9.45 12.05 9.4 12.05 9.35 12.1 9.25 12.1 9.15 12.15 9.0 12.15 8.85 12.15 8.6 12.15 8.35 12.15 8.05 12.15 7.7 12.1 7.25 12.05 7.25 12.05 7.25 12.05 7.2 12.05 7.2 12.1 7.15 12.1 7.15 12.1 7.1 12.15 7.05 12.15 7.0 12.2 6.9 12.2 6.85 12.2 6.75 12.25 6.65 12.25 6.55 12.25 6.45 12.3 6.35 12.3 L6.35 11.4 6.2 11.45 6.1 11.55 6.0 11.5 6.0 11.5 5.95 11.4 6.05 11.45 5.95 11.35 6.0 11.3 6.2 11.3 6.2 11.25 6.35 11.15 6.35 9.35 Q6.35 9.2 6.4 9.05 6.45 8.95 6.6 8.85 6.65 8.8 6.8 8.7 6.95 8.65 7.05 8.6 7.2 8.6 7.35 8.55 7.45 8.55 7.55 8.55 7.65 8.55 7.75 8.55 7.75 8.55 7.8 8.55 L8.8 8.55 Q8.8 8.55 8.85 8.55 8.9 8.55 9.0 8.55 9.1 8.55 9.2 8.55 9.35 8.6 9.45 8.6 9.6 8.65 9.7 8.65 9.85 8.7 9.95 8.8 10.1 8.85 10.15 8.95 10.25 9.05 10.3 9.15 L10.8 9.15 10.8 7.25 6.7 7.25 4.65 7.25 3.9 7.25 3.9 8.2 Q4.05 8.2 4.15 8.25 4.25 8.3 4.3 8.4 4.4 8.45 4.45 8.55 4.5 8.65 4.55 8.75 4.6 8.85 4.6 8.95 4.6 9.0 4.65 9.1 4.65 9.15 4.65 9.2 4.65 9.2 4.65 9.25 L4.65 16.35 Q4.65 16.6 4.6 16.8 4.6 17.0 4.55 17.2 4.5 17.3 4.45 17.45 4.45 17.55 4.4 17.6 4.35 17.65 4.3 17.7 4.25 17.75 4.2 17.75 4.2 17.75 4.15 17.8 4.15 17.8 4.15 17.8 L4.15 18.75 6.85 18.75 6.85 17.8 Q6.75 17.75 6.7 17.7 6.6 17.6 6.55 17.5 6.5 17.4 6.45 17.3 6.4 17.15 6.4 17.05 6.35 16.9 6.35 16.8 6.35 16.7 6.35 16.6 6.35 16.5 6.35 16.45 6.35 16.4 6.35 16.4 L6.35 13.3 8.35 13.25 Q8.35 13.25 8.4 13.25 8.5 13.25 8.6 13.25 8.75 13.25 8.9 13.2 9.05 13.2 9.2 13.15 9.35 13.1 9.5 13.05 9.7 12.95 9.8 12.85 9.95 12.75 10.05 12.65 10.15 12.5 10.2 12.35 L10.2 12.35" fill="#f1edf8" fill-rule="evenodd" stroke="none"/>
    <path d="M11.45 8.15 Q11.25 8.15 11.15 8.2 11.05 8.25 11.0 8.35 10.95 8.45 10.95 8.55 10.95 8.65 10.95 8.8 10.95 8.9 11.0 9.05 11.05 9.15 11.1 9.25 11.1 9.35 11.15 9.4 11.15 9.45 11.2 9.45 11.2 9.4 11.2 9.35 11.25 9.3 11.3 9.25 11.3 9.2 11.35 9.15 11.4 9.15 11.5 9.1 11.55 9.1 11.6 9.1 11.65 9.1 11.7 9.1 11.7 9.05 11.75 9.05 11.75 9.05 11.8 9.05 11.9 9.05 12.0 9.1 12.05 9.1 12.15 9.15 12.2 9.2 12.25 9.25 12.3 9.35 12.35 9.4 12.35 9.5 12.4 9.6 12.4 9.75 12.4 9.85 12.45 10.0 12.45 10.15 12.45 10.3 12.45 10.5 L12.45 15.6 Q12.45 15.75 12.45 15.95 12.45 16.1 12.4 16.3 12.4 16.45 12.35 16.6 12.3 16.75 12.3 16.9 12.25 17.05 12.2 17.15 12.15 17.3 12.1 17.35 12.0 17.45 11.95 17.5 11.85 17.55 11.8 17.55 L11.55 17.55 11.55 18.7 14.85 18.7 14.85 17.55 14.6 17.55 Q14.5 17.55 14.45 17.5 14.4 17.45 14.3 17.35 14.25 17.3 14.2 17.15 14.15 17.05 14.1 16.9 14.05 16.75 14.05 16.6 14.0 16.45 14.0 16.3 13.95 16.1 13.95 15.95 13.95 15.75 13.95 15.6 L13.95 7.3 13.4 7.3 Q13.35 7.35 13.15 7.5 13.0 7.6 12.9 7.65 12.75 7.75 12.7 7.8 12.55 7.85 12.45 7.9 12.35 8.0 12.25 8.0 12.15 8.05 12.0 8.1 11.9 8.1 11.75 8.1 11.65 8.15 11.45 8.15 L11.45 8.15" fill="#f1edf8" fill-rule="evenodd" stroke="none"/>
    <path d="M22.0 11.25 Q21.75 10.5 21.85 10.7 21.7 10.3 21.6 10.05 21.5 9.7 21.35 9.4 21.15 9.05 20.95 8.75 20.75 8.45 20.5 8.2 20.2 7.95 19.85 7.75 19.45 7.55 19.05 7.45 18.55 7.35 18.05 7.35 17.45 7.35 16.95 7.55 16.45 7.7 16.05 8.05 15.65 8.35 15.35 8.8 15.05 9.2 14.85 9.7 14.65 10.15 14.5 10.65 14.35 11.05 14.3 11.5 14.2 11.9 14.15 12.25 14.15 12.55 14.15 12.75 14.15 13.15 14.15 13.3 14.15 13.7 14.15 14.1 14.2 14.6 14.3 15.05 14.4 15.6 14.55 16.1 14.75 16.65 15.0 17.05 15.3 17.55 15.7 17.9 16.15 18.3 16.7 18.5 17.35 18.7 18.1 18.7 18.85 18.7 19.45 18.45 20.05 18.2 20.5 17.75 20.9 17.3 21.25 16.7 21.55 16.2 21.75 15.5 21.9 14.9 22.0 14.25 22.1 13.65 22.1 13.0 22.15 12.45 22.1 12.0 22.05 11.55 22.0 11.25 L22.0 11.25 M20.0 16.0 Q19.9 16.3 19.7 16.5 19.5 16.75 19.25 16.9 19.05 17.05 18.75 17.15 18.5 17.2 18.2 17.25 17.9 17.25 17.6 17.2 17.35 17.15 17.1 17.0 16.8 16.85 16.6 16.65 16.4 16.45 16.25 16.2 16.1 15.9 16.0 15.5 15.85 15.15 15.8 14.75 15.75 14.4 15.7 13.95 15.7 13.6 15.7 13.15 15.7 12.75 15.75 12.35 15.8 11.95 15.85 11.6 15.9 11.25 15.95 10.9 16.05 10.6 16.1 10.35 16.2 10.0 16.4 9.7 16.6 9.45 16.85 9.25 17.1 9.05 17.4 8.95 17.65 8.85 17.95 8.85 18.25 8.85 18.55 8.9 18.85 8.95 19.1 9.1 19.35 9.25 19.55 9.45 19.75 9.65 19.85 9.9 20.0 10.25 20.1 10.65 20.25 11.0 20.3 11.35 20.4 11.75 20.45 12.1 20.5 12.5 20.5 12.9 20.55 13.25 20.5 13.65 20.5 14.05 20.4 14.45 20.35 14.8 20.25 15.2 20.15 15.6 20.0 16.0 L20.0 16.0" fill="#f1edf8" fill-rule="evenodd" stroke="none"/>
  </g>
</svg>
