<?xml version="1.0" encoding="UTF-8" standalone="no"?>
<svg xmlns:ffdec="https://www.free-decompiler.com/flash" xmlns:xlink="http://www.w3.org/1999/xlink" ffdec:objectType="shape" height="26.0px" width="26.0px" xmlns="http://www.w3.org/2000/svg">
  <g transform="matrix(1.0, 0.0, 0.0, 1.0, 0.0, 0.0)">
    <path d="M15.15 13.9 Q15.15 13.9 15.15 13.95 15.15 14.05 15.15 14.15 15.2 14.25 15.25 14.35 15.3 14.5 15.35 14.6 15.45 14.75 15.55 14.85 15.7 14.95 15.85 15.0 16.05 15.05 16.25 15.0 16.5 15.0 16.85 14.9 17.1 14.8 17.35 14.8 17.65 14.75 17.9 14.8 18.2 14.85 18.5 14.9 18.8 15.0 19.05 15.1 19.35 15.2 19.55 15.35 19.8 15.55 19.95 15.7 20.15 15.9 20.25 16.15 20.35 16.35 20.35 16.6 20.35 16.85 20.3 17.1 20.2 17.3 20.1 17.55 19.95 17.8 19.8 18.0 19.65 18.2 19.45 18.45 19.25 18.65 19.0 18.8 18.8 18.95 18.55 19.1 18.3 19.25 18.05 19.35 17.85 19.45 17.6 19.5 17.15 19.6 16.7 19.6 16.35 19.6 15.95 19.55 15.65 19.5 15.3 19.45 15.05 19.35 14.8 19.25 14.6 19.15 14.4 19.05 14.25 19.0 14.1 18.9 14.0 18.8 13.95 18.75 13.9 18.7 13.85 18.7 13.85 18.85 13.8 19.0 13.75 19.15 13.65 19.3 13.55 19.4 13.45 19.55 13.35 19.7 13.2 19.85 12.5 20.55 12.95 20.05 12.8 20.2 12.75 20.3 12.7 20.4 12.65 20.45 12.65 20.5 12.7 20.55 12.75 20.6 12.8 20.65 12.9 20.75 13.0 20.8 13.15 20.9 13.3 20.95 13.45 21.05 13.65 21.1 13.85 21.2 14.1 21.25 14.4 21.35 14.7 21.4 15.0 21.5 15.4 21.55 15.8 21.6 16.2 21.65 16.65 21.7 17.15 21.65 17.6 21.6 18.1 21.5 18.6 21.35 19.05 21.2 19.5 21.0 19.95 20.7 20.35 20.45 20.75 20.05 21.1 19.7 21.4 19.25 21.7 18.75 21.9 18.2 22.1 17.65 22.2 17.0 22.3 16.35 22.2 15.8 22.15 15.3 21.95 14.9 21.8 14.5 21.5 14.2 21.3 13.95 21.0 13.7 20.7 13.55 20.4 13.4 20.15 13.3 19.9 13.2 19.7 13.15 19.55 13.1 19.45 13.1 19.4 13.1 19.4 13.1 19.5 13.05 19.6 12.95 19.7 12.85 19.85 12.75 20.0 12.6 20.2 12.4 20.35 12.25 20.55 12.0 20.7 11.8 20.85 11.55 20.95 11.25 21.1 11.0 21.15 10.7 21.25 10.4 21.2 10.1 21.2 9.8 21.1 9.5 21.0 9.25 20.85 9.0 20.7 8.75 20.45 8.6 20.25 8.4 20.05 8.25 19.8 8.1 19.55 8.0 19.3 7.9 19.05 7.85 18.8 7.75 18.55 7.75 18.3 7.7 18.05 7.7 17.85 7.7 17.6 7.7 17.4 7.75 17.15 7.75 16.9 7.8 16.7 7.85 16.45 7.95 16.2 8.0 15.95 8.1 15.75 8.25 15.5 8.35 15.25 8.5 15.05 8.65 14.8 8.8 14.6 9.0 14.4 9.2 14.25 9.35 14.1 9.5 13.95 9.65 13.85 9.75 13.75 9.85 13.65 9.95 13.55 10.0 13.5 10.05 13.45 10.1 13.4 10.15 13.35 10.15 13.3 10.2 13.25 10.2 13.25 10.2 13.25 10.2 13.25 10.2 13.25 10.35 13.25 10.55 13.3 10.7 13.35 10.95 13.4 11.15 13.45 11.35 13.5 11.55 13.55 11.75 13.65 11.95 13.7 12.1 13.75 12.25 13.8 12.35 13.85 12.45 13.9 12.5 13.95 12.55 13.95 12.45 13.95 12.4 14.05 12.25 14.1 12.15 14.25 11.95 14.35 11.8 14.55 11.55 14.7 11.35 14.9 11.15 15.1 10.9 15.35 10.7 15.55 10.45 15.8 10.3 16.05 10.05 16.25 9.9 16.5 9.75 16.7 9.65 16.9 9.55 17.1 9.5 17.3 9.45 17.55 9.45 17.75 9.4 17.9 9.45 18.1 9.5 18.3 9.6 18.45 9.65 18.6 9.8 18.75 9.9 18.85 10.1 18.95 10.25 19.05 10.45 19.1 10.65 19.1 10.9 19.1 11.15 19.0 11.4 18.85 11.6 18.6 11.85 18.35 12.1 18.05 12.35 17.75 12.55 17.35 12.75 17.05 12.95 16.65 13.15 16.35 13.3 16.0 13.5 15.75 13.6 15.5 13.75 15.2 13.85 15.15 13.9 L15.15 13.9" fill="#f1edf8" fill-rule="evenodd" stroke="none"/>
  </g>
</svg>
