<?xml version="1.0" encoding="UTF-8" standalone="no"?>
<svg xmlns:ffdec="https://www.free-decompiler.com/flash" xmlns:xlink="http://www.w3.org/1999/xlink" ffdec:objectType="frame" height="26.05px" width="52.95px" xmlns="http://www.w3.org/2000/svg">
  <g transform="matrix(1.0, 0.0, 0.0, 1.0, 0.0, 0.0)">
    <use ffdec:characterId="1" height="26.0" transform="matrix(1.0, 0.0, 0.0, 1.0, 0.0, 0.0)" width="35.75" xlink:href="#shape0"/>
    <use ffdec:characterId="2" height="12.95" transform="matrix(1.0, 0.0, 0.0, 1.0, 11.75, 7.15)" width="13.85" xlink:href="#shape1"/>
    <use ffdec:characterId="2" height="12.95" transform="matrix(1.0, 0.0, 0.0, 1.0, 10.95, 6.55)" width="13.85" xlink:href="#shape1"/>
  </g>
  <defs>
    <g id="shape0" transform="matrix(1.0, 0.0, 0.0, 1.0, 0.0, 0.0)">
      <path d="M3.4 2.5 L17.5 2.6 21.85 2.9 32.3 2.5 32.6 19.35 32.3 23.55 17.2 23.8 3.4 23.55 3.25 17.3 4.05 11.9 3.4 2.5" fill="#7b7b7b" fill-rule="evenodd" stroke="none"/>
      <path d="M4.15 3.05 L17.55 3.15 21.65 3.45 31.55 3.05 31.85 19.05 31.55 23.0 17.25 23.25 4.15 23.0 4.0 17.05 4.75 11.95 4.15 3.05" fill="#000000" fill-rule="evenodd" stroke="none"/>
      <path d="M4.45 3.5 L12.7 3.45 15.55 3.15 21.25 4.6 31.4 4.45 32.15 9.8 30.35 12.25 28.1 18.45 31.25 22.4 24.0 23.75 17.3 21.5 10.65 22.95 6.2 20.8 7.7 16.85 5.1 10.75 5.75 7.15 3.15 3.25" fill="#000000" fill-rule="evenodd" stroke="none"/>
      <path d="M3.85 3.15 L8.4 2.8 10.0 2.8 13.05 3.35 18.65 4.25 21.8 4.6 24.3 3.55 27.2 3.95 31.95 4.1 31.05 7.0 30.85 8.3 29.7 11.65 31.0 13.6 31.9 16.85 31.5 18.05 32.75 20.5 31.05 22.5 27.1 23.35 23.45 23.65 21.25 24.2 18.65 23.95 13.05 22.9 9.85 23.0 7.75 23.7 3.2 22.95 4.2 20.95 3.4 17.15 3.6 16.05 4.7 12.4 4.15 9.95 4.15 7.45 3.7 5.05 3.05 3.3" fill="#000000" fill-rule="evenodd" stroke="none"/>
    </g>
    <g id="shape1" transform="matrix(1.0, 0.0, 0.0, 1.0, 0.0, 0.0)">
      <path d="M0.0 0.0 L4.55 0.0 4.55 1.45 1.7 1.45 1.7 5.5 4.25 5.5 4.25 6.95 1.7 6.95 1.7 11.3 4.55 11.3 4.55 12.8 0.0 12.8 0.0 0.0 M8.85 4.45 L8.85 5.95 8.25 5.65 7.65 5.5 Q7.2 5.5 6.9 5.75 6.55 6.0 6.55 6.45 6.6 6.95 7.0 7.3 L7.9 8.05 8.8 8.95 Q9.2 9.5 9.25 10.4 9.2 11.55 8.6 12.25 7.95 12.9 6.8 12.95 L6.05 12.85 5.4 12.55 5.4 10.95 6.0 11.35 6.7 11.5 Q7.2 11.5 7.5 11.2 L7.75 10.45 7.5 9.65 6.85 9.05 6.05 8.45 5.35 7.6 5.1 6.45 Q5.1 5.4 5.75 4.75 6.35 4.1 7.4 4.1 L8.15 4.15 8.85 4.45 M13.25 4.15 L13.85 4.35 13.85 6.0 13.55 5.7 13.1 5.55 Q12.55 5.6 12.3 5.9 12.0 6.2 11.85 6.65 L11.7 7.6 11.7 8.45 11.7 9.25 11.85 10.25 12.25 11.1 Q12.55 11.45 13.05 11.45 L13.5 11.35 13.85 11.1 13.85 12.6 13.25 12.85 12.55 12.95 Q11.75 12.9 11.25 12.5 L10.45 11.4 10.1 10.0 10.05 8.6 10.1 7.15 Q10.2 6.35 10.45 5.65 10.7 4.95 11.2 4.55 11.7 4.1 12.6 4.1 L13.25 4.15" fill="#000000" fill-rule="evenodd" stroke="none"/>
    </g>
  </defs>
</svg>
