<?xml version="1.0" encoding="UTF-8" standalone="no"?>
<svg xmlns:ffdec="https://www.free-decompiler.com/flash" xmlns:xlink="http://www.w3.org/1999/xlink" ffdec:objectType="frame" height="26.05px" width="52.95px" xmlns="http://www.w3.org/2000/svg">
  <g transform="matrix(1.0, 0.0, 0.0, 1.0, 0.0, 0.0)">
    <use ffdec:characterId="3" height="26.0" transform="matrix(1.0, 0.0, 0.0, 1.0, 0.0, 0.0)" width="26.0" xlink:href="#shape0"/>
    <use ffdec:characterId="20" height="9.0" transform="matrix(1.0889, 0.0, 0.0, 1.0889, 8.7, 5.6)" width="1.85" xlink:href="#shape1"/>
    <use ffdec:characterId="20" height="9.0" transform="matrix(1.0889, 0.0, 0.0, 1.0889, 7.9, 5.0)" width="1.85" xlink:href="#shape1"/>
    <use ffdec:characterId="21" height="12.95" transform="matrix(1.0, 0.0, 0.0, 1.0, 14.55, 8.25)" width="5.5" xlink:href="#shape2"/>
    <use ffdec:characterId="21" height="12.95" transform="matrix(1.0, 0.0, 0.0, 1.0, 13.75, 7.65)" width="5.5" xlink:href="#shape2"/>
  </g>
  <defs>
    <g id="shape0" transform="matrix(1.0, 0.0, 0.0, 1.0, 0.0, 0.0)">
      <path d="M2.45 2.5 L12.75 2.6 15.9 2.9 23.5 2.5 23.7 19.35 23.5 23.55 12.5 23.8 2.45 23.55 2.35 17.3 2.95 11.9 2.45 2.5" fill="#7b7b7b" fill-rule="evenodd" stroke="none"/>
      <path d="M3.0 3.05 L12.75 3.15 15.75 3.45 22.95 3.05 23.15 19.05 22.95 23.0 12.55 23.25 3.0 23.0 2.9 17.05 3.45 11.95 3.0 3.05" fill="#000000" fill-rule="evenodd" stroke="none"/>
      <path d="M3.2 3.5 L9.25 3.45 11.3 3.15 15.45 4.6 22.85 4.45 23.35 9.8 22.1 12.25 20.45 18.45 22.75 22.4 17.45 23.75 12.55 21.5 7.75 22.95 4.5 20.8 5.6 16.85 3.7 10.75 4.15 7.15 2.3 3.25" fill="#000000" fill-rule="evenodd" stroke="none"/>
      <path d="M2.8 3.15 L6.1 2.8 7.3 2.8 9.5 3.35 13.55 4.25 15.85 4.6 17.7 3.55 19.8 3.95 23.25 4.1 22.6 7.0 22.45 8.3 21.6 11.65 22.55 13.6 23.2 16.85 22.9 18.05 23.85 20.5 22.6 22.5 19.7 23.35 17.05 23.65 15.45 24.2 13.55 23.95 9.5 22.9 7.15 23.0 5.65 23.7 2.35 22.95 3.05 20.95 2.45 17.15 2.6 16.05 3.4 12.4 3.05 9.95 3.0 7.45 2.7 5.05 2.2 3.3" fill="#000000" fill-rule="evenodd" stroke="none"/>
    </g>
    <g id="shape1" transform="matrix(1.0, 0.0, 0.0, 1.0, 0.0, 0.0)">
      <path d="M1.25 2.3 L0.95 4.4 1.2 6.6 1.85 8.75 0.9 9.0 0.25 6.75 0.0 4.45 Q0.0 3.3 0.25 2.2 0.45 1.05 0.9 0.0 L1.85 0.25 1.25 2.3" fill="#000000" fill-rule="evenodd" stroke="none"/>
    </g>
    <g id="shape2" transform="matrix(1.0, 0.0, 0.0, 1.0, 0.0, 0.0)">
      <path d="M3.35 1.8 Q3.1 1.5 2.75 1.5 2.35 1.5 2.15 1.8 L1.85 2.5 1.75 3.4 1.75 4.1 1.75 4.8 1.85 5.6 2.15 6.25 Q2.35 6.55 2.75 6.55 3.15 6.55 3.35 6.25 L3.65 5.55 3.75 4.7 3.75 4.0 3.75 3.3 3.65 2.45 3.35 1.8 M2.75 0.0 Q3.7 0.0 4.25 0.35 L5.1 1.4 5.45 2.8 5.5 4.35 5.3 6.85 4.6 9.1 3.6 11.4 2.85 12.95 1.0 12.95 3.55 7.6 3.5 7.55 2.95 7.95 2.2 8.05 Q1.45 8.05 1.05 7.7 L0.35 6.8 0.05 5.55 0.0 4.35 0.05 2.8 Q0.15 2.05 0.4 1.4 0.65 0.75 1.2 0.4 1.75 0.0 2.75 0.0" fill="#000000" fill-rule="evenodd" stroke="none"/>
    </g>
  </defs>
</svg>
