<?xml version="1.0" encoding="UTF-8" standalone="no"?>
<svg xmlns:ffdec="https://www.free-decompiler.com/flash" xmlns:xlink="http://www.w3.org/1999/xlink" ffdec:objectType="frame" height="26.05px" width="52.95px" xmlns="http://www.w3.org/2000/svg">
  <g transform="matrix(1.0, 0.0, 0.0, 1.0, 0.0, 0.0)">
    <use ffdec:characterId="27" height="26.0" transform="matrix(1.0, 0.0, 0.0, 1.0, 0.0, 0.0)" width="41.75" xlink:href="#shape0"/>
    <use ffdec:characterId="28" height="14.25" transform="matrix(1.0, 0.0, 0.0, 1.0, 9.8, 5.85)" width="23.7" xlink:href="#shape1"/>
    <use ffdec:characterId="28" height="14.25" transform="matrix(1.0, 0.0, 0.0, 1.0, 9.0, 5.25)" width="23.7" xlink:href="#shape1"/>
  </g>
  <defs>
    <g id="shape0" transform="matrix(1.0, 0.0, 0.0, 1.0, 0.0, 0.0)">
      <path d="M3.95 2.5 L20.45 2.6 25.5 2.9 37.7 2.5 38.1 19.35 37.7 23.55 20.1 23.8 3.95 23.55 3.8 17.3 4.7 11.9 3.95 2.5" fill="#7b7b7b" fill-rule="evenodd" stroke="none"/>
      <path d="M4.85 3.05 L20.5 3.15 25.25 3.45 36.8 3.05 37.2 19.05 36.8 23.0 20.15 23.25 4.85 23.0 4.7 17.05 5.55 11.95 4.85 3.05" fill="#000000" fill-rule="evenodd" stroke="none"/>
      <path d="M5.2 3.5 L14.85 3.45 18.15 3.15 24.8 4.6 36.7 4.45 37.5 9.8 35.45 12.25 32.85 18.45 36.5 22.4 28.05 23.75 20.2 21.5 12.45 22.95 7.25 20.8 9.0 16.85 5.95 10.75 6.7 7.15 3.7 3.25" fill="#000000" fill-rule="evenodd" stroke="none"/>
      <path d="M4.5 3.15 L9.8 2.8 11.7 2.8 15.25 3.35 21.8 4.25 25.45 4.6 28.4 3.55 31.8 3.95 37.3 4.1 36.3 7.0 36.0 8.3 34.7 11.65 36.2 13.6 37.25 16.85 36.75 18.05 38.25 20.5 36.3 22.5 31.65 23.35 27.35 23.65 24.8 24.2 21.8 23.95 15.25 22.9 11.5 23.0 9.05 23.7 3.75 22.95 4.9 20.95 3.95 17.15 4.2 16.05 5.45 12.4 4.85 9.95 4.8 7.45 4.3 5.05 3.55 3.3" fill="#000000" fill-rule="evenodd" stroke="none"/>
    </g>
    <g id="shape1" transform="matrix(1.0, 0.0, 0.0, 1.0, 0.0, 0.0)">
      <path d="M3.3 11.75 L3.45 10.55 3.3 9.35 2.8 8.55 1.6 8.3 1.6 12.65 2.75 12.45 3.3 11.75 M1.9 2.75 L1.6 2.75 1.6 6.95 Q2.4 6.95 2.75 6.65 L3.3 5.85 3.4 4.65 3.25 3.7 2.8 3.0 1.9 2.75 M3.9 1.7 Q4.55 2.1 4.8 2.85 5.1 3.65 5.05 4.7 L4.95 5.95 4.5 6.95 Q4.15 7.35 3.45 7.55 L3.45 7.6 Q4.2 7.8 4.55 8.25 L5.1 9.3 5.25 10.6 Q5.3 12.35 4.55 13.25 3.8 14.1 2.05 14.1 L0.0 14.1 0.0 1.3 2.1 1.3 Q3.25 1.3 3.9 1.7 M10.25 9.05 L10.15 8.05 9.85 7.2 Q9.6 6.85 9.25 6.8 8.8 6.85 8.55 7.2 L8.25 8.05 8.2 9.05 8.2 9.8 8.2 10.55 8.25 11.55 8.55 12.45 Q8.8 12.8 9.25 12.8 L9.85 12.45 10.15 11.55 10.25 10.55 10.25 9.8 10.25 9.05 M10.2 5.5 L11.8 5.5 11.8 14.1 10.2 14.1 10.2 13.0 10.15 13.0 9.6 13.9 Q9.25 14.25 8.55 14.25 7.85 14.2 7.4 13.75 L6.8 12.5 6.6 11.0 6.55 9.7 6.6 8.4 6.8 7.0 Q7.0 6.3 7.45 5.85 7.85 5.4 8.6 5.4 9.15 5.4 9.55 5.7 L10.15 6.45 10.2 6.45 10.2 5.5 M15.55 5.4 L16.2 5.45 16.8 5.65 16.8 7.3 16.5 7.0 16.05 6.85 Q15.5 6.9 15.25 7.2 L14.8 7.95 14.65 8.9 14.65 9.75 14.65 10.55 14.8 11.55 15.2 12.4 Q15.5 12.75 16.0 12.75 L16.45 12.65 16.8 12.4 16.8 13.9 16.2 14.15 15.5 14.25 Q14.7 14.2 14.2 13.8 13.65 13.35 13.4 12.7 L13.05 11.3 13.0 9.9 13.05 8.45 Q13.15 7.65 13.4 6.95 13.65 6.25 14.15 5.85 14.65 5.4 15.55 5.4 M21.6 5.5 L23.4 5.5 21.2 9.3 23.7 14.1 21.85 14.1 19.65 9.55 19.6 9.55 19.6 14.1 18.0 14.1 18.0 0.0 19.6 0.0 19.6 9.3 19.65 9.3 21.6 5.5" fill="#000000" fill-rule="evenodd" stroke="none"/>
    </g>
  </defs>
</svg>
