<?xml version="1.0" encoding="UTF-8" standalone="no"?>
<svg xmlns:ffdec="https://www.free-decompiler.com/flash" xmlns:xlink="http://www.w3.org/1999/xlink" ffdec:objectType="frame" height="26.05px" width="52.95px" xmlns="http://www.w3.org/2000/svg">
  <g transform="matrix(1.0, 0.0, 0.0, 1.0, 0.0, 0.0)">
    <use ffdec:characterId="1" height="26.0" transform="matrix(1.0, 0.0, 0.0, 1.0, 0.0, 0.0)" width="35.75" xlink:href="#shape0"/>
    <use ffdec:characterId="29" height="14.25" transform="matrix(1.0, 0.0, 0.0, 1.0, 10.1, 5.85)" width="17.15" xlink:href="#shape1"/>
    <use ffdec:characterId="29" height="14.25" transform="matrix(1.0, 0.0, 0.0, 1.0, 9.3, 5.25)" width="17.15" xlink:href="#shape1"/>
  </g>
  <defs>
    <g id="shape0" transform="matrix(1.0, 0.0, 0.0, 1.0, 0.0, 0.0)">
      <path d="M3.4 2.5 L17.5 2.6 21.85 2.9 32.3 2.5 32.6 19.35 32.3 23.55 17.2 23.8 3.4 23.55 3.25 17.3 4.05 11.9 3.4 2.5" fill="#7b7b7b" fill-rule="evenodd" stroke="none"/>
      <path d="M4.15 3.05 L17.55 3.15 21.65 3.45 31.55 3.05 31.85 19.05 31.55 23.0 17.25 23.25 4.15 23.0 4.0 17.05 4.75 11.95 4.15 3.05" fill="#000000" fill-rule="evenodd" stroke="none"/>
      <path d="M4.45 3.5 L12.7 3.45 15.55 3.15 21.25 4.6 31.4 4.45 32.15 9.8 30.35 12.25 28.1 18.45 31.25 22.4 24.0 23.75 17.3 21.5 10.65 22.95 6.2 20.8 7.7 16.85 5.1 10.75 5.75 7.15 3.15 3.25" fill="#000000" fill-rule="evenodd" stroke="none"/>
      <path d="M3.85 3.15 L8.4 2.8 10.0 2.8 13.05 3.35 18.65 4.25 21.8 4.6 24.3 3.55 27.2 3.95 31.95 4.1 31.05 7.0 30.85 8.3 29.7 11.65 31.0 13.6 31.9 16.85 31.5 18.05 32.75 20.5 31.05 22.5 27.1 23.35 23.45 23.65 21.25 24.2 18.65 23.95 13.05 22.9 9.85 23.0 7.75 23.7 3.2 22.95 4.2 20.95 3.4 17.15 3.6 16.05 4.7 12.4 4.15 9.95 4.15 7.45 3.7 5.05 3.05 3.3" fill="#000000" fill-rule="evenodd" stroke="none"/>
    </g>
    <g id="shape1" transform="matrix(1.0, 0.0, 0.0, 1.0, 0.0, 0.0)">
      <path d="M8.85 8.05 L8.55 7.2 Q8.3 6.85 7.95 6.8 7.5 6.85 7.25 7.2 L6.95 8.05 6.9 9.05 6.9 9.8 6.9 10.55 6.95 11.55 7.25 12.45 Q7.5 12.8 7.95 12.8 L8.55 12.45 8.85 11.55 8.95 10.55 8.95 9.8 8.95 9.05 8.85 8.05 M5.6 1.3 L5.6 2.75 3.7 2.75 3.7 14.1 2.0 14.1 2.0 2.75 0.0 2.75 0.0 1.3 5.6 1.3 M7.3 5.4 Q7.85 5.4 8.25 5.7 L8.85 6.45 8.9 6.45 8.9 5.5 10.5 5.5 10.5 14.1 8.9 14.1 8.9 13.0 8.85 13.0 8.3 13.9 Q7.95 14.25 7.25 14.25 6.55 14.2 6.1 13.75 L5.5 12.5 5.3 11.0 5.25 9.7 5.3 8.4 5.5 7.0 Q5.7 6.3 6.15 5.85 6.55 5.4 7.3 5.4 M13.85 7.2 Q13.65 7.55 13.6 8.05 L13.5 9.05 13.5 9.8 13.5 10.55 13.6 11.55 13.85 12.4 Q14.1 12.8 14.5 12.8 14.9 12.8 15.15 12.4 L15.45 11.55 15.55 10.55 15.55 9.8 15.55 9.05 15.45 8.05 15.15 7.15 Q14.9 6.8 14.5 6.8 14.1 6.8 13.85 7.2 M11.95 0.0 L13.55 0.0 13.55 6.45 13.85 6.0 14.15 5.65 14.55 5.45 15.1 5.4 Q15.85 5.4 16.25 5.85 L16.9 7.0 17.15 8.4 17.15 9.7 17.15 11.0 16.9 12.5 16.3 13.75 Q15.9 14.2 15.15 14.25 14.45 14.25 14.15 13.9 L13.55 13.0 13.55 14.1 11.95 14.1 11.95 0.0" fill="#000000" fill-rule="evenodd" stroke="none"/>
    </g>
  </defs>
</svg>
