<?xml version="1.0" encoding="UTF-8" standalone="no"?>
<svg xmlns:ffdec="https://www.free-decompiler.com/flash" xmlns:xlink="http://www.w3.org/1999/xlink" ffdec:objectType="frame" height="26.05px" width="52.95px" xmlns="http://www.w3.org/2000/svg">
  <g transform="matrix(1.0, 0.0, 0.0, 1.0, 0.0, 0.0)">
    <use ffdec:characterId="88" height="26.0" transform="matrix(1.0, 0.0, 0.0, 1.0, 0.0, 0.0)" width="52.95" xlink:href="#shape0"/>
    <use ffdec:characterId="106" height="12.95" transform="matrix(1.0, 0.0, 0.0, 1.0, 6.4, 7.15)" width="40.15" xlink:href="#shape1"/>
    <use ffdec:characterId="106" height="12.95" transform="matrix(1.0, 0.0, 0.0, 1.0, 6.4, 6.55)" width="40.15" xlink:href="#shape1"/>
  </g>
  <defs>
    <g id="shape0" transform="matrix(1.0, 0.0, 0.0, 1.0, 0.0, 0.0)">
      <path d="M5.0 2.5 L25.95 2.6 32.35 2.9 47.85 2.5 48.3 19.35 47.85 23.55 25.5 23.8 5.0 23.55 4.8 17.3 5.95 11.9 5.0 2.5" fill="#7b7b7b" fill-rule="evenodd" stroke="none"/>
      <path d="M6.15 3.05 L26.0 3.15 32.05 3.45 46.7 3.05 47.15 19.05 46.7 23.0 25.55 23.25 6.15 23.0 5.95 17.05 7.05 11.95 6.15 3.05" fill="#000000" fill-rule="evenodd" stroke="none"/>
      <path d="M6.55 3.5 L18.8 3.45 23.0 3.15 31.45 4.6 46.5 4.45 47.6 9.8 44.95 12.25 41.65 18.45 46.3 22.4 35.55 23.75 25.6 21.5 15.75 22.95 9.2 20.8 11.4 16.85 7.55 10.75 8.5 7.15 4.65 3.25" fill="#000000" fill-rule="evenodd" stroke="none"/>
      <path d="M5.75 3.15 L12.45 2.8 14.85 2.8 19.3 3.35 27.65 4.25 32.3 4.6 36.0 3.55 40.3 3.95 47.35 4.1 46.0 7.0 45.7 8.3 44.0 11.65 45.95 13.6 47.25 16.85 46.6 18.05 48.55 20.5 46.0 22.5 40.15 23.35 34.7 23.65 31.45 24.2 27.65 23.95 19.3 22.9 14.6 23.0 11.45 23.7 4.75 22.95 6.25 20.95 5.05 17.15 5.3 16.05 6.95 12.4 6.15 9.95 6.1 7.45 5.5 5.05 4.5 3.3" fill="#000000" fill-rule="evenodd" stroke="none"/>
    </g>
    <g id="shape1" transform="matrix(1.0, 0.0, 0.0, 1.0, 0.0, 0.0)">
      <path d="M4.65 9.7 L4.25 0.0 5.95 0.0 5.95 12.8 4.35 12.8 1.35 2.9 1.7 12.8 0.0 12.8 0.0 0.0 1.6 0.0 4.6 9.7 4.65 9.7 M11.55 3.55 L11.4 2.5 10.95 1.7 9.95 1.45 9.7 1.45 9.7 5.7 Q10.75 5.75 11.15 5.2 11.55 4.65 11.55 3.55 M11.15 0.05 L12.25 0.45 13.05 1.5 13.35 3.4 Q13.35 5.35 12.5 6.3 11.65 7.2 9.7 7.1 L9.7 12.8 8.0 12.8 8.0 0.0 10.05 0.0 11.15 0.05 M16.3 5.5 L18.85 5.5 18.85 6.95 16.3 6.95 16.3 11.3 19.15 11.3 19.15 12.8 14.6 12.8 14.6 0.0 19.15 0.0 19.15 1.45 16.3 1.45 16.3 5.5 M21.8 4.2 L21.8 5.2 21.85 5.2 22.15 4.7 Q22.3 4.5 22.5 4.4 L23.0 4.15 23.55 4.1 Q24.4 4.1 24.8 4.5 L25.25 5.6 25.3 6.9 25.3 12.8 23.7 12.8 23.7 6.85 23.65 6.25 23.4 5.75 Q23.2 5.5 22.75 5.5 22.25 5.55 22.05 5.85 21.85 6.2 21.8 6.6 L21.8 7.45 21.8 12.8 20.2 12.8 20.2 4.2 21.8 4.2 M26.25 4.2 L27.1 4.2 27.1 1.8 28.7 1.8 28.7 4.2 29.55 4.2 29.55 5.5 28.7 5.5 28.7 12.8 27.1 12.8 27.1 5.5 26.25 5.5 26.25 4.2 M33.4 5.75 L32.85 5.5 Q32.5 5.5 32.3 5.75 L32.0 6.35 31.95 7.05 31.95 7.7 33.85 7.7 33.8 7.05 33.7 6.35 33.4 5.75 M34.25 4.55 L35.05 5.65 35.4 7.1 35.45 8.55 35.45 8.8 31.95 8.8 31.95 9.55 32.05 10.45 32.35 11.2 Q32.55 11.5 32.95 11.5 L33.55 11.25 33.85 10.65 33.95 9.9 35.4 9.9 35.15 11.4 34.35 12.5 Q33.8 12.9 32.9 12.95 L31.5 12.5 30.7 11.45 30.35 10.0 30.3 8.55 30.35 7.15 Q30.45 6.35 30.7 5.65 30.95 4.95 31.45 4.55 32.0 4.1 32.85 4.1 33.75 4.1 34.25 4.55 M38.3 5.25 L38.35 5.25 39.05 4.4 40.15 4.1 40.15 5.65 39.9 5.65 Q39.0 5.65 38.65 6.1 38.3 6.55 38.3 7.4 L38.3 12.8 36.7 12.8 36.7 4.2 38.3 4.2 38.3 5.25" fill="#000000" fill-rule="evenodd" stroke="none"/>
    </g>
  </defs>
</svg>
