<?xml version="1.0" encoding="UTF-8" standalone="no"?>
<svg xmlns:ffdec="https://www.free-decompiler.com/flash" xmlns:xlink="http://www.w3.org/1999/xlink" ffdec:objectType="frame" height="26.05px" width="52.95px" xmlns="http://www.w3.org/2000/svg">
  <g transform="matrix(1.0, 0.0, 0.0, 1.0, 0.0, 0.0)">
    <use ffdec:characterId="1" height="26.0" transform="matrix(1.0, 0.0, 0.0, 1.0, 0.0, 0.0)" width="35.75" xlink:href="#shape0"/>
    <use ffdec:characterId="109" height="14.1" transform="matrix(1.0, 0.0, 0.0, 1.0, 8.65, 5.85)" width="20.0" xlink:href="#shape1"/>
    <use ffdec:characterId="109" height="14.1" transform="matrix(1.0, 0.0, 0.0, 1.0, 7.85, 5.25)" width="20.0" xlink:href="#shape1"/>
  </g>
  <defs>
    <g id="shape0" transform="matrix(1.0, 0.0, 0.0, 1.0, 0.0, 0.0)">
      <path d="M3.4 2.5 L17.5 2.6 21.85 2.9 32.3 2.5 32.6 19.35 32.3 23.55 17.2 23.8 3.4 23.55 3.25 17.3 4.05 11.9 3.4 2.5" fill="#7b7b7b" fill-rule="evenodd" stroke="none"/>
      <path d="M4.15 3.05 L17.55 3.15 21.65 3.45 31.55 3.05 31.85 19.05 31.55 23.0 17.25 23.25 4.15 23.0 4.0 17.05 4.75 11.95 4.15 3.05" fill="#000000" fill-rule="evenodd" stroke="none"/>
      <path d="M4.45 3.5 L12.7 3.45 15.55 3.15 21.25 4.6 31.4 4.45 32.15 9.8 30.35 12.25 28.1 18.45 31.25 22.4 24.0 23.75 17.3 21.5 10.65 22.95 6.2 20.8 7.7 16.85 5.1 10.75 5.75 7.15 3.15 3.25" fill="#000000" fill-rule="evenodd" stroke="none"/>
      <path d="M3.85 3.15 L8.4 2.8 10.0 2.8 13.05 3.35 18.65 4.25 21.8 4.6 24.3 3.55 27.2 3.95 31.95 4.1 31.05 7.0 30.85 8.3 29.7 11.65 31.0 13.6 31.9 16.85 31.5 18.05 32.75 20.5 31.05 22.5 27.1 23.35 23.45 23.65 21.25 24.2 18.65 23.95 13.05 22.9 9.85 23.0 7.75 23.7 3.2 22.95 4.2 20.95 3.4 17.15 3.6 16.05 4.7 12.4 4.15 9.95 4.15 7.45 3.7 5.05 3.05 3.3" fill="#000000" fill-rule="evenodd" stroke="none"/>
    </g>
    <g id="shape1" transform="matrix(1.0, 0.0, 0.0, 1.0, 0.0, 0.0)">
      <path d="M8.15 14.1 L6.45 14.1 9.25 1.3 10.6 1.3 13.35 14.1 11.65 14.1 11.15 11.6 8.6 11.6 8.15 14.1 M9.9 3.75 L8.85 10.25 10.9 10.25 9.9 3.75 M3.05 1.35 L4.1 1.7 4.9 2.7 Q5.2 3.35 5.2 4.55 L5.05 5.9 4.55 7.15 3.45 7.85 5.8 14.1 4.05 14.1 1.7 7.8 1.7 14.1 0.0 14.1 0.0 1.3 2.05 1.3 3.05 1.35 M1.95 2.75 L1.7 2.75 1.7 6.95 Q2.65 7.0 3.05 6.45 3.4 5.9 3.4 4.95 L3.3 3.8 2.9 3.0 Q2.6 2.7 1.95 2.75 M14.2 0.0 L15.8 0.0 15.8 14.1 14.2 14.1 14.2 0.0 M16.7 5.5 L17.55 5.5 17.55 3.1 19.15 3.1 19.15 5.5 20.0 5.5 20.0 6.8 19.15 6.8 19.15 14.1 17.55 14.1 17.55 6.8 16.7 6.8 16.7 5.5" fill="#000000" fill-rule="evenodd" stroke="none"/>
    </g>
  </defs>
</svg>
