<?xml version="1.0" encoding="UTF-8" standalone="no"?>
<svg xmlns:ffdec="https://www.free-decompiler.com/flash" xmlns:xlink="http://www.w3.org/1999/xlink" ffdec:objectType="frame" height="26.05px" width="52.95px" xmlns="http://www.w3.org/2000/svg">
  <g transform="matrix(1.0, 0.0, 0.0, 1.0, 0.0, 0.0)">
    <use ffdec:characterId="1" height="26.0" transform="matrix(1.0, 0.0, 0.0, 1.0, 0.0, 0.0)" width="35.75" xlink:href="#shape0"/>
    <use ffdec:characterId="110" height="13.15" transform="matrix(1.0, 0.0, 0.0, 1.0, 6.4, 7.0)" width="24.15" xlink:href="#shape1"/>
    <use ffdec:characterId="110" height="13.15" transform="matrix(1.0, 0.0, 0.0, 1.0, 5.8, 6.4)" width="24.15" xlink:href="#shape1"/>
  </g>
  <defs>
    <g id="shape0" transform="matrix(1.0, 0.0, 0.0, 1.0, 0.0, 0.0)">
      <path d="M3.4 2.5 L17.5 2.6 21.85 2.9 32.3 2.5 32.6 19.35 32.3 23.55 17.2 23.8 3.4 23.55 3.25 17.3 4.05 11.9 3.4 2.5" fill="#7b7b7b" fill-rule="evenodd" stroke="none"/>
      <path d="M4.15 3.05 L17.55 3.15 21.65 3.45 31.55 3.05 31.85 19.05 31.55 23.0 17.25 23.25 4.15 23.0 4.0 17.05 4.75 11.95 4.15 3.05" fill="#000000" fill-rule="evenodd" stroke="none"/>
      <path d="M4.45 3.5 L12.7 3.45 15.55 3.15 21.25 4.6 31.4 4.45 32.15 9.8 30.35 12.25 28.1 18.45 31.25 22.4 24.0 23.75 17.3 21.5 10.65 22.95 6.2 20.8 7.7 16.85 5.1 10.75 5.75 7.15 3.15 3.25" fill="#000000" fill-rule="evenodd" stroke="none"/>
      <path d="M3.85 3.15 L8.4 2.8 10.0 2.8 13.05 3.35 18.65 4.25 21.8 4.6 24.3 3.55 27.2 3.95 31.95 4.1 31.05 7.0 30.85 8.3 29.7 11.65 31.0 13.6 31.9 16.85 31.5 18.05 32.75 20.5 31.05 22.5 27.1 23.35 23.45 23.65 21.25 24.2 18.65 23.95 13.05 22.9 9.85 23.0 7.75 23.7 3.2 22.95 4.2 20.95 3.4 17.15 3.6 16.05 4.7 12.4 4.15 9.95 4.15 7.45 3.7 5.05 3.05 3.3" fill="#000000" fill-rule="evenodd" stroke="none"/>
    </g>
    <g id="shape1" transform="matrix(1.0, 0.0, 0.0, 1.0, 0.0, 0.0)">
      <path d="M3.4 2.7 L2.95 1.9 1.95 1.65 1.7 1.65 1.7 5.9 Q2.75 5.95 3.15 5.4 3.55 4.85 3.55 3.75 L3.4 2.7 M4.25 0.65 L5.05 1.7 5.35 3.6 Q5.35 5.55 4.5 6.5 3.65 7.4 1.7 7.3 L1.7 13.0 0.0 13.0 0.0 0.2 2.05 0.2 3.15 0.25 4.25 0.65 M9.75 5.85 L9.5 5.85 Q8.6 5.85 8.25 6.3 7.9 6.75 7.9 7.6 L7.9 13.0 6.3 13.0 6.3 4.4 7.9 4.4 7.9 5.45 7.95 5.45 8.65 4.6 Q9.1 4.3 9.75 4.3 L9.75 5.85 M10.3 5.7 L10.3 4.4 11.15 4.4 11.15 2.0 12.75 2.0 12.75 4.4 13.6 4.4 13.6 5.7 12.75 5.7 12.75 13.0 11.15 13.0 11.15 5.7 10.3 5.7 M18.0 0.1 L18.85 0.45 18.85 2.15 18.15 1.75 17.4 1.6 Q16.7 1.65 16.3 2.1 15.9 2.55 15.9 3.25 L16.0 4.0 16.35 4.65 17.65 6.05 18.6 7.15 19.25 8.35 19.45 9.8 Q19.45 10.75 19.1 11.5 L18.05 12.7 16.45 13.15 15.45 13.0 Q15.0 12.9 14.6 12.55 L14.6 10.85 15.35 11.3 16.25 11.5 17.1 11.25 17.6 10.6 17.75 9.7 Q17.75 8.95 17.4 8.4 L16.5 7.35 15.45 6.3 14.55 5.0 Q14.2 4.3 14.15 3.3 14.15 2.4 14.5 1.65 14.8 0.9 15.45 0.45 16.1 0.0 17.05 0.0 L18.0 0.1 M21.5 4.75 Q22.0 4.3 22.9 4.3 L23.55 4.35 24.15 4.55 24.15 6.2 23.85 5.9 23.4 5.75 Q22.85 5.8 22.6 6.1 22.3 6.4 22.15 6.85 L22.0 7.8 22.0 8.65 22.0 9.45 22.15 10.45 22.55 11.3 Q22.85 11.65 23.35 11.65 L23.8 11.55 24.15 11.3 24.15 12.8 23.55 13.05 22.85 13.15 Q22.05 13.1 21.55 12.7 21.0 12.25 20.75 11.6 20.5 10.95 20.4 10.2 L20.35 8.8 20.4 7.35 Q20.5 6.55 20.75 5.85 21.0 5.15 21.5 4.75" fill="#000000" fill-rule="evenodd" stroke="none"/>
    </g>
  </defs>
</svg>
