<?xml version="1.0" encoding="UTF-8" standalone="no"?>
<svg xmlns:ffdec="https://www.free-decompiler.com/flash" xmlns:xlink="http://www.w3.org/1999/xlink" ffdec:objectType="frame" height="26.05px" width="52.95px" xmlns="http://www.w3.org/2000/svg">
  <g transform="matrix(1.0, 0.0, 0.0, 1.0, 0.0, 0.0)">
    <use ffdec:characterId="27" height="26.0" transform="matrix(1.0, 0.0, 0.0, 1.0, 0.0, 0.0)" width="41.75" xlink:href="#shape0"/>
    <use ffdec:characterId="42" height="12.95" transform="matrix(1.0, 0.0, 0.0, 1.0, 8.9, 7.2)" width="25.55" xlink:href="#shape1"/>
    <use ffdec:characterId="42" height="12.95" transform="matrix(1.0, 0.0, 0.0, 1.0, 8.1, 6.6)" width="25.55" xlink:href="#shape1"/>
  </g>
  <defs>
    <g id="shape0" transform="matrix(1.0, 0.0, 0.0, 1.0, 0.0, 0.0)">
      <path d="M3.95 2.5 L20.45 2.6 25.5 2.9 37.7 2.5 38.1 19.35 37.7 23.55 20.1 23.8 3.95 23.55 3.8 17.3 4.7 11.9 3.95 2.5" fill="#7b7b7b" fill-rule="evenodd" stroke="none"/>
      <path d="M4.85 3.05 L20.5 3.15 25.25 3.45 36.8 3.05 37.2 19.05 36.8 23.0 20.15 23.25 4.85 23.0 4.7 17.05 5.55 11.95 4.85 3.05" fill="#000000" fill-rule="evenodd" stroke="none"/>
      <path d="M5.2 3.5 L14.85 3.45 18.15 3.15 24.8 4.6 36.7 4.45 37.5 9.8 35.45 12.25 32.85 18.45 36.5 22.4 28.05 23.75 20.2 21.5 12.45 22.95 7.25 20.8 9.0 16.85 5.95 10.75 6.7 7.15 3.7 3.25" fill="#000000" fill-rule="evenodd" stroke="none"/>
      <path d="M4.5 3.15 L9.8 2.8 11.7 2.8 15.25 3.35 21.8 4.25 25.45 4.6 28.4 3.55 31.8 3.95 37.3 4.1 36.3 7.0 36.0 8.3 34.7 11.65 36.2 13.6 37.25 16.85 36.75 18.05 38.25 20.5 36.3 22.5 31.65 23.35 27.35 23.65 24.8 24.2 21.8 23.95 15.25 22.9 11.5 23.0 9.05 23.7 3.75 22.95 4.9 20.95 3.95 17.15 4.2 16.05 5.45 12.4 4.85 9.95 4.8 7.45 4.3 5.05 3.55 3.3" fill="#000000" fill-rule="evenodd" stroke="none"/>
    </g>
    <g id="shape1" transform="matrix(1.0, 0.0, 0.0, 1.0, 0.0, 0.0)">
      <path d="M4.55 1.45 L1.7 1.45 1.7 5.5 4.25 5.5 4.25 6.95 1.7 6.95 1.7 11.3 4.55 11.3 4.55 12.8 0.0 12.8 0.0 0.0 4.55 0.0 4.55 1.45 M10.2 4.5 L10.65 5.6 10.7 6.9 10.7 12.8 9.1 12.8 9.1 6.85 9.05 6.25 8.8 5.75 8.15 5.5 Q7.65 5.55 7.45 5.85 L7.2 6.6 7.2 7.45 7.2 12.8 5.6 12.8 5.6 4.2 7.2 4.2 7.2 5.2 7.25 5.2 7.55 4.7 7.9 4.4 8.4 4.15 8.95 4.1 Q9.8 4.1 10.2 4.5 M11.65 4.2 L12.5 4.2 12.5 1.8 14.1 1.8 14.1 4.2 14.95 4.2 14.95 5.5 14.1 5.5 14.1 12.8 12.5 12.8 12.5 5.5 11.65 5.5 11.65 4.2 M18.25 5.5 Q17.9 5.5 17.7 5.75 L17.4 6.35 17.35 7.05 17.35 7.7 19.25 7.7 19.2 7.05 19.1 6.35 18.8 5.75 Q18.6 5.5 18.25 5.5 M20.85 8.55 L20.85 8.8 17.35 8.8 17.35 9.55 17.45 10.45 17.75 11.2 Q17.95 11.5 18.35 11.5 L18.95 11.25 19.25 10.65 19.35 9.9 20.8 9.9 20.55 11.4 19.75 12.5 18.3 12.95 Q17.4 12.9 16.9 12.5 16.35 12.1 16.1 11.45 L15.75 10.0 15.7 8.55 15.75 7.15 Q15.85 6.35 16.1 5.65 16.35 4.95 16.85 4.55 17.4 4.1 18.25 4.1 19.15 4.1 19.65 4.55 20.15 4.95 20.45 5.65 L20.8 7.1 20.85 8.55 M25.55 4.1 L25.55 5.65 25.3 5.65 Q24.4 5.65 24.05 6.1 23.7 6.55 23.7 7.4 L23.7 12.8 22.1 12.8 22.1 4.2 23.7 4.2 23.7 5.25 23.75 5.25 24.45 4.4 Q24.9 4.1 25.55 4.1" fill="#000000" fill-rule="evenodd" stroke="none"/>
    </g>
  </defs>
</svg>
