<?xml version="1.0" encoding="UTF-8" standalone="no"?>
<svg xmlns:ffdec="https://www.free-decompiler.com/flash" xmlns:xlink="http://www.w3.org/1999/xlink" ffdec:objectType="frame" height="26.05px" width="52.95px" xmlns="http://www.w3.org/2000/svg">
  <g transform="matrix(1.0, 0.0, 0.0, 1.0, 0.0, 0.0)">
    <use ffdec:characterId="1" height="26.0" transform="matrix(1.0, 0.0, 0.0, 1.0, 0.0, 0.0)" width="35.75" xlink:href="#shape0"/>
    <use ffdec:characterId="139" height="13.15" transform="matrix(1.0, 0.0, 0.0, 1.0, 10.45, 7.05)" width="16.4" xlink:href="#shape1"/>
    <use ffdec:characterId="139" height="13.15" transform="matrix(1.0, 0.0, 0.0, 1.0, 9.65, 6.45)" width="16.4" xlink:href="#shape1"/>
  </g>
  <defs>
    <g id="shape0" transform="matrix(1.0, 0.0, 0.0, 1.0, 0.0, 0.0)">
      <path d="M3.4 2.5 L17.5 2.6 21.85 2.9 32.3 2.5 32.6 19.35 32.3 23.55 17.2 23.8 3.4 23.55 3.25 17.3 4.05 11.9 3.4 2.5" fill="#7b7b7b" fill-rule="evenodd" stroke="none"/>
      <path d="M4.15 3.05 L17.55 3.15 21.65 3.45 31.55 3.05 31.85 19.05 31.55 23.0 17.25 23.25 4.15 23.0 4.0 17.05 4.75 11.95 4.15 3.05" fill="#000000" fill-rule="evenodd" stroke="none"/>
      <path d="M4.45 3.5 L12.7 3.45 15.55 3.15 21.25 4.6 31.4 4.45 32.15 9.8 30.35 12.25 28.1 18.45 31.25 22.4 24.0 23.75 17.3 21.5 10.65 22.95 6.2 20.8 7.7 16.85 5.1 10.75 5.75 7.15 3.15 3.25" fill="#000000" fill-rule="evenodd" stroke="none"/>
      <path d="M3.85 3.15 L8.4 2.8 10.0 2.8 13.05 3.35 18.65 4.25 21.8 4.6 24.3 3.55 27.2 3.95 31.95 4.1 31.05 7.0 30.85 8.3 29.7 11.65 31.0 13.6 31.9 16.85 31.5 18.05 32.75 20.5 31.05 22.5 27.1 23.35 23.45 23.65 21.25 24.2 18.65 23.95 13.05 22.9 9.85 23.0 7.75 23.7 3.2 22.95 4.2 20.95 3.4 17.15 3.6 16.05 4.7 12.4 4.15 9.95 4.15 7.45 3.7 5.05 3.05 3.3" fill="#000000" fill-rule="evenodd" stroke="none"/>
    </g>
    <g id="shape1" transform="matrix(1.0, 0.0, 0.0, 1.0, 0.0, 0.0)">
      <path d="M8.8 11.4 L9.1 12.1 8.8 12.85 Q8.5 13.15 8.05 13.15 7.65 13.15 7.35 12.85 7.05 12.55 7.05 12.1 7.05 11.7 7.35 11.4 7.65 11.1 8.05 11.1 8.5 11.1 8.8 11.4 M1.25 12.1 Q1.25 11.7 1.55 11.4 1.85 11.1 2.25 11.1 2.7 11.1 3.0 11.4 L3.3 12.1 3.0 12.85 Q2.7 13.15 2.25 13.15 L1.55 12.85 Q1.25 12.55 1.25 12.1 M4.0 0.55 Q4.55 1.1 4.7 1.95 L4.8 3.85 4.8 4.95 4.6 6.05 4.05 6.9 Q3.7 7.25 3.05 7.25 L3.05 10.0 1.55 10.0 1.55 6.1 1.95 6.15 Q2.55 6.15 2.8 5.8 L3.15 5.05 3.2 4.05 3.2 3.4 3.15 2.5 2.9 1.8 2.35 1.45 Q1.95 1.5 1.8 1.75 1.65 2.0 1.65 2.4 L1.6 3.05 1.6 3.35 0.0 3.35 0.0 3.15 Q0.0 2.3 0.15 1.6 0.3 0.85 0.8 0.45 1.25 0.0 2.3 0.0 3.45 0.05 4.0 0.55 M13.85 11.1 Q14.3 11.1 14.6 11.4 L14.9 12.1 14.6 12.85 Q14.3 13.15 13.85 13.15 13.45 13.15 13.15 12.85 12.85 12.55 12.85 12.1 12.85 11.7 13.15 11.4 13.45 11.1 13.85 11.1 M10.6 4.95 L10.4 6.05 9.85 6.9 Q9.5 7.25 8.85 7.25 L8.85 10.0 7.35 10.0 7.35 6.1 7.75 6.15 Q8.35 6.15 8.6 5.8 L8.95 5.05 9.0 4.05 9.0 3.4 8.95 2.5 8.7 1.8 Q8.5 1.5 8.15 1.45 7.75 1.5 7.6 1.75 7.45 2.0 7.45 2.4 L7.4 3.05 7.4 3.35 5.8 3.35 5.8 3.15 Q5.8 2.3 5.95 1.6 6.1 0.85 6.6 0.45 7.05 0.0 8.1 0.0 9.25 0.05 9.8 0.55 10.35 1.1 10.5 1.95 L10.6 3.85 10.6 4.95 M16.3 1.95 L16.4 3.85 16.4 4.95 16.2 6.05 15.65 6.9 14.65 7.25 14.65 10.0 13.15 10.0 13.15 6.1 13.55 6.15 Q14.15 6.15 14.4 5.8 L14.75 5.05 14.8 4.05 14.8 3.4 14.75 2.5 14.5 1.8 Q14.3 1.5 13.95 1.45 L13.4 1.75 Q13.25 2.0 13.25 2.4 L13.2 3.05 13.2 3.35 11.6 3.35 11.6 3.15 Q11.6 2.3 11.75 1.6 11.9 0.85 12.4 0.45 12.85 0.0 13.9 0.0 15.05 0.05 15.6 0.55 16.15 1.1 16.3 1.95" fill="#000000" fill-rule="evenodd" stroke="none"/>
    </g>
  </defs>
</svg>
