<?xml version="1.0" encoding="UTF-8" standalone="no"?>
<svg xmlns:ffdec="https://www.free-decompiler.com/flash" xmlns:xlink="http://www.w3.org/1999/xlink" ffdec:objectType="frame" height="26.05px" width="52.95px" xmlns="http://www.w3.org/2000/svg">
  <g transform="matrix(1.0, 0.0, 0.0, 1.0, 0.0, 0.0)">
    <use ffdec:characterId="1" height="26.0" transform="matrix(1.0, 0.0, 0.0, 1.0, 0.0, 0.0)" width="35.75" xlink:href="#shape0"/>
    <use ffdec:characterId="43" height="14.25" transform="matrix(1.0, 0.0, 0.0, 1.0, 7.5, 5.9)" width="22.3" xlink:href="#shape1"/>
    <use ffdec:characterId="43" height="14.25" transform="matrix(1.0, 0.0, 0.0, 1.0, 6.7, 5.3)" width="22.3" xlink:href="#shape1"/>
  </g>
  <defs>
    <g id="shape0" transform="matrix(1.0, 0.0, 0.0, 1.0, 0.0, 0.0)">
      <path d="M3.4 2.5 L17.5 2.6 21.85 2.9 32.3 2.5 32.6 19.35 32.3 23.55 17.2 23.8 3.4 23.55 3.25 17.3 4.05 11.9 3.4 2.5" fill="#7b7b7b" fill-rule="evenodd" stroke="none"/>
      <path d="M4.15 3.05 L17.55 3.15 21.65 3.45 31.55 3.05 31.85 19.05 31.55 23.0 17.25 23.25 4.15 23.0 4.0 17.05 4.75 11.95 4.15 3.05" fill="#000000" fill-rule="evenodd" stroke="none"/>
      <path d="M4.45 3.5 L12.7 3.45 15.55 3.15 21.25 4.6 31.4 4.45 32.15 9.8 30.35 12.25 28.1 18.45 31.25 22.4 24.0 23.75 17.3 21.5 10.65 22.95 6.2 20.8 7.7 16.85 5.1 10.75 5.75 7.15 3.15 3.25" fill="#000000" fill-rule="evenodd" stroke="none"/>
      <path d="M3.85 3.15 L8.4 2.8 10.0 2.8 13.05 3.35 18.65 4.25 21.8 4.6 24.3 3.55 27.2 3.95 31.95 4.1 31.05 7.0 30.85 8.3 29.7 11.65 31.0 13.6 31.9 16.85 31.5 18.05 32.75 20.5 31.05 22.5 27.1 23.35 23.45 23.65 21.25 24.2 18.65 23.95 13.05 22.9 9.85 23.0 7.75 23.7 3.2 22.95 4.2 20.95 3.4 17.15 3.6 16.05 4.7 12.4 4.15 9.95 4.15 7.45 3.7 5.05 3.05 3.3" fill="#000000" fill-rule="evenodd" stroke="none"/>
    </g>
    <g id="shape1" transform="matrix(1.0, 0.0, 0.0, 1.0, 0.0, 0.0)">
      <path d="M0.0 1.3 L1.7 1.3 1.7 12.6 4.55 12.6 4.55 14.1 0.0 14.1 0.0 1.3 M12.7 3.1 L14.3 3.1 14.3 5.5 15.15 5.5 15.15 6.8 14.3 6.8 14.3 14.1 12.7 14.1 12.7 6.8 11.85 6.8 11.85 5.5 12.7 5.5 12.7 3.1 M11.4 3.05 L10.9 2.8 10.3 2.7 Q9.6 2.7 9.15 3.1 L8.45 4.05 8.05 5.3 7.95 6.65 7.9 7.75 7.95 9.25 8.25 10.85 Q8.5 11.65 9.0 12.15 9.5 12.65 10.4 12.65 L10.9 12.6 11.4 12.4 11.4 13.9 10.75 14.2 10.05 14.25 Q8.75 14.25 7.95 13.65 7.2 13.05 6.8 12.1 6.4 11.15 6.25 10.0 L6.1 7.9 6.15 6.2 6.45 4.4 Q6.65 3.5 7.1 2.75 7.5 2.0 8.2 1.55 8.9 1.15 9.9 1.1 L10.7 1.2 11.4 1.5 11.4 3.05 M16.15 5.5 L17.75 5.5 17.75 6.55 17.8 6.55 18.5 5.7 Q18.95 5.4 19.6 5.4 L19.6 6.95 19.35 6.95 Q18.45 6.95 18.1 7.4 17.75 7.85 17.75 8.7 L17.75 14.1 16.15 14.1 16.15 5.5 M20.7 0.0 L22.3 0.0 22.3 14.1 20.7 14.1 20.7 0.0" fill="#000000" fill-rule="evenodd" stroke="none"/>
    </g>
  </defs>
</svg>
