<?xml version="1.0" encoding="UTF-8" standalone="no"?>
<svg xmlns:ffdec="https://www.free-decompiler.com/flash" xmlns:xlink="http://www.w3.org/1999/xlink" ffdec:objectType="frame" height="26.05px" width="52.95px" xmlns="http://www.w3.org/2000/svg">
  <g transform="matrix(1.0, 0.0, 0.0, 1.0, 0.0, 0.0)">
    <use ffdec:characterId="1" height="26.0" transform="matrix(1.0, 0.0, 0.0, 1.0, 0.0, 0.0)" width="35.75" xlink:href="#shape0"/>
    <use ffdec:characterId="143" height="12.95" transform="matrix(1.0, 0.0, 0.0, 1.0, 5.45, 7.15)" width="32.45" xlink:href="#shape1"/>
    <use ffdec:characterId="143" height="12.95" transform="matrix(1.0, 0.0, 0.0, 1.0, 4.65, 6.55)" width="32.45" xlink:href="#shape1"/>
  </g>
  <defs>
    <g id="shape0" transform="matrix(1.0, 0.0, 0.0, 1.0, 0.0, 0.0)">
      <path d="M3.4 2.5 L17.5 2.6 21.85 2.9 32.3 2.5 32.6 19.35 32.3 23.55 17.2 23.8 3.4 23.55 3.25 17.3 4.05 11.9 3.4 2.5" fill="#7b7b7b" fill-rule="evenodd" stroke="none"/>
      <path d="M4.15 3.05 L17.55 3.15 21.65 3.45 31.55 3.05 31.85 19.05 31.55 23.0 17.25 23.25 4.15 23.0 4.0 17.05 4.75 11.95 4.15 3.05" fill="#000000" fill-rule="evenodd" stroke="none"/>
      <path d="M4.45 3.5 L12.7 3.45 15.55 3.15 21.25 4.6 31.4 4.45 32.15 9.8 30.35 12.25 28.1 18.45 31.25 22.4 24.0 23.75 17.3 21.5 10.65 22.95 6.2 20.8 7.7 16.85 5.1 10.75 5.75 7.15 3.15 3.25" fill="#000000" fill-rule="evenodd" stroke="none"/>
      <path d="M3.85 3.15 L8.4 2.8 10.0 2.8 13.05 3.35 18.65 4.25 21.8 4.6 24.3 3.55 27.2 3.95 31.95 4.1 31.05 7.0 30.85 8.3 29.7 11.65 31.0 13.6 31.9 16.85 31.5 18.05 32.75 20.5 31.05 22.5 27.1 23.35 23.45 23.65 21.25 24.2 18.65 23.95 13.05 22.9 9.85 23.0 7.75 23.7 3.2 22.95 4.2 20.95 3.4 17.15 3.6 16.05 4.7 12.4 4.15 9.95 4.15 7.45 3.7 5.05 3.05 3.3" fill="#000000" fill-rule="evenodd" stroke="none"/>
    </g>
    <g id="shape1" transform="matrix(1.0, 0.0, 0.0, 1.0, 0.0, 0.0)">
      <path d="M6.05 0.0 L7.55 0.0 8.75 12.8 7.05 12.8 6.6 3.95 4.95 12.8 3.8 12.8 2.15 3.95 2.1 3.95 1.65 12.8 0.0 12.8 1.05 0.0 2.5 0.0 4.35 9.25 4.4 9.25 4.45 8.7 6.05 0.0 M13.8 4.5 L14.6 5.6 14.95 7.05 15.05 8.55 14.95 10.0 14.6 11.4 13.8 12.5 Q13.25 12.9 12.35 12.95 11.45 12.9 10.9 12.5 L10.05 11.4 9.7 10.0 9.65 8.55 9.7 7.05 Q9.8 6.3 10.05 5.6 L10.9 4.5 Q11.45 4.1 12.35 4.1 13.25 4.1 13.8 4.5 M13.05 5.9 Q12.8 5.55 12.35 5.55 11.9 5.55 11.65 5.9 L11.35 6.8 11.25 7.8 11.3 8.55 11.25 9.25 11.35 10.25 11.65 11.1 Q11.9 11.45 12.35 11.5 L13.05 11.1 13.35 10.25 13.4 9.25 13.4 8.55 13.4 7.8 13.35 6.8 13.05 5.9 M21.4 10.0 L21.2 11.55 20.4 12.6 18.9 12.95 Q17.75 12.95 17.2 12.55 16.6 12.15 16.4 11.4 16.25 10.65 16.25 9.7 L16.25 4.2 17.85 4.2 17.85 9.6 17.85 10.45 Q17.9 10.85 18.1 11.15 18.3 11.45 18.85 11.5 L19.55 11.2 19.75 10.5 19.8 9.7 19.8 4.2 21.4 4.2 21.4 10.0 M26.1 4.45 L26.1 5.95 25.5 5.65 24.9 5.5 Q24.45 5.5 24.15 5.75 23.8 6.0 23.8 6.45 23.85 6.95 24.25 7.3 L25.15 8.05 26.05 8.95 Q26.45 9.5 26.5 10.4 26.45 11.55 25.85 12.25 25.2 12.9 24.05 12.95 L23.3 12.85 22.65 12.55 22.65 10.95 23.25 11.35 23.95 11.5 24.75 11.2 25.0 10.45 24.75 9.65 24.1 9.05 23.3 8.45 22.6 7.6 22.35 6.45 Q22.35 5.4 23.0 4.75 23.6 4.1 24.65 4.1 L25.4 4.15 26.1 4.45 M30.8 7.05 L30.7 6.35 30.4 5.75 Q30.2 5.5 29.85 5.5 29.5 5.5 29.3 5.75 L29.0 6.35 28.95 7.05 28.95 7.7 30.85 7.7 30.8 7.05 M31.25 4.55 Q31.75 4.95 32.05 5.65 L32.4 7.1 32.45 8.55 32.45 8.8 28.95 8.8 28.95 9.55 29.05 10.45 29.35 11.2 Q29.55 11.5 29.95 11.5 L30.55 11.25 30.85 10.65 30.95 9.9 32.4 9.9 32.15 11.4 31.35 12.5 Q30.8 12.9 29.9 12.95 29.0 12.9 28.5 12.5 27.95 12.1 27.7 11.45 L27.35 10.0 27.3 8.55 27.35 7.15 Q27.45 6.35 27.7 5.65 27.95 4.95 28.45 4.55 29.0 4.1 29.85 4.1 30.75 4.1 31.25 4.55" fill="#000000" fill-rule="evenodd" stroke="none"/>
    </g>
  </defs>
</svg>
