<?xml version="1.0" encoding="UTF-8" standalone="no"?>
<svg xmlns:ffdec="https://www.free-decompiler.com/flash" xmlns:xlink="http://www.w3.org/1999/xlink" ffdec:objectType="frame" height="26.05px" width="52.95px" xmlns="http://www.w3.org/2000/svg">
  <g transform="matrix(1.0, 0.0, 0.0, 1.0, 0.0, 0.0)">
    <use ffdec:characterId="3" height="26.0" transform="matrix(1.0, 0.0, 0.0, 1.0, 0.0, 0.0)" width="26.0" xlink:href="#shape0"/>
    <use ffdec:characterId="45" height="13.15" transform="matrix(1.0, 0.0, 0.0, 1.0, 11.25, 6.8)" width="5.3" xlink:href="#shape1"/>
    <use ffdec:characterId="45" height="13.15" transform="matrix(1.0, 0.0, 0.0, 1.0, 10.45, 6.2)" width="5.3" xlink:href="#shape1"/>
  </g>
  <defs>
    <g id="shape0" transform="matrix(1.0, 0.0, 0.0, 1.0, 0.0, 0.0)">
      <path d="M2.45 2.5 L12.75 2.6 15.9 2.9 23.5 2.5 23.7 19.35 23.5 23.55 12.5 23.8 2.45 23.55 2.35 17.3 2.95 11.9 2.45 2.5" fill="#7b7b7b" fill-rule="evenodd" stroke="none"/>
      <path d="M3.0 3.05 L12.75 3.15 15.75 3.45 22.95 3.05 23.15 19.05 22.95 23.0 12.55 23.25 3.0 23.0 2.9 17.05 3.45 11.95 3.0 3.05" fill="#000000" fill-rule="evenodd" stroke="none"/>
      <path d="M3.2 3.5 L9.25 3.45 11.3 3.15 15.45 4.6 22.85 4.45 23.35 9.8 22.1 12.25 20.45 18.45 22.75 22.4 17.45 23.75 12.55 21.5 7.75 22.95 4.5 20.8 5.6 16.85 3.7 10.75 4.15 7.15 2.3 3.25" fill="#000000" fill-rule="evenodd" stroke="none"/>
      <path d="M2.8 3.15 L6.1 2.8 7.3 2.8 9.5 3.35 13.55 4.25 15.85 4.6 17.7 3.55 19.8 3.95 23.25 4.1 22.6 7.0 22.45 8.3 21.6 11.65 22.55 13.6 23.2 16.85 22.9 18.05 23.85 20.5 22.6 22.5 19.7 23.35 17.05 23.65 15.45 24.2 13.55 23.95 9.5 22.9 7.15 23.0 5.65 23.7 2.35 22.95 3.05 20.95 2.45 17.15 2.6 16.05 3.4 12.4 3.05 9.95 3.0 7.45 2.7 5.05 2.2 3.3" fill="#000000" fill-rule="evenodd" stroke="none"/>
    </g>
    <g id="shape1" transform="matrix(1.0, 0.0, 0.0, 1.0, 0.0, 0.0)">
      <path d="M2.9 0.0 L3.85 0.1 Q4.3 0.2 4.7 0.45 L4.7 2.15 4.0 1.75 3.25 1.6 Q2.55 1.65 2.15 2.1 1.75 2.55 1.75 3.25 L1.85 4.0 2.2 4.65 3.5 6.05 4.45 7.15 5.1 8.35 5.3 9.8 Q5.3 10.75 4.95 11.5 L3.9 12.7 2.3 13.15 1.3 13.0 0.45 12.55 0.45 10.85 1.2 11.3 2.1 11.5 2.95 11.25 3.45 10.6 3.6 9.7 Q3.6 8.95 3.25 8.4 L2.35 7.35 1.3 6.3 0.4 5.0 Q0.05 4.3 0.0 3.3 0.0 2.4 0.35 1.65 0.65 0.9 1.3 0.45 1.95 0.0 2.9 0.0" fill="#000000" fill-rule="evenodd" stroke="none"/>
    </g>
  </defs>
</svg>
