<?xml version="1.0" encoding="UTF-8" standalone="no"?>
<svg xmlns:ffdec="https://www.free-decompiler.com/flash" xmlns:xlink="http://www.w3.org/1999/xlink" ffdec:objectType="frame" height="26.05px" width="52.95px" xmlns="http://www.w3.org/2000/svg">
  <g transform="matrix(1.0, 0.0, 0.0, 1.0, 0.0, 0.0)">
    <use ffdec:characterId="132" height="26.0" transform="matrix(1.0, 0.0, 0.0, 1.0, 0.05, 0.05)" width="26.0" xlink:href="#shape0"/>
    <use ffdec:characterId="151" height="10.85" transform="matrix(1.0, 0.0, 0.0, 1.0, 7.5, 7.3)" width="12.7" xlink:href="#shape1"/>
    <use ffdec:characterId="151" height="10.85" transform="matrix(1.0, 0.0, 0.0, 1.0, 6.7, 6.7)" width="12.7" xlink:href="#shape1"/>
  </g>
  <defs>
    <g id="shape0" transform="matrix(1.0, 0.0, 0.0, 1.0, -0.05, -0.05)">
      <path d="M19.5 23.35 Q19.65 23.25 19.85 23.15 20.05 23.0 20.2 22.85 20.4 22.7 20.55 22.5 20.7 22.35 20.9 22.15 21.05 22.0 21.2 21.75 21.35 21.65 21.5 21.4 21.75 21.1 21.75 21.1 21.9 20.9 22.0 20.8 22.0 20.75 22.05 20.7 22.05 20.7 22.05 20.65 22.1 20.6 22.1 20.6 22.15 20.55 22.2 20.5 22.25 20.45 22.3 20.45 22.4 20.35 22.6 20.15 22.75 20.05 22.95 19.85 23.55 19.35 23.35 19.55 23.55 19.35 23.7 19.2 23.95 19.0 24.1 18.85 24.3 18.65 24.45 18.5 24.6 18.3 24.7 18.15 24.8 17.95 24.85 17.8 24.9 17.65 25.0 17.45 25.1 17.3 25.2 17.1 25.3 17.0 25.45 16.8 25.65 16.55 25.7 16.5 25.85 16.3 25.9 16.2 26.05 16.0 26.1 15.85 26.2 15.65 26.2 15.5 26.25 15.3 26.25 15.1 26.35 15.05 26.4 14.95 26.45 14.85 26.45 14.75 26.45 14.6 26.45 14.5 26.45 14.35 26.45 14.2 26.4 14.1 26.35 13.9 26.3 13.75 26.25 13.6 26.15 13.45 26.1 13.25 26.0 13.1 25.9 12.9 25.95 12.8 25.95 12.7 25.95 12.6 25.95 12.45 25.95 12.35 25.9 12.25 25.9 12.15 25.85 12.0 25.8 11.9 25.8 11.8 25.75 11.65 25.7 11.55 25.65 11.45 25.55 11.3 25.5 11.2 25.45 11.1 25.45 11.05 25.4 11.0 25.4 11.0 25.4 10.95 25.4 10.9 25.35 10.85 25.35 10.85 25.35 10.8 25.3 10.75 25.3 10.75 25.25 10.7 25.25 10.7 25.25 10.65 25.2 10.65 25.2 10.6 25.15 10.6 25.05 10.45 24.9 10.2 24.75 9.9 24.7 9.8 24.7 9.75 24.65 9.7 24.65 9.7 24.6 9.65 24.55 9.6 24.55 9.6 24.5 9.6 24.5 9.55 24.45 9.55 24.45 9.55 24.4 9.55 24.4 9.55 24.35 9.5 24.3 9.5 24.3 9.5 24.25 9.5 24.3 9.45 24.35 9.4 24.4 9.4 24.5 9.35 24.6 9.3 24.65 9.25 24.7 9.25 24.75 9.2 24.8 9.15 24.85 9.1 24.9 9.05 24.9 9.0 24.95 8.95 24.9 8.85 24.9 8.75 24.85 8.65 L23.55 8.45 Q23.5 8.35 23.3 8.1 23.3 8.1 23.25 7.85 23.25 7.7 23.25 7.6 23.25 7.5 23.2 7.4 23.2 7.25 23.2 7.15 23.15 7.05 23.15 6.95 23.1 6.8 23.05 6.7 23.05 6.6 23.0 6.5 22.95 6.4 22.9 6.3 22.8 6.15 22.75 6.0 22.7 5.9 22.65 5.75 22.55 5.6 22.55 5.55 22.5 5.45 22.45 5.4 22.4 5.3 22.35 5.25 22.3 5.15 22.25 5.05 22.15 5.0 22.1 4.9 22.0 4.8 21.85 4.7 21.85 4.7 21.8 4.6 21.45 3.9 21.65 4.35 21.55 4.15 21.5 4.0 21.35 3.75 21.25 3.55 21.1 3.35 20.95 3.1 20.75 2.9 20.6 2.7 20.4 2.45 20.2 2.3 20.0 2.15 19.8 2.05 19.7 2.0 19.65 2.0 19.55 1.95 19.45 1.95 19.35 1.95 19.25 1.95 19.15 2.0 19.05 2.0 18.95 2.0 18.8 2.05 18.7 2.1 18.6 2.15 18.5 2.15 18.35 2.2 18.25 2.25 18.1 2.3 18.05 2.25 18.05 2.25 18.0 2.2 17.95 2.15 17.95 2.15 17.9 2.1 17.9 2.1 17.85 2.05 17.8 2.05 17.8 2.0 17.75 2.0 17.7 1.95 17.7 1.95 17.65 1.9 17.6 1.9 17.6 1.9 17.45 1.85 17.2 1.75 17.0 1.7 16.75 1.6 16.2 1.4 16.25 1.4 15.95 1.3 15.75 1.2 15.45 1.1 15.25 1.05 14.95 0.95 14.75 0.9 14.5 0.85 14.25 0.85 14.05 0.85 13.85 0.85 13.55 0.7 13.25 0.65 13.0 0.55 12.75 0.5 12.5 0.5 12.3 0.45 12.1 0.45 11.9 0.5 11.75 0.55 11.55 0.6 11.4 0.65 11.2 0.75 11.05 0.8 10.9 0.9 10.75 1.0 10.6 1.1 10.55 1.15 10.45 1.2 10.4 1.25 10.35 1.3 10.3 1.35 10.3 1.4 10.25 1.5 10.2 1.55 10.2 1.6 10.15 1.7 10.15 1.75 10.1 1.8 10.1 1.9 10.1 1.95 10.05 2.05 10.05 2.1 9.9 2.1 9.8 2.1 9.7 2.1 9.6 2.1 9.45 2.15 9.35 2.15 9.25 2.15 9.15 2.15 9.05 2.2 8.95 2.2 8.85 2.2 8.75 2.25 8.65 2.25 8.55 2.3 8.5 2.35 8.4 2.35 8.25 2.45 8.0 2.5 7.85 2.6 7.55 2.7 7.45 2.75 7.05 2.85 6.75 2.95 6.55 3.05 6.3 3.15 6.05 3.25 5.8 3.35 5.6 3.45 5.35 3.55 5.2 3.7 5.0 3.85 4.85 4.0 4.65 4.05 4.45 4.15 4.3 4.2 4.15 4.35 4.05 4.45 3.9 4.6 3.8 4.75 3.7 4.9 3.65 5.05 3.55 5.25 3.5 5.4 3.45 5.6 3.4 5.8 3.4 6.0 3.35 6.2 3.3 6.4 3.3 6.4 3.25 6.45 3.2 6.5 3.2 6.5 3.15 6.55 3.1 6.6 3.05 6.65 3.05 6.75 3.0 6.8 3.0 6.85 2.95 6.9 2.95 6.95 2.95 7.0 2.9 7.05 2.9 7.1 2.9 7.15 2.9 7.2 2.9 7.25 2.9 7.3 2.9 7.35 2.85 7.45 2.85 7.5 2.8 7.6 2.75 7.65 2.75 7.75 2.7 7.8 2.7 7.9 2.65 7.95 2.65 8.05 2.6 8.15 2.6 8.2 2.55 8.3 2.55 8.35 2.5 8.45 2.5 8.55 2.45 8.6 2.4 8.8 2.3 9.0 2.2 9.15 2.1 9.4 2.0 9.55 1.85 9.8 1.45 10.35 1.55 10.2 1.4 10.45 1.3 10.65 1.15 10.85 1.1 11.05 1.0 11.3 0.95 11.5 0.85 11.7 0.85 11.9 0.65 12.15 0.5 12.4 0.35 12.65 0.3 12.95 0.2 13.2 0.15 13.5 0.15 13.8 0.15 14.1 0.2 14.4 0.25 14.7 0.3 14.95 0.35 15.25 0.45 15.5 0.55 15.75 0.65 16.0 0.75 16.25 0.8 16.35 0.85 16.4 0.9 16.5 1.0 16.6 1.05 16.65 1.15 16.75 1.25 16.8 1.35 16.85 1.45 16.95 1.6 17.0 1.7 17.1 1.85 17.15 1.95 17.2 2.1 17.25 2.2 17.35 2.35 17.4 2.4 17.6 2.4 17.8 2.45 17.95 2.5 18.15 2.5 18.35 2.55 18.5 2.6 18.7 2.65 18.85 2.65 19.0 2.7 19.15 2.75 19.3 2.8 19.45 2.85 19.55 2.85 19.65 2.9 19.75 2.95 19.85 3.05 20.0 3.1 20.15 3.15 20.3 3.2 20.45 3.2 20.55 3.25 20.7 3.3 20.95 3.3 20.95 3.3 21.05 3.35 21.15 3.35 21.25 3.4 21.35 3.45 21.45 3.55 21.55 3.65 21.65 3.75 21.75 3.75 21.75 3.75 21.8 3.75 21.8 3.8 21.85 3.8 21.9 3.85 21.9 3.85 21.95 3.9 22.0 3.95 22.05 4.0 22.1 4.05 22.15 4.15 22.2 4.2 22.25 4.25 22.3 4.35 22.35 4.4 22.45 4.45 22.6 4.6 22.75 4.7 22.85 4.8 23.0 4.9 23.1 5.05 23.2 5.2 23.25 5.35 23.35 5.5 23.4 5.65 23.5 5.8 23.55 5.95 23.6 6.1 23.65 6.3 23.7 6.4 23.75 6.6 23.8 7.3 24.15 7.5 24.2 7.65 24.25 7.8 24.35 7.9 24.4 7.95 24.45 8.05 24.5 8.1 24.55 8.1 24.6 8.15 24.7 8.2 24.75 8.25 24.8 8.3 24.85 8.35 24.9 8.45 24.95 8.55 25.0 8.65 25.05 8.8 25.1 8.95 25.15 9.15 25.2 9.35 25.2 9.55 25.25 9.75 25.25 9.95 25.25 10.2 25.25 10.45 25.25 10.65 25.25 10.9 25.25 11.15 25.25 11.4 25.2 11.6 25.2 11.85 25.2 12.0 25.15 12.3 25.15 12.35 25.15 12.35 25.15 12.4 25.15 12.45 25.2 12.5 25.2 12.5 25.2 12.55 25.2 12.6 25.2 12.75 25.35 13.0 25.45 13.2 25.55 13.5 25.55 13.75 25.55 14.05 25.5 14.35 25.45 14.65 25.3 14.95 25.2 15.3 25.1 15.55 24.95 15.9 24.8 16.1 24.7 16.4 24.55 16.4 24.55 16.85 24.3 16.9 24.25 16.95 24.25 17.05 24.2 17.1 24.15 17.15 24.1 17.2 24.05 17.25 24.0 17.3 23.95 17.35 23.9 17.4 23.85 17.45 23.8 17.5 23.75 17.55 23.7 17.6 23.65 17.65 23.6 17.7 23.55 17.85 23.55 18.0 23.55 18.15 23.55 18.25 23.55 18.4 23.55 18.55 23.55 18.65 23.5 18.75 23.5 18.9 23.5 19.0 23.5 19.1 23.5 19.2 23.45 19.3 23.45 19.35 23.4 19.45 23.4 19.5 23.35 L19.5 23.35" fill="#737373" fill-rule="evenodd" stroke="none"/>
      <path d="M12.1 2.25 Q11.95 2.25 11.75 2.3 11.55 2.3 11.3 2.35 11.15 2.4 10.9 2.5 10.7 2.55 10.5 2.65 10.3 2.75 10.1 2.85 9.9 2.9 9.7 3.0 9.4 3.15 9.35 3.15 9.15 3.25 9.05 3.3 9.05 3.3 8.9 3.45 8.85 3.45 8.8 3.45 8.75 3.45 8.75 3.45 8.7 3.45 8.65 3.45 8.5 3.5 8.3 3.55 8.15 3.6 7.9 3.65 0.15 5.65 7.45 3.8 7.2 3.85 7.0 3.9 6.75 3.95 6.55 4.05 6.3 4.1 6.15 4.2 5.95 4.25 5.8 4.35 5.6 4.45 5.5 4.55 5.4 4.65 5.25 4.75 5.1 4.85 4.95 4.95 4.8 5.0 4.6 5.1 4.35 5.25 4.3 5.3 4.1 5.35 4.0 5.45 3.85 5.55 3.7 5.65 3.55 5.75 3.45 5.9 3.35 6.05 3.3 6.2 3.2 6.2 3.1 6.3 3.05 6.35 3.0 6.4 2.9 6.5 2.85 6.6 2.8 6.7 2.8 6.85 2.75 6.95 2.75 7.1 2.7 7.25 2.7 7.4 2.7 7.55 2.65 7.75 2.65 7.9 2.65 8.1 2.6 8.15 2.55 8.25 2.5 8.35 2.45 8.45 2.4 8.55 2.4 8.65 2.35 8.75 2.35 8.85 2.35 8.95 2.3 9.05 2.3 9.2 2.3 9.3 2.3 9.4 2.3 9.55 2.3 9.65 2.3 9.8 2.3 9.85 2.3 9.85 2.3 9.9 2.3 9.9 2.3 9.95 2.3 10.0 2.3 10.0 2.3 10.05 2.3 10.1 2.3 10.1 2.3 10.15 2.3 10.2 2.3 10.2 2.3 10.25 2.3 10.25 2.35 10.3 2.35 10.45 2.35 10.75 2.4 11.0 2.4 11.1 2.4 11.15 2.4 11.2 2.4 11.25 2.4 11.3 2.45 11.35 2.45 11.35 2.45 11.4 2.5 11.4 2.5 11.45 2.55 11.45 2.55 11.5 2.6 11.5 2.6 11.5 2.65 11.5 2.6 11.5 2.5 11.55 2.45 11.55 2.35 11.55 2.15 11.55 2.2 11.55 2.15 11.55 2.1 11.55 2.05 11.6 2.0 11.6 1.95 11.65 1.9 11.65 1.85 11.7 1.85 11.8 1.8 11.85 1.8 11.95 L2.8 12.7 Q2.8 12.75 2.8 12.8 2.8 12.85 2.8 12.9 2.8 12.95 2.8 13.0 2.8 12.95 2.85 13.05 2.8 13.2 2.75 13.25 2.7 13.35 2.7 13.45 2.65 13.55 2.6 13.65 2.6 13.8 2.55 13.85 2.5 14.0 2.5 14.1 2.45 14.2 2.45 14.3 2.45 14.4 2.45 14.5 2.4 14.6 2.4 14.65 2.4 14.8 2.4 14.95 2.4 15.1 2.4 15.25 2.4 15.45 2.4 15.45 2.4 15.55 2.4 15.6 2.4 15.7 2.45 15.75 2.45 15.85 2.45 15.95 2.5 16.05 2.55 16.15 2.55 16.25 2.6 16.4 2.6 16.4 2.6 16.5 2.6 16.55 2.6 16.75 2.65 16.95 2.65 17.1 2.65 17.35 2.65 17.55 2.7 17.8 2.75 18.05 2.75 18.3 2.85 18.55 2.9 18.8 3.0 19.0 3.1 19.25 3.2 19.4 3.25 19.45 3.3 19.5 3.4 19.55 3.45 19.6 3.55 19.65 3.6 19.7 3.7 19.7 3.8 19.75 3.9 19.75 4.0 19.8 4.1 19.8 4.25 19.8 4.35 19.8 4.45 19.85 4.55 19.85 4.7 19.85 4.7 19.9 4.7 19.95 4.75 20.0 4.75 20.0 4.75 20.05 4.75 20.1 4.8 20.15 4.8 20.15 4.8 20.2 4.85 20.25 4.85 20.3 4.85 20.3 4.9 20.35 4.9 20.35 4.95 20.4 4.95 20.4 5.05 20.5 5.2 20.7 5.35 20.8 5.5 21.0 5.8 21.3 5.85 21.35 6.0 21.55 6.15 21.7 6.35 21.9 6.5 22.05 6.7 22.2 6.85 22.35 7.05 22.5 7.2 22.6 7.4 22.7 7.55 22.8 7.75 23.05 7.95 23.2 8.1 23.35 8.3 23.5 8.5 23.65 8.65 23.7 8.8 23.8 9.0 23.85 9.15 23.9 9.3 23.9 9.45 23.95 9.65 23.95 9.8 23.95 9.95 23.95 10.1 23.9 10.3 23.9 10.35 23.9 10.45 23.85 10.5 23.85 10.55 23.85 10.6 23.8 10.7 23.75 10.75 23.75 10.8 23.7 10.85 23.65 10.9 23.6 10.9 23.55 10.95 23.5 11.0 23.45 11.05 23.4 11.1 23.35 11.15 23.3 11.25 23.35 11.35 23.4 11.45 23.45 11.55 23.45 11.65 23.5 11.7 23.55 11.8 23.6 11.9 23.6 12.0 23.65 12.1 23.7 12.15 23.7 12.25 23.7 12.35 23.75 12.4 23.75 12.5 23.75 12.55 23.75 12.7 23.75 12.95 23.75 13.1 23.8 13.4 23.8 13.45 23.85 13.85 23.9 14.15 23.95 14.35 23.95 14.6 24.0 14.8 24.0 15.1 24.0 15.3 24.0 15.55 24.0 15.7 24.0 15.95 23.95 16.1 23.9 16.3 23.95 16.45 23.95 16.65 23.95 16.8 23.9 16.95 23.85 17.1 23.75 17.25 23.7 17.4 23.6 17.55 23.5 17.65 23.4 17.8 23.25 17.9 23.15 18.0 23.0 18.15 22.85 18.25 22.7 18.35 22.55 18.45 22.55 18.5 22.5 18.55 22.5 18.6 22.45 18.65 22.4 18.7 22.4 18.75 22.35 18.8 22.35 18.85 22.3 18.85 22.25 18.9 22.2 18.95 22.2 18.95 22.15 19.0 22.1 19.0 22.05 19.0 22.0 19.05 22.0 19.05 21.95 19.1 21.9 19.15 21.85 19.25 21.8 19.3 21.75 19.35 21.7 19.4 21.65 19.45 21.6 19.5 21.55 19.55 21.5 19.6 21.45 19.65 21.4 19.75 21.35 19.8 21.25 19.85 21.2 19.9 21.15 19.95 21.1 20.05 21.0 20.2 20.85 20.35 20.75 20.55 20.6 20.7 20.55 20.95 20.4 21.35 20.15 21.3 20.15 21.55 20.05 21.7 19.95 21.9 19.8 22.05 19.7 22.2 19.55 22.35 19.4 22.5 19.25 22.55 19.1 22.8 19.0 23.05 18.85 23.25 18.7 23.45 18.5 23.65 18.3 23.75 18.05 23.9 17.85 24.0 17.6 24.1 17.35 24.2 17.1 24.25 16.85 24.3 16.6 24.35 16.35 24.4 16.1 24.4 15.85 24.45 15.6 24.45 15.5 24.45 15.45 24.4 15.35 24.35 15.25 24.35 15.15 24.3 15.05 24.25 14.95 24.2 14.85 24.1 14.75 24.05 14.65 24.0 14.55 23.9 14.45 23.85 14.35 23.75 14.25 23.65 14.15 23.55 14.0 23.6 13.85 23.65 13.7 23.7 13.5 23.75 13.35 23.8 13.2 23.85 13.05 23.9 12.9 23.95 12.75 24.0 12.6 24.0 12.45 24.05 12.35 24.05 12.2 24.1 12.1 24.1 12.0 24.1 11.9 24.1 11.8 24.1 11.65 24.1 11.5 24.15 11.35 24.15 11.2 24.2 11.1 24.2 11.0 24.25 10.75 24.25 10.8 24.3 10.7 24.3 10.6 24.35 10.5 24.3 10.4 24.3 10.3 24.3 10.2 24.25 10.1 24.2 9.95 24.2 9.95 24.25 9.9 24.25 9.9 24.25 9.85 24.25 9.8 24.2 9.75 24.2 9.7 24.2 9.65 24.15 9.6 24.15 9.55 24.1 9.5 24.1 9.4 24.05 9.35 24.05 9.25 24.0 9.2 23.95 9.1 23.95 8.95 23.95 8.8 23.9 8.65 23.85 8.5 23.8 8.4 23.75 8.25 23.65 8.1 23.55 8.0 23.5 7.9 23.4 7.75 23.3 7.65 23.2 7.55 23.1 7.45 22.95 7.35 22.85 7.25 22.75 7.15 22.4 6.65 22.2 6.4 22.1 6.3 22.0 6.2 21.95 6.1 21.9 6.0 21.85 5.95 21.85 5.9 21.85 5.85 21.85 5.75 21.8 5.7 21.8 5.65 21.8 5.55 21.75 5.5 21.7 5.45 21.65 5.35 21.6 5.25 21.45 5.15 21.35 5.05 21.2 4.95 21.1 4.85 20.9 4.75 20.75 4.65 20.6 4.55 20.4 4.45 20.2 4.4 20.05 4.3 19.85 4.2 19.65 4.1 19.45 4.05 19.25 3.95 19.05 3.85 18.9 3.8 18.7 3.7 18.65 3.7 18.55 3.65 18.5 3.55 18.45 3.55 18.4 3.35 18.25 3.2 18.1 3.05 17.85 2.9 17.65 2.8 17.4 2.75 17.15 2.65 16.85 2.6 16.55 2.6 16.25 2.55 15.95 2.55 15.65 2.55 15.4 2.55 15.1 2.55 15.1 2.55 14.6 2.55 14.55 2.55 14.5 2.55 14.45 2.55 14.35 2.6 14.3 2.6 14.25 2.6 14.2 2.6 14.15 2.65 14.1 2.65 14.0 2.7 13.95 2.7 13.9 2.75 13.85 2.75 13.75 2.8 13.7 2.8 13.65 2.85 13.55 2.8 13.4 2.7 13.3 2.65 13.2 2.6 13.05 2.55 12.95 2.5 12.85 2.45 12.75 2.4 12.65 2.35 12.55 2.35 12.5 2.3 12.4 2.3 12.3 2.25 12.25 2.25 12.15 2.25 12.1 2.25 L12.1 2.25" fill="#000000" fill-rule="evenodd" stroke="none"/>
      <path d="M24.25 13.3 L21.5 5.0 13.0 2.05 5.0 5.35 1.7 13.3 5.0 21.3 13.0 24.6 20.95 21.3 24.25 13.3 24.25 13.3" fill="#000000" fill-rule="evenodd" stroke="none"/>
    </g>
    <g id="shape1" transform="matrix(1.0, 0.0, 0.0, 1.0, 0.0, 0.0)">
      <path d="M6.35 0.0 L12.7 10.85 0.0 10.85 6.35 0.0 M2.65 9.3 L10.05 9.3 6.35 3.05 2.65 9.3" fill="#000000" fill-rule="evenodd" stroke="none"/>
    </g>
  </defs>
</svg>
