<?xml version="1.0" encoding="UTF-8" standalone="no"?>
<svg xmlns:ffdec="https://www.free-decompiler.com/flash" xmlns:xlink="http://www.w3.org/1999/xlink" ffdec:objectType="frame" height="26.05px" width="52.95px" xmlns="http://www.w3.org/2000/svg">
  <g transform="matrix(1.0, 0.0, 0.0, 1.0, 0.0, 0.0)">
    <use ffdec:characterId="27" height="26.0" transform="matrix(1.0, 0.0, 0.0, 1.0, 0.0, 0.0)" width="41.75" xlink:href="#shape0"/>
    <use ffdec:characterId="58" height="14.4" transform="matrix(1.0, 0.0, 0.0, 1.0, 10.1, 5.75)" width="23.1" xlink:href="#shape1"/>
    <use ffdec:characterId="58" height="14.4" transform="matrix(1.0, 0.0, 0.0, 1.0, 9.3, 5.15)" width="23.1" xlink:href="#shape1"/>
  </g>
  <defs>
    <g id="shape0" transform="matrix(1.0, 0.0, 0.0, 1.0, 0.0, 0.0)">
      <path d="M3.95 2.5 L20.45 2.6 25.5 2.9 37.7 2.5 38.1 19.35 37.7 23.55 20.1 23.8 3.95 23.55 3.8 17.3 4.7 11.9 3.95 2.5" fill="#7b7b7b" fill-rule="evenodd" stroke="none"/>
      <path d="M4.85 3.05 L20.5 3.15 25.25 3.45 36.8 3.05 37.2 19.05 36.8 23.0 20.15 23.25 4.85 23.0 4.7 17.05 5.55 11.95 4.85 3.05" fill="#000000" fill-rule="evenodd" stroke="none"/>
      <path d="M5.2 3.5 L14.85 3.45 18.15 3.15 24.8 4.6 36.7 4.45 37.5 9.8 35.45 12.25 32.85 18.45 36.5 22.4 28.05 23.75 20.2 21.5 12.45 22.95 7.25 20.8 9.0 16.85 5.95 10.75 6.7 7.15 3.7 3.25" fill="#000000" fill-rule="evenodd" stroke="none"/>
      <path d="M4.5 3.15 L9.8 2.8 11.7 2.8 15.25 3.35 21.8 4.25 25.45 4.6 28.4 3.55 31.8 3.95 37.3 4.1 36.3 7.0 36.0 8.3 34.7 11.65 36.2 13.6 37.25 16.85 36.75 18.05 38.25 20.5 36.3 22.5 31.65 23.35 27.35 23.65 24.8 24.2 21.8 23.95 15.25 22.9 11.5 23.0 9.05 23.7 3.75 22.95 4.9 20.95 3.95 17.15 4.2 16.05 5.45 12.4 4.85 9.95 4.8 7.45 4.3 5.05 3.55 3.3" fill="#000000" fill-rule="evenodd" stroke="none"/>
    </g>
    <g id="shape1" transform="matrix(1.0, 0.0, 0.0, 1.0, 0.0, 0.0)">
      <path d="M2.9 1.25 L3.85 1.35 Q4.3 1.45 4.7 1.7 L4.7 3.4 4.0 3.0 3.25 2.85 Q2.55 2.9 2.15 3.35 1.75 3.8 1.75 4.5 L1.85 5.25 2.2 5.9 3.5 7.3 4.45 8.4 5.1 9.6 5.3 11.05 Q5.3 12.0 4.95 12.75 L3.9 13.95 2.3 14.4 1.3 14.25 0.45 13.8 0.45 12.1 1.2 12.55 2.1 12.75 2.95 12.5 3.45 11.85 3.6 10.95 Q3.6 10.2 3.25 9.65 L2.35 8.6 1.3 7.55 0.4 6.25 Q0.05 5.55 0.0 4.55 0.0 3.65 0.35 2.9 0.65 2.15 1.3 1.7 1.95 1.25 2.9 1.25 M11.5 7.05 L11.55 8.35 11.55 14.25 9.95 14.25 9.95 8.3 9.9 7.7 9.65 7.15 9.0 6.95 Q8.5 6.95 8.3 7.3 8.1 7.6 8.05 8.05 L8.05 8.9 8.05 14.25 6.45 14.25 6.45 0.15 8.05 0.15 8.05 6.65 8.1 6.65 8.4 6.15 8.75 5.85 9.25 5.6 9.8 5.55 Q10.65 5.55 11.05 5.95 L11.5 7.05 M13.05 5.65 L14.65 5.65 14.65 14.25 13.05 14.25 13.05 5.65 M13.1 2.3 Q13.4 2.0 13.85 2.0 14.3 2.0 14.6 2.3 14.9 2.6 14.9 3.05 L14.6 3.8 13.85 4.15 13.1 3.8 12.75 3.05 Q12.8 2.6 13.1 2.3 M19.2 1.75 L18.85 1.7 18.3 1.9 18.1 2.45 18.1 3.1 18.1 5.65 19.45 5.65 19.45 6.95 18.1 6.95 18.1 14.25 16.5 14.25 16.5 6.95 15.7 6.95 15.7 5.65 16.5 5.65 16.5 2.9 16.6 1.5 Q16.7 0.85 17.15 0.4 17.55 0.0 18.45 0.0 L19.0 0.05 19.5 0.25 19.5 1.9 19.2 1.75 M20.65 5.65 L20.65 3.25 22.25 3.25 22.25 5.65 23.1 5.65 23.1 6.95 22.25 6.95 22.25 14.25 20.65 14.25 20.65 6.95 19.8 6.95 19.8 5.65 20.65 5.65" fill="#000000" fill-rule="evenodd" stroke="none"/>
    </g>
  </defs>
</svg>
