<?xml version="1.0" encoding="UTF-8" standalone="no"?>
<svg xmlns:ffdec="https://www.free-decompiler.com/flash" xmlns:xlink="http://www.w3.org/1999/xlink" ffdec:objectType="frame" height="26.05px" width="52.95px" xmlns="http://www.w3.org/2000/svg">
  <g transform="matrix(1.0, 0.0, 0.0, 1.0, 0.0, 0.0)">
    <use ffdec:characterId="3" height="26.0" transform="matrix(1.0, 0.0, 0.0, 1.0, 0.0, 0.0)" width="26.0" xlink:href="#shape0"/>
    <use ffdec:characterId="80" height="13.1" transform="matrix(1.0, 0.0, 0.0, 1.0, 8.25, 7.05)" width="11.1" xlink:href="#shape1"/>
    <use ffdec:characterId="80" height="13.1" transform="matrix(1.0, 0.0, 0.0, 1.0, 7.45, 6.45)" width="11.1" xlink:href="#shape1"/>
  </g>
  <defs>
    <g id="shape0" transform="matrix(1.0, 0.0, 0.0, 1.0, 0.0, 0.0)">
      <path d="M2.45 2.5 L12.75 2.6 15.9 2.9 23.5 2.5 23.7 19.35 23.5 23.55 12.5 23.8 2.45 23.55 2.35 17.3 2.95 11.9 2.45 2.5" fill="#7b7b7b" fill-rule="evenodd" stroke="none"/>
      <path d="M3.0 3.05 L12.75 3.15 15.75 3.45 22.95 3.05 23.15 19.05 22.95 23.0 12.55 23.25 3.0 23.0 2.9 17.05 3.45 11.95 3.0 3.05" fill="#000000" fill-rule="evenodd" stroke="none"/>
      <path d="M3.2 3.5 L9.25 3.45 11.3 3.15 15.45 4.6 22.85 4.45 23.35 9.8 22.1 12.25 20.45 18.45 22.75 22.4 17.45 23.75 12.55 21.5 7.75 22.95 4.5 20.8 5.6 16.85 3.7 10.75 4.15 7.15 2.3 3.25" fill="#000000" fill-rule="evenodd" stroke="none"/>
      <path d="M2.8 3.15 L6.1 2.8 7.3 2.8 9.5 3.35 13.55 4.25 15.85 4.6 17.7 3.55 19.8 3.95 23.25 4.1 22.6 7.0 22.45 8.3 21.6 11.65 22.55 13.6 23.2 16.85 22.9 18.05 23.85 20.5 22.6 22.5 19.7 23.35 17.05 23.65 15.45 24.2 13.55 23.95 9.5 22.9 7.15 23.0 5.65 23.7 2.35 22.95 3.05 20.95 2.45 17.15 2.6 16.05 3.4 12.4 3.05 9.95 3.0 7.45 2.7 5.05 2.2 3.3" fill="#000000" fill-rule="evenodd" stroke="none"/>
    </g>
    <g id="shape1" transform="matrix(1.0, 0.0, 0.0, 1.0, 0.0, 0.0)">
      <path d="M4.6 1.6 L1.7 1.6 1.7 5.65 4.3 5.65 4.3 7.1 1.7 7.1 1.7 12.95 0.0 12.95 0.0 0.15 4.6 0.15 4.6 1.6 M8.3 1.5 Q7.9 1.5 7.65 1.8 7.45 2.05 7.4 2.45 L7.3 3.15 7.3 3.55 5.7 3.55 5.7 3.45 Q5.65 2.45 5.85 1.7 6.0 0.9 6.6 0.45 7.15 0.0 8.25 0.0 9.35 0.0 9.9 0.4 10.5 0.85 10.75 1.6 L10.95 3.3 10.85 4.5 10.5 5.6 9.5 6.3 9.5 6.35 10.55 7.0 11.0 8.05 11.1 9.3 10.85 11.2 Q10.6 12.05 9.95 12.6 9.3 13.1 8.15 13.1 6.7 13.1 6.05 12.35 5.45 11.55 5.45 10.15 L5.45 9.75 7.1 9.75 7.1 10.15 7.2 10.85 7.5 11.35 8.15 11.6 8.85 11.3 9.2 10.7 9.35 9.9 9.35 9.2 9.25 8.15 8.8 7.35 Q8.5 7.05 7.85 7.05 L7.35 7.05 7.35 5.5 7.55 5.5 8.65 5.35 9.15 4.7 9.3 3.55 9.25 2.7 9.0 1.9 Q8.8 1.5 8.3 1.5" fill="#000000" fill-rule="evenodd" stroke="none"/>
    </g>
  </defs>
</svg>
