<?xml version="1.0" encoding="UTF-8" standalone="no"?>
<svg xmlns:ffdec="https://www.free-decompiler.com/flash" xmlns:xlink="http://www.w3.org/1999/xlink" ffdec:objectType="frame" height="26.05px" width="52.95px" xmlns="http://www.w3.org/2000/svg">
  <g transform="matrix(1.0, 0.0, 0.0, 1.0, 0.0, 0.0)">
    <use ffdec:characterId="3" height="26.0" transform="matrix(1.0, 0.0, 0.0, 1.0, 0.0, 0.0)" width="26.0" xlink:href="#shape0"/>
    <use ffdec:characterId="87" height="13.1" transform="matrix(1.0, 0.0, 0.0, 1.0, 5.6, 7.05)" width="16.45" xlink:href="#shape1"/>
    <use ffdec:characterId="87" height="13.1" transform="matrix(1.0, 0.0, 0.0, 1.0, 4.8, 6.45)" width="16.45" xlink:href="#shape1"/>
  </g>
  <defs>
    <g id="shape0" transform="matrix(1.0, 0.0, 0.0, 1.0, 0.0, 0.0)">
      <path d="M2.45 2.5 L12.75 2.6 15.9 2.9 23.5 2.5 23.7 19.35 23.5 23.55 12.5 23.8 2.45 23.55 2.35 17.3 2.95 11.9 2.45 2.5" fill="#7b7b7b" fill-rule="evenodd" stroke="none"/>
      <path d="M3.0 3.05 L12.75 3.15 15.75 3.45 22.95 3.05 23.15 19.05 22.95 23.0 12.55 23.25 3.0 23.0 2.9 17.05 3.45 11.95 3.0 3.05" fill="#000000" fill-rule="evenodd" stroke="none"/>
      <path d="M3.2 3.5 L9.25 3.45 11.3 3.15 15.45 4.6 22.85 4.45 23.35 9.8 22.1 12.25 20.45 18.45 22.75 22.4 17.45 23.75 12.55 21.5 7.75 22.95 4.5 20.8 5.6 16.85 3.7 10.75 4.15 7.15 2.3 3.25" fill="#000000" fill-rule="evenodd" stroke="none"/>
      <path d="M2.8 3.15 L6.1 2.8 7.3 2.8 9.5 3.35 13.55 4.25 15.85 4.6 17.7 3.55 19.8 3.95 23.25 4.1 22.6 7.0 22.45 8.3 21.6 11.65 22.55 13.6 23.2 16.85 22.9 18.05 23.85 20.5 22.6 22.5 19.7 23.35 17.05 23.65 15.45 24.2 13.55 23.95 9.5 22.9 7.15 23.0 5.65 23.7 2.35 22.95 3.05 20.95 2.45 17.15 2.6 16.05 3.4 12.4 3.05 9.95 3.0 7.45 2.7 5.05 2.2 3.3" fill="#000000" fill-rule="evenodd" stroke="none"/>
    </g>
    <g id="shape1" transform="matrix(1.0, 0.0, 0.0, 1.0, 0.0, 0.0)">
      <path d="M0.0 0.15 L4.6 0.15 4.6 1.6 1.7 1.6 1.7 5.65 4.3 5.65 4.3 7.1 1.7 7.1 1.7 12.95 0.0 12.95 0.0 0.15 M6.15 1.6 L6.15 0.15 9.1 0.15 9.1 12.95 7.4 12.95 7.4 1.6 6.15 1.6 M13.55 1.5 Q13.0 1.5 12.7 2.2 12.45 2.9 12.35 4.05 L12.3 6.55 12.35 9.05 Q12.45 10.2 12.7 10.85 13.0 11.55 13.55 11.6 14.15 11.55 14.4 10.85 L14.75 9.05 14.8 6.55 14.75 4.05 14.4 2.2 Q14.15 1.5 13.55 1.5 M15.9 1.7 L16.3 3.35 16.45 5.1 16.45 6.55 16.45 8.0 16.3 9.75 15.9 11.4 15.05 12.6 Q14.45 13.1 13.55 13.1 12.65 13.1 12.1 12.6 11.5 12.15 11.2 11.4 L10.8 9.75 10.65 8.0 10.65 6.55 10.65 5.1 Q10.65 4.25 10.8 3.35 L11.2 1.7 Q11.5 0.95 12.1 0.45 12.65 0.0 13.55 0.0 14.45 0.0 15.05 0.45 L15.9 1.7" fill="#000000" fill-rule="evenodd" stroke="none"/>
    </g>
  </defs>
</svg>
