<?xml version="1.0" encoding="UTF-8" standalone="no"?>
<svg xmlns:ffdec="https://www.free-decompiler.com/flash" xmlns:xlink="http://www.w3.org/1999/xlink" ffdec:objectType="frame" height="26.05px" width="52.95px" xmlns="http://www.w3.org/2000/svg">
  <g transform="matrix(1.0, 0.0, 0.0, 1.0, 0.0, 0.0)">
    <use ffdec:characterId="88" height="26.0" transform="matrix(1.0, 0.0, 0.0, 1.0, 0.0, 0.0)" width="52.95" xlink:href="#shape0"/>
    <use ffdec:characterId="90" height="14.25" transform="matrix(1.0, 0.0, 0.0, 1.0, 11.35, 5.9)" width="31.85" xlink:href="#shape1"/>
    <use ffdec:characterId="90" height="14.25" transform="matrix(1.0, 0.0, 0.0, 1.0, 10.55, 5.3)" width="31.85" xlink:href="#shape1"/>
  </g>
  <defs>
    <g id="shape0" transform="matrix(1.0, 0.0, 0.0, 1.0, 0.0, 0.0)">
      <path d="M5.0 2.5 L25.95 2.6 32.35 2.9 47.85 2.5 48.3 19.35 47.85 23.55 25.5 23.8 5.0 23.55 4.8 17.3 5.95 11.9 5.0 2.5" fill="#7b7b7b" fill-rule="evenodd" stroke="none"/>
      <path d="M6.15 3.05 L26.0 3.15 32.05 3.45 46.7 3.05 47.15 19.05 46.7 23.0 25.55 23.25 6.15 23.0 5.95 17.05 7.05 11.95 6.15 3.05" fill="#000000" fill-rule="evenodd" stroke="none"/>
      <path d="M6.55 3.5 L18.8 3.45 23.0 3.15 31.45 4.6 46.5 4.45 47.6 9.8 44.95 12.25 41.65 18.45 46.3 22.4 35.55 23.75 25.6 21.5 15.75 22.95 9.2 20.8 11.4 16.85 7.55 10.75 8.5 7.15 4.65 3.25" fill="#000000" fill-rule="evenodd" stroke="none"/>
      <path d="M5.75 3.15 L12.45 2.8 14.85 2.8 19.3 3.35 27.65 4.25 32.3 4.6 36.0 3.55 40.3 3.95 47.35 4.1 46.0 7.0 45.7 8.3 44.0 11.65 45.95 13.6 47.25 16.85 46.6 18.05 48.55 20.5 46.0 22.5 40.15 23.35 34.7 23.65 31.45 24.2 27.65 23.95 19.3 22.9 14.6 23.0 11.45 23.7 4.75 22.95 6.25 20.95 5.05 17.15 5.3 16.05 6.95 12.4 6.15 9.95 6.1 7.45 5.5 5.05 4.5 3.3" fill="#000000" fill-rule="evenodd" stroke="none"/>
    </g>
    <g id="shape1" transform="matrix(1.0, 0.0, 0.0, 1.0, 0.0, 0.0)">
      <path d="M3.85 1.2 Q4.3 1.3 4.7 1.55 L4.7 3.25 4.0 2.85 3.25 2.7 Q2.55 2.75 2.15 3.2 1.75 3.65 1.75 4.35 L1.85 5.1 2.2 5.75 3.5 7.15 4.45 8.25 5.1 9.45 5.3 10.9 Q5.3 11.85 4.95 12.6 L3.9 13.8 2.3 14.25 1.3 14.1 0.45 13.65 0.45 11.95 1.2 12.4 2.1 12.6 2.95 12.35 3.45 11.7 3.6 10.8 Q3.6 10.05 3.25 9.5 L2.35 8.45 1.3 7.4 0.4 6.1 Q0.05 5.4 0.0 4.4 0.0 3.5 0.35 2.75 0.65 2.0 1.3 1.55 1.95 1.1 2.9 1.1 L3.85 1.2 M7.35 5.85 Q7.85 5.4 8.75 5.4 L9.4 5.45 10.0 5.65 10.0 7.3 9.7 7.0 9.25 6.85 Q8.7 6.9 8.45 7.2 8.15 7.5 8.0 7.95 L7.85 8.9 7.85 9.75 7.85 10.55 8.0 11.55 8.4 12.4 Q8.7 12.75 9.2 12.75 L9.65 12.65 10.0 12.4 10.0 13.9 9.4 14.15 8.7 14.25 Q7.9 14.2 7.4 13.8 6.85 13.35 6.6 12.7 L6.25 11.3 6.2 9.9 6.25 8.45 Q6.35 7.65 6.6 6.95 6.85 6.25 7.35 5.85 M11.2 5.5 L12.8 5.5 12.8 6.55 12.85 6.55 13.55 5.7 Q14.0 5.4 14.65 5.4 L14.65 6.95 14.4 6.95 Q13.5 6.95 13.15 7.4 12.8 7.85 12.8 8.7 L12.8 14.1 11.2 14.1 11.2 5.5 M20.6 12.6 L20.6 14.1 16.05 14.1 16.05 1.3 17.75 1.3 17.75 12.6 20.6 12.6 M24.35 5.45 L24.95 5.65 24.95 7.3 24.65 7.0 24.2 6.85 Q23.65 6.9 23.4 7.2 23.1 7.5 22.95 7.95 L22.8 8.9 22.8 9.75 22.8 10.55 22.95 11.55 23.35 12.4 24.15 12.75 24.6 12.65 24.95 12.4 24.95 13.9 24.35 14.15 23.65 14.25 Q22.85 14.2 22.35 13.8 21.8 13.35 21.55 12.7 21.3 12.05 21.2 11.3 L21.15 9.9 21.2 8.45 Q21.3 7.65 21.55 6.95 21.8 6.25 22.3 5.85 22.8 5.4 23.7 5.4 L24.35 5.45 M26.15 0.0 L27.75 0.0 27.75 9.3 27.8 9.3 29.75 5.5 31.55 5.5 29.35 9.3 31.85 14.1 30.0 14.1 27.8 9.55 27.75 9.55 27.75 14.1 26.15 14.1 26.15 0.0" fill="#000000" fill-rule="evenodd" stroke="none"/>
    </g>
  </defs>
</svg>
