<?xml version="1.0" encoding="UTF-8" standalone="no"?>
<svg xmlns:ffdec="https://www.free-decompiler.com/flash" xmlns:xlink="http://www.w3.org/1999/xlink" ffdec:objectType="frame" height="26.05px" width="52.95px" xmlns="http://www.w3.org/2000/svg">
  <g transform="matrix(1.0, 0.0, 0.0, 1.0, 0.0, 0.0)">
    <use ffdec:characterId="1" height="26.0" transform="matrix(1.0, 0.0, 0.0, 1.0, 0.0, 0.0)" width="35.75" xlink:href="#shape0"/>
    <use ffdec:characterId="92" height="13.1" transform="matrix(1.0, 0.0, 0.0, 1.0, 8.7, 7.05)" width="19.85" xlink:href="#shape1"/>
    <use ffdec:characterId="92" height="13.1" transform="matrix(1.0, 0.0, 0.0, 1.0, 7.9, 6.45)" width="19.85" xlink:href="#shape1"/>
  </g>
  <defs>
    <g id="shape0" transform="matrix(1.0, 0.0, 0.0, 1.0, 0.0, 0.0)">
      <path d="M3.4 2.5 L17.5 2.6 21.85 2.9 32.3 2.5 32.6 19.35 32.3 23.55 17.2 23.8 3.4 23.55 3.25 17.3 4.05 11.9 3.4 2.5" fill="#7b7b7b" fill-rule="evenodd" stroke="none"/>
      <path d="M4.15 3.05 L17.55 3.15 21.65 3.45 31.55 3.05 31.85 19.05 31.55 23.0 17.25 23.25 4.15 23.0 4.0 17.05 4.75 11.95 4.15 3.05" fill="#000000" fill-rule="evenodd" stroke="none"/>
      <path d="M4.45 3.5 L12.7 3.45 15.55 3.15 21.25 4.6 31.4 4.45 32.15 9.8 30.35 12.25 28.1 18.45 31.25 22.4 24.0 23.75 17.3 21.5 10.65 22.95 6.2 20.8 7.7 16.85 5.1 10.75 5.75 7.15 3.15 3.25" fill="#000000" fill-rule="evenodd" stroke="none"/>
      <path d="M3.85 3.15 L8.4 2.8 10.0 2.8 13.05 3.35 18.65 4.25 21.8 4.6 24.3 3.55 27.2 3.95 31.95 4.1 31.05 7.0 30.85 8.3 29.7 11.65 31.0 13.6 31.9 16.85 31.5 18.05 32.75 20.5 31.05 22.5 27.1 23.35 23.45 23.65 21.25 24.2 18.65 23.95 13.05 22.9 9.85 23.0 7.75 23.7 3.2 22.95 4.2 20.95 3.4 17.15 3.6 16.05 4.7 12.4 4.15 9.95 4.15 7.45 3.7 5.05 3.05 3.3" fill="#000000" fill-rule="evenodd" stroke="none"/>
    </g>
    <g id="shape1" transform="matrix(1.0, 0.0, 0.0, 1.0, 0.0, 0.0)">
      <path d="M16.4 7.2 L16.1 7.9 16.0 8.7 16.0 9.45 16.05 10.3 16.35 11.2 Q16.55 11.55 17.05 11.6 17.55 11.55 17.75 11.2 L18.05 10.3 18.1 9.45 18.1 8.7 17.95 7.9 17.65 7.2 Q17.45 6.9 17.05 6.9 16.65 6.9 16.4 7.2 M17.65 1.85 Q17.45 1.5 17.05 1.5 16.6 1.5 16.4 1.85 16.2 2.15 16.15 2.55 L16.1 3.3 16.15 4.05 16.4 4.85 Q16.65 5.25 17.05 5.25 L17.65 4.85 17.9 4.05 18.0 3.3 17.95 2.55 17.65 1.85 M15.4 0.4 Q15.95 0.0 16.95 0.0 18.0 0.0 18.6 0.35 19.2 0.7 19.45 1.4 L19.7 3.1 19.6 4.25 19.2 5.3 18.3 6.0 Q19.0 6.2 19.3 6.7 L19.75 7.85 19.85 9.1 19.65 11.0 Q19.45 11.95 18.85 12.5 18.25 13.1 17.05 13.1 15.9 13.1 15.3 12.55 14.7 12.0 14.5 11.15 14.25 10.3 14.3 9.35 14.25 8.7 14.35 8.0 14.4 7.3 14.75 6.75 15.05 6.2 15.8 6.0 L14.9 5.3 14.5 4.25 14.4 3.1 Q14.35 2.25 14.6 1.5 14.8 0.8 15.4 0.4 M12.25 0.6 L13.05 1.65 13.35 3.55 Q13.35 5.5 12.5 6.45 11.65 7.35 9.7 7.25 L9.7 12.95 8.0 12.95 8.0 0.15 10.05 0.15 11.15 0.2 12.25 0.6 M10.95 1.85 L9.95 1.6 9.7 1.6 9.7 5.85 Q10.75 5.9 11.15 5.35 11.55 4.8 11.55 3.7 L11.4 2.65 10.95 1.85 M4.25 0.15 L5.95 0.15 5.95 12.95 4.35 12.95 1.35 3.05 1.7 12.95 0.0 12.95 0.0 0.15 1.6 0.15 4.6 9.85 4.65 9.85 4.25 0.15" fill="#000000" fill-rule="evenodd" stroke="none"/>
    </g>
  </defs>
</svg>
