<?xml version="1.0" encoding="UTF-8" standalone="no"?>
<svg xmlns:ffdec="https://www.free-decompiler.com/flash" xmlns:xlink="http://www.w3.org/1999/xlink" ffdec:objectType="frame" height="26.05px" width="52.95px" xmlns="http://www.w3.org/2000/svg">
  <g transform="matrix(1.0, 0.0, 0.0, 1.0, 0.0, 0.0)">
    <use ffdec:characterId="3" height="26.0" transform="matrix(1.0, 0.0, 0.0, 1.0, 0.0, 0.0)" width="26.0" xlink:href="#shape0"/>
    <use ffdec:characterId="18" height="3.3" transform="matrix(1.7581, 0.0, 0.0, 1.7581, 8.05, 5.6)" width="3.1" xlink:href="#shape1"/>
    <use ffdec:characterId="18" height="3.3" transform="matrix(1.7581, 0.0, 0.0, 1.7581, 7.25, 5.0)" width="3.1" xlink:href="#shape1"/>
    <use ffdec:characterId="19" height="13.1" transform="matrix(1.0, 0.0, 0.0, 1.0, 14.55, 8.1)" width="5.55" xlink:href="#shape2"/>
    <use ffdec:characterId="19" height="13.1" transform="matrix(1.0, 0.0, 0.0, 1.0, 13.75, 7.5)" width="5.55" xlink:href="#shape2"/>
  </g>
  <defs>
    <g id="shape0" transform="matrix(1.0, 0.0, 0.0, 1.0, 0.0, 0.0)">
      <path d="M2.45 2.5 L12.75 2.6 15.9 2.9 23.5 2.5 23.7 19.35 23.5 23.55 12.5 23.8 2.45 23.55 2.35 17.3 2.95 11.9 2.45 2.5" fill="#7b7b7b" fill-rule="evenodd" stroke="none"/>
      <path d="M3.0 3.05 L12.75 3.15 15.75 3.45 22.95 3.05 23.15 19.05 22.95 23.0 12.55 23.25 3.0 23.0 2.9 17.05 3.45 11.95 3.0 3.05" fill="#000000" fill-rule="evenodd" stroke="none"/>
      <path d="M3.2 3.5 L9.25 3.45 11.3 3.15 15.45 4.6 22.85 4.45 23.35 9.8 22.1 12.25 20.45 18.45 22.75 22.4 17.45 23.75 12.55 21.5 7.75 22.95 4.5 20.8 5.6 16.85 3.7 10.75 4.15 7.15 2.3 3.25" fill="#000000" fill-rule="evenodd" stroke="none"/>
      <path d="M2.8 3.15 L6.1 2.8 7.3 2.8 9.5 3.35 13.55 4.25 15.85 4.6 17.7 3.55 19.8 3.95 23.25 4.1 22.6 7.0 22.45 8.3 21.6 11.65 22.55 13.6 23.2 16.85 22.9 18.05 23.85 20.5 22.6 22.5 19.7 23.35 17.05 23.65 15.45 24.2 13.55 23.95 9.5 22.9 7.15 23.0 5.65 23.7 2.35 22.95 3.05 20.95 2.45 17.15 2.6 16.05 3.4 12.4 3.05 9.95 3.0 7.45 2.7 5.05 2.2 3.3" fill="#000000" fill-rule="evenodd" stroke="none"/>
    </g>
    <g id="shape1" transform="matrix(1.0, 0.0, 0.0, 1.0, 0.0, 0.0)">
      <path d="M2.85 2.65 L1.75 1.95 1.75 3.3 1.3 3.3 1.4 1.95 0.25 2.65 0.0 2.3 1.15 1.65 0.0 1.05 0.2 0.65 1.4 1.35 1.3 0.0 1.75 0.0 1.75 1.35 2.85 0.6 3.1 1.0 1.9 1.65 3.1 2.3 2.85 2.65" fill="#000000" fill-rule="evenodd" stroke="none"/>
    </g>
    <g id="shape2" transform="matrix(1.0, 0.0, 0.0, 1.0, 0.0, 0.0)">
      <path d="M2.1 7.2 L1.8 7.9 1.7 8.7 1.7 9.45 1.75 10.3 2.05 11.2 2.75 11.6 3.45 11.2 3.75 10.3 3.8 9.45 3.8 8.7 3.65 7.9 3.35 7.2 Q3.15 6.9 2.75 6.9 2.35 6.9 2.1 7.2 M3.35 1.85 Q3.15 1.5 2.75 1.5 2.3 1.5 2.1 1.85 1.9 2.15 1.85 2.55 L1.8 3.3 1.85 4.05 2.1 4.85 Q2.35 5.25 2.75 5.25 L3.35 4.85 3.6 4.05 3.7 3.3 3.65 2.55 3.35 1.85 M2.65 0.0 Q3.7 0.0 4.3 0.35 4.9 0.7 5.15 1.4 L5.4 3.1 5.3 4.25 4.9 5.3 Q4.6 5.8 4.0 6.0 4.7 6.2 5.0 6.7 L5.45 7.85 5.55 9.1 5.35 11.0 Q5.15 11.95 4.55 12.5 3.95 13.1 2.75 13.1 1.6 13.1 1.0 12.55 0.4 12.0 0.2 11.15 -0.05 10.3 0.0 9.35 L0.05 8.0 Q0.1 7.3 0.45 6.75 0.75 6.2 1.5 6.0 0.9 5.75 0.6 5.3 L0.2 4.25 0.1 3.1 Q0.05 2.25 0.3 1.5 0.5 0.8 1.1 0.4 1.65 0.0 2.65 0.0" fill="#000000" fill-rule="evenodd" stroke="none"/>
    </g>
  </defs>
</svg>
