<?xml version="1.0" encoding="UTF-8" standalone="no"?>
<svg xmlns:ffdec="https://www.free-decompiler.com/flash" xmlns:xlink="http://www.w3.org/1999/xlink" ffdec:objectType="shape" height="26.0px" width="26.0px" xmlns="http://www.w3.org/2000/svg">
  <g transform="matrix(1.0, 0.0, 0.0, 1.0, 0.0, 0.0)">
    <path d="M12.8 1.9 L3.1 1.9 Q2.95 1.9 2.8 1.95 2.7 1.95 2.55 2.0 2.4 2.05 2.3 2.15 2.2 2.2 2.1 2.3 2.0 2.4 1.95 2.5 1.85 2.6 1.8 2.75 1.75 2.85 1.75 3.0 1.7 3.15 1.7 3.3 L1.7 22.7 Q1.7 22.85 1.75 23.0 1.75 23.1 1.8 23.25 1.85 23.35 1.95 23.5 2.0 23.6 2.1 23.7 2.2 23.8 2.3 23.85 2.4 23.95 2.55 24.0 2.65 24.05 2.8 24.05 2.95 24.1 3.1 24.1 L22.7 24.1 Q22.85 24.1 23.0 24.05 23.1 24.05 23.25 24.0 23.35 23.95 23.5 23.85 23.6 23.8 23.7 23.7 23.8 23.6 23.85 23.5 23.95 23.4 24.0 23.25 24.05 23.15 24.05 23.0 24.1 22.85 24.1 22.7 L24.1 13.0 Q24.1 12.8 24.1 12.65 24.1 12.25 24.05 11.85 24.0 11.35 23.95 10.85 23.85 10.2 23.75 9.6 23.6 8.9 23.4 8.25 23.2 7.5 22.9 6.85 22.55 6.1 22.15 5.5 21.75 4.85 21.2 4.35 20.75 3.9 20.1 3.55 19.55 3.2 18.85 2.9 18.25 2.65 17.5 2.5 16.9 2.3 16.2 2.2 15.6 2.1 14.95 2.0 14.45 1.95 13.9 1.95 13.5 1.9 13.15 1.9 13.0 1.9 12.8 1.9 L12.8 1.9" fill="#000000" fill-rule="evenodd" stroke="none"/>
    <path d="M12.8 1.9 L3.1 1.9 Q2.95 1.9 2.8 1.95 2.7 1.95 2.55 2.0 2.4 2.05 2.3 2.15 2.2 2.2 2.1 2.3 2.0 2.4 1.95 2.5 1.85 2.6 1.8 2.75 1.75 2.85 1.75 3.0 1.7 3.15 1.7 3.3 L1.7 22.7 Q1.7 22.85 1.75 23.0 1.75 23.1 1.8 23.25 1.85 23.35 1.95 23.5 2.0 23.6 2.1 23.7 2.2 23.8 2.3 23.85 2.4 23.95 2.55 24.0 2.65 24.05 2.8 24.05 2.95 24.1 3.1 24.1 L22.7 24.1 Q22.85 24.1 23.0 24.05 23.1 24.05 23.25 24.0 23.35 23.95 23.5 23.85 23.6 23.8 23.7 23.7 23.8 23.6 23.85 23.5 23.95 23.4 24.0 23.25 24.05 23.15 24.05 23.0 24.1 22.85 24.1 22.7 L24.1 13.0 Q24.1 12.8 24.1 12.65 24.1 12.25 24.05 11.85 24.0 11.35 23.95 10.85 23.85 10.2 23.75 9.6 23.6 8.9 23.4 8.25 23.2 7.5 22.9 6.85 22.55 6.1 22.15 5.5 21.75 4.85 21.2 4.35 20.75 3.9 20.1 3.55 19.55 3.2 18.85 2.9 18.25 2.65 17.5 2.5 16.9 2.3 16.2 2.2 15.6 2.1 14.95 2.0 14.45 1.95 13.9 1.95 13.5 1.9 13.15 1.9 13.0 1.9 12.8 1.9 L12.8 1.9 Z" fill="none" stroke="#ffffff" stroke-linecap="round" stroke-linejoin="round" stroke-width="1.0"/>
  </g>
</svg>
