<?xml version="1.0" encoding="UTF-8" standalone="no"?>
<svg xmlns:ffdec="https://www.free-decompiler.com/flash" xmlns:xlink="http://www.w3.org/1999/xlink" ffdec:objectType="shape" height="14.25px" width="23.7px" xmlns="http://www.w3.org/2000/svg">
  <g transform="matrix(1.0, 0.0, 0.0, 1.0, 0.0, 0.0)">
    <path d="M0.25 11.8 Q0.75 12.15 1.1 12.35 1.5 12.55 1.85 12.55 2.45 12.55 2.8 12.05 3.15 11.6 3.15 10.8 3.15 9.6 1.8 8.1 1.65 7.95 1.55 7.85 0.7 6.85 0.35 6.05 0.0 5.2 0.0 4.15 0.0 2.65 0.7 1.65 1.4 0.65 2.45 0.65 2.9 0.65 3.3 0.8 3.7 0.95 4.1 1.25 L4.1 3.05 Q3.75 2.7 3.4 2.5 3.0 2.35 2.65 2.35 2.05 2.35 1.7 2.85 1.3 3.3 1.3 4.15 1.3 5.3 2.75 6.85 2.85 7.0 2.95 7.05 3.75 8.0 4.1 8.85 4.45 9.7 4.45 10.75 4.45 12.3 3.75 13.3 3.05 14.25 1.95 14.25 1.55 14.25 1.1 14.1 0.7 13.95 0.25 13.6 L0.25 11.8" fill="#cccccc" fill-rule="evenodd" stroke="none"/>
    <path d="M5.6 14.1 L5.6 0.0 6.8 0.0 6.8 6.1 Q7.0 5.6 7.3 5.35 7.65 5.1 8.15 5.1 8.85 5.1 9.2 5.65 9.55 6.2 9.55 7.3 L9.55 14.1 8.35 14.1 8.35 8.1 Q8.35 7.2 8.15 6.9 8.0 6.55 7.6 6.55 7.2 6.55 6.95 6.9 6.8 7.25 6.8 7.9 L6.8 14.1 5.6 14.1" fill="#cccccc" fill-rule="evenodd" stroke="none"/>
    <path d="M13.65 14.1 L13.65 13.25 Q13.4 13.75 13.1 14.05 12.8 14.25 12.35 14.25 11.55 14.25 11.15 13.1 10.7 11.95 10.7 9.65 10.7 7.35 11.15 6.2 11.55 5.05 12.35 5.05 12.8 5.05 13.1 5.25 13.4 5.5 13.65 6.05 L13.65 5.2 14.85 5.2 14.85 14.1 13.65 14.1 M11.9 9.65 Q11.9 11.35 12.1 12.05 12.35 12.75 12.8 12.75 13.3 12.75 13.5 12.05 13.7 11.35 13.7 9.65 13.7 7.95 13.5 7.25 13.3 6.55 12.8 6.55 12.3 6.55 12.1 7.25 11.9 7.95 11.9 9.65 L11.9 9.65" fill="#cccccc" fill-rule="evenodd" stroke="none"/>
    <path d="M16.3 14.1 L16.3 5.2 17.45 5.2 17.45 6.5 Q17.65 5.8 18.05 5.45 18.45 5.05 19.0 5.05 L19.0 6.75 18.8 6.75 Q18.1 6.75 17.8 7.25 17.45 7.7 17.45 8.75 L17.45 14.1 16.3 14.1" fill="#cccccc" fill-rule="evenodd" stroke="none"/>
    <path d="M20.7 8.65 L22.5 8.65 22.5 8.45 Q22.5 7.35 22.3 6.85 22.1 6.35 21.65 6.35 21.2 6.35 20.95 6.95 20.7 7.55 20.7 8.65 L20.7 8.65 M23.6 11.15 L23.6 11.25 Q23.6 12.65 23.1 13.45 22.6 14.25 21.7 14.25 20.6 14.25 20.1 13.15 19.6 12.05 19.6 9.6 19.6 7.3 20.1 6.15 20.6 5.05 21.6 5.05 22.7 5.05 23.2 6.05 23.65 7.1 23.65 9.45 L23.65 9.95 20.7 9.95 20.7 10.2 Q20.7 11.6 20.95 12.25 21.15 12.9 21.65 12.9 22.05 12.9 22.3 12.45 22.5 12.0 22.5 11.15 L23.6 11.15" fill="#cccccc" fill-rule="evenodd" stroke="none"/>
  </g>
</svg>
