<?xml version="1.0" encoding="UTF-8" standalone="no"?>
<svg xmlns:ffdec="https://www.free-decompiler.com/flash" xmlns:xlink="http://www.w3.org/1999/xlink" ffdec:objectType="shape" height="15.15px" width="10.2px" xmlns="http://www.w3.org/2000/svg">
  <g transform="matrix(1.0, 0.0, 0.0, 1.0, 0.0, 0.0)">
    <path d="M0.0 2.2 L1.7 2.2 1.7 13.5 4.55 13.5 4.55 15.0 0.0 15.0 0.0 2.2 M4.45 2.35 L0.55 0.0 8.3 0.0 4.45 2.35 M7.8 2.0 L8.75 2.1 Q9.2 2.2 9.6 2.45 L9.6 4.15 9.2 3.9 8.9 3.75 8.15 3.6 7.3 3.9 7.05 4.1 Q6.8 4.4 6.7 4.8 L6.65 5.25 6.75 6.0 7.1 6.65 8.4 8.05 9.35 9.15 10.0 10.35 10.2 11.8 Q10.2 12.75 9.85 13.5 9.5 14.25 8.8 14.7 8.15 15.15 7.2 15.15 L6.2 15.0 5.35 14.55 5.35 12.85 6.1 13.3 7.0 13.5 7.85 13.25 8.35 12.6 8.5 11.7 Q8.5 10.95 8.15 10.4 L7.25 9.35 6.2 8.3 5.3 7.0 Q4.95 6.3 4.9 5.3 L4.9 5.25 4.95 4.8 5.15 3.9 5.25 3.65 5.4 3.35 5.65 2.95 5.8 2.8 6.2 2.45 Q6.85 2.0 7.8 2.0" fill="#cccccc" fill-rule="evenodd" stroke="none"/>
  </g>
</svg>
