<?xml version="1.0" encoding="UTF-8" standalone="no"?>
<svg xmlns:ffdec="https://www.free-decompiler.com/flash" xmlns:xlink="http://www.w3.org/1999/xlink" ffdec:objectType="shape" height="14.25px" width="23.7px" xmlns="http://www.w3.org/2000/svg">
  <g transform="matrix(1.0, 0.0, 0.0, 1.0, 0.0, 0.0)">
    <path d="M0.25 11.75 Q0.7 12.15 1.1 12.35 1.5 12.5 1.85 12.5 2.45 12.5 2.8 12.05 3.15 11.55 3.15 10.75 3.15 9.6 1.8 8.1 1.65 7.9 1.55 7.8 0.7 6.85 0.35 6.0 0.0 5.2 0.0 4.15 0.0 2.65 0.7 1.65 1.4 0.65 2.4 0.65 2.85 0.65 3.3 0.8 3.7 0.95 4.1 1.25 L4.1 3.05 Q3.75 2.65 3.35 2.5 3.0 2.3 2.65 2.3 2.05 2.3 1.7 2.8 1.3 3.3 1.3 4.15 1.3 5.25 2.75 6.85 2.85 7.0 2.95 7.05 3.75 7.95 4.1 8.8 4.45 9.65 4.45 10.75 4.45 12.25 3.75 13.25 3.05 14.25 1.95 14.25 1.5 14.25 1.1 14.1 0.7 13.9 0.25 13.6 L0.25 11.75" fill="#cccccc" fill-rule="evenodd" stroke="none"/>
    <path d="M6.35 8.65 L8.15 8.65 8.15 8.4 Q8.15 7.3 7.95 6.85 7.75 6.35 7.3 6.35 6.85 6.35 6.6 6.95 6.35 7.5 6.35 8.65 L6.35 8.65 M9.25 11.1 L9.25 11.2 Q9.25 12.65 8.75 13.45 8.25 14.25 7.35 14.25 6.25 14.25 5.75 13.15 5.25 12.0 5.25 9.6 5.25 7.3 5.75 6.15 6.25 5.0 7.25 5.0 8.35 5.0 8.85 6.05 9.3 7.05 9.3 9.4 L9.3 9.95 6.35 9.95 6.35 10.2 Q6.35 11.6 6.6 12.25 6.8 12.85 7.3 12.85 7.7 12.85 7.95 12.4 8.15 12.0 8.15 11.1 L9.25 11.1" fill="#cccccc" fill-rule="evenodd" stroke="none"/>
    <path d="M10.5 14.1 L10.5 0.0 11.65 0.0 11.65 14.1 10.5 14.1" fill="#cccccc" fill-rule="evenodd" stroke="none"/>
    <path d="M13.95 8.65 L15.75 8.65 15.75 8.4 Q15.75 7.3 15.55 6.85 15.35 6.35 14.9 6.35 14.45 6.35 14.2 6.95 13.95 7.5 13.95 8.65 L13.95 8.65 M16.85 11.1 L16.85 11.2 Q16.85 12.65 16.35 13.45 15.85 14.25 14.95 14.25 13.85 14.25 13.35 13.15 12.85 12.0 12.85 9.6 12.85 7.3 13.35 6.15 13.85 5.0 14.85 5.0 15.95 5.0 16.45 6.05 16.9 7.05 16.9 9.4 L16.9 9.95 13.95 9.95 13.95 10.2 Q13.95 11.6 14.2 12.25 14.4 12.85 14.9 12.85 15.3 12.85 15.55 12.4 15.75 12.0 15.75 11.1 L16.85 11.1" fill="#cccccc" fill-rule="evenodd" stroke="none"/>
    <path d="M20.6 13.95 Q20.35 14.1 20.1 14.2 19.85 14.25 19.6 14.25 18.65 14.25 18.2 13.15 17.7 12.0 17.7 9.65 17.7 7.35 18.2 6.2 18.65 5.0 19.55 5.0 19.85 5.0 20.1 5.1 20.35 5.2 20.6 5.35 L20.6 6.9 Q20.45 6.7 20.3 6.6 20.1 6.5 19.95 6.5 19.45 6.5 19.15 7.3 18.9 8.1 18.9 9.7 18.9 11.2 19.15 11.9 19.4 12.65 19.9 12.65 20.1 12.65 20.25 12.55 20.45 12.45 20.6 12.25 L20.6 13.95" fill="#cccccc" fill-rule="evenodd" stroke="none"/>
    <path d="M21.6 14.1 L21.6 6.4 20.95 6.4 20.95 5.15 21.6 5.15 21.6 2.75 22.75 2.75 22.75 5.15 23.65 5.15 23.65 6.4 22.75 6.4 22.75 14.1 21.6 14.1" fill="#cccccc" fill-rule="evenodd" stroke="none"/>
  </g>
</svg>
