<?xml version="1.0" encoding="UTF-8" standalone="no"?>
<svg xmlns:ffdec="https://www.free-decompiler.com/flash" xmlns:xlink="http://www.w3.org/1999/xlink" ffdec:objectType="shape" height="8.8px" width="5.65px" xmlns="http://www.w3.org/2000/svg">
  <g transform="matrix(1.0, 0.0, 0.0, 1.0, 0.0, 0.0)">
    <path d="M2.55 3.65 L2.1 5.05 3.1 5.05 3.55 3.65 2.55 3.65 M4.65 0.0 L5.3 0.0 4.4 2.95 5.65 2.95 5.5 3.65 4.2 3.65 3.75 5.05 5.05 5.05 4.85 5.75 3.5 5.75 2.65 8.8 2.0 8.8 2.9 5.75 1.9 5.75 0.95 8.8 0.3 8.8 1.25 5.75 0.0 5.75 0.2 5.05 1.45 5.05 1.9 3.65 0.65 3.65 0.85 2.95 2.1 2.95 3.0 0.0 3.6 0.0 2.75 2.95 3.75 2.95 4.65 0.0" fill="#cccccc" fill-rule="evenodd" stroke="none"/>
  </g>
</svg>
