<?xml version="1.0" encoding="UTF-8" standalone="no"?>
<svg xmlns:ffdec="https://www.free-decompiler.com/flash" xmlns:xlink="http://www.w3.org/1999/xlink" ffdec:objectType="shape" height="26.0px" width="26.0px" xmlns="http://www.w3.org/2000/svg">
  <g transform="matrix(1.0, 0.0, 0.0, 1.0, 0.0, 0.0)">
    <path d="M25.95 12.05 L26.0 19.4 Q26.0 22.15 24.05 24.05 22.15 26.0 19.4 26.0 L6.6 26.0 Q3.85 26.0 1.9 24.05 0.1 22.25 0.0 19.7 L0.0 19.5 0.0 6.5 0.0 6.35 Q0.1 3.75 1.9 1.95 3.85 0.0 6.6 0.0 L13.15 0.0 Q18.2 0.1 21.9 3.6 25.6 7.05 25.95 12.05 M24.6 19.4 L24.55 12.1 Q24.25 7.65 20.9 4.55 17.6 1.5 13.15 1.4 L6.6 1.4 Q4.45 1.4 2.95 2.95 1.4 4.45 1.4 6.6 L1.4 19.4 Q1.4 21.6 2.95 23.1 4.45 24.6 6.6 24.6 L19.4 24.6 Q21.55 24.6 23.1 23.1 24.6 21.55 24.6 19.4 M23.05 19.4 Q23.05 20.9 21.95 21.95 20.9 23.05 19.4 23.05 L6.6 23.05 Q5.1 23.05 4.05 21.95 2.95 20.9 2.95 19.4 L2.95 6.6 Q2.95 5.1 4.05 4.05 5.1 2.95 6.6 2.95 L13.1 2.95 Q16.95 3.05 19.85 5.7 22.65 8.35 23.0 12.15 L23.05 19.4" fill="#000000" fill-rule="evenodd" stroke="none"/>
    <path d="M24.6 19.4 Q24.6 21.55 23.1 23.1 21.55 24.6 19.4 24.6 L6.6 24.6 Q4.45 24.6 2.95 23.1 1.4 21.6 1.4 19.4 L1.4 6.6 Q1.4 4.45 2.95 2.95 4.45 1.4 6.6 1.4 L13.15 1.4 Q17.6 1.5 20.9 4.55 24.25 7.65 24.55 12.1 L24.6 19.4 M23.05 19.4 L23.0 12.15 Q22.65 8.35 19.85 5.7 16.95 3.05 13.1 2.95 L6.6 2.95 Q5.1 2.95 4.05 4.05 2.95 5.1 2.95 6.6 L2.95 19.4 Q2.95 20.9 4.05 21.95 5.1 23.05 6.6 23.05 L19.4 23.05 Q20.9 23.05 21.95 21.95 23.05 20.9 23.05 19.4" fill="#a6a8ab" fill-rule="evenodd" stroke="none"/>
  </g>
</svg>
