<?xml version="1.0" encoding="UTF-8" standalone="no"?>
<svg xmlns:ffdec="https://www.free-decompiler.com/flash" xmlns:xlink="http://www.w3.org/1999/xlink" ffdec:objectType="shape" height="12.95px" width="15.55px" xmlns="http://www.w3.org/2000/svg">
  <g transform="matrix(1.0, 0.0, 0.0, 1.0, 0.0, 0.0)">
    <path d="M6.05 0.15 L7.55 0.15 8.75 12.95 7.05 12.95 6.6 4.1 4.95 12.95 3.8 12.95 2.15 4.1 2.1 4.1 1.65 12.95 0.0 12.95 1.05 0.15 2.5 0.15 4.35 9.4 4.4 9.4 4.45 8.85 6.05 0.15 M13.8 3.05 L13.7 2.35 13.35 1.75 Q13.1 1.5 12.65 1.5 12.25 1.5 12.0 1.8 11.8 2.1 11.75 2.55 L11.65 3.35 11.7 3.95 11.7 4.3 9.95 4.3 9.95 3.85 Q9.95 2.8 10.1 1.95 10.3 1.05 10.85 0.5 11.45 0.0 12.7 0.0 14.25 0.0 14.9 0.8 15.55 1.65 15.55 3.15 15.55 4.1 15.15 5.25 L14.3 7.45 13.35 9.4 12.25 11.45 15.45 11.45 15.45 12.95 9.8 12.95 12.9 6.35 13.5 4.75 13.8 3.05" fill="#cccccc" fill-rule="evenodd" stroke="none"/>
  </g>
</svg>
