<?xml version="1.0" encoding="UTF-8" standalone="no"?>
<svg xmlns:ffdec="https://www.free-decompiler.com/flash" xmlns:xlink="http://www.w3.org/1999/xlink" ffdec:objectType="shape" height="26.0px" width="26.0px" xmlns="http://www.w3.org/2000/svg">
  <g transform="matrix(1.0, 0.0, 0.0, 1.0, 0.0, 0.0)">
    <path d="M4.0 3.0 Q3.9 3.0 3.8 3.0 3.7 3.05 3.6 3.1 3.5 3.1 3.45 3.15 3.35 3.2 3.3 3.3 3.2 3.35 3.15 3.45 3.1 3.5 3.1 3.6 3.05 3.7 3.0 3.8 3.0 3.9 3.0 4.0 L3.0 22.0 Q3.0 22.1 3.0 22.2 3.05 22.3 3.1 22.4 3.1 22.5 3.15 22.55 3.2 22.65 3.3 22.7 3.35 22.8 3.45 22.85 3.5 22.9 3.6 22.9 3.7 22.95 3.8 23.0 3.9 23.0 4.0 23.0 L22.0 23.0 Q22.1 23.0 22.2 23.0 22.3 22.95 22.4 22.9 22.5 22.9 22.55 22.85 22.65 22.8 22.7 22.7 22.8 22.65 22.85 22.55 22.9 22.5 22.9 22.4 22.95 22.3 23.0 22.2 23.0 22.1 23.0 22.0 L23.0 4.0 Q23.0 3.9 23.0 3.8 22.95 3.7 22.9 3.6 22.9 3.5 22.85 3.45 22.8 3.35 22.7 3.3 22.65 3.2 22.55 3.15 22.5 3.1 22.4 3.1 22.3 3.05 22.2 3.0 22.1 3.0 22.0 3.0 L4.0 3.0 4.0 3.0 M13.0 8.4 Q13.2 8.4 13.35 8.4 13.55 8.45 13.7 8.5 13.85 8.5 14.0 8.6 14.15 8.65 14.3 8.7 14.45 8.8 14.6 8.9 14.7 9.0 14.85 9.1 14.95 9.2 15.1 9.35 15.2 9.5 15.3 9.65 15.4 9.8 15.5 9.95 15.6 10.15 15.65 10.3 15.75 10.5 15.8 10.7 15.85 10.9 15.9 11.1 15.95 11.35 16.0 11.55 16.05 11.8 16.05 12.05 16.1 12.25 16.1 12.55 16.1 12.8 16.1 13.05 16.1 13.35 16.1 13.6 16.1 13.85 16.05 14.1 16.05 14.35 16.0 14.6 15.95 14.8 15.9 15.0 15.85 15.25 15.8 15.45 15.75 15.65 15.65 15.8 15.6 16.0 15.5 16.2 15.4 16.35 15.3 16.5 15.2 16.65 15.1 16.8 14.95 16.95 14.85 17.05 14.7 17.15 14.6 17.25 14.45 17.35 14.3 17.45 14.15 17.5 14.0 17.55 13.85 17.6 13.7 17.65 13.55 17.7 13.35 17.7 13.2 17.75 13.0 17.75 12.8 17.75 12.65 17.75 12.5 17.7 12.3 17.65 12.15 17.65 12.0 17.55 11.85 17.5 11.7 17.45 11.55 17.35 11.45 17.25 11.3 17.15 11.15 17.05 11.05 16.9 10.95 16.8 10.8 16.65 10.7 16.5 10.6 16.35 10.5 16.15 10.4 16.0 10.35 15.8 10.25 15.65 10.2 15.45 10.15 15.25 10.1 15.0 10.05 14.8 10.0 14.55 9.95 14.35 9.95 14.1 9.9 13.85 9.9 13.6 9.9 13.35 9.9 13.05 9.9 12.8 9.9 12.55 9.9 12.25 9.95 12.05 9.95 11.8 10.0 11.55 10.05 11.35 10.1 11.15 10.15 10.9 10.2 10.7 10.25 10.5 10.35 10.35 10.4 10.15 10.5 10.0 10.6 9.8 10.7 9.65 10.8 9.5 10.9 9.35 11.05 9.2 11.15 9.1 11.3 9.0 11.4 8.9 11.55 8.8 11.7 8.7 11.85 8.65 12.0 8.6 12.15 8.55 12.3 8.5 12.45 8.45 12.65 8.45 12.8 8.4 13.0 8.4 L13.0 8.4 M13.0 9.3 Q12.9 9.3 12.75 9.3 12.65 9.3 12.55 9.35 12.45 9.4 12.35 9.45 12.25 9.45 12.15 9.55 12.05 9.6 11.95 9.65 11.9 9.75 11.8 9.85 11.75 9.95 11.65 10.05 11.6 10.15 11.5 10.3 11.45 10.4 11.4 10.55 11.3 10.7 11.3 10.85 11.25 11.0 11.2 11.15 11.15 11.3 11.1 11.45 11.1 11.65 11.05 11.85 11.05 12.0 11.0 12.2 11.0 12.4 11.0 12.6 11.0 12.85 11.0 13.05 11.0 13.3 11.0 13.5 11.0 13.7 11.0 13.9 11.05 14.1 11.05 14.3 11.1 14.5 11.1 14.65 11.15 14.85 11.2 15.0 11.25 15.15 11.3 15.3 11.35 15.45 11.4 15.6 11.45 15.75 11.5 15.85 11.55 16.0 11.65 16.1 11.7 16.2 11.8 16.3 11.9 16.4 11.95 16.45 12.05 16.55 12.15 16.6 12.25 16.65 12.35 16.7 12.45 16.75 12.55 16.8 12.65 16.85 12.75 16.85 12.9 16.85 13.0 16.85 13.1 16.85 13.25 16.85 13.35 16.85 13.45 16.8 13.55 16.75 13.65 16.7 13.8 16.7 13.85 16.6 13.95 16.55 14.05 16.5 14.15 16.4 14.2 16.3 14.3 16.25 14.35 16.15 14.45 16.0 14.5 15.9 14.55 15.8 14.6 15.65 14.7 15.5 14.75 15.35 14.75 15.2 14.8 15.05 14.85 14.9 14.9 14.7 14.9 14.55 14.95 14.35 14.95 14.15 15.0 13.95 15.0 13.75 15.0 13.55 15.0 13.3 15.0 13.1 15.0 12.85 15.0 12.65 15.0 12.4 15.0 12.2 14.95 12.0 14.95 11.8 14.9 11.6 14.9 11.45 14.85 11.25 14.8 11.1 14.75 10.95 14.75 10.8 14.7 10.65 14.6 10.5 14.55 10.35 14.5 10.25 14.45 10.15 14.35 10.0 14.3 9.9 14.2 9.85 14.15 9.75 14.05 9.65 13.95 9.6 13.85 9.5 13.8 9.45 13.65 9.4 13.55 9.35 13.45 9.35 13.35 9.3 13.25 9.3 13.1 9.3 13.0 9.3 L13.0 9.3" fill="#ffffff" fill-rule="evenodd" stroke="none"/>
  </g>
</svg>
