<?xml version="1.0" encoding="UTF-8" standalone="no"?>
<svg xmlns:ffdec="https://www.free-decompiler.com/flash" xmlns:xlink="http://www.w3.org/1999/xlink" ffdec:objectType="shape" height="26.0px" width="35.75px" xmlns="http://www.w3.org/2000/svg">
  <g transform="matrix(1.0, 0.0, 0.0, 1.0, 0.0, 0.0)">
    <path d="M4.0 3.0 Q3.9 3.0 3.8 3.0 3.7 3.05 3.6 3.1 3.5 3.1 3.45 3.15 3.35 3.2 3.3 3.3 3.2 3.35 3.15 3.45 3.1 3.5 3.1 3.6 3.05 3.7 3.0 3.8 3.0 3.9 3.0 4.0 L3.0 22.0 Q3.0 22.1 3.0 22.2 3.05 22.3 3.1 22.4 3.1 22.5 3.15 22.55 3.2 22.65 3.3 22.7 3.35 22.8 3.45 22.85 3.5 22.9 3.6 22.9 3.7 22.95 3.8 23.0 3.9 23.0 4.0 23.0 L31.75 23.0 Q31.85 23.0 31.95 23.0 32.05 22.95 32.15 22.9 32.25 22.9 32.3 22.85 32.4 22.8 32.45 22.7 32.55 22.65 32.6 22.55 32.65 22.5 32.65 22.4 32.7 22.3 32.75 22.2 32.75 22.1 32.75 22.0 L32.75 4.0 Q32.75 3.9 32.75 3.8 32.7 3.7 32.65 3.6 32.65 3.5 32.6 3.45 32.55 3.35 32.45 3.3 32.4 3.2 32.3 3.15 32.25 3.1 32.15 3.1 32.05 3.05 31.95 3.0 31.85 3.0 31.75 3.0 L4.0 3.0 4.0 3.0 M21.5 7.95 L22.45 7.95 22.45 12.95 Q22.5 12.85 22.55 12.8 22.6 12.7 22.65 12.65 22.7 12.6 22.75 12.5 22.8 12.45 22.85 12.4 22.9 12.35 22.95 12.25 23.0 12.2 23.05 12.15 23.1 12.1 23.15 12.1 23.25 12.05 23.3 12.0 23.35 11.95 23.45 11.9 23.5 11.9 23.55 11.85 23.65 11.8 23.7 11.8 23.8 11.75 23.85 11.75 23.95 11.75 24.0 11.7 24.1 11.7 24.2 11.7 24.25 11.7 24.35 11.7 24.4 11.65 24.5 11.65 24.65 11.65 24.8 11.65 24.95 11.7 25.1 11.7 25.2 11.75 25.35 11.8 25.5 11.8 25.6 11.9 25.7 11.95 25.85 12.0 25.95 12.05 26.05 12.15 26.15 12.2 26.25 12.3 26.35 12.4 26.45 12.5 26.55 12.6 26.6 12.7 26.7 12.8 26.75 12.95 26.85 13.05 26.9 13.2 26.95 13.3 27.0 13.45 27.05 13.6 27.05 13.75 27.1 13.9 27.1 14.05 27.15 14.2 27.15 14.35 27.15 14.55 27.15 14.7 27.15 14.85 27.15 15.05 27.15 15.2 27.1 15.35 27.1 15.5 27.05 15.65 27.05 15.8 27.0 15.95 26.95 16.1 26.9 16.2 26.8 16.35 26.75 16.45 26.7 16.6 26.6 16.7 26.5 16.8 26.45 16.9 26.35 17.0 26.25 17.1 26.15 17.2 26.05 17.25 25.95 17.35 25.8 17.4 25.7 17.5 25.55 17.55 25.45 17.6 25.3 17.6 25.2 17.65 25.05 17.7 24.9 17.7 24.75 17.75 24.65 17.75 24.45 17.75 24.35 17.75 24.3 17.75 24.2 17.75 24.15 17.7 24.05 17.7 24.0 17.7 23.9 17.7 23.85 17.65 23.8 17.65 23.7 17.6 23.65 17.6 23.55 17.55 23.5 17.55 23.4 17.5 23.35 17.45 23.3 17.4 23.25 17.35 23.15 17.3 23.1 17.25 23.05 17.25 23.0 17.2 22.9 17.1 22.85 17.05 22.8 17.0 22.75 16.95 22.7 16.9 22.65 16.85 22.6 16.75 22.55 16.7 22.5 16.65 22.45 16.55 22.4 16.5 L22.4 17.5 21.5 17.5 21.5 7.95 21.5 7.95 M8.6 8.5 L14.75 8.5 14.75 9.5 12.2 9.5 12.2 17.5 11.15 17.5 11.15 9.5 8.6 9.5 8.6 8.5 8.6 8.5 M16.55 11.65 Q16.65 11.65 16.75 11.65 16.8 11.65 16.9 11.7 17.0 11.7 17.05 11.7 17.15 11.75 17.2 11.75 17.3 11.75 17.35 11.8 17.45 11.8 17.5 11.85 17.6 11.9 17.65 11.9 17.7 11.95 17.8 12.0 17.85 12.05 17.9 12.1 18.0 12.1 18.05 12.15 18.1 12.2 18.15 12.25 18.2 12.35 18.25 12.4 18.3 12.45 18.35 12.5 18.4 12.55 18.45 12.65 18.5 12.7 18.55 12.8 18.6 12.85 18.6 12.95 L18.6 11.9 19.6 11.9 19.6 17.5 18.65 17.5 18.65 16.5 Q18.6 16.55 18.55 16.65 18.5 16.7 18.45 16.8 18.4 16.85 18.35 16.9 18.3 16.95 18.25 17.0 18.2 17.1 18.15 17.15 18.1 17.2 18.05 17.25 17.95 17.3 17.9 17.35 17.85 17.4 17.8 17.4 17.75 17.45 17.65 17.5 17.6 17.5 17.5 17.55 17.45 17.6 17.35 17.6 17.3 17.65 17.25 17.65 17.15 17.7 17.1 17.7 17.0 17.7 16.9 17.7 16.85 17.75 16.75 17.75 16.7 17.75 16.6 17.75 16.45 17.75 16.3 17.75 16.15 17.7 16.05 17.7 15.9 17.65 15.75 17.65 15.65 17.6 15.5 17.55 15.4 17.5 15.25 17.4 15.15 17.35 15.05 17.25 14.95 17.2 14.85 17.1 14.75 17.0 14.65 16.9 14.55 16.8 14.5 16.7 14.4 16.55 14.35 16.45 14.25 16.35 14.2 16.2 14.15 16.1 14.1 15.95 14.05 15.8 14.0 15.65 14.0 15.5 13.95 15.35 13.95 15.2 13.9 15.05 13.9 14.85 13.9 14.7 13.9 14.55 13.9 14.35 13.95 14.2 13.95 14.05 14.0 13.9 14.0 13.75 14.05 13.6 14.1 13.45 14.15 13.3 14.2 13.2 14.25 13.05 14.3 12.95 14.4 12.8 14.45 12.7 14.55 12.6 14.65 12.5 14.75 12.4 14.85 12.3 14.95 12.2 15.05 12.15 15.15 12.05 15.25 12.0 15.35 11.95 15.5 11.9 15.6 11.85 15.7 11.8 15.85 11.75 16.0 11.7 16.1 11.7 16.25 11.7 16.4 11.65 16.55 11.65 L16.55 11.65 M16.75 12.65 Q16.65 12.65 16.55 12.65 16.45 12.65 16.35 12.65 16.25 12.7 16.15 12.7 16.1 12.75 16.0 12.75 15.9 12.8 15.85 12.85 15.75 12.9 15.7 12.95 15.6 13.0 15.55 13.05 15.5 13.1 15.4 13.15 15.35 13.2 15.3 13.3 15.25 13.35 15.2 13.45 15.15 13.55 15.1 13.6 15.1 13.7 15.05 13.8 15.0 13.9 15.0 14.0 15.0 14.1 14.95 14.2 14.95 14.3 14.95 14.4 14.95 14.55 14.95 14.65 14.95 14.8 14.95 14.9 14.95 15.0 14.95 15.15 15.0 15.25 15.0 15.35 15.05 15.45 15.05 15.55 15.1 15.65 15.1 15.75 15.15 15.85 15.2 15.9 15.25 16.0 15.3 16.1 15.35 16.15 15.4 16.25 15.45 16.3 15.55 16.35 15.6 16.45 15.7 16.5 15.75 16.55 15.85 16.55 15.9 16.6 16.0 16.65 16.1 16.7 16.2 16.7 16.3 16.75 16.4 16.75 16.5 16.75 16.6 16.75 16.7 16.8 16.8 16.8 16.9 16.8 17.0 16.8 17.1 16.75 17.2 16.75 17.3 16.75 17.4 16.7 17.5 16.7 17.55 16.65 17.65 16.6 17.75 16.55 17.8 16.55 17.9 16.5 17.95 16.45 18.05 16.35 18.1 16.3 18.15 16.25 18.2 16.2 18.25 16.1 18.3 16.05 18.35 15.95 18.4 15.85 18.45 15.8 18.5 15.7 18.5 15.6 18.55 15.5 18.6 15.4 18.6 15.3 18.6 15.2 18.65 15.1 18.65 14.95 18.65 14.85 18.65 14.75 18.65 14.65 18.65 14.5 18.65 14.4 18.6 14.3 18.6 14.2 18.55 14.1 18.55 14.0 18.5 13.9 18.5 13.8 18.45 13.7 18.4 13.6 18.35 13.5 18.3 13.45 18.25 13.35 18.2 13.3 18.1 13.2 18.05 13.15 17.95 13.05 17.9 13.0 17.85 12.95 17.75 12.9 17.7 12.85 17.6 12.8 17.5 12.75 17.45 12.75 17.35 12.7 17.25 12.7 17.15 12.65 17.05 12.65 17.0 12.65 16.9 12.65 16.75 12.65 L16.75 12.65 M24.35 12.65 Q24.25 12.65 24.15 12.65 24.05 12.65 23.95 12.65 23.85 12.7 23.75 12.7 23.65 12.75 23.55 12.75 23.5 12.8 23.4 12.85 23.3 12.9 23.25 12.95 23.15 13.0 23.1 13.05 23.0 13.15 22.95 13.2 22.9 13.25 22.85 13.35 22.75 13.45 22.7 13.5 22.65 13.6 22.65 13.7 22.6 13.75 22.55 13.85 22.5 13.95 22.5 14.05 22.45 14.15 22.45 14.25 22.45 14.35 22.45 14.5 22.4 14.6 22.4 14.7 22.4 14.85 22.4 14.95 22.45 15.05 22.45 15.15 22.45 15.3 22.5 15.4 22.5 15.5 22.55 15.6 22.6 15.7 22.6 15.8 22.65 15.85 22.7 15.95 22.75 16.05 22.8 16.1 22.85 16.2 22.95 16.25 23.0 16.3 23.05 16.4 23.15 16.45 23.2 16.5 23.3 16.55 23.35 16.6 23.45 16.65 23.55 16.65 23.6 16.7 23.7 16.75 23.8 16.75 23.9 16.75 24.0 16.8 24.1 16.8 24.2 16.8 24.3 16.8 24.4 16.8 24.5 16.8 24.6 16.8 24.7 16.75 24.8 16.75 24.9 16.7 25.0 16.7 25.05 16.65 25.15 16.6 25.25 16.6 25.3 16.55 25.4 16.5 25.45 16.4 25.55 16.35 25.6 16.3 25.65 16.2 25.7 16.15 25.75 16.05 25.8 15.95 25.85 15.9 25.9 15.8 25.95 15.7 26.0 15.6 26.0 15.5 26.05 15.4 26.1 15.3 26.1 15.2 26.1 15.1 26.15 14.95 26.15 14.85 26.15 14.7 26.15 14.6 26.15 14.5 26.15 14.35 26.15 14.25 26.1 14.15 26.1 14.05 26.1 13.95 26.05 13.85 26.05 13.75 26.0 13.7 25.95 13.6 25.9 13.5 25.9 13.45 25.85 13.35 25.8 13.3 25.75 13.2 25.65 13.15 25.6 13.1 25.55 13.05 25.45 12.95 25.4 12.9 25.35 12.85 25.25 12.85 25.2 12.8 25.1 12.75 25.0 12.7 24.9 12.7 24.85 12.65 24.75 12.65 24.65 12.65 24.55 12.65 24.45 12.65 24.35 12.65 L24.35 12.65" fill="#ffffff" fill-rule="evenodd" stroke="none"/>
  </g>
</svg>
