<?xml version="1.0" encoding="UTF-8" standalone="no"?>
<svg xmlns:ffdec="https://www.free-decompiler.com/flash" xmlns:xlink="http://www.w3.org/1999/xlink" ffdec:objectType="shape" height="26.0px" width="26.0px" xmlns="http://www.w3.org/2000/svg">
  <g transform="matrix(1.0, 0.0, 0.0, 1.0, 0.0, 0.0)">
    <path d="M4.0 3.0 Q3.9 3.0 3.8 3.0 3.7 3.05 3.6 3.1 3.5 3.1 3.45 3.15 3.35 3.2 3.3 3.3 3.2 3.35 3.15 3.45 3.1 3.5 3.1 3.6 3.05 3.7 3.0 3.8 3.0 3.9 3.0 4.0 L3.0 22.0 Q3.0 22.1 3.0 22.2 3.05 22.3 3.1 22.4 3.1 22.5 3.15 22.55 3.2 22.65 3.3 22.7 3.35 22.8 3.45 22.85 3.5 22.9 3.6 22.9 3.7 22.95 3.8 23.0 3.9 23.0 4.0 23.0 L22.0 23.0 Q22.1 23.0 22.2 23.0 22.3 22.95 22.4 22.9 22.5 22.9 22.55 22.85 22.65 22.8 22.7 22.7 22.8 22.65 22.85 22.55 22.9 22.5 22.9 22.4 22.95 22.3 23.0 22.2 23.0 22.1 23.0 22.0 L23.0 4.0 Q23.0 3.9 23.0 3.8 22.95 3.7 22.9 3.6 22.9 3.5 22.85 3.45 22.8 3.35 22.7 3.3 22.65 3.2 22.55 3.15 22.5 3.1 22.4 3.1 22.3 3.05 22.2 3.0 22.1 3.0 22.0 3.0 L4.0 3.0 4.0 3.0 M9.5 8.5 L10.6 8.5 10.6 14.1 Q10.6 14.25 10.6 14.45 10.6 14.6 10.65 14.75 10.65 14.9 10.7 15.0 10.7 15.15 10.75 15.3 10.75 15.4 10.8 15.5 10.85 15.65 10.9 15.75 10.95 15.85 11.05 15.95 11.1 16.05 11.15 16.1 11.25 16.2 11.3 16.25 11.4 16.3 11.5 16.4 11.6 16.45 11.7 16.5 11.8 16.55 11.9 16.6 12.05 16.6 12.15 16.65 12.3 16.7 12.4 16.7 12.55 16.7 12.7 16.75 12.85 16.75 13.0 16.75 13.15 16.75 13.3 16.75 13.45 16.75 13.6 16.7 13.7 16.7 13.85 16.65 13.95 16.65 14.05 16.6 14.2 16.55 14.3 16.5 14.4 16.45 14.5 16.4 14.6 16.35 14.65 16.25 14.75 16.2 14.8 16.1 14.9 16.0 14.95 15.95 15.0 15.85 15.05 15.75 15.1 15.65 15.15 15.5 15.2 15.4 15.25 15.3 15.3 15.15 15.3 15.0 15.35 14.9 15.35 14.75 15.4 14.6 15.4 14.45 15.4 14.25 15.4 14.1 L15.4 8.5 16.5 8.5 16.5 14.1 Q16.5 14.35 16.5 14.55 16.45 14.75 16.45 14.95 16.4 15.15 16.35 15.35 16.35 15.55 16.25 15.7 16.2 15.85 16.15 16.0 16.1 16.2 16.0 16.3 15.9 16.45 15.8 16.6 15.7 16.7 15.6 16.85 15.5 16.95 15.35 17.05 15.25 17.15 15.1 17.25 15.0 17.3 14.85 17.4 14.7 17.45 14.55 17.5 14.35 17.55 14.2 17.6 14.0 17.65 13.8 17.7 13.65 17.7 13.4 17.75 13.2 17.75 13.0 17.75 12.8 17.75 12.6 17.75 12.35 17.7 12.2 17.7 12.0 17.65 11.8 17.6 11.65 17.55 11.45 17.5 11.3 17.45 11.15 17.4 11.0 17.3 10.85 17.25 10.75 17.15 10.6 17.05 10.5 16.95 10.4 16.85 10.3 16.75 10.2 16.6 10.1 16.45 10.0 16.35 9.95 16.2 9.85 16.05 9.8 15.85 9.75 15.7 9.7 15.55 9.65 15.35 9.6 15.15 9.55 14.95 9.55 14.75 9.55 14.55 9.5 14.35 9.5 14.1 L9.5 8.5 9.5 8.5" fill="#ffffff" fill-rule="evenodd" stroke="none"/>
  </g>
</svg>
