<?xml version="1.0" encoding="UTF-8" standalone="no"?>
<svg xmlns:ffdec="https://www.free-decompiler.com/flash" xmlns:xlink="http://www.w3.org/1999/xlink" ffdec:objectType="shape" height="26.0px" width="35.75px" xmlns="http://www.w3.org/2000/svg">
  <g transform="matrix(1.0, 0.0, 0.0, 1.0, 0.0, 0.0)">
    <path d="M4.0 3.0 Q3.9 3.0 3.8 3.0 3.7 3.05 3.6 3.1 3.5 3.1 3.45 3.15 3.35 3.2 3.3 3.3 3.2 3.35 3.15 3.45 3.1 3.5 3.1 3.6 3.05 3.7 3.0 3.8 3.0 3.9 3.0 4.0 L3.0 22.0 Q3.0 22.1 3.0 22.2 3.05 22.3 3.1 22.4 3.1 22.5 3.15 22.55 3.2 22.65 3.3 22.7 3.35 22.8 3.45 22.85 3.5 22.9 3.6 22.9 3.7 22.95 3.8 23.0 3.9 23.0 4.0 23.0 L31.75 23.0 Q31.85 23.0 31.95 23.0 32.05 22.95 32.15 22.9 32.25 22.9 32.3 22.85 32.4 22.8 32.45 22.7 32.55 22.65 32.6 22.55 32.65 22.5 32.65 22.4 32.7 22.3 32.75 22.2 32.75 22.1 32.75 22.0 L32.75 4.0 Q32.75 3.9 32.75 3.8 32.7 3.7 32.65 3.6 32.65 3.5 32.6 3.45 32.55 3.35 32.45 3.3 32.4 3.2 32.3 3.15 32.25 3.1 32.15 3.1 32.05 3.05 31.95 3.0 31.85 3.0 31.75 3.0 L4.0 3.0 4.0 3.0 M28.65 7.95 L29.6 7.95 29.6 17.5 28.65 17.5 28.65 7.95 28.65 7.95 M16.2 8.3 Q16.3 8.3 16.4 8.3 16.5 8.3 16.6 8.3 16.7 8.3 16.8 8.3 16.9 8.35 17.0 8.35 17.1 8.35 17.2 8.4 17.25 8.4 17.35 8.4 17.45 8.45 17.55 8.45 17.65 8.5 17.75 8.55 17.85 8.55 17.95 8.6 18.0 8.65 18.1 8.65 18.2 8.7 18.3 8.75 18.35 8.8 18.45 8.85 18.55 8.85 18.65 8.9 18.75 8.95 18.8 9.0 18.9 9.1 19.0 9.15 19.1 9.2 19.2 9.25 L19.2 10.65 Q19.1 10.55 19.05 10.5 18.95 10.4 18.85 10.3 18.75 10.25 18.7 10.2 18.6 10.1 18.5 10.05 18.45 10.0 18.35 9.9 18.25 9.85 18.15 9.8 18.05 9.75 18.0 9.7 17.9 9.65 17.8 9.6 17.7 9.55 17.6 9.55 17.5 9.5 17.45 9.45 17.35 9.45 17.25 9.4 17.15 9.4 17.05 9.35 16.95 9.35 16.85 9.35 16.7 9.3 16.6 9.3 16.5 9.3 16.4 9.3 16.3 9.3 16.2 9.3 16.1 9.3 16.0 9.3 15.95 9.3 15.85 9.3 15.75 9.3 15.65 9.35 15.55 9.35 15.5 9.35 15.4 9.35 15.3 9.4 15.2 9.4 15.15 9.45 15.05 9.45 14.95 9.5 14.85 9.55 14.8 9.55 14.7 9.6 14.65 9.65 14.55 9.7 14.45 9.7 14.4 9.75 14.3 9.8 14.25 9.85 14.15 9.9 14.1 9.95 14.0 10.0 13.95 10.05 13.9 10.15 13.8 10.2 13.75 10.25 13.7 10.3 13.6 10.4 13.55 10.45 13.5 10.55 13.4 10.6 13.35 10.65 13.3 10.75 13.25 10.8 13.2 10.85 13.15 10.95 13.1 11.0 13.05 11.1 13.05 11.15 13.0 11.25 12.95 11.35 12.9 11.4 12.85 11.5 12.85 11.55 12.8 11.65 12.8 11.7 12.75 11.8 12.75 11.9 12.7 12.0 12.7 12.1 12.65 12.15 12.65 12.25 12.65 12.35 12.6 12.45 12.6 12.55 12.6 12.65 12.6 12.75 12.6 12.85 12.6 12.95 12.6 13.05 12.6 13.1 12.6 13.2 12.6 13.25 12.6 13.35 12.6 13.4 12.6 13.5 12.6 13.55 12.6 13.65 12.65 13.7 12.65 13.8 12.65 13.85 12.65 13.9 12.7 14.0 12.7 14.05 12.7 14.1 12.75 14.2 12.75 14.25 12.8 14.35 12.8 14.4 12.85 14.45 12.85 14.5 12.9 14.55 12.9 14.65 12.95 14.7 12.95 14.75 13.0 14.8 13.0 14.85 13.05 14.95 13.1 15.0 13.1 15.05 13.15 15.1 13.2 15.15 13.25 15.25 13.35 15.35 13.4 15.45 13.5 15.5 13.55 15.6 13.65 15.7 13.7 15.75 13.8 15.85 13.9 15.9 13.95 16.0 14.05 16.05 14.15 16.1 14.25 16.2 14.35 16.25 14.45 16.3 14.55 16.35 14.65 16.4 14.75 16.45 14.85 16.5 14.95 16.55 15.05 16.55 15.15 16.6 15.25 16.65 15.35 16.65 15.45 16.7 15.55 16.7 15.65 16.7 15.8 16.75 15.9 16.75 16.0 16.75 16.1 16.75 16.25 16.75 16.35 16.75 16.45 16.75 16.55 16.75 16.65 16.75 16.75 16.7 16.85 16.7 16.95 16.7 17.05 16.65 17.15 16.65 17.25 16.6 17.35 16.6 17.45 16.55 17.55 16.5 17.65 16.5 17.75 16.45 17.85 16.4 17.95 16.35 18.05 16.3 18.1 16.25 18.2 16.2 18.3 16.15 18.35 16.1 18.45 16.0 18.55 15.95 18.6 15.9 18.7 15.8 18.8 15.75 18.85 15.65 18.95 15.6 19.0 15.5 19.1 15.4 19.2 15.35 L19.2 16.75 Q19.1 16.8 19.0 16.85 18.95 16.95 18.85 17.0 18.75 17.05 18.65 17.1 18.6 17.15 18.5 17.2 18.4 17.25 18.3 17.25 18.2 17.3 18.1 17.35 18.0 17.4 17.95 17.45 17.85 17.45 17.75 17.5 17.65 17.55 17.55 17.55 17.45 17.6 17.35 17.6 17.25 17.65 17.15 17.65 17.05 17.65 16.95 17.7 16.85 17.7 16.75 17.7 16.65 17.7 16.55 17.7 16.45 17.75 16.35 17.75 16.25 17.75 16.15 17.75 16.05 17.75 15.95 17.75 15.9 17.75 15.8 17.75 15.7 17.7 15.6 17.7 15.55 17.7 15.45 17.7 15.35 17.65 15.25 17.65 15.2 17.65 15.1 17.6 15.0 17.6 14.9 17.6 14.85 17.55 14.75 17.55 14.65 17.5 14.6 17.5 14.5 17.45 14.4 17.4 14.35 17.4 14.25 17.35 14.2 17.3 14.1 17.25 14.0 17.25 13.95 17.2 13.85 17.15 13.8 17.1 13.7 17.05 13.65 17.0 13.55 16.95 13.5 16.9 13.35 16.8 13.25 16.75 13.15 16.65 13.05 16.55 12.9 16.45 12.8 16.35 12.7 16.25 12.6 16.15 12.5 16.05 12.45 15.95 12.35 15.85 12.25 15.7 12.2 15.6 12.1 15.5 12.05 15.35 12.0 15.25 11.95 15.1 11.85 15.0 11.8 14.85 11.75 14.75 11.7 14.6 11.65 14.45 11.65 14.35 11.6 14.2 11.55 14.05 11.55 13.9 11.5 13.75 11.5 13.65 11.5 13.5 11.45 13.35 11.45 13.2 11.45 13.05 11.45 12.9 11.45 12.8 11.45 12.65 11.5 12.55 11.5 12.4 11.5 12.3 11.55 12.15 11.55 12.05 11.55 11.95 11.6 11.8 11.6 11.7 11.65 11.6 11.7 11.5 11.75 11.35 11.75 11.25 11.8 11.15 11.85 11.05 11.9 10.95 11.95 10.85 12.0 10.75 12.05 10.65 12.1 10.55 12.2 10.45 12.25 10.35 12.3 10.25 12.4 10.15 12.45 10.05 12.55 9.95 12.6 9.85 12.7 9.8 12.8 9.7 12.85 9.6 12.95 9.5 13.05 9.45 13.1 9.35 13.2 9.3 13.3 9.2 13.4 9.15 13.5 9.1 13.6 9.05 13.7 8.95 13.8 8.9 13.9 8.85 14.0 8.8 14.1 8.75 14.2 8.7 14.3 8.65 14.4 8.6 14.5 8.55 14.6 8.55 14.7 8.5 14.8 8.45 14.95 8.45 15.05 8.4 15.15 8.4 15.25 8.35 15.4 8.35 15.5 8.35 15.6 8.3 15.75 8.3 15.85 8.3 16.0 8.3 16.1 8.3 16.2 8.3 L16.2 8.3 M6.15 8.5 L7.2 8.5 7.2 16.5 10.6 16.5 10.6 17.5 6.15 17.5 6.15 8.5 6.15 8.5 M21.05 9.6 L22.05 9.6 22.05 11.9 23.05 11.9 23.05 12.65 22.05 12.65 22.05 17.5 21.05 17.5 21.05 12.65 20.0 12.65 20.0 11.9 21.05 11.9 21.05 9.6 21.05 9.6 M26.9 11.7 Q26.95 11.7 27.0 11.7 27.05 11.7 27.1 11.7 27.15 11.7 27.15 11.7 27.2 11.7 27.25 11.7 27.55 11.8 27.55 11.8 L27.25 12.65 Q27.0 12.6 26.95 12.6 26.9 12.6 26.85 12.6 26.85 12.55 26.8 12.55 26.75 12.55 26.7 12.55 26.7 12.55 26.65 12.55 26.55 12.55 26.45 12.55 26.4 12.55 26.3 12.6 26.2 12.6 26.15 12.65 26.05 12.65 26.0 12.7 25.9 12.7 25.85 12.75 25.8 12.8 25.7 12.85 25.65 12.9 25.6 13.0 25.55 13.05 25.5 13.1 25.45 13.15 25.4 13.25 25.35 13.35 25.35 13.4 25.3 13.5 25.3 13.6 25.25 13.7 25.2 13.8 25.2 13.9 25.2 14.0 25.15 14.1 25.15 14.25 25.15 14.35 25.15 14.5 25.15 14.6 25.15 14.75 L25.15 17.5 24.2 17.5 24.2 11.9 25.05 11.9 25.05 13.05 Q25.1 12.95 25.15 12.85 25.2 12.8 25.25 12.7 25.3 12.65 25.35 12.55 25.4 12.5 25.45 12.4 25.5 12.35 25.55 12.3 25.6 12.25 25.65 12.2 25.7 12.15 25.75 12.1 25.8 12.05 25.85 12.0 25.9 11.95 25.95 11.95 26.0 11.9 26.1 11.85 26.15 11.85 26.2 11.8 26.25 11.8 26.35 11.75 26.4 11.75 26.45 11.75 26.55 11.7 26.6 11.7 26.7 11.7 26.75 11.7 26.85 11.7 26.9 11.7 L26.9 11.7" fill="#ffffff" fill-rule="evenodd" stroke="none"/>
  </g>
</svg>
