<?xml version="1.0" encoding="UTF-8" standalone="no"?>
<svg xmlns:ffdec="https://www.free-decompiler.com/flash" xmlns:xlink="http://www.w3.org/1999/xlink" ffdec:objectType="shape" height="26.0px" width="41.75px" xmlns="http://www.w3.org/2000/svg">
  <g transform="matrix(1.0, 0.0, 0.0, 1.0, 0.0, 0.0)">
    <path d="M4.0 3.0 Q3.9 3.0 3.8 3.0 3.7 3.05 3.6 3.1 3.5 3.1 3.45 3.15 3.35 3.2 3.3 3.3 3.2 3.35 3.15 3.45 3.1 3.5 3.1 3.6 3.05 3.7 3.0 3.8 3.0 3.9 3.0 4.0 L3.0 22.0 Q3.0 22.1 3.0 22.2 3.05 22.3 3.1 22.4 3.1 22.5 3.15 22.55 3.2 22.65 3.3 22.7 3.35 22.8 3.45 22.85 3.5 22.9 3.6 22.9 3.7 22.95 3.8 23.0 3.9 23.0 4.0 23.0 L37.75 23.0 Q37.85 23.0 37.95 23.0 38.05 22.95 38.15 22.9 38.25 22.9 38.3 22.85 38.4 22.8 38.45 22.7 38.55 22.65 38.6 22.55 38.65 22.5 38.65 22.4 38.7 22.3 38.75 22.2 38.75 22.1 38.75 22.0 L38.75 4.0 Q38.75 3.9 38.75 3.8 38.7 3.7 38.65 3.6 38.65 3.5 38.6 3.45 38.55 3.35 38.45 3.3 38.4 3.2 38.3 3.15 38.25 3.1 38.15 3.1 38.05 3.05 37.95 3.0 37.85 3.0 37.75 3.0 L4.0 3.0 4.0 3.0 M31.35 7.85 Q31.6 7.85 31.8 7.9 31.85 7.9 31.9 7.9 31.9 7.9 31.95 7.9 32.0 7.95 32.05 7.95 32.1 7.95 32.1 7.95 32.15 7.95 32.2 8.0 L32.2 9.0 Q32.15 8.95 32.1 8.95 32.1 8.95 32.05 8.9 32.0 8.9 31.95 8.9 31.95 8.85 31.9 8.85 31.85 8.85 31.8 8.85 31.75 8.85 31.7 8.8 31.7 8.8 31.65 8.8 31.6 8.8 31.55 8.8 31.5 8.8 31.45 8.8 31.4 8.8 31.35 8.8 31.3 8.8 31.25 8.8 31.2 8.8 31.15 8.8 31.1 8.85 31.1 8.85 31.05 8.85 31.0 8.9 31.0 8.9 30.95 8.95 30.9 8.95 30.9 9.0 30.85 9.0 30.85 9.05 30.85 9.1 30.8 9.15 30.8 9.15 30.8 9.25 30.75 9.3 30.75 9.35 30.75 9.45 30.75 9.5 30.7 9.6 30.7 9.7 30.7 9.8 30.7 9.9 30.7 10.0 30.7 10.1 30.7 10.25 30.7 10.4 L30.7 11.9 32.2 11.9 32.2 12.65 30.7 12.65 30.7 17.5 29.75 17.5 29.75 12.65 28.65 12.65 28.65 11.9 29.75 11.9 29.75 10.25 Q29.75 10.05 29.75 9.9 29.75 9.75 29.75 9.6 29.8 9.45 29.8 9.3 29.8 9.2 29.85 9.05 29.85 8.95 29.9 8.85 29.9 8.75 29.95 8.65 29.95 8.55 30.0 8.5 30.05 8.4 30.1 8.35 30.15 8.3 30.2 8.25 30.25 8.2 30.3 8.15 30.35 8.1 30.45 8.05 30.5 8.0 30.6 8.0 30.65 7.95 30.75 7.9 30.85 7.9 30.95 7.9 31.05 7.85 31.15 7.85 31.25 7.85 31.35 7.85 L31.35 7.85 M19.4 7.95 L20.35 7.95 20.35 12.75 Q20.4 12.7 20.45 12.6 20.5 12.55 20.55 12.5 20.6 12.45 20.65 12.4 20.7 12.3 20.75 12.25 20.8 12.2 20.9 12.15 20.95 12.15 21.0 12.1 21.05 12.05 21.1 12.0 21.15 11.95 21.25 11.95 21.3 11.9 21.4 11.9 21.45 11.85 21.5 11.85 21.6 11.8 21.65 11.8 21.7 11.75 21.8 11.75 21.85 11.7 21.95 11.7 22.0 11.7 22.1 11.7 22.15 11.7 22.25 11.7 22.35 11.65 22.4 11.65 22.55 11.65 22.65 11.65 22.75 11.7 22.9 11.7 23.0 11.7 23.1 11.75 23.2 11.75 23.3 11.8 23.4 11.85 23.5 11.9 23.6 11.9 23.65 11.95 23.75 12.0 23.85 12.1 23.9 12.15 23.95 12.2 24.0 12.25 24.1 12.35 24.15 12.4 24.2 12.5 24.25 12.55 24.3 12.65 24.35 12.75 24.4 12.85 24.45 12.9 24.45 13.0 24.5 13.1 24.5 13.25 24.5 13.35 24.5 13.45 24.55 13.55 24.55 13.65 L24.55 17.5 23.55 17.5 23.55 14.2 Q23.55 14.1 23.55 14.0 23.55 13.9 23.55 13.8 23.5 13.7 23.5 13.6 23.5 13.5 23.45 13.45 23.45 13.35 23.4 13.3 23.4 13.2 23.35 13.15 23.3 13.1 23.25 13.05 23.25 12.95 23.2 12.9 23.15 12.85 23.1 12.8 23.05 12.75 23.0 12.75 22.95 12.7 22.85 12.65 22.8 12.65 22.75 12.6 22.65 12.6 22.6 12.55 22.5 12.55 22.45 12.55 22.35 12.5 22.25 12.5 22.15 12.5 22.1 12.5 22.05 12.5 22.0 12.5 21.95 12.5 21.9 12.5 21.8 12.5 21.75 12.5 21.7 12.55 21.65 12.55 21.6 12.55 21.55 12.55 21.5 12.6 21.5 12.6 21.45 12.6 21.4 12.6 21.35 12.65 21.3 12.65 21.25 12.65 21.2 12.7 21.15 12.7 21.15 12.75 21.1 12.75 21.05 12.8 21.0 12.8 20.95 12.85 20.95 12.9 20.9 12.9 20.85 12.95 20.85 12.95 20.8 13.0 20.75 13.05 20.75 13.05 20.7 13.1 20.7 13.15 20.65 13.15 20.65 13.2 20.6 13.2 20.6 13.25 20.6 13.3 20.55 13.3 20.55 13.35 20.55 13.35 20.5 13.4 20.5 13.45 20.5 13.45 20.5 13.5 20.45 13.55 20.45 13.55 20.45 13.6 20.45 13.65 20.45 13.7 20.45 13.7 20.4 13.75 20.4 13.8 20.4 13.9 20.4 13.95 20.4 14.0 20.4 14.05 20.4 14.1 20.4 14.2 20.4 14.25 20.4 14.35 20.4 14.4 20.4 14.5 20.4 14.6 L20.4 17.5 19.4 17.5 19.4 7.95 19.4 7.95 M15.3 8.3 Q15.4 8.3 15.5 8.3 15.6 8.3 15.7 8.3 15.75 8.3 15.85 8.35 15.95 8.35 16.05 8.35 16.15 8.4 16.2 8.4 16.3 8.45 16.35 8.5 16.45 8.5 16.55 8.55 16.6 8.6 16.7 8.65 16.75 8.7 16.85 8.75 16.9 8.8 16.95 8.85 17.05 8.9 17.1 8.95 17.15 9.0 17.2 9.05 17.25 9.1 17.35 9.2 17.4 9.25 17.45 9.35 17.5 9.4 17.5 9.5 17.55 9.55 17.6 9.65 L16.7 10.2 Q16.65 10.15 16.65 10.1 16.6 10.0 16.55 9.95 16.5 9.9 16.5 9.85 16.45 9.8 16.4 9.75 16.35 9.7 16.3 9.65 16.3 9.6 16.25 9.6 16.2 9.55 16.15 9.5 16.1 9.45 16.05 9.45 16.0 9.4 15.95 9.4 15.9 9.35 15.85 9.35 15.8 9.3 15.75 9.3 15.7 9.25 15.65 9.25 15.6 9.25 15.55 9.2 15.5 9.2 15.45 9.2 15.4 9.2 15.3 9.2 15.25 9.2 15.2 9.2 15.15 9.2 15.05 9.2 15.0 9.2 14.9 9.2 14.85 9.2 14.8 9.25 14.7 9.25 14.65 9.25 14.6 9.3 14.55 9.3 14.45 9.35 14.4 9.4 14.35 9.4 14.3 9.45 14.25 9.5 14.2 9.55 14.15 9.6 14.1 9.65 14.05 9.7 14.05 9.75 14.0 9.8 14.0 9.85 13.95 9.9 13.9 9.95 13.9 10.0 13.9 10.1 13.85 10.15 13.85 10.2 13.85 10.3 13.85 10.35 13.85 10.4 13.85 10.5 13.85 10.55 13.85 10.6 13.85 10.65 13.85 10.7 13.85 10.8 13.9 10.85 13.9 10.9 13.9 10.95 13.9 11.0 13.95 11.05 13.95 11.1 14.0 11.15 14.0 11.2 14.05 11.25 14.1 11.25 14.15 11.3 14.2 11.35 14.2 11.4 14.25 11.45 14.3 11.5 14.35 11.5 14.4 11.55 14.45 11.6 14.5 11.65 14.55 11.7 14.6 11.7 14.7 11.75 14.75 11.8 14.8 11.85 14.9 11.85 14.95 11.9 15.05 11.95 L16.35 12.5 Q16.45 12.55 16.55 12.6 16.65 12.65 16.75 12.7 16.85 12.75 16.95 12.8 17.0 12.9 17.1 12.95 17.2 13.0 17.25 13.05 17.35 13.15 17.4 13.2 17.45 13.25 17.55 13.35 17.6 13.4 17.65 13.5 17.7 13.6 17.75 13.65 17.8 13.75 17.85 13.8 17.9 13.9 17.9 14.0 17.95 14.1 18.0 14.2 18.0 14.25 18.05 14.35 18.05 14.45 18.05 14.55 18.1 14.65 18.1 14.75 18.1 14.85 18.1 14.95 18.1 15.1 18.1 15.25 18.05 15.4 18.05 15.55 18.0 15.7 18.0 15.85 17.95 15.95 17.9 16.1 17.85 16.2 17.8 16.35 17.7 16.45 17.65 16.55 17.6 16.65 17.5 16.75 17.4 16.9 17.3 16.95 17.2 17.05 17.1 17.15 17.0 17.2 16.9 17.3 16.75 17.35 16.65 17.45 16.5 17.5 16.4 17.55 16.25 17.6 16.1 17.6 16.0 17.65 15.85 17.7 15.7 17.7 15.55 17.7 15.4 17.75 15.2 17.75 15.05 17.75 14.95 17.75 14.8 17.7 14.7 17.7 14.6 17.7 14.45 17.65 14.35 17.65 14.25 17.6 14.1 17.55 14.0 17.5 13.9 17.45 13.8 17.4 13.7 17.35 13.6 17.3 13.5 17.25 13.45 17.2 13.35 17.15 13.25 17.05 13.2 16.95 13.1 16.9 13.05 16.8 12.95 16.7 12.9 16.6 12.85 16.55 12.75 16.45 12.7 16.3 12.65 16.2 12.6 16.1 12.55 16.0 12.55 15.9 12.5 15.75 12.45 15.65 L13.45 15.15 Q13.45 15.25 13.5 15.35 13.5 15.45 13.55 15.55 13.6 15.65 13.6 15.7 13.65 15.8 13.7 15.9 13.75 15.95 13.8 16.05 13.8 16.1 13.85 16.15 13.9 16.25 13.95 16.3 14.0 16.35 14.1 16.4 14.15 16.45 14.2 16.5 14.25 16.55 14.35 16.6 14.4 16.6 14.45 16.65 14.5 16.7 14.6 16.7 14.65 16.75 14.75 16.75 14.8 16.8 14.9 16.8 14.95 16.8 15.05 16.8 15.15 16.8 15.2 16.8 15.3 16.8 15.4 16.8 15.5 16.8 15.6 16.8 15.7 16.75 15.75 16.75 15.85 16.75 15.95 16.7 16.0 16.65 16.1 16.65 16.2 16.6 16.25 16.55 16.3 16.5 16.4 16.45 16.45 16.4 16.5 16.35 16.55 16.3 16.6 16.25 16.7 16.15 16.75 16.1 16.8 16.05 16.8 15.95 16.85 15.9 16.9 15.8 16.9 15.75 16.95 15.65 16.95 15.6 17.0 15.5 17.0 15.4 17.0 15.35 17.0 15.25 17.0 15.15 17.0 15.05 17.0 15.0 17.0 14.95 17.0 14.85 17.0 14.8 16.95 14.7 16.95 14.65 16.9 14.6 16.9 14.5 16.9 14.45 16.85 14.4 16.8 14.35 16.8 14.25 16.75 14.2 16.7 14.15 16.65 14.1 16.6 14.05 16.55 14.0 16.5 13.95 16.45 13.9 16.4 13.85 16.35 13.8 16.3 13.75 16.25 13.7 16.15 13.65 16.1 13.6 16.0 13.55 15.95 13.5 15.85 13.45 15.8 13.4 15.7 13.4 15.6 13.35 L14.55 12.9 Q14.45 12.85 14.3 12.8 14.2 12.75 14.1 12.7 14.0 12.65 13.9 12.55 13.85 12.5 13.75 12.45 13.65 12.4 13.6 12.35 13.5 12.25 13.45 12.2 13.35 12.15 13.3 12.05 13.25 12.0 13.2 11.9 13.15 11.85 13.1 11.75 13.05 11.7 13.0 11.6 12.95 11.5 12.9 11.45 12.9 11.35 12.85 11.25 12.85 11.15 12.8 11.1 12.8 11.0 12.8 10.9 12.75 10.8 12.75 10.7 12.75 10.6 12.75 10.5 12.75 10.4 12.75 10.25 12.75 10.15 12.8 10.05 12.8 9.95 12.85 9.85 12.9 9.7 12.95 9.6 12.95 9.5 13.05 9.45 13.1 9.35 13.15 9.25 13.2 9.15 13.3 9.05 13.35 9.0 13.45 8.9 13.55 8.8 13.65 8.75 13.75 8.7 13.85 8.65 13.95 8.6 14.05 8.55 14.15 8.5 14.25 8.45 14.4 8.4 14.5 8.35 14.65 8.35 14.75 8.3 14.9 8.3 15.0 8.3 15.15 8.3 15.3 8.3 L15.3 8.3 M26.95 8.45 Q27.0 8.45 27.05 8.45 27.05 8.45 27.1 8.45 27.15 8.5 27.15 8.5 27.2 8.5 27.25 8.5 27.25 8.55 27.3 8.55 27.3 8.55 27.35 8.6 27.4 8.6 27.4 8.6 27.45 8.65 27.45 8.65 27.5 8.7 27.5 8.7 27.55 8.75 27.55 8.75 27.55 8.8 27.6 8.85 27.6 8.85 27.6 8.9 27.65 8.95 27.65 8.95 27.65 9.0 27.65 9.05 27.65 9.05 27.65 9.1 27.65 9.15 27.65 9.2 27.65 9.25 27.65 9.25 27.65 9.3 27.65 9.35 27.65 9.35 27.65 9.4 27.65 9.4 27.6 9.45 27.6 9.5 27.6 9.5 27.55 9.55 27.55 9.55 27.55 9.6 27.5 9.6 27.5 9.65 27.45 9.65 27.45 9.7 27.4 9.7 27.4 9.75 27.35 9.75 27.3 9.75 27.3 9.8 27.25 9.8 27.25 9.8 27.2 9.85 27.15 9.85 27.15 9.85 27.1 9.85 27.05 9.85 27.05 9.85 27.0 9.85 26.95 9.85 26.9 9.85 26.9 9.85 26.85 9.85 26.8 9.85 26.8 9.85 26.75 9.85 26.7 9.85 26.7 9.8 26.65 9.8 26.65 9.8 26.6 9.8 26.55 9.75 26.55 9.75 26.5 9.7 26.5 9.7 26.45 9.65 26.45 9.65 26.4 9.6 26.4 9.6 26.35 9.55 26.35 9.55 26.35 9.5 26.3 9.45 26.3 9.45 26.3 9.4 26.3 9.4 26.3 9.35 26.25 9.3 26.25 9.25 26.25 9.25 26.25 9.2 26.25 9.15 26.25 9.1 26.25 9.1 26.25 9.05 26.25 9.0 26.3 9.0 26.3 8.95 26.3 8.9 26.3 8.9 26.3 8.85 26.35 8.85 26.35 8.8 26.35 8.8 26.4 8.75 26.4 8.7 26.45 8.7 26.45 8.65 26.5 8.65 26.5 8.6 26.55 8.6 26.55 8.55 26.6 8.55 26.65 8.55 26.65 8.5 26.7 8.5 26.7 8.5 26.75 8.5 26.8 8.5 26.8 8.5 26.85 8.45 26.9 8.45 26.95 8.45 26.95 8.45 L26.95 8.45 M33.3 9.6 L34.25 9.6 34.25 11.9 35.3 11.9 35.3 12.65 34.25 12.65 34.25 17.5 33.3 17.5 33.3 12.65 32.25 12.65 32.25 11.9 33.3 11.9 33.3 9.6 33.3 9.6 M8.6 10.45 L10.75 12.55 9.6 12.55 9.6 15.55 7.6 15.55 7.6 12.55 6.5 12.55 8.6 10.45 8.6 10.45 M26.5 11.9 L27.45 11.9 27.45 17.5 26.5 17.5 26.5 11.9 26.5 11.9" fill="#ffffff" fill-rule="evenodd" stroke="none"/>
  </g>
</svg>
