<?xml version="1.0" encoding="UTF-8" standalone="no"?>
<svg xmlns:ffdec="https://www.free-decompiler.com/flash" xmlns:xlink="http://www.w3.org/1999/xlink" ffdec:objectType="shape" height="26.0px" width="35.75px" xmlns="http://www.w3.org/2000/svg">
  <g transform="matrix(1.0, 0.0, 0.0, 1.0, 0.0, 0.0)">
    <path d="M4.0 3.0 Q3.9 3.0 3.8 3.0 3.7 3.05 3.6 3.1 3.5 3.1 3.45 3.15 3.35 3.2 3.3 3.3 3.2 3.35 3.15 3.45 3.1 3.5 3.1 3.6 3.05 3.7 3.0 3.8 3.0 3.9 3.0 4.0 L3.0 22.0 Q3.0 22.1 3.0 22.2 3.05 22.3 3.1 22.4 3.1 22.5 3.15 22.55 3.2 22.65 3.3 22.7 3.35 22.8 3.45 22.85 3.5 22.9 3.6 22.9 3.7 22.95 3.8 23.0 3.9 23.0 4.0 23.0 L31.75 23.0 Q31.85 23.0 31.95 23.0 32.05 22.95 32.15 22.9 32.25 22.9 32.3 22.85 32.4 22.8 32.45 22.7 32.55 22.65 32.6 22.55 32.65 22.5 32.65 22.4 32.7 22.3 32.75 22.2 32.75 22.1 32.75 22.0 L32.75 4.0 Q32.75 3.9 32.75 3.8 32.7 3.7 32.65 3.6 32.65 3.5 32.6 3.45 32.55 3.35 32.45 3.3 32.4 3.2 32.3 3.15 32.25 3.1 32.15 3.1 32.05 3.05 31.95 3.0 31.85 3.0 31.75 3.0 L4.0 3.0 4.0 3.0 M8.05 8.15 L14.65 15.35 14.65 8.5 15.65 8.5 15.65 17.85 9.05 10.75 9.05 17.5 8.05 17.5 8.05 8.15 8.05 8.15 M17.8 8.5 L19.7 8.5 Q19.8 8.5 19.95 8.5 20.05 8.5 20.15 8.5 20.25 8.5 20.35 8.5 20.45 8.5 20.55 8.55 20.65 8.55 20.75 8.55 20.8 8.55 20.9 8.55 20.95 8.55 21.05 8.6 21.1 8.6 21.15 8.6 21.2 8.6 21.25 8.65 21.3 8.65 21.4 8.65 21.45 8.7 21.5 8.7 21.55 8.7 21.6 8.75 21.65 8.75 21.7 8.8 21.75 8.8 21.8 8.85 21.85 8.85 21.85 8.9 21.9 8.9 21.95 8.95 22.0 9.0 22.05 9.05 22.1 9.05 22.15 9.1 22.2 9.15 22.25 9.2 22.3 9.25 22.35 9.3 22.4 9.35 22.45 9.4 22.45 9.5 22.5 9.55 22.55 9.6 22.55 9.65 22.6 9.7 22.65 9.8 22.7 9.85 22.7 9.95 22.75 10.0 22.75 10.05 22.75 10.15 22.8 10.2 22.8 10.3 22.8 10.35 22.85 10.45 22.85 10.5 22.85 10.6 22.85 10.65 22.85 10.75 22.9 10.8 22.9 10.9 22.9 11.0 22.9 11.1 22.9 11.15 22.9 11.25 22.85 11.3 22.85 11.4 22.85 11.45 22.85 11.55 22.8 11.6 22.8 11.7 22.8 11.75 22.75 11.8 22.75 11.9 22.7 11.95 22.7 12.05 22.65 12.1 22.65 12.15 22.6 12.2 22.6 12.3 22.55 12.35 22.5 12.4 22.45 12.45 22.45 12.55 22.4 12.6 22.35 12.65 22.3 12.7 22.25 12.75 22.2 12.8 22.15 12.85 22.1 12.9 22.05 12.95 22.0 12.95 21.95 13.0 21.9 13.05 21.85 13.05 21.8 13.1 21.8 13.1 21.75 13.15 21.7 13.15 21.65 13.2 21.6 13.2 21.55 13.25 21.5 13.25 21.45 13.3 21.4 13.3 21.3 13.3 21.25 13.35 21.2 13.35 21.15 13.35 21.1 13.35 21.05 13.4 20.95 13.4 20.9 13.4 20.8 13.4 20.75 13.4 20.65 13.45 20.55 13.45 20.45 13.45 20.35 13.45 20.25 13.45 20.15 13.45 20.05 13.45 19.95 13.45 19.8 13.45 19.7 13.45 L19.4 13.45 18.85 13.45 18.85 17.5 17.8 17.5 17.8 8.5 17.8 8.5 M25.45 8.5 L26.05 8.5 26.05 10.05 27.4 9.3 27.7 9.85 26.35 10.65 27.7 11.4 27.4 11.95 26.05 11.2 26.05 12.75 25.45 12.75 25.45 11.15 24.05 11.95 23.75 11.45 25.1 10.65 23.75 9.85 24.05 9.3 25.45 10.1 25.45 8.5 25.45 8.5 M18.85 9.5 L18.85 12.5 19.4 12.5 Q19.55 12.5 19.75 12.5 19.9 12.5 20.05 12.45 20.15 12.45 20.3 12.45 20.45 12.45 20.55 12.4 20.65 12.4 20.75 12.35 20.85 12.35 20.95 12.3 21.05 12.3 21.1 12.25 21.2 12.2 21.25 12.15 21.3 12.1 21.35 12.05 21.4 12.0 21.45 11.95 21.5 11.9 21.55 11.85 21.55 11.8 21.6 11.7 21.65 11.65 21.65 11.55 21.7 11.5 21.7 11.4 21.7 11.35 21.7 11.25 21.7 11.15 21.7 11.05 21.7 10.95 21.7 10.85 21.7 10.75 21.7 10.65 21.65 10.55 21.65 10.45 21.65 10.4 21.6 10.3 21.55 10.25 21.55 10.15 21.5 10.1 21.45 10.05 21.4 10.0 21.35 9.9 21.3 9.85 21.25 9.85 21.2 9.8 21.1 9.75 21.05 9.7 20.95 9.7 20.85 9.65 20.75 9.6 20.65 9.6 20.55 9.55 20.4 9.55 20.3 9.55 20.15 9.5 20.0 9.5 19.85 9.5 19.7 9.5 19.55 9.5 19.4 9.5 L18.85 9.5 18.85 9.5" fill="#ffffff" fill-rule="evenodd" stroke="none"/>
  </g>
</svg>
