<?xml version="1.0" encoding="UTF-8" standalone="no"?>
<svg xmlns:ffdec="https://www.free-decompiler.com/flash" xmlns:xlink="http://www.w3.org/1999/xlink" ffdec:objectType="shape" height="26.0px" width="41.75px" xmlns="http://www.w3.org/2000/svg">
  <g transform="matrix(1.0, 0.0, 0.0, 1.0, 0.0, 0.0)">
    <path d="M4.0 3.0 Q3.9 3.0 3.8 3.0 3.7 3.05 3.6 3.1 3.5 3.1 3.45 3.15 3.35 3.2 3.3 3.3 3.2 3.35 3.15 3.45 3.1 3.5 3.1 3.6 3.05 3.7 3.0 3.8 3.0 3.9 3.0 4.0 L3.0 22.0 Q3.0 22.1 3.0 22.2 3.05 22.3 3.1 22.4 3.1 22.5 3.15 22.55 3.2 22.65 3.3 22.7 3.35 22.8 3.45 22.85 3.5 22.9 3.6 22.9 3.7 22.95 3.8 23.0 3.9 23.0 4.0 23.0 L37.75 23.0 Q37.85 23.0 37.95 23.0 38.05 22.95 38.15 22.9 38.25 22.9 38.3 22.85 38.4 22.8 38.45 22.7 38.55 22.65 38.6 22.55 38.65 22.5 38.65 22.4 38.7 22.3 38.75 22.2 38.75 22.1 38.75 22.0 L38.75 4.0 Q38.75 3.9 38.75 3.8 38.7 3.7 38.65 3.6 38.65 3.5 38.6 3.45 38.55 3.35 38.45 3.3 38.4 3.2 38.3 3.15 38.25 3.1 38.15 3.1 38.05 3.05 37.95 3.0 37.85 3.0 37.75 3.0 L4.0 3.0 4.0 3.0 M7.7 8.3 Q7.8 8.3 7.9 8.3 8.0 8.3 8.1 8.3 8.2 8.3 8.25 8.35 8.35 8.35 8.45 8.35 8.55 8.4 8.6 8.4 8.7 8.45 8.8 8.5 8.85 8.5 8.95 8.55 9.0 8.6 9.1 8.65 9.15 8.7 9.25 8.75 9.3 8.8 9.4 8.85 9.45 8.9 9.5 8.95 9.55 9.0 9.65 9.05 9.7 9.1 9.75 9.2 9.8 9.25 9.85 9.35 9.9 9.4 9.95 9.5 10.0 9.55 10.05 9.65 L9.15 10.2 Q9.1 10.15 9.05 10.1 9.05 10.0 9.0 9.95 8.95 9.9 8.9 9.85 8.85 9.8 8.8 9.75 8.8 9.7 8.75 9.65 8.7 9.6 8.65 9.6 8.6 9.55 8.55 9.5 8.5 9.45 8.45 9.45 8.4 9.4 8.35 9.4 8.3 9.35 8.25 9.35 8.2 9.3 8.15 9.3 8.1 9.25 8.05 9.25 8.0 9.25 7.95 9.2 7.9 9.2 7.85 9.2 7.8 9.2 7.75 9.2 7.65 9.2 7.6 9.2 7.55 9.2 7.45 9.2 7.4 9.2 7.3 9.2 7.25 9.2 7.2 9.25 7.15 9.25 7.05 9.25 7.0 9.3 6.95 9.3 6.9 9.35 6.85 9.4 6.8 9.4 6.75 9.45 6.65 9.5 6.65 9.55 6.6 9.6 6.55 9.65 6.5 9.7 6.45 9.75 6.45 9.8 6.4 9.85 6.35 9.9 6.35 9.95 6.3 10.0 6.3 10.1 6.3 10.15 6.25 10.2 6.25 10.3 6.25 10.35 6.25 10.4 6.25 10.5 6.25 10.55 6.25 10.6 6.25 10.65 6.25 10.7 6.25 10.8 6.3 10.85 6.3 10.9 6.3 10.95 6.35 11.0 6.35 11.05 6.4 11.1 6.4 11.15 6.45 11.2 6.45 11.25 6.5 11.25 6.55 11.3 6.6 11.35 6.65 11.4 6.65 11.45 6.7 11.5 6.75 11.5 6.8 11.55 6.85 11.6 6.9 11.65 6.95 11.7 7.05 11.7 7.1 11.75 7.15 11.8 7.25 11.85 7.3 11.85 7.4 11.9 7.45 11.95 L8.75 12.5 Q8.85 12.55 8.95 12.6 9.05 12.65 9.15 12.7 9.25 12.75 9.35 12.8 9.45 12.9 9.5 12.95 9.6 13.0 9.65 13.05 9.75 13.15 9.8 13.2 9.9 13.25 9.95 13.35 10.0 13.4 10.05 13.5 10.1 13.6 10.15 13.65 10.2 13.75 10.25 13.8 10.3 13.9 10.35 14.0 10.35 14.1 10.4 14.2 10.4 14.25 10.45 14.35 10.45 14.45 10.5 14.55 10.5 14.65 10.5 14.75 10.5 14.85 10.5 14.95 10.5 15.1 10.5 15.25 10.5 15.4 10.45 15.55 10.45 15.7 10.4 15.85 10.35 15.95 10.3 16.1 10.25 16.2 10.2 16.35 10.15 16.45 10.05 16.55 10.0 16.65 9.9 16.75 9.8 16.9 9.7 16.95 9.6 17.05 9.5 17.15 9.4 17.2 9.3 17.3 9.15 17.35 9.05 17.45 8.95 17.5 8.8 17.55 8.65 17.6 8.55 17.6 8.4 17.65 8.25 17.7 8.1 17.7 7.95 17.7 7.8 17.75 7.65 17.75 7.5 17.75 7.4 17.75 7.25 17.7 7.15 17.7 7.0 17.7 6.9 17.65 6.75 17.65 6.65 17.6 6.55 17.55 6.45 17.5 6.35 17.45 6.25 17.4 6.1 17.35 6.05 17.3 5.95 17.25 5.85 17.2 5.75 17.15 5.7 17.05 5.6 16.95 5.5 16.9 5.45 16.8 5.35 16.7 5.3 16.6 5.25 16.55 5.2 16.45 5.15 16.3 5.05 16.2 5.05 16.1 5.0 16.0 4.95 15.9 4.9 15.75 4.85 15.65 L5.85 15.15 Q5.85 15.25 5.9 15.35 5.95 15.45 5.95 15.55 6.0 15.65 6.05 15.7 6.05 15.8 6.1 15.9 6.15 15.95 6.2 16.05 6.25 16.1 6.3 16.15 6.35 16.25 6.4 16.3 6.45 16.35 6.5 16.4 6.55 16.45 6.6 16.5 6.65 16.55 6.75 16.6 6.8 16.6 6.85 16.65 6.95 16.7 7.0 16.7 7.05 16.75 7.15 16.75 7.2 16.8 7.3 16.8 7.4 16.8 7.45 16.8 7.55 16.8 7.65 16.8 7.75 16.8 7.85 16.8 7.95 16.8 8.0 16.8 8.1 16.75 8.2 16.75 8.3 16.75 8.35 16.7 8.45 16.65 8.5 16.65 8.6 16.6 8.65 16.55 8.75 16.5 8.8 16.45 8.85 16.4 8.95 16.35 9.0 16.3 9.05 16.25 9.1 16.15 9.15 16.1 9.2 16.05 9.25 15.95 9.3 15.9 9.3 15.8 9.35 15.75 9.35 15.65 9.4 15.6 9.4 15.5 9.4 15.4 9.4 15.35 9.45 15.25 9.45 15.15 9.45 15.05 9.45 15.0 9.45 14.95 9.4 14.85 9.4 14.8 9.4 14.7 9.35 14.65 9.35 14.6 9.3 14.5 9.3 14.45 9.25 14.4 9.25 14.35 9.2 14.25 9.15 14.2 9.1 14.15 9.1 14.1 9.05 14.05 9.0 14.0 8.95 13.95 8.9 13.9 8.85 13.85 8.8 13.8 8.7 13.75 8.65 13.7 8.6 13.65 8.5 13.6 8.45 13.55 8.35 13.5 8.3 13.45 8.2 13.4 8.1 13.4 8.05 13.35 L6.95 12.9 Q6.85 12.85 6.75 12.8 6.6 12.75 6.5 12.7 6.4 12.65 6.35 12.55 6.25 12.5 6.15 12.45 6.05 12.4 6.0 12.35 5.9 12.25 5.85 12.2 5.8 12.15 5.7 12.05 5.65 12.0 5.6 11.9 5.55 11.85 5.5 11.75 5.45 11.7 5.4 11.6 5.35 11.5 5.35 11.45 5.3 11.35 5.25 11.25 5.25 11.15 5.2 11.1 5.2 11.0 5.2 10.9 5.2 10.8 5.15 10.7 5.15 10.6 5.15 10.5 5.15 10.4 5.15 10.25 5.2 10.15 5.2 10.05 5.25 9.95 5.25 9.85 5.3 9.7 5.35 9.6 5.4 9.5 5.45 9.45 5.5 9.35 5.55 9.25 5.65 9.15 5.7 9.05 5.8 9.0 5.85 8.9 5.95 8.8 6.05 8.75 6.15 8.7 6.25 8.65 6.35 8.6 6.45 8.55 6.55 8.5 6.7 8.45 6.8 8.4 6.9 8.35 7.05 8.35 7.15 8.3 7.3 8.3 7.4 8.3 7.55 8.3 7.7 8.3 L7.7 8.3 M34.15 11.65 Q34.3 11.65 34.45 11.65 34.6 11.7 34.75 11.7 34.9 11.75 35.05 11.75 35.15 11.8 35.3 11.85 35.4 11.9 35.55 11.95 35.65 12.05 35.75 12.1 35.85 12.2 35.95 12.25 36.05 12.35 36.15 12.45 36.25 12.55 36.3 12.65 36.4 12.75 36.45 12.9 36.55 13.0 36.6 13.15 36.65 13.25 36.7 13.4 36.75 13.55 36.75 13.7 36.8 13.85 36.85 14.0 36.85 14.15 36.85 14.3 36.9 14.45 36.9 14.65 L36.9 14.85 32.4 14.85 32.4 14.9 Q32.4 15.0 32.4 15.15 32.45 15.25 32.45 15.35 32.45 15.45 32.5 15.55 32.5 15.65 32.55 15.75 32.6 15.85 32.6 15.9 32.65 16.0 32.7 16.1 32.75 16.15 32.8 16.25 32.85 16.3 32.95 16.4 33.0 16.45 33.1 16.5 33.15 16.6 33.2 16.65 33.3 16.7 33.35 16.7 33.45 16.75 33.55 16.8 33.6 16.85 33.7 16.85 33.8 16.9 33.9 16.9 34.0 16.9 34.1 16.95 34.2 16.95 34.3 16.95 34.35 16.95 34.45 16.95 34.5 16.95 34.55 16.9 34.65 16.9 34.7 16.9 34.75 16.9 34.8 16.85 34.9 16.85 34.95 16.8 35.0 16.8 35.05 16.75 35.15 16.75 35.2 16.7 35.25 16.65 35.3 16.65 35.35 16.6 35.4 16.55 35.45 16.5 35.5 16.45 35.6 16.4 35.65 16.35 35.7 16.3 35.75 16.25 35.8 16.2 35.85 16.15 35.9 16.05 35.95 16.0 35.95 15.95 36.0 15.85 36.05 15.8 36.1 15.7 L36.85 16.2 Q36.8 16.3 36.75 16.4 36.7 16.5 36.6 16.55 36.55 16.65 36.5 16.7 36.45 16.8 36.35 16.85 36.3 16.95 36.2 17.0 36.15 17.05 36.05 17.15 36.0 17.2 35.9 17.25 35.85 17.3 35.75 17.35 35.65 17.4 35.6 17.45 35.5 17.5 35.4 17.5 35.3 17.55 35.25 17.6 35.15 17.6 35.05 17.65 34.95 17.65 34.85 17.7 34.75 17.7 34.65 17.7 34.55 17.75 34.45 17.75 34.35 17.75 34.25 17.75 34.1 17.75 33.95 17.75 33.8 17.7 33.65 17.7 33.5 17.65 33.35 17.6 33.2 17.6 33.05 17.55 32.95 17.5 32.8 17.4 32.7 17.35 32.6 17.25 32.45 17.2 32.35 17.1 32.25 17.0 32.15 16.9 32.05 16.8 31.95 16.7 31.9 16.55 31.8 16.45 31.75 16.3 31.65 16.2 31.6 16.05 31.55 15.9 31.5 15.75 31.45 15.6 31.45 15.5 31.4 15.3 31.4 15.15 31.4 15.0 31.35 14.85 31.35 14.65 31.35 14.5 31.35 14.35 31.4 14.2 31.4 14.05 31.45 13.9 31.45 13.75 31.5 13.6 31.55 13.45 31.6 13.35 31.65 13.2 31.75 13.05 31.8 12.95 31.9 12.85 31.95 12.7 32.05 12.6 32.15 12.5 32.25 12.4 32.35 12.3 32.45 12.2 32.55 12.15 32.7 12.05 32.8 12.0 32.9 11.9 33.05 11.85 33.2 11.8 33.3 11.8 33.45 11.75 33.6 11.7 33.7 11.7 33.85 11.65 34.0 11.65 34.15 11.65 L34.15 11.65 M14.8 11.65 Q14.95 11.65 15.1 11.65 15.25 11.7 15.4 11.7 15.5 11.75 15.65 11.8 15.8 11.8 15.9 11.9 16.05 11.95 16.15 12.0 16.25 12.05 16.35 12.15 16.45 12.2 16.55 12.3 16.65 12.4 16.75 12.5 16.85 12.6 16.95 12.7 17.0 12.85 17.1 12.95 17.15 13.05 17.2 13.2 17.25 13.35 17.3 13.45 17.35 13.6 17.4 13.75 17.45 13.9 17.45 14.05 17.5 14.2 17.5 14.35 17.5 14.55 17.5 14.7 17.5 14.9 17.5 15.05 17.5 15.2 17.45 15.35 17.45 15.5 17.4 15.65 17.35 15.8 17.3 15.95 17.25 16.1 17.2 16.2 17.15 16.35 17.1 16.45 17.0 16.6 16.95 16.7 16.85 16.8 16.8 16.9 16.7 17.0 16.6 17.1 16.5 17.2 16.4 17.25 16.3 17.35 16.15 17.4 16.05 17.5 15.95 17.55 15.8 17.6 15.7 17.6 15.55 17.65 15.4 17.7 15.3 17.7 15.15 17.75 15.0 17.75 14.85 17.75 14.75 17.75 14.7 17.75 14.6 17.75 14.5 17.7 14.45 17.7 14.35 17.7 14.25 17.7 14.2 17.65 14.1 17.65 14.05 17.6 13.95 17.6 13.9 17.55 13.85 17.55 13.75 17.5 13.7 17.45 13.65 17.45 13.6 17.4 13.5 17.35 13.45 17.3 13.4 17.25 13.35 17.2 13.3 17.15 13.2 17.1 13.15 17.05 13.1 16.95 13.05 16.9 13.0 16.85 12.95 16.75 12.9 16.7 12.9 16.65 12.85 16.55 12.8 16.5 L12.8 20.25 11.85 20.25 11.85 11.9 12.75 11.9 12.75 12.95 Q12.8 12.85 12.85 12.8 12.9 12.7 12.95 12.65 13.0 12.6 13.05 12.5 13.1 12.45 13.15 12.4 13.2 12.35 13.25 12.3 13.3 12.25 13.35 12.2 13.4 12.15 13.5 12.1 13.55 12.05 13.6 12.0 13.65 11.95 13.75 11.9 13.8 11.9 13.9 11.85 13.95 11.85 14.05 11.8 14.1 11.75 14.2 11.75 14.25 11.75 14.35 11.7 14.4 11.7 14.5 11.7 14.55 11.7 14.65 11.7 14.7 11.65 14.8 11.65 L14.8 11.65 M21.25 11.65 Q21.35 11.65 21.4 11.65 21.5 11.65 21.6 11.7 21.65 11.7 21.75 11.7 21.85 11.75 21.9 11.75 22.0 11.75 22.05 11.8 22.15 11.8 22.2 11.85 22.25 11.9 22.35 11.9 22.4 11.95 22.45 12.0 22.5 12.05 22.6 12.1 22.65 12.1 22.7 12.15 22.75 12.2 22.85 12.25 22.9 12.35 22.95 12.4 23.0 12.45 23.05 12.5 23.1 12.55 23.15 12.65 23.2 12.7 23.25 12.8 23.3 12.85 23.3 12.95 L23.3 11.9 24.3 11.9 24.3 17.5 23.35 17.5 23.35 16.5 Q23.3 16.55 23.25 16.65 23.2 16.7 23.15 16.8 23.1 16.85 23.05 16.9 23.0 16.95 22.95 17.0 22.9 17.1 22.85 17.15 22.8 17.2 22.75 17.25 22.65 17.3 22.6 17.35 22.55 17.4 22.45 17.4 22.4 17.45 22.3 17.5 22.25 17.5 22.2 17.55 22.15 17.6 22.05 17.6 22.0 17.65 21.9 17.65 21.85 17.7 21.75 17.7 21.7 17.7 21.6 17.7 21.55 17.75 21.45 17.75 21.4 17.75 21.3 17.75 21.15 17.75 21.0 17.75 20.85 17.7 20.7 17.7 20.6 17.65 20.45 17.65 20.35 17.6 20.2 17.55 20.1 17.5 19.95 17.4 19.85 17.35 19.75 17.25 19.65 17.2 19.55 17.1 19.45 17.0 19.35 16.9 19.25 16.8 19.2 16.7 19.1 16.55 19.0 16.45 18.95 16.35 18.9 16.2 18.85 16.1 18.8 15.95 18.75 15.8 18.7 15.65 18.7 15.5 18.65 15.35 18.65 15.2 18.6 15.05 18.6 14.85 18.6 14.7 18.6 14.55 18.6 14.35 18.65 14.2 18.65 14.05 18.65 13.9 18.7 13.75 18.75 13.6 18.8 13.45 18.85 13.3 18.9 13.2 18.95 13.05 19.0 12.95 19.1 12.8 19.15 12.7 19.25 12.6 19.35 12.5 19.45 12.4 19.55 12.3 19.6 12.2 19.75 12.15 19.85 12.05 19.95 12.0 20.05 11.95 20.15 11.9 20.3 11.85 20.4 11.8 20.55 11.75 20.7 11.7 20.8 11.7 20.95 11.7 21.1 11.65 21.25 11.65 L21.25 11.65 M28.65 11.65 Q28.7 11.65 28.75 11.65 28.85 11.65 28.9 11.65 28.95 11.65 29.0 11.7 29.05 11.7 29.1 11.7 29.2 11.7 29.25 11.7 29.3 11.7 29.35 11.75 29.4 11.75 29.45 11.75 29.5 11.75 29.55 11.75 29.6 11.75 29.65 11.8 29.75 11.8 29.8 11.8 29.85 11.85 29.9 11.85 29.95 11.85 30.0 11.9 30.05 11.9 30.1 11.95 30.15 11.95 30.2 11.95 30.25 12.0 30.3 12.0 30.35 12.05 30.4 12.05 L30.4 13.1 Q30.35 13.05 30.3 13.05 30.25 13.0 30.2 13.0 30.2 12.95 30.15 12.95 30.1 12.9 30.05 12.9 30.0 12.85 29.95 12.85 29.9 12.8 29.85 12.8 29.8 12.8 29.75 12.75 29.7 12.75 29.65 12.75 29.6 12.75 29.55 12.7 29.5 12.7 29.45 12.7 29.4 12.65 29.35 12.65 29.3 12.65 29.25 12.65 29.2 12.65 29.15 12.6 29.1 12.6 29.05 12.6 29.0 12.6 28.95 12.6 28.9 12.6 28.85 12.6 28.75 12.6 28.6 12.6 28.5 12.6 28.4 12.65 28.3 12.65 28.2 12.7 28.1 12.7 28.0 12.75 27.9 12.8 27.8 12.85 27.75 12.9 27.65 12.95 27.55 13.0 27.5 13.05 27.4 13.1 27.35 13.2 27.3 13.25 27.2 13.35 27.15 13.45 27.1 13.5 27.05 13.6 27.0 13.7 26.95 13.8 26.9 13.9 26.85 14.0 26.85 14.1 26.8 14.2 26.8 14.3 26.8 14.4 26.75 14.55 26.75 14.65 26.75 14.75 26.75 14.85 26.75 14.95 26.75 15.1 26.8 15.2 26.8 15.3 26.85 15.4 26.85 15.45 26.9 15.55 26.95 15.65 27.0 15.75 27.05 15.85 27.1 15.9 27.15 16.0 27.2 16.05 27.25 16.15 27.35 16.2 27.4 16.3 27.5 16.35 27.55 16.4 27.65 16.45 27.75 16.5 27.8 16.55 27.9 16.6 28.0 16.65 28.1 16.7 28.15 16.7 28.25 16.75 28.35 16.75 28.45 16.8 28.55 16.8 28.65 16.8 28.8 16.8 28.85 16.8 28.9 16.8 28.95 16.8 29.0 16.8 29.05 16.8 29.1 16.8 29.15 16.8 29.2 16.75 29.25 16.75 29.3 16.75 29.35 16.75 29.45 16.7 29.5 16.7 29.55 16.7 29.6 16.65 29.65 16.65 29.7 16.65 29.75 16.6 29.8 16.6 29.85 16.55 29.9 16.55 29.95 16.5 30.0 16.5 30.05 16.45 30.1 16.4 30.15 16.4 30.25 16.35 30.3 16.3 30.35 16.3 30.4 16.25 30.45 16.2 30.5 16.15 L30.5 17.3 Q30.45 17.35 30.4 17.35 30.35 17.35 30.3 17.4 30.25 17.4 30.2 17.45 30.15 17.45 30.1 17.5 30.05 17.5 30.0 17.5 29.95 17.55 29.9 17.55 29.85 17.6 29.75 17.6 29.7 17.6 29.65 17.6 29.6 17.6 29.55 17.65 29.45 17.65 29.4 17.65 29.35 17.7 29.3 17.7 29.2 17.7 29.15 17.7 29.1 17.7 29.05 17.7 28.95 17.75 28.9 17.75 28.85 17.75 28.75 17.75 28.7 17.75 28.65 17.75 28.5 17.75 28.3 17.75 28.15 17.7 28.0 17.7 27.85 17.65 27.75 17.65 27.6 17.6 27.45 17.55 27.3 17.5 27.2 17.4 27.05 17.35 26.95 17.3 26.85 17.2 26.75 17.1 26.65 17.0 26.55 16.9 26.45 16.8 26.35 16.7 26.25 16.6 26.2 16.45 26.1 16.35 26.05 16.2 26.0 16.1 25.95 15.95 25.9 15.8 25.85 15.7 25.8 15.55 25.8 15.4 25.75 15.25 25.75 15.05 25.75 14.9 25.75 14.75 25.75 14.6 25.75 14.4 25.75 14.25 25.8 14.1 25.8 13.95 25.85 13.8 25.9 13.65 25.95 13.5 26.0 13.4 26.05 13.25 26.1 13.1 26.2 13.0 26.25 12.85 26.35 12.75 26.45 12.65 26.55 12.55 26.65 12.45 26.75 12.35 26.9 12.25 27.0 12.15 27.1 12.1 27.25 12.0 27.35 11.95 27.5 11.9 27.65 11.85 27.75 11.8 27.9 11.75 28.05 11.75 28.2 11.7 28.35 11.7 28.5 11.65 28.65 11.65 L28.65 11.65 M34.15 12.5 Q34.05 12.5 33.95 12.5 33.9 12.5 33.8 12.55 33.7 12.55 33.65 12.55 33.55 12.6 33.5 12.6 33.4 12.65 33.35 12.65 33.3 12.7 33.2 12.75 33.15 12.8 33.1 12.85 33.0 12.85 32.95 12.95 32.9 13.0 32.85 13.05 32.8 13.1 32.75 13.15 32.7 13.2 32.65 13.3 32.6 13.35 32.6 13.4 32.55 13.5 32.55 13.55 32.5 13.65 32.5 13.7 32.45 13.8 32.45 13.9 32.45 13.95 32.4 14.05 L35.85 14.05 Q35.85 13.95 35.85 13.85 35.8 13.8 35.8 13.7 35.8 13.6 35.75 13.55 35.75 13.45 35.7 13.4 35.65 13.3 35.65 13.25 35.6 13.2 35.55 13.15 35.5 13.05 35.45 13.0 35.4 12.95 35.35 12.9 35.3 12.85 35.25 12.8 35.15 12.75 35.1 12.75 35.05 12.7 34.95 12.65 34.9 12.65 34.8 12.6 34.75 12.6 34.65 12.55 34.6 12.55 34.5 12.55 34.4 12.5 34.3 12.5 34.25 12.5 34.15 12.5 L34.15 12.5 M14.65 12.6 Q14.55 12.6 14.45 12.6 14.35 12.6 14.25 12.65 14.15 12.65 14.05 12.7 13.95 12.7 13.85 12.75 13.8 12.8 13.7 12.8 13.6 12.85 13.55 12.9 13.45 12.95 13.4 13.05 13.35 13.1 13.25 13.15 13.2 13.2 13.15 13.3 13.1 13.4 13.05 13.45 13.0 13.55 12.95 13.65 12.9 13.75 12.9 13.8 12.85 13.9 12.85 14.0 12.8 14.15 12.8 14.25 12.8 14.35 12.75 14.45 12.75 14.6 12.75 14.7 12.75 14.8 12.75 14.95 12.75 15.05 12.8 15.15 12.8 15.25 12.85 15.35 12.85 15.45 12.9 15.55 12.95 15.65 12.95 15.75 13.0 15.85 13.05 15.9 13.1 16.0 13.15 16.05 13.2 16.15 13.3 16.2 13.35 16.3 13.45 16.35 13.5 16.4 13.6 16.45 13.65 16.5 13.75 16.55 13.8 16.6 13.9 16.65 14.0 16.7 14.05 16.7 14.15 16.75 14.25 16.75 14.35 16.75 14.45 16.8 14.55 16.8 14.65 16.8 14.75 16.8 14.85 16.8 14.95 16.8 15.05 16.75 15.15 16.75 15.25 16.7 15.35 16.7 15.4 16.65 15.5 16.65 15.6 16.6 15.65 16.55 15.75 16.5 15.8 16.45 15.85 16.4 15.95 16.35 16.0 16.25 16.05 16.2 16.1 16.1 16.15 16.05 16.2 15.95 16.25 15.9 16.3 15.8 16.35 15.75 16.35 15.65 16.4 15.55 16.4 15.45 16.45 15.35 16.45 15.25 16.45 15.15 16.45 15.05 16.5 14.95 16.5 14.8 16.5 14.65 16.5 14.55 16.5 14.45 16.45 14.3 16.45 14.2 16.4 14.1 16.4 14.0 16.35 13.9 16.35 13.8 16.3 13.7 16.25 13.6 16.2 13.5 16.15 13.45 16.1 13.35 16.05 13.25 16.0 13.2 15.95 13.1 15.85 13.05 15.8 13.0 15.75 12.95 15.65 12.9 15.6 12.85 15.5 12.8 15.4 12.75 15.35 12.7 15.25 12.7 15.15 12.65 15.05 12.65 14.95 12.6 14.85 12.6 14.75 12.6 14.65 12.6 L14.65 12.6 M21.45 12.65 Q21.35 12.65 21.25 12.65 21.15 12.65 21.05 12.65 20.95 12.7 20.85 12.7 20.8 12.75 20.7 12.75 20.6 12.8 20.55 12.85 20.45 12.9 20.4 12.95 20.3 13.0 20.25 13.05 20.15 13.1 20.1 13.15 20.05 13.2 20.0 13.3 19.95 13.35 19.9 13.45 19.85 13.55 19.8 13.6 19.8 13.7 19.75 13.8 19.7 13.9 19.7 14.0 19.65 14.1 19.65 14.2 19.65 14.3 19.65 14.4 19.65 14.55 19.65 14.65 19.65 14.8 19.65 14.9 19.65 15.0 19.65 15.15 19.7 15.25 19.7 15.35 19.7 15.45 19.75 15.55 19.8 15.65 19.8 15.75 19.85 15.85 19.9 15.9 19.95 16.0 20.0 16.1 20.05 16.15 20.1 16.25 20.15 16.3 20.25 16.35 20.3 16.45 20.4 16.5 20.45 16.55 20.55 16.55 20.6 16.6 20.7 16.65 20.8 16.7 20.9 16.7 21.0 16.75 21.1 16.75 21.2 16.75 21.3 16.75 21.4 16.8 21.5 16.8 21.6 16.8 21.7 16.8 21.8 16.75 21.9 16.75 22.0 16.75 22.1 16.7 22.2 16.7 22.25 16.65 22.35 16.6 22.45 16.55 22.5 16.55 22.6 16.5 22.65 16.45 22.7 16.35 22.8 16.3 22.85 16.25 22.9 16.2 22.95 16.1 23.0 16.05 23.05 15.95 23.1 15.85 23.15 15.8 23.2 15.7 23.2 15.6 23.25 15.5 23.25 15.4 23.3 15.3 23.3 15.2 23.3 15.1 23.35 14.95 23.35 14.85 23.35 14.75 23.35 14.65 23.35 14.5 23.35 14.4 23.3 14.3 23.3 14.2 23.25 14.1 23.25 14.0 23.2 13.9 23.2 13.8 23.15 13.7 23.1 13.6 23.05 13.5 23.0 13.45 22.95 13.35 22.9 13.3 22.8 13.2 22.75 13.15 22.65 13.05 22.6 13.0 22.55 12.95 22.45 12.9 22.4 12.85 22.3 12.8 22.2 12.75 22.15 12.75 22.05 12.7 21.95 12.7 21.85 12.65 21.75 12.65 21.65 12.65 21.55 12.65 21.45 12.65 L21.45 12.65" fill="#ffffff" fill-rule="evenodd" stroke="none"/>
  </g>
</svg>
