<?xml version="1.0" encoding="UTF-8" standalone="no"?>
<svg xmlns:ffdec="https://www.free-decompiler.com/flash" xmlns:xlink="http://www.w3.org/1999/xlink" ffdec:objectType="shape" height="26.0px" width="26.0px" xmlns="http://www.w3.org/2000/svg">
  <g transform="matrix(1.0, 0.0, 0.0, 1.0, 0.0, 0.0)">
    <path d="M4.0 3.0 Q3.9 3.0 3.8 3.0 3.7 3.05 3.6 3.1 3.5 3.1 3.45 3.15 3.35 3.2 3.3 3.3 3.2 3.35 3.15 3.45 3.1 3.5 3.1 3.6 3.05 3.7 3.0 3.8 3.0 3.9 3.0 4.0 L3.0 22.0 Q3.0 22.1 3.0 22.2 3.05 22.3 3.1 22.4 3.1 22.5 3.15 22.55 3.2 22.65 3.3 22.7 3.35 22.8 3.45 22.85 3.5 22.9 3.6 22.9 3.7 22.95 3.8 23.0 3.9 23.0 4.0 23.0 L22.0 23.0 Q22.1 23.0 22.2 23.0 22.3 22.95 22.4 22.9 22.5 22.9 22.55 22.85 22.65 22.8 22.7 22.7 22.8 22.65 22.85 22.55 22.9 22.5 22.9 22.4 22.95 22.3 23.0 22.2 23.0 22.1 23.0 22.0 L23.0 4.0 Q23.0 3.9 23.0 3.8 22.95 3.7 22.9 3.6 22.9 3.5 22.85 3.45 22.8 3.35 22.7 3.3 22.65 3.2 22.55 3.15 22.5 3.1 22.4 3.1 22.3 3.05 22.2 3.0 22.1 3.0 22.0 3.0 L4.0 3.0 4.0 3.0 M7.05 8.5 L11.8 8.5 11.8 9.5 8.1 9.5 8.1 12.05 11.8 12.05 11.8 13.05 8.1 13.05 8.1 17.5 7.05 17.5 7.05 8.5 7.05 8.5 M14.55 8.6 L18.5 8.6 18.5 9.5 15.25 9.5 14.7 11.8 Q14.75 11.8 14.8 11.75 14.8 11.75 14.85 11.75 14.9 11.7 14.95 11.7 14.95 11.7 15.0 11.7 15.05 11.65 15.1 11.65 15.15 11.65 15.2 11.6 15.2 11.6 15.25 11.6 15.3 11.6 15.35 11.6 15.4 11.6 15.45 11.55 15.5 11.55 15.55 11.55 15.55 11.55 15.6 11.55 15.65 11.5 15.7 11.5 15.75 11.5 15.8 11.5 15.85 11.5 15.9 11.5 15.95 11.5 16.0 11.5 16.05 11.5 16.1 11.5 16.25 11.5 16.4 11.5 16.55 11.5 16.7 11.55 16.85 11.55 17.0 11.6 17.15 11.65 17.25 11.7 17.4 11.75 17.55 11.8 17.65 11.85 17.75 11.95 17.85 12.0 18.0 12.1 18.1 12.2 18.2 12.3 18.3 12.4 18.35 12.5 18.45 12.6 18.5 12.7 18.6 12.85 18.65 12.95 18.7 13.1 18.75 13.2 18.8 13.35 18.85 13.5 18.9 13.65 18.9 13.8 18.9 13.95 18.95 14.1 18.95 14.25 18.95 14.45 18.95 14.65 18.95 14.8 18.9 15.0 18.9 15.15 18.85 15.35 18.8 15.5 18.8 15.65 18.75 15.8 18.65 15.95 18.6 16.1 18.55 16.25 18.45 16.35 18.35 16.5 18.25 16.6 18.15 16.75 18.05 16.85 17.95 16.95 17.8 17.05 17.7 17.15 17.55 17.25 17.45 17.3 17.3 17.4 17.15 17.45 17.0 17.5 16.85 17.55 16.7 17.6 16.55 17.65 16.35 17.7 16.2 17.7 16.0 17.75 15.85 17.75 15.65 17.75 15.55 17.75 15.4 17.75 15.3 17.75 15.2 17.7 15.1 17.7 15.0 17.7 14.9 17.7 14.8 17.65 14.7 17.65 14.6 17.6 14.5 17.6 14.4 17.55 14.3 17.55 14.2 17.5 14.15 17.45 14.05 17.4 13.95 17.35 13.9 17.3 13.8 17.3 13.75 17.25 13.65 17.2 13.6 17.1 13.5 17.05 13.45 17.0 13.35 16.95 13.3 16.85 13.25 16.8 13.15 16.75 13.1 16.65 13.05 16.6 13.0 16.5 12.95 16.4 L13.7 15.55 Q13.75 15.6 13.75 15.7 13.8 15.75 13.85 15.85 13.9 15.9 13.95 15.95 14.0 16.0 14.05 16.1 14.1 16.15 14.15 16.2 14.2 16.25 14.25 16.3 14.3 16.35 14.35 16.4 14.45 16.45 14.5 16.5 14.55 16.55 14.65 16.55 14.7 16.6 14.75 16.65 14.85 16.65 14.9 16.7 14.95 16.7 15.05 16.75 15.1 16.75 15.2 16.75 15.25 16.8 15.35 16.8 15.4 16.8 15.5 16.8 15.6 16.8 15.65 16.8 15.75 16.8 15.9 16.8 16.0 16.8 16.1 16.75 16.25 16.75 16.35 16.7 16.45 16.7 16.55 16.65 16.65 16.6 16.75 16.55 16.8 16.5 16.9 16.45 17.0 16.4 17.05 16.35 17.15 16.25 17.25 16.2 17.3 16.1 17.4 16.05 17.45 15.95 17.5 15.85 17.55 15.75 17.6 15.65 17.65 15.55 17.65 15.45 17.7 15.35 17.75 15.25 17.75 15.15 17.8 15.0 17.8 14.9 17.8 14.8 17.8 14.65 17.8 14.55 17.8 14.4 17.8 14.3 17.8 14.2 17.75 14.05 17.75 13.95 17.75 13.85 17.7 13.75 17.65 13.65 17.6 13.55 17.6 13.45 17.55 13.35 17.45 13.3 17.4 13.2 17.35 13.1 17.3 13.05 17.2 12.95 17.1 12.9 17.05 12.8 16.95 12.75 16.85 12.7 16.8 12.65 16.7 12.6 16.6 12.55 16.5 12.5 16.4 12.45 16.3 12.45 16.15 12.4 16.05 12.4 15.95 12.4 15.8 12.35 15.7 12.35 15.55 12.35 15.5 12.35 15.4 12.35 15.35 12.35 15.3 12.35 15.25 12.35 15.15 12.4 15.1 12.4 15.05 12.4 15.0 12.4 14.9 12.45 14.85 12.45 14.8 12.45 14.75 12.45 14.65 12.5 14.6 12.5 14.55 12.55 14.5 12.55 14.45 12.6 14.35 12.6 14.3 12.65 14.25 12.65 14.2 12.65 14.15 12.7 14.1 12.75 14.05 12.75 14.0 12.8 13.9 12.8 13.85 12.85 13.8 12.9 13.75 12.95 13.7 12.95 13.65 13.0 L13.45 12.95 14.55 8.6 14.55 8.6" fill="#ffffff" fill-rule="evenodd" stroke="none"/>
  </g>
</svg>
