<?xml version="1.0" encoding="UTF-8" standalone="no"?>
<svg xmlns:ffdec="https://www.free-decompiler.com/flash" xmlns:xlink="http://www.w3.org/1999/xlink" ffdec:objectType="shape" height="26.0px" width="52.95px" xmlns="http://www.w3.org/2000/svg">
  <g transform="matrix(1.0, 0.0, 0.0, 1.0, 0.0, 0.0)">
    <path d="M4.0 3.0 Q3.9 3.0 3.8 3.0 3.7 3.05 3.6 3.1 3.5 3.1 3.45 3.15 3.35 3.2 3.3 3.3 3.2 3.35 3.15 3.45 3.1 3.5 3.1 3.6 3.05 3.7 3.0 3.8 3.0 3.9 3.0 4.0 L3.0 22.0 Q3.0 22.1 3.0 22.2 3.05 22.3 3.1 22.4 3.1 22.5 3.15 22.55 3.2 22.65 3.3 22.7 3.35 22.8 3.45 22.85 3.5 22.9 3.6 22.9 3.7 22.95 3.8 23.0 3.9 23.0 4.0 23.0 L48.95 23.0 Q49.05 23.0 49.15 23.0 49.25 22.95 49.35 22.9 49.45 22.9 49.5 22.85 49.6 22.8 49.65 22.7 49.7 22.65 49.8 22.55 49.85 22.5 49.85 22.4 49.9 22.3 49.95 22.2 49.95 22.1 49.95 22.0 L49.95 4.0 Q49.95 3.9 49.95 3.8 49.9 3.7 49.85 3.6 49.85 3.5 49.8 3.45 49.7 3.35 49.65 3.3 49.6 3.2 49.5 3.15 49.45 3.1 49.35 3.1 49.25 3.05 49.15 3.0 49.05 3.0 48.95 3.0 L4.0 3.0 4.0 3.0 M43.2 7.95 L44.15 7.95 44.15 14.45 46.85 11.9 48.15 11.9 45.35 14.45 48.4 17.5 47.05 17.5 44.15 14.55 44.15 17.5 43.2 17.5 43.2 7.95 43.2 7.95 M4.55 8.15 L11.15 15.35 11.15 8.5 12.15 8.5 12.15 17.85 5.55 10.75 5.55 17.5 4.55 17.5 4.55 8.15 4.55 8.15 M31.85 8.5 L32.95 8.5 32.95 16.5 36.35 16.5 36.35 17.5 31.85 17.5 31.85 8.5 31.85 8.5 M24.0 11.65 Q24.1 11.65 24.15 11.65 24.25 11.65 24.3 11.7 24.4 11.7 24.5 11.7 24.55 11.7 24.6 11.75 24.7 11.75 24.75 11.8 24.85 11.8 24.9 11.85 24.95 11.85 25.05 11.9 25.1 11.95 25.15 11.95 25.2 12.0 25.25 12.05 25.3 12.05 25.4 12.1 25.45 12.15 25.5 12.2 25.55 12.25 25.55 12.3 25.6 12.4 25.65 12.45 25.7 12.5 25.75 12.55 25.8 12.6 25.8 12.7 25.85 12.75 25.9 12.8 25.95 12.75 26.0 12.65 26.05 12.6 26.1 12.55 26.1 12.5 26.15 12.4 26.2 12.35 26.3 12.3 26.35 12.25 26.4 12.2 26.45 12.15 26.5 12.1 26.55 12.05 26.6 12.05 26.65 12.0 26.75 11.95 26.8 11.9 26.85 11.9 26.95 11.85 27.0 11.85 27.05 11.8 27.15 11.8 27.2 11.75 27.25 11.75 27.35 11.7 27.4 11.7 27.5 11.7 27.55 11.7 27.65 11.7 27.7 11.7 27.8 11.65 27.9 11.65 28.0 11.65 28.1 11.65 28.25 11.7 28.35 11.7 28.45 11.7 28.55 11.75 28.65 11.75 28.7 11.8 28.8 11.85 28.9 11.9 29.0 11.9 29.05 11.95 29.15 12.0 29.2 12.1 29.3 12.15 29.35 12.2 29.4 12.25 29.45 12.35 29.55 12.4 29.6 12.5 29.65 12.55 29.65 12.65 29.7 12.75 29.75 12.85 29.8 12.9 29.8 13.0 29.85 13.1 29.85 13.25 29.85 13.35 29.85 13.45 29.9 13.55 29.9 13.65 L29.9 17.5 28.95 17.5 28.95 14.2 Q28.95 14.1 28.95 14.0 28.95 13.9 28.9 13.8 28.9 13.7 28.9 13.6 28.85 13.5 28.85 13.45 28.8 13.35 28.8 13.3 28.75 13.2 28.75 13.15 28.7 13.1 28.65 13.05 28.65 12.95 28.6 12.9 28.55 12.85 28.5 12.8 28.45 12.75 28.4 12.75 28.35 12.7 28.3 12.65 28.2 12.65 28.15 12.6 28.1 12.6 28.0 12.55 27.95 12.55 27.85 12.55 27.8 12.5 27.7 12.5 27.6 12.5 27.55 12.5 27.5 12.5 27.45 12.5 27.4 12.5 27.35 12.5 27.3 12.5 27.25 12.5 27.2 12.55 27.15 12.55 27.1 12.55 27.05 12.55 27.0 12.6 27.0 12.6 26.95 12.6 26.9 12.6 26.85 12.65 26.8 12.65 26.75 12.65 26.7 12.7 26.7 12.7 26.65 12.75 26.6 12.75 26.55 12.8 26.55 12.8 26.5 12.85 26.45 12.9 26.45 12.9 26.4 12.95 26.35 12.95 26.35 13.0 26.3 13.05 26.3 13.05 26.25 13.1 26.25 13.15 26.2 13.15 26.2 13.2 26.15 13.2 26.15 13.25 26.15 13.3 26.15 13.3 26.1 13.35 26.1 13.4 26.1 13.4 26.05 13.45 26.05 13.5 26.05 13.5 26.05 13.55 26.0 13.6 26.0 13.6 26.0 13.7 25.95 13.85 25.95 14.0 25.95 14.2 25.95 14.35 25.95 14.6 L25.95 17.5 25.0 17.5 25.0 14.2 Q25.0 14.1 25.0 14.0 25.0 13.9 25.0 13.8 25.0 13.7 24.95 13.6 24.95 13.5 24.9 13.45 24.9 13.35 24.9 13.3 24.85 13.2 24.8 13.15 24.8 13.1 24.75 13.05 24.7 12.95 24.65 12.9 24.6 12.85 24.55 12.8 24.5 12.75 24.45 12.75 24.4 12.7 24.35 12.65 24.3 12.65 24.25 12.6 24.15 12.6 24.1 12.55 24.0 12.55 23.95 12.55 23.85 12.5 23.8 12.5 23.7 12.5 23.6 12.5 23.55 12.5 23.5 12.5 23.45 12.5 23.4 12.5 23.35 12.5 23.3 12.5 23.3 12.55 23.25 12.55 23.2 12.55 23.15 12.55 23.1 12.6 23.05 12.6 23.0 12.6 22.95 12.6 22.95 12.65 22.9 12.65 22.85 12.65 22.8 12.7 22.75 12.7 22.75 12.75 22.7 12.75 22.65 12.8 22.6 12.8 22.6 12.85 22.55 12.9 22.5 12.9 22.5 12.95 22.45 12.95 22.4 13.0 22.4 13.05 22.35 13.05 22.35 13.1 22.35 13.15 22.3 13.15 22.3 13.2 22.25 13.2 22.25 13.25 22.2 13.25 22.2 13.3 22.2 13.35 22.15 13.35 22.15 13.4 22.15 13.45 22.15 13.45 22.1 13.5 22.1 13.55 22.1 13.55 22.1 13.6 22.1 13.65 22.1 13.7 22.05 13.7 22.05 13.75 22.05 13.8 22.05 13.85 22.05 13.95 22.05 14.0 22.05 14.05 22.05 14.1 22.05 14.2 22.05 14.25 22.05 14.35 22.0 14.4 22.0 14.5 22.0 14.6 L22.0 17.5 21.1 17.5 21.1 11.9 22.05 11.9 22.05 12.75 Q22.1 12.7 22.15 12.6 22.2 12.55 22.25 12.5 22.25 12.45 22.3 12.4 22.35 12.3 22.4 12.25 22.45 12.2 22.55 12.15 22.6 12.15 22.65 12.1 22.7 12.05 22.75 12.0 22.8 11.95 22.85 11.95 22.9 11.9 23.0 11.9 23.05 11.85 23.1 11.85 23.2 11.8 23.25 11.8 23.3 11.75 23.4 11.75 23.45 11.7 23.55 11.7 23.6 11.7 23.7 11.7 23.75 11.7 23.85 11.7 23.9 11.65 24.0 11.65 L24.0 11.65 M40.0 11.65 Q40.05 11.65 40.1 11.65 40.15 11.65 40.2 11.65 40.3 11.65 40.35 11.7 40.4 11.7 40.45 11.7 40.5 11.7 40.55 11.7 40.6 11.7 40.65 11.75 40.7 11.75 40.8 11.75 40.85 11.75 40.9 11.75 40.95 11.75 41.0 11.8 41.05 11.8 41.1 11.8 41.15 11.85 41.2 11.85 41.3 11.85 41.35 11.9 41.4 11.9 41.45 11.95 41.5 11.95 41.55 11.95 41.6 12.0 41.65 12.0 41.7 12.05 41.75 12.05 L41.75 13.1 Q41.7 13.05 41.65 13.05 41.6 13.0 41.55 13.0 41.5 12.95 41.45 12.95 41.4 12.9 41.35 12.9 41.3 12.85 41.25 12.85 41.2 12.8 41.15 12.8 41.1 12.8 41.05 12.75 41.0 12.75 40.95 12.75 40.9 12.75 40.85 12.7 40.8 12.7 40.75 12.7 40.7 12.65 40.65 12.65 40.6 12.65 40.55 12.65 40.5 12.65 40.45 12.6 40.4 12.6 40.35 12.6 40.3 12.6 40.25 12.6 40.2 12.6 40.15 12.6 40.05 12.6 39.95 12.6 39.8 12.6 39.7 12.65 39.6 12.65 39.5 12.7 39.4 12.7 39.3 12.75 39.2 12.8 39.15 12.85 39.05 12.9 38.95 12.95 38.9 13.0 38.8 13.05 38.7 13.1 38.65 13.2 38.6 13.25 38.5 13.35 38.45 13.45 38.4 13.5 38.35 13.6 38.3 13.7 38.25 13.8 38.2 13.9 38.2 14.0 38.15 14.1 38.15 14.2 38.1 14.3 38.1 14.4 38.1 14.55 38.1 14.65 38.1 14.75 38.1 14.85 38.1 14.95 38.1 15.1 38.15 15.2 38.15 15.3 38.15 15.4 38.2 15.45 38.25 15.55 38.25 15.65 38.3 15.75 38.35 15.85 38.4 15.9 38.45 16.0 38.5 16.05 38.6 16.15 38.65 16.2 38.7 16.3 38.8 16.35 38.9 16.4 38.95 16.45 39.05 16.5 39.15 16.55 39.2 16.6 39.3 16.65 39.4 16.7 39.5 16.7 39.6 16.75 39.7 16.75 39.8 16.8 39.9 16.8 40.0 16.8 40.1 16.8 40.15 16.8 40.2 16.8 40.25 16.8 40.3 16.8 40.35 16.8 40.4 16.8 40.5 16.8 40.55 16.75 40.6 16.75 40.65 16.75 40.7 16.75 40.75 16.7 40.8 16.7 40.85 16.7 40.9 16.65 40.95 16.65 41.0 16.65 41.05 16.6 41.1 16.6 41.15 16.55 41.2 16.55 41.25 16.5 41.35 16.5 41.4 16.45 41.45 16.4 41.5 16.4 41.55 16.35 41.6 16.3 41.65 16.3 41.7 16.25 41.75 16.2 41.85 16.15 L41.85 17.3 Q41.8 17.35 41.75 17.35 41.7 17.35 41.65 17.4 41.6 17.4 41.55 17.45 41.5 17.45 41.45 17.5 41.35 17.5 41.3 17.5 41.25 17.55 41.2 17.55 41.15 17.6 41.1 17.6 41.05 17.6 40.95 17.6 40.9 17.6 40.85 17.65 40.8 17.65 40.7 17.65 40.65 17.7 40.6 17.7 40.55 17.7 40.45 17.7 40.4 17.7 40.35 17.7 40.3 17.75 40.2 17.75 40.15 17.75 40.1 17.75 40.0 17.75 39.95 17.75 39.8 17.75 39.65 17.75 39.45 17.7 39.35 17.7 39.2 17.65 39.05 17.65 38.9 17.6 38.75 17.55 38.65 17.5 38.5 17.4 38.4 17.35 38.25 17.3 38.15 17.2 38.05 17.1 37.95 17.0 37.85 16.9 37.75 16.8 37.65 16.7 37.55 16.6 37.5 16.45 37.4 16.35 37.35 16.2 37.3 16.1 37.25 15.95 37.2 15.8 37.15 15.7 37.1 15.55 37.1 15.4 37.05 15.25 37.05 15.05 37.05 14.9 37.05 14.75 37.05 14.6 37.05 14.4 37.1 14.25 37.1 14.1 37.15 13.95 37.15 13.8 37.2 13.65 37.25 13.5 37.3 13.4 37.35 13.25 37.45 13.1 37.5 13.0 37.6 12.85 37.7 12.75 37.75 12.65 37.85 12.55 37.95 12.45 38.05 12.35 38.2 12.25 38.3 12.15 38.4 12.1 38.55 12.0 38.7 11.95 38.8 11.9 38.95 11.85 39.1 11.8 39.2 11.75 39.35 11.75 39.5 11.7 39.65 11.7 39.8 11.65 40.0 11.65 L40.0 11.65 M14.1 11.9 L15.1 11.9 15.1 14.65 Q15.1 14.8 15.1 14.95 15.1 15.1 15.15 15.2 15.15 15.35 15.15 15.45 15.2 15.55 15.2 15.65 15.2 15.8 15.25 15.85 15.3 15.95 15.3 16.05 15.35 16.15 15.4 16.2 15.45 16.3 15.45 16.35 15.5 16.4 15.55 16.45 15.6 16.5 15.65 16.55 15.75 16.6 15.8 16.65 15.9 16.65 15.95 16.7 16.05 16.75 16.1 16.75 16.2 16.75 16.3 16.8 16.4 16.8 16.5 16.8 16.6 16.8 16.7 16.8 16.8 16.8 16.9 16.8 17.0 16.8 17.1 16.8 17.2 16.75 17.25 16.75 17.35 16.75 17.4 16.7 17.5 16.65 17.55 16.65 17.65 16.6 17.7 16.55 17.75 16.5 17.8 16.45 17.85 16.4 17.9 16.35 17.95 16.3 18.0 16.2 18.0 16.15 18.05 16.05 18.1 16.0 18.1 15.9 18.15 15.8 18.15 15.7 18.2 15.55 18.2 15.45 18.2 15.35 18.25 15.2 18.25 15.1 18.25 14.95 18.25 14.8 18.25 14.65 L18.25 11.9 19.25 11.9 19.25 15.15 Q19.25 15.3 19.25 15.45 19.2 15.6 19.2 15.75 19.2 15.9 19.15 16.0 19.1 16.15 19.05 16.3 19.05 16.4 19.0 16.5 18.95 16.6 18.85 16.7 18.8 16.8 18.75 16.9 18.65 17.0 18.6 17.1 18.5 17.2 18.4 17.25 18.35 17.3 18.25 17.4 18.1 17.45 18.0 17.5 17.9 17.55 17.8 17.6 17.65 17.6 17.55 17.65 17.4 17.7 17.25 17.7 17.1 17.7 16.95 17.75 16.8 17.75 16.65 17.75 16.5 17.75 16.35 17.75 16.2 17.7 16.05 17.7 15.95 17.7 15.8 17.65 15.7 17.6 15.55 17.6 15.45 17.55 15.35 17.5 15.2 17.45 15.1 17.35 15.0 17.3 14.95 17.25 14.85 17.15 14.75 17.1 14.65 17.0 14.6 16.9 14.55 16.85 14.45 16.7 14.4 16.6 14.35 16.5 14.3 16.4 14.25 16.25 14.25 16.15 14.2 16.0 14.15 15.9 14.15 15.75 14.15 15.6 14.1 15.45 14.1 15.3 14.1 15.15 L14.1 11.9 14.1 11.9" fill="#ffffff" fill-rule="evenodd" stroke="none"/>
  </g>
</svg>
