<?xml version="1.0" encoding="UTF-8" standalone="no"?>
<svg xmlns:ffdec="https://www.free-decompiler.com/flash" xmlns:xlink="http://www.w3.org/1999/xlink" ffdec:objectType="shape" height="26.0px" width="52.95px" xmlns="http://www.w3.org/2000/svg">
  <g transform="matrix(1.0, 0.0, 0.0, 1.0, 0.0, 0.0)">
    <path d="M4.0 3.0 Q3.9 3.0 3.8 3.0 3.7 3.05 3.6 3.1 3.5 3.1 3.45 3.15 3.35 3.2 3.3 3.3 3.2 3.35 3.15 3.45 3.1 3.5 3.1 3.6 3.05 3.7 3.0 3.8 3.0 3.9 3.0 4.0 L3.0 22.0 Q3.0 22.1 3.0 22.2 3.05 22.3 3.1 22.4 3.1 22.5 3.15 22.55 3.2 22.65 3.3 22.7 3.35 22.8 3.45 22.85 3.5 22.9 3.6 22.9 3.7 22.95 3.8 23.0 3.9 23.0 4.0 23.0 L48.95 23.0 Q49.05 23.0 49.15 23.0 49.25 22.95 49.35 22.9 49.45 22.9 49.5 22.85 49.6 22.8 49.65 22.7 49.7 22.65 49.8 22.55 49.85 22.5 49.85 22.4 49.9 22.3 49.95 22.2 49.95 22.1 49.95 22.0 L49.95 4.0 Q49.95 3.9 49.95 3.8 49.9 3.7 49.85 3.6 49.85 3.5 49.8 3.45 49.7 3.35 49.65 3.3 49.6 3.2 49.5 3.15 49.45 3.1 49.35 3.1 49.25 3.05 49.15 3.0 49.05 3.0 48.95 3.0 L4.0 3.0 4.0 3.0 M38.1 7.95 L39.05 7.95 39.05 14.45 41.75 11.9 43.05 11.9 40.25 14.45 43.3 17.5 41.95 17.5 39.05 14.55 39.05 17.5 38.1 17.5 38.1 7.95 38.1 7.95 M12.45 8.3 Q12.55 8.3 12.65 8.3 12.75 8.3 12.85 8.3 12.95 8.3 13.05 8.35 13.15 8.35 13.2 8.35 13.3 8.4 13.4 8.4 13.5 8.45 13.55 8.5 13.65 8.5 13.7 8.55 13.8 8.6 13.85 8.65 13.95 8.7 14.0 8.75 14.05 8.8 14.15 8.85 14.2 8.9 14.25 8.95 14.35 9.0 14.4 9.05 14.45 9.1 14.5 9.2 14.55 9.25 14.6 9.35 14.65 9.4 14.7 9.5 14.75 9.55 14.8 9.65 L13.9 10.2 Q13.85 10.15 13.85 10.1 13.8 10.0 13.75 9.95 13.7 9.9 13.65 9.85 13.65 9.8 13.6 9.75 13.55 9.7 13.5 9.65 13.45 9.6 13.4 9.6 13.35 9.55 13.35 9.5 13.3 9.45 13.25 9.45 13.2 9.4 13.15 9.4 13.1 9.35 13.05 9.35 13.0 9.3 12.95 9.3 12.9 9.25 12.85 9.25 12.8 9.25 12.75 9.2 12.65 9.2 12.6 9.2 12.55 9.2 12.5 9.2 12.45 9.2 12.4 9.2 12.3 9.2 12.25 9.2 12.15 9.2 12.1 9.2 12.05 9.2 11.95 9.25 11.9 9.25 11.85 9.25 11.8 9.3 11.7 9.3 11.65 9.35 11.6 9.4 11.55 9.4 11.5 9.45 11.45 9.5 11.4 9.55 11.35 9.6 11.3 9.65 11.25 9.7 11.25 9.75 11.2 9.8 11.15 9.85 11.15 9.9 11.1 9.95 11.1 10.0 11.05 10.1 11.05 10.15 11.05 10.2 11.05 10.3 11.0 10.35 11.0 10.4 11.0 10.5 11.0 10.55 11.0 10.6 11.0 10.65 11.05 10.7 11.05 10.8 11.05 10.85 11.05 10.9 11.1 10.95 11.1 11.0 11.15 11.05 11.15 11.1 11.2 11.15 11.2 11.2 11.25 11.25 11.25 11.25 11.3 11.3 11.35 11.35 11.4 11.4 11.4 11.45 11.45 11.5 11.5 11.5 11.55 11.55 11.65 11.6 11.7 11.65 11.75 11.7 11.8 11.7 11.85 11.75 11.95 11.8 12.0 11.85 12.05 11.85 12.15 11.9 12.2 11.95 L13.5 12.5 Q13.6 12.55 13.7 12.6 13.8 12.65 13.9 12.7 14.0 12.75 14.1 12.8 14.2 12.9 14.3 12.95 14.35 13.0 14.45 13.05 14.5 13.15 14.6 13.2 14.65 13.25 14.7 13.35 14.8 13.4 14.85 13.5 14.9 13.6 14.95 13.65 15.0 13.75 15.05 13.8 15.1 13.9 15.1 14.0 15.15 14.1 15.15 14.2 15.2 14.25 15.2 14.35 15.25 14.45 15.25 14.55 15.25 14.65 15.25 14.75 15.3 14.85 15.3 14.95 15.3 15.1 15.3 15.25 15.25 15.4 15.25 15.55 15.2 15.7 15.15 15.85 15.15 15.95 15.1 16.1 15.05 16.2 14.95 16.35 14.9 16.45 14.85 16.55 14.75 16.65 14.65 16.75 14.6 16.9 14.5 16.95 14.4 17.05 14.3 17.15 14.2 17.2 14.05 17.3 13.95 17.35 13.85 17.45 13.7 17.5 13.55 17.55 13.45 17.6 13.3 17.6 13.15 17.65 13.0 17.7 12.85 17.7 12.7 17.7 12.55 17.75 12.4 17.75 12.25 17.75 12.15 17.75 12.0 17.7 11.9 17.7 11.75 17.7 11.65 17.65 11.55 17.65 11.4 17.6 11.3 17.55 11.2 17.5 11.1 17.45 11.0 17.4 10.9 17.35 10.8 17.3 10.7 17.25 10.6 17.2 10.5 17.15 10.45 17.05 10.35 16.95 10.3 16.9 10.2 16.8 10.15 16.7 10.05 16.6 10.0 16.55 9.95 16.45 9.9 16.3 9.85 16.2 9.8 16.1 9.75 16.0 9.7 15.9 9.65 15.75 9.65 15.65 L10.6 15.15 Q10.65 15.25 10.65 15.35 10.7 15.45 10.7 15.55 10.75 15.65 10.8 15.7 10.85 15.8 10.85 15.9 10.9 15.95 10.95 16.05 11.0 16.1 11.05 16.15 11.1 16.25 11.15 16.3 11.2 16.35 11.25 16.4 11.3 16.45 11.35 16.5 11.45 16.55 11.5 16.6 11.55 16.6 11.65 16.65 11.7 16.7 11.75 16.7 11.85 16.75 11.9 16.75 12.0 16.8 12.05 16.8 12.15 16.8 12.25 16.8 12.3 16.8 12.4 16.8 12.5 16.8 12.6 16.8 12.7 16.8 12.8 16.8 12.85 16.75 12.95 16.75 13.05 16.75 13.15 16.7 13.2 16.65 13.3 16.65 13.35 16.6 13.45 16.55 13.5 16.5 13.55 16.45 13.65 16.4 13.7 16.35 13.75 16.3 13.8 16.25 13.85 16.15 13.9 16.1 13.95 16.05 14.0 15.95 14.05 15.9 14.05 15.8 14.1 15.75 14.15 15.65 14.15 15.6 14.15 15.5 14.2 15.4 14.2 15.35 14.2 15.25 14.2 15.15 14.2 15.05 14.2 15.0 14.2 14.95 14.2 14.85 14.15 14.8 14.15 14.7 14.15 14.65 14.1 14.6 14.1 14.5 14.05 14.45 14.05 14.4 14.0 14.35 13.95 14.25 13.95 14.2 13.9 14.15 13.85 14.1 13.8 14.05 13.75 14.0 13.7 13.95 13.65 13.9 13.6 13.85 13.55 13.8 13.5 13.75 13.4 13.7 13.35 13.65 13.3 13.6 13.2 13.55 13.15 13.5 13.05 13.45 12.95 13.4 12.9 13.4 12.8 13.35 L11.7 12.9 Q11.6 12.85 11.5 12.8 11.4 12.75 11.3 12.7 11.2 12.65 11.1 12.55 11.0 12.5 10.9 12.45 10.85 12.4 10.75 12.35 10.7 12.25 10.6 12.2 10.55 12.15 10.5 12.05 10.4 12.0 10.35 11.9 10.3 11.85 10.25 11.75 10.2 11.7 10.15 11.6 10.15 11.5 10.1 11.45 10.05 11.35 10.05 11.25 10.0 11.15 10.0 11.1 9.95 11.0 9.95 10.9 9.95 10.8 9.95 10.7 9.95 10.6 9.95 10.5 9.95 10.4 9.95 10.25 9.95 10.15 10.0 10.05 10.0 9.95 10.05 9.85 10.05 9.7 10.1 9.6 10.15 9.5 10.2 9.45 10.25 9.35 10.35 9.25 10.4 9.15 10.5 9.05 10.55 9.0 10.65 8.9 10.75 8.8 10.85 8.75 10.95 8.7 11.05 8.65 11.15 8.6 11.25 8.55 11.35 8.5 11.45 8.45 11.55 8.4 11.7 8.35 11.8 8.35 11.95 8.3 12.05 8.3 12.2 8.3 12.35 8.3 12.45 8.3 L12.45 8.3 M26.8 8.5 L27.85 8.5 27.85 16.5 31.25 16.5 31.25 17.5 26.8 17.5 26.8 8.5 26.8 8.5 M19.05 11.65 Q19.1 11.65 19.15 11.65 19.25 11.65 19.3 11.65 19.35 11.65 19.4 11.7 19.45 11.7 19.55 11.7 19.6 11.7 19.65 11.7 19.7 11.7 19.75 11.75 19.8 11.75 19.85 11.75 19.95 11.75 20.0 11.75 20.05 11.75 20.1 11.8 20.15 11.8 20.2 11.8 20.25 11.85 20.3 11.85 20.35 11.85 20.4 11.9 20.45 11.9 20.5 11.95 20.6 11.95 20.65 11.95 20.7 12.0 20.75 12.0 20.8 12.05 20.85 12.05 L20.85 13.1 Q20.8 13.05 20.75 13.05 20.7 13.0 20.65 13.0 20.6 12.95 20.55 12.95 20.5 12.9 20.45 12.9 20.4 12.85 20.35 12.85 20.3 12.8 20.25 12.8 20.2 12.8 20.15 12.75 20.1 12.75 20.05 12.75 20.0 12.75 19.95 12.7 19.9 12.7 19.85 12.7 19.8 12.65 19.75 12.65 19.7 12.65 19.65 12.65 19.6 12.65 19.55 12.6 19.5 12.6 19.45 12.6 19.4 12.6 19.35 12.6 19.3 12.6 19.25 12.6 19.15 12.6 19.0 12.6 18.9 12.6 18.8 12.65 18.7 12.65 18.6 12.7 18.5 12.7 18.4 12.75 18.3 12.8 18.25 12.85 18.15 12.9 18.05 12.95 17.95 13.0 17.9 13.05 17.8 13.1 17.75 13.2 17.7 13.25 17.6 13.35 17.55 13.45 17.5 13.5 17.45 13.6 17.4 13.7 17.35 13.8 17.3 13.9 17.3 14.0 17.25 14.1 17.25 14.2 17.2 14.3 17.2 14.4 17.2 14.55 17.15 14.65 17.15 14.75 17.15 14.85 17.15 14.95 17.2 15.1 17.2 15.2 17.2 15.3 17.25 15.4 17.3 15.45 17.3 15.55 17.35 15.65 17.4 15.75 17.45 15.85 17.5 15.9 17.55 16.0 17.6 16.05 17.65 16.15 17.75 16.2 17.8 16.3 17.9 16.35 17.95 16.4 18.05 16.45 18.15 16.5 18.2 16.55 18.3 16.6 18.4 16.65 18.5 16.7 18.6 16.7 18.7 16.75 18.75 16.75 18.85 16.8 19.0 16.8 19.1 16.8 19.2 16.8 19.25 16.8 19.3 16.8 19.35 16.8 19.4 16.8 19.45 16.8 19.5 16.8 19.55 16.8 19.6 16.75 19.7 16.75 19.75 16.75 19.8 16.75 19.85 16.7 19.9 16.7 19.95 16.7 20.0 16.65 20.05 16.65 20.1 16.65 20.15 16.6 20.2 16.6 20.25 16.55 20.3 16.55 20.35 16.5 20.4 16.5 20.45 16.45 20.55 16.4 20.6 16.4 20.65 16.35 20.7 16.3 20.75 16.3 20.8 16.25 20.85 16.2 20.9 16.15 L20.9 17.3 Q20.85 17.35 20.8 17.35 20.75 17.35 20.7 17.4 20.65 17.4 20.6 17.45 20.55 17.45 20.5 17.5 20.45 17.5 20.4 17.5 20.35 17.55 20.3 17.55 20.25 17.6 20.2 17.6 20.1 17.6 20.05 17.6 20.0 17.6 19.95 17.65 19.9 17.65 19.8 17.65 19.75 17.7 19.7 17.7 19.65 17.7 19.55 17.7 19.5 17.7 19.45 17.7 19.4 17.75 19.3 17.75 19.25 17.75 19.15 17.75 19.1 17.75 19.05 17.75 18.9 17.75 18.75 17.75 18.55 17.7 18.4 17.7 18.25 17.65 18.15 17.65 18.0 17.6 17.85 17.55 17.75 17.5 17.6 17.4 17.5 17.35 17.35 17.3 17.25 17.2 17.15 17.1 17.05 17.0 16.95 16.9 16.85 16.8 16.75 16.7 16.65 16.6 16.6 16.45 16.5 16.35 16.45 16.2 16.4 16.1 16.35 15.95 16.3 15.8 16.25 15.7 16.2 15.55 16.2 15.4 16.15 15.25 16.15 15.05 16.15 14.9 16.15 14.75 16.15 14.6 16.15 14.4 16.15 14.25 16.2 14.1 16.2 13.95 16.25 13.8 16.3 13.65 16.35 13.5 16.4 13.4 16.45 13.25 16.55 13.1 16.6 13.0 16.7 12.85 16.75 12.75 16.85 12.65 16.95 12.55 17.05 12.45 17.15 12.35 17.3 12.25 17.4 12.15 17.5 12.1 17.65 12.0 17.75 11.95 17.9 11.9 18.05 11.85 18.15 11.8 18.3 11.75 18.45 11.75 18.6 11.7 18.75 11.7 18.9 11.65 19.05 11.65 L19.05 11.65 M34.9 11.65 Q34.95 11.65 35.0 11.65 35.05 11.65 35.15 11.65 35.2 11.65 35.25 11.7 35.3 11.7 35.35 11.7 35.4 11.7 35.45 11.7 35.5 11.7 35.6 11.75 35.65 11.75 35.7 11.75 35.75 11.75 35.8 11.75 35.85 11.75 35.9 11.8 35.95 11.8 36.0 11.8 36.1 11.85 36.15 11.85 36.2 11.85 36.25 11.9 36.3 11.9 36.35 11.95 36.4 11.95 36.45 11.95 36.5 12.0 36.55 12.0 36.6 12.05 36.65 12.05 L36.65 13.1 Q36.6 13.05 36.55 13.05 36.5 13.0 36.45 13.0 36.4 12.95 36.35 12.95 36.3 12.9 36.25 12.9 36.2 12.85 36.15 12.85 36.1 12.8 36.1 12.8 36.05 12.8 36.0 12.75 35.95 12.75 35.9 12.75 35.85 12.75 35.8 12.7 35.75 12.7 35.7 12.7 35.65 12.65 35.6 12.65 35.55 12.65 35.5 12.65 35.45 12.65 35.4 12.6 35.35 12.6 35.3 12.6 35.25 12.6 35.2 12.6 35.15 12.6 35.1 12.6 35.0 12.6 34.85 12.6 34.75 12.6 34.65 12.65 34.55 12.65 34.45 12.7 34.35 12.7 34.25 12.75 34.15 12.8 34.05 12.85 33.95 12.9 33.85 12.95 33.8 13.0 33.7 13.05 33.65 13.1 33.55 13.2 33.5 13.25 33.4 13.35 33.35 13.45 33.3 13.5 33.25 13.6 33.2 13.7 33.15 13.8 33.15 13.9 33.1 14.0 33.05 14.1 33.05 14.2 33.05 14.3 33.0 14.4 33.0 14.55 33.0 14.65 33.0 14.75 33.0 14.85 33.0 14.95 33.0 15.1 33.05 15.2 33.05 15.3 33.05 15.4 33.1 15.45 33.15 15.55 33.15 15.65 33.2 15.75 33.25 15.85 33.3 15.9 33.35 16.0 33.45 16.05 33.5 16.15 33.55 16.2 33.6 16.3 33.7 16.35 33.8 16.4 33.85 16.45 33.95 16.5 34.05 16.55 34.1 16.6 34.2 16.65 34.3 16.7 34.4 16.7 34.5 16.75 34.6 16.75 34.7 16.8 34.8 16.8 34.9 16.8 35.0 16.8 35.05 16.8 35.1 16.8 35.15 16.8 35.2 16.8 35.3 16.8 35.35 16.8 35.4 16.8 35.45 16.75 35.5 16.75 35.55 16.75 35.6 16.75 35.65 16.7 35.7 16.7 35.75 16.7 35.8 16.65 35.85 16.65 35.9 16.65 35.95 16.6 36.0 16.6 36.05 16.55 36.1 16.55 36.2 16.5 36.25 16.5 36.3 16.45 36.35 16.4 36.4 16.4 36.45 16.35 36.5 16.3 36.55 16.3 36.65 16.25 36.7 16.2 36.75 16.15 L36.75 17.3 Q36.7 17.35 36.65 17.35 36.6 17.35 36.55 17.4 36.5 17.4 36.45 17.45 36.4 17.45 36.35 17.5 36.3 17.5 36.25 17.5 36.15 17.55 36.1 17.55 36.05 17.6 36.0 17.6 35.95 17.6 35.9 17.6 35.85 17.6 35.75 17.65 35.7 17.65 35.65 17.65 35.6 17.7 35.5 17.7 35.45 17.7 35.4 17.7 35.3 17.7 35.25 17.7 35.2 17.75 35.15 17.75 35.05 17.75 35.0 17.75 34.9 17.75 34.85 17.75 34.7 17.75 34.55 17.75 34.4 17.7 34.25 17.7 34.1 17.65 33.95 17.65 33.8 17.6 33.7 17.55 33.55 17.5 33.4 17.4 33.3 17.35 33.2 17.3 33.05 17.2 32.95 17.1 32.85 17.0 32.75 16.9 32.65 16.8 32.55 16.7 32.5 16.6 32.4 16.45 32.35 16.35 32.25 16.2 32.2 16.1 32.15 15.95 32.1 15.8 32.05 15.7 32.05 15.55 32.0 15.4 32.0 15.25 31.95 15.05 31.95 14.9 31.95 14.75 31.95 14.6 31.95 14.4 32.0 14.25 32.0 14.1 32.05 13.95 32.05 13.8 32.1 13.65 32.15 13.5 32.2 13.4 32.3 13.25 32.35 13.1 32.4 13.0 32.5 12.85 32.6 12.75 32.7 12.65 32.8 12.55 32.9 12.45 33.0 12.35 33.1 12.25 33.25 12.15 33.35 12.1 33.45 12.0 33.6 11.95 33.7 11.9 33.85 11.85 34.0 11.8 34.15 11.75 34.3 11.75 34.4 11.7 34.6 11.7 34.75 11.65 34.9 11.65 L34.9 11.65 M25.0 11.7 Q25.05 11.7 25.1 11.7 25.15 11.7 25.2 11.7 25.25 11.7 25.25 11.7 25.3 11.7 25.35 11.7 25.65 11.8 25.65 11.8 L25.35 12.65 Q25.05 12.6 25.05 12.6 25.0 12.6 24.95 12.6 24.95 12.55 24.9 12.55 24.85 12.55 24.8 12.55 24.8 12.55 24.75 12.55 24.65 12.55 24.55 12.55 24.5 12.55 24.4 12.6 24.3 12.6 24.25 12.65 24.15 12.65 24.1 12.7 24.0 12.7 23.95 12.75 23.9 12.8 23.8 12.85 23.75 12.9 23.7 13.0 23.65 13.05 23.6 13.1 23.55 13.15 23.5 13.25 23.45 13.35 23.45 13.4 23.4 13.5 23.35 13.6 23.35 13.7 23.3 13.8 23.3 13.9 23.3 14.0 23.25 14.1 23.25 14.25 23.25 14.35 23.25 14.5 23.25 14.6 23.25 14.75 L23.25 17.5 22.3 17.5 22.3 11.9 23.15 11.9 23.15 13.05 Q23.2 12.95 23.25 12.85 23.3 12.8 23.35 12.7 23.4 12.65 23.45 12.55 23.5 12.5 23.55 12.4 23.6 12.35 23.65 12.3 23.7 12.25 23.75 12.2 23.8 12.15 23.85 12.1 23.9 12.05 23.95 12.0 24.0 11.95 24.05 11.95 24.1 11.9 24.2 11.85 24.25 11.85 24.3 11.8 24.35 11.8 24.45 11.75 24.5 11.75 24.55 11.75 24.65 11.7 24.7 11.7 24.8 11.7 24.85 11.7 24.95 11.7 25.0 11.7 L25.0 11.7" fill="#ffffff" fill-rule="evenodd" stroke="none"/>
  </g>
</svg>
