<?xml version="1.0" encoding="UTF-8" standalone="no"?>
<svg xmlns:ffdec="https://www.free-decompiler.com/flash" xmlns:xlink="http://www.w3.org/1999/xlink" ffdec:objectType="shape" height="26.0px" width="35.75px" xmlns="http://www.w3.org/2000/svg">
  <g transform="matrix(1.0, 0.0, 0.0, 1.0, 0.0, 0.0)">
    <path d="M4.0 3.0 Q3.9 3.0 3.8 3.0 3.7 3.05 3.6 3.1 3.5 3.1 3.45 3.15 3.35 3.2 3.3 3.3 3.2 3.35 3.15 3.45 3.1 3.5 3.1 3.6 3.05 3.7 3.0 3.8 3.0 3.9 3.0 4.0 L3.0 22.0 Q3.0 22.1 3.0 22.2 3.05 22.3 3.1 22.4 3.1 22.5 3.15 22.55 3.2 22.65 3.3 22.7 3.35 22.8 3.45 22.85 3.5 22.9 3.6 22.9 3.7 22.95 3.8 23.0 3.9 23.0 4.0 23.0 L31.75 23.0 Q31.85 23.0 31.95 23.0 32.05 22.95 32.15 22.9 32.25 22.9 32.3 22.85 32.4 22.8 32.45 22.7 32.55 22.65 32.6 22.55 32.65 22.5 32.65 22.4 32.7 22.3 32.75 22.2 32.75 22.1 32.75 22.0 L32.75 4.0 Q32.75 3.9 32.75 3.8 32.7 3.7 32.65 3.6 32.65 3.5 32.6 3.45 32.55 3.35 32.45 3.3 32.4 3.2 32.3 3.15 32.25 3.1 32.15 3.1 32.05 3.05 31.95 3.0 31.85 3.0 31.75 3.0 L4.0 3.0 4.0 3.0 M6.95 8.15 L13.55 15.35 13.55 8.5 14.55 8.5 14.55 17.85 7.95 10.75 7.95 17.5 6.95 17.5 6.95 8.15 6.95 8.15 M16.7 8.5 L18.6 8.5 Q18.7 8.5 18.85 8.5 18.95 8.5 19.05 8.5 19.15 8.5 19.25 8.5 19.35 8.5 19.45 8.55 19.55 8.55 19.6 8.55 19.7 8.55 19.8 8.55 19.85 8.55 19.9 8.6 20.0 8.6 20.05 8.6 20.1 8.6 20.15 8.65 20.2 8.65 20.25 8.65 20.35 8.7 20.4 8.7 20.45 8.7 20.5 8.75 20.55 8.75 20.6 8.8 20.65 8.8 20.65 8.85 20.7 8.85 20.75 8.9 20.8 8.9 20.85 8.95 20.9 9.0 20.95 9.05 21.0 9.05 21.05 9.1 21.1 9.15 21.15 9.2 21.2 9.25 21.25 9.3 21.3 9.35 21.3 9.4 21.35 9.5 21.4 9.55 21.45 9.6 21.45 9.65 21.5 9.7 21.5 9.8 21.55 9.85 21.55 9.95 21.6 10.0 21.6 10.05 21.65 10.15 21.65 10.2 21.7 10.3 21.7 10.35 21.7 10.45 21.75 10.5 21.75 10.6 21.75 10.65 21.75 10.75 21.75 10.8 21.75 10.9 21.75 11.0 21.75 11.1 21.75 11.15 21.75 11.25 21.75 11.3 21.75 11.4 21.75 11.45 21.7 11.55 21.7 11.6 21.7 11.7 21.65 11.75 21.65 11.8 21.65 11.9 21.6 11.95 21.6 12.05 21.55 12.1 21.5 12.15 21.45 12.2 21.45 12.3 21.4 12.35 21.4 12.4 21.35 12.45 21.3 12.55 21.25 12.6 21.25 12.65 21.2 12.7 21.15 12.75 21.1 12.8 21.05 12.85 21.0 12.9 20.95 12.95 20.9 12.95 20.85 13.0 20.8 13.05 20.75 13.05 20.7 13.1 20.65 13.1 20.65 13.15 20.6 13.15 20.55 13.2 20.5 13.2 20.45 13.25 20.4 13.25 20.3 13.3 20.25 13.3 20.2 13.3 20.15 13.35 20.1 13.35 20.05 13.35 20.0 13.35 19.9 13.4 19.85 13.4 19.8 13.4 19.7 13.4 19.6 13.4 19.55 13.45 19.45 13.45 19.35 13.45 19.25 13.45 19.15 13.45 19.05 13.45 18.95 13.45 18.85 13.45 18.7 13.45 18.6 13.45 L18.3 13.45 17.75 13.45 17.75 17.5 16.7 17.5 16.7 8.5 16.7 8.5 M23.1 8.6 L28.8 8.6 24.3 17.85 23.45 17.4 27.25 9.5 23.1 9.5 23.1 8.6 23.1 8.6 M17.75 9.5 L17.75 12.5 18.3 12.5 Q18.45 12.5 18.6 12.5 18.8 12.5 18.9 12.45 19.05 12.45 19.2 12.45 19.3 12.45 19.45 12.4 19.55 12.4 19.65 12.35 19.75 12.35 19.85 12.3 19.95 12.3 20.0 12.25 20.1 12.2 20.15 12.15 20.2 12.1 20.25 12.05 20.3 12.0 20.35 11.95 20.4 11.9 20.45 11.85 20.45 11.8 20.5 11.7 20.5 11.65 20.55 11.55 20.55 11.5 20.6 11.4 20.6 11.35 20.6 11.25 20.6 11.15 20.6 11.05 20.6 10.95 20.6 10.85 20.6 10.75 20.6 10.65 20.55 10.55 20.55 10.45 20.5 10.4 20.5 10.3 20.45 10.25 20.4 10.15 20.4 10.1 20.35 10.05 20.3 10.0 20.25 9.9 20.2 9.85 20.1 9.85 20.05 9.8 19.95 9.75 19.9 9.7 19.8 9.7 19.75 9.65 19.65 9.6 19.55 9.6 19.4 9.55 19.3 9.55 19.15 9.55 19.05 9.5 18.9 9.5 18.75 9.5 18.6 9.5 18.45 9.5 18.3 9.5 L17.75 9.5 17.75 9.5" fill="#ffffff" fill-rule="evenodd" stroke="none"/>
  </g>
</svg>
