<?xml version="1.0" encoding="UTF-8" standalone="no"?>
<svg xmlns:ffdec="https://www.free-decompiler.com/flash" xmlns:xlink="http://www.w3.org/1999/xlink" ffdec:objectType="shape" height="26.0px" width="35.75px" xmlns="http://www.w3.org/2000/svg">
  <g transform="matrix(1.0, 0.0, 0.0, 1.0, 0.0, 0.0)">
    <path d="M4.0 3.0 Q3.9 3.0 3.8 3.0 3.7 3.05 3.6 3.1 3.5 3.1 3.45 3.15 3.35 3.2 3.3 3.3 3.2 3.35 3.15 3.45 3.1 3.5 3.1 3.6 3.05 3.7 3.0 3.8 3.0 3.9 3.0 4.0 L3.0 22.0 Q3.0 22.1 3.0 22.2 3.05 22.3 3.1 22.4 3.1 22.5 3.15 22.55 3.2 22.65 3.3 22.7 3.35 22.8 3.45 22.85 3.5 22.9 3.6 22.9 3.7 22.95 3.8 23.0 3.9 23.0 4.0 23.0 L31.75 23.0 Q31.85 23.0 31.95 23.0 32.05 22.95 32.15 22.9 32.25 22.9 32.3 22.85 32.4 22.8 32.45 22.7 32.55 22.65 32.6 22.55 32.65 22.5 32.65 22.4 32.7 22.3 32.75 22.2 32.75 22.1 32.75 22.0 L32.75 4.0 Q32.75 3.9 32.75 3.8 32.7 3.7 32.65 3.6 32.65 3.5 32.6 3.45 32.55 3.35 32.45 3.3 32.4 3.2 32.3 3.15 32.25 3.1 32.15 3.1 32.05 3.05 31.95 3.0 31.85 3.0 31.75 3.0 L4.0 3.0 4.0 3.0 M6.9 8.15 L13.5 15.35 13.5 8.5 14.55 8.5 14.55 17.85 7.95 10.75 7.95 17.5 6.9 17.5 6.9 8.15 6.9 8.15 M25.7 8.4 Q25.9 8.4 26.05 8.4 26.25 8.45 26.4 8.5 26.55 8.5 26.7 8.6 26.85 8.65 27.0 8.7 27.15 8.8 27.3 8.9 27.4 9.0 27.55 9.1 27.65 9.2 27.8 9.35 27.9 9.5 28.0 9.65 28.1 9.8 28.2 9.95 28.3 10.15 28.35 10.3 28.45 10.5 28.5 10.7 28.55 10.9 28.6 11.1 28.65 11.35 28.7 11.55 28.75 11.8 28.75 12.05 28.8 12.25 28.8 12.55 28.85 12.8 28.85 13.05 28.85 13.35 28.85 13.6 28.8 13.85 28.8 14.1 28.75 14.35 28.7 14.6 28.65 14.8 28.6 15.0 28.55 15.25 28.5 15.45 28.45 15.65 28.35 15.8 28.3 16.0 28.2 16.2 28.1 16.35 28.0 16.5 27.9 16.65 27.8 16.8 27.65 16.95 27.55 17.05 27.4 17.15 27.3 17.25 27.15 17.35 27.0 17.45 26.85 17.5 26.7 17.55 26.55 17.6 26.4 17.65 26.25 17.7 26.05 17.7 25.9 17.75 25.7 17.75 25.5 17.75 25.35 17.75 25.2 17.7 25.0 17.65 24.85 17.65 24.7 17.55 24.55 17.5 24.4 17.45 24.25 17.35 24.15 17.25 24.0 17.15 23.9 17.05 23.75 16.9 23.65 16.8 23.5 16.65 23.4 16.5 23.3 16.35 23.2 16.15 23.1 16.0 23.05 15.8 22.95 15.65 22.9 15.45 22.85 15.25 22.8 15.0 22.75 14.8 22.7 14.55 22.65 14.35 22.65 14.1 22.6 13.85 22.6 13.6 22.6 13.35 22.6 13.05 22.6 12.8 22.6 12.55 22.6 12.25 22.65 12.05 22.65 11.8 22.7 11.55 22.75 11.35 22.8 11.15 22.85 10.9 22.9 10.7 22.95 10.5 23.05 10.35 23.1 10.15 23.2 10.0 23.3 9.8 23.4 9.65 23.5 9.5 23.6 9.35 23.75 9.2 23.85 9.1 24.0 9.0 24.1 8.9 24.25 8.8 24.4 8.7 24.55 8.65 24.7 8.6 24.85 8.55 25.0 8.5 25.15 8.45 25.35 8.45 25.5 8.4 25.7 8.4 L25.7 8.4 M16.7 8.5 L18.55 8.5 Q18.7 8.5 18.8 8.5 18.9 8.5 19.0 8.5 19.15 8.5 19.25 8.5 19.35 8.5 19.4 8.55 19.5 8.55 19.6 8.55 19.7 8.55 19.75 8.55 19.85 8.55 19.9 8.6 19.95 8.6 20.0 8.6 20.05 8.6 20.1 8.65 20.2 8.65 20.25 8.65 20.3 8.7 20.35 8.7 20.4 8.7 20.45 8.75 20.5 8.75 20.55 8.8 20.6 8.8 20.65 8.85 20.7 8.85 20.75 8.9 20.8 8.9 20.85 8.95 20.9 9.0 20.95 9.05 21.0 9.05 21.05 9.1 21.1 9.15 21.15 9.2 21.2 9.25 21.2 9.3 21.25 9.35 21.3 9.4 21.35 9.5 21.35 9.55 21.4 9.6 21.45 9.65 21.5 9.7 21.5 9.8 21.55 9.85 21.55 9.95 21.6 10.0 21.6 10.05 21.65 10.15 21.65 10.2 21.65 10.3 21.7 10.35 21.7 10.45 21.7 10.5 21.75 10.6 21.75 10.65 21.75 10.75 21.75 10.8 21.75 10.9 21.75 11.0 21.75 11.1 21.75 11.15 21.75 11.25 21.75 11.3 21.75 11.4 21.7 11.45 21.7 11.55 21.7 11.6 21.65 11.7 21.65 11.75 21.65 11.8 21.6 11.9 21.6 11.95 21.55 12.05 21.55 12.1 21.5 12.15 21.45 12.2 21.45 12.3 21.4 12.35 21.35 12.4 21.35 12.45 21.3 12.55 21.25 12.6 21.2 12.65 21.2 12.7 21.15 12.75 21.1 12.8 21.05 12.85 21.0 12.9 20.95 12.95 20.9 12.95 20.85 13.0 20.8 13.05 20.75 13.05 20.7 13.1 20.65 13.1 20.6 13.15 20.55 13.15 20.5 13.2 20.45 13.2 20.4 13.25 20.35 13.25 20.3 13.3 20.25 13.3 20.2 13.3 20.15 13.35 20.1 13.35 20.0 13.35 19.95 13.35 19.9 13.4 19.8 13.4 19.75 13.4 19.7 13.4 19.6 13.4 19.5 13.45 19.45 13.45 19.35 13.45 19.25 13.45 19.15 13.45 19.05 13.45 18.9 13.45 18.8 13.45 18.7 13.45 18.55 13.45 L18.25 13.45 17.7 13.45 17.7 17.5 16.7 17.5 16.7 8.5 16.7 8.5 M25.7 9.3 Q25.6 9.3 25.45 9.3 25.35 9.3 25.25 9.35 25.15 9.4 25.05 9.45 24.95 9.45 24.85 9.55 24.75 9.6 24.7 9.65 24.6 9.75 24.5 9.85 24.45 9.95 24.35 10.05 24.3 10.15 24.2 10.3 24.15 10.4 24.1 10.55 24.05 10.7 24.0 10.85 23.95 11.0 23.9 11.15 23.85 11.3 23.8 11.45 23.8 11.65 23.75 11.85 23.75 12.0 23.7 12.2 23.7 12.4 23.7 12.6 23.7 12.85 23.7 13.05 23.7 13.3 23.7 13.5 23.7 13.7 23.75 13.9 23.75 14.1 23.75 14.3 23.8 14.5 23.8 14.65 23.85 14.85 23.9 15.0 23.95 15.15 24.0 15.3 24.05 15.45 24.1 15.6 24.15 15.75 24.2 15.85 24.25 16.0 24.35 16.1 24.4 16.2 24.5 16.3 24.6 16.4 24.65 16.45 24.75 16.55 24.85 16.6 24.95 16.65 25.05 16.7 25.15 16.75 25.25 16.8 25.35 16.85 25.45 16.85 25.6 16.85 25.7 16.85 25.8 16.85 25.95 16.85 26.05 16.85 26.15 16.8 26.3 16.75 26.4 16.7 26.5 16.7 26.55 16.6 26.65 16.55 26.75 16.5 26.85 16.4 26.9 16.3 27.0 16.25 27.05 16.15 27.15 16.0 27.2 15.9 27.25 15.8 27.3 15.65 27.4 15.5 27.45 15.35 27.5 15.2 27.5 15.05 27.55 14.9 27.6 14.7 27.6 14.55 27.65 14.35 27.65 14.15 27.7 13.95 27.7 13.75 27.7 13.55 27.7 13.3 27.7 13.1 27.7 12.85 27.7 12.65 27.7 12.4 27.7 12.2 27.65 12.0 27.65 11.8 27.6 11.6 27.6 11.45 27.55 11.25 27.5 11.1 27.5 10.95 27.45 10.8 27.4 10.65 27.3 10.5 27.25 10.35 27.2 10.25 27.15 10.15 27.05 10.0 27.0 9.9 26.9 9.85 26.85 9.75 26.75 9.65 26.65 9.6 26.55 9.5 26.5 9.45 26.4 9.4 26.3 9.35 26.15 9.35 26.05 9.3 25.95 9.3 25.85 9.3 25.7 9.3 L25.7 9.3 M17.7 9.5 L17.7 12.5 18.25 12.5 Q18.45 12.5 18.6 12.5 18.75 12.5 18.9 12.45 19.05 12.45 19.15 12.45 19.3 12.45 19.4 12.4 19.55 12.4 19.65 12.35 19.75 12.35 19.8 12.3 19.9 12.3 20.0 12.25 20.05 12.2 20.1 12.15 20.15 12.1 20.2 12.05 20.25 12.0 20.3 11.95 20.35 11.9 20.4 11.85 20.45 11.8 20.45 11.7 20.5 11.65 20.55 11.55 20.55 11.5 20.55 11.4 20.6 11.35 20.6 11.25 20.6 11.15 20.6 11.05 20.6 10.95 20.6 10.85 20.6 10.75 20.55 10.65 20.55 10.55 20.55 10.45 20.5 10.4 20.45 10.3 20.45 10.25 20.4 10.15 20.35 10.1 20.3 10.05 20.25 10.0 20.2 9.9 20.15 9.85 20.1 9.85 20.05 9.8 19.95 9.75 19.9 9.7 19.8 9.7 19.7 9.65 19.6 9.6 19.5 9.6 19.4 9.55 19.3 9.55 19.15 9.55 19.05 9.5 18.9 9.5 18.75 9.5 18.6 9.5 18.45 9.5 18.25 9.5 L17.7 9.5 17.7 9.5" fill="#ffffff" fill-rule="evenodd" stroke="none"/>
  </g>
</svg>
