<?xml version="1.0" encoding="UTF-8" standalone="no"?>
<svg xmlns:ffdec="https://www.free-decompiler.com/flash" xmlns:xlink="http://www.w3.org/1999/xlink" ffdec:objectType="shape" height="26.0px" width="35.75px" xmlns="http://www.w3.org/2000/svg">
  <g transform="matrix(1.0, 0.0, 0.0, 1.0, 0.0, 0.0)">
    <path d="M4.0 3.0 Q3.9 3.0 3.8 3.0 3.7 3.05 3.6 3.1 3.5 3.1 3.45 3.15 3.35 3.2 3.3 3.3 3.2 3.35 3.15 3.45 3.1 3.5 3.1 3.6 3.05 3.7 3.0 3.8 3.0 3.9 3.0 4.0 L3.0 22.0 Q3.0 22.1 3.0 22.2 3.05 22.3 3.1 22.4 3.1 22.5 3.15 22.55 3.2 22.65 3.3 22.7 3.35 22.8 3.45 22.85 3.5 22.9 3.6 22.9 3.7 22.95 3.8 23.0 3.9 23.0 4.0 23.0 L31.75 23.0 Q31.85 23.0 31.95 23.0 32.05 22.95 32.15 22.9 32.25 22.9 32.3 22.85 32.4 22.8 32.45 22.7 32.55 22.65 32.6 22.55 32.65 22.5 32.65 22.4 32.7 22.3 32.75 22.2 32.75 22.1 32.75 22.0 L32.75 4.0 Q32.75 3.9 32.75 3.8 32.7 3.7 32.65 3.6 32.65 3.5 32.6 3.45 32.55 3.35 32.45 3.3 32.4 3.2 32.3 3.15 32.25 3.1 32.15 3.1 32.05 3.05 31.95 3.0 31.85 3.0 31.75 3.0 L4.0 3.0 4.0 3.0 M10.45 8.15 L17.05 15.35 17.05 8.5 18.05 8.5 18.05 17.85 11.5 10.75 11.5 17.5 10.45 17.5 10.45 8.15 10.45 8.15 M20.2 8.5 L22.1 8.5 Q22.2 8.5 22.35 8.5 22.45 8.5 22.55 8.5 22.65 8.5 22.75 8.5 22.85 8.5 22.95 8.55 23.05 8.55 23.15 8.55 23.2 8.55 23.3 8.55 23.35 8.55 23.45 8.6 23.5 8.6 23.55 8.6 23.6 8.6 23.65 8.65 23.75 8.65 23.8 8.65 23.85 8.7 23.9 8.7 23.95 8.7 24.0 8.75 24.05 8.75 24.1 8.8 24.15 8.8 24.2 8.85 24.25 8.85 24.3 8.9 24.35 8.9 24.35 8.95 24.4 9.0 24.45 9.05 24.5 9.05 24.55 9.1 24.6 9.15 24.65 9.2 24.7 9.25 24.75 9.3 24.8 9.35 24.85 9.4 24.85 9.5 24.9 9.55 24.95 9.6 25.0 9.65 25.0 9.7 25.05 9.8 25.1 9.85 25.1 9.95 25.15 10.0 25.15 10.05 25.2 10.15 25.2 10.2 25.2 10.3 25.25 10.35 25.25 10.45 25.25 10.5 25.25 10.6 25.25 10.65 25.3 10.75 25.3 10.8 25.3 10.9 25.3 11.0 25.3 11.1 25.3 11.15 25.3 11.25 25.3 11.3 25.25 11.4 25.25 11.45 25.25 11.55 25.25 11.6 25.2 11.7 25.2 11.75 25.15 11.8 25.15 11.9 25.15 11.95 25.1 12.05 25.05 12.1 25.05 12.15 25.0 12.2 25.0 12.3 24.95 12.35 24.9 12.4 24.9 12.45 24.85 12.55 24.8 12.6 24.75 12.65 24.7 12.7 24.65 12.75 24.6 12.8 24.6 12.85 24.55 12.9 24.5 12.95 24.45 12.95 24.35 13.0 24.3 13.05 24.25 13.05 24.25 13.1 24.2 13.1 24.15 13.15 24.1 13.15 24.05 13.2 24.0 13.2 23.95 13.25 23.9 13.25 23.85 13.3 23.8 13.3 23.75 13.3 23.7 13.35 23.6 13.35 23.55 13.35 23.5 13.35 23.45 13.4 23.35 13.4 23.3 13.4 23.2 13.4 23.15 13.4 23.05 13.45 22.95 13.45 22.9 13.45 22.8 13.45 22.7 13.45 22.55 13.45 22.45 13.45 22.35 13.45 22.25 13.45 22.1 13.45 L21.8 13.45 21.25 13.45 21.25 17.5 20.2 17.5 20.2 8.5 20.2 8.5 M21.25 9.5 L21.25 12.5 21.8 12.5 Q21.95 12.5 22.15 12.5 22.3 12.5 22.45 12.45 22.6 12.45 22.7 12.45 22.85 12.45 22.95 12.4 23.05 12.4 23.15 12.35 23.25 12.35 23.35 12.3 23.45 12.3 23.5 12.25 23.6 12.2 23.65 12.15 23.7 12.1 23.75 12.05 23.8 12.0 23.85 11.95 23.9 11.9 23.95 11.85 24.0 11.8 24.0 11.7 24.05 11.65 24.05 11.55 24.1 11.5 24.1 11.4 24.1 11.35 24.15 11.25 24.15 11.15 24.15 11.05 24.15 10.95 24.15 10.85 24.15 10.75 24.1 10.65 24.1 10.55 24.05 10.45 24.05 10.4 24.0 10.3 24.0 10.25 23.95 10.15 23.9 10.1 23.85 10.05 23.8 10.0 23.75 9.9 23.7 9.85 23.65 9.85 23.6 9.8 23.5 9.75 23.45 9.7 23.35 9.7 23.25 9.65 23.15 9.6 23.05 9.6 22.95 9.55 22.8 9.55 22.7 9.55 22.55 9.5 22.4 9.5 22.3 9.5 22.15 9.5 21.95 9.5 21.8 9.5 L21.25 9.5 21.25 9.5 M24.35 16.15 Q24.4 16.15 24.45 16.15 24.45 16.15 24.5 16.15 24.55 16.2 24.6 16.2 24.6 16.2 24.65 16.2 24.7 16.25 24.7 16.25 24.75 16.25 24.75 16.3 24.8 16.3 24.85 16.35 24.85 16.35 24.9 16.4 24.9 16.4 24.95 16.45 24.95 16.45 25.0 16.5 25.0 16.55 25.0 16.55 25.05 16.6 25.05 16.6 25.05 16.65 25.05 16.7 25.1 16.7 25.1 16.75 25.1 16.8 25.1 16.8 25.1 16.85 25.1 16.9 25.1 16.95 25.1 16.95 25.1 17.0 25.1 17.05 25.1 17.1 25.05 17.1 25.05 17.15 25.05 17.2 25.05 17.2 25.0 17.25 25.0 17.25 25.0 17.3 24.95 17.35 24.95 17.35 24.9 17.4 24.9 17.4 24.85 17.45 24.85 17.45 24.8 17.45 24.8 17.5 24.75 17.5 24.7 17.55 24.7 17.55 24.65 17.55 24.6 17.55 24.6 17.6 24.55 17.6 24.5 17.6 24.5 17.6 24.45 17.6 24.4 17.6 24.35 17.6 24.3 17.6 24.3 17.6 24.25 17.6 24.2 17.6 24.15 17.6 24.15 17.6 24.1 17.55 24.1 17.55 24.05 17.55 24.0 17.55 24.0 17.5 23.95 17.5 23.9 17.5 23.9 17.45 23.85 17.45 23.85 17.4 23.8 17.4 23.8 17.35 23.75 17.3 23.75 17.3 23.75 17.25 23.7 17.25 23.7 17.2 23.7 17.2 23.65 17.15 23.65 17.1 23.65 17.1 23.65 17.05 23.65 17.0 23.65 16.95 23.65 16.95 23.65 16.9 23.65 16.85 23.65 16.85 23.65 16.8 23.65 16.75 23.65 16.7 23.65 16.7 23.65 16.65 23.7 16.6 23.7 16.6 23.7 16.55 23.75 16.5 23.75 16.5 23.75 16.45 23.8 16.45 23.8 16.4 23.85 16.4 23.9 16.35 23.9 16.35 23.95 16.3 23.95 16.3 24.0 16.25 24.0 16.25 24.05 16.25 24.1 16.2 24.1 16.2 24.15 16.2 24.2 16.2 24.2 16.2 24.25 16.15 24.3 16.15 24.3 16.15 24.35 16.15 L24.35 16.15" fill="#ffffff" fill-rule="evenodd" stroke="none"/>
  </g>
</svg>
