<?xml version="1.0" encoding="UTF-8" standalone="no"?>
<svg xmlns:ffdec="https://www.free-decompiler.com/flash" xmlns:xlink="http://www.w3.org/1999/xlink" ffdec:objectType="shape" height="26.0px" width="52.95px" xmlns="http://www.w3.org/2000/svg">
  <g transform="matrix(1.0, 0.0, 0.0, 1.0, 0.0, 0.0)">
    <path d="M4.0 3.0 Q3.9 3.0 3.8 3.0 3.7 3.05 3.6 3.1 3.5 3.1 3.45 3.15 3.35 3.2 3.3 3.3 3.2 3.35 3.15 3.45 3.1 3.5 3.1 3.6 3.05 3.7 3.0 3.8 3.0 3.9 3.0 4.0 L3.0 22.0 Q3.0 22.1 3.0 22.2 3.05 22.3 3.1 22.4 3.1 22.5 3.15 22.55 3.2 22.65 3.3 22.7 3.35 22.8 3.45 22.85 3.5 22.9 3.6 22.9 3.7 22.95 3.8 23.0 3.9 23.0 4.0 23.0 L48.95 23.0 Q49.05 23.0 49.15 23.0 49.25 22.95 49.35 22.9 49.45 22.9 49.5 22.85 49.6 22.8 49.65 22.7 49.7 22.65 49.8 22.55 49.85 22.5 49.85 22.4 49.9 22.3 49.95 22.2 49.95 22.1 49.95 22.0 L49.95 4.0 Q49.95 3.9 49.95 3.8 49.9 3.7 49.85 3.6 49.85 3.5 49.8 3.45 49.7 3.35 49.65 3.3 49.6 3.2 49.5 3.15 49.45 3.1 49.35 3.1 49.25 3.05 49.15 3.0 49.05 3.0 48.95 3.0 L4.0 3.0 4.0 3.0 M5.1 8.15 L11.7 15.35 11.7 8.5 12.7 8.5 12.7 17.85 6.1 10.75 6.1 17.5 5.1 17.5 5.1 8.15 5.1 8.15 M14.85 8.5 L16.75 8.5 Q16.85 8.5 17.0 8.5 17.1 8.5 17.2 8.5 17.3 8.5 17.4 8.5 17.5 8.5 17.6 8.55 17.7 8.55 17.75 8.55 17.85 8.55 17.95 8.55 18.0 8.55 18.05 8.6 18.15 8.6 18.2 8.6 18.25 8.6 18.3 8.65 18.35 8.65 18.4 8.65 18.5 8.7 18.55 8.7 18.6 8.7 18.65 8.75 18.7 8.75 18.75 8.8 18.8 8.8 18.85 8.85 18.85 8.85 18.9 8.9 18.95 8.9 19.0 8.95 19.05 9.0 19.1 9.05 19.15 9.05 19.2 9.1 19.25 9.15 19.3 9.2 19.35 9.25 19.4 9.3 19.45 9.35 19.45 9.4 19.5 9.5 19.55 9.55 19.6 9.6 19.6 9.65 19.65 9.7 19.7 9.8 19.75 9.85 19.75 9.95 19.75 10.0 19.8 10.05 19.8 10.15 19.85 10.2 19.85 10.3 19.85 10.35 19.9 10.45 19.9 10.5 19.9 10.6 19.9 10.65 19.9 10.75 19.9 10.8 19.9 10.9 19.9 11.0 19.9 11.1 19.9 11.15 19.9 11.25 19.9 11.3 19.9 11.4 19.9 11.45 19.85 11.55 19.85 11.6 19.85 11.7 19.8 11.75 19.8 11.8 19.8 11.9 19.75 11.95 19.75 12.05 19.7 12.1 19.7 12.15 19.65 12.2 19.65 12.3 19.6 12.35 19.55 12.4 19.5 12.45 19.5 12.55 19.45 12.6 19.4 12.65 19.35 12.7 19.3 12.75 19.25 12.8 19.2 12.85 19.15 12.9 19.1 12.95 19.05 12.95 19.0 13.0 18.95 13.05 18.9 13.05 18.85 13.1 18.8 13.1 18.8 13.15 18.75 13.15 18.7 13.2 18.65 13.2 18.6 13.25 18.55 13.25 18.45 13.3 18.4 13.3 18.35 13.3 18.3 13.35 18.25 13.35 18.2 13.35 18.15 13.35 18.05 13.4 18.0 13.4 17.95 13.4 17.85 13.4 17.75 13.4 17.7 13.45 17.6 13.45 17.5 13.45 17.4 13.45 17.3 13.45 17.2 13.45 17.1 13.45 17.0 13.45 16.85 13.45 16.75 13.45 L16.45 13.45 15.9 13.45 15.9 17.5 14.85 17.5 14.85 8.5 14.85 8.5 M21.25 8.5 L26.0 8.5 26.0 9.5 22.3 9.5 22.3 12.05 26.0 12.05 26.0 13.05 22.3 13.05 22.3 16.5 26.0 16.5 26.0 17.5 21.25 17.5 21.25 8.5 21.25 8.5 M15.9 9.5 L15.9 12.5 16.45 12.5 Q16.6 12.5 16.8 12.5 16.95 12.5 17.05 12.45 17.2 12.45 17.35 12.45 17.45 12.45 17.6 12.4 17.7 12.4 17.8 12.35 17.9 12.35 18.0 12.3 18.1 12.3 18.15 12.25 18.25 12.2 18.3 12.15 18.35 12.1 18.4 12.05 18.45 12.0 18.5 11.95 18.55 11.9 18.6 11.85 18.6 11.8 18.65 11.7 18.7 11.65 18.7 11.55 18.7 11.5 18.75 11.4 18.75 11.35 18.75 11.25 18.75 11.15 18.75 11.05 18.75 10.95 18.75 10.85 18.75 10.75 18.75 10.65 18.7 10.55 18.7 10.45 18.65 10.4 18.65 10.3 18.6 10.25 18.55 10.15 18.55 10.1 18.5 10.05 18.45 10.0 18.4 9.9 18.35 9.85 18.25 9.85 18.2 9.8 18.1 9.75 18.05 9.7 17.95 9.7 17.9 9.65 17.8 9.6 17.7 9.6 17.55 9.55 17.45 9.55 17.35 9.55 17.2 9.5 17.05 9.5 16.9 9.5 16.75 9.5 16.6 9.5 16.45 9.5 L15.9 9.5 15.9 9.5 M34.85 9.6 L35.85 9.6 35.85 11.9 36.9 11.9 36.9 12.65 35.85 12.65 35.85 17.5 34.85 17.5 34.85 12.65 33.85 12.65 33.85 11.9 34.85 11.9 34.85 9.6 34.85 9.6 M40.3 11.65 Q40.45 11.65 40.6 11.65 40.75 11.7 40.9 11.7 41.05 11.75 41.15 11.75 41.3 11.8 41.4 11.85 41.55 11.9 41.65 11.95 41.75 12.05 41.85 12.1 42.0 12.2 42.1 12.25 42.2 12.35 42.25 12.45 42.35 12.55 42.45 12.65 42.5 12.75 42.6 12.9 42.65 13.0 42.7 13.15 42.75 13.25 42.8 13.4 42.85 13.55 42.9 13.7 42.95 13.85 42.95 14.0 43.0 14.15 43.0 14.3 43.0 14.45 43.0 14.65 L43.0 14.85 38.55 14.85 38.55 14.9 Q38.55 15.0 38.55 15.15 38.55 15.25 38.6 15.35 38.6 15.45 38.6 15.55 38.65 15.65 38.65 15.75 38.7 15.85 38.75 15.9 38.8 16.0 38.85 16.1 38.9 16.15 38.95 16.25 39.0 16.3 39.05 16.4 39.1 16.45 39.2 16.5 39.25 16.6 39.35 16.65 39.4 16.7 39.5 16.7 39.55 16.75 39.65 16.8 39.75 16.85 39.85 16.85 39.9 16.9 40.0 16.9 40.1 16.9 40.2 16.95 40.3 16.95 40.4 16.95 40.45 16.95 40.55 16.95 40.6 16.95 40.7 16.9 40.75 16.9 40.8 16.9 40.9 16.9 40.95 16.85 41.0 16.85 41.05 16.8 41.15 16.8 41.2 16.75 41.25 16.75 41.3 16.7 41.35 16.65 41.45 16.65 41.5 16.6 41.55 16.55 41.6 16.5 41.65 16.45 41.7 16.4 41.75 16.35 41.8 16.3 41.85 16.25 41.9 16.2 41.95 16.15 42.0 16.05 42.05 16.0 42.1 15.95 42.15 15.85 42.2 15.8 42.25 15.7 L42.95 16.2 Q42.9 16.3 42.85 16.4 42.8 16.5 42.75 16.55 42.65 16.65 42.6 16.7 42.55 16.8 42.5 16.85 42.4 16.95 42.35 17.0 42.25 17.05 42.2 17.15 42.1 17.2 42.05 17.25 41.95 17.3 41.9 17.35 41.8 17.4 41.75 17.45 41.65 17.5 41.55 17.5 41.45 17.55 41.35 17.6 41.25 17.6 41.15 17.65 41.1 17.65 41.0 17.7 40.9 17.7 40.8 17.7 40.65 17.75 40.55 17.75 40.45 17.75 40.35 17.75 40.2 17.75 40.05 17.75 39.9 17.7 39.75 17.7 39.6 17.65 39.45 17.6 39.3 17.6 39.2 17.55 39.05 17.5 38.95 17.4 38.8 17.35 38.7 17.25 38.6 17.2 38.5 17.1 38.4 17.0 38.3 16.9 38.2 16.8 38.1 16.7 38.0 16.55 37.95 16.45 37.85 16.3 37.8 16.2 37.75 16.05 37.7 15.9 37.65 15.75 37.6 15.6 37.55 15.5 37.55 15.3 37.5 15.15 37.5 15.0 37.5 14.85 37.5 14.65 37.5 14.5 37.5 14.35 37.5 14.2 37.55 14.05 37.55 13.9 37.6 13.75 37.65 13.6 37.7 13.45 37.75 13.35 37.8 13.2 37.85 13.05 37.95 12.95 38.0 12.85 38.1 12.7 38.15 12.6 38.25 12.5 38.35 12.4 38.45 12.3 38.55 12.2 38.7 12.15 38.8 12.05 38.9 12.0 39.05 11.9 39.15 11.85 39.3 11.8 39.45 11.8 39.55 11.75 39.7 11.7 39.85 11.7 40.0 11.65 40.15 11.65 40.3 11.65 L40.3 11.65 M30.7 11.65 Q30.8 11.65 30.95 11.65 31.05 11.7 31.15 11.7 31.3 11.7 31.4 11.75 31.5 11.75 31.6 11.8 31.7 11.85 31.75 11.9 31.85 11.9 31.95 11.95 32.05 12.0 32.1 12.1 32.2 12.15 32.25 12.2 32.3 12.25 32.4 12.35 32.45 12.4 32.5 12.5 32.55 12.55 32.6 12.65 32.65 12.75 32.65 12.85 32.7 12.9 32.75 13.0 32.75 13.1 32.8 13.25 32.8 13.35 32.8 13.45 32.8 13.55 32.8 13.65 L32.8 17.5 31.85 17.5 31.85 14.2 Q31.85 14.1 31.85 14.0 31.85 13.9 31.8 13.8 31.8 13.7 31.8 13.6 31.75 13.5 31.75 13.45 31.7 13.35 31.7 13.3 31.65 13.2 31.65 13.15 31.6 13.1 31.55 13.05 31.5 12.95 31.45 12.9 31.4 12.85 31.35 12.8 31.3 12.75 31.25 12.75 31.2 12.7 31.15 12.65 31.1 12.65 31.0 12.6 30.95 12.6 30.85 12.55 30.8 12.55 30.7 12.55 30.65 12.5 30.55 12.5 30.45 12.5 30.35 12.5 30.3 12.5 30.25 12.5 30.2 12.5 30.15 12.5 30.1 12.5 30.05 12.5 30.0 12.55 29.95 12.55 29.9 12.55 29.85 12.55 29.8 12.6 29.75 12.6 29.7 12.6 29.65 12.6 29.6 12.65 29.55 12.65 29.5 12.65 29.45 12.7 29.45 12.7 29.4 12.75 29.35 12.75 29.3 12.8 29.3 12.8 29.25 12.85 29.2 12.9 29.2 12.9 29.15 12.95 29.1 12.95 29.1 13.0 29.05 13.05 29.0 13.05 29.0 13.1 29.0 13.15 28.95 13.15 28.95 13.2 28.9 13.2 28.9 13.25 28.85 13.3 28.85 13.3 28.85 13.35 28.8 13.35 28.8 13.4 28.8 13.45 28.8 13.45 28.75 13.5 28.75 13.55 28.75 13.55 28.75 13.6 28.75 13.65 28.75 13.7 28.7 13.7 28.7 13.75 28.7 13.8 28.7 13.9 28.7 13.95 28.7 14.0 28.65 14.05 28.65 14.1 28.65 14.2 28.65 14.25 28.65 14.35 28.65 14.4 28.65 14.5 28.65 14.6 L28.65 17.5 27.7 17.5 27.7 11.9 28.65 11.9 28.65 12.75 Q28.7 12.7 28.75 12.6 28.8 12.55 28.85 12.5 28.9 12.45 28.95 12.4 29.0 12.3 29.05 12.25 29.1 12.2 29.15 12.15 29.2 12.15 29.25 12.1 29.35 12.05 29.4 12.0 29.45 11.95 29.5 11.95 29.55 11.9 29.65 11.9 29.7 11.85 29.8 11.85 29.85 11.8 29.9 11.8 30.0 11.75 30.05 11.75 30.15 11.7 30.2 11.7 30.3 11.7 30.35 11.7 30.45 11.7 30.55 11.7 30.6 11.65 30.7 11.65 L30.7 11.65 M47.2 11.7 Q47.25 11.7 47.3 11.7 47.35 11.7 47.35 11.7 47.4 11.7 47.45 11.7 47.5 11.7 47.55 11.7 47.6 11.7 47.7 11.75 47.8 11.75 47.85 11.8 L47.55 12.65 Q47.5 12.65 47.4 12.6 47.3 12.6 47.2 12.6 47.15 12.6 47.1 12.55 47.1 12.55 47.05 12.55 47.0 12.55 46.95 12.55 46.85 12.55 46.75 12.55 46.65 12.55 46.6 12.6 46.5 12.6 46.4 12.65 46.35 12.65 46.25 12.7 46.2 12.7 46.15 12.75 46.05 12.8 46.0 12.85 45.95 12.9 45.9 13.0 45.85 13.05 45.8 13.1 45.75 13.15 45.7 13.25 45.65 13.35 45.65 13.4 45.6 13.5 45.55 13.6 45.55 13.7 45.5 13.8 45.5 13.9 45.45 14.0 45.45 14.1 45.45 14.25 45.45 14.35 45.4 14.5 45.4 14.6 45.4 14.75 L45.4 17.5 44.45 17.5 44.45 11.9 45.3 11.9 45.3 13.05 Q45.35 12.95 45.4 12.85 45.45 12.8 45.5 12.7 45.55 12.65 45.6 12.55 45.65 12.5 45.7 12.4 45.75 12.35 45.8 12.3 45.85 12.25 45.95 12.2 46.0 12.15 46.05 12.1 46.1 12.05 46.15 12.0 46.2 11.95 46.25 11.95 46.3 11.9 46.35 11.85 46.45 11.85 46.5 11.8 46.55 11.8 46.65 11.75 46.7 11.75 46.75 11.75 46.85 11.7 46.9 11.7 47.0 11.7 47.05 11.7 47.15 11.7 47.2 11.7 L47.2 11.7 M40.25 12.5 Q40.15 12.5 40.1 12.5 40.0 12.5 39.9 12.55 39.85 12.55 39.75 12.55 39.7 12.6 39.6 12.6 39.55 12.65 39.45 12.65 39.4 12.7 39.35 12.75 39.25 12.8 39.2 12.85 39.15 12.85 39.1 12.95 39.05 13.0 39.0 13.05 38.95 13.1 38.9 13.15 38.85 13.2 38.8 13.3 38.75 13.35 38.7 13.4 38.7 13.5 38.65 13.55 38.65 13.65 38.6 13.7 38.6 13.8 38.55 13.9 38.55 13.95 38.55 14.05 L41.95 14.05 Q41.95 13.95 41.95 13.85 41.95 13.8 41.9 13.7 41.9 13.6 41.85 13.55 41.85 13.45 41.8 13.4 41.8 13.3 41.75 13.25 41.7 13.2 41.65 13.15 41.6 13.05 41.55 13.0 41.5 12.95 41.45 12.9 41.4 12.85 41.35 12.8 41.3 12.75 41.2 12.75 41.15 12.7 41.1 12.65 41.0 12.65 40.95 12.6 40.85 12.6 40.8 12.55 40.7 12.55 40.6 12.55 40.55 12.5 40.45 12.5 40.35 12.5 40.25 12.5 L40.25 12.5" fill="#ffffff" fill-rule="evenodd" stroke="none"/>
  </g>
</svg>
