<?xml version="1.0" encoding="UTF-8" standalone="no"?>
<svg xmlns:ffdec="https://www.free-decompiler.com/flash" xmlns:xlink="http://www.w3.org/1999/xlink" ffdec:objectType="shape" height="26.0px" width="35.75px" xmlns="http://www.w3.org/2000/svg">
  <g transform="matrix(1.0, 0.0, 0.0, 1.0, 0.0, 0.0)">
    <path d="M4.0 3.0 Q3.9 3.0 3.8 3.0 3.7 3.05 3.6 3.1 3.5 3.1 3.45 3.15 3.35 3.2 3.3 3.3 3.2 3.35 3.15 3.45 3.1 3.5 3.1 3.6 3.05 3.7 3.0 3.8 3.0 3.9 3.0 4.0 L3.0 22.0 Q3.0 22.1 3.0 22.2 3.05 22.3 3.1 22.4 3.1 22.5 3.15 22.55 3.2 22.65 3.3 22.7 3.35 22.8 3.45 22.85 3.5 22.9 3.6 22.9 3.7 22.95 3.8 23.0 3.9 23.0 4.0 23.0 L31.75 23.0 Q31.85 23.0 31.95 23.0 32.05 22.95 32.15 22.9 32.25 22.9 32.3 22.85 32.4 22.8 32.45 22.7 32.55 22.65 32.6 22.55 32.65 22.5 32.65 22.4 32.7 22.3 32.75 22.2 32.75 22.1 32.75 22.0 L32.75 4.0 Q32.75 3.9 32.75 3.8 32.7 3.7 32.65 3.6 32.65 3.5 32.6 3.45 32.55 3.35 32.45 3.3 32.4 3.2 32.3 3.15 32.25 3.1 32.15 3.1 32.05 3.05 31.95 3.0 31.85 3.0 31.75 3.0 L4.0 3.0 4.0 3.0 M22.55 7.95 L23.55 7.95 23.55 17.5 22.55 17.5 22.55 7.95 22.55 7.95 M17.6 8.15 L21.7 17.5 20.55 17.5 19.35 14.75 15.85 14.75 14.7 17.5 13.85 17.5 12.5 17.5 9.2 13.2 9.05 13.2 9.05 17.5 8.0 17.5 8.0 8.5 10.15 8.5 Q10.25 8.5 10.35 8.5 10.45 8.5 10.55 8.5 10.65 8.5 10.75 8.5 10.85 8.5 10.9 8.55 11.0 8.55 11.05 8.55 11.15 8.55 11.2 8.55 11.3 8.55 11.35 8.6 11.4 8.6 11.45 8.6 11.5 8.6 11.55 8.65 11.6 8.65 11.65 8.65 11.7 8.7 11.75 8.7 11.8 8.7 11.85 8.75 11.9 8.75 11.95 8.8 12.0 8.8 12.05 8.85 12.05 8.85 12.1 8.9 12.15 8.9 12.2 8.95 12.25 9.0 12.3 9.05 12.35 9.05 12.4 9.1 12.45 9.15 12.45 9.2 12.5 9.25 12.55 9.3 12.6 9.35 12.65 9.4 12.65 9.5 12.7 9.55 12.75 9.6 12.75 9.65 12.8 9.75 12.8 9.8 12.85 9.85 12.85 9.95 12.9 10.0 12.9 10.05 12.95 10.15 12.95 10.2 12.95 10.25 13.0 10.35 13.0 10.4 13.0 10.5 13.0 10.55 13.0 10.65 13.05 10.7 13.05 10.8 13.05 10.85 13.05 10.95 13.05 11.1 13.05 11.2 13.0 11.35 13.0 11.45 13.0 11.6 12.95 11.7 12.9 11.8 12.9 11.95 12.85 12.05 12.8 12.15 12.75 12.25 12.7 12.3 12.65 12.4 12.55 12.5 12.5 12.55 12.4 12.65 12.35 12.7 12.25 12.8 12.15 12.85 12.05 12.9 11.95 12.95 11.85 13.0 11.75 13.05 11.65 13.05 11.55 13.1 11.4 13.15 11.3 13.15 11.15 13.15 11.05 13.2 10.9 13.2 10.75 13.2 10.6 13.2 L10.4 13.2 13.65 17.2 17.6 8.15 17.6 8.15 M9.05 9.4 L9.05 12.4 9.9 12.4 Q10.05 12.4 10.2 12.4 10.35 12.4 10.45 12.4 10.6 12.4 10.7 12.35 10.8 12.35 10.95 12.35 11.05 12.3 11.1 12.3 11.2 12.25 11.3 12.25 11.35 12.2 11.45 12.15 11.5 12.15 11.55 12.1 11.6 12.05 11.65 12.0 11.7 11.95 11.75 11.9 11.8 11.85 11.8 11.8 11.85 11.7 11.85 11.65 11.9 11.6 11.9 11.5 11.95 11.4 11.95 11.35 11.95 11.25 11.95 11.15 12.0 11.05 12.0 10.95 12.0 10.85 12.0 10.75 12.0 10.65 11.95 10.55 11.95 10.45 11.9 10.4 11.9 10.3 11.85 10.25 11.85 10.15 11.8 10.1 11.8 10.0 11.75 9.95 11.7 9.9 11.65 9.85 11.6 9.8 11.55 9.75 11.5 9.7 11.45 9.65 11.35 9.65 11.3 9.6 11.2 9.55 11.1 9.55 11.0 9.5 10.9 9.5 10.8 9.45 10.7 9.45 10.55 9.45 10.45 9.45 10.3 9.4 10.15 9.4 10.05 9.4 9.9 9.4 L9.05 9.4 9.05 9.4 M25.7 9.6 L26.7 9.6 26.7 11.9 27.75 11.9 27.75 12.65 26.7 12.65 26.7 17.5 25.7 17.5 25.7 12.65 24.7 12.65 24.7 11.9 25.7 11.9 25.7 9.6 25.7 9.6 M17.6 10.5 L16.15 13.8 19.05 13.8 17.6 10.5 17.6 10.5" fill="#ffffff" fill-rule="evenodd" stroke="none"/>
  </g>
</svg>
