<?xml version="1.0" encoding="UTF-8" standalone="no"?>
<svg xmlns:ffdec="https://www.free-decompiler.com/flash" xmlns:xlink="http://www.w3.org/1999/xlink" ffdec:objectType="shape" height="26.0px" width="35.75px" xmlns="http://www.w3.org/2000/svg">
  <g transform="matrix(1.0, 0.0, 0.0, 1.0, 0.0, 0.0)">
    <path d="M4.0 3.0 Q3.9 3.0 3.8 3.0 3.7 3.05 3.6 3.1 3.5 3.1 3.45 3.15 3.35 3.2 3.3 3.3 3.2 3.35 3.15 3.45 3.1 3.5 3.1 3.6 3.05 3.7 3.0 3.8 3.0 3.9 3.0 4.0 L3.0 22.0 Q3.0 22.1 3.0 22.2 3.05 22.3 3.1 22.4 3.1 22.5 3.15 22.55 3.2 22.65 3.3 22.7 3.35 22.8 3.45 22.85 3.5 22.9 3.6 22.9 3.7 22.95 3.8 23.0 3.9 23.0 4.0 23.0 L31.75 23.0 Q31.85 23.0 31.95 23.0 32.05 22.95 32.15 22.9 32.25 22.9 32.3 22.85 32.4 22.8 32.45 22.7 32.55 22.65 32.6 22.55 32.65 22.5 32.65 22.4 32.7 22.3 32.75 22.2 32.75 22.1 32.75 22.0 L32.75 4.0 Q32.75 3.9 32.75 3.8 32.7 3.7 32.65 3.6 32.65 3.5 32.6 3.45 32.55 3.35 32.45 3.3 32.4 3.2 32.3 3.15 32.25 3.1 32.15 3.1 32.05 3.05 31.95 3.0 31.85 3.0 31.75 3.0 L4.0 3.0 4.0 3.0 M21.7 8.3 Q21.8 8.3 21.9 8.3 22.0 8.3 22.1 8.3 22.2 8.3 22.25 8.35 22.35 8.35 22.45 8.35 22.55 8.4 22.6 8.4 22.7 8.45 22.8 8.5 22.85 8.5 22.95 8.55 23.0 8.6 23.1 8.65 23.15 8.7 23.25 8.75 23.3 8.8 23.35 8.85 23.45 8.9 23.5 8.95 23.55 9.0 23.6 9.05 23.7 9.1 23.75 9.2 23.8 9.25 23.85 9.35 23.9 9.4 23.95 9.5 23.95 9.55 24.0 9.65 L23.15 10.2 Q23.1 10.15 23.05 10.1 23.05 10.0 23.0 9.95 22.95 9.9 22.9 9.85 22.85 9.8 22.8 9.75 22.75 9.7 22.75 9.65 22.7 9.6 22.65 9.6 22.6 9.55 22.55 9.5 22.5 9.45 22.45 9.45 22.4 9.4 22.35 9.4 22.3 9.35 22.25 9.35 22.2 9.3 22.15 9.3 22.1 9.25 22.05 9.25 22.0 9.25 21.95 9.2 21.9 9.2 21.85 9.2 21.8 9.2 21.7 9.2 21.65 9.2 21.6 9.2 21.55 9.2 21.45 9.2 21.4 9.2 21.3 9.2 21.25 9.2 21.2 9.25 21.1 9.25 21.05 9.25 21.0 9.3 20.95 9.3 20.9 9.35 20.8 9.4 20.75 9.4 20.7 9.45 20.65 9.5 20.6 9.55 20.55 9.6 20.5 9.65 20.5 9.7 20.45 9.75 20.4 9.8 20.4 9.85 20.35 9.9 20.35 9.95 20.3 10.0 20.3 10.1 20.25 10.15 20.25 10.2 20.25 10.3 20.25 10.35 20.25 10.4 20.25 10.5 20.25 10.55 20.25 10.6 20.25 10.65 20.25 10.7 20.25 10.8 20.3 10.85 20.3 10.9 20.3 10.95 20.35 11.0 20.35 11.05 20.35 11.1 20.4 11.15 20.45 11.2 20.45 11.25 20.5 11.25 20.55 11.3 20.6 11.35 20.6 11.4 20.65 11.45 20.7 11.5 20.75 11.5 20.8 11.55 20.85 11.6 20.9 11.65 20.95 11.7 21.05 11.7 21.1 11.75 21.15 11.8 21.2 11.85 21.3 11.85 21.35 11.9 21.45 11.95 L22.75 12.5 Q22.85 12.55 22.95 12.6 23.05 12.65 23.15 12.7 23.25 12.75 23.35 12.8 23.4 12.9 23.5 12.95 23.6 13.0 23.65 13.05 23.75 13.15 23.8 13.2 23.85 13.25 23.95 13.35 24.0 13.4 24.05 13.5 24.1 13.6 24.15 13.65 24.2 13.75 24.25 13.8 24.3 13.9 24.35 14.0 24.35 14.1 24.4 14.2 24.4 14.25 24.45 14.35 24.45 14.45 24.45 14.55 24.5 14.65 24.5 14.75 24.5 14.85 24.5 14.95 24.5 15.1 24.5 15.25 24.5 15.4 24.45 15.55 24.45 15.7 24.4 15.85 24.35 15.95 24.3 16.1 24.25 16.2 24.2 16.35 24.15 16.45 24.05 16.55 24.0 16.65 23.9 16.75 23.8 16.9 23.7 16.95 23.6 17.05 23.5 17.15 23.4 17.2 23.3 17.3 23.15 17.35 23.05 17.45 22.9 17.5 22.8 17.55 22.65 17.6 22.5 17.6 22.4 17.65 22.25 17.7 22.1 17.7 21.95 17.7 21.8 17.75 21.6 17.75 21.45 17.75 21.35 17.75 21.2 17.7 21.1 17.7 21.0 17.7 20.85 17.65 20.75 17.65 20.65 17.6 20.55 17.55 20.4 17.5 20.3 17.45 20.2 17.4 20.1 17.35 20.0 17.3 19.95 17.25 19.85 17.2 19.75 17.15 19.65 17.05 19.6 16.95 19.5 16.9 19.45 16.8 19.35 16.7 19.3 16.6 19.25 16.55 19.15 16.45 19.1 16.3 19.05 16.2 19.0 16.1 18.95 16.0 18.95 15.9 18.9 15.75 18.85 15.65 L19.85 15.15 Q19.85 15.25 19.9 15.35 19.9 15.45 19.95 15.55 20.0 15.65 20.0 15.7 20.05 15.8 20.1 15.9 20.15 15.95 20.2 16.05 20.25 16.1 20.25 16.15 20.3 16.25 20.35 16.3 20.45 16.35 20.5 16.4 20.55 16.45 20.6 16.5 20.65 16.55 20.75 16.6 20.8 16.6 20.85 16.65 20.95 16.7 21.0 16.7 21.05 16.75 21.15 16.75 21.2 16.8 21.3 16.8 21.35 16.8 21.45 16.8 21.55 16.8 21.6 16.8 21.7 16.8 21.8 16.8 21.9 16.8 22.0 16.8 22.1 16.75 22.2 16.75 22.25 16.75 22.35 16.7 22.45 16.65 22.5 16.65 22.6 16.6 22.65 16.55 22.75 16.5 22.8 16.45 22.85 16.4 22.9 16.35 22.95 16.3 23.0 16.25 23.1 16.15 23.15 16.1 23.2 16.05 23.2 15.95 23.25 15.9 23.3 15.8 23.3 15.75 23.35 15.65 23.35 15.6 23.4 15.5 23.4 15.4 23.4 15.35 23.4 15.25 23.4 15.15 23.4 15.05 23.4 15.0 23.4 14.95 23.4 14.85 23.4 14.8 23.35 14.7 23.35 14.65 23.35 14.6 23.3 14.5 23.3 14.45 23.25 14.4 23.2 14.35 23.2 14.25 23.15 14.2 23.1 14.15 23.05 14.1 23.0 14.05 22.95 14.0 22.9 13.95 22.85 13.9 22.8 13.85 22.75 13.8 22.7 13.75 22.65 13.7 22.55 13.65 22.5 13.6 22.45 13.55 22.35 13.5 22.3 13.45 22.2 13.4 22.1 13.4 22.05 13.35 L20.95 12.9 Q20.85 12.85 20.75 12.8 20.6 12.75 20.5 12.7 20.4 12.65 20.35 12.55 20.25 12.5 20.15 12.45 20.05 12.4 20.0 12.35 19.9 12.25 19.85 12.2 19.75 12.15 19.7 12.05 19.65 12.0 19.6 11.9 19.55 11.85 19.5 11.75 19.45 11.7 19.4 11.6 19.35 11.5 19.35 11.45 19.3 11.35 19.25 11.25 19.25 11.15 19.2 11.1 19.2 11.0 19.2 10.9 19.15 10.8 19.15 10.7 19.15 10.6 19.15 10.5 19.15 10.4 19.15 10.25 19.15 10.15 19.2 10.05 19.2 9.95 19.25 9.85 19.3 9.7 19.35 9.6 19.4 9.5 19.45 9.45 19.5 9.35 19.55 9.25 19.6 9.15 19.7 9.05 19.8 9.0 19.85 8.9 19.95 8.8 20.05 8.75 20.15 8.7 20.25 8.65 20.35 8.6 20.45 8.55 20.55 8.5 20.7 8.45 20.8 8.4 20.9 8.35 21.05 8.35 21.15 8.3 21.3 8.3 21.4 8.3 21.55 8.3 21.7 8.3 L21.7 8.3 M5.6 8.5 L7.5 8.5 Q7.6 8.5 7.75 8.5 7.85 8.5 7.95 8.5 8.05 8.5 8.15 8.5 8.25 8.5 8.35 8.55 8.45 8.55 8.55 8.55 8.6 8.55 8.7 8.55 8.75 8.55 8.8 8.6 8.9 8.6 8.95 8.6 9.0 8.6 9.05 8.65 9.1 8.65 9.2 8.65 9.25 8.7 9.3 8.7 9.35 8.7 9.4 8.75 9.45 8.75 9.5 8.8 9.55 8.8 9.6 8.85 9.65 8.85 9.65 8.9 9.7 8.9 9.75 8.95 9.8 9.0 9.85 9.05 9.9 9.05 9.95 9.1 10.0 9.15 10.05 9.2 10.1 9.25 10.15 9.3 10.2 9.35 10.2 9.4 10.25 9.5 10.3 9.55 10.35 9.6 10.35 9.65 10.4 9.7 10.45 9.8 10.5 9.85 10.5 9.95 10.55 10.0 10.55 10.05 10.55 10.15 10.6 10.2 10.6 10.3 10.6 10.35 10.65 10.45 10.65 10.5 10.65 10.6 10.65 10.65 10.65 10.75 10.65 10.8 10.7 10.9 10.7 11.0 10.7 11.1 10.7 11.15 10.7 11.25 10.65 11.3 10.65 11.4 10.65 11.45 10.65 11.55 10.6 11.6 10.6 11.7 10.6 11.75 10.55 11.8 10.55 11.9 10.5 11.95 10.5 12.05 10.45 12.1 10.45 12.15 10.4 12.2 10.4 12.3 10.35 12.35 10.3 12.4 10.25 12.45 10.25 12.55 10.2 12.6 10.15 12.65 10.1 12.7 10.05 12.75 10.0 12.8 9.95 12.85 9.9 12.9 9.85 12.95 9.8 12.95 9.75 13.0 9.7 13.05 9.65 13.05 9.6 13.1 9.6 13.1 9.55 13.15 9.5 13.15 9.45 13.2 9.4 13.2 9.35 13.25 9.3 13.25 9.25 13.3 9.15 13.3 9.1 13.3 9.05 13.35 9.0 13.35 8.95 13.35 8.9 13.35 8.85 13.4 8.75 13.4 8.7 13.4 8.6 13.4 8.55 13.4 8.45 13.45 8.35 13.45 8.25 13.45 8.15 13.45 8.05 13.45 7.95 13.45 7.85 13.45 7.75 13.45 7.6 13.45 7.5 13.45 L7.2 13.45 6.65 13.45 6.65 17.5 5.6 17.5 5.6 8.5 5.6 8.5 M6.65 9.5 L6.65 12.5 7.2 12.5 Q7.35 12.5 7.55 12.5 7.7 12.5 7.85 12.45 7.95 12.45 8.1 12.45 8.25 12.45 8.35 12.4 8.45 12.4 8.55 12.35 8.65 12.35 8.75 12.3 8.85 12.3 8.9 12.25 9.0 12.2 9.05 12.15 9.1 12.1 9.15 12.05 9.2 12.0 9.25 11.95 9.3 11.9 9.35 11.85 9.35 11.8 9.4 11.7 9.45 11.65 9.45 11.55 9.5 11.5 9.5 11.4 9.5 11.35 9.5 11.25 9.5 11.15 9.5 11.05 9.5 10.95 9.5 10.85 9.5 10.75 9.5 10.65 9.45 10.55 9.45 10.45 9.4 10.4 9.4 10.3 9.35 10.25 9.35 10.15 9.3 10.1 9.25 10.05 9.2 10.0 9.15 9.9 9.1 9.85 9.05 9.85 9.0 9.8 8.9 9.75 8.85 9.7 8.75 9.7 8.65 9.65 8.55 9.6 8.45 9.6 8.35 9.55 8.2 9.55 8.1 9.55 7.95 9.5 7.8 9.5 7.65 9.5 7.5 9.5 7.35 9.5 7.2 9.5 L6.65 9.5 6.65 9.5 M16.25 9.6 L17.25 9.6 17.25 11.9 18.25 11.9 18.25 12.65 17.25 12.65 17.25 17.5 16.25 17.5 16.25 12.65 15.2 12.65 15.2 11.9 16.25 11.9 16.25 9.6 16.25 9.6 M28.3 11.65 Q28.35 11.65 28.4 11.65 28.45 11.65 28.55 11.65 28.6 11.65 28.65 11.7 28.7 11.7 28.75 11.7 28.8 11.7 28.85 11.7 28.95 11.7 29.0 11.75 29.05 11.75 29.1 11.75 29.15 11.75 29.2 11.75 29.25 11.75 29.3 11.8 29.35 11.8 29.4 11.8 29.5 11.85 29.55 11.85 29.6 11.85 29.65 11.9 29.7 11.9 29.75 11.95 29.8 11.95 29.85 11.95 29.9 12.0 29.95 12.0 30.0 12.05 30.05 12.05 L30.05 13.1 Q30.0 13.05 29.95 13.05 29.9 13.0 29.85 13.0 29.8 12.95 29.75 12.95 29.7 12.9 29.65 12.9 29.65 12.85 29.6 12.85 29.55 12.8 29.5 12.8 29.45 12.8 29.4 12.75 29.35 12.75 29.3 12.75 29.25 12.75 29.2 12.7 29.15 12.7 29.1 12.7 29.05 12.65 29.0 12.65 28.95 12.65 28.9 12.65 28.85 12.65 28.8 12.6 28.75 12.6 28.7 12.6 28.65 12.6 28.6 12.6 28.55 12.6 28.5 12.6 28.4 12.6 28.25 12.6 28.15 12.6 28.05 12.65 27.95 12.65 27.85 12.7 27.75 12.7 27.65 12.75 27.55 12.8 27.45 12.85 27.35 12.9 27.3 12.95 27.2 13.0 27.1 13.05 27.05 13.1 26.95 13.2 26.9 13.25 26.8 13.35 26.75 13.45 26.7 13.5 26.65 13.6 26.6 13.7 26.55 13.8 26.55 13.9 26.5 14.0 26.5 14.1 26.45 14.2 26.45 14.3 26.4 14.4 26.4 14.55 26.4 14.65 26.4 14.75 26.4 14.85 26.4 14.95 26.4 15.1 26.45 15.2 26.45 15.3 26.5 15.4 26.5 15.45 26.55 15.55 26.55 15.65 26.6 15.75 26.65 15.85 26.7 15.9 26.75 16.0 26.85 16.05 26.9 16.15 26.95 16.2 27.05 16.3 27.1 16.35 27.2 16.4 27.25 16.45 27.35 16.5 27.45 16.55 27.5 16.6 27.6 16.65 27.7 16.7 27.8 16.7 27.9 16.75 28.0 16.75 28.1 16.8 28.2 16.8 28.3 16.8 28.4 16.8 28.45 16.8 28.5 16.8 28.55 16.8 28.6 16.8 28.7 16.8 28.75 16.8 28.8 16.8 28.85 16.75 28.9 16.75 28.95 16.75 29.0 16.75 29.05 16.7 29.1 16.7 29.15 16.7 29.2 16.65 29.25 16.65 29.3 16.65 29.35 16.6 29.4 16.6 29.45 16.55 29.55 16.55 29.6 16.5 29.65 16.5 29.7 16.45 29.75 16.4 29.8 16.4 29.85 16.35 29.9 16.3 29.95 16.3 30.05 16.25 30.1 16.2 30.15 16.15 L30.15 17.3 Q30.1 17.35 30.05 17.35 30.0 17.35 29.95 17.4 29.9 17.4 29.85 17.45 29.8 17.45 29.75 17.5 29.7 17.5 29.65 17.5 29.6 17.55 29.5 17.55 29.45 17.6 29.4 17.6 29.35 17.6 29.3 17.6 29.25 17.6 29.2 17.65 29.1 17.65 29.05 17.65 29.0 17.7 28.9 17.7 28.85 17.7 28.8 17.7 28.75 17.7 28.65 17.7 28.6 17.75 28.55 17.75 28.45 17.75 28.4 17.75 28.35 17.75 28.25 17.75 28.1 17.75 27.95 17.75 27.8 17.7 27.65 17.7 27.5 17.65 27.35 17.65 27.2 17.6 27.1 17.55 26.95 17.5 26.85 17.4 26.7 17.35 26.6 17.3 26.45 17.2 26.35 17.1 26.25 17.0 26.15 16.9 26.05 16.8 25.95 16.7 25.9 16.6 25.8 16.45 25.75 16.35 25.65 16.2 25.6 16.1 25.55 15.95 25.5 15.8 25.45 15.7 25.45 15.55 25.4 15.4 25.4 15.25 25.4 15.05 25.35 14.9 25.35 14.75 25.35 14.6 25.35 14.4 25.4 14.25 25.4 14.1 25.45 13.95 25.5 13.8 25.5 13.65 25.55 13.5 25.6 13.35 25.7 13.25 25.75 13.1 25.85 13.0 25.9 12.85 26.0 12.75 26.1 12.65 26.2 12.55 26.3 12.45 26.4 12.35 26.5 12.25 26.65 12.15 26.75 12.1 26.85 12.0 27.0 11.95 27.15 11.9 27.25 11.85 27.4 11.8 27.55 11.75 27.7 11.75 27.85 11.7 28.0 11.7 28.15 11.65 28.3 11.65 L28.3 11.65 M14.45 11.7 Q14.5 11.7 14.5 11.7 14.55 11.7 14.6 11.7 14.65 11.7 14.7 11.7 14.7 11.7 14.75 11.7 15.0 11.75 15.1 11.8 L14.75 12.65 Q14.55 12.6 14.45 12.6 14.4 12.6 14.35 12.55 14.3 12.55 14.25 12.55 14.2 12.55 14.15 12.55 14.05 12.55 13.95 12.55 13.9 12.55 13.8 12.6 13.7 12.6 13.65 12.65 13.55 12.65 13.5 12.7 13.45 12.7 13.35 12.75 13.3 12.8 13.25 12.85 13.2 12.9 13.15 13.0 13.05 13.05 13.05 13.1 13.0 13.15 12.95 13.25 12.9 13.35 12.85 13.4 12.85 13.5 12.8 13.6 12.75 13.7 12.75 13.8 12.7 13.9 12.7 14.0 12.7 14.1 12.65 14.25 12.65 14.35 12.65 14.5 12.65 14.6 12.65 14.75 L12.65 17.5 11.7 17.5 11.7 11.9 12.55 11.9 12.55 13.05 Q12.6 12.95 12.65 12.85 12.7 12.8 12.75 12.7 12.8 12.65 12.85 12.55 12.9 12.5 12.95 12.4 13.0 12.35 13.05 12.3 13.1 12.25 13.15 12.2 13.2 12.15 13.25 12.1 13.3 12.05 13.35 12.0 13.4 11.95 13.45 11.95 13.55 11.9 13.6 11.85 13.65 11.85 13.7 11.8 13.8 11.8 13.85 11.75 13.9 11.75 14.0 11.75 14.05 11.7 14.15 11.7 14.2 11.7 14.3 11.7 14.35 11.7 14.45 11.7 L14.45 11.7" fill="#ffffff" fill-rule="evenodd" stroke="none"/>
  </g>
</svg>
