<?xml version="1.0" encoding="UTF-8" standalone="no"?>
<svg xmlns:ffdec="https://www.free-decompiler.com/flash" xmlns:xlink="http://www.w3.org/1999/xlink" ffdec:objectType="shape" height="26.0px" width="26.0px" xmlns="http://www.w3.org/2000/svg">
  <g transform="matrix(1.0, 0.0, 0.0, 1.0, 0.0, 0.0)">
    <path d="M4.0 3.0 Q3.9 3.0 3.8 3.0 3.7 3.05 3.6 3.1 3.5 3.1 3.45 3.15 3.35 3.2 3.3 3.3 3.2 3.35 3.15 3.45 3.1 3.5 3.1 3.6 3.05 3.7 3.0 3.8 3.0 3.9 3.0 4.0 L3.0 22.0 Q3.0 22.1 3.0 22.2 3.05 22.3 3.1 22.4 3.1 22.5 3.15 22.55 3.2 22.65 3.3 22.7 3.35 22.8 3.45 22.85 3.5 22.9 3.6 22.9 3.7 22.95 3.8 23.0 3.9 23.0 4.0 23.0 L22.0 23.0 Q22.1 23.0 22.2 23.0 22.3 22.95 22.4 22.9 22.5 22.9 22.55 22.85 22.65 22.8 22.7 22.7 22.8 22.65 22.85 22.55 22.9 22.5 22.9 22.4 22.95 22.3 23.0 22.2 23.0 22.1 23.0 22.0 L23.0 4.0 Q23.0 3.9 23.0 3.8 22.95 3.7 22.9 3.6 22.9 3.5 22.85 3.45 22.8 3.35 22.7 3.3 22.65 3.2 22.55 3.15 22.5 3.1 22.4 3.1 22.3 3.05 22.2 3.0 22.1 3.0 22.0 3.0 L4.0 3.0 4.0 3.0 M6.4 8.15 L9.55 15.6 12.7 8.15 14.55 17.5 13.5 17.5 12.35 11.4 9.55 17.85 6.75 11.4 5.6 17.5 4.6 17.5 6.4 8.15 6.4 8.15 M17.0 8.6 L20.95 8.6 20.95 9.5 17.75 9.5 17.15 11.8 Q17.55 11.65 17.85 11.6 17.9 11.6 17.95 11.55 17.95 11.55 18.0 11.55 18.05 11.55 18.1 11.55 18.15 11.5 18.2 11.5 18.25 11.5 18.3 11.5 18.35 11.5 18.35 11.5 18.4 11.5 18.45 11.5 18.5 11.5 18.55 11.5 18.7 11.5 18.9 11.5 19.05 11.5 19.2 11.55 19.35 11.55 19.45 11.6 19.6 11.65 19.75 11.7 19.9 11.75 20.0 11.8 20.1 11.85 20.25 11.95 20.35 12.0 20.45 12.1 20.55 12.2 20.65 12.3 20.75 12.4 20.85 12.5 20.9 12.6 21.0 12.7 21.05 12.85 21.1 12.95 21.2 13.1 21.25 13.2 21.3 13.35 21.3 13.5 21.35 13.65 21.35 13.8 21.4 13.95 21.4 14.1 21.4 14.25 21.4 14.45 21.4 14.65 21.4 14.8 21.4 15.0 21.35 15.15 21.35 15.35 21.3 15.5 21.25 15.65 21.2 15.8 21.15 15.95 21.05 16.1 21.0 16.25 20.9 16.35 20.85 16.5 20.75 16.6 20.65 16.75 20.55 16.85 20.45 16.95 20.3 17.05 20.2 17.15 20.05 17.25 19.9 17.3 19.8 17.4 19.65 17.45 19.5 17.5 19.35 17.55 19.15 17.6 19.0 17.65 18.85 17.7 18.65 17.7 18.5 17.75 18.3 17.75 18.1 17.75 18.0 17.75 17.9 17.75 17.75 17.75 17.65 17.7 17.55 17.7 17.45 17.7 17.35 17.7 17.25 17.65 17.15 17.65 17.05 17.6 16.95 17.6 16.85 17.55 16.8 17.55 16.7 17.5 16.6 17.45 16.5 17.4 16.4 17.35 16.35 17.3 16.25 17.3 16.2 17.25 16.1 17.2 16.05 17.1 16.0 17.05 15.9 17.0 15.85 16.95 15.8 16.85 15.7 16.8 15.65 16.75 15.6 16.65 15.5 16.6 15.45 16.5 15.4 16.4 L16.15 15.55 Q16.2 15.65 16.25 15.7 16.25 15.75 16.3 15.85 16.35 15.9 16.4 15.95 16.45 16.05 16.5 16.1 16.55 16.15 16.6 16.2 16.65 16.25 16.75 16.3 16.8 16.35 16.85 16.4 16.9 16.45 16.95 16.5 17.0 16.55 17.1 16.55 17.15 16.6 17.2 16.65 17.3 16.65 17.35 16.7 17.45 16.7 17.5 16.75 17.6 16.75 17.65 16.75 17.75 16.8 17.8 16.8 17.9 16.8 18.0 16.8 18.05 16.8 18.15 16.8 18.25 16.8 18.4 16.8 18.5 16.8 18.6 16.75 18.7 16.75 18.8 16.7 18.9 16.7 19.0 16.65 19.1 16.6 19.2 16.55 19.3 16.5 19.4 16.45 19.45 16.4 19.55 16.35 19.65 16.25 19.7 16.2 19.75 16.1 19.85 16.05 19.9 15.95 19.95 15.85 20.0 15.75 20.05 15.65 20.1 15.55 20.15 15.45 20.2 15.35 20.2 15.25 20.25 15.15 20.25 15.0 20.25 14.9 20.3 14.8 20.3 14.65 20.3 14.55 20.3 14.4 20.3 14.3 20.3 14.2 20.25 14.05 20.25 13.95 20.2 13.85 20.2 13.75 20.15 13.65 20.1 13.55 20.05 13.45 20.0 13.35 19.95 13.3 19.9 13.2 19.8 13.1 19.75 13.05 19.7 12.95 19.6 12.9 19.55 12.8 19.45 12.75 19.35 12.7 19.25 12.65 19.15 12.6 19.05 12.55 18.95 12.5 18.85 12.45 18.75 12.45 18.65 12.4 18.55 12.4 18.4 12.4 18.3 12.35 18.15 12.35 18.05 12.35 18.0 12.35 17.9 12.35 17.85 12.35 17.8 12.35 17.7 12.35 17.65 12.4 17.6 12.4 17.55 12.4 17.45 12.4 17.4 12.45 17.35 12.45 17.25 12.45 17.2 12.45 17.15 12.5 17.1 12.5 17.05 12.55 17.0 12.55 16.9 12.6 16.85 12.6 16.8 12.65 16.75 12.65 16.7 12.65 16.6 12.7 16.55 12.75 16.5 12.75 16.45 12.8 16.4 12.8 16.35 12.85 16.3 12.9 16.25 12.95 16.2 12.95 16.15 13.0 L15.95 12.95 17.0 8.6 17.0 8.6" fill="#ffffff" fill-rule="evenodd" stroke="none"/>
  </g>
</svg>
