<?xml version="1.0" encoding="UTF-8" standalone="no"?>
<svg xmlns:ffdec="https://www.free-decompiler.com/flash" xmlns:xlink="http://www.w3.org/1999/xlink" ffdec:objectType="shape" height="26.0px" width="26.0px" xmlns="http://www.w3.org/2000/svg">
  <g transform="matrix(1.0, 0.0, 0.0, 1.0, 0.0, 0.0)">
    <path d="M23.0 11.0 Q23.0 10.9 23.0 10.8 22.95 10.7 22.9 10.6 22.9 10.5 22.85 10.45 22.8 10.35 22.7 10.3 22.65 10.2 22.55 10.15 22.5 10.1 22.4 10.1 22.3 10.05 22.2 10.0 22.1 10.0 22.0 10.0 L16.0 10.0 16.0 4.0 Q16.0 3.9 16.0 3.8 15.95 3.7 15.9 3.6 15.9 3.5 15.85 3.45 15.8 3.35 15.7 3.3 15.65 3.2 15.55 3.15 15.5 3.1 15.4 3.1 15.3 3.05 15.2 3.0 15.1 3.0 15.0 3.0 L11.0 3.0 Q10.9 3.0 10.8 3.0 10.7 3.05 10.6 3.1 10.5 3.1 10.45 3.15 10.35 3.2 10.3 3.3 10.2 3.35 10.15 3.45 10.1 3.5 10.1 3.6 10.05 3.7 10.0 3.8 10.0 3.9 10.0 4.0 L10.0 10.0 4.0 10.0 Q3.9 10.0 3.8 10.0 3.7 10.05 3.6 10.1 3.5 10.1 3.45 10.15 3.35 10.2 3.3 10.3 3.2 10.35 3.15 10.45 3.1 10.5 3.1 10.6 3.05 10.7 3.0 10.8 3.0 10.9 3.0 11.0 L3.0 15.0 Q3.0 15.1 3.0 15.2 3.05 15.3 3.1 15.4 3.1 15.5 3.15 15.55 3.2 15.65 3.3 15.7 3.35 15.8 3.45 15.85 3.5 15.9 3.6 15.9 3.7 15.95 3.8 16.0 3.9 16.0 4.0 16.0 L10.0 16.0 10.0 22.0 Q10.0 22.1 10.0 22.2 10.05 22.3 10.1 22.4 10.1 22.5 10.15 22.55 10.2 22.65 10.3 22.7 10.35 22.8 10.45 22.85 10.5 22.9 10.6 22.9 10.7 22.95 10.8 23.0 10.9 23.0 11.0 23.0 L15.0 23.0 Q15.1 23.0 15.2 23.0 15.3 22.95 15.4 22.9 15.5 22.9 15.55 22.85 15.65 22.8 15.7 22.7 15.8 22.65 15.85 22.55 15.9 22.5 15.9 22.4 15.95 22.3 16.0 22.2 16.0 22.1 16.0 22.0 L16.0 16.0 22.0 16.0 Q22.1 16.0 22.2 16.0 22.3 15.95 22.4 15.9 22.5 15.9 22.55 15.85 22.65 15.8 22.7 15.7 22.8 15.65 22.85 15.55 22.9 15.5 22.9 15.4 22.95 15.3 23.0 15.2 23.0 15.1 23.0 15.0 L23.0 11.0 M6.0 11.0 L6.0 15.0 4.0 13.0 6.0 11.0" fill="#ffffff" fill-rule="evenodd" stroke="none"/>
  </g>
</svg>
