<?xml version="1.0" encoding="UTF-8" standalone="no"?>
<svg xmlns:ffdec="https://www.free-decompiler.com/flash" xmlns:xlink="http://www.w3.org/1999/xlink" ffdec:objectType="shape" height="26.0px" width="35.75px" xmlns="http://www.w3.org/2000/svg">
  <g transform="matrix(1.0, 0.0, 0.0, 1.0, 0.0, 0.0)">
    <path d="M4.0 3.0 Q3.9 3.0 3.8 3.0 3.7 3.05 3.6 3.1 3.5 3.1 3.45 3.15 3.35 3.2 3.3 3.3 3.2 3.35 3.15 3.45 3.1 3.5 3.1 3.6 3.05 3.7 3.0 3.8 3.0 3.9 3.0 4.0 L3.0 22.0 Q3.0 22.1 3.0 22.2 3.05 22.3 3.1 22.4 3.1 22.5 3.15 22.55 3.2 22.65 3.3 22.7 3.35 22.8 3.45 22.85 3.5 22.9 3.6 22.9 3.7 22.95 3.8 23.0 3.9 23.0 4.0 23.0 L31.75 23.0 Q31.85 23.0 31.95 23.0 32.05 22.95 32.15 22.9 32.25 22.9 32.3 22.85 32.4 22.8 32.45 22.7 32.55 22.65 32.6 22.55 32.65 22.5 32.65 22.4 32.7 22.3 32.75 22.2 32.75 22.1 32.75 22.0 L32.75 4.0 Q32.75 3.9 32.75 3.8 32.7 3.7 32.65 3.6 32.65 3.5 32.6 3.45 32.55 3.35 32.45 3.3 32.4 3.2 32.3 3.15 32.25 3.1 32.15 3.1 32.05 3.05 31.95 3.0 31.85 3.0 31.75 3.0 L4.0 3.0 4.0 3.0 M25.15 7.95 L26.15 7.95 26.15 14.45 28.85 11.9 30.15 11.9 27.3 14.45 30.4 17.5 29.05 17.5 26.15 14.55 26.15 17.5 25.15 17.5 25.15 7.95 25.15 7.95 M5.35 8.5 L7.25 8.5 Q7.35 8.5 7.5 8.5 7.6 8.5 7.7 8.5 7.8 8.5 7.9 8.5 8.0 8.5 8.1 8.55 8.2 8.55 8.25 8.55 8.35 8.55 8.45 8.55 8.5 8.55 8.55 8.6 8.65 8.6 8.7 8.6 8.75 8.6 8.8 8.65 8.85 8.65 8.95 8.65 9.0 8.7 9.05 8.7 9.1 8.7 9.15 8.75 9.2 8.75 9.25 8.8 9.3 8.8 9.35 8.85 9.4 8.85 9.4 8.9 9.45 8.9 9.5 8.95 9.55 9.0 9.6 9.05 9.65 9.1 9.7 9.1 9.75 9.15 9.8 9.2 9.85 9.25 9.9 9.3 9.95 9.35 9.95 9.4 10.0 9.5 10.05 9.55 10.1 9.6 10.1 9.65 10.15 9.7 10.15 9.75 10.2 9.8 10.2 9.9 10.25 9.95 10.25 10.0 10.3 10.1 10.3 10.15 10.35 10.2 10.35 10.3 10.35 10.35 10.4 10.45 10.4 10.5 10.4 10.55 10.4 10.65 10.4 10.7 10.4 10.8 10.4 10.85 10.4 10.95 10.4 11.05 10.4 11.1 10.4 11.2 10.4 11.3 10.35 11.35 10.35 11.45 10.3 11.5 10.3 11.6 10.3 11.65 10.25 11.75 10.2 11.8 10.2 11.85 10.15 11.95 10.1 12.0 10.05 12.05 10.0 12.1 9.95 12.15 9.9 12.2 9.85 12.3 9.8 12.35 9.75 12.4 9.7 12.4 9.65 12.45 9.6 12.5 9.5 12.55 9.45 12.6 9.4 12.6 9.3 12.65 9.25 12.7 9.15 12.7 9.1 12.75 9.2 12.75 9.3 12.8 9.4 12.8 9.45 12.85 9.55 12.85 9.65 12.9 9.7 12.95 9.8 12.95 9.85 13.0 9.95 13.05 10.0 13.1 10.1 13.2 10.15 13.25 10.2 13.3 10.3 13.35 10.35 13.45 10.4 13.5 10.45 13.6 10.5 13.7 10.55 13.75 10.6 13.85 10.65 13.95 10.65 14.0 10.7 14.1 10.7 14.2 10.75 14.3 10.75 14.4 10.8 14.5 10.8 14.6 10.8 14.7 10.8 14.85 10.8 14.95 10.8 15.0 10.8 15.1 10.8 15.15 10.8 15.2 10.8 15.3 10.8 15.35 10.75 15.4 10.75 15.45 10.75 15.55 10.75 15.6 10.7 15.65 10.7 15.75 10.7 15.8 10.65 15.85 10.65 15.9 10.6 15.95 10.6 16.0 10.55 16.1 10.55 16.15 10.5 16.2 10.45 16.25 10.45 16.3 10.4 16.35 10.35 16.45 10.35 16.5 10.3 16.55 10.25 16.6 10.25 16.65 10.2 16.7 10.15 16.75 10.1 16.75 10.05 16.8 10.0 16.85 9.95 16.9 9.9 16.95 9.85 17.0 9.8 17.05 9.75 17.05 9.7 17.1 9.65 17.15 9.6 17.15 9.5 17.2 9.45 17.25 9.4 17.25 9.35 17.3 9.25 17.3 9.2 17.35 9.1 17.35 9.05 17.35 8.95 17.4 8.9 17.4 8.8 17.4 8.7 17.45 8.6 17.45 8.5 17.45 8.35 17.45 8.25 17.45 8.1 17.5 8.0 17.5 7.85 17.5 7.7 17.5 7.55 17.5 7.4 17.5 7.25 17.5 L5.35 17.5 5.35 8.5 5.35 8.5 M6.4 9.45 L6.4 12.45 7.25 12.45 Q7.4 12.45 7.5 12.45 7.65 12.45 7.75 12.4 7.9 12.4 8.0 12.4 8.1 12.4 8.2 12.35 8.3 12.35 8.4 12.3 8.5 12.3 8.55 12.25 8.65 12.2 8.7 12.2 8.8 12.15 8.85 12.1 8.9 12.05 8.95 12.0 9.0 11.95 9.05 11.9 9.1 11.85 9.15 11.8 9.15 11.75 9.2 11.65 9.25 11.6 9.25 11.5 9.25 11.45 9.3 11.35 9.3 11.25 9.3 11.2 9.3 11.1 9.3 11.0 9.3 10.9 9.3 10.8 9.3 10.7 9.3 10.6 9.25 10.5 9.25 10.4 9.25 10.35 9.2 10.25 9.2 10.2 9.15 10.1 9.1 10.05 9.05 10.0 9.05 9.9 9.0 9.85 8.95 9.8 8.9 9.8 8.85 9.75 8.75 9.7 8.7 9.65 8.65 9.65 8.55 9.6 8.45 9.55 8.35 9.55 8.25 9.5 8.15 9.5 8.05 9.5 7.9 9.45 7.8 9.45 7.65 9.45 7.55 9.45 7.4 9.45 7.25 9.45 L6.4 9.45 6.4 9.45 M14.55 11.65 Q14.65 11.65 14.75 11.65 14.8 11.65 14.9 11.7 15.0 11.7 15.05 11.7 15.15 11.75 15.2 11.75 15.3 11.75 15.35 11.8 15.45 11.8 15.5 11.85 15.6 11.9 15.65 11.9 15.7 11.95 15.8 12.0 15.85 12.05 15.9 12.1 16.0 12.1 16.05 12.15 16.1 12.2 16.15 12.25 16.2 12.35 16.25 12.4 16.3 12.45 16.35 12.5 16.4 12.55 16.45 12.65 16.5 12.7 16.55 12.8 16.6 12.85 16.6 12.95 L16.6 11.9 17.6 11.9 17.6 17.5 16.65 17.5 16.65 16.5 Q16.6 16.55 16.55 16.65 16.5 16.7 16.45 16.8 16.4 16.85 16.35 16.9 16.3 16.95 16.25 17.0 16.2 17.1 16.15 17.15 16.1 17.2 16.05 17.25 15.95 17.3 15.9 17.35 15.85 17.4 15.8 17.4 15.75 17.45 15.65 17.5 15.6 17.5 15.5 17.55 15.45 17.6 15.35 17.6 15.3 17.65 15.25 17.65 15.15 17.7 15.1 17.7 15.0 17.7 14.9 17.7 14.85 17.75 14.75 17.75 14.7 17.75 14.6 17.75 14.45 17.75 14.3 17.75 14.15 17.7 14.05 17.7 13.9 17.65 13.75 17.65 13.65 17.6 13.5 17.55 13.4 17.5 13.25 17.4 13.15 17.35 13.05 17.25 12.95 17.2 12.85 17.1 12.75 17.0 12.65 16.9 12.55 16.8 12.5 16.7 12.4 16.55 12.35 16.45 12.25 16.35 12.2 16.2 12.15 16.1 12.1 15.95 12.05 15.8 12.0 15.65 12.0 15.5 11.95 15.35 11.95 15.2 11.9 15.05 11.9 14.85 11.9 14.7 11.9 14.55 11.9 14.35 11.95 14.2 11.95 14.05 12.0 13.9 12.0 13.75 12.05 13.6 12.1 13.45 12.15 13.3 12.2 13.2 12.25 13.05 12.3 12.95 12.4 12.8 12.45 12.7 12.55 12.6 12.65 12.5 12.75 12.4 12.85 12.3 12.95 12.2 13.05 12.15 13.15 12.05 13.25 12.0 13.35 11.95 13.45 11.9 13.6 11.85 13.7 11.8 13.85 11.75 14.0 11.7 14.1 11.7 14.25 11.7 14.4 11.65 14.55 11.65 L14.55 11.65 M21.95 11.65 Q22.0 11.65 22.05 11.65 22.15 11.65 22.2 11.65 22.25 11.65 22.3 11.7 22.35 11.7 22.45 11.7 22.5 11.7 22.55 11.7 22.6 11.7 22.65 11.75 22.7 11.75 22.75 11.75 22.8 11.75 22.9 11.75 22.95 11.75 23.0 11.8 23.05 11.8 23.1 11.8 23.15 11.85 23.2 11.85 23.25 11.85 23.3 11.9 23.35 11.9 23.4 11.95 23.45 11.95 23.5 11.95 23.55 12.0 23.6 12.0 23.65 12.05 23.7 12.05 L23.7 13.1 Q23.65 13.05 23.6 13.05 23.55 13.0 23.55 13.0 23.5 12.95 23.45 12.95 23.4 12.9 23.35 12.9 23.3 12.85 23.25 12.85 23.2 12.8 23.15 12.8 23.1 12.8 23.05 12.75 23.0 12.75 22.95 12.75 22.9 12.75 22.85 12.7 22.8 12.7 22.75 12.7 22.7 12.65 22.65 12.65 22.6 12.65 22.55 12.65 22.5 12.65 22.45 12.6 22.4 12.6 22.35 12.6 22.3 12.6 22.25 12.6 22.2 12.6 22.15 12.6 22.05 12.6 21.9 12.6 21.8 12.6 21.7 12.65 21.6 12.65 21.5 12.7 21.4 12.7 21.3 12.75 21.2 12.8 21.1 12.85 21.05 12.9 20.95 12.95 20.85 13.0 20.8 13.05 20.7 13.1 20.65 13.2 20.6 13.25 20.5 13.35 20.45 13.45 20.4 13.5 20.35 13.6 20.3 13.7 20.25 13.8 20.2 13.9 20.2 14.0 20.15 14.1 20.1 14.2 20.1 14.3 20.1 14.4 20.1 14.55 20.05 14.65 20.05 14.75 20.05 14.85 20.05 14.95 20.1 15.1 20.1 15.2 20.1 15.3 20.15 15.4 20.15 15.45 20.2 15.55 20.25 15.65 20.3 15.75 20.35 15.85 20.4 15.9 20.45 16.0 20.5 16.05 20.55 16.15 20.65 16.2 20.7 16.3 20.8 16.35 20.85 16.4 20.95 16.45 21.05 16.5 21.1 16.55 21.2 16.6 21.3 16.65 21.4 16.7 21.5 16.7 21.55 16.75 21.65 16.75 21.75 16.8 21.85 16.8 22.0 16.8 22.1 16.8 22.15 16.8 22.2 16.8 22.25 16.8 22.3 16.8 22.35 16.8 22.4 16.8 22.45 16.8 22.5 16.75 22.55 16.75 22.65 16.75 22.7 16.75 22.75 16.7 22.8 16.7 22.85 16.7 22.9 16.65 22.95 16.65 23.0 16.65 23.05 16.6 23.1 16.6 23.15 16.55 23.2 16.55 23.25 16.5 23.3 16.5 23.35 16.45 23.45 16.4 23.5 16.4 23.55 16.35 23.6 16.3 23.65 16.3 23.7 16.25 23.75 16.2 23.8 16.15 L23.8 17.3 Q23.75 17.35 23.7 17.35 23.65 17.35 23.6 17.4 23.55 17.4 23.5 17.45 23.45 17.45 23.4 17.5 23.35 17.5 23.3 17.5 23.25 17.55 23.2 17.55 23.15 17.6 23.1 17.6 23.0 17.6 22.95 17.6 22.9 17.6 22.85 17.65 22.75 17.65 22.7 17.65 22.65 17.7 22.6 17.7 22.55 17.7 22.45 17.7 22.4 17.7 22.35 17.7 22.25 17.75 22.2 17.75 22.15 17.75 22.05 17.75 22.0 17.75 21.95 17.75 21.8 17.75 21.65 17.75 21.45 17.7 21.3 17.7 21.15 17.65 21.05 17.65 20.9 17.6 20.75 17.55 20.6 17.5 20.5 17.4 20.4 17.35 20.25 17.3 20.15 17.2 20.05 17.1 19.95 17.0 19.85 16.9 19.75 16.8 19.65 16.7 19.55 16.6 19.5 16.45 19.4 16.35 19.35 16.2 19.3 16.1 19.25 15.95 19.2 15.8 19.15 15.7 19.1 15.55 19.1 15.4 19.05 15.25 19.05 15.05 19.05 14.9 19.05 14.75 19.05 14.6 19.05 14.4 19.05 14.25 19.1 14.1 19.1 13.95 19.15 13.8 19.2 13.65 19.25 13.5 19.3 13.4 19.35 13.25 19.4 13.1 19.5 13.0 19.6 12.85 19.65 12.75 19.75 12.65 19.85 12.55 19.95 12.45 20.05 12.35 20.2 12.25 20.3 12.15 20.4 12.1 20.55 12.0 20.65 11.95 20.8 11.9 20.95 11.85 21.05 11.8 21.2 11.75 21.35 11.75 21.5 11.7 21.65 11.7 21.8 11.65 21.95 11.65 L21.95 11.65 M14.75 12.65 Q14.65 12.65 14.55 12.65 14.45 12.65 14.35 12.65 14.25 12.7 14.15 12.7 14.1 12.75 14.0 12.75 13.9 12.8 13.85 12.85 13.75 12.9 13.7 12.95 13.6 13.0 13.55 13.05 13.5 13.1 13.4 13.15 13.35 13.2 13.3 13.3 13.25 13.35 13.2 13.45 13.15 13.55 13.1 13.6 13.1 13.7 13.05 13.8 13.0 13.9 13.0 14.0 13.0 14.1 12.95 14.2 12.95 14.3 12.95 14.4 12.95 14.55 12.95 14.65 12.95 14.8 12.95 14.9 12.95 15.0 12.95 15.15 13.0 15.25 13.0 15.35 13.05 15.45 13.05 15.55 13.1 15.65 13.1 15.75 13.15 15.85 13.2 15.9 13.25 16.0 13.3 16.1 13.35 16.15 13.4 16.25 13.45 16.3 13.55 16.35 13.6 16.45 13.7 16.5 13.75 16.55 13.85 16.55 13.9 16.6 14.0 16.65 14.1 16.7 14.2 16.7 14.3 16.75 14.4 16.75 14.5 16.75 14.6 16.75 14.7 16.8 14.8 16.8 14.9 16.8 15.0 16.8 15.1 16.75 15.2 16.75 15.3 16.75 15.4 16.7 15.5 16.7 15.55 16.65 15.65 16.6 15.75 16.55 15.8 16.55 15.9 16.5 15.95 16.45 16.05 16.35 16.1 16.3 16.15 16.25 16.2 16.2 16.25 16.1 16.3 16.05 16.35 15.95 16.4 15.85 16.45 15.8 16.5 15.7 16.5 15.6 16.55 15.5 16.6 15.4 16.6 15.3 16.6 15.2 16.65 15.1 16.65 14.95 16.65 14.85 16.65 14.75 16.65 14.65 16.65 14.5 16.65 14.4 16.6 14.3 16.6 14.2 16.55 14.1 16.55 14.0 16.5 13.9 16.5 13.8 16.45 13.7 16.4 13.6 16.35 13.5 16.3 13.45 16.25 13.35 16.2 13.3 16.1 13.2 16.05 13.15 15.95 13.05 15.9 13.0 15.85 12.95 15.75 12.9 15.7 12.85 15.6 12.8 15.5 12.75 15.45 12.75 15.35 12.7 15.25 12.7 15.15 12.65 15.05 12.65 14.95 12.65 14.85 12.6 14.75 12.65 L14.75 12.65 M6.4 13.3 L6.4 16.55 7.25 16.55 Q7.45 16.55 7.65 16.55 7.8 16.55 8.0 16.55 8.15 16.55 8.25 16.55 8.35 16.5 8.45 16.5 8.5 16.5 8.55 16.5 8.6 16.45 8.65 16.45 8.7 16.45 8.75 16.45 8.75 16.4 8.8 16.4 8.85 16.4 8.9 16.35 8.9 16.35 8.95 16.35 9.0 16.3 9.0 16.3 9.05 16.3 9.1 16.25 9.15 16.25 9.15 16.2 9.2 16.2 9.2 16.15 9.25 16.1 9.25 16.1 9.3 16.05 9.35 16.05 9.35 16.0 9.4 15.95 9.4 15.9 9.45 15.9 9.45 15.85 9.45 15.8 9.5 15.75 9.5 15.7 9.5 15.65 9.55 15.6 9.55 15.55 9.6 15.55 9.6 15.5 9.6 15.45 9.6 15.4 9.65 15.35 9.65 15.3 9.65 15.25 9.65 15.2 9.65 15.15 9.65 15.1 9.65 15.05 9.65 15.0 9.65 14.95 9.65 14.9 9.65 14.85 9.65 14.75 9.65 14.7 9.65 14.65 9.65 14.6 9.65 14.55 9.6 14.5 9.6 14.45 9.6 14.4 9.6 14.35 9.55 14.3 9.55 14.25 9.55 14.2 9.5 14.15 9.5 14.1 9.45 14.05 9.45 14.0 9.4 13.95 9.4 13.9 9.35 13.9 9.3 13.85 9.3 13.8 9.25 13.75 9.2 13.75 9.2 13.7 9.15 13.65 9.1 13.65 9.05 13.6 9.0 13.6 9.0 13.55 8.95 13.5 8.9 13.5 8.9 13.5 8.85 13.45 8.85 13.45 8.8 13.45 8.75 13.45 8.75 13.4 8.7 13.4 8.65 13.4 8.65 13.4 8.6 13.4 8.55 13.35 8.55 13.35 8.5 13.35 8.45 13.35 8.45 13.35 8.4 13.35 8.35 13.35 8.35 13.35 8.3 13.3 8.25 13.3 8.2 13.3 8.15 13.3 8.05 13.3 8.0 13.3 7.95 13.3 7.9 13.3 7.85 13.3 7.75 13.3 7.7 13.3 7.65 13.3 7.55 13.3 L7.25 13.3 6.4 13.3 6.4 13.3" fill="#ffffff" fill-rule="evenodd" stroke="none"/>
  </g>
</svg>
