<?xml version="1.0" encoding="UTF-8" standalone="no"?>
<svg xmlns:ffdec="https://www.free-decompiler.com/flash" xmlns:xlink="http://www.w3.org/1999/xlink" ffdec:objectType="shape" height="26.0px" width="26.0px" xmlns="http://www.w3.org/2000/svg">
  <g transform="matrix(1.0, 0.0, 0.0, 1.0, 0.0, 0.0)">
    <path d="M13.0 3.5 Q12.05 3.5 11.1 3.7 10.15 3.9 9.3 4.25 8.45 4.6 7.7 5.1 6.95 5.65 6.3 6.3 5.65 6.95 5.1 7.7 4.6 8.45 4.25 9.3 3.9 10.15 3.7 11.1 3.5 12.05 3.5 13.0 3.5 13.95 3.7 14.9 3.9 15.85 4.25 16.7 4.6 17.55 5.1 18.3 5.65 19.05 6.3 19.7 6.95 20.35 7.7 20.9 8.45 21.4 9.3 21.75 10.15 22.1 11.1 22.3 12.05 22.5 13.0 22.5 13.95 22.5 14.9 22.3 15.85 22.1 16.7 21.75 17.55 21.4 18.3 20.9 19.05 20.35 19.7 19.7 20.35 19.05 20.9 18.3 21.4 17.55 21.75 16.7 22.1 15.85 22.3 14.9 22.5 13.95 22.5 13.0 22.5 12.05 22.3 11.1 22.1 10.15 21.75 9.3 21.4 8.45 20.9 7.7 20.35 6.95 19.7 6.3 19.05 5.65 18.3 5.1 17.55 4.6 16.7 4.25 15.85 3.9 14.9 3.7 13.95 3.5 13.0 3.5 L13.0 3.5 M11.0 5.5 L13.0 5.5 15.0 5.5 13.0 7.5 11.0 5.5 11.0 5.5 M15.6 8.3 Q15.7 8.3 15.8 8.3 15.9 8.3 16.0 8.3 16.05 8.3 16.15 8.35 16.25 8.35 16.35 8.35 16.4 8.4 16.5 8.4 16.6 8.45 16.65 8.5 16.75 8.5 16.85 8.55 16.9 8.6 17.0 8.65 17.05 8.7 17.15 8.75 17.2 8.8 17.25 8.85 17.35 8.9 17.4 8.95 17.45 9.0 17.5 9.05 17.55 9.1 17.6 9.2 17.7 9.25 17.75 9.35 17.8 9.4 17.8 9.5 17.85 9.55 17.9 9.65 L17.0 10.2 Q16.95 10.15 16.95 10.1 16.9 10.0 16.85 9.95 16.8 9.9 16.8 9.85 16.75 9.8 16.7 9.75 16.65 9.7 16.6 9.65 16.55 9.6 16.55 9.6 16.5 9.55 16.45 9.5 16.4 9.45 16.35 9.45 16.3 9.4 16.25 9.4 16.2 9.35 16.15 9.35 16.1 9.3 16.05 9.3 16.0 9.25 15.95 9.25 15.9 9.25 15.85 9.2 15.8 9.2 15.75 9.2 15.65 9.2 15.6 9.2 15.55 9.2 15.5 9.2 15.4 9.2 15.35 9.2 15.3 9.2 15.2 9.2 15.15 9.2 15.1 9.25 15.0 9.25 14.95 9.25 14.9 9.3 14.85 9.3 14.75 9.35 14.7 9.4 14.65 9.4 14.6 9.45 14.55 9.5 14.5 9.55 14.45 9.6 14.4 9.65 14.35 9.7 14.35 9.75 14.3 9.8 14.3 9.85 14.25 9.9 14.2 9.95 14.2 10.0 14.2 10.1 14.15 10.15 14.15 10.2 14.15 10.3 14.15 10.35 14.15 10.4 14.15 10.5 14.15 10.55 14.15 10.6 14.15 10.65 14.15 10.7 14.15 10.8 14.2 10.85 14.2 10.9 14.2 10.95 14.2 11.0 14.25 11.05 14.25 11.1 14.3 11.15 14.3 11.2 14.35 11.25 14.4 11.25 14.4 11.3 14.45 11.35 14.5 11.4 14.55 11.45 14.6 11.5 14.65 11.5 14.7 11.55 14.75 11.6 14.8 11.65 14.85 11.7 14.9 11.7 15.0 11.75 15.05 11.8 15.1 11.85 15.2 11.85 15.25 11.9 15.35 11.95 L16.6 12.5 Q16.7 12.55 16.8 12.6 16.95 12.65 17.05 12.7 17.1 12.75 17.2 12.8 17.3 12.9 17.4 12.95 17.45 13.0 17.55 13.05 17.65 13.15 17.7 13.2 17.75 13.25 17.85 13.35 17.9 13.4 17.95 13.5 18.0 13.6 18.05 13.65 18.1 13.75 18.15 13.8 18.2 13.9 18.2 14.0 18.25 14.1 18.3 14.2 18.3 14.25 18.35 14.35 18.35 14.45 18.35 14.55 18.4 14.65 18.4 14.75 18.4 14.85 18.4 14.95 18.4 15.1 18.4 15.25 18.35 15.4 18.35 15.55 18.3 15.7 18.3 15.85 18.25 15.95 18.2 16.1 18.15 16.2 18.1 16.35 18.0 16.45 17.95 16.55 17.85 16.65 17.8 16.75 17.7 16.9 17.6 16.95 17.5 17.05 17.4 17.15 17.3 17.2 17.2 17.3 17.05 17.35 16.95 17.45 16.8 17.5 16.7 17.55 16.55 17.6 16.4 17.6 16.3 17.65 16.15 17.7 16.0 17.7 15.85 17.7 15.65 17.75 15.5 17.75 15.35 17.75 15.25 17.75 15.1 17.7 15.0 17.7 14.9 17.7 14.75 17.65 14.65 17.65 14.55 17.6 14.4 17.55 14.3 17.5 14.2 17.45 14.1 17.4 14.0 17.35 13.9 17.3 13.8 17.25 13.75 17.2 13.65 17.15 13.55 17.05 13.5 16.95 13.4 16.9 13.35 16.8 13.25 16.7 13.2 16.6 13.15 16.55 13.05 16.45 13.0 16.3 12.95 16.2 12.9 16.1 12.85 16.0 12.85 15.9 12.8 15.75 12.75 15.65 L13.75 15.15 Q13.75 15.25 13.8 15.35 13.8 15.45 13.85 15.55 13.9 15.65 13.9 15.7 13.95 15.8 14.0 15.9 14.05 15.95 14.05 16.05 14.1 16.1 14.15 16.15 14.2 16.25 14.25 16.3 14.3 16.35 14.35 16.4 14.4 16.45 14.45 16.5 14.55 16.55 14.6 16.6 14.65 16.6 14.75 16.65 14.8 16.7 14.9 16.7 14.95 16.75 15.05 16.75 15.1 16.8 15.2 16.8 15.25 16.8 15.35 16.8 15.45 16.8 15.5 16.8 15.6 16.8 15.7 16.8 15.8 16.8 15.9 16.8 16.0 16.75 16.05 16.75 16.15 16.75 16.25 16.7 16.3 16.65 16.4 16.65 16.45 16.6 16.55 16.55 16.6 16.5 16.7 16.45 16.75 16.4 16.8 16.35 16.85 16.3 16.9 16.25 17.0 16.15 17.05 16.1 17.05 16.05 17.1 15.95 17.15 15.9 17.2 15.8 17.2 15.75 17.25 15.65 17.25 15.6 17.3 15.5 17.3 15.4 17.3 15.35 17.3 15.25 17.3 15.15 17.3 15.05 17.3 15.0 17.3 14.95 17.3 14.85 17.3 14.8 17.25 14.7 17.25 14.65 17.2 14.6 17.2 14.5 17.2 14.45 17.15 14.4 17.1 14.35 17.1 14.25 17.05 14.2 17.0 14.15 16.95 14.1 16.9 14.05 16.85 14.0 16.8 13.95 16.75 13.9 16.7 13.85 16.65 13.8 16.6 13.75 16.55 13.7 16.45 13.65 16.4 13.6 16.3 13.55 16.25 13.5 16.15 13.45 16.1 13.4 16.0 13.4 15.9 13.35 L14.8 12.9 Q14.7 12.85 14.6 12.8 14.5 12.75 14.4 12.7 14.3 12.65 14.2 12.55 14.1 12.5 14.05 12.45 13.95 12.4 13.9 12.35 13.8 12.25 13.75 12.2 13.65 12.15 13.6 12.05 13.55 12.0 13.5 11.9 13.45 11.85 13.4 11.75 13.35 11.7 13.3 11.6 13.25 11.5 13.2 11.45 13.2 11.35 13.15 11.25 13.15 11.15 13.1 11.1 13.1 11.0 13.05 10.9 13.05 10.8 13.05 10.7 13.05 10.6 13.05 10.5 13.05 10.4 13.05 10.25 13.05 10.15 13.1 10.05 13.1 9.95 13.15 9.85 13.2 9.7 13.25 9.6 13.25 9.5 13.35 9.45 13.4 9.35 13.45 9.25 13.5 9.15 13.6 9.05 13.65 9.0 13.75 8.9 13.85 8.8 13.95 8.75 14.05 8.7 14.15 8.65 14.25 8.6 14.35 8.55 14.45 8.5 14.55 8.45 14.7 8.4 14.8 8.35 14.9 8.35 15.05 8.3 15.2 8.3 15.3 8.3 15.45 8.3 15.6 8.3 L15.6 8.3 M7.6 8.5 L8.7 8.5 8.7 16.5 12.05 16.5 12.05 17.5 7.6 17.5 7.6 8.5 7.6 8.5" fill="#ffffff" fill-rule="evenodd" stroke="none"/>
  </g>
</svg>
