<?xml version="1.0" encoding="UTF-8" standalone="no"?>
<svg xmlns:ffdec="https://www.free-decompiler.com/flash" xmlns:xlink="http://www.w3.org/1999/xlink" ffdec:objectType="shape" height="26.0px" width="26.0px" xmlns="http://www.w3.org/2000/svg">
  <g transform="matrix(1.0, 0.0, 0.0, 1.0, 0.0, 0.0)">
    <path d="M13.0 3.5 Q12.05 3.5 11.1 3.7 10.15 3.9 9.3 4.25 8.45 4.6 7.7 5.1 6.95 5.65 6.3 6.3 5.65 6.95 5.1 7.7 4.6 8.45 4.25 9.3 3.9 10.15 3.7 11.1 3.5 12.05 3.5 13.0 3.5 13.95 3.7 14.9 3.9 15.85 4.25 16.7 4.6 17.55 5.1 18.3 5.65 19.05 6.3 19.7 6.95 20.35 7.7 20.9 8.45 21.4 9.3 21.75 10.15 22.1 11.1 22.3 12.05 22.5 13.0 22.5 13.95 22.5 14.9 22.3 15.85 22.1 16.7 21.75 17.55 21.4 18.3 20.9 19.05 20.35 19.7 19.7 20.35 19.05 20.9 18.3 21.4 17.55 21.75 16.7 22.1 15.85 22.3 14.9 22.5 13.95 22.5 13.0 22.5 12.05 22.3 11.1 22.1 10.15 21.75 9.3 21.4 8.45 20.9 7.7 20.35 6.95 19.7 6.3 19.05 5.65 18.3 5.1 17.55 4.6 16.7 4.25 15.85 3.9 14.9 3.7 13.95 3.5 13.0 3.5 L13.0 3.5 M10.3 8.5 L12.15 8.5 Q12.25 8.5 12.4 8.5 12.5 8.5 12.6 8.5 12.7 8.5 12.8 8.5 12.9 8.5 13.0 8.55 13.1 8.55 13.2 8.55 13.25 8.55 13.35 8.55 13.4 8.55 13.5 8.6 13.55 8.6 13.6 8.6 13.65 8.6 13.7 8.65 13.8 8.65 13.85 8.65 13.9 8.7 13.95 8.7 14.0 8.7 14.05 8.75 14.1 8.75 14.15 8.8 14.2 8.8 14.25 8.85 14.3 8.85 14.35 8.9 14.4 8.9 14.4 8.95 14.45 9.0 14.5 9.05 14.55 9.1 14.6 9.1 14.65 9.15 14.7 9.2 14.75 9.25 14.8 9.3 14.85 9.35 14.9 9.4 14.9 9.5 14.95 9.55 15.0 9.6 15.05 9.65 15.05 9.7 15.1 9.75 15.15 9.8 15.15 9.9 15.2 9.95 15.2 10.0 15.2 10.1 15.25 10.15 15.25 10.2 15.25 10.3 15.3 10.35 15.3 10.45 15.3 10.5 15.3 10.55 15.3 10.65 15.3 10.7 15.35 10.8 15.35 10.85 15.35 10.95 15.35 11.05 15.35 11.1 15.3 11.2 15.3 11.3 15.3 11.35 15.25 11.45 15.25 11.5 15.2 11.6 15.2 11.65 15.15 11.75 15.15 11.8 15.1 11.85 15.05 11.95 15.05 12.0 15.0 12.05 14.95 12.1 14.9 12.15 14.85 12.25 14.8 12.3 14.75 12.35 14.7 12.4 14.65 12.4 14.55 12.45 14.5 12.5 14.45 12.55 14.35 12.6 14.3 12.6 14.25 12.65 14.15 12.7 14.05 12.7 14.0 12.75 14.1 12.75 14.2 12.8 14.3 12.8 14.35 12.85 14.45 12.85 14.55 12.9 14.65 12.95 14.7 12.95 14.8 13.0 14.85 13.05 14.95 13.1 15.0 13.2 15.05 13.25 15.15 13.3 15.2 13.35 15.25 13.45 15.3 13.5 15.35 13.6 15.4 13.7 15.45 13.75 15.5 13.85 15.55 13.95 15.55 14.0 15.6 14.1 15.65 14.2 15.65 14.3 15.7 14.4 15.7 14.5 15.7 14.6 15.7 14.7 15.7 14.85 15.7 14.95 15.7 15.0 15.7 15.1 15.7 15.15 15.7 15.2 15.7 15.3 15.7 15.35 15.7 15.4 15.65 15.45 15.65 15.55 15.65 15.6 15.65 15.65 15.6 15.75 15.6 15.8 15.55 15.85 15.55 15.9 15.5 15.95 15.5 16.0 15.45 16.1 15.45 16.15 15.4 16.2 15.4 16.25 15.35 16.3 15.3 16.35 15.3 16.45 15.25 16.5 15.2 16.55 15.2 16.6 15.15 16.65 15.1 16.7 15.05 16.75 15.0 16.75 15.0 16.8 14.95 16.85 14.9 16.9 14.85 16.95 14.8 17.0 14.75 17.05 14.65 17.05 14.6 17.1 14.55 17.15 14.5 17.15 14.45 17.2 14.35 17.25 14.3 17.25 14.25 17.3 14.15 17.3 14.1 17.35 14.05 17.35 14.0 17.35 13.9 17.4 13.8 17.4 13.7 17.4 13.6 17.45 13.5 17.45 13.4 17.45 13.3 17.45 13.15 17.45 13.05 17.5 12.9 17.5 12.75 17.5 12.65 17.5 12.45 17.5 12.3 17.5 12.15 17.5 L10.3 17.5 10.3 8.5 10.3 8.5 M11.3 9.45 L11.3 12.45 12.15 12.45 Q12.3 12.45 12.45 12.45 12.55 12.45 12.7 12.4 12.8 12.4 12.9 12.4 13.05 12.4 13.15 12.35 13.25 12.35 13.3 12.3 13.4 12.3 13.5 12.25 13.55 12.2 13.65 12.2 13.7 12.15 13.75 12.1 13.8 12.05 13.85 12.0 13.9 11.95 13.95 11.9 14.0 11.85 14.05 11.8 14.1 11.75 14.1 11.65 14.15 11.6 14.15 11.5 14.2 11.45 14.2 11.35 14.2 11.25 14.25 11.2 14.25 11.1 14.25 11.0 14.25 10.9 14.25 10.8 14.25 10.7 14.2 10.6 14.2 10.5 14.2 10.4 14.15 10.35 14.15 10.25 14.1 10.2 14.05 10.1 14.05 10.05 14.0 10.0 13.95 9.9 13.9 9.85 13.85 9.8 13.8 9.8 13.75 9.75 13.7 9.7 13.6 9.65 13.55 9.65 13.45 9.6 13.35 9.55 13.25 9.55 13.15 9.5 13.05 9.5 12.95 9.5 12.85 9.45 12.7 9.45 12.6 9.45 12.45 9.45 12.3 9.45 12.15 9.45 L11.3 9.45 11.3 9.45 M11.3 13.3 L11.3 16.55 12.15 16.55 Q12.55 16.55 12.9 16.55 13.2 16.55 13.4 16.5 13.45 16.5 13.5 16.5 13.55 16.45 13.55 16.45 13.6 16.45 13.65 16.45 13.7 16.4 13.75 16.4 13.75 16.4 13.8 16.35 13.85 16.35 13.85 16.35 13.9 16.3 13.95 16.3 13.95 16.3 14.0 16.25 14.05 16.25 14.05 16.2 14.1 16.2 14.15 16.15 14.15 16.1 14.2 16.1 14.2 16.05 14.25 16.05 14.25 16.0 14.3 15.95 14.3 15.9 14.35 15.9 14.35 15.85 14.4 15.8 14.4 15.75 14.45 15.7 14.45 15.65 14.5 15.6 14.5 15.55 14.5 15.55 14.5 15.5 14.55 15.45 14.55 15.4 14.55 15.35 14.55 15.3 14.55 15.25 14.6 15.2 14.6 15.15 14.6 15.1 14.6 15.05 14.6 15.0 14.6 14.95 14.6 14.9 14.6 14.85 14.6 14.75 14.6 14.7 14.55 14.65 14.55 14.6 14.55 14.55 14.55 14.5 14.55 14.45 14.5 14.4 14.5 14.35 14.5 14.3 14.45 14.25 14.45 14.2 14.4 14.15 14.4 14.1 14.4 14.05 14.35 14.0 14.3 13.95 14.3 13.9 14.25 13.9 14.25 13.85 14.2 13.8 14.15 13.75 14.15 13.75 14.1 13.7 14.05 13.65 14.0 13.65 14.0 13.6 13.95 13.6 13.9 13.55 13.85 13.5 13.8 13.5 13.8 13.5 13.75 13.45 13.75 13.45 13.7 13.45 13.7 13.45 13.65 13.4 13.6 13.4 13.6 13.4 13.55 13.4 13.5 13.4 13.5 13.35 13.45 13.35 13.4 13.35 13.4 13.35 13.35 13.35 13.3 13.35 13.25 13.35 13.25 13.35 13.2 13.3 13.15 13.3 13.1 13.3 13.05 13.3 13.0 13.3 12.95 13.3 12.85 13.3 12.8 13.3 12.75 13.3 12.7 13.3 12.6 13.3 12.55 13.3 12.45 13.3 L12.15 13.3 11.3 13.3 11.3 13.3" fill="#ffffff" fill-rule="evenodd" stroke="none"/>
  </g>
</svg>
