<?xml version="1.0" encoding="UTF-8" standalone="no"?>
<svg xmlns:ffdec="https://www.free-decompiler.com/flash" xmlns:xlink="http://www.w3.org/1999/xlink" ffdec:objectType="shape" height="12.95px" width="11.0px" xmlns="http://www.w3.org/2000/svg">
  <g transform="matrix(1.0, 0.0, 0.0, 1.0, 0.0, 0.0)">
    <path d="M8.0 6.45 Q7.85 6.5 7.65 6.7 L7.35 7.45 Q7.2 8.0 7.2 8.95 L7.25 9.65 7.35 10.45 7.65 11.15 Q7.9 11.4 8.25 11.45 8.65 11.4 8.85 11.15 L9.15 10.45 9.25 9.65 9.25 8.95 9.25 8.25 9.15 7.4 8.85 6.7 Q8.65 6.45 8.25 6.45 L8.0 6.45 M5.7 6.25 Q5.9 5.15 6.25 4.15 L7.05 2.15 8.1 0.0 9.9 0.0 7.4 5.45 7.45 5.5 8.05 5.05 8.75 4.9 Q9.55 4.95 10.0 5.3 L10.7 6.35 10.95 7.65 11.0 8.95 10.85 10.85 Q10.65 11.75 10.1 12.35 9.5 12.95 8.25 12.95 7.3 12.95 6.75 12.55 L5.9 11.55 5.55 10.15 5.5 8.6 5.7 6.25 M4.6 0.0 L4.6 1.45 1.7 1.45 1.7 5.5 4.3 5.5 4.3 6.95 1.7 6.95 1.7 12.8 0.0 12.8 0.0 0.0 4.6 0.0" fill="#cccccc" fill-rule="evenodd" stroke="none"/>
  </g>
</svg>
