<?xml version="1.0" encoding="UTF-8" standalone="no"?>
<svg xmlns:ffdec="https://www.free-decompiler.com/flash" xmlns:xlink="http://www.w3.org/1999/xlink" ffdec:objectType="frame" height="26.05px" width="52.95px" xmlns="http://www.w3.org/2000/svg">
  <g transform="matrix(1.0, 0.0, 0.0, 1.0, 0.0, 0.0)">
    <use ffdec:characterId="132" height="26.0" transform="matrix(1.0, 0.0, 0.0, 1.0, 0.05, 0.05)" width="26.0" xlink:href="#shape0"/>
    <use ffdec:characterId="133" height="15.15" transform="matrix(1.0, 0.0, 0.0, 1.0, 9.15, 5.6)" width="10.2" xlink:href="#shape1"/>
    <use ffdec:characterId="133" height="15.15" transform="matrix(1.0, 0.0, 0.0, 1.0, 8.35, 5.0)" width="10.2" xlink:href="#shape1"/>
  </g>
  <defs>
    <g id="shape0" transform="matrix(1.0, 0.0, 0.0, 1.0, -0.05, -0.05)">
      <path d="M26.05 13.05 Q26.05 7.65 22.25 3.85 18.45 0.05 13.05 0.05 7.65 0.05 3.85 3.85 0.05 7.65 0.05 13.05 0.05 18.45 3.85 22.25 7.65 26.05 13.05 26.05 18.45 26.05 22.25 22.25 26.05 18.45 26.05 13.05 L26.05 13.05" fill="#000000" fill-rule="evenodd" stroke="none"/>
      <path d="M25.55 13.05 Q25.55 7.85 21.9 4.2 18.25 0.55 13.05 0.55 7.85 0.55 4.2 4.2 0.55 7.85 0.55 13.05 0.55 18.25 4.2 21.9 7.85 25.55 13.05 25.55 18.25 25.55 21.9 21.9 25.55 18.25 25.55 13.05 L25.55 13.05" fill="#c5c5c5" fill-rule="evenodd" stroke="none"/>
      <path d="M22.3 9.1 Q22.3 9.15 22.3 9.35 22.3 9.45 22.3 9.55 22.95 9.55 23.8 9.6 23.25 9.25 23.35 9.25 23.4 9.25 22.3 9.1 L22.3 9.1" fill="#000000" fill-rule="evenodd" stroke="none"/>
      <path d="M25.7 11.95 Q25.65 11.8 25.55 11.55 25.45 11.25 25.4 11.15 25.35 11.1 25.25 10.95 25.1 10.8 25.05 10.75 25.0 10.8 24.95 10.8 24.95 10.8 24.8 10.85 25.15 11.45 25.35 11.8 25.45 11.85 25.7 11.95 L25.7 11.95" fill="#000000" fill-rule="evenodd" stroke="none"/>
      <path d="M24.0 18.95 Q23.9 18.75 23.75 18.35 23.55 19.0 23.4 19.35 23.6 19.25 24.0 18.95 L24.0 18.95" fill="#000000" fill-rule="evenodd" stroke="none"/>
      <path d="M25.35 11.8 Q25.3 11.85 25.25 11.85 25.25 11.9 25.2 11.9 25.2 11.95 25.2 12.0 25.15 12.05 25.15 12.1 25.15 12.1 25.15 12.15 25.15 12.2 25.15 12.25 25.3 12.05 25.3 12.05 25.3 12.1 25.35 11.8 L25.35 11.8" fill="#000000" fill-rule="evenodd" stroke="none"/>
      <path d="M20.1 4.3 Q20.1 4.15 20.1 3.85 20.0 3.8 19.8 3.75 19.8 3.9 19.85 4.2 19.95 4.25 20.1 4.3 L20.1 4.3" fill="#000000" fill-rule="evenodd" stroke="none"/>
      <path d="M24.1 16.05 L24.2 16.25 Q24.3 16.15 24.6 15.95 24.6 15.9 24.55 15.9 24.55 15.85 24.5 15.8 24.5 15.75 24.5 15.75 24.45 15.7 24.45 15.65 24.1 15.95 24.1 16.05 L24.1 16.05" fill="#000000" fill-rule="evenodd" stroke="none"/>
      <path d="M22.05 3.95 Q21.65 3.8 20.85 3.6 20.8 3.6 20.5 3.7 20.25 3.8 20.1 3.85 20.5 4.05 21.2 4.4 21.25 4.4 21.35 4.4 21.4 4.4 21.45 4.35 21.5 4.35 21.6 4.35 21.65 4.35 21.7 4.35 21.7 4.3 21.75 4.3 21.8 4.3 21.85 4.3 21.9 4.25 21.95 4.25 21.95 4.25 22.0 4.2 L22.05 3.95" fill="#000000" fill-rule="evenodd" stroke="none"/>
      <path d="M3.25 18.55 Q3.3 18.55 3.45 18.55 3.55 18.55 3.65 18.6 3.7 18.45 3.8 18.1 3.75 18.1 3.7 18.1 3.7 18.1 3.6 18.1 3.55 18.1 3.4 18.05 3.35 18.2 3.25 18.55 L3.25 18.55" fill="#000000" fill-rule="evenodd" stroke="none"/>
      <path d="M5.3 23.35 Q5.4 23.35 5.65 23.25 5.75 23.1 5.75 23.0 5.8 22.9 5.8 22.8 5.75 22.7 5.75 22.6 5.7 22.5 5.6 22.4 5.55 22.35 5.45 22.25 5.35 22.2 5.25 22.1 5.25 22.1 5.05 22.0 4.95 21.9 4.85 21.85 4.85 21.85 4.7 21.9 4.8 22.3 5.0 23.0 5.0 23.0 5.05 23.05 5.05 23.05 5.05 23.1 5.1 23.1 5.1 23.15 5.15 23.15 5.15 23.2 5.15 23.2 5.2 23.2 5.2 23.25 5.25 23.25 5.25 23.3 5.25 23.3 5.3 23.35 5.3 23.35 L5.3 23.35" fill="#000000" fill-rule="evenodd" stroke="none"/>
      <path d="M15.55 2.1 Q15.6 2.25 15.7 2.4 15.8 2.3 15.85 2.25 15.95 2.2 16.0 2.15 16.05 2.1 16.1 2.05 16.1 2.0 16.15 1.95 16.15 1.9 16.2 1.85 16.2 1.85 16.2 1.8 16.2 1.75 16.25 1.65 16.25 1.65 16.25 1.55 16.0 1.75 15.55 2.1 L15.55 2.1" fill="#000000" fill-rule="evenodd" stroke="none"/>
      <path d="M1.15 15.0 Q1.1 15.05 0.95 15.1 0.7 15.4 0.7 15.45 0.65 15.55 0.7 15.85 0.9 15.75 1.05 15.7 1.2 15.65 1.25 15.6 1.35 15.55 1.4 15.5 1.45 15.5 1.45 15.45 1.45 15.4 1.45 15.35 1.4 15.35 1.35 15.25 1.2 15.1 1.25 15.15 1.2 15.05 1.15 15.0 L1.15 15.0" fill="#000000" fill-rule="evenodd" stroke="none"/>
      <path d="M21.75 9.15 Q22.0 9.1 22.3 9.1 22.65 8.25 23.15 7.05 23.1 7.05 23.0 7.05 22.8 7.1 22.6 7.15 22.45 7.25 22.35 7.35 22.25 7.45 22.2 7.55 22.15 7.65 22.1 7.8 22.0 8.05 22.0 8.05 21.9 8.2 21.85 8.3 21.75 8.4 21.65 8.5 21.55 8.6 21.35 8.65 21.4 8.75 21.45 9.0 21.5 9.05 21.75 9.15 L21.75 9.15" fill="#000000" fill-rule="evenodd" stroke="none"/>
      <path d="M3.05 7.55 Q3.2 7.45 3.5 7.3 3.5 7.25 3.05 6.65 3.05 6.95 3.05 7.55 L3.05 7.55" fill="#000000" fill-rule="evenodd" stroke="none"/>
      <path d="M2.55 10.7 Q2.4 10.6 2.15 10.5 2.1 10.5 1.9 10.5 1.8 10.55 1.65 10.6 1.7 10.85 1.75 11.4 1.85 11.3 2.55 10.7 L2.55 10.7" fill="#000000" fill-rule="evenodd" stroke="none"/>
      <path d="M9.25 23.4 Q9.25 23.45 9.25 23.6 9.25 23.75 9.25 23.85 9.45 23.75 9.85 23.55 10.0 23.4 10.4 23.0 10.4 22.95 10.35 22.9 10.35 22.9 10.3 22.85 10.3 22.8 10.3 22.75 9.25 23.55 9.8 23.2 9.75 23.2 9.25 23.4 L9.25 23.4" fill="#000000" fill-rule="evenodd" stroke="none"/>
      <path d="M9.95 24.75 Q9.95 25.1 9.95 25.2 10.15 25.1 10.55 24.9 10.7 24.75 11.1 24.35 11.1 24.3 11.05 24.3 11.05 24.25 11.0 24.2 11.0 24.15 11.0 24.1 9.95 24.9 10.5 24.55 10.45 24.55 9.95 24.75 L9.95 24.75" fill="#000000" fill-rule="evenodd" stroke="none"/>
      <path d="M6.45 3.15 L5.8 3.6 5.05 4.4 4.1 5.55 3.45 6.8 2.95 7.9 2.7 8.95 2.55 10.1 2.4 11.2 2.4 12.4 2.65 13.9 2.95 15.2 3.4 16.35 3.95 17.5 4.6 18.6 5.35 19.8 6.65 21.0 7.95 22.1 9.2 22.85 10.65 23.55 11.85 23.85 13.25 24.2 14.75 24.2 16.55 24.1 18.25 23.75 20.05 22.85 21.25 21.85 22.2 20.45 22.95 18.8 23.25 17.4 23.6 15.95 23.7 14.2 23.7 12.75 23.35 11.3 22.95 9.8 22.75 9.4 22.5 8.85 21.9 7.7 21.05 6.3 19.95 5.05 18.75 3.9 17.25 2.95 16.15 2.35 15.55 2.1 14.4 1.8 13.3 1.45 11.95 1.4 10.25 1.45 8.8 1.9 7.5 2.35 6.45 3.15" fill="#000000" fill-rule="evenodd" stroke="none"/>
    </g>
    <g id="shape1" transform="matrix(1.0, 0.0, 0.0, 1.0, 0.0, 0.0)">
      <path d="M0.0 2.2 L1.7 2.2 1.7 13.5 4.55 13.5 4.55 15.0 0.0 15.0 0.0 2.2 M4.45 2.35 L0.55 0.0 8.3 0.0 4.45 2.35 M7.8 2.0 L8.75 2.1 Q9.2 2.2 9.6 2.45 L9.6 4.15 9.2 3.9 8.9 3.75 8.15 3.6 7.3 3.9 7.05 4.1 Q6.8 4.4 6.7 4.8 L6.65 5.25 6.75 6.0 7.1 6.65 8.4 8.05 9.35 9.15 10.0 10.35 10.2 11.8 Q10.2 12.75 9.85 13.5 9.5 14.25 8.8 14.7 8.15 15.15 7.2 15.15 L6.2 15.0 5.35 14.55 5.35 12.85 6.1 13.3 7.0 13.5 7.85 13.25 8.35 12.6 8.5 11.7 Q8.5 10.95 8.15 10.4 L7.25 9.35 6.2 8.3 5.3 7.0 Q4.95 6.3 4.9 5.3 L4.9 5.25 4.95 4.8 5.15 3.9 5.25 3.65 5.4 3.35 5.65 2.95 5.8 2.8 6.2 2.45 Q6.85 2.0 7.8 2.0" fill="#000000" fill-rule="evenodd" stroke="none"/>
    </g>
  </defs>
</svg>
