<?xml version="1.0" encoding="UTF-8" standalone="no"?>
<svg xmlns:ffdec="https://www.free-decompiler.com/flash" xmlns:xlink="http://www.w3.org/1999/xlink" ffdec:objectType="frame" height="26.05px" width="52.95px" xmlns="http://www.w3.org/2000/svg">
  <g transform="matrix(1.0, 0.0, 0.0, 1.0, 0.0, 0.0)">
    <use ffdec:characterId="1" height="26.0" transform="matrix(1.0, 0.0, 0.0, 1.0, 0.0, 0.0)" width="35.75" xlink:href="#shape0"/>
    <use ffdec:characterId="2" height="12.95" transform="matrix(1.0, 0.0, 0.0, 1.0, 11.75, 7.15)" width="13.85" xlink:href="#shape1"/>
    <use ffdec:characterId="2" height="12.95" transform="matrix(1.0, 0.0, 0.0, 1.0, 10.95, 6.55)" width="13.85" xlink:href="#shape1"/>
  </g>
  <defs>
    <g id="shape0" transform="matrix(1.0, 0.0, 0.0, 1.0, 0.0, 0.0)">
      <path d="M33.7 3.85 L32.9 2.8 Q31.3 1.3 29.15 1.3 L6.6 1.3 Q4.4 1.3 2.8 2.8 1.3 4.4 1.3 6.6 L1.3 19.4 Q1.3 21.55 2.8 23.15 4.4 24.7 6.6 24.7 L29.15 24.7 Q31.3 24.7 32.9 23.15 L33.7 22.15 Q34.45 20.9 34.45 19.4 L34.45 6.6 Q34.45 5.05 33.7 3.85 M33.8 1.95 Q35.75 3.9 35.75 6.6 L35.75 19.4 Q35.75 22.15 33.8 24.05 L33.7 24.15 Q31.85 26.0 29.15 26.0 L6.6 26.0 Q3.9 26.0 1.95 24.05 0.0 22.15 0.0 19.4 L0.0 6.6 Q0.0 3.9 1.95 1.95 3.9 0.0 6.6 0.0 L29.15 0.0 Q31.85 0.0 33.7 1.85 L33.8 1.95" fill="#000000" fill-opacity="0.6" fill-rule="evenodd" stroke="none"/>
      <path d="M34.45 6.6 L34.45 19.4 Q34.45 20.9 33.7 22.15 L32.9 23.15 Q31.3 24.7 29.15 24.7 L6.6 24.7 Q4.4 24.7 2.8 23.15 1.3 21.55 1.3 19.4 L1.3 6.6 Q1.3 4.4 2.8 2.8 4.4 1.3 6.6 1.3 L29.15 1.3 Q31.3 1.3 32.9 2.8 L33.7 3.85 Q34.45 5.05 34.45 6.6 M31.75 4.0 Q30.65 2.9 29.15 2.9 L6.6 2.9 Q5.1 2.9 4.0 4.0 2.95 5.1 2.95 6.6 L2.95 19.4 Q2.95 20.9 4.0 22.0 5.1 23.05 6.6 23.05 L29.15 23.05 Q30.6 23.05 31.75 22.0 32.8 20.85 32.8 19.4 L32.8 6.6 Q32.8 5.1 31.75 4.0" fill="#d29968" fill-opacity="0.6" fill-rule="evenodd" stroke="none"/>
      <path d="M32.8 6.6 L32.8 19.4 Q32.8 20.85 31.75 22.0 30.6 23.05 29.15 23.05 L6.6 23.05 Q5.1 23.05 4.0 22.0 2.95 20.9 2.95 19.4 L2.95 6.6 Q2.95 5.1 4.0 4.0 5.1 2.9 6.6 2.9 L29.15 2.9 Q30.65 2.9 31.75 4.0 32.8 5.1 32.8 6.6" fill="#000000" fill-opacity="0.6" fill-rule="evenodd" stroke="none"/>
    </g>
    <g id="shape1" transform="matrix(1.0, 0.0, 0.0, 1.0, 0.0, 0.0)">
      <path d="M0.0 0.0 L4.55 0.0 4.55 1.45 1.7 1.45 1.7 5.5 4.25 5.5 4.25 6.95 1.7 6.95 1.7 11.3 4.55 11.3 4.55 12.8 0.0 12.8 0.0 0.0 M8.85 4.45 L8.85 5.95 8.25 5.65 7.65 5.5 Q7.2 5.5 6.9 5.75 6.55 6.0 6.55 6.45 6.6 6.95 7.0 7.3 L7.9 8.05 8.8 8.95 Q9.2 9.5 9.25 10.4 9.2 11.55 8.6 12.25 7.95 12.9 6.8 12.95 L6.05 12.85 5.4 12.55 5.4 10.95 6.0 11.35 6.7 11.5 Q7.2 11.5 7.5 11.2 L7.75 10.45 7.5 9.65 6.85 9.05 6.05 8.45 5.35 7.6 5.1 6.45 Q5.1 5.4 5.75 4.75 6.35 4.1 7.4 4.1 L8.15 4.15 8.85 4.45 M13.25 4.15 L13.85 4.35 13.85 6.0 13.55 5.7 13.1 5.55 Q12.55 5.6 12.3 5.9 12.0 6.2 11.85 6.65 L11.7 7.6 11.7 8.45 11.7 9.25 11.85 10.25 12.25 11.1 Q12.55 11.45 13.05 11.45 L13.5 11.35 13.85 11.1 13.85 12.6 13.25 12.85 12.55 12.95 Q11.75 12.9 11.25 12.5 L10.45 11.4 10.1 10.0 10.05 8.6 10.1 7.15 Q10.2 6.35 10.45 5.65 10.7 4.95 11.2 4.55 11.7 4.1 12.6 4.1 L13.25 4.15" fill="#000000" fill-rule="evenodd" stroke="none"/>
    </g>
  </defs>
</svg>
