<?xml version="1.0" encoding="UTF-8" standalone="no"?>
<svg xmlns:ffdec="https://www.free-decompiler.com/flash" xmlns:xlink="http://www.w3.org/1999/xlink" ffdec:objectType="frame" height="26.05px" width="52.95px" xmlns="http://www.w3.org/2000/svg">
  <g transform="matrix(1.0, 0.0, 0.0, 1.0, 0.0, 0.0)">
    <use ffdec:characterId="3" height="26.0" transform="matrix(1.0, 0.0, 0.0, 1.0, 0.0, 0.0)" width="26.0" xlink:href="#shape0"/>
    <use ffdec:characterId="20" height="9.0" transform="matrix(1.0889, 0.0, 0.0, 1.0889, 8.7, 5.6)" width="1.85" xlink:href="#shape1"/>
    <use ffdec:characterId="20" height="9.0" transform="matrix(1.0889, 0.0, 0.0, 1.0889, 7.9, 5.0)" width="1.85" xlink:href="#shape1"/>
    <use ffdec:characterId="21" height="12.95" transform="matrix(1.0, 0.0, 0.0, 1.0, 14.55, 8.25)" width="5.5" xlink:href="#shape2"/>
    <use ffdec:characterId="21" height="12.95" transform="matrix(1.0, 0.0, 0.0, 1.0, 13.75, 7.65)" width="5.5" xlink:href="#shape2"/>
  </g>
  <defs>
    <g id="shape0" transform="matrix(1.0, 0.0, 0.0, 1.0, 0.0, 0.0)">
      <path d="M22.0 4.0 Q23.05 5.1 23.05 6.6 L23.05 19.4 Q23.05 20.85 22.0 22.0 20.85 23.05 19.4 23.05 L6.6 23.05 Q5.1 23.05 4.0 22.0 2.95 20.9 2.95 19.4 L2.95 6.6 Q2.95 5.1 4.0 4.0 5.1 2.9 6.6 2.9 L19.4 2.9 Q20.9 2.9 22.0 4.0 M26.0 6.6 L26.0 19.4 Q26.0 22.15 24.05 24.05 L23.95 24.15 Q22.1 26.0 19.4 26.0 L6.6 26.0 Q3.9 26.0 1.95 24.05 0.0 22.15 0.0 19.4 L0.0 6.6 Q0.0 3.9 1.95 1.95 3.9 0.0 6.6 0.0 L19.4 0.0 Q22.1 0.0 23.95 1.85 L24.05 1.95 Q26.0 3.9 26.0 6.6 M23.95 3.85 L23.15 2.8 Q21.55 1.3 19.4 1.3 L6.6 1.3 Q4.4 1.3 2.8 2.8 1.3 4.4 1.3 6.6 L1.3 19.4 Q1.3 21.55 2.8 23.15 4.4 24.7 6.6 24.7 L19.4 24.7 Q21.55 24.7 23.15 23.15 L23.95 22.15 Q24.7 20.9 24.7 19.4 L24.7 6.6 Q24.7 5.05 23.95 3.85" fill="#000000" fill-opacity="0.6" fill-rule="evenodd" stroke="none"/>
      <path d="M22.0 4.0 Q20.9 2.9 19.4 2.9 L6.6 2.9 Q5.1 2.9 4.0 4.0 2.95 5.1 2.95 6.6 L2.95 19.4 Q2.95 20.9 4.0 22.0 5.1 23.05 6.6 23.05 L19.4 23.05 Q20.85 23.05 22.0 22.0 23.05 20.85 23.05 19.4 L23.05 6.6 Q23.05 5.1 22.0 4.0 M23.95 3.85 Q24.7 5.05 24.7 6.6 L24.7 19.4 Q24.7 20.9 23.95 22.15 L23.15 23.15 Q21.55 24.7 19.4 24.7 L6.6 24.7 Q4.4 24.7 2.8 23.15 1.3 21.55 1.3 19.4 L1.3 6.6 Q1.3 4.4 2.8 2.8 4.4 1.3 6.6 1.3 L19.4 1.3 Q21.55 1.3 23.15 2.8 L23.95 3.85" fill="#d29968" fill-opacity="0.6" fill-rule="evenodd" stroke="none"/>
    </g>
    <g id="shape1" transform="matrix(1.0, 0.0, 0.0, 1.0, 0.0, 0.0)">
      <path d="M1.25 2.3 L0.95 4.4 1.2 6.6 1.85 8.75 0.9 9.0 0.25 6.75 0.0 4.45 Q0.0 3.3 0.25 2.2 0.45 1.05 0.9 0.0 L1.85 0.25 1.25 2.3" fill="#000000" fill-rule="evenodd" stroke="none"/>
    </g>
    <g id="shape2" transform="matrix(1.0, 0.0, 0.0, 1.0, 0.0, 0.0)">
      <path d="M3.35 1.8 Q3.1 1.5 2.75 1.5 2.35 1.5 2.15 1.8 L1.85 2.5 1.75 3.4 1.75 4.1 1.75 4.8 1.85 5.6 2.15 6.25 Q2.35 6.55 2.75 6.55 3.15 6.55 3.35 6.25 L3.65 5.55 3.75 4.7 3.75 4.0 3.75 3.3 3.65 2.45 3.35 1.8 M2.75 0.0 Q3.7 0.0 4.25 0.35 L5.1 1.4 5.45 2.8 5.5 4.35 5.3 6.85 4.6 9.1 3.6 11.4 2.85 12.95 1.0 12.95 3.55 7.6 3.5 7.55 2.95 7.95 2.2 8.05 Q1.45 8.05 1.05 7.7 L0.35 6.8 0.05 5.55 0.0 4.35 0.05 2.8 Q0.15 2.05 0.4 1.4 0.65 0.75 1.2 0.4 1.75 0.0 2.75 0.0" fill="#000000" fill-rule="evenodd" stroke="none"/>
    </g>
  </defs>
</svg>
