<?xml version="1.0" encoding="UTF-8" standalone="no"?>
<svg xmlns:ffdec="https://www.free-decompiler.com/flash" xmlns:xlink="http://www.w3.org/1999/xlink" ffdec:objectType="frame" height="26.05px" width="52.95px" xmlns="http://www.w3.org/2000/svg">
  <g transform="matrix(1.0, 0.0, 0.0, 1.0, 0.0, 0.0)">
    <use ffdec:characterId="3" height="26.0" transform="matrix(1.0, 0.0, 0.0, 1.0, 0.0, 0.0)" width="26.0" xlink:href="#shape0"/>
    <use ffdec:characterId="31" height="12.8" transform="matrix(1.0, 0.0, 0.0, 1.0, 8.9, 7.2)" width="10.0" xlink:href="#shape1"/>
    <use ffdec:characterId="31" height="12.8" transform="matrix(1.0, 0.0, 0.0, 1.0, 8.1, 6.6)" width="10.0" xlink:href="#shape1"/>
  </g>
  <defs>
    <g id="shape0" transform="matrix(1.0, 0.0, 0.0, 1.0, 0.0, 0.0)">
      <path d="M22.0 4.0 Q23.05 5.1 23.05 6.6 L23.05 19.4 Q23.05 20.85 22.0 22.0 20.85 23.05 19.4 23.05 L6.6 23.05 Q5.1 23.05 4.0 22.0 2.95 20.9 2.95 19.4 L2.95 6.6 Q2.95 5.1 4.0 4.0 5.1 2.9 6.6 2.9 L19.4 2.9 Q20.9 2.9 22.0 4.0 M26.0 6.6 L26.0 19.4 Q26.0 22.15 24.05 24.05 L23.95 24.15 Q22.1 26.0 19.4 26.0 L6.6 26.0 Q3.9 26.0 1.95 24.05 0.0 22.15 0.0 19.4 L0.0 6.6 Q0.0 3.9 1.95 1.95 3.9 0.0 6.6 0.0 L19.4 0.0 Q22.1 0.0 23.95 1.85 L24.05 1.95 Q26.0 3.9 26.0 6.6 M23.95 3.85 L23.15 2.8 Q21.55 1.3 19.4 1.3 L6.6 1.3 Q4.4 1.3 2.8 2.8 1.3 4.4 1.3 6.6 L1.3 19.4 Q1.3 21.55 2.8 23.15 4.4 24.7 6.6 24.7 L19.4 24.7 Q21.55 24.7 23.15 23.15 L23.95 22.15 Q24.7 20.9 24.7 19.4 L24.7 6.6 Q24.7 5.05 23.95 3.85" fill="#000000" fill-opacity="0.6" fill-rule="evenodd" stroke="none"/>
      <path d="M22.0 4.0 Q20.9 2.9 19.4 2.9 L6.6 2.9 Q5.1 2.9 4.0 4.0 2.95 5.1 2.95 6.6 L2.95 19.4 Q2.95 20.9 4.0 22.0 5.1 23.05 6.6 23.05 L19.4 23.05 Q20.85 23.05 22.0 22.0 23.05 20.85 23.05 19.4 L23.05 6.6 Q23.05 5.1 22.0 4.0 M23.95 3.85 Q24.7 5.05 24.7 6.6 L24.7 19.4 Q24.7 20.9 23.95 22.15 L23.15 23.15 Q21.55 24.7 19.4 24.7 L6.6 24.7 Q4.4 24.7 2.8 23.15 1.3 21.55 1.3 19.4 L1.3 6.6 Q1.3 4.4 2.8 2.8 4.4 1.3 6.6 1.3 L19.4 1.3 Q21.55 1.3 23.15 2.8 L23.95 3.85" fill="#d29968" fill-opacity="0.6" fill-rule="evenodd" stroke="none"/>
    </g>
    <g id="shape1" transform="matrix(1.0, 0.0, 0.0, 1.0, 0.0, 0.0)">
      <path d="M8.35 0.0 L10.0 0.0 7.75 12.8 6.4 12.8 5.0 3.3 3.6 12.8 2.2 12.8 0.0 0.0 1.65 0.0 2.85 8.65 2.9 9.6 2.95 9.6 4.35 0.0 5.7 0.0 7.05 9.55 7.1 9.55 8.35 0.0" fill="#000000" fill-rule="evenodd" stroke="none"/>
    </g>
  </defs>
</svg>
