<?xml version="1.0" encoding="UTF-8" standalone="no"?>
<svg xmlns:ffdec="https://www.free-decompiler.com/flash" xmlns:xlink="http://www.w3.org/1999/xlink" ffdec:objectType="frame" height="26.05px" width="52.95px" xmlns="http://www.w3.org/2000/svg">
  <g transform="matrix(1.0, 0.0, 0.0, 1.0, 0.0, 0.0)">
    <use ffdec:characterId="1" height="26.0" transform="matrix(1.0, 0.0, 0.0, 1.0, 0.0, 0.0)" width="35.75" xlink:href="#shape0"/>
    <use ffdec:characterId="75" height="14.1" transform="matrix(1.0, 0.0, 0.0, 1.0, 9.35, 5.9)" width="18.6" xlink:href="#shape1"/>
    <use ffdec:characterId="75" height="14.1" transform="matrix(1.0, 0.0, 0.0, 1.0, 8.55, 5.3)" width="18.6" xlink:href="#shape1"/>
  </g>
  <defs>
    <g id="shape0" transform="matrix(1.0, 0.0, 0.0, 1.0, 0.0, 0.0)">
      <path d="M33.7 3.85 L32.9 2.8 Q31.3 1.3 29.15 1.3 L6.6 1.3 Q4.4 1.3 2.8 2.8 1.3 4.4 1.3 6.6 L1.3 19.4 Q1.3 21.55 2.8 23.15 4.4 24.7 6.6 24.7 L29.15 24.7 Q31.3 24.7 32.9 23.15 L33.7 22.15 Q34.45 20.9 34.45 19.4 L34.45 6.6 Q34.45 5.05 33.7 3.85 M33.8 1.95 Q35.75 3.9 35.75 6.6 L35.75 19.4 Q35.75 22.15 33.8 24.05 L33.7 24.15 Q31.85 26.0 29.15 26.0 L6.6 26.0 Q3.9 26.0 1.95 24.05 0.0 22.15 0.0 19.4 L0.0 6.6 Q0.0 3.9 1.95 1.95 3.9 0.0 6.6 0.0 L29.15 0.0 Q31.85 0.0 33.7 1.85 L33.8 1.95" fill="#000000" fill-opacity="0.6" fill-rule="evenodd" stroke="none"/>
      <path d="M34.45 6.6 L34.45 19.4 Q34.45 20.9 33.7 22.15 L32.9 23.15 Q31.3 24.7 29.15 24.7 L6.6 24.7 Q4.4 24.7 2.8 23.15 1.3 21.55 1.3 19.4 L1.3 6.6 Q1.3 4.4 2.8 2.8 4.4 1.3 6.6 1.3 L29.15 1.3 Q31.3 1.3 32.9 2.8 L33.7 3.85 Q34.45 5.05 34.45 6.6 M31.75 4.0 Q30.65 2.9 29.15 2.9 L6.6 2.9 Q5.1 2.9 4.0 4.0 2.95 5.1 2.95 6.6 L2.95 19.4 Q2.95 20.9 4.0 22.0 5.1 23.05 6.6 23.05 L29.15 23.05 Q30.6 23.05 31.75 22.0 32.8 20.85 32.8 19.4 L32.8 6.6 Q32.8 5.1 31.75 4.0" fill="#d29968" fill-opacity="0.6" fill-rule="evenodd" stroke="none"/>
      <path d="M32.8 6.6 L32.8 19.4 Q32.8 20.85 31.75 22.0 30.6 23.05 29.15 23.05 L6.6 23.05 Q5.1 23.05 4.0 22.0 2.95 20.9 2.95 19.4 L2.95 6.6 Q2.95 5.1 4.0 4.0 5.1 2.9 6.6 2.9 L29.15 2.9 Q30.65 2.9 31.75 4.0 32.8 5.1 32.8 6.6" fill="#000000" fill-opacity="0.6" fill-rule="evenodd" stroke="none"/>
    </g>
    <g id="shape1" transform="matrix(1.0, 0.0, 0.0, 1.0, 0.0, 0.0)">
      <path d="M0.0 1.3 L1.7 1.3 1.7 12.6 4.55 12.6 4.55 14.1 0.0 14.1 0.0 1.3 M9.75 11.6 L7.2 11.6 6.75 14.1 5.05 14.1 7.85 1.3 9.2 1.3 11.95 14.1 10.25 14.1 9.75 11.6 M8.5 3.75 L7.45 10.25 9.5 10.25 8.5 3.75 M12.8 0.0 L14.4 0.0 14.4 14.1 12.8 14.1 12.8 0.0 M16.15 3.1 L17.75 3.1 17.75 5.5 18.6 5.5 18.6 6.8 17.75 6.8 17.75 14.1 16.15 14.1 16.15 6.8 15.3 6.8 15.3 5.5 16.15 5.5 16.15 3.1" fill="#000000" fill-rule="evenodd" stroke="none"/>
    </g>
  </defs>
</svg>
