<?xml version="1.0" encoding="UTF-8" standalone="no"?>
<svg xmlns:ffdec="https://www.free-decompiler.com/flash" xmlns:xlink="http://www.w3.org/1999/xlink" ffdec:objectType="frame" height="26.05px" width="52.95px" xmlns="http://www.w3.org/2000/svg">
  <g transform="matrix(1.0, 0.0, 0.0, 1.0, 0.0, 0.0)">
    <use ffdec:characterId="3" height="26.0" transform="matrix(1.0, 0.0, 0.0, 1.0, 0.0, 0.0)" width="26.0" xlink:href="#shape0"/>
    <use ffdec:characterId="14" height="4.25" transform="matrix(1.4231, 0.0, 0.0, 1.4231, 7.55, 5.55)" width="4.15" xlink:href="#shape1"/>
    <use ffdec:characterId="14" height="4.25" transform="matrix(1.4231, 0.0, 0.0, 1.4231, 6.75, 4.95)" width="4.15" xlink:href="#shape1"/>
    <use ffdec:characterId="15" height="12.95" transform="matrix(1.0, 0.0, 0.0, 1.0, 14.55, 8.25)" width="5.5" xlink:href="#shape2"/>
    <use ffdec:characterId="15" height="12.95" transform="matrix(1.0, 0.0, 0.0, 1.0, 13.75, 7.65)" width="5.5" xlink:href="#shape2"/>
  </g>
  <defs>
    <g id="shape0" transform="matrix(1.0, 0.0, 0.0, 1.0, 0.0, 0.0)">
      <path d="M22.0 4.0 Q23.05 5.1 23.05 6.6 L23.05 19.4 Q23.05 20.85 22.0 22.0 20.85 23.05 19.4 23.05 L6.6 23.05 Q5.1 23.05 4.0 22.0 2.95 20.9 2.95 19.4 L2.95 6.6 Q2.95 5.1 4.0 4.0 5.1 2.9 6.6 2.9 L19.4 2.9 Q20.9 2.9 22.0 4.0 M26.0 6.6 L26.0 19.4 Q26.0 22.15 24.05 24.05 L23.95 24.15 Q22.1 26.0 19.4 26.0 L6.6 26.0 Q3.9 26.0 1.95 24.05 0.0 22.15 0.0 19.4 L0.0 6.6 Q0.0 3.9 1.95 1.95 3.9 0.0 6.6 0.0 L19.4 0.0 Q22.1 0.0 23.95 1.85 L24.05 1.95 Q26.0 3.9 26.0 6.6 M23.95 3.85 L23.15 2.8 Q21.55 1.3 19.4 1.3 L6.6 1.3 Q4.4 1.3 2.8 2.8 1.3 4.4 1.3 6.6 L1.3 19.4 Q1.3 21.55 2.8 23.15 4.4 24.7 6.6 24.7 L19.4 24.7 Q21.55 24.7 23.15 23.15 L23.95 22.15 Q24.7 20.9 24.7 19.4 L24.7 6.6 Q24.7 5.05 23.95 3.85" fill="#000000" fill-opacity="0.6" fill-rule="evenodd" stroke="none"/>
      <path d="M22.0 4.0 Q20.9 2.9 19.4 2.9 L6.6 2.9 Q5.1 2.9 4.0 4.0 2.95 5.1 2.95 6.6 L2.95 19.4 Q2.95 20.9 4.0 22.0 5.1 23.05 6.6 23.05 L19.4 23.05 Q20.85 23.05 22.0 22.0 23.05 20.85 23.05 19.4 L23.05 6.6 Q23.05 5.1 22.0 4.0 M23.95 3.85 Q24.7 5.05 24.7 6.6 L24.7 19.4 Q24.7 20.9 23.95 22.15 L23.15 23.15 Q21.55 24.7 19.4 24.7 L6.6 24.7 Q4.4 24.7 2.8 23.15 1.3 21.55 1.3 19.4 L1.3 6.6 Q1.3 4.4 2.8 2.8 4.4 1.3 6.6 1.3 L19.4 1.3 Q21.55 1.3 23.15 2.8 L23.95 3.85" fill="#d29968" fill-opacity="0.6" fill-rule="evenodd" stroke="none"/>
    </g>
    <g id="shape1" transform="matrix(1.0, 0.0, 0.0, 1.0, 0.0, 0.0)">
      <path d="M1.85 0.0 L2.3 0.0 4.15 4.25 3.5 4.25 2.1 0.9 0.65 4.25 0.0 4.25 1.85 0.0" fill="#000000" fill-rule="evenodd" stroke="none"/>
    </g>
    <g id="shape2" transform="matrix(1.0, 0.0, 0.0, 1.0, 0.0, 0.0)">
      <path d="M1.75 9.65 L1.85 10.45 2.15 11.15 Q2.4 11.4 2.75 11.45 3.15 11.4 3.35 11.15 L3.65 10.45 3.75 9.65 3.75 8.95 3.75 8.25 3.65 7.4 3.35 6.7 Q3.15 6.45 2.75 6.45 L2.5 6.45 Q2.35 6.5 2.15 6.7 L1.85 7.45 Q1.7 8.0 1.7 8.95 L1.75 9.65 M2.6 0.0 L4.4 0.0 1.9 5.45 1.95 5.5 2.55 5.05 3.25 4.9 Q4.05 4.95 4.5 5.3 4.95 5.7 5.2 6.35 L5.45 7.65 5.5 8.95 5.35 10.85 Q5.15 11.75 4.6 12.35 4.0 12.95 2.75 12.95 1.8 12.95 1.25 12.55 L0.4 11.55 0.05 10.15 0.0 8.6 0.2 6.25 Q0.4 5.15 0.75 4.15 L1.55 2.15 2.6 0.0" fill="#000000" fill-rule="evenodd" stroke="none"/>
    </g>
  </defs>
</svg>
