<?xml version="1.0" encoding="UTF-8" standalone="no"?>
<svg xmlns:ffdec="https://www.free-decompiler.com/flash" xmlns:xlink="http://www.w3.org/1999/xlink" ffdec:objectType="frame" height="26.65px" width="52.95px" xmlns="http://www.w3.org/2000/svg">
  <g transform="matrix(1.0, 0.0, 0.0, 1.0, 0.0, 0.6)">
    <use ffdec:characterId="3" height="26.0" transform="matrix(1.0, 0.0, 0.0, 1.0, 0.0, 0.0)" width="26.0" xlink:href="#shape0"/>
    <use ffdec:characterId="25" height="5.0" transform="matrix(1.4118, 0.0, 0.0, 1.4118, 6.45, 5.05)" width="5.0" xlink:href="#shape1"/>
    <use ffdec:characterId="26" height="4.4" transform="matrix(1.0, 0.0, 0.0, 1.0, 13.0, 14.75)" width="7.0" xlink:href="#shape2"/>
  </g>
  <defs>
    <g id="shape0" transform="matrix(1.0, 0.0, 0.0, 1.0, 0.0, 0.0)">
      <path d="M24.7 2.2 Q24.7 1.85 24.45 1.55 24.15 1.3 23.8 1.3 L2.2 1.3 Q1.85 1.3 1.55 1.55 1.3 1.85 1.3 2.2 L1.3 23.8 Q1.3 24.15 1.55 24.45 1.85 24.7 2.2 24.7 L23.8 24.7 Q24.15 24.7 24.45 24.45 24.7 24.15 24.7 23.8 L24.7 2.2 24.7 2.2" fill="#ffffff" fill-rule="evenodd" stroke="none"/>
    </g>
    <g id="shape1" transform="matrix(1.0, 0.0, 0.0, 1.0, 0.0, 0.0)">
      <path d="M5.0 2.2 L5.0 2.85 2.85 2.85 2.85 5.0 2.15 5.0 2.15 2.85 0.0 2.85 0.0 2.2 2.15 2.2 2.15 0.0 2.85 0.0 2.85 2.2 5.0 2.2" fill="#7a7f83" fill-rule="evenodd" stroke="none"/>
    </g>
    <g id="shape2" transform="matrix(1.0, 0.0, 0.0, 1.0, 0.0, 0.0)">
      <path d="M7.0 0.0 L7.0 1.15 0.0 1.15 0.0 0.0 7.0 0.0 M7.0 3.2 L7.0 4.4 0.0 4.4 0.0 3.2 7.0 3.2" fill="#7a7f83" fill-rule="evenodd" stroke="none"/>
    </g>
  </defs>
</svg>
