<?xml version="1.0" encoding="UTF-8" standalone="no"?>
<svg xmlns:ffdec="https://www.free-decompiler.com/flash" xmlns:xlink="http://www.w3.org/1999/xlink" ffdec:objectType="frame" height="26.65px" width="52.95px" xmlns="http://www.w3.org/2000/svg">
  <g transform="matrix(1.0, 0.0, 0.0, 1.0, 0.0, 0.6)">
    <use ffdec:characterId="3" height="26.0" transform="matrix(1.0, 0.0, 0.0, 1.0, 0.0, 0.0)" width="26.0" xlink:href="#shape0"/>
    <use ffdec:characterId="30" height="14.0" transform="matrix(1.0, 0.0, 0.0, 1.0, 9.6, 6.15)" width="7.05" xlink:href="#shape1"/>
  </g>
  <defs>
    <g id="shape0" transform="matrix(1.0, 0.0, 0.0, 1.0, 0.0, 0.0)">
      <path d="M24.7 2.2 Q24.7 1.85 24.45 1.55 24.15 1.3 23.8 1.3 L2.2 1.3 Q1.85 1.3 1.55 1.55 1.3 1.85 1.3 2.2 L1.3 23.8 Q1.3 24.15 1.55 24.45 1.85 24.7 2.2 24.7 L23.8 24.7 Q24.15 24.7 24.45 24.45 24.7 24.15 24.7 23.8 L24.7 2.2 24.7 2.2" fill="#ffffff" fill-rule="evenodd" stroke="none"/>
    </g>
    <g id="shape1" transform="matrix(1.0, 0.0, 0.0, 1.0, 0.0, 0.0)">
      <path d="M4.35 2.3 Q4.0 1.65 3.35 1.6 2.7 1.65 2.35 2.3 2.0 2.95 1.9 4.1 L1.8 6.6 1.9 9.1 Q2.0 10.2 2.35 10.9 2.7 11.55 3.35 11.55 L3.75 11.5 4.05 11.3 2.95 9.75 4.0 8.95 4.65 9.85 4.7 9.85 4.8 8.25 4.9 6.6 4.8 4.1 4.35 2.3 M3.35 0.0 Q4.35 0.05 4.95 0.45 L5.95 1.65 6.45 3.3 6.65 5.0 6.7 6.6 6.65 8.2 6.4 10.0 5.9 11.6 7.05 13.2 5.95 14.0 5.05 12.65 4.3 13.05 3.35 13.15 Q2.35 13.15 1.75 12.7 1.1 12.25 0.75 11.5 L0.25 9.9 0.05 8.15 0.0 6.6 0.05 5.0 0.25 3.3 Q0.4 2.4 0.75 1.65 1.1 0.9 1.75 0.45 2.35 0.05 3.35 0.0" fill="#7a7f83" fill-rule="evenodd" stroke="none"/>
    </g>
  </defs>
</svg>
