<?xml version="1.0" encoding="UTF-8" standalone="no"?>
<svg xmlns:ffdec="https://www.free-decompiler.com/flash" xmlns:xlink="http://www.w3.org/1999/xlink" ffdec:objectType="frame" height="26.65px" width="52.95px" xmlns="http://www.w3.org/2000/svg">
  <g transform="matrix(1.0, 0.0, 0.0, 1.0, 0.0, 0.6)">
    <use ffdec:characterId="1" height="26.0" transform="matrix(1.0, 0.0, 0.0, 1.0, 0.0, 0.0)" width="35.75" xlink:href="#shape0"/>
    <use ffdec:characterId="110" height="13.15" transform="matrix(1.0, 0.0, 0.0, 1.0, 5.8, 6.4)" width="24.15" xlink:href="#shape1"/>
  </g>
  <defs>
    <g id="shape0" transform="matrix(1.0, 0.0, 0.0, 1.0, 0.0, 0.0)">
      <path d="M34.45 2.2 Q34.45 1.85 34.2 1.55 33.9 1.3 33.55 1.3 L2.2 1.3 Q1.8 1.3 1.55 1.55 1.3 1.85 1.3 2.2 L1.3 23.8 Q1.3 24.15 1.55 24.45 1.8 24.7 2.2 24.7 L33.55 24.7 Q33.9 24.7 34.2 24.45 34.45 24.15 34.45 23.8 L34.45 2.2 34.45 2.2" fill="#ffffff" fill-rule="evenodd" stroke="none"/>
    </g>
    <g id="shape1" transform="matrix(1.0, 0.0, 0.0, 1.0, 0.0, 0.0)">
      <path d="M3.4 2.7 L2.95 1.9 1.95 1.65 1.7 1.65 1.7 5.9 Q2.75 5.95 3.15 5.4 3.55 4.85 3.55 3.75 L3.4 2.7 M4.25 0.65 L5.05 1.7 5.35 3.6 Q5.35 5.55 4.5 6.5 3.65 7.4 1.7 7.3 L1.7 13.0 0.0 13.0 0.0 0.2 2.05 0.2 3.15 0.25 4.25 0.65 M9.75 5.85 L9.5 5.85 Q8.6 5.85 8.25 6.3 7.9 6.75 7.9 7.6 L7.9 13.0 6.3 13.0 6.3 4.4 7.9 4.4 7.9 5.45 7.95 5.45 8.65 4.6 Q9.1 4.3 9.75 4.3 L9.75 5.85 M10.3 5.7 L10.3 4.4 11.15 4.4 11.15 2.0 12.75 2.0 12.75 4.4 13.6 4.4 13.6 5.7 12.75 5.7 12.75 13.0 11.15 13.0 11.15 5.7 10.3 5.7 M18.0 0.1 L18.85 0.45 18.85 2.15 18.15 1.75 17.4 1.6 Q16.7 1.65 16.3 2.1 15.9 2.55 15.9 3.25 L16.0 4.0 16.35 4.65 17.65 6.05 18.6 7.15 19.25 8.35 19.45 9.8 Q19.45 10.75 19.1 11.5 L18.05 12.7 16.45 13.15 15.45 13.0 Q15.0 12.9 14.6 12.55 L14.6 10.85 15.35 11.3 16.25 11.5 17.1 11.25 17.6 10.6 17.75 9.7 Q17.75 8.95 17.4 8.4 L16.5 7.35 15.45 6.3 14.55 5.0 Q14.2 4.3 14.15 3.3 14.15 2.4 14.5 1.65 14.8 0.9 15.45 0.45 16.1 0.0 17.05 0.0 L18.0 0.1 M21.5 4.75 Q22.0 4.3 22.9 4.3 L23.55 4.35 24.15 4.55 24.15 6.2 23.85 5.9 23.4 5.75 Q22.85 5.8 22.6 6.1 22.3 6.4 22.15 6.85 L22.0 7.8 22.0 8.65 22.0 9.45 22.15 10.45 22.55 11.3 Q22.85 11.65 23.35 11.65 L23.8 11.55 24.15 11.3 24.15 12.8 23.55 13.05 22.85 13.15 Q22.05 13.1 21.55 12.7 21.0 12.25 20.75 11.6 20.5 10.95 20.4 10.2 L20.35 8.8 20.4 7.35 Q20.5 6.55 20.75 5.85 21.0 5.15 21.5 4.75" fill="#7a7f83" fill-rule="evenodd" stroke="none"/>
    </g>
  </defs>
</svg>
