<?xml version="1.0" encoding="UTF-8" standalone="no"?>
<svg xmlns:ffdec="https://www.free-decompiler.com/flash" xmlns:xlink="http://www.w3.org/1999/xlink" ffdec:objectType="frame" height="26.65px" width="52.95px" xmlns="http://www.w3.org/2000/svg">
  <g transform="matrix(1.0, 0.0, 0.0, 1.0, 0.0, 0.6)">
    <use ffdec:characterId="1" height="26.0" transform="matrix(1.0, 0.0, 0.0, 1.0, 0.0, 0.0)" width="35.75" xlink:href="#shape0"/>
    <use ffdec:characterId="114" height="16.45" transform="matrix(1.0, 0.0, 0.0, 1.0, 4.9, 5.85)" width="25.95" xlink:href="#shape1"/>
  </g>
  <defs>
    <g id="shape0" transform="matrix(1.0, 0.0, 0.0, 1.0, 0.0, 0.0)">
      <path d="M34.45 2.2 Q34.45 1.85 34.2 1.55 33.9 1.3 33.55 1.3 L2.2 1.3 Q1.8 1.3 1.55 1.55 1.3 1.85 1.3 2.2 L1.3 23.8 Q1.3 24.15 1.55 24.45 1.8 24.7 2.2 24.7 L33.55 24.7 Q33.9 24.7 34.2 24.45 34.45 24.15 34.45 23.8 L34.45 2.2 34.45 2.2" fill="#ffffff" fill-rule="evenodd" stroke="none"/>
    </g>
    <g id="shape1" transform="matrix(1.0, 0.0, 0.0, 1.0, 0.0, 0.0)">
      <path d="M3.15 0.05 L4.25 0.45 5.05 1.5 5.35 3.4 Q5.35 5.35 4.5 6.3 3.65 7.2 1.7 7.1 L1.7 12.8 0.0 12.8 0.0 0.0 2.05 0.0 3.15 0.05 M3.4 2.5 L2.95 1.7 1.95 1.45 1.7 1.45 1.7 5.7 Q2.75 5.75 3.15 5.2 3.55 4.65 3.55 3.55 L3.4 2.5 M9.3 5.9 Q9.05 5.5 8.7 5.5 L8.05 5.9 7.75 6.75 7.7 7.75 7.7 8.45 7.7 9.2 7.75 10.25 8.05 11.15 Q8.3 11.5 8.75 11.5 9.15 11.5 9.4 11.15 L9.65 10.3 9.75 9.3 9.7 8.55 9.7 7.8 9.6 6.75 9.3 5.9 M9.7 5.2 L9.7 4.2 11.3 4.2 11.3 12.85 11.0 15.15 10.15 16.2 8.7 16.45 Q7.55 16.45 6.85 15.8 6.2 15.2 6.15 14.0 L6.15 13.75 7.7 13.75 7.8 14.35 8.1 14.85 8.75 15.05 Q9.25 15.0 9.45 14.75 L9.7 14.05 9.7 13.2 9.7 11.8 9.65 11.8 9.1 12.65 8.15 12.95 Q7.4 12.9 6.95 12.45 L6.3 11.3 6.1 9.85 6.05 8.55 6.05 7.3 6.3 5.8 Q6.45 5.05 6.9 4.6 7.35 4.1 8.1 4.1 L9.1 4.4 9.65 5.25 9.7 5.2 M17.25 0.0 L18.95 0.0 18.95 9.1 18.95 10.4 18.6 11.65 17.75 12.6 16.05 12.95 Q14.7 12.95 14.05 12.4 13.45 11.85 13.25 10.9 13.05 10.0 13.1 8.8 L13.1 0.0 14.8 0.0 14.8 9.4 Q14.8 10.2 14.95 10.65 L15.35 11.2 16.0 11.35 16.85 11.15 17.2 10.5 17.25 9.55 17.25 0.0 M22.35 4.2 L22.35 5.3 22.95 4.4 Q23.3 4.1 23.95 4.1 24.7 4.1 25.1 4.6 L25.7 5.8 25.95 7.3 25.95 8.6 25.95 9.9 25.7 11.3 25.05 12.45 Q24.65 12.9 23.9 12.95 L22.95 12.65 22.35 11.85 22.35 16.3 20.75 16.3 20.75 4.2 22.35 4.2 M23.3 5.5 Q22.9 5.55 22.65 5.9 22.45 6.25 22.4 6.75 L22.3 7.75 22.3 8.5 22.3 9.25 22.4 10.3 22.65 11.15 23.3 11.5 24.0 11.05 24.3 9.95 24.35 8.5 24.35 7.75 24.25 6.75 Q24.2 6.25 23.95 5.9 23.7 5.55 23.3 5.5" fill="#7a7f83" fill-rule="evenodd" stroke="none"/>
    </g>
  </defs>
</svg>
