<?xml version="1.0" encoding="UTF-8" standalone="no"?>
<svg xmlns:ffdec="https://www.free-decompiler.com/flash" xmlns:xlink="http://www.w3.org/1999/xlink" ffdec:objectType="frame" height="26.65px" width="52.95px" xmlns="http://www.w3.org/2000/svg">
  <g transform="matrix(1.0, 0.0, 0.0, 1.0, 0.0, 0.6)">
    <use ffdec:characterId="3" height="26.0" transform="matrix(1.0, 0.0, 0.0, 1.0, 0.0, 0.0)" width="26.0" xlink:href="#shape0"/>
    <use ffdec:characterId="37" height="12.8" transform="matrix(1.0, 0.0, 0.0, 1.0, 10.45, 6.6)" width="5.35" xlink:href="#shape1"/>
  </g>
  <defs>
    <g id="shape0" transform="matrix(1.0, 0.0, 0.0, 1.0, 0.0, 0.0)">
      <path d="M24.7 2.2 Q24.7 1.85 24.45 1.55 24.15 1.3 23.8 1.3 L2.2 1.3 Q1.85 1.3 1.55 1.55 1.3 1.85 1.3 2.2 L1.3 23.8 Q1.3 24.15 1.55 24.45 1.85 24.7 2.2 24.7 L23.8 24.7 Q24.15 24.7 24.45 24.45 24.7 24.15 24.7 23.8 L24.7 2.2 24.7 2.2" fill="#ffffff" fill-rule="evenodd" stroke="none"/>
    </g>
    <g id="shape1" transform="matrix(1.0, 0.0, 0.0, 1.0, 0.0, 0.0)">
      <path d="M4.25 0.45 L5.05 1.5 5.35 3.4 Q5.35 5.35 4.5 6.3 3.65 7.2 1.7 7.1 L1.7 12.8 0.0 12.8 0.0 0.0 2.05 0.0 3.15 0.05 4.25 0.45 M3.4 2.5 L2.95 1.7 1.95 1.45 1.7 1.45 1.7 5.7 Q2.75 5.75 3.15 5.2 3.55 4.65 3.55 3.55 L3.4 2.5" fill="#7a7f83" fill-rule="evenodd" stroke="none"/>
    </g>
  </defs>
</svg>
