<?xml version="1.0" encoding="UTF-8" standalone="no"?>
<svg xmlns:ffdec="https://www.free-decompiler.com/flash" xmlns:xlink="http://www.w3.org/1999/xlink" ffdec:objectType="frame" height="26.65px" width="52.95px" xmlns="http://www.w3.org/2000/svg">
  <g transform="matrix(1.0, 0.0, 0.0, 1.0, 0.0, 0.6)">
    <use ffdec:characterId="164" height="26.0" transform="matrix(1.0, 0.0, 0.0, 1.0, 0.0, 0.0)" width="26.0" xlink:href="#shape0"/>
  </g>
  <defs>
    <g id="shape0" transform="matrix(1.0, 0.0, 0.0, 1.0, 0.0, 0.0)">
      <path d="M23.0 13.0 Q23.0 14.0 22.8 15.0 22.6 16.0 22.2 16.9 21.85 17.8 21.3 18.6 20.75 19.4 20.05 20.05 19.4 20.75 18.6 21.3 17.8 21.85 16.9 22.2 16.0 22.6 15.0 22.8 14.0 23.0 13.0 23.0 12.0 23.0 11.0 22.8 10.0 22.6 9.1 22.2 8.2 21.85 7.4 21.3 6.6 20.75 5.95 20.05 5.25 19.4 4.7 18.6 4.15 17.8 3.8 16.9 3.4 16.0 3.2 15.0 3.0 14.0 3.0 13.0 3.0 12.0 3.2 11.0 3.4 10.0 3.8 9.1 4.15 8.2 4.7 7.4 5.25 6.6 5.95 5.95 6.6 5.25 7.4 4.7 8.2 4.15 9.1 3.8 10.0 3.4 11.0 3.2 12.0 3.0 13.0 3.0 14.0 3.0 15.0 3.2 16.0 3.4 16.9 3.8 17.8 4.15 18.6 4.7 19.4 5.25 20.05 5.95 20.75 6.6 21.3 7.4 21.85 8.2 22.2 9.1 22.6 10.0 22.8 11.0 23.0 12.0 23.0 13.0 L23.0 13.0" fill="#000000" fill-rule="evenodd" stroke="none"/>
      <path d="M13.0 3.0 Q11.95 3.0 10.95 3.2 9.95 3.4 9.05 3.75 8.15 4.15 7.35 4.65 6.55 5.2 5.85 5.85 5.2 6.55 4.65 7.35 4.15 8.15 3.75 9.05 3.4 9.95 3.2 10.95 3.0 11.95 3.0 13.0 3.0 14.05 3.2 15.05 3.4 16.05 3.75 16.95 4.15 17.85 4.65 18.65 5.2 19.45 5.85 20.15 6.55 20.8 7.35 21.35 8.15 21.85 9.05 22.25 9.95 22.6 10.95 22.8 11.95 23.0 13.0 23.0 14.05 23.0 15.05 22.8 16.05 22.6 16.95 22.25 17.85 21.85 18.65 21.35 19.45 20.8 20.15 20.15 20.8 19.45 21.35 18.65 21.85 17.85 22.25 16.95 22.6 16.05 22.8 15.05 23.0 14.05 23.0 13.0 23.0 11.95 22.8 10.95 22.6 9.95 22.25 9.05 21.85 8.15 21.35 7.35 20.8 6.55 20.15 5.85 19.45 5.2 18.65 4.65 17.85 4.15 16.95 3.75 16.05 3.4 15.05 3.2 14.05 3.0 13.0 3.0 L13.0 3.0 M13.0 4.0 Q14.0 4.0 14.9 4.15 15.85 4.35 16.65 4.65 17.45 4.95 18.2 5.45 18.9 5.9 19.5 6.5 20.1 7.1 20.55 7.8 21.05 8.55 21.35 9.35 21.65 10.15 21.85 11.1 22.0 12.0 22.0 13.0 22.0 14.0 21.85 14.9 21.65 15.85 21.35 16.65 21.05 17.45 20.55 18.2 20.1 18.9 19.5 19.5 18.9 20.1 18.2 20.55 17.45 21.0 16.65 21.35 15.85 21.65 14.9 21.85 14.0 22.0 13.0 22.0 12.0 22.0 11.1 21.85 10.15 21.65 9.35 21.35 8.55 21.0 7.8 20.55 7.1 20.1 6.5 19.5 5.9 18.9 5.45 18.2 5.0 17.45 4.65 16.65 4.35 15.85 4.15 14.9 4.0 14.0 4.0 13.0 4.0 12.0 4.15 11.1 4.35 10.15 4.65 9.35 5.0 8.55 5.45 7.8 5.9 7.1 6.5 6.5 7.1 5.9 7.8 5.45 8.55 4.95 9.35 4.65 10.15 4.35 11.1 4.15 12.0 4.0 13.0 4.0 L13.0 4.0" fill="#ffffff" fill-rule="evenodd" stroke="none"/>
      <path d="M7.55 6.6 L9.25 6.6 9.25 17.9 12.1 17.9 12.1 19.4 7.55 19.4 7.55 6.6 M16.65 9.15 L16.4 8.35 Q16.2 7.95 15.7 7.95 15.3 7.95 15.05 8.25 14.85 8.5 14.8 8.9 L14.7 9.6 14.7 10.0 13.1 10.0 13.1 9.9 Q13.05 8.9 13.25 8.15 13.4 7.35 14.0 6.9 14.55 6.45 15.65 6.45 16.75 6.45 17.3 6.85 17.9 7.3 18.15 8.05 L18.35 9.75 18.25 10.95 17.9 12.05 Q17.55 12.55 16.9 12.75 L16.9 12.8 17.95 13.45 18.4 14.5 18.5 15.75 18.25 17.65 Q18.0 18.5 17.35 19.05 16.7 19.55 15.55 19.55 14.1 19.55 13.45 18.8 12.85 18.0 12.85 16.6 L12.85 16.2 14.5 16.2 14.5 16.6 14.6 17.3 14.9 17.8 15.55 18.05 16.25 17.75 16.6 17.15 16.75 16.35 16.75 15.65 16.65 14.6 16.2 13.8 15.25 13.5 14.75 13.5 14.75 11.95 14.95 11.95 16.05 11.8 16.55 11.15 16.7 10.0 16.65 9.15" fill="#c6c8cb" fill-rule="evenodd" stroke="none"/>
    </g>
  </defs>
</svg>
