<?xml version="1.0" encoding="UTF-8" standalone="no"?>
<svg xmlns:ffdec="https://www.free-decompiler.com/flash" xmlns:xlink="http://www.w3.org/1999/xlink" ffdec:objectType="frame" height="26.65px" width="52.95px" xmlns="http://www.w3.org/2000/svg">
  <g transform="matrix(1.0, 0.0, 0.0, 1.0, 0.0, 0.6)">
    <use ffdec:characterId="161" height="26.0" transform="matrix(1.0, 0.0, 0.0, 1.0, 0.0, 0.0)" width="26.0" xlink:href="#shape0"/>
  </g>
  <defs>
    <g id="shape0" transform="matrix(1.0, 0.0, 0.0, 1.0, 0.0, 0.0)">
      <path d="M2.9 3.0 Q2.85 3.0 2.7 3.0 2.6 3.0 2.55 3.0 2.45 3.0 2.35 3.0 2.25 3.0 2.2 3.0 2.1 3.05 2.0 3.05 1.95 3.1 1.85 3.1 1.8 3.15 1.7 3.25 1.65 3.3 1.6 3.4 1.55 3.5 1.5 3.55 1.45 3.65 1.4 3.75 1.4 3.85 1.35 4.0 1.35 4.1 1.35 4.2 1.3 4.35 1.3 4.45 1.3 4.6 1.3 4.7 1.3 4.8 1.3 5.0 1.3 5.2 1.3 5.3 1.3 5.55 1.3 7.25 1.3 8.5 1.3 9.3 1.3 10.4 1.35 11.3 1.35 12.4 1.4 13.3 1.45 14.35 1.55 15.2 1.6 16.15 1.75 16.95 1.85 17.8 2.0 18.5 2.2 19.25 2.4 19.85 2.5 20.15 2.65 20.4 2.75 20.65 2.9 20.9 3.05 21.1 3.2 21.3 3.4 21.5 3.55 21.7 3.7 21.85 3.9 22.0 4.05 22.15 4.25 22.25 4.4 22.4 4.6 22.5 4.8 22.55 5.0 22.65 5.2 22.7 5.35 22.75 5.5 22.8 5.65 22.85 5.8 22.9 5.95 22.9 6.05 22.95 6.2 22.95 6.3 23.0 6.45 23.0 6.55 23.0 6.65 23.0 6.8 23.0 6.9 23.0 6.9 23.0 7.2 23.0 L13.75 23.0 Q15.35 23.0 15.9 22.95 16.7 22.9 17.95 22.6 18.3 22.55 18.6 22.45 18.95 22.35 19.25 22.25 19.6 22.1 19.9 22.0 20.2 21.85 20.5 21.65 20.8 21.5 21.05 21.3 21.35 21.1 21.6 20.85 21.85 20.6 22.1 20.3 22.35 20.0 22.55 19.7 22.75 19.35 22.95 19.0 23.15 18.65 23.3 18.25 23.45 17.85 23.6 17.45 23.75 17.05 23.85 16.6 23.95 16.15 24.05 15.7 24.15 15.25 24.2 14.75 24.3 14.3 24.35 13.8 24.4 13.3 24.45 12.8 24.7 10.15 24.7 5.3 24.7 5.2 24.7 5.0 24.7 4.85 24.7 4.75 24.7 4.6 24.7 4.45 24.7 4.35 24.7 4.2 24.65 4.1 24.65 4.0 24.65 3.85 24.6 3.75 24.6 3.65 24.55 3.55 24.5 3.45 24.45 3.4 24.4 3.3 24.3 3.25 24.25 3.2 24.15 3.15 24.1 3.1 24.0 3.05 23.95 3.05 23.85 3.05 23.75 3.0 23.7 3.0 23.6 3.0 23.5 3.0 23.45 3.0 23.35 3.0 23.2 3.0 23.15 3.0 L2.9 3.0" fill="#000000" fill-rule="evenodd" stroke="none"/>
      <path d="M2.9 3.0 Q2.25 3.0 2.2 3.0 2.15 3.0 2.1 3.0 2.05 3.05 2.0 3.05 1.95 3.05 1.95 3.1 1.9 3.1 1.85 3.1 1.8 3.15 1.75 3.15 1.75 3.2 1.7 3.25 1.65 3.25 1.65 3.3 1.6 3.35 1.55 3.4 1.5 3.5 1.45 3.6 1.4 3.65 1.4 3.75 1.35 3.85 1.35 4.0 1.35 4.1 1.3 4.2 1.3 4.35 1.3 4.45 1.3 4.6 1.3 4.75 1.3 4.8 1.3 5.0 1.3 5.2 1.3 5.3 1.3 11.5 1.4 13.3 1.5 15.5 1.75 16.95 1.8 17.15 1.8 17.35 1.85 17.55 1.85 17.75 1.9 17.95 1.95 18.15 1.95 18.35 2.0 18.5 2.05 18.7 2.1 18.9 2.15 19.05 2.2 19.2 2.25 19.4 2.3 19.55 2.35 19.7 2.4 19.85 2.45 20.0 2.5 20.15 2.6 20.25 2.65 20.4 2.7 20.55 2.8 20.65 2.85 20.75 2.9 20.9 3.0 21.0 3.05 21.1 3.15 21.2 3.2 21.3 3.3 21.4 3.4 21.5 3.45 21.6 3.55 21.7 3.65 21.8 3.7 21.85 3.8 21.95 3.9 22.0 3.95 22.1 4.05 22.15 4.15 22.2 4.25 22.25 4.35 22.35 4.4 22.4 4.5 22.45 4.6 22.5 4.7 22.55 4.8 22.55 4.9 22.6 5.0 22.65 5.2 22.7 5.35 22.75 5.5 22.8 5.65 22.85 5.8 22.9 5.9 22.9 6.05 22.95 6.2 22.95 6.3 23.0 6.4 23.0 6.55 23.0 6.65 23.0 6.75 23.0 6.9 23.0 6.9 23.0 7.2 23.0 L13.75 23.0 Q15.35 23.0 15.9 22.95 16.7 22.9 17.95 22.6 18.1 22.55 18.3 22.55 18.45 22.5 18.6 22.45 18.8 22.4 18.95 22.35 19.1 22.3 19.25 22.25 19.4 22.2 19.6 22.1 19.75 22.05 19.9 22.0 20.05 21.9 20.2 21.85 20.35 21.75 20.5 21.65 20.65 21.55 20.8 21.5 20.95 21.4 21.05 21.3 21.2 21.2 21.35 21.05 21.45 20.95 21.6 20.85 21.75 20.7 21.85 20.6 21.95 20.45 22.1 20.3 22.2 20.15 22.35 20.0 22.45 19.85 22.55 19.7 22.65 19.55 22.75 19.35 22.85 19.2 22.95 19.0 23.05 18.85 23.15 18.65 23.2 18.45 23.3 18.25 23.4 18.05 23.45 17.85 23.55 17.65 23.6 17.45 23.65 17.25 23.75 17.05 23.8 16.8 23.85 16.6 23.9 16.4 23.95 16.15 24.0 15.95 24.05 15.7 24.1 15.45 24.15 15.25 24.2 15.0 24.2 14.75 24.25 14.5 24.3 14.25 24.3 14.05 24.35 13.8 24.4 13.55 24.4 13.3 24.45 13.05 24.45 12.8 24.7 10.15 24.7 5.3 24.7 5.2 24.7 5.0 24.7 4.85 24.7 4.75 24.7 4.6 24.7 4.45 24.7 4.35 24.7 4.2 24.65 4.1 24.65 4.0 24.65 3.85 24.6 3.75 24.55 3.65 24.55 3.55 24.5 3.45 24.45 3.4 24.4 3.35 24.4 3.3 24.35 3.3 24.3 3.25 24.3 3.2 24.25 3.2 24.2 3.15 24.15 3.15 24.15 3.1 24.1 3.1 24.05 3.1 24.0 3.05 23.95 3.05 23.95 3.05 23.9 3.05 23.85 3.05 23.7 3.0 23.15 3.0 L2.9 3.0 2.9 3.0 M2.9 4.0 L23.15 4.0 Q23.55 4.0 23.6 4.0 23.65 4.1 23.65 4.4 23.7 4.75 23.7 5.3 L23.7 5.3 Q23.7 10.1 23.45 12.7 23.4 13.2 23.35 13.65 23.3 14.15 23.2 14.6 23.15 15.05 23.05 15.5 23.0 15.95 22.85 16.35 22.75 16.75 22.65 17.15 22.5 17.5 22.4 17.85 22.25 18.25 22.05 18.55 21.9 18.85 21.7 19.15 21.5 19.45 21.3 19.65 21.1 19.9 20.9 20.1 20.7 20.35 20.45 20.5 20.25 20.7 20.0 20.8 19.75 20.95 19.45 21.1 19.2 21.2 18.9 21.3 18.65 21.4 18.35 21.5 18.05 21.55 17.75 21.65 16.5 21.9 15.8 21.95 15.35 22.0 13.75 22.0 L7.2 22.0 Q7.15 22.0 6.95 22.0 6.8 22.0 6.7 22.0 6.6 22.0 6.5 22.0 6.4 22.0 6.3 22.0 6.2 21.95 6.1 21.95 6.0 21.9 5.9 21.9 5.8 21.85 5.65 21.8 5.5 21.75 5.35 21.7 5.2 21.65 5.05 21.6 4.95 21.5 4.8 21.45 4.65 21.35 4.5 21.25 4.4 21.1 4.25 21.0 4.15 20.85 4.0 20.7 3.9 20.55 3.75 20.35 3.65 20.15 3.55 19.95 3.45 19.75 3.35 19.5 3.15 19.0 3.0 18.3 2.85 17.65 2.75 16.85 2.65 16.1 2.55 15.15 2.5 14.3 2.45 13.3 2.4 12.4 2.35 11.35 2.35 10.4 2.35 9.3 2.3 8.4 2.3 7.25 2.3 6.75 2.3 5.3 2.3 4.2 2.4 4.0 2.45 4.0 2.6 4.0 2.8 4.0 2.9 4.0 L2.9 4.0" fill="#ffffff" fill-rule="evenodd" stroke="none"/>
      <path d="M12.15 8.05 L12.15 6.6 15.1 6.6 15.1 19.4 13.4 19.4 13.4 8.05 12.15 8.05 M6.8 6.6 L7.8 6.65 8.85 7.0 9.65 8.0 Q9.95 8.65 9.95 9.85 L9.8 11.2 9.3 12.45 8.2 13.15 10.55 19.4 8.8 19.4 6.45 13.1 6.45 19.4 4.75 19.4 4.75 6.6 6.8 6.6 M6.7 8.05 L6.45 8.05 6.45 12.25 Q7.4 12.3 7.8 11.75 8.15 11.2 8.15 10.25 L8.05 9.1 7.65 8.3 Q7.35 8.0 6.7 8.05" fill="#c7c8cc" fill-rule="evenodd" stroke="none"/>
    </g>
  </defs>
</svg>
