<?xml version="1.0" encoding="UTF-8" standalone="no"?>
<svg xmlns:ffdec="https://www.free-decompiler.com/flash" xmlns:xlink="http://www.w3.org/1999/xlink" ffdec:objectType="frame" height="26.65px" width="52.95px" xmlns="http://www.w3.org/2000/svg">
  <g transform="matrix(1.0, 0.0, 0.0, 1.0, 0.0, 0.6)">
    <use ffdec:characterId="154" height="26.0" transform="matrix(1.0, 0.0, 0.0, 1.0, 0.0, 0.0)" width="26.0" xlink:href="#shape0"/>
    <use ffdec:characterId="148" height="11.8" transform="matrix(1.0, 0.0, 0.0, 1.0, 7.9, 7.7)" width="11.9" xlink:href="#shape1"/>
    <use ffdec:characterId="148" height="11.8" transform="matrix(1.0, 0.0, 0.0, 1.0, 7.1, 7.1)" width="11.9" xlink:href="#shape1"/>
  </g>
  <defs>
    <g id="shape0" transform="matrix(1.0, 0.0, 0.0, 1.0, 0.0, 0.0)">
      <path d="M23.0 13.0 Q23.0 8.85 20.05 5.95 17.15 3.0 13.0 3.0 8.85 3.0 5.95 5.95 3.0 8.85 3.0 13.0 3.0 17.15 5.95 20.05 8.85 23.0 13.0 23.0 17.15 23.0 20.05 20.05 23.0 17.15 23.0 13.0 L23.0 13.0" fill="#ffffff" fill-rule="evenodd" stroke="none"/>
      <path d="M18.45 6.45 L13.0 11.9 7.55 6.45 6.45 7.55 11.9 13.0 6.45 18.45 7.55 19.55 13.0 14.1 18.45 19.55 19.55 18.45 14.1 13.0 19.55 7.55 18.45 6.45" fill="#7a7f83" fill-rule="evenodd" stroke="none"/>
    </g>
    <g id="shape1" transform="matrix(1.0, 0.0, 0.0, 1.0, 0.0, 0.0)">
      <path d="M11.9 1.25 L7.25 5.9 11.9 10.55 10.6 11.8 5.95 7.15 1.3 11.8 0.0 10.55 4.65 5.9 0.0 1.25 1.3 0.0 5.95 4.65 6.1 4.55 10.6 0.0 11.9 1.25" fill="#000000" fill-opacity="0.0" fill-rule="evenodd" stroke="none"/>
    </g>
  </defs>
</svg>
