<?xml version="1.0" encoding="UTF-8" standalone="no"?>
<svg xmlns:ffdec="https://www.free-decompiler.com/flash" xmlns:xlink="http://www.w3.org/1999/xlink" ffdec:objectType="frame" height="26.65px" width="52.95px" xmlns="http://www.w3.org/2000/svg">
  <g transform="matrix(1.0, 0.0, 0.0, 1.0, 0.0, 0.6)">
    <use ffdec:characterId="155" height="26.0" transform="matrix(1.0, 0.0, 0.0, 1.0, 0.0, 0.0)" width="26.0" xlink:href="#shape0"/>
  </g>
  <defs>
    <g id="shape0" transform="matrix(1.0, 0.0, 0.0, 1.0, 0.0, 0.0)">
      <path d="M23.0 13.0 Q23.0 8.85 20.05 5.95 17.15 3.0 13.0 3.0 8.85 3.0 5.95 5.95 3.0 8.85 3.0 13.0 3.0 17.15 5.95 20.05 8.85 23.0 13.0 23.0 17.15 23.0 20.05 20.05 23.0 17.15 23.0 13.0 L23.0 13.0" fill="#ffffff" fill-rule="evenodd" stroke="none"/>
      <path d="M13.0 3.95 L12.35 5.1 9.1 10.75 5.15 17.55 13.0 17.55 20.85 17.55 16.9 10.75 13.0 3.95 M13.0 7.05 L15.6 11.5 18.15 16.0 13.0 16.0 7.85 16.0 10.4 11.5 13.0 7.05" fill="#7a7f83" fill-rule="evenodd" stroke="none"/>
    </g>
  </defs>
</svg>
