<?xml version="1.0" encoding="UTF-8" standalone="no"?>
<svg xmlns:ffdec="https://www.free-decompiler.com/flash" xmlns:xlink="http://www.w3.org/1999/xlink" ffdec:objectType="frame" height="26.65px" width="52.95px" xmlns="http://www.w3.org/2000/svg">
  <g transform="matrix(1.0, 0.0, 0.0, 1.0, 0.0, 0.6)">
    <use ffdec:characterId="163" height="26.0" transform="matrix(1.0, 0.0, 0.0, 1.0, 0.0, 0.0)" width="26.0" xlink:href="#shape0"/>
  </g>
  <defs>
    <g id="shape0" transform="matrix(1.0, 0.0, 0.0, 1.0, 0.0, 0.0)">
      <path d="M16.8 3.0 Q16.25 3.0 15.8 3.0 15.1 3.05 14.45 3.1 13.8 3.2 13.15 3.3 12.5 3.4 11.9 3.6 11.25 3.75 10.65 4.0 10.05 4.25 9.45 4.55 8.9 4.85 8.35 5.25 7.8 5.65 7.3 6.15 6.8 6.65 6.3 7.3 5.85 7.9 5.4 8.85 5.0 9.75 4.55 10.9 4.2 11.95 3.8 13.25 3.45 14.35 3.15 15.6 2.85 16.7 2.55 17.85 2.35 18.8 2.15 19.75 2.0 20.4 1.9 21.0 1.85 21.25 1.8 21.5 1.8 21.5 1.75 21.55 1.75 21.6 1.75 21.65 L1.75 21.65 Q1.7 21.8 1.65 22.05 1.65 22.05 1.65 22.05 1.65 22.1 1.65 22.1 1.65 22.1 1.65 22.2 1.65 22.25 1.6 22.3 1.6 22.35 1.6 22.4 1.6 22.45 1.6 22.5 1.6 22.55 1.6 22.6 1.65 22.65 1.65 22.7 1.7 22.7 1.7 22.75 1.75 22.8 1.8 22.85 1.85 22.85 1.85 22.9 1.9 22.9 1.95 22.9 2.0 22.9 2.05 22.95 2.05 22.95 2.1 22.95 2.15 22.95 2.2 22.95 2.25 22.95 2.3 22.95 2.3 23.0 2.35 23.0 2.4 23.0 2.45 23.0 2.5 23.0 2.55 23.0 2.55 23.0 2.6 23.0 2.65 23.0 2.7 23.0 2.75 23.0 2.75 23.0 2.8 23.0 2.85 23.0 L2.85 23.0 2.85 23.0 Q2.9 23.0 3.1 23.0 L23.1 23.0 Q23.4 23.0 23.3 23.0 23.45 23.0 23.5 23.0 23.55 23.0 23.6 23.0 23.7 23.0 23.7 23.0 23.75 23.0 23.8 23.0 23.85 22.95 23.9 22.95 23.9 22.95 23.95 22.95 24.0 22.9 24.1 22.9 24.15 22.9 24.2 22.85 24.25 22.85 24.25 22.8 24.3 22.8 24.35 22.75 24.4 22.75 24.4 22.7 24.45 22.65 24.45 22.65 24.5 22.6 24.55 22.55 24.55 22.5 24.55 22.5 24.6 22.45 24.6 22.4 24.6 22.35 24.65 22.3 24.65 22.3 24.65 22.25 24.65 22.2 24.65 22.2 24.7 22.15 24.7 22.1 24.7 22.1 24.7 22.05 24.7 22.0 24.7 21.95 24.7 21.9 24.7 21.8 24.7 21.75 24.7 21.65 L24.7 12.55 Q24.7 12.15 24.7 11.15 24.7 10.4 24.7 10.0 24.7 9.45 24.65 9.0 24.65 8.55 24.6 8.15 24.5 7.75 24.4 7.4 24.3 7.05 24.15 6.7 23.95 6.4 23.7 6.05 23.45 5.7 23.15 5.35 22.9 5.05 22.55 4.8 22.25 4.55 21.9 4.35 21.55 4.15 21.15 3.95 20.75 3.75 20.35 3.65 19.95 3.5 19.5 3.35 19.1 3.25 18.65 3.2 18.2 3.1 17.75 3.05 17.3 3.0 16.8 3.0 L16.8 3.0" fill="#000000" fill-rule="evenodd" stroke="none"/>
      <path d="M16.8 3.0 Q17.05 3.0 17.25 3.0 17.5 3.05 17.7 3.05 17.95 3.1 18.2 3.1 18.4 3.15 18.65 3.2 18.85 3.2 19.05 3.25 19.3 3.3 19.5 3.35 19.7 3.45 19.95 3.5 20.15 3.55 20.35 3.65 20.55 3.7 20.75 3.8 20.95 3.85 21.15 3.95 21.35 4.05 21.55 4.15 21.7 4.25 21.9 4.35 22.05 4.45 22.25 4.55 22.4 4.7 22.55 4.8 22.7 4.95 22.85 5.05 23.0 5.2 23.15 5.35 23.25 5.45 23.3 5.55 23.4 5.6 23.45 5.7 23.55 5.8 23.6 5.85 23.65 5.95 23.7 6.05 23.8 6.15 23.85 6.2 23.9 6.3 23.95 6.4 24.0 6.45 24.05 6.55 24.1 6.65 24.15 6.7 24.2 6.8 24.25 6.9 24.25 6.95 24.3 7.05 24.35 7.15 24.35 7.25 24.4 7.3 24.4 7.4 24.45 7.5 24.45 7.6 24.5 7.7 24.5 7.8 24.55 7.9 24.55 7.95 24.55 8.05 24.6 8.15 24.7 8.85 24.7 12.55 L24.7 21.65 Q24.7 22.0 24.7 22.1 24.7 22.2 24.6 22.4 24.6 22.45 24.55 22.5 24.55 22.5 24.5 22.55 24.5 22.6 24.45 22.65 24.45 22.65 24.4 22.7 24.35 22.75 24.35 22.75 24.3 22.8 24.25 22.8 24.2 22.85 24.15 22.85 24.1 22.9 24.1 22.9 23.9 22.95 23.85 22.95 23.75 23.0 23.6 23.0 23.5 23.0 23.1 23.0 L3.1 23.0 Q2.95 23.0 2.85 23.0 L2.85 23.0 Q2.8 23.0 2.65 23.0 2.55 23.0 2.45 23.0 2.45 23.0 2.35 23.0 2.3 23.0 2.3 23.0 2.25 22.95 2.2 22.95 2.15 22.95 2.1 22.95 2.05 22.95 2.05 22.95 2.0 22.9 1.95 22.9 1.9 22.9 1.85 22.85 1.85 22.85 1.8 22.85 1.75 22.85 1.75 22.8 1.7 22.8 1.7 22.75 1.7 22.7 1.65 22.7 1.65 22.65 1.65 22.65 1.65 22.6 1.6 22.55 1.6 22.55 1.6 22.5 1.6 22.5 1.6 22.45 1.6 22.4 1.6 22.4 1.6 22.35 1.6 22.35 1.6 22.3 1.6 22.25 1.65 22.2 1.65 22.2 1.65 22.15 1.65 22.15 1.65 22.1 1.65 22.1 1.65 22.1 1.65 22.05 1.7 21.8 1.75 21.65 L1.75 21.65 Q1.75 21.6 1.8 21.5 1.8 21.5 1.8 21.35 1.85 21.25 1.9 21.0 1.95 20.75 2.0 20.45 2.05 20.1 2.15 19.75 2.25 19.3 2.35 18.85 2.45 18.35 2.55 17.85 2.7 17.3 2.85 16.8 3.0 16.2 3.15 15.6 3.2 15.3 3.3 15.0 3.4 14.7 3.45 14.4 3.55 14.1 3.65 13.8 3.7 13.5 3.8 13.2 3.9 12.9 4.0 12.65 4.1 12.35 4.2 12.05 4.3 11.75 4.35 11.45 4.45 11.15 4.55 10.9 4.65 10.6 4.75 10.35 4.85 10.05 5.0 9.8 5.1 9.55 5.2 9.3 5.3 9.05 5.4 8.85 5.55 8.6 5.65 8.4 5.75 8.2 5.85 8.0 6.0 7.8 6.1 7.6 6.2 7.45 6.35 7.3 6.45 7.15 6.6 7.0 6.7 6.85 6.8 6.7 6.95 6.55 7.05 6.4 7.15 6.3 7.3 6.15 7.4 6.05 7.55 5.9 7.7 5.8 7.8 5.7 7.95 5.55 8.1 5.45 8.2 5.35 8.35 5.25 8.5 5.15 8.6 5.05 8.75 4.95 8.9 4.85 9.05 4.8 9.2 4.7 9.35 4.6 9.45 4.55 9.6 4.45 9.75 4.4 9.9 4.3 10.05 4.25 10.2 4.15 10.35 4.1 10.5 4.05 10.65 4.0 10.95 3.9 11.25 3.8 11.55 3.7 11.9 3.6 12.2 3.5 12.55 3.45 12.85 3.35 13.15 3.3 13.5 3.25 13.85 3.2 14.15 3.15 14.5 3.15 14.8 3.1 15.15 3.05 15.45 3.05 15.8 3.0 15.95 3.0 16.3 3.0 16.65 3.0 16.8 3.0 L16.8 3.0 M16.8 3.95 Q16.75 3.95 16.7 3.95 16.6 3.95 16.55 3.95 16.5 3.95 16.45 3.95 16.4 3.95 16.35 3.95 16.25 3.95 16.2 3.95 16.15 3.95 16.1 3.95 16.05 3.95 16.0 3.95 15.95 3.95 15.9 3.95 15.2 4.0 14.65 4.05 14.0 4.1 13.4 4.2 12.8 4.3 12.25 4.45 11.65 4.6 11.15 4.8 10.55 5.0 10.05 5.3 9.55 5.6 9.05 5.95 8.6 6.3 8.15 6.75 7.65 7.25 7.25 7.8 7.05 8.05 6.85 8.4 6.65 8.75 6.45 9.2 6.25 9.6 6.05 10.1 5.85 10.6 5.65 11.15 5.45 11.7 5.25 12.3 5.05 12.85 4.9 13.45 4.7 14.05 4.5 14.65 4.35 15.25 4.2 15.85 3.55 18.75 2.85 21.65 L2.85 21.65 2.85 21.7 Q2.85 21.7 2.85 21.75 L2.85 21.75 2.8 21.85 2.8 21.85 Q2.8 21.95 2.75 22.05 2.8 22.05 2.85 22.05 L2.85 22.05 3.55 22.05 23.1 22.05 Q23.45 22.05 23.55 22.05 23.6 21.95 23.6 21.95 23.6 21.95 23.6 21.65 L23.6 12.55 Q23.6 8.95 23.5 8.3 23.45 8.1 23.45 7.95 23.4 7.8 23.35 7.65 23.3 7.5 23.25 7.35 23.2 7.2 23.15 7.1 23.05 6.95 23.0 6.8 22.9 6.65 22.8 6.55 22.7 6.4 22.55 6.25 22.45 6.1 22.3 5.95 22.1 5.7 21.8 5.5 21.55 5.3 21.25 5.1 20.95 4.95 20.6 4.8 20.3 4.65 19.9 4.5 19.55 4.35 19.2 4.25 18.8 4.2 18.4 4.1 18.0 4.05 17.6 4.0 17.2 3.95 16.8 3.95 L16.8 3.95" fill="#ffffff" fill-rule="evenodd" stroke="none"/>
      <path d="M10.7 6.7 L12.4 6.7 12.4 18.0 15.25 18.0 15.25 19.5 10.7 19.5 10.7 6.7 M21.7 9.7 Q21.7 10.65 21.3 11.8 L20.45 14.0 19.5 15.95 18.4 18.0 21.6 18.0 21.6 19.5 15.95 19.5 19.05 12.9 19.65 11.3 19.95 9.6 19.85 8.9 19.5 8.3 Q19.25 8.05 18.8 8.05 18.4 8.05 18.15 8.35 17.95 8.65 17.9 9.1 L17.8 9.9 17.85 10.5 17.85 10.85 16.1 10.85 16.1 10.4 Q16.1 9.35 16.25 8.5 16.45 7.6 17.0 7.05 17.6 6.55 18.85 6.55 20.4 6.55 21.05 7.35 21.7 8.2 21.7 9.7" fill="#c7c8cc" fill-rule="evenodd" stroke="none"/>
    </g>
  </defs>
</svg>
