<?xml version="1.0" encoding="UTF-8" standalone="no"?>
<svg xmlns:ffdec="https://www.free-decompiler.com/flash" xmlns:xlink="http://www.w3.org/1999/xlink" ffdec:objectType="frame" height="26.65px" width="52.95px" xmlns="http://www.w3.org/2000/svg">
  <g transform="matrix(1.0, 0.0, 0.0, 1.0, 0.0, 0.6)">
    <use ffdec:characterId="27" height="26.0" transform="matrix(1.0, 0.0, 0.0, 1.0, 0.0, 0.0)" width="41.75" xlink:href="#shape0"/>
    <use ffdec:characterId="140" height="14.25" transform="matrix(1.0, 0.0, 0.0, 1.0, 5.25, 5.9)" width="31.25" xlink:href="#shape1"/>
  </g>
  <defs>
    <g id="shape0" transform="matrix(1.0, 0.0, 0.0, 1.0, 0.0, 0.0)">
      <path d="M40.45 2.25 Q40.45 1.85 40.2 1.6 39.9 1.35 39.55 1.35 L2.2 1.35 Q1.85 1.35 1.55 1.6 1.3 1.85 1.3 2.25 L1.3 23.8 Q1.3 24.2 1.55 24.45 1.85 24.7 2.2 24.7 L39.55 24.7 Q39.9 24.7 40.2 24.45 40.45 24.2 40.45 23.8 L40.45 2.25 40.45 2.25" fill="#ffffff" fill-rule="evenodd" stroke="none"/>
    </g>
    <g id="shape1" transform="matrix(1.0, 0.0, 0.0, 1.0, 0.0, 0.0)">
      <path d="M8.35 1.3 L10.0 1.3 7.75 14.1 6.4 14.1 5.0 4.6 3.6 14.1 2.2 14.1 0.0 1.3 1.65 1.3 2.85 9.95 2.9 10.9 2.95 10.9 4.35 1.3 5.7 1.3 7.05 10.85 7.1 10.85 8.35 1.3 M12.7 6.0 L13.05 5.7 13.55 5.45 14.1 5.4 Q14.95 5.4 15.35 5.8 L15.8 6.9 15.85 8.2 15.85 14.1 14.25 14.1 14.25 8.15 14.2 7.55 13.95 7.0 13.3 6.8 Q12.8 6.8 12.6 7.15 12.4 7.45 12.35 7.9 L12.35 8.75 12.35 14.1 10.75 14.1 10.75 0.0 12.35 0.0 12.35 6.5 12.4 6.5 12.7 6.0 M29.65 0.0 L31.25 0.0 31.25 14.1 29.65 14.1 29.65 0.0 M21.85 6.95 L22.2 8.4 22.25 9.85 22.25 10.1 18.75 10.1 18.75 10.85 18.85 11.75 19.15 12.5 Q19.35 12.8 19.75 12.8 L20.35 12.55 20.65 11.95 20.75 11.2 22.2 11.2 21.95 12.7 21.15 13.8 Q20.6 14.2 19.7 14.25 18.8 14.2 18.3 13.8 L17.5 12.75 17.15 11.3 17.1 9.85 17.15 8.45 Q17.25 7.65 17.5 6.95 17.75 6.25 18.25 5.85 18.8 5.4 19.65 5.4 20.55 5.4 21.05 5.85 L21.85 6.95 M20.6 8.35 L20.5 7.65 20.2 7.05 19.65 6.8 Q19.3 6.8 19.1 7.05 L18.8 7.65 18.75 8.35 18.75 9.0 20.65 9.0 20.6 8.35 M24.95 7.65 L24.9 8.35 24.9 9.0 26.8 9.0 26.75 8.35 26.65 7.65 26.35 7.05 Q26.15 6.8 25.8 6.8 25.45 6.8 25.25 7.05 L24.95 7.65 M25.8 5.4 Q26.7 5.4 27.2 5.85 27.7 6.25 28.0 6.95 L28.35 8.4 28.4 9.85 28.4 10.1 24.9 10.1 24.9 10.85 25.0 11.75 25.3 12.5 Q25.5 12.8 25.9 12.8 L26.5 12.55 26.8 11.95 26.9 11.2 28.35 11.2 28.1 12.7 27.3 13.8 Q26.75 14.2 25.85 14.25 24.95 14.2 24.45 13.8 23.9 13.4 23.65 12.75 L23.3 11.3 23.25 9.85 23.3 8.45 Q23.4 7.65 23.65 6.95 23.9 6.25 24.4 5.85 24.95 5.4 25.8 5.4" fill="#7a7f83" fill-rule="evenodd" stroke="none"/>
    </g>
  </defs>
</svg>
