<?xml version="1.0" encoding="UTF-8" standalone="no"?>
<svg xmlns:ffdec="https://www.free-decompiler.com/flash" xmlns:xlink="http://www.w3.org/1999/xlink" ffdec:objectType="frame" height="26.65px" width="52.95px" xmlns="http://www.w3.org/2000/svg">
  <g transform="matrix(1.0, 0.0, 0.0, 1.0, 0.0, 0.6)">
    <use ffdec:characterId="132" height="26.0" transform="matrix(1.0, 0.0, 0.0, 1.0, 0.05, 0.05)" width="26.0" xlink:href="#shape0"/>
    <use ffdec:characterId="149" height="14.1" transform="matrix(1.0, 0.0, 0.0, 1.0, 6.8, 6.6)" width="14.1" xlink:href="#shape1"/>
    <use ffdec:characterId="149" height="14.1" transform="matrix(1.0, 0.0, 0.0, 1.0, 6.0, 6.0)" width="14.1" xlink:href="#shape1"/>
  </g>
  <defs>
    <g id="shape0" transform="matrix(1.0, 0.0, 0.0, 1.0, -0.05, -0.05)">
      <path d="M22.55 13.0 Q22.55 9.05 19.75 6.3 17.0 3.5 13.05 3.5 9.1 3.5 6.35 6.3 3.55 9.05 3.55 13.0 3.55 16.95 6.35 19.7 9.1 22.5 13.05 22.5 17.0 22.5 19.75 19.7 22.55 16.95 22.55 13.0 L22.55 13.0" fill="#000000" fill-opacity="0.6" fill-rule="evenodd" stroke="none"/>
      <path d="M22.55 13.0 Q22.55 9.05 19.75 6.3 17.0 3.5 13.05 3.5 9.1 3.5 6.35 6.3 3.55 9.05 3.55 13.0 3.55 16.95 6.35 19.7 9.1 22.5 13.05 22.5 17.0 22.5 19.75 19.7 22.55 16.95 22.55 13.0 L22.55 13.0 Z" fill="none" stroke="#ffffff" stroke-linecap="round" stroke-linejoin="round" stroke-opacity="0.6" stroke-width="1.0"/>
    </g>
    <g id="shape1" transform="matrix(1.0, 0.0, 0.0, 1.0, 0.0, 0.0)">
      <path d="M13.3 3.75 Q14.1 5.25 14.1 7.05 14.1 8.8 13.4 10.2 L12.0 12.05 11.8 12.25 Q9.8 14.1 7.05 14.1 4.25 14.1 2.25 12.25 L2.05 12.05 Q1.2 11.2 0.7 10.2 0.0 8.8 0.0 7.05 0.0 5.25 0.8 3.75 L2.05 2.1 Q4.1 0.0 7.05 0.0 9.95 0.0 12.0 2.1 L13.3 3.75 M10.45 3.75 L10.35 3.65 Q8.95 2.25 7.0 2.25 5.0 2.25 3.6 3.65 L3.5 3.75 Q2.25 5.1 2.25 7.0 2.25 8.85 3.45 10.2 L3.6 10.4 Q5.0 11.8 7.0 11.8 8.95 11.8 10.35 10.4 L10.55 10.2 Q11.8 8.85 11.8 7.0 11.8 5.1 10.45 3.75" fill="#000000" fill-rule="evenodd" stroke="none"/>
    </g>
  </defs>
</svg>
