<?xml version="1.0" encoding="UTF-8" standalone="no"?>
<svg xmlns:ffdec="https://www.free-decompiler.com/flash" xmlns:xlink="http://www.w3.org/1999/xlink" ffdec:objectType="frame" height="26.65px" width="52.95px" xmlns="http://www.w3.org/2000/svg">
  <g transform="matrix(1.0, 0.0, 0.0, 1.0, 0.0, 0.6)">
    <use ffdec:characterId="3" height="26.0" transform="matrix(1.0, 0.0, 0.0, 1.0, 0.0, 0.0)" width="26.0" xlink:href="#shape0"/>
    <use ffdec:characterId="8" height="8.8" transform="matrix(1.2273, 0.0, 0.0, 1.2273, 5.7, 4.0)" width="5.65" xlink:href="#shape1"/>
    <use ffdec:characterId="9" height="13.1" transform="matrix(1.0, 0.0, 0.0, 1.0, 13.7, 7.5)" width="5.65" xlink:href="#shape2"/>
  </g>
  <defs>
    <g id="shape0" transform="matrix(1.0, 0.0, 0.0, 1.0, 0.0, 0.0)">
      <path d="M24.7 2.2 Q24.7 1.85 24.45 1.55 24.15 1.3 23.8 1.3 L2.2 1.3 Q1.85 1.3 1.55 1.55 1.3 1.85 1.3 2.2 L1.3 23.8 Q1.3 24.15 1.55 24.45 1.85 24.7 2.2 24.7 L23.8 24.7 Q24.15 24.7 24.45 24.45 24.7 24.15 24.7 23.8 L24.7 2.2 24.7 2.2" fill="#ffffff" fill-rule="evenodd" stroke="none"/>
    </g>
    <g id="shape1" transform="matrix(1.0, 0.0, 0.0, 1.0, 0.0, 0.0)">
      <path d="M2.55 3.65 L2.1 5.05 3.1 5.05 3.55 3.65 2.55 3.65 M4.65 0.0 L5.3 0.0 4.4 2.95 5.65 2.95 5.5 3.65 4.2 3.65 3.75 5.05 5.05 5.05 4.85 5.75 3.5 5.75 2.65 8.8 2.0 8.8 2.9 5.75 1.9 5.75 0.95 8.8 0.3 8.8 1.25 5.75 0.0 5.75 0.2 5.05 1.45 5.05 1.9 3.65 0.65 3.65 0.85 2.95 2.1 2.95 3.0 0.0 3.6 0.0 2.75 2.95 3.75 2.95 4.65 0.0" fill="#7a7f83" fill-rule="evenodd" stroke="none"/>
    </g>
    <g id="shape2" transform="matrix(1.0, 0.0, 0.0, 1.0, 0.0, 0.0)">
      <path d="M2.8 0.0 Q3.9 0.0 4.45 0.4 5.05 0.85 5.3 1.6 L5.5 3.3 5.4 4.5 5.05 5.6 4.05 6.3 4.05 6.35 5.1 7.0 5.55 8.05 5.65 9.3 5.4 11.2 Q5.15 12.05 4.5 12.6 3.85 13.1 2.7 13.1 1.25 13.1 0.6 12.35 0.0 11.55 0.0 10.15 L0.0 9.75 1.65 9.75 1.65 10.15 1.75 10.85 2.05 11.35 Q2.3 11.55 2.7 11.6 L3.4 11.3 3.75 10.7 3.9 9.9 3.9 9.2 3.8 8.15 3.35 7.35 Q3.05 7.05 2.4 7.05 L1.9 7.05 1.9 5.5 2.1 5.5 3.2 5.35 3.7 4.7 3.85 3.55 3.8 2.7 3.55 1.9 Q3.35 1.5 2.85 1.5 2.45 1.5 2.2 1.8 2.0 2.05 1.95 2.45 L1.85 3.15 1.85 3.55 0.25 3.55 0.25 3.45 Q0.2 2.45 0.4 1.7 0.55 0.9 1.15 0.45 1.7 0.0 2.8 0.0" fill="#7a7f83" fill-rule="evenodd" stroke="none"/>
    </g>
  </defs>
</svg>
