<?xml version="1.0" encoding="UTF-8" standalone="no"?>
<svg xmlns:ffdec="https://www.free-decompiler.com/flash" xmlns:xlink="http://www.w3.org/1999/xlink" ffdec:objectType="frame" height="26.65px" width="52.95px" xmlns="http://www.w3.org/2000/svg">
  <g transform="matrix(1.0, 0.0, 0.0, 1.0, 0.0, 0.6)">
    <use ffdec:characterId="3" height="26.0" transform="matrix(1.0, 0.0, 0.0, 1.0, 0.0, 0.0)" width="26.0" xlink:href="#shape0"/>
    <use ffdec:characterId="69" height="5.4" transform="matrix(1.4167, 0.0, 0.0, 1.4167, 6.7, 5.05)" width="4.25" xlink:href="#shape1"/>
    <use ffdec:characterId="70" height="2.05" transform="matrix(1.0, 0.0, 0.0, 1.0, 15.65, 18.9)" width="2.0" xlink:href="#shape2"/>
  </g>
  <defs>
    <g id="shape0" transform="matrix(1.0, 0.0, 0.0, 1.0, 0.0, 0.0)">
      <path d="M24.7 2.2 Q24.7 1.85 24.45 1.55 24.15 1.3 23.8 1.3 L2.2 1.3 Q1.85 1.3 1.55 1.55 1.3 1.85 1.3 2.2 L1.3 23.8 Q1.3 24.15 1.55 24.45 1.85 24.7 2.2 24.7 L23.8 24.7 Q24.15 24.7 24.45 24.45 24.7 24.15 24.7 23.8 L24.7 2.2 24.7 2.2" fill="#ffffff" fill-rule="evenodd" stroke="none"/>
    </g>
    <g id="shape1" transform="matrix(1.0, 0.0, 0.0, 1.0, 0.0, 0.0)">
      <path d="M4.25 2.4 L4.25 3.05 0.0 5.4 0.0 4.65 3.45 2.7 0.0 0.75 0.0 0.0 4.25 2.4" fill="#7a7f83" fill-rule="evenodd" stroke="none"/>
    </g>
    <g id="shape2" transform="matrix(1.0, 0.0, 0.0, 1.0, 0.0, 0.0)">
      <path d="M1.0 2.05 Q0.55 2.05 0.3 1.75 0.0 1.45 0.0 1.0 0.0 0.6 0.3 0.3 0.55 0.0 1.0 0.0 1.45 0.0 1.7 0.3 L2.0 1.0 1.7 1.75 1.0 2.05" fill="#7a7f83" fill-rule="evenodd" stroke="none"/>
    </g>
  </defs>
</svg>
