<?xml version="1.0" encoding="UTF-8" standalone="no"?>
<svg xmlns:ffdec="https://www.free-decompiler.com/flash" xmlns:xlink="http://www.w3.org/1999/xlink" ffdec:objectType="frame" height="26.65px" width="52.95px" xmlns="http://www.w3.org/2000/svg">
  <g transform="matrix(1.0, 0.0, 0.0, 1.0, 0.0, 0.6)">
    <use ffdec:characterId="3" height="26.0" transform="matrix(1.0, 0.0, 0.0, 1.0, 0.0, 0.0)" width="26.0" xlink:href="#shape0"/>
    <use ffdec:characterId="71" height="7.95" transform="matrix(1.2327, 0.0, 0.0, 1.2327, 7.4, 5.0)" width="2.9" xlink:href="#shape1"/>
    <use ffdec:characterId="72" height="15.85" transform="matrix(0.9056, 0.0, 0.0, 0.9211, 12.7, 6.4)" width="7.95" xlink:href="#shape2"/>
  </g>
  <defs>
    <g id="shape0" transform="matrix(1.0, 0.0, 0.0, 1.0, 0.0, 0.0)">
      <path d="M24.7 2.2 Q24.7 1.85 24.45 1.55 24.15 1.3 23.8 1.3 L2.2 1.3 Q1.85 1.3 1.55 1.55 1.3 1.85 1.3 2.2 L1.3 23.8 Q1.3 24.15 1.55 24.45 1.85 24.7 2.2 24.7 L23.8 24.7 Q24.15 24.7 24.45 24.45 24.7 24.15 24.7 23.8 L24.7 2.2 24.7 2.2" fill="#ffffff" fill-rule="evenodd" stroke="none"/>
    </g>
    <g id="shape1" transform="matrix(1.0, 0.0, 0.0, 1.0, 0.0, 0.0)">
      <path d="M1.8 7.75 L1.35 7.95 Q1.1 7.95 0.95 7.75 L0.75 7.3 0.95 6.9 1.35 6.7 1.8 6.9 2.0 7.3 1.8 7.75 M2.85 1.2 L2.9 2.35 2.9 3.0 2.8 3.65 2.45 4.15 1.85 4.4 1.85 6.05 0.95 6.05 0.95 3.7 1.2 3.7 1.7 3.5 1.9 3.05 1.95 2.45 1.95 2.05 1.9 1.5 1.75 1.1 Q1.65 0.9 1.4 0.9 1.2 0.9 1.1 1.05 L1.0 1.45 0.95 1.85 0.95 2.05 0.0 2.05 0.0 1.9 0.1 1.0 0.5 0.3 Q0.75 0.0 1.4 0.0 2.1 0.05 2.4 0.35 L2.85 1.2" fill="#7a7f83" fill-rule="evenodd" stroke="none"/>
    </g>
    <g id="shape2" transform="matrix(1.0, 0.0, 0.0, 1.0, 0.0, 0.0)">
      <path d="M6.6 0.0 L7.95 0.0 1.4 15.85 0.0 15.85 6.6 0.0" fill="#7a7f83" fill-rule="evenodd" stroke="none"/>
    </g>
  </defs>
</svg>
