<?xml version="1.0" encoding="UTF-8" standalone="no"?>
<svg xmlns:ffdec="https://www.free-decompiler.com/flash" xmlns:xlink="http://www.w3.org/1999/xlink" ffdec:objectType="frame" height="26.65px" width="52.95px" xmlns="http://www.w3.org/2000/svg">
  <g transform="matrix(1.0, 0.0, 0.0, 1.0, 0.0, 0.6)">
    <use ffdec:characterId="3" height="26.0" transform="matrix(1.0, 0.0, 0.0, 1.0, 0.0, 0.0)" width="26.0" xlink:href="#shape0"/>
    <use ffdec:characterId="79" height="12.95" transform="matrix(1.0, 0.0, 0.0, 1.0, 7.45, 6.45)" width="11.15" xlink:href="#shape1"/>
  </g>
  <defs>
    <g id="shape0" transform="matrix(1.0, 0.0, 0.0, 1.0, 0.0, 0.0)">
      <path d="M24.7 2.2 Q24.7 1.85 24.45 1.55 24.15 1.3 23.8 1.3 L2.2 1.3 Q1.85 1.3 1.55 1.55 1.3 1.85 1.3 2.2 L1.3 23.8 Q1.3 24.15 1.55 24.45 1.85 24.7 2.2 24.7 L23.8 24.7 Q24.15 24.7 24.45 24.45 24.7 24.15 24.7 23.8 L24.7 2.2 24.7 2.2" fill="#ffffff" fill-rule="evenodd" stroke="none"/>
    </g>
    <g id="shape1" transform="matrix(1.0, 0.0, 0.0, 1.0, 0.0, 0.0)">
      <path d="M4.6 0.15 L4.6 1.6 1.7 1.6 1.7 5.65 4.3 5.65 4.3 7.1 1.7 7.1 1.7 12.95 0.0 12.95 0.0 0.15 4.6 0.15 M7.6 1.8 Q7.4 2.1 7.35 2.55 L7.25 3.35 7.3 3.95 7.3 4.3 5.55 4.3 5.55 3.85 Q5.55 2.8 5.7 1.95 5.9 1.05 6.45 0.5 7.05 0.0 8.3 0.0 9.85 0.0 10.5 0.8 11.15 1.65 11.15 3.15 11.15 4.1 10.75 5.25 L9.9 7.45 8.95 9.4 7.85 11.45 11.05 11.45 11.05 12.95 5.4 12.95 8.5 6.35 9.1 4.75 9.4 3.05 9.3 2.35 8.95 1.75 Q8.7 1.5 8.25 1.5 7.85 1.5 7.6 1.8" fill="#7a7f83" fill-rule="evenodd" stroke="none"/>
    </g>
  </defs>
</svg>
