<?xml version="1.0" encoding="UTF-8" standalone="no"?>
<svg xmlns:ffdec="https://www.free-decompiler.com/flash" xmlns:xlink="http://www.w3.org/1999/xlink" ffdec:objectType="frame" height="26.65px" width="52.95px" xmlns="http://www.w3.org/2000/svg">
  <g transform="matrix(1.0, 0.0, 0.0, 1.0, 0.0, 0.6)">
    <use ffdec:characterId="3" height="26.0" transform="matrix(1.0, 0.0, 0.0, 1.0, 0.0, 0.0)" width="26.0" xlink:href="#shape0"/>
    <use ffdec:characterId="83" height="12.95" transform="matrix(1.0, 0.0, 0.0, 1.0, 7.45, 6.6)" width="11.0" xlink:href="#shape1"/>
  </g>
  <defs>
    <g id="shape0" transform="matrix(1.0, 0.0, 0.0, 1.0, 0.0, 0.0)">
      <path d="M24.7 2.2 Q24.7 1.85 24.45 1.55 24.15 1.3 23.8 1.3 L2.2 1.3 Q1.85 1.3 1.55 1.55 1.3 1.85 1.3 2.2 L1.3 23.8 Q1.3 24.15 1.55 24.45 1.85 24.7 2.2 24.7 L23.8 24.7 Q24.15 24.7 24.45 24.45 24.7 24.15 24.7 23.8 L24.7 2.2 24.7 2.2" fill="#ffffff" fill-rule="evenodd" stroke="none"/>
    </g>
    <g id="shape1" transform="matrix(1.0, 0.0, 0.0, 1.0, 0.0, 0.0)">
      <path d="M8.0 6.45 Q7.85 6.5 7.65 6.7 L7.35 7.45 Q7.2 8.0 7.2 8.95 L7.25 9.65 7.35 10.45 7.65 11.15 Q7.9 11.4 8.25 11.45 8.65 11.4 8.85 11.15 L9.15 10.45 9.25 9.65 9.25 8.95 9.25 8.25 9.15 7.4 8.85 6.7 Q8.65 6.45 8.25 6.45 L8.0 6.45 M5.7 6.25 Q5.9 5.15 6.25 4.15 L7.05 2.15 8.1 0.0 9.9 0.0 7.4 5.45 7.45 5.5 8.05 5.05 8.75 4.9 Q9.55 4.95 10.0 5.3 L10.7 6.35 10.95 7.65 11.0 8.95 10.85 10.85 Q10.65 11.75 10.1 12.35 9.5 12.95 8.25 12.95 7.3 12.95 6.75 12.55 L5.9 11.55 5.55 10.15 5.5 8.6 5.7 6.25 M4.6 0.0 L4.6 1.45 1.7 1.45 1.7 5.5 4.3 5.5 4.3 6.95 1.7 6.95 1.7 12.8 0.0 12.8 0.0 0.0 4.6 0.0" fill="#7a7f83" fill-rule="evenodd" stroke="none"/>
    </g>
  </defs>
</svg>
