<?xml version="1.0" encoding="UTF-8" standalone="no"?>
<svg xmlns:ffdec="https://www.free-decompiler.com/flash" xmlns:xlink="http://www.w3.org/1999/xlink" ffdec:objectType="frame" height="26.65px" width="52.95px" xmlns="http://www.w3.org/2000/svg">
  <g transform="matrix(1.0, 0.0, 0.0, 1.0, 0.0, 0.6)">
    <use ffdec:characterId="3" height="26.0" transform="matrix(1.0, 0.0, 0.0, 1.0, 0.0, 0.0)" width="26.0" xlink:href="#shape0"/>
    <use ffdec:characterId="85" height="13.1" transform="matrix(1.0, 0.0, 0.0, 1.0, 7.45, 6.45)" width="11.05" xlink:href="#shape1"/>
  </g>
  <defs>
    <g id="shape0" transform="matrix(1.0, 0.0, 0.0, 1.0, 0.0, 0.0)">
      <path d="M24.7 2.2 Q24.7 1.85 24.45 1.55 24.15 1.3 23.8 1.3 L2.2 1.3 Q1.85 1.3 1.55 1.55 1.3 1.85 1.3 2.2 L1.3 23.8 Q1.3 24.15 1.55 24.45 1.85 24.7 2.2 24.7 L23.8 24.7 Q24.15 24.7 24.45 24.45 24.7 24.15 24.7 23.8 L24.7 2.2 24.7 2.2" fill="#ffffff" fill-rule="evenodd" stroke="none"/>
    </g>
    <g id="shape1" transform="matrix(1.0, 0.0, 0.0, 1.0, 0.0, 0.0)">
      <path d="M8.25 6.9 Q7.85 6.9 7.6 7.2 L7.3 7.9 7.2 8.7 7.2 9.45 7.25 10.3 7.55 11.2 Q7.75 11.55 8.25 11.6 8.75 11.55 8.95 11.2 L9.25 10.3 9.3 9.45 9.3 8.7 9.15 7.9 8.85 7.2 Q8.65 6.9 8.25 6.9 M1.7 1.6 L1.7 5.65 4.3 5.65 4.3 7.1 1.7 7.1 1.7 12.95 0.0 12.95 0.0 0.15 4.6 0.15 4.6 1.6 1.7 1.6 M9.15 2.55 L8.85 1.85 Q8.65 1.5 8.25 1.5 7.8 1.5 7.6 1.85 7.4 2.15 7.35 2.55 L7.3 3.3 7.35 4.05 7.6 4.85 Q7.85 5.25 8.25 5.25 L8.85 4.85 9.1 4.05 9.2 3.3 9.15 2.55 M10.8 4.25 L10.4 5.3 9.5 6.0 Q10.2 6.2 10.5 6.7 L10.95 7.85 11.05 9.1 10.85 11.0 Q10.65 11.95 10.05 12.5 9.45 13.1 8.25 13.1 7.1 13.1 6.5 12.55 5.9 12.0 5.7 11.15 5.45 10.3 5.5 9.35 5.45 8.7 5.55 8.0 5.6 7.3 5.95 6.75 6.25 6.2 7.0 6.0 L6.1 5.3 5.7 4.25 5.6 3.1 Q5.55 2.25 5.8 1.5 6.0 0.8 6.6 0.4 7.15 0.0 8.15 0.0 9.2 0.0 9.8 0.35 10.4 0.7 10.65 1.4 L10.9 3.1 10.8 4.25" fill="#7a7f83" fill-rule="evenodd" stroke="none"/>
    </g>
  </defs>
</svg>
