<?xml version="1.0" encoding="UTF-8" standalone="no"?>
<svg xmlns:ffdec="https://www.free-decompiler.com/flash" xmlns:xlink="http://www.w3.org/1999/xlink" ffdec:objectType="frame" height="26.65px" width="52.95px" xmlns="http://www.w3.org/2000/svg">
  <g transform="matrix(1.0, 0.0, 0.0, 1.0, 0.0, 0.6)">
    <use ffdec:characterId="3" height="26.0" transform="matrix(1.0, 0.0, 0.0, 1.0, 0.0, 0.0)" width="26.0" xlink:href="#shape0"/>
    <use ffdec:characterId="86" height="12.95" transform="matrix(1.0, 0.0, 0.0, 1.0, 7.45, 6.45)" width="11.0" xlink:href="#shape1"/>
  </g>
  <defs>
    <g id="shape0" transform="matrix(1.0, 0.0, 0.0, 1.0, 0.0, 0.0)">
      <path d="M24.7 2.2 Q24.7 1.85 24.45 1.55 24.15 1.3 23.8 1.3 L2.2 1.3 Q1.85 1.3 1.55 1.55 1.3 1.85 1.3 2.2 L1.3 23.8 Q1.3 24.15 1.55 24.45 1.85 24.7 2.2 24.7 L23.8 24.7 Q24.15 24.7 24.45 24.45 24.7 24.15 24.7 23.8 L24.7 2.2 24.7 2.2" fill="#ffffff" fill-rule="evenodd" stroke="none"/>
    </g>
    <g id="shape1" transform="matrix(1.0, 0.0, 0.0, 1.0, 0.0, 0.0)">
      <path d="M4.6 0.15 L4.6 1.6 1.7 1.6 1.7 5.65 4.3 5.65 4.3 7.1 1.7 7.1 1.7 12.95 0.0 12.95 0.0 0.15 4.6 0.15 M7.35 2.5 L7.25 3.4 7.25 4.1 7.25 4.8 7.35 5.6 7.65 6.25 Q7.85 6.55 8.25 6.55 8.65 6.55 8.85 6.25 L9.15 5.55 9.25 4.7 9.25 4.0 9.25 3.3 9.15 2.45 8.85 1.8 Q8.6 1.5 8.25 1.5 7.85 1.5 7.65 1.8 L7.35 2.5 M10.6 1.4 L10.95 2.8 11.0 4.35 10.8 6.85 10.1 9.1 9.1 11.4 8.35 12.95 6.5 12.95 9.05 7.6 9.0 7.55 8.45 7.95 7.7 8.05 Q6.95 8.05 6.55 7.7 L5.85 6.8 5.55 5.55 5.5 4.35 5.55 2.8 Q5.65 2.05 5.9 1.4 6.15 0.75 6.7 0.4 7.25 0.0 8.25 0.0 9.2 0.0 9.75 0.35 L10.6 1.4" fill="#7a7f83" fill-rule="evenodd" stroke="none"/>
    </g>
  </defs>
</svg>
