<?xml version="1.0" encoding="UTF-8" standalone="no"?>
<svg xmlns:ffdec="https://www.free-decompiler.com/flash" xmlns:xlink="http://www.w3.org/1999/xlink" ffdec:objectType="frame" height="26.65px" width="52.95px" xmlns="http://www.w3.org/2000/svg">
  <g transform="matrix(1.0, 0.0, 0.0, 1.0, 0.0, 0.6)">
    <use ffdec:characterId="3" height="26.0" transform="matrix(1.0, 0.0, 0.0, 1.0, 0.0, 0.0)" width="26.0" xlink:href="#shape0"/>
    <use ffdec:characterId="14" height="4.25" transform="matrix(1.4231, 0.0, 0.0, 1.4231, 6.75, 4.95)" width="4.15" xlink:href="#shape1"/>
    <use ffdec:characterId="15" height="12.95" transform="matrix(1.0, 0.0, 0.0, 1.0, 13.75, 7.65)" width="5.5" xlink:href="#shape2"/>
  </g>
  <defs>
    <g id="shape0" transform="matrix(1.0, 0.0, 0.0, 1.0, 0.0, 0.0)">
      <path d="M24.7 2.2 Q24.7 1.85 24.45 1.55 24.15 1.3 23.8 1.3 L2.2 1.3 Q1.85 1.3 1.55 1.55 1.3 1.85 1.3 2.2 L1.3 23.8 Q1.3 24.15 1.55 24.45 1.85 24.7 2.2 24.7 L23.8 24.7 Q24.15 24.7 24.45 24.45 24.7 24.15 24.7 23.8 L24.7 2.2 24.7 2.2" fill="#ffffff" fill-rule="evenodd" stroke="none"/>
    </g>
    <g id="shape1" transform="matrix(1.0, 0.0, 0.0, 1.0, 0.0, 0.0)">
      <path d="M1.85 0.0 L2.3 0.0 4.15 4.25 3.5 4.25 2.1 0.9 0.65 4.25 0.0 4.25 1.85 0.0" fill="#7a7f83" fill-rule="evenodd" stroke="none"/>
    </g>
    <g id="shape2" transform="matrix(1.0, 0.0, 0.0, 1.0, 0.0, 0.0)">
      <path d="M1.75 9.65 L1.85 10.45 2.15 11.15 Q2.4 11.4 2.75 11.45 3.15 11.4 3.35 11.15 L3.65 10.45 3.75 9.65 3.75 8.95 3.75 8.25 3.65 7.4 3.35 6.7 Q3.15 6.45 2.75 6.45 L2.5 6.45 Q2.35 6.5 2.15 6.7 L1.85 7.45 Q1.7 8.0 1.7 8.95 L1.75 9.65 M2.6 0.0 L4.4 0.0 1.9 5.45 1.95 5.5 2.55 5.05 3.25 4.9 Q4.05 4.95 4.5 5.3 4.95 5.7 5.2 6.35 L5.45 7.65 5.5 8.95 5.35 10.85 Q5.15 11.75 4.6 12.35 4.0 12.95 2.75 12.95 1.8 12.95 1.25 12.55 L0.4 11.55 0.05 10.15 0.0 8.6 0.2 6.25 Q0.4 5.15 0.75 4.15 L1.55 2.15 2.6 0.0" fill="#7a7f83" fill-rule="evenodd" stroke="none"/>
    </g>
  </defs>
</svg>
