<?xml version="1.0" encoding="UTF-8" standalone="no"?>
<svg xmlns:ffdec="https://www.free-decompiler.com/flash" xmlns:xlink="http://www.w3.org/1999/xlink" ffdec:objectType="frame" height="26.65px" width="52.95px" xmlns="http://www.w3.org/2000/svg">
  <g transform="matrix(1.0, 0.0, 0.0, 1.0, 0.0, 0.6)">
    <use ffdec:characterId="1" height="26.0" transform="matrix(1.0, 0.0, 0.0, 1.0, 0.0, 0.0)" width="35.75" xlink:href="#shape0"/>
    <use ffdec:characterId="98" height="12.8" transform="matrix(1.0, 0.0, 0.0, 1.0, 7.2, 6.6)" width="21.3" xlink:href="#shape1"/>
  </g>
  <defs>
    <g id="shape0" transform="matrix(1.0, 0.0, 0.0, 1.0, 0.0, 0.0)">
      <path d="M34.45 2.2 Q34.45 1.85 34.2 1.55 33.9 1.3 33.55 1.3 L2.2 1.3 Q1.8 1.3 1.55 1.55 1.3 1.85 1.3 2.2 L1.3 23.8 Q1.3 24.15 1.55 24.45 1.8 24.7 2.2 24.7 L33.55 24.7 Q33.9 24.7 34.2 24.45 34.45 24.15 34.45 23.8 L34.45 2.2 34.45 2.2" fill="#ffffff" fill-rule="evenodd" stroke="none"/>
    </g>
    <g id="shape1" transform="matrix(1.0, 0.0, 0.0, 1.0, 0.0, 0.0)">
      <path d="M1.6 0.0 L4.6 9.7 4.65 9.7 4.25 0.0 5.95 0.0 5.95 12.8 4.35 12.8 1.35 2.9 1.7 12.8 0.0 12.8 0.0 0.0 1.6 0.0 M11.15 5.2 Q11.55 4.65 11.55 3.55 L11.4 2.5 10.95 1.7 9.95 1.45 9.7 1.45 9.7 5.7 Q10.75 5.75 11.15 5.2 M13.05 1.5 L13.35 3.4 Q13.35 5.35 12.5 6.3 11.65 7.2 9.7 7.1 L9.7 12.8 8.0 12.8 8.0 0.0 10.05 0.0 11.15 0.05 12.25 0.45 13.05 1.5 M21.3 7.25 L21.3 8.2 18.3 8.2 18.3 11.2 17.3 11.2 17.3 8.2 14.3 8.2 14.3 7.25 17.3 7.25 17.3 4.2 18.3 4.2 18.3 7.25 21.3 7.25" fill="#7a7f83" fill-rule="evenodd" stroke="none"/>
    </g>
  </defs>
</svg>
