<?xml version="1.0" encoding="UTF-8" standalone="no"?>
<svg xmlns:ffdec="https://www.free-decompiler.com/flash" xmlns:xlink="http://www.w3.org/1999/xlink" ffdec:objectType="frame" height="26.05px" width="52.95px" xmlns="http://www.w3.org/2000/svg">
  <g transform="matrix(1.0, 0.0, 0.0, 1.0, 0.0, 0.0)">
    <use ffdec:characterId="1" height="26.0" transform="matrix(1.0, 0.0, 0.0, 1.0, 0.0, 0.0)" width="35.75" xlink:href="#shape0"/>
    <use ffdec:characterId="28" height="14.25" transform="matrix(1.0, 0.0, 0.0, 1.0, 6.8, 5.9)" width="23.7" xlink:href="#shape1"/>
    <use ffdec:characterId="28" height="14.25" transform="matrix(1.0, 0.0, 0.0, 1.0, 6.0, 5.3)" width="23.7" xlink:href="#shape1"/>
  </g>
  <defs>
    <g id="shape0" transform="matrix(1.0, 0.0, 0.0, 1.0, 0.0, 0.0)">
      <path d="M3.2 1.8 L32.55 1.8 Q32.7 1.8 32.85 1.85 32.95 1.85 33.1 1.9 33.25 1.95 33.35 2.05 33.45 2.1 33.55 2.2 33.65 2.3 33.7 2.4 33.8 2.5 33.85 2.65 33.9 2.75 33.95 2.9 33.95 3.05 33.95 3.2 L33.95 22.85 Q33.95 23.0 33.9 23.1 33.9 23.25 33.85 23.4 33.8 23.5 33.7 23.6 33.65 23.7 33.55 23.8 33.45 23.9 33.35 24.0 33.25 24.05 33.1 24.1 33.0 24.15 32.85 24.2 32.7 24.2 32.55 24.2 L3.2 24.2 Q3.05 24.2 2.9 24.2 2.8 24.15 2.65 24.1 2.55 24.05 2.4 23.95 2.3 23.9 2.2 23.8 2.1 23.7 2.05 23.6 1.95 23.5 1.9 23.35 1.85 23.25 1.85 23.1 1.8 22.95 1.8 22.85 L1.8 3.2 Q1.8 3.05 1.85 2.9 1.85 2.8 1.9 2.65 1.95 2.5 2.05 2.4 2.1 2.3 2.2 2.2 2.3 2.1 2.4 2.05 2.5 1.95 2.65 1.9 2.75 1.85 2.9 1.85 3.05 1.8 3.2 1.8 L3.2 1.8" fill="#000000" fill-rule="evenodd" stroke="none"/>
      <path d="M3.2 1.3 Q3.0 1.3 2.8 1.35 2.65 1.35 2.45 1.45 2.3 1.5 2.15 1.6 2.0 1.7 1.85 1.85 1.75 2.0 1.6 2.15 1.5 2.3 1.45 2.45 1.4 2.6 1.35 2.8 1.3 3.0 1.3 3.2 L1.3 22.85 Q1.3 23.05 1.35 23.2 1.4 23.4 1.45 23.55 1.5 23.75 1.6 23.9 1.75 24.05 1.85 24.15 2.0 24.3 2.15 24.4 2.3 24.5 2.45 24.55 2.6 24.65 2.8 24.65 3.0 24.7 3.2 24.7 L32.55 24.7 Q32.75 24.7 32.95 24.65 33.1 24.65 33.3 24.55 33.45 24.5 33.6 24.4 33.75 24.3 33.9 24.15 34.05 24.05 34.15 23.9 34.25 23.75 34.3 23.55 34.4 23.4 34.4 23.2 34.45 23.0 34.45 22.85 L34.45 3.2 Q34.45 3.0 34.4 2.8 34.4 2.65 34.3 2.45 34.25 2.3 34.15 2.15 34.05 2.0 33.9 1.85 33.75 1.7 33.6 1.6 33.45 1.5 33.3 1.45 33.15 1.35 32.95 1.35 32.75 1.3 32.55 1.3 L3.2 1.3 M3.2 2.3 L32.55 2.3 Q32.65 2.3 32.75 2.3 32.85 2.35 32.9 2.35 33.0 2.4 33.05 2.45 33.15 2.5 33.2 2.55 33.25 2.6 33.3 2.7 33.35 2.75 33.4 2.85 33.4 2.9 33.45 3.0 33.45 3.1 33.45 3.2 L33.45 22.85 Q33.45 22.95 33.45 23.0 33.4 23.1 33.4 23.2 33.35 23.25 33.3 23.35 33.25 23.4 33.2 23.45 33.15 23.5 33.05 23.55 33.0 23.6 32.9 23.65 32.85 23.7 32.75 23.7 32.65 23.7 32.55 23.7 L3.2 23.7 Q3.1 23.7 3.0 23.7 2.9 23.65 2.85 23.65 2.75 23.6 2.7 23.55 2.6 23.5 2.55 23.45 2.5 23.4 2.45 23.35 2.4 23.25 2.35 23.2 2.35 23.1 2.3 23.0 2.3 22.9 2.3 22.85 L2.3 3.2 Q2.3 3.1 2.3 3.0 2.35 2.9 2.35 2.85 2.4 2.75 2.45 2.7 2.5 2.6 2.55 2.55 2.6 2.5 2.7 2.45 2.75 2.4 2.85 2.35 2.9 2.35 3.0 2.3 3.1 2.3 3.2 2.3 L3.2 2.3" fill="#ffffff" fill-rule="evenodd" stroke="none"/>
    </g>
    <g id="shape1" transform="matrix(1.0, 0.0, 0.0, 1.0, 0.0, 0.0)">
      <path d="M3.3 11.75 L3.45 10.55 3.3 9.35 2.8 8.55 1.6 8.3 1.6 12.65 2.75 12.45 3.3 11.75 M1.9 2.75 L1.6 2.75 1.6 6.95 Q2.4 6.95 2.75 6.65 L3.3 5.85 3.4 4.65 3.25 3.7 2.8 3.0 1.9 2.75 M3.9 1.7 Q4.55 2.1 4.8 2.85 5.1 3.65 5.05 4.7 L4.95 5.95 4.5 6.95 Q4.15 7.35 3.45 7.55 L3.45 7.6 Q4.2 7.8 4.55 8.25 L5.1 9.3 5.25 10.6 Q5.3 12.35 4.55 13.25 3.8 14.1 2.05 14.1 L0.0 14.1 0.0 1.3 2.1 1.3 Q3.25 1.3 3.9 1.7 M10.25 9.05 L10.15 8.05 9.85 7.2 Q9.6 6.85 9.25 6.8 8.8 6.85 8.55 7.2 L8.25 8.05 8.2 9.05 8.2 9.8 8.2 10.55 8.25 11.55 8.55 12.45 Q8.8 12.8 9.25 12.8 L9.85 12.45 10.15 11.55 10.25 10.55 10.25 9.8 10.25 9.05 M10.2 5.5 L11.8 5.5 11.8 14.1 10.2 14.1 10.2 13.0 10.15 13.0 9.6 13.9 Q9.25 14.25 8.55 14.25 7.85 14.2 7.4 13.75 L6.8 12.5 6.6 11.0 6.55 9.7 6.6 8.4 6.8 7.0 Q7.0 6.3 7.45 5.85 7.85 5.4 8.6 5.4 9.15 5.4 9.55 5.7 L10.15 6.45 10.2 6.45 10.2 5.5 M15.55 5.4 L16.2 5.45 16.8 5.65 16.8 7.3 16.5 7.0 16.05 6.85 Q15.5 6.9 15.25 7.2 L14.8 7.95 14.65 8.9 14.65 9.75 14.65 10.55 14.8 11.55 15.2 12.4 Q15.5 12.75 16.0 12.75 L16.45 12.65 16.8 12.4 16.8 13.9 16.2 14.15 15.5 14.25 Q14.7 14.2 14.2 13.8 13.65 13.35 13.4 12.7 L13.05 11.3 13.0 9.9 13.05 8.45 Q13.15 7.65 13.4 6.95 13.65 6.25 14.15 5.85 14.65 5.4 15.55 5.4 M21.6 5.5 L23.4 5.5 21.2 9.3 23.7 14.1 21.85 14.1 19.65 9.55 19.6 9.55 19.6 14.1 18.0 14.1 18.0 0.0 19.6 0.0 19.6 9.3 19.65 9.3 21.6 5.5" fill="#000000" fill-rule="evenodd" stroke="none"/>
    </g>
  </defs>
</svg>
