<?xml version="1.0" encoding="UTF-8" standalone="no"?>
<svg xmlns:ffdec="https://www.free-decompiler.com/flash" xmlns:xlink="http://www.w3.org/1999/xlink" ffdec:objectType="frame" height="26.05px" width="52.95px" xmlns="http://www.w3.org/2000/svg">
  <g transform="matrix(1.0, 0.0, 0.0, 1.0, 0.0, 0.0)">
    <use ffdec:characterId="132" height="26.0" transform="matrix(1.0, 0.0, 0.0, 1.0, 0.05, 0.05)" width="26.0" xlink:href="#shape0"/>
    <use ffdec:characterId="64" height="12.8" transform="matrix(1.0, 0.0, 0.0, 1.0, 11.7, 7.3)" width="5.25" xlink:href="#shape1"/>
    <use ffdec:characterId="64" height="12.8" transform="matrix(1.0, 0.0, 0.0, 1.0, 10.9, 6.7)" width="5.25" xlink:href="#shape1"/>
  </g>
  <defs>
    <g id="shape0" transform="matrix(1.0, 0.0, 0.0, 1.0, -0.05, -0.05)">
      <path d="M22.6 13.05 Q22.6 9.1 19.8 6.3 17.0 3.5 13.05 3.5 9.1 3.5 6.3 6.3 3.5 9.1 3.5 13.05 3.5 17.0 6.3 19.8 9.1 22.6 13.05 22.6 17.0 22.6 19.8 19.8 22.6 17.0 22.6 13.05 L22.6 13.05" fill="#000000" fill-rule="evenodd" stroke="none"/>
      <path d="M22.6 13.05 Q22.6 9.1 19.8 6.3 17.0 3.5 13.05 3.5 9.1 3.5 6.3 6.3 3.5 9.1 3.5 13.05 3.5 17.0 6.3 19.8 9.1 22.6 13.05 22.6 17.0 22.6 19.8 19.8 22.6 17.0 22.6 13.05 L22.6 13.05 Z" fill="none" stroke="#ffffff" stroke-linecap="round" stroke-linejoin="round" stroke-width="1.0"/>
    </g>
    <g id="shape1" transform="matrix(1.0, 0.0, 0.0, 1.0, 0.0, 0.0)">
      <path d="M3.3 8.05 L2.8 7.25 1.6 7.0 1.6 11.35 2.75 11.15 3.3 10.45 3.45 9.25 3.3 8.05 M3.9 0.4 Q4.55 0.8 4.8 1.55 5.1 2.35 5.05 3.4 L4.95 4.65 4.5 5.65 Q4.15 6.05 3.45 6.25 L3.45 6.3 Q4.2 6.5 4.55 6.95 L5.1 8.0 5.25 9.3 Q5.3 11.05 4.55 11.95 3.8 12.8 2.05 12.8 L0.0 12.8 0.0 0.0 2.1 0.0 Q3.25 0.0 3.9 0.4 M3.25 2.4 L2.8 1.7 1.9 1.45 1.6 1.45 1.6 5.65 Q2.4 5.65 2.75 5.35 L3.3 4.55 3.4 3.35 3.25 2.4" fill="#000000" fill-rule="evenodd" stroke="none"/>
    </g>
  </defs>
</svg>
