<?xml version="1.0" encoding="UTF-8" standalone="no"?>
<svg xmlns:ffdec="https://www.free-decompiler.com/flash" xmlns:xlink="http://www.w3.org/1999/xlink" ffdec:objectType="frame" height="26.05px" width="52.95px" xmlns="http://www.w3.org/2000/svg">
  <g transform="matrix(1.0, 0.0, 0.0, 1.0, 0.0, 0.0)">
    <use ffdec:characterId="27" height="26.0" transform="matrix(1.0, 0.0, 0.0, 1.0, 0.0, 0.0)" width="41.75" xlink:href="#shape0"/>
    <use ffdec:characterId="73" height="14.4" transform="matrix(1.0, 0.0, 0.0, 1.0, 6.0, 5.75)" width="31.35" xlink:href="#shape1"/>
    <use ffdec:characterId="73" height="14.4" transform="matrix(1.0, 0.0, 0.0, 1.0, 5.2, 5.15)" width="31.35" xlink:href="#shape1"/>
  </g>
  <defs>
    <g id="shape0" transform="matrix(1.0, 0.0, 0.0, 1.0, 0.0, 0.0)">
      <path d="M3.2 1.8 L38.55 1.8 Q38.7 1.8 38.85 1.85 38.95 1.85 39.1 1.9 39.25 1.95 39.35 2.05 39.45 2.1 39.55 2.2 39.65 2.3 39.7 2.4 39.8 2.5 39.85 2.65 39.9 2.75 39.9 2.9 39.95 3.05 39.95 3.2 L39.95 22.8 Q39.95 22.95 39.9 23.1 39.9 23.2 39.85 23.35 39.8 23.45 39.7 23.6 39.65 23.7 39.55 23.8 39.45 23.9 39.35 23.95 39.25 24.05 39.1 24.1 39.0 24.15 38.85 24.15 38.7 24.2 38.55 24.2 L3.2 24.2 Q3.05 24.2 2.9 24.15 2.8 24.15 2.65 24.1 2.55 24.05 2.4 23.95 2.3 23.9 2.2 23.8 2.1 23.7 2.05 23.6 1.95 23.45 1.9 23.35 1.85 23.2 1.85 23.1 1.8 22.95 1.8 22.8 L1.8 3.2 Q1.8 3.05 1.85 2.9 1.85 2.8 1.9 2.65 1.95 2.5 2.05 2.4 2.1 2.3 2.2 2.2 2.3 2.1 2.4 2.05 2.5 1.95 2.65 1.9 2.75 1.85 2.9 1.8 3.05 1.8 3.2 1.8 L3.2 1.8" fill="#000000" fill-rule="evenodd" stroke="none"/>
      <path d="M3.2 1.3 Q3.0 1.3 2.8 1.35 2.65 1.35 2.45 1.45 2.3 1.5 2.15 1.6 2.0 1.7 1.85 1.85 1.75 2.0 1.6 2.15 1.5 2.3 1.45 2.45 1.4 2.6 1.35 2.8 1.3 3.0 1.3 3.2 L1.3 22.8 Q1.3 23.0 1.35 23.2 1.4 23.35 1.45 23.55 1.5 23.7 1.6 23.85 1.75 24.0 1.85 24.15 2.0 24.25 2.15 24.35 2.3 24.45 2.45 24.55 2.6 24.6 2.8 24.65 3.0 24.7 3.2 24.7 L38.55 24.7 Q38.75 24.7 38.95 24.65 39.1 24.6 39.3 24.55 39.45 24.5 39.6 24.35 39.75 24.25 39.9 24.15 40.05 24.0 40.15 23.85 40.25 23.7 40.3 23.55 40.4 23.35 40.4 23.2 40.45 23.0 40.45 22.8 L40.45 3.2 Q40.45 3.0 40.4 2.8 40.4 2.65 40.3 2.45 40.25 2.3 40.15 2.15 40.05 2.0 39.9 1.85 39.75 1.7 39.6 1.6 39.45 1.5 39.3 1.45 39.15 1.35 38.95 1.35 38.75 1.3 38.55 1.3 L3.2 1.3 M3.2 2.3 L38.55 2.3 Q38.65 2.3 38.75 2.3 38.85 2.35 38.9 2.35 39.0 2.4 39.05 2.45 39.15 2.5 39.2 2.55 39.25 2.6 39.3 2.7 39.35 2.75 39.4 2.85 39.4 2.9 39.45 3.0 39.45 3.1 39.45 3.2 L39.45 22.8 Q39.45 22.9 39.45 23.0 39.4 23.05 39.4 23.15 39.35 23.25 39.3 23.3 39.25 23.4 39.2 23.45 39.15 23.5 39.05 23.55 39.0 23.6 38.9 23.65 38.85 23.65 38.75 23.7 38.65 23.7 38.55 23.7 L3.2 23.7 Q3.1 23.7 3.0 23.7 2.9 23.65 2.85 23.65 2.75 23.6 2.7 23.55 2.6 23.5 2.55 23.45 2.5 23.4 2.45 23.3 2.4 23.25 2.35 23.15 2.35 23.1 2.3 23.0 2.3 22.9 2.3 22.8 L2.3 3.2 Q2.3 3.1 2.3 3.0 2.35 2.9 2.35 2.85 2.4 2.75 2.45 2.7 2.5 2.6 2.55 2.55 2.6 2.5 2.7 2.45 2.75 2.4 2.85 2.35 2.9 2.35 3.0 2.3 3.1 2.3 3.2 2.3 L3.2 2.3" fill="#ffffff" fill-rule="evenodd" stroke="none"/>
    </g>
    <g id="shape1" transform="matrix(1.0, 0.0, 0.0, 1.0, 0.0, 0.0)">
      <path d="M4.95 8.1 L3.6 8.1 3.6 12.2 1.4 12.2 1.4 8.1 0.0 8.1 0.05 8.05 2.5 2.2 4.95 8.05 4.95 8.1 M12.25 3.0 L11.5 2.85 Q10.8 2.9 10.4 3.35 10.0 3.8 10.0 4.5 L10.1 5.25 10.45 5.9 11.75 7.3 12.7 8.4 13.35 9.6 13.55 11.05 Q13.55 12.0 13.2 12.75 L12.15 13.95 10.55 14.4 9.55 14.25 8.7 13.8 8.7 12.1 9.45 12.55 10.35 12.75 11.2 12.5 11.7 11.85 11.85 10.95 Q11.85 10.2 11.5 9.65 L10.6 8.6 9.55 7.55 8.65 6.25 Q8.3 5.55 8.25 4.55 8.25 3.65 8.6 2.9 8.9 2.15 9.55 1.7 10.2 1.25 11.15 1.25 L12.1 1.35 12.95 1.7 12.95 3.4 12.25 3.0 M16.65 6.15 L17.0 5.85 17.5 5.6 18.05 5.55 Q18.9 5.55 19.3 5.95 L19.75 7.05 19.8 8.35 19.8 14.25 18.2 14.25 18.2 8.3 18.15 7.7 17.9 7.15 17.25 6.95 Q16.75 6.95 16.55 7.3 16.35 7.6 16.3 8.05 L16.3 8.9 16.3 14.25 14.7 14.25 14.7 0.15 16.3 0.15 16.3 6.65 16.35 6.65 16.65 6.15 M21.3 5.65 L22.9 5.65 22.9 14.25 21.3 14.25 21.3 5.65 M22.85 2.3 L23.15 3.05 22.85 3.8 22.1 4.15 21.35 3.8 21.0 3.05 Q21.05 2.6 21.35 2.3 21.65 2.0 22.1 2.0 22.55 2.0 22.85 2.3 M27.1 1.7 L26.55 1.9 26.35 2.45 26.35 3.1 26.35 5.65 27.7 5.65 27.7 6.95 26.35 6.95 26.35 14.25 24.75 14.25 24.75 6.95 23.95 6.95 23.95 5.65 24.75 5.65 24.75 2.9 24.85 1.5 Q24.95 0.85 25.4 0.4 25.8 0.0 26.7 0.0 L27.25 0.05 27.75 0.25 27.75 1.9 27.45 1.75 27.1 1.7 M30.5 3.25 L30.5 5.65 31.35 5.65 31.35 6.95 30.5 6.95 30.5 14.25 28.9 14.25 28.9 6.95 28.05 6.95 28.05 5.65 28.9 5.65 28.9 3.25 30.5 3.25" fill="#000000" fill-rule="evenodd" stroke="none"/>
    </g>
  </defs>
</svg>
