<?xml version="1.0" encoding="UTF-8" standalone="no"?>
<svg xmlns:ffdec="https://www.free-decompiler.com/flash" xmlns:xlink="http://www.w3.org/1999/xlink" ffdec:objectType="frame" height="26.05px" width="52.95px" xmlns="http://www.w3.org/2000/svg">
  <g transform="matrix(1.0, 0.0, 0.0, 1.0, 0.0, 0.0)">
    <use ffdec:characterId="3" height="26.0" transform="matrix(1.0, 0.0, 0.0, 1.0, 0.0, 0.0)" width="26.0" xlink:href="#shape0"/>
    <use ffdec:characterId="105" height="12.95" transform="matrix(1.0, 0.0, 0.0, 1.0, 5.6, 5.05)" width="16.4" xlink:href="#shape1"/>
    <use ffdec:characterId="105" height="12.95" transform="matrix(1.0, 0.0, 0.0, 1.0, 4.8, 4.45)" width="16.4" xlink:href="#shape1"/>
  </g>
  <defs>
    <g id="shape0" transform="matrix(1.0, 0.0, 0.0, 1.0, 0.0, 0.0)">
      <path d="M0.4 0.45 L25.7 0.45 25.7 25.65 0.4 25.65 0.4 0.45 0.4 0.45" fill="#cccccc" fill-opacity="0.0" fill-rule="evenodd" stroke="none"/>
    </g>
    <g id="shape1" transform="matrix(1.0, 0.0, 0.0, 1.0, 0.0, 0.0)">
      <path d="M4.6 0.15 L4.6 1.6 1.7 1.6 1.7 5.65 4.3 5.65 4.3 7.1 1.7 7.1 1.7 12.95 0.0 12.95 0.0 0.15 4.6 0.15 M6.15 1.6 L6.15 0.15 9.1 0.15 9.1 12.95 7.4 12.95 7.4 1.6 6.15 1.6 M15.75 0.8 Q16.4 1.65 16.4 3.15 16.4 4.1 16.0 5.25 L15.15 7.45 14.2 9.4 13.1 11.45 16.3 11.45 16.3 12.95 10.65 12.95 13.75 6.35 14.35 4.75 14.65 3.05 14.55 2.35 14.2 1.75 Q13.95 1.5 13.5 1.5 13.1 1.5 12.85 1.8 12.65 2.1 12.6 2.55 L12.5 3.35 12.55 3.95 12.55 4.3 10.8 4.3 10.8 3.85 Q10.8 2.8 10.95 1.95 11.15 1.05 11.7 0.5 12.3 0.0 13.55 0.0 15.1 0.0 15.75 0.8" fill="#000000" fill-rule="evenodd" stroke="none"/>
    </g>
  </defs>
</svg>
