<?xml version="1.0" encoding="UTF-8" standalone="no"?>
<svg xmlns:ffdec="https://www.free-decompiler.com/flash" xmlns:xlink="http://www.w3.org/1999/xlink" ffdec:objectType="frame" height="26.05px" width="52.95px" xmlns="http://www.w3.org/2000/svg">
  <g transform="matrix(1.0, 0.0, 0.0, 1.0, 0.0, 0.0)">
    <use ffdec:characterId="3" height="26.0" transform="matrix(1.0, 0.0, 0.0, 1.0, 0.0, 0.0)" width="26.0" xlink:href="#shape0"/>
    <use ffdec:characterId="24" height="10.25" transform="matrix(8.9286, 0.0, 0.0, 0.0592, 7.25, 7.8)" width="0.7" xlink:href="#shape1"/>
    <use ffdec:characterId="24" height="10.25" transform="matrix(8.9286, 0.0, 0.0, 0.0592, 6.45, 7.2)" width="0.7" xlink:href="#shape1"/>
    <use ffdec:characterId="24" height="10.25" transform="matrix(4.2857, 0.0, 0.0, 0.1268, 15.8, 15.05)" width="0.7" xlink:href="#shape1"/>
    <use ffdec:characterId="24" height="10.25" transform="matrix(4.2857, 0.0, 0.0, 0.1268, 15.0, 14.45)" width="0.7" xlink:href="#shape1"/>
  </g>
  <defs>
    <g id="shape0" transform="matrix(1.0, 0.0, 0.0, 1.0, 0.0, 0.0)">
      <path d="M0.4 0.45 L25.7 0.45 25.7 25.65 0.4 25.65 0.4 0.45 0.4 0.45" fill="#cccccc" fill-opacity="0.0" fill-rule="evenodd" stroke="none"/>
    </g>
    <g id="shape1" transform="matrix(1.0, 0.0, 0.0, 1.0, 0.0, 0.0)">
      <path d="M0.0 10.25 L0.0 0.0 0.7 0.0 0.7 10.25 0.0 10.25" fill="#000000" fill-rule="evenodd" stroke="none"/>
    </g>
  </defs>
</svg>
