<?xml version="1.0" encoding="UTF-8" standalone="no"?>
<svg xmlns:ffdec="https://www.free-decompiler.com/flash" xmlns:xlink="http://www.w3.org/1999/xlink" ffdec:objectType="frame" height="26.05px" width="52.95px" xmlns="http://www.w3.org/2000/svg">
  <g transform="matrix(1.0, 0.0, 0.0, 1.0, 0.0, 0.0)">
    <use ffdec:characterId="3" height="26.0" transform="matrix(1.0, 0.0, 0.0, 1.0, 0.0, 0.0)" width="26.0" xlink:href="#shape0"/>
    <use ffdec:characterId="31" height="12.8" transform="matrix(1.0, 0.0, 0.0, 1.0, 8.9, 5.2)" width="10.0" xlink:href="#shape1"/>
    <use ffdec:characterId="31" height="12.8" transform="matrix(1.0, 0.0, 0.0, 1.0, 8.1, 4.6)" width="10.0" xlink:href="#shape1"/>
  </g>
  <defs>
    <g id="shape0" transform="matrix(1.0, 0.0, 0.0, 1.0, 0.0, 0.0)">
      <path d="M0.4 0.45 L25.7 0.45 25.7 25.65 0.4 25.65 0.4 0.45 0.4 0.45" fill="#cccccc" fill-opacity="0.0" fill-rule="evenodd" stroke="none"/>
    </g>
    <g id="shape1" transform="matrix(1.0, 0.0, 0.0, 1.0, 0.0, 0.0)">
      <path d="M8.35 0.0 L10.0 0.0 7.75 12.8 6.4 12.8 5.0 3.3 3.6 12.8 2.2 12.8 0.0 0.0 1.65 0.0 2.85 8.65 2.9 9.6 2.95 9.6 4.35 0.0 5.7 0.0 7.05 9.55 7.1 9.55 8.35 0.0" fill="#000000" fill-rule="evenodd" stroke="none"/>
    </g>
  </defs>
</svg>
