<?xml version="1.0" encoding="UTF-8" standalone="no"?>
<svg xmlns:ffdec="https://www.free-decompiler.com/flash" xmlns:xlink="http://www.w3.org/1999/xlink" ffdec:objectType="frame" height="26.05px" width="52.95px" xmlns="http://www.w3.org/2000/svg">
  <g transform="matrix(1.0, 0.0, 0.0, 1.0, 0.0, 0.0)">
    <use ffdec:characterId="3" height="26.0" transform="matrix(1.0, 0.0, 0.0, 1.0, 0.0, 0.0)" width="26.0" xlink:href="#shape0"/>
    <use ffdec:characterId="4" height="7.8" transform="matrix(1.2564, 0.0, 0.0, 1.2564, 9.05, 3.6)" width="1.1" xlink:href="#shape1"/>
    <use ffdec:characterId="4" height="7.8" transform="matrix(1.2564, 0.0, 0.0, 1.2564, 7.25, 4.0)" width="1.1" xlink:href="#shape1"/>
    <use ffdec:characterId="5" height="12.8" transform="matrix(1.0, 0.0, 0.0, 1.0, 15.85, 6.4)" width="2.95" xlink:href="#shape2"/>
    <use ffdec:characterId="5" height="12.8" transform="matrix(1.0, 0.0, 0.0, 1.0, 15.05, 5.8)" width="2.95" xlink:href="#shape2"/>
  </g>
  <defs>
    <g id="shape0" transform="matrix(1.0, 0.0, 0.0, 1.0, 0.0, 0.0)">
      <path d="M0.4 0.45 L25.7 0.45 25.7 25.65 0.4 25.65 0.4 0.45 0.4 0.45" fill="#cccccc" fill-opacity="0.0" fill-rule="evenodd" stroke="none"/>
    </g>
    <g id="shape1" transform="matrix(1.0, 0.0, 0.0, 1.0, 0.0, 0.0)">
      <path d="M0.55 7.8 L0.2 7.6 0.0 7.15 0.2 6.75 0.55 6.55 0.95 6.75 1.1 7.15 0.95 7.6 Q0.8 7.8 0.55 7.8 M1.05 0.0 L1.05 5.85 0.1 5.85 0.1 0.0 1.05 0.0" fill="#000000" fill-rule="evenodd" stroke="none"/>
    </g>
    <g id="shape2" transform="matrix(1.0, 0.0, 0.0, 1.0, 0.0, 0.0)">
      <path d="M0.0 0.0 L2.95 0.0 2.95 12.8 1.25 12.8 1.25 1.45 0.0 1.45 0.0 0.0" fill="#000000" fill-rule="evenodd" stroke="none"/>
    </g>
  </defs>
</svg>
