<?xml version="1.0" encoding="UTF-8" standalone="no"?>
<svg xmlns:ffdec="https://www.free-decompiler.com/flash" xmlns:xlink="http://www.w3.org/1999/xlink" ffdec:objectType="frame" height="26.05px" width="52.95px" xmlns="http://www.w3.org/2000/svg">
  <g transform="matrix(1.0, 0.0, 0.0, 1.0, 0.0, 0.0)">
    <use ffdec:characterId="3" height="26.0" transform="matrix(1.0, 0.0, 0.0, 1.0, 0.0, 0.0)" width="26.0" xlink:href="#shape0"/>
    <use ffdec:characterId="36" height="12.95" transform="matrix(1.0, 0.0, 0.0, 1.0, 11.0, 5.0)" width="5.85" xlink:href="#shape1"/>
    <use ffdec:characterId="36" height="12.95" transform="matrix(1.0, 0.0, 0.0, 1.0, 10.2, 4.4)" width="5.85" xlink:href="#shape1"/>
  </g>
  <defs>
    <g id="shape0" transform="matrix(1.0, 0.0, 0.0, 1.0, 0.0, 0.0)">
      <path d="M0.4 0.45 L25.7 0.45 25.7 25.65 0.4 25.65 0.4 0.45 0.4 0.45" fill="#cccccc" fill-opacity="0.0" fill-rule="evenodd" stroke="none"/>
    </g>
    <g id="shape1" transform="matrix(1.0, 0.0, 0.0, 1.0, 0.0, 0.0)">
      <path d="M4.15 0.0 L5.85 0.0 5.85 9.1 5.85 10.4 5.5 11.65 4.65 12.6 2.95 12.95 Q1.6 12.95 0.95 12.4 0.35 11.85 0.15 10.9 -0.05 10.0 0.0 8.8 L0.0 0.0 1.7 0.0 1.7 9.4 Q1.7 10.2 1.85 10.65 L2.25 11.2 2.9 11.35 3.75 11.15 4.1 10.5 4.15 9.55 4.15 0.0" fill="#000000" fill-rule="evenodd" stroke="none"/>
    </g>
  </defs>
</svg>
