<?xml version="1.0" encoding="UTF-8" standalone="no"?>
<svg xmlns:ffdec="https://www.free-decompiler.com/flash" xmlns:xlink="http://www.w3.org/1999/xlink" ffdec:objectType="frame" height="26.05px" width="52.95px" xmlns="http://www.w3.org/2000/svg">
  <g transform="matrix(1.0, 0.0, 0.0, 1.0, 0.0, 0.0)">
    <use ffdec:characterId="119" height="26.0" transform="matrix(1.0, 0.0, 0.0, 1.0, 0.0, 0.0)" width="26.0" xlink:href="#shape0"/>
    <use ffdec:characterId="120" height="12.8" transform="matrix(0.9293, 0.0, 0.0, 0.9326, 7.55, 6.05)" width="13.5" xlink:href="#shape1"/>
    <use ffdec:characterId="120" height="12.8" transform="matrix(0.9293, 0.0, 0.0, 0.9326, 6.75, 7.45)" width="13.5" xlink:href="#shape1"/>
  </g>
  <defs>
    <g id="shape0" transform="matrix(1.0, 0.0, 0.0, 1.0, 0.0, 0.0)">
      <path d="M0.3 0.2 L25.7 0.2 25.7 25.8 0.3 25.8 0.3 0.2 0.3 0.2" fill="#cccccc" fill-opacity="0.0" fill-rule="evenodd" stroke="none"/>
    </g>
    <g id="shape1" transform="matrix(1.0, 0.0, 0.0, 1.0, 0.0, 0.0)">
      <path d="M4.45 8.7 L6.05 0.0 7.55 0.0 8.75 12.8 7.05 12.8 6.6 3.95 4.95 12.8 3.8 12.8 2.15 3.95 2.1 3.95 1.65 12.8 0.0 12.8 1.05 0.0 2.5 0.0 4.35 9.25 4.4 9.25 4.45 8.7 M10.55 0.0 L13.5 0.0 13.5 12.8 11.8 12.8 11.8 1.45 10.55 1.45 10.55 0.0" fill="#000000" fill-rule="evenodd" stroke="none"/>
    </g>
  </defs>
</svg>
