<?xml version="1.0" encoding="UTF-8" standalone="no"?>
<svg xmlns:ffdec="https://www.free-decompiler.com/flash" xmlns:xlink="http://www.w3.org/1999/xlink" ffdec:objectType="frame" height="26.05px" width="52.95px" xmlns="http://www.w3.org/2000/svg">
  <g transform="matrix(1.0, 0.0, 0.0, 1.0, 0.0, 0.0)">
    <use ffdec:characterId="3" height="26.0" transform="matrix(1.0, 0.0, 0.0, 1.0, 0.0, 0.0)" width="26.0" xlink:href="#shape0"/>
    <use ffdec:characterId="38" height="8.75" transform="matrix(1.12, 0.0, 0.0, 1.12, 8.35, 3.6)" width="2.6" xlink:href="#shape1"/>
    <use ffdec:characterId="38" height="8.75" transform="matrix(1.12, 0.0, 0.0, 1.12, 7.55, 3.0)" width="2.6" xlink:href="#shape1"/>
    <use ffdec:characterId="39" height="14.55" transform="matrix(1.0, 0.0, 0.0, 1.0, 15.6, 5.0)" width="3.7" xlink:href="#shape2"/>
    <use ffdec:characterId="39" height="14.55" transform="matrix(1.0, 0.0, 0.0, 1.0, 14.8, 6.4)" width="3.7" xlink:href="#shape2"/>
  </g>
  <defs>
    <g id="shape0" transform="matrix(1.0, 0.0, 0.0, 1.0, 0.0, 0.0)">
      <path d="M0.4 0.45 L25.7 0.45 25.7 25.65 0.4 25.65 0.4 0.45 0.4 0.45" fill="#cccccc" fill-opacity="0.0" fill-rule="evenodd" stroke="none"/>
    </g>
    <g id="shape1" transform="matrix(1.0, 0.0, 0.0, 1.0, 0.0, 0.0)">
      <path d="M2.25 0.0 L2.6 0.0 2.6 0.55 Q2.15 0.6 1.95 0.8 1.75 1.0 1.8 1.45 L1.8 3.1 1.7 3.65 1.4 4.1 0.8 4.3 0.8 4.35 1.4 4.6 1.7 5.05 1.8 5.6 1.8 7.25 1.95 7.9 2.6 8.15 2.6 8.75 2.25 8.75 1.55 8.6 1.1 8.2 0.9 7.35 0.9 5.45 0.75 4.95 0.4 4.7 0.0 4.65 0.0 4.1 0.4 4.0 0.75 3.75 0.9 3.25 0.9 1.3 1.1 0.5 Q1.25 0.2 1.55 0.05 L2.25 0.0" fill="#000000" fill-rule="evenodd" stroke="none"/>
    </g>
    <g id="shape2" transform="matrix(1.0, 0.0, 0.0, 1.0, 0.0, 0.0)">
      <path d="M0.0 14.55 L0.0 0.0 3.7 0.0 3.7 1.15 1.45 1.15 1.45 13.4 3.7 13.4 3.7 14.55 0.0 14.55" fill="#000000" fill-rule="evenodd" stroke="none"/>
    </g>
  </defs>
</svg>
