<?xml version="1.0" encoding="UTF-8" standalone="no"?>
<svg xmlns:ffdec="https://www.free-decompiler.com/flash" xmlns:xlink="http://www.w3.org/1999/xlink" ffdec:objectType="frame" height="26.05px" width="52.95px" xmlns="http://www.w3.org/2000/svg">
  <g transform="matrix(1.0, 0.0, 0.0, 1.0, 0.0, 0.0)">
    <use ffdec:characterId="3" height="26.0" transform="matrix(1.0, 0.0, 0.0, 1.0, 0.0, 0.0)" width="26.0" xlink:href="#shape0"/>
    <use ffdec:characterId="113" height="14.1" transform="matrix(0.9293, 0.0, 0.0, 0.9326, 11.6, 4.85)" width="4.95" xlink:href="#shape1"/>
    <use ffdec:characterId="113" height="14.1" transform="matrix(0.9293, 0.0, 0.0, 0.9326, 10.8, 6.25)" width="4.95" xlink:href="#shape1"/>
  </g>
  <defs>
    <g id="shape0" transform="matrix(1.0, 0.0, 0.0, 1.0, 0.0, 0.0)">
      <path d="M0.4 0.45 L25.7 0.45 25.7 25.65 0.4 25.65 0.4 0.45 0.4 0.45" fill="#cccccc" fill-opacity="0.0" fill-rule="evenodd" stroke="none"/>
    </g>
    <g id="shape1" transform="matrix(1.0, 0.0, 0.0, 1.0, 0.0, 0.0)">
      <path d="M0.0 5.9 L0.05 5.85 2.5 0.0 4.95 5.85 4.95 5.9 3.05 5.9 3.05 14.1 1.95 14.1 1.95 5.9 0.0 5.9" fill="#000000" fill-rule="evenodd" stroke="none"/>
    </g>
  </defs>
</svg>
