<?xml version="1.0" encoding="UTF-8" standalone="no"?>
<svg xmlns:ffdec="https://www.free-decompiler.com/flash" xmlns:xlink="http://www.w3.org/1999/xlink" ffdec:objectType="frame" height="26.05px" width="52.95px" xmlns="http://www.w3.org/2000/svg">
  <g transform="matrix(1.0, 0.0, 0.0, 1.0, 0.0, 0.0)">
    <use ffdec:characterId="132" height="26.0" transform="matrix(1.0, 0.0, 0.0, 1.0, 0.05, 0.05)" width="26.0" xlink:href="#shape0"/>
    <use ffdec:characterId="44" height="12.8" transform="matrix(1.0, 0.0, 0.0, 1.0, 10.4, 5.2)" width="6.9" xlink:href="#shape1"/>
    <use ffdec:characterId="44" height="12.8" transform="matrix(1.0, 0.0, 0.0, 1.0, 9.6, 6.6)" width="6.9" xlink:href="#shape1"/>
  </g>
  <defs>
    <g id="shape0" transform="matrix(1.0, 0.0, 0.0, 1.0, -0.05, -0.05)">
      <path d="M0.45 0.25 L25.9 0.25 25.9 25.85 0.45 25.85 0.45 0.25 0.45 0.25" fill="#cccccc" fill-opacity="0.0" fill-rule="evenodd" stroke="none"/>
    </g>
    <g id="shape1" transform="matrix(1.0, 0.0, 0.0, 1.0, 0.0, 0.0)">
      <path d="M2.8 0.0 L4.15 0.0 6.9 12.8 5.2 12.8 4.7 10.3 2.15 10.3 1.7 12.8 0.0 12.8 2.8 0.0 M2.4 8.95 L4.45 8.95 3.45 2.45 2.4 8.95" fill="#000000" fill-rule="evenodd" stroke="none"/>
    </g>
  </defs>
</svg>
