<?xml version="1.0" encoding="UTF-8" standalone="no"?>
<svg xmlns:ffdec="https://www.free-decompiler.com/flash" xmlns:xlink="http://www.w3.org/1999/xlink" ffdec:objectType="frame" height="26.05px" width="52.95px" xmlns="http://www.w3.org/2000/svg">
  <g transform="matrix(1.0, 0.0, 0.0, 1.0, 0.0, 0.0)">
    <use ffdec:characterId="132" height="26.0" transform="matrix(1.0, 0.0, 0.0, 1.0, 0.05, 0.05)" width="26.0" xlink:href="#shape0"/>
    <use ffdec:characterId="61" height="12.8" transform="matrix(1.0, 0.0, 0.0, 1.0, 10.65, 5.2)" width="6.45" xlink:href="#shape1"/>
    <use ffdec:characterId="61" height="12.8" transform="matrix(1.0, 0.0, 0.0, 1.0, 9.85, 4.6)" width="6.45" xlink:href="#shape1"/>
  </g>
  <defs>
    <g id="shape0" transform="matrix(1.0, 0.0, 0.0, 1.0, -0.05, -0.05)">
      <path d="M0.45 0.25 L25.9 0.25 25.9 25.85 0.45 25.85 0.45 0.25 0.45 0.25" fill="#cccccc" fill-opacity="0.0" fill-rule="evenodd" stroke="none"/>
    </g>
    <g id="shape1" transform="matrix(1.0, 0.0, 0.0, 1.0, 0.0, 0.0)">
      <path d="M3.35 4.6 L4.75 0.0 6.45 0.0 4.1 6.3 6.45 12.8 4.75 12.8 3.95 10.55 3.55 9.3 3.25 8.0 3.2 8.0 3.1 8.75 2.9 9.5 1.85 12.8 0.0 12.8 2.45 6.3 0.15 0.0 1.85 0.0 2.65 2.25 3.05 3.4 3.35 4.6" fill="#000000" fill-rule="evenodd" stroke="none"/>
    </g>
  </defs>
</svg>
