<?xml version="1.0" encoding="UTF-8" standalone="no"?>
<svg xmlns:ffdec="https://www.free-decompiler.com/flash" xmlns:xlink="http://www.w3.org/1999/xlink" ffdec:objectType="frame" height="26.05px" width="52.95px" xmlns="http://www.w3.org/2000/svg">
  <g transform="matrix(1.0, 0.0, 0.0, 1.0, 0.0, 0.0)">
    <use ffdec:characterId="3" height="26.0" transform="matrix(1.0, 0.0, 0.0, 1.0, 0.0, 0.0)" width="26.0" xlink:href="#shape0"/>
    <use ffdec:characterId="147" height="12.8" transform="matrix(0.9293, 0.0, 0.0, 0.9326, 9.0, 6.05)" width="10.35" xlink:href="#shape1"/>
    <use ffdec:characterId="147" height="12.8" transform="matrix(0.9293, 0.0, 0.0, 0.9326, 8.2, 5.45)" width="10.35" xlink:href="#shape1"/>
  </g>
  <defs>
    <g id="shape0" transform="matrix(1.0, 0.0, 0.0, 1.0, 0.0, 0.0)">
      <path d="M0.4 0.45 L25.7 0.45 25.7 25.65 0.4 25.65 0.4 0.45 0.4 0.45" fill="#cccccc" fill-opacity="0.0" fill-rule="evenodd" stroke="none"/>
    </g>
    <g id="shape1" transform="matrix(1.0, 0.0, 0.0, 1.0, 0.0, 0.0)">
      <path d="M7.4 1.45 L7.4 0.0 10.35 0.0 10.35 12.8 8.65 12.8 8.65 1.45 7.4 1.45 M2.05 0.0 L3.05 0.05 4.1 0.4 4.9 1.4 Q5.2 2.05 5.2 3.25 L5.05 4.6 4.55 5.85 3.45 6.55 5.8 12.8 4.05 12.8 1.7 6.5 1.7 12.8 0.0 12.8 0.0 0.0 2.05 0.0 M1.95 1.45 L1.7 1.45 1.7 5.65 Q2.65 5.7 3.05 5.15 3.4 4.6 3.4 3.65 L3.3 2.5 2.9 1.7 Q2.6 1.4 1.95 1.45" fill="#000000" fill-rule="evenodd" stroke="none"/>
    </g>
  </defs>
</svg>
