<?xml version="1.0" encoding="UTF-8" standalone="no"?>
<svg xmlns:ffdec="https://www.free-decompiler.com/flash" xmlns:xlink="http://www.w3.org/1999/xlink" ffdec:objectType="frame" height="26.05px" width="52.95px" xmlns="http://www.w3.org/2000/svg">
  <g transform="matrix(1.0, 0.0, 0.0, 1.0, 0.0, 0.0)">
    <use ffdec:characterId="132" height="26.0" transform="matrix(1.0, 0.0, 0.0, 1.0, 0.05, 0.05)" width="26.0" xlink:href="#shape0"/>
    <use ffdec:characterId="151" height="10.85" transform="matrix(1.0, 0.0, 0.0, 1.0, 7.5, 5.3)" width="12.7" xlink:href="#shape1"/>
    <use ffdec:characterId="151" height="10.85" transform="matrix(1.0, 0.0, 0.0, 1.0, 6.7, 4.7)" width="12.7" xlink:href="#shape1"/>
  </g>
  <defs>
    <g id="shape0" transform="matrix(1.0, 0.0, 0.0, 1.0, -0.05, -0.05)">
      <path d="M0.45 0.25 L25.9 0.25 25.9 25.85 0.45 25.85 0.45 0.25 0.45 0.25" fill="#cccccc" fill-opacity="0.0" fill-rule="evenodd" stroke="none"/>
    </g>
    <g id="shape1" transform="matrix(1.0, 0.0, 0.0, 1.0, 0.0, 0.0)">
      <path d="M6.35 0.0 L12.7 10.85 0.0 10.85 6.35 0.0 M2.65 9.3 L10.05 9.3 6.35 3.05 2.65 9.3" fill="#000000" fill-rule="evenodd" stroke="none"/>
    </g>
  </defs>
</svg>
