<?xml version="1.0" encoding="UTF-8" standalone="no"?>
<svg xmlns:ffdec="https://www.free-decompiler.com/flash" xmlns:xlink="http://www.w3.org/1999/xlink" ffdec:objectType="frame" height="26.05px" width="52.95px" xmlns="http://www.w3.org/2000/svg">
  <g transform="matrix(1.0, 0.0, 0.0, 1.0, 0.0, 0.0)">
    <use ffdec:characterId="3" height="26.0" transform="matrix(1.0, 0.0, 0.0, 1.0, 0.0, 0.0)" width="26.0" xlink:href="#shape0"/>
    <use ffdec:characterId="56" height="1.85" transform="matrix(1.4118, 0.0, 0.0, 1.4118, 7.5, 3.6)" width="4.25" xlink:href="#shape1"/>
    <use ffdec:characterId="56" height="1.85" transform="matrix(1.4118, 0.0, 0.0, 1.4118, 6.7, 3.0)" width="4.25" xlink:href="#shape1"/>
    <use ffdec:characterId="57" height="2.9" transform="matrix(1.0, 0.0, 0.0, 1.0, 16.75, 15.05)" width="2.55" xlink:href="#shape2"/>
    <use ffdec:characterId="57" height="2.9" transform="matrix(1.0, 0.0, 0.0, 1.0, 15.95, 14.45)" width="2.55" xlink:href="#shape2"/>
  </g>
  <defs>
    <g id="shape0" transform="matrix(1.0, 0.0, 0.0, 1.0, 0.0, 0.0)">
      <path d="M0.4 0.45 L25.7 0.45 25.7 25.65 0.4 25.65 0.4 0.45 0.4 0.45" fill="#cccccc" fill-opacity="0.0" fill-rule="evenodd" stroke="none"/>
    </g>
    <g id="shape1" transform="matrix(1.0, 0.0, 0.0, 1.0, 0.0, 0.0)">
      <path d="M0.7 0.35 L1.25 0.15 1.7 0.25 2.2 0.5 2.7 0.75 3.1 0.85 3.45 0.75 3.7 0.4 3.9 0.0 4.25 0.5 4.0 1.05 3.6 1.45 3.1 1.65 2.7 1.55 2.3 1.4 1.95 1.2 1.6 1.0 1.25 0.95 0.85 1.1 0.55 1.45 0.4 1.85 0.0 1.4 0.3 0.8 0.7 0.35" fill="#000000" fill-rule="evenodd" stroke="none"/>
    </g>
    <g id="shape2" transform="matrix(1.0, 0.0, 0.0, 1.0, 0.0, 0.0)">
      <path d="M0.0 0.7 L1.15 0.0 2.55 2.4 1.7 2.9 0.0 0.7" fill="#000000" fill-rule="evenodd" stroke="none"/>
    </g>
  </defs>
</svg>
