<?xml version="1.0" encoding="UTF-8" standalone="no"?>
<svg xmlns:ffdec="https://www.free-decompiler.com/flash" xmlns:xlink="http://www.w3.org/1999/xlink" ffdec:objectType="frame" height="26.05px" width="52.95px" xmlns="http://www.w3.org/2000/svg">
  <g transform="matrix(1.0, 0.0, 0.0, 1.0, 0.0, 0.0)">
    <use ffdec:characterId="3" height="26.0" transform="matrix(1.0, 0.0, 0.0, 1.0, 0.0, 0.0)" width="26.0" xlink:href="#shape0"/>
    <use ffdec:characterId="24" height="10.25" transform="matrix(0.9286, 0.0, 0.0, 0.9286, 9.3, 3.65)" width="0.7" xlink:href="#shape1"/>
    <use ffdec:characterId="24" height="10.25" transform="matrix(0.9286, 0.0, 0.0, 0.9286, 8.5, 5.05)" width="0.7" xlink:href="#shape1"/>
    <use ffdec:characterId="59" height="15.85" transform="matrix(0.927, 0.0, 0.0, 0.927, 14.1, 4.85)" width="7.95" xlink:href="#shape2"/>
    <use ffdec:characterId="59" height="15.85" transform="matrix(0.927, 0.0, 0.0, 0.927, 13.35, 4.3)" width="7.95" xlink:href="#shape2"/>
  </g>
  <defs>
    <g id="shape0" transform="matrix(1.0, 0.0, 0.0, 1.0, 0.0, 0.0)">
      <path d="M0.4 0.45 L25.7 0.45 25.7 25.65 0.4 25.65 0.4 0.45 0.4 0.45" fill="#cccccc" fill-opacity="0.0" fill-rule="evenodd" stroke="none"/>
    </g>
    <g id="shape1" transform="matrix(1.0, 0.0, 0.0, 1.0, 0.0, 0.0)">
      <path d="M0.0 10.25 L0.0 0.0 0.7 0.0 0.7 10.25 0.0 10.25" fill="#000000" fill-rule="evenodd" stroke="none"/>
    </g>
    <g id="shape2" transform="matrix(1.0, 0.0, 0.0, 1.0, 0.0, 0.0)">
      <path d="M0.0 0.0 L1.35 0.0 7.95 15.85 6.55 15.85 0.0 0.0" fill="#000000" fill-rule="evenodd" stroke="none"/>
    </g>
  </defs>
</svg>
