<?xml version="1.0" encoding="UTF-8" standalone="no"?>
<svg xmlns:ffdec="https://www.free-decompiler.com/flash" xmlns:xlink="http://www.w3.org/1999/xlink" ffdec:objectType="frame" height="26.05px" width="52.95px" xmlns="http://www.w3.org/2000/svg">
  <g transform="matrix(1.0, 0.0, 0.0, 1.0, 0.0, 0.0)">
    <use ffdec:characterId="3" height="26.0" transform="matrix(1.0, 0.0, 0.0, 1.0, 0.0, 0.0)" width="26.0" xlink:href="#shape0"/>
    <use ffdec:characterId="65" height="12.8" transform="matrix(1.0, 0.0, 0.0, 1.0, 10.95, 5.2)" width="5.95" xlink:href="#shape1"/>
    <use ffdec:characterId="65" height="12.8" transform="matrix(1.0, 0.0, 0.0, 1.0, 10.15, 4.6)" width="5.95" xlink:href="#shape1"/>
  </g>
  <defs>
    <g id="shape0" transform="matrix(1.0, 0.0, 0.0, 1.0, 0.0, 0.0)">
      <path d="M0.4 0.45 L25.7 0.45 25.7 25.65 0.4 25.65 0.4 0.45 0.4 0.45" fill="#cccccc" fill-opacity="0.0" fill-rule="evenodd" stroke="none"/>
    </g>
    <g id="shape1" transform="matrix(1.0, 0.0, 0.0, 1.0, 0.0, 0.0)">
      <path d="M4.6 9.7 L4.65 9.7 4.25 0.0 5.95 0.0 5.95 12.8 4.35 12.8 1.35 2.9 1.7 12.8 0.0 12.8 0.0 0.0 1.6 0.0 4.6 9.7" fill="#000000" fill-rule="evenodd" stroke="none"/>
    </g>
  </defs>
</svg>
