<?xml version="1.0" encoding="UTF-8" standalone="no"?>
<svg xmlns:ffdec="https://www.free-decompiler.com/flash" xmlns:xlink="http://www.w3.org/1999/xlink" ffdec:objectType="frame" height="26.05px" width="52.95px" xmlns="http://www.w3.org/2000/svg">
  <g transform="matrix(1.0, 0.0, 0.0, 1.0, 0.0, 0.0)">
    <use ffdec:characterId="3" height="26.0" transform="matrix(1.0, 0.0, 0.0, 1.0, 0.0, 0.0)" width="26.0" xlink:href="#shape0"/>
    <use ffdec:characterId="10" height="9.1" transform="matrix(1.0769, 0.0, 0.0, 1.0769, 7.8, 3.6)" width="3.65" xlink:href="#shape1"/>
    <use ffdec:characterId="10" height="9.1" transform="matrix(1.0769, 0.0, 0.0, 1.0769, 7.0, 3.0)" width="3.65" xlink:href="#shape1"/>
    <use ffdec:characterId="11" height="12.8" transform="matrix(1.0, 0.0, 0.0, 1.0, 14.35, 6.4)" width="5.9" xlink:href="#shape2"/>
    <use ffdec:characterId="11" height="12.8" transform="matrix(1.0, 0.0, 0.0, 1.0, 13.55, 6.3)" width="5.9" xlink:href="#shape2"/>
  </g>
  <defs>
    <g id="shape0" transform="matrix(1.0, 0.0, 0.0, 1.0, 0.0, 0.0)">
      <path d="M0.4 0.45 L25.7 0.45 25.7 25.65 0.4 25.65 0.4 0.45 0.4 0.45" fill="#cccccc" fill-opacity="0.0" fill-rule="evenodd" stroke="none"/>
    </g>
    <g id="shape1" transform="matrix(1.0, 0.0, 0.0, 1.0, 0.0, 0.0)">
      <path d="M2.05 0.0 L2.05 0.7 3.0 1.0 3.55 1.8 2.75 2.3 2.45 1.75 1.85 1.55 Q1.4 1.55 1.2 1.85 L1.0 2.55 Q1.0 2.95 1.15 3.2 L1.6 3.65 2.25 4.1 3.05 4.65 3.5 5.25 3.65 6.25 3.55 7.25 3.0 8.0 Q2.7 8.35 2.05 8.4 L2.05 9.1 1.6 9.1 1.6 8.4 0.65 8.05 0.1 7.25 0.95 6.85 1.25 7.35 Q1.45 7.55 1.8 7.55 L2.3 7.4 2.6 6.95 2.65 6.4 2.55 5.7 2.15 5.3 1.6 4.95 Q1.1 4.65 0.75 4.35 L0.2 3.6 0.0 2.6 0.2 1.7 0.7 1.0 Q1.05 0.7 1.6 0.7 L1.6 0.0 2.05 0.0" fill="#000000" fill-rule="evenodd" stroke="none"/>
    </g>
    <g id="shape2" transform="matrix(1.0, 0.0, 0.0, 1.0, 0.0, 0.0)">
      <path d="M3.45 2.6 L3.4 2.6 1.35 8.0 3.45 8.0 3.45 2.6 M3.45 0.0 L5.1 0.0 5.1 8.0 5.9 8.0 5.9 9.3 5.1 9.3 5.1 12.8 3.45 12.8 3.45 9.3 0.0 9.3 0.0 7.8 3.45 0.0" fill="#000000" fill-rule="evenodd" stroke="none"/>
    </g>
  </defs>
</svg>
