<?xml version="1.0" encoding="UTF-8" standalone="no"?>
<svg xmlns:ffdec="https://www.free-decompiler.com/flash" xmlns:xlink="http://www.w3.org/1999/xlink" ffdec:objectType="frame" height="26.05px" width="52.95px" xmlns="http://www.w3.org/2000/svg">
  <g transform="matrix(1.0, 0.0, 0.0, 1.0, 0.0, 0.0)">
    <use ffdec:characterId="3" height="26.0" transform="matrix(1.0, 0.0, 0.0, 1.0, 0.0, 0.0)" width="26.0" xlink:href="#shape0"/>
    <use ffdec:characterId="67" height="5.4" transform="matrix(1.4118, 0.0, 0.0, 1.4118, 7.5, 3.65)" width="4.25" xlink:href="#shape1"/>
    <use ffdec:characterId="67" height="5.4" transform="matrix(1.4118, 0.0, 0.0, 1.4118, 6.7, 3.05)" width="4.25" xlink:href="#shape1"/>
    <use ffdec:characterId="68" height="4.95" transform="matrix(1.0, 0.0, 0.0, 1.0, 16.2, 14.6)" width="2.5" xlink:href="#shape2"/>
    <use ffdec:characterId="68" height="4.95" transform="matrix(1.0, 0.0, 0.0, 1.0, 15.4, 14.0)" width="2.5" xlink:href="#shape2"/>
  </g>
  <defs>
    <g id="shape0" transform="matrix(1.0, 0.0, 0.0, 1.0, 0.0, 0.0)">
      <path d="M0.4 0.45 L25.7 0.45 25.7 25.65 0.4 25.65 0.4 0.45 0.4 0.45" fill="#cccccc" fill-opacity="0.0" fill-rule="evenodd" stroke="none"/>
    </g>
    <g id="shape1" transform="matrix(1.0, 0.0, 0.0, 1.0, 0.0, 0.0)">
      <path d="M0.0 3.05 L0.0 2.4 4.25 0.0 4.25 0.75 0.85 2.7 4.25 4.65 4.25 5.4 0.0 3.05" fill="#000000" fill-rule="evenodd" stroke="none"/>
    </g>
    <g id="shape2" transform="matrix(1.0, 0.0, 0.0, 1.0, 0.0, 0.0)">
      <path d="M1.15 0.0 L2.5 0.4 0.85 4.95 0.0 4.7 1.15 0.0" fill="#000000" fill-rule="evenodd" stroke="none"/>
    </g>
  </defs>
</svg>
