<?xml version="1.0" encoding="UTF-8" standalone="no"?>
<svg xmlns:ffdec="https://www.free-decompiler.com/flash" xmlns:xlink="http://www.w3.org/1999/xlink" ffdec:objectType="frame" height="26.05px" width="52.95px" xmlns="http://www.w3.org/2000/svg">
  <g transform="matrix(1.0, 0.0, 0.0, 1.0, 0.0, 0.0)">
    <use ffdec:characterId="1" height="26.0" transform="matrix(1.0, 0.0, 0.0, 1.0, 0.0, 0.0)" width="35.75" xlink:href="#shape0"/>
    <use ffdec:characterId="75" height="14.1" transform="matrix(1.0, 0.0, 0.0, 1.0, 9.35, 3.9)" width="18.6" xlink:href="#shape1"/>
    <use ffdec:characterId="75" height="14.1" transform="matrix(1.0, 0.0, 0.0, 1.0, 8.55, 2.3)" width="18.6" xlink:href="#shape1"/>
  </g>
  <defs>
    <g id="shape0" transform="matrix(1.0, 0.0, 0.0, 1.0, 0.0, 0.0)">
      <path d="M0.45 0.35 L35.6 0.35 35.6 25.9 0.45 25.9 0.45 0.35 0.45 0.35" fill="#cccccc" fill-opacity="0.0" fill-rule="evenodd" stroke="none"/>
    </g>
    <g id="shape1" transform="matrix(1.0, 0.0, 0.0, 1.0, 0.0, 0.0)">
      <path d="M0.0 1.3 L1.7 1.3 1.7 12.6 4.55 12.6 4.55 14.1 0.0 14.1 0.0 1.3 M9.75 11.6 L7.2 11.6 6.75 14.1 5.05 14.1 7.85 1.3 9.2 1.3 11.95 14.1 10.25 14.1 9.75 11.6 M8.5 3.75 L7.45 10.25 9.5 10.25 8.5 3.75 M12.8 0.0 L14.4 0.0 14.4 14.1 12.8 14.1 12.8 0.0 M16.15 3.1 L17.75 3.1 17.75 5.5 18.6 5.5 18.6 6.8 17.75 6.8 17.75 14.1 16.15 14.1 16.15 6.8 15.3 6.8 15.3 5.5 16.15 5.5 16.15 3.1" fill="#000000" fill-rule="evenodd" stroke="none"/>
    </g>
  </defs>
</svg>
