<?xml version="1.0" encoding="UTF-8" standalone="no"?>
<svg xmlns:ffdec="https://www.free-decompiler.com/flash" xmlns:xlink="http://www.w3.org/1999/xlink" ffdec:objectType="frame" height="26.05px" width="52.95px" xmlns="http://www.w3.org/2000/svg">
  <g transform="matrix(1.0, 0.0, 0.0, 1.0, 0.0, 0.0)">
    <use ffdec:characterId="1" height="26.0" transform="matrix(1.0, 0.0, 0.0, 1.0, 0.0, 0.0)" width="35.75" xlink:href="#shape0"/>
    <use ffdec:characterId="103" height="12.95" transform="matrix(1.0, 0.0, 0.0, 1.0, 10.45, 5.2)" width="16.45" xlink:href="#shape1"/>
    <use ffdec:characterId="103" height="12.95" transform="matrix(1.0, 0.0, 0.0, 1.0, 9.65, 4.6)" width="16.45" xlink:href="#shape1"/>
  </g>
  <defs>
    <g id="shape0" transform="matrix(1.0, 0.0, 0.0, 1.0, 0.0, 0.0)">
      <path d="M0.45 0.35 L35.6 0.35 35.6 25.9 0.45 25.9 0.45 0.35 0.45 0.35" fill="#cccccc" fill-opacity="0.0" fill-rule="evenodd" stroke="none"/>
    </g>
    <g id="shape1" transform="matrix(1.0, 0.0, 0.0, 1.0, 0.0, 0.0)">
      <path d="M1.6 0.0 L4.6 9.7 4.65 9.7 4.25 0.0 5.95 0.0 5.95 12.8 4.35 12.8 1.35 2.9 1.7 12.8 0.0 12.8 0.0 0.0 1.6 0.0 M14.45 11.9 Q14.45 11.5 14.75 11.2 15.0 10.9 15.45 10.9 15.9 10.9 16.15 11.2 L16.45 11.9 16.15 12.65 Q15.9 12.95 15.45 12.95 L14.75 12.65 Q14.45 12.35 14.45 11.9 M11.4 2.5 L10.95 1.7 9.95 1.45 9.7 1.45 9.7 5.7 Q10.75 5.75 11.15 5.2 11.55 4.65 11.55 3.55 L11.4 2.5 M12.25 0.45 L13.05 1.5 13.35 3.4 Q13.35 5.35 12.5 6.3 11.65 7.2 9.7 7.1 L9.7 12.8 8.0 12.8 8.0 0.0 10.05 0.0 11.15 0.05 12.25 0.45" fill="#000000" fill-rule="evenodd" stroke="none"/>
    </g>
  </defs>
</svg>
