<?xml version="1.0" encoding="UTF-8" standalone="no"?>
<svg xmlns:ffdec="https://www.free-decompiler.com/flash" xmlns:xlink="http://www.w3.org/1999/xlink" ffdec:objectType="shape" height="14.25px" width="22.9px" xmlns="http://www.w3.org/2000/svg">
  <g transform="matrix(1.0, 0.0, 0.0, 1.0, 0.0, 0.0)">
    <path d="M0.0 1.3 L2.05 1.3 3.05 1.35 4.1 1.7 4.9 2.7 Q5.2 3.35 5.2 4.55 L5.05 5.9 4.55 7.15 3.45 7.85 5.8 14.1 4.05 14.1 1.7 7.8 1.7 14.1 0.0 14.1 0.0 1.3 M1.95 2.75 L1.7 2.75 1.7 6.95 Q2.65 7.0 3.05 6.45 3.4 5.9 3.4 4.95 L3.3 3.8 2.9 3.0 Q2.6 2.7 1.95 2.75 M14.9 3.1 L14.9 5.5 15.75 5.5 15.75 6.8 14.9 6.8 14.9 14.1 13.3 14.1 13.3 6.8 12.45 6.8 12.45 5.5 13.3 5.5 13.3 3.1 14.9 3.1 M11.3 1.2 L12.0 1.5 12.0 3.05 11.5 2.8 10.9 2.7 Q10.2 2.7 9.75 3.1 9.3 3.45 9.05 4.05 L8.65 5.3 8.55 6.65 8.5 7.75 8.55 9.25 8.85 10.85 Q9.1 11.65 9.6 12.15 10.1 12.65 11.0 12.65 L11.5 12.6 12.0 12.4 12.0 13.9 11.35 14.2 10.65 14.25 Q9.35 14.25 8.55 13.65 7.8 13.05 7.4 12.1 7.0 11.15 6.85 10.0 L6.7 7.9 6.75 6.2 7.05 4.4 Q7.25 3.5 7.7 2.75 8.1 2.0 8.8 1.55 9.5 1.15 10.5 1.1 L11.3 1.2 M16.75 5.5 L18.35 5.5 18.35 6.55 18.4 6.55 19.1 5.7 20.2 5.4 20.2 6.95 19.95 6.95 Q19.05 6.95 18.7 7.4 18.35 7.85 18.35 8.7 L18.35 14.1 16.75 14.1 16.75 5.5 M22.9 14.1 L21.3 14.1 21.3 0.0 22.9 0.0 22.9 14.1" fill="#7a7f83" fill-rule="evenodd" stroke="none"/>
  </g>
</svg>
