<?xml version="1.0" encoding="UTF-8" standalone="no"?>
<svg xmlns:ffdec="https://www.free-decompiler.com/flash" xmlns:xlink="http://www.w3.org/1999/xlink" ffdec:objectType="shape" height="12.95px" width="13.7px" xmlns="http://www.w3.org/2000/svg">
  <g transform="matrix(1.0, 0.0, 0.0, 1.0, 0.0, 0.0)">
    <path d="M0.0 0.0 L1.7 0.0 1.7 12.8 0.0 12.8 0.0 0.0 M6.25 4.15 L6.8 4.1 Q7.65 4.1 8.05 4.5 L8.5 5.6 8.55 6.9 8.55 12.8 6.95 12.8 6.95 6.85 6.9 6.25 6.65 5.75 Q6.45 5.5 6.0 5.5 5.5 5.55 5.3 5.85 5.1 6.2 5.05 6.6 L5.05 7.45 5.05 12.8 3.45 12.8 3.45 4.2 5.05 4.2 5.05 5.2 5.1 5.2 5.4 4.7 5.75 4.4 6.25 4.15 M11.85 4.1 L12.6 4.15 13.3 4.45 13.3 5.95 12.7 5.65 12.1 5.5 Q11.65 5.5 11.35 5.75 11.0 6.0 11.0 6.45 11.05 6.95 11.45 7.3 L12.35 8.05 13.25 8.95 Q13.65 9.5 13.7 10.4 13.65 11.55 13.05 12.25 12.4 12.9 11.25 12.95 L10.5 12.85 9.85 12.55 9.85 10.95 10.45 11.35 11.15 11.5 11.95 11.2 12.2 10.45 11.95 9.65 11.3 9.05 10.5 8.45 9.8 7.6 Q9.55 7.15 9.55 6.45 9.55 5.4 10.2 4.75 10.8 4.1 11.85 4.1" fill="#7a7f83" fill-rule="evenodd" stroke="none"/>
  </g>
</svg>
