<?xml version="1.0" encoding="UTF-8" standalone="no"?>
<svg xmlns:ffdec="https://www.free-decompiler.com/flash" xmlns:xlink="http://www.w3.org/1999/xlink" ffdec:objectType="shape" height="26.0px" width="26.0px" xmlns="http://www.w3.org/2000/svg">
  <g transform="matrix(1.0, 0.0, 0.0, 1.0, 0.0, 0.0)">
    <path d="M12.0 1.2 L23.8 1.2 Q23.9 1.2 24.0 1.2 24.05 1.25 24.15 1.25 24.25 1.3 24.3 1.35 24.4 1.4 24.45 1.45 24.5 1.55 24.55 1.6 24.6 1.7 24.65 1.75 24.65 1.85 24.7 1.95 24.7 2.0 24.7 2.1 L24.7 23.7 Q24.7 23.8 24.7 23.9 24.65 23.95 24.65 24.05 24.6 24.15 24.55 24.2 24.5 24.25 24.45 24.35 24.35 24.4 24.3 24.45 24.25 24.5 24.15 24.55 24.05 24.55 24.0 24.6 23.9 24.6 23.8 24.6 L2.2 24.6 Q2.1 24.6 2.0 24.6 1.95 24.55 1.85 24.55 1.75 24.5 1.7 24.45 1.6 24.4 1.55 24.35 1.5 24.25 1.45 24.2 1.4 24.15 1.35 24.05 1.35 23.95 1.3 23.9 1.3 23.8 1.3 23.7 1.3 23.7 1.3 12.0 1.3 11.5 1.35 11.05 1.4 10.55 1.55 10.05 1.65 9.6 1.85 9.1 2.0 8.65 2.2 8.2 2.45 7.75 2.7 7.3 2.95 6.85 3.25 6.45 3.55 6.05 3.85 5.65 4.2 5.25 4.55 4.9 4.95 4.5 5.3 4.15 5.7 3.8 6.05 3.45 6.45 3.15 6.85 2.85 7.25 2.55 7.7 2.3 8.15 2.05 8.6 1.85 9.1 1.65 9.65 1.5 10.2 1.35 10.75 1.3 11.35 1.2 12.0 1.2 L12.0 1.2" fill="#ffffff" fill-rule="evenodd" stroke="none"/>
  </g>
</svg>
