<?xml version="1.0" encoding="UTF-8" standalone="no"?>
<svg xmlns:ffdec="https://www.free-decompiler.com/flash" xmlns:xlink="http://www.w3.org/1999/xlink" ffdec:objectType="shape" height="26.0px" width="26.0px" xmlns="http://www.w3.org/2000/svg">
  <g transform="matrix(1.0, 0.0, 0.0, 1.0, 0.0, 0.0)">
    <path d="M14.0 1.2 L2.2 1.2 Q2.1 1.2 2.0 1.2 1.95 1.25 1.85 1.25 1.75 1.3 1.7 1.35 1.6 1.4 1.55 1.45 1.5 1.55 1.45 1.6 1.4 1.7 1.35 1.75 1.35 1.85 1.3 1.95 1.3 2.0 1.3 2.1 L1.3 23.7 Q1.3 23.8 1.3 23.9 1.35 23.95 1.35 24.05 1.4 24.15 1.45 24.2 1.5 24.25 1.55 24.35 1.65 24.4 1.7 24.45 1.75 24.5 1.85 24.55 1.95 24.55 2.0 24.6 2.1 24.6 2.2 24.6 L23.8 24.6 Q23.9 24.6 24.0 24.6 24.05 24.55 24.15 24.55 24.25 24.5 24.3 24.45 24.4 24.4 24.45 24.35 24.5 24.25 24.55 24.2 24.6 24.15 24.65 24.05 24.65 23.95 24.7 23.9 24.7 23.8 24.7 23.7 24.7 23.7 24.7 12.0 24.7 11.5 24.65 11.05 24.6 10.55 24.45 10.05 24.35 9.6 24.15 9.1 24.0 8.65 23.8 8.2 23.55 7.75 23.3 7.3 23.05 6.85 22.75 6.45 22.45 6.05 22.15 5.65 21.8 5.25 21.45 4.9 21.05 4.5 20.7 4.15 20.3 3.8 19.95 3.45 19.55 3.15 19.15 2.85 18.75 2.55 18.3 2.3 17.85 2.05 17.4 1.85 16.9 1.65 16.35 1.5 15.8 1.35 15.25 1.3 14.65 1.2 14.0 1.2 L14.0 1.2" fill="#ffffff" fill-rule="evenodd" stroke="none"/>
  </g>
</svg>
