<?xml version="1.0" encoding="UTF-8" standalone="no"?>
<svg xmlns:ffdec="https://www.free-decompiler.com/flash" xmlns:xlink="http://www.w3.org/1999/xlink" ffdec:objectType="shape" height="12.95px" width="15.45px" xmlns="http://www.w3.org/2000/svg">
  <g transform="matrix(1.0, 0.0, 0.0, 1.0, 0.0, 0.0)">
    <path d="M4.45 8.7 L6.05 0.0 7.55 0.0 8.75 12.8 7.05 12.8 6.6 3.95 4.95 12.8 3.8 12.8 2.15 3.95 2.1 3.95 1.65 12.8 0.0 12.8 1.05 0.0 2.5 0.0 4.35 9.25 4.4 9.25 4.45 8.7 M15.3 0.0 L15.3 1.45 12.5 1.45 12.1 4.7 Q13.25 4.65 14.0 5.1 14.75 5.55 15.1 6.4 15.45 7.2 15.45 8.3 L15.3 10.0 14.7 11.5 13.55 12.55 11.85 12.95 10.85 12.8 9.85 12.45 10.3 10.9 11.05 11.3 11.8 11.45 12.75 11.15 13.35 10.45 13.65 9.5 13.7 8.55 Q13.75 7.45 13.2 6.75 12.7 6.05 11.5 6.05 L11.0 6.1 10.45 6.2 11.2 0.0 15.3 0.0" fill="#7a7f83" fill-rule="evenodd" stroke="none"/>
  </g>
</svg>
