<?xml version="1.0" encoding="UTF-8" standalone="no"?>
<svg xmlns:ffdec="https://www.free-decompiler.com/flash" xmlns:xlink="http://www.w3.org/1999/xlink" ffdec:objectType="shape" height="13.1px" width="15.45px" xmlns="http://www.w3.org/2000/svg">
  <g transform="matrix(1.0, 0.0, 0.0, 1.0, 0.0, 0.0)">
    <path d="M6.05 0.15 L7.55 0.15 8.75 12.95 7.05 12.95 6.6 4.1 4.95 12.95 3.8 12.95 2.15 4.1 2.1 4.1 1.65 12.95 0.0 12.95 1.05 0.15 2.5 0.15 4.35 9.4 4.4 9.4 4.45 8.85 6.05 0.15 M13.7 8.7 L13.55 7.9 13.25 7.2 Q13.05 6.9 12.65 6.9 12.25 6.9 12.0 7.2 L11.7 7.9 11.6 8.7 11.6 9.45 11.65 10.3 11.95 11.2 Q12.15 11.55 12.65 11.6 L13.35 11.2 13.65 10.3 13.7 9.45 13.7 8.7 M13.55 2.55 L13.25 1.85 Q13.05 1.5 12.65 1.5 12.2 1.5 12.0 1.85 11.8 2.15 11.75 2.55 L11.7 3.3 11.75 4.05 12.0 4.85 Q12.25 5.25 12.65 5.25 L13.25 4.85 13.5 4.05 13.6 3.3 13.55 2.55 M15.3 3.1 L15.2 4.25 14.8 5.3 13.9 6.0 Q14.6 6.2 14.9 6.7 L15.35 7.85 15.45 9.1 15.25 11.0 Q15.05 11.95 14.45 12.5 13.85 13.1 12.65 13.1 11.5 13.1 10.9 12.55 10.3 12.0 10.1 11.15 9.85 10.3 9.9 9.35 9.85 8.7 9.95 8.0 10.0 7.3 10.35 6.75 10.65 6.2 11.4 6.0 L10.5 5.3 10.1 4.25 10.0 3.1 Q9.95 2.25 10.2 1.5 10.4 0.8 11.0 0.4 11.55 0.0 12.55 0.0 13.6 0.0 14.2 0.35 14.8 0.7 15.05 1.4 L15.3 3.1" fill="#7a7f83" fill-rule="evenodd" stroke="none"/>
  </g>
</svg>
