<?xml version="1.0" encoding="UTF-8" standalone="no"?>
<svg xmlns:ffdec="https://www.free-decompiler.com/flash" xmlns:xlink="http://www.w3.org/1999/xlink" ffdec:objectType="shape" height="26.0px" width="26.0px" xmlns="http://www.w3.org/2000/svg">
  <g transform="matrix(1.0, 0.0, 0.0, 1.0, -0.05, -0.05)">
    <path d="M22.55 13.0 Q22.55 9.05 19.75 6.3 17.0 3.5 13.05 3.5 9.1 3.5 6.35 6.3 3.55 9.05 3.55 13.0 3.55 16.95 6.35 19.7 9.1 22.5 13.05 22.5 17.0 22.5 19.75 19.7 22.55 16.95 22.55 13.0 L22.55 13.0" fill="#000000" fill-rule="evenodd" stroke="none"/>
    <path d="M22.55 13.0 Q22.55 9.05 19.75 6.3 17.0 3.5 13.05 3.5 9.1 3.5 6.35 6.3 3.55 9.05 3.55 13.0 3.55 16.95 6.35 19.7 9.1 22.5 13.05 22.5 17.0 22.5 19.75 19.7 22.55 16.95 22.55 13.0 L22.55 13.0 Z" fill="none" stroke="#ffffff" stroke-linecap="round" stroke-linejoin="round" stroke-width="1.0"/>
  </g>
</svg>
