<?xml version="1.0" encoding="UTF-8" standalone="no"?>
<svg xmlns:ffdec="https://www.free-decompiler.com/flash" xmlns:xlink="http://www.w3.org/1999/xlink" ffdec:objectType="shape" height="26.0px" width="26.0px" xmlns="http://www.w3.org/2000/svg">
  <g transform="matrix(1.0, 0.0, 0.0, 1.0, 0.0, 0.0)">
    <path d="M23.0 13.0 Q23.0 8.85 20.05 5.95 17.15 3.0 13.0 3.0 8.85 3.0 5.95 5.95 3.0 8.85 3.0 13.0 3.0 17.15 5.95 20.05 8.85 23.0 13.0 23.0 17.15 23.0 20.05 20.05 23.0 17.15 23.0 13.0 L23.0 13.0" fill="#ffffff" fill-rule="evenodd" stroke="none"/>
    <path d="M13.0 4.5 Q12.15 4.5 11.3 4.7 10.45 4.85 9.7 5.15 8.95 5.5 8.25 5.95 7.6 6.4 7.0 7.0 6.4 7.6 5.95 8.25 5.5 8.95 5.2 9.7 4.85 10.45 4.7 11.3 4.5 12.15 4.5 13.0 4.5 13.85 4.7 14.7 4.85 15.55 5.15 16.3 5.5 17.05 5.95 17.75 6.4 18.4 7.0 19.0 7.6 19.6 8.25 20.05 8.95 20.5 9.7 20.8 10.45 21.15 11.3 21.3 12.15 21.5 13.0 21.5 13.85 21.5 14.7 21.3 15.55 21.15 16.3 20.85 17.05 20.5 17.75 20.05 18.4 19.6 19.0 19.0 19.6 18.4 20.05 17.75 20.5 17.05 20.8 16.3 21.15 15.55 21.3 14.7 21.5 13.85 21.5 13.0 21.5 12.15 21.3 11.3 21.15 10.45 20.85 9.7 20.5 8.95 20.05 8.25 19.6 7.6 19.0 7.0 18.4 6.4 17.75 5.95 17.05 5.5 16.3 5.2 15.55 4.85 14.7 4.7 13.85 4.5 13.0 4.5 L13.0 4.5 M13.0 6.2 Q13.7 6.2 14.4 6.35 15.05 6.45 15.65 6.7 16.25 7.0 16.8 7.35 17.35 7.7 17.85 8.2 18.3 8.65 18.65 9.2 19.05 9.75 19.3 10.35 19.55 10.95 19.7 11.6 19.8 12.3 19.8 13.0 19.8 13.7 19.65 14.4 19.55 15.05 19.3 15.65 19.0 16.25 18.65 16.8 18.3 17.35 17.8 17.85 17.35 18.3 16.8 18.65 16.25 19.05 15.65 19.3 15.05 19.55 14.4 19.7 13.7 19.8 13.0 19.8 12.3 19.8 11.6 19.65 10.95 19.55 10.35 19.3 9.75 19.0 9.2 18.65 8.65 18.3 8.15 17.8 7.7 17.35 7.35 16.8 6.95 16.25 6.7 15.65 6.45 15.05 6.3 14.4 6.2 13.7 6.2 13.0 6.2 12.3 6.35 11.6 6.45 10.95 6.7 10.35 7.0 9.75 7.35 9.2 7.7 8.65 8.2 8.15 8.65 7.7 9.2 7.35 9.75 6.95 10.35 6.7 10.95 6.45 11.6 6.3 12.3 6.2 13.0 6.2 L13.0 6.2" fill="#7a7f83" fill-rule="evenodd" stroke="none"/>
  </g>
</svg>
