<?xml version="1.0" encoding="UTF-8" standalone="no"?>
<svg xmlns:ffdec="https://www.free-decompiler.com/flash" xmlns:xlink="http://www.w3.org/1999/xlink" ffdec:objectType="shape" height="26.0px" width="26.0px" xmlns="http://www.w3.org/2000/svg">
  <g transform="matrix(1.0, 0.0, 0.0, 1.0, 0.0, 0.0)">
    <path d="M13.0 5.25 Q13.4 5.25 13.75 5.3 14.1 5.4 14.4 5.5 14.75 5.6 15.0 5.8 15.3 5.95 15.5 6.15 15.75 6.35 15.9 6.6 16.05 6.85 16.15 7.15 16.25 7.4 16.25 7.7 16.3 8.0 16.25 8.3 L14.6 17.95 Q14.55 18.25 14.4 18.55 14.3 18.85 14.1 19.1 13.9 19.4 13.65 19.6 13.4 19.85 13.15 20.05 12.85 20.25 12.5 20.4 12.2 20.55 11.85 20.65 11.45 20.75 11.1 20.8 10.7 20.9 10.3 20.85 9.9 20.85 9.55 20.8 9.2 20.7 8.9 20.6 8.6 20.5 8.3 20.3 8.05 20.15 7.8 19.95 7.6 19.75 7.45 19.5 7.25 19.25 7.2 18.95 7.1 18.7 7.05 18.4 7.05 18.1 7.1 17.8 L8.75 8.15 Q8.8 7.85 8.9 7.55 9.05 7.25 9.25 7.0 9.4 6.7 9.65 6.5 9.9 6.25 10.2 6.05 10.5 5.85 10.8 5.7 11.15 5.55 11.5 5.45 11.85 5.35 12.25 5.25 12.6 5.2 13.0 5.25 L13.0 5.25" fill="#ffffff" fill-rule="evenodd" stroke="none"/>
    <path d="M10.4 3.65 L10.4 4.4 15.6 4.4 15.6 3.65 10.4 3.65" fill="#7a7f83" fill-rule="evenodd" stroke="none"/>
    <path d="M10.4 2.1 L10.4 2.9 15.6 2.9 15.6 2.1 10.4 2.1" fill="#7a7f83" fill-rule="evenodd" stroke="none"/>
    <path d="M10.4 0.55 L10.4 1.35 15.6 1.35 15.6 0.55 10.4 0.55" fill="#7a7f83" fill-rule="evenodd" stroke="none"/>
  </g>
</svg>
