<?xml version="1.0" encoding="UTF-8" standalone="no"?>
<svg xmlns:ffdec="https://www.free-decompiler.com/flash" xmlns:xlink="http://www.w3.org/1999/xlink" ffdec:objectType="shape" height="26.0px" width="26.0px" xmlns="http://www.w3.org/2000/svg">
  <g transform="matrix(1.0, 0.0, 0.0, 1.0, 0.0, 0.0)">
    <path d="M13.4 0.65 L12.6 0.65 12.6 4.0 13.4 4.0 13.4 0.65" fill="#7a7f83" fill-rule="evenodd" stroke="none"/>
    <path d="M16.3 2.0 L15.65 1.65 14.4 4.15 15.05 4.5 16.3 2.0 M9.7 2.0 L10.35 1.65 11.6 4.15 10.95 4.5 9.7 2.0" fill="#7a7f83" fill-rule="evenodd" stroke="none"/>
    <path d="M13.0 5.25 Q12.6 5.25 12.25 5.3 11.9 5.4 11.55 5.5 11.25 5.6 11.0 5.8 10.7 5.95 10.5 6.15 10.25 6.35 10.1 6.6 9.95 6.85 9.85 7.15 9.75 7.4 9.7 7.7 9.7 8.0 9.75 8.3 L11.4 17.95 Q11.45 18.25 11.6 18.55 11.7 18.85 11.9 19.1 12.1 19.4 12.3 19.6 12.55 19.85 12.85 20.05 13.15 20.25 13.5 20.4 13.8 20.55 14.15 20.65 14.5 20.75 14.9 20.8 15.3 20.9 15.65 20.85 16.05 20.85 16.4 20.8 16.75 20.7 17.1 20.6 17.4 20.5 17.65 20.3 17.95 20.15 18.15 19.95 18.4 19.75 18.55 19.5 18.7 19.25 18.8 18.95 18.9 18.7 18.95 18.4 18.95 18.1 18.9 17.8 L17.25 8.15 Q17.2 7.85 17.05 7.55 16.95 7.25 16.75 7.0 16.55 6.7 16.35 6.5 16.1 6.25 15.8 6.05 15.5 5.85 15.2 5.7 14.85 5.55 14.5 5.45 14.15 5.3 13.75 5.25 13.35 5.2 13.0 5.25 L13.0 5.25" fill="#ffffff" fill-rule="evenodd" stroke="none"/>
  </g>
</svg>
