<?xml version="1.0" encoding="UTF-8" standalone="no"?>
<svg xmlns:ffdec="https://www.free-decompiler.com/flash" xmlns:xlink="http://www.w3.org/1999/xlink" ffdec:objectType="shape" height="26.0px" width="26.0px" xmlns="http://www.w3.org/2000/svg">
  <g transform="matrix(1.0, 0.0, 0.0, 1.0, 0.0, 0.0)">
    <path d="M23.1 3.0 Q23.15 3.0 23.3 3.0 23.4 3.0 23.45 3.0 23.55 3.0 23.65 3.0 23.75 3.0 23.8 3.0 23.9 3.05 24.0 3.05 24.1 3.1 24.15 3.1 24.25 3.15 24.3 3.25 24.35 3.3 24.45 3.4 24.5 3.5 24.55 3.55 24.6 3.65 24.6 3.75 24.65 3.85 24.65 4.0 24.65 4.1 24.7 4.2 24.7 4.35 24.7 4.45 24.7 4.6 24.7 4.7 24.7 4.8 24.7 5.0 24.7 5.2 24.7 5.3 24.7 5.4 24.7 7.25 24.7 8.5 24.7 9.3 24.7 10.4 24.65 11.3 24.65 12.4 24.6 13.3 24.55 14.35 24.45 15.2 24.4 16.15 24.25 16.95 24.15 17.8 24.0 18.5 23.8 19.25 23.6 19.85 23.5 20.15 23.35 20.4 23.25 20.65 23.1 20.9 22.95 21.1 22.8 21.3 22.65 21.5 22.45 21.7 22.3 21.85 22.1 22.0 21.95 22.15 21.75 22.25 21.6 22.4 21.4 22.5 21.2 22.55 21.0 22.65 20.8 22.7 20.65 22.75 20.5 22.8 20.35 22.85 20.2 22.9 20.1 22.9 19.95 22.95 19.8 22.95 19.7 23.0 19.6 23.0 19.45 23.0 19.35 23.0 19.25 23.0 19.1 23.0 19.1 23.0 18.8 23.0 L12.25 23.0 Q10.65 23.0 10.1 22.95 9.3 22.9 8.05 22.6 7.7 22.55 7.4 22.45 7.05 22.35 6.75 22.25 6.4 22.1 6.1 22.0 5.8 21.85 5.5 21.65 5.2 21.5 4.95 21.3 4.65 21.1 4.4 20.85 4.15 20.6 3.9 20.3 3.65 20.0 3.45 19.7 3.25 19.35 3.05 19.0 2.85 18.65 2.7 18.25 2.55 17.85 2.4 17.45 2.25 17.05 2.15 16.6 2.05 16.15 1.95 15.7 1.85 15.25 1.8 14.75 1.7 14.3 1.65 13.8 1.6 13.3 1.55 12.8 1.3 10.15 1.3 5.3 1.3 5.2 1.3 5.0 1.3 4.85 1.3 4.75 1.3 4.6 1.3 4.45 1.3 4.35 1.3 4.2 1.35 4.1 1.35 4.0 1.35 3.85 1.4 3.75 1.45 3.65 1.45 3.55 1.5 3.45 1.55 3.4 1.6 3.3 1.7 3.25 1.75 3.2 1.85 3.15 1.9 3.1 2.0 3.05 2.05 3.05 2.15 3.05 2.25 3.0 2.35 3.0 2.4 3.0 2.5 3.0 2.55 3.0 2.65 3.0 2.8 3.0 2.85 3.0 L23.1 3.0" fill="#000000" fill-rule="evenodd" stroke="none"/>
    <path d="M23.1 3.0 Q23.75 3.0 23.8 3.0 23.85 3.0 23.9 3.0 23.95 3.05 24.0 3.05 24.05 3.05 24.05 3.1 24.1 3.1 24.15 3.1 24.2 3.15 24.25 3.15 24.25 3.2 24.3 3.25 24.35 3.25 24.35 3.3 24.4 3.35 24.45 3.4 24.5 3.5 24.55 3.6 24.6 3.65 24.6 3.75 24.65 3.85 24.65 4.0 24.7 4.1 24.7 4.2 24.7 4.35 24.7 4.45 24.7 4.6 24.7 4.75 24.7 4.8 24.7 5.0 24.7 5.2 24.7 5.3 24.7 11.35 24.6 13.3 24.5 15.45 24.3 16.95 24.25 17.15 24.25 17.35 24.2 17.55 24.15 17.75 24.1 17.95 24.1 18.15 24.05 18.35 24.0 18.5 23.95 18.7 23.9 18.9 23.85 19.05 23.8 19.2 23.75 19.4 23.7 19.55 23.65 19.7 23.6 19.85 23.55 20.0 23.5 20.15 23.4 20.25 23.35 20.4 23.3 20.55 23.25 20.65 23.15 20.75 23.1 20.9 23.0 21.0 22.95 21.1 22.85 21.2 22.8 21.3 22.7 21.4 22.65 21.5 22.55 21.6 22.45 21.7 22.35 21.8 22.3 21.85 22.2 21.95 22.1 22.0 22.05 22.1 21.95 22.15 21.85 22.2 21.75 22.25 21.7 22.35 21.6 22.4 21.5 22.45 21.4 22.5 21.3 22.55 21.2 22.55 21.1 22.6 21.05 22.65 20.85 22.7 20.7 22.75 20.55 22.8 20.4 22.85 20.25 22.9 20.1 22.9 19.95 22.95 19.85 22.95 19.7 23.0 19.6 23.0 19.45 23.0 19.35 23.0 19.25 23.0 19.1 23.0 19.1 23.0 18.8 23.0 L12.25 23.0 Q10.65 23.0 10.1 22.95 9.3 22.9 8.05 22.6 7.9 22.55 7.7 22.55 7.55 22.5 7.4 22.45 7.2 22.4 7.05 22.35 6.9 22.3 6.75 22.25 6.6 22.2 6.45 22.1 6.25 22.05 6.1 22.0 5.95 21.9 5.8 21.85 5.65 21.75 5.5 21.65 5.35 21.55 5.2 21.5 5.1 21.4 4.95 21.3 4.8 21.2 4.65 21.05 4.55 20.95 4.4 20.85 4.3 20.7 4.15 20.6 4.05 20.45 3.9 20.3 3.8 20.15 3.7 20.0 3.55 19.85 3.45 19.7 3.35 19.55 3.25 19.35 3.15 19.2 3.05 19.0 2.95 18.85 2.85 18.65 2.8 18.45 2.7 18.25 2.6 18.05 2.55 17.85 2.5 17.65 2.4 17.45 2.35 17.25 2.3 17.05 2.2 16.8 2.15 16.6 2.1 16.4 2.05 16.15 2.0 15.95 1.95 15.7 1.9 15.45 1.85 15.25 1.8 15.0 1.8 14.75 1.75 14.5 1.7 14.25 1.7 14.05 1.65 13.8 1.6 13.55 1.6 13.3 1.55 13.05 1.55 12.8 1.3 10.15 1.3 5.3 1.3 5.2 1.3 5.0 1.3 4.8 1.3 4.75 1.3 4.6 1.3 4.45 1.3 4.35 1.3 4.2 1.35 4.1 1.35 4.0 1.35 3.85 1.4 3.75 1.45 3.65 1.5 3.55 1.5 3.45 1.6 3.4 1.6 3.35 1.65 3.3 1.7 3.3 1.7 3.25 1.75 3.2 1.8 3.2 1.8 3.15 1.85 3.15 1.9 3.1 1.9 3.1 1.95 3.1 2.0 3.05 2.05 3.05 2.1 3.05 2.1 3.05 2.15 3.05 2.35 3.0 2.85 3.0 L23.1 3.0 M23.1 4.0 L2.85 4.0 Q2.45 4.0 2.4 4.0 2.3 4.25 2.3 5.3 L2.3 5.3 Q2.3 10.1 2.55 12.7 2.6 13.2 2.65 13.65 2.7 14.15 2.8 14.6 2.85 15.05 2.95 15.5 3.05 15.95 3.15 16.35 3.25 16.75 3.35 17.15 3.5 17.5 3.65 17.85 3.75 18.25 3.95 18.55 4.1 18.85 4.3 19.15 4.5 19.45 4.7 19.65 4.9 19.9 5.1 20.1 5.3 20.35 5.55 20.5 5.8 20.7 6.05 20.8 6.25 20.95 6.55 21.1 6.8 21.2 7.1 21.3 7.35 21.4 7.65 21.5 7.95 21.55 8.25 21.65 9.5 21.9 10.2 21.95 10.65 22.0 12.25 22.0 L18.8 22.0 Q18.85 22.0 19.05 22.0 19.2 22.0 19.3 22.0 19.4 22.0 19.5 22.0 19.6 22.0 19.7 22.0 19.8 21.95 19.9 21.95 20.0 21.9 20.1 21.9 20.25 21.85 20.35 21.8 20.5 21.75 20.65 21.7 20.8 21.65 20.95 21.6 21.05 21.5 21.2 21.45 21.35 21.35 21.5 21.25 21.6 21.1 21.75 21.0 21.9 20.85 22.0 20.7 22.1 20.55 22.25 20.35 22.35 20.15 22.45 19.95 22.55 19.75 22.65 19.5 22.85 19.0 23.0 18.3 23.15 17.65 23.25 16.85 23.35 16.1 23.45 15.15 23.5 14.3 23.55 13.3 23.6 12.4 23.65 11.35 23.65 10.4 23.65 9.3 23.7 8.4 23.7 7.25 23.7 6.75 23.7 5.3 23.7 4.2 23.6 4.0 23.55 4.0 23.4 4.0 23.2 4.0 23.1 4.0 L23.1 4.0" fill="#ffffff" fill-rule="evenodd" stroke="none"/>
    <path d="M18.3 6.6 L21.25 6.6 21.25 19.4 19.55 19.4 19.55 8.05 18.3 8.05 18.3 6.6 M12.3 6.6 L14.0 6.6 14.0 17.9 16.85 17.9 16.85 19.4 12.3 19.4 12.3 6.6" fill="#c7c8cc" fill-rule="evenodd" stroke="none"/>
  </g>
</svg>
