<?xml version="1.0" encoding="UTF-8" standalone="no"?>
<svg xmlns:ffdec="https://www.free-decompiler.com/flash" xmlns:xlink="http://www.w3.org/1999/xlink" ffdec:objectType="shape" height="26.0px" width="26.0px" xmlns="http://www.w3.org/2000/svg">
  <g transform="matrix(1.0, 0.0, 0.0, 1.0, 0.0, 0.0)">
    <path d="M9.5 3.0 Q10.1 3.0 10.5 3.0 11.2 3.05 11.85 3.1 12.5 3.2 13.15 3.3 13.8 3.4 14.4 3.6 15.05 3.75 15.65 4.0 16.25 4.25 16.85 4.55 17.45 4.85 17.95 5.25 18.5 5.65 19.0 6.15 19.55 6.65 20.0 7.3 20.45 7.9 20.9 8.85 21.3 9.75 21.75 10.9 22.15 11.95 22.5 13.25 22.85 14.35 23.2 15.6 23.45 16.7 23.75 17.85 23.95 18.8 24.15 19.75 24.3 20.4 24.45 21.0 24.5 21.25 24.5 21.5 24.5 21.5 24.55 21.55 24.55 21.6 24.55 21.65 L24.55 21.65 Q24.6 21.8 24.65 22.05 24.65 22.05 24.65 22.1 24.65 22.1 24.7 22.2 24.7 22.25 24.7 22.3 24.7 22.35 24.7 22.4 24.7 22.45 24.7 22.5 24.7 22.55 24.7 22.6 24.65 22.65 24.65 22.7 24.65 22.7 24.6 22.75 24.55 22.8 24.5 22.85 24.45 22.85 24.45 22.9 24.4 22.9 24.35 22.9 24.3 22.9 24.3 22.95 24.25 22.95 24.2 22.95 24.15 22.95 24.1 22.95 24.1 22.95 24.05 22.95 24.0 23.0 23.95 23.0 23.9 23.0 23.85 23.0 23.65 23.0 23.45 23.0 L23.45 23.0 23.45 23.0 Q23.4 23.0 23.25 23.0 L3.2 23.0 Q2.9 23.0 3.0 23.0 2.9 23.0 2.8 23.0 2.75 23.0 2.7 23.0 2.65 23.0 2.6 23.0 2.55 23.0 2.5 23.0 2.45 22.95 2.4 22.95 2.4 22.95 2.35 22.95 2.3 22.9 2.25 22.9 2.2 22.9 2.15 22.85 2.1 22.85 2.05 22.8 2.0 22.8 2.0 22.75 1.95 22.75 1.9 22.7 1.85 22.65 1.85 22.65 1.8 22.6 1.8 22.55 1.75 22.5 1.75 22.5 1.7 22.45 1.7 22.4 1.65 22.2 1.6 22.1 1.6 22.0 1.6 21.65 L1.6 12.55 Q1.6 12.15 1.6 11.15 1.6 10.4 1.6 10.0 1.6 9.45 1.65 9.0 1.65 8.55 1.7 8.15 1.8 7.75 1.9 7.4 2.0 7.05 2.2 6.7 2.35 6.4 2.6 6.05 2.85 5.7 3.15 5.35 3.4 5.05 3.75 4.8 4.05 4.55 4.4 4.35 4.75 4.15 5.15 3.95 5.55 3.75 5.95 3.65 6.35 3.5 6.8 3.35 7.25 3.25 7.7 3.2 8.1 3.1 8.6 3.05 9.05 3.0 9.5 3.0 L9.5 3.0" fill="#000000" fill-rule="evenodd" stroke="none"/>
    <path d="M9.5 3.0 Q9.25 3.0 9.05 3.0 8.8 3.05 8.6 3.05 8.35 3.1 8.15 3.1 7.9 3.15 7.7 3.2 7.45 3.2 7.25 3.25 7.0 3.3 6.8 3.35 6.6 3.45 6.4 3.5 6.15 3.55 5.95 3.65 5.75 3.7 5.55 3.8 5.35 3.85 5.15 3.95 4.95 4.05 4.8 4.15 4.6 4.25 4.4 4.35 4.25 4.45 4.1 4.55 3.9 4.7 3.75 4.8 3.6 4.95 3.45 5.05 3.3 5.2 3.15 5.35 3.05 5.45 3.0 5.55 2.9 5.6 2.85 5.7 2.8 5.8 2.7 5.85 2.65 5.95 2.6 6.05 2.55 6.15 2.45 6.2 2.4 6.3 2.35 6.4 2.3 6.45 2.25 6.55 2.2 6.65 2.2 6.7 2.15 6.8 2.1 6.9 2.05 6.95 2.05 7.05 2.0 7.15 1.95 7.25 1.95 7.3 1.9 7.4 1.85 7.5 1.85 7.6 1.8 7.7 1.8 7.8 1.8 7.9 1.75 7.95 1.75 8.05 1.7 8.15 1.6 8.85 1.6 12.55 L1.6 21.65 Q1.6 22.0 1.6 22.1 1.65 22.2 1.7 22.4 1.7 22.45 1.75 22.5 1.75 22.5 1.8 22.55 1.8 22.6 1.85 22.65 1.85 22.65 1.9 22.7 1.95 22.75 1.95 22.75 2.0 22.8 2.05 22.8 2.1 22.85 2.15 22.85 2.2 22.9 2.25 22.9 2.3 22.9 2.35 22.95 2.4 22.95 2.45 22.95 2.45 22.95 2.5 23.0 2.55 23.0 2.6 23.0 2.65 23.0 2.7 23.0 2.75 23.0 2.8 23.0 2.9 23.0 3.0 23.0 2.9 23.0 3.2 23.0 L23.25 23.0 Q23.35 23.0 23.45 23.0 L23.45 23.0 Q23.5 23.0 23.65 23.0 23.8 23.0 23.85 23.0 23.85 23.0 23.95 23.0 24.0 23.0 24.05 23.0 24.05 22.95 24.1 22.95 24.15 22.95 24.2 22.95 24.25 22.95 24.3 22.95 24.35 22.9 24.35 22.9 24.4 22.9 24.45 22.85 24.5 22.85 24.5 22.85 24.55 22.85 24.55 22.8 24.6 22.8 24.6 22.75 24.6 22.7 24.65 22.7 24.65 22.65 24.65 22.65 24.7 22.6 24.7 22.55 24.7 22.55 24.7 22.5 24.7 22.5 24.7 22.45 24.7 22.4 24.7 22.4 24.7 22.35 24.7 22.2 24.7 22.2 24.65 22.1 24.65 22.05 24.65 22.05 24.65 22.0 24.65 21.95 24.65 21.9 24.6 21.9 24.6 21.85 24.6 21.8 24.6 21.75 24.6 21.7 24.55 21.7 24.55 21.65 L24.55 21.65 Q24.55 21.6 24.5 21.5 24.5 21.5 24.5 21.35 24.45 21.25 24.4 21.0 24.35 20.75 24.3 20.45 24.25 20.1 24.15 19.75 24.05 19.3 23.95 18.85 23.85 18.35 23.75 17.85 23.6 17.3 23.45 16.8 23.35 16.2 23.2 15.6 22.35 12.65 21.75 10.9 21.65 10.6 21.55 10.35 21.45 10.05 21.35 9.8 21.2 9.55 21.1 9.3 21.0 9.05 20.9 8.85 20.8 8.6 20.65 8.4 20.55 8.2 20.45 8.0 20.35 7.8 20.2 7.6 20.1 7.45 20.0 7.3 19.9 7.15 19.75 7.0 19.65 6.85 19.5 6.7 19.4 6.55 19.25 6.4 19.15 6.3 19.0 6.15 18.9 6.05 18.75 5.9 18.65 5.8 18.5 5.7 18.35 5.55 18.25 5.45 18.1 5.35 17.95 5.25 17.8 5.15 17.7 5.05 17.55 4.95 17.4 4.85 17.25 4.8 17.1 4.7 17.0 4.6 16.85 4.55 16.7 4.45 16.55 4.4 16.4 4.3 16.25 4.25 16.1 4.15 15.95 4.1 15.8 4.05 15.65 4.0 15.35 3.9 15.05 3.8 14.75 3.7 14.4 3.6 14.1 3.5 13.8 3.45 13.45 3.35 13.15 3.3 12.8 3.25 12.5 3.2 12.15 3.15 11.85 3.15 11.5 3.1 11.15 3.05 10.85 3.05 10.5 3.0 10.35 3.0 10.0 3.0 9.7 3.0 9.5 3.0 L9.5 3.0 M9.5 3.95 Q9.55 3.95 9.6 3.95 9.7 3.95 9.75 3.95 9.8 3.95 9.85 3.95 9.9 3.95 10.0 3.95 10.05 3.95 10.1 3.95 10.15 3.95 10.2 3.95 10.25 3.95 10.3 3.95 10.35 3.95 10.45 3.95 11.15 4.0 11.7 4.05 12.35 4.1 12.9 4.2 13.55 4.3 14.1 4.45 14.65 4.6 15.2 4.8 15.75 5.0 16.25 5.3 16.75 5.6 17.25 5.95 17.75 6.3 18.2 6.75 18.65 7.25 19.05 7.8 19.25 8.05 19.45 8.4 19.65 8.75 19.85 9.2 20.05 9.6 20.25 10.1 20.45 10.6 20.65 11.15 20.85 11.7 21.05 12.3 21.25 12.85 21.45 13.45 21.6 14.05 21.8 14.65 21.95 15.25 22.1 15.85 22.75 18.75 23.45 21.65 L23.45 21.65 23.45 21.7 Q23.45 21.7 23.45 21.75 L23.45 21.75 23.5 21.85 23.5 21.85 Q23.55 22.05 23.55 22.05 23.5 22.05 23.45 22.05 L23.45 22.05 22.8 22.05 3.2 22.05 Q2.85 22.05 2.75 22.05 2.7 21.95 2.7 21.95 2.7 21.95 2.7 21.65 L2.7 12.55 Q2.7 8.9 2.8 8.3 2.85 8.1 2.85 7.95 2.9 7.8 2.95 7.65 3.0 7.5 3.05 7.35 3.1 7.2 3.2 7.1 3.25 6.95 3.35 6.8 3.4 6.65 3.5 6.55 3.65 6.4 3.75 6.25 3.9 6.1 4.05 5.95 4.25 5.7 4.5 5.5 4.8 5.3 5.1 5.1 5.35 4.95 5.7 4.8 6.05 4.65 6.4 4.5 6.75 4.35 7.15 4.25 7.5 4.2 7.9 4.1 8.3 4.05 8.7 4.0 9.1 3.95 9.5 3.95 L9.5 3.95" fill="#ffffff" fill-rule="evenodd" stroke="none"/>
    <path d="M7.85 6.8 L8.9 7.15 9.7 8.15 Q10.05 8.8 10.05 9.95 L9.9 11.3 9.35 12.55 8.25 13.25 10.65 19.5 8.85 19.5 6.45 13.2 6.45 19.5 4.7 19.5 4.7 6.75 6.8 6.75 7.85 6.8 M8.1 9.25 L7.7 8.45 Q7.35 8.15 6.7 8.2 L6.45 8.2 6.45 12.35 Q7.4 12.4 7.85 11.85 8.2 11.3 8.2 10.35 L8.1 9.25 M16.75 7.4 Q17.4 8.25 17.4 9.7 17.4 10.65 17.0 11.8 L16.1 14.0 15.15 15.95 14.0 18.0 17.3 18.0 17.3 19.5 11.5 19.5 14.7 12.9 15.3 11.3 15.6 9.6 15.5 8.95 15.15 8.35 Q14.9 8.1 14.45 8.1 14.0 8.1 13.75 8.4 13.55 8.7 13.5 9.15 L13.4 9.9 13.45 10.5 13.45 10.85 11.65 10.85 11.65 10.4 Q11.65 9.4 11.8 8.55 12.05 7.65 12.6 7.1 13.2 6.6 14.5 6.6 16.05 6.6 16.75 7.4" fill="#c7c8cc" fill-rule="evenodd" stroke="none"/>
  </g>
</svg>
