<?xml version="1.0" encoding="UTF-8" standalone="no"?>
<svg xmlns:ffdec="https://www.free-decompiler.com/flash" xmlns:xlink="http://www.w3.org/1999/xlink" ffdec:objectType="shape" height="26.0px" width="26.0px" xmlns="http://www.w3.org/2000/svg">
  <g transform="matrix(1.0, 0.0, 0.0, 1.0, 0.0, 0.0)">
    <path d="M23.0 13.0 Q23.0 14.0 22.8 15.0 22.6 16.0 22.2 16.9 21.85 17.8 21.3 18.6 20.75 19.4 20.05 20.05 19.4 20.75 18.6 21.3 17.8 21.85 16.9 22.2 16.0 22.6 15.0 22.8 14.0 23.0 13.0 23.0 12.0 23.0 11.0 22.8 10.0 22.6 9.1 22.2 8.2 21.85 7.4 21.3 6.6 20.75 5.95 20.05 5.25 19.4 4.7 18.6 4.15 17.8 3.8 16.9 3.4 16.0 3.2 15.0 3.0 14.0 3.0 13.0 3.0 12.0 3.2 11.0 3.4 10.0 3.8 9.1 4.15 8.2 4.7 7.4 5.25 6.6 5.95 5.95 6.6 5.25 7.4 4.7 8.2 4.15 9.1 3.8 10.0 3.4 11.0 3.2 12.0 3.0 13.0 3.0 14.0 3.0 15.0 3.2 16.0 3.4 16.9 3.8 17.8 4.15 18.6 4.7 19.4 5.25 20.05 5.95 20.75 6.6 21.3 7.4 21.85 8.2 22.2 9.1 22.6 10.0 22.8 11.0 23.0 12.0 23.0 13.0 L23.0 13.0" fill="#000000" fill-rule="evenodd" stroke="none"/>
    <path d="M13.0 3.0 Q11.95 3.0 10.95 3.2 9.95 3.4 9.05 3.75 8.15 4.15 7.35 4.65 6.55 5.2 5.85 5.85 5.2 6.55 4.65 7.35 4.15 8.15 3.75 9.05 3.4 9.95 3.2 10.95 3.0 11.95 3.0 13.0 3.0 14.05 3.2 15.05 3.4 16.05 3.75 16.95 4.15 17.85 4.65 18.65 5.2 19.45 5.85 20.15 6.55 20.8 7.35 21.35 8.15 21.85 9.05 22.25 9.95 22.6 10.95 22.8 11.95 23.0 13.0 23.0 14.05 23.0 15.05 22.8 16.05 22.6 16.95 22.25 17.85 21.85 18.65 21.35 19.45 20.8 20.15 20.15 20.8 19.45 21.35 18.65 21.85 17.85 22.25 16.95 22.6 16.05 22.8 15.05 23.0 14.05 23.0 13.0 23.0 11.95 22.8 10.95 22.6 9.95 22.25 9.05 21.85 8.15 21.35 7.35 20.8 6.55 20.15 5.85 19.45 5.2 18.65 4.65 17.85 4.15 16.95 3.75 16.05 3.4 15.05 3.2 14.05 3.0 13.0 3.0 L13.0 3.0 M13.0 4.0 Q14.0 4.0 14.9 4.15 15.85 4.35 16.65 4.65 17.45 4.95 18.2 5.45 18.9 5.9 19.5 6.5 20.1 7.1 20.55 7.8 21.05 8.55 21.35 9.35 21.65 10.15 21.85 11.1 22.0 12.0 22.0 13.0 22.0 14.0 21.85 14.9 21.65 15.85 21.35 16.65 21.05 17.45 20.55 18.2 20.1 18.9 19.5 19.5 18.9 20.1 18.2 20.55 17.45 21.05 16.65 21.35 15.85 21.65 14.9 21.85 14.0 22.0 13.0 22.0 12.0 22.0 11.1 21.85 10.15 21.65 9.35 21.35 8.55 21.05 7.8 20.55 7.1 20.1 6.5 19.5 5.9 18.9 5.45 18.2 4.95 17.45 4.65 16.65 4.35 15.85 4.15 14.9 4.0 14.0 4.0 13.0 4.0 12.0 4.15 11.1 4.35 10.15 4.65 9.35 4.95 8.55 5.45 7.8 5.9 7.1 6.5 6.5 7.1 5.9 7.8 5.45 8.55 4.95 9.35 4.65 10.15 4.35 11.1 4.15 12.0 4.0 13.0 4.0 L13.0 4.0" fill="#ffffff" fill-rule="evenodd" stroke="none"/>
    <path d="M10.95 7.0 L11.75 8.0 Q12.05 8.65 12.05 9.85 L11.9 11.2 11.4 12.45 10.3 13.15 12.65 19.4 10.9 19.4 8.55 13.1 8.55 19.4 6.85 19.4 6.85 6.6 8.9 6.6 9.9 6.65 10.95 7.0 M10.15 9.1 L9.75 8.3 Q9.45 8.0 8.8 8.05 L8.55 8.05 8.55 12.25 Q9.5 12.3 9.9 11.75 10.25 11.2 10.25 10.25 L10.15 9.1 M17.25 11.15 L17.4 10.0 17.35 9.15 17.1 8.35 Q16.9 7.95 16.4 7.95 16.0 7.95 15.75 8.25 15.55 8.5 15.5 8.9 L15.4 9.6 15.4 10.0 13.8 10.0 13.8 9.9 Q13.75 8.9 13.95 8.15 14.1 7.35 14.7 6.9 15.25 6.45 16.35 6.45 17.45 6.45 18.0 6.85 18.6 7.3 18.85 8.05 L19.05 9.75 18.95 10.95 18.6 12.05 Q18.25 12.55 17.6 12.75 L17.6 12.8 Q18.3 13.0 18.65 13.45 L19.1 14.5 19.2 15.75 18.95 17.65 Q18.7 18.5 18.05 19.05 17.4 19.55 16.25 19.55 14.8 19.55 14.15 18.8 13.55 18.0 13.55 16.6 L13.55 16.2 15.2 16.2 15.2 16.6 15.3 17.3 15.6 17.8 16.25 18.05 16.95 17.75 17.3 17.15 17.45 16.35 17.45 15.65 17.35 14.6 16.9 13.8 Q16.6 13.5 15.95 13.5 L15.45 13.5 15.45 11.95 15.65 11.95 16.75 11.8 17.25 11.15" fill="#c8cacb" fill-rule="evenodd" stroke="none"/>
  </g>
</svg>
