<?xml version="1.0" encoding="UTF-8" standalone="no"?>
<svg xmlns:ffdec="https://www.free-decompiler.com/flash" xmlns:xlink="http://www.w3.org/1999/xlink" ffdec:objectType="shape" height="13.15px" width="6.7px" xmlns="http://www.w3.org/2000/svg">
  <g transform="matrix(1.0, 0.0, 0.0, 1.0, 0.0, 0.0)">
    <path d="M4.35 2.3 Q4.0 1.65 3.35 1.6 2.7 1.65 2.35 2.3 2.0 2.95 1.9 4.1 L1.8 6.6 1.9 9.1 Q2.0 10.2 2.35 10.9 2.7 11.55 3.35 11.55 4.0 11.55 4.35 10.9 L4.8 9.1 4.9 6.6 4.8 4.1 4.35 2.3 M3.35 0.0 Q4.35 0.05 4.95 0.45 L5.95 1.65 6.45 3.3 6.65 5.0 6.7 6.6 6.65 8.15 6.45 9.9 5.95 11.5 4.95 12.7 Q4.35 13.15 3.35 13.15 2.35 13.15 1.75 12.7 1.1 12.25 0.75 11.5 L0.25 9.9 0.05 8.15 0.0 6.6 0.05 5.0 0.25 3.3 Q0.4 2.4 0.75 1.65 1.1 0.9 1.75 0.45 2.35 0.05 3.35 0.0" fill="#7a7f83" fill-rule="evenodd" stroke="none"/>
  </g>
</svg>
