<?xml version="1.0" encoding="UTF-8" standalone="no"?>
<svg xmlns:ffdec="https://www.free-decompiler.com/flash" xmlns:xlink="http://www.w3.org/1999/xlink" ffdec:objectType="shape" height="13.15px" width="6.5px" xmlns="http://www.w3.org/2000/svg">
  <g transform="matrix(1.0, 0.0, 0.0, 1.0, 0.0, 0.0)">
    <path d="M5.35 0.7 Q6.05 1.35 6.4 2.65 L4.75 3.3 4.55 2.5 4.1 1.85 3.3 1.6 Q2.6 1.6 2.3 2.2 2.0 2.8 1.9 3.95 L1.8 6.6 Q1.8 8.25 1.95 9.25 2.05 10.25 2.3 10.75 L2.75 11.4 3.3 11.55 3.85 11.5 4.3 11.15 4.65 10.2 4.75 8.4 4.75 7.7 3.35 7.7 3.35 6.25 6.45 6.25 6.45 6.45 6.5 8.1 6.4 9.85 5.95 11.5 5.05 12.7 3.4 13.15 Q2.3 13.15 1.6 12.65 0.9 12.15 0.55 11.25 0.25 10.35 0.1 9.15 L0.0 6.65 0.1 4.1 Q0.2 2.9 0.55 2.0 0.85 1.05 1.5 0.55 2.15 0.0 3.25 0.0 4.6 0.0 5.35 0.7" fill="#7a7f83" fill-rule="evenodd" stroke="none"/>
  </g>
</svg>
