<?xml version="1.0" encoding="UTF-8" standalone="no"?>
<svg xmlns:ffdec="https://www.free-decompiler.com/flash" xmlns:xlink="http://www.w3.org/1999/xlink" ffdec:objectType="shape" height="12.8px" width="11.15px" xmlns="http://www.w3.org/2000/svg">
  <g transform="matrix(1.0, 0.0, 0.0, 1.0, 0.0, 0.0)">
    <path d="M1.7 5.5 L4.3 5.5 4.3 6.95 1.7 6.95 1.7 12.8 0.0 12.8 0.0 0.0 4.6 0.0 4.6 1.45 1.7 1.45 1.7 5.5 M8.7 2.6 L8.65 2.6 6.6 8.0 8.7 8.0 8.7 2.6 M10.35 0.0 L10.35 8.0 11.15 8.0 11.15 9.3 10.35 9.3 10.35 12.8 8.7 12.8 8.7 9.3 5.25 9.3 5.25 7.8 8.7 0.0 10.35 0.0" fill="#7a7f83" fill-rule="evenodd" stroke="none"/>
  </g>
</svg>
