<?xml version="1.0" encoding="UTF-8" standalone="no"?>
<svg xmlns:ffdec="https://www.free-decompiler.com/flash" xmlns:xlink="http://www.w3.org/1999/xlink" ffdec:objectType="shape" height="12.8px" width="15.55px" xmlns="http://www.w3.org/2000/svg">
  <g transform="matrix(1.0, 0.0, 0.0, 1.0, 0.0, 0.0)">
    <path d="M4.45 8.7 L6.05 0.0 7.55 0.0 8.75 12.8 7.05 12.8 6.6 3.95 4.95 12.8 3.8 12.8 2.15 3.95 2.1 3.95 1.65 12.8 0.0 12.8 1.05 0.0 2.5 0.0 4.35 9.25 4.4 9.25 4.45 8.7 M13.1 2.6 L13.05 2.6 11.0 8.0 13.1 8.0 13.1 2.6 M13.1 0.0 L14.75 0.0 14.75 8.0 15.55 8.0 15.55 9.3 14.75 9.3 14.75 12.8 13.1 12.8 13.1 9.3 9.65 9.3 9.65 7.8 13.1 0.0" fill="#cccccc" fill-rule="evenodd" stroke="none"/>
  </g>
</svg>
