<?xml version="1.0" encoding="UTF-8" standalone="no"?>
<svg xmlns:ffdec="https://www.free-decompiler.com/flash" xmlns:xlink="http://www.w3.org/1999/xlink" ffdec:objectType="shape" height="26.0px" width="52.95px" xmlns="http://www.w3.org/2000/svg">
  <g transform="matrix(1.0, 0.0, 0.0, 1.0, 0.0, 0.0)">
    <path d="M5.0 2.5 L25.95 2.6 32.35 2.9 47.85 2.5 48.3 19.35 47.85 23.55 25.5 23.8 5.0 23.55 4.8 17.3 5.95 11.9 5.0 2.5" fill="#7b7b7b" fill-rule="evenodd" stroke="none"/>
    <path d="M6.15 3.05 L26.0 3.15 32.05 3.45 46.7 3.05 47.15 19.05 46.7 23.0 25.55 23.25 6.15 23.0 5.95 17.05 7.05 11.95 6.15 3.05" fill="#000000" fill-rule="evenodd" stroke="none"/>
    <path d="M6.55 3.5 L18.8 3.45 23.0 3.15 31.45 4.6 46.5 4.45 47.6 9.8 44.95 12.25 41.65 18.45 46.3 22.4 35.55 23.75 25.6 21.5 15.75 22.95 9.2 20.8 11.4 16.85 7.55 10.75 8.5 7.15 4.65 3.25" fill="#000000" fill-rule="evenodd" stroke="none"/>
    <path d="M5.75 3.15 L12.45 2.8 14.85 2.8 19.3 3.35 27.65 4.25 32.3 4.6 36.0 3.55 40.3 3.95 47.35 4.1 46.0 7.0 45.7 8.3 44.0 11.65 45.95 13.6 47.25 16.85 46.6 18.05 48.55 20.5 46.0 22.5 40.15 23.35 34.7 23.65 31.45 24.2 27.65 23.95 19.3 22.9 14.6 23.0 11.45 23.7 4.75 22.95 6.25 20.95 5.05 17.15 5.3 16.05 6.95 12.4 6.15 9.95 6.1 7.45 5.5 5.05 4.5 3.3" fill="#000000" fill-rule="evenodd" stroke="none"/>
  </g>
</svg>
