<?xml version="1.0" encoding="UTF-8" standalone="no"?>
<svg xmlns:ffdec="https://www.free-decompiler.com/flash" xmlns:xlink="http://www.w3.org/1999/xlink" ffdec:objectType="frame" height="26.05px" width="52.95px" xmlns="http://www.w3.org/2000/svg">
  <g transform="matrix(1.0, 0.0, 0.0, 1.0, 0.0, 0.0)">
    <use ffdec:characterId="1" height="26.0" transform="matrix(1.0, 0.0, 0.0, 1.0, 0.0, 0.0)" width="35.75" xlink:href="#shape0"/>
    <use ffdec:characterId="118" height="14.25" transform="matrix(1.0, 0.0, 0.0, 1.0, 11.0, 5.9)" width="15.35" xlink:href="#shape1"/>
    <use ffdec:characterId="254" height="26.0" transform="matrix(1.0, 0.0, 0.0, 1.0, 0.0, 0.0)" width="35.75" xlink:href="#shape2"/>
  </g>
  <defs>
    <g id="shape0" transform="matrix(1.0, 0.0, 0.0, 1.0, 0.0, 0.0)">
      <path d="M33.7 3.85 L32.9 2.8 Q31.3 1.3 29.15 1.3 L6.6 1.3 Q4.4 1.3 2.8 2.8 1.3 4.4 1.3 6.6 L1.3 19.4 Q1.3 21.55 2.8 23.15 4.4 24.7 6.6 24.7 L29.15 24.7 Q31.3 24.7 32.9 23.15 L33.7 22.15 Q34.45 20.9 34.45 19.4 L34.45 6.6 Q34.45 5.05 33.7 3.85 M33.8 1.95 Q35.75 3.9 35.75 6.6 L35.75 19.4 Q35.75 22.15 33.8 24.05 L33.7 24.15 Q31.85 26.0 29.15 26.0 L6.6 26.0 Q3.9 26.0 1.95 24.05 0.0 22.15 0.0 19.4 L0.0 6.6 Q0.0 3.9 1.95 1.95 3.9 0.0 6.6 0.0 L29.15 0.0 Q31.85 0.0 33.7 1.85 L33.8 1.95" fill="#000000" fill-opacity="0.0" fill-rule="evenodd" stroke="none"/>
      <path d="M34.45 6.6 L34.45 19.4 Q34.45 20.9 33.7 22.15 L32.9 23.15 Q31.3 24.7 29.15 24.7 L6.6 24.7 Q4.4 24.7 2.8 23.15 1.3 21.55 1.3 19.4 L1.3 6.6 Q1.3 4.4 2.8 2.8 4.4 1.3 6.6 1.3 L29.15 1.3 Q31.3 1.3 32.9 2.8 L33.7 3.85 Q34.45 5.05 34.45 6.6 M31.75 4.0 Q30.65 2.9 29.15 2.9 L6.6 2.9 Q5.1 2.9 4.0 4.0 2.95 5.1 2.95 6.6 L2.95 19.4 Q2.95 20.9 4.0 22.0 5.1 23.05 6.6 23.05 L29.15 23.05 Q30.6 23.05 31.75 22.0 32.8 20.85 32.8 19.4 L32.8 6.6 Q32.8 5.1 31.75 4.0" fill="#a6a8ab" fill-opacity="0.0" fill-rule="evenodd" stroke="none"/>
      <path d="M32.8 6.6 L32.8 19.4 Q32.8 20.85 31.75 22.0 30.6 23.05 29.15 23.05 L6.6 23.05 Q5.1 23.05 4.0 22.0 2.95 20.9 2.95 19.4 L2.95 6.6 Q2.95 5.1 4.0 4.0 5.1 2.9 6.6 2.9 L29.15 2.9 Q30.65 2.9 31.75 4.0 32.8 5.1 32.8 6.6" fill="#000000" fill-opacity="0.0" fill-rule="evenodd" stroke="none"/>
    </g>
    <g id="shape1" transform="matrix(1.0, 0.0, 0.0, 1.0, 0.0, 0.0)">
      <path d="M3.3 3.2 Q2.75 2.7 1.7 2.75 L1.7 12.65 Q2.75 12.65 3.3 12.25 L4.1 11.15 4.35 9.6 4.35 7.9 4.35 6.25 4.1 4.5 Q3.9 3.7 3.3 3.2 M5.25 2.8 Q5.65 3.5 5.9 4.75 L6.15 7.9 5.95 10.85 5.3 12.65 4.25 13.65 2.85 14.05 1.15 14.1 0.0 14.1 0.0 1.3 1.9 1.3 3.1 1.35 4.25 1.75 Q4.8 2.05 5.25 2.8 M13.75 0.0 L15.35 0.0 15.35 14.1 13.75 14.1 13.75 0.0 M10.85 8.35 L10.75 7.65 10.45 7.05 Q10.25 6.8 9.9 6.8 9.55 6.8 9.35 7.05 L9.05 7.65 9.0 8.35 9.0 9.0 10.9 9.0 10.85 8.35 M11.0 11.2 L12.45 11.2 12.2 12.7 Q11.95 13.4 11.4 13.8 L9.95 14.25 Q9.05 14.2 8.55 13.8 L7.75 12.75 7.4 11.3 7.35 9.85 7.4 8.45 Q7.5 7.65 7.75 6.95 8.0 6.25 8.5 5.85 9.05 5.4 9.9 5.4 10.8 5.4 11.3 5.85 L12.1 6.95 12.45 8.4 12.5 9.85 12.5 10.1 9.0 10.1 9.0 10.85 9.1 11.75 9.4 12.5 Q9.6 12.8 10.0 12.8 L10.6 12.55 10.9 11.95 11.0 11.2" fill="#000000" fill-opacity="0.0" fill-rule="evenodd" stroke="none"/>
    </g>
    <g id="shape2" transform="matrix(1.0, 0.0, 0.0, 1.0, 0.0, 0.0)">
      <path d="M4.0 3.0 Q3.9 3.0 3.8 3.0 3.7 3.05 3.6 3.1 3.5 3.1 3.45 3.15 3.35 3.2 3.3 3.3 3.2 3.35 3.15 3.45 3.1 3.5 3.1 3.6 3.05 3.7 3.0 3.8 3.0 3.9 3.0 4.0 L3.0 22.0 Q3.0 22.1 3.0 22.2 3.05 22.3 3.1 22.4 3.1 22.5 3.15 22.55 3.2 22.65 3.3 22.7 3.35 22.8 3.45 22.85 3.5 22.9 3.6 22.9 3.7 22.95 3.8 23.0 3.9 23.0 4.0 23.0 L31.75 23.0 Q31.85 23.0 31.95 23.0 32.05 22.95 32.15 22.9 32.25 22.9 32.3 22.85 32.4 22.8 32.45 22.7 32.55 22.65 32.6 22.55 32.65 22.5 32.65 22.4 32.7 22.3 32.75 22.2 32.75 22.1 32.75 22.0 L32.75 4.0 Q32.75 3.9 32.75 3.8 32.7 3.7 32.65 3.6 32.65 3.5 32.6 3.45 32.55 3.35 32.45 3.3 32.4 3.2 32.3 3.15 32.25 3.1 32.15 3.1 32.05 3.05 31.95 3.0 31.85 3.0 31.75 3.0 L4.0 3.0 4.0 3.0 M25.15 7.95 L26.15 7.95 26.15 17.5 25.15 17.5 25.15 7.95 25.15 7.95 M9.6 8.5 L11.35 8.5 Q11.6 8.5 11.8 8.5 12.05 8.5 12.25 8.5 12.45 8.5 12.6 8.55 12.8 8.55 12.95 8.55 13.15 8.55 13.3 8.6 13.45 8.6 13.55 8.6 13.7 8.65 13.8 8.65 13.95 8.65 14.05 8.7 14.15 8.7 14.25 8.75 14.35 8.8 14.4 8.8 14.5 8.85 14.6 8.9 14.7 8.9 14.75 8.95 14.85 9.0 14.95 9.05 15.0 9.1 15.1 9.15 15.2 9.2 15.25 9.25 15.35 9.3 15.4 9.35 15.5 9.4 15.6 9.5 15.7 9.6 15.75 9.65 15.85 9.75 15.95 9.85 16.0 9.95 16.1 10.0 16.15 10.1 16.25 10.2 16.3 10.3 16.35 10.4 16.4 10.55 16.5 10.65 16.55 10.75 16.6 10.85 16.65 10.95 16.7 11.1 16.75 11.2 16.75 11.35 16.8 11.45 16.85 11.6 16.85 11.75 16.9 11.85 16.9 12.0 16.95 12.15 16.95 12.3 16.95 12.4 16.95 12.55 17.0 12.7 17.0 12.85 17.0 13.0 17.0 13.15 17.0 13.3 17.0 13.45 16.95 13.6 16.95 13.75 16.95 13.85 16.9 14.0 16.9 14.15 16.85 14.25 16.85 14.4 16.8 14.55 16.75 14.65 16.7 14.8 16.7 14.9 16.65 15.0 16.6 15.15 16.55 15.25 16.5 15.35 16.45 15.5 16.35 15.6 16.3 15.7 16.25 15.8 16.15 15.9 16.1 16.0 16.0 16.1 15.95 16.15 15.85 16.25 15.8 16.35 15.7 16.4 15.6 16.5 15.5 16.6 15.4 16.65 15.35 16.7 15.25 16.75 15.2 16.8 15.1 16.85 15.0 16.9 14.95 16.95 14.85 17.0 14.8 17.05 14.7 17.1 14.6 17.1 14.5 17.15 14.45 17.2 14.35 17.25 14.25 17.25 14.15 17.3 14.05 17.3 13.95 17.35 13.85 17.35 13.75 17.35 13.65 17.4 13.5 17.4 13.4 17.4 13.25 17.45 13.1 17.45 12.95 17.45 12.8 17.45 12.65 17.5 12.45 17.5 12.3 17.5 12.1 17.5 11.9 17.5 11.7 17.5 L11.35 17.5 9.6 17.5 9.6 8.5 9.6 8.5 M10.7 9.5 L10.7 16.5 11.35 16.5 Q13.05 16.5 13.65 16.35 13.75 16.35 13.8 16.3 13.9 16.3 13.95 16.25 14.05 16.25 14.1 16.2 14.2 16.2 14.25 16.15 14.3 16.1 14.4 16.1 14.45 16.05 14.5 16.0 14.55 16.0 14.6 15.95 14.7 15.9 14.75 15.85 14.8 15.8 14.9 15.75 14.95 15.65 15.0 15.6 15.05 15.55 15.1 15.45 15.15 15.4 15.2 15.3 15.3 15.25 15.3 15.15 15.35 15.1 15.4 15.0 15.45 14.95 15.5 14.85 15.55 14.75 15.6 14.65 15.65 14.55 15.65 14.45 15.7 14.4 15.7 14.3 15.75 14.2 15.75 14.1 15.8 14.0 15.8 13.9 15.8 13.8 15.85 13.65 15.85 13.55 15.85 13.45 15.85 13.35 15.85 13.25 15.85 13.1 15.85 13.0 15.85 12.9 15.85 12.75 15.85 12.65 15.85 12.55 15.85 12.45 15.8 12.3 15.8 12.2 15.8 12.1 15.75 12.0 15.75 11.9 15.75 11.8 15.7 11.7 15.7 11.6 15.65 11.5 15.6 11.4 15.6 11.35 15.55 11.25 15.5 11.15 15.45 11.1 15.45 11.0 15.4 10.9 15.35 10.85 15.3 10.75 15.25 10.7 15.15 10.6 15.1 10.55 15.05 10.45 15.0 10.4 14.95 10.35 14.85 10.25 14.8 10.2 14.75 10.15 14.7 10.1 14.65 10.05 14.6 10.0 14.5 10.0 14.45 9.95 14.4 9.9 14.3 9.9 14.25 9.85 14.2 9.8 14.1 9.8 14.05 9.75 13.95 9.75 13.9 9.7 13.8 9.7 13.75 9.65 13.65 9.65 13.55 9.65 13.45 9.6 13.4 9.6 13.25 9.6 13.15 9.55 13.05 9.55 12.9 9.55 12.75 9.55 12.6 9.5 12.45 9.5 12.3 9.5 12.1 9.5 11.95 9.5 11.75 9.5 11.6 9.5 11.35 9.5 L10.7 9.5 10.7 9.5 M20.95 11.65 Q21.1 11.65 21.25 11.65 21.4 11.7 21.55 11.7 21.7 11.75 21.8 11.75 21.95 11.8 22.05 11.85 22.2 11.9 22.3 11.95 22.45 12.05 22.55 12.1 22.65 12.2 22.75 12.25 22.85 12.35 22.95 12.45 23.05 12.55 23.1 12.65 23.2 12.75 23.25 12.9 23.3 13.0 23.4 13.15 23.45 13.25 23.5 13.4 23.5 13.55 23.55 13.7 23.6 13.85 23.6 14.0 23.65 14.15 23.65 14.3 23.65 14.45 23.65 14.65 L23.65 14.85 19.2 14.85 19.2 14.9 Q19.2 15.0 19.2 15.15 19.2 15.25 19.25 15.35 19.25 15.45 19.25 15.55 19.3 15.65 19.35 15.75 19.35 15.85 19.4 15.9 19.45 16.0 19.5 16.1 19.55 16.15 19.6 16.25 19.65 16.3 19.7 16.4 19.75 16.45 19.85 16.5 19.9 16.6 20.0 16.65 20.05 16.7 20.15 16.7 20.25 16.75 20.3 16.8 20.4 16.85 20.5 16.85 20.6 16.9 20.65 16.9 20.75 16.9 20.85 16.95 20.95 16.95 21.05 16.95 21.1 16.95 21.2 16.95 21.25 16.95 21.35 16.9 21.4 16.9 21.45 16.9 21.55 16.9 21.6 16.85 21.65 16.85 21.75 16.8 21.8 16.8 21.85 16.75 21.9 16.75 21.95 16.7 22.05 16.65 22.1 16.65 22.15 16.6 22.2 16.55 22.25 16.5 22.3 16.45 22.35 16.4 22.4 16.35 22.45 16.3 22.5 16.25 22.55 16.2 22.6 16.15 22.65 16.05 22.7 16.0 22.75 15.95 22.8 15.85 22.85 15.8 22.9 15.7 L23.6 16.2 Q23.55 16.3 23.5 16.4 23.45 16.5 23.4 16.55 23.35 16.65 23.25 16.7 23.2 16.8 23.15 16.85 23.05 16.95 23.0 17.0 22.95 17.05 22.85 17.15 22.8 17.2 22.7 17.25 22.6 17.3 22.55 17.35 22.45 17.4 22.4 17.45 22.3 17.5 22.2 17.5 22.1 17.55 22.0 17.6 21.95 17.6 21.85 17.65 21.75 17.65 21.65 17.7 21.55 17.7 21.45 17.7 21.35 17.75 21.25 17.75 21.1 17.75 21.0 17.75 20.85 17.75 20.7 17.75 20.55 17.7 20.4 17.7 20.25 17.65 20.1 17.6 20.0 17.6 19.85 17.55 19.7 17.5 19.6 17.4 19.5 17.35 19.35 17.25 19.25 17.2 19.15 17.1 19.05 17.0 18.95 16.9 18.85 16.8 18.75 16.7 18.65 16.55 18.6 16.45 18.5 16.3 18.45 16.2 18.4 16.05 18.35 15.9 18.3 15.75 18.25 15.6 18.2 15.5 18.2 15.3 18.15 15.15 18.15 15.0 18.15 14.85 18.15 14.65 18.15 14.5 18.15 14.35 18.15 14.2 18.2 14.05 18.2 13.9 18.25 13.75 18.3 13.6 18.35 13.45 18.4 13.35 18.45 13.2 18.5 13.05 18.6 12.95 18.65 12.85 18.75 12.7 18.85 12.6 18.95 12.5 19.05 12.4 19.15 12.3 19.25 12.2 19.35 12.15 19.45 12.05 19.6 12.0 19.7 11.9 19.85 11.85 19.95 11.8 20.1 11.8 20.25 11.75 20.35 11.7 20.5 11.7 20.65 11.65 20.8 11.65 20.95 11.65 L20.95 11.65 M20.9 12.5 Q20.8 12.5 20.75 12.5 20.65 12.5 20.55 12.55 20.5 12.55 20.4 12.55 20.35 12.6 20.25 12.6 20.2 12.65 20.15 12.65 20.05 12.7 20.0 12.75 19.95 12.8 19.85 12.85 19.8 12.85 19.75 12.95 19.7 13.0 19.65 13.05 19.6 13.1 19.55 13.15 19.5 13.2 19.45 13.3 19.4 13.35 19.4 13.4 19.35 13.5 19.3 13.55 19.3 13.65 19.25 13.7 19.25 13.8 19.25 13.9 19.2 13.95 19.2 14.05 L22.65 14.05 Q22.65 13.95 22.6 13.85 22.6 13.8 22.6 13.7 22.55 13.6 22.55 13.55 22.5 13.45 22.5 13.4 22.45 13.3 22.4 13.25 22.35 13.2 22.35 13.15 22.3 13.05 22.25 13.0 22.2 12.95 22.15 12.9 22.1 12.85 22.05 12.8 21.95 12.75 21.9 12.75 21.85 12.7 21.75 12.65 21.7 12.65 21.6 12.6 21.55 12.6 21.45 12.55 21.35 12.55 21.3 12.55 21.2 12.5 21.1 12.5 21.0 12.5 20.9 12.5 L20.9 12.5" fill="#ffffff" fill-rule="evenodd" stroke="none"/>
    </g>
  </defs>
</svg>
