<?xml version="1.0" encoding="UTF-8" standalone="no"?>
<svg xmlns:ffdec="https://www.free-decompiler.com/flash" xmlns:xlink="http://www.w3.org/1999/xlink" ffdec:objectType="frame" height="26.05px" width="52.95px" xmlns="http://www.w3.org/2000/svg">
  <g transform="matrix(1.0, 0.0, 0.0, 1.0, 0.0, 0.0)">
    <use ffdec:characterId="121" height="26.0" transform="matrix(1.0, 0.0, 0.0, 1.0, 0.0, 0.0)" width="26.0" xlink:href="#shape0"/>
    <use ffdec:characterId="122" height="12.95" transform="matrix(0.9293, 0.0, 0.0, 0.9326, 5.8, 7.9)" width="15.55" xlink:href="#shape1"/>
    <use ffdec:characterId="256" height="26.0" transform="matrix(1.0, 0.0, 0.0, 1.0, 0.0, 0.0)" width="26.0" xlink:href="#shape2"/>
  </g>
  <defs>
    <g id="shape0" transform="matrix(1.0, 0.0, 0.0, 1.0, 0.0, 0.0)">
      <path d="M25.95 12.05 L26.0 19.4 Q26.0 22.15 24.05 24.05 22.15 26.0 19.4 26.0 L6.6 26.0 Q3.85 26.0 1.9 24.05 0.1 22.25 0.0 19.7 L0.0 19.5 0.0 6.5 0.0 6.35 Q0.1 3.75 1.9 1.95 3.85 0.0 6.6 0.0 L13.15 0.0 Q18.2 0.1 21.9 3.6 25.6 7.05 25.95 12.05 M24.6 19.4 L24.55 12.1 Q24.25 7.65 20.9 4.55 17.6 1.5 13.15 1.4 L6.6 1.4 Q4.45 1.4 2.95 2.95 1.4 4.45 1.4 6.6 L1.4 19.4 Q1.4 21.6 2.95 23.1 4.45 24.6 6.6 24.6 L19.4 24.6 Q21.55 24.6 23.1 23.1 24.6 21.55 24.6 19.4 M23.05 19.4 Q23.05 20.9 21.95 21.95 20.9 23.05 19.4 23.05 L6.6 23.05 Q5.1 23.05 4.05 21.95 2.95 20.9 2.95 19.4 L2.95 6.6 Q2.95 5.1 4.05 4.05 5.1 2.95 6.6 2.95 L13.1 2.95 Q16.95 3.05 19.85 5.7 22.65 8.35 23.0 12.15 L23.05 19.4" fill="#000000" fill-opacity="0.0" fill-rule="evenodd" stroke="none"/>
      <path d="M24.6 19.4 Q24.6 21.55 23.1 23.1 21.55 24.6 19.4 24.6 L6.6 24.6 Q4.45 24.6 2.95 23.1 1.4 21.6 1.4 19.4 L1.4 6.6 Q1.4 4.45 2.95 2.95 4.45 1.4 6.6 1.4 L13.15 1.4 Q17.6 1.5 20.9 4.55 24.25 7.65 24.55 12.1 L24.6 19.4 M23.05 19.4 L23.0 12.15 Q22.65 8.35 19.85 5.7 16.95 3.05 13.1 2.95 L6.6 2.95 Q5.1 2.95 4.05 4.05 2.95 5.1 2.95 6.6 L2.95 19.4 Q2.95 20.9 4.05 21.95 5.1 23.05 6.6 23.05 L19.4 23.05 Q20.9 23.05 21.95 21.95 23.05 20.9 23.05 19.4" fill="#a6a8ab" fill-opacity="0.0" fill-rule="evenodd" stroke="none"/>
    </g>
    <g id="shape1" transform="matrix(1.0, 0.0, 0.0, 1.0, 0.0, 0.0)">
      <path d="M6.05 0.15 L7.55 0.15 8.75 12.95 7.05 12.95 6.6 4.1 4.95 12.95 3.8 12.95 2.15 4.1 2.1 4.1 1.65 12.95 0.0 12.95 1.05 0.15 2.5 0.15 4.35 9.4 4.4 9.4 4.45 8.85 6.05 0.15 M13.8 3.05 L13.7 2.35 13.35 1.75 Q13.1 1.5 12.65 1.5 12.25 1.5 12.0 1.8 11.8 2.1 11.75 2.55 L11.65 3.35 11.7 3.95 11.7 4.3 9.95 4.3 9.95 3.85 Q9.95 2.8 10.1 1.95 10.3 1.05 10.85 0.5 11.45 0.0 12.7 0.0 14.25 0.0 14.9 0.8 15.55 1.65 15.55 3.15 15.55 4.1 15.15 5.25 L14.3 7.45 13.35 9.4 12.25 11.45 15.45 11.45 15.45 12.95 9.8 12.95 12.9 6.35 13.5 4.75 13.8 3.05" fill="#000000" fill-opacity="0.0" fill-rule="evenodd" stroke="none"/>
    </g>
    <g id="shape2" transform="matrix(1.0, 0.0, 0.0, 1.0, 0.0, 0.0)">
      <path d="M6.65 3.0 Q6.45 3.0 6.3 3.0 6.1 3.05 5.9 3.05 5.75 3.1 5.6 3.15 5.4 3.2 5.25 3.25 5.1 3.35 4.95 3.45 4.8 3.5 4.65 3.6 4.5 3.7 4.35 3.85 4.2 3.95 4.1 4.1 3.95 4.25 3.85 4.35 3.7 4.5 3.6 4.65 3.5 4.8 3.45 4.95 3.35 5.1 3.25 5.25 3.2 5.4 3.15 5.6 3.1 5.75 3.05 5.9 3.05 6.1 3.0 6.25 3.0 6.45 3.0 6.65 L3.0 19.35 Q3.0 19.55 3.0 19.7 3.05 19.9 3.05 20.1 3.1 20.25 3.15 20.4 3.2 20.6 3.25 20.75 3.35 20.9 3.45 21.05 3.5 21.2 3.6 21.35 3.7 21.5 3.85 21.65 3.95 21.8 4.1 21.9 4.25 22.05 4.35 22.15 4.5 22.3 4.65 22.4 4.8 22.5 4.95 22.55 5.1 22.65 5.25 22.75 5.4 22.8 5.6 22.85 5.75 22.9 5.9 22.95 6.1 22.95 6.25 23.0 6.45 23.0 6.65 23.0 L19.35 23.0 Q19.55 23.0 19.7 23.0 19.9 22.95 20.1 22.95 20.25 22.9 20.4 22.85 20.6 22.8 20.75 22.75 20.9 22.65 21.05 22.55 21.2 22.5 21.35 22.4 21.5 22.3 21.65 22.15 21.8 22.05 21.9 21.9 22.05 21.75 22.15 21.65 22.3 21.5 22.4 21.35 22.5 21.2 22.55 21.05 22.65 20.9 22.75 20.75 22.8 20.6 22.85 20.4 22.9 20.25 22.95 20.1 22.95 19.9 23.0 19.75 23.0 19.55 23.0 19.35 L22.95 12.15 Q22.9 11.7 22.8 11.2 22.75 10.75 22.6 10.35 22.5 9.9 22.35 9.5 22.2 9.05 22.0 8.65 21.8 8.25 21.55 7.85 21.3 7.5 21.05 7.15 20.75 6.75 20.45 6.4 20.1 6.05 19.75 5.75 19.4 5.4 19.05 5.15 18.65 4.85 18.3 4.6 17.9 4.35 17.5 4.1 17.1 3.9 16.7 3.75 16.25 3.55 15.85 3.45 15.4 3.3 14.95 3.2 14.5 3.1 14.05 3.05 13.6 3.0 13.1 3.0 L6.65 3.0 6.65 3.0 M6.5 8.15 L9.65 15.6 12.8 8.15 14.6 17.5 13.55 17.5 12.45 11.4 9.65 17.85 6.85 11.4 5.7 17.5 4.65 17.5 6.5 8.15 6.5 8.15 M18.55 8.4 Q18.7 8.4 18.85 8.4 19.0 8.4 19.15 8.45 19.3 8.45 19.45 8.5 19.6 8.55 19.7 8.55 19.85 8.6 19.95 8.65 20.05 8.7 20.2 8.8 20.3 8.85 20.4 8.9 20.5 9.0 20.6 9.05 20.7 9.15 20.75 9.25 20.85 9.3 20.9 9.4 21.0 9.5 21.05 9.65 21.1 9.75 21.15 9.85 21.2 9.95 21.2 10.1 21.25 10.2 21.3 10.35 21.3 10.5 21.3 10.6 21.35 10.75 21.35 10.9 21.35 11.0 21.35 11.1 21.3 11.2 21.3 11.35 21.3 11.45 21.25 11.55 21.25 11.65 21.2 11.75 21.15 11.9 21.15 12.0 21.1 12.1 21.05 12.2 21.0 12.3 20.95 12.45 20.9 12.55 20.8 12.65 20.75 12.75 20.65 12.9 20.6 13.0 20.5 13.15 20.45 13.25 20.35 13.4 20.25 13.55 20.15 13.7 20.0 13.85 19.9 14.0 19.8 14.15 19.65 14.3 19.5 14.45 19.35 14.6 19.2 14.8 19.05 14.95 L17.65 16.5 21.05 16.5 21.05 17.5 15.65 17.5 17.55 15.25 Q17.65 15.1 18.05 14.6 18.35 14.25 18.55 13.95 18.8 13.65 19.0 13.4 19.25 13.1 19.4 12.85 19.6 12.6 19.7 12.4 19.85 12.15 19.95 11.95 20.05 11.75 20.15 11.6 20.2 11.4 20.25 11.25 20.25 11.1 20.25 10.95 20.25 10.85 20.25 10.8 20.25 10.7 20.25 10.65 20.2 10.55 20.2 10.5 20.15 10.4 20.15 10.35 20.1 10.25 20.1 10.2 20.05 10.15 20.0 10.05 19.95 10.0 19.9 9.95 19.85 9.9 19.8 9.85 19.75 9.8 19.65 9.75 19.6 9.7 19.5 9.65 19.45 9.6 19.4 9.55 19.3 9.55 19.2 9.5 19.15 9.5 19.05 9.45 18.95 9.45 18.9 9.4 18.8 9.4 18.7 9.4 18.6 9.4 18.5 9.4 18.4 9.4 18.3 9.4 18.2 9.4 18.1 9.4 18.0 9.45 17.9 9.45 17.85 9.5 17.75 9.5 17.65 9.55 17.6 9.6 17.5 9.6 17.45 9.65 17.35 9.7 17.3 9.75 17.25 9.8 17.2 9.85 17.15 9.9 17.1 10.0 17.05 10.05 17.0 10.15 16.95 10.2 16.9 10.3 16.9 10.35 16.85 10.45 16.8 10.55 16.8 10.65 16.8 10.7 16.75 10.8 16.75 10.9 16.75 11.0 16.75 11.15 16.75 11.25 L16.75 11.35 15.75 11.35 Q15.75 11.35 15.75 11.3 15.7 11.3 15.7 11.2 15.7 11.15 15.7 11.1 15.7 10.95 15.7 10.8 15.75 10.65 15.75 10.5 15.8 10.35 15.8 10.25 15.85 10.1 15.9 9.95 15.95 9.85 16.0 9.75 16.05 9.6 16.15 9.5 16.2 9.4 16.3 9.3 16.35 9.2 16.45 9.1 16.55 9.0 16.65 8.95 16.75 8.85 16.85 8.8 17.0 8.75 17.1 8.7 17.2 8.65 17.35 8.6 17.5 8.55 17.6 8.5 17.75 8.45 17.9 8.45 18.05 8.45 18.2 8.4 18.35 8.4 18.55 8.4 L18.55 8.4" fill="#ffffff" fill-rule="evenodd" stroke="none"/>
    </g>
  </defs>
</svg>
