<?xml version="1.0" encoding="UTF-8" standalone="no"?>
<svg xmlns:ffdec="https://www.free-decompiler.com/flash" xmlns:xlink="http://www.w3.org/1999/xlink" ffdec:objectType="frame" height="26.05px" width="52.95px" xmlns="http://www.w3.org/2000/svg">
  <g transform="matrix(1.0, 0.0, 0.0, 1.0, 0.0, 0.0)">
    <use ffdec:characterId="3" height="26.0" transform="matrix(1.0, 0.0, 0.0, 1.0, 0.0, 0.0)" width="26.0" xlink:href="#shape0"/>
    <use ffdec:characterId="123" height="13.1" transform="matrix(0.9293, 0.0, 0.0, 0.9326, 6.6, 7.9)" width="15.5" xlink:href="#shape1"/>
    <use ffdec:characterId="257" height="26.0" transform="matrix(1.0, 0.0, 0.0, 1.0, 0.0, 0.0)" width="26.0" xlink:href="#shape2"/>
  </g>
  <defs>
    <g id="shape0" transform="matrix(1.0, 0.0, 0.0, 1.0, 0.0, 0.0)">
      <path d="M22.0 4.0 Q23.05 5.1 23.05 6.6 L23.05 19.4 Q23.05 20.85 22.0 22.0 20.85 23.05 19.4 23.05 L6.6 23.05 Q5.1 23.05 4.0 22.0 2.95 20.9 2.95 19.4 L2.95 6.6 Q2.95 5.1 4.0 4.0 5.1 2.9 6.6 2.9 L19.4 2.9 Q20.9 2.9 22.0 4.0 M26.0 6.6 L26.0 19.4 Q26.0 22.15 24.05 24.05 L23.95 24.15 Q22.1 26.0 19.4 26.0 L6.6 26.0 Q3.9 26.0 1.95 24.05 0.0 22.15 0.0 19.4 L0.0 6.6 Q0.0 3.9 1.95 1.95 3.9 0.0 6.6 0.0 L19.4 0.0 Q22.1 0.0 23.95 1.85 L24.05 1.95 Q26.0 3.9 26.0 6.6 M23.95 3.85 L23.15 2.8 Q21.55 1.3 19.4 1.3 L6.6 1.3 Q4.4 1.3 2.8 2.8 1.3 4.4 1.3 6.6 L1.3 19.4 Q1.3 21.55 2.8 23.15 4.4 24.7 6.6 24.7 L19.4 24.7 Q21.55 24.7 23.15 23.15 L23.95 22.15 Q24.7 20.9 24.7 19.4 L24.7 6.6 Q24.7 5.05 23.95 3.85" fill="#000000" fill-opacity="0.0" fill-rule="evenodd" stroke="none"/>
      <path d="M22.0 4.0 Q20.9 2.9 19.4 2.9 L6.6 2.9 Q5.1 2.9 4.0 4.0 2.95 5.1 2.95 6.6 L2.95 19.4 Q2.95 20.9 4.0 22.0 5.1 23.05 6.6 23.05 L19.4 23.05 Q20.85 23.05 22.0 22.0 23.05 20.85 23.05 19.4 L23.05 6.6 Q23.05 5.1 22.0 4.0 M23.95 3.85 Q24.7 5.05 24.7 6.6 L24.7 19.4 Q24.7 20.9 23.95 22.15 L23.15 23.15 Q21.55 24.7 19.4 24.7 L6.6 24.7 Q4.4 24.7 2.8 23.15 1.3 21.55 1.3 19.4 L1.3 6.6 Q1.3 4.4 2.8 2.8 4.4 1.3 6.6 1.3 L19.4 1.3 Q21.55 1.3 23.15 2.8 L23.95 3.85" fill="#a6a8ab" fill-opacity="0.0" fill-rule="evenodd" stroke="none"/>
    </g>
    <g id="shape1" transform="matrix(1.0, 0.0, 0.0, 1.0, 0.0, 0.0)">
      <path d="M6.05 0.15 L7.55 0.15 8.75 12.95 7.05 12.95 6.6 4.1 4.95 12.95 3.8 12.95 2.15 4.1 2.1 4.1 1.65 12.95 0.0 12.95 1.05 0.15 2.5 0.15 4.35 9.4 4.4 9.4 4.45 8.85 6.05 0.15 M15.35 3.3 L15.25 4.5 14.9 5.6 Q14.55 6.1 13.9 6.3 L13.9 6.35 14.95 7.0 15.4 8.05 15.5 9.3 15.25 11.2 Q15.0 12.05 14.35 12.6 L12.55 13.1 Q11.1 13.1 10.45 12.35 9.85 11.55 9.85 10.15 L9.85 9.75 11.5 9.75 11.5 10.15 11.6 10.85 11.9 11.35 Q12.15 11.55 12.55 11.6 L13.25 11.3 13.6 10.7 13.75 9.9 13.75 9.2 13.65 8.15 13.2 7.35 Q12.9 7.05 12.25 7.05 L11.75 7.05 11.75 5.5 11.95 5.5 13.05 5.35 13.55 4.7 13.7 3.55 13.65 2.7 13.4 1.9 Q13.2 1.5 12.7 1.5 12.3 1.5 12.05 1.8 11.85 2.05 11.8 2.45 L11.7 3.15 11.7 3.55 10.1 3.55 10.1 3.45 Q10.05 2.45 10.25 1.7 10.4 0.9 11.0 0.45 11.55 0.0 12.65 0.0 13.75 0.0 14.3 0.4 14.9 0.85 15.15 1.6 L15.35 3.3" fill="#000000" fill-opacity="0.0" fill-rule="evenodd" stroke="none"/>
    </g>
    <g id="shape2" transform="matrix(1.0, 0.0, 0.0, 1.0, 0.0, 0.0)">
      <path d="M4.0 3.0 Q3.9 3.0 3.8 3.0 3.7 3.05 3.6 3.1 3.5 3.1 3.45 3.15 3.35 3.2 3.3 3.3 3.2 3.35 3.15 3.45 3.1 3.5 3.1 3.6 3.05 3.7 3.0 3.8 3.0 3.9 3.0 4.0 L3.0 22.0 Q3.0 22.1 3.0 22.2 3.05 22.3 3.1 22.4 3.1 22.5 3.15 22.55 3.2 22.65 3.3 22.7 3.35 22.8 3.45 22.85 3.5 22.9 3.6 22.9 3.7 22.95 3.8 23.0 3.9 23.0 4.0 23.0 L22.0 23.0 Q22.1 23.0 22.2 23.0 22.3 22.95 22.4 22.9 22.5 22.9 22.55 22.85 22.65 22.8 22.7 22.7 22.8 22.65 22.85 22.55 22.9 22.5 22.9 22.4 22.95 22.3 23.0 22.2 23.0 22.1 23.0 22.0 L23.0 4.0 Q23.0 3.9 23.0 3.8 22.95 3.7 22.9 3.6 22.9 3.5 22.85 3.45 22.8 3.35 22.7 3.3 22.65 3.2 22.55 3.15 22.5 3.1 22.4 3.1 22.3 3.05 22.2 3.0 22.1 3.0 22.0 3.0 L4.0 3.0 4.0 3.0 M6.5 8.15 L9.65 15.6 12.75 8.15 14.6 17.5 13.55 17.5 12.4 11.4 9.65 17.85 6.85 11.4 5.7 17.5 4.65 17.5 6.5 8.15 6.5 8.15 M18.55 8.4 Q18.7 8.4 18.85 8.4 19.0 8.4 19.15 8.45 19.25 8.45 19.4 8.5 19.55 8.55 19.65 8.55 19.8 8.6 19.9 8.65 20.0 8.7 20.1 8.75 20.2 8.85 20.3 8.9 20.4 8.95 20.5 9.05 20.6 9.15 20.65 9.2 20.75 9.3 20.8 9.4 20.9 9.5 20.95 9.6 21.0 9.7 21.05 9.8 21.1 9.9 21.15 10.05 21.15 10.15 21.2 10.3 21.2 10.4 21.2 10.55 21.25 10.65 21.25 10.8 21.25 10.9 21.25 11.0 21.25 11.1 21.2 11.2 21.2 11.3 21.2 11.35 21.15 11.45 21.15 11.55 21.1 11.6 21.05 11.7 21.05 11.8 21.0 11.85 20.95 11.95 20.9 12.0 20.85 12.1 20.8 12.15 20.75 12.2 20.7 12.3 20.65 12.35 20.55 12.4 20.5 12.45 20.45 12.5 20.4 12.55 20.3 12.6 20.25 12.65 20.15 12.7 20.05 12.75 20.0 12.8 19.9 12.8 19.8 12.85 19.75 12.9 19.65 12.9 19.75 12.9 19.85 12.95 19.95 12.95 20.0 13.0 20.1 13.05 20.2 13.05 20.25 13.1 20.35 13.15 20.45 13.2 20.5 13.25 20.6 13.3 20.65 13.35 20.7 13.4 20.75 13.5 20.85 13.55 20.9 13.65 20.95 13.7 21.0 13.8 21.05 13.85 21.1 13.95 21.15 14.05 21.15 14.1 21.2 14.2 21.25 14.3 21.25 14.4 21.3 14.5 21.3 14.6 21.3 14.7 21.35 14.8 21.35 14.9 21.35 15.0 21.35 15.1 21.35 15.25 21.35 15.4 21.3 15.55 21.3 15.7 21.25 15.85 21.25 15.95 21.2 16.1 21.15 16.2 21.1 16.35 21.05 16.45 20.95 16.55 20.9 16.65 20.8 16.75 20.75 16.85 20.65 16.95 20.55 17.05 20.45 17.15 20.35 17.2 20.25 17.3 20.1 17.35 20.0 17.4 19.85 17.45 19.75 17.5 19.6 17.55 19.45 17.6 19.3 17.65 19.15 17.7 19.0 17.7 18.85 17.7 18.65 17.75 18.5 17.75 18.3 17.75 18.15 17.75 18.0 17.75 17.85 17.75 17.7 17.7 17.6 17.7 17.45 17.65 17.3 17.6 17.2 17.6 17.1 17.55 16.95 17.5 16.85 17.45 16.75 17.4 16.65 17.3 16.55 17.25 16.4 17.2 16.35 17.1 16.25 17.0 16.15 16.95 16.1 16.85 16.0 16.75 15.95 16.65 15.9 16.55 15.85 16.45 15.8 16.35 15.75 16.25 15.7 16.15 15.65 16.0 15.65 15.9 15.6 15.75 15.6 15.65 15.6 15.5 15.6 15.4 L15.6 15.2 16.7 15.2 16.7 15.3 Q16.7 15.4 16.7 15.5 16.7 15.55 16.7 15.65 16.75 15.7 16.75 15.8 16.75 15.85 16.8 15.95 16.85 16.0 16.85 16.05 16.9 16.15 16.95 16.2 17.0 16.25 17.05 16.3 17.1 16.35 17.15 16.4 17.2 16.45 17.25 16.5 17.3 16.55 17.4 16.6 17.45 16.6 17.5 16.65 17.6 16.7 17.65 16.7 17.75 16.75 17.85 16.75 17.9 16.8 18.0 16.8 18.1 16.8 18.15 16.8 18.25 16.8 18.35 16.8 18.45 16.8 18.55 16.8 18.7 16.8 18.8 16.8 18.9 16.75 18.95 16.75 19.05 16.75 19.15 16.7 19.25 16.7 19.3 16.65 19.4 16.6 19.45 16.55 19.55 16.5 19.6 16.45 19.7 16.45 19.75 16.35 19.8 16.3 19.85 16.25 19.9 16.2 19.95 16.1 20.0 16.05 20.05 15.95 20.05 15.9 20.1 15.8 20.15 15.75 20.15 15.65 20.2 15.55 20.2 15.5 20.2 15.4 20.2 15.3 20.2 15.2 20.2 15.1 20.2 15.0 20.2 14.9 20.2 14.8 20.2 14.7 20.15 14.6 20.15 14.5 20.15 14.4 20.1 14.3 20.05 14.25 20.05 14.15 20.0 14.1 19.95 14.0 19.9 13.95 19.85 13.9 19.8 13.8 19.7 13.75 19.65 13.7 19.6 13.65 19.5 13.6 19.45 13.55 19.35 13.5 19.3 13.5 19.2 13.45 19.1 13.45 19.0 13.4 18.9 13.4 18.8 13.35 18.7 13.35 18.6 13.35 18.5 13.35 18.4 13.3 18.25 13.3 18.2 13.3 18.05 13.35 18.05 13.3 17.95 13.35 L17.95 12.45 Q17.95 12.45 18.0 12.45 18.05 12.45 18.1 12.45 18.15 12.45 18.2 12.45 18.2 12.45 18.25 12.45 18.35 12.45 18.45 12.45 18.6 12.45 18.7 12.45 18.8 12.4 18.85 12.4 18.95 12.4 19.05 12.35 19.15 12.35 19.2 12.3 19.3 12.25 19.35 12.25 19.45 12.2 19.5 12.15 19.6 12.1 19.65 12.05 19.7 12.0 19.75 11.95 19.8 11.9 19.85 11.85 19.9 11.75 19.95 11.7 19.95 11.65 20.0 11.55 20.0 11.5 20.05 11.4 20.05 11.3 20.1 11.25 20.1 11.15 20.1 11.05 20.1 10.95 20.1 10.85 20.1 10.75 20.1 10.7 20.1 10.6 20.1 10.5 20.05 10.45 20.05 10.35 20.05 10.3 20.0 10.2 20.0 10.15 19.95 10.1 19.9 10.0 19.85 9.95 19.85 9.9 19.8 9.85 19.75 9.8 19.7 9.75 19.65 9.7 19.6 9.65 19.5 9.6 19.45 9.55 19.4 9.5 19.3 9.5 19.25 9.45 19.2 9.4 19.1 9.4 19.0 9.4 18.95 9.35 18.85 9.35 18.8 9.35 18.7 9.3 18.6 9.3 18.5 9.3 18.4 9.3 18.3 9.3 18.2 9.3 18.15 9.35 18.05 9.35 17.95 9.35 17.9 9.4 17.8 9.4 17.75 9.45 17.65 9.45 17.6 9.5 17.55 9.55 17.45 9.55 17.4 9.6 17.35 9.65 17.3 9.7 17.25 9.75 17.2 9.8 17.15 9.85 17.1 9.9 17.05 9.95 17.0 10.05 17.0 10.1 16.95 10.15 16.9 10.25 16.9 10.3 16.85 10.4 16.85 10.45 16.85 10.55 16.85 10.65 16.8 10.75 16.8 10.8 L15.75 10.8 Q15.75 10.65 15.8 10.5 15.8 10.4 15.8 10.25 15.85 10.15 15.9 10.0 15.95 9.9 16.0 9.8 16.05 9.65 16.1 9.55 16.15 9.45 16.2 9.35 16.3 9.3 16.35 9.2 16.45 9.1 16.55 9.05 16.65 8.95 16.75 8.9 16.85 8.85 16.95 8.75 17.05 8.7 17.15 8.65 17.25 8.6 17.4 8.55 17.5 8.55 17.65 8.5 17.8 8.45 17.95 8.45 18.05 8.45 18.25 8.4 18.4 8.4 18.55 8.4 L18.55 8.4" fill="#ffffff" fill-rule="evenodd" stroke="none"/>
    </g>
  </defs>
</svg>
