<?xml version="1.0" encoding="UTF-8" standalone="no"?>
<svg xmlns:ffdec="https://www.free-decompiler.com/flash" xmlns:xlink="http://www.w3.org/1999/xlink" ffdec:objectType="frame" height="26.05px" width="52.95px" xmlns="http://www.w3.org/2000/svg">
  <g transform="matrix(1.0, 0.0, 0.0, 1.0, 0.0, 0.0)">
    <use ffdec:characterId="3" height="26.0" transform="matrix(1.0, 0.0, 0.0, 1.0, 0.0, 0.0)" width="26.0" xlink:href="#shape0"/>
    <use ffdec:characterId="126" height="12.95" transform="matrix(0.9293, 0.0, 0.0, 0.9326, 6.6, 8.05)" width="15.4" xlink:href="#shape1"/>
    <use ffdec:characterId="260" height="26.0" transform="matrix(1.0, 0.0, 0.0, 1.0, 0.0, 0.0)" width="26.0" xlink:href="#shape2"/>
  </g>
  <defs>
    <g id="shape0" transform="matrix(1.0, 0.0, 0.0, 1.0, 0.0, 0.0)">
      <path d="M22.0 4.0 Q23.05 5.1 23.05 6.6 L23.05 19.4 Q23.05 20.85 22.0 22.0 20.85 23.05 19.4 23.05 L6.6 23.05 Q5.1 23.05 4.0 22.0 2.95 20.9 2.95 19.4 L2.95 6.6 Q2.95 5.1 4.0 4.0 5.1 2.9 6.6 2.9 L19.4 2.9 Q20.9 2.9 22.0 4.0 M26.0 6.6 L26.0 19.4 Q26.0 22.15 24.05 24.05 L23.95 24.15 Q22.1 26.0 19.4 26.0 L6.6 26.0 Q3.9 26.0 1.95 24.05 0.0 22.15 0.0 19.4 L0.0 6.6 Q0.0 3.9 1.95 1.95 3.9 0.0 6.6 0.0 L19.4 0.0 Q22.1 0.0 23.95 1.85 L24.05 1.95 Q26.0 3.9 26.0 6.6 M23.95 3.85 L23.15 2.8 Q21.55 1.3 19.4 1.3 L6.6 1.3 Q4.4 1.3 2.8 2.8 1.3 4.4 1.3 6.6 L1.3 19.4 Q1.3 21.55 2.8 23.15 4.4 24.7 6.6 24.7 L19.4 24.7 Q21.55 24.7 23.15 23.15 L23.95 22.15 Q24.7 20.9 24.7 19.4 L24.7 6.6 Q24.7 5.05 23.95 3.85" fill="#000000" fill-opacity="0.0" fill-rule="evenodd" stroke="none"/>
      <path d="M22.0 4.0 Q20.9 2.9 19.4 2.9 L6.6 2.9 Q5.1 2.9 4.0 4.0 2.95 5.1 2.95 6.6 L2.95 19.4 Q2.95 20.9 4.0 22.0 5.1 23.05 6.6 23.05 L19.4 23.05 Q20.85 23.05 22.0 22.0 23.05 20.85 23.05 19.4 L23.05 6.6 Q23.05 5.1 22.0 4.0 M23.95 3.85 Q24.7 5.05 24.7 6.6 L24.7 19.4 Q24.7 20.9 23.95 22.15 L23.15 23.15 Q21.55 24.7 19.4 24.7 L6.6 24.7 Q4.4 24.7 2.8 23.15 1.3 21.55 1.3 19.4 L1.3 6.6 Q1.3 4.4 2.8 2.8 4.4 1.3 6.6 1.3 L19.4 1.3 Q21.55 1.3 23.15 2.8 L23.95 3.85" fill="#a6a8ab" fill-opacity="0.0" fill-rule="evenodd" stroke="none"/>
    </g>
    <g id="shape1" transform="matrix(1.0, 0.0, 0.0, 1.0, 0.0, 0.0)">
      <path d="M6.05 0.0 L7.55 0.0 8.75 12.8 7.05 12.8 6.6 3.95 4.95 12.8 3.8 12.8 2.15 3.95 2.1 3.95 1.65 12.8 0.0 12.8 1.05 0.0 2.5 0.0 4.35 9.25 4.4 9.25 4.45 8.7 6.05 0.0 M12.65 6.45 L12.4 6.45 12.05 6.7 11.75 7.45 Q11.6 8.0 11.6 8.95 L11.65 9.65 11.75 10.45 12.05 11.15 Q12.3 11.4 12.65 11.45 13.05 11.4 13.25 11.15 L13.55 10.45 13.65 9.65 13.65 8.95 13.65 8.25 13.55 7.4 13.25 6.7 Q13.05 6.45 12.65 6.45 M12.5 0.0 L14.3 0.0 11.8 5.45 11.85 5.5 12.45 5.05 13.15 4.9 Q13.95 4.95 14.4 5.3 14.85 5.7 15.1 6.35 L15.35 7.65 15.4 8.95 15.25 10.85 Q15.05 11.75 14.5 12.35 13.9 12.95 12.65 12.95 11.7 12.95 11.15 12.55 L10.3 11.55 9.95 10.15 9.9 8.6 10.1 6.25 Q10.3 5.15 10.65 4.15 L11.45 2.15 12.5 0.0" fill="#000000" fill-opacity="0.0" fill-rule="evenodd" stroke="none"/>
    </g>
    <g id="shape2" transform="matrix(1.0, 0.0, 0.0, 1.0, 0.0, 0.0)">
      <path d="M4.0 3.0 Q3.9 3.0 3.8 3.0 3.7 3.05 3.6 3.1 3.5 3.1 3.45 3.15 3.35 3.2 3.3 3.3 3.2 3.35 3.15 3.45 3.1 3.5 3.1 3.6 3.05 3.7 3.0 3.8 3.0 3.9 3.0 4.0 L3.0 22.0 Q3.0 22.1 3.0 22.2 3.05 22.3 3.1 22.4 3.1 22.5 3.15 22.55 3.2 22.65 3.3 22.7 3.35 22.8 3.45 22.85 3.5 22.9 3.6 22.9 3.7 22.95 3.8 23.0 3.9 23.0 4.0 23.0 L22.0 23.0 Q22.1 23.0 22.2 23.0 22.3 22.95 22.4 22.9 22.5 22.9 22.55 22.85 22.65 22.8 22.7 22.7 22.8 22.65 22.85 22.55 22.9 22.5 22.9 22.4 22.95 22.3 23.0 22.2 23.0 22.1 23.0 22.0 L23.0 4.0 Q23.0 3.9 23.0 3.8 22.95 3.7 22.9 3.6 22.9 3.5 22.85 3.45 22.8 3.35 22.7 3.3 22.65 3.2 22.55 3.15 22.5 3.1 22.4 3.1 22.3 3.05 22.2 3.0 22.1 3.0 22.0 3.0 L4.0 3.0 4.0 3.0 M6.35 8.15 L9.5 15.6 12.65 8.15 14.5 17.5 13.45 17.5 12.3 11.4 9.5 17.85 6.7 11.4 5.6 17.5 4.55 17.5 6.35 8.15 6.35 8.15 M19.35 8.15 L20.25 8.65 17.35 12.4 Q17.4 12.4 17.45 12.35 17.5 12.35 17.5 12.3 17.55 12.3 17.6 12.25 17.65 12.25 17.7 12.2 17.75 12.2 17.75 12.2 17.8 12.15 17.85 12.15 17.9 12.15 17.95 12.1 18.0 12.1 18.0 12.1 18.05 12.1 18.1 12.05 18.15 12.05 18.2 12.05 18.25 12.05 18.3 12.05 18.3 12.0 18.35 12.0 18.4 12.0 18.45 12.0 18.5 12.0 18.55 12.0 18.6 12.0 18.65 12.0 18.7 12.0 18.75 12.0 18.9 12.0 19.05 12.0 19.2 12.0 19.3 12.05 19.45 12.05 19.6 12.1 19.7 12.15 19.85 12.2 19.95 12.25 20.05 12.3 20.2 12.35 20.3 12.4 20.4 12.5 20.5 12.6 20.6 12.65 20.7 12.75 20.8 12.85 20.9 12.95 20.95 13.05 21.05 13.15 21.1 13.3 21.15 13.4 21.2 13.5 21.25 13.65 21.3 13.75 21.35 13.9 21.4 14.05 21.4 14.2 21.45 14.3 21.45 14.45 21.45 14.6 21.45 14.75 21.45 14.9 21.45 15.1 21.4 15.25 21.4 15.4 21.35 15.55 21.35 15.7 21.3 15.85 21.25 16.0 21.2 16.1 21.1 16.25 21.05 16.4 20.95 16.5 20.9 16.6 20.8 16.7 20.7 16.85 20.6 16.95 20.5 17.05 20.4 17.15 20.25 17.2 20.15 17.3 20.0 17.35 19.85 17.45 19.75 17.5 19.6 17.55 19.45 17.6 19.3 17.65 19.15 17.65 18.95 17.7 18.8 17.7 18.65 17.75 18.45 17.75 18.3 17.75 18.15 17.75 18.0 17.75 17.85 17.7 17.7 17.7 17.55 17.65 17.45 17.65 17.3 17.6 17.15 17.55 17.05 17.5 16.9 17.4 16.8 17.35 16.7 17.3 16.6 17.2 16.5 17.1 16.4 17.05 16.3 16.95 16.2 16.85 16.1 16.75 16.05 16.6 15.95 16.5 15.9 16.4 15.85 16.25 15.75 16.15 15.7 16.0 15.65 15.85 15.65 15.7 15.6 15.55 15.55 15.4 15.55 15.25 15.55 15.1 15.55 14.95 15.55 14.8 15.55 14.65 15.55 14.45 15.6 14.3 15.65 14.1 15.7 13.9 15.75 13.7 15.85 13.45 15.95 13.25 16.05 13.0 16.2 12.75 16.3 12.5 16.5 12.25 16.65 12.0 16.8 11.7 17.0 11.45 17.2 11.15 L17.25 11.05 19.35 8.15 19.35 8.15 M18.45 12.9 Q18.35 12.9 18.25 12.9 18.15 12.9 18.05 12.9 17.95 12.95 17.9 12.95 17.8 13.0 17.7 13.0 17.65 13.05 17.55 13.1 17.45 13.15 17.4 13.2 17.35 13.25 17.25 13.3 17.2 13.35 17.15 13.45 17.1 13.5 17.05 13.6 16.95 13.65 16.9 13.75 16.85 13.8 16.85 13.9 16.8 14.0 16.75 14.1 16.75 14.15 16.7 14.25 16.7 14.35 16.65 14.45 16.65 14.55 16.65 14.65 16.65 14.75 16.65 14.9 16.65 15.0 16.65 15.1 16.65 15.2 16.65 15.3 16.7 15.4 16.7 15.5 16.75 15.6 16.75 15.7 16.8 15.8 16.85 15.85 16.85 15.95 16.9 16.05 16.95 16.1 17.0 16.2 17.05 16.25 17.15 16.3 17.2 16.35 17.3 16.45 17.35 16.5 17.4 16.55 17.5 16.6 17.55 16.65 17.65 16.7 17.75 16.7 17.8 16.75 17.9 16.75 18.0 16.8 18.1 16.8 18.2 16.85 18.3 16.85 18.4 16.85 18.5 16.85 18.6 16.85 18.7 16.85 18.8 16.85 18.9 16.8 19.0 16.8 19.1 16.75 19.15 16.75 19.25 16.7 19.35 16.7 19.4 16.65 19.5 16.6 19.55 16.55 19.65 16.5 19.7 16.45 19.75 16.35 19.85 16.3 19.9 16.25 19.95 16.15 20.0 16.1 20.05 16.0 20.1 15.95 20.15 15.85 20.2 15.75 20.2 15.65 20.25 15.6 20.25 15.5 20.3 15.4 20.3 15.3 20.35 15.2 20.35 15.1 20.35 15.0 20.35 14.85 20.35 14.75 20.35 14.65 20.35 14.55 20.3 14.4 20.3 14.3 20.3 14.25 20.25 14.15 20.2 14.05 20.2 13.95 20.15 13.85 20.1 13.8 20.05 13.7 20.0 13.6 19.95 13.55 19.9 13.5 19.85 13.4 19.8 13.35 19.7 13.3 19.65 13.2 19.55 13.15 19.5 13.1 19.4 13.1 19.3 13.05 19.25 13.0 19.15 13.0 19.05 12.95 18.95 12.95 18.85 12.9 18.75 12.9 18.65 12.9 18.55 12.9 18.45 12.9 L18.45 12.9" fill="#ffffff" fill-rule="evenodd" stroke="none"/>
    </g>
  </defs>
</svg>
