<?xml version="1.0" encoding="UTF-8" standalone="no"?>
<svg xmlns:ffdec="https://www.free-decompiler.com/flash" xmlns:xlink="http://www.w3.org/1999/xlink" ffdec:objectType="frame" height="26.05px" width="52.95px" xmlns="http://www.w3.org/2000/svg">
  <g transform="matrix(1.0, 0.0, 0.0, 1.0, 0.0, 0.0)">
    <use ffdec:characterId="3" height="26.0" transform="matrix(1.0, 0.0, 0.0, 1.0, 0.0, 0.0)" width="26.0" xlink:href="#shape0"/>
    <use ffdec:characterId="113" height="14.1" transform="matrix(1.0E-4, 0.9293, -0.9326, 1.0E-4, 20.5, 11.3)" width="4.95" xlink:href="#shape1"/>
    <use ffdec:characterId="268" height="26.0" transform="matrix(1.0, 0.0, 0.0, 1.0, 0.0, 0.0)" width="26.0" xlink:href="#shape2"/>
  </g>
  <defs>
    <g id="shape0" transform="matrix(1.0, 0.0, 0.0, 1.0, 0.0, 0.0)">
      <path d="M22.0 4.0 Q23.05 5.1 23.05 6.6 L23.05 19.4 Q23.05 20.85 22.0 22.0 20.85 23.05 19.4 23.05 L6.6 23.05 Q5.1 23.05 4.0 22.0 2.95 20.9 2.95 19.4 L2.95 6.6 Q2.95 5.1 4.0 4.0 5.1 2.9 6.6 2.9 L19.4 2.9 Q20.9 2.9 22.0 4.0 M26.0 6.6 L26.0 19.4 Q26.0 22.15 24.05 24.05 L23.95 24.15 Q22.1 26.0 19.4 26.0 L6.6 26.0 Q3.9 26.0 1.95 24.05 0.0 22.15 0.0 19.4 L0.0 6.6 Q0.0 3.9 1.95 1.95 3.9 0.0 6.6 0.0 L19.4 0.0 Q22.1 0.0 23.95 1.85 L24.05 1.95 Q26.0 3.9 26.0 6.6 M23.95 3.85 L23.15 2.8 Q21.55 1.3 19.4 1.3 L6.6 1.3 Q4.4 1.3 2.8 2.8 1.3 4.4 1.3 6.6 L1.3 19.4 Q1.3 21.55 2.8 23.15 4.4 24.7 6.6 24.7 L19.4 24.7 Q21.55 24.7 23.15 23.15 L23.95 22.15 Q24.7 20.9 24.7 19.4 L24.7 6.6 Q24.7 5.05 23.95 3.85" fill="#000000" fill-opacity="0.0" fill-rule="evenodd" stroke="none"/>
      <path d="M22.0 4.0 Q20.9 2.9 19.4 2.9 L6.6 2.9 Q5.1 2.9 4.0 4.0 2.95 5.1 2.95 6.6 L2.95 19.4 Q2.95 20.9 4.0 22.0 5.1 23.05 6.6 23.05 L19.4 23.05 Q20.85 23.05 22.0 22.0 23.05 20.85 23.05 19.4 L23.05 6.6 Q23.05 5.1 22.0 4.0 M23.95 3.85 Q24.7 5.05 24.7 6.6 L24.7 19.4 Q24.7 20.9 23.95 22.15 L23.15 23.15 Q21.55 24.7 19.4 24.7 L6.6 24.7 Q4.4 24.7 2.8 23.15 1.3 21.55 1.3 19.4 L1.3 6.6 Q1.3 4.4 2.8 2.8 4.4 1.3 6.6 1.3 L19.4 1.3 Q21.55 1.3 23.15 2.8 L23.95 3.85" fill="#a6a8ab" fill-opacity="0.0" fill-rule="evenodd" stroke="none"/>
    </g>
    <g id="shape1" transform="matrix(1.0, 0.0, 0.0, 1.0, 0.0, 0.0)">
      <path d="M0.0 5.9 L0.05 5.85 2.5 0.0 4.95 5.85 4.95 5.9 3.05 5.9 3.05 14.1 1.95 14.1 1.95 5.9 0.0 5.9" fill="#000000" fill-opacity="0.0" fill-rule="evenodd" stroke="none"/>
    </g>
    <g id="shape2" transform="matrix(1.0, 0.0, 0.0, 1.0, 0.0, 0.0)">
      <path d="M23.0 11.0 Q23.0 10.9 23.0 10.8 22.95 10.7 22.9 10.6 22.9 10.5 22.85 10.45 22.8 10.35 22.7 10.3 22.65 10.2 22.55 10.15 22.5 10.1 22.4 10.1 22.3 10.05 22.2 10.0 22.1 10.0 22.0 10.0 L17.05 10.0 14.05 13.0 17.05 16.0 22.0 16.0 Q22.1 16.0 22.2 16.0 22.3 15.95 22.4 15.9 22.5 15.9 22.55 15.85 22.65 15.8 22.7 15.7 22.8 15.65 22.85 15.55 22.9 15.5 22.9 15.4 22.95 15.3 23.0 15.2 23.0 15.1 23.0 15.0 L23.0 11.0 M22.0 13.0 L20.0 15.0 20.0 11.0 22.0 13.0 M16.0 4.0 Q16.0 3.9 16.0 3.8 15.95 3.7 15.9 3.6 15.9 3.5 15.85 3.45 15.8 3.35 15.7 3.3 15.65 3.2 15.55 3.15 15.5 3.1 15.4 3.1 15.3 3.05 15.2 3.0 15.1 3.0 15.0 3.0 L11.0 3.0 Q10.9 3.0 10.8 3.0 10.7 3.05 10.6 3.1 10.5 3.1 10.45 3.15 10.35 3.2 10.3 3.3 10.2 3.35 10.15 3.45 10.1 3.5 10.1 3.6 10.05 3.7 10.0 3.8 10.0 3.9 10.0 4.0 L10.0 8.95 13.0 11.95 16.0 8.95 16.0 4.0 M16.0 17.05 L13.0 14.05 10.0 17.05 10.0 22.0 Q10.0 22.1 10.0 22.2 10.05 22.3 10.1 22.4 10.1 22.5 10.15 22.55 10.2 22.65 10.3 22.7 10.35 22.8 10.45 22.85 10.5 22.9 10.6 22.9 10.7 22.95 10.8 23.0 10.9 23.0 11.0 23.0 L15.0 23.0 Q15.1 23.0 15.2 23.0 15.3 22.95 15.4 22.9 15.5 22.9 15.55 22.85 15.65 22.8 15.7 22.7 15.8 22.65 15.85 22.55 15.9 22.5 15.9 22.4 15.95 22.3 16.0 22.2 16.0 22.1 16.0 22.0 L16.0 17.05 M11.95 13.0 L8.95 10.0 4.0 10.0 Q3.9 10.0 3.8 10.0 3.7 10.05 3.6 10.1 3.5 10.1 3.45 10.15 3.35 10.2 3.3 10.3 3.2 10.35 3.15 10.45 3.1 10.5 3.1 10.6 3.05 10.7 3.0 10.8 3.0 10.9 3.0 11.0 L3.0 15.0 Q3.0 15.1 3.0 15.2 3.05 15.3 3.1 15.4 3.1 15.5 3.15 15.55 3.2 15.65 3.3 15.7 3.35 15.8 3.45 15.85 3.5 15.9 3.6 15.9 3.7 15.95 3.8 16.0 3.9 16.0 4.0 16.0 L8.95 16.0 11.95 13.0" fill="#ffffff" fill-rule="evenodd" stroke="none"/>
    </g>
  </defs>
</svg>
