<?xml version="1.0" encoding="UTF-8" standalone="no"?>
<svg xmlns:ffdec="https://www.free-decompiler.com/flash" xmlns:xlink="http://www.w3.org/1999/xlink" ffdec:objectType="frame" height="26.05px" width="52.95px" xmlns="http://www.w3.org/2000/svg">
  <g transform="matrix(1.0, 0.0, 0.0, 1.0, 0.0, 0.0)">
    <use ffdec:characterId="3" height="26.0" transform="matrix(1.0, 0.0, 0.0, 1.0, 0.0, 0.0)" width="26.0" xlink:href="#shape0"/>
    <use ffdec:characterId="135" height="12.8" transform="matrix(0.9293, 0.0, 0.0, 0.9326, 8.75, 8.05)" width="10.9" xlink:href="#shape1"/>
    <use ffdec:characterId="273" height="26.0" transform="matrix(1.0, 0.0, 0.0, 1.0, 0.0, 0.0)" width="26.0" xlink:href="#shape2"/>
  </g>
  <defs>
    <g id="shape0" transform="matrix(1.0, 0.0, 0.0, 1.0, 0.0, 0.0)">
      <path d="M22.0 4.0 Q23.05 5.1 23.05 6.6 L23.05 19.4 Q23.05 20.85 22.0 22.0 20.85 23.05 19.4 23.05 L6.6 23.05 Q5.1 23.05 4.0 22.0 2.95 20.9 2.95 19.4 L2.95 6.6 Q2.95 5.1 4.0 4.0 5.1 2.9 6.6 2.9 L19.4 2.9 Q20.9 2.9 22.0 4.0 M26.0 6.6 L26.0 19.4 Q26.0 22.15 24.05 24.05 L23.95 24.15 Q22.1 26.0 19.4 26.0 L6.6 26.0 Q3.9 26.0 1.95 24.05 0.0 22.15 0.0 19.4 L0.0 6.6 Q0.0 3.9 1.95 1.95 3.9 0.0 6.6 0.0 L19.4 0.0 Q22.1 0.0 23.95 1.85 L24.05 1.95 Q26.0 3.9 26.0 6.6 M23.95 3.85 L23.15 2.8 Q21.55 1.3 19.4 1.3 L6.6 1.3 Q4.4 1.3 2.8 2.8 1.3 4.4 1.3 6.6 L1.3 19.4 Q1.3 21.55 2.8 23.15 4.4 24.7 6.6 24.7 L19.4 24.7 Q21.55 24.7 23.15 23.15 L23.95 22.15 Q24.7 20.9 24.7 19.4 L24.7 6.6 Q24.7 5.05 23.95 3.85" fill="#000000" fill-opacity="0.0" fill-rule="evenodd" stroke="none"/>
      <path d="M22.0 4.0 Q20.9 2.9 19.4 2.9 L6.6 2.9 Q5.1 2.9 4.0 4.0 2.95 5.1 2.95 6.6 L2.95 19.4 Q2.95 20.9 4.0 22.0 5.1 23.05 6.6 23.05 L19.4 23.05 Q20.85 23.05 22.0 22.0 23.05 20.85 23.05 19.4 L23.05 6.6 Q23.05 5.1 22.0 4.0 M23.95 3.85 Q24.7 5.05 24.7 6.6 L24.7 19.4 Q24.7 20.9 23.95 22.15 L23.15 23.15 Q21.55 24.7 19.4 24.7 L6.6 24.7 Q4.4 24.7 2.8 23.15 1.3 21.55 1.3 19.4 L1.3 6.6 Q1.3 4.4 2.8 2.8 4.4 1.3 6.6 1.3 L19.4 1.3 Q21.55 1.3 23.15 2.8 L23.95 3.85" fill="#a6a8ab" fill-opacity="0.0" fill-rule="evenodd" stroke="none"/>
    </g>
    <g id="shape1" transform="matrix(1.0, 0.0, 0.0, 1.0, 0.0, 0.0)">
      <path d="M7.25 7.0 L7.25 11.35 8.4 11.15 8.95 10.45 9.1 9.25 8.95 8.05 Q8.85 7.5 8.45 7.25 8.05 6.95 7.25 7.0 M0.0 0.0 L1.7 0.0 1.7 11.3 4.55 11.3 4.55 12.8 0.0 12.8 0.0 0.0 M8.9 2.4 L8.45 1.7 7.55 1.45 7.25 1.45 7.25 5.65 8.4 5.35 8.95 4.55 9.05 3.35 8.9 2.4 M10.7 3.4 L10.6 4.65 10.15 5.65 9.1 6.25 9.1 6.3 Q9.85 6.5 10.2 6.95 L10.75 8.0 10.9 9.3 Q10.95 11.05 10.2 11.95 9.45 12.8 7.7 12.8 L5.65 12.8 5.65 0.0 7.75 0.0 Q8.9 0.0 9.55 0.4 10.2 0.8 10.45 1.55 10.75 2.35 10.7 3.4" fill="#000000" fill-opacity="0.0" fill-rule="evenodd" stroke="none"/>
    </g>
    <g id="shape2" transform="matrix(1.0, 0.0, 0.0, 1.0, 0.0, 0.0)">
      <path d="M13.0 2.0 Q12.0 2.0 11.0 2.15 10.0 2.3 9.1 2.6 8.2 2.85 7.4 3.3 6.6 3.7 5.95 4.2 5.25 4.7 4.7 5.3 4.15 5.9 3.8 6.6 3.4 7.25 3.2 8.0 3.0 8.75 3.0 9.5 L3.0 10.0 3.0 22.0 Q3.0 22.1 3.0 22.2 3.05 22.3 3.1 22.4 3.1 22.5 3.15 22.55 3.2 22.65 3.3 22.7 3.35 22.8 3.45 22.85 3.5 22.9 3.6 22.9 3.7 22.95 3.8 23.0 3.9 23.0 4.0 23.0 L22.0 23.0 Q22.1 23.0 22.2 23.0 22.3 22.95 22.4 22.9 22.5 22.9 22.55 22.85 22.65 22.8 22.7 22.7 22.8 22.65 22.85 22.55 22.9 22.5 22.9 22.4 22.95 22.3 23.0 22.2 23.0 22.1 23.0 22.0 L23.0 10.0 23.0 9.5 Q23.0 8.75 22.8 8.0 22.6 7.25 22.2 6.6 21.85 5.9 21.3 5.3 20.75 4.7 20.05 4.2 19.4 3.7 18.6 3.3 17.8 2.85 16.9 2.6 16.0 2.3 15.0 2.15 14.0 2.0 13.0 2.0 L13.0 2.0 M8.45 8.5 L9.5 8.5 9.5 16.5 12.9 16.5 12.9 17.5 8.45 17.5 8.45 8.5 8.45 8.5 M15.3 8.6 L17.55 8.6 17.55 17.5 16.55 17.5 16.55 9.5 14.7 9.5 15.3 8.6 15.3 8.6" fill="#ffffff" fill-rule="evenodd" stroke="none"/>
    </g>
  </defs>
</svg>
