<?xml version="1.0" encoding="UTF-8" standalone="no"?>
<svg xmlns:ffdec="https://www.free-decompiler.com/flash" xmlns:xlink="http://www.w3.org/1999/xlink" ffdec:objectType="frame" height="26.05px" width="52.95px" xmlns="http://www.w3.org/2000/svg">
  <g transform="matrix(1.0, 0.0, 0.0, 1.0, 0.0, 0.0)">
    <use ffdec:characterId="132" height="26.0" transform="matrix(1.0, 0.0, 0.0, 1.0, 0.05, 0.05)" width="26.0" xlink:href="#shape0"/>
    <use ffdec:characterId="64" height="12.8" transform="matrix(1.0, 0.0, 0.0, 1.0, 11.7, 7.3)" width="5.25" xlink:href="#shape1"/>
    <use ffdec:characterId="276" height="26.0" transform="matrix(1.0, 0.0, 0.0, 1.0, 0.0, 0.0)" width="26.0" xlink:href="#shape2"/>
  </g>
  <defs>
    <g id="shape0" transform="matrix(1.0, 0.0, 0.0, 1.0, -0.05, -0.05)">
      <path d="M3.55 13.05 Q3.55 9.1 6.35 6.3 9.15 3.5 13.05 3.5 17.0 3.5 19.75 6.3 22.55 9.1 22.55 13.05 22.55 17.0 19.75 19.7 17.0 22.5 13.05 22.5 9.15 22.5 6.35 19.7 3.55 17.0 3.55 13.05" fill="#000000" fill-opacity="0.0" fill-rule="evenodd" stroke="none"/>
      <path d="M21.0 20.95 Q17.65 24.25 13.05 24.25 8.4 24.25 5.1 20.95 1.8 17.65 1.8 13.05 1.8 8.4 5.1 5.05 8.4 1.75 13.05 1.75 17.7 1.75 21.0 5.05 24.3 8.4 24.3 13.05 24.3 17.65 21.0 20.95 M13.05 3.5 Q9.15 3.5 6.35 6.3 3.55 9.1 3.55 13.05 3.55 17.0 6.35 19.7 9.15 22.5 13.05 22.5 17.0 22.5 19.75 19.7 22.55 17.0 22.55 13.05 22.55 9.1 19.75 6.3 17.0 3.5 13.05 3.5" fill="#a6a8ab" fill-opacity="0.0" fill-rule="evenodd" stroke="none"/>
      <path d="M26.05 13.05 Q26.05 18.4 22.2 22.2 18.4 26.05 13.05 26.05 7.7 26.05 3.85 22.2 0.05 18.4 0.05 13.05 0.05 7.65 3.85 3.85 7.65 0.05 13.05 0.05 18.4 0.05 22.2 3.85 26.05 7.65 26.05 13.05 M24.3 13.05 Q24.3 8.4 21.0 5.05 17.7 1.75 13.05 1.75 8.4 1.75 5.1 5.05 1.8 8.4 1.8 13.05 1.8 17.65 5.1 20.95 8.4 24.25 13.05 24.25 17.65 24.25 21.0 20.95 24.3 17.65 24.3 13.05" fill="#000000" fill-opacity="0.0" fill-rule="evenodd" stroke="none"/>
    </g>
    <g id="shape1" transform="matrix(1.0, 0.0, 0.0, 1.0, 0.0, 0.0)">
      <path d="M3.3 8.05 L2.8 7.25 1.6 7.0 1.6 11.35 2.75 11.15 3.3 10.45 3.45 9.25 3.3 8.05 M3.9 0.4 Q4.55 0.8 4.8 1.55 5.1 2.35 5.05 3.4 L4.95 4.65 4.5 5.65 Q4.15 6.05 3.45 6.25 L3.45 6.3 Q4.2 6.5 4.55 6.95 L5.1 8.0 5.25 9.3 Q5.3 11.05 4.55 11.95 3.8 12.8 2.05 12.8 L0.0 12.8 0.0 0.0 2.1 0.0 Q3.25 0.0 3.9 0.4 M3.25 2.4 L2.8 1.7 1.9 1.45 1.6 1.45 1.6 5.65 Q2.4 5.65 2.75 5.35 L3.3 4.55 3.4 3.35 3.25 2.4" fill="#000000" fill-opacity="0.0" fill-rule="evenodd" stroke="none"/>
    </g>
    <g id="shape2" transform="matrix(1.0, 0.0, 0.0, 1.0, 0.0, 0.0)">
      <path d="M13.0 3.5 Q12.05 3.5 11.1 3.7 10.15 3.9 9.3 4.25 8.45 4.6 7.7 5.1 6.95 5.65 6.3 6.3 5.65 6.95 5.1 7.7 4.6 8.45 4.25 9.3 3.9 10.15 3.7 11.1 3.5 12.05 3.5 13.0 3.5 13.95 3.7 14.9 3.9 15.85 4.25 16.7 4.6 17.55 5.1 18.3 5.65 19.05 6.3 19.7 6.95 20.35 7.7 20.9 8.45 21.4 9.3 21.75 10.15 22.1 11.1 22.3 12.05 22.5 13.0 22.5 13.95 22.5 14.9 22.3 15.85 22.1 16.7 21.75 17.55 21.4 18.3 20.9 19.05 20.35 19.7 19.7 20.35 19.05 20.9 18.3 21.4 17.55 21.75 16.7 22.1 15.85 22.3 14.9 22.5 13.95 22.5 13.0 22.5 12.05 22.3 11.1 22.1 10.15 21.75 9.3 21.4 8.45 20.9 7.7 20.35 6.95 19.7 6.3 19.05 5.65 18.3 5.1 17.55 4.6 16.7 4.25 15.85 3.9 14.9 3.7 13.95 3.5 13.0 3.5 L13.0 3.5 M13.0 6.8 Q13.65 6.8 14.25 6.95 14.85 7.05 15.4 7.3 15.95 7.55 16.45 7.85 16.95 8.2 17.35 8.65 17.8 9.05 18.1 9.55 18.45 10.05 18.7 10.6 18.95 11.15 19.05 11.75 19.2 12.35 19.2 13.0 19.2 13.65 19.05 14.25 18.95 14.85 18.7 15.4 18.45 15.95 18.15 16.45 17.8 16.95 17.35 17.35 16.95 17.8 16.45 18.1 15.95 18.45 15.4 18.7 14.85 18.95 14.25 19.05 13.65 19.2 13.0 19.2 12.35 19.2 11.75 19.05 11.15 18.95 10.6 18.7 10.05 18.45 9.55 18.15 9.05 17.8 8.65 17.35 8.2 16.95 7.9 16.45 7.55 15.95 7.3 15.4 7.05 14.85 6.95 14.25 6.8 13.65 6.8 13.0 6.8 12.35 6.95 11.75 7.05 11.15 7.3 10.6 7.55 10.05 7.85 9.55 8.2 9.05 8.65 8.65 9.05 8.2 9.55 7.9 10.05 7.55 10.6 7.3 11.15 7.05 11.75 6.95 12.35 6.8 13.0 6.8 L13.0 6.8 M13.0 7.8 Q12.45 7.8 11.95 7.9 11.45 8.0 11.0 8.2 10.5 8.4 10.1 8.7 9.7 9.0 9.35 9.35 9.0 9.7 8.7 10.1 8.4 10.5 8.25 11.0 8.05 11.45 7.95 11.95 7.8 12.45 7.8 13.0 7.8 13.55 7.9 14.05 8.0 14.55 8.2 15.0 8.4 15.5 8.7 15.9 9.0 16.3 9.35 16.65 9.7 17.0 10.1 17.3 10.5 17.6 11.0 17.75 11.45 17.95 11.95 18.05 12.45 18.2 13.0 18.2 13.55 18.2 14.05 18.1 14.55 18.0 15.0 17.8 15.5 17.6 15.9 17.3 16.3 17.0 16.65 16.65 17.0 16.3 17.3 15.9 17.6 15.5 17.75 15.0 17.95 14.55 18.05 14.05 18.2 13.55 18.2 13.0 18.2 12.45 18.1 11.95 18.0 11.45 17.8 11.0 17.6 10.5 17.3 10.1 17.0 9.7 16.65 9.35 16.3 9.0 15.9 8.7 15.5 8.4 15.0 8.25 14.55 8.05 14.05 7.95 13.55 7.8 13.0 7.8 L13.0 7.8" fill="#ffffff" fill-rule="evenodd" stroke="none"/>
    </g>
  </defs>
</svg>
