<?xml version="1.0" encoding="UTF-8" standalone="no"?>
<svg xmlns:ffdec="https://www.free-decompiler.com/flash" xmlns:xlink="http://www.w3.org/1999/xlink" ffdec:objectType="frame" height="26.05px" width="52.95px" xmlns="http://www.w3.org/2000/svg">
  <g transform="matrix(1.0, 0.0, 0.0, 1.0, 0.0, 0.0)">
    <use ffdec:characterId="3" height="26.0" transform="matrix(1.0, 0.0, 0.0, 1.0, 0.0, 0.0)" width="26.0" xlink:href="#shape0"/>
    <use ffdec:characterId="137" height="12.8" transform="matrix(0.9293, 0.0, 0.0, 0.9326, 9.1, 8.05)" width="10.15" xlink:href="#shape1"/>
    <use ffdec:characterId="279" height="26.0" transform="matrix(1.0, 0.0, 0.0, 1.0, 0.0, 0.0)" width="26.0" xlink:href="#shape2"/>
  </g>
  <defs>
    <g id="shape0" transform="matrix(1.0, 0.0, 0.0, 1.0, 0.0, 0.0)">
      <path d="M22.0 4.0 Q23.05 5.1 23.05 6.6 L23.05 19.4 Q23.05 20.85 22.0 22.0 20.85 23.05 19.4 23.05 L6.6 23.05 Q5.1 23.05 4.0 22.0 2.95 20.9 2.95 19.4 L2.95 6.6 Q2.95 5.1 4.0 4.0 5.1 2.9 6.6 2.9 L19.4 2.9 Q20.9 2.9 22.0 4.0 M26.0 6.6 L26.0 19.4 Q26.0 22.15 24.05 24.05 L23.95 24.15 Q22.1 26.0 19.4 26.0 L6.6 26.0 Q3.9 26.0 1.95 24.05 0.0 22.15 0.0 19.4 L0.0 6.6 Q0.0 3.9 1.95 1.95 3.9 0.0 6.6 0.0 L19.4 0.0 Q22.1 0.0 23.95 1.85 L24.05 1.95 Q26.0 3.9 26.0 6.6 M23.95 3.85 L23.15 2.8 Q21.55 1.3 19.4 1.3 L6.6 1.3 Q4.4 1.3 2.8 2.8 1.3 4.4 1.3 6.6 L1.3 19.4 Q1.3 21.55 2.8 23.15 4.4 24.7 6.6 24.7 L19.4 24.7 Q21.55 24.7 23.15 23.15 L23.95 22.15 Q24.7 20.9 24.7 19.4 L24.7 6.6 Q24.7 5.05 23.95 3.85" fill="#000000" fill-opacity="0.0" fill-rule="evenodd" stroke="none"/>
      <path d="M22.0 4.0 Q20.9 2.9 19.4 2.9 L6.6 2.9 Q5.1 2.9 4.0 4.0 2.95 5.1 2.95 6.6 L2.95 19.4 Q2.95 20.9 4.0 22.0 5.1 23.05 6.6 23.05 L19.4 23.05 Q20.85 23.05 22.0 22.0 23.05 20.85 23.05 19.4 L23.05 6.6 Q23.05 5.1 22.0 4.0 M23.95 3.85 Q24.7 5.05 24.7 6.6 L24.7 19.4 Q24.7 20.9 23.95 22.15 L23.15 23.15 Q21.55 24.7 19.4 24.7 L6.6 24.7 Q4.4 24.7 2.8 23.15 1.3 21.55 1.3 19.4 L1.3 6.6 Q1.3 4.4 2.8 2.8 4.4 1.3 6.6 1.3 L19.4 1.3 Q21.55 1.3 23.15 2.8 L23.95 3.85" fill="#a6a8ab" fill-opacity="0.0" fill-rule="evenodd" stroke="none"/>
    </g>
    <g id="shape1" transform="matrix(1.0, 0.0, 0.0, 1.0, 0.0, 0.0)">
      <path d="M0.0 0.0 L1.7 0.0 1.7 11.3 4.55 11.3 4.55 12.8 0.0 12.8 0.0 0.0 M10.15 0.0 L10.15 1.45 8.25 1.45 8.25 12.8 6.55 12.8 6.55 1.45 4.55 1.45 4.55 0.0 10.15 0.0" fill="#000000" fill-opacity="0.0" fill-rule="evenodd" stroke="none"/>
    </g>
    <g id="shape2" transform="matrix(1.0, 0.0, 0.0, 1.0, 0.0, 0.0)">
      <path d="M4.0 3.0 Q3.9 3.0 3.8 3.0 3.7 3.05 3.6 3.1 3.5 3.1 3.45 3.15 3.35 3.2 3.3 3.3 3.2 3.35 3.15 3.45 3.1 3.5 3.1 3.6 3.05 3.7 3.0 3.8 3.0 3.9 3.0 4.0 L3.0 16.0 3.0 16.5 Q3.0 17.25 3.2 18.0 3.4 18.75 3.8 19.4 4.15 20.1 4.7 20.7 5.25 21.3 5.95 21.8 6.6 22.3 7.4 22.7 8.2 23.15 9.1 23.4 10.0 23.7 11.0 23.85 12.0 24.0 13.0 24.0 14.0 24.0 15.0 23.85 16.0 23.7 16.9 23.4 17.8 23.15 18.6 22.7 19.4 22.3 20.05 21.8 20.75 21.3 21.3 20.7 21.85 20.1 22.2 19.4 22.6 18.75 22.8 18.0 23.0 17.25 23.0 16.5 L23.0 16.0 23.0 4.0 Q23.0 3.9 23.0 3.8 22.95 3.7 22.9 3.6 22.9 3.5 22.85 3.45 22.8 3.35 22.7 3.3 22.65 3.2 22.55 3.15 22.5 3.1 22.4 3.1 22.3 3.05 22.2 3.0 22.1 3.0 22.0 3.0 L4.0 3.0 4.0 3.0 M15.75 8.4 Q15.9 8.4 16.05 8.4 16.2 8.4 16.35 8.45 16.5 8.45 16.65 8.5 16.8 8.55 16.9 8.55 17.05 8.6 17.15 8.65 17.25 8.7 17.4 8.8 17.5 8.85 17.6 8.9 17.7 9.0 17.8 9.05 17.9 9.15 17.95 9.25 18.05 9.3 18.1 9.4 18.2 9.5 18.25 9.65 18.3 9.75 18.35 9.85 18.4 9.95 18.45 10.1 18.45 10.2 18.5 10.35 18.5 10.5 18.5 10.6 18.55 10.75 18.55 10.9 18.55 11.0 18.55 11.1 18.55 11.2 18.5 11.35 18.5 11.45 18.45 11.55 18.45 11.65 18.4 11.75 18.4 11.9 18.35 12.0 18.3 12.1 18.25 12.2 18.2 12.3 18.15 12.45 18.1 12.55 18.05 12.65 18.0 12.75 17.9 12.9 17.85 13.0 17.75 13.15 17.65 13.25 17.55 13.4 17.45 13.55 17.35 13.7 17.25 13.85 17.1 14.0 17.0 14.15 16.85 14.3 16.7 14.45 16.55 14.6 16.4 14.8 16.25 14.95 L14.85 16.5 18.25 16.5 18.25 17.5 12.85 17.5 14.75 15.25 Q14.85 15.1 15.3 14.6 15.55 14.25 15.8 13.95 16.05 13.65 16.25 13.4 16.45 13.1 16.6 12.85 16.8 12.6 16.95 12.4 17.05 12.15 17.15 11.95 17.25 11.75 17.35 11.6 17.4 11.4 17.45 11.25 17.45 11.1 17.45 10.95 17.45 10.85 17.45 10.8 17.45 10.7 17.45 10.65 17.4 10.55 17.4 10.5 17.4 10.4 17.35 10.35 17.3 10.25 17.3 10.2 17.25 10.15 17.2 10.05 17.15 10.0 17.1 9.95 17.05 9.9 17.0 9.85 16.95 9.8 16.85 9.75 16.8 9.7 16.75 9.65 16.65 9.6 16.6 9.55 16.5 9.55 16.4 9.5 16.35 9.5 16.25 9.45 16.15 9.45 16.1 9.4 16.0 9.4 15.9 9.4 15.8 9.4 15.7 9.4 15.6 9.4 15.5 9.4 15.4 9.4 15.3 9.4 15.2 9.45 15.1 9.45 15.05 9.5 14.95 9.5 14.85 9.55 14.8 9.6 14.7 9.6 14.65 9.65 14.6 9.7 14.5 9.75 14.45 9.8 14.4 9.85 14.35 9.9 14.3 10.0 14.25 10.05 14.2 10.15 14.15 10.2 14.1 10.3 14.1 10.35 14.05 10.45 14.05 10.55 14.0 10.65 14.0 10.7 13.95 10.8 13.95 10.9 13.95 11.0 13.95 11.15 13.95 11.25 L13.95 11.35 12.95 11.35 Q12.95 11.3 12.95 11.2 12.9 11.15 12.9 11.1 12.9 10.95 12.9 10.8 12.95 10.65 12.95 10.5 13.0 10.35 13.0 10.25 13.05 10.1 13.1 9.95 13.15 9.85 13.2 9.75 13.25 9.6 13.35 9.5 13.4 9.4 13.5 9.3 13.55 9.2 13.65 9.1 13.75 9.0 13.85 8.95 13.95 8.85 14.05 8.8 14.2 8.75 14.3 8.7 14.4 8.65 14.55 8.6 14.7 8.55 14.8 8.5 14.95 8.45 15.1 8.45 15.25 8.45 15.4 8.4 15.6 8.4 15.75 8.4 L15.75 8.4 M7.45 8.5 L8.55 8.5 8.55 16.5 11.95 16.5 11.95 17.5 7.45 17.5 7.45 8.5 7.45 8.5" fill="#ffffff" fill-rule="evenodd" stroke="none"/>
    </g>
  </defs>
</svg>
