<?xml version="1.0" encoding="UTF-8" standalone="no"?>
<svg xmlns:ffdec="https://www.free-decompiler.com/flash" xmlns:xlink="http://www.w3.org/1999/xlink" ffdec:objectType="frame" height="26.05px" width="52.95px" xmlns="http://www.w3.org/2000/svg">
  <g transform="matrix(1.0, 0.0, 0.0, 1.0, 0.0, 0.0)">
    <use ffdec:characterId="27" height="26.0" transform="matrix(1.0, 0.0, 0.0, 1.0, 0.0, 0.0)" width="41.75" xlink:href="#shape0"/>
    <use ffdec:characterId="140" height="14.25" transform="matrix(1.0, 0.0, 0.0, 1.0, 6.05, 6.5)" width="31.25" xlink:href="#shape1"/>
    <use ffdec:characterId="282" height="26.0" transform="matrix(1.0, 0.0, 0.0, 1.0, 0.0, 0.0)" width="52.95" xlink:href="#shape2"/>
  </g>
  <defs>
    <g id="shape0" transform="matrix(1.0, 0.0, 0.0, 1.0, 0.0, 0.0)">
      <path d="M41.75 19.4 Q41.75 22.15 39.8 24.05 37.9 26.0 35.15 26.0 L6.55 26.0 Q3.9 26.0 1.95 24.05 0.0 22.15 0.0 19.4 L0.0 6.6 Q0.0 3.9 1.95 1.95 3.9 0.0 6.55 0.0 L35.15 0.0 Q37.9 0.0 39.8 1.95 41.75 3.9 41.75 6.6 L41.75 19.4 M40.45 6.6 Q40.45 4.4 38.9 2.8 37.3 1.3 35.15 1.3 L6.55 1.3 Q4.4 1.3 2.8 2.8 1.3 4.4 1.3 6.6 L1.3 19.4 Q1.3 21.55 2.8 23.15 4.4 24.7 6.55 24.7 L35.15 24.7 Q37.3 24.7 38.9 23.15 40.45 21.55 40.45 19.4 L40.45 6.6" fill="#000000" fill-opacity="0.0" fill-rule="evenodd" stroke="none"/>
      <path d="M35.15 2.9 L6.55 2.9 Q5.1 2.9 3.95 4.0 2.9 5.1 2.9 6.6 L2.9 19.4 Q2.9 20.9 3.95 22.0 5.1 23.05 6.55 23.05 L35.15 23.05 Q36.65 23.05 37.7 22.0 38.8 20.9 38.8 19.4 L38.8 6.6 Q38.8 5.1 37.75 4.0 36.65 2.9 35.15 2.9 M38.9 2.8 Q40.45 4.4 40.45 6.6 L40.45 19.4 Q40.45 21.55 38.9 23.15 37.3 24.7 35.15 24.7 L6.55 24.7 Q4.4 24.7 2.8 23.15 1.3 21.55 1.3 19.4 L1.3 6.6 Q1.3 4.4 2.8 2.8 4.4 1.3 6.55 1.3 L35.15 1.3 Q37.3 1.3 38.9 2.8" fill="#a6a8ab" fill-opacity="0.0" fill-rule="evenodd" stroke="none"/>
      <path d="M38.85 6.6 L38.85 19.4 Q38.85 20.9 37.7 22.0 36.65 23.1 35.15 23.1 L6.6 23.1 Q5.1 23.1 4.0 22.0 2.9 20.9 2.9 19.4 L2.9 6.6 Q2.9 5.1 4.0 4.0 5.1 2.95 6.6 2.95 L35.15 2.95 Q36.65 2.95 37.75 4.0 38.85 5.1 38.85 6.6" fill="#000000" fill-opacity="0.0" fill-rule="evenodd" stroke="none"/>
    </g>
    <g id="shape1" transform="matrix(1.0, 0.0, 0.0, 1.0, 0.0, 0.0)">
      <path d="M8.35 1.3 L10.0 1.3 7.75 14.1 6.4 14.1 5.0 4.6 3.6 14.1 2.2 14.1 0.0 1.3 1.65 1.3 2.85 9.95 2.9 10.9 2.95 10.9 4.35 1.3 5.7 1.3 7.05 10.85 7.1 10.85 8.35 1.3 M12.7 6.0 L13.05 5.7 13.55 5.45 14.1 5.4 Q14.95 5.4 15.35 5.8 L15.8 6.9 15.85 8.2 15.85 14.1 14.25 14.1 14.25 8.15 14.2 7.55 13.95 7.0 13.3 6.8 Q12.8 6.8 12.6 7.15 12.4 7.45 12.35 7.9 L12.35 8.75 12.35 14.1 10.75 14.1 10.75 0.0 12.35 0.0 12.35 6.5 12.4 6.5 12.7 6.0 M29.65 0.0 L31.25 0.0 31.25 14.1 29.65 14.1 29.65 0.0 M21.85 6.95 L22.2 8.4 22.25 9.85 22.25 10.1 18.75 10.1 18.75 10.85 18.85 11.75 19.15 12.5 Q19.35 12.8 19.75 12.8 L20.35 12.55 20.65 11.95 20.75 11.2 22.2 11.2 21.95 12.7 21.15 13.8 Q20.6 14.2 19.7 14.25 18.8 14.2 18.3 13.8 L17.5 12.75 17.15 11.3 17.1 9.85 17.15 8.45 Q17.25 7.65 17.5 6.95 17.75 6.25 18.25 5.85 18.8 5.4 19.65 5.4 20.55 5.4 21.05 5.85 L21.85 6.95 M20.6 8.35 L20.5 7.65 20.2 7.05 19.65 6.8 Q19.3 6.8 19.1 7.05 L18.8 7.65 18.75 8.35 18.75 9.0 20.65 9.0 20.6 8.35 M24.95 7.65 L24.9 8.35 24.9 9.0 26.8 9.0 26.75 8.35 26.65 7.65 26.35 7.05 Q26.15 6.8 25.8 6.8 25.45 6.8 25.25 7.05 L24.95 7.65 M25.8 5.4 Q26.7 5.4 27.2 5.85 27.7 6.25 28.0 6.95 L28.35 8.4 28.4 9.85 28.4 10.1 24.9 10.1 24.9 10.85 25.0 11.75 25.3 12.5 Q25.5 12.8 25.9 12.8 L26.5 12.55 26.8 11.95 26.9 11.2 28.35 11.2 28.1 12.7 27.3 13.8 Q26.75 14.2 25.85 14.25 24.95 14.2 24.45 13.8 23.9 13.4 23.65 12.75 L23.3 11.3 23.25 9.85 23.3 8.45 Q23.4 7.65 23.65 6.95 23.9 6.25 24.4 5.85 24.95 5.4 25.8 5.4" fill="#000000" fill-opacity="0.0" fill-rule="evenodd" stroke="none"/>
    </g>
    <g id="shape2" transform="matrix(1.0, 0.0, 0.0, 1.0, 0.0, 0.0)">
      <path d="M4.0 3.0 Q3.9 3.0 3.8 3.0 3.7 3.05 3.6 3.1 3.5 3.1 3.45 3.15 3.35 3.2 3.3 3.3 3.2 3.35 3.15 3.45 3.1 3.5 3.1 3.6 3.05 3.7 3.0 3.8 3.0 3.9 3.0 4.0 L3.0 22.0 Q3.0 22.1 3.0 22.2 3.05 22.3 3.1 22.4 3.1 22.5 3.15 22.55 3.2 22.65 3.3 22.7 3.35 22.8 3.45 22.85 3.5 22.9 3.6 22.9 3.7 22.95 3.8 23.0 3.9 23.0 4.0 23.0 L48.95 23.0 Q49.05 23.0 49.15 23.0 49.25 22.95 49.35 22.9 49.45 22.9 49.5 22.85 49.6 22.8 49.65 22.7 49.7 22.65 49.8 22.55 49.85 22.5 49.85 22.4 49.9 22.3 49.95 22.2 49.95 22.1 49.95 22.0 L49.95 4.0 Q49.95 3.9 49.95 3.8 49.9 3.7 49.85 3.6 49.85 3.5 49.8 3.45 49.7 3.35 49.65 3.3 49.6 3.2 49.5 3.15 49.45 3.1 49.35 3.1 49.25 3.05 49.15 3.0 49.05 3.0 48.95 3.0 L4.0 3.0 M22.25 7.95 L23.2 7.95 23.2 12.75 Q23.25 12.7 23.3 12.6 23.35 12.55 23.4 12.5 23.45 12.45 23.5 12.4 23.55 12.3 23.6 12.25 23.65 12.2 23.7 12.15 23.75 12.15 23.85 12.1 23.9 12.05 23.95 12.0 24.0 11.95 24.05 11.95 24.1 11.9 24.2 11.9 24.25 11.85 24.35 11.85 24.4 11.8 24.45 11.8 24.55 11.75 24.6 11.75 24.7 11.7 24.75 11.7 24.85 11.7 24.95 11.7 25.0 11.7 25.1 11.7 25.15 11.65 25.25 11.65 25.4 11.65 25.5 11.65 25.6 11.7 25.7 11.7 25.85 11.7 25.95 11.75 26.05 11.75 26.15 11.8 26.25 11.85 26.35 11.9 26.4 11.9 26.5 11.95 26.6 12.0 26.65 12.1 26.75 12.15 26.8 12.2 26.85 12.25 26.95 12.35 27.0 12.4 27.05 12.5 27.1 12.55 27.15 12.65 27.2 12.75 27.25 12.85 27.25 12.9 27.3 13.0 27.3 13.1 27.35 13.25 27.35 13.35 27.35 13.45 27.35 13.55 27.35 13.65 L27.35 17.5 26.4 17.5 26.4 14.2 Q26.4 14.1 26.4 14.0 26.4 13.9 26.35 13.8 26.35 13.7 26.35 13.6 26.3 13.5 26.3 13.45 26.25 13.35 26.25 13.3 26.2 13.2 26.2 13.15 26.15 13.1 26.1 13.05 26.05 12.95 26.0 12.9 25.95 12.85 25.9 12.8 25.85 12.75 25.8 12.75 25.75 12.7 25.7 12.65 25.65 12.65 25.55 12.6 25.5 12.6 25.4 12.55 25.35 12.55 25.25 12.55 25.2 12.5 25.1 12.5 25.0 12.5 24.9 12.5 24.85 12.5 24.8 12.5 24.75 12.5 24.7 12.5 24.65 12.5 24.6 12.5 24.55 12.55 24.5 12.55 24.45 12.55 24.4 12.55 24.35 12.6 24.3 12.6 24.25 12.6 24.2 12.6 24.15 12.65 24.15 12.65 24.1 12.65 24.05 12.7 24.0 12.7 23.95 12.75 23.95 12.75 23.9 12.8 23.85 12.8 23.8 12.85 23.75 12.9 23.75 12.9 23.7 12.95 23.65 12.95 23.65 13.0 23.6 13.05 23.55 13.05 23.55 13.1 23.55 13.15 23.5 13.15 23.5 13.2 23.45 13.2 23.45 13.25 23.45 13.3 23.4 13.3 23.4 13.35 23.4 13.35 23.35 13.4 23.35 13.45 23.35 13.45 23.3 13.5 23.3 13.55 23.3 13.55 23.3 13.6 23.3 13.65 23.3 13.7 23.25 13.7 23.25 13.75 23.25 13.8 23.25 13.9 23.25 13.95 23.25 14.0 23.25 14.05 23.2 14.1 23.2 14.2 23.2 14.25 23.2 14.35 23.2 14.4 23.2 14.5 23.2 14.6 L23.2 17.5 22.25 17.5 22.25 7.95 M42.25 7.95 L43.25 7.95 43.25 17.5 42.25 17.5 42.25 7.95 M15.5 8.15 L17.9 15.1 20.2 8.5 21.35 8.5 17.9 17.85 15.5 10.9 13.2 17.85 9.7 8.5 10.85 8.5 13.15 15.1 15.5 8.15 M31.6 11.65 Q31.75 11.65 31.9 11.65 32.05 11.7 32.2 11.7 32.35 11.75 32.45 11.75 32.6 11.8 32.7 11.85 32.85 11.9 32.95 11.95 33.05 12.05 33.15 12.1 33.3 12.2 33.4 12.25 33.5 12.35 33.55 12.45 33.65 12.55 33.75 12.65 33.8 12.75 33.9 12.9 33.95 13.0 34.0 13.15 34.05 13.25 34.1 13.4 34.15 13.55 34.2 13.7 34.25 13.85 34.25 14.0 34.25 14.15 34.3 14.3 34.3 14.45 34.3 14.65 L34.3 14.85 29.85 14.85 29.85 14.9 Q29.85 15.0 29.85 15.15 29.85 15.25 29.9 15.35 29.9 15.45 29.9 15.55 29.95 15.65 29.95 15.75 30.0 15.85 30.05 15.9 30.1 16.0 30.15 16.1 30.2 16.15 30.25 16.25 30.3 16.3 30.35 16.4 30.4 16.45 30.5 16.5 30.55 16.6 30.65 16.65 30.7 16.7 30.8 16.7 30.85 16.75 30.95 16.8 31.05 16.85 31.1 16.85 31.2 16.9 31.3 16.9 31.4 16.9 31.5 16.95 31.6 16.95 31.7 16.95 31.75 16.95 31.85 16.95 31.9 16.95 32.0 16.9 32.05 16.9 32.1 16.9 32.2 16.9 32.25 16.85 32.3 16.85 32.35 16.8 32.45 16.8 32.5 16.75 32.55 16.75 32.6 16.7 32.65 16.65 32.7 16.65 32.75 16.6 32.8 16.55 32.9 16.5 32.95 16.45 33.0 16.4 33.05 16.35 33.1 16.3 33.15 16.25 33.2 16.2 33.25 16.15 33.3 16.05 33.35 16.0 33.4 15.95 33.45 15.85 33.5 15.8 33.55 15.7 L34.25 16.2 Q34.2 16.3 34.15 16.4 34.1 16.5 34.05 16.55 33.95 16.65 33.9 16.7 33.85 16.8 33.8 16.85 33.7 16.95 33.65 17.0 33.55 17.05 33.5 17.15 33.4 17.2 33.35 17.25 33.25 17.3 33.2 17.35 33.1 17.4 33.05 17.45 32.95 17.5 32.85 17.5 32.75 17.55 32.65 17.6 32.55 17.6 32.45 17.65 32.4 17.65 32.3 17.7 32.2 17.7 32.1 17.7 31.95 17.75 31.85 17.75 31.75 17.75 31.65 17.75 31.5 17.75 31.35 17.75 31.2 17.7 31.05 17.7 30.9 17.65 30.75 17.6 30.6 17.6 30.5 17.55 30.35 17.5 30.25 17.4 30.1 17.35 30.0 17.25 29.9 17.2 29.8 17.1 29.7 17.0 29.6 16.9 29.5 16.8 29.4 16.7 29.3 16.55 29.25 16.45 29.15 16.3 29.1 16.2 29.05 16.05 29.0 15.9 28.95 15.75 28.9 15.6 28.85 15.5 28.85 15.3 28.8 15.15 28.8 15.0 28.8 14.85 28.8 14.65 28.8 14.5 28.8 14.35 28.8 14.2 28.85 14.05 28.85 13.9 28.9 13.75 28.95 13.6 29.0 13.45 29.05 13.35 29.1 13.2 29.15 13.05 29.25 12.95 29.3 12.85 29.4 12.7 29.45 12.6 29.55 12.5 29.65 12.4 29.75 12.3 29.85 12.2 30.0 12.15 30.1 12.05 30.2 12.0 30.35 11.9 30.45 11.85 30.6 11.8 30.75 11.8 30.85 11.75 31.0 11.7 31.15 11.7 31.3 11.65 31.45 11.65 31.6 11.65 L31.6 11.65 M38.05 11.65 Q38.2 11.65 38.35 11.65 38.5 11.7 38.65 11.7 38.8 11.75 38.9 11.75 39.05 11.8 39.2 11.85 39.3 11.9 39.4 11.95 39.55 12.05 39.65 12.1 39.75 12.2 39.85 12.25 39.95 12.35 40.05 12.45 40.15 12.55 40.2 12.65 40.3 12.75 40.35 12.9 40.45 13.0 40.5 13.15 40.55 13.25 40.6 13.4 40.65 13.55 40.65 13.7 40.7 13.85 40.75 14.0 40.75 14.15 40.75 14.3 40.75 14.45 40.75 14.65 L40.75 14.85 36.3 14.85 36.3 14.9 Q36.3 15.0 36.3 15.15 36.3 15.25 36.35 15.35 36.35 15.45 36.4 15.55 36.4 15.65 36.45 15.75 36.45 15.85 36.5 15.9 36.55 16.0 36.6 16.1 36.65 16.15 36.7 16.25 36.75 16.3 36.85 16.4 36.9 16.45 37.0 16.5 37.05 16.6 37.1 16.65 37.2 16.7 37.25 16.7 37.35 16.75 37.45 16.8 37.5 16.85 37.6 16.85 37.7 16.9 37.8 16.9 37.9 16.9 38.0 16.95 38.05 16.95 38.2 16.95 38.25 16.95 38.35 16.95 38.4 16.95 38.45 16.9 38.55 16.9 38.6 16.9 38.65 16.9 38.7 16.85 38.8 16.85 38.85 16.8 38.9 16.8 38.95 16.75 39.0 16.75 39.1 16.7 39.15 16.65 39.2 16.65 39.25 16.6 39.3 16.55 39.35 16.5 39.4 16.45 39.45 16.4 39.5 16.35 39.6 16.3 39.65 16.25 39.7 16.2 39.7 16.15 39.75 16.05 39.8 16.0 39.85 15.95 39.9 15.85 39.95 15.8 40.0 15.7 L40.75 16.2 Q40.7 16.3 40.65 16.4 40.6 16.5 40.5 16.55 40.45 16.65 40.4 16.7 40.3 16.8 40.25 16.85 40.2 16.95 40.1 17.0 40.05 17.05 39.95 17.15 39.9 17.2 39.8 17.25 39.75 17.3 39.65 17.35 39.55 17.4 39.5 17.45 39.4 17.5 39.3 17.5 39.2 17.55 39.15 17.6 39.05 17.6 38.95 17.65 38.85 17.65 38.75 17.7 38.65 17.7 38.55 17.7 38.45 17.75 38.35 17.75 38.25 17.75 38.15 17.75 38.0 17.75 37.85 17.75 37.65 17.7 37.55 17.7 37.4 17.65 37.25 17.6 37.1 17.6 36.95 17.55 36.85 17.5 36.7 17.4 36.6 17.35 36.5 17.25 36.35 17.2 36.25 17.1 36.15 17.0 36.05 16.9 35.95 16.8 35.85 16.7 35.8 16.55 35.7 16.45 35.65 16.3 35.55 16.2 35.5 16.05 35.45 15.9 35.4 15.75 35.35 15.6 35.35 15.5 35.3 15.3 35.3 15.15 35.25 15.0 35.25 14.85 35.25 14.65 35.25 14.5 35.25 14.35 35.3 14.2 35.3 14.05 35.35 13.9 35.35 13.75 35.4 13.6 35.45 13.45 35.5 13.35 35.55 13.2 35.6 13.05 35.7 12.95 35.75 12.85 35.85 12.7 35.95 12.6 36.05 12.5 36.15 12.4 36.25 12.3 36.35 12.2 36.45 12.15 36.6 12.05 36.7 12.0 36.8 11.9 36.95 11.85 37.05 11.8 37.2 11.8 37.35 11.75 37.5 11.7 37.6 11.7 37.75 11.65 37.9 11.65 38.05 11.65 L38.05 11.65 M31.55 12.5 Q31.45 12.5 31.4 12.5 31.3 12.5 31.2 12.55 31.15 12.55 31.05 12.55 31.0 12.6 30.9 12.6 30.85 12.65 30.75 12.65 30.7 12.7 30.65 12.75 30.55 12.8 30.5 12.85 30.45 12.85 30.4 12.95 30.35 13.0 30.3 13.05 30.25 13.1 30.2 13.15 30.15 13.2 30.1 13.3 30.05 13.35 30.0 13.4 30.0 13.5 29.95 13.55 29.9 13.65 29.9 13.7 29.9 13.8 29.85 13.9 29.85 13.95 29.85 14.05 L33.25 14.05 Q33.25 13.95 33.25 13.85 33.25 13.8 33.2 13.7 33.2 13.6 33.15 13.55 33.15 13.45 33.1 13.4 33.1 13.3 33.05 13.25 33.0 13.2 32.95 13.15 32.9 13.05 32.85 13.0 32.8 12.95 32.75 12.9 32.7 12.85 32.65 12.8 32.6 12.75 32.5 12.75 32.45 12.7 32.4 12.65 32.3 12.65 32.25 12.6 32.15 12.6 32.1 12.55 32.0 12.55 31.9 12.55 31.85 12.5 31.75 12.5 31.65 12.5 31.55 12.5 L31.55 12.5 M38.0 12.5 Q37.9 12.5 37.85 12.5 37.75 12.5 37.7 12.55 37.6 12.55 37.5 12.55 37.45 12.6 37.4 12.6 37.3 12.65 37.25 12.65 37.15 12.7 37.1 12.75 37.05 12.8 37.0 12.85 36.9 12.85 36.85 12.95 36.8 13.0 36.75 13.05 36.7 13.1 36.65 13.15 36.6 13.2 36.55 13.3 36.5 13.35 36.5 13.4 36.45 13.5 36.4 13.55 36.4 13.65 36.4 13.7 36.35 13.8 36.35 13.9 36.3 13.95 36.3 14.05 L39.75 14.05 Q39.75 13.95 39.75 13.85 39.7 13.8 39.7 13.7 39.65 13.6 39.65 13.55 39.6 13.45 39.6 13.4 39.55 13.3 39.5 13.25 39.5 13.2 39.45 13.15 39.4 13.05 39.35 13.0 39.3 12.95 39.25 12.9 39.2 12.85 39.15 12.8 39.05 12.75 39.0 12.75 38.95 12.7 38.85 12.65 38.8 12.65 38.7 12.6 38.65 12.6 38.55 12.55 38.5 12.55 38.4 12.55 38.3 12.5 38.2 12.5 38.1 12.5 38.0 12.5 L38.0 12.5" fill="#ffffff" fill-rule="evenodd" stroke="none"/>
    </g>
  </defs>
</svg>
