<?xml version="1.0" encoding="UTF-8" standalone="no"?>
<svg xmlns:ffdec="https://www.free-decompiler.com/flash" xmlns:xlink="http://www.w3.org/1999/xlink" ffdec:objectType="frame" height="26.05px" width="52.95px" xmlns="http://www.w3.org/2000/svg">
  <g transform="matrix(1.0, 0.0, 0.0, 1.0, 0.0, 0.0)">
    <use ffdec:characterId="3" height="26.0" transform="matrix(1.0, 0.0, 0.0, 1.0, 0.0, 0.0)" width="26.0" xlink:href="#shape0"/>
    <use ffdec:characterId="6" height="8.0" transform="matrix(0.9085, 0.0, 0.0, 0.9085, 5.85, 5.6)" width="7.65" xlink:href="#shape1"/>
    <use ffdec:characterId="6" height="8.0" transform="matrix(0.9085, 0.0, 0.0, 0.9085, 5.05, 5.0)" width="7.65" xlink:href="#shape1"/>
    <use ffdec:characterId="7" height="12.95" transform="matrix(1.0, 0.0, 0.0, 1.0, 14.45, 8.25)" width="5.75" xlink:href="#shape2"/>
    <use ffdec:characterId="156" height="26.0" transform="matrix(1.0, 0.0, 0.0, 1.0, 0.0, 0.0)" width="26.0" xlink:href="#shape3"/>
  </g>
  <defs>
    <g id="shape0" transform="matrix(1.0, 0.0, 0.0, 1.0, 0.0, 0.0)">
      <path d="M22.0 4.0 Q23.05 5.1 23.05 6.6 L23.05 19.4 Q23.05 20.85 22.0 22.0 20.85 23.05 19.4 23.05 L6.6 23.05 Q5.1 23.05 4.0 22.0 2.95 20.9 2.95 19.4 L2.95 6.6 Q2.95 5.1 4.0 4.0 5.1 2.9 6.6 2.9 L19.4 2.9 Q20.9 2.9 22.0 4.0 M26.0 6.6 L26.0 19.4 Q26.0 22.15 24.05 24.05 L23.95 24.15 Q22.1 26.0 19.4 26.0 L6.6 26.0 Q3.9 26.0 1.95 24.05 0.0 22.15 0.0 19.4 L0.0 6.6 Q0.0 3.9 1.95 1.95 3.9 0.0 6.6 0.0 L19.4 0.0 Q22.1 0.0 23.95 1.85 L24.05 1.95 Q26.0 3.9 26.0 6.6 M23.95 3.85 L23.15 2.8 Q21.55 1.3 19.4 1.3 L6.6 1.3 Q4.4 1.3 2.8 2.8 1.3 4.4 1.3 6.6 L1.3 19.4 Q1.3 21.55 2.8 23.15 4.4 24.7 6.6 24.7 L19.4 24.7 Q21.55 24.7 23.15 23.15 L23.95 22.15 Q24.7 20.9 24.7 19.4 L24.7 6.6 Q24.7 5.05 23.95 3.85" fill="#000000" fill-opacity="0.0" fill-rule="evenodd" stroke="none"/>
      <path d="M22.0 4.0 Q20.9 2.9 19.4 2.9 L6.6 2.9 Q5.1 2.9 4.0 4.0 2.95 5.1 2.95 6.6 L2.95 19.4 Q2.95 20.9 4.0 22.0 5.1 23.05 6.6 23.05 L19.4 23.05 Q20.85 23.05 22.0 22.0 23.05 20.85 23.05 19.4 L23.05 6.6 Q23.05 5.1 22.0 4.0 M23.95 3.85 Q24.7 5.05 24.7 6.6 L24.7 19.4 Q24.7 20.9 23.95 22.15 L23.15 23.15 Q21.55 24.7 19.4 24.7 L6.6 24.7 Q4.4 24.7 2.8 23.15 1.3 21.55 1.3 19.4 L1.3 6.6 Q1.3 4.4 2.8 2.8 4.4 1.3 6.6 1.3 L19.4 1.3 Q21.55 1.3 23.15 2.8 L23.95 3.85" fill="#a6a8ab" fill-opacity="0.0" fill-rule="evenodd" stroke="none"/>
    </g>
    <g id="shape1" transform="matrix(1.0, 0.0, 0.0, 1.0, 0.0, 0.0)">
      <path d="M4.75 3.8 L4.85 3.0 4.7 2.5 4.15 2.3 Q3.75 2.3 3.4 2.55 L2.85 3.15 2.5 4.0 2.4 4.8 2.55 5.45 3.15 5.7 3.85 5.4 4.4 4.7 4.75 3.8 M6.55 0.95 L7.35 2.0 7.65 3.35 7.45 4.35 6.95 5.35 6.15 6.1 5.15 6.4 4.6 6.3 4.25 5.85 3.65 6.25 3.0 6.4 2.25 6.15 1.7 5.6 1.55 4.8 1.7 3.7 2.25 2.7 Q2.6 2.25 3.05 1.95 L4.15 1.6 4.85 1.8 5.3 2.3 5.45 1.85 6.2 1.85 5.1 5.0 5.05 5.3 5.0 5.55 5.05 5.8 5.3 5.85 5.85 5.7 6.35 5.2 6.8 4.4 7.0 3.3 Q7.0 2.45 6.55 1.85 6.15 1.3 5.45 1.0 4.8 0.65 4.0 0.65 3.0 0.7 2.25 1.15 1.55 1.55 1.1 2.35 0.7 3.1 0.65 4.05 0.7 5.0 1.1 5.75 1.55 6.45 2.3 6.95 3.05 7.35 4.0 7.35 L5.05 7.2 6.05 6.8 6.75 6.0 7.45 6.0 6.55 7.1 Q6.0 7.55 5.35 7.8 L4.0 8.0 2.4 7.7 Q1.7 7.4 1.15 6.8 L0.3 5.55 Q0.0 4.8 0.0 4.0 0.0 3.15 0.3 2.45 L1.15 1.15 2.45 0.3 4.0 0.0 5.4 0.25 Q6.05 0.5 6.55 0.95" fill="#000000" fill-opacity="0.0" fill-rule="evenodd" stroke="none"/>
    </g>
    <g id="shape2" transform="matrix(1.0, 0.0, 0.0, 1.0, 0.0, 0.0)">
      <path d="M3.9 2.35 L3.55 1.75 Q3.3 1.5 2.85 1.5 2.45 1.5 2.2 1.8 2.0 2.1 1.95 2.55 L1.85 3.35 1.9 3.95 1.9 4.3 0.15 4.3 0.15 3.85 Q0.15 2.8 0.3 1.95 0.5 1.05 1.05 0.5 1.65 0.0 2.9 0.0 4.45 0.0 5.1 0.8 5.75 1.65 5.75 3.15 5.75 4.1 5.35 5.25 L4.5 7.45 3.55 9.4 2.45 11.45 5.65 11.45 5.65 12.95 0.0 12.95 3.1 6.35 3.7 4.75 4.0 3.05 3.9 2.35" fill="#000000" fill-opacity="0.0" fill-rule="evenodd" stroke="none"/>
    </g>
    <g id="shape3" transform="matrix(1.0, 0.0, 0.0, 1.0, 0.0, 0.0)">
      <path d="M4.0 3.0 Q3.9 3.0 3.8 3.0 3.7 3.05 3.6 3.1 3.5 3.1 3.45 3.15 3.35 3.2 3.3 3.3 3.2 3.35 3.15 3.45 3.1 3.5 3.1 3.6 3.05 3.7 3.0 3.8 3.0 3.9 3.0 4.0 L3.0 22.0 Q3.0 22.1 3.0 22.2 3.05 22.3 3.1 22.4 3.1 22.5 3.15 22.55 3.2 22.65 3.3 22.7 3.35 22.8 3.45 22.85 3.5 22.9 3.6 22.9 3.7 22.95 3.8 23.0 3.9 23.0 4.0 23.0 L22.0 23.0 Q22.1 23.0 22.2 23.0 22.3 22.95 22.4 22.9 22.5 22.9 22.55 22.85 22.65 22.8 22.7 22.7 22.8 22.65 22.85 22.55 22.9 22.5 22.9 22.4 22.95 22.3 23.0 22.2 23.0 22.1 23.0 22.0 L23.0 4.0 Q23.0 3.9 23.0 3.8 22.95 3.7 22.9 3.6 22.9 3.5 22.85 3.45 22.8 3.35 22.7 3.3 22.65 3.2 22.55 3.15 22.5 3.1 22.4 3.1 22.3 3.05 22.2 3.0 22.1 3.0 22.0 3.0 L4.0 3.0 4.0 3.0 M13.05 8.4 Q13.2 8.4 13.35 8.4 13.55 8.4 13.65 8.45 13.8 8.45 13.95 8.5 14.1 8.55 14.2 8.55 14.35 8.6 14.45 8.65 14.6 8.7 14.7 8.8 14.8 8.85 14.9 8.9 15.0 9.0 15.1 9.05 15.2 9.15 15.3 9.25 15.35 9.3 15.45 9.4 15.5 9.5 15.55 9.65 15.6 9.75 15.65 9.85 15.7 9.95 15.75 10.1 15.8 10.2 15.8 10.35 15.85 10.5 15.85 10.6 15.85 10.75 15.85 10.9 15.85 11.0 15.85 11.1 15.85 11.2 15.8 11.35 15.8 11.45 15.8 11.55 15.75 11.65 15.7 11.75 15.7 11.9 15.65 12.0 15.6 12.1 15.55 12.2 15.5 12.3 15.45 12.45 15.4 12.55 15.35 12.65 15.3 12.75 15.2 12.9 15.15 13.0 15.05 13.15 14.95 13.25 14.85 13.4 14.75 13.55 14.65 13.7 14.55 13.85 14.4 14.0 14.3 14.15 14.15 14.3 14.05 14.45 13.9 14.6 13.75 14.8 13.55 14.95 L12.15 16.5 15.55 16.5 15.55 17.5 10.15 17.5 12.05 15.25 Q12.15 15.15 12.6 14.6 12.85 14.25 13.1 13.95 13.35 13.65 13.55 13.4 13.75 13.1 13.95 12.85 14.1 12.6 14.25 12.4 14.4 12.15 14.5 11.95 14.6 11.75 14.65 11.6 14.7 11.4 14.75 11.25 14.8 11.1 14.8 10.95 14.8 10.85 14.8 10.8 14.8 10.7 14.75 10.65 14.75 10.55 14.75 10.5 14.7 10.4 14.65 10.35 14.65 10.25 14.6 10.2 14.55 10.15 14.5 10.05 14.45 10.0 14.4 9.95 14.35 9.9 14.3 9.85 14.25 9.8 14.15 9.75 14.1 9.7 14.05 9.65 13.95 9.6 13.9 9.55 13.8 9.55 13.75 9.5 13.65 9.5 13.55 9.45 13.5 9.45 13.4 9.4 13.3 9.4 13.2 9.4 13.1 9.4 13.0 9.4 12.9 9.4 12.8 9.4 12.7 9.4 12.6 9.4 12.5 9.45 12.45 9.45 12.35 9.5 12.25 9.5 12.2 9.55 12.1 9.6 12.05 9.6 11.95 9.65 11.9 9.7 11.85 9.75 11.75 9.8 11.7 9.85 11.65 9.9 11.6 10.0 11.55 10.05 11.5 10.15 11.45 10.2 11.45 10.3 11.4 10.35 11.35 10.45 11.35 10.55 11.3 10.65 11.3 10.7 11.3 10.8 11.25 10.9 11.25 11.0 11.25 11.15 11.25 11.25 L11.25 11.35 10.25 11.35 Q10.25 11.25 10.25 11.2 10.25 11.15 10.25 11.1 10.25 10.95 10.25 10.8 10.25 10.65 10.3 10.5 10.3 10.35 10.35 10.25 10.4 10.1 10.4 9.95 10.45 9.85 10.55 9.75 10.6 9.6 10.65 9.5 10.7 9.4 10.8 9.3 10.9 9.2 11.0 9.1 11.1 9.0 11.2 8.95 11.3 8.85 11.4 8.8 11.5 8.75 11.65 8.7 11.75 8.65 11.85 8.6 12.0 8.55 12.15 8.5 12.3 8.45 12.45 8.45 12.6 8.45 12.75 8.4 12.9 8.4 13.05 8.4 L13.05 8.4" fill="#ffffff" fill-rule="evenodd" stroke="none"/>
    </g>
  </defs>
</svg>
