<?xml version="1.0" encoding="UTF-8" standalone="no"?>
<svg xmlns:ffdec="https://www.free-decompiler.com/flash" xmlns:xlink="http://www.w3.org/1999/xlink" ffdec:objectType="frame" height="26.05px" width="52.95px" xmlns="http://www.w3.org/2000/svg">
  <g transform="matrix(1.0, 0.0, 0.0, 1.0, 0.0, 0.0)">
    <use ffdec:characterId="3" height="26.0" transform="matrix(1.0, 0.0, 0.0, 1.0, 0.0, 0.0)" width="26.0" xlink:href="#shape0"/>
    <use ffdec:characterId="46" height="12.8" transform="matrix(1.0, 0.0, 0.0, 1.0, 10.85, 7.2)" width="6.15" xlink:href="#shape1"/>
    <use ffdec:characterId="185" height="26.0" transform="matrix(1.0, 0.0, 0.0, 1.0, 0.0, 0.0)" width="26.0" xlink:href="#shape2"/>
  </g>
  <defs>
    <g id="shape0" transform="matrix(1.0, 0.0, 0.0, 1.0, 0.0, 0.0)">
      <path d="M22.0 4.0 Q23.05 5.1 23.05 6.6 L23.05 19.4 Q23.05 20.85 22.0 22.0 20.85 23.05 19.4 23.05 L6.6 23.05 Q5.1 23.05 4.0 22.0 2.95 20.9 2.95 19.4 L2.95 6.6 Q2.95 5.1 4.0 4.0 5.1 2.9 6.6 2.9 L19.4 2.9 Q20.9 2.9 22.0 4.0 M26.0 6.6 L26.0 19.4 Q26.0 22.15 24.05 24.05 L23.95 24.15 Q22.1 26.0 19.4 26.0 L6.6 26.0 Q3.9 26.0 1.95 24.05 0.0 22.15 0.0 19.4 L0.0 6.6 Q0.0 3.9 1.95 1.95 3.9 0.0 6.6 0.0 L19.4 0.0 Q22.1 0.0 23.95 1.85 L24.05 1.95 Q26.0 3.9 26.0 6.6 M23.95 3.85 L23.15 2.8 Q21.55 1.3 19.4 1.3 L6.6 1.3 Q4.4 1.3 2.8 2.8 1.3 4.4 1.3 6.6 L1.3 19.4 Q1.3 21.55 2.8 23.15 4.4 24.7 6.6 24.7 L19.4 24.7 Q21.55 24.7 23.15 23.15 L23.95 22.15 Q24.7 20.9 24.7 19.4 L24.7 6.6 Q24.7 5.05 23.95 3.85" fill="#000000" fill-opacity="0.0" fill-rule="evenodd" stroke="none"/>
      <path d="M22.0 4.0 Q20.9 2.9 19.4 2.9 L6.6 2.9 Q5.1 2.9 4.0 4.0 2.95 5.1 2.95 6.6 L2.95 19.4 Q2.95 20.9 4.0 22.0 5.1 23.05 6.6 23.05 L19.4 23.05 Q20.85 23.05 22.0 22.0 23.05 20.85 23.05 19.4 L23.05 6.6 Q23.05 5.1 22.0 4.0 M23.95 3.85 Q24.7 5.05 24.7 6.6 L24.7 19.4 Q24.7 20.9 23.95 22.15 L23.15 23.15 Q21.55 24.7 19.4 24.7 L6.6 24.7 Q4.4 24.7 2.8 23.15 1.3 21.55 1.3 19.4 L1.3 6.6 Q1.3 4.4 2.8 2.8 4.4 1.3 6.6 1.3 L19.4 1.3 Q21.55 1.3 23.15 2.8 L23.95 3.85" fill="#a6a8ab" fill-opacity="0.0" fill-rule="evenodd" stroke="none"/>
    </g>
    <g id="shape1" transform="matrix(1.0, 0.0, 0.0, 1.0, 0.0, 0.0)">
      <path d="M4.1 3.2 Q3.9 2.4 3.3 1.9 2.75 1.4 1.7 1.45 L1.7 11.35 Q2.75 11.35 3.3 10.95 L4.1 9.85 4.35 8.3 4.35 6.6 4.35 4.95 4.1 3.2 M5.25 1.5 Q5.65 2.2 5.9 3.45 L6.15 6.6 5.95 9.55 5.3 11.35 4.25 12.35 2.85 12.75 1.15 12.8 0.0 12.8 0.0 0.0 1.9 0.0 3.1 0.05 4.25 0.45 Q4.8 0.75 5.25 1.5" fill="#000000" fill-opacity="0.0" fill-rule="evenodd" stroke="none"/>
    </g>
    <g id="shape2" transform="matrix(1.0, 0.0, 0.0, 1.0, 0.0, 0.0)">
      <path d="M4.0 3.0 Q3.9 3.0 3.8 3.0 3.7 3.05 3.6 3.1 3.5 3.1 3.45 3.15 3.35 3.2 3.3 3.3 3.2 3.35 3.15 3.45 3.1 3.5 3.1 3.6 3.05 3.7 3.0 3.8 3.0 3.9 3.0 4.0 L3.0 22.0 Q3.0 22.1 3.0 22.2 3.05 22.3 3.1 22.4 3.1 22.5 3.15 22.55 3.2 22.65 3.3 22.7 3.35 22.8 3.45 22.85 3.5 22.9 3.6 22.9 3.7 22.95 3.8 23.0 3.9 23.0 4.0 23.0 L22.0 23.0 Q22.1 23.0 22.2 23.0 22.3 22.95 22.4 22.9 22.5 22.9 22.55 22.85 22.65 22.8 22.7 22.7 22.8 22.65 22.85 22.55 22.9 22.5 22.9 22.4 22.95 22.3 23.0 22.2 23.0 22.1 23.0 22.0 L23.0 4.0 Q23.0 3.9 23.0 3.8 22.95 3.7 22.9 3.6 22.9 3.5 22.85 3.45 22.8 3.35 22.7 3.3 22.65 3.2 22.55 3.15 22.5 3.1 22.4 3.1 22.3 3.05 22.2 3.0 22.1 3.0 22.0 3.0 L4.0 3.0 4.0 3.0 M9.3 8.5 L11.05 8.5 Q11.3 8.5 11.5 8.5 11.75 8.5 11.95 8.5 12.15 8.5 12.3 8.55 12.5 8.55 12.65 8.55 12.85 8.55 13.0 8.6 13.15 8.6 13.3 8.6 13.4 8.65 13.55 8.65 13.65 8.65 13.75 8.7 13.85 8.7 13.95 8.75 14.05 8.8 14.1 8.8 14.2 8.85 14.3 8.9 14.4 8.9 14.5 8.95 14.55 9.0 14.65 9.05 14.75 9.1 14.8 9.15 14.9 9.2 14.95 9.25 15.05 9.3 15.1 9.35 15.2 9.4 15.3 9.5 15.4 9.6 15.45 9.65 15.55 9.75 15.65 9.85 15.7 9.95 15.8 10.0 15.85 10.1 15.95 10.2 16.0 10.3 16.05 10.4 16.15 10.55 16.2 10.65 16.25 10.75 16.3 10.85 16.35 10.95 16.4 11.1 16.45 11.2 16.45 11.35 16.5 11.45 16.55 11.6 16.55 11.75 16.6 11.85 16.6 12.0 16.65 12.15 16.65 12.3 16.65 12.4 16.7 12.55 16.7 12.7 16.7 12.85 16.7 13.0 16.7 13.15 16.7 13.3 16.7 13.45 16.65 13.6 16.65 13.75 16.65 13.85 16.6 14.0 16.6 14.15 16.55 14.25 16.55 14.4 16.5 14.55 16.45 14.65 16.45 14.8 16.4 14.9 16.35 15.0 16.3 15.15 16.25 15.25 16.2 15.35 16.15 15.5 16.05 15.6 16.0 15.7 15.95 15.8 15.85 15.9 15.8 16.0 15.75 16.1 15.65 16.15 15.55 16.25 15.5 16.35 15.4 16.4 15.3 16.5 15.2 16.6 15.1 16.65 15.05 16.7 14.95 16.75 14.9 16.8 14.8 16.85 14.75 16.9 14.65 16.95 14.55 17.0 14.5 17.05 14.4 17.1 14.3 17.1 14.2 17.15 14.15 17.2 14.05 17.25 13.95 17.25 13.85 17.3 13.75 17.3 13.65 17.35 13.55 17.35 13.45 17.35 13.35 17.4 13.2 17.4 13.1 17.4 12.95 17.45 12.8 17.45 12.65 17.45 12.5 17.45 12.35 17.5 12.15 17.5 12.0 17.5 11.8 17.5 11.65 17.5 11.45 17.5 L11.05 17.5 9.3 17.5 9.3 8.5 9.3 8.5 M10.4 9.5 L10.4 16.5 11.1 16.5 Q12.75 16.5 13.35 16.35 13.45 16.35 13.5 16.3 13.6 16.3 13.65 16.25 13.75 16.25 13.8 16.2 13.9 16.2 13.95 16.15 14.05 16.1 14.1 16.1 14.15 16.05 14.2 16.0 14.25 16.0 14.35 15.95 14.4 15.9 14.45 15.85 14.5 15.8 14.6 15.75 14.65 15.65 14.7 15.6 14.75 15.55 14.8 15.45 14.9 15.4 14.95 15.3 15.0 15.25 15.05 15.15 15.1 15.1 15.1 15.0 15.15 14.95 15.2 14.85 15.25 14.75 15.3 14.65 15.35 14.55 15.35 14.45 15.4 14.4 15.4 14.3 15.45 14.2 15.45 14.1 15.5 14.0 15.5 13.9 15.5 13.8 15.55 13.65 15.55 13.55 15.55 13.45 15.55 13.35 15.55 13.25 15.55 13.1 15.55 13.0 15.55 12.9 15.55 12.75 15.55 12.65 15.55 12.55 15.55 12.45 15.5 12.3 15.5 12.2 15.5 12.1 15.5 12.0 15.45 11.9 15.45 11.8 15.4 11.7 15.4 11.6 15.35 11.5 15.3 11.4 15.3 11.35 15.25 11.25 15.2 11.15 15.2 11.1 15.15 11.0 15.1 10.9 15.05 10.85 15.0 10.75 14.95 10.7 14.9 10.6 14.8 10.55 14.75 10.45 14.7 10.4 14.65 10.35 14.6 10.25 14.5 10.2 14.45 10.15 14.4 10.1 14.35 10.05 14.3 10.0 14.2 10.0 14.15 9.95 14.1 9.9 14.05 9.9 13.95 9.85 13.9 9.8 13.8 9.8 13.75 9.75 13.65 9.75 13.6 9.7 13.5 9.7 13.45 9.65 13.35 9.65 13.25 9.65 13.15 9.6 13.1 9.6 12.95 9.6 12.85 9.55 12.75 9.55 12.6 9.55 12.45 9.55 12.3 9.5 12.15 9.5 12.0 9.5 11.85 9.5 11.65 9.5 11.45 9.5 11.3 9.5 11.1 9.5 L10.4 9.5 10.4 9.5" fill="#ffffff" fill-rule="evenodd" stroke="none"/>
    </g>
  </defs>
</svg>
