<?xml version="1.0" encoding="UTF-8" standalone="no"?>
<svg xmlns:ffdec="https://www.free-decompiler.com/flash" xmlns:xlink="http://www.w3.org/1999/xlink" ffdec:objectType="frame" height="26.05px" width="52.95px" xmlns="http://www.w3.org/2000/svg">
  <g transform="matrix(1.0, 0.0, 0.0, 1.0, 0.0, 0.0)">
    <use ffdec:characterId="3" height="26.0" transform="matrix(1.0, 0.0, 0.0, 1.0, 0.0, 0.0)" width="26.0" xlink:href="#shape0"/>
    <use ffdec:characterId="79" height="12.95" transform="matrix(1.0, 0.0, 0.0, 1.0, 8.25, 7.05)" width="11.15" xlink:href="#shape1"/>
    <use ffdec:characterId="213" height="26.0" transform="matrix(1.0, 0.0, 0.0, 1.0, 0.0, 0.0)" width="26.0" xlink:href="#shape2"/>
  </g>
  <defs>
    <g id="shape0" transform="matrix(1.0, 0.0, 0.0, 1.0, 0.0, 0.0)">
      <path d="M22.0 4.0 Q23.05 5.1 23.05 6.6 L23.05 19.4 Q23.05 20.85 22.0 22.0 20.85 23.05 19.4 23.05 L6.6 23.05 Q5.1 23.05 4.0 22.0 2.95 20.9 2.95 19.4 L2.95 6.6 Q2.95 5.1 4.0 4.0 5.1 2.9 6.6 2.9 L19.4 2.9 Q20.9 2.9 22.0 4.0 M26.0 6.6 L26.0 19.4 Q26.0 22.15 24.05 24.05 L23.95 24.15 Q22.1 26.0 19.4 26.0 L6.6 26.0 Q3.9 26.0 1.95 24.05 0.0 22.15 0.0 19.4 L0.0 6.6 Q0.0 3.9 1.95 1.95 3.9 0.0 6.6 0.0 L19.4 0.0 Q22.1 0.0 23.95 1.85 L24.05 1.95 Q26.0 3.9 26.0 6.6 M23.95 3.85 L23.15 2.8 Q21.55 1.3 19.4 1.3 L6.6 1.3 Q4.4 1.3 2.8 2.8 1.3 4.4 1.3 6.6 L1.3 19.4 Q1.3 21.55 2.8 23.15 4.4 24.7 6.6 24.7 L19.4 24.7 Q21.55 24.7 23.15 23.15 L23.95 22.15 Q24.7 20.9 24.7 19.4 L24.7 6.6 Q24.7 5.05 23.95 3.85" fill="#000000" fill-opacity="0.0" fill-rule="evenodd" stroke="none"/>
      <path d="M22.0 4.0 Q20.9 2.9 19.4 2.9 L6.6 2.9 Q5.1 2.9 4.0 4.0 2.95 5.1 2.95 6.6 L2.95 19.4 Q2.95 20.9 4.0 22.0 5.1 23.05 6.6 23.05 L19.4 23.05 Q20.85 23.05 22.0 22.0 23.05 20.85 23.05 19.4 L23.05 6.6 Q23.05 5.1 22.0 4.0 M23.95 3.85 Q24.7 5.05 24.7 6.6 L24.7 19.4 Q24.7 20.9 23.95 22.15 L23.15 23.15 Q21.55 24.7 19.4 24.7 L6.6 24.7 Q4.4 24.7 2.8 23.15 1.3 21.55 1.3 19.4 L1.3 6.6 Q1.3 4.4 2.8 2.8 4.4 1.3 6.6 1.3 L19.4 1.3 Q21.55 1.3 23.15 2.8 L23.95 3.85" fill="#a6a8ab" fill-opacity="0.0" fill-rule="evenodd" stroke="none"/>
    </g>
    <g id="shape1" transform="matrix(1.0, 0.0, 0.0, 1.0, 0.0, 0.0)">
      <path d="M4.6 0.15 L4.6 1.6 1.7 1.6 1.7 5.65 4.3 5.65 4.3 7.1 1.7 7.1 1.7 12.95 0.0 12.95 0.0 0.15 4.6 0.15 M7.6 1.8 Q7.4 2.1 7.35 2.55 L7.25 3.35 7.3 3.95 7.3 4.3 5.55 4.3 5.55 3.85 Q5.55 2.8 5.7 1.95 5.9 1.05 6.45 0.5 7.05 0.0 8.3 0.0 9.85 0.0 10.5 0.8 11.15 1.65 11.15 3.15 11.15 4.1 10.75 5.25 L9.9 7.45 8.95 9.4 7.85 11.45 11.05 11.45 11.05 12.95 5.4 12.95 8.5 6.35 9.1 4.75 9.4 3.05 9.3 2.35 8.95 1.75 Q8.7 1.5 8.25 1.5 7.85 1.5 7.6 1.8" fill="#000000" fill-opacity="0.0" fill-rule="evenodd" stroke="none"/>
    </g>
    <g id="shape2" transform="matrix(1.0, 0.0, 0.0, 1.0, 0.0, 0.0)">
      <path d="M4.0 3.0 Q3.9 3.0 3.8 3.0 3.7 3.05 3.6 3.1 3.5 3.1 3.45 3.15 3.35 3.2 3.3 3.3 3.2 3.35 3.15 3.45 3.1 3.5 3.1 3.6 3.05 3.7 3.0 3.8 3.0 3.9 3.0 4.0 L3.0 22.0 Q3.0 22.1 3.0 22.2 3.05 22.3 3.1 22.4 3.1 22.5 3.15 22.55 3.2 22.65 3.3 22.7 3.35 22.8 3.45 22.85 3.5 22.9 3.6 22.9 3.7 22.95 3.8 23.0 3.9 23.0 4.0 23.0 L22.0 23.0 Q22.1 23.0 22.2 23.0 22.3 22.95 22.4 22.9 22.5 22.9 22.55 22.85 22.65 22.8 22.7 22.7 22.8 22.65 22.85 22.55 22.9 22.5 22.9 22.4 22.95 22.3 23.0 22.2 23.0 22.1 23.0 22.0 L23.0 4.0 Q23.0 3.9 23.0 3.8 22.95 3.7 22.9 3.6 22.9 3.5 22.85 3.45 22.8 3.35 22.7 3.3 22.65 3.2 22.55 3.15 22.5 3.1 22.4 3.1 22.3 3.05 22.2 3.0 22.1 3.0 22.0 3.0 L4.0 3.0 4.0 3.0 M16.05 8.4 Q16.2 8.4 16.35 8.4 16.55 8.4 16.7 8.45 16.8 8.45 16.95 8.5 17.1 8.55 17.25 8.55 17.35 8.6 17.45 8.65 17.6 8.7 17.7 8.8 17.8 8.85 17.9 8.9 18.0 9.0 18.1 9.05 18.2 9.15 18.3 9.25 18.35 9.3 18.45 9.4 18.5 9.5 18.55 9.65 18.6 9.75 18.65 9.85 18.7 9.95 18.75 10.1 18.8 10.2 18.8 10.35 18.85 10.5 18.85 10.6 18.85 10.75 18.85 10.9 18.85 11.0 18.85 11.1 18.85 11.2 18.8 11.35 18.8 11.45 18.8 11.55 18.75 11.65 18.75 11.75 18.7 11.9 18.65 12.0 18.6 12.1 18.55 12.2 18.5 12.3 18.45 12.45 18.4 12.55 18.35 12.65 18.3 12.75 18.2 12.9 18.15 13.0 18.05 13.15 17.95 13.25 17.85 13.4 17.75 13.55 17.65 13.7 17.55 13.85 17.4 14.0 17.3 14.15 17.15 14.3 17.05 14.45 16.9 14.6 16.75 14.8 16.6 14.95 L15.15 16.5 18.6 16.5 18.6 17.5 13.15 17.5 15.05 15.25 Q15.25 15.0 15.6 14.6 15.85 14.25 16.1 13.95 16.35 13.65 16.55 13.4 16.75 13.1 16.95 12.85 17.1 12.6 17.25 12.4 17.4 12.15 17.5 11.95 17.6 11.75 17.65 11.6 17.75 11.4 17.75 11.25 17.8 11.1 17.8 10.95 17.8 10.85 17.8 10.8 17.8 10.7 17.75 10.65 17.75 10.55 17.75 10.5 17.7 10.4 17.65 10.35 17.65 10.25 17.6 10.2 17.55 10.15 17.5 10.05 17.45 10.0 17.4 9.95 17.35 9.9 17.3 9.85 17.25 9.8 17.15 9.75 17.1 9.7 17.05 9.65 16.95 9.6 16.9 9.55 16.8 9.55 16.75 9.5 16.65 9.5 16.6 9.45 16.5 9.45 16.4 9.4 16.3 9.4 16.2 9.4 16.1 9.4 16.05 9.4 15.95 9.4 15.85 9.4 15.75 9.4 15.65 9.4 15.55 9.45 15.45 9.45 15.35 9.5 15.25 9.5 15.2 9.55 15.1 9.6 15.05 9.6 14.95 9.65 14.9 9.7 14.85 9.75 14.75 9.8 14.7 9.85 14.65 9.9 14.6 10.0 14.55 10.05 14.5 10.15 14.45 10.2 14.45 10.3 14.4 10.35 14.35 10.45 14.35 10.55 14.3 10.65 14.3 10.7 14.3 10.8 14.25 10.9 14.25 11.0 14.25 11.15 14.25 11.25 L14.25 11.35 13.25 11.35 Q13.25 11.3 13.25 11.2 13.25 11.15 13.25 11.1 13.25 10.95 13.25 10.8 13.25 10.65 13.3 10.5 13.3 10.35 13.35 10.25 13.4 10.1 13.45 9.95 13.45 9.85 13.55 9.75 13.6 9.6 13.65 9.5 13.75 9.4 13.8 9.3 13.9 9.2 14.0 9.1 14.1 9.0 14.2 8.95 14.3 8.85 14.4 8.8 14.5 8.75 14.65 8.7 14.75 8.65 14.9 8.6 15.0 8.55 15.15 8.5 15.3 8.45 15.45 8.45 15.6 8.45 15.75 8.4 15.9 8.4 16.05 8.4 L16.05 8.4 M7.15 8.5 L11.9 8.5 11.9 9.5 8.2 9.5 8.2 12.05 11.9 12.05 11.9 13.05 8.2 13.05 8.2 17.5 7.15 17.5 7.15 8.5 7.15 8.5" fill="#ffffff" fill-rule="evenodd" stroke="none"/>
    </g>
  </defs>
</svg>
