<?xml version="1.0" encoding="UTF-8" standalone="no"?>
<svg xmlns:ffdec="https://www.free-decompiler.com/flash" xmlns:xlink="http://www.w3.org/1999/xlink" ffdec:objectType="frame" height="26.05px" width="52.95px" xmlns="http://www.w3.org/2000/svg">
  <g transform="matrix(1.0, 0.0, 0.0, 1.0, 0.0, 0.0)">
    <use ffdec:characterId="3" height="26.0" transform="matrix(1.0, 0.0, 0.0, 1.0, 0.0, 0.0)" width="26.0" xlink:href="#shape0"/>
    <use ffdec:characterId="87" height="13.1" transform="matrix(1.0, 0.0, 0.0, 1.0, 5.6, 7.05)" width="16.45" xlink:href="#shape1"/>
    <use ffdec:characterId="221" height="26.0" transform="matrix(1.0, 0.0, 0.0, 1.0, 0.0, 0.0)" width="26.0" xlink:href="#shape2"/>
  </g>
  <defs>
    <g id="shape0" transform="matrix(1.0, 0.0, 0.0, 1.0, 0.0, 0.0)">
      <path d="M22.0 4.0 Q23.05 5.1 23.05 6.6 L23.05 19.4 Q23.05 20.85 22.0 22.0 20.85 23.05 19.4 23.05 L6.6 23.05 Q5.1 23.05 4.0 22.0 2.95 20.9 2.95 19.4 L2.95 6.6 Q2.95 5.1 4.0 4.0 5.1 2.9 6.6 2.9 L19.4 2.9 Q20.9 2.9 22.0 4.0 M26.0 6.6 L26.0 19.4 Q26.0 22.15 24.05 24.05 L23.95 24.15 Q22.1 26.0 19.4 26.0 L6.6 26.0 Q3.9 26.0 1.95 24.05 0.0 22.15 0.0 19.4 L0.0 6.6 Q0.0 3.9 1.95 1.95 3.9 0.0 6.6 0.0 L19.4 0.0 Q22.1 0.0 23.95 1.85 L24.05 1.95 Q26.0 3.9 26.0 6.6 M23.95 3.85 L23.15 2.8 Q21.55 1.3 19.4 1.3 L6.6 1.3 Q4.4 1.3 2.8 2.8 1.3 4.4 1.3 6.6 L1.3 19.4 Q1.3 21.55 2.8 23.15 4.4 24.7 6.6 24.7 L19.4 24.7 Q21.55 24.7 23.15 23.15 L23.95 22.15 Q24.7 20.9 24.7 19.4 L24.7 6.6 Q24.7 5.05 23.95 3.85" fill="#000000" fill-opacity="0.0" fill-rule="evenodd" stroke="none"/>
      <path d="M22.0 4.0 Q20.9 2.9 19.4 2.9 L6.6 2.9 Q5.1 2.9 4.0 4.0 2.95 5.1 2.95 6.6 L2.95 19.4 Q2.95 20.9 4.0 22.0 5.1 23.05 6.6 23.05 L19.4 23.05 Q20.85 23.05 22.0 22.0 23.05 20.85 23.05 19.4 L23.05 6.6 Q23.05 5.1 22.0 4.0 M23.95 3.85 Q24.7 5.05 24.7 6.6 L24.7 19.4 Q24.7 20.9 23.95 22.15 L23.15 23.15 Q21.55 24.7 19.4 24.7 L6.6 24.7 Q4.4 24.7 2.8 23.15 1.3 21.55 1.3 19.4 L1.3 6.6 Q1.3 4.4 2.8 2.8 4.4 1.3 6.6 1.3 L19.4 1.3 Q21.55 1.3 23.15 2.8 L23.95 3.85" fill="#a6a8ab" fill-opacity="0.0" fill-rule="evenodd" stroke="none"/>
    </g>
    <g id="shape1" transform="matrix(1.0, 0.0, 0.0, 1.0, 0.0, 0.0)">
      <path d="M0.0 0.15 L4.6 0.15 4.6 1.6 1.7 1.6 1.7 5.65 4.3 5.65 4.3 7.1 1.7 7.1 1.7 12.95 0.0 12.95 0.0 0.15 M6.15 1.6 L6.15 0.15 9.1 0.15 9.1 12.95 7.4 12.95 7.4 1.6 6.15 1.6 M13.55 1.5 Q13.0 1.5 12.7 2.2 12.45 2.9 12.35 4.05 L12.3 6.55 12.35 9.05 Q12.45 10.2 12.7 10.85 13.0 11.55 13.55 11.6 14.15 11.55 14.4 10.85 L14.75 9.05 14.8 6.55 14.75 4.05 14.4 2.2 Q14.15 1.5 13.55 1.5 M15.9 1.7 L16.3 3.35 16.45 5.1 16.45 6.55 16.45 8.0 16.3 9.75 15.9 11.4 15.05 12.6 Q14.45 13.1 13.55 13.1 12.65 13.1 12.1 12.6 11.5 12.15 11.2 11.4 L10.8 9.75 10.65 8.0 10.65 6.55 10.65 5.1 Q10.65 4.25 10.8 3.35 L11.2 1.7 Q11.5 0.95 12.1 0.45 12.65 0.0 13.55 0.0 14.45 0.0 15.05 0.45 L15.9 1.7" fill="#000000" fill-opacity="0.0" fill-rule="evenodd" stroke="none"/>
    </g>
    <g id="shape2" transform="matrix(1.0, 0.0, 0.0, 1.0, 0.0, 0.0)">
      <path d="M4.0 3.0 Q3.9 3.0 3.8 3.0 3.7 3.05 3.6 3.1 3.5 3.1 3.45 3.15 3.35 3.2 3.3 3.3 3.2 3.35 3.15 3.45 3.1 3.5 3.1 3.6 3.05 3.7 3.0 3.8 3.0 3.9 3.0 4.0 L3.0 22.0 Q3.0 22.1 3.0 22.2 3.05 22.3 3.1 22.4 3.1 22.5 3.15 22.55 3.2 22.65 3.3 22.7 3.35 22.8 3.45 22.85 3.5 22.9 3.6 22.9 3.7 22.95 3.8 23.0 3.9 23.0 4.0 23.0 L22.0 23.0 Q22.1 23.0 22.2 23.0 22.3 22.95 22.4 22.9 22.5 22.9 22.55 22.85 22.65 22.8 22.7 22.7 22.8 22.65 22.85 22.55 22.9 22.5 22.9 22.4 22.95 22.3 23.0 22.2 23.0 22.1 23.0 22.0 L23.0 4.0 Q23.0 3.9 23.0 3.8 22.95 3.7 22.9 3.6 22.9 3.5 22.85 3.45 22.8 3.35 22.7 3.3 22.65 3.2 22.55 3.15 22.5 3.1 22.4 3.1 22.3 3.05 22.2 3.0 22.1 3.0 22.0 3.0 L4.0 3.0 4.0 3.0 M18.9 8.9 Q19.05 8.9 19.2 8.9 19.4 8.95 19.5 9.0 19.65 9.0 19.8 9.05 19.95 9.1 20.05 9.2 20.2 9.25 20.3 9.35 20.45 9.45 20.55 9.55 20.65 9.65 20.75 9.75 20.85 9.9 20.95 10.0 21.05 10.15 21.15 10.3 21.2 10.45 21.3 10.6 21.35 10.75 21.4 10.95 21.45 11.15 21.5 11.3 21.55 11.5 21.6 11.7 21.6 11.9 21.65 12.15 21.65 12.35 21.7 12.6 21.7 12.8 21.7 13.05 21.7 13.3 21.7 13.55 21.65 13.75 21.65 14.0 21.65 14.2 21.6 14.4 21.55 14.6 21.5 14.8 21.45 15.0 21.4 15.15 21.35 15.35 21.3 15.5 21.2 15.65 21.15 15.85 21.05 16.0 20.95 16.1 20.85 16.25 20.75 16.35 20.65 16.5 20.55 16.6 20.45 16.7 20.35 16.8 20.2 16.85 20.1 16.95 19.95 17.0 19.8 17.05 19.7 17.1 19.55 17.15 19.4 17.2 19.25 17.2 19.1 17.2 18.95 17.2 18.8 17.2 18.65 17.2 18.45 17.15 18.3 17.15 18.2 17.1 18.05 17.05 17.9 17.0 17.75 16.95 17.65 16.85 17.5 16.8 17.4 16.7 17.3 16.6 17.2 16.5 17.1 16.35 17.0 16.25 16.9 16.1 16.8 15.95 16.7 15.8 16.65 15.65 16.55 15.5 16.5 15.35 16.45 15.15 16.4 15.0 16.35 14.8 16.3 14.6 16.25 14.4 16.2 14.2 16.2 14.0 16.15 13.75 16.15 13.55 16.15 13.3 16.15 13.05 16.15 12.8 16.15 12.6 16.15 12.35 16.2 12.15 16.2 11.95 16.25 11.75 16.3 11.55 16.35 11.35 16.35 11.15 16.45 10.95 16.5 10.8 16.55 10.65 16.65 10.45 16.7 10.3 16.8 10.15 16.9 10.05 17.0 9.9 17.1 9.8 17.2 9.65 17.3 9.55 17.4 9.45 17.5 9.35 17.65 9.25 17.75 9.2 17.9 9.15 18.0 9.1 18.15 9.0 18.3 9.0 18.45 8.95 18.6 8.95 18.75 8.9 18.9 8.9 L18.9 8.9 M4.3 9.0 L8.55 9.0 8.55 9.85 5.25 9.85 5.25 12.15 8.55 12.15 8.55 13.05 5.25 13.05 5.25 17.0 4.3 17.0 4.3 9.0 4.3 9.0 M10.95 9.1 L13.0 9.1 13.0 17.0 12.05 17.0 12.05 9.9 10.45 9.9 10.95 9.1 10.95 9.1 M18.9 9.7 Q18.8 9.7 18.7 9.7 18.6 9.7 18.5 9.75 18.4 9.8 18.35 9.8 18.25 9.85 18.15 9.9 18.1 9.95 18.0 10.05 17.95 10.1 17.85 10.2 17.8 10.3 17.7 10.35 17.65 10.45 17.6 10.6 17.55 10.7 17.5 10.8 17.45 10.95 17.4 11.05 17.35 11.2 17.3 11.35 17.25 11.5 17.25 11.65 17.2 11.8 17.2 11.95 17.15 12.1 17.15 12.3 17.15 12.45 17.15 12.65 17.1 12.85 17.1 13.05 17.1 13.25 17.1 13.45 17.15 13.65 17.15 13.8 17.15 14.0 17.2 14.15 17.2 14.3 17.25 14.45 17.25 14.65 17.3 14.75 17.35 14.9 17.4 15.05 17.45 15.2 17.5 15.3 17.55 15.45 17.6 15.55 17.65 15.65 17.7 15.75 17.8 15.85 17.85 15.95 17.95 16.0 18.0 16.1 18.1 16.15 18.15 16.2 18.25 16.25 18.35 16.3 18.4 16.35 18.5 16.4 18.6 16.4 18.7 16.4 18.8 16.45 18.9 16.45 19.0 16.45 19.1 16.45 19.25 16.4 19.3 16.4 19.4 16.35 19.5 16.3 19.6 16.3 19.7 16.2 19.75 16.15 19.85 16.1 19.95 16.05 20.0 15.95 20.05 15.85 20.15 15.8 20.2 15.7 20.25 15.6 20.3 15.5 20.35 15.35 20.4 15.25 20.45 15.1 20.5 15.0 20.55 14.85 20.55 14.7 20.6 14.55 20.6 14.35 20.65 14.2 20.65 14.05 20.7 13.85 20.7 13.65 20.7 13.45 20.7 13.3 20.7 13.05 20.7 12.85 20.7 12.65 20.7 12.45 20.7 12.3 20.65 12.1 20.65 11.95 20.6 11.75 20.6 11.6 20.55 11.45 20.55 11.3 20.5 11.15 20.45 11.05 20.4 10.9 20.35 10.8 20.3 10.65 20.25 10.55 20.2 10.45 20.15 10.35 20.05 10.25 20.0 10.2 19.95 10.1 19.85 10.05 19.75 9.95 19.7 9.9 19.6 9.85 19.5 9.8 19.45 9.75 19.35 9.75 19.25 9.7 19.15 9.7 19.05 9.7 18.9 9.7 L18.9 9.7" fill="#ffffff" fill-rule="evenodd" stroke="none"/>
    </g>
  </defs>
</svg>
