<?xml version="1.0" encoding="UTF-8" standalone="no"?>
<svg xmlns:ffdec="https://www.free-decompiler.com/flash" xmlns:xlink="http://www.w3.org/1999/xlink" ffdec:objectType="frame" height="26.05px" width="52.95px" xmlns="http://www.w3.org/2000/svg">
  <g transform="matrix(1.0, 0.0, 0.0, 1.0, 0.0, 0.0)">
    <use ffdec:characterId="1" height="26.0" transform="matrix(1.0, 0.0, 0.0, 1.0, 0.0, 0.0)" width="35.75" xlink:href="#shape0"/>
    <use ffdec:characterId="98" height="12.8" transform="matrix(1.0, 0.0, 0.0, 1.0, 8.0, 7.2)" width="21.3" xlink:href="#shape1"/>
    <use ffdec:characterId="231" height="26.0" transform="matrix(1.0, 0.0, 0.0, 1.0, 0.0, 0.0)" width="35.75" xlink:href="#shape2"/>
  </g>
  <defs>
    <g id="shape0" transform="matrix(1.0, 0.0, 0.0, 1.0, 0.0, 0.0)">
      <path d="M33.7 3.85 L32.9 2.8 Q31.3 1.3 29.15 1.3 L6.6 1.3 Q4.4 1.3 2.8 2.8 1.3 4.4 1.3 6.6 L1.3 19.4 Q1.3 21.55 2.8 23.15 4.4 24.7 6.6 24.7 L29.15 24.7 Q31.3 24.7 32.9 23.15 L33.7 22.15 Q34.45 20.9 34.45 19.4 L34.45 6.6 Q34.45 5.05 33.7 3.85 M33.8 1.95 Q35.75 3.9 35.75 6.6 L35.75 19.4 Q35.75 22.15 33.8 24.05 L33.7 24.15 Q31.85 26.0 29.15 26.0 L6.6 26.0 Q3.9 26.0 1.95 24.05 0.0 22.15 0.0 19.4 L0.0 6.6 Q0.0 3.9 1.95 1.95 3.9 0.0 6.6 0.0 L29.15 0.0 Q31.85 0.0 33.7 1.85 L33.8 1.95" fill="#000000" fill-opacity="0.0" fill-rule="evenodd" stroke="none"/>
      <path d="M34.45 6.6 L34.45 19.4 Q34.45 20.9 33.7 22.15 L32.9 23.15 Q31.3 24.7 29.15 24.7 L6.6 24.7 Q4.4 24.7 2.8 23.15 1.3 21.55 1.3 19.4 L1.3 6.6 Q1.3 4.4 2.8 2.8 4.4 1.3 6.6 1.3 L29.15 1.3 Q31.3 1.3 32.9 2.8 L33.7 3.85 Q34.45 5.05 34.45 6.6 M31.75 4.0 Q30.65 2.9 29.15 2.9 L6.6 2.9 Q5.1 2.9 4.0 4.0 2.95 5.1 2.95 6.6 L2.95 19.4 Q2.95 20.9 4.0 22.0 5.1 23.05 6.6 23.05 L29.15 23.05 Q30.6 23.05 31.75 22.0 32.8 20.85 32.8 19.4 L32.8 6.6 Q32.8 5.1 31.75 4.0" fill="#a6a8ab" fill-opacity="0.0" fill-rule="evenodd" stroke="none"/>
      <path d="M32.8 6.6 L32.8 19.4 Q32.8 20.85 31.75 22.0 30.6 23.05 29.15 23.05 L6.6 23.05 Q5.1 23.05 4.0 22.0 2.95 20.9 2.95 19.4 L2.95 6.6 Q2.95 5.1 4.0 4.0 5.1 2.9 6.6 2.9 L29.15 2.9 Q30.65 2.9 31.75 4.0 32.8 5.1 32.8 6.6" fill="#000000" fill-opacity="0.0" fill-rule="evenodd" stroke="none"/>
    </g>
    <g id="shape1" transform="matrix(1.0, 0.0, 0.0, 1.0, 0.0, 0.0)">
      <path d="M1.6 0.0 L4.6 9.7 4.65 9.7 4.25 0.0 5.95 0.0 5.95 12.8 4.35 12.8 1.35 2.9 1.7 12.8 0.0 12.8 0.0 0.0 1.6 0.0 M11.15 5.2 Q11.55 4.65 11.55 3.55 L11.4 2.5 10.95 1.7 9.95 1.45 9.7 1.45 9.7 5.7 Q10.75 5.75 11.15 5.2 M13.05 1.5 L13.35 3.4 Q13.35 5.35 12.5 6.3 11.65 7.2 9.7 7.1 L9.7 12.8 8.0 12.8 8.0 0.0 10.05 0.0 11.15 0.05 12.25 0.45 13.05 1.5 M21.3 7.25 L21.3 8.2 18.3 8.2 18.3 11.2 17.3 11.2 17.3 8.2 14.3 8.2 14.3 7.25 17.3 7.25 17.3 4.2 18.3 4.2 18.3 7.25 21.3 7.25" fill="#000000" fill-opacity="0.0" fill-rule="evenodd" stroke="none"/>
    </g>
    <g id="shape2" transform="matrix(1.0, 0.0, 0.0, 1.0, 0.0, 0.0)">
      <path d="M4.0 3.0 Q3.9 3.0 3.8 3.0 3.7 3.05 3.6 3.1 3.5 3.1 3.45 3.15 3.35 3.2 3.3 3.3 3.2 3.35 3.15 3.45 3.1 3.5 3.1 3.6 3.05 3.7 3.0 3.8 3.0 3.9 3.0 4.0 L3.0 22.0 Q3.0 22.1 3.0 22.2 3.05 22.3 3.1 22.4 3.1 22.5 3.15 22.55 3.2 22.65 3.3 22.7 3.35 22.8 3.45 22.85 3.5 22.9 3.6 22.9 3.7 22.95 3.8 23.0 3.9 23.0 4.0 23.0 L31.75 23.0 Q31.85 23.0 31.95 23.0 32.05 22.95 32.15 22.9 32.25 22.9 32.3 22.85 32.4 22.8 32.45 22.7 32.55 22.65 32.6 22.55 32.65 22.5 32.65 22.4 32.7 22.3 32.75 22.2 32.75 22.1 32.75 22.0 L32.75 4.0 Q32.75 3.9 32.75 3.8 32.7 3.7 32.65 3.6 32.65 3.5 32.6 3.45 32.55 3.35 32.45 3.3 32.4 3.2 32.3 3.15 32.25 3.1 32.15 3.1 32.05 3.05 31.95 3.0 31.85 3.0 31.75 3.0 L4.0 3.0 4.0 3.0 M5.9 8.15 L12.45 15.35 12.45 8.5 13.5 8.5 13.5 17.85 6.9 10.75 6.9 17.5 5.9 17.5 5.9 8.15 5.9 8.15 M15.65 8.5 L17.5 8.5 Q17.65 8.5 17.75 8.5 17.85 8.5 17.95 8.5 18.1 8.5 18.2 8.5 18.3 8.5 18.4 8.55 18.45 8.55 18.55 8.55 18.65 8.55 18.7 8.55 18.8 8.55 18.85 8.6 18.9 8.6 19.0 8.6 19.05 8.6 19.1 8.65 19.15 8.65 19.2 8.65 19.25 8.7 19.3 8.7 19.35 8.7 19.4 8.75 19.45 8.75 19.5 8.8 19.55 8.8 19.6 8.85 19.65 8.85 19.7 8.9 19.75 8.9 19.8 8.95 19.85 9.0 19.9 9.05 19.95 9.05 20.0 9.1 20.05 9.15 20.1 9.2 20.15 9.25 20.15 9.3 20.2 9.35 20.25 9.4 20.3 9.5 20.35 9.55 20.35 9.6 20.4 9.65 20.45 9.7 20.45 9.8 20.5 9.85 20.5 9.95 20.55 10.0 20.55 10.05 20.6 10.15 20.6 10.2 20.65 10.3 20.65 10.35 20.65 10.45 20.65 10.5 20.7 10.6 20.7 10.65 20.7 10.75 20.7 10.8 20.7 10.9 20.7 11.0 20.7 11.1 20.7 11.15 20.7 11.25 20.7 11.3 20.7 11.4 20.65 11.45 20.65 11.55 20.65 11.6 20.65 11.7 20.6 11.75 20.6 11.8 20.55 11.9 20.55 11.95 20.5 12.05 20.5 12.1 20.45 12.15 20.4 12.2 20.4 12.3 20.35 12.35 20.3 12.4 20.3 12.45 20.25 12.55 20.2 12.6 20.15 12.65 20.15 12.7 20.1 12.75 20.05 12.8 20.0 12.85 19.95 12.9 19.9 12.95 19.85 12.95 19.8 13.0 19.75 13.05 19.7 13.05 19.65 13.1 19.6 13.1 19.55 13.15 19.5 13.15 19.45 13.2 19.4 13.2 19.35 13.25 19.3 13.25 19.25 13.3 19.2 13.3 19.15 13.3 19.1 13.35 19.05 13.35 19.0 13.35 18.95 13.35 18.85 13.4 18.8 13.4 18.7 13.4 18.65 13.4 18.55 13.4 18.5 13.45 18.4 13.45 18.3 13.45 18.2 13.45 18.1 13.45 18.0 13.45 17.9 13.45 17.75 13.45 17.65 13.45 17.5 13.45 L17.2 13.45 16.7 13.45 16.7 17.5 15.65 17.5 15.65 8.5 15.65 8.5 M16.7 9.5 L16.7 12.5 17.2 12.5 Q17.4 12.5 17.55 12.5 17.7 12.5 17.85 12.45 18.0 12.45 18.1 12.45 18.25 12.45 18.35 12.4 18.5 12.4 18.6 12.35 18.7 12.35 18.8 12.3 18.85 12.3 18.95 12.25 19.0 12.2 19.05 12.15 19.1 12.1 19.15 12.05 19.2 12.0 19.25 11.95 19.3 11.9 19.35 11.85 19.4 11.8 19.45 11.7 19.45 11.65 19.5 11.55 19.5 11.5 19.5 11.4 19.55 11.35 19.55 11.25 19.55 11.15 19.55 11.05 19.55 10.95 19.55 10.85 19.55 10.75 19.5 10.65 19.5 10.55 19.5 10.45 19.45 10.4 19.45 10.3 19.4 10.25 19.35 10.15 19.3 10.1 19.25 10.05 19.25 10.0 19.15 9.9 19.1 9.85 19.05 9.85 19.0 9.8 18.9 9.75 18.85 9.7 18.75 9.7 18.65 9.65 18.55 9.6 18.45 9.6 18.35 9.55 18.25 9.55 18.1 9.55 18.0 9.5 17.85 9.5 17.7 9.5 17.55 9.5 17.4 9.5 17.2 9.5 L16.7 9.5 16.7 9.5 M25.85 10.0 L26.55 10.0 26.55 13.4 29.85 13.4 29.85 14.1 26.55 14.1 26.55 17.5 25.85 17.5 25.85 14.1 22.5 14.1 22.5 13.4 25.85 13.4 25.85 10.0 25.85 10.0" fill="#ffffff" fill-rule="evenodd" stroke="none"/>
    </g>
  </defs>
</svg>
